<?xml version="1.0" encoding="UTF-8" standalone="no"?>
<svg
   id="_图层_1"
   data-name="图层_1"
   version="1.1"
   viewBox="0 0 64 64"
   width="22"
   height="22"
   sodipodi:docname="folder-baidunetdisk.svg"
   xml:space="preserve"
   inkscape:version="1.4 (e7c3feb100, 2024-10-09)"
   xmlns:inkscape="http://www.inkscape.org/namespaces/inkscape"
   xmlns:sodipodi="http://sodipodi.sourceforge.net/DTD/sodipodi-0.dtd"
   xmlns="http://www.w3.org/2000/svg"
   xmlns:svg="http://www.w3.org/2000/svg"><sodipodi:namedview
     id="namedview5"
     pagecolor="#505050"
     bordercolor="#eeeeee"
     borderopacity="1"
     inkscape:showpageshadow="0"
     inkscape:pageopacity="0"
     inkscape:pagecheckerboard="0"
     inkscape:deskcolor="#505050"
     inkscape:zoom="10.6875"
     inkscape:cx="32"
     inkscape:cy="36.210526"
     inkscape:window-width="1920"
     inkscape:window-height="939"
     inkscape:window-x="0"
     inkscape:window-y="34"
     inkscape:window-maximized="1"
     inkscape:current-layer="_图层_1" /><!-- Generator: Adobe Illustrator 29.0.1, SVG Export Plug-In . SVG Version: 2.1.0 Build 192)  --><defs
     id="defs1"><style
       id="style1">
      .st0 {
        fill: #85bcff;
      }

      .st1 {
        opacity: .2;
      }

      .st1, .st2 {
        isolation: isolate;
      }

      .st3 {
        fill: #5398df;
      }

      .st4 {
        fill: #e4e4e4;
      }

      .st5 {
        fill: #5398DD;
        opacity:0.8;
      }

      .st2 {
        fill: #fff;
        opacity: .1;
      }
    </style></defs><rect
     class="st1"
     x="4"
     y="22"
     width="56"
     height="36"
     rx="2.8"
     ry="2.8"
     id="rect1" /><path
     class="st3"
     d="M4,46.2c0,1.6,1.2,2.8,2.8,2.8h50.4c1.6,0,2.8-1.2,2.8-2.8V15.8c0-1.6-1.2-2.8-2.8-2.8h-25.2c-4.2,0-5.6-6-9.8-6H6.8c-1.6,0-2.8,1.2-2.8,2.8"
     id="path1" /><rect
     class="st1"
     x="4"
     y="20"
     width="56"
     height="36"
     rx="2.8"
     ry="2.8"
     id="rect2" /><rect
     class="st4"
     x="8"
     y="16"
     width="48"
     height="22"
     rx="2.8"
     ry="2.8"
     id="rect3" /><rect
     class="st0"
     x="4"
     y="21"
     width="56"
     height="36"
     rx="2.8"
     ry="2.8"
     id="rect4" /><path
     class="st2"
     d="M6.8,7c-1.6,0-2.8,1.2-2.8,2.8v1c0-1.6,1.2-2.8,2.8-2.8h15.4c4.2,0,5.6,6,9.8,6h25.2c1.6,0,2.8,1.2,2.8,2.8v-1c0-1.6-1.2-2.8-2.8-2.8h-25.2c-4.2,0-5.6-6-9.8-6H6.8Z"
     id="path4" /><g
     id="g1"
     transform="matrix(0.0254386,0,0,0.02394006,14.502926,26.573095)"
     style="fill:#5da0e4;fill-opacity:1"><path
       d="m 308.096,396.8 a 345.856,345.856 0 0 1 -4.672,-56.832 C 303.424,152.192 454.016,0 639.808,0 c 185.728,0 336.32,152.192 336.32,339.968 0,19.072 -1.536,38.08 -4.672,56.832 170.56,0.96 308.544,140.992 308.544,313.6 0,173.184 -138.88,313.6 -310.272,313.6 a 307.712,307.712 0 0 1 -221.056,-93.568 78.4,78.4 0 0 1 0.448,-109.568 76.416,76.416 0 0 1 111.68,3.008 c 28.16,27.648 66.624,44.736 109.056,44.736 86.4,0 156.416,-70.784 156.416,-158.08 0,-87.36 -70.08,-158.08 -156.416,-158.08 a 154.88,154.88 0 0 0 -103.424,39.424 l -0.128,-0.128 -2.56,2.624 c -3.072,2.816 -6.016,5.76 -8.832,8.896 l -5.888,5.952 0.064,0.128 -317.056,320.448 A 307.712,307.712 0 0 1 310.208,1024 C 138.944,1024 0,883.584 0,710.4 0,537.92 137.728,398.016 308.096,396.8 Z m 2.304,471.808 c 86.4,0 156.416,-70.784 156.416,-158.08 0,-87.36 -70.08,-158.08 -156.416,-158.08 -86.4,0 -156.416,70.72 -156.416,158.08 0,87.296 70.016,158.08 156.416,158.08 z m 329.408,-344.32 c 100.736,0 182.4,-82.56 182.4,-184.32 0,-101.76 -81.664,-184.32 -182.4,-184.32 -100.736,0 -182.4,82.56 -182.4,184.32 0,101.76 81.664,184.32 182.4,184.32 z"
       fill="#06a7ff"
       p-id="6802"
       id="path1-5"
       style="fill:#5da0e4;fill-opacity:1" /><path
       d="m 821.184,367.104 a 71.296,71.296 0 0 1 -0.448,-8.32 c 0,-40.896 34.752,-73.984 77.632,-73.984 42.88,0 77.632,33.088 77.632,73.984 0,3.136 -0.192,6.208 -0.64,9.28 C 964.928,535.808 818.752,668.8 640,668.8 461.248,668.8 315.072,535.808 304.64,368 A 71.296,71.296 0 0 1 304,358.784 c 0,-40.896 34.752,-73.984 77.632,-73.984 42.88,0 77.632,33.088 77.632,73.984 0,2.816 -0.128,5.568 -0.448,8.32 9.6,87.232 87.04,155.136 181.184,155.136 94.08,0 171.52,-67.968 181.184,-155.2 z"
       fill="#ff436a"
       p-id="6803"
       id="path2"
       style="fill:#5da0e4;fill-opacity:1" /></g></svg>
