<?xml version="1.0" encoding="UTF-8" standalone="no"?>
<svg
   id="_图层_1"
   data-name="图层_1"
   version="1.1"
   viewBox="0 0 64 64"
   width="22" height="22"
   sodipodi:docname="folder-xunlei.svg"
   xml:space="preserve"
   inkscape:version="1.4 (e7c3feb100, 2024-10-09)"
   xmlns:inkscape="http://www.inkscape.org/namespaces/inkscape"
   xmlns:sodipodi="http://sodipodi.sourceforge.net/DTD/sodipodi-0.dtd"
   xmlns="http://www.w3.org/2000/svg"
   xmlns:svg="http://www.w3.org/2000/svg"><sodipodi:namedview
     id="namedview5"
     pagecolor="#505050"
     bordercolor="#eeeeee"
     borderopacity="1"
     inkscape:showpageshadow="0"
     inkscape:pageopacity="0"
     inkscape:pagecheckerboard="0"
     inkscape:deskcolor="#505050"
     inkscape:zoom="10.6875"
     inkscape:cx="32"
     inkscape:cy="32"
     inkscape:window-width="1920"
     inkscape:window-height="939"
     inkscape:window-x="0"
     inkscape:window-y="34"
     inkscape:window-maximized="1"
     inkscape:current-layer="_图层_1" /><!-- Generator: Adobe Illustrator 29.0.1, SVG Export Plug-In . SVG Version: 2.1.0 Build 192)  --><defs
     id="defs1"><style
       id="style1">
      .st0 {
        fill: #85bcff;
      }

      .st1 {
        opacity: .2;
      }

      .st1, .st2 {
        isolation: isolate;
      }

      .st3 {
        fill: #5398df;
      }

      .st4 {
        fill: #e4e4e4;
      }

      .st5 {
        fill: #5398DD;
        opacity:0.8;
      }

      .st2 {
        fill: #fff;
        opacity: .1;
      }
    </style></defs><rect
     class="st1"
     x="4"
     y="22"
     width="56"
     height="36"
     rx="2.8"
     ry="2.8"
     id="rect1" /><path
     class="st3"
     d="M4,46.2c0,1.6,1.2,2.8,2.8,2.8h50.4c1.6,0,2.8-1.2,2.8-2.8V15.8c0-1.6-1.2-2.8-2.8-2.8h-25.2c-4.2,0-5.6-6-9.8-6H6.8c-1.6,0-2.8,1.2-2.8,2.8"
     id="path1" /><rect
     class="st1"
     x="4"
     y="20"
     width="56"
     height="36"
     rx="2.8"
     ry="2.8"
     id="rect2" /><rect
     class="st4"
     x="8"
     y="16"
     width="48"
     height="22"
     rx="2.8"
     ry="2.8"
     id="rect3" /><rect
     class="st0"
     x="4"
     y="21"
     width="56"
     height="36"
     rx="2.8"
     ry="2.8"
     id="rect4" /><path
     class="st2"
     d="M6.8,7c-1.6,0-2.8,1.2-2.8,2.8v1c0-1.6,1.2-2.8,2.8-2.8h15.4c4.2,0,5.6,6,9.8,6h25.2c1.6,0,2.8,1.2,2.8,2.8v-1c0-1.6-1.2-2.8-2.8-2.8h-25.2c-4.2,0-5.6-6-9.8-6H6.8Z"
     id="path4" /><path
     d="m 27.819679,34.32905 c 0,0 6.28708,-6.172027 14.750457,-9.149121 0,0 0.403017,-0.145225 0.08061,0.217836 -0.322416,0.36306 -1.773282,2.396198 -2.095696,2.759258 l -1.12845,0.943958 0.564225,-0.145225 -1.12845,2.250975 -1.450865,1.307017 1.047847,-0.290448 -1.209054,2.614034 -1.289657,1.161793 1.12845,-0.580897 c 0,0 -0.564224,1.089182 -1.12845,1.887914 0,0 5.15863,0.508285 9.511222,2.323587 0,0 -2.418106,0.580897 -3.385348,0.798732 l -1.047848,-0.217835 0.483621,0.290448 -1.12845,0.435672 c -0.08061,0 -0.88664,-0.217836 -1.289657,-0.07261 0,0 0.483621,0.145224 0.564226,0.290448 l -1.209055,0.435673 c 0,0 -0.24181,0.145224 -0.483621,0.145224 -0.161207,0 -1.209054,-0.217837 -1.531469,-0.07261 0,0 0.644829,0.290448 0.88664,0.290448 0,0 -0.403018,0.508284 -3.868972,0.653509 0,0 2.579315,6.462476 2.498711,7.333818 -0.08061,0.871345 -1.531468,-1.016567 -1.531468,-1.016567 0,0 -2.176297,-2.178363 -2.821126,-2.614036 C 30.963224,45.874373 29.109341,45.583924 25.159766,43.33295 21.21019,41.081977 21.21019,38.177493 21.452,36.797864 c 0.241811,-1.37963 0.241811,-2.396199 -0.725432,-2.686647 -0.967242,-0.290449 -2.579314,-0.653509 -5.964665,-0.726121 0,0 -0.564225,-0.36306 0.403018,-0.36306 0.967244,0.07261 3.546558,0.07261 4.916819,-0.145224 1.531468,-0.290449 2.095693,-0.72612 3.304747,-0.580897 1.209053,0.145225 2.740522,0.508285 4.433197,2.033138 z"
     fill="#1390f2"
     p-id="4448"
     id="path1-6"
     style="stroke-width:0.0298842;fill:#5da0e4;fill-opacity:1" /></svg>
