<?xml version="1.0" standalone="no"?><!DOCTYPE svg PUBLIC "-//W3C//DTD SVG 1.1//EN" "http://www.w3.org/Graphics/SVG/1.1/DTD/svg11.dtd"><svg t="1725342165672" class="icon" viewBox="0 0 1024 1024" version="1.1" xmlns="http://www.w3.org/2000/svg" p-id="37242" xmlns:xlink="http://www.w3.org/1999/xlink" width="16" height="16"><path d="M996.864 160.768c0.512-3.072 0.512-6.4 0-9.728-2.56-20.992-21.76-36.096-42.752-33.536-118.016-2.304-236.032 0-354.304-1.024V26.112h-66.048C364.544 57.088 195.072 86.528 25.856 116.736v791.04c168.448 30.208 337.152 58.88 505.6 89.856h68.608V908.8h331.52c18.944-1.024 39.68 0 55.808-11.52 12.8-20.48 9.728-45.824 10.752-68.608-1.28-221.952 0.768-445.184-1.28-667.904zM395.008 666.112c-18.432 9.728-45.824 0-67.84 1.024-15.36-75.008-32.256-149.504-45.568-224.512-12.8 72.96-29.696 145.408-44.544 217.856-21.248-1.024-42.496-2.304-64-3.84C154.88 557.056 133.12 458.24 115.968 358.656c18.944-1.024 37.888-1.792 57.088-2.304 11.52 71.936 24.32 143.616 34.304 215.808 15.36-73.984 31.232-147.712 47.104-221.696 20.992-1.28 41.984-2.048 62.976-3.328 14.848 76.288 29.696 152.576 45.824 228.608 12.544-78.592 26.368-156.672 39.68-235.008 22.016-0.768 44.032-2.048 66.304-3.328-25.088 109.312-47.104 219.648-74.24 328.704z m541.44 179.712H600.064v-62.208h287.232v-45.824H600.064v-56.064h287.232v-45.824H600.064v-56.064h287.232v-45.824H600.064v-57.088h287.232v-44.032H600.064v-57.088h287.232v-44.544H600.064v-56.576h287.232V229.632H600.064V178.688h336.384v667.136z" fill="#444444" p-id="37243"></path></svg>
