<?xml version="1.0" standalone="no"?><!DOCTYPE svg PUBLIC "-//W3C//DTD SVG 1.1//EN" "http://www.w3.org/Graphics/SVG/1.1/DTD/svg11.dtd"><svg t="1730416987061" class="icon" viewBox="0 0 1024 1024" version="1.1" xmlns="http://www.w3.org/2000/svg" p-id="43694" xmlns:xlink="http://www.w3.org/1999/xlink" width="16" height="16"><path d="M806.4 505.6c-121.6 0-217.6 96-217.6 217.6s96 217.6 217.6 217.6c121.6 0 217.6-96 217.6-217.6S928 505.6 806.4 505.6zM934.4 761.6l-83.2 0 0 89.6-76.8 0 0-89.6-89.6 0 0-76.8 89.6 0L774.4 601.6l76.8 0 0 83.2 83.2 0L934.4 761.6zM800 422.4c44.8 0 89.6 12.8 128 25.6L928 57.6C921.6 25.6 896 0 864 0L121.6 0l0 121.6L32 121.6C19.2 121.6 0 134.4 0 153.6l0 64c0 19.2 19.2 32 32 32l89.6 0 0 64L32 313.6C19.2 307.2 0 320 0 339.2l0 64c0 19.2 19.2 32 32 32l89.6 0 0 64L32 499.2C19.2 492.8 0 505.6 0 524.8l0 64c0 19.2 19.2 32 32 32l89.6 0 0 64L32 684.8C19.2 678.4 0 691.2 0 704l0 64c0 19.2 19.2 32 32 32l89.6 0 0 121.6L576 921.6c-51.2-51.2-76.8-121.6-76.8-198.4C499.2 556.8 633.6 422.4 800 422.4zM307.2 864 185.6 864l0-64 32 0c19.2 0 25.6-12.8 25.6-32l0-64c0-19.2-12.8-32-25.6-32L185.6 672l0-64 32 0c19.2 0 25.6-12.8 25.6-32l0-64c0-19.2-12.8-32-25.6-32L185.6 480l0-64 32 0c19.2 0 25.6-12.8 25.6-32l0-64c0-19.2-12.8-32-25.6-32L185.6 288l0-64 32 0c19.2 0 25.6-12.8 25.6-32l0-64c0-19.2-12.8-32-25.6-32L185.6 96 185.6 64l121.6 0L307.2 864z" style="fill:#444444" p-id="43695"></path></svg>
