<?xml version="1.0" standalone="no"?><!DOCTYPE svg PUBLIC "-//W3C//DTD SVG 1.1//EN" "http://www.w3.org/Graphics/SVG/1.1/DTD/svg11.dtd"><svg t="1730415066968" class="icon" viewBox="0 0 1025 1024" version="1.1" xmlns="http://www.w3.org/2000/svg" p-id="16452" xmlns:xlink="http://www.w3.org/1999/xlink" width="16" height="16"><path style="fill:#444444" d="M1022.52032 220.96c-4-23.168-31.968-25.12-31.968-25.12H624.76032c-25.984 0-35.968 34.784-35.968 34.784l-217.856 448.128c-9.984 21.248-20 0-20 0L175.03232 331.072c-12-17.376 0-25.12 0-25.12h147.904c25.984 3.872 31.968 25.12 31.968 25.12l73.952 152.608 63.968-137.152-57.952-119.776C422.87232 195.84 396.88832 192 396.88832 192H37.11232C-18.85568 213.248 5.14432 255.744 5.14432 255.744l297.824 604.608c33.984 44.416 57.952 34.784 57.952 34.784 31.968 0 51.968-34.784 51.968-34.784l259.84-533.12c9.984-21.248 21.984-21.248 21.984-21.248h157.92c12 1.92 5.984 21.248 5.984 21.248l-179.904 357.344c-8 19.328-21.984 0-21.984 0l-57.952-125.568-63.968 119.744c-4 9.664 0 21.248 0 21.248l79.968 160.32c61.952 71.456 105.92 3.872 105.92 3.872L1016.53632 261.536c12-21.248 5.984-40.576 5.984-40.576z" fill="" p-id="16453"></path></svg>
