<?xml version="1.0" encoding="UTF-8"?>
<svg id="_图层_1" data-name="图层_1" xmlns="http://www.w3.org/2000/svg" version="1.1" viewBox="0 0 200 200" width="24" height="24">
  <!-- Generator: Adobe Illustrator 29.0.1, SVG Export Plug-In . SVG Version: 2.1.0 Build 192)  -->
  <defs>
    <style>
      .st0 {
        fill: #d4237a;
      }

      .st1 {
        fill: #dfdfdf;
      }

      .st2 {
        display: none;
      }
    </style>
  </defs>
  <path class="st1" d="M168.7,60c2.4,11.4,3.5,24.7,3.5,40s-1.1,28.6-3.5,40-5.5,20.8-9.5,28.1-9.1,13.3-15.3,17.8-12.8,7.6-19.8,9.4-15,2.6-23.9,2.6-16.9-.9-23.9-2.6c-7-1.8-13.7-4.9-19.8-9.4s-11.3-10.4-15.3-17.8c-4-7.3-7.3-16.7-9.5-28.1-2.4-11.4-3.5-24.7-3.5-40s1.1-28.6,3.5-40,5.5-20.8,9.5-28.1c3.8-7.3,8.9-13.2,15-17.7,6.3-4.5,12.9-7.8,19.9-9.5s15-2.6,23.9-2.6,16.9.9,23.9,2.6,13.7,4.9,19.8,9.4,11.3,10.4,15.3,17.8,7.4,16.7,9.6,28.1h0ZM93.6,184.1l50.6-50.7-33.3-33.3,33.4-33.4L93.6,15.8v66.8l-27.8-27.8-10.1,10.1,35,35.1-35,35.1,10.1,10.1,27.8-27.8s0,66.6,0,66.6ZM107.9,50.4l16.3,16.3-16.2,16.2s-.1-32.4-.1-32.4ZM108,117.2l16.2,16.2-16.3,16.3v-32.4Z"/>
  <g class="st2">
    <path class="st0" d="M107.4,114.9v37.9l16-16.8c1.1-1.1,1.1-3.1,0-4.2l-16-17h0Z"/>
    <path class="st0" d="M169.1,60c-2.4-11.5-5.6-20.9-9.5-28.2-4.1-7.3-9.1-13.2-15.3-17.9-6.3-4.4-12.7-7.7-19.8-9.5s-15.1-2.6-23.9-2.6-17,.9-23.9,2.6c-7.1,1.8-13.6,5.1-19.8,9.5-6.3,4.6-11.2,10.6-15.3,17.9s-7.3,16.8-9.5,28.2c-2.6,11.5-3.9,24.9-3.9,40.1s1.1,28.7,3.4,40.1c2.4,11.5,5.6,20.9,9.5,28.2,4.1,7.3,9.1,13.2,15.3,17.9,6.3,4.6,12.7,7.7,19.8,9.5,7.1,1.8,15.1,2.6,23.9,2.6s17-.9,23.9-2.6c7.1-1.8,13.6-4.8,19.8-9.5s11.2-10.6,15.3-17.9c4.1-7.3,7.3-16.8,9.5-28.2,2.4-11.5,3.4-24.9,3.4-40.1.4-15.4-.9-28.7-3-40.1h0ZM95.3,25.2c0-2.6,3.2-4.2,5.2-2.2l33.6,34.8c4.5,4.8,4.5,12.6,0,17.2l-15.7,16.5-8.4-8.6,13.6-14.3c1.1-1.1,1.1-3.1,0-4.2l-16-16.8v32.6l-12.1-12.3V25.2h-.2ZM134.4,142.5l-26.9,27.8-6.9,7.1c-1.9,2-5.2.7-5.2-2.2v-60.2l-23.5,24c-.6.7-1.5.7-2.2,0l-6.5-6.6c-.6-.7-.6-1.5,0-2.2l27.6-27.8c1.1-1.1,1.1-3.1,0-4.4l-27.4-28c-.6-.7-.6-1.5,0-2.2l6.5-6.6c.6-.7,1.5-.7,2.2,0l5.6,5.7,49.1,50.7,7.5,7.9c4.3,4.6,4.5,12.1,0,17Z"/>
  </g>
</svg>
