<?xml version="1.0" encoding="UTF-8"?>
<svg id="_图层_1" data-name="图层_1" xmlns="http://www.w3.org/2000/svg" version="1.1" viewBox="0 0 200 200" width="24" height="24">
  <!-- Generator: Adobe Illustrator 29.0.1, SVG Export Plug-In . SVG Version: 2.1.0 Build 192)  -->
  <defs>
    <style>
      .st0 {
        fill: #dfdfdf;
      }
    </style>
  </defs>
  <path class="st0" d="M35.7,67v-9.5C35.7,26.1,64.1.6,99.1.6s63.4,25.5,63.4,57v9.5h21.1c5.8,0,10.6,4.3,10.6,9.5h0v114c0,5.2-4.7,9.5-10.6,9.5H14.6c-5.8,0-10.6-4.3-10.6-9.5h0v-114c0-5.2,4.7-9.5,10.6-9.5h21.1ZM173.1,86H25.1v95h148v-95h0ZM88.6,140.5c-10.1-5.2-13.6-16.9-7.7-25.9,5.8-9.1,18.8-12.2,28.9-7,10.1,5.2,13.6,16.9,7.7,25.9-1.9,2.9-4.5,5.3-7.7,7v21.5h-21.1v-21.5h0ZM56.8,67h84.6v-9.5c0-21-18.9-38-42.3-38-23.4,0-42.3,17-42.3,38h0v9.5Z"/>
</svg>
