<?xml version="1.0" encoding="UTF-8"?>
<svg id="_图层_1" xmlns="http://www.w3.org/2000/svg" version="1.1" viewBox="0 0 200 200" width="24" height="24">
  <!-- Generator: Adobe Illustrator 29.0.1, SVG Export Plug-In . SVG Version: 2.1.0 Build 192)  -->
  <defs>
    <style>
      .st0 {
        fill: #dfdfdf;
      }

      .st1 {
        isolation: isolate;
      }
    </style>
  </defs>
  <g class="st1">
    <path class="st0" d="M107,62.4c0,0,0,.2-.1.2-.8,1.4-1.9,2-3.3,2s-1.4-.1-2.6-.4c-1.2-.3-2.2-.4-3-.4h-.2c-5.6,18.8-12,34.9-19.4,48.3-2.9,5.3-4.9,8.6-5.9,9.9-1.7,2.3-3.4,3.4-5.2,3.4s-3.9-.8-4.8-2.3c-.4-.7-1.1-3-2.1-6.7-4-14.8-7.3-25.8-9.8-33-3.1-8.9-6-15.3-8.8-19-1.7.2-2.8.2-3.3.2h-.2c-1.1,0-2-.3-2.8-1-.8-.7-1.1-1.4-1.1-2.3s1-2.2,3-3.1c2-.8,4.8-1.2,8.3-1.2s2.4,0,4.1.3c1.7.2,3,.3,3.8.3s1.6,0,2.8,0c1.2,0,2,0,2.5,0,3.8,0,5.8,1.3,5.8,3.8s-2.1,3.8-6.3,3.8-3.7-.2-6.9-.5c5,9.6,10.6,26.4,16.9,50.4,9.2-16.2,16.1-33.1,20.7-50.7-2.4.2-3.9.2-4.7.2-3.2,0-4.8-1.1-4.8-3.2s2.2-4,6.6-4.6c1.4-.2,4.8-.3,10.2-.3,8.5,0,12.1,2,10.8,6.1Z"/>
  </g>
  <path class="st0" d="M173.9,1.1c8.7,0,15.8,6.9,15.9,15.3v11.3c6,2.2,10.2,7.9,10.3,14.4v43.8c0,8.6-7,15.5-15.6,15.6h-13.5v90.5h0c0,.5,0,1-.2,1.5v.5h-.1v.4l-.2.2-.2.4v.3c-.1,0-.3.3-.3.3v.2h-.2v.2h0v.2h-.1c0,0-.1.3-.1.3h-.1c0,0-.2.4-.2.4l-.6.7-.5.4-.2.2h-.2c0,0-.2.3-.2.3h-.1v.2h0v.2h-3.6c0,0-.9.2-.9.2-4.5-.4-7.8-4.3-7.6-8.8h0v-89.5h-12.7c-8.6,0-15.7-6.8-15.9-15.3v-43.9c0-6.7,4.3-12.4,10.3-14.6v-11.1c0-8.6,7-15.5,15.6-15.6h22.5l-1.3.8ZM117.5,14c4.7,0,8.4,3.7,8.4,8.3s-3.7,8.2-8.3,8.3H17.1v112.6h119c4.6,0,8.3,3.6,8.4,8.2h0c0,4.7-3.7,8.4-8.3,8.4h-33.6v22.1h31.2c4.7,0,8.4,3.7,8.4,8.3s-3.7,8.2-8.3,8.3H54.5c-4.6,0-8.4-3.7-8.4-8.3h0c0-4.5,3.7-8.2,8.3-8.3h31.4v-22.1H16.1c-8.6,0-15.7-6.8-15.9-15.3V29.7c0-8.6,7-15.5,15.7-15.6h101.7,0ZM158.9,184.3h0c-.4.2-.8.4-1.2.7h-.1c.4-.3.8-.5,1.2-.7h.1ZM183.2,43.4h-40.9v41.8h40.9v-41.8h0ZM172.9,17.7h-20.4v9.2h20.4v-9.2h0Z"/>
</svg>
