<?xml version="1.0" encoding="UTF-8"?>
<svg id="_图层_1" data-name="图层_1" xmlns="http://www.w3.org/2000/svg" version="1.1" viewBox="0 0 128 128" width="24" height="24">
  <!-- Generator: Adobe Illustrator 29.0.1, SVG Export Plug-In . SVG Version: 2.1.0 Build 192)  -->
  <defs>
    <style>
      .st0 {
        fill: #4f4f4f;
      }

      .st1, .st2, .st3, .st4, .st5 {
        isolation: isolate;
      }

      .st1, .st2, .st6 {
        display: none;
      }

      .st1, .st3, .st4, .st5 {
        opacity: .2;
      }

      .st2 {
        opacity: .1;
      }

      .st2, .st4 {
        fill: #fff;
      }

      .st3, .st7, .st8, .st4, .st9, .st10 {
        fill-rule: evenodd;
      }

      .st7 {
        fill: #3391d9;
      }

      .st8 {
        fill: #41caba;
      }

      .st9 {
        fill: #9c5ac9;
      }

      .st10 {
        fill: #f7d838;
      }

      .st11 {
        fill: #e4e4e4;
      }
    </style>
  </defs>
  <rect class="st0" x=".6" y=".6" width="127.8" height="127.8" rx="25.9" ry="25.9"/>
  <g class="st6">
    <path class="st3" d="M38.6,25.4c-7.2-.2-13.2,5.1-13.4,11.7,0,0,0,.2,0,.3v27.8s0,0,0,0v27.8h0s0,0,0,0c0,1.2.2,2.4.6,3.5,0,0,0,0,0,0,0,0,0,.2,0,.2,0,.2.2.5.3.7.1.3.3.6.5.9,1.3,2.3,3.4,4.3,5.9,5.4.3.2.7.3,1,.4,0,0,0,0,0,0,.8.3,1.6.5,2.5.6.7.1,1.4.2,2.1.2.2,0,.3,0,.5,0,.2,0,.5,0,.7,0,.2,0,.3,0,.5,0,1.8-.2,3.5-.7,5.1-1.5l26.2-13.9s0,0,0,0l26.1-13.9c4.3-2.3,6.8-6.6,6.5-11.1,0-1.5-.5-3-1.2-4.4-.6-1.2-1.4-2.2-2.3-3.1,0,0,0,0,0,0-.2-.2-.4-.4-.7-.6-.5-.4-1-.8-1.6-1.1-.8-.5-1.5-.9-2.4-1.3,0,0-.1,0-.2,0l-50.6-26.8c-1.9-1-4.1-1.6-6.2-1.6Z"/>
    <path class="st7" d="M38.6,51.8c-7.2-.2-13.2,5.1-13.4,11.7,0,0,0,.2,0,.3v27.8c0,6.6,5.9,12,13.1,12,2.3,0,4.6-.6,6.5-1.6l26.2-13.9c6.3-3.3,8.4-10.7,4.8-16.4-1.1-1.8-2.8-3.3-4.8-4.4l-26.2-13.9c-1.9-1-4-1.6-6.2-1.6Z"/>
    <path class="st9" d="M38.6,24c-7.2-.2-13.2,5.1-13.4,11.7,0,0,0,.2,0,.3v55.6h26.2v-34.7l32.8,17.4,13.1-20.8-52.4-27.8c-1.9-1-4-1.6-6.2-1.6Z"/>
    <path class="st7" d="M64.8,37.9c-7.2-.2-13.2,5.1-13.4,11.7,0,0,0,.2,0,.3v27.8c0,6.6,5.9,12,13.1,12,2.3,0,4.6-.6,6.5-1.6l26.2-13.9c6.3-3.3,8.4-10.7,4.8-16.4-1.1-1.8-2.8-3.3-4.8-4.4l-26.2-13.9c-1.9-1-4-1.6-6.2-1.6Z"/>
    <path class="st8" d="M70.7,88.2c8.9-4.7,17.7-9.4,26.5-14,5.8-2.9,8.2-10.1,5.3-15.5-1.3-2.8-4-4.8-6.9-6.2-7-2.5-16,1.4-17.6,8.3-.5.9-.4,1.9-.4,3,0,5,0,10,0,15-.4,3.9-3,7.5-6.8,9.4Z"/>
    <path class="st4" d="M25.2,36.5c0,9.1,0,18.2,0,27.3v27.8c0,6.6,5.9,12,13.1,12,2.3,0,4.6-.6,6.5-1.6l26.2-13.9c6.3-3.3,8.4-10.7,4.8-16.4-1.1-1.8-2.8-3.3-4.8-4.4l-26.2-13.9c-.3-.2-.6-.3-1-.5-4.4-2.4-8.9-4.6-13.2-7.1-3.3-2.1-5.3-5.7-5.4-9.3h0Z"/>
    <path class="st10" d="M25.2,63.5c0,9.4,0,18.7,0,28.1-.1,6.1,5.4,11.6,12,12,3.3.3,6.5-.8,9.3-2.4,5.9-4.3,6.7-13.4.9-18.2-.7-.8-1.6-1.3-2.6-1.8-4.7-2.5-9.5-5-14.2-7.6-3.5-2.3-5.6-6.2-5.4-10.1Z"/>
    <path class="st4" d="M38.6,24c-7.2-.2-13.2,5.1-13.4,11.7,0,0,0,.2,0,.3v1.4c0-6.6,5.9-12,13.1-12,.1,0,.2,0,.3,0,2.2,0,4.3.6,6.2,1.6l50.6,26.8c0,0,.1,0,.2,0,.8.4,1.6.8,2.4,1.3.6.3,1.1.7,1.6,1.1.2.2.4.4.7.6,0,0,0,0,0,0,.9.9,1.7,1.9,2.3,3.1.8,1.4,1.1,2.9,1.2,4.4,0-.5,0-.9,0-1.4,0-1.5-.5-3-1.2-4.4-.6-1.2-1.4-2.2-2.3-3.1,0,0,0,0,0,0-.2-.2-.4-.4-.7-.6-.5-.4-1-.8-1.6-1.1-.8-.5-1.5-.9-2.4-1.3,0,0-.1,0-.2,0l-50.6-26.8c-1.9-1-4.1-1.6-6.2-1.6Z"/>
  </g>
  <g>
    <path class="st0" d="M16.1,29.4h96.8c3,0,5.4,2.3,5.4,5.2v64.2c0,2.9-2.4,5.2-5.4,5.2H16.1c-3,0-5.4-2.3-5.4-5.2V34.7c0-2.9,2.4-5.2,5.4-5.2Z"/>
    <ellipse class="st5" cx="24.2" cy="48.1" rx="5.8" ry="5.6"/>
    <ellipse class="st5" cx="43.4" cy="48.1" rx="5.8" ry="5.6"/>
    <ellipse class="st5" cx="62.6" cy="48.1" rx="5.8" ry="5.6"/>
    <ellipse class="st5" cx="81.8" cy="48.1" rx="5.8" ry="5.6"/>
    <ellipse class="st5" cx="101" cy="48.1" rx="5.8" ry="5.6"/>
    <ellipse class="st5" cx="35.7" cy="70.5" rx="5.8" ry="5.6"/>
    <ellipse class="st5" cx="54.9" cy="70.5" rx="5.8" ry="5.6"/>
    <ellipse class="st5" cx="74.1" cy="70.5" rx="5.8" ry="5.6"/>
    <ellipse class="st5" cx="93.3" cy="70.5" rx="5.8" ry="5.6"/>
    <path class="st5" d="M29,87.3h71.1c1.6,0,2.9,1.3,2.9,2.8v5.6c0,1.5-1.3,2.8-2.9,2.8H29c-1.6,0-2.9-1.3-2.9-2.8v-5.6c0-1.5,1.3-2.8,2.9-2.8Z"/>
    <ellipse class="st11" cx="24.2" cy="46.2" rx="5.8" ry="5.6"/>
    <ellipse class="st11" cx="43.4" cy="46.2" rx="5.8" ry="5.6"/>
    <ellipse class="st11" cx="62.6" cy="46.2" rx="5.8" ry="5.6"/>
    <ellipse class="st11" cx="81.8" cy="46.2" rx="5.8" ry="5.6"/>
    <ellipse class="st11" cx="101" cy="46.2" rx="5.8" ry="5.6"/>
    <ellipse class="st11" cx="35.7" cy="68.6" rx="5.8" ry="5.6"/>
    <ellipse class="st11" cx="54.9" cy="68.6" rx="5.8" ry="5.6"/>
    <ellipse class="st11" cx="74.1" cy="68.6" rx="5.8" ry="5.6"/>
    <ellipse class="st11" cx="93.3" cy="68.6" rx="5.8" ry="5.6"/>
    <path class="st11" d="M29,85.4h71.1c1.6,0,2.9,1.3,2.9,2.8v5.6c0,1.5-1.3,2.8-2.9,2.8H29c-1.6,0-2.9-1.3-2.9-2.8v-5.6c0-1.5,1.3-2.8,2.9-2.8Z"/>
    <path class="st2" d="M16.1,29.4c-3,0-5.4,2.3-5.4,5.2v1.9c0-2.9,2.4-5.2,5.4-5.2h96.8c3,0,5.4,2.3,5.4,5.2v-1.9c0-2.9-2.4-5.2-5.4-5.2H16.1Z"/>
    <path class="st1" d="M10.7,98.8v1.9c0,2.9,2.4,5.2,5.4,5.2h96.8c3,0,5.4-2.3,5.4-5.2v-1.9c0,2.9-2.4,5.2-5.4,5.2H16.1c-3,0-5.4-2.3-5.4-5.2h0Z"/>
  </g>
</svg>
