<?xml version="1.0" encoding="UTF-8" standalone="no"?>
<svg
   id="_图层_1"
   data-name="图层_1"
   version="1.1"
   viewBox="0 0 64 64"
   width="64"
   height="64"
   sodipodi:docname="folder-zyfun.svg"
   xml:space="preserve"
   inkscape:version="1.4 (e7c3feb100, 2024-10-09)"
   xmlns:inkscape="http://www.inkscape.org/namespaces/inkscape"
   xmlns:sodipodi="http://sodipodi.sourceforge.net/DTD/sodipodi-0.dtd"
   xmlns="http://www.w3.org/2000/svg"
   xmlns:svg="http://www.w3.org/2000/svg"><sodipodi:namedview
     id="namedview5"
     pagecolor="#505050"
     bordercolor="#eeeeee"
     borderopacity="1"
     inkscape:showpageshadow="0"
     inkscape:pageopacity="0"
     inkscape:pagecheckerboard="0"
     inkscape:deskcolor="#505050"
     inkscape:zoom="10.6875"
     inkscape:cx="31.625731"
     inkscape:cy="27.040936"
     inkscape:window-width="1920"
     inkscape:window-height="939"
     inkscape:window-x="0"
     inkscape:window-y="34"
     inkscape:window-maximized="1"
     inkscape:current-layer="_图层_1" /><!-- Generator: Adobe Illustrator 29.0.1, SVG Export Plug-In . SVG Version: 2.1.0 Build 192)  --><defs
     id="defs1"><style
       id="style1">
      .st0 {
        fill: #85bcff;
      }

      .st1 {
        opacity: .2;
      }

      .st1, .st2 {
        isolation: isolate;
      }

      .st3 {
        fill: #5398df;
      }

      .st4 {
        fill: #e4e4e4;
      }

      .st5 {
        fill: #5398DD;
        opacity:0.8;
      }

      .st2 {
        fill: #fff;
        opacity: .1;
      }
    </style></defs><rect
     class="st1"
     x="4"
     y="22"
     width="56"
     height="36"
     rx="2.8"
     ry="2.8"
     id="rect1" /><path
     class="st3"
     d="M4,46.2c0,1.6,1.2,2.8,2.8,2.8h50.4c1.6,0,2.8-1.2,2.8-2.8V15.8c0-1.6-1.2-2.8-2.8-2.8h-25.2c-4.2,0-5.6-6-9.8-6H6.8c-1.6,0-2.8,1.2-2.8,2.8"
     id="path1" /><rect
     class="st1"
     x="4"
     y="20"
     width="56"
     height="36"
     rx="2.8"
     ry="2.8"
     id="rect2" /><rect
     class="st4"
     x="8"
     y="16"
     width="48"
     height="22"
     rx="2.8"
     ry="2.8"
     id="rect3" /><rect
     class="st0"
     x="4"
     y="21"
     width="56"
     height="36"
     rx="2.8"
     ry="2.8"
     id="rect4" /><path
     class="st2"
     d="M6.8,7c-1.6,0-2.8,1.2-2.8,2.8v1c0-1.6,1.2-2.8,2.8-2.8h15.4c4.2,0,5.6,6,9.8,6h25.2c1.6,0,2.8,1.2,2.8,2.8v-1c0-1.6-1.2-2.8-2.8-2.8h-25.2c-4.2,0-5.6-6-9.8-6H6.8Z"
     id="path4" /><path
     fill="currentColor"
     d="m 21.679859,30.280491 q -1.414497,-1.781663 -0.390399,-3.187628 1.171199,-1.579711 3.213294,-1.100154 0.158659,0.03295 8.618838,4.598081 0.870893,0.479556 1.291323,1.354037 0.332098,0.821043 0.06007,1.551505 -3.157105,7.940889 -3.183264,7.954965 2.882958,-1.5515 5.645791,-2.961955 L 35.67421,37.248143 q -0.630646,-1.60792 0.873329,-3.133045 1.190498,-1.154892 2.760396,-0.364873 2.679812,1.180979 4.744865,2.538817 1.092488,0.71834 1.14117,1.861801 0.07097,1.666379 -0.840861,2.200311 -18.559029,10.504678 -19.940446,10.804087 -1.156595,0.250715 -2.162216,-0.338507 -1.531189,-0.877018 -1.35121,-2.286205 0.191417,-1.498582 1.080934,-1.945163 l 1.741785,-0.87448 4.62474,-11.650361 z"
     id="path1-9"
     style="fill:#5da0e4;fill-opacity:1;stroke-width:0.0291057" /></svg>
