<?xml version="1.0" encoding="UTF-8"?>
<svg id="_图层_1" xmlns="http://www.w3.org/2000/svg" version="1.1" xmlns:xlink="http://www.w3.org/1999/xlink" viewBox="0 0 64 64" width="48" height="48">
  <!-- Generator: Adobe Illustrator 29.0.1, SVG Export Plug-In . SVG Version: 2.1.0 Build 192)  -->
  <defs>
    <style>
      .st0 {
        fill: #c149c0;
      }

      .st0, .st1, .st2, .st3, .st4, .st5, .st6, .st7 {
        display: none;
      }

      .st1, .st2, .st4, .st8, .st9, .st10 {
        isolation: isolate;
      }

      .st1, .st8, .st9 {
        opacity: .2;
      }

      .st2 {
        opacity: .1;
      }

      .st2, .st11, .st3, .st4, .st9 {
        fill: #fff;
      }

      .st4 {
        opacity: .4;
      }

      .st12 {
        fill: #f8c44e;
      }

      .st13 {
        fill: url(#_未命名的渐变);
      }

      .st14 {
        fill: #db3c30;
      }

      .st15 {
        fill: #afafb1;
      }

      .st6 {
        fill: #5d5d5d;
      }

      .st10 {
        opacity: .6;
      }

      .st7 {
        fill: #e4e4e4;
      }
    </style>
    <linearGradient id="_未命名的渐变" data-name="未命名的渐变" x1="51.4" y1="67.4" x2="12.8" y2=".5" gradientTransform="translate(0 66) scale(1 -1)" gradientUnits="userSpaceOnUse">
      <stop offset="0" stop-color="#6ac6ff"/>
      <stop offset="1" stop-color="#0066d4"/>
    </linearGradient>
  </defs>
  <path class="st13" d="M50.3,64H13.9c-7.6,0-13.7-6.2-13.7-13.7V13.8C.2,6.2,6.3,0,13.9,0h36.5c7.5,0,13.7,6.2,13.7,13.7v36.5c0,7.5-6.1,13.7-13.7,13.7h0Z"/>
  <g>
    <path class="st11" d="M47.7,13c1.7,0,3.1,1.3,3.1,3v2.2c1.2.4,2,1.5,2,2.8v8.6c0,1.7-1.4,3-3.1,3.1h-2.6v17.6h0v.4h0c0,0,0,.3,0,.3h0c0,0-.2,0-.2,0h-.2c-.9,0-1.5-.8-1.5-1.7h0v-17.6h-2.5c-1.7,0-3.1-1.3-3.1-3v-8.6c0-1.3.8-2.4,2-2.9v-2.2c0-1.7,1.4-3,3.1-3.1h4.3l-1.2,1ZM36.7,15.5c.9,0,1.6.7,1.6,1.6s-.7,1.6-1.6,1.6h-19.6v22.1h23.2c.9,0,1.6.7,1.6,1.6h0c0,.9-.7,1.6-1.6,1.6h-6.6v4.3h6.1c.9,0,1.6.7,1.6,1.6s-.7,1.6-1.6,1.6h-15.5c-.9,0-1.6-.7-1.6-1.6h0c0-.9.7-1.6,1.6-1.6h6.1v-4.3h-13.6c-1.7,0-3.1-1.3-3.1-3v-22.5c0-1.7,1.4-3,3.1-3.1h19.9ZM44.8,48.9h0s-.2,0-.2,0h0s.2,0,.2,0h0ZM49.6,21.3h-8v8.2h8v-8.2ZM47.6,16.2h-4v1.8h4v-1.8Z"/>
    <g class="st5">
      <path class="st8" d="M19.7,55.4l-4-4H7.7c-2.2,0-4-1.8-4-4V11.4c0-2.2,1.8-4,4-4h48c2.2,0,4,1.8,4,4v36c0,2.2-1.8,4-4,4h-8l-4,4h-24Z"/>
      <path class="st15" d="M19.7,54.4l-4-4H7.7c-2.2,0-4-1.8-4-4V10.4c0-2.2,1.8-4,4-4h48c2.2,0,4,1.8,4,4v36c0,2.2-1.8,4-4,4h-8l-4,4h-24Z"/>
      <path class="st10" d="M23.7,46.4l-4-4h-8V14.4h40v28h-8l-4,4h-16Z"/>
      <g>
        <rect class="st12" x="17.7" y="14.4" width="4" height="4"/>
        <rect class="st12" x="23.7" y="14.4" width="4" height="4"/>
        <rect class="st12" x="29.7" y="14.4" width="4" height="4"/>
        <rect class="st12" x="35.7" y="14.4" width="4" height="4"/>
        <rect class="st12" x="41.7" y="14.4" width="4" height="4"/>
      </g>
      <path class="st9" d="M7.7,6.4c-2.2,0-4,1.8-4,4v1c0-2.2,1.8-4,4-4h48c2.2,0,4,1.8,4,4v-1c0-2.2-1.8-4-4-4,0,0-48,0-48,0Z"/>
      <path class="st9" d="M11.7,42.4v1h8l4,4h16l4-4h8v-1h-8l-4,4h-16l-4-4h-8Z"/>
    </g>
    <ellipse class="st1" cx="51.8" cy="48.8" rx="10.9" ry="10.6"/>
    <ellipse class="st0" cx="51.8" cy="48.1" rx="10.9" ry="10.6"/>
    <path class="st3" d="M50.4,42.8v1.4c-.6.2-1,.4-1.4.7l-1.3-.6-1.4,2.3,1.2.8v1.4l-1.2.8,1.4,2.3,1.3-.6c.4.3.8.5,1.3.7v1.4h2.8v-1.4c.6-.2,1-.4,1.4-.7l1.3.6,1.4-2.3-1.2-.8v-1.4l1.2-.8-1.4-2.3-1.3.6c-.4-.3-.8-.5-1.3-.7v-1.4h-2.8ZM51.7,46.6c.9,0,1.6.7,1.6,1.5h0c0,.8-.7,1.5-1.6,1.5h0c-.9,0-1.6-.7-1.6-1.5h0c0-.8.7-1.5,1.6-1.5h0Z"/>
  </g>
  <g>
    <path class="st7" d="M20.4,19.6s-3,0-3,3v24s0,3,3,3h5l4,4h16l4-4h5s3,0,3-3v-24c0-3-3-3-3-3H20.4Z"/>
    <path class="st4" d="M23.4,26.6h28v18h-4.5l-4,4h-11l-4-4h-4.5v-18Z"/>
    <path class="st6" d="M23.4,25.6h28v18h-4.5l-4,4h-11l-4-4h-4.5v-18Z"/>
    <path class="st2" d="M20.4,19.6s-3,0-3,3v1c0-3,3-3,3-3h34s3,0,3,3v-1c0-3-3-3-3-3H20.4Z"/>
    <path class="st1" d="M17.4,46.6v1s0,3,3,3h5l4,4h16l4-4h5s3,0,3-3v-1c0,3-3,3-3,3h-5l-4,4h-16l-4-4h-5c-3,0-3-3-3-3Z"/>
    <circle class="st14" cx="47.1" cy="45" r="10"/>
    <path class="st8" d="M57.1,45.4c-.2,5.4-4.6,9.6-10,9.6-5.3,0-9.7-4.1-10-9.4,0,.1,0,.3,0,.4,0,5.5,4.5,10,10,10s10-4.5,10-10c0-.2,0-.4,0-.6Z"/>
    <g>
      <rect class="st11" x="41.1" y="44.3" width="12" height="2" transform="translate(-18.2 46.6) rotate(-45)"/>
      <rect class="st11" x="46.1" y="39.3" width="2" height="12" transform="translate(-18.2 46.6) rotate(-45)"/>
    </g>
  </g>
</svg>
