<?xml version="1.0" encoding="UTF-8"?>
<svg id="_图层_1" xmlns="http://www.w3.org/2000/svg" version="1.1" viewBox="0 0 64 64" width="64" height="64">
  <!-- Generator: Adobe Illustrator 29.0.1, SVG Export Plug-In . SVG Version: 2.1.0 Build 192)  -->
  <defs>
    <style>
      .st0, .st1, .st2 {
        display: none;
      }

      .st0, .st3 {
        fill: #3f3f3f;
      }

      .st1, .st2, .st4 {
        isolation: isolate;
      }

      .st1, .st4 {
        opacity: .2;
      }

      .st2 {
        opacity: .1;
      }

      .st2, .st5 {
        fill: #fff;
      }
    </style>
  </defs>
  <path class="st3" d="M50.3,64H13.8c-7.6,0-13.8-6.2-13.8-13.7V13.7C0,6.2,6.2,0,13.7,0h36.5c7.5,0,13.7,6.2,13.7,13.7v36.6c0,7.5-6.2,13.7-13.7,13.7h0Z"/>
  <g>
    <path class="st1" d="M4.6,1.1h54.8c2.5,0,4.6,2,4.6,4.6v54.9c0,2.5-2,4.6-4.6,4.6H4.6c-2.5,0-4.6-2-4.6-4.6V5.7C0,3.2,2,1.1,4.6,1.1Z"/>
    <path class="st0" d="M4.6,0h54.8c2.5,0,4.6,2,4.6,4.6v54.9c0,2.5-2,4.6-4.6,4.6H4.6C2,64,0,62,0,59.5V4.6C0,2,2,0,4.6,0Z"/>
    <path class="st4" d="M9.1,21.7v17.2h9.1v-17.2h-9.1ZM36.5,21.7l-17.1,17.2h8v10.3h9.1v-27.4ZM46.8,21.7c-5,0-9.1,4.1-9.1,9.1s4.1,9.1,9.1,9.1,9.1-4.1,9.1-9.1-4.1-9.1-9.1-9.1Z"/>
    <path class="st5" d="M9.1,20.6v17.2h9.1v-17.2h-9.1ZM36.5,20.6l-17.1,17.2h8v10.3h9.1v-27.4ZM46.8,20.6c-5,0-9.1,4.1-9.1,9.1s4.1,9.1,9.1,9.1,9.1-4.1,9.1-9.1-4.1-9.1-9.1-9.1Z"/>
    <path class="st2" d="M4.6,0C2,0,0,2,0,4.6v1.1C0,3.2,2,1.1,4.6,1.1h54.8c2.5,0,4.6,2,4.6,4.6v-1.1C63.9,2,61.9,0,59.3,0H4.6Z"/>
  </g>
</svg>