<?xml version="1.0" encoding="UTF-8"?>
<svg id="_图层_1" xmlns="http://www.w3.org/2000/svg" version="1.1" viewBox="0 0 64 64" width="64" height="64">
  <!-- Generator: Adobe Illustrator 29.0.1, SVG Export Plug-In . SVG Version: 2.1.0 Build 192)  -->
  <defs>
    <style>
      .st0, .st1, .st2 {
        display: none;
      }

      .st0, .st1, .st3, .st4 {
        isolation: isolate;
      }

      .st0, .st3, .st4 {
        opacity: .2;
      }

      .st1 {
        opacity: .1;
      }

      .st1, .st4 {
        fill: #fff;
      }

      .st2, .st5 {
        fill: #595552;
      }

      .st6 {
        fill: #c6241d;
      }
    </style>
  </defs>
  <path class="st5" d="M50.3,64H13.8c-7.6,0-13.8-6.2-13.8-13.7V13.7C0,6.2,6.2,0,13.7,0h36.5c7.5,0,13.7,6.2,13.7,13.7v36.6c0,7.5-6.2,13.7-13.7,13.7h0Z"/>
  <g>
    <path class="st0" d="M2.3,1.1h59.3c1.3,0,2.3,1,2.3,2.3v59.3c0,1.3-1,2.3-2.3,2.3H2.3c-1.3,0-2.3-1-2.3-2.3V3.4C0,2.2,1,1.1,2.3,1.1Z"/>
    <path class="st2" d="M2.3,0h59.3c1.3,0,2.3,1,2.3,2.3v59.3c0,1.3-1,2.3-2.3,2.3H2.3c-1.3,0-2.3-1-2.3-2.3V2.3C0,1,1,0,2.3,0Z"/>
    <path class="st3" d="M6.8,6.8l5.7,10.3h25.1l-5.7,6.8,3.4-2.3-1.1,2.3,3.4-2.3-8,6.8v-1.1l-1.1,2.3,1.1,2.3-8,9.1-3.4,3.4v3.4l2.3,2.3-3.4,2.3h2.3l-2.3,3.4,8-8-8,12.5,10.3-9.1,1.1-3.4v-2.3l3.4-3.4v1.1l4.6-1.1,4.6-4.6-1.1-1.1-2.3,2.3v-2.3l3.4-3.5v-3.4l16-22.8H6.8Z"/>
    <path class="st6" d="M6.8,5.7l5.7,10.3h25.1l-5.7,6.8,3.4-2.3-1.1,2.3,3.4-2.3-8,6.8v-1.1l-1.1,2.3,1.1,2.3-8,9.1-3.4,3.4v3.4l2.3,2.3-3.4,2.3h2.3l-2.3,3.4,8-8-8,12.5,10.3-9.1,1.1-3.4v-2.3l3.4-3.4v1.1l4.6-1.1,4.6-4.6-1.1-1.1-2.3,2.3v-2.3l3.4-3.5v-3.4l16-22.8H6.8Z"/>
    <path class="st1" d="M2.3,0C1,0,0,1,0,2.3v1.1C0,2.2,1,1.1,2.3,1.1h59.3c1.3,0,2.3,1,2.3,2.3v-1.1c0-1.3-1-2.3-2.3-2.3H2.3Z"/>
    <path class="st4" d="M6.8,5.7l.6,1.1h48.7l.8-1.1H6.8ZM36.7,17.1l-4.7,5.7,2.1-1.4,3.6-4.3h-1ZM35.3,21.7l-.9.6-.3.6.9-.6.3-.6ZM37.6,21.7l-3.4,2.3.4-.9-5,4.3v1.1l8-6.8ZM29.6,27.4v-1.1l-1.1,2.3.3.6.9-1.7ZM29.3,31.2l-7.6,8.7-3.4,3.4v1.1l3.4-3.4,8-9.1-.4-.7ZM39.9,35.4l-2.3,2.3v1.1l2.3-2.3.6.6.6-.6-1.1-1.1ZM25.1,47.9l-2,2-6,9.4,1.7-1.5,6.3-9.9ZM19.8,49.5l-2.7,1.8h1.7l1.7-1.1-.7-.7ZM18.6,52.5l-1.5,2.3,2.3-2.3h-.8Z"/>
  </g>
</svg>