<?xml version="1.0" encoding="UTF-8"?>
<svg id="_图层_1" xmlns="http://www.w3.org/2000/svg" version="1.1" viewBox="0 0 64 64" width="64" height="64">
  <!-- Generator: Adobe Illustrator 29.0.1, SVG Export Plug-In . SVG Version: 2.1.0 Build 192)  -->
  <defs>
    <style>
      .st0 {
        fill: #30dd81;
      }

      .st1, .st2 {
        fill: #fff;
      }

      .st3 {
        fill: none;
        stroke: #1ebb68;
        stroke-linecap: round;
        stroke-width: 4.2px;
      }

      .st4 {
        fill: #1ebb68;
      }

      .st5, .st2 {
        isolation: isolate;
        opacity: .2;
      }

      .st6 {
        fill: #ffe963;
      }
    </style>
  </defs>
  <path class="st1" d="M50.3,64H13.8c-7.6,0-13.8-6.2-13.8-13.7V13.7C0,6.2,6.2,0,13.7,0h36.5c7.5,0,13.7,6.2,13.7,13.7v36.6c0,7.5-6.2,13.7-13.7,13.7h0Z"/>
  <g>
    <path class="st5" d="M14,4c-1.2,0-2.1,1-2,2.1,0,.4.1.8.4,1.2l5.9,8.6c.6,1,1.9,1.2,2.9.6s1.2-1.9.6-2.9c0,0,0,0,0,0l-5.9-8.6c-.4-.6-1.1-.9-1.8-.9ZM49.8,4c-.7,0-1.3.4-1.7.9l-5.9,8.6c-.7.9-.5,2.2.5,2.9.9.7,2.2.5,2.9-.5,0,0,0,0,0,0l5.9-8.6c.7-.9.4-2.2-.5-2.9-.4-.3-.8-.4-1.2-.4Z"/>
    <path class="st5" d="M57,32v23.8c0,2.3-1.9,4.2-4.2,4.2H11.1c-2.3,0-4.2-1.9-4.2-4.2v-23.8h50Z"/>
    <path class="st3" d="M49.8,5.1l-5.9,8.6"/>
    <path class="st3" d="M14.1,5.1l5.9,8.6"/>
    <path class="st4" d="M57,31v23.8c0,2.3-1.9,4.2-4.2,4.2H11.1c-2.3,0-4.2-1.9-4.2-4.2v-23.8h50Z"/>
    <path class="st0" d="M32,6c-13.8,0-25,11.2-25,25h50c0-13.8-11.2-25-25-25Z"/>
    <path class="st5" d="M21.5,20c-1.9,0-3.5,1.6-3.5,3.5s1.6,3.5,3.5,3.5,3.5-1.6,3.5-3.5-1.6-3.5-3.5-3.5ZM42.5,20c-1.9,0-3.5,1.6-3.5,3.5s1.6,3.5,3.5,3.5,3.5-1.6,3.5-3.5-1.6-3.5-3.5-3.5Z"/>
    <circle class="st1" cx="21.5" cy="22.5" r="3.5"/>
    <path class="st5" d="M22,38.4v15.2s0,1.4,1.4,1.4h17.1s1.4,0,1.4-1.4v-12.3c0-1.4-1.4-1.4-1.4-1.4h-7.1l-2.9-3h-7.1s-1.4,0-1.4,1.4Z"/>
    <path class="st6" d="M22,37.4v15.2s0,1.4,1.4,1.4h17.1s1.4,0,1.4-1.4v-12.3c0-1.4-1.4-1.4-1.4-1.4h-7.1l-2.9-3h-7.1s-1.4,0-1.4,1.4Z"/>
    <circle class="st1" cx="42.5" cy="22.5" r="3.5"/>
    <rect class="st5" x="7" y="31" width="50" height="1"/>
    <path class="st2" d="M32,6c-13.8,0-25,11.2-25,25h0c.5-13.4,11.6-24,25-24,13.4,0,24.4,10.6,24.9,24h0c0-13.8-11.2-25-25-25Z"/>
    <path class="st2" d="M23.4,36s-1.4,0-1.4,1.4v1c0-1.4,1.4-1.4,1.4-1.4h7.1l2.9,3h7.1s1.4,0,1.4,1.4v-1c0-1.4-1.4-1.4-1.4-1.4h-7.1l-2.9-3h-7.1Z"/>
  </g>
</svg>