<?xml version="1.0" encoding="UTF-8"?>
<svg id="_图层_1" xmlns="http://www.w3.org/2000/svg" version="1.1" viewBox="0 0 64 64" width="64" height="64">
  <!-- Generator: Adobe Illustrator 29.0.1, SVG Export Plug-In . SVG Version: 2.1.0 Build 192)  -->
  <defs>
    <style>
      .st0, .st1 {
        fill: #4f4f4f;
      }

      .st2, .st3, .st4, .st5, .st6, .st7 {
        isolation: isolate;
      }

      .st2, .st3, .st8, .st1 {
        display: none;
      }

      .st2, .st4, .st5, .st6, .st7 {
        opacity: .2;
      }

      .st3 {
        opacity: .1;
      }

      .st3, .st5, .st7 {
        fill: #fff;
      }

      .st9 {
        fill: #848484;
      }

      .st4, .st10, .st5, .st11, .st12 {
        fill-rule: evenodd;
      }

      .st13 {
        fill: #ba2d2d;
      }

      .st10 {
        fill: #ffc30e;
      }

      .st11 {
        fill: #f07800;
      }

      .st12 {
        fill: #ff8f13;
      }
    </style>
  </defs>
  <path class="st0" d="M50.4,64H13.8c-7.6,0-13.8-6.2-13.8-13.7V13.7C0,6.2,6.2,0,13.7,0h36.6c7.5,0,13.7,6.2,13.7,13.7v36.6c0,7.5-6.2,13.7-13.7,13.7h.1Z"/>
  <g class="st8">
    <path class="st6" d="M11.4,53.8v2c0,1.5,1.2,2.7,2.7,2.7h34.7c1.5,0,2.7-1.2,2.7-2.7v-2c0,1.5-1.2,2.7-2.7,2.7H14.1c-1.5,0-2.7-1.2-2.7-2.7Z"/>
    <path class="st9" d="M20,5.5h2.7c1.5,0,2.7,1.2,2.7,2.8v16.5c0,1.5-1.2,2.8-2.7,2.8h-2.7c-1.5,0-2.7-1.2-2.7-2.8V8.2c0-1.5,1.2-2.8,2.7-2.8Z"/>
    <path class="st9" d="M40,5.5h2.7c1.5,0,2.7,1.2,2.7,2.8v16.5c0,1.5-1.2,2.8-2.7,2.8h-2.7c-1.5,0-2.7-1.2-2.7-2.8V8.2c0-1.5,1.2-2.8,2.7-2.8Z"/>
    <rect class="st13" x="11.4" y="25.5" width="40" height="32" rx="2.7" ry="2.7"/>
    <path class="st7" d="M20.1,5.5c-1.5,0-2.7,1.2-2.7,2.8v1c0-1.5,1.2-2.8,2.7-2.8h2.7c1.5,0,2.7,1.2,2.7,2.8v-1c0-1.5-1.2-2.8-2.7-2.8h-2.7Z"/>
    <path class="st7" d="M40.1,5.5c-1.5,0-2.7,1.2-2.7,2.8v1c0-1.5,1.2-2.8,2.7-2.8h2.7c1.5,0,2.7,1.2,2.7,2.8v-1c0-1.5-1.2-2.8-2.7-2.8h-2.7Z"/>
  </g>
  <g>
    <path class="st2" d="M32,1.1C14.3,1.1,0,15.4,0,33s14.3,31.8,32,31.8,32-14.3,32-31.8S49.7,1.1,32,1.1Z"/>
    <path class="st1" d="M32,0C14.3,0,0,14.3,0,31.8s14.3,31.8,32,31.8,32-14.3,32-31.8S49.7,0,32,0Z"/>
    <path class="st4" d="M30,13.6s1.5,1.2,2,1.6h1.6c.4-.6,1.6-1.6,1.6-1.6,0,0,10.7,26.1,15.2,37.2,0,.2,0,.2-.2,0l-22-13.2-13.5,13.4L30,13.6Z"/>
    <path class="st11" d="M21.6,31.5c0-.3.4-.5,1-.5s0,0,0,0c0,0,.8,0,.8,0l-1.3,3.4-1.5-.6s1-2.2,1-2.4h0Z"/>
    <path class="st12" d="M30,12.5s1.5,1.2,2,1.6h1.6c.4-.6,1.6-1.6,1.6-1.6,0,0,10.7,26.1,15.2,37.2,0,.2,0,.2-.2,0l-22-13.2-13.5,13.4L30,12.5Z"/>
    <path class="st4" d="M22.5,33h23.4c.2,0,.1,0,0,.1L13.8,52.3c-.2.1-.2,0-.1-.1l7.9-19.6s0,.4,1,.5Z"/>
    <path class="st10" d="M22.5,31.9h23.4c.2,0,.1,0,0,.1L13.8,51.1c-.2.1-.2,0-.1-.1l7.9-19.6s0,.4,1,.5Z"/>
    <path class="st4" d="M35.2,13.6h-5.2l2.6,3.4,2.6-3.4Z"/>
    <path class="st10" d="M35.2,12.5h-5.2l2.6,3.4,2.6-3.4Z"/>
    <path class="st3" d="M32,0C14.3,0,0,14.3,0,31.8c0,.2,0,.3,0,.5C.4,15,14.6,1.1,32,1.1c17.5,0,31.7,14,32,31.4,0-.2,0-.4,0-.7C64,14.3,49.7,0,32,0Z"/>
    <path class="st5" d="M21.6,31.4l-7.9,19.6c0,.2,0,.3.1.1l.3-.2,7.4-18.4s0,.4,1,.5h21.7l1.7-1c.1,0,.2-.1,0-.1h-23.4c-1.1,0-1-.5-1-.5Z"/>
  </g>
</svg>