<?xml version="1.0" encoding="UTF-8"?>
<svg id="_图层_1" xmlns="http://www.w3.org/2000/svg" version="1.1" viewBox="0 0 64 64" width="64" height="64">
  <!-- Generator: Adobe Illustrator 29.0.1, SVG Export Plug-In . SVG Version: 2.1.0 Build 192)  -->
  <defs>
    <style>
      .st0, .st1, .st2 {
        isolation: isolate;
      }

      .st0, .st1, .st3 {
        display: none;
      }

      .st0, .st2 {
        opacity: .2;
      }

      .st1 {
        opacity: .1;
      }

      .st1, .st4 {
        fill: #fff;
      }

      .st5, .st3 {
        fill: #f59335;
      }
    </style>
  </defs>
  <path class="st5" d="M50.3,64H13.8c-7.6,0-13.8-6.2-13.8-13.7V13.7C0,6.2,6.2,0,13.7,0h36.5c7.5,0,13.7,6.2,13.7,13.7v36.6c0,7.5-6.2,13.7-13.7,13.7h0Z"/>
  <g>
    <path class="st0" d="M0,52.2v2.4C0,59.3,4.8,64,9.6,64h44.7c4.8,0,9.6-4.7,9.6-9.4s0-1.4,0-2c-.2,4.6-4.9,9-9.5,9H9.6C4.8,61.6,0,56.9,0,52.2H0Z"/>
    <path class="st3" d="M63.9,53.4C63.9,22,41.5,0,9.6,0S0,4.7,0,9.4v44c0,4.7,4.8,9.4,9.6,9.4h44.7c4.8,0,9.6-4.7,9.6-9.4Z"/>
    <path class="st2" d="M7.4,16.9c0,2.6,1.1,3.6,3.7,3.6,18.3,0,33.2,14.6,33.2,32.6s1.3,3.6,3.7,3.6,3.7-1.4,3.7-3.6c0-22-18.2-39.8-40.6-39.8s-3.7,1.2-3.7,3.6ZM7.4,31.4c0,2.5,1,3.6,3.7,3.6,10.2,0,18.4,8.1,18.4,18.1s1.2,3.6,3.7,3.6,3.7-1.3,3.7-3.6c0-14-11.6-25.4-25.8-25.4s-3.7,1-3.7,3.6ZM14.7,42.3c-4.1,0-7.4,3.2-7.4,7.2s3.3,7.2,7.4,7.2,7.4-3.2,7.4-7.2-3.3-7.2-7.4-7.2Z"/>
    <path class="st4" d="M7.4,15.7c0,2.6,1.1,3.6,3.7,3.6,18.3,0,33.2,14.6,33.2,32.6s1.3,3.6,3.7,3.6,3.7-1.4,3.7-3.6c0-22-18.2-39.8-40.6-39.8s-3.7,1.2-3.7,3.6ZM7.4,30.2c0,2.5,1,3.6,3.7,3.6,10.2,0,18.4,8.1,18.4,18.1s1.2,3.6,3.7,3.6,3.7-1.3,3.7-3.6c0-14-11.6-25.4-25.8-25.4s-3.7,1-3.7,3.6ZM14.7,41.1c-4.1,0-7.4,3.2-7.4,7.2s3.3,7.2,7.4,7.2,7.4-3.2,7.4-7.2-3.3-7.2-7.4-7.2Z"/>
    <path class="st1" d="M9.6,0C4.8,0,0,4.7,0,9.4v1.2C0,5.9,4.8,1.2,9.6,1.2c31.6,0,53.8,21.5,54.3,52.3,0,0,0-.1,0-.2C63.9,22,41.5,0,9.6,0Z"/>
  </g>
</svg>