<?xml version="1.0" encoding="UTF-8"?>
<svg id="_图层_1" xmlns="http://www.w3.org/2000/svg" version="1.1" viewBox="0 0 64 64" width="64" height="64">
  <!-- Generator: Adobe Illustrator 29.0.1, SVG Export Plug-In . SVG Version: 2.1.0 Build 192)  -->
  <defs>
    <style>
      .st0 {
        fill: #fff;
      }

      .st1 {
        fill: #66f;
      }
    </style>
  </defs>
  <path class="st1" d="M50.4,64.1H13.8C6.2,64.1,0,57.9,0,50.4V13.8C0,6.3,6.2.1,13.8.1h36.6c7.5,0,13.7,6.2,13.7,13.7v36.5c0,7.5-6.2,13.7-13.7,13.7h0Z"/>
  <path class="st0" d="M47.4,33.7c-.5-.1-.7-.6-.6-1.1,2.1-9.9-3.7-19.8-13.2-22.4-9.8-2.7-19.9,3.3-22.6,13.4h0c-1.6,6.3-.5,12.9,3.1,18.3,2.5,3.8,6.1,6.7,10.3,8.3,11.6,4.4,24.2-2.2,27.9-13.9.2-.6-.1-1.3-.8-1.4l-3.9-1.1ZM28,43.2c-3.6-1-6.6-3.4-8.4-6.6-1.8-3.3-2.3-7.2-1.4-10.8,1.6-6,7.6-9.6,13.5-8,5.5,1.5,9,7.2,8,12.9,0,.5.2,1.1.7,1.2l3.7,1c.5.1.7.6.6,1.1-2.3,7-9.6,11.1-16.7,9.2Z"/>
</svg>