<?xml version="1.0" encoding="UTF-8"?>
<svg id="_图层_1" xmlns="http://www.w3.org/2000/svg" version="1.1" viewBox="0 0 64 64" width="64" height="64">
  <!-- Generator: Adobe Illustrator 29.0.1, SVG Export Plug-In . SVG Version: 2.1.0 Build 192)  -->
  <defs>
    <style>
      .st0 {
        fill: #f04b23;
      }

      .st1 {
        fill: #07ce8e;
      }

      .st2 {
        fill: #4f4f4f;
      }

      .st3, .st4, .st5, .st6 {
        opacity: .2;
      }

      .st3, .st4, .st5, .st6, .st7 {
        isolation: isolate;
      }

      .st3, .st8, .st6 {
        display: none;
      }

      .st9 {
        fill: #70f4ff;
      }

      .st10 {
        fill: #3f3f3f;
      }

      .st11, .st5, .st6, .st7 {
        fill: #fff;
      }

      .st12 {
        fill: #a6a6a6;
      }

      .st13 {
        fill: #00b1c4;
      }

      .st14 {
        fill: #2f2f2f;
      }

      .st15 {
        fill: #e2222f;
      }

      .st16 {
        fill: #666;
      }

      .st17 {
        fill: #8c8c8c;
      }

      .st18 {
        fill: #595959;
      }

      .st19 {
        fill: #16aca8;
      }

      .st20 {
        fill: #ff8a18;
      }

      .st7 {
        opacity: .1;
      }
    </style>
  </defs>
  <path class="st11" d="M50.3,64H13.8c-7.6,0-13.8-6.2-13.8-13.7V13.7C0,6.2,6.2,0,13.7,0h36.5c7.5,0,13.7,6.2,13.7,13.7v36.6c0,7.5-6.2,13.7-13.7,13.7h0Z"/>
  <g class="st8">
    <path class="st3" d="M3.3,1.1h54.9c1.8,0,3.3,1.4,3.3,3.2v46l-5.3,5.4c-1.3,1.3-4.6.2-5.7,1.6l-2.5,3.4H3.3c-1.8,0-3.3-1.4-3.3-3.2V4.3C0,2.5,1.5,1.1,3.3,1.1Z"/>
    <path class="st16" d="M63.8,29.9v19.2l.3.5c0,11.2-10.1,14.5-12.8,14.4h-22.7V29.9h35.2Z"/>
    <path class="st17" d="M0,27.7v23.1c0,8.2,6.7,13.2,14.3,13.3h16.5V27.7H0Z"/>
    <path class="st12" d="M14.1,0C5,.2.2,6.8.1,12.4v17.5c-.1,0,32.8,0,32.8,0V0H14.1Z"/>
    <path class="st18" d="M51.1-.1c8.3.1,12.8,8.3,12.8,13.8v16.2H30.8V0h20.4Z"/>
    <path class="st6" d="M3.3,0C1.5,0,0,1.4,0,3.2v1.1C0,2.5,1.5,1.1,3.3,1.1h54.9c1.8,0,3.3,1.4,3.3,3.2v-1.1c0-1.8-1.5-3.2-3.3-3.2H3.3Z"/>
    <ellipse class="st4" cx="46.1" cy="46.9" rx="17.6" ry="17.1"/>
    <ellipse class="st1" cx="46.1" cy="45.9" rx="17.6" ry="17.1"/>
    <path class="st4" d="M15.4,10.7v6.4h-6.6v2.1h6.6v6.4h2.2v-6.4h6.6v-2.1h-6.6v-6.4h-2.2ZM39.6,17.1v2.1h13.2v-2.1h-13.2ZM9.3,39.5l-1.6,1.6,6.1,5.9-6.1,5.9,1.6,1.6,6.1-5.9,6.1,5.9,1.6-1.6-6.1-5.9,6.1-5.9-1.6-1.6-6.1,5.9-6.1-5.9Z"/>
    <path class="st11" d="M15.4,9.6v6.4h-6.6v2.1h6.6v6.4h2.2v-6.4h6.6v-2.1h-6.6v-6.4h-2.2ZM39.6,16v2.1h13.2v-2.1h-13.2ZM9.3,38.4l-1.6,1.6,6.1,5.9-6.1,5.9,1.6,1.6,6.1-5.9,6.1,5.9,1.6-1.6-6.1-5.9,6.1-5.9-1.6-1.6-6.1,5.9-6.1-5.9Z"/>
    <path class="st11" d="M39.6,41.6v2.1h13.2v-2.1h-13.2ZM39.6,48v2.1h13.2v-2.1h-13.2Z"/>
  </g>
  <g class="st8">
    <path class="st4" d="M33,47.9s17,4.2,17,7v2.8c0,1.6-1.3,2.8-2.8,2.8h-28.3c-1.6,0-2.8-1.2-2.8-2.8v-2.8c0-2.8,17-7,17-7Z"/>
    <path class="st10" d="M33,46.9s17,4.2,17,7v2.8c0,1.6-1.3,2.8-2.8,2.8h-28.3c-1.6,0-2.8-1.2-2.8-2.8v-2.8c0-2.8,17-7,17-7Z"/>
    <circle class="st4" cx="33" cy="29.5" r="25"/>
    <circle class="st2" cx="33" cy="28.5" r="25"/>
    <circle class="st14" cx="33" cy="28.5" r="18"/>
    <circle class="st4" cx="33" cy="29.5" r="14"/>
    <circle class="st13" cx="33" cy="28.5" r="14"/>
    <circle class="st4" cx="33" cy="29.5" r="8"/>
    <circle class="st9" cx="33" cy="28.5" r="8"/>
    <path class="st5" d="M32.9,20.5c-4.4,0-7.9,3.6-7.9,8,0,.2,0,.3,0,.5.3-4.2,3.7-7.4,7.9-7.5,0,0,0,0,.1,0,4.2,0,7.7,3.3,8,7.5,0-.2,0-.3,0-.5,0-4.4-3.6-8-8-8,0,0,0,0-.1,0Z"/>
    <path class="st7" d="M32.8,3.5c-13.7,0-24.8,11.3-24.8,25,0,.2,0,.3,0,.5.3-13.6,11.4-24.5,25-24.5,13.6,0,24.7,10.9,25,24.5,0-.2,0-.3,0-.5,0-13.8-11.2-25-25-25,0,0-.1,0-.2,0Z"/>
  </g>
  <g class="st8">
    <path class="st4" d="M31.8,5.8c-1.1,0-2.1.6-2.6,1.5L4.3,50.3c-.5.9-.5,2.1,0,3h0c.5.9,1.5,1.5,2.6,1.5h49.7c1.1,0,2.1-.6,2.6-1.5h0c.5-.9.5-2.1,0-3L34.4,7.3c-.5-.9-1.5-1.5-2.6-1.5h0Z"/>
    <path class="st20" d="M31.8,4.8c-1.1,0-2.1.6-2.6,1.5L4.3,49.3c-.5.9-.5,2.1,0,3h0c.5.9,1.5,1.5,2.6,1.5h49.7c1.1,0,2.1-.6,2.6-1.5h0c.5-.9.5-2.1,0-3L34.4,6.3c-.5-.9-1.5-1.5-2.6-1.5h0Z"/>
    <path class="st5" d="M31.8,4.8c-1.1,0-2.1.6-2.6,1.5L4.3,49.3c-.3.6-.5,1.3-.4,2,0-.4.2-.7.4-1L29.2,7.3c.5-.9,1.5-1.5,2.6-1.5h0c1.1,0,2.1.6,2.6,1.5l24.8,43c.2.3.3.6.4,1,.1-.7,0-1.4-.4-2L34.4,6.3c-.5-.9-1.5-1.5-2.6-1.5h0Z"/>
    <path class="st4" d="M31.8,18.8l-16,9v8l23,8-7,4-9-5v-2l-7-2.5v8.5l16,9,16-9v-8l-23-8,7-4,9,5v2l7,2.5v-8.5l-16-9Z"/>
    <path class="st11" d="M31.8,17.8l-16,9v8l23,8-7,4-9-5v-2l-7-2.5v8.5l16,9,16-9v-8l-23-8,7-4,9,5v2l7,2.5v-8.5l-16-9Z"/>
  </g>
  <g class="st8">
    <path class="st4" d="M38,5.3c-.6,0-1,.5-1.4,1.3l-1.5,2.8c-.8,0-1.7-.2-2.5-.2-.8,0-1.7,0-2.5.2l-1.5-2.8c-.7-1.3-1.4-1.4-2.6-1.1-2.4,1-4.9,2-7.3,3-1.2.5-1.5,1.1-1.1,2.6l1,3c-1.3,1.1-2.5,2.3-3.6,3.6l-3-1c-1.5-.5-2.1-.2-2.6,1.1-1,2.4-2,4.9-3,7.3-.5,1.2-.3,1.9,1.1,2.6l2.8,1.5c0,.8-.2,1.7-.2,2.5,0,.8,0,1.7.2,2.5l-2.8,1.5c-1.4.7-1.6,1.4-1.1,2.6,1,2.4,2,4.9,3,7.3.5,1.2,1.1,1.5,2.6,1.1l3-1c1.1,1.3,2.3,2.5,3.6,3.6l-1,3c-.5,1.5-.2,2.1,1.1,2.6,2.4,1,4.9,2,7.3,3,1.2.5,1.9.3,2.6-1.1l1.5-2.8c.8,0,1.7.2,2.5.2.8,0,1.7,0,2.5-.2l1.5,2.8c.7,1.4,1.4,1.6,2.6,1.1,2.4-1,4.9-2,7.3-3,1.2-.5,1.5-1.1,1.1-2.6l-1-3c1.3-1.1,2.5-2.3,3.6-3.6l3,1c1.5.5,2.1.2,2.6-1.1,1-2.4,2-4.9,3-7.3.5-1.2.3-1.9-1.1-2.6l-2.8-1.5c0-.8.2-1.7.2-2.5,0-.8,0-1.7-.2-2.5l2.8-1.5c1.4-.7,1.6-1.4,1.1-2.6-1-2.4-2-4.9-3-7.3-.5-1.2-1.1-1.5-2.6-1.1l-3,1c-1.1-1.3-2.3-2.5-3.6-3.6l1-3c.5-1.5.2-2.1-1.1-2.6-2.4-1-4.9-2-7.3-3-.5-.2-.8-.3-1.2-.2Z"/>
    <path class="st19" d="M38,4.3c-.6,0-1,.5-1.4,1.3l-1.5,2.8c-.8,0-1.7-.2-2.5-.2-.8,0-1.7,0-2.5.2l-1.5-2.8c-.7-1.3-1.4-1.4-2.6-1.1-2.4,1-4.9,2-7.3,3-1.2.5-1.5,1.1-1.1,2.6l1,3c-1.3,1.1-2.5,2.3-3.6,3.6l-3-1c-1.5-.5-2.1-.2-2.6,1.1-1,2.4-2,4.9-3,7.3-.5,1.2-.3,1.9,1.1,2.6l2.8,1.5c0,.8-.2,1.7-.2,2.5,0,.8,0,1.7.2,2.5l-2.8,1.5c-1.4.7-1.6,1.4-1.1,2.6,1,2.4,2,4.9,3,7.3.5,1.2,1.1,1.5,2.6,1.1l3-1c1.1,1.3,2.3,2.5,3.6,3.6l-1,3c-.5,1.5-.2,2.1,1.1,2.6,2.4,1,4.9,2,7.3,3,1.2.5,1.9.3,2.6-1.1l1.5-2.8c.8,0,1.7.2,2.5.2.8,0,1.7,0,2.5-.2l1.5,2.8c.7,1.4,1.4,1.6,2.6,1.1,2.4-1,4.9-2,7.3-3,1.2-.5,1.5-1.1,1.1-2.6l-1-3c1.3-1.1,2.5-2.3,3.6-3.6l3,1c1.5.5,2.1.2,2.6-1.1,1-2.4,2-4.9,3-7.3.5-1.2.3-1.9-1.1-2.6l-2.8-1.5c0-.8.2-1.7.2-2.5,0-.8,0-1.7-.2-2.5l2.8-1.5c1.4-.7,1.6-1.4,1.1-2.6-1-2.4-2-4.9-3-7.3-.5-1.2-1.1-1.5-2.6-1.1l-3,1c-1.1-1.3-2.3-2.5-3.6-3.6l1-3c.5-1.5.2-2.1-1.1-2.6-2.4-1-4.9-2-7.3-3-.5-.2-.8-.3-1.2-.2Z"/>
    <path class="st4" d="M32.6,13.3l-16,9v8l23,8-7,4-9-5v-2l-7-2.5v8.5l16,9,16-9v-8l-23-8,7-4,9,5v2l7,2.5v-8.5l-16-9Z"/>
    <path class="st11" d="M32.6,12.3l-16,9v8l23,8-7,4-9-5v-2l-7-2.5v8.5l16,9,16-9v-8l-23-8,7-4,9,5v2l7,2.5v-8.5l-16-9Z"/>
    <path class="st5" d="M38,4.3c-.6,0-1,.5-1.4,1.3l-1.5,2.8c-.8,0-1.7-.2-2.5-.2-.8,0-1.7,0-2.5.2l-1.5-2.8c-.7-1.3-1.4-1.4-2.6-1.1-2.4,1-4.9,2-7.3,3-1.1.4-1.4,1-1.2,2.1.1-.5.5-.8,1.2-1.1,2.4-1,4.9-2,7.3-3,1.2-.3,1.8-.2,2.6,1.1l1.5,2.8c.8-.1,1.7-.2,2.5-.2.8,0,1.7,0,2.5.2l1.5-2.8c.4-.8.9-1.3,1.4-1.3.3,0,.7,0,1.2.2,2.4,1,4.9,2,7.3,3,.7.3,1.1.6,1.2,1.1.2-1.1-.1-1.6-1.2-2.1-2.4-1-4.9-2-7.3-3-.5-.2-.8-.3-1.2-.2ZM18.3,13.4c-1.2,1-2.3,2.1-3.3,3.4l-3-1c-1.5-.5-2.1-.2-2.6,1.1-1,2.4-2,4.9-3,7.3-.3.6-.3,1.1-.2,1.5,0-.2,0-.3.2-.5,1-2.4,2-4.9,3-7.3.5-1.2,1.1-1.5,2.6-1.1l3,1c1-1.3,2.2-2.5,3.6-3.6l-.2-.8ZM46.9,13.4l-.3.8c1.3,1,2.5,2.2,3.6,3.6l3-1c1.5-.5,2.1-.2,2.6,1.1,1,2.4,2,4.9,3,7.3,0,.2.1.3.2.5.2-.4,0-.9-.2-1.5-1-2.4-2-4.9-3-7.3-.5-1.2-1.1-1.5-2.6-1.1l-3,1c-1-1.2-2.1-2.4-3.3-3.4ZM10.2,29.3c0,.5,0,1,0,1.6,0,.1,0,.3,0,.4,0-.6,0-1.3.1-1.9h0ZM55,29.3h0c0,.7.1,1.4.1,2.2,0-.2,0-.4,0-.6,0-.5,0-1,0-1.6ZM10.2,33.4l-2.8,1.4c-1.2.6-1.5,1.2-1.2,2.1.2-.4.6-.8,1.2-1.1l2.8-1.5c0-.3,0-.6,0-1ZM55,33.4c0,.3,0,.6,0,1l2.8,1.5c.7.4,1.1.7,1.2,1.1.3-.9,0-1.5-1.2-2.1l-2.8-1.4ZM18.3,49.2l-.7,2.2c-.2.6-.2,1.1-.1,1.5,0-.2,0-.3.1-.5l1-3c0,0-.2-.1-.3-.2ZM46.9,49.2c0,0-.2.1-.2.2l1,3c0,.2.1.3.1.5.1-.4,0-.9-.1-1.5l-.7-2.2Z"/>
  </g>
  <g class="st8">
    <path class="st4" d="M31.9,4.8c-1.7,0-3,1.3-3,3v2H11.9c-2.2,0-4,1.8-4,4v17h-2c-1.7,0-3,1.3-3,3s1.3,3,3,3h2v17c0,2.2,1.8,4,4,4h40c2.2,0,4-1.8,4-4v-17h2c1.7,0,3-1.3,3-3s-1.3-3-3-3h-2V13.8c0-2.2-1.8-4-4-4h-17v-2c0-1.7-1.3-3-3-3Z"/>
    <path class="st0" d="M31.9,3.8c-1.7,0-3,1.3-3,3v2H11.9c-2.2,0-4,1.8-4,4v17h-2c-1.7,0-3,1.3-3,3s1.3,3,3,3h2v17c0,2.2,1.8,4,4,4h40c2.2,0,4-1.8,4-4v-17h2c1.7,0,3-1.3,3-3s-1.3-3-3-3h-2V12.8c0-2.2-1.8-4-4-4h-17v-2c0-1.7-1.3-3-3-3Z"/>
    <path class="st4" d="M31.9,15.8l-16,9v8l23,8-7,4-9-5v-2l-7-2.4v8.4l16,9,16-9v-8l-23-8,7-4,9,5v2l7,2.5v-8.5l-16-9Z"/>
    <path class="st11" d="M31.9,14.8l-16,9v8l23,8-7,4-9-5v-2l-7-2.4v8.4l16,9,16-9v-8l-23-8,7-4,9,5v2l7,2.5v-8.5l-16-9Z"/>
    <path class="st5" d="M31.9,3.8c-1.7,0-3,1.3-3,3v1c0-1.7,1.3-3,3-3s3,1.3,3,3v-1c0-1.7-1.3-3-3-3ZM11.9,8.8c-2.2,0-4,1.8-4,4v1c0-2.2,1.8-4,4-4h17v-1H11.9ZM34.9,8.8v1h17c2.2,0,4,1.8,4,4v-1c0-2.2-1.8-4-4-4h-17ZM5.9,29.8c-1.7,0-3,1.3-3,3,0,.2,0,.3,0,.5.2-1.4,1.5-2.5,3-2.5h2v-1h-2ZM55.9,29.8v1h2c1.5,0,2.7,1.1,3,2.5,0-.2,0-.3,0-.5,0-1.7-1.3-3-3-3h-2Z"/>
  </g>
  <g>
    <ellipse class="st4" cx="31" cy="8.5" rx="3.2" ry="3.1"/>
    <ellipse class="st4" cx="30.6" cy="34.5" rx="21.9" ry="21.1"/>
    <ellipse class="st4" cx="52.9" cy="51.6" rx="5" ry="4.8"/>
    <ellipse class="st4" cx="8.2" cy="49.9" rx="2.3" ry="2.2"/>
    <ellipse class="st15" cx="31" cy="7.6" rx="3.2" ry="3.1"/>
    <ellipse class="st15" cx="30.6" cy="33.6" rx="21.9" ry="21.1"/>
    <ellipse class="st15" cx="52.9" cy="50.7" rx="5" ry="4.8"/>
    <ellipse class="st15" cx="8.2" cy="49" rx="2.3" ry="2.2"/>
    <path class="st5" d="M31,4.5c-1.8,0-3.2,1.4-3.2,3.1,0,.1,0,.3,0,.4.2-1.5,1.6-2.6,3.2-2.6,1.6,0,2.9,1.1,3.2,2.6,0-.1,0-.3,0-.4,0-1.7-1.4-3.1-3.2-3.1Z"/>
    <path class="st5" d="M30.6,12.5c-12.1,0-21.9,9.5-21.9,21.1,0,.2,0,.3,0,.5.2-11.5,9.9-20.7,21.9-20.8,11.9,0,21.6,9.2,21.9,20.6,0-.1,0-.2,0-.4,0-11.7-9.8-21.1-21.9-21.1Z"/>
    <path class="st5" d="M52.9,45.9c-2.8,0-5,2.2-5,4.8,0,.1,0,.3,0,.4.2-2.5,2.4-4.4,5-4.4,2.6,0,4.8,1.9,5,4.4,0-.2,0-.3,0-.5,0-2.7-2.2-4.8-5-4.8Z"/>
    <path class="st5" d="M8.2,46.8c-1.3,0-2.3,1-2.3,2.2,0,.1,0,.3,0,.4.2-1,1.2-1.8,2.2-1.8,1.1,0,2,.7,2.2,1.8,0-.1,0-.3,0-.4,0-1.2-1-2.2-2.3-2.2Z"/>
    <path class="st4" d="M30.6,17.7l-14.6,7.9v7l21,7-6.4,3.5-8.2-4.4v-1.8l-6.4-2.2v7.4l14.6,7.9,14.6-7.9v-7l-21-7,6.4-3.5,8.2,4.4v1.8l6.4,2.2v-7.5l-14.6-7.9Z"/>
    <path class="st11" d="M30.6,16.9l-14.6,7.9v7l21,7-6.4,3.5-8.2-4.4v-1.8l-6.4-2.2v7.4l14.6,7.9,14.6-7.9v-7l-21-7,6.4-3.5,8.2,4.4v1.8l6.4,2.2v-7.5l-14.6-7.9Z"/>
  </g>
</svg>