<?xml version="1.0" encoding="UTF-8"?>
<svg id="_图层_1" xmlns="http://www.w3.org/2000/svg" version="1.1" viewBox="0 0 64 64" width="64" height="64">
  <!-- Generator: Adobe Illustrator 29.0.1, SVG Export Plug-In . SVG Version: 2.1.0 Build 192)  -->
  <defs>
    <style>
      .st0 {
        fill: #4bae4f;
      }

      .st1 {
        fill: #4f4f4f;
      }

      .st2, .st3, .st4, .st5 {
        isolation: isolate;
      }

      .st2, .st4, .st5 {
        opacity: .2;
      }

      .st2, .st6, .st5, .st7 {
        display: none;
      }

      .st8, .st5 {
        fill: #fff;
      }

      .st3 {
        opacity: .1;
      }

      .st9 {
        fill: #79de7d;
      }

      .st10 {
        fill: #ff5722;
      }

      .st11 {
        fill: #3c8b3f;
      }

      .st7, .st12 {
        fill: #e4e4e4;
      }
    </style>
  </defs>
  <path class="st12" d="M47.5,64.1H13.8c-7.6,0-13.8-6.3-13.8-13.8V13.7C0,6.2,6.2,0,13.7,0h36.6c7.5,0,13.7,6.2,13.7,13.7v36.6c0,7.5-6.2,13.7-13.7,13.7h-2.9.1Z"/>
  <g class="st6">
    <path class="st4" d="M0,49v3.4c0,6.3,5.1,11.4,11.4,11.4h6.7l1.5-1.7c6.3-7.1,23.5-10,35.7-14.9,2-1,3.7-3,3-5.3l-.4-1.5-40.3,10.8L28.6,10.7l-6.1-1.6c-1.2,0-2.3.7-2.7,1.9l-.5,1.8c-.6,2.1,1.4,2.4.9,4.5l-2.3,9c-1.4,3.2-3.5,4.7-6.5,4.4-3.9,0-6.9,2.9-6.9,6.8,0,.6,0,1.3.3,1.9.4,2,0,4.1-1.5,5.7l-3.3,3.8Z"/>
    <path class="st4" d="M25.6,16.9l-1.6,5.9c7.9.3,16.8,3.9,22.8,9.1-4.8-7.1-13.2-12.8-21.3-15ZM27.4,30.7c5.3,3.7,9.9,10.1,12.6,15.9l5.2-1.4c-4.2-6-10.7-12.1-17.8-14.5Z"/>
    <path class="st12" d="M25.6,15.8l-1.6,5.9c7.9.3,16.8,3.9,22.8,9.1-4.8-7.1-13.2-12.8-21.3-15ZM27.4,29.6c5.3,3.7,9.9,10.1,12.6,15.9l5.2-1.4c-4.2-6-10.7-12.1-17.8-14.5Z"/>
    <path class="st0" d="M0,47.8v4.6c0,6.3,5.1,11.4,11.4,11.4h5.7l2.5-2.9c6.3-7.1,23.5-10,35.7-14.9,2-1,3.7-3,3-5.3l-.4-1.5-40.3,10.8L28.6,9.5l-6.1-1.6c-1.2,0-2.3.7-2.7,1.9l-.5,1.8c-.6,2.1,1.4,2.4.9,4.5l-2.3,9c-1.4,3.2-3.5,4.7-6.5,4.4-3.9,0-6.9,2.9-6.9,6.8,0,.6,0,1.3.3,1.9.4,2,0,4.1-1.5,5.7l-3.3,3.8Z"/>
    <ellipse class="st12" cx="11.4" cy="36.4" rx="5.7" ry="5.7"/>
    <path class="st9" d="M27,9.1l-13.9,43.6h0c-.1.5,0,1.1.3,1.4.4.4,1,.6,1.6.5h0s43.4-13.9,43.4-13.9l-.4-1.5-40.3,10.8L28.6,9.5l-1.5-.4Z"/>
    <ellipse class="st1" cx="12.6" cy="35.3" rx="2.3" ry="2.3"/>
    <path class="st11" d="M22.2,9.1c-.9,0-1.7.7-1.7,1.6h0c0,.7.5,1.3,1.2,1.5-.1-.2-.2-.5-.2-.8,0-.9.7-1.6,1.7-1.6h0c.1,0,.3,0,.4,0-.3-.5-.8-.8-1.4-.8Z"/>
    <path class="st5" d="M11.4,0C5.1,0,0,5.1,0,11.4v1.1C0,6.2,5.1,1.1,11.4,1.1h41.1c6.3,0,11.4,5.1,11.4,11.4v-1.1c0-6.3-5.1-11.4-11.4-11.4H11.4Z"/>
  </g>
  <g>
    <path class="st2" d="M31.9,1.1h0c17.6,0,31.9,14.4,31.9,32.1h0c0,17.7-14.3,32.1-31.9,32.1h0C14.3,65.3,0,50.9,0,33.2h0C0,15.5,14.3,1.1,31.9,1.1Z"/>
    <path class="st7" d="M31.9,0h0c17.6,0,31.9,14.4,31.9,32.1h0c0,17.7-14.3,32.1-31.9,32.1h0C14.3,64.1,0,49.8,0,32.1h0C0,14.4,14.3,0,31.9,0Z"/>
    <ellipse class="st3" cx="31.9" cy="33.2" rx="25.1" ry="25.2"/>
    <ellipse class="st10" cx="31.9" cy="32.1" rx="25.1" ry="25.2"/>
    <path class="st4" d="M23.8,20.6c-1.1,0-2.1.9-2.1,2,0,0,0,0,0,0v21.1c0,1.1.9,2,2.1,2,.4,0,.7,0,1-.3l9.3-5.3,9.3-5.3c1-.6,1.3-1.8.8-2.8-.2-.3-.4-.6-.8-.7l-9.3-5.3-9.3-5.3c-.3-.2-.6-.3-1-.3h0Z"/>
    <path class="st8" d="M23.8,19.5c-1.1,0-2.1.9-2.1,2,0,0,0,0,0,0v21.1c0,1.1.9,2,2.1,2,.4,0,.7,0,1-.3l9.3-5.3,9.3-5.3c1-.6,1.3-1.8.8-2.8-.2-.3-.4-.6-.8-.7l-9.3-5.3-9.3-5.3c-.3-.2-.6-.3-1-.3h0Z"/>
    <path class="st5" d="M31.9,0C14.2,0,0,14.3,0,32.1s0,.3,0,.4C.4,15,14.5,1.1,31.9,1.1s31.5,13.9,31.9,31.3c0-.1,0-.3,0-.4C63.8,14.3,49.6,0,31.9,0Z"/>
  </g>
</svg>