<?xml version="1.0" encoding="UTF-8"?>
<svg id="_图层_1" xmlns="http://www.w3.org/2000/svg" version="1.1" viewBox="0 0 64 64" width="64" height="64">
  <!-- Generator: Adobe Illustrator 29.0.1, SVG Export Plug-In . SVG Version: 2.1.0 Build 192)  -->
  <defs>
    <style>
      .st0 {
        fill: #4050ae;
      }

      .st1, .st2, .st3, .st4, .st5, .st6 {
        display: none;
      }

      .st1, .st7, .st8 {
        fill: #3f3f3f;
      }

      .st9 {
        fill: #3c6fc7;
      }

      .st10 {
        fill: #84ddd1;
      }

      .st2, .st3, .st11, .st12, .st8, .st13, .st6, .st14 {
        isolation: isolate;
      }

      .st2, .st12, .st13, .st6 {
        opacity: .2;
      }

      .st3, .st15, .st13, .st6, .st14 {
        fill: #fff;
      }

      .st3, .st11, .st14 {
        opacity: .1;
      }

      .st16 {
        fill: #4b4e30;
      }

      .st17 {
        stroke: #4050ae;
      }

      .st17, .st18 {
        fill: none;
        stroke-linecap: round;
        stroke-width: 1.4px;
      }

      .st4 {
        fill: #f4881f;
      }

      .st19 {
        fill: #85acf4;
      }

      .st20 {
        fill: #f44336;
      }

      .st21 {
        fill: #e9375f;
      }

      .st22 {
        fill: #bbb;
      }

      .st23 {
        fill: #5390f8;
      }

      .st24 {
        fill: #2aa2ee;
      }

      .st18 {
        stroke: #fff;
      }

      .st8 {
        opacity: 1;
      }

      .st25 {
        fill: #97c800;
      }

      .st26 {
        fill: #b71c1c;
      }
    </style>
  </defs>
  <path class="st15" d="M50.4,64H13.8c-7.6,0-13.8-6.2-13.8-13.7V13.7C0,6.2,6.2,0,13.7,0h36.6c7.5,0,13.7,6.2,13.7,13.7v36.6c0,7.5-6.2,13.7-13.7,13.7h.1Z"/>
  <g class="st5">
    <path class="st12" d="M44.5,57.8c-14.7,9.8-32.1,7.6-43.2-3.9-.3-.3-.6-.8-.6-1.3C-2.4,35.9,4.7,17.3,19.4,7.5,34-2.3,51.5,0,62.5,11.4c.3.3.6.8.6,1.3,3.1,16.7-4,35.3-18.6,45.1Z"/>
    <path class="st16" d="M44.5,56.5c-14.7,9.8-32.1,7.6-43.2-3.9-.3-.3-.6-.8-.6-1.3C-2.4,34.5,4.7,16,19.4,6.2c14.7-9.8,32.1-7.6,43.2,3.9.3.3.6.8.6,1.3,3.1,16.7-4,35.3-18.6,45.1Z"/>
    <path class="st12" d="M22.2,13.4c9.3-6.1,21.1-2.5,26.5,8.1,5.4,10.6,2.2,24.2-7.1,30.3-9.3,6.1-21.1,2.5-26.5-8.1s-2.2-24.2,7.1-30.3Z"/>
    <path class="st25" d="M22.2,12.1c9.3-6.1,21.1-2.5,26.5,8.1s2.2,24.2-7.1,30.3c-9.3,6.1-21.1,2.5-26.5-8.1-5.4-10.6-2.2-24.2,7.1-30.3Z"/>
    <path class="st8" d="M27.4,22.3c4.4-2.9,9.9-1.2,12.5,3.8s1,11.4-3.3,14.3-9.9,1.2-12.5-3.8-1-11.4,3.3-14.3Z"/>
    <path class="st14" d="M39.4,0c-6.7,0-13.7,1.9-20.1,6.2C7,14.4,0,29,0,43.4.4,29.4,7.3,15.5,19.4,7.5c6.4-4.3,13.4-6.3,20.1-6.2,8.6.1,16.9,3.6,23.1,10.1.3.3.6.8.6,1.3.5,2.5.7,5,.7,7.5,0,0,0,0,0,0,0-3-.1-6-.7-8.9,0-.5-.3-.9-.6-1.3C56.3,3.6,48.1.1,39.4,0Z"/>
    <path class="st13" d="M31.5,9.1c-3.2,0-6.4,1.1-9.2,3-6.2,4.1-10,11.9-9.7,20.1.1-7.8,3.8-14.9,9.7-18.8,9.3-6.1,21.1-2.5,26.5,8.1,0,0,0,0,0,0,1.6,3.1,2.5,6.6,2.6,10.2,0-4-.8-8-2.6-11.5-3.5-7-10.2-11.3-17.3-11.1Z"/>
  </g>
  <g class="st5">
    <path class="st12" d="M32.5,5.1c-8.4,0-11.9,3.5-13.2,15.1-.3,0-.7,0-1,0h-.5c-3.5,0-6.3,2.8-6.3,6.3v19.5c0,3.5,2.8,6.3,6.3,6.3h.5c.6,0,1.1,0,1.6-.2.7,3.5,1.4,6,1.4,6,0,0,.6,3.2,6.2,3.2s8-3,8-3v-3c0-1.4,1.3-1,2-1,1,0,1,3,1,3,0,0,1,.8,5.2.8s7-2.8,7-2.8c0,0,1.8-4.5,1.8-10s-.8-11.7-1.9-17.8c1.1-1.1,1.9-2.7,1.9-4.5v-.5c0-2.9-1.9-5.3-4.5-6-1.8-6-4-11.3-15.5-11.3Z"/>
    <rect class="st26" x="11.5" y="19.1" width="13" height="32" rx="6.3" ry="6.3"/>
    <path class="st14" d="M17.8,19.1c-3.5,0-6.3,2.8-6.3,6.3v1c0-3.5,2.8-6.3,6.3-6.3h.5c3.5,0,6.3,2.8,6.3,6.3v-1c0-3.5-2.8-6.3-6.3-6.3h-.5Z"/>
    <path class="st20" d="M18.5,39.1c0,8.3,2.8,17.8,2.8,17.8,0,0,.6,3.2,6.2,3.2s8-3,8-3v-3c0-1.4,1.3-1,2-1,1,0,1,3,1,3,0,0,1,.8,5.2.8s7-2.8,7-2.8c0,0,1.8-4.5,1.8-10,0-9.4-1.2-17.3-4-27-1.9-6.7-3.4-13-16-13s-14,7.2-14,35Z"/>
    <path class="st13" d="M32.5,4.1c-12,0-14,7.2-14,35s0,.1,0,.2c0-27.1,2.1-34.2,14-34.2s14.1,6.3,16,13c2.7,9.5,3.9,17.2,4,26.3,0-.1,0-.2,0-.3,0-9.4-1.2-17.3-4-27-1.9-6.7-3.4-13-16-13Z"/>
    <path class="st12" d="M34.8,16.1c-3.5,0-6.3,2.8-6.3,6.3v.5c0,3.5,2.8,6.3,6.3,6.3h11.5c1.8,0,3.4-.8,4.5-2-.5-3.2-1.3-6.5-2.3-10,0-.2-.1-.4-.2-.6-.6-.2-1.3-.4-2.1-.4h-11.5Z"/>
    <rect class="st10" x="28.5" y="15.1" width="24" height="13" rx="6.3" ry="6.3"/>
    <path class="st13" d="M34.8,15.1c-3.5,0-6.3,2.8-6.3,6.3v.5c0,0,0,.2,0,.3.1-3.3,2.9-6,6.2-6h11.5c3.4,0,6.1,2.7,6.2,6,0,0,0-.2,0-.3v-.5c0-3.5-2.8-6.3-6.3-6.3h-11.5Z"/>
  </g>
  <g class="st5">
    <path class="st2" d="M13.7,1.1h36.6c7.6,0,13.7,6.1,13.7,13.7v36.5c0,7.6-6.1,13.7-13.7,13.7H13.7c-7.6,0-13.7-6.1-13.7-13.7V14.8C0,7.3,6.1,1.1,13.7,1.1Z"/>
    <path class="st4" d="M13.7,0h36.6c7.6,0,13.7,6.1,13.7,13.7v36.5c0,7.6-6.1,13.7-13.7,13.7H13.7c-7.6,0-13.7-6.1-13.7-13.7V13.7C0,6.1,6.1,0,13.7,0Z"/>
    <path class="st11" d="M10.3,9.1v50.2h12.6V20.5h10.3v38.8h22.9v-11.4h-10.3V9.1H10.3Z"/>
    <path class="st7" d="M10.3,8v50.2h12.6V19.4h10.3v38.8h22.9v-11.4h-10.3V8H10.3Z"/>
    <path class="st6" d="M13.7,0C6.1,0,0,6.1,0,13.7v1.1C0,7.2,6.1,1.1,13.7,1.1h36.6c7.6,0,13.7,6.1,13.7,13.7v-1.1c0-7.6-6.1-13.7-13.7-13.7H13.7Z"/>
  </g>
  <g class="st5">
    <path class="st24" d="M28.4,57.4c-5.9-.6-10.1-2.1-13.1-4.9-1.2-1.1-2.1-2.2-2.8-3.5-1.5-2.7-1.9-5.7-1.2-8,.7-2.2,2.4-4.7,4.7-7,1.3-1.3,1.9-2.1,2.5-3.2.7-1.3.8-2.1.7-3.3,0-1.1-.3-1.6-1-2.1-.6-.5-.9-.8-2.9-.7-2,0-2.9,0-3.8-.4-.7-.3-1-.7-.8-1.1,1.2-.8,1.6-1.7,2.9-2.2-1.9-1.5-3.7-3-3.8-5.2.1-1.2,1.3-.9,1.3-.9,1.9.3,3.8.7,5.5.7.5,0,1-.2,1.2-.3s.5-.6.9-1.2c1.3-2.1,2.7-3.5,4.3-4.2,1.8-.8,4.3-1.3,6.8-1.2,2.9.1,5.4,1,7.4,2.8,1.4,1.2,2.3,1.5,3.6,1.2.9-.2.9-.2.9,0s-.3.8-.8,1.1l-.4.3.4.2c.6.3.5.6-.2.7-.6,0-1,.3-1,.4s0,.6.2,1.1c.3,1.3.2,4-.2,5.2-.5,2-1.4,3.4-2.7,4.7-1.1.9-4.1,2.7-4.4,2.9.1,0,1.3,0,2.1,0,2.9.2,4.9.7,7.8,1.9,2.7,1.2,3.9,1.3,5.4.6,1-.4,2.3-1.4,3.4-2.7.9-1.1,1.4-1.5,2.2-1.5s1.4.5,2,1.3c.9,1.2,1.3,2.1,1.7,4.1.2,1.5.2,5-.1,6.5-1.8,8.9-8,14.9-17.4,16.8-2.6.5-3.6.6-7.1.7-1.8,0-3.5,0-3.8,0h0Z"/>
    <path class="st13" d="M28.7,8.9c-2.1,0-4.3.5-5.8,1.2-1.6.7-3,2.1-4.3,4.2-.3.5-.7,1.1-.9,1.2s-.7.2-1.2.3c-1.7,0-3.7-.4-5.5-.7,0,0-1.2-.3-1.3.9,0,.2,0,.4,0,.6.3-.8,1.2-.6,1.2-.6,1.9.3,3.8.7,5.5.7.5,0,1-.2,1.2-.3s.5-.6.9-1.2c1.3-2.1,2.7-3.5,4.3-4.2,1.8-.8,4.3-1.3,6.8-1.2,2.9.1,5.4,1,7.4,2.8,1.4,1.2,2.3,1.5,3.6,1.2.4,0,.5-.1.6-.1.2-.2.3-.5.3-.7s0-.3-.9,0c-1.3.3-2.2,0-3.6-1.2-2-1.7-4.5-2.6-7.4-2.8-.3,0-.6,0-.9,0ZM41,14.7c0,0-.1.1-.2.2l-.4.3h.1c0,0,0,0,.1,0,.6,0,.7-.3.4-.5ZM39.7,16.4c0,0-.1,0-.1.1s0,.6.2,1.1c0,.5.1,1.1.1,1.8,0-1,0-2-.1-2.7,0-.2,0-.2,0-.4ZM12.8,21.4c-.8.5-1.2,1.2-2.2,1.8-.1.2,0,.5.2.7,1-.8,1.5-1.6,2.7-2-.2-.2-.4-.4-.7-.6ZM53.2,28c-.8,0-1.3.5-2.2,1.5-1,1.3-2.4,2.2-3.4,2.7-1.5.7-2.7.6-5.4-.6-2.9-1.2-4.9-1.7-7.8-1.9-.2,0-.4,0-.7,0-.6.4-1.3.8-1.4.9.1,0,1.3,0,2.1,0,2.9.2,4.9.7,7.8,1.9,2.7,1.2,3.9,1.3,5.4.6,1-.4,2.3-1.4,3.4-2.7.9-1.1,1.4-1.5,2.2-1.5s1.4.5,2,1.3c.9,1.2,1.3,2.1,1.7,4.1,0,.6.1,1.5.1,2.5,0-1.3,0-2.6-.1-3.4-.3-2.1-.8-2.9-1.7-4.1-.6-.8-1.2-1.3-2-1.3ZM19.2,28.5c0,.8-.2,1.5-.7,2.4-.6,1-1.2,1.9-2.5,3.2-2.3,2.3-3.9,4.8-4.7,7-.3.8-.4,1.7-.3,2.7,0-.6.1-1.3.3-1.8.7-2.2,2.4-4.7,4.7-7,1.3-1.3,1.9-2.1,2.5-3.2.7-1.2.8-2.1.7-3.2Z"/>
    <path class="st12" d="M41.4,13.6s-.1,0-.2,0c-.1.2-.3.3-.5.5l-.4.3.4.2c0,0,.1,0,.2.1.3-.3.6-.7.6-1s0-.2-.1-.2h0ZM40.5,15.3c-.5,0-.9.2-.9.4s0,.4.1.7c.2-.1.5-.2.9-.3.7,0,.8-.4.2-.7l-.3-.2ZM9.8,16.4c0,0,0,.2,0,.3,0,1.9,1.5,3.3,3.1,4.6.2-.1.4-.2.7-.3-1.7-1.3-3.4-2.7-3.7-4.6h0ZM39.9,19.5c0,1-.1,1.9-.3,2.5-.5,2-1.4,3.4-2.7,4.7-1.1.9-4.1,2.7-4.4,2.9,0,0,.8,0,1.4,0,1.1-.7,2.3-1.5,3-2,1.4-1.3,2.2-2.7,2.7-4.7.2-.8.3-2.2.3-3.4h0ZM10.8,23.9c0,0-.1.1-.2.2-.2.4,0,.7.8,1.1.9.4,1.9.5,3.8.4,2,0,2.3.2,2.9.7.7.5,1,1,1,2.2,0,0,0,0,0,0,0-.3,0-.6,0-.9,0-1.1-.3-1.6-1-2.1-.6-.5-.9-.8-2.9-.7-2,0-2.9,0-3.8-.4-.3-.1-.4-.2-.6-.4h0ZM57,36.8c0,1.2-.1,2.4-.3,3.1-1.8,8.9-8,14.9-17.4,16.8-2.6.5-3.6.6-7.1.7-1.8,0-3.6,0-3.8,0h0c-5.9-.6-10.1-2.1-13.1-4.9-1.2-1.1-2.1-2.2-2.8-3.5-.9-1.7-1.4-3.5-1.5-5.2,0,1.9.5,4.1,1.5,6,.7,1.3,1.5,2.3,2.8,3.5,3.1,2.8,7.2,4.4,13.1,4.9.3,0,2,0,3.8,0,3.5,0,4.6-.1,7.1-.7,9.5-1.9,15.7-7.9,17.4-16.8.2-.9.3-2.5.3-4h0Z"/>
  </g>
  <g class="st5">
    <path class="st2" d="M0,59.7v2.3C0,63.7,1.4,65.2,3.2,65.2h57.6c1.8,0,3.2-1.4,3.2-3.2v-2.3c0,1.8-1.4,3.2-3.2,3.2H3.2C1.4,62.9,0,61.5,0,59.7H0Z"/>
    <path class="st1" d="M3.2,0h57.6c1.8,0,3.2,1.4,3.2,3.2v57.6c0,1.8-1.4,3.2-3.2,3.2H3.2c-1.8,0-3.2-1.4-3.2-3.2V3.2C0,1.4,1.4,0,3.2,0Z"/>
    <path class="st12" d="M10,24c-1.8,0-3.2,1.3-3.2,3v7.8c0,1.7,1.4,3,3.2,3h7.4c1.8,0,3.2-1.3,3.2-3v-7.8c0-1.7-1.4-3-3.2-3h-7.4ZM30.6,24c-1.8,0-3.2,1.3-3.2,3v7.8c0,1.7,1.4,3,3.2,3h7.4c1.8,0,3.2-1.3,3.2-3v-7.8c0-1.7-1.4-3-3.2-3h-7.4ZM10,44.6c-1.8,0-3.2,1.3-3.2,3v7.8c0,1.7,1.4,3,3.2,3h7.4c1.8,0,3.2-1.3,3.2-3v-7.8c0-1.7-1.4-3-3.2-3h-7.4ZM30.6,44.6c-1.8,0-3.2,1.3-3.2,3v7.8c0,1.7,1.4,3,3.2,3h7.4c1.8,0,3.2-1.3,3.2-3v-7.8c0-1.7-1.4-3-3.2-3h-7.4Z"/>
    <path class="st3" d="M3.2,0C1.4,0,0,1.4,0,3.2v1.1C0,2.6,1.4,1.1,3.2,1.1h57.6c1.8,0,3.2,1.4,3.2,3.2v-1.1c0-1.8-1.4-3.2-3.2-3.2H3.2Z"/>
    <g>
      <path class="st20" d="M10,43.4h7.4c1.8,0,3.2,1.3,3.2,3v7.8c0,1.6-1.4,3-3.2,3h-7.4c-1.8,0-3.2-1.3-3.2-3v-7.8c0-1.6,1.4-3,3.2-3Z"/>
      <path class="st20" d="M10,22.9h7.4c1.8,0,3.2,1.3,3.2,3v7.8c0,1.6-1.4,3-3.2,3h-7.4c-1.8,0-3.2-1.3-3.2-3v-7.8c0-1.6,1.4-3,3.2-3Z"/>
      <path class="st20" d="M30.6,43.4h7.4c1.8,0,3.2,1.3,3.2,3v7.8c0,1.6-1.4,3-3.2,3h-7.4c-1.8,0-3.2-1.3-3.2-3v-7.8c0-1.6,1.4-3,3.2-3Z"/>
      <path class="st20" d="M30.6,22.9h7.4c1.8,0,3.2,1.3,3.2,3v7.8c0,1.6-1.4,3-3.2,3h-7.4c-1.8,0-3.2-1.3-3.2-3v-7.8c0-1.6,1.4-3,3.2-3Z"/>
    </g>
  </g>
  <g>
    <rect class="st12" x="5.7" y="6.6" width="51.6" height="51.6" rx="3.9" ry="3.9" transform="translate(-4.7 5.4) rotate(-9.1)"/>
    <rect class="st23" x="6.3" y="6.2" width="50.4" height="50.4" rx="3.8" ry="3.8" transform="translate(-4.6 5.4) rotate(-9.1)"/>
    <path class="st19" d="M7.9,47l1.6,10.2c.3,2.1,2.3,3.5,4.4,3.2l43.3-7c2.1-.3,3.5-2.3,3.2-4.4l-1.6-10.2L7.9,47Z"/>
    <path class="st22" d="M5.7,9.4c-2.1.3-3.5,2.3-3.2,4.4l.8,5.2,50.9-8.2-.8-5.2c-.3-2.1-2.3-3.5-4.4-3.2L5.7,9.4Z"/>
    <path class="st18" d="M13.8,53.2l8.6-1.4"/>
    <path class="st9" d="M5.6,33l2.2,14,50.9-8.2-2.2-14L5.6,33Z"/>
    <path class="st18" d="M11.5,39.3l19.8-3.2"/>
    <path class="st23" d="M3.4,19.1l2.2,14,50.9-8.2-2.2-14L3.4,19.1Z"/>
    <path class="st18" d="M9.3,25.3l30.6-4.9"/>
    <path class="st17" d="M22.1,51.9l33.1-5.3"/>
    <path class="st17" d="M31.1,36.1l21.8-3.5"/>
    <path class="st17" d="M39.8,20.4l10.9-1.7"/>
    <path class="st12" d="M14.2,11.9c0,0-.1,0-.2,0-1,.2-1.7,1.1-1.5,2.1.2,1,1.1,1.7,2.1,1.6,1-.2,1.7-1.1,1.6-2.1-.2-.9-1-1.6-2-1.6ZM8.2,12.9c0,0-.1,0-.2,0-1,.2-1.7,1.1-1.6,2.1.2,1,1.1,1.7,2.1,1.6,1-.2,1.7-1.1,1.6-2.1-.2-.9-1-1.6-2-1.6ZM39.9,17.7c-.2,0-.5,0-.7,0-2,.3-3.4,2.2-3.1,4.3.3,2,2.2,3.4,4.3,3.1,0,0,0,0,0,0,2-.3,3.4-2.2,3.1-4.3-.3-1.7-1.7-3.1-3.5-3.1ZM31.4,33.4c-.2,0-.5,0-.7,0-2,.3-3.4,2.2-3.1,4.3h0c.3,2,2.2,3.4,4.3,3.1,0,0,0,0,0,0,2-.3,3.4-2.2,3.1-4.3,0,0,0,0,0,0-.3-1.7-1.8-3-3.5-3.1h0ZM22.4,49.2c-.2,0-.5,0-.7,0-2,.3-3.4,2.2-3.1,4.3h0c.3,2,2.2,3.4,4.3,3.1,0,0,0,0,0,0,2-.3,3.4-2.2,3.1-4.3,0,0,0,0,0,0-.3-1.7-1.8-3.1-3.5-3.1Z"/>
    <circle class="st15" cx="31.3" cy="36.1" r="3.7"/>
    <circle class="st0" cx="31.3" cy="36.1" r="1.7"/>
    <circle class="st15" cx="39.8" cy="20.4" r="3.7"/>
    <circle class="st0" cx="39.8" cy="20.4" r="1.7"/>
    <circle class="st15" cx="22.2" cy="51.9" r="3.7"/>
    <circle class="st0" cx="22.2" cy="51.9" r="1.7"/>
    <circle class="st15" cx="8.3" cy="13.8" r="1.9"/>
    <circle class="st15" cx="14.3" cy="12.8" r="1.9"/>
    <path class="st13" d="M49.8,2.4c-.3,0-.5,0-.8,0L5.7,9.4c-2.1.3-3.5,2.3-3.2,4.4.2-1.7,1.5-3.1,3.2-3.4L49,3.5c.3,0,.5,0,.8,0,1.8,0,3.4,1.4,3.6,3.3l7,43.3s0,0,0,0c0-.4,0-.7,0-1.1l-7-43.3c-.3-1.9-1.8-3.2-3.6-3.3Z"/>
    <circle class="st12" cx="49.5" cy="48.4" r="13"/>
    <circle class="st21" cx="49.5" cy="47.4" r="13"/>
    <path class="st15" d="M49.5,37.2l-6.6,17.3h3.1l1.1-2.9h4.8l1.1,2.9h3.1l-6.6-17.3ZM49.5,45.2l1.3,3.4h-2.6l1.3-3.4Z"/>
  </g>
</svg>