<?xml version="1.0" encoding="UTF-8"?>
<svg id="_图层_1" xmlns="http://www.w3.org/2000/svg" version="1.1" viewBox="0 0 64 64" width="64" height="64">
  <!-- Generator: Adobe Illustrator 29.0.1, SVG Export Plug-In . SVG Version: 2.1.0 Build 192)  -->
  <defs>
    <style>
      .st0 {
        fill: #ff8080;
      }

      .st1, .st2, .st3, .st4 {
        display: none;
      }

      .st1, .st5, .st6, .st4 {
        opacity: .2;
      }

      .st1, .st5, .st6, .st4, .st7 {
        isolation: isolate;
      }

      .st8 {
        fill: #3f3f3f;
      }

      .st9, .st6, .st4, .st7 {
        fill: #fff;
      }

      .st2, .st10 {
        fill: #ff8a18;
      }

      .st11 {
        fill: none;
        stroke: #302100;
        stroke-linecap: round;
        stroke-linejoin: round;
        stroke-width: .6px;
      }

      .st12 {
        fill: #0088d1;
      }

      .st13 {
        fill: #d3aa7b;
      }

      .st14 {
        fill: #4a2803;
      }

      .st15 {
        fill: #302100;
      }

      .st16 {
        fill: #723f05;
      }

      .st17 {
        fill: #e4e4e4;
      }

      .st18 {
        fill: #debf9c;
      }

      .st7 {
        opacity: .1;
      }
    </style>
  </defs>
  <path class="st10" d="M50.4,64H13.8c-7.6,0-13.8-6.2-13.8-13.7V13.7C0,6.2,6.2,0,13.7,0h36.6c7.5,0,13.7,6.2,13.7,13.7v36.6c0,7.5-6.2,13.7-13.7,13.7h.1Z"/>
  <g class="st3">
    <path class="st12" d="M26.3,4.5c-.5,0-.9,0-1.4.1h0c-1.8.5-3.2,1.9-3.6,3.7l-2.6,12.8-12.3,5.2c-1.9.8-2.9,2.4-3,4.1,0,1.7.7,3.4,2.5,4.4l11.7,6.4,1.2,13c.4,4,5.2,5.8,8.2,3.1l9.8-8.8,13,2.9c4.1.9,7.3-3,5.6-6.6l-5.6-11.9,6.9-11.2c1-1.7.9-3.6-.1-5-1-1.4-2.6-2.4-4.7-2.1l-13.3,1.5-8.8-9.8c-.9-1-2.2-1.6-3.6-1.6Z"/>
    <path class="st5" d="M25.9,4.5c-.4,0-.8,0-1.2.2-2.2.5-3.9,2.3-4.3,4.4l-2.5,12.3-11.8,5c-3,1.3-4.4,4.6-3.1,7.6.5,1.2,1.4,2.1,2.5,2.7l11.2,6.1,1.2,12.5c.3,3.2,3.2,5.5,6.4,5.2,1.3-.1,2.5-.6,3.5-1.5l9.5-8.5,12.5,2.8c3.2.7,6.3-1.2,7.1-4.4.3-1.2.1-2.5-.4-3.7l-5.4-11.4,6.6-10.8c1.7-2.7.7-6.3-2.1-7.9-1.1-.6-2.4-.9-3.7-.8l-12.8,1.5-8.5-9.4c-1.2-1.3-2.9-2-4.7-1.9ZM26.2,10.5h0s0,0,0,0c0,0,0,0,0,0ZM26.2,10.5l8.4,9.4c1.3,1.4,3.2,2.2,5.1,1.9l12.5-1.4-6.3,10.3c-1.1,1.7-1.2,3.9-.3,5.7l5.2,10.9-12.3-2.7c-1.9-.4-3.9.1-5.3,1.4l-9.4,8.4-1.2-12.2c-.2-2-1.3-3.7-3.1-4.7l-10.7-5.8,11.3-4.7c1.8-.8,3.2-2.4,3.6-4.3l2.5-12.1Z"/>
    <path class="st17" d="M25.9,3.5c-.4,0-.8,0-1.2.2-2.2.5-3.9,2.3-4.3,4.4l-2.5,12.3-11.8,5c-3,1.3-4.4,4.6-3.1,7.6.5,1.2,1.4,2.1,2.5,2.7l11.2,6.1,1.2,12.5c.3,3.2,3.2,5.5,6.4,5.2,1.3-.1,2.5-.6,3.5-1.5l9.5-8.5,12.5,2.8c3.2.7,6.3-1.2,7.1-4.4.3-1.2.1-2.5-.4-3.7l-5.4-11.4,6.6-10.8c1.7-2.7.7-6.3-2.1-7.9-1.1-.6-2.4-.9-3.7-.8l-12.8,1.5-8.5-9.4c-1.2-1.3-2.9-2-4.7-1.9ZM26.2,9.5h0s0,0,0,0c0,0,0,0,0,0ZM26.2,9.5l8.4,9.4c1.3,1.4,3.2,2.2,5.1,1.9l12.5-1.4-6.3,10.3c-1.1,1.7-1.2,3.9-.3,5.7l5.2,10.9-12.3-2.7c-1.9-.4-3.9.1-5.3,1.4l-9.4,8.4-1.2-12.2c-.2-2-1.3-3.7-3.1-4.7l-10.7-5.8,11.3-4.7c1.8-.8,3.2-2.4,3.6-4.3l2.5-12.1Z"/>
    <path class="st6" d="M25.9,3.5c-.4,0-.8,0-1.2.2-2.2.5-3.9,2.3-4.3,4.4l-2.5,12.3-11.8,5c-2.4,1-3.9,3.5-3.5,6.1,0-2.2,1.4-4.2,3.5-5.1l11.8-5,2.5-12.3c.4-2.2,2.1-3.9,4.3-4.4.4,0,.8-.2,1.2-.2,1.8,0,3.5.6,4.7,1.9l8.5,9.4,12.8-1.5c3.2-.4,6.2,1.9,6.5,5.1,0,0,0,0,0,.1.3-3.2-2.1-6-5.4-6.2-.4,0-.8,0-1.2,0l-12.8,1.5-8.5-9.4c-1.2-1.3-2.9-2-4.7-1.9ZM52.2,20.4h-.7c0,0-5.6,9.3-5.6,9.3-.6,1.1-.9,2.3-.8,3.5,0-.9.4-1.8.8-2.5l6.3-10.3ZM9.9,31.3l-1,.4,10.7,5.8c1.7,1,2.9,2.7,3.1,4.7l1.2,12.2,9.4-8.4c1.4-1.3,3.4-1.8,5.3-1.4l12.3,2.7-.5-1.1-11.8-2.6c-1.9-.4-3.9.1-5.3,1.4l-9.4,8.4-1.2-12.2c-.2-2-1.3-3.7-3.1-4.7l-9.7-5.3ZM51.3,33.4l-.3.4,5.4,11.4c.3.6.5,1.2.5,1.9,0-1,0-2-.5-2.9l-5.1-10.8Z"/>
  </g>
  <g class="st3">
    <g>
      <path class="st5" d="M16,59.1s21.7-3,28.7,0l2-3,3,1,2.6-23.8-11.1-17.5h-21l-8.4,24.5v14.9l4.2,3.9Z"/>
      <path class="st14" d="M16,58.1s21.7-3,28.7,0l2-3,3,1,2.6-23.8-11.1-17.5h-21l-8.4,24.5v14.9l4.2,3.9Z"/>
      <path class="st5" d="M45.4,40.3s0,3.5,4.2,3.5,2.3-3.5,2.3-3.5c0,0,1.9-3.5-2.3-3.5s-4.2,3.5-4.2,3.5Z"/>
      <path class="st13" d="M45.4,39.3s0,3.5,4.2,3.5,2.3-3.5,2.3-3.5c0,0,1.9-3.5-2.3-3.5s-4.2,3.5-4.2,3.5Z"/>
      <path class="st5" d="M31.7,51.1c-12.6,0-18.3-17.8-18.3-17.8,0,0,2.6-17.5,19.4-17.5s16.8,21,16.8,21c0,0-5.3,14.3-17.9,14.3Z"/>
      <path class="st18" d="M31.7,50.1c-12.6,0-18.3-17.8-18.3-17.8,0,0,2.6-17.5,19.4-17.5s16.8,21,16.8,21c0,0-5.3,14.3-17.9,14.3Z"/>
      <path class="st5" d="M32.7,5.1c-10.4,0-15,5.6-16.2,6.8-.4-1.8-1.8-3.8-5.8-3.8l4.4,5.2c-.4.5-.9.8-1.4,1.8h-4s1,1.1,2.7,1.6c-2.3,3.5-4.7,7.9-4.7,16.3,0,22.3,2,25.1,2,25.1l2,1v-3l5,6v-18s.2-4.8,7-1c-3.8-6.8-6-14-6-14,0,0,4-2,4-8,6,19,25.9,16,28,18,2.1,2.1,0,12,0,12,0,0-1.6,9.6.1,6.9,2.2-3.5,3.9-22.9,3.9-32.8,0-10-8.3-16-8.3-16,0,0-4.2-4-12.7-4Z"/>
      <path class="st16" d="M32.7,4.1c-10.4,0-15,5.6-16.2,6.8-.4-1.8-1.8-3.8-5.8-3.8l4.4,5.2c-.4.5-.9.8-1.4,1.8h-4s1,1.1,2.7,1.6c-2.3,3.5-4.7,7.9-4.7,16.3,0,22.3,2,25.1,2,25.1l2,1v-3l5,6v-18s.2-4.8,7-1c-3.8-6.8-6-14-6-14,0,0,4-2,4-8,6,19,25.9,16,28,18,2.1,2.1,0,12,0,12,0,0-1.6,9.6.1,6.9,2.2-3.5,3.9-22.9,3.9-32.8,0-10-8.3-16-8.3-16,0,0-4.2-4-12.7-4Z"/>
      <path class="st15" d="M22.2,28.7c2.5-.7,3.5.3,3.5.3,0,0-1.3-.6-3,0-1.4.5-2.1,3-2.1,3,0,0,0-3,1.6-3.3Z"/>
      <path class="st11" d="M31.7,46.1s1.8-.8,3.4-.9c.9,0,1.6.4,1.6.4"/>
      <path class="st11" d="M32.1,41.9s.7,1,3.4,1,2.3-2.4,2.3-2.4"/>
      <path class="st0" d="M49.4,32.1l-1.5,5.4c.9.2,1.5.3,1.8.6l-.3-6Z"/>
      <path class="st15" d="M25.7,32.1c-1.7,0-3,1.8-3,4s1.3,4,3,4,3-1.8,3-4-1.2-4-3-4ZM25.7,33.1c1,0,2,1.3,2,3,0,1.7-1,3-2,3-1,0-2-1.3-2-3,0-1.7,1-3,2-3Z"/>
      <circle class="st5" cx="16.7" cy="39.1" r="4"/>
      <circle class="st18" cx="16.7" cy="38.1" r="4"/>
      <path class="st7" d="M32.7,4.1c-10.4,0-15,5.6-16.2,6.8-.4-1.8-1.8-3.8-5.8-3.8l.9,1.1c3.3.3,4.6,2.1,4.9,3.7,1.2-1.2,5.8-6.8,16.2-6.8,8.5,0,12.7,4,12.7,4,0,0,8.2,5.9,8.3,15.8,0-.2,0-.5,0-.7,0-10-8.3-16-8.3-16,0,0-4.2-4-12.7-4ZM14.6,12.7c-.3.3-.6.7-.9,1.4h-4s.5.5,1.4,1h2.6c.5-1,.9-1.4,1.4-1.8,0,0-.4-.5-.4-.5ZM11.9,16.5c-2.1,3.4-4.2,7.7-4.2,15.5s0,.4,0,.6c0-8.2,2.5-12.5,4.7-15.9-.2,0-.4-.1-.5-.2ZM18,28.9c0,0-.3.2-.3.2,0,0,1.9,6.3,5.3,12.6.2.1.5.2.7.4-3.2-5.7-5.1-11.3-5.7-13.2ZM50.6,42.7c0,3.4-.9,7.4-.9,7.4,0,0-.7,4.5-.6,6.5.1-2.2.6-5.5.6-5.5,0,0,1-4.8.9-8.4Z"/>
    </g>
  </g>
  <g>
    <ellipse class="st1" cx="31.9" cy="33.1" rx="31.9" ry="32"/>
    <ellipse class="st2" cx="31.9" cy="31.9" rx="31.9" ry="32"/>
    <ellipse class="st5" cx="31.9" cy="33.1" rx="22.8" ry="22.9"/>
    <ellipse class="st9" cx="31.9" cy="31.9" rx="22.8" ry="22.9"/>
    <path class="st4" d="M31.9,0C14.3,0,0,14.3,0,31.9c0,.2,0,.4,0,.6C.3,15.1,14.5,1.1,31.9,1.1c17.4,0,31.5,14,31.8,31.4,0-.2,0-.4,0-.6C63.7,14.3,49.5,0,31.9,0Z"/>
    <path class="st8" d="M26.7,14.2l-4.8,4.8,12.9,12.9-12.9,12.9,4.8,4.8,12.9-12.9,4.8-4.8-4.8-4.8-12.9-12.9Z"/>
  </g>
</svg>