<?xml version="1.0" encoding="UTF-8"?>
<svg id="_图层_1" xmlns="http://www.w3.org/2000/svg" version="1.1" xmlns:xlink="http://www.w3.org/1999/xlink" viewBox="0 0 64 64" width="64" height="64">
  <!-- Generator: Adobe Illustrator 29.0.1, SVG Export Plug-In . SVG Version: 2.1.0 Build 192)  -->
  <defs>
    <style>
      .st0 {
        fill: url(#_未命名的渐变_212);
      }

      .st1 {
        fill: url(#_未命名的渐变_213);
      }

      .st2, .st3, .st4 {
        fill: #fff;
      }

      .st3, .st5 {
        display: none;
      }

      .st6 {
        fill: url(#_未命名的渐变_211);
      }

      .st7 {
        opacity: .2;
      }

      .st7, .st4 {
        isolation: isolate;
      }

      .st8 {
        fill: #455a64;
      }

      .st9 {
        fill: url(#_未命名的渐变_21);
      }

      .st4 {
        opacity: .1;
      }
    </style>
    <linearGradient id="_未命名的渐变_21" data-name="未命名的渐变 21" x1="32" y1="0" x2="32" y2="64" gradientUnits="userSpaceOnUse">
      <stop offset="0" stop-color="#6dff6a"/>
      <stop offset="1" stop-color="#00bf07"/>
    </linearGradient>
    <linearGradient id="_未命名的渐变_211" data-name="未命名的渐变 21" x1="32" y1="0" x2="32" y2="64" xlink:href="#_未命名的渐变_21"/>
    <linearGradient id="_未命名的渐变_212" data-name="未命名的渐变 21" x1="31.9" y1="0" x2="31.9" y2="64" xlink:href="#_未命名的渐变_21"/>
    <linearGradient id="_未命名的渐变_213" data-name="未命名的渐变 21" x1="32" y1="22.4" x2="32" y2="41.4" xlink:href="#_未命名的渐变_21"/>
  </defs>
  <path class="st3" d="M50.3,64H13.8C6.2,64,0,57.8,0,50.3V13.8C0,6.2,6.2,0,13.8,0h36.6c7.5,0,13.7,6.2,13.7,13.7v36.5c0,7.5-6.2,13.7-13.7,13.7h0Z"/>
  <g class="st5">
    <path class="st9" d="M4.1,59.9c-.7-1,0,1.3-2.6-3.3-.6-1.5-1.5-4.7-1.4-6.3V13.5c0-2.9,2.1-8.3,4.5-9.8C6.7,1.7,10.9,0,13.8,0h36.6c2.9,0,7.6,1.5,9.2,3.7,2.4,2.1,4.4,6.1,4.4,9.8v36.8c0,1.6-.9,5.2-1.6,6.5-.6,1.4-1.3,2-2.4,3.1-2,2.3-6.8,4.1-9.7,4.1H13.8c-2.9,0-6.5-1.1-8.5-3.2l-1.2-.9ZM32,26.6c3.3,0,6.4-1.3,8.7-3.6,2.3-2.3,3.6-5.5,3.6-8.8,0-1.3-1.1-2.4-2.4-2.4-1.3,0-2.4,1.1-2.4,2.4,0,2-.8,3.9-2.2,5.4-1.4,1.4-3.3,2.2-5.4,2.2-2,0-3.9-.8-5.4-2.2-1.4-1.4-2.2-3.4-2.2-5.4,0-1.3-1.1-2.4-2.5-2.3-1.3,0-2.3,1.1-2.3,2.3,0,6.9,5.6,12.4,12.4,12.4ZM24,43.7c0,2,1.7,3.7,3.7,3.7h3.7v-3.7c0-2-1.7-3.7-3.7-3.7h0c-2,0-3.7,1.7-3.7,3.7ZM36.3,40c-2,0-3.7,1.6-3.7,3.7h0v3.7h3.7c2,0,3.7-1.7,3.7-3.7s-1.7-3.7-3.7-3.7ZM27.7,56c2,0,3.7-1.6,3.7-3.7v-3.7h-3.7c-2,0-3.7,1.6-3.7,3.7s1.7,3.7,3.7,3.7ZM40,52.3c0-2-1.7-3.7-3.7-3.7h-3.7v3.7h0c0,2,1.7,3.7,3.7,3.7s3.7-1.7,3.7-3.7Z"/>
  </g>
  <g class="st5">
    <path class="st7" d="M37.5,9.4c-2.5-.7-5.1.8-5.8,3.3-.4,1.3-1.2,1.9-3.1,2.5-2.4.8-3.9,1-5.2-.3-1.8-1.8-4.8-1.8-6.7,0l-1.7,1.7c-1.8,1.8-1.8,4.8,0,6.7.9.9.8,2.6.4,4.6-.5,2.5-.7,3.2-2.7,3.8-2.5.7-4,3.2-3.3,5.8l.6,2.3c.7,2.5,3.2,4,5.8,3.3,1.7-.5,2.6.4,4,1.8,1.9,1.8,2.5,2.7,2.1,4.3-.7,2.5.8,5.1,3.3,5.8l1.1.3,1.1.3c2.5.7,5.1-.8,5.8-3.3.4-1.7,1.4-2.1,4-2.7,1.9-.5,3.1-.8,4.4.5,1.8,1.8,4.8,1.8,6.7,0l1.7-1.7c1.8-1.8,1.8-4.8,0-6.7-1.4-1.4-1.2-2.2-.4-4.6.6-1.9,1.4-3.4,2.7-3.8,2.5-.7,4-3.2,3.3-5.8l-.6-2.3c-.7-2.5-3.2-4-5.8-3.3-1.8.5-3-.5-4.7-2.4-1.3-1.5-1.8-2.4-1.4-3.7.7-2.5-.8-5.1-3.3-5.8l-1.1-.3-1.1-.3Z"/>
    <path class="st8" d="M37.5,8.6c-2.5-.7-5.1.8-5.8,3.3-.4,1.3-1.2,1.9-3.1,2.5-2.4.8-3.9,1-5.2-.3-1.8-1.8-4.8-1.8-6.7,0l-1.7,1.7c-1.8,1.8-1.8,4.8,0,6.7.9.9.8,2.6.4,4.6-.5,2.5-.7,3.2-2.7,3.8-2.5.7-4,3.2-3.3,5.8l.6,2.3c.7,2.5,3.2,4,5.8,3.3,1.7-.5,2.6.4,4,1.8,1.9,1.8,2.5,2.7,2.1,4.3-.7,2.5.8,5.1,3.3,5.8l1.1.3,1.1.3c2.5.7,5.1-.8,5.8-3.3.4-1.7,1.4-2.1,4-2.7,1.9-.5,3.1-.8,4.4.5,1.8,1.8,4.8,1.8,6.7,0l1.7-1.7c1.8-1.8,1.8-4.8,0-6.7-1.4-1.4-1.2-2.2-.4-4.6.6-1.9,1.4-3.4,2.7-3.8,2.5-.7,4-3.2,3.3-5.8l-.6-2.3c-.7-2.5-3.2-4-5.8-3.3-1.8.5-3-.5-4.7-2.4-1.3-1.5-1.8-2.4-1.4-3.7.7-2.5-.8-5.1-3.3-5.8l-1.1-.3-1.1-.3Z"/>
    <path class="st7" d="M32.5,23.3c5,0,9.1,4.1,9.1,9.1s-4.1,9.1-9.1,9.1-9.1-4.1-9.1-9.1,4.1-9.1,9.1-9.1Z"/>
    <path class="st2" d="M32.5,22.5c5,0,9.1,4.1,9.1,9.1s-4.1,9.1-9.1,9.1-9.1-4.1-9.1-9.1,4.1-9.1,9.1-9.1Z"/>
    <path class="st4" d="M36,8.4c-2,0-3.8,1.4-4.4,3.5-.4,1.3-1.2,1.9-3.1,2.5-2.4.8-3.9,1-5.2-.3-1.8-1.8-4.8-1.8-6.7,0l-1.7,1.7c-1,1-1.5,2.4-1.4,3.7,0-1.1.5-2.1,1.4-2.9l1.7-1.7c1.8-1.8,4.8-1.8,6.7,0,1.3,1.3,2.9,1.1,5.2.3,1.9-.6,2.8-1.2,3.1-2.5.7-2.5,3.2-4,5.8-3.3l1.1.3,1.1.3c2,.5,3.3,2.2,3.5,4.1.2-2.2-1.2-4.4-3.5-5l-1.1-.3-1.1-.3c-.5-.1-.9-.2-1.4-.2ZM43,16.2c-.2,1.1.3,2,1.5,3.4,1.6,1.9,2.9,2.8,4.7,2.4,2.5-.7,5.1.8,5.8,3.3l.6,2.3c0,.3.1.5.1.8,0-.5,0-1.1-.1-1.6l-.6-2.3c-.7-2.5-3.2-4-5.8-3.3-1.8.5-3-.5-4.7-2.4-.9-1-1.4-1.7-1.5-2.5ZM15.7,25.1c0,.6-.1,1.2-.3,1.9-.5,2.5-.7,3.2-2.7,3.8-2.2.6-3.7,2.7-3.5,5,.2-1.9,1.5-3.6,3.5-4.1,2-.5,2.1-1.3,2.7-3.8.2-1,.3-1.9.3-2.8ZM49,39.1c-.1.9,0,1.6,1,2.5.8.8,1.3,1.9,1.4,2.9.1-1.3-.3-2.7-1.4-3.8-.6-.6-.9-1.1-1-1.7ZM22,47.8c0,.2,0,.3,0,.5-.1.5-.2,1.1-.1,1.6,0-.3,0-.5.1-.8.1-.5.2-.9,0-1.3Z"/>
  </g>
  <g class="st5">
    <path class="st6" d="M35.1,51.2c-.4-.4-.9-.6-1.4-.5-.5,0-1,.2-1.4.6-.4.4-.5,1-.5,1.5,0,1,.8,1.9,1.8,1.9,0,0,0,0,.1,0,.5,0,1-.2,1.4-.6.4-.4.5-.9.5-1.4,0-.5-.2-1-.6-1.4ZM35.1,51.2c-.4-.4-.9-.6-1.4-.5-.5,0-1,.2-1.4.6-.4.4-.5,1-.5,1.5,0,1,.8,1.9,1.8,1.9,0,0,0,0,.1,0,.5,0,1-.2,1.4-.6.4-.4.5-.9.5-1.4,0-.5-.2-1-.6-1.4ZM35.1,51.2c-.4-.4-.9-.6-1.4-.5-.5,0-1,.2-1.4.6-.4.4-.5,1-.5,1.5,0,1,.8,1.9,1.8,1.9,0,0,0,0,.1,0,.5,0,1-.2,1.4-.6.4-.4.5-.9.5-1.4,0-.5-.2-1-.6-1.4ZM41.3,51.3c-.3-.3-.8-.5-1.2-.5-.5,0-1,.2-1.5.5v2.8c.4.3.9.4,1.4.4.5,0,1-.2,1.3-.5.3-.4.5-.8.5-1.3,0-.5-.1-1.1-.5-1.5h0ZM41.3,51.3c-.3-.3-.8-.5-1.2-.5-.5,0-1,.2-1.5.5v2.8c.4.3.9.4,1.4.4.5,0,1-.2,1.3-.5.3-.4.5-.8.5-1.3,0-.5-.1-1.1-.5-1.5h0ZM35.1,51.2c-.4-.4-.9-.6-1.4-.5-.5,0-1,.2-1.4.6-.4.4-.5,1-.5,1.5,0,1,.8,1.9,1.8,1.9,0,0,0,0,.1,0,.5,0,1-.2,1.4-.6.4-.4.5-.9.5-1.4,0-.5-.2-1-.6-1.4ZM35.1,51.2c-.4-.4-.9-.6-1.4-.5-.5,0-1,.2-1.4.6-.4.4-.5,1-.5,1.5,0,1,.8,1.9,1.8,1.9,0,0,0,0,.1,0,.5,0,1-.2,1.4-.6.4-.4.5-.9.5-1.4,0-.5-.2-1-.6-1.4ZM41.3,51.3c-.3-.3-.8-.5-1.2-.5-.5,0-1,.2-1.5.5v2.8c.4.3.9.4,1.4.4.5,0,1-.2,1.3-.5.3-.4.5-.8.5-1.3,0-.5-.1-1.1-.5-1.5h0ZM41.3,51.3c-.3-.3-.8-.5-1.2-.5-.5,0-1,.2-1.5.5v2.8c.4.3.9.4,1.4.4.5,0,1-.2,1.3-.5.3-.4.5-.8.5-1.3,0-.5-.1-1.1-.5-1.5h0ZM35.1,51.2c-.4-.4-.9-.6-1.4-.5-.5,0-1,.2-1.4.6-.4.4-.5,1-.5,1.5,0,1,.8,1.9,1.8,1.9,0,0,0,0,.1,0,.5,0,1-.2,1.4-.6.4-.4.5-.9.5-1.4,0-.5-.2-1-.6-1.4ZM35.1,51.2c-.4-.4-.9-.6-1.4-.5-.5,0-1,.2-1.4.6-.4.4-.5,1-.5,1.5,0,1,.8,1.9,1.8,1.9,0,0,0,0,.1,0,.5,0,1-.2,1.4-.6.4-.4.5-.9.5-1.4,0-.5-.2-1-.6-1.4ZM41.3,51.3c-.3-.3-.8-.5-1.2-.5-.5,0-1,.2-1.5.5v2.8c.4.3.9.4,1.4.4.5,0,1-.2,1.3-.5.3-.4.5-.8.5-1.3,0-.5-.1-1.1-.5-1.5h0ZM41.3,51.3c-.3-.3-.8-.5-1.2-.5-.5,0-1,.2-1.5.5v2.8c.4.3.9.4,1.4.4.5,0,1-.2,1.3-.5.3-.4.5-.8.5-1.3,0-.5-.1-1.1-.5-1.5h0ZM35.1,51.2c-.4-.4-.9-.6-1.4-.5-.5,0-1,.2-1.4.6-.4.4-.5,1-.5,1.5,0,1,.8,1.9,1.8,1.9,0,0,0,0,.1,0,.5,0,1-.2,1.4-.6.4-.4.5-.9.5-1.4,0-.5-.2-1-.6-1.4ZM35.1,51.2c-.4-.4-.9-.6-1.4-.5-.5,0-1,.2-1.4.6-.4.4-.5,1-.5,1.5,0,1,.8,1.9,1.8,1.9,0,0,0,0,.1,0,.5,0,1-.2,1.4-.6.4-.4.5-.9.5-1.4,0-.5-.2-1-.6-1.4ZM41.3,51.3c-.3-.3-.8-.5-1.2-.5-.5,0-1,.2-1.5.5v2.8c.4.3.9.4,1.4.4.5,0,1-.2,1.3-.5.3-.4.5-.8.5-1.3,0-.5-.1-1.1-.5-1.5h0ZM41.3,51.3c-.3-.3-.8-.5-1.2-.5-.5,0-1,.2-1.5.5v2.8c.4.3.9.4,1.4.4.5,0,1-.2,1.3-.5.3-.4.5-.8.5-1.3,0-.5-.1-1.1-.5-1.5h0ZM35.1,51.2c-.4-.4-.9-.6-1.4-.5-.5,0-1,.2-1.4.6-.4.4-.5,1-.5,1.5,0,1,.8,1.9,1.8,1.9,0,0,0,0,.1,0,.5,0,1-.2,1.4-.6.4-.4.5-.9.5-1.4,0-.5-.2-1-.6-1.4ZM50.7,0h-5.3v22.4c0,.5-.3,1-.7,1.2-.4.2-.9.2-1.4,0l-2.9-1.9-3.3,1.9c-.4.2-.9.2-1.3,0l-3.4-2-3.5,2c-.2.1-.4.2-.7.2-.2,0-.5,0-.7-.2l-3.4-2-3.7,2c-.7.3-1.5,0-1.8-.6-.1-.2-.2-.4-.2-.6V0h-5.3C6,0,0,6,0,13.3v37.3c0,7.4,6,13.3,13.3,13.3h37.3c7.4,0,13.3-6,13.3-13.3V13.3c0-7.4-6-13.3-13.3-13.3ZM12,31.6h15c.7,0,1.3.6,1.3,1.3,0,.7-.6,1.3-1.3,1.3h-15c-.7,0-1.3-.6-1.3-1.3,0-.7.6-1.3,1.3-1.3ZM12,40.7c-.7,0-1.3-.6-1.3-1.3,0-.7.6-1.3,1.3-1.3h10.5c.7,0,1.3.6,1.3,1.3,0,.7-.6,1.3-1.3,1.3h-10.5ZM22.7,51.8c.2.2.3.4.5.5.3.2.5.5.7.8.1.2.2.4.2.6,0,.4-.2.9-.6,1.1-.3.3-.8.5-1.2.5-.2,0-.3,0-.5-.1-.1,0-.2-.2-.2-.3,0-.2,0-.4.2-.5.2.1.5.2.7.2.2,0,.4,0,.6-.2.2-.1.2-.3.2-.5,0-.2,0-.3-.1-.4-.1-.2-.3-.3-.5-.5-.7-.5-1-1-1-1.4,0-.5.2-.9.6-1.2.4-.4,1-.6,1.5-.5.1,0,.3,0,.4.1,0,0,.1.1.1.2,0,.2,0,.4-.2.5-.2,0-.3-.1-.5-.1-.3,0-.5,0-.7.2-.2.1-.3.3-.3.5,0,.2,0,.3.1.4h0ZM29.1,55.2c-.1,0-.3,0-.3-.1,0-.2,0-.3,0-.5v-2c0-.5,0-1.1-.3-1.6-.2-.3-.5-.5-.9-.5-.5,0-1,.2-1.4.5v1.9c0,.4,0,.8,0,1.2,0,.3.1.5.2.7-.2.1-.5.2-.8.2-.1,0-.3,0-.3-.1,0-.2-.1-.4,0-.5,0-.3,0-.9,0-1.7s0-1.7,0-2.6c0-.6,0-1.1,0-1.7,0-.3,0-.5-.2-.7.2-.1.5-.2.7-.2.2,0,.3,0,.3.2,0,.2,0,.4,0,.5v.7c0,.3,0,.8,0,1.5.5-.4,1-.6,1.6-.6.3,0,.6,0,.9.1.2.1.5.3.6.5.1.2.3.4.3.7,0,.3,0,.6,0,.9v1.4c0,.5,0,1.1.2,1.5-.2.1-.5.2-.8.3h0ZM35.6,54.5c-.5.6-1.3.9-2,.8-.7,0-1.5-.2-2-.8-.5-.5-.8-1.2-.8-1.9,0-.8.3-1.5.8-2,.6-.5,1.3-.8,2.1-.8.7,0,1.4.2,1.9.7.5.5.8,1.2.8,1.9,0,.8-.3,1.5-.8,2.1h0ZM41.9,54.4c-.5.5-1.2.8-1.9.8-.5,0-1-.1-1.4-.4v.6c0,.6,0,1.3.3,1.9-.2.1-.5.2-.7.2,0,0-.2,0-.3,0,0,0,0-.1-.1-.2,0-.1,0-.3,0-.4v-4.5c0-.8,0-1.6-.3-2.3.2,0,.3,0,.5,0,.3,0,.5.2.6.6.5-.4,1.2-.6,1.8-.6.7,0,1.3.3,1.8.7.5.5.7,1.1.7,1.8,0,.7-.3,1.4-.8,2h0ZM40,50.6c-.5,0-1,.2-1.5.5v2.8c.4.3.9.4,1.4.4.5,0,1-.2,1.3-.5.3-.4.5-.8.5-1.3,0-.5-.1-1-.5-1.4-.3-.3-.8-.5-1.3-.5h0ZM33.7,50.6c-.5,0-1,.2-1.4.6-.4.4-.5,1-.5,1.5,0,1,.7,1.9,1.7,1.9,0,0,.1,0,.2,0,.5,0,1-.2,1.4-.6.4-.4.5-.9.5-1.4,0-.5-.2-1-.6-1.4-.3-.4-.8-.6-1.4-.6ZM35.1,51.1c-.4-.4-.9-.6-1.4-.5-.5,0-1,.2-1.4.6-.4.4-.5,1-.5,1.5,0,1,.7,1.9,1.7,1.9,0,0,.1,0,.2,0,.5,0,1-.2,1.4-.6.4-.4.5-.9.5-1.4,0-.5-.2-1-.6-1.4h0ZM41.3,51.2c-.3-.3-.8-.5-1.2-.5-.5,0-1,.2-1.5.5v2.8c.4.3.9.4,1.4.4.5,0,1-.2,1.3-.5.3-.4.5-.8.5-1.3,0-.5-.2-1-.5-1.4h0ZM41.3,51.2c-.3-.3-.8-.5-1.2-.5-.5,0-1,.2-1.5.5v2.8c.4.3.9.4,1.4.4.5,0,1-.2,1.3-.5.3-.4.5-.8.5-1.3,0-.5-.2-1-.5-1.4h0ZM35.1,51.1c-.4-.4-.9-.6-1.4-.5-.5,0-1,.2-1.4.6-.4.4-.5,1-.5,1.5,0,1,.7,1.9,1.7,1.9,0,0,.1,0,.2,0,.5,0,1-.2,1.4-.6.4-.4.5-.9.5-1.4,0-.5-.2-1-.6-1.4h0ZM35.1,51.1c-.4-.4-.9-.6-1.4-.5-.5,0-1,.2-1.4.6-.4.4-.5,1-.5,1.5,0,1,.7,1.9,1.7,1.9,0,0,.1,0,.2,0,.5,0,1-.2,1.4-.6.4-.4.5-.9.5-1.4,0-.5-.2-1-.6-1.4h0ZM41.3,51.2c-.3-.3-.8-.5-1.2-.5-.5,0-1,.2-1.5.5v2.8c.4.3.9.4,1.4.4.5,0,1-.2,1.3-.5.3-.4.5-.8.5-1.3,0-.5-.2-1-.5-1.4h0ZM41.3,51.2c-.3-.3-.8-.5-1.2-.5-.5,0-1,.2-1.5.5v2.8c.4.3.9.4,1.4.4.5,0,1-.2,1.3-.5.3-.4.5-.8.5-1.3,0-.5-.2-1-.5-1.4h0ZM35.1,51.1c-.4-.4-.9-.6-1.4-.5-.5,0-1,.2-1.4.6-.4.4-.5,1-.5,1.5,0,1,.7,1.9,1.7,1.9,0,0,.1,0,.2,0,.5,0,1-.2,1.4-.6.4-.4.5-.9.5-1.4,0-.5-.2-1-.6-1.4h0ZM35.1,51.1c-.4-.4-.9-.6-1.4-.5-.5,0-1,.2-1.4.6-.4.4-.5,1-.5,1.5,0,1,.7,1.9,1.7,1.9,0,0,.1,0,.2,0,.5,0,1-.2,1.4-.6.4-.4.5-.9.5-1.4,0-.5-.2-1-.6-1.4h0ZM41.3,51.2c-.3-.3-.8-.5-1.2-.5-.5,0-1,.2-1.5.5v2.8c.4.3.9.4,1.4.4.5,0,1-.2,1.3-.5.3-.4.5-.8.5-1.3,0-.5-.2-1-.5-1.4h0ZM41.3,51.2c-.3-.3-.8-.5-1.2-.5-.5,0-1,.2-1.5.5v2.8c.4.3.9.4,1.4.4.5,0,1-.2,1.3-.5.3-.4.5-.8.5-1.3,0-.5-.2-1-.5-1.4h0ZM35.1,51.1c-.4-.4-.9-.6-1.4-.5-.5,0-1,.2-1.4.6-.4.4-.5,1-.5,1.5,0,1,.7,1.9,1.7,1.9,0,0,.1,0,.2,0,.5,0,1-.2,1.4-.6.4-.4.5-.9.5-1.4,0-.5-.2-1-.6-1.4h0ZM35.1,51.1c-.4-.4-.9-.6-1.4-.5-.5,0-1,.2-1.4.6-.4.4-.5,1-.5,1.5,0,1,.7,1.9,1.7,1.9,0,0,.1,0,.2,0,.5,0,1-.2,1.4-.6.4-.4.5-.9.5-1.4,0-.5-.2-1-.6-1.4h0ZM41.3,51.2c-.3-.3-.8-.5-1.2-.5-.5,0-1,.2-1.5.5v2.8c.4.3.9.4,1.4.4.5,0,1-.2,1.3-.5.3-.4.5-.8.5-1.3,0-.5-.2-1-.5-1.4h0ZM41.3,51.2c-.3-.3-.8-.5-1.2-.5-.5,0-1,.2-1.5.5v2.8c.4.3.9.4,1.4.4.5,0,1-.2,1.3-.5.3-.4.5-.8.5-1.3,0-.5-.2-1-.5-1.4h0ZM35.1,51.1c-.4-.4-.9-.6-1.4-.5-.5,0-1,.2-1.4.6-.4.4-.5,1-.5,1.5,0,1,.7,1.9,1.7,1.9,0,0,.1,0,.2,0,.5,0,1-.2,1.4-.6.4-.4.5-.9.5-1.4,0-.5-.2-1-.6-1.4h0ZM21.2,0v20.2l2.5-1.2c.4-.2.9-.2,1.2,0l3.3,1.9,3.5-2c.4-.2.9-.2,1.3,0l3.4,1.9,3.3-1.9c.4-.3,1-.3,1.4,0l1.5,1V0h-21.5Z"/>
  </g>
  <g>
    <path class="st0" d="M48,0H15.9C7,0-.2,7.2-.2,16v32c0,8.8,7.2,16,16,16h32.1c8.8,0,16-7.2,16-16V16c0-8.8-7.2-16-16-16ZM60,48c0,6.6-5.4,12-12,12H15.9c-6.6,0-12-5.4-12-12V16c0-6.6,5.4-12,12-12h32.1c6.6,0,12,5.4,12,12v32Z"/>
    <path class="st1" d="M13.5,22.4l-7,19h4.6l1.4-4.2h7.2l1.4,4.2h4.8l-7.2-19s-5.2,0-5.2,0ZM13.3,34l2.2-6.4c.2-.6.4-1.2.4-1.8.2.6.2,1.2.4,1.6l2.6,6.6h-5.6ZM34.1,22.4h-7.8v19h4.4v-6.8h3.2c5,0,7.6-2,7.6-6.2-.4-3.8-2.8-5.8-7.4-6ZM33.3,31.4h-2.8v-5.6h2.8c2.2,0,3.4,1,3.4,2.8s-1.2,2.8-3.4,2.8ZM50.2,22.4h-7.8v19h4.4v-6.8h3.2c5,0,7.6-2,7.6-6.2-.2-3.8-2.6-5.8-7.4-6ZM49.6,31.4h-2.8v-5.6h2.8c2.2,0,3.4,1,3.4,2.8s-1.2,2.8-3.4,2.8Z"/>
  </g>
</svg>