<?xml version="1.0" encoding="UTF-8" standalone="no"?>
<svg
   id="_图层_1"
   version="1.1"
   viewBox="0 0 64 64" width="64" height="64"
   sodipodi:docname="aptana.svg"
   xml:space="preserve"
   inkscape:version="1.4 (e7c3feb100, 2024-10-09)"
   xmlns:inkscape="http://www.inkscape.org/namespaces/inkscape"
   xmlns:sodipodi="http://sodipodi.sourceforge.net/DTD/sodipodi-0.dtd"
   xmlns="http://www.w3.org/2000/svg"
   xmlns:svg="http://www.w3.org/2000/svg"><sodipodi:namedview
     id="namedview26"
     pagecolor="#505050"
     bordercolor="#eeeeee"
     borderopacity="1"
     inkscape:showpageshadow="0"
     inkscape:pageopacity="0"
     inkscape:pagecheckerboard="0"
     inkscape:deskcolor="#505050"
     inkscape:zoom="10.6875"
     inkscape:cx="44.25731"
     inkscape:cy="32"
     inkscape:window-width="1920"
     inkscape:window-height="939"
     inkscape:window-x="0"
     inkscape:window-y="34"
     inkscape:window-maximized="1"
     inkscape:current-layer="g26" /><!-- Generator: Adobe Illustrator 29.0.1, SVG Export Plug-In . SVG Version: 2.1.0 Build 192)  --><defs
     id="defs6"><inkscape:path-effect
       effect="fillet_chamfer"
       id="path-effect26"
       is_visible="true"
       lpeversion="1"
       nodesatellites_param="F,0,0,1,0,0,0,1 @ F,0,0,1,0,0,0,1 @ F,0,0,1,0,0,0,1 @ F,0,0,1,0,0,0,1 @ F,0,0,1,0,0,0,1 @ F,0,0,1,0,0,0,1"
       radius="0"
       unit="px"
       method="auto"
       mode="F"
       chamfer_steps="1"
       flexible="false"
       use_knot_distance="true"
       apply_no_radius="true"
       apply_with_radius="true"
       only_selected="false"
       hide_knots="false" /><style
       id="style1">
      .st0 {
        fill-opacity: .5;
      }

      .st0, .st1, .st2, .st3, .st4, .st5, .st6, .st7 {
        fill: #fff;
      }

      .st8 {
        fill: #133c9a;
      }

      .st2, .st9 {
        display: none;
      }

      .st3 {
        fill-opacity: .2;
      }

      .st4 {
        fill-opacity: .9;
      }

      .st10 {
        fill: #3370ff;
      }

      .st11 {
        fill: url(#_未命名的渐变_3);
      }

      .st12 {
        fill: url(#_未命名的渐变);
      }

      .st5 {
        fill-opacity: .3;
      }

      .st6 {
        fill-opacity: 0;
      }

      .st7 {
        fill-opacity: .7;
      }

      .st13 {
        fill: #00d6b9;
      }

      .st14 {
        fill: url(#_未命名的渐变_2);
      }
    </style><radialGradient
       id="_未命名的渐变"
       data-name="未命名的渐变"
       cx="123.9"
       cy="-40.2"
       fx="123.9"
       fy="-40.2"
       r="59.4"
       gradientTransform="translate(-26.8 25.5) scale(.6 -.7)"
       gradientUnits="userSpaceOnUse"><stop
         offset="0"
         stop-color="#db202e"
         id="stop1" /><stop
         offset="1"
         stop-color="#e01b24"
         id="stop2" /></radialGradient><radialGradient
       id="_未命名的渐变_2"
       data-name="未命名的渐变 2"
       cx="67.6"
       cy="26.8"
       fx="67.6"
       fy="26.8"
       r="105.2"
       gradientTransform="translate(-26.6 25.3) scale(.6 -.7)"
       gradientUnits="userSpaceOnUse"><stop
         offset="0"
         stop-color="#ffb648"
         id="stop3" /><stop
         offset="1"
         stop-color="#ff7800"
         stop-opacity="0"
         id="stop4" /></radialGradient><radialGradient
       id="_未命名的渐变_3"
       data-name="未命名的渐变 3"
       cx="61.7"
       cy="18.6"
       fx="61.7"
       fy="18.6"
       r="68"
       gradientTransform="translate(-26.8 25.8) scale(.6 -.7)"
       gradientUnits="userSpaceOnUse"><stop
         offset="0"
         stop-color="#c64600"
         id="stop5" /><stop
         offset="1"
         stop-color="#a51d2d"
         id="stop6" /></radialGradient></defs><path
     class="st1"
     d="M 47.5,64.1 H 13.8 C 6.2,64.1 0,57.8 0,50.3 V 13.7 C 0,6.2 6.2,0 13.7,0 H 50.3 C 57.8,0 64,6.2 64,13.7 V 50.3 C 64,57.8 57.8,64 50.3,64 h -2.9 0.1 z"
     id="path6"
     style="display:inline;fill:#c33131;fill-opacity:1" /><g
     id="g26"
     transform="matrix(1.1420217,0,0,1.1428132,-4.5680869,-4.5507849)"><path
       style="opacity:0.2"
       d="m 29.769632,13.000686 c -0.981986,0 -1.769975,1.095785 -1.769975,2.456965 v 2.062371 a 15.999771,15.999771 0 0 0 -4.113941,1.710575 L 22.421737,17.766218 C 21.459751,16.803632 20.12777,16.588435 19.43338,17.281825 l -3.152355,3.152755 c -0.69353,0.69353 -0.478213,2.025571 0.484373,2.988157 l 1.464819,1.464819 a 15.999771,15.999771 0 0 0 -1.699176,4.113942 h -2.07417 c -1.361181,0 -2.456965,0.787988 -2.456965,1.769974 v 4.460936 c 0,0.979986 1.095784,1.767975 2.456965,1.767975 h 2.06237 a 15.999771,15.999771 0 0 0 1.710916,4.113141 l -1.464819,1.464819 c -0.962586,0.962587 -1.177903,2.294768 -0.484373,2.988158 l 3.152355,3.152355 c 0.69353,0.69353 2.025571,0.478213 2.988157,-0.484373 l 1.464819,-1.46482 a 15.999771,15.999771 0 0 0 4.113941,1.697976 v 2.074171 c 0,1.36198 0.787989,2.457964 1.769975,2.457964 h 4.460936 c 0.979986,0 1.767975,-1.095984 1.767975,-2.457964 v -2.062371 a 15.999771,15.999771 0 0 0 4.113141,-1.710915 l 1.464819,1.464819 c 0.962586,0.962586 2.294767,1.177903 2.988157,0.484373 l 3.152355,-3.152355 c 0.69353,-0.69353 0.478213,-2.025571 -0.484373,-2.988158 l -1.463979,-1.463979 a 15.999771,15.999771 0 0 0 1.697976,-4.113941 h 2.07417 c 1.361981,0 2.457965,-0.787989 2.457965,-1.769974 v -4.460937 c 0,-0.979986 -1.095984,-1.767974 -2.457965,-1.767974 h -2.06237 a 15.999771,15.999771 0 0 0 -1.710916,-4.113142 l 1.464819,-1.464819 c 0.962586,-0.962586 1.177903,-2.294767 0.484373,-2.988157 L 44.56534,17.281525 c -0.69399,-0.69339 -2.025971,-0.478193 -2.987957,0.484393 l -1.463979,1.464379 a 15.999771,15.999771 0 0 0 -4.113941,-1.698775 v -2.074171 c 0,-1.36118 -0.787989,-2.456965 -1.769975,-2.456965 H 29.769552 Z M 31.9996,25.000515 A 7.9998856,7.9998856 0 0 1 39.999486,33.0004 7.9998856,7.9998856 0 0 1 31.9996,41.000286 7.9998856,7.9998856 0 0 1 23.999714,33.0004 7.9998856,7.9998856 0 0 1 31.9996,25.000515 Z"
       id="path2" /><path
       style="fill:#ffaa56"
       d="m 29.769632,12.000715 c -0.981986,0 -1.769975,1.095784 -1.769975,2.456965 v 2.06257 a 15.999771,15.999771 0 0 0 -4.113941,1.710776 L 22.421737,16.766247 C 21.459751,15.803661 20.12777,15.588464 19.43338,16.281854 l -3.152355,3.152355 c -0.69339,0.69439 -0.478193,2.026371 0.484393,2.988357 l 1.464779,1.463979 a 15.999771,15.999771 0 0 0 -1.699176,4.113941 h -2.07417 c -1.361181,0 -2.456965,0.787989 -2.456965,1.769975 v 4.459936 c 0,0.981986 1.095784,1.769975 2.456965,1.769975 h 2.06257 a 15.999771,15.999771 0 0 0 1.710776,4.113941 l -1.464779,1.463979 c -0.962586,0.961986 -1.177783,2.293967 -0.484393,2.987957 l 3.152355,3.151955 c 0.69439,0.69399 2.026371,0.477993 2.988357,-0.483993 l 1.463979,-1.463979 a 15.999771,15.999771 0 0 0 4.113941,1.697976 v 2.07397 c 0,1.361981 0.787989,2.457965 1.769975,2.457965 h 4.459936 c 0.981986,0 1.769975,-1.095984 1.769975,-2.457965 v -2.06197 a 15.999771,15.999771 0 0 0 4.113941,-1.709976 l 1.463979,1.463979 c 0.961986,0.961986 2.293967,1.177983 2.987957,0.483993 l 3.151955,-3.151955 c 0.69399,-0.69399 0.477993,-2.025971 -0.483993,-2.987957 l -1.463979,-1.463979 a 15.999771,15.999771 0 0 0 1.697976,-4.113941 h 2.07397 c 1.361981,0 2.457965,-0.787989 2.457965,-1.769975 v -4.459936 c 0,-0.981986 -1.095984,-1.769975 -2.457965,-1.769975 h -2.06197 a 15.999771,15.999771 0 0 0 -1.709976,-4.113941 l 1.463979,-1.463979 c 0.961986,-0.961986 1.177983,-2.293967 0.483993,-2.988357 L 44.56542,16.281854 c -0.69399,-0.69339 -2.025971,-0.478193 -2.987957,0.484393 l -1.463979,1.464779 A 15.999771,15.999771 0 0 0 35.999543,16.53185 v -2.07417 c 0,-1.361181 -0.787989,-2.456965 -1.769975,-2.456965 z M 31.9996,24.000543 a 7.9998856,7.9998856 0 0 1 7.999886,7.999886 7.9998856,7.9998856 0 0 1 -7.999886,7.999886 7.9998856,7.9998856 0 0 1 -7.999886,-7.999886 7.9998856,7.9998856 0 0 1 7.999886,-7.999886 z"
       id="path3" /></g></svg>
