<?xml version="1.0" encoding="UTF-8" standalone="no"?>
<svg
   id="_图层_1"
   version="1.1"
   viewBox="0 0 64 64" width="64" height="64"
   sodipodi:docname="arduino.svg"
   xml:space="preserve"
   inkscape:version="1.4 (e7c3feb100, 2024-10-09)"
   xmlns:inkscape="http://www.inkscape.org/namespaces/inkscape"
   xmlns:sodipodi="http://sodipodi.sourceforge.net/DTD/sodipodi-0.dtd"
   xmlns="http://www.w3.org/2000/svg"
   xmlns:svg="http://www.w3.org/2000/svg"><sodipodi:namedview
     id="namedview26"
     pagecolor="#505050"
     bordercolor="#eeeeee"
     borderopacity="1"
     inkscape:showpageshadow="0"
     inkscape:pageopacity="0"
     inkscape:pagecheckerboard="0"
     inkscape:deskcolor="#505050"
     inkscape:zoom="10.6875"
     inkscape:cx="44.25731"
     inkscape:cy="32"
     inkscape:window-width="1920"
     inkscape:window-height="939"
     inkscape:window-x="0"
     inkscape:window-y="34"
     inkscape:window-maximized="1"
     inkscape:current-layer="_图层_1" /><!-- Generator: Adobe Illustrator 29.0.1, SVG Export Plug-In . SVG Version: 2.1.0 Build 192)  --><defs
     id="defs6"><inkscape:path-effect
       effect="fillet_chamfer"
       id="path-effect26"
       is_visible="true"
       lpeversion="1"
       nodesatellites_param="F,0,0,1,0,0,0,1 @ F,0,0,1,0,0,0,1 @ F,0,0,1,0,0,0,1 @ F,0,0,1,0,0,0,1 @ F,0,0,1,0,0,0,1 @ F,0,0,1,0,0,0,1"
       radius="0"
       unit="px"
       method="auto"
       mode="F"
       chamfer_steps="1"
       flexible="false"
       use_knot_distance="true"
       apply_no_radius="true"
       apply_with_radius="true"
       only_selected="false"
       hide_knots="false" /><style
       id="style1">
      .st0 {
        fill-opacity: .5;
      }

      .st0, .st1, .st2, .st3, .st4, .st5, .st6, .st7 {
        fill: #fff;
      }

      .st8 {
        fill: #133c9a;
      }

      .st2, .st9 {
        display: none;
      }

      .st3 {
        fill-opacity: .2;
      }

      .st4 {
        fill-opacity: .9;
      }

      .st10 {
        fill: #3370ff;
      }

      .st11 {
        fill: url(#_未命名的渐变_3);
      }

      .st12 {
        fill: url(#_未命名的渐变);
      }

      .st5 {
        fill-opacity: .3;
      }

      .st6 {
        fill-opacity: 0;
      }

      .st7 {
        fill-opacity: .7;
      }

      .st13 {
        fill: #00d6b9;
      }

      .st14 {
        fill: url(#_未命名的渐变_2);
      }
    </style><radialGradient
       id="_未命名的渐变"
       data-name="未命名的渐变"
       cx="123.9"
       cy="-40.2"
       fx="123.9"
       fy="-40.2"
       r="59.4"
       gradientTransform="translate(-26.8 25.5) scale(.6 -.7)"
       gradientUnits="userSpaceOnUse"><stop
         offset="0"
         stop-color="#db202e"
         id="stop1" /><stop
         offset="1"
         stop-color="#e01b24"
         id="stop2" /></radialGradient><radialGradient
       id="_未命名的渐变_2"
       data-name="未命名的渐变 2"
       cx="67.6"
       cy="26.8"
       fx="67.6"
       fy="26.8"
       r="105.2"
       gradientTransform="translate(-26.6 25.3) scale(.6 -.7)"
       gradientUnits="userSpaceOnUse"><stop
         offset="0"
         stop-color="#ffb648"
         id="stop3" /><stop
         offset="1"
         stop-color="#ff7800"
         stop-opacity="0"
         id="stop4" /></radialGradient><radialGradient
       id="_未命名的渐变_3"
       data-name="未命名的渐变 3"
       cx="61.7"
       cy="18.6"
       fx="61.7"
       fy="18.6"
       r="68"
       gradientTransform="translate(-26.8 25.8) scale(.6 -.7)"
       gradientUnits="userSpaceOnUse"><stop
         offset="0"
         stop-color="#c64600"
         id="stop5" /><stop
         offset="1"
         stop-color="#a51d2d"
         id="stop6" /></radialGradient></defs><path
     class="st1"
     d="M 47.5,64.1 H 13.8 C 6.2,64.1 0,57.8 0,50.3 V 13.7 C 0,6.2 6.2,0 13.7,0 H 50.3 C 57.8,0 64,6.2 64,13.7 V 50.3 C 64,57.8 57.8,64 50.3,64 h -2.9 0.1 z"
     id="path6"
     style="display:inline;fill:#e4e4e4;fill-opacity:1" /><g
     id="g26"
     transform="matrix(1.1198314,0,0,1.1209921,-4.3243641,-3.2635612)"><path
       style="opacity:0.1"
       d="m 47,18 c -3.795455,0 -6.928747,2.005313 -9.425781,4.449219 -2.497035,2.443906 -4.582585,5.439396 -6.636719,8.302734 -2.054134,2.863338 -4.075294,5.590919 -6.085938,7.453125 C 22.840919,40.067285 21.041667,41 19,41 13.958333,41 12.280756,39.009145 11.160156,36.861328 10.039557,34.713512 10,32.5 10,32.5 H 4 c 0,0 -0.039557,3.536487 1.8398438,7.138672 C 7.719244,43.240856 12.041667,47 19,47 c 3.958333,0 7.284081,-1.942285 9.929688,-4.392578 2.645606,-2.450294 4.811946,-5.472713 6.882812,-8.359375 2.070866,-2.886662 4.047816,-5.641172 5.957031,-7.509766 C 43.678747,24.869687 45.295455,24 47,24 c 4.454546,0 5.87884,1.872199 6.917969,4.044922 C 54.957097,30.217645 55,32.5 55,32.5 h 6 c 0,0 0.0429,-3.467646 -1.667969,-7.044922 C 57.62116,21.877802 53.545454,18 47,18 Z m -0.523438,8.978516 A 1.50015,1.50015 0 0 0 45,28.5 V 31 h -2.525391 a 1.50015,1.50015 0 1 0 0,3 H 45 v 2.5 a 1.50015,1.50015 0 1 0 3,0 V 34 h 2.5 a 1.50015,1.50015 0 1 0 0,-3 H 48 V 28.5 A 1.50015,1.50015 0 0 0 46.476562,26.978516 Z M 14.5,31 a 1.50015,1.50015 0 1 0 0,3 h 8 a 1.50015,1.50015 0 1 0 0,-3 z"
       id="path2" /><path
       style="fill:none;stroke:#00797d;stroke-width:3;stroke-linecap:round;stroke-linejoin:round"
       d="m 14.5,31.500002 h 8"
       id="path3" /><path
       style="fill:none;stroke:#00797d;stroke-width:6"
       d="M 7,31.5 C 7,31.5 7,43 19,43 31,43 36,20 47,20 58,20 58,31.5 58,31.5 v 0 0"
       id="path4" /><path
       style="fill:none;stroke:#009da2;stroke-width:3;stroke-linecap:round;stroke-linejoin:round"
       d="m 46.5,27.5 v 8 M 42.474974,31.500002 H 50.5"
       id="path5" /><path
       style="opacity:0.1"
       d="M 19,18 C 12.041667,18 7.7192439,21.759144 5.8398438,25.361328 4.5443491,27.84436 4.1836832,30.216183 4.0703125,31.5 h 6.0390625 c 0.121022,-0.844465 0.385042,-2.085323 1.050781,-3.361328 C 12.280756,25.990855 13.958333,24 19,24 c 2.041667,0 3.840919,0.932715 5.851562,2.794922 2.010644,1.862206 4.031804,4.589787 6.085938,7.453125 2.054134,2.863338 4.139684,5.858828 6.636719,8.302734 C 40.071253,44.994687 43.204545,47 47,47 53.545454,47 57.62116,43.122198 59.332031,39.544922 61.042903,35.967646 61,32.5 61,32.5 h -6 c 0,0 -0.0429,2.282355 -1.082031,4.455078 C 52.87884,39.127801 51.454546,41 47,41 45.295455,41 43.678747,40.130313 41.769531,38.261719 39.860316,36.393125 37.883366,33.638615 35.8125,30.751953 33.741634,27.865291 31.575294,24.842872 28.929688,22.392578 26.284081,19.942285 22.958333,18 19,18 Z"
       id="path6-9" /><path
       style="fill:none;stroke:#009da2;stroke-width:6"
       d="M 7,31.500002 C 7,31.500002 7,20 19,20 31,20 36,43 47,43 58,43 58,31.500002 58,31.500002 v 0 0"
       id="path7" /></g></svg>
