<?xml version="1.0" encoding="UTF-8"?>
<svg id="_图层_1" xmlns="http://www.w3.org/2000/svg" version="1.1" viewBox="0 0 64 64" width="64" height="64">
  <!-- Generator: Adobe Illustrator 29.0.1, SVG Export Plug-In . SVG Version: 2.1.0 Build 192)  -->
  <defs>
    <style>
      .st0 {
        fill: #4f4f4f;
      }

      .st1 {
        fill: #3f3f3f;
      }

      .st2, .st3 {
        fill: #fff;
      }

      .st4, .st5, .st3 {
        isolation: isolate;
      }

      .st4, .st3 {
        opacity: .1;
      }

      .st6 {
        fill: #31b58e;
      }

      .st5 {
        opacity: .2;
      }

      .st7 {
        display: none;
      }

      .st8 {
        fill: #9d9d9d;
      }

      .st9 {
        fill: #707070;
      }
    </style>
  </defs>
  <path class="st2" d="M50.4,64H13.8c-7.6,0-13.8-6.2-13.8-13.7V13.7C0,6.2,6.2,0,13.7,0h36.6c7.5,0,13.7,6.2,13.7,13.7v36.6c0,7.5-6.2,13.7-13.7,13.7h.1Z"/>
  <g class="st7">
    <path class="st5" d="M3.5,31.5c0,.3,0,.7,0,1,0,15.5,12.5,28,28,28s28-12.5,28-28,0-.7,0-1c-.5,15-12.8,27-27.9,27S4,46.5,3.5,31.5h0Z"/>
    <rect class="st8" x="3.5" y="3.5" width="56" height="56" rx="28" ry="28"/>
    <path class="st3" d="M31.5,3.5C16,3.5,3.5,16,3.5,31.5s0,.2,0,.3c.4-15.2,12.7-27.3,28-27.3s27.6,12.1,28,27.3c0-.1,0-.2,0-.3,0-15.5-12.5-28-28-28Z"/>
    <circle class="st9" cx="31.5" cy="31.5" r="22"/>
    <circle class="st1" cx="31.5" cy="31.5" r="16"/>
    <circle class="st4" cx="31.5" cy="32.5" r="8"/>
    <circle class="st0" cx="31.5" cy="31.5" r="8"/>
    <path class="st3" d="M31.5,23.5c-4.4,0-8,3.6-8,8,0,.1,0,.3,0,.4.3-4.2,3.8-7.4,8-7.4,4.2,0,7.8,3.3,8,7.6,0-.2,0-.4,0-.6,0-4.4-3.6-8-8-8Z"/>
  </g>
  <g>
    <path class="st5" d="M2.5,30.5c0,.3,0,.7,0,1,0,15.5,12.5,28,28,28s28-12.5,28-28,0-.7,0-1c-.5,15-12.8,27-27.9,27S3,45.5,2.5,30.5h0Z"/>
    <rect class="st8" x="2.4" y="2.5" width="56" height="56" rx="28" ry="28"/>
    <path class="st3" d="M30.4,2.5C14.9,2.5,2.4,15,2.4,30.5s0,.2,0,.3C2.8,15.6,15.2,3.5,30.4,3.5s27.6,12.1,28,27.3c0-.1,0-.2,0-.3,0-15.5-12.5-28-28-28Z"/>
    <circle class="st9" cx="30.4" cy="30.5" r="22"/>
    <circle class="st1" cx="30.4" cy="30.5" r="16"/>
    <circle class="st4" cx="30.4" cy="31.5" r="8"/>
    <circle class="st0" cx="30.4" cy="30.5" r="8"/>
    <path class="st3" d="M30.4,22.5c-4.4,0-8,3.6-8,8,0,.1,0,.3,0,.4.3-4.2,3.8-7.4,8-7.4,4.2,0,7.8,3.3,8,7.6,0-.2,0-.4,0-.6,0-4.4-3.6-8-8-8Z"/>
    <circle class="st5" cx="44.4" cy="45.5" r="16"/>
    <circle class="st6" cx="44.4" cy="44.5" r="16"/>
    <path class="st2" d="M48.4,35.3v11.2h-8v-11.2c-3.6,1.6-6,5.2-6,9.2,0,4,2.4,7.6,6,9.2v6.3c1.3.3,2.6.5,4,.5,1.3,0,2.7-.2,4-.5v-6.3c3.6-1.6,6-5.2,6-9.2,0-4-2.4-7.6-6-9.2Z"/>
  </g>
</svg>