<?xml version="1.0" encoding="UTF-8"?>
<svg id="_图层_1" xmlns="http://www.w3.org/2000/svg" version="1.1" viewBox="0 0 64 64" width="64" height="64">
  <!-- Generator: Adobe Illustrator 29.0.1, SVG Export Plug-In . SVG Version: 2.1.0 Build 192)  -->
  <defs>
    <style>
      .st0, .st1, .st2 {
        isolation: isolate;
        opacity: .2;
      }

      .st0, .st2, .st3 {
        display: none;
      }

      .st4, .st2 {
        fill: #fff;
      }

      .st5 {
        fill: #369ad7;
      }

      .st3 {
        fill: #2b79f6;
      }

      .st6 {
        fill: #e65776;
      }
    </style>
  </defs>
  <path class="st3" d="M50.3,64H13.8c-7.6,0-13.8-6.2-13.8-13.7V13.7C0,6.2,6.2,0,13.7,0h36.5c7.5,0,13.7,6.2,13.7,13.7v36.6c0,7.5-6.2,13.7-13.7,13.7h0Z"/>
  <g>
    <path class="st0" d="M14.4,1.1h35.2c8,0,14.4,6.4,14.4,14.3v35c0,7.9-6.4,14.3-14.4,14.3H14.4c-8,0-14.4-6.4-14.4-14.3V15.4C0,7.5,6.4,1.1,14.4,1.1Z"/>
    <path class="st5" d="M4.2,4.2C1.6,6.8,0,10.4,0,14.4v35.2c0,8,6.4,14.4,14.4,14.4h35.2c3.7,0,7.1-1.4,9.6-3.7L42.3,10.3,4.2,4.2Z"/>
    <path class="st6" d="M14.4,0C10.4,0,6.8,1.6,4.2,4.2l55.1,56c2.9-2.6,4.8-6.4,4.8-10.7V14.4C64,6.4,57.6,0,49.6,0H14.4Z"/>
    <path class="st2" d="M14.4,0C6.4,0,0,6.4,0,14.3v1.1C0,7.5,6.4,1.1,14.4,1.1h35.2c8,0,14.4,6.4,14.4,14.3v-1.1C64,6.4,57.6,0,49.6,0H14.4Z"/>
    <path class="st1" d="M25.9,0c-.9,2.2-1.8,5.2-1.9,8.3,0,3.4,1.2,7.8,1.2,7.8l5.7-1.2s-2.2-2.4-2.3-7c0-2.8,1-5.7,2-7.9,0,0-4.6,0-4.6,0ZM63.8,12.3c-2.8.2-6.6.5-8.9,1.2-7.6,2.1-17.2,4.8-17.2,4.8l3.9,3.5s7.5-2.8,13.7-4c2.5-.5,5.9-.7,8.6-.9v-2.5c0-.7,0-1.4-.2-2.1ZM0,16.1v4.4c2,.4,4.8.9,8.2,1.4,3,.5,9.1,1,9.1,1l1-4.6s-5.6,0-8.4-.3c-4.1-.6-7.6-1.4-9.9-1.9ZM37.8,27.5l-4.2,3.9s5.1.6,17,13.4c5.3,5.7,8.4,10.3,10.3,13.8,1.8-2.2,2.9-5,3.1-8-2.6-3.7-6.3-8-11.6-12.7-7.6-6.9-14.6-10.5-14.6-10.5ZM19.3,28.6c-7.6,0-12.5,5.2-12.5,5.2l4.3,4s2.2-3.4,8-3.4c7.1,0,6,6.9,6,6.9,0,0-20.6-1.1-20.5,9.6,0,4.9,3.3,9.9,11.3,9.9s9.2-5.1,9.2-5.1v5h6.9v-19.4s0-12.6-12.7-12.6ZM24,45.7v3.2c0,1.6-1.1,5.9-4.8,5.9-5.4,0-6.6-2.3-6.6-4.6,0-4.6,11.4-4.6,11.4-4.6Z"/>
    <path class="st4" d="M25.5,0c-.7,2.1-1.4,4.6-1.5,7.1,0,3.4,1.2,7.8,1.2,7.8l5.7-1.2s-2.2-2.4-2.3-7C28.5,4.5,29.2,2,30.1,0h-4.5ZM63.6,11.1c-2.8.2-6.4.5-8.7,1.2-7.6,2.1-17.2,4.8-17.2,4.8l3.9,3.5s7.5-2.8,13.7-4c2.5-.5,5.9-.7,8.6-.9v-1.3c0-1.1-.1-2.2-.4-3.3ZM0,14.9v4.4c2,.4,4.8.9,8.2,1.4,3,.5,9.1,1,9.1,1l1-4.6s-5.6,0-8.4-.3c-4.1-.6-7.6-1.4-9.9-1.9ZM37.8,26.3l-4.2,3.9s5.1.6,17,13.4c5.6,6.1,8.8,10.9,10.6,14.5,1.8-2.4,2.8-5.4,2.8-8.6-2.6-3.7-6.4-8.1-11.6-12.8-7.6-6.9-14.6-10.5-14.6-10.5ZM19.3,27.4c-7.6,0-12.5,5.2-12.5,5.2l4.3,4s2.2-3.4,8-3.4c7.1,0,6,6.9,6,6.9,0,0-20.6-1.1-20.5,9.6,0,4.9,3.3,9.9,11.3,9.9s9.2-5.1,9.2-5.1v5h6.9v-19.4s0-12.6-12.7-12.6ZM24,44.6v3.2c0,1.6-1.1,5.9-4.8,5.9-5.4,0-6.6-2.3-6.6-4.6,0-4.6,11.4-4.6,11.4-4.6Z"/>
  </g>
</svg>