<?xml version="1.0" encoding="UTF-8"?>
<svg id="_图层_1" xmlns="http://www.w3.org/2000/svg" version="1.1" viewBox="0 0 64 64" width="64" height="64">
  <!-- Generator: Adobe Illustrator 29.0.1, SVG Export Plug-In . SVG Version: 2.1.0 Build 192)  -->
  <defs>
    <style>
      .st0, .st1 {
        isolation: isolate;
        opacity: .2;
      }

      .st1 {
        fill: #fff;
      }

      .st2 {
        fill: #54d032;
      }

      .st3 {
        fill: #e4e4e4;
      }
    </style>
  </defs>
  <path class="st3" d="M47.5,64.1H13.8c-7.6,0-13.8-6.3-13.8-13.8V13.7C0,6.2,6.2,0,13.7,0h36.6c7.5,0,13.7,6.2,13.7,13.7v36.6c0,7.5-6.2,13.7-13.7,13.7h-2.9.1Z"/>
  <g>
    <path class="st0" d="M27.9,6.6l-2.6,11.2-4.3,6h3.4l-2.4,5.7-3.6,2.1h-3.6l-5,5.2,6.2,2.4-1.2,2.4-5,2.9v5.2l12-3.4,8.6-2.6,8.6,2.6,12,3.4v-5.2l-5-2.9-1.2-2.4,6.2-2.4-5-5.2h-3.6l-3.6-2.1-2.4-5.7h3.4l-4.3-6-2.6-11.2h-5.2Z"/>
    <path class="st2" d="M27.9,5.7l-2.6,11.2-4.3,6h3.4l-2.4,5.7-3.6,2.1h-3.6l-5,5.2,6.2,2.4-1.2,2.4-5,2.9v5.2l12-3.4,8.6-2.6,8.6,2.6,12,3.4v-5.2l-5-2.9-1.2-2.4,6.2-2.4-5-5.2h-3.6l-3.6-2.1-2.4-5.7h3.4l-4.3-6-2.6-11.2h-5.2Z"/>
    <path class="st0" d="M28.8,12.6l-1.7,12.9h6.9l-1.7-12.9v11.2h-3.4v-11.2ZM24.5,25.5l-.9,6.9-4.3,4.3,6-3.4.9-7.7h-1.7ZM34.8,25.5l.9,7.7,6,3.4-4.3-4.3-.9-6.9h-1.7Z"/>
    <path class="st3" d="M28.8,11.7l-1.7,12.9h6.9l-1.7-12.9v11.2h-3.4v-11.2ZM24.5,24.6l-.9,6.9-4.3,4.3,6-3.4.9-7.7h-1.7ZM34.8,24.6l.9,7.7,6,3.4-4.3-4.3-.9-6.9h-1.7Z"/>
    <path class="st0" d="M30.5,39.2c-9.6,0-17.2,3.4-17.2,8.3s2.2,4.2,5.3,5.1c1,1.3,2.6,2.1,4.7,2.1s2.5-.4,3.4-.9c1.4,0,2.7,0,3.8,0s2.5,0,3.8,0c1,.6,2.2.9,3.4.9,2.1,0,3.7-.8,4.7-2.1,3-.9,5.3-2.5,5.3-5.1,0-4.8-7.6-8.3-17.2-8.3Z"/>
    <path class="st3" d="M13.3,46.6c0-4.8,7.6-8.3,17.2-8.3s17.2,3.4,17.2,8.3-11.2,6.4-17.2,6.4-17.2-.3-17.2-6.4Z"/>
    <path class="st0" d="M30.5,40.1c-3.3,0-6.1,2.4-6.1,5.1,0,0,0,0,0,.1-.4,0-.8-.1-1.2-.1-3.3,0-5.6,1.9-5.6,4.6s.1,1.2.3,1.7c2.9,1,6.6,1.3,9.8,1.4,1-.9,1.6-2.1,1.6-3.4,0,0,0,0,0-.1.4,0,.8.1,1.2.1.4,0,.8,0,1.2-.1,0,0,0,0,0,.1,0,1.3.6,2.4,1.6,3.4,3.2,0,6.9-.4,9.8-1.4.2-.5.3-1.1.3-1.7,0-2.7-2.3-4.6-5.6-4.6-.4,0-.8,0-1.2.1,0,0,0,0,0-.1,0-2.7-2.7-5.1-6.1-5.1Z"/>
    <path class="st2" d="M30.5,39.2c-3.3,0-6.1,2.4-6.1,5.1,0,0,0,0,0,0-.4,0-.8,0-1.2,0-3.3,0-5.6,1.9-5.6,4.6,0,2.7,2.3,4.9,5.6,4.9s6.1-2.4,6.1-5.1c0,0,0,0,0,0,.4,0,.8,0,1.2,0,.4,0,.8,0,1.2-.1,0,0,0,0,0,.1,0,2.7,2.7,5.1,6.1,5.1,3.3,0,5.6-2.2,5.6-4.9,0-2.7-2.3-4.6-5.6-4.6-.4,0-.8,0-1.2.1,0,0,0,0,0-.1,0-2.7-2.7-5.1-6.1-5.1Z"/>
    <path class="st0" d="M30.5,43.5c-1.4,0-2.6.8-2.6,1.7s1.2,1.7,2.6,1.7,2.6-.8,2.6-1.7-1.2-1.7-2.6-1.7ZM23.6,48.7c-1.4,0-2.6.8-2.6,1.7s1.2,1.7,2.6,1.7,2.6-.8,2.6-1.7-1.2-1.7-2.6-1.7ZM37.4,48.7c-1.4,0-2.6.8-2.6,1.7s1.2,1.7,2.6,1.7,2.6-.8,2.6-1.7-1.2-1.7-2.6-1.7Z"/>
    <path class="st3" d="M30.5,42.7c-1.4,0-2.6.8-2.6,1.7s1.2,1.7,2.6,1.7,2.6-.8,2.6-1.7-1.2-1.7-2.6-1.7ZM23.6,47.8c-1.4,0-2.6.8-2.6,1.7s1.2,1.7,2.6,1.7,2.6-.8,2.6-1.7-1.2-1.7-2.6-1.7ZM37.4,47.8c-1.4,0-2.6.8-2.6,1.7s1.2,1.7,2.6,1.7,2.6-.8,2.6-1.7-1.2-1.7-2.6-1.7Z"/>
    <path class="st1" d="M27.9,5.7l-2.6,11.2-4.3,6h.6l3.7-5.2,2.6-11.2h5.2l2.6,11.2,3.7,5.2h.6l-4.3-6-2.6-11.2h-5.2ZM24.1,23.8l-2,4.8-3.6,2.1h-3.6l-5,5.2.6.2,4.4-4.5h3.6l3.6-2.1,2.4-5.7h-.4ZM36.5,23.8l2.4,5.7,3.6,2.1h3.6l4.4,4.5.6-.2-5-5.2h-3.6l-3.6-2.1-2-4.8h-.4ZM15.7,38.9l-.8,1.7-5,2.9v.9l5-2.9,1.2-2.4h-.4ZM45.3,38.9h-.4c0,.1,1.2,2.5,1.2,2.5l5,2.9v-.9l-5-2.9-.8-1.7Z"/>
    <path class="st1" d="M30.5,38.4c-9.6,0-17.2,3.4-17.2,8.3s0,.3,0,.4c.5-4.6,7.9-7.8,17.2-7.8s16.7,3.2,17.2,7.8c0-.1,0-.3,0-.4,0-4.8-7.6-8.3-17.2-8.3Z"/>
    <path class="st1" d="M30.5,39.2c-3.3,0-6.1,2.4-6.1,5.1,0,0,0,0,0,.1-.4,0-.8-.1-1.2-.1-3.3,0-5.6,1.9-5.6,4.6s0,.3,0,.4c.2-2.5,2.4-4.2,5.6-4.2.4,0,.8,0,1.2.1,0,0,0,0,0-.1,0-2.7,2.7-5.1,6.1-5.1,3.3,0,6.1,2.4,6.1,5.1,0,0,0,0,0,.1.4,0,.8-.1,1.2-.1,3.2,0,5.4,1.7,5.6,4.2,0-.1,0-.3,0-.4,0-2.7-2.3-4.6-5.6-4.6-.4,0-.8,0-1.2.1,0,0,0,0,0-.1,0-2.7-2.7-5.1-6.1-5.1Z"/>
  </g>
</svg>