<?xml version="1.0" encoding="UTF-8" standalone="no"?>
<svg
   id="_图层_1"
   version="1.1"
   viewBox="0 0 64 64" width="64" height="64"
   sodipodi:docname="babe.svg"
   xml:space="preserve"
   inkscape:version="1.4 (e7c3feb100, 2024-10-09)"
   xmlns:inkscape="http://www.inkscape.org/namespaces/inkscape"
   xmlns:sodipodi="http://sodipodi.sourceforge.net/DTD/sodipodi-0.dtd"
   xmlns="http://www.w3.org/2000/svg"
   xmlns:svg="http://www.w3.org/2000/svg"><sodipodi:namedview
     id="namedview26"
     pagecolor="#505050"
     bordercolor="#eeeeee"
     borderopacity="1"
     inkscape:showpageshadow="0"
     inkscape:pageopacity="0"
     inkscape:pagecheckerboard="0"
     inkscape:deskcolor="#505050"
     inkscape:zoom="10.6875"
     inkscape:cx="32"
     inkscape:cy="34.339181"
     inkscape:window-width="1920"
     inkscape:window-height="939"
     inkscape:window-x="0"
     inkscape:window-y="34"
     inkscape:window-maximized="1"
     inkscape:current-layer="_图层_1" /><!-- Generator: Adobe Illustrator 29.0.1, SVG Export Plug-In . SVG Version: 2.1.0 Build 192)  --><defs
     id="defs6"><inkscape:path-effect
       effect="fillet_chamfer"
       id="path-effect26"
       is_visible="true"
       lpeversion="1"
       nodesatellites_param="F,0,0,1,0,0,0,1 @ F,0,0,1,0,0,0,1 @ F,0,1,1,0,0,0,1 @ F,0,0,1,0,0,0,1 | F,0,0,1,0,0,0,1 @ F,0,0,1,0,0,0,1 @ F,0,0,1,0,0,0,1 @ F,0,0,1,0,0,0,1"
       radius="0"
       unit="px"
       method="auto"
       mode="F"
       chamfer_steps="1"
       flexible="false"
       use_knot_distance="true"
       apply_no_radius="true"
       apply_with_radius="true"
       only_selected="false"
       hide_knots="false" /><style
       id="style1">
      .st0 {
        fill-opacity: .5;
      }

      .st0, .st1, .st2, .st3, .st4, .st5, .st6, .st7 {
        fill: #fff;
      }

      .st8 {
        fill: #133c9a;
      }

      .st2, .st9 {
        display: none;
      }

      .st3 {
        fill-opacity: .2;
      }

      .st4 {
        fill-opacity: .9;
      }

      .st10 {
        fill: #3370ff;
      }

      .st11 {
        fill: url(#_未命名的渐变_3);
      }

      .st12 {
        fill: url(#_未命名的渐变);
      }

      .st5 {
        fill-opacity: .3;
      }

      .st6 {
        fill-opacity: 0;
      }

      .st7 {
        fill-opacity: .7;
      }

      .st13 {
        fill: #00d6b9;
      }

      .st14 {
        fill: url(#_未命名的渐变_2);
      }
    </style><radialGradient
       id="_未命名的渐变"
       data-name="未命名的渐变"
       cx="123.9"
       cy="-40.2"
       fx="123.9"
       fy="-40.2"
       r="59.4"
       gradientTransform="translate(-26.8 25.5) scale(.6 -.7)"
       gradientUnits="userSpaceOnUse"><stop
         offset="0"
         stop-color="#db202e"
         id="stop1" /><stop
         offset="1"
         stop-color="#e01b24"
         id="stop2" /></radialGradient><radialGradient
       id="_未命名的渐变_2"
       data-name="未命名的渐变 2"
       cx="67.6"
       cy="26.8"
       fx="67.6"
       fy="26.8"
       r="105.2"
       gradientTransform="translate(-26.6 25.3) scale(.6 -.7)"
       gradientUnits="userSpaceOnUse"><stop
         offset="0"
         stop-color="#ffb648"
         id="stop3" /><stop
         offset="1"
         stop-color="#ff7800"
         stop-opacity="0"
         id="stop4" /></radialGradient><radialGradient
       id="_未命名的渐变_3"
       data-name="未命名的渐变 3"
       cx="61.7"
       cy="18.6"
       fx="61.7"
       fy="18.6"
       r="68"
       gradientTransform="translate(-26.8 25.8) scale(.6 -.7)"
       gradientUnits="userSpaceOnUse"><stop
         offset="0"
         stop-color="#c64600"
         id="stop5" /><stop
         offset="1"
         stop-color="#a51d2d"
         id="stop6" /></radialGradient></defs><path
     class="st1"
     d="M47.5,64.1H13.8c-7.6,0-13.8-6.3-13.8-13.8V13.7C0,6.2,6.2,0,13.7,0h36.6c7.5,0,13.7,6.2,13.7,13.7v36.6c0,7.5-6.2,13.7-13.7,13.7h-2.9.1Z"
     id="path6"
     style="fill:#f85b79;fill-opacity:1" /><g
     id="g26"
     transform="matrix(1.1370092,0,0,1.1566234,-4.2907269,-8.5954742)"><path
       style="opacity:0.2"
       d="m 11,22 c 0,1.333348 0,2.666652 0,4 2.000001,0 4,0 6,0 0,-1.333348 0,-2.666652 0,-4 -2,0 -3.999999,0 -6,0 z"
       id="path3" /><path
       style="opacity:0.2"
       d="m 11,29 c 0,1.333348 0,2.666652 0,4 2.000001,0 4,0 6,0 0,-1.333348 0,-2.666652 0,-4 -2,0 -3.999999,0 -6,0 z"
       id="path4" /><path
       style="opacity:0.2"
       d="m 11,36 c 0,1.333348 0,2.666652 0,4 2.000001,0 4,0 6,0 0,-1.333348 0,-2.666652 0,-4 -2,0 -3.999999,0 -6,0 z"
       id="path5" /><path
       style="opacity:0.2"
       d="m 20,18 c 0,1.333348 0,2.666652 0,4 2.000002,0 4,0 6,0 0,-1.333348 0,-2.666652 0,-4 -2,0 -3.999998,0 -6,0 z"
       id="path6-9" /><path
       style="opacity:0.2"
       d="m 20,25 c 0,1.333348 0,2.666652 0,4 2.000002,0 4,0 6,0 0,-1.333348 0,-2.666652 0,-4 -2,0 -3.999998,0 -6,0 z"
       id="path7" /><path
       style="opacity:0.2"
       d="m 20,32 c 0,1.333348 0,2.666652 0,4 2.000002,0 4,0 6,0 0,-1.333348 0,-2.666652 0,-4 -2,0 -3.999998,0 -6,0 z"
       id="path8" /><path
       style="opacity:0.2"
       d="m 20,39 c 0,1.333348 0,2.666652 0,4 2.000002,0 4,0 6,0 0,-1.333348 0,-2.666652 0,-4 -2,0 -3.999998,0 -6,0 z"
       id="path9" /><path
       style="opacity:0.2"
       d="m 29,24 c 0,1.333348 0,2.666652 0,4 2.000002,0 4,0 6,0 0,-1.333348 0,-2.666652 0,-4 -2,0 -3.999998,0 -6,0 z"
       id="path10" /><path
       style="opacity:0.2"
       d="m 29,31 c 0,1.333348 0,2.666652 0,4 2.000002,0 4,0 6,0 0,-1.333348 0,-2.666652 0,-4 -2,0 -3.999998,0 -6,0 z"
       id="path11" /><path
       style="opacity:0.2"
       d="m 29,38 c 0,1.333348 0,2.666652 0,4 2.000002,0 4,0 6,0 0,-1.333348 0,-2.666652 0,-4 -2,0 -3.999998,0 -6,0 z"
       id="path12" /><path
       style="opacity:0.2"
       d="m 29,45 c 0,1.333348 0,2.666652 0,4 2.000002,0 4,0 6,0 0,-1.333348 0,-2.666652 0,-4 -2,0 -3.999998,0 -6,0 z"
       id="path13" /><path
       style="opacity:0.2"
       d="m 53,22 c 0,1.333348 0,2.666652 0,4 -2.000001,0 -4,0 -6,0 0,-1.333348 0,-2.666652 0,-4 2,0 3.999999,0 6,0 z"
       id="path14" /><path
       style="opacity:0.2"
       d="m 53,29 c 0,1.333348 0,2.666652 0,4 -2.000001,0 -4,0 -6,0 0,-1.333348 0,-2.666652 0,-4 2,0 3.999999,0 6,0 z"
       id="path15" /><path
       style="opacity:0.2"
       d="m 53,36 c 0,1.333348 0,2.666652 0,4 -2.000001,0 -4,0 -6,0 0,-1.333348 0,-2.666652 0,-4 2,0 3.999999,0 6,0 z"
       id="path16" /><path
       style="opacity:0.2"
       d="m 44,18 c 0,1.333348 0,2.666652 0,4 -2.000002,0 -4,0 -6,0 0,-1.333348 0,-2.666652 0,-4 2,0 3.999998,0 6,0 z"
       id="path17" /><path
       style="opacity:0.2"
       d="m 44,25 c 0,1.333348 0,2.666652 0,4 -2.000002,0 -4,0 -6,0 0,-1.333348 0,-2.666652 0,-4 2,0 3.999998,0 6,0 z"
       id="path18" /><path
       style="opacity:0.2"
       d="m 44,32 c 0,1.333348 0,2.666652 0,4 -2.000002,0 -4,0 -6,0 0,-1.333348 0,-2.666652 0,-4 2,0 3.999998,0 6,0 z"
       id="path19" /><path
       style="opacity:0.2"
       d="m 44,39 c 0,1.333348 0,2.666652 0,4 -2.000002,0 -4,0 -6,0 0,-1.333348 0,-2.666652 0,-4 2,0 3.999998,0 6,0 z"
       id="path20" /><path
       style="fill:#ffffff"
       d="m 20,17 v 4 h 6 v -4 z m 18,0 v 4 h 6 v -4 z m -27,4 v 4 h 6 v -4 z m 36,0 v 4 h 6 v -4 z m -18,2 v 4 h 6 v -4 z m -9,1 v 4 h 6 v -4 z m 18,0 v 4 h 6 v -4 z m -27,4 v 4 h 6 v -4 z m 36,0 v 4 h 6 v -4 z m -18,2 v 4 h 6 v -4 z m -9,1 v 4 h 6 v -4 z m 18,0 v 4 h 6 v -4 z m -27,4 v 4 h 6 v -4 z m 36,0 v 4 h 6 v -4 z m -18,2 v 4 h 6 v -4 z m -9,1 v 4 h 6 v -4 z m 18,0 v 4 h 6 v -4 z m -9,6 v 4 h 6 v -4 z"
       id="path21" /></g></svg>
