<?xml version="1.0" encoding="UTF-8"?>
<svg id="_图层_1" xmlns="http://www.w3.org/2000/svg" version="1.1" viewBox="0 0 64 64" width="64" height="64">
  <!-- Generator: Adobe Illustrator 29.0.1, SVG Export Plug-In . SVG Version: 2.1.0 Build 192)  -->
  <defs>
    <style>
      .st0, .st1, .st2, .st3, .st4, .st5, .st6 {
        display: none;
      }

      .st0, .st1, .st7, .st8, .st5 {
        isolation: isolate;
      }

      .st0, .st7, .st8, .st5 {
        opacity: .2;
      }

      .st1 {
        opacity: .1;
      }

      .st1, .st9, .st8, .st5 {
        fill: #fff;
      }

      .st10 {
        fill: #71d716;
      }

      .st2, .st11 {
        fill: #095660;
      }

      .st12 {
        fill: #cf1717;
      }

      .st13 {
        fill: #ffd42b;
      }

      .st3 {
        fill: #f84300;
      }

      .st6 {
        fill: #4f4f4f;
      }

      .st14 {
        fill: #a0bfba;
      }
    </style>
  </defs>
  <path class="st11" d="M47.5,64.1H13.8c-7.6,0-13.8-6.3-13.8-13.8V13.7C0,6.2,6.2,0,13.7,0h36.6c7.5,0,13.7,6.2,13.7,13.7v36.6c0,7.5-6.2,13.7-13.7,13.7h-2.9.1Z"/>
  <g class="st4">
    <path class="st0" d="M20.3,5.4c-2.3,0-4.7,1-6.4,3.3h0s-7.8,10.5-7.8,10.5c0,0,0,0,0,0h0c-1.9,2.5-1.7,6.6,0,8.9,1.2,1.6,2.8,2.4,4.6,2.8v11.1c0,5.1,4.3,9.3,9.4,9.3h1.3c2.3,0,4.3-.9,6-2.3l6.7,9h0c1.7,2.3,4.1,3.2,6.4,3.3,2.6.1,5.2-.7,7.1-3.3l7.8-10.5h0c1.9-2.5,1.7-6.6,0-8.9-1.2-1.6-2.8-2.4-4.6-2.8v-11.1c0-5.1-4.3-9.3-9.4-9.3h-1.3c-2.3,0-4.3.9-6,2.3l-6.7-9c-1.9-2.6-4.5-3.4-7.1-3.3h0Z"/>
    <path class="st6" d="M20.3,4.4c-2.3,0-4.7,1-6.4,3.3h0s-7.8,10.5-7.8,10.5c0,0,0,0,0,0h0c-1.9,2.5-1.7,6.6,0,8.9,1.2,1.6,2.8,2.4,4.6,2.8v11.1c0,5.1,4.3,9.3,9.4,9.3h1.3c2.3,0,4.3-.9,6-2.3l6.7,9h0c1.7,2.3,4.1,3.2,6.4,3.3,2.6.1,5.2-.7,7.1-3.3l7.8-10.5h0c1.9-2.5,1.7-6.6,0-8.9-1.2-1.6-2.8-2.4-4.6-2.8v-11.1c0-5.1-4.3-9.3-9.4-9.3h-1.3c-2.3,0-4.3.9-6,2.3l-6.7-9c-1.9-2.6-4.5-3.4-7.1-3.3h0Z"/>
    <path class="st7" d="M20.6,11.4c-.7,0-1.4.4-1.8.9l-7.8,10.5c-.6.8-.3,1.9.8,2.4.3.2.7.2,1.1.2h3.8v16.7c0,1.8,1.5,3.3,3.3,3.3h1.3c1.8,0,3.3-1.5,3.3-3.3v-16.7h3.8c1.2,0,2.2-.8,2.2-1.7,0-.3-.1-.6-.3-.9l-7.8-10.5c-.4-.6-1.2-.9-2-.9Z"/>
    <path class="st13" d="M20.6,10.4c-.7,0-1.4.4-1.8.9l-7.8,10.5c-.6.8-.3,1.9.8,2.4.3.2.7.2,1.1.2h3.8v16.7c0,1.8,1.5,3.3,3.3,3.3h1.3c1.8,0,3.3-1.5,3.3-3.3v-16.7h3.8c1.2,0,2.2-.8,2.2-1.7,0-.3-.1-.6-.3-.9l-7.8-10.5c-.4-.6-1.2-.9-2-.9Z"/>
    <path class="st7" d="M40,21.4c-1.8,0-3.3,1.5-3.3,3.3v16.7h-3.8c-1.2,0-2.2.8-2.2,1.7,0,.3.1.6.3.9l7.8,10.5c.4.5,1.1.8,1.8.9.8,0,1.6-.3,2-.9l7.8-10.5c.6-.8.3-1.9-.8-2.4-.3-.2-.7-.2-1.1-.2h-3.8v-16.7c0-1.8-1.5-3.3-3.3-3.3h-1.3Z"/>
    <path class="st10" d="M40,20.4c-1.8,0-3.3,1.5-3.3,3.3v16.7h-3.8c-1.2,0-2.2.8-2.2,1.7,0,.3.1.6.3.9l7.8,10.5c.4.5,1.1.8,1.8.9.8,0,1.6-.3,2-.9l7.8-10.5c.6-.8.3-1.9-.8-2.4-.3-.2-.7-.2-1.1-.2h-3.8v-16.7c0-1.8-1.5-3.3-3.3-3.3,0,0-1.3,0-1.3,0Z"/>
    <path class="st1" d="M20.3,4.4c-2.3,0-4.7,1-6.4,3.3h0s-7.8,10.5-7.8,10.5c0,0,0,0,0,0h0c-1,1.4-1.4,3.2-1.3,4.9,0-1.4.5-2.8,1.3-3.9h0s0,0,0,0l7.8-10.5h0c1.7-2.3,4.1-3.2,6.4-3.3h0c2.6-.1,5.2.7,7.1,3.3l6.7,9c1.6-1.4,3.7-2.3,6-2.3h1.3c5.1,0,9.4,4.3,9.4,9.3v-1c0-5.1-4.3-9.3-9.4-9.3h-1.3c-2.3,0-4.3.9-6,2.3l-6.7-9c-1.9-2.6-4.5-3.4-7.1-3.3h0ZM50.8,34.9v1c1.7.4,3.4,1.2,4.6,2.8.8,1,1.2,2.5,1.3,3.9,0-1.8-.4-3.7-1.3-4.9-1.2-1.6-2.8-2.4-4.6-2.8Z"/>
  </g>
  <g class="st4">
    <path class="st0" d="M32.1,1.1c-.7,0-1.4.2-2,.5-3.8,2.3-7.5,3.1-11.4,3.6-3.9.6-8.1,1.1-13.7-1.7C2.8,2.5,0,3.9,0,6.1v32.6c0,2.6,1.3,4.9,3.1,7.4,1.8,2.5,4.3,5,7.2,7.4,5.8,4.9,13.2,9.3,20.8,11.2.6.2,1.3.2,1.9,0,7.5-1.9,15-6.4,20.8-11.2,2.9-2.4,5.4-5,7.2-7.4,1.8-2.5,3.1-4.8,3.1-7.4V6.1c0-2.2-2.8-3.6-5.1-2.5-5.6,2.8-9.8,2.3-13.7,1.7s-7.6-1.3-11.4-3.6c-.6-.3-1.2-.5-1.9-.5Z"/>
    <path class="st3" d="M32.1,0c-.7,0-1.4.2-2,.5-3.8,2.3-7.5,3.1-11.4,3.6-3.9.6-8.1,1.1-13.7-1.7C2.8,1.4,0,2.7,0,5v32.6c0,2.6,1.3,4.9,3.1,7.4s4.3,5,7.2,7.4c5.8,4.9,13.2,9.3,20.8,11.2.6.2,1.3.2,1.9,0,7.5-1.9,15-6.4,20.8-11.2,2.9-2.4,5.4-5,7.2-7.4,1.8-2.5,3.1-4.8,3.1-7.4V5c0-2.2-2.8-3.6-5.1-2.5-5.6,2.8-9.8,2.3-13.7,1.7-3.9-.6-7.6-1.3-11.4-3.6C33.5.2,32.8,0,32.1,0Z"/>
    <path class="st7" d="M30.1,10.4c-7.6,0-10.8.8-20,1.9-2.6,0-4.8,1.5-4.8,3.8,0,2.3,2.2,4.1,4.8,4.1,0,0,0,0,.1,0-1.2-3.3,1.8-3.1,3.8-3.4.4,0,.2,0,.6,0v27.3l9.4,6.7V16c5.7,0,12.3,0,18.3,1.6,9.9,2.5,2.7,9.2-3.3,12.4,3.4,1.8,7.8,5.6,7.9,9.1,0,2.7-3.1,5.3-8.6,6.8-5.3,1.2-10.5,1.8-14.2,4.9,0,0,3-.4,9.3-.7,7.7-.3,15.1-2.5,20.4-7.2,2.7-4.9-.9-8.9-8.9-12.7,8.1-3.9,12-8.4,8.3-12.9-4.5-5.3-11.9-6.7-19.6-6.9-1.3,0-2.5,0-3.6,0ZM39,30l-5.3-5c-5,3-6.3,6.1-.3,9.7l5.6-4.7Z"/>
    <path class="st9" d="M30.1,9.3c-7.6,0-10.8.8-20,1.9-2.6,0-4.8,1.5-4.8,3.8,0,2.3,2.2,4.1,4.8,4.1,0,0,0,0,.1,0-1.2-3.3,1.8-3.1,3.8-3.4.4,0,.2,0,.6,0v27.3l9.4,6.7V14.9c5.7,0,12.3,0,18.3,1.6,9.9,2.5,2.7,9.2-3.3,12.4,3.4,1.8,7.8,5.6,7.9,9.1,0,2.7-3.1,5.3-8.6,6.8-5.3,1.2-10.5,1.8-14.2,4.9,0,0,3-.4,9.3-.7,7.7-.3,15.1-2.5,20.4-7.2,2.7-4.9-.9-8.9-8.9-12.7,8.1-3.9,12-8.4,8.3-12.9-4.5-5.3-11.9-6.7-19.6-6.9-1.3,0-2.5,0-3.6,0ZM39,28.9l-5.3-5c-5,3-6.3,6.1-.3,9.7l5.6-4.7Z"/>
    <path class="st5" d="M32.1,0c-.7,0-1.4.2-2,.5-3.8,2.3-7.5,3.1-11.4,3.6-3.9.6-8.1,1.1-13.7-1.7C2.8,1.4,0,2.7,0,5v1.1c0-2.2,2.8-3.6,5.1-2.5,5.6,2.8,9.8,2.3,13.7,1.7,3.9-.6,7.6-1.3,11.4-3.6.6-.3,1.3-.5,2-.5.7,0,1.3.2,1.9.5,3.8,2.3,7.5,3.1,11.4,3.6,3.9.6,8.1,1.1,13.7-1.7,2.3-1.1,5.1.3,5.1,2.5v-1.1c0-2.2-2.8-3.6-5.1-2.5-5.6,2.8-9.8,2.3-13.7,1.7-3.9-.6-7.6-1.3-11.4-3.6C33.5.2,32.8,0,32.1,0Z"/>
  </g>
  <g>
    <path class="st0" d="M18.9,1.1h25.7c10.7,0,19.3,8.4,19.3,18.9v25.2c0,10.4-8.6,18.9-19.3,18.9h-25.7C8.2,64-.4,55.6-.4,45.1v-25.2C-.4,9.6,8.2,1.1,18.9,1.1Z"/>
    <path class="st2" d="M18.9,0h25.7c10.7,0,19.3,8.4,19.3,18.9v25.2c0,10.4-8.6,18.9-19.3,18.9h-25.7C8.2,62.9-.4,54.4-.4,44v-25.2C-.4,8.4,8.2,0,18.9,0Z"/>
    <path class="st7" d="M33.8,5.6c-.3,0-.6.8-.7,1.9-.1,1.7-.7,2.7-1.6,1.9-.4-.4-.4-1-.3-1.8,0-.8,0-.9-.2-1-.2,0-.3-.2-.3-.2s-.2-.1-.4-.1-.4,0-.5-.1c0,0-.2-.1-.3-.1-.3,0-1.4,1.9-2,2.9-.4.7-.5.8-1.5,1-.8.2-1.5.3-2.7.2-2.2,0-2.6,0-2.9.5-.1.3-.1,2.3,0,6.7.1,7.4,0,6.4,1.9,6.4,1.2,0,3.9.2,4.4.4.4.1.5.7.5,2.4,0,1.8,0,2.7-1,4.4-.4.8-.7,1.6-1.1,3.5-.4,1.9,0,2.6,1.4,1.8.6-.4.7-.4.9.1,0,.3,0,.6-.3,1-.3.4-.4.9-.4,1.3s-.2,1.1-.4,1.6c-.4,1-.5,1.6-.2,3.2.3,1.4.5,2,1,2.2.6.3.7,0,.7-1.1,0-1.6,0-1.9.2-1.9.6,0,.7,1.3.2,2.3-.4.8-.4,1.6,0,2.2.2.4.2.5,0,1.2-.3,1-.3,1.3,0,1.4.4.1.4.2-.2,1.5-.8,1.6-.7,2.3.3,1.8.3-.1.3-.1.2.2-.2.7-.4,1-.8,1.6-.3.3-.6.6-.7.6-.2,0-2.7,2.5-3.9,4-1,1.2-1.4,2.2-1.6,3.6,0,.8,0,.8.2.8s.6-.2.9-.5c.4-.4.6-.4.7-.3.5.5,1.5-.2,1.1-.9-.3-.4-.2-.5.3-.7.3-.1.7-.4,1-.6.5-.4.5-.4,1-.3.4.2.6.1,1.2-.1.6-.2.7-.4.8-.9.2-.6.4-.8.9-.8s0,.1-.3.4c-.5.4-.5.4-.2.7.4.3.6.3,1.2,0,.5-.3.8-.7.6-1.2,0-.2,0-.3.1-.3s.3.1.3.3c.2.7,1.5.3,2.6-.7.4-.4.5-.5.4-1,0-.4,0-.6.5-1.2.5-.6.6-.7.9-.5.2.1.4.1.7,0,.3-.2.4-.2.5,0,.1.1.3.2.5.2.4,0,1.3-.7,1.3-1,0-.9-.3-1-1.1-.3-.3.2-.6.4-.6.4s-.1-.2-.2-.4c0-.3-.2-.4-.5-.4h-.4l.2-.7c.1-.4.3-1.1.3-1.7,0-.5.2-1.3.3-1.6.3-1,.3-1.7-.2-3-.6-1.7-.3-1.7.7,0,.6,1.2,1.2,1.5,1.6,1,.2-.3.3-1.1,0-1.6,0-.2-.3-.8-.4-1.3-.2-.7-.4-1.1-.9-1.5-1-.9-1.2-2.3-.6-3,.1-.1.3-.8.4-1.5.1-1,.1-1.3,0-1.6-.1-.2-.3-.9-.5-1.5l-.3-1.1.4-.7c.2-.4.5-.7.6-.8.1,0,.5.1.9.3.3.2.7.4.9.3.4,0,.4-.9,0-1.7-.2-.4-.4-.8-.4-.9s-.2-.5-.4-.9c-1.2-2.4-1.3-3.6-1.3-5,0-.9,0-1.1.3-1.3.6-.4,2.7-.8,3.9-.8,1.8,0,1.6,1,1.6-6.1,0-3.4,0-6.1-.1-6.4,0-.4-.2-.5-1-.7-.9-.2-1-.2-2.8,0-.8,0-1.4,0-1.8,0-.7-.2-.7-.7-1-1.6-.4-1.2-1.6-2.9-2.6-3,0,0,0,0,0,0s0,0,0,0c0,0,0,0,0,0h0ZM37.9,48.8c-.3,0-.4.4-.3.7.2.4.6.3.6-.2s0-.4-.2-.4h0ZM37.9,50.9c-.1,0-.3.1-.6.3-.4.3-.4.4-.4,1.1,0,.4,0,.8,0,.9,0,.3.6.2.9-.3.2-.3.3-.7.4-1.2,0-.6,0-.8-.3-.8h0Z"/>
    <path class="st14" d="M33.8,4.5c-.3,0-.6.8-.7,1.9-.1,1.7-.7,2.7-1.6,1.9-.4-.4-.4-1-.3-1.8,0-.8,0-.9-.2-1-.2,0-.3-.2-.3-.2s-.2-.1-.4-.1-.4,0-.5-.1c0,0-.2-.1-.3-.1-.3,0-1.4,1.9-2,2.9-.4.7-.5.8-1.5,1-.8.2-1.5.3-2.7.2-2.2,0-2.6,0-2.9.5-.1.3-.1,2.3,0,6.7.1,7.4,0,6.4,1.9,6.4,1.2,0,3.9.2,4.4.4.4.1.5.7.5,2.4,0,1.8,0,2.7-1,4.4-.4.8-.7,1.6-1.1,3.5-.4,1.9,0,2.6,1.4,1.8.6-.4.7-.4.9.1,0,.3,0,.6-.3,1-.3.4-.4.9-.4,1.3s-.2,1.1-.4,1.6c-.4,1-.5,1.6-.2,3.2.3,1.4.5,2,1,2.2.6.3.7,0,.7-1.1,0-1.6,0-1.9.2-1.9.6,0,.7,1.3.2,2.3-.4.8-.4,1.6,0,2.2.2.4.2.5,0,1.2-.3,1-.3,1.3,0,1.4.4.1.4.2-.2,1.5-.8,1.6-.7,2.3.3,1.8.3-.1.3-.1.2.2-.2.7-.4,1-.8,1.6-.3.3-.6.6-.7.6-.2,0-2.7,2.5-3.9,4-1,1.2-1.4,2.2-1.6,3.6,0,.8,0,.8.2.8s.6-.2.9-.5c.4-.4.6-.4.7-.3.5.5,1.5-.2,1.1-.9-.3-.4-.2-.5.3-.7.3-.1.7-.4,1-.6.5-.4.5-.4,1-.3.4.2.6.1,1.2-.1.6-.2.7-.4.8-.9.2-.6.4-.8.9-.8s0,.1-.3.4c-.5.4-.5.4-.2.7.4.3.6.3,1.2,0,.5-.3.8-.7.6-1.2,0-.2,0-.3.1-.3s.3.1.3.3c.2.7,1.5.3,2.6-.7.4-.4.5-.5.4-1,0-.4,0-.6.5-1.2.5-.6.6-.7.9-.5.2.1.4.1.7,0,.3-.2.4-.2.5,0,.1.1.3.2.5.2.4,0,1.3-.7,1.3-1,0-.9-.3-1-1.1-.3-.3.2-.6.4-.6.4s-.1-.2-.2-.4c0-.3-.2-.4-.5-.4h-.4l.2-.7c.1-.4.3-1.1.3-1.7,0-.5.2-1.3.3-1.6.3-1,.3-1.7-.2-3-.6-1.7-.3-1.7.7,0,.6,1.2,1.2,1.5,1.6,1,.2-.3.3-1.1,0-1.6,0-.2-.3-.8-.4-1.3-.2-.7-.4-1.1-.9-1.5-1-.9-1.2-2.3-.6-3,.1-.1.3-.8.4-1.5.1-1,.1-1.3,0-1.6-.1-.2-.3-.9-.5-1.5l-.3-1.1.4-.7c.2-.4.5-.7.6-.8.1,0,.5.1.9.3.3.2.7.4.9.3.4,0,.4-.9,0-1.7-.2-.4-.4-.8-.4-.9s-.2-.5-.4-.9c-1.2-2.4-1.3-3.6-1.3-5,0-.9,0-1.1.3-1.3.6-.4,2.7-.8,3.9-.8,1.8,0,1.6,1,1.6-6.1,0-3.4,0-6.1-.1-6.4,0-.4-.2-.5-1-.7-.9-.2-1-.2-2.8,0-.8,0-1.4,0-1.8,0-.7-.2-.7-.7-1-1.6-.4-1.2-1.6-2.9-2.6-3,0,0,0,0,0,0s0,0,0,0c0,0,0,0,0,0h0ZM37.9,47.7c-.3,0-.4.4-.3.7.2.4.6.3.6-.2s0-.4-.2-.4h0ZM37.9,49.8c-.1,0-.3.1-.6.3-.4.3-.4.4-.4,1.1,0,.4,0,.8,0,.9,0,.3.6.2.9-.3.2-.3.3-.7.4-1.2,0-.6,0-.8-.3-.8h0Z"/>
    <path class="st12" d="M27,26.7c0,1.1-.2,1.7-1,3.1-.4.8-.7,1.6-1.1,3.5-.4,1.9,0,2.6,1.4,1.8.5-.3.6-.4.7-.2v-8.2h0ZM26.3,38.4c0,.2-.1.4-.2.6-.4,1-.5,1.6-.2,3.2.3,1.4.5,2,1,2.2.3.2.5.2.6,0,0-2.5.1-5-1.3-6ZM26.1,55.2c-.9.8-2.3,2.3-3.1,3.3-1,1.2-1.4,2.2-1.6,3.6,0,.8,0,.8.2.8s.6-.2.9-.5c.4-.4.6-.4.7-.3.5.5,1.5-.2,1.1-.9-.3-.4-.2-.5.3-.7.3-.1.7-.4,1-.6.2-.2.3-.3.4-.3-.2-1.5-.2-2.9,0-4.4Z"/>
    <path class="st1" d="M18.9,0C8.2,0-.4,8.4-.4,18.9v1.1C-.4,9.5,8.2,1.1,18.9,1.1h25.7c10.7,0,19.3,8.4,19.3,18.9v-1.1C63.9,8.4,55.3,0,44.6,0h-25.7Z"/>
    <path class="st8" d="M33.8,4.5c-.3,0-.6.8-.7,1.9-.1,1.7-.7,2.7-1.6,1.9-.2-.2-.3-.4-.3-.7,0,.8,0,1.4.3,1.8.9.9,1.5-.1,1.6-1.9,0-1.1.4-1.9.7-1.9s0,0,0,0c0,0,0,0,0,0,0,0,0,0,0,0,.9.1,2.2,1.8,2.6,3,.3.9.3,1.4,1,1.6.5.1,1.1.1,1.8,0,1.7-.2,1.8-.2,2.8,0,.8.2.9.2,1,.7,0,.3,0,3,.1,6.4,0,1.3,0,2.1,0,3,0-.9,0-2.2,0-4.1,0-3.4,0-6.1-.1-6.4,0-.4-.2-.5-1-.7-.9-.2-1-.2-2.8,0-.8,0-1.4,0-1.8,0-.7-.2-.7-.7-1-1.6-.4-1.2-1.6-2.9-2.6-3,0,0,0,0,0,0s0,0,0,0c0,0,0,0,0,0ZM29.5,4.8c-.3,0-1.4,1.9-2,2.9-.4.7-.5.8-1.5,1-.8.2-1.5.3-2.7.2-2.2,0-2.6,0-2.9.5,0,.2,0,1.2,0,2.7,0-.9,0-1.5,0-1.6.2-.5.7-.5,2.9-.5,1.3,0,2,0,2.7-.2,1-.3,1-.3,1.5-1,.6-1.1,1.8-2.9,2-2.9s.3,0,.3.1c0,0,.3.1.5.1s.4,0,.4.1.1.2.3.2c.1,0,.2,0,.2.1,0,0,0-.2,0-.3,0-.8,0-.9-.2-1-.2,0-.3-.2-.3-.2s-.2-.1-.4-.1-.4,0-.5-.1c0,0-.2-.1-.3-.1ZM37.4,25.1c0,.1,0,.2,0,.4,0,1.5.1,2.6,1.3,5,.2.4.4.8.4.9s.2.5.4.9c0,.2.1.3.2.5.2-.3.2-.9-.2-1.6-.2-.4-.4-.8-.4-.9s-.2-.5-.4-.9c-1-2-1.2-3.2-1.3-4.3ZM27,26.3c0,1.2-.2,2.1-1,3.5-.4.8-.7,1.6-1.1,3.5-.2.7-.2,1.3,0,1.6,0-.2,0-.3,0-.5.4-1.9.7-2.7,1.1-3.5.9-1.7,1-2.6,1-4.4,0,0,0-.1,0-.2ZM36.9,34.4l-.2.4.3,1.1c.1.6.4,1.3.5,1.5,0,0,0,.1,0,.2,0-.7,0-1.1,0-1.3-.1-.2-.3-.9-.5-1.5v-.4ZM27,35.9c0,0,0,.2-.1.2-.3.4-.4.9-.4,1.3s-.2,1.1-.4,1.6c-.3.8-.4,1.3-.3,2.2,0-.4.1-.7.3-1.1.2-.5.4-1.2.4-1.6s.1-.9.4-1.3c.3-.4.4-.8.3-1,0-.2-.1-.3-.2-.4ZM37,40.9c-.2.8,0,1.8.9,2.6.4.4.7.8.9,1.5.1.5.3,1.1.4,1.3,0,0,0,.1,0,.2.1-.4.1-.9,0-1.3,0-.2-.3-.7-.4-1.3-.2-.7-.4-1.1-.9-1.5-.4-.4-.7-.9-.9-1.5ZM28.4,43.2c0,.2-.1.5-.2.7-.3.6-.4,1.2-.2,1.8,0-.2.1-.4.2-.6.3-.6.4-1.4.2-1.8ZM36.5,45.5c-.1,0,0,.4.2,1.3.2.5.3.9.3,1.3.1-.7,0-1.4-.3-2.4-.1-.2-.2-.2-.3-.2ZM28.2,47.3s0,0,0,0c-.3.9-.3,1.2,0,1.4,0,0,0-.1,0-.2.2-.7.2-.8,0-1.2ZM37.9,47.7c-.3,0-.4.4-.3.7.2.4.5.3.5-.2s0-.3-.1-.4c0,0,0,0,0,0,0,0,0,0,0,0h0ZM37.9,49.8c-.1,0-.3.1-.6.3-.4.3-.4.4-.4,1.1,0,.4,0,.8,0,.9,0,0,0,0,0,0,0-.5.1-.6.4-.9.2-.2.4-.3.6-.3.1,0,.2,0,.2.2,0-.2,0-.3,0-.5,0-.6,0-.8-.3-.8ZM28.1,49.9c0,.1-.1.2-.2.4-.6,1.1-.7,1.8-.3,1.9,0-.2.2-.5.3-.8.6-1.3.6-1.4.2-1.5,0,0,0,0,0,0ZM36.4,52.7c0,.2,0,.3-.1.4l-.2.7h.4c.3,0,.4,0,.4.4,0,0,0,0,0,0,0,.1.3.2.5.2.1,0,.1,0,.3-.2.3-.3.6-.4.8-.4.1-.1.3-.3.3-.4,0-.9-.3-1-1.1-.3-.3.2-.6.4-.6.4s-.1-.2-.2-.4c0-.3-.2-.4-.5-.4h0ZM28.4,53.1s-.1,0-.2,0c-.1,0-.2,0-.3.1,0,.2-.2.3-.3.5-.3.3-.6.6-.7.6-.2,0-2.7,2.5-3.9,4-1,1.2-1.4,2.2-1.6,3.6,0,.6,0,.8,0,.8.2-1.2.6-2.2,1.5-3.3,1.2-1.5,3.7-4,3.9-4s.4-.3.7-.6c.5-.6.6-.9.8-1.6,0-.2,0-.2,0-.3ZM29.5,59c-.2,0-.3,0-.4,0,.1,0,.2.1.4.1,0-.1.1-.2,0-.2ZM24.4,61.7c-.2.1-.3.2-.2.4.1,0,.2-.2.2-.4Z"/>
  </g>
</svg>