<?xml version="1.0" encoding="UTF-8"?>
<svg id="_图层_1" xmlns="http://www.w3.org/2000/svg" version="1.1" viewBox="0 0 64 64" width="64" height="64">
  <!-- Generator: Adobe Illustrator 29.0.1, SVG Export Plug-In . SVG Version: 2.1.0 Build 192)  -->
  <defs>
    <style>
      .st0 {
        fill: #61c3fa;
      }

      .st1 {
        fill: #4daf7c;
      }

      .st2, .st3, .st4, .st5 {
        isolation: isolate;
      }

      .st2, .st3, .st6, .st7, .st8 {
        display: none;
      }

      .st2, .st4, .st5 {
        opacity: .2;
      }

      .st3 {
        opacity: .1;
      }

      .st3, .st9, .st5 {
        fill: #fff;
      }

      .st10 {
        fill: #ec5a70;
      }

      .st11 {
        fill: #ee7737;
      }

      .st12 {
        fill: #eb566f;
      }

      .st13 {
        fill: #e3e3e3;
      }

      .st14 {
        fill: #448bf7;
      }

      .st15 {
        fill: #ebe0ed;
      }

      .st7 {
        fill: #3d4963;
      }

      .st16 {
        fill: #2698fa;
      }

      .st17 {
        fill: #ffee57;
      }

      .st8 {
        fill: #3c2f4c;
      }

      .st18 {
        fill: #5ed698;
      }
    </style>
  </defs>
  <path class="st9" d="M50.4,64H13.8c-7.6,0-13.8-6.2-13.8-13.7V13.7C0,6.2,6.2,0,13.7,0h36.6c7.5,0,13.7,6.2,13.7,13.7v36.6c0,7.5-6.2,13.7-13.7,13.7h.1Z"/>
  <g class="st6">
    <path class="st13" d="M44,64.1h-16.2l-11.8-11.5,13.7-21.5c1.2-9.8,1.1-9.6,9.1-12.7l11.3-.8c11,9.5,2.6,2,13.9,12v22.2c0,6.2-7.4,12.2-13.6,12.2h-6.4Z"/>
    <g>
      <path class="st1" d="M40,32h-5.9c-.2,0-.4,0-.5.2-.5.2-.8.5-1.1.9s-.4.9-.4,1.4v7.6h-4c-.7,0-1.2.2-1.3.5s0,.8.6,1.3l8.2,7.8c.2.2.5.4.9.5s.7.2,1,.2.7,0,1-.2.6-.3.9-.5l8.2-7.8c.5-.5.7-.9.6-1.3s-.6-.5-1.3-.5h-4v-7.6c0-.7-.3-1.3-.8-1.8s-1.2-.7-1.9-.7h-.2Z"/>
      <path class="st18" d="M29.8,9.7c-1-.2-1.9,0-2.7.7s-1.1,1.4-1.1,2.4v20.6c-.6-.2-1.3-.4-1.9-.5-.7,0-1.3-.2-2-.2-1.6,0-3.1.3-4.5.9-1.4.6-2.6,1.3-3.6,2.3s-1.8,2.1-2.5,3.5c-.6,1.3-.9,2.7-.9,4.2s.3,2.9.9,4.2c.6,1.3,1.4,2.5,2.5,3.4,1,1,2.2,1.8,3.6,2.3,1.4.6,2.9.8,4.5.8s3.4-.4,5-1.1c1.6-.7,2.8-1.7,3.9-3l-5.2-4.9c-.8-.8-1.2-1.5-1.2-2.1s0-1.1.2-1.3c0-.3.4-.6.8-1.1.5-.4,1.3-.7,2.4-.7h1.9v-5.7c0-1,.3-2,1-2.8s1.6-1.3,2.6-1.6v-8.2c3.7,0,6.5.5,8.4,1.4,1.9.9,3.2,2,3.9,3.4s1,2.8.8,4.4c-.2,1.5-.4,2.9-.9,4.1-.3,1-.4,1.5-.2,1.6s.6-.2,1.3-.9c4.5-4.7,6.6-8.6,6.3-11.7-.3-3.2-1.7-5.8-4.3-7.8s-5.8-3.5-9.6-4.6c-3.8-1-6.9-1.8-9.4-2.2h0v.2Z"/>
    </g>
  </g>
  <g class="st6">
    <path class="st2" d="M19.2,1.1h25.6c10.6,0,19.2,8.6,19.2,19.3v25.7c0,10.6-8.6,19.3-19.2,19.3h-25.6c-10.6,0-19.2-8.6-19.2-19.3v-25.7C0,9.8,8.6,1.1,19.2,1.1Z"/>
    <path class="st8" d="M19.2,0h25.6c10.6,0,19.2,8.6,19.2,19.3v25.7c0,10.6-8.6,19.3-19.2,19.3h-25.6c-10.6,0-19.2-8.6-19.2-19.3v-25.7C0,8.6,8.6,0,19.2,0Z"/>
    <path class="st3" d="M19.2,0C8.5,0,0,8.6,0,19.3v1.1C0,9.7,8.5,1.1,19.2,1.1h25.6c10.6,0,19.2,8.6,19.2,19.3v-1.1C63.9,8.6,55.3,0,44.7,0h-25.6Z"/>
    <path class="st4" d="M13.7,13.8c-2.5,0-4.6,2-4.6,4.6v10.3c0,2.5,2,4.6,4.6,4.6h4.6c2.5,0,4.6-2,4.6-4.6v-10.3c0-2.5-2-4.6-4.6-4.6h-4.6ZM29.7,13.8c-2.5,0-4.6,2-4.6,4.6v10.3c0,2.5,2,4.6,4.6,4.6h4.6c2.2,0,3.9-1.5,4.4-3.5l-3.4-1.5c-.3.9-1.1,1.5-2.1,1.5h-2.3c-1.3,0-2.3-1-2.3-2.3v-8c0-1.3,1-2.3,2.3-2.3h2.3c1,0,1.8.6,2.1,1.5l3.4-1.5c-.5-2-2.3-3.5-4.4-3.5h-4.6ZM45.6,13.8c-2.5,0-4.6,2-4.6,4.6v10.3c0,2.5,2,4.6,4.6,4.6h4.6c2.2,0,3.9-1.5,4.4-3.5l-3.4-1.5c-.3.9-1.1,1.5-2.1,1.5h-2.3c-1.3,0-2.3-1-2.3-2.3v-8c0-1.3,1-2.3,2.3-2.3h2.3c1,0,1.8.6,2.1,1.5l3.4-1.5c-.5-2-2.3-3.5-4.4-3.5h-4.6ZM14.8,17.2h2.3c1.3,0,2.3,1,2.3,2.3v8c0,1.3-1,2.3-2.3,2.3h-2.3c-1.3,0-2.3-1-2.3-2.3v-8c0-1.3,1-2.3,2.3-2.3ZM21.7,36.7c-2.5,0-4.6,2-4.6,4.6v14.9h3.4v-9.2h6.8v-3.4h-6.8v-3.4h10.3v-3.4h-9.1ZM34.2,36.7v3.4h4.6v16h3.4v-16h4.6v-3.4h-12.6Z"/>
    <path class="st15" d="M13.7,12.6c-2.5,0-4.6,2-4.6,4.6v10.3c0,2.5,2,4.6,4.6,4.6h4.6c2.5,0,4.6-2,4.6-4.6v-10.3c0-2.5-2-4.6-4.6-4.6h-4.6ZM29.7,12.6c-2.5,0-4.6,2-4.6,4.6v10.3c0,2.5,2,4.6,4.6,4.6h4.6c2.2,0,3.9-1.5,4.4-3.5l-3.4-1.5c-.3.9-1.1,1.5-2.1,1.5h-2.3c-1.3,0-2.3-1-2.3-2.3v-8c0-1.3,1-2.3,2.3-2.3h2.3c1,0,1.8.6,2.1,1.5l3.4-1.5c-.5-2-2.3-3.5-4.4-3.5h-4.6ZM45.6,12.6c-2.5,0-4.6,2-4.6,4.6v10.3c0,2.5,2,4.6,4.6,4.6h4.6c2.2,0,3.9-1.5,4.4-3.5l-3.4-1.5c-.3.9-1.1,1.5-2.1,1.5h-2.3c-1.3,0-2.3-1-2.3-2.3v-8c0-1.3,1-2.3,2.3-2.3h2.3c1,0,1.8.6,2.1,1.5l3.4-1.5c-.5-2-2.3-3.5-4.4-3.5h-4.6ZM14.8,16h2.3c1.3,0,2.3,1,2.3,2.3v8c0,1.3-1,2.3-2.3,2.3h-2.3c-1.3,0-2.3-1-2.3-2.3v-8c0-1.3,1-2.3,2.3-2.3ZM21.7,35.5c-2.5,0-4.6,2-4.6,4.6v14.9h3.4v-9.2h6.8v-3.4h-6.8v-3.4h10.3v-3.4h-9.1ZM34.2,35.5v3.4h4.6v16h3.4v-16h4.6v-3.4h-12.6Z"/>
  </g>
  <g class="st6">
    <path class="st2" d="M32,1.1h0c17.7,0,32,14.3,32,31.8h0c0,17.6-14.3,31.8-32,31.8h0C14.3,64.8,0,50.6,0,33h0C0,15.4,14.3,1.1,32,1.1Z"/>
    <path class="st7" d="M32,0h0c17.7,0,32,14.3,32,31.8h0c0,17.6-14.3,31.8-32,31.8h0C14.3,63.7,0,49.4,0,31.8h0C0,14.3,14.3,0,32,0Z"/>
    <path class="st4" d="M32,12.5c-3.9-.2-7.1,3-8.2,6.5-3.7,9.7-7.3,19.5-10.8,29.4l7-2.4c3.3-8.5,6.5-17,9.8-25.4.5-1.3,2.3-2.7,3.5-1.4,1.6,1.6,1.9,4,2.9,6.1,2.7,6.9,5.3,13.8,8,20.8l7,2.4c-3.7-10.2-7.4-20.3-11.3-30.4-1.3-3.1-4.3-5.7-7.8-5.5ZM32,33c-2.5,0-4.6,2-4.6,4.5s2,4.5,4.6,4.5,4.6-2,4.6-4.5-2-4.5-4.6-4.5Z"/>
    <ellipse class="st16" cx="32" cy="36.4" rx="4.6" ry="4.5"/>
    <path class="st16" d="M32,11.4c-3.9-.2-7.1,3-8.2,6.5-3.7,9.7-7.3,19.5-10.8,29.4,2.3-.8,4.6-1.6,7-2.4,3.3-8.5,6.5-17,9.8-25.4.5-1.3,2.3-2.7,3.5-1.4,1.6,1.6,1.9,4,2.9,6.1,2.7,6.9,5.3,13.8,8,20.8,2.3.8,4.6,1.6,7,2.4-3.7-10.2-7.3-20.3-11.3-30.4-1.3-3.1-4.3-5.7-7.8-5.5Z"/>
    <path class="st3" d="M32,0C14.3,0,0,14.2,0,31.8s0,.3,0,.4C.4,14.9,14.5,1.1,32,1.1s31.6,13.8,32,31.1c0-.1,0-.3,0-.4C64,14.2,49.7,0,32,0Z"/>
    <path class="st5" d="M32.7,11.4c-.2,0-.4,0-.7,0-3.9-.2-7.1,3-8.2,6.5-3.7,9.7-7.3,19.5-10.8,29.4l.5-.2c3.4-9.4,6.8-18.7,10.4-28.1,1.1-3.5,4.3-6.8,8.2-6.5,3.5-.2,6.5,2.4,7.8,5.5,3.8,9.6,7.3,19.4,10.8,29.1l.5.2c-3.7-10.2-7.4-20.3-11.3-30.4-1.2-2.9-3.9-5.3-7.2-5.5ZM32,31.8c-2.5,0-4.6,2-4.6,4.5,0,.2,0,.4,0,.6.3-2.3,2.2-4,4.5-4,2.3,0,4.2,1.7,4.5,4,0-.2,0-.4,0-.6,0-2.5-2-4.5-4.6-4.5Z"/>
  </g>
  <g class="st6">
    <path class="st0" d="M32.5,14.9c-4.2,0-7.7,3.4-7.7,7.7s3.4,7.7,7.7,7.7,7.7-3.4,7.7-7.7-3.4-7.7-7.7-7.7h0ZM32.5,8c8.1-.1,14.7,6.3,14.8,14.4.1,8.1-6.3,14.7-14.4,14.8-.1,0-.3,0-.4,0-8.1-.1-14.5-6.8-14.4-14.8.1-7.9,6.5-14.3,14.4-14.4Z"/>
    <path class="st0" d="M55.8,48.3c-5.4,5.1-14,4.8-19-.7-1.3-1.4-1.1-3.6.3-4.9,1.4-1.2,3.5-1.1,4.7.2,2.5,2.6,6.6,2.8,9.2.3,2.6-2.5,2.8-6.6.3-9.2-2.5-2.6-6.6-2.8-9.2-.3,0,0,0,0,0,0-1.4,1.3-3.6,1.2-4.9-.2s-1.2-3.6.2-4.9c5.4-5.1,14-4.8,19,.7s4.8,14-.7,19c0,0,0,0,0,0ZM17.8,31.8c-3.8,0-6.9,3.1-6.9,6.9s3.1,6.9,6.9,6.9,6.9-3.1,6.9-6.9-3.1-6.9-6.9-6.9h0ZM17.8,24.9c7.6,0,13.8,6.2,13.8,13.8,0,7.6-6.2,13.8-13.8,13.8h0c-7.6,0-13.8-6.2-13.8-13.8,0-7.6,6.2-13.8,13.8-13.8Z"/>
    <path class="st0" d="M26.9,49.2l-4.9-4.8,15.7-16,4.9,4.8-15.7,16h0Z"/>
    <path class="st10" d="M32.5,37.2c-8.1,0-14.6-6.5-14.6-14.6,0-1.9,1.5-3.5,3.5-3.5,1.9,0,3.5,1.5,3.5,3.5h0c0,4.2,3.4,7.7,7.7,7.7s7.7-3.4,7.7-7.7c0-1.9,1.5-3.5,3.5-3.5,1.9,0,3.5,1.5,3.5,3.5h0c0,8.1-6.5,14.6-14.6,14.6Z"/>
    <path class="st12" d="M23.7,58.9h8.3v5.1h-8.3c-1.4,0-2.6-1.1-2.6-2.6s1.1-2.6,2.6-2.6h0Z"/>
    <path class="st14" d="M32,58.9h8.3c1.4,0,2.6,1.1,2.6,2.6s-1.1,2.6-2.6,2.6h-8.3v-5.1Z"/>
  </g>
  <g>
    <path class="st4" d="M7.3,24l-.2.3c-.3.5-.2,1.2.3,1.6l4.1,3.5c0-.5.1-1.1.2-1.6l-4.3-3.6s0,0,0-.1h0ZM56.7,24s0,0,0,.1l-4.3,3.6c0,.5.1,1.1.2,1.6l4.1-3.5c.4-.4.6-1.1.3-1.6l-.2-.3h0ZM11.5,31.6c0,.3,0,.6,0,.9,0,.5,0,.9,0,1.3l.2-.2c-.1-.7-.2-1.4-.2-2.1h0ZM52.6,31.6c0,.7,0,1.4-.2,2.1l.2.2c0-.4,0-.9,0-1.3s0-.6,0-.9h0ZM7.3,39.2c-.4.4-.5,1-.2,1.4l5.1,8.6c.3.5,1,.7,1.5.5l5.3-1.8c1.6,1.2,3.4,2.3,5.4,3l1.1,5.3c.1.6.7,1,1.2,1h10.3c.6,0,1.1-.5,1.2-1l1.1-5.3c1.9-.7,3.8-1.8,5.4-3l5.3,1.8c.6.2,1.2,0,1.5-.5l5.1-8.6c.3-.5.2-1.1-.2-1.4l-4.9,8.3c-.3.5-1,.7-1.5.5l-5.3-1.8c-1.6,1.2-3.4,2.3-5.4,3l-1.1,5.3c-.1.6-.7,1-1.2,1h-10.3c-.6,0-1.1-.5-1.2-1l-1.1-5.3c-1.9-.7-3.8-1.8-5.4-3l-5.3,1.8c-.6.2-1.2,0-1.5-.5l-4.9-8.3h0Z"/>
    <path class="st11" d="M26.8,6.7c-.5,0-1,.5-1.1,1l-1.1,5.3c-1.9.7-3.8,1.8-5.4,3l-5.3-1.8c-.6-.2-1.2,0-1.5.5l-5.1,8.6c-.3.5-.2,1.2.3,1.6l4.3,3.6c-.1,1-.2,1.9-.2,3s0,2,.2,3l-4.3,3.6c-.4.4-.6,1.1-.3,1.6l5.1,8.6c.3.5,1,.7,1.5.5l5.3-1.8c1.6,1.2,3.4,2.3,5.4,3l1.1,5.3c.1.6.7,1,1.2,1h10.3c.6,0,1.1-.5,1.2-1l1.1-5.3c1.9-.7,3.8-1.8,5.4-3l5.3,1.8c.6.2,1.2,0,1.5-.5l5.1-8.6c.3-.5.2-1.2-.3-1.6l-4.3-3.6c.1-1,.2-1.9.2-3s0-2-.2-3l4.3-3.6c.4-.4.6-1.1.3-1.6l-5.1-8.6c-.3-.5-1-.7-1.5-.5l-5.3,1.8c-1.6-1.2-3.4-2.3-5.4-3l-1.1-5.3c-.1-.6-.7-1-1.2-1h-10.3s0,0-.1,0h0Z"/>
    <path class="st4" d="M32,21.8c6.1,0,11,4.8,11,10.7s-4.9,10.7-11,10.7-11-4.8-11-10.7,4.9-10.7,11-10.7Z"/>
    <path class="st9" d="M32,20.9c6.1,0,11,4.8,11,10.7s-4.9,10.7-11,10.7-11-4.8-11-10.7,4.9-10.7,11-10.7Z"/>
    <path class="st4" d="M32,15.6c-9.1,0-16.5,7.2-16.5,16s7.4,16,16.5,16,16.5-7.2,16.5-16-7.4-16-16.5-16ZM32,17.5c8.1,0,14.6,6.3,14.6,14.1s-6.5,14.1-14.6,14.1-14.6-6.3-14.6-14.1,6.5-14.1,14.6-14.1h0Z"/>
    <path class="st17" d="M30.3,15.7c-8.3.8-14.8,7.7-14.8,15.9s7.4,16,16.5,16,2.7-.2,4-.5c.1-.3.3-.7.2-1.1,0-.3-.4-.6-.7-.8-1.1.3-2.3.4-3.5.4-8.1,0-14.6-6.3-14.6-14.1s5.9-13.5,13.5-14.1c.3-.3.4-.6.3-1.1,0-.4-.4-.7-.9-.8h0Z"/>
    <path class="st5" d="M26.8,6.7h0c-.5,0-1,.5-1.1,1l-1.1,5.3c-1.9.7-3.8,1.8-5.4,3l-5.3-1.8c-.6-.2-1.2,0-1.5.5l-5.1,8.6c-.2.3-.2.7,0,1,0,0,0-.1,0-.2l5.1-8.6c.3-.5,1-.7,1.5-.5l5.3,1.8c1.6-1.2,3.4-2.3,5.4-3l1.1-5.3c0-.5.6-1,1.1-1h0s0,0,.1,0h10.3c.6,0,1.1.5,1.2,1l1.1,5.3c1.9.7,3.8,1.8,5.4,3l5.3-1.8c.6-.2,1.2,0,1.5.5l5.1,8.6s0,.1,0,.2c.1-.3.1-.7,0-1l-5.1-8.6c-.3-.5-1-.7-1.5-.5l-5.3,1.8c-1.6-1.2-3.4-2.3-5.4-3l-1.1-5.3c-.1-.6-.7-1-1.2-1h-10.3s0,0-.1,0ZM11.6,29.5c0,.7-.1,1.4-.1,2.2s0,.3,0,.4c0-.9,0-1.7.2-2.5h0ZM52.5,29.5h0c.1.9.2,1.7.2,2.6,0-.1,0-.3,0-.4,0-.7,0-1.4-.1-2.2ZM52.5,34.7c0,.3,0,.5,0,.8l4.3,3.6c.2.1.3.3.3.5.2-.5,0-1.1-.3-1.4l-4.2-3.5ZM11.6,34.7l-4.2,3.5c-.4.3-.5.9-.3,1.4,0-.2.2-.4.3-.5l4.3-3.6c0-.3,0-.5,0-.8Z"/>
  </g>
</svg>