<?xml version="1.0" encoding="UTF-8" standalone="no"?>
<svg
   id="_图层_1"
   version="1.1"
   viewBox="0 0 64 64" width="64" height="64"
   sodipodi:docname="ca.hamaluik.Timecop.svg"
   xml:space="preserve"
   inkscape:version="1.4 (e7c3feb100, 2024-10-09)"
   xmlns:inkscape="http://www.inkscape.org/namespaces/inkscape"
   xmlns:sodipodi="http://sodipodi.sourceforge.net/DTD/sodipodi-0.dtd"
   xmlns="http://www.w3.org/2000/svg"
   xmlns:svg="http://www.w3.org/2000/svg"><sodipodi:namedview
     id="namedview26"
     pagecolor="#505050"
     bordercolor="#eeeeee"
     borderopacity="1"
     inkscape:showpageshadow="0"
     inkscape:pageopacity="0"
     inkscape:pagecheckerboard="0"
     inkscape:deskcolor="#505050"
     inkscape:zoom="10.6875"
     inkscape:cx="32"
     inkscape:cy="29.005848"
     inkscape:window-width="1920"
     inkscape:window-height="939"
     inkscape:window-x="0"
     inkscape:window-y="34"
     inkscape:window-maximized="1"
     inkscape:current-layer="g27" /><!-- Generator: Adobe Illustrator 29.0.1, SVG Export Plug-In . SVG Version: 2.1.0 Build 192)  --><defs
     id="defs6"><style
       id="style1">
      .st0 {
        fill-opacity: .5;
      }

      .st0, .st1, .st2, .st3, .st4, .st5, .st6, .st7 {
        fill: #fff;
      }

      .st8 {
        fill: #133c9a;
      }

      .st2, .st9 {
        display: none;
      }

      .st3 {
        fill-opacity: .2;
      }

      .st4 {
        fill-opacity: .9;
      }

      .st10 {
        fill: #3370ff;
      }

      .st11 {
        fill: url(#_未命名的渐变_3);
      }

      .st12 {
        fill: url(#_未命名的渐变);
      }

      .st5 {
        fill-opacity: .3;
      }

      .st6 {
        fill-opacity: 0;
      }

      .st7 {
        fill-opacity: .7;
      }

      .st13 {
        fill: #00d6b9;
      }

      .st14 {
        fill: url(#_未命名的渐变_2);
      }
    </style><radialGradient
       id="_未命名的渐变"
       data-name="未命名的渐变"
       cx="123.9"
       cy="-40.2"
       fx="123.9"
       fy="-40.2"
       r="59.4"
       gradientTransform="translate(-26.8 25.5) scale(.6 -.7)"
       gradientUnits="userSpaceOnUse"><stop
         offset="0"
         stop-color="#db202e"
         id="stop1" /><stop
         offset="1"
         stop-color="#e01b24"
         id="stop2" /></radialGradient><radialGradient
       id="_未命名的渐变_2"
       data-name="未命名的渐变 2"
       cx="67.6"
       cy="26.8"
       fx="67.6"
       fy="26.8"
       r="105.2"
       gradientTransform="translate(-26.6 25.3) scale(.6 -.7)"
       gradientUnits="userSpaceOnUse"><stop
         offset="0"
         stop-color="#ffb648"
         id="stop3" /><stop
         offset="1"
         stop-color="#ff7800"
         stop-opacity="0"
         id="stop4" /></radialGradient><radialGradient
       id="_未命名的渐变_3"
       data-name="未命名的渐变 3"
       cx="61.7"
       cy="18.6"
       fx="61.7"
       fy="18.6"
       r="68"
       gradientTransform="translate(-26.8 25.8) scale(.6 -.7)"
       gradientUnits="userSpaceOnUse"><stop
         offset="0"
         stop-color="#c64600"
         id="stop5" /><stop
         offset="1"
         stop-color="#a51d2d"
         id="stop6" /></radialGradient></defs><path
     class="st1"
     d="M 47.5,64.1 H 13.8 C 6.2,64.1 0,57.8 0,50.3 V 13.7 C 0,6.2 6.2,0 13.7,0 H 50.3 C 57.8,0 64,6.2 64,13.7 V 50.3 C 64,57.8 57.8,64 50.3,64 h -2.9 0.1 z"
     id="path6"
     style="display:inline;fill:#00b7cd;fill-opacity:1" /><g
     id="g27"
     transform="matrix(1.448693,0,0,1.1444547,-14.217943,-4.5456551)"><path
       style="opacity:0.2"
       d="M 38.126715,25.500524 C 38.608392,25.500524 39,25.080974 39,24.56073 V 23.935598 C 39,23.419552 38.608392,23 38.126715,23 H 25.873285 C 25.39161,23 25,23.419552 25,23.935598 v 0.629326 c 0,0.51605 0.39161,0.9356 0.873285,0.9356 0,3.553598 1.860141,6.553388 4.405597,7.501574 -2.545456,0.94399 -4.405597,3.94378 -4.405597,7.497378 C 25.39161,40.499476 25,40.919026 25,41.43927 v 0.625132 C 25,42.580448 25.39161,43 25.873285,43 h 12.25343 C 38.608392,43 39,42.580448 39,42.064402 v -0.629326 c 0,-0.51605 -0.391608,-0.9356 -0.873285,-0.9356 0,-3.553598 -1.860142,-6.553388 -4.405597,-7.497378 2.545455,-0.948186 4.405597,-3.947978 4.405597,-7.501574 z"
       id="path3" /><path
       fill="#ffffff"
       d="M 38.126715,24.500524 C 38.608392,24.500524 39,24.080974 39,23.56073 V 22.935598 C 39,22.419552 38.608392,22 38.126715,22 H 25.873285 C 25.39161,22 25,22.419552 25,22.935598 v 0.629326 c 0,0.51605 0.39161,0.9356 0.873285,0.9356 0,3.553598 1.860141,6.553388 4.405597,7.501574 -2.545456,0.94399 -4.405597,3.94378 -4.405597,7.497378 C 25.39161,39.499476 25,39.919026 25,40.43927 v 0.625132 C 25,41.580448 25.39161,42 25.873285,42 h 12.25343 C 38.608392,42 39,41.580448 39,41.064402 v -0.629326 c 0,-0.51605 -0.391608,-0.9356 -0.873285,-0.9356 0,-3.553598 -1.860142,-6.553388 -4.405597,-7.497378 2.545455,-0.948186 4.405597,-3.947978 4.405597,-7.501574 z"
       id="path4" /></g></svg>
