<?xml version="1.0" encoding="UTF-8"?>
<svg id="_图层_1" xmlns="http://www.w3.org/2000/svg" version="1.1" viewBox="0 0 64 64" width="64" height="64">
  <!-- Generator: Adobe Illustrator 29.0.1, SVG Export Plug-In . SVG Version: 2.1.0 Build 192)  -->
  <defs>
    <style>
      .st0 {
        fill: #b0aca9;
      }

      .st0, .st1, .st2, .st3, .st4, .st5, .st6, .st7 {
        display: none;
      }

      .st8, .st2 {
        fill: #009587;
      }

      .st9 {
        fill: #4f4f4f;
      }

      .st10 {
        fill: #2a4d9b;
      }

      .st1, .st11, .st12, .st5, .st13, .st14, .st7, .st15 {
        isolation: isolate;
      }

      .st1, .st11, .st5, .st13, .st14, .st7 {
        opacity: .2;
      }

      .st11, .st16, .st5 {
        fill-rule: evenodd;
      }

      .st3 {
        fill: #8561c5;
      }

      .st16, .st4, .st14, .st7, .st15 {
        fill: #fff;
      }

      .st17 {
        fill: #e74185;
      }

      .st18 {
        fill: none;
        stroke: #ff631b;
        stroke-linecap: round;
        stroke-linejoin: round;
        stroke-width: 5.1px;
      }

      .st19 {
        fill: #d8d8d8;
      }

      .st12, .st15 {
        opacity: .1;
      }

      .st20 {
        fill: #ff631b;
      }

      .st21 {
        fill: #1554d4;
      }

      .st22 {
        fill: #1e298c;
      }

      .st23 {
        fill: #c03630;
      }

      .st24 {
        fill: #ffc500;
      }

      .st25 {
        fill: #277f8d;
      }
    </style>
  </defs>
  <path class="st8" d="M50.3,64H13.8c-7.6,0-13.8-6.2-13.8-13.7V13.7C0,6.2,6.2,0,13.7,0h36.5c7.5,0,13.7,6.2,13.7,13.7v36.6c0,7.5-6.2,13.7-13.7,13.7h0Z"/>
  <g class="st6">
    <path class="st13" d="M28.6,7.6c-.9,0-1,.5-1.5,1.8L10,53.1c-.9,2.1-1.1,2.2,1.2,2.2h6.1c2.3,0,2.5,0,3.2-1.9l3.5-8.3h17.6l3.5,8.3c.8,2,.9,1.9,3.2,1.9h6.1c2.3,0,2.1,0,1.2-2.2L38.4,9.4c-.5-1.3-.6-1.8-1.5-1.8h-8.2ZM32.7,22.1l5.1,12.9h-10.1l5.1-12.9Z"/>
    <path class="st9" d="M28.6,6.8c-.9,0-1,.5-1.5,1.8L10,52.2c-.9,2.1-1.1,2.2,1.2,2.2h6.1c2.3,0,2.5,0,3.2-1.9l3.5-8.3h17.6l3.5,8.3c.8,2,.9,1.9,3.2,1.9h6.1c2.3,0,2.1,0,1.2-2.2L38.4,8.6c-.5-1.3-.6-1.8-1.5-1.8h-8.2ZM32.7,21.2l5.1,12.9h-10.1l5.1-12.9Z"/>
    <path class="st18" d="M35.2,24.1c12.6,7,21.8,15.2,20.4,18.3-1.3,3.1-12.7,0-25.3-7.1-12.6-7-21.8-15.2-20.4-18.3s12.7,0,25.3,7.1Z"/>
    <path class="st9" d="M21,24.1l-3.3,8.3,21.8,11.8h2l.7,1.3,13.2,6.4-5.5-13.9-13.1-6.3,1,2.5h-10.1l2.3-5.8-8.9-4.3Z"/>
    <path class="st18" d="M30.3,24.1c-12.6,7-21.8,15.2-20.4,18.3s12.7,0,25.3-7.1c12.6-7,21.8-15.2,20.4-18.3s-12.7,0-25.3,7.1Z"/>
    <path class="st20" d="M25,24.7l4.3,2.5c-3.9,2.2-7.3,4.6-10.2,6.8l-3.5-2.7c2.6-2.1,5.8-4.3,9.3-6.5Z"/>
    <path class="st9" d="M44.5,24.1l3.3,8.3-21.8,11.8h-2l-.7,1.3-13.2,6.4,5.5-13.9,13.1-6.3-1,2.5h10.1l-2.3-5.8,8.9-4.3Z"/>
    <path class="st20" d="M40.4,24.7l-4.3,2.5c3.9,2.2,7.3,4.6,10.2,6.8l3.5-2.7c-2.6-2.1-5.8-4.3-9.3-6.5Z"/>
    <path class="st13" d="M7.7,18.1c0,.6,0,1.2.2,1.8.2.9.7,1.7,1.2,2.5,1.1,1.6,2.6,3.2,4.5,5,1,.9,2.2,1.9,3.5,2.9.2-.1.4-.3.6-.4-1.5-1.1-2.9-2.2-4-3.3-1.9-1.7-3.5-3.4-4.5-5-.5-.8-.9-1.6-1.2-2.5,0-.3-.1-.6-.2-.9ZM12.8,18.1c-.4,0-.6,0-.8.1,0,.2.2.4.4.8,0,0,0,0,0,0,.1,0,.2,0,.4,0,1.1,0,2.9.3,5.1.9,4.4,1.2,10.2,3.7,16.4,7.1,6.2,3.4,11.5,7.2,15.1,10.3,1.7,1.6,3,3,3.7,4,.2,0,.3,0,.4,0,0-.2-.2-.4-.4-.8-.7-1-2-2.5-3.7-4-3.5-3.2-8.9-6.9-15.1-10.3-6.2-3.4-12.1-5.9-16.4-7.1-2.2-.6-4-.9-5.1-.9ZM57.8,42.3c0,.4-.1.8-.3,1.2-.4,1-1.2,1.6-2,1.9-.8.3-1.6.4-2.5.5l.3.8c.8,0,1.5-.2,2.1-.4.8-.3,1.6-1,2-1.9.3-.7.3-1.4.3-2.1Z"/>
    <ellipse class="st13" cx="18.5" cy="17" rx="5.8" ry="5.9"/>
    <ellipse class="st24" cx="18.5" cy="16.1" rx="5.8" ry="5.9"/>
    <path class="st14" d="M18.5,10.2c-3.2,0-5.8,2.7-5.8,5.9,0,.1,0,.3,0,.4.2-3.1,2.8-5.5,5.8-5.5,3.1,0,5.6,2.4,5.8,5.5,0-.1,0-.3,0-.4,0-3.3-2.6-5.9-5.8-5.9Z"/>
    <path class="st13" d="M57.8,18.1c0,.3,0,.6-.2.9-.2.9-.7,1.7-1.2,2.5-1.1,1.6-2.6,3.2-4.5,5-1.2,1.1-2.6,2.2-4,3.3.2.1.4.3.6.4,1.3-1,2.4-1.9,3.5-2.9,1.9-1.7,3.5-3.4,4.5-5,.5-.8.9-1.6,1.2-2.5.1-.5.2-1.1.2-1.8ZM52.7,18.1c-1.1,0-2.9.3-5.1.9-2.8.8-6.4,2.1-10.2,3.9.3.2.5.3.8.5,3.5-1.6,6.7-2.8,9.4-3.6,2.2-.6,4-.9,5.1-.9.2,0,.3,0,.4,0,0,0,0,0,0,0,.2-.4.3-.5.4-.8-.2,0-.4-.1-.8-.1ZM32.7,25.3c-.5.3-1,.6-1.6.8-6.2,3.4-11.5,7.2-15.1,10.3-1.8,1.6-3.1,3-3.7,4-.2.4-.3.5-.4.8.1,0,.2,0,.4,0,.7-1,2-2.5,3.7-4,3.5-3.2,8.9-6.9,15.1-10.3.8-.4,1.6-.9,2.4-1.3-.3-.1-.5-.3-.8-.4ZM7.7,42.3c0,.7,0,1.4.3,2.1.4,1,1.2,1.6,2,1.9.7.3,1.4.4,2.1.4l.3-.8c-.9,0-1.7-.1-2.5-.5-.8-.3-1.6-1-2-1.9-.2-.4-.2-.8-.3-1.2Z"/>
    <ellipse class="st13" cx="50.7" cy="25.1" rx="4.6" ry="4.7"/>
    <ellipse class="st24" cx="50.7" cy="24.2" rx="4.6" ry="4.7"/>
    <path class="st14" d="M50.7,19.5c-2.5,0-4.6,2.1-4.6,4.7,0,.1,0,.3,0,.4.2-2.4,2.2-4.2,4.6-4.2,2.4,0,4.4,1.9,4.6,4.3,0-.1,0-.3,0-.4,0-2.6-2.1-4.7-4.6-4.7Z"/>
  </g>
  <g class="st6">
    <path class="st1" d="M0,59.3v2.3c0,1.9,1.5,3.4,3.4,3.4h57.1c1.9,0,3.4-1.5,3.4-3.4v-2.3c0,1.9-1.5,3.4-3.4,3.4H3.4c-1.9,0-3.4-1.5-3.4-3.4Z"/>
    <path class="st0" d="M3.4,0h57.1c1.9,0,3.4,1.5,3.4,3.4v57c0,1.9-1.5,3.4-3.4,3.4H3.4c-1.9,0-3.4-1.5-3.4-3.4V3.4C0,1.5,1.5,0,3.4,0Z"/>
    <path class="st7" d="M3.4,0C1.5,0,0,1.5,0,3.4v1.1C0,2.7,1.5,1.1,3.4,1.1h57.1c1.9,0,3.4,1.5,3.4,3.4v-1.1c0-1.9-1.5-3.4-3.4-3.4H3.4Z"/>
    <path class="st12" d="M9.4,8c-1.4,0-2.5,1.1-2.5,2.5v45.2c0,1.4,1.1,2.5,2.5,2.5h45.2c1.4,0,2.5-1.1,2.5-2.5V10.5c0-1.4-1.1-2.5-2.5-2.5H9.4Z"/>
    <path class="st21" d="M9.4,6.8c-1.4,0-2.5,1.1-2.5,2.5v45.2c0,1.4,1.1,2.5,2.5,2.5h45.2c1.4,0,2.5-1.1,2.5-2.5V9.3c0-1.4-1.1-2.5-2.5-2.5H9.4Z"/>
    <path class="st22" d="M32,17.1v7.8l10.6,19.5h3.1s8,0,8-8-4.6-6.8-4.6-6.8c0,0,2.3-1.1,2.3-5.7,0-6.8-5.7-6.8-5.7-6.8h-13.7ZM32,34.5v7.7h4.2l-4.2-7.7Z"/>
    <path class="st22" d="M25.1,17.1l-14.9,27.4h10.3l4.6-8,4.6,8h10.3l-14.9-27.4Z"/>
  </g>
  <g class="st6">
    <path class="st13" d="M32,4.9h0c15.5,0,28,12.5,28,28h0c0,15.5-12.5,28-28,28h0c-15.5,0-28-12.5-28-28h0c0-15.5,12.5-28,28-28Z"/>
    <path class="st10" d="M32,3.9h0c15.5,0,28,12.5,28,28h0c0,15.5-12.5,28-28,28h0c-15.5,0-28-12.5-28-28h0c0-15.5,12.5-28,28-28Z"/>
    <path class="st12" d="M32.1,6.3c-2.2.2-4.3.5-6.3,1.2-.7,0-2.3,1-1,1.4.6.6,2,.8,1.9,1.9.2.9-2.1.9-1.4,1.7.6.7,1.1,1.5,1.7,2.2,1-.3,1.4-1.4,1.9-2.2,1.6-.7,3.9-.9,4.9-2.3.3-1,.7-1.9,1-2.9-.9-.4-1.8-.7-2.7-1.1ZM24.5,6.6c-1-.1-1.6.5-2.4.9-.9.1-1.9.4-2.5,1.2,1,.5,1.7,0,2.5-.4.8-.4,3.6-.6,2.3-1.7ZM18.1,9.5c-.5.8.4,1.9-.8,2.3-.6.7-1.1,1.9.4,1.5.4-1.1,1.4-2.6,2.7-2,1.3.3,2.4,2.4,3.4.8,0-.4-1.6-.7-1.6-1.7-.7-.3-2.2.2-2.2-.9-1-.5-1.3,1.8-1.7.5,0-.2-.2-.4-.3-.6ZM45.8,10.5c-1.2.2-2.4.5-3.4,1.3.3,1.1-1.2,1.3-1.8,1.9-.5.3,0,2.3.4,2,.9-1.1,1.3-.2,2.1.4.7.7,1.2-1.2.8-1.8-.2-.9.9-1.5,1.3-2.2,1.2-.8.2,1,.1,1.6-.6,1.8,2.7,0,.5,1.4-.6.6-.8,1.4-1.7,1.9-.5.6-2.3.3-2.1-.6-.7-1.1-.5,1.3-.7,1.3-1.1-.3-1.4.9-2.1,1.5-.5.6-2.4.2-1,1.2,1,1.2-.2,1-1.1,1.3-1.2.2-1,1.3-1,2.2,0,.5,1.2,1.3,1.8.9,1.2-.1.9-1.6,1.7-2,.7-.6,1.2-1.2,2.3-1.2.5.5,1.5,1.2,1.9,1.6-1.1,1.2.5,1.1.7,0,.6-.6-1.8-2.1-.3-1.4,1,.3.8,1.4,1.3,2.1.8,1.4.9.4,1-.7,1.4-.4,1.7,2.4,3.6,1.7,1.4.4.7,1.3-.1,1.8-.8.6-2,.2-2.9-.1-.9-.4-1.9-.2-2.4.7-1-.9-1.7-2.3-3.2-2.3-1.4,0-2.8.3-4.1.7-1.5,1.7-3.1,3.4-3.8,5.7-.7.9.8,1.4-.3,2.2-.8.8.3,1.7.4,2.5.9,1,2.2,4.4,3.6,3.1.8-1.2,1.3.8,2.2-.5.8-.7,1.4.7,2.4.2.9.5,1,1.4.5,2.3-.3.9,1.4,1.3.9,2.3-.2,1,.2,1.9.7,2.7-1.1,1.2-1,2.9-.7,4.4.5,2,1.3,4,1.3,6.2,1,.3,1.7-.4,2.5-.7,1.6.2,2.4-1.4,3.4-2.4-.7-1,.6-1.4,1.1-2-.8-.7-1.4-1.4,0-1.9.6-.6,1.7-.9,1.9-1.8-.5-1.5-.2-3.1-.3-4.6.6-1.2,1.3-2.5,2.3-3.4.4-1.4,1.4-2.6,1.3-4-2.4.7-1.7-.3-.3-1.3.9-.7,2.2-1.3,2.5-2.5.2-1.1-.7-2.9-1.5-1.2-.4-.5-1.7-1-1.7-1.9-.3-1.7.5-.7,1.1.1,1.5-1.1,3.5,3.1,2.9,0-.9-6.6-4.2-12.8-9.2-17.1-.5.5-1.2,2.3-1.8,1.3-.8-.8-1.4-1.6.2-1.3,1.6-.4,0-.7-.8-.8-.8,0-1.6-.4-2.4-.7h0ZM15.2,10.5c-1,.4.5,1.9-1.3,1.4-2,.9-3.4,3.2-4.8,4.9-3.3,4.7-5.1,10.3-5.1,16,.5,1.1,1.9,1.5,2.9,2.1,1,.3,2.3.3,2.8,1.4.6.6,1.3,1.4,2.1,1.4,1.2-.4,1.4.7.8,1.6,0,.9-1.1,1.6-1,2.4.2.9-1.1,1.9-.2,2.7,1,1.7,2,3.4,3.3,4.9.8.7.7,1.7.6,2.6-.3,1,.7,1.6,1.2,2.4-1.3,2.3,2.2,2.8,3.6,3.8.7-.7.8-1.7,2-1.8.7-.5.9-1.7,1.4-2.4,0-.8-.5-1.6.3-2.5.6-.5,2-.2,2.2-1.3.9-.9.2-2.1.2-3.2.7-.9,1.8-1.6,1.7-2.9.1-1.9-3.3-1.8-4.5-3-1.5,0-1.2-2.1-2.3-2.3-1.1,0-1.6-.8-2-1.7-.6-.4-1.8.4-2.5,0-.7-.4-1.4-1.9-2.3-.9-1.1.8-2.2,1.6-3.2.3-.7-.6.2-2.4-.8-2.2-2.1.7.7-3-1.3-2.5-.5.7-1.3,1.8-2.2,1-.9-.4-.4-1.7-.4-2.5,0-.9,1.2-1.4,1.9-1.8,1.3.6,1-1.1,2.1-.6,1-.2,1.5,1.5,1.9,1.5.2-.8-.2-2,.6-2.6.9-.8,2.1-1.3,2.3-2.6,0-1.4,1.7-.2,2.1-1.1.4-1.1,1.5-1,2.4-1.2.5-.5,1.8-1.9.2-1.5-.6,0-2.9.2-1.3-.3.8-.6,1.7-.5,2.6-.6.7-.6,1.9-.8,1.9-1.8-.6-.8-1.8-.6-1.3-1.7,0-1.4-1.3-.5-1.7-.6.7-.9-.9-1.5-1.4-1.6-.4.9-1.4,1.7-1,2.7-1,.2-1.5.9-1.8,1.9-.3.1-.2-1.8-1.4-1.7-.8,0-1.9-1.3-1-1.8,1.2-.8,2.7-1.4,3.5-2.6.4-1.1-.4-1.8-1.5-1.6h-.2s0,0,0,0ZM35.8,11.8c-.7.5-2,.2-2.3.7-.1,1,1.5,1,2.1.4,1-.4,1-.3.2-1.1ZM20.8,12.3c-1.4.4-.3,1.4.7,1.3,1.1,0,0-1.3-.7-1.3ZM37.9,15.1c-.1.9.8,1.5.4,2.5-.6,1.3.2,1.6,1.2.9,1.3-.8-1-2.5-1.3-3.3-.1,0-.2,0-.3,0ZM37.4,16.6c-1.2-.3-.8,2.2,0,1.3.9-.2,0-.8,0-1.3ZM22.5,18.8c.2.9.2,2.4.9.8,0-.3-.7-.5-.9-.8ZM50.8,28.4c1.4,1.2,1.9,2.9,2.7,4.5,1.2.6.5,1.5.6,2.3,1.6,1.4-1.6.7-1.2-.9-.3-1.8-1.4-3-2.3-4.3,0-.7-.8-1.5.2-1.7Z"/>
    <path class="st25" d="M32.1,5.3c-2.2.2-4.3.5-6.3,1.2-.7,0-2.3,1-1,1.4.6.6,2,.8,1.9,1.9.2.9-2.1.9-1.4,1.7.6.7,1.1,1.5,1.7,2.2,1-.3,1.4-1.4,1.9-2.2,1.6-.7,3.9-.9,4.9-2.3.3-1,.7-1.9,1-2.9-.9-.4-1.8-.7-2.7-1.1ZM24.5,5.6c-1-.1-1.6.5-2.4.9-.9.1-1.9.4-2.5,1.2,1,.5,1.7,0,2.5-.4.8-.4,3.6-.6,2.3-1.7ZM18.1,8.5c-.5.8.4,1.9-.8,2.3-.6.7-1.1,1.9.4,1.5.4-1.1,1.4-2.6,2.7-2,1.3.3,2.4,2.4,3.4.8,0-.4-1.6-.7-1.6-1.7-.7-.3-2.2.2-2.2-.9-1-.5-1.3,1.8-1.7.5,0-.2-.2-.4-.3-.6ZM45.8,9.5c-1.2.2-2.4.5-3.4,1.3.3,1.1-1.2,1.3-1.8,1.9-.5.3,0,2.3.4,2,.9-1.1,1.3-.2,2.1.4.7.7,1.2-1.2.8-1.8-.2-.9.9-1.5,1.3-2.2,1.2-.8.2,1,.1,1.6-.6,1.8,2.7,0,.5,1.4-.6.6-.8,1.4-1.7,1.9-.5.6-2.3.3-2.1-.6-.7-1.1-.5,1.3-.7,1.3-1.1-.3-1.4.9-2.1,1.5-.5.6-2.4.2-1,1.2,1,1.2-.2,1-1.1,1.3-1.2.2-1,1.3-1,2.2,0,.5,1.2,1.3,1.8.9,1.2-.1.9-1.6,1.7-2,.7-.6,1.2-1.2,2.3-1.2.5.5,1.5,1.2,1.9,1.6-1.1,1.2.5,1.1.7,0,.6-.6-1.8-2.1-.3-1.4,1,.3.8,1.4,1.3,2.1.8,1.4.9.4,1-.7,1.4-.4,1.7,2.4,3.6,1.7,1.4.4.7,1.3-.1,1.8-.8.6-2,.2-2.9-.1-.9-.4-1.9-.2-2.4.7-1-.9-1.7-2.3-3.2-2.3-1.4,0-2.8.3-4.1.7-1.5,1.7-3.1,3.4-3.8,5.7-.7.9.8,1.4-.3,2.2-.8.8.3,1.7.4,2.5.9,1,2.2,4.4,3.6,3.1.8-1.2,1.3.8,2.2-.5.8-.7,1.4.7,2.4.2.9.5,1,1.4.5,2.3-.3.9,1.4,1.3.9,2.3-.2,1,.2,1.9.7,2.7-1.1,1.2-1,2.9-.7,4.4.5,2,1.3,4,1.3,6.2,1,.3,1.7-.4,2.5-.7,1.6.2,2.4-1.4,3.4-2.4-.7-1,.6-1.4,1.1-2-.8-.7-1.4-1.4,0-1.9.6-.6,1.7-.9,1.9-1.8-.5-1.5-.2-3.1-.3-4.6.6-1.2,1.3-2.5,2.3-3.4.4-1.4,1.4-2.6,1.3-4-2.4.7-1.7-.3-.3-1.3.9-.7,2.2-1.3,2.5-2.5.2-1.1-.7-2.9-1.5-1.2-.4-.5-1.7-1-1.7-1.9-.3-1.7.5-.7,1.1.1,1.5-1.1,3.5,3.1,2.9,0-.9-6.6-4.2-12.8-9.2-17.1-.5.5-1.2,2.3-1.8,1.3-.8-.8-1.4-1.6.2-1.3,1.6-.4,0-.7-.8-.8-.8,0-1.6-.4-2.4-.7h0ZM15.2,9.5c-1,.4.5,1.9-1.3,1.4-2,.9-3.4,3.2-4.8,4.9-3.3,4.7-5.1,10.3-5.1,16,.5,1.1,1.9,1.5,2.9,2.1,1,.3,2.3.3,2.8,1.4.6.6,1.3,1.4,2.1,1.4,1.2-.4,1.4.7.8,1.6,0,.9-1.1,1.6-1,2.4.2.9-1.1,1.9-.2,2.7,1,1.7,2,3.4,3.3,4.9.8.7.7,1.7.6,2.6-.3,1,.7,1.6,1.2,2.4-1.3,2.3,2.2,2.8,3.6,3.8.7-.7.8-1.7,2-1.8.7-.5.9-1.7,1.4-2.4,0-.8-.5-1.6.3-2.5.6-.5,2-.2,2.2-1.3.9-.9.2-2.1.2-3.2.7-.9,1.8-1.6,1.7-2.9.1-1.9-3.3-1.8-4.5-3-1.5,0-1.2-2.1-2.3-2.3-1.1,0-1.6-.8-2-1.7-.6-.4-1.8.4-2.5,0-.7-.4-1.4-1.9-2.3-.9-1.1.8-2.2,1.6-3.2.3-.7-.6.2-2.4-.8-2.2-2.1.7.7-3-1.3-2.5-.5.7-1.3,1.8-2.2,1-.9-.4-.4-1.7-.4-2.5,0-.9,1.2-1.4,1.9-1.8,1.3.6,1-1.1,2.1-.6,1-.2,1.5,1.5,1.9,1.5.2-.8-.2-2,.6-2.6.9-.8,2.1-1.3,2.3-2.6,0-1.4,1.7-.2,2.1-1.1.4-1.1,1.5-1,2.4-1.2.5-.5,1.8-1.9.2-1.5-.6,0-2.9.2-1.3-.3.8-.6,1.7-.5,2.6-.6.7-.6,1.9-.8,1.9-1.8-.6-.8-1.8-.6-1.3-1.7,0-1.4-1.3-.5-1.7-.6.7-.9-.9-1.5-1.4-1.6-.4.9-1.4,1.7-1,2.7-1,.2-1.5.9-1.8,1.9-.3.1-.2-1.8-1.4-1.7-.8,0-1.9-1.3-1-1.8,1.2-.8,2.7-1.4,3.5-2.6.4-1.1-.4-1.8-1.5-1.6h-.2s0,0,0,0ZM35.8,10.8c-.7.5-2,.2-2.3.7-.1,1,1.5,1,2.1.4,1-.4,1-.3.2-1.1ZM20.8,11.3c-1.4.4-.3,1.4.7,1.3,1.1,0,0-1.3-.7-1.3ZM37.9,14.1c-.1.9.8,1.5.4,2.5-.6,1.3.2,1.6,1.2.9,1.3-.8-1-2.5-1.3-3.3-.1,0-.2,0-.3,0ZM37.4,15.6c-1.2-.3-.8,2.2,0,1.3.9-.2,0-.8,0-1.3ZM22.5,17.8c.2.9.2,2.4.9.8,0-.3-.7-.5-.9-.8ZM50.8,27.4c1.4,1.2,1.9,2.9,2.7,4.5,1.2.6.5,1.5.6,2.3,1.6,1.4-1.6.7-1.2-.9-.3-1.8-1.4-3-2.3-4.3,0-.7-.8-1.5.2-1.7Z"/>
    <path class="st13" d="M29,26.9c-1.7,0-3,1.3-3,2.9v13.1h-5c-1.1,0-2,.7-2,1.6,0,.3,0,.5.3.8l11,14.8c.6.8,1.8,1,2.8.6.3-.1.6-.3.7-.6l11-14.8c.6-.8.2-1.7-.7-2.2-.3-.1-.7-.2-1-.2h-5v-13.1c0-1.6-1.3-2.9-3-2.9h-6Z"/>
    <path class="st17" d="M29,25.9h6c1.7,0,3,1.3,3,2.9v13.2c0,1.6-1.3,2.9-3,2.9h-6c-1.7,0-3-1.3-3-2.9v-13.2c0-1.6,1.3-2.9,3-2.9Z"/>
    <path class="st17" d="M21,41.9c-1.1,0-2,.7-2,1.6,0,.3,0,.5.3.8l11,14.8c.6.8,1.8,1,2.8.6.3-.1.6-.3.7-.6l11-14.8c.6-.8.2-1.7-.7-2.2-.3-.1-.7-.2-1-.2h-22Z"/>
    <path class="st14" d="M29,25.9c-1.7,0-3,1.3-3,2.9v1c0-1.6,1.3-2.9,3-2.9h6c1.7,0,3,1.3,3,2.9v-1c0-1.6-1.3-2.9-3-2.9h-6ZM21,41.9c-1.1,0-2,.7-2,1.6,0,.2,0,.3.1.5.3-.6,1-1.1,1.9-1.1h5v-1h-5ZM38,41.9v1h5c.9,0,1.6.4,1.9,1.1.4-.8-.2-1.7-1.3-2-.2,0-.4,0-.6,0h-5Z"/>
    <path class="st15" d="M32,3.9c-15.5,0-28,12.5-28,28s0,.3,0,.5c.3-15.3,12.6-27.5,28-27.5s27.7,12.2,28,27.5c0-.2,0-.3,0-.5,0-15.5-12.5-28-28-28Z"/>
  </g>
  <g>
    <path class="st1" d="M0,56.1v2.2c0,1.8,1.6,3.2,3.6,3.2h45c2,0,3.6-1.4,3.6-3.2v-2.2c0,1.8-1.6,3.2-3.6,3.2H3.6c-2,0-3.6-1.4-3.6-3.2Z"/>
    <path class="st2" d="M3.6,0C1.6,0,0,1.4,0,3.2v53.9c0,1.8,1.6,3.2,3.6,3.2h45c2,0,3.6-1.4,3.6-3.2V3.2c0-1.8-1.6-3.2-3.6-3.2H3.6Z"/>
    <path class="st13" d="M12.9,0C6.7,0,.1,6.3.1,13v38.2c0,5.4,5.5,12.8,12.8,12.8h0V0h0Z"/>
    <path class="st13" d="M33.2,1.1v30.2l4.7-4.3,4.7,4.3V1.1h-9.5Z"/>
    <path class="st19" d="M33.2,0v30.2l4.7-4.3,4.7,4.3V0h-9.5Z"/>
    <path class="st7" d="M3.6,0C1.6,0,0,1.4,0,3.2v1.1C0,2.5,1.6,1.1,3.6,1.1h45c2,0,3.6,1.4,3.6,3.2v-1.1c0-1.8-1.6-3.2-3.6-3.2H3.6Z"/>
    <path class="st5" d="M63.9,45.1c-.5,9.2-8.8,16.3-18.9,16.3-9.9,0-18.2-7-18.9-16,0,.3,0,.6,0,.9,0,9.5,8.5,17.3,19,17.3s19-7.7,19-17.3c0-.4,0-.8,0-1.2Z"/>
    <ellipse class="st3" cx="45" cy="45.3" rx="19" ry="17.3"/>
    <path class="st4" d="M42.6,36.7l-.2,2.3c-.8.3-1.5.7-2.2,1.1l-2.3-1-2.4,3.7,2.1,1.3c0,.4-.1.8-.1,1.1,0,.4,0,.8.1,1.1l-2.1,1.3,2.4,3.7,2.3-1c.7.5,1.4.9,2.2,1.1l.2,2.3h4.7l.2-2.3c.8-.3,1.5-.7,2.2-1.1l2.3,1,2.4-3.7-2.1-1.3c0-.4.1-.8.1-1.1,0-.4,0-.8-.1-1.1l2.1-1.3-2.4-3.7-2.3,1c-.7-.5-1.4-.9-2.2-1.1l-.2-2.3h-4.7ZM44.9,42.8c1.5,0,2.7,1.1,2.7,2.5h0c0,1.4-1.2,2.5-2.7,2.5h0c-1.5,0-2.7-1.1-2.7-2.5h0c0-1.4,1.2-2.5,2.7-2.5h0Z"/>
  </g>
  <g>
    <path class="st1" d="M0,56.4v2.2c0,1.8,1.6,3.3,3.5,3.3h44.6c2,0,3.5-1.5,3.5-3.3v-2.2c0,1.8-1.6,3.3-3.5,3.3H3.5c-2,0-3.5-1.5-3.5-3.3Z"/>
    <path class="st2" d="M3.5,0C1.6,0,0,1.5,0,3.3v54.2c0,1.8,1.6,3.3,3.5,3.3h44.6c2,0,3.5-1.5,3.5-3.3V3.3c0-1.8-1.6-3.3-3.5-3.3H3.5Z"/>
    <path class="st1" d="M3.5,0C1.6,0,0,1.5,0,3.3v54.2c0,1.8,1.6,3.3,3.5,3.3h5.9V0H3.5Z"/>
    <path class="st13" d="M32.9,1.1v30.4l4.7-4.3,4.7,4.3V1.1h-9.4Z"/>
    <path class="st19" d="M32.9,0v30.4l4.7-4.3,4.7,4.3V0h-9.4Z"/>
    <path class="st7" d="M3.5,0C1.6,0,0,1.5,0,3.3v1.1C0,2.5,1.6,1.1,3.5,1.1h44.6c2,0,3.5,1.5,3.5,3.3v-1.1c0-1.8-1.6-3.3-3.5-3.3H3.5Z"/>
    <path class="st11" d="M63.3,45.4c-.5,9.2-8.8,16.4-18.7,16.4-9.8,0-18-7-18.7-16.1,0,.3,0,.6,0,.9,0,9.6,8.4,17.4,18.8,17.4s18.8-7.8,18.8-17.4c0-.4,0-.8,0-1.2Z"/>
    <ellipse class="st23" cx="44.6" cy="45.6" rx="18.8" ry="17.4"/>
    <path class="st16" d="M44.6,38c-2.3,0-4.6.6-6.5,1.7-.8.5-1.7,1.2-2.5,1.9-1.1,1.1-2.1,2.5-2.7,4,1.8,4.1,5.7,7.1,10,7.5,2.8.3,5.8-.2,8.3-1.6.8-.5,1.7-1.2,2.5-1.9,1.1-1.1,2.1-2.5,2.7-4-1.8-4.1-5.7-7.1-10-7.5-.6,0-1.2-.1-1.7-.1ZM44.6,41.2c2.5,0,4.7,2,4.7,4.3,0,2.6-2.7,4.8-5.4,4.3-2.7-.3-4.7-3.1-3.8-5.6.6-1.8,2.5-3.1,4.5-3.1h0ZM44.6,43.4c-1.3,0-2.3,1-2.3,2.2,0,0,0,0,0,0,0,1.2,1.1,2.2,2.3,2.2s2.3-1,2.3-2.2c0-1.2-1.1-2.2-2.3-2.2h0Z"/>
  </g>
</svg>