<?xml version="1.0" encoding="UTF-8" standalone="no"?>
<svg
   id="_图层_1"
   version="1.1"
   viewBox="0 0 64 64" width="64" height="64"
   sodipodi:docname="checkbox.svg"
   xml:space="preserve"
   inkscape:version="1.4 (e7c3feb100, 2024-10-09)"
   xmlns:inkscape="http://www.inkscape.org/namespaces/inkscape"
   xmlns:sodipodi="http://sodipodi.sourceforge.net/DTD/sodipodi-0.dtd"
   xmlns="http://www.w3.org/2000/svg"
   xmlns:svg="http://www.w3.org/2000/svg"><sodipodi:namedview
     id="namedview26"
     pagecolor="#505050"
     bordercolor="#eeeeee"
     borderopacity="1"
     inkscape:showpageshadow="0"
     inkscape:pageopacity="0"
     inkscape:pagecheckerboard="0"
     inkscape:deskcolor="#505050"
     inkscape:zoom="10.6875"
     inkscape:cx="32"
     inkscape:cy="29.005848"
     inkscape:window-width="1920"
     inkscape:window-height="939"
     inkscape:window-x="0"
     inkscape:window-y="34"
     inkscape:window-maximized="1"
     inkscape:current-layer="_图层_1" /><!-- Generator: Adobe Illustrator 29.0.1, SVG Export Plug-In . SVG Version: 2.1.0 Build 192)  --><defs
     id="defs6"><style
       id="style1">
      .st0 {
        fill-opacity: .5;
      }

      .st0, .st1, .st2, .st3, .st4, .st5, .st6, .st7 {
        fill: #fff;
      }

      .st8 {
        fill: #133c9a;
      }

      .st2, .st9 {
        display: none;
      }

      .st3 {
        fill-opacity: .2;
      }

      .st4 {
        fill-opacity: .9;
      }

      .st10 {
        fill: #3370ff;
      }

      .st11 {
        fill: url(#_未命名的渐变_3);
      }

      .st12 {
        fill: url(#_未命名的渐变);
      }

      .st5 {
        fill-opacity: .3;
      }

      .st6 {
        fill-opacity: 0;
      }

      .st7 {
        fill-opacity: .7;
      }

      .st13 {
        fill: #00d6b9;
      }

      .st14 {
        fill: url(#_未命名的渐变_2);
      }
    </style><radialGradient
       id="_未命名的渐变"
       data-name="未命名的渐变"
       cx="123.9"
       cy="-40.2"
       fx="123.9"
       fy="-40.2"
       r="59.4"
       gradientTransform="translate(-26.8 25.5) scale(.6 -.7)"
       gradientUnits="userSpaceOnUse"><stop
         offset="0"
         stop-color="#db202e"
         id="stop1" /><stop
         offset="1"
         stop-color="#e01b24"
         id="stop2" /></radialGradient><radialGradient
       id="_未命名的渐变_2"
       data-name="未命名的渐变 2"
       cx="67.6"
       cy="26.8"
       fx="67.6"
       fy="26.8"
       r="105.2"
       gradientTransform="translate(-26.6 25.3) scale(.6 -.7)"
       gradientUnits="userSpaceOnUse"><stop
         offset="0"
         stop-color="#ffb648"
         id="stop3" /><stop
         offset="1"
         stop-color="#ff7800"
         stop-opacity="0"
         id="stop4" /></radialGradient><radialGradient
       id="_未命名的渐变_3"
       data-name="未命名的渐变 3"
       cx="61.7"
       cy="18.6"
       fx="61.7"
       fy="18.6"
       r="68"
       gradientTransform="translate(-26.8 25.8) scale(.6 -.7)"
       gradientUnits="userSpaceOnUse"><stop
         offset="0"
         stop-color="#c64600"
         id="stop5" /><stop
         offset="1"
         stop-color="#a51d2d"
         id="stop6" /></radialGradient></defs><path
     class="st1"
     d="M47.5,64.1H13.8c-7.6,0-13.8-6.3-13.8-13.8V13.7C0,6.2,6.2,0,13.7,0h36.6c7.5,0,13.7,6.2,13.7,13.7v36.6c0,7.5-6.2,13.7-13.7,13.7h-2.9.1Z"
     id="path6"
     style="fill:#f56e2c;fill-opacity:1" /><g
     id="g26"
     transform="matrix(1.034308,0,0,1.0206165,-4.008577,-3.9274953)"><path
       style="opacity:0.2"
       d="M 47.86,31 A 16,16 0 0 0 42.07,20.602 C 41.42,20.844 40.73,21 40,21 37.484,21 35.32,19.412 34.434,17.1954 A 16,16 0 0 0 32,17 16,16 0 0 0 25.792,18.254 l 3.043,5.2734 a 10,10 0 0 1 3.164,-0.528 10,10 0 0 1 9.789,8 h 6.0704 z m -0.004,4 h -6.0586 a 10,10 0 0 1 -9.7968,8 10,10 0 0 1 -3.164,-0.52344 l -3.0352,5.2578 a 16,16 0 0 0 6.198,1.266 16,16 0 0 0 2.442,-0.21 c 0.888,-2.208 3.048,-3.79 5.558,-3.79 0.73222,0 1.42684,0.15346 2.0782,0.39844 a 16,16 0 0 0 5.778,-10.398 z M 44,15 a 4,4 0 0 0 -4,-4 4,4 0 0 0 -4,4 4,4 0 0 0 4,4 4,4 0 0 0 4,-4 z m 0,36 a 4,4 0 0 0 -4,-4 4,4 0 0 0 -4,4 4,4 0 0 0 4,4 4,4 0 0 0 4,-4 z M 25.376,25.528 22.34,20.27 a 16,16 0 0 0 -5.836,8.824 c 0.9179,1.05526 1.4961,2.4126 1.4961,3.9062 0,1.49176 -0.57644,2.8476 -1.49218,3.9024 a 16,16 0 0 0 5.8282,8.836 l 3.04,-5.262 a 10,10 0 0 1 -3.376,-7.476 10,10 0 0 1 3.376,-7.472 z M 16,33 a 4,4 0 0 0 -4,-4 4,4 0 0 0 -4,4 4,4 0 0 0 4,4 4,4 0 0 0 4,-4 z"
       id="path3" /><path
       style="fill:#ffffff"
       d="M 47.86,30 A 16,16 0 0 0 42.07,19.6016 C 41.42,19.8448 40.73,20 40,20 37.484,20 35.32,18.411 34.434,16.1954 A 16,16 0 0 0 32,16 16,16 0 0 0 25.792,17.254 l 3.043,5.2734 a 10,10 0 0 1 3.164,-0.528 10,10 0 0 1 9.789,8 h 6.0704 z m -0.004,4 h -6.0586 a 10,10 0 0 1 -9.7968,8 10,10 0 0 1 -3.164,-0.52344 l -3.0352,5.2578 a 16,16 0 0 0 6.198,1.266 16,16 0 0 0 2.442,-0.21 c 0.888,-2.208 3.048,-3.79 5.558,-3.79 0.73222,0 1.42684,0.15346 2.0782,0.39844 a 16,16 0 0 0 5.778,-10.398 z M 44,14 a 4,4 0 0 0 -4,-4 4,4 0 0 0 -4,4 4,4 0 0 0 4,4 4,4 0 0 0 4,-4 z m 0,36 a 4,4 0 0 0 -4,-4 4,4 0 0 0 -4,4 4,4 0 0 0 4,4 4,4 0 0 0 4,-4 z M 25.376,24.528 22.34,19.2696 a 16,16 0 0 0 -5.836,8.8244 c 0.9179,1.05526 1.4961,2.4126 1.4961,3.9062 0,1.49176 -0.57644,2.8476 -1.49218,3.9024 a 16,16 0 0 0 5.8282,8.836 l 3.04,-5.262 a 10,10 0 0 1 -3.376,-7.476 10,10 0 0 1 3.376,-7.472 z M 16,32 a 4,4 0 0 0 -4,-4 4,4 0 0 0 -4,4 4,4 0 0 0 4,4 4,4 0 0 0 4,-4 z"
       id="path4" /><path
       style="opacity:0.2;fill-rule:evenodd"
       d="M 63.954,47.918 A 14,14 0 0 1 50,61 14,14 0 0 1 36.046,48.082 14,14 0 0 0 36,49 14,14 0 0 0 50,63 14,14 0 0 0 64,49 14,14 0 0 0 63.954,47.918 Z"
       id="path5" /><circle
       style="fill:#8561c5"
       cx="50"
       cy="48"
       r="14"
       id="circle5" /><path
       style="fill:#ffffff"
       d="m 47.928,40 -0.1764,2.1072 a 6.2858,6.2858 0 0 0 -1.83704,1.06252 l -1.91518,-0.9018 -2,3.4642 1.73882,1.2076 a 6.2858,6.2858 0 0 0 -0.096,1.06026 6.2858,6.2858 0 0 0 0.0914,1.06474 l -1.734,1.204 2,3.4642 1.91072,-0.89956 a 6.2858,6.2858 0 0 0 1.8415,1.0558 l 0.1764,2.1116 h 4 l 0.1764,-2.1072 a 6.2858,6.2858 0 0 0 1.83708,-1.06252 l 1.91516,0.9018 2,-3.4642 -1.73884,-1.2076 a 6.2858,6.2858 0 0 0 0.096,-1.06026 6.2858,6.2858 0 0 0 -0.0914,-1.06474 l 1.73438,-1.20312 -2,-3.4642 -1.91072,0.89956 a 6.2858,6.2858 0 0 0 -1.84152,-1.0558 l -0.1764,-2.1116 h -4 z m 2,5.7144 a 2.2858,2.2858 0 0 1 2.286,2.286 2.2858,2.2858 0 0 1 -2.286,2.286 2.2858,2.2858 0 0 1 -2.286,-2.286 2.2858,2.2858 0 0 1 2.286,-2.286 z"
       id="path6-2" /></g></svg>
