<?xml version="1.0" encoding="UTF-8"?>
<svg id="_图层_1" xmlns="http://www.w3.org/2000/svg" version="1.1" viewBox="0 0 64 64" width="64" height="64">
  <!-- Generator: Adobe Illustrator 29.0.1, SVG Export Plug-In . SVG Version: 2.1.0 Build 192)  -->
  <defs>
    <style>
      .st0 {
        fill: #3cae48;
      }

      .st1 {
        display: none;
        isolation: isolate;
        opacity: .2;
      }

      .st1, .st2 {
        stroke: #520;
        stroke-opacity: 0;
        stroke-width: .2px;
      }

      .st2 {
        fill: #fff;
      }
    </style>
  </defs>
  <path class="st0" d="M47.5,64.1H13.8c-7.6,0-13.8-6.3-13.8-13.8V13.7C0,6.2,6.2,0,13.7,0h36.6c7.5,0,13.7,6.2,13.7,13.7v36.6c0,7.5-6.2,13.7-13.7,13.7h-2.9.1Z"/>
  <g>
    <path class="st1" d="M28.2,1.3c.4.6.6,1.4.6,2.1,0,1.5-.6,1.9-1.3,1-.4-.5-1.1-1-1.6-1s-1.9.9-1.9,1.2.3.1.8,0c.8,0,1.1,0,1.1.7,0,.6-1,1.8-2.8,3.2-2.2,1.8-2.9,2.7-2.9,3.3s-.2.6-.6,1l-.6.5.3.6c.4.8.4,1-.2,1.7-.7.8-.7,1.2-.4,1.7.4.5.4,1.8,0,3.6-.3,1.5-.1,3.6.4,5.4.2.8.9,2.8,1.6,4.5,1.4,3.6,1.6,4.5,1.9,6.2.3,2.4-.3,4.3-1.7,5.7-1,1-1.7,1.2-2.5.8-1.7-.7-2.8-2.9-4.7-9.7-2-6.8-3.7-9.7-7.5-12.5-1.5-1.1-3.9-2.8-6-4.5v21.4c2.5,2.4,5.5,4.4,8.4,5.9.8.4,1.6.9,1.6.9,0,0-.3.2-.8.3-3.7.5-7,1.7-9.2,3.7v13c0,1.2.7,2.3,1.7,2.8.5.2,1,.4,1.5.4h49.7c.9-1.4,1.5-3.1,1.2-4-.6-2.4-4.8-3.3-9.5-2.1-.8.2-2.8.9-4.4,1.4-2.1.8-3.1,1-3.7,1-1,0-1.7-.2-1.9-.6-.2-.4.3-2.6.7-3.6,1.1-2.4,2.7-3.2,4.8-2.5.9.3.8.3.8,0s-.2-.4-.5-.7c-.7-.7-1.7-.7-3.6,0-.7.3-1.4.5-1.4.4,0,0-.1-.7-.2-1.4-.2-2.3.3-3.2,1.8-3.1h.8s-.5-.4-.5-.4c-.7-.6-1.1-.5-1.9.2-.8.7-1.2,1.8-1.2,3.1s-.5,1.5-1.3,0c-.7-1.4-.5-3.1.3-2.9.4,0,.4,0,0-.7-.6-1.1-.5-2.2.1-2.9.3-.3,1-1.4,1.6-2.4,1.4-2.4,2.7-4,4.6-6,3.6-3.6,7.2-6,15.3-10,4.9-2.4,7.4-3.5,8.9-4.3v-2.6c-1.7.8-3.9,1.7-6.2,2.7-5.9,2.6-10.5,4.9-12.9,6.5-4,2.6-7.8,6-10.2,9.2-.7,1-1.4,1.8-1.5,1.8s-.4-.3-.7-.7c-.5-.7-.5-.8-.6-2.5v-1.8c0,0-.7-.7-.7-.7-.6-.6-.6-.7-.5-1.1.3-.8,0-1.5-.9-2.4-.7-.8-.8-.9-.8-1.4.1-.7-.2-1.2-1-1.7-.4-.3-.6-.5-.6-.8s-.1-.7-.3-1c-1.6-3.1-1.6-4,0-3.4.7.3,1,0,1.3-.8.2-.5.5-1,.7-1.1.6-.4,1.6-.2,2.1.4.6.7,1.3,1.1,1.7.9.3-.1.4-.2.3-1-.3-2.5-.3-3.3-.1-3.3s.8.6,1.6,1.4c1.2,1.2,1.5,1.7,2.3,3.3.5,1.1,1,2.1,1,2.3s0,.4.2.4c.2,0,.3-1.5.2-2.1,0-.4,0-.6.2-.6.3,0,.2-.2-.3-1.4-.6-1.2-1.4-3.3-1.3-3.4,0,0,.7-.1,1.4-.2,1.7-.2,2.9,0,4.5.7.6.3,1.1.5,1.2.5s0-.2-.1-.5c-.2-.6-1.4-1.8-3.5-3.5-1.8-1.5-2.8-2.5-2.8-2.8,0-.6-.6-2-1.2-2.8-1.1-1.5-.9-1.8,1.2-2.2.7-.1,1.1-.3,1.3-.6.4-.5.4-.8,0-.6-.5.2-1.9.4-2,.3,0,0,.2-.4.6-.8.7-.8,1.4-1.9,1.4-2.4,0-.2-.2,0-.4.5-.5,1-1,1.3-1.8,1.3s-.6,0-.6,0,.2-.6.5-1.2c.7-1.6.8-2.4.3-3.1h0s-.4,0-.4,0v.8c-.3,2-1,3.5-1.6,3.5s-.4-.2-.5-.3c-.2-.3-.3-.7-.3-2.1,0-.7,0-1.4-.1-1.8h-.9c0,1.2-.2,2.4-.9,3-.3.3-.6.6-.7.5,0,0-.1-.5-.1-1.1,0-1-.2-1.9-.7-2.5h-2.2ZM31.3,52.4l.6.3c.9.5,1.3,1.3,1.3,2.4s-.3,1.8-2.1,2.6c-.9.4-2.2.9-3.1,1.2-1.6.5-4,.7-4.5.4-.3-.1-.2-.2.8-.9.6-.4,1.6-1.1,2.2-1.5.6-.4,1.5-1,2.1-1.5.9-.7,1.3-1.1,2.4-2.7l.3-.5ZM31,59.3c.5,0,.8.3,1.4,1.1.4.5.8,1,.9,1,.3.2.2.4-.2.4s-1.2.4-2.2.9c-1.9.9-3,1.2-3.6.8-.2-.1-.8-.4-1.3-.6-.5-.2-1-.4-1-.5,0-.2,1-1,1.7-1.4.4-.2,1.5-.7,2.5-1.1.9-.4,1.4-.6,1.8-.6Z"/>
    <path class="st2" d="M28.2.1c.4.6.6,1.4.6,2.1,0,1.5-.6,1.9-1.3,1-.4-.5-1.1-1-1.6-1s-1.9.9-1.9,1.2.3.1.8,0c.8,0,1.1,0,1.1.7,0,.6-1,1.8-2.8,3.2-2.2,1.8-2.9,2.7-2.9,3.3s-.2.6-.6,1l-.6.5.3.6c.4.8.4,1-.2,1.7-.7.8-.7,1.2-.4,1.7.4.5.4,1.8,0,3.6-.3,1.5-.1,3.6.4,5.4.2.8.9,2.8,1.6,4.5,1.4,3.6,1.6,4.5,1.9,6.2.3,2.4-.3,4.3-1.7,5.7-1,1-1.7,1.2-2.5.8-1.7-.7-2.8-2.9-4.7-9.7-2-6.8-3.7-9.7-7.5-12.5-1.5-1.1-3.9-2.8-6-4.5v21.4c2.5,2.4,5.5,4.4,8.4,5.9.8.4,1.6.9,1.6.9,0,0-.3.2-.8.3-3.7.5-7,1.7-9.2,3.7v1.1c-.2,8.4,4.1,15.2,12.1,15,17.6.4,6.7,0,7.2,0h33.6c.9-1.4,1.5-3.1,1.2-4-.6-2.4-4.8-3.3-9.5-2.1-.8.2-2.8.9-4.4,1.4-2.1.8-3.1,1-3.7,1-1,0-1.7-.2-1.9-.6-.2-.4.3-2.6.7-3.6,1.1-2.4,2.7-3.2,4.8-2.5.9.3.8.3.8,0s-.2-.4-.5-.7c-.7-.7-1.7-.7-3.6,0-.7.3-1.4.5-1.4.4,0,0-.1-.7-.2-1.4-.2-2.3.3-3.2,1.8-3.1h.8s-.5-.4-.5-.4c-.7-.6-1.1-.5-1.9.2-.8.7-1.2,1.8-1.2,3.1s-.5,1.5-1.3,0c-.7-1.4-.5-3.1.3-2.9.4,0,.4,0,0-.7-.6-1.1-.5-2.2.1-2.9.3-.3,1-1.4,1.6-2.4,1.4-2.4,2.7-4,4.6-6,3.6-3.6,7.2-6,15.3-10,4.9-2.4,7.4-3.5,8.9-4.3v-2.6c-1.7.8-3.9,1.7-6.2,2.7-5.9,2.6-10.5,4.9-12.9,6.5-4,2.6-7.8,6-10.2,9.2-.7,1-1.4,1.8-1.5,1.8s-.4-.3-.7-.7c-.5-.7-.5-.8-.6-2.5v-1.8c0,0-.7-.7-.7-.7-.6-.6-.6-.7-.5-1.1.3-.8,0-1.5-.9-2.4-.7-.8-.8-.9-.8-1.4.1-.7-.2-1.2-1-1.7-.4-.3-.6-.5-.6-.8s-.1-.7-.3-1c-1.6-3.1-1.6-4,0-3.4.7.3,1,0,1.3-.8.2-.5.5-1,.7-1.1.6-.4,1.6-.2,2.1.4.6.7,1.3,1.1,1.7.9.3-.1.4-.2.3-1-.3-2.5-.3-3.3-.1-3.3s.8.6,1.6,1.4c1.2,1.2,1.5,1.7,2.3,3.3.5,1.1,1,2.1,1,2.3s0,.4.2.4c.2,0,.3-1.5.2-2.1,0-.4,0-.6.2-.6.3,0,.2-.2-.3-1.4-.6-1.2-1.4-3.3-1.3-3.4,0,0,.7-.1,1.4-.2,1.7-.2,2.9,0,4.5.7.6.3,1.1.5,1.2.5s0-.2-.1-.5c-.2-.6-1.4-1.8-3.5-3.5-1.8-1.5-2.8-2.5-2.8-2.8,0-.6-.6-2-1.2-2.8-1.1-1.5-.9-1.8,1.2-2.2.7-.1,1.1-.3,1.3-.6.4-.5.4-.8,0-.6-.5.2-1.9.4-2,.3,0,0,.2-.4.6-.8.7-.8,1.4-1.9,1.4-2.4,0-.2-.2,0-.4.5-.5,1-1,1.3-1.8,1.3s-.6,0-.6,0,.2-.6.5-1.2c.7-1.6.8-2.4.3-3.1h0s-.4,0-.4,0v.8c-.3,2-1,3.5-1.6,3.5s-.4-.2-.5-.3c-.2-.3-.3-.7-.3-2.1,0-.7,0-1.4-.1-1.8h-.9c0,1.2-.2,2.4-.9,3-.3.3-.6.6-.7.5,0,0-.1-.5-.1-1.1,0-1-.2-1.9-.7-2.5h-2.2ZM31.3,51.2l.6.3c.9.5,1.3,1.3,1.3,2.4s-.3,1.8-2.1,2.6c-.9.4-2.2.9-3.1,1.2-1.6.5-4,.7-4.5.4-.3-.1-.2-.2.8-.9.6-.4,1.6-1.1,2.2-1.5.6-.4,1.5-1,2.1-1.5.9-.7,1.3-1.1,2.4-2.7l.3-.5ZM31,58.2c.5,0,.8.3,1.4,1.1.4.5.8,1,.9,1,.3.2.2.4-.2.4s-1.2.4-2.2.9c-1.9.9-3,1.2-3.6.8-.2-.1-.8-.4-1.3-.6-.5-.2-1-.4-1-.5,0-.2,1-1,1.7-1.4.4-.2,1.5-.7,2.5-1.1.9-.4,1.4-.6,1.8-.6Z"/>
  </g>
</svg>