<?xml version="1.0" encoding="UTF-8" standalone="no"?>
<svg
   id="_图层_1"
   version="1.1"
   viewBox="0 0 64 64" width="64" height="64"
   sodipodi:docname="com.endlessnetwork.dragonsapprentice.svg"
   xml:space="preserve"
   inkscape:version="1.4 (e7c3feb100, 2024-10-09)"
   xmlns:inkscape="http://www.inkscape.org/namespaces/inkscape"
   xmlns:sodipodi="http://sodipodi.sourceforge.net/DTD/sodipodi-0.dtd"
   xmlns="http://www.w3.org/2000/svg"
   xmlns:svg="http://www.w3.org/2000/svg"><sodipodi:namedview
     id="namedview26"
     pagecolor="#505050"
     bordercolor="#eeeeee"
     borderopacity="1"
     inkscape:showpageshadow="0"
     inkscape:pageopacity="0"
     inkscape:pagecheckerboard="0"
     inkscape:deskcolor="#505050"
     inkscape:zoom="8.453125"
     inkscape:cx="31.94085"
     inkscape:cy="31.94085"
     inkscape:window-width="1920"
     inkscape:window-height="939"
     inkscape:window-x="0"
     inkscape:window-y="34"
     inkscape:window-maximized="1"
     inkscape:current-layer="_图层_1"
     showguides="true"><sodipodi:guide
       position="14.370841,33.114328"
       orientation="1,0"
       id="guide26"
       inkscape:locked="false" /></sodipodi:namedview><!-- Generator: Adobe Illustrator 29.0.1, SVG Export Plug-In . SVG Version: 2.1.0 Build 192)  --><defs
     id="defs6"><style
       id="style1">
      .st0 {
        fill-opacity: .5;
      }

      .st0, .st1, .st2, .st3, .st4, .st5, .st6, .st7 {
        fill: #fff;
      }

      .st8 {
        fill: #133c9a;
      }

      .st2, .st9 {
        display: none;
      }

      .st3 {
        fill-opacity: .2;
      }

      .st4 {
        fill-opacity: .9;
      }

      .st10 {
        fill: #3370ff;
      }

      .st11 {
        fill: url(#_未命名的渐变_3);
      }

      .st12 {
        fill: url(#_未命名的渐变);
      }

      .st5 {
        fill-opacity: .3;
      }

      .st6 {
        fill-opacity: 0;
      }

      .st7 {
        fill-opacity: .7;
      }

      .st13 {
        fill: #00d6b9;
      }

      .st14 {
        fill: url(#_未命名的渐变_2);
      }
    </style><radialGradient
       id="_未命名的渐变"
       data-name="未命名的渐变"
       cx="123.9"
       cy="-40.2"
       fx="123.9"
       fy="-40.2"
       r="59.4"
       gradientTransform="translate(-26.8 25.5) scale(.6 -.7)"
       gradientUnits="userSpaceOnUse"><stop
         offset="0"
         stop-color="#db202e"
         id="stop1" /><stop
         offset="1"
         stop-color="#e01b24"
         id="stop2" /></radialGradient><radialGradient
       id="_未命名的渐变_2"
       data-name="未命名的渐变 2"
       cx="67.6"
       cy="26.8"
       fx="67.6"
       fy="26.8"
       r="105.2"
       gradientTransform="translate(-26.6 25.3) scale(.6 -.7)"
       gradientUnits="userSpaceOnUse"><stop
         offset="0"
         stop-color="#ffb648"
         id="stop3" /><stop
         offset="1"
         stop-color="#ff7800"
         stop-opacity="0"
         id="stop4" /></radialGradient><radialGradient
       id="_未命名的渐变_3"
       data-name="未命名的渐变 3"
       cx="61.7"
       cy="18.6"
       fx="61.7"
       fy="18.6"
       r="68"
       gradientTransform="translate(-26.8 25.8) scale(.6 -.7)"
       gradientUnits="userSpaceOnUse"><stop
         offset="0"
         stop-color="#c64600"
         id="stop5" /><stop
         offset="1"
         stop-color="#a51d2d"
         id="stop6" /></radialGradient></defs><path
     class="st1"
     d="M47.5,64.1H13.8c-7.6,0-13.8-6.3-13.8-13.8V13.7C0,6.2,6.2,0,13.7,0h36.6c7.5,0,13.7,6.2,13.7,13.7v36.6c0,7.5-6.2,13.7-13.7,13.7h-2.9.1Z"
     id="path6"
     style="fill:#2e1118;fill-opacity:1" /><g
     id="g26"
     transform="matrix(1.1415368,0,0,1.1390537,-4.3517296,-4.2502999)"><path
       d="m 12.859759,24.338983 4.98305,-6.525424 8.779662,-4.508474 7.044666,-0.418308 10.277019,3.691337 6.543729,7.466568 L 52.842808,33 l -3.5,10.5 -2.378471,-1.082525 1.426197,1.719827 -1.174516,3.607442 L 37.064844,54 33.918815,53.491484 32.995982,51.142452 v 1.929561 L 19.237363,50.5 13.490622,43.5 14.342809,41.368797 12.4,40 l 1.942809,-10.5 3.5,-0.673358 -3.5,-1.300358 7,-6.124263 7,-1.090623 L 29.430488,22.5 v -2.691966 l 2.412323,-0.04195 9.039212,5.453112 3.481601,9.773653 -7.886038,9.815602 -7.634356,0.04194 -5.327272,-6.753468 3.146027,-5.746743 5.180826,-2.307085 2.201847,1.510093 -0.08389,2.097351 -2.117956,0.796992 2.076006,0.419471 0.251692,2.139298 -5.827703,1.216466 -2.100295,-2.97824 0.293629,1.971511 3.64939,3.859125 7.844091,-4.575169 -0.671152,-5.240433 -6.124261,-4.110806 -9.891402,6.585682 0.956686,8.557189 4.236648,4.152753 6.585683,1.677883 8.053822,-3.313814 4.667163,-7.550463 -1.479187,-11.257991 -7.802147,-7 -11.718668,-1.079582 z"
       style="opacity:0.2"
       id="path2" /><path
       d="m 12.859759,23.338983 4.98305,-6.525424 8.779662,-4.508474 7.044666,-0.418308 10.277019,3.691337 6.543729,7.466568 L 52.842808,32 l -3.5,10.5 -2.378471,-1.082525 1.426197,1.719827 -1.174516,3.607442 L 37.064844,53 33.918815,52.491484 32.995982,50.142452 v 1.929561 L 19.237363,49.5 13.490622,42.5 14.342809,40.368797 12.4,39 l 1.942809,-10.5 3.5,-0.673358 -3.5,-1.300358 7,-6.124263 7,-1.090623 L 29.430488,21.5 v -2.691966 l 2.412323,-0.04195 9.039212,5.453112 3.481601,9.773653 -7.886038,9.815602 -7.634356,0.04194 -5.327272,-6.753468 3.146027,-5.746743 5.180826,-2.307085 2.201847,1.510093 -0.08389,2.097351 -2.117956,0.796992 2.076006,0.419471 0.251692,2.139298 -5.827703,1.216466 -2.100295,-2.97824 0.293629,1.971511 3.64939,3.859125 7.844091,-4.575169 -0.671152,-5.240433 -6.124261,-4.110806 -9.891402,6.585682 0.956686,8.557189 4.236648,4.152753 6.585683,1.677883 8.053822,-3.313814 4.667163,-7.550463 -1.479187,-11.257991 -7.802147,-7 -11.718668,-1.079582 z"
       style="fill:#ae32b0"
       id="path3" /><path
       d="m 33.667969,11.886719 -7.044922,0.417969 -8.779297,4.509765 -4.984375,6.525391 1.292969,-0.69336 3.691406,-4.832031 8.779297,-4.509765 7.044922,-0.417969 10.27539,3.691406 6.544922,7.466797 2.208985,8.396484 L 52.84375,32 50.488281,23.044922 43.943359,15.578125 Z m -1.824219,6.878906 -2.414062,0.04297 v 1 l 2.414062,-0.04297 9.039062,5.453125 3.234376,9.080078 0.246093,-0.30664 -3.480469,-9.773438 z m -3.5,0.544922 -7,1.091797 -7,6.123047 0.802734,0.298828 6.197266,-5.421875 7,-1.091797 L 29.429688,22.5 v -1 z M 16.070312,28.167969 14.34375,28.5 12.400391,39 12.564453,39.115234 14.34375,29.5 l 3.5,-0.673828 z m 15.773438,0.875 -5.181641,2.30664 -3.146484,5.748047 0.322266,0.410156 2.824218,-5.158203 5.181641,-2.30664 2.162109,1.482422 0.03906,-0.972657 z m -10.396484,4.623047 -0.103516,0.06836 0.955078,8.556641 4.238281,4.154296 6.583985,1.677735 8.054687,-3.314453 4.667969,-7.550782 -0.109375,-0.824218 -4.558594,7.375 -8.054687,3.314453 -6.583985,-1.677735 -4.238281,-4.154296 z m 12.125,0.130859 -1.728516,0.650391 2.074219,0.419922 0.136719,1.162109 0.115234,-0.02344 -0.251953,-2.138671 z m -7.330078,1.447266 0.294921,1.972656 3.648438,3.857422 7.84375,-4.574219 -0.119141,-0.929688 -7.724609,4.503907 -1.765625,-1.867188 -0.07617,0.01563 -0.265625,-0.376953 -1.541016,-1.628906 -0.105468,-0.703125 z M 14.03125,41.148438 13.490234,42.5 l 0.269532,0.328125 0.583984,-1.458984 z m 32.933594,1.269531 1.191406,1.4375 0.234375,-0.71875 -0.09375,-0.113281 z"
       style="opacity:0.2;fill:#ffffff"
       id="path5" /></g></svg>
