<?xml version="1.0" encoding="UTF-8"?>
<svg id="_图层_1" xmlns="http://www.w3.org/2000/svg" version="1.1" viewBox="0 0 64 64" width="64" height="64">
  <!-- Generator: Adobe Illustrator 29.0.1, SVG Export Plug-In . SVG Version: 2.1.0 Build 192)  -->
  <defs>
    <style>
      .st0 {
        fill: #4daf7c;
      }

      .st1, .st2, .st3, .st4 {
        display: none;
      }

      .st1, .st5, .st4 {
        isolation: isolate;
        opacity: .2;
      }

      .st6, .st4 {
        fill: #fff;
      }

      .st7, .st2 {
        fill: #2f9a2f;
      }

      .st8 {
        fill: #e3e3e3;
      }

      .st9 {
        fill: #5ed698;
      }
    </style>
  </defs>
  <path class="st7" d="M50.4,64H13.8c-7.6,0-13.8-6.2-13.8-13.7V13.7C0,6.2,6.2,0,13.7,0h36.6c7.5,0,13.7,6.2,13.7,13.7v36.6c0,7.5-6.2,13.7-13.7,13.7h.1Z"/>
  <g class="st3">
    <path class="st8" d="M44,64.1h-16.2l-11.8-11.5,13.7-21.5c1.2-9.8,1.1-9.6,9.1-12.7l11.3-.8c11,9.5,2.6,2,13.9,12v22.2c0,6.2-7.4,12.2-13.6,12.2h-6.4Z"/>
    <g>
      <path class="st0" d="M40,32h-5.9c-.2,0-.4,0-.5.2-.5.2-.8.5-1.1.9s-.4.9-.4,1.4v7.6h-4c-.7,0-1.2.2-1.3.5s0,.8.6,1.3l8.2,7.8c.2.2.5.4.9.5s.7.2,1,.2.7,0,1-.2.6-.3.9-.5l8.2-7.8c.5-.5.7-.9.6-1.3s-.6-.5-1.3-.5h-4v-7.6c0-.7-.3-1.3-.8-1.8s-1.2-.7-1.9-.7h-.2Z"/>
      <path class="st9" d="M29.8,9.7c-1-.2-1.9,0-2.7.7s-1.1,1.4-1.1,2.4v20.6c-.6-.2-1.3-.4-1.9-.5-.7,0-1.3-.2-2-.2-1.6,0-3.1.3-4.5.9-1.4.6-2.6,1.3-3.6,2.3s-1.8,2.1-2.5,3.5c-.6,1.3-.9,2.7-.9,4.2s.3,2.9.9,4.2c.6,1.3,1.4,2.5,2.5,3.4,1,1,2.2,1.8,3.6,2.3,1.4.6,2.9.8,4.5.8s3.4-.4,5-1.1c1.6-.7,2.8-1.7,3.9-3l-5.2-4.9c-.8-.8-1.2-1.5-1.2-2.1s0-1.1.2-1.3c0-.3.4-.6.8-1.1.5-.4,1.3-.7,2.4-.7h1.9v-5.7c0-1,.3-2,1-2.8s1.6-1.3,2.6-1.6v-8.2c3.7,0,6.5.5,8.4,1.4,1.9.9,3.2,2,3.9,3.4s1,2.8.8,4.4c-.2,1.5-.4,2.9-.9,4.1-.3,1-.4,1.5-.2,1.6s.6-.2,1.3-.9c4.5-4.7,6.6-8.6,6.3-11.7-.3-3.2-1.7-5.8-4.3-7.8s-5.8-3.5-9.6-4.6c-3.8-1-6.9-1.8-9.4-2.2h0v.2Z"/>
    </g>
  </g>
  <g>
    <path class="st1" d="M19.4,1.1h25.5c10.5,0,19.1,8.6,19.1,19.1v25.5c0,10.6-8.6,19.1-19.1,19.1h-25.5C8.9,64.9.3,56.3.3,45.8v-25.5C.3,9.7,8.9,1.1,19.4,1.1Z"/>
    <path class="st2" d="M19.4,0h25.5c10.5,0,19.1,8.6,19.1,19.1v25.5c0,10.6-8.6,19.1-19.1,19.1h-25.5C8.9,63.8.3,55.2.3,44.6v-25.5C.3,8.6,8.9,0,19.4,0Z"/>
    <path class="st5" d="M44.7,45.7c-1.4.7-2.8,1.2-4.4,1.6-1.5.4-3.1.5-4.7.5-4.9,0-8.8-1.3-11.6-4-2.9-2.7-4.3-6.3-4.3-10.8,0-4.6,1.4-8.2,4.3-10.8,2.9-2.7,6.7-4,11.6-4,1.6,0,3.2.2,4.7.5,1.5.4,3,.9,4.4,1.6v6.1c-1.4-.9-2.8-1.6-4.2-2-1.4-.4-2.5-.6-4-.6-2.7,0-4.8.8-6.4,2.5-1.5,1.7-2.3,3.8-2.3,6.7,0,2.9.8,5,2.3,6.7,1.5,1.7,3.7,2.5,6.4,2.5,1.5,0,2.7-.2,4-.6,1.4-.4,2.8-1.1,4.2-2v6.1"/>
    <path class="st6" d="M44.7,44.6c-1.4.7-2.8,1.2-4.4,1.6-1.5.4-3.1.5-4.7.5-4.9,0-8.8-1.3-11.6-4-2.9-2.7-4.3-6.3-4.3-10.8,0-4.6,1.4-8.2,4.3-10.8,2.9-2.7,6.7-4,11.6-4,1.6,0,3.2.2,4.7.5,1.5.4,3,.9,4.4,1.6v6.1c-1.4-.9-2.8-1.6-4.2-2-1.4-.4-2.5-.6-4-.6-2.7,0-4.8.8-6.4,2.5-1.5,1.7-2.3,3.8-2.3,6.7,0,2.9.8,5,2.3,6.7,1.5,1.7,3.7,2.5,6.4,2.5,1.5,0,2.7-.2,4-.6,1.4-.4,2.8-1.1,4.2-2v6.1"/>
    <path class="st4" d="M19.4,0C8.8,0,.3,8.5.3,19.1v1.1C.3,9.7,8.8,1.1,19.4,1.1h25.5c10.6,0,19.1,8.5,19.1,19.1v-1.1C64,8.5,55.5,0,44.9,0h-25.5Z"/>
  </g>
</svg>