<?xml version="1.0" encoding="UTF-8"?>
<svg id="_图层_1" xmlns="http://www.w3.org/2000/svg" version="1.1" viewBox="0 0 64 64" width="64" height="64">
  <!-- Generator: Adobe Illustrator 29.0.1, SVG Export Plug-In . SVG Version: 2.1.0 Build 192)  -->
  <defs>
    <style>
      .st0, .st1, .st2 {
        display: none;
      }

      .st0, .st1, .st3, .st4 {
        isolation: isolate;
      }

      .st0, .st3, .st4 {
        opacity: .2;
      }

      .st1 {
        opacity: .1;
      }

      .st1, .st4 {
        fill: #fff;
      }

      .st2, .st5 {
        fill: #353535;
      }

      .st6 {
        fill: #e1dc1f;
      }
    </style>
  </defs>
  <path class="st5" d="M47.5,64.1H13.8c-7.6,0-13.8-6.3-13.8-13.8V13.7C0,6.2,6.2,0,13.7,0h36.6c7.5,0,13.7,6.2,13.7,13.7v36.6c0,7.5-6.2,13.7-13.7,13.7h-2.9.1Z"/>
  <g>
    <path class="st0" d="M31.6,1.1c-4,.1-7.6,2.5-9.2,6.2l-2.6,6.2h-9.6c-5.7,0-10.3,4.5-10.3,10.1,0,2.8,1.2,5.4,3.2,7.3l6.6,6.1-5.5,12.9c-2.2,5.1.3,11.1,5.5,13.2,2.9,1.2,6.2,1,9-.5l13.2-7.3,13.2,7.3c4.9,2.7,11.2,1,14-3.9,1.6-2.7,1.7-6,.5-8.9l-5.5-12.9,6.6-6.1c4.1-3.8,4.3-10.2.4-14.3-1.9-2-4.6-3.1-7.5-3.1h-9.6l-2.6-6.2c-1.6-3.8-5.5-6.3-9.8-6.2Z"/>
    <path class="st2" d="M31.6,0c-4,.1-7.6,2.5-9.2,6.2l-2.6,6.2h-9.6c-5.7,0-10.3,4.5-10.3,10.1,0,2.8,1.2,5.4,3.2,7.3l6.6,6.1-5.5,12.9c-2.2,5.1.3,11.1,5.5,13.2,2.9,1.2,6.2,1,9-.5l13.2-7.3,13.2,7.3c4.9,2.7,11.2,1,14-3.9,1.6-2.7,1.7-6,.5-8.9l-5.5-12.9,6.6-6.1c4.1-3.8,4.3-10.2.4-14.3-1.9-2-4.6-3.1-7.5-3.1h-9.6l-2.6-6.2C39.7,2.3,35.8-.1,31.6,0Z"/>
    <path class="st3" d="M31.9,11.2l-5.3,12.3H10.2l11.7,10.9-8.3,19.4,18.3-10.1,18.3,10.1-8.3-19.4,11.7-10.9h-16.4l-5.3-12.3Z"/>
    <path class="st6" d="M31.9,10.1l-5.3,12.3H10.2l11.7,10.9-8.3,19.4,18.3-10.1,18.3,10.1-8.3-19.4,11.7-10.9h-16.4l-5.3-12.3Z"/>
    <path class="st1" d="M31.6,0c-4,.1-7.6,2.5-9.2,6.2l-2.6,6.2h-9.6c-5.7,0-10.3,4.5-10.3,10.1,0,.2,0,.3,0,.5.3-5.3,4.8-9.5,10.2-9.5h9.6l2.6-6.2c1.6-3.6,5.2-6.1,9.2-6.2,4.2-.1,8.1,2.3,9.8,6.2l2.6,6.2h9.6c5.4,0,9.9,4.2,10.2,9.5.3-5.6-4-10.3-9.7-10.6-.2,0-.4,0-.5,0h-9.6l-2.6-6.2C39.7,2.3,35.8-.1,31.6,0ZM9.3,36.6l-5.2,12.1c-.6,1.4-.9,2.9-.8,4.5,0-1.2.3-2.3.8-3.3l5.5-12.9-.3-.3ZM54.4,36.6l-.3.3,5.5,12.9c.5,1.1.7,2.2.8,3.4,0-1.5-.2-3.1-.8-4.5l-5.2-12.1Z"/>
    <path class="st4" d="M31.9,10.1l-5.3,12.3H10.2l1.2,1.1h15.2l5.3-12.3,5.3,12.3h15.2l1.2-1.1h-16.4l-5.3-12.3ZM21.6,34.1l-8,18.6.6-.3,7.7-17.9-.3-.3ZM42.2,34.1l-.3.3,7.7,17.9.6.3-8-18.6Z"/>
  </g>
</svg>