<?xml version="1.0" encoding="UTF-8"?>
<svg id="_图层_1" xmlns="http://www.w3.org/2000/svg" version="1.1" viewBox="0 0 64 64" width="64" height="64">
  <!-- Generator: Adobe Illustrator 29.0.1, SVG Export Plug-In . SVG Version: 2.1.0 Build 192)  -->
  <defs>
    <style>
      .st0 {
        fill: #fc0;
      }

      .st1 {
        fill: #c01728;
      }

      .st2 {
        fill: #fe3838;
      }

      .st3 {
        fill: #79b444;
      }

      .st4 {
        fill: #2977d1;
      }

      .st5 {
        fill: #617573;
      }

      .st6 {
        fill: #4bdb1a;
      }

      .st7, .st8, .st9, .st10, .st11, .st12, .st13, .st14 {
        isolation: isolate;
      }

      .st7, .st8, .st15, .st16, .st17, .st18, .st14 {
        display: none;
      }

      .st7, .st9, .st19, .st11, .st12, .st13, .st14 {
        opacity: .2;
      }

      .st8, .st20, .st21, .st15, .st10, .st13, .st14 {
        fill: #fff;
      }

      .st8, .st10 {
        opacity: .1;
      }

      .st22 {
        stroke: #1f711f;
      }

      .st22, .st23, .st24, .st11 {
        fill: none;
        stroke-linejoin: round;
      }

      .st22, .st24 {
        stroke-linecap: round;
        stroke-width: 6px;
      }

      .st9, .st21, .st10, .st25, .st26 {
        fill-rule: evenodd;
      }

      .st23 {
        stroke: #fff;
      }

      .st23, .st11 {
        stroke-width: 6px;
      }

      .st27 {
        fill: #e9721a;
      }

      .st16 {
        fill: #1c75bc;
      }

      .st28 {
        fill: #ff3737;
      }

      .st25 {
        fill: #4f4f4f;
      }

      .st29 {
        fill: #e3bf20;
      }

      .st24 {
        stroke: #248424;
      }

      .st11 {
        stroke: #000;
      }

      .st17 {
        fill: #fecd38;
      }

      .st30 {
        fill: #28a226;
      }

      .st31 {
        fill: #c72828;
      }

      .st32 {
        fill: #343434;
      }

      .st33 {
        fill: #35aabd;
      }

      .st34 {
        fill: #c029c0;
      }
    </style>
  </defs>
  <path class="st20" d="M50.3,64H13.8c-7.6,0-13.8-6.2-13.8-13.7V13.7C0,6.2,6.2,0,13.7,0h36.5c7.5,0,13.7,6.2,13.7,13.7v36.6c0,7.5-6.2,13.7-13.7,13.7h0Z"/>
  <g class="st18">
    <path class="st7" d="M.5,31.2v1.1c0,17.4,14.2,31.4,31.7,31.4s31.7-14,31.7-31.4,0-.7,0-1.1c-.6,16.9-14.5,30.3-31.7,30.3S1.1,48.1.5,31.2h0Z"/>
    <path class="st17" d="M32.2-.2h0c17.5,0,31.7,14.1,31.7,31.4h0c0,17.4-14.2,31.4-31.7,31.4h0C14.6,62.7.4,48.6.4,31.2H.4C.4,13.9,14.6-.2,32.2-.2Z"/>
    <path class="st12" d="M11.7,18.9v6.7h4.5v20.2h6.8v-26.9h-11.3ZM41.2,18.9c-7.5,0-13.6,6-13.6,13.5s6.1,13.5,13.6,13.5h18.4c1.2-2.1,2.2-4.4,2.9-6.7h-21.4c-3.8,0-6.8-3-6.8-6.7s3-6.7,6.8-6.7,3.8.8,5.1,2.2h7.8c-1.9-5.4-7-9-12.8-9h0Z"/>
    <path class="st2" d="M11.7,17.8v6.7h4.5v20.2h6.8v-26.9s-11.3,0-11.3,0ZM41.2,17.8c-7.5,0-13.6,6-13.6,13.5s6.1,13.5,13.6,13.5h19.6c1-2.1,1.8-4.4,2.3-6.7h-21.9c-3.8,0-6.8-3-6.8-6.7s3-6.7,6.8-6.7,3.8.8,5.1,2.2h7.8c-1.9-5.4-7-9-12.8-9h-.1Z"/>
    <path class="st8" d="M32.2-.2C14.6-.2.4,13.8.4,31.2s0,.3,0,.4C.8,14.6,14.8.9,32.2.9s31.3,13.6,31.7,30.7v-.4C63.9,13.8,49.7-.2,32.2-.2Z"/>
  </g>
  <g class="st18">
    <path class="st9" d="M7.2,25.4c0,.5,0,1.1,0,1.5,0,22.2,13.1,31.3,25.2,31.3s25.2-9.1,25.2-31.3,0-1,0-1.5c-.1,22.1-13.2,31.1-25.2,31.1S7.3,47.5,7.2,25.4h0Z"/>
    <path class="st25" d="M9.2,8.2c-2,2-2,11.7-2,17.8,0,22.2,13.1,31.3,25.2,31.3s25.2-9.1,25.2-31.3,0-15.8-2-17.8-15.4,4.3-19.4,8.3h-7.6c-4-4-17.4-10.3-19.4-8.3Z"/>
    <g class="st19">
      <path d="M37.9,46.2c0,2.8-2.4,5-5.4,5s-5.4-2.2-5.4-5,10.8-2.8,10.8,0Z"/>
      <path class="st26" d="M21.6,21.1c-5,0-9,4.8-9,10.6s4,10.6,9,10.6,9-4.8,9-10.6-4-10.6-9-10.6ZM21.6,24.6c3,0,5.4,3.2,5.4,7.1s-2.4,7.1-5.4,7.1-5.4-3.2-5.4-7.1,2.4-7.1,5.4-7.1Z"/>
      <path class="st26" d="M43.3,21.1c-5,0-9,4.8-9,10.6s4,10.6,9,10.6,9-4.8,9-10.6-4-10.6-9-10.6ZM43.3,24.6c3,0,5.4,3.2,5.4,7.1s-2.4,7.1-5.4,7.1-5.4-3.2-5.4-7.1,2.4-7.1,5.4-7.1Z"/>
    </g>
    <g>
      <path class="st20" d="M37.9,45.3c0,2.8-2.4,5-5.4,5s-5.4-2.2-5.4-5,10.8-2.8,10.8,0Z"/>
      <path class="st21" d="M21.6,20.2c-5,0-9,4.8-9,10.6s4,10.6,9,10.6,9-4.8,9-10.6-4-10.6-9-10.6ZM21.6,23.7c3,0,5.4,3.2,5.4,7.1s-2.4,7.1-5.4,7.1-5.4-3.2-5.4-7.1,2.4-7.1,5.4-7.1Z"/>
      <path class="st21" d="M43.3,20.2c-5,0-9,4.8-9,10.6s4,10.6,9,10.6,9-4.8,9-10.6-4-10.6-9-10.6ZM43.3,23.7c3,0,5.4,3.2,5.4,7.1s-2.4,7.1-5.4,7.1-5.4-3.2-5.4-7.1,2.4-7.1,5.4-7.1Z"/>
    </g>
    <path class="st10" d="M10.5,7.8h0c-.6,0-1,.1-1.3.4-2,2-2,11.7-2,17.8s0,0,0,.1c0-6.1,0-15.1,2-17.1.3-.3.7-.4,1.3-.4,4,0,14.7,5.2,18.2,8.7h7.6c4-4,17.4-10.3,19.4-8.3,1.9,1.9,2,11,2,17.1,0,0,0,0,0-.1,0-6.1,0-15.8-2-17.8-2-2-15.4,4.3-19.4,8.3h-7.6c-3.5-3.5-14.2-8.8-18.2-8.7Z"/>
  </g>
  <g class="st18">
    <path class="st12" d="M55.5,39.6c-.4,6.5-5.6,11.6-12,11.6-6.3,0-11.5-4.9-12-11.3,0,.3,0,.5,0,.8,0,6.8,5.4,12.3,12.1,12.3h0c6.7,0,12.1-5.5,12.1-12.3h0c0-.3,0-.6,0-.9h0Z"/>
    <path class="st12" d="M34.8,44.9c-.4,6.5-5.6,11.6-12,11.6-6.3,0-11.6-5-12-11.4,0,.3,0,.6,0,.9,0,6.8,5.4,12.3,12.1,12.3s12.1-5.5,12.1-12.3c0-.3,0-.6,0-.9h0Z"/>
    <path class="st22" d="M42.6,38.9s-4.8-7.8-5.2-12.3c-.5-5.4,3.4-15.8,3.4-15.8"/>
    <path class="st9" d="M43.4,10.7c-.2.6-.6,1.1-1.1,1.4,0,0-2.6,1.7-5.6,4-3,2.3-6.3,5.4-7.3,7.4-1.2,2.1-2.1,6.8-2.6,10.8-.5,4-.5,7.4-.5,7.4,0,1.5-1.2,2.6-2.6,2.6-1.2,0-2.2-.9-2.5-2.1,0,.4,0,1.1,0,1.1,0,1.5,1.1,2.7,2.5,2.7,1.4,0,2.6-1.1,2.6-2.6h0s0-3.3.5-7.3c.5-4,1.4-8.7,2.6-10.8,1.1-1.9,4.4-5.1,7.3-7.4,3-2.3,5.6-4,5.6-4,1-.6,1.5-1.9,1.1-3.1h0Z"/>
    <path class="st24" d="M23.7,42.4s.3-13.6,3.4-19.3c3-5.4,13.8-12.3,13.8-12.3"/>
    <path class="st10" d="M40.9,8.2h0c-.5,0-1,.2-1.4.5,0,0-2.8,1.8-6,4.2-3.2,2.5-6.8,5.5-8.7,8.9-2,3.6-2.7,8.5-3.2,12.8-.5,4.2-.6,7.7-.6,7.7,0,.1,0,.2,0,.4,0-.7.1-3.5.5-7.2.5-4.2,1.2-9.2,3.2-12.8,1.9-3.5,5.5-6.5,8.7-8.9,3.2-2.5,6-4.2,6-4.2.4-.3.9-.4,1.4-.4h0c1.3,0,2.3.9,2.6,2.1.2-1.4-.7-2.8-2.1-3-.1,0-.3,0-.4,0Z"/>
    <ellipse class="st31" cx="43.5" cy="39.8" rx="12.1" ry="12.3"/>
    <path class="st13" d="M43.5,27.5c-6.7,0-12.1,5.5-12.1,12.3h0c0,.1,0,.3,0,.4.3-6.6,5.6-11.8,12-11.8,6.5,0,11.8,5.2,12,11.8,0-.1,0-.3,0-.4,0-6.8-5.4-12.3-12.1-12.3h0Z"/>
    <ellipse class="st28" cx="22.8" cy="45.1" rx="12.1" ry="12.3"/>
    <path class="st13" d="M22.8,32.8c-6.7,0-12.1,5.5-12.1,12.3h0c0,.1,0,.3,0,.4.3-6.6,5.6-11.8,12-11.8,6.5,0,11.8,5.2,12,11.8,0-.1,0-.3,0-.4,0-6.8-5.4-12.3-12.1-12.3h0Z"/>
  </g>
  <g class="st18">
    <path class="st15" d="M11.5,0h41c7.7,0,11.5,3.8,11.5,11.5v41c0,7.7-3.8,11.5-11.5,11.5H11.5c-7.7,0-11.5-3.8-11.5-11.5V11.5C0,3.8,3.8,0,11.5,0Z"/>
    <path class="st0" d="M33,53.1c-3.5,0-7-.9-10.2-2.4-7-3.4-11.3-11-10.8-19.3.5-8.1,5.3-14.8,12.7-17.5,1.2-.4,2.4.2,2.9,1.4.4,1.2-.2,2.4-1.4,2.9h0c-6.7,2.4-9.4,8.6-9.7,13.5-.4,6.5,2.9,12.4,8.3,15,7.8,3.8,13.6,1.4,16.3-.4,3.7-2.4,6.1-6.3,6.1-9.8,0-4-1.5-7.6-4-9.8-1.2-1.1-2.6-1.8-4.1-2.2.1.4.2.8.4,1.2.8,2.9,1.6,5.3,1.6,7.2,0,2.3-.8,4.5-2.4,6.1-1.7,1.7-3.9,2.6-6.3,2.5-2.4,0-4.6-.9-6.3-2.6-2-2.1-3-4.8-2.9-7.7,0-5.3,5-9.6,10.2-10.9-.3-1.4-.4-2.8-.4-4.2,0-2.7,1.7-5.1,4.3-5.7,2.9-.8,6.5.3,7.8,2.4.6,1.1.3,2.4-.7,3.1,0,0,0,0,0,0-1.1.6-2.4.3-3.1-.7-.9-.5-2-.6-3-.3-.3.1-.8.3-.8,1.4,0,1.2.1,2.5.4,3.7,3.1.2,6.1,1.5,8.3,3.6,3.3,3.1,5.3,7.8,5.4,13,0,5.1-3.1,10.5-8.1,13.7-3.1,2-6.8,3.1-10.5,3ZM34.5,24.5c-3.5,1-6.7,3.9-6.8,6.7,0,1.6.5,3.3,1.6,4.5.8.8,1.9,1.3,3.1,1.3,1.1,0,2.3-.4,3.1-1.2.7-.8,1.1-1.8,1.1-2.9,0-1.2-.7-3.6-1.4-6-.2-.8-.5-1.6-.7-2.4Z"/>
  </g>
  <g class="st18">
    <path class="st32" d="M56.2,31c0,13.3-10.7,24-24,24s-24-10.7-24-24c0-13.3,10.7-24,24-24,13.3,0,24,10.7,24,24Z"/>
    <path class="st12" d="M34,6c-.3,0-.5,0-.8,0l-8,21.1-11.4-13.1c-.3.3-.6.6-.9.9l12.3,14.2,8.7-23.1h0ZM54.8,18.8l-22.8,3.8-.8,2.1,24.7-4.1c-.3-.6-.7-1.2-1.1-1.8ZM39.6,27.3l-1.4.3,15.9,19c2.9-4.4,4.3-9.6,4.1-14.9-.2,4.6-1.6,9-4.1,12.9l-14.5-17.3ZM6.2,30.3c-.1,3.2.3,6.5,1.4,9.6l18.6-3.4-1.4-1.7-17.1,3.2c-.9-2.5-1.3-5-1.4-7.6ZM33.1,39.3h-.8c0,.1-5.5,15.6-5.5,15.6-7.3-1.4-13.5-5.7-17.3-11.7l-1.1.2c3.7,6.9,10.4,12,18.4,13.5l6.3-17.6ZM50.4,48c-5.1,5.3-12.2,8.1-19.4,8l-.8,2c7.9.3,15.7-2.9,21.1-9l-.9-1.1Z"/>
    <path class="st27" d="M37.5,6.1l-6.3,17.6,24.7-4.1c-3.7-6.9-10.4-12-18.4-13.5Z"/>
    <path class="st29" d="M56.7,23.1l-18.6,3.4,15.9,19c4.3-6.6,5.4-14.9,2.6-22.5h0Z"/>
    <path class="st30" d="M51.4,48l-12.3-14.2-8.7,23.1c7.9.3,15.7-2.9,21.1-9h0Z"/>
    <path class="st4" d="M26.8,55.9l6.3-17.6-24.7,4.1c3.7,6.9,10.4,12,18.4,13.5h0Z"/>
    <path class="st34" d="M7.6,38.9l18.6-3.4-15.9-19c-4.3,6.6-5.4,14.9-2.6,22.5h0Z"/>
    <path class="st1" d="M13,14l12.3,14.2,8.7-23.1c-7.9-.3-15.7,2.9-21.1,9h0Z"/>
    <path class="st13" d="M37.5,6.1l-6.3,17.6h.4c0,0,5.9-16.6,5.9-16.6,7.7,1.4,14.1,6.1,17.9,12.6h.5c-3.7-7-10.4-12.1-18.4-13.6Z"/>
    <path class="st13" d="M56.7,23.1l-18.6,3.4.7.9,17.9-3.3c.9,2.6,1.4,5.4,1.5,8.1,0-3-.4-6.1-1.5-9.1Z"/>
    <path class="st13" d="M39,33.9l-8.7,23.1c.1,0,.3,0,.4,0l8.4-22.1,11.9,13.6c.1-.2.3-.3.4-.5l-12.3-14.2Z"/>
    <path class="st13" d="M33.1,38.3l-24.7,4.1c.2.3.3.6.5.9l23.8-3.9.4-1.1Z"/>
    <path class="st13" d="M10.3,16.4c-2.8,4.3-4.2,9.3-4.1,14.4.1-4.7,1.5-9.4,4.1-13.4l15.2,18.2h.7c0-.1-15.9-19.2-15.9-19.2Z"/>
    <path class="st13" d="M32.6,5c-7.4,0-14.6,3.3-19.6,9h0l.4.5c5.2-5.7,12.7-8.7,20.2-8.5l.4-1c-.5,0-1,0-1.5,0Z"/>
  </g>
  <g class="st18">
    <path class="st12" d="M28.7,4.9c-3.6,0-6.5,2.8-6.5,6.3h-6.5c-3.6,0-6.5,2.8-6.5,6.3v6.3c0,3.5,2.9,6.3,6.5,6.3h.9c-.6,1-.9,2.1-.9,3.2v15.8c0,3.5,2.9,6.3,6.5,6.3h6.5c1.1,0,2.3-.3,3.3-.9,1,.6,2.1.9,3.3.9h6.5c3.6,0,6.5-2.8,6.5-6.3v-15.8c0-1.1-.3-2.2-.9-3.2h.9c3.6,0,6.5-2.8,6.5-6.3v-6.3c0-3.5-2.9-6.3-6.5-6.3h-6.5c0-3.5-2.9-6.3-6.5-6.3h-6.5Z"/>
    <path class="st5" d="M28.7,4c-3.6,0-6.5,2.8-6.5,6.3h-6.5c-3.6,0-6.5,2.8-6.5,6.3v6.3c0,3.5,2.9,6.3,6.5,6.3h.9c-.6,1-.9,2.1-.9,3.2v15.8c0,3.5,2.9,6.3,6.5,6.3h6.5c1.1,0,2.3-.3,3.3-.9,1,.6,2.1.9,3.3.9h6.5c3.6,0,6.5-2.8,6.5-6.3v-15.8c0-1.1-.3-2.2-.9-3.2h.9c3.6,0,6.5-2.8,6.5-6.3v-6.3c0-3.5-2.9-6.3-6.5-6.3h-6.5c0-3.5-2.9-6.3-6.5-6.3h-6.5Z"/>
    <path class="st12" d="M28.7,11.2v6.3h-13.1v6.3h13.1v9.9h-6.5v15.4h6.5v-9.9h6.5v9.9h6.5v-15.4h-6.5v-9.9h13.1v-6.3h-13.1v-6.3h-6.5Z"/>
    <path class="st6" d="M28.7,10.3v6.3h-13.1v6.3h13.1v9.9h-6.5v15.4h6.5v-9.9h6.5v9.9h6.5v-15.4h-6.5v-9.9h13.1v-6.3h-13.1v-6.3h-6.5Z"/>
    <path class="st13" d="M28.7,4c-3.6,0-6.5,2.8-6.5,6.3h-6.5c-3.6,0-6.5,2.8-6.5,6.3v.9c0-3.5,2.9-6.3,6.5-6.3h6.5c0-3.5,2.9-6.3,6.5-6.3h6.5c3.6,0,6.5,2.8,6.5,6.3h6.5c3.6,0,6.5,2.8,6.5,6.3v-.9c0-3.5-2.9-6.3-6.5-6.3h-6.5c0-3.5-2.9-6.3-6.5-6.3h-6.5ZM16.1,30.2c-.3.7-.4,1.5-.4,2.3v.9c0-1.1.3-2.2.9-3.2h-.4ZM47.4,30.2c.6,1,.9,2.1.9,3.2v-.9c0-.8-.2-1.5-.4-2.3h-.4Z"/>
    <path class="st13" d="M28.7,10.3v.9h6.5v-.9h-6.5ZM15.6,16.6v.9h13.1v-.9h-13.1ZM35.2,16.6v.9h13.1v-.9h-13.1ZM22.1,32.9v.9h6.5v-.9h-6.5ZM35.2,32.9v.9h6.5v-.9h-6.5Z"/>
  </g>
  <g class="st18">
    <path class="st7" d="M32.1,1.1C14.4,1.1,0,15.4,0,33.1s14.4,31.9,32.1,31.9,32.1-14.3,32.1-31.9S49.8,1.1,32.1,1.1Z"/>
    <path class="st16" d="M32.1,0C14.4,0,0,14.3,0,31.9s14.4,31.9,32.1,31.9,32.1-14.3,32.1-31.9S49.8,0,32.1,0Z"/>
    <path class="st12" d="M19.3,20.5l-2,6.8h27.4l-4.8,11.4H13.4l-2,6.8h28.4c3.2,0,6.4-2,7.7-5l5-14.8c1.2-4.8-3.2-5.4-6.5-5.4h-26.6ZM13.8,29.6l-2.4,6.8h15.9l2.4-6.8h-15.9Z"/>
    <path class="st20" d="M19.3,19.4l-2,6.8h27.4l-4.8,11.4H13.4l-2,6.8h28.4c3.2,0,6.4-2,7.7-5l5-14.8c1.2-4.8-3.2-5.4-6.5-5.4h-26.6ZM13.8,28.5l-2.4,6.8h15.9l2.4-6.8h-15.9Z"/>
    <path class="st14" d="M32.1,0C14.4,0,0,14.3,0,31.9c0,.2,0,.3,0,.5C.4,15,14.6,1.1,32.1,1.1c17.5,0,31.8,14,32,31.4,0-.2,0-.4,0-.7C64.1,14.3,49.8,0,32.1,0Z"/>
  </g>
  <g>
    <path class="st12" d="M5.6,18.9c-1.5.4-2.3,2.1-1.9,3.8l8.9,33.2c.5,1.7,2,2.8,3.5,2.4,9.4-2.5,14.6-13.4,11.7-24.3-2.9-10.8-12.9-17.6-22.3-15.1Z"/>
    <path class="st12" d="M29,2.4c-1.8,0-3.3,1.7-3.3,3.6v48.7c0,2,1.5,3.7,3.4,3.7h25.1c1.9,0,3.4-1.6,3.4-3.7,0-.6-.1-1.2-.4-1.8L32.1,4.3c-.6-1.2-1.8-1.9-3.1-1.9Z"/>
    <path class="st3" d="M5.6,17.9c-1.5.4-2.3,2.1-1.9,3.8l8.9,33.2c.5,1.7,2,2.8,3.5,2.4,9.4-2.5,14.6-13.4,11.7-24.3-2.9-10.8-12.9-17.6-22.3-15.1Z"/>
    <path class="st13" d="M9.1,17.4c-1.2,0-2.4.2-3.5.5-1.3.4-2.2,1.8-1.9,3.4.2-1.2.9-2.1,1.9-2.4,1.2-.3,2.4-.5,3.5-.5,8.2-.2,16.2,6.2,18.8,15.7.5,1.7.7,3.5.8,5.2,0-2-.2-4.1-.8-6.2-2.5-9.5-10.5-15.9-18.8-15.7Z"/>
    <path class="st33" d="M29,1.4c-1.8,0-3.3,1.7-3.3,3.6v48.7c0,2,1.5,3.7,3.4,3.7h25.1c1.9,0,3.4-1.6,3.4-3.7,0-.6-.1-1.2-.4-1.8L32.1,3.3c-.6-1.2-1.8-1.9-3.1-1.9Z"/>
    <path class="st11" d="M41.6,33.4s-9,.2-9,3,8,9.4,8,12.2-9,2.8-9,2.8"/>
    <path class="st23" d="M41.6,32.4s-9,.2-9,3,8,9.4,8,12.2-9,2.8-9,2.8"/>
    <path class="st12" d="M11,24.6c-.2,0-.4,0-.6,0l7,26.3c4-2.8,6.4-8.7,4.6-15.3-1.6-6.1-6-10-10.5-11-.2,0-.4,0-.6,0h0Z"/>
    <path class="st20" d="M11,23.6c-.2,0-.4,0-.6,0l7,26.3c4-2.8,6.4-8.7,4.6-15.3-1.6-6.1-6-10-10.5-11-.2,0-.4,0-.6,0h0Z"/>
    <path class="st13" d="M29,1.4c-1.8,0-3.3,1.7-3.3,3.7v1c0-2,1.5-3.6,3.3-3.7,1.3,0,2.5.7,3.1,1.9l25.1,48.7c.2.4.3.8.4,1.3.1-.8,0-1.6-.4-2.3L32.1,3.3c-.6-1.2-1.8-1.9-3.1-1.9Z"/>
  </g>
</svg>