<?xml version="1.0" encoding="UTF-8"?>
<svg id="_图层_1" xmlns="http://www.w3.org/2000/svg" version="1.1" viewBox="0 0 64 64" width="64" height="64">
  <!-- Generator: Adobe Illustrator 29.0.1, SVG Export Plug-In . SVG Version: 2.1.0 Build 192)  -->
  <defs>
    <style>
      .st0, .st1, .st2, .st3 {
        display: none;
      }

      .st0, .st4 {
        fill: #2995ff;
      }

      .st1, .st5, .st6, .st7, .st3 {
        isolation: isolate;
      }

      .st1, .st6, .st7, .st3 {
        opacity: .2;
      }

      .st8, .st5, .st7, .st3 {
        fill: #fff;
      }

      .st5 {
        opacity: .5;
      }

      .st9 {
        fill: #4cb009;
      }

      .st10 {
        fill: #29565b;
      }

      .st11 {
        fill: #e4e4e4;
      }

      .st12 {
        fill: #f34235;
      }
    </style>
  </defs>
  <path class="st4" d="M50.3,64H13.9C6.3,64,.2,57.8.2,50.3V13.8C.2,6.2,6.3,0,13.9,0h36.5c7.5,0,13.7,6.2,13.7,13.7v36.5c0,7.5-6.1,13.7-13.7,13.7h0Z"/>
  <g class="st2">
    <path class="st6" d="M12.5,31.4v22.5c0,1.4,1.1,2.5,2.5,2.5h35.2c1.4,0,2.5-1.1,2.5-2.5v-22.5H12.5Z"/>
    <path class="st6" d="M25.7,5.5c-7.3,0-13.3,6-13.3,13.3h0c0,0,0,.1,0,.2-4.5,1.4-7.6,5.6-7.6,10.3,0,5.7,4.4,10.4,10.1,10.8h0s.6,0,.6,0h34.7c5.7-.4,10.1-5.1,10.1-10.8,0-5-3.4-9.3-8.1-10.5-1.7-5.7-6.8-9.6-12.7-9.6-1.4,0-2.7.2-4,.6-2.5-2.8-6.1-4.5-9.9-4.5Z"/>
    <ellipse class="st11" cx="15.6" cy="28.3" rx="10.7" ry="10.8"/>
    <ellipse class="st11" cx="25.7" cy="17.8" rx="13.3" ry="13.3"/>
    <ellipse class="st11" cx="39.5" cy="21.7" rx="13.3" ry="13.3"/>
    <ellipse class="st11" cx="49.6" cy="28.3" rx="10.7" ry="10.8"/>
    <rect class="st11" x="14.9" y="23.9" width="35.4" height="15.3"/>
    <rect class="st10" x="9.6" y="27.6" width="46" height="4.8"/>
    <path class="st9" d="M11.4,20.8h1.2c1,0,1.8.8,1.8,1.8v1.2c0,1-.8,1.8-1.8,1.8h-1.2c-1,0-1.8-.8-1.8-1.8v-1.2c0-1,.8-1.8,1.8-1.8Z"/>
    <path class="st4" d="M12.5,30.5v22.5c0,1.4,1.1,2.5,2.5,2.5h35.2c1.4,0,2.5-1.1,2.5-2.5v-22.5H12.5Z"/>
    <rect class="st5" x="17.3" y="47.8" width="26.8" height="2.9"/>
    <rect class="st5" x="17.3" y="41.1" width="22" height="2.9"/>
    <rect class="st5" x="17.3" y="34.3" width="30.6" height="2.9"/>
    <path class="st7" d="M25.7,4.5c-7.3,0-13.3,6-13.3,13.3h0c0,0,0,.1,0,.2-4.5,1.4-7.6,5.6-7.6,10.3,0,.1,0,.3,0,.4.2-4.5,3.3-8.4,7.6-9.8,0,0,0-.1,0-.2,0-7.4,5.9-13.3,13.3-13.3,0,0,0,0,0,0,3.8,0,7.4,1.6,9.9,4.5,1.3-.4,2.7-.6,4-.6,5.9,0,11,3.9,12.7,9.6,4.6,1.2,7.9,5.3,8.1,10.1,0-.2,0-.4,0-.6,0-5-3.4-9.3-8.1-10.5-1.7-5.7-6.8-9.6-12.7-9.6-1.4,0-2.7.2-4,.6-2.5-2.8-6.1-4.5-9.9-4.5Z"/>
  </g>
  <g>
    <path class="st1" d="M10.1,1c-1.7,0-3.1,1.4-3.1,3.2v57.7c0,1.8,1.4,3.2,3.1,3.2h43.7c1.7,0,3.1-1.4,3.1-3.2V4.2c0-1.8-1.4-3.2-3.1-3.2H10.1Z"/>
    <path class="st0" d="M10.1,1.7c-1.7,0-3.1,1.3-3.1,3v54c0,1.7,1.4,3,3.1,3h43.7c1.7,0,3.1-1.3,3.1-3V4.7c0-1.7-1.4-3-3.1-3H10.1Z"/>
    <path class="st6" d="M26.7,33c-5.3,0-9.5,4.3-9.5,9.6h0c0,.5,0,1.1.1,1.6-2.8,1-4.7,3.7-4.7,6.8,0,4,3.2,7.2,7.2,7.2h0c0,0,.2,0,.2,0h0s23,0,23,0h0c3.9,0,7.1-3.3,7.1-7.2,0-2.7-1.5-5.2-3.9-6.4-.2-5.1-4.4-9.2-9.5-9.2-1.1,0-2.1.2-3.1.5-1.8-1.9-4.3-2.9-6.9-2.9Z"/>
    <ellipse class="st8" cx="19.8" cy="49.9" rx="7.2" ry="7.2"/>
    <ellipse class="st8" cx="26.7" cy="41.5" rx="9.5" ry="9.6"/>
    <ellipse class="st8" cx="36.7" cy="43.9" rx="9.5" ry="9.6"/>
    <ellipse class="st8" cx="43" cy="49.9" rx="7.2" ry="7.2"/>
    <rect class="st8" x="20" y="46.6" width="23" height="10.5"/>
    <path class="st6" d="M1.7,20.4h60.4c.9,0,1.6.6,1.6,1.4v2.9c0,.8-.7,1.4-1.6,1.4H1.7c-.9,0-1.6-.6-1.6-1.4v-2.9c0-.8.7-1.4,1.6-1.4Z"/>
    <path class="st12" d="M1.7,19.3h60.4c.9,0,1.6.6,1.6,1.4v2.9c0,.8-.7,1.4-1.6,1.4H1.7c-.9,0-1.6-.6-1.6-1.4v-2.9c0-.8.7-1.4,1.6-1.4Z"/>
    <rect class="st5" x="12.6" y="15.9" width="27.2" height="3.4"/>
    <rect class="st5" x="12.6" y="6.7" width="38.6" height="3.4"/>
    <path class="st3" d="M10.1-.2c-1.7,0-3.1,1.4-3.1,3.2v1.1c0-1.8,1.4-3.2,3.1-3.2h43.7c1.7,0,3.1,1.4,3.1,3.2v-1.1c0-1.8-1.4-3.2-3.1-3.2H10.1Z"/>
  </g>
</svg>