<?xml version="1.0" encoding="UTF-8"?>
<svg id="_图层_1" xmlns="http://www.w3.org/2000/svg" version="1.1" viewBox="0 0 64 64" width="64" height="64">
  <!-- Generator: Adobe Illustrator 29.0.1, SVG Export Plug-In . SVG Version: 2.1.0 Build 192)  -->
  <defs>
    <style>
      .st0 {
        fill: #3f3f3f;
      }

      .st0, .st1, .st2, .st3, .st4 {
        display: none;
      }

      .st1, .st5 {
        fill: #a52727;
      }

      .st6 {
        fill: #f14c21;
      }

      .st2, .st3, .st7, .st8 {
        isolation: isolate;
      }

      .st2, .st7, .st8 {
        opacity: .2;
      }

      .st3 {
        opacity: .1;
      }

      .st3, .st9, .st8 {
        fill: #fff;
      }
    </style>
  </defs>
  <path class="st5" d="M50.4,64H13.8c-7.6,0-13.8-6.2-13.8-13.7V13.7C0,6.2,6.2,0,13.7,0h36.5c7.5,0,13.7,6.2,13.7,13.7v36.6c0,7.5-6.2,13.7-13.7,13.7h.1Z"/>
  <g class="st4">
    <ellipse class="st2" cx="32" cy="32.5" rx="32" ry="31.2"/>
    <ellipse class="st0" cx="32" cy="31.4" rx="32" ry="31.2"/>
    <path class="st3" d="M32,.2C14.3.2,0,14.2,0,31.4c0,.2,0,.4,0,.5C.3,14.9,14.6,1.3,32,1.3c17.4,0,31.6,13.7,32,30.7,0-.2,0-.4,0-.5C64,14.2,49.7.2,32,.2Z"/>
    <path class="st7" d="M14.7,6.3c-.9.6-1.7,1.2-2.6,1.8l6.9,20.2L.8,39.3c.2.7.3,1.4.5,2.1h22.3c0,.1,6.2,22.3,6.2,22.3.7,0,1.4,0,2.1.1.5,0,1,0,1.5,0l6.6-22.3h22.5c.3-.8.5-1.7.7-2.5l-18.1-10.9,7.1-19.6c0,0-.1,0-.2-.1-.8-.6-1.7-1.3-2.5-1.8l-17.3,12.3L14.7,6.3ZM16.7,11.6l12.8,9.2-7.8,5.6-5-14.7ZM47.7,11.7l-5.2,14.4-7.5-5.4,12.7-9.1ZM32.3,22.7l9.1,6.5-3.5,9.2h-11.9l-3.2-8.9,9.5-6.7ZM44.1,31.1l12.9,7.2h-15.7l2.8-7.2ZM20.1,31.3l2.5,7h-3.4s-11.5,0-11.5,0l12.4-7ZM27,41.5h9.6l-5,17.6v-.4c-.1,0-4.7-17.2-4.7-17.2Z"/>
    <path class="st6" d="M14.7,5.1c-.9.6-1.7,1.2-2.6,1.8l6.9,20.2L.8,38.1c.2.7.3,1.4.5,2.1h22.3c0,.1,6.2,22.3,6.2,22.3.7,0,1.4,0,2.1.1.5,0,1,0,1.5,0l6.6-22.3h22.5c.3-.8.5-1.7.7-2.5l-18.1-10.9,7.1-19.6c0,0-.1,0-.2-.1-.8-.6-1.7-1.3-2.5-1.8l-17.3,12.3L14.7,5.1ZM16.7,10.5l12.8,9.2-7.8,5.6-5-14.7ZM47.7,10.5l-5.2,14.4-7.5-5.4,12.7-9.1ZM32.3,21.5l9.1,6.5-3.5,9.2h-11.9l-3.2-8.9,9.5-6.7ZM44.1,30l12.9,7.2h-15.7l2.8-7.2ZM20.1,30.2l2.5,7h-3.4s-11.5,0-11.5,0l12.4-7ZM27,40.3h9.6l-5,17.6v-.4c-.1,0-4.7-17.2-4.7-17.2Z"/>
    <path class="st8" d="M14.7,5.1c-.9.6-1.7,1.2-2.6,1.8l.3.9c.7-.6,1.5-1.1,2.2-1.6l17.6,12.5,17.3-12.3c.8.5,1.6,1.1,2.4,1.7l.3-.9c0,0-.1,0-.2-.1-.8-.6-1.7-1.3-2.5-1.8l-17.3,12.3L14.7,5.1ZM16.7,11.6l5,14.7,7.8-5.6-.8-.6-7,5-4.5-13.3-.5-.4ZM47.7,11.7l-.5.4-4.7,12.9-6.7-4.8-.8.6,7.5,5.4,5.2-14.4ZM45.5,27.1l-.3.9,17.8,10.8c0-.3.2-.6.3-1l-17.8-10.7ZM18.7,27.3L.8,38.1c0,.3.2.6.2,1l18-10.9-.3-.9ZM41,28.9l-3.2,8.3h-11.9l-2.9-8-.3.2,3.2,8.9h11.9l3.5-9.2-.3-.2ZM9.6,37.2l-2,1.1h11.5s0,0,0,0h3.4l-.4-1.1h-3s-9.6,0-9.6,0ZM41.7,37.2l-.4,1.1h15.7l-2-1.1h-13.3ZM27,41.5l4.5,17.2v.4c.1,0,5.1-17.6,5.1-17.6h-.3l-4.7,16.5v-.4c-.1,0-4.4-16.1-4.4-16.1h-.3Z"/>
  </g>
  <g>
    <path class="st2" d="M3.2,1.1h57.6c1.8,0,3.2,1.4,3.2,3.2v57.7c0,1.8-1.4,3.2-3.2,3.2H3.2c-1.8,0-3.2-1.4-3.2-3.2V4.4C0,2.6,1.4,1.1,3.2,1.1Z"/>
    <path class="st1" d="M3.2,0h57.6c1.8,0,3.2,1.4,3.2,3.2v57.7c0,1.8-1.4,3.2-3.2,3.2H3.2c-1.8,0-3.2-1.4-3.2-3.2V3.2C0,1.4,1.4,0,3.2,0Z"/>
    <path class="st7" d="M61,16h-2.4c-1.8,0-3.8,0-3.8,0l-1.6,4.6s-1.8-4.7-2.2-4.6h-.3c-.2,0-.9,0-2,0h-1.9v16.9h-.2c-.1.2-.2.2-.1.3l4.8,3.5v-3.4c0-3.1,0-3.4,0-3.2l1.8,4.7,1.6-4.9v4.5s0,4.5,0,4.5l4.5,3.2v-12.4s0-12,0-12l1.6-1.7ZM20.9,16l-.7.5-.7.5v15.8s7.4,5.5,7.4,5.5l4-3v-9.2s0-9.2,0-9.2l-.7-.5-.7-.5h-8.5ZM34.6,16l-.7.5-.7.5v9.2s0,9.2,0,9.2l4,3,7.4-5.5v-7.9s0-7.9,0-7.9l-.7-.5-.7-.5h-8.5ZM4.1,16l1.6,1.6v11.5c0,6.3,0,11.9,0,12.5h0c0,.7,0,1.6,0,1.6,0,0,11.7-9.5,11.7-9.5,0,0,0,0-.2-.2h-.2v-16.5l-.7-.5-.7-.5h-5.8c-3.8,0-6,0-5.9,0h0ZM26.6,19.5c.2,0,.2,0,.5.1h.3c0,.1,0,7.1,0,7.1,0,3.2,0,7.2,0,7.2l-4.5-3.4v-10.8s.3-.1.3-.1h.3c0-.1,1.5-.1,1.5-.1.8,0,1.6,0,1.7,0h0ZM37.4,19.5c.1,0,.9,0,1.7,0h1.8c0,.1.3.3.3.3v5.9s0,4.9,0,4.9l-4.5,3.4s0-4,0-7.2v-7s.3-.1.3-.1c.3-.1.3-.1.5-.1h0ZM13.2,19.5h.3c0,.1.3.2.3.2v12.1l-4.6,3.5c0,0,0-5.9,0-10.6v-5.3s2.3,0,2.3,0h1.8ZM18.3,37.8l-9.1,8,1.1,1.1h2.3v2.3l1.1,1.1h10.3l2.3,1.1h3.4l1.1,3.4h2.3l1.1-3.4h3.4l2.3-1.1h10.3l1.1-1.1v-2.3h2.3l1.1-1.1-9.1-8h-2.3l6.9,5.7h-6.9l-3.4-1.1h-4.6l-3.4-3.4-3.4,3.4h-4.6l-3.4,1.1h-6.9l6.9-5.7h-2.3Z"/>
    <path class="st9" d="M61,14.9h-2.4c-1.8,0-3.8,0-3.8,0l-1.6,4.6s-1.8-4.7-2.2-4.6h-.3c-.2,0-.9,0-2,0h-1.9v16.9h-.2c-.1.2-.2.2-.1.3l4.8,3.5v-3.4c0-3.1,0-3.4,0-3.2l1.8,4.7,1.6-4.9v4.5s0,4.5,0,4.5l4.5,3.2v-12.4s0-12,0-12l1.6-1.7ZM20.9,14.9l-.7.5-.7.5v15.8s7.4,5.5,7.4,5.5l4-3v-9.2s0-9.2,0-9.2l-.7-.5-.7-.5h-8.5ZM34.6,14.9l-.7.5-.7.5v9.2s0,9.2,0,9.2l4,3,7.4-5.5v-7.9s0-7.9,0-7.9l-.7-.5-.7-.5h-8.5ZM4.1,14.9l1.6,1.6v11.5c0,6.3,0,11.9,0,12.5h0c0,.7,0,1.6,0,1.6,0,0,11.7-9.5,11.7-9.5,0,0,0,0-.2-.2h-.2V16l-.7-.5-.7-.5h-5.8c-3.8,0-6,0-5.9,0ZM26.6,18.3c.2,0,.2,0,.5.1h.3c0,.1,0,7.1,0,7.1,0,3.2,0,7.2,0,7.2l-4.5-3.4v-10.8s.3-.1.3-.1h.3c0-.1,1.5-.1,1.5-.1.8,0,1.6,0,1.7,0ZM37.4,18.3c.1,0,.9,0,1.7,0h1.8c0,.1.3.3.3.3v5.9s0,4.9,0,4.9l-4.5,3.4s0-4,0-7.2v-7s.3-.1.3-.1c.3-.1.3-.1.5-.1ZM13.2,18.4h.3c0,.1.3.2.3.2v12.1l-4.6,3.5c0,0,0-5.9,0-10.6v-5.3s2.3,0,2.3,0c0,0,1.8,0,1.8,0ZM18.3,36.6l-9.1,8,1.1,1.1h2.3v2.3l1.1,1.1h10.3l2.3,1.1h3.4l1.1,3.4h2.3l1.1-3.4h3.4l2.3-1.1h10.3l1.1-1.1v-2.3h2.3l1.1-1.1-9.1-8h-2.3l6.9,5.7h-6.9l-3.4-1.1h-4.6l-3.4-3.4-3.4,3.4h-4.6l-3.4,1.1h-6.9l6.9-5.7h-2.3Z"/>
    <path class="st3" d="M3.2,0C1.4,0,0,1.4,0,3.2v1.1C0,2.6,1.4,1.1,3.2,1.1h57.6c1.8,0,3.2,1.4,3.2,3.2v-1.1c0-1.8-1.4-3.2-3.2-3.2H3.2Z"/>
  </g>
</svg>