<?xml version="1.0" encoding="UTF-8"?>
<svg id="_图层_1" xmlns="http://www.w3.org/2000/svg" version="1.1" viewBox="0 0 64 64" width="64" height="64">
  <!-- Generator: Adobe Illustrator 29.0.1, SVG Export Plug-In . SVG Version: 2.1.0 Build 192)  -->
  <defs>
    <style>
      .st0, .st1, .st2, .st3, .st4, .st5, .st6 {
        display: none;
      }

      .st0, .st1, .st7, .st8, .st9, .st10, .st5 {
        isolation: isolate;
      }

      .st0, .st9, .st10, .st5 {
        opacity: .2;
      }

      .st1, .st11, .st10, .st5 {
        fill: #fff;
      }

      .st1, .st7 {
        opacity: .1;
      }

      .st12 {
        fill: #2196f3;
      }

      .st2 {
        fill: #d44eff;
      }

      .st13 {
        fill: #a45390;
      }

      .st14 {
        fill: #4456f3;
      }

      .st15 {
        fill: #eee;
      }

      .st8 {
        opacity: .3;
      }

      .st3 {
        fill: #fecd38;
      }

      .st16 {
        fill: #858585;
      }

      .st17 {
        fill: #ffeb3b;
      }

      .st18 {
        fill: #6db832;
      }

      .st19 {
        fill: #336894;
      }

      .st20 {
        fill: #c2352a;
      }

      .st21 {
        fill: #4987d7;
      }

      .st6, .st22 {
        fill: #e4e4e4;
      }

      .st23 {
        fill: #7f0b8f;
      }

      .st24 {
        fill: #2158f3;
      }
    </style>
  </defs>
  <path class="st11" d="M50.3,64H13.8c-7.6,0-13.8-6.2-13.8-13.7V13.7C0,6.2,6.2,0,13.7,0h36.5c7.5,0,13.7,6.2,13.7,13.7v36.6c0,7.5-6.2,13.7-13.7,13.7h0Z"/>
  <g class="st4">
    <path class="st0" d="M0,59.5v2.3c0,1.9,1.5,3.4,3.4,3.4h57.4c1.9,0,3.4-1.5,3.4-3.4v-2.3c0,1.9-1.5,3.4-3.4,3.4H3.4c-1.9,0-3.4-1.5-3.4-3.4Z"/>
    <path class="st21" d="M3.2-.1C2.3-.1,1.5.3.9.8l31.2,31.2L63.3.8c-.6-.6-1.4-.9-2.3-.9,0,0-57.8,0-57.8,0Z"/>
    <path class="st13" d="M3.2,64.1c-.9,0-1.7-.4-2.3-.9l31.2-31.2,31.2,31.2c-.6.6-1.4.9-2.3.9H3.2Z"/>
    <path class="st18" d="M64.2,3.1c0-.9-.4-1.7-.9-2.3l-31.2,31.2,31.2,31.2c.6-.6.9-1.4.9-2.3V3.1h0Z"/>
    <path class="st20" d="M0,3.1c0-.9.4-1.7.9-2.3l31.2,31.2L.9,63.2c-.6-.6-.9-1.4-.9-2.3V3.1h0Z"/>
    <path class="st9" d="M35,5.6c-1.4,0-2.5.2-3.6.5-1,.3-1.9.8-2.6,1.3-.7.6-1.3,1.2-1.8,2s-.8,1.3-1.1,2.1c-.3.9-.5,1.8-.6,2.8s-.2,1.9-.2,2.9h0c0,1.5.2,2.9.5,4,.4,1.1.9,2,1.5,2.8.7.7,1.4,1.3,2.3,1.7.9.4,1.8.5,2.8.5s2-.2,2.8-.5,1.5-.8,2.1-1.4,1-1.4,1.3-2.2c.3-.9.5-1.9.5-3s0-2-.4-2.8c-.3-.8-.6-1.6-1.1-2.1-.5-.6-1.1-1-1.8-1.3s-1.5-.4-2.4-.4-1.1,0-1.5.2c-.4.1-.8.3-1.2.5-.4.2-.7.6-.9.9-.3.3-.5.6-.7.9h-.2c0-1,.2-1.8.4-2.6.2-.8.5-1.1,1-1.7.5-.6,1.1-1,1.9-1.3.8-.3,1.8-.5,3.1-.5s.8,0,1.2,0,.8.1,1.1.2v-3.5h-2.6s.2,0,.2,0ZM32.4,16c.8,0,1.5.3,1.9.9s.6,1.4.6,2.4,0,1.1-.2,1.6c0,.4-.3.8-.5,1.1-.2.3-.5.5-.8.7-.3.1-.7.2-1,.2s-.9-.1-1.2-.4c-.3-.2-.6-.5-.9-.9-.2-.4-.4-.8-.5-1.3s-.2-1-.2-1.4,0-.7.2-1c.1-.3.3-.6.6-.9.3-.3.6-.5.9-.7.4-.2.7-.3,1.2-.3h0ZM47,24v10.3l1,.9c.2,0,.4,0,.6-.2.2,0,.5,0,.8-.2h1.6c1.3,0,2.3.3,3,.8.6.5,1,1.3,1,2.3s-.3,2-1,2.5-1.6.8-2.9.8-.9,0-1.3,0-.9-.2-1.4-.3-.9-.3-1.3-.4c-.4-.2-.8-.3-1.1-.5v3.7c.3.2.7.3,1.1.5.4,0,.9.3,1.3.3s1,.2,1.5.2h1.5c1.3,0,2.4-.2,3.4-.5s1.8-.8,2.5-1.4c.7-.6,1.2-1.4,1.5-2.2.3-.9.5-1.9.5-3s-.2-1.9-.5-2.7-.8-1.4-1.3-2c-.6-.5-1.2-.9-2-1.2-.8-.3-1.6-.4-2.5-.4h0c-.6,0-1.1,0-1.5.1-.4,0-.7.1-1,.2l.3-4.1h6.5v-3.4h-10.3,0ZM11.5,24.1c-.8,0-1.6,0-2.2.3-.7.2-1.3.4-1.8.6-.6.3-1.1.6-1.5.9-.5.3-.9.5-1.3.9l2.4,2.8c.7-.7,1.5-1.2,2.1-1.6.7-.4,1.4-.5,2.1-.5s1.3.2,1.7.6.6.9.6,1.6,0,1.2-.3,1.7c-.2.5-.5,1.1-.8,1.6-.4.5-.8,1.1-1.3,1.6-.5.6-1,1.2-1.7,1.8l-4.8,5.4v2.8h13.7v-3.4h-8.3v-.2l2.5-2.7c.7-.7,1.4-1.4,2-2.1.6-.7,1.2-1.4,1.7-2.1.5-.7.9-1.4,1.1-2.2.3-.7.4-1.5.4-2.3s-.1-1.7-.4-2.4c-.3-.7-.7-1.1-1.3-1.6-.6-.5-1.2-.9-2-1.2-.8-.3-1.7-.4-2.6-.4h0ZM25.2,42.5v3.2h9.4l-7.3,17.2h4.5l7.1-17.7v-2.7h-13.8.1Z"/>
    <path class="st11" d="M35,4.5c-1.4,0-2.5.2-3.6.5-1,.3-1.9.8-2.6,1.3-.7.6-1.3,1.2-1.8,2s-.8,1.3-1.1,2.1c-.3.9-.5,1.8-.6,2.8s-.2,1.9-.2,2.9h0c0,1.5.2,2.9.5,4,.4,1.1.9,2,1.5,2.8.7.7,1.4,1.3,2.3,1.7.9.4,1.8.5,2.8.5s2-.2,2.8-.5,1.5-.8,2.1-1.4,1-1.4,1.3-2.2c.3-.9.5-1.9.5-3s0-2-.4-2.8c-.3-.8-.6-1.6-1.1-2.1-.5-.6-1.1-1-1.8-1.3s-1.5-.4-2.4-.4-1.1,0-1.5.2c-.4.1-.8.3-1.2.5-.4.2-.7.6-.9.9-.3.3-.5.6-.7.9h-.2c0-1,.2-1.8.4-2.6.2-.8.5-1.1,1-1.7.5-.6,1.1-1,1.9-1.3.8-.3,1.8-.5,3.1-.5s.8,0,1.2,0,.8,0,1.1.2v-3.5h-2.6s.2,0,.2,0ZM32.4,14.9c.8,0,1.5.3,1.9.9.4.6.6,1.4.6,2.4s0,1.1-.2,1.6c0,.4-.3.8-.5,1.1-.2.3-.5.5-.8.7-.3.1-.7.2-1,.2s-.9-.1-1.2-.4c-.3-.2-.6-.5-.9-.9-.2-.4-.4-.8-.5-1.3s-.2-1-.2-1.4,0-.7.2-1c.1-.3.3-.6.6-.9.3-.3.6-.5.9-.7.4-.2.7-.3,1.2-.3h0ZM47,22.8v10.3l1,.9c.2,0,.4,0,.6-.2.2,0,.5,0,.8-.2h1.6c1.3,0,2.3.3,3,.8.6.5,1,1.3,1,2.3s-.3,2-1,2.5-1.6.8-2.9.8-.9,0-1.3,0-.9-.2-1.4-.3-.9-.3-1.3-.4c-.4-.2-.8-.3-1.1-.5v3.7c.3.2.7.3,1.1.5.4,0,.9.3,1.3.3s1,.2,1.5.2h1.5c1.3,0,2.4-.2,3.4-.5s1.8-.8,2.5-1.4c.7-.6,1.2-1.4,1.5-2.2.3-.9.5-1.9.5-3s-.2-1.9-.5-2.7-.8-1.4-1.3-2c-.6-.5-1.2-.9-2-1.2-.8-.3-1.6-.4-2.5-.4h0c-.6,0-1.1,0-1.5.1-.4,0-.7.1-1,.2l.3-4.1h6.5v-3.4h-10.3,0ZM11.5,22.9c-.8,0-1.6,0-2.2.3-.7.2-1.3.4-1.8.6-.6.3-1.1.6-1.5.9-.5.3-.9.5-1.3.9l2.4,2.8c.7-.7,1.5-1.2,2.1-1.6.7-.4,1.4-.5,2.1-.5s1.3.2,1.7.6.6.9.6,1.6,0,1.2-.3,1.7c-.2.5-.5,1.1-.8,1.6-.4.5-.8,1.1-1.3,1.6-.5.6-1,1.2-1.7,1.8l-4.8,5.4v2.8h13.7v-3.4h-8.3v-.2l2.5-2.7c.7-.7,1.4-1.4,2-2.1.6-.7,1.2-1.4,1.7-2.1.5-.7.9-1.4,1.1-2.2.3-.7.4-1.5.4-2.3s-.1-1.7-.4-2.4c-.3-.7-.7-1.1-1.3-1.6-.6-.5-1.2-.9-2-1.2-.8-.3-1.7-.4-2.6-.4h0ZM25.2,41.4v3.2h9.4l-7.3,17.2h4.5l7.1-17.7v-2.7h-13.8.1Z"/>
    <path class="st1" d="M3.4-.1C1.5-.1,0,1.4,0,3.3v1.1C0,2.6,1.5,1,3.4,1h57.4c1.9,0,3.4,1.5,3.4,3.4v-1.1c0-1.9-1.5-3.4-3.4-3.4,0,0-57.4,0-57.4,0Z"/>
  </g>
  <g class="st4">
    <path class="st0" d="M3.2,61.8h57.6c1.8,0,3.2-1.3,3.2-2.8V7.7c0-1.6-1.4-2.8-3.2-2.8H3.2c-1.8,0-3.2,1.3-3.2,2.8v51.3c0,1.6,1.4,2.8,3.2,2.8Z"/>
    <path class="st3" d="M3.2,60.8h57.6c1.8,0,3.2-1.3,3.2-2.8V6.7c0-1.6-1.4-2.8-3.2-2.8H3.2c-1.8,0-3.2,1.3-3.2,2.8v51.3c0,1.6,1.4,2.8,3.2,2.8Z"/>
    <path class="st9" d="M4.5,8.8v5h5.6v-5h-5.6ZM16.8,8.8v5h5.6v-5h-5.6ZM29.2,8.8v5h5.6v-5h-5.6ZM41.5,8.8v5h5.6v-5h-5.6ZM53.9,8.8v5h5.6v-5h-5.6ZM6.7,19.8v28h21.3v-28H6.7ZM35.9,19.8v28h21.3v-28h-21.3ZM4.5,52.8v5h5.6v-5h-5.6ZM16.8,52.8v5h5.6v-5h-5.6ZM29.2,52.8v5h5.6v-5h-5.6ZM41.5,52.8v5h5.6v-5h-5.6ZM53.9,52.8v5h5.6v-5h-5.6Z"/>
    <path class="st19" d="M4.5,7.8v5h5.6v-5h-5.6ZM16.8,7.8v5h5.6v-5h-5.6ZM29.2,7.8v5h5.6v-5h-5.6ZM41.5,7.8v5h5.6v-5h-5.6ZM53.9,7.8v5h5.6v-5h-5.6ZM6.7,18.8v28h21.3v-28H6.7ZM35.9,18.8v28h21.3v-28h-21.3ZM4.5,51.8v5h5.6v-5h-5.6ZM16.8,51.8v5h5.6v-5h-5.6ZM29.2,51.8v5h5.6v-5h-5.6ZM41.5,51.8v5h5.6v-5h-5.6ZM53.9,51.8v5h5.6v-5h-5.6Z"/>
    <path class="st5" d="M3.2,3.8c-1.8,0-3.2,1.3-3.2,2.8v1c0-1.6,1.4-2.8,3.2-2.8h57.6c1.8,0,3.2,1.3,3.2,2.8v-1c0-1.6-1.4-2.8-3.2-2.8H3.2Z"/>
  </g>
  <g class="st4">
    <path class="st0" d="M0,59.1v2.3c0,1.9,1.9,3.4,4.3,3.4h55c2.4,0,4.3-1.5,4.3-3.4v-2.3c0,1.9-1.9,3.4-4.3,3.4H4.3c-2.4,0-4.3-1.5-4.3-3.4Z"/>
    <path class="st2" d="M63.7,60.3V3.4c0-1.9-1.9-3.4-4.3-3.4H4.3C1.9,0,0,1.5,0,3.4v56.9c0,1.9,1.9,3.4,4.3,3.4h55c2.4,0,4.3-1.5,4.3-3.4Z"/>
    <path class="st5" d="M4.3,0C1.9,0,0,1.5,0,3.4v1.1C0,2.7,1.9,1.1,4.3,1.1h55c2.4,0,4.3,1.5,4.3,3.4v-1.1c0-1.9-1.9-3.4-4.3-3.4H4.3Z"/>
    <path class="st23" d="M11.6,13.6h34.8v2.3H11.6v-2.3Z"/>
    <path class="st23" d="M11.6,20.5h40.6v2.3H11.6v-2.3Z"/>
    <path class="st23" d="M11.6,27.3h34.8v2.3H11.6v-2.3Z"/>
    <path class="st23" d="M11.6,34.1h29v2.3H11.6v-2.3Z"/>
    <path class="st23" d="M11.6,40.9h34.8v2.3H11.6v-2.3Z"/>
    <path class="st23" d="M11.6,47.8h29v2.3H11.6v-2.3Z"/>
    <path class="st9" d="M22.7,11.3s0,0,0,0c-.6,0-1,.5-.8.9,3.3,9.1,11.5,27.1,12,28-1.3-.3-2.7-.4-4-.4-6.8,0-12.3,3.6-12.3,8s5.5,8,12.3,8,12.3-3.6,12.3-8c0-1.1-.3-2.1-1-3.1-.6-1.4-5.8-12.5-8.8-20.6,2.3.8,4.3.5,6.6,1.3,2.9,1,5.2,2.3,7.1,7.1.3.8,1.8.6,1.8-.2,0,0,0-.1,0-.2h0s0,0,0,0c0-5.2-1.3-7.8-4.2-9.8-2.9-2-6.7-2.9-10.4-4.4-3.4-1.3-7-3.5-9.7-6.3-.2-.2-.4-.3-.7-.3h0Z"/>
    <path class="st15" d="M22.7,10.2s0,0,0,0c-.6,0-1,.5-.8.9,3.4,9.3,12.1,28.3,12.1,28.3,0,0,0,.2.2.2l5.8,5.5c.7.6,1.9,0,1.6-.7,0,0-6-12.9-9.2-21.5,2.3.8,4.3.5,6.6,1.3,2.9,1,5.2,2.3,7.1,7.1.3.8,1.8.6,1.8-.2,0,0,0-.1,0-.2h0s0,0,0,0c0-5.2-1.3-7.8-4.2-9.8-2.9-2-6.7-2.9-10.4-4.4-3.4-1.3-7-3.5-9.7-6.3-.2-.2-.4-.3-.7-.3h0Z"/>
    <ellipse class="st15" cx="29.7" cy="46.6" rx="12.3" ry="8"/>
    <path class="st10" d="M22.7,10.2s0,0,0,0c-.6,0-1,.5-.8.9,0,.1.1.3.2.5.2-.1.4-.3.6-.3,0,0,0,0,0,0,.3,0,.5.1.7.3,2.7,2.8,6.2,4.9,9.7,6.3,3.7,1.4,7.5,2.3,10.4,4.4,2.7,1.9,4.1,4.4,4.2,9.1,0,0,0-.1,0-.2,0,0,0-.1,0-.2h0s0,0,0,0c0-5.2-1.3-7.8-4.2-9.8-2.9-2-6.7-2.9-10.4-4.4-3.4-1.3-7-3.5-9.7-6.3-.2-.2-.4-.3-.7-.3h0ZM32.2,24.1c3.1,8.1,8.2,19.3,8.8,20.6.5.8.8,1.7.9,2.5,0-.2,0-.4,0-.6,0-1.1-.3-2.1-1-3.1-.6-1.3-5.2-11.4-8.3-19.3-.2,0-.3,0-.5-.1ZM29.7,38.7c-6.8,0-12.3,3.6-12.3,8,0,.2,0,.3,0,.5.5-4.1,5.8-7.3,12.3-7.3,1.4,0,2.7.2,4,.4,0,0-.4-.9-.6-1.2-1.1-.2-2.3-.3-3.5-.3Z"/>
  </g>
  <g class="st4">
    <path class="st0" d="M63.9,42.9V6.1c0-1.7-1.7-3.1-3.9-3.1H5.5c-2.2,0-3.9,1.4-3.9,3.1v55.8c0,1.7,1.7,3.1,3.9,3.1h31.3l27.1-22.1Z"/>
    <path class="st6" d="M63.9,41.8V5c0-1.7-1.7-3.1-3.9-3.1H5.5c-2.2,0-3.9,1.4-3.9,3.1v55.8c0,1.7,1.7,3.1,3.9,3.1h31.3l27.1-22.1Z"/>
    <path class="st7" d="M9.9,7.4h17.3c1.6,0,2.9,1,2.9,2.3v17.5c0,1.3-1.3,2.3-2.9,2.3H9.9c-1.6,0-2.9-1-2.9-2.3V9.8c0-1.3,1.3-2.3,2.9-2.3Z"/>
    <path class="st8" d="M35.5,6.3v4.4h23v-4.4h-23Z"/>
    <path class="st8" d="M7,42.9v4.4h36.6v-4.4H7Z"/>
    <path class="st11" d="M40.8,41.8c-2.2,0-4,1.4-4,3.2v19l27.1-22.1h-23.1Z"/>
    <path class="st8" d="M35.5,15.2v4.4h23v-4.4h-23Z"/>
    <path class="st8" d="M7,34v4.4h51.4v-4.4H7Z"/>
    <path class="st8" d="M35.5,24v4.4h23v-4.4h-23Z"/>
    <path class="st12" d="M9.9,6.3h17.3c1.6,0,2.9,1,2.9,2.3v17.5c0,1.3-1.3,2.3-2.9,2.3H9.9c-1.6,0-2.9-1-2.9-2.3V8.7c0-1.3,1.3-2.3,2.9-2.3Z"/>
    <path class="st24" d="M26.2,16.3l-7.7,8.9-5.8-5.5-5.8,5.4v1.1c0,1.3,1.3,2.3,2.9,2.3h17.3c1.6,0,2.9-1,2.9-2.3v-5.4l-3.8-4.4Z"/>
    <ellipse class="st9" cx="14.5" cy="13.5" rx="3.4" ry="2.8"/>
    <ellipse class="st17" cx="14.5" cy="12.4" rx="3.4" ry="2.8"/>
    <path class="st10" d="M14.5,9.6c-1.9,0-3.4,1.2-3.4,2.8,0,.2,0,.4,0,.6.3-1.3,1.7-2.2,3.3-2.2,1.6,0,3,.9,3.3,2.2,0-.2,0-.4,0-.6,0-1.5-1.5-2.8-3.4-2.8Z"/>
    <path class="st5" d="M5.5,1.9c-2.2,0-3.9,1.4-3.9,3.1v1.1c0-1.7,1.7-3.1,3.9-3.1h54.5c2.2,0,3.9,1.4,3.9,3.1v-1.1c0-1.7-1.7-3.1-3.9-3.1H5.5Z"/>
  </g>
  <g>
    <path class="st9" d="M30.3,8.7c-13.1,0-23.6,10.6-23.6,23.8s10.5,23.8,23.6,23.8,23.6-10.6,23.6-23.8-10.5-23.8-23.6-23.8ZM30.3,22.3c5.6,0,10.1,4.6,10.1,10.2s-4.5,10.2-10.1,10.2-10.1-4.6-10.1-10.2,4.5-10.2,10.1-10.2Z"/>
    <path class="st16" d="M30.3,18.9c-7,0-12.6,5.7-12.6,12.7s5.7,12.7,12.6,12.7,12.6-5.7,12.6-12.7-5.7-12.7-12.6-12.7ZM30.3,26.6c2.8,0,5.1,2.3,5.1,5.1s-2.3,5.1-5.1,5.1-5.1-2.3-5.1-5.1,2.3-5.1,5.1-5.1Z"/>
    <path class="st22" d="M30.3,7.9c-13.1,0-23.6,10.6-23.6,23.8s10.5,23.8,23.6,23.8,23.6-10.6,23.6-23.8S43.4,7.9,30.3,7.9ZM30.3,21.5c5.6,0,10.1,4.6,10.1,10.2s-4.5,10.2-10.1,10.2-10.1-4.6-10.1-10.2,4.5-10.2,10.1-10.2Z"/>
    <path class="st10" d="M30.3,7.9c-13.1,0-23.6,10.6-23.6,23.8s0,.2,0,.3c.3-12.9,10.7-23.2,23.6-23.2s23.3,10.3,23.6,23.2c0,0,0-.2,0-.3,0-13.2-10.5-23.8-23.6-23.8ZM20.2,32.5c0,.3,0,.6,0,.9,0,.1,0,.3,0,.4,0-.1,0-.3,0-.4.4,5.3,4.8,9.3,10.1,9.3,5.3,0,9.6-4.1,10.1-9.3,0,.2,0,.3,0,.5,0-.2,0-.3,0-.5,0-.3,0-.6,0-.8-.4,5.3-4.8,9.3-10.1,9.3-5.3,0-9.6-4.1-10.1-9.3Z"/>
    <path class="st9" d="M57.2,43.4c-.4,7.2-6.3,12.9-13.4,12.9-7.1,0-12.9-5.5-13.4-12.6,0,.2,0,.5,0,.7,0,7.5,6,13.6,13.5,13.6s13.5-6.1,13.5-13.6c0-.3,0-.7,0-1h0Z"/>
    <ellipse class="st14" cx="43.8" cy="43.6" rx="13.5" ry="13.6"/>
    <g>
      <rect class="st11" x="41.3" y="35.1" width="5.1" height="10.2"/>
      <rect class="st11" x="41.3" y="47" width="5.1" height="5.1"/>
    </g>
  </g>
</svg>