<?xml version="1.0" encoding="UTF-8"?>
<svg id="_图层_1" xmlns="http://www.w3.org/2000/svg" version="1.1" viewBox="0 0 64 64" width="64" height="64">
  <!-- Generator: Adobe Illustrator 29.0.1, SVG Export Plug-In . SVG Version: 2.1.0 Build 192)  -->
  <defs>
    <style>
      .st0 {
        fill: #5f5f5f;
      }

      .st1 {
        fill: #c41f5b;
      }

      .st1, .st2, .st3, .st4, .st5, .st6 {
        display: none;
      }

      .st7 {
        fill: #797979;
      }

      .st2, .st3, .st8, .st9, .st10, .st6 {
        isolation: isolate;
      }

      .st2, .st9, .st10, .st6 {
        opacity: .2;
      }

      .st3 {
        opacity: .1;
      }

      .st3, .st11, .st10, .st6 {
        fill: #fff;
      }

      .st12 {
        fill: #ea7aa2;
      }

      .st13 {
        fill: #e0e0e0;
      }

      .st4, .st14 {
        fill: #3c4164;
      }

      .st15 {
        fill: #ffee58;
      }

      .st16 {
        fill: #ff5722;
      }

      .st8 {
        opacity: .4;
      }

      .st17 {
        fill: #959595;
      }

      .st18 {
        fill: #ff6a5b;
      }
    </style>
  </defs>
  <path class="st14" d="M47.5,64.1H13.8c-7.6,0-13.8-6.3-13.8-13.8V13.7C0,6.2,6.2,0,13.7,0h36.6c7.5,0,13.7,6.2,13.7,13.7v36.6c0,7.5-6.2,13.7-13.7,13.7h-2.9.1Z"/>
  <g class="st5">
    <path class="st2" d="M0,59.9v2.3C0,64,1.4,65.4,3.2,65.4h57.7c1.8,0,3.2-1.4,3.2-3.2v-2.3c0,1.8-1.4,3.2-3.2,3.2H3.2C1.4,63.1,0,61.7,0,59.9H0Z"/>
    <path class="st1" d="M3.2,0h57.7c1.8,0,3.2,1.4,3.2,3.2v57.8c0,1.8-1.4,3.2-3.2,3.2H3.2c-1.8,0-3.2-1.4-3.2-3.2V3.2C0,1.4,1.4,0,3.2,0Z"/>
    <path class="st9" d="M13.7,5.7v36.7l18.3,18.4,18.3-18.4h-18.3l18.3-18.4h-18.3L50.3,5.7s-36.6,0-36.6,0Z"/>
    <path class="st11" d="M50.3,41.3h-18.3v18.4l18.3-18.4Z"/>
    <path class="st11" d="M50.3,23h-18.3v18.4l18.3-18.4Z"/>
    <path class="st12" d="M50.3,4.6h-18.3v18.4L50.3,4.6Z"/>
    <path class="st13" d="M13.7,41.3h18.3v18.4l-18.3-18.4Z"/>
    <rect class="st13" x="13.7" y="4.6" width="18.3" height="36.7"/>
    <path class="st6" d="M3.2,0C1.4,0,0,1.4,0,3.2v1.2C0,2.6,1.4,1.2,3.2,1.2h57.7c1.8,0,3.2,1.4,3.2,3.2v-1.2c0-1.8-1.4-3.2-3.2-3.2H3.2Z"/>
  </g>
  <g>
    <path class="st2" d="M3.2,1.1h57.6c1.8,0,3.2,1.4,3.2,3.2v57.7c0,1.8-1.4,3.2-3.2,3.2H3.2c-1.8,0-3.2-1.4-3.2-3.2V4.4C0,2.6,1.4,1.1,3.2,1.1Z"/>
    <path class="st4" d="M3.2,0h57.6c1.8,0,3.2,1.4,3.2,3.2v57.7c0,1.8-1.4,3.2-3.2,3.2H3.2c-1.8,0-3.2-1.4-3.2-3.2V3.2C0,1.4,1.4,0,3.2,0Z"/>
    <path class="st9" d="M43.7,15.6c3.1-3.1,3.5-7.6,3.5-7.6,0,0-4.5.4-7.6,3.5-3.1,3.1-2.1,4-1,5.2s2.1,2.1,5.1-1Z"/>
    <polygon class="st18" points="13.5 16.1 23 25.6 23.7 24.9 14.2 15.4 13.5 16.1"/>
    <path class="st0" d="M24.1,26l1,1.9-.9.9,3.7,3.7,7.4-7.6,3.1-6.9c.5-.9.5-1-.2-1.7l-.5-.5c-.7-.7-.6-.5-1.4-.2l-4.1,2.4-8,8.1Z"/>
    <path class="st7" d="M12.7,14.4l16.8,16.9,6.7-6.9-18.4-15.1-5.1,5.2Z"/>
    <path class="st9" d="M12,19h0c.7.8,2,.7,2.7,0l5.7-5.7c.8-.8.8-2,0-2.7h0c-.7-.8-2-.7-2.7,0l-5.7,5.7c-.8.8-.8,2,0,2.7Z"/>
    <path class="st17" d="M12,17.9h0c.7.8,2,.7,2.7,0l5.7-5.7c.8-.8.8-2,0-2.7h0c-.7-.8-2-.7-2.7,0l-5.7,5.7c-.8.8-.8,2,0,2.7Z"/>
    <path class="st16" d="M43.7,14.5c3.1-3.1,3.5-7.6,3.5-7.6,0,0-4.5.4-7.6,3.5-3.1,3.1-2.1,4-1,5.2,1.1,1.1,2.1,2.1,5.1-1Z"/>
    <path class="st15" d="M38.6,15.5c-.6-.6-1.2-1.2-1-2.1,0,0,0,0,0,0,2.2-2.2,5.6-2.5,5.6-2.5,0,0-.3,3.3-2.5,5.6,0,0-.2.2-.3.2-.7,0-1.3-.5-1.8-1.1Z"/>
    <path class="st9" d="M21.3,26.5h0c.7.8,2,.7,2.7,0l5.7-5.7c.8-.8.8-2,0-2.7h0c-.7-.8-2-.7-2.7,0l-5.7,5.7c-.8.8-.8,2,0,2.7Z"/>
    <path class="st17" d="M21.3,25.4h0c.7.8,2,.7,2.7,0l5.7-5.7c.8-.8.8-2,0-2.7h0c-.7-.8-2-.7-2.7,0l-5.7,5.7c-.8.8-.8,2,0,2.7Z"/>
    <polygon class="st18" points="48 50.5 38.4 41 39.1 40.3 48.7 49.9 48 50.5"/>
    <path class="st9" d="M49.5,21.5c3.1-3.1,7.6-3.5,7.6-3.5,0,0-.4,4.6-3.5,7.6s-4,2.2-5.1,1c-1.1-1.1-2.1-2.1,1-5.2Z"/>
    <path class="st0" d="M38,40l-1.9-1-.9.9-3.7-3.7,7.6-7.4,6.9-3.1c.9-.5,1-.5,1.7.2l.5.5c.7.7.5.6.2,1.4l-2.3,4.1-8,8.1Z"/>
    <path class="st9" d="M46.1,53.3h0c-.7-.8-.7-2,0-2.7l5.7-5.7c.8-.8,2-.8,2.7,0h0c.7.8.7,2,0,2.7l-5.7,5.7c-.8.8-2,.8-2.7,0Z"/>
    <path class="st7" d="M49.6,51.4l-16.8-16.9,6.9-6.7,15.1,18.4-5.1,5.2Z"/>
    <path class="st9" d="M7.5,58.2c.4.3,1.2.2,2.2-.4l9.8-8.6s3.5-1,4.7-2.3c1.2-1.2,2.1-4.6,2.1-4.6l5-.4,9.3-9.9-1-3.1,3.1-3.3-1.6-1.6-1.6-1.6-3.3,3.1-3.1-1-9.8,9.4-.4,5s-3.4.9-4.6,2.1c-1.3,1.2-2.3,4.7-2.3,4.7l-8.6,9.9c-.6,1-.7,1.8-.4,2.2,0,0,.2.1.3.2,0,.1.1.2.2.3h0Z"/>
    <path class="st17" d="M46.1,52.1h0c-.7-.8-.7-2,0-2.7l5.7-5.7c.8-.8,2-.8,2.7,0h0c.7.8.7,2,0,2.7l-5.7,5.7c-.8.8-2,.8-2.7,0Z"/>
    <path class="st17" d="M7.5,57.1c.4.3,1.2.2,2.2-.4l9.8-8.6s3.5-1,4.7-2.3c1.2-1.2,2.1-4.6,2.1-4.6l5-.4,9.3-9.9-1-3.1,3.1-3.3-1.6-1.6-1.6-1.6-3.3,3.1-3.1-1-9.8,9.4-.4,5s-3.4.9-4.6,2.1c-1.3,1.2-2.3,4.7-2.3,4.7l-8.6,9.9c-.6,1-.7,1.8-.4,2.2,0,0,.2.1.3.2,0,.1.1.2.2.3h0Z"/>
    <path class="st8" d="M20.5,46.6c.5-.2,1.9-1.5,2.4-1.8l-3.7-3.7c-.3.5-1.6,1.8-1.8,2.4-.7,1.7,1.7,3.8,3.1,3.1Z"/>
    <path class="st16" d="M49.5,20.3c3.1-3.1,7.6-3.5,7.6-3.5,0,0-.4,4.6-3.5,7.6s-4,2.2-5.1,1c-1.1-1.1-2.1-2.1,1-5.2Z"/>
    <path class="st15" d="M48.5,25.5c.6.6,1.2,1.2,2.1,1,0,0,0,0,0,0,2.2-2.2,2.5-5.6,2.5-5.6,0,0-3.3.3-5.6,2.5,0,0-.2.2-.2.3,0,.7.5,1.3,1.1,1.8h0Z"/>
    <path class="st9" d="M38.7,43.9h0c-.7-.8-.7-2,0-2.7l5.7-5.7c.8-.8,2-.8,2.7,0h0c.7.8.7,2,0,2.7l-5.7,5.7c-.8.8-2,.8-2.7,0Z"/>
    <path class="st17" d="M38.7,42.8h0c-.7-.8-.7-2,0-2.7l5.7-5.7c.8-.8,2-.8,2.7,0h0c.7.8.7,2,0,2.7l-5.7,5.7c-.8.8-2,.8-2.7,0Z"/>
    <path class="st10" d="M26.4,41.1l-3.5-3.5,13.3-13.3,4.8-1.4-1.4,4.8-13.3,13.4Z"/>
    <path class="st3" d="M3.2,0C1.4,0,0,1.4,0,3.2v1.1C0,2.6,1.4,1.1,3.2,1.1h57.6c1.8,0,3.2,1.4,3.2,3.2v-1.1c0-1.8-1.4-3.2-3.2-3.2H3.2Z"/>
  </g>
</svg>