<?xml version="1.0" encoding="UTF-8"?>
<svg id="_图层_1" xmlns="http://www.w3.org/2000/svg" version="1.1" viewBox="0 0 64 64" width="64" height="64">
  <!-- Generator: Adobe Illustrator 29.0.1, SVG Export Plug-In . SVG Version: 2.1.0 Build 192)  -->
  <defs>
    <style>
      .st0 {
        fill: #5d472e;
      }

      .st1, .st2, .st3, .st4, .st5, .st6 {
        display: none;
      }

      .st1, .st2, .st7, .st8, .st9, .st6 {
        isolation: isolate;
      }

      .st1, .st8, .st9, .st6 {
        opacity: .2;
      }

      .st2, .st10, .st9, .st6 {
        fill: #fff;
      }

      .st2, .st7 {
        opacity: .1;
      }

      .st3, .st11 {
        fill: #846847;
      }

      .st12, .st5 {
        fill: #c8f178;
      }

      .st13 {
        fill: #a45390;
      }

      .st14 {
        fill: #a4946c;
      }

      .st15 {
        fill: #6db832;
      }

      .st16 {
        fill: #c2352a;
      }

      .st17 {
        fill: #4987d7;
      }

      .st18 {
        fill: #86bd1f;
      }

      .st19 {
        fill: #d8cbb8;
      }
    </style>
  </defs>
  <path class="st11" d="M50.3,64H13.8c-7.6,0-13.8-6.2-13.8-13.7V13.7C0,6.2,6.2,0,13.7,0h36.5c7.5,0,13.7,6.2,13.7,13.7v36.6c0,7.5-6.2,13.7-13.7,13.7h0Z"/>
  <g class="st4">
    <path class="st1" d="M0,59.5v2.3c0,1.9,1.5,3.4,3.4,3.4h57.4c1.9,0,3.4-1.5,3.4-3.4v-2.3c0,1.9-1.5,3.4-3.4,3.4H3.4c-1.9,0-3.4-1.5-3.4-3.4Z"/>
    <path class="st17" d="M3.2-.1C2.3-.1,1.5.3.9.8l31.2,31.2L63.3.8c-.6-.6-1.4-.9-2.3-.9,0,0-57.8,0-57.8,0Z"/>
    <path class="st13" d="M3.2,64.1c-.9,0-1.7-.4-2.3-.9l31.2-31.2,31.2,31.2c-.6.6-1.4.9-2.3.9H3.2Z"/>
    <path class="st15" d="M64.2,3.1c0-.9-.4-1.7-.9-2.3l-31.2,31.2,31.2,31.2c.6-.6.9-1.4.9-2.3V3.1h0Z"/>
    <path class="st16" d="M0,3.1c0-.9.4-1.7.9-2.3l31.2,31.2L.9,63.2c-.6-.6-.9-1.4-.9-2.3V3.1h0Z"/>
    <path class="st8" d="M35,5.6c-1.4,0-2.5.2-3.6.5-1,.3-1.9.8-2.6,1.3-.7.6-1.3,1.2-1.8,2s-.8,1.3-1.1,2.1c-.3.9-.5,1.8-.6,2.8s-.2,1.9-.2,2.9h0c0,1.5.2,2.9.5,4,.4,1.1.9,2,1.5,2.8.7.7,1.4,1.3,2.3,1.7.9.4,1.8.5,2.8.5s2-.2,2.8-.5,1.5-.8,2.1-1.4,1-1.4,1.3-2.2c.3-.9.5-1.9.5-3s0-2-.4-2.8c-.3-.8-.6-1.6-1.1-2.1-.5-.6-1.1-1-1.8-1.3s-1.5-.4-2.4-.4-1.1,0-1.5.2c-.4.1-.8.3-1.2.5-.4.2-.7.6-.9.9-.3.3-.5.6-.7.9h-.2c0-1,.2-1.8.4-2.6.2-.8.5-1.1,1-1.7.5-.6,1.1-1,1.9-1.3.8-.3,1.8-.5,3.1-.5s.8,0,1.2,0,.8.1,1.1.2v-3.5h-2.6s.2,0,.2,0ZM32.4,16c.8,0,1.5.3,1.9.9s.6,1.4.6,2.4,0,1.1-.2,1.6c0,.4-.3.8-.5,1.1-.2.3-.5.5-.8.7-.3.1-.7.2-1,.2s-.9-.1-1.2-.4c-.3-.2-.6-.5-.9-.9-.2-.4-.4-.8-.5-1.3s-.2-1-.2-1.4,0-.7.2-1c.1-.3.3-.6.6-.9.3-.3.6-.5.9-.7.4-.2.7-.3,1.2-.3h0ZM47,24v10.3l1,.9c.2,0,.4,0,.6-.2.2,0,.5,0,.8-.2h1.6c1.3,0,2.3.3,3,.8.6.5,1,1.3,1,2.3s-.3,2-1,2.5-1.6.8-2.9.8-.9,0-1.3,0-.9-.2-1.4-.3-.9-.3-1.3-.4c-.4-.2-.8-.3-1.1-.5v3.7c.3.2.7.3,1.1.5.4,0,.9.3,1.3.3s1,.2,1.5.2h1.5c1.3,0,2.4-.2,3.4-.5s1.8-.8,2.5-1.4c.7-.6,1.2-1.4,1.5-2.2.3-.9.5-1.9.5-3s-.2-1.9-.5-2.7-.8-1.4-1.3-2c-.6-.5-1.2-.9-2-1.2-.8-.3-1.6-.4-2.5-.4h0c-.6,0-1.1,0-1.5.1-.4,0-.7.1-1,.2l.3-4.1h6.5v-3.4h-10.3,0ZM11.5,24.1c-.8,0-1.6,0-2.2.3-.7.2-1.3.4-1.8.6-.6.3-1.1.6-1.5.9-.5.3-.9.5-1.3.9l2.4,2.8c.7-.7,1.5-1.2,2.1-1.6.7-.4,1.4-.5,2.1-.5s1.3.2,1.7.6.6.9.6,1.6,0,1.2-.3,1.7c-.2.5-.5,1.1-.8,1.6-.4.5-.8,1.1-1.3,1.6-.5.6-1,1.2-1.7,1.8l-4.8,5.4v2.8h13.7v-3.4h-8.3v-.2l2.5-2.7c.7-.7,1.4-1.4,2-2.1.6-.7,1.2-1.4,1.7-2.1.5-.7.9-1.4,1.1-2.2.3-.7.4-1.5.4-2.3s-.1-1.7-.4-2.4c-.3-.7-.7-1.1-1.3-1.6-.6-.5-1.2-.9-2-1.2-.8-.3-1.7-.4-2.6-.4h0ZM25.2,42.5v3.2h9.4l-7.3,17.2h4.5l7.1-17.7v-2.7h-13.8.1Z"/>
    <path class="st10" d="M35,4.5c-1.4,0-2.5.2-3.6.5-1,.3-1.9.8-2.6,1.3-.7.6-1.3,1.2-1.8,2s-.8,1.3-1.1,2.1c-.3.9-.5,1.8-.6,2.8s-.2,1.9-.2,2.9h0c0,1.5.2,2.9.5,4,.4,1.1.9,2,1.5,2.8.7.7,1.4,1.3,2.3,1.7.9.4,1.8.5,2.8.5s2-.2,2.8-.5,1.5-.8,2.1-1.4,1-1.4,1.3-2.2c.3-.9.5-1.9.5-3s0-2-.4-2.8c-.3-.8-.6-1.6-1.1-2.1-.5-.6-1.1-1-1.8-1.3s-1.5-.4-2.4-.4-1.1,0-1.5.2c-.4.1-.8.3-1.2.5-.4.2-.7.6-.9.9-.3.3-.5.6-.7.9h-.2c0-1,.2-1.8.4-2.6.2-.8.5-1.1,1-1.7.5-.6,1.1-1,1.9-1.3.8-.3,1.8-.5,3.1-.5s.8,0,1.2,0,.8,0,1.1.2v-3.5h-2.6s.2,0,.2,0ZM32.4,14.9c.8,0,1.5.3,1.9.9.4.6.6,1.4.6,2.4s0,1.1-.2,1.6c0,.4-.3.8-.5,1.1-.2.3-.5.5-.8.7-.3.1-.7.2-1,.2s-.9-.1-1.2-.4c-.3-.2-.6-.5-.9-.9-.2-.4-.4-.8-.5-1.3s-.2-1-.2-1.4,0-.7.2-1c.1-.3.3-.6.6-.9.3-.3.6-.5.9-.7.4-.2.7-.3,1.2-.3h0ZM47,22.8v10.3l1,.9c.2,0,.4,0,.6-.2.2,0,.5,0,.8-.2h1.6c1.3,0,2.3.3,3,.8.6.5,1,1.3,1,2.3s-.3,2-1,2.5-1.6.8-2.9.8-.9,0-1.3,0-.9-.2-1.4-.3-.9-.3-1.3-.4c-.4-.2-.8-.3-1.1-.5v3.7c.3.2.7.3,1.1.5.4,0,.9.3,1.3.3s1,.2,1.5.2h1.5c1.3,0,2.4-.2,3.4-.5s1.8-.8,2.5-1.4c.7-.6,1.2-1.4,1.5-2.2.3-.9.5-1.9.5-3s-.2-1.9-.5-2.7-.8-1.4-1.3-2c-.6-.5-1.2-.9-2-1.2-.8-.3-1.6-.4-2.5-.4h0c-.6,0-1.1,0-1.5.1-.4,0-.7.1-1,.2l.3-4.1h6.5v-3.4h-10.3,0ZM11.5,22.9c-.8,0-1.6,0-2.2.3-.7.2-1.3.4-1.8.6-.6.3-1.1.6-1.5.9-.5.3-.9.5-1.3.9l2.4,2.8c.7-.7,1.5-1.2,2.1-1.6.7-.4,1.4-.5,2.1-.5s1.3.2,1.7.6.6.9.6,1.6,0,1.2-.3,1.7c-.2.5-.5,1.1-.8,1.6-.4.5-.8,1.1-1.3,1.6-.5.6-1,1.2-1.7,1.8l-4.8,5.4v2.8h13.7v-3.4h-8.3v-.2l2.5-2.7c.7-.7,1.4-1.4,2-2.1.6-.7,1.2-1.4,1.7-2.1.5-.7.9-1.4,1.1-2.2.3-.7.4-1.5.4-2.3s-.1-1.7-.4-2.4c-.3-.7-.7-1.1-1.3-1.6-.6-.5-1.2-.9-2-1.2-.8-.3-1.7-.4-2.6-.4h0ZM25.2,41.4v3.2h9.4l-7.3,17.2h4.5l7.1-17.7v-2.7h-13.8.1Z"/>
    <path class="st2" d="M3.4-.1C1.5-.1,0,1.4,0,3.3v1.1C0,2.6,1.5,1,3.4,1h57.4c1.9,0,3.4,1.5,3.4,3.4v-1.1c0-1.9-1.5-3.4-3.4-3.4,0,0-57.4,0-57.4,0Z"/>
  </g>
  <g class="st4">
    <path class="st1" d="M32.3,1.3c-1.5,0-2.9.3-4.2,1L4.5,14.6c-2.5,1.3-4,3.7-4,6.3v24.7c0,2.6,1.5,5,4,6.3l23.6,12.3c2.5,1.3,5.5,1.3,8,0l23.6-12.3c2.5-1.3,4-3.7,4-6.3v-24.7c0-2.6-1.5-5-4-6.3L36.1,2.2c-1.2-.6-2.5-.9-3.8-1h0Z"/>
    <path class="st5" d="M32.3.2c-1.5,0-2.9.3-4.2,1L4.5,13.4c-2.5,1.3-4,3.7-4,6.3v24.7c0,2.6,1.5,5,4,6.3l23.6,12.3c2.5,1.3,5.5,1.3,8,0l23.6-12.3c2.5-1.3,4-3.7,4-6.3v-24.7c0-2.6-1.5-5-4-6.3L36.1,1.1c-1.2-.6-2.5-.9-3.8-1h0Z"/>
    <path class="st9" d="M7.9,43.2v1.1c0,1,.7,2.1,1.6,2.6l21,11.1c1,.5,2.3.5,3.2,0l21-11.1c.9-.5,1.6-1.6,1.6-2.6v-1.1c0,1-.7,2.1-1.6,2.6l-21,11.1c-1,.5-2.3.5-3.2,0l-21-11.1c-.9-.5-1.6-1.6-1.6-2.6Z"/>
    <path class="st18" d="M32.2,6.9c-.6,0-1.2.1-1.7.4l-21,11.1c-.9.5-1.6,1.6-1.6,2.6v22.2c0,1,.7,2.1,1.6,2.6l21,11.1c1,.5,2.3.5,3.2,0l21-11.1c.9-.5,1.6-1.6,1.6-2.6v-22.2h0c0-1-.7-2.1-1.6-2.6l-21-11.1s0,0,0,0c-.5-.3-1-.4-1.5-.4,0,0,0,0,0,0h0Z"/>
    <path class="st7" d="M32.2,6.9c-.6,0-1.2.1-1.7.4l-21,11.1c-.9.5-1.6,1.6-1.6,2.6v1.1c0-1,.7-2.1,1.6-2.6l21-11.1c.5-.3,1.1-.4,1.7-.4,0,0,0,0,0,0,.5,0,1.1.1,1.5.4h0l21,11.1c.9.5,1.6,1.6,1.6,2.6v-1.1h0c0-1-.7-2.1-1.6-2.6l-21-11.1h0c-.5-.3-1-.4-1.5-.4,0,0,0,0,0,0Z"/>
    <path class="st12" d="M2.7,14.7c-.8.8-1.4,1.7-1.8,2.7l29.5,15.5v30.8c.5.1,1,.2,1.6.2.7,0,1.3,0,1.9-.2v-30.8l29.5-15.5c-.4-1-1-2-1.8-2.7l-29.4,15.5L2.7,14.7Z"/>
    <path class="st6" d="M32.3.2c-1.5,0-2.9.3-4.2,1L4.5,13.4c-2.5,1.3-4,3.7-4,6.3v1.1c0-2.6,1.5-5,4-6.3L28.1,2.2c1.3-.7,2.7-1,4.2-1h0c1.3,0,2.7.4,3.8,1l23.6,12.3c2.5,1.3,4,3.7,4,6.3v-1.1c0-2.6-1.5-5-4-6.3L36.1,1.1c-1.2-.6-2.5-.9-3.8-1h0Z"/>
    <path class="st7" d="M56.3,21.2l-22.4,11.8v1.1l22.4-11.8v-1.1ZM7.9,21.2v1.1l22.4,11.8v-1.1L7.9,21.2Z"/>
  </g>
  <g>
    <ellipse class="st1" cx="31.9" cy="33.2" rx="31.9" ry="32.1"/>
    <ellipse class="st3" cx="31.9" cy="32.1" rx="31.9" ry="32.1"/>
    <ellipse class="st8" cx="31.9" cy="33.2" rx="25.1" ry="25.2"/>
    <ellipse class="st14" cx="31.9" cy="32.1" rx="25.1" ry="25.2"/>
    <path class="st7" d="M31.9,8l-5.2,15.7-8.5-4.3,4.2,8.5-15.6,5.2,15.6,5.2-4.2,8.5,8.5-4.3,5.2,15.7,5.2-15.7,8.5,4.3-4.2-8.5,15.6-5.2-15.6-5.2,4.2-8.5-8.5,4.3-5.2-15.7Z"/>
    <path class="st19" d="M18.3,18.3l13.7,13.7h-6.8l-6.8-13.7Z"/>
    <path class="st0" d="M18.3,18.3l13.7,13.7v-6.9l-13.7-6.9Z"/>
    <path class="st19" d="M45.6,45.8l-13.7-13.7h6.8l6.8,13.7Z"/>
    <path class="st0" d="M45.6,45.8l-13.7-13.7v6.9l13.7,6.9Z"/>
    <path class="st19" d="M45.6,18.3l-13.7,13.7v-6.9l13.7-6.9Z"/>
    <path class="st0" d="M45.6,18.3l-13.7,13.7h6.8l6.8-13.7Z"/>
    <path class="st19" d="M18.3,45.8l13.7-13.7v6.9l-13.7,6.9Z"/>
    <path class="st0" d="M18.3,45.8l13.7-13.7h-6.8l-6.8,13.7Z"/>
    <path class="st19" d="M31.9,6.9v25.2l-6.3-6.3,6.3-18.9Z"/>
    <path class="st0" d="M31.9,6.9v25.2l6.3-6.3-6.3-18.9Z"/>
    <path class="st19" d="M31.9,57.2v-25.2l6.3,6.3-6.3,18.9Z"/>
    <path class="st0" d="M31.9,57.2v-25.2l-6.3,6.3,6.3,18.9Z"/>
    <path class="st19" d="M57,32.1h-25.1l6.3-6.3,18.8,6.3Z"/>
    <path class="st0" d="M57,32.1h-25.1l6.3,6.3,18.8-6.3Z"/>
    <path class="st19" d="M6.8,32.1h25.1l-6.3,6.3-18.8-6.3Z"/>
    <path class="st0" d="M6.8,32.1h25.1l-6.3-6.3-18.8,6.3Z"/>
    <path class="st2" d="M31.9,0C14.3,0,0,14.4,0,32.1c0,.2,0,.4,0,.6C.3,15.2,14.5,1.2,31.9,1.1c17.4,0,31.6,14,31.9,31.5,0-.2,0-.4,0-.6C63.9,14.4,49.6,0,31.9,0Z"/>
  </g>
</svg>