<?xml version="1.0" encoding="UTF-8"?>
<svg id="_图层_1" xmlns="http://www.w3.org/2000/svg" version="1.1" viewBox="0 0 64 64" width="64" height="64">
  <!-- Generator: Adobe Illustrator 29.0.1, SVG Export Plug-In . SVG Version: 2.1.0 Build 192)  -->
  <defs>
    <style>
      .st0, .st1, .st2, .st3, .st4, .st5 {
        display: none;
      }

      .st0, .st1, .st6, .st7, .st8 {
        isolation: isolate;
      }

      .st0, .st6, .st7 {
        opacity: .2;
      }

      .st1, .st9, .st7, .st8 {
        fill: #fff;
      }

      .st1, .st8 {
        opacity: .1;
      }

      .st2, .st10 {
        fill: #7158e0;
      }

      .st11 {
        fill: #df4545;
      }

      .st12 {
        fill: #f9442b;
      }

      .st4 {
        fill: #4f4f4f;
      }

      .st5 {
        fill: #513e45;
      }
    </style>
  </defs>
  <path class="st10" d="M47.5,64.1H13.8c-7.6,0-13.8-6.3-13.8-13.8V13.7C0,6.2,6.2,0,13.7,0h36.6c7.5,0,13.7,6.2,13.7,13.7v36.6c0,7.5-6.2,13.7-13.7,13.7h-2.9.1Z"/>
  <g class="st3">
    <path class="st0" d="M3.2,1.1h57.7c1.8,0,3.2,1.4,3.2,3.2v57.5c0,1.8-1.4,3.2-3.2,3.2H3.2c-1.8,0-3.2-1.4-3.2-3.2V4.3C0,2.6,1.4,1.1,3.2,1.1Z"/>
    <path class="st5" d="M3.2,0h57.7c1.8,0,3.2,1.4,3.2,3.2v57.5c0,1.8-1.4,3.2-3.2,3.2H3.2c-1.8,0-3.2-1.4-3.2-3.2V3.2C0,1.4,1.4,0,3.2,0Z"/>
    <path class="st6" d="M15,8c4.1.5,9.9.7,14,1.4,1,.2,2.8,2.7,1.5,3-2.5-.3-6.1,2.2-6.2,4.3,0,1.6-1.1,4.4,1.5,3.9,8.3,0,16.1,0,24.4,0l-4.3,4.5h-21.9v3.4h19.5c0,.1-4.2,4.6-4.2,4.6h-15.3v4.6h12.3c-1.4,1.5-4.3,4.6-4.3,4.6h-7.9c0,0,0,6.9,0,6.9h13.9c2.3-.5,3.8-3.7,3.6-6,.2-1.4,2.6.5,2.8,1.3.7,2.4.6,5,1,7.5.2,1.7.3,3.4.5,5.1H14.9V8Z"/>
    <path class="st12" d="M15,6.9c4.1.5,9.9.7,14,1.4,1,.2,2.8,2.7,1.5,3-2.5-.3-6.1,2.2-6.2,4.3,0,1.6-1.1,4.4,1.5,3.9,8.3,0,16.1,0,24.4,0l-4.3,4.5h-21.9v3.4h19.5c0,.1-4.2,4.6-4.2,4.6h-15.3v4.6h12.3c-1.4,1.5-4.3,4.6-4.3,4.6h-7.9c0,0,0,6.9,0,6.9h13.9c2.3-.5,3.8-3.7,3.6-6,.2-1.4,2.6.5,2.8,1.3.7,2.4.6,5,1,7.5.2,1.7.3,3.4.5,5.1H14.9V6.9Z"/>
    <path class="st1" d="M3.2,0C1.4,0,0,1.4,0,3.2v1.1C0,2.6,1.4,1.1,3.2,1.1h57.7c1.8,0,3.2,1.4,3.2,3.2v-1.1c0-1.8-1.4-3.2-3.2-3.2H3.2Z"/>
    <path class="st7" d="M15,6.9v49.1c-.1,0,0,0,0,0V8c4.2.5,10,.7,14.1,1.4.6.1,1.4,1,1.8,1.7.8-.5-.8-2.7-1.8-2.9-4-.7-9.9-.9-14-1.4ZM24.1,18.5c-.1,1.3,0,2.4,1.7,2.1,8,0,15.4,0,23.4,0l1.1-1.1c-8.3,0-16.1,0-24.4,0-1.2.2-1.6-.2-1.7-.9ZM24,27.4v1.1h18.5c0,0,1.1-1,1.1-1h-19.5ZM24,36.5v1.1h11.2c.4-.4.8-.8,1.1-1.1h-12.3ZM42.1,41.5c-.3,0-.4.1-.5.5.2,2.3-1.4,5.5-3.6,5.9h-13.9c0,0,0,1.2,0,1.2h13.9c2.3-.5,3.8-3.7,3.6-6,.2-1.4,2.6.5,2.8,1.3.7,2.4.6,5,1,7.5.1,1.3.3,2.6.4,3.9h.1c-.2-1.7-.3-3.4-.5-5.1-.3-2.5-.3-5.1-1-7.5-.2-.7-1.6-1.8-2.3-1.8Z"/>
  </g>
  <g class="st3">
    <path class="st0" d="M3.2,1.1h57.7c1.8,0,3.2,1.4,3.2,3.2v57.5c0,1.8-1.4,3.2-3.2,3.2H3.2c-1.8,0-3.2-1.4-3.2-3.2V4.3C0,2.6,1.4,1.1,3.2,1.1Z"/>
    <path class="st4" d="M3.2,0h57.7c1.8,0,3.2,1.4,3.2,3.2v57.5c0,1.8-1.4,3.2-3.2,3.2H3.2c-1.8,0-3.2-1.4-3.2-3.2V3.2C0,1.4,1.4,0,3.2,0Z"/>
    <path class="st6" d="M4.6,13.7v38.8h5.7v-17.1h10.3v-5.7h-10.3v-10.3h10.3v-5.7H4.6ZM24,13.7v38.8h16v-5.7h-10.3v-11.4h10.3v-5.7h-10.3v-10.3h10.3v-5.7h-16ZM43.5,13.7v38.8h5.7v-17.1h4.6v17.1h5.7V13.7h-5.7v16h-4.6v-16h-5.7Z"/>
    <rect class="st11" x="4.6" y="12.6" width="5.7" height="38.8"/>
    <rect class="st11" x="4.6" y="12.6" width="16" height="5.7"/>
    <rect class="st11" x="4.6" y="28.5" width="16" height="5.7"/>
    <rect class="st11" x="24" y="12.6" width="5.7" height="38.8"/>
    <rect class="st11" x="24" y="12.6" width="16" height="5.7"/>
    <rect class="st11" x="24" y="28.5" width="16" height="5.7"/>
    <rect class="st11" x="43.5" y="12.6" width="5.7" height="38.8"/>
    <rect class="st11" x="43.5" y="28.5" width="16" height="5.7"/>
    <rect class="st11" x="24" y="45.7" width="16" height="5.7"/>
    <rect class="st11" x="53.8" y="12.6" width="5.7" height="38.8"/>
    <path class="st8" d="M4.6,12.6v1.1h16v-1.1H4.6ZM24,12.6v1.1h16v-1.1h-16ZM43.5,12.6v1.1h5.7v-1.1h-5.7ZM53.8,12.6v1.1h5.7v-1.1h-5.7ZM10.3,28.5v1.1h10.3v-1.1h-10.3ZM29.7,28.5v1.1h10.3v-1.1h-10.3ZM49.2,28.5v1.1h4.6v-1.1h-4.6ZM29.7,45.7v1.1h10.3v-1.1h-10.3Z"/>
    <path class="st1" d="M3.2,0C1.4,0,0,1.4,0,3.2v1.1C0,2.6,1.4,1.1,3.2,1.1h57.7c1.8,0,3.2,1.4,3.2,3.2v-1.1c0-1.8-1.4-3.2-3.2-3.2H3.2Z"/>
  </g>
  <g>
    <ellipse class="st0" cx="31.8" cy="33.2" rx="31.8" ry="32"/>
    <ellipse class="st2" cx="31.8" cy="32" rx="31.8" ry="32"/>
    <path class="st6" d="M21.1,41c1.2-.4,4.1-1.8,6.5-3.3,2-1.3,4-2.4,4.2-2.4s1.4.7,4.3,2.4c3.1,1.9,5.3,3,6.6,3.3.7.2,1.2.1,1.8-.2,1.3-.6,3-2,5.2-4.2,2.9-2.9,5.6-6.3,6-7.5.1-.4,0-.5-.6-.5-1,0-2.3.4-7.6,2.1-2.2.7-3.8,1.1-4.1,1.1-.5,0-2.3-1.1-4.9-2.9-1.3-.9-3.8-2.6-4.6-3-1.1-.7-1.7-.9-2.2-.8-.8,0-2.2.9-7.1,4.3-2.4,1.6-3.6,2.4-4.2,2.4-.4,0-1,0-6.8-1.9-1.9-.6-3.3-1-4.1-1.1-.6-.1-1.4-.2-1.5,0-.4.3.8,2.3,2.8,4.6,3.4,3.9,7.1,7.1,8.8,7.7.3,0,1,0,1.4,0h0Z"/>
    <path class="st9" d="M21.1,39.9c1.2-.4,4.1-1.8,6.5-3.3,2-1.3,4-2.4,4.2-2.4s1.4.7,4.3,2.4c3.1,1.9,5.3,3,6.6,3.3.7.2,1.2.1,1.8-.2,1.3-.6,3-2,5.2-4.2,2.9-2.9,5.6-6.3,6-7.5.1-.4,0-.5-.6-.5-1,0-2.3.4-7.6,2.1-2.2.7-3.8,1.1-4.1,1.1-.5,0-2.3-1.1-4.9-2.9-1.3-.9-3.8-2.6-4.6-3-1.1-.7-1.7-.9-2.2-.8-.8,0-2.2.9-7.1,4.3-2.4,1.6-3.6,2.4-4.2,2.4-.4,0-1,0-6.8-1.9-1.9-.6-3.3-1-4.1-1.1-.6-.1-1.4-.2-1.5,0-.4.3.8,2.3,2.8,4.6,3.4,3.9,7.1,7.1,8.8,7.7.3,0,1,0,1.4,0h0Z"/>
    <path class="st1" d="M31.8,0C14.2,0,0,14.3,0,32c0,.2,0,.4,0,.6C.4,15.1,14.5,1.2,31.8,1.1c17.2,0,31.3,13.8,31.8,31.1,0,0,0-.2,0-.3C63.6,14.3,49.4,0,31.8,0Z"/>
  </g>
</svg>