<?xml version="1.0" encoding="UTF-8"?>
<svg id="_图层_1" xmlns="http://www.w3.org/2000/svg" version="1.1" viewBox="0 0 64 64" width="64" height="64">
  <!-- Generator: Adobe Illustrator 29.0.1, SVG Export Plug-In . SVG Version: 2.1.0 Build 192)  -->
  <defs>
    <style>
      .st0 {
        fill: #3c3a2d;
      }

      .st0, .st1, .st2, .st3, .st4, .st5, .st6, .st7, .st8 {
        display: none;
      }

      .st1, .st2, .st9, .st10, .st11, .st5, .st12 {
        isolation: isolate;
      }

      .st1, .st10, .st11, .st5 {
        opacity: .2;
      }

      .st2, .st13, .st11, .st5, .st12 {
        fill: #fff;
      }

      .st2, .st12 {
        opacity: .1;
      }

      .st14 {
        fill: #f68f33;
      }

      .st15 {
        fill: #3f3f3f;
      }

      .st16 {
        fill: #b0b9f5;
      }

      .st3 {
        fill: #75aa03;
      }

      .st17 {
        fill: #72be44;
      }

      .st18 {
        fill: #f5e1d8;
      }

      .st9 {
        opacity: .4;
      }

      .st19 {
        fill: #ff6e6e;
      }

      .st6 {
        fill: #2e49bc;
      }

      .st7 {
        fill: #826f3d;
      }

      .st8, .st20 {
        fill: #e4e4e4;
      }

      .st21 {
        fill: #01d900;
      }

      .st22 {
        fill: #ed253e;
      }

      .st23 {
        fill: #dc730e;
      }

      .st24 {
        fill: #00e5ff;
      }
    </style>
  </defs>
  <path class="st20" d="M50.4,64H13.8c-7.6,0-13.8-6.2-13.8-13.7V13.7C0,6.2,6.2,0,13.7,0h36.6c7.5,0,13.7,6.2,13.7,13.7v36.6c0,7.5-6.2,13.7-13.7,13.7h.1Z"/>
  <g class="st4">
    <path class="st1" d="M6.4,1.1h51.2c3.5,0,6.4,2.9,6.4,6.4v51.2c0,3.5-2.9,6.4-6.4,6.4H6.4c-3.5,0-6.4-2.9-6.4-6.4V7.5C0,4,2.9,1.1,6.4,1.1Z"/>
    <rect class="st3" width="64" height="63.9" rx="6.4" ry="6.4"/>
    <path class="st10" d="M22.9,12.9l-.9.6,2.4,3.5c-3.2,2-5.5,5.5-6.3,9.2h28c-.8-3.7-3.1-7.1-6.3-9.2l2.4-3.5-.9-.6-2.4,3.6c-2.1-1.1-4.4-1.7-6.7-1.7-2.3,0-4.7.6-6.7,1.7l-2.4-3.6ZM25.7,19.4c.9,0,1.7.8,1.7,1.7s-.8,1.7-1.7,1.7-1.7-.8-1.7-1.7.8-1.7,1.7-1.7ZM38.3,19.4c.9,0,1.7.8,1.7,1.7s-.8,1.7-1.7,1.7-1.7-.8-1.7-1.7.8-1.7,1.7-1.7ZM13.7,28.5c-1.3,0-2.3,1.1-2.2,2.5v13.2c0,3.3,4.6,3.3,4.6,0v-13.2c0-1.4-1-2.5-2.3-2.5ZM18.3,28.5v22c0,1.7,1.4,3.1,3,3.1h5v-2.3h4.6v-2.2h0c-.6-.2-1.5-.4-1.9-.6-3.6-1.3-6.1-4.7-6.1-8.6,0-5,4.1-9.1,9.1-9.1s9.1,4.1,9.1,9.1c0,3.8-2.4,7.2-5.9,8.5-.5.2-1.5.4-2.1.5h0v2.3h4.6v2.3h5c1.7,0,3-1.4,3-3.1v-22h-27.4ZM50.2,28.5c-1.3,0-2.3,1.1-2.2,2.5v13.2c0,3.3,4.6,3.3,4.6,0v-13.2c0-1.4-1-2.5-2.3-2.5ZM32,35.4c-2.5,0-4.6,2-4.6,4.6s2,4.6,4.6,4.6,4.6-2,4.6-4.6-2-4.6-4.6-4.6ZM32,36.9c1.7,0,3,1.4,3,3,0,1.7-1.4,3-3,3-1.7,0-3-1.4-3-3,0-.3,0-.6.1-.9.2.5.8.9,1.4.9.8,0,1.5-.7,1.5-1.5,0-.6-.4-1.1-.9-1.4.3,0,.6-.1.9-.1Z"/>
    <path class="st13" d="M22.9,11.8l-.9.6,2.4,3.5c-3.2,2-5.5,5.5-6.3,9.2h28c-.8-3.7-3.1-7.1-6.3-9.2l2.4-3.5-.9-.6-2.4,3.6c-2.1-1.1-4.4-1.7-6.7-1.7-2.3,0-4.7.6-6.7,1.7l-2.4-3.6ZM25.7,18.3c.9,0,1.7.8,1.7,1.7s-.8,1.7-1.7,1.7-1.7-.8-1.7-1.7.8-1.7,1.7-1.7ZM38.3,18.3c.9,0,1.7.8,1.7,1.7s-.8,1.7-1.7,1.7-1.7-.8-1.7-1.7.8-1.7,1.7-1.7ZM13.7,27.4c-1.3,0-2.3,1.1-2.2,2.5v13.2c0,3.3,4.6,3.3,4.6,0v-13.2c0-1.4-1-2.5-2.3-2.5ZM18.3,27.4v22c0,1.7,1.4,3.1,3,3.1h5v-2.3h4.6v-2.2h0c-.6-.2-1.5-.4-1.9-.6-3.6-1.3-6.1-4.7-6.1-8.6,0-5,4.1-9.1,9.1-9.1s9.1,4.1,9.1,9.1c0,3.8-2.4,7.2-5.9,8.5-.5.2-1.5.4-2.1.5h0v2.3h4.6v2.3h5c1.7,0,3-1.4,3-3.1v-22h-27.4ZM50.2,27.4c-1.3,0-2.3,1.1-2.2,2.5v13.2c0,3.3,4.6,3.3,4.6,0v-13.2c0-1.4-1-2.5-2.3-2.5ZM32,34.3c-2.5,0-4.6,2-4.6,4.6s2,4.6,4.6,4.6,4.6-2,4.6-4.6-2-4.6-4.6-4.6ZM32,35.8c1.7,0,3,1.4,3,3,0,1.7-1.4,3-3,3-1.7,0-3-1.4-3-3,0-.3,0-.6.1-.9.2.5.8.9,1.4.9.8,0,1.5-.7,1.5-1.5,0-.6-.4-1.1-.9-1.4.3,0,.6-.1.9-.1Z"/>
    <path class="st5" d="M6.4,0C2.9,0,0,2.9,0,6.4v1.1C0,4,2.9,1.1,6.4,1.1h51.2c3.5,0,6.4,2.9,6.4,6.4v-1.1c0-3.5-2.9-6.4-6.4-6.4H6.4Z"/>
  </g>
  <g class="st4">
    <path class="st1" d="M9.6,1.1h44.8c5.3,0,9.6,4.3,9.6,9.6v44.8c0,5.3-4.3,9.6-9.6,9.6H9.6c-5.3,0-9.6-4.3-9.6-9.6V10.7C0,5.4,4.3,1.1,9.6,1.1Z"/>
    <path class="st6" d="M9.6,0h44.8c5.3,0,9.6,4.3,9.6,9.6v44.8c0,5.3-4.3,9.6-9.6,9.6H9.6c-5.3,0-9.6-4.3-9.6-9.6V9.6C0,4.3,4.3,0,9.6,0Z"/>
    <rect class="st24" x="17.2" y="30.8" width="29.8" height="2.3"/>
    <path class="st16" d="M21.1,25.1l11.2-2.3,10.6,2.3-27.5,17.1.4-9.6,5.3-7.5Z"/>
    <path class="st10" d="M50.7,16c1.8-1.9,3.3-3.5,3.4-3.7.5-.6.2-1.6-.4-1.9-.2-.1-6.3-.1-21.8-.1H10.4l-.4.4c-.3.3-.4.5-.4.9,0,.6-.3.3,3.7,4.5l3.2,3.4h31l3.2-3.4Z"/>
    <path class="st16" d="M50.7,14.9c1.8-1.9,3.3-3.5,3.4-3.7.5-.6.2-1.6-.4-1.9-.2-.1-6.3-.1-21.8-.1H10.4l-.4.4c-.3.3-.4.5-.4.9,0,.6-.3.3,3.7,4.5l3.2,3.4h31l3.2-3.4Z"/>
    <path class="st10" d="M32,22.8c-13.9,0-14.5,0-14.7.2-.1.1-2.1,5.7-4.4,12.5s-4.3,12.8-4.6,13.5c-.4,1.3-.4,1.3-.3,2.5.2,1.5.4,2.6.8,3l.2.3h22.9c21.1,0,22.9,0,23.1-.2.4-.4.8-1.8.9-3.3v-.9c0,0-1.9-5.8-1.9-5.8-1.1-3.2-3.1-9.3-4.6-13.5-1.4-4.3-2.7-7.8-2.8-8-.2-.2-.9-.2-14.7-.2ZM21.1,26.3h21.9l5.7,17.1H15.4l5.7-17.1Z"/>
    <path class="st13" d="M32,21.7c-13.9,0-14.5,0-14.7.2-.1.1-2.1,5.7-4.4,12.5s-4.3,12.8-4.6,13.5c-.4,1.3-.4,1.3-.3,2.5.2,1.5.4,2.6.8,3l.2.3h22.9c21.1,0,22.9,0,23.1-.2.4-.4.8-1.8.9-3.3v-.9c0,0-1.9-5.8-1.9-5.8-1.1-3.2-3.1-9.3-4.6-13.5-1.4-4.3-2.7-7.8-2.8-8-.2-.2-.9-.2-14.7-.2ZM21.1,25.1h21.9l5.7,17.1H15.4l5.7-17.1Z"/>
    <path class="st16" d="M8,49.1c0,.3,0,.7,0,1.3.2,1.5.4,2.6.8,3l.2.3h22.9c21.1,0,22.9,0,23.1-.2.4-.4.8-1.8.9-3.3v-1c0,0,0,0,0,0H8Z"/>
    <path class="st13" d="M10.4,9.1l-.4.4c-.3.3-.4.4-.4.8h44.8c0-.4-.3-.8-.6-1-.2-.1-6.3-.1-21.8-.1H10.4Z"/>
    <path class="st2" d="M9.6,0C4.3,0,0,4.3,0,9.6v1.1C0,5.4,4.3,1.1,9.6,1.1h44.8c5.3,0,9.6,4.3,9.6,9.6v-1.1c0-5.3-4.3-9.6-9.6-9.6H9.6Z"/>
  </g>
  <g class="st4">
    <path class="st1" d="M3.2,1.1h57.6c1.8,0,3.2,1.4,3.2,3.2v57.5c0,1.8-1.4,3.2-3.2,3.2H3.2c-1.8,0-3.2-1.4-3.2-3.2V4.3C0,2.6,1.4,1.1,3.2,1.1Z"/>
    <path class="st0" d="M3.2,0h57.6c1.8,0,3.2,1.4,3.2,3.2v57.5c0,1.8-1.4,3.2-3.2,3.2H3.2c-1.8,0-3.2-1.4-3.2-3.2V3.2C0,1.4,1.4,0,3.2,0Z"/>
    <path class="st10" d="M19.4,5.7c-2.5,0-4.6,2-4.6,4.6s2,4.6,4.6,4.6,4.6-2,4.6-4.6-2-4.6-4.6-4.6ZM32,5.7c-2.5,0-4.6,2-4.6,4.6s2,4.6,4.6,4.6,4.6-2,4.6-4.6-2-4.6-4.6-4.6ZM44.6,5.7c-2.5,0-4.6,2-4.6,4.6s2,4.6,4.6,4.6,4.6-2,4.6-4.6-2-4.6-4.6-4.6ZM7.7,18.3c-1.7,0-3.1,1.4-3.1,3.1v31.4c0,1.7,1.4,3.1,3.1,3.1h18.9c1.7,0,3.1-1.4,3.1-3.1v-31.4c0-1.7-1.4-3.1-3.1-3.1H7.7ZM37.4,18.3c-1.7,0-3.1,1.4-3.1,3.1v31.4c0,1.7,1.4,3.1,3.1,3.1h18.9c1.7,0,3.1-1.4,3.1-3.1v-31.4c0-1.7-1.4-3.1-3.1-3.1h-18.9ZM11.5,22.8h11.2c1.3,0,2.4,1,2.4,2.3s-1.1,2.3-2.4,2.3h-11.2c-1.3,0-2.4-1-2.4-2.3s1.1-2.3,2.4-2.3ZM11.5,30.8h11.2c1.3,0,2.4,1,2.4,2.3s-1.1,2.3-2.4,2.3h-11.2c-1.3,0-2.4-1-2.4-2.3s1.1-2.3,2.4-2.3ZM11.5,38.8h11.2c1.3,0,2.4,1,2.4,2.3s-1.1,2.3-2.4,2.3h-11.2c-1.3,0-2.4-1-2.4-2.3s1.1-2.3,2.4-2.3ZM11.5,46.8h11.2c1.3,0,2.4,1,2.4,2.3s-1.1,2.3-2.4,2.3h-11.2c-1.3,0-2.4-1-2.4-2.3s1.1-2.3,2.4-2.3Z"/>
    <ellipse class="st22" cx="19.4" cy="9.1" rx="4.6" ry="4.6"/>
    <ellipse class="st14" cx="32" cy="9.1" rx="4.6" ry="4.6"/>
    <ellipse class="st17" cx="44.6" cy="9.1" rx="4.6" ry="4.6"/>
    <path class="st13" d="M7.7,17.1c-1.7,0-3.1,1.4-3.1,3.1v31.4c0,1.7,1.4,3.1,3.1,3.1h18.9c1.7,0,3.1-1.4,3.1-3.1v-31.4c0-1.7-1.4-3.1-3.1-3.1H7.7ZM11.5,21.7h11.2c1.3,0,2.4,1,2.4,2.3s-1.1,2.3-2.4,2.3h-11.2c-1.3,0-2.4-1-2.4-2.3s1.1-2.3,2.4-2.3ZM11.5,29.7h11.2c1.3,0,2.4,1,2.4,2.3s-1.1,2.3-2.4,2.3h-11.2c-1.3,0-2.4-1-2.4-2.3s1.1-2.3,2.4-2.3ZM11.5,37.7h11.2c1.3,0,2.4,1,2.4,2.3s-1.1,2.3-2.4,2.3h-11.2c-1.3,0-2.4-1-2.4-2.3s1.1-2.3,2.4-2.3ZM11.5,45.7h11.2c1.3,0,2.4,1,2.4,2.3s-1.1,2.3-2.4,2.3h-11.2c-1.3,0-2.4-1-2.4-2.3s1.1-2.3,2.4-2.3Z"/>
    <path class="st18" d="M37.4,17.1c-1.7,0-3.1,1.4-3.1,3.1v31.4c0,1.7,1.4,3.1,3.1,3.1h18.9c1.7,0,3.1-1.4,3.1-3.1v-31.4c0-1.7-1.4-3.1-3.1-3.1h-18.9Z"/>
    <path class="st2" d="M3.2,0C1.4,0,0,1.4,0,3.2v1.1C0,2.6,1.4,1.1,3.2,1.1h57.6c1.8,0,3.2,1.4,3.2,3.2v-1.1c0-1.8-1.4-3.2-3.2-3.2H3.2Z"/>
  </g>
  <g class="st4">
    <path class="st1" d="M0,58.7v2.7C0,63.6,1.4,65.4,3.2,65.4h57.6c1.8,0,3.2-1.8,3.2-4v-2.7c0,2.2-1.4,4-3.2,4H3.2C1.4,62.8,0,61,0,58.7H0Z"/>
    <path class="st7" d="M60.8,0H3.2C1.4,0,0,1.8,0,4v56.1c0,2.2,1.4,4,3.2,4h57.6c1.8,0,3.2-1.8,3.2-4V4c0-2.2-1.4-4-3.2-4Z"/>
    <rect class="st10" x="4.6" y="6.7" width="54.9" height="37.4"/>
    <rect class="st13" x="4.6" y="5.3" width="54.9" height="37.4"/>
    <g>
      <rect class="st19" x="13.7" y="21.4" width="13.7" height="5.3"/>
      <rect class="st19" x="13.7" y="10.7" width="13.7" height="5.3"/>
      <rect class="st19" x="13.7" y="10.7" width="4.6" height="26.7"/>
    </g>
    <ellipse class="st21" cx="56" cy="54.7" rx="3.4" ry="4"/>
    <rect class="st9" x="4.6" y="45.4" width="32" height="2.7"/>
    <path class="st5" d="M3.2,0C1.4,0,0,1.8,0,4v1.3C0,3.1,1.4,1.3,3.2,1.3h57.6c1.8,0,3.2,1.8,3.2,4v-1.3c0-2.2-1.4-4-3.2-4H3.2Z"/>
    <g>
      <rect class="st19" x="29.7" y="21.4" width="4.6" height="16"/>
      <rect class="st19" x="38.9" y="21.4" width="4.6" height="16"/>
      <rect class="st19" x="48" y="21.4" width="4.6" height="16"/>
      <rect class="st19" x="29.7" y="21.4" width="22.9" height="5.3"/>
    </g>
    <rect class="st9" x="4.6" y="50.7" width="32" height="2.7"/>
    <rect class="st9" x="4.6" y="56.1" width="32" height="2.7"/>
  </g>
  <g class="st4">
    <path class="st1" d="M32.2,1.4h0c17.8,0,32.2,14.2,32.2,31.7h0c0,17.5-14.4,31.7-32.2,31.7h0C14.4,64.7,0,50.5,0,33h0C0,15.5,14.4,1.4,32.2,1.4Z"/>
    <path class="st8" d="M32.2.2h0c17.8,0,32.2,14.2,32.2,31.7h0c0,17.5-14.4,31.7-32.2,31.7h0C14.4,63.5,0,49.4,0,31.9h0C0,14.4,14.4.2,32.2.2Z"/>
    <ellipse class="st15" cx="32.2" cy="31.9" rx="23" ry="22.6"/>
    <path class="st10" d="M23,19.4v27.1h6.9v-9h6.9v-6.8h-6.9v-4.5h11.5v-6.8h-18.4Z"/>
    <path class="st13" d="M23,18.3v27.1h6.9v-9h6.9v-6.8h-6.9v-4.5h11.5v-6.8h-18.4Z"/>
    <path class="st5" d="M32.2.2C14.3.2,0,14.3,0,31.9s0,.3,0,.4C.4,15.1,14.6,1.4,32.2,1.4s31.7,13.7,32.1,30.9c0-.1,0-.3,0-.4C64.3,14.3,50,.2,32.2.2Z"/>
  </g>
  <g>
    <path class="st10" d="M19.8,1.4c-1,1-1.6,1.8-2.7,2.7-3.8,3.2-3.2,5.3-.2,7.5.5.4-1.2,1.8-1.8,3.6,1.1.7,1.4,1.8,2.5,2.7,1.1-1.1,3.7-3.6,4.5-4.2,0,0,1.7-2.1-.4-4-1.5-1.2-1.9-3.9-1.8-6.6,0-.2-.1-1.2,0-1.6ZM29.3,3.6c-1.4,0-1.6.4-1.1,2.9.7,3.6-.9,6.9-4.4,8.9-1.5.9-4.5,3.8-4.5,4.2s-6.8,1.7-4.8,3.7c.3.3-3.4,2.3.8.8,3.5-1.2,5.5,6,6.8,8l2.4,3.8-2.2,3.3c-3.2,4.9-2.2,6.5-8.2,11.3-.9.7-.8,1.7-1.5,1.3-5.2-2.7-.5,1.2-.8,1.6-2.4-3.9-1.7,2.2-1.7,2.2,2.3,2,6.5,2.3,9.8,2.2,5.5,0,8-2.9,9.6-5.1,4.8-6.4,10.9-11.6,12.8-11,.8.3,3.9,3.1,6.8,6.3,2.9,3.2,5.7,5.7,6.2,5.6,1.6-.4,3.6-3.6,3.6-6.8s-.9-5.1-2.5-6.3c-1.2-.9-.5-1.4-1.6-2.7-1.9-2.2-2.9-1.6-1.4-4,.8-1.4.9-2,3-3.4,5.4-3.5,8.4-10.7,7.2-14.1-.5-1.4-1.3-3.2-2.1-4-1.3-1.3-1.4-1.3-1.4,1.3,0,2.2-7.2,4.8-8.7,4.8-.2,0-.3,0-.5,0-1.3,1.7-2.4,2.7-3.3,3.9-4.1,4.6-2.8,4.5-4.3,4.5s-4.9-3.2-9.1-8.2c-.3-.4-1.8-.7-2-1.1-.1-.2-.2-.3-.3-.5,0,0,0-.1-.1-.2,0-.1-.1-.2-.2-.3-.1-.3-.2-.5-.2-.7,0,0,0,0,0,0,0,0,0,0,0,0,0,0,0,0,0,0,0-.2,0-.4,0-.6,0,0,0,0,0,0,0-.2.1-.4.3-.5,0,0,0,0,0,0,0,0,0,0,0,0,.1-.2.3-.3.6-.5,0,0,0,0,0,0,0,0,0,0,0,0,.5-.3,1.2-.6,2.1-.8.2,0,.4.1.6.2h3.1c.1-.3.1-.6,0-1.1-.3-2.2-6.8-9-9.1-9ZM52.3,3.6c-1.2,0-6.9,6.8-6.6,9.2.2,2.2-.3,2.3.9,2.1,1.1-.1,3.9,0,4.5-.9.4-.5,1.5-5.9,1.8-7,1-3.2,1-3.4-.6-3.4Z"/>
    <path class="st23" d="M19.8.3c-1,1-1.6,1.8-2.7,2.7-3.8,3.2-3.2,5.3-.2,7.5.5.4-1.2,1.8-1.8,3.6,1.1.7,1.4,1.8,2.5,2.7,1.1-1.1,3.7-3.6,4.5-4.2,0,0,1.7-2.1-.4-4-1.5-1.2-1.9-3.9-1.8-6.6,0-.2-.1-1.2,0-1.6ZM29.3,2.5c-1.4,0-1.6.4-1.1,2.9.7,3.6-.9,6.9-4.4,8.9-1.5.9-4.5,3.8-4.5,4.2s-6.8,1.7-4.8,3.7c.3.3-3.4,2.3.8.8,3.5-1.2,5.5,6,6.8,8l2.4,3.8-2.2,3.3c-3.2,4.9-2.2,6.5-8.2,11.3-.9.7-.8,1.7-1.5,1.3-5.2-2.7-.5,1.2-.8,1.6-2.4-3.9-1.7,2.2-1.7,2.2,2.3,2,6.5,2.3,9.8,2.2,5.5,0,8-2.9,9.6-5.1,4.8-6.4,10.9-11.6,12.8-11,.8.3,3.9,3.1,6.8,6.3,2.9,3.2,5.7,5.7,6.2,5.6,1.6-.4,3.6-3.6,3.6-6.8s-.9-5.1-2.5-6.3c-1.2-.9-.5-1.4-1.6-2.7-1.9-2.2-2.9-1.6-1.4-4,.8-1.4.9-2,3-3.4,5.4-3.5,8.4-10.7,7.2-14.1-.5-1.4-1.3-3.2-2.1-4-1.3-1.3-1.4-1.3-1.4,1.3,0,2.2-7.2,4.8-8.7,4.8-.2,0-.3,0-.5,0-1.3,1.7-2.4,2.7-3.3,3.9-4.1,4.6-2.8,4.5-4.3,4.5s-4.9-3.2-9.1-8.2c-.3-.4-1.8-.7-2-1.1-.1-.2-.2-.3-.3-.5,0,0,0-.1-.1-.2,0-.1-.1-.2-.2-.3-.1-.3-.2-.5-.2-.7,0,0,0,0,0,0,0,0,0,0,0,0,0,0,0,0,0,0,0-.2,0-.4,0-.6,0,0,0,0,0,0,0-.2.1-.4.3-.5,0,0,0,0,0,0,0,0,0,0,0,0,.1-.2.3-.3.6-.5,0,0,0,0,0,0,0,0,0,0,0,0,.5-.3,1.2-.6,2.1-.8.2,0,.4.1.6.2h3.1c.1-.3.1-.6,0-1.1-.3-2.2-6.8-9-9.1-9ZM52.3,2.5c-1.2,0-6.9,6.8-6.6,9.2.2,2.2-.3,2.3.9,2.1,1.1-.1,3.9,0,4.5-.9.4-.5,1.5-5.9,1.8-7,1-3.2,1-3.4-.6-3.4Z"/>
    <path class="st12" d="M19.8.3c-1,1-1.6,1.8-2.7,2.7-2.1,1.8-2.9,3.2-2.6,4.5.2-1,1-2.2,2.6-3.5,1.1-1,1.7-1.8,2.7-2.7,0,.3,0,.8,0,1.2,0-.2,0-.4,0-.6,0-.2-.1-1.2,0-1.6ZM52.3,2.5c-1.2,0-6.8,6.8-6.6,9.2,0,.2,0,.3,0,.5.4-2.8,5.4-8.7,6.6-8.7s1.1,0,1.2.3c.3-1.2,0-1.4-1.2-1.4ZM29.3,2.5c-1.1,0-1.4.3-1.3,1.6.1-.5.5-.6,1.3-.6,2.2,0,8.5,6.6,9,8.9,0-.3,0-.5,0-.9-.3-2.2-6.8-9-9.1-9ZM19.9,2.8c0,0,0,.1,0,.2,0,2.7.3,5.5,1.8,6.6.6.6.9,1.2,1,1.7.2-.8,0-1.8-1-2.7-1.3-1-1.8-3.4-1.8-5.8ZM28.3,7.6c-.2,2.7-1.7,5.2-4.5,6.8-1.5.9-4.5,3.8-4.5,4.2s-6.3,1.6-5,3.5c.9-1.3,5-2.2,5-2.5,0-.4,3-3.3,4.5-4.2,3.2-1.9,4.8-4.7,4.5-7.8ZM60.7,10.5c-.3,0-.4.6-.4,2.1,0,2.2-7.2,4.8-8.7,4.8-.2,0-.3,0-.5,0-1.3,1.7-2.4,2.7-3.3,3.9-4.1,4.6-2.8,4.5-4.3,4.5s-4.9-3.2-9.1-8.2c-.3-.4-1.8-.8-2-1.1-.1-.2-.2-.3-.3-.5,0,0,0-.1,0-.2,0-.1-.1-.2-.2-.3-.1-.2-.2-.4-.2-.6,0,0,0,0,0,.1,0,0,0,0,0,0,0,.2,0,.4,0,.6,0,0,0,0,0,0,0,0,0,0,0,0,0,0,0,0,0,0,0,.2.1.5.2.7,0,0,.1.2.2.3,0,0,0,.1,0,.2,0,.2.2.3.3.5.2.3,1.7.7,2,1.1,4.2,5,7.6,8.2,9.1,8.2s.2,0,4.3-4.5c.8-1.2,1.9-2.3,3.3-3.9.2,0,.3,0,.5,0,1.5,0,8.7-2.6,8.7-4.8,0-2.6.1-2.6,1.4-1.3.7.8,1.6,2.6,2.1,4,.1.4.2.8.2,1.3,0-.9,0-1.6-.2-2.3-.5-1.4-1.3-3.2-2.1-4-.5-.5-.8-.8-1-.8ZM16.6,11.4c-.4.7-1.2,1.6-1.5,2.7.1,0,.2.2.3.2.7-1.4,1.9-2.5,1.4-2.8,0,0-.1-.1-.2-.2ZM14.2,22.7c-.6.6-1.7,1.3.3.6,0,0,0,0,0,0-.2-.2-.3-.4-.3-.6ZM52.9,34.9c-.5,1.2.4,1.1,2,2.9,1.1,1.3.4,1.8,1.6,2.7,1.5,1.1,2.4,2.1,2.5,5.6,0,0,0-.2,0-.3,0-4.1-.9-5.1-2.5-6.3-1.2-.9-.5-1.4-1.6-2.7-1-1.1-1.7-1.5-2-1.9ZM24.2,35.4l-1.8,2.8c-3.2,4.9-2.2,6.5-8.2,11.3-.9.7-.8,1.7-1.5,1.3-3.3-1.7-2.6-.8-1.7.2.4.1.9.4,1.7.8.7.4.6-.5,1.5-1.3,6-4.8,5-6.4,8.2-11.3l2.2-3.3-.3-.5ZM10.4,51.3c-.2.4-.3,1.5-.2,2.2,0-1.3.4-2.4,1.8-.1.2-.2-1.1-1.5-1.5-2.1Z"/>
    <path class="st10" d="M6.1,9.6c-3,0-4.4,3-4.4,3,0-.2-.4,13.2,0,22.5.4,9.3,0,20.4,0,20.4,2.7,6,8.4,3.6,14.1,0,.7-.7,1.7-1.7,3.6-3.2,5.9-4.9,10.8-10.1,13.9-15.1l2.2-3.4-2.4-3.8c-1.3-2.1-4.4-5.8-6.8-8.2-.3-.3-.5-.5-.8-.8-5.1-5-10.9-10.9-19.3-11.3ZM33.2,11.7c-4.2.5-3,3.9-1.9,5.3,4,5.1,10.6,11.2,12.1,11.2s4.4-2.6,8.3-7.3c1-1.5,2.2-3.3,3.9-5.5,1-1.3,1.2-3.8-1-3.8h-10.7s-10.7,0-10.7,0ZM59.2,28.2c-.4.3-.9.6-1.4.9-2.1,1.3-4.6,3.4-5.4,4.6-1.4,2.2-1.4,2.4.5,4.4,1.1,1.2,2.9,2.8,4.1,3.7,1.1.8,1.7,1.7,2,2.9v-15.9c0-.2.2-.3.2-.5,0,0,0,0,0-.1ZM42.5,40.6c-2.2,0-7.5,4.8-11.8,10.6-1.2,1.7-2.1,2.7-2.9,3.4-.3,1.2,0,2.5,1.8,2.5h23.6c3.1-.3,3.6-2.1,3.1-3.5-1.5-2.8-4.9-4.9-6.8-6.9-2.8-3.1-5.8-5.8-6.6-6-.1,0-.2,0-.4,0Z"/>
    <path class="st20" d="M42.5,39.6c-2.2,0-7.5,4.8-11.8,10.6-1.2,1.7-2.1,2.7-2.9,3.4-.3,1.2,0,2.5,1.8,2.5h23.6c3.1-.3,3.6-2.1,3.1-3.5-1.5-2.8-4.9-4.9-6.8-6.9-2.8-3.1-5.8-5.8-6.6-6-.1,0-.2,0-.4,0Z"/>
    <path class="st20" d="M59.2,27.2c-.4.3-.9.6-1.4.9-2.1,1.3-4.6,3.4-5.4,4.6-1.4,2.2-1.4,2.4.5,4.4,1.1,1.2,2.9,2.8,4.1,3.7,1.1.8,1.7,1.7,2,2.9v-15.9c0-.2.2-.3.2-.5,0,0,0,0,0-.1h0Z"/>
    <path class="st20" d="M31.3,15.9c4,5.1,10.6,11.2,12.1,11.2s4.4-2.6,8.3-7.3c1-1.5,2.2-3.3,3.9-5.5,1-1.3,1.2-3.8-1-3.8h-21.5c-4.2.5-3,3.9-1.9,5.3Z"/>
    <path class="st20" d="M6.1,8.6c-3,0-4.4,3-4.4,3,0-.2-.4,13.2,0,22.5s0,20.4,0,20.4c2.7,6,8.4,3.6,14.1,0,.7-.7,1.7-1.7,3.6-3.2,5.9-4.9,10.8-10.1,13.9-15.1l2.2-3.4-2.4-3.8c-1.3-2.1-4.4-5.8-6.8-8.2-.3-.3-.5-.5-.8-.9-5.1-5-10.9-10.9-19.3-11.3Z"/>
    <path class="st11" d="M6.1,8.6c-3,0-4.4,3-4.4,3,0-.1-.2,7.4-.2,15.1,0-7.3.1-14.2.2-14.1,0,0,1.4-3,4.4-3,8.4.4,14.2,6.4,19.3,11.3.3.3.5.5.8.9,2.4,2.4,5.5,6.1,6.8,8.2l2.1,3.3.3-.5-2.4-3.8c-1.3-2.1-4.4-5.8-6.8-8.2-.3-.3-.5-.5-.8-.9-5.1-5-10.9-10.9-19.3-11.3ZM33.2,10.7c-2.6.3-3.1,1.7-2.9,3.1.2-1,1-1.8,2.9-2h21.5c1,0,1.5.5,1.7,1.2.2-1.1-.2-2.3-1.7-2.2h-21.5ZM59.2,27.2c-.4.3-.9.6-1.4.9-2.1,1.3-4.6,3.4-5.4,4.6-.9,1.3-1.2,1.9-.9,2.6.1-.4.4-.9.9-1.6.8-1.3,3.2-3.4,5.4-4.6.4-.3.8-.5,1.2-.8v-.5c0-.2.2-.3.2-.5,0,0,0,0,0-.1ZM42.5,39.6c-2.2,0-7.5,4.8-11.8,10.6-1.2,1.7-2.1,2.7-2.9,3.4-.1.4-.1.9,0,1.3,0,0,0-.2,0-.2.8-.7,1.7-1.7,2.9-3.4,4.3-5.8,9.6-10.5,11.8-10.6.1,0,.3,0,.4,0,.8.2,3.8,3,6.6,6,1.9,2,5.2,4.1,6.8,6.9,0,.1,0,.2,0,.4,0-.5,0-.9,0-1.4-1.5-2.8-4.9-4.9-6.8-6.9-2.8-3.1-5.8-5.8-6.6-6-.1,0-.2,0-.4,0ZM1.9,42.1c0,6.7-.2,12.4-.2,12.4,0,0,0,0,0,0,0-1.1.2-6.1.1-12.5Z"/>
  </g>
</svg>