<?xml version="1.0" encoding="UTF-8"?>
<svg id="_图层_1" xmlns="http://www.w3.org/2000/svg" version="1.1" viewBox="0 0 64 64" width="64" height="64">
  <!-- Generator: Adobe Illustrator 29.0.1, SVG Export Plug-In . SVG Version: 2.1.0 Build 192)  -->
  <defs>
    <style>
      .st0 {
        fill: red;
      }

      .st0, .st1, .st2 {
        display: none;
      }

      .st3 {
        fill: #24a647;
      }

      .st1, .st4, .st2 {
        isolation: isolate;
      }

      .st1, .st2 {
        opacity: .2;
      }

      .st4 {
        opacity: .1;
      }

      .st5 {
        fill: #d12c6d;
      }

      .st2 {
        fill: #fff;
      }

      .st6 {
        fill: #e4e4e4;
      }
    </style>
  </defs>
  <path class="st0" d="M50.3,64H13.8c-7.6,0-13.8-6.2-13.8-13.7V13.7C0,6.2,6.2,0,13.7,0h36.5c7.5,0,13.7,6.2,13.7,13.7v36.6c0,7.5-6.2,13.7-13.7,13.7h0Z"/>
  <g>
    <path class="st1" d="M4.8,1.1h54.4c2.7,0,4.8,2.2,4.8,4.8v54.5c0,2.7-2.1,4.8-4.8,4.8H4.8c-2.7,0-4.8-2.2-4.8-4.8V6C0,3.3,2.1,1.1,4.8,1.1Z"/>
    <path class="st6" d="M13,0h38c7.2,0,13,5.8,13,13v38.1c0,7.2-5.8,13-13,13H13c-7.2,0-13-5.8-13-13V13C0,5.8,5.8,0,13,0Z"/>
    <rect class="st4" x="16" y="16" width="16" height="16"/>
    <rect class="st4" x="48" y="16" width="16" height="16"/>
    <path class="st4" d="M13.7-.1C7-.1-.4,5.7,0,13.9v2.2c0,0,15.9,0,15.9,0V0h-2.3Z"/>
    <rect class="st4" x="32" y="0" width="16" height="16"/>
    <rect class="st4" y="32.1" width="16" height="16"/>
    <rect class="st4" x="32" y="32.1" width="16" height="16"/>
    <rect class="st4" x="16" y="48.1" width="16" height="16"/>
    <path class="st4" d="M48,63v-16h16v3.2c0,4.8-.5,13.1-13.7,12.9h-2.3Z"/>
    <path class="st4" d="M56,3.4c-3.2,0-5.7,2.6-5.7,5.7s2.6,5.7,5.7,5.7,5.7-2.6,5.7-5.7-2.6-5.7-5.7-5.7ZM40,19.5c-3.2,0-5.7,2.6-5.7,5.7s2.6,5.7,5.7,5.7,5.7-2.6,5.7-5.7-2.6-5.7-5.7-5.7ZM56,19.5c-3.2,0-5.7,2.6-5.7,5.7s2.6,5.7,5.7,5.7,5.7-2.6,5.7-5.7-2.6-5.7-5.7-5.7ZM8,35.5c-3.2,0-5.7,2.6-5.7,5.7s2.6,5.7,5.7,5.7,5.7-2.6,5.7-5.7-2.6-5.7-5.7-5.7ZM24,35.5c-3.2,0-5.7,2.6-5.7,5.7s2.6,5.7,5.7,5.7,5.7-2.6,5.7-5.7-2.6-5.7-5.7-5.7ZM40,35.5c-3.2,0-5.7,2.6-5.7,5.7s2.6,5.7,5.7,5.7,5.7-2.6,5.7-5.7-2.6-5.7-5.7-5.7ZM56,35.5c-3.2,0-5.7,2.6-5.7,5.7s2.6,5.7,5.7,5.7,5.7-2.6,5.7-5.7-2.6-5.7-5.7-5.7ZM8,51.5c-3.2,0-5.7,2.6-5.7,5.7s2.6,5.7,5.7,5.7,5.7-2.6,5.7-5.7-2.6-5.7-5.7-5.7ZM24,51.5c-3.2,0-5.7,2.6-5.7,5.7s2.6,5.7,5.7,5.7,5.7-2.6,5.7-5.7-2.6-5.7-5.7-5.7ZM40,51.5c-3.2,0-5.7,2.6-5.7,5.7s2.6,5.7,5.7,5.7,5.7-2.6,5.7-5.7-2.6-5.7-5.7-5.7ZM56,51.5c-3.2,0-5.7,2.6-5.7,5.7s2.6,5.7,5.7,5.7,5.7-2.6,5.7-5.7-2.6-5.7-5.7-5.7Z"/>
    <ellipse class="st5" cx="56" cy="8" rx="5.7" ry="5.7"/>
    <path class="st2" d="M4.8,0C2.1,0,0,2.1,0,4.8v1.1C0,3.3,2.1,1.1,4.8,1.1h54.4c2.7,0,4.8,2.1,4.8,4.8v-1.1C64,2.1,61.9,0,59.2,0H4.8Z"/>
    <ellipse class="st3" cx="56" cy="24" rx="5.7" ry="5.7"/>
    <ellipse class="st3" cx="56" cy="40.1" rx="5.7" ry="5.7"/>
    <ellipse class="st5" cx="56" cy="56.1" rx="5.7" ry="5.7"/>
    <ellipse class="st5" cx="40" cy="24" rx="5.7" ry="5.7"/>
    <ellipse class="st3" cx="40" cy="40.1" rx="5.7" ry="5.7"/>
    <ellipse class="st5" cx="40" cy="56.1" rx="5.7" ry="5.7"/>
    <ellipse class="st5" cx="24" cy="40.1" rx="5.7" ry="5.7"/>
    <ellipse class="st3" cx="24" cy="56.1" rx="5.7" ry="5.7"/>
    <ellipse class="st3" cx="8" cy="40.1" rx="5.7" ry="5.7"/>
    <ellipse class="st5" cx="8" cy="56.1" rx="5.7" ry="5.7"/>
  </g>
</svg>