<?xml version="1.0" encoding="UTF-8"?>
<svg id="_图层_1" xmlns="http://www.w3.org/2000/svg" version="1.1" viewBox="0 0 64 64" width="64" height="64">
  <!-- Generator: Adobe Illustrator 29.0.1, SVG Export Plug-In . SVG Version: 2.1.0 Build 192)  -->
  <defs>
    <style>
      .st0, .st1 {
        fill: #4f4f4f;
      }

      .st2 {
        fill: #66dd23;
      }

      .st3 {
        fill: #403650;
      }

      .st4, .st5, .st6, .st7, .st8 {
        isolation: isolate;
      }

      .st4, .st5, .st9, .st1 {
        display: none;
      }

      .st4, .st6, .st7 {
        opacity: .2;
      }

      .st5, .st10, .st8 {
        fill: #fff;
      }

      .st5, .st8 {
        opacity: .1;
      }

      .st11 {
        fill: #ff6363;
      }

      .st11, .st6 {
        fill-rule: evenodd;
      }

      .st12 {
        fill: #6d0f0a;
      }

      .st13 {
        fill: #ee1536;
      }

      .st14 {
        fill: #e6df15;
      }

      .st15 {
        opacity: .4;
      }

      .st16 {
        fill: #9a1652;
      }

      .st17 {
        fill: #8e8e8e;
      }

      .st18 {
        fill: #24f0ff;
      }

      .st19 {
        fill: #ffbebe;
      }

      .st20 {
        fill: #aa52ce;
      }

      .st21 {
        fill: #ffd5d5;
      }

      .st22 {
        fill: #f24c3d;
      }

      .st23 {
        fill: #52120e;
      }

      .st24 {
        fill: #c42d06;
      }

      .st25 {
        fill: #ef3d61;
      }

      .st26 {
        fill: #2e2e2e;
      }
    </style>
  </defs>
  <path class="st0" d="M50.4,64H13.8c-7.6,0-13.8-6.2-13.8-13.7V13.7C0,6.2,6.2,0,13.7,0h36.6c7.5,0,13.7,6.2,13.7,13.7v36.6c0,7.5-6.2,13.7-13.7,13.7h.1Z"/>
  <g class="st9">
    <path class="st4" d="M5.3,59.5v2.3c0,1.9,1.4,3.4,3.2,3.4h52.5c1.7,0,3.2-1.5,3.2-3.4v-2.3c0,1.9-1.4,3.4-3.2,3.4H8.5c-1.7,0-3.2-1.5-3.2-3.4Z"/>
    <path class="st1" d="M8.5,0h52.5c1.7,0,3.2,1.5,3.2,3.4v57.2c0,1.9-1.4,3.4-3.2,3.4H8.5c-1.7,0-3.2-1.5-3.2-3.4V3.4c0-1.9,1.4-3.4,3.2-3.4Z"/>
    <path class="st5" d="M8.5,0c-1.7,0-3.2,1.5-3.2,3.4v1.1c0-1.9,1.4-3.4,3.2-3.4h52.5c1.7,0,3.2,1.5,3.2,3.4v-1.1c0-1.9-1.4-3.4-3.2-3.4H8.5Z"/>
    <path class="st22" d="M12.8,64h9.3l42-45.7v-7.3c0-1.5-.2-.5-1.6-2.3L12.4,63.2c-.3.3,0,.9.4.9Z"/>
    <path class="st14" d="M22.1,64h10.5l31.5-34.3v-11.4l-42,45.7Z"/>
    <path class="st2" d="M32.6,64h10.5l21-22.9v-11.4l-31.5,34.3Z"/>
    <path class="st18" d="M43.1,64h6.8c2.4,0,4.6-1,6.2-2.7l6.5-7.1c1-1.1,1.5-2.4,1.5-3.9v-9.2l-21,22.9Z"/>
    <path class="st7" d="M28.4,8l5.3,9.1-5.3,9.1h4.2l3.2-5.5,3.2,5.5h4.2l-5.3-9.1,5.3-9.1h-4.2l-3.2,5.5-3.2-5.5h-4.2ZM11.6,8h14.7v2.3l-9.5,12.6h9.5v3.4h-14.7v-2.3l9.5-12.6h-9.5v-3.4Z"/>
    <path class="st10" d="M28.4,6.9l5.3,9.1-5.3,9.1h4.2l3.2-5.5,3.2,5.5h4.2l-5.3-9.1,5.3-9.1h-4.2l-3.2,5.5-3.2-5.5h-4.2ZM11.6,6.9h14.7v2.3l-9.5,12.6h9.5v3.4h-14.7v-2.3l9.5-12.6h-9.5v-3.4Z"/>
  </g>
  <g class="st9">
    <path class="st7" d="M36.8,6.1c.3,1.5.6,2.8.5,4.2-1.3-.6-2.1-2.9-6.5-2.9-3.4,0-5.5,3.2-7,5.1-.7,1-1.3,1.7-2,1.6-.7-.1-1-.9-1.4-2.5-.5,2.4-3.8,4.1.4,8.4-1.4,1.4-1.7,1.8-2,2.3-.4.6-.3,2.9.6,3.1-3.4.9-1.4,4.5-2.8,5.8-.9.6-1.7,1.3-3.9.9,1.4,2.3,3.6,3.4,5.7,2.8l.7,1.5c-1.4,2.1-.6,2.9-.6,2.9l5.5,4.5-.5-6.9c3.1-1.8,5.9-4.3,4.3-11.9v-2.9c-1.7-2.1-1.8-2-1.1-2.7,0-.3,0-.6,0-.9,1-.4,1.9-.8,2.7-1.2-.7,3.1.4,2.8.7,3.9.8-1.5,1.5-2.6,2.4-2.3-.8,1-1.2,2.1-.8,3.6,1.3-1.2,2.2-2.7,4.1-2.7,1,1.9,1.8,3.8,4.3,6-.6.2-1.3.1-1.7,1.8-1.1.3-.9,1-1,1.6-.2.3-.1.6,1.2,1.6-3.8,3.3-7.4,9.6-3.4,10.1.7.1,8.9.8,10.1.6l-.2-2.9c.1-1.5,0-2.8-.5-3.7,5.1-1.1,4.8-5.6,5.3-6.3-1-.4-1.7-1-1.7-1.9,1.2-2.3,2.6-4.3,2.1-8.5-.5-2.7-1.9-8.6-8.4-9.3-.8,0-1.4.1-1.9.3-.3,0,.1-1.7,0-1.5-.1.3-.8,1-1.3,1.3.4-1.1-.6-2.1-2-2.7ZM43.3,24.8c.3,0,.7.2,1,.5,1.5,1.6-1.6,3.6-1.6,3.6-.2.4-.6.3-1,.2,0,0,0,0-.2,0-1.5-1.4,1.5-3,1.2-3-.3-.1-1-.2-.9-.2.4-.6.8-1,1.4-1Z"/>
    <path class="st7" d="M11.2,40.7h40.1c1.4,0,2.5,1,2.5,2.3v9.2c0,1.3-1.1,2.3-2.5,2.3H11.2c-1.4,0-2.5-1-2.5-2.3v-9.2c0-1.3,1.1-2.3,2.5-2.3Z"/>
    <ellipse class="st21" cx="43.5" cy="26.3" rx="2.5" ry="3.9"/>
    <path class="st23" d="M42.8,28.1c4,1.3,5.2,0,7.1-.5-.5.7-.3,5.2-5.4,6.3.6.8.7,2.1.5,3.7l.2,2.9c-1.2.2-9.3-.5-10.1-.6-4.7-.7,1.4-9.8,5.8-11.7.7.2,1.4.7,1.8,0Z"/>
    <path class="st23" d="M23.8,11.6c-.7,1-1.3,1.7-2,1.6-.7-.1-1-.9-1.4-2.5-.5,2.4-3.8,4.1.4,8.4-1.4,1.4-1.7,1.8-2,2.3-.4.6-.3,2.9.6,3.1-3.4.9-1.4,4.5-2.8,5.8-.9.6-1.7,1.3-3.9.9,1.4,2.3,3.6,3.4,5.7,2.8l.7,1.5c-1.4,2.1-.6,2.9-.6,2.9l5.5,4.5-.5-6.9c3.1-1.8,5.9-4.3,4.3-11.9v-2.9c-1.7-2.1-1.8-2-1.1-2.7.7-3.5-2.3-4.4-2.7-6.6h0Z"/>
    <path class="st3" d="M11.2,39.8h40.1c1.4,0,2.5,1,2.5,2.3v9.2c0,1.3-1.1,2.3-2.5,2.3H11.2c-1.4,0-2.5-1-2.5-2.3v-9.2c0-1.3,1.1-2.3,2.5-2.3Z"/>
    <path class="st7" d="M27.4,27l-1.5,6.9s-1.2.7-1.6,1.2c-.5.7-1,2.3-1,2.3l-1.8,1.2c-2,0-3.1.8-3.6,2.1l2,.2c.2-1.4.6-1.9,2.3-1.5-1.1.1-2.3.2-2,1.9l3.4-.2,6.9-13.4-3.2-.8ZM39.5,27.5l-3.8.8s-.5,2.9-.3,3.6c.4,1.3.6,1,1.5,3,.3.6-.2,1,0,1.6.1.6.8,1.2,1,1.8.2.8-.3,2.8-.3,2.8.4,0,1.1.4,1.3.1,0-.1-.4-.7-.2-.7.2,0,1.1,1,1.3,1,.4,0,.7-.4,1.2-.4.6,0,.6.6,1.9.4.3-.2.7-1,.2-1.4-.4-.3-2-.2-2-.3.1-.3,1.3-.4,1.8-.2.9.3.6,1.3,1.9,1.3.8,0,1-.6,1.1-.7-1.4-2.2-3.5-.4-5.1-2.9-.5-.8-.8-2.3-1.2-4.3-.2-.9-.2-4-.3-5.3h0Z"/>
    <path class="st21" d="M27.4,26.1l3.2.8-6.9,13.4-3.4.2c-.3-1.7.9-1.8,2-1.9-1.7-.4-2.1,0-2.3,1.5l-2-.2c.4-1.3,1.5-2.1,3.6-2.1l1.8-1.2s.5-1.7,1-2.3c.4-.5,1.6-1.2,1.6-1.2l1.5-6.9Z"/>
    <path class="st13" d="M31.5,27.2h5.4c0,0,.4,9.1.4,9.1l-10.5-2c-.2-2.3-2.7-4.7,4.7-7.1Z"/>
    <path class="st16" d="M32.5,30.5c-1.4,0-1.5,1.2-1.5,2.3-.2-.3-.7-1.2-1.1-1.5-.9-.8-2-1.1-2.8-.5-.8.6-.9,1.9-.1,2.8.8.9,1.8.5,2.8.5.7,0,1.3-.2,1.4-.6,0,0,0,0,0,0,.8.9,4.3,2.3,5.1,1.7.7-.5,4.1-4.4-1.1-3.1-.5-1.2-1.7-1.7-2.8-1.7h0Z"/>
    <path class="st21" d="M35.6,27.4l3.8-.7c0,1.4,0,4.4.3,5.3.5,2,.7,3.5,1.2,4.3,1.6,2.5,3.7.7,5.1,2.9-.2.1-.4.7-1.1.7-1.3,0-1-1-1.9-1.3-.6-.2-1.7,0-1.8.2,0,0,1.6,0,2,.3.5.4.1,1.2-.2,1.4-1.3.2-1.4-.4-1.9-.4-.5,0-.7.3-1.2.4-.2,0-1.1-1-1.3-1-.2,0,.3.6.2.7-.2.3-.9-.1-1.3-.1,0,0,.5-1.9.3-2.8-.2-.6-.8-1.2-1-1.8-.2-.6.3-1,0-1.6-.9-2-1.1-1.6-1.5-3-.2-.7.3-3.6.3-3.6h0Z"/>
    <path class="st7" d="M24.9,21.7l.5-5.3c1.3-1.1,2.8-1.3,4.5-1.5l2.9,1.7,9.6.4-1,8.1-2,2.8c-1.6,0-7.5,1.7-11.3-.1-1.9-.9-3.5-3.9-3.3-6Z"/>
    <path class="st19" d="M24.9,20.9l.5-5.3c1.3-1.1,2.8-1.3,4.5-1.5l2.9,1.7,9.6.4-1,8.1-2,2.8c-1.6,0-7.5,1.7-11.3-.1-1.9-.9-3.5-3.9-3.3-6Z"/>
    <path class="st26" d="M26.4,17.7c0,.6,0,1.2.6,1.7h-.5c-.4-.1-.9-.4-1.5-1.3,0,.5.2,1.4.7,1.7.1.1-.6.1-.4.2l1-.2h1c-.2,1.4-.2,3.4,1.5,3.5,1.5-.2,1.6-1.5,1.9-3.6-.9-.4-1.9-.7-2.9-.5-.8-.4-1.3-.9-1.5-1.6ZM34.5,20.5c-.2,0-.3,0-.5,0-.6,0-1.3,0-1.9.1.7,0,1.2.1,1.7.2-.3,1.5-.6,3.6,1.1,3.9,1.1,0,1.5-.8,1.9-1.9.3,0,.5,0,.6,0,.6-.1,1.7-.8,1.9-1.3-.9.6-1.4.7-2,.7l-.3-.3s0,0,0,0c.9-.2,1-.8,1.3-1.3-.2.2-.6.9-1.3.6,0,0,0,0-.1,0-.7-.4-1.5-.7-2.4-.7Z"/>
    <path class="st25" d="M29.7,25.1c.9,0,1.8,0,2.7.2.8.2.6.4.4.7,0,0-.6.5-.9.7-.5.3-.7.2-1.1-.1-.4-.5-.8-.9-1.1-1.4Z"/>
    <path class="st12" d="M36.8,5.2c.3,1.5.6,2.8.5,4.2,0,0,0,0,0,0,0,0,0,0,0,0-1.3-.6-2.1-2.9-6.5-2.9-3.4,0-5.5,3.2-7,5.1-1,2.2-2.8,6.8-2.5,9,2.4-2.1,5.7-3.4,8-4.4-.7,3.1.4,2.8.7,3.9.8-1.5,1.5-2.6,2.4-2.3-.8,1-1.2,2.1-.8,3.6,1.3-1.2,2.2-2.7,4.1-2.7,1,1.9,1.8,3.8,4.3,6-.6.2-1.3.1-1.7,1.8-1.1.3-.9,1-1,1.6-.2.4-.2.7,1.6,1.8.9.6,3.5-1.7,2.6-1.7-1.5-1.4,1.5-3,1.2-3-.3-.1-1-.2-.9-.2.6-1,1.4-1.5,2.4-.5,1.5,1.6-1.5,3.6-1.5,3.6,0,0,1,.9,2.3,1,2,0,4.8-1.5,4.8-1.5-1-.4-1.7-1-1.7-1.9,1.2-2.3,2.6-4.3,2.1-8.5-.5-2.7-1.9-8.6-8.4-9.3-.8,0-1.4.1-1.9.3-.3,0,.1-1.7,0-1.5-.1.3-.8,1-1.3,1.3.4-1.1-.6-2.1-2-2.7Z"/>
    <path class="st24" d="M28.4,7.1c-2.1,1-3.5,3.1-4.6,4.6,0,.1-.1.2-.2.4,2.6.4,5.6.8,7.7,2l2-1.1.3,2.6,2.3-1.3,1.2,1.9,1.9-2c.8.4,1,1.6,1.2,2.6,4.2-2.1,6.6-1.9,9.8-.6-.3-1.1-.7-2.5-1.4-3.9-1.7.9-6.6,2.9-9.5-1l-1.1,2.2-.3-2-2.3,2.2.8-2.2c-3.8,0-11.7.9-8-4.3Z"/>
    <path class="st7" d="M27.9,34.2c-1.4,0-2.5.3-2.7.7-.2,2.5-1,4.3-1.8,6.1-.2.4-.3.6-.8.7-.8.3-1.7.6-2.3.9-2.1.5-4.5,1.6-4.2,2.6.3.6,1.2,1.1,2.3,1.3,4.7.7,5.5-.5,6.7-1.5,0,.7-.7,1.4-1.4,2.1l.6.3c2-1.8,2.4-2.7,2.3-4.1l.3-.4c.1.4.3.8.6,1.3.5.8.9,1.3,1.4,1.7-1.4,4.4,3.7,8.2,5.6,7.5,1.9-.7,1.9-7.6-1.5-8.9.1-.7,0-1.3,0-2,1.7.2,3.4-.2,4.3-1.7,2.2-5.1-5.3-6.7-9.5-6.6Z"/>
    <path class="st13" d="M26.7,42.1c.2,1.5-.2,2.5-2.3,4.4l-.6-.3c.7-.7,1.4-1.4,1.4-2.1-1.2,1-2,2.2-6.7,1.5-1.1-.2-2.1-.7-2.3-1.3-.3-1.1,3.1-2.6,5.3-2.8,2.7-.2,4.3.4,5.2.6Z"/>
    <path class="st13" d="M29.4,43.9c6.9-3.2,7.6,7.7,5.1,8.6-2,.8-7.9-3.7-5.1-8.6Z"/>
    <path class="st19" d="M25.2,34c.8-1.5,15.2-.9,12.2,5.9-2,3.2-7.4,1.4-8.6-.2l-2.2,2.8c-1.2,1.5-6.8,1.5-7.2.4,0-1,1.7-1.6,3.2-2,.5,0,.6-.3.8-.7.8-1.8,1.6-3.6,1.8-6.1Z"/>
    <path class="st21" d="M29,37.7c1.7-.6,3.3.3,4,2.9,0,1.2.3,2.4-.2,3.8.7.5,1.2,1.1,1.3,2.2.1,1.3-.3,2.3-1.1,2.5-.8-.1-1.5.3-2.4-1.5l-.3-1.5c-.9-.9-1.8-1.3-2.8-2.9-1.6-2.9-.8-4.6,1.4-5.5Z"/>
    <path class="st8" d="M36.8,5.2c0,.3.1.6.2.9.9.4,1.6,1,1.8,1.7.4-1.1-.7-2.1-2-2.6ZM30.8,6.5c-3.4,0-5.5,3.2-7,5.1-.7,1-1.3,1.7-2,1.6-.7-.1-1-.9-1.4-2.5-.4,1.6-1.9,2.9-1.7,4.8.2-1.5,1.4-2.6,1.7-4,.4,1.6.7,2.3,1.4,2.5.7.1,1.3-.6,2-1.6,1.4-2,3.6-5.1,7-5.1,4.4,0,5.2,2.2,6.5,2.9,0-.4,0-.8,0-1.1,0,0,0,.2,0,.3-1.3-.6-2.1-2.9-6.5-2.9ZM40.1,6.6c-.1.3-.8.9-1.2,1.2,0,.3,0,.6,0,.9.4-.3.9-.8,1.2-1.1,0-.5.2-1.2.1-1ZM42,7.8c-.8,0-1.4.1-1.9.3,0,0,0,0,0,0,0,.4-.1.9,0,.9.5-.2,1.2-.3,1.9-.3,6.5.8,7.9,6.6,8.4,9.3,0,.4,0,.8,0,1.2,0-.6,0-1.3,0-2.1-.5-2.7-1.9-8.6-8.4-9.3ZM32.1,18.6c0,0-.2,0-.3,0-.3.6-.4,1.2-.3,2,0-.8.4-1.4.9-2-.1,0-.2,0-.3,0ZM20.3,19.5c-1,1-1.4,1.5-1.6,1.8-.2.3-.2.9-.2,1.5,0-.3,0-.5.2-.7.3-.4.6-.9,2-2.3-.2-.2-.3-.3-.4-.5ZM18.7,24.6c-2.5,1.2-.9,4.4-2.2,5.5-.9.6-1.7,1.3-3.9.9.2.4.5.7.7,1,1.7.2,2.4-.4,3.2-1,1.4-1.2-.6-4.9,2.8-5.8-.3,0-.5-.3-.6-.6ZM39.4,24.9c-.4.2-.8.5-1,1.6-1.1.3-.9,1-1,1.6,0,.2-.1.3,0,.5,0-.5,0-1,1-1.2.4-1.6,1-1.5,1.7-1.8-.2-.2-.5-.4-.7-.6ZM48.3,26.3c0,0,0,.1-.1.2,0,.9.5,1.4,1.4,1.8,0-.3.2-.6.3-.7-.8-.3-1.3-.7-1.6-1.2ZM44.9,34.6c-.1,0-.2,0-.4,0,.4.6.5,1.3.6,2.2,0-.9,0-1.7-.2-2.3ZM18.7,35.7c-.6,1.1-.6,1.8-.5,2.2,0-.4.3-1,.7-1.7l-.2-.5Z"/>
  </g>
  <g class="st9">
    <path class="st4" d="M0,59.7v2.3C0,63.7,1.4,65.2,3.2,65.2h57.8c1.8,0,3.2-1.4,3.2-3.2v-2.3c0,1.8-1.4,3.2-3.2,3.2H3.2C1.4,62.9,0,61.5,0,59.7H0Z"/>
    <rect class="st1" y="0" width="64.2" height="64" rx="3.2" ry="3.2"/>
    <path class="st6" d="M20.7,1.1c-2.3,0-4.5,0-6.8,0-19.5,21.7.2,35.4,16,38.8C13.1,29.2,27.3,9.4,41.3,1.2c-6.9,0-13.8,0-20.6,0ZM34.4,26.3c16,10.4,3.7,29-9.7,37.7h26.6c17.8-21.1-1.4-34.4-16.9-37.7ZM28.9,26.3c0,0-.2,0-.3,0-1,0-1.8.4-2.4,1-1.9,2-.8,6.2,2.5,9.4,3.2,3.2,7.4,4.2,9.3,2.3,2-2,.9-6.2-2.3-9.4-2.1-2.1-4.6-3.3-6.8-3.3Z"/>
    <path class="st11" d="M20.7,0c-2.3,0-4.5,0-6.8,0-19.5,21.7.2,35.4,16,38.8C13.1,28.1,27.3,8.3,41.3,0,34.4,0,27.5,0,20.7,0ZM34.4,25.2c16.7,10.8,2.5,30.6-11.5,38.8,9.2,0,18.3,0,27.5,0,19.5-21.7-.2-35.4-16-38.8ZM28.6,25.2c-1,0-1.8.4-2.4,1-1.9,2-.8,6.2,2.5,9.4,3.2,3.2,7.4,4.2,9.3,2.3,2-2,.9-6.2-2.3-9.4-2.2-2.2-4.9-3.4-7-3.3Z"/>
    <path class="st5" d="M3.2,0C1.4,0,0,1.4,0,3.2v1.1C0,2.6,1.4,1.1,3.2,1.1h57.8c1.8,0,3.2,1.4,3.2,3.2v-1.1C64.2,1.4,62.8,0,61,0H3.2Z"/>
  </g>
  <g>
    <g>
      <rect class="st17" x="20.6" y="4.2" width="2" height="52"/>
      <rect class="st17" x="14.6" y="4.2" width="2" height="52"/>
      <rect class="st17" x="38.6" y="4.2" width="2" height="52"/>
      <rect class="st17" x="32.6" y="4.2" width="2" height="52"/>
      <rect class="st17" x="26.6" y="4.2" width="2" height="52"/>
      <rect class="st17" x="44.6" y="4.2" width="2" height="52"/>
      <rect class="st17" x="10.6" y="20.2" width="40" height="2"/>
      <rect class="st17" x="10.6" y="14.2" width="40" height="2"/>
      <rect class="st17" x="10.6" y="8.2" width="40" height="2"/>
      <rect class="st17" x="10.6" y="38.2" width="40" height="2"/>
      <rect class="st17" x="10.6" y="32.2" width="40" height="2"/>
      <rect class="st17" x="10.6" y="26.2" width="40" height="2"/>
      <rect class="st17" x="10.6" y="44.2" width="40" height="2"/>
      <rect class="st17" x="10.6" y="50.2" width="40" height="2"/>
    </g>
    <rect class="st7" x="12.6" y="7.2" width="36" height="48" rx="2.5" ry="2.5"/>
    <rect class="st0" x="12.6" y="6.2" width="36" height="48" rx="2.5" ry="2.5"/>
    <g class="st15">
      <rect class="st10" x="21.6" y="12.2" width="2" height="6"/>
      <rect class="st10" x="21.6" y="20.2" width="2" height="6"/>
      <rect class="st10" x="21.6" y="28.2" width="2" height="12"/>
      <rect class="st10" x="29.6" y="12.2" width="2" height="16"/>
      <rect class="st10" x="29.6" y="30.2" width="2" height="16"/>
      <rect class="st10" x="37.6" y="12.2" width="2" height="12"/>
      <rect class="st10" x="37.6" y="26.2" width="2" height="6"/>
      <rect class="st10" x="37.6" y="34.2" width="2" height="14"/>
    </g>
    <circle class="st7" cx="46.6" cy="45.2" r="16"/>
    <circle class="st20" cx="46.6" cy="44.2" r="16"/>
    <path class="st10" d="M38.6,44.2c0,4.4,3.6,8,8,8s7.9-3.2,8-7.6c0,0,0,0,0-.1,0-.7-.8-1.3-1.5-1.3s-1.5.6-1.5,1.3c0,2.9-2.1,4.7-5,4.7s-5-2.1-5-5,2.1-5,5-5v3l6-4.5-6-4.5v3c-4.4,0-8,3.6-8,8h0Z"/>
    <path class="st8" d="M15.1,6.2c-1.4,0-2.5,1.1-2.5,2.5v1c0-1.4,1.1-2.5,2.5-2.5h31c1.4,0,2.5,1.1,2.5,2.5v-1c0-1.4-1.1-2.5-2.5-2.5H15.1Z"/>
  </g>
</svg>