<?xml version="1.0" encoding="UTF-8"?>
<svg id="_图层_1" xmlns="http://www.w3.org/2000/svg" version="1.1" viewBox="0 0 64 64" width="64" height="64">
  <!-- Generator: Adobe Illustrator 29.0.1, SVG Export Plug-In . SVG Version: 2.1.0 Build 192)  -->
  <defs>
    <style>
      .st0 {
        fill: #4f4f4f;
      }

      .st1, .st2, .st3, .st4 {
        display: none;
      }

      .st1, .st5 {
        fill: #3f3f3f;
      }

      .st2, .st3, .st6, .st7, .st8, .st9 {
        isolation: isolate;
      }

      .st2, .st7, .st8 {
        opacity: .2;
      }

      .st3, .st10, .st8, .st9 {
        fill: #fff;
      }

      .st3, .st6, .st9 {
        opacity: .1;
      }

      .st11 {
        fill: #5fdffd;
      }

      .st12 {
        fill: #5543c7;
      }

      .st13 {
        fill: #095cd3;
      }

      .st14 {
        fill: #15bfd1;
      }

      .st15 {
        fill: #45f1af;
      }

      .st16 {
        fill: #763ad2;
      }

      .st17 {
        fill: #0091eb;
      }

      .st18 {
        fill: #a45390;
      }

      .st19 {
        fill: #02bfee;
      }

      .st20 {
        fill: #715fff;
      }

      .st21 {
        fill: #0f92db;
      }

      .st22 {
        fill: #0086da;
      }

      .st23 {
        fill: #6db832;
      }

      .st24 {
        fill: #354bb0;
      }

      .st25 {
        fill: #c2352a;
      }

      .st26 {
        fill: #4987d7;
      }

      .st27 {
        fill: #5dcd18;
      }

      .st28 {
        fill: #6f7368;
      }

      .st29 {
        fill: #8171ff;
      }
    </style>
  </defs>
  <path class="st5" d="M50.3,64H13.8c-7.6,0-13.8-6.2-13.8-13.7V13.7C0,6.2,6.2,0,13.7,0h36.5c7.5,0,13.7,6.2,13.7,13.7v36.6c0,7.5-6.2,13.7-13.7,13.7h0Z"/>
  <g class="st4">
    <path class="st2" d="M0,59.5v2.3c0,1.9,1.5,3.4,3.4,3.4h57.4c1.9,0,3.4-1.5,3.4-3.4v-2.3c0,1.9-1.5,3.4-3.4,3.4H3.4c-1.9,0-3.4-1.5-3.4-3.4Z"/>
    <path class="st26" d="M3.2-.1C2.3-.1,1.5.3.9.8l31.2,31.2L63.3.8c-.6-.6-1.4-.9-2.3-.9,0,0-57.8,0-57.8,0Z"/>
    <path class="st18" d="M3.2,64.1c-.9,0-1.7-.4-2.3-.9l31.2-31.2,31.2,31.2c-.6.6-1.4.9-2.3.9H3.2Z"/>
    <path class="st23" d="M64.2,3.1c0-.9-.4-1.7-.9-2.3l-31.2,31.2,31.2,31.2c.6-.6.9-1.4.9-2.3V3.1h0Z"/>
    <path class="st25" d="M0,3.1c0-.9.4-1.7.9-2.3l31.2,31.2L.9,63.2c-.6-.6-.9-1.4-.9-2.3V3.1h0Z"/>
    <path class="st7" d="M35,5.6c-1.4,0-2.5.2-3.6.5-1,.3-1.9.8-2.6,1.3-.7.6-1.3,1.2-1.8,2s-.8,1.3-1.1,2.1c-.3.9-.5,1.8-.6,2.8s-.2,1.9-.2,2.9h0c0,1.5.2,2.9.5,4,.4,1.1.9,2,1.5,2.8.7.7,1.4,1.3,2.3,1.7.9.4,1.8.5,2.8.5s2-.2,2.8-.5,1.5-.8,2.1-1.4,1-1.4,1.3-2.2c.3-.9.5-1.9.5-3s0-2-.4-2.8c-.3-.8-.6-1.6-1.1-2.1-.5-.6-1.1-1-1.8-1.3s-1.5-.4-2.4-.4-1.1,0-1.5.2c-.4.1-.8.3-1.2.5-.4.2-.7.6-.9.9-.3.3-.5.6-.7.9h-.2c0-1,.2-1.8.4-2.6.2-.8.5-1.1,1-1.7.5-.6,1.1-1,1.9-1.3.8-.3,1.8-.5,3.1-.5s.8,0,1.2,0,.8.1,1.1.2v-3.5h-2.6s.2,0,.2,0ZM32.4,16c.8,0,1.5.3,1.9.9s.6,1.4.6,2.4,0,1.1-.2,1.6c0,.4-.3.8-.5,1.1-.2.3-.5.5-.8.7-.3.1-.7.2-1,.2s-.9-.1-1.2-.4c-.3-.2-.6-.5-.9-.9-.2-.4-.4-.8-.5-1.3s-.2-1-.2-1.4,0-.7.2-1c.1-.3.3-.6.6-.9.3-.3.6-.5.9-.7.4-.2.7-.3,1.2-.3h0ZM47,24v10.3l1,.9c.2,0,.4,0,.6-.2.2,0,.5,0,.8-.2h1.6c1.3,0,2.3.3,3,.8.6.5,1,1.3,1,2.3s-.3,2-1,2.5-1.6.8-2.9.8-.9,0-1.3,0-.9-.2-1.4-.3-.9-.3-1.3-.4c-.4-.2-.8-.3-1.1-.5v3.7c.3.2.7.3,1.1.5.4,0,.9.3,1.3.3s1,.2,1.5.2h1.5c1.3,0,2.4-.2,3.4-.5s1.8-.8,2.5-1.4c.7-.6,1.2-1.4,1.5-2.2.3-.9.5-1.9.5-3s-.2-1.9-.5-2.7-.8-1.4-1.3-2c-.6-.5-1.2-.9-2-1.2-.8-.3-1.6-.4-2.5-.4h0c-.6,0-1.1,0-1.5.1-.4,0-.7.1-1,.2l.3-4.1h6.5v-3.4h-10.3,0ZM11.5,24.1c-.8,0-1.6,0-2.2.3-.7.2-1.3.4-1.8.6-.6.3-1.1.6-1.5.9-.5.3-.9.5-1.3.9l2.4,2.8c.7-.7,1.5-1.2,2.1-1.6.7-.4,1.4-.5,2.1-.5s1.3.2,1.7.6.6.9.6,1.6,0,1.2-.3,1.7c-.2.5-.5,1.1-.8,1.6-.4.5-.8,1.1-1.3,1.6-.5.6-1,1.2-1.7,1.8l-4.8,5.4v2.8h13.7v-3.4h-8.3v-.2l2.5-2.7c.7-.7,1.4-1.4,2-2.1.6-.7,1.2-1.4,1.7-2.1.5-.7.9-1.4,1.1-2.2.3-.7.4-1.5.4-2.3s-.1-1.7-.4-2.4c-.3-.7-.7-1.1-1.3-1.6-.6-.5-1.2-.9-2-1.2-.8-.3-1.7-.4-2.6-.4h0ZM25.2,42.5v3.2h9.4l-7.3,17.2h4.5l7.1-17.7v-2.7h-13.8.1Z"/>
    <path class="st10" d="M35,4.5c-1.4,0-2.5.2-3.6.5-1,.3-1.9.8-2.6,1.3-.7.6-1.3,1.2-1.8,2s-.8,1.3-1.1,2.1c-.3.9-.5,1.8-.6,2.8s-.2,1.9-.2,2.9h0c0,1.5.2,2.9.5,4,.4,1.1.9,2,1.5,2.8.7.7,1.4,1.3,2.3,1.7.9.4,1.8.5,2.8.5s2-.2,2.8-.5,1.5-.8,2.1-1.4,1-1.4,1.3-2.2c.3-.9.5-1.9.5-3s0-2-.4-2.8c-.3-.8-.6-1.6-1.1-2.1-.5-.6-1.1-1-1.8-1.3s-1.5-.4-2.4-.4-1.1,0-1.5.2c-.4.1-.8.3-1.2.5-.4.2-.7.6-.9.9-.3.3-.5.6-.7.9h-.2c0-1,.2-1.8.4-2.6.2-.8.5-1.1,1-1.7.5-.6,1.1-1,1.9-1.3.8-.3,1.8-.5,3.1-.5s.8,0,1.2,0,.8,0,1.1.2v-3.5h-2.6s.2,0,.2,0ZM32.4,14.9c.8,0,1.5.3,1.9.9.4.6.6,1.4.6,2.4s0,1.1-.2,1.6c0,.4-.3.8-.5,1.1-.2.3-.5.5-.8.7-.3.1-.7.2-1,.2s-.9-.1-1.2-.4c-.3-.2-.6-.5-.9-.9-.2-.4-.4-.8-.5-1.3s-.2-1-.2-1.4,0-.7.2-1c.1-.3.3-.6.6-.9.3-.3.6-.5.9-.7.4-.2.7-.3,1.2-.3h0ZM47,22.8v10.3l1,.9c.2,0,.4,0,.6-.2.2,0,.5,0,.8-.2h1.6c1.3,0,2.3.3,3,.8.6.5,1,1.3,1,2.3s-.3,2-1,2.5-1.6.8-2.9.8-.9,0-1.3,0-.9-.2-1.4-.3-.9-.3-1.3-.4c-.4-.2-.8-.3-1.1-.5v3.7c.3.2.7.3,1.1.5.4,0,.9.3,1.3.3s1,.2,1.5.2h1.5c1.3,0,2.4-.2,3.4-.5s1.8-.8,2.5-1.4c.7-.6,1.2-1.4,1.5-2.2.3-.9.5-1.9.5-3s-.2-1.9-.5-2.7-.8-1.4-1.3-2c-.6-.5-1.2-.9-2-1.2-.8-.3-1.6-.4-2.5-.4h0c-.6,0-1.1,0-1.5.1-.4,0-.7.1-1,.2l.3-4.1h6.5v-3.4h-10.3,0ZM11.5,22.9c-.8,0-1.6,0-2.2.3-.7.2-1.3.4-1.8.6-.6.3-1.1.6-1.5.9-.5.3-.9.5-1.3.9l2.4,2.8c.7-.7,1.5-1.2,2.1-1.6.7-.4,1.4-.5,2.1-.5s1.3.2,1.7.6.6.9.6,1.6,0,1.2-.3,1.7c-.2.5-.5,1.1-.8,1.6-.4.5-.8,1.1-1.3,1.6-.5.6-1,1.2-1.7,1.8l-4.8,5.4v2.8h13.7v-3.4h-8.3v-.2l2.5-2.7c.7-.7,1.4-1.4,2-2.1.6-.7,1.2-1.4,1.7-2.1.5-.7.9-1.4,1.1-2.2.3-.7.4-1.5.4-2.3s-.1-1.7-.4-2.4c-.3-.7-.7-1.1-1.3-1.6-.6-.5-1.2-.9-2-1.2-.8-.3-1.7-.4-2.6-.4h0ZM25.2,41.4v3.2h9.4l-7.3,17.2h4.5l7.1-17.7v-2.7h-13.8.1Z"/>
    <path class="st3" d="M3.4-.1C1.5-.1,0,1.4,0,3.3v1.1C0,2.6,1.5,1,3.4,1h57.4c1.9,0,3.4,1.5,3.4,3.4v-1.1c0-1.9-1.5-3.4-3.4-3.4,0,0-57.4,0-57.4,0Z"/>
  </g>
  <g class="st4">
    <path class="st7" d="M16.8,25.4c-5.4,4-8.5,1.1-8.5,8,0,12,10.4,21.7,23.1,21.7s23.1-9.7,23.1-21.7-2.2-10.6-5.9-14.5c0,0-.3-.3-.6-.2,1.5,2.4,2.4,5.3,2.4,8.3,0,8.9-5.2,17.7-14.6,17.7-6,.3-14-3.4-15.3-6.8-.8-2.2-.6-4.7,1.6-6,1.2-.7,2.9-1.4,5.6-1.5,2.5-1.5,1.3-1.4,1.2-1.8-.8-.2-2.1-.5-4-1.9-1.7-1.2-2.5-1.7-7.3-1.8-.9-1.7-.7,2.5-.8.5Z"/>
    <path class="st19" d="M38.7,8.9c1,2.5,4.5,5.6,9.2,11.3,3.9,4.8,4.4,10.1,5.9,14.9l-11,8.9-12.4-12c0-8-2.1-16.4,8.3-23.1Z"/>
    <path class="st8" d="M38.7,8.9c-7.5,4.8-8.5,10.5-8.5,16.3,0-5.5,1.4-10.9,8.5-15.5,1,2.5,4.5,5.6,9.2,11.3,3.8,4.6,4.4,9.7,5.7,14.3h.2c-1.5-4.9-1.9-10.3-5.9-15.1-4.7-5.6-8.2-8.8-9.2-11.3Z"/>
    <path class="st22" d="M16.1,23.3c1.6-1.5,4.2-5,7.4-6-.8,4.2.2,5.6.8,7.8l-5-1.2-3.1-.5Z"/>
    <ellipse class="st24" cx="31.4" cy="32.4" rx="11.6" ry="11"/>
    <path class="st11" d="M35.1,24.7c-.2,0-.3,0-.5,0,3.4,1.5,5.5,4.7,5.5,8.2,0,4.8-4,8.9-9.1,9.1,1.3.6,2.7.8,4.1.8,5.3,0,9.6-4.1,9.6-9.1,0-5-4.3-9.1-9.6-9.1Z"/>
    <path id="ellipse841" class="st13" d="M16.8,24.6c-5.4,4-8.5,1.1-8.5,8,0,12,10.4,21.7,23.1,21.7s23.1-9.7,23.1-21.7-2.2-10.6-5.9-14.5c0,0-.3-.3-.6-.2,1.5,2.4,2.4,5.3,2.4,8.3,0,8.9-5.2,17.7-14.6,17.7-6,.3-14-3.4-15.3-6.8-.8-2.2-.6-4.7,1.6-6,1.2-.7,2.9-1.4,5.6-1.5,2.5-1.5,1.3-1.4,1.2-1.8-.8-.2-2.1-.5-4-1.9-1.7-1.2-2.5-1.7-7.3-1.8-.9-1.7-.7,2.5-.8.5Z"/>
    <path class="st6" d="M16.5,16.4c-5.2,3.8-7.9,9.6-8.2,16.2.3,10.1,10,17.9,22,17.9s22-8,22-18.3-.7-5.4-2-7.8c.2.9.2,1.8.2,2.7,0,8.9-7.6,15.6-17,15.6-6,.3-10.6-2.4-11.8-5.8-.8-2.2-.5-3.1,1.6-4.5,1.2-.7,2.8-1.2,5.6-1.3,2.5-1.5,2.7-2.1,2.6-2.6-.8-.2-2.9-1-4.8-2.4-1.7-1.2-4.5-3.8-9.3-3.8-.9-1.7-.8-3.9-.8-5.9Z"/>
    <path class="st17" d="M16.5,15.6c-5.2,3.8-7.9,9.6-8.2,16.2.3,10.1,10,17.9,22,17.9s22-8,22-18.3-.7-5.4-2-7.8c.2.9.2,1.8.2,2.7,0,8.9-7.6,15.6-17,15.6-6,.3-10.6-2.4-11.8-5.8-.8-2.2-.5-3.1,1.6-4.5,1.2-.7,2.8-1.2,5.6-1.3,2.5-1.5,2.7-2.1,2.6-2.6-.8-.2-2.9-1-4.8-2.4-1.7-1.2-4.5-3.8-9.3-3.8-.9-1.7-.8-3.9-.8-5.9Z"/>
    <path class="st11" d="M18.6,26.1c-1.6,0-2.9.5-4,1.2-.2.2,1.5,3.4,5,3.4-.3,5.4,3.9,9.3,6.8,10.1l1.3.2c-3-1-5.2-2.8-6-5-.8-2.2-.5-3.1,1.6-4.5,1.2-.7,2.8-1.2,5.6-1.3,1.2-.8,1.9-1.3,2.3-1.7.2-.2.3-.4.3-.5,0-.1,0-.3,0-.4-3.3,3.2-8.1-.3-11.8-1.4-.3,0-.7-.1-1.1-.1Z"/>
    <path class="st8" d="M16.5,15.6c-5.2,3.8-7.9,9.6-8.2,16.2,0,.1,0,.3,0,.4.4-6.4,3.1-12.1,8.2-15.8,0,2,0,4.2.8,5.9,4.9,0,7.7,2.6,9.3,3.8,1.8,1.3,3.7,2.1,4.6,2.3.2-.3.2-.5.2-.7-.8-.2-2.9-1-4.8-2.4-1.7-1.2-4.5-3.8-9.3-3.8-.9-1.7-.8-3.9-.8-5.9ZM50.2,23.5c0,.4.1.7.1,1.1,1.1,2.2,1.8,4.6,1.8,7.1,0-.1,0-.3,0-.4,0-2.8-.7-5.4-2-7.8ZM50.5,26.7c-.3,8.6-7.8,15.1-17,15.1-6,.3-10.6-2.4-11.8-5.8-.2-.5-.3-1-.4-1.4,0,.6,0,1.3.4,2.2,1.2,3.4,5.8,6,11.8,5.8,9.4,0,17-6.7,17-15.6s0-.2,0-.3Z"/>
  </g>
  <g class="st4">
    <path class="st7" d="M17.1,26c-5,3.7-7.9,1-7.9,7.4,0,11.1,9.5,20.1,21.3,20.1s21.3-9,21.3-20.1-2.1-9.9-5.5-13.4c0,0-.3-.3-.5-.2,1.4,2.2,2.2,4.9,2.2,7.7,0,8.2-4.8,16.4-13.4,16.4-5.5.3-12.9-3.1-14-6.3-.7-2-.5-4.3,1.4-5.6,1.1-.7,2.7-1.3,5.2-1.4,2.3-1.4,1.2-1.3,1.1-1.7-.7-.2-2-.4-3.7-1.7-1.5-1.2-2.3-1.6-6.7-1.6-.8-1.6-.6,2.3-.7.5Z"/>
    <path class="st15" d="M37.2,10.7c.9,2.3,4.1,5.2,8.4,10.5,3.6,4.4,4,9.4,5.4,13.8l-10.1,8.3-11.4-11.2c0-7.4-1.9-15.2,7.6-21.4Z"/>
    <path class="st8" d="M37.2,10.7c-6.9,4.5-7.8,9.7-7.8,15.1,0-5.1,1.3-10.1,7.8-14.4.9,2.3,4.1,5.2,8.4,10.5,3.5,4.2,4,8.9,5.2,13.2h.2c-1.3-4.6-1.8-9.5-5.4-14-4.3-5.2-7.5-8.2-8.4-10.5Z"/>
    <path class="st20" d="M16.5,24.1c1.5-1.4,3.9-4.7,6.8-5.6-.8,3.9.2,5.2.7,7.2l-4.6-1.1-2.9-.5Z"/>
    <ellipse class="st12" cx="30.5" cy="32.5" rx="10.6" ry="10.2"/>
    <path class="st14" d="M33.9,25.3c-.2,0-.3,0-.5,0,3.1,1.4,5.1,4.3,5.1,7.6,0,4.5-3.7,8.3-8.3,8.5,1.2.5,2.4.7,3.7.7,4.9,0,8.8-3.8,8.8-8.4,0-4.6-3.9-8.4-8.8-8.4Z"/>
    <path id="ellipse8411" data-name="ellipse841" class="st16" d="M17.1,25.3c-5,3.7-7.9,1-7.9,7.4,0,11.1,9.5,20.1,21.3,20.1s21.3-9,21.3-20.1-2.1-9.9-5.5-13.4c0,0-.3-.3-.5-.2,1.4,2.2,2.2,4.9,2.2,7.7,0,8.2-4.8,16.4-13.4,16.4-5.5.3-12.9-3.1-14-6.3-.7-2-.5-4.3,1.4-5.6,1.1-.7,2.7-1.3,5.2-1.4,2.3-1.4,1.2-1.3,1.1-1.7-.7-.2-2-.4-3.7-1.7-1.5-1.2-2.3-1.6-6.7-1.6-.8-1.6-.6,2.3-.7.5Z"/>
    <path class="st6" d="M16.8,17.6c-4.8,3.5-7.3,8.9-7.5,15,.3,9.3,9.2,16.6,20.2,16.6s20.2-7.4,20.2-17-.7-5-1.8-7.2c.1.8.2,1.6.2,2.5,0,8.2-7,14.4-15.6,14.4-5.5.3-9.7-2.2-10.8-5.4-.7-2-.5-2.9,1.5-4.2,1.1-.7,2.6-1.1,5.1-1.2,2.3-1.4,2.5-2,2.3-2.4-.7-.2-2.7-.9-4.4-2.2-1.5-1.2-4.1-3.5-8.6-3.5-.8-1.6-.7-3.6-.8-5.4Z"/>
    <path class="st29" d="M16.8,16.9c-4.8,3.5-7.3,8.9-7.5,15,.3,9.3,9.2,16.6,20.2,16.6s20.2-7.4,20.2-17-.7-5-1.8-7.2c.1.8.2,1.6.2,2.5,0,8.2-7,14.4-15.6,14.4-5.5.3-9.7-2.2-10.8-5.4-.7-2-.5-2.9,1.5-4.2,1.1-.7,2.6-1.1,5.1-1.2,2.3-1.4,2.5-2,2.3-2.4-.7-.2-2.7-.9-4.4-2.2-1.5-1.2-4.1-3.5-8.6-3.5-.8-1.6-.7-3.6-.8-5.4Z"/>
    <path class="st14" d="M18.8,26.7c-1.4,0-2.7.4-3.6,1.1-.2.2,1.4,3.2,4.6,3.2-.3,5,3.6,8.6,6.2,9.4l1.2.2c-2.8-.9-4.8-2.6-5.5-4.7-.7-2-.5-2.9,1.5-4.2,1.1-.7,2.6-1.1,5.1-1.2,1.1-.7,1.8-1.2,2.1-1.6.2-.2.2-.3.3-.5,0-.1,0-.3,0-.4-3.1,3-7.4-.3-10.8-1.3-.3,0-.6,0-1-.1Z"/>
    <path class="st8" d="M16.8,16.9c-4.8,3.5-7.3,8.9-7.5,15,0,.1,0,.3,0,.4.3-6,2.8-11.2,7.5-14.7,0,1.8,0,3.9.8,5.4,4.5,0,7,2.4,8.6,3.5,1.6,1.2,3.4,1.9,4.2,2.2.2-.3.2-.5.2-.7-.7-.2-2.7-.9-4.4-2.2-1.5-1.2-4.1-3.5-8.6-3.5-.8-1.6-.7-3.6-.8-5.4ZM47.8,24.3c0,.3,0,.7.1,1,1,2,1.6,4.2,1.7,6.6,0-.1,0-.3,0-.4,0-2.6-.7-5-1.8-7.2ZM48.1,27.2c-.3,8-7.1,14-15.6,14-5.5.3-9.7-2.2-10.8-5.4-.2-.5-.3-.9-.3-1.3,0,.5,0,1.2.3,2,1.1,3.2,5.3,5.6,10.8,5.4,8.6,0,15.6-6.2,15.6-14.4s0-.2,0-.3Z"/>
  </g>
  <g class="st4">
    <path class="st2" d="M16.1,1.3h33.8c2.1,0,3.8,1.5,3.8,3.4v56.3c0,1.9-1.7,3.4-3.8,3.4H16.1c-2.1,0-3.8-1.5-3.8-3.4V4.7c0-1.9,1.7-3.4,3.8-3.4Z"/>
    <path class="st1" d="M16.1.1h33.8c2.1,0,3.8,1.5,3.8,3.4v56.3c0,1.9-1.7,3.4-3.8,3.4H16.1c-2.1,0-3.8-1.5-3.8-3.4V3.5c0-1.9,1.7-3.4,3.8-3.4Z"/>
    <ellipse class="st7" cx="33" cy="48" rx="14.4" ry="12.9"/>
    <ellipse class="st0" cx="33" cy="46.9" rx="14.4" ry="12.9"/>
    <ellipse class="st21" cx="33" cy="46.9" rx="10.6" ry="9.6"/>
    <ellipse class="st0" cx="33" cy="46.9" rx="8.1" ry="7.3"/>
    <path class="st21" d="M19.8,4.7h26.3c2.1,0,3.8,1.5,3.8,3.4v19.1c0,1.9-1.7,3.4-3.8,3.4h-26.3c-2.1,0-3.8-1.5-3.8-3.4V8c0-1.9,1.7-3.4,3.8-3.4Z"/>
    <path class="st8" d="M33,33.9c-7.9,0-14.4,5.8-14.4,12.9,0,.2,0,.4,0,.7.3-7,6.6-12.5,14.4-12.5,7.7,0,14,5.4,14.4,12.3,0-.2,0-.3,0-.5,0-7.2-6.4-12.9-14.4-12.9Z"/>
    <path class="st3" d="M16.1.1c-2.1,0-3.8,1.5-3.8,3.4v1.1c0-1.9,1.7-3.4,3.8-3.4h33.8c2.1,0,3.8,1.5,3.8,3.4v-1.1c0-1.9-1.7-3.4-3.8-3.4H16.1Z"/>
    <path class="st7" d="M19.8,4.7c-2.1,0-3.8,1.5-3.8,3.4v1.1c0-1.9,1.7-3.4,3.8-3.4h26.3c2.1,0,3.8,1.5,3.8,3.4v-1.1c0-1.9-1.7-3.4-3.8-3.4h-26.3Z"/>
  </g>
  <g>
    <path class="st7" d="M30.9,14.6c-2.5,0-4.6,1.8-4.6,4.1v1.9c-2,.6-3.8,1.6-5.4,2.8l-1.8-1c-2.2-1.1-5-.5-6.2,1.5l-1.1,1.8c-1.3,1.9-.5,4.4,1.7,5.5l1.8.9c-.2.9-.3,1.8-.3,2.8,0,.9.1,1.9.3,2.8l-1.8.9c-2.2,1.1-2.9,3.6-1.7,5.5l1.1,1.8c1.3,1.9,4,2.6,6.2,1.5l1.8-.9c1.6,1.2,3.4,2.1,5.4,2.8v1.9c0,2.3,2,4.1,4.6,4.1h2.3c2.5,0,4.6-1.8,4.6-4.1v-1.9c2-.6,3.8-1.6,5.4-2.8l1.8,1c2.2,1.1,5,.5,6.2-1.5l1.1-1.8c1.3-1.9.5-4.4-1.7-5.5l-1.8-.9c.2-.9.3-1.8.3-2.8,0-.9-.1-1.9-.3-2.8l1.8-.9c2.2-1.1,2.9-3.6,1.7-5.5l-1.1-1.8c-1.3-1.9-4-2.6-6.2-1.5l-1.8.9c-1.6-1.2-3.4-2.1-5.4-2.8v-1.9c0-2.3-2-4.1-4.6-4.1h-2.3Z"/>
    <path class="st28" d="M30.9,13.9c-2.5,0-4.6,1.8-4.6,4.1v1.9c-2,.6-3.8,1.6-5.4,2.8l-1.8-1c-2.2-1.1-5-.5-6.2,1.5l-1.1,1.8c-1.3,1.9-.5,4.4,1.7,5.5l1.8.9c-.2.9-.3,1.8-.3,2.8,0,.9.1,1.9.3,2.8l-1.8.9c-2.2,1.1-2.9,3.6-1.7,5.5l1.1,1.8c1.3,1.9,4,2.6,6.2,1.5l1.8-.9c1.6,1.2,3.4,2.1,5.4,2.8v1.9c0,2.3,2,4.1,4.6,4.1h2.3c2.5,0,4.6-1.8,4.6-4.1v-1.9c2-.6,3.8-1.6,5.4-2.8l1.8,1c2.2,1.1,5,.5,6.2-1.5l1.1-1.8c1.3-1.9.5-4.4-1.7-5.5l-1.8-.9c.2-.9.3-1.8.3-2.8,0-.9-.1-1.9-.3-2.8l1.8-.9c2.2-1.1,2.9-3.6,1.7-5.5l-1.1-1.8c-1.3-1.9-4-2.6-6.2-1.5l-1.8.9c-1.6-1.2-3.4-2.1-5.4-2.8v-1.9c0-2.3-2-4.1-4.6-4.1h-2.3Z"/>
    <path class="st9" d="M30.9,13.9c-2.5,0-4.6,1.8-4.6,4.1v.7c0-2.3,2-4.1,4.6-4.1h2.3c2.5,0,4.6,1.8,4.6,4.1v-.7c0-2.3-2-4.1-4.6-4.1h-2.3ZM26.3,19.8c-2,.6-3.8,1.6-5.4,2.8l-1.8-1c-2.2-1.1-5-.5-6.2,1.5l-1.1,1.8c-.5.8-.7,1.6-.6,2.4,0-.6.2-1.1.6-1.7l1.1-1.8c1.3-1.9,4-2.6,6.2-1.5l1.8,1c1.6-1.2,3.4-2.2,5.4-2.8v-.7ZM37.7,19.8v.7c2,.6,3.8,1.6,5.4,2.8l1.8-.9c2.2-1.1,5-.5,6.2,1.5l1.1,1.8c.3.5.5,1.1.6,1.7,0-.8-.1-1.6-.6-2.4l-1.1-1.8c-1.3-1.9-4-2.6-6.2-1.5l-1.8.9c-1.6-1.2-3.4-2.1-5.4-2.8ZM48.9,32.1h-.1c.2.9.3,1.7.3,2.5,0-.1,0-.3,0-.4,0-.7,0-1.4-.2-2.1ZM15.1,32.1c-.1.7-.2,1.4-.2,2.1,0,.1,0,.2,0,.3,0-.8.1-1.6.3-2.4h-.1ZM48.9,37c0,.2,0,.4-.1.7l1.8.9c1.3.7,2.1,1.9,2.3,3.1.2-1.5-.7-3.1-2.3-3.9l-1.7-.9ZM15.1,37l-1.7.9c-1.6.8-2.4,2.3-2.3,3.9.1-1.3.9-2.5,2.3-3.1l1.8-.9c0-.2,0-.4-.1-.7Z"/>
    <path class="st7" d="M38,13.1c-1.1,0-1.1,1.1-1.1,1.1v13.2c-1.4-.7-3.1-1.2-4.9-1.2-5.4,0-9.8,3.9-9.8,8.7s4.4,8.7,9.8,8.7,9.8-3.9,9.8-8.7,0,0,0,0v-17.4s2.3,1.8,3.1,3.6c.4.9.4,1.9-.5,2.6-.7.4-1,1-.8,1.5.2.8,1.2,1.4,2.7.8,2.2-1,2.9-2.9,2.9-4.4,0-4.6-6.5-8.5-11.1-8.5h0Z"/>
    <path class="st27" d="M38,12.4c-1.1,0-1.1,1.1-1.1,1.1v13.2c-1.4-.7-3.1-1.2-4.9-1.2-5.4,0-9.8,3.9-9.8,8.7s4.4,8.7,9.8,8.7,9.8-3.9,9.8-8.7,0,0,0,0v-17.4s2.3,1.8,3.1,3.6c.4.9.4,1.9-.5,2.6-.7.4-1,1-.8,1.5.2.8,1.2,1.4,2.7.8,2.2-1,2.9-2.9,2.9-4.4,0-4.6-6.5-8.5-11.1-8.5h0Z"/>
    <path class="st8" d="M38,12.4c-1.1,0-1.1,1.1-1.1,1.1v.7s0-1.1,1.1-1.1c4.5,0,10.8,3.8,11,8.2,0-.1,0-.3,0-.4,0-4.6-6.5-8.5-11.1-8.5ZM45,21.8c0,.4-.3.8-.7,1.2-.7.4-1,1-.8,1.5,0,0,0,0,0,.1.1-.3.4-.6.8-.9.7-.6.8-1.2.7-1.9ZM32,25.5c-5.4,0-9.8,3.9-9.8,8.7s0,.2,0,.4c.2-4.6,4.5-8.3,9.7-8.3s3.4.4,4.9,1.2v-.7c-1.4-.7-3.1-1.2-4.9-1.2ZM41.8,34.1h0s0,0,0,0,0,0,0,0Z"/>
  </g>
</svg>