<?xml version="1.0" encoding="UTF-8"?>
<svg id="_图层_1" xmlns="http://www.w3.org/2000/svg" version="1.1" viewBox="0 0 64 64" width="64" height="64">
  <!-- Generator: Adobe Illustrator 29.0.1, SVG Export Plug-In . SVG Version: 2.1.0 Build 192)  -->
  <defs>
    <style>
      .st0 {
        fill: #366a90;
      }

      .st1 {
        fill: #3f3f3f;
      }

      .st2, .st3, .st4, .st5 {
        fill: #fff;
      }

      .st6 {
        opacity: .2;
      }

      .st6, .st7, .st3, .st8, .st9, .st4, .st5 {
        isolation: isolate;
      }

      .st10 {
        fill: #2f5d7c;
      }

      .st11 {
        stroke-width: 4px;
      }

      .st11, .st12 {
        fill: none;
        stroke: #e4e4e4;
        stroke-linecap: round;
        stroke-linejoin: round;
      }

      .st7, .st5 {
        opacity: .1;
      }

      .st13 {
        fill: #649cff;
      }

      .st3 {
        opacity: .5;
      }

      .st12 {
        stroke-width: 8px;
      }

      .st8 {
        opacity: .3;
      }

      .st9, .st4 {
        opacity: .2;
      }

      .st14 {
        display: none;
      }

      .st15 {
        fill: #83929a;
      }

      .st16 {
        fill: #6e7e87;
      }

      .st17 {
        fill: #447ede;
      }
    </style>
  </defs>
  <path class="st1" d="M50.4,64H13.8c-7.6,0-13.8-6.2-13.8-13.7V13.7C0,6.2,6.2,0,13.7,0h36.6c7.5,0,13.7,6.2,13.7,13.7v36.6c0,7.5-6.2,13.7-13.7,13.7h.1Z"/>
  <g class="st14">
    <path class="st9" d="M31.3,19.2c-6.5,0-11.7,5-11.7,11.1s5.2,11.1,11.7,11.1,11.7-5,11.7-11.1-5.2-11.1-11.7-11.1ZM27.1,24.3h1.2c.2,0,.4,0,.6.1l8.3,4.8c.4.2.6.6.6,1.1s-.2.9-.6,1.1l-8.3,4.8c-.1,0-.4.1-.6.1h-1.2s0-12.1,0-12.1Z"/>
    <path class="st2" d="M31.3,18.2c-6.5,0-11.7,5-11.7,11.1s5.2,11.1,11.7,11.1,11.7-5,11.7-11.1-5.2-11.1-11.7-11.1ZM27.1,23.3h1.2c.2,0,.4,0,.6.1l8.3,4.8c.4.2.6.6.6,1.1s-.2.9-.6,1.1l-8.3,4.8c-.1,0-.4.1-.6.1h-1.2v-12.1Z"/>
    <path class="st3" d="M14.9,47.6h32.9c.9,0,1.6.7,1.6,1.5h0c0,.9-.7,1.5-1.6,1.5H14.9c-.9,0-1.6-.7-1.6-1.5h0c0-.9.7-1.5,1.6-1.5Z"/>
    <path class="st9" d="M22.3,45.6h0c2.7,0,4.8,2.1,4.8,4.6h0c0,2.5-2.2,4.6-4.8,4.6h0c-2.7,0-4.8-2.1-4.8-4.6h0c0-2.5,2.2-4.6,4.8-4.6Z"/>
    <path class="st2" d="M22.3,44.6h0c2.7,0,4.8,2.1,4.8,4.6h0c0,2.5-2.2,4.6-4.8,4.6h0c-2.7,0-4.8-2.1-4.8-4.6h0c0-2.5,2.2-4.6,4.8-4.6Z"/>
    <path class="st8" d="M4.7,11.1v4.1h4.3v-4.1s-4.3,0-4.3,0ZM53.7,11.1v4.1h4.3v-4.1s-4.3,0-4.3,0ZM4.7,19.2v4.1h4.3v-4.1h-4.3ZM53.7,19.2v4.1h4.3v-4.1h-4.3ZM4.7,27.3v4.1h4.3v-4.1h-4.3ZM53.7,27.3v4.1h4.3v-4.1h-4.3ZM4.7,35.4v4.1h4.3v-4.1h-4.3ZM53.7,35.4v4.1h4.3v-4.1h-4.3ZM4.7,43.6v4.1h4.3v-4.1h-4.3ZM53.7,43.6v4.1h4.3v-4.1h-4.3ZM4.7,51.7v4.1h4.3v-4.1h-4.3ZM53.7,51.7v4.1h4.3v-4.1h-4.3Z"/>
  </g>
  <g class="st14">
    <path class="st9" d="M9,7.3c-2.2,0-4,1.8-4,4v28c0,2.2,1.8,4,4,4h32c2.2,0,4-1.8,4-4V11.3c0-2.2-1.8-4-4-4H9ZM13,15.3h24v20H13V15.3ZM50,16.3c-1.1,0-2,.9-2,2v28H14c-1.1,0-2,.9-2,2s.9,2,2,2h36c1.1,0,2-.9,2-2v-30c0-1.1-.9-2-2-2ZM57,23.3c-1.1,0-2,.9-2,2v28H21c-1.1,0-2,.9-2,2s.9,2,2,2h36c1.1,0,2-.9,2-2v-30c0-1.1-.9-2-2-2Z"/>
    <path class="st11" d="M14,47.3h36v-30"/>
    <path class="st12" d="M9,10.3h32v28H9V10.3Z"/>
    <path class="st11" d="M21,54.3h36v-30"/>
    <rect class="st1" x="9" y="10.3" width="32" height="28"/>
    <path class="st4" d="M9,6.3c-2.2,0-4,1.8-4,4v1c0-2.2,1.8-4,4-4h32c2.2,0,4,1.8,4,4v-1c0-2.2-1.8-4-4-4H9ZM50,15.3c-1.1,0-2,.9-2,2v1c0-1.1.9-2,2-2s2,.9,2,2v-1c0-1.1-.9-2-2-2ZM57,22.3c-1.1,0-2,.9-2,2v1c0-1.1.9-2,2-2s2,.9,2,2v-1c0-1.1-.9-2-2-2ZM14,45.3c-1.1,0-2,.9-2,2,0,.2,0,.3.1.5.2-.9,1-1.5,1.9-1.5h34v-1H14ZM21,52.3c-1.1,0-2,.9-2,2,0,.2,0,.3.1.5.2-.9,1-1.5,1.9-1.5h34v-1H21Z"/>
    <rect class="st9" x="9" y="10.3" width="32" height="1"/>
  </g>
  <g>
    <path class="st9" d="M43.6,26.3l12.4,6.8v13.7l-12.4,6.8-12.4-6.8v-13.7s12.4-6.8,12.4-6.8Z"/>
    <path class="st9" d="M18.8,26.3l12.4,6.8v13.7l-12.4,6.8-12.4-6.8v-13.7s12.4-6.8,12.4-6.8Z"/>
    <path class="st16" d="M43.6,25.4l12.4,6.8v13.7l-12.4,6.8-12.4-6.8v-13.7s12.4-6.8,12.4-6.8Z"/>
    <path class="st6" d="M43.6,25.4l12.4,6.8v13.7l-12.4,6.8v-27.4Z"/>
    <path class="st15" d="M43.6,25.4l-12.4,6.8,12.4,6.8,12.4-6.8-12.4-6.8Z"/>
    <path class="st10" d="M18.8,25.4l12.4,6.8v13.7l-12.4,6.8-12.4-6.8v-13.7s12.4-6.8,12.4-6.8Z"/>
    <path class="st9" d="M18.8,25.4l12.4,6.8v13.7l-12.4,6.8v-27.4Z"/>
    <path class="st0" d="M18.8,25.4l-12.4,6.8,12.4,6.8,12.4-6.8-12.4-6.8Z"/>
    <path class="st9" d="M31.2,6l12.4,6.8v13.7l-12.4,6.8-12.4-6.8v-13.7s12.4-6.8,12.4-6.8Z"/>
    <path class="st17" d="M31.2,5.2l12.4,6.8v13.7l-12.4,6.8-12.4-6.8v-13.7s12.4-6.8,12.4-6.8Z"/>
    <path class="st9" d="M31.2,5.2l12.4,6.8v13.7l-12.4,6.8V5.2Z"/>
    <path class="st13" d="M31.2,5.2l-12.4,6.8,12.4,6.8,12.4-6.8-12.4-6.8Z"/>
    <path class="st7" d="M32,32.7l-.8.4,12.4,6.8,12.4-6.8-.8-.4-11.7,6.4-11.7-6.4Z"/>
    <path class="st7" d="M7.1,32.7l-.8.4,12.4,6.8,12.4-6.8-.8-.4-11.7,6.4-11.7-6.4Z"/>
    <path class="st7" d="M19.6,12.4l-.8.4,12.4,6.8,12.4-6.8-.8-.4-11.7,6.4-11.7-6.4Z"/>
    <path class="st5" d="M43.6,25.4v.9l11.7,6.4.8-.4-12.4-6.8Z"/>
    <path class="st5" d="M18.8,25.4l-12.4,6.8.8.4,11.7-6.4v-.9Z"/>
    <path class="st4" d="M31.2,5.2l-12.4,6.8.8.4,11.7-6.4,11.7,6.4.8-.4-12.4-6.8Z"/>
  </g>
</svg>