<?xml version="1.0" encoding="UTF-8"?>
<svg id="_图层_1" xmlns="http://www.w3.org/2000/svg" version="1.1" viewBox="0 0 64 64" width="64" height="64">
  <!-- Generator: Adobe Illustrator 29.0.1, SVG Export Plug-In . SVG Version: 2.1.0 Build 192)  -->
  <defs>
    <style>
      .st0 {
        fill: #fecd38;
      }

      .st1 {
        fill: #4f4f4f;
      }

      .st2, .st3, .st4, .st5, .st6, .st7 {
        display: none;
      }

      .st2, .st8 {
        fill: #3f3f3f;
      }

      .st9 {
        fill: #a058ea;
      }

      .st3, .st4, .st10, .st11, .st12, .st7, .st13 {
        isolation: isolate;
      }

      .st3, .st14, .st10, .st12, .st7 {
        opacity: .2;
      }

      .st4, .st15, .st12, .st7, .st13 {
        fill: #fff;
      }

      .st4, .st13 {
        opacity: .1;
      }

      .st16 {
        fill: #ff6363;
      }

      .st17 {
        fill: #00a0fd;
      }

      .st5 {
        fill: #ac8a78;
      }

      .st18 {
        stroke: #fff;
        stroke-linecap: round;
        stroke-linejoin: round;
        stroke-width: 3px;
      }

      .st18, .st19 {
        fill: none;
      }

      .st20 {
        fill: #a1adbb;
      }

      .st21 {
        fill: #bbb673;
        fill-rule: evenodd;
      }

      .st11 {
        opacity: .5;
      }

      .st22 {
        fill: #484848;
      }

      .st23 {
        fill: #d2d2d2;
      }

      .st19 {
        stroke: #494949;
        stroke-width: 2px;
      }
    </style>
  </defs>
  <path class="st8" d="M50.4,64H13.8c-7.6,0-13.8-6.2-13.8-13.7V13.7C0,6.2,6.2,0,13.7,0h36.6c7.5,0,13.7,6.2,13.7,13.7v36.6c0,7.5-6.2,13.7-13.7,13.7h.1Z"/>
  <g class="st6">
    <path class="st3" d="M0,59.6v2.3C0,63.7,1.4,65.1,3.2,65.1h57.7c1.8,0,3.2-1.4,3.2-3.2v-2.3c0,1.8-1.4,3.2-3.2,3.2H3.2C1.4,62.8,0,61.4,0,59.6H0Z"/>
    <path class="st5" d="M3.2,0h57.7c1.8,0,3.2,1.4,3.2,3.2v57.5c0,1.8-1.4,3.2-3.2,3.2H3.2c-1.8,0-3.2-1.4-3.2-3.2V3.2C0,1.4,1.4,0,3.2,0Z"/>
    <path class="st19" d="M19.4,29.7v-12.6h27.5v12.6"/>
    <path class="st19" d="M26.3,45.7v-14.8h27.5v14.8"/>
    <path class="st19" d="M12.6,45.7v-14.8h27.5v14.8"/>
    <g class="st14">
      <rect x="9.2" y="42.2" width="6.9" height="9.1"/>
      <rect x="22.9" y="42.2" width="6.9" height="9.1"/>
      <rect x="36.6" y="42.2" width="6.9" height="9.1"/>
      <rect x="29.7" y="12.6" width="6.9" height="9.1"/>
      <rect x="16" y="26.3" width="6.9" height="9.1"/>
      <rect x="43.5" y="26.3" width="6.9" height="9.1"/>
      <rect x="50.3" y="42.2" width="6.9" height="9.1"/>
    </g>
    <g>
      <rect class="st15" x="9.2" y="41.1" width="6.9" height="9.1"/>
      <rect class="st15" x="22.9" y="41.1" width="6.9" height="9.1"/>
      <rect class="st15" x="36.6" y="41.1" width="6.9" height="9.1"/>
      <rect class="st15" x="29.7" y="11.4" width="6.9" height="9.1"/>
      <rect class="st15" x="16" y="25.1" width="6.9" height="9.1"/>
      <rect class="st15" x="43.5" y="25.1" width="6.9" height="9.1"/>
      <rect class="st15" x="50.3" y="41.1" width="6.9" height="9.1"/>
    </g>
    <path class="st7" d="M3.2,0C1.4,0,0,1.4,0,3.2v1.1C0,2.6,1.4,1.1,3.2,1.1h57.7c1.8,0,3.2,1.4,3.2,3.2v-1.1c0-1.8-1.4-3.2-3.2-3.2H3.2Z"/>
  </g>
  <g class="st6">
    <ellipse class="st3" cx="32" cy="33.1" rx="32" ry="32"/>
    <ellipse class="st2" cx="32" cy="32" rx="32" ry="32"/>
    <path class="st10" d="M21.5,18c-2.2,0-4.4.3-5.9,1.9-.8.8-1.2,2-1.1,3.3s.5,2.5,1.4,4l14.7,25.9c.5.8,1.5,1.1,2.3.6.3-.2.5-.4.6-.6l14.9-26.7c1.1-1.9,1.7-4,.7-5.8s-3.3-2.6-6.3-2.6h-21.2ZM21.5,21.3h8.8v24.5l-11.5-20.4s0,0,0,0c-.7-1.2-.9-2-.9-2.5,0-.5,0-.6.2-.8.3-.4,1.7-.8,3.5-.8h0ZM33.7,21.3h9.1c2.4,0,3.2.6,3.3.8s.2,1.1-.6,2.5c0,0,0,0,0,0l-11.8,21.1v-24.4Z"/>
    <path class="st18" d="M32,51.1l-14.7-25.9c-3-5.2.3-6.6,4.2-6.6h21.2c5.4,0,6,2.6,4.1,5.8l-14.9,26.7Z"/>
    <rect class="st15" x="30.3" y="18.6" width="3.4" height="31.7"/>
    <path class="st4" d="M32,0C14.3,0,0,14.3,0,32c0,.2,0,.4,0,.7C.3,15.2,14.5,1.1,32,1.1c17.4,0,31.6,13.9,32,31.3,0-.2,0-.3,0-.5C64,14.3,49.7,0,32,0Z"/>
  </g>
  <g class="st6">
    <path class="st10" d="M48.8,11.8l-1.6,2.7c.2.3.5.5.7.8l1.1-1.9c.3-.5.2-1.2-.2-1.6ZM6,32.1c-.4,9,4.2,17.4,12,21.9,11.5,6.6,26.2,2.7,32.8-8.8h0c2.2-3.9,3.3-8.4,3.2-12.9-.2,3.8-1.3,7.6-3.2,10.9-6.6,11.5-21.3,15.4-32.8,8.8h0c-7.1-4.1-11.6-11.6-12-19.9Z"/>
    <path class="st1" d="M39.3,5.2c-.6-.4-1.5-.2-1.8.5l-1.8,3.1c-10.4-2.6-21.2,2-26.5,11.3-6.6,11.5-2.7,26.2,8.8,32.8,11.5,6.6,26.2,2.7,32.8-8.8,5.3-9.3,3.9-20.9-3.5-28.6l1.8-3.1c.4-.6.2-1.5-.5-1.8l-9.2-5.3h0Z"/>
    <path class="st13" d="M38.8,5.1c-.5,0-1,.2-1.3.7l-1.8,3.1c-10.4-2.6-21.2,2-26.5,11.3-2.1,3.7-3.2,8-3.2,12.3.1-4,1.2-7.9,3.2-11.3,5.3-9.2,16.2-13.9,26.5-11.3l1.8-3.1c.3-.5.8-.7,1.3-.7h0c.2,0,.3,0,.5.2l9.2,5.3c.3.2.4.4.6.7.3-.6,0-1.3-.6-1.7l-9.2-5.3c-.2,0-.3-.2-.5-.2h0ZM47.9,16.3l-.7,1.2c.1.1.2.3.3.4l.3-.6c3.8,4.4,6,10,6,15.8,0,0,0,0,0,.1.3-6.2-1.9-12.3-6-16.9Z"/>
    <path class="st21" d="M53,8c-.5-.3-1.1-.6-1.7-.7-1.2-.3-2.6-.4-3.9-.4-2.6,0-5,.1-5,.1l3.3,1.9c.6,0,1.1,0,1.7,0,1.2,0,2.4,0,3.3.3.9.3,1.4.6,1.5,1,.4,1,.2,1.7-.6,2.7-.8,1-2.2,2-3.7,3-1.5,1.1-3.2,2.1-4.6,3.4-1.4,1.2-2.5,2.7-2.8,4.5-.3,2,.8,4,1.7,5.6,1,1.7,2,3,2,3,.8,1.1,2.5-.2,1.6-1.2,0,0-1-1.2-1.9-2.7-.9-1.5-1.6-3.4-1.5-4.3.2-1.1,1-2.2,2.2-3.3,1.2-1.1,2.8-2.2,4.4-3.2,1.5-1.1,3-2.1,4.1-3.4,1-1.3,1.6-3,.9-4.7-.2-.6-.7-1.1-1.2-1.4h0Z"/>
    <path class="st10" d="M53.9,29.1l-2.4,5.6,5.4,2.9-5.9,1.6,1.2,6-5-3.6-3.9,4.6-.3-6.1-6.1-.3,4.6-4-3.7-4.9,6,1.1,1.5-5.9,2.9,5.4,5.6-2.4Z"/>
    <path class="st16" d="M53.9,28.1l-2.4,5.6,5.4,2.9-5.9,1.6,1.2,6-5-3.6-3.9,4.6-.3-6.1-6.1-.3,4.6-4-3.7-4.9,6,1.1,1.5-5.9,2.9,5.4,5.6-2.4Z"/>
    <path class="st13" d="M45.4,25.1l-1.5,5.9-6-1.1.9,1.2,5.1,1,1.5-5.9,2.9,5.4,5.1-2.2.5-1.2-5.6,2.4-2.9-5.4ZM51.9,33.9l-.3.8,4.2,2.2,1.3-.3-5.1-2.7ZM41.1,35.2l-4.1,3.6h1.1s3.5-3,3.5-3l-.5-.6ZM51.3,39.1h-.2c0,0,1,4.9,1,4.9l.2.2-1-5Z"/>
  </g>
  <g class="st6">
    <path class="st10" d="M8.4,46.7v1.6c0,1.2,1.1,2.2,2.4,2.2h43.6c1.3,0,2.4-1,2.4-2.2v-1.6c0,1.2-1.1,2.2-2.4,2.2H10.8c-1.3,0-2.4-1-2.4-2.2h0Z"/>
    <path class="st0" d="M17.1,10.4h31.1c1,0,1.7.9,1.7,2.1v27.2c0,1.2-.8,2.1-1.7,2.1h-31.1c-1,0-1.7-.9-1.7-2.1V12.5c0-1.2.8-2.1,1.7-2.1Z"/>
    <path class="st23" d="M10.8,27.7h43.6c1.3,0,2.4,1,2.4,2.2v17.6c0,1.2-1.1,2.2-2.4,2.2H10.8c-1.3,0-2.4-1-2.4-2.2v-17.6c0-1.2,1.1-2.2,2.4-2.2Z"/>
    <path class="st11" d="M20.5,19.8v-3.1h24.2v3.1h-24.2Z"/>
    <path class="st22" d="M23.5,35.5h18.2c.7,0,1.3.5,1.3,1.2v2.4c0,.7-.6,1.2-1.3,1.2h-18.2c-.7,0-1.3-.5-1.3-1.2v-2.4c0-.7.6-1.2,1.3-1.2Z"/>
    <path class="st11" d="M20.5,26.1v-3.1h24.2v3.1h-24.2Z"/>
    <path class="st12" d="M10.8,27.7c-1.3,0-2.4,1-2.4,2.2v.8c0-1.2,1.1-2.2,2.4-2.2h43.6c1.3,0,2.4,1,2.4,2.2v-.8c0-1.2-1.1-2.2-2.4-2.2H10.8Z"/>
  </g>
  <g class="st6">
    <path class="st10" d="M18.1,5.9c-.4,0-.8.2-.9.7l-5.1,19.1c-.1.5.2,1,.6,1.1l14.6,3.9c.5.1.9-.1,1.1-.6.5-1.8,1.9-2.8,3.7-2.7,0,0,0,0,.1,0h.7c0,.1,19,5,19,5h0c.5.1,1-.2,1.1-.6l3.9-14.5h0c.1-.5-.2-1-.6-1.1L18.3,5.9c0,0-.1,0-.2,0ZM11.8,29.7c-.4,0-.8.2-.9.7l-3.9,14.5h0c-.1.5.2,1,.6,1.1l38,10.3h0c.5.1.9-.2,1.1-.6l5.1-19.1s0,0,0,0c.1-.5-.2-1-.6-1.1l-14.6-3.9c-.5-.1-.9.1-1.1.6h0c-.6,2.1-2.5,3.1-4.6,2.5l-19-4.9h0c0,0-.1,0-.2,0h0Z"/>
    <path class="st9" d="M18.3,5l38,10.3c.5.1.8.6.6,1.1,0,0,0,0,0,0l-3.9,14.5c-.1.5-.6.8-1.1.6,0,0,0,0,0,0l-19-4.9h-.7c0-.1,0-.1-.1-.1-1.8,0-3.2.9-3.7,2.7-.1.5-.6.7-1.1.6l-14.6-3.9c-.5-.1-.7-.6-.6-1.1,0,0,0,0,0,0l5.1-19.1c.1-.5.6-.7,1.1-.6Z"/>
    <path class="st17" d="M51.2,34.5c.5.1.8.6.6,1.1,0,0,0,0,0,0l-5.1,19.1c-.1.5-.6.8-1.1.6,0,0,0,0,0,0L7.7,45.1c-.5-.1-.7-.6-.6-1.1,0,0,0,0,0,0l3.8-14.5c.1-.5.6-.8,1.1-.6h0l19,4.9c2.1.6,4-.4,4.6-2.5,0,0,0,0,0,0,.1-.5.6-.7,1.1-.6l14.6,3.9Z"/>
    <path class="st12" d="M18.1,5c-.4,0-.8.2-.9.7l-5.1,19.2c0,.2,0,.4,0,.6l5-18.9c.1-.4.5-.7.9-.7,0,0,.1,0,.2,0l38,10.3c.2,0,.4.2.6.4v-.3c0,0,0,0,0,0,.1-.5-.2-1-.6-1.1L18.3,5c0,0-.1,0-.2,0ZM11.8,28.8c-.4,0-.8.2-.9.7l-3.9,14.5h0c0,.2,0,.4,0,.6l3.8-14.2c.1-.4.5-.7.9-.7,0,0,.1,0,.2,0h0l19,4.9c2.1.6,4-.4,4.6-2.5h0c.1-.5.6-.7,1.1-.6l14.6,3.9c.3,0,.4.2.6.5v-.3c0,0,0,0,0,0,.1-.5-.2-1-.6-1.1l-14.6-3.9c-.5-.1-.9.1-1.1.6h0c-.6,2.1-2.5,3.1-4.6,2.5l-19-4.9h0c0,0-.1,0-.2,0Z"/>
  </g>
  <g>
    <path class="st10" d="M16.6,4.1c-.6,0-1.1.3-1.3.9L4,47.2c-.2.7.2,1.3.9,1.5l42.2,11.3c.7.2,1.3-.2,1.5-.9l11.3-42.2c.2-.7-.2-1.3-.9-1.5L16.9,4.1c0,0-.2,0-.2,0ZM28.5,26.1l9.5,2.5-2.5,9.5-9.5-2.5,2.5-9.5Z"/>
    <path class="st20" d="M16.6,3.1c-.6,0-1.1.3-1.3.9L4,46.2c-.2.7.2,1.3.9,1.5l42.2,11.3c.7.2,1.3-.2,1.5-.9l11.3-42.2c.2-.7-.2-1.3-.9-1.5L16.9,3.1c0,0-.2,0-.2,0ZM28.5,25.1l9.5,2.5-2.5,9.5-9.5-2.5,2.5-9.5Z"/>
    <path class="st12" d="M16.6,3.1c-.6,0-1.1.3-1.3.9L4,46.2c0,.3,0,.6,0,.8L15.4,5c.2-.6.7-1,1.3-.9,0,0,.2,0,.2,0l42.2,11.3c.4.1.7.4.8.7v-.2c.2-.7-.2-1.3-.8-1.5L16.9,3.1c0,0-.2,0-.2,0ZM37.7,28.5l-2.3,8.5-9.2-2.5-.2.9,9.5,2.5,2.5-9.5h-.2Z"/>
  </g>
</svg>