<?xml version="1.0" encoding="UTF-8" standalone="no"?>
<svg
   id="_图层_1"
   version="1.1"
   viewBox="0 0 64 64"
   width="64"
   height="64"
   sodipodi:docname="gtkorphan.svg"
   xml:space="preserve"
   inkscape:version="1.4 (e7c3feb100, 2024-10-09)"
   xmlns:inkscape="http://www.inkscape.org/namespaces/inkscape"
   xmlns:sodipodi="http://sodipodi.sourceforge.net/DTD/sodipodi-0.dtd"
   xmlns="http://www.w3.org/2000/svg"
   xmlns:svg="http://www.w3.org/2000/svg"><sodipodi:namedview
     id="namedview14"
     pagecolor="#ffffff"
     bordercolor="#999999"
     borderopacity="1"
     inkscape:showpageshadow="2"
     inkscape:pageopacity="0"
     inkscape:pagecheckerboard="0"
     inkscape:deskcolor="#d1d1d1"
     inkscape:zoom="10.6875"
     inkscape:cx="32"
     inkscape:cy="32"
     inkscape:window-width="1920"
     inkscape:window-height="939"
     inkscape:window-x="0"
     inkscape:window-y="34"
     inkscape:window-maximized="1"
     inkscape:current-layer="g15" /><!-- Generator: Adobe Illustrator 29.0.1, SVG Export Plug-In . SVG Version: 2.1.0 Build 192)  --><defs
     id="defs1"><style
       id="style1">
      .st0 {
        fill: #4f4f4f;
      }

      .st1, .st2, .st3, .st4, .st5, .st6 {
        display: none;
      }

      .st1, .st7 {
        fill: #de554c;
      }

      .st2, .st3, .st8, .st9, .st6 {
        isolation: isolate;
      }

      .st2, .st9, .st6 {
        opacity: .2;
      }

      .st3, .st10, .st6 {
        fill: #fff;
      }

      .st3, .st8 {
        opacity: .1;
      }

      .st11 {
        fill: #ffaa4f;
      }

      .st12 {
        fill: #f2dbb7;
      }

      .st13 {
        fill: none;
        stroke: #3f3f3f;
        stroke-width: 3px;
      }

      .st5 {
        fill: #69aa35;
      }

      .st14 {
        fill: #2898b5;
      }

      .st15 {
        fill: #e68673;
      }
    </style></defs><path
     class="st7"
     d="M47.5,64.1H13.8c-7.6,0-13.8-6.3-13.8-13.8V13.7C0,6.2,6.2,0,13.7,0h36.6c7.5,0,13.7,6.2,13.7,13.7v36.6c0,7.5-6.2,13.7-13.7,13.7h-2.9.1Z"
     id="path1"
     style="fill:#dfa46d;fill-opacity:1" /><g
     class="st4"
     id="g8"><ellipse
       class="st2"
       cx="32"
       cy="33.2"
       rx="32"
       ry="32"
       id="ellipse1" /><ellipse
       class="st5"
       cx="32"
       cy="32"
       rx="32"
       ry="32"
       id="ellipse2" /><path
       class="st8"
       d="M33.1,18.3c-6.8,0-12.3,4.5-16.2,8.7s-6.3,8.4-6.3,8.4c-.4.7-.4,1.6,0,2.4,0,0,8.6,13.6,24.8,13.6s8.8-1.9,11.5-4.4c2.4-2.3,3.9-5,4.9-7.4.9-.5,1.9-1,2.9-1.8,1.2-1,2.4-2.6,2.4-4.6s-1.5-3.7-2.9-4.4c-1-.5-1.9-.7-2.9-.8-2.6-4.1-8.1-9.6-18.2-9.6Z"
       id="path2" /><path
       class="st3"
       d="M32,0C14.3,0,0,14.3,0,32c0,.2,0,.4,0,.7C.3,15.2,14.5,1.2,32,1.1c17.4,0,31.6,13.9,32,31.3,0-.2,0-.3,0-.5C64,14.3,49.7,0,32,0Z"
       id="path3" /><path
       class="st0"
       d="M33.1,17.2c-6.8,0-12.3,4.5-16.2,8.7s-6.3,8.4-6.3,8.4c-.4.7-.4,1.6,0,2.4,0,0,8.6,13.6,24.8,13.6s8.8-1.9,11.5-4.4c2.4-2.3,3.9-5,4.9-7.4.9-.5,1.9-1,2.9-1.8,1.2-1,2.4-2.6,2.4-4.6s-1.5-3.7-2.9-4.4c-1-.5-1.9-.7-2.9-.8-2.6-4.1-8.1-9.6-18.2-9.6Z"
       id="path4" /><path
       class="st15"
       d="M48,28.6s6.9,0,6.9,3.4-6.9,5.7-6.9,5.7v-9.1Z"
       id="path5" /><path
       class="st12"
       d="M12.6,35.4s2.3-4,6-8,4.1-4,6.5-5.5c3.5,2.1,8,3.2,8,3.2l17.1,5.7,1.1,1.1s-2.3,16-16,16-22.9-12.6-22.9-12.6Z"
       id="path6" /><path
       class="st0"
       d="M33.1,19.4c-3.6,0-7,1.6-9.9,3.8-1,2-1.5,4.3-1.5,6.5,0,8.2,6.7,14.9,14.9,14.9,7.5,0,13.8-5.6,14.7-13-.7-2-4.7-12.2-18.2-12.2Z"
       id="path7" /><path
       class="st14"
       d="M32,38.9s4.6,1.1,6.9,1.1c4,0,9.1-4.6,9.1-4.6,0,0-3.4,6.9-9.1,6.9s-6.9-3.4-6.9-3.4Z"
       id="path8" /><circle
       class="st10"
       cx="30.9"
       cy="27.4"
       r="4.6"
       id="circle8" /></g><g
     id="g15"
     transform="matrix(1.0623782,0,0,1.041415,-4.214425,-1.9103154)"><path
       style="opacity:0.3;stroke-width:1.08503"
       d="M 27.660813,2.000003 V 26.08251 H 4.0000004 V 39.218424 H 27.660813 V 63.300932 H 40.56671 V 39.218424 H 64.227523 V 26.08251 H 40.56671 V 2.000003 Z"
       id="path2-2" /><circle
       style="opacity:0.2"
       cx="48"
       cy="47"
       id="circle2"
       r="16" /><circle
       style="fill:#8c45c7"
       cx="48"
       cy="46"
       r="16"
       id="circle3" /><path
       style="fill:#ffffff"
       d="m 40,38 v 3.770834 L 44.229168,46 40,50.229168 V 54 h 3.770834 L 48,49.770836 52.229168,54 h 3.770834 V 50.229168 L 51.770834,46 56.000002,41.770834 V 38 H 52.229168 L 48,42.229166 43.770834,38 Z"
       id="path3-9" /></g></svg>
