<?xml version="1.0" encoding="UTF-8"?>
<svg id="_图层_1" xmlns="http://www.w3.org/2000/svg" version="1.1" viewBox="0 0 64 64" width="64" height="64">
  <!-- Generator: Adobe Illustrator 29.0.1, SVG Export Plug-In . SVG Version: 2.1.0 Build 192)  -->
  <defs>
    <style>
      .st0 {
        fill: #0068b6;
      }

      .st1, .st2 {
        fill: #fff;
      }

      .st3 {
        fill: #d81313;
      }

      .st4 {
        fill: #333c4f;
      }

      .st2, .st5 {
        display: none;
      }

      .st6 {
        fill: #1296db;
      }

      .st7 {
        fill: #3296fa;
      }

      .st8 {
        fill: #0d7ef2;
      }

      .st9 {
        fill: #ff5000;
      }
    </style>
  </defs>
  <path class="st1" d="M50.5,64H13.9c-7.6,0-13.9-6.2-13.9-13.7V13.7C0,6.2,6.3,0,13.8,0h36.6c7.5,0,13.7,6.2,13.7,13.7v36.6c0,7.5-6.2,13.7-13.7,13.7h.1Z"/>
  <g class="st5">
    <path class="st9" d="M50.4,0H13C7,0,0,5.9-.1,12.7v38.6c.1,6,5.5,12.7,13.9,12.7h36.5c6.4,0,13.5-5.3,13.7-13l-.3-38.8C63.7,5.5,57.4.1,50.3.1h0ZM18.1,16.2c2.1,0,3.8,1.5,3.8,3.4s-1.7,3.4-3.8,3.4-3.8-1.5-3.8-3.4,1.7-3.4,3.8-3.4ZM21.3,36.9c-1,3.1-.8,2-4.8,10.7l-5.8-3.6s6.5-5.9,7.8-8.6c1.4-2.8-1.6-4.4-1.6-4.4l-4.5-2.8,2.4-3.7c3.4,2.5,3.6,2.7,5.9,5s1.5,4.2.5,7.4h.1ZM52.9,41c-1.1,10.6-15,6.7-15,6.7l.8-3,3.2.7c5.9.4,5.4-4.8,5.4-4.8v-15.1c0-5.7-5.4-6.3-15.1-2.8l2.3.6c-.2.7-.9,1.7-1.9,2.9h13v2.6h-7.3v3.3h7.3v2.6h-7.3v5.5c1.1-.4,2.1-.9,3-1.5l-.6-2.4,3.5-1.1,2.9,7-4.2,1.8-.8-2.8c-1.9,1.5-5.8,3.6-12.7,3.4-7.4.2-5.5-8.3-5.5-8.3h5.4c0,1.1-.5,2.9.1,3.8.5.8,1.8.9,2.6,1h.3v-6.3h-7.5v-2.6h7.5v-3.3h-1.9c-1.7,1.8-3.2,3.3-3.2,3.3l-2.3-2c1.6-1.7,3.2-4.4,4.2-6.2-.8.3-1.7.7-2.5,1.1-.9,1.1-1.9,2.2-2.9,3.2l-3.7-2.1c3.9-3.3,6-10.4,6-10.4l5.4,1.5s-.5,1-1.4,2.6c21.5-6.1,22.8,3.7,22.8,3.7,0,0,1.4,6.8.3,17.4h-.2Z"/>
  </g>
  <g class="st5">
    <path class="st7" d="M49.8,0H14.2C6.4,0,0,6.4,0,14.2v35.5c0,7.9,6.4,14.2,14.2,14.2h35.7c7.8,0,14.1-6.3,14.1-14.1V14.3c0-7.9-6.4-14.3-14.3-14.3h0ZM48.8,26.6c0,.3-.3.8-.5,1.3h0c-1.5,3.2-5.4,9.5-5.4,9.5h0l-1.2,1.9h5.5l-10.5,13.9,2.4-9.5h-4.3l1.5-6.3c-1.2.3-2.7.7-4.4,1.3,0,0-2.3,1.3-6.6-2.6,0,0-2.9-2.6-1.2-3.2.7-.3,3.5-.6,5.7-.9,2.9-.4,4.8-.6,4.8-.6,0,0-9.1.1-11.3-.2-2.2-.3-4.9-4-5.5-7.1,0,0-.9-1.7,1.9-.9,2.8.8,14.6,3.2,14.6,3.2,0,0-15.3-4.7-16.3-5.8s-3-6.2-2.7-9.4c0,0,.1-.8.9-.6,0,0,11.3,5.2,19,8,7.8,2.9,14.5,4.3,13.6,7.9h0Z"/>
  </g>
  <g class="st5">
    <path class="st1" d="M48.8,18.3c2.3,1.8,4.1,4.1,5.5,6.6,1.2,2.5,1.8,5.3,1.7,8,0,2.9-.7,5.7-1.8,8.3-1.1,2.5-2.7,4.7-4.7,6.6-2.1,1.9-4.5,3.5-7.2,4.5-3,1.2-6.1,1.9-9.3,2-3.2.2-6.4,0-9.5-1-2.8-.8-5.5-2.1-7.9-3.9-2.2-1.7-4.1-3.8-5.5-6.3s-2.2-5.3-2.3-8.2c0-2.1,0-4.1.8-6.1.6-1.8,1.5-3.6,2.6-5.1,1-1.5,2.2-2.9,3.5-4.2,1.2-1.1,2.4-2.2,3.7-3.2,2-1.3,2.8-3.9,1.9-6.2-.1-.5-.3-.9-.5-1.3-.2-.3-.3-.7-.5-1s-.3-.5-.4-.8v-.5c.3-.2.7,0,1,0,.6.2,1.2.5,1.8.8.7.3,1.4.7,2.1,1s1.3.7,1.9,1c.7.4,1.3.7,1.8,1,.6.3,1.2.5,1.8.7.6.2,1.3.3,2,.5l2.6.7c1.3.3,2.6.7,3.9,1,1.3.3,2.6.7,3.9,1.2,1.2.5,2.5,1,3.6,1.6,1.2.6,2.3,1.3,3.4,2.1h0v.2ZM36.1,38c.5,0,.9-.3,1.2-.7.4-.5.7-1,.9-1.6.3-.7.4-1.5.5-2.3,0-.9,0-1.8,0-2.7-.2-1.8-.9-3.6-1.9-5.2-.5-1-1.6-1.6-2.7-1.6-.8.2-1.4.7-1.7,1.5-.4,1.1-.6,2.3-.5,3.6.9.2,1.8.4,2.5.5s1.3.3,1.9.4.9.2.9.2c.3,0,.3.2,0,.3l-.8.8c-.4.5-1,1-1.5,1.5l-2.1,2.2c.3.9.8,1.7,1.4,2.4.4.5,1.1.8,1.8.7h0ZM49.8,35.6c.9-.4,1.6-1.1,1.9-2,.6-1.6.7-3.3.4-5,0-.9-.3-1.7-.5-2.6-.2-.7-.5-1.4-.8-2.1-.3-.5-.6-1-1.1-1.4-.3-.3-.8-.4-1.2-.4-.9.2-1.5.9-1.7,1.8-.4,1.1-.6,2.3-.5,3.5.8.1,1.6.3,2.2.4.6.1,1.1.2,1.6.3s.8.1.8.1c.2,0,.2.2,0,.3l-.7.7c-.4.4-.9.8-1.4,1.2-.6.5-1.2,1.1-1.9,1.7.3.9.7,1.8,1.2,2.6.3.6.9.9,1.5.8h.1Z"/>
  </g>
  <g class="st5">
    <path class="st3" d="M59.8,4.2C55.6,0,51.2,0,44.3,0h-24.5c-7,0-11.4,0-15.5,4.2C0,8.4,0,12.8,0,19.7v24.5c0,7,0,11.4,4.2,15.5,4.2,4.2,8.6,4.2,15.5,4.2h24.5c7,0,11.4,0,15.5-4.2,4.2-4.2,4.2-8.6,4.2-15.5v-24.5c0-7,0-11.4-4.2-15.5h0ZM51.1,48.1c-.4,1.1-1.1,2.6-2.7,4.3-2.7,3-6.9,4.2-9.4,4.7-1.3.3-3.2.4-5.3.5h-2.2c-2.1,0-4.1-.3-5.3-.5-2.6-.5-6.7-1.7-9.4-4.7-1.6-1.7-2.2-2.7-2.7-4.3s-.7-1.9-.7-3.9c0-5.6,4.3-8.3,9.1-8.3h20.3c4.8,0,9.1,2.7,9.1,8.3s-.3,2.9-.7,4h-.1ZM54.3,28.3c.5.8,2.3.5,2.3.5,0,0-1.3,3.7-4.2,3.4-1.3,0-2.4-.5-3.2-1v3.3c0,1.1.3,2.4.4,3.1-1.7-1.8-4.2-2.4-6.8-2.4h-20.3c-2.6,0-5.1.7-6.8,2.4.1-.6.3-1.6.4-2.6v-3.6c-.8.4-1.8.7-2.9.8-3,.3-4.2-3.4-4.2-3.4,0,0,1.7.4,2.3-.5,1.1-1.7,3.2-2.2,4.7-2.2-8.6-4.3-7.8-12.8-7.8-12.8,0,0,.4-2.7,1.4-2.9,1.2-.2,1.5,1,1.8,2.3.9,4,5.3,5.7,8.5,6.5,1.9-2.3,4.7-3.8,8.7-3.8h.8c-.8-1.9,1-3.6.9-3.2-.9,2.9,2,3.1,1.9,2.9-1.2-3.9,1.6-4.9,1.5-4.7-1.5,2.1.5,4.1,1.7,5h.9c3.9,0,6.8,1.5,8.8,3.8,3.2-.7,7.8-2.4,8.7-6.5.3-1.3.6-2.5,1.8-2.3,1,.2,1.4,2.9,1.4,2.9,0,0,.9,8.5-7.7,12.7,1.5,0,3.8.4,5,2.2h0Z"/>
    <path class="st6" d="M45.6,37.7c-1-.3-2,0-2.6.7,0,0,0,0,0,.2s0,.3.2.4c0,0,.3,0,.3,0,.5-.6,1.3-.9,2.1-.6,1,.3,1.5,1.4,1.2,2.4,0,0,0,.3-.2.4h0c0,0,0,.3.2.4,0,0,.3,0,.4-.2h0c0-.2,0-.3.2-.4.4-1.3-.2-2.6-1.5-3.1h-.2ZM42.5,29c-.8-.6-1.8-1.1-3.6-1.1s-2.6,1.1-3,1.5.3,1,.7.4c.7-.5,1.3-1,2.8-.9,1.3,0,2.1.3,2.6.6.5.2,1.1-.1.4-.6h0ZM28.3,29.6c-.4-.5-1.6-1.6-3.2-1.6s-2.3.6-3.1,1.1c-.6.5,0,.9.4.6.5-.3.8-.7,2.1-.7s2.5.5,3.1,1c.4.2,1,0,.6-.5h.1ZM21.8,38.7c-.6-.8-1.6-1.2-2.6-.9-1.3.4-2,1.7-1.6,3,0,.2.1.3.2.5,0,0,.1.2.3.2s.3,0,.3-.3v-.2c0,0-.1-.2-.2-.4-.3-1,.3-2,1.3-2.3.8-.2,1.7,0,2.1.8h.2c.2,0,.3,0,.3-.3s0-.2-.2-.3h0v.2Z"/>
  </g>
  <g class="st5">
    <path class="st8" d="M62.6,12.1c1.9,10.6,1.9,29,0,39.8-1.3,7.7-2.9,9.4-10.7,10.8-10.7,1.7-28.8,1.9-39.7,0-7.7-1.4-9.4-2.9-10.7-10.7-2-10.7-2-29,0-39.9C2.8,4.5,4.4,2.8,12.2,1.4c10.6-1.9,28.9-1.9,39.7,0,7.7,1.4,9.4,2.9,10.7,10.7ZM28.3,12.8s-4.1-.2-6.7,3.2-.7,8.5.6,11.2c1.2,2.7,7.8,13.1,8,13.3.2.2.5,0,.5,0,0-.2.7-15.1.2-18.8-.6-3.7-2.3-8.4-2.6-8.8h0ZM14.2,19.8c-.5,0-3.8,3.4-4.1,6.7-.3,3.3,1.1,5.4,5,8,3.9,2.8,13.3,7.9,13.4,7.5.2-.4-3.6-7.2-6.7-12.1s-7.1-10.2-7.6-10.1ZM15.4,50c2.8,1.3,7.2-1.6,8.4-2.4l3.2-2.5-16,.4s1.5,3.2,4.3,4.4h0ZM15.8,37c-2.9-1.4-8.8-4.7-9-4.7s-1.1,4.2.7,7.3c1.8,3.1,5.4,4,7.1,4.3,1.9.3,12.7,0,12.7,0,0-.2-8.6-5.4-11.5-6.8h0ZM42.4,16c-2.6-3.4-6.7-3.2-6.7-3.2-.3.4-2,5.1-2.6,8.8s0,18.6.2,18.8c0,.2.3.3.5,0,.2-.2,6.8-10.7,8-13.3,1.2-2.7,3.2-7.8.6-11.2h0ZM57.1,32.3c-.2,0-6.1,3.2-9,4.7-2.9,1.4-11.4,6.6-11.5,6.8,0,.2,10.8.3,12.7,0,1.6-.3,5.2-1.2,7.1-4.3,1.8-3.1,1-7.2.7-7.3h0ZM40.1,47.5c1.2.8,5.6,3.7,8.4,2.4,2.8-1.3,4.3-4.4,4.3-4.4l-16-.4,3.2,2.5h0ZM53.9,26.4c-.3-3.3-3.7-6.6-4.1-6.7-.5,0-4.5,5.2-7.6,10.1s-6.9,11.7-6.7,12.1,9.5-4.7,13.4-7.5c3.9-2.6,5.3-4.8,5-8Z"/>
  </g>
  <path class="st2" d="M12.8,18.9c.1,2.7,2.2,4.3,2.2,4.3,3.3,3.2,11.3,7.3,13.1,8.2h.2v-.2c-3.2-6.9-7.3-13.5-12-19.5,0,0-3.8,3.6-3.5,7.2M13.6,34.5c1.4,2.6,3.9,4.6,6.4,3.9,1.7-.4,5.7-3.2,7-4.1h0v-.2s0,0-.2,0h0l-13.3.5h.1ZM10.5,28.5c.8,1.8,2.3,3.2,4.2,4,.8.3,1.7.5,2.5.6h10.1v-.2c-5.8-3.9-17.1-10-17.1-10-.6,1.9-.5,3.9.4,5.7M27.9,6.1c-.7,0-1.9.4-1.9.4-2.1.5-3.7,2.1-4.3,4.1-.6,2,0,4.2,0,4.2,1.2,5.2,6.9,13.7,8.2,15.5h.2s.1,0,.1-.2h0c1.8-18.2-1.6-23.6-2-24.1h-.3ZM34.5,6.1c-.3.5-3.8,5.9-2,24.1,0,0,0,.1,0,.1h.2c1.3-1.8,7-10.3,8.2-15.5,0,0,.6-2.5,0-4.2-.7-2-2.3-3.6-4.4-4.1,0,0-.9-.2-1.9-.4h-.3.1ZM35.7,34s-.2,0-.2.2h0c1.3,1,5.1,3.7,7,4.2,0,0,3.4,1.2,6.4-3.9l-13.3-.5h0ZM35.4,32.8h0v.2h10.3c.8,0,1.6-.2,2.3-.5,1.9-.7,3.4-2.2,4.3-4.1.4-1,.7-2.1.7-3.2h0c0-.9,0-1.7-.4-2.5,0,0-11.3,6.1-17.1,10M34.3,31.2h0v.2h.2c1.9-.9,9.8-5,13.1-8.2,0,0,2.1-1.7,2.2-4.3.2-3.7-3.5-7.2-3.5-7.2-4.7,6-8.8,12.5-12,19.4M14.8,42.3v2.8h-3.5v-2.8h-1.6v6.9h1.6v-2.9h3.5v2.9h1.6v-6.9s-1.6,0-1.6,0ZM19.3,46.4c0,1.2.4,1.7,1.7,1.7s1.7-.5,1.7-1.7v-4.2h1.6v4.2c0,.9-.1,1.5-.4,1.9-.6.7-1.5,1-2.8,1s-2.2-.3-2.8-1c-.3-.4-.4-1-.4-1.9v-4.2h1.6v4.2h-.2ZM29.4,42.3l3.2,6.9h-1.8l-.7-1.7h-3.3l-.7,1.7h-1.7l3.2-6.9h1.8ZM27.4,46.3h2.2l-1.1-2.7-1.1,2.7ZM33.3,42.3l1.7,5.3,1.5-5.3h1.9l1.7,5.3,1.6-5.3h1.6l-2.3,6.9h-1.9l-1.6-5.2-1.4,5.2h-1.9l-2.5-6.9h1.7,0ZM45.5,45.1h4.4v1.2h-4.4c0,1.2.5,1.7,1.8,1.7h2.6v1.2h-2.7c-.9,0-1.6,0-2.3-.6-.8-.6-1.2-1.5-1.2-2.7,0-2.5,1.1-3.6,3.5-3.6h2.6v1.2h-2.6c-1.1,0-1.7.5-1.8,1.6M51.2,42.3h1.7v6.9h-1.7v-6.9h0Z"/>
  <g class="st5">
    <path class="st0" d="M5.4,23.8c0,.3,0,.7,0,1,0,.5,0,1-.5.9-.1,0-.2.1-.2.3,0,.7,0,1.3.3,1.8.1.1.2.3.3.4.7.6,1.1,1.8.9,3-.1.5.1.9.5.8.7-.2,1.4.3,1.8,1.3,0,0,0,.2.1.2.5.8.5.8.9,0,.2-.2.3-.5.5-.8.3-.6.8-.9,1.3-.8.4,0,.6-.1.6-.7-.2-1.1.1-2.2.8-2.8.2-.2.3-.4.4-.6.5-.5.4-1.2.4-1.8,0-.3-.2-.4-.4-.4-.3,0-.4-.3-.4-.7,0-1,0-1.9,0-2.9,0-.7.4-.4.6-.5.3-.1.2.2.2.5,0,.4,0,.9.3,1.1.2.2.1.5.2.7,0,.2,0,.5.3.5s.2-.3.3-.5c0-.7.5-1.2.4-2,0-.4.3-.2.5-.2s.3,0,.3.4c0,1,0,2.1,0,3.1,0,.4-.2.4-.4.4-.3,0-.5.2-.4.6,0,.1,0,.2,0,.3.2,1.1-.2,2.3-.9,2.8-.2.2-.4.5-.6.8-.2.2-.2.6-.1.9,0,.4,0,.7-.3.8-.4.2-.3.6-.3,1,0,.9,0,.9-.6.9q-1.4,0-1.3,1.9t1,1.5c.2,0,.4,0,.5,0,.2,0,.3.1.4.4,0,0,0,0,0,0,0,.2,0,.4-.2.5,0,0,0,0-.1,0-.7,0-1.4,0-2,0-.3,0-.4-.2-.4-.7,0-.7,0-1.4,0-2,0-.2,0-.4,0-.5-.2-.1-.2,0-.3.2-.2.2-.3.5-.5.8-.2.4-.4.3-.6,0-.1-.2-.2-.5-.4-.7,0-.2-.2-.3-.3-.2-.1,0-.1.3-.1.4,0,.7,0,1.4,0,2.1,0,.5-.1.7-.5.7,0,0-.2,0-.3,0-.6,0-.6,0-.6-.9,0-.2,0-.5-.2-.5-.3,0-.3-.3-.3-.6s0-.7-.4-.7c-.3,0-.3.4-.3.7,0,.4,0,.8,0,1.2s0,.7-.4.7-.3-.3-.3-.7c0-1.5,0-3,0-4.5-.2-.9-.3-1.7-.3-2.6,0-.2-.2-.4-.3-.5,0-.2-.2-.3-.3-.4-.7-.6-1.1-1.9-.9-3,0-.5,0-.8-.4-.8s-.3-.2-.3-.6c0-1,0-2,0-2.9,0-.4.1-.5.4-.5s.4,0,.4.5c0,.4.1.9.4,1.1.2.2,0,.5.2.7,0,.2.1.4.3.4.1,0,.3-.2.2-.4,0,0,0,0,0,0,0-.3,0-.6.3-.8.3-.2.2-.6.2-.9s0-.5.3-.5c.2,0,.5,0,.5.5,0,.5,0,1,0,1.5M6.1,34.7h0s.2,0,.2,0c.1,0,.3,0,.4-.2s-.1-.4-.3-.5c-.2,0-.4,0-.6,0-.1,0-.2.1-.2.3,0,0,0,0,0,0,0,.2,0,.3.2.4.1,0,.3,0,.4,0M27.8,37c-.7-.1-1.4-.2-2,0-.3,0-.3-.3-.5-.5-.5-1.2-1-2.4-1.5-3.6-.1-.4-.3-.7-.6-.9,0,0-.1,0-.2,0,0,0,0,.2,0,.3.2,1.5.1,3,.2,4.5,0,.3,0,.5-.3.4-.5-.1-1-.1-1.4,0-.3,0-.4-.2-.4-.6.1-2.7,0-5.4,0-8.1,0-.8,0-1.7,0-2.5,0-.4,0-.5.3-.4.7.1,1.3,0,2,0,.8-.1,1.6,0,2.3.3.7.2,1.3,1.1,1.3,2.2,0,1-.2,2.1-.8,2.7-.2.3-.5.4-.8.6-.4.2-.4.4-.2.8.8,1.5,1.6,3.1,2.3,4.7,0,.1.1.3.1.5M23.2,28.7h0v.8c0,.3,0,.5,0,.8,0,.7.1.8.6.7.9-.1,1.6-1.3,1.5-2.6,0-1.5-.6-2.1-1.5-2-.3,0-.5.2-.5.7,0,.5,0,1.1,0,1.6M63.2,27.5c-.6.7-1.1,1.5-1.7,2.2-.3.4-.6.9-.9,1.3-.2.2-.2.5,0,.8,0,0,0,0,0,0,.8,1.4,1.5,2.9,2.3,4.3,0,0,0,.1.1.2,0,.2.2.4.1.6-.1.2-.3,0-.5,0-.2,0-.4,0-.6,0-.4.2-.9-.1-1.1-.7-.4-1-.9-2-1.4-3,0-.2-.2-.5-.4-.4-.2,0-.1.4,0,.6,0,1,0,2,0,3,0,.5,0,.6-.4.5-.3,0-.7,0-1,0-.2,0-.3,0-.3-.4,0-2.8,0-5.6,0-8.4,0-1,0-1,.7-.9.2,0,.3,0,.5,0,.5-.2.5.1.5.7,0,1,0,2-.1,3.1,0,.1,0,.3,0,.4.1,0,.2,0,.3-.2.3-.4.5-.8.7-1.2.5-.8,1-1.7,1.5-2.5,0-.1.2-.3.3-.3.3,0,.7,0,1,0v.2M36.6,34.1q-1.4,0-1.8,2c-.2.9-.3,1-.9,1-.3,0-.3-.1-.2-.5.3-.9.6-1.8.9-2.7.7-2,1.3-4.1,1.9-6.2,0-.4.2-.6.5-.6s.6,0,.7.6c.5,1.8,1,3.5,1.5,5.3.4,1.2.7,2.4,1.1,3.6.1.4.1.6-.2.5-.3-.1-.7-.1-1,0-.3,0-.5-.1-.6-.5,0,0,0,0,0,0-.1-.6-.3-1.1-.4-1.7,0-.5-.3-.8-.7-.7,0,0,0,0,0,0-.2,0-.5,0-.7,0M36.6,33.2c.3,0,.5,0,.8,0,.2,0,.3-.1.2-.4-.3-.8-.5-1.5-.7-2.3,0-.2,0-.4-.2-.4s-.2.2-.2.4c-.1.5-.3,1-.4,1.5-.4,1.3-.4,1.3.6,1.3M53.8,34.3c0,.2,0,.6,0,1,0,.4,0,.7.4.7.6,0,1.1,0,1.7-.1.3,0,.4,0,.4.5,0,.4,0,.7-.4.7-.8,0-1.5,0-2.3,0-.4,0-.8,0-1.1,0-.3,0-.4-.1-.4-.5,0-2.1.2-4.3,0-6.4,0-.7,0-1.4,0-2.1,0-.6.1-.8.5-.7.9.1,1.8.2,2.7.1.2,0,.3,0,.5,0,.3-.1.4,0,.4.5,0,.6,0,.8-.5.7-.5,0-1-.1-1.5-.2-.2,0-.4,0-.5.4,0,0,0,.1,0,.2,0,.7,0,1.3-.1,2,0,.5.3.6.6.6.5,0,1.1-.1,1.6,0,.2,0,.4,0,.3.4,0,.3,0,.8-.4.7-.5-.1-1.1-.1-1.6-.2-.2,0-.4.1-.4.5,0,.4,0,.9,0,1.5M31.8,37c-.9-.1-1.8-.1-2.7,0-.3,0-.4-.2-.4-.6,0-2.2.1-4.5,0-6.7,0-.6,0-1.3,0-1.9,0-.5,0-.6.4-.6,1.2.2,2.3.2,3.5,0,.2,0,.2,0,.2.3,0,.8,0,.9-.5.9-.5,0-.9,0-1.4-.1-.4,0-.5.2-.5.7,0,.6,0,1.1,0,1.7,0,.7.1.8.6.8.5,0,1,0,1.5,0,.5,0,.4.4.4.8,0,.4-.2.5-.4.4-.5-.2-1.1,0-1.6-.2-.3,0-.4.2-.4.6,0,.8,0,1.6,0,2.4,0,.5.1.7.5.7.6,0,1.1,0,1.7-.1.3,0,.4.1.4.6,0,.4,0,.7-.4.6-.2,0-.5,0-.7,0M47.5,32.7c0-1.2,0-2.4,0-3.6,0-.7,0-.8-.6-.8-.3,0-.7,0-1,.1-.3,0-.4-.1-.4-.6s0-.7.4-.6c1.3.1,2.7.2,4,.1.2,0,.4,0,.5,0,.2,0,.4-.1.5.1.1.3.1.6,0,.9,0,.3-.3.2-.5.2-.3,0-.6-.1-.9-.1s-.4.2-.4.6c0,2.4,0,4.8,0,7.2,0,.9,0,.9-.6.8-.2,0-.5,0-.7,0-.3,0-.4,0-.4-.6,0-1.2,0-2.5,0-3.7M44.6,37c-.9,0-1.8,0-2.6,0-.4.1-.5-.2-.4-.7,0-2,0-4,0-6.1,0-.8,0-1.6,0-2.4,0-.6.1-.7.5-.6.3,0,.5,0,.8,0,.4-.1.5.1.5.6-.2,2.4,0,4.8,0,7.2,0,.8,0,.8.6.8.5,0,1.1,0,1.6-.1.4,0,.4.3.4.6,0,.4,0,.6-.4.6-.3,0-.5,0-.8,0"/>
    <path class="st0" d="M8.9,31.4c-.2,0-.5,0-.7,0-.6,0-.8-.2-.7-1,0-.7,0-1.3-.3-1.8-.2-.4-.1-.8.1-1.1.2-.3.6-.4.8,0,0,0,0,0,0,0,.2.3.3.8.1,1.1,0,0,0,0,0,0,0,.1-.2.3-.2.4-.4,1-.1,1.7.7,1.7.3,0,.6,0,.9,0s.4-.2.5-.6c0-.5,0-1.1-.3-1.5-.2-.4-.1-1,.1-1.3.3-.3.7-.2.9.2,0,0,0,0,0,0,.2.3.1.7,0,1-.3.4-.4,1-.3,1.5,0,1,0,1.2-.8,1.2-.3,0-.5,0-.8,0M14.7,32.8c1.2-.5,1.7,1,2.2,2.1.3.7.1,1.6,0,2.4,0,.1-.1.3-.2.2,0,0,0,0,0,0-.1,0-.2-.2-.2-.4,0-.3,0-.7,0-1,0-.5-.1-1.1-.4-1.4-.2-.2-.3-.4-.5-.7-.2-.4-.6-.7-1-.6-.3,0-.6,0-.9,0-.1,0-.3,0-.3-.3,0-.3.2-.4.3-.4.3,0,.6,0,1,0M3.4,32.7h.8c.1,0,.3,0,.3.3,0,.3-.1.4-.3.4-.4,0-.8,0-1.1,0-.3,0-.6.1-.8.5-.2.4-.4.7-.7,1-.2.4-.2.8-.2,1.3,0,.3,0,.7,0,1,0,.2,0,.3-.2.3,0,0,0,0,0,0-.2,0-.3,0-.3-.3,0-.7,0-1.4,0-2.1,0-.2,0-.4.2-.5.2-.2.4-.5.5-.8.4-.9,1.1-1.3,1.8-1.1"/>
    <path class="st0" d="M16.1,37.1c0,.3,0,.5,0,.8s0,.5-.2.5c-.2,0-.3-.3-.3-.5,0-.1,0-.3,0-.4,0-1.4-.7-2.6-1.7-2.6,0,0,0,0-.1,0h-.2c-.2,0-.2-.2-.2-.4s.1-.3.2-.3c.9-.3,1.8.2,2.2,1.2.2.5.3,1.1.2,1.7M1.7,37c-.2-1.3.5-2,1.1-2.7.4-.4,1-.2,1.5-.1.2,0,.2.3,0,.4,0,0-.2.1-.3.1-.6,0-1.1.3-1.4,1-.3.4-.5,1.1-.4,1.7,0,.1,0,.2,0,.3,0,.3,0,.6-.2.6s-.2-.4-.2-.6v-.8"/>
    <path class="st0" d="M15.3,38v.8c0,.2,0,.5-.2.5-.2,0-.3-.2-.3-.4,0,0,0,0,0,0,0-.3,0-.6,0-1,0-.8-.4-1.5-.9-1.6,0,0,0,0,0,0-.2,0-.4,0-.4-.4s.3-.3.4-.3c.8,0,1.4.7,1.5,1.8,0,0,0,.2,0,.3v.4h0M2.6,37.9c0-.6,0-1.3.4-1.8.3-.5.8-.7,1.2-.5.1,0,.3,0,.3.3,0,.2-.2.2-.3.2-.9.3-1.2.7-1.2,2,0,.3,0,.5,0,.8,0,.2,0,.3-.2.3,0,0,0,0,0,0-.1,0-.2-.1-.2-.3v-1"/>
    <path class="st0" d="M4.1,36.8c.1,0,.3,0,.3.2,0,.1,0,.3,0,.4-.5.5-.4,1.2-.4,1.9,0,.3.1.9-.3.9-.4,0-.2-.6-.3-.9,0-.5,0-1.1,0-1.6,0-.5.3-.7.6-.8M14.3,38.8v1.1c0,.2,0,.3-.2.3-.2,0-.2-.2-.2-.4,0-.4,0-.8,0-1.2s0-.9-.4-1.1c-.2-.1-.3-.3-.2-.6.1-.2.4-.3.5-.1.3.2.4.5.4.9v1h0"/>
  </g>
  <path class="st4" d="M58.9,30.2c-.1-.5-1.1-1.7-1.1-1.7l.7-.7c.2.2,1.1,1.8,1.1,1.8l-.7.7h0ZM58.5,32.2c.2.2,1.1,1.8,1.1,1.8l-.7.7c-.1-.5-1.1-1.7-1.1-1.7l.7-.7ZM60.6,30.5v-3.2h-3.7s0,1.5,0,3.2h3.7ZM61.4,30.5h1.2v1.1h-1.2v4.3c0,.8-.6,1-.6,1h-1.1l-.2-1.1s.7,0,.9,0c.2,0,.2-.3.2-.3v-3.9h-3.7v1.7c0,2.3-1.5,3.5-1.5,3.5l-.7-.8c1.2-.8,1.4-2.9,1.4-2.9v-1.6h-1.2v-1.1h1.2v-4.3h1.8c.1-.4.2-.8.3-1.3l.9.3s-.1.5-.2,1h2c.4,0,.5.4.5.8,0,0,0,3.4,0,3.4ZM49.3,26.8c-.1,1.6-1,3.2-1,3.2l.8,1.5-.5.9-.5-1.1v5.6h-.7v-5.4c-.1.2-.7.9-.7.9l-.6-.9c1.2-.9,2.1-3.7,2.1-3.7h-1.8v-1h1.4c-.2-.4-.6-1.2-.6-1.2l.6-.6c.2.4.2.4.7,1.5l-.4.4s1.2,0,1.2,0ZM52.3,29.6h1.2v-1.8h-1.2v1.8ZM52.3,32.4h1.2v-1.8h-1.2v1.8ZM50.4,32.4h1.2v-1.8h-1.2v1.8ZM50.4,29.6h1.2v-1.8h-1.2v1.8ZM53.7,26.8c.2,0,.5.1.5.7v6.2h-.8v-.2h-1.2v3.5h-.8v-3.5h-1.2v.2h-.8v-6.9h0s1.9,0,1.9,0v-1.8h.8v1.8s1.5,0,1.5,0ZM29.1,29.9h4.3v-2c0-.8-.4-1.2-1.2-1.2h-3s0,3.2,0,3.2ZM33.2,31.9h-4.1v3.2h5.9v1.9h-5.9c-.7,0-1.9-.8-1.9-2.3v-7.1c0-1.4.6-2.5,1.8-2.6h4.2s1.7.2,1.7,2.6v2.7s-.1,1.7-1.7,1.6h0ZM37.6,29.9h4.3v-2c0-.8-.4-1.2-1.2-1.2h-3s0,3.2,0,3.2ZM41.6,31.9h-4.1v3.2h5.9v1.9h-5.9c-.7,0-1.9-.8-1.9-2.3v-7.1c0-1.4.6-2.5,1.8-2.6h4.2s1.7.2,1.7,2.6v2.7s-.1,1.7-1.7,1.6h0ZM1,36.9v-12h1.7v5h4.8v-5h1.7v12h-1.7v-5H2.7s0,5,0,5c0,0-1.7,0-1.7,0ZM15.8,31.9h-4.3v3.2h3.1c.4,0,1.2-.6,1.2-1.4v-1.8h0ZM16.4,24.9s1.1,0,1.1,1.4v10.6h-1.7v-.7c-.1.6-1.1.7-1.6.7h-2.5c-.8,0-1.9-.9-1.9-2.2v-2.6c0-1.3.8-2.1,1.8-2.1h4.1v-3.2h-5.1v-1.8h5.7ZM20.8,24.9h5.6v1.8h-5.1c-.6,0-1.1.7-1.1,1.5v.3c0,.8.4,1.4,1,1.4h2.9c1.2,0,2.3,1.4,2.3,3.1v.9c0,1.7-1,3-2.2,3h-5.6v-1.9h5.2c.6,0,1.1-.7,1.1-1.4v-.3c0-.8-.5-1.4-1-1.4h-3c-1.2,0-2.3-1.4-2.3-3.1v-.9c0-1.7,1-3,2.3-3Z"/>
</svg>