<?xml version="1.0" encoding="UTF-8"?>
<svg id="_图层_1" xmlns="http://www.w3.org/2000/svg" version="1.1" viewBox="0 0 64 64" width="64" height="64">
  <!-- Generator: Adobe Illustrator 29.0.1, SVG Export Plug-In . SVG Version: 2.1.0 Build 192)  -->
  <defs>
    <style>
      .st0, .st1, .st2 {
        display: none;
      }

      .st0, .st1, .st3, .st4 {
        isolation: isolate;
      }

      .st0, .st4 {
        opacity: .2;
      }

      .st1 {
        fill: #fff;
      }

      .st1, .st3 {
        opacity: .1;
      }

      .st2, .st5 {
        fill: #00695c;
      }

      .st6 {
        fill: #b5b5b5;
      }

      .st7 {
        fill: #7cb342;
      }
    </style>
  </defs>
  <path class="st5" d="M50.3,64H13.8C6.2,64,0,57.8,0,50.3V13.7C0,6.2,6.2,0,13.7,0h36.5c7.5,0,13.7,6.2,13.7,13.7v36.6c0,7.5-6.2,13.7-13.7,13.7h0Z"/>
  <g>
    <path class="st0" d="M3.3,1.1h57.5c1.8,0,3.2,1.4,3.2,3.2v57.6c0,1.8-1.4,3.2-3.2,3.2H3.3c-1.8,0-3.2-1.4-3.2-3.2V4.3C0,2.5,1.5,1.1,3.3,1.1Z"/>
    <rect class="st2" x="0" width="63.9" height="64" rx="3.2" ry="3.2"/>
    <path class="st4" d="M16.6,13.2c-1.8,0-3.3,1.5-3.3,3.3v33.1c0,1.8,1.5,3.3,3.3,3.3s3.3-1.5,3.3-3.3V16.5c0-1.8-1.5-3.3-3.3-3.3Z"/>
    <path class="st7" d="M13.3,24.8v24.8c0,1.8,1.5,3.3,3.3,3.3s3.3-1.5,3.3-3.3v-24.8h-6.6Z"/>
    <path class="st4" d="M47.4,13.2c-1.8,0-3.3,1.5-3.3,3.3v33.1c0,1.8,1.5,3.3,3.3,3.3s3.3-1.5,3.3-3.3V16.5c0-1.8-1.5-3.3-3.3-3.3Z"/>
    <path class="st7" d="M44.1,24.8v24.8c0,1.8,1.5,3.3,3.3,3.3s3.3-1.5,3.3-3.3v-24.8h-6.6Z"/>
    <path class="st4" d="M32,13.2c-1.8,0-3.3,1.5-3.3,3.3v33.1c0,1.8,1.5,3.3,3.3,3.3s3.3-1.5,3.3-3.3V16.5c0-1.8-1.5-3.3-3.3-3.3Z"/>
    <path class="st7" d="M28.7,38.1v11.6c0,1.8,1.5,3.3,3.3,3.3s3.3-1.5,3.3-3.3v-11.6h-6.6Z"/>
    <path class="st3" d="M12,23.2h9.2c1.7,0,3.1,1.4,3.1,3.1v2.6c0,1.7-1.4,3.1-3.1,3.1h-9.2c-1.7,0-3.1-1.4-3.1-3.1v-2.6c0-1.7,1.4-3.1,3.1-3.1Z"/>
    <path class="st6" d="M12,22.1h9.2c1.7,0,3.1,1.4,3.1,3.1v2.6c0,1.7-1.4,3.1-3.1,3.1h-9.2c-1.7,0-3.1-1.4-3.1-3.1v-2.6c0-1.7,1.4-3.1,3.1-3.1Z"/>
    <path class="st3" d="M27.4,36.4h9.2c1.7,0,3.1,1.4,3.1,3.1v2.6c0,1.7-1.4,3.1-3.1,3.1h-9.2c-1.7,0-3.1-1.4-3.1-3.1v-2.6c0-1.7,1.4-3.1,3.1-3.1Z"/>
    <path class="st6" d="M27.4,35.3h9.2c1.7,0,3.1,1.4,3.1,3.1v2.6c0,1.7-1.4,3.1-3.1,3.1h-9.2c-1.7,0-3.1-1.4-3.1-3.1v-2.6c0-1.7,1.4-3.1,3.1-3.1Z"/>
    <path class="st3" d="M42.8,23.2h9.2c1.7,0,3.1,1.4,3.1,3.1v2.6c0,1.7-1.4,3.1-3.1,3.1h-9.2c-1.7,0-3.1-1.4-3.1-3.1v-2.6c0-1.7,1.4-3.1,3.1-3.1Z"/>
    <path class="st6" d="M42.8,22.1h9.2c1.7,0,3.1,1.4,3.1,3.1v2.6c0,1.7-1.4,3.1-3.1,3.1h-9.2c-1.7,0-3.1-1.4-3.1-3.1v-2.6c0-1.7,1.4-3.1,3.1-3.1Z"/>
    <path class="st1" d="M3.3,0C1.5,0,0,1.4,0,3.2v1.1C0,2.5,1.5,1.1,3.3,1.1h57.5c1.8,0,3.2,1.4,3.2,3.2v-1.1c0-1.8-1.4-3.2-3.2-3.2H3.3Z"/>
  </g>
</svg>