<?xml version="1.0" encoding="UTF-8"?>
<svg id="_图层_1" xmlns="http://www.w3.org/2000/svg" version="1.1" viewBox="0 0 64 64" width="64" height="64">
  <!-- Generator: Adobe Illustrator 29.0.1, SVG Export Plug-In . SVG Version: 2.1.0 Build 192)  -->
  <defs>
    <style>
      .st0 {
        fill: #3f474a;
      }

      .st0, .st1, .st2, .st3, .st4, .st5, .st6, .st7 {
        display: none;
      }

      .st8 {
        fill: #4f4f4f;
      }

      .st9 {
        fill: #2cbfeb;
      }

      .st10 {
        fill: #4ac73e;
      }

      .st11 {
        fill: #ff5757;
      }

      .st12, .st13, .st14 {
        stroke: #fff;
      }

      .st12, .st13, .st14, .st15, .st16, .st17 {
        fill: none;
        stroke-linecap: round;
      }

      .st12, .st16 {
        stroke-width: 4px;
      }

      .st18 {
        fill: #f7c73c;
      }

      .st1, .st2, .st19, .st15, .st20, .st21, .st16, .st17, .st22, .st6, .st23 {
        isolation: isolate;
      }

      .st1, .st19, .st15, .st20, .st21, .st16, .st17, .st22, .st6 {
        opacity: .2;
      }

      .st2, .st24, .st20, .st22, .st6, .st23 {
        fill: #fff;
      }

      .st2, .st23 {
        opacity: .1;
      }

      .st25 {
        fill: #997bc8;
      }

      .st25, .st19, .st26, .st20, .st27, .st28 {
        fill-rule: evenodd;
      }

      .st13, .st14, .st15, .st17 {
        stroke-width: 4px;
      }

      .st13, .st17 {
        stroke-linejoin: bevel;
      }

      .st29 {
        fill: #3f3f3f;
      }

      .st26 {
        fill: #84ddea;
      }

      .st3 {
        fill: #435ece;
      }

      .st30 {
        fill: #34ae72;
      }

      .st31 {
        fill: #6655e4;
      }

      .st15, .st16, .st17 {
        stroke: #000;
      }

      .st27 {
        fill: #706bc8;
      }

      .st4 {
        fill: #37a0f2;
      }

      .st28 {
        fill: #55c5e4;
      }

      .st7, .st32 {
        fill: #e4e4e4;
      }
    </style>
  </defs>
  <path class="st32" d="M50.4,64H13.8c-7.6,0-13.8-6.2-13.8-13.7V13.7C0,6.2,6.2,0,13.7,0h36.6c7.5,0,13.7,6.2,13.7,13.7v36.6c0,7.5-6.2,13.7-13.7,13.7h.1Z"/>
  <g class="st5">
    <path class="st21" d="M6,10.4c-2.2,0-4,1.9-4,4.2v36.6c0,2.3,1.8,4.2,4,4.2s4-1.9,4-4.2v-1.8c.1,0,.3,0,.4,0h5.6v6h5v-6h3v6h5v-6h3v6h5v-6h19.6c3,0,5.4-2.5,5.4-5.5v-22c0-3-2.4-5.5-5.4-5.5H10.4c-.1,0-.3,0-.4,0v-1.8c0-2.3-1.8-4.2-4-4.2Z"/>
    <path class="st8" d="M10.4,15.4h46.1c3,0,5.4,2.5,5.4,5.5v22c0,3-2.4,5.5-5.4,5.5H10.4c-3,0-5.4-2.5-5.4-5.5v-22c0-3,2.4-5.5,5.4-5.5Z"/>
    <circle class="st21" cx="22.5" cy="32.9" r="10.5"/>
    <circle class="st24" cx="22.5" cy="31.9" r="10.5"/>
    <circle class="st21" cx="46.5" cy="32.9" r="8.5"/>
    <circle class="st24" cx="46.5" cy="31.9" r="8.5"/>
    <rect class="st30" x="21" y="23.4" width="3" height="17"/>
    <rect class="st8" x="16" y="47.4" width="5" height="7"/>
    <rect class="st30" x="45" y="25.4" width="3" height="13"/>
    <path class="st8" d="M6,9.4h0c2.2,0,4,1.9,4,4.2v36.6c0,2.3-1.8,4.2-4,4.2h0c-2.2,0-4-1.9-4-4.2V13.6c0-2.3,1.8-4.2,4-4.2Z"/>
    <rect class="st30" x="14" y="30.4" width="17" height="3"/>
    <rect class="st30" x="21" y="23.4" width="3" height="17" transform="translate(-16 25.3) rotate(-45)"/>
    <rect class="st30" x="14" y="30.4" width="17" height="3" transform="translate(-16 25.3) rotate(-45)"/>
    <circle class="st30" cx="22.5" cy="31.9" r="4.5"/>
    <rect class="st30" x="40" y="30.4" width="13" height="3"/>
    <rect class="st30" x="45" y="25.4" width="3" height="13" transform="translate(-9 42.2) rotate(-45)"/>
    <rect class="st30" x="40" y="30.4" width="13" height="3" transform="translate(-9 42.2) rotate(-45)"/>
    <rect class="st8" x="24" y="47.4" width="5" height="7"/>
    <rect class="st8" x="32" y="47.4" width="5" height="7"/>
    <path class="st23" d="M6,9.4c-2.2,0-4,1.9-4,4.2v1c0-2.3,1.8-4.2,4-4.2s4,1.9,4,4.2v-1c0-2.3-1.8-4.2-4-4.2ZM10.4,15.4c-.1,0-.3,0-.4,0v1c.1,0,.3,0,.4,0h46.1c3,0,5.4,2.5,5.4,5.5v-1c0-3-2.4-5.5-5.4-5.5H10.4Z"/>
  </g>
  <g class="st5">
    <path class="st1" d="M6.4,1.1h51.3c3.5,0,6.4,2.9,6.4,6.4v51.3c0,3.5-2.9,6.4-6.4,6.4H6.4c-3.5,0-6.4-2.9-6.4-6.4V7.6C0,4,2.9,1.1,6.4,1.1Z"/>
    <path class="st0" d="M6.4,0h51.3c3.5,0,6.4,2.9,6.4,6.4v51.3c0,3.5-2.9,6.4-6.4,6.4H6.4c-3.5,0-6.4-2.9-6.4-6.4V6.4C0,2.9,2.9,0,6.4,0Z"/>
    <path class="st2" d="M6.4,0C2.9,0,0,2.9,0,6.4v1.1C0,4,2.9,1.1,6.4,1.1h51.3c3.5,0,6.4,2.9,6.4,6.4v-1.1c0-3.6-2.9-6.4-6.4-6.4H6.4Z"/>
    <path class="st19" d="M13.7,4.6v8.5c0,1.1.6,2.1,1.5,2.6,6.7,3.9,33,19,34,19.6.7-.6,1.1-1.4,1.1-2.3v-5.6c0-1.1-.6-2.1-1.5-2.6L13.7,4.6Z"/>
    <path class="st19" d="M48.8,50.8c.9.5,1.5,1.5,1.5,2.6v8.5L15.2,41.7c-.9-.5-1.5-1.5-1.5-2.6v-6.7c0-.5.1-1.1.4-1.5,0,0,27.9,16,34.7,19.9Z"/>
    <path class="st28" d="M48.8,49.6c.9.5,1.5,1.5,1.5,2.6v8.5L15.2,40.5c-.9-.5-1.5-1.5-1.5-2.6v-6.7c0-.5.1-1.1.4-1.5,0,0,27.9,16,34.7,19.9Z"/>
    <path class="st19" d="M17.1,54.9c-.3.2-.6.5-.8.8-.6,1.1-.3,2.4.8,3h0l-1.8-1.1c-.9-.5-1.5-1.5-1.5-2.6v-6.7c0-1.1.6-2.1,1.5-2.6l31.7-18.2h0c.3-.2.6-.5.8-.8.6-1.1.3-2.4-.8-3h0l1.8,1.1c.9.5,1.5,1.5,1.5,2.6v6.7c0,1.1-.6,2.1-1.5,2.6l-1.9,1.1h0s-29.9,17.1-29.9,17.1Z"/>
    <path class="st27" d="M13.7,3.4l35.1,20.2c.9.5,1.5,1.5,1.5,2.6v6.7c0,.5-.1,1.1-.4,1.5,0,0-27.9-16-34.7-19.9-.9-.5-1.5-1.5-1.5-2.6,0,0,0-8.5,0-8.5Z"/>
    <path class="st19" d="M47,7.6c1.1.6,1.4,2,.8,3-.2.3-.5.6-.8.8h0S15.2,29.7,15.2,29.7c-.9.5-1.5,1.5-1.5,2.6v5.6c0,1.1.6,2.1,1.5,2.6l.7.4c0-.4,0-.9.3-1.3.2-.4.5-.6.8-.8l29.8-17.1,1.9-1.1c.9-.5,1.5-1.5,1.5-2.6v-6.7c0-1.1-.6-2.1-1.5-2.6l-1.8-1.1ZM14.1,40.5c.1.2.3.4.5.6-.2-.2-.3-.4-.5-.6Z"/>
    <path class="st25" d="M17.1,53.8c-.3.2-.6.5-.8.8-.6,1.1-.3,2.4.8,3h0l-1.8-1.1c-.9-.5-1.5-1.5-1.5-2.6v-6.7c0-1.1.6-2.1,1.5-2.6l31.7-18.2h0c.3-.2.6-.5.8-.8.6-1.1.3-2.4-.8-3h0l1.8,1.1c.9.5,1.5,1.5,1.5,2.6v6.7c0,1.1-.6,2.1-1.5,2.6l-1.9,1.1h0s-29.9,17.1-29.9,17.1Z"/>
    <path class="st20" d="M47,22.5c1.1.6,1.4,2,.8,3-.2.3-.5.6-.8.8h0s-31.7,18.2-31.7,18.2c-.9.5-1.5,1.5-1.5,2.6v1.1c0-1.1.6-2.1,1.5-2.6l31.7-18.2h0c3.6-2.1,1.2-4.3,0-5h0Z"/>
    <path class="st26" d="M17.1,37.7c-.3.2-.6.5-.8.8-.6,1.1-.3,2.4.8,3h0l-1.8-1.1c-.9-.5-1.5-1.5-1.5-2.6v-6.7c0-1.1.6-2.1,1.5-2.6l31.7-18.2h0c.3-.2.6-.5.8-.8.6-1.1.3-2.4-.8-3h0l1.8,1.1c.9.5,1.5,1.5,1.5,2.6v6.7c0,1.1-.6,2.1-1.5,2.6l-1.9,1.1h0s-29.9,17.1-29.9,17.1Z"/>
    <path class="st20" d="M47,6.5c1.1.6,1.4,2,.8,3-.2.3-.5.6-.8.8h0S15.2,28.6,15.2,28.6c-.9.5-1.5,1.5-1.5,2.6v1.1c0-1.1.6-2.1,1.5-2.6l31.7-18.2h0c3.6-2.1,1.2-4.3,0-5h0Z"/>
  </g>
  <g class="st5">
    <rect class="st1" y="1.1" width="64" height="64.2" rx="3.2" ry="3.2"/>
    <path class="st3" d="M64,61V3.2c0-1.8-1.4-3.2-3.2-3.2H3.2C1.4,0,0,1.4,0,3.2v57.8c0,1.8,1.4,3.2,3.2,3.2h57.6c1.8,0,3.2-1.4,3.2-3.2Z"/>
    <path class="st21" d="M32,11.8c-6.8,0-12.7,6-12.7,12.8h6.2c0-3.4,3.1-6.6,6.5-6.6s6.5,2.8,6.5,6.2-.7,3.3-1.8,4.4l-3.8,3.9c-2.2,2.3-3.9,5.4-3.9,8.8v1.6h6.3v-1.1h0c.2-3.9,1.9-5.6,3.9-7.7l2.8-2.9c1.8-1.8,2.9-4.2,2.9-7,0-6.9-5.9-12.4-12.7-12.4ZM28.8,48.1v6.4h6.4v-6.4h-6.4Z"/>
    <path class="st24" d="M32,10.7c-6.8,0-12.7,6-12.7,12.8h6.2c0-3.4,3.1-6.6,6.5-6.6s6.5,2.8,6.5,6.2-.7,3.3-1.8,4.4l-3.8,3.9c-2.2,2.3-3.9,5.4-3.9,8.8v1.6h6.3v-1.1h0c.2-3.9,1.9-5.6,3.9-7.7l2.8-2.9c1.8-1.8,2.9-4.2,2.9-7,0-6.9-5.9-12.4-12.7-12.4ZM28.8,47.1v6.4h6.4v-6.4h-6.4Z"/>
    <path class="st2" d="M3.2,0C1.4,0,0,1.4,0,3.2v1.1C0,2.5,1.4,1.1,3.2,1.1h57.6c1.8,0,3.2,1.4,3.2,3.2v-1.1c0-1.8-1.4-3.2-3.2-3.2H3.2Z"/>
  </g>
  <g class="st5">
    <g>
      <path class="st21" d="M0,12.1v2.3C0,14.9.3,15.2.7,15.2h12.8c.4,0,.7-.4.7-.8v-2.3c0,.5-.3.8-.7.8H.8c-.4,0-.7-.4-.7-.8H0ZM16.6,12.1v2.3c0,.5.3.8.7.8h12.8c.4,0,.7-.4.7-.8v-2.3c0,.5-.3.8-.7.8h-12.8c-.4,0-.7-.4-.7-.8h0ZM33.2,12.1v2.3c0,.5.3.8.7.8h12.8c.4,0,.7-.4.7-.8v-2.3c0,.5-.3.8-.7.8h-12.8c-.4,0-.7-.4-.7-.8h0ZM49.8,12.1v2.3c0,.5.3.8.7.8h12.8c.4,0,.7-.4.7-.8v-2.3c0,.5-.3.8-.7.8h-12.8c-.4,0-.7-.4-.7-.8h0ZM0,28.4v2.3C0,31.2.3,31.5.7,31.5h12.8c.4,0,.7-.4.7-.8v-2.3c0,.5-.3.8-.7.8H.8c-.4,0-.7-.4-.7-.8H0ZM16.6,28.4v2.3c0,.5.3.8.7.8h12.8c.4,0,.7-.4.7-.8v-2.3c0,.5-.3.8-.7.8h-12.8c-.4,0-.7-.4-.7-.8h0ZM33.2,28.4v2.3c0,.5.3.8.7.8h12.8c.4,0,.7-.4.7-.8v-2.3c0,.5-.3.8-.7.8h-12.8c-.4,0-.7-.4-.7-.8ZM49.8,28.4v2.3c0,.5.3.8.7.8h12.8c.4,0,.7-.4.7-.8v-2.3c0,.5-.3.8-.7.8h-12.8c-.4,0-.7-.4-.7-.8ZM0,44.6v2.3C0,47.4.3,47.7.7,47.7h12.8c.4,0,.7-.4.7-.8v-2.3c0,.5-.3.8-.7.8H.8c-.4,0-.7-.4-.7-.8H0ZM16.6,44.6v2.3c0,.5.3.8.7.8h12.8c.4,0,.7-.4.7-.8v-2.3c0,.5-.3.8-.7.8h-12.8c-.4,0-.7-.4-.7-.8h0ZM33.2,44.6v2.3c0,.5.3.8.7.8h12.8c.4,0,.7-.4.7-.8v-2.3c0,.5-.3.8-.7.8h-12.8c-.4,0-.7-.4-.7-.8ZM49.8,44.6v2.3c0,.5.3.8.7.8h12.8c.4,0,.7-.4.7-.8v-2.3c0,.5-.3.8-.7.8h-12.8c-.4,0-.7-.4-.7-.8ZM.1,49.7v2.5c-.4,11.1,13.3,11.8,13.7,11.8h-.3c.4,0,.7-.3.7-.7v-2.3c0,.5-.3.8-.7.8L-.3,47.9c-.4,0,.4.5.4,0v1.8ZM16.6,61v2.3c0,.5.3.8.7.8h12.8c.4,0,.7-.4.7-.8v-2.3c0,.5-.3.8-.7.8h-12.8c-.4,0-.7-.4-.7-.8h0ZM33.2,61v2.3c0,.5.3.8.7.8h12.8c.4,0,.7-.4.7-.8v-2.3c0,.5-.3.8-.7.8h-12.8c-.4,0-.7-.4-.7-.8ZM49.8,61v2.3c0,.5.3.8.7.8l.6-.4c10.4,0,12.9-8.6,12.9-10.3v-.7c0,.7-2.6,5.3-3,5.3l-10.5,3.8c-.4,0-.7-.4-.7-.8Z"/>
      <path class="st8" d="M11.7.1l1.6.6c.4,0,.7.4.7.8v12.2c0,.5-.3.8-.7.8l-13.1.2c-.4,0,.3.2.3-.2L0,13.4c.4-.2.5-.2.5-.7C.2,3.5,5.6,1.9,11.7.1Z"/>
      <path class="st32" d="M17.4.2h12.8c.4,0,.7.4.7.8v12.2c0,.5-.3.8-.7.8h-12.8c-.4,0-.7-.4-.7-.8V1c0-.5.3-.8.7-.8Z"/>
      <path class="st11" d="M33.9.2h12.8c.4,0,.7.4.7.8v12.2c0,.5-.3.8-.7.8h-12.8c-.4,0-.7-.4-.7-.8V1c0-.5.3-.8.7-.8Z"/>
      <path class="st32" d="M50.5.2h.5c7.2,0,13,5.8,13,13h0c0,.5-.3.8-.7.8h-12.7c-.4,0-.8-.4-.8-.8V1c0-.5.3-.8.7-.8Z"/>
      <path class="st32" d="M.8,16.4h12.8c.4,0,.7.4.7.8v12.2c0,.5-.3.8-.7.8H.8c-.4,0-.7-.4-.7-.8v-12.2c0-.5.3-.8.7-.8Z"/>
      <path class="st32" d="M17.4,16.4h12.8c.4,0,.7.4.7.8v12.2c0,.5-.3.8-.7.8h-12.8c-.4,0-.7-.4-.7-.8v-12.2c0-.5.3-.8.7-.8Z"/>
      <path class="st11" d="M33.9,16.4h12.8c.4,0,.7.4.7.8v12.2c0,.5-.3.8-.7.8h-12.8c-.4,0-.7-.4-.7-.8v-12.2c0-.5.3-.8.7-.8Z"/>
      <path class="st32" d="M50.5,16.4h12.8c.4,0,.7.4.7.8v12.2c0,.5-.3.8-.7.8h-12.8c-.4,0-.7-.4-.7-.8v-12.2c0-.5.3-.8.7-.8Z"/>
      <path class="st32" d="M.8,32.7h12.8c.4,0,.7.4.7.8v12.2c0,.5-.3.8-.7.8H.8c-.4,0-.7-.4-.7-.8v-12.2c0-.5.3-.8.7-.8Z"/>
      <path class="st8" d="M17.4,32.7h12.8c.4,0,.7.4.7.8v12.2c0,.5-.3.8-.7.8h-12.8c-.4,0-.7-.4-.7-.8v-12.2c0-.5.3-.8.7-.8Z"/>
      <path class="st32" d="M33.9,32.7h12.8c.4,0,.7.4.7.8v12.2c0,.5-.3.8-.7.8h-12.8c-.4,0-.7-.4-.7-.8v-12.2c0-.5.3-.8.7-.8Z"/>
      <path class="st10" d="M50.5,32.7h12.8c.4,0,.7.4.7.8v12.2c0,.5-.3.8-.7.8h-12.8c-.4,0-.7-.4-.7-.8v-12.2c0-.5.3-.8.7-.8Z"/>
      <path class="st32" d="M.8,48.9h12.8c.4,0,.7.3.7.7v12.3c0,.5-.3.8-.7.8h-1.6C5.4,62.8.1,57.5.1,50.9v-1.2c0-.5.3-.8.7-.8Z"/>
      <path class="st32" d="M17.4,48.9h12.8c.4,0,.7.4.7.8v12.2c0,.5-.3.8-.7.8h-12.8c-.4,0-.7-.4-.7-.8v-12.2c0-.5.3-.8.7-.8Z"/>
      <path class="st32" d="M33.9,48.9h12.8c.4,0,.7.4.7.8v12.2c0,.5-.3.8-.7.8h-12.8c-.4,0-.7-.4-.7-.8v-12.2c0-.5.3-.8.7-.8Z"/>
      <path class="st32" d="M50.5,48.9h12.8c.4,0,.7.4.7.8v1.2c0,7.6-7.2,11.6-7.6,11.6l-5.9.3c-.4,0-.7-.4-.7-.8v-12.2c0-.5.3-.8.7-.8Z"/>
      <path class="st23" d="M12.7.2C9.2,0,.2,3.8.1,11.8v1.2c0-.5-.1-.4.3-.4L13.5,1.4c.4,0,.7.4.7.8V1c0-.5-.3-.8-.7-.8,0,0-.8,0-.8,0Z"/>
      <path class="st22" d="M17.4.2c-.4,0-.7.4-.7.8v1.2c0-.5.3-.8.7-.8h12.8c.4,0,.7.4.7.8V1c0-.5-.3-.8-.7-.8,0,0-12.8,0-12.8,0Z"/>
      <path class="st22" d="M33.9.2c-.4,0-.7.4-.7.8v1.2c0-.5.3-.8.7-.8h12.8c.4,0,.7.4.7.8V1c0-.5-.3-.8-.7-.8,0,0-12.8,0-12.8,0Z"/>
      <path class="st22" d="M50.5.2c-.4,0-.7.4-.7.8v1.2c0-.5.3-.8.7-.8h12.8c.4,0,.7.4.7.8V1c0-.5-.3-.8-.7-.8,0,0-12.8,0-12.8,0Z"/>
      <path class="st22" d="M.8,16.4c-.4,0-.7.4-.7.8v1.2c0-.5.3-.8.7-.8h12.8c.4,0,.7.4.7.8v-1.2c0-.5-.3-.8-.7-.8H.8Z"/>
      <path class="st22" d="M17.4,16.4c-.4,0-.7.4-.7.8v1.2c0-.5.3-.8.7-.8h12.8c.4,0,.7.4.7.8v-1.2c0-.5-.3-.8-.7-.8h-12.8Z"/>
      <path class="st22" d="M33.9,16.4c-.4,0-.7.4-.7.8v1.2c0-.5.3-.8.7-.8h12.8c.4,0,.7.4.7.8v-1.2c0-.5-.3-.8-.7-.8h-12.8Z"/>
      <path class="st22" d="M50.5,16.4c-.4,0-.7.4-.7.8v1.2c0-.5.3-.8.7-.8h12.8c.4,0,.7.4.7.8v-1.2c0-.5-.3-.8-.7-.8h-12.8Z"/>
      <path class="st22" d="M.8,32.7c-.4,0-.7.4-.7.8v1.2c0-.5.3-.8.7-.8h12.8c.4,0,.7.4.7.8v-1.2c0-.5-.3-.8-.7-.8H.8Z"/>
      <path class="st23" d="M17.4,32.7c-.4,0-.7.4-.7.8v1.2c0-.5.3-.8.7-.8h12.8c.4,0,.7.4.7.8v-1.2c0-.5-.3-.8-.7-.8h-12.8Z"/>
      <path class="st22" d="M33.9,32.7c-.4,0-.7.4-.7.8v1.2c0-.5.3-.8.7-.8h12.8c.4,0,.7.4.7.8v-1.2c0-.5-.3-.8-.7-.8h-12.8Z"/>
      <path class="st22" d="M50.5,32.7c-.4,0-.7.4-.7.8v1.2c0-.5.3-.8.7-.8h12.8c.4,0,.7.4.7.8v-1.2c0-.5-.3-.8-.7-.8h-12.8Z"/>
      <path class="st22" d="M.8,48.9c-.4,0-.7.4-.7.8v1.2c0-.5.3-.8.7-.8h12.8c.4,0,.7.4.7.8v-1.2c0-.5-.3-.8-.7-.8H.8Z"/>
      <path class="st22" d="M17.4,48.9c-.4,0-.7.4-.7.8v1.2c0-.5.3-.8.7-.8h12.8c.4,0,.7.4.7.8v-1.2c0-.5-.3-.8-.7-.8h-12.8Z"/>
      <path class="st22" d="M33.9,48.9c-.4,0-.7.4-.7.8v1.2c0-.5.3-.8.7-.8h12.8c.4,0,.7.4.7.8v-1.2c0-.5-.3-.8-.7-.8h-12.8Z"/>
      <path class="st22" d="M50.5,48.9c-.4,0-.7.4-.7.8v1.2c0-.5.3-.8.7-.8h12.8c.4,0,.7.4.7.8v-1.2c0-.5-.3-.8-.7-.8h-12.8Z"/>
    </g>
  </g>
  <g class="st5">
    <path class="st1" d="M3.2,65c-1.8,0-3.2-1.4-3.2-3.2v-2.3c0,1.8,1.4,3.2,3.2,3.2h57.6c1.8,0,3.2-1.4,3.2-3.2v2.3c0,1.8-1.4,3.2-3.2,3.2H3.2Z"/>
    <path class="st31" d="M32,0H14.6C6.5,0,0,6.5,0,14.6v17.3h32V0Z"/>
    <path class="st9" d="M32,0h17.5c8,0,14.5,6.5,14.5,14.5v17.5h-32V0Z"/>
    <path class="st9" d="M32,63.9H14.4c-8,0-14.4-6.5-14.4-14.4v-17.5h32v31.9Z"/>
    <path class="st18" d="M32,63.9h17.8c7.8,0,14.2-6.4,14.2-14.2v-17.7h-32v31.9Z"/>
    <path class="st6" d="M3.2,0C1.4,0,0,1.4,0,3.2v1.1C0,2.6,1.4,1.1,3.2,1.1h57.6c1.8,0,3.2,1.4,3.2,3.2v-1.1c0-1.8-1.4-3.2-3.2-3.2H3.2Z"/>
    <rect class="st29" x="9.1" y="9.1" width="45.7" height="45.6"/>
    <path class="st16" d="M16,49h18.3"/>
    <path class="st12" d="M16,47.9h18.3"/>
    <path class="st15" d="M16,26.2h9.1M25.1,35.4v-18.2M16,35.4v-18.2h0"/>
    <path class="st14" d="M16,25.1h9.1M25.1,34.2V16M16,34.2V16h0"/>
    <path class="st17" d="M34.3,26.2s9.1-1.1,9.1,4.6-9.1,4.6-9.1,4.6M34.3,17.1v18.2M34.3,26.3s9.1,1.1,9.1-4.6-9.1-4.6-9.1-4.6M34.3,35.4v-18.2"/>
    <path class="st13" d="M34.3,25.1s9.1-1.1,9.1,4.6-9.1,4.6-9.1,4.6M34.3,16v18.2M34.3,25.1s9.1,1.1,9.1-4.6-9.1-4.6-9.1-4.6M34.3,34.3v-18.2"/>
  </g>
  <g class="st5">
    <path class="st1" d="M3.4,1.1h57.2c1.9,0,3.4,1.5,3.4,3.4v57.2c0,1.9-1.5,3.4-3.4,3.4H3.4c-1.9,0-3.4-1.5-3.4-3.4V4.6C0,2.7,1.5,1.1,3.4,1.1Z"/>
    <path class="st4" d="M3.4,0h57.2c1.9,0,3.4,1.5,3.4,3.4v57.2c0,1.9-1.5,3.4-3.4,3.4H3.4c-1.9,0-3.4-1.5-3.4-3.4V3.4C0,1.5,1.5,0,3.4,0Z"/>
    <path class="st21" d="M28.6,54.9v-1.1h6.9v1.1h-6.9ZM28.6,18.3v-1.1h6.9v1.1h-6.9Z"/>
    <path class="st6" d="M3.4,0C1.5,0,0,1.5,0,3.4v1.1C0,2.7,1.5,1.1,3.4,1.1h57.2c1.9,0,3.4,1.5,3.4,3.4v-1.1c0-1.9-1.5-3.4-3.4-3.4H3.4Z"/>
    <path class="st24" d="M28.6,53.7v-29.7h6.9v29.7h-6.9ZM28.6,17.1v-6.9h6.9v6.9h-6.9Z"/>
  </g>
  <g>
    <rect class="st1" y="1.1" width="64" height="64" rx="4.8" ry="4.8"/>
    <path class="st7" d="M4.8,0h54.4c2.6,0,4.8,2.2,4.8,4.8v54.4c0,2.6-2.2,4.8-4.8,4.8H4.8c-2.7,0-4.8-2.2-4.8-4.8V4.8C0,2.2,2.2,0,4.8,0Z"/>
    <path class="st29" d="M21.5,13.8l-6.5,6.5,2.4,2.4,6.5-6.5-2.4-2.4ZM42.5,13.8l-6.5,6.5,6.5,6.5,6.5-6.5-6.5-6.5ZM25.5,17.9l-6.5,6.5,2.4,2.4,6.5-6.5-2.4-2.4ZM32,22.9c-4.4,0-8,3.6-8,8s3.6,8,8,8,8-3.6,8-8-3.6-8-8-8ZM32,26.3c2.5,0,4.6,2,4.6,4.6s-2,4.6-4.6,4.6-4.6-2-4.6-4.6,2-4.6,4.6-4.6ZM27.4,41.2v3.4h9.1v-3.4h-9.1ZM27.4,46.9v3.4h9.1v-3.4h-9.1Z"/>
    <path class="st6" d="M4.8,0C2.1,0,0,2.1,0,4.8v1.1C0,3.3,2.1,1.1,4.8,1.1h54.4c2.7,0,4.8,2.1,4.8,4.8v-1.1c0-2.7-2.1-4.8-4.8-4.8H4.8Z"/>
  </g>
</svg>