<?xml version="1.0" encoding="UTF-8"?>
<svg id="_图层_1" xmlns="http://www.w3.org/2000/svg" version="1.1" viewBox="0 0 64 64" width="64" height="64">
  <!-- Generator: Adobe Illustrator 29.0.1, SVG Export Plug-In . SVG Version: 2.1.0 Build 192)  -->
  <defs>
    <style>
      .st0 {
        fill: #8c2330;
      }

      .st0, .st1, .st2, .st3, .st4 {
        display: none;
      }

      .st5 {
        fill: #777;
      }

      .st6 {
        fill: #ff8c2a;
      }

      .st1, .st2, .st7, .st8, .st9 {
        isolation: isolate;
      }

      .st1, .st7, .st8 {
        opacity: .2;
      }

      .st2, .st10, .st8, .st9 {
        fill: #fff;
      }

      .st2, .st9 {
        opacity: .1;
      }

      .st11 {
        fill: #3f3f3f;
      }

      .st12 {
        fill: #fe4b71;
      }

      .st3 {
        fill: #31405e;
      }

      .st13 {
        fill: #a245e9;
      }

      .st14 {
        fill: #28b952;
      }

      .st15 {
        fill: #4287ea;
      }
    </style>
  </defs>
  <path class="st10" d="M50.4,64H13.8c-7.6,0-13.8-6.2-13.8-13.7V13.7C0,6.2,6.2,0,13.7,0h36.6c7.5,0,13.7,6.2,13.7,13.7v36.6c0,7.5-6.2,13.7-13.7,13.7h.1Z"/>
  <g class="st4">
    <path class="st1" d="M19.2,1.1h25.7c10.6,0,19.2,8.6,19.2,19.3v25.7c0,10.6-8.6,19.3-19.2,19.3h-25.7c-10.6,0-19.2-8.6-19.2-19.3v-25.7C0,9.8,8.6,1.1,19.2,1.1Z"/>
    <path class="st3" d="M19.2,0h25.7c10.6,0,19.2,8.6,19.2,19.3v25.7c0,10.6-8.6,19.3-19.2,19.3h-25.7c-10.6,0-19.2-8.6-19.2-19.3v-25.7C0,8.6,8.6,0,19.2,0Z"/>
    <path class="st7" d="M32.1,10.3c-6.1,0-25.6,35.5-22.6,41.4,3,6,42.3,5.9,45.2,0,2.9-5.9-16.5-41.4-22.6-41.4ZM32.1,19.4c4,0,16.7,23.3,14.8,27.2-1.9,3.9-27.7,3.9-29.6,0-2-3.9,10.8-27.2,14.8-27.2ZM32.1,28.7c-1.9,0-7.9,10.6-7,12.4.9,1.8,13.1,1.8,14,0,.9-1.8-5.1-12.4-7-12.4Z"/>
    <path class="st15" d="M32.1,27.5c-1.9,0-7.9,10.6-7,12.4.9,1.8,13.1,1.8,14,0,.9-1.8-5.1-12.4-7-12.4Z"/>
    <path class="st13" d="M32.1,9.2c-6.1,0-25.6,35.5-22.6,41.4,3,6,42.3,5.9,45.2,0,2.9-5.9-16.5-41.4-22.6-41.4ZM46.9,45.4c-1.9,3.9-27.7,3.9-29.6,0-2-3.9,10.8-27.2,14.8-27.2s16.7,23.3,14.8,27.2Z"/>
    <path class="st2" d="M19.2,0C8.6,0,0,8.6,0,19.3v1.1C0,9.7,8.6,1.1,19.2,1.1h25.7c10.7,0,19.2,8.6,19.2,19.3v-1.1c0-10.7-8.6-19.3-19.2-19.3h-25.7Z"/>
    <path class="st8" d="M32.1,9.2c-5.7,0-23.6,31.8-22.9,40.3.8-9.8,17.4-39.1,22.9-39.1s22.1,29.3,22.9,39.1c.7-8.4-17.1-40.3-22.9-40.3ZM32.1,27.5c-1.9,0-7.9,10.5-7,12.4.7-3.3,5.4-11.2,7-11.2,1.6,0,6.3,7.9,7,11.3.8-1.8-5.1-12.4-7-12.4ZM17.1,44.8c0,.7,0,1.3.2,1.7,2,3.9,27.7,3.9,29.6,0,.2-.4.2-1,.2-1.7,0,.2,0,.4-.2.6-1.9,3.9-27.7,3.9-29.6,0,0-.2-.1-.4-.2-.6Z"/>
  </g>
  <g class="st4">
    <path class="st12" d="M31.5,2.5c-1.2,0-2.4.3-3.5.8L8.6,14.1c-2,1.1-3.3,3.2-3.3,5.5v21.6c0,2.3,1.3,4.4,3.3,5.5l19.4,10.8c1.1.6,2.2.9,3.4.9,1.1,0,.9-1.2,1.9-1.8l19.3-10.6c2-1.1,3.7-2.2,3.7-4.5v-21.5c0-.8.9-1.9.6-2.6-.5-1.4-1.5-2.5-2.9-3.3L34.6,3.3c-1-.5-2-.8-3.1-.8h0Z"/>
    <path class="st6" d="M5.9,17.2c-.3.8-.5,1.6-.5,2.5v21.6c0,2.3,1.3,4.4,3.3,5.5l19.4,10.8c1,.6,2.1.8,3.3.8v-27.7L5.9,17.2Z"/>
    <path class="st11" d="M56.8,17.2l-25.5,13.5v27.7c1.2,0,2.3-.3,3.3-.8l19.4-10.8c2-1.1,3.3-3.2,3.3-5.5v-21.6c0-.8-.2-1.7-.5-2.5Z"/>
    <path class="st8" d="M31.5,2.5c-1.2,0-2.4.3-3.5.9L8.6,14.2c-2,1.1-3.3,3.2-3.3,5.5v1c0-2.3,1.3-4.4,3.3-5.5L28,4.3c1-.6,2.2-.9,3.5-.9,1.1,0,2.2.3,3.1.9l19.4,10.8c2,1.1,3.3,3.2,3.3,5.5v-1c0-2.3-1.3-4.4-3.3-5.5L34.6,3.3c-1-.5-2-.8-3.1-.9Z"/>
    <path class="st7" d="M5.3,40.3s0,0,0,0h0c0,0,0,0,0,0ZM5.3,41.3v1c0,2.3,1.3,4.4,3.3,5.5l19.4,10.8c2,1.1,4.6,1.1,6.6,0l19.4-10.8c2-1.1,3.3-3.2,3.3-5.5v-1c0,2.3-1.3,4.4-3.3,5.5l-19.4,10.8c-2,1.1-4.6,1.1-6.6,0l-19.4-10.8c-2-1.1-3.3-3.2-3.3-5.5Z"/>
    <path class="st8" d="M5.9,17.2c-.3.8-.5,1.6-.5,2.5v1c0-.8.2-1.7.5-2.5l25.5,13.5v-1L5.9,17.2Z"/>
    <path class="st7" d="M56.8,17.2l-25.5,13.5v1l25.5-13.5c.3.8.5,1.6.5,2.5v-1c0-.8-.2-1.7-.5-2.5Z"/>
    <path class="st7" d="M45.3,44.5l-10,5.3v2.4l10-5.4v-2.3Z"/>
    <path class="st10" d="M45.3,43.5l-10,5.3v2.4l10-5.4v-2.3Z"/>
  </g>
  <g class="st4">
    <ellipse class="st1" cx="32" cy="33.2" rx="32" ry="32.1"/>
    <ellipse class="st0" cx="32" cy="32.1" rx="32" ry="32.1"/>
    <path class="st7" d="M43.8,3.4c-5.3,5.6-8.5,11.6-10.1,18.4-2,8.8-1.7,18.5-1.5,32h11.4c-.1-7.3-.1-13.3,0-18.3h8.9v-11.4h-7.6c1.3-5.5,3.6-9.6,8.7-14.4-2.9-2.7-6.2-4.8-9.9-6.2ZM29.7,10.2h-11.4c.2,18.2-.4,27.2-2,32.1-1.4,4.4-3.8,6.7-8.8,11.4,2.5,3,5.5,5.5,8.8,7.4,4.9-4.7,8.7-8.8,10.8-15.2,2.5-7.7,2.7-17.4,2.5-35.7Z"/>
    <path class="st10" d="M43.8,2.3c-5.3,5.6-8.5,11.6-10.1,18.4-2,8.8-1.7,18.5-1.5,32h11.4c-.1-7.3-.1-13.3,0-18.3h8.9v-11.4h-7.6c1.3-5.5,3.6-9.6,8.7-14.4-2.9-2.7-6.2-4.8-9.9-6.2ZM29.7,9.1h-11.4c.2,18.2-.4,27.2-2,32.1-1.4,4.4-3.8,6.7-8.8,11.4,2.5,3,5.5,5.5,8.8,7.4,4.9-4.7,8.7-8.8,10.8-15.2,2.5-7.7,2.7-17.4,2.5-35.7Z"/>
    <path class="st2" d="M32,0C14.3,0,0,14.4,0,32.1c0,.2,0,.4,0,.6C.3,15.2,14.6,1.2,32,1.1c17.4,0,31.7,14,32,31.5,0-.2,0-.4,0-.6C64,14.4,49.7,0,32,0Z"/>
  </g>
  <g class="st4">
    <path class="st7" d="M25.3,7.4v7.2h3.1c1.4,0,2.4.2,2.6.5.4.4.3,5.4.3,17.1,0,19.6.7,19.1-5.2,19-5.1,0-6.1-1.4-3.6-4.2,2.6-2.9,2.5-5.9,0-8.5-1.5-1.5-3.4-2.4-5.3-2.5-2.5-.2-5.6.9-7.8,2.8-1.7,1.5-2.8,3.4-3,5.5-.2,2.8,1.1,5.8,3.6,8.6,4.3,4.9,7.8,4.4,16.3,4.6,6.6.1,14.6-.7,18.1-8.6.9-1.9.7-2.6.8-17.2.1-17.1.2-17.1,3.6-17.1s1.3,0,1.7,0h1.5v-7.2h-26.7Z"/>
    <path class="st5" d="M25.3,6.5v7.2h3.1c1.4,0,2.4.2,2.6.5.4.4.3,5.4.3,17.1,0,19.6.7,19.1-5.2,19-5.1,0-6.1-1.4-3.6-4.2,2.6-2.9,2.5-5.9,0-8.5-1.5-1.5-3.4-2.4-5.3-2.5-2.5-.2-5.6.9-7.8,2.8-1.7,1.5-2.8,3.4-3,5.5-.2,2.8,1.1,5.8,3.6,8.6,4.3,4.9,7.8,4.4,16.3,4.6,6.6.1,14.6-.7,18.1-8.6.9-1.9.7-2.6.8-17.2.1-17.1.2-17.1,3.6-17.1s1.3,0,1.7,0h1.5v-7.2h-26.7Z"/>
    <path class="st9" d="M25.3,6.5v.9h26.7v-.9h-26.7ZM16.2,35.1c-2.3.1-4.9,1.1-6.8,2.8-1.7,1.5-2.8,3.4-3,5.5,0,.4,0,.8,0,1.2,0,0,0-.2,0-.3.2-2,1.3-3.9,3-5.5,2.2-2,5.3-3,7.8-2.8,1.9.1,3.8,1,5.3,2.5,1.2,1.2,1.9,2.4,2,3.7.2-1.6-.5-3.2-2-4.6-1.5-1.5-3.4-2.4-5.3-2.5-.3,0-.6,0-1,0ZM31.3,42.5c0,8.1-.8,7.8-5.2,7.8-2.9,0-4.5-.5-4.8-1.4-.4,1.5,1.1,2.2,4.8,2.3,4.6,0,5.2.2,5.2-8.7Z"/>
  </g>
  <g>
    <path class="st7" d="M25.3,7.6v7.1h3.1c1.4,0,2.3.2,2.6.5.4.4.3,5.4.3,17,0,19.5.7,19-5.1,19-5,0-6-1.4-3.5-4.2,2.5-2.9,2.5-5.9,0-8.5-1.5-1.5-3.3-2.4-5.2-2.5-2.4-.2-5.5.9-7.7,2.8-1.7,1.5-2.8,3.4-3,5.4-.2,2.7,1.1,5.8,3.6,8.5,4.2,4.8,7.7,4.4,16.1,4.6,6.5.1,14.4-.7,17.9-8.6.9-1.9.6-2.5.8-17.1.1-17.1.2-17,3.6-17s1.3,0,1.7,0h1.5v-7.1h-26.4Z"/>
    <path class="st14" d="M25.3,6.7v7.1h3.1c1.4,0,2.3.2,2.6.5.4.4.3,5.4.3,17,0,19.5.7,19-5.1,19-5,0-6-1.4-3.5-4.2,2.5-2.9,2.5-5.9,0-8.5-1.5-1.5-3.3-2.4-5.2-2.5-2.4-.2-5.5.9-7.7,2.8-1.7,1.5-2.8,3.4-3,5.4-.2,2.7,1.1,5.8,3.6,8.5,4.2,4.8,7.7,4.4,16.1,4.6,6.5.1,14.4-.7,17.9-8.6.9-1.9.6-2.5.8-17.1.1-17.1.2-17,3.6-17s1.3,0,1.7,0h1.5v-7.1h-26.4Z"/>
    <path class="st8" d="M25.3,6.7v.9h26.4v-.9h-26.4ZM16.4,35.2c-2.2.1-4.8,1.1-6.7,2.8-1.7,1.5-2.8,3.4-3,5.4,0,.4,0,.8,0,1.1,0,0,0-.2,0-.3.2-2,1.3-3.9,3-5.4,2.2-2,5.2-3,7.7-2.8,1.9.1,3.7,1,5.2,2.5,1.2,1.2,1.8,2.4,1.9,3.7.2-1.6-.5-3.2-1.9-4.6-1.5-1.5-3.3-2.4-5.2-2.5-.3,0-.6,0-.9,0ZM31.3,42.5c0,8.1-.8,7.8-5.2,7.8-2.9,0-4.4-.5-4.7-1.4-.4,1.5,1.1,2.2,4.7,2.2,4.5,0,5.1.2,5.2-8.7Z"/>
  </g>
</svg>