<?xml version="1.0" encoding="UTF-8"?>
<svg id="_图层_1" xmlns="http://www.w3.org/2000/svg" version="1.1" viewBox="0 0 64 64" width="64" height="64">
  <!-- Generator: Adobe Illustrator 29.0.1, SVG Export Plug-In . SVG Version: 2.1.0 Build 192)  -->
  <defs>
    <style>
      .st0, .st1, .st2 {
        isolation: isolate;
        opacity: .2;
      }

      .st0, .st3, .st2 {
        display: none;
      }

      .st4, .st2 {
        fill: #fff;
      }

      .st3, .st5 {
        fill: #00acc1;
      }
    </style>
  </defs>
  <path class="st5" d="M50.4,64H13.8c-7.6,0-13.8-6.2-13.8-13.7V13.7C0,6.2,6.2,0,13.7,0h36.5c7.5,0,13.7,6.2,13.7,13.7v36.6c0,7.5-6.2,13.7-13.7,13.7h.1Z"/>
  <g>
    <path class="st0" d="M31.1,3.7C15.7,3.7,3.1,16.3,3.1,31.7v25.2c0,1.6,1.2,2.8,2.8,2.8h25.2c15.5,0,28-12.5,28-28V6.5c0-1.6-1.2-2.8-2.8-2.8h-25.2Z"/>
    <path class="st3" d="M31.1,2.7C15.7,2.7,3.1,15.3,3.1,30.7v25.2c0,1.6,1.2,2.8,2.8,2.8h25.2c15.5,0,28-12.5,28-28V5.5c0-1.6-1.2-2.8-2.8-2.8h-25.2Z"/>
    <path class="st1" d="M35.1,10.7l-8,1.2v28.9l8-2.1v-11.2l8,13.2,8-3-10-12,10-13-7.8-2-8.2,13.1v-13.1ZM18.8,18.6c-.2,0-.4,0-.5.2l-3.1,3.1c-.3.3-.2.7,0,1.1l3.3,5.1c-.2.5-.4,1-.6,1.5,0,0,0,0,0,0l-5.9,1.3c-.4,0-.7.3-.7.7v3.9c0,.4.3.7.7.7l5.9,1.3s0,0,0,.1c.2.5.4,1,.6,1.5l-3.3,5.1c-.2.3-.3.8,0,1.1l3.1,3.1c.3.3.8.3,1,0l5.1-3.2c.5.2,1,.5,1.5.6,0,0,0,0,.1,0l1.3,5.9c0,.4.3.7.7.7h4.4c.4,0,.7-.3.7-.7l1.3-6.1c.6-.2,1.2-.5,1.7-.8l5,3.6c.3.3.8.3,1,0l3.1-3.1c.3-.3.2-.7,0-1.1l-1.9-2.9h-.2c-.5.2-1,0-1.2-.3l-2-3.3c-1.7,4-5.6,6.8-10.2,6.8s-11-4.9-11-11,2.9-8.6,7-10.2v-2.2h0c0,0,0,.1-.1.1-.5.2-1,.4-1.5.6l-5.1-3.2c-.1-.1-.3-.2-.5-.2Z"/>
    <path class="st4" d="M35.1,9.7l-8,1.2v28.9l8-2.1v-11.2l8,13.2,8-3-10-12,10-13-7.8-2-8.2,13.1v-13.1ZM18.8,17.6c-.2,0-.4,0-.5.2l-3.1,3.1c-.3.3-.2.7,0,1.1l3.3,5.1c-.2.5-.4,1-.6,1.5,0,0,0,0,0,0l-5.9,1.3c-.4,0-.7.3-.7.7v3.9c0,.4.3.7.7.7l5.9,1.3s0,0,0,.1c.2.5.4,1,.6,1.5l-3.3,5.1c-.2.3-.3.8,0,1.1l3.1,3.1c.3.3.8.3,1,0l5.1-3.2c.5.2,1,.5,1.5.6,0,0,0,0,.1,0l1.3,5.9c0,.4.3.7.7.7h4.4c.4,0,.7-.3.7-.7l1.3-6.1c.6-.2,1.2-.5,1.7-.8l5,3.6c.3.3.8.3,1,0l3.1-3.1c.3-.3.2-.7,0-1.1l-1.9-2.9h-.2c-.5.2-1,0-1.2-.3l-2-3.3c-1.7,4-5.6,6.8-10.2,6.8s-11-4.9-11-11,2.9-8.6,7-10.2v-2.2h0c0,0,0,.1-.1.1-.5.2-1,.4-1.5.6l-5.1-3.2c-.1-.1-.3-.2-.5-.2Z"/>
    <path class="st2" d="M31.1,2.7C15.7,2.7,3.1,15.3,3.1,30.7v1C3.1,16.3,15.7,3.7,31.1,3.7h25.2c1.6,0,2.8,1.2,2.8,2.8v-1c0-1.6-1.2-2.8-2.8-2.8h-25.2Z"/>
  </g>
</svg>