<?xml version="1.0" encoding="UTF-8"?>
<svg id="_图层_1" xmlns="http://www.w3.org/2000/svg" version="1.1" viewBox="0 0 64 64" width="64" height="64">
  <!-- Generator: Adobe Illustrator 29.0.1, SVG Export Plug-In . SVG Version: 2.1.0 Build 192)  -->
  <defs>
    <style>
      .st0, .st1, .st2 {
        display: none;
      }

      .st0, .st3, .st2 {
        isolation: isolate;
        opacity: .2;
      }

      .st4, .st2 {
        fill: #fff;
      }

      .st5, .st1 {
        fill: #f4b400;
      }
    </style>
  </defs>
  <path class="st5" d="M50.3,64H13.8C6.2,64,0,57.8,0,50.3V13.7c0-7.5,6.2-13.7,13.7-13.7h36.5c7.5,0,13.7,6.2,13.7,13.7v36.6c0,7.5-6.2,13.7-13.7,13.7h0Z"/>
  <g>
    <path class="st0" d="M0,59.4v2.3C0,63.5,1.4,64.9,3.2,64.9h57.5c1.8,0,3.2-1.4,3.2-3.2v-2.3c0,1.8-1.4,3.2-3.2,3.2H3.2C1.4,62.6,0,61.2,0,59.4H0Z"/>
    <path class="st1" d="M3.2,0h57.5c1.8,0,3.2,1.4,3.2,3.2v57.4c0,1.8-1.4,3.2-3.2,3.2H3.2c-1.8,0-3.2-1.4-3.2-3.2V3.2C0,1.4,1.4,0,3.2,0Z"/>
    <path class="st2" d="M3.2,0C1.4,0,0,1.4,0,3.2v1.1C0,2.6,1.4,1.1,3.2,1.1h57.5c1.8,0,3.2,1.4,3.2,3.2v-1.1c0-1.8-1.4-3.2-3.2-3.2H3.2Z"/>
    <path class="st3" d="M31.9,10.3c-8.8,0-16,7.1-16,15.9s1.9,8.5,4.8,11.4h-.3v15.9h4.6v2.3h13.7v-2.3h4.6v-15.9h-.3c3-2.9,4.8-6.9,4.8-11.4,0-8.8-7.2-15.9-16-15.9h0ZM31.9,14.8c6.3,0,11.4,5.1,11.4,11.4s-1.5,6.6-4,8.7c-2,1.7-4.6,2.7-7.4,2.7s-5.3-1-7.3-2.6c-2.5-2.1-4.1-5.2-4.1-8.8,0-6.3,5.1-11.4,11.4-11.4h0ZM25.1,42.1h13.7v2.3h-13.7s0-2.3,0-2.3ZM25.1,49h13.7v2.3h-13.7s0-2.3,0-2.3Z"/>
    <path class="st4" d="M31.9,9.1c-8.8,0-16,7.1-16,15.9s1.9,8.5,4.8,11.4h-.3v15.9h4.6v2.3h13.7v-2.3h4.6v-15.9h-.3c3-2.9,4.8-6.9,4.8-11.4,0-8.8-7.2-15.9-16-15.9h0ZM31.9,13.7c6.3,0,11.4,5.1,11.4,11.4s-1.5,6.6-4,8.7c-2,1.7-4.6,2.7-7.4,2.7s-5.3-1-7.3-2.6c-2.5-2.1-4.1-5.2-4.1-8.8,0-6.3,5.1-11.4,11.4-11.4h0ZM25.1,41h13.7v2.3h-13.7s0-2.3,0-2.3ZM25.1,47.8h13.7v2.3h-13.7s0-2.3,0-2.3Z"/>
  </g>
</svg>