<?xml version="1.0" encoding="UTF-8"?>
<svg id="_图层_1" xmlns="http://www.w3.org/2000/svg" version="1.1" viewBox="0 0 64 64" width="64" height="64">
  <!-- Generator: Adobe Illustrator 29.0.1, SVG Export Plug-In . SVG Version: 2.1.0 Build 192)  -->
  <defs>
    <style>
      .st0 {
        fill: #419d45;
      }

      .st1 {
        fill: #0cb4ff;
      }

      .st2 {
        fill: #4b5b90;
      }

      .st3, .st4, .st5, .st6, .st7, .st8 {
        display: none;
      }

      .st3, .st9 {
        fill: #85ac45;
      }

      .st10 {
        fill: #35b9f5;
      }

      .st4, .st5, .st11, .st12, .st8, .st13, .st14 {
        isolation: isolate;
      }

      .st4, .st15, .st11, .st12, .st8, .st13 {
        opacity: .2;
      }

      .st5, .st16, .st12, .st8, .st14 {
        fill: #fff;
      }

      .st5, .st14 {
        opacity: .1;
      }

      .st17 {
        fill: #4e4e4e;
      }

      .st18 {
        fill: #4d4d4d;
      }

      .st19 {
        fill: #0084db;
      }

      .st20 {
        fill: #4767b5;
      }

      .st21 {
        fill: #f8c44e;
      }

      .st22 {
        fill: #a45390;
      }

      .st6 {
        fill: #d9974e;
      }

      .st23 {
        fill: #aee3fb;
      }

      .st24 {
        fill: #0286c2;
      }

      .st25 {
        fill: #2f4479;
      }

      .st26 {
        fill: #6db832;
      }

      .st27 {
        fill: #c2352a;
      }

      .st28 {
        fill: #4987d7;
      }

      .st29 {
        fill: #b7b7b7;
      }

      .st13 {
        stroke: #000;
      }

      .st13, .st30 {
        fill: none;
        stroke-linecap: round;
        stroke-linejoin: round;
        stroke-width: 4px;
      }

      .st31 {
        fill: #00ccfa;
      }

      .st30 {
        stroke: #b7b7b7;
      }
    </style>
  </defs>
  <path class="st9" d="M50.3,64H13.8c-7.6,0-13.8-6.2-13.8-13.7V13.7C0,6.2,6.2,0,13.7,0h36.5c7.5,0,13.7,6.2,13.7,13.7v36.6c0,7.5-6.2,13.7-13.7,13.7h0Z"/>
  <g class="st7">
    <path class="st4" d="M0,59.5v2.3c0,1.9,1.5,3.4,3.4,3.4h57.4c1.9,0,3.4-1.5,3.4-3.4v-2.3c0,1.9-1.5,3.4-3.4,3.4H3.4C1.5,63,0,61.4,0,59.5Z"/>
    <path class="st28" d="M3.2-.1C2.3-.1,1.5.3.9.8l31.2,31.2L63.3.8c-.6-.6-1.4-.9-2.3-.9H3.2h0Z"/>
    <path class="st22" d="M3.2,64.1c-.9,0-1.7-.4-2.3-.9l31.2-31.2,31.2,31.2c-.6.6-1.4.9-2.3.9H3.2h0Z"/>
    <path class="st26" d="M64.2,3.1c0-.9-.4-1.7-.9-2.3l-31.2,31.2,31.2,31.2c.6-.6.9-1.4.9-2.3V3.1h0Z"/>
    <path class="st27" d="M0,3.1C0,2.2.4,1.4.9.8l31.2,31.2L.9,63.2c-.6-.6-.9-1.4-.9-2.3V3.1h0Z"/>
    <path class="st11" d="M35,5.6c-1.4,0-2.5.2-3.6.5-1,.3-1.9.8-2.6,1.3-.7.6-1.3,1.2-1.8,2-.5.8-.8,1.3-1.1,2.1-.3.9-.5,1.8-.6,2.8-.1,1-.2,1.9-.2,2.9h0c0,1.5.2,2.9.5,4,.4,1.1.9,2,1.5,2.8.7.7,1.4,1.3,2.3,1.7.9.4,1.8.5,2.8.5s2-.2,2.8-.5c.8-.3,1.5-.8,2.1-1.4.6-.6,1-1.4,1.3-2.2.3-.9.5-1.9.5-3s-.1-2-.4-2.8c-.3-.8-.6-1.6-1.1-2.1-.5-.6-1.1-1-1.8-1.3-.7-.3-1.5-.4-2.4-.4s-1.1,0-1.5.2c-.4.1-.8.3-1.2.5-.4.2-.7.6-.9.9-.3.3-.5.6-.7.9h-.2c0-1,.2-1.8.4-2.6.2-.8.5-1.1,1-1.7.5-.6,1.1-1,1.9-1.3.8-.3,1.8-.5,3.1-.5s.8,0,1.2,0c.4,0,.8.1,1.1.2v-3.5c-.2,0-.4,0-.6,0-.2,0-.5,0-.7,0-.2,0-.5,0-.7,0s-.4,0-.6,0ZM32.4,16c.8,0,1.5.3,1.9.9.4.6.6,1.4.6,2.4s0,1.1-.2,1.6c-.1.4-.3.8-.5,1.1-.2.3-.5.5-.8.7-.3.1-.7.2-1,.2s-.9-.1-1.2-.4c-.3-.2-.6-.5-.9-.9-.2-.4-.4-.8-.5-1.3-.1-.5-.2-1-.2-1.4s0-.7.2-1c.1-.3.3-.6.6-.9.3-.3.6-.5.9-.7.4-.2.7-.3,1.2-.3ZM47,24v10.3l1,.9c.2,0,.4-.1.6-.2.2,0,.5-.1.8-.2.3,0,.5,0,.8-.1.3,0,.5,0,.8,0,1.3,0,2.3.3,3,.8.6.5,1,1.3,1,2.3s-.3,2-1,2.5c-.7.5-1.6.8-2.9.8s-.9,0-1.3,0c-.5,0-.9-.2-1.4-.3-.5-.1-.9-.3-1.3-.4-.4-.2-.8-.3-1.1-.5v3.7c.3.2.7.3,1.1.5.4.1.9.3,1.3.3.5,0,1,.2,1.5.2.5,0,1,0,1.5,0,1.3,0,2.4-.2,3.4-.5,1-.3,1.8-.8,2.5-1.4.7-.6,1.2-1.4,1.5-2.2.3-.9.5-1.9.5-3s-.2-1.9-.5-2.7c-.3-.8-.8-1.4-1.3-2-.6-.5-1.2-.9-2-1.2-.8-.3-1.6-.4-2.5-.4h0c-.6,0-1.1,0-1.5.1-.4,0-.7.1-1,.2l.3-4.1h6.5v-3.4h-10.3ZM11.5,24.1c-.8,0-1.6,0-2.2.3-.7.2-1.3.4-1.8.6-.6.3-1.1.6-1.5.9-.5.3-.9.5-1.3.9l2.4,2.8c.7-.7,1.5-1.2,2.1-1.6.7-.4,1.4-.5,2.1-.5s1.3.2,1.7.6c.4.4.6.9.6,1.6s0,1.2-.3,1.7c-.2.5-.5,1.1-.8,1.6-.4.5-.8,1.1-1.3,1.6-.5.6-1,1.2-1.7,1.8l-4.8,5.4v2.8h13.7v-3.4h-8.3v-.2l2.5-2.7c.7-.7,1.4-1.4,2-2.1.6-.7,1.2-1.4,1.7-2.1.5-.7.9-1.4,1.1-2.2.3-.7.4-1.5.4-2.3s-.1-1.7-.4-2.4c-.3-.7-.7-1.1-1.3-1.6-.6-.5-1.2-.9-2-1.2-.8-.3-1.7-.4-2.6-.4ZM25.2,42.5v3.2h9.4l-7.3,17.2h4.5l7.1-17.7v-2.7h-13.8Z"/>
    <path class="st16" d="M35,4.5c-1.4,0-2.5.2-3.6.5-1,.3-1.9.8-2.6,1.3-.7.6-1.3,1.2-1.8,2-.5.8-.8,1.3-1.1,2.1-.3.9-.5,1.8-.6,2.8-.1,1-.2,1.9-.2,2.9h0c0,1.5.2,2.9.5,4,.4,1.1.9,2,1.5,2.8.7.7,1.4,1.3,2.3,1.7.9.4,1.8.5,2.8.5s2-.2,2.8-.5c.8-.3,1.5-.8,2.1-1.4.6-.6,1-1.4,1.3-2.2.3-.9.5-1.9.5-3s-.1-2-.4-2.8c-.3-.8-.6-1.6-1.1-2.1-.5-.6-1.1-1-1.8-1.3-.7-.3-1.5-.4-2.4-.4s-1.1,0-1.5.2c-.4.1-.8.3-1.2.5-.4.2-.7.6-.9.9-.3.3-.5.6-.7.9h-.2c0-1,.2-1.8.4-2.6.2-.8.5-1.1,1-1.7.5-.6,1.1-1,1.9-1.3.8-.3,1.8-.5,3.1-.5s.8,0,1.2,0c.4,0,.8.1,1.1.2v-3.5c-.2,0-.4,0-.6,0-.2,0-.5,0-.7,0-.2,0-.5,0-.7,0s-.4,0-.6,0ZM32.4,14.9c.8,0,1.5.3,1.9.9.4.6.6,1.4.6,2.4s0,1.1-.2,1.6c-.1.4-.3.8-.5,1.1-.2.3-.5.5-.8.7-.3.1-.7.2-1,.2s-.9-.1-1.2-.4c-.3-.2-.6-.5-.9-.9-.2-.4-.4-.8-.5-1.3-.1-.5-.2-1-.2-1.4s0-.7.2-1c.1-.3.3-.6.6-.9.3-.3.6-.5.9-.7.4-.2.7-.3,1.2-.3ZM47,22.8v10.3l1,.9c.2,0,.4-.1.6-.2.2,0,.5-.1.8-.2.3,0,.5,0,.8-.1.3,0,.5,0,.8,0,1.3,0,2.3.3,3,.8.6.5,1,1.3,1,2.3s-.3,2-1,2.5c-.7.5-1.6.8-2.9.8s-.9,0-1.3,0c-.5,0-.9-.2-1.4-.3-.5-.1-.9-.3-1.3-.4-.4-.2-.8-.3-1.1-.5v3.7c.3.2.7.3,1.1.5.4.1.9.3,1.3.3.5,0,1,.2,1.5.2.5,0,1,0,1.5,0,1.3,0,2.4-.2,3.4-.5,1-.3,1.8-.8,2.5-1.4.7-.6,1.2-1.4,1.5-2.2.3-.9.5-1.9.5-3s-.2-1.9-.5-2.7c-.3-.8-.8-1.4-1.3-2-.6-.5-1.2-.9-2-1.2-.8-.3-1.6-.4-2.5-.4h0c-.6,0-1.1,0-1.5.1-.4,0-.7.1-1,.2l.3-4.1h6.5v-3.4h-10.3ZM11.5,22.9c-.8,0-1.6,0-2.2.3-.7.2-1.3.4-1.8.6-.6.3-1.1.6-1.5.9-.5.3-.9.5-1.3.9l2.4,2.8c.7-.7,1.5-1.2,2.1-1.6.7-.4,1.4-.5,2.1-.5s1.3.2,1.7.6c.4.4.6.9.6,1.6s0,1.2-.3,1.7c-.2.5-.5,1.1-.8,1.6-.4.5-.8,1.1-1.3,1.6-.5.6-1,1.2-1.7,1.8l-4.8,5.4v2.8h13.7v-3.4h-8.3v-.2l2.5-2.7c.7-.7,1.4-1.4,2-2.1.6-.7,1.2-1.4,1.7-2.1.5-.7.9-1.4,1.1-2.2.3-.7.4-1.5.4-2.3s-.1-1.7-.4-2.4c-.3-.7-.7-1.1-1.3-1.6-.6-.5-1.2-.9-2-1.2-.8-.3-1.7-.4-2.6-.4ZM25.2,41.4v3.2h9.4l-7.3,17.2h4.5l7.1-17.7v-2.7h-13.8Z"/>
    <path class="st5" d="M3.4-.1C1.5-.1,0,1.4,0,3.3v1.1C0,2.6,1.5,1,3.4,1h57.4c1.9,0,3.4,1.5,3.4,3.4v-1.1c0-1.9-1.5-3.4-3.4-3.4H3.4Z"/>
  </g>
  <g class="st7">
    <path class="st11" d="M54.4,9.5l-3.4,3.4v1.7l5.1-5.1h-1.7ZM22.4,34v1.7c0,1.4,1.1,2.5,2.5,2.5h23.6c1.4,0,2.5-1.1,2.5-2.5v-1.7c0,1.4-1.1,2.5-2.5,2.5h-23.6c-1.4,0-2.5-1.1-2.5-2.5Z"/>
    <path class="st11" d="M8.9,24.7l5.1,5.1v-1.7l-3.4-3.4h-1.7ZM13.9,49.1v1.7c0,1.4,1.1,2.5,2.5,2.5h23.6c1.4,0,2.5-1.1,2.5-2.5v-1.7c0,1.4-1.1,2.5-2.5,2.5h-23.6c-1.4,0-2.5-1.1-2.5-2.5Z"/>
    <path class="st24" d="M24.9,8.7c-1.4,0-2.5,1.1-2.5,2.5v23.6c0,1.4,1.1,2.5,2.5,2.5h23.6c1.4,0,2.5-1.1,2.5-2.5V13.8l5.1-5.1h-31.2Z"/>
    <path class="st14" d="M24.9,8.7c-1.4,0-2.5,1.1-2.5,2.5v.8c0-1.4,1.1-2.5,2.5-2.5h30.4l.8-.8h-31.2Z"/>
    <path class="st10" d="M8.9,23.9l5.1,5.1v21.1c0,1.4,1.1,2.5,2.5,2.5h23.6c1.4,0,2.5-1.1,2.5-2.5v-23.6c0-1.4-1.1-2.5-2.5-2.5H8.9Z"/>
    <path class="st11" d="M19,33.1v1.7h18.6v-1.7h-18.6ZM19,38.2v1.7h18.6v-1.7h-18.6ZM19,43.2v1.7h14.2v-1.7h-14.2Z"/>
    <path class="st23" d="M19,32.3v1.7h18.6v-1.7h-18.6ZM19,37.3v1.7h18.6v-1.7h-18.6ZM19,42.4v1.7h14.2v-1.7h-14.2Z"/>
    <path class="st14" d="M8.9,23.9l.8.8h30.4c1.4,0,2.5,1.1,2.5,2.5v-.8c0-1.4-1.1-2.5-2.5-2.5H8.9Z"/>
  </g>
  <g class="st7">
    <path class="st11" d="M44.4,33.3l3.8,8.6c7.2-1.6,8.3-3.9,8.3-4.1,0-.1,0-.2,0-.3v-.5s0,0,0,0v.6c-1.7-1.8-7.3-3.4-12.2-4.2Z"/>
    <path class="st11" d="M44.3,33l-6.1,8.7c3.9,4.9,8,8.9,11.1,9.7,0,0,.2,0,.2,0,0,0,.1-.1.2-.2.1-.2,2.5-4.1-5.4-18.3Z"/>
    <path class="st11" d="M16.7,40l-.7,2.1c-2.5,6.9-1.2,9-1.1,9.2,0,0,0,.2.2.2.2,0,.3,0,.5,0,0,0,0,0,0,0,2.3-.7,5.6-2.7,10.4-8.6l-9.3-2.7Z"/>
    <path class="st11" d="M16.4,25.3c-2.7-7.1-1.4-9.3-1.3-9.4.2-.2.4-.4.6-.5l7.4-4.8c-.6,3.1,1,7.9,3.5,13.4l-10.2,1.4Z"/>
    <ellipse class="st2" cx="32.3" cy="32.3" rx="14.6" ry="15"/>
    <path class="st20" d="M43.9,31.4c11.1,1.8,12.7,4.7,12.7,4.7v.5c0,0,0,.2,0,.3,0,.1-1.1,2.5-8.3,4.1l-4.2-9.6Z"/>
    <path class="st2" d="M16,41.2c-2.5,6.9-1.2,9-1.1,9.2,0,0,0,.2.2.2.2,0,.3,0,.5,0,0,0,4.6,1.1,9.9-6.7h0l1.7-1.6-10.5-3.1-.7,2.1Z"/>
    <path class="st25" d="M32.5,15c-6.1-6.8-9-6.4-9.2-6.4s-.2,0-.3,0c-.2,0-.4.8-.4.8,0,0-1.3,3.8,3.9,13.9l6-8.4Z"/>
    <path class="st25" d="M37.8,41.4c8.2,9.7,11.1,9.1,11.1,9.1.2,0,.4,0,.6,0,0,0,.1-.1.2-.2.1-.2,2.5-4.1-5.4-18.3l-6.4,9.3Z"/>
    <path class="st11" d="M8.8,36.9c-.3.2-.6.5-.8.7,0,0,0,.2,0,.2,0,.2,2.1,4.6,19.1,5.3l-1.1-1.9c-11.6-.6-15.8-3-17.2-4.4Z"/>
    <path class="st20" d="M27.2,42.2c-17-.7-19-5.1-19.1-5.3,0,0,0-.2,0-.3,0-.3.6-.9.6-.9,0,0,4.5-2.8,12-4.4l6.5,10.9Z"/>
    <path class="st2" d="M38.9,22.4c4.5-10.8,2.7-13.2,2.7-13.2,0-.1,0-.3-.1-.4,0,0-.2,0-.3,0-.2,0-4.8-.7-14.6,13.4l12.3.3Z"/>
    <path class="st19" d="M16.4,23.5c-2.7-7.1-1.4-9.3-1.3-9.4.2-.2.4-.4.6-.5l7.4-4.8c-.6,3.1,1,7.9,3.5,13.4l-10.2,1.4Z"/>
    <path class="st1" d="M39.8,21.7c-1.3,0-5.1-.2-7.5-.2-21.7,0-24.1,4.8-24.2,5,0,.3,0,.5,0,.8v9.3c2.1-2.2,6.8-3.7,12.4-4.6,3.7-.5,7.3-.8,11-.9h4.8c1,.2,4.9-9.4,3.6-9.5Z"/>
    <path class="st1" d="M40.9,31.9c5.3.5,13.4,2.5,15.6,4.7v-9c0-.3,0-.6,0-.8,0-.1-2.2-3.7-11.8-4.4l-3.8,9.5Z"/>
    <path class="st11" d="M41.5,9.6c1.1,5.2-3.1,15.1-9,24.2-9.1,13.7-14.4,17-17.5,17.7l7.6,5.1c.2.1.5.3.7.3.2,0,4.5,1,15.3-14.4.4-.5,1.5-2.3,2.3-3.5,11.8-18.7,8.9-23.6,8.8-23.8-.2-.2-.4-.4-.6-.5l-7.6-5.1Z"/>
    <path class="st12" d="M32.3,21.5c-21.7,0-24.1,4.8-24.2,5,0,.3,0,.5,0,.8v.9c0-.3,0-.6,0-.8.1-.3,2.5-5,24.2-5s6.2.2,7.5.2c0,0,.2,0,.2.2.1-.6,0-1.1-.2-1.1-1.3,0-5.1-.2-7.5-.2ZM44.7,22.4l-3.8,9.5c.1,0,.2,0,.3,0l3.4-8.6c9.5.7,11.7,4.2,11.8,4.4,0,.3,0,.6,0,.8v-.9c0-.3,0-.6,0-.8,0-.1-2.2-3.7-11.8-4.4Z"/>
    <path class="st31" d="M41.5,8.7c1.1,5.2-3.1,15.1-9,24.2-9.1,13.7-14.4,17-17.5,17.7l7.6,5.1c.2.1.5.3.7.3.2,0,4.5,1,15.3-14.4.4-.5,1.5-2.3,2.3-3.5,11.8-18.7,8.9-23.6,8.8-23.8-.2-.2-.4-.4-.6-.5l-7.6-5.1Z"/>
    <path class="st11" d="M31.4,32.2c-3.7,0-7.3.3-10.9.9.8,1.4,2.4,4.2,3.4,5.8,11.8,18.7,17.3,17.9,17.6,17.9.3,0,.5-.2.7-.4l7.3-4.8c-4.8-1.1-12.2-10.1-17.6-18.8l-.3-.6h-.2Z"/>
    <path class="st12" d="M41.5,8.7c0,.3.1.7.1,1l7.5,5c.2.1.4.3.6.5,0,0,.3.6.4,1.8,0-1.9-.3-2.6-.4-2.7-.2-.2-.4-.4-.6-.5l-7.6-5.1ZM41.6,11c-.2,5.5-4.1,14-9.1,21.9-9.1,13.7-14.4,17-17.5,17.7l.9.6c3.2-1.1,8.3-5,16.5-17.4,5.4-8.4,9.3-17.4,9.1-22.8Z"/>
    <path class="st19" d="M31.4,31.2c-3.7,0-7.3.3-10.9.9.8,1.4,2.4,4.2,3.4,5.8,11.8,18.7,17.3,17.9,17.6,17.9.3,0,.5-.2.7-.4l7.3-4.8c-4.8-1.1-12.2-10.1-17.6-18.8l-.3-.6h-.2Z"/>
    <path class="st11" d="M31.4,31.2c-3.7,0-7.3.3-11,.9-5.6.9-10.3,2.4-12.4,4.6v.9c2.1-2.2,6.8-3.7,12.4-4.6,3.7-.5,7.3-.8,11-.9h1s0,0,0-.1c.2-.3.3-.5.5-.8h-1.6ZM43.9,32.3c-.2.3-.3.5-.5.8,5.1.8,11.3,2.5,13.1,4.4v-.9c-1.8-1.8-7.7-3.5-12.7-4.3Z"/>
    <path class="st14" d="M23.1,8.7l-7.4,4.8c-.2.1-.4.3-.6.5,0,0-.5.8-.4,2.6,0-1.2.3-1.7.4-1.7.2-.2.4-.4.6-.5l7.3-4.8c0-.3,0-.7.1-1ZM22.9,10.7c-.1,2.8,1.1,6.6,3,10.9.1,0,.3,0,.4,0-1.9-4.3-3.2-8-3.4-10.9ZM31.4,31.2c-.2,0-.3,0-.5,0l1,1.5c5,8.2,11.9,16.6,16.7,18.5l.9-.6c-4.8-1.1-12.2-10.1-17.6-18.8l-.3-.6h-.2Z"/>
  </g>
  <g class="st7">
    <path class="st11" d="M12.2,17c-1.5,0-2.7,1.2-2.7,2.8v30.5c0,1.5,1.2,2.8,2.7,2.8h5.3v-6h12v6h25.3c1.5,0,2.7-1.2,2.7-2.8v-30.5c0-1.5-1.2-2.8-2.7-2.8H12.2Z"/>
    <path class="st0" d="M12.2,16c-1.5,0-2.7,1.2-2.7,2.8v30.5c0,1.5,1.2,2.8,2.7,2.8h5.3v-6h12v6h25.3c1.5,0,2.7-1.2,2.7-2.8v-30.5c0-1.5-1.2-2.8-2.7-2.8H12.2Z"/>
    <rect class="st17" x="27.5" y="26" width="12" height="12" rx="2.4" ry="2.4"/>
    <path class="st13" d="M3.5,13h4v42"/>
    <path class="st30" d="M3.5,12h4v42"/>
    <g class="st15">
      <rect x="31.5" y="47" width="4" height="8"/>
      <rect x="37.5" y="47" width="4" height="8"/>
      <rect x="43.5" y="47" width="4" height="8"/>
      <rect x="49.5" y="47" width="4" height="8"/>
    </g>
    <g>
      <rect class="st21" x="31.5" y="46" width="4" height="8"/>
      <rect class="st21" x="37.5" y="46" width="4" height="8"/>
      <rect class="st21" x="43.5" y="46" width="4" height="8"/>
      <rect class="st21" x="49.5" y="46" width="4" height="8"/>
    </g>
    <g>
      <rect class="st29" x="29.5" y="23" width="2" height="4"/>
      <rect class="st29" x="35.5" y="23" width="2" height="4"/>
      <rect class="st29" x="29.5" y="37" width="2" height="4"/>
      <rect class="st29" x="35.5" y="37" width="2" height="4"/>
      <rect class="st29" x="38.5" y="28" width="4" height="2"/>
      <rect class="st29" x="38.5" y="34" width="4" height="2"/>
      <rect class="st29" x="24.5" y="28" width="4" height="2"/>
      <rect class="st29" x="24.5" y="34" width="4" height="2"/>
    </g>
    <path class="st12" d="M3.5,10c-1.1,0-2,.9-2,2,0,.2,0,.4,0,.5.2-.9,1.1-1.5,2-1.5h4c1.1,0,2,.9,2,2v-1c0-1.1-.9-2-2-2h-4Z"/>
    <path class="st12" d="M54.8,16H12.2c-1.5,0-2.7,1.2-2.7,2.8v1c0-1.5,1.2-2.8,2.7-2.8h42.7c1.5,0,2.7,1.2,2.7,2.8v-1c0-1.5-1.2-2.8-2.7-2.8Z"/>
  </g>
  <g class="st7">
    <path class="st4" d="M0,60.4v2.3c0,1.9,1.5,3.5,3.4,3.5h57c1.9,0,3.4-1.6,3.4-3.5v-2.3c0,1.9-1.5,3.5-3.4,3.5H3.5c-1.9,0-3.4-1.6-3.4-3.5Z"/>
    <path class="st6" d="M3.5-.1h57c1.9,0,3.4,1.6,3.4,3.5v58.2c0,1.9-1.5,3.5-3.4,3.5H3.5c-1.9,0-3.4-1.6-3.4-3.5V3.4C0,1.5,1.6-.1,3.5-.1Z"/>
    <path class="st5" d="M3.5-.1C1.6-.1,0,1.4,0,3.4v1.2C0,2.6,1.6,1.1,3.5,1.1h57c1.9,0,3.4,1.6,3.4,3.5v-1.2c0-1.9-1.5-3.5-3.4-3.5H3.5Z"/>
    <path class="st18" d="M25.1,9.2c-8.8,0-16,7.3-16,16.3,0,8.1,5.8,14.9,13.7,16.1v14.1h31.9V23.2h-13.9c-1.1-8-7.8-13.9-15.8-14h0ZM25.1,11.5c6.7,0,12.4,4.9,13.5,11.6h-15.8v16.1c-6.6-1.1-11.4-6.9-11.4-13.7,0-7.7,6.1-14,13.7-14h0ZM25.1,25.5h13.7c0,7.7-6.1,14-13.7,14v-14ZM41.1,25.5h11.4v27.9h-27.4v-11.6c8.8,0,16-7.3,16-16.3Z"/>
  </g>
  <g>
    <path class="st4" d="M0,59.2v2.7c0,2.2,1.5,4,3.4,4h57.1c1.9,0,3.4-1.8,3.4-4v-2.7c0,2.2-1.5,4-3.4,4H3.5c-1.9,0-3.4-1.8-3.4-4Z"/>
    <path class="st3" d="M64,60.5V3.9c0-2.2-1.5-4-3.4-4H3.5C1.6-.2,0,1.6,0,3.9v56.7c0,2.2,1.5,4,3.4,4h57.1c1.9,0,3.4-1.8,3.4-4Z"/>
    <path class="st8" d="M3.5-.2C1.6-.2,0,1.6,0,3.9v1.3C0,3,1.6,1.2,3.5,1.2h57.1c1.9,0,3.4,1.8,3.4,4v-1.3c0-2.2-1.5-4-3.4-4H3.5Z"/>
    <ellipse class="st11" cx="32" cy="49.7" rx="6.9" ry="8.1"/>
    <ellipse class="st16" cx="32" cy="48.4" rx="6.9" ry="8.1"/>
    <ellipse class="st11" cx="52.6" cy="49.7" rx="6.9" ry="8.1"/>
    <ellipse class="st16" cx="52.6" cy="48.4" rx="6.9" ry="8.1"/>
    <ellipse class="st18" cx="11.5" cy="48.4" rx="6.9" ry="8.1"/>
    <ellipse class="st18" cx="32" cy="16" rx="6.9" ry="8.1"/>
  </g>
</svg>