<?xml version="1.0" encoding="UTF-8" standalone="no"?>
<svg
   id="_图层_1"
   version="1.1"
   viewBox="0 0 64 64"
   width="64"
   height="64"
   sodipodi:docname="krita.svg"
   xml:space="preserve"
   inkscape:version="1.4 (e7c3feb100, 2024-10-09)"
   xmlns:inkscape="http://www.inkscape.org/namespaces/inkscape"
   xmlns:sodipodi="http://sodipodi.sourceforge.net/DTD/sodipodi-0.dtd"
   xmlns="http://www.w3.org/2000/svg"
   xmlns:svg="http://www.w3.org/2000/svg"><sodipodi:namedview
     id="namedview14"
     pagecolor="#ffffff"
     bordercolor="#999999"
     borderopacity="1"
     inkscape:showpageshadow="2"
     inkscape:pageopacity="0"
     inkscape:pagecheckerboard="0"
     inkscape:deskcolor="#d1d1d1"
     inkscape:zoom="10.6875"
     inkscape:cx="32"
     inkscape:cy="32"
     inkscape:window-width="1920"
     inkscape:window-height="939"
     inkscape:window-x="0"
     inkscape:window-y="34"
     inkscape:window-maximized="1"
     inkscape:current-layer="_图层_1" /><!-- Generator: Adobe Illustrator 29.0.1, SVG Export Plug-In . SVG Version: 2.1.0 Build 192)  --><defs
     id="defs1"><style
       id="style1">
      .st0 {
        fill: #4f4f4f;
      }

      .st1, .st2, .st3, .st4, .st5, .st6 {
        display: none;
      }

      .st1, .st7 {
        fill: #de554c;
      }

      .st2, .st3, .st8, .st9, .st6 {
        isolation: isolate;
      }

      .st2, .st9, .st6 {
        opacity: .2;
      }

      .st3, .st10, .st6 {
        fill: #fff;
      }

      .st3, .st8 {
        opacity: .1;
      }

      .st11 {
        fill: #ffaa4f;
      }

      .st12 {
        fill: #f2dbb7;
      }

      .st13 {
        fill: none;
        stroke: #3f3f3f;
        stroke-width: 3px;
      }

      .st5 {
        fill: #69aa35;
      }

      .st14 {
        fill: #2898b5;
      }

      .st15 {
        fill: #e68673;
      }
    </style></defs><path
     class="st7"
     d="M47.5,64.1H13.8c-7.6,0-13.8-6.3-13.8-13.8V13.7C0,6.2,6.2,0,13.7,0h36.6c7.5,0,13.7,6.2,13.7,13.7v36.6c0,7.5-6.2,13.7-13.7,13.7h-2.9.1Z"
     id="path1"
     style="fill:#ffffff;fill-opacity:1" /><g
     class="st4"
     id="g8"><ellipse
       class="st2"
       cx="32"
       cy="33.2"
       rx="32"
       ry="32"
       id="ellipse1" /><ellipse
       class="st5"
       cx="32"
       cy="32"
       rx="32"
       ry="32"
       id="ellipse2" /><path
       class="st8"
       d="M33.1,18.3c-6.8,0-12.3,4.5-16.2,8.7s-6.3,8.4-6.3,8.4c-.4.7-.4,1.6,0,2.4,0,0,8.6,13.6,24.8,13.6s8.8-1.9,11.5-4.4c2.4-2.3,3.9-5,4.9-7.4.9-.5,1.9-1,2.9-1.8,1.2-1,2.4-2.6,2.4-4.6s-1.5-3.7-2.9-4.4c-1-.5-1.9-.7-2.9-.8-2.6-4.1-8.1-9.6-18.2-9.6Z"
       id="path2" /><path
       class="st3"
       d="M32,0C14.3,0,0,14.3,0,32c0,.2,0,.4,0,.7C.3,15.2,14.5,1.2,32,1.1c17.4,0,31.6,13.9,32,31.3,0-.2,0-.3,0-.5C64,14.3,49.7,0,32,0Z"
       id="path3" /><path
       class="st0"
       d="M33.1,17.2c-6.8,0-12.3,4.5-16.2,8.7s-6.3,8.4-6.3,8.4c-.4.7-.4,1.6,0,2.4,0,0,8.6,13.6,24.8,13.6s8.8-1.9,11.5-4.4c2.4-2.3,3.9-5,4.9-7.4.9-.5,1.9-1,2.9-1.8,1.2-1,2.4-2.6,2.4-4.6s-1.5-3.7-2.9-4.4c-1-.5-1.9-.7-2.9-.8-2.6-4.1-8.1-9.6-18.2-9.6Z"
       id="path4" /><path
       class="st15"
       d="M48,28.6s6.9,0,6.9,3.4-6.9,5.7-6.9,5.7v-9.1Z"
       id="path5" /><path
       class="st12"
       d="M12.6,35.4s2.3-4,6-8,4.1-4,6.5-5.5c3.5,2.1,8,3.2,8,3.2l17.1,5.7,1.1,1.1s-2.3,16-16,16-22.9-12.6-22.9-12.6Z"
       id="path6" /><path
       class="st0"
       d="M33.1,19.4c-3.6,0-7,1.6-9.9,3.8-1,2-1.5,4.3-1.5,6.5,0,8.2,6.7,14.9,14.9,14.9,7.5,0,13.8-5.6,14.7-13-.7-2-4.7-12.2-18.2-12.2Z"
       id="path7" /><path
       class="st14"
       d="M32,38.9s4.6,1.1,6.9,1.1c4,0,9.1-4.6,9.1-4.6,0,0-3.4,6.9-9.1,6.9s-6.9-3.4-6.9-3.4Z"
       id="path8" /><circle
       class="st10"
       cx="30.9"
       cy="27.4"
       r="4.6"
       id="circle8" /></g><g
     id="g15"
     transform="matrix(1.0080585,0,0,0.97416163,0.7967486,1.1011864)"><ellipse
       style="fill:#ffffff;stroke:#000000;stroke-width:0;stroke-linecap:round;stroke-linejoin:round"
       cx="31.988001"
       cy="32.016998"
       rx="27.306999"
       ry="27.312"
       id="ellipse1-3" /><path
       style="fill:#e040fb;stroke:#000000;stroke-width:0;stroke-linecap:round;stroke-linejoin:round"
       d="M 56.243074,18.010753 A 28.007206,28.012162 0 0 0 17.98452,7.7575896 28.007206,28.012162 0 0 0 7.7002714,18.134306 L 31.988122,32.016834 Z"
       id="path1-6" /><path
       style="fill:#fdfd4b;stroke:#000000;stroke-width:0;stroke-linecap:round;stroke-linejoin:round"
       d="m 56.243074,18.010753 -24.254952,14.006081 -0.12444,27.98262 a 28.007206,28.012162 0 0 0 14.128042,-3.723376 28.007206,28.012162 0 0 0 10.25135,-38.265325 z"
       id="path2-7" /><path
       style="fill:#18ffff;stroke:#000000;stroke-width:0;stroke-linecap:round;stroke-linejoin:round"
       d="M 31.988122,32.016834 7.7002714,18.134306 a 28.007206,28.012162 0 0 0 0.0329,27.88861 28.007206,28.012162 0 0 0 24.1305186,13.976538 z"
       id="path3-5" /><path
       style="opacity:0.1"
       d="M 37.516384,35.73192 C 33.191824,39.714544 24.87193,33.397296 21.360204,29.429762 17.748284,25.349012 4.2614698,11.585746 3.275685,10.693119 2.2899472,9.8005245 1.5048836,8.6982115 2.3765278,7.6014826 3.283934,6.5333968 4.5387736,7.064057 5.627094,7.8318234 6.715485,8.5996175 23.14344,18.783972 27.934444,21.429988 c 4.65805,2.572612 12.637862,9.303718 9.58194,14.301932 z"
       id="path5-5" /><path
       style="fill:#4f4f4f"
       d="M 37.516384,34.73192 C 33.191824,38.714544 24.87193,32.397296 21.360204,28.429762 17.748284,24.349012 4.2614698,10.585746 3.275685,9.6931192 2.2899472,8.8005258 1.5048836,7.698213 2.3765278,6.601484 3.283934,5.5333982 4.5387736,6.0640584 5.627094,6.8318248 6.715485,7.5996192 23.14344,17.783972 27.934444,20.429988 c 4.65805,2.572612 12.637862,9.303718 9.58194,14.301932 z"
       id="path6-6" /><path
       style="opacity:0.1"
       d="M 43.8,38.679568 C 28,52.44542 13.540881,40.150366 11.443855,35.332328 c 1.24008,8.362752 6.972087,15.846426 15.631347,18.726502 6.539872,2.175122 20.001364,0.73345 21.014166,-5.935946 z"
       id="path7-2" /><path
       style="fill:#4883f7"
       d="M 43.8,37.679568 C 28,51.44542 13.540881,39.150366 11.443855,34.332328 c 1.24008,8.362752 6.972087,15.846426 15.631347,18.726502 6.539872,2.175122 20.001364,0.73345 21.014166,-5.935946 z"
       id="path8-9" /><path
       style="opacity:0.1"
       d="m 43.554412,40.642458 c -1.351708,0.608608 -1.205528,1.0485 -2.405724,0.85874 -0.827794,-0.13088 -7.998968,-5.474892 -7.998968,-5.474892 -0.363482,-0.857552 0.07254,-2.036452 0.891568,-2.969516 0.759638,-0.980408 1.843016,-1.643106 2.771546,-1.470434 0,0 6.798724,5.79544 7.099822,6.564718 0.43655,1.115372 -0.03144,1.065532 -0.358244,2.491384 z"
       id="path9-1" /><path
       style="fill:#9b9b9b"
       d="m 43.554412,39.642458 c -1.351708,0.608608 -1.205528,1.0485 -2.405724,0.85874 -0.827794,-0.13088 -7.998968,-5.474892 -7.998968,-5.474892 -0.363482,-0.857552 0.07254,-2.036452 0.891568,-2.969516 0.759638,-0.980408 1.843016,-1.643106 2.771546,-1.470434 0,0 6.798724,5.79544 7.099822,6.564718 0.43655,1.115372 -0.03144,1.065532 -0.358244,2.491384 z"
       id="path10-2" /><path
       style="opacity:0.1"
       d="m 44.886558,52.367922 c 5.083304,-2.859306 6.278442,-8.011695 4.271252,-11.65594 -1.559778,-2.831911 -4.120846,-3.367326 -5.889766,-1.998014 -1.754804,1.358387 -1.9095,2.977027 -1.386052,4.584618 1.067492,3.27876 5.645154,5.687737 3.004566,9.069336 z"
       id="path11-7" /><path
       style="fill:#3f3f3f"
       d="m 44.886558,51.367922 c 5.083304,-2.859306 6.278442,-8.011695 4.271252,-11.65594 -1.559778,-2.831911 -4.120846,-3.367326 -5.889766,-1.998014 -1.754804,1.358387 -1.9095,2.977027 -1.386052,4.584618 1.067492,3.27876 5.645154,5.687737 3.004566,9.069336 z"
       id="path12-0" /></g></svg>
