<?xml version="1.0" encoding="UTF-8"?>
<svg id="_图层_1" data-name="图层_1" xmlns="http://www.w3.org/2000/svg" version="1.1" viewBox="0 0 128 128" width="64" height="64">
  <!-- Generator: Adobe Illustrator 29.0.1, SVG Export Plug-In . SVG Version: 2.1.0 Build 192)  -->
  <defs>
    <style>
      .st0 {
        fill: #672168;
      }

      .st1 {
        stroke: #c46fff;
      }

      .st1, .st2, .st3, .st4 {
        fill: none;
        stroke-linecap: round;
        stroke-linejoin: round;
        stroke-width: 6px;
      }

      .st5, .st6, .st7, .st8 {
        fill: #fff;
      }

      .st5, .st2, .st9, .st7, .st3, .st8 {
        isolation: isolate;
      }

      .st5, .st10, .st3 {
        display: none;
      }

      .st5, .st8 {
        opacity: .1;
      }

      .st11 {
        fill: #e74c3c;
      }

      .st2, .st9, .st7, .st3 {
        opacity: .2;
      }

      .st2, .st3 {
        stroke: #000;
      }

      .st12 {
        fill: #c46fff;
      }

      .st13 {
        fill: #d2d2d2;
      }

      .st4 {
        stroke: #4256e3;
      }
    </style>
  </defs>
  <rect class="st6" width="127.8" height="127.8" rx="25.9" ry="25.9"/>
  <g class="st10">
    <path class="st9" d="M22.9,63.8c0,.5,0,.9,0,1.4,0,22.2,18,40.1,40.3,40.1s40.3-17.9,40.3-40.1,0-1,0-1.4c-.8,21.5-18.4,38.6-40.3,38.6s-39.5-17.1-40.3-38.6h0Z"/>
    <path class="st0" d="M63.1,23.7h0c22.3,0,40.3,17.9,40.3,40.1h0c0,22.1-18.1,40.1-40.3,40.1h0c-22.3,0-40.3-17.9-40.3-40.1h0c0-22.1,18.1-40.1,40.3-40.1Z"/>
    <path class="st9" d="M63.1,36.6c-15.9,0-28.8,12.8-28.8,28.6h0c0,15.8,12.9,28.6,28.8,28.6h0c15.9,0,28.8-12.8,28.8-28.6h0c0-15.8-12.9-28.6-28.8-28.6h0ZM53.4,48.1c.3,0,.6,0,.9.3l25.2,15.3c.9.5,1.2,1.7.7,2.6-.2.3-.4.5-.7.7l-25.2,15.3c-.9.5-2,.2-2.5-.7-.2-.3-.2-.6-.2-.9v-30.5c0-1.1.8-1.9,1.8-1.9,0,0,0,0,0,0h0Z"/>
    <path class="st6" d="M63.1,35.2c-15.9,0-28.8,12.8-28.8,28.6,0,15.8,12.9,28.6,28.8,28.6h0c15.9,0,28.8-12.8,28.8-28.6h0c0-15.8-12.9-28.6-28.8-28.6ZM53.4,46.6c.3,0,.6,0,.9.3l25.2,15.3c.9.5,1.2,1.7.7,2.6-.2.3-.4.5-.7.7l-25.2,15.3c-.9.5-2,.2-2.5-.7-.2-.3-.2-.6-.2-.9v-30.5c0-1.1.8-1.9,1.8-1.9,0,0,0,0,0,0Z"/>
    <path class="st8" d="M63.1,23.7c-22.3,0-40.3,17.9-40.3,40.1s0,.3,0,.5c.5-21.7,18.3-39.1,40.3-39.1s39.8,17.4,40.3,39.1c0-.2,0-.3,0-.5,0-22.2-18-40.1-40.3-40.1Z"/>
  </g>
  <g class="st10">
    <path class="st3" d="M97.9,64.2v30.6c0,6-1.8,7.8-7.4,7.8h-52.9c-5.7,0-7.4-1.9-7.4-7.8v-8.6"/>
    <rect class="st6" x="30.1" y="30" width="67.8" height="71.3"/>
    <path class="st2" d="M30.1,69.7v-30.6c0-6,1.8-7.8,7.4-7.8h52.9c5.7,0,7.4,1.9,7.4,7.8v8.6"/>
    <path class="st4" d="M30.1,68.3v-30.6c0-6,1.8-7.8,7.4-7.8h52.9c5.7,0,7.4,1.9,7.4,7.8v8.6"/>
    <path class="st1" d="M97.9,62.9v30.6c0,6-1.8,7.8-7.4,7.8h-52.9c-5.7,0-7.4-1.9-7.4-7.8v-8.6"/>
    <path class="st4" d="M64,43.7v43.9"/>
    <path class="st4" d="M45.7,43.7v43.9"/>
    <path class="st4" d="M82.2,43.7v43.9"/>
    <ellipse class="st9" cx="64" cy="79.3" rx="7.8" ry="8.2"/>
    <ellipse class="st12" cx="64" cy="77.9" rx="7.8" ry="8.2"/>
    <ellipse class="st9" cx="45.7" cy="54.6" rx="7.8" ry="8.2"/>
    <ellipse class="st12" cx="45.7" cy="53.3" rx="7.8" ry="8.2"/>
    <ellipse class="st9" cx="82.2" cy="64.2" rx="7.8" ry="8.2"/>
    <ellipse class="st12" cx="82.2" cy="62.9" rx="7.8" ry="8.2"/>
    <path class="st5" d="M37.5,25.9c-3.2,0-6.3.5-8.6,2.9s-2.7,5.6-2.7,9v1.4c0-3.4.4-6.6,2.7-9,2.3-2.4,5.4-2.9,8.6-2.9h52.9c3.2,0,6.3.5,8.6,2.9s2.7,5.6,2.7,9v-1.4c0-3.4-.4-6.6-2.7-9s-5.4-2.9-8.6-2.9h-52.9Z"/>
  </g>
  <g>
    <path class="st9" d="M26.3,63.4c-.2,5.3.7,10.7,2.9,15.9,8.2,19.2,30.8,28.3,50.6,20.3,15.3-6.2,24.3-20.8,23.8-36-.5,14.2-9.4,27.4-23.8,33.3-19.8,8-42.4-1.1-50.6-20.3-1.8-4.3-2.8-8.8-2.9-13.2Z"/>
    <path class="st13" d="M100.6,49.1c-8.2-19.2-30.8-28.3-50.6-20.3-19.8,8-29.1,29.9-20.9,49.1,8.2,19.2,30.8,28.3,50.6,20.3,19.8-8,29.1-29.9,20.9-49.1h0Z"/>
    <path class="st11" d="M65.2,25.9c-4.7,0-9.4.8-14,2.5l9.8,25.1c1.3-.5,2.6-.7,3.9-.7,1.3,0,2.7.2,3.9.7l9.8-25.1c-4.3-1.6-8.9-2.5-13.5-2.5ZM28.8,50.1c-1.8,4.5-2.6,9.1-2.6,13.6,0,4.5.9,9,2.6,13.1l25.8-9.6c-.5-1.2-.7-2.5-.7-3.8,0-1.3.3-2.6.7-3.8l-25.8-9.6ZM101.1,50.1l-25.8,9.6c.5,1.2.7,2.5.7,3.8,0,1.3-.3,2.6-.7,3.8l25.8,9.6c1.6-4.2,2.5-8.6,2.6-13.1,0-4.5-.8-9.1-2.6-13.6ZM61,73.5l-9.8,25.1c4.6,1.7,9.4,2.5,14,2.5,4.7,0,9.2-.9,13.5-2.5l-9.8-25.1c-1.3.5-2.6.7-3.9.7-1.3,0-2.7-.2-3.9-.7Z"/>
    <path class="st7" d="M65.2,25.9c-5,0-10.2.9-15.1,2.9-15.3,6.2-24.3,20.8-23.8,36,0,0,0,0,0,0,0-14.7,8.9-28.6,23.8-34.6,4.9-2,10.1-2.9,15.1-2.9,15.1,0,29.3,8.8,35.5,23.2,1.9,4.5,2.8,9,2.9,13.6,0-5-.8-10-2.9-14.9-6.2-14.4-20.4-23.1-35.5-23.2Z"/>
  </g>
</svg>