<?xml version="1.0" encoding="UTF-8"?>
<svg id="_图层_1" xmlns="http://www.w3.org/2000/svg" version="1.1" viewBox="0 0 64 64" width="64" height="64">
  <!-- Generator: Adobe Illustrator 29.0.1, SVG Export Plug-In . SVG Version: 2.1.0 Build 192)  -->
  <defs>
    <style>
      .st0, .st1, .st2, .st3, .st4, .st5, .st6, .st7 {
        isolation: isolate;
      }

      .st0, .st1, .st8, .st9, .st6, .st10 {
        display: none;
      }

      .st0, .st2, .st4, .st5, .st6 {
        opacity: .2;
      }

      .st1, .st11, .st5, .st6, .st7 {
        fill: #fff;
      }

      .st1, .st3, .st12, .st7 {
        opacity: .1;
      }

      .st2 {
        fill-rule: evenodd;
      }

      .st13 {
        fill: #38458f;
      }

      .st14 {
        fill: #3f3f3f;
      }

      .st15 {
        fill: #4d4d4d;
      }

      .st16 {
        fill: #048ede;
      }

      .st17 {
        fill: #07aef5;
      }

      .st18 {
        fill: #999ca1;
      }

      .st19 {
        fill: #eef8ff;
      }

      .st20 {
        fill: #434449;
      }

      .st21 {
        fill: #ff8b29;
      }

      .st9, .st22 {
        fill: #ef5a30;
      }

      .st23 {
        fill: #5ddf49;
        fill-opacity: 1;
      }

      .st24 {
        fill: #66686e;
      }

      .st10 {
        fill: #e4e4e4;
      }
    </style>
  </defs>
  <path class="st22" d="M50.4,64H13.8c-7.6,0-13.8-6.2-13.8-13.7V13.7C0,6.2,6.2,0,13.7,0h36.5c7.5,0,13.7,6.2,13.7,13.7v36.6c0,7.5-6.2,13.7-13.7,13.7h.1Z"/>
  <g class="st8">
    <path class="st0" d="M9.3,56.2v2c0,1.7,1.3,3,3,3h38c1.7,0,3-1.3,3-3v-2c0,1.7-1.3,3-3,3H12.3c-1.7,0-3-1.3-3-3Z"/>
    <path class="st10" d="M53.3,57.2V7.2c0-1.7-1.3-3-3-3H12.3c-1.7,0-3,1.3-3,3v50c0,1.7,1.3,3,3,3h38c1.7,0,3-1.3,3-3Z"/>
    <path class="st1" d="M12.3,4.2c-1.7,0-3,1.3-3,3v1c0-1.7,1.3-3,3-3h38c1.7,0,3,1.3,3,3v-1c0-1.7-1.3-3-3-3H12.3Z"/>
    <path class="st2" d="M63.2,46c-.5,8.5-7.5,15.1-16,15.2-8.4,0-15.4-6.5-16-14.8,0,.3,0,.6,0,.8,0,8.8,7.2,16,16,16s16-7.2,16-16c0-.4,0-.8,0-1.2h0Z"/>
    <circle class="st13" cx="47.3" cy="46.2" r="16"/>
    <path class="st11" d="M39.3,50.6v3.6h3.6l9-9-3.6-3.6-9,9ZM55,42.1c.4-.4.4-1,0-1.3l-2.2-2.2c-.4-.4-1-.4-1.3,0l-1.9,1.9,3.6,3.6,1.9-1.9Z"/>
  </g>
  <g class="st8">
    <path class="st4" d="M7.7,16.6l6.8-6.7c.9-.9,2.5-.9,3.4,0l6.8,6.7c.9.9.9,2.4,0,3.4l-6.8,6.7c-.9.9-2.5.9-3.4,0l-6.8-6.7c-.9-.9-.9-2.4,0-3.4Z"/>
    <path class="st4" d="M57,33.9h0c0-13.6-11.2-24.6-25-24.6h0c-13.8,0-25,11-25,24.6h0c0,13.6,11.2,24.6,25,24.6h0c13.8,0,25-11,25-24.6Z"/>
    <path class="st16" d="M7.7,15.8l6.8-6.7c.9-.9,2.5-.9,3.4,0l6.8,6.7c.9.9.9,2.4,0,3.4l-6.8,6.7c-.9.9-2.5.9-3.4,0l-6.8-6.7c-.9-.9-.9-2.4,0-3.4Z"/>
    <path class="st7" d="M16.3,8.3c-.6,0-1.2.2-1.7.7l-6.8,6.7c-.6.6-.8,1.4-.7,2.1,0-.5.3-.9.7-1.2l6.8-6.7c.5-.5,1.1-.7,1.7-.7s1.2.2,1.7.7l6.8,6.7c.4.4.6.8.7,1.2.1-.7,0-1.5-.7-2.1l-6.8-6.7c-.5-.5-1.1-.7-1.7-.7Z"/>
    <path class="st17" d="M57,33h0c0-13.6-11.2-24.6-25-24.6h0c-13.8,0-25,11-25,24.6h0c0,13.6,11.2,24.6,25,24.6h0c13.8,0,25-11,25-24.6Z"/>
    <ellipse class="st4" cx="32" cy="33.9" rx="18.1" ry="17.8"/>
    <ellipse class="st11" cx="32" cy="33" rx="18.1" ry="17.8"/>
    <g class="st12">
      <ellipse cx="32" cy="47.5" rx="2.6" ry="2.5"/>
      <ellipse cx="32" cy="20.3" rx="2.6" ry="2.5"/>
      <ellipse cx="18.2" cy="33.9" rx="2.6" ry="2.5"/>
      <ellipse cx="45.8" cy="33.9" rx="2.6" ry="2.5"/>
    </g>
    <path class="st21" d="M38.5,21.9h0c1.2.7,1.7,2.1,1.1,3.2l-5.5,9.5c-.6,1-2.1,1.3-3.3.6h0c-1.2-.7-1.7-2.1-1.1-3.2l5.5-9.5c.6-1,2.1-1.3,3.3-.6Z"/>
    <ellipse class="st3" cx="32" cy="33.9" rx="4.3" ry="4.2"/>
    <ellipse class="st15" cx="32" cy="33" rx="4.3" ry="4.2"/>
    <g>
      <ellipse class="st15" cx="32" cy="46.6" rx="2.6" ry="2.5"/>
      <ellipse class="st15" cx="32" cy="19.4" rx="2.6" ry="2.5"/>
      <ellipse class="st15" cx="18.2" cy="33" rx="2.6" ry="2.5"/>
      <ellipse class="st15" cx="45.8" cy="33" rx="2.6" ry="2.5"/>
    </g>
    <path class="st5" d="M32,8.4c-13.8,0-25,11-25,24.6s0,.2,0,.3c.3-13.4,11.3-24.1,25-24.1s24.6,10.7,25,24.1c0,0,0-.2,0-.3,0-13.7-11.1-24.6-25-24.6Z"/>
  </g>
  <g class="st8">
    <path class="st4" d="M48.6,14.5l2.6,2.5c.9.9.9,2.4,0,3.4l-5.1,5c-.9.9-2.5.9-3.4,0l-2.6-2.5c-.9-.9-.9-2.4,0-3.4l5.1-5c.9-.9,2.5-.9,3.4,0Z"/>
    <path class="st4" d="M22,8.5c-1,0-1.8.8-1.9,1.7,0,1,.8,1.8,1.8,1.8,0,0,0,0,0,0h18c1,0,1.8-.8,1.9-1.7,0-1-.8-1.8-1.8-1.8,0,0,0,0,0,0h-18Z"/>
    <path class="st4" d="M31,56.4c12.5,0,22.6-9.9,22.6-22.1s-10.1-22.1-22.6-22.1-22.6,9.9-22.6,22.1,10.1,22.1,22.6,22.1Z"/>
    <path class="st20" d="M48.6,13.6l2.6,2.5c.9.9.9,2.4,0,3.4l-5.1,5c-.9.9-2.5.9-3.4,0l-2.6-2.5c-.9-.9-.9-2.4,0-3.4l5.1-5c.9-.9,2.5-.9,3.4,0Z"/>
    <path class="st7" d="M46.9,12.9c-.6,0-1.2.2-1.7.7l-5.1,5c-.6.6-.8,1.4-.7,2.1,0-.4.3-.9.7-1.2l5.1-5c.5-.5,1.1-.7,1.7-.7s1.2.2,1.7.7l2.6,2.5c.4.3.6.8.7,1.2.1-.7,0-1.5-.7-2.1l-2.6-2.5c-.5-.5-1.1-.7-1.7-.7Z"/>
    <path class="st24" d="M31,55.5c12.5,0,22.6-9.9,22.6-22.1,0-12.2-10.1-22.1-22.6-22.1s-22.6,9.9-22.6,22.1,10.1,22.1,22.6,22.1Z"/>
    <path class="st4" d="M31,52.8c10.5,0,19-8.3,19-18.6s-8.5-18.6-19-18.6-19,8.3-19,18.6,8.5,18.6,19,18.6Z"/>
    <path class="st19" d="M31,51.9c10.5,0,19-8.3,19-18.6s-8.5-18.6-19-18.6-19,8.3-19,18.6,8.5,18.6,19,18.6Z"/>
    <rect class="st3" x="30.1" y="33.3" width="19.9" height="1.8"/>
    <path class="st23" d="M31,14.7v18.6h19c0-10.3-8.5-18.6-19-18.6Z"/>
    <rect class="st14" x="30.1" y="32.4" width="19.9" height="1.8"/>
    <path class="st3" d="M31,36.9c1.5,0,2.7-1.2,2.7-2.7s-1.2-2.7-2.7-2.7-2.7,1.2-2.7,2.7,1.2,2.7,2.7,2.7Z"/>
    <path class="st24" d="M31,36c1.5,0,2.7-1.2,2.7-2.7s-1.2-2.7-2.7-2.7-2.7,1.2-2.7,2.7,1.2,2.7,2.7,2.7Z"/>
    <path class="st18" d="M31,34.2c.5,0,.9-.4.9-.9s-.4-.9-.9-.9-.9.4-.9.9.4.9.9.9Z"/>
    <path class="st20" d="M22,7.6c-1,0-1.8.8-1.9,1.7,0,1,.8,1.8,1.8,1.8,0,0,0,0,0,0h18c1,0,1.8-.8,1.9-1.7,0-1-.8-1.8-1.8-1.8,0,0,0,0,0,0h-18Z"/>
    <path class="st7" d="M31,11.2c-12.5,0-22.6,9.9-22.6,22.1s0,.2,0,.3c.3-12,10.3-21.6,22.6-21.6s22.3,9.6,22.6,21.6c0,0,0-.2,0-.3,0-12.2-10.1-22.1-22.6-22.1Z"/>
    <path class="st5" d="M31,14.7c-10.5,0-19,8.3-19,18.6s0,.2,0,.3c.3-10,8.7-18,19-18s18.7,8,19,18c0,0,0-.2,0-.3,0-10.3-8.5-18.6-19-18.6Z"/>
    <path class="st7" d="M22,7.6c-1,0-1.8.8-1.8,1.8,0,.2,0,.3,0,.5.2-.8.9-1.3,1.8-1.3h18c.8,0,1.6.5,1.8,1.3.3-.9-.3-1.9-1.3-2.2-.2,0-.3,0-.5,0h-18Z"/>
  </g>
  <g>
    <path class="st0" d="M3.2,1.1h57.7c1.8,0,3.2,1.4,3.2,3.2v57.5c0,1.8-1.4,3.2-3.2,3.2H3.2c-1.8,0-3.2-1.4-3.2-3.2V4.3C0,2.6,1.4,1.1,3.2,1.1Z"/>
    <path class="st9" d="M3.2,0h57.7c1.8,0,3.2,1.4,3.2,3.2v57.5c0,1.8-1.4,3.2-3.2,3.2H3.2c-1.8,0-3.2-1.4-3.2-3.2V3.2C0,1.4,1.4,0,3.2,0Z"/>
    <path class="st4" d="M12.6,10.3v45.7h9.2v-9.8l5.7,9.8h10.3l-8.4-14.8,8.4-14.8h-10.3l-5.7,9.8V10.3h-9.2ZM41.2,26.3l-8,13.7-.7,1.1.7,1.1,8,13.7h10.3l-8.4-14.8,8.4-14.8h-10.3Z"/>
    <path class="st11" d="M21.7,9.1h-9.2v45.7h9.2V9.1Z"/>
    <path class="st11" d="M41.2,25.1l-8,13.7-.7,1.1.7,1.1,8,13.7h10.3l-8.4-14.8,8.4-14.8h-10.3Z"/>
    <path class="st11" d="M27.5,25.1l-8,13.7-.7,1.1.7,1.1,8,13.7h10.3l-8.4-14.8,8.4-14.8h-10.3Z"/>
    <path class="st6" d="M3.2,0C1.4,0,0,1.4,0,3.2v1.1C0,2.6,1.4,1.1,3.2,1.1h57.7c1.8,0,3.2,1.4,3.2,3.2v-1.1c0-1.8-1.4-3.2-3.2-3.2H3.2Z"/>
  </g>
</svg>