<?xml version="1.0" encoding="UTF-8"?>
<svg id="_图层_1" xmlns="http://www.w3.org/2000/svg" version="1.1" viewBox="0 0 64 64" width="64" height="64">
  <!-- Generator: Adobe Illustrator 29.0.1, SVG Export Plug-In . SVG Version: 2.1.0 Build 192)  -->
  <defs>
    <style>
      .st0, .st1, .st2, .st3 {
        isolation: isolate;
      }

      .st0, .st1, .st4 {
        display: none;
      }

      .st0, .st2, .st3 {
        opacity: .2;
      }

      .st1 {
        fill: #fff;
        opacity: .1;
      }

      .st2 {
        fill: #041218;
      }

      .st4, .st5 {
        fill: #1e88e5;
      }

      .st6 {
        fill: #ebebeb;
      }
    </style>
  </defs>
  <path class="st5" d="M50.4,64H13.8c-7.6,0-13.8-6.2-13.8-13.7V13.7C0,6.2,6.2,0,13.7,0h36.6c7.5,0,13.7,6.2,13.7,13.7v36.6c0,7.5-6.2,13.7-13.7,13.7h.1Z"/>
  <g>
    <path class="st0" d="M3.2,7.1s-3.2,0-3.2,3v42.6c0,1.7,1.4,3,3.2,3h57.6c1.8,0,3.2-1.4,3.2-3V10.2c0-1.7-1.4-3-3.2-3H3.2Z"/>
    <path class="st4" d="M3.2,6s-3.2,0-3.2,3v42.6c0,1.7,1.4,3,3.2,3h57.6c1.8,0,3.2-1.4,3.2-3V9.1c0-1.7-1.4-3-3.2-3H3.2Z"/>
    <ellipse class="st3" cx="35.4" cy="25.9" rx="10.3" ry="10"/>
    <ellipse class="st2" cx="35.4" cy="25.9" rx="6.9" ry="6.6"/>
    <path class="st3" d="M35.4,24.8c-3.4,0-3.4,2.2-3.4,4.4,0,1.4,0,4.2,0,8.4,0,6.7,0,8.8,0,9.1-2.4-.2-6-1.2-7.6-2.4-1-.8-2.1-1.5-2.3-1.6-.9-.4-2.2-.1-3,.6-.5.5-.7.9-.8,1.7,0,.6,0,.8.2,1.2.1.3.3.6.5.8.1.2,2.1,2.7,4.4,5.6,4.2,5.4,8.5,7.4,9.2,7.6.4.1,23.4.1,23.9,0,.2,0,.5-.2.7-.4.3-.3.4-.5.7-1.2.7-2,1.3-5.1,1.5-6.8,0-2,0-2,0-3.7,0,0,0,0,0,0,0-1.4,0-2.6,0-3.2,0-2.2,0-4.4-3.4-4.4s-3.4,1.8-3.4,3.8c0,0,0,.1,0,.2,0-.5,0-1.4,0-1.7,0-2.2,0-4.4-3.4-4.4s-3.4,1.8-3.4,3.7c0,0,0,0,0,0,0,0,0-.1,0-.1,0-.4,0-1.1,0-1.4,0-2.2,0-4.4-3.4-4.4s-3.2,1.3-3.4,2.9c0,0,0,0,0,0,0,0,0-2.7,0-5.6s0-3.2,0-3.9c0-2.2,0-4.4-3.4-4.4h0Z"/>
    <path class="st6" d="M35.4,23.7c-3.4,0-3.4,2.2-3.4,4.4,0,1.4,0,4.2,0,8.4,0,6.7,0,8.8,0,9.1-2.4-.2-6-1.2-7.6-2.4-1-.8-2.1-1.5-2.3-1.6-.9-.4-2.2-.1-3,.6-.5.5-.7.9-.8,1.7,0,.6,0,.8.2,1.2.1.3.3.6.5.8.1.2,2.1,2.7,4.4,5.6,4.2,5.4,8.5,7.4,9.2,7.6.4.1,23.4.1,23.9,0,.2,0,.5-.2.7-.4.3-.3.4-.5.7-1.2.7-2,1.3-5.1,1.5-6.8,0-2,0-2,0-3.7,0,0,0,0,0,0,0-1.4,0-2.6,0-3.2,0-2.2,0-4.4-3.4-4.4s-3.4,1.8-3.4,3.8c0,0,0,.1,0,.2,0-.5,0-1.4,0-1.7,0-2.2,0-4.4-3.4-4.4s-3.4,1.8-3.4,3.7c0,0,0,0,0,0,0,0,0-.1,0-.1,0-.4,0-1.1,0-1.4,0-2.2,0-4.4-3.4-4.4s-3.2,1.3-3.4,2.9c0,0,0,0,0,0,0,0,0-2.7,0-5.6s0-3.2,0-3.9c0-2.2,0-4.4-3.4-4.4h0Z"/>
    <path class="st1" d="M3.2,6s-3.2,0-3.2,3v1.1c0-3,3.2-3,3.2-3h57.6c1.8,0,3.2,1.4,3.2,3v-1.1c0-1.7-1.4-3-3.2-3H3.2Z"/>
  </g>
</svg>