<?xml version="1.0" encoding="UTF-8" standalone="no"?>
<svg
   id="_图层_1"
   version="1.1"
   viewBox="0 0 64 64" width="64" height="64"
   sodipodi:docname="mintnanny.svg"
   xml:space="preserve"
   inkscape:version="1.4 (e7c3feb100, 2024-10-09)"
   xmlns:inkscape="http://www.inkscape.org/namespaces/inkscape"
   xmlns:sodipodi="http://sodipodi.sourceforge.net/DTD/sodipodi-0.dtd"
   xmlns="http://www.w3.org/2000/svg"
   xmlns:svg="http://www.w3.org/2000/svg"><sodipodi:namedview
     id="namedview26"
     pagecolor="#505050"
     bordercolor="#eeeeee"
     borderopacity="1"
     inkscape:showpageshadow="0"
     inkscape:pageopacity="0"
     inkscape:pagecheckerboard="0"
     inkscape:deskcolor="#505050"
     inkscape:zoom="10.6875"
     inkscape:cx="32"
     inkscape:cy="32"
     inkscape:window-width="1920"
     inkscape:window-height="939"
     inkscape:window-x="0"
     inkscape:window-y="34"
     inkscape:window-maximized="1"
     inkscape:current-layer="_图层_1"
     showguides="true"><sodipodi:guide
       position="24.129209,43.688782"
       orientation="1,0"
       id="guide47"
       inkscape:locked="false" /><sodipodi:guide
       position="39.990611,54.528988"
       orientation="1,0"
       id="guide48"
       inkscape:locked="false" /><sodipodi:guide
       position="31.294665,46.979418"
       orientation="0,-1"
       id="guide49"
       inkscape:locked="false" /><sodipodi:guide
       position="22.407535,30.743878"
       orientation="0,-1"
       id="guide50"
       inkscape:locked="false" /></sodipodi:namedview><!-- Generator: Adobe Illustrator 29.0.1, SVG Export Plug-In . SVG Version: 2.1.0 Build 192)  --><defs
     id="defs6"><style
       id="style1">
      .st0 {
        fill-opacity: .5;
      }

      .st0, .st1, .st2, .st3, .st4, .st5, .st6, .st7 {
        fill: #fff;
      }

      .st8 {
        fill: #133c9a;
      }

      .st2, .st9 {
        display: none;
      }

      .st3 {
        fill-opacity: .2;
      }

      .st4 {
        fill-opacity: .9;
      }

      .st10 {
        fill: #3370ff;
      }

      .st11 {
        fill: url(#_未命名的渐变_3);
      }

      .st12 {
        fill: url(#_未命名的渐变);
      }

      .st5 {
        fill-opacity: .3;
      }

      .st6 {
        fill-opacity: 0;
      }

      .st7 {
        fill-opacity: .7;
      }

      .st13 {
        fill: #00d6b9;
      }

      .st14 {
        fill: url(#_未命名的渐变_2);
      }
    </style><radialGradient
       id="_未命名的渐变"
       data-name="未命名的渐变"
       cx="123.9"
       cy="-40.2"
       fx="123.9"
       fy="-40.2"
       r="59.4"
       gradientTransform="translate(-26.8 25.5) scale(.6 -.7)"
       gradientUnits="userSpaceOnUse"><stop
         offset="0"
         stop-color="#db202e"
         id="stop1" /><stop
         offset="1"
         stop-color="#e01b24"
         id="stop2" /></radialGradient><radialGradient
       id="_未命名的渐变_2"
       data-name="未命名的渐变 2"
       cx="67.6"
       cy="26.8"
       fx="67.6"
       fy="26.8"
       r="105.2"
       gradientTransform="translate(-26.6 25.3) scale(.6 -.7)"
       gradientUnits="userSpaceOnUse"><stop
         offset="0"
         stop-color="#ffb648"
         id="stop3" /><stop
         offset="1"
         stop-color="#ff7800"
         stop-opacity="0"
         id="stop4" /></radialGradient><radialGradient
       id="_未命名的渐变_3"
       data-name="未命名的渐变 3"
       cx="61.7"
       cy="18.6"
       fx="61.7"
       fy="18.6"
       r="68"
       gradientTransform="translate(-26.8 25.8) scale(.6 -.7)"
       gradientUnits="userSpaceOnUse"><stop
         offset="0"
         stop-color="#c64600"
         id="stop5" /><stop
         offset="1"
         stop-color="#a51d2d"
         id="stop6" /></radialGradient></defs><path
     class="st1"
     d="M47.5,64.1H13.8c-7.6,0-13.8-6.3-13.8-13.8V13.7C0,6.2,6.2,0,13.7,0h36.6c7.5,0,13.7,6.2,13.7,13.7v36.6c0,7.5-6.2,13.7-13.7,13.7h-2.9.1Z"
     id="path6"
     style="fill:#f9f9f9;fill-opacity:1" /><g
     id="g72"
     transform="matrix(0.82066277,0,0,0.80493607,5.6413255,6.0931216)"><path
       style="opacity:0.2"
       d="m 4.2412762,32.190476 c -0.0118,0.334 -0.0508,0.662 -0.0508,1 0,15.512 12.4879998,28 27.9999998,28 15.512,0 28,-12.488 28,-28 0,-0.33768 -0.03904,-0.66528 -0.05078,-1 -0.528,15.042 -12.776,27 -27.95,27 -15.1744,0 -27.4219998,-11.958 -27.9499998,-27 z"
       id="path1" /><rect
       style="fill:#02a8f3"
       width="56"
       height="56"
       x="4"
       y="4"
       rx="28"
       ry="28"
       id="rect1" /><path
       style="opacity:0.2"
       d="m 32,13.001128 c -11.045402,0 -19.999436,8.954033 -19.999436,19.999436 C 12.000564,44.045967 20.954598,53 32,53 43.045403,53 51.999436,44.045967 51.999436,33.000564 51.999436,21.955161 43.045403,13.001128 32,13.001128 Z m -1.871041,3.988169 c 0.217606,-0.02278 0.491358,0.013 0.710918,0 0.02602,0.104077 -0.154156,0.477495 -0.402333,1.019501 -1.580387,3.452479 -1.673753,7.494845 -0.207026,9.655978 0.265424,0.391827 0.5078,0.764019 0.5078,0.812478 0,0.04848 -0.285708,0.101557 -0.609359,0.101557 -0.759779,2e-6 -1.480088,-0.461669 -2.949135,-1.624954 -0.652606,-0.516766 -1.499382,-0.949898 -1.828074,-1.015596 -0.516148,-0.103117 -0.65255,-0.05844 -1.320275,0.609359 -0.621253,0.62115 -0.812477,0.958653 -0.812477,1.527299 0,2.156385 2.561581,3.866181 7.320105,4.874862 6.462266,1.369638 8.051983,2.597833 8.230238,5.995925 0.2238,4.261114 -2.042602,7.473272 -7.011522,9.960657 -0.593075,0.296976 -0.969881,0.415747 -1.218716,0.511704 -0.110277,-0.0098 -0.198654,0.0098 -0.308585,0 -0.04228,-0.131736 -0.101557,-0.436476 -0.101557,-1.015595 0,-2.263207 -0.890111,-4.595543 -2.234311,-5.898272 -0.360824,-0.349736 -1.369144,-1.089387 -2.234313,-1.624954 -0.865138,-0.535535 -1.739025,-1.15641 -1.93354,-1.421834 -0.322273,-0.440456 -0.345322,-0.709716 -0.09766,-1.523395 0.451347,-1.486086 0.986796,-2.318743 2.031193,-3.25772 0.547536,-0.492268 1.097419,-0.900333 1.218715,-0.910133 0.121337,-0.0098 -0.69814,-0.259778 -1.929633,-0.511703 -1.231431,-0.252413 -3.037278,-0.780072 -3.968638,-1.117157 -1.703081,-0.616232 -4.00215,-1.9113 -4.878767,-2.847573 -0.03706,-0.0397 -0.06936,-0.06642 -0.101559,-0.101557 1.255988,-5.003071 4.780267,-9.10176 9.452858,-11.077812 0.977682,-0.413525 1.986784,-0.696427 3.050696,-0.914039 0.529939,-0.108317 1.077773,-0.151395 1.624954,-0.207026 z m 15.24957,7.624786 c 0.382039,0.236149 1.826446,3.360381 2.238219,4.882674 0.531623,1.965286 0.493144,5.363893 0,7.316199 -0.187695,0.74306 -0.431688,1.436878 -0.511706,1.523396 -0.08002,0.08652 -0.373471,-0.406777 -0.714824,-1.011692 -0.341374,-0.604821 -1.425778,-1.891427 -2.331964,-2.847576 -2.615676,-2.760066 -3.029199,-4.199393 -1.93354,-6.402163 0.552549,-1.110785 2.958139,-3.643313 3.253815,-3.460838 z"
       id="path2" /><path
       style="fill:#ffffff"
       d="M 32,12.000564 C 20.954598,12.000564 12.000564,20.954597 12.000564,32 12.000564,43.045403 20.954598,51.999436 32,51.999436 43.045403,51.999436 51.999436,43.045403 51.999436,32 51.999436,20.954597 43.045403,12.000564 32,12.000564 Z m -1.871041,3.988169 c 0.217606,-0.02278 0.491358,0.013 0.710918,0 0.02602,0.104077 -0.154156,0.477495 -0.402333,1.019501 -1.580387,3.452479 -1.673753,7.494845 -0.207026,9.655978 0.265424,0.391827 0.5078,0.764019 0.5078,0.812478 0,0.04848 -0.285708,0.101557 -0.609359,0.101557 -0.759779,2e-6 -1.480088,-0.461669 -2.949135,-1.624954 -0.652606,-0.516766 -1.499382,-0.949898 -1.828074,-1.015596 -0.516148,-0.103117 -0.65255,-0.05844 -1.320275,0.609359 -0.621253,0.62115 -0.812477,0.958653 -0.812477,1.527299 0,2.156385 2.561581,3.866181 7.320105,4.874862 6.462266,1.369638 8.051983,2.597833 8.230238,5.995925 0.2238,4.261114 -2.042602,7.473272 -7.011522,9.960657 -0.593075,0.296976 -0.969881,0.415747 -1.218716,0.511704 -0.110277,-0.0098 -0.198654,0.0098 -0.308585,0 -0.04228,-0.131736 -0.101557,-0.436476 -0.101557,-1.015595 0,-2.263207 -0.890111,-4.595543 -2.234311,-5.898272 -0.360824,-0.349736 -1.369144,-1.089387 -2.234313,-1.624954 -0.865138,-0.535535 -1.739025,-1.15641 -1.93354,-1.421834 -0.322273,-0.440456 -0.345322,-0.709716 -0.09766,-1.523395 0.451347,-1.486086 0.986796,-2.318743 2.031193,-3.25772 0.547536,-0.492268 1.097419,-0.900333 1.218715,-0.910133 0.121337,-0.0098 -0.69814,-0.259778 -1.929633,-0.511703 -1.231431,-0.252413 -3.037278,-0.780072 -3.968638,-1.117157 -1.703081,-0.616232 -4.00215,-1.9113 -4.878767,-2.847573 -0.03706,-0.0397 -0.06936,-0.06642 -0.101559,-0.101557 1.255988,-5.003071 4.780267,-9.10176 9.452858,-11.077812 0.977682,-0.413525 1.986784,-0.696427 3.050696,-0.914039 0.529939,-0.108317 1.077773,-0.151395 1.624954,-0.207026 z m 15.24957,7.624786 c 0.382039,0.236149 1.826446,3.360381 2.238219,4.882674 0.531623,1.965286 0.493144,5.363893 0,7.316199 -0.187695,0.74306 -0.431688,1.436878 -0.511706,1.523396 -0.08002,0.08652 -0.373471,-0.406777 -0.714824,-1.011692 -0.341374,-0.604821 -1.425778,-1.891427 -2.331964,-2.847576 -2.615676,-2.760066 -3.029199,-4.199393 -1.93354,-6.402163 0.552549,-1.110785 2.958139,-3.643313 3.253815,-3.460838 z"
       id="path3-6" /><path
       style="opacity:0.2;fill:#ffffff"
       d="M 32,4 C 16.488,4 4,16.488 4,32 4,32.113556 4.011285,32.224032 4.017578,32.335938 4.3691213,17.134181 16.710728,5 32,5 h 0.002 c 15.289273,0 27.630879,12.134181 27.982422,27.335938 0.0063,-0.111825 0.01758,-0.22249 0.01758,-0.335938 0,-15.512 -12.488,-28 -28,-28 z"
       id="path4-3" /><path
       style="opacity:0.2;fill-rule:evenodd"
       d="M 63.958,45.848 A 16,16 0 0 1 48,61 16,16 0 0 1 32.042,46.152 16,16 0 0 0 32,47 16,16 0 0 0 48,63 16,16 0 0 0 64,47 16,16 0 0 0 63.958,45.848 Z"
       id="path5-8" /><circle
       style="fill:#cc5e55"
       cx="48"
       cy="46"
       r="16"
       id="circle5" /><rect
       style="fill:#ffffff"
       width="6"
       height="14"
       x="45"
       y="35"
       id="rect5" /><circle
       style="fill:#ffffff"
       cx="48"
       cy="55"
       r="3"
       id="circle6" /></g></svg>
