<?xml version="1.0" encoding="UTF-8" standalone="no"?>
<svg
   id="_图层_1"
   version="1.1"
   viewBox="0 0 64 64" width="64" height="64"
   sodipodi:docname="musescore.svg"
   xml:space="preserve"
   inkscape:version="1.4 (e7c3feb100, 2024-10-09)"
   xmlns:inkscape="http://www.inkscape.org/namespaces/inkscape"
   xmlns:sodipodi="http://sodipodi.sourceforge.net/DTD/sodipodi-0.dtd"
   xmlns="http://www.w3.org/2000/svg"
   xmlns:svg="http://www.w3.org/2000/svg"><sodipodi:namedview
     id="namedview26"
     pagecolor="#505050"
     bordercolor="#eeeeee"
     borderopacity="1"
     inkscape:showpageshadow="0"
     inkscape:pageopacity="0"
     inkscape:pagecheckerboard="0"
     inkscape:deskcolor="#505050"
     inkscape:zoom="10.6875"
     inkscape:cx="32"
     inkscape:cy="32"
     inkscape:window-width="1920"
     inkscape:window-height="939"
     inkscape:window-x="0"
     inkscape:window-y="34"
     inkscape:window-maximized="1"
     inkscape:current-layer="_图层_1" /><!-- Generator: Adobe Illustrator 29.0.1, SVG Export Plug-In . SVG Version: 2.1.0 Build 192)  --><defs
     id="defs6"><style
       id="style1">
      .st0 {
        fill-opacity: .5;
      }

      .st0, .st1, .st2, .st3, .st4, .st5, .st6, .st7 {
        fill: #fff;
      }

      .st8 {
        fill: #133c9a;
      }

      .st2, .st9 {
        display: none;
      }

      .st3 {
        fill-opacity: .2;
      }

      .st4 {
        fill-opacity: .9;
      }

      .st10 {
        fill: #3370ff;
      }

      .st11 {
        fill: url(#_未命名的渐变_3);
      }

      .st12 {
        fill: url(#_未命名的渐变);
      }

      .st5 {
        fill-opacity: .3;
      }

      .st6 {
        fill-opacity: 0;
      }

      .st7 {
        fill-opacity: .7;
      }

      .st13 {
        fill: #00d6b9;
      }

      .st14 {
        fill: url(#_未命名的渐变_2);
      }
    </style><radialGradient
       id="_未命名的渐变"
       data-name="未命名的渐变"
       cx="123.9"
       cy="-40.2"
       fx="123.9"
       fy="-40.2"
       r="59.4"
       gradientTransform="translate(-26.8 25.5) scale(.6 -.7)"
       gradientUnits="userSpaceOnUse"><stop
         offset="0"
         stop-color="#db202e"
         id="stop1" /><stop
         offset="1"
         stop-color="#e01b24"
         id="stop2" /></radialGradient><radialGradient
       id="_未命名的渐变_2"
       data-name="未命名的渐变 2"
       cx="67.6"
       cy="26.8"
       fx="67.6"
       fy="26.8"
       r="105.2"
       gradientTransform="translate(-26.6 25.3) scale(.6 -.7)"
       gradientUnits="userSpaceOnUse"><stop
         offset="0"
         stop-color="#ffb648"
         id="stop3" /><stop
         offset="1"
         stop-color="#ff7800"
         stop-opacity="0"
         id="stop4" /></radialGradient><radialGradient
       id="_未命名的渐变_3"
       data-name="未命名的渐变 3"
       cx="61.7"
       cy="18.6"
       fx="61.7"
       fy="18.6"
       r="68"
       gradientTransform="translate(-26.8 25.8) scale(.6 -.7)"
       gradientUnits="userSpaceOnUse"><stop
         offset="0"
         stop-color="#c64600"
         id="stop5" /><stop
         offset="1"
         stop-color="#a51d2d"
         id="stop6" /></radialGradient></defs><path
     class="st1"
     d="M47.5,64.1H13.8c-7.6,0-13.8-6.3-13.8-13.8V13.7C0,6.2,6.2,0,13.7,0h36.6c7.5,0,13.7,6.2,13.7,13.7v36.6c0,7.5-6.2,13.7-13.7,13.7h-2.9.1Z"
     id="path6"
     style="fill:#1370ba;fill-opacity:1" /><g
     id="g31"
     transform="matrix(1.1420217,0,0,1.1411716,-4.5914787,-4.6202422)"><path
       style="opacity:0.2"
       d="m 43,17 c -3.931045,0 -7,2.92557 -7,6.765625 3.71e-4,1.645745 3,1.645745 3,0 C 39,21.571315 40.038048,20 43,20 c 2.961952,0 4,1.571315 4,3.765625 0,1.645745 3,1.645745 3,0 C 50,19.92557 46.931098,17 43,17 Z m 0,5 c -1.105045,0 -2,0.89195 -2,1.994141 0,1.102122 0.894955,1.996093 2,1.996093 1.105045,0 2,-0.893971 2,-1.996093 C 45,22.89195 44.105045,22 43,22 Z m -11,5 c -2.077837,0 -4.526956,1.254862 -5.658203,2.820312 C 25.210607,28.254861 23.077834,27.199219 21,27.199219 c -3.433275,0 -7,2.108274 -7,7.90039 v 9.542969 C 14,44.642578 14.000151,46 15.384766,46 16.769382,46 17,44.642578 17,44.642578 V 35.099609 C 16.9988,30.697689 18.878108,30 21,30 c 2.121889,0 4,1.345247 4,4.324219 V 44.642578 C 25,44.642578 25.076323,46 26.460938,46 27.845553,46 28,44.642578 28,44.642578 V 34.324219 C 28,31.345247 29.878112,30 32,30 c 1.347106,0 3.964844,0.178858 3.964844,4.324219 l 0.08008,3.521484 C 36.044922,44.355122 40.2216,46 43,46 c 2.778398,0 6.915105,-1.920322 7,-7.679688 v -9.109374 c 0,-1.585341 -3,-1.585341 -3,0 v 8.972656 C 47,42.552761 44.389199,43 43,43 41.610799,43 39.003906,42.830163 39.003906,37.710938 l -0.08008,-3.197266 C 38.923829,29.576242 35.530149,27 32,27 Z"
       id="path3-6" /><path
       style="fill:#ffffff"
       d="m 43,16 c -3.931045,0 -7,2.92557 -7,6.765625 3.71e-4,1.645745 3,1.645745 3,0 C 39,20.571315 40.038048,19 43,19 c 2.961952,0 4,1.571315 4,3.765625 0,1.645745 3,1.645745 3,0 C 50,18.92557 46.931098,16 43,16 Z m 0,5 c -1.105045,0 -2,0.89195 -2,1.994141 0,1.102122 0.894955,1.996093 2,1.996093 1.105045,0 2,-0.893971 2,-1.996093 C 45,21.89195 44.105045,21 43,21 Z m -11,5 c -2.077837,0 -4.526956,1.254862 -5.658203,2.820312 C 25.210607,27.254861 23.077834,26.199219 21,26.199219 c -3.433275,0 -7,2.108274 -7,7.90039 v 9.542969 C 14,43.642578 14.000151,45 15.384766,45 16.769382,45 17,43.642578 17,43.642578 V 34.099609 C 16.9988,29.697689 18.878108,29 21,29 c 2.121889,0 4,1.345247 4,4.324219 V 43.642578 C 25,43.642578 25.076323,45 26.460938,45 27.845553,45 28,43.642578 28,43.642578 V 33.324219 C 28,30.345247 29.878112,29 32,29 c 1.347106,0 3.964844,0.178858 3.964844,4.324219 l 0.08008,3.521484 C 36.044922,43.355122 40.2216,45 43,45 c 2.778398,0 6.915105,-1.920322 7,-7.679688 v -9.109374 c 0,-1.585341 -3,-1.585341 -3,0 v 8.972656 C 47,41.552761 44.389199,42 43,42 41.610799,42 39.003906,41.830163 39.003906,36.710938 l -0.08008,-3.197266 C 38.923829,28.576242 35.530149,26 32,26 Z"
       id="path4-1" /></g></svg>
