<?xml version="1.0" encoding="UTF-8"?>
<svg id="_图层_1" xmlns="http://www.w3.org/2000/svg" version="1.1" viewBox="0 0 64 64" width="64" height="64">
  <!-- Generator: Adobe Illustrator 29.0.1, SVG Export Plug-In . SVG Version: 2.1.0 Build 192)  -->
  <defs>
    <style>
      .st0 {
        fill: #fff;
      }

      .st1 {
        fill: #a5d940;
      }

      .st2 {
        isolation: isolate;
        opacity: .2;
      }

      .st3 {
        fill: #f4f4f4;
      }

      .st4 {
        fill: #c4eaff;
        opacity: .5;
      }
    </style>
  </defs>
  <path class="st0" d="M47.5,64.1H13.8c-7.6,0-13.8-6.3-13.8-13.8V13.7C0,6.2,6.2,0,13.7,0h36.6c7.5,0,13.7,6.2,13.7,13.7v36.6c0,7.5-6.2,13.7-13.7,13.7h-2.9.1Z"/>
  <g>
    <path class="st1" d="M50.5,64H13.9c-7.6,0-13.9-6.2-13.9-13.7V13.7C0,6.2,6.3,0,13.8,0h36.6c7.5,0,13.7,6.2,13.7,13.7v36.6c0,7.5-6.2,13.7-13.7,13.7h.1Z"/>
    <path class="st4" d="M63.9,11.3l-12.8,4.8c-2.1.8-4.1.1-4.3-2.5V0h4.2c7.1,0,13,7.4,12.9,11.3h0Z"/>
  </g>
  <g class="st2">
    <path d="M6.4,22.8v-4.9h15.9v4.9H6.4ZM12.1,47.5v-24.4l4.3,1.8v22.6h-4.3Z"/>
    <path d="M23.2,47.5l6-15.3-5.5-14.3h5.3l3.3,9.7,3.4-9.7h4.8l-5.1,14.7,5.5,14.9h-5.1l-3.5-10-3.5,10h-5.5Z"/>
    <path d="M42.6,22.8v-4.9h15.9v4.9h-15.9ZM48.3,47.5v-24.4l4.3,1.8v22.6h-4.3Z"/>
  </g>
  <g>
    <path class="st3" d="M6,22v-4.9h15.9v4.9H6ZM11.7,46.8v-24.4l4.3,1.8v22.6h-4.3Z"/>
    <path class="st3" d="M22.8,46.7l6-15.3-5.5-14.3h5.3l3.3,9.7,3.4-9.7h4.8l-5.1,14.7,5.5,14.9h-5.1l-3.5-10-3.5,10h-5.5Z"/>
    <path class="st3" d="M42.2,22v-4.9h15.9v4.9h-15.9ZM47.9,46.8v-24.4l4.3,1.8v22.6h-4.3Z"/>
  </g>
</svg>