<?xml version="1.0" encoding="UTF-8"?>
<svg id="_图层_1" xmlns="http://www.w3.org/2000/svg" version="1.1" viewBox="0 0 64 64" width="64" height="64">
  <!-- Generator: Adobe Illustrator 29.0.1, SVG Export Plug-In . SVG Version: 2.1.0 Build 192)  -->
  <defs>
    <style>
      .st0, .st1, .st2, .st3, .st4 {
        display: none;
      }

      .st0, .st3 {
        isolation: isolate;
        opacity: .2;
      }

      .st5 {
        fill: #3f3f3f;
      }

      .st6, .st3 {
        fill: #fff;
      }

      .st1, .st7 {
        fill: #a5d940;
      }

      .st8 {
        fill: #c4eaff;
      }

      .st4 {
        fill: #e4e4e4;
      }
    </style>
  </defs>
  <path class="st7" d="M50.5,64H13.9C6.3,64,0,57.8,0,50.3V13.7C0,6.2,6.3,0,13.8,0h36.6c7.5,0,13.7,6.2,13.7,13.7v36.6c0,7.5-6.2,13.7-13.7,13.7h.1Z"/>
  <g class="st2">
    <path class="st0" d="M16,1.1h32c8.8,0,16,7.1,16,15.9v31.8c0,8.8-7.2,15.9-16,15.9H16c-8.8,0-16-7.1-16-15.9v-31.8C0,8.3,7.2,1.1,16,1.1Z"/>
    <path class="st4" d="M16,0h32c8.8,0,16,7.1,16,15.9v31.8c0,8.8-7.2,15.9-16,15.9H16c-8.8,0-16-7.1-16-15.9V15.9C0,7.1,7.2,0,16,0Z"/>
    <path class="st5" d="M38,59.6c-2-.3-4.5-.8-5.4-1.2-.5-.2-1.3-.8-1.7-1.2-.7-.7-2.2-3-2.5-3.7,0-.2-.7-1.5-1.3-2.9-1.3-2.9-1.3-3.1,0-4.3.8-.7.7-.9-.1-.6-.4.1-1.2.8-1.8,1.5l-1.1,1.3h-2.7l1.3-1.4c1.1-1.1,1.5-1.7,2.1-3.4l.8-2-.9-.9-.9-.9-1,.6c-1,.6-1,.6-1.1,1.9-.2,1.9-.8,2.4-3.1,2.6-.9,0-1.7.1-1.8.1,0,0,.4-.4,1-.9,1-.8,1.6-1.7,2.1-3.6,0-.3.6-.9,1.1-1.3.5-.4.9-.8.8-.9,0,0-.5-.4-1.1-.8l-1-.7-1.4.7c-1.4.7-1.5.8-1.8,2.1-.2.9-.5,1.4-.8,1.5-.7.2-3.4.8-3.5.7,0,0,.5-.5,1.1-1,.8-.7,1.4-1.4,1.9-2.5.7-1.5.7-1.5,2.1-2,1.3-.4,1.3-.5,1.3-1.1-.1-1.3,0-1.3-2.8-1.1-2.5.1-2.6.2-3.2.8-2,2.2-3.5,3.6-3.9,3.7-.6.2-1.8-.2-2-.6,0-.2,0-.3.8-.3s1,0,1.5-.7c.3-.4,1.3-1.5,2.3-2.5l1.8-1.8h3c1.6,0,3.3,0,3.7.2.7.2.7.2.7-.5,0-.4-.2-2.1-.4-3.8-.4-2.7-.5-3.2-1.2-4.5-.4-.8-1.8-4.1-3-7.4l-2.2-6,.3-2.6c.2-2.3.3-2.7.8-3.2.4-.5.8-.6,1.5-.6s1.2.2,2.8,1.3c1,.7,2.2,1.6,2.6,2.1.7.7.8.9,1,2.5,0,1,.1,1.8,0,1.8,0,0-.7-.2-1.4-.5-1.3-.6-1.4-.7-2-2.1-.8-1.7-1.2-2.1-1.7-1.9-.3,0-.3.5-.3,2.1v2l1.8,3.9,1.8,3.9,3,1.7c2.6,1.4,3.3,1.9,5.1,3.7,1.1,1.1,2.1,2.1,2.2,2.1.2,0,.9-2.3.9-3.1v-.8h1.6c1.4,0,1.6,0,1.8-.4.2-.5.3-.5.7-.2.2.2.3.4.1,1.1l-.2.9h-1c0,0-1-.1-1-.1v2.7c0,1.5,0,2.8.2,2.8.1,0,.4-.3.6-.8.2-.5.8-1.3,1.4-1.9l1-.9.9.5c.5.3,1.1.4,1.2.3.4-.1.4,0,0,.8-.3.7-.5.8-1.2.8s-1,.1-1.2.3c-.5.5-.7,2.2-.4,2.8.3.7.6.7.9-.1.2-.5.7-.9,1.7-1.4l1.4-.7.9.8c.9.8.9.8,1.9.6.5-.1,1-.2,1.1,0,0,0-.3.6-.9,1.2l-1,1-.8-1-.8-1-.8.5c-.6.4-.8.7-.8,1.1,0,.7.3.8,1.2.7.4,0,1.1,0,1.6.2s1.6.3,2.4.3h1.4l-.7.5-.7.5.5.2c.4.2.8.1,2-.3.8-.3,1.8-.5,2.3-.5.9,0,1,.1,3.3,2.4l2.4,2.4.8,4c.4,2.3.7,4.4.7,4.9-.1,1.1-.9,2.2-2.1,2.9l-.9.5.2-.5c0-.3.2-1.2.3-1.9.2-3.1-1.6-4.6-2.1-1.7-.2,1.1-.4.9-.9-1-.4-1.4-.4-2.3,0-2.9.3-.3-.4-4.3-.9-5.4l-.4-.8-1.5,1.6c-3.6,3.8-3.6,3.8-3.2,4.1.5.4,1.2,1.9,1.2,2.5v.6s-.6-.7-.6-.7c-.9-1.1-1.5-1.3-2.1-.8-.3.2-.5.5-.5.6,0,.4,1,1.7,1.4,1.8.9.2.8.5-.1.5-1.1,0-2.5-.6-3.1-1.2l-.4-.4-2.6.7c-1.8.5-2.8.9-3.6,1.4-.7.5-1.3.8-2.2.9h-1.2c0,.1.7,1.4.7,1.4l.7,1.3h1.2c.9,0,2.4.4,5.9,1.6,2.6.9,4.9,1.7,5.2,1.9.5.4.4.4-1.7.3-1.2,0-2.6,0-3.1,0-.7.2-.9.3-.9.8-.2,1.4,2,2.6,5.2,3,1.9.3,1.9.3.9.4-1,.2-5.3.2-6.5,0h0Z"/>
    <path class="st3" d="M16,0C7.1,0,0,7.1,0,15.9v1.1C0,8.2,7.1,1.1,16,1.1h32c8.9,0,16,7.1,16,15.9v-1.1c0-8.8-7.1-15.9-16-15.9H16Z"/>
  </g>
  <g>
    <path class="st1" d="M50.5,64H14.1C6.5,64,0,58,0,50.4V13.6C0,6.4,6.5,0,14.1,0h36.4c7.6,0,13.6,6,13.6,13.6v36.4c0,7.6-6,13.6-13.6,13.6h0v.4Z"/>
    <g>
      <path class="st1" d="M41.3,2.8H11.3c-.8,0-1.6,0-2,.8-.4.4-.8,1.2-.8,2v52c0,.8,0,1.6.8,2,.4.4,1.2.8,2,.8h44c.8,0,1.6,0,2-.8.4-.4.8-1.2.8-2V19.2L41.3,2.8Z"/>
      <path class="st8" d="M63.9,11.7l-13.9,5.1c-1.6,0-2.8-1.2-3.2-2.8V.4l17.1,11.3Z"/>
      <path class="st6" d="M24.9,26.4v1.6h-4.4v11.2h-2v-11.2h-4.4v-1.6h11.2-.4ZM28.1,26.4l3.2,4.8,3.2-4.8h2.4l-4.4,6.4,4.8,6.8h-2.4l-3.6-5.2-3.6,5.2h-2.4l4.8-6.8-4.4-6.4s2.4,0,2.4,0ZM48.9,26.4v1.6h-4.4v11.2h-2v-11.2h-4.4v-1.6h10.8Z"/>
    </g>
  </g>
</svg>