<?xml version="1.0" encoding="UTF-8"?>
<svg id="_图层_1" xmlns="http://www.w3.org/2000/svg" version="1.1" viewBox="0 0 64 64" width="64" height="64">
  <!-- Generator: Adobe Illustrator 29.0.1, SVG Export Plug-In . SVG Version: 2.1.0 Build 192)  -->
  <defs>
    <style>
      .st0 {
        stroke: #ffd42a;
      }

      .st0, .st1, .st2 {
        fill: none;
        stroke-linecap: round;
        stroke-linejoin: round;
        stroke-width: 6px;
      }

      .st3, .st4 {
        fill: #4f4f4f;
      }

      .st5, .st6, .st7, .st8, .st4 {
        display: none;
      }

      .st5, .st9, .st1, .st10, .st11, .st8, .st12 {
        isolation: isolate;
      }

      .st5, .st1, .st10, .st11, .st8 {
        opacity: .2;
      }

      .st13, .st11, .st8, .st12 {
        fill: #fff;
      }

      .st14 {
        fill: #dee5c0;
      }

      .st15 {
        fill: #86b02f;
      }

      .st16 {
        fill: #add439;
      }

      .st6 {
        fill: #e32e2e;
      }

      .st9, .st12 {
        opacity: .1;
      }

      .st17 {
        fill: #ac1248;
      }

      .st1 {
        stroke: #000;
      }

      .st18 {
        fill: #3471b9;
      }

      .st2 {
        stroke: #fff;
      }

      .st19 {
        fill: #eb2f6a;
      }

      .st20 {
        fill: #cedbe6;
      }

      .st21 {
        fill: #2e90e8;
      }
    </style>
  </defs>
  <path class="st3" d="M50.3,64H13.9C6.3,64,.2,57.8.2,50.3V13.8C.2,6.2,6.3,0,13.9,0h36.5c7.5,0,13.7,6.2,13.7,13.7v36.5c0,7.5-6.1,13.7-13.7,13.7h0Z"/>
  <g class="st7">
    <path class="st10" d="M31.7,4c0,0-.1,0-.2,0,0,0,0,0,0,0-1.1,0-2.2.3-3.2.9l-19.4,11.2c-1,.6-1.7,1.4-2.3,2.3h0s0,0,0,.1c0,0,0,0,0,.1h0c-.5,1-.9,2.1-.9,3.2v22.4c0,1.1.3,2.2.9,3.2,0,0,0,.2.1.2h0c.2.3.4.6.7.9,0,0,0,0,.1.1.1.1.2.2.3.3,0,0,.1.1.2.2.1,0,.2.2.3.3.2.1.4.3.6.4l19.4,11.2c1,.6,2.1.9,3.2.9h0c1.2,0,2.4-.3,3.4-.9l19.4-11.2c.9-.6,1.7-1.3,2.3-2.3h0s0,0,0-.1c0,0,0,0,0-.1h0c.6-1,.8-2.1.9-3.2v-22.4c0-.3,0-.5,0-.8,0,0,0-.2,0-.2,0-.2,0-.3,0-.5,0-.1,0-.2,0-.3,0-.1,0-.2-.1-.4,0-.1,0-.3-.1-.4,0,0,0,0,0,0h0c-.1-.3-.3-.5-.4-.8h0c-.6-.9-1.3-1.7-2.3-2.3l-19.4-11.2c-1-.6-2-.9-3.1-.9,0,0,0,0,0,0Z"/>
    <path class="st16" d="M31.7,3c0,0-.2,0-.3,0v13.9c0,0,.1,15.1.1,15.1l13.1-7.5,12.1-6.9c-.6-1-1.4-1.9-2.4-2.5L34.9,3.9c-1-.6-2-.9-3.1-.9Z"/>
    <path class="st17" d="M6.6,17.3c-.6,1-1,2.2-1,3.4v22.4c0,1.2.4,2.4,1,3.4l12-7,13-7.6-13-7.6-12-7Z"/>
    <path class="st18" d="M56.6,17.4l-12,7-13,7.6,13,7.6,12,7c.6-1,1-2.2,1-3.4v-22.4c0-.3,0-.5,0-.8,0,0,0-.2,0-.2,0-.2,0-.3,0-.5,0-.1,0-.2,0-.3,0-.1,0-.2-.1-.4,0-.1,0-.3-.1-.4,0,0,0,0,0,0h0c-.1-.3-.3-.5-.4-.8h0Z"/>
    <path class="st10" d="M6.9,17.8c-.2.2-.3.5-.5.7l9.2,5.2v-1l-8.7-5ZM56.2,17.9l-11.6,6.7-13.1,7.5v1l13.1-7.5,12.1-6.9c-.1-.3-.3-.5-.5-.7Z"/>
    <path class="st15" d="M31.7,3c-1.2,0-2.4.3-3.4.9L8.9,15.1c-1,.6-1.9,1.5-2.5,2.5l12.1,6.9,13.1,7.5v-15.1c0,0,.1-13.9.1-13.9Z"/>
    <path class="st21" d="M31.6,32v15.1c0,0-.1,13.9-.1,13.9,1.2,0,2.4-.3,3.4-.9l19.4-11.2c1-.6,1.9-1.5,2.4-2.5l-12.1-6.9-13.1-7.5Z"/>
    <path class="st19" d="M31.6,32l-13.1,7.5-12.1,6.9c.2.4.5.8.8,1.2,0,0,0,0,.1.1.1.1.2.2.3.3,0,0,.1.1.2.2.1,0,.2.2.3.3.2.1.4.3.6.4l19.4,11.2c1,.6,2.2.9,3.4.9v-13.9c0,0-.1-15.1-.1-15.1Z"/>
    <path class="st11" d="M31.6,32l-13.1,7.5-12.1,6.9c.1.3.3.5.5.7l11.6-6.6,13.1-7.5,13.1,7.5,11.6,6.7c.2-.2.3-.5.5-.7l-12.1-6.9-13.1-7.5Z"/>
    <path class="st10" d="M31.6,14.5l16,9.2v18.4l-16,9.2-16-9.2v-18.4l16-9.2Z"/>
    <path class="st13" d="M31.6,13.5l16,9.2v18.4l-16,9.2-16-9.2v-18.4l16-9.2Z"/>
    <path class="st20" d="M31.6,13.5l16,9.2v18.4l-16,9.2V13.5Z"/>
    <path class="st14" d="M31.6,13.5l-16,9.2,16,9.2,16-9.2-16-9.2Z"/>
    <path class="st11" d="M31.7,3c0,0-.1,0-.2,0,0,0,0,0,0,0-1.1,0-2.2.3-3.2.9L8.9,15.1c-1,.6-1.7,1.4-2.3,2.3h0s0,0,0,.1c0,0,0,0,0,.1h0c-.5,1-.9,2.1-.9,3.2v1c0-1.1.3-2.2.9-3.2h0s0,0,0-.1c0,0,0,0,0-.1h0c.6-.9,1.3-1.7,2.3-2.3L28.3,4.9c1-.6,2.1-.8,3.2-.9,0,0,0,0,0,0,0,0,.1,0,.2,0,0,0,0,0,0,0,1.1,0,2.2.3,3.1.9l19.4,11.2c1,.6,1.7,1.4,2.3,2.3h0c.2.2.3.5.4.8h0s0,0,0,0c0,.1,0,.3.1.4,0,.1,0,.2.1.4,0,.1,0,.2,0,.3,0,.2,0,.3,0,.5,0,0,0,.2,0,.2,0,.3,0,.5,0,.8v-1c0-.3,0-.5,0-.8,0,0,0-.2,0-.2,0-.2,0-.3,0-.5,0-.1,0-.2,0-.3,0-.1,0-.2-.1-.4,0-.1,0-.3-.1-.4,0,0,0,0,0,0h0c-.1-.3-.3-.5-.4-.8h0c-.6-.9-1.3-1.7-2.3-2.3L34.9,3.9c-1-.6-2-.9-3.1-.9,0,0,0,0,0,0Z"/>
    <path class="st9" d="M47.6,22.8l-2.9,1.7-13.1,7.5v1l13.1-7.5,2.9-1.7v-1Z"/>
  </g>
  <g class="st7">
    <path class="st5" d="M3.2,1h57.6c1.8,0,3.2,1.4,3.2,3.2v58c0,1.8-1.4,3.2-3.2,3.2H3.2c-1.8,0-3.2-1.4-3.2-3.2V4.3C0,2.5,1.4,1,3.2,1Z"/>
    <path class="st6" d="M3.2-.1h57.6c1.8,0,3.2,1.4,3.2,3.2v58c0,1.8-1.4,3.2-3.2,3.2H3.2c-1.8,0-3.2-1.4-3.2-3.2V3.1C0,1.3,1.4-.1,3.2-.1Z"/>
    <path class="st1" d="M25.6,16c-11.3,5.3-13.9,13.7-12.6,22.7,2.7,19.9,20.5,17.6,24.5,17,4.5-.6,11.9-4,13.7-15.2,1.8-11.4-5.6-16-10-17-5.6-1.2-10.2-.5-12.8,3.5-2.4,3.7-2.6,8.3-1.1,11.3,1.4,2.8,2.6,4.1,4.7,4.1,7.3.2,8.3-4.3,7.5-8.6-1.8-9.1-6.1-11.7-4.6-18.8,1.5-4.8,6.4-4.1,9.7-1.4"/>
    <path class="st2" d="M25.6,14.9c-11.3,5.3-13.9,13.7-12.6,22.7,2.7,19.9,20.5,17.6,24.5,17,4.5-.6,11.9-4,13.7-15.2,1.8-11.4-5.6-16-10-17-5.6-1.2-10.2-.5-12.8,3.5-2.4,3.7-2.6,8.3-1.1,11.3,1.4,2.8,2.6,4.1,4.7,4.1,7.3.2,8.3-4.3,7.5-8.6-1.8-9.1-6.1-11.7-4.6-18.8,1.5-4.8,6.4-4.1,9.7-1.4"/>
    <path class="st8" d="M3.2-.1C1.4-.1,0,1.3,0,3.1v1.2C0,2.5,1.4,1,3.2,1h57.6c1.8,0,3.2,1.4,3.2,3.2v-1.2c0-1.8-1.4-3.2-3.2-3.2H3.2Z"/>
  </g>
  <g>
    <path class="st5" d="M3.2,1h57.6c1.8,0,3.2,1.4,3.2,3.2v57.4c0,1.8-1.4,3.2-3.2,3.2H3.2c-1.8,0-3.2-1.4-3.2-3.2V4.2C0,2.5,1.4,1,3.2,1Z"/>
    <rect class="st4" y="-.1" width="64" height="63.8" rx="3.2" ry="3.2"/>
    <path class="st1" d="M25.6,15.8c-11.3,5.2-13.9,13.6-12.7,22.5,2.7,19.7,20.5,17.4,24.5,16.8,4.5-.6,11.9-4,13.7-15.1,1.8-11.3-5.6-15.8-10-16.8-5.6-1.2-10.2-.5-12.8,3.5-2.4,3.7-2.6,8.2-1.1,11.2,1.4,2.8,2.6,4,4.7,4.1,7.3.2,8.3-4.3,7.5-8.5-1.8-9-6.1-11.6-4.6-18.6,1.5-4.7,6.4-4,9.7-1.4"/>
    <path class="st0" d="M25.6,14.7c-11.3,5.2-13.9,13.6-12.7,22.5,2.7,19.7,20.5,17.4,24.5,16.8,4.5-.6,11.9-4,13.7-15.1,1.8-11.3-5.6-15.8-10-16.8-5.6-1.2-10.2-.5-12.8,3.5-2.4,3.7-2.6,8.2-1.1,11.2,1.4,2.8,2.6,4,4.7,4.1,7.3.2,8.3-4.3,7.5-8.5-1.8-9-6.1-11.6-4.6-18.6,1.5-4.7,6.4-4,9.7-1.4"/>
    <path class="st12" d="M3.2-.1C1.4-.1,0,1.3,0,3.1v1.1C0,2.5,1.4,1,3.2,1h57.6c1.8,0,3.2,1.4,3.2,3.2v-1.1c0-1.8-1.4-3.2-3.2-3.2H3.2Z"/>
  </g>
</svg>