<?xml version="1.0" encoding="UTF-8"?>
<svg id="_图层_1" xmlns="http://www.w3.org/2000/svg" version="1.1" viewBox="0 0 64 64" width="64" height="64">
  <!-- Generator: Adobe Illustrator 29.0.1, SVG Export Plug-In . SVG Version: 2.1.0 Build 192)  -->
  <defs>
    <style>
      .st0, .st1, .st2, .st3 {
        isolation: isolate;
      }

      .st0, .st2 {
        display: none;
        opacity: .2;
      }

      .st4 {
        fill: #e0e0e0;
      }

      .st1 {
        opacity: 0;
      }

      .st5 {
        fill: #eee;
      }

      .st6 {
        fill: #b3b3b3;
      }

      .st7 {
        fill: #f5f5f5;
      }

      .st2, .st3 {
        fill: #fff;
      }

      .st8 {
        fill: #e4e4e4;
      }

      .st9 {
        fill: #5d5d5d;
      }

      .st3 {
        opacity: .1;
      }
    </style>
  </defs>
  <path class="st5" d="M50.5,64H13.9C6.3,64,0,57.8,0,50.3V13.7C0,6.2,6.3,0,13.8,0h36.6c7.5,0,13.7,6.2,13.7,13.7v36.6c0,7.5-6.2,13.7-13.7,13.7h.1Z"/>
  <g>
    <path class="st0" d="M19.2,1.1h25.6c10.6,0,19.2,8.6,19.2,19.2v25.6c0,10.6-8.6,19.2-19.2,19.2h-25.6c-10.6,0-19.2-8.6-19.2-19.2v-25.6C0,9.7,8.6,1.1,19.2,1.1Z"/>
    <path class="st8" d="M19.2,0h25.6C55.3,0,63.9,8.6,63.9,19.2v25.6c0,10.6-8.6,19.2-19.2,19.2h-25.6C8.6,64,0,55.4,0,44.8v-25.6C0,8.6,8.6,0,19.2,0Z"/>
    <path class="st5" d="M31.9,64h12.8c10.6,0,19.2-8.6,19.2-19.2v-25.6C63.9,8.6,55.3,0,44.7,0h-12.8v64Z"/>
    <path class="st4" d="M31.9,64V0h-12.8C8.5,0,0,8.6,0,19.2v25.6c0,10.6,8.5,19.2,19.2,19.2h12.8Z"/>
    <path class="st7" d="M31.9,49.6l-27.9,7c3.5,4.5,9,7.4,15.1,7.4h25.6c6.2,0,11.6-2.9,15.1-7.4l-27.9-7Z"/>
    <path class="st1" d="M31.9,49.6l-27.9,7c.2.3.5.6.8.9l27.2-6.8,27.2,6.8c.3-.3.5-.6.8-.9l-27.9-7Z"/>
    <path class="st9" d="M26.4,26.5l-4.4,2.2v11l-7.7-9.9-4.4,2.2v18.8l4.4-2.2v-11l7.7,9.9,4.4-2.2v-18.8Z"/>
    <path class="st3" d="M26.4,26.5l-4.4,2.2v1.1l4.4-2.2v-1.1ZM14.3,29.8l-4.4,2.2v1.1l4.4-2.2,7.7,9.9v-1.1l-7.7-9.9Z"/>
    <path class="st6" d="M35.3,32l20.9,4.4v2.2l-20.9-4.4v-2.2Z"/>
    <path class="st6" d="M35.3,37.5l20.9,4.4v2.2l-20.9-4.4v-2.2Z"/>
    <path class="st6" d="M35.3,43l20.9,4.4v2.2l-20.9-4.4v-2.2Z"/>
    <path class="st2" d="M19.2,0C8.5,0,0,8.5,0,19.2v1.1C0,9.7,8.5,1.1,19.2,1.1h25.6c10.6,0,19.2,8.6,19.2,19.2v-1.1C63.9,8.5,55.3,0,44.7,0h-25.6Z"/>
  </g>
</svg>