<?xml version="1.0" encoding="UTF-8"?>
<svg id="_图层_1" xmlns="http://www.w3.org/2000/svg" version="1.1" viewBox="0 0 64 64" width="64" height="64">
  <!-- Generator: Adobe Illustrator 29.0.1, SVG Export Plug-In . SVG Version: 2.1.0 Build 192)  -->
  <defs>
    <style>
      .st0, .st1, .st2, .st3 {
        display: none;
      }

      .st0, .st4 {
        fill: #3e50b4;
      }

      .st1, .st2, .st5, .st6, .st7 {
        isolation: isolate;
      }

      .st1, .st5, .st6 {
        opacity: .2;
      }

      .st2, .st8, .st6, .st7 {
        fill: #fff;
      }

      .st2, .st7 {
        opacity: .1;
      }

      .st9 {
        fill: #e97e10;
      }

      .st10 {
        fill: #7767c0;
      }
    </style>
  </defs>
  <path class="st4" d="M50.3,64H13.9C6.3,64,.2,57.8.2,50.3V13.8C.2,6.2,6.3,0,13.9,0h36.5c7.5,0,13.7,6.2,13.7,13.7v36.5c0,7.5-6.1,13.7-13.7,13.7h0Z"/>
  <g class="st3">
    <ellipse class="st1" cx="32.1" cy="32.6" rx="31.9" ry="31.4"/>
    <ellipse class="st0" cx="32.1" cy="31.5" rx="31.9" ry="31.4"/>
    <path class="st5" d="M18.5,21.4v3.4h27.3v-3.4h-27.3ZM18.5,28.1v3.4h27.3v-3.4h-27.3ZM18.5,34.8v3.4h27.3v-3.4h-27.3ZM18.5,41.6v3.4h18.2v-3.4h-18.2Z"/>
    <path class="st8" d="M18.5,20.2v3.4h27.3v-3.4h-27.3ZM18.5,27v3.4h27.3v-3.4h-27.3ZM18.5,33.7v3.4h27.3v-3.4h-27.3ZM18.5,40.4v3.4h18.2v-3.4h-18.2Z"/>
    <path class="st2" d="M32.1,0C14.5,0,.2,14.1.2,31.5c0,.2,0,.4,0,.7C.5,15,14.7,1.2,32.1,1.2c17.3,0,31.5,13.7,31.9,30.7,0-.2,0-.3,0-.5C64,14.1,49.7,0,32.1,0Z"/>
  </g>
  <g>
    <path class="st5" d="M32.5,9.7c-12.8,0-23.2,10.1-23.2,22.6,0,8.4,4.8,16.1,12.5,20l3.8-11c-2.9-2.1-4.6-5.5-4.7-9,0-6.3,5.2-11.3,11.6-11.3s11.6,5.1,11.6,11.3c0,3.6-1.7,6.9-4.7,9l3.8,11c7.7-3.9,12.5-11.6,12.5-20,0-12.5-10.4-22.6-23.2-22.6ZM32.5,25.9c-3.7,0-6.6,2.9-6.6,6.5,0,2.7,1.7,5.1,4.2,6l-3.4,16.6h11.6l-3.4-16.6c2.6-1,4.2-3.4,4.2-6,0-3.6-3-6.5-6.6-6.5Z"/>
    <path class="st9" d="M32.5,8.9c-12.8,0-23.2,10.1-23.2,22.6,0,8.4,4.8,16.1,12.5,20l3.8-11c-2.9-2.1-4.6-5.5-4.7-9,0-6.3,5.2-11.3,11.6-11.3s11.6,5.1,11.6,11.3c0,3.6-1.7,6.9-4.7,9l3.8,11c7.7-3.9,12.5-11.6,12.5-20,0-12.5-10.4-22.6-23.2-22.6Z"/>
    <path class="st6" d="M32.5,8.9c-12.8,0-23.2,10.1-23.2,22.6,0,.1,0,.3,0,.4.2-12.3,10.5-22.2,23.2-22.2,12.6,0,22.9,9.8,23.2,22,0,0,0-.1,0-.2,0-12.5-10.4-22.6-23.2-22.6ZM44.1,31.7c0,3.5-1.8,6.7-4.6,8.8l.2.6c2.8-2.1,4.4-5.4,4.5-8.8,0-.2,0-.4,0-.6ZM20.9,31.9c0,.1,0,.3,0,.4,0,3.4,1.7,6.7,4.5,8.8l.2-.6c-2.8-2-4.5-5.2-4.6-8.6Z"/>
    <path class="st10" d="M32.5,25.1c-3.7,0-6.6,2.9-6.6,6.5,0,2.7,1.7,5.1,4.2,6l-3.4,16.6h11.6l-3.4-16.6c2.6-1,4.2-3.4,4.2-6,0-3.6-3-6.5-6.6-6.5Z"/>
    <path class="st7" d="M32.5,25.1c-3.7,0-6.6,2.9-6.6,6.5,0,.1,0,.3,0,.4.2-3.4,3.1-6.1,6.6-6.1,3.5,0,6.3,2.6,6.6,5.9,0,0,0-.2,0-.3,0-3.6-3-6.5-6.6-6.5ZM30,38.3l-3.3,15.9h.2l3.2-15.8c0,0-.1,0-.2,0ZM35,38.3s-.1,0-.2,0l3.2,15.8h.2l-3.3-15.9Z"/>
  </g>
</svg>