<?xml version="1.0" encoding="UTF-8"?>
<svg id="_图层_1" xmlns="http://www.w3.org/2000/svg" version="1.1" viewBox="0 0 64 64" width="64" height="64">
  <!-- Generator: Adobe Illustrator 29.0.1, SVG Export Plug-In . SVG Version: 2.1.0 Build 192)  -->
  <defs>
    <style>
      .st0 {
        fill: #4f4f4f;
      }

      .st1 {
        fill: #727272;
      }

      .st2, .st3, .st4, .st5, .st6, .st7, .st8 {
        isolation: isolate;
      }

      .st2, .st3, .st9 {
        display: none;
      }

      .st2, .st6, .st7 {
        opacity: .2;
      }

      .st3, .st10, .st7, .st8 {
        fill: #fff;
      }

      .st3, .st4, .st8 {
        opacity: .1;
      }

      .st11 {
        fill: #3f3f3f;
      }

      .st12 {
        fill: #a45390;
      }

      .st13 {
        fill: #42a5f5;
      }

      .st5 {
        opacity: .2;
      }

      .st14 {
        fill: #664930;
      }

      .st15 {
        fill: none;
        stroke: #545eba;
        stroke-linecap: round;
        stroke-linejoin: round;
        stroke-width: 11px;
      }

      .st16 {
        fill: #b5835a;
      }

      .st17 {
        fill: #6db832;
      }

      .st18 {
        fill: #c2352a;
      }

      .st19 {
        fill: #4987d7;
      }

      .st20 {
        fill: #5d5d5d;
      }

      .st21 {
        fill: #ffdc83;
      }

      .st22 {
        fill: #815a3a;
      }

      .st23 {
        fill: #1565c0;
      }

      .st24 {
        fill: #986a44;
      }
    </style>
  </defs>
  <path class="st10" d="M50.3,64H13.8c-7.6,0-13.8-6.2-13.8-13.7V13.7C0,6.2,6.2,0,13.7,0h36.5c7.5,0,13.7,6.2,13.7,13.7v36.6c0,7.5-6.2,13.7-13.7,13.7h0Z"/>
  <g class="st9">
    <path class="st2" d="M0,59.5v2.3c0,1.9,1.5,3.4,3.4,3.4h57.4c1.9,0,3.4-1.5,3.4-3.4v-2.3c0,1.9-1.5,3.4-3.4,3.4H3.4C1.5,63,0,61.4,0,59.5Z"/>
    <path class="st19" d="M3.2-.1C2.3-.1,1.5.3.9.8l31.2,31.2L63.3.8c-.6-.6-1.4-.9-2.3-.9H3.2h0Z"/>
    <path class="st12" d="M3.2,64.1c-.9,0-1.7-.4-2.3-.9l31.2-31.2,31.2,31.2c-.6.6-1.4.9-2.3.9H3.2h0Z"/>
    <path class="st17" d="M64.2,3.1c0-.9-.4-1.7-.9-2.3l-31.2,31.2,31.2,31.2c.6-.6.9-1.4.9-2.3V3.1h0Z"/>
    <path class="st18" d="M0,3.1C0,2.2.4,1.4.9.8l31.2,31.2L.9,63.2c-.6-.6-.9-1.4-.9-2.3V3.1h0Z"/>
    <path class="st6" d="M35,5.6c-1.4,0-2.5.2-3.6.5-1,.3-1.9.8-2.6,1.3-.7.6-1.3,1.2-1.8,2-.5.8-.8,1.3-1.1,2.1-.3.9-.5,1.8-.6,2.8-.1,1-.2,1.9-.2,2.9h0c0,1.5.2,2.9.5,4,.4,1.1.9,2,1.5,2.8.7.7,1.4,1.3,2.3,1.7.9.4,1.8.5,2.8.5s2-.2,2.8-.5c.8-.3,1.5-.8,2.1-1.4.6-.6,1-1.4,1.3-2.2.3-.9.5-1.9.5-3s-.1-2-.4-2.8c-.3-.8-.6-1.6-1.1-2.1-.5-.6-1.1-1-1.8-1.3-.7-.3-1.5-.4-2.4-.4s-1.1,0-1.5.2c-.4.1-.8.3-1.2.5-.4.2-.7.6-.9.9-.3.3-.5.6-.7.9h-.2c0-1,.2-1.8.4-2.6.2-.8.5-1.1,1-1.7.5-.6,1.1-1,1.9-1.3.8-.3,1.8-.5,3.1-.5s.8,0,1.2,0c.4,0,.8.1,1.1.2v-3.5c-.2,0-.4,0-.6,0-.2,0-.5,0-.7,0-.2,0-.5,0-.7,0s-.4,0-.6,0ZM32.4,16c.8,0,1.5.3,1.9.9.4.6.6,1.4.6,2.4s0,1.1-.2,1.6c-.1.4-.3.8-.5,1.1-.2.3-.5.5-.8.7-.3.1-.7.2-1,.2s-.9-.1-1.2-.4c-.3-.2-.6-.5-.9-.9-.2-.4-.4-.8-.5-1.3-.1-.5-.2-1-.2-1.4s0-.7.2-1c.1-.3.3-.6.6-.9.3-.3.6-.5.9-.7.4-.2.7-.3,1.2-.3ZM47,24v10.3l1,.9c.2,0,.4-.1.6-.2.2,0,.5-.1.8-.2.3,0,.5,0,.8-.1.3,0,.5,0,.8,0,1.3,0,2.3.3,3,.8.6.5,1,1.3,1,2.3s-.3,2-1,2.5c-.7.5-1.6.8-2.9.8s-.9,0-1.3,0c-.5,0-.9-.2-1.4-.3-.5-.1-.9-.3-1.3-.4-.4-.2-.8-.3-1.1-.5v3.7c.3.2.7.3,1.1.5.4.1.9.3,1.3.3.5,0,1,.2,1.5.2.5,0,1,0,1.5,0,1.3,0,2.4-.2,3.4-.5,1-.3,1.8-.8,2.5-1.4.7-.6,1.2-1.4,1.5-2.2.3-.9.5-1.9.5-3s-.2-1.9-.5-2.7c-.3-.8-.8-1.4-1.3-2-.6-.5-1.2-.9-2-1.2-.8-.3-1.6-.4-2.5-.4h0c-.6,0-1.1,0-1.5.1-.4,0-.7.1-1,.2l.3-4.1h6.5v-3.4h-10.3ZM11.5,24.1c-.8,0-1.6,0-2.2.3-.7.2-1.3.4-1.8.6-.6.3-1.1.6-1.5.9-.5.3-.9.5-1.3.9l2.4,2.8c.7-.7,1.5-1.2,2.1-1.6.7-.4,1.4-.5,2.1-.5s1.3.2,1.7.6c.4.4.6.9.6,1.6s0,1.2-.3,1.7c-.2.5-.5,1.1-.8,1.6-.4.5-.8,1.1-1.3,1.6-.5.6-1,1.2-1.7,1.8l-4.8,5.4v2.8h13.7v-3.4h-8.3v-.2l2.5-2.7c.7-.7,1.4-1.4,2-2.1.6-.7,1.2-1.4,1.7-2.1.5-.7.9-1.4,1.1-2.2.3-.7.4-1.5.4-2.3s-.1-1.7-.4-2.4c-.3-.7-.7-1.1-1.3-1.6-.6-.5-1.2-.9-2-1.2-.8-.3-1.7-.4-2.6-.4ZM25.2,42.5v3.2h9.4l-7.3,17.2h4.5l7.1-17.7v-2.7h-13.8Z"/>
    <path class="st10" d="M35,4.5c-1.4,0-2.5.2-3.6.5-1,.3-1.9.8-2.6,1.3-.7.6-1.3,1.2-1.8,2-.5.8-.8,1.3-1.1,2.1-.3.9-.5,1.8-.6,2.8-.1,1-.2,1.9-.2,2.9h0c0,1.5.2,2.9.5,4,.4,1.1.9,2,1.5,2.8.7.7,1.4,1.3,2.3,1.7.9.4,1.8.5,2.8.5s2-.2,2.8-.5c.8-.3,1.5-.8,2.1-1.4.6-.6,1-1.4,1.3-2.2.3-.9.5-1.9.5-3s-.1-2-.4-2.8c-.3-.8-.6-1.6-1.1-2.1-.5-.6-1.1-1-1.8-1.3-.7-.3-1.5-.4-2.4-.4s-1.1,0-1.5.2c-.4.1-.8.3-1.2.5-.4.2-.7.6-.9.9-.3.3-.5.6-.7.9h-.2c0-1,.2-1.8.4-2.6.2-.8.5-1.1,1-1.7.5-.6,1.1-1,1.9-1.3.8-.3,1.8-.5,3.1-.5s.8,0,1.2,0c.4,0,.8.1,1.1.2v-3.5c-.2,0-.4,0-.6,0-.2,0-.5,0-.7,0-.2,0-.5,0-.7,0s-.4,0-.6,0ZM32.4,14.9c.8,0,1.5.3,1.9.9.4.6.6,1.4.6,2.4s0,1.1-.2,1.6c-.1.4-.3.8-.5,1.1-.2.3-.5.5-.8.7-.3.1-.7.2-1,.2s-.9-.1-1.2-.4c-.3-.2-.6-.5-.9-.9-.2-.4-.4-.8-.5-1.3-.1-.5-.2-1-.2-1.4s0-.7.2-1c.1-.3.3-.6.6-.9.3-.3.6-.5.9-.7.4-.2.7-.3,1.2-.3ZM47,22.8v10.3l1,.9c.2,0,.4-.1.6-.2.2,0,.5-.1.8-.2.3,0,.5,0,.8-.1.3,0,.5,0,.8,0,1.3,0,2.3.3,3,.8.6.5,1,1.3,1,2.3s-.3,2-1,2.5c-.7.5-1.6.8-2.9.8s-.9,0-1.3,0c-.5,0-.9-.2-1.4-.3-.5-.1-.9-.3-1.3-.4-.4-.2-.8-.3-1.1-.5v3.7c.3.2.7.3,1.1.5.4.1.9.3,1.3.3.5,0,1,.2,1.5.2.5,0,1,0,1.5,0,1.3,0,2.4-.2,3.4-.5,1-.3,1.8-.8,2.5-1.4.7-.6,1.2-1.4,1.5-2.2.3-.9.5-1.9.5-3s-.2-1.9-.5-2.7c-.3-.8-.8-1.4-1.3-2-.6-.5-1.2-.9-2-1.2-.8-.3-1.6-.4-2.5-.4h0c-.6,0-1.1,0-1.5.1-.4,0-.7.1-1,.2l.3-4.1h6.5v-3.4h-10.3ZM11.5,22.9c-.8,0-1.6,0-2.2.3-.7.2-1.3.4-1.8.6-.6.3-1.1.6-1.5.9-.5.3-.9.5-1.3.9l2.4,2.8c.7-.7,1.5-1.2,2.1-1.6.7-.4,1.4-.5,2.1-.5s1.3.2,1.7.6c.4.4.6.9.6,1.6s0,1.2-.3,1.7c-.2.5-.5,1.1-.8,1.6-.4.5-.8,1.1-1.3,1.6-.5.6-1,1.2-1.7,1.8l-4.8,5.4v2.8h13.7v-3.4h-8.3v-.2l2.5-2.7c.7-.7,1.4-1.4,2-2.1.6-.7,1.2-1.4,1.7-2.1.5-.7.9-1.4,1.1-2.2.3-.7.4-1.5.4-2.3s-.1-1.7-.4-2.4c-.3-.7-.7-1.1-1.3-1.6-.6-.5-1.2-.9-2-1.2-.8-.3-1.7-.4-2.6-.4ZM25.2,41.4v3.2h9.4l-7.3,17.2h4.5l7.1-17.7v-2.7h-13.8Z"/>
    <path class="st3" d="M3.4-.1C1.5-.1,0,1.4,0,3.3v1.1C0,2.6,1.5,1,3.4,1h57.4c1.9,0,3.4,1.5,3.4,3.4v-1.1c0-1.9-1.5-3.4-3.4-3.4H3.4Z"/>
  </g>
  <g class="st9">
    <path class="st6" d="M40.9,19.6c-1.3,0-2.5.6-3.4,1.5l-27.8,27.1c-2,1.8-2,4.9-.1,6.8,1.9,1.9,5,2,7,.1,0,0,0,0,.1-.1l27.8-27.1c2-1.9,2-4.9,0-6.8-1-1-2.3-1.5-3.7-1.5Z"/>
    <path class="st15" d="M41,23.6l-27.8,27.1h0"/>
    <path class="st8" d="M40.9,18.7c-1.3,0-2.5.6-3.4,1.5l-27.8,27.1c-1.1,1-1.6,2.5-1.5,3.9.1-1.2.6-2.2,1.5-3l27.8-27.1c.9-.9,2.1-1.4,3.4-1.5,2.6,0,4.8,1.8,5.1,4.4.2-2.6-1.8-5-4.5-5.2-.2,0-.4,0-.6,0Z"/>
    <path class="st6" d="M20.6,33.9l13.3-13c1-1,2.6-1,3.5,0l7.1,6.9c1,1,1,2.5,0,3.5l-13.3,13c-1,1-2.6,1-3.5,0l-7.1-6.9c-1-1-1-2.5,0-3.5Z"/>
    <path class="st0" d="M20.6,33l13.3-13c1-1,2.6-1,3.5,0l7.1,6.9c1,1,1,2.5,0,3.5l-13.3,13c-1,1-2.6,1-3.5,0l-7.1-6.9c-1-1-1-2.5,0-3.5Z"/>
    <ellipse class="st6" cx="41" cy="24.4" rx="17.5" ry="17"/>
    <ellipse class="st1" cx="41" cy="23.6" rx="17.5" ry="17"/>
    <ellipse class="st6" cx="41" cy="24.4" rx="12.1" ry="11.8"/>
    <ellipse class="st10" cx="41" cy="23.6" rx="12.1" ry="11.8"/>
    <path class="st11" d="M41.7,17c-2.2.1-5.6,4.6-5.6,4.6l1.2,1.6s7.4-2.5,5.7-5.5c-.3-.6-.8-.8-1.3-.7ZM35.7,21.9s-2.3.8-1.2,2.4c1.3,1.7,2.4-.7,2.4-.7l-1.3-1.7Z"/>
    <path class="st11" d="M44.8,24c-2.5.3-6.4,3.7-6.4,3.7l1,1.9s8.5-1.2,7.3-4.6c-.3-.9-1-1.1-1.8-1ZM38,27.9s-2.7.4-1.7,2.3c1,2,2.8-.3,2.8-.3l-1-2Z"/>
    <path class="st8" d="M41,6.5c-9.7,0-17.5,7.6-17.5,17,0,.2,0,.3,0,.5.2-9.3,8-16.7,17.5-16.7,9.5,0,17.2,7.3,17.5,16.5,0-.1,0-.2,0-.4,0-9.4-7.8-17-17.5-17Z"/>
  </g>
  <g class="st9">
    <path class="st24" d="M11.4,28.7L20.9,7.4c.2-.6.7-1,1.3-1.1.6-.1,1.2,0,1.6.4l6.8,5.2c1.1.9,2.7.9,3.8,0l6.8-5.2c.5-.4,1.1-.5,1.6-.4.6.1,1.1.5,1.3,1.1l9.5,21.3H11.4Z"/>
    <path class="st8" d="M22.6,6.3c-.1,0-.3,0-.4,0-.6.1-1.1.5-1.3,1.1l-9.5,21.3h.4l9.1-20.4c.2-.6.7-1,1.3-1.1.1,0,.3,0,.4,0,.4,0,.9.2,1.2.5l6.8,5.2c1.1.9,2.7.9,3.8,0l6.8-5.2c.5-.4,1.1-.5,1.6-.4.6.1,1.1.5,1.3,1.1l9.1,20.4h.4l-9.5-21.3c-.2-.6-.7-1-1.3-1.1-.6-.1-1.2,0-1.6.4l-6.8,5.2c-1.1.9-2.7.9-3.8,0l-6.8-5.2c-.3-.3-.8-.5-1.2-.5Z"/>
    <path class="st6" d="M12.4,44.5c-.5,0-.9.3-1,.7h0s0,.3,0,.3v7.1c0,1.4,1.2,2.6,2.7,2.6h36.8c1.5,0,2.7-1.1,2.7-2.6v-7.4h0c-.1-.4-.5-.7-1-.7H12.4Z"/>
    <path class="st14" d="M12.4,43.6c-.6,0-1.1.4-1.1,1v5.9c0,2.1,1.8,3.8,4,3.8h34.2c2.2,0,4-1.7,4-3.8v-5.9c0-.5-.5-1-1.1-1H12.4Z"/>
    <path class="st21" d="M15.9,28.1h33.2c.5,0,1,.5,1,1.1v24c0,.6-.4,1.1-1,1.1H15.9c-.5,0-1-.5-1-1.1v-24c0-.6.4-1.1,1-1.1Z"/>
    <path class="st4" d="M14.9,33.8v1.8h7.7c0,1.6.9,3.9,2.2,4.7,1.4.8,3.1.8,4.5,0,1.1-.6,1.9-1.7,2.2-3h0c0-1.1,1.9-1.1,2,0h0c.2,1.2,1,2.3,2.2,2.9,1.4.8,3.1.8,4.5,0,1.4-.8,2.2-3.1,2.2-4.7h7.7v-1.8H14.9Z"/>
    <path class="st16" d="M11.4,44.3l2,1.4c1,.7,2.2,1.2,3.4,1.5l13,2.6c1.1.2,2,1.1,2.2,2.1l.5,2.4H14.1c-1.5,0-2.7-1.1-2.7-2.6v-7.4Z"/>
    <path class="st22" d="M53.6,44.3l-2,1.4c-1,.7-2.2,1.2-3.4,1.5l-13,2.6c-1.1.2-2,1.1-2.2,2.1l-.5,2.4h18.4c1.5,0,2.7-1.1,2.7-2.6v-7.4Z"/>
    <path class="st5" d="M42.5,11.6c.7,0,1.4.4,1.8,1.1l9.3,15.6h-21.1v-9.6c.7,0,1.4-.2,1.9-.7l6.8-5.9c.4-.3.8-.5,1.3-.5Z"/>
    <path class="st4" d="M9.6,28.5h45.8c1,0,1.8.8,1.8,1.8s-.8,1.8-1.8,1.8H9.6c-1,0-1.8-.8-1.8-1.8s.8-1.8,1.8-1.8Z"/>
    <path class="st16" d="M9.6,27.6h45.8c1,0,1.8.8,1.8,1.8s-.8,1.8-1.8,1.8H9.6c-1,0-1.8-.8-1.8-1.8s.8-1.8,1.8-1.8Z"/>
    <path class="st11" d="M14.9,32.9v1.8h7.7c0,1.6.9,3.9,2.2,4.7,1.4.8,3.1.8,4.5,0,1.1-.6,1.9-1.7,2.2-3h0c0-1.1,1.9-1.1,2,0h0c.2,1.2,1,2.3,2.2,2.9,1.4.8,3.1.8,4.5,0,1.4-.8,2.2-3.1,2.2-4.7h7.7v-1.8H14.9Z"/>
    <path class="st7" d="M26,32.9l-2.7,4.5c.3.7.7,1.3,1.2,1.7l4.6-6.2h-3.1ZM30.6,32.9l-5.1,6.8c.5.2,1,.3,1.6.3l4.8-7.1h-1.3ZM40.9,32.9l-4.9,6.7c.3.2.7.3,1,.3l5.2-7h-1.3Z"/>
    <path class="st8" d="M9.6,27.6c-1,0-1.8.8-1.8,1.8s0,.3,0,.4c.2-.8.9-1.3,1.7-1.3h45.8c.8,0,1.5.6,1.7,1.3,0-.1,0-.3,0-.4,0-1-.8-1.8-1.8-1.8H9.6Z"/>
  </g>
  <g>
    <path class="st6" d="M31.6,7.8l-3.5,12.8c-1,.3-1.9.7-2.8,1.2l-9.5-5.3,5.3,9.5c-.5.9-.9,1.8-1.2,2.8l-12.9,3.5,12.9,3.5c.3,1,.7,1.9,1.2,2.8l-5.3,9.5,9.5-5.2c.9.5,1.8.9,2.8,1.2l3.5,12.8,3.5-12.8c1-.3,1.9-.7,2.8-1.2l9.5,5.2-5.3-9.5c.5-.9.9-1.8,1.2-2.8l12.9-3.5-12.8-3.5c-.3-1-.7-1.9-1.2-2.8l5.3-9.5-9.5,5.2c-.9-.5-1.8-.9-2.8-1.2l-3.5-12.8Z"/>
    <path class="st13" d="M31.6,7l-5.3,19.2-19.4,5.2,19.4,5.2,5.3,19.2,5.3-19.2,19.4-5.2-19.4-5.2-5.3-19.2Z"/>
    <path class="st7" d="M31.6,7l-5.3,19.2-19.4,5.2,1.6.4,17.7-4.8,5.3-19.2,5.3,19.2,17.7,4.8,1.6-.4-19.4-5.2-5.3-19.2Z"/>
    <path class="st23" d="M15.8,15.7l5.3,9.5c-1.2,1.9-1.8,4.1-1.8,6.3,0,2.2.6,4.4,1.8,6.3l-5.3,9.5,9.5-5.2c1.9,1.1,4.1,1.7,6.3,1.7,2.2,0,4.4-.6,6.3-1.7l9.5,5.2-5.3-9.5c1.1-1.9,1.7-4,1.8-6.3,0-2.2-.6-4.4-1.7-6.3l5.3-9.5-9.5,5.2c-1.9-1.1-4.1-1.7-6.3-1.7-2.2,0-4.4.6-6.3,1.8l-9.5-5.3Z"/>
    <path class="st8" d="M15.8,15.7l.7,1.3,8.8,4.9c1.9-1.1,4.1-1.8,6.3-1.8,2.2,0,4.4.6,6.3,1.7l8.8-4.8.7-1.3-9.5,5.2c-1.9-1.1-4.1-1.7-6.3-1.7-2.2,0-4.4.6-6.3,1.8l-9.5-5.3ZM20.8,25.6c-1,1.8-1.5,3.8-1.5,5.8,0,.1,0,.3,0,.4,0-2.1.7-4.1,1.7-5.8l-.2-.4ZM42.4,25.6l-.2.4c1.1,1.8,1.6,3.8,1.7,5.8,0-.1,0-.3,0-.4,0-2-.5-4-1.5-5.8ZM42.4,38.1c0,.2-.2.3-.2.5l4.6,8.2.7.4-5-9.1ZM20.8,38.1l-5.1,9,.7-.4,4.6-8.2c0-.1-.2-.3-.2-.5Z"/>
    <ellipse class="st6" cx="31.6" cy="32.3" rx="8.8" ry="8.7"/>
    <ellipse class="st10" cx="31.6" cy="31.4" rx="8.8" ry="8.7"/>
    <ellipse class="st20" cx="31.6" cy="31.4" rx="5.3" ry="5.2"/>
    <path class="st8" d="M31.6,26.2c-2.9,0-5.3,2.3-5.3,5.2,0,.1,0,.3,0,.4.2-2.7,2.5-4.8,5.2-4.8,2.7,0,5,2,5.3,4.7,0-.1,0-.2,0-.4,0-2.9-2.4-5.2-5.3-5.2Z"/>
  </g>
</svg>