<?xml version="1.0" encoding="UTF-8"?>
<svg id="_图层_1" xmlns="http://www.w3.org/2000/svg" version="1.1" viewBox="0 0 64 64" width="64" height="64">
  <!-- Generator: Adobe Illustrator 29.0.1, SVG Export Plug-In . SVG Version: 2.1.0 Build 192)  -->
  <defs>
    <style>
      .st0, .st1 {
        fill: #fecd38;
      }

      .st2, .st3, .st4, .st5, .st6, .st7, .st8 {
        isolation: isolate;
      }

      .st2, .st3, .st1, .st9, .st7 {
        display: none;
      }

      .st2, .st5, .st6, .st7 {
        opacity: .2;
      }

      .st3, .st10, .st6, .st7, .st8 {
        fill: #fff;
      }

      .st3, .st8 {
        opacity: .1;
      }

      .st11 {
        fill: #a45390;
      }

      .st4 {
        opacity: .2;
      }

      .st12 {
        fill: #548536;
      }

      .st13 {
        fill: #75b74a;
      }

      .st14 {
        fill: #6db832;
      }

      .st15 {
        fill: #c2352a;
      }

      .st16 {
        fill: #4987d7;
      }

      .st17 {
        fill: #ffe69b;
      }
    </style>
  </defs>
  <path class="st0" d="M50.3,64H13.8c-7.6,0-13.8-6.2-13.8-13.7V13.7C0,6.2,6.2,0,13.7,0h36.5c7.5,0,13.7,6.2,13.7,13.7v36.6c0,7.5-6.2,13.7-13.7,13.7h0Z"/>
  <g class="st9">
    <path class="st2" d="M0,59.5v2.3c0,1.9,1.5,3.4,3.4,3.4h57.4c1.9,0,3.4-1.5,3.4-3.4v-2.3c0,1.9-1.5,3.4-3.4,3.4H3.4C1.5,63,0,61.4,0,59.5Z"/>
    <path class="st16" d="M3.2-.1C2.3-.1,1.5.3.9.8l31.2,31.2L63.3.8c-.6-.6-1.4-.9-2.3-.9H3.2h0Z"/>
    <path class="st11" d="M3.2,64.1c-.9,0-1.7-.4-2.3-.9l31.2-31.2,31.2,31.2c-.6.6-1.4.9-2.3.9H3.2h0Z"/>
    <path class="st14" d="M64.2,3.1c0-.9-.4-1.7-.9-2.3l-31.2,31.2,31.2,31.2c.6-.6.9-1.4.9-2.3V3.1h0Z"/>
    <path class="st15" d="M0,3.1C0,2.2.4,1.4.9.8l31.2,31.2L.9,63.2c-.6-.6-.9-1.4-.9-2.3V3.1h0Z"/>
    <path class="st5" d="M35,5.6c-1.4,0-2.5.2-3.6.5-1,.3-1.9.8-2.6,1.3-.7.6-1.3,1.2-1.8,2-.5.8-.8,1.3-1.1,2.1-.3.9-.5,1.8-.6,2.8-.1,1-.2,1.9-.2,2.9h0c0,1.5.2,2.9.5,4,.4,1.1.9,2,1.5,2.8.7.7,1.4,1.3,2.3,1.7.9.4,1.8.5,2.8.5s2-.2,2.8-.5c.8-.3,1.5-.8,2.1-1.4.6-.6,1-1.4,1.3-2.2.3-.9.5-1.9.5-3s-.1-2-.4-2.8c-.3-.8-.6-1.6-1.1-2.1-.5-.6-1.1-1-1.8-1.3-.7-.3-1.5-.4-2.4-.4s-1.1,0-1.5.2c-.4.1-.8.3-1.2.5-.4.2-.7.6-.9.9-.3.3-.5.6-.7.9h-.2c0-1,.2-1.8.4-2.6.2-.8.5-1.1,1-1.7.5-.6,1.1-1,1.9-1.3.8-.3,1.8-.5,3.1-.5s.8,0,1.2,0c.4,0,.8.1,1.1.2v-3.5c-.2,0-.4,0-.6,0-.2,0-.5,0-.7,0-.2,0-.5,0-.7,0s-.4,0-.6,0ZM32.4,16c.8,0,1.5.3,1.9.9.4.6.6,1.4.6,2.4s0,1.1-.2,1.6c-.1.4-.3.8-.5,1.1-.2.3-.5.5-.8.7-.3.1-.7.2-1,.2s-.9-.1-1.2-.4c-.3-.2-.6-.5-.9-.9-.2-.4-.4-.8-.5-1.3-.1-.5-.2-1-.2-1.4s0-.7.2-1c.1-.3.3-.6.6-.9.3-.3.6-.5.9-.7.4-.2.7-.3,1.2-.3ZM47,24v10.3l1,.9c.2,0,.4-.1.6-.2.2,0,.5-.1.8-.2.3,0,.5,0,.8-.1.3,0,.5,0,.8,0,1.3,0,2.3.3,3,.8.6.5,1,1.3,1,2.3s-.3,2-1,2.5c-.7.5-1.6.8-2.9.8s-.9,0-1.3,0c-.5,0-.9-.2-1.4-.3-.5-.1-.9-.3-1.3-.4-.4-.2-.8-.3-1.1-.5v3.7c.3.2.7.3,1.1.5.4.1.9.3,1.3.3.5,0,1,.2,1.5.2.5,0,1,0,1.5,0,1.3,0,2.4-.2,3.4-.5,1-.3,1.8-.8,2.5-1.4.7-.6,1.2-1.4,1.5-2.2.3-.9.5-1.9.5-3s-.2-1.9-.5-2.7c-.3-.8-.8-1.4-1.3-2-.6-.5-1.2-.9-2-1.2-.8-.3-1.6-.4-2.5-.4h0c-.6,0-1.1,0-1.5.1-.4,0-.7.1-1,.2l.3-4.1h6.5v-3.4h-10.3ZM11.5,24.1c-.8,0-1.6,0-2.2.3-.7.2-1.3.4-1.8.6-.6.3-1.1.6-1.5.9-.5.3-.9.5-1.3.9l2.4,2.8c.7-.7,1.5-1.2,2.1-1.6.7-.4,1.4-.5,2.1-.5s1.3.2,1.7.6c.4.4.6.9.6,1.6s0,1.2-.3,1.7c-.2.5-.5,1.1-.8,1.6-.4.5-.8,1.1-1.3,1.6-.5.6-1,1.2-1.7,1.8l-4.8,5.4v2.8h13.7v-3.4h-8.3v-.2l2.5-2.7c.7-.7,1.4-1.4,2-2.1.6-.7,1.2-1.4,1.7-2.1.5-.7.9-1.4,1.1-2.2.3-.7.4-1.5.4-2.3s-.1-1.7-.4-2.4c-.3-.7-.7-1.1-1.3-1.6-.6-.5-1.2-.9-2-1.2-.8-.3-1.7-.4-2.6-.4ZM25.2,42.5v3.2h9.4l-7.3,17.2h4.5l7.1-17.7v-2.7h-13.8Z"/>
    <path class="st10" d="M35,4.5c-1.4,0-2.5.2-3.6.5-1,.3-1.9.8-2.6,1.3-.7.6-1.3,1.2-1.8,2-.5.8-.8,1.3-1.1,2.1-.3.9-.5,1.8-.6,2.8-.1,1-.2,1.9-.2,2.9h0c0,1.5.2,2.9.5,4,.4,1.1.9,2,1.5,2.8.7.7,1.4,1.3,2.3,1.7.9.4,1.8.5,2.8.5s2-.2,2.8-.5c.8-.3,1.5-.8,2.1-1.4.6-.6,1-1.4,1.3-2.2.3-.9.5-1.9.5-3s-.1-2-.4-2.8c-.3-.8-.6-1.6-1.1-2.1-.5-.6-1.1-1-1.8-1.3-.7-.3-1.5-.4-2.4-.4s-1.1,0-1.5.2c-.4.1-.8.3-1.2.5-.4.2-.7.6-.9.9-.3.3-.5.6-.7.9h-.2c0-1,.2-1.8.4-2.6.2-.8.5-1.1,1-1.7.5-.6,1.1-1,1.9-1.3.8-.3,1.8-.5,3.1-.5s.8,0,1.2,0c.4,0,.8.1,1.1.2v-3.5c-.2,0-.4,0-.6,0-.2,0-.5,0-.7,0-.2,0-.5,0-.7,0s-.4,0-.6,0ZM32.4,14.9c.8,0,1.5.3,1.9.9.4.6.6,1.4.6,2.4s0,1.1-.2,1.6c-.1.4-.3.8-.5,1.1-.2.3-.5.5-.8.7-.3.1-.7.2-1,.2s-.9-.1-1.2-.4c-.3-.2-.6-.5-.9-.9-.2-.4-.4-.8-.5-1.3-.1-.5-.2-1-.2-1.4s0-.7.2-1c.1-.3.3-.6.6-.9.3-.3.6-.5.9-.7.4-.2.7-.3,1.2-.3ZM47,22.8v10.3l1,.9c.2,0,.4-.1.6-.2.2,0,.5-.1.8-.2.3,0,.5,0,.8-.1.3,0,.5,0,.8,0,1.3,0,2.3.3,3,.8.6.5,1,1.3,1,2.3s-.3,2-1,2.5c-.7.5-1.6.8-2.9.8s-.9,0-1.3,0c-.5,0-.9-.2-1.4-.3-.5-.1-.9-.3-1.3-.4-.4-.2-.8-.3-1.1-.5v3.7c.3.2.7.3,1.1.5.4.1.9.3,1.3.3.5,0,1,.2,1.5.2.5,0,1,0,1.5,0,1.3,0,2.4-.2,3.4-.5,1-.3,1.8-.8,2.5-1.4.7-.6,1.2-1.4,1.5-2.2.3-.9.5-1.9.5-3s-.2-1.9-.5-2.7c-.3-.8-.8-1.4-1.3-2-.6-.5-1.2-.9-2-1.2-.8-.3-1.6-.4-2.5-.4h0c-.6,0-1.1,0-1.5.1-.4,0-.7.1-1,.2l.3-4.1h6.5v-3.4h-10.3ZM11.5,22.9c-.8,0-1.6,0-2.2.3-.7.2-1.3.4-1.8.6-.6.3-1.1.6-1.5.9-.5.3-.9.5-1.3.9l2.4,2.8c.7-.7,1.5-1.2,2.1-1.6.7-.4,1.4-.5,2.1-.5s1.3.2,1.7.6c.4.4.6.9.6,1.6s0,1.2-.3,1.7c-.2.5-.5,1.1-.8,1.6-.4.5-.8,1.1-1.3,1.6-.5.6-1,1.2-1.7,1.8l-4.8,5.4v2.8h13.7v-3.4h-8.3v-.2l2.5-2.7c.7-.7,1.4-1.4,2-2.1.6-.7,1.2-1.4,1.7-2.1.5-.7.9-1.4,1.1-2.2.3-.7.4-1.5.4-2.3s-.1-1.7-.4-2.4c-.3-.7-.7-1.1-1.3-1.6-.6-.5-1.2-.9-2-1.2-.8-.3-1.7-.4-2.6-.4ZM25.2,41.4v3.2h9.4l-7.3,17.2h4.5l7.1-17.7v-2.7h-13.8Z"/>
    <path class="st3" d="M3.4-.1C1.5-.1,0,1.4,0,3.3v1.1C0,2.6,1.5,1,3.4,1h57.4c1.9,0,3.4,1.5,3.4,3.4v-1.1c0-1.9-1.5-3.4-3.4-3.4H3.4Z"/>
  </g>
  <g class="st9">
    <path class="st2" d="M8,4.5s-4,0-4,4v48c0,4,4,4,4,4h32l20-20V8.5c0-4-4-4-4-4H8Z"/>
    <path class="st1" d="M8,3.5s-4,0-4,4v48c0,4,4,4,4,4h32l20-20V7.5c0-4-4-4-4-4H8Z"/>
    <path class="st17" d="M63.9,43.5h-17c-1.7,0-3,1.3-3,3v17l20-20Z"/>
    <path class="st6" d="M47.3,43.2c-1.7,0-3,1.3-3,3v1c0-1.7,1.3-3,3-3h16l1-1h-17Z"/>
    <path class="st7" d="M8,3.5s-4,0-4,4v1c0-4,4-4,4-4h48s4,0,4,4v-1c0-4-4-4-4-4H8Z"/>
    <path class="st4" d="M22,19.5v2h-12v-12h44v10H22Z"/>
    <path class="st4" d="M42,31.5v3H10v-8.9h44v5.9h-12Z"/>
  </g>
  <g>
    <circle class="st5" cx="43.2" cy="10" r="5.5"/>
    <path class="st5" d="M38.2,17.7c-1,0-1.9.6-2.3,1.5l-7.3,15.9-8.6,9.8-11.1-1.3c-3.7-.4-4.3,5.2-.6,5.6l12.6,1.5c.9.1,1.8-.3,2.4-.9l9.8-11.2c.2-.2.3-.4.4-.6l5.3-11,3.2,7c.8,1.8,3.1,2.2,4.5.8l8.4-8.4c2.7-2.6-1.3-6.7-4-4l-5.5,5.5-4.3-8.6c-.5-1.1-1.6-1.7-2.7-1.6Z"/>
    <path class="st12" d="M38.2,16.7c-1,0-1.9.6-2.3,1.5l-7.3,15.9-8.6,9.8-11.1-1.3c-3.7-.4-4.3,5.2-.6,5.6l12.6,1.5c.9.1,1.8-.3,2.4-.9l9.8-11.2c.2-.2.3-.4.4-.6l5.3-11,3.2,7c.8,1.8,3.1,2.2,4.5.8l8.4-8.4c2.7-2.6-1.3-6.7-4-4l-5.5,5.5-4.3-8.6c-.5-1.1-1.6-1.7-2.7-1.6Z"/>
    <path class="st8" d="M38.2,16.7c-1,0-1.9.6-2.3,1.5l-7.3,15.9-8.6,9.8-11.1-1.3c-2.2-.2-3.3,1.7-3.1,3.3.2-1.3,1.3-2.5,3.1-2.3l11.1,1.3,8.6-9.8,7.3-15.9c.5-.9,1.3-1.5,2.3-1.5,1.2,0,2.2.6,2.7,1.6l4.3,8.6,5.5-5.5c1.9-1.9,4.4-.5,4.8,1.5.5-2.4-2.6-4.7-4.8-2.5l-5.5,5.5-4.3-8.6c-.5-1.1-1.6-1.7-2.7-1.6Z"/>
    <circle class="st13" cx="43.2" cy="9" r="5.5"/>
    <path class="st5" d="M32.4,15.6c-.2,0-.5,0-.7,0l-10.9,2.8c-1.2.3-2.1,1.4-2.1,2.7v12.6c0,3.8,5.1,3.8,5,0v-10.3l6.1-1.5.2,3.3c-.7,2.1-1.4,4.1-1.9,6.1-1.5,5.3.1,8.5,3.4,9.3.1.1.3.3.4.4l8,5.8,5.3,11.9c1.5,3.4,6.6,1.1,5.1-2.3l-5.6-12.6c-.2-.5-.5-.8-.9-1.1l-6.4-4.6c1.3-2.3,1.9-5.5,2.6-8.2.6-2.1,1.2-4.2,1.8-6.3.5-1.7.4-3.2,0-4.1-.9-2.1-2.1-2.3-4-2.7l-4.7-1.1s0,0,0,0c-.2,0-.5-.1-.8-.1h0Z"/>
    <path class="st13" d="M32.4,14.6c-.2,0-.5,0-.7,0l-10.9,2.8c-1.2.3-2.1,1.4-2.1,2.7v12.6c0,3.8,5.1,3.8,5,0v-10.3l6.1-1.5.2,3.3c-.7,2.1-1.4,4.1-1.9,6.1-1.5,5.3.1,8.5,3.4,9.3.1.1.3.3.4.4l8,5.8,5.3,11.9c1.5,3.4,6.6,1.1,5.1-2.3l-5.6-12.6c-.2-.5-.5-.8-.9-1.1l-6.4-4.6c1.3-2.3,1.9-5.5,2.6-8.2.6-2.1,1.2-4.2,1.8-6.3.5-1.7.4-3.2,0-4.1-.9-2.1-2.1-2.3-4-2.7l-4.7-1.1s0,0,0,0c-.2,0-.5-.1-.8-.1h0Z"/>
    <path class="st6" d="M43.2,3.5c-3,0-5.5,2.5-5.5,5.5,0,.2,0,.3,0,.5.3-2.8,2.6-5,5.5-5,2.8,0,5.2,2.2,5.5,5,0-.2,0-.3,0-.5,0-3-2.5-5.5-5.5-5.5Z"/>
    <path class="st6" d="M32.4,14.6c-.2,0-.5,0-.7,0l-10.9,2.8c-1.2.3-2.1,1.4-2.1,2.7v1c0-1.3.9-2.4,2.1-2.7l10.9-2.8c.2,0,.5,0,.7,0,.3,0,.5,0,.8.1,0,0,0,0,0,0l4.7,1.1c2,.5,3.2.7,4,2.7.2.4.3.9.3,1.4,0-1,0-1.8-.3-2.4-.9-2.1-2.1-2.3-4-2.7l-4.7-1.1s0,0,0,0c-.2,0-.5-.1-.8-.1ZM29.9,24.5c-.7,2-1.3,4-1.8,6-.5,1.6-.6,3-.5,4.2,0-1,.2-2,.5-3.2.5-2,1.2-4.1,1.9-6.1v-.9ZM37.7,37.5c-.1.3-.2.5-.4.7l6.4,4.6c.4.3.7.7.9,1.1l5.6,12.6c.1.3.2.5.2.7.1-.5,0-1.1-.2-1.7l-5.6-12.6c-.2-.5-.5-.8-.9-1.1l-6-4.3Z"/>
  </g>
</svg>