<?xml version="1.0" encoding="UTF-8"?>
<svg id="_图层_1" xmlns="http://www.w3.org/2000/svg" version="1.1" viewBox="0 0 64 64" width="64" height="64">
  <!-- Generator: Adobe Illustrator 29.0.1, SVG Export Plug-In . SVG Version: 2.1.0 Build 192)  -->
  <defs>
    <style>
      .st0, .st1, .st2, .st3 {
        display: none;
      }

      .st0, .st4, .st5, .st3 {
        isolation: isolate;
        opacity: .2;
      }

      .st6, .st5, .st3 {
        fill: #fff;
      }

      .st1 {
        fill: #41db41;
      }

      .st7 {
        fill: #606060;
      }

      .st8 {
        fill: #27a74e;
      }

      .st9 {
        fill: #0766b5;
      }

      .st10 {
        fill: #dd2f38;
      }
    </style>
  </defs>
  <path class="st7" d="M47.5,64.1H13.8c-7.6,0-13.8-6.3-13.8-13.8V13.7C0,6.2,6.2,0,13.7,0h36.6c7.5,0,13.7,6.2,13.7,13.7v36.6c0,7.5-6.2,13.7-13.7,13.7h-2.9.1Z"/>
  <g class="st2">
    <path class="st0" d="M6.8,1.4C3,1.4,0,5,0,9.6v47.6c0,4.5,3,8.2,6.8,8.2h3.5l-6.6,9.7,23.6-9.7h30.2c3.7,0,6.8-3.6,6.8-8.2V9.6c0-4.5-3-8.2-6.8-8.2H6.8Z"/>
    <path class="st1" d="M6.7,0h50.7c3.7,0,6.7,3.7,6.7,8.2v47.6c0,4.5-3,8.2-6.7,8.2H6.7c-3.7,0-6.7-3.7-6.7-8.2V8.2C0,3.7,3,0,6.7,0Z"/>
    <path class="st1" d="M29,63.2l-25.3,10.4,7.3-10.7,18,.3Z"/>
    <path class="st4" d="M47.8,12.6c-.2,0-.3.3-.2.5.9,2.1,1.9,4.8,2.7,7.2-.4.5-1.1.8-1.8,1.1-2.7.5-5.6.6-8.4.9-.1,0-.2,0-.2.2-1,2.5-2.2,4.7-3.5,6.9,0,0,0,0,0,.1-.5,2.3-1.1,4.5-1.7,6.7-1.8.2-3.5.3-4.4,0-.8-2.1-1.5-4.2-1.6-5.7,0,0,0-.1,0-.2-2-2.9-3.9-5.8-5.5-8.8,0-.2-.2-.2-.4-.1-1.2.8-2.3,1.5-3.6,1.8-1.6-.8-3-1.8-4.4-2.8.8-2.3,1.7-5.2,2.8-7.3.2-.3,0-.6-.4-.5-2.4,1.4-4.8,2.6-7.7,3.5-.2,0-.3.3-.2.5.7,1.7,1.1,4.2,1.6,6.1,0,0,0,.2.1.2,2.1,1.4,4.2,3.3,6.3,4.8,0,0,.1,0,.2,0,1.3,0,2.5,0,3.6.2,1.3,3.2,2.4,5.7,3.6,8.7,1.4,4.7,2.7,9.7,4,14.5,0,.2.2.3.3.2,2-.2,4.3-.2,6.6,0,.1,0,.2,0,.3-.2,1-3.5,2-6.5,3-9.3,0,0,0,0,0,0,.6-2.4,1.3-4.8,2-7.3h0s0,0,0,0c1-2.5,2-5,3.1-7.3,2.8-.9,5.6-1.6,8.5-2.3.1,0,.2-.1.2-.2.7-2.5,1.4-5.7,2.3-8,0-.2,0-.4-.2-.5-2.4-1-4.7-2.2-6.9-3.5,0,0-.1,0-.2,0h0Z"/>
    <path class="st6" d="M47.8,11.2c-.2,0-.3.3-.2.5.9,2.1,1.9,4.8,2.7,7.2-.4.5-1.1.8-1.8,1.1-2.7.5-5.6.6-8.4.9-.1,0-.2,0-.2.2-1,2.5-2.2,4.7-3.5,6.9,0,0,0,0,0,.1-.5,2.3-1.1,4.5-1.7,6.7-1.8.2-3.5.3-4.4,0-.8-2.1-1.5-4.2-1.6-5.7,0,0,0-.1,0-.2-2-2.9-3.9-5.8-5.5-8.8,0-.2-.2-.2-.4-.1-1.2.8-2.3,1.5-3.6,1.8-1.6-.8-3-1.8-4.4-2.8.8-2.3,1.7-5.2,2.8-7.3.2-.3,0-.6-.4-.5-2.4,1.4-4.8,2.6-7.7,3.5-.2,0-.3.3-.2.5.7,1.7,1.1,4.2,1.6,6.1,0,0,0,.2.1.2,2.1,1.4,4.2,3.3,6.3,4.8,0,0,.1,0,.2,0,1.3,0,2.5,0,3.6.2,1.3,3.2,2.4,5.7,3.6,8.7,1.4,4.7,2.7,9.7,4,14.5,0,.2.2.3.3.2,2-.2,4.3-.2,6.6,0,.1,0,.2,0,.3-.2,1-3.5,2-6.5,3-9.3,0,0,0,0,0,0,.6-2.4,1.3-4.8,2-7.3h0s0,0,0,0c1-2.5,2-5,3.1-7.3,2.8-.9,5.6-1.6,8.5-2.3.1,0,.2-.1.2-.2.7-2.5,1.4-5.7,2.3-8,0-.2,0-.4-.2-.5-2.4-1-4.7-2.2-6.9-3.5,0,0-.1,0-.2,0h0Z"/>
    <path class="st3" d="M6.8,0C3,0,0,3.6,0,8.2v1.4C0,5,3,1.4,6.8,1.4h50.7c3.7,0,6.8,3.6,6.8,8.2v-1.4c0-4.5-3-8.2-6.8-8.2H6.8ZM9.4,65.3l-5.7,8.3,1.3-.5,5.3-7.8h-.9Z"/>
  </g>
  <g>
    <path class="st4" d="M14.2,16.8c-.9,0-1.7.6-1.9,1.5l-7.5,29.5c-.3,1.1.3,2.3,1.4,2.6.2,0,.3,0,.5,0h8.7c.9,0,1.7-.6,1.9-1.5l7.5-29.5c.3-1.1-.3-2.3-1.4-2.6-.2,0-.3,0-.5,0h-8.7ZM30.7,16.8c-.9,0-1.7.6-1.9,1.5l-7.5,29.5c-.3,1.1.3,2.3,1.4,2.6.2,0,.3,0,.5,0h8.7c.9,0,1.7-.6,1.9-1.5l7.5-29.5c.3-1.1-.3-2.3-1.4-2.6-.2,0-.3,0-.5,0h-8.7ZM47.2,16.8c-.9,0-1.7.6-1.9,1.5l-7.5,29.5c-.3,1.1.3,2.3,1.4,2.6.2,0,.3,0,.5,0h8.7c.9,0,1.7-.6,1.9-1.5l7.5-29.5c.3-1.1-.3-2.3-1.4-2.6-.2,0-.3,0-.5,0h-8.7Z"/>
    <path class="st10" d="M14.2,15.9c-.9,0-1.7.6-1.9,1.5l-7.5,29.5c-.3,1.1.3,2.3,1.4,2.6.2,0,.3,0,.5,0h8.7c.9,0,1.7-.6,1.9-1.5l7.5-29.5c.3-1.1-.3-2.3-1.4-2.6-.2,0-.3,0-.5,0h-8.7Z"/>
    <path class="st9" d="M47.2,15.9c-.9,0-1.7.6-1.9,1.5l-7.5,29.5c-.3,1.1.3,2.3,1.4,2.6.2,0,.3,0,.5,0h8.7c.9,0,1.7-.6,1.9-1.5l7.5-29.5c.3-1.1-.3-2.3-1.4-2.6-.2,0-.3,0-.5,0h-8.7Z"/>
    <path class="st8" d="M30.7,15.9c-.9,0-1.7.6-1.9,1.5l-7.5,29.5c-.3,1.1.3,2.3,1.4,2.6.2,0,.3,0,.5,0h8.7c.9,0,1.7-.6,1.9-1.5l7.5-29.5c.3-1.1-.3-2.3-1.4-2.6-.2,0-.3,0-.5,0h-8.7Z"/>
    <path class="st5" d="M14.2,15.9c-.9,0-1.7.6-1.9,1.5l-7.5,29.5c0,.3,0,.7,0,1,0,0,0,0,0-.1l7.5-29.5c.2-.9,1-1.5,1.9-1.5h8.7c.9,0,1.7.7,1.9,1.6.2-1.1-.5-2.2-1.5-2.5-.1,0-.3,0-.4,0h-8.7ZM30.7,15.9c-.9,0-1.7.6-1.9,1.5l-7.5,29.5c0,.3,0,.7,0,1,0,0,0,0,0-.1l7.5-29.5c.2-.9,1-1.5,1.9-1.5h8.7c.9,0,1.7.7,1.9,1.6.2-1.1-.5-2.2-1.5-2.5-.1,0-.3,0-.4,0h-8.7ZM47.2,15.9c-.9,0-1.7.6-1.9,1.5l-7.5,29.5c0,.3,0,.7,0,1,0,0,0,0,0-.1l7.5-29.5c.2-.9,1-1.5,1.9-1.5h8.7c.9,0,1.7.7,1.9,1.6.2-1.1-.5-2.2-1.5-2.5-.1,0-.3,0-.4,0h-8.7Z"/>
  </g>
</svg>