<?xml version="1.0" encoding="UTF-8"?>
<svg id="_图层_1" xmlns="http://www.w3.org/2000/svg" version="1.1" viewBox="0 0 64 64" width="64" height="64">
  <!-- Generator: Adobe Illustrator 29.0.1, SVG Export Plug-In . SVG Version: 2.1.0 Build 192)  -->
  <defs>
    <style>
      .st0 {
        fill: #5f5f5f;
      }

      .st1 {
        fill: #4f4f4f;
      }

      .st2 {
        fill: #ab47bc;
      }

      .st3 {
        fill: #ffc107;
      }

      .st4, .st5, .st6, .st7, .st8, .st9 {
        display: none;
      }

      .st4, .st10 {
        fill: #3f3f3f;
      }

      .st11 {
        opacity: 0;
      }

      .st11, .st5, .st6, .st12, .st13, .st14, .st9 {
        isolation: isolate;
      }

      .st5, .st13, .st14, .st9 {
        opacity: .2;
      }

      .st6, .st15, .st14, .st9 {
        fill: #fff;
      }

      .st6, .st12 {
        opacity: .1;
      }

      .st16 {
        fill: #ff8e13;
      }

      .st17 {
        fill: #7e7e7e;
      }

      .st18 {
        fill: #8ccbfd;
      }

      .st19 {
        fill: #fd3b2d;
      }

      .st7 {
        fill: #cbcbcb;
      }

      .st20 {
        fill: #53dd22;
      }

      .st21 {
        fill: #3f51b5;
      }

      .st22 {
        fill: #039af4;
      }

      .st23 {
        fill: #3584e4;
      }

      .st24 {
        fill: #e4e4e4;
      }

      .st25 {
        fill: #42fffd;
      }

      .st26 {
        fill: #f04113;
      }
    </style>
  </defs>
  <path class="st10" d="M50.4,64H13.8c-7.6,0-13.8-6.2-13.8-13.7V13.7C0,6.2,6.2,0,13.7,0h36.5c7.5,0,13.7,6.2,13.7,13.7v36.6c0,7.5-6.2,13.7-13.7,13.7h.1Z"/>
  <g class="st8">
    <path class="st13" d="M32,5.2c-5.6,0-11.3,2.1-15.6,6.4-4.3,4.3-6.4,9.9-6.4,15.6s2.1,11.3,6.4,15.6c4.3,4.3,9.9,6.4,15.6,6.4s11.3-2.1,15.6-6.4c4.3-4.3,6.4-9.9,6.4-15.6s-2.1-11.3-6.4-15.6c-4.3-4.3-9.9-6.4-15.6-6.4ZM32,19.2c2.1,0,4.2.8,5.7,2.3,1.5,1.5,2.3,3.5,2.3,5.7,0,2.1-.8,4.2-2.3,5.7-.7.7-1.5,1.3-2.4,1.6l4.8,10.7h-16l4.8-10.7c-.9-.4-1.7-1-2.4-1.7-1.5-1.5-2.3-3.5-2.3-5.7,0-2.1.8-4.2,2.3-5.7,1.5-1.5,3.5-2.3,5.7-2.3Z"/>
    <path class="st3" d="M32,4.2c-5.6,0-11.3,2.1-15.6,6.4l9.9,9.9c1.5-1.5,3.5-2.3,5.7-2.3V4.2Z"/>
    <path class="st20" d="M32,4.2v14c2.1,0,4.2.8,5.7,2.3l9.9-9.9c-4.3-4.3-9.9-6.4-15.6-6.4Z"/>
    <path class="st2" d="M26.3,31.8l-9.9,9.9c4.3,4.3,9.9,6.4,15.6,6.4v-4h-8l4.8-10.7c-.9-.4-1.7-1-2.4-1.7Z"/>
    <path class="st21" d="M37.7,31.8c-.7.7-1.5,1.3-2.4,1.6l4.8,10.7h-8v4c5.6,0,11.3-2.1,15.6-6.4l-9.9-9.9Z"/>
    <path class="st25" d="M47.6,10.6l-9.9,9.9c1.5,1.5,2.3,3.5,2.3,5.7h14c0-5.6-2.1-11.3-6.4-15.6Z"/>
    <path class="st22" d="M40,26.2c0,2.1-.8,4.2-2.3,5.7l9.9,9.9c4.3-4.3,6.4-9.9,6.4-15.6h-14Z"/>
    <path class="st16" d="M16.4,10.6c-4.3,4.3-6.4,9.9-6.4,15.6h14c0-2.1.8-4.2,2.3-5.7l-9.9-9.9Z"/>
    <path class="st19" d="M10,26.2c0,5.6,2.1,11.3,6.4,15.6l9.9-9.9c-1.5-1.5-2.3-3.5-2.3-5.7h-14Z"/>
    <path class="st14" d="M32,4.2c-5.6,0-11.3,2.1-15.6,6.4-4.3,4.3-6.4,9.9-6.4,15.6s0,.2,0,.3c.2-5.4,2.3-10.8,6.4-14.9,4.3-4.3,9.9-6.4,15.6-6.4s11.3,2.1,15.6,6.4c4.1,4.1,6.3,9.5,6.4,14.9,0-.1,0-.2,0-.3,0-5.6-2.1-11.3-6.4-15.6-4.3-4.3-9.9-6.4-15.6-6.4ZM24.1,27.2c0,.3,0,.7,0,1,0,.2,0,.3,0,.5,0-.2,0-.4,0-.5.2,1.8,1,3.4,2.3,4.7.6.6,1.3,1.1,2,1.5l.4-.8c-.9-.4-1.7-1-2.4-1.7-1.3-1.3-2.1-2.9-2.3-4.7ZM39.9,27.2c-.2,1.8-1,3.4-2.3,4.6-.7.7-1.5,1.3-2.4,1.6l.4.8c.8-.4,1.4-.9,2-1.5,1.3-1.3,2.1-2.9,2.3-4.6,0,.2,0,.4,0,.6,0-.2,0-.4,0-.6,0-.3,0-.7,0-1ZM24.9,44.2l-.9,2h.4l.4-1h14.2l.4,1h.4l-.9-2h-14.2Z"/>
    <path class="st13" d="M26.7,43.2c-1.5,0-2.7,1.2-2.7,2.8v8.4c0,1.6,1.2,2.8,2.7,2.8h1.3v1.7c0,.7.6,1.3,1.3,1.3h5.3c.7,0,1.3-.6,1.3-1.3v-1.7h1.3c1.5,0,2.7-1.2,2.7-2.8v-8.4c0-1.6-1.2-2.8-2.7-2.8h-10.7Z"/>
    <path class="st1" d="M26.7,42.2h10.7c1.5,0,2.7,1.3,2.7,2.8v8.4c0,1.5-1.2,2.8-2.7,2.8h-10.7c-1.5,0-2.7-1.3-2.7-2.8v-8.4c0-1.5,1.2-2.8,2.7-2.8Z"/>
    <rect class="st1" x="28" y="51.2" width="8" height="8" rx="1.3" ry="1.3"/>
  </g>
  <g class="st8">
    <path class="st5" d="M5.1,1.1h53.5c2.8,0,5.1,2.3,5.1,5.1v53.7c0,2.8-2.3,5.1-5.1,5.1H5.1c-2.8,0-5.1-2.3-5.1-5.1V6.3C0,3.4,2.3,1.1,5.1,1.1Z"/>
    <path class="st7" d="M5.1,0h53.5c2.8,0,5.1,2.3,5.1,5.1v53.7c0,2.8-2.3,5.1-5.1,5.1H5.1c-2.8,0-5.1-2.3-5.1-5.1V5.1C0,2.3,2.3,0,5.1,0Z"/>
    <path class="st13" d="M7.8,5.7c-1.8,0-3.2,1.3-3.2,3v8.9c0,1.6,1.4,3,3.2,3h48.2c1.8,0,3.2-1.3,3.2-3v-8.9c0-1.6-1.4-3-3.2-3H7.8ZM7.8,25.1c-1.8,0-3.2,1.3-3.2,3v8.9c0,1.6,1.4,3,3.2,3h48.2c1.8,0,3.2-1.3,3.2-3v-8.9c0-1.6-1.4-3-3.2-3H7.8Z"/>
    <path class="st15" d="M7.8,19.4h48.2c1.8,0,3.2-1.3,3.2-3V7.5c0-1.6-1.4-3-3.2-3H7.8c-1.8,0-3.2,1.3-3.2,3v8.9c0,1.6,1.4,3,3.2,3Z"/>
    <path class="st13" d="M9.1,9.1h34.1v5.7H9.1v-5.7Z"/>
    <path class="st15" d="M7.8,38.8h48.2c1.8,0,3.2-1.3,3.2-3v-8.9c0-1.6-1.4-3-3.2-3H7.8c-1.8,0-3.2,1.3-3.2,3v8.9c0,1.6,1.4,3,3.2,3Z"/>
    <path class="st11" d="M31.9,38.8h24.1c1.8,0,3.2-1.3,3.2-3v-8.9c0-1.6-1.4-3-3.2-3h-24.1s0,14.8,0,14.8Z"/>
    <path class="st13" d="M9.1,28.5h20.5v5.7H9.1v-5.7Z"/>
    <path class="st12" d="M7.8,60.5h48.2c1.8,0,3.2-1.4,3.2-3.2v-9.6c0-1.8-1.4-3.2-3.2-3.2H7.8c-1.8,0-3.2,1.4-3.2,3.2v9.6c0,1.8,1.4,3.2,3.2,3.2Z"/>
    <path class="st23" d="M7.8,59.4h48.2c1.8,0,3.2-1.4,3.2-3.2v-9.6c0-1.8-1.4-3.2-3.2-3.2H7.8c-1.8,0-3.2,1.4-3.2,3.2v9.6c0,1.8,1.4,3.2,3.2,3.2Z"/>
    <path class="st18" d="M20.5,48h22.8v6.9h-22.8v-6.9Z"/>
    <path class="st0" d="M44.4,33.1v-3.4h-10.2v3.4h10.2Z"/>
    <path class="st0" d="M56.9,9.1l-2.6,2.9-2.6,2.9-2.6-2.9-2.6-2.9h10.2Z"/>
    <path class="st0" d="M56.9,33.1v-3.4h-10.2v3.4h10.2Z"/>
    <path class="st0" d="M50.1,36.5h3.4v-10.3h-3.4v10.3Z"/>
    <path class="st9" d="M5.1,0C2.3,0,0,2.3,0,5.1v1.1C0,3.4,2.3,1.1,5.1,1.1h53.5c2.8,0,5.1,2.3,5.1,5.1v-1.1c0-2.8-2.3-5.1-5.1-5.1H5.1Z"/>
  </g>
  <g>
    <path class="st5" d="M4.9,65.2h53.8c2.7,0,4.9-2.3,4.9-5.1v-13.2H0v13.2c0,2.8,2.2,5.1,4.9,5.1Z"/>
    <path class="st24" d="M12.6,64h38.8c4.4,0,12.3-4.6,12.3-12.6v-5.6H0v5.4c0,6.1,5.9,12.9,12.6,12.9Z"/>
    <path class="st4" d="M4.9,0h53.8c2.7,0,4.9,2.3,4.9,5.1v40.6H0V5.1C0,2.3,2.2,0,4.9,0Z"/>
    <rect class="st17" x="27.3" y="52.6" width="29.5" height="4.6"/>
    <rect class="st26" x="6.8" y="52.6" width="20.5" height="4.6"/>
    <rect class="st14" x="22.7" y="52.6" width="9.1" height="4.6"/>
    <path class="st13" d="M31.8,8c-8.8,0-15.9,7.2-15.9,16s7.1,16,15.9,16,15.9-7.2,15.9-16-7.1-16-15.9-16ZM31.8,9.5c8,0,14.5,6.5,14.5,14.6s-6.5,14.6-14.5,14.6-14.5-6.5-14.5-14.6,6.5-14.6,14.5-14.6ZM27.3,16.7v14.6s13-7.3,13-7.3l-13-7.3Z"/>
    <path class="st15" d="M40.3,22.9l-13,7.3v-14.6s13,7.3,13,7.3Z"/>
    <path class="st15" d="M31.8,6.9c-8.8,0-15.9,7.2-15.9,16s7.1,16,15.9,16,15.9-7.2,15.9-16-7.1-16-15.9-16ZM31.8,8.3c8,0,14.5,6.5,14.5,14.6s-6.5,14.6-14.5,14.6-14.5-6.5-14.5-14.6,6.5-14.6,14.5-14.6Z"/>
    <rect class="st12" x="6.8" y="57.2" width="50" height="1.1"/>
    <rect class="st14" y="45.7" width="63.6" height="1.1"/>
    <path class="st6" d="M4.9,0C2.2,0,0,2.3,0,5.1v1.1C0,3.4,2.2,1.1,4.9,1.1h53.8c2.7,0,4.9,2.3,4.9,5.1v-1.1c0-2.8-2.2-5.1-4.9-5.1H4.9Z"/>
  </g>
</svg>