<?xml version="1.0" encoding="UTF-8" standalone="no"?>
<svg
   id="_图层_1"
   version="1.1"
   viewBox="0 0 64 64" width="64" height="64"
   sodipodi:docname="performous.svg"
   xml:space="preserve"
   inkscape:version="1.4 (e7c3feb100, 2024-10-09)"
   xmlns:inkscape="http://www.inkscape.org/namespaces/inkscape"
   xmlns:sodipodi="http://sodipodi.sourceforge.net/DTD/sodipodi-0.dtd"
   xmlns="http://www.w3.org/2000/svg"
   xmlns:svg="http://www.w3.org/2000/svg"><sodipodi:namedview
     id="namedview26"
     pagecolor="#ffffff"
     bordercolor="#999999"
     borderopacity="1"
     inkscape:showpageshadow="2"
     inkscape:pageopacity="0"
     inkscape:pagecheckerboard="0"
     inkscape:deskcolor="#d1d1d1"
     inkscape:zoom="8.453125"
     inkscape:cx="31.94085"
     inkscape:cy="31.94085"
     inkscape:window-width="1920"
     inkscape:window-height="939"
     inkscape:window-x="0"
     inkscape:window-y="34"
     inkscape:window-maximized="1"
     inkscape:current-layer="_图层_1" /><!-- Generator: Adobe Illustrator 29.0.1, SVG Export Plug-In . SVG Version: 2.1.0 Build 192)  --><defs
     id="defs6"><style
       id="style1">
      .st0 {
        fill-opacity: .5;
      }

      .st0, .st1, .st2, .st3, .st4, .st5, .st6, .st7 {
        fill: #fff;
      }

      .st8 {
        fill: #133c9a;
      }

      .st2, .st9 {
        display: none;
      }

      .st3 {
        fill-opacity: .2;
      }

      .st4 {
        fill-opacity: .9;
      }

      .st10 {
        fill: #3370ff;
      }

      .st11 {
        fill: url(#_未命名的渐变_3);
      }

      .st12 {
        fill: url(#_未命名的渐变);
      }

      .st5 {
        fill-opacity: .3;
      }

      .st6 {
        fill-opacity: 0;
      }

      .st7 {
        fill-opacity: .7;
      }

      .st13 {
        fill: #00d6b9;
      }

      .st14 {
        fill: url(#_未命名的渐变_2);
      }
    </style><radialGradient
       id="_未命名的渐变"
       data-name="未命名的渐变"
       cx="123.9"
       cy="-40.2"
       fx="123.9"
       fy="-40.2"
       r="59.4"
       gradientTransform="translate(-26.8 25.5) scale(.6 -.7)"
       gradientUnits="userSpaceOnUse"><stop
         offset="0"
         stop-color="#db202e"
         id="stop1" /><stop
         offset="1"
         stop-color="#e01b24"
         id="stop2" /></radialGradient><radialGradient
       id="_未命名的渐变_2"
       data-name="未命名的渐变 2"
       cx="67.6"
       cy="26.8"
       fx="67.6"
       fy="26.8"
       r="105.2"
       gradientTransform="translate(-26.6 25.3) scale(.6 -.7)"
       gradientUnits="userSpaceOnUse"><stop
         offset="0"
         stop-color="#ffb648"
         id="stop3" /><stop
         offset="1"
         stop-color="#ff7800"
         stop-opacity="0"
         id="stop4" /></radialGradient><radialGradient
       id="_未命名的渐变_3"
       data-name="未命名的渐变 3"
       cx="61.7"
       cy="18.6"
       fx="61.7"
       fy="18.6"
       r="68"
       gradientTransform="translate(-26.8 25.8) scale(.6 -.7)"
       gradientUnits="userSpaceOnUse"><stop
         offset="0"
         stop-color="#c64600"
         id="stop5" /><stop
         offset="1"
         stop-color="#a51d2d"
         id="stop6" /></radialGradient><style
       id="style1-0">
      .st0 {
        fill-opacity: .5;
      }

      .st0, .st1, .st2, .st3, .st4, .st5, .st6, .st7 {
        fill: #fff;
      }

      .st8 {
        fill: #133c9a;
      }

      .st2, .st9 {
        display: none;
      }

      .st3 {
        fill-opacity: .2;
      }

      .st4 {
        fill-opacity: .9;
      }

      .st10 {
        fill: #3370ff;
      }

      .st11 {
        fill: url(#_未命名的渐变_3);
      }

      .st12 {
        fill: url(#_未命名的渐变);
      }

      .st5 {
        fill-opacity: .3;
      }

      .st6 {
        fill-opacity: 0;
      }

      .st7 {
        fill-opacity: .7;
      }

      .st13 {
        fill: #00d6b9;
      }

      .st14 {
        fill: url(#_未命名的渐变_2);
      }
    </style><radialGradient
       id="_未命名的渐变-6"
       data-name="未命名的渐变"
       cx="123.9"
       cy="-40.2"
       fx="123.9"
       fy="-40.2"
       r="59.4"
       gradientTransform="matrix(0.6,0,0,-0.7,-26.8,25.5)"
       gradientUnits="userSpaceOnUse"><stop
         offset="0"
         stop-color="#db202e"
         id="stop1-3" /><stop
         offset="1"
         stop-color="#e01b24"
         id="stop2-2" /></radialGradient><radialGradient
       id="_未命名的渐变_2-0"
       data-name="未命名的渐变 2"
       cx="67.6"
       cy="26.8"
       fx="67.6"
       fy="26.8"
       r="105.2"
       gradientTransform="matrix(0.6,0,0,-0.7,-26.6,25.3)"
       gradientUnits="userSpaceOnUse"><stop
         offset="0"
         stop-color="#ffb648"
         id="stop3-6" /><stop
         offset="1"
         stop-color="#ff7800"
         stop-opacity="0"
         id="stop4-1" /></radialGradient><radialGradient
       id="_未命名的渐变_3-5"
       data-name="未命名的渐变 3"
       cx="61.7"
       cy="18.6"
       fx="61.7"
       fy="18.6"
       r="68"
       gradientTransform="matrix(0.6,0,0,-0.7,-26.8,25.8)"
       gradientUnits="userSpaceOnUse"><stop
         offset="0"
         stop-color="#c64600"
         id="stop5-5" /><stop
         offset="1"
         stop-color="#a51d2d"
         id="stop6-4" /></radialGradient></defs><path
     class="st1"
     d="M47.5,64.1H13.8c-7.6,0-13.8-6.3-13.8-13.8V13.7C0,6.2,6.2,0,13.7,0h36.6c7.5,0,13.7,6.2,13.7,13.7v36.6c0,7.5-6.2,13.7-13.7,13.7h-2.9.1Z"
     id="path6"
     style="fill:#6e85e9;fill-opacity:1" /><rect
     class="st2"
     x="3"
     y="9.7"
     width="58.1"
     height="45.3"
     id="rect6" /><g
     class="st9"
     id="g21"><path
       class="st12"
       d="M-.1,16v35.3c.3,6.5,6.1,12.6,13.4,12.6l4.7.2h23.3s7.2,0,7.2,0c8.8,0,15.5-4.1,15.5-13.9V16.4h0C64,6.3,58,0,50.7,0H14.8C4.7-.2,0,7.2,0,14.5v1.4h-.1ZM4.6,11.6h4.6v5.8h-4.6v-5.8ZM54.9,11.6h4.6v5.8h-4.6v-5.8ZM4.6,23.2h4.6v5.8h-4.6v-5.8ZM54.9,23.2h4.6v5.8h-4.6v-5.8ZM4.6,34.8h4.6v5.8h-4.6v-5.8ZM54.9,34.8h4.6v5.8h-4.6v-5.8ZM4.6,46.4h4.6v5.8h-4.6v-5.8ZM54.9,46.4h4.6v5.8h-4.6v-5.8Z"
       id="path7" /><path
       class="st14"
       d="M47.5,0h-.7C41.4,0,46.8,0,45.5,0H13.3C4.1.3,0,8.5,0,13.7v1.3c0,.3-.1.3-.1.6v34.3c0,1.1,0,.8,0,.8H0c0,7.1,5.9,13.2,13.8,13.3h0c1.2,0,0,0,1.2,0h0c1.1,0,2.3,0,1.1,0h23.5c1.1,0,0,0,1.1,0h.7c3.2.1-1.7,0,0,0h-2.6c1.1,0,.6,0-1.1,0h-2c1.9,0-.6,0,13.3,0h1.3c5.9,0,13.7-4.3,13.6-11.4l.2-36.2C64.1,8.1,58.6,0,51.2,0M4.8,22.9h4.5v5.8h-4.5v-5.8ZM54.7,11.4h4.5v5.8h-4.5v-5.8ZM4.8,11.4h5v5.8h-5v-5.8ZM54.7,22.9h4.5v5.8h-4.5v-5.8ZM4.8,34.4h4.5v5.8h-4.5v-5.8ZM54.7,34.4h4.5v5.8h-4.5v-5.8ZM4.8,46h4.5v5.8h-4.5v-5.8ZM54.7,46h4.5v5.8h-4.5v-5.8Z"
       id="path8" /><path
       class="st11"
       d="M4.6,9.7v2.2h4.6v-2.2h-4.6ZM54.9,9.7v2.2h4.6v-2.2h-4.6ZM4.6,21.3v2.2h4.6v-2.2h-4.6ZM54.9,21.3v2.2h4.6v-2.2h-4.6ZM4.6,32.9v2.2h4.6v-2.2h-4.6ZM54.9,32.9v2.2h4.6v-2.2h-4.6ZM4.6,44.4v2.2h4.6v-2.2h-4.6ZM54.9,44.4v2.2h4.6v-2.2h-4.6ZM4.6,56v2.2h4.6v-2.2h-4.6ZM54.9,56v2.2h4.6v-2.2h-4.6Z"
       id="path9" /><g
       id="g20"><path
         class="st1"
         d="M25.1,29.3h13.7v11.6h-13.7s0-11.6,0-11.6Z"
         id="path10" /><path
         class="st1"
         d="M32,53.9l-12.6-15.9h25.1l-12.6,15.9h.1Z"
         id="path11" /><path
         class="st7"
         d="M25.1,29.3h4.6v-5.8h-4.6v5.8Z"
         id="path12" /><path
         class="st1"
         d="M29.7,29.3h4.6v-5.8h-4.6s0,5.8,0,5.8Z"
         id="path13" /><path
         class="st4"
         d="M34.3,29.3h4.6v-5.8h-4.6v5.8Z"
         id="path14" /><path
         class="st7"
         d="M38.9,23.5h-4.6v-5.8h4.6v5.8Z"
         id="path15" /><path
         class="st0"
         d="M34.3,23.5h-4.6v-5.8h4.6v5.8Z"
         id="path16" /><path
         class="st4"
         d="M29.7,23.5h-4.6v-5.8h4.6v5.8Z"
         id="path17" /><path
         class="st3"
         d="M38.9,17.7h-4.6v-5.8h4.6v5.8Z"
         id="path18" /><path
         class="st5"
         d="M34.3,17.7h-4.6v-5.8h4.6v5.8Z"
         id="path19" /><path
         class="st6"
         d="M29.7,17.7h-4.6v-5.8h4.6v5.8Z"
         id="path20" /></g></g><g
     class="st9"
     id="g23"><path
       class="st8"
       d="M50.3,23.1c.2,0,.5,0,.7,0,1.8.2,3.5.7,5.1,1.4.5.2.6.4.2.8-1.2,1.2-2.1,2.7-2.9,4.2-.8,1.7-1.6,3.3-2.5,4.9-.6,1.2-1.4,2.3-2.4,3.3-2.5,2.3-5.4,3.2-8.8,2.8-3.8-.5-7.5-1.8-10.9-3.5-.2,0-.3-.2-.5-.3-.1,0-.2-.2,0-.3,0,0,0,0,0,0h.2c2.8-1.6,5.1-3.7,7.3-5.9.9-.9,1.9-1.9,2.8-2.8,2.1-2,4.7-3.4,7.5-4,.6-.2,1.2-.3,1.9-.4h1.4"
       id="path21" /><path
       class="st10"
       d="M23.4,49.9c-.4,0-1.5-.2-1.6-.2-2.7-.3-5.3-1.1-7.7-2.3-1.4-.7-2.8-1.4-4.1-2.2-.9-.5-1.3-1.3-1.3-2.3,0-3.9,0-7.8,0-11.7,0-2.5,0-5-.1-7.5,0-.2,0-.4.1-.7.2-.5.5-.5.8-.2.4.3.6.8,1,1.1,3.2,3.1,6.5,6,10.3,8.3,2.1,1.4,4.3,2.6,6.6,3.6,3.6,1.7,7.4,3.1,11.3,4,3.5.8,6.8.3,9.6-1.9.9-.7,1.3-1.3,2.3-2.6-.5,1.2-1,2.3-1.8,3.4-.7,1-2.1,2.4-3.2,3.5-1.7,1.6-3.9,3-6,4.1-2.3,1.2-4.6,2.2-7.2,2.7-1.3.3-3.2.7-3.8.7-.1,0-.5,0-.7,0-1.7.1-2.7.2-4.4,0h0Z"
       id="path22" /><path
       class="st13"
       d="M16.2,12.3c.1,0,.2,0,.3,0,7.2,0,14.3.1,21.4.1s0,0,0,0c.7.6,1.3,1.2,1.8,1.9,1.6,1.6,2.8,4.4,3.6,6.1.4,1.2,1,2.3,1.3,3.6h0c-.7.3-1.4.5-2.1.9-2.1,1-3,1.8-4.7,3.5-.9.9-1.7,1.7-3,2.9-.5.4-.9.9-1.4,1.3-.3-.6-5.9-11.5-17.1-20"
       id="path23" /></g><g
     id="g30"
     transform="matrix(1.1351907,0,0,1.1477408,-4.3281556,-5.5487732)"><g
       id="g31"
       transform="matrix(1.0037295,0,0,0.98517835,-0.01332294,1.0572692)"><rect
         style="fill:#6e85e9;fill-opacity:1"
         width="56"
         height="56"
         x="4"
         y="4"
         rx="28"
         ry="28"
         id="rect2" /><g
         id="g32"
         transform="matrix(1.003708,0,0,0.99818454,-0.32630365,0.00726195)"><path
           style="opacity:0.1;fill-rule:evenodd"
           d="m 37.30051,18.999579 -1.749999,1.275682 -4.454543,1.753972 -0.986361,1.020444 -0.763632,0.574052 -0.1591,1.339415 0.318178,0.70156 0.29949,1.304024 1.081817,2.104749 1.177272,1.498882 -1.845453,3.029581 -1.099092,4.52846 -1.272728,2.040964 -1.787925,2.583115 -0.09546,1.179924 -1.362074,1.020515 1.654546,1.49888 -0.273892,1.785869 0.1591,4.482839 0.62389,4.960851 L 27.400913,61 h 5.896643 l -0.445456,-0.12758 0.572726,-0.510258 -0.09546,-1.43509 0.604543,-1.243713 -0.509089,0.06352 0.782849,-1.594498 v -1.995127 l 0.604546,-0.829144 v -1.084236 l 1.240908,-2.250507 0.09546,-1.435086 -0.254546,-1.179925 0.433238,-1.3394 0.668184,-1.084308 v -0.669663 l 0.763633,-0.09568 0.66818,-0.669738 0.604548,-1.690182 1.336361,-1.498877 1.590908,-0.605876 0.986366,0.861038 2.449997,0.733458 1.940905,1.819625 0.922726,1.179924 1.590908,0.15948 5.02727,2.200439 2.577271,0.92483 2.099996,1.594495 L 60,49.070341 V 48.464465 L 58.886364,47.603428 60,47.890418 v -2.391742 h -0.1909 l -0.986366,-0.414642 -0.668186,-0.350784 0.986366,-0.829139 0.254548,-0.605876 -0.1591,-0.414642 -0.922722,0.15948 -1.940907,1.020516 -0.254544,0.51026 -0.668186,-0.15948 -2.418177,-1.371298 -0.09546,-0.92483 -1.431818,-0.733458 -2.418177,-1.275609 -0.604548,0.414572 0.09546,-0.574048 -1.336362,-1.275612 -0.477743,-1.117993 -1.081818,-1.27561 -0.349998,-0.414572 1.081816,0.765352 -0.15908,-0.861038 0.859088,0.446468 -0.254544,-1.275612 1.177273,1.084236 -0.509091,-0.733456 1.177269,0.478364 -1.018179,-1.403193 0.763635,0.255094 -0.35,-1.371226 0.604544,0.510188 -0.859088,-1.243716 0.859088,0.255166 -0.763632,-1.020518 1.018178,-0.09568 -1.113634,-0.669663 0.66818,-0.318956 -0.731816,-0.09568 0.986362,-0.92483 -0.922726,0.09568 0.09546,-0.605872 0.09546,-1.658287 -0.509093,1.148029 -0.604544,-1.658287 0.09546,1.339403 -0.35,0.09568 H 45.840474 L 44.218218,27.03226 h -0.922723 l -1.08182,-0.924832 -0.50909,0.51026 -1.272726,0.440404 h -1.234063 l -0.349998,0.829144 0.349998,1.345463 -0.1909,0.98855 -0.82727,-0.478292 -0.668182,-1.27568 -1.852301,-0.318884 -0.572726,-0.605875 -1.272728,-0.574048 -0.872213,-1.399712 0.09546,-1.084235 3.531815,-2.710712 1.654543,0.765352 0.254544,1.174938 v 0.701574 l 0.445458,0.574047 0.827268,0.255094 0.572728,-0.510258 0.09546,-0.573991 -0.254543,-0.510258 -0.509092,-0.255094 -0.31818,-1.01546 0.731818,-0.35078 -0.15908,-0.829211 v -0.510188 l -0.509128,-0.510262 -0.254544,-0.765353 -0.986364,-0.22327 -0.859088,-0.191373 z"
           id="path2" /><path
           style="fill:#3f3f3f;fill-rule:evenodd"
           d="m 37.30051,17.99958 -1.749999,1.275682 -4.454543,1.753972 -0.986361,1.020444 -0.763632,0.574052 -0.1591,1.339415 0.318178,0.70156 0.29949,1.304024 1.081817,2.104749 1.177272,1.498882 -1.845453,3.029581 -1.099092,4.52846 -1.272728,2.040964 -1.787925,2.583115 -0.09546,1.179924 -1.362074,1.020515 1.654546,1.49888 -0.273892,1.785869 0.1591,4.482839 0.62389,4.960851 0.636369,3.316643 h 5.896643 l -0.445456,-0.12758 0.572726,-0.510258 -0.09546,-1.43509 0.604543,-1.243713 -0.509089,0.06352 0.782849,-1.594498 v -1.995127 l 0.604546,-0.829144 v -1.084236 l 1.240908,-2.250507 0.09546,-1.435086 -0.254546,-1.179925 0.433238,-1.3394 0.668184,-1.084308 v -0.669663 l 0.763633,-0.09568 0.66818,-0.669738 0.604548,-1.690182 1.336361,-1.498877 1.590908,-0.605876 0.986366,0.861038 2.449997,0.733458 1.940905,1.819625 0.922726,1.179924 1.590908,0.15948 5.02727,2.200439 2.577271,0.92483 2.099996,1.594495 L 60,48.070342 V 47.464466 L 58.886364,46.603429 60,46.890419 v -2.391742 h -0.1909 l -0.986366,-0.414642 -0.668186,-0.350784 0.986366,-0.829139 0.254548,-0.605876 -0.1591,-0.414642 -0.922722,0.15948 -1.940907,1.020516 -0.254544,0.51026 -0.668186,-0.15948 -2.418177,-1.371298 -0.09546,-0.92483 -1.431818,-0.733458 -2.418177,-1.275609 -0.604548,0.414572 0.09546,-0.574048 -1.336362,-1.275612 -0.477743,-1.117993 -1.081818,-1.27561 -0.349998,-0.414572 1.081816,0.765352 -0.15908,-0.861038 0.859088,0.446468 -0.254544,-1.275612 1.177273,1.084236 -0.509091,-0.733456 1.177269,0.478364 -1.018179,-1.403193 0.763635,0.255094 -0.35,-1.371226 0.604544,0.510188 -0.859088,-1.243716 0.859088,0.255166 -0.763632,-1.020518 1.018178,-0.09568 -1.113634,-0.669663 0.66818,-0.318956 -0.731816,-0.09568 0.986362,-0.92483 -0.922726,0.09568 0.09546,-0.605872 0.09546,-1.658287 -0.509093,1.148029 -0.604544,-1.658287 0.09546,1.339403 -0.35,0.09568 h -0.827274 l -1.622256,-1.371297 h -0.922723 l -1.08182,-0.924832 -0.50909,0.51026 -1.272726,0.440404 h -1.234063 l -0.349998,0.829144 0.349998,1.345463 -0.1909,0.98855 -0.82727,-0.478292 -0.668182,-1.27568 -1.852301,-0.318884 -0.572726,-0.605875 -1.272728,-0.574048 -0.872213,-1.399712 0.09546,-1.084235 3.531815,-2.710712 1.654543,0.765352 0.254544,1.174938 v 0.701574 l 0.445458,0.574047 0.827268,0.255094 0.572728,-0.510258 0.09546,-0.573991 -0.254543,-0.510258 -0.509092,-0.255094 -0.31818,-1.01546 0.731818,-0.35078 -0.15908,-0.829211 v -0.510188 l -0.509128,-0.510262 -0.254544,-0.765353 -0.986364,-0.22327 -0.859088,-0.191373 z"
           id="path3" /></g></g></g></svg>
