<?xml version="1.0" encoding="UTF-8" standalone="no"?>
<svg
   id="_图层_1"
   version="1.1"
   viewBox="0 0 64 64" width="64" height="64"
   sodipodi:docname="portal-stories-mel.svg"
   xml:space="preserve"
   inkscape:version="1.4 (e7c3feb100, 2024-10-09)"
   xmlns:inkscape="http://www.inkscape.org/namespaces/inkscape"
   xmlns:sodipodi="http://sodipodi.sourceforge.net/DTD/sodipodi-0.dtd"
   xmlns="http://www.w3.org/2000/svg"
   xmlns:svg="http://www.w3.org/2000/svg"><sodipodi:namedview
     id="namedview26"
     pagecolor="#ffffff"
     bordercolor="#999999"
     borderopacity="1"
     inkscape:showpageshadow="2"
     inkscape:pageopacity="0"
     inkscape:pagecheckerboard="0"
     inkscape:deskcolor="#d1d1d1"
     inkscape:zoom="10.6875"
     inkscape:cx="32"
     inkscape:cy="32"
     inkscape:window-width="1920"
     inkscape:window-height="939"
     inkscape:window-x="0"
     inkscape:window-y="34"
     inkscape:window-maximized="1"
     inkscape:current-layer="g26" /><!-- Generator: Adobe Illustrator 29.0.1, SVG Export Plug-In . SVG Version: 2.1.0 Build 192)  --><defs
     id="defs6"><style
       id="style1">
      .st0 {
        fill-opacity: .5;
      }

      .st0, .st1, .st2, .st3, .st4, .st5, .st6, .st7 {
        fill: #fff;
      }

      .st8 {
        fill: #133c9a;
      }

      .st2, .st9 {
        display: none;
      }

      .st3 {
        fill-opacity: .2;
      }

      .st4 {
        fill-opacity: .9;
      }

      .st10 {
        fill: #3370ff;
      }

      .st11 {
        fill: url(#_未命名的渐变_3);
      }

      .st12 {
        fill: url(#_未命名的渐变);
      }

      .st5 {
        fill-opacity: .3;
      }

      .st6 {
        fill-opacity: 0;
      }

      .st7 {
        fill-opacity: .7;
      }

      .st13 {
        fill: #00d6b9;
      }

      .st14 {
        fill: url(#_未命名的渐变_2);
      }
    </style><radialGradient
       id="_未命名的渐变"
       data-name="未命名的渐变"
       cx="123.9"
       cy="-40.2"
       fx="123.9"
       fy="-40.2"
       r="59.4"
       gradientTransform="translate(-26.8 25.5) scale(.6 -.7)"
       gradientUnits="userSpaceOnUse"><stop
         offset="0"
         stop-color="#db202e"
         id="stop1" /><stop
         offset="1"
         stop-color="#e01b24"
         id="stop2" /></radialGradient><radialGradient
       id="_未命名的渐变_2"
       data-name="未命名的渐变 2"
       cx="67.6"
       cy="26.8"
       fx="67.6"
       fy="26.8"
       r="105.2"
       gradientTransform="translate(-26.6 25.3) scale(.6 -.7)"
       gradientUnits="userSpaceOnUse"><stop
         offset="0"
         stop-color="#ffb648"
         id="stop3" /><stop
         offset="1"
         stop-color="#ff7800"
         stop-opacity="0"
         id="stop4" /></radialGradient><radialGradient
       id="_未命名的渐变_3"
       data-name="未命名的渐变 3"
       cx="61.7"
       cy="18.6"
       fx="61.7"
       fy="18.6"
       r="68"
       gradientTransform="translate(-26.8 25.8) scale(.6 -.7)"
       gradientUnits="userSpaceOnUse"><stop
         offset="0"
         stop-color="#c64600"
         id="stop5" /><stop
         offset="1"
         stop-color="#a51d2d"
         id="stop6" /></radialGradient></defs><path
     class="st1"
     d="M47.5,64.1H13.8c-7.6,0-13.8-6.3-13.8-13.8V13.7C0,6.2,6.2,0,13.7,0h36.6c7.5,0,13.7,6.2,13.7,13.7v36.6c0,7.5-6.2,13.7-13.7,13.7h-2.9.1Z"
     id="path6"
     style="fill:#ffffff;fill-opacity:1" /><rect
     class="st2"
     x="3"
     y="9.7"
     width="58.1"
     height="45.3"
     id="rect6" /><g
     class="st9"
     id="g21"><path
       class="st12"
       d="M-.1,16v35.3c.3,6.5,6.1,12.6,13.4,12.6l4.7.2h23.3s7.2,0,7.2,0c8.8,0,15.5-4.1,15.5-13.9V16.4h0C64,6.3,58,0,50.7,0H14.8C4.7-.2,0,7.2,0,14.5v1.4h-.1ZM4.6,11.6h4.6v5.8h-4.6v-5.8ZM54.9,11.6h4.6v5.8h-4.6v-5.8ZM4.6,23.2h4.6v5.8h-4.6v-5.8ZM54.9,23.2h4.6v5.8h-4.6v-5.8ZM4.6,34.8h4.6v5.8h-4.6v-5.8ZM54.9,34.8h4.6v5.8h-4.6v-5.8ZM4.6,46.4h4.6v5.8h-4.6v-5.8ZM54.9,46.4h4.6v5.8h-4.6v-5.8Z"
       id="path7" /><path
       class="st14"
       d="M47.5,0h-.7C41.4,0,46.8,0,45.5,0H13.3C4.1.3,0,8.5,0,13.7v1.3c0,.3-.1.3-.1.6v34.3c0,1.1,0,.8,0,.8H0c0,7.1,5.9,13.2,13.8,13.3h0c1.2,0,0,0,1.2,0h0c1.1,0,2.3,0,1.1,0h23.5c1.1,0,0,0,1.1,0h.7c3.2.1-1.7,0,0,0h-2.6c1.1,0,.6,0-1.1,0h-2c1.9,0-.6,0,13.3,0h1.3c5.9,0,13.7-4.3,13.6-11.4l.2-36.2C64.1,8.1,58.6,0,51.2,0M4.8,22.9h4.5v5.8h-4.5v-5.8ZM54.7,11.4h4.5v5.8h-4.5v-5.8ZM4.8,11.4h5v5.8h-5v-5.8ZM54.7,22.9h4.5v5.8h-4.5v-5.8ZM4.8,34.4h4.5v5.8h-4.5v-5.8ZM54.7,34.4h4.5v5.8h-4.5v-5.8ZM4.8,46h4.5v5.8h-4.5v-5.8ZM54.7,46h4.5v5.8h-4.5v-5.8Z"
       id="path8" /><path
       class="st11"
       d="M4.6,9.7v2.2h4.6v-2.2h-4.6ZM54.9,9.7v2.2h4.6v-2.2h-4.6ZM4.6,21.3v2.2h4.6v-2.2h-4.6ZM54.9,21.3v2.2h4.6v-2.2h-4.6ZM4.6,32.9v2.2h4.6v-2.2h-4.6ZM54.9,32.9v2.2h4.6v-2.2h-4.6ZM4.6,44.4v2.2h4.6v-2.2h-4.6ZM54.9,44.4v2.2h4.6v-2.2h-4.6ZM4.6,56v2.2h4.6v-2.2h-4.6ZM54.9,56v2.2h4.6v-2.2h-4.6Z"
       id="path9" /><g
       id="g20"><path
         class="st1"
         d="M25.1,29.3h13.7v11.6h-13.7s0-11.6,0-11.6Z"
         id="path10" /><path
         class="st1"
         d="M32,53.9l-12.6-15.9h25.1l-12.6,15.9h.1Z"
         id="path11" /><path
         class="st7"
         d="M25.1,29.3h4.6v-5.8h-4.6v5.8Z"
         id="path12" /><path
         class="st1"
         d="M29.7,29.3h4.6v-5.8h-4.6s0,5.8,0,5.8Z"
         id="path13" /><path
         class="st4"
         d="M34.3,29.3h4.6v-5.8h-4.6v5.8Z"
         id="path14" /><path
         class="st7"
         d="M38.9,23.5h-4.6v-5.8h4.6v5.8Z"
         id="path15" /><path
         class="st0"
         d="M34.3,23.5h-4.6v-5.8h4.6v5.8Z"
         id="path16" /><path
         class="st4"
         d="M29.7,23.5h-4.6v-5.8h4.6v5.8Z"
         id="path17" /><path
         class="st3"
         d="M38.9,17.7h-4.6v-5.8h4.6v5.8Z"
         id="path18" /><path
         class="st5"
         d="M34.3,17.7h-4.6v-5.8h4.6v5.8Z"
         id="path19" /><path
         class="st6"
         d="M29.7,17.7h-4.6v-5.8h4.6v5.8Z"
         id="path20" /></g></g><g
     class="st9"
     id="g23"><path
       class="st8"
       d="M50.3,23.1c.2,0,.5,0,.7,0,1.8.2,3.5.7,5.1,1.4.5.2.6.4.2.8-1.2,1.2-2.1,2.7-2.9,4.2-.8,1.7-1.6,3.3-2.5,4.9-.6,1.2-1.4,2.3-2.4,3.3-2.5,2.3-5.4,3.2-8.8,2.8-3.8-.5-7.5-1.8-10.9-3.5-.2,0-.3-.2-.5-.3-.1,0-.2-.2,0-.3,0,0,0,0,0,0h.2c2.8-1.6,5.1-3.7,7.3-5.9.9-.9,1.9-1.9,2.8-2.8,2.1-2,4.7-3.4,7.5-4,.6-.2,1.2-.3,1.9-.4h1.4"
       id="path21" /><path
       class="st10"
       d="M23.4,49.9c-.4,0-1.5-.2-1.6-.2-2.7-.3-5.3-1.1-7.7-2.3-1.4-.7-2.8-1.4-4.1-2.2-.9-.5-1.3-1.3-1.3-2.3,0-3.9,0-7.8,0-11.7,0-2.5,0-5-.1-7.5,0-.2,0-.4.1-.7.2-.5.5-.5.8-.2.4.3.6.8,1,1.1,3.2,3.1,6.5,6,10.3,8.3,2.1,1.4,4.3,2.6,6.6,3.6,3.6,1.7,7.4,3.1,11.3,4,3.5.8,6.8.3,9.6-1.9.9-.7,1.3-1.3,2.3-2.6-.5,1.2-1,2.3-1.8,3.4-.7,1-2.1,2.4-3.2,3.5-1.7,1.6-3.9,3-6,4.1-2.3,1.2-4.6,2.2-7.2,2.7-1.3.3-3.2.7-3.8.7-.1,0-.5,0-.7,0-1.7.1-2.7.2-4.4,0h0Z"
       id="path22" /><path
       class="st13"
       d="M16.2,12.3c.1,0,.2,0,.3,0,7.2,0,14.3.1,21.4.1s0,0,0,0c.7.6,1.3,1.2,1.8,1.9,1.6,1.6,2.8,4.4,3.6,6.1.4,1.2,1,2.3,1.3,3.6h0c-.7.3-1.4.5-2.1.9-2.1,1-3,1.8-4.7,3.5-.9.9-1.7,1.7-3,2.9-.5.4-.9.9-1.4,1.3-.3-.6-5.9-11.5-17.1-20"
       id="path23" /></g><g
     id="g26"
     transform="matrix(1.1453634,0,0,1.1395301,-4.5112779,-4.4265415)"><path
       d="M 45,7.2226562 V 26 L 42,24 19,39 18.041016,56.244141 A 28,28 0 0 0 32,60 28,28 0 0 0 60,32 28,28 0 0 0 45,7.2226562 Z"
       style="fill:#56aad4"
       id="path1" /><path
       d="M 32,4 A 28,28 0 0 0 4,32 28,28 0 0 0 18.041016,56.244141 L 19,39 42,24 45,26 V 7.2226562 A 28,28 0 0 0 32,4 Z"
       style="fill:#f37b21"
       id="path2" /><path
       d="m 38.927734,5.905969 c 0.658,0.1696 1.309219,0.3479 1.949219,0.5625 -0.642731,-0.2109848 -1.292898,-0.3986079 -1.949219,-0.5625 z m 2.806641,0.8789062 c 0.65,0.242 1.291969,0.4985563 1.917969,0.7851563 C 43.022929,7.2847341 42.383168,7.022836 41.734375,6.7848752 Z m 2.267578,0.953125 V 25.820031 c -7.41e-4,-0.0012 -0.0012,-0.0027 -0.002,-0.0039 v 0.0039 A 14,14 0 0 0 42.683594,23.999719 H 44 v -2 h -3.382812 a 14,14 0 0 0 -8.617188,-3 14,14 0 0 0 -8.634766,3 H 6.257812 a 28,28 0 0 0 -0.7421875,2 H 21.294921 a 14,14 0 0 0 -3.294921,9 H 3.9999995 a 28,28 0 0 0 0.1933594,3 H 18 c 3.8e-5,1.79694 -1.25e-4,4.633999 0,7 2.53e-4,4.807261 0.001,8.90524 0.002,14.222656 0.652451,0.373056 1.319658,0.719691 2,1.039063 V 40.179407 c 0.587703,0.987954 1.294849,1.899768 2.105469,2.714843 l -0.0039,0.0039 17.099556,17.101569 c 0.735044,-0.18654 1.462207,-0.402862 2.179687,-0.648438 L 28.595703,46.562219 c 1.11316,0.285069 2.257181,0.432007 3.40625,0.4375 h 24.220703 c 0.373717,-0.652419 0.721004,-1.319627 1.041016,-2 H 39.181641 c 0.987272,-0.587836 1.898421,-1.294977 2.71289,-2.105469 l 0.0039,0.0039 L 59,25.798547 C 58.814155,25.062874 58.598482,24.33506 58.353516,23.616907 L 45.5625,36.405969 c 0.285727,-1.113078 0.433322,-2.257101 0.439453,-3.40625 V 8.7770632 c -0.652451,-0.3730559 -1.319658,-0.7196905 -2,-1.039063 z M 59,25.798547 c 0.06571,0.21343 0.128867,0.427637 0.189453,0.642578 -0.054,-0.224 -0.09825,-0.453781 -0.15625,-0.675781 z M 39.203125,59.999719 c -0.20179,0.06218 -0.404277,0.122084 -0.607422,0.179688 0.212,-0.052 0.428672,-0.09244 0.638672,-0.148438 z M 18,42.999719 H 5.853516 a 28,28 0 0 0 3.2089844,6 H 18 Z M 47.169922,9.4958132 c 0.248,0.1605998 0.506,0.3085625 0.75,0.4765624 -0.247463,-0.1628112 -0.497495,-0.3216856 -0.75,-0.4765624 z M 12.412109,12.999719 a 28,28 0 0 0 -1.857421,2 H 44 v -2 z m 39.527344,0.355469 c 0.262,0.2666 0.505813,0.551125 0.757813,0.828125 -0.247045,-0.281078 -0.4997,-0.557175 -0.757813,-0.828125 z m 1.732422,1.941406 c 0.266,0.3258 0.515578,0.666106 0.767578,1.003906 -0.248274,-0.340367 -0.504199,-0.675088 -0.767578,-1.003906 z m 1.566406,2.121094 c 0.238,0.3544 0.461594,0.716231 0.683594,1.082031 -0.219591,-0.365838 -0.447515,-0.72661 -0.683594,-1.082031 z m 1.369141,2.273437 c 0.204,0.3774 0.401844,0.756731 0.589844,1.144532 -0.187816,-0.385982 -0.384482,-0.767593 -0.589844,-1.144532 z m 1.101562,2.289063 c 0.196,0.462 0.392407,0.924437 0.566407,1.398437 -0.176207,-0.471149 -0.365077,-0.937464 -0.566407,-1.398437 z m 1.763672,5.714843 c 0.078,0.396001 0.137219,0.797219 0.199219,1.199219 -0.05772,-0.401134 -0.124142,-0.800968 -0.199219,-1.199219 z m 0.394532,2.808594 c 0.018,0.212 0.05041,0.420813 0.06641,0.632813 -0.01974,-0.211182 -0.04187,-0.422134 -0.06641,-0.632813 z m 0.121093,2.882813 c -0.01469,0.888598 -0.06978,1.76688 -0.164062,2.632812 0.09602,-0.874539 0.150772,-1.753118 0.164062,-2.632812 z m -0.296875,3.515625 c -0.1,0.698 -0.205472,1.392312 -0.355468,2.070312 0.144342,-0.685415 0.262916,-1.376005 0.355468,-2.070312 z m -0.589844,2.996094 c -0.176,0.683999 -0.365843,1.361437 -0.589843,2.023437 0.221939,-0.666837 0.418693,-1.341794 0.589843,-2.023437 z m -0.859374,2.765624 c -0.25,0.676001 -0.518407,1.344094 -0.816407,1.996094 0.297668,-0.654634 0.570005,-1.320492 0.816407,-1.996094 z m -2.738282,5.503907 c -0.16,0.248 -0.308562,0.506 -0.476562,0.75 0.162811,-0.247463 0.321685,-0.497495 0.476562,-0.75 z m -3.859375,4.769531 c -0.248,0.244 -0.513484,0.471031 -0.771484,0.707031 0.261543,-0.23085 0.51875,-0.466569 0.771484,-0.707031 z m -1.964843,1.757812 c -0.298001,0.242 -0.609969,0.469219 -0.917969,0.699219 0.31076,-0.226742 0.616815,-0.459865 0.917969,-0.699219 z M 16.0625,56.011438 c 0.272938,0.180607 0.549023,0.356415 0.828125,0.527343 -0.2756,-0.177998 -0.559125,-0.341343 -0.828125,-0.527343 z m 31.496094,0.242187 c -0.342,0.228 -0.694875,0.446157 -1.046875,0.660156 0.35378,-0.21231 0.702823,-0.432418 1.046875,-0.660156 z m -2.25,1.351563 c -0.376,0.204 -0.75653,0.401843 -1.144532,0.589843 0.385982,-0.187815 0.767593,-0.384482 1.144532,-0.589843 z m -24.960938,0.824219 c 0.629415,0.285296 1.269176,0.547195 1.917969,0.785156 -0.65,-0.242 -1.291969,-0.499158 -1.917969,-0.785156 z m 22.673828,0.277343 c -0.462,0.196 -0.924437,0.392406 -1.398437,0.566407 0.471149,-0.176207 0.937464,-0.365077 1.398437,-0.566407 z M 23.125,59.530969 c 0.642731,0.210985 1.292898,0.398608 1.949219,0.5625 -0.658,-0.17 -1.309219,-0.3485 -1.949219,-0.5625 z m 2.904297,0.804688 c 0.684769,0.144294 1.374706,0.262868 2.068359,0.355468 -0.698,-0.1 -1.390359,-0.205472 -2.068359,-0.355468 z m 2.951172,0.488281 c 0.874539,0.09602 1.753118,0.150772 2.632812,0.164062 -0.888598,-0.01469 -1.76688,-0.06978 -2.632812,-0.164062 z m 5.441406,0.05273 c -0.188,0.016 -0.368641,0.04264 -0.556641,0.05664 0.185731,-0.01703 0.371287,-0.03591 0.556641,-0.05664 z"
       style="opacity:0.2"
       id="path3" /><path
       d="m 38.927734,4.90625 c 0.658,0.1696 1.309219,0.3479 1.949219,0.5625 -0.642731,-0.2109848 -1.292898,-0.3986079 -1.949219,-0.5625 z m 2.806641,0.8789062 c 0.65,0.242 1.291969,0.4985563 1.917969,0.7851563 C 43.022929,6.2850151 42.383168,6.023117 41.734375,5.7851562 Z m 2.267578,0.953125 V 24.820312 c -7.41e-4,-0.0012 -0.0012,-0.0027 -0.002,-0.0039 v 0.0039 A 14,14 0 0 0 42.683594,23 H 44 V 21 H 40.617188 A 14,14 0 0 0 32,18 14,14 0 0 0 23.365234,21 H 6.257812 A 28,28 0 0 0 5.5156245,23 H 21.294921 A 14,14 0 0 0 18,32 H 3.9999995 a 28,28 0 0 0 0.1933594,3 H 18 c 3.8e-5,1.79694 -1.25e-4,4.633999 0,7 2.53e-4,4.807261 0.001,8.90524 0.002,14.222656 0.652451,0.373056 1.319658,0.719691 2,1.039063 V 39.179688 c 0.587703,0.987954 1.294849,1.899768 2.105469,2.714843 l -0.0039,0.0039 L 39.203125,59 c 0.735044,-0.18654 1.462207,-0.402862 2.179687,-0.648438 L 28.595703,45.5625 c 1.11316,0.285069 2.257181,0.432007 3.40625,0.4375 h 24.220703 c 0.373717,-0.652419 0.721004,-1.319627 1.041016,-2 H 39.181641 c 0.987272,-0.587836 1.898421,-1.294977 2.71289,-2.105469 l 0.0039,0.0039 L 59,24.798828 c -0.185845,-0.735673 -0.401518,-1.463487 -0.646484,-2.18164 L 45.5625,35.40625 C 45.848227,34.293172 45.995822,33.149149 46.001953,32 V 7.7773442 c -0.652451,-0.3730559 -1.319658,-0.7196905 -2,-1.039063 z M 59,24.798828 c 0.06571,0.21343 0.128867,0.427637 0.189453,0.642578 -0.054,-0.224 -0.09825,-0.453781 -0.15625,-0.675781 z M 39.203125,59 c -0.20179,0.06218 -0.404277,0.122084 -0.607422,0.179688 0.212,-0.052 0.428672,-0.09244 0.638672,-0.148438 z M 18,42 H 5.853516 a 28,28 0 0 0 3.2089844,6 H 18 Z M 47.169922,8.4960942 c 0.248,0.1605998 0.506,0.3085625 0.75,0.4765624 -0.247463,-0.1628112 -0.497495,-0.3216856 -0.75,-0.4765624 z M 12.412109,12 a 28,28 0 0 0 -1.857421,2 H 44 v -2 z m 39.527344,0.355469 c 0.262,0.2666 0.505813,0.551125 0.757813,0.828125 -0.247045,-0.281078 -0.4997,-0.557175 -0.757813,-0.828125 z m 1.732422,1.941406 c 0.266,0.3258 0.515578,0.666106 0.767578,1.003906 -0.248274,-0.340367 -0.504199,-0.675088 -0.767578,-1.003906 z m 1.566406,2.121094 c 0.238,0.3544 0.461594,0.716231 0.683594,1.082031 -0.219591,-0.365838 -0.447515,-0.72661 -0.683594,-1.082031 z m 1.369141,2.273437 c 0.204,0.3774 0.401844,0.756731 0.589844,1.144532 -0.187816,-0.385982 -0.384482,-0.767593 -0.589844,-1.144532 z m 1.101562,2.289063 c 0.196,0.462 0.392407,0.924437 0.566407,1.398437 -0.176207,-0.471149 -0.365077,-0.937464 -0.566407,-1.398437 z m 1.763672,5.714843 c 0.078,0.396001 0.137219,0.797219 0.199219,1.199219 -0.05772,-0.401134 -0.124142,-0.800968 -0.199219,-1.199219 z m 0.394532,2.808594 c 0.018,0.212 0.05041,0.420813 0.06641,0.632813 -0.01974,-0.211182 -0.04187,-0.422134 -0.06641,-0.632813 z m 0.121093,2.882813 c -0.01469,0.888598 -0.06978,1.76688 -0.164062,2.632812 0.09602,-0.874539 0.150772,-1.753118 0.164062,-2.632812 z m -0.296875,3.515625 c -0.1,0.698 -0.205472,1.392312 -0.355468,2.070312 0.144342,-0.685415 0.262916,-1.376005 0.355468,-2.070312 z m -0.589844,2.996094 c -0.176,0.683999 -0.365843,1.361437 -0.589843,2.023437 0.221939,-0.666837 0.418693,-1.341794 0.589843,-2.023437 z m -0.859374,2.765624 c -0.25,0.676001 -0.518407,1.344094 -0.816407,1.996094 0.297668,-0.654634 0.570005,-1.320492 0.816407,-1.996094 z m -2.738282,5.503907 c -0.16,0.248 -0.308562,0.506 -0.476562,0.75 0.162811,-0.247463 0.321685,-0.497495 0.476562,-0.75 z M 51.644531,51.9375 c -0.248,0.244 -0.513484,0.471031 -0.771484,0.707031 0.261543,-0.23085 0.51875,-0.466569 0.771484,-0.707031 z m -1.964843,1.757812 c -0.298001,0.242 -0.609969,0.469219 -0.917969,0.699219 0.31076,-0.226742 0.616815,-0.459865 0.917969,-0.699219 z M 16.0625,55.011719 c 0.272938,0.180607 0.549023,0.356415 0.828125,0.527343 -0.2756,-0.177998 -0.559125,-0.341343 -0.828125,-0.527343 z m 31.496094,0.242187 c -0.342,0.228 -0.694875,0.446157 -1.046875,0.660156 0.35378,-0.21231 0.702823,-0.432418 1.046875,-0.660156 z m -2.25,1.351563 c -0.376,0.204 -0.75653,0.401843 -1.144532,0.589843 0.385982,-0.187815 0.767593,-0.384482 1.144532,-0.589843 z m -24.960938,0.824219 c 0.629415,0.285296 1.269176,0.547195 1.917969,0.785156 -0.65,-0.242 -1.291969,-0.499158 -1.917969,-0.785156 z m 22.673828,0.277343 c -0.462,0.196 -0.924437,0.392406 -1.398437,0.566407 0.471149,-0.176207 0.937464,-0.365077 1.398437,-0.566407 z M 23.125,58.53125 c 0.642731,0.210985 1.292898,0.398608 1.949219,0.5625 -0.658,-0.17 -1.309219,-0.3485 -1.949219,-0.5625 z m 2.904297,0.804688 c 0.684769,0.144294 1.374706,0.262868 2.068359,0.355468 -0.698,-0.1 -1.390359,-0.205472 -2.068359,-0.355468 z m 2.951172,0.488281 c 0.874539,0.09602 1.753118,0.150772 2.632812,0.164062 -0.888598,-0.01469 -1.76688,-0.06978 -2.632812,-0.164062 z m 5.441406,0.05273 c -0.188,0.016 -0.368641,0.04264 -0.556641,0.05664 0.185731,-0.01703 0.371287,-0.03591 0.556641,-0.05664 z"
       style="fill:#ffffff"
       id="path4" /></g></svg>
