<?xml version="1.0" encoding="UTF-8"?>
<svg id="_图层_1" data-name="图层_1" xmlns="http://www.w3.org/2000/svg" version="1.1" xmlns:xlink="http://www.w3.org/1999/xlink" viewBox="0 0 200 200" width="64" height="64">
  <!-- Generator: Adobe Illustrator 29.0.1, SVG Export Plug-In . SVG Version: 2.1.0 Build 192)  -->
  <defs>
    <style>
      .st0 {
        fill: #4f4f4f;
      }

      .st1 {
        fill: #34e0c4;
      }

      .st2 {
        fill: #ffc107;
      }

      .st3 {
        fill: #009688;
      }

      .st4 {
        fill: #fb8300;
      }

      .st5 {
        fill: #ff8802;
      }

      .st6, .st7, .st8, .st9, .st10 {
        isolation: isolate;
      }

      .st6, .st11, .st12, .st10 {
        display: none;
      }

      .st6, .st8, .st9, .st10 {
        opacity: .2;
      }

      .st13, .st11 {
        fill: #a7a7a7;
      }

      .st14, .st9, .st10 {
        fill: #fff;
      }

      .st15 {
        fill: #3ddc84;
      }

      .st16 {
        fill: #03a9f4;
      }

      .st17 {
        fill: #fa3e30;
      }

      .st7 {
        opacity: .1;
      }

      .st18 {
        fill: #a544c9;
      }

      .st19 {
        fill: #ffc802;
      }

      .st20 {
        fill: url(#_未命名的渐变_23);
      }

      .st21 {
        fill: #e7521d;
      }

      .st22 {
        fill: url(#_未命名的渐变_231);
      }

      .st23 {
        fill: #278df2;
      }
    </style>
    <linearGradient id="_未命名的渐变_23" data-name="未命名的渐变 23" x1="68.5" y1="106" x2="130.1" y2="106" gradientUnits="userSpaceOnUse">
      <stop offset="0" stop-color="#6aa5ff"/>
      <stop offset="1" stop-color="#3f76ff"/>
    </linearGradient>
    <linearGradient id="_未命名的渐变_231" data-name="未命名的渐变 23" x1="88.2" y1="106" x2="110.4" y2="106" xlink:href="#_未命名的渐变_23"/>
  </defs>
  <path class="st13" d="M157.3,200H43.3c-23.5,0-42.7-19.3-42.7-42.8V43C.6,19.5,19.8.2,43.3.2h114c23.5,0,42.7,19.3,42.7,42.8v114.2c0,23.5-19.2,42.8-42.7,42.8h0Z"/>
  <g class="st12">
    <path class="st14" d="M184.1,110.5c0-12.2-5.3-23.8-14.6-31.9-9.1-7.9-21.3-11.4-33.4-9.5-4.4-15.7-17.6-27.6-34.1-30.7-16.3-2.8-32.9,3.9-42.3,17.2-5.6,7.8-8.6,17.1-8.4,26.7-18.3,3.4-30.9,19.7-29.2,37.8,1.1,18,16.3,32.2,34.8,32.5h90.3c.9,0,1.8-.2,2.5-.6,20.1-4,34.5-21.3,34.2-41.3Z"/>
  </g>
  <g class="st12">
    <path class="st20" d="M120.9,79.8h-43.1c-5.1,0-9.3,4.3-9.3,9.5v33.5c0,5.2,4.2,9.5,9.3,9.5h43.1c5.1,0,9.3-4.3,9.3-9.5v-33.5c0-5.2-4.2-9.5-9.3-9.5ZM72.2,107.9h4.5v6.8h-4.5v-6.8ZM76.7,104.1h-4.5v-6.8h4.5v6.8ZM80.4,83.6h37.8v44.9h-37.8s0-44.9,0-44.9ZM126.4,104.1h-4.5v-6.8h4.5v6.8ZM121.9,107.9h4.5v6.8h-4.5v-6.8ZM126.4,89.3v4.3h-4.5v-9.9c2.6.5,4.5,2.8,4.5,5.6ZM76.7,83.7v9.9h-4.5v-4.3c0-2.8,2-5.1,4.5-5.6ZM72.2,122.8v-4.3h4.5v9.9c-2.6-.5-4.5-2.8-4.5-5.6ZM121.9,128.4v-9.9h4.5v4.3c0,2.8-2,5.1-4.5,5.6Z"/>
    <path class="st22" d="M108.2,102.2l-13.5-8c-1.3-.8-3-.8-4.3,0s-2.2,2.2-2.2,3.8v16.1c0,1.6.8,3,2.2,3.8.7.4,1.4.6,2.2.6s1.5-.2,2.2-.6l13.5-8c1.3-.8,2.2-2.2,2.2-3.8s-.8-3-2.2-3.8ZM106.4,106.6l-13.5,8c-.3.2-.5,0-.6,0-.1,0-.3-.2-.3-.5v-16.1c0-.3.2-.5.3-.5,0,0,.2,0,.3,0s.2,0,.3,0l13.5,8c.3.2.3.4.3.5,0,.1,0,.4-.3.5h0Z"/>
  </g>
  <g class="st12">
    <path class="st8" d="M72.5,36.7c-1.2,0-2.1.8-2.2,1.8,0,.4.1.7.3,1l7.2,10.1c-12.6,6.7-20.2,18.7-20.2,31.5,0,20.5,19,37.1,42.4,37.1h0c23.4,0,42.4-16.6,42.4-37.1h0c0-12.9-7.7-24.8-20.2-31.5l7.2-10.1c.6-.9.3-2-.6-2.6-.4-.2-.8-.3-1.2-.3-.7,0-1.4.4-1.8.9l-7.3,10.3c-5.7-2.4-12.1-3.7-18.5-3.7-6.4,0-12.7,1.3-18.5,3.7l-7.3-10.2c-.4-.5-1-.9-1.8-.9Z"/>
    <path class="st8" d="M165,155.3H48c-7.2,0-13-5.1-13.1-11.3v-79.1c0,6.6,6.4,11.8,13.9,11.4h97c7.8,0,19.1-.4,19.1,12.5v66.6Z"/>
    <path class="st5" d="M82.7,54h-34.9c-7.1,0-12.8,4.4-12.8,9.9-.2,5.3,5.2,9.7,12,9.9.1,0,.3,0,.4,0h35.6l-.4-19.8Z"/>
    <path class="st8" d="M47.8,54c-7.1,0-12.8,4.4-12.8,9.9,0,.5,0,.9,0,1.4.7-5,6.2-8.8,12.7-8.8h34.9l.3,17.3h0l-.4-19.8h-34.9Z"/>
    <path class="st15" d="M72.5,31.7c-1.2,0-2.1.8-2.2,1.8,0,.4.1.7.3,1l7.2,10.1c-12.6,6.7-20.2,18.7-20.2,31.5,0,20.5,19,37.1,42.4,37.1s42.4-16.6,42.4-37.1c0-12.9-7.7-24.8-20.2-31.5l7.2-10.1c.6-.9.3-2-.6-2.6-.4-.2-.8-.3-1.2-.3-.7,0-1.4.4-1.8.9l-7.3,10.3c-5.7-2.4-12.1-3.7-18.5-3.7-6.4,0-12.7,1.3-18.5,3.7l-7.3-10.2c-.4-.5-1-.9-1.8-.9Z"/>
    <path class="st9" d="M72.5,31.7c-1.2,0-2.1.8-2.2,1.8,0,.4.1.7.3,1l.2.3c.4-.4,1-.7,1.7-.6.7,0,1.4.4,1.8.9l7.3,10.2c5.8-2.4,12.1-3.7,18.5-3.7,6.4,0,12.7,1.3,18.5,3.7l7.3-10.3c.4-.5,1-.9,1.8-.9.6,0,1.2.2,1.7.6l.2-.3c.6-.9.3-2-.6-2.6-.4-.2-.8-.3-1.2-.3-.7,0-1.4.4-1.8.9l-7.3,10.3c-5.7-2.4-12.1-3.7-18.5-3.7-6.4,0-12.7,1.3-18.5,3.7l-7.3-10.2c-.4-.5-1-.9-1.8-.9ZM123.4,45.4l-1.2,1.7c12.2,6.6,19.8,18,20.2,30.5,0-.5,0-1,0-1.5,0-12.4-7.2-24-19-30.8ZM76.6,45.4c-11.8,6.8-19,18.4-19,30.8,0,.4,0,.7,0,1.1.5-12.4,8.1-23.7,20.2-30.2l-1.2-1.7Z"/>
    <path class="st19" d="M165,152.8H48c-7.2,0-13-5.1-13.1-11.3V62.4c0,6.6,6.4,11.8,13.9,11.4h97c7.8,0,19.1-.4,19.1,12.5v66.6Z"/>
    <path class="st8" d="M84.7,56.4c-1.3,0-2.5.5-3.2,1.3-1.6,1.4-1.6,3.6,0,5,.8.7,1.8,1.1,2.9,1.1,1.1,0,2.1-.4,2.9-1,1.8-1.3,2-3.5.6-5.1-.8-.8-1.9-1.3-3.1-1.3ZM115.6,56.4c-1.1,0-2.3.4-3.1,1.1-1.7,1.4-1.7,3.8,0,5.2.8.7,1.9,1.1,3.1,1.1,2.3,0,4.2-1.6,4.2-3.7h0c0-2-1.9-3.7-4.2-3.7Z"/>
    <path class="st14" d="M115.6,61.4c-2.3,0-4.2-1.6-4.3-3.6,0-1,.4-2,1.3-2.7,1.7-1.5,4.4-1.4,6,0,.8.7,1.2,1.6,1.2,2.6,0,2-1.9,3.7-4.2,3.7"/>
    <path class="st21" d="M104.3,99.8c-3.9,0-7.1,2.7-7.1,6.1,0,3.4,3.1,6.2,6.9,6.3,1,0,2-.2,2.9-.5,3.6-1.3,5.3-4.8,3.9-8-1.1-2.4-3.7-4-6.6-3.9Z"/>
    <path class="st14" d="M84.3,61.4c-2.2,0-4.1-1.6-4.1-3.5,0-1,.4-1.9,1.2-2.6,1.4-1.5,4-1.8,5.8-.5,1.8,1.3,2,3.5.6,5.1-.2.2-.4.3-.6.5-.8.7-1.8,1-2.9,1"/>
    <path class="st7" d="M100,91c-1.6,0-2.8,1.1-2.8,2.5h0v2.7c-6.6,1.2-11.3,6.2-11.3,12.1,0,3.6,1.8,7.1,5,9.4l-26.9,49.2c-1.1,1.8-.9,4,.5,5.6,1.4,1.7,3.7,2.6,6.2,2.4,2.4-.2,4.5-1.5,5.5-3.3l18.9-33.3c.9-1.5,2.8-2.6,4.9-2.6,0,0,.1,0,.2,0,0,0,.1,0,.2,0,2.1,0,4,1,4.9,2.6l18.9,33.3c1,1.9,3.1,3.1,5.5,3.3,2.4.2,4.8-.7,6.2-2.4,1.4-1.7,1.6-3.8.5-5.6l-26.9-49.2c3.2-2.3,5-5.8,5-9.4,0-5.9-4.7-10.9-11.3-12.1v-2.7c0-1.4-1.2-2.5-2.8-2.5,0,0,0,0,0,0ZM100,100.9c4.7,0,8.5,3.3,8.5,7.4h0c0,4.1-3.8,7.4-8.5,7.4s-8.5-3.3-8.5-7.4c0-4.1,3.8-7.4,8.5-7.4Z"/>
    <path class="st5" d="M100,88.5c-1.6,0-2.8,1.1-2.8,2.5h0v2.7c-6.6,1.2-11.3,6.2-11.3,12.1,0,3.6,1.8,7.1,5,9.4l-26.9,49.2c-1.1,1.8-.9,4,.5,5.6,1.4,1.7,3.7,2.6,6.2,2.4,2.4-.2,4.5-1.5,5.5-3.3l18.9-33.3c.9-1.5,2.8-2.6,4.9-2.6,0,0,.1,0,.2,0,0,0,.1,0,.2,0,2.1,0,4,1,4.9,2.6l18.9,33.3c1,1.9,3.1,3.1,5.5,3.3,2.4.2,4.8-.7,6.2-2.4,1.4-1.7,1.6-3.8.5-5.6l-26.9-49.2c3.2-2.3,5-5.8,5-9.4,0-5.9-4.7-10.9-11.3-12.1v-2.7c0-1.4-1.2-2.5-2.8-2.5,0,0,0,0,0,0ZM100,98.4c4.7,0,8.5,3.3,8.5,7.4h0c0,4.1-3.8,7.4-8.5,7.4h0c-4.7,0-8.5-3.3-8.5-7.4h0c0-4.1,3.8-7.4,8.5-7.4Z"/>
    <path class="st8" d="M153.8,96h-5.1c-.4,0-.6.2-.6.6v73c0,.3.3.6.6.6h5.3c6.1,0,11.1-4.6,11.1-10.2v-74.5c0,5.7-5,10.7-11.2,10.6Z"/>
    <path class="st5" d="M153.8,93.5h-5.1c-.4,0-.6.2-.6.6v73c0,.3.3.6.6.6h5.3c6.1,0,11.1-4.6,11.1-10.2v-74.5c0,5.7-5,10.7-11.2,10.6Z"/>
  </g>
  <g class="st12">
    <path id="ellipse845" class="st8" d="M99.8,32.9c-13.3,0-25.4,8.1-31,20.8-14.4-1.8-28,4-34.7,14.8-6.6,10.9-5.2,24.8,3.7,35.6-8.9,10.8-10.3,24.8-3.7,35.6,6.7,10.8,20.2,16.6,34.7,14.8,5.5,12.7,17.6,20.8,31,20.8,13.3,0,25.4-8.1,31-20.8,14.4,1.8,28-4,34.7-14.8,6.9-11.2,4.9-25.1-3.7-35.6.8-.9,1.5-1.9,2.1-2.9,0,0,0,0,0,0,.7-1,1.3-2,1.8-3,0,0,0,0,0,0,.5-1,1-1.9,1.4-2.9,0,0,0-.2,0-.2.4-.9.7-1.9,1-2.8,0-.2.1-.3.2-.5.2-.9.5-1.8.6-2.6,0-.2,0-.5.1-.7.1-.8.2-1.7.3-2.5,0-.3,0-.5,0-.8,0-.8,0-1.6,0-2.4,0-.3,0-.6,0-.9,0-.8-.1-1.5-.2-2.3,0-.3,0-.7-.1-1-.1-.7-.3-1.4-.5-2.1,0-.4-.2-.7-.3-1.1-.2-.6-.4-1.2-.6-1.8-.2-.4-.3-.9-.5-1.3-.2-.5-.5-1.1-.8-1.6-.3-.7-.7-1.3-1-2-.5-.8-1-1.6-1.6-2.3-.3-.4-.7-.8-1-1.2-.4-.4-.7-.9-1.1-1.3-.4-.4-.7-.7-1.1-1.1-.4-.4-.9-.8-1.3-1.2-.4-.3-.8-.7-1.2-1-.5-.4-.9-.7-1.4-1-.5-.3-1-.6-1.5-.9-.5-.3-.9-.6-1.4-.8-.5-.3-1.1-.6-1.6-.8-.5-.2-1-.5-1.5-.7-.6-.2-1.1-.4-1.7-.6-.5-.2-1.1-.4-1.6-.5-.6-.2-1.2-.3-1.7-.5-.6-.1-1.1-.3-1.7-.4-.6-.1-1.2-.2-1.8-.3-.6,0-1.2-.2-1.8-.2-1-.1-2.1-.2-3.1-.2-2.1,0-4.2,0-6.3.3-5.5-12.7-17.6-20.8-31-20.8Z"/>
    <ellipse class="st23" cx="99.8" cy="101.6" rx="60.6" ry="57"/>
    <path id="ellipse8" class="st1" d="M165.4,66c9.4,15.3,2.4,35.7-15.8,45.6-18.1,9.8-40.4,5.4-49.9-10-9.4-15.3-2.4-35.7,15.8-45.6,18.1-9.8,40.4-5.4,49.9,10Z"/>
    <ellipse id="ellipse10" class="st2" cx="99.8" cy="137.2" rx="34.1" ry="35.6"/>
    <path id="ellipse14" class="st4" d="M99.8,101.6c9.4,15.3,2.4,35.7-15.8,45.6-18.1,9.8-40.4,5.4-49.9-10-9.4-15.3-2.4-35.7,15.8-45.6,18.1-9.8,40.4-5.4,49.9,10Z"/>
    <path id="ellipse18" class="st17" d="M34.2,66c-9.4,15.3-2.4,35.7,15.8,45.6,18.1,9.8,40.4,5.4,49.9-10s2.4-35.7-15.8-45.6c-18.1-9.8-40.4-5.4-49.9,10Z"/>
    <path class="st18" d="M99.8,30.4c-18.8,0-34.1,15.9-34.1,35.6h0c0,19.7,15.3,35.6,34.1,35.6h0c-9.4-15.3-2.4-35.7,15.8-45.6,0,0,0,0,0,0,4.7-2.5,9.9-4.2,15.2-4.9-5.5-12.7-17.6-20.8-31-20.8ZM99.8,101.6c14.8,0,27.9-10,32.4-24.6-1.1,3.4-2.6,6.6-4.6,9.5-11.9.5-22.3,6.1-27.8,15.1ZM132.2,77c.3-1,.6-2.1.8-3.1-.2,1.1-.5,2.1-.8,3.1ZM131.1,52.1c.4,1.1.8,2.1,1.1,3.2-.3-1.1-.7-2.2-1.1-3.2ZM132.3,55.5c.3.9.5,1.9.7,2.8-.2-.9-.4-1.9-.7-2.8ZM133.2,59.2c.1.8.2,1.5.3,2.3,0-.8-.2-1.5-.3-2.3ZM133.7,62.9c0,1,.1,2.1.2,3.1,0-1,0-2.1-.2-3.1ZM133.8,67.6c0,.8,0,1.6-.1,2.3,0-.8.1-1.6.1-2.3ZM133.5,70.7c-.1.9-.3,1.8-.4,2.8.2-.9.3-1.8.4-2.8Z"/>
    <path class="st3" d="M128.1,86.5c-12.1.3-22.7,6-28.4,15.2,18.8,0,34.1,15.9,34.1,35.6,0,5.1-1.1,10.2-3.1,14.8,14.4,1.8,28-4,34.6-14.8,9.4-15.3,2.4-35.7-15.8-45.6-6.6-3.6-14.1-5.4-21.5-5.2Z"/>
    <path id="ellipse980" class="st16" d="M137,50.8c-7.4-.2-14.9,1.6-21.5,5.2-18.1,9.8-25.2,30.2-15.8,45.6,5.6-9.2,16.2-14.8,28.4-15.2,7.4-.2,14.9,1.6,21.5,5.2,4.9,2.6,8.9,6.1,12.1,9.9,8.9-10.8,10.3-24.7,3.7-35.6-5.6-9.2-16.2-14.8-28.4-15.2ZM99.8,101.6c5.6,9,16,14.7,27.9,15.1-6.2-9.1-16.4-15.1-27.9-15.1Z"/>
    <path class="st2" d="M99.8,101.6c-58.8,57-29.4,28.5,0,0ZM99.8,101.6c6,11.5,16.3,16.5,27.9,15.1-6.2-9.1-16.4-15.1-27.9-15.1Z"/>
    <path class="st9" d="M99.8,30.4c-13.3,0-25.4,8.1-31,20.8-14.4-1.8-28,4-34.7,14.8-3,4.9-4.4,10.5-4.1,16.2.2-4.9,1.6-9.5,4.1-13.7,6.7-10.8,20.2-16.6,34.7-14.8,5.5-12.7,17.6-20.8,31-20.8,13.3,0,25.4,8.1,31,20.8,2.1-.3,4.2-.4,6.3-.3,1,0,2.1.1,3.1.2.6,0,1.2.2,1.8.2.6,0,1.2.2,1.8.3.6.1,1.1.3,1.7.4.6.1,1.2.3,1.7.5.5.2,1.1.4,1.6.5.6.2,1.2.4,1.7.6.5.2,1,.4,1.5.7.6.3,1.1.5,1.6.8.5.3,1,.5,1.4.8.5.3,1,.6,1.5.9.5.3,1,.7,1.4,1,.4.3.8.6,1.2,1,.5.4.9.8,1.3,1.2.4.4.8.7,1.1,1.1.4.4.8.8,1.1,1.3.3.4.7.8,1,1.2.6.7,1.1,1.5,1.6,2.3.4.6.7,1.3,1,2,.3.5.5,1,.8,1.6.2.4.4.9.5,1.3.2.6.4,1.2.6,1.8.1.4.2.7.3,1.1.2.7.3,1.4.5,2.1,0,.3.1.7.1,1,.1.8.2,1.5.2,2.3,0,0,0,.1,0,.2,0-.6,0-1.2,0-1.9,0-.3,0-.6,0-.9,0-.8-.1-1.5-.2-2.3,0-.3,0-.7-.1-1-.1-.7-.3-1.4-.5-2.1,0-.4-.2-.7-.3-1.1-.2-.6-.4-1.2-.6-1.8-.2-.4-.3-.9-.5-1.3-.2-.5-.5-1.1-.8-1.6-.3-.7-.7-1.3-1-2-.5-.8-1-1.6-1.6-2.3-.3-.4-.7-.8-1-1.2-.4-.4-.7-.9-1.1-1.3-.4-.4-.7-.7-1.1-1.1-.4-.4-.9-.8-1.3-1.2-.4-.3-.8-.7-1.2-1-.5-.4-.9-.7-1.4-1-.5-.3-1-.6-1.5-.9-.5-.3-.9-.6-1.4-.8-.5-.3-1.1-.6-1.6-.8-.5-.2-1-.5-1.5-.7-.6-.2-1.1-.4-1.7-.6-.5-.2-1.1-.4-1.6-.5-.6-.2-1.2-.3-1.7-.5-.6-.1-1.1-.3-1.7-.4-.6-.1-1.2-.2-1.8-.3-.6,0-1.2-.2-1.8-.2-1-.1-2.1-.2-3.1-.2-2.1,0-4.2,0-6.3.3-5.5-12.7-17.6-20.8-31-20.8ZM162.7,102.9c-.3.4-.6.9-1,1.3,4.8,5.9,7.5,12.8,7.8,19.7.3-7.3-2.1-14.6-6.9-20.9ZM36.9,102.9c-4.8,6.4-7.2,13.8-6.8,21.1.2-7,3-13.9,7.8-19.8-.3-.4-.7-.8-1-1.2Z"/>
  </g>
  <g>
    <path class="st6" d="M10.5,3.7h179.5c5.5,0,10,4.4,10,9.8v176.6c0,5.4-4.5,9.8-10,9.8H10.5c-5.5,0-10-4.4-10-9.8V13.6C.6,8.1,5,3.7,10.5,3.7Z"/>
    <path class="st11" d="M10.5.2h179.5c5.5,0,10,4.4,10,9.8v176.6c0,5.4-4.5,9.8-10,9.8H10.5c-5.5,0-10-4.4-10-9.8V10C.6,4.6,5,.2,10.5.2Z"/>
    <path class="st10" d="M10.5.2C5,.2.6,4.6.6,10v3.5C.6,8.1,5,3.7,10.5,3.7h179.5c5.5,0,10,4.4,10,9.8v-3.5c0-5.4-4.4-9.8-10-9.8H10.5Z"/>
    <path class="st7" d="M157.3,47.9c-10.4,5.6-31.9,4.9-52.1,4.7-15.9,0-47-1.3-52.3,14,2-2.7,39-15.2,35.3.3-4.4,12.6-12.2,23.3-18.9,34.7-6.5.5-15.5.8-21.1,4.6,1.5-.9,13.9-3.3,18.8-.6-7.6,12.4-15.5,22.8-21.1,36.3-1.5,4.6-5,12.1.3,15.4,4.5,2.1,1.4-.9,3.2-3.8,7.7-16.2,18.2-30.3,27.8-45.3,5.6,2.3,11.1,6.6,17.2,7.2,8.3,1,22.7-10.6,24.9-18.6-9.5,7-25.9,4.8-36.7,4.6l23.4-35.7c2.3.7,6.4.9,13.1,1,15.7.4,35.7-2.4,38.2-18.7Z"/>
    <path class="st0" d="M157.3,44.4c-10.4,5.6-31.9,4.9-52.1,4.7-15.9,0-47-1.3-52.3,14,2-2.7,39-15.2,35.3.3-4.4,12.6-12.2,23.3-18.9,34.7-6.5.5-15.5.8-21.1,4.6,1.5-.9,13.9-3.3,18.8-.6-7.6,12.4-15.5,22.8-21.1,36.3-1.5,4.6-5,12.1.3,15.4,4.5,2.1,1.4-.9,3.2-3.8,7.7-16.2,18.2-30.3,27.8-45.3,5.6,2.3,11.1,6.6,17.2,7.2,8.3,1,22.7-10.6,24.9-18.6-9.5,7-25.9,4.8-36.7,4.6l23.4-35.7c2.3.7,6.4.9,13.1,1,15.7.4,35.7-2.4,38.2-18.7Z"/>
  </g>
</svg>