<?xml version="1.0" encoding="UTF-8"?>
<svg id="_图层_1" xmlns="http://www.w3.org/2000/svg" version="1.1" viewBox="0 0 64 64" width="64" height="64">
  <!-- Generator: Adobe Illustrator 29.0.1, SVG Export Plug-In . SVG Version: 2.1.0 Build 192)  -->
  <defs>
    <style>
      .st0, .st1, .st2 {
        display: none;
      }

      .st0, .st3, .st2 {
        isolation: isolate;
        opacity: .2;
      }

      .st4, .st2 {
        fill: #fff;
      }

      .st1, .st5 {
        fill: #950000;
      }
    </style>
  </defs>
  <path class="st5" d="M50.4,64H13.8c-7.6,0-13.8-6.2-13.8-13.7V13.7C0,6.2,6.2,0,13.7,0h36.6c7.5,0,13.7,6.2,13.7,13.7v36.6c0,7.5-6.2,13.7-13.7,13.7h.1Z"/>
  <g>
    <path class="st0" d="M3.2,1.1h57.6c1.8,0,3.2,1.4,3.2,3.2v57.6c0,1.8-1.4,3.2-3.2,3.2H3.2c-1.8,0-3.2-1.4-3.2-3.2V4.3C0,2.6,1.4,1.1,3.2,1.1Z"/>
    <path class="st1" d="M3.2,0h57.6c1.8,0,3.2,1.4,3.2,3.2v57.6c0,1.8-1.4,3.2-3.2,3.2H3.2c-1.8,0-3.2-1.4-3.2-3.2V3.2C0,1.4,1.4,0,3.2,0Z"/>
    <path class="st3" d="M25.8,10.3l-20.4.6,20.4.6v-1.1ZM28,10.3v1.1c1.4,0,2.4.3,3.1,1,.7.7,1.5,1.9,2.3,3.8l7.7,17.6-8.7,17.2c-.7,1.5-1.4,2.4-2.1,3-.7.6-1.5.9-2.4.9v1.1h9.4v-1.1c-2,0-3-.7-3-2.1s.3-1.7,1-2.8l7-13.6,6.1,13.6c.6,1.5.9,2.5.9,3.1s-.2,1.1-.7,1.4c-.5.3-1.3.4-2.4.4v1.1h12.4v-1.1c-.9,0-1.7-.4-2.4-1-.7-.7-1.5-2-2.3-3.8l-8.7-19.5,6.9-13.4c1.4-2.6,2.3-4.3,3-4.9.7-.6,1.7-.9,3.1-.9v-1.1h-10.4v1.1c1.1,0,2,.2,2.4.5.4.3.7.8.7,1.6s-.2,1.3-.6,2.5l-6.3,12.1-5.3-12.1c-.4-.9-.6-1.7-.6-2.4,0-1.4,1-2.1,3.1-2.1v-1.1h-13.3ZM25.8,13.1l-20.4.5,24.2.7h0s0,0,0,0h0s0,0,0,0h0s0,0,0,0h0s-.1,0-.1,0h-.1s0,0,0,0h-.1s-.1,0-.1,0h-.1s-.1,0-.1,0h-2.6s0-.8,0-.8ZM30.6,15.7l-25.2.7,25.9.7h0c0-.1-.1-.4-.1-.4v-.3c-.1,0-.3-.3-.3-.3v-.3c-.1,0-.2-.2-.2-.2ZM31.8,18.5l-26.5.7,27.1.7-.7-1.5ZM33,21.3l-27.7.7,28.3.8-.7-1.5ZM34.3,24l-28.9.8,29.6.8-.7-1.6ZM35.5,26.8l-30.1.8,30.8.8-.7-1.7ZM36.7,29.5l-31.3.8,32.1.9-.8-1.7ZM37.9,32.3l-32.5.9,33.1.9v-.2c.1,0-.6-1.5-.6-1.5ZM38,35l-32.6.9,31.7.9.9-1.8ZM36.5,37.9l-31.2.8,30.3.8.8-1.7ZM35.1,40.7l-29.7.8,28.9.8.8-1.6ZM33.7,43.5l-28.3.8,27.5.7.8-1.5ZM32.2,46.3l-26.9.7,26.2.7.7-1.4ZM30.8,49.2l-25.5.7,24.8.7v-.2c0,0,.2-.2.2-.2v-.2c.1,0,.5-.7.5-.7ZM29.1,52l-23.8.7,20.4.5v-.7h2.3s0,0,0,0h.1s0,0,0,0h.1s0,0,0,0h0s0,0,0,0h0s0,0,0,0h0s0,0,0,0h0c0,0,0-.1,0-.1h0c0,0,0-.1,0-.1h0ZM25.8,54.9l-20.4.6,20.4.6v-1.1Z"/>
    <path class="st4" d="M25.8,9.1l-20.4.6,20.4.6v-1.1ZM28,9.1v1.1c1.4,0,2.4.3,3.1,1,.7.7,1.5,1.9,2.3,3.8l7.7,17.6-8.7,17.2c-.7,1.5-1.4,2.4-2.1,3-.7.6-1.5.9-2.4.9v1.1h9.4v-1.1c-2,0-3-.7-3-2.1s.3-1.7,1-2.8l7-13.6,6.1,13.6c.6,1.5.9,2.5.9,3.1s-.2,1.1-.7,1.4c-.5.3-1.3.4-2.4.4v1.1h12.4v-1.1c-.9,0-1.7-.4-2.4-1-.7-.7-1.5-2-2.3-3.8l-8.7-19.5,6.9-13.4c1.4-2.6,2.3-4.3,3-4.9.7-.6,1.7-.9,3.1-.9v-1.1h-10.4v1.1c1.1,0,2,.2,2.4.5.4.3.7.8.7,1.6s-.2,1.3-.6,2.5l-6.3,12.1-5.3-12.1c-.4-.9-.6-1.7-.6-2.4,0-1.4,1-2.1,3.1-2.1v-1.1h-13.3ZM25.8,12l-20.4.5,24.2.7h0s0,0,0,0h0s0,0,0,0h0s0,0,0,0h0s-.1,0-.1,0h-.1s0,0,0,0h-.1s-.1,0-.1,0h-.1s-.1,0-.1,0h-2.6s0-.8,0-.8ZM30.6,14.6l-25.2.7,25.9.7h0c0-.1-.1-.4-.1-.4v-.3c-.1,0-.3-.3-.3-.3v-.3c-.1,0-.2-.2-.2-.2ZM31.8,17.3l-26.5.7,27.1.7-.7-1.5ZM33,20.1l-27.7.7,28.3.8-.7-1.5ZM34.3,22.9l-28.9.8,29.6.8-.7-1.6ZM35.5,25.6l-30.1.8,30.8.8-.7-1.7ZM36.7,28.4l-31.3.8,32.1.9-.8-1.7ZM37.9,31.1l-32.5.9,33.1.9v-.2c.1,0-.6-1.5-.6-1.5ZM38,33.9l-32.6.9,31.7.9.9-1.8ZM36.5,36.7l-31.2.8,30.3.8.8-1.7ZM35.1,39.5l-29.7.8,28.9.8.8-1.6ZM33.7,42.4l-28.3.8,27.5.7.8-1.5ZM32.2,45.2l-26.9.7,26.2.7.7-1.4ZM30.8,48l-25.5.7,24.8.7v-.2c0,0,.2-.2.2-.2v-.2c.1,0,.5-.7.5-.7ZM29.1,50.9l-23.8.7,20.4.5v-.7h2.3s0,0,0,0h.1s0,0,0,0h.1s0,0,0,0h0s0,0,0,0h0s0,0,0,0h0s0,0,0,0h0c0,0,0-.1,0-.1h0c0,0,0-.1,0-.1h0ZM25.8,53.7l-20.4.6,20.4.6v-1.1Z"/>
    <path class="st2" d="M3.2,0C1.4,0,0,1.4,0,3.2v1.1C0,2.6,1.4,1.1,3.2,1.1h57.6c1.8,0,3.2,1.4,3.2,3.2v-1.1c0-1.8-1.4-3.2-3.2-3.2H3.2Z"/>
  </g>
</svg>