<?xml version="1.0" encoding="UTF-8"?>
<svg id="_图层_1" xmlns="http://www.w3.org/2000/svg" version="1.1" viewBox="0 0 64 64" width="64" height="64">
  <!-- Generator: Adobe Illustrator 29.0.1, SVG Export Plug-In . SVG Version: 2.1.0 Build 192)  -->
  <defs>
    <style>
      .st0 {
        fill: #336f33;
      }

      .st1 {
        fill: #2f67ba;
      }

      .st1, .st2, .st3, .st4 {
        display: none;
      }

      .st2, .st3, .st5, .st6, .st7 {
        isolation: isolate;
      }

      .st2, .st5, .st6 {
        opacity: .2;
      }

      .st3, .st8, .st6, .st7 {
        fill: #fff;
      }

      .st3, .st7 {
        opacity: .1;
      }

      .st9 {
        fill: #ffbf23;
      }

      .st10 {
        fill: #64d4f9;
      }

      .st11 {
        fill: #a45390;
      }

      .st12 {
        fill: #6db832;
      }

      .st13 {
        fill: #c2352a;
      }

      .st14 {
        fill: #4987d7;
      }
    </style>
  </defs>
  <path class="st8" d="M50.3,64H13.8c-7.6,0-13.8-6.2-13.8-13.7V13.7C0,6.2,6.2,0,13.7,0h36.5c7.5,0,13.7,6.2,13.7,13.7v36.6c0,7.5-6.2,13.7-13.7,13.7h0Z"/>
  <g class="st4">
    <path class="st2" d="M0,59.5v2.3c0,1.9,1.5,3.4,3.4,3.4h57.4c1.9,0,3.4-1.5,3.4-3.4v-2.3c0,1.9-1.5,3.4-3.4,3.4H3.4C1.5,63,0,61.4,0,59.5Z"/>
    <path class="st14" d="M3.2-.1C2.3-.1,1.5.3.9.8l31.2,31.2L63.3.8c-.6-.6-1.4-.9-2.3-.9H3.2h0Z"/>
    <path class="st11" d="M3.2,64.1c-.9,0-1.7-.4-2.3-.9l31.2-31.2,31.2,31.2c-.6.6-1.4.9-2.3.9H3.2h0Z"/>
    <path class="st12" d="M64.2,3.1c0-.9-.4-1.7-.9-2.3l-31.2,31.2,31.2,31.2c.6-.6.9-1.4.9-2.3V3.1h0Z"/>
    <path class="st13" d="M0,3.1C0,2.2.4,1.4.9.8l31.2,31.2L.9,63.2c-.6-.6-.9-1.4-.9-2.3V3.1h0Z"/>
    <path class="st5" d="M35,5.6c-1.4,0-2.5.2-3.6.5-1,.3-1.9.8-2.6,1.3-.7.6-1.3,1.2-1.8,2-.5.8-.8,1.3-1.1,2.1-.3.9-.5,1.8-.6,2.8-.1,1-.2,1.9-.2,2.9h0c0,1.5.2,2.9.5,4,.4,1.1.9,2,1.5,2.8.7.7,1.4,1.3,2.3,1.7.9.4,1.8.5,2.8.5s2-.2,2.8-.5c.8-.3,1.5-.8,2.1-1.4.6-.6,1-1.4,1.3-2.2.3-.9.5-1.9.5-3s-.1-2-.4-2.8c-.3-.8-.6-1.6-1.1-2.1-.5-.6-1.1-1-1.8-1.3-.7-.3-1.5-.4-2.4-.4s-1.1,0-1.5.2c-.4.1-.8.3-1.2.5-.4.2-.7.6-.9.9-.3.3-.5.6-.7.9h-.2c0-1,.2-1.8.4-2.6.2-.8.5-1.1,1-1.7.5-.6,1.1-1,1.9-1.3.8-.3,1.8-.5,3.1-.5s.8,0,1.2,0c.4,0,.8.1,1.1.2v-3.5c-.2,0-.4,0-.6,0-.2,0-.5,0-.7,0-.2,0-.5,0-.7,0s-.4,0-.6,0ZM32.4,16c.8,0,1.5.3,1.9.9.4.6.6,1.4.6,2.4s0,1.1-.2,1.6c-.1.4-.3.8-.5,1.1-.2.3-.5.5-.8.7-.3.1-.7.2-1,.2s-.9-.1-1.2-.4c-.3-.2-.6-.5-.9-.9-.2-.4-.4-.8-.5-1.3-.1-.5-.2-1-.2-1.4s0-.7.2-1c.1-.3.3-.6.6-.9.3-.3.6-.5.9-.7.4-.2.7-.3,1.2-.3ZM47,24v10.3l1,.9c.2,0,.4-.1.6-.2.2,0,.5-.1.8-.2.3,0,.5,0,.8-.1.3,0,.5,0,.8,0,1.3,0,2.3.3,3,.8.6.5,1,1.3,1,2.3s-.3,2-1,2.5c-.7.5-1.6.8-2.9.8s-.9,0-1.3,0c-.5,0-.9-.2-1.4-.3-.5-.1-.9-.3-1.3-.4-.4-.2-.8-.3-1.1-.5v3.7c.3.2.7.3,1.1.5.4.1.9.3,1.3.3.5,0,1,.2,1.5.2.5,0,1,0,1.5,0,1.3,0,2.4-.2,3.4-.5,1-.3,1.8-.8,2.5-1.4.7-.6,1.2-1.4,1.5-2.2.3-.9.5-1.9.5-3s-.2-1.9-.5-2.7c-.3-.8-.8-1.4-1.3-2-.6-.5-1.2-.9-2-1.2-.8-.3-1.6-.4-2.5-.4h0c-.6,0-1.1,0-1.5.1-.4,0-.7.1-1,.2l.3-4.1h6.5v-3.4h-10.3ZM11.5,24.1c-.8,0-1.6,0-2.2.3-.7.2-1.3.4-1.8.6-.6.3-1.1.6-1.5.9-.5.3-.9.5-1.3.9l2.4,2.8c.7-.7,1.5-1.2,2.1-1.6.7-.4,1.4-.5,2.1-.5s1.3.2,1.7.6c.4.4.6.9.6,1.6s0,1.2-.3,1.7c-.2.5-.5,1.1-.8,1.6-.4.5-.8,1.1-1.3,1.6-.5.6-1,1.2-1.7,1.8l-4.8,5.4v2.8h13.7v-3.4h-8.3v-.2l2.5-2.7c.7-.7,1.4-1.4,2-2.1.6-.7,1.2-1.4,1.7-2.1.5-.7.9-1.4,1.1-2.2.3-.7.4-1.5.4-2.3s-.1-1.7-.4-2.4c-.3-.7-.7-1.1-1.3-1.6-.6-.5-1.2-.9-2-1.2-.8-.3-1.7-.4-2.6-.4ZM25.2,42.5v3.2h9.4l-7.3,17.2h4.5l7.1-17.7v-2.7h-13.8Z"/>
    <path class="st8" d="M35,4.5c-1.4,0-2.5.2-3.6.5-1,.3-1.9.8-2.6,1.3-.7.6-1.3,1.2-1.8,2-.5.8-.8,1.3-1.1,2.1-.3.9-.5,1.8-.6,2.8-.1,1-.2,1.9-.2,2.9h0c0,1.5.2,2.9.5,4,.4,1.1.9,2,1.5,2.8.7.7,1.4,1.3,2.3,1.7.9.4,1.8.5,2.8.5s2-.2,2.8-.5c.8-.3,1.5-.8,2.1-1.4.6-.6,1-1.4,1.3-2.2.3-.9.5-1.9.5-3s-.1-2-.4-2.8c-.3-.8-.6-1.6-1.1-2.1-.5-.6-1.1-1-1.8-1.3-.7-.3-1.5-.4-2.4-.4s-1.1,0-1.5.2c-.4.1-.8.3-1.2.5-.4.2-.7.6-.9.9-.3.3-.5.6-.7.9h-.2c0-1,.2-1.8.4-2.6.2-.8.5-1.1,1-1.7.5-.6,1.1-1,1.9-1.3.8-.3,1.8-.5,3.1-.5s.8,0,1.2,0c.4,0,.8.1,1.1.2v-3.5c-.2,0-.4,0-.6,0-.2,0-.5,0-.7,0-.2,0-.5,0-.7,0s-.4,0-.6,0ZM32.4,14.9c.8,0,1.5.3,1.9.9.4.6.6,1.4.6,2.4s0,1.1-.2,1.6c-.1.4-.3.8-.5,1.1-.2.3-.5.5-.8.7-.3.1-.7.2-1,.2s-.9-.1-1.2-.4c-.3-.2-.6-.5-.9-.9-.2-.4-.4-.8-.5-1.3-.1-.5-.2-1-.2-1.4s0-.7.2-1c.1-.3.3-.6.6-.9.3-.3.6-.5.9-.7.4-.2.7-.3,1.2-.3ZM47,22.8v10.3l1,.9c.2,0,.4-.1.6-.2.2,0,.5-.1.8-.2.3,0,.5,0,.8-.1.3,0,.5,0,.8,0,1.3,0,2.3.3,3,.8.6.5,1,1.3,1,2.3s-.3,2-1,2.5c-.7.5-1.6.8-2.9.8s-.9,0-1.3,0c-.5,0-.9-.2-1.4-.3-.5-.1-.9-.3-1.3-.4-.4-.2-.8-.3-1.1-.5v3.7c.3.2.7.3,1.1.5.4.1.9.3,1.3.3.5,0,1,.2,1.5.2.5,0,1,0,1.5,0,1.3,0,2.4-.2,3.4-.5,1-.3,1.8-.8,2.5-1.4.7-.6,1.2-1.4,1.5-2.2.3-.9.5-1.9.5-3s-.2-1.9-.5-2.7c-.3-.8-.8-1.4-1.3-2-.6-.5-1.2-.9-2-1.2-.8-.3-1.6-.4-2.5-.4h0c-.6,0-1.1,0-1.5.1-.4,0-.7.1-1,.2l.3-4.1h6.5v-3.4h-10.3ZM11.5,22.9c-.8,0-1.6,0-2.2.3-.7.2-1.3.4-1.8.6-.6.3-1.1.6-1.5.9-.5.3-.9.5-1.3.9l2.4,2.8c.7-.7,1.5-1.2,2.1-1.6.7-.4,1.4-.5,2.1-.5s1.3.2,1.7.6c.4.4.6.9.6,1.6s0,1.2-.3,1.7c-.2.5-.5,1.1-.8,1.6-.4.5-.8,1.1-1.3,1.6-.5.6-1,1.2-1.7,1.8l-4.8,5.4v2.8h13.7v-3.4h-8.3v-.2l2.5-2.7c.7-.7,1.4-1.4,2-2.1.6-.7,1.2-1.4,1.7-2.1.5-.7.9-1.4,1.1-2.2.3-.7.4-1.5.4-2.3s-.1-1.7-.4-2.4c-.3-.7-.7-1.1-1.3-1.6-.6-.5-1.2-.9-2-1.2-.8-.3-1.7-.4-2.6-.4ZM25.2,41.4v3.2h9.4l-7.3,17.2h4.5l7.1-17.7v-2.7h-13.8Z"/>
    <path class="st3" d="M3.4-.1C1.5-.1,0,1.4,0,3.3v1.1C0,2.6,1.5,1,3.4,1h57.4c1.9,0,3.4,1.5,3.4,3.4v-1.1c0-1.9-1.5-3.4-3.4-3.4H3.4Z"/>
  </g>
  <g class="st4">
    <ellipse class="st2" cx="32" cy="32.9" rx="32" ry="32.3"/>
    <ellipse class="st1" cx="32" cy="31.7" rx="32" ry="32.3"/>
    <path class="st5" d="M17.1,21.3c-6.9,0-12.6,5.7-12.6,12.7s5.6,12.7,12.6,12.7c2,0,3.9-.5,5.7-1.4v9.5c0,1.9,1.5,3.5,3.4,3.5s3.4-1.5,3.4-3.5V21.3h-6.9v1.4c-1.8-.9-3.7-1.4-5.7-1.4ZM17.1,28.2c3.2,0,5.7,2.6,5.7,5.8s-2.6,5.8-5.7,5.8-5.7-2.6-5.7-5.8,2.6-5.8,5.7-5.8Z"/>
    <path class="st10" d="M17.1,20.2c-6.9,0-12.6,5.7-12.6,12.7s5.6,12.7,12.6,12.7c2,0,3.9-.5,5.7-1.4v9.5c0,1.9,1.5,3.5,3.4,3.5s3.4-1.5,3.4-3.5V20.2h-6.9v1.4c-1.8-.9-3.7-1.4-5.7-1.4ZM17.1,27.1c3.2,0,5.7,2.6,5.7,5.8s-2.6,5.8-5.7,5.8-5.7-2.6-5.7-5.8,2.6-5.8,5.7-5.8Z"/>
    <path class="st5" d="M37.7,9.8c-1.9,0-3.4,1.5-3.4,3.5v33.5h6.9v-1.4c1.8.9,3.7,1.4,5.7,1.4,6.9,0,12.6-5.7,12.6-12.7s-5.6-12.7-12.6-12.7c-2,0-3.9.5-5.7,1.4v-9.5c0-1.9-1.5-3.5-3.4-3.5ZM46.8,28.2c3.2,0,5.7,2.6,5.7,5.8s-2.6,5.8-5.7,5.8-5.7-2.6-5.7-5.8,2.6-5.8,5.7-5.8Z"/>
    <path class="st8" d="M37.7,8.6c-1.9,0-3.4,1.5-3.4,3.5v33.5h6.9v-1.4c1.8.9,3.7,1.4,5.7,1.4,6.9,0,12.6-5.7,12.6-12.7s-5.6-12.7-12.6-12.7c-2,0-3.9.5-5.7,1.4v-9.5c0-1.9-1.5-3.5-3.4-3.5ZM46.8,27.1c3.2,0,5.7,2.6,5.7,5.8s-2.6,5.8-5.7,5.8-5.7-2.6-5.7-5.8,2.6-5.8,5.7-5.8Z"/>
    <path class="st3" d="M32-.6C14.3-.6,0,13.9,0,31.7c0,.2,0,.4,0,.6C.3,14.7,14.6.6,32,.5c17.4,0,31.6,14.1,32,31.7,0-.2,0-.4,0-.6C64,13.9,49.7-.6,32-.6Z"/>
  </g>
  <g>
    <path class="st5" d="M56.1,32.1c0,13.1-10.8,23.7-24.2,23.7S7.8,45.1,7.8,32.1,18.6,8.4,32,8.4s24.2,10.6,24.2,23.7Z"/>
    <path class="st0" d="M53,31.3c0,6.1.8,11.5-3,15.7-4.4,4.9-10.9,7.9-18,7.9-13.4,0-24.2-10.6-24.2-23.7S18.6,7.5,32,7.5s1.4.2,1.9.3c6,.3,9.6,5,13.6,8.9,4.5,4.3,5.5,8,5.5,14.7Z"/>
    <path class="st5" d="M32,8.4c-.5,0-1,0-1.5,0-2,.5-5,0-5.8,2.3,1.6.1,3.6-1,5.5-.8,2.4-.5,4.2,1,6.1,1.9,2.8.1,4.6,2.6,5.4,5-.5,0-2.5-.9-2.6.8.8,1.3.4,3.9,2.2,4.2,2.6.4.6-1.7-.1-2.6,1.9-.9,4,3.5,1.3,3.3.6,1.6-1.6,3.7-.3,5.1,1.3.6-1,1.6-1,2.4.3,3,4,.8,2.9-1.5-.6-2.3,5.1-.7,2-2.6.9-.8,3.8,2,2.8-.9.9,1.3,2.3-.9,2.9.5.2,1.7-1.6,3.6-2.8,4.5-2.1-1.1-3.8,0-5.3,1.6-1.4,1.8-1.9,4.2-2.5,6.3-.7,2.2,0,5.3,2.7,5.8,2.3.5,3.7-2.1,5.8-2.3,1.3.4,1.1,2.3,1.5,3.4.1.9-.7,1.7-1,2.6,3.8-4.3,5.9-9.8,5.9-15.5,0-13.1-10.8-23.7-24.2-23.7ZM22.3,11.8c-1.4,0-2.9.9-2.5,2.3-1.4,2.1-3.2,3.8-5,5.6-2.5,1.8-3.9,4.9-4,7.9,0,2.4-.6,5,.4,7.3,1.3,1.8,2.3,3.9,3.5,5.8l.3.3c.3-1.4-1-3.4-.9-5.1-3,.2-2.6-5.4.5-4.3,1.6-.2,1.7,2.6,2.5,2.2,1.9-1.8,3.8-3.7,6.3-4.5,2.2.8.2-2.1,2.1-2,2.9-.2.8-3.4-.2-4.5-1.2-2.7-2.9,4.3-3.7,1.1-1.5-1.6.9-5.3,2.3-3,.4-.2,1.9-2.8-.2-2.8-1.6-1.5-.7-4.1.4-5.7-.3-.4-1-.6-1.9-.5ZM24.4,15.2c-.4,0-1.1,1-1.1,1.8.5.9,1.4,0,1.3-.7,0-.7,0-1-.2-1ZM29.7,15.6c-.9,0-2.4,1.1-.7,1.1.9,1.8.4,4.3.9,6.4,1.2,2,2.5-2.4,3.7-2.9.8-2-.7-5.3-3.2-4,0-.4-.3-.6-.6-.6ZM27,16.9c0,0-.2,0-.3.2.7.7.6-.1.3-.2ZM35.2,21.4c-.2,0-.4.1-.5.4l.3.2c1.5.4.8-.6.2-.6ZM48.9,21.7c.6,0,1.2.4.6,1.4-.3,1.2-1,1.4-1.4.2-.4-1,.2-1.6.8-1.6ZM40.1,24.1c-.4,0-.5.2.3,1.1.2.3.5.7.9.6.7-.7-.6-1.7-1.2-1.7ZM39.3,25.2c0,0-.1.2-.1.6.8.3.4-.7.1-.6ZM26.7,27.7c-.2,0-.3.3.1,1.1,1.4,0,.3-1.2-.1-1.1ZM17.1,36.8c0,0,0,0,.1.4,1.1.9.1-.3-.1-.4ZM19.2,38.7c-.2,0-.3.1-.4.4,1.3.6.9-.4.4-.4ZM17.7,41.6c-.9,0-1.5.5-1.4,1.9-1.5,2.2,0,4.5,1.7,6,1.2.8,1.7,2.1,2.3,3.2,2.1,1.2,4.4,2,6.8,2.5.4-.1.8-.2,1.1-.4,2.4-.5,5.3-2.5,5-5-1.8-1.6-4.8-.7-6.5-2.5-1-2.3-3.5-3.3-5.6-4.4-.9-.7-2.4-1.5-3.5-1.4Z"/>
    <path class="st9" d="M32,7.5c-.5,0-1,0-1.5,0-2,.5-5,0-5.8,2.3,1.6.1,3.6-1,5.5-.8,2.4-.5,4.2,1,6.1,1.9,2.8.1,4.6,2.6,5.4,5-.5,0-2.5-.9-2.6.8.8,1.3.4,3.9,2.2,4.2,2.6.4.6-1.7-.1-2.6,1.9-.9,4,3.5,1.3,3.3.6,1.6-1.6,3.7-.3,5.1,1.3.6-1,1.6-1,2.4.3,3,4,.8,2.9-1.5-.6-2.3,5.1-.7,2-2.6.9-.8,3.8,2,2.8-.9.9,1.3,2.3-.9,2.9.5.2,1.7-1.6,3.6-2.8,4.5-2.1-1.1-3.8,0-5.3,1.6-1.4,1.8-1.9,4.2-2.5,6.3-.7,2.2,0,5.3,2.7,5.8,2.3.5,3.7-2.1,5.8-2.3,1.3.4,1.1,2.3,1.5,3.4.1.9-.7,1.7-1,2.6,3.8-4.3,5.9-9.8,5.9-15.5,0-13.1-10.8-23.7-24.2-23.7ZM22.3,11c-1.4,0-2.9.9-2.5,2.3-1.4,2.1-3.2,3.8-5,5.6-2.5,1.8-3.9,4.9-4,7.9,0,2.4-.6,5,.4,7.3,1.3,1.8,2.3,3.9,3.5,5.8l.3.3c.3-1.4-1-3.4-.9-5.1-3,.2-2.6-5.4.5-4.3,1.6-.2,1.7,2.6,2.5,2.2,1.9-1.8,3.8-3.7,6.3-4.5,2.2.8.2-2.1,2.1-2,2.9-.2.8-3.4-.2-4.5-1.2-2.7-2.9,4.3-3.7,1.1-1.5-1.6.9-5.3,2.3-3,.4-.2,1.9-2.8-.2-2.8-1.6-1.5-.7-4.1.4-5.7-.3-.4-1-.6-1.9-.5ZM24.4,14.4c-.4,0-1.1,1-1.1,1.8.5.9,1.4,0,1.3-.7,0-.7,0-1-.2-1ZM29.7,14.7c-.9,0-2.4,1.1-.7,1.1.9,1.8.4,4.3.9,6.4,1.2,2,2.5-2.4,3.7-2.9.8-2-.7-5.3-3.2-4,0-.4-.3-.6-.6-.6ZM27,16c0,0-.2,0-.3.2.7.7.6-.1.3-.2ZM35.2,20.6c-.2,0-.4.1-.5.4l.3.2c1.5.4.8-.6.2-.6ZM48.9,20.8c.6,0,1.2.4.6,1.4-.3,1.2-1,1.4-1.4.2-.4-1,.2-1.6.8-1.6ZM40.1,23.3c-.4,0-.5.2.3,1.1.2.3.5.7.9.6.7-.7-.6-1.7-1.2-1.7ZM39.3,24.3c0,0-.1.2-.1.6.8.3.4-.7.1-.6ZM26.7,26.8c-.2,0-.3.3.1,1.1,1.4,0,.3-1.2-.1-1.1ZM17.1,35.9c0,0,0,0,.1.4,1.1.9.1-.3-.1-.4ZM19.2,37.8c-.2,0-.3.1-.4.4,1.3.6.9-.4.4-.4ZM17.7,40.8c-.9,0-1.5.5-1.4,1.9-1.5,2.2,0,4.5,1.7,6,1.2.8,1.7,2.1,2.3,3.2,2.1,1.2,4.4,2,6.8,2.5.4-.1.8-.2,1.1-.4,2.4-.5,5.3-2.5,5-5-1.8-1.6-4.8-.7-6.5-2.5-1-2.3-3.5-3.3-5.6-4.4-.9-.7-2.4-1.5-3.5-1.4Z"/>
    <path class="st7" d="M32,7.5c-13.4,0-24.2,10.6-24.2,23.7s0,.2,0,.3c.3-12.8,11-23.1,24.2-23.1s23.9,10.3,24.2,23.1c0,0,0-.2,0-.3,0-13.1-10.8-23.7-24.2-23.7Z"/>
    <path class="st6" d="M32,7.5c-.5,0-1,0-1.5,0-2,.5-5,0-5.8,2.3.2,0,.3,0,.5,0,1.2-1.3,3.6-1,5.3-1.4.5,0,1,0,1.5,0,13.2,0,24,10.4,24.2,23.4,0-.2,0-.4,0-.5,0-13.1-10.8-23.7-24.2-23.7ZM22.3,11c-1.4,0-2.9.9-2.5,2.3-1.4,2.1-3.2,3.8-5,5.6-2.5,1.8-3.9,4.9-4,7.9,0,1.4-.2,2.9-.2,4.4,0-1.2.2-2.4.2-3.5,0-3,1.4-6.1,4-7.9,1.8-1.8,3.6-3.5,5-5.6-.4-1.4,1.1-2.2,2.5-2.3.6,0,1.1,0,1.5.2.1-.2.2-.4.3-.6-.3-.4-1-.6-1.9-.5ZM24.4,14.4c-.4,0-1.1,1-1.1,1.8,0,0,0,.1.1.2.2-.6.7-1.2,1-1.1,0,0,.1,0,.2.2,0,0,0,0,0,0,0-.7,0-1-.2-1ZM29.7,14.7c-.9,0-2.2,1-.9,1.1.3-.1.6-.2.9-.2.3,0,.5.2.6.6,2-1,3.2.7,3.4,2.4.2-2-1.1-4.4-3.4-3.2,0-.4-.3-.6-.6-.6ZM22.9,15.5c0,.9.1,1.8.9,2.5.6,0,.9.2,1,.5.2-.6,0-1.2-.8-1.4-.3.1-.5.1-.8-.3,0,0,0-.2,0-.3-.2-.3-.3-.7-.4-1.1ZM40.2,15.7c-.6,0-1.1.2-1.1,1.1,0,0,0,.2.1.3.5-.9,2-.3,2.4-.3,0-.3-.2-.6-.3-.9-.3,0-.7-.2-1.1-.2ZM27,16c0,0-.2,0-.3.2.7.7.6-.1.3-.2ZM41.6,19.2c-.1,0-.2,0-.4.1.3.4.9,1.1,1.2,1.6.4-.3,0-1.1-.6-1.7,0,0-.2,0-.3,0ZM35.2,20.6c-.2,0-.4.1-.5.4l.3.2c1.5.4.8-.6.2-.6ZM43.7,21.1c-.1.4-.5.7-1.2.6,0,0,0,0,0,0,0,.3,0,.5,0,.8,1.1,0,1.4-.7,1.2-1.5ZM24.6,21.2c-1.1.2-2.3,4.3-3,1.8-.3-.3-.4-.6-.5-.9-.1.6,0,1.3.5,1.8.8,3.1,2.5-3.9,3.7-1.1.6.6,1.4,1.8,1.7,2.8.3-1.1-.9-2.9-1.7-3.7-.2-.5-.5-.7-.7-.6ZM49.6,22c0,0,0,.2,0,.2-.3,1.2-1,1.4-1.4.2,0,0,0-.1,0-.2-.1.3-.1.6,0,1,.5,1.2,1.2.9,1.4-.2.3-.5.2-.9,0-1.1ZM42.6,22.8c-.2,1.1-1,2.4-.7,3.4.2-1.1,1-2.3.7-3.4ZM40.1,23.3c-.3,0-.4.2.1.9.4,0,.9.4,1.2.8.6-.7-.7-1.6-1.3-1.7ZM39.3,24.3c0,0-.1.2-.1.6.8.3.4-.7.1-.6ZM48.9,25.2c0,.1,0,.3.1.4,0,0,0,0,0-.2,0,0-.1-.1-.2-.2ZM51.7,25.6c-.3,1.5-1.8,3-2.7,3.7-2.1-1.1-3.8,0-5.3,1.6-1.4,1.8-1.9,4.2-2.5,6.3-.2.6-.2,1.3-.2,2,0-.4,0-.8.2-1.2.6-2.2,1.1-4.5,2.5-6.3,1.4-1.6,3.2-2.7,5.3-1.6,1.1-.9,3-2.8,2.8-4.5,0,0,0,0,0,0ZM46.5,25.9c-.2,0-.3,0-.4.1.1,0,.2.1.3.2.4,0,.6-.1.6-.2-.2,0-.3,0-.5,0ZM26.7,26.9c0,0-.1,0-.2.1,0,.1,0,.4.1.7,0,0,0,0,0,0,.1,0,.3,0,.5.2.7-.2,0-1-.4-1.1ZM42.3,27.7c-.4.5-1.1,1-1.1,1.5,0,.2,0,.3,0,.5.4-.7,1.8-1.5,1-2ZM44.1,27.9c0,.2-.1.4,0,.7,0,.2.1.3.2.5,0-.4,0-.8-.1-1.2ZM12.2,33.2c-.2,1.3.5,2.8,2,2.7-.1,1.4.7,2.9.9,4.3h0c.3-1.4-1-3.4-.9-5.1-1.2,0-1.9-.8-2-1.8ZM17.1,35.9c0,0,0,0,.1.4,1.1.9.1-.3-.1-.4ZM19.2,37.8c-.2,0-.3.1-.4.4,1.3.6.9-.4.4-.4ZM17.7,40.7c-.9,0-1.5.5-1.4,1.9-.6.8-.7,1.6-.6,2.4,0-.5.3-1,.6-1.5,0-1.4.6-1.9,1.4-1.9,1.1,0,2.6.8,3.5,1.4,2.1,1.1,4.6,2.1,5.6,4.4,1.7,1.8,4.7.8,6.4,2.4,0-.3,0-.6,0-.8-1.8-1.6-4.8-.7-6.5-2.4-1-2.3-3.5-3.3-5.6-4.4-.9-.7-2.4-1.5-3.5-1.4ZM51.1,44.9c-.2.6-.7,1.2-1,1.9.4-.4.7-.8,1-1.3,0-.1,0-.3,0-.4,0,0,0-.1,0-.2Z"/>
  </g>
</svg>