<?xml version="1.0" encoding="UTF-8"?>
<svg id="_图层_1" data-name="图层_1" xmlns="http://www.w3.org/2000/svg" width="64" height="64" version="1.1" viewBox="0 0 1024 1024">
  <!-- Generator: Adobe Illustrator 29.0.1, SVG Export Plug-In . SVG Version: 2.1.0 Build 192)  -->
  <defs>
    <style>
      .st0 {
        fill: #fff;
      }

      .st1 {
        fill: #02b053;
      }

      .st2 {
        fill: #f8c913;
      }
    </style>
  </defs>
  <rect class="st0" x="23" y="19" width="981" height="983" rx="190.3" ry="190.3"/>
  <g>
    <path class="st2" d="M106,530.6c0,215.6,178.8,391.4,398,391.4s398-175.8,398-391.4-176.7-391.4-398-391.4S106,315.1,106,530.6Z"/>
    <path class="st1" d="M625.3,105.8c-14.9,16.7-46.8,31.4-89.4,41.9-72.4,16.7-87.3,20.9-108.5,33.5-12.8,6.3-27.7,16.7-36.2,25.1-17,14.6-29.8,41.9-25.5,50.2,2.1,4.2,42.6,60.7,91.5,129.8,49,67,95.8,133.9,106.4,148.6,10.6,14.6,17,27.2,17,27.2,0,2.1-8.5,0-17-2.1-34.1-10.5-93.6,0-136.2,20.9-31.9,16.7-68.1,52.3-83,81.6-17,33.5-19.2,79.5-6.4,110.9,12.8,33.5,40.4,60.7,76.6,79.5,27.7,14.6,34.1,14.6,70.2,16.7,29.8,2.1,46.8,0,63.9-4.2,78.7-23,136.2-83.7,140.5-154.9,2.1-39.8-2.1-52.3-55.3-144.4-83-142.3-157.5-272.1-157.5-274.2,0,0,14.9-2.1,34.1-4.2,55.3-2.1,100-29.3,123.4-73.2,10.6-18.8,10.6-25.1,10.6-64.9s-2.1-48.1-4.3-50.2c-2.1-6.3-4.3-4.2-14.9,6.3h0Z"/>
  </g>
</svg>
