<?xml version="1.0" encoding="UTF-8"?>
<svg id="_图层_1" xmlns="http://www.w3.org/2000/svg" version="1.1" viewBox="0 0 64 64" width="64" height="64">
  <!-- Generator: Adobe Illustrator 29.0.1, SVG Export Plug-In . SVG Version: 2.1.0 Build 192)  -->
  <defs>
    <style>
      .st0, .st1 {
        fill: #4cdb5d;
      }

      .st2, .st3, .st4, .st5 {
        isolation: isolate;
      }

      .st2, .st4, .st5 {
        opacity: .2;
      }

      .st2, .st1, .st5 {
        display: none;
      }

      .st6, .st5 {
        fill: #fff;
      }

      .st3 {
        opacity: .1;
      }

      .st7 {
        fill: #31ae3e;
      }
    </style>
  </defs>
  <path class="st0" d="M50.5,64H13.9C6.3,64,0,57.8,0,50.3V13.7C0,6.2,6.3,0,13.8,0h36.6c7.5,0,13.7,6.2,13.7,13.7v36.6c0,7.5-6.2,13.7-13.7,13.7h.1Z"/>
  <g>
    <path class="st2" d="M10.3,1.3c-.6,0-1.1.3-1.5.9L.6,13.5c-.2.3-.3.8-.5,1.2H.1c0,.3,0,.5,0,.8v43.2c0,2.9,1.4,5,2.6,5.9s2.4.8,2.4.8h48.8c.6,0,1.1-.3,1.5-.9l8.2-11.3h0c.1-.3.3-.7.4-1h0c0-.3.1-.6.1-1V8c0-2.9-1.4-5-2.6-5.8-1.2-.8-2.4-.8-2.4-.8H10.3v-.2Z"/>
    <path class="st1" d="M10.3-.1c-.6,0-1.1.3-1.5.9L.6,12.1c-.3.5-.6,1.2-.6,2l6.3,21.5c.8,2.7-3.3,21.2-2.1,22s6.4-3.6,6.4-3.6l39.7,2c.6,0,2.7-1.5,3.1-2l10.1-2.2c.3-.5.6-1.2.6-2V6.5c0-2.9-1.4-5-2.6-5.8-1.2-.8-2.4-.8-2.4-.8H10.3Z"/>
    <path class="st7" d="M.1,13.2c0,.3,0,.5,0,.8L0,49.3c.2,8.1,5.5,14.7,14.4,14.5,2.8.2,7.1,0,7.1,0h29.5c6.4.1,13.1-5.8,12.9-11.9l-.4-.3c.2-.3.3-.6.5-1L.1,13.2Z"/>
    <path class="st3" d="M.2,13.2c0,.3,0,.5,0,.8v1.5c0-.3,0-.5,0-.8l63.3,37.1h0c.2-.4.3-.8.5-1.1L.2,13.2Z"/>
    <path class="st5" d="M10.3-.1c-.6,0-1.1.3-1.5.9L.6,12.1c-.2.3-.3.8-.5,1.2H.1c0,.3,0,.5,0,.8v1.5c0-.3,0-.5,0-.8H.1c0-.4.2-.9.5-1.1L8.8,2.3c.4-.5,1-.9,1.5-.9h48.8s1.2,0,2.4.8c1.2.8,2.6,3,2.6,5.8v-1.5c0-2.9-1.4-5-2.6-5.8C60.3,0,59.1,0,59.1,0H10.3Z"/>
    <path class="st4" d="M12.2,15.9v34.9h10.6c5.1,0,9.2-5.6,9.2-12.6v-9.7c0-7-4.1-12.6-9.2-12.6h-10.6ZM32.1,15.9l8.4,34.9h4.6l8.4-34.9h-4.6l-6.1,25.2-6.1-25.2s-4.6,0-4.6,0ZM16.6,21.7h6.2c2.8,0,4.8,2.9,4.8,6.8v9.7c0,3.9-2,6.8-4.8,6.8h-6.2v-23.3h0Z"/>
    <path class="st6" d="M12.2,14.4v34.9h10.6c5.1,0,9.2-5.6,9.2-12.6v-9.7c0-7-4.1-12.6-9.2-12.6,0,0-10.6,0-10.6,0ZM32.1,14.4l8.4,34.9h4.6l8.4-34.9h-4.6l-6.1,25.2-6.1-25.2s-4.6,0-4.6,0ZM16.6,20.2h6.2c2.8,0,4.8,2.9,4.8,6.8v9.7c0,3.9-2,6.8-4.8,6.8h-6.2v-23.3h0Z"/>
  </g>
</svg>