<?xml version="1.0" encoding="UTF-8"?>
<svg id="_图层_1" data-name="图层_1" xmlns="http://www.w3.org/2000/svg" version="1.1" viewBox="0 0 128 128" width="64" height="64">
  <!-- Generator: Adobe Illustrator 29.0.1, SVG Export Plug-In . SVG Version: 2.1.0 Build 192)  -->
  <defs>
    <style>
      .st0 {
        fill: #008b00;
      }

      .st1 {
        fill: #67da25;
      }

      .st2 {
        fill: #4cdb5d;
      }

      .st3, .st4, .st5, .st6, .st7, .st8 {
        isolation: isolate;
      }

      .st3, .st5, .st6, .st7 {
        opacity: .2;
      }

      .st3, .st9, .st7 {
        display: none;
      }

      .st10, .st6, .st7, .st8 {
        fill: #fff;
      }

      .st4, .st8 {
        opacity: .1;
      }

      .st11 {
        fill: #31ae3e;
      }

      .st12 {
        fill: #00cc5c;
      }
    </style>
  </defs>
  <rect class="st12" x=".6" y=".6" width="127.8" height="127.8" rx="25.9" ry="25.9"/>
  <g class="st9">
    <path class="st3" d="M27.7,27.8h77.5s4.5,0,4.5,4.4v57.3l-13,13.2H19.3s-4.5,0-4.5-4.4v-57.3l13-13.2Z"/>
    <path class="st12" d="M27.7,26.3h77.5s4.5,0,4.5,4.4v57.3l-13,13.2H19.3s-4.5,0-4.5-4.4v-57.3l13-13.2Z"/>
    <path class="st5" d="M74.9,45v9.4h-6.3v4.7h6.3v12.8c0,8.8,3.2,12.1,8.8,12.1h7v-6.2h-6.3c-3.1,0-3.2-2.1-3.2-6.5v-12.2h9.5v-4.7h-9.5v-9.4h-6.3ZM49.7,43.5c-12.6,0-15.9,7-15.9,20.2s3.3,20.4,15.9,20.4h3.6l5.2,8.8,6.1-2.2-4.9-8.8c4.7-2.2,5.8-9.3,5.8-18.2,0-13.2-3.2-20.2-15.7-20.2ZM49.6,49.7c7.7,0,9.5,5.5,9.5,14.5,0,9-1.7,13.6-9.5,13.6s-9.5-4.5-9.5-13.6,1.9-14.5,9.5-14.5Z"/>
    <path class="st10" d="M74.9,43.4v9.4h-6.3v4.7h6.3v12.8c0,8.8,3.2,12.1,8.8,12.1h7v-6.2h-6.3c-3.1,0-3.2-2.1-3.2-6.5v-12.2h9.5v-4.7h-9.5v-9.4h-6.3ZM49.7,42c-12.6,0-15.9,7-15.9,20.2s3.3,20.4,15.9,20.4h3.6l5.2,8.8,6.1-2.2-4.9-8.8c4.7-2.2,5.8-9.3,5.8-18.2,0-13.2-3.2-20.2-15.7-20.2ZM49.6,48.1c7.7,0,9.5,5.5,9.5,14.5,0,9-1.7,13.6-9.5,13.6s-9.5-4.5-9.5-13.6,1.9-14.5,9.5-14.5Z"/>
    <path class="st7" d="M27.7,26.3l-13,13.2v1.6l13-13.2h77.5s4.5,0,4.5,4.4v-1.6c0-4.4-4.5-4.4-4.5-4.4H27.7Z"/>
  </g>
  <g class="st9">
    <path class="st5" d="M31.8,28.6c-.8,0-1.6.4-2.2,1l-11.8,13c-.3.4-.6.9-.7,1.3h0c0,.3-.1.6-.1.9v49.6c0,3.2,2,5.8,3.8,6.7s3.4.9,3.4.9h70.4c.8,0,1.6-.4,2.2-1l11.8-13s0,0,0-.1c.2-.3.4-.6.6-1,0,0,0,0,0,0h0c.1-.3.2-.7.2-1.1v-49.6c0-3.2-2-5.8-3.8-6.7-1.8-.9-3.4-.9-3.4-.9H31.8Z"/>
    <path class="st2" d="M31.8,27c-.8,0-1.6.4-2.2,1l-11.8,13c-.5.6-.9,1.4-.9,2.2l9.1,24.7c1.1,3-4.7,24.2-3,25.2s9.3-4.2,9.3-4.2l57.2,2.3c.8,0,3.8-1.7,4.4-2.3l14.6-2.5c.5-.6.9-1.4.9-2.2v-49.6c0-3.2-2-5.8-3.8-6.7-1.8-.9-3.4-.9-3.4-.9H31.8Z"/>
    <path class="st11" d="M17.1,42.3c0,.3-.1.6-.1.9v49.6c0,3.2,2,5.8,3.8,6.7,1.8.9,3.4.9,3.4.9h70.4c.8,0,1.6-.4,2.2-1l11.8-13c.3-.3.5-.7.7-1.2L17.1,42.3Z"/>
    <path class="st4" d="M17.1,42.3c0,.3-.1.6-.1.9v1.7c0-.3,0-.6.1-.9l91.3,42.5h.1c.3-.5.5-.9.7-1.3L17.1,42.3Z"/>
    <path class="st5" d="M58.3,45.3l-11,40h6.9l2.4-10h13.3l2.4,10h6.9l-11-40h-9.9ZM63.2,52.3l4.8,16.4h-9.6l4.8-16.4Z"/>
    <path class="st10" d="M58.3,43.6l-11,40h6.9l2.4-10h13.3l2.4,10h6.9l-11-40h-9.9ZM63.2,50.6l4.8,16.4h-9.6l4.8-16.4Z"/>
    <path class="st6" d="M31.8,27c-.8,0-1.6.4-2.2,1l-11.8,13c-.5.6-.9,1.4-.9,2.2l.2.5c.1-.4.4-.8.7-1.1l11.8-13c.6-.6,1.4-1,2.2-1h70.4s1.7,0,3.4.9c1.8.9,3.8,3.4,3.8,6.7v-1.7c0-3.2-2-5.8-3.8-6.7-1.8-.9-3.4-.9-3.4-.9H31.8Z"/>
  </g>
  <g class="st9">
    <ellipse class="st5" cx="64.1" cy="65.3" rx="37.9" ry="38"/>
    <ellipse class="st0" cx="64.1" cy="63.9" rx="37.9" ry="38"/>
    <ellipse class="st5" cx="66.8" cy="62.5" rx="29.8" ry="29.9"/>
    <ellipse class="st10" cx="66.8" cy="61.2" rx="29.8" ry="29.9"/>
    <path class="st1" d="M58.7,43.5v35.3l29.8-17.7-29.8-17.7Z"/>
    <path class="st8" d="M64.1,25.9c-20.9,0-37.9,17-37.9,38,0,.2,0,.4,0,.7.4-20.7,17.2-37.3,37.8-37.3,20.5,0,37.3,16.4,37.8,37,0-.1,0-.2,0-.3,0-21-17-38-37.9-38Z"/>
  </g>
  <g class="st9">
    <path class="st12" d="M56.2,25.9c-.8,0-1.6.7-1.7,1.5l-1.6,8.1c-3,1.1-5.7,2.7-8.2,4.6l-8.1-2.7c-.8-.3-1.9,0-2.3.8l-7.8,13.2c-.4.8-.3,1.8.4,2.4l6.5,5.5c-.2,1.5-.4,3-.4,4.5s.1,3,.4,4.5l-6.5,5.5c-.7.6-.9,1.6-.4,2.4l7.8,13.2c.5.7,1.5,1.1,2.3.8l8.1-2.7c2.4,1.9,5.2,3.5,8.2,4.6l1.6,8.1c.2.9,1,1.5,1.9,1.5h15.6c.9,0,1.7-.7,1.9-1.5l1.6-8.1c3-1.1,5.7-2.7,8.2-4.6l8.1,2.7c.8.3,1.9,0,2.3-.8l7.8-13.2c.4-.8.3-1.8-.4-2.4l-6.5-5.5c.2-1.5.4-3,.4-4.5s-.1-3-.4-4.5l6.5-5.5c.7-.6.9-1.6.4-2.4l-7.8-13.2c-.5-.7-1.5-1.1-2.3-.8l-8.1,2.7c-2.4-1.9-5.2-3.5-8.2-4.6l-1.6-8.1c-.2-.9-1-1.5-1.9-1.5h-15.6c0,0-.1,0-.2,0h0Z"/>
    <path class="st6" d="M56.2,25.9h0c-.8,0-1.6.8-1.7,1.5l-1.6,8.1c-3,1.1-5.7,2.7-8.2,4.6l-8.1-2.7c-.8-.3-1.9,0-2.3.8l-7.8,13.2c-.3.5-.3,1.1,0,1.6,0,0,0-.2,0-.2l7.8-13.2c.5-.7,1.5-1.1,2.3-.8l8.1,2.7c2.4-1.9,5.2-3.4,8.2-4.6l1.6-8.1c.2-.8.9-1.5,1.7-1.5h0c0,0,.1,0,.2,0h15.6c.9,0,1.7.7,1.9,1.5l1.6,8.1c3,1.1,5.7,2.7,8.2,4.6l8.1-2.7c.8-.3,1.9,0,2.3.8l7.8,13.2c0,0,0,.2,0,.2.2-.5.2-1.1,0-1.6l-7.8-13.2c-.5-.7-1.5-1.1-2.3-.8l-8.1,2.7c-2.4-1.9-5.2-3.5-8.2-4.6l-1.6-8.1c-.2-.9-1-1.5-1.9-1.5h-15.6c0,0-.1,0-.2,0ZM33.2,60.6c-.1,1.1-.2,2.2-.2,3.3s0,.5,0,.7c0-1.3.1-2.6.3-3.8h-.1ZM95.1,60.6h-.1c.2,1.4.3,2.7.3,4,0-.2,0-.4,0-.7,0-1.1,0-2.2-.2-3.3ZM95.1,68.5c0,.4,0,.8-.1,1.2l6.5,5.5c.2.2.4.5.5.8.3-.7,0-1.6-.5-2.1l-6.3-5.4ZM33.2,68.5l-6.3,5.4c-.6.5-.8,1.4-.5,2.1.1-.3.3-.6.5-.8l6.5-5.5c0-.4-.1-.8-.1-1.2Z"/>
    <path class="st5" d="M102,53.1c-.1.3-.3.6-.5.8l-6.5,5.5c0,.4,0,.8.1,1.2l6.3-5.4c.6-.5.8-1.4.5-2.1h0ZM26.3,53.1c-.3.7,0,1.6.5,2.1l6.3,5.4c0-.4,0-.8.1-1.2l-6.5-5.5c-.2-.2-.4-.5-.5-.8h0ZM33,64.6c0,.2,0,.4,0,.7,0,1.1,0,2.2.2,3.3h.1c-.2-1.4-.3-2.7-.3-4h0ZM95.3,64.6c0,1.3-.1,2.6-.3,3.8h.1c.1-1,.2-2,.2-3.2s0-.5,0-.7ZM26.3,76.1c-.2.5-.2,1.1,0,1.6l7.8,13.2c.5.7,1.5,1.1,2.3.8l8.1-2.7c2.4,1.9,5.2,3.5,8.2,4.6l1.6,8.1c.2.9,1,1.5,1.9,1.5h15.6c.9,0,1.7-.7,1.9-1.5l1.6-8.1c3-1.1,5.7-2.7,8.2-4.6l8.1,2.7c.8.3,1.9,0,2.3-.8l7.8-13.2c.3-.5.3-1.1,0-1.6,0,0,0,.2,0,.2l-7.8,13.2c-.5.7-1.5,1.1-2.3.8l-8.1-2.7c-2.4,1.9-5.2,3.4-8.2,4.6l-1.6,8.1c-.2.9-1,1.5-1.9,1.5h-15.6c-.9,0-1.7-.7-1.9-1.5l-1.6-8.1c-3-1.1-5.7-2.7-8.2-4.6l-8.1,2.7c-.8.3-1.9,0-2.3-.8l-7.8-13.2c0,0,0-.2,0-.2h0Z"/>
    <path class="st5" d="M75.3,47.6v8.2h-5.6v4.1h5.6v11.2c0,7.7,2.8,10.6,7.8,10.6h6.1v-5.4h-5.5c-2.7,0-2.8-1.8-2.8-5.7v-10.6h8.4v-4.1h-8.4v-8.2h-5.6ZM53.1,46.3c-11.1,0-14,6.1-14,17.6s2.9,17.7,14,17.7h3.2l4.6,7.7,5.3-1.9-4.3-7.7c4.1-1.9,5.1-8.1,5.1-15.8,0-11.5-2.8-17.6-13.9-17.6ZM53,51.7c6.7,0,8.3,4.8,8.3,12.6,0,7.9-1.5,11.8-8.3,11.8s-8.4-3.9-8.4-11.8,1.6-12.6,8.4-12.6Z"/>
    <path class="st10" d="M75.3,46.2v8.2h-5.6v4.1h5.6v11.2c0,7.7,2.8,10.6,7.8,10.6h6.1v-5.4h-5.5c-2.7,0-2.8-1.8-2.8-5.7v-10.6h8.4v-4.1h-8.4v-8.2h-5.6ZM53.1,44.9c-11.1,0-14,6.1-14,17.6s2.9,17.7,14,17.7h3.2l4.6,7.7,5.3-1.9-4.3-7.7c4.1-1.9,5.1-8.1,5.1-15.8,0-11.5-2.8-17.6-13.9-17.6ZM53,50.3c6.7,0,8.3,4.8,8.3,12.6,0,7.9-1.5,11.8-8.3,11.8s-8.4-3.9-8.4-11.8,1.6-12.6,8.4-12.6Z"/>
  </g>
  <g class="st9">
    <path class="st5" d="M35.2,27.5c-.8,0-1.5.4-2.1,1l-10.9,13.1c-.3.4-.5.9-.6,1.4h0c0,.3-.1.6-.1.9v49.9c0,3.3,1.9,5.8,3.5,6.7s3.2.9,3.2.9h65.3c.8,0,1.5-.4,2.1-1l10.9-13.1s0,0,0-.1c.2-.3.4-.6.5-1,0,0,0,0,0,0h0c.1-.3.2-.7.2-1.1v-49.9c0-3.3-1.9-5.8-3.5-6.7-1.6-.9-3.2-.9-3.2-.9H35.2Z"/>
    <path class="st2" d="M35.2,25.9c-.8,0-1.5.4-2.1,1l-10.9,13.1c-.5.6-.8,1.4-.8,2.3l8.4,24.9c1,3.1-4.4,24.4-2.8,25.3s8.7-4.2,8.7-4.2l53.1,2.3c.8,0,3.5-1.7,4.1-2.3l13.5-2.5c.5-.6.8-1.4.8-2.3v-49.9c0-3.3-1.9-5.8-3.5-6.7-1.6-.9-3.2-.9-3.2-.9H35.2Z"/>
    <path class="st11" d="M21.6,41.3c0,.3-.1.6-.1.9v49.9c0,3.3,1.9,5.8,3.5,6.7,1.6.9,3.2.9,3.2.9h65.3c.8,0,1.5-.4,2.1-1l10.9-13.1c.3-.3.5-.7.6-1.2L21.6,41.3Z"/>
    <path class="st4" d="M21.6,41.3c0,.3-.1.6-.1.9v1.7c0-.3,0-.6.1-.9l84.8,42.8h.1c.3-.5.5-.9.6-1.3L21.6,41.3Z"/>
    <path class="st5" d="M83.1,44.3c-7.1,0-12.9,6.5-12.9,14.6v11.2c0,8.1,5.7,14.6,12.9,14.6h2c2.1,0,4.1-.6,5.9-1.6v-5.1h-7.8c-3.9,0-6.9-3.4-6.9-7.8v-11.2c0-4.5,3-7.8,6.9-7.8h7.8v-5.1c-1.8-1-3.7-1.6-5.9-1.6h-2ZM50.1,44.4c-6.8,0-12.4,6.5-12.4,14.5v11.1c0,8,5.5,14.5,12.4,14.5h1.9c.5,0,1.1,0,1.6-.1l3.9,6.9,4.9-2.8-3.4-6.5c3.2-2.6,5.4-7,5.4-11.9v-11.1c0-8-5.5-14.5-12.4-14.5h-1.9ZM50.1,51.1h1.8c3.7,0,6.5,3.4,6.5,7.8v11.2c0,4.5-2.8,7.8-6.5,7.8h-1.8c-3.7,0-6.5-3.4-6.5-7.8v-11.2c0-4.5,2.8-7.8,6.5-7.8h0Z"/>
    <path class="st10" d="M83.1,42.6c-7.1,0-12.9,6.5-12.9,14.6v11.2c0,8.1,5.7,14.6,12.9,14.6h2c2.1,0,4.1-.6,5.9-1.6v-5.1h-7.8c-3.9,0-6.9-3.4-6.9-7.8v-11.2c0-4.5,3-7.8,6.9-7.8h7.8v-5.1c-1.8-1-3.7-1.6-5.9-1.6h-2ZM50.1,42.7c-6.8,0-12.4,6.5-12.4,14.5v11.1c0,8,5.5,14.5,12.4,14.5h1.9c.5,0,1.1,0,1.6-.1l3.9,6.9,4.9-2.8-3.4-6.5c3.2-2.6,5.4-7,5.4-11.9v-11.1c0-8-5.5-14.5-12.4-14.5h-1.9ZM50.1,49.4h1.8c3.7,0,6.5,3.4,6.5,7.8v11.2c0,4.5-2.8,7.8-6.5,7.8h-1.8c-3.7,0-6.5-3.4-6.5-7.8v-11.2c0-4.5,2.8-7.8,6.5-7.8Z"/>
    <path class="st6" d="M35.2,25.9c-.8,0-1.5.4-2.1,1l-10.9,13.1c-.3.4-.5.9-.6,1.4h0c0,.3-.1.6-.1.9v1.7c0-.3,0-.6.1-.9h0c.1-.5.3-1,.6-1.3l10.9-13.1c.5-.6,1.3-1,2.1-1h65.3s1.5,0,3.2.9c1.6.9,3.5,3.5,3.5,6.7v-1.7c0-3.3-1.9-5.8-3.5-6.7-1.6-.9-3.2-.9-3.2-.9H35.2Z"/>
  </g>
  <g class="st9">
    <path class="st5" d="M33.2,27.5c-.8,0-1.6.4-2.2,1l-11.7,13.1c-.3.4-.5.9-.7,1.4h0c0,.3-.1.6-.1.9v50c0,3.3,2,5.8,3.7,6.8s3.4.9,3.4.9h69.7c.8,0,1.6-.4,2.2-1l11.7-13.1s0,0,0-.1c.2-.3.4-.7.6-1,0,0,0,0,0,0h0c.1-.3.2-.7.2-1.1v-50c0-3.3-2-5.8-3.7-6.7-1.7-.9-3.4-.9-3.4-.9H33.2Z"/>
    <path class="st2" d="M33.2,25.9c-.8,0-1.6.4-2.2,1l-11.7,13.1c-.5.6-.8,1.4-.8,2.3l9,24.9c1.1,3.1-4.7,24.5-3,25.4s9.2-4.2,9.2-4.2l56.7,2.3c.8,0,3.8-1.7,4.4-2.3l14.4-2.5c.5-.6.8-1.4.8-2.3v-50.1c0-3.3-2-5.8-3.7-6.7-1.7-.9-3.4-.9-3.4-.9H33.2Z"/>
    <path class="st11" d="M18.7,41.3c0,.3-.1.6-.1.9v50c0,3.3,2,5.8,3.7,6.8,1.7.9,3.4.9,3.4.9h69.7c.8,0,1.6-.4,2.2-1l11.7-13.1c.3-.3.5-.7.7-1.2L18.7,41.3Z"/>
    <path class="st4" d="M18.7,41.3c0,.3-.1.6-.1.9v1.7c0-.3,0-.6.1-.9l90.5,42.9h.1c.3-.5.5-.9.7-1.3L18.7,41.3Z"/>
    <path class="st6" d="M33.2,25.9c-.8,0-1.6.4-2.2,1l-11.7,13.1c-.3.4-.5.9-.7,1.4h0c0,.3-.1.6-.1.9v1.7c0-.3,0-.6.1-.9h0c.1-.5.3-1,.7-1.3l11.7-13.1c.6-.6,1.4-1,2.2-1h69.7s1.7,0,3.4.9c1.7.9,3.7,3.5,3.7,6.7v-1.7c0-3.3-2-5.8-3.7-6.7-1.7-.9-3.4-.9-3.4-.9H33.2Z"/>
    <path class="st5" d="M35.9,44.4v40.4h15.2c7.3,0,13.2-6.5,13.2-14.6v-11.2c0-8.1-5.9-14.6-13.2-14.6h-15.2ZM64.3,44.4l12,40.4h6.6l12-40.4h-6.6l-8.7,29.2-8.7-29.2h-6.6ZM42.2,51.1h8.9c4,0,6.9,3.4,6.9,7.9v11.2c0,4.5-2.8,7.9-6.9,7.9h-8.9v-26.9Z"/>
    <path class="st10" d="M35.9,42.7v40.4h15.2c7.3,0,13.2-6.5,13.2-14.6v-11.2c0-8.1-5.9-14.6-13.2-14.6h-15.2ZM64.3,42.7l12,40.4h6.6l12-40.4h-6.6l-8.7,29.2-8.7-29.2h-6.6ZM42.2,49.4h8.9c4,0,6.9,3.4,6.9,7.9v11.2c0,4.5-2.8,7.9-6.9,7.9h-8.9v-26.9Z"/>
  </g>
  <g>
    <path class="st5" d="M32.1,27.5c-.8,0-1.6.4-2.2,1l-11.7,13.1c-.3.4-.6.9-.7,1.4h0c0,.3-.1.6-.1.9v50.2c0,3.3,2,5.8,3.7,6.8s3.4.9,3.4.9h70c.8,0,1.6-.4,2.2-1l11.7-13.1s0,0,0-.1c.2-.3.4-.7.6-1,0,0,0,0,0,0h0c.1-.3.2-.7.2-1.1v-50.2c0-3.3-2-5.8-3.7-6.8-1.8-.9-3.4-.9-3.4-.9H32.1Z"/>
    <path class="st2" d="M32.1,25.9c-.8,0-1.6.4-2.2,1l-11.7,13.1c-.5.6-.8,1.4-.8,2.3l9,25c1.1,3.1-4.7,24.5-3,25.5s9.3-4.2,9.3-4.2l56.9,2.3c.8,0,3.8-1.7,4.4-2.3l14.5-2.5c.5-.6.8-1.4.8-2.3v-50.2c0-3.3-2-5.8-3.7-6.8-1.8-.9-3.4-.9-3.4-.9H32.1Z"/>
    <path class="st11" d="M17.5,41.3c0,.3-.1.6-.1.9v50.2c0,3.3,2,5.8,3.7,6.8,1.8.9,3.4.9,3.4.9h70c.8,0,1.6-.4,2.2-1l11.7-13.1c.3-.3.5-.8.7-1.2L17.5,41.3Z"/>
    <path class="st4" d="M17.5,41.3c0,.3-.1.6-.1.9v1.7c0-.3,0-.6.1-.9l90.8,43h.1c.3-.5.5-.9.7-1.3L17.5,41.3Z"/>
    <path class="st5" d="M49,44.4v40.5h15.3c7.3,0,13.2-6.5,13.2-14.6v-11.2c0-8.1-5.9-14.6-13.2-14.6h-15.3ZM55.4,51.2h8.9c4.1,0,6.9,3.4,6.9,7.9v11.2c0,4.5-2.8,7.9-6.9,7.9h-8.9v-27Z"/>
    <path class="st10" d="M49,42.7v40.5h15.3c7.3,0,13.2-6.5,13.2-14.6v-11.2c0-8.1-5.9-14.6-13.2-14.6h-15.3ZM55.4,49.5h8.9c4.1,0,6.9,3.4,6.9,7.9v11.2c0,4.5-2.8,7.9-6.9,7.9h-8.9v-27Z"/>
    <path class="st6" d="M32.1,25.9c-.8,0-1.6.4-2.2,1l-11.7,13.1c-.3.4-.6.9-.7,1.4h0c0,.3-.1.6-.1.9v1.7c0-.3,0-.6.1-.9h0c.1-.5.3-1,.7-1.4l11.7-13.1c.6-.6,1.4-1,2.2-1h70s1.7,0,3.4.9c1.8.9,3.7,3.5,3.7,6.8v-1.7c0-3.3-2-5.8-3.7-6.8-1.8-.9-3.4-.9-3.4-.9H32.1Z"/>
  </g>
</svg>