<?xml version="1.0" encoding="UTF-8"?>
<svg id="_图层_1" xmlns="http://www.w3.org/2000/svg" version="1.1" viewBox="0 0 64 64" width="64" height="64">
  <!-- Generator: Adobe Illustrator 29.0.1, SVG Export Plug-In . SVG Version: 2.1.0 Build 192)  -->
  <defs>
    <style>
      .st0 {
        fill: #00bc00;
      }

      .st1 {
        fill: #fd6447;
      }

      .st2 {
        fill: #009200;
      }

      .st3, .st4, .st5, .st6, .st7, .st8, .st9 {
        display: none;
      }

      .st3, .st10, .st11, .st9 {
        opacity: .2;
      }

      .st3, .st10, .st11, .st9, .st12 {
        isolation: isolate;
      }

      .st13, .st4 {
        fill: #e81e62;
      }

      .st5 {
        fill: #1d99f3;
      }

      .st14, .st11, .st9, .st12 {
        fill: #fff;
      }

      .st6 {
        fill: #00e600;
      }

      .st15 {
        fill: #66d5ff;
      }

      .st16 {
        fill: #ffbb32;
      }

      .st7 {
        fill: #0286c2;
      }

      .st17 {
        fill: #f06392;
      }

      .st18 {
        fill: #f6a5c0;
      }

      .st19 {
        fill: #005e76;
      }

      .st12 {
        opacity: .1;
      }
    </style>
  </defs>
  <path class="st13" d="M50.5,64H13.9c-7.6,0-13.9-6.2-13.9-13.7V13.7C0,6.2,6.3,0,13.8,0h36.6c7.5,0,13.7,6.2,13.7,13.7v36.6c0,7.5-6.2,13.7-13.7,13.7h.1Z"/>
  <g class="st8">
    <path class="st7" d="M32,0h0c17.7,0,32,14.3,32,31.9h0c0,17.6-14.3,31.9-32,31.9h0C14.3,63.9,0,49.6,0,31.9h0C0,14.3,14.3,0,32,0Z"/>
    <path class="st3" d="M0,32.7c0,.1,0,.3,0,.4,0,17.7,14.3,31.9,32,31.9s32-14.2,32-31.9,0-.3,0-.4c-.4,17.3-14.5,31.2-32,31.2S.4,50,0,32.7Z"/>
    <path class="st9" d="M32,0C14.3,0,0,14.2,0,31.9s0,.3,0,.4C.4,15,14.5,1.1,32,1.1s31.6,13.8,32,31.2c0-.1,0-.3,0-.4C64,14.2,49.7,0,32,0Z"/>
    <path class="st10" d="M32,14.8c-10.1,0-18.3,8.2-18.3,18.2h0c0,10.1,8.2,18.2,18.3,18.2h0c4.2,0,8.3-1.4,11.5-4.1-1.7,1.2-3.7,1.8-5.8,1.8-5.7,0-10.3-4.6-10.3-10.3s4.6-10.3,10.3-10.3,10.3,4.6,10.3,10.3c0,2-.6,4-1.7,5.6,2.6-3.2,4-7.2,4-11.4,0-10.1-8.2-18.2-18.3-18.2h0Z"/>
    <path class="st14" d="M32,13.7c-10.1,0-18.3,8.2-18.3,18.2,0,10.1,8.2,18.2,18.3,18.2h0c4.2,0,8.3-1.4,11.5-4.1-1.7,1.2-3.7,1.8-5.8,1.8-5.7,0-10.3-4.6-10.3-10.3s4.6-10.3,10.3-10.3h0c5.7,0,10.3,4.6,10.3,10.3h0c0,2-.6,4-1.7,5.6,2.6-3.2,4-7.2,4-11.4,0-10.1-8.2-18.2-18.3-18.2h0Z"/>
  </g>
  <g class="st8">
    <path class="st3" d="M31.9,1.1C14.3,1.1,0,15.3,0,32.8s14.3,31.7,31.9,31.7h28.7c1.8,0,3.2-1.4,3.2-3.2v-28.5C63.7,15.3,49.5,1.1,31.9,1.1Z"/>
    <path class="st5" d="M31.9,0C14.3,0,0,14.2,0,31.7s14.3,31.7,31.9,31.7h28.7c1.8,0,3.2-1.4,3.2-3.2v-28.5C63.7,14.2,49.5,0,31.9,0Z"/>
    <path class="st10" d="M33.3,9.9h0c-7.2-.4-14.5,2.8-19.2,9-2.4,3.2-3.8,6.9-4.3,10.6l2.9-.4,5.5-.8,4.6-3.5-9.4,1.4c.6-1.9,1.6-3.8,2.9-5.6,5.1-6.8,13.7-9.4,21.3-7.1l2.7-2c-2.3-.9-4.7-1.4-7.1-1.5h0ZM44.7,14.2h0s-.9,2.8-.9,2.8l-1.5,4.6.9,6.5,2.9-9.2c1.5,1.4,2.8,3.1,3.8,5,4.2,8.1,2.2,17.6-4.2,23.4h0c0,.1,0,.2-.1.2l7.1,8.2,2.2-1.9-5.5-6.3c5.9-6.7,7.4-16.5,3-24.9-1.9-3.6-4.6-6.4-7.7-8.5h0ZM9.4,36.1c1.4,10,9.4,18.2,20,19.2,4,.4,7.9-.3,11.4-1.8l-1.9-2.3h0s-3.7-4.4-3.7-4.4l-5.5-2.3,6.3,7.6c-2,.5-4.1.6-6.3.4-8.7-.9-15.4-7.1-17.2-15.2l-3.1-1.3Z"/>
    <path class="st14" d="M33.3,8.8h0c-7.2-.4-14.5,2.8-19.2,9-2.4,3.2-3.8,6.9-4.3,10.6l2.9-.4,5.5-.8,4.6-3.5-9.4,1.4c.6-1.9,1.6-3.8,2.9-5.6,5.1-6.8,13.7-9.4,21.3-7.1l2.7-2c-2.3-.9-4.7-1.4-7.1-1.5h0ZM44.7,13.1h0s-.9,2.8-.9,2.8l-1.5,4.6.9,6.5,2.9-9.2c1.5,1.4,2.8,3.1,3.8,5,4.2,8.1,2.2,17.6-4.2,23.4h0c0,.1,0,.2-.1.2l7.1,8.2,2.2-1.9-5.5-6.3c5.9-6.7,7.4-16.5,3-24.9-1.9-3.6-4.6-6.4-7.7-8.5h0ZM9.4,35c1.4,10,9.4,18.2,20,19.2,4,.4,7.9-.3,11.4-1.8l-1.9-2.3h0s-3.7-4.4-3.7-4.4l-5.5-2.3,6.3,7.6c-2,.5-4.1.6-6.3.4-8.7-.9-15.4-7.1-17.2-15.2l-3.1-1.3Z"/>
    <path class="st9" d="M31.9,0C14.3,0,0,14.2,0,31.7c0,.1,0,.3,0,.4C.4,14.9,14.5,1.1,31.9,1.1c17.6,0,31.9,14.2,31.9,31.7v-1.1C63.7,14.2,49.5,0,31.9,0Z"/>
  </g>
  <g class="st8">
    <g>
      <path class="st6" d="M32.2,0c-1.5,0-3,.3-4.2,1L4.1,13.3C1.5,14.5,0,16.9,0,19.5v24.6c0,2.6,1.5,5,4.1,6.3l23.9,12.3c1.3.7,2.7,1,4.2,1,1.4,0,1.1-1.4,2.3-2l23.7-12.1c2.5-1.3,4.6-2.5,4.6-5.1v-24.5c0-.9,1.1-2.2.8-3-.6-1.5-1.9-2.9-3.5-3.7L36,1c-1.2-.6-2.5-.9-3.9-1h0Z"/>
      <path class="st0" d="M.6,16.7C.2,17.6,0,18.6,0,19.5v28.5c.1,15.3,11.4,16,15.4,16h12.7c2.9,0,2.5,0,3.9,0v-31.9L.6,16.7Z"/>
      <path class="st2" d="M63.3,16.7l-31.4,15.4v31.9c1.4,0,2.5-.1,4,0h14.5c9.5,0,13.6-7.3,13.5-15.1v-29.4c0-1-.2-1.9-.6-2.8Z"/>
      <path class="st3" d="M0,42.9s0,0,0,0H0C0,42.9,0,42.9,0,42.9ZM0,44.1v1.1c0,2.6,1.5,5,4.1,6.3l23.9,12.3c2.5,1.3,5.6,1.3,8.1,0l23.9-12.3c2.5-1.3,4.1-3.7,4.1-6.3v-1.1c0,2.6-1.5,5-4.1,6.3l-23.9,12.3c-2.5,1.3-5.6,1.3-8.1,0l-23.9-12.3C1.5,49,0,46.7,0,44.1Z"/>
      <path class="st11" d="M.6,16.7C.2,17.6,0,18.6,0,19.5v1.1c0-1,.2-1.9.6-2.8l31.3,15.4v-1.1L.6,16.7Z"/>
      <path class="st12" d="M63.3,16.7l-31.4,15.4v1.1l31.4-15.4c.4.9.6,1.8.6,2.8v-1.1c0-1-.2-1.9-.6-2.8Z"/>
    </g>
    <path class="st10" d="M27.1,13.6l-23.4,1.1,2.5,28.4,7.4-1.1,3.7,11.4,11.1-4.5-6.2-6.8,6.2-1.1-1.2-27.3ZM33.2,13.6l1.2,38.6h18.5l4.9-11.4-4.9-8,3.7-9.1-4.9-10.2h-18.5ZM12.3,21.6h7.4v11.4h-7.4v-11.4ZM41.8,21.6h6.2v9.1h-6.2v-9.1ZM41.8,36.3h6.2v8h-6.2v-8Z"/>
    <path class="st16" d="M27.1,12.5l-23.4,1.1,2.5,28.4,7.4-1.1,3.7,11.4,11.1-4.5-6.2-6.8,6.2-1.1-1.2-27.3ZM33.2,12.5l1.2,38.6h18.5l4.9-11.4-4.9-8,3.7-9.1-4.9-10.2h-18.5ZM12.3,20.4h7.4v11.4h-7.4v-11.4ZM41.8,20.4h6.2v9.1h-6.2v-9.1ZM41.8,35.2h6.2v8h-6.2v-8Z"/>
    <path class="st1" d="M28,32.6l-22.1,6.5.2,2.9,7.4-1.1,3.7,11.4,11.1-4.5-6.2-6.8,6.2-1.1-.3-7.1ZM54.4,34.3l-6.5,2.7v6.2h-6.2v-3.5l-7.6,3.2.3,8.3h18.5l4.9-11.4-3.4-5.5Z"/>
    <path class="st11" d="M27.1,12.5l-23.4,1.1v1.1c0,0,23.4-1.1,23.4-1.1l1.2,26.1h0s-1.2-27.3-1.2-27.3ZM33.2,12.5v1.1h18.5l4.7,9.7.2-.6-4.9-10.2h-18.5ZM41.8,29.5v1.1h6.2v-1.1h-6.2ZM12.3,31.8v1.1h7.4v-1.1h-7.4ZM53.2,32.3l-.3.7,4.6,7.5.3-.7-4.6-7.5ZM23,41.9l-.9.2,5.4,6,.7-.3-5.3-5.8ZM41.8,43.2v1.1h6.2v-1.1h-6.2Z"/>
    <path class="st12" d="M28,32.6l-22.1,6.5v1.1c0,0,22.1-6.5,22.1-6.5l.3,6h0s-.3-7.1-.3-7.1ZM54.4,34.3l-6.5,2.7v1.1l6.5-2.7,3.1,5,.3-.7-3.4-5.5ZM41.8,39.6l-7.6,3.2v1.1s7.6-3.2,7.6-3.2v-1.1ZM23,41.9l-.9.2,5.4,6,.7-.3-5.3-5.8ZM41.8,43.2v1.1h6.2v-1.1h-6.2Z"/>
  </g>
  <g class="st8">
    <ellipse class="st19" cx="31.5" cy="29.6" rx="22.3" ry="22.7"/>
    <path class="st3" d="M31.8,4c-8.2,0-14.7,2.5-19.5,7.5-4.8,5-7.1,11.1-7.1,19.4s2.4,14.9,7.2,19.9c4.9,5,11.3,7.4,19.2,7.4s9.6-1.1,13.7-3.2c4.2,3,7.6,4.8,11.4,6l2.2-4.5c-3.1-1.1-5.6-2.8-8.9-4.9,5.6-5.1,8.9-12,8.9-20.8s-2.8-14.7-7.5-19.5c-4.7-4.9-11.2-7.3-19.5-7.3ZM32,11c5.9,0,10.5,1.7,13.9,5.5,3.4,3.7,5.2,8.2,5.2,14.4s-2.4,12.6-6.9,16.4c-2.8-2.1-6.2-3.8-10.3-4.9l-1.8,4.6c2.3.5,4.7,1.8,7.1,3.1-1.8.8-4.2.9-7.3.9-6,0-10.6-1.5-14-5.2-3.3-3.7-5.2-8.7-5.2-15s1.9-10.9,5.2-14.6c3.4-3.6,8-5.3,13.9-5.3Z"/>
    <path class="st15" d="M31.8,3c-8.2,0-14.7,2.5-19.5,7.5-4.8,5-7.1,11.1-7.1,19.4s2.4,14.9,7.2,19.9c4.9,5,11.3,7.4,19.2,7.4s9.6-1.1,13.7-3.2c4.2,3,7.6,4.8,11.4,6l2.2-4.5c-3.1-1.1-5.6-2.8-8.9-4.9,5.6-5.1,8.9-12,8.9-20.8s-2.8-14.7-7.5-19.5c-4.7-4.9-11.2-7.3-19.5-7.3ZM32,10c5.9,0,10.5,1.7,13.9,5.5,3.4,3.7,5.2,8.2,5.2,14.4s-2.4,12.6-6.9,16.4c-2.8-2.1-6.2-3.8-10.3-4.9l-1.8,4.6c2.3.5,4.7,1.8,7.1,3.1-1.8.8-4.2.9-7.3.9-6,0-10.6-1.5-14-5.2-3.3-3.7-5.2-8.7-5.2-15s1.9-10.9,5.2-14.6c3.4-3.6,8-5.3,13.9-5.3Z"/>
    <path class="st10" d="M31.5,22.7c-1.6,0-2.8.3-3.5.8-.7.5-1.3,1.5-1.7,2.8l-3.2-.4c.8-3.9,3.8-5.9,8.9-5.9s4.8.5,5.9,1.5c1.2,1,1.8,2.9,1.8,5.7v8.4c0,1.4.3,2.7,1,3.9h-3.5c-.3-.7-.5-1.5-.6-2.4-2.3,1.9-4.7,2.8-7.3,2.8s-3.6-.5-4.9-1.4c-1.3-1-1.9-2.3-1.9-4s1-3.5,2.9-4.7c.8-.5,2.6-1,5.3-1.3,2.7-.4,4.6-.8,5.7-1.1v-.8c0-2.6-1.6-3.9-4.7-3.9ZM30,37.4c4.1,0,6.2-2.1,6.2-6.2v-1.1c-.8.3-2.2.7-4.2,1-1.9.3-3.5.7-4.6,1.1-1.1.5-1.6,1.2-1.6,2.3,0,1.9,1.4,2.9,4.2,2.9Z"/>
    <path class="st15" d="M31.5,21.7c-1.6,0-2.8.3-3.5.8-.7.5-1.3,1.5-1.7,2.8l-3.2-.4c.8-3.9,3.8-5.9,8.9-5.9s4.8.5,5.9,1.5c1.2,1,1.8,2.9,1.8,5.7v8.4c0,1.4.3,2.7,1,3.9h-3.5c-.3-.7-.5-1.5-.6-2.4-2.3,1.9-4.7,2.8-7.3,2.8s-3.6-.5-4.9-1.4c-1.3-1-1.9-2.3-1.9-4s1-3.5,2.9-4.7c.8-.5,2.6-1,5.3-1.3,2.7-.4,4.6-.8,5.7-1.1v-.8c0-2.6-1.6-3.9-4.7-3.9ZM30,36.4c4.1,0,6.2-2.1,6.2-6.2v-1.1c-.8.3-2.2.7-4.2,1-1.9.3-3.5.7-4.6,1.1-1.1.5-1.6,1.2-1.6,2.3,0,1.9,1.4,2.9,4.2,2.9Z"/>
    <path class="st11" d="M31.9,19c-5.1,0-8,2-8.9,5.9h.3c1.1-3.2,4-4.9,8.6-4.9s4.8.5,5.9,1.5c1.2,1,1.8,2.9,1.8,5.7v-1c0-2.8-.6-4.7-1.8-5.7-1.1-1-3.1-1.5-5.9-1.5ZM36.1,26.4c-1.1.4-2.9.7-5.5,1.1-2.7.4-4.4.8-5.3,1.3-1.9,1.2-2.9,2.8-2.9,4.7s0,.4,0,.5c.1-1.8,1.1-3.2,2.8-4.3.8-.5,2.6-1,5.3-1.3,2.6-.4,4.4-.8,5.5-1.1,0,.3.1.6.1,1,0,0,0,0,0,0v-.8c0-.4,0-.8-.1-1.2ZM36.2,31.1s0,0,0,0c-.3,3.5-2.3,5.3-6.1,5.3s-3.6-.6-4-1.9c-.1.3-.2.6-.2.9s0,.4,0,.5c0-.2,0-.3.1-.5.5,1.2,1.8,1.9,4,1.9,3.8,0,5.8-1.8,6.1-5.3,0,0,0,0,0,0v-1ZM39.6,34.7v1c0,1,.2,2,.6,2.9h.5c-.7-1.3-1-2.6-1-3.9Z"/>
    <path class="st9" d="M31.8,3c-8.2,0-14.7,2.5-19.5,7.5-4.8,5-7.1,11.1-7.1,19.4s0,.3,0,.5c0-8,2.5-14,7.1-18.9,4.8-5,11.3-7.5,19.5-7.5s14.8,2.5,19.5,7.3c4.6,4.8,7.4,10.8,7.5,19,0-.2,0-.3,0-.5,0-8.5-2.8-14.7-7.5-19.5-4.7-4.9-11.2-7.3-19.5-7.3ZM12.9,30.4c0,.2,0,.3,0,.5,0,6.3,1.8,11.3,5.2,15,3.4,3.7,8,5.2,14,5.2s5.5-.1,7.3-.9c-.4-.2-.7-.4-1.1-.6-1.6.5-3.7.5-6.2.5-6,0-10.6-1.5-14-5.2-3.2-3.6-5.1-8.5-5.1-14.5ZM51.1,30.5c-.1,6.8-2.5,12.1-6.8,15.8-2.8-2.1-6.2-3.8-10.3-4.9l-1.8,4.6c.1,0,.2,0,.4,0l1.5-3.7c4,1.1,7.5,2.8,10.3,4.9,4.4-3.9,6.9-9.3,6.9-16.4s0-.2,0-.4ZM50.5,51.1c-.2.2-.4.4-.6.6,3.1,2,5.6,3.6,8.5,4.7l.4-.8c-2.9-1.1-5.3-2.6-8.3-4.5Z"/>
  </g>
  <g>
    <ellipse class="st3" cx="32" cy="33" rx="32" ry="31.9"/>
    <ellipse class="st4" cx="32" cy="31.9" rx="32" ry="31.9"/>
    <path class="st10" d="M37.6,9.1c0,0-.2,0-.3.1-.2.1-.5.1-.9,0-.4,0-.6,0-.9.2-.3.2-.4.2-.6.1-.6-.3-.6,0-.2,1,.3.7.2.9-.1.6-.2-.2-.3-.2-.6,0-.4.3-1,1-1.7,2.1-.3.4-.9,1.2-1.4,1.7-.9.8-.9,1-2.3,3.7-.8,1.6-1.6,3.4-1.9,4.1-.5,1.5-.9,3.4-.9,4.4s-.1,1.4-.2,2.1c-.5,2.4-.4,2.8,1,4.6,3.1,4.1,7,11.7,9.6,19,.3.8.6,1.5.7,1.6,0,0,.2.3.2.5,0,.4.2,1.8.3,1.9.2.3.3-.1.3-.9h0c0-.4,0-1.7.2-2.8.3-3.5.2-5.5-.4-10.3-.5-3.4-.6-4.8-.6-6.6,0-4.4.6-6.7,2.2-8.2.9-.9,1.9-1.3,3.9-1.8,2.1-.5,4-.9,5-1.2,1.5-.4,3.2-.3,5.4.4,2.3.8,3.3,1,4,1s.7,0,.7-.1c.1-.2-.9-1.1-1.7-1.5-.7-.3-1.6-.7-4.2-1.7-.6-.2-1.4-.6-1.9-.8-.5-.2-2.3-1-4.1-1.7-3.5-1.4-3.7-1.5-3.6-1.6,0,0,1.5.4,3.3,1,3.3,1.1,7.5,2.6,9.2,3.5.5.3,1.1.5,1.3.5.6.1,1.4.8,2.1,1.6.4.4.8,1,.9,1.1l.3.3v-.5c0-1.6-1.5-3-5.6-5.3-1.8-1-2.4-1.7-2.6-3.1-.2-1.5-1.4-3.4-2.8-4.5-1.1-.9-5.9-3.3-6.5-3.3s-.2,0-.4.2c-.2.2-.3.2-.6-.2-1-1.2-.8-1.1-2-1.1s-1.1,0-1.3-.2c0-.1-.2-.2-.2-.2ZM15.7,10.2c-.4,0-.8.5-.8,1.1,0,.6.4,1.1.8,1.1h11.9c.2-.4.4-.7.6-1,.2-.3.9-1.5.8-1.3,0,0,0,0,0,0h-13.4ZM45.2,15.4c.1,0,.2,0,.4,0,1.3.2,2.8,1.8,2.2,2.5-.2.3-.9.4-1.5.1-.4-.1-.8-.4-1.2-.8-.5-.6-.6-.7-.6-1.1s.2-.7.7-.7ZM8.8,18.2c-.4,0-.8.5-.8,1.1s.4,1.1.8,1.1h14.1c.2-.7.5-1.5.7-2.3h-14.8ZM5.4,26.2c-.4,0-.8.5-.8,1.1,0,.6.4,1.1.8,1.1h15.5c0-.7.1-1.9.1-1.4,0-.3,0-.6,0-.9H5.4ZM5.4,34.2c-.4,0-.8.5-.8,1.1,0,.6.4,1.1.8,1.1h16.9c-.3-.7-.7-1.4-1-2.3H5.4ZM8.8,42.1c-.4,0-.8.5-.8,1.1s.4,1.1.8,1.1h18.5c-.3-.8-.6-1.5-.8-2.3H8.8ZM12.2,50.1c-.4,0-.8.5-.8,1.1s.4,1.1.8,1.1h18.9c-.2-.8-.4-1.5-.7-2.3H12.2Z"/>
    <path class="st14" d="M37.6,8c0,0-.2,0-.3.1-.2.1-.5.1-.9,0-.4,0-.6,0-.9.2-.3.2-.4.2-.6.1-.6-.3-.6,0-.2,1,.3.7.2.9-.1.6-.2-.2-.3-.2-.6,0-.4.3-1,1-1.7,2.1-.3.4-.9,1.2-1.4,1.7-.9.8-.9,1-2.3,3.7-.8,1.6-1.6,3.4-1.9,4.1-.5,1.5-.9,3.4-.9,4.4s-.1,1.4-.2,2.1c-.5,2.4-.4,2.8,1,4.6,3.1,4.1,7,11.7,9.6,19,.3.8.6,1.5.7,1.6,0,0,.2.3.2.5,0,.4.2,1.8.3,1.9.2.3.3-.1.3-.9h0c0-.4,0-1.7.2-2.8.3-3.5.2-5.5-.4-10.3-.5-3.4-.6-4.8-.6-6.6,0-4.4.6-6.7,2.2-8.2.9-.9,1.9-1.3,3.9-1.8,2.1-.5,4-.9,5-1.2,1.5-.4,3.2-.3,5.4.4,2.3.8,3.3,1,4,1s.7,0,.7-.1c.1-.2-.9-1.1-1.7-1.5-.7-.3-1.6-.7-4.2-1.7-.6-.2-1.4-.6-1.9-.8-.5-.2-2.3-1-4.1-1.7-3.5-1.4-3.7-1.5-3.6-1.6,0,0,1.5.4,3.3,1,3.3,1.1,7.5,2.6,9.2,3.5.5.3,1.1.5,1.3.5.6.1,1.4.8,2.1,1.6.4.4.8,1,.9,1.1l.3.3v-.5c0-1.6-1.5-3-5.6-5.3-1.8-1-2.4-1.7-2.6-3.1-.2-1.5-1.4-3.4-2.8-4.5-1.1-.9-5.9-3.3-6.5-3.3s-.2,0-.4.2c-.2.2-.3.2-.6-.2-1-1.2-.8-1.1-2-1.1s-1.1,0-1.3-.2c0-.1-.2-.2-.2-.2ZM15.7,9.1c-.4,0-.8.5-.8,1.1,0,.6.4,1.1.8,1.1h11.9c.2-.4.4-.7.6-1,.2-.3.9-1.5.8-1.3,0,0,0,0,0,0h-13.4ZM45.2,14.2c.1,0,.2,0,.4,0,1.3.2,2.8,1.8,2.2,2.5-.2.3-.9.4-1.5.1-.4-.1-.8-.4-1.2-.8-.5-.6-.6-.7-.6-1.1s.2-.7.7-.7ZM8.8,17.1c-.4,0-.8.5-.8,1.1s.4,1.1.8,1.1h14.1c.2-.7.5-1.5.7-2.3h-14.8ZM5.4,33c-.4,0-.8.5-.8,1.1,0,.6.4,1.1.8,1.1h16.9c-.3-.7-.7-1.4-1-2.3H5.4ZM12.2,49c-.4,0-.8.5-.8,1.1s.4,1.1.8,1.1h18.9c-.2-.8-.4-1.5-.7-2.3H12.2Z"/>
    <path class="st18" d="M8.8,41c-.4,0-.8.5-.8,1.1s.4,1.1.8,1.1h18.5c-.3-.8-.6-1.5-.8-2.3H8.8Z"/>
    <path class="st17" d="M5.4,25.1c-.4,0-.8.5-.8,1.1s.4,1.1.8,1.1h15.5c0-.7.1-1.9.1-1.4,0-.3,0-.6,0-.9H5.4Z"/>
    <path class="st9" d="M32,0C14.3,0,0,14.3,0,31.9c0,.2,0,.4,0,.6C.4,15.1,14.6,1.2,32,1.1c17.3,0,31.5,13.8,32,31,0,0,0-.2,0-.3C64,14.3,49.7,0,32,0Z"/>
  </g>
</svg>