<?xml version="1.0" encoding="UTF-8"?>
<svg id="_图层_1" xmlns="http://www.w3.org/2000/svg" version="1.1" viewBox="0 0 64 64" width="64" height="64">
  <!-- Generator: Adobe Illustrator 29.0.1, SVG Export Plug-In . SVG Version: 2.1.0 Build 192)  -->
  <defs>
    <style>
      .st0 {
        fill: #21d789;
      }

      .st1 {
        stroke: #fff;
      }

      .st1, .st2 {
        fill: none;
        stroke-linecap: round;
        stroke-width: 4px;
      }

      .st3 {
        fill: #f7c73c;
      }

      .st4, .st5, .st6, .st2, .st7, .st8 {
        isolation: isolate;
      }

      .st4, .st9, .st10, .st8 {
        display: none;
      }

      .st4, .st6, .st2, .st7, .st8 {
        opacity: .2;
      }

      .st11 {
        fill: #3f3f3f;
      }

      .st12 {
        fill: #fe4b71;
      }

      .st13, .st7, .st8 {
        fill: #fff;
      }

      .st14 {
        fill: #3989da;
      }

      .st15 {
        fill: #20aa73;
      }

      .st5 {
        opacity: .1;
      }

      .st9 {
        fill: #0071ff;
      }

      .st16 {
        fill: #a2e36e;
      }

      .st2 {
        stroke: #000;
      }
    </style>
  </defs>
  <path class="st9" d="M50.4,64H13.8c-7.6,0-13.8-6.2-13.8-13.7V13.7C0,6.2,6.2,0,13.7,0h36.5c7.5,0,13.7,6.2,13.7,13.7v36.6c0,7.5-6.2,13.7-13.7,13.7h.1Z"/>
  <g class="st10">
    <g>
      <circle class="st13" cx="32.1" cy="31.5" r="26.1"/>
      <polygon class="st5" points="19.1 22.1 26 26.7 19.1 31.3 19.1 38.3 36.5 26.7 19.1 15.1 19.1 22.1"/>
      <polygon class="st15" points="36.5 25.7 19.1 14.1 19.1 21.1 26 25.7 19.1 30.3 19.1 37.3 36.5 25.7"/>
      <polygon class="st5" points="45.1 49.9 45.1 42.9 38.3 38.3 45.1 33.7 45.1 26.7 27.7 38.3 45.1 49.9"/>
      <polygon class="st14" points="45.1 25.7 27.7 37.3 45.1 48.9 45.1 41.9 38.3 37.3 45.1 32.7 45.1 25.7"/>
      <path class="st6" d="M57.5,18.5l-4.9,3.2c1.8,3.3,2.7,7,2.7,10.8,0,12.8-10.4,23.2-23.2,23.2h0c-6.9,0-13.5-3.1-17.9-8.4l-4.9,3.2c5.3,6.7,13.5,11,22.7,11,16,0,29-13,29-29s-1.3-9.8-3.6-14Z"/>
      <path class="st15" d="M57.5,17.5l-4.9,3.2c1.8,3.3,2.7,7,2.7,10.8,0,12.8-10.4,23.2-23.2,23.2h0c-6.9,0-13.5-3.1-17.9-8.4l-4.9,3.2c5.3,6.7,13.5,11,22.7,11,16,0,29-13,29-29s-1.3-9.8-3.6-14Z"/>
      <path class="st6" d="M32.1,3.5C16.2,3.5,3.1,16.5,3.1,32.5s1.1,9.2,3.1,13.1l4.9-3.3c-1.5-3.1-2.2-6.4-2.2-9.9,0-12.8,10.4-23.2,23.2-23.2,6.6,0,12.8,2.8,17.2,7.7l4.9-3.3c-5.3-6.3-13.2-10.2-22.1-10.2Z"/>
      <path class="st14" d="M32.1,2.5C16.2,2.5,3.1,15.5,3.1,31.5s1.1,9.2,3.1,13.1l4.9-3.3c-1.5-3.1-2.2-6.4-2.2-9.9,0-12.8,10.4-23.2,23.2-23.2,6.6,0,12.8,2.8,17.2,7.7l4.9-3.3c-5.3-6.3-13.2-10.2-22.1-10.2Z"/>
      <path class="st7" d="M32.1,2.5C16.2,2.5,3.1,15.5,3.1,31.5s0,.3,0,.5c.3-15.7,13.2-28.5,29-28.5s16.2,3.7,21.5,9.6l.6-.4c-5.3-6.3-13.2-10.2-22.1-10.2ZM9,32.2c0,.1,0,.2,0,.3,0,3.1.7,6.2,1.9,9.1l.3-.2c-1.4-2.9-2.1-6-2.2-9.2Z"/>
    </g>
  </g>
  <g class="st10">
    <path class="st4" d="M9.6,1.7h44.7c5.3,0,9.6,4.2,9.6,9.5v44.2c0,5.2-4.3,9.5-9.6,9.5H9.6c-5.3,0-9.6-4.2-9.6-9.5V11.2C0,5.9,4.3,1.7,9.6,1.7Z"/>
    <path class="st9" d="M9.6.6h44.7c5.3,0,9.6,4.2,9.6,9.5v44.2c0,5.2-4.3,9.5-9.6,9.5H9.6c-5.3,0-9.6-4.2-9.6-9.5V10C0,4.8,4.3.6,9.6.6Z"/>
    <path class="st6" d="M28.5,10.7c0,0-.1,0-.2,0,0,0-1.1.2-1.7.4-9.1,2.3-16.3,10-17.4,20.6,0,.5,0,1,0,1.5,0,.5,0,1,0,1.5,1.2,10.6,8.3,18.3,17.4,20.6.6.1,1.7.4,1.7.4.1,0,.3,0,.4,0,.8,0,1-.6,1-1.7v-5.6s0-.7-1.2-1c-6.6-1.6-11.3-7.4-11.4-14.2,0-6.8,4.8-12.7,11.4-14.2,1.2-.3,1.2-1,1.2-1v-5.6c0-1-.3-1.6-1-1.7,0,0-.1,0-.2,0ZM35.4,10.7c0,0-.1,0-.2,0-.8,0-1,.6-1,1.7v5.6s0,.7,1.2,1c6.6,1.6,11.3,7.4,11.4,14.2,0,6.8-4.8,12.7-11.4,14.2-1.2.3-1.2,1-1.2,1v5.6c0,1,.3,1.6,1,1.7.1,0,.2,0,.4,0,0,0,1.1-.2,1.7-.4,9.1-2.3,16.3-10,17.4-20.6,0-.5,0-1,0-1.5,0-.5,0-1,0-1.5-1.2-10.6-8.3-18.3-17.4-20.6-.6-.1-1.7-.4-1.7-.4,0,0-.1,0-.2,0Z"/>
    <path class="st13" d="M28.5,9.6c0,0-.1,0-.2,0,0,0-1.1.2-1.7.4-9.1,2.3-16.3,10-17.4,20.6,0,.5,0,1,0,1.5,0,.5,0,1,0,1.5,1.2,10.6,8.3,18.3,17.4,20.6.6.1,1.7.4,1.7.4.1,0,.3,0,.4,0,.8,0,1-.6,1-1.7v-5.6s0-.7-1.2-1c-6.6-1.6-11.3-7.4-11.4-14.2,0-6.8,4.8-12.7,11.4-14.2,1.2-.3,1.2-1,1.2-1v-5.6c0-1-.3-1.6-1-1.7,0,0-.1,0-.2,0ZM35.4,9.6c0,0-.1,0-.2,0-.8,0-1,.6-1,1.7v5.6s0,.7,1.2,1c6.6,1.6,11.3,7.4,11.4,14.2,0,6.8-4.8,12.7-11.4,14.2-1.2.3-1.2,1-1.2,1v5.6c0,1,.3,1.6,1,1.7.1,0,.2,0,.4,0,0,0,1.1-.2,1.7-.4,9.1-2.3,16.3-10,17.4-20.6,0-.5,0-1,0-1.5,0-.5,0-1,0-1.5-1.2-10.6-8.3-18.3-17.4-20.6-.6-.1-1.7-.4-1.7-.4,0,0-.1,0-.2,0Z"/>
    <path class="st8" d="M9.6.6C4.3.6,0,4.8,0,10v1.1C0,5.9,4.3,1.7,9.6,1.7h44.7c5.3,0,9.6,4.2,9.6,9.5v-1.1c0-5.2-4.3-9.5-9.6-9.5H9.6Z"/>
  </g>
  <g>
    <path class="st4" d="M3,1.1h58c1.6,0,3,1.3,3,3v58c0,1.6-1.3,3-3,3H3c-1.6,0-3-1.3-3-3V4.1C0,2.5,1.3,1.1,3,1.1Z"/>
    <path class="st12" d="M32,0H13.9C6.2,0,0,6.2,0,13.9v18.1h32V0Z"/>
    <path class="st0" d="M32,0h18c7.7,0,13.9,6.2,13.9,13.9v18h-32V0Z"/>
    <path class="st3" d="M32,63.9H13.6c-7.5,0-13.6-6.1-13.6-13.6v-18.3h32v32Z"/>
    <path class="st16" d="M32,63.9h18.3c7.5,0,13.6-6.1,13.6-13.6v-18.3h-32v32Z"/>
    <rect class="st11" x="9.1" y="9.1" width="45.7" height="45.7"/>
    <path class="st2" d="M16,49.1h18.3"/>
    <path class="st1" d="M16,48h18.3"/>
    <path class="st2" d="M25.1,35.4l-4.6-6.9M16,26.3s9.1,1.1,9.1-4.6-9.1-4.6-9.1-4.6M16,35.4v-18.3"/>
    <path class="st1" d="M25.1,34.3l-4.6-6.9M16,25.1s9.1,1.1,9.1-4.6-9.1-4.6-9.1-4.6M16,34.3V16"/>
    <path class="st8" d="M3,0C1.3,0,0,1.3,0,3v1.1C0,2.5,1.3,1.1,3,1.1h58c1.6,0,3,1.3,3,3v-1.1c0-1.6-1.3-3-3-3H3Z"/>
    <path class="st2" d="M43.4,35.4l-4.6-6.9M34.3,26.3s9.1,1.1,9.1-4.6-9.1-4.6-9.1-4.6M34.3,35.4v-18.3"/>
    <path class="st1" d="M43.4,34.3l-4.6-6.9M34.3,25.1s9.1,1.1,9.1-4.6-9.1-4.6-9.1-4.6M34.3,34.3V16"/>
  </g>
</svg>