<?xml version="1.0" encoding="UTF-8"?>
<svg id="_图层_1" xmlns="http://www.w3.org/2000/svg" version="1.1" viewBox="0 0 64 64" width="64" height="64">
  <!-- Generator: Adobe Illustrator 29.0.1, SVG Export Plug-In . SVG Version: 2.1.0 Build 192)  -->
  <defs>
    <style>
      .st0, .st1, .st2, .st3, .st4 {
        isolation: isolate;
      }

      .st0, .st1, .st5, .st6, .st7, .st4 {
        display: none;
      }

      .st0, .st2, .st3, .st4 {
        opacity: .2;
      }

      .st1 {
        opacity: .1;
      }

      .st1, .st8, .st9, .st4 {
        fill: #fff;
      }

      .st2, .st9 {
        fill-rule: evenodd;
      }

      .st5 {
        fill: #c061cb;
      }

      .st10, .st6 {
        fill: #66b744;
      }
    </style>
  </defs>
  <path class="st10" d="M50.4,64H13.8c-7.6,0-13.8-6.2-13.8-13.7V13.7C0,6.2,6.2,0,13.7,0h36.6c7.5,0,13.7,6.2,13.7,13.7v36.6c0,7.5-6.2,13.7-13.7,13.7h.1Z"/>
  <g class="st7">
    <ellipse class="st0" cx="32" cy="33.2" rx="32" ry="32.1"/>
    <ellipse class="st5" cx="32" cy="32.1" rx="32" ry="32.1"/>
    <path class="st3" d="M26.1,17.2c-2.9.5-5.8,1.4-8.4,2.7,0,0,0,0,0,0-5.3,8.2-6.8,16.1-6.1,24,0,0,0,0,0,0,3.5,2.6,6.9,4.3,10.3,5.3,0,0,.1,0,.1,0,.8-1.1,1.5-2,2.1-3.2,0,0,0-.2,0-.2-1.1-.4-2.2-1-3.2-1.6,0,0,0-.2,0-.2.2-.2.4-.3.6-.5,0,0,0,0,.1,0,6.7,3.1,14,3.1,20.7,0,0,0,0,0,.1,0,.2.2.4.3.6.5,0,0,0,.2,0,.2-1,.6-2.1,1.1-3.2,1.6,0,0-.1.1,0,.2.6,1.2,1.3,2.1,2.1,3.2,0,0,0,0,.1,0,3.4-1.1,6.8-2.7,10.3-5.3,0,0,0,0,0,0,.9-9.1-1.4-17-6.1-24,0,0,0,0,0,0-2.6-1.2-5.4-2.1-8.4-2.7,0,0-.1,0-.1,0-.4.7-.8.7-1,1.4-3.2-.5-6.3-.5-9.4,0-.3-.7-.7-.8-1.1-1.4,0,0,0,0-.1,0ZM24.5,32.1c2.2,0,4,1.8,4,4,0,2.2-1.8,4-4,4s-4-1.8-4-4,1.8-4,4-4ZM39.4,32.1c2.2,0,4,1.8,4,4,0,2.2-1.8,4-4,4s-4-1.8-4-4,1.8-4,4-4Z"/>
    <path class="st8" d="M26.1,16.1c-2.9.5-5.8,1.4-8.4,2.7,0,0,0,0,0,0-5.3,8.2-6.8,16.1-6.1,24,0,0,0,0,0,0,3.5,2.6,6.9,4.3,10.3,5.3,0,0,.1,0,.1,0,.8-1.1,1.5-2,2.1-3.2,0,0,0-.2,0-.2-1.1-.4-2.2-1-3.2-1.6,0,0,0-.2,0-.2.2-.2.4-.3.6-.5,0,0,0,0,.1,0,6.7,3.1,14,3.1,20.7,0,0,0,0,0,.1,0,.2.2.4.3.6.5,0,0,0,.2,0,.2-1,.6-2.1,1.1-3.2,1.6,0,0-.1.1,0,.2.6,1.2,1.3,2.1,2.1,3.2,0,0,0,0,.1,0,3.4-1.1,6.8-2.7,10.3-5.3,0,0,0,0,0,0,.9-9.1-1.4-17-6.1-24,0,0,0,0,0,0-2.6-1.2-5.4-2.1-8.4-2.7,0,0-.1,0-.1,0-.4.7-.8.7-1,1.4-3.2-.5-6.3-.5-9.4,0-.3-.7-.7-.8-1.1-1.4,0,0,0,0-.1,0ZM24.5,31c2.2,0,4,1.8,4,4,0,2.2-1.8,4-4,4s-4-1.8-4-4,1.8-4,4-4ZM39.4,31c2.2,0,4,1.8,4,4,0,2.2-1.8,4-4,4s-4-1.8-4-4,1.8-4,4-4Z"/>
    <path class="st1" d="M32,0C14.3,0,0,14.4,0,32.1c0,.2,0,.4,0,.6C.3,15.2,14.5,1.1,32,1.1c17.5,0,31.7,14,32,31.5,0-.2,0-.4,0-.6C64,14.4,49.7,0,32,0Z"/>
  </g>
  <g>
    <path class="st0" d="M62.3,29.5L35.2,3c-1.9-1.8-4.9-1.8-6.8,0L1.4,29.5c-1.9,1.8-1.9,4.8,0,6.6l27.1,26.5c1.9,1.8,4.9,1.8,6.8,0l27.1-26.5c1.9-1.8,1.9-4.8,0-6.6Z"/>
    <path class="st6" d="M62.3,28.4L35.2,1.9c-1.9-1.8-4.9-1.8-6.8,0L1.4,28.4c-1.9,1.8-1.9,4.8,0,6.6l27.1,26.5c1.9,1.8,4.9,1.8,6.8,0l27.1-26.5c1.9-1.8,1.9-4.8,0-6.6Z"/>
    <path class="st4" d="M31.9.5c-1.2,0-2.4.5-3.4,1.4L1.4,28.4c-1.1,1.1-1.5,2.5-1.4,3.9.1-1,.6-2,1.4-2.7L28.5,3c.9-.9,2.2-1.4,3.4-1.4s2.4.5,3.4,1.4l27.1,26.5c.8.8,1.2,1.7,1.4,2.7.2-1.4-.3-2.8-1.4-3.9L35.2,1.9c-.9-.9-2.2-1.4-3.4-1.4Z"/>
    <path class="st2" d="M31.9,9.4c-5.8,0-10.5,1.3-13.9,3.9,0,0-.1.1-.2.2l-2,1.9c-2,2.4-3,5.4-2.7,8.3.6,7.6,8.4,13.6,18.8,13.6s9.6,3.6,9.8,5.4c0,.9-.1,1.6-1.4,2.6-1.3,1-3.9,2-8.4,2s-13.7-3.9-13.7-3.9c-2.2-1.2-5-.5-6.2,1.6-.2.3-.3.7-.4,1l7.9,7.8c3.3,1.2,7.7,2.4,12.4,2.4s10.4-1.3,13.8-3.7l2.7-2.6c1.8-2.3,2.7-5.2,2.4-7.9-.6-7.6-8.4-13.6-18.9-13.6s-9.6-3.5-9.7-5.4c0-.9.1-1.7,1.4-2.7,1.3-1,3.9-2,8.3-2,6.2,0,13.7,3.9,13.7,3.9,2.2,1.2,5,.5,6.2-1.6.2-.3.3-.7.4-1l-7.9-7.8c-3.3-1.2-7.7-2.4-12.4-2.4Z"/>
    <path class="st9" d="M31.9,8.3c-5.8,0-10.5,1.3-13.9,3.9,0,0-.1.1-.2.2l-2,1.9c-2,2.4-3,5.4-2.7,8.3.6,7.6,8.4,13.6,18.8,13.6s9.6,3.6,9.8,5.4c0,.9-.1,1.6-1.4,2.6-1.3,1-3.9,2-8.4,2s-13.7-3.9-13.7-3.9c-2.2-1.2-5-.5-6.2,1.6-.2.3-.3.7-.4,1l7.9,7.8c3.3,1.2,7.7,2.4,12.4,2.4s10.4-1.3,13.8-3.7l2.7-2.6c1.8-2.3,2.7-5.2,2.4-7.9-.6-7.6-8.4-13.6-18.9-13.6s-9.6-3.5-9.7-5.4c0-.9.1-1.7,1.4-2.7,1.3-1,3.9-2,8.3-2,6.2,0,13.7,3.9,13.7,3.9,2.2,1.2,5,.5,6.2-1.6.2-.3.3-.7.4-1l-7.9-7.8c-3.3-1.2-7.7-2.4-12.4-2.4Z"/>
  </g>
</svg>