<?xml version="1.0" encoding="UTF-8" standalone="no"?>
<svg
   id="_图层_1"
   version="1.1"
   viewBox="0 0 64 64" width="64" height="64"
   sodipodi:docname="solarus-quest-editor.svg"
   xml:space="preserve"
   inkscape:version="1.4 (e7c3feb100, 2024-10-09)"
   xmlns:inkscape="http://www.inkscape.org/namespaces/inkscape"
   xmlns:sodipodi="http://sodipodi.sourceforge.net/DTD/sodipodi-0.dtd"
   xmlns:xlink="http://www.w3.org/1999/xlink"
   xmlns="http://www.w3.org/2000/svg"
   xmlns:svg="http://www.w3.org/2000/svg"><sodipodi:namedview
     id="namedview26"
     pagecolor="#505050"
     bordercolor="#eeeeee"
     borderopacity="1"
     inkscape:showpageshadow="0"
     inkscape:pageopacity="0"
     inkscape:pagecheckerboard="0"
     inkscape:deskcolor="#505050"
     inkscape:zoom="10.6875"
     inkscape:cx="32"
     inkscape:cy="32"
     inkscape:window-width="1920"
     inkscape:window-height="939"
     inkscape:window-x="0"
     inkscape:window-y="34"
     inkscape:window-maximized="1"
     inkscape:current-layer="_图层_1" /><!-- Generator: Adobe Illustrator 29.0.1, SVG Export Plug-In . SVG Version: 2.1.0 Build 192)  --><defs
     id="defs6"><style
       id="style1">
      .st0 {
        fill-opacity: .5;
      }

      .st0, .st1, .st2, .st3, .st4, .st5, .st6, .st7 {
        fill: #fff;
      }

      .st8 {
        fill: #133c9a;
      }

      .st2, .st9 {
        display: none;
      }

      .st3 {
        fill-opacity: .2;
      }

      .st4 {
        fill-opacity: .9;
      }

      .st10 {
        fill: #3370ff;
      }

      .st11 {
        fill: url(#_未命名的渐变_3);
      }

      .st12 {
        fill: url(#_未命名的渐变);
      }

      .st5 {
        fill-opacity: .3;
      }

      .st6 {
        fill-opacity: 0;
      }

      .st7 {
        fill-opacity: .7;
      }

      .st13 {
        fill: #00d6b9;
      }

      .st14 {
        fill: url(#_未命名的渐变_2);
      }
    </style><radialGradient
       id="_未命名的渐变"
       data-name="未命名的渐变"
       cx="123.9"
       cy="-40.2"
       fx="123.9"
       fy="-40.2"
       r="59.4"
       gradientTransform="translate(-26.8 25.5) scale(.6 -.7)"
       gradientUnits="userSpaceOnUse"><stop
         offset="0"
         stop-color="#db202e"
         id="stop1" /><stop
         offset="1"
         stop-color="#e01b24"
         id="stop2" /></radialGradient><radialGradient
       id="_未命名的渐变_2"
       data-name="未命名的渐变 2"
       cx="67.6"
       cy="26.8"
       fx="67.6"
       fy="26.8"
       r="105.2"
       gradientTransform="translate(-26.6 25.3) scale(.6 -.7)"
       gradientUnits="userSpaceOnUse"><stop
         offset="0"
         stop-color="#ffb648"
         id="stop3" /><stop
         offset="1"
         stop-color="#ff7800"
         stop-opacity="0"
         id="stop4" /></radialGradient><radialGradient
       id="_未命名的渐变_3"
       data-name="未命名的渐变 3"
       cx="61.7"
       cy="18.6"
       fx="61.7"
       fy="18.6"
       r="68"
       gradientTransform="translate(-26.8 25.8) scale(.6 -.7)"
       gradientUnits="userSpaceOnUse"><stop
         offset="0"
         stop-color="#c64600"
         id="stop5" /><stop
         offset="1"
         stop-color="#a51d2d"
         id="stop6" /></radialGradient><linearGradient
       id="linearGradient1261"><stop
         style="stop-color:#4f4f4f"
         offset="0"
         id="stop1-7" /><stop
         style="stop-color:#3f3f3f"
         offset="1"
         id="stop2-0" /></linearGradient><linearGradient
       id="linearGradient1263"
       x1="34.241"
       x2="37.169"
       y1="38.945"
       y2="30.342"
       gradientTransform="matrix(1.3919157,0,0,1.3888889,-1.321022,-0.4865665)"
       gradientUnits="userSpaceOnUse"
       xlink:href="#linearGradient1261" /></defs><path
     class="st1"
     d="M47.5,64.1H13.8c-7.6,0-13.8-6.3-13.8-13.8V13.7C0,6.2,6.2,0,13.7,0h36.6c7.5,0,13.7,6.2,13.7,13.7v36.6c0,7.5-6.2,13.7-13.7,13.7h-2.9.1Z"
     id="path6"
     style="fill:#ffa800;fill-opacity:1" /><g
     id="g26"
     transform="matrix(1.337232,0,0,1.2068329,-10.744639,-4.6957525)"><path
       style="opacity:0.1;fill:none;stroke:#000000;stroke-width:6;stroke-linecap:round;stroke-linejoin:round"
       d="m 23.424,21.800811 19.576,18.2"
       id="path3" /><path
       style="fill:none;stroke:#ffdc9c;stroke-width:6;stroke-linecap:round;stroke-linejoin:round"
       d="M 23.424,20.8 43,39"
       id="path4" /><path
       style="opacity:0.1"
       d="m 24.672124,42.568405 c 3.045938,-1.061974 7.716672,-4.939106 12.652882,-10.503032 2.819926,-3.178524 6.524832,-7.437102 7.217944,-8.720468 l 0.502604,-0.930626 -1.15233,-1.143086 c -0.965994,-0.958246 -1.250392,-1.118674 -1.758778,-0.9921 -0.924312,0.230126 -6.998376,5.55867 -10.539332,8.7901 -4.591614,4.190238 -6.960258,6.944076 -8.482238,9.861646 -1.048646,2.010206 -1.352286,3.235738 -0.927492,3.743482 0.385956,0.461318 0.92575,0.43833 2.48674,-0.10592 z"
       id="path5" /><path
       style="fill:#ffe6b8"
       d="m 24.672124,41.568406 c 3.045938,-1.061974 7.716672,-4.939106 12.652882,-10.503032 2.819926,-3.178524 6.524832,-7.437102 7.217944,-8.720468 l 0.502604,-0.930626 -1.15233,-1.143086 c -0.965994,-0.958246 -1.250392,-1.118672 -1.758778,-0.9921 -0.924312,0.230127 -6.998376,5.55867 -10.539332,8.7901 -4.591614,4.190238 -6.960258,6.944076 -8.482238,9.861646 -1.048646,2.010206 -1.352286,3.235738 -0.927492,3.743482 0.385956,0.461318 0.92575,0.43833 2.48674,-0.10592 z"
       id="path6-2" /><path
       style="opacity:0.1"
       d="m 46.651326,22.668855 c 0.983166,-0.397679 1.638678,-1.07606 2.597162,-2.687792 0.394974,-0.664162 1.175644,-1.613743 1.734822,-2.110176 L 52,16.968283 51.007106,16.568173 C 49.915818,16.128412 46.743872,15.843943 45.701316,16.092335 44.357492,16.412507 42,19.014754 42,20.177926 42,20.693534 44.697392,23 45.300396,23 c 0.29273,0 0.900646,-0.149012 1.35093,-0.331145 z"
       id="path7" /><path
       style="opacity:0.1"
       d="m 18.657628,29.898389 c 0.62089,-0.60588 1.128891,-1.218706 1.128891,-1.361846 0,-0.14312 -0.265449,-0.50731 -0.589887,-0.809274 -0.707994,-0.658956 -0.747243,-1.068954 -0.13349,-1.394376 0.739793,-0.39225 1.543542,-0.28085 2.470592,0.342428 0.478086,0.321424 0.949062,0.584412 1.046616,0.584412 0.09756,0 1.637994,-1.460402 3.423206,-3.245344 l 3.24583,-3.245344 -0.720198,-1.125098 c -0.883184,-1.37972 -0.907058,-2.022841 -0.0985,-2.652961 0.788342,-0.61436 1.275704,-0.611168 2.077402,0.01356 l 0.639156,0.498097 0.926372,-0.896191 C 32.583132,16.113551 33,15.595172 33,15.454502 c 0,-0.316616 -1.58547,-1.838313 -2.28505,-2.193139 -0.283458,-0.143732 -0.946776,-0.261365 -1.474038,-0.261365 -0.754522,0 -1.147208,0.167032 -1.844164,0.784446 -1.67734,1.485896 -2.556336,1.656871 -4.079426,0.793476 l -0.927856,-0.525973 -3.326285,3.292765 -3.326285,3.292773 0.609081,0.889204 c 0.67564,0.986374 0.777233,1.909368 0.283753,2.577978 -0.35066,0.47511 -0.309296,0.489954 -1.9446,-0.69791 -0.233208,-0.1694 -0.626694,0.07348 -1.500612,0.926276 C 12.533033,24.968771 12,25.596347 12,25.727655 c 0,0.306502 4.98893,5.272344 5.296861,5.272344 0.127526,0 0.739875,-0.495722 1.360765,-1.101604 z"
       id="path8" /><path
       style="fill:#ffffff"
       d="m 18.657628,28.89839 c 0.62089,-0.60588 1.128891,-1.218706 1.128891,-1.361846 0,-0.14312 -0.265449,-0.50731 -0.589887,-0.809274 -0.707994,-0.658956 -0.747243,-1.068954 -0.13349,-1.394376 0.739793,-0.39225 1.543542,-0.28085 2.470592,0.342428 0.478086,0.321424 0.949062,0.584412 1.046616,0.584412 0.09756,0 1.637994,-1.460402 3.423206,-3.245344 l 3.24583,-3.245344 -0.720198,-1.125098 c -0.883184,-1.379719 -0.907058,-2.02284 -0.0985,-2.65296 0.788342,-0.61436 1.275704,-0.611168 2.077402,0.01356 l 0.639156,0.498097 0.926372,-0.896191 C 32.583132,15.113553 33,14.595174 33,14.454504 33,14.137888 31.41453,12.61619 30.71495,12.261365 30.431492,12.117633 29.768174,12 29.240912,12 c -0.754522,0 -1.147208,0.167032 -1.844164,0.784446 -1.67734,1.485895 -2.556336,1.65687 -4.079426,0.793476 l -0.927856,-0.525973 -3.326285,3.292765 -3.326285,3.292772 0.609081,0.889204 c 0.67564,0.986374 0.777233,1.909368 0.283753,2.577978 -0.35066,0.47511 -0.309296,0.489954 -1.9446,-0.69791 -0.233208,-0.1694 -0.626694,0.07348 -1.500612,0.926276 C 12.533033,23.968772 12,24.596348 12,24.727656 12,25.034158 16.98893,30 17.296861,30 c 0.127526,0 0.739875,-0.495722 1.360765,-1.101604 z"
       id="path9" /><path
       style="fill:#ffffff"
       d="m 46.651326,21.668855 c 0.983166,-0.397679 1.638678,-1.07606 2.597162,-2.687791 0.394974,-0.664163 1.175644,-1.613744 1.734822,-2.110177 L 52,15.968283 51.007106,15.568173 C 49.915818,15.128412 46.743872,14.843943 45.701316,15.092335 44.357492,15.412507 42,18.014754 42,19.177926 42,19.693533 44.697392,22 45.300396,22 c 0.29273,0 0.900646,-0.149012 1.35093,-0.331145 z"
       id="path10" /></g></svg>
