<?xml version="1.0" encoding="UTF-8" standalone="no"?>
<svg
   id="_图层_1"
   version="1.1"
   viewBox="0 0 64 64" width="64" height="64"
   sodipodi:docname="solarus.svg"
   xml:space="preserve"
   inkscape:version="1.4 (e7c3feb100, 2024-10-09)"
   xmlns:inkscape="http://www.inkscape.org/namespaces/inkscape"
   xmlns:sodipodi="http://sodipodi.sourceforge.net/DTD/sodipodi-0.dtd"
   xmlns:xlink="http://www.w3.org/1999/xlink"
   xmlns="http://www.w3.org/2000/svg"
   xmlns:svg="http://www.w3.org/2000/svg"><sodipodi:namedview
     id="namedview26"
     pagecolor="#505050"
     bordercolor="#eeeeee"
     borderopacity="1"
     inkscape:showpageshadow="0"
     inkscape:pageopacity="0"
     inkscape:pagecheckerboard="0"
     inkscape:deskcolor="#505050"
     inkscape:zoom="10.6875"
     inkscape:cx="32"
     inkscape:cy="39.48538"
     inkscape:window-width="1920"
     inkscape:window-height="939"
     inkscape:window-x="0"
     inkscape:window-y="34"
     inkscape:window-maximized="1"
     inkscape:current-layer="_图层_1" /><!-- Generator: Adobe Illustrator 29.0.1, SVG Export Plug-In . SVG Version: 2.1.0 Build 192)  --><defs
     id="defs6"><style
       id="style1">
      .st0 {
        fill-opacity: .5;
      }

      .st0, .st1, .st2, .st3, .st4, .st5, .st6, .st7 {
        fill: #fff;
      }

      .st8 {
        fill: #133c9a;
      }

      .st2, .st9 {
        display: none;
      }

      .st3 {
        fill-opacity: .2;
      }

      .st4 {
        fill-opacity: .9;
      }

      .st10 {
        fill: #3370ff;
      }

      .st11 {
        fill: url(#_未命名的渐变_3);
      }

      .st12 {
        fill: url(#_未命名的渐变);
      }

      .st5 {
        fill-opacity: .3;
      }

      .st6 {
        fill-opacity: 0;
      }

      .st7 {
        fill-opacity: .7;
      }

      .st13 {
        fill: #00d6b9;
      }

      .st14 {
        fill: url(#_未命名的渐变_2);
      }
    </style><radialGradient
       id="_未命名的渐变"
       data-name="未命名的渐变"
       cx="123.9"
       cy="-40.2"
       fx="123.9"
       fy="-40.2"
       r="59.4"
       gradientTransform="translate(-26.8 25.5) scale(.6 -.7)"
       gradientUnits="userSpaceOnUse"><stop
         offset="0"
         stop-color="#db202e"
         id="stop1" /><stop
         offset="1"
         stop-color="#e01b24"
         id="stop2" /></radialGradient><radialGradient
       id="_未命名的渐变_2"
       data-name="未命名的渐变 2"
       cx="67.6"
       cy="26.8"
       fx="67.6"
       fy="26.8"
       r="105.2"
       gradientTransform="translate(-26.6 25.3) scale(.6 -.7)"
       gradientUnits="userSpaceOnUse"><stop
         offset="0"
         stop-color="#ffb648"
         id="stop3" /><stop
         offset="1"
         stop-color="#ff7800"
         stop-opacity="0"
         id="stop4" /></radialGradient><radialGradient
       id="_未命名的渐变_3"
       data-name="未命名的渐变 3"
       cx="61.7"
       cy="18.6"
       fx="61.7"
       fy="18.6"
       r="68"
       gradientTransform="translate(-26.8 25.8) scale(.6 -.7)"
       gradientUnits="userSpaceOnUse"><stop
         offset="0"
         stop-color="#c64600"
         id="stop5" /><stop
         offset="1"
         stop-color="#a51d2d"
         id="stop6" /></radialGradient><linearGradient
       id="linearGradient1261"><stop
         style="stop-color:#4f4f4f"
         offset="0"
         id="stop1-7" /><stop
         style="stop-color:#3f3f3f"
         offset="1"
         id="stop2-0" /></linearGradient><linearGradient
       id="linearGradient1263"
       x1="34.241"
       x2="37.169"
       y1="38.945"
       y2="30.342"
       gradientTransform="matrix(1.3919157,0,0,1.3888889,-1.321022,-0.4865665)"
       gradientUnits="userSpaceOnUse"
       xlink:href="#linearGradient1261" /></defs><path
     class="st1"
     d="M47.5,64.1H13.8c-7.6,0-13.8-6.3-13.8-13.8V13.7C0,6.2,6.2,0,13.7,0h36.6c7.5,0,13.7,6.2,13.7,13.7v36.6c0,7.5-6.2,13.7-13.7,13.7h-2.9.1Z"
     id="path6"
     style="fill:#ffa800;fill-opacity:1" /><g
     id="g26"
     transform="matrix(1.0623782,0,0,1.0975487,-2.3703716,-5.1205915)"><path
       style="opacity:0.2"
       d="m 48.59375,20.019534 c -1.202936,-0.02492 -2.417194,0.564208 -3.121094,1.78125 -0.401662,0.69447 -0.493908,1.122044 -0.410156,1.917968 l 0.10938,1.03125 -2.300782,2.273437 c -1.265426,1.251248 -2.604644,2.371094 -2.73047,2.371094 -0.12582,0 -0.63454,-0.1077 -1.375,-0.85547 -2.084509,-2.105104 -2.947027,-2.388022 -5.437499,-2.496094 -1.67245,-0.07258 -2.396886,0.0054 -3.67578,0.390626 -0.87621,0.264054 -1.59375,0.55287 -1.59375,0.64453 0,0.229194 3.461742,3.628908 3.695312,3.628908 0.1034,0 0.486886,-0.254796 0.85547,-0.5625 0.997288,-0.832586 1.999122,-0.752172 3.117186,0.25 0.496586,0.445118 0.902344,0.944132 0.902344,1.105468 0,0.434938 -1.541464,1.61371 -2.664062,2.039062 -0.803118,0.304304 -1.113932,0.327448 -1.710938,0.11328 -0.401146,-0.14396 -0.873012,-0.26172 -1.050782,-0.26172 -0.17776,0 -5.14731,4.048028 -11.039062,9.894532 -3.536902,3.509741 -8.44924,8.708763 -12.2148422,12.507811 A 2.5002499,2.4212933 0 0 0 8.9609396,56 H 24.175783 c 3.386678,-3.287292 7.408228,-7.484418 8.730468,-8.796876 6.338935,-6.292007 5.709601,-6.483773 5.449217,-7.050779 -0.558491,-1.216128 -0.231535,-2.472954 1.0625,-4.082032 0.322368,-0.400864 0.75046,-0.730446 0.953126,-0.730468 0.202668,0 0.734956,0.401844 1.183594,0.894532 1.04532,1.147974 1.07471,1.93208 0.10546,3.027342 l -0.714844,0.808594 1.78125,1.773438 c 0.978538,0.976598 1.905418,1.777344 2.058594,1.777344 0.401876,0 0.981842,-2.076572 1.128906,-4.039062 0.201778,-2.692712 -0.255568,-3.879534 -2.3125,-6.015626 -0.924882,-0.960478 -1.480468,-1.33372 -1.480468,-1.445312 0,-0.11156 1.655012,-1.751522 2.945312,-3.027344 1.999182,-1.976752 2.427372,-2.295044 2.890626,-2.179688 0.742002,0.18478 2.205508,-0.242874 2.847656,-0.828124 1.153866,-1.051635 1.513626,-2.848527 0.83203,-4.156249 -0.648916,-1.245004 -1.840032,-1.885242 -3.042968,-1.910156 z"
       id="path3" /><path
       style="fill:#ffffff"
       d="m 48.59375,19.019533 c -1.202936,-0.02492 -2.417194,0.56421 -3.121094,1.78125 -0.401662,0.694471 -0.493908,1.122045 -0.410156,1.917969 l 0.10938,1.03125 -2.300782,2.273438 c -1.265426,1.251247 -2.604644,2.371093 -2.73047,2.371093 -0.12582,0 -0.63454,-0.1077 -1.375,-0.85547 -2.084509,-2.105103 -2.947027,-2.388021 -5.437499,-2.496093 -1.67245,-0.07258 -2.396886,0.0054 -3.67578,0.390626 -0.87621,0.264054 -1.59375,0.55287 -1.59375,0.64453 0,0.229194 3.461742,3.628907 3.695312,3.628907 0.1034,0 0.486886,-0.254796 0.85547,-0.5625 0.997288,-0.832586 1.999122,-0.752172 3.117186,0.25 0.496586,0.445118 0.902344,0.944132 0.902344,1.105468 0,0.434938 -1.541464,1.61371 -2.664062,2.039062 -0.803118,0.304304 -1.113932,0.327448 -1.710938,0.11328 -0.401146,-0.14396 -0.873012,-0.26172 -1.050782,-0.26172 -0.17776,0 -5.14731,4.048028 -11.039062,9.894532 -3.536902,3.509742 -8.44924,8.708763 -12.2148422,12.507811 A 2.5002499,2.4212933 0 0 0 8.9609396,55 H 24.175783 c 3.386678,-3.287292 7.408228,-7.484418 8.730468,-8.796875 6.338935,-6.292008 5.709601,-6.483774 5.449217,-7.05078 -0.558491,-1.216128 -0.231535,-2.472954 1.0625,-4.082032 0.322368,-0.400864 0.75046,-0.730446 0.953126,-0.730468 0.202668,0 0.734956,0.401844 1.183594,0.894532 1.04532,1.147974 1.07471,1.93208 0.10546,3.027342 l -0.714844,0.808594 1.78125,1.773438 c 0.978538,0.976598 1.905418,1.777344 2.058594,1.777344 0.401876,0 0.981842,-2.076572 1.128906,-4.039062 0.201778,-2.692712 -0.255568,-3.879534 -2.3125,-6.015626 -0.924882,-0.960478 -1.480468,-1.33372 -1.480468,-1.445312 0,-0.11156 1.655012,-1.751522 2.945312,-3.027344 1.999182,-1.976751 2.427372,-2.295043 2.890626,-2.179687 0.742002,0.18478 2.205508,-0.242874 2.847656,-0.828124 1.153866,-1.051636 1.513626,-2.848528 0.83203,-4.156251 -0.648916,-1.245004 -1.840032,-1.885242 -3.042968,-1.910156 z"
       id="path4" /></g></svg>
