<?xml version="1.0" encoding="UTF-8"?>
<svg id="_图层_1" data-name="图层_1" xmlns="http://www.w3.org/2000/svg" version="1.1" viewBox="0 0 128 128" width="64" height="64">
  <!-- Generator: Adobe Illustrator 29.0.1, SVG Export Plug-In . SVG Version: 2.1.0 Build 192)  -->
  <defs>
    <style>
      .st0 {
        fill: #4f4f4f;
      }

      .st1, .st2, .st3, .st4, .st5, .st6 {
        isolation: isolate;
        opacity: .2;
      }

      .st1, .st7, .st8, .st3 {
        fill: none;
        stroke-linecap: round;
      }

      .st1, .st8 {
        stroke-width: 5px;
      }

      .st1, .st3 {
        stroke: #fff;
      }

      .st2, .st9, .st6 {
        display: none;
      }

      .st10 {
        fill: #d5261e;
      }

      .st7, .st8 {
        stroke: #3f3f3f;
      }

      .st7, .st3 {
        stroke-width: 4px;
      }

      .st11, .st5, .st6 {
        fill: #fff;
      }

      .st12 {
        fill: #ffd93e;
      }

      .st13 {
        fill: #e67d00;
      }

      .st14 {
        fill: #e4e4e4;
      }

      .st15 {
        fill: #1ed760;
      }
    </style>
  </defs>
  <rect class="st15" x=".6" y=".6" width="127.8" height="127.8" rx="25.9" ry="25.9"/>
  <g class="st9">
    <path class="st12" d="M21.7,0h85c11.7,0,21.3,9.6,21.3,21.4v85.6c0,11.8-9.5,21.4-21.3,21.4H21.7c-11.7,0-21.3-9.6-21.3-21.4V21.4C.5,9.6,10,0,21.7,0Z"/>
    <path class="st11" d="M60.5,91.8c-15.2,2.2-28.6-4.3-30-14.5s9.7-20.1,24.9-22.3c15.2-2.2,28.6,4.3,30,14.5,1.4,10.2-9.7,20.1-24.9,22.3Z"/>
    <path class="st13" d="M105.2,29.3c-9.4-9.1-23.1-7.8-23.1-7.8-1.7,0-3.1,1.4-3.1,3.2v1.5c0,1.7,1.4,3,3.1,3,0,0,13.2-1.4,18.8,6.8s3.2,18.6,3.2,18.6c-.3,1.7.9,3.1,2.6,3.1h1.3c1.7,0,3.3-1.4,3.5-3.1,0,0,3-16.3-6.3-25.3h0Z"/>
    <path class="st13" d="M94.3,51.1h1.8c1.1,0,2.1-.8,2.3-1.8,0,0,2.1-7.6-2.8-11.8-4.9-4.2-11.3-2.6-11.3-2.6-1.1.2-1.9,1.1-1.9,2.1v.7c0,1,.9,1.8,2,1.7,0,0,5.4-.7,8,2.3,2.6,2.9.6,7.7.6,7.7-.3,1,.3,1.7,1.4,1.7h0Z"/>
    <path d="M58.9,75.6c-1.5,0-2.8-1.3-2.8-2.9s1.2-2.9,2.8-2.9,2.8,1.3,2.8,2.9-1.2,2.9-2.8,2.9ZM52.6,82.4c-2.8,1.4-5.8.7-6.8-1.6s.5-5.1,3.2-6.5c2.8-1.4,5.8-.7,6.8,1.6,1,2.2-.5,5.1-3.2,6.5ZM53.3,61.4c-9,1.8-15.1,9.8-13.6,17.8,1.5,8,10,13,18.9,11.1,9-1.8,15.1-9.8,13.6-17.8-1.5-8-10-13-18.9-11.1Z"/>
    <path class="st10" d="M60.5,91.8c-15.2,2.2-28.6-4.3-30-14.5s9.7-20.1,24.9-22.3c15.2-2.2,28.6,4.3,30,14.5,1.4,10.2-9.7,20.1-24.9,22.3ZM86,57.8c0-.9,8.1-8.6,0-13.4-8.1-4.8-22.8,2.5-22.4,1.7,6.3-11.2-2.7-14.8-7.3-14.8-11,0-39.8,24.9-39.8,40.7s19.2,28.6,43,28.6,42.8-12.8,42.8-28.6-16.2-13.3-16.2-14.2Z"/>
  </g>
  <g class="st9">
    <path class="st0" d="M88.4,63.1c0,13.2-10.9,24-24.3,24h0c-13.4,0-24.3-10.7-24.3-24s10.9-24,24.3-24c13.4,0,24.3,10.7,24.3,24Z"/>
    <path class="st4" d="M64.1,32.5c-6,0-10.8,4.8-10.8,10.7,0,.4,0,.9,0,1.3.7-5.3,5.3-9.3,10.7-9.3,5.5,0,10.1,4,10.7,9.3,0-.4,0-.9,0-1.3,0-5.9-4.8-10.7-10.8-10.7ZM45.1,51.2c-6,0-10.8,4.8-10.8,10.7h0c0,.4,0,.9,0,1.3.7-5.3,5.3-9.3,10.7-9.3,5.5,0,10.1,4,10.7,9.3,0-.4,0-.9,0-1.3,0-5.9-4.8-10.7-10.8-10.7h0ZM83,51.2c-6,0-10.8,4.8-10.8,10.7h0c0,.4,0,.9,0,1.3.7-5.3,5.3-9.3,10.7-9.3,5.5,0,10.1,4,10.7,9.3,0-.4,0-.9,0-1.3,0-5.9-4.8-10.7-10.8-10.7h0ZM26.3,63.1c0,.4,0,.9,0,1.3,0,20.7,16.9,37.3,37.9,37.3s37.9-16.6,37.9-37.3,0-.9,0-1.3c-.7,20-17.3,36-37.8,36s-37.1-15.9-37.8-36h0ZM64.1,69.8c-6,0-10.8,4.8-10.8,10.7,0,.4,0,.9,0,1.3.7-5.3,5.3-9.3,10.7-9.3,5.5,0,10.1,4,10.7,9.3,0-.4,0-.9,0-1.3,0-5.9-4.8-10.7-10.8-10.7h0Z"/>
    <path class="st14" d="M64.1,25.9c-21,0-37.9,16.6-37.9,37.3s16.9,37.3,37.9,37.3,37.9-16.6,37.9-37.3-16.9-37.3-37.9-37.3ZM64.1,33.8c6,0,10.8,4.8,10.8,10.7s-4.8,10.7-10.8,10.7h0c-6,0-10.8-4.8-10.8-10.7h0c0-5.9,4.8-10.7,10.8-10.7ZM45.1,52.5c6,0,10.8,4.8,10.8,10.7s-4.8,10.7-10.8,10.7-10.8-4.8-10.8-10.7c0-5.9,4.8-10.7,10.8-10.7s0,0,0,0ZM83,52.5c6,0,10.8,4.8,10.8,10.7s-4.8,10.7-10.8,10.7-10.8-4.8-10.8-10.7,4.8-10.7,10.8-10.7ZM64.1,71.1c6,0,10.8,4.8,10.8,10.7s-4.8,10.7-10.8,10.7-10.8-4.8-10.8-10.7,4.8-10.7,10.8-10.7Z"/>
    <path class="st5" d="M64.1,25.9c-21,0-37.9,16.6-37.9,37.3s0,.3,0,.4c.5-20.2,17.2-36.4,37.8-36.4h0c20.7,0,37.4,16.2,37.8,36.4,0-.1,0-.3,0-.4,0-20.7-16.9-37.3-37.9-37.3h0Z"/>
    <path class="st0" d="M68.7,60.5c-.4-.6-1.2-.9-1.8-.5-.6.4-.9,1.2-.5,1.8.4.6,1.2.9,1.8.5.6-.4.9-1.2.5-1.8ZM63.2,59c-.4-.6-1.2-.9-1.8-.5-.6.4-.9,1.2-.5,1.8.4.6,1.2.9,1.8.5.6-.4.9-1.2.5-1.8ZM67.3,65.9c-.4-.6-1.2-.9-1.8-.5-.6.4-.9,1.2-.5,1.8.4.6,1.2.9,1.8.5.6-.4.9-1.2.5-1.8ZM61.7,64.5c-.4-.6-1.2-.9-1.8-.5-.6.4-.9,1.2-.5,1.8.4.6,1.2.9,1.8.5.6-.4.9-1.2.5-1.8Z"/>
  </g>
  <g>
    <path class="st2" d="M.8,62.5c-.2.7-.2,1.5-.2,2.2,0,33.6,28.3,60.8,63.4,60.8s63.4-27.1,63.4-60.8,0-1.5-.2-2.2c-1.1,32.6-29,58.6-63.4,58.6S2,95,.8,62.5Z"/>
    <path class="st15" d="M127.3,62.5h0C127.3,28.8,99,1.7,63.9,1.7h0C28.9,1.7.6,28.8.6,62.5h0c0,33.6,28.3,60.8,63.4,60.8h0c35.1,0,63.4-27.1,63.4-60.8Z"/>
    <path class="st6" d="M63.9,1.7C28.9,1.7.6,28.8.6,62.5v.7C1.5,30.1,29.3,3.9,63.9,3.9h0c34.6,0,62.4,26.3,63.4,59.3v-.7C127.3,28.8,99,1.7,63.9,1.7Z"/>
    <path class="st1" d="M26.6,46.2c17-6.5,53.2-6.5,76.9,6.5"/>
    <path class="st8" d="M26.6,44c17-6.5,53.2-6.5,76.9,6.5"/>
    <path class="st3" d="M30,64.6c15.8-4.3,52-2.2,65.6,6.5"/>
    <path class="st7" d="M30,62.5c15.8-4.3,52-2.2,65.6,6.5"/>
    <path class="st3" d="M32.3,84.2c13.6-3.3,40.7-3.3,56.6,4.3"/>
    <path class="st7" d="M32.3,82c13.6-3.3,40.7-3.3,56.6,4.3"/>
  </g>
</svg>