<?xml version="1.0" encoding="UTF-8"?>
<svg id="_图层_1" xmlns="http://www.w3.org/2000/svg" version="1.1" viewBox="0 0 64 64" width="64" height="64">
  <!-- Generator: Adobe Illustrator 29.0.1, SVG Export Plug-In . SVG Version: 2.1.0 Build 192)  -->
  <defs>
    <style>
      .st0 {
        fill: #115ccc;
      }

      .st0, .st1, .st2 {
        fill-rule: evenodd;
      }

      .st1, .st2, .st3, .st4 {
        isolation: isolate;
      }

      .st1, .st3, .st4 {
        opacity: .2;
      }

      .st5, .st2, .st4 {
        fill: #fff;
      }

      .st2 {
        opacity: .1;
      }

      .st6 {
        fill: #3387f5;
      }
    </style>
  </defs>
  <path class="st5" d="M50.4,64H13.8c-7.6,0-13.8-6.2-13.8-13.7V13.7C0,6.2,6.2,0,13.7,0h36.5c7.5,0,13.7,6.2,13.7,13.7v36.6c0,7.5-6.2,13.7-13.7,13.7h.1Z"/>
  <g>
    <path class="st1" d="M21.2,11.5c-1.1,0-1.9.8-1.9,1.8,0,8.1-1.6,14-3.2,16.4-.9,1.3-1.6,2.1-2.8,2.6-1.1.5-3.1.8-6,.8-1.1,0-1.9.8-1.9,1.8v14.6c0,1,.9,1.8,1.9,1.8,10.4,0,19.9-4.3,25.1-11.8,5.1-7.3,6.4-16.2,6.4-26.2,0-1-.9-1.8-1.9-1.8h-15.7Z"/>
    <path class="st0" d="M21.2,10.7c-1.1,0-1.9.8-1.9,1.8,0,8.1-1.6,14-3.2,16.4-.9,1.3-1.6,2.1-2.8,2.6-1.1.5-3.1.8-6,.8-1.1,0-1.9.8-1.9,1.8v14.6c0,1,.9,1.8,1.9,1.8,10.4,0,19.9-4.3,25.1-11.8,5.1-7.3,6.4-16.2,6.4-26.2,0-1-.9-1.8-1.9-1.8h-15.7Z"/>
    <path class="st3" d="M21.1,11.5c-1.1,0-1.9.8-1.9,1.8,0,.3,0,.6.2.8l18.3,36.1c.3.6,1,1,1.7,1h16c1.1,0,1.9-.8,1.9-1.8,0-.3,0-.5-.2-.8L38.8,12.5c-.3-.6-1-1-1.7-1h-16Z"/>
    <path class="st6" d="M21.1,10.7c-1.1,0-1.9.8-1.9,1.8,0,.3,0,.6.2.8l18.3,36.1c.3.6,1,1,1.7,1h16c1.1,0,1.9-.8,1.9-1.8,0-.3,0-.5-.2-.8L38.8,11.7c-.3-.6-1-1-1.7-1h-16Z"/>
    <path class="st4" d="M21.1,10.7c-1.1,0-1.9.8-1.9,1.8,0,.1,0,.3,0,.4.2-.8,1-1.4,1.9-1.4h16c.7,0,1.4.4,1.7,1l18.3,36.1c0,.1.1.2.1.4,0-.4,0-.8-.1-1.2L38.8,11.7c-.3-.6-1-1-1.7-1h-16Z"/>
    <path class="st2" d="M21.2,10.7c-1.1,0-1.9.8-1.9,1.8,0,8.1-1.6,14-3.2,16.4-.9,1.3-1.6,2.1-2.8,2.6s-3.1.8-6,.8c-1.1,0-1.9.8-1.9,1.8v.8c0-1,.9-1.8,1.9-1.8,2.9,0,4.9-.3,6-.8s1.8-1.2,2.8-2.6c1.6-2.4,3.2-8.3,3.2-16.4,0-1,.9-1.8,1.9-1.8h15.7c1,0,1.8.7,1.9,1.7,0-.2,0-.5,0-.7,0-1-.9-1.8-1.9-1.8h-15.7Z"/>
  </g>
</svg>