<?xml version="1.0" encoding="UTF-8"?>
<svg id="_图层_1" xmlns="http://www.w3.org/2000/svg" version="1.1" viewBox="0 0 64 64" width="64" height="64">
  <!-- Generator: Adobe Illustrator 29.0.1, SVG Export Plug-In . SVG Version: 2.1.0 Build 192)  -->
  <defs>
    <style>
      .st0, .st1 {
        fill: #4f4f4f;
      }

      .st2 {
        fill: #00c8c6;
      }

      .st2, .st3, .st4 {
        fill-rule: evenodd;
      }

      .st5, .st6, .st3, .st7 {
        isolation: isolate;
      }

      .st5, .st6, .st8, .st1 {
        display: none;
      }

      .st5, .st3, .st7 {
        opacity: .2;
      }

      .st6 {
        fill: #fff;
        opacity: .1;
      }

      .st9 {
        fill: #ffc04b;
      }

      .st4 {
        fill: #9adede;
      }
    </style>
  </defs>
  <path class="st0" d="M50.4,64H13.8c-7.6,0-13.8-6.2-13.8-13.7V13.7C0,6.2,6.2,0,13.7,0h36.6c7.5,0,13.7,6.2,13.7,13.7v36.6c0,7.5-6.2,13.7-13.7,13.7h.1Z"/>
  <g class="st8">
    <path class="st5" d="M-.1,46.8v2.5c0,2.2,1.6,4.3,3.5,4.4h29.5l8,10,8-10h11.3c2,0,3.5-2.2,3.5-4.4v-2.5c0,2.2-1.6,4.4-3.5,4.4h-11.3l-8,10-8-10H3.4c-2,0-3.5-2.2-3.5-4.4h0Z"/>
    <path class="st1" d="M3.4,0C1.5,0-.1,2.2-.1,4.4v43.7c0,2.2,1.6,4.3,3.5,4.4h29.5l8,10,8-10h11.3c2,0,3.5-2.2,3.5-4.4V4.4C63.7,2.2,62.1,0,60.2,0H3.4Z"/>
    <path class="st7" d="M.3,16.8v2.5h62.9v-2.5H.3ZM.3,24.3v2.5h62.9v-2.5H.3ZM.3,31.8v2.5h62.9v-2.5H.3ZM.3,39.3v2.5h41.9v-2.5H.3Z"/>
    <path class="st9" d="M.3,15.6v2.5h62.9v-2.5H.3ZM.3,23.1v2.5h62.9v-2.5H.3ZM.3,30.6v2.5h62.9v-2.5H.3ZM.3,38.1v2.5h41.9v-2.5H.3Z"/>
    <path class="st6" d="M3.4,0C1.5,0-.1,2.2-.1,4.4v1.2C-.1,3.5,1.5,1.2,3.4,1.2h56.7c2,0,3.5,2.2,3.5,4.4v-1.2C63.7,2.2,62.1,0,60.2,0H3.4Z"/>
  </g>
  <g>
    <rect class="st5" y="1.1" width="64" height="64" rx="3.2" ry="3.2"/>
    <path class="st1" d="M3.2,0h57.6c1.8,0,3.2,1.4,3.2,3.2v57.6c0,1.8-1.4,3.2-3.2,3.2H3.2c-1.8,0-3.2-1.4-3.2-3.2V3.2C0,1.4,1.4,0,3.2,0Z"/>
    <path class="st3" d="M16.4,12.6c-.3,0-.5.2-.6.4l-6.4,9.2c-.3.5-.2,1.1.2,1.4l13.6,9.5,9.2-6.5c.2-.1.4-.2.6-.2h0s3.4,0,3.4,0l-19.3-13.6c-.2-.2-.5-.2-.8-.2ZM54.5,32.4h0c.3.4.4.8.2,1.2.1-.4,0-.8-.2-1.1h0ZM54.8,33.5c0,.1-.1.2-.2.3h0c0,0,.2-.2.2-.3Z"/>
    <path class="st4" d="M16.4,11.5c-.3,0-.5.2-.6.4l-6.4,9.2c-.3.5-.2,1.1.2,1.4l14.9,10.3,7.9-5.5c.2-.1.4-.2.7-.2h0s15.2,0,15.2,0c.3,0,.5.1.7.3,0,0,.2.2.5.5h0s5,4.9,5,4.9h.1c.4-.5.4-1.1,0-1.5l-4.8-4.8c-.4-.5-.7-.7-.8-.8-.2-.2-.4-.3-.7-.3h-11.4l-19.7-13.9c-.2-.2-.5-.2-.8-.2Z"/>
    <path class="st3" d="M33,26.4h0s15.2,0,15.2,0c.3,0,.5.1.7.3,0,0,.2.2.5.5h0s5.1,5.2,5.1,5.2c.4.4.4,1,0,1.4l-4.8,5c-.4.5-.8.8-.8.8-.2.2-.4.3-.7.3h-11.4l-19.7,13.6c-.5.3-1.1.2-1.4-.2l-6.4-9.2c-.3-.5-.2-1.1.2-1.5l22.8-16.1c.2-.1.4-.2.6-.2Z"/>
    <path class="st2" d="M33,25.2h0s15.2,0,15.2,0c.3,0,.5.1.7.3,0,0,.2.2.5.5h0s5.1,5.2,5.1,5.2c.4.4.4,1,0,1.4l-4.8,5c-.4.5-.8.8-.8.8-.2.2-.4.3-.7.3h-11.4l-19.7,13.6c-.5.3-1.1.2-1.4-.2l-6.4-9.2c-.3-.5-.2-1.1.2-1.5l22.8-16.1c.2-.1.4-.2.6-.2Z"/>
    <path class="st6" d="M3.2,0C1.4,0,0,1.4,0,3.2v1.1C0,2.6,1.4,1.1,3.2,1.1h57.6c1.8,0,3.2,1.4,3.2,3.2v-1.1c0-1.8-1.4-3.2-3.2-3.2H3.2Z"/>
  </g>
</svg>