<?xml version="1.0" encoding="UTF-8"?>
<svg id="_图层_1" xmlns="http://www.w3.org/2000/svg" version="1.1" viewBox="0 0 64 64" width="64" height="64">
  <!-- Generator: Adobe Illustrator 29.0.1, SVG Export Plug-In . SVG Version: 2.1.0 Build 192)  -->
  <defs>
    <style>
      .st0, .st1, .st2, .st3, .st4, .st5, .st6, .st7 {
        isolation: isolate;
      }

      .st0, .st1, .st4, .st5, .st6 {
        opacity: .2;
      }

      .st0, .st8, .st6, .st9 {
        display: none;
      }

      .st1, .st10 {
        fill-rule: evenodd;
      }

      .st11 {
        fill: #3f3f3f;
      }

      .st10, .st5, .st6, .st7 {
        fill: #fff;
      }

      .st12 {
        fill: #28a8ea;
      }

      .st2, .st7 {
        opacity: .1;
      }

      .st3 {
        opacity: .3;
      }

      .st9, .st13 {
        fill: #e4e4e4;
      }

      .st14 {
        fill: #1587d7;
      }
    </style>
  </defs>
  <path class="st13" d="M50.3,64H13.8C6.2,64,0,57.8,0,50.3V13.7c0-7.5,6.2-13.7,13.7-13.7h36.5c7.5,0,13.7,6.2,13.7,13.7v36.6c0,7.5-6.2,13.7-13.7,13.7h0Z"/>
  <g class="st8">
    <ellipse class="st4" cx="22.8" cy="23.2" rx="13.9" ry="13.9"/>
    <ellipse class="st4" cx="43" cy="43.3" rx="13.9" ry="13.9"/>
    <ellipse class="st14" cx="22.8" cy="22.4" rx="13.9" ry="13.9"/>
    <path class="st7" d="M22.8,8.5c-7.7,0-13.9,6.2-13.9,13.9,0,0,0,0,0,0,0,.2,0,.3,0,.5.2-7.5,6.4-13.5,13.9-13.5,7.5,0,13.6,5.9,13.9,13.4,0-.1,0-.2,0-.4,0-7.7-6.2-13.9-13.9-13.9,0,0,0,0,0,0Z"/>
    <ellipse class="st14" cx="43" cy="42.4" rx="13.9" ry="13.9"/>
    <ellipse class="st4" cx="32.9" cy="33.2" rx="22.3" ry="22.2"/>
    <ellipse class="st12" cx="32.9" cy="32.4" rx="22.3" ry="22.2"/>
    <path class="st1" d="M27.2,32.8c-.9-.5-1.6-1.3-2.1-2.1-.5-.9-.8-1.9-.7-2.9,0-1.3.4-2.6,1.3-3.6.9-1,2.1-1.8,3.4-2.2,1.4-.5,2.9-.7,4.4-.7,1,0,2,0,3,.2.7.1,1.4.3,2.1.5.6.2,1.2.5,1.6,1,.3.4.5.8.5,1.3,0,.5-.2,1-.5,1.4-.3.3-.8.5-1.3.5-.3,0-.7,0-1-.2-.8-.3-1.5-.6-2.3-.8-.7-.2-1.5-.3-2.2-.3-1,0-2,.2-2.8.7-.7.4-1.2,1.2-1.1,2,0,.5.2,1,.6,1.4.4.4,1,.8,1.6,1.1.7.3,1.6.7,2.9,1.2.1,0,.3,0,.4.2,1.3.5,2.5,1.1,3.6,1.8.9.6,1.7,1.3,2.2,2.2.6.9.8,2,.8,3.1,0,1.3-.3,2.6-1.1,3.7-.8,1-1.9,1.8-3.1,2.2-1.5.5-3.1.8-4.7.7-2.2,0-4.4-.3-6.4-1.2-.5-.2-1-.6-1.3-1-.3-.4-.4-.9-.4-1.3,0-.5.2-1,.6-1.4.4-.3.9-.5,1.5-.5.6,0,1.2.2,1.7.4.7.3,1.2.5,1.5.7.4.2.9.3,1.3.4.6.1,1.1.2,1.7.2,1,0,2-.2,2.9-.7.6-.5,1-1.2,1-2,0-.5-.2-1.1-.6-1.5-.5-.5-1.1-.9-1.8-1.2-.8-.4-1.9-.9-3.3-1.4-1.3-.5-2.5-1.1-3.6-1.8"/>
    <path class="st10" d="M27.2,32c-.9-.5-1.6-1.3-2.1-2.1-.5-.9-.8-1.9-.7-2.9,0-1.3.4-2.6,1.3-3.6.9-1,2.1-1.8,3.4-2.2,1.4-.5,2.9-.7,4.4-.7,1,0,2,0,3,.2.7.1,1.4.3,2.1.5.6.2,1.2.5,1.6,1,.3.4.5.8.5,1.3,0,.5-.2,1-.5,1.4-.3.3-.8.5-1.3.5-.3,0-.7,0-1-.2-.8-.3-1.5-.6-2.3-.8-.7-.2-1.5-.3-2.2-.3-1,0-2,.2-2.8.7-.7.4-1.2,1.2-1.1,2,0,.5.2,1,.6,1.4.4.4,1,.8,1.6,1.1.7.3,1.6.7,2.9,1.2.1,0,.3,0,.4.2,1.3.5,2.5,1.1,3.6,1.8.9.6,1.7,1.3,2.2,2.2.6.9.8,2,.8,3.1,0,1.3-.3,2.6-1.1,3.7-.8,1-1.9,1.8-3.1,2.2-1.5.5-3.1.8-4.7.7-2.2,0-4.4-.3-6.4-1.2-.5-.2-1-.6-1.3-1-.3-.4-.4-.9-.4-1.3,0-.5.2-1,.6-1.4.4-.3.9-.5,1.5-.5.6,0,1.2.2,1.7.4.7.3,1.2.5,1.5.7.4.2.9.3,1.3.4.6.1,1.1.2,1.7.2,1,0,2-.2,2.9-.7.6-.5,1-1.2,1-2,0-.5-.2-1.1-.6-1.5-.5-.5-1.1-.9-1.8-1.2-.8-.4-1.9-.9-3.3-1.4-1.3-.5-2.5-1.1-3.6-1.8"/>
    <path class="st5" d="M32.9,10.2c-12.3,0-22.3,9.9-22.3,22.2,0,.2,0,.3,0,.5.2-12.1,10.1-21.8,22.3-21.8,12.1,0,22,9.6,22.3,21.7,0-.1,0-.2,0-.4,0-12.3-10-22.2-22.3-22.2Z"/>
  </g>
  <g>
    <path class="st0" d="M64,61.9V4.5c0-1.8-1.4-3.2-3.2-3.2H3.3C1.5,1.4,0,2.8,0,4.5v57.4c0,1.8,1.4,3.2,3.2,3.2h57.5c1.8,0,3.2-1.4,3.2-3.2Z"/>
    <path class="st9" d="M64,60.8V3.4c0-1.8-1.4-3.2-3.2-3.2H3.3C1.5.2,0,1.7,0,3.4v57.4c0,1.8,1.4,3.2,3.2,3.2h57.5c1.8,0,3.2-1.4,3.2-3.2Z"/>
    <path class="st2" d="M4.5,5.8v22.4h22.4V5.8H4.5ZM48,6.1c-6.2,0-11.2,5-11.2,11.2s5,11.2,11.2,11.2,11.2-5,11.2-11.2-5-11.2-11.2-11.2ZM9,10.3h13.5v13.4h-13.5v-13.4ZM11.3,38.3v6.7h-6.7v8.9h6.7v6.7h9v-6.7h6.7v-8.9h-6.7v-6.7h-9ZM48.3,38.3l-11.2,22.4h22.4l-11.2-22.4ZM48.3,43.6v14.6h-7.3l7.3-14.6Z"/>
    <ellipse class="st11" cx="48" cy="16.1" rx="11.2" ry="11.2"/>
    <path class="st11" d="M4.5,4.7v22.4h22.4V4.7H4.5ZM9,9.2h13.5v13.4h-13.5v-13.4Z"/>
    <rect class="st11" x="11.3" y="37.1" width="9" height="22.4"/>
    <rect class="st11" x="4.5" y="43.8" width="22.4" height="8.9"/>
    <path class="st11" d="M48.3,37.1l-11.2,22.4h22.4l-11.2-22.4ZM48.3,42.5l7.3,14.6h-14.7l7.3-14.6Z"/>
    <path class="st11" d="M48.3,40.3l9.6,19.2h-9.6v-19.2Z"/>
    <path class="st3" d="M30.3.2v30.2H0v3.4h30.3v30.2h3.4v-30.2h30.3v-3.4h-30.3V.2h-3.4Z"/>
    <path class="st6" d="M3.3.2C1.5.2,0,1.7,0,3.4v1.1C0,2.8,1.5,1.4,3.3,1.4h57.5c1.8,0,3.2,1.4,3.2,3.2v-1.1c0-1.8-1.4-3.2-3.2-3.2H3.3Z"/>
  </g>
</svg>