<?xml version="1.0" encoding="UTF-8"?>
<svg id="_图层_1" xmlns="http://www.w3.org/2000/svg" version="1.1" viewBox="0 0 64 64" width="64" height="64">
  <!-- Generator: Adobe Illustrator 29.0.1, SVG Export Plug-In . SVG Version: 2.1.0 Build 192)  -->
  <defs>
    <style>
      .st0, .st1, .st2 {
        isolation: isolate;
        opacity: .2;
      }

      .st0, .st3, .st4, .st2, .st5 {
        display: none;
      }

      .st6, .st2 {
        fill: #fff;
      }

      .st7, .st5 {
        fill: #ff5722;
      }

      .st4 {
        fill: #2095f2;
      }
    </style>
  </defs>
  <path class="st7" d="M50.5,64H13.9c-7.6,0-13.9-6.2-13.9-13.7V13.7C0,6.2,6.3,0,13.8,0h36.6c7.5,0,13.7,6.2,13.7,13.7v36.6c0,7.5-6.2,13.7-13.7,13.7h.1Z"/>
  <g class="st3">
    <path class="st4" d="M3.3,7.4h57.6c1.8,0,3.2,1.6,3.2,3.5v42.5c0,1.9-1.4,3.5-3.2,3.5H3.3c-1.8,0-3.2-1.6-3.2-3.5V10.9c0-1.9,1.4-3.5,3.2-3.5Z"/>
    <ellipse class="st1" cx="8.1" cy="19.8" rx="3.4" ry="3.7"/>
    <ellipse class="st1" cx="19.5" cy="19.8" rx="3.4" ry="3.7"/>
    <ellipse class="st1" cx="30.9" cy="19.8" rx="3.4" ry="3.7"/>
    <ellipse class="st1" cx="42.3" cy="19.8" rx="3.4" ry="3.7"/>
    <ellipse class="st1" cx="53.8" cy="19.8" rx="3.4" ry="3.7"/>
    <ellipse class="st1" cx="14.9" cy="34.6" rx="3.4" ry="3.7"/>
    <ellipse class="st1" cx="26.3" cy="34.6" rx="3.4" ry="3.7"/>
    <ellipse class="st1" cx="37.8" cy="34.6" rx="3.4" ry="3.7"/>
    <ellipse class="st1" cx="49.2" cy="34.6" rx="3.4" ry="3.7"/>
    <path class="st1" d="M10.9,45.8h42.3c.9,0,1.7.8,1.7,1.9v3.7c0,1-.8,1.9-1.7,1.9H10.9c-.9,0-1.7-.8-1.7-1.9v-3.7c0-1,.8-1.9,1.7-1.9Z"/>
    <ellipse class="st6" cx="8.1" cy="18.5" rx="3.4" ry="3.7"/>
    <ellipse class="st6" cx="19.5" cy="18.5" rx="3.4" ry="3.7"/>
    <ellipse class="st6" cx="30.9" cy="18.5" rx="3.4" ry="3.7"/>
    <ellipse class="st6" cx="42.3" cy="18.5" rx="3.4" ry="3.7"/>
    <ellipse class="st6" cx="53.8" cy="18.5" rx="3.4" ry="3.7"/>
    <ellipse class="st6" cx="14.9" cy="33.4" rx="3.4" ry="3.7"/>
    <ellipse class="st6" cx="26.3" cy="33.4" rx="3.4" ry="3.7"/>
    <ellipse class="st6" cx="37.8" cy="33.4" rx="3.4" ry="3.7"/>
    <ellipse class="st6" cx="49.2" cy="33.4" rx="3.4" ry="3.7"/>
    <path class="st6" d="M10.9,44.5h42.3c.9,0,1.7.8,1.7,1.9v3.7c0,1-.8,1.9-1.7,1.9H10.9c-.9,0-1.7-.8-1.7-1.9v-3.7c0-1,.8-1.9,1.7-1.9Z"/>
    <path class="st2" d="M3.3,7.4C1.5,7.4,0,9,0,10.9v1.2c0-1.9,1.4-3.5,3.2-3.5h57.6c1.8,0,3.2,1.5,3.2,3.5v-1.2c0-1.9-1.4-3.5-3.2-3.5H3.3Z"/>
    <path class="st0" d="M0,53.4v1.2c0,1.9,1.4,3.5,3.2,3.5h57.6c1.8,0,3.2-1.5,3.2-3.5v-1.2c0,1.9-1.4,3.5-3.2,3.5H3.3c-1.8,0-3.2-1.5-3.2-3.5h0Z"/>
  </g>
  <g>
    <path class="st0" d="M19.2,1.5h25.6c10.6,0,19.2,8.5,19.2,19v25.3c0,10.5-8.6,19-19.2,19h-25.6c-10.6,0-19.2-8.5-19.2-19v-25.3C0,10,8.6,1.5,19.2,1.5Z"/>
    <path class="st5" d="M19.2.4h25.6c10.6,0,19.2,8.5,19.2,19v25.3c0,10.5-8.6,19-19.2,19h-25.6C8.6,63.7,0,55.2,0,44.7v-25.3C0,8.9,8.6.4,19.2.4Z"/>
    <path class="st1" d="M32,10.2c-7.7,0-14.3,5.8-14.3,13.1v6.6h-3.1c-1.9,0-3.5,1.5-3.5,3.3v19.7c0,1.8,1.6,3.3,3.5,3.3h34.9c1.9,0,3.5-1.5,3.5-3.3v-19.7c0-1.8-1.6-3.3-3.5-3.3h-3.1v-6.6c0-7.3-6.6-13.1-14.3-13.1ZM32,16.8c3.9,0,8.1,2.9,7.7,6.6v6.6h-15.4v-6.6c0-3.6,3.9-6.6,7.7-6.6Z"/>
    <path class="st6" d="M32,9.1c-7.7,0-14.3,5.8-14.3,13.1v6.6h-3.1c-1.9,0-3.5,1.5-3.5,3.3v19.7c0,1.8,1.6,3.3,3.5,3.3h34.9c1.9,0,3.5-1.5,3.5-3.3v-19.7c0-1.8-1.6-3.3-3.5-3.3h-3.1v-6.6c0-7.3-6.6-13.1-14.3-13.1ZM32,15.7c3.9,0,8.1,2.9,7.7,6.6v6.6h-15.4v-6.6c0-3.6,3.9-6.6,7.7-6.6Z"/>
    <path class="st2" d="M19.2.4C8.6.4,0,8.9,0,19.4v1.1C0,10,8.6,1.5,19.2,1.5h25.6c10.6,0,19.2,8.5,19.2,19v-1.1C64,8.9,55.4.4,44.8.4h-25.6Z"/>
  </g>
</svg>