<?xml version="1.0" encoding="UTF-8"?>
<svg id="_图层_1" data-name="图层_1" xmlns="http://www.w3.org/2000/svg" version="1.1" viewBox="0 0 64 64" width="64" height="64">
  <!-- Generator: Adobe Illustrator 29.0.1, SVG Export Plug-In . SVG Version: 2.1.0 Build 192)  -->
  <defs>
    <style>
      .st0 {
        fill: #5294e2;
      }

      .st1 {
        fill: #89e058;
      }

      .st2 {
        fill: #8e8e8e;
      }

      .st3, .st4, .st5 {
        isolation: isolate;
      }

      .st3, .st5 {
        opacity: .1;
      }

      .st4 {
        opacity: .2;
      }

      .st6 {
        fill: #ececec;
      }

      .st7 {
        fill: #ffcd54;
      }

      .st5 {
        fill: #fff;
      }
    </style>
  </defs>
  <rect class="st2" x=".7" y=".6" width="62.6" height="62.6" rx="12.6" ry="12.6"/>
  <path class="st4" d="M8.6,23.5h45.6c1.4,0,2.5,1.1,2.5,2.4v28.5c0,1.3-1.1,2.4-2.5,2.4H8.6c-1.4,0-2.5-1.1-2.5-2.4v-28.5c0-1.3,1.1-2.4,2.5-2.4Z"/>
  <path class="st0" d="M16.2,7.3h30.5c1.1,0,1.9.8,1.9,1.8v25.3c0,1-.9,1.8-1.9,1.8h-30.5c-1.1,0-1.9-.8-1.9-1.8V9.1c0-1,.9-1.8,1.9-1.8Z"/>
  <path class="st1" d="M13.5,12.4h35.9c1.1,0,1.9.8,1.9,1.8v25.3c0,1-.9,1.8-1.9,1.8H13.5c-1.1,0-1.9-.8-1.9-1.8V14.2c0-1,.9-1.8,1.9-1.8Z"/>
  <path class="st7" d="M10.7,17.5h41.4c1.1,0,1.9.8,1.9,1.8v25.3c0,1-.9,1.8-1.9,1.8H10.7c-1.1,0-1.9-.8-1.9-1.8v-25.3c0-1,.9-1.8,1.9-1.8Z"/>
  <path class="st2" d="M8.6,22.6h45.6c1.4,0,2.5,1.1,2.5,2.4v28.5c0,1.3-1.1,2.4-2.5,2.4H8.6c-1.4,0-2.5-1.1-2.5-2.4v-28.5c0-1.3,1.1-2.4,2.5-2.4Z"/>
  <path class="st4" d="M23.7,37.1h15.5c.7,0,1.3.5,1.3,1.1v2.1c0,.6-.6,1.1-1.3,1.1h-15.5c-.7,0-1.3-.5-1.3-1.1v-2.1c0-.6.6-1.1,1.3-1.1Z"/>
  <path class="st6" d="M23.7,36.3h15.5c.7,0,1.3.5,1.3,1.1v2.1c0,.6-.6,1.1-1.3,1.1h-15.5c-.7,0-1.3-.5-1.3-1.1v-2.1c0-.6.6-1.1,1.3-1.1Z"/>
  <path class="st5" d="M16.2,7.3c-1.1,0-1.9.8-1.9,1.8v.9c0-1,.9-1.8,1.9-1.8h30.5c1.1,0,1.9.8,1.9,1.8v-.9c0-1-.9-1.8-1.9-1.8h-30.5Z"/>
  <path class="st5" d="M13.5,12.4c-1.1,0-1.9.8-1.9,1.8v.9c0-1,.9-1.8,1.9-1.8h35.9c1.1,0,1.9.8,1.9,1.8v-.9c0-1-.9-1.8-1.9-1.8H13.5Z"/>
  <path class="st5" d="M10.7,17.5c-1.1,0-1.9.8-1.9,1.8v.9c0-1,.9-1.8,1.9-1.8h41.4c1.1,0,1.9.8,1.9,1.8v-.9c0-1-.9-1.8-1.9-1.8H10.7Z"/>
  <path class="st3" d="M13.5,11.6c-1.1,0-1.9.8-1.9,1.8v.9c0-1,.9-1.8,1.9-1.8h35.9c1.1,0,1.9.8,1.9,1.8v-.9c0-1-.9-1.8-1.9-1.8H13.5Z"/>
  <path class="st3" d="M10.7,16.7c-1.1,0-1.9.8-1.9,1.8v.9c0-1,.9-1.8,1.9-1.8h41.4c1.1,0,1.9.8,1.9,1.8v-.9c0-1-.9-1.8-1.9-1.8H10.7Z"/>
</svg>
