<?xml version="1.0" encoding="UTF-8"?>
<svg id="_图层_1" xmlns="http://www.w3.org/2000/svg" version="1.1" viewBox="0 0 64 64" width="64" height="64">
  <!-- Generator: Adobe Illustrator 29.0.1, SVG Export Plug-In . SVG Version: 2.1.0 Build 192)  -->
  <defs>
    <style>
      .st0 {
        fill: #ff6200;
      }

      .st1 {
        fill: #f4f4f4;
      }
    </style>
  </defs>
  <path class="st1" d="M48.3,62l-34.2.2c-7,0-12.8-5.7-12.9-12.7l-.2-34.1c0-7,5.7-12.8,12.7-12.9l34.2-.2c7,0,12.8,5.7,12.9,12.7l.2,34.1c0,7-5.7,12.8-12.7,12.9h0Z"/>
  <path class="st0" d="M64,17.8c0-1,0-1.4,0-1.9,0-1.4-.1-2.8-.4-4.2-.3-1.4-.6-2.7-1.3-4-.7-1.3-1.5-2.4-2.6-3.4-1-1-2.2-1.9-3.4-2.6-1.3-.6-2.6-1-4-1.3-1.4-.2-2.8-.4-4.2-.4-.5,0-.9,0-1.9,0-1,0-1.8,0-2.3,0h-23.7c-.6,0-1.4,0-2.3,0-1,0-1.4,0-1.9,0-1.4,0-2.9.1-4.2.4-1.4.3-2.7.6-4,1.3-1.3.7-2.4,1.5-3.4,2.6-1,1-1.9,2.1-2.5,3.4-.7,1.3-1,2.6-1.3,4-.2,1.4-.4,2.8-.4,4.2,0,.5,0,.9,0,1.9,0,1,0,1.8,0,2.4v23.8c0,.6,0,1.4,0,2.3,0,1,0,1.4,0,1.9,0,1.4.1,2.9.4,4.2.3,1.4.6,2.7,1.3,4,.7,1.3,1.6,2.4,2.5,3.4,1,1,2.1,1.9,3.4,2.6,1.3.7,2.6,1,4,1.3,1.3.2,2.7.3,4.2.4.5,0,.9,0,1.9,0,1,0,1.8,0,2.3,0h23.7c.6,0,1.4,0,2.3,0,1,0,1.4,0,1.9,0,1.4,0,2.9-.1,4.2-.4,1.4-.3,2.7-.6,4-1.3,1.3-.7,2.4-1.5,3.4-2.6,1-1,1.9-2.1,2.6-3.4.7-1.3,1-2.6,1.3-4,.2-1.3.3-2.7.4-4.2,0-.5,0-.9,0-1.9,0-1,0-1.8,0-2.3v-23.8c0-.6,0-1.4,0-2.3ZM15.5,12.5c2.5,0,4.5,1.9,4.5,4.2s-2,4.1-4.5,4.1-4.6-1.9-4.6-4.1c0-2.3,2-4.2,4.6-4.2ZM19.3,37.4c-1.2,3.8-.9,2.4-5.7,12.9l-6.9-4.4s7.7-7.1,9.3-10.4c1.7-3.4-1.9-5.3-1.9-5.3l-5.3-3.4,2.9-4.5c4,3,4.3,3.3,7,6,2.1,2.2,1.8,5.1.6,9ZM56.9,42.4c-1.3,12.9-17.8,8.1-17.8,8.1l.9-3.7,3.8.8c7,.5,6.4-5.8,6.4-5.8v-18.2c0-6.9-6.4-7.6-18-3.4l2.7.7c-.2.8-1.1,2.1-2.2,3.4h15.5v3.2h-8.7v4h8.7v3.2h-8.7v6.7c1.3-.4,2.5-1,3.6-1.8l-.8-2.9,4.1-1.3,3.4,8.5-5,2.1-.9-3.4c-2.3,1.8-6.9,4.3-15.1,4.1-8.7.2-6.5-10-6.5-10h.2c0-.1,6.2-.1,6.2-.1,0,1.3-.6,3.5.1,4.6.6,1,2.1,1.1,3.1,1.2.1,0,.2,0,.3,0v-7.6h-8.9v-3.2h8.9v-4h-2.3c-2,2.1-3.8,3.9-3.8,3.9l-2.7-2.4c1.9-2.1,3.8-5.3,5-7.4-1,.4-1.9.8-3,1.3-1,1.3-2.1,2.6-3.4,3.9,0,0-4.4-2.5-4.4-2.5,4.6-4,7.2-12.5,7.2-12.5l6.4,1.8s-.5,1.3-1.6,3.2c25.6-7.4,27.1,4.5,27.1,4.5,0,0,1.7,8.2.3,21.1Z"/>
</svg>