<?xml version="1.0" encoding="UTF-8"?>
<svg id="_图层_1" xmlns="http://www.w3.org/2000/svg" version="1.1" viewBox="0 0 64 64" width="64" height="64">
  <!-- Generator: Adobe Illustrator 29.0.1, SVG Export Plug-In . SVG Version: 2.1.0 Build 192)  -->
  <defs>
    <style>
      .st0 {
        fill: #21d789;
      }

      .st1, .st2, .st3 {
        stroke: #fff;
      }

      .st1, .st2, .st3, .st4, .st5, .st6 {
        fill: none;
        stroke-linecap: round;
      }

      .st1, .st5 {
        stroke-width: 4px;
      }

      .st7, .st8, .st9, .st10, .st11 {
        display: none;
      }

      .st7, .st8, .st4, .st12, .st5, .st6, .st11 {
        isolation: isolate;
      }

      .st7, .st4, .st12, .st5, .st6, .st11 {
        opacity: .2;
      }

      .st8 {
        opacity: .1;
      }

      .st8, .st13, .st11 {
        fill: #fff;
      }

      .st2, .st3, .st4, .st6 {
        stroke-width: 4px;
      }

      .st2, .st6 {
        stroke-linejoin: bevel;
      }

      .st14 {
        fill: #3f3f3f;
      }

      .st15 {
        fill: #2086e7;
      }

      .st9 {
        fill: #0061a7;
      }

      .st16 {
        fill: #6655e4;
      }

      .st4, .st5, .st6 {
        stroke: #000;
      }

      .st17 {
        fill: #14ddb1;
      }
    </style>
  </defs>
  <path class="st9" d="M50.4,64H13.8c-7.6,0-13.8-6.2-13.8-13.7V13.7C0,6.2,6.2,0,13.7,0h36.5c7.5,0,13.7,6.2,13.7,13.7v36.6c0,7.5-6.2,13.7-13.7,13.7h.1Z"/>
  <g class="st10">
    <ellipse class="st7" cx="31.8" cy="33.3" rx="31.8" ry="31.6"/>
    <ellipse class="st9" cx="31.8" cy="32.1" rx="31.8" ry="31.6"/>
    <path class="st12" d="M8.5,11.8c-1.9,2-3.5,4.3-4.8,6.8h14.9l-6.2,28.2h7l.7-3.4h18.9l-.7,5.6H4.3c1.4,2.5,3.2,4.8,5.3,6.8h44.4c2.1-2,3.8-4.3,5.3-6.8h-14.1l3.2-25.9h-23.8l1-4.5h34.4c-1.3-2.5-2.9-4.7-4.8-6.8H8.5ZM23.1,29.9h17.6l-.8,6.8h-18.2l1.5-6.8Z"/>
    <path class="st13" d="M8.5,10.7c-1.9,2-3.5,4.3-4.8,6.8h14.9l-6.2,28.2h7l.7-3.4h18.9l-.7,5.6H4.3c1.4,2.5,3.2,4.8,5.3,6.8h44.4c2.1-2,3.8-4.3,5.3-6.8h-14.1l3.2-25.9h-23.8l1-4.5h34.4c-1.3-2.5-2.9-4.7-4.8-6.8H8.5ZM23.1,28.8h17.6l-.8,6.8h-18.2l1.5-6.8Z"/>
    <path class="st8" d="M31.8.6C14.2.6,0,14.7,0,32.1c0,.2,0,.4,0,.7C.3,15.6,14.4,1.7,31.8,1.7c17.3,0,31.4,13.7,31.8,30.9,0-.2,0-.3,0-.5C63.6,14.7,49.3.6,31.8.6Z"/>
  </g>
  <g>
    <path class="st7" d="M3.2,65.1c-1.8,0-3.2-1.4-3.2-3.2v-2.3c0,1.8,1.4,3.2,3.2,3.2h57.7c1.8,0,3.2-1.4,3.2-3.2v2.3c0,1.8-1.4,3.2-3.2,3.2H3.2Z"/>
    <path class="st16" d="M32,0H14.3C6.4,0,0,6.4,0,14.3v17.7h32V0Z"/>
    <path class="st0" d="M32,0h17.8c7.9,0,14.2,6.4,14.2,14.2v17.7h-32V0Z"/>
    <path class="st17" d="M32,63.9H14c-7.7,0-14-6.3-14-14v-18h32v32Z"/>
    <path class="st15" d="M32,63.9h17.8c7.8,0,14.2-6.4,14.2-14.2v-17.8h-32v32Z"/>
    <path class="st11" d="M3.2,0C1.4,0,0,1.4,0,3.2v1.1C0,2.6,1.4,1.1,3.2,1.1h57.7c1.8,0,3.2,1.4,3.2,3.2v-1.1c0-1.8-1.4-3.2-3.2-3.2H3.2Z"/>
    <rect class="st14" x="9.2" y="9.1" width="45.8" height="45.7"/>
    <path class="st6" d="M43.5,33.1s0,2.3-4.6,2.3-4.6-4.6-4.6-9.1,0-9.1,4.6-9.1,4.6,2.3,4.6,2.3"/>
    <path class="st2" d="M43.5,32s0,2.3-4.6,2.3-4.6-4.6-4.6-9.1,0-9.1,4.6-9.1,4.6,2.3,4.6,2.3"/>
    <path class="st5" d="M16,49.1h18.3"/>
    <path class="st1" d="M16,48h18.3"/>
    <path class="st4" d="M16,17.1h9.2M20.6,35.4v-18.3"/>
    <path class="st3" d="M16,16h9.2M20.6,34.3V16"/>
  </g>
</svg>