<?xml version="1.0" encoding="UTF-8"?>
<svg id="_图层_1" data-name="图层_1" xmlns="http://www.w3.org/2000/svg" version="1.1" viewBox="0 0 1024 1024" height="64" width="64">
  <!-- Generator: Adobe Illustrator 29.0.1, SVG Export Plug-In . SVG Version: 2.1.0 Build 192)  -->
  <defs>
    <style>
      .st0 {
        fill: #e04c10;
      }

      .st1 {
        fill: #fff;
      }

      .st2 {
        fill: #f3a111;
      }

      .st3 {
        fill: #e85c1d;
      }
    </style>
  </defs>
  <rect class="st1" x="18" y="23" width="988" height="978" rx="141.7" ry="141.7"/>
  <g>
    <path class="st0" d="M823.9,432.4h-102.8c-14,2.3-18,4.5-18,21.4v7.1c0,18.8-11.9,33-28.3,33h-19.9c-15.5,0-27.3-14-27.3-32.5v-7c0-14-4-18.5-15.5-18.5h-188.5c-15.5,0-19.4,4.4-19.4,21v4.4c0,18.5-11.5,32.5-27.3,32.5h-20.6c-15.6,0-27.6-14.4-27.6-33.2v-4.5c0-18.9-4-23.8-19.6-23.8h-103.3c-17.6,0-21.6,4.5-21.6,26.1v324.6c0,36.3,25.3,66,54.2,66h548.5c29.3,0,54.2-29.4,54.2-66v-330c0-13.8-5.9-20.7-17.4-20.7h.3Z"/>
    <path class="st2" d="M205.4,428.8h100.2c15.6-2.2,19.6-4.4,19.6-19.6v-5c0-16.4,12.1-29.7,26.9-29.7h24.6c15.1,0,27.3,13.5,27.3,30.1v5.1c0,10.6,7.8,19.2,17.4,19.2h187.2c8.5,0,15.4-7.6,15.4-17v-6.8c0-17.5,11.4-30.5,27.1-30.5h21.1c15.1,0,27.3,13.5,27.3,30.1v7.2c0,9.4,6.9,17,15.4,17h108.4c9.6,0,17.4-8.6,17.4-19.2v-34.6c0-34.4-25.3-62.2-54.6-62.2H238.6c-29.3.4-54.6,28.2-54.6,62.5v32.2c0,17.2,3.9,21.2,21.4,21.2h0Z"/>
    <path class="st3" d="M377.8,296.7c20.7-2.2,24.3-16.7,24.3-16.7,17.1-51.8,61.1-85.9,110.4-85.9s93.6,35.5,110.4,88c0,0,3.6,16.7,24.3,16.7s20.7-16.7,20.7-16.7c-18.7-79.7-80.5-136.2-155.4-136.2s-138.6,58.7-155.4,136.2c0,0-2,14.9,20.7,14.9h0v-.4Z"/>
    <path class="st3" d="M365.5,391.2c-8.6,0-17.2,10.6-17.2,25.4v30.7c0,14.4,6.9,25.4,17.2,25.4s18.9-10.6,18.9-25.4v-30.7c0-14.4-8.6-25.4-18.9-25.4Z"/>
    <path class="st3" d="M662.8,391.2c-10.3,0-18.9,10.6-18.9,25.4v30.7c0,14.4,8.6,25.4,18.9,25.4s17.2-10.6,17.2-25.4v-30.7c0-14.4-6.9-25.4-17.2-25.4Z"/>
    <path class="st1" d="M289.1,679.6l115.3,100c6.9,6.2,6.9,15.9,0,22.1-6.9,6.2-18.4,6.2-25.6,0l-128.1-111.2c-7.2-5.8-7.2-15.9-.7-22.1,0,0,.3,0,.7-.4l128.1-110.9c6.9-6.2,18.4-6.2,25.6,0,7.2,6.2,7.2,15.9,0,22.1h0l-115.3,100v.4ZM736.3,681.1l-115.6-100c-6.9-6.5-6.2-16.3,1.3-22.5,6.9-5.4,17.4-5.4,24.3,0l128.1,110.9c6.9,6.2,7.2,15.9,0,22.1h0l-128.1,111.6c-6.9,6.2-18.4,6.2-25.6,0s-7.2-15.9,0-22.1l115.6-100h0Z"/>
    <path class="st1" d="M583.2,577.8c5.3,8.7,8.2,18.5,8.5,29,.7,10.9-1.6,21-6.2,31.2-4.6,9.4-10.5,16.7-18.4,21.7-7.6,4.7-15.8,6.9-24.6,6.2-1.3,5.1-3.3,11.2-5.6,18.5-2.3,7.6-4.9,15.6-7.6,23.9-2.6,8.7-5.6,17.4-8.5,26.4-3,9.1-5.6,17.4-8.5,25.4-2.6,8-5.3,14.9-7.6,21-2.3,6.2-3.9,10.5-5.3,13-2.3,5.1-5.9,9.1-9.9,11.6-4.3,2.9-8.5,4.3-13.1,5.1-4.6.7-9.2,0-13.8-1.1s-8.2-3.6-11.2-6.5c-3.9-4-7.2-8.3-9.2-12.7-2-4.3-3.3-8.7-3.6-13-.3-4.3,0-9.1,1-13.8s3-9.4,5.3-14.1c1-2.5,3.3-6.2,6.2-10.9s6.6-10.1,10.5-16.3c3.9-6.2,8.2-12.7,12.8-19.6,4.6-6.9,9.2-13.8,13.8-20.3,4.6-6.5,8.9-13,13.1-18.8,4.3-5.8,7.6-10.9,10.5-15.2-3.3-4.3-6.2-9.1-8.2-14.9s-3.3-11.2-3.9-17c-.7-5.8-.3-11.6.7-17.4,1-5.8,2.6-11.6,5.3-17,2.6-5.4,5.9-10.1,9.9-14.1,3.9-4,8.2-7.2,12.8-9.4s9.5-3.6,14.5-4,10.2,0,15.1,2.2c0,0,0,.4-.3.7,0,0,0,.4-.3.7l-15.4,31.9c-2.3,4.3-3,9.1-1.6,14.1,1,4.7,3.6,8.7,7.2,11.2,3.6,2.9,7.6,3.3,11.5,2.2s6.9-4.3,9.2-8.7l14.5-30.4.7-.7ZM486.2,772.7c1.3-2.9,2-5.8,1-9.1-.7-3.3-2.3-5.8-4.6-7.2-2.3-1.4-4.9-1.8-7.6-1.1s-4.6,2.5-5.9,5.4c-1.3,2.9-2,6.2-1,9.4,1,3.3,2.3,5.8,4.6,7.2,2.3,1.4,4.9,1.8,7.6,1.1s4.6-2.5,5.9-5.4v-.4Z"/>
  </g>
</svg>
