<?xml version="1.0" encoding="UTF-8"?>
<svg id="_图层_1" xmlns="http://www.w3.org/2000/svg" version="1.1" viewBox="0 0 64 64" width="64" height="64">
  <!-- Generator: Adobe Illustrator 29.0.1, SVG Export Plug-In . SVG Version: 2.1.0 Build 192)  -->
  <defs>
    <style>
      .st0, .st1, .st2, .st3, .st4, .st5, .st6, .st7 {
        isolation: isolate;
      }

      .st0, .st1, .st8, .st9, .st6, .st10, .st11 {
        display: none;
      }

      .st0, .st2, .st4, .st5, .st6 {
        opacity: .2;
      }

      .st1, .st12, .st3, .st5, .st6, .st7 {
        fill: #fff;
      }

      .st1, .st3, .st7 {
        opacity: .1;
      }

      .st13 {
        fill: #115ccc;
      }

      .st13, .st2, .st3 {
        fill-rule: evenodd;
      }

      .st14 {
        fill: #5fd6ff;
      }

      .st15 {
        fill: #346f8a;
      }

      .st16, .st8 {
        fill: #0068ce;
      }

      .st17 {
        fill: #3387f5;
      }

      .st18 {
        fill: #e4e4e4;
      }

      .st10 {
        fill: #4f4f4f;
      }

      .st11 {
        fill: #653d32;
      }
    </style>
  </defs>
  <path class="st16" d="M50.5,64H13.9c-7.6,0-13.9-6.2-13.9-13.7V13.7C0,6.2,6.3,0,13.8,0h36.6c7.5,0,13.7,6.2,13.7,13.7v36.6c0,7.5-6.2,13.7-13.7,13.7h.1Z"/>
  <g class="st9">
    <path class="st2" d="M41.7,56.9c1.1,0,2-.9,2-2,0-9,1.7-15.6,3.4-18.2,1-1.5,1.7-2.3,2.9-2.8,1.2-.6,3.3-.9,6.3-.9,1.1,0,2-.9,2-2V14.7c0-1.1-.9-2-2-2-11,0-21,4.8-26.5,13.1-5.4,8.2-6.8,18.1-6.8,29.1,0,1.1.9,2,2,2h16.6Z"/>
    <path class="st4" d="M41.8,56.9c1.1,0,2-.9,2-2,0-.3,0-.6-.2-.9L24.2,13.8c-.3-.7-1-1.2-1.8-1.2H5.5c-1.1,0-2,.9-2,2,0,.3,0,.6.2.9l19.3,40.2c.3.7,1,1.2,1.8,1.2h16.9Z"/>
    <path class="st13" d="M41.7,56c1.1,0,2-.9,2-2,0-9,1.7-15.6,3.4-18.2,1-1.5,1.7-2.3,2.9-2.8,1.2-.6,3.3-.9,6.3-.9,1.1,0,2-.9,2-2V13.8c0-1.1-.9-2-2-2-11,0-21,4.8-26.5,13.1-5.4,8.2-6.8,18.1-6.8,29.1,0,1.1.9,2,2,2h16.6Z"/>
    <path class="st3" d="M56.4,11.8c-11,0-21,4.8-26.5,13.1-5.4,8.2-6.8,18.1-6.8,29.1,0,0,0,0,0,.1,0-10.7,1.5-20.4,6.8-28.3,5.5-8.3,15.5-13.1,26.5-13.1,1.1,0,2,.9,2,2v-.9c0-1.1-.9-2-2-2Z"/>
    <path class="st17" d="M41.8,56c1.1,0,2-.9,2-2,0-.3,0-.6-.2-.9L24.2,12.9c-.3-.7-1-1.2-1.8-1.2H5.5c-1.1,0-2,.9-2,2,0,.3,0,.6.2.9l19.3,40.2c.3.7,1,1.2,1.8,1.2h16.9Z"/>
    <path class="st5" d="M5.5,11.8c-1.1,0-2,.9-2,2,0,.2,0,.3,0,.5.2-.9,1-1.6,2-1.6h16.9c.8,0,1.5.4,1.8,1.2l19.3,40.2c0,.1.1.3.2.4.1-.5,0-.9-.2-1.3L24.2,12.9c-.3-.7-1-1.2-1.8-1.2H5.5Z"/>
  </g>
  <g class="st9">
    <path class="st0" d="M0,31.7c0,.4,0,.9,0,1.3,0,17.6,14.3,31.9,32,31.9s32-14.3,32-31.9c0-.3,0-.6,0-.9-.7,17.1-14.8,30.5-32,30.6C14.7,62.6.6,48.9,0,31.7h0Z"/>
    <path class="st10" d="M32,0C14.3,0,0,14.3,0,31.9s14.3,31.9,32,31.9,32-14.3,32-31.9S49.7,0,32,0Z"/>
    <path class="st1" d="M32,0C14.3,0,0,14.3,0,31.9c0,.2,0,.3,0,.5C.4,15,14.6,1.1,32,1.1h0c17.5,0,31.7,14,32,31.4,0-.2,0-.4,0-.7C64,14.3,49.7,0,32,0h0Z"/>
    <path class="st4" d="M21.1,17.1c-.5,0-1.1,0-1.6,0-2.9,0-5.9,0-8.8,0-2,0-1.6,2.5-1,3.5,6.5,11.6,14.2,24.5,21.4,36.8,1.4,2,2.8-.7,3.6-1.9,2-3,3.6-6.1,5.2-9.2.7-2.1-1.3-3.7-1.9-5.5-4.2-7.5-8.7-14.8-13-22.3-1-1.2-2.3-1.4-3.8-1.4ZM42.4,17.1c-2.2,0-.8,2.5-.8,2.5,0,0,3.3,6.2,5.2,9.6,1.9,3.4,2.9.5,3.4-.5,1.7-3.4,3.2-6.9,4.4-9.3,1.2-2.3-1.3-2.3-1.3-2.3h-10.9Z"/>
    <path class="st18" d="M21.1,15.9c-.5,0-1.1,0-1.6,0-2.9,0-5.9,0-8.8,0-2,0-1.6,2.5-1,3.5,6.5,11.6,14.2,24.5,21.4,36.8,1.4,2,2.8-.7,3.6-1.9,2-3,3.6-6.1,5.2-9.2.7-2.1-1.3-3.7-1.9-5.5-4.2-7.5-8.7-14.8-13-22.3-1-1.2-2.3-1.4-3.8-1.4ZM42.4,15.9c-2.2,0-.8,2.5-.8,2.5,0,0,3.3,6.2,5.2,9.6,1.9,3.4,2.9.5,3.4-.5,1.7-3.4,3.2-6.9,4.4-9.3,1.2-2.3-1.3-2.3-1.3-2.3h-10.9Z"/>
    <path class="st5" d="M21.1,15.9c-.5,0-1.1,0-1.6,0-2.9,0-5.9,0-8.8,0-1.4,0-1.6,1.2-1.4,2.2.1-.6.5-1.1,1.4-1.1,2.9,0,5.9,0,8.8,0,.6,0,1.1,0,1.6,0,1.5,0,2.8.2,3.8,1.4,4.3,7.4,8.8,14.8,13,22.3.5,1.3,1.7,2.6,2,4,.4-1.9-1.4-3.4-2-5.1-4.2-7.5-8.7-14.8-13-22.3-1-1.2-2.3-1.4-3.8-1.4ZM42.4,15.9c-1.4,0-1.3,1-1.1,1.7.1-.3.5-.6,1.1-.6h10.9s1.1,0,1.5.7c.6-1.8-1.5-1.9-1.5-1.9h-10.9Z"/>
  </g>
  <g class="st9">
    <rect class="st0" y="1.1" width="64" height="64" rx="19.2" ry="19.2"/>
    <path class="st11" d="M19.2,0h25.6c10.6,0,19.2,8.6,19.2,19.2v25.6c0,10.6-8.6,19.2-19.2,19.2h-25.6c-10.6,0-19.2-8.6-19.2-19.2v-25.6C0,8.6,8.6,0,19.2,0Z"/>
    <path class="st4" d="M19.4,8h25.1c7.1,0,12.6,5.5,12.6,12.6v25.2c0,7.1-5.5,12.6-12.6,12.6h-25.1c-7.1,0-12.6-5.5-12.6-12.6v-25.2c0-7.1,5.5-12.6,12.6-12.6Z"/>
    <path class="st15" d="M19.4,6.9h25.1c7.1,0,12.6,5.5,12.6,12.6v25.2c0,7.1-5.5,12.6-12.6,12.6h-25.1c-7.1,0-12.6-5.5-12.6-12.6v-25.2c0-7.1,5.5-12.6,12.6-12.6Z"/>
    <path class="st4" d="M17.3,14.9c-2.4,0-3.6.8-3.6,3.4s1,3.4,3.1,3.4h.5l9.2,26.7c.8,2.3,1,3,3.7,3h3.6c2.7,0,2.9-.8,3.7-3l9.2-26.7h.5c2.1,0,3.1-1.2,3.1-3.4s-1.2-3.4-3.6-3.4h-7.6c-2.4,0-3.7.9-3.7,3.4s1.3,3.4,3.2,3.4l-6.7,20.6-6.7-20.6c2,0,3.2-.9,3.2-3.4s-1.3-3.4-3.7-3.4h-7.6Z"/>
    <path class="st14" d="M17.3,13.7c-2.4,0-3.6.8-3.6,3.4s1,3.4,3.1,3.4h.5l9.2,26.7c.8,2.3,1,3,3.7,3h3.6c2.7,0,2.9-.8,3.7-3l9.2-26.7h.5c2.1,0,3.1-1.2,3.1-3.4s-1.2-3.4-3.6-3.4h-7.6c-2.4,0-3.7.9-3.7,3.4s1.3,3.4,3.2,3.4l-6.7,20.6-6.7-20.6c2,0,3.2-.9,3.2-3.4s-1.3-3.4-3.7-3.4h-7.6Z"/>
    <path class="st1" d="M19.2,0C8.6,0,0,8.6,0,19.2v1.1C0,9.7,8.6,1.1,19.2,1.1h25.6c10.6,0,19.2,8.6,19.2,19.2v-1.1c0-10.6-8.6-19.2-19.2-19.2h-25.6Z"/>
    <path class="st7" d="M19.4,6.9c-7.1,0-12.6,5.5-12.6,12.6v1.1c0-7.1,5.5-12.6,12.6-12.6h25.1c7.1,0,12.6,5.5,12.6,12.6v-1.1c0-7.1-5.5-12.6-12.6-12.6h-25.1Z"/>
    <path class="st5" d="M17.3,13.7c-2.4,0-3.6.8-3.6,3.4s0,.4,0,.6c.2-2.1,1.3-2.8,3.6-2.8h7.6c2.2,0,3.5.8,3.7,2.8,0-.2,0-.4,0-.6,0-2.5-1.3-3.4-3.7-3.4h-7.6ZM39.1,13.7c-2.4,0-3.7.9-3.7,3.4s0,.4,0,.6c.2-2.1,1.4-2.8,3.7-2.8h7.6c2.2,0,3.4.7,3.6,2.8,0-.2,0-.4,0-.6,0-2.6-1.2-3.4-3.6-3.4h-7.6ZM25.7,21.6h-.4s6.7,20.7,6.7,20.7l6.7-20.6h-.4s-6.3,19.5-6.3,19.5l-6.3-19.5Z"/>
  </g>
  <g>
    <ellipse class="st0" cx="31.8" cy="32.9" rx="31.8" ry="31.8"/>
    <ellipse class="st8" cx="31.8" cy="31.8" rx="31.8" ry="31.8"/>
    <path class="st4" d="M44.8,11.3l-6.9,6.9,8.6,8.5,6.9-6.9-8.6-8.5ZM45.2,15l1.7,1.7-1.4,1.4-1.7-1.7,1.4-1.4ZM47.9,17.6l1.7,1.7-1.4,1.4-1.7-1.7,1.4-1.4ZM33.7,17.9l-22.5,22.4c-1.2,1.2-1.2,3.2,0,4.4l8.9,8.8c1.2,1.2,3.2,1.2,4.4,0l22.5-22.4-13.3-13.3ZM37.3,27.5l-.9,3.3-.9-.9-8,8h4.3c.3,0,.6,0,.9-.3,1.2-1.2,1.7-1.7,1.7-1.7l-.7-.7,2.1-2.1,2.1,2.1-2.1,2.1-.7-.7-1.7,1.6c-.5.5-1.2.7-1.8.7,0,0-4.5-.1-4.5-.1-.3,0-.6.2-.9.4l-2.6,2.6s0,0,0,0l-1.2,1.2c.6.9.5,2.2-.3,3.1-1,1-2.5,1-3.5,0-1-1-1-2.5,0-3.5.8-.8,2.1-.9,3.1-.3l1.2-1.2c.2-.2.4-.6.4-.9,0,0-.1-4.5-.1-4.5h0c0-.6.2-1.3.7-1.8l1.7-1.7c-.3-.5-.2-1.2.3-1.7.6-.6,1.5-.6,2.1,0,.6.6.6,1.5,0,2.1-.5.5-1.1.5-1.7.3-.2.2-.8.8-1.7,1.7-.2.2-.4.6-.4.9v4.2c.1,0,10.7-10.6,10.7-10.6l-.9-.8,3.3-.9Z"/>
    <path class="st12" d="M44.8,10.2l-6.9,6.9,8.6,8.5,6.9-6.9-8.6-8.5ZM45.2,13.8l1.7,1.7-1.4,1.4-1.7-1.7,1.4-1.4ZM47.9,16.5l1.7,1.7-1.4,1.4-1.7-1.7,1.4-1.4ZM33.7,16.8l-22.5,22.4c-1.2,1.2-1.2,3.2,0,4.4l8.9,8.8c1.2,1.2,3.2,1.2,4.4,0l22.5-22.4-13.3-13.3ZM37.3,26.4l-.9,3.3-.9-.9-8,8h4.3c.3,0,.6,0,.9-.3,1.2-1.2,1.7-1.7,1.7-1.7l-.7-.7,2.1-2.1,2.1,2.1-2.1,2.1-.7-.7-1.7,1.6c-.5.5-1.2.7-1.8.7,0,0-4.5-.1-4.5-.1-.3,0-.6.2-.9.4l-2.6,2.6s0,0,0,0l-1.2,1.2c.6.9.5,2.2-.3,3.1-1,1-2.5,1-3.5,0-1-1-1-2.5,0-3.5.8-.8,2.1-.9,3.1-.3l1.2-1.2c.2-.2.4-.6.4-.9,0,0-.1-4.5-.1-4.5h0c0-.6.2-1.3.7-1.8l1.7-1.7c-.3-.5-.2-1.2.3-1.7.6-.6,1.5-.6,2.1,0,.6.6.6,1.5,0,2.1-.5.5-1.1.5-1.7.3-.2.2-.8.8-1.7,1.7-.2.2-.4.6-.4.9v4.2c.1,0,10.7-10.6,10.7-10.6l-.9-.8,3.3-.9Z"/>
    <path class="st6" d="M31.8,0C14.2,0,0,14.2,0,31.8c0,.2,0,.4,0,.5C.4,15,14.5,1.1,31.8,1.1c17.2,0,31.3,13.7,31.8,31,0,0,0-.2,0-.3C63.6,14.2,49.3,0,31.8,0Z"/>
  </g>
</svg>