<?xml version="1.0" encoding="UTF-8"?>
<svg id="_图层_1" data-name="图层_1" xmlns="http://www.w3.org/2000/svg" version="1.1" xmlns:xlink="http://www.w3.org/1999/xlink" viewBox="0 0 200 200" width="64" height="64">
  <!-- Generator: Adobe Illustrator 29.0.1, SVG Export Plug-In . SVG Version: 2.1.0 Build 192)  -->
  <defs>
    <style>
      .st0 {
        fill: #7bbe4d;
      }

      .st1 {
        fill: #ff8802;
      }

      .st2, .st3, .st4, .st5, .st6, .st7, .st8, .st9, .st10, .st11, .st12 {
        isolation: isolate;
      }

      .st2, .st3, .st13, .st14, .st10, .st15, .st16 {
        display: none;
      }

      .st2, .st4, .st6, .st8, .st9, .st10, .st11 {
        opacity: .2;
      }

      .st3, .st17, .st18, .st6, .st9, .st10, .st12 {
        fill: #fff;
      }

      .st3, .st5, .st12 {
        opacity: .1;
      }

      .st4, .st18, .st19, .st6, .st20 {
        fill-rule: evenodd;
      }

      .st21 {
        fill: #3ddc84;
      }

      .st22 {
        fill: #e74c3c;
      }

      .st23 {
        fill: #008eda;
      }

      .st24 {
        fill: #0072b0;
      }

      .st25 {
        fill: #1eacf8;
      }

      .st19 {
        fill: #fffee4;
      }

      .st26 {
        stroke: #00e441;
      }

      .st26, .st11 {
        fill: none;
        stroke-linejoin: round;
        stroke-width: 6px;
      }

      .st27 {
        fill: #ffc802;
      }

      .st7 {
        opacity: .2;
      }

      .st28 {
        fill: url(#_未命名的渐变_23);
      }

      .st13 {
        fill: #ff766a;
      }

      .st29 {
        fill: #d22f7a;
      }

      .st11 {
        stroke: #000;
      }

      .st30 {
        fill: #e4e4e4;
      }

      .st15 {
        fill: #4f4f4f;
      }

      .st20 {
        fill: #f80;
      }

      .st31 {
        fill: #e7521d;
      }

      .st32 {
        fill: url(#_未命名的渐变_231);
      }

      .st16 {
        fill: #2d48a6;
      }
    </style>
    <linearGradient id="_未命名的渐变_23" data-name="未命名的渐变 23" x1="68.5" y1="106" x2="130.1" y2="106" gradientUnits="userSpaceOnUse">
      <stop offset="0" stop-color="#6aa5ff"/>
      <stop offset="1" stop-color="#3f76ff"/>
    </linearGradient>
    <linearGradient id="_未命名的渐变_231" data-name="未命名的渐变 23" x1="88.2" y1="106" x2="110.4" y2="106" xlink:href="#_未命名的渐变_23"/>
  </defs>
  <path class="st17" d="M157.3,200H43.3c-23.5,0-42.7-19.3-42.7-42.8V43C.6,19.5,19.8.2,43.3.2h114c23.5,0,42.7,19.3,42.7,42.8v114.2c0,23.5-19.2,42.8-42.7,42.8h0Z"/>
  <g class="st14">
    <path class="st17" d="M184.1,110.5c0-12.2-5.3-23.8-14.6-31.9-9.1-7.9-21.3-11.4-33.4-9.5-4.4-15.7-17.6-27.6-34.1-30.7-16.3-2.8-32.9,3.9-42.3,17.2-5.6,7.8-8.6,17.1-8.4,26.7-18.3,3.4-30.9,19.7-29.2,37.8,1.1,18,16.3,32.2,34.8,32.5h90.3c.9,0,1.8-.2,2.5-.6,20.1-4,34.5-21.3,34.2-41.3Z"/>
  </g>
  <g class="st14">
    <path class="st28" d="M120.9,79.8h-43.1c-5.1,0-9.3,4.3-9.3,9.5v33.5c0,5.2,4.2,9.5,9.3,9.5h43.1c5.1,0,9.3-4.3,9.3-9.5v-33.5c0-5.2-4.2-9.5-9.3-9.5ZM72.2,107.9h4.5v6.8h-4.5v-6.8ZM76.7,104.1h-4.5v-6.8h4.5v6.8ZM80.4,83.6h37.8v44.9h-37.8s0-44.9,0-44.9ZM126.4,104.1h-4.5v-6.8h4.5v6.8ZM121.9,107.9h4.5v6.8h-4.5v-6.8ZM126.4,89.3v4.3h-4.5v-9.9c2.6.5,4.5,2.8,4.5,5.6ZM76.7,83.7v9.9h-4.5v-4.3c0-2.8,2-5.1,4.5-5.6ZM72.2,122.8v-4.3h4.5v9.9c-2.6-.5-4.5-2.8-4.5-5.6ZM121.9,128.4v-9.9h4.5v4.3c0,2.8-2,5.1-4.5,5.6Z"/>
    <path class="st32" d="M108.2,102.2l-13.5-8c-1.3-.8-3-.8-4.3,0s-2.2,2.2-2.2,3.8v16.1c0,1.6.8,3,2.2,3.8.7.4,1.4.6,2.2.6s1.5-.2,2.2-.6l13.5-8c1.3-.8,2.2-2.2,2.2-3.8s-.8-3-2.2-3.8ZM106.4,106.6l-13.5,8c-.3.2-.5,0-.6,0-.1,0-.3-.2-.3-.5v-16.1c0-.3.2-.5.3-.5,0,0,.2,0,.3,0s.2,0,.3,0l13.5,8c.3.2.3.4.3.5,0,.1,0,.4-.3.5h0Z"/>
  </g>
  <g class="st14">
    <path class="st8" d="M72.5,36.7c-1.2,0-2.1.8-2.2,1.8,0,.4.1.7.3,1l7.2,10.1c-12.6,6.7-20.2,18.7-20.2,31.5,0,20.5,19,37.1,42.4,37.1h0c23.4,0,42.4-16.6,42.4-37.1h0c0-12.9-7.7-24.8-20.2-31.5l7.2-10.1c.6-.9.3-2-.6-2.6-.4-.2-.8-.3-1.2-.3-.7,0-1.4.4-1.8.9l-7.3,10.3c-5.7-2.4-12.1-3.7-18.5-3.7-6.4,0-12.7,1.3-18.5,3.7l-7.3-10.2c-.4-.5-1-.9-1.8-.9Z"/>
    <path class="st8" d="M165,155.3H48c-7.2,0-13-5.1-13.1-11.3v-79.1c0,6.6,6.4,11.8,13.9,11.4h97c7.8,0,19.1-.4,19.1,12.5v66.6Z"/>
    <path class="st1" d="M82.7,54h-34.9c-7.1,0-12.8,4.4-12.8,9.9-.2,5.3,5.2,9.7,12,9.9.1,0,.3,0,.4,0h35.6l-.4-19.8Z"/>
    <path class="st8" d="M47.8,54c-7.1,0-12.8,4.4-12.8,9.9,0,.5,0,.9,0,1.4.7-5,6.2-8.8,12.7-8.8h34.9l.3,17.3h0l-.4-19.8h-34.9Z"/>
    <path class="st21" d="M72.5,31.7c-1.2,0-2.1.8-2.2,1.8,0,.4.1.7.3,1l7.2,10.1c-12.6,6.7-20.2,18.7-20.2,31.5,0,20.5,19,37.1,42.4,37.1s42.4-16.6,42.4-37.1c0-12.9-7.7-24.8-20.2-31.5l7.2-10.1c.6-.9.3-2-.6-2.6-.4-.2-.8-.3-1.2-.3-.7,0-1.4.4-1.8.9l-7.3,10.3c-5.7-2.4-12.1-3.7-18.5-3.7-6.4,0-12.7,1.3-18.5,3.7l-7.3-10.2c-.4-.5-1-.9-1.8-.9Z"/>
    <path class="st9" d="M72.5,31.7c-1.2,0-2.1.8-2.2,1.8,0,.4.1.7.3,1l.2.3c.4-.4,1-.7,1.7-.6.7,0,1.4.4,1.8.9l7.3,10.2c5.8-2.4,12.1-3.7,18.5-3.7,6.4,0,12.7,1.3,18.5,3.7l7.3-10.3c.4-.5,1-.9,1.8-.9.6,0,1.2.2,1.7.6l.2-.3c.6-.9.3-2-.6-2.6-.4-.2-.8-.3-1.2-.3-.7,0-1.4.4-1.8.9l-7.3,10.3c-5.7-2.4-12.1-3.7-18.5-3.7-6.4,0-12.7,1.3-18.5,3.7l-7.3-10.2c-.4-.5-1-.9-1.8-.9ZM123.4,45.4l-1.2,1.7c12.2,6.6,19.8,18,20.2,30.5,0-.5,0-1,0-1.5,0-12.4-7.2-24-19-30.8ZM76.6,45.4c-11.8,6.8-19,18.4-19,30.8,0,.4,0,.7,0,1.1.5-12.4,8.1-23.7,20.2-30.2l-1.2-1.7Z"/>
    <path class="st27" d="M165,152.8H48c-7.2,0-13-5.1-13.1-11.3V62.4c0,6.6,6.4,11.8,13.9,11.4h97c7.8,0,19.1-.4,19.1,12.5v66.6Z"/>
    <path class="st8" d="M84.7,56.4c-1.3,0-2.5.5-3.2,1.3-1.6,1.4-1.6,3.6,0,5,.8.7,1.8,1.1,2.9,1.1,1.1,0,2.1-.4,2.9-1,1.8-1.3,2-3.5.6-5.1-.8-.8-1.9-1.3-3.1-1.3ZM115.6,56.4c-1.1,0-2.3.4-3.1,1.1-1.7,1.4-1.7,3.8,0,5.2.8.7,1.9,1.1,3.1,1.1,2.3,0,4.2-1.6,4.2-3.7h0c0-2-1.9-3.7-4.2-3.7Z"/>
    <path class="st17" d="M115.6,61.4c-2.3,0-4.2-1.6-4.3-3.6,0-1,.4-2,1.3-2.7,1.7-1.5,4.4-1.4,6,0,.8.7,1.2,1.6,1.2,2.6,0,2-1.9,3.7-4.2,3.7"/>
    <path class="st31" d="M104.3,99.8c-3.9,0-7.1,2.7-7.1,6.1,0,3.4,3.1,6.2,6.9,6.3,1,0,2-.2,2.9-.5,3.6-1.3,5.3-4.8,3.9-8-1.1-2.4-3.7-4-6.6-3.9Z"/>
    <path class="st17" d="M84.3,61.4c-2.2,0-4.1-1.6-4.1-3.5,0-1,.4-1.9,1.2-2.6,1.4-1.5,4-1.8,5.8-.5,1.8,1.3,2,3.5.6,5.1-.2.2-.4.3-.6.5-.8.7-1.8,1-2.9,1"/>
    <path class="st5" d="M100,91c-1.6,0-2.8,1.1-2.8,2.5h0v2.7c-6.6,1.2-11.3,6.2-11.3,12.1,0,3.6,1.8,7.1,5,9.4l-26.9,49.2c-1.1,1.8-.9,4,.5,5.6,1.4,1.7,3.7,2.6,6.2,2.4,2.4-.2,4.5-1.5,5.5-3.3l18.9-33.3c.9-1.5,2.8-2.6,4.9-2.6,0,0,.1,0,.2,0,0,0,.1,0,.2,0,2.1,0,4,1,4.9,2.6l18.9,33.3c1,1.9,3.1,3.1,5.5,3.3,2.4.2,4.8-.7,6.2-2.4,1.4-1.7,1.6-3.8.5-5.6l-26.9-49.2c3.2-2.3,5-5.8,5-9.4,0-5.9-4.7-10.9-11.3-12.1v-2.7c0-1.4-1.2-2.5-2.8-2.5,0,0,0,0,0,0ZM100,100.9c4.7,0,8.5,3.3,8.5,7.4h0c0,4.1-3.8,7.4-8.5,7.4s-8.5-3.3-8.5-7.4c0-4.1,3.8-7.4,8.5-7.4Z"/>
    <path class="st1" d="M100,88.5c-1.6,0-2.8,1.1-2.8,2.5h0v2.7c-6.6,1.2-11.3,6.2-11.3,12.1,0,3.6,1.8,7.1,5,9.4l-26.9,49.2c-1.1,1.8-.9,4,.5,5.6,1.4,1.7,3.7,2.6,6.2,2.4,2.4-.2,4.5-1.5,5.5-3.3l18.9-33.3c.9-1.5,2.8-2.6,4.9-2.6,0,0,.1,0,.2,0,0,0,.1,0,.2,0,2.1,0,4,1,4.9,2.6l18.9,33.3c1,1.9,3.1,3.1,5.5,3.3,2.4.2,4.8-.7,6.2-2.4,1.4-1.7,1.6-3.8.5-5.6l-26.9-49.2c3.2-2.3,5-5.8,5-9.4,0-5.9-4.7-10.9-11.3-12.1v-2.7c0-1.4-1.2-2.5-2.8-2.5,0,0,0,0,0,0ZM100,98.4c4.7,0,8.5,3.3,8.5,7.4h0c0,4.1-3.8,7.4-8.5,7.4h0c-4.7,0-8.5-3.3-8.5-7.4h0c0-4.1,3.8-7.4,8.5-7.4Z"/>
    <path class="st8" d="M153.8,96h-5.1c-.4,0-.6.2-.6.6v73c0,.3.3.6.6.6h5.3c6.1,0,11.1-4.6,11.1-10.2v-74.5c0,5.7-5,10.7-11.2,10.6Z"/>
    <path class="st1" d="M153.8,93.5h-5.1c-.4,0-.6.2-.6.6v73c0,.3.3.6.6.6h5.3c6.1,0,11.1-4.6,11.1-10.2v-74.5c0,5.7-5,10.7-11.2,10.6Z"/>
  </g>
  <g class="st14">
    <path class="st8" d="M104,46.1c-8.1,0-16.3,1.5-24.2,4.7-31.8,13-46.7,48.8-33.5,80.1,13.2,31.4,49.4,46.1,81.1,33.1,31.8-13,46.7-48.8,33.5-80.1-9.9-23.5-32.7-37.7-56.9-37.8ZM103.6,74.4c18.5,0,33.4,14.8,33.4,33s-15,33-33.4,33-33.4-14.8-33.4-33,15-33,33.4-33Z"/>
    <path class="st30" d="M104,43.7c-8.1,0-16.3,1.5-24.2,4.7-31.8,13-46.7,48.8-33.5,80.1,13.2,31.4,49.4,46.1,81.1,33.1,31.8-13,46.7-48.8,33.5-80.1-9.9-23.5-32.7-37.7-56.9-37.8ZM103.6,72.1c18.5,0,33.4,14.8,33.4,33s-15,33-33.4,33-33.4-14.8-33.4-33,15-33,33.4-33Z"/>
    <path class="st9" d="M104,43.7c-8.1,0-16.3,1.5-24.2,4.7-24.3,10-38.7,33.2-38.3,57.7.5-23.6,14.8-45.7,38.3-55.3,7.9-3.3,16.1-4.8,24.2-4.7,24.2.1,47,14.3,56.9,37.8,3.1,7.4,4.6,15,4.8,22.5.2-8.3-1.3-16.7-4.8-24.8-9.9-23.5-32.7-37.7-56.9-37.8ZM136.9,106.1c-.5,17.8-15.3,32-33.4,32.1-17.9,0-32.6-14-33.4-31.7,0,.3,0,.6,0,1,0,18.2,15,33,33.4,33s33.4-14.8,33.4-33c0-.5,0-.9,0-1.4Z"/>
    <path class="st8" d="M104,39c-7.7,0-15.5,1.3-23.1,4.2-3,1.1-4.5,4.5-3.4,7.5l10.3,26.9c1.1,3,4.5,4.5,7.5,3.3,0,0,0,0,0,0,2.6-1,5.4-1.5,8.2-1.5,2.8,0,5.6.5,8.2,1.5,3,1.1,6.3-.3,7.5-3.3,0,0,0,0,0,0l10.3-27c1.1-3-.4-6.3-3.3-7.5,0,0,0,0,0,0-7-2.7-14.5-4.2-22.3-4.2ZM44,81.4c-2.4,0-4.6,1.5-5.4,3.7-2.9,7.5-4.3,15.2-4.3,22.8,0,7.6,1.6,15,4.3,22,1.1,3,4.5,4.4,7.5,3.3,0,0,0,0,0,0l27.3-10.2c3-1.1,4.5-4.4,3.4-7.4,0,0,0,0,0,0-1-2.6-1.5-5.3-1.6-8.1,0-2.8.5-5.5,1.5-8.1,1.1-3-.4-6.3-3.4-7.4,0,0,0,0,0,0l-27.3-10.2c-.7-.3-1.4-.4-2.1-.4ZM163.1,81.4c-.7,0-1.4.1-2.1.4l-27.3,10.2c-3,1.1-4.5,4.4-3.4,7.4h0c1,2.6,1.5,5.4,1.5,8.1,0,2.8-.5,5.5-1.6,8.1-1.2,2.9.3,6.3,3.4,7.4,0,0,0,0,0,0l27.3,10.2c3,1.1,6.4-.4,7.5-3.3,0,0,0,0,0,0,2.7-6.9,4.2-14.4,4.3-22,0-7.6-1.4-15.3-4.3-22.8-.9-2.2-3-3.7-5.4-3.7ZM114,133.5c-.8,0-1.5.1-2.3.4-2.6,1-5.4,1.5-8.2,1.5-2.8,0-5.6-.5-8.2-1.5-3-1.1-6.3.4-7.5,3.3,0,0,0,0,0,0l-10.3,26.9c-1.1,3,.4,6.3,3.4,7.5,7.6,2.9,15.4,4.3,23.1,4.2,7.7,0,15.2-1.5,22.3-4.2,3-1.1,4.5-4.5,3.4-7.5,0,0,0,0,0,0l-10.3-27c-.8-2.2-2.9-3.6-5.2-3.7Z"/>
    <path class="st22" d="M104,36.7c-7.7,0-15.5,1.3-23.1,4.2-3,1.1-4.5,4.5-3.4,7.5l10.3,26.9c1.1,3,4.5,4.5,7.5,3.3,0,0,0,0,0,0,2.6-1,5.4-1.5,8.2-1.5,2.8,0,5.6.5,8.2,1.5,3,1.1,6.3-.3,7.5-3.3,0,0,0,0,0,0l10.3-27c1.1-3-.4-6.3-3.3-7.5,0,0,0,0,0,0-7-2.7-14.5-4.2-22.3-4.2ZM44,79c-2.4,0-4.6,1.5-5.4,3.7-2.9,7.5-4.3,15.2-4.3,22.8,0,7.6,1.6,15,4.3,22,1.1,3,4.5,4.4,7.5,3.3,0,0,0,0,0,0l27.3-10.2c3-1.1,4.5-4.4,3.4-7.4,0,0,0,0,0,0-1-2.6-1.5-5.3-1.6-8.1,0-2.8.5-5.5,1.5-8.1,1.1-3-.4-6.3-3.4-7.4,0,0,0,0,0,0l-27.3-10.2c-.7-.3-1.4-.4-2.1-.4ZM163.1,79c-.7,0-1.4.1-2.1.4l-27.3,10.2c-3,1.1-4.5,4.4-3.4,7.4h0c1,2.6,1.5,5.4,1.5,8.1,0,2.8-.5,5.5-1.6,8.1-1.2,2.9.3,6.3,3.4,7.4,0,0,0,0,0,0l27.3,10.2c3,1.1,6.4-.4,7.5-3.3,0,0,0,0,0,0,2.7-6.9,4.2-14.4,4.3-22,0-7.6-1.4-15.3-4.3-22.8-.9-2.2-3-3.7-5.4-3.7ZM114,131.2c-.8,0-1.5.1-2.3.4-2.6,1-5.4,1.5-8.2,1.5-2.8,0-5.6-.5-8.2-1.5-3-1.1-6.3.4-7.5,3.3,0,0,0,0,0,0l-10.3,26.9c-1.1,3,.4,6.3,3.4,7.5,7.6,2.9,15.4,4.3,23.1,4.2,7.7,0,15.2-1.5,22.3-4.2,3-1.1,4.5-4.5,3.4-7.5,0,0,0,0,0,0l-10.3-27c-.8-2.2-2.9-3.6-5.2-3.7Z"/>
  </g>
  <g class="st14">
    <path class="st13" d="M13.3,17.6c-5.4,0-9.7,4.1-9.7,9.1v100.5h180.8V26.7c0-5.1-4.3-9.1-9.7-9.1,0,0-161.4,0-161.4,0ZM181.8,160.7c-1.6,1.5-4,2.5-6.5,2.5l-162,.6h161.4c2.8,0,5.3-1.2,7.1-3Z"/>
    <path class="st10" d="M13.3,17.6c-5.4,0-9.7,4.1-9.7,9.1v3c0-5.1,4.3-9.1,9.7-9.1h161.4c5.4,0,9.7,4.1,9.7,9.1v-3c0-5.1-4.3-9.1-9.7-9.1H13.3Z"/>
    <path class="st4" d="M132.8,51.1c14.3,0,25.8,10.9,25.8,24.4s-11.6,24.4-25.8,24.4-25.8-10.9-25.8-24.4,11.6-24.4,25.8-24.4Z"/>
    <path class="st19" d="M132.8,48c14.3,0,25.8,10.9,25.8,24.4s-11.6,24.4-25.8,24.4-25.8-10.9-25.8-24.4,11.6-24.4,25.8-24.4Z"/>
    <path class="st29" d="M3.7,127.2v27.4s0,9.2,9.7,9.1l162.1-.6c5,0,9-3.8,9-8.5v-27.4H3.7Z"/>
    <path d="M3.7,127.2v-4.9s13-8.1,16.7-8.8c3.7-.7,8-.1,12.4.7,4.4.8,11.1,1.9,13.2,1.9,2.1,0,5.8-.2,10.2-.4,4.4-.2,11.6-.5,13.8-.4,2.3,0,7.9.3,13.9.6,6,.3,14.2.9,16.1,1.1,1.9.2,4.1.5,6.6.8,2.5.3,6.8.8,8.3.9,1.5.1,5.1.6,9.2.9,4.1.4,10.7.5,12.6.3,1.9-.1,5.9-1.5,10.3-2.7,4.4-1.2,9.3-2.3,13-2.1,3.7.3,24.6,7.1,24.6,7.1v4.9H3.7Z"/>
    <path class="st8" d="M3.6,154.6v3s0,9.2,9.7,9.1l162.1-.6c5,0,9-3.8,9-8.5v-3c0,4.7-4,8.5-9,8.5l-162.1.6h1.7l160.4-.6c2.5,0,4.8-.9,6.5-2.5-1.8,1.8-4.2,3-7.1,3H13.3s0,0,0,0c-9.7,0-9.7-9.1-9.7-9.1h0ZM13.3,166.8h161.4c2.8,0,5.3-1.2,7.1-3-1.6,1.5-4,2.5-6.5,2.5l-162,.6Z"/>
    <ellipse class="st8" cx="148.9" cy="139.4" rx="48.4" ry="45.7"/>
    <ellipse class="st0" cx="148.9" cy="136.4" rx="48.4" ry="45.7"/>
    <path class="st17" d="M142.1,121.1h13.6c1.6,0,2.9,1.2,2.9,2.8v37.1c0,1.5-1.3,2.8-2.9,2.8h-13.6c-1.6,0-2.9-1.2-2.9-2.8v-37.1c0-1.5,1.3-2.8,2.9-2.8Z"/>
    <path class="st17" d="M148.9,109l11.3,15.2,11.3,15.2h-45.2l11.3-15.2,11.3-15.2Z"/>
  </g>
  <g class="st14">
    <path class="st2" d="M63.2,8h77.2c32,0,57.9,25.3,57.9,56.5v75.3c0,31.2-25.9,56.5-57.9,56.5H63.2c-32,0-57.9-25.3-57.9-56.5v-75.3c0-31.2,25.9-56.5,57.9-56.5Z"/>
    <path class="st16" d="M63.2,4.7h77.2c32,0,57.9,25.3,57.9,56.5v75.3c0,31.2-25.9,56.5-57.9,56.5H63.2c-32,0-57.9-25.3-57.9-56.5V61.1C5.3,30,31.3,4.7,63.2,4.7Z"/>
    <path class="st8" d="M101.9,27.5l-24.1,37.7h13.8v47.1h-28.3v-12.4c6.8-3.5,11-10.4,11-17.8,0-11.1-9.3-20.2-20.7-20.2s-20.7,9-20.7,20.2c0,7.5,4.2,14.3,11,17.8v12.4c0,18.8,19.3,20.2,19.3,20.2h28.3v12.8c-6.4,3.6-10.3,10.2-10.3,17.4,0,11.1,9.3,20.2,20.7,20.2s20.7-9,20.7-20.2c0-7.2-3.9-13.8-10.3-17.4v-12.8h28.3s19.3-1.3,19.3-20.2v-10.1h2.4c4.8,0,8.6-3.7,8.6-8.4v-23.5c0-4.7-3.8-8.4-8.6-8.4h-24.1c-4.8,0-8.6,3.7-8.6,8.4v23.5c0,4.7,3.8,8.4,8.6,8.4h2.4v10.1h-28.3v-47.1h13.8l-24.1-37.7Z"/>
    <path class="st17" d="M101.9,24.2l-24.1,37.7h13.8v47.1h-28.3v-12.4c6.8-3.5,11-10.4,11-17.8,0-11.1-9.3-20.2-20.7-20.2s-20.7,9-20.7,20.2c0,7.5,4.2,14.3,11,17.8v12.4c0,18.8,19.3,20.2,19.3,20.2h28.3v12.8c-6.4,3.6-10.3,10.2-10.3,17.4,0,11.1,9.3,20.2,20.7,20.2s20.7-9,20.7-20.2c0-7.2-3.9-13.8-10.3-17.4v-12.8h28.3s19.3-1.3,19.3-20.2v-10.1h2.4c4.8,0,8.6-3.7,8.6-8.4v-23.5c0-4.7-3.8-8.4-8.6-8.4h-24.1c-4.8,0-8.6,3.7-8.6,8.4v23.5c0,4.7,3.8,8.4,8.6,8.4h2.4v10.1h-28.3v-47.1h13.8l-24.1-37.7Z"/>
    <path class="st3" d="M63.2,4.7C31.2,4.7,5.3,29.9,5.3,61.2v3.4c0-31.3,25.8-56.5,57.9-56.5h77.2c32.1,0,57.9,25.2,57.9,56.5v-3.4c0-31.3-25.8-56.5-57.9-56.5H63.2Z"/>
  </g>
  <g class="st14">
    <path class="st2" d="M60.3,5.1h79.7c33,0,59.7,26.2,59.7,58.5v78c0,32.3-26.7,58.5-59.7,58.5H60.3c-33,0-59.7-26.2-59.7-58.5V63.6C.6,31.3,27.3,5.1,60.3,5.1Z"/>
    <path class="st15" d="M60.3,1.6h79.7c33,0,59.7,26.2,59.7,58.5v78c0,32.3-26.7,58.5-59.7,58.5H60.3c-33,0-59.7-26.2-59.7-58.5V60.1C.6,27.8,27.3,1.6,60.3,1.6Z"/>
    <path class="st7" d="M11.8,26c-2.4,3.3-4.5,6.7-6.1,10.4h189c-1.7-3.7-3.8-7.2-6.1-10.4H11.8ZM.9,53.8c-.2,2.1-.3,4.1-.3,6.3v4.2h199.1v-4.2c0-2.1-.1-4.2-.3-6.3H.9ZM.6,81.7v10.4h199.1v-10.4H.6ZM.6,109.5v10.4h199.1v-10.4H.6ZM.6,137.3v.7c0,3.3.3,6.6.8,9.7h197.5c.5-3.2.8-6.4.8-9.7v-.7H.6ZM7.4,165.2c2,3.7,4.4,7.2,7.2,10.4h171.3c2.7-3.2,5.2-6.7,7.2-10.4H7.4Z"/>
    <path class="st11" d="M.6,99.1h29.9l24.9-48.7,19.9,90.5,34.9-104.4,24.9,125.3,29.9-62.7h34.9"/>
    <path class="st26" d="M.6,95.6h29.9l24.9-48.7,19.9,90.5,34.9-104.4,24.9,125.3,29.9-62.7h34.9"/>
    <path class="st3" d="M60.3,1.6C27.2,1.6.6,27.7.6,60.1v3.5C.6,31.2,27.2,5.1,60.3,5.1h79.7c33.1,0,59.7,26.1,59.7,58.5v-3.5c0-32.4-26.6-58.5-59.7-58.5H60.3Z"/>
    <path class="st9" d="M110.8,22.5c-4.9-.3-9.3,2.7-10.8,7.2l-22.6,67.7-11.6-52.7c-1.2-5.6-6.9-9.2-12.7-8-3.2.7-5.8,2.7-7.3,5.5l-21.9,43H.6v3.5h23.3l21.9-43c2.6-5.2,9.1-7.2,14.3-4.7,2.9,1.4,5,4,5.7,7.1l11.6,52.7,22.6-67.7c1.5-4.5,6-7.5,10.8-7.2,4.8.3,8.9,3.8,9.8,8.4l18.6,93.8,16-33.6c1.8-3.7,5.5-6,9.7-6h34.9v-3.5h-34.9c-4.1,0-7.9,2.4-9.7,6l-16,33.6-18.6-93.8c-.9-4.7-5-8.1-9.8-8.4Z"/>
  </g>
  <g class="st14">
    <path class="st20" d="M60.3,114c-2.7,0-5,1.7-6.1,4.2l-16.4,40.3c-1.8,4.5,1.4,9.5,6.1,9.5h118.3c4.7,0,7.9-5,6.1-9.5l-16.4-40.3c-1-2.6-3.4-4.2-6.1-4.2H60.3Z"/>
    <path class="st6" d="M60.3,114c-2.7,0-5,1.7-6.1,4.2l-16.4,40.2c-.5,1.3-.6,2.6-.4,3.9,0-.5.2-.9.4-1.4l16.4-40.2c1-2.6,3.4-4.2,6.1-4.2h85.4c2.7,0,5,1.7,6.1,4.2l16.4,40.2c.2.5.3,1,.4,1.4.2-1.2.1-2.6-.4-3.9l-16.4-40.2c-1-2.6-3.4-4.2-6.1-4.2,0,0-85.4,0-85.4,0Z"/>
    <path class="st20" d="M103,30.5c-3,0-6,.5-9,1.8-1.9.8-3.3,2.4-3.8,4.4l-6,21.4c9.6,21.5,28.8,7,37.8,0l-6-21.4c-.6-2.1-2.2-3.8-4.2-4.6-2.8-1-5.7-1.6-8.7-1.6h0ZM76.3,85.6l-7.3,25.8c2.4,21.9,39.1,17.3,67.7-.9l-7-24.9c-18.1,7.5-25.4-14.4-53.4,0h0Z"/>
    <path class="st4" d="M37.4,162.4c-.7,4.1,2.2,8.1,6.4,8.1h118.4c4.2,0,7.1-4,6.4-8.1-.6,3.1-3.1,5.6-6.4,5.6H43.9c-3.3,0-5.9-2.5-6.4-5.6Z"/>
    <path class="st18" d="M84.1,58.5l-15.1,53,7.3-25.6c20.1,9.4,35.3,7.5,53.4,0l7,24.8c-28.6,18-60.6,5.2-67.7.9l-5.2,18.2c-.8,2.8.2,5.9,2.5,7.5,10.1,7.3,23.3,10.3,36.4,10.2,13.1-.1,26.2-3.4,36.5-10,2.5-1.6,3.7-4.8,2.9-7.8l-20.2-71.1c-9.1,6.8-28.8,6.8-37.8,0h0Z"/>
    <path class="st9" d="M102.5,30.5c-7,0-11.6,2.2-11.6,5.1s.1.8.3,1.2c1.1-2.3,5.3-3.9,11.3-3.9s11.2,2,12.7,4.4c.3-.4.5-.8.5-1.1,0-2.9-6.2-5.7-13.2-5.7Z"/>
  </g>
  <g>
    <path class="st8" d="M136.7,170.4c-3.3,1.6-7.3.9-9.9-1.6,3.2,3.1,8.7.9,8.7-3.5V42.8c0-4.4-5.5-6.6-8.7-3.5,2.6-2.5,6.6-3.2,9.9-1.6l28.8,13.4c3,1.4,5,4.4,5,7.6v90.8c0,3.2-1.9,6.2-5,7.6l-28.8,13.4Z"/>
    <path class="st8" d="M165.5,51.1l-28.8-13.4c-3.3-1.6-7.3-.9-9.9,1.6L32.4,120.9c-2.5,2.2-2.5,6.1,0,8.3l7.7,6.8c2.1,1.8,5.2,2,7.4.3l113.6-81.8c3.8-2.8,9.3-.2,9.3,4.5v-.3c0-3.2-1.9-6.2-4.9-7.6h0Z"/>
    <path class="st24" d="M165.5,48.7l-28.8-13.4c-3.3-1.6-7.3-.9-9.9,1.6L32.4,118.5c-2.5,2.2-2.5,6.1,0,8.3l7.7,6.8c2.1,1.8,5.2,2,7.4.3l113.6-81.8c3.8-2.8,9.3-.2,9.3,4.5v-.3c0-3.2-1.9-6.2-4.9-7.6h0Z"/>
    <path class="st12" d="M132.1,34.5c-2,.2-3.9,1-5.3,2.4L32.4,118.5c-1.6,1.4-2.2,3.5-1.7,5.3.2-1.1.8-2.1,1.7-2.9L126.8,39.3c2-1.9,4.7-2.7,7.3-2.4.9.1,1.8.4,2.6.8l28.8,13.4c0,0,.1,0,.2.1,2.6.4,4.8,2.5,4.8,5.4v-.3c0-3.2-1.9-6.2-4.9-7.6l-28.8-13.4c-.8-.4-1.7-.6-2.6-.8-.7,0-1.3-.1-2,0Z"/>
    <path class="st8" d="M43.8,65.7c-1.3,0-2.6.6-3.7,1.5l-7.7,6.8c-2.5,2.2-2.5,6.1,0,8.3l94.3,86.6c.4.4.9.6,1.3.9,0,0,0,0,0,0,3.2,1.6,7.4-.6,7.4-4.4v-31.4L47.6,66.8c-1.1-.8-2.5-1.2-3.8-1.1Z"/>
    <path class="st23" d="M165.5,154.6l-28.8,13.4c-3.3,1.6-7.3.9-9.9-1.6L32.4,79.8c-2.5-2.2-2.5-6.1,0-8.3l7.7-6.8c2.1-1.8,5.2-2,7.4-.3l113.6,86.7c3.8,2.8,9.3.2,9.3-4.5v.3c0,3.2-1.9,6.2-4.9,7.6h0Z"/>
    <path class="st12" d="M43.8,63.3c-1.3,0-2.6.6-3.7,1.5l-7.7,6.8c-1.6,1.4-2.2,3.4-1.7,5.3.2-1.1.8-2.1,1.7-2.9l7.7-6.8c1-.9,2.3-1.4,3.7-1.5,1.3,0,2.7.3,3.8,1.1l113.6,86.7c1.4,1,2.9,1.3,4.4,1.1,3-1.4,4.9-4.4,4.9-7.6v-.3c0,4.6-5.5,7.3-9.3,4.5L47.6,64.4c-1.1-.8-2.5-1.2-3.8-1.1Z"/>
    <path class="st25" d="M136.7,168c-3.3,1.6-7.3.9-9.9-1.6,3.2,3.1,8.7.9,8.7-3.5V40.4c0-4.4-5.5-6.6-8.7-3.5,2.6-2.5,6.6-3.2,9.9-1.6l28.8,13.4c3,1.4,5,4.4,5,7.6v90.8c0,3.2-1.9,6.2-5,7.6l-28.8,13.4Z"/>
    <path class="st9" d="M132.5,34.4c-1.6,0-3.1.6-4.4,1.5,2-1,4.3-.5,5.8.9,0,0,.1,0,.2,0,.9.1,1.8.4,2.6.8l28.8,13.4c3,1.4,4.9,4.4,4.9,7.6v-2.4c0-3.2-1.9-6.2-4.9-7.6l-28.8-13.4c-.8-.4-1.7-.6-2.6-.8-.5,0-1.1,0-1.6,0ZM128.1,36c-.5.2-.9.5-1.3.9.4-.4.9-.6,1.3-.9ZM135.5,162.9c0,3.8-4.2,6-7.4,4.4,1.8,1.2,3.9,1.6,6,1.3.8-.8,1.4-2,1.4-3.3v-2.4ZM128.1,167.3c-.5-.3-.9-.6-1.3-.9.4.4.9.7,1.3.9Z"/>
  </g>
</svg>