<?xml version="1.0" encoding="UTF-8"?>
<svg id="_图层_1" xmlns="http://www.w3.org/2000/svg" version="1.1" viewBox="0 0 64 64" width="64" height="64">
  <!-- Generator: Adobe Illustrator 29.0.1, SVG Export Plug-In . SVG Version: 2.1.0 Build 192)  -->
  <defs>
    <style>
      .st0, .st1, .st2, .st3, .st4, .st5 {
        display: none;
      }

      .st0, .st6 {
        fill: #515e6f;
      }

      .st1 {
        fill: #3f3f3f;
      }

      .st7 {
        fill: none;
        stroke: #fff;
        stroke-linecap: round;
        stroke-linejoin: round;
        stroke-width: 4px;
      }

      .st2, .st3, .st8, .st9, .st10 {
        isolation: isolate;
      }

      .st2, .st11, .st8, .st9 {
        opacity: .2;
      }

      .st3, .st12, .st9 {
        fill: #fff;
      }

      .st3, .st10 {
        opacity: .1;
      }

      .st13 {
        fill: #ffb73f;
      }

      .st14 {
        fill: #5057eb;
      }

      .st15 {
        fill: #fdd04b;
      }

      .st16 {
        fill: #e8475b;
      }

      .st17 {
        fill: #2bb563;
      }

      .st10 {
        fill: maroon;
      }

      .st5 {
        fill: #347f85;
      }
    </style>
  </defs>
  <path class="st6" d="M50.4,64H13.8c-7.6,0-13.8-6.2-13.8-13.7V13.7C0,6.2,6.2,0,13.7,0h36.6c7.5,0,13.7,6.2,13.7,13.7v36.6c0,7.5-6.2,13.7-13.7,13.7h.1Z"/>
  <g class="st4">
    <ellipse class="st2" cx="32" cy="33.1" rx="32" ry="31.9"/>
    <ellipse class="st1" cx="32" cy="31.9" rx="32" ry="31.9"/>
    <path class="st8" d="M13.6,14.8c-.3,0-.6,0-.9.2-1.1.5-1.6,1.9-1.1,3l18.3,38.8c.5,1.1,1.9,1.6,3,1.1.5-.2.9-.6,1.1-1.1l18.3-38.8c.5-1.1,0-2.5-1.1-3-1.1-.5-2.5,0-3,1.1l-6.9,14.7h-18.6l-6.9-14.7c-.4-.8-1.1-1.3-2-1.3,0,0-.1,0-.2,0Z"/>
    <path class="st7" d="M13.7,16l18.3,38.8L50.3,16"/>
    <path class="st12" d="M20.2,29.6h23.6l-11.8,23.8-11.8-23.8Z"/>
    <path class="st3" d="M32,0C14.3,0,0,14.3,0,31.9c0,.2,0,.4,0,.6C.3,15.1,14.5,1.1,32,1.1c17.4,0,31.7,13.9,32,31.3,0-.2,0-.4,0-.6C64,14.3,49.7,0,32,0Z"/>
  </g>
  <g class="st4">
    <path class="st2" d="M32,1.1c-1.7,0-3.4.6-4.6,1.9L1.9,28.4c-2.5,2.5-2.5,6.7,0,9.2l10.5,10.4-2.3,2.5c-.3.3-.4.7-.4,1.1v7.6c0,1.2,1.3,1.9,2.3,1.3l7.9-5,7.6,7.5c2.5,2.5,6.7,2.5,9.2,0l25.5-25.4c2.5-2.5,2.5-6.7,0-9.2l-10.4-10.4,2.3-2.4c.3-.3.4-.7.4-1.1v-7.6c0-.9-.7-1.5-1.6-1.5-.3,0-.5,0-.8.2l-7.8,5-7.7-7.7c-1.3-1.2-2.9-1.9-4.6-1.9Z"/>
    <path class="st5" d="M32,0c-1.7,0-3.4.6-4.6,1.9L1.9,27.3c-2.5,2.5-2.5,6.7,0,9.2l25.5,25.4c2.5,2.5,6.7,2.5,9.2,0l25.5-25.4c2.5-2.5,2.5-6.7,0-9.2L36.6,1.9c-1.3-1.2-2.9-1.9-4.6-1.9Z"/>
    <path class="st8" d="M45,10.2L11.4,31.7c-.4.3-.7.8-.7,1.3v6.1c0,.9.8,1.6,1.7,1.5l7.8-1-7.3,7.9,7.6,7.6,27.9-17.7c.4-.3.7-.8.7-1.3v-6.1c0-.6-.3-1.1-.8-1.4l-4.5-2.5,8.5-8.6-7.2-7.2Z"/>
    <path class="st3" d="M32,0c-1.7,0-3.4.6-4.6,1.9L1.9,27.3C.5,28.7-.1,30.6,0,32.4c.1-1.5.7-2.9,1.9-4.1L27.4,2.9c1.3-1.2,2.9-1.9,4.6-1.9s3.4.6,4.6,1.9l25.5,25.4c1.1,1.1,1.7,2.6,1.9,4.1.1-1.8-.5-3.7-1.9-5.1L36.6,1.9c-1.3-1.2-2.9-1.9-4.6-1.9Z"/>
    <path class="st15" d="M52.9,4.3c-.3,0-.5,0-.8.2L11.4,30.6c-.4.3-.7.8-.7,1.3v6.1c0,.9.8,1.6,1.7,1.5l7.8-1-10.1,11c-.3.3-.4.7-.4,1.1v7.6c0,1.2,1.3,1.9,2.3,1.3l36.5-23.2c.4-.3.7-.8.7-1.3v-6.1c0-.6-.3-1.1-.8-1.4l-4.5-2.5,10.3-10.5c.3-.3.4-.7.4-1.1v-7.6c0-.9-.7-1.5-1.6-1.5Z"/>
    <path class="st10" d="M38.4,22.3l5.3,2.7,10.3-10.5c.3-.3.4-.7.4-1.1v-6.1s-12.6,11.5-16,14.9ZM48.5,27.7L9.6,50.5v7.6c0,1.2,1.3,1.9,2.3,1.3l36.5-23.2c.4-.3.7-.8.7-1.3v-6.1c0-.5-.2-.9-.6-1.2ZM27.4,30.4l-16.8,1.5v6.1c0,.9.8,1.6,1.7,1.5l7.8-1,7.3-8.1Z"/>
    <path class="st9" d="M52.9,4.3c-.3,0-.5,0-.8.2L11.4,30.6c-.4.3-.7.8-.7,1.3v1.1c0-.5.3-1,.7-1.3L52.1,5.6c.2-.1.5-.2.8-.2.9,0,1.6.7,1.6,1.5v-1.1c0-.9-.7-1.5-1.6-1.5ZM44.4,25.4l-.7.7,4.5,2.5c.5.3.8.8.8,1.4v-1.1c0-.6-.3-1.1-.8-1.4l-3.8-2.1ZM20.2,39.6h-1.1c0,.1-9,9.9-9,9.9-.3.3-.4.7-.4,1.1v1.1c0-.4.2-.8.4-1.1l10.1-11Z"/>
  </g>
  <g>
    <path class="st2" d="M14.5,1.1C6.4,1.1,0,7.6,0,15.6v35c0,2.8.8,5.4,2.2,7.6h0s0,0,0,0c.3.4.5.8.8,1.2,0,.1.2.2.3.3.2.2.3.4.5.6h0s0,0,0,0h0c.4.4.7.7,1.1,1.1.2.2.4.3.6.5.2.2.5.4.7.5.1,0,.2.2.3.2h0c2.2,1.4,4.9,2.3,7.8,2.3h35.1c2.9,0,5.5-.9,7.8-2.3h0c.1,0,.2-.2.3-.2.2-.2.5-.3.7-.5.2-.2.4-.3.6-.5.4-.3.8-.7,1.1-1.1h0s0,0,0,0h0c.2-.2.3-.4.5-.6,0-.1.2-.2.3-.3.3-.4.6-.8.8-1.2,0,0,0,0,0,0h0c1.4-2.2,2.2-4.8,2.2-7.6V15.6c0-8-6.4-14.5-14.5-14.5H14.5Z"/>
    <path class="st0" d="M14.5,0C6.4,0,0,6.4,0,14.5v35c0,2.8.8,5.4,2.2,7.6h0s0,0,0,0c.3.4.5.8.8,1.2,0,.1.2.2.3.3.2.2.3.4.5.6h0c.8.9,1.8,1.7,2.8,2.4h50.7c1-.7,2-1.5,2.8-2.4h0c.2-.2.3-.4.5-.6,0-.1.2-.2.3-.3.3-.4.6-.8.8-1.2,0,0,0,0,0,0h0c1.4-2.2,2.2-4.8,2.2-7.6V14.5C64,6.4,57.6,0,49.5,0H14.5Z"/>
    <g class="st11">
      <path d="M35,19.4c-3.1,0-6,1.5-7.9,3.9-1.1-.6-2.3-.9-3.5-.9-4.2,0-7.6,3.4-7.6,7.6,0,.5,0,1,.2,1.6-2.7.3-4.7,2.6-4.7,5.3,0,2.9,2.4,5.3,5.3,5.3h0c.7,0,1.4-.1,2-.4-.3-.8-.5-1.7-.5-2.6,0-3,1.8-5.4,4.3-6.7.7-.4,1.5-.7,2.3-.8.6-2.5,2.1-4.6,4.1-6,1.5-1.1,3.3-1.8,5.2-1.8,0,0,0,0,0,0,0,0,.1,0,.2,0,0,0,0,0,.1,0,2.8,0,5.3,1.4,7.2,3.4.5-.2,1.1-.3,1.7-.3,0,0,0,0,0,0,.1,0,.2,0,.3,0,0,0,.1,0,.2,0,0,0,0,0,0,0,.3,0,.5,0,.7,0-1-4.5-5-7.7-9.6-7.7Z"/>
      <path d="M34.6,26.3c-4.3,0-7.8,3.4-7.8,7.6,0,0,0,0,0,0-.3,0-.5,0-.8,0-3,0-5.5,2.4-5.5,5.3,0,2.9,2.4,5.3,5.5,5.3h24.2c2.6,0,4.7-2,4.7-4.6s-2.1-4.6-4.7-4.6c0-3.4-2.8-6.1-6.2-6.1h0c-.9,0-1.9.2-2.7.6-1.4-2.3-3.9-3.7-6.6-3.7Z"/>
    </g>
    <g>
      <path class="st12" d="M35,18.3c-3.1,0-6,1.5-7.9,3.9-1.1-.6-2.3-.9-3.5-.9-4.2,0-7.6,3.4-7.6,7.6,0,.5,0,1,.2,1.6-2.7.3-4.7,2.6-4.7,5.3,0,2.9,2.4,5.3,5.3,5.3h0c.7,0,1.4-.1,2-.4-.3-.8-.5-1.7-.5-2.6,0-3,1.8-5.4,4.3-6.7.7-.4,1.5-.7,2.3-.8.6-2.5,2.1-4.6,4.1-6,1.5-1.1,3.3-1.8,5.2-1.8,0,0,0,0,0,0,0,0,.1,0,.2,0,0,0,0,0,.1,0,2.8,0,5.3,1.4,7.2,3.4.5-.2,1.1-.3,1.7-.3,0,0,0,0,0,0,.1,0,.2,0,.3,0,0,0,.1,0,.2,0,0,0,0,0,0,0,.3,0,.5,0,.7,0-1-4.5-5-7.7-9.6-7.7Z"/>
      <path class="st12" d="M34.6,25.1c-4.3,0-7.8,3.4-7.8,7.6,0,0,0,0,0,0-.3,0-.5,0-.8,0-3,0-5.5,2.4-5.5,5.3,0,2.9,2.4,5.3,5.5,5.3h24.2c2.6,0,4.7-2,4.7-4.6s-2.1-4.6-4.7-4.6c0-3.4-2.8-6.1-6.2-6.1h0c-.9,0-1.9.2-2.7.6-1.4-2.3-3.9-3.7-6.6-3.7Z"/>
    </g>
    <path class="st17" d="M16,59.4v4.6h16v-4.6h-16Z"/>
    <path class="st14" d="M3.9,59.4c2.6,2.8,6.4,4.6,10.5,4.6h1.5v-4.6H3.9Z"/>
    <path class="st13" d="M48,59.4v4.6h1.5c4.2,0,7.9-1.8,10.5-4.6h-12.1Z"/>
    <path class="st16" d="M32,59.4v4.6h16v-4.6h-16Z"/>
    <path class="st3" d="M14.5,0C6.4,0,0,6.4,0,14.5v1.1C0,7.6,6.4,1.1,14.5,1.1h35.1c8,0,14.5,6.4,14.5,14.5v-1.1c0-8-6.4-14.5-14.5-14.5H14.5Z"/>
    <path class="st9" d="M3.9,59.4c.4.4.8.8,1.2,1.1h53.7c.4-.4.8-.7,1.2-1.1H3.9Z"/>
  </g>
</svg>