<?xml version="1.0" encoding="UTF-8"?>
<svg id="_图层_1" xmlns="http://www.w3.org/2000/svg" version="1.1" viewBox="0 0 64 64" width="64" height="64">
  <!-- Generator: Adobe Illustrator 29.0.1, SVG Export Plug-In . SVG Version: 2.1.0 Build 192)  -->
  <defs>
    <style>
      .st0 {
        fill: none;
        stroke: #313131;
        stroke-width: 2px;
      }

      .st1, .st2, .st3, .st4, .st5, .st6, .st7 {
        isolation: isolate;
      }

      .st1, .st2, .st8, .st6, .st9 {
        display: none;
      }

      .st1, .st4, .st5, .st6 {
        opacity: .2;
      }

      .st2, .st10, .st5, .st6, .st7 {
        fill: #fff;
      }

      .st2, .st3, .st7 {
        opacity: .1;
      }

      .st11 {
        fill: #6a91ac;
      }

      .st12 {
        fill: #1e81e9;
      }

      .st13 {
        fill: #35495e;
      }

      .st14 {
        fill: #4c4c4c;
      }

      .st15 {
        fill: #89e058;
      }

      .st16 {
        fill: #8e8e8e;
      }

      .st17 {
        fill: #1cd678;
      }

      .st18 {
        fill: #5895dc;
      }

      .st19 {
        fill: #adc1ce;
      }

      .st20 {
        fill: #95a4b3;
      }

      .st21 {
        fill: #f5f5f5;
      }

      .st9, .st22 {
        fill: #e4e4e4;
      }

      .st23 {
        fill: #ececec;
      }

      .st24 {
        fill: #48aeff;
      }

      .st25 {
        fill: #ffcd54;
      }

      .st26 {
        fill: #47ad5d;
      }
    </style>
  </defs>
  <path class="st22" d="M50.3,64H13.9C6.3,64,.2,57.8.2,50.3V13.8C.2,6.2,6.3,0,13.9,0h36.5c7.5,0,13.7,6.2,13.7,13.7v36.5c0,7.5-6.1,13.7-13.7,13.7h0Z"/>
  <g class="st8">
    <path class="st4" d="M33.3,3.3C17.8,3.3,5.3,15.8,5.3,31.3c0,4.6,1.1,9.1,3.3,13.1h0c1.4,3.3,1.4,4.3,1.1,7.1-.2,1.9-.7,3.9-1.3,5-.6,1-1.1,2-1.1,2.3,0,.8,4.7.5,8.9-.5,4.9-1.3,5.3-1.3,9.3,0l-.2-.2c2.6.8,5.3,1.2,8,1.2,15.5,0,28-12.5,28-28S48.7,3.3,33.3,3.3Z"/>
    <path class="st22" d="M33.3,2.3C17.8,2.3,5.3,14.8,5.3,30.3c0,4.6,1.1,9.1,3.3,13.1h0c1.4,3.3,1.4,4.3,1.1,7.1-.2,1.9-.7,3.9-1.3,5-.6,1-1.1,2-1.1,2.3,0,.8,4.7.5,8.9-.5,4.9-1.3,5.3-1.3,9.3,0l-.2-.2c2.6.8,5.3,1.2,8,1.2,15.5,0,28-12.5,28-28S48.7,2.3,33.3,2.3Z"/>
    <path class="st26" d="M33.3,8.3c12.2,0,22,9.8,22,22s-9.8,22-22,22c-3.3-.1-5.9-.8-8.9-1.4-2.8-.5-5.4-.3-8.9.5,0-.3.1-.5.1-.8.2-2.5,0-5.4-1.2-8.7-1.7-3.8-3.1-8-3.1-11.6h0s0,0,0,0c0-12.2,9.8-22,22-22Z"/>
    <path class="st4" d="M43,42.6c1.9-.9,2.9-2.1,3.2-4.1.2-1.5.1-1.6-2.8-3-3.8-1.8-3.5-1.8-5.2.2-1,1.2-1.4,1.7-1.8,1.7-3.8-1-7.9-4.3-9.1-8.2,0-.2.4-.8.9-1.4,1.5-1.7,1.5-1.8.2-4.9-1.5-3.6-1.9-3.6-3.5-3.7-1.6,0-2.2.2-3.2,1.6-1.1,1.5-1.5,2.6-1.5,4.4,0,2.3.8,4.1,3,7.2,3.8,5.3,7.4,8.1,12.7,9.9,3.2,1.1,5.2,1.2,7.1.3Z"/>
    <path class="st10" d="M43,41.6c1.9-.9,2.9-2.1,3.2-4.1.2-1.5.1-1.6-2.8-3-3.8-1.8-3.5-1.8-5.2.2-1,1.2-1.4,1.7-1.8,1.7-3.8-1-7.9-4.3-9.1-8.2,0-.2.4-.8.9-1.4,1.5-1.7,1.5-1.8.2-4.9-1.5-3.6-1.9-3.6-3.5-3.7-1.6,0-2.2.2-3.2,1.6-1.1,1.5-1.5,2.6-1.5,4.4,0,2.3.8,4.1,3,7.2,3.8,5.3,7.4,8.1,12.7,9.9,3.2,1.1,5.2,1.2,7.1.3Z"/>
    <path class="st5" d="M33.3,2.3C17.8,2.3,5.3,14.8,5.3,30.3c0,.2,0,.4,0,.5.3-15.3,12.7-27.5,28-27.5,15.2,0,27.6,12.1,28,27.3,0,0,0-.2,0-.3,0-15.5-12.5-28-28-28ZM9.8,48.8c0,.5,0,1-.1,1.6-.2,1.9-.7,3.9-1.3,5-.6,1-1.1,2-1.1,2.3s0,.2.3.3c.2-.4.5-1,.8-1.6.7-1.1,1.2-3.1,1.3-5,0-1.1.1-1.9.1-2.6Z"/>
  </g>
  <g class="st8">
    <path class="st4" d="M58.4,45.5H9c-.4,0-.6.3-.6.7v2.8c0,1.9,1.5,3.5,3.4,3.5h44c1.9,0,3.4-1.6,3.4-3.5v-2.8c0-.4-.3-.7-.6-.7Z"/>
    <path class="st20" d="M53.9,18.5c1.9,0,3.4,1.5,3.4,3.3v24.6s-47.2,0-47.2,0v-24.6c0-1.8,1.5-3.3,3.4-3.3h40.5Z"/>
    <path class="st5" d="M13.4,18.5c-1.9,0-3.4,1.5-3.4,3.3v.9c0-1.8,1.5-3.3,3.4-3.3h40.5c1.9,0,3.4,1.5,3.4,3.3v-.9c0-1.8-1.5-3.3-3.4-3.3H13.4Z"/>
    <path class="st12" d="M53.8,46.4v-22.7c0-.9-.8-1.6-1.7-1.6H15.2c-.9,0-1.7.7-1.7,1.6v22.7h40.2Z"/>
    <ellipse class="st4" cx="33.7" cy="23.7" rx="16.6" ry="16.6"/>
    <path class="st19" d="M58.4,44.6H9c-.4,0-.6.3-.6.7v2.8c0,1.9,1.5,3.5,3.4,3.5h44c1.9,0,3.4-1.6,3.4-3.5v-2.8c0-.4-.3-.7-.6-.7Z"/>
    <path class="st11" d="M51.6,48.1h-6.1c-1.2,0-2.2.9-2.2,2.1v1.4h1.2v-1.4c0-.4.6-.9,1-.9h6.1c.5,0,1,.5,1,.9v1.4h1.2v-1.4c0-1.1-1-2.1-2.2-2.1Z"/>
    <path class="st11" d="M38.3,44.6l-.5,1.6c-.1.3-.5.7-.9.7h-6.3c-.4,0-.8-.4-.9-.7l-.5-1.6h-1.5l.6,1.9c.3.9,1.3,1.6,2.5,1.6h6.1c1.2,0,2.2-.6,2.5-1.6l.6-1.9h-1.5Z"/>
    <path class="st13" d="M12.4,49c-.3,0-.6.4-.6.8v1.8h1.2v-1.8c0-.4-.3-.8-.6-.8Z"/>
    <ellipse class="st17" cx="33.7" cy="22.8" rx="16.6" ry="16.6"/>
    <path class="st4" d="M33.7,14.1c-5.1,0-9.7,2.2-12.9,5.8-.3.4-.3,1,0,1.3l1.4,1.3c.4.4,1,.3,1.4,0,2.5-2.8,6-4.5,10-4.5,4,0,7.6,1.7,10,4.5.4.4,1,.4,1.4,0l1.4-1.3c.4-.4.4-.9,0-1.3-3.2-3.5-7.8-5.8-12.9-5.8ZM33.7,21.1c-2.9,0-5.5,1.3-7.3,3.4-.3.4-.3,1,0,1.3l1.4,1.3c.4.4,1,.3,1.4,0,1.1-1.3,2.6-2.1,4.4-2.1s3.4.8,4.4,2.1c.4.4,1,.5,1.4,0l1.4-1.3c.4-.3.4-.9,0-1.3-1.8-2.1-4.4-3.4-7.3-3.4ZM33.7,28.1c-1.4,0-2.5,1-2.6,2.4-.1,1.4,1,2.7,2.4,2.8,1.4.1,2.7-.9,2.8-2.4.1-1.4-1-2.7-2.4-2.8,0,0-.1,0-.2,0Z"/>
    <ellipse class="st21" cx="33.7" cy="29.8" rx="2.6" ry="2.6"/>
    <path class="st21" d="M22.3,21.7c.4.4,1,.3,1.4,0,2.5-2.8,6-4.5,10-4.5s7.6,1.7,10,4.5c.4.4,1,.4,1.4,0l1.4-1.3c.4-.4.4-.9,0-1.3-3.2-3.5-7.8-5.8-12.9-5.8s-9.7,2.2-12.9,5.8c-.3.4-.3,1,0,1.3l1.4,1.3Z"/>
    <path class="st21" d="M27.8,26.2c.4.4,1,.3,1.4,0,1.1-1.3,2.6-2.1,4.4-2.1s3.4.8,4.4,2.1c.4.4,1,.5,1.4,0l1.4-1.3c.4-.3.4-.9,0-1.3-1.8-2.1-4.4-3.4-7.3-3.4s-5.5,1.3-7.3,3.4c-.3.4-.3,1,0,1.3l1.4,1.3Z"/>
    <path class="st13" d="M15.1,49c-.3,0-.6.4-.6.8v1.8h1.2v-1.8c0-.4-.3-.8-.6-.8Z"/>
    <path class="st13" d="M17.7,49c-.3,0-.6.4-.6.8v1.8h1.2v-1.8c0-.4-.3-.8-.6-.8Z"/>
    <path class="st5" d="M33.7,6.3c-9.2,0-16.6,7.4-16.6,16.6,0,.1,0,.3,0,.4.2-9,7.6-16.1,16.6-16.1,9,0,16.4,7.2,16.6,16.1,0-.2,0-.3,0-.5,0-9.1-7.4-16.6-16.6-16.6Z"/>
    <path class="st5" d="M9,44.6c-.4,0-.6.3-.6.7v.9c0-.4.3-.7.6-.7h49.4c.4,0,.6.3.6.7v-.9c0-.4-.3-.7-.6-.7H9Z"/>
  </g>
  <g class="st8">
    <path class="st18" d="M11.6,4.7h42.2c1.4,0,2.5,1.1,2.5,2.4v27.3c0,1.3-1.1,2.4-2.5,2.4H11.6c-1.4,0-2.5-1.1-2.5-2.4V7c0-1.3,1.1-2.4,2.5-2.4Z"/>
    <path class="st3" d="M11.6,9.4h42.2c1.4,0,2.5,1.1,2.5,2.4v27.3c0,1.3-1.1,2.4-2.5,2.4H11.6c-1.4,0-2.5-1.1-2.5-2.4V11.7c0-1.3,1.1-2.4,2.5-2.4Z"/>
    <path class="st15" d="M11.6,10.3h42.2c1.4,0,2.5,1.1,2.5,2.4v27.3c0,1.3-1.1,2.4-2.5,2.4H11.6c-1.4,0-2.5-1.1-2.5-2.4V12.7c0-1.3,1.1-2.4,2.5-2.4Z"/>
    <path class="st3" d="M11.6,15h42.2c1.4,0,2.5,1.1,2.5,2.4v27.3c0,1.3-1.1,2.4-2.5,2.4H11.6c-1.4,0-2.5-1.1-2.5-2.4v-27.3c0-1.3,1.1-2.4,2.5-2.4Z"/>
    <path class="st25" d="M11.6,16h42.2c1.4,0,2.5,1.1,2.5,2.4v27.3c0,1.3-1.1,2.4-2.5,2.4H11.6c-1.4,0-2.5-1.1-2.5-2.4v-27.3c0-1.3,1.1-2.4,2.5-2.4Z"/>
    <path class="st16" d="M8.2,21.6h49c1.6,0,2.9,1.3,2.9,2.8v32c0,1.6-1.3,2.8-2.9,2.8H8.2c-1.6,0-2.9-1.3-2.9-2.8V24.4c0-1.6,1.3-2.8,2.9-2.8Z"/>
    <path class="st4" d="M24.9,37.6h15.7c1.1,0,2,.8,2,1.9v1.9c0,1-.9,1.9-2,1.9h-15.7c-1.1,0-2-.8-2-1.9v-1.9c0-1,.9-1.9,2-1.9Z"/>
    <path class="st23" d="M24.9,36.7h15.7c1.1,0,2,.8,2,1.9v1.9c0,1-.9,1.9-2,1.9h-15.7c-1.1,0-2-.8-2-1.9v-1.9c0-1,.9-1.9,2-1.9Z"/>
    <path class="st7" d="M11.6,4.7c-1.4,0-2.5,1.1-2.5,2.4v.9c0-1.3,1.1-2.4,2.5-2.4h42.2c1.4,0,2.5,1.1,2.5,2.4v-.9c0-1.3-1.1-2.4-2.5-2.4H11.6Z"/>
    <path class="st7" d="M11.6,10.3c-1.4,0-2.5,1.1-2.5,2.4v.9c0-1.3,1.1-2.4,2.5-2.4h42.2c1.4,0,2.5,1.1,2.5,2.4v-.9c0-1.3-1.1-2.4-2.5-2.4H11.6Z"/>
    <path class="st7" d="M11.6,16c-1.4,0-2.5,1.1-2.5,2.4v.9c0-1.3,1.1-2.4,2.5-2.4h42.2c1.4,0,2.5,1.1,2.5,2.4v-.9c0-1.3-1.1-2.4-2.5-2.4H11.6Z"/>
    <g>
      <ellipse class="st4" cx="47.4" cy="47" rx="15.7" ry="15.1"/>
      <ellipse class="st24" cx="47.4" cy="46.1" rx="15.7" ry="15.1"/>
      <path class="st10" d="M40.1,38.6h5.9c.3,0,.5.2.5.5v5.7c0,.3-.2.5-.5.5h-5.9c-.3,0-.5-.2-.5-.5v-5.7c0-.3.2-.5.5-.5Z"/>
      <path class="st10" d="M48.9,38.6h5.9c.3,0,.5.2.5.5v5.7c0,.3-.2.5-.5.5h-5.9c-.3,0-.5-.2-.5-.5v-5.7c0-.3.2-.5.5-.5Z"/>
      <path class="st10" d="M48.9,47h5.9c.3,0,.5.2.5.5v5.7c0,.3-.2.5-.5.5h-5.9c-.3,0-.5-.2-.5-.5v-5.7c0-.3.2-.5.5-.5Z"/>
      <path class="st10" d="M40.1,47h5.9c.3,0,.5.2.5.5v5.7c0,.3-.2.5-.5.5h-5.9c-.3,0-.5-.2-.5-.5v-5.7c0-.3.2-.5.5-.5Z"/>
    </g>
  </g>
  <g class="st8">
    <path class="st9" d="M31.9.4C14.2.4-.1,14.6-.1,32.3s14.3,31.9,32.1,31.9,32.1-14.2,32.1-31.9S49.7.4,31.9.4Z"/>
    <path class="st0" d="M14.8,18.6v20.1s0,8.4,10.3,8.4,10.3-8.4,10.3-8.4v-15.1s0-3.9-3.4-3.9-3.4,3.9-3.4,3.9v15.1s0,8.4,10.3,8.4,10.3-8.4,10.3-8.4v-20.1"/>
    <path class="st6" d="M31.9.4C14.2.4-.1,14.6-.1,32.3s0,.3,0,.4C.3,15.4,14.4,1.5,31.9,1.5s31.6,13.8,32,31.1c0-.1,0-.3,0-.4C64,14.6,49.7.4,31.9.4Z"/>
    <path class="st1" d="M64,33.1c-.4,17.3-14.5,31.1-32,31.1S.3,50.4,0,33.1c0,.1,0,.3,0,.4,0,17.7,14.3,31.9,32.1,31.9s32.1-14.2,32.1-31.9,0-.3,0-.4Z"/>
  </g>
  <g>
    <path class="st1" d="M.2,59.6v2.3c0,1.9,1.9,3.4,4.3,3.4h54.8c2.4,0,4.3-1.5,4.3-3.4v-2.3c0,1.9-1.9,3.4-4.3,3.4H4.6c-2.4,0-4.3-1.5-4.3-3.4Z"/>
    <path class="st9" d="M63.6,60.7V3.3c0-1.9-1.9-3.4-4.3-3.4H4.6C2.2-.1.2,1.4.2,3.3v57.4c0,1.9,1.9,3.4,4.3,3.4h54.8c2.4,0,4.3-1.5,4.3-3.4Z"/>
    <path class="st2" d="M4.6-.1C2.2-.1.2,1.4.2,3.3v1.1C.2,2.6,2.2,1,4.6,1h54.8c2.4,0,4.3,1.5,4.3,3.4v-1.1c0-1.9-1.9-3.4-4.3-3.4H4.6Z"/>
    <g>
      <path class="st14" d="M11.8,13.7h40.3v2.3H11.8v-2.3Z"/>
      <path class="st14" d="M11.8,20.6h40.3v2.3H11.8v-2.3Z"/>
      <path class="st14" d="M11.8,27.5h40.3v2.3H11.8v-2.3Z"/>
      <path class="st14" d="M11.8,34.3h40.3v2.3H11.8v-2.3Z"/>
      <path class="st14" d="M11.8,41.2h40.3v2.3H11.8v-2.3Z"/>
      <path class="st14" d="M11.8,48.1h40.3v2.3H11.8v-2.3Z"/>
    </g>
  </g>
</svg>