<?xml version="1.0" encoding="UTF-8"?>
<svg id="_图层_1" data-name="图层_1" xmlns="http://www.w3.org/2000/svg" version="1.1" viewBox="0 0 200 200" width="64" height="64">
  <!-- Generator: Adobe Illustrator 29.0.1, SVG Export Plug-In . SVG Version: 2.1.0 Build 192)  -->
  <defs>
    <style>
      .st0 {
        fill: #944bf0;
      }

      .st1 {
        fill: #fff;
      }

      .st2 {
        fill: #7c33de;
      }

      .st3 {
        fill: #9147f0;
      }

      .st4 {
        fill: #a761ff;
      }
    </style>
  </defs>
  <path class="st3" d="M6.4,28.3c0-12.9,10.6-23.3,23.6-23.3h141.4c13,0,23.6,10.4,23.6,23.3v139.7c0,12.9-10.6,23.3-23.6,23.3H29.9c-13,0-23.6-10.4-23.6-23.3V28.3Z"/>
  <path class="st2" d="M6.4,153.1h188.6v18.1c0,11.4-10.6,20.7-23.6,20.7H29.9c-13,0-23.6-9.3-23.6-20.7v-18.1Z"/>
  <path class="st4" d="M172.6,5.2c12.3,0,22.3,10.5,22.3,23.4v141.1c0,12.5-9.7,22.6-21.6,22.6s-20.2-9.5-20.2-21.2h0V5.2h19.5Z"/>
  <path class="st0" d="M153.1,173.3c0,10.5,8.8,18.9,19.7,18.9h0c11.6,0,21.1-9,21.1-20.2s-8.8-18.9-19.7-18.9h-21.1v20.2Z"/>
  <path class="st1" d="M33.6,39.8h85.9v15.6H33.6v-15.6h0ZM33.6,68.8h85.9v15.6H33.6v-15.6h0ZM86.7,97.7h-53.1v15.6h53.1v-15.6Z"/>
</svg>
