<svg width="64" height="64" viewBox="0 0 128 128" fill="none" xmlns="http://www.w3.org/2000/svg">
<path d="M0 16C0 7.16344 7.16344 0 16 0H112C120.837 0 128 7.16344 128 16V112C128 120.837 120.837 128 112 128H16C7.16344 128 0 120.837 0 112V16Z" fill="#FF7A0D"/>
<path d="M0 98H128V112C128 120.837 120.837 128 112 128H16C7.16344 128 0 120.837 0 112V98Z" fill="#E56700"/>
<path d="M112 6.11959e-07C120.837 9.98217e-07 128 7.16345 128 16L128 112.516C128 121.068 121.068 128 112.516 128C104.499 128 98 121.501 98 113.484L98 0L112 6.11959e-07Z" fill="#FF9A47"/>
<path d="M98 113.484C98 121.501 104.499 128 112.516 128C121.068 128 128 121.068 128 112.516C128 104.499 121.501 98 113.484 98H98V113.484Z" fill="#FF8119"/>
<path d="M30 35H40V80H30V35Z" fill="white"/>
<path d="M18 41.5H51V51.5H18V41.5Z" fill="white"/>
<path d="M46.5 18.5H51V28.5H46.5V18.5Z" fill="white"/>
<path d="M59 18.5H63.5V28.5H59V18.5Z" fill="white"/>
<path d="M59 41.5H63.5V51.5H59V41.5Z" fill="white"/>
<path fill-rule="evenodd" clip-rule="evenodd" d="M46.9995 51.5H46.4993C37.3866 51.5 29.9993 44.1127 29.9993 35C29.9993 25.8873 37.3866 18.5 46.4993 18.5H46.9995V28.5H46.4993C42.9094 28.5 39.9993 31.4101 39.9993 35C39.9993 38.5899 42.9094 41.5 46.4993 41.5H46.9995V51.5Z" fill="white"/>
<path fill-rule="evenodd" clip-rule="evenodd" d="M63 51.5H63.5C72.6127 51.5 80 44.1127 80 35C80 25.8873 72.6127 18.5 63.5 18.5H63V28.5H63.5C67.0899 28.5 70 31.4101 70 35C70 38.5899 67.0898 41.5 63.5 41.5H63V51.5Z" fill="white"/>
</svg>
