<?xml version="1.0" encoding="UTF-8"?>
<svg id="_图层_1" data-name="图层_1" xmlns="http://www.w3.org/2000/svg" width="64" height="64" version="1.1" viewBox="0 0 200 200">
  <!-- Generator: Adobe Illustrator 29.0.1, SVG Export Plug-In . SVG Version: 2.1.0 Build 192)  -->
  <defs>
    <style>
      .st0 {
        fill: #2a78ea;
      }

      .st1 {
        fill: #fff;
        isolation: isolate;
        opacity: .6;
      }
    </style>
  </defs>
  <rect class="st0" x="3.6" y="3.6" width="192.8" height="191.7" rx="41.6" ry="41.6"/>
  <path class="st1" d="M169.6,90.4h0s-.2-.3-.2-.3c-2.9-4.3-6.6-8-10.9-10.9-.3-4.7-1.4-9.3-3.3-13.6-2.4-5.3-5.8-10.2-10-14.2-4.2-4.1-9.2-7.3-14.7-9.5-5.5-2.2-11.4-3.2-17.4-3.2-9,0-17.9,2.5-25.4,7.5-4.2,2.7-7.9,6.1-11,10-2.3-.6-4.7-.9-7.2-.9-3.7,0-7.3.7-10.7,2-3.3,1.3-6.4,3.3-9.1,5.9-2.6,2.5-4.7,5.5-6.2,8.8-1.4,3.3-2.1,6.9-2.1,10.5,0,1,0,2,.2,3-3.6,2.1-6.8,4.8-9.4,8-5.3,6.2-8.2,14.1-8.2,22.3,0,4.9.9,9.5,2.8,13.7,1.9,4.3,4.7,8.2,8.1,11.5,3.6,3.4,7.6,6,11.9,7.7,4.3,1.7,9,2.6,14,2.6h74c5.4,0,10.7-1,15.7-2.9,5-2,9.5-4.9,13.3-8.6,4-3.8,7-8.1,9.1-12.8,2.1-4.8,3.1-10,3.1-15.3,0-7.5-2.2-14.9-6.4-21.2h0Z"/>
  <path class="st0" d="M121.4,141h-41.7c-4.1,0-7-2.8-7-6.9v-41.4c0-4.1,2.9-6.9,7-6.9h41.7c4.1,0,7,2.8,7,6.9v41.4c0,4.1-2.9,6.9-7,6.9ZM75,95v4.6h9.3l-4.5-11.2c-2.9.8-4.8,3.3-4.8,6.6ZM84.3,88.1l4.6,11.5h7l-4.6-11.5h-7ZM95.9,88.1l4.6,11.5h7l-4.6-11.5h-7,0ZM107.5,88.1l4.6,11.5h7l-4.6-11.5h-7ZM126,95c0-4.1-2.9-6.9-7-6.9l4.6,11.5h2.3v-4.6ZM126,101.9h-51v29.9c0,4.1,2.9,6.9,7,6.9h37.1c4.1,0,7-2.8,7-6.9v-29.9h0ZM91.2,108.8l20.9,11.5-20.9,11.5v-23h0Z"/>
</svg>
