<?xml version="1.0" encoding="UTF-8"?>
<svg id="_图层_1" xmlns="http://www.w3.org/2000/svg" version="1.1" viewBox="0 0 64 64" width="64" height="64">
  <!-- Generator: Adobe Illustrator 29.0.1, SVG Export Plug-In . SVG Version: 2.1.0 Build 192)  -->
  <defs>
    <style>
      .st0 {
        fill: #adadff;
      }

      .st1 {
        fill: #1c1c6d;
      }
    </style>
  </defs>
  <path class="st1" d="M50.3,64H13.8c-7.6,0-13.8-6.2-13.8-13.7V13.7C0,6.2,6.2,0,13.7,0h36.5c7.5,0,13.7,6.2,13.7,13.7v36.6c0,7.5-6.2,13.7-13.7,13.7h0Z"/>
  <g>
    <path class="st0" d="M13.8,34.9l-3.2-18.4,3.1.2,1.9,13.1,4.2-12.6,3.1.2-6.4,17.7-1.1,12.5-2.7-.2,1.1-12.5Z"/>
    <path class="st0" d="M22.9,36.2c0-2.2.2-4.1.7-5.9.4-1.7,1.1-3,1.9-4,.8-1,1.7-1.5,2.8-1.5s2,.5,2.8,1.5c.8,1,1.5,2.4,1.9,4,.5,1.8.7,3.8.7,5.9s-.2,4.1-.7,5.9c-.4,1.7-1.1,3.1-1.9,4.1-.8,1-1.8,1.5-2.8,1.5s-2-.5-2.8-1.5c-.8-1-1.5-2.4-1.9-4.1-.4-1.8-.7-3.7-.7-5.9ZM25.8,36.2c0,1.9.2,3.4.7,4.6.4,1.2,1.1,1.8,1.8,1.8s1.4-.6,1.8-1.8c.4-1.2.7-2.7.7-4.6s-.2-3.4-.7-4.6c-.4-1.2-1.1-1.8-1.8-1.8s-1.4.6-1.8,1.8c-.4,1.2-.7,2.8-.7,4.6Z"/>
    <path class="st0" d="M36.8,15.8h3.1v31.9h-3.1V15.8Z"/>
    <path class="st0" d="M46.1,36.3l-4.1-11.2h3.8l2.4,7.5,2.4-7.5h3.7l-4.1,11,4.2,11h-3.8l-2.5-7.3-2.4,7.3h-3.7l4.2-10.8Z"/>
  </g>
</svg>