<?xml version="1.0" encoding="UTF-8"?>
<svg id="_图层_1" xmlns="http://www.w3.org/2000/svg" version="1.1" viewBox="0 0 64 64" width="64" height="64">
  <!-- Generator: Adobe Illustrator 29.0.1, SVG Export Plug-In . SVG Version: 2.1.0 Build 192)  -->
  <defs>
    <style>
      .st0 {
        fill: #0080ff;
      }

      .st1, .st2 {
        isolation: isolate;
        opacity: .2;
      }

      .st2 {
        fill: #fff;
      }

      .st3 {
        fill: #e4e4e4;
      }
    </style>
  </defs>
  <path class="st0" d="M50.4,64H13.8c-7.6,0-13.8-6.2-13.8-13.7V13.7C0,6.2,6.2,0,13.7,0h36.5c7.5,0,13.7,6.2,13.7,13.7v36.6c0,7.5-6.2,13.7-13.7,13.7h.1Z"/>
  <g>
    <path class="st1" d="M8,9.3c-.7,0-1.3.5-1.3,1.2v8.4c0,.6.6,1.2,1.3,1.2h38.2v5.5c0,1.4-.5,1.6-1.1,1.9s-1.2.2-1.2.2c-.7,0-1.4.5-1.4,1.2v7.5c0,.6.6,1.2,1.3,1.2h4s0,0,0,0c0,0,2.5,0,5.1-1.3,2.5-1.2,5.2-3.8,5.2-8.3V10.4c0-.6-.6-1.2-1.3-1.2H8ZM32.4,26.6c-3.6,0-6.4,2.6-6.4,5.8s2.9,5.8,6.4,5.8,6.4-2.6,6.4-5.8-2.9-5.8-6.4-5.8ZM17,27.5s0,0,0,0c0,0-2.5,0-5.1,1.3-2.5,1.2-5.2,3.8-5.2,8.3v17.4c0,.6.6,1.2,1.3,1.2h48.9c.7,0,1.3-.5,1.3-1.2v-8.4c0-.6-.6-1.2-1.3-1.2H18.7v-5.5c0-1.4.5-1.6,1.1-1.9s1.2-.2,1.2-.2c.7,0,1.4-.5,1.4-1.2v-7.5c0-.6-.6-1.2-1.3-1.2h-4Z"/>
    <path class="st3" d="M8,8.5c-.7,0-1.3.5-1.3,1.2v8.4c0,.6.6,1.2,1.3,1.2h38.2v5.5c0,1.4-.5,1.6-1.1,1.9s-1.2.2-1.2.2c-.7,0-1.4.5-1.4,1.2v7.5c0,.6.6,1.2,1.3,1.2h4s0,0,0,0c0,0,2.5,0,5.1-1.3,2.5-1.2,5.2-3.8,5.2-8.3V9.6c0-.6-.6-1.2-1.3-1.2H8ZM32.4,25.8c-3.6,0-6.4,2.6-6.4,5.8s2.9,5.8,6.4,5.8,6.4-2.6,6.4-5.8-2.9-5.8-6.4-5.8ZM17,26.6s0,0,0,0c0,0-2.5,0-5.1,1.3-2.5,1.2-5.2,3.8-5.2,8.3v17.4c0,.6.6,1.2,1.3,1.2h48.9c.7,0,1.3-.5,1.3-1.2v-8.4c0-.6-.6-1.2-1.3-1.2H18.7v-5.5c0-1.4.5-1.6,1.1-1.9s1.2-.2,1.2-.2c.7,0,1.4-.5,1.4-1.2v-7.5c0-.6-.6-1.2-1.3-1.2h-4Z"/>
    <path class="st2" d="M8,8.5c-.7,0-1.3.5-1.3,1.2v.8c0-.6.6-1.2,1.3-1.2h48.9c.7,0,1.3.5,1.3,1.2v-.8c0-.6-.6-1.2-1.3-1.2H8ZM46.2,24.6c0,1.4-.5,1.6-1.1,1.9s-1.2.2-1.2.2c-.7,0-1.4.5-1.4,1.2v.8c0-.7.6-1.2,1.4-1.2,0,0,.6,0,1.2-.2s1.1-.5,1.1-1.9v-.8ZM32.4,25.8c-3.6,0-6.4,2.6-6.4,5.8s0,.3,0,.4c.2-3,3-5.4,6.4-5.4s6.2,2.4,6.4,5.4c0-.1,0-.3,0-.4,0-3.2-2.9-5.8-6.4-5.8ZM17,26.6s0,0,0,0c0,0-2.5,0-5.1,1.3-2.5,1.2-5.2,3.8-5.2,8.3v.8c0-4.4,2.6-7,5.2-8.3,2.5-1.2,5.1-1.3,5.1-1.3,0,0,0,0,0,0h4c.7,0,1.3.5,1.3,1.2v-.8c0-.6-.6-1.2-1.3-1.2h-4ZM18.7,44v.8h38.2c.7,0,1.3.5,1.3,1.2v-.8c0-.6-.6-1.2-1.3-1.2H18.7Z"/>
  </g>
</svg>