<?xml version="1.0" encoding="UTF-8" standalone="no"?>
<svg
   id="_图层_1"
   data-name="图层_1"
   version="1.1"
   viewBox="0 0 128 128"
   width="48"
   height="48"
   sodipodi:docname="application-x-kicad-project.svg"
   xml:space="preserve"
   inkscape:version="1.4 (e7c3feb100, 2024-10-09)"
   xmlns:inkscape="http://www.inkscape.org/namespaces/inkscape"
   xmlns:sodipodi="http://sodipodi.sourceforge.net/DTD/sodipodi-0.dtd"
   xmlns="http://www.w3.org/2000/svg"
   xmlns:svg="http://www.w3.org/2000/svg"><sodipodi:namedview
     id="namedview3"
     pagecolor="#505050"
     bordercolor="#eeeeee"
     borderopacity="1"
     inkscape:showpageshadow="0"
     inkscape:pageopacity="0"
     inkscape:pagecheckerboard="0"
     inkscape:deskcolor="#505050"
     inkscape:zoom="10.6875"
     inkscape:cx="32.093567"
     inkscape:cy="46.97076"
     inkscape:window-width="1920"
     inkscape:window-height="939"
     inkscape:window-x="0"
     inkscape:window-y="34"
     inkscape:window-maximized="1"
     inkscape:current-layer="_图层_1" /><!-- Generator: Adobe Illustrator 29.0.1, SVG Export Plug-In . SVG Version: 2.1.0 Build 192)  --><defs
     id="defs1"><style
       id="style1">
      .st0 {
        fill: #0071e9;
      }

      .st1 {
        fill: #fff;
      }

      .st2 {
        fill: #5aaaff;
        isolation: isolate;
        opacity: .5;
      }
    </style><style
       id="style1-6">
      .st0 {
        fill: #9c27b0;
      }

      .st1 {
        fill: #999;
      }

      .st2, .st3 {
        isolation: isolate;
        opacity: .2;
      }

      .st4 {
        display: none;
      }

      .st5 {
        fill: #f4f4f4;
      }

      .st3 {
        fill: #fff;
      }

      .st6 {
        fill: #e4e4e4;
      }

      .st7 {
        fill: #fefdfe;
      }

      .st8 {
        fill: url(#_未命名的渐变_2);
      }
    </style><linearGradient
       id="_未命名的渐变_2"
       data-name="未命名的渐变 2"
       x1="1016.8"
       y1="-1278.7"
       x2="895.4"
       y2="-1068.3"
       gradientTransform="matrix(0.3,0,0,-0.3,-274,-343.5)"
       gradientUnits="userSpaceOnUse"><stop
         offset="0"
         stop-color="#ff5c41"
         id="stop1" /><stop
         offset="1"
         stop-color="#fe177d"
         id="stop2" /></linearGradient></defs><path
     class="st0"
     d="M18.2,0c-5.6,0-10.2,4.6-10.2,10.2v107.6c0,5.6,4.6,10.2,10.2,10.2h91.6c5.6,0,10.2-4.6,10.2-10.2V40.6L82.2,0H18.2Z"
     id="path1"
     style="fill:#cd9f00;fill-opacity:1" /><path
     class="st2"
     d="M 82.761404,3.1812865 V 32.381287 c 0,3.2 2.2,11.6 12.2,11.6 H 120.5614 Z"
     id="path2"
     style="opacity:0.5;fill:#a47f00;fill-opacity:1" /><path
     class="st2"
     d="M 82.491223,0.21052635 V 29.410527 c 0,3.2 2.2,11.6 12.2,11.6 h 25.599997 z"
     id="path2-5"
     style="opacity:1;isolation:isolate;fill:#e9c235;fill-opacity:1" /><g
     id="g1"
     transform="matrix(2.5358852,0,0,2.2889094,-17.148326,-8.8924797)"><path
       style="opacity:0.1"
       d="m 24,15 v 1 7 h -2 v 12 h 2 v 5.912109 l -4,3.126953 V 42 41 h -2 v 1 3 H 17.875 11 10 v 2 H 11 17.875 18 v 3 1 h 2 v -1 -2.566406 l 4,4.167968 V 57 h -1 -1 v 2 h 1 4 1 v -2 h -1 -1 v -5.546875 a 1.0001,1.0001 0 0 0 -0.115234,-0.734375 1.0001,1.0001 0 0 0 -0.02539,-0.04492 1.0001,1.0001 0 0 0 -0.0059,-0.0078 1.0001,1.0001 0 0 0 -0.240235,-0.269532 l -4.5,-4.689453 4.378907,-3.421875 A 1.0001,1.0001 0 0 0 25.914062,41.820312 1.0001,1.0001 0 0 0 26,41.255859 V 39 h 0.5 11 0.5 v 2 h 10.830078 l 4.050781,-3 -4.050781,-3 H 38 v 1 1 H 37.5 26.5 26 v -2 h 1 1 V 33 23 h -2 v -7 -1 z m 0,10 h 2 v 8 h -2 z m 16,12 h 8.169922 l 1.351562,1 -1.351562,1 H 40 Z m -10,8 v 16 h 2 V 47 h 22 v -2 z m 4,4 v 2 h 6 v -2 z m 10,0 v 2 h 8 v -2 z m -10,6 v 2 h 8 v -2 z m 12,0 v 2 h 6 v -2 z"
       id="path3" /><path
       style="fill:#9f2e03"
       d="m 24,14 v 1 7 h -2 v 12 h 2 v 5.912109 l -4,3.126953 V 41 40 h -2 v 1 3 H 17.875 11 10 v 2 H 11 17.875 18 v 3 1 h 2 v -1 -2.566406 l 4,4.167968 V 56 h -1 -1 v 2 h 1 4 1 v -2 h -1 -1 v -5.546875 a 1.0001,1.0001 0 0 0 -0.115234,-0.734375 1.0001,1.0001 0 0 0 -0.02539,-0.04492 1.0001,1.0001 0 0 0 -0.0059,-0.0078 1.0001,1.0001 0 0 0 -0.240235,-0.269532 l -4.5,-4.689453 4.378907,-3.421875 A 1.0001,1.0001 0 0 0 25.914062,40.820312 1.0001,1.0001 0 0 0 26,40.255859 V 38 h 0.5 11 0.5 v 2 h 10.830078 l 4.050781,-3 -4.050781,-3 H 38 v 1 1 H 37.5 26.5 26 v -2 h 1 1 V 32 22 h -2 v -7 -1 z m 0,10 h 2 v 8 h -2 z m 16,12 h 8.169922 l 1.351562,1 -1.351562,1 H 40 Z m -10,8 v 16 h 2 V 46 h 22 v -2 z m 4,4 v 2 h 6 v -2 z m 10,0 v 2 h 8 v -2 z m -10,6 v 2 h 8 v -2 z m 12,0 v 2 h 6 v -2 z"
       id="path6" /></g></svg>
