<?xml version="1.0" encoding="UTF-8" standalone="no"?>
<svg
   id="_图层_1"
   data-name="图层_1"
   version="1.1"
   viewBox="0 0 128 128"
   width="48"
   height="48"
   sodipodi:docname="application-x-nes-rom.svg"
   xml:space="preserve"
   inkscape:version="1.4 (e7c3feb100, 2024-10-09)"
   xmlns:inkscape="http://www.inkscape.org/namespaces/inkscape"
   xmlns:sodipodi="http://sodipodi.sourceforge.net/DTD/sodipodi-0.dtd"
   xmlns="http://www.w3.org/2000/svg"
   xmlns:svg="http://www.w3.org/2000/svg"><sodipodi:namedview
     id="namedview3"
     pagecolor="#505050"
     bordercolor="#eeeeee"
     borderopacity="1"
     inkscape:showpageshadow="0"
     inkscape:pageopacity="0"
     inkscape:pagecheckerboard="0"
     inkscape:deskcolor="#505050"
     inkscape:zoom="10.6875"
     inkscape:cx="32"
     inkscape:cy="26.292398"
     inkscape:window-width="1920"
     inkscape:window-height="939"
     inkscape:window-x="0"
     inkscape:window-y="34"
     inkscape:window-maximized="1"
     inkscape:current-layer="_图层_1"
     showguides="true"><sodipodi:guide
       position="7.6134526,83.439664"
       orientation="1,0"
       id="guide7"
       inkscape:locked="false" /><sodipodi:guide
       position="120.24109,71.856006"
       orientation="1,0"
       id="guide8"
       inkscape:locked="false" /></sodipodi:namedview><!-- Generator: Adobe Illustrator 29.0.1, SVG Export Plug-In . SVG Version: 2.1.0 Build 192)  --><defs
     id="defs1"><style
       id="style1">
      .st0 {
        fill: #0071e9;
      }

      .st1 {
        fill: #fff;
      }

      .st2 {
        fill: #5aaaff;
        isolation: isolate;
        opacity: .5;
      }
    </style><style
       id="style1-6">
      .st0 {
        fill: #0071e9;
      }

      .st1 {
        fill: #fff;
      }

      .st2 {
        fill: #5aaaff;
        isolation: isolate;
        opacity: .5;
      }
    </style><style
       id="style1-8">
      .st0 {
        fill: #0071e9;
      }

      .st1 {
        fill: #fff;
      }

      .st2 {
        fill: #5aaaff;
        isolation: isolate;
        opacity: .5;
      }
    </style><style
       id="style1-0">
      .st0 {
        fill: #0071e9;
      }

      .st1 {
        fill: #fff;
      }

      .st2 {
        fill: #5aaaff;
        isolation: isolate;
        opacity: .5;
      }
    </style></defs><path
     class="st0"
     d="M18.2,0c-5.6,0-10.2,4.6-10.2,10.2v107.6c0,5.6,4.6,10.2,10.2,10.2h91.6c5.6,0,10.2-4.6,10.2-10.2V40.6L82.2,0H18.2Z"
     id="path1"
     style="fill:#86928e;fill-opacity:1" /><path
     class="st2"
     d="m 82.761404,2.619883 v 29.2 c 0,3.2 2.145542,11.6 11.89801,11.6 h 24.966316 z"
     id="path2"
     style="fill:#6b7572;fill-opacity:1;stroke-width:0.987546" /><path
     class="st2"
     d="M 82.116964,0.02339171 V 29.223392 c 0,3.2 2.2,11.6 12.2,11.6 h 25.599996 z"
     id="path2-3"
     style="opacity:1;isolation:isolate;fill:#a3adaa;fill-opacity:1" /><g
     id="g12"
     transform="matrix(2.5528974,0,0,2.2921925,-17.879851,-9.3032728)"><path
       style="opacity:0.2"
       d="M 12.001953,36 12,47 h 2.988281 V 39.328125 L 20.001953,47 H 23 V 36 H 19.998047 L 20,43.671875 15.011719,36 Z m 14.007813,0 v 7.359375 c 0,0 -0.344542,3.640625 3.25,3.640625 H 37 V 44 H 29.810547 C 29.327238,44 29,43.960247 29,43.5 29,42.957625 29.258926,43.009591 29.810547,43 H 37 V 40 H 29.671875 C 29.258261,40 29,39.966088 29,39.5 29,39.033908 29.258502,39.014104 29.671875,39 H 37 v -3 z m 16.86914,0 C 41.280403,36 40,37.471163 40,39.177734 40,41.578773 41.406851,43 43.132812,43 h 4.15625 C 47.801606,43 48,42.959612 48,43.5 48,43.965157 47.802752,44 47.417969,44 H 40 v 3 h 8.185547 C 49.656596,47 51,45.682553 51,43.822266 51,41.577863 49.593156,40 47.867188,40 h -4.15625 C 43.198393,40 43,40.040389 43,39.5 43,39.030455 43.197246,39 43.582031,39 H 51 v -3 z"
       id="path6" /><path
       style="fill:#f5d832"
       d="M 47.866265,39 H 43.710156 C 43.197611,39 43,39.040389 43,38.5 43,38.030455 43.197612,38 43.582397,38 H 51 V 35 H 42.878212 C 41.279709,35 40,36.470707 40,38.177278 40,40.578317 41.407468,42 43.13343,42 h 4.156113 C 47.802086,42 48,41.959612 48,42.5 48,42.965157 47.802086,43 47.417303,43 H 40 v 3 h 8.184764 C 49.655813,46 51,44.683007 51,42.82272 51,40.578317 49.592233,39 47.866265,39"
       id="path7" /><path
       id="polygon1045"
       style="fill:#ffffff"
       class="logo"
       d="m 12.001198,35 h 3.009558 L 19.999979,42.670904 19.997579,35 h 3.002418 V 46 H 20.00242 L 14.989243,38.329097 V 46 H 12 Z" /><path
       style="fill:#f5d832"
       d="m 26.008918,42.358882 c 0,0 -0.344572,3.641118 3.24997,3.641118 H 37 V 43 H 29.810592 C 29.327283,43 29,42.960247 29,42.5 29,41.957625 29.258971,42.009591 29.810592,42 H 37 V 39 H 29.672502 C 29.258888,39 29,38.966088 29,38.5 29,38.033908 29.259129,38.014104 29.672502,38 H 37 V 35 H 26.008918 v 7.358882"
       id="path8" /></g></svg>
