<?xml version="1.0" encoding="UTF-8" standalone="no"?>
<svg
   id="_图层_1"
   data-name="图层_1"
   version="1.1"
   viewBox="0 0 128 128"
   width="48"
   height="48"
   sodipodi:docname="application-sweethome3d.svg"
   xml:space="preserve"
   inkscape:version="1.4 (e7c3feb100, 2024-10-09)"
   xmlns:inkscape="http://www.inkscape.org/namespaces/inkscape"
   xmlns:sodipodi="http://sodipodi.sourceforge.net/DTD/sodipodi-0.dtd"
   xmlns="http://www.w3.org/2000/svg"
   xmlns:svg="http://www.w3.org/2000/svg"><sodipodi:namedview
     id="namedview3"
     pagecolor="#505050"
     bordercolor="#eeeeee"
     borderopacity="1"
     inkscape:showpageshadow="0"
     inkscape:pageopacity="0"
     inkscape:pagecheckerboard="0"
     inkscape:deskcolor="#505050"
     inkscape:zoom="10.6875"
     inkscape:cx="32"
     inkscape:cy="33.684211"
     inkscape:window-width="1920"
     inkscape:window-height="939"
     inkscape:window-x="0"
     inkscape:window-y="34"
     inkscape:window-maximized="1"
     inkscape:current-layer="g1" /><!-- Generator: Adobe Illustrator 29.0.1, SVG Export Plug-In . SVG Version: 2.1.0 Build 192)  --><defs
     id="defs1"><style
       id="style1">
      .st0 {
        fill: #0071e9;
      }

      .st1 {
        fill: #fff;
      }

      .st2 {
        fill: #5aaaff;
        isolation: isolate;
        opacity: .5;
      }
    </style><style
       id="style1-6">
      .st0 {
        fill: #d32f2f;
      }

      .st1, .st2 {
        fill: #4f4f4f;
      }

      .st3, .st4, .st5, .st6, .st2 {
        stroke-linejoin: round;
      }

      .st3, .st5, .st6 {
        fill: none;
        stroke-linecap: round;
        stroke-width: 6px;
      }

      .st3, .st2 {
        stroke: #4f4f4f;
      }

      .st7, .st8, .st6, .st9, .st10, .st11 {
        opacity: .2;
      }

      .st7, .st12, .st6, .st13, .st14, .st9, .st10, .st11, .st15 {
        isolation: isolate;
      }

      .st7, .st16, .st11, .st17, .st18 {
        display: none;
      }

      .st19 {
        fill: #dc3a2d;
      }

      .st20, .st10, .st11, .st15 {
        fill: #fff;
      }

      .st21 {
        fill: #ffca1d;
      }

      .st4, .st6 {
        stroke: #000;
      }

      .st4, .st2 {
        stroke-width: 2px;
      }

      .st22 {
        fill: #ff9e43;
      }

      .st23 {
        fill: #75ac4c;
      }

      .st5 {
        stroke: #85722f;
      }

      .st24 {
        fill: #f13f3f;
      }

      .st25 {
        fill: #0073d6;
      }

      .st26 {
        fill: #b4291e;
      }

      .st12, .st13, .st15 {
        opacity: .1;
      }

      .st13 {
        fill: url(#_未命名的渐变_2);
      }

      .st27 {
        fill: #3c8cf8;
      }

      .st14 {
        opacity: .3;
      }

      .st28 {
        fill: #f5c839;
      }

      .st17, .st29 {
        fill: #e4e4e4;
      }

      .st18 {
        fill: #47b648;
      }

      .st30 {
        fill: #41b941;
      }
    </style><linearGradient
       id="_未命名的渐变_2"
       data-name="未命名的渐变 2"
       x1="138.5"
       y1="-1155.3"
       x2="144.5"
       y2="-1155.3"
       gradientTransform="matrix(2,0,0,-2,-274,-2276.6)"
       gradientUnits="userSpaceOnUse"><stop
         offset="0"
         stop-color="#000"
         stop-opacity="0"
         id="stop1" /><stop
         offset="1"
         stop-color="#000"
         id="stop2" /></linearGradient></defs><path
     class="st0"
     d="M18.2,0c-5.6,0-10.2,4.6-10.2,10.2v107.6c0,5.6,4.6,10.2,10.2,10.2h91.6c5.6,0,10.2-4.6,10.2-10.2V40.6L82.2,0H18.2Z"
     id="path1"
     style="fill:#e4e4e4;fill-opacity:1" /><path
     class="st2"
     d="m 82.761404,2.619883 v 29.2 c 0,3.2 2.145542,11.6 11.89801,11.6 h 24.966316 z"
     id="path2"
     style="fill:#b6b6b6;fill-opacity:1;stroke-width:0;stroke-dasharray:none" /><path
     class="st2"
     d="M 82.116964,0.02339171 V 29.223392 c 0,3.2 2.2,11.6 12.2,11.6 h 25.599996 z"
     id="path2-3"
     style="opacity:1;isolation:isolate;fill:#f2f2f2;fill-opacity:1;stroke-width:0;stroke-dasharray:none" /><g
     id="g1"
     transform="matrix(1.3927616,0,0,1.3625731,18.98772,31.789474)"><g
       id="g64"><path
         class="st9"
         d="m 31.6,3.5 c -1.2,0 -2.4,0.3 -3.5,0.9 L 8.7,15.6 c -2,1.2 -3.3,3.4 -3.3,5.7 v 22.4 c 0,2.4 1.3,4.5 3.3,5.7 l 19.4,11.2 c 2,1.2 4.6,1.2 6.6,0 L 54.1,49.4 c 2,-1.2 3.3,-3.4 3.3,-5.7 V 21.3 c 0,-2.4 -1.3,-4.5 -3.3,-5.7 L 34.7,4.4 c -1,-0.6 -2,-0.9 -3.1,-0.9 z"
         id="path53" /><path
         class="st25"
         d="m 31.6,2.5 c -1.2,0 -2.4,0.3 -3.5,0.9 L 8.7,14.6 c -2,1.2 -3.3,3.4 -3.3,5.7 v 22.4 c 0,1.5 0.5,3 1.5,4.2 L 31.4,27.1 55.9,46.9 c 1,-1.2 1.5,-2.7 1.5,-4.2 V 20.3 c 0,-2.4 -1.3,-4.5 -3.3,-5.7 L 34.7,3.4 c -1,-0.6 -2,-0.9 -3.1,-0.9 z M 6.9,46.9 C 7,47.1 7.2,47.2 7.3,47.4 7.1,47.2 7,47.1 6.9,46.9 Z m 0.5,0.5 c 0.1,0.1 0.3,0.2 0.4,0.4 C 7.7,47.7 7.5,47.6 7.4,47.4 Z m 48.5,-0.5 c -0.3,0.4 -0.7,0.8 -1.2,1.1 0.4,-0.3 0.8,-0.7 1.2,-1.1 z M 30.6,60.4 c 0.4,0 0.9,0 1.3,0 -0.4,0 -0.9,0 -1.3,0 z"
         id="path54" /><path
         class="st15"
         d="m 31.6,2.5 c -1.2,0 -2.4,0.3 -3.5,0.9 L 8.7,14.6 c -2,1.2 -3.3,3.4 -3.3,5.7 v 1 c 0,-2.4 1.3,-4.5 3.3,-5.7 L 28.1,4.4 c 1,-0.6 2.2,-0.9 3.5,-0.9 1.1,0 2.2,0.3 3.1,0.9 l 19.4,11.2 c 2,1.2 3.3,3.4 3.3,5.7 v -1 c 0,-2.4 -1.3,-4.5 -3.3,-5.7 L 34.7,3.4 c -1,-0.6 -2,-0.9 -3.1,-0.9 z"
         id="path55" /><path
         class="st14"
         d="m 31.4,2.5 c -1.2,0 -2.3,0.3 -3.3,0.9 L 8.7,14.6 c -2,1.2 -3.3,3.4 -3.3,5.7 v 22.4 c 0,1.5 0.5,3 1.5,4.2 L 31.4,27.1 Z M 6.9,46.9 C 7,47.1 7.2,47.2 7.3,47.4 7.1,47.2 7,47.1 6.9,46.9 Z m 0.5,0.5 c 0.1,0.1 0.3,0.2 0.4,0.4 C 7.7,47.7 7.5,47.6 7.4,47.4 Z"
         id="path56" /><path
         class="st22"
         d="M 31.4,27.2 6.9,46.9 C 7.4,47.5 8,48 8.7,48.4 l 19.4,11.2 c 2,1.2 4.6,1.2 6.6,0 L 54.1,48.4 c 0.7,-0.4 1.3,-0.9 1.8,-1.5 L 31.4,27.1 Z"
         id="path57" /><path
         class="st12"
         d="M 31.4,14.5 47,23.3 V 40.9 L 31.4,49.7 15.8,40.9 V 23.3 Z"
         id="path58" /><path
         class="st10"
         d="M 31.4,27.2 6.9,46.9 c 0.2,0.2 0.3,0.4 0.5,0.6 L 31.3,28.2 55.2,47.5 c 0.2,-0.2 0.4,-0.4 0.5,-0.6 L 31.2,27.1 Z"
         id="path59" /><path
         class="st24"
         d="M 31.4,13.5 47,22.3 V 39.9 L 31.4,48.7 15.8,39.9 V 22.3 Z"
         id="path60" /><path
         class="st14"
         d="M 47,22.3 31.4,31.1 V 48.7 L 47,39.9 Z"
         id="path61" /><path
         class="st12"
         d="m 15.8,22.3 v 17.6 l 15.6,8.8 V 31.1 Z"
         id="path62" /><path
         class="st10"
         d="m 31.4,13.5 -15.6,8.8 0.9,0.5 14.7,-8.3 14.7,8.3 0.9,-0.5 z"
         id="path63" /><path
         class="st12"
         d="m 15.8,22.3 v 1 L 31.4,32.1 47,23.3 v -1 l -15.6,8.8 z"
         id="path64" /></g></g></svg>
