<?xml version="1.0" encoding="UTF-8" standalone="no"?>
<svg
   id="_图层_1"
   data-name="图层_1"
   version="1.1"
   viewBox="0 0 128 128"
   width="48"
   height="48"
   sodipodi:docname="application-postscript.svg"
   xml:space="preserve"
   inkscape:version="1.4 (e7c3feb100, 2024-10-09)"
   xmlns:inkscape="http://www.inkscape.org/namespaces/inkscape"
   xmlns:sodipodi="http://sodipodi.sourceforge.net/DTD/sodipodi-0.dtd"
   xmlns="http://www.w3.org/2000/svg"
   xmlns:svg="http://www.w3.org/2000/svg"><sodipodi:namedview
     id="namedview3"
     pagecolor="#505050"
     bordercolor="#eeeeee"
     borderopacity="1"
     inkscape:showpageshadow="0"
     inkscape:pageopacity="0"
     inkscape:pagecheckerboard="0"
     inkscape:deskcolor="#505050"
     inkscape:zoom="10.6875"
     inkscape:cx="32"
     inkscape:cy="33.684211"
     inkscape:window-width="1920"
     inkscape:window-height="939"
     inkscape:window-x="0"
     inkscape:window-y="34"
     inkscape:window-maximized="1"
     inkscape:current-layer="_图层_1" /><!-- Generator: Adobe Illustrator 29.0.1, SVG Export Plug-In . SVG Version: 2.1.0 Build 192)  --><defs
     id="defs1"><style
       id="style1">
      .st0 {
        fill: #0071e9;
      }

      .st1 {
        fill: #fff;
      }

      .st2 {
        fill: #5aaaff;
        isolation: isolate;
        opacity: .5;
      }
    </style></defs><path
     class="st0"
     d="M18.2,0c-5.6,0-10.2,4.6-10.2,10.2v107.6c0,5.6,4.6,10.2,10.2,10.2h91.6c5.6,0,10.2-4.6,10.2-10.2V40.6L82.2,0H18.2Z"
     id="path1"
     style="fill:#e4e4e4;fill-opacity:1" /><path
     class="st2"
     d="m 82.761404,2.619883 v 29.2 c 0,3.2 2.145542,11.6 11.89801,11.6 h 24.966316 z"
     id="path2"
     style="fill:#b6b6b6;fill-opacity:1;stroke-width:0.987546" /><path
     class="st2"
     d="M 82.116964,0.02339171 V 29.223392 c 0,3.2 2.2,11.6 12.2,11.6 h 25.599996 z"
     id="path2-3"
     style="opacity:1;isolation:isolate;fill:#fafafa;fill-opacity:1" /><g
     id="g10"
     transform="matrix(2.5486443,0,0,2.2724941,-17.650186,-8.7566431)"><path
       style="opacity:0.1"
       d="m 27.448968,54.97261 c -0.607206,-0.02302 -1.121856,-0.06034 -1.143664,-0.08298 -0.0218,-0.02254 0.242894,-0.17934 0.58824,-0.34839 1.387782,-0.679414 2.484708,-1.826372 3.463298,-3.621268 0.15046,-0.275974 0.649192,-1.348496 1.108296,-2.383392 3.35961,-7.573186 7.76176,-17.389398 7.832144,-17.464638 0.0743,-0.0795 0.28674,-0.07706 1.678742,0.019 3.71091,0.255932 4.395174,0.361428 5.05233,0.778952 0.609198,0.38704 1.166284,1.133994 1.365326,1.830644 0.298488,1.04472 0.605402,5.685762 0.60632,9.168462 7.08e-4,3.579342 -0.316048,8.358888 -0.617152,9.305438 -0.320878,1.00872 -1.089526,1.798902 -2.047348,2.104706 -0.545188,0.17406 -3.412756,0.4272 -7.104318,0.62715 -1.465284,0.07942 -9.189366,0.12692 -10.782214,0.0663 z m -6.632486,-0.356754 c -0.11678,-0.0132 -0.499078,-0.0566 -0.8495,-0.09574 -1.864786,-0.208072 -2.893562,-0.893556 -3.339826,-2.225348 -0.403197,-1.203262 -0.720133,-7.26584 -0.602233,-11.519898 0.09424,-3.4004 0.356013,-6.527 0.603776,-7.211484 0.386769,-1.068534 1.246819,-1.853752 2.285473,-2.086626 0.484007,-0.10852 2.620246,-0.29767 4.99691,-0.442454 1.356378,-0.08266 1.69348,-0.12118 1.801314,-0.206052 0.07298,-0.05742 0.953546,-1.055298 1.956848,-2.217506 1.003306,-1.162212 1.846914,-2.12763 1.874678,-2.145368 0.233884,-0.14942 1.64857,-0.10002 1.64857,0.0575 0,0.05962 -11.199698,13.609726 -13.153974,15.914444 -0.05139,0.06064 -0.07872,0.1253 -0.06076,0.14388 0.01798,0.0186 0.306502,-0.02398 0.641226,-0.09446 0.436194,-0.0919 0.841652,-0.12818 1.4313,-0.12818 2.797654,0 5.831902,1.145582 7.554498,2.852206 1.165966,1.155152 1.643574,2.239698 1.644156,3.733488 0.0015,2.990706 -1.796402,4.918466 -5.154584,5.527918 -0.667916,0.12122 -2.702446,0.210384 -3.277864,0.14366 z m 9.28344,-5.76879 c -0.0015,-2.164982 -0.860726,-4.161312 -2.54632,-5.915294 -0.88655,-0.922518 -1.886182,-1.669206 -3.03168,-2.264542 -0.501844,-0.26081 -1.819294,-0.752072 -2.02161,-0.753826 -0.05842,-5e-4 -0.1062,-0.03762 -0.1062,-0.08238 0,-0.06106 6.373184,-7.70146 11.905346,-14.272566 l 0.17718,-0.210458 0.423368,0.14074 c 0.514476,0.171 1.26322,0.557766 1.347672,0.696158 0.06374,0.1045 0.228,-0.09674 -8.103498,9.9274 -1.29277,1.55541 -2.350846,2.84685 -2.351286,2.869856 -4.26e-4,0.02296 0.238126,0.23441 0.53014,0.469786 2.05375,1.655364 3.65413,4.288328 4.054162,6.669922 0.17096,1.01781 0.0386,2.949708 -0.221128,3.226988 -0.03412,0.03642 -0.05592,-0.15882 -0.05614,-0.501766 z"
       id="path5" /><path
       style="fill:#ec2f36"
       d="m 27.448968,53.97261 c -0.607206,-0.02302 -1.121856,-0.06034 -1.143664,-0.08298 -0.0218,-0.02254 0.242894,-0.17934 0.58824,-0.34839 1.387782,-0.679414 2.484708,-1.826372 3.463298,-3.621268 0.15046,-0.275974 0.649192,-1.348496 1.108296,-2.383392 3.35961,-7.573186 7.76176,-17.389398 7.832144,-17.464638 0.0743,-0.0795 0.28674,-0.07706 1.678742,0.019 3.71091,0.255932 4.395174,0.361428 5.05233,0.778952 0.609198,0.38704 1.166284,1.133994 1.365326,1.830644 0.298488,1.04472 0.605402,5.685762 0.60632,9.168462 7.08e-4,3.579342 -0.316048,8.358888 -0.617152,9.305438 -0.320878,1.00872 -1.089526,1.798902 -2.047348,2.104706 -0.545188,0.17406 -3.412756,0.4272 -7.104318,0.62715 -1.465284,0.07942 -9.189366,0.12692 -10.782214,0.0663 z m -6.632486,-0.356754 c -0.11678,-0.0132 -0.499078,-0.0566 -0.8495,-0.09574 -1.864786,-0.208072 -2.893562,-0.893556 -3.339826,-2.225348 -0.403197,-1.203262 -0.720133,-7.26584 -0.602233,-11.519898 0.09424,-3.4004 0.356013,-6.527 0.603776,-7.211484 0.386769,-1.068534 1.246819,-1.853752 2.285473,-2.086626 0.484007,-0.10852 2.620246,-0.29767 4.99691,-0.442454 1.356378,-0.08266 1.69348,-0.12118 1.801314,-0.206052 0.07298,-0.05742 0.953546,-1.055298 1.956848,-2.217506 1.003306,-1.162212 1.846914,-2.12763 1.874678,-2.145368 0.233884,-0.14942 1.64857,-0.10002 1.64857,0.0575 0,0.05962 -11.199698,13.609726 -13.153974,15.914444 -0.05139,0.06064 -0.07872,0.1253 -0.06076,0.14388 0.01798,0.0186 0.306502,-0.02398 0.641226,-0.09446 0.436194,-0.0919 0.841652,-0.12818 1.4313,-0.12818 2.797654,0 5.831902,1.145582 7.554498,2.852206 1.165966,1.155152 1.643574,2.239698 1.644156,3.733488 0.0015,2.990706 -1.796402,4.918466 -5.154584,5.527918 -0.667916,0.12122 -2.702446,0.210384 -3.277864,0.14366 z m 9.28344,-5.76879 c -0.0015,-2.164982 -0.860726,-4.161312 -2.54632,-5.915294 -0.88655,-0.922518 -1.886182,-1.669206 -3.03168,-2.264542 -0.501844,-0.26081 -1.819294,-0.752072 -2.02161,-0.753826 -0.05842,-5e-4 -0.1062,-0.03762 -0.1062,-0.08238 0,-0.06106 6.373184,-7.70146 11.905346,-14.272566 l 0.17718,-0.210458 0.423368,0.14074 c 0.514476,0.171 1.26322,0.557766 1.347672,0.696158 0.06374,0.1045 0.228,-0.09674 -8.103498,9.9274 -1.29277,1.55541 -2.350846,2.84685 -2.351286,2.869856 -4.26e-4,0.02296 0.238126,0.23441 0.53014,0.469786 2.05375,1.655364 3.65413,4.288328 4.054162,6.669922 0.17096,1.01781 0.0386,2.949708 -0.221128,3.226988 -0.03412,0.03642 -0.05592,-0.15882 -0.05614,-0.501766 z"
       id="path6" /></g></svg>
