<?xml version="1.0" encoding="UTF-8" standalone="no"?>
<svg
   id="_图层_1"
   data-name="图层_1"
   version="1.1"
   viewBox="0 0 128 128"
   width="48"
   height="48"
   sodipodi:docname="application-x-mobipocket-ebook.svg"
   xml:space="preserve"
   inkscape:version="1.4 (e7c3feb100, 2024-10-09)"
   xmlns:inkscape="http://www.inkscape.org/namespaces/inkscape"
   xmlns:sodipodi="http://sodipodi.sourceforge.net/DTD/sodipodi-0.dtd"
   xmlns="http://www.w3.org/2000/svg"
   xmlns:svg="http://www.w3.org/2000/svg"><sodipodi:namedview
     id="namedview3"
     pagecolor="#505050"
     bordercolor="#eeeeee"
     borderopacity="1"
     inkscape:showpageshadow="0"
     inkscape:pageopacity="0"
     inkscape:pagecheckerboard="0"
     inkscape:deskcolor="#505050"
     inkscape:zoom="10.6875"
     inkscape:cx="32"
     inkscape:cy="26.292398"
     inkscape:window-width="1920"
     inkscape:window-height="939"
     inkscape:window-x="0"
     inkscape:window-y="34"
     inkscape:window-maximized="1"
     inkscape:current-layer="_图层_1"
     showguides="true"><sodipodi:guide
       position="7.6134526,83.439664"
       orientation="1,0"
       id="guide7"
       inkscape:locked="false" /><sodipodi:guide
       position="120.24109,71.856006"
       orientation="1,0"
       id="guide8"
       inkscape:locked="false" /></sodipodi:namedview><!-- Generator: Adobe Illustrator 29.0.1, SVG Export Plug-In . SVG Version: 2.1.0 Build 192)  --><defs
     id="defs1"><style
       id="style1">
      .st0 {
        fill: #0071e9;
      }

      .st1 {
        fill: #fff;
      }

      .st2 {
        fill: #5aaaff;
        isolation: isolate;
        opacity: .5;
      }
    </style><style
       id="style1-6">
      .st0 {
        fill: #0071e9;
      }

      .st1 {
        fill: #fff;
      }

      .st2 {
        fill: #5aaaff;
        isolation: isolate;
        opacity: .5;
      }
    </style><style
       id="style1-8">
      .st0 {
        fill: #0071e9;
      }

      .st1 {
        fill: #fff;
      }

      .st2 {
        fill: #5aaaff;
        isolation: isolate;
        opacity: .5;
      }
    </style><style
       id="style1-0">
      .st0 {
        fill: #0071e9;
      }

      .st1 {
        fill: #fff;
      }

      .st2 {
        fill: #5aaaff;
        isolation: isolate;
        opacity: .5;
      }
    </style></defs><path
     class="st0"
     d="M18.2,0c-5.6,0-10.2,4.6-10.2,10.2v107.6c0,5.6,4.6,10.2,10.2,10.2h91.6c5.6,0,10.2-4.6,10.2-10.2V40.6L82.2,0H18.2Z"
     id="path1"
     style="fill:#e4e4e4;fill-opacity:1" /><path
     class="st2"
     d="m 82.761404,2.619883 v 29.2 c 0,3.2 2.145542,11.6 11.89801,11.6 h 24.966316 z"
     id="path2"
     style="fill:#b6b6b6;fill-opacity:1;stroke-width:0.987546" /><path
     class="st2"
     d="M 82.116964,0.02339171 V 29.223392 c 0,3.2 2.2,11.6 12.2,11.6 h 25.599996 z"
     id="path2-3"
     style="opacity:1;isolation:isolate;fill:#fafafa;fill-opacity:1" /><g
     id="g12"
     transform="matrix(2.5528974,0,0,2.2889094,-17.879851,-9.0094388)"><path
       style="opacity:0.1"
       d="m 32.917028,53.185197 c -0.217287,-0.150042 -1.839138,-1.202381 -3.604111,-2.33853 -1.764973,-1.136151 -3.68165,-2.372216 -4.259276,-2.746816 -0.577633,-0.374598 -2.389282,-1.544212 -4.025896,-2.599146 l -2.975658,-1.91806 -0.03178,-2.17205 c -0.01743,-1.194627 0.0021,-2.172049 0.04277,-2.172049 0.06055,0 5.427086,3.431463 8.682604,5.551833 0.417179,0.271713 2.067639,1.337623 3.667692,2.368689 l 2.9092,1.874665 0.416542,-0.252091 c 2.442825,-1.478382 11.064592,-7.027725 11.158609,-7.182163 0.06769,-0.11116 0.09394,-0.418044 0.05838,-0.68195 l -0.06468,-0.479829 -5.771962,3.67615 -5.771955,3.676151 -0.48594,-0.279008 c -1.070846,-0.614832 -14.855764,-9.386189 -14.86156,-9.456423 -0.0035,-0.04147 1.319703,-0.824447 2.940266,-1.739955 1.62057,-0.915508 3.419094,-1.936035 3.99672,-2.267836 0.577633,-0.331802 1.785399,-1.016991 2.683933,-1.522644 0.898534,-0.505655 2.079329,-1.171813 2.623992,-1.480351 0.54467,-0.308537 1.064651,-0.532449 1.155511,-0.497581 0.248388,0.09531 2.826754,1.716752 2.788471,1.753561 -0.02681,0.02575 -9.06052,5.192689 -9.812054,5.612107 -0.17703,0.0988 0.01022,0.24905 1.190413,0.955342 0.770266,0.460957 1.461929,0.838103 1.537018,0.838103 0.0751,0 2.217502,-1.226897 4.76091,-2.726439 2.543401,-1.499541 4.7313,-2.781916 4.861983,-2.849724 0.20118,-0.104384 0.457394,0.0161 1.670865,0.785668 0.788284,0.499923 1.486947,0.962652 1.552586,1.028287 0.08131,0.08133 -1.408204,1.036165 -4.675699,2.997322 -2.637264,1.582893 -4.795028,2.900224 -4.795028,2.927405 0,0.08249 2.434187,1.688336 2.559235,1.688336 0.06405,0 0.630308,-0.306218 1.258334,-0.680485 5.454141,-3.250354 8.593088,-5.046593 8.7283,-4.994708 0.08858,0.03399 0.79401,0.463601 1.567643,0.95469 L 46,39.72856 45.90907,45.431474 c -0.04627,0.03928 -1.764483,1.140319 -3.818276,2.446743 -2.053786,1.306426 -4.653117,2.960033 -5.776281,3.674684 -1.123164,0.714651 -2.258179,1.435655 -2.522247,1.602233 L 33.312136,53.458 Z"
       id="path6" /><path
       style="fill:#f63f54"
       d="m 32.917028,52.184885 c -0.217287,-0.150042 -1.839138,-1.202381 -3.604111,-2.33853 -1.764973,-1.136151 -3.68165,-2.372216 -4.259276,-2.746816 -0.577633,-0.374598 -2.389282,-1.544212 -4.025896,-2.599146 l -2.975658,-1.91806 -0.03178,-2.17205 c -0.01743,-1.194627 0.0021,-2.172049 0.04277,-2.172049 0.06055,0 5.427086,3.431463 8.682604,5.551833 0.417179,0.271713 2.067639,1.337623 3.667692,2.368689 l 2.9092,1.874665 0.416542,-0.252091 c 2.442825,-1.478382 11.064592,-7.027725 11.158609,-7.182163 0.06769,-0.11116 0.09394,-0.418044 0.05838,-0.68195 l -0.06468,-0.479829 -5.771962,3.67615 -5.771955,3.676151 -0.48594,-0.279008 c -1.070846,-0.614832 -14.855764,-9.386189 -14.86156,-9.456423 -0.0035,-0.04147 1.319703,-0.824447 2.940266,-1.739955 1.62057,-0.915508 3.419094,-1.936035 3.99672,-2.267836 0.577633,-0.331802 1.785399,-1.016991 2.683933,-1.522644 0.898534,-0.505655 2.079329,-1.171813 2.623992,-1.480351 0.54467,-0.308537 1.064651,-0.532449 1.155511,-0.497581 0.248388,0.09531 2.826754,1.716752 2.788471,1.753561 -0.02681,0.02575 -9.06052,5.192689 -9.812054,5.612107 -0.17703,0.0988 0.01022,0.24905 1.190413,0.955342 0.770266,0.460957 1.461929,0.838103 1.537018,0.838103 0.0751,0 2.217502,-1.226897 4.76091,-2.726439 2.543401,-1.499541 4.7313,-2.781916 4.861983,-2.849724 0.20118,-0.104384 0.457394,0.0161 1.670865,0.785668 0.788284,0.499923 1.486947,0.962652 1.552586,1.028287 0.08131,0.08133 -1.408204,1.036165 -4.675699,2.997322 -2.637264,1.582893 -4.795028,2.900224 -4.795028,2.927405 0,0.08249 2.434187,1.688336 2.559235,1.688336 0.06405,0 0.630308,-0.306218 1.258334,-0.680485 5.454141,-3.250354 8.593088,-5.046593 8.7283,-4.994708 0.08858,0.03399 0.79401,0.463601 1.567643,0.95469 L 46,38.728248 45.90907,44.431162 c -0.04627,0.03928 -1.764483,1.140319 -3.818276,2.446743 -2.053786,1.306426 -4.653117,2.960033 -5.776281,3.674684 -1.123164,0.714651 -2.258179,1.435655 -2.522247,1.602233 l -0.48013,0.302866 z"
       id="path7" /></g></svg>
