<?xml version="1.0" encoding="UTF-8" standalone="no"?>
<svg
   id="_图层_1"
   data-name="图层_1"
   version="1.1"
   viewBox="0 0 128 128"
   width="48"
   height="48"
   sodipodi:docname="application-pdf.svg"
   xml:space="preserve"
   inkscape:version="1.4 (e7c3feb100, 2024-10-09)"
   xmlns:inkscape="http://www.inkscape.org/namespaces/inkscape"
   xmlns:sodipodi="http://sodipodi.sourceforge.net/DTD/sodipodi-0.dtd"
   xmlns="http://www.w3.org/2000/svg"
   xmlns:svg="http://www.w3.org/2000/svg"><sodipodi:namedview
     id="namedview3"
     pagecolor="#505050"
     bordercolor="#eeeeee"
     borderopacity="1"
     inkscape:showpageshadow="0"
     inkscape:pageopacity="0"
     inkscape:pagecheckerboard="0"
     inkscape:deskcolor="#505050"
     inkscape:zoom="10.6875"
     inkscape:cx="32"
     inkscape:cy="32"
     inkscape:window-width="1920"
     inkscape:window-height="939"
     inkscape:window-x="0"
     inkscape:window-y="34"
     inkscape:window-maximized="1"
     inkscape:current-layer="_图层_1" /><!-- Generator: Adobe Illustrator 29.0.1, SVG Export Plug-In . SVG Version: 2.1.0 Build 192)  --><defs
     id="defs1"><style
       id="style1">
      .st0 {
        fill: #0071e9;
      }

      .st1 {
        fill: #fff;
      }

      .st2 {
        fill: #5aaaff;
        isolation: isolate;
        opacity: .5;
      }
    </style></defs><path
     class="st0"
     d="M18.2,0c-5.6,0-10.2,4.6-10.2,10.2v107.6c0,5.6,4.6,10.2,10.2,10.2h91.6c5.6,0,10.2-4.6,10.2-10.2V40.6L82.2,0H18.2Z"
     id="path1"
     style="fill:#c03630;fill-opacity:1" /><path
     class="st2"
     d="m 82.761404,2.619883 v 29.2 c 0,3.2 2.145542,11.6 11.89801,11.6 h 24.966316 z"
     id="path2"
     style="fill:#9a2b26;fill-opacity:1;stroke-width:0.987546" /><path
     class="st2"
     d="M 82.116964,0.02339171 V 29.223392 c 0,3.2 2.2,11.6 12.2,11.6 h 25.599996 z"
     id="path2-3"
     style="opacity:1;isolation:isolate;fill:#f36961;fill-opacity:1" /><g
     id="g4"
     transform="matrix(2.5486443,0,0,2.2823433,-17.463051,-8.8662152)"><path
       style="opacity:0.2"
       d="m 30.293017,28.000003 c -0.645764,0 -1.249654,0.311804 -1.395744,0.826445 -0.542528,1.972993 0.06468,5.024185 1.077384,8.825849 l -0.305494,0.736026 c -0.775418,1.86458 -1.74468,3.721563 -2.597,5.369453 -3.5189,6.792089 -6.25646,10.456752 -8.08178,10.713492 l -0.007,-0.07458 c -0.03962,-0.84723 1.54532,-3.031582 3.69348,-4.768274 0.22407,-0.178765 1.180256,-1.091333 1.180256,-1.091333 0,0 -1.290674,0.672124 -1.5806,0.845462 -2.69192,1.585051 -4.03144,3.17314 -4.24984,4.227309 -0.06482,0.313116 -0.02324,0.698406 0.25725,0.856593 l 0.68824,0.341041 c 1.87376,0.925246 4.17774,-1.507573 7.2408,-6.803414 3.11696,-1.008677 7.00602,-1.958354 10.5469,-2.47294 3.1696,1.786549 6.8054,2.637149 8.20232,2.269923 0.265818,-0.06933 0.54544,-0.275164 0.68824,-0.464757 0.112,-0.174443 0.268562,-0.872448 0.268562,-0.872448 0,0 -0.262822,0.352821 -0.47922,0.456829 -0.884128,0.41171 -3.67542,-0.275163 -6.53968,-1.657557 2.4766,-0.260027 4.53978,-0.270054 5.64242,0.07762 1.40042,0.440975 1.40154,0.892985 1.382892,0.98506 0.0189,-0.07582 0.08162,-0.378661 0.07392,-0.507583 -0.03178,-0.331539 -0.13538,-0.627599 -0.38913,-0.872448 -0.518378,-0.5038 -1.7983,-0.757681 -3.54242,-0.780428 -1.3146,-0.01409 -2.891,0.09944 -4.60208,0.341041 -0.784168,-0.444206 -1.61168,-0.932524 -2.2673,-1.537128 -1.66278,-1.532018 -3.05648,-3.659 -3.92196,-6.043551 0.05908,-0.228608 0.11564,-0.451982 0.167216,-0.677345 0.240562,-1.067164 0.413238,-4.595363 0.413238,-4.595363 0,0 -0.685076,2.650544 -0.792708,3.050363 -0.06916,0.253523 -0.155204,0.524115 -0.254058,0.805812 -0.525,-1.820109 -0.791126,-3.584147 -0.791126,-4.922125 0,-0.378122 0.0329,-1.113914 0.14147,-1.695674 0.05292,-0.414942 0.20524,-0.630416 0.36344,-0.734438 0.312998,0.07485 0.663362,0.548394 1.029126,1.340381 0.31409,0.684733 0.294238,1.477742 0.294238,1.968574 0,0 0.336854,-1.215326 0.258888,-1.933633 -0.04746,-0.431211 -0.463344,-1.540581 -1.347472,-1.527599 h -0.07238 l -0.393946,-0.0041 z m 0.300692,11.019675 c 0.914914,1.814723 2.17672,3.538157 3.83194,4.920606 0.368998,0.307688 0.7616,0.600419 1.165766,0.875596 -3.00594,0.551474 -6.16294,1.327234 -9.0965,2.539645 0.530474,-0.929582 1.104054,-1.942333 1.69162,-3.034481 1.137836,-2.122425 1.82728,-3.759542 2.40716,-5.301228 z"
       id="path6-2" /><path
       style="fill:#ffffff"
       d="m 30.293017,27.000003 c -0.645764,0 -1.249654,0.311804 -1.395744,0.826445 -0.542528,1.972993 0.06468,5.024185 1.077384,8.825849 l -0.305494,0.736026 c -0.775418,1.86458 -1.74468,3.721563 -2.597,5.369453 -3.5189,6.792089 -6.25646,10.456752 -8.08178,10.713492 l -0.007,-0.07458 c -0.03962,-0.84723 1.54532,-3.031582 3.69348,-4.768274 0.22407,-0.178765 1.180256,-1.091333 1.180256,-1.091333 0,0 -1.290674,0.672124 -1.5806,0.845462 -2.69192,1.585051 -4.03144,3.17314 -4.24984,4.227309 -0.06482,0.313116 -0.02324,0.698406 0.25725,0.856593 l 0.68824,0.341041 c 1.87376,0.925246 4.17774,-1.507573 7.2408,-6.803414 3.11696,-1.008677 7.00602,-1.958354 10.5469,-2.47294 3.1696,1.786549 6.8054,2.637149 8.20232,2.269923 0.265818,-0.06933 0.54544,-0.275164 0.68824,-0.464757 0.112,-0.174443 0.268562,-0.872448 0.268562,-0.872448 0,0 -0.262822,0.352821 -0.47922,0.456829 -0.884128,0.41171 -3.67542,-0.275163 -6.53968,-1.657557 2.4766,-0.260027 4.53978,-0.270054 5.64242,0.07762 1.40042,0.440975 1.40154,0.892985 1.382892,0.98506 0.0189,-0.07582 0.08162,-0.378661 0.07392,-0.507583 -0.03178,-0.331539 -0.13538,-0.627599 -0.38913,-0.872448 -0.518378,-0.5038 -1.7983,-0.757681 -3.54242,-0.780428 -1.3146,-0.01409 -2.891,0.09944 -4.60208,0.341041 -0.784168,-0.444206 -1.61168,-0.932524 -2.2673,-1.537128 -1.66278,-1.532018 -3.05648,-3.659 -3.92196,-6.043551 0.05908,-0.228608 0.11564,-0.451982 0.167216,-0.677345 0.240562,-1.067164 0.413238,-4.595363 0.413238,-4.595363 0,0 -0.685076,2.650544 -0.792708,3.050363 -0.06916,0.253523 -0.155204,0.524115 -0.254058,0.805812 -0.525,-1.820109 -0.791126,-3.584147 -0.791126,-4.922125 0,-0.378122 0.0329,-1.113914 0.14147,-1.695674 0.05292,-0.414942 0.20524,-0.630416 0.36344,-0.734438 0.312998,0.07485 0.663362,0.548394 1.029126,1.340381 0.31409,0.684733 0.294238,1.477742 0.294238,1.968574 0,0 0.336854,-1.215326 0.258888,-1.933633 -0.04746,-0.431211 -0.463344,-1.540581 -1.347472,-1.527599 h -0.07238 l -0.393946,-0.0041 z m 0.300692,11.019675 c 0.914914,1.814723 2.17672,3.538157 3.83194,4.920606 0.368998,0.307688 0.7616,0.600419 1.165766,0.875596 -3.00594,0.551474 -6.16294,1.327234 -9.0965,2.539645 0.530474,-0.929582 1.104054,-1.942333 1.69162,-3.034481 1.137836,-2.122425 1.82728,-3.759542 2.40716,-5.301228 z"
       id="path7-9" /></g></svg>
