<?xml version="1.0" encoding="UTF-8" standalone="no"?>
<svg
   id="_图层_1"
   data-name="图层_1"
   version="1.1"
   viewBox="0 0 128 128"
   width="48"
   height="48"
   sodipodi:docname="com.github.torikulhabib.mindi.flv.svg"
   xml:space="preserve"
   inkscape:version="1.4 (e7c3feb100, 2024-10-09)"
   xmlns:inkscape="http://www.inkscape.org/namespaces/inkscape"
   xmlns:sodipodi="http://sodipodi.sourceforge.net/DTD/sodipodi-0.dtd"
   xmlns="http://www.w3.org/2000/svg"
   xmlns:svg="http://www.w3.org/2000/svg"><sodipodi:namedview
     id="namedview3"
     pagecolor="#505050"
     bordercolor="#eeeeee"
     borderopacity="1"
     inkscape:showpageshadow="0"
     inkscape:pageopacity="0"
     inkscape:pagecheckerboard="0"
     inkscape:deskcolor="#505050"
     inkscape:zoom="10.6875"
     inkscape:cx="32"
     inkscape:cy="26.19883"
     inkscape:window-width="1920"
     inkscape:window-height="939"
     inkscape:window-x="0"
     inkscape:window-y="34"
     inkscape:window-maximized="1"
     inkscape:current-layer="_图层_1" /><!-- Generator: Adobe Illustrator 29.0.1, SVG Export Plug-In . SVG Version: 2.1.0 Build 192)  --><defs
     id="defs1"><style
       id="style1">
      .st0 {
        fill: #0071e9;
      }

      .st1 {
        fill: #fff;
      }

      .st2 {
        fill: #5aaaff;
        isolation: isolate;
        opacity: .5;
      }
    </style></defs><path
     class="st0"
     d="M18.2,0c-5.6,0-10.2,4.6-10.2,10.2v107.6c0,5.6,4.6,10.2,10.2,10.2h91.6c5.6,0,10.2-4.6,10.2-10.2V40.6L82.2,0H18.2Z"
     id="path1"
     style="fill:#e74c3c;fill-opacity:1"
     inkscape:label="path1" /><path
     class="st2"
     d="m 82.761404,2.619883 v 29.2 c 0,3.2 2.145542,11.6 11.89801,11.6 h 24.966316 z"
     id="path2"
     style="fill:#b93d30;fill-opacity:1;stroke-width:0.987546" /><path
     class="st2"
     d="M 82.116964,0.02339171 V 29.223392 c 0,3.2 2.2,11.6 12.2,11.6 h 25.599996 z"
     id="path2-3"
     style="opacity:1;isolation:isolate;fill:#f5877c;fill-opacity:1" /><g
     id="g2"
     transform="matrix(3.497076,0,0,3.2003994,-19.929825,-12.807445)"><path
       style="opacity:0.2"
       d="m 15,27 v 8 h 1.007812 v -3.095703 h 2.830079 v -0.884766 h -2.830079 v -3.134765 h 3.042969 V 27 Z m 6,0 v 8 h 4 V 34.103516 H 22.007812 V 27 Z m 4.529297,0 2.857422,8 h 1.007812 l 2.857422,-8 H 31.1875 l -1.792969,5.109375 c -0.119514,0.336134 -0.220568,0.65009 -0.302734,0.941406 -0.08217,0.291317 -0.148885,0.566687 -0.201172,0.828125 -0.05976,-0.261438 -0.130725,-0.532559 -0.212891,-0.816406 -0.0747,-0.291317 -0.171501,-0.602976 -0.291015,-0.931641 L 26.582031,27 Z"
       id="path6" /><path
       style="fill:#ffffff"
       d="M 16.008404,34 H 15 v -8 h 4.051443 v 0.885155 h -3.043039 v 3.134269 h 2.830153 v 0.885152 h -2.830153 z"
       id="path7" /><path
       style="fill:#ffffff"
       d="m 21,34 v -8 h 1.008404 v 7.103642 H 25 V 34 Z"
       id="path8" /><path
       style="fill:#ffffff"
       d="m 32.25169,26 -2.857143,8 H 28.386143 L 25.529,26 h 1.053222 l 1.803921,5.131653 q 0.179272,0.492997 0.291317,0.929972 0.123249,0.42577 0.212885,0.817927 0.07843,-0.392157 0.201681,-0.829132 0.123249,-0.436975 0.302521,-0.941176 L 31.187264,26 Z"
       id="path9" /></g></svg>
