<?xml version="1.0" standalone="no"?><!DOCTYPE svg PUBLIC "-//W3C//DTD SVG 1.1//EN" "http://www.w3.org/Graphics/SVG/1.1/DTD/svg11.dtd"><svg t="1734904187908" class="icon" viewBox="0 0 1024 1024" version="1.1" xmlns="http://www.w3.org/2000/svg" p-id="51631" xmlns:xlink="http://www.w3.org/1999/xlink" width="48" height="48"><path d="M145.28 0C100.48 0 64 36.48 64 81.28v860.8c0 44.8 36.48 81.92 81.28 81.92h732.8c44.8 0 81.92-37.12 81.92-81.92V324.48L657.28 0h-512z" fill="#FF3A2B" p-id="51632"></path><path d="M675.2 474.24c0-12.16-2.56-21.12-8.32-26.88-7.04-7.04-19.2-11.52-37.12-14.72H293.76A48.704 48.704 0 0 1 256 417.28a33.664 33.664 0 0 1-7.68-8.96c-1.92-2.56-3.2-5.12-4.48-7.68-1.28-3.2-2.56-6.4-3.2-9.6-0.64-3.84-0.64-7.68-0.64-11.52 0-3.2 0-7.04 0.64-10.88 0.64-3.2 1.92-6.4 3.2-9.6 1.28-2.56 2.56-5.12 4.48-7.68 1.92-3.2 4.48-6.4 7.68-8.96 5.12-5.12 10.24-8.96 16.64-11.52 6.4-2.56 13.44-4.48 21.12-4.48h340.48c2.56 0 5.12 0.64 7.04 0.64 44.8 6.4 79.36 21.76 104.32 47.36 7.04 7.04 13.44 15.36 18.56 23.68 12.8 21.76 19.84 47.36 19.84 76.16 0 29.44-7.04 55.04-19.84 76.8-5.12 8.32-11.52 16.64-18.56 23.68-24.96 25.6-59.52 40.96-104.32 47.36H348.16v113.28c0 4.48-0.64 8.96-1.92 13.44a60.8 60.8 0 0 1-5.76 13.44c-4.48 8.32-17.92 17.92-26.24 22.4l-6.4 1.92c-2.56 0.64-4.48 1.28-7.04 1.28-1.92 0.64-4.48 0.64-7.04 0.64-1.92 0-4.48 0-7.04-0.64-1.92 0-4.48-0.64-7.04-1.28a35.84 35.84 0 0 1-12.8-5.12 51.904 51.904 0 0 1-26.88-46.08V569.6c0-3.84 0-7.68 0.64-11.52 0.64-3.2 1.92-6.4 3.2-9.6 1.28-2.56 2.56-5.12 4.48-7.68 1.92-3.2 4.48-6.4 7.68-8.96a48.704 48.704 0 0 1 37.76-15.36h336c17.92-3.2 30.08-7.68 37.12-14.72 5.76-5.76 8.32-14.72 8.32-27.52z" fill="#FFFFFF" p-id="51633"></path><path d="M657.28 0v233.6c0 25.6 17.92 92.8 97.92 92.8H960L657.28 0z" fill="#FF9F39" p-id="51634"></path></svg>
