<?xml version="1.0" encoding="UTF-8" standalone="no"?>
<svg
   id="_图层_1"
   data-name="图层_1"
   version="1.1"
   viewBox="0 0 128 128"
   width="48"
   height="48"
   sodipodi:docname="text-x-ms-regedit.svg"
   xml:space="preserve"
   inkscape:version="1.4 (e7c3feb100, 2024-10-09)"
   xmlns:inkscape="http://www.inkscape.org/namespaces/inkscape"
   xmlns:sodipodi="http://sodipodi.sourceforge.net/DTD/sodipodi-0.dtd"
   xmlns="http://www.w3.org/2000/svg"
   xmlns:svg="http://www.w3.org/2000/svg"><sodipodi:namedview
     id="namedview3"
     pagecolor="#505050"
     bordercolor="#eeeeee"
     borderopacity="1"
     inkscape:showpageshadow="0"
     inkscape:pageopacity="0"
     inkscape:pagecheckerboard="0"
     inkscape:deskcolor="#505050"
     inkscape:zoom="10.6875"
     inkscape:cx="32"
     inkscape:cy="26.19883"
     inkscape:window-width="1920"
     inkscape:window-height="939"
     inkscape:window-x="0"
     inkscape:window-y="34"
     inkscape:window-maximized="1"
     inkscape:current-layer="_图层_1"
     showguides="true"><sodipodi:guide
       position="7.6134526,83.439664"
       orientation="1,0"
       id="guide7"
       inkscape:locked="false" /><sodipodi:guide
       position="120.24109,71.856006"
       orientation="1,0"
       id="guide8"
       inkscape:locked="false" /></sodipodi:namedview><!-- Generator: Adobe Illustrator 29.0.1, SVG Export Plug-In . SVG Version: 2.1.0 Build 192)  --><defs
     id="defs1"><style
       id="style1">
      .st0 {
        fill: #0071e9;
      }

      .st1 {
        fill: #fff;
      }

      .st2 {
        fill: #5aaaff;
        isolation: isolate;
        opacity: .5;
      }
    </style></defs><path
     class="st0"
     d="M18.2,0c-5.6,0-10.2,4.6-10.2,10.2v107.6c0,5.6,4.6,10.2,10.2,10.2h91.6c5.6,0,10.2-4.6,10.2-10.2V40.6L82.2,0H18.2Z"
     id="path1"
     style="fill:#52a4ff;fill-opacity:1" /><path
     class="st2"
     d="m 82.761404,2.619883 v 29.2 c 0,3.2 2.145542,11.6 11.89801,11.6 h 24.966316 z"
     id="path2"
     style="fill:#4283cc;fill-opacity:1;stroke-width:0.987546" /><path
     class="st2"
     d="M 82.116964,0.02339171 V 29.223392 c 0,3.2 2.2,11.6 12.2,11.6 h 25.599996 z"
     id="path2-3"
     style="opacity:1;isolation:isolate;fill:#85bfff;fill-opacity:1" /><g
     id="g8"
     transform="matrix(2.5571505,0,0,2.2856263,-17.922382,-9.2770083)"><path
       style="opacity:0.2"
       d="m 37.511718,27.015624 c -0.272378,0.03412 -0.543446,0.12322 -0.796874,0.269532 l -3.65625,2.113282 c -1.013714,0.585268 -1.358706,1.873004 -0.773438,2.886718 l 2.113282,3.65625 c 0.585268,1.013714 1.873004,1.358706 2.886718,0.773438 l 3.65625,-2.113282 c 1.013714,-0.585268 1.358706,-1.873004 0.773438,-2.886718 l -2.113282,-3.65625 c -0.43895,-0.760286 -1.272704,-1.145352 -2.089844,-1.04297 z M 20,31 c -1.108,0 -2,0.892 -2,2 v 4 c 0,1.108 0.892,2 2,2 -1.108,0 -2,0.892 -2,2 v 4 c 0,1.108 0.892,2 2,2 -1.108,0 -2,0.892 -2,2 v 4 c 0,1.108 0.892,2 2,2 h 4 c 1.108,0 2,-0.892 2,-2 0,1.108 0.892,2 2,2 h 4 c 1.108,0 2,-0.892 2,-2 0,1.108 0.892,2 2,2 h 4 c 1.108,0 2,-0.892 2,-2 v -4 c 0,-1.108 -0.892,-2 -2,-2 h -4 c -1.108,0 -2,0.892 -2,2 0,-1.108 -0.892,-2 -2,-2 1.108,0 2,-0.892 2,-2 v -4 c 0,-1.108 -0.892,-2 -2,-2 h -4 c -1.108,0 -2,0.892 -2,2 0,-1.108 -0.892,-2 -2,-2 1.108,0 2,-0.892 2,-2 v -4 c 0,-1.108 -0.892,-2 -2,-2 z m 22,6 c -1.108,0 -2,0.892 -2,2 v 4 c 0,1.108 0.892,2 2,2 h 4 c 1.108,0 2,-0.892 2,-2 v -4 c 0,-1.108 -0.892,-2 -2,-2 z m -16,8 c 0,1.108 0.892,2 2,2 -1.108,0 -2,0.892 -2,2 0,-1.108 -0.892,-2 -2,-2 1.108,0 2,-0.892 2,-2 z"
       id="path3" /><rect
       style="fill:#ffffff"
       width="8"
       height="8"
       x="18"
       y="30"
       rx="2"
       ry="2"
       id="rect6" /><rect
       style="fill:#bbdcff"
       width="8"
       height="8"
       x="18"
       y="38"
       rx="2"
       ry="2"
       id="rect7" /><rect
       style="fill:#ffffff"
       width="8"
       height="8"
       x="18"
       y="46"
       rx="2"
       ry="2"
       id="rect8" /><rect
       style="fill:#ffffff"
       width="8"
       height="8"
       x="26"
       y="38"
       rx="2"
       ry="2"
       id="rect9" /><rect
       style="fill:#bbdcff"
       width="8"
       height="8"
       x="26"
       y="46"
       rx="2"
       ry="2"
       id="rect10" /><rect
       style="fill:#bbdcff"
       width="8.4499998"
       height="8.4499998"
       x="12.32"
       y="41.119999"
       rx="2.1129999"
       ry="2.1129999"
       transform="rotate(-30)"
       id="rect11" /><rect
       style="fill:#ffffff"
       width="8"
       height="8"
       x="40"
       y="36"
       rx="2"
       ry="2"
       id="rect12" /><rect
       style="fill:#ffffff"
       width="8"
       height="8"
       x="34"
       y="46"
       rx="2"
       ry="2"
       id="rect13" /></g></svg>
