<?xml version="1.0" encoding="UTF-8" standalone="no"?>
<svg
   t="1734904167397"
   class="icon"
   viewBox="0 0 1024 1024"
   version="1.1"
   p-id="51298"
   width="48"
   height="48"
   id="svg3"
   sodipodi:docname="x-office-document.svg"
   xml:space="preserve"
   inkscape:version="1.4 (e7c3feb100, 2024-10-09)"
   xmlns:inkscape="http://www.inkscape.org/namespaces/inkscape"
   xmlns:sodipodi="http://sodipodi.sourceforge.net/DTD/sodipodi-0.dtd"
   xmlns="http://www.w3.org/2000/svg"
   xmlns:svg="http://www.w3.org/2000/svg"><defs
     id="defs3" /><sodipodi:namedview
     id="namedview3"
     pagecolor="#505050"
     bordercolor="#eeeeee"
     borderopacity="1"
     inkscape:showpageshadow="0"
     inkscape:pageopacity="0"
     inkscape:pagecheckerboard="0"
     inkscape:deskcolor="#505050"
     inkscape:zoom="10.6875"
     inkscape:cx="32"
     inkscape:cy="21.239766"
     inkscape:window-width="1920"
     inkscape:window-height="939"
     inkscape:window-x="0"
     inkscape:window-y="34"
     inkscape:window-maximized="1"
     inkscape:current-layer="svg3"
     showguides="true"><sodipodi:guide
       position="285.24726,838.84188"
       orientation="1,0"
       id="guide5"
       inkscape:locked="false" /><sodipodi:guide
       position="737.95806,893.71738"
       orientation="1,0"
       id="guide6"
       inkscape:locked="false" /></sodipodi:namedview><path
     d="M145.28 0C100.48 0 64 36.48 64 81.28v860.8c0 44.8 36.48 81.92 81.28 81.92h732.8c44.8 0 81.92-37.12 81.92-81.92V324.48L657.28 0h-512z"
     fill="#0071E9"
     p-id="51299"
     id="path1"
     style="fill:#1b83d4;fill-opacity:1" /><path
     d="M657.28 0v233.6c0 25.6 17.92 92.8 97.92 92.8H960L657.28 0z"
     fill="#5AAAFF"
     p-id="51300"
     id="path2"
     style="fill:#3b9ce6;fill-opacity:1" /><g
     id="g6"
     transform="matrix(17.922382,0,0,18.311275,-57.024979,-74.508259)"><g
       style="opacity:0.2"
       transform="translate(0,6)"
       id="g11"><rect
         width="14"
         height="10"
         x="34"
         y="24"
         rx="2"
         ry="2"
         id="rect5" /><rect
         width="14"
         height="2"
         x="16"
         y="24"
         rx="1"
         ry="1"
         id="rect6" /><rect
         width="14"
         height="2"
         x="16"
         y="28"
         rx="1"
         ry="1"
         id="rect7" /><rect
         width="14"
         height="2"
         x="16"
         y="32"
         rx="1"
         ry="1"
         id="rect8" /><rect
         width="14"
         height="2"
         x="16"
         y="46"
         rx="1"
         ry="1"
         id="rect9" /><rect
         width="32"
         height="2"
         x="16"
         y="42"
         rx="1"
         ry="1"
         id="rect10" /><rect
         width="32"
         height="2"
         x="16"
         y="38"
         rx="1"
         ry="1"
         id="rect11" /></g><rect
       style="fill:#ffffff"
       width="14"
       height="2"
       x="16"
       y="29"
       rx="1"
       ry="1"
       id="rect12" /><rect
       style="fill:#ffffff"
       width="14"
       height="2"
       x="16"
       y="33"
       rx="1"
       ry="1"
       id="rect13" /><rect
       style="fill:#ffffff"
       width="14"
       height="2"
       x="16"
       y="37"
       rx="1"
       ry="1"
       id="rect14" /><rect
       style="fill:#ffffff"
       width="14"
       height="2"
       x="16"
       y="51"
       rx="1"
       ry="1"
       id="rect15" /><rect
       style="fill:#ffffff"
       width="32"
       height="2"
       x="16"
       y="47"
       rx="1"
       ry="1"
       id="rect16" /><rect
       style="fill:#ffffff"
       width="32"
       height="2"
       x="16"
       y="43"
       rx="1"
       ry="1"
       id="rect17" /><rect
       style="fill:#7ad2f9"
       width="14"
       height="10"
       x="34"
       y="29"
       rx="2"
       ry="2"
       id="rect18" /><circle
       style="fill:#1b83d4"
       cx="45"
       cy="32"
       r="1"
       id="circle18" /><path
       style="fill:#1b83d4"
       d="m 36,37 3,-5 4,5 z"
       id="path18" /></g></svg>
