<?xml version="1.0" standalone="no"?><!DOCTYPE svg PUBLIC "-//W3C//DTD SVG 1.1//EN" "http://www.w3.org/Graphics/SVG/1.1/DTD/svg11.dtd"><svg t="1722893124440" class="icon" viewBox="0 0 1026 1024" version="1.1" xmlns="http://www.w3.org/2000/svg" p-id="13455" xmlns:xlink="http://www.w3.org/1999/xlink" width="16.390625" height="16"><path d="M1024.00314 856.006595c0 21.948887-4.643034 43.897774-13.084914 64.158285-8.44188 20.260511-20.682605 38.832646-36.300082 54.450124-15.617477 15.617477-33.767519 27.858203-54.450124 36.300083-20.260511 8.44188-42.209398 13.084913-64.158285 13.084913h-688.013191c-21.948887 0-43.897774-4.643034-64.158285-13.084913-20.260511-8.44188-38.832646-20.682605-54.450124-36.300083-15.617477-15.617477-27.858203-34.189613-36.300082-54.450124-8.44188-20.260511-13.084913-42.209398-12.662819-64.158285L0.00314 167.571311c0-21.948887 4.643034-43.897774 13.084913-64.158285 8.44188-20.260511 20.682605-38.832646 36.300082-54.450124 15.617477-15.617477 34.189613-27.858203 54.450124-36.300083 20.260511-8.44188 42.209398-12.662819 64.158285-12.662819h688.013191c21.948887 0 43.897774 4.22094 64.158285 12.662819 20.682605 8.44188 38.832646 20.682605 54.450124 36.300083 15.617477 15.617477 27.858203 34.189613 36.300082 54.450124 8.44188 20.260511 13.084913 42.209398 13.084914 64.158285zM647.073214 603.1723c17.305853 6.33141 30.812861 24.481451 18.572135 41.787304q-13.507007 19.838417-37.566364 34.189613-33.345425 20.260511-66.69085 32.92333-106.789777 40.521022-216.956306 41.787305l-49.80709 0.844188c-35.0338 0-67.535037-4.643034-101.72465-7.175598q-2.532564-0.422094-1.688376 2.11047l46.852432 121.563067q1.266282 2.954658 3.798846 2.954657 159.973619 13.929101 319.10305-14.773289c23.215169-4.22094 46.008244-10.974444 69.223413-16.883759 33.345425-8.44188 65.846661-21.526793 97.925804-33.767519q75.554823-29.124485 135.492168-79.353668c43.053586-35.877988 77.665293-89.06183 75.554823-145.622424-2.11047-65.424567-44.741962-114.809563-105.101401-138.446826q-47.274526-18.572135-103.83512-23.215169c-83.574608-6.33141-167.993405 0.844188-252.412201 6.33141q-29.546579 1.688376-62.047815-3.798846c-28.280297-4.643034-67.957131-23.215169-52.761748-58.671064 10.130256-24.481451 41.36521-42.631492 65.002473-51.495466q37.566364-13.929101 86.529266-24.48145c100.036274-21.104699 203.871393-26.169827 306.018137-20.260512h0.844188q0.422094-0.422094 0.844188-0.422094 0-0.422094 0.422094-0.844188 0-0.422094-0.422094-1.266281l-45.58615-119.874691q-0.844188-1.688376-2.954658-2.11047c-39.676834 0-78.931575 0-118.186315 3.376752q-23.215169 2.11047-47.274526 4.220939c-41.36521 2.954658-83.152514 10.130256-124.09563 16.461666q-48.540808 7.597692-111.432811 24.481451-44.319868 11.396538-87.373455 29.124484C204.718721 255.788953 126.20924 309.394889 94.974285 392.969497c-13.084913 35.0338-13.084913 80.197857 0.422094 115.231657q19.838417 52.339654 78.509481 75.132729c56.982688 21.948887 127.894477 24.059357 189.520198 21.104699q70.489695-3.376752 141.823578-10.974444 37.14427-3.798846 78.931574-2.532563 33.345425 1.266282 62.892004 12.240725z" fill="#444444" p-id="13456"></path></svg>
