<?xml version="1.0" standalone="no"?><!DOCTYPE svg PUBLIC "-//W3C//DTD SVG 1.1//EN" "http://www.w3.org/Graphics/SVG/1.1/DTD/svg11.dtd"><svg t="1722655845232" class="icon" viewBox="0 0 1024 1024" version="1.1" xmlns="http://www.w3.org/2000/svg" p-id="81550" xmlns:xlink="http://www.w3.org/1999/xlink" width="16" height="16"><path style="fill:#444444" d="M197.863 153.664c23.419-6.394 48.506-7.725 72.169-1.837 10.078 2.503 20.063 5.559 29.569 9.788 7.547 3.394 14.466 7.978 21.591 12.15 4.969 2.644 8.925 6.75 13.397 10.106 4.509 3.234 8.494 7.116 12.497 10.941 1.941 1.828 3.178 4.35 5.391 5.887 1.997 1.162 4.238 0.094 6.225-0.525 6.338-2.372 12.3-5.672 18.787-7.659 9.441-3.3 19.35-4.838 28.978-7.444 21.009-5.381 42.619-8.1 64.237-9.281 13.144-0.45 26.278-0.628 39.422-1.003 15.291 0.488 30.6 0.488 45.881 1.359 19.2 1.463 38.372 3.947 57.038 8.747 10.116 2.738 20.531 4.35 30.431 7.856 7.397 2.269 14.044 6.563 21.572 8.438 3.281 0.525 4.959-2.85 6.797-4.913 7.059-7.706 15.647-13.734 23.681-20.344 8.278-4.922 16.35-10.284 25.125-14.316 16.472-7.003 33.984-11.981 51.891-13.256 14.972-1.059 30.066 0.628 44.681 3.938 10.819 2.55 20.897 7.444 30.947 12.066 14.006 8.775 28.294 17.531 39.834 29.531 14.606 14.981 25.931 33.009 33.881 52.331 13.228 30.366 13.584 65.053 5.381 96.797-4.238 15.216-11.409 29.484-20.138 42.609-8.259 12.928-18.534 24.544-30.563 34.097-5.119 4.884-11.175 8.531-16.913 12.591 1.969 7.191 4.884 14.1 6.694 21.338 3.216 11.831 6.863 23.55 9.356 35.559 3.712 17.325 6.15 34.903 8.203 52.509 1.547 12.769 2.175 25.641 3.872 38.409 1.387 10.913 1.5 21.947 0.778 32.916-0.234 12.834-0.384 25.669-0.984 38.494-2.438 45.263-21.703 88.725-50.728 123.197-27.469 32.747-65.578 54.966-105.525 69.047-21.684 7.753-44.259 12.591-66.778 17.184-19.088 3.797-38.325 6.891-57.684 8.944-11.794 1.303-23.662 1.781-35.494 2.588-14.137 1.088-28.331 0.844-42.497 1.378-29.044-0.159-58.134 0.328-87.131-1.828-43.697-2.109-86.916-10.134-129.225-20.934-34.65-9.347-68.072-24.225-96.863-45.797-38.409-29.278-66.009-72.159-77.803-118.913-3.778-15.422-5.475-31.303-5.569-47.166-1.416-39.787 1.247-79.659 6.834-119.063 1.725-11.906 3.75-23.766 6.431-35.494 2.409-10.444 5.55-20.691 8.363-31.022 1.809-7.247 4.725-14.156 6.694-21.347-3.422-2.344-6.778-4.772-10.266-7.013-9.366-7.763-18.881-15.506-26.55-25.031-13.416-16.838-24.609-35.794-30.619-56.569-5.466-21.281-7.397-43.688-3.994-65.466 2.212-14.784 7.341-28.969 13.866-42.356 7.331-15.225 17.034-29.325 28.734-41.512 11.634-12.225 26.109-21.122 40.303-30.009 8.428-3.947 16.922-7.856 25.791-10.697M515.009 327.205c-2.559 1.219-5.475 0.384-8.072 1.406-2.738 0.853-5.766-0.253-8.438 0.938-2.484 0.816-5.213-0.122-7.687 0.694-3.797 1.453-8.072-0.338-11.822 1.406-6.534 0.028-12.759 2.091-19.284 2.119-3.638 1.378-7.65 0.356-11.259 1.941-2.775 8.756-4.941 17.691-7.134 26.616-2.1 11.766-7.059 22.913-8.231 34.875-1.481 6.188-3.469 12.337-3.741 18.741-2.119 9.975-4.875 19.809-6.778 29.822-1.303 4.856-1.284 9.947-3.272 14.616-0.262 7.791-3.487 15.159-4.2 22.913-1.772 4.247-0.994 8.934-2.813 13.134-1.725 6.994-2.531 14.166-4.134 21.197-1.631 8.644-3.544 17.259-3.975 26.016 4.003 0.103 8.016-0.178 12.009 0.122 4.678 1.669 9.806 0.262 14.606 1.434 3.338 0.825 6.938-0.356 10.163 1.144 4.547 0.403 9.131-0.169 13.678 0.244 1.491 0.516 3.019 0.881 4.613 0.919 1.031-4.359 2.756-8.55 3.272-13.022 1.922-8.109 4.191-16.125 6.966-23.991 2.494-7.303 3.422-15.028 5.841-22.331 0.188-1.641 0-3.338 0.694-4.875 3.347-9.731 6.647-19.528 8.859-29.578 1.838-7.369 4.734-14.494 6.159-21.966 3.825-12.15 6.056-24.853 11.278-36.534 2.653-6.225 5.184-12.525 7.247-18.975 2.278-4.162 2.419-9.056 4.641-13.228 1.050-1.688 0.272-3.75 0.9-5.541 0.9-1.95 2.063-3.797 2.653-5.878 2.859-8.634 6.788-16.866 9.422-25.584-3.966 1.247-8.063 1.059-12.159 1.209M711.322 444.861c-7.153 1.153-14.391 1.828-21.403 3.928-5.25 0.328-10.228 2.419-15.534 2.175-2.091 0.862-4.341 0.881-6.553 0.816-2.456 9.938-5.756 19.631-8.072 29.606-1.481 3.994-2.391 8.156-3.741 12.197-3.834 8.297-5.194 17.475-8.906 25.809-1.481 4.425-2.869 8.888-4.631 13.191-0.647 4.406-3.178 8.119-4.584 12.262-2.644 5.944-3.628 12.581-7.209 18.113-2.85 3.909-4.181 8.709-7.116 12.572-3.122 4.388-5.775 9.131-9.131 13.341-6.759 6.375-12.666 13.762-20.484 18.909-4.397 4.069-11.513 6.244-16.997 3.084-4.8-1.922-6.788-7.303-7.753-11.963 0.3-6.872-0.863-13.95 0.853-20.662 0.131-5.109 1.819-9.994 2.822-14.963 0.863-4.716 1.903-9.394 2.784-14.1 0.272-6.028 3.534-11.391 4.191-17.334 1.275-3.666 2.213-7.434 2.822-11.259 4.922-17.578 10.116-35.1 14.737-52.772 3.244-8.344 4.706-17.25 8.334-25.434-1.5 0.009-3-0.066-4.481 0.131-3.591 1.537-7.537 0.431-11.278 0.947-2.962 0.731-5.897 1.584-8.775 2.606-3.459 0.366-7.059-0.506-10.359 0.881-4.781-0.356-9.075 2.362-13.828 2.034-4.997 0.487-9.853 2.269-14.934 1.847-0.6 1.059-0.975 2.222-1.369 3.375-5.016 5.475-6.15 13.134-9.628 19.509-2.072 6.731-4.828 13.209-7.491 19.725-1.884 8.044-4.031 16.059-7.219 23.7-5.747 21.731-12.197 43.528-14.719 65.859 0.066 7.8-0.047 15.6 0.047 23.409 1.472 6.534 3.328 13.013 4.8 19.575 2.897 7.378 7.031 14.522 13.35 19.509 4.266 2.888 8.906 5.353 13.866 6.816 3.722-0.394 7.153 1.688 10.866 0.928 4.369-1.903 9.291 0.112 13.734-1.406 1.809-0.591 3.816-0.131 5.597-0.938 4.331-1.65 8.953-2.597 13.088-4.734 4.744-3.169 10.134-5.222 14.672-8.747 6.638-4.875 13.931-9.028 19.444-15.253 2.681-3 6.225-5.006 9.347-7.5 5.484-5.241 10.613-10.847 16.2-15.975 0.131 5.025-0.197 10.069 0.131 15.084 1.078 2.372 0.675 4.978 0.966 7.5 0.928 3.234 1.134 6.684 2.344 9.853 2.091 4.097 3.853 8.428 6.703 12.075 2.737 1.95 5.428 3.975 8.072 6.056 2.766 0.938 5.381 2.278 8.194 3.075 5.259 0.188 10.519 0.028 15.787 0.075 8.597-1.003 16.744-4.444 24.356-8.466 2.278-1.566 4.697-2.878 7.209-4.031 4.2-1.847 7.678-4.922 11.756-6.994 5.559-4.125 11.325-7.997 16.669-12.394 4.978-3.75 10.041-7.406 14.344-11.944 4.566-2.916 7.856-7.322 11.887-10.875 0.038-9.975 0.066-19.941-0.019-29.916-6.347 3.675-12.178 8.541-17.972 13.134-3.197 3.525-7.725 5.344-11.297 8.419-7.537 4.8-14.963 10.078-23.381 13.238-2.372-0.094-4.622 1.65-6.938 0.769-2.831-0.675-5.728-1.462-8.1-3.216-2.55-3.666-3.759-7.931-4.369-12.291 1.772-3.656 0-7.884 1.613-11.587 1.2-12.769 6.337-24.6 10.125-36.731 1.791-6.891 3.169-13.912 5.644-20.616 0.769-5.906 3.084-11.437 4.266-17.259 4.828-14.203 7.847-28.913 12.019-43.303 1.097-4.444 3.047-8.662 3.675-13.219 0.047-1.631 0.206-3.263 0.947-4.744-6.778 0.9-13.359 2.841-19.988 4.491M403.053 442.274c-8.297 0.384-16.641-0.15-24.938 0.244-3.084 0.834-6.141 1.866-9.366 1.884-5.372 1.584-10.669 3.422-15.591 6.131-3.478 0.094-6 2.588-8.953 4.088-3.759 2.044-6.666 5.231-10.191 7.612-5.109 3.216-8.297 8.691-13.434 11.869-1.819 3.103-4.688 5.325-7.106 7.931-1.734 2.091-3.047 4.491-4.313 6.881-3.684 3.984-6.684 8.587-9.047 13.472-3.956 5.541-7.781 11.287-10.613 17.541-1.697 3.722-1.997 8.091-4.603 11.381-0.975 1.163-0.544 2.888-1.331 4.172-3.384 6.422-4.725 13.641-6.712 20.559-0.009 3.122-1.453 6.009-1.106 9.159 0.506 2.766-2.363 4.725-1.894 7.491 0.028 7.509 0.028 15.028 0 22.547 0.412 7.894 4.003 15.197 4.997 23.006 2.681 4.8 3.909 10.256 6.609 15.047 4.744 5.569 8.475 12.197 14.663 16.313 4.584 1.875 9.197 3.853 14.128 4.631 8.916 0.028 18.066 0.75 26.541-2.419 3.844-1.425 7.969-2.222 11.456-4.472 2.775-1.941 5.953-3.272 8.522-5.512 4.528-4.313 10.922-6.938 13.613-12.938-1.247-3.356-2.353-6.797-2.981-10.313 0.047-6.581-0.394-13.116-0.019-19.678-6.722 3.487-14.306 4.884-21.6 6.638-6.366-1.088-10.331-7.078-12.816-12.591-0.272-3.262-1.809-6.403-1.116-9.712 1.819-4.013-0.131-8.588 1.631-12.609 1.547-17.391 6.844-34.153 11.953-50.813 0.722-4.547 3.628-8.278 5.353-12.459 1.35-4.5 4.509-8.109 6.281-12.45 2.147-2.888 4.425-5.728 5.953-9.038 2.503-2.55 4.238-5.719 6.919-8.1 7.575-7.969 17.194-13.931 27.6-17.456 3.112 0.178 6.019-0.862 9.075-1.172 1.191-5.897 1.369-12.112 3.863-17.681-3.806 0.206-7.791-0.638-11.428 0.816M400.766 550.236c-2.016 2.447-4.856 4.256-6.272 7.153-5.55 9.197-10.275 19.050-12.637 29.587-0.169 1.894-0.309 3.797-0.975 5.616-0.412 3.6 0.131 7.247-0.244 10.856-0.769 2.006-1.284 4.275-0.488 6.375 1.369 3.487-0.178 7.416 1.341 10.903 1.313 6.806 3.816 13.472 8.372 18.816 2.663 4.603 7.65 6.909 11.953 9.712 3.178 0.563 6.178 1.716 9.075 3.103 3.45 0.281 7.069-0.562 10.359 0.853 3.122 0.206 6.403 0.506 9.375-0.694 3.712-0.562 7.659 0.666 11.194-0.938 5.672-1.828 12.075-1.997 17.175-5.381 4.191-1.594 8.7-2.672 12.319-5.428 2.569-1.969 5.663-3.047 8.447-4.65 3.572-3.178 7.95-5.269 11.616-8.325v-7.425c-5.531 2.822-9.722 7.894-15.806 9.656-4.95 1.481-9.844 3.797-15.113 3.638-2.25-0.084-4.275 1.181-6.544 1.022-0.019-0.497-0.047-1.481-0.056-1.978 13.050 1.022 25.416-5.522 35.269-13.481 1.284-0.816 2.541-1.903 2.428-3.572-3.572 1.744-6.516 4.528-10.163 6.141-3.872 2.072-8.306 2.719-12.253 4.65-4.988 1.744-10.247 2.334-15.366 3.459-2.747 0.056-5.456-0.591-8.184 0.019-3.384-1.631-8.156-3.806-7.678-8.316 1.913-4.059 4.013-8.55 8.091-10.837 5.325-3.825 8.381-9.741 12.759-14.456 5.906-8.456 5.859-19.163 5.288-29.034-1.256-4.134-1.116-8.784-3.75-12.394-2.55 0.038-5.166 0.225-7.556-0.806-3.928-0.394-7.894 0.141-11.822-0.244-6.778-1.444-13.763-0.637-20.634-0.787-6.412 2.578-8.803 9.731-14.4 13.416 2.128-4.322 5.362-8.034 8.859-11.316 1.153-1.238 2.775-2.288 2.784-4.153-3.75 1.397-6.047 4.809-8.897 7.406-3.469 2.822-4.134 7.556-6.881 10.931-4.219 5.409-5.269 12.394-7.716 18.591-0.581 3.356-1.472 6.656-1.116 10.106-0.469-0.009-1.406-0.009-1.875-0.019-0.459-3.478 1.059-6.684 1.087-10.116 2.156-7.35 4.247-14.738 7.369-21.75 1.744-5.878 6.216-10.303 8.522-15.938-2.428-0.009-4.838-0.019-7.256 0.028z" p-id="81551"></path></svg>