<?xml version="1.0" encoding="UTF-8"?>
<svg id="_图层_1" data-name="图层_1" xmlns="http://www.w3.org/2000/svg" version="1.1" viewBox="0 0 1024 1024" width="16" height="16">
  <!-- Generator: Adobe Illustrator 29.0.1, SVG Export Plug-In . SVG Version: 2.1.0 Build 192)  -->
  <defs>
    <style>
      .st0 {
        fill: #555555;
      }

      .st1 {
        fill: #fff;
      }

      .st2 {
        fill: #e3e3e3;
      }

      .st3 {
        display: none;
      }

      .st4 {
        fill: #feffff;
      }

      .st5 {
        fill: #444444;
      }
    </style>
  </defs>
  <g>
    <path class="st0" d="M638.6,511.1h-84.2c-3.4,0-6.7.3-9.8,1s-6,1.7-8.4,3.1c-7.3,3.3-13.2,8.1-17.8,14.6-4.6,6.4-6.9,13.7-6.9,21.5v121.3h-62.5c-11.6,0-18.7,2.8-21.1,8.3s.5,12.3,8.7,20.1l130,124.1c3.8,3.7,8.5,6.6,13.8,8.7s10.7,3.1,16,3.1,10.7-1,16-3.1,9.9-5,13.8-8.7l130-124.1c8.2-7.8,11.1-14.6,8.7-20.1s-9.4-8.3-21.1-8.3h-62.5v-121.3c0-11.1-4.2-20.6-12.7-28.4-8.5-7.8-18.5-11.8-30.1-11.8h0Z"/>
    <path class="st5" d="M477.4,156.9c-16.5-2.8-30.5.8-42.1,10.7-11.6,9.9-17.4,22.7-17.4,38.5v326.5c-9.7-3.3-19.8-5.8-30.1-7.6-10.4-1.9-20.9-2.8-31.6-2.8-24.7,0-48.2,4.6-70.4,13.9-21.8,8.8-40.8,20.9-57,36.4-16.2,15.5-29.2,33.8-38.9,55.1-9.2,20.8-13.8,43-13.8,66.5s4.6,46,13.8,67.2c9.7,20.8,22.7,39,38.9,54.4,16.2,15.5,35.2,27.9,57,37.1,22.3,8.8,45.8,13.2,70.4,13.2s54.3-5.8,78.8-17.3c24.5-11.6,44.9-27.2,61.4-47.1l-82.8-78.3c-12.6-12-18.7-23-18.5-32.9s1.3-17,3.3-21.1c1.5-4.2,6-9.8,13.4-17,7.5-7.1,20-10.7,37.4-10.7h29.8v-90.1c0-16.6,5.4-31.4,16.3-44.4,10.9-13,24.5-21.3,41-25v-129.6c58.1,0,102.2,7.4,132.2,22.2,29.6,14.3,49.9,32.2,61,53.7,11.1,21.5,15.3,44.5,12.3,69-2.4,24.1-7,45.5-13.8,64.5-5.3,15.2-6.5,23.9-3.6,26s9.9-2.6,21.1-14.2c71.2-74,104.6-135.9,100.2-185.8-4.4-50.4-27.2-91.6-68.6-123.7-41.4-32.1-91.9-56.3-151.4-72.4-59.6-16.6-108.9-28.2-148.2-34.7h0Z"/>
  </g>
</svg>
