<svg height="16" viewBox="0 0 128 128" width="16" xmlns="http://www.w3.org/2000/svg" xmlns:xlink="http://www.w3.org/1999/xlink"><linearGradient id="a" gradientUnits="userSpaceOnUse" x1="0" x2="128" y1="128" y2="0"><stop offset="0" stop-color="#333"/><stop offset="1" stop-color="#5d5d5d"/></linearGradient><path d="m64.015381 7.2909101c-7.438115-.0054339-14.880465 2.8216219-20.549251 8.4904089l-27.686116 27.686117c-11.3375736 11.337572-11.3068141 29.730167.030762 41.067739l27.655354 27.655355c11.337575 11.33757 29.76093 11.36833 41.098502.0307l27.655348-27.686055c11.33758-11.337572 11.30681-29.730165-.03071-41.067739l-27.624638-27.655355c-5.668786-5.668786-13.111136-8.5157328-20.549251-8.5211709zm0 6.8292419c5.655633.0054 11.296795 2.191137 15.658037 6.552381l21.533642 21.533646c-4.612004 1.274716-10.714587.715077-14.396776-.984395-4.701992-2.17015-11.317241-6.670226-14.777676-9.082077-2.90348-2.023666-7.73814-2.318721-10.632027-2.317656-9.534434.0035-17.000959 6.53407-22.840708 13.158427l23.179094 41.154786c-2.091695-.84533-4.373542-1.322781-6.767717-1.322781-8.451886 0-15.553387 5.792707-17.534541 13.627722l-16.765481-16.765482c-8.722484-8.722485-8.722484-22.624352 0-31.346836l27.655354-27.655354c4.361242-4.361242 10.033166-6.55782 15.688799-6.552381zm41.652219 32.546568 1.66117 1.661167c8.72248 8.722485 8.75324 22.624351.0307 31.346836l-27.686101 27.655357c-3.367408 3.36741-7.497809 5.45061-11.812743 6.21399 3.207399-3.25729 5.198837-7.71051 5.198837-12.64332 0-1.269136-.12031-2.496046-.369148-3.691486l-.03071-.09229c-.401007-1.875829-1.096965-3.649393-2.030318-5.260359l-14.950503-38.699039c4.006406-7.291106 18.46441-8.155673 26.113264-4.863071 4.22289 1.817827 19.605562.558458 23.875552-1.627785z" fill="url(#a)"/></svg>
