<?xml version="1.0" encoding="UTF-8"?>
<svg id="_图层_1" data-name="图层_1" xmlns="http://www.w3.org/2000/svg" width="16" height="16" version="1.1" viewBox="0 0 64 64">
  <!-- Generator: Adobe Illustrator 29.0.1, SVG Export Plug-In . SVG Version: 2.1.0 Build 192)  -->
  <defs>
    <style>
      .st0 {
        fill: #444444;
      }

      .st1 {
        display: none;
      }

      .st1, .st2 {
        fill: #fa211e;
      }
    </style>
  </defs>
  <path class="st1" d="M64,32c0,17.7-14.3,32-32,32S0,49.7,0,32,14.3,0,32,0s32,14.3,32,32"/>
  <path class="st0" d="M12.9,43.6h-4.5l2.8-20.6c.2-1.4,1.4-2.4,2.7-2.4h4.5l-2.8,20.6c-.2,1.4-1.4,2.4-2.7,2.4M21.8,43.6h-4.5l3.8-28.5c.2-1.4,1.4-2.4,2.7-2.4h4.5l-3.8,28.5c-.2,1.4-1.4,2.4-2.7,2.4M30.8,43.6h-4.5l2.8-20.6c.2-1.4,1.4-2.4,2.7-2.4h4.5l-2.8,20.6c-.2,1.4-1.4,2.4-2.7,2.4M38.7,51.4h-4.5l3.8-28.5c.2-1.4,1.4-2.4,2.7-2.4h4.5l-3.8,28.5c-.2,1.4-1.4,2.4-2.7,2.4M48.6,43.5h-4.5l2.8-20.6c.2-1.4,1.4-2.4,2.7-2.4h4.5l-2.8,20.6c-.2,1.4-1.4,2.4-2.7,2.4"/>
</svg>
