<?xml version="1.0" standalone="no"?><!DOCTYPE svg PUBLIC "-//W3C//DTD SVG 1.1//EN" "http://www.w3.org/Graphics/SVG/1.1/DTD/svg11.dtd"><svg t="1723239401230" class="icon" viewBox="0 0 1024 1024" version="1.1" xmlns="http://www.w3.org/2000/svg" p-id="69799" xmlns:xlink="http://www.w3.org/1999/xlink" width="200" height="200"><path d="M512 588.3l-226.5-151 49.7-74.5L512 480.6l176.8-117.8 49.7 74.5z" fill="#444444" p-id="69800"></path><path d="M511.4 960c-10.5 0-20.8-2.6-30.3-7.7L140.7 745c-19-10.2-31.9-32-31.9-55.8V322.5c0-23.2 12.5-44.7 32.6-56.3l338-193.7c20.8-11.9 46.2-11.3 66.5 1.4l339 213.7c18.9 11.9 30.3 32.4 30.3 54.8V689c0 23.8-13 45.6-33.9 57L544.8 951c-10.9 6.1-22.3 9-33.4 9z m-313-284.7l313.7 191 313.5-191v-319L510.9 157.8 198.4 336.9v338.4z" fill="#444444" p-id="69801"></path><path d="M467.2 552.2h89.6V736h-89.6z" fill="#444444" p-id="69802"></path></svg>
