<?xml version="1.0" standalone="no"?><!DOCTYPE svg PUBLIC "-//W3C//DTD SVG 1.1//EN" "http://www.w3.org/Graphics/SVG/1.1/DTD/svg11.dtd"><svg t="1735614004689" class="icon" viewBox="0 0 1024 1024" version="1.1" xmlns="http://www.w3.org/2000/svg" p-id="23003" xmlns:xlink="http://www.w3.org/1999/xlink" width="16" height="16"><path d="M896 0C966.4 0 1024 57.6 1024 128v768c0 70.4-57.6 128-128 128h-768C57.6 1024 0 966.4 0 896v-768C0 57.6 57.6 0 128 0z m-64 64h-640c-70.4 0-128 57.6-128 128v640c0 70.4 57.6 128 128 128h640c70.4 0 128-57.6 128-128v-640c0-70.4-57.6-128-128-128zM601.6 563.2a84.48 84.48 0 1 1-84.48 84.48V563.2h84.48z m-110.08 0v84.343467A84.48 84.48 0 1 1 407.176533 563.2H491.52z m-52.1728-188.142933A84.48 84.48 0 0 1 491.52 453.12v84.48h-84.343467a84.48 84.48 0 1 1 32.170667-162.542933z m222.037333 18.3808a84.48 84.48 0 0 1-59.904 144.162133H517.12v-84.48a84.48 84.48 0 0 1 144.264533-59.682133zM314.88 66.56c0 108.8 83.2 192 192 192S698.88 175.36 698.88 66.56h64c0 140.8-115.2 256-256 256s-256-115.2-256-256z" fill="#323132" p-id="23004"></path></svg>
