<?xml version="1.0" encoding="UTF-8" standalone="no"?>
<svg
   id="_图层_1"
   version="1.1"
   viewBox="0 0 64 64"
   width="16"
   height="16"
   sodipodi:docname="xiaohongshu.svg"
   xml:space="preserve"
   inkscape:version="1.4 (e7c3feb100, 2024-10-09)"
   xmlns:inkscape="http://www.inkscape.org/namespaces/inkscape"
   xmlns:sodipodi="http://sodipodi.sourceforge.net/DTD/sodipodi-0.dtd"
   xmlns="http://www.w3.org/2000/svg"
   xmlns:svg="http://www.w3.org/2000/svg"><sodipodi:namedview
     id="namedview26"
     pagecolor="#505050"
     bordercolor="#eeeeee"
     borderopacity="1"
     inkscape:showpageshadow="0"
     inkscape:pageopacity="0"
     inkscape:pagecheckerboard="0"
     inkscape:deskcolor="#505050"
     inkscape:zoom="10.6875"
     inkscape:cx="32.046784"
     inkscape:cy="9.497076"
     inkscape:window-width="1421"
     inkscape:window-height="796"
     inkscape:window-x="335"
     inkscape:window-y="95"
     inkscape:window-maximized="0"
     inkscape:current-layer="_图层_1" /><!-- Generator: Adobe Illustrator 29.0.1, SVG Export Plug-In . SVG Version: 2.1.0 Build 192)  --><defs
     id="defs6"><style
       id="style1">
      .st0 {
        fill-opacity: .5;
      }

      .st0, .st1, .st2, .st3, .st4, .st5, .st6, .st7 {
        fill: #fff;
      }

      .st8 {
        fill: #133c9a;
      }

      .st2, .st9 {
        display: none;
      }

      .st3 {
        fill-opacity: .2;
      }

      .st4 {
        fill-opacity: .9;
      }

      .st10 {
        fill: #3370ff;
      }

      .st11 {
        fill: url(#_未命名的渐变_3);
      }

      .st12 {
        fill: url(#_未命名的渐变);
      }

      .st5 {
        fill-opacity: .3;
      }

      .st6 {
        fill-opacity: 0;
      }

      .st7 {
        fill-opacity: .7;
      }

      .st13 {
        fill: #00d6b9;
      }

      .st14 {
        fill: url(#_未命名的渐变_2);
      }
    </style><radialGradient
       id="_未命名的渐变"
       data-name="未命名的渐变"
       cx="123.9"
       cy="-40.2"
       fx="123.9"
       fy="-40.2"
       r="59.4"
       gradientTransform="translate(-26.8 25.5) scale(.6 -.7)"
       gradientUnits="userSpaceOnUse"><stop
         offset="0"
         stop-color="#db202e"
         id="stop1" /><stop
         offset="1"
         stop-color="#e01b24"
         id="stop2" /></radialGradient><radialGradient
       id="_未命名的渐变_2"
       data-name="未命名的渐变 2"
       cx="67.6"
       cy="26.8"
       fx="67.6"
       fy="26.8"
       r="105.2"
       gradientTransform="translate(-26.6 25.3) scale(.6 -.7)"
       gradientUnits="userSpaceOnUse"><stop
         offset="0"
         stop-color="#ffb648"
         id="stop3" /><stop
         offset="1"
         stop-color="#ff7800"
         stop-opacity="0"
         id="stop4" /></radialGradient><radialGradient
       id="_未命名的渐变_3"
       data-name="未命名的渐变 3"
       cx="61.7"
       cy="18.6"
       fx="61.7"
       fy="18.6"
       r="68"
       gradientTransform="translate(-26.8 25.8) scale(.6 -.7)"
       gradientUnits="userSpaceOnUse"><stop
         offset="0"
         stop-color="#c64600"
         id="stop5" /><stop
         offset="1"
         stop-color="#a51d2d"
         id="stop6" /></radialGradient></defs><g
     id="g26"
     transform="matrix(0.06956628,0,0,0.06926169,-3.5243665,-3.4152047)"><path
       d="m 726.51776,457.45152 c -6.70208,-0.0768 -13.39392,0 -20.00384,-0.0768 -2.37056,0 -3.0464,1.05984 -3.0464,3.23072 0.0768,5.10976 0.0768,10.13248 0.0768,15.232 v 0.0102 c 0.0717,4.87936 0,9.7536 0.0717,14.56128 0,3.90656 0.68096,4.66944 4.45952,4.66944 7.1424,0.0768 14.27456,0 21.41696,0.0768 2.67776,0 3.72736,-1.28 3.65056,-3.75808 -0.087,-9.1648 -0.087,-18.31936 -0.15872,-27.48416 a 6.7584,6.7584 0 0 0 -6.46656,-6.46144 z"
       fill="#ff2e4d"
       p-id="4309"
       id="path1"
       style="fill:#444444;fill-opacity:1" /><path
       d="M 781.32455,49.849076 H 241.33043 C 143.87464,49.849076 50.921009,133.23322 51.2,245.67895 l 1.345009,542.09856 c 0.232099,93.54625 85.979501,186.37342 195.510471,186.37342 l 510.40393,-10e-6 C 904.33551,974.15092 972.8,866.4505 972.8,767.51366 V 255.13542 C 972.8,154.96037 898.92567,49.849076 781.32455,49.849076 Z M 250.78784,505.73312 c -0.73728,10.59328 -1.41312,21.25312 -2.60608,31.8464 -2.08896,18.39104 -6.24128,36.26496 -14.6432,52.864 -2.16064,4.12672 -5.13536,7.79776 -8.18176,12.45696 -1.85344,-3.90656 -3.41504,-6.97856 -4.82816,-10.13248 -4.99458,-11.16059 -9.92522,-22.34968 -14.79168,-33.56672 -0.52736,-1.2032 -0.896,-2.92352 -0.36864,-3.97824 3.19488,-6.83008 3.41504,-14.12096 3.85536,-21.40672 0.60416,-9.15968 1.35168,-18.24256 2.01728,-27.39712 0.51712,-7.00416 0.80896,-13.9776 1.39776,-20.96128 0.67584,-8.10496 1.49504,-16.21504 2.16064,-24.24832 0.14848,-1.96608 1.04448,-2.56 2.82624,-2.56 11.0848,0 22.07744,0 33.16224,-0.0717 2.37056,0 3.0464,0.98304 2.89792,3.23072 -0.96768,14.63296 -1.86368,29.28128 -2.89792,43.92448 z m 71.29088,87.32672 c -0.73728,9.46176 -5.13536,17.49504 -12.5696,23.5008 -5.43232,4.352 -11.74528,6.15936 -18.6624,6.08256 -5.87264,0 -11.66848,-0.0768 -17.54112,0 -2.00192,0 -3.27168,-0.60416 -4.09088,-2.55488 -3.41504,-7.6544 -6.90688,-15.32416 -10.32192,-22.97344 -0.52736,-1.13152 -0.67584,-2.33472 -1.13152,-3.456 -1.63328,-4.12672 -1.5616,-4.28544 2.97472,-4.36224 h 13.90592 c 5.94944,0 8.47872,-2.46784 8.5504,-8.56576 0.0717,-4.57216 0.0717,-9.14944 0.0717,-13.73696 V 494.2336 c 0.14848,0.15872 0.22016,0.15872 0.29696,0.15872 v -85.75488 c 0,-4.28544 0.14848,-4.43392 4.38784,-4.43392 h 29.21472 c 5.13536,0 5.20704,0.14848 5.20704,5.40672 0,27.1872 0,54.36416 0.0768,81.47968 0.0768,23.87456 0.29696,47.75936 0.29696,71.6288 0,10.14272 0.14848,20.26496 -0.6656,30.34112 z m 75.58656,-28.90752 c -4.98688,11.56096 -10.19904,22.97344 -15.31904,34.4576 -0.45568,1.13664 -1.19296,2.25792 -2.3808,4.42368 v 0.0102 c -2.97472,-4.5056 -6.0928,-8.18176 -8.11008,-12.39552 -2.82624,-6.13888 -4.5312,-12.83584 -7.35744,-18.9952 -3.0464,-6.6816 -4.15744,-13.88032 -5.57568,-20.94592 -1.1776,-6.02112 -1.40288,-12.25216 -1.8432,-18.3296 -1.2032,-15.39584 -2.23744,-30.78656 -3.44064,-46.09536 -0.64797,-8.39177 -1.33918,-16.78015 -2.0736,-25.1648 -0.14848,-1.50016 0.2304,-2.176 1.94048,-2.176 11.52512,0 22.97344,-0.14848 34.49856,-0.22016 2.1504,0 3.0464,0.96768 3.11808,2.9952 0.29696,4.65408 0.51712,9.31328 0.88576,13.97248 0.29696,3.83488 0.73728,7.6544 1.04448,11.41248 0.51712,5.40672 1.04448,10.81344 1.41312,16.14336 0.51712,6.90688 0.51712,13.81888 1.4848,20.63872 1.34144,10.4448 0.29696,21.10464 3.93216,31.32928 0.89088,2.40128 -0.96768,6.08768 -2.21696,8.93952 z m 84.28032,22.016 c -2.89792,6.6816 -6.02112,13.21472 -8.99072,19.82464 -1.64352,3.74784 -3.19488,7.49568 -4.76672,11.25376 -1.85344,4.51072 -3.11808,5.40672 -7.87456,5.40672 H 438.016 c -7.52128,0 -15.0272,0.23552 -22.53312,-0.0768 -3.56352,-0.14336 -7.0656,-1.27488 -10.62912,-2.02752 -1.792,-0.36864 -2.16064,-1.42336 -1.41312,-3.14368 4.52561,-9.71876 9.00906,-19.45709 13.45024,-29.21472 1.04448,-2.24768 1.85344,-4.65408 3.0464,-6.90688 0.29696,-0.6144 1.41312,-1.28 2.00192,-1.13152 12.42112,3.15392 25.13408,2.77504 37.76512,2.63168 6.69162,-0.0768 13.3839,-0.0768 20.07552,0 3.19488,0.005 3.50208,0.45568 2.16576,3.38432 z m 3.84,-21.86752 c -0.7169,0.78954 -1.69167,1.29781 -2.74944,1.4336 -13.89568,0.0768 -27.8784,0.14848 -41.77408,-0.0768 -4.23936,-0.087 -8.5504,-1.05472 -11.74528,-4.28544 -3.3536,-3.3792 -4.98688,-7.36256 -3.28192,-11.93984 3.07859,-8.08074 6.27381,-16.11657 9.58464,-24.10496 3.88096,-9.15456 7.81312,-18.31936 12.05248,-28.2368 -2.30912,-0.14848 -3.712,-0.29696 -5.04832,-0.29696 -4.09088,-0.0717 -8.18176,0.29696 -12.27264,-0.2304 -4.45952,-0.51712 -8.99072,-1.04448 -12.48256,-4.79232 -3.42528,-3.6864 -3.94752,-8.04352 -2.60608,-12.32384 2.1504,-6.83008 4.97664,-13.44 7.80288,-20.04992 2.67776,-6.15424 5.72416,-12.16 8.47872,-18.24256 2.97472,-6.53824 5.86752,-13.07136 8.77056,-19.6096 2.59164,-5.76095 5.14317,-11.53987 7.6544,-17.33632 0.73728,-1.80736 1.8688,-2.47808 3.87072,-2.47808 10.93632,0.0717 21.92896,0 32.86528,0 3.6352,0 3.712,0.36864 2.29888,3.6864 -6.31296,14.63296 -12.71808,29.20448 -18.95936,43.84768 -0.75172,1.5189 -1.15906,3.18496 -1.19296,4.87936 0.22016,3.90656 1.04448,4.5056 5.06368,4.5056 8.17152,0.0768 16.35328,0 24.448,0 1.64864,0 3.3536,0.22016 4.98688,0.29696 2.30912,0.0768 2.60608,1.05984 1.63328,3.072 -4.52662,9.70893 -8.98965,19.44738 -13.3888,29.21472 -3.03616,6.91712 -5.93408,13.89568 -8.9088,20.8128 -2.03377,4.61302 -4.09033,9.21595 -6.1696,13.80864 -1.94048,4.20352 -0.60416,6.31296 4.15232,6.38976 6.02112,0 12.04224,0.0768 18.05824,0 2.08896,0 3.13344,0.60416 2.08896,2.85184 -3.6352,8.25344 -7.21408,16.58368 -10.84928,24.85248 -0.67072,1.50016 -1.408,3.072 -2.3808,4.352 z m 134.81472,58.73664 h -125.3376 c -1.72032,-0.22016 -3.48672,-0.22016 -5.94432,-0.22016 v -0.0154 c 0.88064,-2.61632 1.41312,-4.41856 2.1504,-6.0672 4.69504,-10.29632 9.4464,-20.5056 14.0544,-30.79168 1.04448,-2.33472 2.52928,-2.92352 4.75648,-2.92352 h 28.6976 c 4.54656,0 4.75648,-0.2304 4.75648,-4.74112 v -116.6182 c 0,-3.97824 -0.0768,-4.05504 -4.08064,-4.05504 -6.10304,0 -12.26752,-0.0768 -18.36544,0 -2.30912,0 -3.27168,-0.51712 -3.27168,-3.1488 0.14848,-10.97216 0.0768,-21.92896 0.0768,-32.88576 0,-3.90656 0.0768,-3.90656 3.86048,-3.90656 h 73.00096 c 4.23936,0 8.5504,0.0768 12.78976,0 2.01728,0 2.82624,0.82432 2.74944,2.85184 -0.0768,11.41248 -0.0768,22.82496 -0.0768,34.31424 0,2.02752 -0.73728,2.77504 -2.82624,2.77504 -6.6048,-0.0768 -13.14304,0.0717 -19.77856,0.0717 -2.29376,0 -3.33824,1.05984 -3.33824,3.46624 0.0768,18.39104 0.14336,36.7104 0.14336,55.11168 0,20.87424 0,41.74848 0.0768,62.6944 0,3.75808 0.36864,4.21376 4.17792,4.21376 h 31.4368 c 3.41504,0 3.87072,0.36864 3.93728,3.81952 0.087,10.97216 0,21.92896 0.087,32.89088 -0.0102,2.8672 -1.57184,3.16416 -3.73248,3.16416 z M 819.29728,588.1088 c -0.14848,16.37376 -11.008,29.21472 -26.38848,32.89088 -4.31616,1.05472 -8.78592,1.35168 -13.24544,1.5104 -6.83008,0.22016 -13.7472,0.0717 -20.58752,0.0717 -4.23936,0 -5.42208,-0.83456 -6.9888,-4.66432 -3.33824,-7.95136 -6.83008,-15.90784 -10.26048,-23.87456 l -0.66048,-1.57184 c -1.19296,-3.072 -0.81408,-3.61472 2.45248,-3.61472 9.43616,-0.0717 18.95424,0.15872 28.3904,-0.29184 5.65248,-0.29696 8.03328,-2.85696 8.18688,-8.64256 0.22016,-11.04384 -0.29696,-22.07744 -0.14848,-33.11104 0.0768,-5.48864 -6.84032,-11.42272 -11.74528,-11.71968 -0.91407,-0.0862 -1.83136,-0.13402 -2.74944,-0.14336 -18.73408,0 -37.54496,0 -56.2688,0.0717 -5.27872,0 -5.65248,0.53248 -5.65248,5.8624 l 0.20992,77.55776 c 0,4.14208 -0.0768,4.21376 -4.23936,4.21376 h -31.22176 c -4.01408,0 -4.3008,-0.3072 -4.3008,-4.28544 v -39.94112 c 0.0614,0.14336 0.13312,0.14336 0.20992,0.14336 V 537.5744 c 0,-2.78016 -1.85344,-2.93888 -3.78368,-2.93888 -10.19392,0.087 -20.44416,0.31232 -30.62272,0.31232 -6.92224,0 -6.17984,0.8192 -6.25664,-6.38976 -0.0768,-9.90208 0,-19.90144 0,-29.80352 0,-3.59936 0.36864,-4.05504 3.94752,-4.13184 10.7008,-0.0717 21.33504,0 32.04096,-0.0717 4.09088,0 4.31104,-0.15872 4.38272,-4.21376 0.0768,-9.90208 -0.0768,-19.8144 0,-29.73184 0,-2.4832 -1.04448,-3.23072 -3.41504,-3.23072 -6.84544,0.0768 -13.76256,-0.0717 -20.60288,0 -2.1504,0 -2.89792,-0.74752 -2.89792,-2.92352 0.0922,-11.26912 0.0922,-22.46144 -0.0614,-33.72544 0,-2.70336 1.03424,-3.29216 3.41504,-3.29216 6.31296,0.0768 12.6464,0 18.95936,0 4.23424,0 4.45952,-0.3072 4.5312,-4.74112 0,-2.61632 0.14848,-5.24288 0,-7.87456 -0.0717,-2.4832 1.04448,-3.15904 3.34336,-3.15904 9.07776,0.0768 18.22208,0.0768 27.28448,0.0768 h 4.97664 c 3.94752,0 4.0192,0 4.1728,4.05504 0.0666,2.4064 -0.1536,4.87936 -0.087,7.28576 0.0768,3.3792 0.9728,4.2752 4.31616,4.36224 5.65248,0.0768 11.30496,0.0768 17.024,0.0768 14.6432,0.0717 27.3664,5.09952 37.0176,16.29184 5.35552,6.22592 8.69888,13.81888 9.216,22.14912 0.52736,8.47872 0.15872,17.03936 0.3072,25.52832 0,3.15904 0.22016,6.38976 0.36864,9.53344 0.14336,3.15904 0.896,3.97824 4.09088,3.90656 6.4911,-0.23012 12.96241,0.84408 19.03104,3.15904 13.00992,5.03808 21.03296,14.18752 23.63904,28.01152 0.50705,2.7474 0.7539,5.53649 0.73728,8.33024 0.0819,17.88928 0.0666,35.78368 -0.0666,53.6832 z M 810.14272,453.632 c -5.94432,3.90656 -12.1856,3.75808 -19.4048,3.6864 -2.23744,0 -5.20192,0.0717 -8.09984,-0.0768 -0.7424,-0.0717 -2.00704,-0.98304 -2.08896,-1.5872 -0.6656,-8.84736 -1.77152,-17.792 1.35168,-26.35264 2.75456,-7.5776 9.58464,-12.01664 17.61792,-12.16 8.91672,-0.0635 16.79824,5.78392 19.32288,14.336 2.30912,8.2688 -1.55648,17.42336 -8.69888,22.15424 z"
       fill="#ff2e4d"
       p-id="4310"
       id="path2"
       sodipodi:nodetypes="ssssssssssccccccccccsccssscccccccscsccsssscsssscccccccccscccccccsscccsscccccccccccccccccccccccccsccccsccccccccccccccccsssssccsssccscscscssccscsccsccccccccccccsssccscscscccccccccscccssccccccccccccsscccccccc"
       style="fill:#444444;fill-opacity:1" /></g></svg>
