<?xml version="1.0" encoding="UTF-8"?>
<svg id="_图层_1" data-name="图层_1" xmlns="http://www.w3.org/2000/svg" version="1.1" xmlns:xlink="http://www.w3.org/1999/xlink" viewBox="0 0 1024 1024" width="16" height="16">
  <!-- Generator: Adobe Illustrator 29.0.1, SVG Export Plug-In . SVG Version: 2.1.0 Build 192)  -->
  <defs>
    <style>
      .st0 {
        fill: #4daf7c;
      }

      .st1 {
        fill: url(#_未命名的渐变_12);
      }

      .st2 {
        display: none;
      }

      .st3 {
        fill: #444444;
      }

      .st4 {
        fill: #5ed698;
      }
    </style>
  </defs>
  <rect class="st1" x="19" y="21" width="982" height="982" rx="186.7" ry="186.7"/>
  <g class="st2">
    <path class="st0" d="M641.4,508.1h-86.8c-3.5,0-6.9.4-10.1,1.1s-6.1,1.8-8.6,3.2c-7.5,3.4-13.6,8.4-18.3,15-4.7,6.7-7.1,14.1-7.1,22.2v125.4h-64.3c-12,0-19.2,2.9-21.7,8.6s.5,12.7,9,20.8l133.9,128.3c4,3.8,8.8,6.8,14.2,9s11,3.2,16.5,3.2,11-1.1,16.5-3.2,10.2-5.2,14.2-9l133.9-128.3c8.5-8.1,11.4-15,9-20.8-2.5-5.7-9.7-8.6-21.7-8.6h-64.3v-125.4c0-11.5-4.3-21.3-13.1-29.4s-19.1-12.2-31-12.2h0Z"/>
    <path class="st4" d="M475.4,141.9c-17-2.9-31.4.9-43.4,11.1-12,10.2-18,23.5-18,39.8v337.5c-9.9-3.4-20.3-5.9-31-7.9-10.7-1.9-21.5-2.9-32.5-2.9-25.4,0-49.6,4.8-72.6,14.3-22.4,9.1-42,21.6-58.7,37.6-16.7,16-30.1,35-40,57-9.5,21.5-14.2,44.4-14.2,68.8s4.7,47.5,14.2,69.5c9.9,21.5,23.3,40.3,40,56.3,16.7,16,36.3,28.8,58.7,38.3,23,9.1,47.1,13.6,72.6,13.6s55.9-5.9,81.2-17.9c25.2-12,46.2-28.2,63.2-48.7l-85.3-81c-12.9-12.4-19.3-23.8-19.1-34s1.3-17.6,3.4-21.9c1.5-4.3,6.1-10.2,13.8-17.6,7.7-7.4,20.6-11.1,38.5-11.1h30.7v-93.2c0-17.2,5.6-32.5,16.8-45.9,11.2-13.4,25.3-22,42.3-25.8v-134c59.8,0,105.2,7.7,136.1,22.9,30.4,14.8,51.4,33.3,62.8,55.5s15.7,46,12.7,71.3c-2.5,24.9-7.3,47.1-14.2,66.6-5.5,15.8-6.7,24.7-3.7,26.9s10.2-2.7,21.7-14.7c73.3-76.5,107.7-140.5,103.2-192-4.5-52.1-28-94.7-70.7-127.9-42.6-33.2-94.6-58.2-155.9-74.9-61.3-17.2-112.2-29.2-152.6-35.8h0Z"/>
  </g>
  <path class="st3" d="M282.5,144.1l245.5,132.1c38.1,31,49.2,62,33.2,93l-87,222.7,2.6,2.4,159.4-87.3-2.6-3.3-13.6-9.8c-5.9-5.2-9.9-9.3-11.9-12.2-1.4-2-3.4-6.4-6-13-3.2-8.2-5.2-14.1-6-17.9-1.5-8.8-2.1-16.1-1.7-22,.3-4.3,1.7-9.8,4.3-16.3,1.8-4.6,4.4-9.3,7.7-13.9,4.5-6.5,8.8-11.4,12.8-14.7,6.8-5.6,14.5-10.5,23-14.7,4.9-2.3,10.6-4,17.1-4.9,2.5-.4,8.1-.4,17.1,0,8.3.4,14.3.9,17.9,1.6,4.5,1.1,7.1,2.2,7.7,3.3l104,56.3,29,17.1c6.4,3.9,10.3,6.6,11.9,8.2,7.1,6.8,11.9,12.5,14.5,17.1,5.5,9.7,8.4,17.9,8.5,24.5.4,19-1.8,33.4-6.8,43.2-11.4,22.3-22.2,33.7-32.4,34.3l-75.9,43.2-184.1,101.1-284.8,158.2c-4.5,2.2-8,2.2-10.2,0l-17.1,1.6c-6.8-.3-13.4-1.4-19.6-3.3-8.2-2.3-15.3-5.3-21.3-9-5.9-3.6-11.6-8.5-17.1-14.7-3.6-4.1-6.5-8.7-8.5-13.9-3.6-9.1-5.9-17.2-6.8-24.5-1-7.6-.7-15.5.9-23.7.6-3.7,2.9-9.4,6.8-17.1,3.1-6.3,6.2-11.2,9.4-14.7,5.9-6.3,12.2-11.7,18.8-16.3,1-.7,7.3-4,18.8-9.8l10.2-4.9,10.2-5.7,3.4-4.1,24.7-66.9,106.6-265.9v-3.3l-105.7-57.9-74.2-41.6c-2.1-1.3-5.2-3.7-9.4-7.3-5.3-4.6-8.4-7.6-9.4-9-5.2-7.4-9.2-14.4-11.9-21.2-2.1-5-3.3-10.7-3.4-17.1-.4-11.2.5-20.2,2.6-26.9,2.5-8.6,7-17.1,13.6-25.3,3.6-4.3,10.5-10,20.5-17.1,6.2-4.4,11.6-7.4,16.2-9,3-1,8.9-1.8,17.9-2.4,7-.4,12.7-.4,17.1,0,6.8.5,11.4,1.4,13.6,2.4Z"/>
</svg>
