<?xml version="1.0" encoding="UTF-8"?>
<svg id="_图层_1" xmlns="http://www.w3.org/2000/svg" version="1.1" viewBox="0 0 64 64" width="22" height="22">
  <!-- Generator: Adobe Illustrator 29.0.1, SVG Export Plug-In . SVG Version: 2.1.0 Build 192)  -->
  <defs>
    <style>
      .st0, .st1, .st2, .st3 {
        isolation: isolate;
      }

      .st0, .st2, .st3 {
        opacity: .2;
      }

      .st0, .st3, .st4 {
        display: none;
      }

      .st5 {
        fill: #394045;
      }

      .st1 {
        opacity: .1;
      }

      .st3 {
        fill: #fff;
      }

      .st4, .st6 {
        fill: #e4e4e4;
      }

      .st7 {
        fill: #0076e2;
      }
    </style>
  </defs>
  <path class="st6" d="M50.3,64H13.9C6.3,64,.2,57.8.2,50.3V13.8C.2,6.2,6.3,0,13.9,0h36.5c7.5,0,13.7,6.2,13.7,13.7v36.5c0,7.5-6.1,13.7-13.7,13.7h0Z"/>
  <g>
    <circle class="st0" cx="31.4" cy="32.5" r="28"/>
    <circle class="st4" cx="31.4" cy="31.5" r="28"/>
    <circle class="st2" cx="31.4" cy="31.5" r="8"/>
    <path class="st1" d="M28.7,20.5c-.7,0-1.3.6-1.3,1.3v5.4s1.4,1.3,1.4,2.1-1.4,2.1-1.4,2.1v11.7c0,.7.6,1.3,1.3,1.3h5.3c.7,0,1.3-.6,1.3-1.3v-5.4h0s-1.5-1.3-1.5-2.2c0-.9,1.5-2.2,1.5-2.2h0v-11.5c0-.7-.6-1.3-1.3-1.3h-5.3Z"/>
    <path class="st5" d="M28.7,19.5c-.7,0-1.3.6-1.3,1.3v5.4s1.4,1.3,1.4,2.1-1.4,2.1-1.4,2.1v11.7c0,.7.6,1.3,1.3,1.3h5.3c.7,0,1.3-.6,1.3-1.3v-5.4h0s-1.5-1.3-1.5-2.2c0-.9,1.5-2.2,1.5-2.2h0v-11.5c0-.7-.6-1.3-1.3-1.3h-5.3Z"/>
    <path class="st1" d="M31.4,10.5c-12.1,0-22,9.9-22,22s9.9,22,22,22,22-9.9,22-22-9.9-22-22-22ZM31.4,15.5c9.4,0,17,7.6,17,17s-7.6,17-17,17-17-7.6-17-17,7.6-17,17-17Z"/>
    <path class="st7" d="M31.4,9.5c-12.1,0-22,9.9-22,22s9.9,22,22,22,22-9.9,22-22-9.9-22-22-22ZM31.4,14.5c9.4,0,17,7.6,17,17s-7.6,17-17,17-17-7.6-17-17,7.6-17,17-17Z"/>
    <path class="st3" d="M31.4,3.5C15.9,3.5,3.4,16,3.4,31.5c0,.2,0,.4,0,.6.2-15.3,12.7-27.6,28-27.6,15.2,0,27.7,12.2,28,27.4,0-.1,0-.3,0-.4,0-15.5-12.5-28-28-28Z"/>
  </g>
</svg>