<?xml version="1.0" encoding="UTF-8"?>
<svg id="_图层_1" xmlns="http://www.w3.org/2000/svg" version="1.1" viewBox="0 0 64 64" width="22" height="22">
  <!-- Generator: Adobe Illustrator 29.0.1, SVG Export Plug-In . SVG Version: 2.1.0 Build 192)  -->
  <defs>
    <style>
      .st0 {
        fill: #4f4f4f;
      }

      .st1 {
        fill: #fe3838;
      }

      .st2, .st3, .st4 {
        isolation: isolate;
      }

      .st2, .st3, .st5, .st6 {
        display: none;
      }

      .st2, .st4 {
        opacity: .2;
      }

      .st3 {
        opacity: .1;
      }

      .st3, .st7 {
        fill: #fff;
      }

      .st8 {
        fill: #3f3f3f;
      }

      .st5 {
        fill: #fecd38;
      }

      .st9 {
        fill: #e4e4e4;
      }
    </style>
  </defs>
  <path class="st9" d="M50.3,64H13.8c-7.6,0-13.8-6.2-13.8-13.7V13.7C0,6.2,6.2,0,13.7,0h36.5c7.5,0,13.7,6.2,13.7,13.7v36.6c0,7.5-6.2,13.7-13.7,13.7h0Z"/>
  <g class="st6">
    <path class="st2" d="M.5,31.2c0,.4,0,.7,0,1.1,0,17.4,14.2,31.4,31.7,31.4s31.7-14,31.7-31.4,0-.7,0-1.1c-.6,16.9-14.5,30.3-31.7,30.3S1.1,48.1.5,31.2h0Z"/>
    <path class="st5" d="M32.2-.2h0c17.5,0,31.7,14.1,31.7,31.4h0c0,17.4-14.2,31.4-31.7,31.4h0C14.6,62.7.4,48.6.4,31.2H.4C.4,13.9,14.6-.2,32.2-.2Z"/>
    <path class="st4" d="M11.7,18.9v6.7h4.5v20.2h6.8v-26.9h-11.3ZM41.2,18.9c-7.5,0-13.6,6-13.6,13.5s6.1,13.5,13.6,13.5h18.4c1.2-2.1,2.2-4.4,2.9-6.7h-21.4c-3.8,0-6.8-3-6.8-6.7s3-6.7,6.8-6.7c1.9,0,3.8.8,5.1,2.2h7.8c-1.9-5.4-7-9-12.8-9h0Z"/>
    <path class="st1" d="M11.7,17.8v6.7h4.5v20.2h6.8v-26.9h-11.3ZM41.2,17.8c-7.5,0-13.6,6-13.6,13.5s6.1,13.5,13.6,13.5h19.6c1-2.1,1.8-4.4,2.3-6.7h-21.9c-3.8,0-6.8-3-6.8-6.7s3-6.7,6.8-6.7c1.9,0,3.8.8,5.1,2.2h7.8c-1.9-5.4-7-9-12.8-9h0Z"/>
    <path class="st3" d="M32.2-.2C14.6-.2.4,13.8.4,31.2s0,.3,0,.4C.8,14.6,14.8.9,32.2.9s31.3,13.6,31.7,30.7c0-.1,0-.2,0-.4C63.9,13.8,49.7-.2,32.2-.2Z"/>
  </g>
  <g>
    <path class="st2" d="M23.3,35.5v1.7c0,1.4,1.1,2.5,2.6,2.5h27.4c1.4,0,2.6-1.1,2.6-2.5v-1.7c0,1.4-1.1,2.5-2.6,2.5h-27.4c-1.4,0-2.6-1.1-2.6-2.5Z"/>
    <path class="st2" d="M7.9,50.5v1.7c0,1.4,1.1,2.5,2.6,2.5h27.4c1.4,0,2.6-1.1,2.6-2.5v-1.7c0,1.4-1.1,2.5-2.6,2.5H10.4c-1.4,0-2.6-1.1-2.6-2.5Z"/>
    <path class="st0" d="M55.9,10.4v26.8c0,1.4-1.2,2.5-2.6,2.5h-27.4c-1.4,0-2.6-1.1-2.6-2.5V10.4c0-1.4,1.2-2.5,2.6-2.5h27.4c1.4,0,2.6,1.1,2.6,2.5Z"/>
    <path class="st4" d="M38.7,18.7v2.5h2.6v-2.5h-2.6ZM43.9,18.7v2.5h2.6v-2.5h-2.6ZM42.8,23c-2,0-3.7.6-4.9,1.9-1.2,1.3-1.8,3.2-1.8,5.3,0,2.1.6,3.9,1.9,5.1,1.3,1.2,3,1.8,5.2,1.8s1.7,0,2.6-.3,1.6-.4,2.4-.8v-1.9c-.8.4-1.5.7-2.3.9-.8.2-1.6.3-2.5.3-1.5,0-2.6-.4-3.5-1.2-.8-.8-1.3-2.4-1.4-3.9h10.3v-.9c0-2-.5-3.7-1.6-4.8-1.1-1.2-2.5-1.7-4.3-1.7ZM42.8,24.8c1.1,0,2,.4,2.6,1.1.7.7,1,1.7,1,2.9h-8c.1-1.2.5-2.2,1.3-2.9.8-.7,1.8-1,3-1Z"/>
    <path class="st7" d="M38.7,17.9v2.5h2.6v-2.5h-2.6ZM43.9,17.9v2.5h2.6v-2.5h-2.6ZM42.8,22.1c-2,0-3.7.6-4.9,1.9-1.2,1.3-1.8,3.2-1.8,5.3,0,2.1.6,3.9,1.9,5.1,1.3,1.2,3,1.8,5.2,1.8s1.7,0,2.6-.3c.8-.2,1.6-.4,2.4-.8v-1.9c-.8.4-1.5.7-2.3.9-.8.2-1.6.3-2.5.3-1.5,0-2.6-.4-3.5-1.2-.8-.8-1.3-2.4-1.4-3.9h10.3v-.9c0-2-.5-3.7-1.6-4.8-1.1-1.2-2.5-1.7-4.3-1.7ZM42.8,24c1.1,0,2,.4,2.6,1.1.7.7,1,1.7,1,2.9h-8c.1-1.2.5-2.2,1.3-2.9.8-.7,1.8-1,3-1Z"/>
    <path class="st9" d="M40.4,24.6v26.8c0,1.4-1.2,2.5-2.6,2.5H10.4c-1.4,0-2.6-1.1-2.6-2.5v-26.8c0-1.4,1.2-2.5,2.6-2.5h27.4c1.4,0,2.6,1.1,2.6,2.5Z"/>
    <path class="st3" d="M25.9,7.9c-1.4,0-2.6,1.1-2.6,2.5v.8c0-1.4,1.1-2.5,2.6-2.5h27.4c1.4,0,2.6,1.1,2.6,2.5v-.8c0-1.4-1.1-2.5-2.6-2.5h-27.4Z"/>
    <path class="st3" d="M10.4,22.1c-1.4,0-2.6,1.1-2.6,2.5v.8c0-1.4,1.1-2.5,2.6-2.5h27.4c1.4,0,2.6,1.1,2.6,2.5v-.8c0-1.4-1.1-2.5-2.6-2.5H10.4Z"/>
    <path class="st4" d="M28.9,44c-1.9,0-3.2.2-3.9.6-.7.4-1.1,1.4-1.1,2.3s.3,1.4.8,1.9c.5.5,1.3.7,2.2.7s2.3-.4,3.1-1.3c.8-.9,1-2.3,1-3.7v-.5h-2.2M33.6,43v8.3h-2.6v-2.4c-.5.8-1,1.4-1.8,1.8-.8.4-1.8.6-2.9.6s-2.6-.4-3.5-1.2c-.9-.8-1.3-1.8-1.3-3.1s.5-2.9,1.6-3.7c1.1-.8,2.7-1.2,4.8-1.2h3.1v-.2c0-1-.4-1.6-1.1-2.1-2.2-1.3-5.4-1-7.6,0v-1.8c.9-.3,1.9-.5,2.7-.7.8-.2,1.6-.2,2.3-.2,2.1,0,3.6.5,4.6,1.5,1,1,1.5,2.3,1.5,4.3M25.7,31.3l3.6,4.2h-1.9l-4.1-4.2h2.5"/>
    <path class="st8" d="M28.9,43.1c-1.9,0-3.2.2-3.9.6-.7.4-1.1,1.4-1.1,2.3s.3,1.4.8,1.9c.5.5,1.3.7,2.2.7s2.3-.4,3.1-1.3c.8-.9,1-2.3,1-3.7v-.5h-2.2M33.6,42.2v8.3h-2.6v-2.4c-.5.8-1,1.4-1.8,1.8-.8.4-1.8.6-2.9.6s-2.6-.4-3.5-1.2c-.9-.8-1.3-1.8-1.3-3.1s.5-2.9,1.6-3.7c1.1-.8,2.7-1.2,4.8-1.2h3.1v-.2c0-1-.4-1.6-1.1-2.1-2.2-1.3-5.4-1-7.6,0v-1.8c.9-.3,1.9-.5,2.7-.7.8-.2,1.6-.2,2.3-.2,2.1,0,3.6.5,4.6,1.5,1,1,1.5,2.3,1.5,4.3M25.7,30.4l3.6,4.2h-1.9l-4.1-4.2h2.5"/>
  </g>
</svg>