<?xml version="1.0" encoding="UTF-8"?>
<svg id="_图层_1" xmlns="http://www.w3.org/2000/svg" version="1.1" viewBox="0 0 64 64" width="22" height="22">
  <!-- Generator: Adobe Illustrator 29.0.1, SVG Export Plug-In . SVG Version: 2.1.0 Build 192)  -->
  <defs>
    <style>
      .st0, .st1, .st2 {
        display: none;
      }

      .st0, .st1, .st3 {
        isolation: isolate;
      }

      .st0, .st3 {
        opacity: .2;
      }

      .st1 {
        opacity: .1;
      }

      .st1, .st4 {
        fill: #fff;
      }

      .st2, .st5 {
        fill: #475ad0;
      }

      .st6 {
        fill: #979797;
      }
    </style>
  </defs>
  <path class="st5" d="M50.3,64H13.9C6.3,64,.2,57.8.2,50.3V13.8C.2,6.2,6.3,0,13.9,0h36.5c7.5,0,13.7,6.2,13.7,13.7v36.5c0,7.5-6.1,13.7-13.7,13.7h0Z"/>
  <g>
    <path class="st0" d="M4.7,1.2h54.5c2.7,0,4.8,2.1,4.8,4.7v53.4c0,2.6-2.2,4.7-4.8,4.7H4.7c-2.7,0-4.8-2.1-4.8-4.7V5.9C-.1,3.3,2,1.2,4.7,1.2Z"/>
    <path class="st2" d="M4.7,0h54.5c2.7,0,4.8,2.1,4.8,4.7v53.4c0,2.6-2.2,4.7-4.8,4.7H4.7c-2.7,0-4.8-2.1-4.8-4.7V4.8C-.1,2.2,2,0,4.7,0Z"/>
    <path class="st3" d="M20.5,12.4c-3.1,0-3.1,4.5,0,4.5h9.1c3.1,0,3.1,4.5,0,4.5h-2.3c-3.1,0-3.1,4.5,0,4.5h2.3c3.1,0,3.1,4.5,0,4.5h-11.4c-3.1,0-3.1,4.5,0,4.5h11.4c3.1,0,3.1,4.5,0,4.5h-6.9c-3.1,0-3.1,4.5,0,4.5h6.9c3.1,0,3.1,4.5,0,4.5h-4.6c-3.1,0-3.1,4.5,0,4.5h24.1c1.9,0,3.4-1.5,3.4-3.4v-23.6l-13.7-13.5h-18.3ZM11.3,21.4c-3.1,0-3.1,4.5,0,4.5h9.1c3.1,0,3.1-4.5,0-4.5h-9.1ZM13.6,39.3c-1.3,0-2.3,1-2.3,2.2s1,2.2,2.3,2.2,2.3-1,2.3-2.2-1-2.2-2.3-2.2ZM13.6,48.3c-3.1,0-3.1,4.5,0,4.5h4.5c3.1,0,3.1-4.5,0-4.5h-4.5Z"/>
    <path class="st4" d="M20.5,11.3c-3.1,0-3.1,4.5,0,4.5h9.1c3.1,0,3.1,4.5,0,4.5h-2.3c-3.1,0-3.1,4.5,0,4.5h2.3c3.1,0,3.1,4.5,0,4.5h-11.4c-3.1,0-3.1,4.5,0,4.5h11.4c3.1,0,3.1,4.5,0,4.5h-6.9c-3.1,0-3.1,4.5,0,4.5h6.9c3.1,0,3.1,4.5,0,4.5h-4.6c-3.1,0-3.1,4.5,0,4.5h24.1c1.9,0,3.4-1.5,3.4-3.4v-23.6l-13.7-13.5h-18.3ZM11.3,20.3c-3.1,0-3.1,4.5,0,4.5h9.1c3.1,0,3.1-4.5,0-4.5h-9.1ZM13.6,38.2c-1.3,0-2.3,1-2.3,2.2s1,2.2,2.3,2.2,2.3-1,2.3-2.2-1-2.2-2.3-2.2ZM13.6,47.2c-3.1,0-3.1,4.5,0,4.5h4.5c3.1,0,3.1-4.5,0-4.5h-4.5Z"/>
    <path class="st6" d="M38.8,11.3v10.5c0,1.7,1.4,3,3.1,3h10.7l-13.7-13.5Z"/>
    <path class="st6" d="M35.4,41.6v5l2-1.9,3.7,3.6h1.2v-1.2l-3.7-3.6,2-1.9h-5.2ZM42.2,41.6v1.2l3.7,3.6-2,1.9h5.2v-5l-2,1.9-3.7-3.6h-1.2Z"/>
    <path class="st1" d="M4.7,0C2,0-.1,2.2-.1,4.8v1.1C-.1,3.3,2,1.2,4.7,1.2h54.5c2.7,0,4.8,2.1,4.8,4.7v-1.1c0-2.6-2.1-4.7-4.8-4.7H4.7Z"/>
  </g>
</svg>