<?xml version="1.0" encoding="UTF-8"?>
<svg id="_图层_1" xmlns="http://www.w3.org/2000/svg" version="1.1" viewBox="0 0 64 64" width="22" height="22">
  <!-- Generator: Adobe Illustrator 29.0.1, SVG Export Plug-In . SVG Version: 2.1.0 Build 192)  -->
  <defs>
    <style>
      .st0 {
        fill: #a9c9e0;
      }

      .st1 {
        fill: #ff8080;
      }

      .st2, .st3, .st4, .st5, .st6, .st7, .st8 {
        display: none;
      }

      .st2, .st3, .st9, .st10, .st11, .st8, .st12 {
        isolation: isolate;
      }

      .st2, .st10, .st11, .st8 {
        opacity: .2;
      }

      .st3, .st13, .st11, .st8, .st12 {
        fill: #fff;
      }

      .st3, .st9, .st12 {
        opacity: .1;
      }

      .st14 {
        fill: #3f3f3f;
      }

      .st4, .st15 {
        fill: #777676;
      }

      .st5 {
        fill: #ff8a18;
      }

      .st16 {
        fill: none;
        stroke: #302100;
        stroke-linecap: round;
        stroke-linejoin: round;
        stroke-width: .6px;
      }

      .st17 {
        fill: #61b620;
      }

      .st18 {
        fill: #0088d1;
      }

      .st19 {
        fill: #d3aa7b;
      }

      .st20 {
        fill: #c0dce9;
      }

      .st21 {
        fill: #342522;
      }

      .st22 {
        fill: #4a2803;
      }

      .st23 {
        fill: #302100;
      }

      .st7 {
        fill: #bb2612;
      }

      .st24 {
        fill: #403431;
      }

      .st25 {
        fill: #723f05;
      }

      .st26 {
        fill: #e4e4e4;
      }

      .st27 {
        fill: #debf9c;
      }

      .st28 {
        fill: #ffda31;
      }
    </style>
  </defs>
  <path class="st15" d="M50.4,64H13.8c-7.6,0-13.8-6.2-13.8-13.7V13.7C0,6.2,6.2,0,13.7,0h36.6c7.5,0,13.7,6.2,13.7,13.7v36.6c0,7.5-6.2,13.7-13.7,13.7h.1Z"/>
  <g class="st6">
    <path class="st18" d="M26.3,4.5c-.5,0-.9,0-1.4.1h0c-1.8.5-3.2,1.9-3.6,3.7l-2.6,12.8-12.3,5.2c-1.9.8-2.9,2.4-3,4.1,0,1.7.7,3.4,2.5,4.4l11.7,6.4,1.2,13c.4,4,5.2,5.8,8.2,3.1l9.8-8.8,13,2.9c4.1.9,7.3-3,5.6-6.6l-5.6-11.9,6.9-11.2c1-1.7.9-3.6-.1-5-1-1.4-2.6-2.4-4.7-2.1l-13.3,1.5-8.8-9.8c-.9-1-2.2-1.6-3.6-1.6Z"/>
    <path class="st10" d="M25.9,4.5c-.4,0-.8,0-1.2.2-2.2.5-3.9,2.3-4.3,4.4l-2.5,12.3-11.8,5c-3,1.3-4.4,4.6-3.1,7.6.5,1.2,1.4,2.1,2.5,2.7l11.2,6.1,1.2,12.5c.3,3.2,3.2,5.5,6.4,5.2,1.3-.1,2.5-.6,3.5-1.5l9.5-8.5,12.5,2.8c3.2.7,6.3-1.2,7.1-4.4.3-1.2.1-2.5-.4-3.7l-5.4-11.4,6.6-10.8c1.7-2.7.7-6.3-2.1-7.9-1.1-.6-2.4-.9-3.7-.8l-12.8,1.5-8.5-9.4c-1.2-1.3-2.9-2-4.7-1.9ZM26.2,10.5h0s0,0,0,0c0,0,0,0,0,0ZM26.2,10.5l8.4,9.4c1.3,1.4,3.2,2.2,5.1,1.9l12.5-1.4-6.3,10.3c-1.1,1.7-1.2,3.9-.3,5.7l5.2,10.9-12.3-2.7c-1.9-.4-3.9.1-5.3,1.4l-9.4,8.4-1.2-12.2c-.2-2-1.3-3.7-3.1-4.7l-10.7-5.8,11.3-4.7c1.8-.8,3.2-2.4,3.6-4.3l2.5-12.1Z"/>
    <path class="st26" d="M25.9,3.5c-.4,0-.8,0-1.2.2-2.2.5-3.9,2.3-4.3,4.4l-2.5,12.3-11.8,5c-3,1.3-4.4,4.6-3.1,7.6.5,1.2,1.4,2.1,2.5,2.7l11.2,6.1,1.2,12.5c.3,3.2,3.2,5.5,6.4,5.2,1.3-.1,2.5-.6,3.5-1.5l9.5-8.5,12.5,2.8c3.2.7,6.3-1.2,7.1-4.4.3-1.2.1-2.5-.4-3.7l-5.4-11.4,6.6-10.8c1.7-2.7.7-6.3-2.1-7.9-1.1-.6-2.4-.9-3.7-.8l-12.8,1.5-8.5-9.4c-1.2-1.3-2.9-2-4.7-1.9ZM26.2,9.5h0s0,0,0,0c0,0,0,0,0,0ZM26.2,9.5l8.4,9.4c1.3,1.4,3.2,2.2,5.1,1.9l12.5-1.4-6.3,10.3c-1.1,1.7-1.2,3.9-.3,5.7l5.2,10.9-12.3-2.7c-1.9-.4-3.9.1-5.3,1.4l-9.4,8.4-1.2-12.2c-.2-2-1.3-3.7-3.1-4.7l-10.7-5.8,11.3-4.7c1.8-.8,3.2-2.4,3.6-4.3l2.5-12.1Z"/>
    <path class="st11" d="M25.9,3.5c-.4,0-.8,0-1.2.2-2.2.5-3.9,2.3-4.3,4.4l-2.5,12.3-11.8,5c-2.4,1-3.9,3.5-3.5,6.1,0-2.2,1.4-4.2,3.5-5.1l11.8-5,2.5-12.3c.4-2.2,2.1-3.9,4.3-4.4.4,0,.8-.2,1.2-.2,1.8,0,3.5.6,4.7,1.9l8.5,9.4,12.8-1.5c3.2-.4,6.2,1.9,6.5,5.1,0,0,0,0,0,.1.3-3.2-2.1-6-5.4-6.2-.4,0-.8,0-1.2,0l-12.8,1.5-8.5-9.4c-1.2-1.3-2.9-2-4.7-1.9ZM52.2,20.4h-.7c0,0-5.6,9.3-5.6,9.3-.6,1.1-.9,2.3-.8,3.5,0-.9.4-1.8.8-2.5l6.3-10.3ZM9.9,31.3l-1,.4,10.7,5.8c1.7,1,2.9,2.7,3.1,4.7l1.2,12.2,9.4-8.4c1.4-1.3,3.4-1.8,5.3-1.4l12.3,2.7-.5-1.1-11.8-2.6c-1.9-.4-3.9.1-5.3,1.4l-9.4,8.4-1.2-12.2c-.2-2-1.3-3.7-3.1-4.7l-9.7-5.3ZM51.3,33.4l-.3.4,5.4,11.4c.3.6.5,1.2.5,1.9,0-1,0-2-.5-2.9l-5.1-10.8Z"/>
  </g>
  <g class="st6">
    <g>
      <path class="st10" d="M16,59.1s21.7-3,28.7,0l2-3,3,1,2.6-23.8-11.1-17.5h-21l-8.4,24.5v14.9l4.2,3.9Z"/>
      <path class="st22" d="M16,58.1s21.7-3,28.7,0l2-3,3,1,2.6-23.8-11.1-17.5h-21l-8.4,24.5v14.9l4.2,3.9Z"/>
      <path class="st10" d="M45.4,40.3s0,3.5,4.2,3.5,2.3-3.5,2.3-3.5c0,0,1.9-3.5-2.3-3.5s-4.2,3.5-4.2,3.5Z"/>
      <path class="st19" d="M45.4,39.3s0,3.5,4.2,3.5,2.3-3.5,2.3-3.5c0,0,1.9-3.5-2.3-3.5s-4.2,3.5-4.2,3.5Z"/>
      <path class="st10" d="M31.7,51.1c-12.6,0-18.3-17.8-18.3-17.8,0,0,2.6-17.5,19.4-17.5s16.8,21,16.8,21c0,0-5.3,14.3-17.9,14.3Z"/>
      <path class="st27" d="M31.7,50.1c-12.6,0-18.3-17.8-18.3-17.8,0,0,2.6-17.5,19.4-17.5s16.8,21,16.8,21c0,0-5.3,14.3-17.9,14.3Z"/>
      <path class="st10" d="M32.7,5.1c-10.4,0-15,5.6-16.2,6.8-.4-1.8-1.8-3.8-5.8-3.8l4.4,5.2c-.4.5-.9.8-1.4,1.8h-4s1,1.1,2.7,1.6c-2.3,3.5-4.7,7.9-4.7,16.3,0,22.3,2,25.1,2,25.1l2,1v-3l5,6v-18s.2-4.8,7-1c-3.8-6.8-6-14-6-14,0,0,4-2,4-8,6,19,25.9,16,28,18,2.1,2.1,0,12,0,12,0,0-1.6,9.6.1,6.9,2.2-3.5,3.9-22.9,3.9-32.8,0-10-8.3-16-8.3-16,0,0-4.2-4-12.7-4Z"/>
      <path class="st25" d="M32.7,4.1c-10.4,0-15,5.6-16.2,6.8-.4-1.8-1.8-3.8-5.8-3.8l4.4,5.2c-.4.5-.9.8-1.4,1.8h-4s1,1.1,2.7,1.6c-2.3,3.5-4.7,7.9-4.7,16.3,0,22.3,2,25.1,2,25.1l2,1v-3l5,6v-18s.2-4.8,7-1c-3.8-6.8-6-14-6-14,0,0,4-2,4-8,6,19,25.9,16,28,18,2.1,2.1,0,12,0,12,0,0-1.6,9.6.1,6.9,2.2-3.5,3.9-22.9,3.9-32.8,0-10-8.3-16-8.3-16,0,0-4.2-4-12.7-4Z"/>
      <path class="st23" d="M22.2,28.7c2.5-.7,3.5.3,3.5.3,0,0-1.3-.6-3,0-1.4.5-2.1,3-2.1,3,0,0,0-3,1.6-3.3Z"/>
      <path class="st16" d="M31.7,46.1s1.8-.8,3.4-.9c.9,0,1.6.4,1.6.4"/>
      <path class="st16" d="M32.1,41.9s.7,1,3.4,1,2.3-2.4,2.3-2.4"/>
      <path class="st1" d="M49.4,32.1l-1.5,5.4c.9.2,1.5.3,1.8.6l-.3-6Z"/>
      <path class="st23" d="M25.7,32.1c-1.7,0-3,1.8-3,4s1.3,4,3,4,3-1.8,3-4-1.2-4-3-4ZM25.7,33.1c1,0,2,1.3,2,3,0,1.7-1,3-2,3-1,0-2-1.3-2-3,0-1.7,1-3,2-3Z"/>
      <circle class="st10" cx="16.7" cy="39.1" r="4"/>
      <circle class="st27" cx="16.7" cy="38.1" r="4"/>
      <path class="st12" d="M32.7,4.1c-10.4,0-15,5.6-16.2,6.8-.4-1.8-1.8-3.8-5.8-3.8l.9,1.1c3.3.3,4.6,2.1,4.9,3.7,1.2-1.2,5.8-6.8,16.2-6.8,8.5,0,12.7,4,12.7,4,0,0,8.2,5.9,8.3,15.8,0-.2,0-.5,0-.7,0-10-8.3-16-8.3-16,0,0-4.2-4-12.7-4ZM14.6,12.7c-.3.3-.6.7-.9,1.4h-4s.5.5,1.4,1h2.6c.5-1,.9-1.4,1.4-1.8,0,0-.4-.5-.4-.5ZM11.9,16.5c-2.1,3.4-4.2,7.7-4.2,15.5s0,.4,0,.6c0-8.2,2.5-12.5,4.7-15.9-.2,0-.4-.1-.5-.2ZM18,28.9c0,0-.3.2-.3.2,0,0,1.9,6.3,5.3,12.6.2.1.5.2.7.4-3.2-5.7-5.1-11.3-5.7-13.2ZM50.6,42.7c0,3.4-.9,7.4-.9,7.4,0,0-.7,4.5-.6,6.5.1-2.2.6-5.5.6-5.5,0,0,1-4.8.9-8.4Z"/>
    </g>
  </g>
  <g class="st6">
    <ellipse class="st2" cx="31.9" cy="33.1" rx="31.9" ry="32"/>
    <ellipse class="st5" cx="31.9" cy="31.9" rx="31.9" ry="32"/>
    <ellipse class="st10" cx="31.9" cy="33.1" rx="22.8" ry="22.9"/>
    <ellipse class="st13" cx="31.9" cy="31.9" rx="22.8" ry="22.9"/>
    <path class="st8" d="M31.9,0C14.3,0,0,14.3,0,31.9c0,.2,0,.4,0,.6C.3,15.1,14.5,1.1,31.9,1.1c17.4,0,31.5,14,31.8,31.4,0-.2,0-.4,0-.6C63.7,14.3,49.5,0,31.9,0Z"/>
    <path class="st14" d="M26.7,14.2l-4.8,4.8,12.9,12.9-12.9,12.9,4.8,4.8,12.9-12.9,4.8-4.8-4.8-4.8-12.9-12.9Z"/>
  </g>
  <g class="st6">
    <path class="st2" d="M32.1,1.1h0c17.5,0,31.7,14.2,31.7,31.8h0c0,17.6-14.2,31.8-31.7,31.8h0C14.5,64.7.3,50.5.3,32.9H.3C.3,15.4,14.5,1.1,32.1,1.1Z"/>
    <path class="st7" d="M32.1,0h0c17.5,0,31.7,14.2,31.7,31.8h0c0,17.6-14.2,31.8-31.7,31.8h0C14.5,63.6.3,49.4.3,31.8H.3C.3,14.2,14.5,0,32.1,0Z"/>
    <path class="st10" d="M46.8,8c-2.5,0-4.5,2-4.5,4.5s2,4.5,4.5,4.5,4.5-2,4.5-4.5-2-4.5-4.5-4.5ZM37.3,14.8c-2.4.1-4.3,1.9-6.4,2.9-1.8,1-3.6,2.1-5.5,3.1-2.2-1.5-4.2-3.4-6.5-4.7-.9-.3-1.9-.7-2.8-.3-2.3.3-3.4,2.5-3.2,4.6,0,3.3,0,6.6,0,9.9-2,2.2-4.4,4.3-6.2,6.7-1.3,2.3-.3,5.5,2.3,6.5,1.9,1,3.8,1.9,5.7,2.8,1,3.8,1.8,7.7,2.9,11.5,1.2,2.7,5.2,3.3,7.2,1.2,2.6-2.8,5.7-8.7,5.7-8.7,0,0,8.8,1.6,12.4,1.5,2.1-.1,3.9-1.8,4-3.9.4-2.8-2.1-4.9-3.5-7.1-1.7-2.4-3.6-4.8-5.2-7.3,1.3-4.7,2.9-9.3,3.9-14.1,0-2.1-1.5-4.3-3.8-4.6-.3,0-.6-.1-.9-.1ZM36.7,20.1c-.9,3.9-2.2,7.8-3.4,12.2l-.6,2.1,1.2,1.8c1.8,2.7,3.7,5,5.3,7.3v-.2c.9,1.7,1.9,2.7,2.3,3.4,0,0,0,0,0,0-1.3,0-3.5-.2-5.6-.6-2.6-.4-4.7-.8-4.7-.8l-3.6-.7-1.7,3.2s-2.6,4.4-4.3,6.7c-.8-3.1-1.5-6.2-2.4-9.6l-.6-2.2-2-1c-2-.9-3.8-1.8-5.6-2.7,1.4-1.8,3.1-3.5,5-5.5l1.3-1.4v-2c0-3.1,0-6.2,0-9.3,1.4.9,3,2.2,5.2,3.7l2.5,1.7,2.7-1.4c1.9-1,3.7-2.1,5.5-3.1-.2,0-.2,0-.4.2l.4-.2c2.2-1,3-1.6,3.4-1.8h0Z"/>
    <path class="st13" d="M37.3,13.6c-2.4.1-4.3,1.9-6.4,2.9-1.8,1-3.6,2.1-5.5,3.1-2.2-1.5-4.2-3.4-6.5-4.7-.9-.3-1.9-.7-2.8-.3-2.3.3-3.4,2.5-3.2,4.6,0,3.3,0,6.6,0,9.9-2,2.2-4.4,4.3-6.2,6.7-1.3,2.3-.3,5.5,2.3,6.5,1.9,1,3.8,1.9,5.7,2.8,1,3.8,1.8,7.7,2.9,11.5,1.2,2.7,5.2,3.3,7.2,1.2,2.6-2.8,5.7-8.7,5.7-8.7,0,0,8.8,1.6,12.4,1.5,2.1-.1,3.9-1.8,4-3.9.4-2.8-2.1-4.9-3.5-7.1-1.7-2.4-3.6-4.8-5.2-7.3,1.3-4.7,2.9-9.3,3.9-14.1,0-2.1-1.5-4.3-3.8-4.6-.3,0-.6-.1-.9-.1ZM36.7,18.9c-.9,3.9-2.2,7.8-3.4,12.2l-.6,2.1,1.2,1.8c1.8,2.7,3.7,5,5.3,7.3v-.2c.9,1.7,1.9,2.7,2.3,3.4,0,0,0,0,0,0-1.3,0-3.5-.2-5.6-.6-2.6-.4-4.7-.8-4.7-.8l-3.6-.7-1.7,3.2s-2.6,4.4-4.3,6.7c-.8-3.1-1.5-6.2-2.4-9.6l-.6-2.2-2-1c-2-.9-3.8-1.8-5.6-2.7,1.4-1.8,3.1-3.5,5-5.5l1.3-1.4v-2c0-3.1,0-6.2,0-9.3,1.4.9,3,2.2,5.2,3.7l2.5,1.7,2.7-1.4c1.9-1,3.7-2.1,5.5-3.1-.2,0-.2,0-.4.2l.4-.2c2.2-1,3-1.6,3.4-1.8h0Z"/>
    <ellipse class="st13" cx="46.8" cy="11.4" rx="4.5" ry="4.5"/>
    <path class="st8" d="M32.1,0C14.5,0,.3,14.2.3,31.8s0,.3,0,.4C.7,14.9,14.7,1.1,32.1,1.1s31.3,13.8,31.7,31.1c0-.1,0-.3,0-.4C63.8,14.2,49.7,0,32.1,0Z"/>
  </g>
  <g class="st6">
    <path class="st2" d="M19.1,1.1h25.5c10.6,0,19.1,8.6,19.1,19.1v25.5c0,10.6-8.6,19.1-19.1,19.1h-25.5c-10.6,0-19.1-8.6-19.1-19.1v-25.5C0,9.7,8.6,1.1,19.1,1.1Z"/>
    <path class="st4" d="M19.1,0h25.5c10.6,0,19.1,8.6,19.1,19.1v25.5c0,10.6-8.6,19.1-19.1,19.1h-25.5C8.6,63.8,0,55.2,0,44.6v-25.5C0,8.6,8.6,0,19.1,0Z"/>
    <path class="st9" d="M13.7,7.8c0,4.1.6,8.4,2.8,11.9.7.9,1.9,2.6,3.1,3.2-1,1.6-1.9,3.3-2.6,5-1.7,3.8-2.9,7.9-3.7,12,.9-.7,1.9-3.2,2.8-4.6,3.1-5.5,6.1-11.1,9.3-16.6,1.6-2.6,3.1-5.2,4.7-7.8-2.7,2.7-5.5,5.5-7.9,8.5-3.4-.8-6.3-4.5-7.4-7.5-.5-1.3-.8-2.6-1.2-4ZM50.1,7.8c-.4,1.3-.7,2.7-1.2,4-1.1,3-4,6.7-7.3,7.5-2.4-3-5.2-5.8-7.9-8.5,1.6,2.6,3.1,5.2,4.7,7.8,3.2,5.5,6.1,11.1,9.3,16.6.9,1.4,1.9,3.9,2.8,4.6-.7-4.1-1.9-8.1-3.7-12-.7-1.8-1.6-3.5-2.6-5,1.2-.6,2.4-2.3,3.1-3.2,2.2-3.5,2.8-7.8,2.8-11.9ZM30.4,10.6c-5.3,9.8-10.6,19.5-15.8,29.3-.3,1,1.7-1,2.2-1.2,2.8-1.9,5.6-3.9,8.3-5.9.8-1.9,1-4.1,1.6-6.2,1.2-5.3,2.5-10.5,3.6-15.8v-.2ZM33.4,10.6v.2c1.1,5.3,2.4,10.5,3.6,15.8.6,2,.8,4.2,1.6,6.2,2.8,2,5.5,4,8.3,5.9.6.2,2.5,2.2,2.2,1.2-5.2-9.8-10.5-19.6-15.8-29.3ZM27.4,38.2c-2.5.8-5.2,1.7-6.7,3.9-.9,2.2.8,4.2,2.4,5.5,2,1.6,4.1,2.9,6.4,3.9-2-2.8-3.9-6.1-3.3-9.6.1-1.3.7-2.5,1.1-3.7ZM36.3,38.2c.5,1.2,1,2.4,1.1,3.7.6,3.6-1.3,6.9-3.3,9.6,2.3-1,4.5-2.4,6.4-3.9,1.6-1.3,3.3-3.3,2.4-5.5-1.5-2.2-4.2-3.1-6.7-3.9ZM11.4,44.3c0,1.1,1.5,3.1,2.1,4.5,1.6,3.1,3.1,6.3,4.7,9.4-.8-3.6-2-7.2-2.6-10.9,1.5-.9,3.1-1.5,4.6-2.3-2.9-.3-5.9-.5-8.8-.8ZM52.4,44.3c-2.9.3-5.9.5-8.8.8,1.6.7,3.2,1.4,4.6,2.3-.6,3.7-1.8,7.2-2.6,10.9,1.6-3.1,3.1-6.3,4.7-9.4.6-1.4,2.1-3.4,2.1-4.5Z"/>
    <path class="st21" d="M13.7,6.7c0,4.1.6,8.4,2.8,11.9.8,1.1,2.5,3.3,3.9,3.4.8-.9,2.4-2.7,2.1-3.7-3.5-.7-6.5-4.5-7.7-7.6-.5-1.3-.8-2.6-1.2-4Z"/>
    <path class="st24" d="M30.1,9.7c-5.1,5.1-10.4,10.3-13.1,17.1-1.7,3.8-2.9,7.9-3.7,12,.9-.7,1.9-3.2,2.8-4.6,3.1-5.5,6.1-11.1,9.3-16.6,1.6-2.6,3.1-5.2,4.7-7.8Z"/>
    <path class="st24" d="M30.4,9.4c-5.3,9.8-10.6,19.5-15.8,29.3-.3,1,1.7-1,2.2-1.2,2.8-1.9,5.6-3.9,8.3-5.9.8-1.9,1-4.1,1.6-6.2,1.2-5.3,2.5-10.5,3.6-15.8,0,0,0-.2,0-.2Z"/>
    <path class="st21" d="M27.4,37.1c-2.5.8-5.2,1.7-6.7,3.9-.9,2.2.8,4.2,2.4,5.5,2,1.6,4.1,2.9,6.4,3.9-2-2.8-3.9-6.1-3.3-9.7.1-1.3.7-2.5,1.1-3.7Z"/>
    <path class="st24" d="M11.4,43.2c0,1.1,1.5,3.1,2.1,4.5,1.6,3.1,3.1,6.3,4.7,9.4-.8-3.6-2-7.2-2.6-10.9,1.5-.9,3.1-1.5,4.6-2.3-2.9-.3-5.9-.5-8.8-.8Z"/>
    <path class="st21" d="M50.1,6.7c0,4.1-.6,8.4-2.8,11.9-.8,1.1-2.5,3.3-3.9,3.4-.8-.9-2.4-2.7-2.1-3.7,3.5-.7,6.5-4.5,7.7-7.6.5-1.3.8-2.6,1.2-4Z"/>
    <path class="st24" d="M33.7,9.7c5.1,5.1,10.4,10.3,13.1,17.1,1.7,3.8,2.9,7.9,3.7,12-.9-.7-1.9-3.2-2.8-4.6-3.1-5.5-6.1-11.1-9.3-16.6-1.6-2.6-3.1-5.2-4.7-7.8Z"/>
    <path class="st24" d="M33.4,9.4c5.3,9.8,10.6,19.5,15.8,29.3.3,1-1.7-1-2.2-1.2-2.8-1.9-5.6-3.9-8.3-5.9-.8-1.9-1-4.1-1.6-6.2-1.2-5.3-2.5-10.5-3.6-15.8v-.2Z"/>
    <path class="st21" d="M36.3,37.1c2.5.8,5.2,1.7,6.7,3.9.9,2.2-.8,4.2-2.4,5.5-2,1.6-4.1,2.9-6.4,3.9,2-2.8,3.9-6.1,3.3-9.7-.1-1.3-.7-2.5-1.1-3.7Z"/>
    <path class="st24" d="M52.4,43.2c0,1.1-1.5,3.1-2.1,4.5-1.6,3.1-3.1,6.3-4.7,9.4.8-3.6,2-7.2,2.6-10.9-1.5-.9-3.1-1.5-4.6-2.3,2.9-.3,5.9-.5,8.8-.8Z"/>
    <path class="st3" d="M19.1,0C8.5,0,0,8.5,0,19.1v1.1C0,9.7,8.5,1.1,19.1,1.1h25.5c10.6,0,19.1,8.5,19.1,19.1v-1.1C63.8,8.5,55.3,0,44.7,0h-25.5Z"/>
  </g>
  <g>
    <path class="st10" d="M38.9,25.1c-.8-4.9,2.4-14.6,2.4-14.6h-19.5s3.3,9.7,2.4,14.6c-1.8,10.6-15.7,28.1-15.7,28.1-.8,1.9.6,3.9,2.7,3.9h40.6c2.1,0,3.4-2.1,2.7-3.9,0,0-13.9-17.5-15.7-28.1Z"/>
    <path class="st0" d="M38.9,24.2c-.8-4.9,2.4-14.6,2.4-14.6h-19.5s3.3,9.7,2.4,14.6c-1.8,10.6-15.7,28.1-15.7,28.1-.8,1.9.6,3.9,2.7,3.9h40.6c2.1,0,3.4-2.1,2.7-3.9,0,0-13.9-17.5-15.7-28.1Z"/>
    <path class="st9" d="M43,13.1h-22.9c-1.6,0-2.9-1.2-2.9-2.6s1.3-2.6,2.9-2.6h22.9c1.6,0,2.9,1.2,2.9,2.6s-1.3,2.6-2.9,2.6Z"/>
    <path class="st20" d="M43,12.3h-22.9c-1.6,0-2.9-1.2-2.9-2.6s1.3-2.6,2.9-2.6h22.9c1.6,0,2.9,1.2,2.9,2.6s-1.3,2.6-2.9,2.6Z"/>
    <path class="st9" d="M27.9,28.9c-1.9,5.7-5.2,11.4-8.4,16.3-2.4,3.7-3.2,4.6-4.6,6.6h33.3c-1.4-1.9-2.2-2.8-4.6-6.5-3.2-4.9-6.5-10.5-8.4-16.3h-7.3Z"/>
    <path class="st28" d="M27.9,28.1c-1.9,5.7-5.2,11.4-8.4,16.3-2.4,3.7-3.2,4.6-4.6,6.6h33.3c-1.4-1.9-2.2-2.8-4.6-6.5-3.2-4.9-6.5-10.5-8.4-16.3h-7.3Z"/>
    <path class="st9" d="M30.8,39.6c0-.9-2.6,1.4-2.3-1.4.2-1.5,2.7-1.4,2.8-2.9,0-.6-1.1-.8-1.1-1.4,0-.8,1.6-3,1.6-3,0,0-.5,1.4-.3,2.1.2.5,1.4,1.4,1.5,1.9.2.7-1.2,1.1-.8,1.7.5.7,2.1-.1,2.5.6.6,1.4-2.8,5.3-2,4,0,0-.2-.9,1.7.6,1.7,1.4,3.4,4,1.5,5.8-1.9,1.8-5.5,1.7-8,.8-1.1-.4-2.1-3.4-1.8-4.3.6-2.6,4.5-2.5,4.6-4.5Z"/>
    <path class="st17" d="M30.8,38.7c0-.9-2.6,1.4-2.3-1.4.2-1.5,2.7-1.4,2.8-2.9,0-.6-1.1-.8-1.1-1.4,0-.8,1.6-3,1.6-3,0,0-.5,1.4-.3,2.1.2.5,1.4,1.4,1.5,1.9.2.7-1.2,1.1-.8,1.7.5.7,2.1-.1,2.5.6.6,1.4-2.8,5.3-2,4,0,0-.2-.9,1.7.6,1.7,1.4,3.4,4,1.5,5.8-1.9,1.8-5.5,1.7-8,.8-1.1-.4-2.1-3.4-1.8-4.3.6-2.6,4.5-2.5,4.6-4.5Z"/>
    <path class="st11" d="M20.1,7c-1.6,0-2.9,1.2-2.9,2.6s0,.3,0,.4c.2-1.2,1.4-2.2,2.8-2.2h22.9c1.4,0,2.6,1,2.8,2.2,0-.1,0-.3,0-.4,0-1.4-1.3-2.6-2.9-2.6h-22.9Z"/>
  </g>
</svg>