<?xml version="1.0" encoding="UTF-8"?>
<svg id="_图层_1" xmlns="http://www.w3.org/2000/svg" version="1.1" viewBox="0 0 64 64" width="22" height="22">
  <!-- Generator: Adobe Illustrator 29.0.1, SVG Export Plug-In . SVG Version: 2.1.0 Build 192)  -->
  <defs>
    <style>
      .st0 {
        fill: #0c91fa;
      }

      .st1, .st2, .st3, .st4, .st5, .st6 {
        display: none;
      }

      .st1, .st7 {
        fill: #3f3f3f;
      }

      .st8 {
        fill: #02355f;
      }

      .st9, .st10 {
        stroke: #fff;
      }

      .st9, .st10, .st11, .st12 {
        fill: none;
        stroke-linecap: round;
      }

      .st9, .st11 {
        stroke-width: 4px;
      }

      .st2, .st3, .st13, .st11, .st12, .st14, .st6 {
        isolation: isolate;
      }

      .st2, .st13, .st11, .st12, .st14, .st6 {
        opacity: .2;
      }

      .st3 {
        opacity: .1;
      }

      .st3, .st15, .st14, .st6 {
        fill: #fff;
      }

      .st10, .st12 {
        stroke-linejoin: bevel;
        stroke-width: 4px;
      }

      .st16 {
        fill: #2086e7;
      }

      .st4 {
        fill: #c2352a;
      }

      .st17 {
        fill: #39c713;
      }

      .st18 {
        fill: #034d87;
      }

      .st19 {
        fill: #0470c5;
      }

      .st11, .st12 {
        stroke: #000;
      }

      .st20 {
        fill: #14ddb1;
      }

      .st21 {
        fill: #5dec36;
      }

      .st22 {
        fill: #2d9d0e;
      }
    </style>
  </defs>
  <path class="st1" d="M50.3,64H13.8c-7.6,0-13.8-6.2-13.8-13.7V13.7C0,6.2,6.2,0,13.7,0h36.5c7.5,0,13.7,6.2,13.7,13.7v36.6c0,7.5-6.2,13.7-13.7,13.7h0Z"/>
  <g class="st5">
    <path class="st2" d="M0,60.5v2.3c0,1.9,1.5,3.5,3.4,3.5h57.2c1.9,0,3.4-1.6,3.4-3.5v-2.3c0,1.9-1.5,3.5-3.4,3.5H3.4c-1.9,0-3.4-1.6-3.4-3.5Z"/>
    <path class="st4" d="M3.4,0h57.2c1.9,0,3.4,1.6,3.4,3.5v58.2c0,1.9-1.5,3.5-3.4,3.5H3.4c-1.9,0-3.4-1.6-3.4-3.5V3.5C0,1.6,1.5,0,3.4,0Z"/>
    <path class="st3" d="M3.4,0C1.5,0,0,1.6,0,3.5v1.2C0,2.7,1.5,1.2,3.4,1.2h57.2c1.9,0,3.4,1.6,3.4,3.5v-1.2c0-1.9-1.5-3.5-3.4-3.5H3.4Z"/>
    <path class="st13" d="M11.7,13l11.2,11.5h18.3v18.6l11.4,11.6V13H11.7ZM22.9,27.1l-11.4,11.4v16.2h16.9l11.3-11.6h-16.7v-15.9Z"/>
    <path class="st15" d="M11.7,11.8l11.2,11.5h18.3v18.6l11.4,11.6V11.8H11.7ZM22.9,26l-11.4,11.4v16.2h16.9l11.3-11.6h-16.7v-15.9Z"/>
  </g>
  <g class="st5">
    <path class="st13" d="M8.4,33.1v5.1h6.4v18.7h38.4v-5.1h-6.4v-18.7H8.4Z"/>
    <path class="st0" d="M8.4,32.3v5.1h6.4v18.7h4.8v-18.7h4.8v-5.1h-16Z"/>
    <path class="st19" d="M19.6,37.4v18.7h11.2v-23.8h-6.4v5.1h-4.8Z"/>
    <path class="st18" d="M30.8,32.3v23.8h11.2v-23.8h-11.2Z"/>
    <path class="st8" d="M42,32.3v23.8h11.2v-5.1h-6.4v-18.7h-4.8Z"/>
    <path class="st13" d="M8.4,9.3v23.8h44.8v-5.9l-5.6-5.9,5.6-5.9v-5.9H8.4Z"/>
    <path class="st21" d="M8.4,32.3h16V8.5h-16v23.8Z"/>
    <path class="st17" d="M24.4,32.3h8.8v-5.9h8.8V8.5h-17.6v23.8Z"/>
    <path class="st22" d="M33.2,26.3v5.9h20v-5.9l-5.6-5.9,5.6-5.9v-5.9h-11.2v17.8h-8.8Z"/>
    <path class="st13" d="M14.8,14.4v9.3h2.4v-9.3h-2.4ZM32.4,14.4v9.3h2.4v-9.3h-2.4ZM14.8,26.3v6.8h2.4v-6.8h-2.4Z"/>
    <path class="st15" d="M14.8,13.6v9.3h2.4v-9.3h-2.4ZM32.4,13.6v9.3h2.4v-9.3h-2.4ZM14.8,25.5v6.8h2.4v-6.8h-2.4Z"/>
    <path class="st13" d="M24.4,39.9v10.2h2.4v-10.2h-2.4ZM35.6,39.9v10.2h2.4v-10.2h-2.4Z"/>
    <rect class="st15" x="24.4" y="39.1" width="2.4" height="10.2"/>
    <rect class="st15" x="35.6" y="39.1" width="2.4" height="10.2"/>
    <path class="st14" d="M8.4,8.5v.8h44.8v-.8H8.4ZM48,20.8l-.4.4,5.6,5.9v-.8l-5.2-5.5Z"/>
  </g>
  <g class="st5">
    <path class="st2" d="M4.8,1.1h54.5c2.7,0,4.8,2.1,4.8,4.8v54.3c0,2.6-2.2,4.8-4.8,4.8H4.8c-2.7,0-4.8-2.1-4.8-4.8V5.9C0,3.3,2.2,1.1,4.8,1.1Z"/>
    <path class="st1" d="M4.8,0h54.5c2.7,0,4.8,2.1,4.8,4.8v54.3c0,2.6-2.2,4.8-4.8,4.8H4.8c-2.7,0-4.8-2.1-4.8-4.8V4.8C0,2.1,2.2,0,4.8,0Z"/>
    <path class="st13" d="M34.1,9.7L15.2,42.2h7.8l15.3-26.3-4.3-6.2ZM38.1,21l-3.7,6.6,14.9,26h7.7l-18.8-32.6ZM33.2,31.3l-2,3.4c-1.6.8-2.6,2.4-2.6,4.1,0,.1,0,.2,0,.3l-1.8,3.1h3.3c.8.7,1.9,1.1,3,1.1,1.1,0,2.2-.4,3-1.1h3.3l-1.8-3.1c0-.1,0-.2,0-.4,0-1.8-1-3.4-2.6-4.1l-2-3.4ZM10.5,44.5l-3.5,6.8h37.7l-3.5-6.8H10.5Z"/>
    <path class="st15" d="M41.1,43.3l3.5,6.8H7l3.5-6.8h30.7Z"/>
    <path class="st15" d="M49.2,52.5l-14.9-26,3.7-6.6,18.8,32.6h-7.7Z"/>
    <ellipse class="st15" cx="33.2" cy="37.6" rx="4.6" ry="4.6"/>
    <path class="st15" d="M26.8,41.1l6.3-10.9,6.3,10.9h-12.7Z"/>
    <path class="st15" d="M23,41.1h-7.8L34.1,8.5l4.3,6.2-15.3,26.3Z"/>
    <path class="st3" d="M4.8,0C2.1,0,0,2.1,0,4.8v1.1C0,3.3,2.1,1.1,4.8,1.1h54.5c2.7,0,4.8,2.1,4.8,4.8v-1.1c0-2.7-2.1-4.8-4.8-4.8H4.8Z"/>
  </g>
  <g>
    <path class="st2" d="M3.2,65.3C1.4,65.3,0,63.8,0,62v-2.3C0,61.5,1.4,63,3.2,63h57.8c1.8,0,3.2-1.4,3.2-3.2v2.3c0,1.8-1.4,3.2-3.2,3.2H3.2Z"/>
    <path class="st20" d="M32.1,0H14.2C6.4,0,0,6.4,0,14.2v17.8h32.1V0Z"/>
    <path class="st16" d="M32.1,0h17.2c8.2,0,14.9,6.7,14.9,14.9v17.1h-32.1V0Z"/>
    <path class="st16" d="M32.1,64.1H14.7c-8.1,0-14.7-6.6-14.7-14.7v-17.4h32.1v32.1Z"/>
    <path class="st20" d="M32.1,64.1h17.1c8.3,0,15-6.7,15-15v-17.1h-32.1v32.1Z"/>
    <path class="st6" d="M3.2,0C1.4,0,0,1.4,0,3.2v1.1C0,2.6,1.4,1.1,3.2,1.1h57.8c1.8,0,3.2,1.4,3.2,3.2v-1.1c0-1.8-1.4-3.2-3.2-3.2H3.2Z"/>
    <rect class="st7" x="9.2" y="9.2" width="45.9" height="45.8"/>
    <path class="st12" d="M43.6,33.2s0,2.3-4.6,2.3-4.6-4.6-4.6-9.2,0-9.2,4.6-9.2,4.6,2.3,4.6,2.3"/>
    <path class="st10" d="M43.6,32.1s0,2.3-4.6,2.3-4.6-4.6-4.6-9.2,0-9.2,4.6-9.2,4.6,2.3,4.6,2.3"/>
    <path class="st12" d="M16.1,28.6h9.2M16.1,35.5v-13.7M25.2,35.5v-13.7M16.1,21.8s0-4.6,4.6-4.6,4.6,4.6,4.6,4.6"/>
    <path class="st10" d="M16.1,27.5h9.2M16.1,34.3v-13.7M25.2,34.3v-13.7M16.1,20.6s0-4.6,4.6-4.6,4.6,4.6,4.6,4.6"/>
    <path class="st11" d="M16.1,49.2h18.4"/>
    <path class="st9" d="M16.1,48.1h18.4"/>
  </g>
</svg>