<?xml version="1.0" encoding="UTF-8"?>
<svg id="_图层_1" xmlns="http://www.w3.org/2000/svg" version="1.1" xmlns:xlink="http://www.w3.org/1999/xlink" viewBox="0 0 64 64" width="22" height="22">
  <!-- Generator: Adobe Illustrator 29.0.1, SVG Export Plug-In . SVG Version: 2.1.0 Build 192)  -->
  <defs>
    <style>
      .st0 {
        fill: #4f4f4f;
      }

      .st1 {
        fill: #e33e31;
      }

      .st2, .st3, .st4, .st5 {
        display: none;
      }

      .st2, .st3, .st6, .st7, .st8, .st9 {
        isolation: isolate;
      }

      .st2, .st7, .st8 {
        opacity: .2;
      }

      .st3 {
        opacity: .1;
      }

      .st3, .st10, .st8 {
        fill: #fff;
      }

      .st4 {
        fill: #795548;
      }

      .st6 {
        fill: none;
        opacity: .5;
        stroke: #fff;
        stroke-linecap: round;
        stroke-linejoin: round;
        stroke-width: 5.6px;
      }

      .st11 {
        fill: #e4be21;
      }

      .st12 {
        fill: #3c8cf8;
      }

      .st9 {
        fill: url(#_未命名的渐变_2);
        opacity: .2;
      }
    </style>
    <linearGradient id="_未命名的渐变_2" data-name="未命名的渐变 2" x1="150" y1="-135.1" x2="153.3" y2="-136.5" gradientTransform="translate(-274 -237) scale(2 -2)" gradientUnits="userSpaceOnUse">
      <stop offset="0" stop-color="#000"/>
      <stop offset="1" stop-color="#000" stop-opacity="0"/>
    </linearGradient>
  </defs>
  <path class="st10" d="M50.4,64H13.8c-7.6,0-13.8-6.2-13.8-13.7V13.7C0,6.2,6.2,0,13.7,0h36.6c7.5,0,13.7,6.2,13.7,13.7v36.6c0,7.5-6.2,13.7-13.7,13.7h.1Z"/>
  <g class="st5">
    <ellipse class="st2" cx="32" cy="32.6" rx="32" ry="31.4"/>
    <ellipse class="st4" cx="32" cy="31.4" rx="32" ry="31.4"/>
    <path class="st10" d="M20.9,29.3c-.5-.3-.4-1.4.6-2.3,1.4-1.4,2.9-1.5,3.6-.7.3.2,1.2,1.3,1.2,1.3l4.5-4.4-1.1-1.3c-1.4-1.3,0-2.6,0-2.6,3.8-3.7,8.9-4.2,8.9-4.2v-.7c-10.7-2.7-14.5,1.9-16,3.3-1.4,1.3-2.8,2.7-3.1,3-.8.7,0,2.9-1.1,4.1-.5.5-1.2.7-1.8.7l4.1,3.8Z"/>
    <path class="st10" d="M14.2,26.3l1.2-1.2c.6-.6,1.7-.6,2.3,0l3.5,3.5c.6.6.6,1.7,0,2.3l-1.2,1.2c-.6.6-1.7.6-2.3,0l-3.5-3.5c-.6-.6-.6-1.7,0-2.3Z"/>
    <path class="st6" d="M26.4,22.8l20.7,23.4"/>
    <path class="st3" d="M32,0C14.3,0,0,14.1,0,31.4c0,.2,0,.4,0,.6C.4,14.9,14.6,1.1,32,1.1c17.3,0,31.5,13.6,32,30.6,0,0,0-.2,0-.3C64,14.1,49.7,0,32,0Z"/>
    <path class="st7" d="M37.9,15.2c-1.7.3-5.1,1.3-7.9,4,0,0-1,.9-.5,2,.2-.5.5-.8.5-.8,3.8-3.7,8.9-4.2,8.9-4.2v-.7c-.3,0-.6-.2-1-.2ZM24.1,25.8c-.7,0-1.7.3-2.5,1.2-.4.4-.7.8-.8,1.1l.4.4c.1-.1.2-.3.4-.4,1.4-1.4,2.9-1.5,3.6-.7,0,0,.2.2.4.4l19.1,21.7c1.1,1.3,3.2,1.4,4.5.3.8-.7,1.2-1.8,1-2.9-.1.7-.5,1.3-1,1.8-1.3,1.1-3.3,1-4.5-.3l-19.1-21.7c-.2-.2-.3-.3-.4-.4-.3-.3-.6-.4-1.1-.5ZM13.8,28c-.2.6,0,1.2.4,1.7l3.5,3.5c.6.6,1.7.6,2.3,0l1.2-1.2c.5-.5.6-1.1.4-1.7,0,.2-.2.4-.4.6l-1.2,1.2c-.6.6-1.7.6-2.3,0l-3.5-3.5c-.2-.2-.3-.4-.4-.6Z"/>
  </g>
  <g>
    <path class="st7" d="M23.4,38.7l-1.1,2h9.7v-2h-8.6Z"/>
    <path class="st7" d="M25,10.7l7,12,7-12h-1.2l-5.8,10-5.8-10h-1.2ZM5.1,46.7l-1.1,2h14l-1.2-2H5.1ZM47.2,46.7l-1.2,2h14l-1.1-2s-11.7,0-11.7,0Z"/>
    <path class="st0" d="M4,47.7h14l14-26,14,26h14L39,9.7h-14L4,47.7Z"/>
    <path class="st8" d="M25,9.7L4,47.7h.6L25,10.7h14l20.4,37h.6L39,9.7h-14Z"/>
    <path class="st1" d="M10.6,35.7l7.4,12H4l6.6-12Z"/>
    <path class="st11" d="M53.4,35.7l6.6,12h-14l7.4-12Z"/>
    <path class="st12" d="M32,21.7l7-12h-14l7,12Z"/>
    <path class="st0" d="M28.8,27.7l-6.5,12h9.7v-12h-3.2Z"/>
    <path class="st9" d="M28.8,27.7l-6.5,12h9.7v-12h-3.2Z"/>
    <path class="st8" d="M28.8,27.7l-6.5,12h.5l5.9-11h3.2v-1h-3.2Z"/>
    <path class="st8" d="M25,9.7l.6,1h12.8l.6-1h-14ZM10.6,35.7l-6.6,12h.6l6.1-11h0s.3-.5.3-.5l-.3-.5ZM53.4,35.7l-.3.5.3.5h0s6.1,11,6.1,11h.6l-6.6-12ZM11.5,37.1l-.3.5,6.2,10h.6l-6.5-10.6ZM52.5,37.1l-6.5,10.6h.6l6.2-10-.3-.5Z"/>
  </g>
</svg>