<?xml version="1.0" encoding="UTF-8"?>
<svg id="_图层_1" xmlns="http://www.w3.org/2000/svg" version="1.1" xmlns:xlink="http://www.w3.org/1999/xlink" viewBox="0 0 200 200" width="22" height="22">
  <!-- Generator: Adobe Illustrator 29.0.1, SVG Export Plug-In . SVG Version: 2.1.0 Build 192)  -->
  <defs>
    <style>
      .st0 {
        fill: #f3e517;
      }

      .st0, .st1 {
        fill-rule: evenodd;
      }

      .st2 {
        fill: #ff8802;
      }

      .st3, .st4 {
        fill: #fff;
      }

      .st1 {
        fill: #ff0101;
      }

      .st5 {
        fill: #3ddc84;
      }

      .st6 {
        opacity: .1;
      }

      .st6, .st7, .st4 {
        isolation: isolate;
      }

      .st8 {
        fill: #ffc802;
      }

      .st9 {
        fill: url(#_未命名的渐变);
      }

      .st10 {
        fill: #00c;
      }

      .st7, .st4 {
        opacity: .2;
      }

      .st11 {
        display: none;
      }

      .st12 {
        fill: #e7521d;
      }

      .st13 {
        fill: url(#_未命名的渐变_2);
      }

      .st14 {
        fill: #ff7901;
      }
    </style>
    <linearGradient id="_未命名的渐变" data-name="未命名的渐变" x1="68.5" y1="95.9" x2="130.1" y2="95.9" gradientTransform="translate(0 202) scale(1 -1)" gradientUnits="userSpaceOnUse">
      <stop offset="0" stop-color="#6aa5ff"/>
      <stop offset="1" stop-color="#3f76ff"/>
    </linearGradient>
    <linearGradient id="_未命名的渐变_2" data-name="未命名的渐变 2" x1="88.2" y1="96" x2="110.4" y2="96" gradientTransform="translate(0 202) scale(1 -1)" gradientUnits="userSpaceOnUse">
      <stop offset="0" stop-color="#6aa5ff"/>
      <stop offset="1" stop-color="#3f76ff"/>
    </linearGradient>
  </defs>
  <path class="st3" d="M157.3,200H43.3c-23.5,0-42.7-19.3-42.7-42.8V43c0-23.5,19.2-42.8,42.7-42.8h114c23.5,0,42.7,19.3,42.7,42.8v114.2c0,23.5-19.2,42.8-42.7,42.8h0Z"/>
  <g class="st11">
    <path class="st3" d="M184.1,110.5c0-12.2-5.3-23.8-14.6-31.9-9.1-7.9-21.3-11.4-33.4-9.5-4.4-15.7-17.6-27.6-34.1-30.7-16.3-2.8-32.9,3.9-42.3,17.2-5.6,7.8-8.6,17.1-8.4,26.7-18.3,3.4-30.9,19.7-29.2,37.8,1.1,18,16.3,32.2,34.8,32.5h90.3c.9,0,1.8-.2,2.5-.6,20.1-4,34.5-21.3,34.2-41.3l.2-.2Z"/>
  </g>
  <g class="st11">
    <path class="st9" d="M120.9,79.8h-43.1c-5.1,0-9.3,4.3-9.3,9.5v33.5c0,5.2,4.2,9.5,9.3,9.5h43.1c5.1,0,9.3-4.3,9.3-9.5v-33.5c0-5.2-4.2-9.5-9.3-9.5ZM72.2,107.9h4.5v6.8h-4.5v-6.8ZM76.7,104.1h-4.5v-6.8h4.5v6.8ZM80.4,83.6h37.8v44.9h-37.8s0-44.9,0-44.9ZM126.4,104.1h-4.5v-6.8h4.5v6.8ZM121.9,107.9h4.5v6.8h-4.5v-6.8ZM126.4,89.3v4.3h-4.5v-9.9c2.6.5,4.5,2.8,4.5,5.6ZM76.7,83.7v9.9h-4.5v-4.3c0-2.8,2-5.1,4.5-5.6ZM72.2,122.8v-4.3h4.5v9.9c-2.6-.5-4.5-2.8-4.5-5.6ZM121.9,128.4v-9.9h4.5v4.3c0,2.8-2,5.1-4.5,5.6Z"/>
    <path class="st13" d="M108.2,102.2l-13.5-8c-1.3-.8-3-.8-4.3,0s-2.2,2.2-2.2,3.8v16.1c0,1.6.8,3,2.2,3.8s1.4.6,2.2.6,1.5-.2,2.2-.6l13.5-8c1.3-.8,2.2-2.2,2.2-3.8s-.8-3-2.2-3.8h0ZM106.4,106.6l-13.5,8c-.3.2-.5,0-.6,0s-.3-.2-.3-.5v-16.1c0-.3.2-.5.3-.5h.6l13.5,8c.3.2.3.4.3.5s0,.4-.3.5h0Z"/>
  </g>
  <g class="st11">
    <path class="st7" d="M72.5,36.7c-1.2,0-2.1.8-2.2,1.8,0,.4,0,.7.3,1l7.2,10.1c-12.6,6.7-20.2,18.7-20.2,31.5,0,20.5,19,37.1,42.4,37.1h0c23.4,0,42.4-16.6,42.4-37.1h0c0-12.9-7.7-24.8-20.2-31.5l7.2-10.1c.6-.9.3-2-.6-2.6-.4-.2-.8-.3-1.2-.3-.7,0-1.4.4-1.8.9l-7.3,10.3c-5.7-2.4-12.1-3.7-18.5-3.7s-12.7,1.3-18.5,3.7l-7.3-10.2c-.4-.5-1-.9-1.8-.9h.1Z"/>
    <path class="st7" d="M165,155.3H48c-7.2,0-13-5.1-13.1-11.3v-79.1c0,6.6,6.4,11.8,13.9,11.4h97c7.8,0,19.1-.4,19.1,12.5v66.6h0Z"/>
    <path class="st2" d="M82.7,54h-34.9c-7.1,0-12.8,4.4-12.8,9.9-.2,5.3,5.2,9.7,12,9.9h36l-.4-19.8h0Z"/>
    <path class="st7" d="M47.8,54c-7.1,0-12.8,4.4-12.8,9.9v1.4c.7-5,6.2-8.8,12.7-8.8h34.9l.3,17.3h0l-.4-19.8h-34.9.2Z"/>
    <path class="st5" d="M72.5,31.7c-1.2,0-2.1.8-2.2,1.8,0,.4,0,.7.3,1l7.2,10.1c-12.6,6.7-20.2,18.7-20.2,31.5,0,20.5,19,37.1,42.4,37.1s42.4-16.6,42.4-37.1-7.7-24.8-20.2-31.5l7.2-10.1c.6-.9.3-2-.6-2.6-.4-.2-.8-.3-1.2-.3-.7,0-1.4.4-1.8.9l-7.3,10.3c-5.7-2.4-12.1-3.7-18.5-3.7s-12.7,1.3-18.5,3.7l-7.3-10.2c-.4-.5-1-.9-1.8-.9h.1Z"/>
    <path class="st4" d="M72.5,31.7c-1.2,0-2.1.8-2.2,1.8,0,.4,0,.7.3,1l.2.3c.4-.4,1-.7,1.7-.6.7,0,1.4.4,1.8.9l7.3,10.2c5.8-2.4,12.1-3.7,18.5-3.7s12.7,1.3,18.5,3.7l7.3-10.3c.4-.5,1-.9,1.8-.9s1.2.2,1.7.6l.2-.3c.6-.9.3-2-.6-2.6-.4-.2-.8-.3-1.2-.3-.7,0-1.4.4-1.8.9l-7.3,10.3c-5.7-2.4-12.1-3.7-18.5-3.7s-12.7,1.3-18.5,3.7l-7.3-10.2c-.4-.5-1-.9-1.8-.9h0ZM123.4,45.4l-1.2,1.7c12.2,6.6,19.8,18,20.2,30.5v-1.5c0-12.4-7.2-24-19-30.8h0ZM76.6,45.4c-11.8,6.8-19,18.4-19,30.8v1.1c.5-12.4,8.1-23.7,20.2-30.2,0,0-1.2-1.7-1.2-1.7Z"/>
    <path class="st8" d="M165,152.8H48c-7.2,0-13-5.1-13.1-11.3V62.4c0,6.6,6.4,11.8,13.9,11.4h97c7.8,0,19.1-.4,19.1,12.5v66.6h0Z"/>
    <path class="st7" d="M84.7,56.4c-1.3,0-2.5.5-3.2,1.3-1.6,1.4-1.6,3.6,0,5,.8.7,1.8,1.1,2.9,1.1s2.1-.4,2.9-1c1.8-1.3,2-3.5.6-5.1-.8-.8-1.9-1.3-3.1-1.3h-.1ZM115.6,56.4c-1.1,0-2.3.4-3.1,1.1-1.7,1.4-1.7,3.8,0,5.2.8.7,1.9,1.1,3.1,1.1,2.3,0,4.2-1.6,4.2-3.7h0c0-2-1.9-3.7-4.2-3.7Z"/>
    <path class="st3" d="M115.6,61.4c-2.3,0-4.2-1.6-4.3-3.6,0-1,.4-2,1.3-2.7,1.7-1.5,4.4-1.4,6,0,.8.7,1.2,1.6,1.2,2.6,0,2-1.9,3.7-4.2,3.7"/>
    <path class="st12" d="M104.3,99.8c-3.9,0-7.1,2.7-7.1,6.1s3.1,6.2,6.9,6.3c1,0,2-.2,2.9-.5,3.6-1.3,5.3-4.8,3.9-8-1.1-2.4-3.7-4-6.6-3.9Z"/>
    <path class="st3" d="M84.3,61.4c-2.2,0-4.1-1.6-4.1-3.5s.4-1.9,1.2-2.6c1.4-1.5,4-1.8,5.8-.5s2,3.5.6,5.1c-.2.2-.4.3-.6.5-.8.7-1.8,1-2.9,1"/>
    <path class="st6" d="M100,91c-1.6,0-2.8,1.1-2.8,2.5h0v2.7c-6.6,1.2-11.3,6.2-11.3,12.1s1.8,7.1,5,9.4l-26.9,49.2c-1.1,1.8-.9,4,.5,5.6,1.4,1.7,3.7,2.6,6.2,2.4,2.4-.2,4.5-1.5,5.5-3.3l18.9-33.3c.9-1.5,2.8-2.6,4.9-2.6h.4c2.1,0,4,1,4.9,2.6l18.9,33.3c1,1.9,3.1,3.1,5.5,3.3s4.8-.7,6.2-2.4,1.6-3.8.5-5.6l-26.9-49.2c3.2-2.3,5-5.8,5-9.4,0-5.9-4.7-10.9-11.3-12.1v-2.7c0-1.4-1.2-2.5-2.8-2.5h-.4ZM100,100.9c4.7,0,8.5,3.3,8.5,7.4h0c0,4.1-3.8,7.4-8.5,7.4s-8.5-3.3-8.5-7.4,3.8-7.4,8.5-7.4Z"/>
    <path class="st2" d="M100,88.5c-1.6,0-2.8,1.1-2.8,2.5h0v2.7c-6.6,1.2-11.3,6.2-11.3,12.1s1.8,7.1,5,9.4l-26.9,49.2c-1.1,1.8-.9,4,.5,5.6,1.4,1.7,3.7,2.6,6.2,2.4,2.4-.2,4.5-1.5,5.5-3.3l18.9-33.3c.9-1.5,2.8-2.6,4.9-2.6h.4c2.1,0,4,1,4.9,2.6l18.9,33.3c1,1.9,3.1,3.1,5.5,3.3s4.8-.7,6.2-2.4,1.6-3.8.5-5.6l-26.9-49.2c3.2-2.3,5-5.8,5-9.4,0-5.9-4.7-10.9-11.3-12.1v-2.7c0-1.4-1.2-2.5-2.8-2.5h-.4ZM100,98.4c4.7,0,8.5,3.3,8.5,7.4h0c0,4.1-3.8,7.4-8.5,7.4h0c-4.7,0-8.5-3.3-8.5-7.4h0c0-4.1,3.8-7.4,8.5-7.4Z"/>
    <path class="st7" d="M153.8,96h-5.1c-.4,0-.6.2-.6.6v73c0,.3.3.6.6.6h5.3c6.1,0,11.1-4.6,11.1-10.2v-74.5c0,5.7-5,10.7-11.2,10.6h-.1Z"/>
    <path class="st2" d="M153.8,93.5h-5.1c-.4,0-.6.2-.6.6v73c0,.3.3.6.6.6h5.3c6.1,0,11.1-4.6,11.1-10.2v-74.5c0,5.7-5,10.7-11.2,10.6h-.1Z"/>
  </g>
  <g id="g8117">
    <path id="path3178" class="st0" d="M96.6,66.1c-2.7,6.5-5.4,17.3-8.6,4.9-2.4-8.8-7.5,5.5-11.2,8-7.5,5.4-11.7,13-15,21.2-8.8-7.1-5.5,4.3-6.1,9.9.5,8.4-1,17.5.7,25.4,7,5.8,12.1,14.9,22.5,14.8,7.1,2.3,6.2-7.9,12.7.6,5.9,7.7,9.6,3.2,13.5-.6,5.7,8.2,7.4-9.9,12.2-1.7,7.4,2.7,14,4,15.2-5.2,1.5-7.3,14.8-7.5,11.7-16.3-.4-9.1.9-18.9-.6-27.6-5-3.7-8.9-12.3-14.6-13-7.1,3.3-4.3-11.1-7.3-15.3-1-11.1-3.5-6.1-6.2,1.5-1.5,11-7.8,5.7-11.1-1.4-2.9-2.3-6.2-14.4-7.9-5.1Z"/>
    <g id="g3305">
      <g id="g3122">
        <path id="path3128" class="st14" d="M59.3,124.8l2.4,2.3,3.6,11.3,1.2-13.6,3.6,17v-21.6l2.4,5.7,3.6,15.9v-21.6l2.4,2.3,3.6,19.3,3.6-26.1,7.9,29.4.5-18.1,2.4-6.8,2.4,28.4,7.2-28.4,2.4,23.8,6-25,6,27.2,1.2-20.4,3.6-6.8,1.2,26.1,6-25,3.6,11.3,1.2-10.2,3.6,6.8v-21.6l-3.6,9.1-1.2-19.3-2.4,14.7-2.4-4.5-1.2-15.9-6,21.6-1.2-4.5-3.6-34-3.6,29.5-2.4,9.1-4.8-30.6-4.8,26.1-2.4,6.8-1.2-46.9-7.2,52.5-7.2-47.6-3.6,40.8-2.4-4.5-2.4-27.2-1.2,27.2-3.6,7.9-2.4-27.2-2.4,21.6-3.6-5.7v15.9l-4.8-17v20.4Z"/>
        <path id="path3118" class="st1" d="M84.5,99.9l-1.4,2.2-1,11.4-2.4-4.5v-1.3c-.1,0-2.4,3.6-2.4,3.6l-1.5-1.7-3.3,7.3-1.1-12.3h-.1c0-.1-3.6,10.1-3.6,10.1l-3.6-2.1v8.9l-3-10.7-1.8-1v15.2l1.9,1.8,4.1-.6,1,1.4.2-2.5.9,4.1.3.5,2.4-2.8v-6.2l1.8,4.2.6-.8,3.6,4.3v-7.7l2.4,2.3v.6c.1,0,1.2-5.1,1.2-5.1l4.7,6.7,1.2-9,2,7.5,3.9-1.9,2.3,10.7v-5.1c.1,0,2.5-6.8,2.5-6.8l1.1,12.6,3.7-9.2,2.9,4.1,1.9-7.5.7,7.1,1.7-7.1,4.3,6.1,1.7-7.2,2.1,9.5,3.9-8.3,1.2,5.7,2.2-4.3v-1.4c.1,0,.6.2.6.2l.7-1.4v1.7c0,0,3.6,1.7,3.6,1.7l2.8.9.8-3.2,1.2,3.8,2.4.8.9-.6.3-2.8,1,1.9,2.6-1.9v-9.1l-1.6-1.5-2,4.9-.4-7.2-2.3-2.2-.8,4.9-2-3.8-4,3.8-1.8-5.2-1.8,6.3-1.2-4.5-.4-4-4.4,7.4-2.2-9.2-.2,1.3-2.4,9.1-1.6-10.5-4.3,8.2-2.6-7.9-1,5.6-2.4,6.8-.4-14c-1.4,4.8-3.2,11-3.2,11.8s-1.9-3.8-2.9-6.2l-1.9,14.1-1.9-12.7-1.7-3.2-2.4,9.1-2.4-13.6Z"/>
      </g>
    </g>
    <g id="g2792">
      <path id="path4161" class="st10" d="M100,30.5c-15.9,0-30.3,4.7-41,12.6-10.7,7.9-17.6,19.2-17.6,31.7v4.5c-10.6,5.1-17.9,18.4-17.9,34.1,0,20,12,36.3,27.5,36.3v-74.9c0-9.4,5.1-18.1,13.9-24.6,8.8-6.5,21.2-10.7,35.1-10.7s26.3,4.2,35.1,10.7,13.9,15.2,13.9,24.6v74.9c15.5,0,27.5-16.3,27.5-36.3s-7.3-29-17.9-34.1v-4.5c0-12.6-6.9-23.8-17.6-31.7-10.7-7.9-25.1-12.6-41-12.6Z"/>
      <path id="path4159" class="st10" d="M54.6,78.3v71.5c2.4,0,4.8-1.1,6-3.4v-65.8c-1.2-1.1-3.6-2.3-6-2.3Z"/>
      <path id="path2127" class="st10" d="M145.4,78.3c-2.4,0-4.8,1.1-6,2.3v65.8c1.2,2.3,3.6,3.4,6,3.4v-71.5Z"/>
    </g>
  </g>
</svg>