<?xml version="1.0" encoding="UTF-8"?>
<svg id="_图层_1" xmlns="http://www.w3.org/2000/svg" version="1.1" viewBox="0 0 64 64" width="22" height="22">
  <!-- Generator: Adobe Illustrator 29.0.1, SVG Export Plug-In . SVG Version: 2.1.0 Build 192)  -->
  <defs>
    <style>
      .st0, .st1, .st2, .st3, .st4, .st5 {
        display: none;
      }

      .st0, .st1, .st6, .st7, .st8, .st5 {
        isolation: isolate;
      }

      .st0, .st7, .st8, .st5 {
        opacity: .2;
      }

      .st1, .st6 {
        opacity: .1;
      }

      .st1, .st8, .st5 {
        fill: #fff;
      }

      .st2 {
        fill: #656565;
      }

      .st9 {
        fill: #8e8e8e;
      }

      .st3, .st10 {
        fill: #c2352a;
      }

      .st11 {
        fill: #999;
      }

      .st12 {
        fill: #ccc;
      }

      .st13 {
        fill: #fefdfe;
      }

      .st14 {
        fill: #d9d9d9;
      }
    </style>
  </defs>
  <path class="st10" d="M50.3,64H13.8C6.2,64,0,57.8,0,50.3V13.7c0-7.5,6.2-13.7,13.7-13.7h36.5c7.5,0,13.7,6.2,13.7,13.7v36.6c0,7.5-6.2,13.7-13.7,13.7h0Z"/>
  <g class="st4">
    <path class="st0" d="M3.3,1.2h57.5c1.8,0,3.2,1.4,3.2,3.2v57.6c0,1.8-1.4,3.2-3.2,3.2H3.3c-1.8,0-3.2-1.4-3.2-3.2V4.4C0,2.6,1.5,1.2,3.3,1.2Z"/>
    <path class="st2" d="M3.3,0h57.5c1.8,0,3.2,1.4,3.2,3.2v57.6c0,1.8-1.4,3.2-3.2,3.2H3.3c-1.8,0-3.2-1.4-3.2-3.2V3.2C0,1.4,1.5,0,3.3,0Z"/>
    <path class="st7" d="M10.1,8h43.9c1.7,0,3.1,1.4,3.1,3.1v44c0,1.7-1.4,3.1-3.1,3.1H10.1c-1.7,0-3.1-1.4-3.1-3.1V11.2c0-1.7,1.4-3.1,3.1-3.1Z"/>
    <path class="st14" d="M10.1,6.9h43.9c1.7,0,3.1,1.4,3.1,3.1v44c0,1.7-1.4,3.1-3.1,3.1H10.1c-1.7,0-3.1-1.4-3.1-3.1V10c0-1.7,1.4-3.1,3.1-3.1Z"/>
    <ellipse class="st6" cx="32" cy="33.2" rx="13.7" ry="13.7"/>
    <ellipse class="st9" cx="32" cy="32" rx="13.7" ry="13.7"/>
    <ellipse class="st7" cx="32" cy="33.2" rx="5.7" ry="5.7"/>
    <ellipse class="st14" cx="32" cy="32" rx="5.7" ry="5.7"/>
    <path class="st7" d="M34.8,18.6l-1.6,5.9,1.5.4,1.6-5.9-1.5-.4ZM29.2,18.6l-1.5.4,1.6,5.9,1.5-.4-1.6-5.9ZM41.2,21.8l-4.3,4.3,1.1,1.1,4.3-4.3-1.1-1.1ZM22.9,21.8l-1.1,1.1,4.3,4.3,1.1-1.1-4.3-4.3ZM45.1,27.7l-5.9,1.6.4,1.5,5.9-1.6-.4-1.5ZM19,27.7l-.4,1.5,5.9,1.6.4-1.5-5.9-1.6ZM39.6,33.3l-.4,1.5,5.9,1.6.4-1.5-5.9-1.6ZM24.5,33.3l-5.9,1.6.4,1.5,5.9-1.6-.4-1.5ZM37.9,36.9l-1.1,1.1,4.3,4.3,1.1-1.1-4.3-4.3ZM26.1,36.9l-4.3,4.3,1.1,1.1,4.3-4.3-1.1-1.1ZM34.7,39.2l-1.5.4,1.6,5.9,1.5-.4-1.6-5.9ZM29.3,39.2l-1.6,5.9,1.5.4,1.6-5.9-1.5-.4Z"/>
    <path class="st6" d="M5.2,17.2h3.4c.9,0,1.7.7,1.7,1.6v9.4c0,.9-.8,1.6-1.7,1.6h-3.4c-.9,0-1.7-.7-1.7-1.6v-9.4c0-.9.8-1.6,1.7-1.6Z"/>
    <path class="st9" d="M5.2,16h3.4c.9,0,1.7.7,1.7,1.6v9.4c0,.9-.8,1.6-1.7,1.6h-3.4c-.9,0-1.7-.7-1.7-1.6v-9.4c0-.9.8-1.6,1.7-1.6Z"/>
    <path class="st6" d="M5.2,36.6h3.4c.9,0,1.7.7,1.7,1.6v9.4c0,.9-.8,1.6-1.7,1.6h-3.4c-.9,0-1.7-.7-1.7-1.6v-9.4c0-.9.8-1.6,1.7-1.6Z"/>
    <path class="st9" d="M5.2,35.5h3.4c.9,0,1.7.7,1.7,1.6v9.4c0,.9-.8,1.6-1.7,1.6h-3.4c-.9,0-1.7-.7-1.7-1.6v-9.4c0-.9.8-1.6,1.7-1.6Z"/>
    <path class="st1" d="M3.3,0C1.5,0,0,1.4,0,3.2v1.1C0,2.6,1.5,1.2,3.3,1.2h57.5c1.8,0,3.2,1.4,3.2,3.2v-1.1c0-1.8-1.4-3.2-3.2-3.2H3.3Z"/>
    <path class="st8" d="M10.1,6.9c-1.7,0-3.1,1.4-3.1,3.1v1.1c0-1.7,1.4-3.1,3.1-3.1h43.9c1.7,0,3.1,1.4,3.1,3.1v-1.1c0-1.7-1.4-3.1-3.1-3.1H10.1Z"/>
    <path class="st8" d="M32,26.3c-3.2,0-5.7,2.6-5.7,5.7,0,.2,0,.4,0,.6.3-2.9,2.8-5.1,5.7-5.1,2.9,0,5.4,2.2,5.7,5.2,0-.2,0-.4,0-.6,0-3.2-2.6-5.7-5.7-5.7Z"/>
  </g>
  <g class="st4">
    <path class="st7" d="M27.1,36.9v1.6h1.6v-1.6h-1.6ZM31.8,40v1.6h1.6v-1.6h-1.6ZM22.4,43.1v1.6h1.6v-1.6h-1.6ZM36.5,43.1v1.6h1.6v-1.6h-1.6ZM17.7,46.3v1.6h1.6v-1.6h-1.6ZM41.2,46.3v1.6h1.6v-1.6h-1.6ZM46,47.8v1.6h1.6v-1.6h-1.6ZM47.5,49.4v1.6h6.3l-.8-1.6h-5.5ZM46,49.4h-3.1v1.6h3.1v-1.6ZM10.6,49.4l-.8,1.6h7.8v-1.6h-7.1ZM19.3,49.4v1.6h3.1v-1.6h-3.1ZM24,49.4v1.6h3.1v-1.6h-3.1ZM28.7,49.4v1.6h3.1v-1.6h-3.1ZM33.4,49.4v1.6h3.1v-1.6h-3.1ZM38.1,49.4v1.6h3.1v-1.6h-3.1Z"/>
    <path class="st10" d="M31.8,6.5l-11,21.8-11,21.8h7.8v-3.1h1.6v3.1h3.1v-6.2h1.6v6.2h3.1v-12.5h1.6v12.5h3.1v-9.3h1.6v9.3h3.1v-6.2h1.6v6.2h3.1v-3.1h1.6v3.1h3.1v-1.6h1.6v1.6h6.3l-11-21.8L31.8,6.5Z"/>
    <path class="st8" d="M31.8,6.5l-11,21.8-11,21.8h.4l10.6-21L31.8,7.3l11,21.8,10.6,21h.4l-11-21.8L31.8,6.5Z"/>
  </g>
  <g>
    <path class="st0" d="M5.3,65.4C2.3,65.4,0,62.7,0,59.3v-9.9h63.9v9.9c0,3.4-2.3,6.1-5.3,6.1H5.3Z"/>
    <path class="st3" d="M5.3,0C2.3,0,0,2.8,0,6.2v41.9h63.9V6.2c0-3.4-2.3-6.1-5.3-6.1H5.3Z"/>
    <path class="st5" d="M5.3,0C2.3,0,0,2.8,0,6.2v1.3C0,4.1,2.3,1.4,5.3,1.4h53.4c2.9,0,5.3,2.7,5.3,6.1v-1.3c0-3.4-2.3-6.1-5.3-6.1H5.3Z"/>
    <path class="st12" d="M15,64.1c-8.5,0-14.9-4.9-15.1-15.6v-.4H63.9v.6c0,12-7.1,15.3-13.2,15.3H15Z"/>
    <path class="st11" d="M43.4,53.4h13.7c1.3,0,2.3,1.2,2.3,2.7h0c0,1.5-1,2.7-2.3,2.7h-13.7c-1.3,0-2.3-1.2-2.3-2.7h0c0-1.5,1-2.7,2.3-2.7Z"/>
    <path class="st10" d="M6.8,53.4h31.9c1.3,0,2.3,1.2,2.3,2.7h0c0,1.5-1,2.7-2.3,2.7H6.8c-1.3,0-2.3-1.2-2.3-2.7h0c0-1.5,1-2.7,2.3-2.7Z"/>
    <ellipse class="st7" cx="41.1" cy="57.4" rx="4.6" ry="5.3"/>
    <ellipse class="st13" cx="41.1" cy="56.1" rx="4.6" ry="5.3"/>
    <rect class="st8" y="48.1" width="63.9" height="2.7"/>
    <path class="st7" d="M23.8,12.1c-.5,0-1,.5-1,1.2v24.3c0,.9.8,1.5,1.5,1l18.6-12.2c.7-.5.7-1.6,0-2.1l-16.7-10.9-1.9-1.2c-.1,0-.3-.1-.5-.1h0Z"/>
    <path class="st13" d="M23.8,10.7c-.5,0-1,.5-1,1.2v24.3c0,.9.8,1.5,1.5,1l18.6-12.2c.7-.5.7-1.6,0-2.1l-16.7-10.9-1.9-1.2c-.1,0-.3-.1-.5-.1h0Z"/>
  </g>
</svg>