<?xml version="1.0" encoding="UTF-8"?>
<svg id="_图层_1" xmlns="http://www.w3.org/2000/svg" version="1.1" viewBox="0 0 64 64" width="22" height="22">
  <!-- Generator: Adobe Illustrator 29.0.1, SVG Export Plug-In . SVG Version: 2.1.0 Build 192)  -->
  <defs>
    <style>
      .st0, .st1, .st2, .st3, .st4 {
        fill-rule: evenodd;
      }

      .st0, .st5, .st6, .st7, .st8, .st9, .st10, .st11 {
        isolation: isolate;
      }

      .st0, .st6, .st11 {
        opacity: .1;
      }

      .st1 {
        fill: #1595ff;
      }

      .st5, .st12, .st13, .st14, .st10, .st15, .st16 {
        display: none;
      }

      .st5, .st8, .st9, .st10 {
        opacity: .2;
      }

      .st12 {
        fill: #f44336;
      }

      .st13 {
        fill: #7282d9;
      }

      .st2 {
        fill: #1dadff;
      }

      .st3 {
        fill: #6be3ff;
      }

      .st17 {
        fill: #ffc60a;
      }

      .st18, .st9, .st10, .st11 {
        fill: #fff;
      }

      .st4 {
        fill: #38b7ff;
      }

      .st19 {
        fill: #8e8e8e;
      }

      .st20 {
        fill: #b07013;
      }

      .st21 {
        fill: #835d1a;
      }

      .st22 {
        fill: #9ad540;
      }

      .st23 {
        fill: none;
        stroke: #fff;
        stroke-linecap: round;
        stroke-linejoin: round;
        stroke-width: 6px;
      }

      .st24 {
        fill: #1edeff;
      }

      .st7 {
        opacity: .3;
      }

      .st25 {
        fill: #f2f1c7;
      }

      .st26 {
        fill: #00ddc9;
      }

      .st27 {
        fill: #02ad7b;
      }

      .st15 {
        fill: #f58a10;
      }

      .st28 {
        fill: #0274cd;
      }

      .st16 {
        fill: #e4e4e4;
      }

      .st29 {
        fill: #4b4b4b;
      }

      .st30 {
        fill: #198ab3;
      }
    </style>
  </defs>
  <path class="st18" d="M50.4,64H13.8c-7.6,0-13.8-6.2-13.8-13.7V13.7C0,6.2,6.2,0,13.7,0h36.6c7.5,0,13.7,6.2,13.7,13.7v36.6c0,7.5-6.2,13.7-13.7,13.7h.1Z"/>
  <g class="st14">
    <path class="st5" d="M64,61.9V4.8c0-2-1.4-3.6-3.2-3.6H3.2C1.4,1.3,0,2.9,0,4.8v57c0,2,1.4,3.6,3.2,3.6h57.6c1.8,0,3.2-1.6,3.2-3.6Z"/>
    <path class="st13" d="M64,60.6V3.6c0-2-1.4-3.6-3.2-3.6H3.2C1.4,0,0,1.6,0,3.6v57c0,2,1.4,3.6,3.2,3.6h57.6c1.8,0,3.2-1.6,3.2-3.6Z"/>
    <path class="st8" d="M56,14.1c-1.9,0-3.4,1.8-3.4,3.9h0v30.8c0,2.1,1.5,3.9,3.4,3.9,1.9,0,3.5-1.7,3.5-3.8,0,0,0,0,0-.1v-30.8c0-2.1-1.5-3.9-3.4-3.9,0,0,0,0,0,0ZM28.4,14.1c-1.9,0-3.4,1.9-3.3,4,0,.4,0,.8.2,1.1l9.1,30.8c.6,2,2.5,3.1,4.3,2.4,1-.4,1.8-1.3,2.2-2.4l9.1-30.8c.6-2-.4-4.2-2.2-4.9-1.8-.7-3.7.4-4.3,2.4h0l-5.9,19.8-5.9-19.8c-.5-1.6-1.9-2.7-3.4-2.7ZM17,14.1c-1.4,0-2.6,1.1-3.1,2.6l-9.1,30.8c-.6,2,.3,4.2,2.1,4.9s3.7-.3,4.4-2.3c0,0,0-.1,0-.2l5.9-19.8,5.9,19.8c.6,2,2.5,3.1,4.3,2.4s2.8-2.9,2.2-4.9h0l-9.1-30.8c-.5-1.6-1.9-2.7-3.4-2.6Z"/>
    <path class="st23" d="M8,47.4l9.1-30.8,9.1,30.8"/>
    <path class="st23" d="M28.6,16.7l9.1,30.8,9.1-30.8"/>
    <path class="st23" d="M56,16.7v30.8"/>
    <path class="st10" d="M3.2,0C1.4,0,0,1.6,0,3.6v1.3C0,2.9,1.4,1.3,3.2,1.3h57.6c1.8,0,3.2,1.6,3.2,3.6v-1.3c0-2-1.4-3.6-3.2-3.6H3.2Z"/>
  </g>
  <g class="st14">
    <circle class="st5" cx="31.5" cy="33.1" r="28"/>
    <circle class="st16" cx="31.5" cy="32.1" r="28"/>
    <path class="st6" d="M41.1,17.1c-1.2,0-1.9,0-2.5.2-1.1.2-3.2.9-3.9,1.3-1.2.6-3.6,1.6-5.8,2.3-7.2,2.5-11,5.7-12.7,10.7-1.1,3.3-.8,7,.8,10.1,1.3,2.6,3.4,4.7,6,6,1.2.6,3.4,1.2,4.8,1.4.8,0,2.8,0,3.6-.2,1.9-.4,3.9-1.3,5.5-2.4.8-.6,2.2-2,2.9-2.9,1.4-1.9,2.8-4.6,3.7-7.3.7-2.2,1.5-4,2.3-6,.4-.9.8-1.9,1-2.4,1.5-4.7.7-8.6-2.1-10.1-1.2-.6-1.7-.7-3.6-.7Z"/>
    <path class="st22" d="M26.9,47.3c-2.8-.5-5.3-1.8-7.3-3.9-2.3-2.4-3.5-5.4-3.5-8.8s2.1-8.3,6.2-11.1c2-1.4,3.6-2.1,7-3.3,1.2-.4,2.9-1.1,3.7-1.5,3.7-1.7,5.2-2.1,7.5-2.1,2.1,0,3.5.5,4.6,1.6,1,1,1.5,2.2,1.6,4.2,0,2.3-.3,4-1.7,7.2-.9,1.9-1.6,4-2.2,5.8-.6,1.9-1.9,4.5-3.1,6.2-2.3,3.2-5.2,5.1-8.9,5.7-1,.2-2.9.2-3.9,0h0ZM25.6,34.6c.7-1.2,1.4-1.8,2.8-2.5,1-.5,1.9-.7,2.9-.9.5,0,.9-.2,1-.3.3-.2.2-.8-.1-1-.2-.2-.3-.2-1.1,0-1.8.2-4.1,1.2-5.3,2.3-.7.7-1.3,1.6-1.3,2.1s.3.7.7.7.4,0,.5-.3h0Z"/>
    <path class="st6" d="M26.6,43c-4.1-.9-6.3-5.3-4.5-9,.4-.9,1-1.6,1.9-2.3,2.1-1.7,5.8-2.8,8-2.5,2,.4,3.1,1.4,3.4,3.5.4,2.4-1.2,6.7-3.1,8.6-1.5,1.5-3.8,2.1-5.7,1.7Z"/>
    <path class="st20" d="M26.6,42c-4.1-.9-6.3-5.3-4.5-9,.4-.9,1-1.6,1.9-2.3,2.1-1.7,5.8-2.8,8-2.5,2,.4,3.1,1.4,3.4,3.5.4,2.4-1.2,6.7-3.1,8.6-1.5,1.5-3.8,2.1-5.7,1.7Z"/>
    <path class="st6" d="M23.6,35.9c.1,0,.4-.4.6-.8.2-.4.6-.9,1-1.2,1.2-1,3.4-1.9,5.1-2.1,1.1-.1,1.6-.7,1-1.4-.2-.3-.3-.3-.8-.3-1.4,0-3.7.7-5.3,1.7-2,1.2-3.3,3.3-2.4,4,.3.3.5.3.8.1h0Z"/>
    <path class="st18" d="M23.6,34.9c.1,0,.4-.4.6-.8.2-.4.6-.9,1-1.2,1.2-1,3.4-1.9,5.1-2.1,1.1-.1,1.6-.7,1-1.4-.2-.3-.3-.3-.8-.3-1.4,0-3.7.7-5.3,1.7-2,1.2-3.3,3.3-2.4,4,.3.3.5.3.8.1h0Z"/>
    <path class="st29" d="M27.7,48.1c-1.5-.1-3.6-.7-4.8-1.4-2.6-1.3-4.7-3.4-6-6-1.6-3.1-1.9-6.9-.8-10.1,1.7-5,5.5-8.2,12.7-10.7,2.2-.8,4.6-1.7,5.8-2.3.8-.4,2.9-1.1,3.9-1.3.6-.1,1.3-.2,2.5-.2,1.8,0,2.3.1,3.5.7,2.8,1.5,3.6,5.4,2.1,10.1-.1.5-.6,1.5-1,2.4-.9,2-1.6,3.8-2.3,6-.9,2.7-2.3,5.4-3.7,7.3-.7.9-2.1,2.4-2.9,2.9-1.6,1.2-3.5,2-5.5,2.4-.8.2-2.8.3-3.6.2ZM30.2,46.7c3.4-.4,6.4-2.2,8.5-5.1,1.2-1.7,2.5-4.2,3.2-6.2.6-2,1.6-4.4,2.4-6.2,1.3-2.9,1.7-4.3,1.8-6.2.2-3.7-1.5-5.6-5.1-5.6-1.9,0-3.8.5-6.4,1.7-2.1.9-3.2,1.4-5.7,2.2-4.6,1.6-7.9,3.6-9.8,6.1-2.8,3.7-3.3,8.7-1.1,12.8.7,1.3,1.3,2.1,2.4,3.2,2.6,2.5,6.1,3.7,9.7,3.2Z"/>
    <path class="st10" d="M31.5,4.1c-15.5,0-28,12.5-28,28,0,.2,0,.3,0,.5.3-15.2,12.7-27.5,28-27.5,15.2,0,27.6,12.1,28,27.2,0,0,0-.2,0-.2,0-15.5-12.5-28-28-28Z"/>
  </g>
  <g class="st14">
    <ellipse class="st5" cx="31.9" cy="33" rx="31.9" ry="31.8"/>
    <ellipse class="st16" cx="31.9" cy="31.8" rx="31.9" ry="31.8"/>
    <path class="st6" d="M31.8,14.8c-.4,0-.9,0-1.3.1-3.5,1.1-6,4.2-7.8,7.2-2.9,5.1-4.7,11-4.3,16.9.5,6,5.6,11.3,11.6,12.1.7,0,1.3,0,2,.1,6.2.2,12.1-4.5,13.4-10.6.9-4.4-.1-8.9-1.5-13-1.7-4.5-4.1-9.1-8.3-11.8-1.1-.7-2.4-1-3.7-1ZM32.1,25.1c1.1,0,2.1.7,2.8,1.5,2.3,2.5,3.6,5.8,3.8,9.2.4,3.3-2,6.5-5.2,7.3-2.5.6-5.3-.3-6.9-2.3-1.7-1.9-1.7-4.6-1.3-7,.7-3.1,2.1-6.4,4.9-8.2.6-.4,1.2-.5,1.9-.5Z"/>
    <path class="st27" d="M31.8,13.6c-.4,0-.9,0-1.3.1-3.5,1.1-6,4.2-7.8,7.2-2.9,5.1-4.7,11-4.3,16.9.5,6,5.6,11.3,11.6,12.1.7,0,1.3,0,2,.1,6.2.2,12.1-4.5,13.4-10.6.9-4.4-.1-8.9-1.5-13-1.7-4.5-4.1-9.1-8.3-11.8-1.1-.7-2.4-1-3.7-1ZM32.1,23.9c1.1,0,2.1.7,2.8,1.5,2.3,2.5,3.6,5.8,3.8,9.2.4,3.3-2,6.5-5.2,7.3-2.5.6-5.3-.3-6.9-2.3-1.7-1.9-1.7-4.6-1.3-7,.7-3.1,2.1-6.4,4.9-8.2.6-.4,1.2-.5,1.9-.5Z"/>
    <path class="st10" d="M31.9,0C14.3,0,0,14.3,0,31.8c0,.2,0,.4,0,.6C.3,15.1,14.5,1.1,31.9,1.1c17.4,0,31.6,13.9,31.9,31.3,0-.2,0-.4,0-.6C63.9,14.3,49.6,0,31.9,0Z"/>
  </g>
  <g class="st14">
    <path class="st8" d="M38.4,4.5c-1,0-1.7.3-2.3,1.1-.5.6-1.1,1.7-1.3,2.5-.7,2.7-4.1,4.5-7.1,3.7-1.5-.4-2.2-1-4.5-4.1-1.1-1.4-2-1.4-4.7.2-2.5,1.4-2.8,2.4-1.7,5.2.5,1.2.9,2.7.9,3.3,0,1.6-1.4,4.2-2.9,5.2-1.2.8-3.7.9-5.7.4-1.9-.5-2.9.4-3.7,3.4-.6,2.3-.6,2.7,0,3.4.4.5,1.7,1.3,2.9,1.8,1.2.5,2.5,1.3,2.9,1.8.9,1,1.4,3.9,1,5.4-.3,1.1-1.6,2.8-2.8,3.5-1.2.7-2.4,2.3-2.3,3.1,0,1.1,1.6,3.9,2.6,4.6.6.4,1.1.5,1.8.2,2.2-.8,5.7-1.4,6.7-1.1,1.6.4,3.8,2.5,4.1,3.8.1.6.1,2,0,3-.3,2.5,0,3.8.8,4.3.4.2,1,.5,1.4.7.4.2,1.3.4,2,.5,1.9.2,3.3-.9,4.3-3.6,1-2.5,1.3-2.8,3.5-3.5,2.2-.7,3.8-.5,5,.5,1.1.9,1.5,1.3,3.1,3.2,1.2,1.4,2.1,1.4,4.2.4,3.1-1.6,3.5-2.6,1.9-5.9-1.5-3.1-.7-6.2,2.1-8,1.1-.7,1.9-.8,4.4-.6,3.8.2,4.6-.2,5.4-3.1.8-2.9.5-3.6-2.8-5-3.1-1.4-3.9-2.4-4.4-5.3-.4-2.4.2-3.6,3-6,1.4-1.2,2.2-2.2,2.2-2.7,0-1.1-2.5-5.1-3.4-5.3-.4-.1-1.6.2-2.7.6-3,1.3-4.6,1.3-6.5.2-2.3-1.3-2.9-2.6-2.7-5.8.2-3.7,0-4.4-2.1-5.2-.7-.3-1.2-.5-1.8-.6h0c-.4,0-.7-.1-1.1-.1h0Z"/>
    <path class="st19" d="M38.4,3.5c-1,0-1.7.3-2.3,1.1-.5.6-1.1,1.7-1.3,2.5-.7,2.7-4.1,4.5-7.1,3.7-1.5-.4-2.2-1-4.5-4.1-1.1-1.4-2-1.4-4.7.2-2.5,1.4-2.8,2.4-1.7,5.2.5,1.2.9,2.7.9,3.3,0,1.6-1.4,4.2-2.9,5.2-1.2.8-3.7.9-5.7.4-1.9-.5-2.9.4-3.7,3.4-.6,2.3-.6,2.7,0,3.4.4.5,1.7,1.3,2.9,1.8,1.2.5,2.5,1.3,2.9,1.8.9,1,1.4,3.9,1,5.4-.3,1.1-1.6,2.8-2.8,3.5-1.2.7-2.4,2.3-2.3,3.1,0,1.1,1.6,3.9,2.6,4.6.6.4,1.1.5,1.8.2,2.2-.8,5.7-1.4,6.7-1.1,1.6.4,3.8,2.5,4.1,3.8.1.6.1,2,0,3-.3,2.5,0,3.8.8,4.3.4.2,1,.5,1.4.7.4.2,1.3.4,2,.5,1.9.2,3.3-.9,4.3-3.6,1-2.5,1.3-2.8,3.5-3.5,2.2-.7,3.8-.5,5,.5,1.1.9,1.5,1.3,3.1,3.2,1.2,1.4,2.1,1.4,4.2.4,3.1-1.6,3.5-2.6,1.9-5.9-1.5-3.1-.7-6.2,2.1-8,1.1-.7,1.9-.8,4.4-.6,3.8.2,4.6-.2,5.4-3.1.8-2.9.5-3.6-2.8-5-3.1-1.4-3.9-2.4-4.4-5.3-.4-2.4.2-3.6,3-6,1.4-1.2,2.2-2.2,2.2-2.7,0-1.1-2.5-5.1-3.4-5.3-.4-.1-1.6.2-2.7.6-3,1.3-4.6,1.3-6.5.2-2.3-1.3-2.9-2.6-2.7-5.8.2-3.7,0-4.4-2.1-5.2-.7-.3-1.2-.5-1.8-.6h0c-.4,0-.7-.1-1.1-.1h0Z"/>
    <circle class="st7" cx="32.9" cy="31.5" r="9.8"/>
    <path class="st8" d="M32.9,18.5c-7.7,0-14,6.3-14,14h0c0,7.7,6.3,14,14,14,2.9,0,5.7-.9,8-2.5v2.3c0,.1,0,.2.2.2h5.6c.1,0,.2,0,.2-.2v-13.6s0,0,0,0c0,0,0,0,0-.1,0-7.7-6.3-14-14-14ZM32.9,24.5c4.4,0,8,3.6,8,8h0c0,4.4-3.6,8-8,8s-8-3.6-8-8,3.6-8,8-8Z"/>
    <path class="st26" d="M32.9,17.5c-7.7,0-14,6.3-14,14s6.3,14,14,14c2.9,0,5.7-.9,8-2.5v2.3c0,.1,0,.2.2.2h5.6c.1,0,.2,0,.2-.2v-13.6s0,0,0,0c0,0,0,0,0-.1,0-7.7-6.3-14-14-14ZM32.9,23.5c4.4,0,8,3.6,8,8s-3.6,8-8,8-8-3.6-8-8,3.6-8,8-8Z"/>
    <path class="st9" d="M32.9,17.5c-7.7,0-14,6.3-14,14,0,.2,0,.3,0,.5.3-7.5,6.4-13.5,14-13.5,7.7,0,14,6.3,14,14v-.8s0,0,0,0c0,0,0,0,0-.1,0-7.7-6.3-14-14-14ZM46.9,32.5s0,0,0,.1c0,0,0,0,0,0v-.2ZM40.8,32.4c-.4,4-3.8,7.1-7.9,7.1-4,0-7.4-3-7.9-7,0,.3,0,.7,0,1,0,.2,0,.4,0,.5,0-.2,0-.4,0-.5.5,4,3.9,7,7.9,7,4.1,0,7.5-3.1,7.9-7.1,0,.2,0,.4,0,.6,0-.2,0-.3,0-.5,0-.4,0-.8,0-1.1Z"/>
    <path class="st11" d="M38.4,3.5h0c-1,0-1.7.3-2.3,1.1-.5.6-1.1,1.7-1.3,2.5-.7,2.7-4.1,4.5-7.1,3.7-1.5-.4-2.2-1-4.5-4.1-1.1-1.4-2-1.4-4.7.2-1.8,1.1-2.5,1.8-2.3,3.3.2-.9.9-1.5,2.3-2.3,2.7-1.5,3.6-1.5,4.7-.2,2.4,3,3.1,3.7,4.5,4.1,3,.8,6.4-.9,7.1-3.7.2-.7.8-1.8,1.3-2.5.6-.7,1.3-1.1,2.3-1.1.3,0,.7,0,1.1.1h0c.5.1,1.1.3,1.8.6,1.5.6,2.1,1.2,2.1,3.1,0-2.7-.4-3.4-2.1-4.1-.7-.3-1.2-.5-1.8-.6h0c-.4,0-.7-.1-1.1-.2ZM43.3,10.9c0,2.9.5,4.1,2.7,5.4,2,1.1,3.6,1.1,6.5-.2,1.1-.5,2.3-.7,2.7-.6.7.2,2.7,3.2,3.2,4.7,0-.2.1-.3.1-.4,0-1.1-2.5-5.1-3.4-5.3-.4-.1-1.6.2-2.7.6-3,1.3-4.6,1.3-6.5.2-1.9-1.1-2.6-2.2-2.7-4.4ZM17.6,15.9c-.3,1.6-1.5,3.8-2.8,4.6-1.2.8-3.7.9-5.7.4-1.9-.5-2.9.4-3.7,3.4-.4,1.6-.5,2.2-.4,2.7,0-.4.2-1,.4-1.7.8-3,1.8-3.9,3.7-3.4,2,.5,4.5.4,5.7-.4,1.5-.9,2.9-3.5,2.9-5.2,0-.1,0-.3,0-.4ZM53.3,27.8c0,.5,0,1,0,1.7.4,2.9,1.3,3.9,4.4,5.3,2,.9,2.9,1.5,3.1,2.5.2-1.7-.5-2.3-3.1-3.5-3.1-1.4-3.9-2.4-4.4-5.3,0-.2,0-.4,0-.7ZM12.4,36.1c0,.2,0,.5-.1.7-.3,1.1-1.6,2.8-2.7,3.5-1.2.7-2.4,2.3-2.3,3.1,0,.1,0,.3,0,.5.3-.9,1.2-2.1,2.2-2.6,1.1-.6,2.5-2.4,2.7-3.5.1-.5.1-1,.1-1.7ZM48,48c0,1.1.1,2.3.7,3.6.5,1,.7,1.7.9,2.3.2-.8-.1-1.8-.9-3.3-.4-.9-.6-1.7-.7-2.6ZM22.5,52.8c0,.4,0,.8,0,1.1-.1.9-.1,1.7-.1,2.3,0-.4,0-.8.1-1.3,0-.7.1-1.5,0-2.1Z"/>
  </g>
  <g class="st14">
    <rect class="st5" x="6.3" y="5.5" width="50" height="50" rx="2.5" ry="2.5"/>
    <rect class="st12" x="6.3" y="4.5" width="50" height="50" rx="2.5" ry="2.5"/>
    <path class="st8" d="M15,12.5L1.3,48.5h9.6l2.4-7h14.9l2.1,6.5v.5h31v-7h-19.1l19.1-23.4v-5.6h-31v7h19.1l-13.9,17-9.1-24h-11.4ZM20.7,20.9l5.1,13.6h-10.1l5.1-13.6Z"/>
    <path class="st18" d="M28.1,40.5h-14.9l-2.4,7H1.3L15,11.5h11.4l13.7,36h-9.6l-2.3-7ZM15.6,33.5h10.1l-5.1-13.6-5.1,13.6Z"/>
    <path class="st18" d="M30.3,11.5h31v5.6l-19.1,23.4h19.1v7h-31v-5.6l19.1-23.4h-19.1v-7Z"/>
    <path class="st10" d="M8.8,4.5c-1.4,0-2.5,1.1-2.5,2.5v1c0-1.4,1.1-2.5,2.5-2.5h45c1.4,0,2.5,1.1,2.5,2.5v-1c0-1.4-1.1-2.5-2.5-2.5H8.8Z"/>
  </g>
  <g class="st14">
    <path class="st5" d="M3.2,1.1h57.6c1.8,0,3.2,1.4,3.2,3.2v57.6c0,1.8-1.4,3.2-3.2,3.2H3.2c-1.8,0-3.2-1.4-3.2-3.2V4.3C0,2.5,1.4,1.1,3.2,1.1Z"/>
    <path class="st15" d="M3.2,0h57.6c1.8,0,3.2,1.4,3.2,3.2v57.6c0,1.8-1.4,3.2-3.2,3.2H3.2c-1.8,0-3.2-1.4-3.2-3.2V3.2C0,1.4,1.4,0,3.2,0Z"/>
    <path class="st25" d="M6.6,6.6v50.7h50.8V6.6H6.6Z"/>
    <path class="st0" d="M9.5,18.9c29.9-2,48.1,9.2,31.6,37.7,1.1-3.8.5-12.7-5.5-23.5-4.6-8.4-26.2-14.3-26.2-14.3Z"/>
    <path class="st1" d="M9.5,17.8c29.9-2,48.1,9.2,31.6,37.7,1.1-3.8.5-12.7-5.5-23.5-4.6-8.4-26.2-14.3-26.2-14.3Z"/>
    <path class="st0" d="M11.1,13.8c29.1-2.7,46.7,9.8,30.1,42.6,1.2-4.4.8-14.4-4.9-26.7-4.3-9.5-25.2-15.9-25.2-15.9Z"/>
    <path class="st4" d="M11.1,12.7c29.1-2.7,46.7,9.8,30.1,42.6,1.2-4.4.8-14.4-4.9-26.7-4.3-9.5-25.2-15.9-25.2-15.9Z"/>
    <path class="st0" d="M15.9,9.3c32.9,3.3,50,19.1,25.2,47.6,2.1-4,3.6-13.9-.2-26.9-3-10.1-24.9-20.6-24.9-20.6Z"/>
    <path class="st3" d="M15.9,8.2c32.9,3.3,50,19.1,25.2,47.6,2.1-4,3.6-13.9-.2-26.9-3-10.1-24.9-20.6-24.9-20.6Z"/>
    <circle class="st8" cx="46.3" cy="40.8" r="2.2"/>
    <circle class="st18" cx="46.3" cy="39.7" r="2.2"/>
    <circle class="st8" cx="43.6" cy="48" r="1.7"/>
    <circle class="st18" cx="43.6" cy="46.9" r="1.7"/>
    <polygon class="st6" points="50.1 12.1 55.2 15.6 42.3 35.2 37.2 31.7 50.1 12.1"/>
    <polygon class="st17" points="50.1 11 55.2 14.5 42.3 34.1 37.2 30.6 50.1 11"/>
    <polygon class="st6" points="35 33.7 41 37.8 37.7 42.8 31.7 38.8 35 33.7"/>
    <polygon class="st21" points="35 32.6 41 36.6 37.7 41.7 31.7 37.7 35 32.6"/>
    <path class="st0" d="M29.6,40.6c-7.5,6.5-15.7,4.8-15.7,4.8l-5-.7s2.7,4.8,5.9,7.6c4.1,3.7,10.1,6.3,16.1.5,5.3-5.1,5.6-7.5,5.6-7.5l-6.9-4.7Z"/>
    <path class="st2" d="M29.6,39.5c-7.5,6.5-15.7,4.8-15.7,4.8l-5-.7s2.7,4.8,5.9,7.6c4.1,3.7,10.1,6.3,16.1.5,5.3-5.1,5.6-7.5,5.6-7.5l-6.9-4.7Z"/>
    <rect class="st8" x="6.6" y="57.4" width="50.8" height="1.1"/>
    <path class="st10" d="M3.2,0C1.4,0,0,1.4,0,3.2v1.1C0,2.5,1.4,1.1,3.2,1.1h57.6c1.8,0,3.2,1.4,3.2,3.2v-1.1c0-1.8-1.4-3.2-3.2-3.2H3.2Z"/>
  </g>
  <g>
    <path class="st8" d="M38.7,2.7c-3.1,0-6,1.6-7.7,4.3-.8-.2-1.5-.3-2.3-.3-5,0-9,4-9,9s4,9,9,9h19c3.3,0,6-2.7,6-6s-2.7-6-6-6c0,0,0,0,0,0,0-.3,0-.7,0-1,0-5-4-9-9-9h0Z"/>
    <circle class="st24" cx="28.7" cy="14.7" r="9"/>
    <circle class="st24" cx="38.7" cy="10.7" r="9"/>
    <circle class="st24" cx="47.7" cy="17.7" r="6"/>
    <rect class="st24" x="28.7" y="15.1" width="19" height="8.6"/>
    <path class="st9" d="M38.7,1.7c-3.1,0-6,1.6-7.7,4.3-.8-.2-1.5-.3-2.3-.3-5,0-9,4-9,9,0,.1,0,.3,0,.4.3-4.7,4.2-8.4,9-8.4.8,0,1.6.1,2.3.3,1.6-2.7,4.5-4.3,7.7-4.3,4.8,0,8.7,3.7,9,8.5,0-.2,0-.3,0-.5,0-5-4-9-9-9ZM47.7,11.7c0,.3,0,.7,0,1,0,0,0,0,0,0,3.1,0,5.7,2.4,6,5.5,0-.2,0-.3,0-.5,0-3.3-2.7-6-6-6Z"/>
    <path class="st8" d="M5.7,21.6v27.3h0c0,.2,0,.5,0,.7,0,4.4,7.2,8,16,8s16-3.6,16-8c0-.2,0-.5,0-.7h0v-27.3H5.7Z"/>
    <path class="st28" d="M5.7,20.6v27.3h0c0,.2,0,.5,0,.7,0,4.4,7.2,8,16,8s16-3.6,16-8c0-.2,0-.5,0-.7h0v-27.3H5.7Z"/>
    <path class="st8" d="M18.5,33.8l-4.5,7.9c-.1,0-.1,0-.4,0-.5-.1-1.2-.3-2-.7-1.4-.6-4.1-1.4-6-2.4v3c1.4.8,3.8,1.4,5,1.9.9.3,1.7.6,2.4.8.7.2,1.3.3,2,.2h.6c0-.1,2.1-3.9,2.1-3.9l3.6,11.9,4.8-7.5c3.3-.4,8.6-1.5,11.5-3.5v-3.4c-2.8,2.6-8.8,4.1-12.5,4.5h-.6c0,0-2.3,3.6-2.3,3.6l-3.7-12.3Z"/>
    <path class="st18" d="M18.5,32.8l-4.5,7.9c-.1,0-.1,0-.4,0-.5-.1-1.2-.3-2-.7-1.4-.6-4.1-1.4-6-2.4v3c1.4.8,3.8,1.4,5,1.9.9.3,1.7.6,2.4.8.7.2,1.3.3,2,.2h.6c0-.1,2.1-3.9,2.1-3.9l3.6,11.9,4.8-7.5c3.3-.4,8.6-1.5,11.5-3.5v-3.4c-2.8,2.6-8.8,4.1-12.5,4.5h-.6c0,0-2.3,3.6-2.3,3.6l-3.7-12.3Z"/>
    <circle class="st8" cx="43.7" cy="45.7" r="16"/>
    <ellipse class="st8" cx="21.7" cy="21.7" rx="16" ry="8"/>
    <ellipse class="st18" cx="21.7" cy="20.7" rx="16" ry="8"/>
    <circle class="st24" cx="43.7" cy="44.7" r="16"/>
    <path class="st18" d="M41.4,35.7l-.2,2.4c-.8.3-1.4.7-2.1,1.2l-2.2-1-2.2,3.9,2,1.4c0,.4-.1.8-.1,1.2,0,.4,0,.8.1,1.2l-2,1.4,2.2,3.9,2.1-1c.6.5,1.3.9,2.1,1.2l.2,2.4h4.5l.2-2.4c.8-.3,1.4-.7,2.1-1.2l2.2,1,2.2-3.9-2-1.4c0-.4.1-.8.1-1.2,0-.4,0-.8-.1-1.2l2-1.4-2.2-3.9-2.1,1c-.6-.5-1.3-.9-2.1-1.2l-.2-2.4h-4.5ZM43.7,41.7c1.7,0,3,1.3,3,3h0c0,1.7-1.3,3-3,3h0c-1.7,0-3-1.3-3-3h0c0-1.7,1.3-3,3-3h0Z"/>
    <path class="st24" d="M21.7,15.7c-4,0-7.6.9-10,2s-3,2.4-3,3,.7,1.8,3,3,6,2,10,2,7.6-.9,10-2,3-2.4,3-3-.7-1.8-3-3-6-2-10-2Z"/>
    <path class="st30" d="M21.7,21.7c-4,0-7.6.8-9.9,2,2.4,1.2,5.9,2,9.9,2s7.6-.8,9.9-2c-2.4-1.2-5.9-2-9.9-2Z"/>
  </g>
</svg>