<?xml version="1.0" encoding="UTF-8" standalone="no"?>
<svg
   id="_图层_1"
   version="1.1"
   viewBox="0 0 64 64" width="22" height="22"
   sodipodi:docname="betterbird.svg"
   xml:space="preserve"
   inkscape:version="1.4 (e7c3feb100, 2024-10-09)"
   xmlns:inkscape="http://www.inkscape.org/namespaces/inkscape"
   xmlns:sodipodi="http://sodipodi.sourceforge.net/DTD/sodipodi-0.dtd"
   xmlns="http://www.w3.org/2000/svg"
   xmlns:svg="http://www.w3.org/2000/svg"><sodipodi:namedview
     id="namedview26"
     pagecolor="#505050"
     bordercolor="#eeeeee"
     borderopacity="1"
     inkscape:showpageshadow="0"
     inkscape:pageopacity="0"
     inkscape:pagecheckerboard="0"
     inkscape:deskcolor="#505050"
     inkscape:zoom="10.6875"
     inkscape:cx="32"
     inkscape:cy="28.912281"
     inkscape:window-width="1920"
     inkscape:window-height="939"
     inkscape:window-x="0"
     inkscape:window-y="34"
     inkscape:window-maximized="1"
     inkscape:current-layer="_图层_1" /><!-- Generator: Adobe Illustrator 29.0.1, SVG Export Plug-In . SVG Version: 2.1.0 Build 192)  --><defs
     id="defs6"><style
       id="style1">
      .st0 {
        fill-opacity: .5;
      }

      .st0, .st1, .st2, .st3, .st4, .st5, .st6, .st7 {
        fill: #fff;
      }

      .st8 {
        fill: #133c9a;
      }

      .st2, .st9 {
        display: none;
      }

      .st3 {
        fill-opacity: .2;
      }

      .st4 {
        fill-opacity: .9;
      }

      .st10 {
        fill: #3370ff;
      }

      .st11 {
        fill: url(#_未命名的渐变_3);
      }

      .st12 {
        fill: url(#_未命名的渐变);
      }

      .st5 {
        fill-opacity: .3;
      }

      .st6 {
        fill-opacity: 0;
      }

      .st7 {
        fill-opacity: .7;
      }

      .st13 {
        fill: #00d6b9;
      }

      .st14 {
        fill: url(#_未命名的渐变_2);
      }
    </style><radialGradient
       id="_未命名的渐变"
       data-name="未命名的渐变"
       cx="123.9"
       cy="-40.2"
       fx="123.9"
       fy="-40.2"
       r="59.4"
       gradientTransform="translate(-26.8 25.5) scale(.6 -.7)"
       gradientUnits="userSpaceOnUse"><stop
         offset="0"
         stop-color="#db202e"
         id="stop1" /><stop
         offset="1"
         stop-color="#e01b24"
         id="stop2" /></radialGradient><radialGradient
       id="_未命名的渐变_2"
       data-name="未命名的渐变 2"
       cx="67.6"
       cy="26.8"
       fx="67.6"
       fy="26.8"
       r="105.2"
       gradientTransform="translate(-26.6 25.3) scale(.6 -.7)"
       gradientUnits="userSpaceOnUse"><stop
         offset="0"
         stop-color="#ffb648"
         id="stop3" /><stop
         offset="1"
         stop-color="#ff7800"
         stop-opacity="0"
         id="stop4" /></radialGradient><radialGradient
       id="_未命名的渐变_3"
       data-name="未命名的渐变 3"
       cx="61.7"
       cy="18.6"
       fx="61.7"
       fy="18.6"
       r="68"
       gradientTransform="translate(-26.8 25.8) scale(.6 -.7)"
       gradientUnits="userSpaceOnUse"><stop
         offset="0"
         stop-color="#c64600"
         id="stop5" /><stop
         offset="1"
         stop-color="#a51d2d"
         id="stop6" /></radialGradient><style
       id="style1-2">
      .st0, .st1, .st2, .st3, .st4, .st5 {
        isolation: isolate;
      }

      .st0, .st1, .st6, .st7, .st5, .st8 {
        display: none;
      }

      .st0, .st3, .st4, .st5 {
        opacity: .2;
      }

      .st1 {
        opacity: .1;
      }

      .st1, .st9, .st2, .st4, .st5 {
        fill: #fff;
      }

      .st10 {
        fill: #3f3f3f;
      }

      .st2 {
        opacity: .3;
      }

      .st6 {
        fill: #505d6e;
      }

      .st11, .st8 {
        fill: #ffcca3;
      }

      .st12 {
        fill: #fed24c;
      }

      .st13 {
        fill: #c2352a;
      }
    </style></defs><path
     class="st1"
     d="M 47.5,64.1 H 13.8 C 6.2,64.1 0,57.8 0,50.3 V 13.7 C 0,6.2 6.2,0 13.7,0 H 50.3 C 57.8,0 64,6.2 64,13.7 V 50.3 C 64,57.8 57.8,64 50.3,64 h -2.9 0.1 z"
     id="path6"
     style="display:inline;opacity:1;fill:#cec7c7;fill-opacity:1" /><g
     id="g27"
     transform="matrix(1.1370092,0,0,1.1346055,-4.3842941,-4.3191239)"><path
       style="opacity:0.1"
       d="m 31.999998,11.000677 c 0.289606,0 0.578188,0.01554 0.867492,0.02686 -0.287266,-0.01696 -0.575974,-0.02686 -0.867492,-0.02686 z m 0.867492,0.02686 c 7.609346,0.449142 13.643522,6.761636 13.643522,14.483153 0,5.80844 -3.541958,12.02641 -10.160128,11.489652 C 30.791552,36.43463 29.31336,34.250028 29,31.41248 c -0.302676,-2.740808 2.07794,-5.408086 6.362534,-5.412142 2.77434,-0.0042 5.379618,1.43621 4.74032,3.7186 3.971616,-4.01695 -2.76929,-10.54973 -9.37904,-10.66902 -2.593884,-0.04682 -5.167568,0.95396 -7.065704,3.290236 1.563388,-1.092052 2.817044,-1.480914 4.38043,-1.528078 -0.799108,0.379048 -1.926024,0.859896 -2.618588,1.898682 1.264222,-0.784754 2.667736,-1.104644 4.364316,-0.93457 -4.884738,1.034632 -8.317934,7.323474 -7.8692,14.162476 -2.729233,-2.63681 -4.426088,-6.334424 -4.426088,-10.427978 0,-7.762612 6.09775,-14.102559 13.764382,-14.491211 -2.499516,0.08452 -4.98575,0.587952 -7.31325,1.506592 -3.58372,1.41163 -6.709012,3.737311 -9.085837,6.689697 -0.03279,2.90932 0.343216,6.023892 1.128008,9.343018 -1.212998,-2.608168 -2.09425,-5.214884 -2.247957,-7.822998 -1.432259,2.128678 -2.500009,4.517888 -3.120823,7.087158 0.842122,2.319282 2.042832,4.280666 3.491452,5.991456 -1.292905,-0.811334 -2.585929,-2.13097 -3.880884,-3.958496 -0.3239172,2.260692 -0.2962864,4.558076 0.08057,6.810546 1.581814,1.59192 3.160555,2.612656 4.74032,3.46704 -1.284697,0.09422 -2.665355,-0.202556 -4.146773,-0.888916 2.257962,7.635966 8.64694,13.548806 16.369544,15.243164 1.296978,-1.36246 1.83913,-2.925782 2.986536,-4.917236 0.06354,1.231382 -0.58306,3.147024 -1.482524,5.193848 2.13705,0.31489 4.319408,0.313514 6.456502,0 -0.899508,-2.046728 -1.546054,-3.962466 -1.482524,-5.193848 1.147406,1.991496 1.689532,3.552728 2.986534,4.917236 7.726732,-1.700504 14.11157,-7.603086 16.369546,-15.243164 -1.481432,0.686318 -2.862076,0.983104 -4.146772,0.888916 1.579708,-0.854384 3.158506,-1.87512 4.74032,-3.46704 0.37687,-2.252484 0.404488,-4.549826 0.08058,-6.810546 -1.294956,1.82758 -2.585918,3.147162 -3.880884,3.958496 1.450684,-1.71079 2.649368,-3.67212 3.491452,-5.991456 -0.61882,-2.569214 -1.686568,-4.96111 -3.120822,-7.089844 -0.15366,2.60817 -1.034958,5.217516 -2.247958,7.825684 0.78481,-3.319168 1.160736,-6.433656 1.128008,-9.343018 -2.909524,-3.612111 -6.938924,-6.28718 -11.559398,-7.498047 v -0.0027 c -1.541394,-0.40222 -3.12713,-0.625176 -4.718838,-0.687491 z m 0.722462,10.410277 c 1.710892,0.643308 3.268864,0.18038 2.535332,1.184324 -0.922044,-0.276622 -1.750578,-0.69877 -2.535332,-1.184324 z"
       id="path2" /><path
       style="fill:#ff5e00"
       d="m 31.999998,10.000339 c 0.289606,0 0.578188,0.01554 0.867492,0.02686 -0.287266,-0.01696 -0.575974,-0.02686 -0.867492,-0.02686 z m 0.867492,0.02686 c 7.609346,0.449142 13.643522,6.761636 13.643522,14.483153 0,5.80844 -3.541958,12.02641 -10.160128,11.489652 C 30.791552,35.434292 29.31336,33.24969 29,30.412142 28.697324,27.671334 31.07794,25.004056 35.362534,25 c 2.77434,-0.0042 5.379618,1.43621 4.74032,3.7186 3.971616,-4.01695 -2.76929,-10.54973 -9.37904,-10.66902 -2.593884,-0.04682 -5.167568,0.95396 -7.065704,3.290236 1.563388,-1.092052 2.817044,-1.480914 4.38043,-1.528078 -0.799108,0.379048 -1.926024,0.859896 -2.618588,1.898682 1.264222,-0.784754 2.667736,-1.104644 4.364316,-0.93457 -4.884738,1.034632 -8.317934,7.323474 -7.8692,14.162476 -2.729233,-2.63681 -4.426088,-6.334424 -4.426088,-10.427978 0,-7.762612 6.09775,-14.102559 13.764382,-14.491211 -2.499516,0.08452 -4.98575,0.587952 -7.31325,1.506592 -3.58372,1.41163 -6.709012,3.73731 -9.085837,6.689697 -0.03279,2.90932 0.343216,6.023892 1.128008,9.343018 -1.212998,-2.608168 -2.09425,-5.214884 -2.247957,-7.822998 -1.432259,2.128678 -2.500009,4.517888 -3.120823,7.087158 0.842122,2.319282 2.042832,4.280666 3.491452,5.991456 -1.292905,-0.811334 -2.585929,-2.13097 -3.880884,-3.958496 -0.3239172,2.260692 -0.2962864,4.558076 0.08057,6.810546 1.581814,1.59192 3.160555,2.612656 4.74032,3.46704 -1.284697,0.09422 -2.665355,-0.202556 -4.146773,-0.888916 2.257962,7.635966 8.64694,13.548806 16.369544,15.243164 1.296978,-1.36246 1.83913,-2.925782 2.986536,-4.917236 0.06354,1.231382 -0.58306,3.147024 -1.482524,5.193848 2.13705,0.31489 4.319408,0.313514 6.456502,0 -0.899508,-2.046728 -1.546054,-3.962466 -1.482524,-5.193848 1.147406,1.991496 1.689532,3.552728 2.986534,4.917236 7.726732,-1.700504 14.11157,-7.603086 16.369546,-15.243164 -1.481432,0.686318 -2.862076,0.983104 -4.146772,0.888916 1.579708,-0.854384 3.158506,-1.87512 4.74032,-3.46704 0.37687,-2.252484 0.404488,-4.549826 0.08058,-6.810546 -1.294956,1.82758 -2.585918,3.147162 -3.880884,3.958496 1.450684,-1.71079 2.649368,-3.67212 3.491452,-5.991456 -0.61882,-2.569214 -1.686568,-4.96111 -3.120822,-7.089844 -0.15366,2.60817 -1.034958,5.217516 -2.247958,7.825684 0.78481,-3.319168 1.160736,-6.433656 1.128008,-9.343018 -2.909524,-3.612112 -6.938924,-6.28718 -11.559398,-7.498047 v -0.0027 c -1.541394,-0.40222 -3.12713,-0.625176 -4.718838,-0.687491 z m 0.722462,10.410277 c 1.710892,0.643308 3.268864,0.18038 2.535332,1.184324 -0.922044,-0.276622 -1.750578,-0.69877 -2.535332,-1.184324 z"
       id="path3" /></g></svg>
