<?xml version="1.0" encoding="UTF-8"?>
<svg id="_图层_1" xmlns="http://www.w3.org/2000/svg" version="1.1" viewBox="0 0 64 64" width="22" height="22">
  <!-- Generator: Adobe Illustrator 29.0.1, SVG Export Plug-In . SVG Version: 2.1.0 Build 192)  -->
  <defs>
    <style>
      .st0 {
        fill: #1f8ce5;
      }

      .st1 {
        fill: #4f4f4f;
      }

      .st2, .st3, .st4, .st5, .st6, .st7, .st8, .st9 {
        display: none;
      }

      .st2, .st3, .st10, .st11, .st12, .st8, .st13 {
        isolation: isolate;
      }

      .st2, .st11, .st12, .st8 {
        opacity: .2;
      }

      .st3, .st14, .st15, .st12, .st8, .st13 {
        fill: #fff;
      }

      .st3, .st10, .st13 {
        opacity: .1;
      }

      .st16, .st9 {
        fill: #2577ff;
      }

      .st17 {
        fill: #3f3f3f;
      }

      .st18 {
        fill: #bc6740;
      }

      .st15 {
        fill-rule: evenodd;
      }

      .st19 {
        fill: #fed7ea;
      }

      .st4 {
        fill: #5838cf;
      }

      .st20 {
        fill: #a8d0f1;
      }

      .st21 {
        fill: #d54b3e;
      }

      .st22 {
        fill: #2d96d8;
      }

      .st5 {
        fill: #236782;
      }

      .st7 {
        fill: #fad83b;
      }

      .st23 {
        fill: #61aeec;
      }

      .st24 {
        fill: #df3131;
      }
    </style>
  </defs>
  <path class="st16" d="M47.5,64.1H13.8c-7.6,0-13.8-6.3-13.8-13.8V13.7C0,6.2,6.2,0,13.7,0h36.6c7.5,0,13.7,6.2,13.7,13.7v36.6c0,7.5-6.2,13.7-13.7,13.7h-2.9.1Z"/>
  <g class="st6">
    <path class="st2" d="M6.2,4.1c-.8,0-1.5.7-1.5,1.6,0,.4.2.8.4,1.1l4.4,4.6c-.5.9-.9,2-.9,3.2v37.4c0,.6,0,1.1.2,1.6l-3.3,3.5c-1.2,1.2-1.2,3.2,0,4.4,1.1,1.2,3,1.3,4.2,0,0,0,0,0,0,0l3.3-3.5c.5.1,1,.2,1.5.2h35.4c.5,0,1,0,1.5-.2l3.3,3.5c1.1,1.2,3,1.3,4.2,0s1.2-3.2,0-4.4c0,0,0,0,0,0l-3.3-3.5c.1-.5.2-1,.2-1.6V14.6c0-1.2-.3-2.2-.8-3.2l4.3-4.6c.6-.6.6-1.6,0-2.2-.3-.3-.7-.5-1.1-.5-.4,0-.7.2-1,.5l-4.3,4.6c-.9-.5-1.9-.9-3-.9H14.5c-1.1,0-2.1.3-2.9.8l-4.4-4.6c-.3-.3-.7-.5-1.1-.5Z"/>
    <rect class="st5" x="8.6" y="7.3" width="47.2" height="49.8"/>
    <path class="st3" d="M14.5,7.3c-3.3,0-5.9,2.8-5.9,6.2v1c0-3.4,2.6-6.2,5.9-6.2h35.4c3.3,0,5.9,2.8,5.9,6.2v-1c0-3.4-2.6-6.2-5.9-6.2H14.5Z"/>
    <path class="st11" d="M14.5,14.6v6.2l17.7,8.3,17.7-8.3v-6.2H14.5Z"/>
    <path class="st14" d="M14.5,13.5v6.2l17.7,8.3,17.7-8.3v-6.2H14.5Z"/>
    <path class="st11" d="M11,8.6c-.8.6-1.4,1.5-1.9,2.4l21,22.2-11.9,12.6c-.3,0-.6-.1-.9-.1-.8,0-1.5.4-2,.9l-6.3,6.7c.8,2,2.6,3.5,4.7,3.8l5.7-6.1c.8-.8,1.1-1.9.8-3l11.9-12.6,11.9,12.5c-.3,1.1,0,2.3.8,3.1l5.7,6.1c2.2-.3,4-1.8,4.7-3.8l-6.3-6.7c-.6-.6-1.3-.9-2.1-.9-.3,0-.5,0-.7.1l-11.9-12.5,21-22.2c-.4-1-1-1.8-1.8-2.5l-21.3,22.4L11,8.6Z"/>
    <path class="st24" d="M58.3,3.1c-.4,0-.7.2-1,.5L6.1,57.6c-.6.6-.6,1.6,0,2.2s1.5.6,2.1,0c0,0,0,0,0,0L59.3,5.8c.6-.6.6-1.6,0-2.2-.3-.3-.7-.5-1.1-.5Z"/>
    <path class="st12" d="M58.3,3.1c-.4,0-.7.2-1,.5L6.1,57.6c-.4.4-.6,1.1-.4,1.6,0-.2.2-.4.4-.6L57.2,4.7c.3-.3.6-.5,1-.5.6,0,1.2.4,1.4,1,.3-.8-.1-1.7-.9-2-.2,0-.3,0-.5,0Z"/>
    <path class="st1" d="M17.4,44.6c-.8,0-1.5.4-2,.9l-9.8,10.4c-1.2,1.2-1.2,3.2,0,4.4,1.1,1.2,3,1.3,4.2,0,0,0,0,0,0,0l9.8-10.4c1.2-1.2,1.2-3.2,0-4.4-.6-.6-1.4-1-2.2-.9Z"/>
    <path class="st24" d="M16.5,48.8c-.3,0-.5.1-.7.3l-5.9,6.2c-.4.4-.4,1.1,0,1.5s1,.4,1.4,0c0,0,0,0,0,0l5.9-6.2c.4-.4.4-1.1,0-1.5-.2-.2-.5-.3-.7-.3Z"/>
    <path class="st11" d="M31.8,30.5l-2.1,2.2,2.1,2.2,2.1-2.2-2.1-2.2Z"/>
    <path class="st22" d="M6.2,3c-.8,0-1.5.7-1.5,1.6,0,.4.2.8.4,1.1l51.1,54.1c.6.6,1.5.6,2.1,0,.6-.6.6-1.6,0-2.2h0S7.2,3.5,7.2,3.5c-.3-.3-.7-.5-1.1-.5Z"/>
    <path class="st12" d="M6.2,3c-.8,0-1.5.7-1.5,1.6,0,.2,0,.4,0,.5.2-.6.8-1,1.4-1,.4,0,.8.2,1.1.5l51.1,54.1c.2.2.3.4.3.6.2-.6,0-1.2-.3-1.6L7.2,3.5c-.3-.3-.7-.5-1.1-.5Z"/>
    <path class="st1" d="M47,44.6c-1.6,0-2.9,1.4-2.9,3.1,0,.8.3,1.6.9,2.2l9.8,10.4c1.1,1.2,3,1.3,4.2,0s1.2-3.2,0-4.4c0,0,0,0,0,0l-9.8-10.4c-.6-.6-1.3-.9-2.1-.9Z"/>
    <path class="st22" d="M48,48.8c-.5,0-1,.5-1,1,0,.3.1.5.3.7l5.9,6.2c.4.4,1,.4,1.4,0,.4-.4.4-1.1,0-1.5,0,0,0,0,0,0l-5.9-6.2c-.2-.2-.4-.3-.7-.3Z"/>
    <path class="st13" d="M47,44.6c-1.6,0-2.9,1.4-2.9,3.1,0,.2,0,.3,0,.5.2-1.5,1.5-2.6,2.9-2.6.8,0,1.6.3,2.1.9l9.8,10.4c.5.5.8,1.1.9,1.7.2-1-.2-2.1-.9-2.8l-9.8-10.4c-.6-.6-1.3-.9-2.1-.9ZM17.4,44.6c-.8,0-1.5.4-2,.9l-9.8,10.4c-.7.7-1,1.7-.9,2.8.1-.7.4-1.3.9-1.7l9.8-10.4c.5-.6,1.3-.9,2-.9,1.5,0,2.7,1.1,3,2.6.3-1.7-.8-3.3-2.4-3.6-.2,0-.4,0-.6,0Z"/>
  </g>
  <g class="st6">
    <path class="st2" d="M3.2,1.1h57.6c1.8,0,3.2,1.4,3.2,3.2v57.5c0,1.8-1.4,3.2-3.2,3.2H3.2c-1.8,0-3.2-1.4-3.2-3.2V4.3C0,2.6,1.4,1.1,3.2,1.1Z"/>
    <path class="st4" d="M3.2,0h57.6c1.8,0,3.2,1.4,3.2,3.2v57.5c0,1.8-1.4,3.2-3.2,3.2H3.2c-1.8,0-3.2-1.4-3.2-3.2V3.2C0,1.4,1.4,0,3.2,0Z"/>
    <path class="st0" d="M57.6,31.9c-6.4,0-8,6.8-12.8,6.8s-9.6-2.3-14.4-2.3-8,4.6-12.8,4.6-6.4-9.1-11.2-9.1-4.2.7-6.4,1.6v16.6h64v-16.4c-2-1-4.2-1.8-6.4-1.8Z"/>
    <path class="st12" d="M6.4,31.9c-1.9,0-4.2.7-6.4,1.6v1.1c2.2-.9,4.5-1.6,6.4-1.6,4.8,0,6.4,9.1,11.2,9.1s8-4.6,12.8-4.6,9.6,2.3,14.4,2.3,6.4-6.8,12.8-6.8,4.4.8,6.4,1.8v-1.1c-2-1-4.2-1.8-6.4-1.8-6.4,0-8,6.8-12.8,6.8s-9.6-2.3-14.4-2.3-8,4.6-12.8,4.6-6.4-9.1-11.2-9.1Z"/>
    <path class="st23" d="M57.6,41.1c-6.4,0-8,6.8-12.8,6.8s-9.6-2.3-14.4-2.3-8,4.6-12.8,4.6-6.4-9.1-11.2-9.1S2.2,41.8,0,42.7v8.9h0c0,4.3,3.5,7.8,7.8,7.8h48.5c4.3,0,7.8-3.5,7.8-7.8h0v-8.7c-2-1-4.2-1.8-6.4-1.8Z"/>
    <path class="st12" d="M6.4,41.1c-1.9,0-4.2.7-6.4,1.6v1.1c2.2-.9,4.5-1.6,6.4-1.6,4.8,0,6.4,9.1,11.2,9.1s8-4.6,12.8-4.6,9.6,2.3,14.4,2.3,6.4-6.8,12.8-6.8,4.4.8,6.4,1.8v-1.1c-2-1-4.2-1.8-6.4-1.8-6.4,0-8,6.8-12.8,6.8s-9.6-2.3-14.4-2.3-8,4.6-12.8,4.6-6.4-9.1-11.2-9.1Z"/>
    <path class="st21" d="M20.6,45.6h38.4c0,1.6-9.7,12.8-14.4,12.8h-14c-10,0-10-8-10-12.8Z"/>
    <rect class="st21" x="46.4" y="18.2" width="1.6" height="27.4"/>
    <rect class="st21" x="29.7" y="39.5" width="16.7" height="1.6"/>
    <path class="st11" d="M41.3,10.3s7,10.9,6.7,31.9h-14.4c4.5-9.6,6.9-20.6,7.7-31.9Z"/>
    <path class="st19" d="M41.3,9.1s7,10.9,6.7,31.9h-14.4c4.5-9.6,6.9-20.6,7.7-31.9Z"/>
    <ellipse class="st11" cx="16" cy="17.1" rx="8" ry="8"/>
    <ellipse class="st14" cx="16" cy="16" rx="8" ry="8"/>
    <path class="st20" d="M57.6,50.4c-6.4,0-8,6.8-12.8,6.8s-9.6-2.3-14.4-2.3-8,4.6-12.8,4.6-6.4-9.1-11.2-9.1-4.2.7-6.4,1.6H0c0,6.7,5.3,12.1,11.9,12.1h40.4c6.4,0,11.6-5.2,11.6-11.6v-.2c-2-1-4.2-1.8-6.4-1.8Z"/>
    <path class="st3" d="M3.2,0C1.4,0,0,1.4,0,3.2v1.1C0,2.6,1.4,1.1,3.2,1.1h57.6c1.8,0,3.2,1.4,3.2,3.2v-1.1c0-1.8-1.4-3.2-3.2-3.2H3.2Z"/>
    <path class="st12" d="M6.4,50.2c-1.9,0-4.2.7-6.4,1.6v1.1c2.2-.9,4.5-1.6,6.4-1.6,4.8,0,6.4,9.1,11.2,9.1s8-4.6,12.8-4.6,9.6,2.3,14.4,2.3,6.4-6.8,12.8-6.8,4.4.8,6.4,1.8v-1.1c-2-1-4.2-1.8-6.4-1.8-6.4,0-8,6.8-12.8,6.8s-9.6-2.3-14.4-2.3-8,4.6-12.8,4.6-6.4-9.1-11.2-9.1Z"/>
  </g>
  <g class="st6">
    <path class="st2" d="M31.9,1.1c-1.9,0-3.8.5-5.5,1.4l-5.5,2.9-6,3.1-9.5,5c-3.4,1.8-5.5,5.1-5.5,8.7v22.1c0,3.6,2.1,6.9,5.5,8.7l21,11c3.4,1.8,7.6,1.8,11,0l21-11c3.4-1.8,5.5-5.1,5.5-8.7v-22.1c0-3.6-2.2-6.9-5.5-8.7L37.4,2.5c-1.7-.9-3.6-1.4-5.5-1.4Z"/>
    <path class="st7" d="M31.9,0c-1.9,0-3.8.5-5.5,1.4l-5.5,2.9-6,3.1-9.5,5c-3.4,1.8-5.5,5.1-5.5,8.7v22.1c0,3.6,2.1,6.9,5.5,8.7l21,11c3.4,1.8,7.6,1.8,11,0l21-11c3.4-1.8,5.5-5.1,5.5-8.7v-22.1c0-3.6-2.2-6.9-5.5-8.7L37.4,1.4c-1.7-.9-3.6-1.4-5.5-1.4Z"/>
    <path class="st10" d="M20.5,5.7l-5.5,2.9-2.2,1.2v24.7c0,3.8,2.2,7.2,5.8,9.1l6.3,3.3c1.8,1,3.8,1.4,5.8,1.4s4-.5,5.8-1.4l6.3-3.3c3.6-1.9,5.8-5.4,5.8-9.1v-5.4c0-3.8-2.2-7.2-5.8-9.1l-6.3-3.3c-1.8-1-3.8-1.4-5.8-1.4v6.8c5.7,0,10.2,4.1,10.2,9.2s-4.6,9.2-10.2,9.2-10.2-4.6-10.2-8V5.7ZM29.4,15.3c-.6.1-2,.3-2.6.5v6.7c.8-.3,1.7-.5,2.6-.6v-6.6ZM25.6,16.5l-2.6.9v7.6c.7-.7,1.6-1.4,2.6-1.9v-6.6Z"/>
    <path class="st17" d="M20.5,4.5l-5.5,2.9-2.2,1.2v24.7c0,3.8,2.2,7.2,5.8,9.1l6.3,3.3c1.8,1,3.8,1.4,5.8,1.4s4-.5,5.8-1.4l6.3-3.3c3.6-1.9,5.8-5.4,5.8-9.1v-5.4c0-3.8-2.2-7.2-5.8-9.1l-6.3-3.3c-1.8-1-3.8-1.4-5.8-1.4v6.8c5.7,0,10.2,4.1,10.2,9.2s-4.6,9.2-10.2,9.2-10.2-4.6-10.2-8V4.5ZM29.4,14.2c-.6.1-2,.3-2.6.5v6.7c.8-.3,1.7-.5,2.6-.6v-6.6ZM25.6,15.3l-2.6.9v7.6c.7-.7,1.6-1.4,2.6-1.9v-6.6Z"/>
    <path class="st8" d="M31.9,0C30,0,28.1.5,26.5,1.4l-5.5,2.9-6,3.1-9.5,5c-3.4,1.8-5.5,5.1-5.5,8.7v1.1c0-3.6,2.1-6.9,5.5-8.7l9.5-5,6-3.1,5.5-2.9c1.7-.9,3.6-1.4,5.5-1.4s3.8.5,5.5,1.4l21,11c3.4,1.8,5.5,5.1,5.5,8.7v-1.1c0-3.6-2.2-6.9-5.5-8.7L37.4,1.4C35.7.5,33.8,0,31.9,0Z"/>
  </g>
  <g class="st6">
    <path class="st11" d="M32.9,4.5C4.9,4.5,3.9,30.5,3.9,30.5c0,0,0,16,6.3,21.6,9,8.1,15.7,8.4,24.7,8.4s21-10,21-17v-22l3,3-3-8h3l-6-3h3l-6-3h3s-8-6-20-6Z"/>
    <path class="st1" d="M32.9,3.5C4.9,3.5,3.9,29.5,3.9,29.5c0,0,0,16,6.3,21.6,9,8.1,15.7,8.4,24.7,8.4s21-10,21-17v-22l3,3-3-8h3l-6-3h3l-6-3h3s-8-6-20-6Z"/>
    <path class="st11" d="M29.9,29.5c-6,0-8,6-8,6h20s-6-6-12-6ZM52.9,32.5c-4,0-8,3-8,3h11s0-3-3-3Z"/>
    <path class="st14" d="M29.9,28.5c-6,0-8,6-8,6h20s-6-6-12-6ZM52.9,31.5c-4,0-8,3-8,3h11s0-3-3-3Z"/>
    <path class="st13" d="M32.9,3.5C4.9,3.5,3.9,29.5,3.9,29.5c0,0,0,.3,0,.8,0-1.1,1.6-25.8,29-25.8s15.6,3.3,18.5,5h1.5s-8-6-20-6ZM49.9,10.5l4,2h2l-4-2h-2ZM52.9,13.5l4,2h2l-4-2h-2ZM55.9,16.5l2.4,6.4.6.6-2.6-7h-.4Z"/>
  </g>
  <g class="st6">
    <g>
      <path class="st11" d="M30.1,3.5c28,0,29,26,29,26,0,0,0,16-6.3,21.6-9,8.1-15.7,8.4-24.7,8.4S7.1,49.5,7.1,42.5v-22l-3,3,3-8h-3l6-3h-3l6-3h-3S18.1,3.5,30.1,3.5Z"/>
      <path class="st1" d="M30.1,2.5c28,0,29,26,29,26,0,0,0,16-6.3,21.6-9,8.1-15.7,8.4-24.7,8.4S7.1,48.5,7.1,41.5v-22l-3,3,3-8h-3l6-3h-3l6-3h-3S18.1,2.5,30.1,2.5Z"/>
      <path class="st11" d="M33.1,28.5c6,0,8,6,8,6h-20s6-6,12-6ZM10.1,31.5c4,0,8,3,8,3H7.1s0-3,3-3Z"/>
      <path class="st14" d="M33.1,27.5c6,0,8,6,8,6h-20s6-6,12-6ZM10.1,30.5c4,0,8,3,8,3H7.1s0-3,3-3Z"/>
      <path class="st13" d="M30.1,2.5c28,0,29,26,29,26,0,0,0,.3,0,.8,0-1.1-1.6-25.8-29-25.8s-15.6,3.3-18.5,5h-1.5S18.1,2.5,30.1,2.5ZM13.1,9.5l-4,2h-2l4-2h2ZM10.1,12.5l-4,2h-2l4-2h2ZM7.1,15.5l-2.4,6.4-.6.6,2.6-7h.4Z"/>
    </g>
    <circle class="st11" cx="47.1" cy="46.5" r="15"/>
    <circle class="st18" cx="47.1" cy="45.5" r="15"/>
    <path class="st15" d="M47.1,38.5s-.9,0-1.9.5c-.9.5-2,1.7-2.1,3.5h2.7c.1-1.2,1.3-1.2,1.3-1.2,0,0,1.3,0,1.3,1.4s-.2,1.2-.5,1.6c-.4.5-.9.9-1.6,1.5-.7.5-1.4,1.1-2.1,2-.6.8-1.1,2-1.1,3.4v1.4h8v-3h-4.9c0,0,0,0,0,0,.4-.5.9-.9,1.6-1.5s1.4-1.1,2.1-2c.6-.8,1.1-2,1.1-3.4s-1.1-3.2-2.1-3.7c-1-.5-1.9-.5-1.9-.5Z"/>
  </g>
  <g>
    <ellipse class="st2" cx="32" cy="33.1" rx="32" ry="32"/>
    <ellipse class="st9" cx="32" cy="32" rx="32" ry="32"/>
    <path class="st8" d="M32,0C14.3,0,0,14.3,0,32c0,.2,0,.4,0,.7C.3,15.2,14.5,1.2,32,1.1c17.4,0,31.6,13.9,32,31.3,0-.2,0-.3,0-.5C64,14.3,49.7,0,32,0Z"/>
    <path class="st11" d="M32,6.9c-14.5,0-26.3,11.8-26.3,26.3s11.8,26.3,26.3,26.3,26.3-11.8,26.3-26.3h0c0-14.5-11.8-26.3-26.3-26.3ZM32,13.7c9.4,0,17.5,6.7,19.1,16h-10.6c-1.4-3.4-4.7-5.7-8.5-5.7-5,0-9.1,4.1-9.1,9.1s4.1,9.1,9.1,9.1c3.7,0,7.1-2.3,8.5-5.7h10.6c-1.7,9.2-9.7,16-19.1,16-10.7,0-19.4-8.7-19.4-19.4h0c0-10.7,8.7-19.4,19.4-19.4Z"/>
    <path class="st14" d="M32,5.7c-14.5,0-26.3,11.8-26.3,26.3s11.8,26.3,26.3,26.3,26.3-11.8,26.3-26.3S46.5,5.7,32,5.7ZM32,12.6c9.4,0,17.5,6.7,19.1,16h-10.6c-1.4-3.4-4.7-5.7-8.5-5.7-5,0-9.1,4.1-9.1,9.1s4.1,9.1,9.1,9.1c3.7,0,7.1-2.3,8.5-5.7h10.6c-1.7,9.2-9.7,16-19.1,16-10.7,0-19.4-8.7-19.4-19.4h0c0-10.7,8.7-19.4,19.4-19.4Z"/>
  </g>
</svg>