<?xml version="1.0" encoding="UTF-8" standalone="no"?>
<svg
   id="_图层_1"
   version="1.1"
   viewBox="0 0 64 64" width="22" height="22"
   sodipodi:docname="com.github.bleakgrey.transporter.svg"
   xml:space="preserve"
   inkscape:version="1.4 (e7c3feb100, 2024-10-09)"
   xmlns:inkscape="http://www.inkscape.org/namespaces/inkscape"
   xmlns:sodipodi="http://sodipodi.sourceforge.net/DTD/sodipodi-0.dtd"
   xmlns="http://www.w3.org/2000/svg"
   xmlns:svg="http://www.w3.org/2000/svg"><sodipodi:namedview
     id="namedview26"
     pagecolor="#505050"
     bordercolor="#eeeeee"
     borderopacity="1"
     inkscape:showpageshadow="0"
     inkscape:pageopacity="0"
     inkscape:pagecheckerboard="0"
     inkscape:deskcolor="#505050"
     inkscape:zoom="10.6875"
     inkscape:cx="32"
     inkscape:cy="24.51462"
     inkscape:window-width="1920"
     inkscape:window-height="939"
     inkscape:window-x="0"
     inkscape:window-y="34"
     inkscape:window-maximized="1"
     inkscape:current-layer="_图层_1" /><!-- Generator: Adobe Illustrator 29.0.1, SVG Export Plug-In . SVG Version: 2.1.0 Build 192)  --><defs
     id="defs6"><style
       id="style1">
      .st0 {
        fill-opacity: .5;
      }

      .st0, .st1, .st2, .st3, .st4, .st5, .st6, .st7 {
        fill: #fff;
      }

      .st8 {
        fill: #133c9a;
      }

      .st2, .st9 {
        display: none;
      }

      .st3 {
        fill-opacity: .2;
      }

      .st4 {
        fill-opacity: .9;
      }

      .st10 {
        fill: #3370ff;
      }

      .st11 {
        fill: url(#_未命名的渐变_3);
      }

      .st12 {
        fill: url(#_未命名的渐变);
      }

      .st5 {
        fill-opacity: .3;
      }

      .st6 {
        fill-opacity: 0;
      }

      .st7 {
        fill-opacity: .7;
      }

      .st13 {
        fill: #00d6b9;
      }

      .st14 {
        fill: url(#_未命名的渐变_2);
      }
    </style><radialGradient
       id="_未命名的渐变"
       data-name="未命名的渐变"
       cx="123.9"
       cy="-40.2"
       fx="123.9"
       fy="-40.2"
       r="59.4"
       gradientTransform="translate(-26.8 25.5) scale(.6 -.7)"
       gradientUnits="userSpaceOnUse"><stop
         offset="0"
         stop-color="#db202e"
         id="stop1" /><stop
         offset="1"
         stop-color="#e01b24"
         id="stop2" /></radialGradient><radialGradient
       id="_未命名的渐变_2"
       data-name="未命名的渐变 2"
       cx="67.6"
       cy="26.8"
       fx="67.6"
       fy="26.8"
       r="105.2"
       gradientTransform="translate(-26.6 25.3) scale(.6 -.7)"
       gradientUnits="userSpaceOnUse"><stop
         offset="0"
         stop-color="#ffb648"
         id="stop3" /><stop
         offset="1"
         stop-color="#ff7800"
         stop-opacity="0"
         id="stop4" /></radialGradient><radialGradient
       id="_未命名的渐变_3"
       data-name="未命名的渐变 3"
       cx="61.7"
       cy="18.6"
       fx="61.7"
       fy="18.6"
       r="68"
       gradientTransform="translate(-26.8 25.8) scale(.6 -.7)"
       gradientUnits="userSpaceOnUse"><stop
         offset="0"
         stop-color="#c64600"
         id="stop5" /><stop
         offset="1"
         stop-color="#a51d2d"
         id="stop6" /></radialGradient></defs><path
     class="st1"
     d="M47.5,64.1H13.8c-7.6,0-13.8-6.3-13.8-13.8V13.7C0,6.2,6.2,0,13.7,0h36.6c7.5,0,13.7,6.2,13.7,13.7v36.6c0,7.5-6.2,13.7-13.7,13.7h-2.9.1Z"
     id="path6"
     style="fill:#a85bef;fill-opacity:1" /><g
     id="g26"
     transform="matrix(1.1436926,0,0,1.1395301,-4.5045949,-4.5201087)"><circle
       style="fill:#7036a5"
       cx="32"
       cy="32"
       r="28"
       id="circle2" /><path
       style="opacity:0.3"
       d="M 32,12 C 20.954286,12 12,20.954286 12,32 12,43.045714 20.954286,52 32,52 43.045714,52 52,43.045714 52,32 52,20.954286 43.045714,12 32,12 Z m -2.003348,3.822546 c 0.23317,-0.02429 0.52925,0.014 0.764508,0 0.028,0.111542 -0.1693,0.507397 -0.435268,1.088168 -1.693408,3.699412 -1.789272,8.03586 -0.217628,10.351564 0.2844,0.41985 0.541294,0.818592 0.541294,0.870534 0,0.05192 -0.306102,0.10602 -0.652902,0.10602 -0.814122,0 -1.58437,-0.494586 -3.158484,-1.74107 -0.699278,-0.55373 -1.606506,-1.017772 -1.958706,-1.088172 -0.553066,-0.11048 -0.701926,-0.06266 -1.417408,0.652902 -0.665694,0.665574 -0.870538,1.025728 -0.870538,1.635044 0,2.31062 2.741532,4.14239 7.840402,5.223216 6.924458,1.4676 8.631548,2.787438 8.822544,6.42857 0.2398,4.565882 -2.192432,8.009936 -7.51674,10.675224 -0.635492,0.318226 -1.039174,0.438466 -1.305804,0.541294 -0.11814,-0.0106 -0.205856,0.0106 -0.323658,0 -0.0453,-0.14116 -0.1116,-0.467628 -0.1116,-1.088168 0,-2.425078 -0.95363,-4.92106 -2.393972,-6.316966 -0.386636,-0.37475 -1.472506,-1.1672 -2.399556,-1.741072 -0.927014,-0.573836 -1.861884,-1.239036 -2.070314,-1.523436 -0.3454,-0.471962 -0.371396,-0.76317 -0.10602,-1.635046 0.483634,-1.592376 1.057248,-2.481588 2.176342,-3.487724 0.586694,-0.52748 1.17583,-0.965992 1.305802,-0.976562 0.13,-0.0106 -0.745154,-0.276944 -2.064732,-0.546874 -1.319496,-0.270458 -3.254246,-0.838586 -4.252224,-1.199778 -1.824888,-0.66031 -4.283897,-2.043634 -5.223217,-3.046874 -0.03974,-0.04252 -0.07709,-0.07394 -0.1116,-0.1116 1.34582,-5.360904 5.121563,-9.752034 10.128349,-11.869419 1.047608,-0.4431 2.130082,-0.748972 3.270088,-0.982143 0.567844,-0.116058 1.154758,-0.158028 1.741072,-0.217629 z m 16.339284,8.169642 c 0.409362,0.253028 1.952756,3.597626 2.393976,5.228796 0.569654,2.105846 0.528418,5.748456 0,7.8404 -0.201122,0.796204 -0.455552,1.54233 -0.541296,1.635044 -0.08574,0.09272 -0.39875,-0.439988 -0.764508,-1.088168 -0.365796,-0.648076 -1.534586,-2.027924 -2.505582,-3.052458 -2.802754,-2.957472 -3.244338,-4.497938 -2.070312,-6.858258 0.592066,-1.190228 3.1709,-3.9009 3.487722,-3.705356 z"
       id="path3" /><path
       style="opacity:0.2"
       d="m 32,5.000016 v 8 c 11.045694,0 20,8.954306 20,20 h -6 l 4.5,8 3.835938,6.816406 A 28,28 0 0 0 59.945312,31.95314 c -0.0221,-0.452052 -0.02828,-0.907832 -0.0664,-1.355468 a 28,28 0 0 0 -0.179694,-1.472656 c -0.05934,-0.42754 -0.1169,-0.856206 -0.19532,-1.277344 a 28,28 0 0 0 -0.359374,-1.605468 c -0.08596,-0.346264 -0.1669,-0.694118 -0.265626,-1.035156 a 28,28 0 0 0 -0.578124,-1.738282 c -0.10504,-0.289668 -0.202178,-0.582062 -0.316406,-0.867188 a 28,28 0 0 0 -0.769532,-1.714844 c -0.12904,-0.268058 -0.249472,-0.541452 -0.38672,-0.804686 a 28,28 0 0 0 -0.882804,-1.54297 C 55.766128,18.243032 55.59596,17.941102 55.40625,17.65236 a 28,28 0 0 0 -0.949218,-1.324219 c -0.228082,-0.306728 -0.447342,-0.621075 -0.6875,-0.917969 a 28,28 0 0 0 -1.089844,-1.242187 c -0.240496,-0.263952 -0.468444,-0.538399 -0.71875,-0.792969 a 28,28 0 0 0 -1.320314,-1.226562 c -0.235186,-0.210385 -0.45698,-0.434269 -0.699218,-0.636719 A 28,28 0 0 0 48.195312,10.18361 c -0.14268,-0.10146 -0.27722,-0.21366 -0.421874,-0.3125 A 28,28 0 0 0 45.503906,8.4765784 28,28 0 0 0 45.421876,8.421891 28,28 0 0 0 37.5625,5.5586098 28,28 0 0 0 34.800782,5.140641 C 33.879476,5.049125 32.945388,5.000016 32,5.000016 Z M 9.015625,17.02736 a 28,28 0 0 0 -0.117188,0.15625 28,28 0 0 0 -0.00782,0.0078 L 6.6757812,21.132828 A 28,28 0 0 0 4,33.000016 28,28 0 0 1 4.0429688,32.171892 28,28 0 0 0 32,59.000016 v -6 c -11.045694,0 -20,-8.954306 -20,-20 h 6 l -4.5,-8 z M 60,33.000016 A 28,28 0 0 1 59.953124,34.320328 28,28 0 0 0 60,33.000016 Z m -0.21875,3.207032 a 28,28 0 0 1 -0.10938,0.910156 28,28 0 0 0 0.10938,-0.910156 z M 4.2890624,36.781266 a 28,28 0 0 0 0.01172,0.09374 c 0.05934,0.42754 0.116894,0.856206 0.195312,1.277344 A 28,28 0 0 1 4.2890624,36.781266 Z M 59.257812,39.24611 a 28,28 0 0 1 -0.10938,0.5 28,28 0 0 0 0.10938,-0.5 z M 4.796875,39.503922 a 28,28 0 0 0 0.058594,0.253906 c 0.08596,0.346264 0.16691,0.694118 0.265625,1.035156 a 28,28 0 0 0 0.027344,0.08204 28,28 0 0 1 -0.3515626,-1.371094 z m 53.648437,2.597656 a 28,28 0 0 1 -0.08594,0.253906 28,28 0 0 0 0.08594,-0.253906 z M 5.59375,42.210958 a 28,28 0 0 0 0.105468,0.320312 c 0.105032,0.289668 0.2021768,0.582062 0.3164062,0.867188 a 28,28 0 0 0 0.058594,0.13282 28,28 0 0 1 -0.4804688,-1.320312 z m 1.0703124,2.632812 a 28,28 0 0 0 0.121094,0.269532 c 0.12904,0.268058 0.2494742,0.541452 0.3867188,0.804686 a 28,28 0 0 0 0.058594,0.10546 28,28 0 0 1 -0.5664064,-1.179688 z m 1.2890626,2.441406 a 28,28 0 0 0 0.101562,0.17578 c 0.179184,0.296046 0.3493522,0.597976 0.5390624,0.886718 a 28,28 0 0 0 0.09375,0.13282 28,28 0 0 1 -0.734375,-1.195312 z m 47.277343,1.308594 a 28,28 0 0 1 -0.257812,0.359374 l 0.0118,0.0196 a 28,28 0 0 0 0.11718,-0.15626 28,28 0 0 0 0.0078,-0.0078 z M 9.4804688,49.582048 a 28,28 0 0 0 0.0625,0.08984 c 0.2280824,0.306724 0.447342,0.621074 0.6875002,0.917968 a 28,28 0 0 0 0.105468,0.1211 28,28 0 0 1 -0.855469,-1.128906 z m 1.7734372,2.171874 a 28,28 0 0 0 0.06641,0.07812 c 0.240496,0.263952 0.468445,0.538398 0.71875,0.792968 a 28,28 0 0 0 0.175782,0.16406 28,28 0 0 1 -0.960937,-1.035156 z m 2.105469,2.097656 c 0.235187,0.210384 0.456981,0.43427 0.699219,0.63672 a 28,28 0 0 0 0.210937,0.16016 28,28 0 0 1 -0.910156,-0.796876 z m 2.078125,1.683594 a 28,28 0 0 0 0.367188,0.28125 c 0.142688,0.10146 0.277219,0.21366 0.421874,0.3125 A 28,28 0 0 0 16.5,56.296892 28,28 0 0 1 15.4375,55.535172 Z m 2.324219,1.539062 a 28,28 0 0 0 0.734375,0.44922 28,28 0 0 0 0.08203,0.05468 28,28 0 0 0 0.429687,0.207032 28,28 0 0 1 -1.246093,-0.710938 z m 2.316405,1.226564 a 28,28 0 0 0 1.429688,0.640624 28,28 0 0 1 -1.429688,-0.640624 z m 2.714844,1.109374 a 28,28 0 0 0 1.316408,0.4375 28,28 0 0 1 -1.316408,-0.4375 z m 2.722656,0.796876 a 28,28 0 0 0 0.921876,0.234374 28,28 0 0 0 0.386718,0.0586 28,28 0 0 1 -1.308594,-0.292968 z m 2.73047,0.507812 a 28,28 0 0 0 0.953124,0.14454 c 0.1349,0.0134 0.274712,0.008 0.410158,0.0196 a 28,28 0 0 1 -1.363282,-0.16406 z"
       id="path4" /><path
       style="fill:#a85bef"
       d="m 32,4 v 8 c 11.045694,0 20,8.954306 20,20 h -6 l 4.5,8 4.484376,7.972656 a 28,28 0 0 0 0.11718,-0.15626 28,28 0 0 0 0.0078,-0.0078 L 57.324198,43.86719 A 28,28 0 0 0 60,32 c 0,-0.810906 -0.05354,-1.608926 -0.1211,-2.402344 A 28,28 0 0 0 59.699218,28.125 c -0.05934,-0.42754 -0.1169,-0.856206 -0.19532,-1.277344 a 28,28 0 0 0 -0.359374,-1.605468 c -0.08596,-0.346264 -0.1669,-0.694118 -0.265626,-1.035156 A 28,28 0 0 0 58.300774,22.46875 c -0.10504,-0.289668 -0.202176,-0.582062 -0.316406,-0.867188 a 28,28 0 0 0 -0.769524,-1.714843 c -0.12904,-0.268058 -0.249474,-0.541454 -0.38672,-0.804688 A 28,28 0 0 0 55.945312,17.539062 C 55.766128,17.243016 55.59596,16.941086 55.40625,16.652344 A 28,28 0 0 0 54.457032,15.328125 C 54.22895,15.021397 54.00969,14.70705 53.769532,14.410156 A 28,28 0 0 0 52.679688,13.167969 C 52.439192,12.904017 52.211244,12.62957 51.960938,12.375 a 28,28 0 0 0 -1.320314,-1.226562 c -0.235186,-0.210385 -0.45698,-0.434269 -0.699218,-0.636719 A 28,28 0 0 0 48.195312,9.1835938 c -0.14268,-0.10146 -0.27722,-0.21366 -0.421874,-0.3125 A 28,28 0 0 0 45.503906,7.4765624 28,28 0 0 0 45.421876,7.421875 28,28 0 0 0 37.5625,4.5585938 28,28 0 0 0 34.800782,4.140625 C 33.879476,4.049109 32.945388,4 32,4 Z M 9.015625,16.027344 a 28,28 0 0 0 -0.117188,0.15625 28,28 0 0 0 -0.00782,0.0078 L 6.6757812,20.132812 A 28,28 0 0 0 4,32 c 0,0.810906 0.053536,1.608926 0.121094,2.402344 A 28,28 0 0 0 4.300782,35.875 c 0.05934,0.42754 0.116894,0.856206 0.195312,1.277344 a 28,28 0 0 0 0.359375,1.605468 c 0.08596,0.346264 0.16691,0.694118 0.265625,1.035156 a 28,28 0 0 0 0.578125,1.738282 c 0.105032,0.289668 0.2021768,0.582062 0.3164062,0.867188 a 28,28 0 0 0 0.7695312,1.714844 c 0.12904,0.268058 0.2494742,0.541452 0.3867188,0.804686 a 28,28 0 0 0 0.8828126,1.54297 c 0.179184,0.296046 0.3493522,0.597976 0.5390624,0.886718 a 28,28 0 0 0 0.9492188,1.32422 c 0.2280824,0.306726 0.447342,0.621074 0.6875,0.917968 a 28,28 0 0 0 1.089844,1.242188 c 0.240495,0.263952 0.468444,0.538398 0.71875,0.792968 a 28,28 0 0 0 1.320312,1.226562 c 0.235187,0.210384 0.456981,0.43427 0.699219,0.63672 a 28,28 0 0 0 1.746094,1.328124 c 0.142688,0.10146 0.27722,0.21366 0.421875,0.3125 a 28,28 0 0 0 2.269531,1.394532 28,28 0 0 0 0.08203,0.05468 28,28 0 0 0 7.859376,2.863282 28,28 0 0 0 2.761718,0.41797 C 30.120524,59.950892 31.054612,60 32,60 V 52 C 20.954306,52 12,43.045694 12,32 h 6 l -4.5,-8 z"
       id="path5" /></g></svg>
