<?xml version="1.0" encoding="UTF-8"?>
<svg id="_图层_1" xmlns="http://www.w3.org/2000/svg" version="1.1" viewBox="0 0 64 64" width="22" height="22">
  <!-- Generator: Adobe Illustrator 29.0.1, SVG Export Plug-In . SVG Version: 2.1.0 Build 192)  -->
  <defs>
    <style>
      .st0, .st1 {
        fill: #4f4f4f;
      }

      .st2 {
        fill: #9c27b0;
      }

      .st3 {
        fill: #ffc107;
      }

      .st4 {
        fill: #ab70ff;
      }

      .st5, .st6, .st7, .st8, .st9, .st10, .st11, .st1 {
        display: none;
      }

      .st5, .st12 {
        fill: #3f3f3f;
      }

      .st13 {
        fill: #009688;
      }

      .st14 {
        fill: #4254cd;
      }

      .st6, .st7, .st15, .st16, .st17, .st18, .st19, .st11, .st20 {
        isolation: isolate;
      }

      .st6, .st15, .st18, .st19, .st11 {
        opacity: .2;
      }

      .st7, .st21, .st19, .st11, .st20 {
        fill: #fff;
      }

      .st7, .st16, .st20 {
        opacity: .1;
      }

      .st15, .st22 {
        fill-rule: evenodd;
      }

      .st23 {
        fill: #c9c9c9;
      }

      .st24 {
        fill: #f44336;
      }

      .st25 {
        fill: #0f87a6;
      }

      .st26 {
        fill: #2196f3;
      }

      .st27 {
        fill: #68c7ff;
      }

      .st28 {
        fill: #00bcd4;
      }

      .st29 {
        fill: #3f51b5;
      }

      .st30 {
        fill: #1d7a4f;
      }

      .st22 {
        fill: #fffee4;
      }

      .st17 {
        fill: none;
        opacity: .5;
        stroke: #000;
        stroke-linecap: round;
        stroke-linejoin: round;
        stroke-width: 3px;
      }

      .st8 {
        fill: #ab47bc;
      }

      .st31 {
        fill: #ff5722;
      }

      .st32, .st9 {
        fill: #ff766a;
      }

      .st33 {
        fill: #ff639c;
      }

      .st34 {
        fill: #33d17a;
      }

      .st35 {
        fill: #d22f7a;
      }

      .st36 {
        fill: #ffeb3b;
      }

      .st37 {
        fill: #ffdb49;
      }

      .st38 {
        fill: #e4e4e4;
      }

      .st39 {
        fill: #8bc34a;
      }

      .st40 {
        fill: #3afee4;
      }

      .st41 {
        fill: #b1f145;
      }

      .st42 {
        fill: #6b6a6e;
      }
    </style>
  </defs>
  <path class="st32" d="M50.4,64H13.8c-7.6,0-13.8-6.2-13.8-13.7V13.7C0,6.2,6.2,0,13.7,0h36.6c7.5,0,13.7,6.2,13.7,13.7v36.6c0,7.5-6.2,13.7-13.7,13.7h.1Z"/>
  <g class="st10">
    <path class="st6" d="M20.2,1.1l-6.3,5.5c0,0-.7-.4-1.4-.6-1.8-.5-4.1-.4-5.6.2-1,.4-1.4.7-3.8,2.7-2.6,2.2-3.1,2.7-3.1,3.2s.9,1.3,1.4,2.2l.8,1.7-1.1,2.5C.6,19.9,0,21.1,0,21.2c0,.2,8.3,27.9,8.7,28.8.8,1.6,2,3.1,3.7,4.3,1.5,1.1,16.3,9.7,17.8,10.4.4.2,1.1.3,1.7.3.6,0,1.3-.1,1.7-.3,1.5-.6,16.3-9.3,17.8-10.4,1.6-1.2,2.9-2.6,3.7-4.3.4-.9,8.8-28.5,8.7-28.8,0,0-.5-1.3-1.1-2.7l-1.1-2.5.8-1.7c.5-.9,1.4-2.1,1.4-2.2,0-.5-.5-1-3.1-3.2-2.4-2-2.8-2.3-3.8-2.7-1.5-.6-3.8-.7-5.6-.2-.7.2-1.3.6-1.4.6l-6.3-5.5h-23.6Z"/>
    <path class="st8" d="M20.2,0l-6.3,5.5c0,0-.7-.4-1.4-.6-1.8-.5-4.1-.4-5.6.2-1,.4-1.4.7-3.8,2.7-2.6,2.2-3.1,2.7-3.1,3.2s.9,1.3,1.4,2.2l.8,1.7-1.1,2.5C.6,18.7,0,20,0,20c0,.2,8.3,27.9,8.7,28.8.8,1.6,2,3.1,3.7,4.3,1.5,1.1,16.3,9.7,17.8,10.4.4.2,1.1.3,1.7.3.6,0,1.3-.1,1.7-.3,1.5-.6,16.3-9.3,17.8-10.4,1.6-1.2,2.9-2.6,3.7-4.3.4-.9,8.8-28.5,8.7-28.8,0,0-.5-1.3-1.1-2.7l-1.1-2.5.8-1.7c.5-.9,1.4-2.1,1.4-2.2,0-.5-.5-1-3.1-3.2-2.4-2-2.8-2.3-3.8-2.7-1.5-.6-3.8-.7-5.6-.2-.7.2-1.3.6-1.4.6l-6.3-5.5h-23.6Z"/>
    <path class="st18" d="M35,49.5s3.3-1.8,6.2-3.6c1.6-1,1.9-1.3,1.6-1.6-.2-.3-5.5-2.5-8-3.4-2.7-.9-2.9-.9-5.5,0-2.3.8-7.5,3-8,3.4-.5.4-.2.7.9,1.4,2.3,1.4,6.8,4,6.8,4,3,2.2,2.8,2.2,5.9,0h0ZM22.7,41.6c3.2-1.3,3.6-1.5,6.1-3.4,2-1.5,2.4-2,2.1-2.6,0-.2-1.6-1.4-3.4-2.7-4.2-3-4-2.6-2.4-5.9.9-1.9,1.2-2.6,1.2-3.1,0-.8-.4-1.4-1.1-1.8-.3-.2-2.8-1-5.6-1.9-2.8-.9-5.1-1.7-5.1-1.8,0-.2,3.1-.5,5.4-.5h1.7s3.1.9,3.1.9c2.7.8,3.2,1,3.4,1.3.1.2.2.5.2.6,0,.1-.5,2.1-1.1,4.3-1.1,3.9-1.1,4.1-.8,4.3.4.4,4.8,1.3,6.2,1.2,1.6-.1,4.7-.9,5.1-1.2.3-.2.2-.5-.8-4.3-.6-2.2-1.1-4.2-1.1-4.3,0-.1.1-.4.2-.6.2-.3.6-.5,3-1.2,3.9-1.2,3.8-1.2,7.4-.9,1.7.1,3.1.3,3.2.3,0,0,0,.2-.2.2-.2,0-2.5.8-5.1,1.6-2.6.8-5,1.7-5.3,1.8-.8.4-1.2,1-1.2,1.9,0,.5.2,1.2,1.2,3.1.6,1.3,1.2,2.5,1.2,2.7,0,.6-.5,1.1-3.5,3.2-1.7,1.2-3.2,2.4-3.3,2.6-.1.2-.2.6-.2.7,0,.3,2.1,2,4.2,3.4.9.6,6.1,3.4,7,3.5.7,0,1.5-.8,2.7-1.7,1.2-.9,1.9-1.7,2.4-2.9.5-1.1.3-1.8-.6-3.6-.7-1.3-.9-2.1-.6-2.6,0-.1,1.9-1.6,4.2-3.4,4.9-3.8,6-4.5,6.3-5.1.3-.8,0-2.9-.6-3.9-1.6-2.4-8.2-9.8-8.8-9.8-2.9.4-5.3,1.3-8.4,1.7-.2,0-1.3-.2-2.3-.5-4.3-1.1-5.7-1.2-6.5-1.2s-2.2,0-6.5,1.2c-1,.3-2,.5-2.3.5-3-.4-5.2-1.4-8.4-1.7-.5.3-4.8,5.3-6.6,7.5-2.1,2.6-2.7,4.1-2.9,5.1-.2,1.4.4,1.6,6.6,6.5,2.1,1.6,3.9,3.1,3.9,3.2.2.5,0,1.3-.6,2.6-.9,1.9-1,2.4-.6,3.5.5,1.2,1.3,2.2,2.6,3.1,1.2.8,1.6,1.6,2.3,1.6.2,0,1.6-1.1,3.1-1.7Z"/>
    <path class="st21" d="M35,48.4s3.3-1.8,6.2-3.6c1.6-1,1.9-1.3,1.6-1.6-.2-.3-5.5-2.5-8-3.4-2.7-.9-2.9-.9-5.5,0-2.3.8-7.5,3-8,3.4-.5.4-.2.7.9,1.4,2.3,1.4,6.8,4,6.8,4,3,2.2,2.8,2.2,5.9,0h0ZM22.7,40.5c3.2-1.3,3.6-1.5,6.1-3.4,2-1.5,2.4-2,2.1-2.6,0-.2-1.6-1.4-3.4-2.7-4.2-3-4-2.6-2.4-5.9.9-1.9,1.2-2.6,1.2-3.1,0-.8-.4-1.4-1.1-1.8-.3-.2-2.8-1-5.6-1.9-2.8-.9-5.1-1.7-5.1-1.8,0-.2,3.1-.5,5.4-.5h1.7s3.1.9,3.1.9c2.7.8,3.2,1,3.4,1.3.1.2.2.5.2.6,0,.1-.5,2.1-1.1,4.3-1.1,3.9-1.1,4.1-.8,4.3.4.4,4.8,1.3,6.2,1.2,1.6-.1,4.7-.9,5.1-1.2.3-.2.2-.5-.8-4.3-.6-2.2-1.1-4.2-1.1-4.3,0-.1.1-.4.2-.6.2-.3.6-.5,3-1.2,3.9-1.2,3.8-1.2,7.4-.9,1.7.1,3.1.3,3.2.3,0,0,0,.2-.2.2-.2,0-2.5.8-5.1,1.6-2.6.8-5,1.7-5.3,1.8-.8.4-1.2,1-1.2,1.9,0,.5.2,1.2,1.2,3.1.6,1.3,1.2,2.5,1.2,2.7,0,.6-.5,1.1-3.5,3.2-1.7,1.2-3.2,2.4-3.3,2.6-.1.2-.2.6-.2.7,0,.3,2.1,2,4.2,3.4.9.6,6.1,3.4,7,3.5.7,0,1.5-.8,2.7-1.7,1.2-.9,1.9-1.7,2.4-2.9.5-1.1.3-1.8-.6-3.6-.7-1.3-.9-2.1-.6-2.6,0-.1,1.9-1.6,4.2-3.4,4.9-3.8,6-4.5,6.3-5.1.3-.8,0-2.9-.6-3.9-1.6-2.4-8.2-9.8-8.8-9.8-2.9.4-5.3,1.3-8.4,1.7-.2,0-1.3-.2-2.3-.5-4.3-1.1-5.7-1.2-6.5-1.2s-2.2,0-6.5,1.2c-1,.3-2,.5-2.3.5-3-.4-5.2-1.4-8.4-1.7-.5.3-4.8,5.3-6.6,7.5-2.1,2.6-2.7,4.1-2.9,5.1-.2,1.4.4,1.6,6.6,6.5,2.1,1.6,3.9,3.1,3.9,3.2.2.5,0,1.3-.6,2.6-.9,1.9-1,2.4-.6,3.5.5,1.2,1.3,2.2,2.6,3.1,1.2.8,1.6,1.6,2.3,1.6.2,0,1.6-1.1,3.1-1.7Z"/>
    <path class="st7" d="M20.2,0l-6.3,5.5c0,0-.7-.4-1.4-.6-1.8-.5-4.1-.4-5.6.2-1,.4-1.4.7-3.8,2.7-2.6,2.2-3.1,2.7-3.1,3.2s.2.3.3.5c.4-.5,1.1-1.1,2.8-2.5,2.4-2,2.8-2.3,3.8-2.7,1.5-.6,3.8-.7,5.6-.2.7.2,1.3.6,1.4.6l6.3-5.5h23.6l6.3,5.5c0,0,.7-.4,1.4-.6,1.8-.5,4.1-.4,5.6.2,1,.4,1.4.7,3.8,2.7,1.7,1.4,2.4,2.1,2.8,2.5.1-.2.3-.5.3-.5,0-.5-.5-1-3.1-3.2-2.4-2-2.8-2.3-3.8-2.7-1.5-.6-3.8-.7-5.6-.2-.7.2-1.3.6-1.4.6l-6.3-5.5h-23.6ZM2,15.4l-.8,1.9C.6,18.7,0,20,0,20c0,0,.2.6.2.7.2-.4.5-1.1.9-2.2l1.1-2.5-.3-.5ZM62,15.4l-.3.5,1.1,2.5c.5,1.2.8,1.9.9,2.2,0,0,.2-.7.2-.7,0,0-.5-1.3-1.1-2.7l-.8-1.9Z"/>
  </g>
  <g class="st10">
    <path class="st18" d="M11.1,5.5c-.6,0-1.1,0-1.7.2l2.2,2.6c3.5.6,6.7,2.5,9.2,5.4,2.4,2.9,4,6.7,4.4,10.8l2.6,3.1c1-6-.6-12.1-4.2-16.4-3.2-3.8-7.7-5.8-12.3-5.6ZM51.1,5.5c-4.5-.3-9,1.8-12.2,5.6-3.6,4.3-5.3,10.4-4.5,16.4l2.6-3.1c.5-4.1,2.1-7.9,4.5-10.8,2.5-2.9,5.7-4.8,9.1-5.4l2.2-2.6c-.6-.1-1.1-.2-1.7-.2Z"/>
    <ellipse class="st18" cx="31.1" cy="37.7" rx="16.3" ry="19.3"/>
    <path class="st25" d="M51.1,4.6c-4.5-.3-9,1.8-12.2,5.6-3.6,4.3-5.3,10.4-4.5,16.4l2.6-3c.5-4.1,2.1-7.9,4.5-10.8,2.5-2.9,5.7-4.8,9.1-5.4l2.2-2.6c-.6-.1-1.1-.2-1.7-.2Z"/>
    <path class="st25" d="M11.1,4.6c4.7-.3,9.2,1.8,12.3,5.6,3.6,4.3,5.2,10.4,4.2,16.4l-2.6-3c-.4-4.1-1.9-7.9-4.4-10.8-2.4-2.9-5.7-4.8-9.2-5.4l-2.1-2.6c.6-.1,1.1-.2,1.7-.2Z"/>
    <path class="st19" d="M11.1,4.6c-.6,0-1.1,0-1.7.2l.7.8c.3,0,.7,0,1-.1,4.7-.3,9.2,1.8,12.3,5.6,2.8,3.4,4.4,7.9,4.4,12.7,0,0,0,.1,0,.2.2-5.2-1.4-10.1-4.5-13.8-3.2-3.8-7.7-5.8-12.3-5.6ZM51.1,4.6c-4.5-.3-9,1.8-12.2,5.6-3.2,3.8-4.9,9.1-4.6,14.4,0,0,0,0,0-.1,0-5,1.6-9.8,4.6-13.4,3.2-3.8,7.6-5.8,12.2-5.6.3,0,.6,0,1,.1l.7-.8c-.6-.1-1.1-.2-1.7-.2Z"/>
    <ellipse class="st41" cx="31.1" cy="36.8" rx="16.3" ry="19.3"/>
    <path class="st18" d="M24.3,23.9c-4.3,0-7.8,4.1-7.8,9.2s3.5,9.2,7.8,9.2c2.8,0,5.3-1.8,6.7-4.6,1.4,2.8,3.9,4.6,6.7,4.6,4.3,0,7.8-4.1,7.8-9.2s-3.5-9.2-7.8-9.2c-2.8,0-5.3,1.8-6.7,4.6-1.4-2.8-4-4.6-6.7-4.6Z"/>
    <path class="st17" d="M26.1,49.7s.6,1.4,4.8,1.4,5.1-1.4,5.1-1.4"/>
    <ellipse class="st21" cx="24.3" cy="32.2" rx="7.8" ry="9.2"/>
    <ellipse class="st40" cx="21.5" cy="32.2" rx="3.2" ry="3.7"/>
    <ellipse class="st0" cx="21.5" cy="32.2" rx="2.7" ry="3.2"/>
    <ellipse class="st21" cx="37.8" cy="32.2" rx="7.8" ry="9.2"/>
    <ellipse class="st40" cx="36.1" cy="32.2" rx="3.2" ry="3.7"/>
    <ellipse class="st0" cx="36.1" cy="32.2" rx="2.7" ry="3.2"/>
    <path class="st19" d="M31.1,17.4c-9,0-16.3,8.7-16.3,19.3,0,.1,0,.3,0,.4.2-10.5,7.5-18.8,16.3-18.8,8.8,0,16,8.2,16.3,18.6,0,0,0-.1,0-.2,0-10.7-7.3-19.3-16.3-19.3Z"/>
  </g>
  <g class="st10">
    <path class="st6" d="M3.6,1.1h56.9c2,0,3.6,1.4,3.6,3.2v57.5c0,1.8-1.6,3.2-3.6,3.2H3.6c-2,0-3.6-1.4-3.6-3.2V4.3C0,2.6,1.6,1.1,3.6,1.1Z"/>
    <path class="st1" d="M3.6,0h56.9c2,0,3.6,1.4,3.6,3.2v57.5c0,1.8-1.6,3.2-3.6,3.2H3.6c-2,0-3.6-1.4-3.6-3.2V3.2C0,1.4,1.6,0,3.6,0Z"/>
    <path class="st18" d="M5.1,50.2v8.9c0,.8.6,1.4,1.4,1.4h50.9c.8,0,1.4-.6,1.4-1.4v-8.9H5.1Z"/>
    <path class="st27" d="M6.5,4.6c-.8,0-1.4.6-1.4,1.3v12.4h53.8V5.9c0-.7-.6-1.3-1.4-1.3H6.5Z"/>
    <path class="st4" d="M5.1,18.2v10.3h53.8v-10.3H5.1Z"/>
    <path class="st33" d="M5.1,28.5v10.3h53.8v-10.3H5.1Z"/>
    <path class="st37" d="M5.1,38.8v10.3h53.8v-10.3H5.1Z"/>
    <path class="st23" d="M5.1,49v8.9c0,.8.6,1.4,1.4,1.4h50.9c.8,0,1.4-.6,1.4-1.4v-8.9H5.1Z"/>
    <rect class="st16" x="5.1" y="18.2" width="53.8" height="1.1"/>
    <rect class="st16" x="5.1" y="28.5" width="53.8" height="1.1"/>
    <rect class="st16" x="5.1" y="38.8" width="53.8" height="1.1"/>
    <rect class="st16" x="5.1" y="49" width="53.8" height="1.1"/>
    <path class="st19" d="M6.5,4.6c-.8,0-1.4.6-1.4,1.3v1.1c0-.7.6-1.3,1.4-1.3h50.9c.8,0,1.4.6,1.4,1.3v-1.1c0-.7-.6-1.3-1.4-1.3H6.5Z"/>
    <path class="st7" d="M3.6,0C1.6,0,0,1.4,0,3.2v1.1C0,2.6,1.6,1.1,3.6,1.1h56.9c2,0,3.6,1.4,3.6,3.2v-1.1c0-1.8-1.6-3.2-3.6-3.2H3.6Z"/>
  </g>
  <g class="st10">
    <path class="st6" d="M0,57.6v3.8c0,2.1,1.4,3.8,3.2,3.8h57.6c1.8,0,3.2-1.7,3.2-3.8v-3.8H0Z"/>
    <path class="st5" d="M4.1,1.3h55.9c1.6,0,2.9,1.5,2.9,3.4v54.6c0,1.9-1.3,3.4-2.9,3.4H4.1c-1.6,0-2.9-1.5-2.9-3.4V4.7c0-1.9,1.3-3.4,2.9-3.4Z"/>
    <path class="st18" d="M12.5,53.4c1.5-2.3,2-3.1,2.6-4.6,1.4-3.2,1.9-5.5,1.9-9.1,0-2.9-.2-4.4-.9-6.8-.2-.8-.5-1.5-.5-1.7,0-.2,0-.3,0-.3.2,0,7.3,4.1,7.7,4.5.3.3.3.5.4,2.7,0,2.1,0,4.4-.4,6.4-.2,1.2.2.5.7-1.1.8-3,.9-4,.9-7.6,0-3.7-.2-5.2-1.2-8.2-.3-.9-.5-1.7-.4-1.7,0,0,2,1.3,4.3,3.1l4.2,3.2v.7c.3,1.3.2,6.2,0,7.8-.1.8-.2,1.9-.3,2.3v.7c0,0,.3-.7.3-.7.5-1,1.1-3,1.4-4.6,1.1-5.4.5-11.1-1.6-16.2-.3-.8-.6-1.5-.5-1.5.2-.2,6.3,5,10.4,8.8,2.9,2.7,7,7.2,7.9,8.8,1.1,1.8,1.3,3.5.9,5.8-.2,1.2-1.1,3.5-1.5,3.9-.2.2-.3.2-.5-.2-1-2.1-4.6-3.2-9-2.8-6.2.6-13.8,3-24.1,7.7-1.5.7-2.7,1.2-2.8,1.2s0-.1,0-.3ZM21.2,32.1c-1-.3-1.8-.6-1.9-.6-.1,0-.2-.5-.2-.9,0-1.1-.3-2.3-1.2-4-.4-.8-.7-1.5-.7-1.6,0,0,1.1.6,2.3,1.3l2.3,1.4.3,1c.6,1.9,1,3.6.9,3.7,0,0-.9,0-1.9-.4ZM44,28.8c-.9-2.1-3.6-4.3-7.2-6l-1.2-.5v-1.2c-.2-1.8-.8-4.1-1.9-6.8-.3-.8-.5-1.4-.5-1.5.1-.5,5.3,3.9,7.5,6.3,2.9,3.2,4.2,5.9,4.2,8.5,0,.9-.3,2.1-.5,2.1s-.2-.4-.5-.9h0ZM29,27.7l-1.9-.8-.2-1.4c-.2-1.5-.7-3.2-1.4-4.9-.3-.6-.5-1.2-.5-1.2,0,0,1.2.7,2.5,1.7l2.5,1.8.3.9c.4,1.3,1.2,4.5,1.1,4.6-.1.2-.3,0-2.3-.8Z"/>
    <path class="st21" d="M12.5,52.2c1.5-2.3,2-3.1,2.6-4.6,1.4-3.2,1.9-5.5,1.9-9.1,0-2.9-.2-4.4-.9-6.8-.2-.8-.5-1.5-.5-1.7,0-.2,0-.3,0-.3.2,0,7.3,4.1,7.7,4.5.3.3.3.5.4,2.7,0,2.1,0,4.4-.4,6.4-.2,1.2.2.5.7-1.1.8-3,.9-4,.9-7.6,0-3.7-.2-5.2-1.2-8.2-.3-.9-.5-1.7-.4-1.7,0,0,2,1.3,4.3,3.1l4.2,3.2v.7c.3,1.3.2,6.2,0,7.8-.1.8-.2,1.9-.3,2.3v.7c0,0,.3-.7.3-.7.5-1,1.1-3,1.4-4.6,1.1-5.4.5-11.1-1.6-16.2-.3-.8-.6-1.5-.5-1.5.2-.2,6.3,5,10.4,8.8,2.9,2.7,7,7.2,7.9,8.8,1.1,1.8,1.3,3.5.9,5.8-.2,1.2-1.1,3.5-1.5,3.9-.2.2-.3.2-.5-.2-1-2.1-4.6-3.2-9-2.8-6.2.6-13.8,3-24.1,7.7-1.5.7-2.7,1.2-2.8,1.2s0-.1,0-.3ZM21.2,30.8c-1-.3-1.8-.6-1.9-.6-.1,0-.2-.5-.2-.9,0-1.1-.3-2.3-1.2-4-.4-.8-.7-1.5-.7-1.6,0,0,1.1.6,2.3,1.3l2.3,1.4.3,1c.6,1.9,1,3.6.9,3.7,0,0-.9,0-1.9-.4ZM44,27.6c-.9-2.1-3.6-4.3-7.2-6l-1.2-.5v-1.2c-.2-1.8-.8-4.1-1.9-6.8-.3-.8-.5-1.4-.5-1.5.1-.5,5.3,3.9,7.5,6.3,2.9,3.2,4.2,5.9,4.2,8.5,0,.9-.3,2.1-.5,2.1s-.2-.4-.5-.9h0ZM29,26.5l-1.9-.8-.2-1.4c-.2-1.5-.7-3.2-1.4-4.9-.3-.6-.5-1.2-.5-1.2,0,0,1.2.7,2.5,1.7l2.5,1.8.3.9c.4,1.3,1.2,4.5,1.1,4.6-.1.2-.3,0-2.3-.8Z"/>
    <path class="st24" d="M11.8.1C8.6,0,2.8,4.3,2.2,6.3l-.8,1.4h19.9V0h-9.5Z"/>
    <rect class="st2" x="21.3" width="21.3" height="7.7"/>
    <path class="st29" d="M42.7,0v7.7h19.9l-.3-.4c.3-2.5-7.3-7.3-10.6-7.3h-9.1Z"/>
    <path class="st36" d="M.2,54.6l.3-2.2c-.2,3.8,5.9,11.7,11.6,11.6h9.2v-7.7L.2,54.6Z"/>
    <rect class="st39" x="21.3" y="56.3" width="21.3" height="7.7"/>
    <path class="st13" d="M42.7,56.3v7.7l7.4-.3c7.7,0,12.5-5.3,12.5-7.4h-19.9Z"/>
    <path class="st28" d="M64,32v22.1c0,1.2-1,2.2-2.2,2.2h-4.5v-24.3h6.7Z"/>
    <path class="st26" d="M64,10.2v21.8h-6.7V7.7h4.2c1.4,0,2.5,1.1,2.5,2.5Z"/>
    <path class="st3" d="M6.7,32v24.3h-2c-2.6,0-4.7-2.1-4.7-4.7v-19.6h6.7Z"/>
    <path class="st31" d="M6.7,7.7v24.3H0V10.9c0-1.8,1.5-3.2,3.2-3.2h3.5Z"/>
    <path class="st11" d="M3.2,0C1.4,0,0,1.7,0,3.8v1.3C0,3,1.4,1.3,3.2,1.3h57.6c1.8,0,3.2,1.7,3.2,3.8v-1.3c0-2.1-1.4-3.8-3.2-3.8H3.2Z"/>
    <polygon class="st19" points=".7 9.1 6.7 9 6.7 7.7 1.8 8.1 .7 9.1"/>
    <rect class="st19" y="32" width="6.7" height="1.3"/>
    <rect class="st19" x="57.3" y="7.7" width="6.7" height="1.3"/>
    <rect class="st19" x="57.3" y="32" width="6.7" height="1.3"/>
    <polygon class="st19" points="3.5 55.8 62 56.1 62.2 57.3 3.2 57.1 3.5 55.8"/>
    <rect class="st18" x="6.7" y="7.7" width="50.5" height="1.3"/>
  </g>
  <g class="st10">
    <path class="st18" d="M40.7,46.4c.4.9.3,1.9-1.1,2.7l-4.4,3.2c-.8.4-2.1,2.1,0,3.2-1.8-.2-2.2-1.5-2.7-2.6l-8.6-22.9,13.6,8.5,3.2,8Z"/>
    <path class="st18" d="M30.4,19.5h26.3c2.1,0,3.8,1.7,3.8,3.7v28.5c0,2.1-1.7,3.7-3.8,3.7h-20.9c-1.1,0-1.8-.3-2.4-1.1l-3-34.9Z"/>
    <path class="st38" d="M30.4,18.5h26.3c2.1,0,3.8,1.7,3.8,3.7v28.5c0,2.1-1.7,3.7-3.8,3.7h-20.9c-1.1,0-1.8-.3-2.4-1.1l-3-34.9Z"/>
    <path class="st16" d="M42.1,30.9h-1.7c0,.4,0,.9,0,1.5,0,.3-.1,1.4-.2,1.9h-.3c-1.2,0-2.7-.1-3.7-.3v1.5c1.2,0,2.4.2,3.8.2h0c-.5,2.2-1.3,5-2.3,7l1.5.5c.2-.4.4-.6.6-.9,1.3-1.5,3.5-3,5.8-3s3.5,1.8,3.5,3.3c0,3.2-4.4,4-9,3.4l.4,1.6c6,.6,10.2-.9,10.2-5s-1.8-4.6-4.9-4.6-3.8,1.2-5.5,2.4c.4-1.1.9-3,1.2-4.6,2.5,0,5.5-.4,7.8-.8v-1.5c-2.4.5-5.2.8-7.5.9,0-.4.2-1.4.2-1.7.1-.5.2-1.1.4-1.6h0ZM49.4,30.2l-1,.4c.5.7,1.2,1.9,1.6,2.7l1.1-.5c-.4-.8-1.1-2-1.6-2.7ZM51.6,29.4l-1,.4c.5.7,1.2,1.8,1.6,2.7l1.1-.5c-.4-.7-1.1-1.9-1.6-2.7Z"/>
    <path class="st19" d="M30.4,18.5v1h26.3c2.1,0,3.8,1.7,3.8,3.7v-1c0-2.1-1.7-3.7-3.8-3.7h-26.3Z"/>
    <path class="st42" d="M42.1,29.9h-1.7c0,.4,0,.9,0,1.5,0,.3-.1,1.4-.2,1.9h-.3c-1.2,0-2.7-.1-3.7-.3v1.5c1.2,0,2.4.2,3.8.2h0c-.5,2.2-1.3,5-2.3,7l1.5.5c.2-.4.4-.6.6-.9,1.3-1.5,3.5-3,5.8-3s3.5,1.8,3.5,3.3c0,3.2-4.4,4-9,3.4l.4,1.6c6,.6,10.2-.9,10.2-5s-1.8-4.6-4.9-4.6-3.8,1.2-5.5,2.4c.4-1.1.9-3,1.2-4.6,2.5,0,5.5-.4,7.8-.8v-1.5c-2.4.5-5.2.8-7.5.9,0-.4.2-1.4.2-1.7.1-.5.2-1.1.4-1.6h0ZM49.4,29.2l-1,.4c.5.7,1.2,1.9,1.6,2.7l1.1-.5c-.4-.8-1.1-2-1.6-2.7ZM51.6,28.4l-1,.4c.5.7,1.2,1.8,1.6,2.7l1.1-.5c-.4-.7-1.1-1.9-1.6-2.7Z"/>
    <path class="st30" d="M40.7,45.4c.4.9.3,1.9-1.1,2.7l-4.4,3.2c-.8.4-2.1,2.1,0,3.2-1.8-.2-2.2-1.5-2.7-2.6l-8.6-22.9,13.6,8.5,3.2,8Z"/>
    <path class="st18" d="M6.2,9.5h20.3c2.1,0,3,1.8,3.8,3.7,1.3,3.6,10.6,33.8,10.6,33.8-.4-.9-1.5-1.6-2.5-1.6H6.2c-2.1,0-3.8-1.7-3.8-3.7V13.3c0-2.1,1.7-3.8,3.8-3.8h0Z"/>
    <path class="st34" d="M6.2,8.5h20.3c2.1,0,3,1.8,3.8,3.7,1.3,3.6,10.6,33.8,10.6,33.8-.4-.9-1.5-1.6-2.5-1.6H6.2c-2.1,0-3.8-1.7-3.8-3.7V12.3c0-2.1,1.7-3.8,3.8-3.8h0Z"/>
    <path class="st18" d="M11.4,34.5h6.1c4.4,0,7.9-3.1,7.9-7s-3.5-7-7.9-7h-6.1v14ZM17.4,23.5c2.4,0,4,1.8,4,4s-1.7,3.7-4,4h-2v-8h2Z"/>
    <path class="st21" d="M11.4,33.5h6.1c4.4,0,7.9-3.1,7.9-7s-3.5-7-7.9-7h-6.1v14ZM17.4,22.5c2.4,0,4,1.8,4,4s-1.7,3.7-4,4h-2v-8h2Z"/>
    <path class="st19" d="M6.2,8.5c-2.1,0-3.8,1.7-3.8,3.8v1c0-2.1,1.7-3.8,3.8-3.8h0s20.3,0,20.3,0c2.1,0,3,1.9,3.8,3.8,1.2,3.4,9.2,29.1,10.1,32.1.2.2.4.4.5.7,0,0-9.3-30.2-10.6-33.8-.8-1.9-1.7-3.8-3.8-3.8H6.2s0,0,0,0Z"/>
  </g>
  <g>
    <path class="st6" d="M0,51.2v2.3c0,1.9,1.4,3.5,3.2,3.5h53.3c1.8,0,3.2-1.6,3.2-3.5v-2.3c0,1.9-1.4,3.5-3.2,3.5H3.2c-1.8,0-3.2-1.6-3.2-3.5Z"/>
    <path class="st9" d="M3.2,0C1.4,0,0,1.6,0,3.5v38.4h59.7V3.5c0-1.9-1.4-3.5-3.2-3.5H3.2ZM58.8,54.7c-.5.6-1.3.9-2.1.9l-53.5.2h53.3c.9,0,1.7-.5,2.3-1.2h0Z"/>
    <path class="st11" d="M3.2,0C1.4,0,0,1.6,0,3.5v1.2C0,2.7,1.4,1.2,3.2,1.2h53.3c1.8,0,3.2,1.6,3.2,3.5v-1.2c0-1.9-1.4-3.5-3.2-3.5H3.2Z"/>
    <path class="st15" d="M42.7,12.8c4.7,0,8.5,4.2,8.5,9.3s-3.8,9.3-8.5,9.3-8.5-4.2-8.5-9.3,3.8-9.3,8.5-9.3Z"/>
    <path class="st22" d="M42.7,11.6c4.7,0,8.5,4.2,8.5,9.3s-3.8,9.3-8.5,9.3-8.5-4.2-8.5-9.3,3.8-9.3,8.5-9.3Z"/>
    <path class="st35" d="M0,50v3.5s4.4,10.5,13.4,10.4l36-.2c11.2.2,14.6-8.9,14.6-13.2v-.6H0Z"/>
    <path class="st12" d="M0,50.6v-2s4.3-3.4,5.5-3.7c1.2-.3,2.6,0,4.1.3,1.5.3,3.7,1.2,4.3,1.3.7,0,1.9,0,3.4-.2,1.4-.1,3.8-.2,4.6-.2.7,0,2.6.1,4.6.3,2,.1,4.7.4,5.3.5.6,0,1.3.2,2.2.3.8.1,2.2.3,2.7.4.5,0,1.7.2,3,.4,1.4.1,3.5.2,4.1.1.6,0,1.9-.6,3.4-1.1,1.5-.5,3.1-1,4.3-.9,1.2.1,8.1,2.5,8.1,2.5v2H0Z"/>
    <path class="st20" d="M0,49.5v1.2h59.7v-1.2H0Z"/>
    <path class="st15" d="M63.4,46c-.4,7.8-7.3,13.9-15.7,13.9-8.2,0-15.1-6-15.7-13.6,0,.3,0,.5,0,.8,0,8.1,7,14.7,15.7,14.7h0c8.7,0,15.7-6.6,15.7-14.7h0c0-.4,0-.7,0-1.1h0Z"/>
    <ellipse class="st14" cx="47.7" cy="46.1" rx="15.7" ry="14.7"/>
    <path class="st21" d="M45.7,38.8l-.2,1.9c-.7.2-1.3.6-1.8,1l-1.9-.8-2,3.2,1.7,1.1c0,.3,0,.6,0,1,0,.3,0,.7,0,1l-1.7,1.1,2,3.2,1.9-.8c.5.4,1.2.7,1.8,1l.2,1.9h3.9l.2-1.9c.7-.2,1.3-.6,1.8-1l1.9.8,2-3.2-1.7-1.1c0-.3,0-.6,0-1,0-.3,0-.7,0-1l1.7-1.1-2-3.2-1.9.8c-.5-.4-1.1-.7-1.8-1l-.2-1.9h-3.9,0ZM47.7,43.4c1.6,0,2.9,1.2,2.9,2.8s-1.3,2.8-2.9,2.8-2.9-1.2-2.9-2.8,1.3-2.8,2.9-2.8Z"/>
  </g>
</svg>