<?xml version="1.0" encoding="UTF-8"?>
<svg id="_图层_1" xmlns="http://www.w3.org/2000/svg" version="1.1" viewBox="0 0 64 64" width="22" height="22">
  <!-- Generator: Adobe Illustrator 29.0.1, SVG Export Plug-In . SVG Version: 2.1.0 Build 192)  -->
  <defs>
    <style>
      .st0 {
        fill: #e9b064;
      }

      .st1, .st2 {
        fill: #4e7bc0;
      }

      .st3, .st4, .st5 {
        isolation: isolate;
        opacity: .2;
      }

      .st3, .st5, .st2 {
        display: none;
      }

      .st5 {
        fill: #fff;
      }
    </style>
  </defs>
  <path class="st1" d="M50.3,64H13.9C6.3,64,.2,57.8.2,50.3V13.8C.2,6.2,6.3,0,13.9,0h36.5c7.5,0,13.7,6.2,13.7,13.7v36.5c0,7.5-6.1,13.7-13.7,13.7h0Z"/>
  <g>
    <path class="st3" d="M0,58v2.2c0,1.9,1.9,3.4,4.4,3.4h55.3c2.4,0,4.4-1.5,4.4-3.4v-2.2c0,1.9-1.9,3.4-4.4,3.4H4.4c-2.4,0-4.4-1.5-4.4-3.4Z"/>
    <path class="st2" d="M4.4-.1C1.9-.1,0,1.4,0,3.2v55.9c0,1.9,1.9,3.4,4.4,3.4h55.3c2.4,0,4.4-1.5,4.4-3.4V3.2c0-1.9-1.9-3.4-4.4-3.4H4.4Z"/>
    <path class="st4" d="M11.6-.1C9.6-.1,0,4.7.2,13.4v36.3c0,.5,0,0,0,.6,0,8.5,8.4,13.7,11.4,13.7h0V-.1h0Z"/>
    <path class="st4" d="M40.7,1v31.3l5.8-4.5,5.8,4.5V1h-11.6Z"/>
    <path class="st0" d="M40.7-.1v31.3l5.8-4.5,5.8,4.5V-.1h-11.6Z"/>
    <path class="st5" d="M4.4-.1C1.9-.1,0,1.4,0,3.2v1.1C0,2.5,1.9,1,4.4,1h55.3c2.4,0,4.4,1.5,4.4,3.4v-1.1c0-1.9-1.9-3.4-4.4-3.4H4.4Z"/>
  </g>
</svg>