<?xml version="1.0" encoding="UTF-8"?>
<svg id="_图层_1" xmlns="http://www.w3.org/2000/svg" version="1.1" viewBox="0 0 64 64" width="22" height="22">
  <!-- Generator: Adobe Illustrator 29.0.1, SVG Export Plug-In . SVG Version: 2.1.0 Build 192)  -->
  <defs>
    <style>
      .st0, .st1, .st2, .st3 {
        display: none;
      }

      .st0, .st4, .st5, .st6, .st7, .st3, .st8 {
        isolation: isolate;
      }

      .st0, .st6, .st7, .st3 {
        opacity: .2;
      }

      .st9 {
        fill: #3f3f3f;
      }

      .st10 {
        fill: #d01818;
      }

      .st1, .st11 {
        fill: #dd2d2d;
      }

      .st4, .st8 {
        opacity: .1;
      }

      .st5 {
        opacity: .4;
      }

      .st7, .st3, .st8 {
        fill: #fff;
      }

      .st12 {
        fill: #e4e4e4;
      }

      .st13 {
        fill: #f15555;
      }
    </style>
  </defs>
  <path class="st11" d="M47.5,64.1H13.8c-7.6,0-13.8-6.3-13.8-13.8V13.7C0,6.2,6.2,0,13.7,0h36.6c7.5,0,13.7,6.2,13.7,13.7v36.6c0,7.5-6.2,13.7-13.7,13.7h-2.9.1Z"/>
  <g class="st2">
    <rect class="st6" x="8.5" y="32" width="47" height="14" rx="4" ry="4"/>
    <rect class="st10" x="8.5" y="31" width="47" height="14" rx="4" ry="4"/>
    <path class="st8" d="M12.5,31c-2.2,0-4,1.8-4,4v1c0-2.2,1.8-4,4-4h39c2.2,0,4,1.8,4,4v-1c0-2.2-1.8-4-4-4H12.5Z"/>
    <path class="st6" d="M32.5,5c-20,0-20,9-20,9v36l20,11,19-11V14s0-9-19-9Z"/>
    <path class="st13" d="M32.5,4C12.5,4,12.5,13,12.5,13v36l20,11,19-11V13s0-9-19-9Z"/>
    <path class="st6" d="M26.5,15v17h-14v14h14v11.7l6,3.3,6-3.5v-11.5h13v-14h-13V15l-6,7-6-7Z"/>
    <path class="st12" d="M26.5,14v17h-14v14h14v11.7l6,3.3,6-3.5v-11.5h13v-14h-13V14l-6,7-6-7Z"/>
    <path class="st9" d="M18.6,33.4c-1.9.8-3.1,2.6-3.1,4.6,0,2.8,2.2,5,5,5s5-2.2,5-5l-6.9-4.6ZM45.8,33.6l-7.3,4.4c0,2.8,2.2,5,5,5s5-2.2,5-5c0-1.8-1-3.5-2.7-4.4Z"/>
    <path class="st7" d="M32.5,4C12.5,4,12.5,13,12.5,13v1s0-9,20-9,19,9,19,9v-1s0-9-19-9Z"/>
  </g>
  <g>
    <path class="st0" d="M64.1,57.9V7.9c0-2-1.4-3.6-3.2-3.6H3.2c-1.8,0-3.2,1.6-3.2,3.6v50c0,2,1.4,3.6,3.2,3.6h57.7c1.8,0,3.2-1.6,3.2-3.6Z"/>
    <path class="st1" d="M64.1,56.5V6.5c0-2-1.4-3.6-3.2-3.6H3.2c-1.8,0-3.2,1.6-3.2,3.6v50c0,2,1.4,3.6,3.2,3.6h57.7c1.8,0,3.2-1.6,3.2-3.6Z"/>
    <path class="st5" d="M56.2,12.3h3.1c.7,0,1.3.6,1.3,1.4v3.7c0,.8-.6,1.4-1.3,1.4h-3.1c-.7,0-1.3-.6-1.3-1.4v-3.7c0-.8.6-1.4,1.3-1.4Z"/>
    <path class="st5" d="M56.2,44.2h3.1c.7,0,1.3.6,1.3,1.4v3.7c0,.8-.6,1.4-1.3,1.4h-3.1c-.7,0-1.3-.6-1.3-1.4v-3.7c0-.8.6-1.4,1.3-1.4Z"/>
    <path class="st5" d="M56.2,33.5h3.1c.7,0,1.3.6,1.3,1.4v3.7c0,.8-.6,1.4-1.3,1.4h-3.1c-.7,0-1.3-.6-1.3-1.4v-3.7c0-.8.6-1.4,1.3-1.4Z"/>
    <path class="st5" d="M56.2,22.9h3.1c.7,0,1.3.6,1.3,1.4v3.7c0,.8-.6,1.4-1.3,1.4h-3.1c-.7,0-1.3-.6-1.3-1.4v-3.7c0-.8.6-1.4,1.3-1.4Z"/>
    <path class="st4" d="M22.7,18.9c-.8,0-1,1.2-.9,2.1,0,8.3,0,16.5,0,24.8,0,1,1,1.4,1.6.8,5.7-4.2,14.1-8.4,19.8-12.7.6-.6.4-1.9-.3-2.2-5.7-4.2-14.1-8.4-19.8-12.6-.1,0-.2,0-.3,0h0Z"/>
    <path class="st9" d="M22.7,17.6c-.8,0-1,1.2-.9,2.1,0,8.3,0,16.5,0,24.8,0,1,1,1.4,1.6.8,5.7-4.2,14.1-8.4,19.8-12.7.6-.6.4-1.9-.3-2.2-5.7-4.2-14.1-8.4-19.8-12.6-.1,0-.2,0-.3,0h0Z"/>
    <path class="st5" d="M4.7,12.3h3.1c.7,0,1.3.6,1.3,1.4v3.7c0,.8-.6,1.4-1.3,1.4h-3.1c-.7,0-1.3-.6-1.3-1.4v-3.7c0-.8.6-1.4,1.3-1.4Z"/>
    <path class="st5" d="M4.7,44.2h3.1c.7,0,1.3.6,1.3,1.4v3.7c0,.8-.6,1.4-1.3,1.4h-3.1c-.7,0-1.3-.6-1.3-1.4v-3.7c0-.8.6-1.4,1.3-1.4Z"/>
    <path class="st5" d="M4.7,33.5h3.1c.7,0,1.3.6,1.3,1.4v3.7c0,.8-.6,1.4-1.3,1.4h-3.1c-.7,0-1.3-.6-1.3-1.4v-3.7c0-.8.6-1.4,1.3-1.4Z"/>
    <path class="st5" d="M4.7,22.9h3.1c.7,0,1.3.6,1.3,1.4v3.7c0,.8-.6,1.4-1.3,1.4h-3.1c-.7,0-1.3-.6-1.3-1.4v-3.7c0-.8.6-1.4,1.3-1.4Z"/>
    <path class="st3" d="M3.2,3c-1.8,0-3.2,1.6-3.2,3.6v1.3c0-2,1.4-3.6,3.2-3.6h57.7c1.8,0,3.2,1.6,3.2,3.6v-1.3c0-2-1.4-3.6-3.2-3.6H3.2Z"/>
  </g>
</svg>