<?xml version="1.0" encoding="UTF-8" standalone="no"?>
<svg
   id="_图层_1"
   version="1.1"
   viewBox="0 0 64 64" width="22" height="22"
   sodipodi:docname="com.github.padjis.ghistory.svg"
   xml:space="preserve"
   inkscape:version="1.4 (e7c3feb100, 2024-10-09)"
   xmlns:inkscape="http://www.inkscape.org/namespaces/inkscape"
   xmlns:sodipodi="http://sodipodi.sourceforge.net/DTD/sodipodi-0.dtd"
   xmlns="http://www.w3.org/2000/svg"
   xmlns:svg="http://www.w3.org/2000/svg"><sodipodi:namedview
     id="namedview26"
     pagecolor="#505050"
     bordercolor="#eeeeee"
     borderopacity="1"
     inkscape:showpageshadow="0"
     inkscape:pageopacity="0"
     inkscape:pagecheckerboard="0"
     inkscape:deskcolor="#505050"
     inkscape:zoom="10.6875"
     inkscape:cx="32"
     inkscape:cy="32"
     inkscape:window-width="1920"
     inkscape:window-height="939"
     inkscape:window-x="0"
     inkscape:window-y="34"
     inkscape:window-maximized="1"
     inkscape:current-layer="_图层_1" /><!-- Generator: Adobe Illustrator 29.0.1, SVG Export Plug-In . SVG Version: 2.1.0 Build 192)  --><defs
     id="defs6"><style
       id="style1">
      .st0 {
        fill-opacity: .5;
      }

      .st0, .st1, .st2, .st3, .st4, .st5, .st6, .st7 {
        fill: #fff;
      }

      .st8 {
        fill: #133c9a;
      }

      .st2, .st9 {
        display: none;
      }

      .st3 {
        fill-opacity: .2;
      }

      .st4 {
        fill-opacity: .9;
      }

      .st10 {
        fill: #3370ff;
      }

      .st11 {
        fill: url(#_未命名的渐变_3);
      }

      .st12 {
        fill: url(#_未命名的渐变);
      }

      .st5 {
        fill-opacity: .3;
      }

      .st6 {
        fill-opacity: 0;
      }

      .st7 {
        fill-opacity: .7;
      }

      .st13 {
        fill: #00d6b9;
      }

      .st14 {
        fill: url(#_未命名的渐变_2);
      }
    </style><radialGradient
       id="_未命名的渐变"
       data-name="未命名的渐变"
       cx="123.9"
       cy="-40.2"
       fx="123.9"
       fy="-40.2"
       r="59.4"
       gradientTransform="translate(-26.8 25.5) scale(.6 -.7)"
       gradientUnits="userSpaceOnUse"><stop
         offset="0"
         stop-color="#db202e"
         id="stop1" /><stop
         offset="1"
         stop-color="#e01b24"
         id="stop2" /></radialGradient><radialGradient
       id="_未命名的渐变_2"
       data-name="未命名的渐变 2"
       cx="67.6"
       cy="26.8"
       fx="67.6"
       fy="26.8"
       r="105.2"
       gradientTransform="translate(-26.6 25.3) scale(.6 -.7)"
       gradientUnits="userSpaceOnUse"><stop
         offset="0"
         stop-color="#ffb648"
         id="stop3" /><stop
         offset="1"
         stop-color="#ff7800"
         stop-opacity="0"
         id="stop4" /></radialGradient><radialGradient
       id="_未命名的渐变_3"
       data-name="未命名的渐变 3"
       cx="61.7"
       cy="18.6"
       fx="61.7"
       fy="18.6"
       r="68"
       gradientTransform="translate(-26.8 25.8) scale(.6 -.7)"
       gradientUnits="userSpaceOnUse"><stop
         offset="0"
         stop-color="#c64600"
         id="stop5" /><stop
         offset="1"
         stop-color="#a51d2d"
         id="stop6" /></radialGradient></defs><path
     class="st1"
     d="M47.5,64.1H13.8c-7.6,0-13.8-6.3-13.8-13.8V13.7C0,6.2,6.2,0,13.7,0h36.6c7.5,0,13.7,6.2,13.7,13.7v36.6c0,7.5-6.2,13.7-13.7,13.7h-2.9.1Z"
     id="path6"
     style="fill:#e4e4e4;fill-opacity:1" /><g
     id="g26"
     transform="matrix(1.1453634,0,0,1.1395301,-4.6984127,-4.4265415)"><path
       style="opacity:0.1"
       d="M 22.203124,21 C 15.426654,21 10,26.302144 10,32.953124 10,39.729596 15.49171,45 22.613282,45 c 3.482348,0 6.491056,-1.221276 8.78125,-3.574218 2.133332,-2.22745 3.328124,-5.117264 3.328124,-8.097658 V 33 H 34 23.332032 20 v 4 h 9.167968 c -1.2549,2.572548 -3.76155,3.859376 -6.804686,3.859376 -4.54902,0 -8.035157,-3.42022 -8.035157,-7.843752 0,-2.007842 0.850322,-4.201638 2.167969,-5.58203 1.34902,-1.474512 3.385828,-2.292968 5.613282,-2.29297 2.436544,0 4.950171,0.97885 5.921874,2.859376 h 5.269532 C 32.288531,24.347206 27.028296,21 22.203124,21 Z M 38,21 v 24 h 4 v -9.125 c 0,-1.78614 0.496912,-2.793586 0.953124,-3.605468 0.619148,-1.104158 1.757598,-1.71875 3.191408,-1.71875 2.541752,0 3.992288,1.493172 3.855468,5.257812 V 45 h 4 V 34.835938 c 0,-2.630494 -0.327198,-4.0943 -1.207032,-5.425782 -1.205708,-1.851088 -3.28894,-3.078124 -5.86328,-3.078124 -1.857434,0 -3.626224,0.741046 -4.929688,1.910156 V 21 Z"
       id="path2" /><path
       style="fill:#7d7d7d"
       d="M 22.203124,20 C 15.426654,20 10,25.302144 10,31.953124 10,38.729596 15.49171,44 22.613282,44 c 3.482348,0 6.491056,-1.221276 8.78125,-3.574218 2.133332,-2.22745 3.328124,-5.117264 3.328124,-8.097658 V 32 H 34 23.332032 20 v 4 h 9.167968 c -1.2549,2.572548 -3.76155,3.859376 -6.804686,3.859376 -4.54902,0 -8.035157,-3.42022 -8.035157,-7.843752 0,-2.007842 0.850322,-4.201638 2.167969,-5.58203 1.34902,-1.474512 3.385828,-2.292968 5.613282,-2.29297 2.436544,0 4.950171,0.97885 5.921874,2.859376 h 5.269532 C 32.288531,23.347206 27.028296,20 22.203124,20 Z M 38,20 v 24 h 4 v -9.125 c 0,-1.78614 0.496912,-2.793586 0.953124,-3.605468 0.619148,-1.104158 1.757598,-1.71875 3.191408,-1.71875 2.541752,0 3.992288,1.493172 3.855468,5.257812 V 44 h 4 V 33.835938 c 0,-2.630494 -0.327198,-4.0943 -1.207032,-5.425782 -1.205708,-1.851088 -3.28894,-3.078124 -5.86328,-3.078124 -1.857434,0 -3.626224,0.741046 -4.929688,1.910156 V 20 Z"
       id="path3" /></g></svg>
