<?xml version="1.0" encoding="UTF-8" standalone="no"?>
<svg
   id="_图层_1"
   version="1.1"
   viewBox="0 0 64 64" width="22" height="22"
   sodipodi:docname="com.github.jmoerman.go-for-it.svg"
   xml:space="preserve"
   inkscape:version="1.4 (e7c3feb100, 2024-10-09)"
   xmlns:inkscape="http://www.inkscape.org/namespaces/inkscape"
   xmlns:sodipodi="http://sodipodi.sourceforge.net/DTD/sodipodi-0.dtd"
   xmlns:xlink="http://www.w3.org/1999/xlink"
   xmlns="http://www.w3.org/2000/svg"
   xmlns:svg="http://www.w3.org/2000/svg"><sodipodi:namedview
     id="namedview26"
     pagecolor="#505050"
     bordercolor="#eeeeee"
     borderopacity="1"
     inkscape:showpageshadow="0"
     inkscape:pageopacity="0"
     inkscape:pagecheckerboard="0"
     inkscape:deskcolor="#505050"
     inkscape:zoom="10.6875"
     inkscape:cx="32"
     inkscape:cy="32"
     inkscape:window-width="1920"
     inkscape:window-height="939"
     inkscape:window-x="0"
     inkscape:window-y="34"
     inkscape:window-maximized="1"
     inkscape:current-layer="_图层_1" /><!-- Generator: Adobe Illustrator 29.0.1, SVG Export Plug-In . SVG Version: 2.1.0 Build 192)  --><defs
     id="defs6"><style
       id="style1">
      .st0 {
        fill-opacity: .5;
      }

      .st0, .st1, .st2, .st3, .st4, .st5, .st6, .st7 {
        fill: #fff;
      }

      .st8 {
        fill: #133c9a;
      }

      .st2, .st9 {
        display: none;
      }

      .st3 {
        fill-opacity: .2;
      }

      .st4 {
        fill-opacity: .9;
      }

      .st10 {
        fill: #3370ff;
      }

      .st11 {
        fill: url(#_未命名的渐变_3);
      }

      .st12 {
        fill: url(#_未命名的渐变);
      }

      .st5 {
        fill-opacity: .3;
      }

      .st6 {
        fill-opacity: 0;
      }

      .st7 {
        fill-opacity: .7;
      }

      .st13 {
        fill: #00d6b9;
      }

      .st14 {
        fill: url(#_未命名的渐变_2);
      }
    </style><radialGradient
       id="_未命名的渐变"
       data-name="未命名的渐变"
       cx="123.9"
       cy="-40.2"
       fx="123.9"
       fy="-40.2"
       r="59.4"
       gradientTransform="translate(-26.8 25.5) scale(.6 -.7)"
       gradientUnits="userSpaceOnUse"><stop
         offset="0"
         stop-color="#db202e"
         id="stop1" /><stop
         offset="1"
         stop-color="#e01b24"
         id="stop2" /></radialGradient><radialGradient
       id="_未命名的渐变_2"
       data-name="未命名的渐变 2"
       cx="67.6"
       cy="26.8"
       fx="67.6"
       fy="26.8"
       r="105.2"
       gradientTransform="translate(-26.6 25.3) scale(.6 -.7)"
       gradientUnits="userSpaceOnUse"><stop
         offset="0"
         stop-color="#ffb648"
         id="stop3" /><stop
         offset="1"
         stop-color="#ff7800"
         stop-opacity="0"
         id="stop4" /></radialGradient><radialGradient
       id="_未命名的渐变_3"
       data-name="未命名的渐变 3"
       cx="61.7"
       cy="18.6"
       fx="61.7"
       fy="18.6"
       r="68"
       gradientTransform="translate(-26.8 25.8) scale(.6 -.7)"
       gradientUnits="userSpaceOnUse"><stop
         offset="0"
         stop-color="#c64600"
         id="stop5" /><stop
         offset="1"
         stop-color="#a51d2d"
         id="stop6" /></radialGradient><linearGradient
       id="linearGradient1261"><stop
         style="stop-color:#4f4f4f"
         offset="0"
         id="stop1-7" /><stop
         style="stop-color:#3f3f3f"
         offset="1"
         id="stop2-0" /></linearGradient><linearGradient
       id="linearGradient1263"
       x1="34.241"
       x2="37.169"
       y1="38.945"
       y2="30.342"
       gradientTransform="matrix(1.3919157,0,0,1.3888889,-1.321022,-0.4865665)"
       gradientUnits="userSpaceOnUse"
       xlink:href="#linearGradient1261" /><style
       id="style1-7">
      .st0 {
        fill-opacity: .5;
      }

      .st0, .st1, .st2, .st3, .st4, .st5, .st6, .st7 {
        fill: #fff;
      }

      .st8 {
        fill: #133c9a;
      }

      .st2, .st9 {
        display: none;
      }

      .st3 {
        fill-opacity: .2;
      }

      .st4 {
        fill-opacity: .9;
      }

      .st10 {
        fill: #3370ff;
      }

      .st11 {
        fill: url(#_未命名的渐变_3);
      }

      .st12 {
        fill: url(#_未命名的渐变);
      }

      .st5 {
        fill-opacity: .3;
      }

      .st6 {
        fill-opacity: 0;
      }

      .st7 {
        fill-opacity: .7;
      }

      .st13 {
        fill: #00d6b9;
      }

      .st14 {
        fill: url(#_未命名的渐变_2);
      }
    </style><radialGradient
       id="_未命名的渐变-8"
       data-name="未命名的渐变"
       cx="123.9"
       cy="-40.2"
       fx="123.9"
       fy="-40.2"
       r="59.4"
       gradientTransform="translate(-26.8 25.5) scale(.6 -.7)"
       gradientUnits="userSpaceOnUse"><stop
         offset="0"
         stop-color="#db202e"
         id="stop1-4" /><stop
         offset="1"
         stop-color="#e01b24"
         id="stop2-5" /></radialGradient><radialGradient
       id="_未命名的渐变_2-0"
       data-name="未命名的渐变 2"
       cx="67.6"
       cy="26.8"
       fx="67.6"
       fy="26.8"
       r="105.2"
       gradientTransform="translate(-26.6 25.3) scale(.6 -.7)"
       gradientUnits="userSpaceOnUse"><stop
         offset="0"
         stop-color="#ffb648"
         id="stop3-3" /><stop
         offset="1"
         stop-color="#ff7800"
         stop-opacity="0"
         id="stop4-6" /></radialGradient><radialGradient
       id="_未命名的渐变_3-1"
       data-name="未命名的渐变 3"
       cx="61.7"
       cy="18.6"
       fx="61.7"
       fy="18.6"
       r="68"
       gradientTransform="translate(-26.8 25.8) scale(.6 -.7)"
       gradientUnits="userSpaceOnUse"><stop
         offset="0"
         stop-color="#c64600"
         id="stop5-0" /><stop
         offset="1"
         stop-color="#a51d2d"
         id="stop6-6" /></radialGradient></defs><path
     class="st1"
     d="M47.5,64.1H13.8c-7.6,0-13.8-6.3-13.8-13.8V13.7C0,6.2,6.2,0,13.7,0h36.6c7.5,0,13.7,6.2,13.7,13.7v36.6c0,7.5-6.2,13.7-13.7,13.7h-2.9.1Z"
     id="path6"
     style="fill:#ececec;fill-opacity:1" /><g
     transform="matrix(0.87969937,0,0,0.88180978,2.9139225,17.824408)"
     id="g12"><ellipse
       style="opacity:0.2"
       cx="10.607"
       cy="65.761002"
       rx="6.5289998"
       ry="5.4190001"
       transform="rotate(-45)"
       id="ellipse1" /><ellipse
       style="fill:#4e4e4e"
       cx="11.314"
       cy="65.054001"
       rx="6.5289998"
       ry="5.4190001"
       transform="rotate(-45)"
       id="ellipse2" /><path
       style="opacity:0.2"
       d="M 31.999999,-11 C 16.55057,-11 4.0000006,1.5505654 4.0000006,16.999999 c 0,15.449435 12.5505694,28.000004 27.9999984,27.999998 15.449432,0 28.000013,-12.550563 27.999999,-27.999998 C 59.999998,1.5505654 47.449431,-11 31.999999,-11 Z"
       id="path2" /><path
       style="fill:#707070"
       d="m 31.999999,-11.999998 c -15.449429,0 -27.9999984,12.55056557 -27.9999984,27.999999 0,15.449435 12.5505694,28.000004 27.9999984,27.999998 15.449432,0 28.000013,-12.550563 27.999999,-27.999998 0,-15.44943343 -12.550567,-27.999999 -27.999999,-27.999999 z"
       id="path3" /><path
       style="opacity:0.1;fill:#ffffff"
       transform="translate(0,-16)"
       d="M 32,4 C 16.550571,4 4,16.550567 4,32 4,32.113454 4.011298,32.224124 4.017578,32.335938 4.3722622,17.193593 16.773302,5 32,5 47.2267,5 59.627738,17.193593 59.982422,32.335938 59.988702,32.224124 60,32.113454 60,32 60,16.550567 47.449432,4 32,4 Z"
       id="path4" /><path
       style="opacity:0.2"
       d="m 32.000001,-7.0000002 c -13.242372,0 -24.0000002,10.7576235 -24.0000002,23.9999972 0,13.242373 10.7576282,24.000002 24.0000002,23.999999 13.24237,0 24.000005,-10.757626 23.999997,-23.999999 0,-13.2423737 -10.757627,-23.9999972 -23.999997,-23.9999972 z"
       id="path5" /><path
       style="fill:#f7f7f7"
       d="m 32.000001,-7.999998 c -13.242372,0 -24.0000002,10.7576235 -24.0000002,23.999997 0,13.242373 10.7576282,24.000003 24.0000002,23.999999 13.24237,0 24.000005,-10.757626 23.999997,-23.999999 0,-13.2423735 -10.757627,-23.999997 -23.999997,-23.999997 z"
       id="path6-6" /><path
       style="opacity:0.2"
       d="m 31.999999,11.000001 c -3.310591,0 -5.999999,2.689408 -5.999999,6 C 26,20.310593 28.689408,23 31.999999,23 c 3.310592,0 6,-2.689407 6,-5.999999 0,-3.310592 -2.689408,-6 -6,-6 z"
       id="path7" /><path
       style="opacity:0.1"
       d="m 59.177978,-10.159586 c 1.096026,1.096028 1.096026,2.8607499 0,3.9567759 L 33.818425,19.156745 32.904951,18.857521 c -1.473004,-0.482506 -0.69522,3.088313 -1.791248,1.992288 -1.096026,-1.096028 -1.877087,-1.707044 -1.385938,-3.177188 l 1.173338,-3.512106 24.320099,-24.320101 c 1.096028,-1.096026 2.860748,-1.096026 3.956776,0 z"
       id="path8" /><path
       style="fill:#30b630"
       d="m 59.177978,-11.159646 c 1.096026,1.096028 1.096026,2.86075 0,3.956776 L 33.818425,18.156685 32.904951,17.857461 c -1.473004,-0.482506 -0.69522,3.088314 -1.791248,1.992288 -1.096026,-1.096028 -1.877087,-1.707044 -1.385938,-3.177188 l 1.173338,-3.512106 24.320099,-24.320101 c 1.096028,-1.096026 2.860748,-1.096026 3.956776,0 z"
       id="path9" /><path
       style="opacity:0.1"
       d="m 14.377285,7.4742602 c -0.775009,1.342354 -0.318266,3.0469438 1.024087,3.8219518 L 33.074849,21.5 33.710507,19.910686 c 0.575608,-1.439176 1.227898,0.664748 2.002906,-0.677604 0.775008,-1.342354 -1.014012,0.0946 -0.590982,-1.39656 L 35.516289,16.448176 18.199237,6.4501723 c -1.342355,-0.775008 -3.046944,-0.318264 -3.821952,1.0240879 z"
       id="path10" /><path
       style="fill:#30b630"
       d="m 14.377285,6.4742003 c -0.775009,1.342354 -0.318266,3.0469439 1.024087,3.8219517 l 17.673477,10.203788 0.635658,-1.589314 c 0.575608,-1.439176 1.227898,0.664748 2.002906,-0.677604 0.775008,-1.342354 -1.014012,0.0946 -0.590982,-1.39656 L 35.516289,15.448116 18.199237,5.4501124 c -1.342355,-0.775008 -3.046944,-0.318264 -3.821952,1.0240879 z"
       id="path11" /><path
       style="fill:#707070"
       d="m 31.999999,10.000001 c -3.310591,0 -5.999999,2.689408 -5.999999,6 C 26,19.310593 28.689408,22 31.999999,22 c 3.310592,0 6,-2.689407 6,-5.999999 0,-3.310592 -2.689408,-6 -6,-6 z"
       id="path12" /></g></svg>
