<?xml version="1.0" encoding="UTF-8" standalone="no"?>
<svg
   id="_图层_1"
   version="1.1"
   viewBox="0 0 64 64" width="22" height="22"
   sodipodi:docname="com.github.efdos.mupengui.svg"
   xml:space="preserve"
   inkscape:version="1.4 (e7c3feb100, 2024-10-09)"
   xmlns:inkscape="http://www.inkscape.org/namespaces/inkscape"
   xmlns:sodipodi="http://sodipodi.sourceforge.net/DTD/sodipodi-0.dtd"
   xmlns="http://www.w3.org/2000/svg"
   xmlns:svg="http://www.w3.org/2000/svg"><sodipodi:namedview
     id="namedview26"
     pagecolor="#505050"
     bordercolor="#eeeeee"
     borderopacity="1"
     inkscape:showpageshadow="0"
     inkscape:pageopacity="0"
     inkscape:pagecheckerboard="0"
     inkscape:deskcolor="#505050"
     inkscape:zoom="8.453125"
     inkscape:cx="31.94085"
     inkscape:cy="33.833641"
     inkscape:window-width="1920"
     inkscape:window-height="939"
     inkscape:window-x="0"
     inkscape:window-y="34"
     inkscape:window-maximized="1"
     inkscape:current-layer="_图层_1" /><!-- Generator: Adobe Illustrator 29.0.1, SVG Export Plug-In . SVG Version: 2.1.0 Build 192)  --><defs
     id="defs6"><style
       id="style1">
      .st0 {
        fill-opacity: .5;
      }

      .st0, .st1, .st2, .st3, .st4, .st5, .st6, .st7 {
        fill: #fff;
      }

      .st8 {
        fill: #133c9a;
      }

      .st2, .st9 {
        display: none;
      }

      .st3 {
        fill-opacity: .2;
      }

      .st4 {
        fill-opacity: .9;
      }

      .st10 {
        fill: #3370ff;
      }

      .st11 {
        fill: url(#_未命名的渐变_3);
      }

      .st12 {
        fill: url(#_未命名的渐变);
      }

      .st5 {
        fill-opacity: .3;
      }

      .st6 {
        fill-opacity: 0;
      }

      .st7 {
        fill-opacity: .7;
      }

      .st13 {
        fill: #00d6b9;
      }

      .st14 {
        fill: url(#_未命名的渐变_2);
      }
    </style><radialGradient
       id="_未命名的渐变"
       data-name="未命名的渐变"
       cx="123.9"
       cy="-40.2"
       fx="123.9"
       fy="-40.2"
       r="59.4"
       gradientTransform="translate(-26.8 25.5) scale(.6 -.7)"
       gradientUnits="userSpaceOnUse"><stop
         offset="0"
         stop-color="#db202e"
         id="stop1" /><stop
         offset="1"
         stop-color="#e01b24"
         id="stop2" /></radialGradient><radialGradient
       id="_未命名的渐变_2"
       data-name="未命名的渐变 2"
       cx="67.6"
       cy="26.8"
       fx="67.6"
       fy="26.8"
       r="105.2"
       gradientTransform="translate(-26.6 25.3) scale(.6 -.7)"
       gradientUnits="userSpaceOnUse"><stop
         offset="0"
         stop-color="#ffb648"
         id="stop3" /><stop
         offset="1"
         stop-color="#ff7800"
         stop-opacity="0"
         id="stop4" /></radialGradient><radialGradient
       id="_未命名的渐变_3"
       data-name="未命名的渐变 3"
       cx="61.7"
       cy="18.6"
       fx="61.7"
       fy="18.6"
       r="68"
       gradientTransform="translate(-26.8 25.8) scale(.6 -.7)"
       gradientUnits="userSpaceOnUse"><stop
         offset="0"
         stop-color="#c64600"
         id="stop5" /><stop
         offset="1"
         stop-color="#a51d2d"
         id="stop6" /></radialGradient></defs><path
     class="st1"
     d="M47.5,64.1H13.8c-7.6,0-13.8-6.3-13.8-13.8V13.7C0,6.2,6.2,0,13.7,0h36.6c7.5,0,13.7,6.2,13.7,13.7v36.6c0,7.5-6.2,13.7-13.7,13.7h-2.9.1Z"
     id="path6"
     style="fill:#338505;fill-opacity:1" /><g
     id="g45"
     transform="matrix(1.1394243,0,0,1.1411292,-4.4615791,-4.6245906)"><path
       style="opacity:0.2"
       d="m 31.910156,10 c -6.337206,0 -8.71875,1.824219 -8.71875,1.824219 l -0.699218,1.570312 c 0,0 -10.284597,0.942796 -9.269532,2.828125 C 7.3833994,18.107934 8.0195315,32.562837 8.0195314,34.636719 8.0195314,36.710603 8.9087811,46 12.335938,46 c 3.427158,0 5.839843,-13.378906 5.839843,-13.378906 0,0 5.966075,-0.563423 6.664063,3.144531 C 25.537826,39.473539 27.200698,56 31.90625,56 h 0.1875 c 4.705558,0 6.372326,-16.526459 7.070312,-20.234375 0.697984,-3.707958 6.660157,-3.144531 6.660157,-3.144531 0,0 2.412689,13.378906 5.839843,13.378906 3.427156,0 4.316407,-9.289397 4.316407,-11.363281 0,-2.073882 0.636123,-16.529289 -5.203125,-18.414063 1.015578,-1.885329 -9.265625,-2.828125 -9.265625,-2.828125 L 40.8125,11.824219 c 0,0 -2.377636,-1.824219 -8.714844,-1.824219 z m -13.90625,6 C 21.31796,16 24,18.682039 24,21.996094 24,25.310142 21.31796,28 18.003906,28 14.68986,28 12,25.310142 12,21.996094 12,18.682039 14.68986,16 18.003906,16 Z m 30.144532,1.164062 c 0.699581,0 1.280903,0.487735 1.433593,1.140626 l 0.03906,0.01953 c 0.669256,0.335715 1.204939,0.897166 1.515625,1.578125 l 0.01563,0.02344 c 0.687874,0.124816 1.207029,0.728508 1.207031,1.453125 -0.0011,0.768734 -0.585819,1.399058 -1.335937,1.46875 l -0.01563,0.02734 c -0.31763,0.56231 -0.788717,1.01384 -1.363281,1.308594 l -0.02344,0.01563 c -0.04228,0.77724 -0.684759,1.398437 -1.472656,1.398437 -0.787892,0 -1.430629,-0.621197 -1.472657,-1.398437 l -0.02344,-0.01563 C 46.077746,23.888614 45.60276,23.43731 45.285156,22.875 l -0.01172,-0.02734 c -0.750122,-0.0698 -1.339844,-0.700016 -1.339844,-1.46875 0,-0.724055 0.522525,-1.323643 1.210937,-1.449218 l 0.01172,-0.02734 c 0.310632,-0.681467 0.850267,-1.238503 1.519531,-1.574219 l 0.03906,-0.01953 c 0.15214,-0.652736 0.734012,-1.140625 1.433594,-1.140625 z M 17,18 v 3 h -3 v 2 h 3 v 3 h 2 v -3 h 2.996094 V 21 H 19 v -3 z m 29.636719,0.449219 c -0.586268,0.315849 -1.062871,0.811675 -1.355469,1.410156 0.04636,-0.0043 0.08795,-0.0039 0.128906,-0.0039 0.840032,0 1.523438,0.683385 1.523438,1.523437 0,0.838932 -0.685006,1.521806 -1.523438,1.523438 0.294194,0.489054 0.70979,0.887766 1.210938,1.160156 0.02852,-0.815042 0.702031,-1.46875 1.523437,-1.46875 0.821944,0 1.495242,0.653708 1.523438,1.46875 0.501128,-0.272548 0.916739,-0.671816 1.210937,-1.160156 -0.83737,-0.0016 -1.515625,-0.684506 -1.515625,-1.523438 0,-0.840052 0.679499,-1.523437 1.519531,-1.523437 0.04076,0 0.08315,-2.08e-4 0.128907,0.0039 -0.292622,-0.598481 -0.765299,-1.094155 -1.351563,-1.410156 0.0086,0.06419 0.0078,0.12926 0.0078,0.191406 0,0.840053 -0.679504,1.523437 -1.519531,1.523437 -0.840033,0 -1.527344,-0.683384 -1.527344,-1.523437 0,-0.06215 0.0074,-0.12722 0.01563,-0.191406 z M 32.001953,19 C 33.658409,19 35,20.339647 35,21.996094 35,23.652544 33.658409,25 32.001953,25 30.345493,25 29,23.652544 29,21.996094 29,20.339647 30.344786,19 32.001953,19 Z m 0,0.574219 C 30.6614,19.573358 29.574976,20.659447 29.574219,22 c -8.25e-4,1.341698 1.086037,2.43055 2.427734,2.429688 1.339409,-0.0024 2.424691,-1.090278 2.423828,-2.429688 -7.5e-4,-1.338266 -1.085563,-2.423411 -2.423828,-2.425781 z M 42,22 c 1.105192,0 2,0.894796 2,2 0,1.104612 -0.894808,2 -2,2 -1.105198,0 -2,-0.894798 -2,-2 0,-1.105204 0.894802,-2 2,-2 z m 1.996094,4 C 45.100526,26 46,26.8948 46,28 46,29.105206 45.099966,30 43.996094,30 42.89166,30 42,29.105206 42,28 c 0,-1.1052 0.89166,-2 1.996094,-2 z M 32,28 c 3.313774,0 6,2.68292 6,5.996094 C 38,37.309326 35.313194,40 32,40 c -3.31378,0 -6,-2.686822 -6,-6 0,-3.31323 2.68622,-6 6,-6 z m 0,3 a 3,3 0 0 0 -3,3 3,3 0 0 0 3,3 3,3 0 0 0 3,-3 3,3 0 0 0 -3,-3 z"
       id="path2" /><path
       style="fill:#acf753"
       d="m 31.910156,9 c -6.337206,0 -8.71875,1.824219 -8.71875,1.824219 l -0.699218,1.570312 c 0,0 -10.284597,0.942796 -9.269532,2.828125 C 7.3833994,17.107934 8.0195315,31.562837 8.0195314,33.636719 8.0195314,35.710603 8.9087811,45 12.335938,45 c 3.427158,0 5.839843,-13.378906 5.839843,-13.378906 0,0 5.966075,-0.563423 6.664063,3.144531 C 25.537826,38.473539 27.200698,55 31.90625,55 h 0.1875 c 4.705558,0 6.372326,-16.526459 7.070312,-20.234375 0.697984,-3.707958 6.660157,-3.144531 6.660157,-3.144531 0,0 2.412689,13.378906 5.839843,13.378906 3.427156,0 4.316407,-9.289397 4.316407,-11.363281 0,-2.073882 0.636123,-16.529289 -5.203125,-18.414063 1.015578,-1.885329 -9.265625,-2.828125 -9.265625,-2.828125 L 40.8125,10.824219 C 40.8125,10.824219 38.434864,9 32.097656,9 Z m -13.90625,6 C 21.31796,15 24,17.682039 24,20.996094 24,24.310142 21.31796,27 18.003906,27 14.68986,27 12,24.310142 12,20.996094 12,17.682039 14.68986,15 18.003906,15 Z m 30.144532,1.164062 c 0.699581,0 1.280903,0.487735 1.433593,1.140626 l 0.03906,0.01953 c 0.669256,0.335715 1.204939,0.897166 1.515625,1.578125 l 0.01563,0.02344 c 0.687874,0.124816 1.207029,0.728508 1.207031,1.453125 -0.0011,0.768734 -0.585819,1.399058 -1.335937,1.46875 l -0.01563,0.02734 c -0.31763,0.56231 -0.788717,1.01384 -1.363281,1.308594 l -0.02344,0.01563 c -0.04228,0.77724 -0.684759,1.398437 -1.472656,1.398437 -0.787892,0 -1.430629,-0.621197 -1.472657,-1.398437 l -0.02344,-0.01563 C 46.077746,22.888614 45.60276,22.43731 45.285156,21.875 l -0.01172,-0.02734 c -0.750122,-0.0698 -1.339844,-0.700016 -1.339844,-1.46875 0,-0.724055 0.522525,-1.323643 1.210937,-1.449218 l 0.01172,-0.02734 c 0.310632,-0.681467 0.850267,-1.238503 1.519531,-1.574219 l 0.03906,-0.01953 c 0.15214,-0.652736 0.734012,-1.140625 1.433594,-1.140625 z M 17,17 v 3 h -3 v 2 h 3 v 3 h 2 v -3 h 2.996094 V 20 H 19 v -3 z m 29.636719,0.449219 c -0.586268,0.315849 -1.062871,0.811675 -1.355469,1.410156 0.04636,-0.0043 0.08795,-0.0039 0.128906,-0.0039 0.840032,0 1.523438,0.683385 1.523438,1.523437 0,0.838932 -0.685006,1.521806 -1.523438,1.523438 0.294194,0.489054 0.70979,0.887766 1.210938,1.160156 0.02852,-0.815042 0.702031,-1.46875 1.523437,-1.46875 0.821944,0 1.495242,0.653708 1.523438,1.46875 0.501128,-0.272548 0.916739,-0.671816 1.210937,-1.160156 -0.83737,-0.0016 -1.515625,-0.684506 -1.515625,-1.523438 0,-0.840052 0.679499,-1.523437 1.519531,-1.523437 0.04076,0 0.08315,-2.08e-4 0.128907,0.0039 -0.292622,-0.598481 -0.765299,-1.094155 -1.351563,-1.410156 0.0086,0.06419 0.0078,0.12926 0.0078,0.191406 0,0.840053 -0.679504,1.523437 -1.519531,1.523437 -0.840033,0 -1.527344,-0.683384 -1.527344,-1.523437 0,-0.06215 0.0074,-0.12722 0.01563,-0.191406 z M 32.001953,18 C 33.658409,18 35,19.339647 35,20.996094 35,22.652544 33.658409,24 32.001953,24 30.345493,24 29,22.652544 29,20.996094 29,19.339647 30.344786,18 32.001953,18 Z m 0,0.574219 C 30.6614,18.573358 29.574976,19.659447 29.574219,21 c -8.25e-4,1.341698 1.086037,2.43055 2.427734,2.429688 1.339409,-0.0024 2.424691,-1.090278 2.423828,-2.429688 -7.5e-4,-1.338266 -1.085563,-2.423411 -2.423828,-2.425781 z M 42,21 c 1.105192,0 2,0.894796 2,2 0,1.104612 -0.894808,2 -2,2 -1.105198,0 -2,-0.894798 -2,-2 0,-1.105204 0.894802,-2 2,-2 z m 1.996094,4 C 45.100526,25 46,25.8948 46,27 46,28.105206 45.099966,29 43.996094,29 42.89166,29 42,28.105206 42,27 c 0,-1.1052 0.89166,-2 1.996094,-2 z M 32,27 c 3.313774,0 6,2.68292 6,5.996094 C 38,36.309326 35.313194,39 32,39 c -3.31378,0 -6,-2.686822 -6,-6 0,-3.31323 2.68622,-6 6,-6 z m 0,3 a 3,3 0 0 0 -3,3 3,3 0 0 0 3,3 3,3 0 0 0 3,-3 3,3 0 0 0 -3,-3 z"
       id="path3-4" /><path
       style="opacity:0.2;fill:#ffffff"
       d="m 31.910156,9 c -6.337206,0 -8.71875,1.824219 -8.71875,1.824219 l -0.699218,1.570312 c 0,0 -10.284597,0.942796 -9.269532,2.828125 -5.2378948,1.691121 -5.2666703,13.425499 -5.2167966,17.335938 -0.00973,-4.610134 0.3653687,-14.769593 5.2167966,-16.335938 -1.015065,-1.885329 9.269532,-2.828125 9.269532,-2.828125 l 0.699218,-1.570312 c 0,0 2.381544,-1.824219 8.71875,-1.824219 h 0.1875 c 6.337208,0 8.714844,1.824219 8.714844,1.824219 l 0.699219,1.570312 c 0,0 10.281203,0.942796 9.265625,2.828125 4.851421,1.565927 5.226522,11.725698 5.216797,16.335938 0.04987,-3.910518 0.02109,-15.645269 -5.216797,-17.335938 1.015578,-1.885329 -9.265625,-2.828125 -9.265625,-2.828125 L 40.8125,10.824219 C 40.8125,10.824219 38.434864,9 32.097656,9 Z M 17,17 v 1 h 2 v -1 z m 32.550781,1.228516 c -0.229548,0.548695 -0.770807,0.935546 -1.402343,0.935546 -0.628474,0 -1.170659,-0.383279 -1.404297,-0.927734 -0.0074,0.02537 -0.02326,0.04636 -0.0293,0.07227 l -0.03906,0.01953 c -0.307998,0.154498 -0.58472,0.360809 -0.828125,0.599609 0.03467,0.0105 0.06994,0.01839 0.103516,0.03125 0.20618,-0.197122 0.432546,-0.373463 0.685547,-0.509765 -0.0082,0.06419 -0.01563,0.129256 -0.01563,0.191406 0,0.840053 0.687311,1.523437 1.527344,1.523437 0.840026,0 1.519531,-0.683384 1.519531,-1.523437 0,-0.06215 7.87e-4,-0.127216 -0.0078,-0.191406 0.252881,0.136305 0.478315,0.31277 0.683594,0.509765 0.03372,-0.01289 0.06869,-0.0227 0.103516,-0.0332 -0.242506,-0.23976 -0.518178,-0.447065 -0.826172,-0.601562 l -0.03906,-0.01953 c -0.0064,-0.02736 -0.02337,-0.04941 -0.03125,-0.07617 z M 32.001953,19 c -0.857079,0 -1.626695,0.362319 -2.173828,0.9375 -0.157791,0.321823 -0.25369,0.67985 -0.253906,1.0625 -1.06e-4,0.172061 0.01882,0.339974 0.05273,0.501953 0.230757,-1.10076 1.205686,-1.928485 2.375,-1.927734 1.16665,0.0021 2.139967,0.827619 2.371094,1.925781 0.03385,-0.16172 0.05284,-0.32825 0.05273,-0.5 -2.17e-4,-0.387005 -0.100274,-0.74766 -0.261719,-1.072266 C 33.618403,19.358378 32.85371,19 32.001953,19 Z M 14,20 v 1 h 3 v -1 z m 5,0 v 1 h 2.996094 v -1 z m 33.269531,0.875 c -0.18896,0.528937 -0.666182,0.918778 -1.246093,0.972656 l -0.01563,0.02734 c -0.194149,0.343708 -0.452596,0.638247 -0.75,0.888672 0.19004,0.0865 0.398973,0.138247 0.621094,0.138672 -0.294198,0.48834 -0.709809,0.887608 -1.210937,1.160156 -0.0063,-0.181452 -0.04854,-0.353645 -0.113281,-0.513672 -0.1847,0.604844 -0.741624,1.048828 -1.40625,1.048828 -0.668321,0 -1.228749,-0.44857 -1.410157,-1.058594 -0.06719,0.162691 -0.11071,0.338338 -0.117187,0.523438 -0.501148,-0.27239 -0.916744,-0.671102 -1.210938,-1.160156 0.223015,-4.34e-4 0.4337,-0.05173 0.625,-0.138672 -0.298038,-0.250221 -0.556117,-0.545407 -0.75,-0.888672 l -0.01172,-0.02734 c -0.579274,-0.0539 -1.059751,-0.442685 -1.25,-0.970703 -0.05718,0.156938 -0.08984,0.32506 -0.08984,0.501953 0,0.768734 0.589722,1.39895 1.339844,1.46875 l 0.01172,0.02734 c 0.317604,0.56231 0.792598,1.013616 1.367188,1.308594 l 0.02344,0.01563 c 0.04203,0.77724 0.684765,1.398437 1.472657,1.398437 0.787897,0 1.430376,-0.621197 1.472656,-1.398437 l 0.02344,-0.01563 c 0.574558,-0.29475 1.045645,-0.74628 1.363275,-1.30859 l 0.01563,-0.02734 c 0.750118,-0.06969 1.334837,-0.700016 1.335937,-1.46875 0,-0.177045 -0.03297,-0.346519 -0.08984,-0.503906 z m -5.427734,0.002 c -0.20808,0.593928 -0.768386,1.0241 -1.431641,1.025391 0.18833,0.31307 0.430559,0.584866 0.708985,0.814453 0.481113,-0.256673 0.814453,-0.756449 0.814453,-1.337891 0,-0.176965 -0.03607,-0.343817 -0.0918,-0.501953 z m 2.613281,0.002 c -0.05506,0.157637 -0.0918,0.323692 -0.0918,0.5 0,0.579883 0.328021,1.07862 0.804688,1.335938 0.278921,-0.229923 0.522345,-0.499455 0.710937,-0.8125 C 50.217278,21.901138 49.661956,21.47183 49.455075,20.879 Z M 12.025391,21.496094 C 12.011696,21.661408 12,21.827226 12,21.996094 12,25.310142 14.68986,28 18.003906,28 21.31796,28 24,25.310142 24,21.996094 c 0,-0.168868 -0.01174,-0.334686 -0.02539,-0.5 C 23.720262,24.575815 21.149093,27 18.003906,27 c -3.145179,0 -5.72345,-2.424185 -5.978515,-5.503906 z m 17.02539,0 C 29.023076,21.659723 29,21.824531 29,21.996094 29,23.652544 30.345493,25 32.001953,25 33.658409,25 35,23.652544 35,21.996094 c 0,-0.171563 -0.02314,-0.336371 -0.05078,-0.5 -0.100512,0.597456 -0.373678,1.131999 -0.771485,1.554687 -0.391799,0.81198 -1.214262,1.377184 -2.175781,1.378907 -0.966759,6.21e-4 -1.794976,-0.568875 -2.185547,-1.386719 -0.394504,-0.421465 -0.665477,-0.953193 -0.765626,-1.546875 z M 40.070312,23.5 C 40.028679,23.660802 40,23.826116 40,24 c 0,1.105202 0.894802,2 2,2 0.09991,0 0.195049,-0.01517 0.291016,-0.0293 0.301404,-0.500844 0.813204,-0.853214 1.416015,-0.941406 C 43.888963,24.727917 44,24.377765 44,24 44,23.826116 43.971321,23.660802 43.929688,23.5 43.706699,24.361032 42.93131,25 42,25 41.068685,25 40.2933,24.361253 40.070312,23.5 Z m 2,4 C 42.028813,27.660802 42,27.826117 42,28 c 0,1.105206 0.89166,2 1.996094,2 C 45.099966,30 46,29.105206 46,28 46,27.825967 45.96963,27.660926 45.92773,27.5 45.703458,28.361043 44.926138,29 43.99609,29 43.065418,29 42.292578,28.361254 42.070308,27.5 Z M 32,30 a 3,3 0 0 0 -3,3 3,3 0 0 0 0.04297,0.486328 A 3,3 0 0 1 32,31 3,3 0 0 1 34.957031,33.513672 3,3 0 0 0 35,33 3,3 0 0 0 32,30 Z m 5.974609,3.496094 C 37.719826,36.575192 35.14437,39 32,39 28.855074,39 26.280121,36.578699 26.025391,33.5 26.011714,33.6653 26,33.831174 26,34 c 0,3.313178 2.68622,6 6,6 3.313194,0 6,-2.690674 6,-6.003906 0,-0.168823 -0.01171,-0.334722 -0.02539,-0.5 z"
       id="path5" /></g></svg>
