<?xml version="1.0" encoding="UTF-8" standalone="no"?>
<svg
   id="_图层_1"
   version="1.1"
   viewBox="0 0 64 64" width="22" height="22"
   sodipodi:docname="com.github.hannesschulze.optimizer.svg"
   xml:space="preserve"
   inkscape:version="1.4 (e7c3feb100, 2024-10-09)"
   xmlns:inkscape="http://www.inkscape.org/namespaces/inkscape"
   xmlns:sodipodi="http://sodipodi.sourceforge.net/DTD/sodipodi-0.dtd"
   xmlns="http://www.w3.org/2000/svg"
   xmlns:svg="http://www.w3.org/2000/svg"><sodipodi:namedview
     id="namedview26"
     pagecolor="#505050"
     bordercolor="#eeeeee"
     borderopacity="1"
     inkscape:showpageshadow="0"
     inkscape:pageopacity="0"
     inkscape:pagecheckerboard="0"
     inkscape:deskcolor="#505050"
     inkscape:zoom="10.6875"
     inkscape:cx="32"
     inkscape:cy="33.497076"
     inkscape:window-width="1920"
     inkscape:window-height="939"
     inkscape:window-x="0"
     inkscape:window-y="34"
     inkscape:window-maximized="1"
     inkscape:current-layer="_图层_1"
     showguides="true"><sodipodi:guide
       position="18.314013,53.077474"
       orientation="0,-1"
       id="guide30"
       inkscape:locked="false" /><sodipodi:guide
       position="29.454684,54.142758"
       orientation="0,-1"
       id="guide31"
       inkscape:locked="false" /></sodipodi:namedview><!-- Generator: Adobe Illustrator 29.0.1, SVG Export Plug-In . SVG Version: 2.1.0 Build 192)  --><defs
     id="defs6"><style
       id="style1">
      .st0 {
        fill-opacity: .5;
      }

      .st0, .st1, .st2, .st3, .st4, .st5, .st6, .st7 {
        fill: #fff;
      }

      .st8 {
        fill: #133c9a;
      }

      .st2, .st9 {
        display: none;
      }

      .st3 {
        fill-opacity: .2;
      }

      .st4 {
        fill-opacity: .9;
      }

      .st10 {
        fill: #3370ff;
      }

      .st11 {
        fill: url(#_未命名的渐变_3);
      }

      .st12 {
        fill: url(#_未命名的渐变);
      }

      .st5 {
        fill-opacity: .3;
      }

      .st6 {
        fill-opacity: 0;
      }

      .st7 {
        fill-opacity: .7;
      }

      .st13 {
        fill: #00d6b9;
      }

      .st14 {
        fill: url(#_未命名的渐变_2);
      }
    </style><radialGradient
       id="_未命名的渐变"
       data-name="未命名的渐变"
       cx="123.9"
       cy="-40.2"
       fx="123.9"
       fy="-40.2"
       r="59.4"
       gradientTransform="translate(-26.8 25.5) scale(.6 -.7)"
       gradientUnits="userSpaceOnUse"><stop
         offset="0"
         stop-color="#db202e"
         id="stop1" /><stop
         offset="1"
         stop-color="#e01b24"
         id="stop2" /></radialGradient><radialGradient
       id="_未命名的渐变_2"
       data-name="未命名的渐变 2"
       cx="67.6"
       cy="26.8"
       fx="67.6"
       fy="26.8"
       r="105.2"
       gradientTransform="translate(-26.6 25.3) scale(.6 -.7)"
       gradientUnits="userSpaceOnUse"><stop
         offset="0"
         stop-color="#ffb648"
         id="stop3" /><stop
         offset="1"
         stop-color="#ff7800"
         stop-opacity="0"
         id="stop4" /></radialGradient><radialGradient
       id="_未命名的渐变_3"
       data-name="未命名的渐变 3"
       cx="61.7"
       cy="18.6"
       fx="61.7"
       fy="18.6"
       r="68"
       gradientTransform="translate(-26.8 25.8) scale(.6 -.7)"
       gradientUnits="userSpaceOnUse"><stop
         offset="0"
         stop-color="#c64600"
         id="stop5" /><stop
         offset="1"
         stop-color="#a51d2d"
         id="stop6" /></radialGradient></defs><path
     class="st1"
     d="M47.5,64.1H13.8c-7.6,0-13.8-6.3-13.8-13.8V13.7C0,6.2,6.2,0,13.7,0h36.6c7.5,0,13.7,6.2,13.7,13.7v36.6c0,7.5-6.2,13.7-13.7,13.7h-2.9.1Z"
     id="path6"
     style="fill:#e6e6e6;fill-opacity:1" /><g
     style="fill:none"
     id="g31"
     transform="translate(-0.50000095,0.5)"><path
       style="opacity:0.2"
       d="m 32.500001,14.000001 c -16.37669,0 -28.735588,14.543736 -29.4980821,31.951621 A 1.9669061,1.9617345 0 0 0 4.9660676,48 H 60.033933 a 1.9669061,1.9617345 0 0 0 1.96415,-2.048378 C 61.23553,28.543746 48.876691,14.000001 32.500001,14.000001 Z"
       id="path1-9" /><path
       style="fill:#5d6d79"
       d="m 32.500001,13.000001 c -16.37669,0 -28.735588,14.543736 -29.4980821,31.951621 A 1.9669061,1.9617345 0 0 0 4.9660676,47 H 60.033933 a 1.9669061,1.9617345 0 0 0 1.96415,-2.048378 C 61.23553,27.543746 48.876691,13.000001 32.500001,13.000001 Z"
       id="path2-2" /><g
       style="opacity:0.2;stroke:#000000"
       transform="translate(0,0.99985)"
       id="g9"><path
         style="fill:none;stroke:#000000;stroke-width:3;stroke-linecap:round"
         d="m 11.5,42.5 h -4"
         id="path3-0" /><path
         style="fill:none;stroke:#000000;stroke-width:3;stroke-linecap:round"
         d="m 57.500364,42.5 h -4"
         id="path4-2" /><path
         style="fill:none;stroke:#000000;stroke-width:3;stroke-linecap:round"
         d="m 32.500182,21.499818 v -4"
         id="path5-3" /><path
         style="fill:none;stroke:#000000;stroke-width:3;stroke-linecap:round"
         d="m 43.000273,24.313309 2,-3.464102"
         id="path6-7" /><path
         style="fill:none;stroke:#000000;stroke-width:3;stroke-linecap:round"
         d="m 50.686873,31.999909 3.464102,-2"
         id="path7-5" /><path
         style="fill:none;stroke:#000000;stroke-width:3;stroke-linecap:round"
         d="m 22.00009,24.313309 -2,-3.464102"
         id="path8-9" /><path
         style="fill:none;stroke:#000000;stroke-width:3;stroke-linecap:round"
         d="m 14.313491,31.999909 -3.464101,-2"
         id="path9-2" /></g><path
       style="opacity:0.2"
       d="M 33.565696,49.732491 30.237037,45.94923 45,36 Z"
       id="path10-2" /><path
       style="fill:#e2900d"
       d="M 33.565696,48.732491 30.237037,44.94923 45,35 Z"
       id="path11-8" /><path
       style="opacity:0.1;fill:#ffffff"
       d="m 45,35 -14.763672,9.949219 0.552734,0.626953 12.314454,-8.296875 z"
       id="path12-9" /><circle
       style="opacity:0.2"
       cx="32.5"
       cy="47.5"
       r="4.5"
       id="circle12" /><circle
       style="fill:#ed274c"
       cx="32.5"
       cy="46.5"
       r="4.5"
       id="circle13" /><g
       id="g19"><path
         style="fill:none;stroke:#ffffff;stroke-width:3;stroke-linecap:round"
         d="m 11.5,42.5 h -4"
         id="path13" /><path
         style="fill:none;stroke:#ffffff;stroke-width:3;stroke-linecap:round"
         d="m 57.500364,42.5 h -4"
         id="path14" /><path
         style="fill:none;stroke:#ffffff;stroke-width:3;stroke-linecap:round"
         d="m 32.500182,21.499818 v -4"
         id="path15" /><path
         style="fill:none;stroke:#ffffff;stroke-width:3;stroke-linecap:round"
         d="m 43.000273,24.313309 2,-3.464102"
         id="path16" /><path
         style="fill:none;stroke:#ffffff;stroke-width:3;stroke-linecap:round"
         d="m 50.686873,31.999909 3.464102,-2"
         id="path17" /><path
         style="fill:none;stroke:#ffffff;stroke-width:3;stroke-linecap:round"
         d="m 22.00009,24.313309 -2,-3.464102"
         id="path18" /><path
         style="fill:none;stroke:#ffffff;stroke-width:3;stroke-linecap:round"
         d="m 14.313491,31.999909 -3.464101,-2"
         id="path19" /></g><path
       style="opacity:0.1;fill:#ffffff"
       d="M 32.5,13 C 16.12331,13 3.7644472,27.543287 3.0019531,44.951172 a 1.9669061,1.9617345 0 0 0 0.035156,0.455078 C 4.0315541,28.241741 16.295127,14 32.5,14 48.704873,14 60.96839,28.24175 61.962891,45.40625 a 1.9669061,1.9617345 0 0 0 0.03516,-0.455078 C 61.235494,27.543296 48.87669,13 32.5,13 Z"
       id="path20" /><path
       style="opacity:0.2;fill:#ffffff"
       d="M 32.5,42 A 4.5,4.5 0 0 0 28,46.5 4.5,4.5 0 0 0 28.0332,46.988281 4.5,4.5 0 0 1 32.5,43 4.5,4.5 0 0 1 36.966797,47.011719 4.5,4.5 0 0 0 37,46.5 4.5,4.5 0 0 0 32.5,42 Z"
       id="path21" /></g></svg>
