<?xml version="1.0" encoding="UTF-8"?>
<svg id="_图层_1" xmlns="http://www.w3.org/2000/svg" version="1.1" viewBox="0 0 64 64" width="22" height="22">
  <!-- Generator: Adobe Illustrator 29.0.1, SVG Export Plug-In . SVG Version: 2.1.0 Build 192)  -->
  <defs>
    <style>
      .st0 {
        fill: #4daf7c;
      }

      .st1, .st2, .st3, .st4, .st5 {
        isolation: isolate;
      }

      .st1, .st3, .st4, .st5 {
        opacity: .2;
      }

      .st1, .st6, .st5, .st7 {
        display: none;
      }

      .st8 {
        fill: #ffe6bc;
      }

      .st9 {
        fill: #ffa802;
      }

      .st10 {
        fill: #ffd264;
      }

      .st11 {
        fill: #e3e3e3;
      }

      .st2 {
        opacity: .1;
      }

      .st12 {
        fill: #3068c1;
      }

      .st4, .st5 {
        fill: #fff;
      }

      .st7, .st13 {
        fill: #e4e4e4;
      }

      .st14 {
        fill: #5ed698;
      }
    </style>
  </defs>
  <path class="st13" d="M50.4,64H13.8c-7.6,0-13.8-6.2-13.8-13.7V13.7C0,6.2,6.2,0,13.7,0h36.6c7.5,0,13.7,6.2,13.7,13.7v36.6c0,7.5-6.2,13.7-13.7,13.7h.1Z"/>
  <g class="st6">
    <path class="st11" d="M44,64.1h-16.2l-11.8-11.5,13.7-21.5c1.2-9.8,1.1-9.6,9.1-12.7l11.3-.8c11,9.5,2.6,2,13.9,12v22.2c0,6.2-7.4,12.2-13.6,12.2h-6.4Z"/>
    <g>
      <path class="st0" d="M40,32h-5.9c-.2,0-.4,0-.5.2-.5.2-.8.5-1.1.9s-.4.9-.4,1.4v7.6h-4c-.7,0-1.2.2-1.3.5s0,.8.6,1.3l8.2,7.8c.2.2.5.4.9.5s.7.2,1,.2.7,0,1-.2.6-.3.9-.5l8.2-7.8c.5-.5.7-.9.6-1.3s-.6-.5-1.3-.5h-4v-7.6c0-.7-.3-1.3-.8-1.8s-1.2-.7-1.9-.7h-.2Z"/>
      <path class="st14" d="M29.8,9.7c-1-.2-1.9,0-2.7.7s-1.1,1.4-1.1,2.4v20.6c-.6-.2-1.3-.4-1.9-.5-.7,0-1.3-.2-2-.2-1.6,0-3.1.3-4.5.9-1.4.6-2.6,1.3-3.6,2.3s-1.8,2.1-2.5,3.5c-.6,1.3-.9,2.7-.9,4.2s.3,2.9.9,4.2c.6,1.3,1.4,2.5,2.5,3.4,1,1,2.2,1.8,3.6,2.3,1.4.6,2.9.8,4.5.8s3.4-.4,5-1.1c1.6-.7,2.8-1.7,3.9-3l-5.2-4.9c-.8-.8-1.2-1.5-1.2-2.1s0-1.1.2-1.3c0-.3.4-.6.8-1.1.5-.4,1.3-.7,2.4-.7h1.9v-5.7c0-1,.3-2,1-2.8s1.6-1.3,2.6-1.6v-8.2c3.7,0,6.5.5,8.4,1.4,1.9.9,3.2,2,3.9,3.4s1,2.8.8,4.4c-.2,1.5-.4,2.9-.9,4.1-.3,1-.4,1.5-.2,1.6s.6-.2,1.3-.9c4.5-4.7,6.6-8.6,6.3-11.7-.3-3.2-1.7-5.8-4.3-7.8s-5.8-3.5-9.6-4.6c-3.8-1-6.9-1.8-9.4-2.2h0v.2Z"/>
    </g>
  </g>
  <g>
    <path class="st1" d="M42.6,5.9l16.2,15.5c6.7,6.4,6.7,16.8,0,23.2l-16.2,15.5c-6.7,6.4-17.6,6.4-24.3,0L2,44.6c-6.7-6.4-6.7-16.8,0-23.2L18.2,5.9C25-.5,35.8-.5,42.6,5.9Z"/>
    <path class="st7" d="M42.6,4.8l16.2,15.5c6.7,6.4,6.7,16.8,0,23.2l-16.2,15.5c-6.7,6.4-17.6,6.4-24.3,0L2,43.5c-6.7-6.4-6.7-16.8,0-23.2L18.2,4.8c6.7-6.4,17.6-6.4,24.3,0Z"/>
    <path class="st2" d="M13.1,22c-3.8,0-6.9,4.9-6.9,11,0,6.1,3.1,11,6.9,11h34.6c3.8,0,6.9-4.9,6.9-11h0c0-6.1-3.1-11-6.9-11H13.1Z"/>
    <path class="st12" d="M13.1,20.9c-3.8,0-6.9,4.9-6.9,11s3.1,11,6.9,11h34.6c3.8,0,6.9-4.9,6.9-11h0c0-6.1-3.1-11-6.9-11H13.1Z"/>
    <path class="st4" d="M13.1,20.9c-3.8,0-6.9,4.9-6.9,11h0c0,.4,0,.7,0,1.1h6.9v-12.1ZM20,20.9v12.1h6.9v-12.1h-6.9ZM33.9,20.9v12.1h6.9v-12.1h-6.9ZM47.7,20.9v12.1h6.9c0-.4,0-.7,0-1.1,0-6.1-3.1-11-6.9-11h0Z"/>
    <path class="st3" d="M13.1,20.9v12.1h6.9v-12.1h-6.9ZM26.9,20.9v12.1h6.9v-12.1h-6.9ZM40.8,20.9v12.1h6.9v-12.1h-6.9Z"/>
    <ellipse class="st2" cx="13.1" cy="35.2" rx="9.2" ry="8.8"/>
    <ellipse class="st9" cx="13.1" cy="34.1" rx="9.2" ry="8.8"/>
    <ellipse class="st2" cx="13.1" cy="35.2" rx="5.8" ry="5.5"/>
    <ellipse class="st10" cx="13.1" cy="34.1" rx="5.8" ry="5.5"/>
    <ellipse class="st2" cx="13.1" cy="35.2" rx="2.3" ry="2.2"/>
    <ellipse class="st8" cx="13.1" cy="34.1" rx="2.3" ry="2.2"/>
    <path class="st5" d="M30.4,0c-4.4,0-8.8,1.6-12.2,4.8L2,20.3c-3.5,3.3-5.1,7.6-5,11.9.2-3.9,1.8-7.8,5-10.8L18.2,5.9c3.4-3.2,7.8-4.8,12.2-4.8s8.8,1.6,12.2,4.8l16.2,15.5c3.2,3,4.8,6.9,5,10.8,0-4.3-1.5-8.6-5-11.9l-16.2-15.5c-3.4-3.2-7.8-4.8-12.2-4.8Z"/>
  </g>
</svg>