<?xml version="1.0" encoding="UTF-8"?>
<svg id="_图层_1" xmlns="http://www.w3.org/2000/svg" version="1.1" viewBox="0 0 64 64" width="22" height="22">
  <!-- Generator: Adobe Illustrator 29.0.1, SVG Export Plug-In . SVG Version: 2.1.0 Build 192)  -->
  <defs>
    <style>
      .st0 {
        fill: #4f4f4f;
      }

      .st1 {
        fill: #c63166;
      }

      .st2 {
        fill: #3f7da7;
        fill-rule: evenodd;
      }

      .st3 {
        fill: #4a96e1;
      }

      .st4, .st5, .st6 {
        fill: #fff;
      }

      .st7 {
        fill: #4271a3;
      }

      .st8 {
        fill: #f44336;
      }

      .st9 {
        fill: #2f67a4;
      }

      .st10 {
        fill: #8e8e8e;
      }

      .st11 {
        fill: #304776;
      }

      .st12 {
        fill: #778b3c;
      }

      .st13 {
        fill: #eddf36;
      }

      .st14 {
        fill: #f75f5f;
      }

      .st15 {
        fill: #b8da6c;
      }

      .st16, .st5 {
        opacity: .2;
      }

      .st16, .st5, .st6 {
        isolation: isolate;
      }

      .st17 {
        display: none;
      }

      .st18 {
        fill: #ebebeb;
      }

      .st19 {
        fill: #d8d342;
      }

      .st20 {
        fill: #ffa726;
      }

      .st21 {
        fill: #5c5f60;
      }

      .st22 {
        fill: #f7f7f7;
      }

      .st6 {
        opacity: .1;
      }
    </style>
  </defs>
  <path class="st22" d="M50.4,64H13.8c-7.6,0-13.8-6.2-13.8-13.7V13.7C0,6.2,6.2,0,13.7,0h36.6c7.5,0,13.7,6.2,13.7,13.7v36.6c0,7.5-6.2,13.7-13.7,13.7h.1Z"/>
  <g class="st17">
    <path class="st16" d="M26,7.2c-3.9,0-6.2,3.5-7.8,6.4-.3.1-.6.3-.9.4-3.1,1.9-5.6,4.5-7.5,7.4-1.7,2.8-2.7,5.9-3.1,9-.2,3.2.2,6.5,1.5,9.5,2.5,5.2,8.6,11.2,14.3,11.1-1.2-.7-4.3-3.2-5.3-8.1,1,1.9,5.7,4.3,7.1,4.9-.7-.6-3.3-4.2-3.5-6.3l-8.9-2.5c-.8-2.3-1.2-4.6-1.5-7,0-.5-.1-1.1.1-1,.8,1.1,1.9,1.5,3.2,2.2-1.3-1.9-1.9-4-1.7-6.3.2-2.2,1.6-4.4,3.1-6,.2-.2.4-.4.6-.6,0,.6.2,1.2.3,1.7,0,.4.3,1.3,0,1.4-.5,1.3-.9,2.9.2,4,.3-1.4,2-2.1,3.4-2.7,1.5-.6,2.7-1.9,4.2-2.6,2-1,3.9.4,6.4.4s5-.8,7.4-1.8c.6.5,1.6,1.4,2,2h0c1.2,1.8,2.1,4,2.4,6.1.4,2.7,0,5.5-1.7,7.5,0,0,0,0,0,0,0,0,0,0,0,0,0,0,3.2.2,5.3-1.6-1.5,10.7-8.6,16.4-12.4,17.9,4.8.3,8.5-3,8.7-3.2-.5.6-2.2,2.5-3.4,3.2,3.3-.8,5.4-1.1,7.5-2.5,0,0,1.7-.8,3.4-2.7.2-.2.6-.6.9-.9.1-.2.3-.3.4-.5,0,0,0,0,0,0,3.7-4.1,5.5-9.3,5.3-13.9,0-5.6-2.5-10.5-6.6-14.6-3-2.9-6.5-4.9-9.5-5.8-4-1.1-8.9-1.5-12.5-.9-.3.1,0-1.7.5-2-.8,0-1.7,1.5-2.5,2.3,0,0-.2,0-.2,0,.5-.9.2-1.4,1-2.3-2.1.4-2.5,1.6-3.3,2.9-.3,0-.5.2-.8.3.7-2.1,2-3.2,4.1-4.8Z"/>
    <path class="st11" d="M14.4,43.6c2.1,2.8,4.9,6.2,8.1,6.6-1.2-.7-4.3-3.2-5.3-8.1,1,1.9,5.7,4.3,7.1,4.9-.7-.6-3.3-4.2-3.5-6.3l-8.9-2.5c0,0,.3,2.4,2.6,5.4Z"/>
    <path class="st16" d="M46.2,24.2l-16.1-5.2-17.2,1.1-4.4,5c.8,4.7.3,9.7,3,13.8l30.4,8.9,4.2-10.8v-12.8Z"/>
    <path class="st18" d="M46.2,23.4l-16.1-5.2-17.2,1.1-4.4,5c.8,4.7.3,9.7,3,13.8l30.4,8.9,4.2-10.8v-12.8Z"/>
    <path class="st2" d="M13.3,19l2.9.4.8-3.6-1.6.7-2.1,2.5Z"/>
    <path class="st16" d="M44.8,27.1l-2.4-7.2-29.1-.3-.2.2-.3.3,11.4,14.7,20.6-7.7Z"/>
    <path class="st22" d="M44.8,26.3l-2.4-7.2-29.1-.3-.2.2-.3.3,11.4,14.7,20.6-7.7Z"/>
    <path class="st9" d="M30,9.9s-3.7,0-5.3.5c-2.7.6-5.1,1.6-7.4,2.8-3.1,1.9-5.6,4.5-7.5,7.4-1.7,2.8-2.7,5.9-3.1,9-.2,3.2.2,6.5,1.5,9.5,2.5,5.2,8.6,11.2,14.3,11.1-.7-.1-1.3-.8-2-1.1-2.3-1.2-4.5-3.3-6.1-5.5-2.3-3-2.5-5.3-2.6-5.4h0c-.8-2.3-1.2-4.6-1.5-7,0-.5-.1-1.1.1-1,.8,1.1,1.9,1.5,3.2,2.2-1.3-1.9-1.9-4-1.7-6.3.2-2.2,1.6-4.4,3.1-6,4-4.2,9.7-7.5,14.9-10.2Z"/>
    <path class="st6" d="M30,9.9s-3.7,0-5.3.5c-2.7.6-5.1,1.6-7.4,2.8-3.1,1.9-5.6,4.5-7.5,7.4-1.7,2.8-2.7,5.9-3.1,9,0,.6,0,1.3,0,1.9,0-.4,0-.7,0-1.1.4-3.2,1.4-6.3,3.1-9,1.9-2.9,4.5-5.5,7.5-7.4,2.4-1.2,4.8-2.2,7.4-2.8.9-.3,2.4-.4,3.6-.4.6-.3,1.1-.6,1.7-.9Z"/>
    <path class="st3" d="M26,6.4c-4.2.1-6.5,4-8.2,7.1-.6,1-1.2,2.1-1.7,3-1,1.4-.4,3.2-.2,4.7,0,.4.3,1.3,0,1.4-.5,1.3-.9,2.9.2,4,.3-1.4,2-2.1,3.4-2.7,1.5-.6,2.7-1.9,4.2-2.6,2-1,3.9.4,6.4.4s5-.8,7.4-1.8c.6.5,1.6,1.4,2,2h0c1.2,1.8,2.1,4,2.4,6.1.4,2.7,0,5.5-1.7,7.5,0,0,0,0,0,0,0,0,0,0,0,0,0,0,3.2.2,5.3-1.6-1.5,10.7-8.6,16.4-12.4,17.9,5,.3,8.8-3.2,8.8-3.2.7-1-1.8,2.3-3.5,3.2,3.3-.8,5.4-1.1,7.5-2.5,0,0,1.7-.8,3.4-2.7.2-.2.6-.6.9-.9.1-.2.3-.3.4-.5,0,0,0,0,0,0,3.7-4.1,5.5-9.3,5.3-13.9,0-5.6-2.5-10.5-6.6-14.6-3-2.9-6.5-4.9-9.5-5.8-4-1.1-8.9-1.5-12.5-.9-.3.1,0-1.7.5-2-1,0-2.1,2.1-2.9,2.6.7-1,.3-1.6,1.1-2.6-2.9.5-2.6,2.8-4.4,4.3.6-2.9,1.9-4.1,4.4-6h0Z"/>
    <path class="st7" d="M17.8,22.6c5.9-.2,2.2-3.5,10-9.7-6.4,3-12.5,3-10,9.7h0Z"/>
    <path class="st4" d="M21.3,19.9c-.6.9-1.9,1.3-2.6,1-.7-.4-.7-1.6-.2-2.5.6-.9,3-.5,3-.5s.3,1.1-.3,2h0Z"/>
    <path class="st21" d="M18.8,24.2s.3-.3.2-.8c-2,.6-2.9-1.1-2.9-1.1s-1.5,3.6.3,5.2c.2-1.3,2.4-3.2,2.4-3.2"/>
    <ellipse class="st21" cx="19.9" cy="19.4" rx=".9" ry=".8"/>
    <path class="st6" d="M26,6.4c-4.2.1-6.5,4-8.2,7.1-.6,1-1.2,2.1-1.7,3-.5.7-.6,1.6-.5,2.4,0-.6.2-1.1.5-1.6.5-.9,1.1-2.1,1.7-3,1.5-2.7,3.5-6.2,7-6.9.4-.3.8-.6,1.2-1ZM26,8c-2.8.5-2.6,2.5-4.1,4-.1.3-.2.7-.3,1.1,1.7-1.5,1.5-3.6,3.9-4.2,0-.3.2-.6.5-.9ZM27.8,8c-.8,0-1.7,1.4-2.4,2.2,0,.4-.2.7-.5,1.2.7-.4,1.5-1.9,2.4-2.4.1-.4.3-.9.5-1ZM30.2,9.7c-1,0-2,.1-2.9.3,0,0,0,0,0,0,0,.5-.1.9,0,.8,3.5-.6,8.5-.2,12.5.9,3.1,1,6.5,2.9,9.5,5.8,4.2,4,6.7,8.9,6.6,14.6,0,0,0,0,0,.1,0-.3,0-.6,0-.9,0-5.6-2.5-10.5-6.6-14.6-3-2.9-6.5-4.9-9.5-5.8-3-.8-6.5-1.2-9.6-1.2Z"/>
    <ellipse class="st16" cx="44.6" cy="42.1" rx="13.2" ry="12.2"/>
    <ellipse class="st8" cx="44.6" cy="41.3" rx="13.2" ry="12.2"/>
    <path class="st4" d="M47.6,47.8c-.6,1-1.8,1.6-3.1,1.6s-2.4-.6-3.1-1.6h6.1Z"/>
    <path class="st4" d="M44.6,32.4c.7,0,1.3.5,1.3,1.1s0,0,0,.1c2.9.5,4.9,2.8,4.9,5.5v5.1l2.6,2.2v.6h-17.7v-.6l2.6-2.2v-5.1c0-2.7,2-5,4.9-5.5,0,0,0,0,0-.1,0-.6.6-1.1,1.3-1.1Z"/>
  </g>
  <g class="st17">
    <g>
      <rect class="st10" x="5.1" y="40" width="52" height="2"/>
      <rect class="st10" x="5.1" y="46" width="52" height="2"/>
      <rect class="st10" x="5.1" y="52" width="52" height="2"/>
      <rect class="st10" x="5.1" y="22" width="52" height="2"/>
      <rect class="st10" x="5.1" y="28" width="52" height="2"/>
      <rect class="st10" x="5.1" y="34" width="52" height="2"/>
      <rect class="st10" x="5.1" y="16" width="52" height="2"/>
      <rect class="st10" x="5.1" y="10" width="52" height="2"/>
    </g>
    <g>
      <rect class="st10" x="21.1" y="6" width="2" height="52"/>
      <rect class="st10" x="15.1" y="6" width="2" height="52"/>
      <rect class="st10" x="9.1" y="6" width="2" height="52"/>
      <rect class="st10" x="39.1" y="6" width="2" height="52"/>
      <rect class="st10" x="33.1" y="6" width="2" height="52"/>
      <rect class="st10" x="27.1" y="6" width="2" height="52"/>
      <rect class="st10" x="45.1" y="6" width="2" height="52"/>
      <rect class="st10" x="51.1" y="6" width="2" height="52"/>
    </g>
    <path class="st16" d="M7.1,52.6v2c0,1.3,1.3,2.4,3,2.4h42c1.7,0,3-1.1,3-2.4v-2c0,1.3-1.3,2.4-3,2.4H10.1c-1.7,0-3-1.1-3-2.4Z"/>
    <path class="st0" d="M55.1,53.6V10.4c0-1.3-1.3-2.4-3-2.4H10.1c-1.7,0-3,1.1-3,2.4v43.2c0,1.3,1.3,2.4,3,2.4h42c1.7,0,3-1.1,3-2.4Z"/>
    <path class="st6" d="M10.1,8c-1.7,0-3,1.1-3,2.4v1c0-1.3,1.3-2.4,3-2.4h42c1.7,0,3,1.1,3,2.4v-1c0-1.3-1.3-2.4-3-2.4H10.1Z"/>
    <path class="st16" d="M33.1,35v16h13v-5h-3v2h-5v-3l-2-2v-5h7v2h3v-5h-13ZM33.1,15v16h13v-5h-3v2h-5v-3l-2-2v-5h7v2h3v-5h-13Z"/>
    <path class="st20" d="M33.1,14v16h13v-5h-3v2h-5v-3l-2-2v-5h7v2h3v-5h-13Z"/>
    <rect class="st20" x="19.1" y="14" width="3" height="18"/>
    <rect class="st14" x="19.1" y="32" width="3" height="18"/>
    <rect class="st14" x="16.1" y="30" width="9" height="4"/>
    <path class="st16" d="M19.1,50h3v1h-3v-1ZM16.1,34h9v1h-9v-1Z"/>
    <rect class="st5" x="16.1" y="30" width="9" height="1"/>
    <path class="st14" d="M33.1,34v16h13v-5h-3v2h-5v-3l-2-2v-5h7v2h3v-5h-13Z"/>
    <path class="st20" d="M33.1,14v16h13v-5h-3v2h-5v-3l-2-2v-5h7v2h3v-5h-13Z"/>
    <path class="st14" d="M33.1,34v16h13v-5h-3v2h-5v-3l-2-2v-5h7v2h3v-5h-13Z"/>
    <path class="st5" d="M33.1,14v1h13v-1h-13ZM36.1,22v1l2,2v-1l-2-2ZM43.1,25v1h3v-1h-3ZM38.1,27v1h5v-1h-5ZM33.1,34v1h13v-1h-13ZM36.1,42v1l2,2v-1l-2-2ZM43.1,45v1h3v-1h-3ZM38.1,47v1h5v-1h-5Z"/>
  </g>
  <g>
    <circle class="st16" cx="32.1" cy="32.5" r="28"/>
    <path class="st1" d="M32.1,3.5c-1.4,0-2.8.1-4.2.3-2.6,2.4-21.4,21.1-23.4,23.2,0,.2,0,.3,0,.5.6-.5,1.4-1.2,2.4-2.1.5-.4,1.1-1,1.3-1.1.2-.2.7-.6,1-.9.8-.8,2.9-2.6,3.4-3,.3-.2,1.4-1.2,2.5-2.2,1.1-1,2.5-2.2,3.1-2.7.6-.5,1.9-1.7,2.9-2.6,1.9-1.7,7.6-6.8,8.2-7.3.2-.2.4-.3.4-.2,0,0-.3.7-1.6,2.6-.5.8-2.6,4.1-4.6,7.2-2,3.1-4.5,7-5.6,8.6-1,1.6-3.3,5.2-5.1,7.9-1.8,2.7-4.1,6.3-5.1,8-.6,1-1.1,1.8-1.5,2.4,4,9.9,13.3,16.6,23.9,17.3.8,0-.4,0,.8,0,3.5-13.1,6.4-35.8,14.1-51.9.3-.7-.9-.8-.7-1.2-3.8-1.9-8-2.8-12.2-2.8Z"/>
    <path class="st19" d="M30.4,3.6c-.6,0-1.2,0-1.8.2.6,0,1.2-.1,1.8-.2Z"/>
    <path class="st16" d="M27.9,4.9C16.4,6.6,7.2,15.4,4.8,26.8c.6-.6,1.9-1.9,3.7-3.8-1.8,1.9-3.2,3.2-3.7,3.8,0,.4-.2.8-.2,1.2,2-2.2,20.7-20.7,23.3-23.2ZM29.7,6.3s-.2,0-.4.2c-.6.5-6.4,5.6-8.2,7.3-1,.9-2.3,2.1-2.9,2.6-.6.5-2,1.8-3.1,2.7-1.1,1-2.2,1.9-2.5,2.2-.6.5-2.6,2.3-3.4,3-.3.3-.8.7-1,.9-.2.2-.8.7-1.3,1.1-1,.9-1.8,1.6-2.4,2.1-.2,1.1-.3,2.2-.3,3.3,0,3.5.8,6.9,2.1,10.2,0,0,0,0,0,0,0,0,0,0,0,.1,0,.2.1.3.2.5.3-.5.7-1.1,1.2-2,1.1-1.6,3.4-5.2,5.1-8,1.8-2.7,4.1-6.3,5.1-7.9,1-1.6,3.5-5.5,5.6-8.6,2-3.1,4.1-6.4,4.6-7.2,1.3-2,1.6-2.6,1.6-2.6Z"/>
    <path class="st15" d="M27.9,3.9C15.9,5.7,6.5,15.1,4.5,27c2-2.2,20.7-20.7,23.3-23.2Z"/>
    <path class="st19" d="M4.5,27s0,0,0,0c0,.1,0,.3,0,.4,0-.1,0-.3,0-.4h0Z"/>
    <path class="st19" d="M41.2,5.1h0c.2,0,.5.2.7.2-.2,0-.5-.2-.7-.2Z"/>
    <path class="st19" d="M41.9,5.3c.7.3,1.4.6,2.1.9-.7-.3-1.4-.6-2.1-.9Z"/>
    <path class="st19" d="M44.1,6.2c0,0,.2,0,.3.1h0c0,0-.2,0-.3-.1h0Z"/>
    <path class="st15" d="M29.7,5.3s-.2,0-.4.2c-.6.5-6.4,5.6-8.2,7.3-1,.9-2.3,2.1-2.9,2.6-.6.5-2,1.8-3.1,2.7-1.1,1-2.2,1.9-2.5,2.2-.6.5-2.6,2.3-3.4,3-.3.3-.8.7-1,.9-.2.2-.8.7-1.3,1.1-1,.9-1.8,1.6-2.4,2.1-.2,1.3-.3,2.6-.3,4,0,4.8,1.2,9.5,3.6,13.7h0c0-.2-.2-.3-.3-.5-.2-.4-.4-.7-.5-1.1-.3-.5-.5-1-.7-1.5.3-.6.8-1.4,1.5-2.4,1.1-1.6,3.4-5.2,5.1-8,1.8-2.7,4.1-6.3,5.1-7.9,1-1.6,3.5-5.5,5.6-8.6,2-3.1,4.1-6.4,4.6-7.2,1.3-2,1.6-2.6,1.6-2.6Z"/>
    <path class="st12" d="M60,34.4l-24.9,24.9c13.2-1.4,23.6-11.8,24.9-24.9Z"/>
    <path class="st13" d="M44.3,6.3c-.2.3-.3.6-.6,1.3-7.7,16.1-12.6,33.4-13.4,47.7,0,1.3-.2,2.9-.2,3.6v.5c.6,0,1.3,0,2,.1,1,0,1.9,0,2.9-.2l24.9-24.9c.1-1,.2-1.9.2-2.9,0-10.7-6.2-20.5-15.8-25.2ZM35,59.3c13.1-1.4,23.5-11.7,24.9-24.9-1.4,13.1-11.8,23.5-24.9,24.9ZM30.1,59.4s0,0,0,0h0Z"/>
    <path class="st5" d="M32.1,3.5c-15.5,0-28,12.5-28,28,0,.2,0,.3,0,.5.3-15.3,12.7-27.5,28-27.5,15.3,0,27.7,12.2,28,27.5,0-.2,0-.3,0-.5,0-15.5-12.5-28-28-28Z"/>
    <path class="st16" d="M60,34.4l-24.9,24.9c.4,0,.8-.1,1.2-.2l23.6-23.6c0-.4.1-.8.2-1.2Z"/>
  </g>
</svg>