<?xml version="1.0" encoding="UTF-8"?>
<svg id="_图层_1" xmlns="http://www.w3.org/2000/svg" version="1.1" viewBox="0 0 64 64" width="22" height="22">
  <!-- Generator: Adobe Illustrator 29.0.1, SVG Export Plug-In . SVG Version: 2.1.0 Build 192)  -->
  <defs>
    <style>
      .st0 {
        fill: #fff;
      }

      .st1 {
        display: none;
      }

      .st2 {
        fill: #3296fa;
      }

      .st3 {
        fill: #ff5000;
      }
    </style>
  </defs>
  <path class="st0" d="M50.5,61.6H13.9c-7.6,0-13.9-5.8-13.9-12.8V14.6C0,7.6,6.3,1.8,13.8,1.8h36.6c7.5,0,13.7,5.8,13.7,12.8v34.2c0,7-6.2,12.8-13.7,12.8h.1Z"/>
  <g class="st1">
    <path class="st3" d="M50.4,0H13C7,0,0,5.9-.1,12.7L0,51.3c0,6,5.4,12.7,13.8,12.7h36.5c6.4,0,13.5-5.3,13.7-13l-.3-38.8c0-6.7-6.3-12.1-13.4-12.1ZM18.1,16.2c2.1,0,3.8,1.5,3.8,3.4s-1.7,3.4-3.8,3.4-3.8-1.5-3.8-3.4,1.7-3.4,3.8-3.4ZM21.3,36.9c-1,3.1-.8,2-4.8,10.7l-5.8-3.6s6.5-5.9,7.8-8.6c1.4-2.8-1.6-4.4-1.6-4.4l-4.5-2.8,2.4-3.7c3.4,2.5,3.6,2.7,5.9,5,1.8,1.8,1.5,4.2.5,7.4ZM52.9,41c-1.1,10.6-15,6.7-15,6.7l.8-3,3.2.7c5.9.4,5.4-4.8,5.4-4.8v-15.1c0-5.7-5.4-6.3-15.1-2.8l2.3.6c-.2.7-.9,1.7-1.9,2.9h13v2.6h-7.3v3.3h7.3v2.6h-7.3v5.5c1.1-.4,2.1-.9,3-1.5l-.6-2.4,3.5-1.1,2.9,7-4.2,1.8-.8-2.8c-1.9,1.5-5.8,3.6-12.7,3.4-7.4.2-5.5-8.3-5.5-8.3h.2c0,0,5.2,0,5.2,0,0,1.1-.5,2.9.1,3.8.5.8,1.8.9,2.6,1,0,0,.2,0,.3,0v-6.3h-7.5v-2.6h7.5v-3.3h-1.9c-1.7,1.8-3.2,3.3-3.2,3.3l-2.3-2c1.6-1.7,3.2-4.4,4.2-6.2-.8.3-1.7.7-2.5,1.1-.9,1.1-1.9,2.2-2.9,3.2,0,0-3.7-2.1-3.7-2.1,3.9-3.3,6-10.4,6-10.4l5.4,1.5s-.5,1-1.4,2.6c21.5-6.1,22.8,3.7,22.8,3.7,0,0,1.4,6.8.3,17.4Z"/>
  </g>
  <path class="st2" d="M49.8,0H14.2C6.4,0,0,6.4,0,14.2v35.5c0,7.9,6.4,14.2,14.2,14.2h35.7c7.8,0,14.1-6.3,14.1-14.1V14.3c0-7.9-6.4-14.3-14.3-14.3ZM48.8,26.6c0,.3-.3.8-.5,1.3h0c-1.5,3.2-5.4,9.5-5.4,9.5h0s-1.2,1.9-1.2,1.9h5.5l-10.5,13.9,2.4-9.5h-4.3l1.5-6.3c-1.2.3-2.7.7-4.4,1.3,0,0-2.3,1.3-6.6-2.6,0,0-2.9-2.6-1.2-3.2.7-.3,3.5-.6,5.7-.9,2.9-.4,4.8-.6,4.8-.6,0,0-9.1.1-11.3-.2-2.2-.3-4.9-4-5.5-7.1,0,0-.9-1.7,1.9-.9,2.8.8,14.6,3.2,14.6,3.2,0,0-15.3-4.7-16.3-5.8s-3-6.2-2.7-9.4c0,0,.1-.8.9-.6,0,0,11.3,5.2,19,8,7.8,2.9,14.5,4.3,13.6,7.9Z"/>
</svg>