<?xml version="1.0" encoding="UTF-8"?>
<svg id="_图层_1" xmlns="http://www.w3.org/2000/svg" version="1.1" viewBox="0 0 64 64" width="22" height="22">
  <!-- Generator: Adobe Illustrator 29.0.1, SVG Export Plug-In . SVG Version: 2.1.0 Build 192)  -->
  <defs>
    <style>
      .st0 {
        fill: #4daf7c;
      }

      .st1, .st2 {
        opacity: .2;
      }

      .st3 {
        fill: #e3e3e3;
      }

      .st4 {
        fill: #212121;
      }

      .st2, .st5 {
        isolation: isolate;
      }

      .st6 {
        display: none;
      }

      .st7 {
        fill: #ffbe4b;
      }

      .st8 {
        fill: #3e50b4;
      }

      .st5 {
        fill: #fff;
        opacity: .1;
      }

      .st9 {
        fill: #5ed698;
      }
    </style>
  </defs>
  <path class="st4" d="M50.4,64H13.8c-7.6,0-13.8-6.2-13.8-13.7V13.7C0,6.2,6.2,0,13.7,0h36.6c7.5,0,13.7,6.2,13.7,13.7v36.6c0,7.5-6.2,13.7-13.7,13.7h.1Z"/>
  <g class="st6">
    <path class="st3" d="M44,64.1h-16.2l-11.8-11.5,13.7-21.5c1.2-9.8,1.1-9.6,9.1-12.7l11.3-.8c11,9.5,2.6,2,13.9,12v22.2c0,6.2-7.4,12.2-13.6,12.2h-6.4Z"/>
    <g>
      <path class="st0" d="M40,32h-5.9c-.2,0-.4,0-.5.2-.5.2-.8.5-1.1.9s-.4.9-.4,1.4v7.6h-4c-.7,0-1.2.2-1.3.5s0,.8.6,1.3l8.2,7.8c.2.2.5.4.9.5s.7.2,1,.2.7,0,1-.2.6-.3.9-.5l8.2-7.8c.5-.5.7-.9.6-1.3s-.6-.5-1.3-.5h-4v-7.6c0-.7-.3-1.3-.8-1.8s-1.2-.7-1.9-.7h-.2Z"/>
      <path class="st9" d="M29.8,9.7c-1-.2-1.9,0-2.7.7s-1.1,1.4-1.1,2.4v20.6c-.6-.2-1.3-.4-1.9-.5-.7,0-1.3-.2-2-.2-1.6,0-3.1.3-4.5.9-1.4.6-2.6,1.3-3.6,2.3s-1.8,2.1-2.5,3.5c-.6,1.3-.9,2.7-.9,4.2s.3,2.9.9,4.2c.6,1.3,1.4,2.5,2.5,3.4,1,1,2.2,1.8,3.6,2.3,1.4.6,2.9.8,4.5.8s3.4-.4,5-1.1c1.6-.7,2.8-1.7,3.9-3l-5.2-4.9c-.8-.8-1.2-1.5-1.2-2.1s0-1.1.2-1.3c0-.3.4-.6.8-1.1.5-.4,1.3-.7,2.4-.7h1.9v-5.7c0-1,.3-2,1-2.8s1.6-1.3,2.6-1.6v-8.2c3.7,0,6.5.5,8.4,1.4,1.9.9,3.2,2,3.9,3.4s1,2.8.8,4.4c-.2,1.5-.4,2.9-.9,4.1-.3,1-.4,1.5-.2,1.6s.6-.2,1.3-.9c4.5-4.7,6.6-8.6,6.3-11.7-.3-3.2-1.7-5.8-4.3-7.8s-5.8-3.5-9.6-4.6c-3.8-1-6.9-1.8-9.4-2.2h0v.2Z"/>
    </g>
  </g>
  <g>
    <path class="st2" d="M52.3,16.2c-.3,0-.6,0-.9.2-2.6,1.3-5.3,7.5-6,11.7-.1.7-.1,1.7,0,2.7,0-.3,0-.7,0-1,.7-4.2,3.3-10.4,6-11.7,2.6-1.3,3.9,4.5,5.3,3,.3-.3.3-1.1.2-2,0,.1-.1.2-.2.3-1.2,1.3-2.3-3-4.3-3.2ZM7.3,45.9c-.2.4-.4.8-.2,1.2,1,2,1.4,2.2,1.4,2.2,0,0,5.8,9,23.2,6.5,17.4-2.4,19.8-6.4,19.6-8.3,0-.2,0-.4-.2-.6-.8,2.1-4.8,5.2-19.4,7.3-17.4,2.4-23.2-6.5-23.2-6.5,0,0-.3-.3-1.1-1.8h0Z"/>
    <path class="st8" d="M36.5,6.2c-4.8.7-9.9,3.2-14,10.5-9.5,16.8-8.8,22.7-10.3,24.6-1.5,1.9-5.6,2.9-5,5.1,1,2,1.4,2.2,1.4,2.2,0,0,5.8,9,23.2,6.5,17.4-2.4,19.8-6.4,19.6-8.3-.2-2-3.8-3.4-3.8-3.4,0,0-2.7-10.3-2-14.5.7-4.2,3.3-10.4,6-11.7,2.6-1.3,3.9,4.5,5.3,3,1.3-1.4-2.2-9.9-6.6-12.4-3.5-2.4-7.3-2.1-13.5-1.6"/>
    <g class="st1">
      <path d="M29.7,24.1l4.9-.3,2.6-3.9,1.8,4.5,4.7,1.7-3.6,2.9v4.7c0,0-3.9-2.5-3.9-2.5l-5.2,1.7,1.4-4.6"/>
      <path d="M28.9,38.4l4.6-1.7,1.3-4.5,3,3.7,5,.2-2.6,3.9,1.3,4.5-4.4-1.2-4.4,3.1v-4.8"/>
      <path d="M17,32.4l4.9.4,3.1-3.6,1.2,4.7,4.5,2.3-4,2.4-.7,4.7-3.5-2.9-5.3,1,2-4.4"/>
    </g>
    <g>
      <path class="st7" d="M29.7,23.3l4.9-.3,2.6-3.9,1.8,4.5,4.7,1.7-3.6,2.9v4.7c0,0-3.9-2.5-3.9-2.5l-5.2,1.7,1.4-4.6"/>
      <path class="st7" d="M28.9,37.5l4.6-1.7,1.3-4.5,3,3.7,5,.2-2.6,3.9,1.3,4.5-4.4-1.2-4.4,3.1v-4.8"/>
      <path class="st7" d="M17,31.5l4.9.4,3.1-3.6,1.2,4.7,4.5,2.3-4,2.4-.7,4.7-3.5-2.9-5.3,1,2-4.4"/>
    </g>
    <path class="st5" d="M42.6,5.9c-1.8,0-3.8.1-6.1.3h0c-4.8.7-9.9,3.1-14,10.5-9.5,16.8-8.8,22.7-10.3,24.6-1.5,1.9-5.6,2.9-5,5.1,0,0,0,0,0,0,.5-1.6,3.7-2.6,5-4.2,1.5-1.9.8-7.8,10.3-24.6,4.2-7.4,9.3-9.9,14-10.5h0c6.2-.5,10-.7,13.5,1.6,3.5,2,6.5,7.9,6.9,10.9.3-2.5-3-9.5-6.9-11.7-2.2-1.5-4.5-1.9-7.5-2ZM45.3,31c-.1,4.7,2.1,13.2,2.1,13.2,0,0,3.4,1.3,3.8,3.2,0-.2,0-.4,0-.6-.2-2-3.8-3.4-3.8-3.4,0,0-2-7.6-2.1-12.4Z"/>
  </g>
</svg>