<?xml version="1.0" encoding="UTF-8"?>
<svg id="_图层_1" xmlns="http://www.w3.org/2000/svg" version="1.1" viewBox="0 0 64 64" width="22" height="22">
  <!-- Generator: Adobe Illustrator 29.0.1, SVG Export Plug-In . SVG Version: 2.1.0 Build 192)  -->
  <defs>
    <style>
      .st0 {
        fill: #fecd38;
      }

      .st1 {
        fill: #4bae4f;
      }

      .st2 {
        fill: #44d4d6;
      }

      .st2, .st3, .st4, .st5, .st6, .st7, .st8, .st9 {
        display: none;
      }

      .st3 {
        fill: #b76728;
      }

      .st4, .st5, .st10, .st11, .st12, .st7 {
        isolation: isolate;
      }

      .st4, .st13, .st11, .st12, .st7 {
        opacity: .2;
      }

      .st5, .st14, .st12, .st7 {
        fill: #fff;
      }

      .st5, .st10 {
        opacity: .1;
      }

      .st15 {
        fill: #248afd;
      }

      .st16 {
        fill: #4d4d4d;
      }

      .st17, .st18, .st19, .st20, .st21, .st22 {
        fill: none;
        stroke-linecap: round;
        stroke-width: 3px;
      }

      .st17, .st21, .st22 {
        stroke: #000;
      }

      .st18, .st19, .st20 {
        stroke: #f07400;
      }

      .st23 {
        fill: #ffb52e;
      }

      .st19, .st22 {
        stroke-linejoin: bevel;
      }

      .st20, .st21 {
        stroke-linejoin: round;
      }

      .st24 {
        fill: #7f7fff;
      }

      .st25 {
        fill: #ff7f7f;
      }

      .st26 {
        fill: #c2352a;
      }

      .st27 {
        fill: #e4e4e4;
      }

      .st8 {
        fill: #4f4f4f;
      }

      .st9 {
        fill: #5865f2;
      }

      .st28 {
        fill: #7f3fbf;
      }
    </style>
  </defs>
  <path class="st2" d="M50.4,64H13.8c-7.6,0-13.8-6.2-13.8-13.7V13.7C0,6.2,6.2,0,13.7,0h36.6c7.5,0,13.7,6.2,13.7,13.7v36.6c0,7.5-6.2,13.7-13.7,13.7h.1Z"/>
  <g class="st6">
    <path class="st4" d="M3.2,1.1h58.3c1.8,0,3.2,1.4,3.2,3.2v57.5c0,1.8-1.5,3.2-3.2,3.2H3.2C1.5,65,0,63.6,0,61.8V4.3C0,2.6,1.5,1.1,3.2,1.1Z"/>
    <path class="st8" d="M3.2,0h58.3c1.8,0,3.2,1.4,3.2,3.2v57.5c0,1.8-1.5,3.2-3.2,3.2H3.2C1.5,63.9,0,62.4,0,60.7V3.2C0,1.4,1.5,0,3.2,0Z"/>
    <path class="st11" d="M17.8,8c-.9,0-1.6.7-1.6,1.6v28.7c0,.9.7,1.6,1.6,1.6h14.6c9,0,16.2-7.1,16.2-16s-7.3-16-16.2-16h-14.6ZM26.2,17.1h6.2c3.8,0,6.9,3.1,6.9,6.8s-3.1,6.8-6.9,6.8h-6.2c-.4,0-.7-.3-.7-.7v-12.3c0-.4.3-.7.7-.7Z"/>
    <path class="st14" d="M17.8,6.8c-.9,0-1.6.7-1.6,1.6v28.7c0,.9.7,1.6,1.6,1.6h14.6c9,0,16.2-7.1,16.2-16s-7.3-16-16.2-16h-14.6ZM26.2,16h6.2c3.8,0,6.9,3.1,6.9,6.8s-3.1,6.8-6.9,6.8h-6.2c-.4,0-.7-.3-.7-.7v-12.3c0-.4.3-.7.7-.7Z"/>
    <path class="st5" d="M3.2,0C1.4,0,0,1.4,0,3.2v1.1C0,2.6,1.4,1.1,3.2,1.1h58.3c1.8,0,3.2,1.4,3.2,3.2v-1.1c0-1.8-1.4-3.2-3.2-3.2H3.2Z"/>
    <g class="st13">
      <path class="st17" d="M12.1,59.8l-3.5-5.1M5.2,53s6.9.8,6.9-3.4-6.9-3.4-6.9-3.4M5.2,59.8v-13.6"/>
      <path class="st22" d="M18,54.2h6.9M18,59.8v-10.2M24.9,59.8v-10.2M18,49.6s0-3.4,3.5-3.4,3.5,3.4,3.5,3.4"/>
      <path class="st21" d="M30.7,46.3v13.6h6.9"/>
      <path class="st21" d="M43.4,46.3v13.6h6.9"/>
      <path class="st17" d="M56.1,59.8v-6.8M61.3,46.2l-5.2,6.8M51,46.2l5.2,6.8"/>
    </g>
    <g>
      <path class="st18" d="M12.1,58.7l-3.5-5.1M5.2,51.9s6.9.8,6.9-3.4-6.9-3.4-6.9-3.4M5.2,58.7v-13.6"/>
      <path class="st19" d="M18,53h6.9M18,58.7v-10.2M24.9,58.7v-10.2M18,48.5s0-3.4,3.5-3.4,3.5,3.4,3.5,3.4"/>
      <path class="st20" d="M30.7,45.1v13.6h6.9"/>
      <path class="st20" d="M43.4,45.1v13.6h6.9"/>
      <path class="st18" d="M56.1,58.7v-6.8M61.3,45.1l-5.2,6.8M51,45.1l5.2,6.8"/>
    </g>
  </g>
  <g class="st6">
    <ellipse class="st4" cx="32.2" cy="32.9" rx="31.8" ry="31.8"/>
    <ellipse class="st9" cx="32.2" cy="31.8" rx="31.8" ry="31.8"/>
    <path class="st11" d="M26.4,17c-2.9.5-5.7,1.4-8.3,2.6,0,0,0,0,0,0-5.3,8.1-6.7,16-6,23.8,0,0,0,0,0,0,3.5,2.6,6.9,4.2,10.2,5.3,0,0,.1,0,.1,0,.8-1.1,1.5-2,2.1-3.2,0,0,0-.2,0-.2-1.1-.4-2.2-1-3.2-1.6,0,0,0-.2,0-.2.2-.2.4-.3.6-.5,0,0,0,0,.1,0,6.7,3.1,13.9,3.1,20.5,0,0,0,0,0,.1,0,.2.2.4.3.6.5,0,0,0,.2,0,.2-1,.6-2.1,1.1-3.2,1.6,0,0-.1.1,0,.2.6,1.2,1.3,2.1,2.1,3.2,0,0,0,0,.1,0,3.3-1.1,6.7-2.6,10.2-5.3,0,0,0,0,0,0,.9-9-1.4-16.8-6-23.7,0,0,0,0,0,0-2.6-1.2-5.4-2.1-8.3-2.6,0,0-.1,0-.1,0-.4.7-.8.7-1,1.4-3.1-.5-6.3-.5-9.3,0-.3-.7-.7-.7-1.1-1.4,0,0,0,0-.1,0ZM24.8,31.8c2.2,0,4,1.8,4,4,0,2.2-1.8,4-4,4s-4-1.8-4-4,1.8-4,4-4ZM39.6,31.8c2.2,0,4,1.8,4,4,0,2.2-1.7,4-4,4s-4-1.8-4-4,1.8-4,4-4Z"/>
    <path class="st14" d="M26.4,15.9c-2.9.5-5.7,1.4-8.3,2.6,0,0,0,0,0,0-5.3,8.1-6.7,16-6,23.8,0,0,0,0,0,0,3.5,2.6,6.9,4.2,10.2,5.3,0,0,.1,0,.1,0,.8-1.1,1.5-2,2.1-3.2,0,0,0-.2,0-.2-1.1-.4-2.2-1-3.2-1.6,0,0,0-.2,0-.2.2-.2.4-.3.6-.5,0,0,0,0,.1,0,6.7,3.1,13.9,3.1,20.5,0,0,0,0,0,.1,0,.2.2.4.3.6.5,0,0,0,.2,0,.2-1,.6-2.1,1.1-3.2,1.6,0,0-.1.1,0,.2.6,1.2,1.3,2.1,2.1,3.2,0,0,0,0,.1,0,3.3-1.1,6.7-2.6,10.2-5.3,0,0,0,0,0,0,.9-9-1.4-16.8-6-23.7,0,0,0,0,0,0-2.6-1.2-5.4-2.1-8.3-2.6,0,0-.1,0-.1,0-.4.7-.8.7-1,1.4-3.1-.5-6.3-.5-9.3,0-.3-.7-.7-.7-1.1-1.4,0,0,0,0-.1,0ZM24.8,30.7c2.2,0,4,1.8,4,4,0,2.2-1.8,4-4,4s-4-1.8-4-4,1.8-4,4-4ZM39.6,30.7c2.2,0,4,1.8,4,4,0,2.2-1.7,4-4,4s-4-1.8-4-4,1.8-4,4-4Z"/>
    <path class="st5" d="M32.2,0C14.7,0,.4,14.2.4,31.8c0,.2,0,.4,0,.6C.8,15,14.9,1.1,32.2,1.1c17.3,0,31.5,13.9,31.8,31.2,0-.2,0-.4,0-.6C64,14.2,49.8,0,32.2,0Z"/>
  </g>
  <g class="st6">
    <path class="st11" d="M35.7,10.5c-1.6.2-31.5,35.1-31.5,35.1,0,0,2.1.6,7,1.3,1.6-1.2,23.8-36.9,24.5-36.3,0,0,0,0,0,0h0Z"/>
    <path class="st11" d="M35.8,10.6c0,0-24.5,36.3-24.5,36.3-2.1,3.3-3.8,6-3.8,6,0,0,23,1,40.8-1.3,25.4-3.2-5.2-34.1-12.4-41.1Z"/>
    <path class="st24" d="M35.8,9.7c0,0-24.5,36.3-24.5,36.3-2.1,3.3-3.8,6-3.8,6,0,0,23,1,40.8-1.3,25.4-3.2-5.2-34.1-12.4-41.1Z"/>
    <path class="st10" d="M35.8,10.5c-1-.2-24.5,36.3-24.5,36.3,0,0,22.2,1.3,30.9,1.1,24.7-.4-.7-30.3-6.4-37.4,0,0,0,0,0,0Z"/>
    <path class="st25" d="M35.7,9.7c-1.6.2-31.5,35.1-31.5,35.1,0,0,2.1.6,7,1.3,1.6-1.2,23.8-36.9,24.5-36.3,0,0,0,0,0,0h0Z"/>
    <path class="st12" d="M35.7,9.7c-1.6.2-31.5,35.1-31.5,35.1,0,0,.5.1.6.1,1.8-2.1,29.3-34.2,30.9-34.4,0,0,0,0,0,0,0,0,0,0,0,0,0,0,0,0,0,0,5.1,4.9,21.8,21.7,22.3,32.3.4-10.5-17.1-28.1-22.3-33.2,0,0,0,0,0,0,0,0,0,0,0,0,0,0,0,0,0,0ZM10.8,46.8c-1.7,2.7-3.3,5.2-3.3,5.2,0,0,.5,0,.5,0,.4-.6,1.5-2.3,3.3-5.2-.2,0-.3,0-.5,0Z"/>
    <path class="st28" d="M35.8,9.7c-1-.2-24.5,36.3-24.5,36.3,0,0,22.2,1.3,30.9,1.1,24.7-.4-.7-30.3-6.4-37.4,0,0,0,0,0,0Z"/>
  </g>
  <g class="st6">
    <path class="st4" d="M3.2,1.1h57.6c1.8,0,3.2,1.4,3.2,3.2v57.6c0,1.8-1.4,3.2-3.2,3.2H3.2C1.4,65.2,0,63.7,0,62V4.3C0,2.6,1.4,1.1,3.2,1.1Z"/>
    <path class="st3" d="M3.2,0h57.6c1.8,0,3.2,1.4,3.2,3.2v57.6c0,1.8-1.4,3.2-3.2,3.2H3.2C1.4,64,0,62.6,0,60.8V3.2C0,1.4,1.4,0,3.2,0Z"/>
    <path class="st16" d="M7.3,4.6h49.4c1.5,0,2.7,1.2,2.7,2.7v49.4c0,1.5-1.2,2.7-2.7,2.7H7.3c-1.5,0-2.7-1.2-2.7-2.7V7.3c0-1.5,1.2-2.7,2.7-2.7Z"/>
    <path class="st11" d="M9.1,12.6v2.3h2.3v13.7h-2.3v2.3h11.4v-2.3h2.3v-13.7h-2.3v-2.3h-11.4ZM27.4,12.6v2.3h-2.3v13.7h2.3v2.3h9.1v-2.3h2.3v-13.7h-2.3v-2.3h-9.1ZM43.4,12.6v2.3h-2.3v4.6h2.3v2.3h4.6v2.3h2.3v4.6h-4.6v-4.6h-4.6v4.6h2.3v2.3h9.1v-2.3h2.3v-4.6h-2.3v-2.3h-2.3v-2.3h-4.6v-4.6h4.6v4.6h4.6v-4.6h-2.3v-2.3h-9.1ZM16,14.9h2.3v13.7h-2.3v-13.7ZM29.7,14.9h4.6v13.7h-4.6v-13.7ZM9.1,35.4v2.3h2.3v13.7h-2.3v2.3h11.4v-2.3h2.3v-6.9h-2.3v-2.3h2.3v-4.6h-2.3v-2.3h-11.4ZM27.4,35.4v2.3h-2.3v13.7h2.3v2.3h9.1v-2.3h2.3v-13.7h-2.3v-2.3h-9.1ZM38.9,35.4v2.3h2.3v4.6h2.3v4.6h-2.3v4.6h-2.3v2.3h4.6v-2.3h2.3v-2.3h2.3v2.3h2.3v2.3h4.6v-2.3h-2.3v-4.6h-2.3v-4.6h2.3v-4.6h2.3v-2.3h-4.6v2.3h-2.3v2.3h-2.3v-2.3h-2.3v-2.3h-4.6ZM16,37.7h2.3v4.6h-2.3v-4.6ZM29.7,37.7h4.6v13.7h-4.6v-13.7ZM16,44.6h2.3v6.9h-2.3v-6.9Z"/>
    <path class="st27" d="M9.1,11.4v2.3h2.3v13.7h-2.3v2.3h11.4v-2.3h2.3v-13.7h-2.3v-2.3h-11.4ZM27.4,11.4v2.3h-2.3v13.7h2.3v2.3h9.1v-2.3h2.3v-13.7h-2.3v-2.3h-9.1ZM43.4,11.4v2.3h-2.3v4.6h2.3v2.3h4.6v2.3h2.3v4.6h-4.6v-4.6h-4.6v4.6h2.3v2.3h9.1v-2.3h2.3v-4.6h-2.3v-2.3h-2.3v-2.3h-4.6v-4.6h4.6v4.6h4.6v-4.6h-2.3v-2.3h-9.1ZM16,13.7h2.3v13.7h-2.3v-13.7ZM29.7,13.7h4.6v13.7h-4.6v-13.7ZM9.1,34.3v2.3h2.3v13.7h-2.3v2.3h11.4v-2.3h2.3v-6.9h-2.3v-2.3h2.3v-4.6h-2.3v-2.3h-11.4ZM27.4,34.3v2.3h-2.3v13.7h2.3v2.3h9.1v-2.3h2.3v-13.7h-2.3v-2.3h-9.1ZM38.9,34.3v2.3h2.3v4.6h2.3v4.6h-2.3v4.6h-2.3v2.3h4.6v-2.3h2.3v-2.3h2.3v2.3h2.3v2.3h4.6v-2.3h-2.3v-4.6h-2.3v-4.6h2.3v-4.6h2.3v-2.3h-4.6v2.3h-2.3v2.3h-2.3v-2.3h-2.3v-2.3h-4.6ZM16,36.6h2.3v4.6h-2.3v-4.6ZM29.7,36.6h4.6v13.7h-4.6v-13.7ZM16,43.4h2.3v6.9h-2.3v-6.9Z"/>
    <path class="st7" d="M3.2,0C1.4,0,0,1.4,0,3.2v1.1C0,2.6,1.4,1.1,3.2,1.1h57.6c1.8,0,3.2,1.4,3.2,3.2v-1.1c0-1.8-1.4-3.2-3.2-3.2H3.2Z"/>
  </g>
  <g class="st6">
    <path class="st4" d="M3.2,1.1h57.6c1.8,0,3.2,1.4,3.2,3.2v57.5c0,1.8-1.4,3.2-3.2,3.2H3.2C1.4,65.1,0,63.7,0,61.9V4.3C0,2.6,1.4,1.1,3.2,1.1Z"/>
    <path class="st2" d="M3.2,0h57.6c1.8,0,3.2,1.4,3.2,3.2v57.5c0,1.8-1.4,3.2-3.2,3.2H3.2C1.4,63.9,0,62.5,0,60.7V3.2C0,1.4,1.4,0,3.2,0Z"/>
    <path class="st16" d="M7.3,4.6h49.4c1.5,0,2.7,1.2,2.7,2.7v49.3c0,1.5-1.2,2.7-2.7,2.7H7.3c-1.5,0-2.7-1.2-2.7-2.7V7.3c0-1.5,1.2-2.7,2.7-2.7Z"/>
    <path class="st11" d="M9.1,12.6v2.3h2.3v13.7h-2.3v2.3h11.4v-2.3h2.3v-13.7h-2.3v-2.3h-11.4ZM27.4,12.6v2.3h-2.3v13.7h2.3v2.3h9.1v-2.3h2.3v-13.7h-2.3v-2.3h-9.1ZM43.4,12.6v2.3h-2.3v4.6h2.3v2.3h4.6v2.3h2.3v4.6h-4.6v-4.6h-4.6v4.6h2.3v2.3h9.1v-2.3h2.3v-4.6h-2.3v-2.3h-2.3v-2.3h-4.6v-4.6h4.6v4.6h4.6v-4.6h-2.3v-2.3h-9.1ZM16,14.8h2.3v13.7h-2.3v-13.7ZM29.7,14.8h4.6v13.7h-4.6v-13.7ZM9.1,35.4v2.3h2.3v13.7h-2.3v2.3h11.4v-2.3h2.3v-6.9h-2.3v-2.3h2.3v-4.6h-2.3v-2.3h-11.4ZM27.4,35.4v2.3h-2.3v13.7h2.3v2.3h9.1v-2.3h2.3v-13.7h-2.3v-2.3h-9.1ZM38.8,35.4v2.3h2.3v4.6h2.3v4.6h-2.3v4.6h-2.3v2.3h4.6v-2.3h2.3v-2.3h2.3v2.3h2.3v2.3h4.6v-2.3h-2.3v-4.6h-2.3v-4.6h2.3v-4.6h2.3v-2.3h-4.6v2.3h-2.3v2.3h-2.3v-2.3h-2.3v-2.3h-4.6ZM16,37.7h2.3v4.6h-2.3v-4.6ZM29.7,37.7h4.6v13.7h-4.6v-13.7ZM16,44.5h2.3v6.9h-2.3v-6.9Z"/>
    <path class="st23" d="M9.1,11.4v2.3h2.3v13.7h-2.3v2.3h11.4v-2.3h2.3v-13.7h-2.3v-2.3h-11.4ZM27.4,11.4v2.3h-2.3v13.7h2.3v2.3h9.1v-2.3h2.3v-13.7h-2.3v-2.3h-9.1ZM43.4,11.4v2.3h-2.3v4.6h2.3v2.3h4.6v2.3h2.3v4.6h-4.6v-4.6h-4.6v4.6h2.3v2.3h9.1v-2.3h2.3v-4.6h-2.3v-2.3h-2.3v-2.3h-4.6v-4.6h4.6v4.6h4.6v-4.6h-2.3v-2.3h-9.1ZM16,13.7h2.3v13.7h-2.3v-13.7ZM29.7,13.7h4.6v13.7h-4.6v-13.7ZM9.1,34.3v2.3h2.3v13.7h-2.3v2.3h11.4v-2.3h2.3v-6.9h-2.3v-2.3h2.3v-4.6h-2.3v-2.3h-11.4ZM27.4,34.3v2.3h-2.3v13.7h2.3v2.3h9.1v-2.3h2.3v-13.7h-2.3v-2.3h-9.1ZM38.8,34.3v2.3h2.3v4.6h2.3v4.6h-2.3v4.6h-2.3v2.3h4.6v-2.3h2.3v-2.3h2.3v2.3h2.3v2.3h4.6v-2.3h-2.3v-4.6h-2.3v-4.6h2.3v-4.6h2.3v-2.3h-4.6v2.3h-2.3v2.3h-2.3v-2.3h-2.3v-2.3h-4.6ZM16,36.5h2.3v4.6h-2.3v-4.6ZM29.7,36.5h4.6v13.7h-4.6v-13.7ZM16,43.4h2.3v6.9h-2.3v-6.9Z"/>
    <path class="st7" d="M3.2,0C1.4,0,0,1.4,0,3.2v1.1C0,2.6,1.4,1.1,3.2,1.1h57.6c1.8,0,3.2,1.4,3.2,3.2v-1.1c0-1.8-1.4-3.2-3.2-3.2H3.2Z"/>
  </g>
  <g>
    <path class="st4" d="M3.2,1.1h57.6c1.8,0,3.2,1.4,3.2,3.2v57.5c0,1.8-1.4,3.2-3.2,3.2H3.2C1.4,65.1,0,63.7,0,61.9V4.3C0,2.6,1.4,1.1,3.2,1.1Z"/>
    <path class="st15" d="M60,59.6l-28-27.7L4.2,59.8c.6.6,4.2,4.3,9.6,4.2h37.4c.9,0,8.2-2.1,8.8-4.4Z"/>
    <path class="st1" d="M4.2,59.8l27.8-27.8L3.6,4.8C1.9,5.1-.1,11.9-.1,12.8L.1,51.1c-.3,4.3,2.9,7.7,4.1,8.7Z"/>
    <path class="st26" d="M3.6,4.8l28.4,27.1L59.6,4.1c-.6-.6-3.7-4.1-7.9-4L12.7-.1C7.6,0,3.8,4.2,3.6,4.8Z"/>
    <path class="st0" d="M59.6,4.1l-27.6,27.9,28,27.7c.6-.6,4.3-3.7,4-9.1V13.2c0-4.8-3.8-8.5-4.4-9.1Z"/>
    <path class="st27" d="M7.3,4.6h49.4c1.5,0,2.7,1.2,2.7,2.7v49.3c0,1.5-1.2,2.7-2.7,2.7H7.3c-1.5,0-2.7-1.2-2.7-2.7V7.3c0-1.5,1.2-2.7,2.7-2.7Z"/>
    <path class="st10" d="M9.1,12.6v2.3h2.3v13.7h-2.3v2.3h11.4v-2.3h2.3v-13.7h-2.3v-2.3h-11.4ZM27.4,12.6v2.3h-2.3v13.7h2.3v2.3h9.1v-2.3h2.3v-13.7h-2.3v-2.3h-9.1ZM43.4,12.6v2.3h-2.3v4.6h2.3v2.3h4.6v2.3h2.3v4.6h-4.6v-4.6h-4.6v4.6h2.3v2.3h9.1v-2.3h2.3v-4.6h-2.3v-2.3h-2.3v-2.3h-4.6v-4.6h4.6v4.6h4.6v-4.6h-2.3v-2.3h-9.1ZM16,14.8h2.3v13.7h-2.3v-13.7ZM29.7,14.8h4.6v13.7h-4.6v-13.7ZM9.1,35.4v2.3h2.3v13.7h-2.3v2.3h11.4v-2.3h2.3v-6.9h-2.3v-2.3h2.3v-4.6h-2.3v-2.3h-11.4ZM27.4,35.4v2.3h-2.3v13.7h2.3v2.3h9.1v-2.3h2.3v-13.7h-2.3v-2.3h-9.1ZM38.8,35.4v2.3h2.3v4.6h2.3v4.6h-2.3v4.6h-2.3v2.3h4.6v-2.3h2.3v-2.3h2.3v2.3h2.3v2.3h4.6v-2.3h-2.3v-4.6h-2.3v-4.6h2.3v-4.6h2.3v-2.3h-4.6v2.3h-2.3v2.3h-2.3v-2.3h-2.3v-2.3h-4.6ZM16,37.7h2.3v4.6h-2.3v-4.6ZM29.7,37.7h4.6v13.7h-4.6v-13.7ZM16,44.5h2.3v6.9h-2.3v-6.9Z"/>
    <path class="st16" d="M9.1,11.4v2.3h2.3v13.7h-2.3v2.3h11.4v-2.3h2.3v-13.7h-2.3v-2.3h-11.4ZM27.4,11.4v2.3h-2.3v13.7h2.3v2.3h9.1v-2.3h2.3v-13.7h-2.3v-2.3h-9.1ZM43.4,11.4v2.3h-2.3v4.6h2.3v2.3h4.6v2.3h2.3v4.6h-4.6v-4.6h-4.6v4.6h2.3v2.3h9.1v-2.3h2.3v-4.6h-2.3v-2.3h-2.3v-2.3h-4.6v-4.6h4.6v4.6h4.6v-4.6h-2.3v-2.3h-9.1ZM16,13.7h2.3v13.7h-2.3v-13.7ZM29.7,13.7h4.6v13.7h-4.6v-13.7ZM9.1,34.3v2.3h2.3v13.7h-2.3v2.3h11.4v-2.3h2.3v-6.9h-2.3v-2.3h2.3v-4.6h-2.3v-2.3h-11.4ZM27.4,34.3v2.3h-2.3v13.7h2.3v2.3h9.1v-2.3h2.3v-13.7h-2.3v-2.3h-9.1ZM38.8,34.3v2.3h2.3v4.6h2.3v4.6h-2.3v4.6h-2.3v2.3h4.6v-2.3h2.3v-2.3h2.3v2.3h2.3v2.3h4.6v-2.3h-2.3v-4.6h-2.3v-4.6h2.3v-4.6h2.3v-2.3h-4.6v2.3h-2.3v2.3h-2.3v-2.3h-2.3v-2.3h-4.6ZM16,36.5h2.3v4.6h-2.3v-4.6ZM29.7,36.5h4.6v13.7h-4.6v-13.7ZM16,43.4h2.3v6.9h-2.3v-6.9Z"/>
    <path class="st7" d="M3.2,0C1.4,0,0,1.4,0,3.2v1.1C0,2.6,1.4,1.1,3.2,1.1h57.6c1.8,0,3.2,1.4,3.2,3.2v-1.1c0-1.8-1.4-3.2-3.2-3.2H3.2Z"/>
  </g>
</svg>