<?xml version="1.0" encoding="UTF-8"?>
<svg id="_图层_1" xmlns="http://www.w3.org/2000/svg" version="1.1" viewBox="0 0 64 64" width="22" height="22">
  <!-- Generator: Adobe Illustrator 29.0.1, SVG Export Plug-In . SVG Version: 2.1.0 Build 192)  -->
  <defs>
    <style>
      .st0 {
        fill: #58992d;
      }

      .st1 {
        fill: #4f4f4f;
      }

      .st2, .st3, .st4 {
        fill-rule: evenodd;
      }

      .st2, .st4 {
        opacity: .2;
      }

      .st2, .st4, .st5 {
        isolation: isolate;
      }

      .st3 {
        fill: #81d547;
      }

      .st4, .st5 {
        fill: #fff;
      }

      .st5 {
        opacity: .1;
      }
    </style>
  </defs>
  <path class="st1" d="M50.4,64H13.8c-7.6,0-13.8-6.2-13.8-13.7V13.7C0,6.2,6.2,0,13.7,0h36.5c7.5,0,13.7,6.2,13.7,13.7v36.6c0,7.5-6.2,13.7-13.7,13.7h.1Z"/>
  <g>
    <path class="st2" d="M10,35.1c-.2,0-3.7,0-.2,3.5l18.9,18c.7.7,1.4,1,2.3,1,.9,0,1.6-.4,2.3-1l18.9-18c3.5-3.5,0-3.5-.2-3.5h-21s-21,0-21,0Z"/>
    <path class="st0" d="M18.6,8.3c-.9,0-2.3,1.1-2.3,2.4v25.2h29.3V10.7c0-1.3-1.3-2.4-2.3-2.4h-24.8Z"/>
    <path class="st3" d="M10,34.2c-.2,0-3.7,0-.2,3.5l18.9,18c.7.7,1.4,1,2.3,1,.9,0,1.6-.4,2.3-1l18.9-18c3.5-3.5,0-3.5-.2-3.5h-21s-21,0-21,0Z"/>
    <path class="st5" d="M18.6,8.3c-.9,0-2.3,1.1-2.3,2.4v.9c0-1.3,1.3-2.4,2.3-2.4h24.8c.9,0,2.3,1.1,2.3,2.4v-.9c0-1.3-1.3-2.4-2.3-2.4h-24.8Z"/>
    <path class="st4" d="M10,34.2c-.1,0-2.2,0-1.6,1.5.3-.6,1.5-.6,1.6-.6h42c.1,0,1.3,0,1.6.6.5-1.5-1.5-1.5-1.6-1.5H10Z"/>
  </g>
</svg>