<?xml version="1.0" encoding="UTF-8"?>
<svg id="_图层_1" xmlns="http://www.w3.org/2000/svg" version="1.1" viewBox="0 0 64 64" width="22" height="22">
  <!-- Generator: Adobe Illustrator 29.0.1, SVG Export Plug-In . SVG Version: 2.1.0 Build 192)  -->
  <defs>
    <style>
      .st0, .st1, .st2 {
        display: none;
      }

      .st0, .st3, .st2 {
        isolation: isolate;
        opacity: .2;
      }

      .st4, .st1 {
        fill: none;
        stroke: #e4e4e4;
        stroke-linejoin: round;
        stroke-width: 8px;
      }

      .st5 {
        fill: #1fa8f3;
      }

      .st2 {
        fill: #fff;
      }

      .st6 {
        fill: #e4e4e4;
      }

      .st7 {
        fill: #15477d;
      }

      .st8 {
        fill: #2475c2;
      }
    </style>
  </defs>
  <path class="st6" d="M47.5,64.1H13.8c-7.6,0-13.8-6.3-13.8-13.8V13.7C0,6.2,6.2,0,13.7,0h36.6c7.5,0,13.7,6.2,13.7,13.7v36.6c0,7.5-6.2,13.7-13.7,13.7h-2.9.1Z"/>
  <g>
    <path class="st0" d="M26.5,28.1c-4,0-7.3,3.5-7.3,7.7v16.1c0,4.2,3.4,7.7,7.3,7.7h21.6c4,0,7.4-3.5,7.4-7.7v-16.1c0-4.2-3.4-7.7-7.4-7.7h-21.6Z"/>
    <path class="st1" d="M26.5,31.5h21.6c1.7,0,3.1,1.4,3.1,3.2v16.1c0,1.8-1.4,3.2-3.1,3.2h-21.6c-1.7,0-3.1-1.4-3.1-3.2v-16.1c0-1.8,1.4-3.2,3.1-3.2Z"/>
    <path class="st5" d="M26.5,31.5h21.6c1.7,0,3.1,1.4,3.1,3.2v16.1c0,1.8-1.4,3.2-3.1,3.2h-21.6c-1.7,0-3.1-1.4-3.1-3.2v-16.1c0-1.8,1.4-3.2,3.1-3.2Z"/>
    <path class="st0" d="M7.4,32.6c-4,0-7.4,3.5-7.4,7.7v16.1c0,4.2,3.4,7.7,7.4,7.7h21.6c4,0,7.3-3.5,7.3-7.7v-16.1c0-4.2-3.4-7.7-7.3-7.7H7.4Z"/>
    <path class="st1" d="M7.3,36h21.6c1.7,0,3.1,1.4,3.1,3.2v16.1c0,1.8-1.4,3.2-3.1,3.2H7.3c-1.7,0-3.1-1.4-3.1-3.2v-16.1c0-1.8,1.4-3.2,3.1-3.2Z"/>
    <path class="st8" d="M7.3,36h21.6c1.7,0,3.1,1.4,3.1,3.2v16.1c0,1.8-1.4,3.2-3.1,3.2H7.3c-1.7,0-3.1-1.4-3.1-3.2v-16.1c0-1.8,1.4-3.2,3.1-3.2Z"/>
    <path class="st3" d="M23.9,1.1c-4.9,0-8.9,4.3-8.9,9.4v26.2c0,5.1,4.1,9.4,8.9,9.4h31.2c4.9,0,8.9-4.3,8.9-9.4V10.5c0-5.1-4.1-9.4-8.9-9.4h-31.2Z"/>
    <path class="st4" d="M23.9,4.5h31.2c2.6,0,4.7,2.2,4.7,4.9v26.2c0,2.7-2.1,4.9-4.7,4.9h-31.2c-2.6,0-4.7-2.2-4.7-4.9V9.4c0-2.7,2.1-4.9,4.7-4.9Z"/>
    <path class="st7" d="M23.9,4.5h31.2c2.6,0,4.7,2.2,4.7,4.9v26.2c0,2.7-2.1,4.9-4.7,4.9h-31.2c-2.6,0-4.7-2.2-4.7-4.9V9.4c0-2.7,2.1-4.9,4.7-4.9Z"/>
    <path class="st2" d="M23.9,0c-4.9,0-8.9,4.3-8.9,9.4v1.1c0-5.1,4.1-9.4,8.9-9.4h31.2c4.9,0,8.9,4.3,8.9,9.4v-1.1c0-5.1-4.1-9.4-8.9-9.4h-31.2ZM7.4,31.5c-4,0-7.4,3.5-7.4,7.7v1.1c0-4.2,3.4-7.7,7.4-7.7h7.6v-1.1h-7.6Z"/>
  </g>
</svg>