<?xml version="1.0" encoding="UTF-8" standalone="no"?>
<svg
   id="_图层_1"
   version="1.1"
   viewBox="0 0 64 64" width="22" height="22"
   sodipodi:docname="天翼云盘.svg"
   inkscape:version="1.4 (e7c3feb100, 2024-10-09)"
   xmlns:inkscape="http://www.inkscape.org/namespaces/inkscape"
   xmlns:sodipodi="http://sodipodi.sourceforge.net/DTD/sodipodi-0.dtd"
   xmlns="http://www.w3.org/2000/svg"
   xmlns:svg="http://www.w3.org/2000/svg">
  <sodipodi:namedview
     id="namedview15"
     pagecolor="#505050"
     bordercolor="#eeeeee"
     borderopacity="1"
     inkscape:showpageshadow="0"
     inkscape:pageopacity="0"
     inkscape:pagecheckerboard="0"
     inkscape:deskcolor="#505050"
     inkscape:zoom="8.453125"
     inkscape:cx="32"
     inkscape:cy="32"
     inkscape:window-width="1421"
     inkscape:window-height="796"
     inkscape:window-x="432"
     inkscape:window-y="83"
     inkscape:window-maximized="0"
     inkscape:current-layer="_图层_1" />
  <!-- Generator: Adobe Illustrator 29.0.1, SVG Export Plug-In . SVG Version: 2.1.0 Build 192)  -->
  <defs
     id="defs11">
    <style
       id="style1">
      .st0 {
        fill: #fff;
      }

      .st1 {
        fill: url(#_未命名的渐变_39);
      }

      .st2 {
        fill: #ff5877;
      }

      .st3 {
        fill: #ccddfa;
      }

      .st4 {
        fill: #309af6;
      }
    </style>
    <radialGradient
       id="_未命名的渐变_39"
       data-name="未命名的渐变 39"
       cx="38.9"
       cy="38.4"
       fx="38.9"
       fy="38.4"
       r="8.9"
       gradientUnits="userSpaceOnUse">
      <stop
         offset=".6"
         stop-color="#ff5877"
         id="stop1" />
      <stop
         offset=".7"
         stop-color="#fd5878"
         id="stop2" />
      <stop
         offset=".7"
         stop-color="#f65a7c"
         id="stop3" />
      <stop
         offset=".7"
         stop-color="#ea5e83"
         id="stop4" />
      <stop
         offset=".7"
         stop-color="#d9638d"
         id="stop5" />
      <stop
         offset=".7"
         stop-color="#c36a9b"
         id="stop6" />
      <stop
         offset=".8"
         stop-color="#a873ac"
         id="stop7" />
      <stop
         offset=".8"
         stop-color="#877dc0"
         id="stop8" />
      <stop
         offset=".8"
         stop-color="#6289d7"
         id="stop9" />
      <stop
         offset=".8"
         stop-color="#3997f0"
         id="stop10" />
      <stop
         offset=".8"
         stop-color="#309af6"
         id="stop11" />
    </radialGradient>
  </defs>
  <path
     class="st0"
     d="M47.5,64.1H13.8c-7.6,0-13.8-6.3-13.8-13.8V13.7C0,6.2,6.2,0,13.7,0h36.6c7.5,0,13.7,6.2,13.7,13.7v36.6c0,7.5-6.2,13.7-13.7,13.7h-2.9.1Z"
     id="path11" />
  <path
     class="st3"
     d="M47.1,29.9c-1.2-4.3-5.4-7-9.9-6.3-2-2.2-4.9-3.4-7.9-3.4-4.5,0-8.5,2.8-10.1,6.8-5.6-.2-10.3,4.1-10.5,9.6,0,.1,0,.3,0,.4,0,5.5,4.5,10,10.1,10h13.5c1.1,0,1.9-.9,1.9-2,0-1-.9-1.8-1.9-1.9h-13.5c-3.4,0-6.2-2.7-6.2-6.1,0-3.4,2.8-6.1,6.2-6.1.5,0,.9,0,1.4.2l2,.4.4-1.9c.7-3.1,3.5-5.4,6.7-5.4,2.2,0,4.3,1,5.6,2.8l.8,1.1,1.4-.4c2.6-.8,5.3.6,6.1,3.1.1.4.2.7.2,1.1v1.7c.1,0,1.9,0,1.9,0,3,.1,5.4,2.6,5.4,5.6,0,3.1-2.5,5.6-5.7,5.6-.2,0-.3,0-.5,0h-.2c-.1,0-.2,0-.3,0h-.2c-.3-.1-.5-.2-.8-.3-.2,0-.3-.1-.5-.2h-.2c-.1-.2-.2-.2-.3-.3h-.1c-1.1-.8-1.9-2-2.3-3.3h3.3l-5.5-7.7-5.5,7.7h3.6c.3,2.3,1.5,4.3,3.2,5.8h.1c0,0,.1.2.1.2.1.1.3.2.4.3h.2c.2.3.4.4.6.5h.1c.2.2.4.3.6.4h0c.7.4,1.5.6,2.3.7h0c.2,0,.5,0,.8.1h0c.7,0,1.5,0,2.2,0,4.7-.7,8.1-4.7,8.1-9.4,0-4.4-3.1-8.3-7.5-9.2"
     id="path12" />
  <path
     class="st1"
     d="M47.1,28.7c-1.2-4.7-5.4-7.6-9.9-6.9-2-2.4-4.9-3.7-7.9-3.7-4.5,0-8.5,3-10.1,7.4-5.6-.2-10.3,4.4-10.5,10.4,0,.1,0,.3,0,.4,0,6,4.5,10.9,10.1,10.9h13.5c1.1,0,1.9-1,1.9-2.2,0-1.1-.9-2-1.9-2h-13.5c-3.4,0-6.2-3-6.2-6.6,0-3.7,2.8-6.6,6.2-6.6.5,0,.9,0,1.4.2l2,.5.4-2.1c.7-3.4,3.5-5.9,6.7-5.9,2.2,0,4.3,1.1,5.6,3.1l.8,1.2,1.4-.5c2.6-.9,5.3.6,6.1,3.4.1.4.2.8.2,1.2v1.9c.1,0,1.9,0,1.9,0,3,.2,5.4,2.8,5.4,6.1,0,3.4-2.5,6.1-5.7,6.1-.2,0-.3,0-.5,0h-.2c-.1,0-.2,0-.3,0h-.2c-.3-.1-.5-.2-.8-.3-.2,0-.3-.2-.5-.2h-.2c-.1-.2-.2-.2-.3-.3h-.1c-1.1-.9-1.9-2.1-2.3-3.6h3.3l-5.5-8.4-5.5,8.4h3.6c.3,2.5,1.5,4.7,3.2,6.3h.1c0,.1.1.2.1.2.1.1.3.2.4.4h.2c.2.3.4.4.6.5h.1c.2.2.4.3.6.4h0c.7.4,1.5.7,2.3.8h0c.2,0,.5,0,.8.1h0c.7,0,1.5,0,2.2,0,4.7-.8,8.1-5.1,8.1-10.2,0-4.8-3.1-9-7.5-10.1"
     id="path13" />
  <g
     id="g15"
     transform="matrix(0.6660633,0,0,0.60123782,2.01923,3.5356913)">
    <path
       class="st4"
       d="M 5.8,12.1 H 7 c 0,1.1 0.5,1.6 1.5,1.7 1.1,0 1.6,-0.7 1.6,-2.1 0,-1.2 -0.5,-1.9 -1.5,-1.9 -0.7,0 -1.1,0.3 -1.4,0.9 L 5.9,10.4 6.4,6.1 h 4.4 V 7.2 H 7.5 L 7.2,9.4 v 0 C 7.5,9 8,8.7 8.7,8.7 c 1.6,0 2.4,1.1 2.5,3.1 0,2 -1,3 -2.9,3 -1.8,0 -2.7,-0.9 -2.6,-2.7 z"
       id="path14" />
    <path
       class="st2"
       d="m 16.468681,9.2935196 h -1.3 c -0.2,-1.3 -0.8,-2 -1.7,-2 -1.3,0 -2,1.2 -2,3.5000004 0,2.3 0.7,3.5 2.1,3.5 1.2,0 1.9,-0.8 1.8,-2.5 h -2.4 v -1.1 h 3.7 v 1.1 c 0,2.2 -1,3.4 -3,3.4 -2.1,0 -3.2,-1.5 -3.3,-4.4 0,-2.8000004 1.1,-4.3000004 3.2,-4.5000004 1.8,0.1 2.8,1.1 3,3 z"
       id="path15" />
  </g>
</svg>
