<?xml version="1.0" encoding="UTF-8"?>
<svg id="_图层_1" xmlns="http://www.w3.org/2000/svg" version="1.1" viewBox="0 0 64 64" width="22" height="22">
  <!-- Generator: Adobe Illustrator 29.0.1, SVG Export Plug-In . SVG Version: 2.1.0 Build 192)  -->
  <defs>
    <style>
      .st0 {
        fill: #ecb64e;
      }

      .st1, .st2, .st3, .st4 {
        isolation: isolate;
        opacity: .2;
      }

      .st1, .st5, .st4, .st6 {
        display: none;
      }

      .st7, .st3, .st4 {
        fill: #fff;
      }

      .st8 {
        fill: #5d99ff;
      }

      .st9 {
        fill: #484848;
      }

      .st6, .st10 {
        fill: #e4e4e4;
      }

      .st11 {
        fill: #289b36;
      }

      .st12 {
        fill: #11acd7;
      }
    </style>
  </defs>
  <path class="st10" d="M50.3,64H13.8c-7.6,0-13.8-6.2-13.8-13.7V13.7C0,6.2,6.2,0,13.7,0h36.5c7.5,0,13.7,6.2,13.7,13.7v36.6c0,7.5-6.2,13.7-13.7,13.7h0Z"/>
  <g class="st5">
    <path class="st2" d="M31.8,3.9c-7.7,0-14,6.3-14,14,0,4.4,2.1,8.5,5.5,11.1-9.8,11.3-13.4,24.5-13.4,24.5-.4,1.3.2,2.6,1.4,3.2,0,0,1.8.9,5.1,1.7,3.3.8,8.3,1.5,15.5,1.5s12.2-.7,15.5-1.5,5.1-1.7,5.1-1.7c1.2-.6,1.7-2,1.4-3.2,0,0-3.6-13.2-13.4-24.5,3.5-2.6,5.5-6.8,5.5-11.1,0-7.7-6.3-14-14-14Z"/>
    <path class="st12" d="M31.8,2.9c-7.7,0-14,6.3-14,14,0,4.4,2.1,8.5,5.5,11.1-9.8,11.3-13.4,24.5-13.4,24.5-.4,1.3.2,2.6,1.4,3.2,0,0,1.8.9,5.1,1.7,3.3.8,8.3,1.5,15.5,1.5s12.2-.7,15.5-1.5,5.1-1.7,5.1-1.7c1.2-.6,1.7-2,1.4-3.2,0,0-3.6-13.2-13.4-24.5,3.5-2.6,5.5-6.8,5.5-11.1,0-7.7-6.3-14-14-14Z"/>
    <path class="st2" d="M31.8,36.1c-7,0-7,8.4-7,8.4,0,1.4,0,8.4,7.7,8.4s6.3-2,6.3-2v-3s-1,2-6.3,2-3.5-4-3.5-4h9.8v-3s0-6.8-7-6.8ZM31.8,38.9c2.8,0,3,4,3,4h-6s.2-4,3-4Z"/>
    <path class="st7" d="M31.8,35.1c-7,0-7,8.4-7,8.4,0,1.4,0,8.4,7.7,8.4s6.3-2,6.3-2v-3s-1,2-6.3,2-3.5-4-3.5-4h9.8v-3s0-6.8-7-6.8ZM31.8,37.9c2.8,0,3,4,3,4h-6s.2-4,3-4Z"/>
    <path class="st3" d="M31.8,2.9c-7.7,0-14,6.3-14,14,0,.2,0,.3,0,.5.3-7.5,6.4-13.5,14-13.5s13.7,6,14,13.5c0-.2,0-.3,0-.5,0-7.7-6.3-14-14-14ZM22.8,28.6c-9.4,11.2-12.9,23.9-12.9,23.9-.1.4-.1.9,0,1.3,0,0,0-.2,0-.3,0,0,3.6-13.2,13.4-24.5-.2-.1-.3-.3-.5-.4ZM40.7,28.6c-.2.1-.3.3-.5.4,9.8,11.3,13.4,24.5,13.4,24.5,0,0,0,.2,0,.3,0-.4,0-.8,0-1.3,0,0-3.5-12.8-12.9-23.9Z"/>
  </g>
  <g>
    <path class="st1" d="M0,47.7v2.5c0,1.9,1.5,3.5,3.2,3.5h57.5c1.7,0,3.2-1.6,3.2-3.5v-2.5c0,1.9-1.5,3.5-3.2,3.5H3.3c-1.7,0-3.2-1.6-3.2-3.5h0Z"/>
    <path class="st6" d="M3.3,7.2h57.5c1.7,0,3.2,1.6,3.2,3.5v38.3c0,1.9-1.5,3.5-3.2,3.5H3.3c-1.7,0-3.2-1.6-3.2-3.5V10.7c0-1.9,1.5-3.5,3.2-3.5Z"/>
    <path class="st2" d="M52.3,14.8c5.2,0,4.8,6.2,4.8,6.2v5.4c0,2-2.3,6.1-2.3,6.1v3.8l4.6,2.3v4h-18.3v-4l4.6-2.3v-3.8s-2.3-4.1-2.3-6.1v-5.4s-.5-6.2,4.8-6.2"/>
    <path class="st11" d="M6.9,34.9l-4.6-5,4.6-5v10.1Z"/>
    <path class="st0" d="M11.2,22.3h12c1,0,2,1.2,2,2.5v10.1c0,1.3-1,2.5-2,2.5h-12c-1,0-2-1.2-2-2.5v-10.1c0-1.3,1-2.5,2-2.5Z"/>
    <ellipse class="st9" cx="27.4" cy="29.9" rx="13.7" ry="15.1"/>
    <path class="st9" d="M33.1,36.1h0c1.3-1.5,3.5-1.5,4.8,0l8.2,9.1c1.3,1.4,1.3,3.8,0,5.3h0c-1.3,1.5-3.5,1.5-4.8,0l-8.2-9.1c-1.3-1.4-1.3-3.8,0-5.3Z"/>
    <path class="st2" d="M22.6,25.8c-2.7,3-2.7,7.7,0,10.7,2.7,3,7,3,9.7,0s2.7-7.7,0-10.7-7-3-9.7,0Z"/>
    <path class="st8" d="M22.6,24.5c-2.7,3-2.7,7.7,0,10.7,2.7,3,7,3,9.7,0s2.7-7.7,0-10.7c-2.7-3-7-3-9.7,0Z"/>
    <path class="st4" d="M3.3,7.2C1.5,7.2,0,8.9,0,10.7v1.3c0-1.9,1.5-3.5,3.2-3.5h57.5c1.7,0,3.2,1.6,3.2,3.5v-1.3c0-1.9-1.5-3.5-3.2-3.5H3.3Z"/>
  </g>
</svg>