<?xml version="1.0" encoding="UTF-8"?>
<svg id="_图层_1" xmlns="http://www.w3.org/2000/svg" version="1.1" viewBox="0 0 64 64" width="22" height="22">
  <!-- Generator: Adobe Illustrator 29.0.1, SVG Export Plug-In . SVG Version: 2.1.0 Build 192)  -->
  <defs>
    <style>
      .st0, .st1, .st2 {
        display: none;
      }

      .st0, .st3 {
        fill: #4c6a8f;
      }

      .st1, .st4, .st2 {
        isolation: isolate;
        opacity: .2;
      }

      .st5, .st2 {
        fill: #fff;
      }
    </style>
  </defs>
  <path class="st3" d="M47.5,64.1H13.8c-7.6,0-13.8-6.3-13.8-13.8V13.7C0,6.2,6.2,0,13.7,0h36.6c7.5,0,13.7,6.2,13.7,13.7v36.6c0,7.5-6.2,13.7-13.7,13.7h-2.9.1Z"/>
  <g>
    <path class="st1" d="M31.9,1.1C14.3,1.1,0,15.4,0,33s14.3,31.9,31.9,31.9,31.9-14.3,31.9-31.9S49.6,1.1,31.9,1.1Z"/>
    <path class="st0" d="M31.9,0C14.3,0,0,14.3,0,31.9s14.3,31.9,31.9,31.9,31.9-14.3,31.9-31.9S49.6,0,31.9,0Z"/>
    <path class="st4" d="M31.9,9.1l16,25.1-16,9.1-16-9.1,16-25.1Z"/>
    <path class="st4" d="M31.9,56.9l16-20.5-16,9.1-16-9.1,16,20.5Z"/>
    <path class="st5" d="M31.9,8l16,25.1-16,9.1-16-9.1L31.9,8Z"/>
    <path class="st5" d="M31.9,55.8l16-20.5-16,9.1-16-9.1,16,20.5Z"/>
    <path class="st2" d="M31.9,0C14.3,0,0,14.3,0,31.9c0,.2,0,.3,0,.5C.4,15,14.6,1.1,31.9,1.1c17.4,0,31.7,14,31.9,31.4,0-.2,0-.4,0-.7C63.9,14.3,49.6,0,31.9,0Z"/>
  </g>
</svg>