<?xml version="1.0" encoding="UTF-8"?>
<svg id="_图层_1" xmlns="http://www.w3.org/2000/svg" version="1.1" viewBox="0 0 64 64" width="22" height="22">
  <!-- Generator: Adobe Illustrator 29.0.1, SVG Export Plug-In . SVG Version: 2.1.0 Build 192)  -->
  <defs>
    <style>
      .st0 {
        fill: #c03131;
      }

      .st1 {
        fill: #ff812d;
      }

      .st2 {
        fill: #eb2273;
      }

      .st3, .st4, .st5, .st6, .st7, .st8, .st9, .st10, .st11 {
        isolation: isolate;
      }

      .st3, .st4, .st12, .st13, .st14, .st15, .st16, .st10, .st17 {
        display: none;
      }

      .st3, .st5, .st13, .st7, .st8, .st9, .st10 {
        opacity: .2;
      }

      .st4, .st18, .st7, .st9, .st10, .st11 {
        fill: #fff;
      }

      .st4, .st6, .st11 {
        opacity: .1;
      }

      .st19 {
        fill: #d54747;
      }

      .st19, .st20, .st5, .st7 {
        fill-rule: evenodd;
      }

      .st20 {
        fill: #ff9231;
      }

      .st21 {
        fill: #4b222b;
      }

      .st12, .st22 {
        fill: #1e87e4;
      }

      .st23, .st15 {
        fill: #e53935;
      }

      .st14 {
        fill: #c2352a;
      }

      .st24 {
        fill: #404040;
      }

      .st25 {
        fill: #2873b4;
      }

      .st26 {
        fill: #763983;
      }

      .st27 {
        fill: #f03b43;
      }

      .st17 {
        fill: #e4e4e4;
      }

      .st28 {
        fill: #ffdf55;
      }

      .st29 {
        fill: #ff0;
      }
    </style>
  </defs>
  <path class="st22" d="M50.4,64H13.8c-7.6,0-13.8-6.2-13.8-13.7V13.7C0,6.2,6.2,0,13.7,0h36.6c7.5,0,13.7,6.2,13.7,13.7v36.6c0,7.5-6.2,13.7-13.7,13.7h.1Z"/>
  <g class="st16">
    <ellipse class="st3" cx="31.9" cy="33.1" rx="31.9" ry="32"/>
    <ellipse class="st17" cx="31.9" cy="32" rx="31.9" ry="32"/>
    <path class="st6" d="M33.2,10.3c-2.7,0-3,.1-3.3,1.1-.9,3.4.2,8.9,2.5,11.8.8,1,3.1,2.6,5.7,3.9,2.4,1.2,5,2.7,5.8,3.4.8.7,1.7,1.1,1.9.9,1.1-.6,2.2-5.6,1.9-8.4-.7-7.5-6.7-12.7-14.5-12.7ZM27.5,11.4l-2.1,1.1c-3.8,2-7,6.7-8.6,12.6-1.1,4-1.2,11.9-.3,15.7,1.9,7.6,6.4,13,12.2,14.7.7.2,2.8.4,4.6.4,8.4.1,15.2-7,14.3-15-.6-5.5-3.2-8.5-10.4-12.1-7.1-3.5-9.6-7.1-9.8-14v-3.4ZM41.5,17.1c.9,0,1.7.8,1.7,1.7s-.8,1.7-1.7,1.7h0c-.9,0-1.7-.8-1.7-1.7h0c0-.9.8-1.7,1.7-1.7h0ZM48.2,17.6c-.1,0,0,.3,0,.6.2.5.5,1.9.6,3.1.2,1.2.5,2.2.7,2.2s1.1-.9,2-2l1.6-2-1.4-.6c-.8-.3-2-.8-2.6-1-.5-.2-.8-.3-.9-.2Z"/>
    <path class="st27" d="M28.8,54.4c-5.8-1.7-10.3-7.1-12.2-14.7-1-3.9-.8-11.8.3-15.7,1.6-5.9,4.8-10.5,8.6-12.6l2.1-1.1v3.4c.3,6.9,2.7,10.5,9.8,14,7.2,3.6,9.8,6.6,10.4,12.1.9,8-5.9,15.1-14.3,15-1.8,0-3.9-.2-4.6-.4h0Z"/>
    <path class="st8" d="M36.3,51.8c3.2-4-.4-13-5.6-13.8l-1.9-.3.7,1.6c1,2.1.9,3.6-.2,5.7-.5.9-.9,2.6-.9,3.6,0,4.8,4.9,6.9,7.9,3.2Z"/>
    <path class="st29" d="M36.3,50.7c3.2-4-.4-13-5.6-13.8l-1.9-.3.7,1.6c1,2.1.9,3.6-.2,5.7-.5.9-.9,2.6-.9,3.6,0,4.8,4.9,6.9,7.9,3.2Z"/>
    <path class="st24" d="M33.2,9.1c-2.7,0-3,.1-3.3,1.1-.9,3.4.2,8.9,2.5,11.8.8,1,3.1,2.6,5.7,3.9,2.4,1.2,5,2.7,5.8,3.4.8.7,1.7,1.1,1.9.9,1.1-.6,2.2-5.6,1.9-8.4-.7-7.5-6.7-12.7-14.5-12.7ZM41.5,16c.9,0,1.7.8,1.7,1.7h0c0,.9-.8,1.7-1.7,1.7h0c-.9,0-1.7-.8-1.7-1.7h0c0-.9.8-1.7,1.7-1.7h0Z"/>
    <path class="st24" d="M48.9,20.2c-.2-1.2-.4-2.6-.6-3.1-.3-.7-.2-.8.9-.4.7.3,1.8.7,2.6,1l1.4.6-1.6,2c-.9,1.1-1.8,2-2,2s-.5-1-.7-2.2Z"/>
    <path class="st10" d="M31.9,0C14.3,0,0,14.3,0,32c0,.2,0,.4,0,.6C.3,15.1,14.5,1.1,31.9,1.1c17.4,0,31.5,14,31.8,31.4,0-.2,0-.4,0-.6C63.7,14.3,49.5,0,31.9,0Z"/>
  </g>
  <g class="st16">
    <g class="st13">
      <path d="M32,1.1c17.7,0,32,14.2,32,31.9s-14.3,31.9-32,31.9S0,50.7,0,33,14.3,1.1,32,1.1Z"/>
    </g>
    <g class="st16">
      <path class="st26" d="M32,0c17.7,0,32,14.2,32,31.9s-14.3,31.9-32,31.9S0,49.5,0,31.9,14.3,0,32,0Z"/>
    </g>
    <path class="st8" d="M35.3,28.8c18.9-3.6,19.6-11.8,19.6-11.8,0,0-1.5,25.3-15.3,26.6-17.5,1.7-20.4,9.9-20.4,9.9,0,0-.4-2.6.7-6,2.2-6.8,8-17.2,15.4-18.6Z"/>
    <path class="st2" d="M35.3,27.7c18.9-3.6,19.6-11.8,19.6-11.8,0,0-1.5,25.3-15.3,26.6-17.5,1.7-20.4,9.9-20.4,9.9,0,0-.4-2.6.7-6,2.2-6.8,8-17.2,15.4-18.6Z"/>
    <path class="st9" d="M54.9,15.9s-.7,8.1-19.6,11.8c-7.4,1.4-13.2,11.8-15.4,18.7-.8,2.5-.8,4.5-.8,5.4,0-1.1.2-2.6.8-4.3,2.2-6.8,8-17.2,15.4-18.7,15.7-3,18.8-9.1,19.4-11.1.1-1.1.2-1.8.2-1.8Z"/>
    <path class="st8" d="M22.7,27.9c15.9-6.7,14.5-17.7,14.5-17.7,0,0,8.8,22.3-4.4,27.5-14.7,5.8-13.6,15.7-13.6,15.7,0,0-5.8-21.7,3.5-25.6Z"/>
    <path class="st1" d="M22.7,26.8c15.9-6.7,14.5-17.7,14.5-17.7,0,0,8.8,22.3-4.4,27.5-14.7,5.8-13.6,15.7-13.6,15.7,0,0-5.8-21.7,3.5-25.6Z"/>
    <path class="st9" d="M37.1,9.1s0,.5,0,1.2c0,0,2.7,7,2.9,14,.2-7.4-2.9-15.1-2.9-15.1ZM37.1,10.3c-.1,2.9-1.6,11-14.5,16.5-4.3,1.8-5.4,7.3-5.3,12.8,0-5.1,1.3-10,5.3-11.7,15.7-6.6,14.5-17.3,14.5-17.6Z"/>
    <path class="st8" d="M14,33.6c9-11.7,7-19.9,7-19.9,0,0,11.5,14.3,3.7,23.1-8.8,9.9-5.5,16.7-5.5,16.7,0,0-10.4-13.2-5.2-19.9Z"/>
    <path class="st28" d="M14,32.5c9-11.7,7-19.9,7-19.9,0,0,11.5,14.3,3.7,23.1-8.8,9.9-5.5,16.7-5.5,16.7,0,0-10.4-13.2-5.2-19.9Z"/>
    <path class="st9" d="M21,12.5s.1.5.2,1.4c.6.8,5.9,7.8,6.2,14.8.3-7.9-6.4-16.2-6.4-16.2ZM21.2,15.1c0,3.3-1.1,9.5-7.2,17.4-1.2,1.5-1.5,3.3-1.4,5.3,0-1.5.5-2.9,1.4-4.1,6.8-8.9,7.3-15.7,7.2-18.5ZM18.6,49.5c0,.9,0,1.6.1,2.2.3.4.5.6.5.6,0,0-.5-1-.6-2.9Z"/>
  </g>
  <g class="st16">
    <g>
      <path class="st5" d="M30.6,4.1s3.4,8.7,2.6,11.8c-1,4-3.8,7.2-7.1,7.9-.9.2-2.6-.6-3.9-1.3-2.1-1.2-2.6-3.4-3.2-5.5,0,0-.7,3.6-.4,6.4.3,2.8,1.9,6.9,1.8,9.1-.1,2.3-1.1,4.9-1.1,4.9,0,0-1.6-2.7-2.6-4.5-1-1.8-3.7-4.3-3.7-4.3,0,0,1.8,3,1.8,5.8,0,2.8-5.1,8.7.3,16.5,5.4,7.8,13.6,6.9,13.6,6.9l2-.7-7.6-3.6,9.8-4.6-9.8-4.6,9.8-4.6,9.8,4.6,8.5-4-.2-1.3-8.3-3.9,7.2-3.4-.3-2.3-1.2-8.4s-1.4,2.8-2.9,3.8c-1,.6-2.7.9-2.7.9,0,0-1.4-6.9-2.8-10.5-2.5-6.4-9.5-11.1-9.5-11.1ZM42.7,44.3l-9.8,4.6,9,4.2,3.6-1.2,4-4.4-6.7-3.2Z"/>
      <path class="st20" d="M30.6,3.2s3.4,8.7,2.6,11.8c-1,4-3.8,7.2-7.1,7.9-.9.2-2.6-.6-3.9-1.3-2.1-1.2-2.6-3.4-3.2-5.5,0,0-.7,3.6-.4,6.4.3,2.8,1.9,6.9,1.8,9.1-.1,2.3-1.1,4.9-1.1,4.9,0,0-1.6-2.7-2.6-4.5-1-1.8-3.7-4.3-3.7-4.3,0,0,1.8,3,1.8,5.8,0,2.8-5.1,8.7.3,16.5,5.4,7.8,13.6,6.9,13.6,6.9l2-.7-7.6-3.6,9.8-4.6-9.8-4.6,9.8-4.6,9.8,4.6,8.5-4-.2-1.3-8.3-3.9,7.2-3.4-.3-2.3-1.2-8.4s-1.4,2.8-2.9,3.8c-1,.6-2.7.9-2.7.9,0,0-1.4-6.9-2.8-10.5-2.5-6.4-9.5-11.1-9.5-11.1ZM42.7,43.4l-9.8,4.6,9,4.2,3.6-1.2,4-4.4-6.7-3.2Z"/>
      <path class="st7" d="M30.6,3.2s.2.6.5,1.2c1.2.8,6.8,5,9.1,10.7,1.4,3.6,2.8,10.5,2.8,10.5,0,0,1.7-.2,2.7-.9,1.5-1,2.9-3.8,2.9-3.8l1.2,8.4.2,1.4h.1c0,0-.3-2.3-.3-2.3l-1.2-8.4s-1.4,2.8-2.9,3.8c-1,.6-2.7.9-2.7.9,0,0-1.4-6.9-2.8-10.5-2.5-6.4-9.5-11.1-9.5-11.1ZM33.3,14.4c0,.3,0,.5-.1.7-1,4-3.8,7.2-7.1,7.9-.9.2-2.6-.6-3.9-1.3-2.1-1.2-2.6-3.4-3.2-5.5,0,0-.5,2.6-.5,5.1,0-2.2.5-4.2.5-4.2.6,2.1,1.1,4.4,3.2,5.5,1.3.8,3,1.5,3.9,1.3,3.4-.7,6.1-4,7.1-7.9.1-.4.1-1,.1-1.6ZM13.1,27.7s.4.7.8,1.7c.9.9,2.2,2.3,2.8,3.4,1,1.8,2.6,4.5,2.6,4.5,0,0,1-2.6,1.1-4.9,0-.2,0-.4,0-.6-.2,2.3-1.1,4.6-1.1,4.6,0,0-1.6-2.7-2.6-4.5-1-1.8-3.7-4.3-3.7-4.3ZM14.8,33.9c-.3,1.9-2.2,5.1-2.1,9,.2-3.9,2.2-6.8,2.1-8.6,0-.1,0-.3,0-.4ZM43.7,34.6l-1,.4,8.3,3.9v.5c0,0,.2,0,.2,0l-.2-1.3-7.3-3.4ZM24.1,43.8l-1,.4,8.8,4.1,1-.4-8.8-4.1ZM32.9,48l1,.4,8.9-4.1-1-.4-8.8,4.1ZM42.7,44.3l6.2,2.9.6-.6-5.8-2.7-1,.4ZM24.1,53l-1,.4,6.5,3,1.1-.4-6.6-3.1Z"/>
    </g>
  </g>
  <g class="st16">
    <path class="st5" d="M8.1,35.9c-.2,0-4.2,0-.2,3.4l21.4,17.8c.8.7,1.6,1,2.7,1,1,0,1.9-.3,2.7-1l21.4-17.8c4-3.4,0-3.4-.2-3.4h-23.9s-23.9,0-23.9,0Z"/>
    <path class="st0" d="M17.9,9.3c-1.1,0-2.6,1.1-2.6,2.4v25h33.2V11.7c0-1.3-1.5-2.4-2.6-2.4h-28.1Z"/>
    <path class="st19" d="M8.1,35c-.2,0-4.2,0-.2,3.4l21.4,17.8c.8.7,1.6,1,2.7,1,1,0,1.9-.3,2.7-1l21.4-17.8c4-3.4,0-3.4-.2-3.4h-23.9s-23.9,0-23.9,0Z"/>
    <path class="st11" d="M17.9,9.3c-1.1,0-2.6,1.1-2.6,2.4v.9c0-1.3,1.5-2.4,2.6-2.4h28.1c1.1,0,2.6,1.1,2.6,2.4v-.9c0-1.3-1.5-2.4-2.6-2.4h-28.1Z"/>
    <path class="st7" d="M8.1,35c-.2,0-2.5,0-1.9,1.5.4-.6,1.8-.6,1.9-.6h47.7c.1,0,1.5,0,1.9.6.6-1.5-1.7-1.5-1.9-1.5H8.1Z"/>
  </g>
  <g class="st16">
    <path class="st3" d="M0,59.5v2.3c0,1.9,1.5,3.4,3.4,3.4h57.1c1.9,0,3.4-1.5,3.4-3.4v-2.3c0,1.9-1.5,3.4-3.4,3.4H3.4c-1.9,0-3.4-1.5-3.4-3.4Z"/>
    <path class="st14" d="M3.4,0h57.1c1.9,0,3.4,1.5,3.4,3.4v57.2c0,1.9-1.5,3.4-3.4,3.4H3.4c-1.9,0-3.4-1.5-3.4-3.4V3.4C0,1.5,1.5,0,3.4,0Z"/>
    <path class="st4" d="M3.4,0C1.5,0,0,1.5,0,3.4v1.1C0,2.7,1.5,1.1,3.4,1.1h57.1c1.9,0,3.4,1.5,3.4,3.4v-1.1c0-1.9-1.5-3.4-3.4-3.4H3.4Z"/>
    <path class="st8" d="M50.3,10.3v9.2c-9.2.2-11.4,9.1-11.4,9.1h6.9v9.2h-10.7c-6.5,19.9-21.3,18.2-21.3,18.2v-9.2s9.4,1.8,14.2-15.8c6-22,22.3-20.7,22.3-20.7h0Z"/>
    <path class="st18" d="M50.3,9.2v9.2c-9.2.2-11.4,9.1-11.4,9.1h6.9v9.2h-10.7c-6.5,19.9-21.3,18.2-21.3,18.2v-9.2s9.4,1.8,14.2-15.8c6-22,22.3-20.7,22.3-20.7h0Z"/>
  </g>
  <g class="st16">
    <path class="st3" d="M4.8,1.1h54.4c2.7,0,4.8,2.1,4.8,4.8v54.4c0,2.6-2.1,4.8-4.8,4.8H4.8c-2.7,0-4.8-2.1-4.8-4.8V5.9C0,3.3,2.1,1.1,4.8,1.1Z"/>
    <path class="st15" d="M4.8,0h54.4c2.7,0,4.8,2.1,4.8,4.8v54.4c0,2.6-2.1,4.8-4.8,4.8H4.8c-2.7,0-4.8-2.1-4.8-4.8V4.8C0,2.1,2.1,0,4.8,0Z"/>
    <rect class="st21" x="6.9" y="6.9" width="50.3" height="50.2"/>
    <path class="st8" d="M38.9,17.1v32h4.6v-32h-4.6ZM20.6,19.4v29.7h4.6v-13.7h10.3v-4.6h-10.3v-6.9h11.4v-4.6h-16Z"/>
    <path class="st23" d="M38.9,16v32h4.6V16h-4.6ZM20.6,18.3v29.7h4.6v-13.7h10.3v-4.6h-10.3v-6.9h11.4v-4.6h-16Z"/>
    <path class="st10" d="M4.8,0C2.1,0,0,2.1,0,4.8v1.1C0,3.3,2.1,1.1,4.8,1.1h54.4c2.7,0,4.8,2.1,4.8,4.8v-1.1c0-2.7-2.1-4.8-4.8-4.8H4.8Z"/>
    <path class="st9" d="M38.9,16v1.1h4.6v-1.1h-4.6ZM20.6,18.3v1.1h16v-1.1h-16ZM25.1,29.7v1.1h10.3v-1.1h-10.3Z"/>
  </g>
  <g>
    <path class="st3" d="M3.4,1.1h57c1.9,0,3.4,1.5,3.4,3.4v57.1c0,1.9-1.5,3.4-3.4,3.4H3.4c-1.9,0-3.4-1.5-3.4-3.4V4.6C0,2.7,1.5,1.1,3.4,1.1Z"/>
    <rect class="st12" width="63.9" height="63.9" rx="3.4" ry="3.4"/>
    <path class="st10" d="M3.4,0C1.5,0,0,1.5,0,3.4v1.1C0,2.7,1.5,1.1,3.4,1.1h57c1.9,0,3.4,1.5,3.4,3.4v-1.1c0-1.9-1.5-3.4-3.4-3.4H3.4Z"/>
    <path class="st25" d="M57,10.6c0,2.1-1.8,4.9-5.4,8.5l-8.6,8.6,5.1,26.8v.2c0,.3,0,.6-.3.8l-2.3,2.3c-.2.2-.5.3-.8.3-.5,0-.9-.2-1-.6l-9.8-20.7-8.8,8.8c1.6,5.7,2.4,8.7,2.4,9.1s-.1.6-.3.8l-2.3,2.3c-.2.2-.5.3-.8.3s-.8-.2-1-.6l-5.6-10.1-10.1-5.6c-.4-.2-.6-.6-.6-1s.1-.6.3-.8l2.3-2.3c.2-.2.5-.3.8-.3s3.4.8,9.1,2.4l8.8-8.8L7.5,21.3c-.4-.2-.6-.5-.6-1s.1-.6.3-.8l2.3-2.3c.2-.2.5-.3.8-.3s.2,0,.2,0l26.8,5.1,8.6-8.6c3.6-3.6,6.4-5.4,8.5-5.4s1.4.2,1.9.7c.5.5.7,1.1.7,1.9h0Z"/>
    <path class="st18" d="M57,9.5c0,2.1-1.8,4.9-5.4,8.5l-8.6,8.6,5.1,26.8v.2c0,.3,0,.6-.3.8l-2.3,2.3c-.2.2-.5.3-.8.3-.5,0-.9-.2-1-.6l-9.8-20.7-8.8,8.8c1.6,5.7,2.4,8.7,2.4,9.1s-.1.6-.3.8l-2.3,2.3c-.2.2-.5.3-.8.3s-.8-.2-1-.6l-5.6-10.1-10.1-5.6c-.4-.2-.6-.6-.6-1s.1-.6.3-.8l2.3-2.3c.2-.2.5-.3.8-.3s3.4.8,9.1,2.4l8.8-8.8L7.5,20.2c-.4-.2-.6-.5-.6-1s.1-.6.3-.8l2.3-2.3c.2-.2.5-.3.8-.3s.2,0,.2,0l26.8,5.1,8.6-8.6c3.6-3.6,6.4-5.4,8.5-5.4s1.4.2,1.9.7c.5.5.7,1.1.7,1.9h0Z"/>
  </g>
</svg>