<?xml version="1.0" encoding="UTF-8"?>
<svg id="_图层_1" xmlns="http://www.w3.org/2000/svg" version="1.1" viewBox="0 0 64 64" width="22" height="22">
  <!-- Generator: Adobe Illustrator 29.0.1, SVG Export Plug-In . SVG Version: 2.1.0 Build 192)  -->
  <defs>
    <style>
      .st0, .st1 {
        fill: #4f4f4f;
      }

      .st2, .st3, .st4 {
        isolation: isolate;
      }

      .st2, .st3, .st5, .st1 {
        display: none;
      }

      .st2, .st4 {
        opacity: .2;
      }

      .st3 {
        fill: #fff;
        opacity: .1;
      }

      .st6 {
        fill: #848484;
      }

      .st7 {
        fill: #e47cff;
      }

      .st8 {
        fill: #ff6363;
      }

      .st9 {
        fill: #64b5ff;
      }

      .st10 {
        fill: #3bff80;
      }

      .st11 {
        fill: #e4e4e4;
      }

      .st12 {
        fill: #989898;
      }
    </style>
  </defs>
  <path class="st0" d="M50.4,64H13.8c-7.6,0-13.8-6.2-13.8-13.7V13.7C0,6.2,6.2,0,13.7,0h36.6c7.5,0,13.7,6.2,13.7,13.7v36.6c0,7.5-6.2,13.7-13.7,13.7h.1Z"/>
  <g class="st5">
    <path class="st2" d="M0,59.7v2.3C0,63.7,1.4,65.2,3.2,65.2h57.6c1.8,0,3.2-1.4,3.2-3.2v-2.3c0,1.8-1.4,3.2-3.2,3.2H3.2C1.4,62.9,0,61.5,0,59.7H0Z"/>
    <path class="st1" d="M3.2,0h57.6c1.8,0,3.2,1.4,3.2,3.2v57.6c0,1.8-1.4,3.2-3.2,3.2H3.2c-1.8,0-3.2-1.4-3.2-3.2V3.2C0,1.4,1.4,0,3.2,0Z"/>
    <path class="st6" d="M13.7,16v36.6h36.6V16s-36.6,0-36.6,0ZM20.6,22.9h22.9v22.9h-22.9v-22.9Z"/>
    <rect class="st4" x="9.1" y="35.4" width="22.9" height="22.9"/>
    <rect class="st9" x="9.1" y="34.3" width="22.9" height="22.9"/>
    <rect class="st4" x="9.1" y="12.6" width="22.9" height="16"/>
    <rect class="st7" x="9.1" y="11.4" width="22.9" height="16"/>
    <circle class="st4" cx="46.9" cy="20.6" r="8"/>
    <circle class="st8" cx="46.9" cy="19.4" r="8"/>
    <rect class="st4" x="36.6" y="40" width="18.3" height="16"/>
    <rect class="st10" x="36.6" y="38.9" width="18.3" height="16"/>
    <path class="st3" d="M3.2,0C1.4,0,0,1.4,0,3.2v1.1C0,2.6,1.4,1.1,3.2,1.1h57.6c1.8,0,3.2,1.4,3.2,3.2v-1.1c0-1.8-1.4-3.2-3.2-3.2H3.2Z"/>
  </g>
  <g>
    <path class="st2" d="M6.8.7h50.4c1.5,0,2.8,1.4,2.8,3.2v58c0,1.8-1.3,3.2-2.8,3.2H6.8c-1.5,0-2.8-1.4-2.8-3.2V3.9c0-1.8,1.3-3.2,2.8-3.2Z"/>
    <path class="st1" d="M6.8-.5h50.4c1.5,0,2.8,1.4,2.8,3.2v58c0,1.8-1.3,3.2-2.8,3.2H6.8c-1.5,0-2.8-1.4-2.8-3.2V2.7c0-1.8,1.3-3.2,2.8-3.2Z"/>
    <path class="st4" d="M8,5.3v6.9h6v-6.9h-6ZM50,5.3v6.9h6v-6.9h-6ZM8,21.4v6.9h6v-6.9h-6ZM50,21.4v6.9h6v-6.9h-6ZM8,37.5v6.9h6v-6.9h-6ZM50,37.5v6.9h6v-6.9h-6ZM8,53.6v6.9h6v-6.9h-6ZM50,53.6v6.9h6v-6.9h-6Z"/>
    <path class="st4" d="M32,9.9h14s-9,2.2-10,6c-.8,2.9,4.5,5.3,4,8.2-.6,3.5-7.4,3.6-8,7.1-.6,3.4,6.5,5.9,6,9.3-.5,3.6-7.9,4.1-8,7.7,0,3.5,8,7.7,8,7.7h-20l14-46Z"/>
    <path class="st11" d="M32,8.7h14s-9,2.2-10,6c-.8,2.9,4.5,5.3,4,8.2-.6,3.5-7.4,3.6-8,7.1-.6,3.4,6.5,5.9,6,9.3-.5,3.6-7.9,4.1-8,7.7,0,3.5,8,7.7,8,7.7h-20l14-46Z"/>
    <path class="st12" d="M8,4.1v6.9h6v-6.9h-6ZM50,4.1v6.9h6v-6.9h-6ZM8,20.2v6.9h6v-6.9h-6ZM50,20.2v6.9h6v-6.9h-6ZM8,36.3v6.9h6v-6.9h-6ZM50,36.3v6.9h6v-6.9h-6ZM8,52.4v6.9h6v-6.9h-6ZM50,52.4v6.9h6v-6.9h-6Z"/>
    <path class="st3" d="M6.8-.5c-1.6,0-2.8,1.4-2.8,3.2v1.2c0-1.8,1.2-3.2,2.8-3.2h50.4c1.6,0,2.8,1.4,2.8,3.2v-1.2c0-1.8-1.2-3.2-2.8-3.2H6.8Z"/>
  </g>
</svg>