<?xml version="1.0" encoding="UTF-8"?>
<svg id="_图层_1" xmlns="http://www.w3.org/2000/svg" version="1.1" viewBox="0 0 64 64" width="22" height="22">
  <!-- Generator: Adobe Illustrator 29.0.1, SVG Export Plug-In . SVG Version: 2.1.0 Build 192)  -->
  <defs>
    <style>
      .st0 {
        fill: #ff4d39;
      }

      .st1, .st2, .st3, .st4, .st5, .st6 {
        isolation: isolate;
      }

      .st1, .st3, .st4, .st5 {
        opacity: .2;
      }

      .st1, .st7, .st5, .st8 {
        display: none;
      }

      .st9, .st4, .st5, .st6 {
        fill: #fff;
      }

      .st10 {
        fill: #0059bf;
      }

      .st2 {
        opacity: .4;
      }

      .st8 {
        fill: #e4e4e4;
      }

      .st11 {
        fill: #00cae5;
      }

      .st12 {
        fill: #ff7b01;
      }

      .st13 {
        fill: #125072;
      }

      .st6 {
        opacity: .1;
      }
    </style>
  </defs>
  <path class="st9" d="M50.3,64H13.8C6.2,64,0,57.8,0,50.3V13.8C0,6.2,6.2,0,13.8,0h36.6c7.5,0,13.7,6.2,13.7,13.7v36.5c0,7.5-6.2,13.7-13.7,13.7h0Z"/>
  <g class="st7">
    <path class="st3" d="M32.5,9.8c-5.8,0-10.8,4-12.1,9.5,0,0-.2,0-.3,0-6.8,0-12.4,5.4-12.4,12.1,0,4.3,2.3,8.2,6.1,10.4-.5,1.1-.8,2.2-.8,3.4,0,4.3,3.6,7.8,8,7.8,2.7,0,5.2-1.3,6.7-3.5,1.5.6,3.2,1,4.8,1,1.7,0,3.3-.3,4.8-1,1.5,2.2,4,3.6,6.7,3.6,4.4,0,8-3.5,8-7.8,0-1.2-.3-2.3-.8-3.4,3.8-2.2,6.1-6.1,6.1-10.4,0-6.7-5.5-12.1-12.4-12.1-.1,0-.2,0-.3,0-1.2-5.5-6.3-9.5-12.1-9.5Z"/>
    <path class="st12" d="M32.5,9c-5.8,0-10.8,4-12.1,9.5,0,0-.2,0-.3,0-6.8,0-12.4,5.4-12.4,12.1,0,4.3,2.3,8.2,6.1,10.4-.5,1.1-.8,2.2-.8,3.4,0,4.3,3.6,7.8,8,7.8h0c2.7,0,5.2-1.3,6.7-3.5,1.5.6,3.2,1,4.8,1,1.7,0,3.3-.3,4.8-1,1.5,2.2,4,3.6,6.7,3.6,4.4,0,8-3.5,8-7.8h0c0-1.2-.3-2.3-.8-3.4,3.8-2.2,6.1-6.1,6.1-10.4,0-6.7-5.5-12.1-12.4-12.1-.1,0-.2,0-.3,0-1.2-5.5-6.3-9.5-12.1-9.5Z"/>
    <ellipse class="st3" cx="26.3" cy="36.2" rx="6.2" ry="7.3"/>
    <ellipse class="st9" cx="26.3" cy="35.3" rx="6.2" ry="7.3"/>
    <ellipse class="st3" cx="38.7" cy="36.2" rx="6.2" ry="7.3"/>
    <ellipse class="st10" cx="27.2" cy="36.6" rx="2.7" ry="3.5"/>
    <ellipse class="st9" cx="38.7" cy="35.3" rx="6.2" ry="7.3"/>
    <ellipse class="st10" cx="37.8" cy="36.6" rx="2.7" ry="3.5"/>
    <path class="st4" d="M32.5,9c-5.8,0-10.8,4-12.1,9.5,0,0-.2,0-.3,0-6.8,0-12.4,5.4-12.4,12.1,0,.1,0,.2,0,.4.3-6.5,5.7-11.6,12.4-11.6,0,0,.2,0,.3,0,1.2-5.6,6.3-9.5,12.1-9.5,5.8,0,10.8,4,12.1,9.5.1,0,.2,0,.3,0,6.7,0,12.2,5.2,12.4,11.8,0-.2,0-.4,0-.5,0-6.7-5.5-12.1-12.4-12.1-.1,0-.2,0-.3,0-1.2-5.5-6.3-9.5-12.1-9.5ZM51.4,41.7c0,0-.2.1-.3.2.5,1,.7,2,.8,3,0-.2,0-.3,0-.5,0-.9-.2-1.9-.5-2.7ZM13.6,41.7c-.3.9-.5,1.8-.5,2.7,0,.1,0,.3,0,.4,0-1,.3-2,.8-2.9-.1,0-.2-.1-.3-.2Z"/>
  </g>
  <g class="st7">
    <path class="st8" d="M14.7,1.7h35.6c7.8,0,14.2,6.4,14.2,14.2v35.6c0,7.8-6.4,14.2-14.2,14.2H14.7c-7.8,0-14.2-6.4-14.2-14.2V15.9C.5,8,6.9,1.7,14.7,1.7Z"/>
    <path class="st1" d="M16.7,11.3h29.7c1.9,0,3.4,1.6,3.4,3.5v39.3c0,1.9-1.5,3.5-3.4,3.5h-29.7c-1.9,0-3.4-1.6-3.4-3.5V14.8c0-1.9,1.5-3.5,3.4-3.5Z"/>
    <path class="st8" d="M6.5,1.8h51.8c3.3,0,5.9,2.2,5.9,4.8v54.3c0,2.6-2.6,4.8-5.9,4.8H6.5c-3.3,0-5.9-2.2-5.9-4.8V6.6C.6,4,3.2,1.8,6.5,1.8Z"/>
    <path class="st3" d="M6.4,45.1v6.9h46.7v-3.5h5.6v-3.5H6.4Z"/>
    <rect class="st0" x="34.6" y="21.1" width="24.1" height="19.5"/>
    <path class="st3" d="M35.8,37.8c4.5-1.1,8.9-2.9,12.4-5.5,1.4-1.1,2.4-3,1.7-4.6-.7-1.7-3.3-2.2-5.2-1.9-2.8.4-5.4,2.5-5.9,4.8-.3,2.1,1.4,4.3,3.7,5.2,3,1.2,6.6,1.4,9.9.8,2.3-.4,4.4-1.1,6.3-2.2v-3.2c-3.3,2.9-8.2,4.6-12.9,4.3-2.4-.1-4.9-1.5-5.6-3.5-.7-1.8.9-4,3-4.8,1.4-.7,3.3-1,4.7-.1s1.2,2.8.3,3.7c-1.4,1.7-3.7,2.9-5.8,4.1-2.1,1.1-4.2,2.1-6.5,2.8h-.2Z"/>
    <path class="st9" d="M35.8,36.7c4.5-1.1,8.9-2.9,12.4-5.5,1.4-1.1,2.4-3,1.7-4.6-.7-1.7-3.3-2.2-5.2-1.9-2.8.4-5.4,2.5-5.9,4.8-.3,2.1,1.4,4.3,3.7,5.2,3,1.2,6.6,1.4,9.9.8,2.3-.4,4.4-1.1,6.3-2.2v-3.2c-3.3,2.9-8.2,4.6-12.9,4.3-2.4-.1-4.9-1.5-5.6-3.5-.7-1.8.9-4,3-4.8,1.4-.7,3.3-1,4.7-.1s1.2,2.8.3,3.7c-1.4,1.7-3.7,2.9-5.8,4.1-2.1,1.1-4.2,2.1-6.5,2.8h-.2Z"/>
    <path class="st2" d="M6.4,7.4v3.5h29.6v-3.5s-29.6,0-29.6,0Z"/>
    <path class="st3" d="M30.4,17.8v8H6.4v-11.5h52.3v3.5s-28.3,0-28.3,0Z"/>
    <path class="st3" d="M6.4,29.1h24.1v9.1h-8.5v3.5H6.4s0-12.6,0-12.6Z"/>
    <path class="st5" d="M16.7,10.5c-1.9,0-3.4,1.5-3.4,3.5v.8c0-1.9,1.5-3.5,3.4-3.5h29.7c1.9,0,3.4,1.5,3.4,3.5v-.8c0-1.9-1.5-3.5-3.4-3.5h-29.7Z"/>
  </g>
  <g>
    <path class="st3" d="M11.1,8.1c-1,0-1.7.8-1.7,1.7v21.5c0,1.9.6,3.7,1.6,5.2,2.2,3.3,5.3,7.4,8.8,10.8,1.8,2.1,4.1,3.9,6.5,5.2.3.1.5.3.8.4,1.5,1.1,3.3,1.7,5.3,1.7h21.5c.4,0,.8-.2,1-.4,0,0,0,0,0,0h0s0,0,0,0c.1-.1.2-.2.3-.4,0,0,0-.1.1-.2,0-.2.1-.4.1-.6,0,0,0,0,0,0h0v-7.6h0v-7h0v-7h0c0-.6,0-1-.1-1.5-.2-1.7-1-3.3-2-4.6,0,0,0,0,0,0-.9-1.4-2-2.8-3.1-4.1-1.9-2.5-4.1-5-6.5-7.1-2.3-2.1-4.8-3.8-7.1-4.9-1.4-.6-2.9-1-4.3-1.1H11.1Z"/>
    <path class="st13" d="M11.1,7.2c-1,0-1.7.8-1.7,1.7v21.5c0,1.9.6,3.7,1.6,5.2,4.7,7,13.3,17.5,21.5,18h7.5l1.1-.2h13.3c.2,0,.5,0,.7-.2,0,0,0,0,0,0,.4-.3.6-.8.6-1.3v-21.5c0-1.9-.6-3.7-1.6-5.2-2.5-3.7-6.1-8.4-10.1-12.1-2.3-2.1-4.8-3.8-7.1-4.9-1.4-.6-2.9-1-4.3-1.1H11.1Z"/>
    <path class="st9" d="M18,14.1c-1,0-1.7.8-1.7,1.7v23.8c1.1,7,10.2,13.6,16.2,14.1h6.7c0-.1,6.9-.1,6.9-.1h7.8c1,0,1.7-1,1.7-1.9v-21.3c0-1.9-.6-3.8-1.6-5.2-3.5-5.6-8.3-10.8-14.6-11.1h-21.4Z"/>
    <path class="st11" d="M24.8,21c-1,0-1.7.8-1.7,1.7v8.6h12v-5.7l15.4,10-15.4,9.9v-5.6h-12v4.4c0,5.2,4.1,9.4,9.3,9.4h21.5c1,0,1.7-.8,1.7-1.7v-21.7c0-5.2-4.1-9.4-9.3-9.4h-21.5Z"/>
    <path class="st6" d="M11.1,7.2c-1,0-1.7.8-1.7,1.7v.9c0-1,.8-1.7,1.7-1.7h21.4c1.4,0,2.9.5,4.3,1.1,2.3,1.1,4.8,2.8,7.1,4.9,4,3.7,7.6,8.3,10.1,12.1,1,1.5,1.6,3.3,1.6,5.2v-.9c0-1.9-.6-3.7-1.6-5.2-2.5-3.7-6.1-8.4-10.1-12.1-2.3-2.1-4.8-3.8-7.1-4.9-1.4-.6-2.9-1-4.3-1.1H11.1Z"/>
    <path class="st3" d="M49.8,36.1l-14.7,9.5v.9l15.4-9.9-.7-.4ZM23.1,40v.9h12v-.9h-12Z"/>
  </g>
</svg>