<?xml version="1.0" encoding="UTF-8"?>
<svg id="_图层_1" xmlns="http://www.w3.org/2000/svg" version="1.1" xmlns:xlink="http://www.w3.org/1999/xlink" viewBox="0 0 64 64" width="22" height="22">
  <!-- Generator: Adobe Illustrator 29.0.1, SVG Export Plug-In . SVG Version: 2.1.0 Build 192)  -->
  <defs>
    <style>
      .st0 {
        fill: #623bb2;
      }

      .st0, .st1, .st2, .st3, .st4 {
        display: none;
      }

      .st5 {
        fill: #4f4f4f;
      }

      .st1, .st2, .st6, .st7, .st8, .st9, .st10, .st11, .st12, .st13, .st14 {
        isolation: isolate;
      }

      .st1, .st6, .st10, .st11, .st12, .st13 {
        opacity: .2;
      }

      .st2, .st15, .st7, .st10, .st13, .st14 {
        fill: #fff;
      }

      .st2, .st7, .st8, .st14 {
        opacity: .1;
      }

      .st16 {
        stroke: #1f711f;
        stroke-width: 6px;
      }

      .st16, .st11, .st17 {
        fill: none;
        stroke-linecap: round;
        stroke-linejoin: round;
      }

      .st6, .st7, .st10, .st18 {
        fill-rule: evenodd;
      }

      .st19 {
        fill: #3f3f3f;
      }

      .st20 {
        fill: #f47329;
      }

      .st3 {
        fill: #84b126;
      }

      .st21 {
        fill: #ff3737;
      }

      .st9 {
        fill: #fe7e40;
        opacity: .7;
      }

      .st22 {
        fill: #37c944;
      }

      .st11 {
        stroke: url(#_未命名的渐变_4);
        stroke-width: 2px;
      }

      .st23 {
        fill: #ff9e18;
      }

      .st18 {
        fill: #32b632;
      }

      .st24 {
        fill: #c72828;
      }

      .st25 {
        fill: #e4e4e4;
      }

      .st26 {
        fill: #358be1;
      }

      .st17 {
        stroke: #248424;
        stroke-width: 6px;
      }

      .st27 {
        fill: #5c5c5c;
      }

      .st28 {
        fill: #f04339;
      }
    </style>
    <linearGradient id="_未命名的渐变_4" data-name="未命名的渐变 4" x1="199.8" y1="-184.2" x2="193.3" y2="-196.1" gradientTransform="translate(-275.5 -270) scale(1.5 -1.5)" gradientUnits="userSpaceOnUse">
      <stop offset="0" stop-color="#000"/>
      <stop offset="1" stop-color="#000" stop-opacity="0"/>
    </linearGradient>
  </defs>
  <path class="st15" d="M50.4,64H13.8c-7.6,0-13.8-6.2-13.8-13.7V13.7C0,6.2,6.2,0,13.7,0h36.6c7.5,0,13.7,6.2,13.7,13.7v36.6c0,7.5-6.2,13.7-13.7,13.7h.1Z"/>
  <g class="st4">
    <path class="st22" d="M20.6,8.8c-5.6.2-11.5,3.2-16.6,11.3-1,1.6-2.7,4.3-2.7,6.8,0,2.4,1.7,5.1,2.7,6.6,12.5,19.9,30,8.8,35.4,1.8,1.1-1.4,3.1-2,4.5-1.2l11.8,6.6c1.4.8,2.1,0,1.4-1.8l-5.3-12.1,5.3-12.3c.7-1.8,0-2.6-1.4-1.8l-11.8,6.6c-1.4.8-3.4.2-4.5-1.2-3.2-4.1-10.6-9.7-18.8-9.4h0Z"/>
    <circle class="st12" cx="12.4" cy="20.8" r="3"/>
    <circle class="st15" cx="12.4" cy="19.8" r="3"/>
    <path class="st13" d="M52,27.4l-.2.5,5.3,12.1c0,.2.2.5.2.7.1-.4,0-.9-.2-1.7l-5.1-11.6ZM20.6,8.8c-5.6.2-11.5,3.2-16.6,11.3-1,1.6-2.7,4.3-2.7,6.8,0,.2,0,.3,0,.5.2-2.3,1.7-4.8,2.6-6.3,5.1-8.1,11-11.1,16.6-11.3h0c8.2-.3,15.6,5.3,18.8,9.4,1.1,1.4,3.1,2,4.5,1.2l11.8-6.6c.9-.5,1.4-.4,1.6.2.3-1.3-.3-1.9-1.6-1.2l-11.8,6.6c-1.4.8-3.4.2-4.5-1.2-3.2-4.1-10.6-9.7-18.8-9.4h0Z"/>
    <path class="st12" d="M1.4,27.4c0,.2,0,.4,0,.5,0,2.4,1.7,5.1,2.7,6.6,12.5,19.9,30,8.8,35.4,1.8,1.1-1.4,3.1-2,4.5-1.2l11.8,6.6c1.2.7,1.9.2,1.6-1.2-.2.5-.7.6-1.6.2l-11.8-6.6c-1.4-.8-3.4-.2-4.5,1.2-5.3,6.9-22.8,18.1-35.4-1.8-.9-1.5-2.4-3.9-2.6-6.2h0ZM57.3,14c0,.2-.1.4-.2.7l-5.3,12.3.2.5,5.1-11.7c.3-.7.3-1.3.2-1.7h0Z"/>
    <path class="st6" d="M61.3,40.7c-.5,8.5-7.5,15.1-16,15.2-8.4,0-15.4-6.5-16-14.8,0,.3,0,.6,0,.8,0,8.8,7.2,16,16,16s16-7.2,16-16c0-.4,0-.8,0-1.2h0Z"/>
    <circle class="st5" cx="45.4" cy="40.8" r="16"/>
    <path class="st15" d="M37.4,45.3v3.6h3.6l9-9-3.6-3.6-9,9ZM53.1,36.7c.4-.4.4-1,0-1.3l-2.2-2.2c-.4-.4-1-.4-1.3,0l-1.9,1.9,3.6,3.6,1.9-1.9Z"/>
  </g>
  <g class="st4">
    <path class="st3" d="M3.2,0h57.6c1.8,0,3.2,1.4,3.2,3.2v57.5c0,1.8-1.4,3.2-3.2,3.2H3.2c-1.8,0-3.2-1.4-3.2-3.2V3.2C0,1.4,1.4,0,3.2,0Z"/>
    <rect class="st12" x="9.1" y="50.2" width="45.7" height="6.8"/>
    <path class="st1" d="M0,60.7v1.1c0,1.8,1.4,3.2,3.2,3.2h57.6c1.8,0,3.2-1.4,3.2-3.2v-1.1c0,1.8-1.4,3.2-3.2,3.2H3.2c-1.8,0-3.2-1.4-3.2-3.2Z"/>
    <rect class="st19" x="28.6" y="41.1" width="6.9" height="9.1"/>
    <rect class="st19" x="9.1" y="49" width="45.7" height="6.8"/>
    <ellipse class="st12" cx="11.4" cy="53.6" rx="6.9" ry="6.8"/>
    <ellipse class="st15" cx="11.4" cy="52.5" rx="6.9" ry="6.8"/>
    <ellipse class="st12" cx="32" cy="53.6" rx="6.9" ry="6.8"/>
    <ellipse class="st15" cx="32" cy="52.5" rx="6.9" ry="6.8"/>
    <ellipse class="st12" cx="52.6" cy="53.6" rx="6.9" ry="6.8"/>
    <ellipse class="st15" cx="52.6" cy="52.5" rx="6.9" ry="6.8"/>
    <path class="st12" d="M17.5,5.7c-2.1,0-3.8,1.7-3.8,3.8v28.9c0,2.1,1.7,3.8,3.8,3.8h28.9c2.1,0,3.8-1.7,3.8-3.8V9.5c0-2.1-1.7-3.8-3.8-3.8h-28.9ZM22.8,14.8h18.3v18.2h-18.3V14.8Z"/>
    <path class="st27" d="M17.5,4.6c-2.1,0-3.8,1.7-3.8,3.8v28.9c0,2.1,1.7,3.8,3.8,3.8h28.9c2.1,0,3.8-1.7,3.8-3.8V8.4c0-2.1-1.7-3.8-3.8-3.8h-28.9ZM22.8,13.7h18.3v18.2h-18.3s0-18.2,0-18.2Z"/>
  </g>
  <g class="st4">
    <path class="st12" d="M32,3.1C16.5,3.1,4,15.6,4,31.1c0,6.5,2.3,12.8,6.5,17.9,4.8.2,9,2.6,13.8,3.7,2.9.8,4.6,1,8,.9,2.8,0,3.7-.2,5.4-.7,3.4-1,7-3,9-5.1,3.7-3.8,5.4-11.1,3.7-16.5-.8-3.2-2.2-4.4-4.7-5.2-2.4-.9-3.6.4-3.6.4.1,1.6.5,2.8-1.7,4.7-1,1-3.5,1.4-5.3,1.8-.4,0-.7.4-.9.6-.1.3-1,3.4-2,5.9-2.3,5.9-3.7,8.6-4.5,9.2-.6.5-.7.5-2.2,0-.9-.2-2.1-.7-2.8-1.2-1.2-.7-5.5-5-5.5-5,0,0,2.2.5,3.9.6,3.5.2,4.7.1,4.9-2.1,0-.9.2-3.2.2-4.2,0-1.7,0-2-.8-3.6-.5-1-.9-2.2-1-2.8,0-.6-.2-1.1-.3-1.1s-.4.4-.6,1c-.7,1.7-2.2,2.1-3.9,2.1s-1.5,0-1.6.1c0,0,.3.5.8,1,.5.4.9.9.8.9-.1,0-.8.2-1.5.3-.9.1-1.5,0-2.2-.2-.5-.2-1-.4-1.1-.4-.4,0-.2.6.5,1.6.7.9.9,1.4.5,1.4s-.9-.2-1.8-.4c-1.2-.3-1.8-.7-2.5-1.3l-.9-.9-.3.8c-.2.4-.4,1.3-.5,1.9,0,.6-.2,1.2-.4,1.2-.2.1-1.5-1.7-2-2.8-.4-1-.4-3.4,0-4.9.7-2.3,2.1-3.7,4.5-4.4,5.8-1.7,7.6-3.3,8.7-7.2.3-.9.7-1.7,1.3-2.3.9-.9,1.7-1.5,3.1-1.6.9,0,2.6.7,2.6.7l1.2-1.5c2.1-2.8,5.6-5.4,9.4-6.6.9-.3,2-.4,3-.5.4,0,.7,0,1.1,0,2.1,0,4.3.5,6.3,1.2-4.8-3.5-10.5-5.4-16.5-5.4ZM47.7,9.1c-3.6.1-6.9,1.2-9.2,5.4,5.1-3.2,9.4-3.3,13.4-3-.8-.8-1.7-1.6-2.7-2.4-.5,0-1,0-1.5,0ZM53.9,13.6c0,0,.1.2.2.3,0,0-.1-.2-.2-.3ZM55,15.2c-.8.5-1.5.9-1.5.9,0,0,1.1.1,2.3.3-.3-.4-.5-.8-.8-1.2ZM56.8,18.1c.1.2.2.4.3.6-.1-.2-.2-.4-.3-.6ZM25.1,18.1c-.7,1.7-1.6,3.1-2.8,4.2l2.8-1v-3.2ZM57.9,20.5c0,.2.2.5.3.7,0,0,0,0,0,0-.1-.3-.2-.5-.3-.8ZM58.9,23.4c0,.2.1.5.2.7,0-.2-.1-.5-.2-.7ZM59.5,26c0,.2,0,.4,0,.6,0-.2,0-.4,0-.6ZM13,28.1l-2.8,1.2c.9-.2,1.9-.3,2.8.2v-1.4ZM59.9,29c0,0,0,.2,0,.3,0,.6,0,1.2,0,1.8,0-.7,0-1.4,0-2.1ZM26.4,58.5s0,0,0,0c0,0,0,0,0,0ZM29.1,58.9c0,0,.1,0,.2,0,0,0-.1,0-.2,0ZM34.1,59c-.1,0-.2,0-.3,0,.1,0,.2,0,.3,0Z"/>
    <path class="st5" d="M32,2.1c10.3,0,19.3,5.5,24.2,13.8,2.4,4.2,1,9.6,1,14.8,0,15.5-10,25.6-25.5,25.6s-15.6-1.8-20.8-7.7c-4.3-4.9-7-11.4-7-18.5C4,14.6,16.5,2.1,32,2.1Z"/>
    <path class="st12" d="M41.1,7.3c-1.1,0-2.1.2-3,.5-3.7,1.2-7.2,3.8-9.4,6.6l-1.2,1.5s-1.7-.7-2.6-.7c-1.4,0-2.2.6-3.1,1.6-.6.6-1,1.4-1.3,2.3-1.1,3.9-2.8,5.6-8.7,7.2-2.4.7-3.8,2.1-4.5,4.4-.4,1.5-.4,3.9,0,4.9.5,1.1,1.7,2.9,2,2.8.1,0,.3-.6.4-1.2,0-.6.3-1.5.5-1.9l.3-.8.9.9c.7.7,1.3,1,2.5,1.3.9.2,1.7.4,1.8.4.3,0,.2-.5-.5-1.4-.7-.9-.9-1.6-.5-1.6s.6.2,1.1.4c.6.3,1.2.3,2.2.2.7,0,1.4-.2,1.5-.3.1,0-.2-.5-.8-.9-.5-.4-.9-.9-.8-1,0,0,.8-.1,1.6-.1,1.7,0,3.2-.5,3.9-2.1.2-.5.5-1,.6-1s.3.5.3,1.1c0,.6.5,1.9,1,2.8.8,1.6.8,1.9.8,3.6,0,1,0,3.4-.2,4.2-.2,2.2-1.4,2.3-4.9,2.1-1.7,0-3.9-.6-3.9-.6,0,0,4.3,4.3,5.5,5,.7.4,1.9.9,2.8,1.2,1.5.4,1.6.4,2.2,0,.8-.6,2.2-3.3,4.5-9.2,1-2.5,1.9-5.7,2-5.9.1-.3.5-.6.9-.6,1.8-.4,4.3-.8,5.3-1.8,2.2-1.9,1.8-3.1,1.7-4.7,0,0,1.3-1.2,3.7-.4,2.5.9,3.8,2,4.7,5.2,1.7,5.4,0,12.7-3.7,16.5-2,2.1-5.5,4.1-9,5.1-1.7.5-2.6.6-5.4.7-3.4,0-5.1-.1-8-.9-4.8-1.1-9-3.5-13.8-3.7.5.6,1,1.2,1.6,1.8,0,0,.2.2.3.3.5.5,1.1,1,1.7,1.5.1.1.2.2.4.3.6.5,1.2.9,1.8,1.4.1,0,.3.2.4.2.7.4,1.3.8,2,1.2,0,0,.2,0,.3.1.7.4,1.3.7,2,1,0,0,.2,0,.3.1.7.3,1.5.6,2.3.8.1,0,.3,0,.4.1.7.2,1.5.4,2.3.6.3,0,.5.1.8.2.2,0,.4,0,.6.1.3,0,.5,0,.8.1.2,0,.5,0,.7,0,.3,0,.7,0,1,0,.1,0,.3,0,.4,0,.5,0,1,0,1.6,0,15.5,0,28-12.5,28-28s0-1.2,0-1.8c0-.1,0-.3,0-.4,0-.5,0-1-.2-1.5,0,0,0-.2,0-.3,0-.6-.2-1.2-.3-1.8,0,0,0,0,0,0-.1-.7-.3-1.3-.5-2-.1-.4-.3-.9-.4-1.3,0-.2-.2-.5-.3-.7-.6-1.7-1.4-3.2-2.3-4.7,0,0,0,0,0,0-1.2-.2-2.3-.3-2.3-.4,0,0,.7-.4,1.5-.9,0,0,0,0,0,0-.9-1.2-1.8-2.4-2.9-3.5,0,0,0-.1-.1-.2-4.1-.3-8.3-.2-13.5,3,2.7-4.8,6.5-5.5,10.8-5.4-.3-.2-.5-.4-.8-.6-2.1-.6-4.3-1.1-6.4-1.2-.4,0-.7,0-1.1,0ZM25.1,18.1v3.2s-2.8,1-2.8,1c1.2-1.1,2.1-2.5,2.8-4.2ZM13,28.1v1.4c-.9-.5-1.9-.5-2.8-.2l2.8-1.2Z"/>
    <path class="st28" d="M41.1,6.3c-1.1,0-2.1.2-3,.5-3.7,1.2-7.2,3.8-9.4,6.6l-1.2,1.5s-1.7-.7-2.6-.7c-1.4,0-2.2.6-3.1,1.6-.6.6-1,1.4-1.3,2.3-1.1,3.9-2.8,5.6-8.7,7.2-2.4.7-3.8,2.1-4.5,4.4-.4,1.5-.4,3.9,0,4.9.5,1.1,1.7,2.9,2,2.8.1,0,.3-.6.4-1.2,0-.6.3-1.5.5-1.9l.3-.8.9.9c.7.7,1.3,1,2.5,1.3.9.2,1.7.4,1.8.4.3,0,.2-.5-.5-1.4-.7-.9-.9-1.6-.5-1.6s.6.2,1.1.4c.6.3,1.2.3,2.2.2.7,0,1.4-.2,1.5-.3.1,0-.2-.5-.8-.9-.5-.4-.9-.9-.8-1,0,0,.8-.1,1.6-.1,1.7,0,3.2-.5,3.9-2.1.2-.5.5-1,.6-1s.3.5.3,1.1c0,.6.5,1.9,1,2.8.8,1.6.8,1.9.8,3.6,0,1,0,3.4-.2,4.2-.2,2.2-1.4,2.3-4.9,2.1-1.7,0-3.9-.6-3.9-.6,0,0,4.3,4.3,5.5,5,.7.4,1.9.9,2.8,1.2,1.5.4,1.6.4,2.2,0,.8-.6,2.2-3.3,4.5-9.2,1-2.5,1.9-5.7,2-5.9.1-.3.5-.6.9-.6,1.8-.4,4.3-.8,5.3-1.8,2.2-1.9,1.8-3.1,1.7-4.7,0,0,1.3-1.2,3.7-.4,2.5.9,3.8,2,4.7,5.2,1.7,5.4,0,12.7-3.7,16.5-2,2.1-5.5,4.1-9,5.1-1.7.5-2.6.6-5.4.7-3.4,0-5.1-.1-8-.9-4.8-1.1-9-3.5-13.8-3.7.5.6,1,1.2,1.6,1.8,0,0,.2.2.3.3.5.5,1.1,1,1.7,1.5.1.1.2.2.4.3.6.5,1.2.9,1.8,1.4.1,0,.3.2.4.2.7.4,1.3.8,2,1.2,0,0,.2,0,.3.1.7.4,1.3.7,2,1,0,0,.2,0,.3.1.7.3,1.5.6,2.3.8.1,0,.3,0,.4.1.7.2,1.5.4,2.3.6.3,0,.5.1.8.2.2,0,.4,0,.6.1.3,0,.5,0,.8.1.2,0,.5,0,.7,0,.3,0,.7,0,1,0,.1,0,.3,0,.4,0,.5,0,1,0,1.6,0,15.5,0,28-12.5,28-28s0-1.2,0-1.8c0-.1,0-.3,0-.4,0-.5,0-1-.2-1.5,0,0,0-.2,0-.3,0-.6-.2-1.2-.3-1.8,0,0,0,0,0,0-.1-.7-.3-1.3-.5-2-.1-.4-.3-.9-.4-1.3,0-.2-.2-.5-.3-.7-.6-1.7-1.4-3.2-2.3-4.7,0,0,0,0,0,0-1.2-.2-2.3-.3-2.3-.4,0,0,.7-.4,1.5-.9,0,0,0,0,0,0-.9-1.2-1.8-2.4-2.9-3.5,0,0,0-.1-.1-.2-4.1-.3-8.3-.2-13.5,3,2.7-4.8,6.5-5.5,10.8-5.4-.3-.2-.5-.4-.8-.6-2.1-.6-4.3-1.1-6.4-1.2-.4,0-.7,0-1.1,0ZM25.1,17.1v3.2s-2.8,1-2.8,1c1.2-1.1,2.1-2.5,2.8-4.2ZM13,27.1v1.4c-.9-.5-1.9-.5-2.8-.2l2.8-1.2Z"/>
    <path class="st23" d="M47.8,26.2c1.1.8,1.9,2,2.4,4.1,1.7,5.4,0,12.7-3.7,16.5-2,2.1-5.5,4.1-9,5.1-1.7.5-2.6.6-5.4.7-3.4,0-5.1-.1-8-.9-4.8-1.1-9-3.5-13.8-3.7,0,0,5.5,3.5,9.4,4.7,11.3,4,21.1,3.9,27.5-2,9-8.9,5.8-22.9.5-24.5Z"/>
    <path class="st9" d="M41.1,6.3c-1.1,0-2.1.2-3,.5-3.7,1.2-7.2,3.8-9.4,6.6l-1.2,1.5c6.7-5.3,13.4-8.5,21.8-6.8-.3-.2-.5-.4-.8-.6-2.1-.6-4.3-1.1-6.4-1.2-.4,0-.7,0-1.1,0ZM48.9,10.3c-3.2,0-6.5.7-10.4,3.1,4.4-1.4,9.9-1.8,14.9-1.4-.4-.5-.8-1-1.3-1.4,0,0,0-.1-.1-.2-1,0-2-.1-3.1-.1ZM41.3,20.9c0,4.8-2.1,8.5-6.7,11-2.9,2.6-7.1,13.2-8.6,13.2-1.7,0-8.9-3.5-8.9-3.5,0,0,4.3,4.3,5.5,5,.7.4,1.9.9,2.8,1.2,1.5.4,1.6.4,2.2,0,.8-.6,2.2-3.3,4.5-9.2,1-2.5,1.9-5.7,2-5.9.1-.3.5-.6.9-.6.8-.2,2.1-.4,3-.6,0,0,0,0,0,0,.5-.1.9-.3,1.3-.5.2,0,.4-.2.5-.3,0,0,0,0,0,0,0,0,0,0,0,0,.2-.1.3-.2.5-.4,2.2-1.9,1.8-3.1,1.7-4.7,0,0,0,0,0,0l-.7-4.5Z"/>
    <path class="st14" d="M32,2.1C16.5,2.1,4,14.6,4,30.1c0,.2,0,.3,0,.5.3-15.3,12.7-27.5,28-27.5,15.3,0,27.7,12.2,28,27.5,0-.2,0-.3,0-.5,0-15.5-12.5-28-28-28Z"/>
  </g>
  <g class="st4">
    <path class="st6" d="M31.7,9.1c-7.9,0-15.3,3.8-19.6,10.2-.7-.3-1.4-.4-2.2-.4-3,0-5.4,2.2-5.4,4.9,0,2.2,1.6,4.1,3.9,4.7-.2,1.1-.3,2.3-.3,3.5,0,12.6,10.6,22.9,23.6,22.9.7,0,1.4,0,2.1-.1h0c11.2-.5,19.9-2.2,23.3-3.2-4.7-1.4-5.3-6.2-4.2-9.7,1.5-3.1,2.3-6.5,2.4-9.9,0-1.2-.1-2.3-.3-3.5,2.3-.6,3.9-2.5,3.9-4.7,0-2.7-2.4-4.9-5.4-4.9-.7,0-1.5.1-2.2.4-4.4-6.4-11.7-10.2-19.6-10.2Z"/>
    <ellipse class="st25" cx="31.7" cy="31.2" rx="23.6" ry="22.9"/>
    <ellipse class="st25" cx="53.4" cy="23" rx="5.4" ry="4.9"/>
    <ellipse class="st25" cx="9.9" cy="23" rx="5.4" ry="4.9"/>
    <path class="st25" d="M33.8,53.9c11.2-.5,19.9-2.2,23.3-3.2-5.6-1.6-5.4-8.2-3.3-11.6l-19.9,14.8Z"/>
    <ellipse class="st8" cx="22.6" cy="25.5" rx="6.6" ry="5.4" transform="translate(-7.6 41.2) rotate(-75.9)"/>
    <ellipse class="st19" cx="22.6" cy="24.6" rx="6.6" ry="5.4" transform="translate(-6.8 40.5) rotate(-75.9)"/>
    <ellipse class="st8" cx="40.7" cy="25.5" rx="5.4" ry="6.6" transform="translate(-5 10.9) rotate(-14.3)"/>
    <ellipse class="st19" cx="40.7" cy="24.6" rx="5.4" ry="6.6" transform="translate(-4.8 10.9) rotate(-14.3)"/>
    <path class="st10" d="M31.7,8.3c-7.9,0-15.3,3.8-19.6,10.2-.7-.3-1.4-.4-2.2-.4-3,0-5.4,2.2-5.4,4.9,0,.1,0,.3,0,.4.2-2.5,2.6-4.5,5.4-4.5.7,0,1.5.1,2.2.4,4.4-6.4,11.7-10.2,19.6-10.2,7.9,0,15.3,3.8,19.6,10.2.7-.3,1.4-.4,2.2-.4,2.8,0,5.2,1.9,5.4,4.5,0-.1,0-.3,0-.4,0-2.7-2.4-4.9-5.4-4.9-.7,0-1.5.1-2.2.4-4.4-6.4-11.7-10.2-19.6-10.2ZM55.2,29.3c0,0-.1,0-.2,0,0,.3,0,.5,0,.8,0,0,0,0,0,0,0,.5,0,1.1,0,1.6,0-.2,0-.4,0-.5,0-.6,0-1.3-.1-1.9ZM8.2,29.3c0,.6-.1,1.3-.1,1.9,0,.1,0,.3,0,.4,0-.5,0-1,0-1.5,0,0,0,0,0,0,0-.3,0-.5,0-.8,0,0-.1,0-.2,0ZM52.5,45c0,.4,0,.8,0,1.2,0-.1,0-.3,0-.4.2,2.1,1.2,4.2,3.3,5.3.5-.1,1-.2,1.3-.3-3.1-.9-4.4-3.3-4.6-5.8Z"/>
  </g>
  <g class="st4">
    <ellipse class="st1" cx="31.9" cy="32.9" rx="31.9" ry="31.8"/>
    <ellipse class="st0" cx="31.9" cy="31.8" rx="31.9" ry="31.8"/>
    <path class="st12" d="M26.7,3.3l-8.7,33.4c-2.5-13.9-4.7-21.2-7.6-27.1-2.6,2.4-4.8,5.2-6.5,8.3,2.1,5.3,4.1,12.5,6.8,23.8,2.9,12.3,7.6,16.7,18.3,18.9l7.7,1.8,8.7-33.4c2.6,14.3,4.8,21.7,7.9,27.6,2.6-2.3,4.8-5,6.5-8.1-2.2-5.4-4.3-12.7-7.1-24.6-2.9-12.3-7.6-16.7-18.3-18.9l-7.7-1.8ZM34,12.2c5.4,1.4,7.5,4.1,9.2,9.5h-3.7l-10.3,31.8c-5.4-1.4-7.5-4.1-9.2-9.5h3.7l10.3-31.8Z"/>
    <path class="st15" d="M26.7,2.1l-8.7,33.4c-2.5-13.9-4.7-21.2-7.6-27.1-2.6,2.4-4.8,5.2-6.5,8.3,2.1,5.3,4.1,12.5,6.8,23.8,2.9,12.3,7.6,16.7,18.3,18.9l7.7,1.8,8.7-33.4c2.6,14.3,4.8,21.7,7.9,27.6,2.6-2.3,4.8-5,6.5-8.1-2.2-5.4-4.3-12.7-7.1-24.6-2.9-12.3-7.6-16.7-18.3-18.9l-7.7-1.8ZM34,11c5.4,1.4,7.5,4.1,9.2,9.5h-3.7l-10.3,31.8c-5.4-1.4-7.5-4.1-9.2-9.5h3.7l10.3-31.8Z"/>
    <path class="st2" d="M31.9,0C14.3,0,0,14.2,0,31.8c0,.2,0,.4,0,.6C.3,15,14.5,1.1,31.9,1.1c17.4,0,31.6,13.9,31.9,31.2,0-.2,0-.4,0-.6C63.9,14.2,49.6,0,31.9,0Z"/>
  </g>
  <g class="st4">
    <g>
      <path class="st12" d="M12.4,9.8c-1.7,0-3.2,1.2-3.2,3.5v39.6c0,3.1,2.6,4.5,4.7,3l12.7-9.6,12.7-9.6c2.1-1.6,2.1-5.5,0-7.1l-12.7-9.6-12.7-9.6c-.5-.3-1-.5-1.5-.5Z"/>
      <path class="st12" d="M21.2,9.8c-1.7,0-3.2,1.2-3.2,3.5v39.6c0,3.1,2.6,4.5,4.7,3l12.7-9.6,12.7-9.6c2.1-1.6,2.1-5.5,0-7.1l-12.7-9.6-12.7-9.6c-.5-.3-1-.5-1.5-.5Z"/>
      <path class="st12" d="M29.9,9.8c-1.7,0-3.2,1.2-3.2,3.5v39.6c0,3.1,2.6,4.5,4.7,3l12.7-9.6,12.7-9.6c2.1-1.6,2.1-5.5,0-7.1l-12.7-9.6-12.7-9.6c-.5-.3-1-.5-1.5-.5Z"/>
      <path class="st26" d="M12.4,8.9c-1.7,0-3.2,1.2-3.2,3.5v39.6c0,3.1,2.6,4.5,4.7,3l12.7-9.6,12.7-9.6c2.1-1.6,2.1-5.5,0-7.1l-12.7-9.6-12.7-9.6c-.5-.3-1-.5-1.5-.5Z"/>
      <path class="st13" d="M12.4,8.9c-1.7,0-3.2,1.2-3.2,3.5v.8c0-2.3,1.4-3.6,3.2-3.5.5,0,1,.2,1.5.5l12.7,9.6,12.7,9.6c.9.7,1.4,1.9,1.5,3.1.1-1.5-.4-3.1-1.5-3.9l-12.7-9.6-12.7-9.6c-.5-.3-1-.5-1.5-.5Z"/>
      <path class="st25" d="M21.2,8.9c-1.7,0-3.2,1.2-3.2,3.5v39.6c0,3.1,2.6,4.5,4.7,3l12.7-9.6,12.7-9.6c2.1-1.6,2.1-5.5,0-7.1l-12.7-9.6-12.7-9.6c-.5-.3-1-.5-1.5-.5Z"/>
      <path class="st13" d="M21.2,8.9c-1.7,0-3.2,1.2-3.2,3.5v.8c0-2.3,1.4-3.6,3.2-3.5.5,0,1,.2,1.5.5l12.7,9.6,12.7,9.6c.9.7,1.4,1.9,1.5,3.1.1-1.5-.4-3.1-1.5-3.9l-12.7-9.6-12.7-9.6c-.5-.3-1-.5-1.5-.5Z"/>
      <path class="st20" d="M29.9,8.9c-1.7,0-3.2,1.2-3.2,3.5v39.6c0,3.1,2.6,4.5,4.7,3l12.7-9.6,12.7-9.6c2.1-1.6,2.1-5.5,0-7.1l-12.7-9.6-12.7-9.6c-.5-.3-1-.5-1.5-.5Z"/>
      <path class="st13" d="M29.9,8.9c-1.7,0-3.2,1.2-3.2,3.5v.8c0-2.3,1.4-3.6,3.2-3.5.5,0,1,.2,1.5.5l12.7,9.6,12.7,9.6c.9.7,1.4,1.9,1.5,3.1.1-1.5-.4-3.1-1.5-3.9l-12.7-9.6-12.7-9.6c-.5-.3-1-.5-1.5-.5Z"/>
    </g>
  </g>
  <g>
    <g>
      <path class="st12" d="M9.9,37.4c.4,6.6,6.2,11.8,13.2,11.8,6.9,0,12.6-5,13.2-11.5,0,.3,0,.5,0,.8,0,6.9-5.9,12.5-13.2,12.5h0c-7.3,0-13.2-5.6-13.2-12.5h0c0-.3,0-.6,0-1h0Z"/>
      <path class="st12" d="M32.5,42.8c.4,6.6,6.2,11.8,13.2,11.8,6.9,0,12.7-5.1,13.2-11.6,0,.3,0,.6,0,.9,0,6.9-5.9,12.5-13.2,12.5s-13.2-5.6-13.2-12.5c0-.3,0-.6,0-1h0Z"/>
      <path class="st16" d="M24,36.7s5.2-8,5.7-12.5c.5-5.5-3.8-16.1-3.8-16.1"/>
      <path class="st6" d="M23.2,7.9c.2.6.6,1.1,1.2,1.4,0,0,2.8,1.7,6.1,4,3.2,2.4,6.9,5.5,8,7.5,1.3,2.1,2.3,6.9,2.8,11,.5,4.1.6,7.5.6,7.5,0,1.5,1.3,2.7,2.9,2.6,1.3,0,2.4-.9,2.7-2.2,0,.4,0,1.1,0,1.1,0,1.5-1.2,2.7-2.8,2.7-1.6,0-2.9-1.1-2.9-2.6h0s0-3.4-.6-7.4c-.5-4.1-1.6-8.9-2.8-11-1.2-2-4.8-5.2-8-7.5-3.2-2.4-6.1-4-6.1-4-1.1-.7-1.6-2-1.2-3.2h0Z"/>
      <path class="st17" d="M44.7,40.3s-.3-13.9-3.8-19.7c-3.3-5.5-15.1-12.5-15.1-12.5"/>
      <path class="st7" d="M25.8,5.3h0c.5,0,1.1.2,1.5.5,0,0,3,1.8,6.5,4.3,3.5,2.5,7.4,5.6,9.5,9.1,2.2,3.7,3,8.7,3.5,13,.5,4.3.6,7.9.6,7.9,0,.1,0,.2,0,.4,0-.7-.1-3.5-.6-7.3-.5-4.3-1.3-9.4-3.5-13-2.1-3.5-6-6.6-9.5-9.1-3.5-2.5-6.5-4.3-6.5-4.3-.5-.3-1-.4-1.5-.4h0c-1.4,0-2.6.9-2.8,2.2-.3-1.5.8-2.8,2.3-3.1.2,0,.3,0,.5,0h0Z"/>
      <ellipse class="st24" cx="23" cy="37.6" rx="13.2" ry="12.5"/>
      <path class="st13" d="M23,25.1c7.3,0,13.2,5.6,13.2,12.5h0c0,.1,0,.3,0,.4-.3-6.7-6.1-12-13.2-12-7.1,0-12.9,5.3-13.2,12.1,0-.1,0-.3,0-.4,0-6.9,5.9-12.5,13.2-12.5h0Z"/>
      <ellipse class="st21" cx="45.7" cy="42.9" rx="13.2" ry="12.5"/>
      <path class="st13" d="M45.7,30.4c7.3,0,13.2,5.6,13.2,12.5h0c0,.1,0,.3,0,.4-.3-6.7-6.1-12-13.2-12-7.1,0-12.9,5.3-13.2,12.1,0-.1,0-.3,0-.4,0-6.9,5.9-12.5,13.2-12.5h0Z"/>
    </g>
    <path class="st6" d="M24.7,6.3l-.5.2s-3.3,1.2-7.2,3.3c-3.8,2.1-8.2,5.1-10.4,8.9-2.1,3.8-1.8,8.6-1,12.4.8,3.8,2.1,6.8,2.1,6.8l.3.6.6-.4s3.3-2,7.2-5c3.8-3,8.2-6.8,10.3-10.6,4.2-7.5-1.1-15.9-1.1-15.9l-.2-.4Z"/>
    <path class="st18" d="M24.7,5.4l-.5.2s-3.3,1.2-7.2,3.3c-3.8,2.1-8.2,5.1-10.4,8.9-2.1,3.8-1.8,8.6-1,12.4.8,3.8,2.1,6.8,2.1,6.8l.3.6.6-.4s3.3-2,7.2-5c3.8-3,8.2-6.8,10.3-10.6,4.2-7.5-1.1-15.9-1.1-15.9l-.2-.4Z"/>
    <path class="st11" d="M24.4,6.6l-10.1,16.9"/>
    <path class="st10" d="M24.7,5.4l-.5.2s-3.3,1.2-7.2,3.3c-3.8,2.1-8.2,5.1-10.4,8.9-1.3,2.4-1.7,5.1-1.6,7.8,0-2.4.4-4.8,1.6-6.9,2.1-3.8,6.5-6.8,10.4-8.9,3.8-2.1,7.2-3.3,7.2-3.3l.5-.2.2.4s2.5,3.9,2.7,8.8c0-5.3-2.7-9.7-2.7-9.7l-.2-.4Z"/>
  </g>
</svg>