<?xml version="1.0" encoding="UTF-8"?>
<svg id="_图层_1" xmlns="http://www.w3.org/2000/svg" version="1.1" viewBox="0 0 64 64" width="22" height="22">
  <!-- Generator: Adobe Illustrator 29.0.1, SVG Export Plug-In . SVG Version: 2.1.0 Build 192)  -->
  <defs>
    <style>
      .st0 {
        fill: #df574d;
      }

      .st1, .st2, .st3, .st4 {
        isolation: isolate;
      }

      .st1, .st2, .st5, .st6, .st7 {
        display: none;
      }

      .st1, .st4 {
        opacity: .2;
      }

      .st2 {
        fill: #fff;
      }

      .st2, .st3 {
        opacity: .1;
      }

      .st8 {
        fill: #302da1;
      }

      .st9 {
        fill: #79de7d;
      }

      .st5, .st10 {
        fill: #707090;
      }

      .st7 {
        fill: #4f4f4f;
      }
    </style>
  </defs>
  <path class="st10" d="M47.5,64.1H13.8c-7.6,0-13.8-6.3-13.8-13.8V13.7C0,6.2,6.2,0,13.7,0h36.6c7.5,0,13.7,6.2,13.7,13.7v36.6c0,7.5-6.2,13.7-13.7,13.7h-2.9.1Z"/>
  <g class="st6">
    <path class="st1" d="M0,31.9C0,32.3,0,32.6,0,33c0,17.7,14.3,31.9,32,31.9s32-14.2,32-31.9,0-.8,0-1.1c-.6,17.1-14.6,30.7-31.9,30.7S.7,49,0,31.9h0Z"/>
    <path class="st7" d="M32,0h0c17.7,0,32,14.3,32,31.9h0c0,17.6-14.3,31.9-32,31.9h0C14.3,63.8,0,49.5,0,31.9h0C0,14.3,14.3,0,32,0Z"/>
    <path class="st4" d="M29.7,53.5c14-3.6,35.1-17.6,13.8-36.4,9.5,12,11.5,15.9-9.2,15.9,20.1,4,2.3,12.1-6.9,13.7l2.3,6.8Z"/>
    <path class="st4" d="M34.4,12.5C20.4,16.1-.7,30.1,20.6,49c-9.5-12-11.5-15.9,9.2-15.9-20.1-4-2.3-12.1,6.9-13.7l-2.3-6.8Z"/>
    <path class="st0" d="M29.7,52.4c14-3.6,35.1-17.6,13.8-36.4,9.5,12,11.5,15.9-9.2,15.9,20.1,4,2.3,12.1-6.9,13.7l2.3,6.8Z"/>
    <path class="st9" d="M34.4,11.4C20.4,15-.7,29,20.6,47.8c-9.5-12-11.5-15.9,9.2-15.9-20.1-4-2.3-12.1,6.9-13.7l-2.3-6.8Z"/>
    <path class="st2" d="M32,0C14.3,0,0,14.2,0,31.9s0,.3,0,.4C.4,15,14.5,1.1,32,1.1s31.6,13.8,32,31.1c0-.1,0-.3,0-.4C64,14.2,49.7,0,32,0Z"/>
  </g>
  <g>
    <path class="st1" d="M19.2,1.2h25.6c10.6,0,19.2,8.6,19.2,19.1v25.5c0,10.6-8.6,19.1-19.2,19.1h-25.6c-10.6,0-19.2-8.6-19.2-19.1v-25.5C0,9.8,8.6,1.2,19.2,1.2Z"/>
    <path class="st5" d="M19.2,0h25.6c10.6,0,19.2,8.6,19.2,19.1v25.5c0,10.6-8.6,19.1-19.2,19.1h-25.6C8.6,63.9,0,55.3,0,44.7v-25.5C0,8.6,8.6,0,19.2,0Z"/>
    <path class="st3" d="M28,10.3l-.5,4.6-3.5,3,4.2,1.9,1.8,4.2,3.1-3.4,4.6-.4-2.3-4,1-4.5-4.5.9-4-2.3ZM44.9,12.6l-1.5,1.8-2.3.3,1.2,1.9-.4,2.3,2.2-.6,2,1.1v-2.3c.1,0,1.8-1.6,1.8-1.6l-2.1-.8-1-2.1ZM20.3,21.7c-2,0-4.2.2-5.6.4-10.5,2.2-4.2,10,1.5,10.6,6.9,1.6,23.3-3.1,29.9-4.2.9-.1,1.7-.2,2.2-.3,2.7-.2,5.3.6,5.8.7.1,0,1.1.5.5-.6-.4-.8-4.7-3.5-7.5-4.1-2.2-.7-4.5-1.6-6.9-1.5-3,.2-7,3.8-5.3,3.8,1.7,0,3.8-1.6,5.7-1.5,1.4,0,4.7.4,4.1,1.4-.7.8-10.7,1.7-18.4,1.4-4.6-.2-9.7-2.3-7.8-3.7,2.3-1.7,6.3-1.5,5.9-1.9-.4-.4-2.1-.6-4.1-.6ZM43.8,30.4c-6.5.7-13.2,3.5-22.8,3.9.4,6.3-1,11.9-2.6,16-.6,2.5,3.2,4.2,8.1,5.2,8.2,1.6,18.8-1.8,19.3-4.6-.1-1.7-3.9-11.2-2-20.5Z"/>
    <path class="st8" d="M26.4,54.3c-4.9-1-8.7-2.7-8.1-5.2,1.6-4.1,3-9.7,2.6-16,9.6-.4,16.3-3.2,22.8-3.9-2,9.4,1.8,18.8,2,20.5-.5,2.8-11.1,6.2-19.3,4.6Z"/>
    <path class="st8" d="M37.7,19l-4.6.4-3.1,3.4-1.8-4.2-4.2-1.9,3.5-3,.5-4.6,4,2.3,4.5-.9-1,4.5,2.3,4Z"/>
    <path class="st8" d="M48,14.4l-1.6,1.6v2.3c-.1,0-2.2-1.1-2.2-1.1l-2.2.6.4-2.3-1.2-1.9,2.3-.3,1.5-1.8,1,2.1,2.1.8Z"/>
    <path class="st8" d="M20.3,20.6c-2,0-4.2.2-5.6.4-10.5,2.2-4.2,10,1.5,10.6,6.9,1.6,23.3-3.1,29.9-4.2.9-.1,1.7-.3,2.2-.3,2.7-.2,5.3.6,5.8.7.1,0,1.1.5.5-.6-.4-.8-4.7-3.5-7.5-4.1-2.2-.7-4.5-1.6-6.9-1.5-3,.2-7,3.8-5.3,3.8,1.7,0,3.8-1.6,5.7-1.5,1.4,0,4.7.4,4.1,1.4-.7.8-10.7,1.7-18.4,1.4-4.6-.2-9.7-2.3-7.8-3.7,2.3-1.7,6.3-1.5,5.9-1.9-.4-.4-2.1-.6-4.1-.6Z"/>
    <path class="st2" d="M19.2,0C8.6,0,0,8.6,0,19.2v1.1C0,9.7,8.6,1.2,19.2,1.2h25.6c10.6,0,19.2,8.5,19.2,19.1v-1.1C64,8.6,55.4,0,44.8,0h-25.6Z"/>
  </g>
</svg>