<?xml version="1.0" encoding="UTF-8"?>
<svg id="_图层_1" xmlns="http://www.w3.org/2000/svg" version="1.1" viewBox="0 0 64 64" width="22" height="22">
  <!-- Generator: Adobe Illustrator 29.0.1, SVG Export Plug-In . SVG Version: 2.1.0 Build 192)  -->
  <defs>
    <style>
      .st0, .st1, .st2, .st3, .st4 {
        isolation: isolate;
      }

      .st0, .st1, .st5, .st6 {
        display: none;
      }

      .st0, .st3 {
        opacity: .2;
      }

      .st1, .st4 {
        fill: #fff;
        opacity: .1;
      }

      .st7 {
        fill: #689f38;
      }

      .st8 {
        fill: #636e73;
      }

      .st2 {
        opacity: .2;
      }

      .st6, .st9 {
        fill: #e4e4e4;
      }

      .st10 {
        opacity: .8;
      }
    </style>
  </defs>
  <path class="st9" d="M50.3,64H13.8c-7.6,0-13.8-6.2-13.8-13.7V13.7C0,6.2,6.2,0,13.7,0h36.5c7.5,0,13.7,6.2,13.7,13.7v36.6c0,7.5-6.2,13.7-13.7,13.7h0Z"/>
  <g class="st5">
    <path class="st3" d="M13.3,54.9v1.9c0,1.6,1.3,2.8,2.8,2.8h35.7c1.6,0,2.8-1.3,2.8-2.8v-1.9c0,1.6-1.3,2.8-2.8,2.8H16.1c-1.6,0-2.8-1.3-2.8-2.8Z"/>
    <path class="st9" d="M54.7,55.9V8.9c0-1.6-1.3-2.8-2.8-2.8H16.1c-1.6,0-2.8,1.3-2.8,2.8v47c0,1.6,1.3,2.8,2.8,2.8h35.7c1.6,0,2.8-1.3,2.8-2.8Z"/>
    <path class="st4" d="M16.1,6.1c-1.6,0-2.8,1.3-2.8,2.8v.9c0-1.6,1.3-2.8,2.8-2.8h35.7c1.6,0,2.8,1.3,2.8,2.8v-.9c0-1.6-1.3-2.8-2.8-2.8H16.1Z"/>
    <path class="st3" d="M7.6,10.8v41.3c0,3.8,3.8,3.8,3.8,3.8h48.9L7.6,10.8ZM17.1,31.2l17.8,15.3h-17.8v-15.3Z"/>
    <path class="st7" d="M7.6,9.9v41.3c0,3.8,3.8,3.8,3.8,3.8h48.9L7.6,9.9ZM17.1,30.3l17.8,15.3h-17.8v-15.3Z"/>
  </g>
  <g>
    <path class="st0" d="M0,58.7v2.7c0,2.2,1.5,4,3.4,4h57.4c1.9,0,3.4-1.8,3.4-4v-2.7c0,2.2-1.5,4-3.4,4H3.4c-1.9,0-3.4-1.8-3.4-4Z"/>
    <path class="st6" d="M0,10.6v49.4c0,2.2,1.5,4,3.4,4h57.4c1.9,0,3.4-1.8,3.4-4V10.6H0Z"/>
    <path class="st8" d="M63.9,10.6h0c-.2-2.3-2.3-10.3-13.3-10.7H13.7C5.6-.1,0,5.2,0,10.6h63.9Z"/>
    <path class="st2" d="M64.3,50.1V10.6h-32.2v53.4h18.1c7.9,0,13.7-7.3,14.1-13.9Z"/>
    <path class="st1" d="M3.4-.1C1.5-.1,0,1.7,0,3.9v1.3C0,3,1.5,1.2,3.4,1.2h57.4c1.9,0,3.4,1.8,3.4,4v-1.3c0-2.2-1.5-4-3.4-4H3.4Z"/>
    <g>
      <path class="st8" d="M9.2,18.6v1.3h2.3v4h-6.9v-5.3h4.6Z"/>
      <path class="st8" d="M9.2,29.3v1.3h2.3v4h-6.9v-5.3h4.6Z"/>
      <path class="st8" d="M9.2,40v1.3h2.3v4h-6.9v-5.3h4.6Z"/>
    </g>
    <g class="st10">
      <path class="st8" d="M41.3,18.6v1.3h2.3v4h-6.9v-5.3h4.6Z"/>
      <path class="st8" d="M41.3,29.3v1.3h2.3v4h-6.9v-5.3h4.6Z"/>
      <path class="st8" d="M41.3,40v1.3h2.3v4h-6.9v-5.3h4.6Z"/>
    </g>
  </g>
</svg>