<?xml version="1.0" encoding="UTF-8"?>
<svg id="_图层_1" xmlns="http://www.w3.org/2000/svg" version="1.1" viewBox="0 0 64 64" width="22" height="22">
  <!-- Generator: Adobe Illustrator 29.0.1, SVG Export Plug-In . SVG Version: 2.1.0 Build 192)  -->
  <defs>
    <style>
      .st0 {
        fill: #fff;
      }

      .st1 {
        fill: #a45390;
      }

      .st2 {
        isolation: isolate;
        opacity: .2;
      }

      .st3 {
        display: none;
      }

      .st4 {
        fill: #6db832;
      }

      .st5 {
        fill: #c2352a;
      }

      .st6 {
        fill: #4987d7;
      }
    </style>
  </defs>
  <path class="st3" d="M50.3,64H13.8c-7.6,0-13.8-6.2-13.8-13.7V13.7C0,6.2,6.2,0,13.7,0h36.5c7.5,0,13.7,6.2,13.7,13.7v36.6c0,7.5-6.2,13.7-13.7,13.7h0Z"/>
  <g>
    <path class="st6" d="M12.5.1c-5.3-.1-7.6,3.4-8.2,3.9l27.7,27.9L59.8,4c-.6-.6-3.2-3.8-8.9-4.1C50.9,0,12.5.1,12.5.1Z"/>
    <path class="st1" d="M13.3,63.9c-4.8,0-8.6-3.4-9.2-3.9l28-28,27.8,27.8c-.7.9-4.7,4.2-9.1,4.2H13.3Z"/>
    <path class="st4" d="M63.8,12.7c.3,0-.3-4.3-4-8.8l-27.8,28,27.8,27.8c.6-.6,4.1-2.6,4.3-10.4l-.3-36.7h0Z"/>
    <path class="st5" d="M-.1,12.6C-.1,8.4,3.8,4.6,4.3,4l28.3,28.1L4,60.1c-.6-.6-4.1-4.4-4.1-9.3V12.5h0Z"/>
    <path class="st2" d="M34.9,5.6c-1.4,0-2.5.2-3.6.5-1,.3-1.9.8-2.6,1.3-.7.6-1.3,1.2-1.8,2s-.8,1.3-1.1,2.1c-.3.9-.5,1.8-.6,2.8s-.2,1.9-.2,2.9h0c0,1.5.2,2.9.5,4,.4,1.1.9,2,1.5,2.8.7.7,1.4,1.3,2.3,1.7.9.4,1.8.5,2.8.5s2-.2,2.8-.5,1.5-.8,2.1-1.4,1-1.4,1.3-2.2c.3-.9.5-1.9.5-3s0-2-.4-2.8c-.3-.8-.6-1.6-1.1-2.1-.5-.6-1.1-1-1.8-1.3s-1.5-.4-2.4-.4-1.1,0-1.5.2c-.4,0-.8.3-1.2.5-.4.2-.7.6-.9.9-.3.3-.5.6-.7.9h-.2c0-1,.2-1.8.4-2.6.2-.8.5-1.1,1-1.7.5-.6,1.1-1,1.9-1.3.8-.3,1.8-.5,3.1-.5s.8,0,1.2,0,.8,0,1.1.2v-3.5h-2.6s.2,0,.2,0ZM32.3,16c.8,0,1.5.3,1.9.9s.6,1.4.6,2.4,0,1.1-.2,1.6c0,.4-.3.8-.5,1.1-.2.3-.5.5-.8.7-.3,0-.7.2-1,.2s-.9,0-1.2-.4c-.3-.2-.6-.5-.9-.9-.2-.4-.4-.8-.5-1.3s-.2-1-.2-1.4,0-.7.2-1c0-.3.3-.6.6-.9.3-.3.6-.5.9-.7.4-.2.7-.3,1.2-.3h0ZM46.9,24v10.3l1,.9c.2,0,.4,0,.6-.2.2,0,.5,0,.8-.2h1.6c1.3,0,2.3.3,3,.8.6.5,1,1.3,1,2.3s-.3,2-1,2.5-1.6.8-2.9.8-.9,0-1.3,0-.9-.2-1.4-.3-.9-.3-1.3-.4c-.4-.2-.8-.3-1.1-.5v3.7c.3.2.7.3,1.1.5.4,0,.9.3,1.3.3s1,.2,1.5.2h1.5c1.3,0,2.4-.2,3.4-.5s1.8-.8,2.5-1.4c.7-.6,1.2-1.4,1.5-2.2.3-.9.5-1.9.5-3s-.2-1.9-.5-2.7-.8-1.4-1.3-2c-.6-.5-1.2-.9-2-1.2-.8-.3-1.6-.4-2.5-.4h-1.5c-.4,0-.7,0-1,.2l.3-4.1h6.5v-3.4h-10.3,0ZM11.5,24.1c-.8,0-1.6,0-2.2.3-.7.2-1.3.4-1.8.6-.6.3-1.1.6-1.5.9-.5.3-.9.5-1.3.9l2.4,2.8c.7-.7,1.5-1.2,2.1-1.6.7-.4,1.4-.5,2.1-.5s1.3.2,1.7.6.6.9.6,1.6,0,1.2-.3,1.7c-.2.5-.5,1.1-.8,1.6-.4.5-.8,1.1-1.3,1.6-.5.6-1,1.2-1.7,1.8l-4.8,5.4v2.8h13.7v-3.4h-8.3v-.2l2.5-2.7c.7-.7,1.4-1.4,2-2.1.6-.7,1.2-1.4,1.7-2.1.5-.7.9-1.4,1.1-2.2.3-.7.4-1.5.4-2.3s0-1.7-.4-2.4c-.3-.7-.7-1.1-1.3-1.6-.6-.5-1.2-.9-2-1.2-.8-.3-1.7-.4-2.6-.4h0ZM25.1,42.4v3.2h9.4l-7.3,17.2h4.5l7.1-17.7v-2.7h-13.8.1Z"/>
    <path class="st0" d="M34.9,4.5c-1.4,0-2.5.2-3.6.5-1,.3-1.9.8-2.6,1.3-.7.6-1.3,1.2-1.8,2s-.8,1.3-1.1,2.1c-.3.9-.5,1.8-.6,2.8s-.2,1.9-.2,2.9h0c0,1.5.2,2.9.5,4,.4,1.1.9,2,1.5,2.8.7.7,1.4,1.3,2.3,1.7.9.4,1.8.5,2.8.5s2-.2,2.8-.5,1.5-.8,2.1-1.4,1-1.4,1.3-2.2c.3-.9.5-1.9.5-3s0-2-.4-2.8c-.3-.8-.6-1.6-1.1-2.1-.5-.6-1.1-1-1.8-1.3s-1.5-.4-2.4-.4-1.1,0-1.5.2c-.4,0-.8.3-1.2.5-.4.2-.7.6-.9.9-.3.3-.5.6-.7.9h-.2c0-1,.2-1.8.4-2.6.2-.8.5-1.1,1-1.7.5-.6,1.1-1,1.9-1.3.8-.3,1.8-.5,3.1-.5s.8,0,1.2,0,.8,0,1.1.2v-3.5h-2.6s.2,0,.2,0ZM32.3,14.9c.8,0,1.5.3,1.9.9.4.6.6,1.4.6,2.4s0,1.1-.2,1.6c0,.4-.3.8-.5,1.1-.2.3-.5.5-.8.7-.3,0-.7.2-1,.2s-.9,0-1.2-.4c-.3-.2-.6-.5-.9-.9-.2-.4-.4-.8-.5-1.3s-.2-1-.2-1.4,0-.7.2-1c0-.3.3-.6.6-.9.3-.3.6-.5.9-.7.4-.2.7-.3,1.2-.3h0ZM46.9,22.8v10.3l1,.9c.2,0,.4,0,.6-.2.2,0,.5,0,.8-.2h1.6c1.3,0,2.3.3,3,.8.6.5,1,1.3,1,2.3s-.3,2-1,2.5-1.6.8-2.9.8-.9,0-1.3,0-.9-.2-1.4-.3-.9-.3-1.3-.4c-.4-.2-.8-.3-1.1-.5v3.7c.3.2.7.3,1.1.5.4,0,.9.3,1.3.3s1,.2,1.5.2h1.5c1.3,0,2.4-.2,3.4-.5s1.8-.8,2.5-1.4c.7-.6,1.2-1.4,1.5-2.2.3-.9.5-1.9.5-3s-.2-1.9-.5-2.7-.8-1.4-1.3-2c-.6-.5-1.2-.9-2-1.2-.8-.3-1.6-.4-2.5-.4h-1.5c-.4,0-.7,0-1,.2l.3-4.1h6.5v-3.4h-10.3,0ZM11.5,22.9c-.8,0-1.6,0-2.2.3-.7.2-1.3.4-1.8.6-.6.3-1.1.6-1.5.9-.5.3-.9.5-1.3.9l2.4,2.8c.7-.7,1.5-1.2,2.1-1.6.7-.4,1.4-.5,2.1-.5s1.3.2,1.7.6.6.9.6,1.6,0,1.2-.3,1.7c-.2.5-.5,1.1-.8,1.6-.4.5-.8,1.1-1.3,1.6-.5.6-1,1.2-1.7,1.8l-4.8,5.4v2.8h13.7v-3.4h-8.3v-.2l2.5-2.7c.7-.7,1.4-1.4,2-2.1.6-.7,1.2-1.4,1.7-2.1.5-.7.9-1.4,1.1-2.2.3-.7.4-1.5.4-2.3s0-1.7-.4-2.4c-.3-.7-.7-1.1-1.3-1.6-.6-.5-1.2-.9-2-1.2-.8-.3-1.7-.4-2.6-.4h0ZM25.1,41.3v3.2h9.4l-7.3,17.2h4.5l7.1-17.7v-2.7h-13.8.1Z"/>
  </g>
</svg>