<?xml version="1.0" encoding="UTF-8"?>
<svg id="_图层_1" xmlns="http://www.w3.org/2000/svg" version="1.1" viewBox="0 0 64 64" width="22" height="22">
  <!-- Generator: Adobe Illustrator 29.0.1, SVG Export Plug-In . SVG Version: 2.1.0 Build 192)  -->
  <defs>
    <style>
      .st0 {
        fill: #ff5100;
      }

      .st1, .st2, .st3, .st4, .st5, .st6 {
        display: none;
      }

      .st1, .st7 {
        fill: #ffc543;
      }

      .st2, .st3, .st8, .st9, .st10, .st11, .st5 {
        isolation: isolate;
      }

      .st2, .st10, .st11, .st5 {
        opacity: .2;
      }

      .st3, .st12, .st8, .st11, .st5 {
        fill: #fff;
      }

      .st3, .st9 {
        opacity: .1;
      }

      .st13 {
        fill: #848484;
      }

      .st14 {
        fill: #4d4d4d;
      }

      .st15 {
        fill: #7cc327;
      }

      .st16 {
        fill: #27adc3;
      }

      .st8 {
        opacity: .4;
      }

      .st17 {
        fill: #234fa7;
      }

      .st18 {
        fill: #a45390;
      }

      .st19 {
        fill: #2eac43;
      }

      .st20 {
        fill: #6db832;
      }

      .st21 {
        fill: #c2352a;
      }

      .st22 {
        fill: #4987d7;
      }

      .st23 {
        fill: #e4e4e4;
      }

      .st24 {
        fill: #ffcf3f;
      }

      .st6 {
        fill: #fadd00;
      }
    </style>
  </defs>
  <path class="st7" d="M50.3,64H13.8c-7.6,0-13.8-6.2-13.8-13.7V13.7C0,6.2,6.2,0,13.7,0h36.5c7.5,0,13.7,6.2,13.7,13.7v36.6c0,7.5-6.2,13.7-13.7,13.7h0Z"/>
  <g class="st4">
    <path class="st2" d="M0,59.5v2.3c0,1.9,1.5,3.4,3.4,3.4h57.4c1.9,0,3.4-1.5,3.4-3.4v-2.3c0,1.9-1.5,3.4-3.4,3.4H3.4c-1.9,0-3.4-1.5-3.4-3.4Z"/>
    <path class="st22" d="M3.2-.1C2.3-.1,1.5.3.9.8l31.2,31.2L63.3.8c-.6-.6-1.4-.9-2.3-.9,0,0-57.8,0-57.8,0Z"/>
    <path class="st18" d="M3.2,64.1c-.9,0-1.7-.4-2.3-.9l31.2-31.2,31.2,31.2c-.6.6-1.4.9-2.3.9H3.2Z"/>
    <path class="st20" d="M64.2,3.1c0-.9-.4-1.7-.9-2.3l-31.2,31.2,31.2,31.2c.6-.6.9-1.4.9-2.3V3.1h0Z"/>
    <path class="st21" d="M0,3.1c0-.9.4-1.7.9-2.3l31.2,31.2L.9,63.2c-.6-.6-.9-1.4-.9-2.3V3.1h0Z"/>
    <path class="st10" d="M35,5.6c-1.4,0-2.5.2-3.6.5-1,.3-1.9.8-2.6,1.3-.7.6-1.3,1.2-1.8,2s-.8,1.3-1.1,2.1c-.3.9-.5,1.8-.6,2.8s-.2,1.9-.2,2.9h0c0,1.5.2,2.9.5,4,.4,1.1.9,2,1.5,2.8.7.7,1.4,1.3,2.3,1.7.9.4,1.8.5,2.8.5s2-.2,2.8-.5,1.5-.8,2.1-1.4,1-1.4,1.3-2.2c.3-.9.5-1.9.5-3s0-2-.4-2.8c-.3-.8-.6-1.6-1.1-2.1-.5-.6-1.1-1-1.8-1.3s-1.5-.4-2.4-.4-1.1,0-1.5.2c-.4.1-.8.3-1.2.5-.4.2-.7.6-.9.9-.3.3-.5.6-.7.9h-.2c0-1,.2-1.8.4-2.6.2-.8.5-1.1,1-1.7.5-.6,1.1-1,1.9-1.3.8-.3,1.8-.5,3.1-.5s.8,0,1.2,0,.8.1,1.1.2v-3.5h-2.6s.2,0,.2,0ZM32.4,16c.8,0,1.5.3,1.9.9s.6,1.4.6,2.4,0,1.1-.2,1.6c0,.4-.3.8-.5,1.1-.2.3-.5.5-.8.7-.3.1-.7.2-1,.2s-.9-.1-1.2-.4c-.3-.2-.6-.5-.9-.9-.2-.4-.4-.8-.5-1.3s-.2-1-.2-1.4,0-.7.2-1c.1-.3.3-.6.6-.9.3-.3.6-.5.9-.7.4-.2.7-.3,1.2-.3h0ZM47,24v10.3l1,.9c.2,0,.4,0,.6-.2.2,0,.5,0,.8-.2h1.6c1.3,0,2.3.3,3,.8.6.5,1,1.3,1,2.3s-.3,2-1,2.5-1.6.8-2.9.8-.9,0-1.3,0-.9-.2-1.4-.3-.9-.3-1.3-.4c-.4-.2-.8-.3-1.1-.5v3.7c.3.2.7.3,1.1.5.4,0,.9.3,1.3.3s1,.2,1.5.2h1.5c1.3,0,2.4-.2,3.4-.5s1.8-.8,2.5-1.4c.7-.6,1.2-1.4,1.5-2.2.3-.9.5-1.9.5-3s-.2-1.9-.5-2.7-.8-1.4-1.3-2c-.6-.5-1.2-.9-2-1.2-.8-.3-1.6-.4-2.5-.4h0c-.6,0-1.1,0-1.5.1-.4,0-.7.1-1,.2l.3-4.1h6.5v-3.4h-10.3,0ZM11.5,24.1c-.8,0-1.6,0-2.2.3-.7.2-1.3.4-1.8.6-.6.3-1.1.6-1.5.9-.5.3-.9.5-1.3.9l2.4,2.8c.7-.7,1.5-1.2,2.1-1.6.7-.4,1.4-.5,2.1-.5s1.3.2,1.7.6.6.9.6,1.6,0,1.2-.3,1.7c-.2.5-.5,1.1-.8,1.6-.4.5-.8,1.1-1.3,1.6-.5.6-1,1.2-1.7,1.8l-4.8,5.4v2.8h13.7v-3.4h-8.3v-.2l2.5-2.7c.7-.7,1.4-1.4,2-2.1.6-.7,1.2-1.4,1.7-2.1.5-.7.9-1.4,1.1-2.2.3-.7.4-1.5.4-2.3s-.1-1.7-.4-2.4c-.3-.7-.7-1.1-1.3-1.6-.6-.5-1.2-.9-2-1.2-.8-.3-1.7-.4-2.6-.4h0ZM25.2,42.5v3.2h9.4l-7.3,17.2h4.5l7.1-17.7v-2.7h-13.8.1Z"/>
    <path class="st12" d="M35,4.5c-1.4,0-2.5.2-3.6.5-1,.3-1.9.8-2.6,1.3-.7.6-1.3,1.2-1.8,2s-.8,1.3-1.1,2.1c-.3.9-.5,1.8-.6,2.8s-.2,1.9-.2,2.9h0c0,1.5.2,2.9.5,4,.4,1.1.9,2,1.5,2.8.7.7,1.4,1.3,2.3,1.7.9.4,1.8.5,2.8.5s2-.2,2.8-.5,1.5-.8,2.1-1.4,1-1.4,1.3-2.2c.3-.9.5-1.9.5-3s0-2-.4-2.8c-.3-.8-.6-1.6-1.1-2.1-.5-.6-1.1-1-1.8-1.3s-1.5-.4-2.4-.4-1.1,0-1.5.2c-.4.1-.8.3-1.2.5-.4.2-.7.6-.9.9-.3.3-.5.6-.7.9h-.2c0-1,.2-1.8.4-2.6.2-.8.5-1.1,1-1.7.5-.6,1.1-1,1.9-1.3.8-.3,1.8-.5,3.1-.5s.8,0,1.2,0,.8,0,1.1.2v-3.5h-2.6s.2,0,.2,0ZM32.4,14.9c.8,0,1.5.3,1.9.9.4.6.6,1.4.6,2.4s0,1.1-.2,1.6c0,.4-.3.8-.5,1.1-.2.3-.5.5-.8.7-.3.1-.7.2-1,.2s-.9-.1-1.2-.4c-.3-.2-.6-.5-.9-.9-.2-.4-.4-.8-.5-1.3s-.2-1-.2-1.4,0-.7.2-1c.1-.3.3-.6.6-.9.3-.3.6-.5.9-.7.4-.2.7-.3,1.2-.3h0ZM47,22.8v10.3l1,.9c.2,0,.4,0,.6-.2.2,0,.5,0,.8-.2h1.6c1.3,0,2.3.3,3,.8.6.5,1,1.3,1,2.3s-.3,2-1,2.5-1.6.8-2.9.8-.9,0-1.3,0-.9-.2-1.4-.3-.9-.3-1.3-.4c-.4-.2-.8-.3-1.1-.5v3.7c.3.2.7.3,1.1.5.4,0,.9.3,1.3.3s1,.2,1.5.2h1.5c1.3,0,2.4-.2,3.4-.5s1.8-.8,2.5-1.4c.7-.6,1.2-1.4,1.5-2.2.3-.9.5-1.9.5-3s-.2-1.9-.5-2.7-.8-1.4-1.3-2c-.6-.5-1.2-.9-2-1.2-.8-.3-1.6-.4-2.5-.4h0c-.6,0-1.1,0-1.5.1-.4,0-.7.1-1,.2l.3-4.1h6.5v-3.4h-10.3,0ZM11.5,22.9c-.8,0-1.6,0-2.2.3-.7.2-1.3.4-1.8.6-.6.3-1.1.6-1.5.9-.5.3-.9.5-1.3.9l2.4,2.8c.7-.7,1.5-1.2,2.1-1.6.7-.4,1.4-.5,2.1-.5s1.3.2,1.7.6.6.9.6,1.6,0,1.2-.3,1.7c-.2.5-.5,1.1-.8,1.6-.4.5-.8,1.1-1.3,1.6-.5.6-1,1.2-1.7,1.8l-4.8,5.4v2.8h13.7v-3.4h-8.3v-.2l2.5-2.7c.7-.7,1.4-1.4,2-2.1.6-.7,1.2-1.4,1.7-2.1.5-.7.9-1.4,1.1-2.2.3-.7.4-1.5.4-2.3s-.1-1.7-.4-2.4c-.3-.7-.7-1.1-1.3-1.6-.6-.5-1.2-.9-2-1.2-.8-.3-1.7-.4-2.6-.4h0ZM25.2,41.4v3.2h9.4l-7.3,17.2h4.5l7.1-17.7v-2.7h-13.8.1Z"/>
    <path class="st3" d="M3.4-.1C1.5-.1,0,1.4,0,3.3v1.1C0,2.6,1.5,1,3.4,1h57.4c1.9,0,3.4,1.5,3.4,3.4v-1.1c0-1.9-1.5-3.4-3.4-3.4,0,0-57.4,0-57.4,0Z"/>
  </g>
  <g class="st4">
    <path class="st10" d="M53.5,15.1c-.1,1.5-.6,3.1-1.4,4.5-3,5.3-9.7,7.1-15,4.1-3.2-1.8-5.2-5.1-5.5-8.5-.4,4.2,1.6,8.3,5.5,10.5,5.3,3,12,1.2,15-4.1,1.2-2,1.6-4.3,1.4-6.5ZM9.6,18c-.4,3.1,1,6.4,3.9,8,3.8,2.2,8.7.9,10.9-3,.9-1.5,1.2-3.3,1-4.9-.1,1-.4,2-1,2.9-2.2,3.8-7.1,5.2-10.9,3-2.3-1.3-3.7-3.6-3.9-6ZM5.6,35.1c-.4,2.8.8,5.6,3.4,7.1,3.4,1.9,7.6.8,9.5-2.6.8-1.4,1-3,.8-4.4-.1.8-.4,1.7-.8,2.4-1.9,3.4-6.2,4.5-9.5,2.6-2-1.1-3.1-3-3.4-5.1ZM41.6,36c-.4,3.1,1,6.4,3.9,8,3.8,2.2,8.7.9,10.9-3,.9-1.5,1.2-3.3,1-4.9-.1,1-.4,2-1,2.9-2.2,3.8-7.1,5.2-10.9,3-2.3-1.3-3.7-3.6-3.9-6ZM45.4,49c-.1.7-.3,1.5-.6,2.2-1.7,3.5-5.9,4.9-9.4,3.1-2.1-1.1-3.4-3-3.8-5.2-.4,2.9,1,5.8,3.8,7.2,3.5,1.7,7.7.3,9.4-3.1.7-1.3.9-2.8.6-4.2ZM13.6,50.1c-.4,2.4.7,4.9,2.9,6.2,2.9,1.6,6.5.6,8.2-2.2.7-1.2.9-2.6.7-4-.1.7-.3,1.3-.7,2-1.6,2.9-5.3,3.9-8.2,2.2-1.6-.9-2.6-2.5-2.9-4.2Z"/>
    <path class="st24" d="M22.5,44.9c2.9,1.6,3.9,5.3,2.2,8.2-1.6,2.9-5.3,3.9-8.2,2.2-2.9-1.6-3.9-5.3-2.2-8.2,1.6-2.9,5.3-3.9,8.2-2.2Z"/>
    <path class="st15" d="M16,29c3.4,1.9,4.5,6.2,2.6,9.5-1.9,3.4-6.2,4.5-9.5,2.6-3.4-1.9-4.5-6.2-2.6-9.5,1.9-3.4,6.2-4.5,9.5-2.6h0Z"/>
    <path class="st16" d="M21.5,11.2c3.8,2.2,5.2,7.1,3,10.9-2.2,3.8-7.1,5.2-10.9,3-3.8-2.2-5.2-7.1-3-10.9,2.2-3.8,7.1-5.2,10.9-3Z"/>
    <path class="st24" d="M48,5.6c5.3,3,7.1,9.7,4.1,15-3,5.3-9.7,7.1-15,4.1-5.3-3-7.1-9.7-4.1-15,3-5.3,9.7-7.1,15-4.1Z"/>
    <path class="st15" d="M53.5,29.2c3.8,2.2,5.2,7.1,3,10.9-2.2,3.8-7.1,5.2-10.9,3-3.8-2.2-5.2-7.1-3-10.9,2.2-3.8,7.1-5.2,10.9-3Z"/>
    <path class="st16" d="M41.7,42.8c3.5,1.7,4.9,5.9,3.1,9.4-1.7,3.5-5.9,4.9-9.4,3.1-3.5-1.7-4.9-5.9-3.1-9.4,1.7-3.5,5.9-4.9,9.4-3.1Z"/>
    <path class="st11" d="M42.8,4.1c-3.9,0-7.7,1.9-9.8,5.5-1.1,1.9-1.5,3.9-1.4,5.9,0-1.7.5-3.3,1.4-4.9,2.1-3.6,5.9-5.6,9.8-5.5,1.8,0,3.6.5,5.2,1.4,3.4,1.9,5.3,5.4,5.5,9,.2-4-1.8-7.9-5.5-10-1.6-.9-3.4-1.4-5.2-1.4ZM18.1,10.1c-.4,0-.8,0-1.2,0-2.6.2-5,1.6-6.4,4-.8,1.4-1.1,2.9-1,4.4,0-1.2.4-2.3,1-3.4,1.4-2.4,3.8-3.8,6.4-4,.4,0,.8,0,1.2,0,1.2,0,2.3.4,3.4,1,2.4,1.4,3.8,3.8,4,6.4.2-2.9-1.3-5.9-4-7.4-1.1-.6-2.2-1-3.4-1ZM13,28.1c-.3,0-.7,0-1,0-2.2.2-4.4,1.4-5.6,3.5-.7,1.2-1,2.6-.9,3.9,0-1,.3-2,.9-2.9,1.2-2.1,3.3-3.3,5.6-3.5.3,0,.7,0,1,0,1,0,2,.4,3,.9,2.1,1.2,3.3,3.3,3.5,5.6.2-2.6-1.1-5.2-3.5-6.6-.9-.5-2-.8-3-.9ZM50.1,28.1c-.4,0-.8,0-1.2,0-2.6.2-5,1.6-6.4,4-.8,1.4-1.1,2.9-1,4.4,0-1.1.4-2.3,1-3.4,1.4-2.4,3.8-3.8,6.4-4,.4,0,.8,0,1.2,0,1.2,0,2.3.4,3.4,1,2.4,1.4,3.8,3.8,4,6.4.2-2.9-1.3-5.9-4-7.4-1.1-.6-2.2-1-3.4-1ZM39,42.1c-2.7-.2-5.4,1.3-6.7,3.8-.6,1.2-.8,2.4-.7,3.6,0-.9.3-1.8.7-2.6,1.3-2.6,4-4,6.7-3.8.9,0,1.8.3,2.7.7,2.3,1.1,3.6,3.4,3.8,5.7.2-2.7-1.2-5.4-3.8-6.7-.9-.4-1.8-.7-2.7-.7ZM19.1,44.1c-1.9.1-3.7,1.2-4.8,3-.6,1.1-.8,2.3-.7,3.4,0-.8.3-1.7.7-2.4,1-1.8,2.8-2.9,4.8-3,1.2,0,2.3.2,3.4.8,1.8,1,2.8,2.8,3,4.7.2-2.2-.9-4.5-3-5.7-1.1-.6-2.3-.9-3.4-.8Z"/>
  </g>
  <g class="st4">
    <path class="st2" d="M62.4,60.2V6.2c0-1.7-1.3-3-3-3H5.1c-1.7,0-3,1.3-3,3v54c0,1.7,1.3,3,3,3h54.2c1.7,0,3-1.3,3-3Z"/>
    <path class="st6" d="M62.4,59.2V5.2c0-1.7-1.3-3-3-3H5.1c-1.7,0-3,1.3-3,3v54c0,1.7,1.3,3,3,3h54.2c1.7,0,3-1.3,3-3Z"/>
    <path class="st9" d="M6.3,7.4v4.1h4.2v-4.1h-4.2ZM12.5,7.4v4.1h4.2v-4.1h-4.2ZM18.7,7.4v4.1h4.2v-4.1h-4.2ZM25,7.4v4.1h4.2v-4.1h-4.2ZM31.2,7.4v4.1h4.2v-4.1h-4.2ZM37.4,7.4v4.1h4.2v-4.1h-4.2ZM47.8,7.4v4.1h4.2v-4.1h-4.2ZM54.1,7.4v4.1h4.2v-4.1h-4.2ZM6.3,13.6v4.1h4.2v-4.1h-4.2ZM12.5,13.6v4.1h4.2v-4.1h-4.2ZM18.7,13.6v4.1h4.2v-4.1h-4.2ZM25,13.6v4.1h4.2v-4.1h-4.2ZM31.2,13.6v4.1h4.2v-4.1h-4.2ZM37.4,13.6v4.1h4.2v-4.1h-4.2ZM47.8,13.6v4.1h4.2v-4.1h-4.2ZM54.1,13.6v4.1h4.2v-4.1h-4.2ZM47.8,19.8v4.1h4.2v-4.1h-4.2ZM54.1,19.8v4.1h4.2v-4.1h-4.2ZM6.3,23.9v4.1h4.2v-4.1h-4.2ZM12.5,23.9v4.1h4.2v-4.1h-4.2ZM47.8,26v4.1h4.2v-4.1h-4.2ZM54.1,26v4.1h4.2v-4.1h-4.2ZM6.3,30.1v4.1h4.2v-4.1h-4.2ZM12.5,30.1v4.1h4.2v-4.1h-4.2ZM47.8,32.2v4.1h4.2v-4.1h-4.2ZM54.1,32.2v4.1h4.2v-4.1h-4.2ZM6.3,36.3v4.1h4.2v-4.1h-4.2ZM12.5,36.3v4.1h4.2v-4.1h-4.2ZM47.8,38.4v4.1h4.2v-4.1h-4.2ZM54.1,38.4v4.1h4.2v-4.1h-4.2ZM6.3,42.5v4.1h4.2v-4.1h-4.2ZM12.5,42.5v4.1h4.2v-4.1h-4.2ZM6.3,48.7v4.1h4.2v-4.1h-4.2ZM12.5,48.7v4.1h4.2v-4.1h-4.2ZM22.9,48.7v4.1h4.2v-4.1h-4.2ZM29.1,48.7v4.1h4.2v-4.1h-4.2ZM35.4,48.7v4.1h4.2v-4.1h-4.2ZM41.6,48.7v4.1h4.2v-4.1h-4.2ZM47.8,48.7v4.1h4.2v-4.1h-4.2ZM54.1,48.7v4.1h4.2v-4.1h-4.2ZM6.3,54.9v4.1h4.2v-4.1h-4.2ZM12.5,54.9v4.1h4.2v-4.1h-4.2ZM22.9,54.9v4.1h4.2v-4.1h-4.2ZM29.1,54.9v4.1h4.2v-4.1h-4.2ZM35.4,54.9v4.1h4.2v-4.1h-4.2ZM41.6,54.9v4.1h4.2v-4.1h-4.2ZM47.8,54.9v4.1h4.2v-4.1h-4.2ZM54.1,54.9v4.1h4.2v-4.1h-4.2Z"/>
    <path class="st17" d="M6.3,6.3v4.1h4.2v-4.1h-4.2ZM12.5,6.3v4.1h4.2v-4.1h-4.2ZM18.7,6.3v4.1h4.2v-4.1h-4.2ZM25,6.3v4.1h4.2v-4.1h-4.2ZM31.2,6.3v4.1h4.2v-4.1h-4.2ZM37.4,6.3v4.1h4.2v-4.1h-4.2ZM47.8,6.3v4.1h4.2v-4.1h-4.2ZM54.1,6.3v4.1h4.2v-4.1h-4.2ZM6.3,12.5v4.1h4.2v-4.1h-4.2ZM12.5,12.5v4.1h4.2v-4.1h-4.2ZM18.7,12.5v4.1h4.2v-4.1h-4.2ZM25,12.5v4.1h4.2v-4.1h-4.2ZM31.2,12.5v4.1h4.2v-4.1h-4.2ZM37.4,12.5v4.1h4.2v-4.1h-4.2ZM47.8,12.5v4.1h4.2v-4.1h-4.2ZM54.1,12.5v4.1h4.2v-4.1h-4.2ZM47.8,18.7v4.1h4.2v-4.1h-4.2ZM54.1,18.7v4.1h4.2v-4.1h-4.2ZM6.3,22.9v4.1h4.2v-4.1h-4.2ZM12.5,22.9v4.1h4.2v-4.1h-4.2ZM47.8,24.9v4.1h4.2v-4.1h-4.2ZM54.1,24.9v4.1h4.2v-4.1h-4.2ZM6.3,29.1v4.1h4.2v-4.1h-4.2ZM12.5,29.1v4.1h4.2v-4.1h-4.2ZM47.8,31.2v4.1h4.2v-4.1h-4.2ZM54.1,31.2v4.1h4.2v-4.1h-4.2ZM6.3,35.3v4.1h4.2v-4.1h-4.2ZM12.5,35.3v4.1h4.2v-4.1h-4.2ZM47.8,37.4v4.1h4.2v-4.1h-4.2ZM54.1,37.4v4.1h4.2v-4.1h-4.2ZM6.3,41.5v4.1h4.2v-4.1h-4.2ZM12.5,41.5v4.1h4.2v-4.1h-4.2ZM6.3,47.7v4.1h4.2v-4.1h-4.2ZM12.5,47.7v4.1h4.2v-4.1h-4.2ZM22.9,47.7v4.1h4.2v-4.1h-4.2ZM29.1,47.7v4.1h4.2v-4.1h-4.2ZM35.4,47.7v4.1h4.2v-4.1h-4.2ZM41.6,47.7v4.1h4.2v-4.1h-4.2ZM47.8,47.7v4.1h4.2v-4.1h-4.2ZM54.1,47.7v4.1h4.2v-4.1h-4.2ZM6.3,53.9v4.1h4.2v-4.1h-4.2ZM12.5,53.9v4.1h4.2v-4.1h-4.2ZM22.9,53.9v4.1h4.2v-4.1h-4.2ZM29.1,53.9v4.1h4.2v-4.1h-4.2ZM35.4,53.9v4.1h4.2v-4.1h-4.2ZM41.6,53.9v4.1h4.2v-4.1h-4.2ZM47.8,53.9v4.1h4.2v-4.1h-4.2ZM54.1,53.9v4.1h4.2v-4.1h-4.2Z"/>
    <path class="st5" d="M5.1,2.2c-1.7,0-3,1.3-3,3v1c0-1.7,1.3-3,3-3h54.2c1.7,0,3,1.3,3,3v-1c0-1.7-1.3-3-3-3H5.1Z"/>
  </g>
  <g class="st4">
    <path class="st10" d="M56.6,43.5c-.4,6.7-6.1,12-13,12-6.8,0-12.5-5.1-13-11.7,0,.2,0,.4,0,.7,0,7,5.8,12.6,13,12.6s13-5.7,13-12.6c0-.3,0-.6,0-.9h0Z"/>
    <path class="st10" d="M6.2,32.5c0,.3,0,.5,0,.8,0,13.1,10.9,23.7,24.4,23.7s24.4-10.6,24.4-23.7,0-.5,0-.8c-.4,12.8-11.1,22.9-24.4,22.9S6.7,45.3,6.2,32.5h0Z"/>
    <path class="st13" d="M30.6,20.7c-6.7,0-12.2,5.3-12.2,11.8s5.5,11.8,12.2,11.8,12.2-5.3,12.2-11.8-5.5-11.8-12.2-11.8ZM30.6,27.8c2.7,0,4.9,2.1,4.9,4.7s-2.2,4.7-4.9,4.7-4.9-2.1-4.9-4.7,2.2-4.7,4.9-4.7Z"/>
    <path class="st23" d="M30.6,8.8c-13.5,0-24.4,10.6-24.4,23.7s10.9,23.7,24.4,23.7,24.4-10.6,24.4-23.7-10.9-23.7-24.4-23.7ZM30.6,23c5.4,0,9.8,4.2,9.8,9.5s-4.4,9.5-9.8,9.5-9.8-4.2-9.8-9.5,4.4-9.5,9.8-9.5Z"/>
    <path class="st8" d="M30.6,8.8c-13.5,0-24.4,10.6-24.4,23.7s0,.3,0,.4c.2-13,11-23.3,24.4-23.3h0c13.4,0,24.2,10.4,24.4,23.3,0-.1,0-.3,0-.4,0-13.1-10.9-23.7-24.4-23.7h0ZM25.8,33.1c0,.2,0,.4,0,.6s0,.3,0,.5c0-.1,0-.2,0-.3.3,2.3,2.3,4.1,4.8,4.1s4.5-1.8,4.8-4.1c0,.1,0,.2,0,.3,0-.2,0-.3,0-.5s0-.4,0-.6c-.3,2.3-2.3,4.1-4.8,4.1s-4.5-1.8-4.8-4.1Z"/>
    <ellipse class="st19" cx="43.6" cy="43.6" rx="13" ry="12.6"/>
    <ellipse class="st12" cx="42.8" cy="49.1" rx="4.1" ry="3.9"/>
    <path class="st12" d="M45.3,37.3h0c.9,0,1.6.7,1.6,1.6v9.5c0,.9-.7,1.6-1.6,1.6h0c-.9,0-1.6-.7-1.6-1.6v-9.5c0-.9.7-1.6,1.6-1.6Z"/>
  </g>
  <g>
    <path class="st2" d="M60.9,10.1H3.2c-1.8,0-3.2,1.2-3.2,2.8v38.8c0,1.5,1.4,2.8,3.2,2.8h57.7c1.8,0,3.2-1.2,3.2-2.8V12.8c0-1.5-1.4-2.8-3.2-2.8Z"/>
    <path class="st1" d="M60.9,9.1H3.2c-1.8,0-3.2,1.2-3.2,2.8v38.8c0,1.5,1.4,2.8,3.2,2.8h57.7c1.8,0,3.2-1.2,3.2-2.8V11.8c0-1.5-1.4-2.8-3.2-2.8Z"/>
    <ellipse class="st10" cx="13.7" cy="38.3" rx="9.2" ry="8.1"/>
    <ellipse class="st0" cx="13.7" cy="37.3" rx="9.2" ry="8.1"/>
    <rect class="st14" x="4.6" y="13.1" width="55" height="10.1"/>
    <rect class="st0" x="18.3" y="15.1" width="6.9" height="8.1"/>
    <path class="st14" d="M37.8,27.2c-1.9,0-3.4,1.4-3.4,3s1.5,3,3.4,3,3.4-1.4,3.4-3-1.5-3-3.4-3ZM47,27.2c-1.9,0-3.4,1.4-3.4,3s1.5,3,3.4,3,3.4-1.4,3.4-3-1.5-3-3.4-3ZM56.1,27.2c-1.9,0-3.4,1.4-3.4,3s1.5,3,3.4,3,3.4-1.4,3.4-3-1.5-3-3.4-3ZM37.8,35.3c-1.9,0-3.4,1.4-3.4,3s1.5,3,3.4,3,3.4-1.4,3.4-3-1.5-3-3.4-3ZM47,35.3c-1.9,0-3.4,1.4-3.4,3s1.5,3,3.4,3,3.4-1.4,3.4-3-1.5-3-3.4-3ZM56.1,35.3c-1.9,0-3.4,1.4-3.4,3s1.5,3,3.4,3,3.4-1.4,3.4-3-1.5-3-3.4-3ZM37.8,43.3c-1.9,0-3.4,1.4-3.4,3s1.5,3,3.4,3,3.4-1.4,3.4-3-1.5-3-3.4-3ZM47,43.3c-1.9,0-3.4,1.4-3.4,3s1.5,3,3.4,3,3.4-1.4,3.4-3-1.5-3-3.4-3ZM56.1,43.3c-1.9,0-3.4,1.4-3.4,3s1.5,3,3.4,3,3.4-1.4,3.4-3-1.5-3-3.4-3Z"/>
    <path class="st5" d="M3.2,9.1c-1.8,0-3.2,1.2-3.2,2.8v1c0-1.5,1.4-2.8,3.2-2.8h57.7c1.8,0,3.2,1.2,3.2,2.8v-1c0-1.5-1.4-2.8-3.2-2.8H3.2Z"/>
  </g>
</svg>