<?xml version="1.0" encoding="UTF-8"?>
<svg id="_图层_1" data-name="图层_1" xmlns="http://www.w3.org/2000/svg" version="1.1" viewBox="0 0 64 64" width="22" height="22">
  <!-- Generator: Adobe Illustrator 29.0.1, SVG Export Plug-In . SVG Version: 2.1.0 Build 192)  -->
  <defs>
    <style>
      .st0 {
        fill: #ffce41;
      }

      .st1, .st2 {
        fill: #fff;
      }

      .st3 {
        fill: #4587f3;
      }

      .st4, .st2 {
        isolation: isolate;
        opacity: .2;
      }

      .st5 {
        fill: #109f5b;
      }

      .st6 {
        fill: #dd4d3e;
      }
    </style>
  </defs>
  <rect class="st1" width="63.7" height="64" rx="12.8" ry="12.8"/>
  <ellipse class="st4" cx="32" cy="32.1" rx="23.6" ry="22.8"/>
  <path class="st5" d="M12.4,18.7c-.4.6-.8,1.2-1.2,1.9-1.8,3.3-2.8,7-2.8,10.8,0,12.6,10.6,22.8,23.6,22.8.1,0,.2,0,.4,0l11.2-18c-.9,1.4-4.6,3.2-6.2,4.1-5.1,2.8-11.5,1-14.5-3.9l-10.4-17.7h0Z"/>
  <path class="st6" d="M21.2,36l-9.6-16.1c3.5-5.8,9-9.2,14.1-10.6,2.4-.6,4.2-.8,6.3-.8,2.8,0,12.5.7,19.1,9.5.5.6.9,1.3,1.3,1.9h-20.4c-2.2.2-3.5,1.4-4.3,3l8,13.4-9.7,4"/>
  <path class="st0" d="M41.6,38.1l-9.6,16.1c0,0,.1,0,.2,0,.3,0,.7,0,1,0,.2,0,.4,0,.6,0,.7,0,1.5-.1,2.2-.3,0,0,0,0,.1,0,11.3-1.9,19.5-11.4,19.5-22.5,0-4-1.1-7.9-3.2-11.4h-20.4s3.7,1.6,5.3,2.5c4.1,2.3,4.5,10.4,4.5,13.7l.7.4"/>
  <path class="st2" d="M32,8.5c-13,0-23.6,10.2-23.6,22.8,0,.1,0,.3,0,.4.2-12.4,10.7-22.4,23.5-22.4,12.8,0,23.2,9.9,23.6,22.2,0,0,0-.1,0-.2,0-12.6-10.6-22.8-23.6-22.8Z"/>
  <ellipse class="st4" cx="32" cy="32.1" rx="11.8" ry="11.4"/>
  <ellipse class="st1" cx="32" cy="31.3" rx="11.8" ry="11.4"/>
  <ellipse class="st3" cx="32" cy="31.3" rx="9.3" ry="9"/>
</svg>
