<?xml version="1.0" encoding="UTF-8"?>
<svg id="_图层_1" xmlns="http://www.w3.org/2000/svg" version="1.1" viewBox="0 0 64 64" width="22" height="22">
  <!-- Generator: Adobe Illustrator 29.0.1, SVG Export Plug-In . SVG Version: 2.1.0 Build 192)  -->
  <defs>
    <style>
      .st0, .st1, .st2, .st3, .st4, .st5 {
        isolation: isolate;
      }

      .st0, .st1, .st6, .st7 {
        display: none;
      }

      .st0, .st4, .st5 {
        opacity: .2;
      }

      .st1 {
        opacity: .1;
      }

      .st1, .st8, .st5 {
        fill: #fff;
      }

      .st2 {
        opacity: .5;
      }

      .st2, .st9 {
        fill: #ffbe23;
      }

      .st10, .st6 {
        fill: #5d5544;
      }

      .st11 {
        fill: #a45390;
      }

      .st12 {
        fill: none;
        stroke: #ffbe23;
        stroke-linecap: round;
        stroke-linejoin: round;
        stroke-width: 4px;
      }

      .st13 {
        fill: #64dd17;
      }

      .st14 {
        fill: #6db832;
      }

      .st15 {
        fill: #2869b6;
      }

      .st16 {
        fill: #c2352a;
      }

      .st17 {
        fill: #4987d7;
      }
    </style>
  </defs>
  <path class="st10" d="M50.3,64H13.8c-7.6,0-13.8-6.2-13.8-13.7V13.7C0,6.2,6.2,0,13.7,0h36.5c7.5,0,13.7,6.2,13.7,13.7v36.6c0,7.5-6.2,13.7-13.7,13.7h0Z"/>
  <g class="st7">
    <path class="st0" d="M0,59.5v2.3c0,1.9,1.5,3.4,3.4,3.4h57.4c1.9,0,3.4-1.5,3.4-3.4v-2.3c0,1.9-1.5,3.4-3.4,3.4H3.4c-1.9,0-3.4-1.5-3.4-3.4Z"/>
    <path class="st17" d="M3.2-.1C2.3-.1,1.5.3.9.8l31.2,31.2L63.3.8c-.6-.6-1.4-.9-2.3-.9,0,0-57.8,0-57.8,0Z"/>
    <path class="st11" d="M3.2,64.1c-.9,0-1.7-.4-2.3-.9l31.2-31.2,31.2,31.2c-.6.6-1.4.9-2.3.9H3.2Z"/>
    <path class="st14" d="M64.2,3.1c0-.9-.4-1.7-.9-2.3l-31.2,31.2,31.2,31.2c.6-.6.9-1.4.9-2.3V3.1h0Z"/>
    <path class="st16" d="M0,3.1c0-.9.4-1.7.9-2.3l31.2,31.2L.9,63.2c-.6-.6-.9-1.4-.9-2.3V3.1h0Z"/>
    <path class="st4" d="M35,5.6c-1.4,0-2.5.2-3.6.5-1,.3-1.9.8-2.6,1.3-.7.6-1.3,1.2-1.8,2s-.8,1.3-1.1,2.1c-.3.9-.5,1.8-.6,2.8s-.2,1.9-.2,2.9h0c0,1.5.2,2.9.5,4,.4,1.1.9,2,1.5,2.8.7.7,1.4,1.3,2.3,1.7.9.4,1.8.5,2.8.5s2-.2,2.8-.5,1.5-.8,2.1-1.4,1-1.4,1.3-2.2c.3-.9.5-1.9.5-3s0-2-.4-2.8c-.3-.8-.6-1.6-1.1-2.1-.5-.6-1.1-1-1.8-1.3s-1.5-.4-2.4-.4-1.1,0-1.5.2c-.4.1-.8.3-1.2.5-.4.2-.7.6-.9.9-.3.3-.5.6-.7.9h-.2c0-1,.2-1.8.4-2.6.2-.8.5-1.1,1-1.7.5-.6,1.1-1,1.9-1.3.8-.3,1.8-.5,3.1-.5s.8,0,1.2,0,.8.1,1.1.2v-3.5h-2.6s.2,0,.2,0ZM32.4,16c.8,0,1.5.3,1.9.9s.6,1.4.6,2.4,0,1.1-.2,1.6c0,.4-.3.8-.5,1.1-.2.3-.5.5-.8.7-.3.1-.7.2-1,.2s-.9-.1-1.2-.4c-.3-.2-.6-.5-.9-.9-.2-.4-.4-.8-.5-1.3s-.2-1-.2-1.4,0-.7.2-1c.1-.3.3-.6.6-.9.3-.3.6-.5.9-.7.4-.2.7-.3,1.2-.3h0ZM47,24v10.3l1,.9c.2,0,.4,0,.6-.2.2,0,.5,0,.8-.2h1.6c1.3,0,2.3.3,3,.8.6.5,1,1.3,1,2.3s-.3,2-1,2.5-1.6.8-2.9.8-.9,0-1.3,0-.9-.2-1.4-.3-.9-.3-1.3-.4c-.4-.2-.8-.3-1.1-.5v3.7c.3.2.7.3,1.1.5.4,0,.9.3,1.3.3s1,.2,1.5.2h1.5c1.3,0,2.4-.2,3.4-.5s1.8-.8,2.5-1.4c.7-.6,1.2-1.4,1.5-2.2.3-.9.5-1.9.5-3s-.2-1.9-.5-2.7-.8-1.4-1.3-2c-.6-.5-1.2-.9-2-1.2-.8-.3-1.6-.4-2.5-.4h0c-.6,0-1.1,0-1.5.1-.4,0-.7.1-1,.2l.3-4.1h6.5v-3.4h-10.3,0ZM11.5,24.1c-.8,0-1.6,0-2.2.3-.7.2-1.3.4-1.8.6-.6.3-1.1.6-1.5.9-.5.3-.9.5-1.3.9l2.4,2.8c.7-.7,1.5-1.2,2.1-1.6.7-.4,1.4-.5,2.1-.5s1.3.2,1.7.6.6.9.6,1.6,0,1.2-.3,1.7c-.2.5-.5,1.1-.8,1.6-.4.5-.8,1.1-1.3,1.6-.5.6-1,1.2-1.7,1.8l-4.8,5.4v2.8h13.7v-3.4h-8.3v-.2l2.5-2.7c.7-.7,1.4-1.4,2-2.1.6-.7,1.2-1.4,1.7-2.1.5-.7.9-1.4,1.1-2.2.3-.7.4-1.5.4-2.3s-.1-1.7-.4-2.4c-.3-.7-.7-1.1-1.3-1.6-.6-.5-1.2-.9-2-1.2-.8-.3-1.7-.4-2.6-.4h0ZM25.2,42.5v3.2h9.4l-7.3,17.2h4.5l7.1-17.7v-2.7h-13.8.1Z"/>
    <path class="st8" d="M35,4.5c-1.4,0-2.5.2-3.6.5-1,.3-1.9.8-2.6,1.3-.7.6-1.3,1.2-1.8,2s-.8,1.3-1.1,2.1c-.3.9-.5,1.8-.6,2.8s-.2,1.9-.2,2.9h0c0,1.5.2,2.9.5,4,.4,1.1.9,2,1.5,2.8.7.7,1.4,1.3,2.3,1.7.9.4,1.8.5,2.8.5s2-.2,2.8-.5,1.5-.8,2.1-1.4,1-1.4,1.3-2.2c.3-.9.5-1.9.5-3s0-2-.4-2.8c-.3-.8-.6-1.6-1.1-2.1-.5-.6-1.1-1-1.8-1.3s-1.5-.4-2.4-.4-1.1,0-1.5.2c-.4.1-.8.3-1.2.5-.4.2-.7.6-.9.9-.3.3-.5.6-.7.9h-.2c0-1,.2-1.8.4-2.6.2-.8.5-1.1,1-1.7.5-.6,1.1-1,1.9-1.3.8-.3,1.8-.5,3.1-.5s.8,0,1.2,0,.8,0,1.1.2v-3.5h-2.6s.2,0,.2,0ZM32.4,14.9c.8,0,1.5.3,1.9.9.4.6.6,1.4.6,2.4s0,1.1-.2,1.6c0,.4-.3.8-.5,1.1-.2.3-.5.5-.8.7-.3.1-.7.2-1,.2s-.9-.1-1.2-.4c-.3-.2-.6-.5-.9-.9-.2-.4-.4-.8-.5-1.3s-.2-1-.2-1.4,0-.7.2-1c.1-.3.3-.6.6-.9.3-.3.6-.5.9-.7.4-.2.7-.3,1.2-.3h0ZM47,22.8v10.3l1,.9c.2,0,.4,0,.6-.2.2,0,.5,0,.8-.2h1.6c1.3,0,2.3.3,3,.8.6.5,1,1.3,1,2.3s-.3,2-1,2.5-1.6.8-2.9.8-.9,0-1.3,0-.9-.2-1.4-.3-.9-.3-1.3-.4c-.4-.2-.8-.3-1.1-.5v3.7c.3.2.7.3,1.1.5.4,0,.9.3,1.3.3s1,.2,1.5.2h1.5c1.3,0,2.4-.2,3.4-.5s1.8-.8,2.5-1.4c.7-.6,1.2-1.4,1.5-2.2.3-.9.5-1.9.5-3s-.2-1.9-.5-2.7-.8-1.4-1.3-2c-.6-.5-1.2-.9-2-1.2-.8-.3-1.6-.4-2.5-.4h0c-.6,0-1.1,0-1.5.1-.4,0-.7.1-1,.2l.3-4.1h6.5v-3.4h-10.3,0ZM11.5,22.9c-.8,0-1.6,0-2.2.3-.7.2-1.3.4-1.8.6-.6.3-1.1.6-1.5.9-.5.3-.9.5-1.3.9l2.4,2.8c.7-.7,1.5-1.2,2.1-1.6.7-.4,1.4-.5,2.1-.5s1.3.2,1.7.6.6.9.6,1.6,0,1.2-.3,1.7c-.2.5-.5,1.1-.8,1.6-.4.5-.8,1.1-1.3,1.6-.5.6-1,1.2-1.7,1.8l-4.8,5.4v2.8h13.7v-3.4h-8.3v-.2l2.5-2.7c.7-.7,1.4-1.4,2-2.1.6-.7,1.2-1.4,1.7-2.1.5-.7.9-1.4,1.1-2.2.3-.7.4-1.5.4-2.3s-.1-1.7-.4-2.4c-.3-.7-.7-1.1-1.3-1.6-.6-.5-1.2-.9-2-1.2-.8-.3-1.7-.4-2.6-.4h0ZM25.2,41.4v3.2h9.4l-7.3,17.2h4.5l7.1-17.7v-2.7h-13.8.1Z"/>
    <path class="st1" d="M3.4-.1C1.5-.1,0,1.4,0,3.3v1.1C0,2.6,1.5,1,3.4,1h57.4c1.9,0,3.4,1.5,3.4,3.4v-1.1c0-1.9-1.5-3.4-3.4-3.4,0,0-57.4,0-57.4,0Z"/>
  </g>
  <g class="st7">
    <path class="st4" d="M32,10.6h0c12.8,0,23.1,10.2,23.1,22.8h0c0,12.6-10.4,22.8-23.1,22.8h0c-12.8,0-23.1-10.2-23.1-22.8h0c0-12.6,10.4-22.8,23.1-22.8Z"/>
    <path class="st15" d="M32,9.8h0c12.8,0,23.1,10.2,23.1,22.8h0c0,12.6-10.4,22.8-23.1,22.8h0c-12.8,0-23.1-10.2-23.1-22.8h0c0-12.6,10.4-22.8,23.1-22.8Z"/>
    <g class="st4">
      <path d="M32.1,11.8l-2.7.3-3.3.9-.6.6,2.1,1.4v.8l-1.3.8,1.6,2.1.7-.4.9-1.4c1.4-.4,2.6-.9,3.9-1.5l.9-2.7-2.2-.9ZM25.7,12l-1.2.2-.5.5h-.9c0,.1-.8.5-.8.5l-.4.2-.2.3,1.2.2.4-.4.9-.2c.6-.3,1.2-.5,1.9-.7l-.4-.6ZM20.5,14.4l-.2.4v1c0,0-.6.6-.6.6l-.4,1.1h.9l.4-1c.4-.3.8-.5,1.2-.8l.9.3c.6.4,1.2.8,1.8,1.2l.9-.8-1-.4-.4-.9-1.7-.2v-.5c0,0-.9.2-.9.2l-.4.7-.4-.9ZM43.3,15.2l-1.7.4-1.1.7v.6l-1.7,1.1.4,1.6,1-.7.6.7.7.4.4-1.2-.3-.7.3-.5,1-1.2h.4l-.4,1.3v.9c.4-.1.8-.1,1.3-.2l-1.2.8v.5c0,0-1.4,1.1-1.4,1.1l-1.3-.3v-.8l-.6.4.3.9h-1l-.5.7-.7.7-1.2.3.7.7.2.7h-.9l-1.1.6v1.8h.5l.5.5,1.1-.5.4-1.1.8-.5.2-.4,1.3-.3.7.8.8.4-.4.9.7-.2.4-.9-.9-1h.4l.9.7.2,1,.8.9.2-1.3.4-.2c.4.5.8,1.1,1.2,1.6h1.3c0,.1.8.5.8.5l-.4.5-.8.7h-1.2l-1.5-.5h-.8c0,0-.6.7-.6.7l-1.7-1.6-1.2-.3-1.7.2-1.5.4c-.9,1-2.4,1.9-3.2,2.9l-1,2.3.4.5-.8,1.2.9,2.1c.8.8,2.2,1.7,3,2.5l1.1-.9.5.6,1.2-.7.4.5h2l.7.7-.4,1.4.9.9v1.6s.6,1.2.6,1.2l-.7,1c0,.7,0,1.5,0,2.2.4,1,1,2,1.3,3l.2,1.2c1.6-.9,3-2,4.3-3.2l-.6-.7,1-.8.9-.6.4-.5-.3-1.1v-2.8l.9-1.7,1-1.1,1.1-2.6v-.7c-.5,0-1,.1-1.6.2l1.1-1.1,1.5-1,.8-.9v-1c-.2-.3-.4-.7-.5-1l-.7.8-.5-.6-.8-.6v-1.3l.9,1h1c.5.3.9.7,1.3,1.1h.1c-.5-5.4-2.8-10.2-6.3-13.8-.2-.2-.4-.4-.6-.6-.3-.3-.5-.5-.8-.7l-.3.4-.9,1-1.2-1.4h1.2l.5-.4-2.1-.4-1.2-.4ZM18.1,15.2c-.1,0-.3.2-.4.3l.2.8s-.8,0-1.3.1c-4.6,4-7.5,9.8-7.7,16.3,0,.3,0,.6,0,.9.1.2.3.4.3.4l1.9,1.1,1.9.5.8,1,1.3.9h.7c0,0,.5.1.5.1v.2l-.7,1.9-.5.8.2.4-.6,1.5,1.7,2.9,1.1,1.4.7,1v2.1c0,0,.6.8.6.8,1.3.9,2.7,1.7,4.2,2.3l.9-.3,1.1-2.2-.4-.6.6-1.2,1.2-.3.8-1.3-.3-2,1.6-1.5.2-1.5c-1.5-.7-3.3-1.5-4.8-2.2l-.7-1.4h-1.3c0-.1-.7-1.8-.7-1.8l-1.8.2-1.5-1.7-1.6,1.6v.2c-.5-.1-1.1-.2-1.5-.4l-.4-1v-1.1h-1.1c0-.6.2-1.3.3-2h-.6l-.6.8-.6.3-.9-.5v-1.1c0,0,0-1.2,0-1.2l1.3-1h1.1l.2-.6,1.3.3.9,1.2.2-2,1.8-1.4.6-1.9h1.2s.7-.6.7-.6l1.6-.3.8-1.2h-2.4l1.5-1.2h1.1l1.5-.5.2-.6-.5-.5-.6-.2.2-.6-.4-.9-1.1.4.2-.8-1.3-.7-1,1.7v.6c0,0-.9.4-.9.4l-.6,1.3-.3-1.2-1.7-.7-.3-.9,2.2-1.3,1-.9v-1.1c0,0-.4-.3-.4-.3h-.9ZM35.6,15.9l-1.3.4h-.6c0,0,0,0,0,0v.6c0,0,.8.4.8.4l1.6-.7-.5-.6h0ZM22.7,16.6l-.7.5.9.6h.7v-.7l-.9-.4ZM36.8,18.9v.6l.4.4v.9l-.2,1.2,1-.2.7-.7-.6-.6c-.2-.6-.5-1.1-.7-1.6h-.5ZM36.5,20.1l-.6.2.2,1.1.8-.4-.4-.9ZM24.1,21.9l.3,1.4.5-.8-.8-.6ZM47.5,29.7l1,1.1,1.2,2.5.7.8-.4.9.7.8c-.3,0-.6,0-.9,0-.6-1.2-1-2.4-1.4-3.6l-1-.8-.4-1.4s.5-.3.5-.3Z"/>
    </g>
    <g class="st3">
      <path class="st13" d="M32.1,10.9l-2.7.3-3.3.9-.6.6,2.1,1.4v.8l-1.3.8,1.6,2.1.7-.4.9-1.4c1.4-.4,2.6-.9,3.9-1.5l.9-2.7-2.2-.9ZM25.7,11.1l-1.2.2-.5.5h-.9c0,.1-.8.5-.8.5l-.4.2-.2.3,1.2.2.4-.4.9-.2c.6-.3,1.2-.5,1.9-.7l-.4-.6ZM20.5,13.5l-.2.4v1c0,0-.6.6-.6.6l-.4,1.1h.9l.4-1c.4-.3.8-.5,1.2-.8l.9.3c.6.4,1.2.8,1.8,1.2l.9-.8-1-.4-.4-.9-1.7-.2v-.5c0,0-.9.2-.9.2l-.4.7-.4-.9ZM43.3,14.3l-1.7.4-1.1.7v.6l-1.7,1.1.4,1.6,1-.7.6.7.7.4.4-1.2-.3-.7.3-.5,1-1.2h.4l-.4,1.3v.9c.4-.1.8-.1,1.3-.2l-1.2.8v.5c0,0-1.4,1.1-1.4,1.1l-1.3-.3v-.8l-.6.4.3.9h-1l-.5.7-.7.7-1.2.3.7.7.2.7h-.9l-1.1.6v1.8h.5l.5.5,1.1-.5.4-1.1.8-.5.2-.4,1.3-.3.7.8.8.4-.4.9.7-.2.4-.9-.9-1h.4l.9.7.2,1,.8.9.2-1.3.4-.2c.4.5.8,1.1,1.2,1.6h1.3c0,.1.8.5.8.5l-.4.5-.8.7h-1.2l-1.5-.5h-.8c0,0-.6.7-.6.7l-1.7-1.6-1.2-.3-1.7.2-1.5.4c-.9,1-2.4,1.9-3.2,2.9l-1,2.3.4.5-.8,1.2.9,2.1c.8.8,2.2,1.7,3,2.5l1.1-.9.5.6,1.2-.7.4.5h2l.7.7-.4,1.4.9.9v1.6s.6,1.2.6,1.2l-.7,1c0,.7,0,1.5,0,2.2.4,1,1,2,1.3,3l.3,1.6v.8h.1l.5-.6h.8c.3-.2.6-.5.9-.7l1.1-1.3-.2-.6,1.2-1-.9-.9,1-.8.9-.6.4-.5-.3-1.1v-2.8l.9-1.7,1-1.1,1.1-2.6v-.7c-.5,0-1,.1-1.6.2l1.1-1.1,1.5-1,.8-.9v-1c-.2-.3-.4-.7-.5-1l-.7.8-.5-.6-.8-.6v-1.3l.9,1h1c.5.3.9.7,1.3,1.1h.1c-.5-5.4-2.8-10.2-6.3-13.8-.2-.2-.4-.4-.6-.6-.3-.3-.5-.5-.8-.7l-.3.4-.9,1-1.2-1.4h1.2l.5-.4-2.1-.4-1.2-.4ZM18.1,14.4c-.1,0-.3.2-.4.3l.2.8s-.8,0-1.3.1c-4.7,4.2-7.7,10.2-7.8,17,.2.3.4.6.4.6l1.9,1.1,1.9.5.8,1,1.3.9h.7c0,0,.5.1.5.1v.2l-.7,1.9-.5.8.2.4-.6,1.5,1.7,2.9,1.1,1.4.7,1v2.1c0,0,.9,1.2.9,1.2l-.3,1.3c1,.7,2.1,1.3,3.3,1.8l.4-.4.3-.7,1.2-.4,1.1-2.2-.4-.6.6-1.2,1.2-.3.8-1.3-.3-2,1.6-1.5.2-1.5c-1.5-.7-3.3-1.5-4.8-2.2l-.7-1.4h-1.3c0-.1-.7-1.8-.7-1.8l-1.8.2-1.5-1.7-1.6,1.6v.2c-.5-.1-1.1-.2-1.5-.4l-.4-1v-1.1h-1.1c0-.6.2-1.3.3-2h-.6l-.6.8-.6.3-.9-.5v-1.1c0,0,0-1.2,0-1.2l1.3-1h1.1l.2-.6,1.3.3.9,1.2.2-2,1.8-1.4.6-1.9h1.2s.7-.6.7-.6l1.6-.3.8-1.2h-2.4l1.5-1.2h1.1l1.5-.5.2-.6-.5-.5-.6-.2.2-.6-.4-.9-1.1.4.2-.8-1.3-.7-1,1.7v.6c0,0-.9.4-.9.4l-.6,1.3-.3-1.2-1.7-.7-.3-.9,2.2-1.3,1-.9v-1.1c0,0-.4-.3-.4-.3h-.9ZM35.6,15.1l-1.3.4h-.6c0-.1,0-.1,0-.1v.6c0,0,.8.4.8.4l1.6-.7-.5-.6h0ZM22.7,15.8l-.7.5.9.6h.7v-.7l-.9-.4ZM36.8,18.1v.6l.4.4v.9l-.2,1.2,1-.2.7-.7-.6-.6c-.2-.6-.5-1.1-.7-1.6h-.5ZM36.5,19.3l-.6.2.2,1.1.8-.4-.4-.9ZM24.1,21.1l.3,1.4.5-.8-.8-.6ZM47.5,28.9l1,1.1,1.2,2.5.7.8-.4.9.7.8c-.3,0-.6,0-.9,0-.6-1.2-1-2.4-1.4-3.6l-1-.8-.4-1.4.5-.3Z"/>
    </g>
    <path class="st5" d="M32,9.8c-12.8,0-23.1,10.2-23.1,22.8s0,.2,0,.3c.3-12.4,10.5-22.3,23.1-22.3s22.8,9.9,23.1,22.3c0,0,0-.2,0-.3,0-12.7-10.3-22.8-23.1-22.8Z"/>
  </g>
  <g>
    <path class="st0" d="M6,6.4h51.9c2.1,0,3.8,1.3,3.8,3v42c0,1.7-1.7,3-3.8,3H6c-2.1,0-3.8-1.3-3.8-3V9.4c0-1.7,1.7-3,3.8-3Z"/>
    <path class="st6" d="M6,5.4h51.9c2.1,0,3.8,1.3,3.8,3v42c0,1.7-1.7,3-3.8,3H6c-2.1,0-3.8-1.3-3.8-3V8.4c0-1.7,1.7-3,3.8-3Z"/>
    <path class="st4" d="M19.4,16.4c-1,0-1.8.5-2.2,1.3l-5.2,12.7H2.2c-1.3,0-2.3.9-2.3,2,0,1.1,1,2,2.3,2,0,0,0,0,0,0h11.4c1,0,1.8-.5,2.2-1.3l3.3-8,6.1,19.8c.3,1.1,1.6,1.7,2.8,1.4.8-.2,1.3-.7,1.6-1.3l4.8-13.4,2.3,5.5c.4,1,1.7,1.6,2.9,1.2.3,0,.6-.3.8-.5l3.9-3.4h17.4c1.3,0,2.3-.9,2.3-2s-1-2-2.3-2c0,0,0,0,0,0h-18.3c-.6,0-1.2.2-1.6.6l-2,1.8-3.4-8c-.4-1-1.7-1.6-2.9-1.2-.7.2-1.2.7-1.4,1.3l-4.5,12.5-6-19.4c-.3-.9-1.2-1.5-2.2-1.5Z"/>
    <path class="st12" d="M2.2,31.4h11.4l5.7-14,8,26,6.9-19,4.6,11,4.6-4h18.3"/>
    <rect class="st2" x="46.8" y="8.4" width="11.4" height="3"/>
    <rect class="st9" x="46.8" y="13.4" width="11.4" height="3"/>
    <rect class="st9" x="46.8" y="18.4" width="11.4" height="3"/>
    <path class="st1" d="M6,5.4c-2.1,0-3.8,1.3-3.8,3v1c0-1.7,1.7-3,3.8-3h51.9c2.1,0,3.8,1.3,3.8,3v-1c0-1.7-1.7-3-3.8-3H6Z"/>
  </g>
</svg>