<?xml version="1.0" encoding="UTF-8" standalone="no"?>
<svg
   id="_图层_1"
   version="1.1"
   viewBox="0 0 64 64" width="22" height="22"
   sodipodi:docname="hubstaff-color.svg"
   xml:space="preserve"
   inkscape:version="1.4 (e7c3feb100, 2024-10-09)"
   xmlns:inkscape="http://www.inkscape.org/namespaces/inkscape"
   xmlns:sodipodi="http://sodipodi.sourceforge.net/DTD/sodipodi-0.dtd"
   xmlns:xlink="http://www.w3.org/1999/xlink"
   xmlns="http://www.w3.org/2000/svg"
   xmlns:svg="http://www.w3.org/2000/svg"><sodipodi:namedview
     id="namedview26"
     pagecolor="#505050"
     bordercolor="#eeeeee"
     borderopacity="1"
     inkscape:showpageshadow="0"
     inkscape:pageopacity="0"
     inkscape:pagecheckerboard="0"
     inkscape:deskcolor="#505050"
     inkscape:zoom="10.6875"
     inkscape:cx="32"
     inkscape:cy="32"
     inkscape:window-width="1920"
     inkscape:window-height="939"
     inkscape:window-x="0"
     inkscape:window-y="34"
     inkscape:window-maximized="1"
     inkscape:current-layer="_图层_1" /><!-- Generator: Adobe Illustrator 29.0.1, SVG Export Plug-In . SVG Version: 2.1.0 Build 192)  --><defs
     id="defs6"><style
       id="style1">
      .st0 {
        fill-opacity: .5;
      }

      .st0, .st1, .st2, .st3, .st4, .st5, .st6, .st7 {
        fill: #fff;
      }

      .st8 {
        fill: #133c9a;
      }

      .st2, .st9 {
        display: none;
      }

      .st3 {
        fill-opacity: .2;
      }

      .st4 {
        fill-opacity: .9;
      }

      .st10 {
        fill: #3370ff;
      }

      .st11 {
        fill: url(#_未命名的渐变_3);
      }

      .st12 {
        fill: url(#_未命名的渐变);
      }

      .st5 {
        fill-opacity: .3;
      }

      .st6 {
        fill-opacity: 0;
      }

      .st7 {
        fill-opacity: .7;
      }

      .st13 {
        fill: #00d6b9;
      }

      .st14 {
        fill: url(#_未命名的渐变_2);
      }
    </style><radialGradient
       id="_未命名的渐变"
       data-name="未命名的渐变"
       cx="123.9"
       cy="-40.2"
       fx="123.9"
       fy="-40.2"
       r="59.4"
       gradientTransform="translate(-26.8 25.5) scale(.6 -.7)"
       gradientUnits="userSpaceOnUse"><stop
         offset="0"
         stop-color="#db202e"
         id="stop1" /><stop
         offset="1"
         stop-color="#e01b24"
         id="stop2" /></radialGradient><radialGradient
       id="_未命名的渐变_2"
       data-name="未命名的渐变 2"
       cx="67.6"
       cy="26.8"
       fx="67.6"
       fy="26.8"
       r="105.2"
       gradientTransform="translate(-26.6 25.3) scale(.6 -.7)"
       gradientUnits="userSpaceOnUse"><stop
         offset="0"
         stop-color="#ffb648"
         id="stop3" /><stop
         offset="1"
         stop-color="#ff7800"
         stop-opacity="0"
         id="stop4" /></radialGradient><radialGradient
       id="_未命名的渐变_3"
       data-name="未命名的渐变 3"
       cx="61.7"
       cy="18.6"
       fx="61.7"
       fy="18.6"
       r="68"
       gradientTransform="matrix(0.6,0,0,-0.7,-26.8,25.8)"
       gradientUnits="userSpaceOnUse"><stop
         offset="0"
         stop-color="#c64600"
         id="stop5" /><stop
         offset="1"
         stop-color="#a51d2d"
         id="stop6" /></radialGradient><linearGradient
       id="linearGradient1261"><stop
         style="stop-color:#4f4f4f"
         offset="0"
         id="stop1-7" /><stop
         style="stop-color:#3f3f3f"
         offset="1"
         id="stop2-0" /></linearGradient><linearGradient
       id="linearGradient1263"
       x1="34.241"
       x2="37.169"
       y1="38.945"
       y2="30.342"
       gradientTransform="matrix(1.3919157,0,0,1.3888889,-1.321022,-0.4865665)"
       gradientUnits="userSpaceOnUse"
       xlink:href="#linearGradient1261" /><style
       id="style1-7">
      .st0 {
        fill-opacity: .5;
      }

      .st0, .st1, .st2, .st3, .st4, .st5, .st6, .st7 {
        fill: #fff;
      }

      .st8 {
        fill: #133c9a;
      }

      .st2, .st9 {
        display: none;
      }

      .st3 {
        fill-opacity: .2;
      }

      .st4 {
        fill-opacity: .9;
      }

      .st10 {
        fill: #3370ff;
      }

      .st11 {
        fill: url(#_未命名的渐变_3);
      }

      .st12 {
        fill: url(#_未命名的渐变);
      }

      .st5 {
        fill-opacity: .3;
      }

      .st6 {
        fill-opacity: 0;
      }

      .st7 {
        fill-opacity: .7;
      }

      .st13 {
        fill: #00d6b9;
      }

      .st14 {
        fill: url(#_未命名的渐变_2);
      }
    </style><radialGradient
       id="_未命名的渐变-8"
       data-name="未命名的渐变"
       cx="123.9"
       cy="-40.2"
       fx="123.9"
       fy="-40.2"
       r="59.4"
       gradientTransform="translate(-26.8 25.5) scale(.6 -.7)"
       gradientUnits="userSpaceOnUse"><stop
         offset="0"
         stop-color="#db202e"
         id="stop1-4" /><stop
         offset="1"
         stop-color="#e01b24"
         id="stop2-5" /></radialGradient><radialGradient
       id="_未命名的渐变_2-0"
       data-name="未命名的渐变 2"
       cx="67.6"
       cy="26.8"
       fx="67.6"
       fy="26.8"
       r="105.2"
       gradientTransform="translate(-26.6 25.3) scale(.6 -.7)"
       gradientUnits="userSpaceOnUse"><stop
         offset="0"
         stop-color="#ffb648"
         id="stop3-3" /><stop
         offset="1"
         stop-color="#ff7800"
         stop-opacity="0"
         id="stop4-6" /></radialGradient><radialGradient
       id="_未命名的渐变_3-1"
       data-name="未命名的渐变 3"
       cx="61.7"
       cy="18.6"
       fx="61.7"
       fy="18.6"
       r="68"
       gradientTransform="translate(-26.8 25.8) scale(.6 -.7)"
       gradientUnits="userSpaceOnUse"><stop
         offset="0"
         stop-color="#c64600"
         id="stop5-0" /><stop
         offset="1"
         stop-color="#a51d2d"
         id="stop6-6" /></radialGradient><style
       id="style1-6">
      .st0 {
        fill: #b0aca9;
      }

      .st0, .st1, .st2, .st3, .st4, .st5, .st6, .st7 {
        display: none;
      }

      .st8 {
        fill: #4f4f4f;
      }

      .st9 {
        fill: #2a4d9b;
      }

      .st10 {
        fill: #d29ab8;
      }

      .st1, .st11, .st12, .st5, .st13, .st14, .st7, .st15 {
        isolation: isolate;
      }

      .st1, .st11, .st5, .st13, .st14, .st7 {
        opacity: .2;
      }

      .st16 {
        fill: #a95b86;
      }

      .st2 {
        fill: #009587;
      }

      .st11, .st17, .st5 {
        fill-rule: evenodd;
      }

      .st18, .st17, .st4, .st14, .st7, .st15 {
        fill: #fff;
      }

      .st3 {
        fill: #8561c5;
      }

      .st19 {
        fill: #2f2f2f;
      }

      .st20 {
        fill: #e74185;
      }

      .st21 {
        fill: none;
        stroke: #ff631b;
        stroke-linecap: round;
        stroke-linejoin: round;
        stroke-width: 5.1px;
      }

      .st22 {
        fill: #d8d8d8;
      }

      .st12, .st15 {
        opacity: .1;
      }

      .st23 {
        fill: #ff631b;
      }

      .st24 {
        fill: #57779f;
      }

      .st25 {
        fill: #1554d4;
      }

      .st26 {
        fill: #765ffc;
      }

      .st27 {
        fill: #1e298c;
      }

      .st28 {
        fill: #c03630;
      }

      .st29 {
        fill: #ffc500;
      }

      .st30 {
        fill: #73a0d6;
      }

      .st31 {
        fill: #277f8d;
      }
    </style></defs><path
     class="st18"
     d="M 58.196208,74.037384 H 10.414439 c -9.94908133,0 -18.0654366,-8.175728 -18.0654366,-18.065721 V 7.7084866 c 0,-9.889993 8.11635527,-18.0657216 17.9345266,-18.0657216 h 47.781769 c 9.818172,0 17.934528,8.1757286 17.934528,18.0657216 V 55.971663 c 0,9.889993 -8.116356,18.065721 -17.934528,18.065721 v 0 z"
     id="path1"
     style="stroke-width:1.31386;fill:#e4e4e4;opacity:1;fill-opacity:1"
     transform="matrix(0.76500823,0,0,0.7572335,5.9030766,7.9364123)" /><g
     id="g28"
     transform="matrix(0.88137009,0,0,0.87524366,4.4979116,4.0224172)"><path
       style="opacity:0.2"
       d="M 4.363444,42.65065 C 4.163549,42.444132 3.9999998,38.698848 3.9999998,34.327798 v -7.947364 l 2.56088,-1.13631 c 4.3730632,-1.9404 6.2916742,-5.07564 5.6576132,-9.717117 -0.153308,-1.122192 -0.119915,-2.298225 0.07433,-2.613409 0.454259,-0.737464 12.89216,-7.9136116 13.73022,-7.9136116 0.348674,0 0.844196,0.2734858 1.101162,0.607747 1.64843,2.144239 3.33204,10.2392496 2.762788,13.2837496 -0.256162,1.369949 -0.653062,1.736845 -2.844104,2.629083 -3.087204,1.257166 -5.677788,3.818178 -7.074633,6.993874 -0.837293,1.903552 -1.007373,3.084888 -0.871942,6.056212 l 0.168246,3.69137 -1.619857,1.097152 C 14.152154,41.724704 5.5344618,43.860428 4.363511,42.65065 Z"
       id="path1-2" /><path
       style="opacity:0.2"
       d="M 59.636556,42.65065 C 59.836456,42.444132 60,38.698848 60,34.327798 v -7.947364 l -2.56088,-1.13631 c -4.373064,-1.9404 -6.153794,-5.07564 -5.519734,-9.717117 0.1533,-1.122192 0.11992,-2.298225 -0.07432,-2.613409 C 51.3908,12.176134 38.81502,4.9999864 37.97696,4.9999864 c -0.348676,0 -0.844194,0.2734858 -1.10116,0.607747 -1.64843,2.144239 -3.33204,10.2392496 -2.762788,13.2837496 0.256158,1.369949 0.65306,1.736845 2.844104,2.629083 3.087202,1.257166 5.677786,3.818178 7.07463,6.993874 0.837294,1.903552 1.007374,3.084888 0.871942,6.056212 l -0.16824,3.69137 1.619858,1.097152 c 3.49255,2.36553 12.110244,4.501254 13.281192,3.291476 z"
       id="path2" /><path
       style="opacity:0.2"
       d="m 17.273671,57.509472 c -7.253104,-4.317752 -7.559294,-4.584054 -7.162861,-6.23032 0.39291,-1.63166 6.321181,-7.437794 9.224332,-9.034268 L 21.598928,41 l 2.062134,1.702308 c 2.596936,2.143798 4.983514,3.039436 8.175368,3.068064 3.203594,0.02874 5.251982,-0.707332 8.238554,-2.960424 l 2.395718,-1.807348 2.26904,1.234828 c 1.247978,0.679156 3.890178,2.878334 5.871566,4.887062 4.975094,5.043732 4.964228,5.076276 -3.35418,10.055744 -2.315082,1.385828 -4.46579,2.61159 -5.806686,3.321396 -1.479338,0.964222 -1.65628,0.284776 -2.49663,-0.729932 C 37.717236,58.507926 35.429388,56.999986 32,56.999986 c -3.738722,0 -5.993842,1.82439 -7.054764,3.10204 -0.759248,1.373536 -1.218474,0.88194 -2.255952,0.414988 -1.32111,-0.65611 -3.322025,-1.761238 -5.415613,-3.007542 z"
       id="path3" /><path
       style="fill:#4061dc"
       d="m 17.273671,56.509486 c -7.253104,-4.317752 -7.559294,-4.584054 -7.162861,-6.23032 0.39291,-1.63166 6.321181,-7.437794 9.224332,-9.034268 l 2.263786,-1.244884 2.062134,1.702308 c 2.596936,2.143798 4.983514,3.039436 8.175368,3.068064 3.203594,0.02874 5.251982,-0.707332 8.238554,-2.960424 l 2.395718,-1.807348 2.26904,1.234828 c 1.247978,0.679156 3.890178,2.878334 5.871566,4.887062 4.975094,5.043732 4.964228,5.076276 -3.35418,10.055744 -2.315082,1.385828 -4.46579,2.61159 -5.806686,3.321396 -1.479338,0.964222 -1.65628,0.284776 -2.49663,-0.729932 C 37.717236,57.50794 35.429388,56 32,56 c -3.738722,0 -5.993842,1.82439 -7.054764,3.10204 -0.759248,1.373536 -1.218474,0.88194 -2.255952,0.414988 -1.32111,-0.65611 -3.322025,-1.761238 -5.415613,-3.007542 z"
       id="path4" /><path
       style="fill:#088aff"
       d="M 4.363444,41.650664 C 4.163549,41.444146 3.9999998,37.698862 3.9999998,33.327812 v -7.947364 l 2.56088,-1.13631 c 4.3730632,-1.9404 6.2916742,-5.075641 5.6576132,-9.717117 -0.153308,-1.122192 -0.119915,-2.298225 0.07433,-2.613409 C 12.747085,11.176147 25.184986,4 26.023046,4 c 0.348674,0 0.844196,0.2734858 1.101162,0.607747 1.64843,2.144239 3.33204,10.239249 2.762788,13.28375 -0.256162,1.369948 -0.653062,1.736845 -2.844104,2.629083 -3.087204,1.257166 -5.677788,3.818178 -7.074633,6.993874 -0.837293,1.903552 -1.007373,3.084888 -0.871942,6.056212 l 0.168246,3.69137 -1.619857,1.097152 c -3.492552,2.36553 -12.1102442,4.501254 -13.281195,3.291476 z"
       id="path5" /><path
       style="fill:#5fbbff"
       d="M 59.636556,41.650664 C 59.836456,41.444146 60,37.698862 60,33.327812 v -7.947364 l -2.56088,-1.13631 c -4.373064,-1.9404 -6.153794,-5.075641 -5.519734,-9.717117 0.15331,-1.122192 0.119916,-2.298225 -0.07433,-2.613409 C 51.390792,11.176147 38.815012,4 37.976952,4 c -0.348676,0 -0.844194,0.2734858 -1.10116,0.607747 -1.64843,2.144239 -3.33204,10.239249 -2.762788,13.28375 0.256158,1.369948 0.65306,1.736845 2.844104,2.629083 3.087202,1.257166 5.677786,3.818178 7.07463,6.993874 0.837294,1.903552 1.007374,3.084888 0.871942,6.056212 l -0.16824,3.69137 1.619858,1.097152 c 3.49255,2.36553 12.110244,4.501254 13.281192,3.291476 z"
       id="path6" /><circle
       style="opacity:0.2"
       cx="32"
       cy="33"
       r="14"
       id="circle6" /><circle
       style="fill:#ffffff"
       cx="32"
       cy="32"
       r="14"
       id="circle7" /><path
       style="opacity:0.2;fill:#ffffff"
       d="m 26.023438,4 c -0.838061,0 -13.276207,7.176597 -13.730469,7.914062 -0.1475,0.239335 -0.199707,0.975051 -0.150391,1.806641 0.02287,-0.369045 0.0687,-0.674084 0.150391,-0.806641 C 12.747231,12.176597 25.185377,5 26.023438,5 26.372111,5 26.868034,5.2731607 27.125,5.6074219 28.506577,7.4045442 29.894546,13.35271 29.978516,17.033203 30.174951,13.544858 28.637811,6.5752507 27.125,4.6074219 26.868034,4.2731607 26.372111,4 26.023438,4 Z M 12.318359,16.685547 c -0.16753,3.474497 -2.10177,5.936348 -5.7578121,7.558594 L 4,25.380859 v 1 l 2.5605469,-1.136718 c 3.9973261,-1.77368 5.9370911,-4.550411 5.7578121,-8.558594 z m 6.75586,15.744141 c -0.01938,0.614084 -0.0171,1.294017 0.02148,2.140624 l 0.123047,2.720704 0.04492,-0.0293 -0.167969,-3.691407 c -0.01999,-0.438635 -0.01597,-0.771924 -0.02148,-1.140624 z"
       id="path7" /><path
       style="opacity:0.2;fill:#ffffff"
       d="M 37.976562,4 C 37.627887,4 37.131966,4.2731607 36.875,4.6074219 35.362189,6.5752507 33.825049,13.544858 34.021484,17.033203 34.105454,13.35271 35.493423,7.4045442 36.875,5.6074219 37.131966,5.2731607 37.627887,5 37.976562,5 c 0.83806,0 13.414877,7.176597 13.869141,7.914062 0.08231,0.133556 0.127811,0.441354 0.150391,0.814454 0.0501,-0.834701 -0.0024,-1.57439 -0.150391,-1.814454 C 51.391439,11.176597 38.814622,4 37.976562,4 Z M 51.8125,16.773438 c -0.16802,3.960762 1.658966,6.710042 5.626953,8.470703 L 60,26.380859 v -1 L 57.439453,24.244141 C 53.814094,22.635509 51.975726,20.201858 51.8125,16.773438 Z m -6.886719,15.65625 c -0.0055,0.3687 -0.0015,0.701989 -0.02148,1.140624 l -0.167969,3.691407 0.04492,0.0293 0.123047,-2.720704 c 0.03859,-0.846607 0.04087,-1.52654 0.02148,-2.140624 z"
       id="path8" /></g></svg>
