<?xml version="1.0" encoding="UTF-8"?>
<svg id="_图层_1" xmlns="http://www.w3.org/2000/svg" version="1.1" viewBox="0 0 64 64" width="22" height="22">
  <!-- Generator: Adobe Illustrator 29.0.1, SVG Export Plug-In . SVG Version: 2.1.0 Build 192)  -->
  <defs>
    <style>
      .st0 {
        fill: #2c9f5a;
      }

      .st1 {
        fill: #fff;
      }

      .st2 {
        fill: #f2b714;
      }

      .st3 {
        fill: #0e7dc2;
      }

      .st4 {
        fill: #0ea8f4;
      }

      .st5 {
        display: none;
      }

      .st6 {
        fill: #068fd2;
      }

      .st7 {
        fill: #32cc70;
      }

      .st8 {
        fill: #fb5e46;
      }
    </style>
  </defs>
  <path class="st3" d="M50.4,64H13.8c-7.6,0-13.8-6.2-13.8-13.7V13.7C0,6.2,6.2,0,13.7,0h36.6c7.5,0,13.7,6.2,13.7,13.7v36.6c0,7.5-6.2,13.7-13.7,13.7h.1Z"/>
  <g class="st5">
    <path class="st8" d="M0,21.4h63.9v21.4H0v-21.4Z"/>
    <path class="st4" d="M63.9,21.4v-9C64.1,9.4,59.6,0,50.5,0H13C5.2.1,0,8.4,0,13.3v8c0,0,63.8,0,63.8,0Z"/>
    <path class="st7" d="M0,42.7v8.1c0,9.1,9,13.4,14.6,13.3l34.7-.2c11.9,0,14.7-10.1,14.7-13.6v-7.6H0Z"/>
    <path class="st0" d="M0,42.7h63.9v3.6H0v-3.6Z"/>
    <path class="st6" d="M0,17.8h63.9v3.6H0v-3.6Z"/>
    <path class="st2" d="M25.6,0h12.8v64.1h-12.8s0-64.1,0-64.1Z"/>
    <path class="st1" d="M39,27.5v9.4h-14.5v-9.4h14.5ZM41.4,23.7h-19.2c-.3,0-.9.4-.9,1v14.9c0,.4.3,1,.9,1h19.2c.3,0,.9-.4.9-1v-14.9c-.2-.7-.6-1-.9-1Z"/>
  </g>
  <g class="st5">
    <path class="st5" d="M0,0v64h63.8V.2L0,0Z"/>
    <path class="st1" d="M8.5,12.5h46.9c3.1,0,5.6,2.5,5.6,5.6v25.4c0,3.1-2.5,5.6-5.6,5.6H8.5c-3.1,0-5.6-2.5-5.6-5.6v-25.4c0-3.1,2.5-5.6,5.6-5.6Z"/>
    <path d="M6.4,14.9h26v31.8H6.4V14.9Z"/>
    <path class="st1" d="M29.8,22.2c-2.8,3.5-4.9,6.4-6.2,8.7-1.4,2.3-2.4,4.5-3.1,6.7-.7,2.2-1.1,4.4-1.1,6.7h-5.3c0-3.2.8-6.5,2.4-9.9s4.4-7.4,8.4-12.1h-16v-3.5h20.8v3.3h0Z"/>
    <path d="M58.4,45.9h-22.5v-3.3l15.8-16.5h-14.9v-3.3h20.4v3.3l-15.8,16.5h17v3.3h0Z"/>
  </g>
  <g class="st5">
    <path d="M0,48.4h63.8v-26H28.6v-7.4H0v33.4ZM5.5,20.1h17.7v4.9c-4.6,5.1-7.6,11-7.8,18.1h-6c.2-6.1.9-12.1,6.1-17.1h0c0,0-10,0-10,0v-5.8ZM27.9,23.2h35.1v24.7H27.9v-24.7ZM43.9,26.1v16.8h3.9v-16.8h-3.9ZM51.2,26.2v16.9h4.3v-5.9h2.7c1.1,0,2-.7,2.6-1.7,1.1-2.1,1.1-5.5,0-7.5-.6-1-1.5-1.7-2.7-1.7h-6.8ZM30.2,26.2v3.9h5.9l-6.1,9.1v3.8h11.4v-3.8h-7.2l7.4-9.5v-3.4h-11.4ZM55.3,29.9h1.6c.4,0,.8.2,1,.5.5.7.5,1.8,0,2.4-.2.3-.6.5-1,.4h-1.5c0,.1-.1-3.4-.1-3.4Z"/>
  </g>
  <g>
    <path class="st1" d="M30,48.5c-12.2,1.1-25-.7-26.8-10.3-.9-4.7,1.3-9.8,4.1-12.9v-1.7C2.2,28.2-.6,33.9,1,40.7c2,8.7,13,13.6,29.7,11.9,6.6-.6,15.3-2.8,21.3-6.1v-4.7c-5.5,3.3-14.5,6-22,6.7ZM62.2,23.5c-2.9-14.2-30.4-15.1-48.1-4.3v1.2c17.7-9.1,42.8-9.1,45.1,4,.8,4.3-1.7,8.9-6,11.5v3.4c5.2-1.9,10.6-8.2,9-15.8h0Z"/>
    <path class="st1" d="M51,21.5h-3.2v14.4c0,1.7.8,3.1,3.2,3.4v-17.7h0ZM12.8,26.7h-3.2v9.4c0,1.7.8,3.2,3.2,3.4v-12.8ZM9.6,21.9h3.2v3.1h-3.2v-3.1ZM32,39.3c-2.6,0-3.7-1.8-3.7-3.6v-12.5h3.2v3.4h2.4v2.6h-2.4v6.2c0,.7.3,1.1,1.1,1.1h1.3v2.7s-1.9,0-1.9,0ZM37.8,34c0,1.6,1,2.8,2.8,2.8s2.1-.4,2.9-1.2l2,1.9c-1.3,1.2-2.6,2-4.9,2s-6-1.7-6-6.5,2.5-6.5,5.9-6.5,5.3,2.8,5.3,6.4v1.2s-8.1,0-8.1,0ZM40.4,29.1c-1.1,0-1.9.6-2.3,1.3-.2.5-.3.8-.3,1.4h4.9c0-1.4-.7-2.7-2.3-2.7h0ZM21.4,29.3c.9,0,1.3.5,1.3,1.2v8.8h3.2v-8.8c0-1.8-1-3.8-3.7-3.8h-6.6s0,12.6,0,12.6h3.2v-10s2.6,0,2.6,0ZM54.4,24c-.7,0-1.3-.6-1.3-1.3s.6-1.3,1.3-1.3,1.3.6,1.3,1.3-.6,1.3-1.3,1.3h0ZM54.4,21.7c-.6,0-1.1.5-1.1,1.1s.5,1.1,1.1,1.1,1.1-.5,1.1-1.1c0-.6-.5-1.1-1.1-1.1h0ZM55,23.5h-.2s0,0,0,0l-.3-.6s0,0,0,0h-.1v.5s0,0,0,0h-.2s0,0,0,0v-1.4c0,0,0-.1,0-.1,0,0,.3,0,.4,0,.4,0,.6.1.6.5h0c0,.3-.1.4-.3.4l.3.6s0,0,0,0c0,0,0,0,0,0h0ZM54.7,22.4c0-.2,0-.2-.3-.2h-.2v.4s.2,0,.2,0c.2,0,.3,0,.3-.2h0Z"/>
  </g>
</svg>