<?xml version="1.0" encoding="UTF-8"?>
<svg id="_图层_1" xmlns="http://www.w3.org/2000/svg" version="1.1" viewBox="0 0 64 64" width="22" height="22">
  <!-- Generator: Adobe Illustrator 29.0.1, SVG Export Plug-In . SVG Version: 2.1.0 Build 192)  -->
  <defs>
    <style>
      .st0 {
        fill: #fff716;
      }

      .st1, .st2, .st3, .st4 {
        display: none;
      }

      .st1, .st5 {
        fill: #3f3f3f;
      }

      .st2, .st3, .st6, .st7 {
        isolation: isolate;
      }

      .st2, .st6, .st7 {
        opacity: .2;
      }

      .st3 {
        opacity: .1;
      }

      .st3, .st8, .st7 {
        fill: #fff;
      }

      .st9 {
        fill: #ffd737;
      }

      .st10 {
        fill: #968d5b;
      }

      .st11 {
        fill: #126494;
      }

      .st12 {
        fill: #a45390;
      }

      .st13 {
        fill: #ebebeb;
      }

      .st14 {
        fill: #6db832;
      }

      .st15 {
        fill: #c2352a;
      }

      .st16 {
        fill: #4987d7;
      }

      .st17 {
        fill: #ff950a;
      }
    </style>
  </defs>
  <path class="st5" d="M50.3,64H13.8c-7.6,0-13.8-6.2-13.8-13.7V13.7C0,6.2,6.2,0,13.7,0h36.5c7.5,0,13.7,6.2,13.7,13.7v36.6c0,7.5-6.2,13.7-13.7,13.7h0Z"/>
  <g class="st4">
    <path class="st2" d="M0,59.5v2.3c0,1.9,1.5,3.4,3.4,3.4h57.4c1.9,0,3.4-1.5,3.4-3.4v-2.3c0,1.9-1.5,3.4-3.4,3.4H3.4C1.5,63,0,61.4,0,59.5Z"/>
    <path class="st16" d="M3.2-.1C2.3-.1,1.5.3.9.8l31.2,31.2L63.3.8c-.6-.6-1.4-.9-2.3-.9H3.2h0Z"/>
    <path class="st12" d="M3.2,64.1c-.9,0-1.7-.4-2.3-.9l31.2-31.2,31.2,31.2c-.6.6-1.4.9-2.3.9H3.2h0Z"/>
    <path class="st14" d="M64.2,3.1c0-.9-.4-1.7-.9-2.3l-31.2,31.2,31.2,31.2c.6-.6.9-1.4.9-2.3V3.1h0Z"/>
    <path class="st15" d="M0,3.1C0,2.2.4,1.4.9.8l31.2,31.2L.9,63.2c-.6-.6-.9-1.4-.9-2.3V3.1h0Z"/>
    <path class="st6" d="M35,5.6c-1.4,0-2.5.2-3.6.5-1,.3-1.9.8-2.6,1.3-.7.6-1.3,1.2-1.8,2-.5.8-.8,1.3-1.1,2.1-.3.9-.5,1.8-.6,2.8-.1,1-.2,1.9-.2,2.9h0c0,1.5.2,2.9.5,4,.4,1.1.9,2,1.5,2.8.7.7,1.4,1.3,2.3,1.7.9.4,1.8.5,2.8.5s2-.2,2.8-.5c.8-.3,1.5-.8,2.1-1.4.6-.6,1-1.4,1.3-2.2.3-.9.5-1.9.5-3s-.1-2-.4-2.8c-.3-.8-.6-1.6-1.1-2.1-.5-.6-1.1-1-1.8-1.3-.7-.3-1.5-.4-2.4-.4s-1.1,0-1.5.2c-.4.1-.8.3-1.2.5-.4.2-.7.6-.9.9-.3.3-.5.6-.7.9h-.2c0-1,.2-1.8.4-2.6.2-.8.5-1.1,1-1.7.5-.6,1.1-1,1.9-1.3.8-.3,1.8-.5,3.1-.5s.8,0,1.2,0c.4,0,.8.1,1.1.2v-3.5c-.2,0-.4,0-.6,0-.2,0-.5,0-.7,0-.2,0-.5,0-.7,0s-.4,0-.6,0ZM32.4,16c.8,0,1.5.3,1.9.9.4.6.6,1.4.6,2.4s0,1.1-.2,1.6c-.1.4-.3.8-.5,1.1-.2.3-.5.5-.8.7-.3.1-.7.2-1,.2s-.9-.1-1.2-.4c-.3-.2-.6-.5-.9-.9-.2-.4-.4-.8-.5-1.3-.1-.5-.2-1-.2-1.4s0-.7.2-1c.1-.3.3-.6.6-.9.3-.3.6-.5.9-.7.4-.2.7-.3,1.2-.3ZM47,24v10.3l1,.9c.2,0,.4-.1.6-.2.2,0,.5-.1.8-.2.3,0,.5,0,.8-.1.3,0,.5,0,.8,0,1.3,0,2.3.3,3,.8.6.5,1,1.3,1,2.3s-.3,2-1,2.5c-.7.5-1.6.8-2.9.8s-.9,0-1.3,0c-.5,0-.9-.2-1.4-.3-.5-.1-.9-.3-1.3-.4-.4-.2-.8-.3-1.1-.5v3.7c.3.2.7.3,1.1.5.4.1.9.3,1.3.3.5,0,1,.2,1.5.2.5,0,1,0,1.5,0,1.3,0,2.4-.2,3.4-.5,1-.3,1.8-.8,2.5-1.4.7-.6,1.2-1.4,1.5-2.2.3-.9.5-1.9.5-3s-.2-1.9-.5-2.7c-.3-.8-.8-1.4-1.3-2-.6-.5-1.2-.9-2-1.2-.8-.3-1.6-.4-2.5-.4h0c-.6,0-1.1,0-1.5.1-.4,0-.7.1-1,.2l.3-4.1h6.5v-3.4h-10.3ZM11.5,24.1c-.8,0-1.6,0-2.2.3-.7.2-1.3.4-1.8.6-.6.3-1.1.6-1.5.9-.5.3-.9.5-1.3.9l2.4,2.8c.7-.7,1.5-1.2,2.1-1.6.7-.4,1.4-.5,2.1-.5s1.3.2,1.7.6c.4.4.6.9.6,1.6s0,1.2-.3,1.7c-.2.5-.5,1.1-.8,1.6-.4.5-.8,1.1-1.3,1.6-.5.6-1,1.2-1.7,1.8l-4.8,5.4v2.8h13.7v-3.4h-8.3v-.2l2.5-2.7c.7-.7,1.4-1.4,2-2.1.6-.7,1.2-1.4,1.7-2.1.5-.7.9-1.4,1.1-2.2.3-.7.4-1.5.4-2.3s-.1-1.7-.4-2.4c-.3-.7-.7-1.1-1.3-1.6-.6-.5-1.2-.9-2-1.2-.8-.3-1.7-.4-2.6-.4ZM25.2,42.5v3.2h9.4l-7.3,17.2h4.5l7.1-17.7v-2.7h-13.8Z"/>
    <path class="st8" d="M35,4.5c-1.4,0-2.5.2-3.6.5-1,.3-1.9.8-2.6,1.3-.7.6-1.3,1.2-1.8,2-.5.8-.8,1.3-1.1,2.1-.3.9-.5,1.8-.6,2.8-.1,1-.2,1.9-.2,2.9h0c0,1.5.2,2.9.5,4,.4,1.1.9,2,1.5,2.8.7.7,1.4,1.3,2.3,1.7.9.4,1.8.5,2.8.5s2-.2,2.8-.5c.8-.3,1.5-.8,2.1-1.4.6-.6,1-1.4,1.3-2.2.3-.9.5-1.9.5-3s-.1-2-.4-2.8c-.3-.8-.6-1.6-1.1-2.1-.5-.6-1.1-1-1.8-1.3-.7-.3-1.5-.4-2.4-.4s-1.1,0-1.5.2c-.4.1-.8.3-1.2.5-.4.2-.7.6-.9.9-.3.3-.5.6-.7.9h-.2c0-1,.2-1.8.4-2.6.2-.8.5-1.1,1-1.7.5-.6,1.1-1,1.9-1.3.8-.3,1.8-.5,3.1-.5s.8,0,1.2,0c.4,0,.8.1,1.1.2v-3.5c-.2,0-.4,0-.6,0-.2,0-.5,0-.7,0-.2,0-.5,0-.7,0s-.4,0-.6,0ZM32.4,14.9c.8,0,1.5.3,1.9.9.4.6.6,1.4.6,2.4s0,1.1-.2,1.6c-.1.4-.3.8-.5,1.1-.2.3-.5.5-.8.7-.3.1-.7.2-1,.2s-.9-.1-1.2-.4c-.3-.2-.6-.5-.9-.9-.2-.4-.4-.8-.5-1.3-.1-.5-.2-1-.2-1.4s0-.7.2-1c.1-.3.3-.6.6-.9.3-.3.6-.5.9-.7.4-.2.7-.3,1.2-.3ZM47,22.8v10.3l1,.9c.2,0,.4-.1.6-.2.2,0,.5-.1.8-.2.3,0,.5,0,.8-.1.3,0,.5,0,.8,0,1.3,0,2.3.3,3,.8.6.5,1,1.3,1,2.3s-.3,2-1,2.5c-.7.5-1.6.8-2.9.8s-.9,0-1.3,0c-.5,0-.9-.2-1.4-.3-.5-.1-.9-.3-1.3-.4-.4-.2-.8-.3-1.1-.5v3.7c.3.2.7.3,1.1.5.4.1.9.3,1.3.3.5,0,1,.2,1.5.2.5,0,1,0,1.5,0,1.3,0,2.4-.2,3.4-.5,1-.3,1.8-.8,2.5-1.4.7-.6,1.2-1.4,1.5-2.2.3-.9.5-1.9.5-3s-.2-1.9-.5-2.7c-.3-.8-.8-1.4-1.3-2-.6-.5-1.2-.9-2-1.2-.8-.3-1.6-.4-2.5-.4h0c-.6,0-1.1,0-1.5.1-.4,0-.7.1-1,.2l.3-4.1h6.5v-3.4h-10.3ZM11.5,22.9c-.8,0-1.6,0-2.2.3-.7.2-1.3.4-1.8.6-.6.3-1.1.6-1.5.9-.5.3-.9.5-1.3.9l2.4,2.8c.7-.7,1.5-1.2,2.1-1.6.7-.4,1.4-.5,2.1-.5s1.3.2,1.7.6c.4.4.6.9.6,1.6s0,1.2-.3,1.7c-.2.5-.5,1.1-.8,1.6-.4.5-.8,1.1-1.3,1.6-.5.6-1,1.2-1.7,1.8l-4.8,5.4v2.8h13.7v-3.4h-8.3v-.2l2.5-2.7c.7-.7,1.4-1.4,2-2.1.6-.7,1.2-1.4,1.7-2.1.5-.7.9-1.4,1.1-2.2.3-.7.4-1.5.4-2.3s-.1-1.7-.4-2.4c-.3-.7-.7-1.1-1.3-1.6-.6-.5-1.2-.9-2-1.2-.8-.3-1.7-.4-2.6-.4ZM25.2,41.4v3.2h9.4l-7.3,17.2h4.5l7.1-17.7v-2.7h-13.8Z"/>
    <path class="st3" d="M3.4-.1C1.5-.1,0,1.4,0,3.3v1.1C0,2.6,1.5,1,3.4,1h57.4c1.9,0,3.4,1.5,3.4,3.4v-1.1c0-1.9-1.5-3.4-3.4-3.4H3.4Z"/>
  </g>
  <g class="st4">
    <path class="st2" d="M64.3,33.8c0,17.7-14.4,32-32.1,32S0,51.5,0,33.8,14.4,1.8,32.2,1.8s32.1,14.3,32.1,32Z"/>
    <path class="st1" d="M64.3,32.7c0,17.7-14.4,32-32.1,32S0,50.4,0,32.7,14.4.7,32.2.7s32.1,14.3,32.1,32Z"/>
    <path class="st6" d="M32.2,15.5c-3.7,0-7.3,1.1-10.3,3.2.6,1.5,1.5,2.7,2.6,3.8,2.3-1.6,5-2.4,7.8-2.4,2.8,0,5.5.8,7.8,2.4,1.1-1.1,2-2.3,2.6-3.8-3-2.1-6.6-3.2-10.3-3.2ZM14.5,32.4c-.2,0-.4,0-.6,0,0,.5,0,1,0,1.5,0,6.7,3.7,12.9,9.7,16.1.9-1.2,1.6-2.6,1.9-4.2-4.3-2.4-7-7-7-11.9,0-.3,0-.5,0-.8-1.2-.5-2.6-.7-3.9-.7ZM49.9,32.4c-1.4,0-2.7.3-3.9.7,0,.3,0,.5,0,.8,0,4.9-2.7,9.5-7,11.9.3,1.5,1,3,1.9,4.2,6-3.2,9.7-9.4,9.7-16.1,0-.5,0-1,0-1.5-.2,0-.4,0-.6,0Z"/>
    <path class="st9" d="M32.2,14.4c-3.7,0-7.3,1.1-10.3,3.2.6,1.5,1.5,2.7,2.6,3.8,2.3-1.6,5-2.4,7.8-2.4,2.8,0,5.5.8,7.8,2.4,1.1-1.1,2-2.3,2.6-3.8-3-2.1-6.6-3.2-10.3-3.2ZM14.5,31.2c-.2,0-.4,0-.6,0,0,.5,0,1,0,1.5,0,6.7,3.7,12.9,9.7,16.1.9-1.2,1.6-2.6,1.9-4.2-4.3-2.4-7-7-7-11.9,0-.3,0-.5,0-.8-1.2-.5-2.6-.7-3.9-.7ZM49.9,31.2c-1.4,0-2.7.3-3.9.7,0,.3,0,.5,0,.8,0,4.9-2.7,9.5-7,11.9.3,1.5,1,3,1.9,4.2,6-3.2,9.7-9.4,9.7-16.1,0-.5,0-1,0-1.5-.2,0-.4,0-.6,0Z"/>
    <path class="st6" d="M31.3,1.9c-3.2,0-6.4.7-9.4,1.7-4.6,3.3-7.3,8.6-7.3,14.3,0,2.2.4,4.5,1.3,6.5-7.6.9-13.9,6.5-15.4,14.1.3,1.8.7,3.6,1.3,5.3,0,0,0-.2,0-.3,0-7.1,5.8-12.8,12.9-12.8h0c4.5,0,8.6,2.3,11,6.1l2.2-1.3c-.2-.5-.3-1.1-.3-1.7,0-2.3,1.7-4.3,4-4.7v-1.7c-6.8-.4-12-6-12-12.8,0-6.7,5.2-12.3,11.9-12.8ZM33.5,1.9c6.6.7,11.6,6.2,11.6,12.7,0,6.8-5.3,12.4-12,12.8v1.7c2.3.4,4,2.4,4,4.7,0,.5,0,.9-.2,1.4l2.3,1.3c2.4-3.7,6.4-5.9,10.8-5.9,7.1,0,12.9,5.7,12.9,12.8,0,.1,0,.3,0,.4.6-1.8,1-3.6,1.3-5.5-1.5-7.5-7.7-13.1-15.4-14,.8-2.1,1.3-4.3,1.3-6.5,0-5.7-2.8-11-7.4-14.3-2.9-1-5.9-1.5-9-1.7ZM36.1,36.7c-.9,1.2-2.3,2-3.9,2-1.4,0-2.8-.6-3.7-1.7l-2.3,1.3c.8,1.7,1.1,3.4,1.1,5.3,0,7.1-5.8,12.8-12.9,12.8-2.6,0-5.1-.8-7.2-2.2,1.3,1.6,2.7,3,4.2,4.3,2,.8,4.1,1.2,6.3,1.2,5.8,0,11.2-2.8,14.5-7.5,3.3,4.7,8.7,7.5,14.5,7.5,2.1,0,4.2-.4,6.2-1.2,1.6-1.3,3-2.7,4.3-4.3-2.1,1.5-4.7,2.3-7.3,2.3-7.1,0-12.9-5.7-12.9-12.8,0-1.9.4-3.8,1.3-5.5l-2.2-1.3Z"/>
    <path class="st17" d="M31.3.7c-3.2,0-6.4.7-9.4,1.7-4.6,3.3-7.3,8.6-7.3,14.3,0,2.2.4,4.5,1.3,6.5-7.6.9-13.9,6.5-15.4,14.1.3,1.8.7,3.6,1.3,5.3,0,0,0-.2,0-.3,0-7.1,5.8-12.8,12.9-12.8h0c4.5,0,8.6,2.3,11,6.1l2.2-1.3c-.2-.5-.3-1.1-.3-1.7,0-2.3,1.7-4.3,4-4.7v-1.7c-6.8-.4-12-6-12-12.8,0-6.7,5.2-12.3,11.9-12.8ZM33.5.7c6.6.7,11.6,6.2,11.6,12.7,0,6.8-5.3,12.4-12,12.8v1.7c2.3.4,4,2.4,4,4.7,0,.5,0,.9-.2,1.4l2.3,1.3c2.4-3.7,6.4-5.9,10.8-5.9,7.1,0,12.9,5.7,12.9,12.8,0,.1,0,.3,0,.4.6-1.8,1-3.6,1.3-5.5-1.5-7.5-7.7-13.1-15.4-14,.8-2.1,1.3-4.3,1.3-6.5,0-5.7-2.8-11-7.4-14.3-2.9-1-5.9-1.5-9-1.7ZM36.1,35.5c-.9,1.2-2.3,2-3.9,2-1.4,0-2.8-.6-3.7-1.7l-2.3,1.3c.8,1.7,1.1,3.4,1.1,5.3,0,7.1-5.8,12.8-12.9,12.8-2.6,0-5.1-.8-7.2-2.2,1.3,1.6,2.7,3,4.2,4.3,2,.8,4.1,1.2,6.3,1.2,5.8,0,11.2-2.8,14.5-7.5,3.3,4.7,8.7,7.5,14.5,7.5,2.1,0,4.2-.4,6.2-1.2,1.6-1.3,3-2.7,4.3-4.3-2.1,1.5-4.7,2.3-7.3,2.3-7.1,0-12.9-5.7-12.9-12.8,0-1.9.4-3.8,1.3-5.5l-2.2-1.3Z"/>
    <path class="st7" d="M32.2,14.4c-3.7,0-7.3,1.1-10.3,3.2.1.3.3.6.4.9,3-1.9,6.4-2.9,9.9-2.9,3.5,0,7,1,9.9,2.9.1-.3.3-.6.4-.9-3-2.1-6.6-3.2-10.3-3.2ZM14.5,31.2c-.2,0-.4,0-.6,0,0,.5,0,1,0,1.5,0,.2,0,.4,0,.6,0-.3,0-.6,0-.9.2,0,.4,0,.6,0,1.4,0,2.7.3,3.9.7,0-.1,0-.3,0-.4,0-.3,0-.5,0-.8-1.2-.5-2.6-.7-3.9-.7ZM49.9,31.2c-1.4,0-2.7.3-3.9.7,0,.3,0,.5,0,.8,0,.1,0,.3,0,.4,1.2-.5,2.6-.7,3.9-.7.2,0,.4,0,.6,0,0,.3,0,.7,0,1,0-.2,0-.5,0-.7,0-.5,0-1,0-1.5-.2,0-.4,0-.6,0ZM45.9,33.3c-.2,4.7-2.8,9-7,11.3,0,.3.2.7.3,1,4.2-2.5,6.7-6.9,6.7-11.8,0-.2,0-.4,0-.6ZM18.4,33.4c0,.2,0,.3,0,.5,0,4.8,2.6,9.3,6.7,11.8.1-.3.2-.6.3-1-4.1-2.3-6.7-6.6-7-11.3Z"/>
    <path class="st7" d="M31.3.7c-3.2,0-6.4.7-9.4,1.7-4.6,3.3-7.3,8.6-7.3,14.3,0,.1,0,.3,0,.4.2-5.4,2.9-10.4,7.3-13.5,1.2-.4,2.4-.7,3.6-1,1.8-1.1,3.8-1.7,5.8-1.9ZM33.5.7c1.9.2,3.8.8,5.4,1.8,1.2.3,2.4.6,3.6,1,4.5,3.2,7.2,8.3,7.4,13.8,0-.2,0-.4,0-.6,0-5.7-2.8-11-7.4-14.3-2.9-1-5.9-1.5-9-1.7ZM45,14c-.2,6.6-5.4,11.9-12,12.3v1.1c6.8-.4,12-6,12-12.8,0-.2,0-.4,0-.7ZM19.4,14.1c0,.2,0,.4,0,.6,0,6.8,5.3,12.3,12,12.8v-1.1c-6.5-.4-11.7-5.7-12-12.2ZM49,23.3c-.1.4-.2.7-.4,1.1,7.4.8,13.6,6.2,15.2,13.5,0-.2,0-.4.1-.7-1.5-7.4-7.5-12.9-15-13.9ZM15.4,23.3c-7.5,1-13.5,6.6-15,14,0,.2,0,.4.1.6,1.7-7.3,7.8-12.7,15.2-13.5-.1-.4-.3-.7-.4-1.1ZM27.4,33.3c0,.2,0,.4,0,.6,0,.2,0,.4,0,.7h.3c-.1-.5-.2-.9-.3-1.3ZM37,33.3c0,.3,0,.6-.2.8h.2s0-.1,0-.3c0-.2,0-.4,0-.6ZM36.1,35.5c-.9,1.2-2.3,2-3.9,2-1.4,0-2.8-.6-3.7-1.7l-2.3,1.3c.1.3.3.6.4.9l1.9-1.1c.9,1.1,2.3,1.7,3.7,1.7,1.5,0,3-.7,3.9-2l1.8,1c.1-.3.2-.6.4-.9l-2.2-1.3ZM27.3,42.9c-.3,6.8-5.9,12.3-12.8,12.3-2.6,0-5.1-.8-7.2-2.2.6.8,1.3,1.5,2,2.3,1.6.7,3.4,1.1,5.2,1.1,7.1,0,12.9-5.7,12.9-12.8h0c0-.2,0-.4,0-.6ZM37,43c0,.2,0,.3,0,.5,0,7.1,5.8,12.8,12.9,12.8h0c1.8,0,3.5-.4,5.2-1.1.7-.7,1.4-1.5,2.1-2.3-2.1,1.5-4.7,2.2-7.3,2.3-6.8,0-12.5-5.3-12.8-12.1Z"/>
    <path class="st3" d="M32.2.7C14.4.7,0,15,0,32.7c0,.2,0,.4,0,.6C.4,15.8,14.7,1.8,32.2,1.8c17.5,0,31.8,14,32.1,31.4,0-.2,0-.4,0-.6C64.3,15,49.9.7,32.2.7Z"/>
  </g>
  <g>
    <path class="st6" d="M56,32.5c0,1.5.5,3.3.2,4.7-2.1,11.1-12.1,19.5-24,19.5S7.7,46,7.7,32.7s1.8-10.4,4.9-14.4c4.5-5.8,11.6-8.9,19.5-8.9,13.5,0,23.8,9.9,23.8,23.1Z"/>
    <path class="st11" d="M56,31.6c0,1.5.5,3.3.2,4.7-2.1,11.1-12.1,19.5-24,19.5S7.7,45.1,7.7,31.9s1.8-10.4,4.9-14.4c4.5-5.8,11.6-8.9,19.5-8.9,13.5,0,23.8,9.9,23.8,23.1Z"/>
    <path class="st6" d="M32.2,8.7c-.2,0-.3,0-.5,0-.3,0-.7,0-1,0-.2,0-.5,0-.7,0-.6,0-1.2.1-1.7.2-.3,0-.6.1-1,.2-.4,0-.7.2-1.1.2-.4,0-.8.2-1.2.3-.5.1-.9.3-1.4.4-.2,0-.5.2-.7.3-2.9,1.1-5.5,2.8-7.8,4.9,0,0-.1.1-.2.2-1.3,1.3-2.5,2.8-3.5,4.3,1.1-1.2,2.5-1.9,3-.6.9.4,1.2-3,2-.8-.3.5-1.8,1.3-.7,1.6,1.4-1.8,3.3-3.4,4.3-5.3,1.6-1.4-.3-.7-1.6-.2-.9.3-1.4.5,0-.4.4-1.1,3.8-2.8,3.2-.9,3.5-.4-1.9.5-.9,2,1.4-.4,3.8-1.3,4.6-3-1.6.2-1.7,0,0-.3,1,.2.6,1.1,2.1,1-1.3.5-4.2,2.4-6,3.4-1.4,1.1-.6,2.4.9,1.2,2.8,0,5.6-.6,7.3-3,.3-1.2-1.1-1.3-.9-2.4-.3-.1-4.2-.8-2.3-1,1.1-.2,2.6-1.1.7-.9,3.8-.4,6.8-.8,10.2.3.5.2.7.5.5,1-2-.2,1.1.6,1.2.9,0,1.5-2.3.8-3.2,1.4,1.3-.5,3,1.9,1.4,2.4,1.4,2.3-1.8,1.4-1.2-.4-2.3,1.1,2.8,3-.4,3.1-.7,1.5-3.2-1.9-4.8.2-.9,1.1-4.1,2.8-1.8,4-.9,1.4-3.4,3.1-2.7.3.8-3.1-2.4-.3-2.6.8.6.5,2.3-1.2.9.5-1.2,1,2.8.7,0,.9-.6.7.3,3.2-1.5,1.9-3.1.4,0,4-2.9,4.8-2.4,1.2-3.8,3.5-3.8,6.1.2,3,3.2,5.6,6.2,5,1.8.4,3.9,1.4,3.1,3.5,3,1.1.4,4.6,2.4,6.2,1.5,3.4,6.6,2.7,8.3-.1,1.4-1.7,3.6-2.5,2.4-5.1.9-2.5,4.5-4.1,4.4-7.1-1.4-.2-3.2,1.7-4-.4-1-1-3.2-3.8-2.6-4.6,1.5,1.6,2.5,3.6,4,5.2,2.1-1.2,4.3-2.8,5-5.2-.9-1.1-2-1.4,0-1.7,3-1.5,4.8,2,6,3.7,2.7.7-.5-3,.7-4.5-.1-2,1.6-3.3,2.4-2.3,1.3,1.9.8,3.9,1.1,6,0,.3,0,.7,0,1,0,0,0-.1,0-.1.4-1.8.6-3.6.6-5.4,0-13.2-10.9-23.9-24.4-24ZM18.5,14.6s.1,0,.3-.2c.1-.1,0-.1,0-.1-.1,0-.5.3-.4.3ZM28.5,10.8c-.6,0-2.2.5-.8.5,1.2-.4,1.1-.6.8-.5ZM34.4,15s0,0-.1,0c-.4,0-1.3.4-.3.4.5-.3.5-.4.4-.4h0ZM31.6,15.7c-.4,0-.9.2-.2,1l.2-.3c.9-.3.5-.7,0-.7ZM25.1,18.5c-.7,0-1.6,1.4.6.9,0-.8-.3-1-.6-.9ZM31.2,21.3c.3,0,.5,1-.3.8,0-.5.1-.7.2-.8,0,0,0,0,.1,0ZM31.4,22.8c.3,0,.3.3-.2,1.2-.4.5-1.2.9-1.7.4.4-.5,1.5-1.5,1.9-1.6ZM30.9,23.2c0,0-.4.8,0,.3,0-.2,0-.3,0-.3ZM39.5,27.6c.1,0,.4.1.8.4.4.4,2.4,2.9.5,2.4,0-.8-1.8-2.8-1.3-2.8ZM34.8,28.2c.2,0,.5.1.6.3,2.8,0,1.9,2-.3,1.1-.5.2-1,.5-1.5.2-.3-1.1.5-1.7,1.2-1.6ZM28.8,28.5c1.6.2,1.9,4.5,3.9,3.4-1-2.1,0-1.2.6.1.8.1,2.1,0,2.7.4.4.2.5.7-.1,1.5-1.9,1.1-4.5-.8-6.1.5-1.9-.3-1.9-2.3-2.7-3-1.2-.2-4.3.5-4-.4,1.9-.7,4.1-3.9,5.6-.8,1.9,1.2-1.8,1.1.2,1.8,2.1-1.1.9-1.8,0-3.3ZM35.9,32.3c-.1-.1-1.5.5-.5.4.4-.2.5-.4.5-.4ZM27.6,29.3c-.3,0-1.2,1.5-.1,1.3.3-1,.3-1.3.1-1.3ZM41.6,34.1c.2,0,.5,0,1,.3,2,0,.7,1.1,0,1.2-.7-.6-1.6-1.5-1-1.5h0ZM54.2,42.9c-.1.3-.3.5-.4.8.1-.3.3-.5.4-.8ZM42.2,49.5c-.2,0-.6.2-1.1.7-.7.3-2.4,3.2-.6,2.6,1.2-.3,2.6-3.4,1.6-3.3Z"/>
    <path class="st10" d="M32.2,7.9c-.2,0-.3,0-.5,0-.3,0-.7,0-1,0-.2,0-.5,0-.7,0-.6,0-1.2.1-1.7.2-.3,0-.6.1-1,.2-.4,0-.7.2-1.1.2-.4,0-.8.2-1.2.3-.5.1-.9.3-1.4.4-.2,0-.5.2-.7.3-2.9,1.1-5.5,2.8-7.8,4.9,0,0-.1.1-.2.2-1.3,1.3-2.5,2.8-3.5,4.3,1.1-1.2,2.5-1.9,3-.6.9.4,1.2-3,2-.8-.3.5-1.8,1.3-.7,1.6,1.4-1.8,3.3-3.4,4.3-5.3,1.6-1.4-.3-.7-1.6-.2-.9.3-1.4.5,0-.4.4-1.1,3.8-2.8,3.2-.9,3.5-.4-1.9.5-.9,2,1.4-.4,3.8-1.3,4.6-3-1.6.2-1.7,0,0-.3,1,.2.6,1.1,2.1,1-1.3.5-4.2,2.4-6,3.4-1.4,1.1-.6,2.4.9,1.2,2.8,0,5.6-.6,7.3-3,.3-1.2-1.1-1.3-.9-2.4-.3-.1-4.2-.8-2.3-1,1.1-.2,2.6-1.1.7-.9,3.8-.4,6.8-.8,10.2.3.5.2.7.5.5,1-2-.2,1.1.6,1.2.9,0,1.5-2.3.8-3.2,1.4,1.3-.5,3,1.9,1.4,2.4,1.4,2.3-1.8,1.4-1.2-.4-2.3,1.1,2.8,3-.4,3.1-.7,1.5-3.2-1.9-4.8.2-.9,1.1-4.1,2.8-1.8,4-.9,1.4-3.4,3.1-2.7.3.8-3.1-2.4-.3-2.6.8.6.5,2.3-1.2.9.5-1.2,1,2.8.7,0,.9-.6.7.3,3.2-1.5,1.9-3.1.4,0,4-2.9,4.8-2.4,1.2-3.8,3.5-3.8,6.1.2,3,3.2,5.6,6.2,5,1.8.4,3.9,1.4,3.1,3.5,3,1.1.4,4.6,2.4,6.2,1.5,3.4,6.6,2.7,8.3-.1,1.4-1.7,3.6-2.5,2.4-5.1.9-2.5,4.5-4.1,4.4-7.1-1.4-.2-3.2,1.7-4-.4-1-1-3.2-3.8-2.6-4.6,1.5,1.6,2.5,3.6,4,5.2,2.1-1.2,4.3-2.8,5-5.2-.9-1.1-2-1.4,0-1.7,3-1.5,4.8,2,6,3.7,2.7.7-.5-3,.7-4.5-.1-2,1.6-3.3,2.4-2.3,1.3,1.9.8,3.9,1.1,6,0,.3,0,.7,0,1,0,0,0-.1,0-.1.4-1.8.6-3.6.6-5.4,0-13.2-10.9-23.9-24.4-24ZM18.5,13.8s.1,0,.3-.2c.1-.1,0-.1,0-.1-.1,0-.5.3-.4.3ZM28.5,9.9c-.6,0-2.2.5-.8.5,1.2-.4,1.1-.6.8-.5ZM34.4,14.1s0,0-.1,0c-.4,0-1.3.4-.3.4.5-.3.5-.4.4-.4h0ZM31.6,14.8c-.4,0-.9.2-.2,1l.2-.3c.9-.3.5-.7,0-.7ZM25.1,17.6c-.7,0-1.6,1.4.6.9,0-.8-.3-1-.6-.9ZM31.2,20.5c.3,0,.5,1-.3.8,0-.5.1-.7.2-.8,0,0,0,0,.1,0ZM31.4,22c.3,0,.3.3-.2,1.2-.4.5-1.2.9-1.7.4.4-.5,1.5-1.5,1.9-1.6ZM30.9,22.3c0,0-.4.8,0,.3,0-.2,0-.3,0-.3ZM39.5,26.8c.1,0,.4.1.8.4.4.4,2.4,2.9.5,2.4,0-.8-1.8-2.8-1.3-2.8ZM34.8,27.3c.2,0,.5.1.6.3,2.8,0,1.9,2-.3,1.1-.5.2-1,.5-1.5.2-.3-1.1.5-1.7,1.2-1.6ZM28.8,27.6c1.6.2,1.9,4.5,3.9,3.4-1-2.1,0-1.2.6.1.8.1,2.1,0,2.7.4.4.2.5.7-.1,1.5-1.9,1.1-4.5-.8-6.1.5-1.9-.3-1.9-2.3-2.7-3-1.2-.2-4.3.5-4-.4,1.9-.7,4.1-3.9,5.6-.8,1.9,1.2-1.8,1.1.2,1.8,2.1-1.1.9-1.8,0-3.3ZM35.9,31.4c-.1-.1-1.5.5-.5.4.4-.2.5-.4.5-.4ZM27.6,28.4c-.3,0-1.2,1.5-.1,1.3.3-1,.3-1.3.1-1.3ZM41.6,33.2c.2,0,.5,0,1,.3,2,0,.7,1.1,0,1.2-.7-.6-1.6-1.5-1-1.5h0ZM54.2,42.1c-.1.3-.3.5-.4.8.1-.3.3-.5.4-.8ZM42.2,48.7c-.2,0-.6.2-1.1.7-.7.3-2.4,3.2-.6,2.6,1.2-.3,2.6-3.4,1.6-3.3Z"/>
    <path class="st6" d="M16.4,19.9l-5.2,2.6v.7l5.2,2.3v-1.2l-3.6-1.5,3.6-1.6v-1.2ZM42.6,19.9v1.2l3.6,1.6-3.6,1.5v1.2l5.2-2.3v-.7l-5.2-2.6ZM21.3,19.9c-.3,0-.6,0-1,.2-.3.1-.5.4-.7.7h0l-.2-.8h-1.2v5.9h1.6v-2.8c0-.6,0-1.1.2-1.4.2-.3.5-.5.9-.5.6,0,.9.4.9,1.3v3.4h1.6v-3c0-.6,0-1,.3-1.3.2-.3.5-.5.9-.5s.9.4.9,1.3v3.4h1.6v-3.8c0-.8-.2-1.3-.5-1.6-.3-.3-.8-.5-1.5-.5s-.7,0-1,.2c-.3.1-.6.4-.7.7h-.1c-.2-.3-.4-.5-.7-.6-.3-.1-.6-.2-1.1-.2ZM31.4,19.9c-.4,0-.8,0-1.2.1-.4,0-.7.2-1,.4l.5,1.1c.3-.1.5-.2.8-.3.3,0,.6-.1.8-.1s.5,0,.7.2c.2.1.2.4.2.7v.3h-1c-.9,0-1.5.2-2,.5-.4.3-.7.7-.7,1.4s.2,1.1.5,1.4c.3.3.8.4,1.3.4s.9,0,1.2-.2c.3-.1.5-.4.8-.7h0l.3.8h1.1v-3.9c0-.7-.2-1.2-.6-1.5-.4-.3-1-.5-1.8-.5ZM38.8,19.9c-.4,0-.7,0-1,.3-.3.2-.5.4-.6.6h0l-.2-.8h-1.2v8.5h1.5v-2.4c0-.3,0-.6,0-.9h0c.2.2.3.4.6.5.2.2.6.2,1,.2.6,0,1.1-.3,1.6-.8.4-.5.6-1.3.6-2.3s-.2-1.8-.6-2.3c-.4-.5-.9-.8-1.5-.8ZM38.3,21.2c.7,0,1,.6,1,1.7,0,.6,0,1-.3,1.3-.2.3-.4.5-.8.5-.4,0-.7-.2-.9-.5-.2-.3-.2-.7-.2-1.3v-.2c0-.5,0-.9.3-1.2.2-.3.4-.4.8-.4ZM32.3,23.1v.5c0,.4-.1.7-.4.9-.2.2-.5.3-.9.3-.2,0-.4,0-.6-.1-.1-.1-.2-.3-.2-.5s.1-.5.3-.7c.2-.2.6-.3,1.1-.3h.6Z"/>
    <path class="st0" d="M16.4,19l-5.2,2.6v.7l5.2,2.3v-1.2l-3.6-1.5,3.6-1.6v-1.2ZM42.6,19v1.2l3.6,1.6-3.6,1.5v1.2l5.2-2.3v-.7l-5.2-2.6ZM21.3,19c-.3,0-.6,0-1,.2-.3.1-.5.4-.7.7h0l-.2-.8h-1.2v5.9h1.6v-2.8c0-.6,0-1.1.2-1.4.2-.3.5-.5.9-.5.6,0,.9.4.9,1.3v3.4h1.6v-3c0-.6,0-1,.3-1.3.2-.3.5-.5.9-.5s.9.4.9,1.3v3.4h1.6v-3.8c0-.8-.2-1.3-.5-1.6-.3-.3-.8-.5-1.5-.5s-.7,0-1,.2c-.3.1-.6.4-.7.7h-.1c-.2-.3-.4-.5-.7-.6-.3-.1-.6-.2-1.1-.2ZM31.4,19c-.4,0-.8,0-1.2.1-.4,0-.7.2-1,.4l.5,1.1c.3-.1.5-.2.8-.3.3,0,.6-.1.8-.1s.5,0,.7.2c.2.1.2.4.2.7v.3h-1c-.9,0-1.5.2-2,.5-.4.3-.7.7-.7,1.4s.2,1.1.5,1.4c.3.3.8.4,1.3.4s.9,0,1.2-.2c.3-.1.5-.4.8-.7h0l.3.8h1.1v-3.9c0-.7-.2-1.2-.6-1.5-.4-.3-1-.5-1.8-.5ZM38.8,19c-.4,0-.7,0-1,.3-.3.2-.5.4-.6.6h0l-.2-.8h-1.2v8.5h1.5v-2.4c0-.3,0-.6,0-.9h0c.2.2.3.4.6.5.2.2.6.2,1,.2.6,0,1.1-.3,1.6-.8.4-.5.6-1.3.6-2.3s-.2-1.8-.6-2.3c-.4-.5-.9-.8-1.5-.8ZM38.3,20.3c.7,0,1,.6,1,1.7,0,.6,0,1-.3,1.3-.2.3-.4.5-.8.5-.4,0-.7-.2-.9-.5-.2-.3-.2-.7-.2-1.3v-.2c0-.5,0-.9.3-1.2.2-.3.4-.4.8-.4ZM32.3,22.2v.5c0,.4-.1.7-.4.9-.2.2-.5.3-.9.3-.2,0-.4,0-.6-.1-.1-.1-.2-.3-.2-.5s.1-.5.3-.7c.2-.2.6-.3,1.1-.3h.6Z"/>
    <path class="st6" d="M31.2,29.3c-2.6,0-2.6,1.7-2.6,3.4,0,1.1,0,3.3,0,6.5,0,5.2,0,6.8,0,7.1-1.8-.2-4.6-.9-5.8-1.9-.8-.6-1.6-1.2-1.8-1.3-.7-.3-1.7-.1-2.3.4-.4.4-.5.7-.6,1.3,0,.5,0,.6.1.9,0,.2.3.5.4.6.1.1,1.6,2.1,3.4,4.3,3.2,4.2,6.5,5.7,7,5.9.3,0,17.9,0,18.2,0,.2,0,.4-.2.6-.3.2-.2.3-.4.5-.9.5-1.6,1-3.9,1.2-5.2,0-1.5,0-1.6,0-2.8,0,0,0,0,0,0,0-1.1,0-2,0-2.5,0-1.7,0-3.4-2.6-3.4s-2.6,1.4-2.6,2.9c0,0,0,0,0,.1,0-.4,0-1.1,0-1.3,0-1.7,0-3.4-2.6-3.4s-2.6,1.4-2.6,2.9c0,0,0,0,0,0,0,0,0,0,0-.1,0-.3,0-.9,0-1.1,0-1.7,0-3.4-2.6-3.4s-2.5,1-2.6,2.2c0,0,0,0,0,0,0,0,0-2.1,0-4.3s0-2.5,0-3c0-1.7,0-3.4-2.6-3.4h0Z"/>
    <path class="st13" d="M31.2,28.4c-2.6,0-2.6,1.7-2.6,3.4,0,1.1,0,3.3,0,6.5,0,5.2,0,6.8,0,7.1-1.8-.2-4.6-.9-5.8-1.9-.8-.6-1.6-1.2-1.8-1.3-.7-.3-1.7-.1-2.3.4-.4.4-.5.7-.6,1.3,0,.5,0,.6.1.9,0,.2.3.5.4.6.1.1,1.6,2.1,3.4,4.3,3.2,4.2,6.5,5.7,7,5.9.3,0,17.9,0,18.2,0,.2,0,.4-.2.6-.3.2-.2.3-.4.5-.9.5-1.6,1-3.9,1.2-5.2,0-1.5,0-1.6,0-2.8,0,0,0,0,0,0,0-1.1,0-2,0-2.5,0-1.7,0-3.4-2.6-3.4s-2.6,1.4-2.6,2.9c0,0,0,0,0,.1,0-.4,0-1.1,0-1.3,0-1.7,0-3.4-2.6-3.4s-2.6,1.4-2.6,2.9c0,0,0,0,0,0,0,0,0,0,0-.1,0-.3,0-.9,0-1.1,0-1.7,0-3.4-2.6-3.4s-2.5,1-2.6,2.2c0,0,0,0,0,0,0,0,0-2.1,0-4.3s0-2.5,0-3c0-1.7,0-3.4-2.6-3.4h0Z"/>
    <path class="st7" d="M32.1,7.9c-13.5,0-24.5,10.7-24.5,24,0,.2,0,.3,0,.5.2-13.1,11.1-23.6,24.4-23.6,13.3,0,24.2,10.4,24.4,23.5,0-.1,0-.2,0-.4,0-13.2-10.9-24-24.5-24Z"/>
  </g>
</svg>