<?xml version="1.0" encoding="UTF-8"?>
<svg id="_图层_1" xmlns="http://www.w3.org/2000/svg" version="1.1" viewBox="0 0 64 64" width="22" height="22">
  <!-- Generator: Adobe Illustrator 29.0.1, SVG Export Plug-In . SVG Version: 2.1.0 Build 192)  -->
  <defs>
    <style>
      .st0 {
        fill: #4f4f4f;
      }

      .st1, .st2, .st3, .st4 {
        opacity: .2;
      }

      .st1, .st5, .st6, .st4 {
        display: none;
      }

      .st1, .st7, .st3, .st4, .st8 {
        isolation: isolate;
      }

      .st9, .st5 {
        fill: #a1a331;
      }

      .st10 {
        fill: #c2c2c2;
      }

      .st11, .st4, .st8 {
        fill: #fff;
      }

      .st7, .st8 {
        opacity: .1;
      }

      .st12 {
        fill: #ff352e;
      }

      .st13 {
        fill: #efefef;
      }

      .st14 {
        fill: #e4e4e4;
      }
    </style>
  </defs>
  <path class="st9" d="M50.4,64H13.8c-7.6,0-13.8-6.2-13.8-13.7V13.7C0,6.2,6.2,0,13.7,0h36.5c7.5,0,13.7,6.2,13.7,13.7v36.6c0,7.5-6.2,13.7-13.7,13.7h.1Z"/>
  <g class="st6">
    <path class="st1" d="M0,33c0,.4,0,.7,0,1.1C0,51.2,14.2,64.9,31.9,64.9s30.9-12.8,31.8-29h0v-2.3h0c-1,16.3-14.8,29-31.8,29S.7,49.6,0,33h0Z"/>
    <path class="st5" d="M31.7,2.2h0C14.1,2.3,0,16,0,33s14.2,30.8,31.9,30.8,30.9-12.8,31.8-29h0V8.4c0-3.4-2.8-6.2-6.4-6.2h-25.8,0Z"/>
    <ellipse class="st3" cx="31.9" cy="34.1" rx="22.8" ry="22"/>
    <ellipse class="st13" cx="31.9" cy="33" rx="22.8" ry="22"/>
    <g class="st2">
      <path d="M55.1,16.6h5.3v2.1h-8v-2l1.3-1.4c1.6-1.6,2.9-2.6,3.2-3,.4-.5.7-.9.9-1.2.2-.4.3-.7.3-1.1,0-.5-.2-.7-.5-1-.3-.3-1.4-.4-2-.4-1.1,0-2.3.5-3.2.8v-2c.6-.2,1.2-.4,1.7-.5.6-.1,1.1-.2,1.6-.2,1.3,0,2.6.3,3.3.9.8.6,1.1,1.2,1.1,2.2s0,.9-.3,1.3c-.2.4-.4.9-.8,1.4-.3.4-1.1,1.2-2.4,2.5-.7.7-1.3,1.2-1.7,1.7h0Z"/>
    </g>
    <path class="st11" d="M55.1,15.5h5.3v2.1h-8v-2l1.3-1.4c1.6-1.6,2.9-2.6,3.2-3,.4-.5.7-.9.9-1.2.2-.4.3-.7.3-1.1,0-.5-.2-.7-.5-1-.3-.3-1.4-.4-2-.4-1.1,0-2.3.5-3.2.8v-2c.6-.2,1.2-.4,1.7-.5.6-.1,1.1-.2,1.6-.2,1.3,0,2.6.3,3.3.9.8.6,1.1,1.2,1.1,2.2s0,.9-.3,1.3c-.2.4-.4.9-.8,1.4-.3.4-1.1,1.2-2.4,2.5-.7.7-1.3,1.2-1.7,1.7h0Z"/>
    <path class="st4" d="M31.7,2.2C14.1,2.3,0,16,0,33s0,.2,0,.4C.4,16.7,14.4,3.4,31.7,3.3h25.8c3.5,0,6.4,2.8,6.4,6.2v-1.1c0-3.4-2.8-6.2-6.4-6.2h-25.8Z"/>
    <path class="st12" d="M32,17.6c-.2,0-.3.1-.4.4,0,.1,0,.4,0,.5,0,.2,0,.3,0,.4s0,.2.2.4c.1.2.1.2,0,.4-.2.2-.4.4-.8.4-.3,0-.3,0-.3.3s0,.3-.3.5c-.2.1-.4.2-.6.3-.2,0-.3.1-.5.3-.3.3-.9.6-1.1.5-.1,0-.3-.1-.4-.2-.2-.2-.5-.2-.6,0-.1.2,0,.5.3.8.2.2.3.3.3.4,0,.2-.3.4-.6.5-.5.2-.6.5-.4.9,0,.1.2.4.2.5.1.4,0,.8-.4,1.1-.3.2-.3.4-.1.6.3.2.2.4-.3.6-.8.3-1,.7-.7,1.4.2.4.1.5-.1.7-.3.2-.4.4-.6.9-.2.5-.3.6-.6.8-.4.2-.9.9-.9,1.1,0,.2.6,1,1,1.5.2.3.3.7.2.9-.2.3-.5.7-.8.8-.3.1-.3.1-.6,0-.2,0-.5-.3-.7-.5-.5-.5-.6-.5-.9-.1-.1.2-.2.4-.2.6,0,.4,0,.4-.8.5-.5,0-.7.1-1.2.5-.3.2-.4.2-.7,0-.1,0-.5-.3-.9-.4-.6-.2-.7-.2-.9-.5-.1-.1-.2-.3-.2-.4,0-.3-1.1-1.7-1.4-1.8,0,0-.4-.2-.7-.3-.5-.2-.6-.2-1.1-.2-.7,0-1,.2-1.5.7-.3.4-.4.6-.5,1.2-.2,1.4-.2,1.6.5,1.7.5,0,.6.1.9.6.1.2.2.3.3.4.1,0,.8.3,1.4.5.4.1.6.3,1,.7.1.2.4.4.5.6.2.1.3.3.3.4s-.2.3-.4.4c-.4.4-.4.5-.3,1.1,0,.3.2.4.4.5.2,0,.4.3.6.4.3.3.3.3.2.4,0,.1-.1.2-.2.2s-.1.1-.2.3c0,.2,0,.2,0,.5.1.2.1.3.1.6,0,.3,0,.4,0,.5,0,0,.2.3.3.5.2.4.2.5,1.4.9.2,0,.3.2.4.5,0,.2.2.5.2.6.1.4.5.7,1.1.7s.6.1.6.2.5.7.8.9c.1,0,.4.2.5.2.2,0,.3,0,.8.5.3.3.6.6.7.8.1.2.3.3.5.4h0c.2.1.4.1,2,0,.8,0,.9-.1,1.1-.5.1-.4,0-.6-.4-.8-.3-.1-.4-.2-.7,0-.3,0-.4,0-.7,0-.2,0-.5-.1-.6-.1-.4,0-.3-.1,0-.3.4-.2.5-.2.7,0,.4.3.6.1.5-.4,0-.2,0-.3.4-.6.2-.2.6-.5.7-.5.3-.1.4-.1.8-.1.4,0,.5,0,.7,0,.3-.1.3-.2.1-.7,0-.3,0-.3,0-.5.2-.3.5-.6.7-.6s.6.2.8.4c.1.1.2.2.7.2.3,0,.6,0,.6,0,0,0,.3,0,.6,0,.5,0,.6,0,1,.1.3,0,.7.2.9.3.5.1.7.2.9.6.2.3.3.4.9.8.7.4,1.3.5,2,.1.2,0,.4-.2.5-.2.2,0,.5-.3.6-.6,0-.3.1-.3.4-.3s.3,0,.4-.1c0,0,.2-.1.4-.1.3,0,.4-.1.4-.4s0-.3.3-.4c.5-.4.6-.4.9-.3.5.2.8.2,1.7-.3.3-.1.6-.3.7-.3s.4.1.7.3c.7.5.9.4,1.2-.2.1-.4.1-.5-.4-.8-.5-.3-.5-.4-.3-.7.2-.3.4-.4,1.2-.6.6-.1.8-.2,1.8-.8.5-.3.7-.4.9-.4,1.1,0,1.6-1,1.7-3.2,0-.3,0-.6.3-1,.5-1,.6-1.4.7-2.3,0-.6,0-1,0-1.2,0-.2,0-.7,0-1.5.2-2.1.2-2.5-.3-3.1-.1-.2-.2-.4-.3-.7,0-.5-.2-.9-.6-1.5-.3-.6-.5-.8-1-1.3-.5-.5-.5-.6-.5-1.3,0-.4,0-.7-.1-.8,0-.1-.1-.3-.1-.5s0-.2-.1-.3c-.2,0-1.1-.1-1.2,0,0,0-.1.2-.1.4,0,.2,0,.3-.2.4-.2,0-.8-.2-1-.5,0-.1-.3-.3-.4-.4-.4-.3-.5-.4-.6-.7,0-.2,0-.3.2-.6.3-.4.4-1.1.2-1.3-.2-.2-.5-.3-.9-.3-.3,0-.3,0-.5.4-.1.2-.3.4-.5.5-.2,0-.4.3-.5.4-.3.2-.6.2-.9,0-.2,0-.2-.1-.3-.5,0-.3-.1-.5-.3-.7-.1-.2-.3-.4-.3-.6,0-.2-.1-.3-.3-.4-.1,0-.3-.3-.4-.4-.1-.2-.5-.4-.8-.4-.2,0-.3,0-.7.4-.3.2-.5.5-.6.5,0,0-.3,0-.6-.1-.5-.2-.7-.2-1,0-.1,0-.2,0-.5,0-.4-.1-.6,0-.8.2-.3.4-.6.4-.7,0,0-.3-.3-.4-.7-.4-.2,0-.4,0-.6-.2-.4-.2-.7-.2-1.2,0-.3,0-.4,0-.5,0,0-.1,0-.1,0-.3.2-.3.2-.4,0-.7-.2-.2-.4-.3-.6-.3h0ZM38.3,22c.5,0,1.1,0,1.9.2.3,0,.8.1,1.1.2.3,0,.6,0,.8.1.5,0,.7.2.9.5.1.2.1.2,0,.3-.2,0-.1.2,0,.3,0,0,.1.2.1.2,0,.2.1.4.3.4s.4.2.3.4c0,0,0,.2,0,.3,0,0,0,0-.1,0-.6,0-.9,0-.7.3,0,.1,0,.2-.1.3-.3.2-.3.3,0,.3s.2,0,.2.1c0,.2,0,.2.3,0,.2-.1.2-.2.3,0,.1,0,.1.2.1.6,0,.6.1,1.6.3,1.8.2.4.3.9.2,1.6,0,.4,0,.9-.1,1.2,0,.4,0,.6-.2.7-.2.2-.2.3-.2,1.6,0,.7,0,.7.2,1,.1.1.3.3.4.3.1,0,.1,0,0,.2,0,0-.2.2-.2.3,0,.1,0,.1.2,0,.2,0,.2,0,.3.1,0,.2.3.2.4,0,0-.1.1-.2.4-.2.3,0,.4,0,.4.2,0,.2.2.2.4.2.2,0,.3,0,.5.5.2.5.2.7,0,1-.2.4-.8.8-1.8,1.2-.5.2-.7.3-.9.5-.5.5-.6.7-.6,2.2,0,2.4,0,2.4-.1,2.7,0,.1-.1.3-.2.4h0c-.1,0-.3.1-.8.1-.4,0-.7,0-.7,0,0,0-1.1-.1-1.4,0-.1,0-.1,0-.1-.2s-.2-.5-.3-.4c-.1.3-.5.3-.5,0s-.2-.2-.3,0c-.1.3-.3.3-.3,0,.1-.5.1-.6,0-.6-.2,0-.3-.2-.2-.4.1-.3,0-.5-.2-.6-.1,0-.2,0-.2-.5,0-.3,0-.6,0-.8,0-.3-.2-.3-.5-.5-.2-.1-.3-.2-.3-.3s0-.2-.1-.3c0-.1-.1-.1-.3,0-.2.1-.2.1-.6.1-.5,0-1.2,0-2.2-.1-.8,0-1.3,0-1.4-.2,0,0-.4,0-.9-.1-.4,0-.9-.1-1.1-.2-.1,0-.4,0-.6,0-.2,0-.7,0-1,0-.7,0-1-.6-1.1-1,0-.1-.2-.3-.3-.3-.2-.1-.2-.1-.2-.5,0-.2,0-.4.1-.5,0,0,.1-.2,0-.4,0-.3,0-.3,0-.4,0,0,.2-.2.2-.2s0-.1.2-.2c.1,0,.1-.1.1-.2,0-.1,0-.2.1-.4.2-.2.2-.2,0-.3-.1-.1-.1-.1.1-.5.2-.4.2-.4.2-.6-.1-.4.2-.8,1-1.5.6-.5.7-.6.8-1,0-.2.2-.5.3-.7,0-.2.2-.4.2-.5,0-.1.2-.4.3-.7.2-.4.5-.7,1.3-1.4.6-.5,1.2-1.1,1.3-1.3.6-.7.7-.9.7-1.1,0-.1.2-.4.4-.6.3-.4.5-.7.7-1.1.3-.5,1.1-.9,2.2-1.1.1,0,.3,0,.4,0h0ZM37.1,29.8c0,0-.1,0-.2.1-.1,0-.3.2-.4.3-.7.4-1.3,1.1-1.3,1.4,0,.1-.3.7-.6,1-.1.1-.2.4-.2.5,0,.1,0,.4-.1.5,0,.2,0,.9,0,1.1.2.2.7.4,1.1.4h0c.2,0,1,0,1.8,0,1.8,0,2.1,0,2.3-.4.3-.4.3-1.3.3-1.5,0-.2-.3-.4-.4-.4-.2,0-.7-.3-.7-.4,0,0-.1-.3-.2-.5-.2-.5-.3-.8-.4-1.1,0-.3-.6-1-.8-1.1,0,0,0,0-.1,0h0Z"/>
  </g>
  <g>
    <path class="st3" d="M30.1,4.5c-2.3,0-4.2,1.9-4.2,4.2v33.5c0,1.4-6,9.9-6,11.3,0,4.2,7,7,7,7l-1-7,6.3-1.6,1.7,7.6s3.8-3.8,3.2-8.8l.8-.2s-4-8.3-4-9.7v-14.3l4,3.1s7.3,4.1,7.2,8.1c-.2,7.8-7.2,8.8-7.2,8.8,0,0,10,0,10-8.8,0-2,0-3.8-1-5.7.6-1,1-2.7,1-5.3,0-4.2.3-7.5-8.4-12.6-4.3-2.5-5.6-5.6-5.6-5.6h0c0-2.2-1.5-4-3.8-4ZM33.9,15.5l4.2,2.8s7,4.4,7,8.4,0,2,0,2.8c-1.3-1.2-3.1-2.6-5.7-4.1-4.3-2.5-5.4-5.9-5.4-5.9v-4Z"/>
    <path class="st0" d="M37.9,45.5s7-1,7.2-8.8c.1-4-7.2-8.1-7.2-8.1l-4-3.1-2.8-2.8,2.8-4.2s1.1,3.4,5.4,5.9c8.7,5.1,8.6,8.1,8.6,12.3,0,8.8-10,8.8-10,8.8Z"/>
    <path class="st10" d="M31.9,49.5l2,9s4.4-4.4,3-10c-2.8,0-5,1-5,1Z"/>
    <path class="st0" d="M43.9,32.5s1.2.2,1.2-6.8-7-8.4-7-8.4l-4.2-2.8-2.8-2.8,2.8-4.2s1.3,3.1,5.6,5.6c8.7,5.1,8.4,8.4,8.4,12.6,0,8.4-4,6.8-4,6.8Z"/>
    <path class="st8" d="M33.9,7.5l-2.8,4.2.4.4,2.4-3.6s1.3,3.1,5.6,5.6c8,4.7,8.4,7.9,8.4,11.7,0,0,0,0,0,0,0-4.2.3-7.5-8.4-12.6-4.3-2.5-5.6-5.6-5.6-5.6ZM33.9,18.5l-2.8,4.2.4.4,2.4-3.6s1.1,3.4,5.4,5.9c2.6,1.5,4.4,2.9,5.7,4.1,0-.8,0-1.7,0-2.8s0,0,0-.1c0,.7,0,1.4,0,2-1.3-1.2-3.1-2.6-5.7-4.1-4.3-2.5-5.4-5.9-5.4-5.9ZM47.2,31.5c0,.2-.1.4-.2.5.8,1.6.9,3.1,1,4.8,0,0,0-.1,0-.2,0-1.9,0-3.5-.7-5.2ZM45.1,37.2c-.5,7.3-7.2,8.3-7.2,8.3,0,0,1.7,0,3.7-.6,1.7-1.3,3.4-3.4,3.5-7.2,0-.2,0-.3,0-.5Z"/>
    <path class="st7" d="M36.9,48.5c-2.8,0-5,1-5,1l.5,2.4,4.7-1.2c0-.7,0-1.4-.3-2.2Z"/>
    <path class="st14" d="M30.1,3.5c-2.3,0-4.2,1.9-4.2,4.2v33.5c0,1.4-6,9.9-6,11.3,0,4.2,7,7,7,7l-1-7,12-3s-4-8.3-4-9.7V7.7c0-2.3-1.5-4.2-3.8-4.2Z"/>
  </g>
</svg>