<?xml version="1.0" encoding="UTF-8"?>
<svg id="_图层_1" xmlns="http://www.w3.org/2000/svg" version="1.1" viewBox="0 0 64 64" width="22" height="22">
  <!-- Generator: Adobe Illustrator 29.0.1, SVG Export Plug-In . SVG Version: 2.1.0 Build 192)  -->
  <defs>
    <style>
      .st0 {
        fill: #419021;
      }

      .st0, .st1, .st2, .st3, .st4 {
        display: none;
      }

      .st1, .st2, .st5, .st4 {
        isolation: isolate;
      }

      .st1, .st5, .st4 {
        opacity: .2;
      }

      .st2 {
        opacity: .1;
      }

      .st2, .st4 {
        fill: #fff;
      }

      .st6 {
        fill: #b1e59b;
      }

      .st7, .st3 {
        fill: #4ba425;
      }

      .st8 {
        fill: #5aba30;
      }

      .st9 {
        fill: #dff6d4;
      }
    </style>
  </defs>
  <path class="st7" d="M50.3,64H13.9C6.3,64,.2,57.8.2,50.3V13.8C.2,6.2,6.3,0,13.9,0h36.5c7.5,0,13.7,6.2,13.7,13.7v36.5c0,7.5-6.1,13.7-13.7,13.7h0Z"/>
  <g>
    <path class="st1" d="M11.8,1.2h29l23.2,18.3v36.6c0,5.1-5.2,9.1-11.6,9.1H11.8c-6.4,0-11.6-4.1-11.6-9.1V10.4C.2,5.3,5.4,1.2,11.8,1.2Z"/>
    <path class="st3" d="M11.8,0h29l23.2,18.3v36.6c0,5.1-5.2,9.1-11.6,9.1H11.8c-6.4,0-11.6-4.1-11.6-9.1V9.2C.2,4.1,5.4,0,11.8,0Z"/>
    <path class="st5" d="M32.1,35.5h20.3c1.6,0,2.9,1,2.9,2.3v11.4c0,1.3-1.3,2.3-2.9,2.3h-20.3c-1.6,0-2.9-1-2.9-2.3v-11.4c0-1.3,1.3-2.3,2.9-2.3Z"/>
    <path class="st0" d="M46.6,0h17.4v13.7L46.6,0Z"/>
    <path class="st5" d="M11.8,24.1c-1.6,0-2.9,1-2.9,2.3v16c0,1.3,1.3,2.3,2.9,2.3h31.9c1.6,0,2.9-1,2.9-2.3v-16c0-1.3-1.3-2.3-2.9-2.3H11.8ZM11.8,26.4h8.7v2.3h-8.7v-2.3ZM23.4,26.4h8.7v2.3h-8.7v-2.3ZM35,26.4h8.7v2.3h-8.7v-2.3ZM11.8,30.9h8.7v2.3h-8.7v-2.3ZM23.4,30.9h8.7v2.3h-8.7v-2.3ZM35,30.9h8.7v2.3h-8.7v-2.3ZM11.8,35.5h8.7v2.3h-8.7v-2.3ZM23.4,35.5h8.7v2.3h-8.7v-2.3ZM35,35.5h8.7v2.3h-8.7v-2.3ZM11.8,40.1h8.7v2.3h-8.7v-2.3ZM23.4,40.1h8.7v2.3h-8.7v-2.3ZM35,40.1h8.7v2.3h-8.7v-2.3Z"/>
    <path class="st9" d="M11.8,22.9c-1.6,0-2.9,1-2.9,2.3v16c0,1.3,1.3,2.3,2.9,2.3h31.9c1.6,0,2.9-1,2.9-2.3v-16c0-1.3-1.3-2.3-2.9-2.3H11.8ZM11.8,25.2h8.7v2.3h-8.7v-2.3ZM23.4,25.2h8.7v2.3h-8.7v-2.3ZM35,25.2h8.7v2.3h-8.7v-2.3ZM11.8,29.8h8.7v2.3h-8.7v-2.3ZM23.4,29.8h8.7v2.3h-8.7v-2.3ZM35,29.8h8.7v2.3h-8.7v-2.3ZM11.8,34.4h8.7v2.3h-8.7v-2.3ZM23.4,34.4h8.7v2.3h-8.7v-2.3ZM35,34.4h8.7v2.3h-8.7v-2.3ZM11.8,39h8.7v2.3h-8.7v-2.3ZM23.4,39h8.7v2.3h-8.7v-2.3ZM35,39h8.7v2.3h-8.7v-2.3Z"/>
    <path class="st6" d="M32.1,34.4h20.3c1.6,0,2.9,1,2.9,2.3v11.4c0,1.3-1.3,2.3-2.9,2.3h-20.3c-1.6,0-2.9-1-2.9-2.3v-11.4c0-1.3,1.3-2.3,2.9-2.3Z"/>
    <path class="st8" d="M37.9,36.7v11.4h2.9v-11.4h-2.9ZM32.1,39v9.1h2.9v-9.1h-2.9ZM43.7,43.5v4.6h2.9v-4.6h-2.9ZM49.5,41.2v6.9h2.9v-6.9h-2.9Z"/>
    <path class="st2" d="M46.6,0l1.4,1.1h15.9V0h-17.4Z"/>
    <path class="st4" d="M11.8,0C5.4,0,.2,4.1.2,9.2v1.1C.2,5.3,5.4,1.2,11.8,1.2h29l23.2,18.3v-1.1L40.8,0H11.8Z"/>
  </g>
</svg>