<?xml version="1.0" standalone="no"?><!DOCTYPE svg PUBLIC "-//W3C//DTD SVG 1.1//EN" "http://www.w3.org/Graphics/SVG/1.1/DTD/svg11.dtd"><svg t="1722899566364" class="icon" viewBox="0 0 1024 1024" version="1.1" xmlns="http://www.w3.org/2000/svg" p-id="64987" xmlns:xlink="http://www.w3.org/1999/xlink" width="22" height="22"><path d="M1024 512c0 282.752-229.248 512-512 512S0 794.752 0 512 229.248 0 512 0s512 229.248 512 512" fill="#FA211E" p-id="64988"></path><path d="M206.549333 697.045333H134.656L179.2 367.914667c2.986667-21.930667 21.717333-38.314667 43.861333-38.314667h71.893334L250.410667 658.773333c-2.986667 21.930667-21.717333 38.272-43.861334 38.272M349.44 697.216H277.504l61.184-456.106667a44.202667 44.202667 0 0 1 43.818667-38.314666h71.850666l-61.184 456.106666a44.202667 44.202667 0 0 1-43.818666 38.314667M492.373333 697.216H420.394667l44.544-329.130667c2.986667-21.930667 21.717333-38.314667 43.818666-38.314666h71.936l-44.586666 329.173333c-2.986667 21.930667-21.674667 38.272-43.818667 38.272M618.581333 821.973333h-71.850666l61.184-456.106666a44.202667 44.202667 0 0 1 43.818666-38.357334h71.893334l-61.184 456.106667a44.202667 44.202667 0 0 1-43.861334 38.357333M778.112 696.234667h-71.893333l44.544-329.173334c2.986667-21.930667 21.674667-38.272 43.818666-38.272h71.893334l-44.544 329.130667c-2.986667 21.930667-21.674667 38.314667-43.818667 38.314667" fill="#FFFFFF" p-id="64989"></path></svg>
