<?xml version="1.0" encoding="UTF-8"?>
<svg id="_图层_1" xmlns="http://www.w3.org/2000/svg" version="1.1" viewBox="0 0 64 64" width="22" height="22">
  <!-- Generator: Adobe Illustrator 29.0.1, SVG Export Plug-In . SVG Version: 2.1.0 Build 192)  -->
  <defs>
    <style>
      .st0, .st1 {
        stroke-width: 2px;
      }

      .st0, .st1, .st2, .st3, .st4, .st5 {
        fill: none;
        stroke-linecap: round;
      }

      .st0, .st2, .st5 {
        stroke: #fff;
      }

      .st6 {
        fill: #1b4c7d;
      }

      .st1, .st7, .st8, .st3, .st9, .st10, .st4, .st11, .st12, .st13 {
        isolation: isolate;
      }

      .st1, .st7, .st3, .st10, .st4, .st11, .st12 {
        opacity: .2;
      }

      .st1, .st3, .st4 {
        stroke: #000;
      }

      .st7, .st8, .st14, .st12, .st15 {
        display: none;
      }

      .st8, .st16, .st11, .st12, .st13 {
        fill: #fff;
      }

      .st8, .st9, .st13 {
        opacity: .1;
      }

      .st17 {
        fill: #64cd4a;
      }

      .st18 {
        fill: #848484;
      }

      .st2, .st3 {
        stroke-width: 2px;
      }

      .st2, .st3, .st4, .st5 {
        stroke-linejoin: round;
      }

      .st19 {
        fill: #5dc15c;
      }

      .st20 {
        fill: #e74c3c;
      }

      .st21 {
        fill: #18bd5c;
      }

      .st22 {
        fill: #a45390;
      }

      .st23 {
        fill: #3c88e7;
      }

      .st4, .st5 {
        stroke-width: 2px;
      }

      .st24 {
        fill: #6db832;
      }

      .st25 {
        fill: #c2352a;
      }

      .st26 {
        fill: #4987d7;
      }

      .st15, .st27 {
        fill: #e4e4e4;
      }
    </style>
  </defs>
  <path class="st27" d="M50.3,64H13.8c-7.6,0-13.8-6.2-13.8-13.7V13.7C0,6.2,6.2,0,13.7,0h36.5c7.5,0,13.7,6.2,13.7,13.7v36.6c0,7.5-6.2,13.7-13.7,13.7h0Z"/>
  <g class="st14">
    <path class="st7" d="M0,59.5v2.3c0,1.9,1.5,3.4,3.4,3.4h57.4c1.9,0,3.4-1.5,3.4-3.4v-2.3c0,1.9-1.5,3.4-3.4,3.4H3.4c-1.9,0-3.4-1.5-3.4-3.4Z"/>
    <path class="st26" d="M3.2-.1C2.3-.1,1.5.3.9.8l31.2,31.2L63.3.8c-.6-.6-1.4-.9-2.3-.9,0,0-57.8,0-57.8,0Z"/>
    <path class="st22" d="M3.2,64.1c-.9,0-1.7-.4-2.3-.9l31.2-31.2,31.2,31.2c-.6.6-1.4.9-2.3.9H3.2Z"/>
    <path class="st24" d="M64.2,3.1c0-.9-.4-1.7-.9-2.3l-31.2,31.2,31.2,31.2c.6-.6.9-1.4.9-2.3V3.1h0Z"/>
    <path class="st25" d="M0,3.1c0-.9.4-1.7.9-2.3l31.2,31.2L.9,63.2c-.6-.6-.9-1.4-.9-2.3V3.1h0Z"/>
    <path class="st10" d="M35,5.6c-1.4,0-2.5.2-3.6.5-1,.3-1.9.8-2.6,1.3-.7.6-1.3,1.2-1.8,2s-.8,1.3-1.1,2.1c-.3.9-.5,1.8-.6,2.8s-.2,1.9-.2,2.9h0c0,1.5.2,2.9.5,4,.4,1.1.9,2,1.5,2.8.7.7,1.4,1.3,2.3,1.7.9.4,1.8.5,2.8.5s2-.2,2.8-.5,1.5-.8,2.1-1.4,1-1.4,1.3-2.2c.3-.9.5-1.9.5-3s0-2-.4-2.8c-.3-.8-.6-1.6-1.1-2.1-.5-.6-1.1-1-1.8-1.3s-1.5-.4-2.4-.4-1.1,0-1.5.2c-.4.1-.8.3-1.2.5-.4.2-.7.6-.9.9-.3.3-.5.6-.7.9h-.2c0-1,.2-1.8.4-2.6.2-.8.5-1.1,1-1.7.5-.6,1.1-1,1.9-1.3.8-.3,1.8-.5,3.1-.5s.8,0,1.2,0,.8.1,1.1.2v-3.5h-2.6s.2,0,.2,0ZM32.4,16c.8,0,1.5.3,1.9.9s.6,1.4.6,2.4,0,1.1-.2,1.6c0,.4-.3.8-.5,1.1-.2.3-.5.5-.8.7-.3.1-.7.2-1,.2s-.9-.1-1.2-.4c-.3-.2-.6-.5-.9-.9-.2-.4-.4-.8-.5-1.3s-.2-1-.2-1.4,0-.7.2-1c.1-.3.3-.6.6-.9.3-.3.6-.5.9-.7.4-.2.7-.3,1.2-.3h0ZM47,24v10.3l1,.9c.2,0,.4,0,.6-.2.2,0,.5,0,.8-.2h1.6c1.3,0,2.3.3,3,.8.6.5,1,1.3,1,2.3s-.3,2-1,2.5-1.6.8-2.9.8-.9,0-1.3,0-.9-.2-1.4-.3-.9-.3-1.3-.4c-.4-.2-.8-.3-1.1-.5v3.7c.3.2.7.3,1.1.5.4,0,.9.3,1.3.3s1,.2,1.5.2h1.5c1.3,0,2.4-.2,3.4-.5s1.8-.8,2.5-1.4c.7-.6,1.2-1.4,1.5-2.2.3-.9.5-1.9.5-3s-.2-1.9-.5-2.7-.8-1.4-1.3-2c-.6-.5-1.2-.9-2-1.2-.8-.3-1.6-.4-2.5-.4h0c-.6,0-1.1,0-1.5.1-.4,0-.7.1-1,.2l.3-4.1h6.5v-3.4h-10.3,0ZM11.5,24.1c-.8,0-1.6,0-2.2.3-.7.2-1.3.4-1.8.6-.6.3-1.1.6-1.5.9-.5.3-.9.5-1.3.9l2.4,2.8c.7-.7,1.5-1.2,2.1-1.6.7-.4,1.4-.5,2.1-.5s1.3.2,1.7.6.6.9.6,1.6,0,1.2-.3,1.7c-.2.5-.5,1.1-.8,1.6-.4.5-.8,1.1-1.3,1.6-.5.6-1,1.2-1.7,1.8l-4.8,5.4v2.8h13.7v-3.4h-8.3v-.2l2.5-2.7c.7-.7,1.4-1.4,2-2.1.6-.7,1.2-1.4,1.7-2.1.5-.7.9-1.4,1.1-2.2.3-.7.4-1.5.4-2.3s-.1-1.7-.4-2.4c-.3-.7-.7-1.1-1.3-1.6-.6-.5-1.2-.9-2-1.2-.8-.3-1.7-.4-2.6-.4h0ZM25.2,42.5v3.2h9.4l-7.3,17.2h4.5l7.1-17.7v-2.7h-13.8.1Z"/>
    <path class="st16" d="M35,4.5c-1.4,0-2.5.2-3.6.5-1,.3-1.9.8-2.6,1.3-.7.6-1.3,1.2-1.8,2s-.8,1.3-1.1,2.1c-.3.9-.5,1.8-.6,2.8s-.2,1.9-.2,2.9h0c0,1.5.2,2.9.5,4,.4,1.1.9,2,1.5,2.8.7.7,1.4,1.3,2.3,1.7.9.4,1.8.5,2.8.5s2-.2,2.8-.5,1.5-.8,2.1-1.4,1-1.4,1.3-2.2c.3-.9.5-1.9.5-3s0-2-.4-2.8c-.3-.8-.6-1.6-1.1-2.1-.5-.6-1.1-1-1.8-1.3s-1.5-.4-2.4-.4-1.1,0-1.5.2c-.4.1-.8.3-1.2.5-.4.2-.7.6-.9.9-.3.3-.5.6-.7.9h-.2c0-1,.2-1.8.4-2.6.2-.8.5-1.1,1-1.7.5-.6,1.1-1,1.9-1.3.8-.3,1.8-.5,3.1-.5s.8,0,1.2,0,.8,0,1.1.2v-3.5h-2.6s.2,0,.2,0ZM32.4,14.9c.8,0,1.5.3,1.9.9.4.6.6,1.4.6,2.4s0,1.1-.2,1.6c0,.4-.3.8-.5,1.1-.2.3-.5.5-.8.7-.3.1-.7.2-1,.2s-.9-.1-1.2-.4c-.3-.2-.6-.5-.9-.9-.2-.4-.4-.8-.5-1.3s-.2-1-.2-1.4,0-.7.2-1c.1-.3.3-.6.6-.9.3-.3.6-.5.9-.7.4-.2.7-.3,1.2-.3h0ZM47,22.8v10.3l1,.9c.2,0,.4,0,.6-.2.2,0,.5,0,.8-.2h1.6c1.3,0,2.3.3,3,.8.6.5,1,1.3,1,2.3s-.3,2-1,2.5-1.6.8-2.9.8-.9,0-1.3,0-.9-.2-1.4-.3-.9-.3-1.3-.4c-.4-.2-.8-.3-1.1-.5v3.7c.3.2.7.3,1.1.5.4,0,.9.3,1.3.3s1,.2,1.5.2h1.5c1.3,0,2.4-.2,3.4-.5s1.8-.8,2.5-1.4c.7-.6,1.2-1.4,1.5-2.2.3-.9.5-1.9.5-3s-.2-1.9-.5-2.7-.8-1.4-1.3-2c-.6-.5-1.2-.9-2-1.2-.8-.3-1.6-.4-2.5-.4h0c-.6,0-1.1,0-1.5.1-.4,0-.7.1-1,.2l.3-4.1h6.5v-3.4h-10.3,0ZM11.5,22.9c-.8,0-1.6,0-2.2.3-.7.2-1.3.4-1.8.6-.6.3-1.1.6-1.5.9-.5.3-.9.5-1.3.9l2.4,2.8c.7-.7,1.5-1.2,2.1-1.6.7-.4,1.4-.5,2.1-.5s1.3.2,1.7.6.6.9.6,1.6,0,1.2-.3,1.7c-.2.5-.5,1.1-.8,1.6-.4.5-.8,1.1-1.3,1.6-.5.6-1,1.2-1.7,1.8l-4.8,5.4v2.8h13.7v-3.4h-8.3v-.2l2.5-2.7c.7-.7,1.4-1.4,2-2.1.6-.7,1.2-1.4,1.7-2.1.5-.7.9-1.4,1.1-2.2.3-.7.4-1.5.4-2.3s-.1-1.7-.4-2.4c-.3-.7-.7-1.1-1.3-1.6-.6-.5-1.2-.9-2-1.2-.8-.3-1.7-.4-2.6-.4h0ZM25.2,41.4v3.2h9.4l-7.3,17.2h4.5l7.1-17.7v-2.7h-13.8.1Z"/>
    <path class="st8" d="M3.4-.1C1.5-.1,0,1.4,0,3.3v1.1C0,2.6,1.5,1,3.4,1h57.4c1.9,0,3.4,1.5,3.4,3.4v-1.1c0-1.9-1.5-3.4-3.4-3.4,0,0-57.4,0-57.4,0Z"/>
  </g>
  <g class="st14">
    <path class="st10" d="M32,9h0c13.8,0,25,10.9,25,24.4h0c0,13.5-11.2,24.4-25,24.4h0c-13.8,0-25-10.9-25-24.4h0c0-13.5,11.2-24.4,25-24.4Z"/>
    <path class="st6" d="M32,8.1c7.3,0,12.1,5.3,16.7,10.2,3.1,3.3,7,5.3,7.9,9.9.2,1,.3,2.1.4,3.1,0,.4-3.6,4.9-3.6,5.3,0,4.4,2.5,4.4.4,7.9-4.3,7.4-12.4,12.4-21.8,12.4-13.8,0-25-10.9-25-24.4S15.8,10.6,27.4,8.5c1.5-.3,3-.4,4.5-.4Z"/>
    <path class="st10" d="M32,9c-.7,0-1.4,0-2.1,0-.6,0-1.1.1-1.6.2-.5,0-1.1.2-1.6.3-.8.4-1.9,1.1-1.9,1.2s0,.3-.2.5c-.2.5.3.5,2.1-.1,1.8-.6,6-.8,7.4-.4.5.2,1,.6,1.2.9.2.4.8.7,2.1,1,1,.3,2,.6,2.1.8.1.2.6.5,1,.7.7.3,1.9,2.2,1.9,2.8,0,.1-.5.5-1.1.7-1.3.6-1.4,1.2-.7,2.6.3.5.5,1.3.5,1.7s.2,1,.5,1.3c.4.5.6.5,1,.3.4-.2.6-.2.9.1.3.3.5.3.7.1.3-.3-.3-1.7-1-2.1-.5-.3-.7-.9-.3-.9.8,0,1.9,1,2.3,1.8q.4,1-.4,1.7c-.6.5-.9,1-1.1,2.2-.2.8-.4,1.7-.6,1.9-.3.4-.2.5.4,1.1.9.8.8,1.3-.3,1.7-.7.3-.7.4-.6,1.2.2,1.3.5,1.7,1.2,1.8,1,.2,1.6-.6,1.7-2.5,0-.9.3-1.8.6-2.2.4-.6.6-.6,1.8-.5,1.5.2,1.7,0,.4-.6-.5-.2-.9-.5-.9-.6,0-.4,1.8,0,2.6.6.8.6,1.2.4.7-.5-.4-.7-.2-1.1.5-.7.7.4,1.1.4,1.4-.2.4-.7.7-.6,1.1.3.4,1,0,2.2-.9,2.8-.5.3-.8.7-.9,1.2,0,.7-.2.8-1.3.9-.7.1-1.3.1-1.3,0-.4-1.2-1.1-1-2.8.7-.7.7-1.4,1.2-1.6,1.2s-.5.3-.6.7c0,.4-.3.8-.4.9-.1,0-.2.5-.2,1s-.2,1.2-.5,1.7c-1,1.5-1.3,3.1-1,4,.2.5.2,1.2.1,1.6-.1.7,0,.9,1,1.8,1.7,1.6,2.5,1.7,4,1,.7-.3,1.6-1,2.1-1.4.5-.4,1-.8,1.1-.8,0,0,.6,0,1.1-.1q.9,0,.9.8c0,.4,0,.8.2,1.1,2.6-3.8,4.1-8.4,4.1-13.4s0-1.3,0-2c-.2-.1-.3-.2-.4-.4-.9-.9-1.2-1.4-1-1.4s.8.3,1.3.7c-1.5-12.1-12-21.4-24.8-21.4ZM22.6,12.6c-1.8,0-3.4.9-3.2,1.7.2.6-.7,1.8-3.1,4.2-.9,1-1.7,1.8-1.7,2s-.7.7-1.5,1.3c-2.7,2-3.4,4-3.8,10.6-.2,2.7-.1,3.2.3,4.3.3.7.7,1.4.9,1.7.7.8,2.4,3.7,2.7,4.7.2.8.6.5.8-.6.2-.9,0-1.1-.5-1.6-.7-.6-.8-.9-.3-1.8.5-.8,0-1.3-.8-.9-.9.4-1.5-.2-1.5-1.8,0-2.1,1.7-3.5,2.6-2.4.2.2.5.4.6.4s.6.2,1,.5c.5.4.7.8.7,1.5.1,1.4.5,1.3.7,0,.2-1.1.4-1.5,1.6-1.7.4,0,.9-.4,1.1-.8.4-.7,1.4-1.5,2-1.5s.6-.2.8-.5c.4-.4.7-.5,1.5-.3l1.1.2v-1.2c-.1,0-.2-1.2-.2-1.2h1.4c1.8.3,2.1-.2,1.2-1.6-.3-.5-.6-1.2-.6-1.5s-.2-.6-.5-.7c-.4,0-.6-.3-.6-.8,0-1.5-1.1-1.5-1.7-.1-.5,1.1-2.1,2.7-2.3,2.4,0-.1,0-.5,0-.8,0-.3,0-1-.2-1.5-.7-1.7-.5-2.3,1-2.8.8-.3,1-.3,1.4,0,.5.5.7.4.7-.1s.1-.5.3-.5.5-.2.7-.4c.2-.2.6-.3.8-.3.6.2.5,1.1-.2,1.5-.5.3-.5.5-.3,1,.4.8.7.8,1.5,0,.5-.6.6-.7.3-2.2-.3-1.7-.6-2.2-1.3-2.2s-.5.2-.6.7c-.2.8-.8,1-.8.3s-.2-.5-.7-.4c-.4,0-.7,0-.8-.3,0-.2,0-.3.2-.3.6,0,1.1-.8,1.1-1.8,0-1.1-.5-1.3-1-.3-.4.9-.8.6-.9-.5,0-.8,0-1.2.7-2,.4-.6.7-1.2.6-1.3,0-.1-.8-.2-1.6-.2h0ZM29.9,16.7c-.2,0-.5,0-.8,0-.8.1-1,.3-1.1.8-.1.6,0,.6.6.5.6-.1.7,0,.7.4s.2.7.4.9c.4.3.4.7.2,2.7-.1,1.6,0,2.6.1,2.9.4.8,1.2.6,1.6-.3.3-.7.8-1.2,2.6-2.7.6-.5-.3-4.3-1.1-4.8-.3-.1-.9-.2-1.5-.2-.5,0-1.1,0-1.3-.2-.1,0-.3-.1-.5-.2ZM43,17.8c.1,0,.3.1.3.2s-.1.2-.3.2-.3-.1-.3-.2.1-.2.3-.2ZM36.7,22.8c-.5,0-1,.3-1,.6s.3.3.6.3.6-.1.6-.5-.1-.5-.2-.5ZM51.2,23.2c.9.1,1.1.6.6,1.4-.2.3-.4.8-.4,1,0,.6-.4.7-.8.2-1-1.1-.6-2.7.6-2.6ZM40.7,25.3c0,0-.1,0-.1,0-.2.2.2.9.7,1.2.3.1.5.4.5.7s0,.5.2.6c.3.2.4.2,1-.2.5-.4.5-.4-.1-.9-1.3-1-1.8-1.4-2-1.4h0ZM40.6,26.8c-.4,0-.4.2-.2.8.2.4.5.5.7.2.2-.3-.1-1-.5-1ZM27,30s0,0-.1,0c-.4.2-.3.8,0,1,.6.2.9.2.9-.2s-.5-.8-.9-.8ZM18.4,41.9c-.2,0-.2,0,0,.4.4.4.8.4.8,0,0-.1-.3-.3-.6-.3-.1,0-.2,0-.3,0ZM17.3,44.9c-.2,0-.3,0-.6.2-.9.3-1,.4-.9,1.1,0,.5-.2,1-.5,1.4-.4.4-.6.9-.6,1.5s.7,2.2,1.6,3.4c4.3,3.4,9.7,5.4,15.6,5.4s0,0,0,0c.4-.3.6-.7.6-1.2s.4-.8.9-1.3c.5-.5.9-1,.9-1.2,0-.5-1.7-1.2-3.1-1.4-.7,0-1.4-.3-1.5-.4-.2-.1-.7-.3-1.3-.5-.8-.2-1.1-.4-1.3-1.1-.3-.9-1-1.5-2.2-1.7-.4,0-1.3-.7-1.9-1.4-.6-.7-1.4-1.2-1.6-1.2s-1.2-.4-2.1-.9c-1.2-.6-1.5-.8-2-.7h0Z"/>
    <path class="st21" d="M32,8.1c-.7,0-1.4,0-2.1,0-.6,0-1.1.1-1.6.2-.5,0-1.1.2-1.6.3-.8.4-1.9,1.1-1.9,1.2s0,.3-.2.5c-.2.5.3.5,2.1-.1,1.8-.6,6-.8,7.4-.4.5.2,1,.6,1.2.9.2.4.8.7,2.1,1,1,.3,2,.6,2.1.8s.6.5,1,.7c.7.3,1.9,2.2,1.9,2.8,0,.1-.5.5-1.1.7-1.3.6-1.4,1.2-.7,2.6.3.5.5,1.3.5,1.7s.2,1,.5,1.3c.4.5.6.5,1,.3.4-.2.6-.2.9.1.3.3.5.3.7.1.3-.3-.3-1.7-1-2.1-.5-.3-.7-.9-.3-.9.8,0,1.9,1,2.3,1.8q.4,1-.4,1.7c-.6.5-.9,1-1.1,2.2-.2.8-.4,1.7-.6,1.9-.3.4-.2.5.4,1.1.9.8.8,1.3-.3,1.7-.7.3-.7.4-.6,1.2.2,1.3.5,1.7,1.2,1.8,1,.2,1.6-.6,1.7-2.5,0-.9.3-1.8.6-2.2.4-.6.6-.6,1.8-.5,1.5.2,1.7,0,.4-.6-.5-.2-.9-.5-.9-.6,0-.4,1.8,0,2.6.6.8.6,1.2.4.7-.5-.4-.7-.2-1.1.5-.7.7.4,1.1.4,1.4-.2.4-.7.7-.6,1.1.3.4,1,0,2.2-.9,2.8-.5.3-.8.7-.9,1.2,0,.7-.2.8-1.3.9-.7.1-1.3.1-1.3,0-.4-1.2-1.1-1-2.8.7-.7.7-1.4,1.2-1.6,1.2s-.5.3-.6.7c0,.4-.3.8-.4.9-.1,0-.2.5-.2,1s-.2,1.2-.5,1.7c-1,1.5-1.3,3.1-1,4,.2.5.2,1.2.1,1.6-.1.7,0,.9,1,1.8,1.7,1.6,2.5,1.7,4,1,.7-.3,1.6-1,2.1-1.4.5-.4,1-.8,1.1-.8,0,0,.6,0,1.1-.1q.9,0,.9.8c0,.4,0,.8.2,1.1,2.6-3.8,4.1-8.4,4.1-13.4s0-1.3,0-2c-.2-.1-.3-.2-.4-.4-.9-.9-1.2-1.4-1-1.4s.8.3,1.3.7c-1.5-12.1-12-21.4-24.8-21.4ZM22.6,11.8c-1.8,0-3.4.9-3.2,1.7.2.6-.7,1.8-3.1,4.2-.9,1-1.7,1.8-1.7,2s-.7.7-1.5,1.3c-2.7,2-3.4,4-3.8,10.6-.2,2.7-.1,3.2.3,4.3.3.7.7,1.4.9,1.7.7.8,2.4,3.7,2.7,4.7.2.8.6.5.8-.6.2-.9,0-1.1-.5-1.6-.7-.6-.8-.9-.3-1.8.5-.8,0-1.3-.8-.9-.9.4-1.5-.2-1.5-1.8,0-2.1,1.7-3.5,2.6-2.4.2.2.5.4.6.4s.6.2,1,.5c.5.4.7.8.7,1.5.1,1.4.5,1.3.7,0,.2-1.1.4-1.5,1.6-1.7.4,0,.9-.4,1.1-.8.4-.7,1.4-1.5,2-1.5s.6-.2.8-.5c.4-.4.7-.5,1.5-.3l1.1.2v-1.2c-.1,0-.2-1.2-.2-1.2h1.4c1.8.3,2.1-.2,1.2-1.6-.3-.5-.6-1.2-.6-1.5s-.2-.6-.5-.7c-.4,0-.6-.3-.6-.8,0-1.5-1.1-1.5-1.7-.1-.5,1.1-2.1,2.7-2.3,2.4,0-.1,0-.5,0-.8,0-.3,0-1-.2-1.5-.7-1.7-.5-2.3,1-2.8.8-.3,1-.3,1.4,0,.5.5.7.4.7-.1s.1-.5.3-.5.5-.2.7-.4c.2-.2.6-.3.8-.3.6.2.5,1.1-.2,1.5-.5.3-.5.5-.3,1,.4.8.7.8,1.5,0,.5-.6.6-.7.3-2.2-.3-1.7-.6-2.2-1.3-2.2s-.5.2-.6.7c-.2.8-.8,1-.8.3s-.2-.5-.7-.4c-.4,0-.7,0-.8-.3,0-.2,0-.3.2-.3.6,0,1.1-.8,1.1-1.8,0-1.1-.5-1.3-1-.3-.4.9-.8.6-.9-.5,0-.8,0-1.2.7-2,.4-.6.7-1.2.6-1.3,0-.1-.8-.2-1.6-.2h0ZM29.9,15.8c-.2,0-.5,0-.8,0-.8.1-1,.3-1.1.8-.1.6,0,.6.6.5.6-.1.7,0,.7.4s.2.7.4.9c.4.3.4.7.2,2.7-.1,1.6,0,2.6.1,2.9.4.8,1.2.6,1.6-.3.3-.7.8-1.2,2.6-2.7.6-.5-.3-4.3-1.1-4.8-.3-.1-.9-.2-1.5-.2-.5,0-1.1,0-1.3-.2-.1,0-.3-.1-.5-.2ZM43,17c.1,0,.3.1.3.2s-.1.2-.3.2-.3-.1-.3-.2.1-.2.3-.2ZM36.7,21.9c-.5,0-1,.3-1,.6s.3.3.6.3.6-.1.6-.5-.1-.5-.2-.5ZM51.2,22.4c.9.1,1.1.6.6,1.4-.2.3-.4.8-.4,1,0,.6-.4.7-.8.2-1-1.1-.6-2.7.6-2.6ZM40.7,24.4c0,0-.1,0-.1,0-.2.2.2.9.7,1.2.3.1.5.4.5.7s0,.5.2.6c.3.2.4.2,1-.2.5-.4.5-.4-.1-.9-1.3-1-1.8-1.4-2-1.4h0ZM40.6,25.9c-.4,0-.4.2-.2.8.2.4.5.5.7.2.2-.3-.1-1-.5-1ZM27,29.2s0,0-.1,0c-.4.2-.3.8,0,1,.6.2.9.2.9-.2s-.5-.8-.9-.8ZM18.4,41c-.2,0-.2,0,0,.4.4.4.8.4.8,0,0-.1-.3-.3-.6-.3-.1,0-.2,0-.3,0ZM17.3,44c-.2,0-.3,0-.6.2-.9.3-1,.4-.9,1.1,0,.5-.2,1-.5,1.4-.4.4-.6.9-.6,1.5s.7,2.2,1.6,3.4c4.3,3.4,9.7,5.4,15.6,5.4s0,0,0,0c.4-.3.6-.7.6-1.2s.4-.8.9-1.3c.5-.5.9-1,.9-1.2,0-.5-1.7-1.2-3.1-1.4-.7,0-1.4-.3-1.5-.4-.2-.1-.7-.3-1.3-.5-.8-.2-1.1-.4-1.3-1.1-.3-.9-1-1.5-2.2-1.7-.4,0-1.3-.7-1.9-1.4-.6-.7-1.4-1.2-1.6-1.2s-1.2-.4-2.1-.9c-1.2-.6-1.5-.8-2-.7h0Z"/>
    <path class="st10" d="M27,15.9c-6.7,2.9-11.1,9.5-11.1,16.7,0,10.1,8.4,18.3,18.7,18.3,4.6,0,9.1-1.7,12.6-4.8-.9.3-1.9.6-2.9.8-1.4.3-2.9.5-4.3.5-10.3,0-18.7-8.2-18.7-18.3,0-5,2.1-9.8,5.8-13.2Z"/>
    <path class="st16" d="M27,15c-6.7,2.9-11.1,9.5-11.1,16.7,0,10.1,8.4,18.3,18.7,18.3,4.6,0,9.1-1.7,12.6-4.8-.9.3-1.9.6-2.9.8-1.4.3-2.9.5-4.3.5-10.3,0-18.7-8.2-18.7-18.3,0-5,2.1-9.8,5.8-13.2Z"/>
    <path class="st13" d="M32,8.1c-13.8,0-25,10.9-25,24.4s0,.3,0,.4c.2-13.3,11.3-24,25-24s24.7,10.7,25,24c0-.1,0-.3,0-.4,0-13.5-11.1-24.4-25-24.4Z"/>
  </g>
  <g class="st14">
    <path class="st10" d="M31.9,9c-13.2,0-23.8,10.5-23.8,23.4s10.6,23.4,23.8,23.4,23.8-10.5,23.8-23.4-10.6-23.4-23.8-23.4ZM31.9,22.4c5.6,0,10.2,4.5,10.2,10h0c0,5.5-4.6,10-10.2,10h0c-5.6,0-10.2-4.5-10.2-10h0c0-5.5,4.6-10,10.2-10h0Z"/>
    <path class="st18" d="M31.9,19c-7,0-12.8,5.6-12.8,12.6,0,6.9,5.7,12.6,12.8,12.6s12.8-5.6,12.8-12.6h0c0-6.9-5.7-12.6-12.8-12.6ZM31.9,26.6c2.8,0,5.1,2.2,5.1,5s-2.3,5-5.1,5-5.1-2.2-5.1-5,2.3-5,5.1-5Z"/>
    <path class="st27" d="M31.9,8.1c-13.2,0-23.8,10.5-23.8,23.4s10.6,23.4,23.8,23.4,23.8-10.5,23.8-23.4-10.6-23.4-23.8-23.4ZM31.9,21.5c5.6,0,10.2,4.5,10.2,10s-4.6,10-10.2,10h0c-5.6,0-10.2-4.5-10.2-10h0c0-5.5,4.6-10,10.2-10Z"/>
    <path class="st11" d="M32,8.1c-13.2,0-23.8,10.5-23.8,23.4s0,.2,0,.3c.3-12.7,10.8-22.9,23.8-22.9s23.5,10.2,23.8,22.9c0,0,0-.2,0-.3,0-13-10.6-23.4-23.8-23.4ZM21.8,32.4c0,.3,0,.6,0,.8,0,.1,0,.3,0,.4,0-.1,0-.3,0-.4.4,5.2,4.9,9.2,10.2,9.2,5.3,0,9.7-4,10.2-9.2,0,.2,0,.3,0,.5,0-.2,0-.3,0-.5,0-.3,0-.6,0-.8-.4,5.2-4.9,9.2-10.2,9.2-5.3,0-9.7-4-10.2-9.2Z"/>
    <path class="st10" d="M17.4,39.1h29.2c1.3,0,2.4,1.1,2.4,2.4v12c0,1.3-1.1,2.4-2.4,2.4h-29.2c-1.3,0-2.4-1.1-2.4-2.4v-12c0-1.3,1.1-2.4,2.4-2.4Z"/>
    <path class="st17" d="M17.4,38.3h29.2c1.3,0,2.4,1.1,2.4,2.4v12c0,1.3-1.1,2.4-2.4,2.4h-29.2c-1.3,0-2.4-1.1-2.4-2.4v-12c0-1.3,1.1-2.4,2.4-2.4Z"/>
    <path class="st4" d="M26,51.7v-8.3M19.2,43.3l3.4,4.2,3.4-4.2M19.2,51.7v-8.3"/>
    <path class="st5" d="M26,50.8v-8.3M19.2,42.5l3.4,4.2,3.4-4.2M19.2,50.8v-8.3"/>
    <path class="st1" d="M36.2,51.7l-5.1-5.2M36.2,43.3l-5.1,5.2M31.1,51.7v-8.3"/>
    <path class="st0" d="M36.2,50.8l-5.1-5.2M36.2,42.5l-5.1,5.2M31.1,50.8v-8.3"/>
    <path class="st3" d="M44.7,43.3l-2.5,8.4-2.5-8.4"/>
    <path class="st2" d="M44.7,42.5l-2.5,8.4-2.5-8.4"/>
  </g>
  <g>
    <ellipse class="st7" cx="32.2" cy="33.1" rx="31.7" ry="31.9"/>
    <ellipse class="st15" cx="32.2" cy="31.9" rx="31.7" ry="31.9"/>
    <path class="st12" d="M32.2,0C14.6,0,.4,14.3.4,31.9c0,.2,0,.4,0,.7C.7,15.2,14.8,1.2,32.2,1.1c17.3,0,31.4,13.9,31.7,31.3,0-.2,0-.3,0-.5C63.9,14.3,49.7,0,32.2,0Z"/>
    <ellipse class="st9" cx="24.2" cy="21.7" rx="9.1" ry="9.1"/>
    <ellipse class="st23" cx="24.2" cy="20.5" rx="9.1" ry="9.1"/>
    <ellipse class="st9" cx="45.8" cy="35.4" rx="9.1" ry="9.1"/>
    <ellipse class="st19" cx="45.8" cy="34.2" rx="9.1" ry="9.1"/>
    <ellipse class="st9" cx="24.2" cy="45.6" rx="9.1" ry="9.1"/>
    <ellipse class="st20" cx="24.2" cy="44.5" rx="9.1" ry="9.1"/>
  </g>
</svg>