<?xml version="1.0" encoding="UTF-8"?>
<svg id="_图层_1" xmlns="http://www.w3.org/2000/svg" version="1.1" viewBox="0 0 64 64" width="22" height="22">
  <!-- Generator: Adobe Illustrator 29.0.1, SVG Export Plug-In . SVG Version: 2.1.0 Build 192)  -->
  <defs>
    <style>
      .st0, .st1, .st2, .st3, .st4, .st5, .st6, .st7, .st8 {
        isolation: isolate;
      }

      .st0, .st1, .st9, .st10, .st11, .st8 {
        display: none;
      }

      .st0, .st5, .st7, .st8 {
        opacity: .2;
      }

      .st1, .st2, .st3, .st7, .st8 {
        fill: #fff;
      }

      .st1, .st4 {
        opacity: .1;
      }

      .st12, .st9 {
        fill: #a47f4a;
      }

      .st13 {
        fill: #37a0f2;
      }

      .st2 {
        opacity: .3;
      }

      .st3 {
        opacity: .4;
      }

      .st14 {
        fill: #f2f2f2;
      }

      .st10 {
        fill: #fecd38;
      }

      .st6 {
        opacity: .5;
      }

      .st15 {
        fill: #f34235;
      }

      .st16 {
        fill: #ffe69b;
      }
    </style>
  </defs>
  <path class="st12" d="M50.4,64H13.8c-7.6,0-13.8-6.2-13.8-13.7V13.7C0,6.2,6.2,0,13.7,0h36.5c7.5,0,13.7,6.2,13.7,13.7v36.6c0,7.5-6.2,13.7-13.7,13.7h.1Z"/>
  <g class="st11">
    <path class="st5" d="M4,31.5c0,.3,0,.7,0,1,0,15.5,12.5,28,28,28s28-12.5,28-28,0-.7,0-1c-.5,15-12.8,27-27.9,27S4.6,46.5,4,31.5h0Z"/>
    <rect class="st13" x="4" y="3.5" width="56" height="56" rx="28" ry="28"/>
    <path class="st2" d="M31.1,3.6c-1.4,0-2.8.2-4.2.4h1.2c0-.1,1,.7,1,.7l-2.6,1.4,3.3.8.4-1.1h1.4l.5-1-1-.3v-1ZM25.8,4.2C15.4,6.5,7.2,14.7,4.8,25.1h0c0,.1-.2.6-.2.6,0,.2,0,.4-.1.6l1.1,1.6,2.9.7v-.5l1.2.2v.8c-.1,0,.8.2.8.2l1.4.4,2,2.3,2.6.2.2,2.1-1.8,1.2v1.9c0,0-.3,1.1-.3,1.1l2.5,3.2.2,1.1s.9.3,1,.3,2.1,1.5,2.1,1.5v5.8l.7.2-.5,2.7,1.2,1.6-.2,2.6h0c1.5.6,3,1.1,4.5,1.4v-.2c0,0,.1-.8.1-.8h-1s-.5-.7-.5-.7l.8-.8v-.6c.1,0-.8-.3-.8-.3v-.6c0,0,1.4-.2,1.4-.2l2-1,.7-1.2,2.1-2.7-.5-2.1.6-1.1h1.9c0,0,1.3-1,1.3-1l.4-4.1,1.4-1.8.2-1.2-1.3-.4-.9-1.4h-3s-2.3-.9-2.3-.9v-1.7c-.1,0-.9-1.4-.9-1.4h-2.1s-1.2-2-1.2-2l-1.1-.5v.6c0,0-2,.1-2,.1l-.7-1-2.1-.4-1.7,2-2.7-.5-.2-3-2-.3.8-1.5-.2-.9-2.6,1.7-1.6-.2-.6-1.3.4-1.3.9-1.6,2.1-1h4v1.2s1.4.7,1.4.7v-2.1c-.1,0,.9-1,.9-1l2.1-1.4v-1c.1,0,2.2-2.2,2.2-2.2l2.2-1.2-.2-.2,1.5-1.4h.5c0,.1.3.5.3.5l.6-.6h.1c0,0-.6-.1-.6-.1l-.6-.2v-.6l.3-.3h1.1c0,.1.3.7.3.7h.4c0-.1,0,0,0,0l1-.2v-.5c.1,0,.7.1.7.1v.5l-.5.4v.6c0,0,1.9.6,1.9.6,0,0,0,0,0,0h.4s0-.8,0-.8l-1.5-.7v-.4c0,0,1.1-.4,1.1-.4v-1.2c0,0-1.2-.8-1.2-.8v-2c0,0-1.8.9-1.8.9h-.6l.2-1.5-2.4-.6-1,.8v2.3l-1.8.6-.7,1.5h-.8c0,.1,0-1.8,0-1.8l-1.7-.2-.8-.5-.3-1.2,3-1.8,1.5-.4v1c.1,0,1,0,1,0v-.5c0,0,.9-.1.9-.1v-.2s-.4-.2-.4-.2v-.5c0,0,1,0,1,0l.6-.7h0s0,0,0,0h.1c0-.1,0-.1,0-.1ZM14.7,10.2l.8.2-.3,1.1-.9.3-.5-1.1.9-.4ZM50.6,10.6h-.4c0,0-1.2,1.8-1.2,1.8l-1.7.3-.3,1.5.7.2-.2,1-1.7-.3-1.6.3-.3.9.3,1.9.9.4h1.6s1-.1,1-.1l.3-.8,1.6-2.1,1.1.2,1.1-1,.2.8,2.6,1.8-.3.4h-1.2c0,0,.5.6.5.6l.7.2.9-.4v-1s.4-.2.4-.2l-.3-.3-1.7-1-.5-1.3h1c-1-1.3-2.1-2.5-3.4-3.6ZM16.8,12.7h1.3v.4h.3v.7h-2l-.7-.2.2-.5s1-.4,1-.4ZM18.8,13l.7.6-.7.2v-.8ZM20.3,14l.5.3-.4.3-.4-.3s.3-.3.3-.3ZM16.5,14.1h1.1l-1.4,2-.6-.3v-.8c.1,0,.9-.8.9-.8ZM18.2,14.1h1.1v.7l-.5.3h-.6c0,.1,0-1,0-1ZM19.6,14.9h0l1.3.4v.7h-1.1l-.3-.4s0-.6,0-.6ZM19.1,15.5v.7l-.5.5h-1.1l.2-.7h.5s.1-.3.1-.3h.8ZM52.3,18.2l-3.8.3-1.2.6h-2.2c0,0-1.8.9-1.8.9v1.9l-3.7,2.7.3,1.1h.7l-.2,1.1-.5.2v2.9s3.2,3.7,3.2,3.7h1.4v-.2h2.6l.7-.7h1.4l.8.8,2.1.2-.3,2.8,2.4,4.2-1.2,2.4v1.1c0,0,1.1,1,1.1,1v2.7l.3.4c3.5-4.7,5.7-10.5,5.7-16.9s-.9-7.9-2.4-11.3h-1.2v1.2h-.5l-.6-.4-3-.8s0-1.9,0-1.9Z"/>
    <path class="st4" d="M51.8,11.7L12.2,51.3c11,11,28.6,11,39.6,0,11-11,11-28.6,0-39.6h0Z"/>
    <path class="st14" d="M12.2,51.3l17.3-22.2,2.3,2.3,2.6,2.6-22.2,17.3Z"/>
    <path class="st15" d="M51.8,11.7l-22.2,17.3,4.9,4.9,17.3-22.2Z"/>
    <path class="st3" d="M32,3.5C16.5,3.5,4,16,4,31.5s0,.3,0,.4c.3-15.2,12.7-27.4,28-27.4s27.7,12.2,28,27.4c0-.1,0-.3,0-.4,0-15.5-12.5-28-28-28Z"/>
    <path class="st7" d="M51.8,11.7L12.2,51.3C1.3,40.3,1.3,22.7,12.2,11.7,23.2.8,40.8.8,51.8,11.7h0Z"/>
  </g>
  <g class="st11">
    <path class="st0" d="M4.6,1.1S0,1.1,0,5.7v54.6c0,4.5,4.6,4.5,4.6,4.5h36.5l22.8-22.7V5.7c0-4.5-4.6-4.5-4.6-4.5H4.6Z"/>
    <path class="st10" d="M4.6,0S0,0,0,4.5v54.6c0,4.5,4.6,4.5,4.6,4.5h36.5l22.8-22.7V4.5c0-4.5-4.6-4.5-4.6-4.5H4.6Z"/>
    <path class="st16" d="M63.8,40.9h-19.4c-1.9,0-3.4,1.5-3.4,3.4v19.3l22.8-22.7Z"/>
    <path class="st7" d="M44.4,40.9c-1.9,0-3.4,1.5-3.4,3.4v1.1c0-1.9,1.5-3.4,3.4-3.4h18.2l1.1-1.1h-19.4Z"/>
    <path class="st6" d="M32.1,18.1l-5.9,22,3.3.9,5.9-22-3.3-.9ZM36.5,18.2v4.5l5.7,5.7-5.7,5.7v4.5l11.4-10.2-11.4-10.2ZM25.1,20.5l-11.4,10.2,11.4,10.2v-4.5l-5.7-5.7,5.7-5.7v-4.5Z"/>
    <path class="st8" d="M4.6,0S0,0,0,4.5v1.1C0,1.1,4.6,1.1,4.6,1.1h54.7s4.6,0,4.6,4.5v-1.1c0-4.5-4.6-4.5-4.6-4.5H4.6Z"/>
  </g>
  <g>
    <path class="st0" d="M0,59v2.3c0,1.9,1.9,3.4,4.4,3.4h55.1c2.4,0,4.4-1.5,4.4-3.4v-2.3c0,1.9-1.9,3.4-4.4,3.4H4.4c-2.4,0-4.4-1.5-4.4-3.4Z"/>
    <path class="st9" d="M63.8,60.1V3.4c0-1.9-1.9-3.4-4.4-3.4H4.4C1.9,0,0,1.5,0,3.4v56.7c0,1.9,1.9,3.4,4.4,3.4h55.1c2.4,0,4.4-1.5,4.4-3.4Z"/>
    <path class="st1" d="M4.4,0C1.9,0,0,1.5,0,3.4v1.1C0,2.7,1.9,1.1,4.4,1.1h55.1c2.4,0,4.4,1.5,4.4,3.4v-1.1c0-1.9-1.9-3.4-4.4-3.4H4.4Z"/>
    <path class="st6" d="M33.6,20.3l-7.5,21.9,4.2.9,7.5-21.9-4.2-.9ZM39.2,20.4v4.5l7.3,5.7-7.3,5.7v4.5l14.5-10.2-14.5-10.2ZM24.7,22.7l-14.5,10.2,14.5,10.2v-4.5l-7.3-5.7,7.3-5.7v-4.5Z"/>
  </g>
</svg>