<?xml version="1.0" encoding="UTF-8"?>
<svg id="_图层_1" xmlns="http://www.w3.org/2000/svg" version="1.1" xmlns:xlink="http://www.w3.org/1999/xlink" viewBox="0 0 64 64" width="22" height="22">
  <!-- Generator: Adobe Illustrator 29.0.1, SVG Export Plug-In . SVG Version: 2.1.0 Build 192)  -->
  <defs>
    <style>
      .st0, .st1, .st2, .st3, .st4, .st5, .st6, .st7, .st8, .st9, .st10 {
        isolation: isolate;
      }

      .st0, .st1, .st11, .st12, .st8, .st13 {
        display: none;
      }

      .st0, .st2, .st4, .st5, .st7, .st8 {
        opacity: .2;
      }

      .st1, .st14, .st4, .st7, .st8, .st10 {
        fill: #fff;
      }

      .st1, .st3, .st10 {
        opacity: .1;
      }

      .st15 {
        fill: #cf7642;
      }

      .st2, .st4, .st9 {
        fill-rule: evenodd;
      }

      .st16 {
        fill: #3f3f3f;
      }

      .st17 {
        fill: url(#_未命名的渐变_43);
      }

      .st11 {
        fill: #68583c;
      }

      .st18, .st13 {
        fill: #0099f2;
      }

      .st19 {
        fill: url(#_未命名的渐变_41);
      }

      .st20 {
        fill: #a45390;
      }

      .st21 {
        fill: #52ff45;
      }

      .st22 {
        fill: url(#_未命名的渐变_42);
      }

      .st6 {
        opacity: .5;
      }

      .st23 {
        fill: #af5d2d;
      }

      .st24 {
        fill: #6db832;
      }

      .st25 {
        fill: #c2352a;
      }

      .st26 {
        fill: #4987d7;
      }

      .st27 {
        fill: #4b4b4b;
      }

      .st9 {
        fill: #ffffa1;
        opacity: .3;
      }

      .st28 {
        fill: url(#_未命名的渐变_4);
      }

      .st29 {
        fill: none;
        stroke: #5b5b5b;
        stroke-linecap: round;
        stroke-linejoin: round;
        stroke-width: 2.9px;
      }

      .st30 {
        fill: #f5a34d;
      }
    </style>
    <linearGradient id="_未命名的渐变_4" data-name="未命名的渐变 4" x1="677.2" y1="-475.6" x2="682.9" y2="-503.2" gradientTransform="translate(-468.7 -601.3) scale(.7 -1.3)" gradientUnits="userSpaceOnUse">
      <stop offset="0" stop-color="#fff"/>
      <stop offset="1" stop-color="#fff" stop-opacity="0"/>
    </linearGradient>
    <linearGradient id="_未命名的渐变_41" data-name="未命名的渐变 4" x1="450.4" y1="-512.7" x2="444.2" y2="-485.1" gradientTransform="translate(-311.6 -604.7) scale(.7 -1.3)" xlink:href="#_未命名的渐变_4"/>
    <linearGradient id="_未命名的渐变_42" data-name="未命名的渐变 4" x1="206.2" y1="-839" x2="242.5" y2="-832.3" gradientTransform="translate(-264.5 -589.1) scale(1.3 -.7)" xlink:href="#_未命名的渐变_4"/>
    <linearGradient id="_未命名的渐变_43" data-name="未命名的渐变 4" x1="249.4" y1="-1144.4" x2="214" y2="-1153.2" gradientTransform="translate(-264.8 -793) scale(1.3 -.7)" xlink:href="#_未命名的渐变_4"/>
  </defs>
  <path class="st18" d="M50.3,64H13.8c-7.6,0-13.8-6.2-13.8-13.7V13.7C0,6.2,6.2,0,13.7,0h36.5c7.5,0,13.7,6.2,13.7,13.7v36.6c0,7.5-6.2,13.7-13.7,13.7h0Z"/>
  <g class="st12">
    <path class="st0" d="M0,59.5v2.3c0,1.9,1.5,3.4,3.4,3.4h57.4c1.9,0,3.4-1.5,3.4-3.4v-2.3c0,1.9-1.5,3.4-3.4,3.4H3.4c-1.9,0-3.4-1.5-3.4-3.4Z"/>
    <path class="st26" d="M3.2-.1C2.3-.1,1.5.3.9.8l31.2,31.2L63.3.8c-.6-.6-1.4-.9-2.3-.9,0,0-57.8,0-57.8,0Z"/>
    <path class="st20" d="M3.2,64.1c-.9,0-1.7-.4-2.3-.9l31.2-31.2,31.2,31.2c-.6.6-1.4.9-2.3.9H3.2Z"/>
    <path class="st24" d="M64.2,3.1c0-.9-.4-1.7-.9-2.3l-31.2,31.2,31.2,31.2c.6-.6.9-1.4.9-2.3V3.1h0Z"/>
    <path class="st25" d="M0,3.1c0-.9.4-1.7.9-2.3l31.2,31.2L.9,63.2c-.6-.6-.9-1.4-.9-2.3V3.1h0Z"/>
    <path class="st5" d="M35,5.6c-1.4,0-2.5.2-3.6.5-1,.3-1.9.8-2.6,1.3-.7.6-1.3,1.2-1.8,2s-.8,1.3-1.1,2.1c-.3.9-.5,1.8-.6,2.8s-.2,1.9-.2,2.9h0c0,1.5.2,2.9.5,4,.4,1.1.9,2,1.5,2.8.7.7,1.4,1.3,2.3,1.7.9.4,1.8.5,2.8.5s2-.2,2.8-.5,1.5-.8,2.1-1.4,1-1.4,1.3-2.2c.3-.9.5-1.9.5-3s0-2-.4-2.8c-.3-.8-.6-1.6-1.1-2.1-.5-.6-1.1-1-1.8-1.3s-1.5-.4-2.4-.4-1.1,0-1.5.2c-.4.1-.8.3-1.2.5-.4.2-.7.6-.9.9-.3.3-.5.6-.7.9h-.2c0-1,.2-1.8.4-2.6.2-.8.5-1.1,1-1.7.5-.6,1.1-1,1.9-1.3.8-.3,1.8-.5,3.1-.5s.8,0,1.2,0,.8.1,1.1.2v-3.5h-2.6s.2,0,.2,0ZM32.4,16c.8,0,1.5.3,1.9.9s.6,1.4.6,2.4,0,1.1-.2,1.6c0,.4-.3.8-.5,1.1-.2.3-.5.5-.8.7-.3.1-.7.2-1,.2s-.9-.1-1.2-.4c-.3-.2-.6-.5-.9-.9-.2-.4-.4-.8-.5-1.3s-.2-1-.2-1.4,0-.7.2-1c.1-.3.3-.6.6-.9.3-.3.6-.5.9-.7.4-.2.7-.3,1.2-.3h0ZM47,24v10.3l1,.9c.2,0,.4,0,.6-.2.2,0,.5,0,.8-.2h1.6c1.3,0,2.3.3,3,.8.6.5,1,1.3,1,2.3s-.3,2-1,2.5-1.6.8-2.9.8-.9,0-1.3,0-.9-.2-1.4-.3-.9-.3-1.3-.4c-.4-.2-.8-.3-1.1-.5v3.7c.3.2.7.3,1.1.5.4,0,.9.3,1.3.3s1,.2,1.5.2h1.5c1.3,0,2.4-.2,3.4-.5s1.8-.8,2.5-1.4c.7-.6,1.2-1.4,1.5-2.2.3-.9.5-1.9.5-3s-.2-1.9-.5-2.7-.8-1.4-1.3-2c-.6-.5-1.2-.9-2-1.2-.8-.3-1.6-.4-2.5-.4h0c-.6,0-1.1,0-1.5.1-.4,0-.7.1-1,.2l.3-4.1h6.5v-3.4h-10.3,0ZM11.5,24.1c-.8,0-1.6,0-2.2.3-.7.2-1.3.4-1.8.6-.6.3-1.1.6-1.5.9-.5.3-.9.5-1.3.9l2.4,2.8c.7-.7,1.5-1.2,2.1-1.6.7-.4,1.4-.5,2.1-.5s1.3.2,1.7.6.6.9.6,1.6,0,1.2-.3,1.7c-.2.5-.5,1.1-.8,1.6-.4.5-.8,1.1-1.3,1.6-.5.6-1,1.2-1.7,1.8l-4.8,5.4v2.8h13.7v-3.4h-8.3v-.2l2.5-2.7c.7-.7,1.4-1.4,2-2.1.6-.7,1.2-1.4,1.7-2.1.5-.7.9-1.4,1.1-2.2.3-.7.4-1.5.4-2.3s-.1-1.7-.4-2.4c-.3-.7-.7-1.1-1.3-1.6-.6-.5-1.2-.9-2-1.2-.8-.3-1.7-.4-2.6-.4h0ZM25.2,42.5v3.2h9.4l-7.3,17.2h4.5l7.1-17.7v-2.7h-13.8.1Z"/>
    <path class="st14" d="M35,4.5c-1.4,0-2.5.2-3.6.5-1,.3-1.9.8-2.6,1.3-.7.6-1.3,1.2-1.8,2s-.8,1.3-1.1,2.1c-.3.9-.5,1.8-.6,2.8s-.2,1.9-.2,2.9h0c0,1.5.2,2.9.5,4,.4,1.1.9,2,1.5,2.8.7.7,1.4,1.3,2.3,1.7.9.4,1.8.5,2.8.5s2-.2,2.8-.5,1.5-.8,2.1-1.4,1-1.4,1.3-2.2c.3-.9.5-1.9.5-3s0-2-.4-2.8c-.3-.8-.6-1.6-1.1-2.1-.5-.6-1.1-1-1.8-1.3s-1.5-.4-2.4-.4-1.1,0-1.5.2c-.4.1-.8.3-1.2.5-.4.2-.7.6-.9.9-.3.3-.5.6-.7.9h-.2c0-1,.2-1.8.4-2.6.2-.8.5-1.1,1-1.7.5-.6,1.1-1,1.9-1.3.8-.3,1.8-.5,3.1-.5s.8,0,1.2,0,.8,0,1.1.2v-3.5h-2.6s.2,0,.2,0ZM32.4,14.9c.8,0,1.5.3,1.9.9.4.6.6,1.4.6,2.4s0,1.1-.2,1.6c0,.4-.3.8-.5,1.1-.2.3-.5.5-.8.7-.3.1-.7.2-1,.2s-.9-.1-1.2-.4c-.3-.2-.6-.5-.9-.9-.2-.4-.4-.8-.5-1.3s-.2-1-.2-1.4,0-.7.2-1c.1-.3.3-.6.6-.9.3-.3.6-.5.9-.7.4-.2.7-.3,1.2-.3h0ZM47,22.8v10.3l1,.9c.2,0,.4,0,.6-.2.2,0,.5,0,.8-.2h1.6c1.3,0,2.3.3,3,.8.6.5,1,1.3,1,2.3s-.3,2-1,2.5-1.6.8-2.9.8-.9,0-1.3,0-.9-.2-1.4-.3-.9-.3-1.3-.4c-.4-.2-.8-.3-1.1-.5v3.7c.3.2.7.3,1.1.5.4,0,.9.3,1.3.3s1,.2,1.5.2h1.5c1.3,0,2.4-.2,3.4-.5s1.8-.8,2.5-1.4c.7-.6,1.2-1.4,1.5-2.2.3-.9.5-1.9.5-3s-.2-1.9-.5-2.7-.8-1.4-1.3-2c-.6-.5-1.2-.9-2-1.2-.8-.3-1.6-.4-2.5-.4h0c-.6,0-1.1,0-1.5.1-.4,0-.7.1-1,.2l.3-4.1h6.5v-3.4h-10.3,0ZM11.5,22.9c-.8,0-1.6,0-2.2.3-.7.2-1.3.4-1.8.6-.6.3-1.1.6-1.5.9-.5.3-.9.5-1.3.9l2.4,2.8c.7-.7,1.5-1.2,2.1-1.6.7-.4,1.4-.5,2.1-.5s1.3.2,1.7.6.6.9.6,1.6,0,1.2-.3,1.7c-.2.5-.5,1.1-.8,1.6-.4.5-.8,1.1-1.3,1.6-.5.6-1,1.2-1.7,1.8l-4.8,5.4v2.8h13.7v-3.4h-8.3v-.2l2.5-2.7c.7-.7,1.4-1.4,2-2.1.6-.7,1.2-1.4,1.7-2.1.5-.7.9-1.4,1.1-2.2.3-.7.4-1.5.4-2.3s-.1-1.7-.4-2.4c-.3-.7-.7-1.1-1.3-1.6-.6-.5-1.2-.9-2-1.2-.8-.3-1.7-.4-2.6-.4h0ZM25.2,41.4v3.2h9.4l-7.3,17.2h4.5l7.1-17.7v-2.7h-13.8.1Z"/>
    <path class="st1" d="M3.4-.1C1.5-.1,0,1.4,0,3.3v1.1C0,2.6,1.5,1,3.4,1h57.4c1.9,0,3.4,1.5,3.4,3.4v-1.1c0-1.9-1.5-3.4-3.4-3.4,0,0-57.4,0-57.4,0Z"/>
  </g>
  <g class="st12">
    <ellipse class="st0" cx="31.9" cy="33.2" rx="30.8" ry="30.8"/>
    <ellipse class="st11" cx="31.9" cy="32.1" rx="30.8" ry="30.8"/>
    <path class="st9" d="M32.3,1.4c-.8,0-1.7,0-2.5,0C13.9,2.6,1.5,15.6,1.2,31.5c0,.3,0,.6,0,.9,1,14.3,13.5,26.1,28.2,24.9,12.8-1,23.4-12.3,22.2-25.4-1-11.3-11-20.6-22.7-19.4-9.8,1-17.8,9.8-16.5,20,1.1,8.3,8.6,15.1,17.4,13.7,6.8-1.1,12.4-7.5,10.8-14.7-.6-2.6-2.1-4.9-4.2-6.4s-5.1-2.3-8-1.4c-1.9.6-3.4,1.8-4.4,3.6-1,1.7-1.4,4.4,0,6.6,1.1,1.7,2.1,2,3.7,2.3.8.1,1.9.2,3-.6,1.1-.7,1.8-2.3,1.8-3.4h-6.2c0-.3.3-1.3,1-1.8.7-.5,1.2-.4,1.4-.3.3,0,0-.4.5.4,0,0,0,0,.1-.1.2-.3.7-.7,1-.8.9-.3,1.7-.1,2.6.5.8.6,1.6,1.7,1.8,2.7.7,3.5-2.2,6.8-5.8,7.4-5,.8-9.6-3.4-10.3-8.4-.8-6.6,4.6-12.4,11.1-13.1,8.1-.9,15.2,5.8,16,13.8.9,9.6-7,18-16.5,18.8-11.1.9-20.8-8.2-21.6-19.3-.9-12.6,9.5-23.5,22-24.3,14.1-.9,26.3,10.7,27.1,24.7.9,15.7-12,29.1-27.5,29.9v.5c1,0,2,.1,2.9.1,16.8,0,30.4-13.4,30.7-30.2,0-.2,0-.5,0-.7,0-6-1.6-10.3-3.6-14.3-4.8-8.9-13.6-15-23.7-16.1-1-.1-2-.2-3.1-.2ZM29,30.5s0,0,0,0c0,0,0,0,0,0Z"/>
    <path class="st2" d="M30.7,7.6c-.4,0-.9,0-1.3,0-12.2.8-22.4,11.2-22,23.4.3-11.7,10.2-21.5,22-22.3,14.1-.9,26.3,10.7,27.1,24.7,0,.3,0,.7,0,1,0-.7,0-1.4,0-2.1-.8-13.6-12.2-24.9-25.8-24.8ZM31,18.6c-.5,0-1,0-1.5,0-6.3.7-11.5,6.1-11.1,12.3.3-5.8,5.2-10.6,11.1-11.2,8.1-.9,15.2,5.8,16,13.8,0,.3,0,.7,0,1,0-.7,0-1.4,0-2.1-.7-7.5-7-13.8-14.5-13.9ZM30.8,29.5c-.2,0-.4,0-.7.1-.3,0-.8.5-1,.8,0,.1,0,.1-.1.1-.5-.8-.2-.4-.5-.4-.2,0-.7-.1-1.4.3-.7.5-1,1.5-1,1.8h.4c.2-.3.4-.5.6-.7.7-.5,1.2-.4,1.4-.3.3,0,0-.4.5.4,0,0,0,0,.1-.1.2-.3.7-.7,1-.8.9-.3,1.7-.1,2.6.5.8.6,1.6,1.7,1.8,2.7,0,.2,0,.3,0,.5,0-.5,0-1.1,0-1.6-.2-1-.9-2.1-1.8-2.7-.6-.5-1.2-.7-1.9-.6ZM12.2,31.1c0,.9,0,1.7.1,2.6,1.1,8.3,8.6,15.1,17.4,13.7,6.2-1,11.3-6.4,11-12.8-.3,5.9-5.2,10.8-11,11.7-8.7,1.4-16.3-5.4-17.4-13.7,0-.5,0-1-.1-1.5ZM22.9,31.2c0,1.2.1,2.5.9,3.7,1.1,1.7,2.1,2,3.7,2.3.8.1,1.9.2,3-.6,1.1-.7,1.8-2.3,1.8-3.4h-.2c-.3.9-.8,1.8-1.6,2.3-1.1.7-2.2.7-3,.6-1.6-.3-2.6-.6-3.7-2.3-.5-.8-.8-1.7-.9-2.6ZM1.2,32.1c0,.2,0,.4,0,.6,0,.3,0,.6,0,.9,1,14.3,13.5,26.1,28.2,24.9,12.3-1,22.5-11.4,22.2-23.9-.3,12-10.3,21.9-22.2,22.8-14.7,1.2-27.2-10.6-28.2-24.9,0-.1,0-.2,0-.3ZM62.6,33.7c0,.8-.1,1.6-.2,2.4,0-.8.2-1.6.2-2.4ZM62.2,37.3c0,.6-.2,1.1-.3,1.7.1-.6.2-1.1.3-1.7ZM61.5,40.6c-.1.4-.2.8-.4,1.2.1-.4.3-.8.4-1.2ZM60.5,43.5c-.1.4-.3.7-.5,1.1.2-.4.3-.7.5-1.1ZM59.3,46.2c-.2.5-.5.9-.8,1.4.3-.5.5-.9.8-1.4ZM57.8,48.8c-.3.5-.7,1-1,1.5.4-.5.7-1,1-1.5ZM56.1,51.2c-.4.5-.8,1-1.2,1.4.4-.5.8-.9,1.2-1.4ZM54,53.5c-.4.4-.8.8-1.2,1.2.4-.4.8-.8,1.2-1.2ZM51.5,55.9c-.3.3-.6.5-.9.7.3-.2.6-.5.9-.7ZM49,57.7c-.3.2-.6.4-.8.6.3-.2.6-.4.8-.6ZM46.3,59.3c-.2.1-.5.3-.7.4.2-.1.5-.3.7-.4ZM43.5,60.6c-.2,0-.5.2-.7.3.2,0,.5-.2.7-.3ZM40.5,61.7c-.2,0-.5.1-.7.2.2,0,.5-.1.7-.2ZM37.3,62.4c-.2,0-.4,0-.6,0,.2,0,.4,0,.6,0ZM34.4,62.8c-.3,0-.7,0-1,0,.3,0,.7,0,1,0Z"/>
    <path class="st4" d="M32.3,1.4c-.8,0-1.7,0-2.5,0C13.9,2.6,1.5,15.6,1.2,31.5c0,.2,0,.4,0,.5C1.8,16.4,14.1,3.7,29.7,2.6c.8,0,1.7,0,2.5,0,1,0,2.1,0,3.1.2,10.1,1.1,18.9,7.1,23.7,16.1,1.9,4,3.6,8.3,3.6,14.3,0,0,0,.1,0,.2,0-.2,0-.4,0-.6,0-.2,0-.5,0-.7,0-6-1.6-10.3-3.6-14.3-4.8-8.9-13.6-15-23.7-16.1-1-.1-2-.2-3.1-.2ZM31,12.4c-.7,0-1.4,0-2.2.1-9.3,1-17,9-16.7,18.5.2-9.1,7.7-16.5,16.7-17.4,11.7-1.2,21.7,8,22.7,19.4,0,.5,0,1,0,1.5,0-.9,0-1.7,0-2.6-1-10.6-9.8-19.4-20.6-19.5ZM30.4,23.3c-.7,0-1.5.2-2.2.4-1.9.6-3.4,1.8-4.4,3.6-.6,1.1-1,2.5-.9,4,0-1.1.4-2.1.9-2.9,1-1.7,2.5-3,4.4-3.6,2.9-.9,5.9-.2,8,1.4s3.7,3.8,4.2,6.4c.1.6.2,1.3.2,1.9,0-1,0-2-.2-3-.6-2.6-2.1-4.9-4.2-6.4-1.6-1.2-3.7-1.9-5.8-1.8ZM18.4,31c0,.6,0,1.3,0,1.9.6,5,5.3,9.2,10.3,8.4,3.4-.5,6.2-3.6,5.8-6.9-.3,2.8-2.9,5.3-5.8,5.8-5,.8-9.6-3.4-10.3-8.4,0-.3,0-.5,0-.8ZM7.3,31c0,.7,0,1.4,0,2,.8,11,10.4,20.1,21.6,19.3,9.2-.7,16.8-8.6,16.6-17.7-.4,8.7-7.7,15.9-16.6,16.6-11.1.9-20.8-8.2-21.6-19.3,0-.3,0-.6,0-.9ZM26.5,32.2c-.3.4-.4.9-.4,1.1h6c.1-.4.2-.8.2-1.1h-5.7ZM56.5,34.4c-.3,14.7-12.7,27-27.5,27.8v.5c1,0,2,.1,2.9.1.3,0,.6,0,1,0,13.4-2.6,23.9-14.5,23.6-28.4Z"/>
  </g>
  <g class="st12">
    <path class="st5" d="M13.6,6.5c-.6,0-1,.6-1,1.4s1.4,4.9,3.2,9.2c1.7,3.8,2,4.9,1.8,5.2-.2.2-.7-.5-2.2-3.6-1.5-2.9-1.8-3.4-2.4-3-.5.4-.5.9.2,3.3.7,2.3.9,3.5.5,3.5s-1.5-1.2-3.8-4c-2.4-2.9-3-3.4-3.5-2.7-.4.6-.3.9.5,2.6.6,1.2,1.2,1.9,2.6,3.4,2.1,2.1,3.6,3.1,6.1,4.1.9.3,1.7.8,1.9.9.2.2,4.2,1.9,5.7,3.4h2.1s0,0,0,0h.5v-2.2l-4.6-7.6c-.2-.2,0-1.5.7-4.8.8-3.7,0-6.8-1.5-5.5-.7.7-1,2.4-1.1,6.1,0,2.1,0,3.5-.2,3.5-.3.1-1-1.8-1.9-5.3-.4-1.7-1.1-3.9-1.4-4.8-.6-1.7-1.7-3.3-2.3-3.3Z"/>
    <path class="st5" d="M50.4,6.5c.6,0,1,.6,1,1.4s-1.4,4.9-3.2,9.2c-1.7,3.8-2,4.9-1.8,5.2.2.2.7-.5,2.2-3.6,1.5-2.9,1.8-3.4,2.4-3,.5.4.5.9-.2,3.3-.7,2.3-.9,3.5-.5,3.5s1.5-1.2,3.8-4c2.4-2.9,3-3.4,3.5-2.7.4.6.3.9-.5,2.6-.6,1.2-1.2,1.9-2.6,3.4-2.1,2.1-3.6,3.1-6.1,4.1-.9.3-1.7.8-1.9.9-.2.2-4.2,1.9-5.7,3.4h-2.1s0,0,0,0h-.5v-2.2l4.6-7.6c.2-.2,0-1.5-.7-4.8-.8-3.7,0-6.8,1.5-5.5.7.7,1,2.4,1.1,6.1,0,2.1,0,3.5.2,3.5.3.1,1-1.8,1.9-5.3.4-1.7,1.1-3.9,1.4-4.8.6-1.7,1.7-3.3,2.3-3.3h0Z"/>
    <ellipse class="st5" cx="32" cy="52.5" rx="4.9" ry="5"/>
    <path class="st30" d="M50.4,5.6c.6,0,1,.6,1,1.4s-1.4,4.9-3.2,9.2c-1.7,3.8-2,4.9-1.8,5.2.2.2.7-.5,2.2-3.6,1.5-2.9,1.8-3.4,2.4-3,.5.4.5.9-.2,3.3-.7,2.3-.9,3.5-.5,3.5s1.5-1.2,3.8-4c2.4-2.9,3-3.4,3.5-2.7.4.6.3.9-.5,2.6-.6,1.2-1.2,1.9-2.6,3.4-2.1,2.1-3.6,3.1-6.1,4.1-.9.3-1.7.8-1.9.9-.2.2-4.2,1.9-5.7,3.4h-2.1s0,0,0,0h-.5v-2.2l4.6-7.6c.2-.2,0-1.5-.7-4.8-.8-3.7,0-6.8,1.5-5.5.7.7,1,2.4,1.1,6.1,0,2.1,0,3.5.2,3.5.3.1,1-1.8,1.9-5.3.4-1.7,1.1-3.9,1.4-4.8.6-1.7,1.7-3.3,2.3-3.3h0Z"/>
    <ellipse class="st23" cx="32" cy="51.6" rx="4.9" ry="5"/>
    <path class="st30" d="M13.6,5.6c-.6,0-1,.6-1,1.4s1.4,4.9,3.2,9.2c1.7,3.8,2,4.9,1.8,5.2-.2.2-.7-.5-2.2-3.6-1.5-2.9-1.8-3.4-2.4-3-.5.4-.5.9.2,3.3.7,2.3.9,3.5.5,3.5s-1.5-1.2-3.8-4c-2.4-2.9-3-3.4-3.5-2.7-.4.6-.3.9.5,2.6.6,1.2,1.2,1.9,2.6,3.4,2.1,2.1,3.6,3.1,6.1,4.1.9.3,1.7.8,1.9.9.2.2,4.2,1.9,5.7,3.4h2.1s0,0,0,0h.5v-2.2l-4.6-7.6c-.2-.2,0-1.5.7-4.8.8-3.7,0-6.8-1.5-5.5-.7.7-1,2.4-1.1,6.1,0,2.1,0,3.5-.2,3.5-.3.1-1-1.8-1.9-5.3-.4-1.7-1.1-3.9-1.4-4.8-.6-1.7-1.7-3.3-2.3-3.3Z"/>
    <path class="st7" d="M13.6,5.6c-.6,0-1,.6-1,1.4s0,.3,0,.4c.1-.6.5-1,1-1s1.7,1.6,2.3,3.3c.3.9,1,3.1,1.4,4.8.9,3.5,1.6,5.4,1.9,5.3.1,0,.2-1.4.2-3.5,0-3.7.3-5.4,1.1-6.1,1-.9,1.7.3,1.8,2.4.1-2.6-.6-4.3-1.8-3.3-.7.7-1,2.4-1.1,6.1,0,2.1,0,3.5-.2,3.5-.3.1-1-1.8-1.9-5.3-.4-1.7-1.1-3.9-1.4-4.8-.6-1.7-1.7-3.3-2.3-3.3ZM50.4,5.6c-.6,0-1.7,1.6-2.3,3.3-.3.9-1,3.1-1.4,4.8-.9,3.5-1.6,5.4-1.9,5.3-.1,0-.2-1.4-.2-3.5,0-3.7-.3-5.4-1.1-6.1-1.1-1-1.9.7-1.8,3.3,0-2.1.8-3.3,1.8-2.4.7.7,1,2.4,1.1,6.1,0,2.1,0,3.5.2,3.5.3.1,1-1.8,1.9-5.3.4-1.7,1.1-3.9,1.4-4.8.6-1.7,1.7-3.3,2.3-3.3s.9.4,1,1c0-.2,0-.3,0-.4,0-.8-.5-1.4-1-1.4ZM13.4,14.8c-.1,0-.3,0-.4.1-.3.2-.4.5-.3,1.2,0-.1.2-.2.3-.3.6-.4,1,0,2.4,3,1.5,3,2,3.8,2.2,3.6,0,0,0-.4-.1-.9-.3,0-.8-1-2.1-3.6-1.1-2.2-1.6-3-2-3.1ZM50.6,14.8c-.4.1-.9.9-2,3.1-1.3,2.6-1.8,3.5-2.1,3.6-.1.5-.2.8-.1.9.2.2.7-.5,2.2-3.6,1.5-2.9,1.8-3.4,2.4-3,.1,0,.2.2.3.3.1-.7,0-1-.3-1.2-.2,0-.3-.1-.4-.1ZM6.9,14.8c-.2,0-.3.1-.4.3-.2.3-.3.6-.1,1.1,0,0,0-.2.1-.2.5-.7,1.1-.2,3.5,2.7,2.3,2.8,3.4,4,3.8,4s.2-.3.1-1c0,0,0,0-.1,0-.4,0-1.5-1.2-3.8-4-1.8-2.2-2.6-3-3.1-2.9ZM57.1,14.8c-.5,0-1.3.8-3.1,2.9-2.3,2.8-3.4,4-3.8,4s0,0-.1,0c-.1.6,0,1,.1,1,.4,0,1.5-1.2,3.8-4,2.4-2.9,3-3.4,3.5-2.7,0,0,.1.2.1.2.1-.5,0-.8-.1-1.1-.1-.2-.3-.3-.4-.3ZM21.2,19.7c0,.5,0,.8,0,.9l4.6,7.6v-.9l-4.6-7.6s0,0,0,0ZM42.8,19.7s0,0,0,0l-4.6,7.6v.9l4.6-7.6c0,0,0-.4,0-.9Z"/>
    <path class="st23" d="M41.8,31.5c0,5.6-9.8,18.1-9.8,18.1,0,0-9.8-12.5-9.8-18.1s4.4-10.1,9.8-10.1,9.8,4.5,9.8,10.1Z"/>
    <g>
      <path id="ellipse911" class="st14" d="M37.2,28c-1.1-.8-2.7,0-3.7,1.6s-.9,3.7.2,4.4,2.7,0,3.7-1.6.9-3.7-.2-4.4Z"/>
      <path id="ellipse913" class="st16" d="M36.3,30.2c-.7-.5-1.7,0-2.3,1s-.6,2.3.1,2.8,1.7,0,2.3-1,.6-2.3-.1-2.8Z"/>
    </g>
    <path class="st14" d="M26.7,28c1.1-.8,2.7,0,3.7,1.6s.9,3.7-.2,4.4-2.7,0-3.7-1.6-.9-3.7.2-4.4Z"/>
    <path id="ellipse909" class="st16" d="M27.6,30.4c.7-.5,1.7,0,2.3,1s.6,2.3-.1,2.8-1.7,0-2.3-1-.6-2.3.1-2.8Z"/>
    <path class="st5" d="M32,32.9c-1.3,0-2.3.3-3.5,1.5-3,3.5-6.8,11.9-6.8,14.8.1,4.1,1.3,6.7,3.8,6.5,2.6.1,4.4-1.9,6.5-2,2,0,3.9,2.1,6.5,2,2.5.2,3.7-2.4,3.8-6.5,0-2.9-3.8-11.3-6.8-14.8-1.3-1.2-2.2-1.6-3.5-1.5Z"/>
    <path class="st15" d="M32,32c-1.3,0-2.3.3-3.5,1.5-3,3.5-6.8,11.9-6.8,14.8.1,4.1,1.3,6.7,3.8,6.5,2.6.1,4.4-1.9,6.5-2,2,0,3.9,2.1,6.5,2,2.5.2,3.7-2.4,3.8-6.5,0-2.9-3.8-11.3-6.8-14.8-1.3-1.2-2.2-1.6-3.5-1.5Z"/>
    <path class="st6" d="M26.7,51c-1.1-.6-1.6-1.8-1.6-3.7,0-.8.1-1.5.3-1.6.1,0,.4.4.6,1,.4,1.3,1.3,2.3,2.3,2.7,1.2.5,1.3,1.3.3,1.7-.7.3-1.1.3-1.9-.1Z"/>
    <path class="st6" d="M37.3,51c1.1-.6,1.6-1.8,1.6-3.7,0-.8-.1-1.5-.3-1.6-.1,0-.4.4-.6,1-.4,1.3-1.3,2.3-2.3,2.7-1.2.5-1.3,1.3-.3,1.7.7.3,1.1.3,1.9-.1Z"/>
    <path class="st3" d="M32,18.7c-6.5,0-10,2.7-11.8,5.5-1.5,2.4-1.7,4.7-1.7,5.4-.2.5-.3,1-.3,1.5,0,1.9,1.2,3.5,2.6,3.5h1.7c.5,0,.9-.5.9-1.2v-4.7c0-.7-.4-1.2-.9-1.2h-1.1c.2-.6.5-1.3.9-2,1.3-2.2,3.9-4.4,9.7-4.4s8.4,2.2,9.7,4.4c.4.7.7,1.4.9,2h-1.1c-.5,0-.9.5-.9,1.2v4.7c0,.7.4,1.2.9,1.2h1.7c1.4,0,2.6-1.6,2.6-3.5s0-1.1-.3-1.5c0-.6-.2-2.9-1.7-5.4-1.7-2.8-5.3-5.5-11.8-5.5Z"/>
    <path class="st29" d="M19.7,29s0-9.9,12.3-9.9,12.3,9.9,12.3,9.9"/>
    <path class="st10" d="M32,21.4c-5.4,0-9.8,4.5-9.8,10.1s0,.2,0,.3c.3-5.3,4.6-9.5,9.8-9.5s9.5,4.2,9.8,9.5c0,0,0-.2,0-.3,0-5.6-4.4-10.1-9.8-10.1Z"/>
    <path class="st27" d="M20.8,26.7c-1.4,0-2.6,1.6-2.6,3.5s1.2,3.5,2.6,3.5h1.7c.5,0,.9-.5.9-1.2v-4.7c0-.7-.4-1.2-.9-1.2h-1.7Z"/>
    <path class="st27" d="M43.2,26.7c1.4,0,2.6,1.6,2.6,3.5s-1.2,3.5-2.6,3.5h-1.7c-.5,0-.9-.5-.9-1.2v-4.7c0-.7.4-1.2.9-1.2h1.7Z"/>
    <path class="st10" d="M31.5,32c-1.1,0-2,.5-3.1,1.6-3,3.5-6.8,11.9-6.8,14.8,0,.2,0,.3,0,.5.3-3.2,3.9-11,6.7-14.4,1.3-1.2,2.2-1.6,3.5-1.5,1.3,0,2.3.3,3.5,1.5,2.9,3.4,6.4,11.2,6.7,14.4,0-.2,0-.3,0-.5,0-2.9-3.8-11.3-6.8-14.8-1.3-1.2-2.2-1.6-3.5-1.5-.2,0-.3,0-.5,0Z"/>
  </g>
  <g>
    <ellipse class="st0" cx="31.9" cy="33" rx="32" ry="31.9"/>
    <ellipse class="st13" cx="31.9" cy="31.9" rx="32" ry="31.9"/>
    <path class="st28" d="M35.2,51.7l-.5-3.6c8.9-1.9,14.5-10.6,12.5-19.3-1.7-7.4-8.4-12.6-16.1-12.7-.2,0-.5,0-.7,0h0c0,0-.1,0-.2,0-1,0-1.8-.8-1.8-1.8,0-1,.8-1.8,1.8-1.8,0,0,.2,0,.2,0,.2,0,.5,0,.7,0,11.1,0,20.2,8.8,20.1,19.8,0,9.4-6.7,17.5-16.1,19.3h0Z"/>
    <path class="st19" d="M28.6,12.1l.5,3.6c-8.9,1.9-14.5,10.6-12.5,19.3,1.7,7.4,8.4,12.6,16.1,12.7.2,0,.5,0,.7,0h0c1,0,1.9.6,2,1.6.1,1-.6,1.9-1.6,2,0,0-.1,0-.2,0,0,0-.1,0-.2,0-.2,0-.5,0-.7,0-11.1,0-20.2-8.8-20.2-19.8,0-9.4,6.7-17.5,16.1-19.3h0Z"/>
    <path class="st22" d="M53.7,28.3c-2.1-11.3-12.4-19.1-23.7-18-11.3,1.1-19.9,9.9-19.9,21.4,0,.2,0,.4,0,.6h0c.2,2.2-3,2.6-3.3.4h0c0-.3,0-.7,0-1,0-13.3,10-23.6,23.1-24.8,13.1-1.2,24.9,8,27.2,21l-3.3.4h0Z"/>
    <path class="st17" d="M9.8,35.4c2.1,11.3,12.5,19.1,23.9,18,11.4-1.1,20.1-9.9,20.1-21.3,0-.2,0-.4,0-.6h0c0,0,0-.1,0-.2,0-2.1,3.1-2.3,3.3-.2h0c0,.3,0,.7,0,1,0,13.3-10.1,23.6-23.3,24.7-13.2,1.2-25.1-7.9-27.4-21l3.4-.4h0Z"/>
    <path class="st5" d="M43.1,32.2l-9.9,12.6c-.3.5-.8.7-1.3.7h0c-.5,0-1-.3-1.3-.7l-9.9-12.6s-.7-1.5.8-1.5h3.1c.3,0,.5-.2.5-.5v-7.1c0-.8.6-1.5,1.4-1.5h10.9c.8,0,1.4.7,1.4,1.5v3.4h0v3.8c0,.3.2.5.5.5h3.1c1.6,0,.8,1.5.8,1.5h0Z"/>
    <path class="st21" d="M43.1,31.1l-9.9,12.6c-.3.5-.8.7-1.3.7h0c-.5,0-1-.3-1.3-.7l-9.9-12.6s-.7-1.5.8-1.5h3.1c.3,0,.5-.2.5-.5v-7.1c0-.8.6-1.5,1.4-1.5h10.9c.8,0,1.4.7,1.4,1.5v3.4h0v3.8c0,.3.2.5.5.5h3.1c1.6,0,.8,1.5.8,1.5h0Z"/>
    <path class="st8" d="M31.9,0C14.2,0-.1,14.3-.1,31.9c0,.2,0,.4,0,.6C.2,15.1,14.4,1.2,31.9,1.1c17.3,0,31.5,13.8,32,31,0,0,0-.2,0-.3C63.9,14.3,49.6,0,31.9,0Z"/>
    <path class="st7" d="M26.4,20.5c-.8,0-1.4.7-1.4,1.5v1.1c0-.8.6-1.5,1.4-1.5h10.9c.8,0,1.4.7,1.4,1.5v-1.1c0-.8-.6-1.5-1.4-1.5h-10.9ZM25,29.1c0,.3-.2.5-.5.5h-3.1c-1.5,0-.9,1.3-.8,1.4.1-.2.4-.3.8-.3h3.1c.3,0,.5-.2.5-.5v-1.1ZM38.8,29.1v1.1c0,.3.2.5.5.5h3.1c.4,0,.7.1.8.3,0-.1.6-1.4-.8-1.4h-3.1c-.3,0-.5-.2-.5-.5Z"/>
  </g>
</svg>