<?xml version="1.0" encoding="UTF-8"?>
<svg id="_图层_1" xmlns="http://www.w3.org/2000/svg" version="1.1" viewBox="0 0 64 64" width="22" height="22">
  <!-- Generator: Adobe Illustrator 29.0.1, SVG Export Plug-In . SVG Version: 2.1.0 Build 192)  -->
  <defs>
    <style>
      .st0 {
        fill: #8fb635;
      }

      .st1 {
        fill: #3895bd;
      }

      .st2, .st3 {
        isolation: isolate;
        opacity: .2;
      }

      .st2, .st3, .st4 {
        display: none;
      }

      .st5 {
        fill: #d6ac12;
      }

      .st6 {
        fill: #d18c3b;
      }

      .st7 {
        fill: #bb3a84;
      }

      .st8 {
        fill: #3941bf;
      }

      .st3 {
        fill: #fff;
      }

      .st4, .st9 {
        fill: #e4e4e4;
      }

      .st10 {
        opacity: .1;
      }

      .st11 {
        fill: #a02c35;
      }
    </style>
  </defs>
  <path class="st9" d="M50.3,64H13.9C6.3,64,.2,57.8.2,50.3V13.8C.2,6.2,6.3,0,13.9,0h36.5c7.5,0,13.7,6.2,13.7,13.7v36.5c0,7.5-6.1,13.7-13.7,13.7h0Z"/>
  <g>
    <ellipse class="st2" cx="32.1" cy="33.1" rx="32.3" ry="32"/>
    <ellipse class="st4" cx="32.1" cy="31.9" rx="32.3" ry="32"/>
    <g class="st10">
      <path d="M22.9,38.2v-10.3s9.2-5.1,9.2-5.1l9.2,5.1v10.3s-9.2,5.1-9.2,5.1l-9.2-5.1Z"/>
      <path d="M33.4,11v9l9.5,5.1,8-4.7-17.5-9.5Z"/>
      <path d="M30.2,11v9l-9.5,5.1-8-4.7,17.5-9.5Z"/>
      <path d="M52.5,22.8l-7.9,4.5.3,10.8,8.1,4.5-.5-19.7Z"/>
      <path d="M11.8,22.8l7.9,4.5-.3,10.8-8.1,4.5.5-19.7Z"/>
      <path d="M33.4,55.1v-9l9.5-5.1,8,4.7-17.5,9.5Z"/>
      <path d="M30.2,55.1v-9l-9.5-5.1-8,4.7,17.5,9.5Z"/>
    </g>
    <g>
      <path class="st5" d="M22.9,37.1v-10.3s9.2-5.1,9.2-5.1l9.2,5.1v10.3s-9.2,5.1-9.2,5.1l-9.2-5.1Z"/>
      <path class="st0" d="M33.4,9.9v9l9.5,5.1,8-4.7-17.5-9.5Z"/>
      <path class="st1" d="M30.2,9.9v9l-9.5,5.1-8-4.7,17.5-9.5Z"/>
      <path class="st6" d="M52.5,21.6l-7.9,4.5.3,10.8,8.1,4.5-.5-19.7Z"/>
      <path class="st8" d="M11.8,21.6l7.9,4.5-.3,10.8-8.1,4.5.5-19.7Z"/>
      <path class="st11" d="M33.4,54v-9l9.5-5.1,8,4.7-17.5,9.5Z"/>
      <path class="st7" d="M30.2,54v-9l-9.5-5.1-8,4.7,17.5,9.5Z"/>
    </g>
    <path class="st3" d="M32.1-.1C14.3-.1-.2,14.2-.2,31.9c0,.2,0,.4,0,.7C0,15.1,14.5,1,32.1,1c17.6,0,31.9,13.9,32.3,31.4,0-.2,0-.3,0-.5C64.5,14.2,50-.1,32.1-.1Z"/>
  </g>
</svg>