<?xml version="1.0" encoding="UTF-8"?>
<svg id="_图层_1" xmlns="http://www.w3.org/2000/svg" version="1.1" viewBox="0 0 64 64" width="22" height="22">
  <!-- Generator: Adobe Illustrator 29.0.1, SVG Export Plug-In . SVG Version: 2.1.0 Build 192)  -->
  <defs>
    <style>
      .st0 {
        fill: #fcde4b;
      }

      .st1 {
        fill: #e32037;
      }

      .st1, .st2, .st3, .st4, .st5, .st6, .st7 {
        display: none;
      }

      .st8 {
        fill: #4f4f4f;
      }

      .st9 {
        fill: none;
        stroke: #ea8504;
        stroke-linecap: round;
        stroke-linejoin: round;
        stroke-width: 10px;
      }

      .st2, .st3, .st10, .st11, .st12, .st13 {
        isolation: isolate;
      }

      .st2, .st12, .st13 {
        opacity: .2;
      }

      .st3, .st14, .st13 {
        fill: #fff;
      }

      .st3, .st10 {
        opacity: .1;
      }

      .st4, .st15 {
        fill: #4a5579;
      }

      .st16 {
        fill: #f9548f;
      }

      .st11 {
        opacity: .3;
      }

      .st6 {
        fill: #526fc5;
      }

      .st17 {
        fill: #5a387c;
      }

      .st7 {
        fill: #1b299c;
      }

      .st18 {
        fill: #64fdfd;
      }

      .st19 {
        fill: #bc2b1a;
      }

      .st20 {
        fill: #fbba22;
      }

      .st21 {
        fill: #53d953;
      }

      .st22 {
        fill: #f1432e;
      }
    </style>
  </defs>
  <path class="st15" d="M50.4,64H13.8c-7.6,0-13.8-6.2-13.8-13.7V13.7C0,6.2,6.2,0,13.7,0h36.6c7.5,0,13.7,6.2,13.7,13.7v36.6c0,7.5-6.2,13.7-13.7,13.7h.1Z"/>
  <g class="st5">
    <path class="st12" d="M11.9,8.5c-2.7,0-4.9,2.2-4.9,5s2.2,5,4.9,5c1.8,0,3.5-1,4.3-2.7,1.6.7,3.4,1.8,4.7,3.6,1.8,2.5,2.6,5.8,2.9,8.4-8,2.5-13.3,8.4-13.3,15,0,9,9.6,16.3,21.4,16.3s21.4-7.3,21.4-16.3c0-6.6-5.3-12.6-13.3-15,.3-2.6,1.1-5.9,2.9-8.4,1.3-1.8,3.1-2.9,4.7-3.6.8,1.7,2.5,2.7,4.3,2.7,2.7,0,4.9-2.2,4.9-5s-2.2-5-4.9-5c-2.6,0-4.8,2.1-4.9,4.7-2.1.8-4.4,2.2-6.2,4.6-2.1,2.9-3,6.5-3.4,9.3-1.8-.4-3.7-.6-5.6-.6-1.9,0-3.8.2-5.6.6-.4-2.8-1.3-6.4-3.4-9.3-1.8-2.4-4.1-3.8-6.2-4.6-.1-2.6-2.3-4.7-4.9-4.7Z"/>
    <path class="st8" d="M11.9,11.3c-.7,0-1.3.5-1.3,1.2,0,.7.5,1.3,1.2,1.3,0,0,0,0,0,0,0,0,5.9.2,9.2,4.7,3.3,4.5,3.1,12.2,3.1,12.2,0,.7.5,1.3,1.2,1.3s1.3-.5,1.3-1.2c0,0,.5-8.2-3.6-13.8-4.1-5.6-11.1-5.7-11.1-5.7Z"/>
    <ellipse class="st0" cx="11.9" cy="12.6" rx="4.9" ry="5"/>
    <path class="st8" d="M52.1,11.3s-7,.1-11.1,5.7c-4.1,5.6-3.6,13.8-3.6,13.8,0,.7.6,1.2,1.3,1.2s1.2-.6,1.2-1.3c0,0,0,0,0,0,0,0-.2-7.7,3.1-12.2,3.3-4.5,9.2-4.7,9.2-4.7.7,0,1.2-.6,1.2-1.3,0-.7-.6-1.3-1.3-1.2,0,0,0,0,0,0Z"/>
    <ellipse class="st0" cx="52.1" cy="12.6" rx="4.9" ry="5"/>
    <ellipse class="st0" cx="32" cy="42" rx="21.4" ry="16.3"/>
    <path class="st13" d="M11.9,7.6c-2.7,0-4.9,2.2-4.9,5,0,.1,0,.3,0,.4.2-2.6,2.3-4.5,4.9-4.5,2.5,0,4.7,2,4.9,4.5,0-.2,0-.3,0-.5,0-2.7-2.2-5-4.9-5ZM52.1,7.6c-2.7,0-4.9,2.2-4.9,5,0,.2,0,.3,0,.5.2-2.6,2.3-4.5,4.9-4.5,2.5,0,4.6,2,4.9,4.5,0-.1,0-.3,0-.4,0-2.7-2.2-5-4.9-5ZM32,25.7c-11.8,0-21.4,7.3-21.4,16.3,0,.2,0,.4,0,.5.3-8.8,9.7-15.9,21.4-15.9,11.5,0,21,7,21.4,15.7,0-.1,0-.3,0-.4,0-9-9.6-16.3-21.4-16.3Z"/>
    <path class="st10" d="M19.5,31.1c-4.9,0-8.9,2.8-8.9,6.3s4,6.3,8.9,6.3,8.9-2.8,8.9-6.3h0c0-3.5-4-6.3-8.9-6.3ZM44.5,31.1c-4.9,0-8.9,2.8-8.9,6.3s4,6.3,8.9,6.3,8.9-2.8,8.9-6.3h0c0-3.5-4-6.3-8.9-6.3ZM32,45.6c-1.9,0-1.4.9-2.7.9s-1.8-.1-1.8.5c0,1.3.7,5.8,4.5,5.8s4.5-4.6,4.5-5.8-.9-.5-1.8-.5-.8-.9-2.7-.9Z"/>
    <ellipse class="st21" cx="19.5" cy="36.6" rx="8.9" ry="6.3"/>
    <ellipse class="st14" cx="19.5" cy="34.8" rx="3.6" ry="2.7"/>
    <ellipse class="st21" cx="44.5" cy="36.6" rx="8.9" ry="6.3"/>
    <path class="st16" d="M27.6,46.1c0-.6.9-.5,1.8-.5s.8-.9,2.7-.9,1.4.9,2.7.9,1.8-.1,1.8.5c0,1.3-.7,5.8-4.5,5.8s-4.5-4.6-4.5-5.8Z"/>
    <ellipse class="st14" cx="44.5" cy="34.8" rx="3.6" ry="2.7"/>
  </g>
  <g class="st5">
    <ellipse class="st2" cx="32" cy="33.1" rx="32" ry="31.9"/>
    <ellipse class="st6" cx="32" cy="31.9" rx="32" ry="31.9"/>
    <path class="st10" d="M16,14.8c-1.9,0-3.4,1.5-3.4,3.4s1.5,3.4,3.4,3.4v23.9h-1.1c-1.9,0-3.4,1.5-3.4,3.4s1.5,3.4,3.4,3.4c3.1,0,6,0,9.1,0s3.4-1.5,3.4-3.4-1.5-3.4-3.4-3.4h-1.1v-15.5l6,13.2c1.2,2.8,5.2,2.8,6.3,0l6-13.2v15.5h-1.1c-1.9,0-3.4,1.5-3.4,3.4s1.5,3.4,3.4,3.4c3.1,0,6,0,9.1,0s3.4-1.5,3.4-3.4-1.5-3.4-3.4-3.4h-1.1v-23.9c1.9,0,3.4-1.5,3.4-3.4s-1.5-3.4-3.4-3.4h-5.7c-.7,0-1.3.3-1.9.6,0,0,0,0,0,0,0,0,0,0,0,0-.6.4-.9.9-1.2,1.4,0,0,0,0,0,0,0,0,0,0,0,0l-7.1,16-7.1-16s0,0,0,0c0,0,0,0,0,0-.2-.6-.7-1-1.2-1.4,0,0,0,0,0,0-.6-.4-1.2-.5-1.9-.6h-5.7Z"/>
    <path class="st17" d="M16,13.7c-1.9,0-3.4,1.5-3.4,3.4s1.5,3.4,3.4,3.4v23.9h-1.1c-1.9,0-3.4,1.5-3.4,3.4s1.5,3.4,3.4,3.4c3.1,0,6,0,9.1,0s3.4-1.5,3.4-3.4-1.5-3.4-3.4-3.4h-1.1v-15.5l6,13.2c1.2,2.8,5.2,2.8,6.3,0l6-13.2v15.5h-1.1c-1.9,0-3.4,1.5-3.4,3.4s1.5,3.4,3.4,3.4c3.1,0,6,0,9.1,0s3.4-1.5,3.4-3.4-1.5-3.4-3.4-3.4h-1.1v-23.9c1.9,0,3.4-1.5,3.4-3.4s-1.5-3.4-3.4-3.4h-5.7c-.7,0-1.3.3-1.9.6,0,0,0,0,0,0,0,0,0,0,0,0-.6.4-.9.9-1.2,1.4,0,0,0,0,0,0,0,0,0,0,0,0l-7.1,16-7.1-16s0,0,0,0c0,0,0,0,0,0-.2-.6-.7-1-1.2-1.4,0,0,0,0,0,0-.6-.4-1.2-.5-1.9-.6h-5.7Z"/>
    <path class="st3" d="M32,0C14.3,0,0,14.3,0,31.9c0,.2,0,.4,0,.7C.3,15.2,14.5,1.2,32,1.1c17.4,0,31.6,13.9,32,31.3,0-.2,0-.3,0-.5C64,14.3,49.7,0,32,0Z"/>
  </g>
  <g class="st5">
    <path class="st2" d="M0,31.9c0,.4,0,.8,0,1.1,0,17.7,14.3,31.9,32,31.9s32-14.2,32-31.9,0-.8,0-1.1c-.6,17.1-14.6,30.7-31.9,30.7S.7,49,0,31.9h0Z"/>
    <path class="st1" d="M32,0h0c17.7,0,32,14.3,32,31.9h0c0,17.6-14.3,31.9-32,31.9h0C14.3,63.8,0,49.5,0,31.9H0C0,14.3,14.3,0,32,0Z"/>
    <path class="st3" d="M32,0C14.3,0,0,14.2,0,31.9s0,.3,0,.4C.4,15,14.5,1.1,32,1.1s31.6,13.8,32,31.1c0-.1,0-.3,0-.4C64,14.2,49.7,0,32,0Z"/>
    <path class="st12" d="M13.7,17.1v31.9h9.1v-18.2l9.1,8,9.1-8v18.2h9.1v-31.9h-9.1l-9.1,8-9.1-8h-9.1Z"/>
    <path class="st14" d="M13.7,15.9v31.9h9.1v-18.2l9.1,8,9.1-8v18.2h9.1V15.9h-9.1l-9.1,8-9.1-8h-9.1Z"/>
  </g>
  <g class="st5">
    <path class="st12" d="M31,36.1c-.4,0-.7.3-.9.7l-9.9,22c-.3.7-.1,1.5.4,1.9.2.1.4.2.5.2h19.8c.6,0,1.1-.6,1.1-1.4,0-.2,0-.5-.1-.7l-9.9-22c-.2-.5-.6-.7-1-.7Z"/>
    <path class="st19" d="M31,35.1c-.4,0-.7.3-.9.7l-9.9,22c-.3.7-.1,1.5.4,1.9.2.1.4.2.5.2h19.8c.6,0,1.1-.6,1.1-1.4,0-.2,0-.5-.1-.7l-9.9-22c-.2-.5-.6-.7-1-.7Z"/>
    <path class="st12" d="M31.1,2.9c-2.1.6-17.1,16.3-21.4,22.3-6.7,9.4-8.3,15.7-4.9,20.5,2.2,3.2,6.4,5,10.7,5.1,6.6,0,11.6-3.1,15.6-7.1,4,4,9,7.1,15.6,7.1,4.2-.1,8.4-2,10.7-5.1,3.4-4.8,1.8-11.1-4.9-20.5-4.3-6.1-19.3-21.7-21.4-22.3Z"/>
    <path class="st22" d="M31.1,1.9c-2.1.6-17.1,16.3-21.4,22.3-6.7,9.4-8.3,15.7-4.9,20.5,2.2,3.2,6.4,5,10.7,5.1,6.6,0,11.6-3.1,15.6-7.1,4,4,9,7.1,15.6,7.1,4.2-.1,8.4-2,10.7-5.1,3.4-4.8,1.8-11.1-4.9-20.5C48.2,18.1,33.2,2.5,31.1,1.9Z"/>
    <path class="st13" d="M31.1,1.9c-2.1.6-17.1,16.3-21.4,22.3-4.6,6.5-6.8,11.5-6.6,15.5.2-3.9,2.4-8.6,6.6-14.5C14,19.1,29,3.5,31.1,2.9c2.1.6,17.1,16.3,21.4,22.3,4.2,6,6.4,10.7,6.6,14.5.2-4.1-2-9-6.6-15.5C48.2,18.1,33.2,2.5,31.1,1.9Z"/>
    <path class="st12" d="M17.1,18.9v26h6v-17.7l4,4.4,4,4,4-4,4-4.4v17.7h6v-26h-6l-8,8.4-8-8.4h-6Z"/>
    <path class="st14" d="M17.1,17.9v26h6v-17.7l4,4.4,4,4,4-4,4-4.4v17.7h6v-26h-6l-8,8.4-8-8.4h-6Z"/>
  </g>
  <g class="st5">
    <path class="st12" d="M22.8,6.9c-8.4,0-15.2,9.9-15.2,22.1,0,7.1,2.4,13.8,6.4,17.9-1.9.4-3.1.8-3.1.8-2.4.6-3.8,3.1-3.2,5.4.6,2.4,3.1,3.7,5.5,3.1,0,0,.1,0,.2,0,0,0,8.8-2.5,19.3-2.5s19.3,2.5,19.3,2.5c2.4.7,4.9-.6,5.6-2.9.7-2.3-.6-4.8-3-5.5,0,0-.1,0-.2,0,0,0-1.2-.3-3.2-.8,4-4.1,6.4-10.8,6.4-17.9,0-12.2-6.8-22.1-15.2-22.1-3.6,0-7.1,1.9-9.8,5.3-2.7-3.4-6.2-5.3-9.8-5.3Z"/>
    <ellipse class="st20" cx="22.8" cy="28.1" rx="15.2" ry="22.1"/>
    <ellipse class="st20" cx="42.4" cy="28.1" rx="15.2" ry="22.1"/>
    <path class="st9" d="M12.1,51s9.3-2.6,20.5-2.6,20.5,2.6,20.5,2.6"/>
    <path class="st11" d="M22.7,13.1c-1.1,0-3,.7-4.7,3.3-1.7,2.6-3.1,7-3.1,11.9s1.4,9.3,3.1,11.9c1,1.5,2.3,2.4,3.1,2.8,2.3-.3,5.1-.6,8-.7v-21.9c-.5-1.6-1.3-3-2-4-1.7-2.6-3.3-3.3-4.4-3.3ZM42.7,13.1c-1.1,0-2.6.7-4.4,3.3-.7,1.1-1.6,2.5-2.1,4v21.9c2.9.1,5.7.4,8.1.7.8-.5,2.1-1.3,3.1-2.8,1.7-2.6,3.1-7,3.1-11.9s-1.4-9.3-3.1-11.9c-1.7-2.6-3.6-3.3-4.7-3.3Z"/>
    <path class="st13" d="M22.8,6c-8.4,0-15.2,9.9-15.2,22.1,0,.1,0,.2,0,.4.2-12,6.9-21.5,15.2-21.5,3.6,0,7.1,1.9,9.8,5.3,2.7-3.4,6.2-5.2,9.8-5.3,8.3,0,15,9.7,15.2,21.7,0-.2,0-.4,0-.6,0-12.2-6.8-22.1-15.2-22.1-3.6,0-7.1,1.9-9.8,5.3-2.7-3.4-6.2-5.3-9.8-5.3Z"/>
  </g>
  <g class="st5">
    <path class="st2" d="M64,62V4.3c0-1.8-1.8-3.2-4-3.2H4C1.8,1.1,0,2.5,0,4.3v57.7c0,1.8,1.8,3.2,4,3.2h56c2.2,0,4-1.4,4-3.2Z"/>
    <path class="st7" d="M64,60.9V3.2c0-1.8-1.8-3.2-4-3.2H4C1.8,0,0,1.4,0,3.2v57.7c0,1.8,1.8,3.2,4,3.2h56c2.2,0,4-1.4,4-3.2Z"/>
    <path class="st12" d="M8.3,7.7v6.6H0v37.6h8.3v6.6h47.3v-6.6h8.3V14.4h-8.3v-6.6H8.3ZM15.3,17.7h8.3v11h-8.3v-11ZM40.3,17.7h8.3v11h-8.3v-11ZM15.3,35.3h33.4v6.6h-8.3v6.6h-16.7v-6.6h-8.3v-6.6Z"/>
    <path class="st18" d="M8.3,6.6v6.6H0v37.6h8.3v6.6h47.3v-6.6h8.3V13.3h-8.3v-6.6H8.3ZM15.3,16.6h8.3v11h-8.3v-11ZM40.3,16.6h8.3v11h-8.3v-11ZM15.3,34.2h33.4v6.6h-8.3v6.6h-16.7v-6.6h-8.3v-6.6Z"/>
    <path class="st3" d="M4,0C1.8,0,0,1.4,0,3.2v1.1C0,2.5,1.8,1.1,4,1.1h56c2.2,0,4,1.4,4,3.2v-1.1c0-1.8-1.8-3.2-4-3.2H4Z"/>
    <path class="st13" d="M8.3,6.6v1.1h47.3v-1.1H8.3ZM0,13.3v1.1h8.3v-1.1H0ZM55.7,13.3v1.1h8.3v-1.1h-8.3ZM15.3,27.6v1.1h8.3v-1.1h-8.3ZM40.3,27.6v1.1h8.3v-1.1h-8.3ZM15.3,40.9v1.1h8.3v-1.1h-8.3ZM40.3,40.9v1.1h8.3v-1.1h-8.3ZM23.7,47.5v1.1h16.7v-1.1h-16.7Z"/>
  </g>
  <g>
    <path class="st2" d="M3.4,1.1h57.3c1.9,0,3.4,1.5,3.4,3.4v57.2c0,1.9-1.5,3.4-3.4,3.4H3.4c-1.9,0-3.4-1.5-3.4-3.4V4.6C0,2.7,1.5,1.1,3.4,1.1Z"/>
    <path class="st4" d="M3.4,0h57.3c1.9,0,3.4,1.5,3.4,3.4v57.2c0,1.9-1.5,3.4-3.4,3.4H3.4c-1.9,0-3.4-1.5-3.4-3.4V3.4C0,1.5,1.5,0,3.4,0Z"/>
    <path class="st3" d="M3.4,0C1.5,0,0,1.5,0,3.4v1.1C0,2.7,1.5,1.1,3.4,1.1h57.3c1.9,0,3.4,1.5,3.4,3.4v-1.1c0-1.9-1.5-3.4-3.4-3.4H3.4Z"/>
    <path class="st12" d="M16.9,51.5c0-.2,7.6-9.4,7.8-9.4,0,0,3.5,1.5,7.6,3.2,7,3,7,3.2,7.2,2.9.3-.4,1.3-2.3,1.8-3.6l.4-1.1-.7-.4c-1.1-.6-2.1-1.9-3.1-3-.9-1-2.5-3.4-2.5-3.8s.5.4,1.1,1.1c1.7,2.1,5.3,5.3,5.5,4.9.3-.5.5-2.2.5-4,0-2.3-.3-3.9-1.1-6.4l-.4-1c-1.5-.9-2.7-1.4-4.4-1.9-.9-.3-.4-.3,1,0,1.6.4,3.7.7,4.7.8.9.1,1.1,0,1.2-1.1.1-1.3-.7-4.6-1.6-6.4-.3-.7-.5-.9-1.2-1.2-2.2-1-9.6-2-12.6-1.7-1.3.1-2.6.4-3,.7-.1,0,.7.3,2.1.6,1.3.2,2.2.4,2.1.5-.2,0-2.2,0-4.5-.4-4.1-.5-4.6-.3-4.9,0-.6.5-1.4,1.2-1.6,1.9-.2.8-.2.8.2,1.6.6,1.3,2.2,2.3,4.9,3.7,1.3.7,2.3,1.2,2.3,1.3,0,0-1.1-.4-2.4-.9l-2.4-1-3.5,1c-1.9.5-3.5,1-3.6,1s-.1-2.3-.1-6.2c0-6,0-6.3.3-6.9.2-.4.5-.8.8-1l.5-.3h16c8.8,0,16.3,0,16.8,0,1,.1,1.9.8,2.1,1.7.1.4.1,6.1.1,16.9v16.3s-.4.5-.4.5c-.2.3-.6.7-1,.9-.6.3-.8.3-16.4.3s-15.8,0-15.8-.1"/>
    <path class="st14" d="M16.9,50.3c0-.2,7.7-9.4,7.8-9.4,0,0,3.5,1.5,7.6,3.2,7,3,7,3.2,7.2,2.9.3-.4,1.3-2.3,1.8-3.6l.4-1.1-.7-.4c-1.1-.6-2.1-1.9-3.1-3-.9-1-2.5-3.4-2.5-3.8s.5.4,1.1,1.1c1.7,2.1,5.3,5.3,5.5,4.9.3-.5.5-2.2.5-4,0-2.3-.3-3.9-1.1-6.4l-.4-1c-1.5-.9-2.7-1.4-4.4-1.9-.9-.3-.4-.3,1,0,1.6.4,3.7.7,4.7.8.9.1,1.1,0,1.2-1.1.1-1.3-.7-4.6-1.6-6.4-.3-.7-.5-.9-1.2-1.2-2.2-1-9.6-2-12.6-1.7-1.3.1-2.6.4-3,.7-.1,0,.7.3,2.1.6,1.3.2,2.2.4,2.1.5-.2,0-2.2,0-4.5-.4-4.1-.5-4.6-.3-4.9,0-.6.5-1.4,1.2-1.6,1.9-.2.8-.2.8.2,1.6.6,1.3,2.2,2.3,4.9,3.7,1.3.7,2.3,1.2,2.3,1.3,0,0-1.1-.4-2.4-.9l-2.4-1-3.5,1c-1.9.5-3.5,1-3.6,1s-.1-2.3-.1-6.2c0-6,0-6.3.3-6.9.2-.4.5-.8.8-1l.5-.3h16c8.8,0,16.3,0,16.8,0,1,.1,1.9.8,2.1,1.7.1.4.1,6.1.1,16.9v16.3s-.4.5-.4.5c-.2.3-.6.7-1,.9-.6.3-.8.3-16.4.3s-15.8,0-15.8-.1"/>
  </g>
</svg>