<?xml version="1.0" encoding="UTF-8" standalone="no"?>
<svg
   id="_图层_1"
   version="1.1"
   viewBox="0 0 64 64" width="22" height="22"
   sodipodi:docname="mutt.svg"
   xml:space="preserve"
   inkscape:version="1.4 (e7c3feb100, 2024-10-09)"
   xmlns:inkscape="http://www.inkscape.org/namespaces/inkscape"
   xmlns:sodipodi="http://sodipodi.sourceforge.net/DTD/sodipodi-0.dtd"
   xmlns="http://www.w3.org/2000/svg"
   xmlns:svg="http://www.w3.org/2000/svg"><sodipodi:namedview
     id="namedview26"
     pagecolor="#505050"
     bordercolor="#eeeeee"
     borderopacity="1"
     inkscape:showpageshadow="0"
     inkscape:pageopacity="0"
     inkscape:pagecheckerboard="0"
     inkscape:deskcolor="#505050"
     inkscape:zoom="10.6875"
     inkscape:cx="32"
     inkscape:cy="32"
     inkscape:window-width="1920"
     inkscape:window-height="939"
     inkscape:window-x="0"
     inkscape:window-y="34"
     inkscape:window-maximized="1"
     inkscape:current-layer="_图层_1" /><!-- Generator: Adobe Illustrator 29.0.1, SVG Export Plug-In . SVG Version: 2.1.0 Build 192)  --><defs
     id="defs6"><style
       id="style1">
      .st0 {
        fill-opacity: .5;
      }

      .st0, .st1, .st2, .st3, .st4, .st5, .st6, .st7 {
        fill: #fff;
      }

      .st8 {
        fill: #133c9a;
      }

      .st2, .st9 {
        display: none;
      }

      .st3 {
        fill-opacity: .2;
      }

      .st4 {
        fill-opacity: .9;
      }

      .st10 {
        fill: #3370ff;
      }

      .st11 {
        fill: url(#_未命名的渐变_3);
      }

      .st12 {
        fill: url(#_未命名的渐变);
      }

      .st5 {
        fill-opacity: .3;
      }

      .st6 {
        fill-opacity: 0;
      }

      .st7 {
        fill-opacity: .7;
      }

      .st13 {
        fill: #00d6b9;
      }

      .st14 {
        fill: url(#_未命名的渐变_2);
      }
    </style><radialGradient
       id="_未命名的渐变"
       data-name="未命名的渐变"
       cx="123.9"
       cy="-40.2"
       fx="123.9"
       fy="-40.2"
       r="59.4"
       gradientTransform="translate(-26.8 25.5) scale(.6 -.7)"
       gradientUnits="userSpaceOnUse"><stop
         offset="0"
         stop-color="#db202e"
         id="stop1" /><stop
         offset="1"
         stop-color="#e01b24"
         id="stop2" /></radialGradient><radialGradient
       id="_未命名的渐变_2"
       data-name="未命名的渐变 2"
       cx="67.6"
       cy="26.8"
       fx="67.6"
       fy="26.8"
       r="105.2"
       gradientTransform="translate(-26.6 25.3) scale(.6 -.7)"
       gradientUnits="userSpaceOnUse"><stop
         offset="0"
         stop-color="#ffb648"
         id="stop3" /><stop
         offset="1"
         stop-color="#ff7800"
         stop-opacity="0"
         id="stop4" /></radialGradient><radialGradient
       id="_未命名的渐变_3"
       data-name="未命名的渐变 3"
       cx="61.7"
       cy="18.6"
       fx="61.7"
       fy="18.6"
       r="68"
       gradientTransform="translate(-26.8 25.8) scale(.6 -.7)"
       gradientUnits="userSpaceOnUse"><stop
         offset="0"
         stop-color="#c64600"
         id="stop5" /><stop
         offset="1"
         stop-color="#a51d2d"
         id="stop6" /></radialGradient></defs><path
     class="st1"
     d="M47.5,64.1H13.8c-7.6,0-13.8-6.3-13.8-13.8V13.7C0,6.2,6.2,0,13.7,0h36.6c7.5,0,13.7,6.2,13.7,13.7v36.6c0,7.5-6.2,13.7-13.7,13.7h-2.9.1Z"
     id="path6"
     style="fill:#ebebeb;fill-opacity:1" /><g
     id="g26"
     transform="matrix(0.93316625,0,0,0.85091823,2.0451128,3.4080507)"><path
       style="opacity:0.2"
       d="m 4.0002398,55.999397 v 1.999934 c 0,2.474719 1.3654752,3.572483 2.9647026,3.886673 L 6.8009478,62 H 57.199292 L 57.007898,61.867184 C 59.968401,61.242485 60,58.000111 60,58.000111 v -1.999934 c 0,0 -0.03158,3.242294 -2.992102,3.867073 l 0.191994,0.131996 H 6.8015478 L 6.9655424,59.885249 C 5.3663949,59.57126 4.0008398,58.473296 4.0008398,55.999377 Z"
       id="path1" /><path
       style="fill:#4f4f4f"
       d="m 5.274198,22.654525 c -0.057498,0.0374 -0.1096164,0.0816 -0.1640746,0.122996 l -0.032799,0.0246 v 0.004 c -0.6517785,0.511784 -1.0773246,1.298978 -1.0773246,2.195728 l 3e-5,24.397199 c 4e-6,3.999868 3.1540964,3.999868 3.9998686,3.999868 H 55.998322 c 0,0 3.999868,0 3.999868,-3.999868 l -4e-5,-24.397199 c 0,-0.91699 -0.443745,-1.721063 -1.121043,-2.231126 l 0.012,-0.016 L 31.99999,3.0033709 c 0,0 -26.8891167,19.7765501 -26.7251221,19.6535541 z"
       id="path2" /><rect
       style="opacity:0.2"
       width="32"
       height="26"
       x="144"
       y="243"
       rx="2"
       ry="2"
       transform="matrix(1.399954,0,0,1.399954,-191.99332,-330.58787)"
       id="rect2" /><rect
       style="fill:#ebebeb"
       width="43.999001"
       height="35.999001"
       x="10"
       y="9"
       rx="3"
       ry="2.9979999"
       id="rect3" /><path
       style="opacity:0.1;fill:#ffffff"
       d="m 12.999944,9.0029738 c -1.661945,0 -2.999901,1.3373562 -2.999901,2.9979012 v 0.999968 c 0,-1.660546 1.337956,-2.997902 2.999901,-2.997902 h 37.998752 c 1.661945,0 2.999901,1.337356 2.999901,2.997902 v -0.999968 c 0,-1.660545 -1.337956,-2.9979012 -2.999901,-2.9979012 z"
       id="path3" /><path
       style="fill:#4f4f4f"
       d="M 4.0002398,25.000448 55.998532,60.999266 H 8.0001084 C 6.0001741,60.99925 4.0002398,60.010298 4.0002398,57.043396 Z"
       id="path4" /><path
       style="fill:#6a6a6a"
       d="m 55.998532,60.999266 c 3.999868,0 3.999868,-3.95587 3.999868,-3.95587 V 25.000448 L 8.0001084,60.999266 Z"
       id="path5" /><path
       style="fill:#848484"
       d="m 31.99932,15.000777 a 9.9996715,9.9996715 0 0 0 -9.999671,9.999671 9.9996715,9.9996715 0 0 0 9.999671,9.999672 h 6.99977 c 0.553982,0 0.999967,-0.445986 0.999967,-0.999967 0,-0.553982 -0.445985,-0.999968 -0.999967,-0.999968 h -6.99977 a 7.9997372,7.9997372 0 0 1 -7.999737,-7.999737 7.9997372,7.9997372 0 0 1 7.999737,-7.999737 7.9997372,7.9997372 0 0 1 7.999737,7.999737 v 2.999902 c 0,0.553982 -0.445985,0.999967 -0.999967,0.999967 -0.553982,0 -0.999967,-0.445985 -0.999967,-0.999967 v -2.999902 a 5.9998029,5.9998029 0 0 0 -5.999803,-5.999803 5.9998029,5.9998029 0 0 0 -5.999803,5.999803 5.9998029,5.9998029 0 0 0 5.999803,5.999803 5.9998029,5.9998029 0 0 0 4.26166,-1.781181 c 0.465985,1.049965 1.51195,1.781941 2.73791,1.781941 1.661945,0 2.999902,-1.337956 2.999902,-2.999901 V 25.001208 A 9.9996715,9.9996715 0 0 0 31.99912,15.001537 Z m 0,5.999803 a 3.9998686,3.9998686 0 0 1 3.999869,3.999868 3.9998686,3.9998686 0 0 1 -3.999869,3.999869 3.9998686,3.9998686 0 0 1 -3.999869,-3.999869 3.9998686,3.9998686 0 0 1 3.999869,-3.999868 z"
       id="path6-6" /></g></svg>
