<?xml version="1.0" encoding="UTF-8"?>
<svg id="_图层_1" xmlns="http://www.w3.org/2000/svg" version="1.1" xmlns:xlink="http://www.w3.org/1999/xlink" viewBox="0 0 64 64" width="22" height="22">
  <!-- Generator: Adobe Illustrator 29.0.1, SVG Export Plug-In . SVG Version: 2.1.0 Build 192)  -->
  <defs>
    <style>
      .st0, .st1 {
        fill: #fff;
      }

      .st2 {
        fill: #c149c0;
      }

      .st3 {
        fill: #f8c44e;
      }

      .st4, .st1 {
        opacity: .2;
      }

      .st4, .st1, .st5 {
        isolation: isolate;
      }

      .st6 {
        display: none;
      }

      .st7 {
        fill: #afafb1;
      }

      .st8 {
        fill: url(#_未命名的渐变_16);
      }

      .st5 {
        opacity: .6;
      }
    </style>
    <linearGradient id="_未命名的渐变_16" data-name="未命名的渐变 16" x1="51.4" y1="-1.4" x2="12.8" y2="65.5" gradientUnits="userSpaceOnUse">
      <stop offset="0" stop-color="#6ac6ff"/>
      <stop offset="1" stop-color="#0066d4"/>
    </linearGradient>
  </defs>
  <path class="st8" d="M50.3,64H13.9C6.3,64,.2,57.8.2,50.3V13.8C.2,6.2,6.3,0,13.9,0h36.5c7.5,0,13.7,6.2,13.7,13.7v36.5c0,7.5-6.1,13.7-13.7,13.7h0Z"/>
  <g>
    <path class="st0" d="M47.7,13c1.7,0,3.1,1.3,3.1,3v2.2c1.2.4,2,1.5,2,2.8v8.6c0,1.7-1.4,3-3.1,3.1h-2.6v6.4s0,5.4,0,5.4v4.6s0,.5,0,.5v.5s0,.2,0,.2h0c0,0,0,.1,0,.1,0,0,0,.2,0,.3h0c0,0,0,0,0,0h0s0,0,0,0h0s0,0,0,0h0c0,0,0,.1,0,.1h0c0,0,0,0,0,0h0s0,0,0,0h0s0,0,0,0h0s0,0,0,0h0s0,0,0,0h0s-.1.2-.1.2h0c0,0,0,.1,0,.1h0s0,0,0,0h0s0,0,0,0h0s0,0,0,0h0s0,0,0,0h0s0,0,0,0h0s0,0,0,0h0s0,0,0,0h0s0,0,0,0h0s0,0,0,0h0s0,0,0,0h0s0,0,0,0h0s0,0,0,0h0s0,0,0,0h0s0,0,0,0h0s0,0,0,0h0s0,0,0,0h0s0,0,0,0h0s0,0,0,0h-.2s-.2,0-.2,0c-.9,0-1.5-.8-1.5-1.7h0s0-.2,0-.2v-.7s0-.7,0-.7v-1.3s0-7.1,0-7.1v-4.3s0-3.3,0-3.3h-2.5c-1.7,0-3.1-1.3-3.1-3v-8.6c0-1.3.8-2.4,2-2.9v-2.2c0-1.7,1.4-3,3.1-3.1h0s4.3,0,4.3,0ZM36.7,15.5c.9,0,1.6.7,1.6,1.6s-.7,1.6-1.6,1.6h-19.6v22.1h23.2c.9,0,1.6.7,1.6,1.6h0c0,.9-.7,1.6-1.6,1.6h-6.6v4.3h6.1c.9,0,1.6.7,1.6,1.6s-.7,1.6-1.6,1.6h-15.5c-.9,0-1.6-.7-1.6-1.6,0,0,0,0,0,0,0-.9.7-1.6,1.6-1.6h6.1v-4.3h-13.6c-1.7,0-3.1-1.3-3.1-3v-22.5c0-1.7,1.4-3,3.1-3.1h19.8ZM44.8,48.9h0c0,0-.2,0-.2.1h0s0,0,0,0c0,0,.2,0,.2-.1,0,0,0,0,0,0ZM49.6,21.3h-8v8.2h8s0-8.2,0-8.2ZM47.6,16.2h-4v1.8h4s0-1.8,0-1.8Z"/>
    <g class="st6">
      <path class="st4" d="M19.7,55.4l-4-4H7.7c-2.2,0-4-1.8-4-4V11.4c0-2.2,1.8-4,4-4h48c2.2,0,4,1.8,4,4v36c0,2.2-1.8,4-4,4h-8l-4,4h-24Z"/>
      <path class="st7" d="M19.7,54.4l-4-4H7.7c-2.2,0-4-1.8-4-4V10.4c0-2.2,1.8-4,4-4h48c2.2,0,4,1.8,4,4v36c0,2.2-1.8,4-4,4h-8l-4,4h-24Z"/>
      <path class="st5" d="M23.7,46.4l-4-4h-8V14.4h40v28h-8l-4,4h-16Z"/>
      <g>
        <rect class="st3" x="17.7" y="14.4" width="4" height="4"/>
        <rect class="st3" x="23.7" y="14.4" width="4" height="4"/>
        <rect class="st3" x="29.7" y="14.4" width="4" height="4"/>
        <rect class="st3" x="35.7" y="14.4" width="4" height="4"/>
        <rect class="st3" x="41.7" y="14.4" width="4" height="4"/>
      </g>
      <path class="st1" d="M7.7,6.4c-2.2,0-4,1.8-4,4v1c0-2.2,1.8-4,4-4h48c2.2,0,4,1.8,4,4v-1c0-2.2-1.8-4-4-4H7.7Z"/>
      <path class="st1" d="M11.7,42.4v1h8l4,4h16l4-4h8v-1h-8l-4,4h-16l-4-4h-8Z"/>
    </g>
    <ellipse class="st4" cx="51.8" cy="48.8" rx="10.9" ry="10.6"/>
    <ellipse class="st2" cx="51.8" cy="48.1" rx="10.9" ry="10.6"/>
    <path class="st0" d="M50.4,42.8v1.4c-.6.2-1,.4-1.4.7l-1.3-.6-1.4,2.3,1.2.8c0,.2,0,.5,0,.7,0,.2,0,.5,0,.7l-1.2.8,1.4,2.3,1.3-.6c.4.3.8.5,1.3.7v1.4h2.8v-1.4c.6-.2,1-.4,1.4-.7l1.3.6,1.4-2.3-1.2-.8c0-.2,0-.5,0-.7,0-.2,0-.5,0-.7l1.2-.8-1.4-2.3-1.3.6c-.4-.3-.8-.5-1.3-.7v-1.4h-2.8ZM51.7,46.6c.9,0,1.6.7,1.6,1.5h0c0,.8-.7,1.5-1.6,1.5h0c-.9,0-1.6-.7-1.6-1.5h0c0-.8.7-1.5,1.6-1.5h0Z"/>
  </g>
</svg>