<?xml version="1.0" encoding="UTF-8"?>
<svg id="_图层_1" xmlns="http://www.w3.org/2000/svg" version="1.1" viewBox="0 0 64 64" width="22" height="22">
  <!-- Generator: Adobe Illustrator 29.0.1, SVG Export Plug-In . SVG Version: 2.1.0 Build 192)  -->
  <defs>
    <style>
      .st0, .st1, .st2, .st3, .st4 {
        opacity: .2;
      }

      .st0, .st1, .st2, .st3, .st4, .st5 {
        isolation: isolate;
      }

      .st0, .st6, .st4, .st7 {
        display: none;
      }

      .st8 {
        fill: #ff6c40;
      }

      .st9 {
        fill: #88d216;
      }

      .st10 {
        fill: #2c6de3;
      }

      .st1 {
        stroke: #000;
      }

      .st1, .st11 {
        fill: none;
        stroke-linecap: round;
        stroke-linejoin: round;
        stroke-width: 6px;
      }

      .st11 {
        stroke: #fff;
      }

      .st3, .st4, .st5 {
        fill: #fff;
      }

      .st12 {
        fill: #3ba4fa;
      }

      .st13 {
        fill: #53990f;
      }

      .st14, .st7 {
        fill: #7a7a7a;
      }

      .st5 {
        opacity: .1;
      }
    </style>
  </defs>
  <path class="st14" d="M50.5,64H13.9C6.3,64,0,57.8,0,50.3V13.7C0,6.2,6.3,0,13.8,0h36.6c7.5,0,13.7,6.2,13.7,13.7v36.6c0,7.5-6.2,13.7-13.7,13.7h.1Z"/>
  <g class="st6">
    <ellipse class="st0" cx="32" cy="33.1" rx="32" ry="32"/>
    <ellipse class="st7" cx="32" cy="32" rx="32" ry="32"/>
    <path class="st8" d="M28.5,15l-.6,1.2c-.9,1.8-.8,3.1.4,5.5.8,1.7.8,3,.7,4.2-.4,2.9-2,5.7-4.3,6.1-2.1.3-4.6-2.3-5.5-4-.9-1.7-1.2-.3-.5,2.3.2.8,1,3.1,1.7,4.6,2.1,4.8,1,7.4-1.6,8.2-1.4.4-2.9,0-4.2-1.2-.5-.5-1-.7-1.1-.6-.1.1-.3,1.4-.3,2.9-.6,4.9,3.3,6.8,7.1,9,2,1.1,4.2,2,6.6,2.5,1.4.3,3,.4,5.8.3,3.5,0,4.2-.2,6.5-.9,4.3-1.4,8-3.9,10.9-7.1,1.2-1.4,1.6-2.4,1.9-3.9.4-2.2.5-4.7.3-4.7s-.9.6-1.6,1.4c-1,1-1.5,1.4-2.1,1.4-1,0-2-.7-1.3-2.3,1-2.1.8-4.1-.4-6.7-.6-1.1-1.3-2.3-1.6-2.6-.5-.5-.5-.4-.5,1.3,0,3.3-.9,5.3-3.3,6.4-2,.9-5.1.9-6.5.1-2.1-1.2-2.1-3,0-8.1.5-1.2.9-2.1,1.1-2.8.8-2.2.5-4.4-.6-5.5-.7-.7-1.8-1.4-2.8-1.7-2.1-.8-3.4-1.7-3.9-3.5l-.4-1.5Z"/>
    <ellipse class="st1" cx="32" cy="33.1" rx="21.7" ry="21.7"/>
    <ellipse class="st11" cx="32" cy="32" rx="21.7" ry="21.7"/>
    <path class="st4" d="M32,0C14.4,0,0,14.3,0,32c0,.2,0,.4,0,.6C.4,15.1,14.6,1.1,32,1.1c17.4,0,31.6,14,31.9,31.4,0-.2,0-.4,0-.6C64,14.3,49.7,0,32,0Z"/>
  </g>
  <g>
    <path class="st2" d="M43.8,37.7h-23.5c-1.5,0-2.8,1.2-2.8,2.7v10.7c0,1.5,1.2,2.7,2.8,2.7h23.5c1.5,0,2.8-1.2,2.8-2.7v-10.7c0-1.5-1.2-2.7-2.8-2.7Z"/>
    <path class="st2" d="M19.3,12.7h23.5c1.5,0,2.8,1.2,2.8,2.7v10.7c0,1.5-1.2,2.7-2.8,2.7h-23.5c-1.5,0-2.8-1.2-2.8-2.7v-10.7c0-1.5,1.2-2.7,2.8-2.7Z"/>
    <path class="st2" d="M41.1,31.7c.4,0,.8.1,1.2.4l8.5,5.6,8.5,5.6c1.2.8,1.6,2.5.9,3.9-.2.4-.5.8-.9,1l-8.5,5.6-8.5,5.6c-1.2.8-2.7.3-3.4-1-.2-.4-.3-.9-.3-1.4v-22.3c0-1.6,1.1-2.9,2.5-2.9,0,0,0,0,0,0Z"/>
    <path class="st2" d="M21.9,6.7c-.4,0-.8.1-1.2.4l-8.5,5.6-8.5,5.6c-1.2.8-1.6,2.5-.9,3.9.2.4.5.8.9,1l8.5,5.6,8.5,5.6c1.2.8,2.7.3,3.4-1,.2-.4.3-.9.3-1.4V9.5c0-1.6-1.1-2.9-2.5-2.9,0,0,0,0,0,0Z"/>
    <path class="st10" d="M43.8,36.7h-23.5c-1.5,0-2.8,1.2-2.8,2.7v10.7c0,1.5,1.2,2.7,2.8,2.7h23.5c1.5,0,2.8-1.2,2.8-2.7v-10.7c0-1.5-1.2-2.7-2.8-2.7Z"/>
    <path class="st5" d="M20.3,36.7c-1.5,0-2.8,1.2-2.8,2.7v1c0-1.5,1.2-2.7,2.8-2.7h23.5c1.5,0,2.8,1.2,2.8,2.7v-1c0-1.5-1.2-2.7-2.8-2.7h-23.5Z"/>
    <path class="st13" d="M19.3,11.7h23.5c1.5,0,2.8,1.2,2.8,2.7v10.7c0,1.5-1.2,2.7-2.8,2.7h-23.5c-1.5,0-2.8-1.2-2.8-2.7v-10.7c0-1.5,1.2-2.7,2.8-2.7Z"/>
    <path class="st5" d="M19.3,11.7c-1.5,0-2.8,1.2-2.8,2.7v1c0-1.5,1.2-2.7,2.8-2.7h23.5c1.5,0,2.8,1.2,2.8,2.7v-1c0-1.5-1.2-2.7-2.8-2.7h-23.5Z"/>
    <path class="st12" d="M41.1,30.7c.4,0,.8.1,1.2.4l8.5,5.6,8.5,5.6c1.2.8,1.6,2.5.9,3.9-.2.4-.5.8-.9,1l-8.5,5.6-8.5,5.6c-1.2.8-2.7.3-3.4-1-.2-.4-.3-.9-.3-1.4v-22.3c0-1.6,1.1-2.9,2.5-2.9,0,0,0,0,0,0Z"/>
    <path class="st9" d="M21.9,5.7c-.4,0-.8.1-1.2.4l-8.5,5.6-8.5,5.6c-1.2.8-1.6,2.5-.9,3.9.2.4.5.8.9,1l8.5,5.6,8.5,5.6c1.2.8,2.7.3,3.4-1,.2-.4.3-.9.3-1.4V8.5c0-1.6-1.1-2.9-2.5-2.9,0,0,0,0,0,0Z"/>
    <path class="st3" d="M41.1,30.7c-1.4,0-2.6,1.2-2.6,2.8,0,0,0,0,0,0v1c0-1.6,1.1-2.9,2.5-2.9,0,0,0,0,0,0,.4,0,.8.1,1.2.4l8.5,5.6,8.5,5.6c.6.4,1.1,1.1,1.2,2,.2-1.2-.3-2.4-1.2-3l-8.5-5.6-8.5-5.6c-.4-.2-.8-.4-1.2-.4h0Z"/>
    <path class="st3" d="M21.9,5.7c-.4,0-.8.1-1.2.4L3.8,17.2c-.9.6-1.4,1.8-1.2,3,.1-.8.6-1.6,1.2-2L20.8,7.1c.4-.2.8-.4,1.2-.4,1.4,0,2.6,1.2,2.6,2.8,0,0,0,0,0,0v-1c0-1.6-1.1-2.9-2.5-2.9,0,0,0,0,0,0Z"/>
  </g>
</svg>