<?xml version="1.0" encoding="UTF-8"?>
<svg id="_图层_1" xmlns="http://www.w3.org/2000/svg" version="1.1" viewBox="0 0 64 64" width="22" height="22">
  <!-- Generator: Adobe Illustrator 29.0.1, SVG Export Plug-In . SVG Version: 2.1.0 Build 192)  -->
  <defs>
    <style>
      .st0 {
        fill: #4f4f4f;
      }

      .st1 {
        fill: #6ba63f;
      }

      .st2 {
        fill: #69c657;
      }

      .st3 {
        fill: #95d25f;
      }

      .st4, .st5 {
        isolation: isolate;
        opacity: .2;
      }

      .st6 {
        fill: #50a635;
      }

      .st7 {
        fill: #37b4ee;
      }

      .st5 {
        fill: #fff;
      }
    </style>
  </defs>
  <path class="st0" d="M50.3,64H13.9C6.3,64,.2,57.8.2,50.3V13.8C.2,6.2,6.3,0,13.9,0h36.5c7.5,0,13.7,6.2,13.7,13.7v36.5c0,7.5-6.1,13.7-13.7,13.7h0Z"/>
  <g>
    <path class="st4" d="M20.9,8.8l-8.5,6.5h0s-2.1,1.6-2.1,1.6v29.3l10.6,8.1v-27.9l21.2,27.9,8.5-6.5h0s2.1-1.6,2.1-1.6v-29.3l-10.6-8.1v27.9L20.9,8.8Z"/>
    <path class="st1" d="M52.7,16.1l-10.6-8.1v45.6l10.6-8.1v-29.3Z"/>
    <path class="st7" d="M10.4,16.1l10.6-8.1v45.6l-10.6-8.1v-29.3Z"/>
    <path class="st3" d="M20.9,8l29.6,39.1-8.5,6.5L12.5,14.5l8.5-6.5Z"/>
    <path class="st6" d="M42.1,35.9v17.7l8.5-6.5-8.5-11.2Z"/>
    <path class="st2" d="M20.9,8l-8.5,6.5,8.5,11.2V8Z"/>
    <path class="st5" d="M20.9,8l-8.5,6.5h0s-2.1,1.6-2.1,1.6v.8l2.1-1.6h0s0,0,0,0l8.5-6.5,21.2,27.9v-.8L20.9,8ZM42.1,8v.8l10.6,8.1v-.8l-10.6-8.1Z"/>
  </g>
</svg>