<?xml version="1.0" standalone="no"?><!DOCTYPE svg PUBLIC "-//W3C//DTD SVG 1.1//EN" "http://www.w3.org/Graphics/SVG/1.1/DTD/svg11.dtd"><svg t="1730417472980" class="icon" viewBox="0 0 1598 1024" version="1.1" xmlns="http://www.w3.org/2000/svg" p-id="47431" xmlns:xlink="http://www.w3.org/1999/xlink" width="22" height="22"><path d="M609.43581 284.455987v-0.049945l335.53432 200.980962 199.932105-84.158281A323.497438 323.497438 0 0 1 1273.611962 374.707627c7.391944 0 14.683997 0.349619 21.926104 0.799129a499.455671 499.455671 0 0 0-901.067977-150.485993L399.564537 224.870926a397.566714 397.566714 0 0 1 209.871273 59.585061z" fill="#0364B8" p-id="47432"></path><path d="M609.485756 284.406042A397.566714 397.566714 0 0 0 399.564537 224.870926l-5.094448 0.149837a399.4147 399.4147 0 0 0-322.648363 627.815778L367.599374 728.322243l131.556624-55.339689 292.83086-123.26566 152.933327-64.32989z" fill="#0078D4" p-id="47433"></path><path d="M1295.538066 375.506756A328.491995 328.491995 0 0 0 1273.611962 374.707627a323.497438 323.497438 0 0 0-128.659781 26.571042l-199.982051 84.108335 57.986804 34.712169 190.042883 113.825948 82.909641 49.645893 283.540985 169.814929a324.646186 324.646186 0 0 0-263.912377-477.879187z" fill="#1490DF" p-id="47434"></path><path d="M1275.909458 683.571014l-82.909641-49.645893-190.042883-113.875893-57.936858-34.662224-152.983272 64.32989-292.83086 123.26566L367.599374 728.322243l-295.87754 124.514298A399.015136 399.015136 0 0 0 399.564537 1024h874.047425a324.546295 324.546295 0 0 0 285.838481-170.614057z" fill="#28A8EA" p-id="47435"></path></svg>
