<?xml version="1.0" encoding="UTF-8"?>
<svg id="_图层_1" xmlns="http://www.w3.org/2000/svg" version="1.1" viewBox="0 0 64 64" width="22" height="22">
  <!-- Generator: Adobe Illustrator 29.0.1, SVG Export Plug-In . SVG Version: 2.1.0 Build 192)  -->
  <defs>
    <style>
      .st0, .st1, .st2, .st3, .st4, .st5 {
        display: none;
      }

      .st0, .st1, .st6, .st7, .st4 {
        isolation: isolate;
      }

      .st0, .st8, .st6, .st7, .st4 {
        opacity: .2;
      }

      .st1 {
        opacity: .1;
      }

      .st1, .st9, .st7, .st4 {
        fill: #fff;
      }

      .st2 {
        fill: #f08902;
      }

      .st10 {
        fill: #ed8f00;
      }

      .st11, .st5 {
        fill: #636363;
      }

      .st12 {
        fill: #e4e4e4;
      }
    </style>
  </defs>
  <path class="st11" d="M50.3,64H13.9C6.3,64,.2,57.8.2,50.3V13.8C.2,6.2,6.3,0,13.9,0h36.5c7.5,0,13.7,6.2,13.7,13.7v36.5c0,7.5-6.1,13.7-13.7,13.7h0Z"/>
  <g class="st3">
    <rect class="st0" x="4.1" y="5" width="56" height="56" rx="5.6" ry="5.6"/>
    <rect class="st2" x="4.1" y="4" width="56" height="56" rx="5.6" ry="5.6"/>
    <g class="st8">
      <path d="M43.5,13c0,0,.2,0,.4.2.3.2.4.2,1,0,.2,0,.5,0,.8,0,.5,0,.3,0,.6.3.2.2.5.8.8.8.3,0,.9.1,2.3.1.6,0,1.2,0,1.2,0,.2,0,.3-.3.8.4,0,.1.2.3.4.5.2.2.3.4.3.4,0,0,0,.2,0,.4,0,.2,0,.3-.1.4-.1.1-.1.1,0,.3,0,.1.1.4,0,.6,0,.2-.4.4-.8.5-.3,0-.6,0-1-.1-.1,0-.3-.1-.3-.1s-.1,0-.2.2c-.2.2-.6.4-1.2.6-.2,0-.4.2-.5.2h-.2c0,0,0,.3,0,.3,0,.3-.2.6-.6,1.3-.6,1-.5.8-.6,3.1,0,1.1-.2,2-.5,3.4-.8,3.4-1.7,5.3-3,6.4-.7.6-1.1.8-3.9,1.8h-.3c0,.1,0,.8,0,.8,0,.7,0,1.8-.2,2.9-.2,1-.2,1.5-.2,2,0,.5,0,.6.2,1.1v.3c0,0,0,1,0,1,0,.6,0,1,0,1.1,0,.2.6,2.1.7,2.7.1.3.2.6.8,1.6.3.6.4.9.5,1.2,0,.3.2.4.5.6.3.1.5.2.9.2s.8,0,.9.1c0,0,.1,0,.2.1.1.2,0,.5,0,.7,0,0-.1,0-.2,0h-.1s0,.2,0,.2c0,.4-.3.5-1.6.5-.9,0-1.1,0-1.4-.2-.2,0-.3-.2-.4-.4,0-.2,0-.4,0-1,0-.2,0-.3,0-.4-.1-.4-.3-.8-.5-1.8-.3-1-.4-1.4-.8-2.9-.2-.8-.3-.9-.4-1-.3-.4-.6-1-.7-1.9,0-.5-.1-.7-.4-1.2-.3-.7-.5-1-.8-2.1-.3-1.1-.6-2.4-.9-3.2-.3-.8-.6-1.1-.8-1.1s-.3.2-.4.5c-.1.3-.2.4-.4,1-.3.8-.7,1.7-1.4,3.4-.8,1.7-.8,2-.9,3.1,0,.8-.1,1-.5,1.8v.3c-.1,0-.1,2.2-.1,2.2,0,2.8,0,3.3.3,3.7,0,.1.1.2.1.3,0,0,.1,0,.3.1.3.1.6.3.8.5.3.3.5.7.3.8,0,0-.3.2-.5.2s-.3,0-.2.2c.1.3,0,.3-.8.3-1.2,0-1.7-.2-2.1-.8-.1-.2-.1-.3,0-.5.2-.3.3-.5.3-.5s-.3,0-.7,0c-.8,0-.9,0-1.2-.2-.3-.2-.4-.4-.3-.9,0,0,0-.1-.2-.2-.3-.3-.5-.6-.7-1.7-.3-1.2-.5-1.7-1-2.7-1.4-2.8-1.5-2.8-1.7-4.6-.2-1.5-.4-2.1-1.2-4.5-.2-.7-.5-1.6-.7-2.1-.3-1-.4-1.3-.6-1.4,0-.1-.1-.1-.2,0-.4,0-.5.4-.4,1,0,.3,0,1,0,1.5,0,.4-.2.8-.6,1.7-.6,1.2-.8,1.7-.9,2.6,0,.5,0,.8,0,1,.1.2.1.5.1.9,0,.5-.1.9-.4,1.8,0,.2,0,.3,0,.9,0,.6,0,1.5-.2,2.5,0,.2,0,1.1,0,1.8,0,1.6,0,1.9.3,2.2.1.2.5.5.8.8.5.4.6.5.6.8,0,.2-.1.3-.4.3s-.3,0-.3.2,0,.2-.1.2c-.3.1-1.6.1-1.9,0-.2,0-.4-.3-.5-.5,0-.2,0-.5,0-.8.3-.7.3-.8.4-2.4.2-2,.2-2.4.2-3.7,0-1.2,0-1.4-.1-2.4-.2-2.1-.2-2.4,0-3.2.1-.7.2-1.2.1-2,0-.5,0-.8,0-1.2-.2-1.4-1-4.6-1.1-4.8,0,0-.2,0-.5.3-.4.3-1,.7-1.7,1-.6.3-.8.4-.8.3,0-.1,0-.5.2-.8.2-.4.6-.8,1.2-1.2.2-.2.5-.4.6-.4,0,0,.2-.3.3-.4v-.3c.1,0,.2-.4.2-.4,0-.2,0-.8,0-1.4-.1-2.1,0-2.8.7-4.5.3-.8.8-1.7,1.1-2.1.2-.3.4-.5.7-.9.6-.6.7-.8,1-1.8.5-1.6.8-3.7.9-3.9.1-.2.5-.6.9-.8s.9-.5,1.1-.6c.4-.1,1,0,1.3,0,0,0,.2.1.3.2.3.3.5.7,1.3,2.1.3.5.5,2.2.6,2.3,0,.1.1.1.2.1s.3,0,.6-.3c.5-.5.7-1.8,1-3.3.2-.9.2-1.1.4-1.3.2-.4.6-.6,1.2-.8.2,0,.3,0,.9,0,.5,0,.7,0,.9,0,.6.1,1.2.4,1.7.9.5.5.7.9,1,1.6.3,1,.5,2,1.5,2.8.7.5,1.2,1.2,2,2.6.7,1.2,1.2,1.9,1.7,2.4.6.6.9.7,1.9.7.8,0,1.2-.1,1.4-.5.2-.4.8-2.8.8-4.4s0-1-.2-1.4c-.3-.7-.3-1.3,0-2,0-.3.2-.4.6-1.3.5-.9.5-1,.7-1.1.2-.2.4-.3.7-.3.1,0,.3,0,.3,0ZM25.1,35.5c0,.2,0,1.5,0,2.4,0,.5,0,1.2,0,2.1,0,.8,0,1.7,0,2.2,0,.8.3,1.9.7,3.2.5,1.7.8,2.6,1.3,3.2.4.5,1.2,1.3,1.4,1.2,0,0,0,0,.2-.4.3-1.1.4-1.8.4-2.9s0-1.3-.2-2c-.3-1.4-.3-2-.1-2.9,0-.4,0-.4,0-1s0-.8,0-1c-.2-1.3-.2-1.5-.2-3,0-.6,0-.8,0-.8,0,0,0,0-.2,0-.7.3-1.7.2-2.5-.2-.2-.1-.5-.2-.5-.2,0,0,0,0-.1,0Z"/>
    </g>
    <path class="st9" d="M43.5,12c0,0,.2,0,.4.2.3.2.4.2,1,0,.2,0,.5,0,.8,0,.5,0,.3,0,.6.3.2.2.5.8.8.8.3,0,.9.1,2.3.1.6,0,1.2,0,1.2,0,.2,0,.3-.3.8.4,0,.1.2.3.4.5.2.2.3.4.3.4,0,0,0,.2,0,.4,0,.2,0,.3-.1.4-.1.1-.1.1,0,.3,0,.1.1.4,0,.6,0,.2-.4.4-.8.5-.3,0-.6,0-1-.1-.1,0-.3-.1-.3-.1s-.1,0-.2.2c-.2.2-.6.4-1.2.6-.2,0-.4.2-.5.2h-.2c0,0,0,.3,0,.3,0,.3-.2.6-.6,1.3-.6,1-.5.8-.6,3.1,0,1.1-.2,2-.5,3.4-.8,3.4-1.7,5.3-3,6.4-.7.6-1.1.8-3.9,1.8h-.3c0,.1,0,.8,0,.8,0,.7,0,1.8-.2,2.9-.2,1-.2,1.5-.2,2,0,.5,0,.6.2,1.1v.3c0,0,0,1,0,1,0,.6,0,1,0,1.1,0,.2.6,2.1.7,2.7.1.3.2.6.8,1.6.3.6.4.9.5,1.2,0,.3.2.4.5.6.3.1.5.2.9.2s.8,0,.9.1c0,0,.1,0,.2.1.1.2,0,.5,0,.7,0,0-.1,0-.2,0h-.1s0,.2,0,.2c0,.4-.3.5-1.6.5-.9,0-1.1,0-1.4-.2-.2,0-.3-.2-.4-.4,0-.2,0-.4,0-1,0-.2,0-.3,0-.4-.1-.4-.3-.8-.5-1.8-.3-1-.4-1.4-.8-2.9-.2-.8-.3-.9-.4-1-.3-.4-.6-1-.7-1.9,0-.5-.1-.7-.4-1.2-.3-.7-.5-1-.8-2.1-.3-1.1-.6-2.4-.9-3.2-.3-.8-.6-1.1-.8-1.1s-.3.2-.4.5c-.1.3-.2.4-.4,1-.3.8-.7,1.7-1.4,3.4-.8,1.7-.8,2-.9,3.1,0,.8-.1,1-.5,1.8v.3c-.1,0-.1,2.2-.1,2.2,0,2.8,0,3.3.3,3.7,0,.1.1.2.1.3,0,0,.1,0,.3.1.3.1.6.3.8.5.3.3.5.7.3.8,0,0-.3.2-.5.2s-.3,0-.2.2c.1.3,0,.3-.8.3-1.2,0-1.7-.2-2.1-.8-.1-.2-.1-.3,0-.5.2-.3.3-.5.3-.5s-.3,0-.7,0c-.8,0-.9,0-1.2-.2-.3-.2-.4-.4-.3-.9,0,0,0-.1-.2-.2-.3-.3-.5-.6-.7-1.7-.3-1.2-.5-1.7-1-2.7-1.4-2.8-1.5-2.8-1.7-4.6-.2-1.5-.4-2.1-1.2-4.5-.2-.7-.5-1.6-.7-2.1-.3-1-.4-1.3-.6-1.4,0-.1-.1-.1-.2,0-.4,0-.5.4-.4,1,0,.3,0,1,0,1.5,0,.4-.2.8-.6,1.7-.6,1.2-.8,1.7-.9,2.6,0,.5,0,.8,0,1,.1.2.1.5.1.9,0,.5-.1.9-.4,1.8,0,.2,0,.3,0,.9,0,.6,0,1.5-.2,2.5,0,.2,0,1.1,0,1.8,0,1.6,0,1.9.3,2.2.1.2.5.5.8.8.5.4.6.5.6.8,0,.2-.1.3-.4.3s-.3,0-.3.2,0,.2-.1.2c-.3.1-1.6.1-1.9,0-.2,0-.4-.3-.5-.5,0-.2,0-.5,0-.8.3-.7.3-.8.4-2.4.2-2,.2-2.4.2-3.7,0-1.2,0-1.4-.1-2.4-.2-2.1-.2-2.4,0-3.2.1-.7.2-1.2.1-2,0-.5,0-.8,0-1.2-.2-1.4-1-4.6-1.1-4.8,0,0-.2,0-.5.3-.4.3-1,.7-1.7,1-.6.3-.8.4-.8.3,0-.1,0-.5.2-.8.2-.4.6-.8,1.2-1.2.2-.2.5-.4.6-.4,0,0,.2-.3.3-.4v-.3c.1,0,.2-.4.2-.4,0-.2,0-.8,0-1.4-.1-2.1,0-2.8.7-4.5.3-.8.8-1.7,1.1-2.1.2-.3.4-.5.7-.9.6-.6.7-.8,1-1.8.5-1.6.8-3.7.9-3.9.1-.2.5-.6.9-.8s.9-.5,1.1-.6c.4-.1,1,0,1.3,0,0,0,.2.1.3.2.3.3.5.7,1.3,2.1.3.5.5,2.2.6,2.3,0,.1.1.1.2.1s.3,0,.6-.3c.5-.5.7-1.8,1-3.3.2-.9.2-1.1.4-1.3.2-.4.6-.6,1.2-.8.2,0,.3,0,.9,0,.5,0,.7,0,.9,0,.6.1,1.2.4,1.7.9.5.5.7.9,1,1.6.3,1,.5,2,1.5,2.8.7.5,1.2,1.2,2,2.6.7,1.2,1.2,1.9,1.7,2.4.6.6.9.7,1.9.7.8,0,1.2-.1,1.4-.5.2-.4.8-2.8.8-4.4s0-1-.2-1.4c-.3-.7-.3-1.3,0-2,0-.3.2-.4.6-1.3.5-.9.5-1,.7-1.1.2-.2.4-.3.7-.3.1,0,.3,0,.3,0ZM25.1,34.5c0,.2,0,1.5,0,2.4,0,.5,0,1.2,0,2.1,0,.8,0,1.7,0,2.2,0,.8.3,1.9.7,3.2.5,1.7.8,2.6,1.3,3.2.4.5,1.2,1.3,1.4,1.2,0,0,0,0,.2-.4.3-1.1.4-1.8.4-2.9s0-1.3-.2-2c-.3-1.4-.3-2-.1-2.9,0-.4,0-.4,0-1s0-.8,0-1c-.2-1.3-.2-1.5-.2-3,0-.6,0-.8,0-.8,0,0,0,0-.2,0-.7.3-1.7.2-2.5-.2-.2-.1-.5-.2-.5-.2,0,0,0,0-.1,0Z"/>
    <path class="st4" d="M9.7,4c-3.1,0-5.6,2.5-5.6,5.6v1c0-3.1,2.5-5.6,5.6-5.6h44.8c3.1,0,5.6,2.5,5.6,5.6v-1c0-3.1-2.5-5.6-5.6-5.6H9.7Z"/>
  </g>
  <g>
    <rect class="st0" x="3" y="6.9" width="58" height="58" rx="2.9" ry="2.9"/>
    <rect class="st5" x="3" y="5.9" width="58" height="58" rx="2.9" ry="2.9"/>
    <path class="st6" d="M15,6.9v29c0,9.4,7.6,17,17,17s17-7.6,17-17h0c0-9.4-7.6-17-17-17-4,0-7.9,1.4-11,4V6.9h-6ZM32,24.9c6.1,0,11,4.9,11,11s-4.9,11-11,11-11-4.9-11-11,4.9-11,11-11ZM38,32.9c-1.7,0-3,1.3-3,3s1.3,3,3,3,3-1.3,3-3-1.3-3-3-3Z"/>
    <path class="st12" d="M32,17.9c-9.4,0-17,7.6-17,17s7.6,17,17,17,17-7.6,17-17h0c0-9.4-7.6-17-17-17ZM32,23.9c6.1,0,11,4.9,11,11s-4.9,11-11,11-11-4.9-11-11,4.9-11,11-11Z"/>
    <rect class="st12" x="15" y="5.9" width="6" height="29"/>
    <circle class="st10" cx="38" cy="34.9" r="3"/>
    <path class="st1" d="M5.9,5.9c-1.6,0-2.9,1.3-2.9,2.9v1c0-1.6,1.3-2.9,2.9-2.9h52.2c1.6,0,2.9,1.3,2.9,2.9v-1c0-1.6-1.3-2.9-2.9-2.9H5.9Z"/>
    <path class="st7" d="M15,5.9v1h6v-1h-6ZM32,17.9c-4,0-7.9,1.4-11,4v1c3.1-2.6,7-4,11-4,9.2,0,16.8,7.4,17,16.6,0-.2,0-.4,0-.6,0-9.4-7.6-17-17-17ZM38,31.9c-1.7,0-3,1.3-3,3,0,.2,0,.3,0,.5.2-1.4,1.5-2.5,3-2.5,1.5,0,2.7,1.1,3,2.5,0-.2,0-.3,0-.5,0-1.7-1.3-3-3-3ZM43,35.3c-.2,5.9-5.1,10.6-11,10.6-5.8,0-10.7-4.6-11-10.4,0,.1,0,.3,0,.4,0,6.1,4.9,11,11,11s11-4.9,11-11c0-.2,0-.4,0-.6Z"/>
  </g>
</svg>