<?xml version="1.0" encoding="UTF-8"?>
<svg id="_图层_1" xmlns="http://www.w3.org/2000/svg" version="1.1" viewBox="0 0 64 64" width="22" height="22">
  <!-- Generator: Adobe Illustrator 29.0.1, SVG Export Plug-In . SVG Version: 2.1.0 Build 192)  -->
  <defs>
    <style>
      .st0, .st1, .st2, .st3, .st4 {
        isolation: isolate;
      }

      .st0, .st1, .st5 {
        display: none;
      }

      .st0, .st3, .st4 {
        opacity: .2;
      }

      .st1 {
        opacity: .1;
      }

      .st1, .st6, .st4 {
        fill: #fff;
      }

      .st7 {
        fill: #e83635;
      }

      .st8 {
        fill: #9c9ba2;
      }

      .st9 {
        fill: #68676e;
      }

      .st10 {
        fill: #a45390;
      }

      .st11 {
        fill: #3d3846;
      }

      .st2 {
        opacity: .4;
      }

      .st12 {
        fill: #6db832;
      }

      .st13 {
        fill: #c2352a;
      }

      .st14 {
        fill: #4987d7;
      }

      .st15 {
        fill: #e4e4e4;
      }
    </style>
  </defs>
  <path class="st6" d="M50.3,64H13.8c-7.6,0-13.8-6.2-13.8-13.7V13.7C0,6.2,6.2,0,13.7,0h36.5c7.5,0,13.7,6.2,13.7,13.7v36.6c0,7.5-6.2,13.7-13.7,13.7h0Z"/>
  <g class="st5">
    <path class="st0" d="M0,59.5v2.3c0,1.9,1.5,3.4,3.4,3.4h57.4c1.9,0,3.4-1.5,3.4-3.4v-2.3c0,1.9-1.5,3.4-3.4,3.4H3.4C1.5,63,0,61.4,0,59.5Z"/>
    <path class="st14" d="M3.2-.1C2.3-.1,1.5.3.9.8l31.2,31.2L63.3.8c-.6-.6-1.4-.9-2.3-.9H3.2h0Z"/>
    <path class="st10" d="M3.2,64.1c-.9,0-1.7-.4-2.3-.9l31.2-31.2,31.2,31.2c-.6.6-1.4.9-2.3.9H3.2h0Z"/>
    <path class="st12" d="M64.2,3.1c0-.9-.4-1.7-.9-2.3l-31.2,31.2,31.2,31.2c.6-.6.9-1.4.9-2.3V3.1h0Z"/>
    <path class="st13" d="M0,3.1C0,2.2.4,1.4.9.8l31.2,31.2L.9,63.2c-.6-.6-.9-1.4-.9-2.3V3.1h0Z"/>
    <path class="st3" d="M35,5.6c-1.4,0-2.5.2-3.6.5-1,.3-1.9.8-2.6,1.3-.7.6-1.3,1.2-1.8,2-.5.8-.8,1.3-1.1,2.1-.3.9-.5,1.8-.6,2.8-.1,1-.2,1.9-.2,2.9h0c0,1.5.2,2.9.5,4,.4,1.1.9,2,1.5,2.8.7.7,1.4,1.3,2.3,1.7.9.4,1.8.5,2.8.5s2-.2,2.8-.5c.8-.3,1.5-.8,2.1-1.4.6-.6,1-1.4,1.3-2.2.3-.9.5-1.9.5-3s-.1-2-.4-2.8c-.3-.8-.6-1.6-1.1-2.1-.5-.6-1.1-1-1.8-1.3-.7-.3-1.5-.4-2.4-.4s-1.1,0-1.5.2c-.4.1-.8.3-1.2.5-.4.2-.7.6-.9.9-.3.3-.5.6-.7.9h-.2c0-1,.2-1.8.4-2.6.2-.8.5-1.1,1-1.7.5-.6,1.1-1,1.9-1.3.8-.3,1.8-.5,3.1-.5s.8,0,1.2,0c.4,0,.8.1,1.1.2v-3.5c-.2,0-.4,0-.6,0-.2,0-.5,0-.7,0-.2,0-.5,0-.7,0s-.4,0-.6,0ZM32.4,16c.8,0,1.5.3,1.9.9.4.6.6,1.4.6,2.4s0,1.1-.2,1.6c-.1.4-.3.8-.5,1.1-.2.3-.5.5-.8.7-.3.1-.7.2-1,.2s-.9-.1-1.2-.4c-.3-.2-.6-.5-.9-.9-.2-.4-.4-.8-.5-1.3-.1-.5-.2-1-.2-1.4s0-.7.2-1c.1-.3.3-.6.6-.9.3-.3.6-.5.9-.7.4-.2.7-.3,1.2-.3ZM47,24v10.3l1,.9c.2,0,.4-.1.6-.2.2,0,.5-.1.8-.2.3,0,.5,0,.8-.1.3,0,.5,0,.8,0,1.3,0,2.3.3,3,.8.6.5,1,1.3,1,2.3s-.3,2-1,2.5c-.7.5-1.6.8-2.9.8s-.9,0-1.3,0c-.5,0-.9-.2-1.4-.3-.5-.1-.9-.3-1.3-.4-.4-.2-.8-.3-1.1-.5v3.7c.3.2.7.3,1.1.5.4.1.9.3,1.3.3.5,0,1,.2,1.5.2.5,0,1,0,1.5,0,1.3,0,2.4-.2,3.4-.5,1-.3,1.8-.8,2.5-1.4.7-.6,1.2-1.4,1.5-2.2.3-.9.5-1.9.5-3s-.2-1.9-.5-2.7c-.3-.8-.8-1.4-1.3-2-.6-.5-1.2-.9-2-1.2-.8-.3-1.6-.4-2.5-.4h0c-.6,0-1.1,0-1.5.1-.4,0-.7.1-1,.2l.3-4.1h6.5v-3.4h-10.3ZM11.5,24.1c-.8,0-1.6,0-2.2.3-.7.2-1.3.4-1.8.6-.6.3-1.1.6-1.5.9-.5.3-.9.5-1.3.9l2.4,2.8c.7-.7,1.5-1.2,2.1-1.6.7-.4,1.4-.5,2.1-.5s1.3.2,1.7.6c.4.4.6.9.6,1.6s0,1.2-.3,1.7c-.2.5-.5,1.1-.8,1.6-.4.5-.8,1.1-1.3,1.6-.5.6-1,1.2-1.7,1.8l-4.8,5.4v2.8h13.7v-3.4h-8.3v-.2l2.5-2.7c.7-.7,1.4-1.4,2-2.1.6-.7,1.2-1.4,1.7-2.1.5-.7.9-1.4,1.1-2.2.3-.7.4-1.5.4-2.3s-.1-1.7-.4-2.4c-.3-.7-.7-1.1-1.3-1.6-.6-.5-1.2-.9-2-1.2-.8-.3-1.7-.4-2.6-.4ZM25.2,42.5v3.2h9.4l-7.3,17.2h4.5l7.1-17.7v-2.7h-13.8Z"/>
    <path class="st6" d="M35,4.5c-1.4,0-2.5.2-3.6.5-1,.3-1.9.8-2.6,1.3-.7.6-1.3,1.2-1.8,2-.5.8-.8,1.3-1.1,2.1-.3.9-.5,1.8-.6,2.8-.1,1-.2,1.9-.2,2.9h0c0,1.5.2,2.9.5,4,.4,1.1.9,2,1.5,2.8.7.7,1.4,1.3,2.3,1.7.9.4,1.8.5,2.8.5s2-.2,2.8-.5c.8-.3,1.5-.8,2.1-1.4.6-.6,1-1.4,1.3-2.2.3-.9.5-1.9.5-3s-.1-2-.4-2.8c-.3-.8-.6-1.6-1.1-2.1-.5-.6-1.1-1-1.8-1.3-.7-.3-1.5-.4-2.4-.4s-1.1,0-1.5.2c-.4.1-.8.3-1.2.5-.4.2-.7.6-.9.9-.3.3-.5.6-.7.9h-.2c0-1,.2-1.8.4-2.6.2-.8.5-1.1,1-1.7.5-.6,1.1-1,1.9-1.3.8-.3,1.8-.5,3.1-.5s.8,0,1.2,0c.4,0,.8.1,1.1.2v-3.5c-.2,0-.4,0-.6,0-.2,0-.5,0-.7,0-.2,0-.5,0-.7,0s-.4,0-.6,0ZM32.4,14.9c.8,0,1.5.3,1.9.9.4.6.6,1.4.6,2.4s0,1.1-.2,1.6c-.1.4-.3.8-.5,1.1-.2.3-.5.5-.8.7-.3.1-.7.2-1,.2s-.9-.1-1.2-.4c-.3-.2-.6-.5-.9-.9-.2-.4-.4-.8-.5-1.3-.1-.5-.2-1-.2-1.4s0-.7.2-1c.1-.3.3-.6.6-.9.3-.3.6-.5.9-.7.4-.2.7-.3,1.2-.3ZM47,22.8v10.3l1,.9c.2,0,.4-.1.6-.2.2,0,.5-.1.8-.2.3,0,.5,0,.8-.1.3,0,.5,0,.8,0,1.3,0,2.3.3,3,.8.6.5,1,1.3,1,2.3s-.3,2-1,2.5c-.7.5-1.6.8-2.9.8s-.9,0-1.3,0c-.5,0-.9-.2-1.4-.3-.5-.1-.9-.3-1.3-.4-.4-.2-.8-.3-1.1-.5v3.7c.3.2.7.3,1.1.5.4.1.9.3,1.3.3.5,0,1,.2,1.5.2.5,0,1,0,1.5,0,1.3,0,2.4-.2,3.4-.5,1-.3,1.8-.8,2.5-1.4.7-.6,1.2-1.4,1.5-2.2.3-.9.5-1.9.5-3s-.2-1.9-.5-2.7c-.3-.8-.8-1.4-1.3-2-.6-.5-1.2-.9-2-1.2-.8-.3-1.6-.4-2.5-.4h0c-.6,0-1.1,0-1.5.1-.4,0-.7.1-1,.2l.3-4.1h6.5v-3.4h-10.3ZM11.5,22.9c-.8,0-1.6,0-2.2.3-.7.2-1.3.4-1.8.6-.6.3-1.1.6-1.5.9-.5.3-.9.5-1.3.9l2.4,2.8c.7-.7,1.5-1.2,2.1-1.6.7-.4,1.4-.5,2.1-.5s1.3.2,1.7.6c.4.4.6.9.6,1.6s0,1.2-.3,1.7c-.2.5-.5,1.1-.8,1.6-.4.5-.8,1.1-1.3,1.6-.5.6-1,1.2-1.7,1.8l-4.8,5.4v2.8h13.7v-3.4h-8.3v-.2l2.5-2.7c.7-.7,1.4-1.4,2-2.1.6-.7,1.2-1.4,1.7-2.1.5-.7.9-1.4,1.1-2.2.3-.7.4-1.5.4-2.3s-.1-1.7-.4-2.4c-.3-.7-.7-1.1-1.3-1.6-.6-.5-1.2-.9-2-1.2-.8-.3-1.7-.4-2.6-.4ZM25.2,41.4v3.2h9.4l-7.3,17.2h4.5l7.1-17.7v-2.7h-13.8Z"/>
    <path class="st1" d="M3.4-.1C1.5-.1,0,1.4,0,3.3v1.1C0,2.6,1.5,1,3.4,1h57.4c1.9,0,3.4,1.5,3.4,3.4v-1.1c0-1.9-1.5-3.4-3.4-3.4H3.4Z"/>
  </g>
  <g>
    <path class="st3" d="M18.6,24.4c0,0-.2,0-.3,0l-9.1,2.1c-.6.1-1,.6-1,1.2v6.7c0,.6.4,1.1,1,1.2l7.4,1.7c-.6.3-.9.9-.7,1.5l3.2,10.1c.2.5.7.9,1.3.9h5c.9,0,1.6-.8,1.3-1.6l-1.3-4.3h.5c.7,0,1.4-.6,1.4-1.3,0-.1,0-.2,0-.4l-3.2-10.1c-.2-.5-.7-.9-1.3-.9h-2.7v-5.8c0-.7-.6-1.3-1.4-1.3ZM48.5,24.7c-.7,0-1.3.6-1.3,1.3v10.1c0,.9,1,1.5,1.9,1.2l9.1-3.4c.5-.2.9-.7.9-1.2v-3.4c0-.5-.3-1-.9-1.2l-9.1-3.4c-.2,0-.3,0-.5,0Z"/>
    <path class="st11" d="M17.7,30.6c-.7,0-1.4.6-1.4,1.3,0,.1,0,.2,0,.4l3.2,10.1c.2.5.7.9,1.3.9h5c.7,0,1.4-.6,1.4-1.3,0-.1,0-.2,0-.4l-3.2-10.1c-.2-.5-.7-.9-1.3-.9h-5Z"/>
    <path class="st9" d="M17.3,36.5c-.9,0-1.6.8-1.3,1.6l3.2,10.1c.2.5.7.9,1.3.9h5c.9,0,1.6-.8,1.3-1.6l-3.2-10.1c-.2-.5-.7-.9-1.3-.9h-5Z"/>
    <path class="st9" d="M18.6,23.6c0,0-.2,0-.3,0l-9.1,2.1c-.6.1-1,.6-1,1.2v6.7c0,.6.4,1.1,1,1.2l9.1,2.1c.9.2,1.7-.4,1.7-1.2v-10.9c0-.7-.6-1.3-1.4-1.3Z"/>
    <path class="st2" d="M8.4,26.4c0,.2-.1.3-.1.5v.3h5.4v-.8h-5.3ZM8.2,29.8v1.3h5.4v-1.3h-5.4ZM8.2,33.1v.5c0,.1,0,.2,0,.3h5.4v-.8h-5.4Z"/>
    <path class="st3" d="M51.7,12.2c-1,0-1.9.8-1.8,1.7v.3c-5.7,3.6-19.2,8.1-27.6,8.1h-8.6c-1.5,0-2.7,1.2-2.7,2.6v12.3c0,1.5,1.2,2.6,2.7,2.6h7.5s1,0,1,0c8.4,0,21.9,4.7,27.6,8.3v.9c0,2.3,3.7,2.3,3.6,0V13.9c0-.9-.8-1.7-1.8-1.7Z"/>
    <path class="st7" d="M13.7,21.4c-1.5,0-2.7,1.2-2.7,2.6v12.3c0,1.5,1.2,2.6,2.7,2.6h7.5v-17.6h-7.5Z"/>
    <path class="st8" d="M48.5,23.9c-.7,0-1.3.6-1.3,1.3v10.1c0,.9,1,1.5,1.9,1.2l9.1-3.4c.5-.2.9-.7.9-1.2v-3.4c0-.5-.3-1-.9-1.2l-9.1-3.4c-.2,0-.3,0-.5,0Z"/>
    <path class="st15" d="M51.7,11.9c-4,3.7-19.9,9.4-29.4,9.4h-1.4v17.6h1.4c9.5,0,25.4,6,29.4,9.6V11.9Z"/>
    <path class="st7" d="M51.7,11.3c1,0,1.8.8,1.8,1.7v35.2c0,2.3-3.7,2.3-3.6,0V13c0-.9.8-1.7,1.8-1.7Z"/>
    <path class="st4" d="M51.7,11.3c-1,0-1.9.8-1.8,1.7v.3c-5.7,3.6-19.2,8.1-27.6,8.1h-8.6c-1.5,0-2.7,1.2-2.7,2.6v.8c0-1.5,1.2-2.6,2.7-2.6h8.6c8.4,0,21.9-4.5,27.6-8.1v-.3c0-.9.8-1.7,1.8-1.7,1,0,1.8.8,1.8,1.7v-.8c0-.9-.8-1.7-1.8-1.7Z"/>
  </g>
</svg>