<?xml version="1.0" encoding="UTF-8"?>
<svg id="_图层_1" data-name="图层_1" xmlns="http://www.w3.org/2000/svg" version="1.1" viewBox="0 0 64 64" width="22" height="22">
  <!-- Generator: Adobe Illustrator 29.0.1, SVG Export Plug-In . SVG Version: 2.1.0 Build 192)  -->
  <defs>
    <style>
      .st0 {
        fill: #4f4f4f;
      }

      .st1 {
        display: none;
        fill: red;
      }

      .st2 {
        fill: #62c9ea;
      }

      .st3, .st4 {
        opacity: .2;
      }

      .st4, .st5 {
        isolation: isolate;
      }

      .st6 {
        fill: #5f96a8;
      }

      .st5 {
        fill: #fff;
        opacity: .1;
      }
    </style>
  </defs>
  <rect class="st1" x=".9" y="1.1" width="62" height="61.6" rx="11.7" ry="11.7"/>
  <path class="st4" d="M12.7,1.8h38.6c8.7-.3,11.6,7.8,11.6,11v38.3c-.2,7.4-6.1,11.7-11.7,11.7H12.6c-8.9-.5-11.5-6.6-11.7-11.7V12.7C1.3,3.6,10,1.4,12.7,1.8Z"/>
  <path class="st0" d="M12.6,1.1h38.6c8.8,0,11.7,6.7,11.7,11.7v38.3c0,7.1-5.8,10.6-11.6,10.8H12.7c-7.9,0-11.7-5.4-11.7-10.8V12.7C.9,4,8.1,1.1,12.6,1.1Z"/>
  <g class="st3">
    <path d="M10.4,31.7l10.1-9.6c.6-.5,1.5-.5,2,0l2,1.9c.6.5.6,1.4,0,1.9l-10.1,9.6c-.6.5-1.5.5-2,0l-2-1.9c-.6-.5-.6-1.4,0-1.9Z"/>
    <path d="M10.4,18.3l10.1,9.6c.6.5,1.5.5,2,0l2-1.9c.6-.5.6-1.4,0-1.9l-10.1-9.6c-.6-.5-1.5-.5-2,0l-2,1.9c-.6.5-.6,1.4,0,1.9Z"/>
  </g>
  <rect class="st4" x="26" y="30" width="17" height="6" rx="1.5" ry="1.5"/>
  <rect class="st2" x="26" y="29" width="17" height="6" rx="1.5" ry="1.5"/>
  <path class="st6" d="M10.4,30.7l10.1-9.6c.6-.5,1.5-.5,2,0l2,1.9c.6.5.6,1.4,0,1.9l-10.1,9.6c-.6.5-1.5.5-2,0l-2-1.9c-.6-.5-.6-1.4,0-1.9Z"/>
  <path class="st2" d="M10.4,17.3l10.1,9.6c.6.5,1.5.5,2,0l2-1.9c.6-.5.6-1.4,0-1.9l-10.1-9.6c-.6-.5-1.5-.5-2,0l-2,1.9c-.6.5-.6,1.4,0,1.9Z"/>
  <path class="st5" d="M12.6,1.1C3,1.8.9,9.2.9,11.5v.4C1.3,4.5,7.1,2,12.7,2h38.6c5.6,0,11.3,2.4,11.3,10.1h0c0-7.7-5.5-11.1-11.4-11H12.6Z"/>
  <path class="st4" d="M17.5,24l-.5.5,3.6,3.4c.2.2.4.3.6.3l1.3-1.3c-.6.5-1.4.4-1.9,0l-3-2.9Z"/>
  <path class="st2" d="M10.4,17.3l10.1,9.6c.6.5,1.5.5,2,0l2-1.9c.6-.5.6-1.4,0-1.9l-10.1-9.6c-.6-.5-1.5-.5-2,0l-2,1.9c-.6.5-.6,1.4,0,1.9Z"/>
  <path class="st2" d="M10.4,17.3l10.1,9.6c.6.5,1.5.5,2,0l2-1.9c.6-.5.6-1.4,0-1.9l-10.1-9.6c-.6-.5-1.5-.5-2,0l-2,1.9c-.6.5-.6,1.4,0,1.9Z"/>
</svg>
