<?xml version="1.0" encoding="UTF-8" standalone="no"?>
<svg
   id="_图层_1"
   version="1.1"
   viewBox="0 0 64 64" width="22" height="22"
   sodipodi:docname="pdfsam.svg"
   xml:space="preserve"
   inkscape:version="1.4 (e7c3feb100, 2024-10-09)"
   xmlns:inkscape="http://www.inkscape.org/namespaces/inkscape"
   xmlns:sodipodi="http://sodipodi.sourceforge.net/DTD/sodipodi-0.dtd"
   xmlns="http://www.w3.org/2000/svg"
   xmlns:svg="http://www.w3.org/2000/svg"><sodipodi:namedview
     id="namedview26"
     pagecolor="#ffffff"
     bordercolor="#999999"
     borderopacity="1"
     inkscape:showpageshadow="2"
     inkscape:pageopacity="0"
     inkscape:pagecheckerboard="0"
     inkscape:deskcolor="#d1d1d1"
     inkscape:zoom="8.453125"
     inkscape:cx="31.94085"
     inkscape:cy="31.94085"
     inkscape:window-width="1920"
     inkscape:window-height="939"
     inkscape:window-x="0"
     inkscape:window-y="34"
     inkscape:window-maximized="1"
     inkscape:current-layer="g7" /><!-- Generator: Adobe Illustrator 29.0.1, SVG Export Plug-In . SVG Version: 2.1.0 Build 192)  --><defs
     id="defs6"><style
       id="style1">
      .st0 {
        fill-opacity: .5;
      }

      .st0, .st1, .st2, .st3, .st4, .st5, .st6, .st7 {
        fill: #fff;
      }

      .st8 {
        fill: #133c9a;
      }

      .st2, .st9 {
        display: none;
      }

      .st3 {
        fill-opacity: .2;
      }

      .st4 {
        fill-opacity: .9;
      }

      .st10 {
        fill: #3370ff;
      }

      .st11 {
        fill: url(#_未命名的渐变_3);
      }

      .st12 {
        fill: url(#_未命名的渐变);
      }

      .st5 {
        fill-opacity: .3;
      }

      .st6 {
        fill-opacity: 0;
      }

      .st7 {
        fill-opacity: .7;
      }

      .st13 {
        fill: #00d6b9;
      }

      .st14 {
        fill: url(#_未命名的渐变_2);
      }
    </style><radialGradient
       id="_未命名的渐变"
       data-name="未命名的渐变"
       cx="123.9"
       cy="-40.2"
       fx="123.9"
       fy="-40.2"
       r="59.4"
       gradientTransform="translate(-26.8 25.5) scale(.6 -.7)"
       gradientUnits="userSpaceOnUse"><stop
         offset="0"
         stop-color="#db202e"
         id="stop1" /><stop
         offset="1"
         stop-color="#e01b24"
         id="stop2" /></radialGradient><radialGradient
       id="_未命名的渐变_2"
       data-name="未命名的渐变 2"
       cx="67.6"
       cy="26.8"
       fx="67.6"
       fy="26.8"
       r="105.2"
       gradientTransform="translate(-26.6 25.3) scale(.6 -.7)"
       gradientUnits="userSpaceOnUse"><stop
         offset="0"
         stop-color="#ffb648"
         id="stop3" /><stop
         offset="1"
         stop-color="#ff7800"
         stop-opacity="0"
         id="stop4" /></radialGradient><radialGradient
       id="_未命名的渐变_3"
       data-name="未命名的渐变 3"
       cx="61.7"
       cy="18.6"
       fx="61.7"
       fy="18.6"
       r="68"
       gradientTransform="translate(-26.8 25.8) scale(.6 -.7)"
       gradientUnits="userSpaceOnUse"><stop
         offset="0"
         stop-color="#c64600"
         id="stop5" /><stop
         offset="1"
         stop-color="#a51d2d"
         id="stop6" /></radialGradient><style
       id="style1-0">
      .st0 {
        fill-opacity: .5;
      }

      .st0, .st1, .st2, .st3, .st4, .st5, .st6, .st7 {
        fill: #fff;
      }

      .st8 {
        fill: #133c9a;
      }

      .st2, .st9 {
        display: none;
      }

      .st3 {
        fill-opacity: .2;
      }

      .st4 {
        fill-opacity: .9;
      }

      .st10 {
        fill: #3370ff;
      }

      .st11 {
        fill: url(#_未命名的渐变_3);
      }

      .st12 {
        fill: url(#_未命名的渐变);
      }

      .st5 {
        fill-opacity: .3;
      }

      .st6 {
        fill-opacity: 0;
      }

      .st7 {
        fill-opacity: .7;
      }

      .st13 {
        fill: #00d6b9;
      }

      .st14 {
        fill: url(#_未命名的渐变_2);
      }
    </style><radialGradient
       id="_未命名的渐变-6"
       data-name="未命名的渐变"
       cx="123.9"
       cy="-40.2"
       fx="123.9"
       fy="-40.2"
       r="59.4"
       gradientTransform="matrix(0.6,0,0,-0.7,-26.8,25.5)"
       gradientUnits="userSpaceOnUse"><stop
         offset="0"
         stop-color="#db202e"
         id="stop1-3" /><stop
         offset="1"
         stop-color="#e01b24"
         id="stop2-2" /></radialGradient><radialGradient
       id="_未命名的渐变_2-0"
       data-name="未命名的渐变 2"
       cx="67.6"
       cy="26.8"
       fx="67.6"
       fy="26.8"
       r="105.2"
       gradientTransform="matrix(0.6,0,0,-0.7,-26.6,25.3)"
       gradientUnits="userSpaceOnUse"><stop
         offset="0"
         stop-color="#ffb648"
         id="stop3-6" /><stop
         offset="1"
         stop-color="#ff7800"
         stop-opacity="0"
         id="stop4-1" /></radialGradient><radialGradient
       id="_未命名的渐变_3-5"
       data-name="未命名的渐变 3"
       cx="61.7"
       cy="18.6"
       fx="61.7"
       fy="18.6"
       r="68"
       gradientTransform="matrix(0.6,0,0,-0.7,-26.8,25.8)"
       gradientUnits="userSpaceOnUse"><stop
         offset="0"
         stop-color="#c64600"
         id="stop5-5" /><stop
         offset="1"
         stop-color="#a51d2d"
         id="stop6-4" /></radialGradient></defs><path
     class="st1"
     d="M47.5,64.1H13.8c-7.6,0-13.8-6.3-13.8-13.8V13.7C0,6.2,6.2,0,13.7,0h36.6c7.5,0,13.7,6.2,13.7,13.7v36.6c0,7.5-6.2,13.7-13.7,13.7h-2.9.1Z"
     id="path6"
     style="fill:#e4e4e4;fill-opacity:1" /><rect
     class="st2"
     x="3"
     y="9.7"
     width="58.1"
     height="45.3"
     id="rect6" /><g
     class="st9"
     id="g21"><path
       class="st12"
       d="M-.1,16v35.3c.3,6.5,6.1,12.6,13.4,12.6l4.7.2h23.3s7.2,0,7.2,0c8.8,0,15.5-4.1,15.5-13.9V16.4h0C64,6.3,58,0,50.7,0H14.8C4.7-.2,0,7.2,0,14.5v1.4h-.1ZM4.6,11.6h4.6v5.8h-4.6v-5.8ZM54.9,11.6h4.6v5.8h-4.6v-5.8ZM4.6,23.2h4.6v5.8h-4.6v-5.8ZM54.9,23.2h4.6v5.8h-4.6v-5.8ZM4.6,34.8h4.6v5.8h-4.6v-5.8ZM54.9,34.8h4.6v5.8h-4.6v-5.8ZM4.6,46.4h4.6v5.8h-4.6v-5.8ZM54.9,46.4h4.6v5.8h-4.6v-5.8Z"
       id="path7" /><path
       class="st14"
       d="M47.5,0h-.7C41.4,0,46.8,0,45.5,0H13.3C4.1.3,0,8.5,0,13.7v1.3c0,.3-.1.3-.1.6v34.3c0,1.1,0,.8,0,.8H0c0,7.1,5.9,13.2,13.8,13.3h0c1.2,0,0,0,1.2,0h0c1.1,0,2.3,0,1.1,0h23.5c1.1,0,0,0,1.1,0h.7c3.2.1-1.7,0,0,0h-2.6c1.1,0,.6,0-1.1,0h-2c1.9,0-.6,0,13.3,0h1.3c5.9,0,13.7-4.3,13.6-11.4l.2-36.2C64.1,8.1,58.6,0,51.2,0M4.8,22.9h4.5v5.8h-4.5v-5.8ZM54.7,11.4h4.5v5.8h-4.5v-5.8ZM4.8,11.4h5v5.8h-5v-5.8ZM54.7,22.9h4.5v5.8h-4.5v-5.8ZM4.8,34.4h4.5v5.8h-4.5v-5.8ZM54.7,34.4h4.5v5.8h-4.5v-5.8ZM4.8,46h4.5v5.8h-4.5v-5.8ZM54.7,46h4.5v5.8h-4.5v-5.8Z"
       id="path8" /><path
       class="st11"
       d="M4.6,9.7v2.2h4.6v-2.2h-4.6ZM54.9,9.7v2.2h4.6v-2.2h-4.6ZM4.6,21.3v2.2h4.6v-2.2h-4.6ZM54.9,21.3v2.2h4.6v-2.2h-4.6ZM4.6,32.9v2.2h4.6v-2.2h-4.6ZM54.9,32.9v2.2h4.6v-2.2h-4.6ZM4.6,44.4v2.2h4.6v-2.2h-4.6ZM54.9,44.4v2.2h4.6v-2.2h-4.6ZM4.6,56v2.2h4.6v-2.2h-4.6ZM54.9,56v2.2h4.6v-2.2h-4.6Z"
       id="path9" /><g
       id="g20"><path
         class="st1"
         d="M25.1,29.3h13.7v11.6h-13.7s0-11.6,0-11.6Z"
         id="path10" /><path
         class="st1"
         d="M32,53.9l-12.6-15.9h25.1l-12.6,15.9h.1Z"
         id="path11" /><path
         class="st7"
         d="M25.1,29.3h4.6v-5.8h-4.6v5.8Z"
         id="path12" /><path
         class="st1"
         d="M29.7,29.3h4.6v-5.8h-4.6s0,5.8,0,5.8Z"
         id="path13" /><path
         class="st4"
         d="M34.3,29.3h4.6v-5.8h-4.6v5.8Z"
         id="path14" /><path
         class="st7"
         d="M38.9,23.5h-4.6v-5.8h4.6v5.8Z"
         id="path15" /><path
         class="st0"
         d="M34.3,23.5h-4.6v-5.8h4.6v5.8Z"
         id="path16" /><path
         class="st4"
         d="M29.7,23.5h-4.6v-5.8h4.6v5.8Z"
         id="path17" /><path
         class="st3"
         d="M38.9,17.7h-4.6v-5.8h4.6v5.8Z"
         id="path18" /><path
         class="st5"
         d="M34.3,17.7h-4.6v-5.8h4.6v5.8Z"
         id="path19" /><path
         class="st6"
         d="M29.7,17.7h-4.6v-5.8h4.6v5.8Z"
         id="path20" /></g></g><g
     class="st9"
     id="g23"><path
       class="st8"
       d="M50.3,23.1c.2,0,.5,0,.7,0,1.8.2,3.5.7,5.1,1.4.5.2.6.4.2.8-1.2,1.2-2.1,2.7-2.9,4.2-.8,1.7-1.6,3.3-2.5,4.9-.6,1.2-1.4,2.3-2.4,3.3-2.5,2.3-5.4,3.2-8.8,2.8-3.8-.5-7.5-1.8-10.9-3.5-.2,0-.3-.2-.5-.3-.1,0-.2-.2,0-.3,0,0,0,0,0,0h.2c2.8-1.6,5.1-3.7,7.3-5.9.9-.9,1.9-1.9,2.8-2.8,2.1-2,4.7-3.4,7.5-4,.6-.2,1.2-.3,1.9-.4h1.4"
       id="path21" /><path
       class="st10"
       d="M23.4,49.9c-.4,0-1.5-.2-1.6-.2-2.7-.3-5.3-1.1-7.7-2.3-1.4-.7-2.8-1.4-4.1-2.2-.9-.5-1.3-1.3-1.3-2.3,0-3.9,0-7.8,0-11.7,0-2.5,0-5-.1-7.5,0-.2,0-.4.1-.7.2-.5.5-.5.8-.2.4.3.6.8,1,1.1,3.2,3.1,6.5,6,10.3,8.3,2.1,1.4,4.3,2.6,6.6,3.6,3.6,1.7,7.4,3.1,11.3,4,3.5.8,6.8.3,9.6-1.9.9-.7,1.3-1.3,2.3-2.6-.5,1.2-1,2.3-1.8,3.4-.7,1-2.1,2.4-3.2,3.5-1.7,1.6-3.9,3-6,4.1-2.3,1.2-4.6,2.2-7.2,2.7-1.3.3-3.2.7-3.8.7-.1,0-.5,0-.7,0-1.7.1-2.7.2-4.4,0h0Z"
       id="path22" /><path
       class="st13"
       d="M16.2,12.3c.1,0,.2,0,.3,0,7.2,0,14.3.1,21.4.1s0,0,0,0c.7.6,1.3,1.2,1.8,1.9,1.6,1.6,2.8,4.4,3.6,6.1.4,1.2,1,2.3,1.3,3.6h0c-.7.3-1.4.5-2.1.9-2.1,1-3,1.8-4.7,3.5-.9.9-1.7,1.7-3,2.9-.5.4-.9.9-1.4,1.3-.3-.6-5.9-11.5-17.1-20"
       id="path23" /></g><g
     id="g33"
     transform="matrix(1.1330869,0,0,1.2690647,-4.3179297,-8.5337883)" /><g
     transform="matrix(1.116224,0,0,1.1203391,-3.2793559,-1110.5008)"
     id="g7"><path
       style="fill:#fa9109"
       d="m 32.441541,1025.4661 c 3.303819,1.0868 4.564051,-0.027 4.564051,-0.027 -1.85907,-1.8053 -2.287804,-2.2837 -1.85255,-3.6683 0.868021,-2.7703 0.92249,-3.9701 0.588098,-5.3921 -0.800207,-3.4031 -2.300106,-3.966 -2.300106,-3.966 -0.656824,2.512 -0.774807,3.0722 -2.233704,3.4375 -2.802334,0.7231 -3.831183,1.2024 -4.904373,2.1732 -2.584588,2.3381 -2.259111,4.0093 -2.259111,4.0093 2.476931,-0.7332 3.082289,-0.8393 4.062975,0.2083 1.431393,1.5495 2.962879,2.7733 4.33472,3.2246 z"
       id="path2" /><path
       style="fill:#009245"
       d="m 31.516505,997.36238 c -4.276205,0 -8.273521,1.20571 -11.673509,3.29662 -0.05969,0.037 -0.116072,0.074 -0.175788,0.1138 15.668662,4.2515 20.184157,11.532 20.737644,18.4775 0.320312,4.0216 -2.071017,6.0485 -2.071017,6.0485 7.418008,-0.6729 15.411778,-8.0161 15.411778,-8.0161 -1.378875,-11.1433 -10.416289,-19.91976 -22.229108,-19.91976 z m -13.436895,4.62292 c -8.9049982,6.7734 -11.9377769,19.0344 -6.03177,29.3257 2.138102,3.7255 5.171321,6.6061 8.671355,8.5215 0.06131,0.034 0.125452,0.063 0.186777,0.097 -4.173738,-15.7757 -0.166454,-23.3516 5.534618,-27.306 3.303166,-2.2905 6.246013,-1.2184 6.246013,-1.2184 -4.287501,-6.1266 -14.606993,-9.4196 -14.606993,-9.4196 z m 35.904967,17.0957 c -11.494119,11.5242 -20.0169,11.8187 -26.272263,8.8285 -3.623478,-1.7314 -4.172249,-4.8302 -4.172249,-4.8302 -3.130504,6.7994 -0.804785,17.4359 -0.804785,17.4359 10.283065,4.3716 22.354871,0.8834 28.260877,-9.4087 2.138104,-3.7248 3.097514,-7.8072 2.996661,-11.8155 -7.76e-4,-0.07 -0.0067,-0.1406 -0.0083,-0.21 z"
       id="path3" /><path
       style="opacity:0.2"
       d="m 30.324484,1019.9299 c 0.514018,-0.6491 1.457749,-0.7582 2.106755,-0.2441 0.649927,0.5146 0.758565,1.4591 0.244526,2.1083 -0.514039,0.6488 -1.45911,0.7584 -2.107666,0.2435 -0.649007,-0.5141 -0.758087,-1.4578 -0.243615,-2.1077"
       id="path4" /><path
       style="fill:#ffffff"
       d="m 30.324484,1018.9299 c 0.514018,-0.6491 1.457749,-0.7582 2.106755,-0.2441 0.649927,0.5146 0.758565,1.4591 0.244526,2.1083 -0.514039,0.6488 -1.45911,0.7584 -2.107666,0.2435 -0.649007,-0.5141 -0.758087,-1.4578 -0.243615,-2.1077"
       id="path5" /><path
       style="opacity:0.2"
       transform="translate(0,988.3622)"
       d="m 31.515625,9 c -4.276205,0 -8.271887,1.205965 -11.671875,3.296875 -0.05969,0.037 -0.116065,0.07348 -0.175781,0.113281 0.397082,0.107744 0.755799,0.226312 1.138672,0.337891 C 23.989925,11.001687 27.634997,10 31.515625,10 c 11.498967,0 20.347003,8.324518 22.082031,19.044922 0.01157,-0.0105 0.148438,-0.125 0.148438,-0.125 C 52.367219,17.776622 43.328444,9 31.515625,9 Z m -13.435547,4.623047 c -5.80592,4.416151 -9.0929819,11.166887 -9.0566405,18.181641 0.2667637,-6.652505 3.5269145,-12.975571 9.0566405,-17.181641 0,0 8.973044,2.867929 13.660156,8.224609 0.584153,0.07343 0.947266,0.195313 0.947266,0.195313 -4.287501,-6.1266 -14.607422,-9.419922 -14.607422,-9.419922 z M 53.984375,30.71875 c -11.494119,11.5242 -20.016121,11.818325 -26.271484,8.828125 -3.623478,-1.7314 -4.171875,-4.830078 -4.171875,-4.830078 -1.30781,2.840539 -1.658218,6.346094 -1.628907,9.470703 0.05243,-2.855899 0.459717,-5.931244 1.628907,-8.470703 0,0 0.548397,3.098678 4.171875,4.830078 6.255363,2.9902 14.777365,2.696075 26.271484,-8.828125 2.82e-4,0.01222 0.0015,0.02483 0.002,0.03711 0.0031,-0.275802 0.01279,-0.550928 0.0059,-0.826171 -7.77e-4,-0.07 -0.0062,-0.141538 -0.0078,-0.210938 z m -13.570313,1.419922 c -0.19091,3.188309 -2.080078,4.798828 -2.080078,4.798828 0.303934,-0.02757 0.608785,-0.08381 0.914063,-0.132812 0.612848,-0.95182 1.279905,-2.496613 1.166015,-4.666016 z m -21.214843,7.791016 c -0.101389,3.214558 0.333829,7.018208 1.429687,11.488281 0.03035,0.01679 0.05942,0.03609 0.08984,0.05273 0.06131,0.034 0.126175,0.0617 0.1875,0.0957 -1.196977,-4.524279 -1.70277,-8.353271 -1.707031,-11.636718 z"
       id="path6-8" /></g></svg>
