<?xml version="1.0" encoding="UTF-8" standalone="no"?>
<svg
   id="_图层_1"
   version="1.1"
   viewBox="0 0 64 64" width="22" height="22"
   sodipodi:docname="postman.svg"
   xml:space="preserve"
   inkscape:version="1.4 (e7c3feb100, 2024-10-09)"
   xmlns:inkscape="http://www.inkscape.org/namespaces/inkscape"
   xmlns:sodipodi="http://sodipodi.sourceforge.net/DTD/sodipodi-0.dtd"
   xmlns="http://www.w3.org/2000/svg"
   xmlns:svg="http://www.w3.org/2000/svg"><sodipodi:namedview
     id="namedview26"
     pagecolor="#ffffff"
     bordercolor="#999999"
     borderopacity="1"
     inkscape:showpageshadow="2"
     inkscape:pageopacity="0"
     inkscape:pagecheckerboard="0"
     inkscape:deskcolor="#d1d1d1"
     inkscape:zoom="10.6875"
     inkscape:cx="45.754386"
     inkscape:cy="32"
     inkscape:window-width="1920"
     inkscape:window-height="939"
     inkscape:window-x="0"
     inkscape:window-y="34"
     inkscape:window-maximized="1"
     inkscape:current-layer="_图层_1" /><!-- Generator: Adobe Illustrator 29.0.1, SVG Export Plug-In . SVG Version: 2.1.0 Build 192)  --><defs
     id="defs6"><style
       id="style1">
      .st0 {
        fill-opacity: .5;
      }

      .st0, .st1, .st2, .st3, .st4, .st5, .st6, .st7 {
        fill: #fff;
      }

      .st8 {
        fill: #133c9a;
      }

      .st2, .st9 {
        display: none;
      }

      .st3 {
        fill-opacity: .2;
      }

      .st4 {
        fill-opacity: .9;
      }

      .st10 {
        fill: #3370ff;
      }

      .st11 {
        fill: url(#_未命名的渐变_3);
      }

      .st12 {
        fill: url(#_未命名的渐变);
      }

      .st5 {
        fill-opacity: .3;
      }

      .st6 {
        fill-opacity: 0;
      }

      .st7 {
        fill-opacity: .7;
      }

      .st13 {
        fill: #00d6b9;
      }

      .st14 {
        fill: url(#_未命名的渐变_2);
      }
    </style><radialGradient
       id="_未命名的渐变"
       data-name="未命名的渐变"
       cx="123.9"
       cy="-40.2"
       fx="123.9"
       fy="-40.2"
       r="59.4"
       gradientTransform="translate(-26.8 25.5) scale(.6 -.7)"
       gradientUnits="userSpaceOnUse"><stop
         offset="0"
         stop-color="#db202e"
         id="stop1" /><stop
         offset="1"
         stop-color="#e01b24"
         id="stop2" /></radialGradient><radialGradient
       id="_未命名的渐变_2"
       data-name="未命名的渐变 2"
       cx="67.6"
       cy="26.8"
       fx="67.6"
       fy="26.8"
       r="105.2"
       gradientTransform="translate(-26.6 25.3) scale(.6 -.7)"
       gradientUnits="userSpaceOnUse"><stop
         offset="0"
         stop-color="#ffb648"
         id="stop3" /><stop
         offset="1"
         stop-color="#ff7800"
         stop-opacity="0"
         id="stop4" /></radialGradient><radialGradient
       id="_未命名的渐变_3"
       data-name="未命名的渐变 3"
       cx="61.7"
       cy="18.6"
       fx="61.7"
       fy="18.6"
       r="68"
       gradientTransform="translate(-26.8 25.8) scale(.6 -.7)"
       gradientUnits="userSpaceOnUse"><stop
         offset="0"
         stop-color="#c64600"
         id="stop5" /><stop
         offset="1"
         stop-color="#a51d2d"
         id="stop6" /></radialGradient></defs><path
     class="st1"
     d="M47.5,64.1H13.8c-7.6,0-13.8-6.3-13.8-13.8V13.7C0,6.2,6.2,0,13.7,0h36.6c7.5,0,13.7,6.2,13.7,13.7v36.6c0,7.5-6.2,13.7-13.7,13.7h-2.9.1Z"
     id="path6"
     style="fill:#ff6c37;fill-opacity:1" /><rect
     class="st2"
     x="3"
     y="9.7"
     width="58.1"
     height="45.3"
     id="rect6" /><g
     class="st9"
     id="g21"><path
       class="st12"
       d="M-.1,16v35.3c.3,6.5,6.1,12.6,13.4,12.6l4.7.2h23.3s7.2,0,7.2,0c8.8,0,15.5-4.1,15.5-13.9V16.4h0C64,6.3,58,0,50.7,0H14.8C4.7-.2,0,7.2,0,14.5v1.4h-.1ZM4.6,11.6h4.6v5.8h-4.6v-5.8ZM54.9,11.6h4.6v5.8h-4.6v-5.8ZM4.6,23.2h4.6v5.8h-4.6v-5.8ZM54.9,23.2h4.6v5.8h-4.6v-5.8ZM4.6,34.8h4.6v5.8h-4.6v-5.8ZM54.9,34.8h4.6v5.8h-4.6v-5.8ZM4.6,46.4h4.6v5.8h-4.6v-5.8ZM54.9,46.4h4.6v5.8h-4.6v-5.8Z"
       id="path7" /><path
       class="st14"
       d="M47.5,0h-.7C41.4,0,46.8,0,45.5,0H13.3C4.1.3,0,8.5,0,13.7v1.3c0,.3-.1.3-.1.6v34.3c0,1.1,0,.8,0,.8H0c0,7.1,5.9,13.2,13.8,13.3h0c1.2,0,0,0,1.2,0h0c1.1,0,2.3,0,1.1,0h23.5c1.1,0,0,0,1.1,0h.7c3.2.1-1.7,0,0,0h-2.6c1.1,0,.6,0-1.1,0h-2c1.9,0-.6,0,13.3,0h1.3c5.9,0,13.7-4.3,13.6-11.4l.2-36.2C64.1,8.1,58.6,0,51.2,0M4.8,22.9h4.5v5.8h-4.5v-5.8ZM54.7,11.4h4.5v5.8h-4.5v-5.8ZM4.8,11.4h5v5.8h-5v-5.8ZM54.7,22.9h4.5v5.8h-4.5v-5.8ZM4.8,34.4h4.5v5.8h-4.5v-5.8ZM54.7,34.4h4.5v5.8h-4.5v-5.8ZM4.8,46h4.5v5.8h-4.5v-5.8ZM54.7,46h4.5v5.8h-4.5v-5.8Z"
       id="path8" /><path
       class="st11"
       d="M4.6,9.7v2.2h4.6v-2.2h-4.6ZM54.9,9.7v2.2h4.6v-2.2h-4.6ZM4.6,21.3v2.2h4.6v-2.2h-4.6ZM54.9,21.3v2.2h4.6v-2.2h-4.6ZM4.6,32.9v2.2h4.6v-2.2h-4.6ZM54.9,32.9v2.2h4.6v-2.2h-4.6ZM4.6,44.4v2.2h4.6v-2.2h-4.6ZM54.9,44.4v2.2h4.6v-2.2h-4.6ZM4.6,56v2.2h4.6v-2.2h-4.6ZM54.9,56v2.2h4.6v-2.2h-4.6Z"
       id="path9" /><g
       id="g20"><path
         class="st1"
         d="M25.1,29.3h13.7v11.6h-13.7s0-11.6,0-11.6Z"
         id="path10" /><path
         class="st1"
         d="M32,53.9l-12.6-15.9h25.1l-12.6,15.9h.1Z"
         id="path11" /><path
         class="st7"
         d="M25.1,29.3h4.6v-5.8h-4.6v5.8Z"
         id="path12" /><path
         class="st1"
         d="M29.7,29.3h4.6v-5.8h-4.6s0,5.8,0,5.8Z"
         id="path13" /><path
         class="st4"
         d="M34.3,29.3h4.6v-5.8h-4.6v5.8Z"
         id="path14" /><path
         class="st7"
         d="M38.9,23.5h-4.6v-5.8h4.6v5.8Z"
         id="path15" /><path
         class="st0"
         d="M34.3,23.5h-4.6v-5.8h4.6v5.8Z"
         id="path16" /><path
         class="st4"
         d="M29.7,23.5h-4.6v-5.8h4.6v5.8Z"
         id="path17" /><path
         class="st3"
         d="M38.9,17.7h-4.6v-5.8h4.6v5.8Z"
         id="path18" /><path
         class="st5"
         d="M34.3,17.7h-4.6v-5.8h4.6v5.8Z"
         id="path19" /><path
         class="st6"
         d="M29.7,17.7h-4.6v-5.8h4.6v5.8Z"
         id="path20" /></g></g><g
     class="st9"
     id="g23"><path
       class="st8"
       d="M50.3,23.1c.2,0,.5,0,.7,0,1.8.2,3.5.7,5.1,1.4.5.2.6.4.2.8-1.2,1.2-2.1,2.7-2.9,4.2-.8,1.7-1.6,3.3-2.5,4.9-.6,1.2-1.4,2.3-2.4,3.3-2.5,2.3-5.4,3.2-8.8,2.8-3.8-.5-7.5-1.8-10.9-3.5-.2,0-.3-.2-.5-.3-.1,0-.2-.2,0-.3,0,0,0,0,0,0h.2c2.8-1.6,5.1-3.7,7.3-5.9.9-.9,1.9-1.9,2.8-2.8,2.1-2,4.7-3.4,7.5-4,.6-.2,1.2-.3,1.9-.4h1.4"
       id="path21" /><path
       class="st10"
       d="M23.4,49.9c-.4,0-1.5-.2-1.6-.2-2.7-.3-5.3-1.1-7.7-2.3-1.4-.7-2.8-1.4-4.1-2.2-.9-.5-1.3-1.3-1.3-2.3,0-3.9,0-7.8,0-11.7,0-2.5,0-5-.1-7.5,0-.2,0-.4.1-.7.2-.5.5-.5.8-.2.4.3.6.8,1,1.1,3.2,3.1,6.5,6,10.3,8.3,2.1,1.4,4.3,2.6,6.6,3.6,3.6,1.7,7.4,3.1,11.3,4,3.5.8,6.8.3,9.6-1.9.9-.7,1.3-1.3,2.3-2.6-.5,1.2-1,2.3-1.8,3.4-.7,1-2.1,2.4-3.2,3.5-1.7,1.6-3.9,3-6,4.1-2.3,1.2-4.6,2.2-7.2,2.7-1.3.3-3.2.7-3.8.7-.1,0-.5,0-.7,0-1.7.1-2.7.2-4.4,0h0Z"
       id="path22" /><path
       class="st13"
       d="M16.2,12.3c.1,0,.2,0,.3,0,7.2,0,14.3.1,21.4.1s0,0,0,0c.7.6,1.3,1.2,1.8,1.9,1.6,1.6,2.8,4.4,3.6,6.1.4,1.2,1,2.3,1.3,3.6h0c-.7.3-1.4.5-2.1.9-2.1,1-3,1.8-4.7,3.5-.9.9-1.7,1.7-3,2.9-.5.4-.9.9-1.4,1.3-.3-.6-5.9-11.5-17.1-20"
       id="path23" /></g><g
     id="g27"
     transform="matrix(1.13868,0,0,1.1395301,-4.4260651,-4.5201087)"><path
       style="opacity:0.2"
       d="m 43.879542,17.003584 c -0.940714,0.04011 -1.868508,0.416159 -2.597312,1.121851 -1.600202,1.555735 -1.662148,4.123697 -0.12532,5.743585 l -0.0172,-0.03234 c 1.204112,1.251002 3.07433,1.570816 4.627002,0.80097 l -2.757034,-2.773536 c -0.09506,-0.11226 -0.09506,-0.273294 0,-0.38556 l 3.548266,-3.576999 c -0.784256,-0.641533 -1.737686,-0.938068 -2.678402,-0.897971 z m 3.059274,1.266125 -3.373802,3.417791 2.646458,2.676528 c 0.221812,-0.14434 0.411904,-0.318586 0.602026,-0.495008 1.53683,-1.539698 1.58293,-4.0115 0.12532,-5.599311 z m -0.18182,2.057143 c 0.08432,-3.2e-4 0.16426,0.03928 0.213784,0.10946 0.285182,0.545308 0.20688,1.201492 -0.1892,1.666608 -0.04752,0.06416 -0.14438,0.11194 -0.22361,0.11194 -0.06338,0.016 -0.14302,0.016 -0.20641,0 l -0.0146,-0.0148 c -0.11092,-0.11226 -0.09616,-0.305626 0.0146,-0.417896 0.237656,-0.272652 0.271468,-0.671734 0.11304,-0.992504 0,-0.016 -0.0172,-0.0164 -0.0172,-0.03234 -0.06336,-0.14434 0.0172,-0.321406 0.15972,-0.38556 0.04752,-0.03006 0.09932,-0.04458 0.14988,-0.04478 z m -7.917256,2.805872 c -1.701452,-0.13908 -4.496404,1.740458 -11.72108,9.041976 l 2.091118,2.119332 9.79214,-9.912594 c 0.34856,-0.352846 0.808732,-0.546136 1.299884,-0.562168 -0.44758,-0.368886 -0.894912,-0.640184 -1.462062,-0.686546 z m 1.49155,1.30095 c -0.34856,0 -0.69636,0.13086 -0.965698,0.39551 l -9.760196,9.815582 1.31463,1.395474 10.315532,-9.20615 c 0.285184,-0.256616 0.443666,-0.60758 0.459506,-0.992504 0.0158,-0.368882 -0.12628,-0.739748 -0.395618,-1.012402 -0.26934,-0.264634 -0.619598,-0.39551 -0.968156,-0.39551 z m 1.521036,2.482504 c -0.07922,0.11226 -0.17278,0.208348 -0.26784,0.288546 l -10.31553,9.188738 1.83802,1.860632 c 4.261924,-4.12189 8.412634,-8.35476 8.74535,-11.337916 z m -15.11454,5.57941 -2.582568,2.614336 -0.04668,0.06468 c -0.04754,0.04812 -0.06254,0.09752 -0.04668,0.16168 0.0158,0.09624 0.1089,0.1603 0.203952,0.14426 l 4.42059,-0.962652 z m 2.503938,2.614336 -1.47435,1.492486 c -0.0317,0.04812 -0.0317,0.11356 0,0.16168 0.04754,0.03208 0.095,0.03208 0.14252,0 l 2.425304,-0.626846 z m 1.552982,1.524822 -4.007774,0.865642 -8.271101,8.38777 2.693143,2.80836 c 0.07922,0.08022 0.221924,0.08022 0.316986,0 0.09504,-0.06416 0.15946,-0.19258 0.12778,-0.320884 l -0.444764,-1.925306 c -0.04752,-0.22454 0.06434,-0.449902 0.2703,-0.56217 h 0.0146 v -0.03234 C 25.518148,43.91516 29.289002,41.4619 32.711218,38.574974 Z m -12.706444,9.653896 -2.076376,2.11933 c -0.01584,0.04812 -0.01584,0.10998 0,0.17414 0.01584,0.04812 0.07915,0.0984 0.14252,0.11442 l 4.626994,0.303464 z"
       id="path2" /><path
       style="fill:#ffffff"
       d="m 43.879542,16.003584 c -0.940714,0.04011 -1.868508,0.416159 -2.597312,1.121851 -1.600202,1.555734 -1.662148,4.123697 -0.12532,5.743585 l -0.0172,-0.03234 c 1.204112,1.251002 3.07433,1.570816 4.627002,0.80097 l -2.757034,-2.773536 c -0.09506,-0.11226 -0.09506,-0.273294 0,-0.38556 l 3.548266,-3.576999 c -0.784256,-0.641533 -1.737686,-0.938068 -2.678402,-0.897971 z m 3.059274,1.266125 -3.373802,3.417791 2.646458,2.676528 c 0.221812,-0.14434 0.411904,-0.318586 0.602026,-0.495008 1.53683,-1.539698 1.58293,-4.0115 0.12532,-5.599311 z m -0.18182,2.057143 c 0.08432,-3.2e-4 0.16426,0.03928 0.213784,0.10946 0.285182,0.545308 0.20688,1.201492 -0.1892,1.666608 -0.04752,0.06416 -0.14438,0.11194 -0.22361,0.11194 -0.06338,0.016 -0.14302,0.016 -0.20641,0 l -0.0146,-0.0148 c -0.11092,-0.11226 -0.09616,-0.305626 0.0146,-0.417896 0.237656,-0.272652 0.271468,-0.671734 0.11304,-0.992504 0,-0.016 -0.0172,-0.0164 -0.0172,-0.03234 -0.06336,-0.14434 0.0172,-0.321406 0.15972,-0.38556 0.04752,-0.03006 0.09932,-0.04458 0.14988,-0.04478 z m -7.917256,2.805872 c -1.701452,-0.13908 -4.496404,1.740458 -11.72108,9.041976 l 2.091118,2.119332 9.79214,-9.912594 c 0.34856,-0.352846 0.808732,-0.546136 1.299884,-0.562168 -0.44758,-0.368886 -0.894912,-0.640184 -1.462062,-0.686546 z m 1.49155,1.30095 c -0.34856,0 -0.69636,0.13086 -0.965698,0.39551 l -9.760196,9.815582 1.31463,1.395474 10.315532,-9.20615 c 0.285184,-0.256616 0.443666,-0.60758 0.459506,-0.992504 0.0158,-0.368882 -0.12628,-0.739748 -0.395618,-1.012402 -0.26934,-0.264634 -0.619598,-0.39551 -0.968156,-0.39551 z m 1.521036,2.482504 c -0.07922,0.11226 -0.17278,0.208348 -0.26784,0.288546 l -10.31553,9.188738 1.83802,1.860632 c 4.261924,-4.12189 8.412634,-8.35476 8.74535,-11.337916 z m -15.11454,5.57941 -2.582568,2.614336 -0.04668,0.06468 c -0.04754,0.04812 -0.06254,0.09752 -0.04668,0.16168 0.0158,0.09624 0.1089,0.1603 0.203952,0.14426 l 4.42059,-0.962652 z m 2.503938,2.614336 -1.47435,1.492486 c -0.0317,0.04812 -0.0317,0.11356 0,0.16168 0.04754,0.03208 0.095,0.03208 0.14252,0 l 2.425304,-0.626846 z m 1.552982,1.524822 -4.007774,0.865642 -8.271101,8.38777 2.693143,2.80836 c 0.07922,0.08022 0.221924,0.08022 0.316986,0 0.09504,-0.06416 0.15946,-0.19258 0.12778,-0.320884 l -0.444764,-1.925306 c -0.04752,-0.22454 0.06434,-0.449902 0.2703,-0.56217 h 0.0146 v -0.03234 C 25.518148,42.91516 29.289002,40.4619 32.711218,37.574974 Z m -12.706444,9.653896 -2.076376,2.11933 c -0.01584,0.04812 -0.01584,0.10998 0,0.17414 0.01584,0.04812 0.07915,0.0984 0.14252,0.11442 l 4.626994,0.303464 z"
       id="path3" /></g></svg>
