<?xml version="1.0" encoding="UTF-8"?>
<svg id="_图层_1" xmlns="http://www.w3.org/2000/svg" version="1.1" xmlns:xlink="http://www.w3.org/1999/xlink" viewBox="0 0 64 64" width="22" height="22">
  <!-- Generator: Adobe Illustrator 29.0.1, SVG Export Plug-In . SVG Version: 2.1.0 Build 192)  -->
  <defs>
    <style>
      .st0 {
        fill: none;
        stroke: #f34235;
        stroke-miterlimit: 2;
        stroke-width: .7px;
      }

      .st1, .st2 {
        isolation: isolate;
        opacity: .2;
      }

      .st1, .st3 {
        display: none;
      }

      .st4 {
        fill: #e60012;
      }

      .st5 {
        fill: #3f3f3f;
      }

      .st6 {
        fill: #fff;
      }

      .st7 {
        fill: #5e5e5e;
      }

      .st8 {
        fill: #c4c4c4;
      }

      .st9 {
        fill: url(#_未命名的渐变_35);
      }

      .st10 {
        fill: #ebebeb;
      }

      .st11 {
        fill: #e97d10;
      }

      .st12 {
        fill: url(#_未命名的渐变_351);
      }

      .st13 {
        fill: #ededed;
      }
    </style>
    <linearGradient id="_未命名的渐变_35" data-name="未命名的渐变 35" x1="32" y1="0" x2="32" y2="64.1" gradientUnits="userSpaceOnUse">
      <stop offset="0" stop-color="#606060"/>
      <stop offset="1" stop-color="#282828"/>
    </linearGradient>
    <linearGradient id="_未命名的渐变_351" data-name="未命名的渐变 35" x1="32.2" y1="7.1" x2="32.2" y2="59" xlink:href="#_未命名的渐变_35"/>
  </defs>
  <path class="st9" d="M47.5,64.1H13.8c-7.6,0-13.8-6.3-13.8-13.8V13.7C0,6.2,6.2,0,13.7,0h36.6c7.5,0,13.7,6.2,13.7,13.7v36.6c0,7.5-6.2,13.7-13.7,13.7h-2.9.1Z"/>
  <g class="st3">
    <rect class="st10" width="63.9" height="63.9" rx="12.9" ry="12.9"/>
    <g>
      <path class="st1" d="M10.2,32.2v.8c0,11.5,9.5,20.8,21.1,20.8s21.1-9.2,21.1-20.8,0-.5,0-.8c-.4,11.1-9.6,20-21.1,20s-20.7-8.8-21.1-20h0Z"/>
      <path class="st11" d="M31.4,11.4h0c11.7,0,21.1,9.3,21.1,20.8h0c0,11.5-9.5,20.8-21.1,20.8h0c-11.7,0-21.1-9.3-21.1-20.8h0c0-11.5,9.5-20.8,21.1-20.8Z"/>
      <path class="st2" d="M48,33h0c0-9-7.5-16.4-16.6-16.4h0c-9.2,0-16.6,7.3-16.6,16.4h0c0,9,7.5,16.4,16.6,16.4h0c9.2,0,16.6-7.3,16.6-16.4Z"/>
      <path class="st10" d="M31.4,15.9c-4.6,0-8.8,1.9-11.8,4.8s-4.9,7-4.9,11.5c0,9,7.4,16.3,16.6,16.3v-16.3l11.7-11.5c-3-3-7.2-4.8-11.8-4.8h0Z"/>
      <path class="st8" d="M43.1,20.6l-11.8,11.6v16.4c9.2,0,16.6-7.3,16.6-16.3s-1.8-8.6-4.8-11.5h0Z"/>
      <path class="st7" d="M42.8,20.2l-12.1,11.2,1.5,1.5,11.5-12-.8-.8h0Z"/>
      <path class="st0" d="M31.4,32.2v16.4"/>
      <path class="st5" d="M23.5,23.6l-.8.8,8,8.6,1.5-1.5-8.7-7.8h0Z"/>
      <ellipse class="st5" cx="31.4" cy="32.2" rx="1.1" ry="1"/>
    </g>
  </g>
  <g class="st3">
    <path class="st6" d="M7.6,33c0,13.5,10.9,24.4,24.4,24.4s24.4-10.9,24.4-24.4h0c0-13.5-10.9-24.4-24.4-24.4-13.5,0-24.4,10.9-24.4,24.4h0Z"/>
    <path d="M30.6,9.2h3v6.1h-3v-6.1ZM9.2,30.4h6.1v3.1h-6.1v-3.1ZM30.3,50.4h3v6.1h-3v-6.1ZM49.5,30.7h6.1v3.1h-6.1v-3.1Z"/>
    <path class="st12" d="M32.2,59c-14.3,0-25.9-11.6-25.9-26S17.9,7.1,32.2,7.1s25.9,11.6,25.9,26-11.6,26-25.9,26ZM32.2,10.1c-12.6,0-22.8,10.3-22.8,22.9s10.3,22.9,22.8,22.9,22.8-10.3,22.8-22.9-10.2-22.9-22.8-22.9Z"/>
    <path class="st4" d="M31.5,33.5l.6.5-9.2,9.8-.6-.5,9.2-9.8Z"/>
    <path d="M45.4,34.5h-14.4v-16.1h1.5v14.6h12.9v1.5Z"/>
  </g>
  <path class="st13" d="M30.7,8.5c12.7,0,23,10.3,23,23s-10.3,23-23,23S7.7,44.2,7.7,31.5,18,8.5,30.7,8.5ZM30.7,18.1c-.1,0-.2.1-.2.2v12h0c-.4.2-.7.5-.8.9h-15.4c0-.3,0-.6-.1-.9,0-.2-.1-.4-.3-.5-.1-.1-.3-.2-.4-.3-.3-.1-.7-.1-1,0-.3.1-.5.3-.6.6,0,.2,0,.3,0,.5,0,.2,0,.4,0,.6h-2.1c-.1,0-.2,0-.2.2s0,.2.2.2h2.4c0,0,.2.1.3.2.1,0,.3,0,.5,0,.2,0,.5,0,.7-.3h.2c0,.4,0,.7-.2.8-.1.2-.4.4-.6.4-.2,0-.3,0-.5-.1-.1-.1-.2-.3-.2-.4h-.4c0,.3.1.6.4.7.2.2.5.2.8.2.5,0,.8-.2,1-.5.2-.3.3-.6.3-1.1h15.4c0,.4.4.8.8.9v15.1c-.1,0-.2,0-.3.1-.2.1-.3.3-.4.4-.1.2-.2.4-.2.6,0,.5,0,.9,0,1.4,0,.2,0,.4.2.6,0,.2.2.3.4.4.2.1.4.2.7.2s.4,0,.6-.1c.3-.1.5-.4.6-.7,0-.1,0-.3,0-.4s0-.3,0-.5c0-.1-.1-.3-.2-.4,0-.1-.2-.2-.4-.3-.2,0-.3,0-.5,0h.1s0-.9,0-.9c0,0,.1,0,.2,0h0c.1.2.2.3.2.5h.4c0-.3-.1-.5-.3-.7-.2-.2-.4-.2-.7-.2h.1s0-15.1,0-15.1c.3-.1.6-.4.7-.7h0c0-.1,1-.1,1-.1.1,0,.2,0,.2-.2s0-.2-.2-.2h-1c0-.4-.4-.7-.8-.8h0c0,0,0-.2,0-.2v-11.9c0-.1-.1-.2-.2-.2h0ZM31.1,49.4c.2,0,.3.3.4.5,0,.1,0,.2,0,.3s0,.2,0,.3c0,0,0,.2-.1.3,0,0-.1.1-.2.2-.1,0-.2,0-.3,0-.1,0-.2,0-.3,0-.2,0-.3-.2-.4-.4,0-.2,0-.4,0-.7,0-.2.2-.3.4-.4v.8c0,.2.1.3.3.3.2,0,.3-.1.3-.3v-.9s0,0,.1,0h0ZM30.4,48.1v.9s0,0,0,0c-.1,0-.2.2-.3.3h0c0,0,0,0,0,0,0-.1,0-.3,0-.5,0-.2,0-.3.1-.5,0-.2.2-.3.3-.4h0ZM41,45h-1.9l-.4,2h.4c0,0,.2-.2.3-.2.1,0,.3-.1.4,0,.1,0,.2,0,.3,0,.2,0,.4.2.4.4,0,.1,0,.2,0,.3s0,.3,0,.4c0,.1,0,.2-.2.3,0,0-.2.1-.3.2-.2,0-.4,0-.6,0-.3,0-.5-.3-.5-.6h-.5c0,.2,0,.3.1.5,0,.1.2.2.3.3.1,0,.2.2.4.2.1,0,.3,0,.5,0s.4,0,.6-.1c.3-.1.5-.4.7-.7,0-.2,0-.3,0-.5,0-.2,0-.4,0-.6,0-.2-.1-.3-.3-.4-.1-.1-.2-.2-.4-.2-.2,0-.3,0-.5,0-.1,0-.3,0-.4,0-.1,0-.2.1-.3.2h0s.2-1.1.2-1.1h1.5s0-.4,0-.4ZM22.6,45h-2.4v.4h2c-.4.4-.8.9-1,1.5-.1.3-.2.6-.3.9,0,.3-.1.6-.2.9h.5c0-.3,0-.6.1-.9.2-.6.4-1.2.8-1.7.2-.3.3-.5.5-.7,0,0,0-.4,0-.4ZM14.8,38.8c-.1,0-.3,0-.4,0-.1,0-.2.1-.4.2-.1,0-.2.2-.2.3,0,.1,0,.3,0,.4,0,.2,0,.3.1.5,0,.1.2.2.4.3-.2,0-.4.2-.5.4-.1.2-.2.4-.2.6,0,.2,0,.4,0,.5,0,.1.2.3.3.4.1,0,.2.2.4.2.3,0,.7,0,1,0,.3,0,.5-.3.7-.6,0-.2.1-.3,0-.5,0-.2,0-.4-.2-.6-.1-.2-.3-.3-.5-.3.2,0,.3-.2.4-.3,0-.1.1-.3.1-.5,0-.1,0-.2,0-.4,0-.1-.1-.2-.2-.3-.1,0-.2-.2-.4-.2-.2,0-.3,0-.5,0ZM47.4,38.8h-.4l-1.7,2.4v.4h1.7v.9h.4v-.9h.5v-.4h-.5s0-2.5,0-2.5ZM14.8,40.8c.2,0,.4,0,.5.2,0,0,.1.1.2.2,0,.2,0,.4,0,.6,0,0,0,.2-.2.2,0,0-.2.1-.2.2,0,0-.2,0-.3,0-.2,0-.4,0-.6-.2-.1-.1-.2-.3-.2-.5,0-.2,0-.4.2-.5,0,0,.2-.1.3-.1,0,0,.2,0,.3,0ZM46.9,39.4v1.8h-1.3l1.3-1.8h0ZM14.8,39.2c.2,0,.3,0,.5.1.1,0,.2.2.2.4s0,.3-.2.4c-.1.1-.3.2-.4.2,0,0-.2,0-.3,0,0,0-.1,0-.2-.1,0,0-.1-.1-.1-.2,0,0,0-.2,0-.3,0-.2,0-.3.2-.4,0,0,.1,0,.2-.1,0,0,.2,0,.3,0ZM48.7,29.5c-.2,0-.4,0-.5,0-.1,0-.3.1-.4.2,0,.1-.2.2-.2.4,0,.1,0,.3,0,.5h.4c0-.1,0-.2,0-.3,0,0,0-.2.1-.3,0,0,.1-.1.2-.2,0,0,.2,0,.3,0,.2,0,.4,0,.5.2.1.1.2.3.2.5,0,.2,0,.3-.2.5,0,0-.1,0-.2.1,0,0-.2,0-.3,0h-.1s0,0,0,0v.4c0,0,.2,0,.3,0s.2,0,.3,0c0,0,.2,0,.3.1.2.1.2.3.2.5,0,.2,0,.4-.2.5,0,0-.2.1-.3.1-.1,0-.2,0-.3,0-.3,0-.5,0-.6-.2-.1-.2-.2-.4-.2-.6h-.4c0,.2,0,.4,0,.5,0,.2.1.3.3.4.1.1.2.2.4.2.2,0,.3,0,.5,0s.3,0,.5,0c.2,0,.3-.1.4-.2.1,0,.2-.2.3-.4,0-.2.1-.3.1-.5,0-.2,0-.4-.2-.6-.1-.2-.3-.3-.5-.3h0c.1,0,.3-.2.4-.3,0-.1.2-.3.1-.5,0-.2,0-.3,0-.5,0-.1-.1-.2-.2-.3-.1,0-.2-.1-.4-.2-.1,0-.3,0-.5,0ZM12.9,29.9c.2,0,.4,0,.6.3,0,0,.1.2.1.3,0,.2,0,.4,0,.6,0,0,0,.1-.1.2h-1.2s0,0,0,0c0-.1-.1-.3-.1-.5,0-.1,0-.2,0-.3,0-.1,0-.2.1-.3,0,0,.1-.2.2-.2.1,0,.2,0,.3,0ZM16.3,21.1c-.2,0-.4,0-.5,0-.3.1-.5.3-.6.6,0,.1,0,.3-.1.4,0,.1,0,.3,0,.4,0,.3,0,.6,0,.9,0,.1,0,.3,0,.4,0,.1,0,.3.1.4,0,.1.1.2.2.3,0,0,.2.2.3.2.1,0,.3,0,.5,0s.4,0,.5,0c.1,0,.2-.1.3-.2,0,0,.2-.2.2-.3,0-.1,0-.3.1-.4,0-.1,0-.3,0-.4,0-.3,0-.6,0-.9,0-.1,0-.3,0-.4,0-.1,0-.3-.1-.4-.1-.3-.3-.5-.6-.6-.2,0-.3,0-.5,0h0ZM46.1,21.1c-.2,0-.4,0-.5,0-.3.1-.5.4-.6.7,0,.2,0,.4,0,.5h.5c0-.1,0-.2,0-.3,0-.1,0-.2.1-.3.1-.2.3-.3.6-.3,0,0,.2,0,.3,0,.2,0,.3.2.4.4,0,0,0,.2,0,.3,0,.1,0,.2,0,.3,0,.1-.1.2-.2.3,0,0-.2.2-.3.3s-.3.2-.4.3c-.1,0-.3.2-.4.3-.1,0-.2.2-.3.3,0,.1-.2.3-.2.4,0,.2-.1.4-.1.6h2.5v-.4h-1.9c0-.1,0-.2.1-.3,0,0,.2-.2.2-.3s.2-.2.3-.2c.1,0,.2-.1.4-.2.1,0,.2-.2.3-.2.1,0,.2-.2.3-.3.2-.2.3-.5.3-.8,0-.2,0-.3,0-.5,0-.1-.1-.2-.3-.3-.1,0-.2-.2-.4-.2-.1,0-.3,0-.5,0h0ZM13.7,21.1h-.3c0,.2-.2.5-.4.6,0,0-.2,0-.3.1s-.2,0-.4,0v.4h1v2.7h.5v-3.8h0ZM16.3,21.5c.1,0,.2,0,.3,0,0,0,.2.1.2.2,0,0,.1.2.1.3,0,.2,0,.4,0,.7v.3c0,.1,0,.3,0,.5,0,.2,0,.3,0,.5,0,.1-.1.3-.2.4-.1.1-.3.2-.4.2s-.3,0-.4-.2c-.1-.1-.2-.2-.2-.4,0-.2,0-.3,0-.5,0-.3,0-.5,0-.8,0-.2,0-.4,0-.7,0-.1,0-.2.1-.3,0,0,.1-.1.2-.2,0,0,.2,0,.3,0ZM40,14.5h-.3c0,.2-.2.5-.4.6,0,0-.2,0-.3.1-.1,0-.2,0-.4,0v.4h1v2.7h.4v-3.8h0ZM23.7,14.5h-.3c0,.2-.2.5-.4.6,0,0-.2,0-.3.1-.1,0-.2,0-.4,0v.4h1v2.7h.5v-3.8h0ZM20.8,14.5h-.3c0,.2-.2.5-.4.6,0,0-.2,0-.3.1-.1,0-.2,0-.4,0v.4h1v2.7h.5v-3.8h0ZM32.1,11.8c-.2,0-.4,0-.5,0-.3.1-.5.4-.6.7,0,.2,0,.4,0,.5h.4c0-.1,0-.2,0-.3,0-.1,0-.2.1-.3.1-.2.3-.3.6-.3,0,0,.2,0,.3,0,.2,0,.3.2.4.4,0,0,0,.2,0,.3,0,.1,0,.2,0,.3,0,.1-.1.2-.2.3,0,0-.2.2-.3.3-.1,0-.3.2-.4.3-.1,0-.3.2-.4.2-.1,0-.2.2-.3.3,0,.1-.2.3-.2.4,0,.2-.1.4-.1.6h2.5v-.4h-1.9c0-.1,0-.2.1-.3,0,0,.2-.2.2-.3,0,0,.2-.1.3-.2.1,0,.2-.1.4-.2.1,0,.2-.2.3-.2.1,0,.2-.2.3-.3.2-.2.3-.5.3-.8,0-.2,0-.3,0-.5,0-.1-.1-.2-.3-.3-.1,0-.2-.2-.4-.2-.1,0-.3,0-.5,0h0ZM29.6,11.8h-.3c0,.2-.2.5-.4.6,0,0-.2,0-.3.1-.1,0-.2,0-.4,0v.4h1v2.7h.5v-3.8h0Z"/>
</svg>