<?xml version="1.0" encoding="UTF-8"?>
<svg id="_图层_1" xmlns="http://www.w3.org/2000/svg" version="1.1" viewBox="0 0 64 64" width="22" height="22">
  <!-- Generator: Adobe Illustrator 29.0.1, SVG Export Plug-In . SVG Version: 2.1.0 Build 192)  -->
  <defs>
    <style>
      .st0 {
        fill: #4bd076;
      }

      .st1 {
        fill: #4f4f4f;
      }

      .st2 {
        fill: #2f67ba;
      }

      .st2, .st3, .st4, .st5, .st6, .st7, .st8, .st9 {
        display: none;
      }

      .st3, .st4, .st10, .st11, .st12, .st13, .st14, .st15, .st8, .st16 {
        isolation: isolate;
      }

      .st3, .st10, .st17, .st13, .st14, .st15, .st8 {
        opacity: .2;
      }

      .st4, .st18, .st19, .st13, .st15, .st8, .st16 {
        fill: #fff;
      }

      .st4, .st12, .st16 {
        opacity: .1;
      }

      .st5, .st20 {
        fill: #303d75;
      }

      .st21 {
        fill: none;
        stroke: #5a3608;
        stroke-width: 5.7px;
      }

      .st10, .st19, .st22, .st23, .st13, .st24 {
        fill-rule: evenodd;
      }

      .st25 {
        fill: #3f3f3f;
      }

      .st22 {
        fill: #ccc;
      }

      .st23, .st26 {
        fill: #e4e4e4;
      }

      .st6 {
        fill: #ff811f;
      }

      .st27 {
        fill: #a7abad;
      }

      .st28 {
        fill: #666;
      }

      .st29 {
        fill: #44559e;
      }

      .st30 {
        fill: #5d8cb9;
      }

      .st31 {
        fill: #5a3608;
      }

      .st32 {
        fill: gray;
      }

      .st33 {
        fill: #e31c1c;
      }

      .st9 {
        fill: #6a84e2;
      }
    </style>
  </defs>
  <path class="st20" d="M50.4,64H13.8c-7.6,0-13.8-6.2-13.8-13.7V13.7C0,6.2,6.2,0,13.7,0h36.5c7.5,0,13.7,6.2,13.7,13.7v36.6c0,7.5-6.2,13.7-13.7,13.7h.1Z"/>
  <g class="st7">
    <ellipse class="st3" cx="31.9" cy="33.3" rx="31.9" ry="32"/>
    <ellipse class="st9" cx="31.9" cy="32.1" rx="31.9" ry="32"/>
    <path class="st14" d="M12.9,19.2c-1.6,0-2.8,1.3-2.8,2.8v22.4c0,1.6,1.3,2.8,2.8,2.8h38c1.6,0,2.8-1.3,2.8-2.8v-22.4c0-1.6-1.3-2.8-2.8-2.8H12.9ZM15.3,24.8s0,0,0,0c.1,0,.3,0,.4.1l12.9,7.6c.4.2.5.7.3,1.1,0,.1-.2.2-.3.3l-12.9,7.6c-.4.2-.9,0-1.1-.3,0-.1-.1-.3-.1-.4v-15.2c0-.4.3-.8.8-.8ZM34.9,26h8.5c.7,0,1.3.8,1.3,1.7,0,.9-.6,1.7-1.3,1.7h-8.5c-.7,0-1.3-.8-1.3-1.7,0-.4.1-.9.4-1.2.2-.3.6-.5.9-.5ZM34.8,31.6h13.2c.7,0,1.2.8,1.2,1.7,0,.4-.1.9-.4,1.2-.2.3-.6.5-.9.5h-13.2c-.7,0-1.2-.8-1.2-1.7,0-.9.6-1.7,1.2-1.7ZM34.8,37.2h13.2c.7,0,1.2.8,1.2,1.7,0,.4-.1.9-.4,1.2-.2.3-.6.5-.9.5h-13.2c-.7,0-1.2-.8-1.2-1.7,0-.9.6-1.7,1.2-1.7Z"/>
    <path class="st18" d="M12.9,18.1c-1.6,0-2.8,1.3-2.8,2.8v22.4c0,1.6,1.3,2.8,2.8,2.8h38c1.6,0,2.8-1.3,2.8-2.8v-22.4c0-1.6-1.3-2.8-2.8-2.8H12.9ZM15.3,23.7s0,0,0,0c.1,0,.3,0,.4.1l12.9,7.6c.4.2.5.7.3,1.1,0,.1-.2.2-.3.3l-12.9,7.6c-.4.2-.9,0-1.1-.3,0-.1-.1-.3-.1-.4v-15.2c0-.4.3-.8.8-.8ZM34.9,24.8h8.5c.7,0,1.3.8,1.3,1.7,0,.9-.6,1.7-1.3,1.7h-8.5c-.7,0-1.3-.8-1.3-1.7,0-.4.1-.9.4-1.2.2-.3.6-.5.9-.5ZM34.8,30.5h13.2c.7,0,1.2.8,1.2,1.7,0,.4-.1.9-.4,1.2-.2.3-.6.5-.9.5h-13.2c-.7,0-1.2-.8-1.2-1.7,0-.9.6-1.7,1.2-1.7ZM34.8,36.1h13.2c.7,0,1.2.8,1.2,1.7,0,.4-.1.9-.4,1.2-.2.3-.6.5-.9.5h-13.2c-.7,0-1.2-.8-1.2-1.7,0-.9.6-1.7,1.2-1.7Z"/>
    <path class="st8" d="M31.9.1C14.3.1,0,14.5,0,32.1c0,.2,0,.4,0,.7C.3,15.3,14.5,1.3,31.9,1.3c17.4,0,31.5,13.9,31.9,31.3,0-.2,0-.3,0-.5C63.8,14.5,49.5.1,31.9.1Z"/>
  </g>
  <g class="st7">
    <rect class="st27" x="10.5" y="16.8" width="42.9" height="31.1"/>
    <path class="st26" d="M40,39.8h3.6c.5,0,.9.4.9.8v.8c0,.5-.4.8-.9.8h-3.6c-.5,0-.9-.4-.9-.8v-.8c0-.5.4-.8.9-.8Z"/>
    <path class="st14" d="M9.1,9.5c-.7,0-1.3.5-1.3,1.1v9.2c0,.6.6,1.1,1.3,1.1h45.8c.7,0,1.3-.5,1.3-1.1v-9.2c0-.6-.6-1.1-1.3-1.1H9.1ZM9.1,41.4c-.7,0-1.3.5-1.3,1.1v11.6c0,.6.6,1.1,1.3,1.1h45.8c.7,0,1.3-.5,1.3-1.1v-11.6c0-.6-.6-1.1-1.3-1.1H9.1Z"/>
    <path class="st33" d="M9.1,8.7h45.8c.7,0,1.3.5,1.3,1.1v9.2c0,.6-.6,1.1-1.3,1.1H9.1c-.7,0-1.3-.5-1.3-1.1v-9.2c0-.6.6-1.1,1.3-1.1Z"/>
    <path class="st1" d="M22,21.8h20c1.4,0,2.5,1,2.5,2.3v12.6c0,1.3-1.1,2.3-2.5,2.3h-20c-1.4,0-2.5-1-2.5-2.3v-12.6c0-1.3,1.1-2.3,2.5-2.3Z"/>
    <path class="st26" d="M47.2,39.8h3.6c.5,0,.9.4.9.8v.8c0,.5-.4.8-.9.8h-3.6c-.5,0-.9-.4-.9-.8v-.8c0-.5.4-.8.9-.8Z"/>
    <rect class="st28" x="15.9" y="34.9" width="1.8" height="5.7"/>
    <path class="st32" d="M14.8,39.8h3.9c.4,0,.7.3.7.7v1.1c0,.4-.3.7-.7.7h-3.9c-.4,0-.7-.3-.7-.7v-1.1c0-.4.3-.7.7-.7Z"/>
    <path class="st33" d="M9.1,40.6h45.8c.7,0,1.3.5,1.3,1.1v11.6c0,.6-.6,1.1-1.3,1.1H9.1c-.7,0-1.3-.5-1.3-1.1v-11.6c0-.6.6-1.1,1.3-1.1Z"/>
    <ellipse class="st12" cx="16.8" cy="34.9" rx="3.6" ry="3.3"/>
    <ellipse class="st1" cx="16.8" cy="34" rx="3.6" ry="3.3"/>
    <path class="st15" d="M9.1,8.7c-.7,0-1.3.5-1.3,1.1v.8c0-.6.6-1.1,1.3-1.1h45.8c.7,0,1.3.5,1.3,1.1v-.8c0-.6-.6-1.1-1.3-1.1H9.1ZM9.1,40.6c-.7,0-1.3.5-1.3,1.1v.8c0-.6.6-1.1,1.3-1.1h45.8c.7,0,1.3.5,1.3,1.1v-.8c0-.6-.6-1.1-1.3-1.1H9.1Z"/>
    <path class="st19" d="M34.7,24.2l-12.5,11.5h6.3l4.5-4.1v4.1l5.4-4.1v4.1l3.6-3.3v-8.2l-7.2,5.7v-5.7Z"/>
  </g>
  <g class="st7">
    <path class="st10" d="M29.8,23.6c-5.6.4-8.8,11-9.6,14.4,0,0,.1,0,.2,0,0,.1,0,.3,0,.6s0,.4,0,.6c0,.2,0,.2-.1.3h0s0,0,0,0c0,0-.3.4-.5,1-.1.6,0,1.5.8,2.5.8.9,1.9,1.9,3.1,3,.6.6,1.1,1.1,1.5,1.6.2.2.4.4.5.6.1.2.1.3.1.3,0,0-.2,1.8-.3,3.7,0,.9,0,1.4,0,2.1,0,.4,0,.7.1,1,0,.1,0,.2.1.3,0,.1.2.2.3.2.6.2,1.2-.2,1.7-.6.5-.4.9-.7.9-1.3,0-.8-.5-1.3-.5-1.3,0,0,0,0-.1-.4,0-.2,0-.5,0-.7,0-.2,0-.4.1-.4,0,0,.1,0,.3,0,.2,0,.4,0,.6,0,.2,0,.5.1.7.2.2,0,.5,0,.7-.2.5-.3,1.4-1,1.8-1.6.2-.3.3-.5.6-.8,0,0,.1,0,.2,0-3.9-13.6,0-23.5-1.4-25-1.2,0-1.7,0-1.7,0ZM36,23.6s-.4,0-1.7,0c-1.5,1.5,2.5,11.4-1.4,25,0,0,.1,0,.2,0,.3.3.4.5.6.8.5.6,1.3,1.3,1.8,1.6.2.1.5.2.7.2.2,0,.5-.1.7-.2.2,0,.4,0,.6,0,.2,0,.2,0,.3,0,0,0,.1.2.1.4,0,.2,0,.5,0,.7,0,.5-.1.3-.1.4,0,0-.6.5-.5,1.3,0,.5.4.9.9,1.3.5.4,1.1.7,1.7.6.1,0,.2-.1.3-.2,0-.1.1-.2.1-.3,0-.3.1-.6.1-1,0-.7,0-1.2,0-2.1-.1-1.9-.3-3.7-.3-3.7,0,0,0-.2.1-.3.1-.2.3-.4.5-.6.4-.5.9-1,1.5-1.6,1.2-1.1,2.3-2.1,3.1-3,.8-1,.9-1.9.8-2.5-.1-.6-.5-1-.5-1h0s0,0,0,0c0,0,0-.1-.1-.3,0-.2,0-.4,0-.6,0-.3,0-.5,0-.6,0,0,0,0,.2,0-.8-3.4-4-14-9.6-14.4Z"/>
    <path class="st22" d="M29.8,22.7c-5.6.4-8.8,11-9.6,14.4,0,0,.1,0,.2,0,0,.1,0,.3,0,.6s0,.4,0,.6c0,.2,0,.2-.1.3h0s0,0,0,0c0,0-.3.4-.5,1-.1.6,0,1.5.8,2.5.8.9,1.9,1.9,3.1,3,.6.6,1.1,1.1,1.5,1.6.2.2.4.4.5.6.1.2.1.3.1.3,0,0-.2,1.8-.3,3.7,0,.9,0,1.4,0,2.1,0,.4,0,.7.1,1,0,.1,0,.2.1.3,0,.1.2.2.3.2.6.2,1.2-.2,1.7-.6.5-.4.9-.7.9-1.3,0-.8-.5-1.3-.5-1.3,0,0,0,0-.1-.4,0-.2,0-.5,0-.7,0-.2,0-.4.1-.4,0,0,.1,0,.3,0,.2,0,.4,0,.6,0,.2,0,.5.1.7.2.2,0,.5,0,.7-.2.5-.3,1.4-1,1.8-1.6.2-.3.3-.5.6-.8,0,0,.1,0,.2,0-3.9-13.6,0-23.5-1.4-25-1.2,0-1.7,0-1.7,0h0Z"/>
    <g class="st17">
      <path class="st24" d="M19.6,38s5.8.2,9.1-5.3c3.3-5.5,2.4-9,2.4-9,0,0-1.7,0-1.7,0-.2,0-.3-.3-.5-.5-1-.9-2.3-1.1-3.4-1.3-.1,0,0,0,0,0,0,0,0,0-.2,0-.1,0-.3,0-.6,0-.5,0-1.2,0-2,0-1.6,0-3.7.2-5.9.6-2.1.4-4.3,1-6,2-1.7,1-2.9,2.6-3.1,4.6,0,0,0,0,0,0,0,0,0,0,0,.1,0,0,0,.2,0,.3,0,.2.2.5.5.8.6.6,1.8,1.5,4.3,2.4,0,0,.4.2.8.5.2.1.3.3.4.5,0,.1,0,.2,0,.4h0s0,.1,0,.2,0,.3,0,.5c0,.4.4,1.3,1.2,2,0,0,0,0,0,0s0,0,0,0c0,0,0,0,0,0,0,0,0,0,0,0,0,0,0,0,0,0,0,0,.1,0,.2,0,.1,0,.3,0,.5,0,.4,0,.7.3.9.6,0,.2.2.2.3.2.1,0,.3,0,.4,0,.3,0,.7,0,1,0,.3,0,.7,0,.9,0"/>
    </g>
    <path class="st23" d="M19.6,37.1s5.8.2,9.1-5.3c3.3-5.5,2.4-9,2.4-9,0,0-1.7,0-1.7,0-.2,0-.3-.3-.5-.5-1-.9-2.3-1.1-3.4-1.3-.1,0,0,0,0,0,0,0,0,0-.2,0-.1,0-.3,0-.6,0-.5,0-1.2,0-2,0-1.6,0-3.7.2-5.9.6-2.1.4-4.3,1-6,2-1.7,1-2.9,2.6-3.1,4.6,0,0,0,0,0,0,0,0,0,0,0,.1,0,0,0,.2,0,.3,0,.2.2.5.5.8.6.6,1.8,1.5,4.3,2.4,0,0,.4.2.8.5.2.1.3.3.4.5,0,.1,0,.2,0,.4h0s0,.1,0,.2c0,.1,0,.3,0,.5,0,.4.4,1.3,1.2,2,0,0,0,0,0,0,0,0,0,0,0,0,0,0,0,0,0,0,0,0,0,0,0,0,0,0,0,0,0,0,0,0,.1,0,.2,0,.1,0,.3,0,.5,0,.4,0,.7.3.9.6,0,.2.2.2.3.2.1,0,.3,0,.4,0,.3,0,.7,0,1,0,.3,0,.7,0,.9,0"/>
    <path class="st22" d="M36,22.7c5.6.4,8.8,11,9.6,14.4,0,0-.1,0-.2,0,0,.1,0,.3,0,.6s0,.4,0,.6c0,.2,0,.2.1.3h0s0,0,0,0c0,0,.3.4.5,1,.1.6,0,1.5-.8,2.5-.8.9-1.9,1.9-3.1,3-.6.6-1.1,1.1-1.5,1.6-.2.2-.4.4-.5.6-.1.2-.1.3-.1.3,0,0,.2,1.8.3,3.7,0,.9,0,1.4,0,2.1,0,.4,0,.7-.1,1,0,.1,0,.2-.1.3,0,.1-.2.2-.3.2-.6.2-1.2-.2-1.7-.6-.5-.4-.9-.7-.9-1.3,0-.8.5-1.3.5-1.3,0,0,0,0,.1-.4,0-.2,0-.5,0-.7,0-.2,0-.4-.1-.4,0,0-.1,0-.3,0-.2,0-.4,0-.6,0-.2,0-.5.1-.7.2-.2,0-.5,0-.7-.2-.5-.3-1.4-1-1.8-1.6-.2-.3-.3-.5-.6-.8,0,0-.1,0-.2,0,3.9-13.6,0-23.5,1.4-25,1.2,0,1.7,0,1.7,0Z"/>
    <g class="st17">
      <path class="st24" d="M46.2,38s-5.8.2-9.1-5.3c-3.3-5.5-2.4-9-2.4-9,0,0,1.7,0,1.7,0,.2,0,.3-.3.5-.5,1-.9,2.3-1.1,3.4-1.3.1,0,0,0,0,0,0,0,0,0,.2,0,.1,0,.3,0,.6,0,.5,0,1.2,0,2,0,1.6,0,3.7.2,5.9.6,2.1.4,4.3,1,6,2,1.7,1,2.9,2.6,3.1,4.6,0,0,0,0,0,0,0,0,0,0,0,.1,0,0,0,.2,0,.3,0,.2-.2.5-.5.8-.6.6-1.8,1.5-4.3,2.4,0,0-.4.2-.8.5-.2.1-.3.3-.4.5,0,.1,0,.2,0,.4h0s0,.1,0,.2,0,.3,0,.5c0,.4-.4,1.3-1.2,2,0,0,0,0,0,0s0,0,0,0c0,0,0,0,0,0,0,0,0,0,0,0,0,0,0,0,0,0,0,0-.1,0-.2,0-.1,0-.3,0-.5,0-.4,0-.7.3-.9.6,0,.2-.2.2-.3.2-.1,0-.3,0-.4,0-.3,0-.7,0-1,0-.3,0-.7,0-.9,0"/>
    </g>
    <path class="st23" d="M46.2,37.1s-5.8.2-9.1-5.3c-3.3-5.5-2.4-9-2.4-9,0,0,1.7,0,1.7,0,.2,0,.3-.3.5-.5,1-.9,2.3-1.1,3.4-1.3.1,0,0,0,0,0,0,0,0,0,.2,0,.1,0,.3,0,.6,0,.5,0,1.2,0,2,0,1.6,0,3.7.2,5.9.6,2.1.4,4.3,1,6,2,1.7,1,2.9,2.6,3.1,4.6,0,0,0,0,0,0,0,0,0,0,0,.1,0,0,0,.2,0,.3,0,.2-.2.5-.5.8-.6.6-1.8,1.5-4.3,2.4,0,0-.4.2-.8.5-.2.1-.3.3-.4.5,0,.1,0,.2,0,.4h0s0,.1,0,.2c0,.1,0,.3,0,.5,0,.4-.4,1.3-1.2,2,0,0,0,0,0,0,0,0,0,0,0,0,0,0,0,0,0,0,0,0,0,0,0,0,0,0,0,0,0,0,0,0-.1,0-.2,0-.1,0-.3,0-.5,0-.4,0-.7.3-.9.6,0,.2-.2.2-.3.2-.1,0-.3,0-.4,0-.3,0-.7,0-1,0-.3,0-.7,0-.9,0"/>
    <path class="st14" d="M26.3,10.1c-.5,0-.9.5-.9,1.1s.3.9.6,1c.6,2.2,1.9,4.3,3.7,5.9-.4.8-.6,1.8-.6,2.8,0,1.5.5,3,1.3,4v24.3c0,2.3,1,4,2.5,4s2.5-1.8,2.5-4v-24.4c.8-1,1.3-2.5,1.3-4,0-1-.2-2-.6-2.8,1.8-1.5,3.1-3.6,3.7-5.9.4-.1.6-.5.6-1s-.4-1.1-.9-1.1-.9.5-.9,1.1.1.6.3.8c-.5,2-1.7,3.8-3.3,5.2-.7-1.1-1.7-1.7-2.8-1.7-1,0-2,.6-2.7,1.7-1.6-1.4-2.8-3.2-3.3-5.2.2-.2.3-.5.3-.8,0-.6-.4-1.1-.9-1.1h0Z"/>
    <path class="st13" d="M24.7,21c-.5,0-1.2,0-2,0-1.6,0-3.7.2-5.9.6-2.1.4-4.3,1-6,2-1.7,1-2.9,2.6-3.1,4.6,0,0,0,0,0,0,0,0,0,0,0,.1,0,0,0,.2,0,.3,0,0,0,0,0,0,.3-1.7,1.5-3.2,3-4.1,1.7-1,3.8-1.6,6-2,2.1-.4,4.3-.5,5.9-.6.8,0,1.5,0,2,0,.2,0,.5,0,.6,0,.1,0,.1,0,.2,0,0,0-.1,0,0,0,1.1.2,2.4.3,3.4,1.3.3.2.4.5.5.5,0,0,1.7,0,1.7,0,0,0,0,.3,0,.7,0-1,0-1.6,0-1.6,0,0-1.7,0-1.7,0-.2,0-.3-.3-.5-.5-1-.9-2.3-1.1-3.4-1.3-.1,0,0,0,0,0,0,0,0,0-.2,0-.1,0-.3,0-.6,0ZM40.3,21c-1.1.2-2.4.3-3.4,1.3-.3.2-.4.5-.5.5,0,0-1.7,0-1.7,0,0,0-.1.6,0,1.6,0-.5,0-.7,0-.7,0,0,1.7,0,1.7,0,.2,0,.3-.3.5-.5,1-.9,2.3-1.1,3.4-1.3.1,0,0,0,0,0,0,0,0,0,.2,0,.1,0,.3,0,.6,0,.5,0,1.2,0,2,0,1.6,0,3.7.2,5.9.6,2.1.4,4.3,1,6,2,1.5.9,2.7,2.4,3,4.1,0,0,0,0,0,0,0-.1,0-.2,0-.3,0,0,0,0,0-.1,0,0,0,0,0,0-.2-2-1.4-3.6-3.1-4.6-1.7-1-3.8-1.6-6-2-2.1-.4-4.3-.5-5.9-.6-.8,0-1.5,0-2,0-.2,0-.5,0-.6,0-.1,0-.1,0-.2,0,0,0,.1,0,0,0ZM13.8,33.5c0,.1,0,.2,0,.3,0,0,0,.1,0,.2,0,0,0,0,0,0h0c0-.2,0-.2,0-.4,0,0,0,0,0-.1ZM52,33.5s0,0,0,.1c0,.1,0,.2,0,.4h0s0,0,0,0c0,0,0-.1,0-.2,0-.1,0-.2,0-.3Z"/>
    <path class="st1" d="M26.3,9.2c-.5,0-.9.5-.9,1.1s.3.9.6,1c.6,2.2,1.9,4.3,3.7,5.9-.4.8-.6,1.8-.6,2.8,0,1.5.5,3,1.3,4v24.3c0,2.3,1,4,2.5,4s2.5-1.8,2.5-4v-24.4c.8-1,1.3-2.5,1.3-4,0-1-.2-2-.6-2.8,1.8-1.5,3.1-3.6,3.7-5.9.4-.1.6-.5.6-1s-.4-1.1-.9-1.1-.9.5-.9,1.1.1.6.3.8c-.5,2-1.7,3.8-3.3,5.2-.7-1.1-1.7-1.7-2.8-1.7-1,0-2,.6-2.7,1.7-1.6-1.4-2.8-3.2-3.3-5.2.2-.2.3-.5.3-.8,0-.6-.4-1.1-.9-1.1h0Z"/>
  </g>
  <g class="st7">
    <path class="st3" d="M19.3,1.1h25.4c10.5,0,19.1,8.6,19.1,19.2v25.5c0,10.6-8.5,19.2-19.1,19.2h-25.4C8.8,65,.2,56.4.2,45.8v-25.5C.2,9.7,8.8,1.1,19.3,1.1Z"/>
    <path class="st6" d="M19.3,0h25.4c10.5,0,19.1,8.6,19.1,19.2v25.5c0,10.6-8.5,19.2-19.1,19.2h-25.4C8.8,63.9.2,55.3.2,44.7v-25.5C.2,8.6,8.8,0,19.3,0Z"/>
    <path class="st12" d="M32,10.3c-12.5,0-22.7,10.2-22.7,22.8,0,12.6,10.2,22.8,22.7,22.8,4.1,0,8.1-1.1,11.6-3.3,1.6,1.7,3,3.5,4.2,5.4l5.5-3.4c-1.3-2.2-2.9-4.2-4.7-6.1,3.9-4.2,6-9.7,6-15.4,0-12.6-10.2-22.8-22.7-22.8ZM32,18.4c7.2,0,13,6.6,13,14.7h0c0,3.5-1.1,6.8-3.1,9.5-4.5-3.1-9.4-5.1-14.4-4.7l.5,6.5c2.3-.2,5.3.7,8.4,2.5-1.4.6-2.9.9-4.4.9-7.2,0-13-6.6-13-14.7,0-8.1,5.8-14.7,13-14.7h0Z"/>
    <path class="st31" d="M32,9.1c-12.5,0-22.7,10.2-22.7,22.8h0c0,12.6,10.2,22.8,22.7,22.8h0c12.5,0,22.7-10.2,22.7-22.8h0c0-12.6-10.2-22.8-22.7-22.8h0ZM32,17.3c7.2,0,13,6.6,13,14.7h0c0,8.1-5.8,14.7-13,14.7h0c-7.2,0-13-6.6-13-14.7h0c0-8.1,5.8-14.7,13-14.7h0Z"/>
    <path class="st21" d="M27.8,40c7.8-.6,17.6,6.7,22.9,15.3"/>
    <path class="st8" d="M19.3,0C8.7,0,.2,8.5.2,19.2v1.1C.2,9.7,8.7,1.1,19.3,1.1h25.4c10.6,0,19.1,8.5,19.1,19.2v-1.1C63.8,8.5,55.3,0,44.7,0h-25.4Z"/>
  </g>
  <g class="st7">
    <path class="st3" d="M64,31.8c-.5,17.3-14.7,31-32,31.1-17.1,0-31.2-13.5-31.9-30.7,0,.3,0,.6,0,.9,0,17.7,14.3,32,32,32s32-14.3,32-32c0-.4,0-.9,0-1.3Z"/>
    <ellipse class="st2" cx="32" cy="32" rx="32" ry="32"/>
    <path class="st14" d="M54.9,33.2h0c0-12.6-10.2-22.9-22.9-22.9h0c-12.6,0-22.9,10.2-22.9,22.9h0c0,12.6,10.2,22.9,22.9,22.9h0c12.6,0,22.9-10.2,22.9-22.9Z"/>
    <path class="st0" d="M54.9,32h0c0-12.6-10.2-22.9-22.9-22.9h0c-12.6,0-22.9,10.2-22.9,22.9h0c0,12.6,10.2,22.9,22.9,22.9h0c12.6,0,22.9-10.2,22.9-22.9Z"/>
    <g class="st14">
      <path d="M27.4,21.7v12c-.7-.4-1.5-.6-2.3-.6-2.5,0-4.6,2-4.6,4.6s2,4.6,4.6,4.6,4.6-2,4.6-4.6v-11.4h9.1v7.5c-.7-.4-1.5-.6-2.3-.6-2.5,0-4.6,2-4.6,4.6s2,4.6,4.6,4.6,4.6-2,4.6-4.6v-16s-1.1,0-1.1,0h-12.6Z"/>
    </g>
    <g class="st11">
      <path class="st25" d="M27.4,20.6v12c-.7-.4-1.5-.6-2.3-.6-2.5,0-4.6,2-4.6,4.6s2,4.6,4.6,4.6,4.6-2,4.6-4.6v-11.4h9.1v7.5c-.7-.4-1.5-.6-2.3-.6-2.5,0-4.6,2-4.6,4.6s2,4.6,4.6,4.6,4.6-2,4.6-4.6v-16s-1.1,0-1.1,0h-12.6Z"/>
    </g>
    <path class="st8" d="M32,0C14.3,0,0,14.3,0,32c0,.2,0,.4,0,.6C.3,15.1,14.6,1.2,32,1.1h0c17.4,0,31.7,14,32,31.4,0-.2,0-.4,0-.6C64,14.3,49.7,0,32,0h0Z"/>
    <path class="st15" d="M32,9.1c-12.7,0-22.9,10.2-22.9,22.9s0,.4,0,.6c.3-12.4,10.4-22.3,22.8-22.3s22.5,9.9,22.8,22.3c0-.2,0-.4,0-.6,0-12.7-10.2-22.9-22.9-22.9Z"/>
  </g>
  <g>
    <path class="st3" d="M59.4,1.5s4.6,0,4.6,4.5v54.3c0,4.5-4.6,4.5-4.6,4.5H22.9L0,42.2V6C0,1.5,4.6,1.5,4.6,1.5h54.9Z"/>
    <path class="st5" d="M59.4.3s4.6,0,4.6,4.5v54.3c0,4.5-4.6,4.5-4.6,4.5H22.9L0,41.1V4.8C0,.3,4.6.3,4.6.3h54.9Z"/>
    <path class="st29" d="M0,41.1h19.4c1.9,0,3.4,1.5,3.4,3.4v19.2L0,41.1Z"/>
    <path class="st16" d="M0,41.1l1.1,1.1h18.3c1.9,0,3.4,1.5,3.4,3.4v-1.1c0-1.9-1.5-3.4-3.4-3.4H0Z"/>
    <path class="st14" d="M32,13.9c-.3,0-.7,0-1,0,0,0-.1,0-.2,0-5.8.6-10.2,5.5-10.2,11.2,0,0,0,0,0,0-3.9.6-6.9,3.9-6.9,7.8,0,0,0,.1,0,.2,0,0,0,.1,0,.2,0,4.2,3.4,7.5,7.6,7.5h19.8c5,0,9.1-4.1,9.1-9.1,0-4.2-2.9-7.8-7-8.8-.9-4.8-4.8-8.5-9.7-9.2,0,0,0,0-.1,0-.2,0-.5,0-.7,0-.2,0-.5,0-.7,0ZM32,17.3c.1,0,.3,0,.4,0,0,0,0,0,0,0,.2,0,.3,0,.5,0,0,0,0,0,0,0,0,0,0,0,0,0,0,0,0,0,0,0,3.4.5,6.2,3.1,6.8,6.4.2,1.3,1.3,2.4,2.6,2.7,2.6.6,4.4,2.9,4.4,5.5,0,3.2-2.5,5.7-5.7,5.7h-19.8c-2.4,0-4.2-1.8-4.2-4.1h0s0,0,0,0c0,0,0-.2,0-.2,0,0,0,0,0,0h0c0-2.3,1.6-4.2,3.9-4.5,1.7-.2,3-1.7,2.9-3.4h0c0-4.1,3.1-7.4,7.1-7.9,0,0,0,0,0,0,0,0,0,0,.1,0,.2,0,.4,0,.6,0Z"/>
    <path class="st30" d="M32,12.8c-.3,0-.7,0-1,0,0,0-.1,0-.2,0-5.8.6-10.2,5.5-10.2,11.2,0,0,0,0,0,0-3.9.6-6.9,3.9-6.9,7.8,0,0,0,.1,0,.2,0,0,0,.1,0,.2,0,4.2,3.4,7.5,7.6,7.5h19.8c5,0,9.1-4.1,9.1-9.1,0-4.2-2.9-7.8-7-8.8-.9-4.8-4.8-8.5-9.7-9.2,0,0,0,0-.1,0-.2,0-.5,0-.7,0-.2,0-.5,0-.7,0ZM32,16.2c.1,0,.3,0,.4,0,0,0,0,0,0,0,.2,0,.3,0,.5,0,0,0,0,0,0,0,0,0,0,0,0,0,0,0,0,0,0,0,3.4.5,6.2,3.1,6.8,6.4.2,1.3,1.3,2.4,2.6,2.7,2.6.6,4.4,2.9,4.4,5.5,0,3.2-2.5,5.7-5.7,5.7h-19.8c-2.4,0-4.2-1.8-4.2-4.1h0s0,0,0,0c0,0,0-.2,0-.2,0,0,0,0,0,0h0c0-2.3,1.6-4.2,3.9-4.5,1.7-.2,3-1.7,2.9-3.4h0c0-4.1,3.1-7.4,7.1-7.9,0,0,0,0,0,0,0,0,0,0,.1,0,.2,0,.4,0,.6,0Z"/>
    <path class="st4" d="M4.6.3S0,.3,0,4.8v1.1C0,1.5,4.6,1.5,4.6,1.5h54.9s4.6,0,4.6,4.5v-1.1c0-4.5-4.6-4.5-4.6-4.5H4.6Z"/>
  </g>
</svg>