<?xml version="1.0" standalone="no"?><!DOCTYPE svg PUBLIC "-//W3C//DTD SVG 1.1//EN" "http://www.w3.org/Graphics/SVG/1.1/DTD/svg11.dtd"><svg t="1731105984034" class="icon" viewBox="0 0 1024 1024" version="1.1" xmlns="http://www.w3.org/2000/svg" p-id="45046" xmlns:xlink="http://www.w3.org/1999/xlink" width="22" height="22"><path d="M857.615214 0H165.683785A165.946514 165.946514 0 0 0 0.000585 166.385371v691.229258A166.385371 166.385371 0 0 0 166.005614 1024h691.989943A166.385371 166.385371 0 0 0 1024.000585 857.614629V166.385371A166.765714 166.765714 0 0 0 857.615214 0z" fill="#ffffff" p-id="45047"></path><path d="M519.197842 912.764343a300.529371 300.529371 0 0 1-181.979428-56.466286 250.002286 250.002286 0 0 0-67.291429 27.969829c-15.096686 10.357029-13.194971 20.918857-10.4448 25.161143 11.849143 18.695314 204.127086 11.966171 259.627886 6.144z" fill="#FAAD08" p-id="45048"></path><path d="M504.832585 912.764343a300.821943 300.821943 0 0 0 182.037943-56.466286 250.002286 250.002286 0 0 1 67.291429 27.969829c15.038171 10.357029 13.136457 20.918857 10.4448 25.161143-11.907657 18.695314-204.156343 11.966171-259.657143 6.144v-2.925715z" fill="#FAAD08" p-id="45049"></path><path d="M505.973614 478.090971a1021.805714 1021.805714 0 0 0 246.081828-31.802514 31.5392 31.5392 0 0 0 11.702857-5.851428c0-1.082514 0.468114-18.870857 0.468115-28.028343 0-154.770286-74.986057-310.125714-258.779429-310.125715S246.638299 257.755429 246.638299 412.408686c0 9.157486 0.468114 26.799543 0.526629 28.028343a22.001371 22.001371 0 0 0 9.479314 5.090742 1016.890514 1016.890514 0 0 0 248.363886 32.446172z m326.685257 130.808686c-7.285029-23.405714-17.261714-50.878171-27.384686-77.2096a29.754514 29.754514 0 0 0-8.777143 0 1068.4416 1068.4416 0 0 1-283.794285 42.042514h-0.848458a1060.0448 1060.0448 0 0 1-282.594742-41.603657 40.082286 40.082286 0 0 0-10.24-0.585143c-10.122971 26.331429-20.099657 53.599086-27.384686 77.2096-34.874514 111.996343-23.581257 158.368914-15.008914 159.392915 18.490514 2.2528 71.767771-84.319086 71.767771-84.319086 0 87.976229 79.491657 222.968686 261.441829 224.256h4.827428c182.125714-1.287314 261.441829-136.279771 261.441829-224.256 0 0 53.569829 86.571886 71.767771 84.319086 8.572343-1.024 19.8656-47.396571-15.008914-159.392915" p-id="45050"></path><path d="M449.097728 336.544914c-25.278171 1.141029-46.811429-27.267657-48.186514-63.312457s17.934629-66.238171 43.095771-67.291428 46.811429 26.945829 48.186514 63.312457-17.993143 66.238171-43.095771 67.291428m186.806857-63.312457c-1.345829 36.0448-22.908343 64.658286-48.186514 63.312457s-44.617143-31.246629-43.095772-67.291428 22.966857-64.658286 48.186515-63.312457 44.617143 31.246629 43.095771 67.291428" fill="#FFFFFF" p-id="45051"></path><path d="M674.992128 382.654171c-6.641371-16.1792-73.376914-33.733486-156.2624-33.733485h-0.906971c-82.592914 0-149.357714 17.788343-156.2624 33.733485a7.694629 7.694629 0 0 0-0.497372 2.2528 6.026971 6.026971 0 0 0 0.906972 2.925715 272.764343 272.764343 0 0 0 155.560228 52.487314h0.906972a273.495771 273.495771 0 0 0 155.560228-52.487314 6.202514 6.202514 0 0 0 0.906972-2.925715 6.056229 6.056229 0 0 0-0.497372-2.2528" fill="#FAAD08" p-id="45052"></path><path d="M479.115557 281.248914a25.102629 25.102629 0 0 1-17.408 28.554972c-10.766629 1.609143-20.48-9.098971-21.562515-23.405715a25.161143 25.161143 0 0 1 17.554286-28.554971c10.766629-1.609143 20.48 9.098971 21.562514 23.405714m66.179657 7.226515a46.050743 46.050743 0 0 1 50.322286-16.149943 26.945829 26.945829 0 0 1 13.312 5.851428 6.846171 6.846171 0 0 1 0.321829 6.9632 7.548343 7.548343 0 0 1-10.386286 4.739657 37.127314 37.127314 0 0 0-45.143771 5.851429 4.973714 4.973714 0 0 1-6.407315 0 5.383314 5.383314 0 0 1-1.989485-7.314286" p-id="45053"></path><path d="M512.439442 575.429486h-0.848457a1010.366171 1010.366171 0 0 1-194.852571-19.836343 525.5168 525.5168 0 0 0-6.319543 123.2896c7.606857 124.3136 82.914743 202.488686 199.387428 203.629714h4.739658c116.297143-1.141029 191.663543-79.316114 199.387428-203.629714a525.897143 525.897143 0 0 0-6.261028-123.2896 1011.331657 1011.331657 0 0 1-194.911086 19.836343" fill="#FFFFFF" p-id="45054"></path><path d="M349.038299 570.192457v124.489143a411.296914 411.296914 0 0 0 117.672229 3.510857v-114.834286a1102.613943 1102.613943 0 0 1-117.672229-13.136457" fill="#EB1C26" p-id="45055"></path><path d="M767.444699 439.968914a911.798857 911.798857 0 0 1-255.005257 37.712457h-0.848457a912.822857 912.822857 0 0 1-255.005257-37.712457l-36.717714 96.987429a1007.294171 1007.294171 0 0 0 291.722971 47.045486h0.848457a1007.0016 1007.0016 0 0 0 291.722972-47.045486z" fill="#EB1C26" p-id="45056"></path></svg>
