<?xml version="1.0" encoding="UTF-8"?>
<svg id="_图层_1" xmlns="http://www.w3.org/2000/svg" version="1.1" viewBox="0 0 64 64" width="22" height="22">
  <!-- Generator: Adobe Illustrator 29.0.1, SVG Export Plug-In . SVG Version: 2.1.0 Build 192)  -->
  <defs>
    <style>
      .st0 {
        fill: #00abb3;
      }

      .st0, .st1, .st2, .st3, .st4, .st5, .st6, .st7 {
        display: none;
      }

      .st1, .st2, .st8, .st9, .st10, .st11, .st6 {
        isolation: isolate;
      }

      .st1, .st8, .st10, .st11, .st6 {
        opacity: .2;
      }

      .st2, .st12, .st11, .st6 {
        fill: #fff;
      }

      .st2, .st9 {
        opacity: .1;
      }

      .st8 {
        fill-rule: evenodd;
      }

      .st13 {
        fill: #8561c5;
      }

      .st3 {
        fill: #c2352a;
      }

      .st14 {
        fill: #37b245;
      }

      .st5 {
        fill: #2095f2;
      }

      .st15 {
        fill: #00ed1a;
      }

      .st16 {
        fill: #cd8652;
      }

      .st17 {
        fill: #e4e4e4;
      }

      .st18, .st7 {
        fill: #0093d9;
      }
    </style>
  </defs>
  <path class="st18" d="M50.5,64H13.9c-7.6,0-13.9-6.2-13.9-13.7V13.7C0,6.2,6.3,0,13.8,0h36.6c7.5,0,13.7,6.2,13.7,13.7v36.6c0,7.5-6.2,13.7-13.7,13.7h.1Z"/>
  <g class="st4">
    <path class="st3" d="M3.2,0h53c1.8,0,3.2,1.4,3.2,3.2v53.8c0,1.8-1.4,3.2-3.2,3.2H3.2c-1.8,0-3.2-1.4-3.2-3.2V3.2C0,1.4,1.4,0,3.2,0Z"/>
    <path class="st10" d="M10.8,12l10.4,10.6h16.9v17.1l10.6,10.7V12H10.8ZM21.2,25.1l-10.6,10.5v15h15.6l10.5-10.8h-15.5v-14.7Z"/>
    <path class="st2" d="M3.2,0C1.4,0,0,1.4,0,3.2v1.1C0,2.5,1.4,1.1,3.2,1.1h53c1.8,0,3.2,1.4,3.2,3.2v-1.1c0-1.8-1.4-3.2-3.2-3.2H3.2Z"/>
    <path class="st12" d="M10.8,10.9l10.4,10.6h16.9v17.1l10.6,10.7V10.9H10.8ZM21.2,24l-10.6,10.5v15h15.6l10.5-10.8h-15.5v-14.7Z"/>
    <path class="st1" d="M0,57v1.1c0,1.8,1.4,3.2,3.2,3.2h53c1.8,0,3.2-1.4,3.2-3.2v-1.1c0,1.8-1.4,3.2-3.2,3.2H3.2c-1.8,0-3.2-1.4-3.2-3.2Z"/>
    <ellipse class="st13" cx="46.6" cy="45.2" rx="16.9" ry="17.2"/>
    <path class="st12" d="M44.5,36.6l-.2,2.3c-.7.3-1.4.7-1.9,1.1l-2-1-2.1,3.7,1.8,1.3c0,.4,0,.8-.1,1.1,0,.4,0,.8,0,1.1l-1.8,1.3,2.1,3.7,2-1c.6.5,1.2.9,2,1.1l.2,2.3h4.2l.2-2.3c.7-.3,1.4-.7,1.9-1.1l2,1,2.1-3.7-1.8-1.3c0-.4,0-.8.1-1.1,0-.4,0-.8,0-1.1l1.8-1.3-2.1-3.7-2,1c-.6-.5-1.2-.9-2-1.1l-.2-2.3h-4.2,0ZM46.6,42.7c1.3,0,2.4,1.1,2.4,2.5h0c0,1.4-1.1,2.5-2.4,2.5h0c-1.3,0-2.4-1.1-2.4-2.5h0c0-1.4,1.1-2.5,2.4-2.5h0Z"/>
    <path class="st8" d="M29.7,45.7c0,.2,0,.4,0,.5,0,9.5,7.6,17.2,16.9,17.2s16.9-7.7,16.9-17.2c0-.2,0-.4,0-.5-.3,9.3-7.8,16.7-16.9,16.7-9.1,0-16.6-7.4-16.9-16.7Z"/>
  </g>
  <g class="st4">
    <path class="st10" d="M52.5,6.6c-7.2-.4-13.6,3-18,7.9-3.1,3.3-5.1,6.9-6.8,10.3-3.8-3.9-8.8-6.8-14.7-7.2-.3,0-.6,0-.9,0,.9,0-.8-.2-2.8,0-1,0-2.4,0-4.4,1.7-1,.8-2,2.3-2.3,3.8-.3,1.5,0,2.8.3,3.7.4,1,1,1.9,1.9,2.6.3.3,1.2,1.5,2.4,3.4,1.2,1.9,2.9,4.7,6.3,6.5,2.1,1.2,4.4,1.3,6.6.9-.2,2.3-.5,4.6-1.3,7.1l.2-.6c-.8,1.9-1.3,3.9-.8,6.5.5,2.7,3.4,6.2,6.8,6.9,1.8.4,4.4.6,7.2-1.2,0,0,0,0,0,0,2.9-2,3.9-5.7,3.9-7.8,0-2-.3-3.3-.3-3.3,0,0,0-.2,0-.3-.3-4.1.4-8,1.9-11.2.6,0,.6,0,1.4-.1,2.6-.4,5.7-.9,8.9-3.3,4.9-3.1,6.7-7.9,7.7-11.7.6-3.1,2.1-3.9,2.5-7.1.3-2.3-.9-4.8-1.9-5.8-1.1-1.2-2.5-1.9-4.1-1.9ZM24,48.2c0,.1,0,0,0,.2,0,0,0,0,0,0v-.3Z"/>
    <path class="st17" d="M52.5,5.6c-7.2-.4-13.6,3-18,7.9-3.1,3.3-5.1,6.9-6.8,10.3-3.8-3.9-8.8-6.8-14.7-7.2-.3,0-.6,0-.9,0,.9,0-.8-.2-2.8,0-1,0-2.4,0-4.4,1.7-1,.8-2,2.3-2.3,3.8-.3,1.5,0,2.8.3,3.7.4,1,1,1.9,1.9,2.6.3.3,1.2,1.5,2.4,3.4,1.2,1.9,2.9,4.7,6.3,6.5,2.1,1.2,4.4,1.3,6.6.9-.2,2.3-.5,4.6-1.3,7.1l.2-.6c-.8,1.9-1.3,3.9-.8,6.5.5,2.7,3.4,6.2,6.8,6.9,1.8.4,4.4.6,7.2-1.2,0,0,0,0,0,0,2.9-2,3.9-5.7,3.9-7.8,0-2-.3-3.3-.3-3.3,0,0,0-.2,0-.3-.3-4.1.4-8,1.9-11.2.6,0,.6,0,1.4-.1,2.6-.4,5.7-.9,8.9-3.3,4.9-3.1,6.7-7.9,7.7-11.7.6-3.1,2.1-3.9,2.5-7.1.3-2.3-.9-4.8-1.9-5.8-1.1-1.2-2.5-1.9-4.1-1.9ZM24,47.2c0,.1,0,0,0,.2,0,0,0,0,0,0v-.3Z"/>
    <path class="st9" d="M26.3,54.5c-2.5-.5-2.4-3.4-1.6-5.3,1.1-3.7,2-7.4,1.9-11.3-.1-2-1.3-5.4-2.6-6.1-2,2.7-5,3.8-7.6,2.4-3.6-1.9-4.7-6.7-7.8-9.2-.7-1.9,2.8-1.3,4-1.3,7.5.6,14,6.9,16,14,3.3-6.5,5.3-13.7,10.3-19.1,3.3-3.8,8.2-6.2,13.3-5.9,1.3,1.4-1,1.6-1.4,4.7-1,4-2,8.7-5.9,11-3.2,2.5-10.4,2.6-10.4,2.6,0,0-.9-.2-1.4,1.8-2.6,4.7-3.4,10.2-3,15.5,0,2,1,4.7-1,6-.8.5-1.8.5-2.8.3Z"/>
    <path class="st14" d="M26.3,53.5c-2.5-.5-2.4-3.4-1.6-5.3,1.1-3.7,2-7.4,1.9-11.3-.1-2-1.3-5.4-2.6-6.1-2,2.7-5,3.8-7.6,2.4-3.6-1.9-4.7-6.7-7.8-9.2-.7-1.9,2.8-1.3,4-1.3,7.5.6,14,6.9,16,14,3.3-6.5,5.3-13.7,10.3-19.1,3.3-3.8,8.2-6.2,13.3-5.9,1.3,1.4-1,1.6-1.4,4.7-1,4-2,8.7-5.9,11-3.2,2.5-10.4,2.6-10.4,2.6,0,0-.9-.2-1.4,1.8-2.6,4.7-3.4,10.2-3,15.5,0,2,1,4.7-1,6-.8.5-1.8.5-2.8.3Z"/>
    <path class="st15" d="M51.2,11.6c-4.7,0-9.2,2.4-12.3,6-3.2,3.5-5.2,7.7-7.1,12,3.4.7,6.8.2,11.7-3.7,2-1.6,3.8-4.2,5.1-7.2.4-.9,1.7-2.6,2.8-4.2.3-.5.5-.9.8-1.2.2-.3.4-.6.5-.9,0-.3,0-.5-.4-.9-.3,0-.6,0-.9,0h0ZM10.6,22.6c-1.2,0-2.4.2-2,1.4.4.4.9.8,1.2,1.2,2,1.3,4.4,2.7,6.2,3.7,1.8.9,3.6,1.7,5.8,2,0,0,2.5.3,4.2.1-3-4.5-8-8-13.5-8.4-.4,0-1.2,0-1.9,0h0ZM26.5,36.5c0,.1,0,.3,0,.4,0,3.8-.8,7.6-1.9,11.3-.8,1.9-.9,4.8,1.6,5.3.2,0,.3,0,.5,0,1.7-2.5,1.1-5.6,1.1-8.4,0-3.3-.5-6.3-1.3-8.7Z"/>
    <path class="st11" d="M51.1,5.6c-6.6,0-12.6,3.3-16.7,7.9-3.1,3.3-5.1,6.9-6.8,10.3-3.8-3.9-8.8-6.8-14.7-7.2-.3,0-.6,0-.9,0,.9,0-.8-.2-2.8,0-1,0-2.4,0-4.4,1.7-1,.8-2,2.3-2.3,3.8-.1.6-.1,1.2,0,1.8,0-.3,0-.5,0-.8.3-1.5,1.3-3,2.3-3.8,2-1.7,3.4-1.7,4.4-1.7,2-.2,3.7,0,2.8,0,.3,0,.6,0,.9,0,5.9.5,10.8,3.3,14.7,7.2,1.6-3.5,3.7-7,6.8-10.3,4.1-4.7,10-7.9,16.7-7.9.4,0,.9,0,1.3,0,1.6,0,3.1.8,4.1,1.9.8.9,1.7,2.7,1.9,4.5.2-2.2-1-4.5-1.9-5.5-1.1-1.2-2.5-1.9-4.1-1.9-.4,0-.9,0-1.3,0ZM20.2,41.4c0,0-.2,0-.2,0-.2,1.6-.5,3.2-1,4.9-.5,1.4-.9,2.8-.8,4.5,0-1.3.4-2.5.8-3.5.5-1.7.8-3.3,1-4.9,0,0,0,0,.1,0,0-.3,0-.7.1-1ZM36,46.1c0,.5,0,1.1,0,1.7,0-.2,0-.4,0-.7,0,.2,0,.5,0,.7,0,0,0,.2,0,.3,0,0,.2,1.1.2,2.7,0-.1,0-.3,0-.4,0-2-.3-3.3-.3-3.3,0,0,0-.2,0-.3,0-.2,0-.5,0-.7ZM24,49.2v.3s0,0,0,0c0-.1,0,0,0-.2Z"/>
  </g>
  <g class="st4">
    <path class="st1" d="M0,60.6v1.1c0,1.9,1.5,3.4,3.4,3.4h57.1c1.9,0,3.4-1.5,3.4-3.4v-1.1c0,1.9-1.5,3.4-3.4,3.4H3.4c-1.9,0-3.4-1.5-3.4-3.4Z"/>
    <path class="st5" d="M3.4,0h57.1c1.9,0,3.4,1.5,3.4,3.4v57.2c0,1.9-1.5,3.4-3.4,3.4H3.4C1.5,64,0,62.5,0,60.6V3.4C0,1.5,1.5,0,3.4,0Z"/>
    <path class="st6" d="M3.4,0C1.5,0,0,1.5,0,3.4v1.1C0,2.7,1.5,1.1,3.4,1.1h57.1c1.9,0,3.4,1.5,3.4,3.4v-1.1c0-1.9-1.5-3.4-3.4-3.4H3.4Z"/>
    <path class="st10" d="M43.7,8c-5.2,0-15.9,2.2-17.1,3.6-.3.4-.4.9,0,1.8.7,2,1.1,5.5-.4,15.4-1.8,11.6-2.5,15.6-2.9,16-.2.2-1,0-1.9-.5-2.2-1-5.7-1-7.3,0-4.9,3-2.7,9.3,4,11.5h0c.5.2,2,.3,3.2.2,1.8,0,2.7-.3,4.1-1.2,2.7-1.7,3.9-4.5,5.4-11.9.6-3.2,1.2-6.2,1.3-6.3.1-.1.9.8,1.6,1.7,4.9,6.1,8,8.6,11.5,8.6s1.8-.1,1.8-.4-.9-1.2-1.9-2.2c-3-3.1-4.3-7.7-7.3-11.1l1.4-.8c9.7-6,15.4-14.9,12.8-20.1-1.5-3-3.9-4.3-8.2-4.3ZM42,16c1.8,0,3.4.2,4.2.6.8.4.9.6.3.4-.7-.2-1,.1-2,1.5-1.5,2.1-4,4.4-6.9,6.4-3.4,2.3-4.2,2.8-4.4,2.5-.3-.4,1.3-9.5,1.7-10,.7-.8,4.2-1.3,7.2-1.3Z"/>
    <path class="st12" d="M43.7,6.9c-5.2,0-15.9,2.2-17.1,3.6-.3.4-.4.9,0,1.8.7,2,1.1,5.5-.4,15.4-1.8,11.6-2.5,15.6-2.9,16-.2.2-1,0-1.9-.5-2.2-1-5.7-1-7.3,0-4.9,3-2.7,9.3,4,11.5h0c.5.2,2,.3,3.2.2,1.8,0,2.7-.3,4.1-1.2,2.7-1.7,3.9-4.5,5.4-11.9.6-3.2,1.2-6.2,1.3-6.3.1-.1.9.8,1.6,1.7,4.9,6.1,8,8.6,11.5,8.6s1.8-.1,1.8-.4-.9-1.2-1.9-2.2c-3-3.1-4.3-7.7-7.3-11.1l1.4-.8c9.7-6,15.4-14.9,12.8-20.1-1.5-3-3.9-4.3-8.2-4.3ZM42,14.9c1.8,0,3.4.2,4.2.6.8.4.9.6.3.4-.7-.2-1,.1-2,1.5-1.5,2.1-4,4.4-6.9,6.4-3.4,2.3-4.2,2.8-4.4,2.5-.3-.4,1.3-9.5,1.7-10,.7-.8,4.2-1.3,7.2-1.3Z"/>
  </g>
  <g class="st4">
    <path class="st16" d="M46,19.2c.9-.8,2.2-1,3.1-.5l.2-.2c.6-1.3,1.6-2.7,3-4,1.4-1.3,2.9-2.2,4.3-2.8,0,0,.3-.3.6-.6.3-.3.1-1-.5-1.5l-3.5-3.2c-.6-.5-1.3-.7-1.7-.4l-.6.6c-.6,1.3-1.6,2.7-3,4-1.4,1.3-3,2.3-4.4,2.8h-.1c.6,1,.4,2.2-.5,3.1l-9.3,8.5c-.4,0-1.1-.3-1.9-1.6-1.5-2.2-5.2-3.5-8.1,1.3s-.5,5.6-9,6.5h0c-3,.2-5.8,1.2-8,3.2-5.1,4.7-4.5,12.9,1.3,18.4,5.9,5.4,14.8,5.9,19.9,1.2,0,0,.2-.2.3-.3h0s0,0,0,0c.4-.4.8-.9,1.1-1.3,1.3-1.7,3.2-4.8,2.8-8.1-.6-4.9,4.3-4.7,6.4-5.9,2.1-1.2,2.8-2.3,2.9-3.5,0,0-2.5,1.6-4.7-.5-1.8-1.7-1-4.5-.2-6l9.5-9.1h0Z"/>
    <path class="st11" d="M51.9,5.9c-.1,0-.2,0-.3.1l-.6.6c-.6,1.3-1.6,2.7-3,4-1.4,1.3-3,2.3-4.4,2.8h-.1c.1.3.2.5.3.8,1.3-.5,2.8-1.4,4.2-2.7,1.4-1.3,2.4-2.7,3-4l.6-.6c.3-.3,1.1-.1,1.7.4l3.5,3.2c.2.2.4.4.5.7.3-.3,0-1-.5-1.5l-3.5-3.2c-.4-.4-1-.6-1.3-.6ZM43.8,15.1c0,.5-.4,1-.8,1.5l-9.3,8.5c-.4,0-1-.3-1.9-1.6-1.5-2.2-5.2-3.5-8.1,1.3-3,4.8-.5,5.6-9,6.5h0c-3,.2-5.8,1.2-8,3.2-2.4,2.2-3.6,5.3-3.5,8.4.1-2.8,1.3-5.5,3.5-7.5,2.2-2,5-3.1,8-3.2h0c8.5-.9,6-1.7,9-6.5,3-4.8,6.6-3.5,8.1-1.3.9,1.2,1.5,1.5,1.9,1.6l9.3-8.5c.7-.7.9-1.6.8-2.3ZM35.6,32.1c0,1.1.1,2.3,1.1,3.2,2,1.8,4,.9,4.5.6.1-.3.2-.6.2-1,0,0-2.5,1.6-4.7-.5-.7-.6-1-1.5-1.1-2.3ZM32.1,43.9c0,.4,0,.8,0,1.2,0,.2,0,.3,0,.5,0-.4,0-.9,0-1.3,0-.1,0-.3,0-.4Z"/>
    <path class="st10" d="M57.2,11.2s0,0,0,0c-.3.3-.6.6-.6.6-1.4.5-2.9,1.5-4.3,2.8-1.4,1.3-2.4,2.7-3,4l-.2.2c-.9-.4-2.2-.3-3.1.5l-9.5,9.1c-.5.9-1,2.4-.8,3.7,0-1.1.5-2.1.8-2.9l9.5-9.1c.9-.8,2.2-1,3.1-.5l.2-.2c.6-1.3,1.6-2.7,3-4,1.4-1.3,2.9-2.2,4.3-2.8,0,0,.3-.3.6-.6.2-.2.2-.5,0-.9h0ZM43.8,14.2c0,0-.1,0-.2,0h-.1c.1.3.3.6.3.8,0-.3,0-.6,0-.9h0ZM41.4,35.7s-.1,0-.2.1c-.3.9-1.1,1.7-2.6,2.6-2,1.2-6.8,1-6.4,5.5.3-3.6,4.6-3.6,6.4-4.7,2.1-1.2,2.8-2.3,2.9-3.5h0ZM3.2,42.9c-.2,3.7,1.4,7.7,4.8,10.8,5.9,5.4,14.8,5.9,19.9,1.2,0,0,.2-.2.3-.3h0s0,0,0,0c.4-.4.8-.9,1.1-1.3,1.3-1.6,3-4.5,2.8-7.6-.1,2.7-1.7,5.3-2.8,6.7-.3.5-.7.9-1.1,1.3,0,0,0,0,0,0h0c0,0-.2.2-.3.3-5.1,4.7-14,4.2-19.9-1.2-3.1-2.8-4.7-6.5-4.8-10h0Z"/>
  </g>
  <g class="st4">
    <ellipse class="st1" cx="31.9" cy="33.2" rx="31.9" ry="31.8"/>
    <ellipse class="st0" cx="31.9" cy="32.1" rx="31.9" ry="31.8"/>
    <path class="st10" d="M27.2,12.8c-6.3,0-11.2,4.7-11.2,11v2.5c0,4.7,2.8,8.7,6.8,10.5v-4.6c-1.7-1.4-2.3-3.5-2.3-5.8v-2.5c0-4.1,2.5-6.5,6.7-6.5h9.4c4.1,0,6.7,2.4,6.7,6.5v2.5c0,4.1-2.5,6.9-6.7,6.9h-7c0-1.3-1-2.3-2.3-2.3s-2.3,1-2.3,2.3v13.8c0,1-.7,2.1-2.3,2.1s-2.3-.7-2.3-2.1v-7.2c0-1.2-1.1-2.1-2.3-2.1s-2.3.9-2.3,2.1v7.5c0,3.5,3.3,6.4,6.8,6.4s6.8-2.6,6.8-6.4v-9.5h4.6v9.5c0,3.5,3.3,6.4,6.8,6.4s6.9-2.9,6.8-6.4v-7.5c0-1.2-1.1-2.1-2.3-2.1s-2.3.9-2.3,2.1v7.2c0,1.3-1.1,2.1-2.3,2.1s-2.3-.9-2.3-1.9v-9.5h0c5.1-1.3,9.1-5.9,9.1-11.3v-2.5c0-6.3-4.9-11-11.2-11h-9.4ZM11.4,28.7c-1.3,0-2.3,1-2.3,2.3v8c0,2.9,1.9,5.5,4.6,6.4v-14.4c0-1.2-1-2.3-2.3-2.3ZM52.4,28.7c-1.3,0-2.3,1-2.3,2.3v14.4c2.6-.9,4.6-3.5,4.6-6.4v-8c0-1.2-1-2.3-2.3-2.3Z"/>
    <path class="st12" d="M27.2,11.7c-6.3,0-11.2,4.7-11.2,11v2.5c0,4.7,2.8,8.7,6.8,10.5v-4.6c-1.7-1.4-2.3-3.5-2.3-5.8v-2.5c0-4.1,2.5-6.5,6.7-6.5h9.4c4.1,0,6.7,2.4,6.7,6.5v2.5c0,4.1-2.5,6.9-6.7,6.9h-7c0-1.3-1-2.3-2.3-2.3s-2.3,1-2.3,2.3v13.8c0,1-.7,2.1-2.3,2.1s-2.3-.7-2.3-2.1v-7.2c0-1.2-1.1-2.1-2.3-2.1s-2.3.9-2.3,2.1v7.5c0,3.5,3.3,6.4,6.8,6.4s6.8-2.6,6.8-6.4v-9.5h4.6v9.5c0,3.5,3.3,6.4,6.8,6.4s6.9-2.9,6.8-6.4v-7.5c0-1.2-1.1-2.1-2.3-2.1s-2.3.9-2.3,2.1v7.2c0,1.3-1.1,2.1-2.3,2.1s-2.3-.9-2.3-1.9v-9.5h0c5.1-1.3,9.1-5.9,9.1-11.3v-2.5c0-6.3-4.9-11-11.2-11h-9.4ZM11.4,27.6c-1.3,0-2.3,1-2.3,2.3v8c0,2.9,1.9,5.5,4.6,6.4v-14.4c0-1.2-1-2.3-2.3-2.3ZM52.4,27.6c-1.3,0-2.3,1-2.3,2.3v14.4c2.6-.9,4.6-3.5,4.6-6.4v-8c0-1.2-1-2.3-2.3-2.3Z"/>
    <path class="st6" d="M31.9.3C14.3.3,0,14.5,0,32.1c0,.2,0,.4,0,.5C.4,15.3,14.5,1.5,31.9,1.5c17.3,0,31.4,13.7,31.9,30.9,0,0,0-.2,0-.3C63.8,14.5,49.5.3,31.9.3Z"/>
  </g>
  <g>
    <path class="st1" d="M6.4,1.3h51.2c3.5,0,6.4,3.3,6.4,7.5v49.1c0,4.1-2.9,7.5-6.4,7.5H6.4c-3.5,0-6.4-3.3-6.4-7.5V8.8C0,4.7,2.9,1.3,6.4,1.3Z"/>
    <path class="st7" d="M6.4,0h51.2c3.5,0,6.4,3.3,6.4,7.5v49.1c0,4.1-2.9,7.5-6.4,7.5H6.4c-3.5,0-6.4-3.3-6.4-7.5V7.5C0,3.3,2.9,0,6.4,0Z"/>
    <path class="st10" d="M6.9,16v5.9c0,4.1,2.6,7.4,5.9,7.4h3.2v-5.3h-3.2c-.8,0-1.4-1-1.4-2.1v-5.9h-4.6ZM52.6,16v5.9c0,1-.5,2.1-1.4,2.1h-3.2v5.3h3.2c3.3,0,5.9-3.3,5.9-7.4v-5.9h-4.6ZM25.5,17.4c-3.4,0-6.1,3.2-6.1,7.2v16.8h25.1v-16.8c0-4-2.7-7.2-6.1-7.2h-12.9ZM25.4,22.7h13.2c.9,0,1.4.7,1.4,1.7v11.7h-16v-11.7c0-1,.5-1.7,1.4-1.7ZM12.6,45.4v5.3h38.9v-5.3H12.6Z"/>
    <path class="st12" d="M6.9,14.7v5.9c0,4.1,2.6,7.4,5.9,7.4h3.2v-5.3h-3.2c-.8,0-1.4-1-1.4-2.1v-5.9h-4.6ZM52.6,14.7v5.9c0,1-.5,2.1-1.4,2.1h-3.2v5.3h3.2c3.3,0,5.9-3.3,5.9-7.4v-5.9h-4.6ZM25.5,16c-3.4,0-6.1,3.2-6.1,7.2v16.8h25.1v-16.8c0-4-2.7-7.2-6.1-7.2h-12.9ZM25.4,21.4h13.2c.9,0,1.4.7,1.4,1.7v11.7h-16v-11.7c0-1,.5-1.7,1.4-1.7ZM12.6,44.1v5.3h38.9v-5.3H12.6Z"/>
    <path class="st6" d="M6.4,0C2.9,0,0,3.3,0,7.5v1.3C0,4.7,2.9,1.3,6.4,1.3h51.2c3.5,0,6.4,3.3,6.4,7.5v-1.3c0-4.1-2.9-7.5-6.4-7.5H6.4Z"/>
  </g>
</svg>