<?xml version="1.0" encoding="UTF-8"?>
<svg id="_图层_1" xmlns="http://www.w3.org/2000/svg" version="1.1" viewBox="0 0 64 64" width="22" height="22">
  <!-- Generator: Adobe Illustrator 29.0.1, SVG Export Plug-In . SVG Version: 2.1.0 Build 192)  -->
  <defs>
    <style>
      .st0 {
        fill: #4f4f4f;
      }

      .st1 {
        fill: #797979;
      }

      .st2, .st3, .st4 {
        fill: #fff;
      }

      .st5 {
        fill: #ff8602;
      }

      .st6 {
        opacity: .3;
      }

      .st6, .st7, .st3, .st4 {
        isolation: isolate;
      }

      .st7, .st3 {
        opacity: .2;
      }

      .st4 {
        opacity: .1;
      }
    </style>
  </defs>
  <path class="st2" d="M50.4,64H13.8c-7.6,0-13.8-6.2-13.8-13.7V13.7C0,6.2,6.2,0,13.7,0h36.5c7.5,0,13.7,6.2,13.7,13.7v36.6c0,7.5-6.2,13.7-13.7,13.7h.1Z"/>
  <g>
    <path class="st7" d="M27.9,4c-.1,0-.3,0-.4,0-1.2.2-1.9,1.6-1.7,3.1v.6c-1.6.4-3.2,1-4.7,1.7l-.3-.5c-.8-1.4-2.2-2-3.3-1.4-1,.6-1.2,2.2-.4,3.5l.3.5c-1.7,1.1-3.2,2.5-4.5,4l-.5-.3c-1.3-.9-2.8-.9-3.5,0-.7.9-.2,2.5,1,3.4l.5.4c-.9,1.4-1.6,3-2.2,4.6l-.6-.2c-1.5-.4-3,.2-3.3,1.3s.7,2.4,2.2,2.8l.6.2c-.3,1.4-.4,2.9-.4,4.4,0,.5,0,1.1,0,1.6h-.6c-1.6.3-2.7,1.4-2.5,2.6.2,1.2,1.6,1.9,3.1,1.7h.6c.4,1.6,1,3.2,1.7,4.7l-.5.3c-1.4.8-2,2.2-1.4,3.3.6,1,2.2,1.2,3.5.4l.5-.3c1.1,1.7,2.5,3.2,4,4.5l-.3.5c-.9,1.3-.9,2.8,0,3.5.9.7,2.5.2,3.4-1l.4-.5c1.4.9,3,1.6,4.6,2.2l-.2.6c-.4,1.5.2,3,1.3,3.3s2.4-.7,2.8-2.2l.2-.6c1.4.3,2.9.4,4.4.4.5,0,1.1,0,1.6,0v.6c.3,1.6,1.4,2.7,2.6,2.5,1.2-.2,1.9-1.6,1.7-3.1v-.6c1.6-.4,3.2-1,4.7-1.7l.3.5c.8,1.4,2.2,2,3.3,1.4,1-.6,1.2-2.2.4-3.5l-.3-.5c1.7-1.1,3.2-2.5,4.5-4l.5.3c1.3.9,2.8.9,3.5,0,.7-.9.2-2.5-1-3.4l-.5-.4c.9-1.4,1.6-3,2.2-4.6l.6.2c1.5.4,3-.2,3.3-1.3.3-1.1-.7-2.4-2.2-2.8l-.6-.2c.3-1.4.4-2.9.4-4.4,0-.5,0-1.1,0-1.6h.6c1.6-.3,2.7-1.4,2.5-2.6-.2-1.2-1.6-1.9-3.1-1.7h-.6c-.4-1.6-1-3.2-1.7-4.7l.5-.3c1.4-.8,2-2.2,1.4-3.3-.6-1-2.2-1.2-3.5-.4l-.5.3c-1.1-1.7-2.5-3.2-4-4.5l.3-.5c.9-1.3.9-2.8,0-3.5s-2.5-.2-3.4,1l-.4.5c-1.4-.9-3-1.6-4.6-2.2l.2-.6c.4-1.5-.2-3-1.3-3.3s-2.4.7-2.8,2.2l-.2.6c-1.4-.3-2.9-.4-4.4-.4-.5,0-1.1,0-1.6,0v-.6c-.3-1.4-1.2-2.4-2.2-2.5Z"/>
    <path class="st0" d="M27.5,3c-1.2.2-1.9,1.6-1.7,3.1l2.1,14.1-7.1-12.3c-.8-1.4-2.2-2-3.3-1.4-1,.6-1.2,2.2-.4,3.5l7.7,13.2-12.3-9.1c-1.3-.9-2.8-.9-3.5,0-.7.9-.2,2.5,1,3.4l11.5,8.5-13.8-3.7c-1.5-.4-3,.2-3.3,1.3-.3,1.1.7,2.4,2.2,2.8l14.8,3.9-15.1,2.3c-1.6.2-2.7,1.4-2.5,2.5.2,1.2,1.6,1.9,3.1,1.7l14.1-2.1-12.3,7.1c-1.4.8-2,2.2-1.4,3.3.6,1,2.2,1.2,3.5.4l13.2-7.7-9.1,12.3c-.9,1.3-.9,2.8,0,3.5.9.7,2.5.2,3.4-1l8.5-11.5-3.7,13.8c-.4,1.5.2,3,1.3,3.3s2.4-.7,2.8-2.2l3.9-14.8,2.3,15.1c.2,1.6,1.4,2.7,2.5,2.5s1.9-1.6,1.7-3.1l-2.1-14.1,7.1,12.3c.8,1.4,2.2,2,3.3,1.4,1-.6,1.2-2.2.4-3.5l-7.7-13.2,12.3,9.1c1.3.9,2.8.9,3.5,0,.7-.9.2-2.5-1-3.4l-11.5-8.5,13.8,3.7c1.5.4,3-.2,3.3-1.3.3-1.1-.7-2.4-2.2-2.8l-14.8-3.9,15.1-2.3c1.6-.2,2.7-1.4,2.5-2.5-.2-1.2-1.6-1.9-3.1-1.7l-14.1,2.1,12.3-7.1c1.4-.8,2-2.2,1.4-3.3-.6-1-2.2-1.2-3.5-.4l-13.2,7.7,9.1-12.3c.9-1.3.9-2.8,0-3.5s-2.5-.2-3.4,1l-8.5,11.5,3.7-13.8c.4-1.5-.2-3-1.3-3.3-1.1-.3-2.4.7-2.8,2.2l-3.9,14.8-2.3-15.1c-.2-1.6-1.4-2.7-2.5-2.5Z"/>
    <circle class="st0" cx="31.7" cy="31" r="25"/>
    <circle class="st6" cx="31.7" cy="31" r="17"/>
    <circle class="st7" cx="31.7" cy="32" r="13"/>
    <circle class="st1" cx="31.7" cy="31" r="13"/>
    <path class="st7" d="M34.5,12l-1.7,16h9.9l-13.8,24,2-17h-10.3l13.8-23Z"/>
    <path class="st5" d="M34.5,11l-1.7,16h9.9l-13.8,24,2-17h-10.3l13.8-23Z"/>
    <path class="st4" d="M27.9,3c-.1,0-.3,0-.4,0-1.1.2-1.9,1.5-1.7,3,.2-1.1.8-1.9,1.7-2,.1,0,.3,0,.4,0,1,.1,1.9,1.1,2.1,2.5v.6c.6,0,1.2,0,1.7,0,1.5,0,2.9.1,4.4.4l.2-.6c.4-1.5,1.6-2.5,2.8-2.2.8.2,1.3.9,1.4,1.8.2-1.3-.4-2.6-1.4-2.8-1.1-.3-2.4.7-2.8,2.2l-.2.6c-1.4-.3-2.9-.4-4.4-.4-.5,0-1.1,0-1.6,0v-.6c-.3-1.4-1.2-2.4-2.2-2.5ZM18.4,6.2c-.3,0-.6,0-.8.2-.7.4-1,1.3-.9,2.3.1-.6.4-1,.9-1.3,1-.6,2.5,0,3.3,1.4l.3.5c1.5-.7,3.1-1.3,4.8-1.7v-.6c-.1-.1-.1-.3-.1-.4-1.6.4-3.2.9-4.7,1.6l-.3-.5c-.6-1-1.6-1.6-2.4-1.6ZM40.4,7.6c0,.1,0,.2,0,.3l-.2.6c1.6.6,3.1,1.3,4.6,2.2l.4-.5c.9-1.3,2.4-1.7,3.4-1,.4.3.6.6.7,1.1.2-.8,0-1.6-.7-2.1-.9-.7-2.5-.2-3.4,1l-.4.5c-1.4-.8-2.8-1.6-4.4-2.1ZM17,10.8c-1.5,1.1-2.9,2.3-4.1,3.7l-.5-.3c-1.3-.9-2.8-.9-3.5,0-.3.4-.4,1-.3,1.6,0-.2.1-.4.3-.6.7-.9,2.3-1,3.5,0l.5.3c1.3-1.5,2.8-2.9,4.5-4l-.3-.5c0,0,0-.1,0-.2ZM48.6,12.6s0,0,0,.1l-.3.5c1.5,1.3,2.9,2.8,4,4.5l.5-.3c1.4-.8,2.9-.6,3.5.4,0,.1.1.2.1.4.1-.5,0-1-.1-1.4-.6-1-2.2-1.2-3.5-.4l-.5.3c-1-1.5-2.2-2.9-3.6-4.1ZM10,18.6c-.7,1.2-1.3,2.5-1.8,3.9l-.6-.2c-1.5-.4-3,.2-3.3,1.3,0,.3,0,.6,0,.9.3-1.1,1.8-1.6,3.3-1.2l.6.2c.6-1.6,1.3-3.1,2.2-4.6l-.4-.3ZM54.7,21.1l-.3.2c.7,1.5,1.3,3.1,1.7,4.8h.6c1.4-.3,2.7.3,3,1.3,0-.2.1-.5,0-.8-.2-1.2-1.6-1.9-3.1-1.7h-.6c-.3-1.3-.8-2.6-1.3-3.9ZM7,27.6c-.2,1.1-.3,2.3-.3,3.4,0,.2,0,.4,0,.5,0-1.3.2-2.6.4-3.9h-.1ZM56.7,30.3h0c0,.4,0,.7,0,1.1,0-.2,0-.3,0-.5,0-.2,0-.4,0-.6ZM6.7,32.6h-.5c-1.6.3-2.7,1.4-2.5,2.6,0,0,0,.2,0,.2.3-.9,1.2-1.6,2.4-1.8h.6c0-.4,0-.7,0-1.1ZM56.4,35.4c0,.3,0,.6-.1,1l.6.2c1.1.3,1.9,1,2.2,1.9,0,0,0,0,0,0,.3-1.1-.7-2.4-2.2-2.8h-.4ZM8.8,41.8h-.2c-1.2.8-1.8,2-1.5,3,.2-.7.7-1.4,1.5-1.9l.5-.3c-.1-.3-.2-.5-.3-.8ZM53.4,44.3c-.1.2-.3.5-.4.7l.5.4c.7.5,1.1,1.2,1.3,1.8.2-.9-.2-2.1-1.3-2.8h0ZM14.8,50.3c-.5.8-.7,1.6-.6,2.3,0-.5.3-1,.6-1.5l.3-.5c-.1-.1-.3-.3-.4-.4ZM46.4,52.1c-.1.1-.3.2-.4.3l.3.5c.2.4.4.8.4,1.2.1-.6,0-1.3-.3-2ZM23,55.4c0,.4,0,.8,0,1.1,0-.1,0-.3,0-.4l.2-.6c0,0-.1,0-.2,0ZM37.7,56.2s0,0-.1,0v.6c0,0,0,0,0,0,0-.2,0-.5,0-.7Z"/>
    <path class="st3" d="M34.5,11l-13.8,23h.6l13-21.8v-1.2ZM32.9,27v1c-.1,0,9.2,0,9.2,0l.6-1h-9.8ZM30.9,35l-1.9,16,.2-.3,1.9-15.7h-.1Z"/>
  </g>
</svg>