<?xml version="1.0" encoding="UTF-8"?>
<svg id="_图层_1" xmlns="http://www.w3.org/2000/svg" version="1.1" viewBox="0 0 64 64" width="22" height="22">
  <!-- Generator: Adobe Illustrator 29.0.1, SVG Export Plug-In . SVG Version: 2.1.0 Build 192)  -->
  <defs>
    <style>
      .st0 {
        fill: #d32f2f;
      }

      .st1 {
        fill: #4f4f4f;
      }

      .st2 {
        fill: #e5289a;
      }

      .st3 {
        fill: #3f3f3f;
      }

      .st4, .st5, .st6 {
        fill: #fff;
      }

      .st7 {
        fill: #37a0f2;
      }

      .st8 {
        fill: #ff8d23;
      }

      .st9 {
        fill: #00e2d3;
      }

      .st10 {
        fill: #fdd835;
      }

      .st11 {
        fill: #2f58d3;
      }

      .st12 {
        fill: #92dc39;
      }

      .st13, .st5 {
        opacity: .2;
      }

      .st13, .st5, .st6 {
        isolation: isolate;
      }

      .st14 {
        fill: #7add21;
      }

      .st15 {
        display: none;
      }

      .st16 {
        fill: #ed4648;
      }

      .st17 {
        fill: #19a2ff;
      }

      .st6 {
        opacity: .1;
      }
    </style>
  </defs>
  <path class="st4" d="M50.4,64H13.8c-7.6,0-13.8-6.2-13.8-13.7V13.7C0,6.2,6.2,0,13.7,0h36.5c7.5,0,13.7,6.2,13.7,13.7v36.6c0,7.5-6.2,13.7-13.7,13.7h.1Z"/>
  <g class="st15">
    <path class="st13" d="M46.8,8.1c-7,0-17.7,2-21.1,5.9h0c-2.7,3.8-3,18.8-2.3,17.9,5.7-7.6,19.4-17,27.6-20.8,4.4-2,1.3-3.1-4.1-3ZM20.7,16.7c-1.8.3-8.8,5.1-7.2,13.7h0c1.5,4.4,11.5,10.2,11.1,9.1-2.8-9.1-3.8-15-3.5-22.7,0-.1-.1-.2-.4-.1h0ZM40.1,20.5c-4.7.3-13,8.2-11.9,8.2,9.7-.3,15.7.2,23.2,2.5,1.1.3-1.2-9.9-11.4-10.7ZM35,28.8c-.2,0-.4,0-.3.2,5.5,7.8,8.3,13.1,10.5,20.5.3,1.1,7.8-6.4,3-15.2-2.5-3.3-11.4-5.6-13.2-5.5h0,0ZM9.4,30.2c-.9-.1-3,9.6,5.4,14.6,4.4,1.8,15.4-1.7,14.3-2.2-8.8-3.9-14-7-19.7-12.4,0,0,0,0,0,0ZM37.8,35c0,0,0,0-.1,0-2.4,9.2-4.7,14.7-9.1,21.1-.7.9,10,1.7,13.7-7.6h0c1-4.3-3.7-13.4-4.5-13.6h0ZM35.1,40.9s0,0,0,0c-8.7,4.1-14.5,6-22.3,6.8-1.2.1,5.1,8.6,14.8,5.4h0c4.1-2.1,8.3-12,7.6-12.2h0,0Z"/>
    <path class="st7" d="M46.8,7.2c-7,0-17.7,2-21.1,5.9h0c-2.7,3.8-3,18.8-2.3,17.9,5.7-7.6,19.4-17,27.6-20.8,4.4-2,1.3-3.1-4.1-3h0ZM40.1,19.7c-4.7.3-13,8.2-11.9,8.2,9.7-.3,15.7.2,23.2,2.5,1.1.3-1.2-9.9-11.4-10.7h0ZM35,27.9c-.2,0-.4,0-.3.2,5.5,7.8,8.3,13.1,10.4,20.5.3,1.1,7.8-6.4,3-15.2-2.5-3.3-11.4-5.6-13.2-5.5h0ZM37.8,34.1c0,0,0,0-.1,0-2.4,9.2-4.7,14.7-9.1,21.1-.7.9,10,1.7,13.7-7.6h0c1-4.3-3.7-13.4-4.5-13.6h0ZM35.1,40s0,0,0,0c-8.7,4.1-14.5,6-22.3,6.8-1.2.1,5.1,8.6,14.8,5.3h0c4.1-2.1,8.3-12,7.6-12.2h0Z"/>
    <path class="st1" d="M20.7,15.8c-1.8.3-8.8,5.1-7.2,13.7h0c1.5,4.4,11.5,10.2,11.1,9.1-2.8-9.1-3.8-14.9-3.5-22.7,0-.1-.1-.2-.4-.1h0ZM9.4,29.4c-.9-.1-3,9.6,5.4,14.6,4.4,1.8,15.4-1.7,14.3-2.2-8.8-3.9-14-7-19.7-12.4,0,0,0,0,0,0h0Z"/>
    <path class="st5" d="M46.8,7.2c-7,0-17.7,2-21.1,5.9h0c-2.1,2.9-2.7,12.4-2.6,16.3,0-4.3.7-12.6,2.6-15.4h0c3.4-3.9,14.1-5.8,21.1-5.9,3,0,5.4.3,6,.9,1-1.2-1.8-1.8-6-1.8h0ZM40.1,19.7c-4.7.3-13,8.2-11.9,8.2.1,0,.3,0,.4,0,1.8-2.1,7.7-7,11.5-7.3,8,.6,11.2,7.1,11.6,9.7.5-1.2-2.3-9.8-11.6-10.5ZM35.1,28.7s0,0,0,.1c2.1,0,10.5,2.4,13,5.5,1.1,1.9,1.5,3.8,1.6,5.5,0-2-.4-4.1-1.6-6.4-1.5-1.9-5.2-3.5-8.3-4.5-1.5-.1-3.1-.2-4.7-.3ZM37.8,34.1c0,0,0,0-.1,0-2.4,9.2-4.7,14.7-9.1,21.1,0,.1,0,.3.3.4,4.2-6.2,6.4-11.7,8.8-20.6,0,0,0,0,.1,0,.7.2,4.3,7.2,4.6,11.8.2-4.5-3.8-12.5-4.6-12.7ZM35.1,40s0,0,0,0c-8.7,4.1-14.5,6-22.3,6.8-.2,0-.2.4.1.9,7.8-.9,13.5-2.7,22.2-6.8,0,0,0,0,0,0,.1-.5.2-.9,0-.9h0Z"/>
    <path class="st6" d="M20.7,15.8c-1.6.3-7.5,4.2-7.4,11.4.3-6.6,5.9-10.3,7.4-10.5h0c.2,0,.3,0,.4,0,0-.3,0-.5,0-.8,0-.1-.1-.2-.4-.1ZM21.1,19.1c0,6.4,1,11.9,3.3,19.6.2,0,.3,0,.2-.1-2.4-7.8-3.5-13.2-3.6-19.5ZM9.4,29.4c-.4,0-1,1.7-.9,4,0-1.9.6-3.2.9-3.1,0,0,0,0,0,0,5.6,5.2,10.6,8.3,19,12.1.6-.3.9-.5.6-.6-1.6-.7-3.1-1.4-4.6-2.1-.3.1-1.9-.7-3.8-2-4.3-2.4-7.7-4.9-11.3-8.3,0,0,0,0,0,0Z"/>
  </g>
  <g class="st15">
    <circle class="st3" cx="31" cy="31.5" r="26"/>
    <path class="st13" d="M31,4.5c-2.5,0-5,.4-7.5,1,3.5,2.6,7.1,5.7,10.4,9.1,4.8,4.9,8.9,10.3,10.8,15.6.6-1.9,1.2-3.9,1.7-5.9,1.1-4.6,1.8-9.4,2.1-13.6-5-4-11.1-6.1-17.5-6.1ZM21.1,6.4C12.6,9.6,6.1,16.8,3.9,25.7c3.7-1.7,7.7-3.2,11.9-4.5,5.6-1.6,11.3-2.7,16.2-2.5,1.1,0,2.2.2,3.3.4-.9-1-1.8-2-2.8-3-3.6-3.7-7.7-7.1-11.4-9.7ZM50.4,12.4c-.4,4-1,8.2-2,12.4-1.7,7-4.2,13.7-8,18.1,1.4-.3,2.8-.6,4.3-1,4.9-1.3,9.7-3.1,13.9-5,.2-1.4.4-2.9.4-4.4,0-7.6-3.1-14.8-8.5-20.1ZM21.9,21.8c-1.8.4-3.7.8-5.6,1.4-4.6,1.4-9.1,3.1-13,5-.2,1.4-.3,2.8-.3,4.3,0,7.6,3.1,14.8,8.6,20.1.4-4.1,1.2-8.6,2.3-13,1.7-6.9,4.3-13.5,8.1-17.8ZM17.3,35.3c-.5,1.6-1,3.2-1.4,4.9-1.2,4.8-2,9.8-2.4,14.2,5,4,11.1,6.2,17.5,6.2,2.6,0,5.3-.4,7.8-1.1-3.5-2.5-7.2-5.6-10.6-8.9-4.8-4.8-9-10-10.9-15.2ZM58.1,39.4c-3.9,1.7-8.3,3.3-12.8,4.5-6.6,1.8-13.2,2.7-18.7,1.8,1,1.1,2,2.2,3.1,3.2,3.7,3.6,7.7,6.9,11.5,9.6,8.4-3.3,14.7-10.4,16.9-19.1Z"/>
    <path class="st2" d="M58.1,38.4c-3.9,1.7-8.3,3.3-12.8,4.5-6.6,1.8-13.2,2.7-18.7,1.8,1,1.1,2,2.2,3.1,3.3,3.7,3.6,7.7,6.9,11.5,9.6,8.4-3.3,14.7-10.4,16.9-19.1Z"/>
    <path class="st17" d="M17.3,34.3c-.5,1.6-1,3.2-1.4,4.9-1.2,4.8-2,9.8-2.4,14.2,5,4,11.1,6.2,17.5,6.2,2.6,0,5.3-.4,7.8-1.1-3.5-2.5-7.2-5.6-10.6-8.9-4.8-4.8-9-10-10.9-15.2Z"/>
    <path class="st9" d="M21.9,20.8c-1.8.4-3.7.8-5.6,1.4-4.6,1.4-9.1,3.1-13,5-.2,1.4-.3,2.8-.3,4.3,0,7.6,3.1,14.8,8.6,20.1.4-4.1,1.2-8.6,2.3-13,1.7-6.9,4.3-13.5,8.1-17.8Z"/>
    <path class="st16" d="M50.4,11.4c-.4,4-1,8.2-2,12.4-1.7,7-4.2,13.7-8,18.1,1.4-.3,2.8-.6,4.3-1,4.9-1.3,9.7-3.1,13.9-5,.2-1.4.4-2.9.4-4.4,0-7.6-3.1-14.8-8.5-20.1Z"/>
    <path class="st14" d="M21.1,5.4C12.6,8.6,6.1,15.8,3.9,24.7c3.7-1.7,7.7-3.2,11.9-4.5,5.6-1.6,11.3-2.7,16.2-2.5,1.1,0,2.2.2,3.3.4-.9-1-1.8-2-2.8-3-3.6-3.7-7.6-7.1-11.4-9.7Z"/>
    <path class="st8" d="M31,3.5c-2.5,0-5,.4-7.5,1,3.5,2.6,7.1,5.7,10.4,9.1,4.8,4.9,8.9,10.3,10.8,15.6.6-1.9,1.2-3.9,1.7-5.9,1.1-4.6,1.8-9.4,2.1-13.6-5-4-11.1-6.1-17.5-6.1Z"/>
    <path class="st5" d="M31,3.5c-2.5,0-5,.4-7.5,1,.3.2.7.5,1,.8,2.1-.5,4.3-.8,6.4-.8,6.3,0,12.5,2.1,17.4,6.1,0-.3,0-.6,0-.9-5-4-11.1-6.1-17.5-6.1ZM21.1,5.4C12.6,8.6,6.1,15.8,3.9,24.7c.1,0,.3-.1.4-.2,2.5-8.3,8.7-15,16.8-18.1,3.7,2.7,7.7,6,11.4,9.7.6.6,1.2,1.2,1.8,1.9.3,0,.7,0,1,.2-.9-1-1.8-2-2.8-3-3.6-3.7-7.7-7.1-11.4-9.7ZM50.4,11.4c-.4,4-1,8.2-2,12.4-1.7,7-4.2,13.7-8,18.1.3,0,.6-.1,1-.2,3.2-4.4,5.5-10.5,7-16.9,1-4.2,1.6-8.4,2-12.4,5.3,5.2,8.4,12.3,8.5,19.7,0-.2,0-.4,0-.6,0-7.6-3.1-14.8-8.5-20.1ZM21.9,20.8c-1.8.4-3.7.8-5.6,1.4-4.6,1.4-9.1,3.1-13,5-.2,1.4-.3,2.8-.3,4.3,0,.1,0,.3,0,.4,0-1.2.1-2.4.3-3.6,3.9-1.9,8.4-3.7,13-5,1.5-.4,3.1-.8,4.6-1.2.3-.4.6-.8,1-1.2ZM17.3,34.3c-.5,1.6-1,3.2-1.4,4.9-1.2,4.8-2,9.8-2.4,14.2,0,0,0,0,0,0,.4-4.2,1.1-8.8,2.3-13.2.4-1.7.9-3.3,1.4-4.9,2,5.2,6.1,10.4,10.9,15.2,3,3,6.3,5.8,9.5,8.2.3,0,.7-.1,1-.2-3.5-2.5-7.2-5.6-10.6-8.9-4.8-4.8-9-10-10.9-15.2ZM58.1,38.4c-3.9,1.7-8.3,3.3-12.8,4.5-6.6,1.8-13.2,2.7-18.7,1.8.3.4.7.8,1.1,1.2,5.3.6,11.5-.3,17.6-1.9,4.3-1.2,8.6-2.7,12.4-4.3.1-.4.3-.8.4-1.2Z"/>
  </g>
  <g>
    <path class="st13" d="M32,17.7v14h14c7.7,0,14-6.3,14-14s-6.3-14-14-14-14,6.3-14,14Z"/>
    <path class="st13" d="M32,17.7v14h-14c-7.7,0-14-6.3-14-14S10.3,3.7,18,3.7s14,6.3,14,14Z"/>
    <path class="st13" d="M32,45.7v-14h-14c-7.7,0-14,6.3-14,14s6.3,14,14,14,14-6.3,14-14Z"/>
    <path class="st13" d="M32,45.7v-14h14c7.7,0,14,6.3,14,14s-6.3,14-14,14-14-6.3-14-14Z"/>
    <path class="st0" d="M32,16.7v14h-14c-7.7,0-14-6.3-14-14S10.3,2.7,18,2.7s14,6.3,14,14Z"/>
    <path class="st12" d="M32,16.7v14h14c7.7,0,14-6.3,14-14s-6.3-14-14-14-14,6.3-14,14Z"/>
    <path class="st10" d="M32,44.7v-14h14c7.7,0,14,6.3,14,14s-6.3,14-14,14-14-6.3-14-14Z"/>
    <path class="st5" d="M32,30.7v1h14c7.6,0,13.7,6,14,13.5,0-.2,0-.3,0-.5,0-7.7-6.3-14-14-14h-14Z"/>
    <path class="st11" d="M32,44.7v-14h-14c-7.7,0-14,6.3-14,14s6.3,14,14,14,14-6.3,14-14Z"/>
    <path class="st6" d="M18,30.7c-7.7,0-14,6.3-14,14s0,.3,0,.5c.3-7.5,6.4-13.5,14-13.5h14v-1h-14Z"/>
    <circle class="st13" cx="32" cy="31.7" r="11"/>
    <circle class="st4" cx="32" cy="30.7" r="11"/>
    <path class="st6" d="M18,2.7c-7.7,0-14,6.3-14,14s0,.3,0,.5c.3-7.5,6.4-13.5,14-13.5s14,6.3,14,14v-1c0-7.7-6.3-14-14-14Z"/>
    <path class="st5" d="M46,2.7c-7.7,0-14,6.3-14,14v1c0-7.7,6.3-14,14-14s13.7,6,14,13.5c0-.2,0-.3,0-.5,0-7.7-6.3-14-14-14Z"/>
  </g>
</svg>