<?xml version="1.0" encoding="UTF-8"?>
<svg id="_图层_1" xmlns="http://www.w3.org/2000/svg" version="1.1" viewBox="0 0 64 64" width="22" height="22">
  <!-- Generator: Adobe Illustrator 29.0.1, SVG Export Plug-In . SVG Version: 2.1.0 Build 192)  -->
  <defs>
    <style>
      .st0 {
        fill: #c72566;
      }

      .st1 {
        fill: #4f4f4f;
      }

      .st2 {
        fill: #3e50b4;
      }

      .st2, .st3, .st4, .st5, .st6, .st7, .st8 {
        display: none;
      }

      .st3 {
        fill: #4cc74c;
      }

      .st9, .st10, .st11, .st12, .st13, .st14, .st15 {
        fill: none;
      }

      .st9, .st10, .st11, .st12, .st14, .st15 {
        stroke-linecap: round;
      }

      .st9, .st10, .st15 {
        stroke: #fff;
      }

      .st9, .st12, .st14, .st15 {
        stroke-width: 4px;
      }

      .st16 {
        fill: #ff8c2a;
      }

      .st4, .st5, .st17, .st11, .st18, .st12, .st19, .st20, .st14, .st21, .st8, .st22 {
        isolation: isolate;
      }

      .st4, .st23, .st11, .st12, .st19, .st14, .st21, .st8 {
        opacity: .2;
      }

      .st5, .st24, .st21, .st8, .st22 {
        fill: #fff;
      }

      .st5, .st17, .st22 {
        opacity: .1;
      }

      .st25 {
        fill: #2bffbf;
      }

      .st26 {
        fill: #3f3f3f;
      }

      .st10, .st11 {
        stroke-width: 4px;
      }

      .st27 {
        fill: #bfecbf;
      }

      .st28 {
        fill: #cf4f8c;
      }

      .st6 {
        fill: #c2352a;
      }

      .st29 {
        fill: #6655e4;
      }

      .st11, .st12, .st14 {
        stroke: #000;
      }

      .st18 {
        opacity: .3;
      }

      .st12, .st15 {
        stroke-linejoin: bevel;
      }

      .st13 {
        stroke: #bfecbf;
        stroke-width: 3.9px;
      }

      .st20 {
        opacity: .5;
      }

      .st30 {
        fill: #ed9f21;
      }

      .st31 {
        fill: #e4e4e4;
      }
    </style>
  </defs>
  <path class="st3" d="M50.4,64H13.8c-7.6,0-13.8-6.2-13.8-13.7V13.7C0,6.2,6.2,0,13.7,0h36.6c7.5,0,13.7,6.2,13.7,13.7v36.6c0,7.5-6.2,13.7-13.7,13.7h.1Z"/>
  <g class="st7">
    <path class="st4" d="M3.2,65.2c-1.8,0-3.2-1.4-3.2-3.2v-2.3c0,1.8,1.4,3.2,3.2,3.2h57.6c1.8,0,3.2-1.4,3.2-3.2v2.3c0,1.8-1.4,3.2-3.2,3.2H3.2Z"/>
    <path class="st16" d="M32,0H14.6C6.5,0,0,6.5,0,14.6v17.4h32V0Z"/>
    <path class="st28" d="M32,0h17.5c8,0,14.5,6.5,14.5,14.5v17.5h-32V0Z"/>
    <path class="st0" d="M32,64H14.7c-8.1,0-14.7-6.6-14.7-14.7v-17.4h32v32Z"/>
    <path class="st16" d="M32,64h17.3c8.1,0,14.7-6.6,14.7-14.7v-17.3h-32v32Z"/>
    <path class="st8" d="M3.2,0C1.4,0,0,1.4,0,3.2v1.1C0,2.6,1.4,1.1,3.2,1.1h57.6c1.8,0,3.2,1.4,3.2,3.2v-1.1c0-1.8-1.4-3.2-3.2-3.2H3.2Z"/>
    <rect class="st26" x="9.1" y="9.1" width="45.7" height="45.7"/>
    <path class="st14" d="M16,49.2h18.3"/>
    <path class="st9" d="M16,48h18.3"/>
    <path class="st11" d="M25.1,35.4l-4.6-6.9M16,26.3s9.1,1.1,9.1-4.6-9.1-4.6-9.1-4.6M16,35.4v-18.3"/>
    <path class="st10" d="M25.1,34.3l-4.6-6.9M16,25.2s9.1,1.1,9.1-4.6-9.1-4.6-9.1-4.6M16,34.3v-18.3"/>
    <path class="st14" d="M32,30.9h9.1M36.6,35.4v-9.1"/>
    <path class="st9" d="M32,29.7h9.1M36.6,34.3v-9.1"/>
    <path class="st14" d="M38.9,19.4h9.1M43.4,24v-9.1"/>
    <path class="st9" d="M38.9,18.3h9.1M43.4,22.9v-9.1"/>
  </g>
  <g class="st7">
    <path class="st19" d="M24.7,6h0c-1.8,0-3.7.2-5.7.8,0,0-.1,0-.2,0-2.4.8-4.9,2.6-6,5-1.1,2.4-.9,4.2-.9,5.5v28.2c0,1.3-.2,2.6.5,4.6.7,2.1,3,4.2,4.9,4.9,0,0,0,0,0,0,1,.4,2,.6,3,.7,2.1.3,4.1.2,6.1-.2.7-.1,1.3-.3,2-.6,1.1-.4,2.2-1.4,3.1-2.5.2.3.3.7.7,1,1.8,1.7,3.6,2,5.1,2.2,1.1.2,1.6.2,2.3.2.8,0,1.6,0,2.2,0h0c1.6,0,2.8.1,4.8-.3,1.8-.4,3.7-.8,5.5-3.1h0c.7-1,1.6-2.5,1.7-4.7.1-3.1-1-5-2.1-6.9-.6-1.1-1.4-2-2-2.6-.6-.6-.9-.9-1.4-1.4-.6-.7-.4-.5-.6-.8.1-.1.1-.1.3-.3,1.9-1.7,4.2-3.5,5.3-7,.5-1.5.5-2.7.5-3.9,0-2.5-.5-5-1.6-7.5-1-2.3-2.7-4.5-4.8-6-2.1-1.5-4.5-2.5-7.5-3.5-1.5-.5-2.9-.9-4.4-1.1-2-.4-4.5-.6-6.9-.7h0c-.7,0-1.4,0-2.1,0-.6,0-1.2,0-1.9,0,0,0,0,0,0,0,0,0,0,0,0,0Z"/>
    <path class="st1" d="M24.7,5.1h0c-1.8,0-3.7.2-5.7.8,0,0-.1,0-.2,0-2.4.8-4.9,2.6-6,5-1.1,2.4-.9,4.2-.9,5.5v28.2c0,1.3-.2,2.6.5,4.6.7,2.1,3,4.2,4.9,4.9,0,0,0,0,0,0,1,.4,2,.6,3,.7,2.1.3,4.1.2,6.1-.2.7-.1,1.3-.3,2-.6,1.1-.4,2.2-1.4,3.1-2.5.2.3.3.7.7,1,1.8,1.7,3.6,2,5.1,2.2,1.1.2,1.6.2,2.3.2.8,0,1.6,0,2.2,0h0c1.6,0,2.8.1,4.8-.3,1.8-.4,3.7-.8,5.5-3.1h0c.7-1,1.6-2.5,1.7-4.7.1-3.1-1-5-2.1-6.9-.6-1.1-1.4-2-2-2.6-.6-.6-.9-.9-1.4-1.4-.6-.7-.4-.5-.6-.8.1-.1.1-.1.3-.3,1.9-1.7,4.2-3.5,5.3-7,.5-1.5.5-2.7.5-3.9,0-2.5-.5-5-1.6-7.5-1-2.3-2.7-4.5-4.8-6-2.1-1.5-4.5-2.5-7.5-3.5-1.5-.5-2.9-.9-4.4-1.1-2-.4-4.5-.6-6.9-.7h0c-.7,0-1.4,0-2.1,0-.6,0-1.2,0-1.9,0,0,0,0,0,0,0h0Z"/>
    <path class="st19" d="M24.8,11.3c-1.5,0-3.1.2-4.4.6-3.3,1.1-3.2,2.9-3.2,5.5v28.3c0,2.6,0,3.8,1.8,4.4.6.2,1.2.3,2.1.5,1.3.2,3.2.1,4.4-.1.5,0,.9-.2,1.3-.4,1.1-.4,1.1-1.1,1.1-2,0-1.9-.3-4.1,1.5-5.6.8-.7,1.8-.7,2.8-.3.8.4,1.7,1.3,2.2,2.2.4.8.5,1.4.7,2.9.3,2.3.9,2.8,3.3,3.2.6.1,2.6.2,3.7.2,1.5,0,3,0,3.7-.2,1.1-.2,2-.6,2.4-1.2.4-.5.6-1,.7-1.6,0-1.1-.5-2.3-1.4-3.9-.8-1.4-1.5-1.7-2.8-3.3-1.6-1.9-2.4-3.1-2.7-4.2-.4-1.3.8-2.7,2.8-4.5,1.8-1.7,3.3-3.1,3.9-4.7.2-.5.3-1.3.2-2.1,0-1.7-.4-3.9-1.1-5.5-1.3-3-3.7-4.7-9.1-6.5-1.4-.5-2.4-.7-3.7-1-1.5-.3-4-.5-6.3-.6-.7,0-1.4,0-2,0-.5,0-1,0-1.5,0h0ZM31.1,22.1h0c1.6,0,3,1.3,3.5,3.1.2.7.2,2.1,0,2.9-.4,2.1-1.9,3.2-4,2.9-.7-.1-1.2-.4-1.7-.9-.8-.9-1.2-2.2-1.2-3.7,0-2.5,1.2-4.1,3.1-4.2.1,0,.2,0,.3,0h0Z"/>
    <path class="st30" d="M24.8,10.4c-1.5,0-3.1.2-4.4.6-3.3,1.1-3.2,2.9-3.2,5.5v28.3c0,2.6,0,3.8,1.8,4.4.6.2,1.2.3,2.1.5,1.3.2,3.2.1,4.4-.1.5,0,.9-.2,1.3-.4,1.1-.4,1.1-1.1,1.1-2,0-1.9-.3-4.1,1.5-5.6.8-.7,1.8-.7,2.8-.3.8.4,1.7,1.3,2.2,2.2.4.8.5,1.4.7,2.9.3,2.3.9,2.8,3.3,3.2.6.1,2.6.2,3.7.2,1.5,0,3,0,3.7-.2,1.1-.2,2-.6,2.4-1.2.4-.5.6-1,.7-1.6,0-1.1-.5-2.3-1.4-3.9-.8-1.4-1.5-1.7-2.8-3.3-1.6-1.9-2.4-3.1-2.7-4.2-.4-1.3.8-2.7,2.8-4.5,1.8-1.7,3.3-3.1,3.9-4.7.2-.5.3-1.3.2-2.1,0-1.7-.4-3.9-1.1-5.5-1.3-3-3.7-4.7-9.1-6.5-1.4-.5-2.4-.7-3.7-1-1.5-.3-4-.5-6.3-.6-.7,0-1.4,0-2,0-.5,0-1,0-1.5,0h0ZM31.1,21.2h0c1.6,0,3,1.3,3.5,3.1.2.7.2,2.1,0,2.9-.4,2.1-1.9,3.2-4,2.9-.7-.1-1.2-.4-1.7-.9-.8-.9-1.2-2.2-1.2-3.7,0-2.5,1.2-4.1,3.1-4.2.1,0,.2,0,.3,0h0Z"/>
    <path class="st21" d="M24.8,10.4c-1.5,0-3.1.2-4.4.6-3.3,1.1-3.2,2.9-3.2,5.5v.9c0-2.6,0-4.3,3.2-5.5,1.4-.4,2.9-.6,4.4-.6.5,0,1,0,1.5,0,.7,0,1.4,0,2,0,2.3.1,4.8.3,6.3.6,1.3.2,2.3.5,3.7,1,5.4,1.8,7.8,3.5,9.1,6.5.6,1.6,1,3.5,1.1,5.2,0-.2,0-.4,0-.6,0-1.7-.4-3.9-1.1-5.5-1.3-3-3.7-4.7-9.1-6.5-1.4-.5-2.4-.7-3.7-1-1.5-.3-4-.5-6.3-.6-.7,0-1.4,0-2,0-.5,0-1,0-1.5,0ZM27.7,25.8c0,.2,0,.3,0,.5,0,1.5.4,2.9,1.2,3.7.5.6,1,.8,1.7.9,2.1.3,3.6-.7,4-2.9.1-.5.1-1.3.1-1.9,0,.4,0,.8-.1,1-.4,2.1-1.9,3.2-4,2.9-.7-.1-1.2-.4-1.7-.9-.7-.8-1.1-2-1.2-3.3ZM41.7,35.4c0,.3,0,.6,0,1,.3,1.1,1.1,2.3,2.7,4.2,1.3,1.5,2,1.8,2.8,3.3.7,1.3,1.2,2.4,1.4,3.3,0,0,0-.2,0-.3,0-1.1-.5-2.3-1.4-3.9-.8-1.4-1.5-1.7-2.8-3.3-1.6-1.9-2.4-3.1-2.7-4.2,0,0,0,0,0,0ZM27.8,46.1c0,.6,0,1.2,0,1.8,0-.2,0-.5,0-.8,0-.3,0-.7,0-1.1Z"/>
    <path class="st22" d="M53.9,47.1s0,0,0,0c.1-3.1-1-5-2.1-6.9-.6-1.1-1.4-2-2-2.6-.6-.6-.9-.9-1.4-1.4-.2-.2-.3-.3-.3-.3,0,0,0,0,0,0-.2.2-.1.1-.3.3.2.4,0,.2.6.8.5.6.8.8,1.4,1.4.6.6,1.4,1.5,2,2.6,1,1.7,2,3.5,2.1,6.1ZM11.9,44.8c0,.4,0,.8,0,1.3,0-.1,0-.3,0-.4v-.9ZM11.9,16.1c0-1.2-.1-2.9.9-5.1,1.1-2.4,3.5-4.2,6-5,0,0,.1,0,.2,0,2-.6,3.9-.8,5.7-.8h0s0,0,0,0c.6,0,1.2,0,1.9,0,.7,0,1.4,0,2.1,0h0c2.4.1,4.9.3,6.9.7,1.5.3,2.9.6,4.4,1.1,3,1,5.4,2,7.5,3.5,2.1,1.5,3.8,3.7,4.8,6,1,2.5,1.5,5,1.6,7.5,0,.3,0,.7,0,1,0,0,0,0,0,0,0-2.5-.5-5-1.6-7.5-1-2.3-2.7-4.5-4.8-6-2.1-1.5-4.5-2.5-7.5-3.5-1.5-.5-2.9-.9-4.4-1.1-2-.4-4.5-.6-6.9-.7h0c-.7,0-1.4,0-2.1,0-.6,0-1.2,0-1.9,0,0,0,0,0,0,0h0s0,0,0,0c-1.8,0-3.7.2-5.7.8,0,0-.1,0-.2,0-2.4.8-4.9,2.6-6,5-.8,1.7-.9,3.1-.9,4.2Z"/>
  </g>
  <g class="st7">
    <path class="st4" d="M3,1.1h58.1c1.6,0,3,1.3,3,3v58c0,1.6-1.3,3-3,3H3c-1.6,0-3-1.3-3-3V4.1C0,2.5,1.3,1.1,3,1.1Z"/>
    <path class="st0" d="M32,0H15.1C6.8,0,0,6.8,0,15.1v16.9h32V0Z"/>
    <path class="st29" d="M32,0h17c8.3,0,15,6.7,15,15v17h-32V0Z"/>
    <path class="st16" d="M32,63.9H14.5c-8,0-14.5-6.5-14.5-14.5v-17.5h32v32Z"/>
    <path class="st0" d="M32,63.9h17.3c8.1,0,14.7-6.6,14.7-14.7v-17.3h-32v32Z"/>
    <rect class="st26" x="9.1" y="9.1" width="45.7" height="45.7"/>
    <path class="st14" d="M16,49.1h18.3"/>
    <path class="st9" d="M16,48h18.3"/>
    <path class="st12" d="M34.3,35.4s9.2.8,9.1-9.1c0-9.9-9.1-9.1-9.1-9.1M34.3,35.4v-18.3"/>
    <path class="st15" d="M34.3,34.3s9.2.8,9.1-9.1c0-9.9-9.1-9.1-9.1-9.1M34.3,34.3V16"/>
    <path class="st14" d="M25.1,35.4l-4.6-6.9M16,26.3s9.1,1.1,9.1-4.6-9.1-4.6-9.1-4.6M16,35.4v-18.3"/>
    <path class="st9" d="M25.1,34.3l-4.6-6.9M16,25.1s9.1,1.1,9.1-4.6-9.1-4.6-9.1-4.6M16,34.3V16"/>
    <path class="st8" d="M3,0C1.3,0,0,1.3,0,3v1.1C0,2.5,1.3,1.1,3,1.1h58.1c1.6,0,3,1.3,3,3v-1.1c0-1.6-1.3-3-3-3H3Z"/>
  </g>
  <g class="st7">
    <path class="st6" d="M3.4,0h57.1c1.9,0,3.4,1.5,3.4,3.4v57.2c0,1.9-1.5,3.4-3.4,3.4H3.4c-1.9,0-3.4-1.5-3.4-3.4V3.4C0,1.5,1.5,0,3.4,0Z"/>
    <path class="st5" d="M3.4,0C1.5,0,0,1.5,0,3.4v1.1C0,2.7,1.5,1.1,3.4,1.1h57.1c1.9,0,3.4,1.5,3.4,3.4v-1.1c0-1.9-1.5-3.4-3.4-3.4H3.4Z"/>
    <path class="st4" d="M0,60.6v1.1c0,1.9,1.5,3.4,3.4,3.4h57.1c1.9,0,3.4-1.5,3.4-3.4v-1.1c0,1.9-1.5,3.4-3.4,3.4H3.4c-1.9,0-3.4-1.5-3.4-3.4Z"/>
    <g class="st23">
      <rect x="32.7" y="33.8" width="3.2" height="3.2" transform="translate(-15 34.6) rotate(-45)"/>
      <g>
        <path d="M41.1,12.6l-2.3,13.7h-9.1l-2.3-13.7h13.7Z"/>
        <path d="M29.7,28.6h9.1v2.3h-9.1v-2.3Z"/>
      </g>
      <g>
        <path d="M11.4,28.6l13.7,2.3v9.1l-13.7,2.3v-13.7Z"/>
        <path d="M27.4,40v-9.1h2.3v9.1h-2.3Z"/>
      </g>
      <g>
        <path d="M45.6,56l-8.1-11.3,6.5-6.5,11.3,8.1-9.7,9.7Z"/>
        <path d="M42.3,36.6l-6.5,6.5-1.6-1.6,6.5-6.5,1.6,1.6Z"/>
      </g>
    </g>
    <g>
      <rect class="st24" x="32.7" y="32.7" width="3.2" height="3.2" transform="translate(-14.2 34.3) rotate(-45)"/>
      <g>
        <path class="st24" d="M41.1,11.4l-2.3,13.7h-9.1l-2.3-13.7h13.7Z"/>
        <path class="st24" d="M29.7,27.4h9.1v2.3h-9.1v-2.3Z"/>
      </g>
      <g>
        <path class="st24" d="M11.4,27.4l13.7,2.3v9.1l-13.7,2.3v-13.7Z"/>
        <path class="st24" d="M27.4,38.9v-9.1h2.3v9.1h-2.3Z"/>
      </g>
      <g>
        <path class="st24" d="M45.6,54.9l-8.1-11.3,6.5-6.5,11.3,8.1-9.7,9.7Z"/>
        <path class="st24" d="M42.3,35.5l-6.5,6.5-1.6-1.6,6.5-6.5,1.6,1.6Z"/>
      </g>
    </g>
  </g>
  <g class="st7">
    <path class="st4" d="M63.8,31.4c-.4,1.3-1.3,2.5-2.7,3.2l-26.3,13.2-26.3,13.3c-2.7,1.4-6.2.6-7.7-1.8C.3,58.5,0,57.7,0,56.8v2.2c0,2.7,2.5,4.9,5.7,4.9,1,0,2-.2,2.8-.7l26.3-13.3,26.3-13.2c2.2-1.1,3.2-3.3,2.7-5.4h0Z"/>
    <path class="st2" d="M5.8,0C2.7,0,0,2.1,0,4.8,0,4.8,0,4.9,0,4.9v53c0,2.7,2.5,4.9,5.7,4.9,1,0,2-.2,2.8-.7l26.3-13.3,26.3-13.3c2.7-1.4,3.6-4.4,2.1-6.7-.5-.8-1.2-1.4-2.1-1.8l-26.3-13.2L8.5.7C7.7.3,6.8,0,5.8,0h0Z"/>
    <path class="st19" d="M29.5,19.1c1.3,0,2.5.9,2.5,2.1,0,0,0,0,0,0v22.7c0,1.2-1.1,2.1-2.4,2.1-.4,0-.8,0-1.2-.3l-11.3-5.7-11.3-5.7c-1.2-.6-1.6-1.9-.9-2.9.2-.3.5-.6.9-.8l11.3-5.7,11.3-5.7c.3-.2.7-.3,1.1-.3h0Z"/>
    <path class="st24" d="M29.5,18c1.3,0,2.5.9,2.5,2.1,0,0,0,0,0,0v22.7c0,1.2-1.1,2.1-2.4,2.1-.4,0-.8,0-1.2-.3l-11.3-5.7-11.3-5.7c-1.2-.6-1.6-1.9-.9-2.9.2-.3.5-.6.9-.8l11.3-5.7,11.3-5.7c.3-.2.7-.3,1.1-.3h0Z"/>
    <path class="st5" d="M5.8,0C2.7,0,0,2.1,0,4.8,0,4.8,0,4.9,0,4.9v1.1C0,3.3,2.5,1.1,5.7,1.1c0,0,.1,0,.2,0,.9,0,1.8.3,2.7.7l26.3,13.3,26.3,13.2c1.6.8,2.6,2.2,2.8,3.7.3-2-.8-3.9-2.8-4.9l-26.3-13.2L8.5.7C7.7.3,6.8,0,5.8,0Z"/>
  </g>
  <g class="st7">
    <path class="st4" d="M3.2,1.1h57.6c1.8,0,3.2,1.4,3.2,3.2v57.5c0,1.8-1.4,3.2-3.2,3.2H3.2c-1.8,0-3.2-1.4-3.2-3.2V4.3C0,2.6,1.4,1.1,3.2,1.1Z"/>
    <rect class="st3" width="64" height="63.9" rx="3.2" ry="3.2"/>
    <path class="st19" d="M16.2,5.5l-4.9,15.8,14.6-2.4-5.1-3.4c8.5-5.3,19.7-4,26.8,3.6l3.2-3c-4.8-5.2-11.3-7.9-17.8-8.1-5.2-.2-10.4,1.2-14.9,4.1l-1.9-6.5ZM6.7,18.5v29.2l9.8-14.6-9.8-14.6ZM57.3,18.5l-9.8,14.6,9.8,14.6v-29.2ZM32,19.1c-4,0-7.3,3.3-7.3,7.3,0,.2,0,.4,0,.6-3.8.3-6.8,3.4-6.8,7.3,0,4,3.3,7.3,7.3,7.3,1.9,0,3.7-.7,5.1-2v6.5h3.4v-6.5c1.4,1.3,3.2,2,5.1,2,4,0,7.3-3.3,7.3-7.3,0-3.8-3-7-6.8-7.3,0-.2,0-.4,0-.6,0-4-3.3-7.3-7.3-7.3ZM52.7,44.7l-14.6,2.4,5.1,3.4c-8.5,5.3-19.8,4-26.8-3.6l-3.2,3c8.6,9.3,22.5,10.7,32.8,4.1l1.9,6.5,4.9-15.8Z"/>
    <path class="st25" d="M6.7,17.3v29.2l9.8-14.6-9.8-14.6Z"/>
    <path class="st25" d="M57.3,17.3v29.2l-9.8-14.6,9.8-14.6Z"/>
    <path class="st13" d="M16,15.2c9.5-8.8,24.3-8.3,33.1,1.2"/>
    <path class="st13" d="M47.9,48.6c-9.5,8.8-24.3,8.2-33.1-1.3"/>
    <path class="st27" d="M11.3,20.2l4.9-15.8,2.4,8.5,7.3,4.9-14.6,2.4Z"/>
    <path class="st27" d="M52.7,43.6l-4.9,15.8-2.4-8.5-7.3-4.9,14.6-2.4Z"/>
    <ellipse class="st24" cx="32" cy="25.2" rx="7.3" ry="7.3"/>
    <ellipse class="st24" cx="38.7" cy="33.1" rx="7.3" ry="7.3"/>
    <ellipse class="st24" cx="25.3" cy="33.1" rx="7.3" ry="7.3"/>
    <rect class="st24" x="30.3" y="29.1" width="3.4" height="15.7"/>
    <path class="st8" d="M3.2,0C1.4,0,0,1.4,0,3.2v1.1C0,2.5,1.4,1.1,3.2,1.1h57.6c1.8,0,3.2,1.4,3.2,3.2v-1.1c0-1.8-1.4-3.2-3.2-3.2H3.2Z"/>
  </g>
  <g>
    <path class="st4" d="M64.1,60.2V5.9c0-2.6-2.2-4.8-4.8-4.8H4.8C2.2,1.1,0,3.2,0,5.9v54.3c0,2.6,2.2,4.8,4.8,4.8h54.5c2.7,0,4.8-2.1,4.8-4.8Z"/>
    <path class="st31" d="M64.1,49.1V14.8c0-8.2-6.6-14.8-14.8-14.8H14.8C6.6,0,0,6.6,0,14.8v34.3c0,8.2,6.6,14.8,14.8,14.8h34.5c8.2,0,14.8-6.6,14.8-14.8Z"/>
    <path class="st18" d="M14.7,0C6.6,0,0,6.6,0,14.7v6.6h21.4V0h-6.7Z"/>
    <path class="st17" d="M42.7,0v21.3h21.4v-6.6C64.1,6.6,57.5,0,49.3,0h-6.6Z"/>
    <rect class="st17" x="21.4" y="42.6" width="21.4" height="21.3"/>
    <path class="st20" d="M42.7,63.9v-21.3h21.4v6.6c0,8.1-6.6,14.7-14.7,14.7h-6.6Z"/>
    <rect class="st20" y="21.3" width="21.4" height="21.3"/>
    <rect class="st18" x="21.4" y="21.3" width="21.4" height="21.3"/>
    <path class="st26" d="M11.4,10.7c-.5,0-1,.2-1.2.5-.3.4-.4.9-.4,1.6s.1,1.3.4,1.6c.3.4.7.5,1.2.5s1-.2,1.2-.5c.3-.4.4-.9.4-1.6s-.1-1.3-.4-1.6c-.3-.4-.7-.5-1.2-.5ZM15.2,4.8v2.3c-.5-.2-1-.4-1.4-.5-.5-.1-.9-.2-1.3-.2-.9,0-1.7.3-2.2.8-.5.5-.8,1.3-.9,2.3.4-.3.7-.5,1.2-.6.4-.1.9-.2,1.4-.2,1.2,0,2.2.4,3,1.1.8.7,1.1,1.7,1.1,2.9s-.4,2.4-1.3,3.2c-.8.8-2,1.2-3.4,1.2-1.6,0-2.8-.5-3.6-1.6-.9-1.1-1.3-2.6-1.3-4.6s.5-3.6,1.5-4.8c1-1.2,2.4-1.8,4.1-1.8s1.1,0,1.6.1c.5,0,1,.2,1.6.4Z"/>
    <path class="st26" d="M6.4,25.6h9.6v1.9l-5,10.9h-3.2l4.7-10.4h-6.1v-2.4Z"/>
    <path class="st26" d="M34.7,31.5c.9.2,1.5.6,2,1.1.4.5.7,1.2.7,2,0,1.2-.5,2.2-1.5,2.8-1,.6-2.4.9-4.2.9-.7,0-1.3,0-2-.2-.7,0-1.3-.3-1.9-.5v-2.5c.6.3,1.2.5,1.8.7.6.1,1.2.2,1.8.2.9,0,1.5-.1,2-.4.5-.3.7-.7.7-1.3s-.2-1-.7-1.3c-.5-.3-1.2-.4-2.1-.4h-1.3v-2h1.4c.8,0,1.4-.1,1.8-.4.4-.3.6-.6.6-1.1s-.2-.8-.6-1.1c-.4-.3-.9-.4-1.7-.4s-1.1,0-1.6.2c-.5.1-1.1.3-1.6.5v-2.3c.6-.2,1.3-.3,1.9-.4.6,0,1.3-.1,1.9-.1,1.7,0,2.9.3,3.7.8.8.5,1.2,1.3,1.2,2.4s-.2,1.3-.6,1.8c-.4.5-1,.8-1.7,1Z"/>
    <path class="st26" d="M52.9,57.3h5.8v2.4h-9.6v-2.4l4.8-4c.4-.4.7-.7,1-1.1s.3-.7.3-1.1c0-.6-.2-1.1-.6-1.4-.4-.4-1-.5-1.7-.5s-1.1.1-1.7.3c-.6.2-1.3.5-2,1v-2.8c.8-.2,1.5-.4,2.3-.5.7-.1,1.5-.2,2.2-.2,1.6,0,2.8.3,3.7,1,.9.7,1.3,1.6,1.3,2.8s-.2,1.3-.6,1.9c-.4.6-1.2,1.4-2.3,2.4l-2.8,2.4Z"/>
    <path class="st8" d="M4.8,0C2.1,0,0,2.1,0,4.8v1.1C0,3.2,2.1,1.1,4.8,1.1h54.5c2.7,0,4.8,2.1,4.8,4.8v-1.1c0-2.7-2.1-4.8-4.8-4.8H4.8Z"/>
    <rect class="st19" y="21.3" width="42.7" height="1.1"/>
    <rect class="st21" y="42.6" width="42.7" height="1.1"/>
    <rect class="st21" x="42.7" y="21.3" width="21.4" height="1.1"/>
    <rect class="st19" x="42.7" y="42.6" width="21.4" height="1.1"/>
  </g>
</svg>