<?xml version="1.0" standalone="no"?><!DOCTYPE svg PUBLIC "-//W3C//DTD SVG 1.1//EN" "http://www.w3.org/Graphics/SVG/1.1/DTD/svg11.dtd"><svg t="1722900612726" class="icon" viewBox="0 0 1264 1024" version="1.1" xmlns="http://www.w3.org/2000/svg" p-id="83943" xmlns:xlink="http://www.w3.org/1999/xlink" width="22.875" height="22"><path d="M92.960348 704.132688c0 147.201751 191.676214 266.497957 428.0013 266.497957s428.0013-119.296206 428.0013-266.497957-191.676214-266.497957-428.0013-266.497958S92.960348 556.930936 92.960348 704.132688" fill="#FFFFFF" p-id="83944"></path><path d="M531.077408 949.003847C321.785819 969.758596 141.097413 875.054152 127.49346 737.793752c-13.603953-137.43481 145.108835-265.451499 354.226015-286.206249 209.291589-20.754749 389.979995 73.949695 403.409538 211.210096 13.778363 137.43481-144.934426 265.625909-354.051605 286.206248m418.408769-456.081255c-17.789785-5.406699-29.998461-8.894893-20.754749-32.265787 20.23152-50.75321 22.324436-94.530035 0.348819-125.923773-40.98627-58.601645-153.306089-55.462271-282.020417-1.569687 0 0-40.463041 17.615375-29.998461-14.301591 19.708291-63.659525 16.743327-116.854471-13.952772-147.724981-69.763863-69.938273-255.510149 2.616145-414.746167 161.852163C69.240634 452.110732 0 578.557734 0 687.912589c0 208.94277 268.067644 336.087411 530.20536 336.087411 343.761436 0 572.412497-199.699058 572.412497-358.237437 0.17441-95.925312-80.577262-150.341125-153.13168-172.839971" fill="#E6162D" p-id="83945"></path><path d="M1177.788419 110.442212C1094.769422 18.353913 972.333842-16.702428 859.316384 7.366105c-26.161449 5.581109-42.730366 31.393738-37.149257 57.380777 5.581109 26.161449 31.219329 42.730366 57.380777 37.149257 80.402852-17.092146 167.433271 7.848435 226.383736 73.252056 58.950464 65.403622 74.996153 154.526957 49.706753 232.662484-8.197254 25.46381 5.755519 52.671717 31.219328 60.868971 25.46381 8.197254 52.671717-5.755519 60.868971-31.04492v-0.174409c35.57957-109.703675 13.080724-235.104219-69.938273-327.018109" fill="#FF9933" p-id="83946"></path><path d="M1050.294959 225.552587c-40.463041-44.823282-100.111144-61.915429-155.050186-50.055572-22.498846 4.709061-36.800438 27.033497-32.091377 49.532343 4.88347 22.498846 27.033497 36.800438 49.357934 31.916967 26.859087-5.755519 56.15991 2.616145 75.868201 24.417352 19.708291 21.975617 25.114991 51.799668 16.568917 77.961117-6.976386 21.801207 4.88347 45.346511 26.859088 52.497307 21.975617 6.976386 45.346511-4.88347 52.497307-26.859087 17.266556-53.543765 6.453157-114.587145-34.009884-159.410427" fill="#FF9933" p-id="83947"></path><path d="M542.588445 700.295675c-7.325206 12.557495-23.545304 18.487424-36.102799 13.255134-12.557495-5.05788-16.394508-19.185062-9.243712-31.393738 7.325206-12.208676 22.847665-18.138604 35.230751-13.255134 12.557495 4.534651 17.092146 18.661833 10.11576 31.393738m-66.798899 85.460732c-20.23152 32.265787-63.659525 46.392969-96.274131 31.568149-32.091377-14.650411-41.683908-52.148488-21.452388-83.716636 20.057111-31.393738 61.915429-45.346511 94.355625-31.742558 32.789016 14.127182 43.253595 51.276439 23.370894 83.891045m76.042611-228.476651c-99.587915-25.987039-212.082144 23.719713-255.335739 111.447771-44.125643 89.472154-1.395277 188.885659 99.064686 221.325856 104.296975 33.661064 227.081374-17.964195 269.811741-114.412736 42.207137-94.530035-10.464579-191.676214-113.540688-218.360891" p-id="83948"></path></svg>
