<?xml version="1.0" encoding="UTF-8"?>
<svg id="_图层_1" xmlns="http://www.w3.org/2000/svg" version="1.1" viewBox="0 0 64 64" width="22" height="22">
  <!-- Generator: Adobe Illustrator 29.0.1, SVG Export Plug-In . SVG Version: 2.1.0 Build 192)  -->
  <defs>
    <style>
      .st0, .st1, .st2, .st3 {
        display: none;
      }

      .st0, .st4 {
        fill: #4a1a3a;
      }

      .st1, .st2, .st5, .st6 {
        isolation: isolate;
      }

      .st1, .st5 {
        opacity: .2;
      }

      .st2, .st7, .st6 {
        fill: #fff;
      }

      .st2, .st6 {
        opacity: .1;
      }

      .st8 {
        fill: #d38b2e;
      }

      .st9 {
        fill: #5481c5;
      }

      .st10 {
        fill: #3b1530;
      }

      .st11 {
        fill: #667b9e;
      }

      .st12 {
        fill: #e4e4e4;
      }

      .st13 {
        fill: #a1bde8;
      }
    </style>
  </defs>
  <path class="st4" d="M50.5,64H13.9c-7.6,0-13.9-6.2-13.9-13.7V13.7C0,6.2,6.3,0,13.8,0h36.6c7.5,0,13.7,6.2,13.7,13.7v36.6c0,7.5-6.2,13.7-13.7,13.7h.1Z"/>
  <g class="st3">
    <path class="st5" d="M4.1,27.1c0,.3,0,.5,0,.8,0,6,4.9,10.9,11,10.9h23.4c5.3,0,9.6-4.3,9.6-9.5s0-.7,0-1c-.5,4.8-4.5,8.6-9.5,8.6H15c-5.7,0-10.3-4.2-10.9-9.7h0Z"/>
    <path class="st13" d="M26,7.8c-5.7,0-10.5,3.5-12.6,8.4-5.3.8-9.4,5.3-9.4,10.7s4.9,10.9,11,10.9h23.4c5.3,0,9.6-4.3,9.6-9.5s-3.7-8.9-8.5-9.5c-1.2-6.3-6.8-11-13.5-11Z"/>
    <path class="st6" d="M26,7.8c-5.7,0-10.5,3.5-12.6,8.4-5.3.8-9.4,5.3-9.4,10.7s0,.3,0,.4c.3-5.2,4.2-9.4,9.3-10.2,2.1-4.9,6.9-8.4,12.6-8.4s12.2,4.7,13.5,11c4.6.5,8.1,4.2,8.5,8.8,0-.1,0-.2,0-.3,0-4.9-3.7-8.9-8.5-9.5-1.2-6.3-6.8-11-13.5-11Z"/>
    <path class="st5" d="M16.1,41.1c0,.3,0,.5,0,.8,0,6,4.9,10.9,11,10.9h23.4c5.3,0,9.6-4.3,9.6-9.5s0-.7,0-1c-.5,4.8-4.5,8.6-9.5,8.6h-23.4c-5.7,0-10.3-4.2-10.9-9.7Z"/>
    <path class="st9" d="M38,21.8c-5.7,0-10.5,3.5-12.6,8.4-5.3.8-9.4,5.3-9.4,10.7s4.9,10.9,11,10.9h23.4c5.3,0,9.6-4.3,9.6-9.5s-3.7-8.9-8.5-9.5c-1.2-6.3-6.8-11-13.5-11h0Z"/>
    <path class="st6" d="M38,21.8c-5.7,0-10.5,3.5-12.6,8.4-5.3.8-9.4,5.3-9.4,10.7s0,.3,0,.5c.3-5.2,4.2-9.5,9.3-10.2,2.1-4.9,6.9-8.4,12.6-8.4s12.2,4.7,13.5,11c4.6.5,8.2,4.3,8.5,8.9,0-.2,0-.3,0-.5,0-4.9-3.7-8.9-8.5-9.5-1.2-6.3-6.8-11-13.5-11Z"/>
  </g>
  <g>
    <path class="st1" d="M2.9,1.1h45.6c1.8,0,3.3,1.3,3.3,3v53.3c0,1.6-1.5,3-3.3,3H2.9c-1.8,0-3.3-1.3-3.3-3V4C-.4,2.4,1,1.1,2.9,1.1Z"/>
    <path class="st0" d="M2.9,0h45.6c1.8,0,3.3,1.3,3.3,3v53.3c0,1.6-1.5,3-3.3,3H2.9c-1.8,0-3.3-1.3-3.3-3V3C-.4,1.3,1,0,2.9,0Z"/>
    <path class="st10" d="M0,50.2h0c-.1,9.6,9.3,13.9,12.3,13.6h37.6c7.3,0,14-4.1,14.2-13.6H0Z"/>
    <rect class="st5" x="6.7" y="8.5" width="33.2" height="2.1"/>
    <rect class="st12" x="6.7" y="7.4" width="33.2" height="2.1"/>
    <rect class="st5" x="11.4" y="12.7" width="28.5" height="2.1"/>
    <rect class="st11" x="11.4" y="11.6" width="28.5" height="2.1"/>
    <rect class="st5" x="6.7" y="21.2" width="33.2" height="2.1"/>
    <rect class="st12" x="6.7" y="20.1" width="33.2" height="2.1"/>
    <rect class="st5" x="11.4" y="25.4" width="28.5" height="2.1"/>
    <rect class="st11" x="11.4" y="24.3" width="28.5" height="2.1"/>
    <rect class="st5" x="6.7" y="33.8" width="33.2" height="2.1"/>
    <rect class="st12" x="6.7" y="32.8" width="33.2" height="2.1"/>
    <rect class="st5" x="11.4" y="38.1" width="28.5" height="2.1"/>
    <rect class="st11" x="11.4" y="37" width="28.5" height="2.1"/>
    <ellipse class="st5" cx="44.7" cy="46.5" rx="19" ry="16.9"/>
    <ellipse class="st8" cx="44.7" cy="45.5" rx="19" ry="16.9"/>
    <path class="st7" d="M37.5,41.3v2.1h14.2v-2.1h-14.2ZM37.5,47.6v2.1h14.2v-2.1h-14.2Z"/>
    <path class="st2" d="M2.9,0C1,0-.4,1.3-.4,3v1.1C-.4,2.4,1,1.1,2.9,1.1h45.6c1.8,0,3.3,1.3,3.3,3v-1.1c0-1.6-1.5-3-3.3-3H2.9Z"/>
  </g>
</svg>