<?xml version="1.0" encoding="UTF-8"?>
<svg id="_图层_1" xmlns="http://www.w3.org/2000/svg" version="1.1" viewBox="0 0 64 64" width="22" height="22">
  <!-- Generator: Adobe Illustrator 29.0.1, SVG Export Plug-In . SVG Version: 2.1.0 Build 192)  -->
  <defs>
    <style>
      .st0 {
        fill: #cd5252;
      }

      .st1 {
        fill: #4f4f4f;
      }

      .st2, .st3 {
        fill: #ffbc66;
      }

      .st2, .st4, .st5, .st6, .st7 {
        display: none;
      }

      .st4, .st8, .st9, .st10, .st11, .st7, .st12 {
        isolation: isolate;
      }

      .st4, .st9, .st11, .st7 {
        opacity: .2;
      }

      .st13, .st11, .st7, .st12 {
        fill: #fff;
      }

      .st5 {
        fill: #1ebfbf;
      }

      .st14 {
        fill: #303030;
      }

      .st8, .st12 {
        opacity: .1;
      }

      .st15 {
        fill: #ed3312;
      }

      .st10 {
        opacity: .5;
      }

      .st16 {
        fill: #f5432a;
      }
    </style>
  </defs>
  <path class="st3" d="M50.4,64H13.8c-7.6,0-13.8-6.2-13.8-13.7V13.7C0,6.2,6.2,0,13.7,0h36.6c7.5,0,13.7,6.2,13.7,13.7v36.6c0,7.5-6.2,13.7-13.7,13.7h.1Z"/>
  <g class="st6">
    <path class="st9" d="M7.4,49.6v1.6c0,1.2,1.1,2.2,2.4,2.2h2.3c1.3,0,2.4-1,2.4-2.2v-1.6c0,1.2-1.1,2.2-2.4,2.2h-2.3c-1.3,0-2.4-1-2.4-2.2ZM50.6,49.6v1.6c0,1.2,1.1,2.2,2.4,2.2h2.3c1.3,0,2.4-1,2.4-2.2v-1.6c0,1.2-1.1,2.2-2.4,2.2h-2.3c-1.3,0-2.4-1-2.4-2.2h0Z"/>
    <path class="st14" d="M9.8,39.6c-1.3,0-2.4,1-2.4,2.2v8.7c0,1.2,1.1,2.2,2.4,2.2h2.3c1.3,0,2.4-1,2.4-2.2v-8.7c0-1.2-1.1-2.2-2.4-2.2,0,0-2.3,0-2.3,0ZM53,39.6c-1.3,0-2.4,1-2.4,2.2v8.7c0,1.2,1.1,2.2,2.4,2.2h2.3c1.3,0,2.4-1,2.4-2.2v-8.7c0-1.2-1.1-2.2-2.4-2.2h-2.3,0Z"/>
    <path class="st1" d="M32.6,6.9c-9.3,0-16.8,6.7-16.8,14.9s.2,2.8.7,4.2c0,0-2.6,8.3-1.7,12.5.2,1.2.7,2.4,1.4,3.4,2.6-3.1,9.1-5.2,16.5-5.2,7.4,0,13.9,2.1,16.5,5.2.7-1.1,1.2-2.2,1.4-3.4.8-4.1-1.7-12.5-1.7-12.5.4-1.3.7-2.7.7-4.2,0-8.2-7.5-14.9-16.8-14.9h0Z"/>
    <ellipse class="st9" cx="23.6" cy="19.1" rx="3.6" ry="3.3"/>
    <ellipse class="st13" cx="23.6" cy="18.3" rx="3.6" ry="3.3"/>
    <ellipse class="st9" cx="41.6" cy="19.1" rx="3.6" ry="3.3"/>
    <ellipse class="st13" cx="41.6" cy="18.3" rx="3.6" ry="3.3"/>
    <ellipse class="st13" cx="32.6" cy="35.5" rx="12.6" ry="12.6"/>
    <ellipse class="st14" cx="23.6" cy="18.3" rx="1.8" ry="1.6"/>
    <ellipse class="st14" cx="41.6" cy="18.3" rx="1.8" ry="1.6"/>
    <path class="st9" d="M29,21.6h7.2c-.6,5-3.6,9.8-3.6,9.8,0,0-3.6-5.7-3.6-9.8Z"/>
    <path class="st0" d="M29,19.9h7.2c-.6,5-3.6,9.8-3.6,9.8,0,0-3.6-5.7-3.6-9.8Z"/>
    <path class="st14" d="M32.6,29.8c-4,0-7.2,2.9-7.2,6.5s3.2,6.5,7.2,6.5,7.2-2.9,7.2-6.5-3.2-6.5-7.2-6.5ZM32.6,32.4c1,0,2,.3,2.8.9l-2.8,1.5-2.8-1.5c.8-.6,1.8-.9,2.8-.9h0ZM36.8,35.6c0,.2,0,.5,0,.7,0,1.7-1.2,3.1-2.9,3.7v-2.9l2.8-1.5h0ZM28.3,35.6l2.8,1.5v2.9c-1.7-.6-2.9-2-2.9-3.7,0-.2,0-.5,0-.7h0Z"/>
    <path class="st9" d="M14.7,44.2c-.1.3-.2.7-.2,1.1h1.1s-.6-.5-.9-1.1h0ZM50.4,44.2c-.3.6-.9,1.1-.9,1.1h1.1c0-.4,0-.7-.2-1.1h0ZM9.2,50.2v1.6h11.1c3.3,1.5,7.7,1.6,12.3,1.6,4.6,0,9-.1,12.3-1.6h11.1v-1.6h-11.1c-3.3,1.5-7.7,1.6-12.3,1.6-4.6,0-9-.1-12.3-1.6h-11.1,0Z"/>
    <path class="st16" d="M32.6,36.3c-9.7,0-18,3.7-18,8.2,0,.8,1.1,1.6,1.1,1.6h-6.5v4.9h11.1c3.3,1.5,7.7,1.6,12.3,1.6,4.6,0,9-.1,12.3-1.6h11.1v-4.9h-6.5s1.1-.8,1.1-1.6c0-4.5-8.3-8.2-18-8.2Z"/>
    <path class="st1" d="M16.9,26.2c1.7-1.6,6.2-1.3,10,.7s5.5,4.8,3.7,6.4-6.2,1.3-10-.7-5.5-4.8-3.7-6.4Z"/>
    <path class="st1" d="M48.3,26.2c-1.7-1.6-6.2-1.3-10,.7s-5.5,4.8-3.7,6.4,6.2,1.3,10-.7,5.5-4.8,3.7-6.4Z"/>
    <ellipse class="st9" cx="22.7" cy="44.6" rx="2.7" ry="2.3"/>
    <ellipse class="st13" cx="22.7" cy="43.8" rx="2.7" ry="2.3"/>
    <ellipse class="st9" cx="42.5" cy="44.6" rx="2.7" ry="2.3"/>
    <ellipse class="st13" cx="42.5" cy="43.8" rx="2.7" ry="2.3"/>
    <path class="st10" d="M32,41.2c-.3,0-.6.7-.6,1.6v3.3c0,.9.3,1.6.6,1.6s.6-.7.6-1.6v-3.3c0-.9-.3-1.6-.6-1.6h0ZM29.6,42.3c-.3,0-.6.5-.6,1.1v2.2c0,.6.3,1.1.6,1.1s.6-.5.6-1.1v-2.2c0-.6-.3-1.1-.6-1.1h0Z"/>
    <path class="st10" d="M33.2,41.2c.3,0,.6.7.6,1.6v3.3c0,.9-.3,1.6-.6,1.6s-.6-.7-.6-1.6v-3.3c0-.9.3-1.6.6-1.6h0ZM35.6,42.3c.3,0,.6.5.6,1.1v2.2c0,.6-.3,1.1-.6,1.1s-.6-.5-.6-1.1v-2.2c0-.6.3-1.1.6-1.1h0Z"/>
    <path class="st11" d="M32.6,36.3c-9.7,0-18,3.7-18,8.2,0,0,0,.2,0,.3.6-4.3,8.6-7.6,17.9-7.6s17.3,3.4,18,7.6c0,0,0-.2,0-.3,0-4.5-8.3-8.2-18-8.2h0Z"/>
    <path class="st11" d="M9.2,46.1v.8h6.5s-.4-.4-.8-.8h-5.7Z"/>
    <path class="st11" d="M50.2,46.1c-.3.5-.8.8-.8.8h6.5v-.8h-5.7Z"/>
    <path class="st12" d="M53,39.6c-1.3,0-2.4,1-2.4,2.2v.8c0-1.2,1.1-2.2,2.4-2.2h2.3c1.3,0,2.4,1,2.4,2.2v-.8c0-1.2-1.1-2.2-2.4-2.2h-2.3ZM9.8,39.6c-1.3,0-2.4,1-2.4,2.2v.8c0-1.2,1.1-2.2,2.4-2.2h2.3c1.3,0,2.4,1,2.4,2.2v-.8c0-1.2-1.1-2.2-2.4-2.2h-2.3Z"/>
    <path class="st12" d="M32.6,6.9c-9.3,0-16.8,6.7-16.8,14.9s0,.3,0,.5c.2-8.1,7.7-14.6,16.8-14.6s16.6,6.5,16.8,14.6c0-.2,0-.3,0-.5,0-8.2-7.5-14.9-16.8-14.9ZM48.8,26.4c0,.1,0,.3-.1.4,0,0,1.8,5.8,1.9,10.1.1-4-1.5-9.6-1.8-10.5ZM16.3,26.4c-.3,1-1.9,6.5-1.8,10.5.1-4.3,1.9-10.1,1.9-10.1,0-.1,0-.3-.1-.4Z"/>
  </g>
  <g class="st6">
    <path class="st4" d="M47.8,1.1h-17.9c-11.9,0-18.6,6.3-19.9,9.4C4,24.7,0,53,0,56.2s4,7.9,8,7.9,4.6-.2,7.6-1.2c9.3-3.1,20.3-7.1,31.6-11.6,6.9-3.2,16.8-10.8,16.8-18.7V10.6c0-6.3-8.2-9.4-16.2-9.4Z"/>
    <path class="st5" d="M47.8,0h-17.9C17.9,0,11.3,6.3,10,9.4,4,23.6,0,51.9,0,55.1s4,7.9,8,7.9,4.6-.2,7.6-1.2c9.3-3.1,20.3-7.1,31.6-11.6,6.9-3.2,16.8-10.8,16.8-18.7V9.4c0-6.3-8.2-9.4-16.2-9.4Z"/>
    <path class="st9" d="M48.4,13.9c0-.9-.8-1.6-2-1.6-9.1,0-17.9,5.5-17.9,12.6v6.3c0,3.9-4.6,5.8-9.4,5.8s-2,.6-2,1.6v3.6c0,.9.8,1.6,2,1.6,9.1,0,17.9-5.5,17.9-12.6v-6.3c0-3.9,4.6-5.8,9.4-5.8s2-.6,2-1.6v-3.6Z"/>
    <path class="st13" d="M48.4,12.8c0-.9-.8-1.6-2-1.6-9.1,0-17.9,5.5-17.9,12.6v6.3c0,3.9-4.6,5.8-9.4,5.8s-2,.6-2,1.6v3.6c0,.9.8,1.6,2,1.6,9.1,0,17.9-5.5,17.9-12.6v-6.3c0-3.9,4.6-5.8,9.4-5.8s2-.6,2-1.6v-3.6Z"/>
    <path class="st7" d="M29.9,0C17.9,0,11.3,6.3,10,9.4,4,23.6,0,51.9,0,55.1s0,.4,0,.7c.2-4.3,4.1-31.4,9.9-45.2,1.3-3.1,8-9.4,19.9-9.4h17.9c8,0,16.2,3.1,16.2,9.4v-1.1c0-6.3-8.2-9.4-16.2-9.4h-17.9Z"/>
  </g>
  <g>
    <ellipse class="st4" cx="32" cy="33.1" rx="32" ry="31.9"/>
    <ellipse class="st2" cx="32" cy="31.9" rx="32" ry="31.9"/>
    <path class="st8" d="M48.8,47.1c-4-1.7-7.1-4.1-9.4-7.4-3.8-5.4-6.5-12.9-7.3-21.2,0-.7-.1-1.2-.1-1.2,0,0,0,.6-.1,1.3-1.5,8.6-3.3,16-8.8,22.6-2.2,2.6-5,4.6-8.2,5.9l-.7.3-.2-.2c-1.2-1.5-2.7-4.1-3.3-5.9-2.1-5.7-1.9-11.8.5-17.3,2.9-6.5,8.7-11.3,15.6-12.9,2.2-.5,4.8-.7,6.9-.6,3.2.3,5.7,1,8.5,2.3,4.5,2.2,8.1,5.8,10.3,10.2,1.8,3.5,2.6,7.6,2.4,11.4-.2,4-1.4,7.6-3.4,10.9-.5.8-1.6,2.3-1.7,2.3,0,0-.4-.2-.9-.4h0ZM31.3,16.9c.4,0,.7,0,1.3,0,.9.1,1,0,.7-.4-.4-.7-.6-1.2-.8-2,0-.5-.2-1-.3-1.1-.2-.3-.4-.4-.6-.1-.2.2-.2.5-.5,1.9,0,.4-.2.7-.5,1.1-.5.8-.4.8.6.7h0Z"/>
    <path class="st15" d="M48.8,45.9c-4-1.7-7.1-4.1-9.4-7.4-3.8-5.4-6.5-12.9-7.3-21.2,0-.7-.1-1.2-.1-1.2,0,0,0,.6-.1,1.3-1.5,8.6-3.3,16-8.8,22.6-2.2,2.6-5,4.6-8.2,5.9l-.7.3-.2-.2c-1.2-1.5-2.7-4.1-3.3-5.9-2.1-5.7-1.9-11.8.5-17.3,2.9-6.5,8.7-11.3,15.6-12.9,2.2-.5,4.8-.7,6.9-.6,3.2.3,5.7,1,8.5,2.3,4.5,2.2,8.1,5.8,10.3,10.2,1.8,3.5,2.6,7.6,2.4,11.4-.2,4-1.4,7.6-3.4,10.9-.5.8-1.6,2.3-1.7,2.3,0,0-.4-.2-.9-.4h0ZM31.3,15.7c.4,0,.7,0,1.3,0,.9.1,1,0,.7-.4-.4-.7-.6-1.2-.8-2,0-.5-.2-1-.3-1.1-.2-.3-.4-.4-.6-.1-.2.2-.2.5-.5,1.9,0,.4-.2.7-.5,1.1-.5.8-.4.8.6.7h0Z"/>
    <path class="st7" d="M32,0C14.3,0,0,14.3,0,31.9c0,.2,0,.4,0,.6C.4,15.1,14.6,1.2,32,1.1c17.3,0,31.5,13.8,32,31.1,0,0,0-.2,0-.3C64,14.3,49.7,0,32,0Z"/>
  </g>
</svg>