<?xml version="1.0" encoding="UTF-8"?>
<svg id="_图层_1" xmlns="http://www.w3.org/2000/svg" version="1.1" viewBox="0 0 64 64" width="22" height="22">
  <!-- Generator: Adobe Illustrator 29.0.1, SVG Export Plug-In . SVG Version: 2.1.0 Build 192)  -->
  <defs>
    <style>
      .st0, .st1 {
        fill: #009587;
      }

      .st2 {
        fill: #48aeff;
      }

      .st2, .st3, .st1, .st4, .st5 {
        display: none;
      }

      .st3, .st6, .st7, .st5 {
        opacity: .2;
      }

      .st3, .st7, .st5 {
        isolation: isolate;
      }

      .st8, .st5 {
        fill: #fff;
      }
    </style>
  </defs>
  <path class="st0" d="M50.4,64H13.8c-7.6,0-13.8-6.2-13.8-13.7V13.7C0,6.2,6.2,0,13.7,0h36.5c7.5,0,13.7,6.2,13.7,13.7v36.6c0,7.5-6.2,13.7-13.7,13.7h.1Z"/>
  <g class="st4">
    <path class="st3" d="M31.9,1.1C14.3,1.1,0,15.4,0,33s14.3,31.8,31.9,31.8,31.9-14.3,31.9-31.8S49.6,1.1,31.9,1.1Z"/>
    <path class="st2" d="M31.9,0C14.3,0,0,14.3,0,31.8s14.3,31.8,31.9,31.8,31.9-14.3,31.9-31.8S49.6,0,31.9,0Z"/>
    <path class="st7" d="M21.8,17.1c0,0-.2,0-.2,0-.8,0-1.5.3-1.8.8l-8,10.3c-.6.8-.3,1.8.8,2.3.3.1.7.2,1.1.2h4.6v14.9c0,1.8,1.5,3.3,3.3,3.3h.2c1.8,0,3.3-1.5,3.3-3.3v-14.9h4.6c1.3,0,2.3-.8,2.3-1.7,0-.3-.1-.6-.3-.8l-8-10.3c-.4-.5-1.1-.8-1.9-.8ZM42.1,17.1c-1.8,0-3.3,1.5-3.3,3.3v14.9h-4.6c-1.3,0-2.3.8-2.3,1.7,0,.3.1.6.3.8l8,10.3c.4.5,1.1.8,1.8.8.9,0,1.7-.3,2.1-.8l8-10.3c.6-.8.3-1.8-.8-2.3-.3-.1-.7-.2-1.1-.2h-4.6v-14.9c0-1.8-1.5-3.3-3.3-3.3h-.2Z"/>
    <g>
      <path class="st8" d="M21.6,18.2h.3c1.8,0,3.3,1.5,3.3,3.3v23c0,1.8-1.5,3.3-3.3,3.3h-.3c-1.8,0-3.3-1.5-3.3-3.3v-23c0-1.8,1.5-3.3,3.3-3.3Z"/>
      <path class="st8" d="M21.6,15.9c-.8,0-1.5.3-1.8.8l-8,10.3c-.6.8-.3,1.8.8,2.3.3.1.7.2,1.1.2h16c1.3,0,2.3-.8,2.3-1.7,0-.3-.1-.6-.3-.8l-8-10.3c-.4-.6-1.2-.9-2.1-.8Z"/>
    </g>
    <g>
      <path class="st8" d="M42.1,45.5h.3c1.8,0,3.3-1.5,3.3-3.3v-23c0-1.8-1.5-3.3-3.3-3.3h-.3c-1.8,0-3.3,1.5-3.3,3.3v23c0,1.8,1.5,3.3,3.3,3.3Z"/>
      <path class="st8" d="M42.1,47.8c-.8,0-1.5-.3-1.8-.8l-8-10.3c-.6-.8-.3-1.8.8-2.3.3-.1.7-.2,1.1-.2h16c1.3,0,2.3.8,2.3,1.7,0,.3-.1.6-.3.8l-8,10.3c-.4.6-1.2.9-2.1.8Z"/>
    </g>
    <path class="st5" d="M31.9,0C14.3,0,0,14.3,0,31.8c0,.2,0,.3,0,.5C.4,15,14.6,1.1,31.9,1.1c17.4,0,31.7,14,31.9,31.4,0-.2,0-.4,0-.7C63.9,14.3,49.6,0,31.9,0Z"/>
  </g>
  <g>
    <ellipse class="st3" cx="31.9" cy="33.1" rx="31.5" ry="31.5"/>
    <ellipse class="st1" cx="31.9" cy="31.9" rx="31.5" ry="31.5"/>
    <g class="st6">
      <path d="M31.9,12.8c-4.4,0-7.9,3.5-7.9,7.9s3.5,7.9,7.9,7.9,7.9-3.5,7.9-7.9-3.5-7.9-7.9-7.9Z"/>
      <path d="M31.9,34.2c-15.8,0-15.8,10-15.8,10v4.1s2.9,6.2,15.8,6.2,15.8-6.2,15.8-6.2v-4.1s0-10-15.8-10h0Z"/>
    </g>
    <g>
      <path class="st8" d="M31.9,11.7c-4.4,0-7.9,3.5-7.9,7.9s3.5,7.9,7.9,7.9,7.9-3.5,7.9-7.9-3.5-7.9-7.9-7.9Z"/>
      <path class="st8" d="M31.9,33.1c-15.8,0-15.8,10-15.8,10v4.1s2.9,6.2,15.8,6.2,15.8-6.2,15.8-6.2v-4.1s0-10-15.8-10h0Z"/>
    </g>
    <path class="st5" d="M31.9.4C14.5.4.4,14.5.4,31.9c0,.2,0,.4,0,.6C.7,15.3,14.8,1.5,31.9,1.5c17.2,0,31.2,13.8,31.5,31,0-.2,0-.4,0-.6C63.5,14.5,49.4.4,31.9.4Z"/>
  </g>
</svg>