<?xml version="1.0" encoding="UTF-8"?>
<svg id="_图层_1" xmlns="http://www.w3.org/2000/svg" version="1.1" viewBox="0 0 64 64" width="22" height="22">
  <!-- Generator: Adobe Illustrator 29.0.1, SVG Export Plug-In . SVG Version: 2.1.0 Build 192)  -->
  <defs>
    <style>
      .st0 {
        fill: #5d51ae;
      }

      .st1, .st2 {
        fill: #fff;
      }

      .st3 {
        opacity: .2;
      }

      .st3, .st2 {
        isolation: isolate;
      }

      .st2 {
        opacity: .1;
      }
    </style>
  </defs>
  <path class="st1" d="M50.5,64H13.9c-7.6,0-13.9-6.2-13.9-13.7V13.7C0,6.2,6.3,0,13.8,0h36.6c7.5,0,13.7,6.2,13.7,13.7v36.6c0,7.5-6.2,13.7-13.7,13.7h.1Z"/>
  <g>
    <path class="st3" d="M40.2,18.3c-2.6,0-4.9,1.1-6.6,2.9,3,2.3,5.3,5.5,5.3,9.1h-4c0-1.7-1.3-4-3.5-5.8-1.6-1.3-3.6-2.2-5.9-2.2h-13.3c-5,0-9.3,4.1-9.3,9.2v7.8c0,5.1,4.4,9.1,9.3,9.1h4.7c0,2.2,1.8,4,4,4,1,0,2-.4,2.7-1.1l3.2-2.9h-1.3c2.6,0,4.9-1.1,6.6-2.8-3-2.3-5.3-5.5-5.3-9.2h4c0,1.8,1.4,4.2,3.7,6,1.6,1.2,3.5,2,5.6,2h4.7l3.2,2.9c1.6,1.5,4.2,1.4,5.7-.2.7-.7,1.1-1.7,1.1-2.7v-.3c4.3-.7,8-4.2,8-8.8v-7.8c0-5.1-4.3-9.2-9.3-9.2h-13.3Z"/>
    <path class="st0" d="M40.2,17.3c-2.6,0-4.9,1.1-6.6,2.9,3,2.3,5.3,5.5,5.3,9.1h-4c0-1.7-1.3-4-3.5-5.8-1.6-1.3-3.6-2.2-5.9-2.2h-13.3c-5,0-9.3,4.1-9.3,9.2v7.8c0,5.1,4.4,9.1,9.3,9.1h4.7c0,2.2,1.8,4,4,4,1,0,2-.4,2.7-1.1l3.2-2.9h-1.3c2.6,0,4.9-1.1,6.6-2.8-3-2.3-5.3-5.5-5.3-9.2h4c0,1.8,1.4,4.2,3.7,6,1.6,1.2,3.5,2,5.6,2h4.7l3.2,2.9c1.6,1.5,4.2,1.4,5.7-.2.7-.7,1.1-1.7,1.1-2.7v-.3c4.3-.7,8-4.2,8-8.8v-7.8c0-5.1-4.3-9.2-9.3-9.2h-13.3Z"/>
    <path class="st3" d="M40.2,22.3c-3,0-5.3,2.3-5.3,5.2v7.8c0,2.9,2.4,5.1,5.3,5.1h6.3l4.4,4v-4h2.7c3,0,5.3-2.2,5.3-5.1v-7.8c0-2.9-2.4-5.2-5.3-5.2h-13.3ZM12.2,26.3c-3,0-5.3,2.3-5.3,5.2v7.8c0,2.9,2.4,5.1,5.3,5.1h8.7v4l4.4-4h.3c3,0,5.3-2.2,5.3-5.1v-7.8c0-2.9-2.4-5.2-5.3-5.2h-13.3Z"/>
    <path class="st1" d="M40.2,21.3c-3,0-5.3,2.3-5.3,5.2v7.8c0,2.9,2.4,5.1,5.3,5.1h6.3l4.4,4v-4h2.7c3,0,5.3-2.2,5.3-5.1v-7.8c0-2.9-2.4-5.2-5.3-5.2h-13.3ZM12.2,25.3c-3,0-5.3,2.3-5.3,5.2v7.8c0,2.9,2.4,5.1,5.3,5.1h8.7v4l4.4-4h.3c3,0,5.3-2.2,5.3-5.1v-7.8c0-2.9-2.4-5.2-5.3-5.2h-13.3Z"/>
    <path class="st2" d="M40.2,17.3c-2.6,0-4.9,1.1-6.6,2.9.2.1.4.3.6.5,1.6-1.4,3.7-2.3,6-2.3h13.3c5,0,9.3,4.1,9.3,9.2v-1c0-5.1-4.3-9.2-9.3-9.2h-13.3ZM12.2,21.3c-5,0-9.3,4.1-9.3,9.2v1c0-5.1,4.3-9.2,9.3-9.2h13.3c2.2,0,4.2.9,5.9,2.2,2.1,1.8,3.5,4.1,3.5,5.8h4c0-.3,0-.7,0-1h-3.9c0-1.7-1.3-4-3.5-5.8-1.6-1.3-3.6-2.2-5.9-2.2h-13.3ZM26.9,36.3c0,3.4,2,6.4,4.7,8.7.2-.2.4-.3.6-.5-2.7-2.1-4.8-5-5.2-8.2h0ZM25.8,48.3c0,0-.1,0-.2,0h.2Z"/>
  </g>
</svg>