<?xml version="1.0" encoding="UTF-8" standalone="no"?>
<svg
   id="_图层_1"
   version="1.1"
   viewBox="0 0 64 64" width="22" height="22"
   sodipodi:docname="tuxguitar.svg"
   xml:space="preserve"
   inkscape:version="1.4 (e7c3feb100, 2024-10-09)"
   xmlns:inkscape="http://www.inkscape.org/namespaces/inkscape"
   xmlns:sodipodi="http://sodipodi.sourceforge.net/DTD/sodipodi-0.dtd"
   xmlns:xlink="http://www.w3.org/1999/xlink"
   xmlns="http://www.w3.org/2000/svg"
   xmlns:svg="http://www.w3.org/2000/svg"><sodipodi:namedview
     id="namedview26"
     pagecolor="#505050"
     bordercolor="#eeeeee"
     borderopacity="1"
     inkscape:showpageshadow="0"
     inkscape:pageopacity="0"
     inkscape:pagecheckerboard="0"
     inkscape:deskcolor="#505050"
     inkscape:zoom="10.6875"
     inkscape:cx="32"
     inkscape:cy="32"
     inkscape:window-width="1920"
     inkscape:window-height="939"
     inkscape:window-x="0"
     inkscape:window-y="34"
     inkscape:window-maximized="1"
     inkscape:current-layer="_图层_1" /><!-- Generator: Adobe Illustrator 29.0.1, SVG Export Plug-In . SVG Version: 2.1.0 Build 192)  --><defs
     id="defs6"><style
       id="style1">
      .st0 {
        fill-opacity: .5;
      }

      .st0, .st1, .st2, .st3, .st4, .st5, .st6, .st7 {
        fill: #fff;
      }

      .st8 {
        fill: #133c9a;
      }

      .st2, .st9 {
        display: none;
      }

      .st3 {
        fill-opacity: .2;
      }

      .st4 {
        fill-opacity: .9;
      }

      .st10 {
        fill: #3370ff;
      }

      .st11 {
        fill: url(#_未命名的渐变_3);
      }

      .st12 {
        fill: url(#_未命名的渐变);
      }

      .st5 {
        fill-opacity: .3;
      }

      .st6 {
        fill-opacity: 0;
      }

      .st7 {
        fill-opacity: .7;
      }

      .st13 {
        fill: #00d6b9;
      }

      .st14 {
        fill: url(#_未命名的渐变_2);
      }
    </style><radialGradient
       id="_未命名的渐变"
       data-name="未命名的渐变"
       cx="123.9"
       cy="-40.2"
       fx="123.9"
       fy="-40.2"
       r="59.4"
       gradientTransform="translate(-26.8 25.5) scale(.6 -.7)"
       gradientUnits="userSpaceOnUse"><stop
         offset="0"
         stop-color="#db202e"
         id="stop1" /><stop
         offset="1"
         stop-color="#e01b24"
         id="stop2" /></radialGradient><radialGradient
       id="_未命名的渐变_2"
       data-name="未命名的渐变 2"
       cx="67.6"
       cy="26.8"
       fx="67.6"
       fy="26.8"
       r="105.2"
       gradientTransform="translate(-26.6 25.3) scale(.6 -.7)"
       gradientUnits="userSpaceOnUse"><stop
         offset="0"
         stop-color="#ffb648"
         id="stop3" /><stop
         offset="1"
         stop-color="#ff7800"
         stop-opacity="0"
         id="stop4" /></radialGradient><radialGradient
       id="_未命名的渐变_3"
       data-name="未命名的渐变 3"
       cx="61.7"
       cy="18.6"
       fx="61.7"
       fy="18.6"
       r="68"
       gradientTransform="translate(-26.8 25.8) scale(.6 -.7)"
       gradientUnits="userSpaceOnUse"><stop
         offset="0"
         stop-color="#c64600"
         id="stop5" /><stop
         offset="1"
         stop-color="#a51d2d"
         id="stop6" /></radialGradient><linearGradient
       id="linearGradient1261"><stop
         style="stop-color:#4f4f4f"
         offset="0"
         id="stop1-7" /><stop
         style="stop-color:#3f3f3f"
         offset="1"
         id="stop2-0" /></linearGradient><linearGradient
       id="linearGradient1263"
       x1="34.241"
       x2="37.169"
       y1="38.945"
       y2="30.342"
       gradientTransform="matrix(1.3919157,0,0,1.3888889,-1.321022,-0.4865665)"
       gradientUnits="userSpaceOnUse"
       xlink:href="#linearGradient1261" /></defs><path
     class="st1"
     d="M47.5,64.1H13.8c-7.6,0-13.8-6.3-13.8-13.8V13.7C0,6.2,6.2,0,13.7,0h36.6c7.5,0,13.7,6.2,13.7,13.7v36.6c0,7.5-6.2,13.7-13.7,13.7h-2.9.1Z"
     id="path6"
     style="fill:#ffffff;fill-opacity:1" /><g
     id="g26"
     transform="matrix(0.85296934,0,0,0.84660616,4.6116859,4.0168498)"><path
       style="opacity:0.2"
       d="m 51.691,21.953 c -0.03738,1.7544 -0.3033,3.4524 -0.7793,5.0645 0.05347,0.04259 0.15104,0.13102 0.21094,0.17969 0.37185,-1.4913 0.58398,-3.0437 0.58398,-4.6484 0,-0.1998 -0.0096,-0.39734 -0.01563,-0.5957 z m -39.377,0.0078 c -0.0058,0.19581 -0.01563,0.39067 -0.01563,0.58789 0,1.6048 0.21286,3.1572 0.58398,4.6484 0.0599,-0.04869 0.15747,-0.13708 0.21094,-0.17969 -0.47352,-1.6097 -0.74103,-3.305 -0.7793,-5.0566 z m -1.265,21.377 c -2.7531,5.05 -6.1056,5.334 -6.1056,5.334 -0.6018,-1.688 -0.8844,-3.315 -0.9317,-4.871 -0.065052,1.8534 0.19973,3.8186 0.93164,5.8711 0,0 3.3525,-0.28432 6.1055,-5.334 0.74913,2.896 2.0829,5.5511 3.8789,7.8379 0.21126,-0.0733 0.41684,-0.15197 0.63867,-0.2168 -2.1236,-2.4538 -3.6816,-5.3893 -4.5176,-8.6211 z m 41.904,0 c -0.83599,3.2318 -2.396,6.1673 -4.5176,8.6211 0.22239,0.06499 0.4269,0.14523 0.63867,0.21875 1.7957,-2.287 3.1296,-4.9433 3.8789,-7.8398 2.751,5.0479 6.0996,5.334 6.0996,5.334 0.72985,-2.0443 0.99682,-4.0008 0.93555,-5.8477 -0.05007,1.5493 -0.3359,3.1681 -0.93555,4.8477 0,0 -3.3486,-0.28606 -6.0996,-5.334 z m 0.64844,13.879 c -0.527,2.687 -4.792,4.783 -9.976,4.783 -3.7591,0 -7.0321,-1.1042 -8.752,-2.7324 -0.94128,0.12336 -1.8955,0.20898 -2.875,0.20898 -0.97762,1e-6 -1.93,-0.08563 -2.875,-0.20898 -1.716,1.628 -4.989,2.732 -8.748,2.732 -5.1806,0 -9.4433,-2.094 -9.9727,-4.7812 -0.02205,0.14465 -0.05664,0.2879 -0.05664,0.43555 0,2.953 4.491,5.346 10.029,5.346 3.7591,0 7.0321,-1.1041 8.748,-2.7324 0.94502,0.12336 1.8974,0.20898 2.875,0.20898 0.97946,0 1.9337,-0.08563 2.875,-0.20898 1.72,1.628 4.993,2.732 8.752,2.732 5.5401,0 10.033,-2.3949 10.033,-5.3457 0,-0.14849 -0.03428,-0.29201 -0.05664,-0.4375 z"
       id="path1" /><path
       style="fill:#4f4f4f"
       d="m 50.911,27.017 c 0.51269,-1.7364 0.79583,-3.5677 0.79583,-5.4673 0,-10.796 -8.8199,-19.548 -19.706,-19.548 -10.88,0 -19.704,8.7503 -19.704,19.548 0,1.8996 0.28504,3.7309 0.79583,5.4673 -2.4812,1.9774 -12.111,10.545 -8.1495,21.656 0,0 3.3515,-0.28466 6.1045,-5.3343 0.83599,3.2318 2.3932,6.1675 4.5167,8.6213 -3.1106,0.90899 -5.2207,2.672 -5.2207,4.6949 0,2.9528 4.4917,5.3457 10.03,5.3457 3.7591,0 7.0323,-1.1045 8.7483,-2.7328 0.94502,0.12336 1.8977,0.20876 2.8754,0.20876 0.97946,0 1.9341,-0.0854 2.8754,-0.20876 1.7198,1.6282 4.9911,2.7328 8.7503,2.7328 5.5401,0 10.034,-2.395 10.034,-5.3457 0,-2.021 -2.112,-3.7859 -5.2225,-4.6949 2.1216,-2.4538 3.6825,-5.3895 4.5185,-8.6213 2.751,5.0479 6.0987,5.3343 6.0987,5.3343 3.97,-11.114 -5.66,-19.682 -8.139,-21.656 z"
       id="path2" /><circle
       style="fill:#ffffff"
       cx="22"
       cy="16.000999"
       r="4"
       id="circle2" /><circle
       style="fill:#ffffff"
       cx="41.999001"
       cy="16.000999"
       r="4"
       id="circle3" /><ellipse
       style="fill:#ffffff"
       cx="32"
       cy="38"
       rx="14"
       ry="16"
       id="ellipse3" /><path
       style="opacity:0.2"
       d="m 28,20.001 h 7.9999 c -0.64121,6.1627 -3.9999,12 -3.9999,12 0,0 -3.9999,-6.9273 -3.9999,-12 z"
       id="path3" /><g
       style="opacity:0.2"
       transform="matrix(0.078987,0.046319,-0.044373,0.078063,24.28,11.145)"
       id="g4"><path
         d="m 377.6,125.4 c 8.051,-7.326 18.943,-9.081 27.078,-4.883 l 1.56,-1.553 c 4.904,-12.028 13.757,-25.333 26.031,-37.604 12.283,-12.276 25.584,-21.135 37.606,-26.042 0,0 2.368,-2.369 5.298,-5.298 2.925,-2.93 1.154,-9.438 -3.96,-14.547 l -30.1,-30.095 c -5.1,-5.109 -11.59,-6.906 -14.48,-4.015 l -5.238,5.236 c -4.889,12.062 -13.773,25.441 -26.116,37.784 -12.331,12.331 -25.708,21.219 -37.782,26.115 l -1.082,1.078 c 5.178,8.233 3.574,19.979 -4.168,28.487 l -80.781,80.303 c -3.494,-0.226 -9.117,-3.047 -16.635,-14.697 -13.442,-20.827 -44.812,-32.687 -70.648,12.13 -25.836,44.817 -4.408,52.227 -77.991,60.774 l 0.016,0.024 c -25.982,1.429 -50.592,11.36 -69.375,30.136 -44.54,44.544 -39.464,121.84 11.34,172.66 50.806,50.806 128.11,55.879 172.65,11.328 0.797,-0.797 1.557,-1.639 2.324,-2.46 l 0.014,0.032 c 0,0 0.293,-0.316 0.775,-0.866 3.573,-3.903 6.777,-8.026 9.636,-12.343 11.461,-16.27 27.822,-45.524 24.159,-76.081 -5.538,-46.129 37.694,-44.021 55.619,-55.623 17.921,-11.598 24.249,-21.607 24.77,-33.218 0,0 -21.352,15.028 -40.855,-4.476 -15.677,-15.678 -8.708,-42.391 -1.947,-56.529 l 82.25,-85.77 z"
         id="path4" /></g><circle
       style="fill:#303030"
       cx="24"
       cy="18.000999"
       r="2"
       id="circle4" /><circle
       style="fill:#303030"
       cx="43.999001"
       cy="18.000999"
       r="2"
       id="circle5" /><path
       style="opacity:0.1;fill:#ffffff"
       d="m 32.002,2.002 c -10.88,0 -19.703,8.749 -19.703,19.547 0,0.138 0.012,0.274 0.015,0.412 0.315,-10.525 9.007,-18.959 19.688,-18.959 10.684,0 19.371,8.432 19.689,18.951 0.003,-0.135 0.016,-0.268 0.016,-0.404 0,-10.796 -8.819,-19.547 -19.705,-19.547 z M 12.883,27.195 C 10.585,29.063 3.7544,35.333 4.0117,43.801 4.2988,35.621 11.071,29.63 13.094,28.018 13.014,27.747 12.951,27.47 12.883,27.195 Z m 38.24,0 c -0.068,0.275 -0.131,0.552 -0.211,0.823 2.024,1.612 8.804,7.615 9.076,15.806 0.275,-8.48 -6.566,-14.76 -8.865,-16.629 z M 14.928,52.176 c -2.751,0.954 -4.582,2.6 -4.582,4.478 0,0.191 0.02,0.379 0.056,0.565 0.28,-1.837 2.281,-3.417 5.164,-4.26 -0.22,-0.255 -0.43,-0.518 -0.638,-0.783 z m 34.146,0.002 c -0.208,0.264 -0.418,0.526 -0.638,0.781 2.882,0.842 4.884,2.423 5.166,4.258 0.036,-0.185 0.056,-0.373 0.056,-0.563 0,-1.876 -1.833,-3.521 -4.584,-4.476 z"
       id="path5" /><path
       style="fill:#cd5252"
       d="m 28,18.001 h 7.9999 c -0.64121,6.1627 -3.9999,12 -3.9999,12 0,0 -3.9999,-6.9273 -3.9999,-12 z"
       id="path6-6" /><g
       style="fill:#cd8652"
       transform="matrix(0.078987,0.046319,-0.044373,0.078063,24.28,10.142)"
       id="g7"><path
         d="m 377.6,125.4 c 8.051,-7.326 18.943,-9.081 27.078,-4.883 l 1.56,-1.553 c 4.904,-12.028 13.757,-25.333 26.031,-37.604 12.283,-12.276 25.584,-21.135 37.606,-26.042 0,0 2.368,-2.369 5.298,-5.298 2.925,-2.93 1.154,-9.438 -3.96,-14.547 l -30.1,-30.095 c -5.1,-5.109 -11.59,-6.906 -14.48,-4.015 l -5.238,5.236 c -4.889,12.062 -13.773,25.441 -26.116,37.784 -12.331,12.331 -25.708,21.219 -37.782,26.115 l -1.082,1.078 c 5.178,8.233 3.574,19.979 -4.168,28.487 l -80.781,80.303 c -3.494,-0.226 -9.117,-3.047 -16.635,-14.697 -13.442,-20.827 -44.812,-32.687 -70.648,12.13 -25.836,44.817 -4.408,52.227 -77.991,60.774 l 0.016,0.024 c -25.982,1.429 -50.592,11.36 -69.375,30.136 -44.54,44.544 -39.464,121.84 11.34,172.66 50.806,50.806 128.11,55.879 172.65,11.328 0.797,-0.797 1.557,-1.639 2.324,-2.46 l 0.014,0.032 c 0,0 0.293,-0.316 0.775,-0.866 3.573,-3.903 6.777,-8.026 9.636,-12.343 11.461,-16.27 27.822,-45.524 24.159,-76.081 -5.538,-46.129 37.694,-44.021 55.619,-55.623 17.921,-11.598 24.249,-21.607 24.77,-33.218 0,0 -21.352,15.028 -40.855,-4.476 -15.677,-15.678 -8.708,-42.391 -1.947,-56.529 l 82.25,-85.77 z"
         id="path7" /></g><circle
       style="fill:#212121"
       cx="24"
       cy="43"
       r="4"
       id="circle7" /></g></svg>
