<?xml version="1.0" encoding="UTF-8"?>
<svg id="_图层_1" xmlns="http://www.w3.org/2000/svg" version="1.1" viewBox="0 0 64 64" width="22" height="22">
  <!-- Generator: Adobe Illustrator 29.0.1, SVG Export Plug-In . SVG Version: 2.1.0 Build 192)  -->
  <defs>
    <style>
      .st0 {
        fill: #3f3f3f;
      }

      .st1 {
        fill: #7ec183;
      }

      .st2 {
        opacity: .2;
      }

      .st2, .st3 {
        isolation: isolate;
      }

      .st4 {
        fill: #2165b0;
      }

      .st3 {
        fill: #fff;
        opacity: .1;
      }
    </style>
  </defs>
  <path class="st0" d="M50.4,64H13.8c-7.6,0-13.8-6.2-13.8-13.7V13.7C0,6.2,6.2,0,13.7,0h36.5c7.5,0,13.7,6.2,13.7,13.7v36.6c0,7.5-6.2,13.7-13.7,13.7h.1Z"/>
  <g>
    <path class="st2" d="M52.5,8.3l-12.2,5.1v2.1s0,0,0,0v1.1s0,0,0,0v19.9c0,2.7-1,5.2-2.9,6.9,0,0,0,0,0,0,0,0-.1,0-.2.1-.2.2-.3.3-.5.4-1.7,1.3-3.8,1.9-6,1.9-5.4,0-9.6-4.1-9.6-9.4v-14.3l-12.2,5.3v7.3c0,3.1.4,6,1.3,8.6.8,2.6,2.1,4.8,3.9,6.7,1.5,1.6,3.3,2.9,5.5,3.9h.4c.2.3.5.4.8.5,2.7,1.1,6,1.6,9.7,1.6h0c3.8,0,7.1-.5,9.9-1.6,2.8-1,5-2.5,6.8-4.4,1.8-1.9,3.1-4.1,4-6.8.9-2.6,1.3-5.5,1.3-8.7v-.6s0,0,0,0V8.3h0Z"/>
    <path class="st4" d="M52.5,7.4l-12.2,5.1v20.1c0,4.3,12.2,4,12.2.8V7.4Z"/>
    <path class="st4" d="M21.1,21.4l-12.2,5.3v7.3c0,3.1.4,6,1.3,8.6.8,2.6,2.1,4.8,3.9,6.7,1.5,1.6,3.3,2.9,5.5,3.9l3.1.9c10-1,13.5-9,14.6-11.1h0l.3-.7c-1.8,1.8-4.2,2.7-6.9,2.7-5.4,0-9.6-4.1-9.6-9.4v-14.3Z"/>
    <path class="st1" d="M40.3,14.7v1.1s0,0,0,0v19.9c0,2.7-1,5.2-2.9,6.9,0,0,.2-.1.2-.2l-.3.7h0c-1.1,2.2-6.3,9.2-16.3,10.2h-1.3c.3.2.7.4,1,.5,2.7,1.1,6,1.6,9.7,1.6h0c3.8,0,7.1-.5,9.9-1.6,2.8-1,5-2.5,6.8-4.4,1.8-1.9,3.1-4.1,4-6.8.9-2.6,1.3-5.5,1.3-8.7v-3.8c-.8-7.2-7.3-13.7-12.2-15.7ZM37.4,42.7c-.2.2-.5.4-.7.6.3-.2.5-.4.7-.6Z"/>
    <path class="st3" d="M52.5,7.4l-12.2,5.1v.9l12.2-5.1v-.9ZM21.1,21.4l-12.2,5.3v.9l12.2-5.3v-.9ZM21.1,35.7v.9c0,5.3,4.2,9.4,9.6,9.4s4.5-.7,6.2-2.1c.2-.3.3-.6.4-.8h0l.3-.7c-1.8,1.8-4.2,2.7-6.9,2.7-5.4,0-9.6-4.1-9.6-9.4Z"/>
    <path class="st3" d="M40.3,14.7v.9c4.9,1.9,11.4,8.5,12.2,15.7v-.9c-.8-7.2-7.3-13.7-12.2-15.7ZM40.3,35.7c0,2.7-1,5.2-2.9,6.9,0,0,.2-.1.2-.2l-.3.7h0c-.1.2-.3.5-.5.9-1.8,2.7-6.9,8.4-15.8,9.3h-1.3c.3.2.7.4,1,.5.2,0,.5.2.7.2,9.7-1.2,14.7-8,15.8-10.1h0l.3-.7c0,0-.1.1-.2.2,1.8-1.7,2.9-4.2,2.9-6.9v-.9ZM37.4,42.7c-.2.2-.5.4-.7.6.3-.2.5-.4.7-.6Z"/>
  </g>
</svg>