<?xml version="1.0" encoding="UTF-8"?>
<svg id="_图层_1" xmlns="http://www.w3.org/2000/svg" version="1.1" viewBox="0 0 64 64" width="22" height="22">
  <!-- Generator: Adobe Illustrator 29.0.1, SVG Export Plug-In . SVG Version: 2.1.0 Build 192)  -->
  <defs>
    <style>
      .st0 {
        fill: #313131;
      }

      .st1, .st2, .st3 {
        isolation: isolate;
      }

      .st1, .st3 {
        opacity: .2;
      }

      .st1, .st3, .st4 {
        display: none;
      }

      .st5 {
        fill: #3f3f3f;
      }

      .st2 {
        opacity: .1;
      }

      .st3 {
        fill: #fff;
      }

      .st6 {
        fill: #565656;
      }

      .st4, .st7 {
        fill: #e4e4e4;
      }

      .st8 {
        fill: #414141;
      }
    </style>
  </defs>
  <path class="st7" d="M50.3,64H13.9C6.3,64,.2,57.8.2,50.3V13.8C.2,6.2,6.3,0,13.9,0h36.5c7.5,0,13.7,6.2,13.7,13.7v36.5c0,7.5-6.1,13.7-13.7,13.7h0Z"/>
  <g>
    <path class="st1" d="M31.2,3.3h0c-1.2,0-2.4.3-3.4.9L8.7,15.2c-2,1.2-3.2,3.3-3.2,5.6v22c0,2.3,1.2,4.5,3.2,5.6l19,11c2,1.2,4.5,1.2,6.5,0l19-11c2-1.2,3.2-3.3,3.2-5.6v-22c0-2.3-1.2-4.5-3.2-5.6l-19-11c-.9-.5-2-.8-3.1-.9Z"/>
    <path class="st4" d="M31.2,2.3h0c-1.2,0-2.4.3-3.4.9L8.7,14.2c-2,1.2-3.2,3.3-3.2,5.6v22c0,2.3,1.2,4.5,3.2,5.6l19,11c2,1.2,4.5,1.2,6.5,0l19-11c2-1.2,3.2-3.3,3.2-5.6v-22c0-2.3-1.2-4.5-3.2-5.6L34.2,3.1c-.9-.5-2-.8-3.1-.9Z"/>
    <path class="st2" d="M31,51.6l16-9.2-6.1-3.5-7,4.1c-.2.2-.5,0-.5-.3v-8.6c0-.2.2-.5.3-.6l8.2-4.8c.2-.2.5,0,.5.3v7.4l6,3.4v-18.6l-17.5,10.2v20.2Z"/>
    <path class="st2" d="M28.1,42.9l-6.9-4.1-6.1,3.5,15.9,9.2v-20.2l-17.5-10.2v18.5h0c0,0,0,0,0,0l6-3.4v-7.4c0-.2.3-.4.5-.3l8.2,4.8c.2.2.3.3.3.6v8.6c0,.3-.2.6-.4.4Z"/>
    <path class="st5" d="M29,11.8l-15,8.7v17.3l5-2.8v-7.1c0-.3.2-.6.4-.7.2-.1.5-.2.8,0h0s8.2,4.8,8.2,4.8h0c.3.2.6.6.6,1v8.6h0c0,.3,0,.6-.2.8-.2.2-.7.3-1,0l-6.7-4-5.1,3,14.9,8.7,15-8.7-5.1-3-6.7,4c-.3.2-.6.2-.9,0s-.4-.5-.4-.8v-8.6c0-.5.2-.8.6-1l8.2-4.8c.3-.2.6-.2.9,0s.4.5.4.8v7.1l5,2.8v-17.4l-15-8.7v5.9l6.1,3.5h0c.3.2.4.5.4.7s-.2.6-.5.7h0s-7.4,4.3-7.4,4.3h0c-.4.3-.9.1-1.2,0h0s-7.4-4.3-7.4-4.3h0c-.7-.2-.7-1.2,0-1.5h0s5.9-3.4,5.9-3.4v-5.9Z"/>
    <path class="st0" d="M31,50.6l16-9.2-6.1-3.5-7,4.1c-.2.2-.5,0-.5-.3v-8.6c0-.2.2-.5.3-.6l8.2-4.8c.2-.2.5,0,.5.3v7.4l6,3.4v-18.6l-17.5,10.2v20.2Z"/>
    <path class="st8" d="M28.1,41.9l-6.9-4.1-6.1,3.5,15.9,9.2v-20.2l-17.5-10.2v18.5h0c0,0,0,0,0,0l6-3.4v-7.4c0-.2.3-.4.5-.3l8.2,4.8c.2.2.3.3.3.6v8.6c0,.3-.2.6-.4.4Z"/>
    <path class="st2" d="M32.5,12v7.1l6.3,3.6c.2.2.2.5,0,.6l-7.4,4.3c-.2.2-.5,0-.7,0l-7.4-4.3c-.2,0-.2-.5,0-.6l6.2-3.6v-7.1l-16,9.2,17.5,10.2,17.5-10.2-16-9.2Z"/>
    <path class="st6" d="M32.5,11v7.1l6.3,3.6c.2.2.2.5,0,.6l-7.4,4.3c-.2.2-.5,0-.7,0l-7.4-4.3c-.2,0-.2-.5,0-.6l6.2-3.6v-7.1l-16,9.2,17.5,10.2,17.5-10.2-16-9.2Z"/>
    <path class="st3" d="M31.2,2.3h0c-1.2,0-2.4.3-3.4.9L8.7,14.2c-2,1.2-3.2,3.3-3.2,5.6v1c0-2.3,1.2-4.5,3.2-5.6L27.8,4.1c1-.6,2.2-.9,3.4-.9h0c1.1,0,2.1.3,3.1.9l19,11c2,1.2,3.2,3.3,3.2,5.6v-1c0-2.3-1.2-4.5-3.2-5.6L34.2,3.1c-.9-.5-2-.8-3.1-.9Z"/>
  </g>
</svg>