<?xml version="1.0" encoding="UTF-8"?>
<svg id="_图层_1" xmlns="http://www.w3.org/2000/svg" version="1.1" viewBox="0 0 64 64" width="22" height="22">
  <!-- Generator: Adobe Illustrator 29.0.1, SVG Export Plug-In . SVG Version: 2.1.0 Build 192)  -->
  <defs>
    <style>
      .st0, .st1, .st2, .st3, .st4, .st5 {
        display: none;
      }

      .st0, .st2, .st6, .st7, .st4, .st8 {
        isolation: isolate;
      }

      .st0, .st9, .st7, .st4 {
        opacity: .2;
      }

      .st1 {
        fill: #f44336;
      }

      .st2, .st10, .st4, .st8 {
        fill: #fff;
      }

      .st2, .st8 {
        opacity: .1;
      }

      .st11 {
        fill: #62c9ea;
      }

      .st12 {
        fill: #faa19b;
      }

      .st6 {
        opacity: .4;
      }

      .st13 {
        fill: #e4e4e4;
      }

      .st5 {
        fill: #4f4f4f;
      }

      .st14 {
        fill: #008374;
      }

      .st15 {
        fill: #a2a2a2;
      }
    </style>
  </defs>
  <path class="st10" d="M50.3,64H13.9C6.3,64,.2,57.8.2,50.3V13.8C.2,6.2,6.3,0,13.9,0h36.5c7.5,0,13.7,6.2,13.7,13.7v36.5c0,7.5-6.1,13.7-13.7,13.7h0Z"/>
  <g class="st3">
    <path class="st0" d="M5.8,1.3h66c3.2,0,5.8,2.4,5.8,5.3v52.6c0,2.9-2.6,5.3-5.8,5.3H5.8c-3.2,0-5.8-2.4-5.8-5.3V6.6C0,3.7,2.6,1.3,5.8,1.3Z"/>
    <path class="st5" d="M5.8,0h66c3.2,0,5.8,2.4,5.8,5.3v52.6c0,2.9-2.6,5.3-5.8,5.3H5.8c-3.2,0-5.8-2.4-5.8-5.3V5.3C0,2.4,2.6,0,5.8,0Z"/>
    <g class="st9">
      <path d="M8.9,31.3l14-12.2c.8-.7,2-.7,2.8,0l2.8,2.4c.8.7.8,1.8,0,2.4l-14,12.2c-.8.7-2,.7-2.8,0l-2.8-2.4c-.8-.7-.8-1.8,0-2.4Z"/>
      <path d="M8.9,14.3l14,12.2c.8.7,2,.7,2.8,0l2.8-2.4c.8-.7.8-1.8,0-2.4l-14-12.2c-.8-.7-2-.7-2.8,0l-2.8,2.4c-.8.7-.8,1.8,0,2.4Z"/>
    </g>
    <path class="st7" d="M32.6,29.1h19.4c1.1,0,2.1.8,2.1,1.9v3.8c0,1-.9,1.9-2.1,1.9h-19.4c-1.1,0-2.1-.8-2.1-1.9v-3.8c0-1,.9-1.9,2.1-1.9Z"/>
    <path class="st10" d="M32.6,27.8h19.4c1.1,0,2.1.8,2.1,1.9v3.8c0,1-.9,1.9-2.1,1.9h-19.4c-1.1,0-2.1-.8-2.1-1.9v-3.8c0-1,.9-1.9,2.1-1.9Z"/>
    <path class="st15" d="M8.9,30l14-12.2c.8-.7,2-.7,2.8,0l2.8,2.4c.8.7.8,1.8,0,2.4l-14,12.2c-.8.7-2,.7-2.8,0l-2.8-2.4c-.8-.7-.8-1.8,0-2.4Z"/>
    <path class="st11" d="M8.9,13l14,12.2c.8.7,2,.7,2.8,0l2.8-2.4c.8-.7.8-1.8,0-2.4l-14-12.2c-.8-.7-2-.7-2.8,0l-2.8,2.4c-.8.7-.8,1.8,0,2.4Z"/>
    <path class="st2" d="M5.8,0C2.6,0,0,2.4,0,5.3v1.3C0,3.7,2.6,1.3,5.8,1.3h66c3.2,0,5.8,2.3,5.8,5.3v-1.3c0-2.9-2.6-5.3-5.8-5.3H5.8Z"/>
    <path class="st7" d="M18.7,21.5l-.7.6,4.9,4.3c.2.2.5.4.8.4l1.9-1.6c-.8.6-2,.6-2.7,0l-4.2-3.7Z"/>
    <path class="st11" d="M8.9,13l14,12.2c.8.7,2,.7,2.8,0l2.8-2.4c.8-.7.8-1.8,0-2.4l-14-12.2c-.8-.7-2-.7-2.8,0l-2.8,2.4c-.8.7-.8,1.8,0,2.4Z"/>
    <path class="st10" d="M8.9,13l14,12.2c.8.7,2,.7,2.8,0l2.8-2.4c.8-.7.8-1.8,0-2.4l-14-12.2c-.8-.7-2-.7-2.8,0l-2.8,2.4c-.8.7-.8,1.8,0,2.4Z"/>
  </g>
  <g class="st3">
    <path class="st0" d="M5.9,1.3h65.1c3.2,0,5.7,2.4,5.7,5.3v53.2c0,2.9-2.6,5.3-5.7,5.3H5.9c-3.2,0-5.7-2.4-5.7-5.3V6.6C.2,3.7,2.8,1.3,5.9,1.3Z"/>
    <path class="st1" d="M5.9,0h65.1c3.2,0,5.7,2.4,5.7,5.3v53.2c0,2.9-2.6,5.3-5.7,5.3H5.9c-3.2,0-5.7-2.4-5.7-5.3V5.3C.2,2.4,2.8,0,5.9,0Z"/>
    <g class="st9">
      <path d="M9,31.6l13.8-12.3c.8-.7,2-.7,2.8,0l2.8,2.5c.8.7.8,1.8,0,2.5l-13.8,12.3c-.8.7-2,.7-2.8,0l-2.8-2.5c-.8-.7-.8-1.8,0-2.5Z"/>
      <path d="M9,14.4l13.8,12.3c.8.7,2,.7,2.8,0l2.8-2.5c.8-.7.8-1.8,0-2.5l-13.8-12.3c-.8-.7-2-.7-2.8,0l-2.8,2.5c-.8.7-.8,1.8,0,2.5Z"/>
    </g>
    <path class="st7" d="M32.3,29.4h19.1c1.1,0,2.1.9,2.1,1.9v3.8c0,1.1-.9,1.9-2.1,1.9h-19.1c-1.1,0-2.1-.9-2.1-1.9v-3.8c0-1.1.9-1.9,2.1-1.9Z"/>
    <path class="st10" d="M32.3,28.1h19.1c1.1,0,2.1.9,2.1,1.9v3.8c0,1.1-.9,1.9-2.1,1.9h-19.1c-1.1,0-2.1-.9-2.1-1.9v-3.8c0-1.1.9-1.9,2.1-1.9Z"/>
    <path class="st12" d="M9,30.3l13.8-12.3c.8-.7,2-.7,2.8,0l2.8,2.5c.8.7.8,1.8,0,2.5l-13.8,12.3c-.8.7-2,.7-2.8,0l-2.8-2.5c-.8-.7-.8-1.8,0-2.5Z"/>
    <path class="st11" d="M9,13.1l13.8,12.3c.8.7,2,.7,2.8,0l2.8-2.5c.8-.7.8-1.8,0-2.5l-13.8-12.3c-.8-.7-2-.7-2.8,0l-2.8,2.5c-.8.7-.8,1.8,0,2.5Z"/>
    <path class="st4" d="M5.9,0C2.8,0,.2,2.4.2,5.3v1.3C.2,3.7,2.8,1.3,5.9,1.3h65.1c3.2,0,5.7,2.4,5.7,5.3v-1.3c0-2.9-2.6-5.3-5.7-5.3H5.9Z"/>
    <path class="st7" d="M18.6,21.7l-.7.6,4.9,4.3c.2.2.5.4.8.4l1.8-1.6c-.8.6-1.9.6-2.7,0l-4.2-3.7Z"/>
    <path class="st11" d="M9,13.1l13.8,12.3c.8.7,2,.7,2.8,0l2.8-2.5c.8-.7.8-1.8,0-2.5l-13.8-12.3c-.8-.7-2-.7-2.8,0l-2.8,2.5c-.8.7-.8,1.8,0,2.5Z"/>
    <path class="st10" d="M9,13.1l13.8,12.3c.8.7,2,.7,2.8,0l2.8-2.5c.8-.7.8-1.8,0-2.5l-13.8-12.3c-.8-.7-2-.7-2.8,0l-2.8,2.5c-.8.7-.8,1.8,0,2.5Z"/>
  </g>
  <g>
    <path class="st7" d="M32,10.3c-2.7,0-4.8,2.1-4.8,4.8v2.3c-2.1.7-4,1.9-5.7,3.3l-2-1.1c-2.3-1.3-5.3-.5-6.6,1.8l-1.2,2.1c-1.3,2.3-.5,5.2,1.8,6.6l2,1.1c-.2,1.1-.3,2.2-.3,3.3,0,1.1.1,2.2.3,3.3l-2,1.1c-2.3,1.3-3.1,4.3-1.8,6.6l1.2,2.1c1.3,2.3,4.3,3.1,6.6,1.8l2-1.1c3.3,2.8,7.5,4.3,11.8,4.3,4.3,0,8.5-1.5,11.8-4.3l2,1.1c2.3,1.3,5.3.5,6.6-1.8l1.2-2.1c1.3-2.3.5-5.2-1.8-6.6l-2-1.1c.2-1.1.3-2.2.3-3.3,0-1.1-.1-2.2-.3-3.3l2-1.1c2.3-1.3,3.1-4.3,1.8-6.6l-1.2-2.1c-1.3-2.3-4.3-3.1-6.6-1.8l-2,1.1c-1.7-1.4-3.6-2.5-5.7-3.3v-2.3c0-2.7-2.2-4.8-4.8-4.8h-2.4Z"/>
    <path class="st7" d="M32,39.2h2.4c2.7,0,4.8,2.2,4.8,4.8v9.6c0,2.7-2.2,4.8-4.8,4.8h-2.4c-2.7,0-4.8-2.2-4.8-4.8v-9.6c0-2.7,2.2-4.8,4.8-4.8Z"/>
    <path class="st14" d="M32,9.4c-2.7,0-4.8,2.1-4.8,4.8v2.3c-2.1.7-4,1.9-5.7,3.3l-2-1.1c-2.3-1.3-5.3-.5-6.6,1.8l-1.2,2.1c-1.3,2.3-.5,5.2,1.8,6.6l2,1.1c-.2,1.1-.3,2.2-.3,3.3,0,1.1.1,2.2.3,3.3l-2,1.1c-2.3,1.3-3.1,4.3-1.8,6.6l1.2,2.1c1.3,2.3,4.3,3.1,6.6,1.8l2-1.1c3.3,2.8,7.5,4.3,11.8,4.3,4.3,0,8.5-1.5,11.8-4.3l2,1.1c2.3,1.3,5.3.5,6.6-1.8l1.2-2.1c1.3-2.3.5-5.2-1.8-6.6l-2-1.1c.2-1.1.3-2.2.3-3.3,0-1.1-.1-2.2-.3-3.3l2-1.1c2.3-1.3,3.1-4.3,1.8-6.6l-1.2-2.1c-1.3-2.3-4.3-3.1-6.6-1.8l-2,1.1c-1.7-1.4-3.6-2.5-5.7-3.3v-2.3c0-2.7-2.2-4.8-4.8-4.8h-2.4Z"/>
    <path class="st13" d="M32,38.3h2.4c2.7,0,4.8,2.2,4.8,4.8v9.6c0,2.7-2.2,4.8-4.8,4.8h-2.4c-2.7,0-4.8-2.2-4.8-4.8v-9.6c0-2.7,2.2-4.8,4.8-4.8Z"/>
    <path class="st6" d="M33.2,40.6h0c1.4,0,2.6,1.1,2.6,2.4v9.6c0,1.3-1.2,2.4-2.6,2.4h0c-1.4,0-2.6-1.1-2.6-2.4v-9.6c0-1.3,1.2-2.4,2.6-2.4Z"/>
    <path class="st7" d="M38.4,23.5v8.3l-5.2,3.4-5.2-3.4v-8.3c-4.2,2-6.9,6.2-6.9,10.9,0,6.7,5.4,12,12.1,12s12.1-5.4,12.1-12c0-4.7-2.7-8.9-6.9-10.9Z"/>
    <path class="st10" d="M38.4,22.7v8.3l-5.2,3.4-5.2-3.4v-8.3c-4.2,2-6.9,6.2-6.9,10.9,0,6.7,5.4,12,12.1,12s12.1-5.4,12.1-12c0-4.7-2.7-8.9-6.9-10.9Z"/>
    <path class="st8" d="M32,9.4c-2.7,0-4.8,2.1-4.8,4.8v.9c0-2.7,2.2-4.8,4.8-4.8h2.4c2.7,0,4.8,2.1,4.8,4.8v-.9c0-2.7-2.2-4.8-4.8-4.8h-2.4ZM27.1,16.5c-2.1.7-4,1.9-5.7,3.3l-2-1.1c-2.3-1.3-5.3-.5-6.6,1.8l-1.2,2.1c-.5.9-.7,1.9-.6,2.9,0-.7.3-1.4.6-2l1.2-2.1c1.3-2.3,4.3-3.1,6.6-1.8l2,1.1c1.7-1.4,3.6-2.6,5.7-3.3v-.9ZM39.2,16.5v.9c2.1.7,4,1.8,5.7,3.3l2-1.1c2.3-1.3,5.3-.5,6.6,1.8l1.2,2.1c.4.6.6,1.3.6,2,0-1-.1-2-.6-2.9l-1.2-2.1c-1.3-2.3-4.3-3.1-6.6-1.8l-2,1.1c-1.7-1.4-3.6-2.5-5.7-3.3ZM51.1,31h-.1c.2,1,.3,2,.3,3,0-.2,0-.3,0-.5,0-.8,0-1.7-.2-2.5ZM15.2,31c-.1.8-.2,1.7-.2,2.5,0,.1,0,.3,0,.4,0-.9.1-1.9.3-2.8,0,0-.1,0-.1,0ZM51.1,36.9c0,.3,0,.5-.1.8l2,1.1c1.4.8,2.3,2.2,2.4,3.7.2-1.8-.7-3.6-2.4-4.6l-1.8-1.1ZM15.2,36.9l-1.8,1.1c-1.7,1-2.6,2.8-2.4,4.6.1-1.5,1-2.9,2.4-3.7l2-1.1c0-.3,0-.5-.1-.8Z"/>
  </g>
</svg>