<?xml version="1.0" encoding="UTF-8"?>
<svg xmlns="http://www.w3.org/2000/svg" version="1.1" viewBox="0 0 200 200" width="22" height="22">
  <!-- Generator: Adobe Illustrator 29.0.1, SVG Export Plug-In . SVG Version: 2.1.0 Build 192)  -->
  <defs>
    <style>
      .st0 {
        fill: #33df3a;
      }

      .st1 {
        fill: #fafffb;
      }
    </style>
  </defs>
  <g id="_图层_2" data-name="图层_2">
    <rect class="st0" x="5" y="6" width="191" height="188.9" rx="33.7" ry="33.7"/>
  </g>
  <g id="_图层_1" data-name="图层_1">
    <path class="st1" d="M69.3,158.8c0,8.9,6.9,16.1,15.3,16.1h30.6c8.5,0,15.3-7.2,15.3-16.1v-42.8c0-8.9-6.9-16.1-15.3-16.1h-30.6c-8.5,0-15.3,7.2-15.3,16.1v42.8ZM100,67.8c9.7,0,17.8,1.8,19.9,11.3.3,1.5,10.6,1.5,10.4-.1-2.3-15.4-15-21.9-30.3-21.9s-28.1,6.5-30.3,21.9c-.2,1.6,10,1.6,10.4,0,2.1-9.5,10.2-11.2,19.9-11.2ZM84.7,93.6c-.1,1.1,5.1,1.1,5.2,0,1.1-6.6,5.2-7.7,10.1-7.7s9,1.2,10.1,7.8c.2,1.1,5.4,1,5.2-.1-1.1-10.6-7.6-15.1-15.3-15.1s-14.2,4.5-15.3,15.1ZM166.4,51.7c0-8.9-6.9-16.1-15.3-16.1H48.9c-8.5,0-15.3,7.2-15.3,16.1v64.3c0,8.9,6.9,16.1,15.3,16.1h11.1l-1-10.7h-15.3V46.3h112.3v75h-15.5l-.6,10.7h10.9c8.5,0,15.3-7.2,15.3-16.1V51.7ZM120.4,164.2h-40.9v-53.6h40.9v53.6ZM105.1,148.1h-10.2v10.7h10.2v-10.7Z"/>
  </g>
</svg>
