<?xml version="1.0" encoding="UTF-8"?>
<svg id="_图层_1" xmlns="http://www.w3.org/2000/svg" version="1.1" viewBox="0 0 64 64" width="22" height="22">
  <!-- Generator: Adobe Illustrator 29.0.1, SVG Export Plug-In . SVG Version: 2.1.0 Build 192)  -->
  <defs>
    <style>
      .st0 {
        fill: #ff8a1f;
      }

      .st1 {
        fill: #ff5757;
      }

      .st2, .st3, .st4, .st5, .st6 {
        isolation: isolate;
      }

      .st2, .st3, .st7 {
        display: none;
      }

      .st2, .st4, .st5 {
        opacity: .2;
      }

      .st3, .st8, .st5, .st6 {
        fill: #fff;
      }

      .st3, .st6 {
        opacity: .1;
      }

      .st9 {
        fill: #96be4e;
      }

      .st10 {
        fill: #4f7cff;
      }

      .st11 {
        fill: #fff90b;
      }

      .st12 {
        fill: #a45390;
      }

      .st13 {
        fill: #642c68;
      }

      .st14 {
        fill: #11c3ff;
      }

      .st15 {
        fill: #e221ff;
      }

      .st16 {
        fill: #80c535;
      }

      .st17 {
        fill: #29dcc4;
      }

      .st18 {
        fill: #6db832;
      }

      .st19 {
        fill: #c2352a;
      }

      .st20 {
        fill: #4987d7;
      }

      .st21 {
        fill: #7a7a7a;
      }
    </style>
  </defs>
  <path class="st8" d="M50.3,64H13.8c-7.6,0-13.8-6.2-13.8-13.7V13.7C0,6.2,6.2,0,13.7,0h36.5c7.5,0,13.7,6.2,13.7,13.7v36.6c0,7.5-6.2,13.7-13.7,13.7h0Z"/>
  <g class="st7">
    <path class="st2" d="M0,59.5v2.3c0,1.9,1.5,3.4,3.4,3.4h57.4c1.9,0,3.4-1.5,3.4-3.4v-2.3c0,1.9-1.5,3.4-3.4,3.4H3.4C1.5,63,0,61.4,0,59.5Z"/>
    <path class="st20" d="M3.2-.1C2.3-.1,1.5.3.9.8l31.2,31.2L63.3.8c-.6-.6-1.4-.9-2.3-.9H3.2h0Z"/>
    <path class="st12" d="M3.2,64.1c-.9,0-1.7-.4-2.3-.9l31.2-31.2,31.2,31.2c-.6.6-1.4.9-2.3.9H3.2h0Z"/>
    <path class="st18" d="M64.2,3.1c0-.9-.4-1.7-.9-2.3l-31.2,31.2,31.2,31.2c.6-.6.9-1.4.9-2.3V3.1h0Z"/>
    <path class="st19" d="M0,3.1C0,2.2.4,1.4.9.8l31.2,31.2L.9,63.2c-.6-.6-.9-1.4-.9-2.3V3.1h0Z"/>
    <path class="st4" d="M35,5.6c-1.4,0-2.5.2-3.6.5-1,.3-1.9.8-2.6,1.3-.7.6-1.3,1.2-1.8,2-.5.8-.8,1.3-1.1,2.1-.3.9-.5,1.8-.6,2.8-.1,1-.2,1.9-.2,2.9h0c0,1.5.2,2.9.5,4,.4,1.1.9,2,1.5,2.8.7.7,1.4,1.3,2.3,1.7.9.4,1.8.5,2.8.5s2-.2,2.8-.5c.8-.3,1.5-.8,2.1-1.4.6-.6,1-1.4,1.3-2.2.3-.9.5-1.9.5-3s-.1-2-.4-2.8c-.3-.8-.6-1.6-1.1-2.1-.5-.6-1.1-1-1.8-1.3-.7-.3-1.5-.4-2.4-.4s-1.1,0-1.5.2c-.4.1-.8.3-1.2.5-.4.2-.7.6-.9.9-.3.3-.5.6-.7.9h-.2c0-1,.2-1.8.4-2.6.2-.8.5-1.1,1-1.7.5-.6,1.1-1,1.9-1.3.8-.3,1.8-.5,3.1-.5s.8,0,1.2,0c.4,0,.8.1,1.1.2v-3.5c-.2,0-.4,0-.6,0-.2,0-.5,0-.7,0-.2,0-.5,0-.7,0s-.4,0-.6,0ZM32.4,16c.8,0,1.5.3,1.9.9.4.6.6,1.4.6,2.4s0,1.1-.2,1.6c-.1.4-.3.8-.5,1.1-.2.3-.5.5-.8.7-.3.1-.7.2-1,.2s-.9-.1-1.2-.4c-.3-.2-.6-.5-.9-.9-.2-.4-.4-.8-.5-1.3-.1-.5-.2-1-.2-1.4s0-.7.2-1c.1-.3.3-.6.6-.9.3-.3.6-.5.9-.7.4-.2.7-.3,1.2-.3ZM47,24v10.3l1,.9c.2,0,.4-.1.6-.2.2,0,.5-.1.8-.2.3,0,.5,0,.8-.1.3,0,.5,0,.8,0,1.3,0,2.3.3,3,.8.6.5,1,1.3,1,2.3s-.3,2-1,2.5c-.7.5-1.6.8-2.9.8s-.9,0-1.3,0c-.5,0-.9-.2-1.4-.3-.5-.1-.9-.3-1.3-.4-.4-.2-.8-.3-1.1-.5v3.7c.3.2.7.3,1.1.5.4.1.9.3,1.3.3.5,0,1,.2,1.5.2.5,0,1,0,1.5,0,1.3,0,2.4-.2,3.4-.5,1-.3,1.8-.8,2.5-1.4.7-.6,1.2-1.4,1.5-2.2.3-.9.5-1.9.5-3s-.2-1.9-.5-2.7c-.3-.8-.8-1.4-1.3-2-.6-.5-1.2-.9-2-1.2-.8-.3-1.6-.4-2.5-.4h0c-.6,0-1.1,0-1.5.1-.4,0-.7.1-1,.2l.3-4.1h6.5v-3.4h-10.3ZM11.5,24.1c-.8,0-1.6,0-2.2.3-.7.2-1.3.4-1.8.6-.6.3-1.1.6-1.5.9-.5.3-.9.5-1.3.9l2.4,2.8c.7-.7,1.5-1.2,2.1-1.6.7-.4,1.4-.5,2.1-.5s1.3.2,1.7.6c.4.4.6.9.6,1.6s0,1.2-.3,1.7c-.2.5-.5,1.1-.8,1.6-.4.5-.8,1.1-1.3,1.6-.5.6-1,1.2-1.7,1.8l-4.8,5.4v2.8h13.7v-3.4h-8.3v-.2l2.5-2.7c.7-.7,1.4-1.4,2-2.1.6-.7,1.2-1.4,1.7-2.1.5-.7.9-1.4,1.1-2.2.3-.7.4-1.5.4-2.3s-.1-1.7-.4-2.4c-.3-.7-.7-1.1-1.3-1.6-.6-.5-1.2-.9-2-1.2-.8-.3-1.7-.4-2.6-.4ZM25.2,42.5v3.2h9.4l-7.3,17.2h4.5l7.1-17.7v-2.7h-13.8Z"/>
    <path class="st8" d="M35,4.5c-1.4,0-2.5.2-3.6.5-1,.3-1.9.8-2.6,1.3-.7.6-1.3,1.2-1.8,2-.5.8-.8,1.3-1.1,2.1-.3.9-.5,1.8-.6,2.8-.1,1-.2,1.9-.2,2.9h0c0,1.5.2,2.9.5,4,.4,1.1.9,2,1.5,2.8.7.7,1.4,1.3,2.3,1.7.9.4,1.8.5,2.8.5s2-.2,2.8-.5c.8-.3,1.5-.8,2.1-1.4.6-.6,1-1.4,1.3-2.2.3-.9.5-1.9.5-3s-.1-2-.4-2.8c-.3-.8-.6-1.6-1.1-2.1-.5-.6-1.1-1-1.8-1.3-.7-.3-1.5-.4-2.4-.4s-1.1,0-1.5.2c-.4.1-.8.3-1.2.5-.4.2-.7.6-.9.9-.3.3-.5.6-.7.9h-.2c0-1,.2-1.8.4-2.6.2-.8.5-1.1,1-1.7.5-.6,1.1-1,1.9-1.3.8-.3,1.8-.5,3.1-.5s.8,0,1.2,0c.4,0,.8.1,1.1.2v-3.5c-.2,0-.4,0-.6,0-.2,0-.5,0-.7,0-.2,0-.5,0-.7,0s-.4,0-.6,0ZM32.4,14.9c.8,0,1.5.3,1.9.9.4.6.6,1.4.6,2.4s0,1.1-.2,1.6c-.1.4-.3.8-.5,1.1-.2.3-.5.5-.8.7-.3.1-.7.2-1,.2s-.9-.1-1.2-.4c-.3-.2-.6-.5-.9-.9-.2-.4-.4-.8-.5-1.3-.1-.5-.2-1-.2-1.4s0-.7.2-1c.1-.3.3-.6.6-.9.3-.3.6-.5.9-.7.4-.2.7-.3,1.2-.3ZM47,22.8v10.3l1,.9c.2,0,.4-.1.6-.2.2,0,.5-.1.8-.2.3,0,.5,0,.8-.1.3,0,.5,0,.8,0,1.3,0,2.3.3,3,.8.6.5,1,1.3,1,2.3s-.3,2-1,2.5c-.7.5-1.6.8-2.9.8s-.9,0-1.3,0c-.5,0-.9-.2-1.4-.3-.5-.1-.9-.3-1.3-.4-.4-.2-.8-.3-1.1-.5v3.7c.3.2.7.3,1.1.5.4.1.9.3,1.3.3.5,0,1,.2,1.5.2.5,0,1,0,1.5,0,1.3,0,2.4-.2,3.4-.5,1-.3,1.8-.8,2.5-1.4.7-.6,1.2-1.4,1.5-2.2.3-.9.5-1.9.5-3s-.2-1.9-.5-2.7c-.3-.8-.8-1.4-1.3-2-.6-.5-1.2-.9-2-1.2-.8-.3-1.6-.4-2.5-.4h0c-.6,0-1.1,0-1.5.1-.4,0-.7.1-1,.2l.3-4.1h6.5v-3.4h-10.3ZM11.5,22.9c-.8,0-1.6,0-2.2.3-.7.2-1.3.4-1.8.6-.6.3-1.1.6-1.5.9-.5.3-.9.5-1.3.9l2.4,2.8c.7-.7,1.5-1.2,2.1-1.6.7-.4,1.4-.5,2.1-.5s1.3.2,1.7.6c.4.4.6.9.6,1.6s0,1.2-.3,1.7c-.2.5-.5,1.1-.8,1.6-.4.5-.8,1.1-1.3,1.6-.5.6-1,1.2-1.7,1.8l-4.8,5.4v2.8h13.7v-3.4h-8.3v-.2l2.5-2.7c.7-.7,1.4-1.4,2-2.1.6-.7,1.2-1.4,1.7-2.1.5-.7.9-1.4,1.1-2.2.3-.7.4-1.5.4-2.3s-.1-1.7-.4-2.4c-.3-.7-.7-1.1-1.3-1.6-.6-.5-1.2-.9-2-1.2-.8-.3-1.7-.4-2.6-.4ZM25.2,41.4v3.2h9.4l-7.3,17.2h4.5l7.1-17.7v-2.7h-13.8Z"/>
    <path class="st3" d="M3.4-.1C1.5-.1,0,1.4,0,3.3v1.1C0,2.6,1.5,1,3.4,1h57.4c1.9,0,3.4,1.5,3.4,3.4v-1.1c0-1.9-1.5-3.4-3.4-3.4H3.4Z"/>
  </g>
  <g class="st7">
    <ellipse class="st4" cx="32.5" cy="32.9" rx="24.5" ry="24.1"/>
    <ellipse class="st21" cx="32.5" cy="32.1" rx="23.9" ry="23.5"/>
    <path class="st16" d="M9.9,22.7c2.6-6.2,7.6-10.7,13.4-13l9.3,22.4-22.6-9.4Z"/>
    <path class="st11" d="M42,9.9c-6.3-2.6-13-2.5-18.8-.1l9.3,22.4,9.5-22.2Z"/>
    <path class="st17" d="M9.9,22.7c-2.6,6.2-2.5,12.8-.1,18.5l22.8-9.1-22.6-9.4Z"/>
    <path class="st14" d="M23,54.3c-6.3-2.6-10.9-7.4-13.2-13.1l22.8-9.1-9.5,22.2Z"/>
    <path class="st0" d="M42,9.8c6.3,2.6,10.9,7.4,13.2,13.1l-22.8,9.1,9.5-22.2Z"/>
    <path class="st1" d="M55.1,41.4c2.6-6.1,2.5-12.8.1-18.5l-22.8,9.1,22.6,9.4Z"/>
    <path class="st10" d="M22.9,54.3c6.3,2.6,13,2.5,18.8.1l-9.3-22.4-9.5,22.2Z"/>
    <path class="st15" d="M55.1,41.4c-2.6,6.1-7.6,10.7-13.4,13l-9.3-22.4,22.6,9.4Z"/>
    <ellipse class="st4" cx="32.5" cy="32.9" rx="9.6" ry="9.5"/>
    <ellipse class="st8" cx="32.5" cy="32.1" rx="9.6" ry="9.5"/>
    <path class="st5" d="M32.5,7.9c-13.6,0-24.5,10.8-24.5,24.1,0,.1,0,.3,0,.4.2-13.1,11.2-23.7,24.5-23.7,13.4,0,24.3,10.5,24.5,23.7,0-.1,0-.3,0-.4,0-13.3-11-24.1-24.5-24.1Z"/>
  </g>
  <g>
    <path class="st4" d="M10.2,8.5h43.3c1.3,0,2.4,1.1,2.4,2.4v42.6c0,1.3-1.1,2.4-2.4,2.4H10.2c-1.3,0-2.4-1.1-2.4-2.4V10.9c0-1.3,1.1-2.4,2.4-2.4Z"/>
    <path class="st13" d="M55.9,52.6V10c0-1.3-1.1-2.4-2.4-2.4H10.2c-1.3,0-2.4,1.1-2.4,2.4v42.6c0,1.3,1.1,2.4,2.4,2.4h43.3c1.3,0,2.4-1.1,2.4-2.4Z"/>
    <path class="st4" d="M11.2,11.9v5.1h5.2v-5.1h-5.2ZM47.3,11.9v5.1h5.2v-5.1h-5.2ZM11.2,23.7v5.1h5.2v-5.1h-5.2ZM47.3,23.7v5.1h5.2v-5.1h-5.2ZM11.2,35.6v5.1h5.2v-5.1h-5.2ZM47.3,35.6v5.1h5.2v-5.1h-5.2ZM11.2,47.4v5.1h5.2v-5.1h-5.2ZM47.3,47.4v5.1h5.2v-5.1h-5.2Z"/>
    <path class="st8" d="M11.2,11.1v5.1h5.2v-5.1h-5.2ZM47.3,11.1v5.1h5.2v-5.1h-5.2ZM11.2,22.9v5.1h5.2v-5.1h-5.2ZM47.3,22.9v5.1h5.2v-5.1h-5.2ZM11.2,34.7v5.1h5.2v-5.1h-5.2ZM47.3,34.7v5.1h5.2v-5.1h-5.2ZM11.2,46.5v5.1h5.2v-5.1h-5.2ZM47.3,46.5v5.1h5.2v-5.1h-5.2Z"/>
    <path class="st6" d="M10.2,7.7c-1.3,0-2.4,1.1-2.4,2.4v.8c0-1.3,1.1-2.4,2.4-2.4h43.3c1.3,0,2.4,1.1,2.4,2.4v-.8c0-1.3-1.1-2.4-2.4-2.4H10.2Z"/>
    <rect class="st4" x="20.6" y="13.6" width="22.3" height="15.2"/>
    <rect class="st8" x="20.6" y="12.7" width="22.3" height="15.2"/>
    <rect class="st4" x="20.6" y="35.6" width="22.3" height="15.2"/>
    <rect class="st8" x="20.6" y="34.7" width="22.3" height="15.2"/>
    <path class="st4" d="M59.3,43c-.4,7.2-6.4,12.8-13.7,12.8-7.2,0-13.2-5.5-13.7-12.5,0,.2,0,.5,0,.7,0,7.5,6.2,13.5,13.7,13.5s13.7-6.1,13.7-13.5c0-.3,0-.6,0-1h0Z"/>
    <ellipse class="st9" cx="45.6" cy="43.2" rx="13.7" ry="13.5"/>
    <path class="st8" d="M41.3,36.4c-1.5,0-2.6,1.2-2.6,2.6s1.2,2.6,2.6,2.6.9-.1,1.3-.4l2.1,1.9-2.1,1.9c-.4-.2-.8-.4-1.3-.4-1.5,0-2.6,1.2-2.6,2.6s1.2,2.6,2.6,2.6,2.6-1.2,2.6-2.6,0-.5,0-.7l2.2-2.1,4.7,4.4h1.6v-1l-8.6-8.2c0-.2,0-.4,0-.7,0-1.4-1.2-2.6-2.6-2.6h0ZM41.3,38c.6,0,1.1.5,1.1,1s-.5,1-1.1,1-1.1-.5-1.1-1,.5-1,1.1-1ZM50.8,37.4l-4.2,3.9,1.4,1.3,4.4-4.2v-1h-1.6ZM41.3,46.3c.6,0,1.1.5,1.1,1s-.5,1-1.1,1-1.1-.5-1.1-1,.5-1,1.1-1Z"/>
  </g>
</svg>