<?xml version="1.0" encoding="UTF-8"?>
<svg id="_图层_1" xmlns="http://www.w3.org/2000/svg" version="1.1" viewBox="0 0 64 64" width="22" height="22">
  <!-- Generator: Adobe Illustrator 29.0.1, SVG Export Plug-In . SVG Version: 2.1.0 Build 192)  -->
  <defs>
    <style>
      .st0, .st1 {
        fill: #1ab7ea;
      }

      .st2, .st3 {
        stroke: #fff;
      }

      .st2, .st3, .st4, .st5 {
        fill: none;
        stroke-linecap: round;
      }

      .st2, .st4 {
        stroke-width: 4px;
      }

      .st6 {
        fill: #ff8c2a;
      }

      .st7, .st8, .st9, .st10, .st11, .st4, .st5, .st12, .st13, .st14 {
        isolation: isolate;
      }

      .st7, .st8, .st15, .st16, .st1, .st17, .st13 {
        display: none;
      }

      .st7, .st9, .st10, .st4, .st5, .st12, .st13, .st14 {
        opacity: .2;
      }

      .st8 {
        opacity: .1;
      }

      .st8, .st18, .st19, .st12, .st13 {
        fill: #fff;
      }

      .st20 {
        fill: #248afd;
      }

      .st3, .st5 {
        stroke-linejoin: bevel;
        stroke-width: 4px;
      }

      .st9, .st19 {
        fill-rule: evenodd;
      }

      .st21 {
        fill: #3f3f3f;
      }

      .st22 {
        fill: #2086e7;
      }

      .st15 {
        fill: #c061cb;
      }

      .st23 {
        fill: #8e8e8e;
      }

      .st24 {
        fill: #f75f5f;
      }

      .st25 {
        fill: #6655e4;
      }

      .st16 {
        fill: #66b744;
      }

      .st26 {
        fill: #50ffc5;
      }

      .st11 {
        opacity: .5;
      }

      .st27 {
        fill: #d6d6d6;
      }

      .st4, .st5 {
        stroke: #000;
      }

      .st14 {
        fill: #fbfefd;
      }

      .st28 {
        fill: #e4e4e4;
      }

      .st29 {
        fill: #b7b7b7;
      }

      .st30 {
        fill: #0259bb;
      }

      .st31 {
        fill: #199c71;
      }

      .st32 {
        fill: #0271ef;
      }
    </style>
  </defs>
  <path class="st0" d="M50.4,64H13.8c-7.6,0-13.8-6.2-13.8-13.7V13.7C0,6.2,6.2,0,13.7,0h36.6c7.5,0,13.7,6.2,13.7,13.7v36.6c0,7.5-6.2,13.7-13.7,13.7h.1Z"/>
  <g class="st17">
    <ellipse class="st7" cx="32" cy="33.2" rx="32" ry="32.1"/>
    <ellipse class="st15" cx="32" cy="32.1" rx="32" ry="32.1"/>
    <path class="st10" d="M26.1,17.2c-2.9.5-5.8,1.4-8.4,2.7,0,0,0,0,0,0-5.3,8.2-6.8,16.1-6.1,24,0,0,0,0,0,0,3.5,2.6,6.9,4.3,10.3,5.3,0,0,.1,0,.1,0,.8-1.1,1.5-2,2.1-3.2,0,0,0-.2,0-.2-1.1-.4-2.2-1-3.2-1.6,0,0,0-.2,0-.2.2-.2.4-.3.6-.5,0,0,0,0,.1,0,6.7,3.1,14,3.1,20.7,0,0,0,0,0,.1,0,.2.2.4.3.6.5,0,0,0,.2,0,.2-1,.6-2.1,1.1-3.2,1.6,0,0-.1.1,0,.2.6,1.2,1.3,2.1,2.1,3.2,0,0,0,0,.1,0,3.4-1.1,6.8-2.7,10.3-5.3,0,0,0,0,0,0,.9-9.1-1.4-17-6.1-24,0,0,0,0,0,0-2.6-1.2-5.4-2.1-8.4-2.7,0,0-.1,0-.1,0-.4.7-.8.7-1,1.4-3.2-.5-6.3-.5-9.4,0-.3-.7-.7-.8-1.1-1.4,0,0,0,0-.1,0ZM24.5,32.1c2.2,0,4,1.8,4,4,0,2.2-1.8,4-4,4s-4-1.8-4-4,1.8-4,4-4ZM39.4,32.1c2.2,0,4,1.8,4,4,0,2.2-1.8,4-4,4s-4-1.8-4-4,1.8-4,4-4Z"/>
    <path class="st18" d="M26.1,16.1c-2.9.5-5.8,1.4-8.4,2.7,0,0,0,0,0,0-5.3,8.2-6.8,16.1-6.1,24,0,0,0,0,0,0,3.5,2.6,6.9,4.3,10.3,5.3,0,0,.1,0,.1,0,.8-1.1,1.5-2,2.1-3.2,0,0,0-.2,0-.2-1.1-.4-2.2-1-3.2-1.6,0,0,0-.2,0-.2.2-.2.4-.3.6-.5,0,0,0,0,.1,0,6.7,3.1,14,3.1,20.7,0,0,0,0,0,.1,0,.2.2.4.3.6.5,0,0,0,.2,0,.2-1,.6-2.1,1.1-3.2,1.6,0,0-.1.1,0,.2.6,1.2,1.3,2.1,2.1,3.2,0,0,0,0,.1,0,3.4-1.1,6.8-2.7,10.3-5.3,0,0,0,0,0,0,.9-9.1-1.4-17-6.1-24,0,0,0,0,0,0-2.6-1.2-5.4-2.1-8.4-2.7,0,0-.1,0-.1,0-.4.7-.8.7-1,1.4-3.2-.5-6.3-.5-9.4,0-.3-.7-.7-.8-1.1-1.4,0,0,0,0-.1,0ZM24.5,31c2.2,0,4,1.8,4,4,0,2.2-1.8,4-4,4s-4-1.8-4-4,1.8-4,4-4ZM39.4,31c2.2,0,4,1.8,4,4,0,2.2-1.8,4-4,4s-4-1.8-4-4,1.8-4,4-4Z"/>
    <path class="st8" d="M32,0C14.3,0,0,14.4,0,32.1c0,.2,0,.4,0,.6C.3,15.2,14.5,1.1,32,1.1c17.5,0,31.7,14,32,31.5,0-.2,0-.4,0-.6C64,14.4,49.7,0,32,0Z"/>
  </g>
  <g class="st17">
    <path class="st7" d="M62.3,29.5L35.2,3c-1.9-1.8-4.9-1.8-6.8,0L1.4,29.5c-1.9,1.8-1.9,4.8,0,6.6l27.1,26.5c1.9,1.8,4.9,1.8,6.8,0l27.1-26.5c1.9-1.8,1.9-4.8,0-6.6Z"/>
    <path class="st16" d="M62.3,28.4L35.2,1.9c-1.9-1.8-4.9-1.8-6.8,0L1.4,28.4c-1.9,1.8-1.9,4.8,0,6.6l27.1,26.5c1.9,1.8,4.9,1.8,6.8,0l27.1-26.5c1.9-1.8,1.9-4.8,0-6.6Z"/>
    <path class="st13" d="M31.9.5c-1.2,0-2.4.5-3.4,1.4L1.4,28.4c-1.1,1.1-1.5,2.5-1.4,3.9.1-1,.6-2,1.4-2.7L28.5,3c.9-.9,2.2-1.4,3.4-1.4s2.4.5,3.4,1.4l27.1,26.5c.8.8,1.2,1.7,1.4,2.7.2-1.4-.3-2.8-1.4-3.9L35.2,1.9c-.9-.9-2.2-1.4-3.4-1.4Z"/>
    <path class="st9" d="M31.9,9.4c-5.8,0-10.5,1.3-13.9,3.9,0,0-.1.1-.2.2l-2,1.9c-2,2.4-3,5.4-2.7,8.3.6,7.6,8.4,13.6,18.8,13.6s9.6,3.6,9.8,5.4c0,.9-.1,1.6-1.4,2.6-1.3,1-3.9,2-8.4,2s-13.7-3.9-13.7-3.9c-2.2-1.2-5-.5-6.2,1.6-.2.3-.3.7-.4,1l7.9,7.8c3.3,1.2,7.7,2.4,12.4,2.4s10.4-1.3,13.8-3.7l2.7-2.6c1.8-2.3,2.7-5.2,2.4-7.9-.6-7.6-8.4-13.6-18.9-13.6s-9.6-3.5-9.7-5.4c0-.9.1-1.7,1.4-2.7,1.3-1,3.9-2,8.3-2,6.2,0,13.7,3.9,13.7,3.9,2.2,1.2,5,.5,6.2-1.6.2-.3.3-.7.4-1l-7.9-7.8c-3.3-1.2-7.7-2.4-12.4-2.4Z"/>
    <path class="st19" d="M31.9,8.3c-5.8,0-10.5,1.3-13.9,3.9,0,0-.1.1-.2.2l-2,1.9c-2,2.4-3,5.4-2.7,8.3.6,7.6,8.4,13.6,18.8,13.6s9.6,3.6,9.8,5.4c0,.9-.1,1.6-1.4,2.6-1.3,1-3.9,2-8.4,2s-13.7-3.9-13.7-3.9c-2.2-1.2-5-.5-6.2,1.6-.2.3-.3.7-.4,1l7.9,7.8c3.3,1.2,7.7,2.4,12.4,2.4s10.4-1.3,13.8-3.7l2.7-2.6c1.8-2.3,2.7-5.2,2.4-7.9-.6-7.6-8.4-13.6-18.9-13.6s-9.6-3.5-9.7-5.4c0-.9.1-1.7,1.4-2.7,1.3-1,3.9-2,8.3-2,6.2,0,13.7,3.9,13.7,3.9,2.2,1.2,5,.5,6.2-1.6.2-.3.3-.7.4-1l-7.9-7.8c-3.3-1.2-7.7-2.4-12.4-2.4Z"/>
  </g>
  <g class="st17">
    <g>
      <rect class="st23" x="6" y="40.6" width="52" height="2"/>
      <rect class="st23" x="6" y="46.6" width="52" height="2"/>
      <rect class="st23" x="6" y="52.6" width="52" height="2"/>
      <rect class="st23" x="6" y="22.6" width="52" height="2"/>
      <rect class="st23" x="6" y="28.6" width="52" height="2"/>
      <rect class="st23" x="6" y="34.6" width="52" height="2"/>
      <rect class="st23" x="6" y="16.6" width="52" height="2"/>
      <rect class="st23" x="6" y="10.6" width="52" height="2"/>
    </g>
    <g>
      <rect class="st23" x="22" y="6.6" width="2" height="52"/>
      <rect class="st23" x="16" y="6.6" width="2" height="52"/>
      <rect class="st23" x="10" y="6.6" width="2" height="52"/>
      <rect class="st23" x="40" y="6.6" width="2" height="52"/>
      <rect class="st23" x="34" y="6.6" width="2" height="52"/>
      <rect class="st23" x="28" y="6.6" width="2" height="52"/>
      <rect class="st23" x="46" y="6.6" width="2" height="52"/>
      <rect class="st23" x="52" y="6.6" width="2" height="52"/>
    </g>
    <path class="st10" d="M8,53.2v2c0,1.3,1.3,2.4,3,2.4h42c1.7,0,3-1.1,3-2.4v-2c0,1.3-1.3,2.4-3,2.4H11c-1.7,0-3-1.1-3-2.4Z"/>
    <path class="st29" d="M56,54.2V11c0-1.3-1.3-2.4-3-2.4H11c-1.7,0-3,1.1-3,2.4v43.2c0,1.3,1.3,2.4,3,2.4h42c1.7,0,3-1.1,3-2.4Z"/>
    <path class="st12" d="M11,8.6c-1.7,0-3,1.1-3,2.4v1c0-1.3,1.3-2.4,3-2.4h42c1.7,0,3,1.1,3,2.4v-1c0-1.3-1.3-2.4-3-2.4H11Z"/>
    <path class="st11" d="M32,13.6c-2.8,0-5,2.2-5,5v14.4c-3.1,1.8-5,5.1-5,8.6,0,5.5,4.5,10,10,10s10-4.5,10-10c0-3.6-1.9-6.9-5-8.7v-14.3c0-2.8-2.2-5-5-5ZM32,16.6c1.2,0,2,.8,2,2v16.1l1.5.9c2.2,1.3,3.5,3.6,3.5,6.1,0,3.9-3.1,7-7,7s-7-3.1-7-7h0c0-2.5,1.3-4.8,3.5-6.1l1.5-.9v-16.1c0-1.2.8-2,2-2Z"/>
    <path class="st10" d="M30,26.6v9.1l-1.5.9c-2.2,1.3-3.5,3.5-3.5,6h0c0,3.9,3.1,7,7,7s7-3.1,7-7c0-2.5-1.3-4.8-3.5-6.1l-1.5-.9v-9.1h-4Z"/>
    <path class="st24" d="M30,25.6v9.1l-1.5.9c-2.2,1.3-3.5,3.5-3.5,6h0c0,3.9,3.1,7,7,7s7-3.1,7-7c0-2.5-1.3-4.8-3.5-6.1l-1.5-.9v-9.1h-4Z"/>
  </g>
  <g class="st17">
    <path class="st10" d="M57.6,48.9v.9c0,4.4-3.6,8-8.1,8h-24.3v-8.9h32.4Z"/>
    <ellipse class="st31" cx="54" cy="37.3" rx="3.6" ry="3.5"/>
    <path class="st10" d="M27.1,15.1c1.4-5.1,8.6-8,15.3-8s9.6,1.9,12.6,4.4c-1.8,0-3.9.9-5.4,1.8,2.7.3,4.8.9,6.3,2.7-1.2-.2-2.4-.2-3.6,0,2.9,4.3,4.5,10.7,4.5,16,0,14.3-10.8,24.8-25.2,24.8S6.4,46.2,6.4,32s.4-5.6,1-7.8c.1-.5.4-.9.6-1,0,0,0,0,.1,0,.3,0,.5.5.5.6.4,1.4.6,3.4,1.3,4.7,0-2.9,1.2-6.2,2.9-8.6,1.1-1.6,3.2-2.8,3.7-7,0,0,0-.4.5-.4,3.7,1.2,3.6,8.9,3.6,14.2,2,.3,2.1-3.3,2.1-3.3-.3-.7-.3-1.1-.3-2,0-1.8,1.4-4.9,4.5-6.2Z"/>
    <path class="st20" d="M27.1,14.3c1.4-5.1,8.6-8,15.3-8s9.6,1.9,12.6,4.4c-1.8,0-3.9.9-5.4,1.8,2.7.3,4.8.9,6.3,2.7-1.2-.2-2.4-.2-3.6,0,2.9,4.3,4.5,10.7,4.5,16,0,14.3-10.8,24.8-25.2,24.8S6.4,45.3,6.4,31.1s.4-5.6,1-7.8c.1-.5.4-.9.6-1,0,0,0,0,.1,0,.3,0,.5.5.5.6.4,1.4.6,3.4,1.3,4.7,0-2.9,1.2-6.2,2.9-8.6,1.1-1.6,3.2-2.8,3.7-7,0,0,0-.4.5-.4,3.7,1.2,3.6,8.9,3.6,14.2,2,.3,2.1-3.3,2.1-3.3-.3-.7-.3-1.1-.3-2,0-1.8,1.4-4.9,4.5-6.2Z"/>
    <path class="st32" d="M55.4,22.2c0,.3.4,1.6.4,2.7,0,13.7-10.9,25.7-24.3,25.7s-9.3-1.2-13.5-4.4c-6.5-5-10.8-10.8-10.8-18.6s.4-4.1.6-5c0-.2.1-.3.3-.3,0,0-.1,0-.1,0-.3.2-.4.5-.6,1-.3.7-.7,3.1-.7,3.4-.1.9-.3,2.9-.3,4.4,0,14.2,10.8,24.8,25.2,24.8s25.2-10.5,25.2-24.8-.6-6.6-1.3-8.9Z"/>
    <path class="st30" d="M7.9,22.5c-.4,1.6-.6,3.3-.6,5,0,5.5,2.2,10.9,7.6,16-1.5-1.8-3.1-5-3.1-8.9s.7-6,3.1-8.7c.1-.1.3-.2.5-.2s.6.3.6.7c.5,12.9,10.2,19.7,22.8,19.7-4,0-15.6-5.1-6.7-6.8,4.6-.9,12.1-3,12.1-8.3,0-10.9-6.3-14.2-12.6-14.2s-7.9,2.8-8.7,5.6c.4,1.2-1.2,3.4-2.1,3.3,0-5.3,0-13-3.6-14.2-.5,0-.5.4-.5.4-.5,4.2-2.6,5.4-3.7,7-1.7,2.3-2.9,5.3-2.9,8.6-.6-1.3-.9-3.3-1.3-4.7,0-.2-.3-.6-.5-.6s-.2.1-.3.3Z"/>
    <path class="st27" d="M31.6,40.9c6.3,0,12.6-4.4,12.6-9.8s-.6-4.4-1.8-6.2c-2.2-3.2-6.2-5.3-10.8-5.3s-8.6,2-10.8,5.3c-1.2,1.8-1.8,4.1-1.8,6.2,0,10.3,9,15.1,19.8,15.1-.7,0-4.8-.2-7.6-3.5-.3-.3-.5-.6-.5-.9,0-.5.5-.9.9-.9Z"/>
    <path class="st10" d="M33.3,34.7c-.6.6-1.1.9-1.8.9-.7,0-1.3-.3-1.8-.9l-9-8.9-.3-.3c0-.2.2-.4.3-.5h21.6c0,0,.3.4.3.5l-.3.3-9,8.9Z"/>
    <path class="st28" d="M33.3,33.8c-.6.6-1.1.9-1.8.9-.7,0-1.3-.3-1.8-.9l-9-8.9c2.7-4.1,7.2-5.3,10.8-5.3s8.1,1.4,10.8,5.3l-9,8.9Z"/>
    <path class="st10" d="M31.6,19.6c-3.6,0-6.7,1.2-8.9,3.1,0,.2.2.5.2.7,1.9-1.8,5.1-2.9,8.7-2.9s8.1,1.4,10.8,5.3c1.2,1.8,1.8,3.5,1.8,5.3,0-2.3-.6-4.4-1.8-6.2-2.7-3.9-7.2-5.3-10.8-5.3ZM11.8,34.7v.9c0,1.8.7,4.6,1.5,6.4.4.4,1.1,1.1,1.6,1.6-1.6-1.7-3.1-5.6-3.1-8.8ZM30.8,42.2c0,0-.1.1-.1.4s.2.6.5.9c1,1.1,2.2,1.9,3.4,2.4,2,.3,4.2.3,4.2.3-.6,0-4.8-.2-7.6-3.5-.1-.2-.2-.3-.3-.4Z"/>
    <path class="st28" d="M33.9,15c1.4-.5,1.3-2,1.3-2,0,0-.7-.9-2.1-.4-1.3.5-1.5,1.5-1.5,1.5,0,0,.7,1.5,2.3.9h0Z"/>
    <path class="st12" d="M42.3,6.3c-6.7,0-13.9,2.9-15.3,8-3.1,1.3-4.5,4.4-4.5,6.2s0,.6,0,.9c0-1.8,1.3-4.9,4.5-6.2,1.4-5.1,8.5-8,15.3-8s8.6,1.5,11.6,3.7h1c-3-2.6-7.7-4.6-12.6-4.6ZM17.2,11.6c-.5,0-.5.4-.5.4-.5,4.2-2.6,5.4-3.7,7-1.7,2.3-2.9,5.3-2.9,8.6-.6-1.4-.9-3.3-1.3-4.7,0-.2-.3-.6-.5-.6-.4,0-.7.9-.8,1.1-.7,2.2-1,5.7-1,7.8,0-1.8.4-4.7,1-6.9,0-.2.4-1.1.8-1.1s.5.5.5.6c.4,1.6.6,3.3,1.3,4.7,0-3.2,1.2-6.2,2.9-8.6,1.1-1.5,3.3-2.8,3.7-7,0,0,0-.4.5-.4,3.7,1.2,3.6,8.9,3.6,13.3,1.1-1.6,2.1-2.4,2.1-2.4v-.9s-1.2,1-2.1,2.4c0-4.4,0-12.1-3.6-13.3ZM49.5,12.5v.9c2.1.2,3.8.6,5.2,1.6.4,0,.7,0,1.1.1-1.5-1.8-3.6-2.4-6.3-2.7ZM52.2,15.1v.9c2.9,4.3,4.5,10.6,4.5,15.1,0-5.3-1.6-11.6-4.5-16ZM15.4,25.8c-.2,0-.4,0-.5.2-2.4,2.7-3.1,5.8-3.1,8.7,0,0,0,.3,0,.9,0-3,.6-6,3.1-8.7.1-.1.3-.2.5-.2s.6.3.6.7c.4,11.3,10.2,19.4,18.3,19.4s4.5-.6,4.5-.6c-12.6,0-22.3-6.8-22.8-19.7,0-.4-.3-.7-.6-.7ZM44.1,31.1v.3-.3ZM44.1,31.4c-.3,5.2-6.4,9.4-12.6,9.4s-.9.4-.9.9h.9c7.1,0,12.4-4.3,12.6-10.3Z"/>
    <path class="st26" d="M33.3,40.9h20.7c2,0,3.6-1.6,3.6-3.5v11.5c0,4.4-3.6,8-8.1,8h-24.3v-8c0-4.4,3.6-8,8.1-8Z"/>
    <path class="st21" d="M29.8,45.3h1.9c.8,0,1.4.1,1.8.4.4.3.6.7.6,1.4s0,.7-.2,1c-.2.3-.4.4-.7.5h0c.2,0,.4.2.6.3.2.1.3.3.4.5,0,.2.1.5.1.9,0,.6-.2,1.1-.6,1.5-.4.4-.9.5-1.6.5h-2.3v-7.1ZM30.7,48h1.1c1.1,0,1-.8,1-.8,0,0,0-1-1.1-1h-1.1v1.8ZM30.7,48.9v2.7h1.2c.4,0,.7,0,.8-.3.2-.2.2-.8.2-1.1s0-.8-.2-1c-.2-.2-.4-.4-.8-.4h-1.2Z"/>
    <path class="st21" d="M40.5,52.4h-4.5v-7.1h4.5v.9h-3.6v1.8h2.7v.9h-2.7v2.7h3.6v.9Z"/>
    <path class="st21" d="M45.1,52.4h-1v-6.2h-1.8v-.9h4.5v.9h-1.8v6.2Z"/>
    <path class="st21" d="M53.7,52.4l-.5-1.8h-3.7l-.6,1.8h-1.1l2.6-7.1h1.9l2.6,7.1h-1.3ZM52.8,49.7l-1.4-3.9-1.5,3.9h2.9Z"/>
    <path class="st14" d="M57.6,37.3v.9c0,1.9-1.6,3.5-3.6,3.5h-20.7c-4.5,0-8.1,3.5-8.1,8v-.9c0-4.4,3.6-8,8.1-8h20.7c2,0,3.6-1.6,3.6-3.5Z"/>
  </g>
  <g class="st17">
    <path class="st7" d="M3.2,65.2c-1.8,0-3.2-1.4-3.2-3.2v-2.3c0,1.8,1.4,3.2,3.2,3.2h57.7c1.8,0,3.2-1.4,3.2-3.2v2.3c0,1.8-1.4,3.2-3.2,3.2H3.2Z"/>
    <path class="st22" d="M32,0H14.9C6.7,0,0,6.7,0,14.9v17.1h32V0Z"/>
    <path class="st6" d="M32,0h17.3c8.1,0,14.8,6.6,14.8,14.8v17.3h-32V0Z"/>
    <path class="st25" d="M32,64H14.6c-8.1,0-14.6-6.5-14.6-14.6v-17.4h32v32Z"/>
    <path class="st22" d="M32,64h17.4c8.1,0,14.6-6.5,14.6-14.6v-17.4h-32v32Z"/>
    <path class="st13" d="M3.2,0C1.4,0,0,1.4,0,3.2v1.1C0,2.6,1.4,1.1,3.2,1.1h57.7c1.8,0,3.2,1.4,3.2,3.2v-1.1c0-1.8-1.4-3.2-3.2-3.2H3.2Z"/>
    <rect class="st21" x="9.2" y="9.1" width="45.8" height="45.7"/>
    <path class="st4" d="M16,49.2h18.3"/>
    <path class="st2" d="M16,48h18.3"/>
    <path class="st5" d="M25.2,17.1v13.7c0,3.5-2.4,4.6-4.6,4.6-2,0-4.6-1.1-4.6-4.6v-13.7"/>
    <path class="st3" d="M25.2,16v13.7c0,3.5-2.4,4.6-4.6,4.6-2,0-4.6-1.1-4.6-4.6v-13.7"/>
    <path class="st5" d="M34.3,26.3s9.2,1.1,9.2-4.6-9.2-4.6-9.2-4.6M34.3,35.4v-18.3"/>
    <path class="st3" d="M34.3,25.2s9.2,1.1,9.2-4.6-9.2-4.6-9.2-4.6M34.3,34.3v-18.3"/>
  </g>
  <g>
    <path class="st7" d="M5.7,1.1h52.7c3.2,0,5.7,2.6,5.7,5.7v52.6c0,3.2-2.6,5.7-5.7,5.7H5.7c-3.2,0-5.7-2.6-5.7-5.7V6.9C0,3.7,2.6,1.1,5.7,1.1Z"/>
    <path class="st1" d="M5.7,0h52.7c3.2,0,5.7,2.6,5.7,5.7v52.6c0,3.2-2.6,5.7-5.7,5.7H5.7c-3.2,0-5.7-2.6-5.7-5.7V5.7C0,2.6,2.6,0,5.7,0Z"/>
    <path class="st10" d="M8,22.9l2.3,3.4s1.1-2.3,4.6-2.3c2.3,4.6,5.7,28.6,13.7,28.6,16,0,24.1-27.4,24.1-34.3s1.1-5.7-5.7-5.7-12.6,11.4-12.6,11.4c0,0,3.4-1.1,6.9-1.1,1.1,3.4-2.3,11.4-8,16-4.6-5.7-4.6-25.2-10.3-25.2s-14.9,9.1-14.9,9.1Z"/>
    <path class="st18" d="M8,21.7l2.3,3.4s1.1-2.3,4.6-2.3c2.3,4.6,5.7,28.6,13.7,28.6,16,0,24.1-27.4,24.1-34.3s1.1-5.7-5.7-5.7-12.6,11.4-12.6,11.4c0,0,3.4-1.1,6.9-1.1,1.1,3.4-2.3,11.4-8,16-4.6-5.7-4.6-25.2-10.3-25.2s-14.9,9.1-14.9,9.1Z"/>
    <path class="st13" d="M5.7,0C2.6,0,0,2.5,0,5.7v1.1C0,3.7,2.6,1.1,5.7,1.1h52.7c3.2,0,5.7,2.5,5.7,5.7v-1.1c0-3.2-2.6-5.7-5.7-5.7H5.7Z"/>
  </g>
</svg>