<?xml version="1.0" encoding="UTF-8"?>
<svg id="_图层_1" xmlns="http://www.w3.org/2000/svg" version="1.1" viewBox="0 0 64 64" width="22" height="22">
  <!-- Generator: Adobe Illustrator 29.0.1, SVG Export Plug-In . SVG Version: 2.1.0 Build 192)  -->
  <defs>
    <style>
      .st0 {
        fill: #28b628;
      }

      .st1, .st2 {
        stroke: #fff;
      }

      .st1, .st2, .st3, .st4 {
        fill: none;
        stroke-linecap: round;
      }

      .st1, .st3 {
        stroke-width: 4px;
      }

      .st5 {
        fill: #ff8c2a;
      }

      .st6, .st7, .st8, .st9, .st10, .st11, .st12, .st3, .st4, .st13, .st14, .st15, .st16 {
        isolation: isolate;
      }

      .st6, .st7, .st17, .st18, .st19, .st20, .st14 {
        display: none;
      }

      .st6, .st8, .st11, .st3, .st4, .st13, .st14, .st15 {
        opacity: .2;
      }

      .st7, .st21, .st22, .st13, .st14, .st16 {
        fill: #fff;
      }

      .st7, .st16 {
        opacity: .1;
      }

      .st23 {
        fill: #248afd;
      }

      .st2, .st4 {
        stroke-linejoin: bevel;
        stroke-width: 4px;
      }

      .st8, .st22 {
        fill-rule: evenodd;
      }

      .st24 {
        fill: #3f3f3f;
      }

      .st25 {
        fill: #2086e7;
      }

      .st17 {
        fill: #c061cb;
      }

      .st26 {
        fill: #8e8e8e;
      }

      .st27 {
        fill: #c56761;
      }

      .st28 {
        fill: #f75f5f;
      }

      .st29 {
        fill: #6655e4;
      }

      .st18 {
        fill: #66b744;
      }

      .st19 {
        fill: #1ab7ea;
      }

      .st10 {
        opacity: .3;
      }

      .st30 {
        fill: #50ffc5;
      }

      .st12 {
        opacity: .5;
      }

      .st31 {
        fill: #d6d6d6;
      }

      .st3, .st4 {
        stroke: #000;
      }

      .st15 {
        fill: #fbfefd;
      }

      .st32 {
        fill: #e4e4e4;
      }

      .st33 {
        fill: #b7b7b7;
      }

      .st34 {
        fill: #0259bb;
      }

      .st35 {
        fill: #199c71;
      }

      .st36 {
        fill: #0271ef;
      }
    </style>
  </defs>
  <path class="st21" d="M50.4,64H13.8c-7.6,0-13.8-6.2-13.8-13.7V13.7C0,6.2,6.2,0,13.7,0h36.6c7.5,0,13.7,6.2,13.7,13.7v36.6c0,7.5-6.2,13.7-13.7,13.7h.1Z"/>
  <g class="st20">
    <ellipse class="st6" cx="32" cy="33.2" rx="32" ry="32.1"/>
    <ellipse class="st17" cx="32" cy="32.1" rx="32" ry="32.1"/>
    <path class="st11" d="M26.1,17.2c-2.9.5-5.8,1.4-8.4,2.7,0,0,0,0,0,0-5.3,8.2-6.8,16.1-6.1,24,0,0,0,0,0,0,3.5,2.6,6.9,4.3,10.3,5.3,0,0,.1,0,.1,0,.8-1.1,1.5-2,2.1-3.2,0,0,0-.2,0-.2-1.1-.4-2.2-1-3.2-1.6,0,0,0-.2,0-.2.2-.2.4-.3.6-.5,0,0,0,0,.1,0,6.7,3.1,14,3.1,20.7,0,0,0,0,0,.1,0,.2.2.4.3.6.5,0,0,0,.2,0,.2-1,.6-2.1,1.1-3.2,1.6,0,0-.1.1,0,.2.6,1.2,1.3,2.1,2.1,3.2,0,0,0,0,.1,0,3.4-1.1,6.8-2.7,10.3-5.3,0,0,0,0,0,0,.9-9.1-1.4-17-6.1-24,0,0,0,0,0,0-2.6-1.2-5.4-2.1-8.4-2.7,0,0-.1,0-.1,0-.4.7-.8.7-1,1.4-3.2-.5-6.3-.5-9.4,0-.3-.7-.7-.8-1.1-1.4,0,0,0,0-.1,0ZM24.5,32.1c2.2,0,4,1.8,4,4,0,2.2-1.8,4-4,4s-4-1.8-4-4,1.8-4,4-4ZM39.4,32.1c2.2,0,4,1.8,4,4,0,2.2-1.8,4-4,4s-4-1.8-4-4,1.8-4,4-4Z"/>
    <path class="st21" d="M26.1,16.1c-2.9.5-5.8,1.4-8.4,2.7,0,0,0,0,0,0-5.3,8.2-6.8,16.1-6.1,24,0,0,0,0,0,0,3.5,2.6,6.9,4.3,10.3,5.3,0,0,.1,0,.1,0,.8-1.1,1.5-2,2.1-3.2,0,0,0-.2,0-.2-1.1-.4-2.2-1-3.2-1.6,0,0,0-.2,0-.2.2-.2.4-.3.6-.5,0,0,0,0,.1,0,6.7,3.1,14,3.1,20.7,0,0,0,0,0,.1,0,.2.2.4.3.6.5,0,0,0,.2,0,.2-1,.6-2.1,1.1-3.2,1.6,0,0-.1.1,0,.2.6,1.2,1.3,2.1,2.1,3.2,0,0,0,0,.1,0,3.4-1.1,6.8-2.7,10.3-5.3,0,0,0,0,0,0,.9-9.1-1.4-17-6.1-24,0,0,0,0,0,0-2.6-1.2-5.4-2.1-8.4-2.7,0,0-.1,0-.1,0-.4.7-.8.7-1,1.4-3.2-.5-6.3-.5-9.4,0-.3-.7-.7-.8-1.1-1.4,0,0,0,0-.1,0ZM24.5,31c2.2,0,4,1.8,4,4,0,2.2-1.8,4-4,4s-4-1.8-4-4,1.8-4,4-4ZM39.4,31c2.2,0,4,1.8,4,4,0,2.2-1.8,4-4,4s-4-1.8-4-4,1.8-4,4-4Z"/>
    <path class="st7" d="M32,0C14.3,0,0,14.4,0,32.1c0,.2,0,.4,0,.6C.3,15.2,14.5,1.1,32,1.1c17.5,0,31.7,14,32,31.5,0-.2,0-.4,0-.6C64,14.4,49.7,0,32,0Z"/>
  </g>
  <g class="st20">
    <path class="st6" d="M62.3,29.5L35.2,3c-1.9-1.8-4.9-1.8-6.8,0L1.4,29.5c-1.9,1.8-1.9,4.8,0,6.6l27.1,26.5c1.9,1.8,4.9,1.8,6.8,0l27.1-26.5c1.9-1.8,1.9-4.8,0-6.6Z"/>
    <path class="st18" d="M62.3,28.4L35.2,1.9c-1.9-1.8-4.9-1.8-6.8,0L1.4,28.4c-1.9,1.8-1.9,4.8,0,6.6l27.1,26.5c1.9,1.8,4.9,1.8,6.8,0l27.1-26.5c1.9-1.8,1.9-4.8,0-6.6Z"/>
    <path class="st14" d="M31.9.5c-1.2,0-2.4.5-3.4,1.4L1.4,28.4c-1.1,1.1-1.5,2.5-1.4,3.9.1-1,.6-2,1.4-2.7L28.5,3c.9-.9,2.2-1.4,3.4-1.4s2.4.5,3.4,1.4l27.1,26.5c.8.8,1.2,1.7,1.4,2.7.2-1.4-.3-2.8-1.4-3.9L35.2,1.9c-.9-.9-2.2-1.4-3.4-1.4Z"/>
    <path class="st8" d="M31.9,9.4c-5.8,0-10.5,1.3-13.9,3.9,0,0-.1.1-.2.2l-2,1.9c-2,2.4-3,5.4-2.7,8.3.6,7.6,8.4,13.6,18.8,13.6s9.6,3.6,9.8,5.4c0,.9-.1,1.6-1.4,2.6-1.3,1-3.9,2-8.4,2s-13.7-3.9-13.7-3.9c-2.2-1.2-5-.5-6.2,1.6-.2.3-.3.7-.4,1l7.9,7.8c3.3,1.2,7.7,2.4,12.4,2.4s10.4-1.3,13.8-3.7l2.7-2.6c1.8-2.3,2.7-5.2,2.4-7.9-.6-7.6-8.4-13.6-18.9-13.6s-9.6-3.5-9.7-5.4c0-.9.1-1.7,1.4-2.7,1.3-1,3.9-2,8.3-2,6.2,0,13.7,3.9,13.7,3.9,2.2,1.2,5,.5,6.2-1.6.2-.3.3-.7.4-1l-7.9-7.8c-3.3-1.2-7.7-2.4-12.4-2.4Z"/>
    <path class="st22" d="M31.9,8.3c-5.8,0-10.5,1.3-13.9,3.9,0,0-.1.1-.2.2l-2,1.9c-2,2.4-3,5.4-2.7,8.3.6,7.6,8.4,13.6,18.8,13.6s9.6,3.6,9.8,5.4c0,.9-.1,1.6-1.4,2.6-1.3,1-3.9,2-8.4,2s-13.7-3.9-13.7-3.9c-2.2-1.2-5-.5-6.2,1.6-.2.3-.3.7-.4,1l7.9,7.8c3.3,1.2,7.7,2.4,12.4,2.4s10.4-1.3,13.8-3.7l2.7-2.6c1.8-2.3,2.7-5.2,2.4-7.9-.6-7.6-8.4-13.6-18.9-13.6s-9.6-3.5-9.7-5.4c0-.9.1-1.7,1.4-2.7,1.3-1,3.9-2,8.3-2,6.2,0,13.7,3.9,13.7,3.9,2.2,1.2,5,.5,6.2-1.6.2-.3.3-.7.4-1l-7.9-7.8c-3.3-1.2-7.7-2.4-12.4-2.4Z"/>
  </g>
  <g class="st20">
    <g>
      <rect class="st26" x="6" y="40.6" width="52" height="2"/>
      <rect class="st26" x="6" y="46.6" width="52" height="2"/>
      <rect class="st26" x="6" y="52.6" width="52" height="2"/>
      <rect class="st26" x="6" y="22.6" width="52" height="2"/>
      <rect class="st26" x="6" y="28.6" width="52" height="2"/>
      <rect class="st26" x="6" y="34.6" width="52" height="2"/>
      <rect class="st26" x="6" y="16.6" width="52" height="2"/>
      <rect class="st26" x="6" y="10.6" width="52" height="2"/>
    </g>
    <g>
      <rect class="st26" x="22" y="6.6" width="2" height="52"/>
      <rect class="st26" x="16" y="6.6" width="2" height="52"/>
      <rect class="st26" x="10" y="6.6" width="2" height="52"/>
      <rect class="st26" x="40" y="6.6" width="2" height="52"/>
      <rect class="st26" x="34" y="6.6" width="2" height="52"/>
      <rect class="st26" x="28" y="6.6" width="2" height="52"/>
      <rect class="st26" x="46" y="6.6" width="2" height="52"/>
      <rect class="st26" x="52" y="6.6" width="2" height="52"/>
    </g>
    <path class="st11" d="M8,53.2v2c0,1.3,1.3,2.4,3,2.4h42c1.7,0,3-1.1,3-2.4v-2c0,1.3-1.3,2.4-3,2.4H11c-1.7,0-3-1.1-3-2.4Z"/>
    <path class="st33" d="M56,54.2V11c0-1.3-1.3-2.4-3-2.4H11c-1.7,0-3,1.1-3,2.4v43.2c0,1.3,1.3,2.4,3,2.4h42c1.7,0,3-1.1,3-2.4Z"/>
    <path class="st13" d="M11,8.6c-1.7,0-3,1.1-3,2.4v1c0-1.3,1.3-2.4,3-2.4h42c1.7,0,3,1.1,3,2.4v-1c0-1.3-1.3-2.4-3-2.4H11Z"/>
    <path class="st12" d="M32,13.6c-2.8,0-5,2.2-5,5v14.4c-3.1,1.8-5,5.1-5,8.6,0,5.5,4.5,10,10,10s10-4.5,10-10c0-3.6-1.9-6.9-5-8.7v-14.3c0-2.8-2.2-5-5-5ZM32,16.6c1.2,0,2,.8,2,2v16.1l1.5.9c2.2,1.3,3.5,3.6,3.5,6.1,0,3.9-3.1,7-7,7s-7-3.1-7-7h0c0-2.5,1.3-4.8,3.5-6.1l1.5-.9v-16.1c0-1.2.8-2,2-2Z"/>
    <path class="st11" d="M30,26.6v9.1l-1.5.9c-2.2,1.3-3.5,3.5-3.5,6h0c0,3.9,3.1,7,7,7s7-3.1,7-7c0-2.5-1.3-4.8-3.5-6.1l-1.5-.9v-9.1h-4Z"/>
    <path class="st28" d="M30,25.6v9.1l-1.5.9c-2.2,1.3-3.5,3.5-3.5,6h0c0,3.9,3.1,7,7,7s7-3.1,7-7c0-2.5-1.3-4.8-3.5-6.1l-1.5-.9v-9.1h-4Z"/>
  </g>
  <g class="st20">
    <path class="st11" d="M57.6,48.9v.9c0,4.4-3.6,8-8.1,8h-24.3v-8.9h32.4Z"/>
    <ellipse class="st35" cx="54" cy="37.3" rx="3.6" ry="3.5"/>
    <path class="st11" d="M27.1,15.1c1.4-5.1,8.6-8,15.3-8s9.6,1.9,12.6,4.4c-1.8,0-3.9.9-5.4,1.8,2.7.3,4.8.9,6.3,2.7-1.2-.2-2.4-.2-3.6,0,2.9,4.3,4.5,10.7,4.5,16,0,14.3-10.8,24.8-25.2,24.8S6.4,46.2,6.4,32s.4-5.6,1-7.8c.1-.5.4-.9.6-1,0,0,0,0,.1,0,.3,0,.5.5.5.6.4,1.4.6,3.4,1.3,4.7,0-2.9,1.2-6.2,2.9-8.6,1.1-1.6,3.2-2.8,3.7-7,0,0,0-.4.5-.4,3.7,1.2,3.6,8.9,3.6,14.2,2,.3,2.1-3.3,2.1-3.3-.3-.7-.3-1.1-.3-2,0-1.8,1.4-4.9,4.5-6.2Z"/>
    <path class="st23" d="M27.1,14.3c1.4-5.1,8.6-8,15.3-8s9.6,1.9,12.6,4.4c-1.8,0-3.9.9-5.4,1.8,2.7.3,4.8.9,6.3,2.7-1.2-.2-2.4-.2-3.6,0,2.9,4.3,4.5,10.7,4.5,16,0,14.3-10.8,24.8-25.2,24.8S6.4,45.3,6.4,31.1s.4-5.6,1-7.8c.1-.5.4-.9.6-1,0,0,0,0,.1,0,.3,0,.5.5.5.6.4,1.4.6,3.4,1.3,4.7,0-2.9,1.2-6.2,2.9-8.6,1.1-1.6,3.2-2.8,3.7-7,0,0,0-.4.5-.4,3.7,1.2,3.6,8.9,3.6,14.2,2,.3,2.1-3.3,2.1-3.3-.3-.7-.3-1.1-.3-2,0-1.8,1.4-4.9,4.5-6.2Z"/>
    <path class="st36" d="M55.4,22.2c0,.3.4,1.6.4,2.7,0,13.7-10.9,25.7-24.3,25.7s-9.3-1.2-13.5-4.4c-6.5-5-10.8-10.8-10.8-18.6s.4-4.1.6-5c0-.2.1-.3.3-.3,0,0-.1,0-.1,0-.3.2-.4.5-.6,1-.3.7-.7,3.1-.7,3.4-.1.9-.3,2.9-.3,4.4,0,14.2,10.8,24.8,25.2,24.8s25.2-10.5,25.2-24.8-.6-6.6-1.3-8.9Z"/>
    <path class="st34" d="M7.9,22.5c-.4,1.6-.6,3.3-.6,5,0,5.5,2.2,10.9,7.6,16-1.5-1.8-3.1-5-3.1-8.9s.7-6,3.1-8.7c.1-.1.3-.2.5-.2s.6.3.6.7c.5,12.9,10.2,19.7,22.8,19.7-4,0-15.6-5.1-6.7-6.8,4.6-.9,12.1-3,12.1-8.3,0-10.9-6.3-14.2-12.6-14.2s-7.9,2.8-8.7,5.6c.4,1.2-1.2,3.4-2.1,3.3,0-5.3,0-13-3.6-14.2-.5,0-.5.4-.5.4-.5,4.2-2.6,5.4-3.7,7-1.7,2.3-2.9,5.3-2.9,8.6-.6-1.3-.9-3.3-1.3-4.7,0-.2-.3-.6-.5-.6s-.2.1-.3.3Z"/>
    <path class="st31" d="M31.6,40.9c6.3,0,12.6-4.4,12.6-9.8s-.6-4.4-1.8-6.2c-2.2-3.2-6.2-5.3-10.8-5.3s-8.6,2-10.8,5.3c-1.2,1.8-1.8,4.1-1.8,6.2,0,10.3,9,15.1,19.8,15.1-.7,0-4.8-.2-7.6-3.5-.3-.3-.5-.6-.5-.9,0-.5.5-.9.9-.9Z"/>
    <path class="st11" d="M33.3,34.7c-.6.6-1.1.9-1.8.9-.7,0-1.3-.3-1.8-.9l-9-8.9-.3-.3c0-.2.2-.4.3-.5h21.6c0,0,.3.4.3.5l-.3.3-9,8.9Z"/>
    <path class="st32" d="M33.3,33.8c-.6.6-1.1.9-1.8.9-.7,0-1.3-.3-1.8-.9l-9-8.9c2.7-4.1,7.2-5.3,10.8-5.3s8.1,1.4,10.8,5.3l-9,8.9Z"/>
    <path class="st11" d="M31.6,19.6c-3.6,0-6.7,1.2-8.9,3.1,0,.2.2.5.2.7,1.9-1.8,5.1-2.9,8.7-2.9s8.1,1.4,10.8,5.3c1.2,1.8,1.8,3.5,1.8,5.3,0-2.3-.6-4.4-1.8-6.2-2.7-3.9-7.2-5.3-10.8-5.3ZM11.8,34.7v.9c0,1.8.7,4.6,1.5,6.4.4.4,1.1,1.1,1.6,1.6-1.6-1.7-3.1-5.6-3.1-8.8ZM30.8,42.2c0,0-.1.1-.1.4s.2.6.5.9c1,1.1,2.2,1.9,3.4,2.4,2,.3,4.2.3,4.2.3-.6,0-4.8-.2-7.6-3.5-.1-.2-.2-.3-.3-.4Z"/>
    <path class="st32" d="M33.9,15c1.4-.5,1.3-2,1.3-2,0,0-.7-.9-2.1-.4-1.3.5-1.5,1.5-1.5,1.5,0,0,.7,1.5,2.3.9h0Z"/>
    <path class="st13" d="M42.3,6.3c-6.7,0-13.9,2.9-15.3,8-3.1,1.3-4.5,4.4-4.5,6.2s0,.6,0,.9c0-1.8,1.3-4.9,4.5-6.2,1.4-5.1,8.5-8,15.3-8s8.6,1.5,11.6,3.7h1c-3-2.6-7.7-4.6-12.6-4.6ZM17.2,11.6c-.5,0-.5.4-.5.4-.5,4.2-2.6,5.4-3.7,7-1.7,2.3-2.9,5.3-2.9,8.6-.6-1.4-.9-3.3-1.3-4.7,0-.2-.3-.6-.5-.6-.4,0-.7.9-.8,1.1-.7,2.2-1,5.7-1,7.8,0-1.8.4-4.7,1-6.9,0-.2.4-1.1.8-1.1s.5.5.5.6c.4,1.6.6,3.3,1.3,4.7,0-3.2,1.2-6.2,2.9-8.6,1.1-1.5,3.3-2.8,3.7-7,0,0,0-.4.5-.4,3.7,1.2,3.6,8.9,3.6,13.3,1.1-1.6,2.1-2.4,2.1-2.4v-.9s-1.2,1-2.1,2.4c0-4.4,0-12.1-3.6-13.3ZM49.5,12.5v.9c2.1.2,3.8.6,5.2,1.6.4,0,.7,0,1.1.1-1.5-1.8-3.6-2.4-6.3-2.7ZM52.2,15.1v.9c2.9,4.3,4.5,10.6,4.5,15.1,0-5.3-1.6-11.6-4.5-16ZM15.4,25.8c-.2,0-.4,0-.5.2-2.4,2.7-3.1,5.8-3.1,8.7,0,0,0,.3,0,.9,0-3,.6-6,3.1-8.7.1-.1.3-.2.5-.2s.6.3.6.7c.4,11.3,10.2,19.4,18.3,19.4s4.5-.6,4.5-.6c-12.6,0-22.3-6.8-22.8-19.7,0-.4-.3-.7-.6-.7ZM44.1,31.1v.3-.3ZM44.1,31.4c-.3,5.2-6.4,9.4-12.6,9.4s-.9.4-.9.9h.9c7.1,0,12.4-4.3,12.6-10.3Z"/>
    <path class="st30" d="M33.3,40.9h20.7c2,0,3.6-1.6,3.6-3.5v11.5c0,4.4-3.6,8-8.1,8h-24.3v-8c0-4.4,3.6-8,8.1-8Z"/>
    <path class="st24" d="M29.8,45.3h1.9c.8,0,1.4.1,1.8.4.4.3.6.7.6,1.4s0,.7-.2,1c-.2.3-.4.4-.7.5h0c.2,0,.4.2.6.3.2.1.3.3.4.5,0,.2.1.5.1.9,0,.6-.2,1.1-.6,1.5-.4.4-.9.5-1.6.5h-2.3v-7.1ZM30.7,48h1.1c1.1,0,1-.8,1-.8,0,0,0-1-1.1-1h-1.1v1.8ZM30.7,48.9v2.7h1.2c.4,0,.7,0,.8-.3.2-.2.2-.8.2-1.1s0-.8-.2-1c-.2-.2-.4-.4-.8-.4h-1.2Z"/>
    <path class="st24" d="M40.5,52.4h-4.5v-7.1h4.5v.9h-3.6v1.8h2.7v.9h-2.7v2.7h3.6v.9Z"/>
    <path class="st24" d="M45.1,52.4h-1v-6.2h-1.8v-.9h4.5v.9h-1.8v6.2Z"/>
    <path class="st24" d="M53.7,52.4l-.5-1.8h-3.7l-.6,1.8h-1.1l2.6-7.1h1.9l2.6,7.1h-1.3ZM52.8,49.7l-1.4-3.9-1.5,3.9h2.9Z"/>
    <path class="st15" d="M57.6,37.3v.9c0,1.9-1.6,3.5-3.6,3.5h-20.7c-4.5,0-8.1,3.5-8.1,8v-.9c0-4.4,3.6-8,8.1-8h20.7c2,0,3.6-1.6,3.6-3.5Z"/>
  </g>
  <g class="st20">
    <path class="st6" d="M3.2,65.2c-1.8,0-3.2-1.4-3.2-3.2v-2.3c0,1.8,1.4,3.2,3.2,3.2h57.7c1.8,0,3.2-1.4,3.2-3.2v2.3c0,1.8-1.4,3.2-3.2,3.2H3.2Z"/>
    <path class="st25" d="M32,0H14.9C6.7,0,0,6.7,0,14.9v17.1h32V0Z"/>
    <path class="st5" d="M32,0h17.3c8.1,0,14.8,6.6,14.8,14.8v17.3h-32V0Z"/>
    <path class="st29" d="M32,64H14.6c-8.1,0-14.6-6.5-14.6-14.6v-17.4h32v32Z"/>
    <path class="st25" d="M32,64h17.4c8.1,0,14.6-6.5,14.6-14.6v-17.4h-32v32Z"/>
    <path class="st14" d="M3.2,0C1.4,0,0,1.4,0,3.2v1.1C0,2.6,1.4,1.1,3.2,1.1h57.7c1.8,0,3.2,1.4,3.2,3.2v-1.1c0-1.8-1.4-3.2-3.2-3.2H3.2Z"/>
    <rect class="st24" x="9.2" y="9.1" width="45.8" height="45.7"/>
    <path class="st3" d="M16,49.2h18.3"/>
    <path class="st1" d="M16,48h18.3"/>
    <path class="st4" d="M25.2,17.1v13.7c0,3.5-2.4,4.6-4.6,4.6-2,0-4.6-1.1-4.6-4.6v-13.7"/>
    <path class="st2" d="M25.2,16v13.7c0,3.5-2.4,4.6-4.6,4.6-2,0-4.6-1.1-4.6-4.6v-13.7"/>
    <path class="st4" d="M34.3,26.3s9.2,1.1,9.2-4.6-9.2-4.6-9.2-4.6M34.3,35.4v-18.3"/>
    <path class="st2" d="M34.3,25.2s9.2,1.1,9.2-4.6-9.2-4.6-9.2-4.6M34.3,34.3v-18.3"/>
  </g>
  <g class="st20">
    <path class="st6" d="M5.7,1.1h52.7c3.2,0,5.7,2.6,5.7,5.7v52.6c0,3.2-2.6,5.7-5.7,5.7H5.7c-3.2,0-5.7-2.6-5.7-5.7V6.9C0,3.7,2.6,1.1,5.7,1.1Z"/>
    <path class="st19" d="M5.7,0h52.7c3.2,0,5.7,2.6,5.7,5.7v52.6c0,3.2-2.6,5.7-5.7,5.7H5.7c-3.2,0-5.7-2.6-5.7-5.7V5.7C0,2.6,2.6,0,5.7,0Z"/>
    <path class="st11" d="M8,22.9l2.3,3.4s1.1-2.3,4.6-2.3c2.3,4.6,5.7,28.6,13.7,28.6,16,0,24.1-27.4,24.1-34.3s1.1-5.7-5.7-5.7-12.6,11.4-12.6,11.4c0,0,3.4-1.1,6.9-1.1,1.1,3.4-2.3,11.4-8,16-4.6-5.7-4.6-25.2-10.3-25.2s-14.9,9.1-14.9,9.1Z"/>
    <path class="st21" d="M8,21.7l2.3,3.4s1.1-2.3,4.6-2.3c2.3,4.6,5.7,28.6,13.7,28.6,16,0,24.1-27.4,24.1-34.3s1.1-5.7-5.7-5.7-12.6,11.4-12.6,11.4c0,0,3.4-1.1,6.9-1.1,1.1,3.4-2.3,11.4-8,16-4.6-5.7-4.6-25.2-10.3-25.2s-14.9,9.1-14.9,9.1Z"/>
    <path class="st14" d="M5.7,0C2.6,0,0,2.5,0,5.7v1.1C0,3.7,2.6,1.1,5.7,1.1h52.7c3.2,0,5.7,2.5,5.7,5.7v-1.1c0-3.2-2.6-5.7-5.7-5.7H5.7Z"/>
  </g>
  <g>
    <path class="st11" d="M30.2,7.5h0c13.6,0,24.7,10.8,24.7,24h0c0,13.3-11,24-24.7,24h0c-13.6,0-24.7-10.8-24.7-24h0c0-13.3,11-24,24.7-24Z"/>
    <path class="st0" d="M30.2,6.7h0c13.6,0,24.7,10.8,24.7,24h0c0,13.3-11,24-24.7,24h0c-13.6,0-24.7-10.8-24.7-24h0c0-13.3,11-24,24.7-24Z"/>
    <g class="st9">
      <path class="st10" d="M30.4,7.9l-2.9.3-3.5.9-.7.6,2.2,1.5v.8l-1.4.8,1.7,2.2.8-.4,1-1.5c1.5-.4,2.8-.9,4.2-1.6l1-2.8-2.3-.9ZM23.6,8.1l-1.2.2-.6.6h-1c0,.1-.9.5-.9.5l-.4.2-.3.3,1.2.2.5-.4,1-.2c.7-.3,1.3-.5,2-.7l-.4-.6ZM18,10.6l-.2.4v1.1c0,0-.7.6-.7.6l-.5,1.2h1l.5-1c.4-.3.8-.6,1.2-.8l1,.3c.6.4,1.3.8,1.9,1.3l1-.8-1.1-.4-.5-.9-1.8-.2v-.5c0,0-1,.2-1,.2l-.4.7-.5-.9ZM42.4,11.4l-1.8.4-1.1.7v.6l-1.8,1.2.4,1.7,1.1-.7.7.7.8.4.5-1.3-.3-.7.3-.5,1-1.3h.5l-.5,1.4v.9c.4-.1.9-.2,1.3-.2l-1.2.8v.5c0,0-1.5,1.2-1.5,1.2l-1.4-.3v-.8l-.7.4.3,1h-1.1l-.6.7-.7.8-1.3.3.8.7.2.7h-1l-1.2.6v1.9h.5l.5.6,1.2-.6.5-1.2.9-.5.2-.4,1.4-.3.8.8.9.4-.5.9.8-.2.4-.9-1-1.1h.4l1,.7.2,1.1.9.9.2-1.4.5-.2c.5.5.8,1,1.2,1.6h1.4c0,.1.9.6.9.6l-.4.5-.9.7h-1.2l-1.6-.5h-.9c0,.1-.6.8-.6.8l-1.8-1.7-1.2-.3-1.8.2-1.6.4c-.9,1-1.7,2-2.5,3l-1,2.4.5.5-.9,1.3,1,2.2c.8.9,1.5,1.8,2.3,2.7l1.2-1,.5.6,1.3-.8.4.5h1.3l.7.8-.5,1.4.9,1v1.7s.6,1.3.6,1.3l-.7,1c0,.8,0,1.5,0,2.3.4,1,.6,2.1,1,3.1l.3,1.7v.8h1l1.1-.6h.9c.3-.2.7-.5,1-.7l1.2-1.3-.2-.7,1.2-1.1-.9-1,1.1-.9.9-.6.5-.5-.3-1.2v-2.9l1-1.8,1-1.2,1.1-2.7v-.7c-.6,0-1.1.1-1.7.2l1.1-1.1,1.6-1.1.9-.9v-1.1c-.2-.4-.4-.7-.6-1.1l-.8.8-.6-.6-.9-.6v-1.4l1,1.1,1.1-.2c.5.4,1,.9,1.4,1.4h.1c-.5-5.7-3-10.7-6.8-14.5-.2-.2-.4-.4-.6-.6-.3-.3-.6-.5-.9-.8l-.3.4-1,1.1-1.2-1.5h1.2l.6-.4-2.3-.4-1.2-.4ZM15.4,11.5c-.1.1-.3.2-.4.3l.2.8s-.9,0-1.4.2c-5.1,4.4-8.3,10.8-8.3,17.9.2.3.4.6.4.6l2,1.2,2,.5.9,1.1,1.3.9h.8c0-.1.6.1.6.1v.2l-.8,2-.6.8.2.4-.6,1.6,1.9,3,1.2,1.5.8,1v2.2c0,0,1,1.3,1,1.3l-.3,1.3c1.1.7,2.3,1.4,3.5,1.9l.4-.4.3-.7,1.2-.4,1.1-2.3-.5-.6.7-1.3,1.4-.3.8-1.3-.3-2.1,1.4-1.6.2-1.6c-1.6-.8-3.4-1.5-4.9-2.3l-.8-1.5-1.4-.3-.8-1.4-1.9.2-1.6-1.3-1.7,1v.2c-.5-.1-1.2-.2-1.6-.4l-.4-1.1v-1.2h-1.1c0-.6.2-1.4.3-2.1h-.7l-.7.8-.7.3-1-.5v-1.2c0,0,0-1.3,0-1.3l1.4-1.1h1.1l.2-.6,1.4.3.9,1.3.2-2.1,1.9-1.5.7-1.6h1.3s.8-1.1.8-1.1l1.7-.3.9-1.3h-2.6l1.6-.7h1.1l1.6-1,.2-.6-.6-.5-.7-.2.2-.6-.5-.9-1.1.4.2-.8-1.3-.7-1,1.8v.6c0,0-1,.4-1,.4l-.7,1.4-.3-1.3-1.8-.7-.3-.9,2.4-1.4,1.1-.9v-1.2c0,0-.5-.3-.5-.3h-1ZM33.6,12.6l-1.4.4h-.6c0-.1,0-.1,0-.1v.6c0,0,.8.4.8.4l1.8-.7-.6-.6h0ZM20.4,13l-.8.5,1,.6h.8v-.7l-1-.4ZM35.4,15.4v.6l.4.4v.9l-.2,1.3,1.1-.2.8-.7-.7-.6c-.2-.6-.5-1.1-.8-1.7h-.6ZM35,16.7l-.7.2.2,1.2.9-.4-.4-.9ZM21.9,18.6l.3,1.5.6-.8-.9-.6ZM46.8,26.8l1.1,1.2,1.3,2.7.8.8-.4.9.7.8c-.3,0-.7,0-1,0-.6-1.2-1.1-2.5-1.5-3.8l-1.1-.9-.4-1.5.5-.3Z"/>
    </g>
    <path class="st16" d="M30.2,6.7c-13.7,0-24.7,10.7-24.7,24s0,.3,0,.4c.2-13.1,11.1-23.6,24.7-23.6s24.4,10.5,24.7,23.6c0-.1,0-.3,0-.4,0-13.3-11-24-24.7-24h0Z"/>
    <path class="st11" d="M58.4,42.6c-.4,7.3-6.6,13-14.1,13-7.4,0-13.5-5.6-14.1-12.7,0,.2,0,.5,0,.7,0,7.6,6.3,13.7,14.1,13.7s14.1-6.2,14.1-13.7c0-.3,0-.7,0-1h0Z"/>
    <ellipse class="st27" cx="44.3" cy="42.7" rx="14.1" ry="13.7"/>
    <path class="st24" d="M44.3,33.3s3.5,5.7,3.5,9.4-3.5,9.4-3.5,9.4c0,0-3.5-5.7-3.5-9.4s3.5-9.4,3.5-9.4Z"/>
  </g>
</svg>