<?xml version="1.0" encoding="UTF-8"?>
<svg id="_图层_1" xmlns="http://www.w3.org/2000/svg" version="1.1" viewBox="0 0 64 64" width="22" height="22">
  <!-- Generator: Adobe Illustrator 29.0.1, SVG Export Plug-In . SVG Version: 2.1.0 Build 192)  -->
  <defs>
    <style>
      .st0 {
        fill: #bc3219;
      }

      .st1 {
        fill: #cf3d3d;
      }

      .st2, .st3, .st4, .st5, .st6 {
        isolation: isolate;
      }

      .st2, .st4, .st5, .st6 {
        opacity: .2;
      }

      .st2, .st7, .st6, .st8 {
        display: none;
      }

      .st9 {
        fill: #909198;
      }

      .st10, .st5, .st6 {
        fill: #fff;
      }

      .st11 {
        fill: #a53655;
      }

      .st12 {
        fill: #3966ff;
      }

      .st3 {
        opacity: .1;
      }

      .st13 {
        fill: #a42a2a;
      }

      .st14 {
        fill: #464646;
      }

      .st8, .st15 {
        fill: #e4e4e4;
      }

      .st16 {
        fill: #fa572c;
      }
    </style>
  </defs>
  <path class="st15" d="M50.5,64H13.9c-7.6,0-13.9-6.2-13.9-13.7V13.7C0,6.2,6.3,0,13.8,0h36.6c7.5,0,13.7,6.2,13.7,13.7v36.6c0,7.5-6.2,13.7-13.7,13.7h.1Z"/>
  <g class="st7">
    <path class="st2" d="M3.2,1.1h57.7c1.8,0,3.2,1.4,3.2,3.2v57.4c0,1.8-1.4,3.2-3.2,3.2H3.2c-1.8,0-3.2-1.4-3.2-3.2V4.3C0,2.6,1.4,1.1,3.2,1.1Z"/>
    <path class="st8" d="M3.2,0h57.7c1.8,0,3.2,1.4,3.2,3.2v57.4c0,1.8-1.4,3.2-3.2,3.2H3.2c-1.8,0-3.2-1.4-3.2-3.2V3.2C0,1.4,1.4,0,3.2,0Z"/>
    <path class="st3" d="M38.5,42.1l7.3-18.2h5.5l7.3,18.2h-5.5l-4.6-10.9-4.6,10.9h-5.5Z"/>
    <path class="st14" d="M38.5,41l7.3-18.2h5.5l7.3,18.2h-5.5l-4.6-10.9-4.6,10.9h-5.5Z"/>
    <path class="st3" d="M33,42.1l7.3-18.2h5.5l7.3,18.2h-5.5l-4.6-10.9-4.6,10.9h-5.5Z"/>
    <path class="st9" d="M33,41l7.3-18.2h5.5l7.3,18.2h-5.5l-4.6-10.9-4.6,10.9h-5.5Z"/>
    <path class="st3" d="M23.8,42.1l7.3-18.2h5.5l7.3,18.2h-5.5l-4.6-10.9-4.6,10.9h-5.5Z"/>
    <path class="st14" d="M23.8,41l7.3-18.2h5.5l7.3,18.2h-5.5l-4.6-10.9-4.6,10.9h-5.5Z"/>
    <path class="st3" d="M18.3,42.1l7.3-18.2h5.5l7.3,18.2h-5.5l-4.6-10.9-4.6,10.9h-5.5Z"/>
    <path class="st9" d="M18.3,41l7.3-18.2h5.5l7.3,18.2h-5.5l-4.6-10.9-4.6,10.9h-5.5Z"/>
    <path class="st3" d="M5.5,23.9l7.3,18.2h5.5l7.3-18.2h-5.5l-4.6,10.9-4.6-10.9h-5.5Z"/>
    <path class="st11" d="M5.5,22.8l7.3,18.2h5.5l7.3-18.2h-5.5l-4.6,10.9-4.6-10.9h-5.5Z"/>
    <path class="st6" d="M3.2,0C1.4,0,0,1.4,0,3.2v1.1C0,2.6,1.4,1.1,3.2,1.1h57.7c1.8,0,3.2,1.4,3.2,3.2v-1.1c0-1.8-1.4-3.2-3.2-3.2H3.2Z"/>
  </g>
  <g class="st7">
    <path class="st2" d="M4.8,1.1h54.4c2.7,0,4.8,2.1,4.8,4.8v54.3c0,2.6-2.1,4.8-4.8,4.8H4.8c-2.7,0-4.8-2.1-4.8-4.8V5.9C0,3.3,2.1,1.1,4.8,1.1Z"/>
    <path class="st8" d="M4.8,0h54.4c2.7,0,4.8,2.1,4.8,4.8v54.3c0,2.6-2.1,4.8-4.8,4.8H4.8c-2.7,0-4.8-2.1-4.8-4.8V4.8C0,2.1,2.1,0,4.8,0Z"/>
    <path class="st3" d="M5.4,10.3l22.9,22.8L5.4,55.9h50.6V10.3H5.4ZM51.4,51.3H16.9l18.1-18.2L16.9,14.8h34.5v36.5Z"/>
    <path class="st12" d="M5.4,9.1l22.9,22.8L5.4,54.7h50.6V9.1H5.4ZM51.4,50.2H16.9l18.1-18.2L16.9,13.7h34.5v36.5Z"/>
    <path class="st6" d="M4.8,0C2.1,0,0,2.1,0,4.8v1.1C0,3.3,2.1,1.1,4.8,1.1h54.4c2.7,0,4.8,2.1,4.8,4.8v-1.1c0-2.7-2.1-4.8-4.8-4.8H4.8Z"/>
  </g>
  <g class="st7">
    <path class="st4" d="M32,12.3c-1.3,0-2.6.5-3.5,1.4l-19.6,19c-1.9,1.9-1.9,5,0,6.9l19.6,19c1.9,1.9,5.1,1.9,7.1,0l19.6-19c1.9-1.9,1.9-5,0-6.9l-19.6-19c-1-.9-2.2-1.4-3.5-1.4Z"/>
    <path class="st13" d="M32,11.4c-1.3,0-2.6.5-3.5,1.4L8.9,31.8c-1.9,1.9-1.9,5,0,6.9l19.6,19c1.9,1.9,5.1,1.9,7.1,0l19.6-19c1.9-1.9,1.9-5,0-6.9l-19.6-19c-1-.9-2.2-1.4-3.5-1.4Z"/>
    <path class="st4" d="M32,4.9c-1.3,0-2.6.5-3.5,1.4L8.9,25.4c-1.9,1.9-1.9,5,0,6.9l19.6,19c1.9,1.9,5.1,1.9,7.1,0l19.6-19c1.9-1.9,1.9-5,0-6.9L35.5,6.3c-1-.9-2.2-1.4-3.5-1.4Z"/>
    <path class="st1" d="M32,4c-1.3,0-2.6.5-3.5,1.4L8.9,24.4c-1.9,1.9-1.9,5,0,6.9l19.6,19c1.9,1.9,5.1,1.9,7.1,0l19.6-19c1.9-1.9,1.9-5,0-6.9L35.5,5.4c-1-.9-2.2-1.4-3.5-1.4Z"/>
    <path class="st4" d="M32,17.8l-9.4,9.2,8.3,8,1.2,1.1,9.5,9.3,4-3.9-9.5-9.3,5.4-5.3-9.4-9.2Z"/>
    <path class="st10" d="M32,16.9l-9.4,9.2,8.3,8,1.2,1.1,9.5,9.3,4-3.9-9.5-9.3,5.4-5.3-9.4-9.2Z"/>
    <path class="st5" d="M32,4c-1.3,0-2.6.5-3.5,1.4L8.9,24.4c-1.1,1-1.5,2.5-1.4,3.9.1-1.1.6-2.2,1.4-3L28.5,6.3c1-.9,2.2-1.4,3.5-1.4s2.6.5,3.5,1.4l19.6,19c.8.8,1.3,1.9,1.4,3,.1-1.4-.3-2.8-1.4-3.9L35.5,5.4c-1-.9-2.2-1.4-3.5-1.4Z"/>
  </g>
  <g>
    <path class="st0" d="M17.9,8.6l-4.7,1.2s2.8,5.3,3.8,9.7c1.6,6.7,1.5,12.2,1.5,12.2l4.9-2.3s-2.9-3.4-4.6-10.3c-1-4-1-10.4-1-10.4Z"/>
    <path class="st0" d="M40.4,20.6s-1.9,5-4.2,7.1c-2.2,2-7.3,4.2-7.3,4.2l3.9,3.6s1.4-3.4,4.2-5.8c2.7-2.2,8.2-4.3,8.2-4.3l-4.7-4.9Z"/>
    <path class="st0" d="M26.3,23.5s.6,1.5.1,3.1c-.5,1.6-2.4,3.6-2.4,3.6l4,.7s-.4-2.1.1-3.6c.5-1.7,2-2.7,2-2.7l-3.9-1.1Z"/>
    <path class="st0" d="M27.8,48.6l-4.9.5s2.3,1.4,2.5,2.8c.2,1.1.2,2.1.2,2.1l2.4-.6s-.7-.8-1.1-1.8c-.6-1.4.9-3,.9-3Z"/>
    <path class="st4" d="M15.2,3.8c-2.2,0-4,1.8-4,4s1.8,4,4,4,4-1.8,4-4-1.8-4-4-4ZM46.2,13.8c-3.9,0-7,3.1-7,7s3.1,7,7,7,7-3.1,7-7-3.1-7-7-7ZM29.2,17.8c-2.2,0-4,1.8-4,4s1.8,4,4,4,4-1.8,4-4-1.8-4-4-4ZM23.2,28.8c-6.1,0-11,4.9-11,11s4.9,11,11,11,11-4.9,11-11-4.9-11-11-11ZM38.2,40.8c-1.1,0-2,.9-2,2s.9,2,2,2,2-.9,2-2-.9-2-2-2ZM42.2,46.8c-1.7,0-3,1.3-3,3s1.3,3,3,3,3-1.3,3-3-1.3-3-3-3ZM27.2,53.8c-1.7,0-3,1.3-3,3s1.3,3,3,3h0c1.7,0,3-1.3,3-3h0c0-1.7-1.3-3-3-3Z"/>
    <circle class="st16" cx="23.2" cy="38.8" r="11"/>
    <circle class="st16" cx="46.2" cy="19.8" r="7"/>
    <circle class="st16" cx="15.2" cy="6.8" r="4"/>
    <circle class="st16" cx="29.2" cy="20.8" r="4"/>
    <circle class="st16" cx="27.2" cy="55.8" r="3"/>
    <circle class="st16" cx="42.2" cy="48.8" r="3"/>
    <circle class="st16" cx="38.2" cy="41.8" r="2"/>
    <path class="st5" d="M15.2,2.8c-2.2,0-4,1.8-4,4,0,.2,0,.3,0,.5.2-2,1.9-3.5,4-3.5,2,0,3.7,1.5,4,3.5,0-.2,0-.3,0-.5,0-2.2-1.8-4-4-4ZM46.2,12.8c-3.9,0-7,3.1-7,7,0,.2,0,.3,0,.5.3-3.6,3.3-6.5,7-6.5,3.7,0,6.7,2.9,7,6.5,0-.2,0-.4,0-.5,0-3.9-3.1-7-7-7ZM29.2,16.8c-2.2,0-4,1.8-4,4,0,.2,0,.3,0,.5.2-2,1.9-3.5,4-3.5,2,0,3.7,1.5,4,3.5,0-.2,0-.3,0-.5,0-2.2-1.8-4-4-4ZM23.2,27.8c-6.1,0-11,4.9-11,11,0,.1,0,.3,0,.4.3-5.8,5.1-10.4,11-10.4,5.9,0,10.8,4.7,11,10.6,0-.2,0-.4,0-.6,0-6.1-4.9-11-11-11ZM38.2,39.8c-1.1,0-2,.9-2,2,0,.2,0,.3,0,.5.2-.9,1-1.5,1.9-1.5.9,0,1.7.6,1.9,1.5,0-.2,0-.3,0-.5,0-1.1-.9-2-2-2ZM42.2,45.8c-1.7,0-3,1.3-3,3,0,.2,0,.3,0,.5.2-1.4,1.5-2.5,3-2.5,1.5,0,2.7,1.1,3,2.5,0-.2,0-.3,0-.5,0-1.7-1.3-3-3-3ZM27.2,52.8c-1.7,0-3,1.3-3,3,0,.2,0,.3,0,.5.2-1.4,1.5-2.5,3-2.5,1.5,0,2.7,1.1,3,2.5,0-.2,0-.3,0-.5,0-1.7-1.3-3-3-3Z"/>
  </g>
</svg>