<?xml version="1.0" encoding="UTF-8"?>
<svg id="_图层_1" xmlns="http://www.w3.org/2000/svg" version="1.1" viewBox="0 0 64 64" width="22" height="22">
  <!-- Generator: Adobe Illustrator 29.0.1, SVG Export Plug-In . SVG Version: 2.1.0 Build 192)  -->
  <defs>
    <style>
      .st0 {
        fill: #bc3219;
      }

      .st1 {
        fill: #e8266b;
      }

      .st2 {
        fill: #cf3d3d;
      }

      .st3, .st4, .st5, .st6, .st7, .st8, .st9 {
        isolation: isolate;
      }

      .st3, .st10, .st11, .st8, .st12 {
        display: none;
      }

      .st3, .st5, .st7, .st8 {
        opacity: .2;
      }

      .st13 {
        fill: #dbde63;
      }

      .st14 {
        fill: #909198;
      }

      .st15, .st7, .st8, .st9 {
        fill: #fff;
      }

      .st16 {
        fill: #7b7c08;
      }

      .st17 {
        fill: #a53655;
      }

      .st18 {
        fill: #f9f9f9;
      }

      .st19 {
        fill: #6f145c;
      }

      .st20 {
        fill: #3966ff;
      }

      .st4, .st9 {
        opacity: .1;
      }

      .st21 {
        fill: #a42a2a;
      }

      .st22 {
        fill: #acae26;
      }

      .st10 {
        fill: #e13c77;
      }

      .st6 {
        opacity: .9;
      }

      .st6, .st23 {
        fill: #f8ca00;
      }

      .st24 {
        fill: #464646;
      }

      .st25 {
        fill: #e97f02;
      }

      .st12 {
        fill: #e4e4e4;
      }

      .st26 {
        fill: #fa572c;
      }
    </style>
  </defs>
  <path class="st15" d="M50.5,64H13.9c-7.6,0-13.9-6.2-13.9-13.7V13.7C0,6.2,6.3,0,13.8,0h36.6c7.5,0,13.7,6.2,13.7,13.7v36.6c0,7.5-6.2,13.7-13.7,13.7h.1Z"/>
  <g class="st11">
    <path class="st3" d="M3.2,1.1h57.7c1.8,0,3.2,1.4,3.2,3.2v57.4c0,1.8-1.4,3.2-3.2,3.2H3.2c-1.8,0-3.2-1.4-3.2-3.2V4.3C0,2.6,1.4,1.1,3.2,1.1Z"/>
    <path class="st12" d="M3.2,0h57.7c1.8,0,3.2,1.4,3.2,3.2v57.4c0,1.8-1.4,3.2-3.2,3.2H3.2c-1.8,0-3.2-1.4-3.2-3.2V3.2C0,1.4,1.4,0,3.2,0Z"/>
    <path class="st4" d="M38.5,42.1l7.3-18.2h5.5l7.3,18.2h-5.5l-4.6-10.9-4.6,10.9h-5.5Z"/>
    <path class="st24" d="M38.5,41l7.3-18.2h5.5l7.3,18.2h-5.5l-4.6-10.9-4.6,10.9h-5.5Z"/>
    <path class="st4" d="M33,42.1l7.3-18.2h5.5l7.3,18.2h-5.5l-4.6-10.9-4.6,10.9h-5.5Z"/>
    <path class="st14" d="M33,41l7.3-18.2h5.5l7.3,18.2h-5.5l-4.6-10.9-4.6,10.9h-5.5Z"/>
    <path class="st4" d="M23.8,42.1l7.3-18.2h5.5l7.3,18.2h-5.5l-4.6-10.9-4.6,10.9h-5.5Z"/>
    <path class="st24" d="M23.8,41l7.3-18.2h5.5l7.3,18.2h-5.5l-4.6-10.9-4.6,10.9h-5.5Z"/>
    <path class="st4" d="M18.3,42.1l7.3-18.2h5.5l7.3,18.2h-5.5l-4.6-10.9-4.6,10.9h-5.5Z"/>
    <path class="st14" d="M18.3,41l7.3-18.2h5.5l7.3,18.2h-5.5l-4.6-10.9-4.6,10.9h-5.5Z"/>
    <path class="st4" d="M5.5,23.9l7.3,18.2h5.5l7.3-18.2h-5.5l-4.6,10.9-4.6-10.9h-5.5Z"/>
    <path class="st17" d="M5.5,22.8l7.3,18.2h5.5l7.3-18.2h-5.5l-4.6,10.9-4.6-10.9h-5.5Z"/>
    <path class="st8" d="M3.2,0C1.4,0,0,1.4,0,3.2v1.1C0,2.6,1.4,1.1,3.2,1.1h57.7c1.8,0,3.2,1.4,3.2,3.2v-1.1c0-1.8-1.4-3.2-3.2-3.2H3.2Z"/>
  </g>
  <g class="st11">
    <path class="st3" d="M4.8,1.1h54.4c2.7,0,4.8,2.1,4.8,4.8v54.3c0,2.6-2.1,4.8-4.8,4.8H4.8c-2.7,0-4.8-2.1-4.8-4.8V5.9C0,3.3,2.1,1.1,4.8,1.1Z"/>
    <path class="st12" d="M4.8,0h54.4c2.7,0,4.8,2.1,4.8,4.8v54.3c0,2.6-2.1,4.8-4.8,4.8H4.8c-2.7,0-4.8-2.1-4.8-4.8V4.8C0,2.1,2.1,0,4.8,0Z"/>
    <path class="st4" d="M5.4,10.3l22.9,22.8L5.4,55.9h50.6V10.3H5.4ZM51.4,51.3H16.9l18.1-18.2L16.9,14.8h34.5v36.5Z"/>
    <path class="st20" d="M5.4,9.1l22.9,22.8L5.4,54.7h50.6V9.1H5.4ZM51.4,50.2H16.9l18.1-18.2L16.9,13.7h34.5v36.5Z"/>
    <path class="st8" d="M4.8,0C2.1,0,0,2.1,0,4.8v1.1C0,3.3,2.1,1.1,4.8,1.1h54.4c2.7,0,4.8,2.1,4.8,4.8v-1.1c0-2.7-2.1-4.8-4.8-4.8H4.8Z"/>
  </g>
  <g class="st11">
    <path class="st5" d="M32,12.3c-1.3,0-2.6.5-3.5,1.4l-19.6,19c-1.9,1.9-1.9,5,0,6.9l19.6,19c1.9,1.9,5.1,1.9,7.1,0l19.6-19c1.9-1.9,1.9-5,0-6.9l-19.6-19c-1-.9-2.2-1.4-3.5-1.4Z"/>
    <path class="st21" d="M32,11.4c-1.3,0-2.6.5-3.5,1.4L8.9,31.8c-1.9,1.9-1.9,5,0,6.9l19.6,19c1.9,1.9,5.1,1.9,7.1,0l19.6-19c1.9-1.9,1.9-5,0-6.9l-19.6-19c-1-.9-2.2-1.4-3.5-1.4Z"/>
    <path class="st5" d="M32,4.9c-1.3,0-2.6.5-3.5,1.4L8.9,25.4c-1.9,1.9-1.9,5,0,6.9l19.6,19c1.9,1.9,5.1,1.9,7.1,0l19.6-19c1.9-1.9,1.9-5,0-6.9L35.5,6.3c-1-.9-2.2-1.4-3.5-1.4Z"/>
    <path class="st2" d="M32,4c-1.3,0-2.6.5-3.5,1.4L8.9,24.4c-1.9,1.9-1.9,5,0,6.9l19.6,19c1.9,1.9,5.1,1.9,7.1,0l19.6-19c1.9-1.9,1.9-5,0-6.9L35.5,5.4c-1-.9-2.2-1.4-3.5-1.4Z"/>
    <path class="st5" d="M32,17.8l-9.4,9.2,8.3,8,1.2,1.1,9.5,9.3,4-3.9-9.5-9.3,5.4-5.3-9.4-9.2Z"/>
    <path class="st15" d="M32,16.9l-9.4,9.2,8.3,8,1.2,1.1,9.5,9.3,4-3.9-9.5-9.3,5.4-5.3-9.4-9.2Z"/>
    <path class="st7" d="M32,4c-1.3,0-2.6.5-3.5,1.4L8.9,24.4c-1.1,1-1.5,2.5-1.4,3.9.1-1.1.6-2.2,1.4-3L28.5,6.3c1-.9,2.2-1.4,3.5-1.4s2.6.5,3.5,1.4l19.6,19c.8.8,1.3,1.9,1.4,3,.1-1.4-.3-2.8-1.4-3.9L35.5,5.4c-1-.9-2.2-1.4-3.5-1.4Z"/>
  </g>
  <g class="st11">
    <path class="st0" d="M17.9,8.6l-4.7,1.2s2.8,5.3,3.8,9.7c1.6,6.7,1.5,12.2,1.5,12.2l4.9-2.3s-2.9-3.4-4.6-10.3c-1-4-1-10.4-1-10.4Z"/>
    <path class="st0" d="M40.4,20.6s-1.9,5-4.2,7.1c-2.2,2-7.3,4.2-7.3,4.2l3.9,3.6s1.4-3.4,4.2-5.8c2.7-2.2,8.2-4.3,8.2-4.3l-4.7-4.9Z"/>
    <path class="st0" d="M26.3,23.5s.6,1.5.1,3.1c-.5,1.6-2.4,3.6-2.4,3.6l4,.7s-.4-2.1.1-3.6c.5-1.7,2-2.7,2-2.7l-3.9-1.1Z"/>
    <path class="st0" d="M27.8,48.6l-4.9.5s2.3,1.4,2.5,2.8c.2,1.1.2,2.1.2,2.1l2.4-.6s-.7-.8-1.1-1.8c-.6-1.4.9-3,.9-3Z"/>
    <path class="st5" d="M15.2,3.8c-2.2,0-4,1.8-4,4s1.8,4,4,4,4-1.8,4-4-1.8-4-4-4ZM46.2,13.8c-3.9,0-7,3.1-7,7s3.1,7,7,7,7-3.1,7-7-3.1-7-7-7ZM29.2,17.8c-2.2,0-4,1.8-4,4s1.8,4,4,4,4-1.8,4-4-1.8-4-4-4ZM23.2,28.8c-6.1,0-11,4.9-11,11s4.9,11,11,11,11-4.9,11-11-4.9-11-11-11ZM38.2,40.8c-1.1,0-2,.9-2,2s.9,2,2,2,2-.9,2-2-.9-2-2-2ZM42.2,46.8c-1.7,0-3,1.3-3,3s1.3,3,3,3,3-1.3,3-3-1.3-3-3-3ZM27.2,53.8c-1.7,0-3,1.3-3,3s1.3,3,3,3h0c1.7,0,3-1.3,3-3h0c0-1.7-1.3-3-3-3Z"/>
    <circle class="st26" cx="23.2" cy="38.8" r="11"/>
    <circle class="st26" cx="46.2" cy="19.8" r="7"/>
    <circle class="st26" cx="15.2" cy="6.8" r="4"/>
    <circle class="st26" cx="29.2" cy="20.8" r="4"/>
    <circle class="st26" cx="27.2" cy="55.8" r="3"/>
    <circle class="st26" cx="42.2" cy="48.8" r="3"/>
    <circle class="st26" cx="38.2" cy="41.8" r="2"/>
    <path class="st7" d="M15.2,2.8c-2.2,0-4,1.8-4,4,0,.2,0,.3,0,.5.2-2,1.9-3.5,4-3.5,2,0,3.7,1.5,4,3.5,0-.2,0-.3,0-.5,0-2.2-1.8-4-4-4ZM46.2,12.8c-3.9,0-7,3.1-7,7,0,.2,0,.3,0,.5.3-3.6,3.3-6.5,7-6.5,3.7,0,6.7,2.9,7,6.5,0-.2,0-.4,0-.5,0-3.9-3.1-7-7-7ZM29.2,16.8c-2.2,0-4,1.8-4,4,0,.2,0,.3,0,.5.2-2,1.9-3.5,4-3.5,2,0,3.7,1.5,4,3.5,0-.2,0-.3,0-.5,0-2.2-1.8-4-4-4ZM23.2,27.8c-6.1,0-11,4.9-11,11,0,.1,0,.3,0,.4.3-5.8,5.1-10.4,11-10.4,5.9,0,10.8,4.7,11,10.6,0-.2,0-.4,0-.6,0-6.1-4.9-11-11-11ZM38.2,39.8c-1.1,0-2,.9-2,2,0,.2,0,.3,0,.5.2-.9,1-1.5,1.9-1.5.9,0,1.7.6,1.9,1.5,0-.2,0-.3,0-.5,0-1.1-.9-2-2-2ZM42.2,45.8c-1.7,0-3,1.3-3,3,0,.2,0,.3,0,.5.2-1.4,1.5-2.5,3-2.5,1.5,0,2.7,1.1,3,2.5,0-.2,0-.3,0-.5,0-1.7-1.3-3-3-3ZM27.2,52.8c-1.7,0-3,1.3-3,3,0,.2,0,.3,0,.5.2-1.4,1.5-2.5,3-2.5,1.5,0,2.7,1.1,3,2.5,0-.2,0-.3,0-.5,0-1.7-1.3-3-3-3Z"/>
  </g>
  <g class="st11">
    <path class="st5" d="M34.4,7c-3,0-5.5.6-6.8,1.7L8.7,25.5c-2.3,2-3.2,4.8-3.1,6.3l.5,4.9c0,0,0,.1,0,.2l.3,3.1h0c.6,3.1,3,6.6,7.1,10.6,1.8,1.5,3.6,2.7,5.7,4,10,7.1,22.3,2.7,25.7-1.8s10.3-27.7,10.3-27.7c.2-.5.7-4,.7-4,.1-.3.3-2,.4-2.8,0,0,0-.9-.2-1.8-.4-1.8-4-5.2-10.3-7l-4-1.2c-2.6-.8-5.2-1.1-7.5-1.2h0Z"/>
    <path class="st1" d="M34.4,6.1c-3,0-5.5.6-6.8,1.7L8.7,24.6c-2.3,2-3.2,4.8-3.1,6.3l.5,4.9c0,0,0,.1,0,.2l.3,3.1h0c.6,3.1,3,6.6,7.1,10.6,1.8,1.5,3.6,2.7,5.7,4,10,7.1,22.3,2.7,25.7-1.8s10.3-27.7,10.3-27.7c.2-.5.7-4,.7-4,.1-.3.3-2,.4-2.8,0,0,0-.9-.2-1.8-.4-1.8-4-5.2-10.3-7l-4-1.2c-2.6-.8-5.2-1.1-7.5-1.2h0Z"/>
    <path class="st5" d="M34.4,7c-3,0-5.5.6-6.8,1.7L8.7,25.5c-2.3,2-3.2,4.8-3.1,6.3l.5,4.9c.2,1.8,2.7,6.1,7.2,9.1l5.9,4.1c10.4,7.1,23.2,6,26.3-2l10.3-27c.1-.3.3-2,.4-2.8,0,0,0-.9-.2-1.8-.4-1.8-4-5.2-10.3-7l-4-1.2c-2.6-.8-5.2-1.1-7.5-1.2ZM52.7,15.6c.4,0,1.3.8,1.8,1.6-.6-.3-1.5-.9-1.9-1.6,0,0,.1,0,.2,0ZM40.3,47.3c.3,0,.7,0,1,0-.3.2-.6.4-.9.6-1.3.8-2.8,1.1-3.8,1,.2-.2.4-.5.7-.7.9-.8,1.9-1,2.8-1.1,0,0,.1,0,.2,0h0Z"/>
    <path class="st25" d="M34.4,6.1c-3,0-5.5.6-6.8,1.7L8.7,24.6c-2.3,2-3.2,4.8-3.1,6.3l.5,4.9c.2,1.8,2.7,6.1,7.2,9.1l5.9,4.1c10.4,7.1,23.2,6,26.3-2l10.3-27c.1-.3.3-2,.4-2.8,0,0,0-.9-.2-1.8-.4-1.8-4-5.2-10.3-7l-4-1.2c-2.6-.8-5.2-1.1-7.5-1.2ZM52.7,14.7c.4,0,1.3.8,1.8,1.6-.6-.3-1.5-.9-1.9-1.6,0,0,.1,0,.2,0ZM40.3,46.4c.3,0,.7,0,1,0-.3.2-.6.4-.9.6-1.3.8-2.8,1.1-3.8,1,.2-.2.4-.5.7-.7.9-.8,1.9-1,2.8-1.1,0,0,.1,0,.2,0h0Z"/>
    <path class="st23" d="M9.2,24.9c-4.7,4.3-3.4,11.9,4.5,17.1l5.7,3.8c10.1,6.7,22.4,5.8,25.5-1.7l10.9-26.8c1.2-2.9-3.6-6.7-10.1-8.7l-3.9-1.2c-5.7-1.7-11.6-1.5-13.8.5L9.2,24.9M36,46.2c.3-.6.7-1.4,1.7-1.9,1.9-1.1,4.2-.6,5.1-.2.6.4-.6,1.9-2.5,3.1-2,1.2-4.3,1.2-4.8.8,0-.3.1-1.2.4-1.7h0M52.5,13.5c0-.2.3-.5.5-.5.4,0,1.4.8,1.8,1.7.5,1,.4,1.8,0,1.7-.7-.3-1.9-1-2.4-1.9-.2-.5,0-.8,0-1h0"/>
    <path class="st19" d="M10,24.9s0,0,0,0c-.4.8.3,1.8.2,2.7-.1,1.4-1,1.9-2.8,3.7.2,3.4,2.5,7.2,6.9,10.1l5.4,3.5c4.4,2.9,9.5,4.2,14,4,.9-1.9,1.9-5,3.7-5.9,1.8-1,4.8.2,6.9-1.1l10.4-24.4c-.6-1.2-2.5-2-2.9-2.9-.4-.8.4-1.7.7-2.3-1.7-1.4-4.2-2.6-7.1-3.5l-3.7-1.1c-3.1-.9-6.3-1.3-8.8-1-.8.8-.9,1.1-2,1.3-.7.1-1.9,0-2.5.3,0,0,0,0,0,0L10,24.9"/>
    <path class="st1" d="M35.4,8c.7-.7,2.8-.8,4.8-.2,1.8.5,3,1.5,2.9,2.3.2.3.7.5,1.3.5.1,0,.3,0,.4,0h.2c.5,0,1,.2,1.5.3,1.6.5,2.6,1.4,2.3,2-.4.6-2.1.7-3.7.2-.9-.3-1.7-.8-2-1.2h0c0-.2-.1-.3-.2-.4-.3-.2-.8-.5-1.3-.5-.2,0-.4,0-.6,0h0c-.9,0-2-.2-2.9-.5-2.1-.7-3.2-1.8-2.5-2.6h0M12.6,32.2c-1.7,1.8-.9,4.6,1.8,6.3,2.5,1.6,5.8,1.6,7.6.1.8-.1,1.5.2,2,.8,0,.2.2.4.3.6l.2.2c.4.6,1,1.1,1.7,1.5,2.3,1.4,5,1.2,5.9-.4.9-1.5-.3-3.7-2.4-4.9-1.2-.7-2.6-.9-3.7-.7h-.1c-.3,0-.6.2-.8.3-.7,0-1.5-.3-1.9-.9,0-.3-.2-.5-.3-.8h0c-.5-1.1-1.5-2-2.7-2.7-2.6-1.4-5.9-1.3-7.5.4h0"/>
    <path class="st25" d="M13.1,25.2l16.7-16s.1,0,.2,0l19.2,6.5c.1,0,.2,0,.1.1l-12,22.1c0,0-.2,0-.3,0l-23.9-12.6c0,0-.1-.1,0-.2h0"/>
    <path class="st25" d="M18.2,30.9c0,0-.1,0-.2,0l-1,1.1h0s0,0,0,0v1c0,0,.4,1.1.4,1.1l.6.3v.2c-.1,0-.1,0-.1,0v1s.6,1.2.6,1.2l1.8,1.1c.3.2.8,0,1.1-.5l.2-.2c.2-.2.3-.5.3-.6h0v-.9s0,0,0,0c0-.2,0-.3-.2-.4l-1.8-1h0s0,0,0,0l.7-.8s0-.1,0-.1v-.9s0,0,0,0c0-.2-.4-.5-.9-.8l-.3-.2c-.4-.2-.9-.4-1.1-.4h0ZM14.4,31.1c-.3,0-.6.2-.9.5l-.2.2c-.3.3-.4.5-.4.7h0,0s.2,1,.2,1c0,0,0,.1.1.2l1.6.9-.9,1s0,0,0,.1c0,0,0,0,0,0,0,0,.1.9.1.9h0c0,.2.3.6.8.9l.3.2c.6.4,1.2.5,1.4.4l1-1.2v-1c0,0,0,0,0,0h0l-.3-1.2-.6-.3.2-.2v-1c0,0,0,0,0,0l-.5-1.1-1.7-.9s0,0-.2,0h0ZM39.3,7.4c-.2,0-.4,0-.5.2,0,0,0,0,0,0h0s-.1.5-.1.5h0c0,.2.2.4.7.6.5.2,1.1.1,1.3,0,0,0,0,0,0,0h0s.2-.5.2-.5h0c0-.2-.3-.4-.8-.6-.3,0-.6-.1-.8-.1h0ZM36.5,7.5c-.2,0-.4,0-.5.2,0,0,0,0,0,.1h0s0,.5,0,.5h0c0,.2.2.4.7.6.5.2,1.1.1,1.3,0,0,0,0,0,0,0h0s0,0,0,0c0,0,0,0,0,0v-.5c.1,0,.1,0,.1,0,0-.2-.2-.4-.7-.6-.3,0-.6-.1-.8-.1h0ZM40.9,8.9c-.2,0-.4,0-.5.2,0,0,0,0,0,0h0s-.2.5-.2.5h0c0,.2.3.5.8.6.6.2,1.2.2,1.3,0,0,0,0,0,0,0h0s.2-.5.2-.5c0,0,0,0,0,0h0s0,0,0,0c0-.2-.3-.5-.8-.6-.3,0-.6-.1-.8-.1h0ZM37.9,9c-.2,0-.4,0-.5.2,0,0,0,0,0,0h0s0,.5,0,.5h0c0,.2.2.5.7.6.6.2,1.2.2,1.3,0,0,0,0,0,0,0h0s.2-.5.2-.5c0,0,0,0,0,0h0s0,0,0,0c0-.2-.3-.5-.8-.6-.3,0-.6-.1-.8-.1h0ZM45,10.4c-.5,0-1,.1-1.1.3,0,0,0,.1,0,.2h0s-.1.7-.1.7h0c0,.4.5.9,1.5,1.3,1.1.4,2.3.3,2.5-.1,0,0,0,0,0,0h0s0,0,0,0c0,0,0,0,0,0l.2-.7h0c.1-.4-.6-1-1.6-1.3-.5-.1-1-.2-1.4-.2h0ZM27.4,35.6c-.8,0-1.5.2-1.9.8-.1.2-.2.4-.2.6h0s-.2,1.1-.2,1.1c0,0,0,.3,0,.6,0,.2.1.6.4,1,.3.4.7.9,1.4,1.2,1.5.9,3.3.8,4-.3,0-.1.1-.3.2-.4l.3-1.1h0c.2-1-.5-2.2-1.8-2.9-.6-.4-1.3-.5-2-.5h0Z"/>
    <path class="st6" d="M30,10s.1,0,.2,0l18.8,6.5c-3.9,7.2-7.7,14.2-11.6,21.5,0,0-.2.1-.3,0-7.8-4.1-15.3-8.1-23.1-12.2l16.1-15.8Z"/>
    <path class="st7" d="M34.4,6.1c-3,0-5.5.6-6.8,1.7L8.7,24.6c-2.3,2-3.2,4.8-3.1,6.3h0c.2-1.4,1.1-3.7,3.1-5.4L27.6,8.8c1.3-1.2,3.8-1.8,6.8-1.7,2.3,0,4.9.4,7.5,1.2l4,1.2c6.3,1.9,9.9,5.3,10.3,7,.1.4.2.8.2,1.1,0,0,0-.2,0-.2,0,0,0-.9-.2-1.8-.4-1.8-4-5.2-10.3-7l-4-1.2c-2.6-.8-5.2-1.1-7.5-1.2Z"/>
    <path class="st23" d="M17.1,32l.3,1.1.7.4,1.5-.2.9-1.1c.1-.2-.3-.6-.9-.9l-.3-.2c-.6-.3-1.2-.5-1.3-.3l-1,1.1M14.9,34.4l1.5-.2.8.4.3,1.2-1,1.2c-.2.2-.8,0-1.4-.4l-.3-.2c-.6-.4-1-.8-.8-1l1.1-1.2M19.9,34.1h-1.5s-.4.5-.4.5l.5,1.2,1.8,1.1c.3.2.8,0,1.1-.5l.2-.2c.3-.4.4-.9.1-1l-1.8-1M16.2,32.1l.5,1.1-.4.5h-1.5s-1.7-1-1.7-1c-.2-.1-.1-.6.2-.9l.2-.2c.4-.4.8-.6,1.1-.4l1.7.9M37.3,7.6c.5.2.8.5.7.7-.2.2-.8.2-1.3,0-.5-.2-.8-.5-.7-.7.2-.2.8-.2,1.3,0h0M41.7,9c.6.2.9.5.8.7-.2.2-.8.2-1.4,0-.6-.2-.9-.5-.7-.7.2-.2.8-.2,1.3,0h0M40.8,8.2c-.2.2-.8.2-1.3,0-.6-.2-.9-.5-.7-.7.2-.2.8-.2,1.3,0,.6.2.9.5.7.7h0M39.5,9.8c-.2.2-.8.2-1.4,0-.6-.2-.9-.5-.7-.7.2-.2.8-.2,1.4,0,.6.2.9.5.7.7h0M46.4,10.6c1.1.3,1.8,1,1.6,1.4-.3.4-1.4.5-2.6.1-1.1-.4-1.8-1-1.5-1.4.3-.4,1.4-.4,2.5-.1h0M29.4,36.1c1.5.8,2.3,2.3,1.6,3.3-.6,1-2.4,1.2-4,.2-1.5-.9-2.1-2.4-1.5-3.3.7-.9,2.4-1,3.8-.2h0"/>
  </g>
  <g class="st11">
    <ellipse class="st3" cx="32" cy="33.2" rx="32" ry="32"/>
    <ellipse class="st10" cx="32" cy="32" rx="32" ry="32"/>
    <path class="st8" d="M32,0C14.3,0,0,14.3,0,32c0,.2,0,.4,0,.7C.3,15.2,14.5,1.2,32,1.1c17.4,0,31.6,13.9,32,31.3,0-.2,0-.3,0-.5C64,14.3,49.7,0,32,0Z"/>
    <path class="st5" d="M32,9.1v5.7s-18.3.7-18.3,18.3,2.3,8,2.3,8v-8c0-8,9.6-12.6,16-12.6h11.4l-11.4-11.4ZM48,25.2v8c0,8-9.6,12.6-16,12.6h-11.4l11.4,11.4v-5.7s18.3-.7,18.3-18.3-2.3-8-2.3-8ZM28.6,26.3v13.7l10.3-6.9-10.3-6.9Z"/>
    <path class="st18" d="M32,8v5.7s-18.3.7-18.3,18.3,2.3,8,2.3,8v-8c0-8,9.6-12.6,16-12.6h11.4l-11.4-11.4ZM48,24v8c0,8-9.6,12.6-16,12.6h-11.4l11.4,11.4v-5.7s18.3-.7,18.3-18.3-2.3-8-2.3-8ZM28.6,25.2v13.7l10.3-6.9-10.3-6.9Z"/>
  </g>
  <g>
    <path class="st5" d="M21.8,5.6l2.5,17.6-15.5,12.8-.2,17.8,15.5-12.8,18.1,8.4,17-7.1-18.2-8.9-2.3-17L21.8,5.6Z"/>
    <path class="st22" d="M38.6,15.6L21.8,4.8l2.5,17.6.9,15.1,15.7-4.8-2.3-17Z"/>
    <path class="st16" d="M8.7,35.2l15.5-12.8,9.8,8-10,9.8-15.5,12.8.2-17.8Z"/>
    <path class="st13" d="M40.8,32.7l18.2,8.9-17,7.1-18.1-8.4,1.3-14.8,15.6,7.3Z"/>
    <path class="st7" d="M25.3,25.4l-1.3,14.8h0s1.2-13.9,1.2-13.9l15.6,7.3,17.3,8.4,1-.4-18.2-8.9-15.6-7.3Z"/>
    <path class="st5" d="M40.8,33.5l-16.6-10.3-.2,17.8,16.8-7.5ZM24,41s0,0,0,0Z"/>
    <path class="st15" d="M40.8,32.7l-16.6-10.3-.2,17.8,16.8-7.5ZM24,40.2s0,0,0,0Z"/>
    <path class="st7" d="M21.8,4.8v1c.1,0,16.8,10.8,16.8,10.8l2.1,16.2h.1s-2.3-17.1-2.3-17.1L21.8,4.8Z"/>
    <path class="st9" d="M24.2,22.4l-15.5,12.8v.9s15.5-12.8,15.5-12.8l9.3,7.6.5-.5-9.8-8Z"/>
  </g>
</svg>