<?xml version="1.0" encoding="UTF-8"?>
<svg id="_图层_1" xmlns="http://www.w3.org/2000/svg" version="1.1" viewBox="0 0 64 64" width="22" height="22">
  <!-- Generator: Adobe Illustrator 29.0.1, SVG Export Plug-In . SVG Version: 2.1.0 Build 192)  -->
  <defs>
    <style>
      .st0, .st1, .st2 {
        display: none;
      }

      .st0, .st3 {
        fill: #3f3f3f;
      }

      .st4 {
        fill: #28cc28;
      }

      .st1, .st2, .st5, .st6 {
        isolation: isolate;
      }

      .st1, .st5 {
        opacity: .2;
      }

      .st2, .st6 {
        fill: #fff;
        opacity: .1;
      }

      .st7 {
        fill: #3368f7;
      }

      .st8 {
        fill: #eb5252;
      }
    </style>
  </defs>
  <path class="st3" d="M50.5,64H13.9c-7.6,0-13.9-6.2-13.9-13.7V13.7C0,6.2,6.3,0,13.8,0h36.6c7.5,0,13.7,6.2,13.7,13.7v36.6c0,7.5-6.2,13.7-13.7,13.7h.1Z"/>
  <g>
    <path class="st1" d="M2.9,1.1h58c1.8,0,3.2,1.4,3.2,3.2v57.5c0,1.8-1.4,3.2-3.2,3.2H2.9c-1.8,0-3.2-1.4-3.2-3.2V4.3C-.4,2.6,1.1,1.1,2.9,1.1Z"/>
    <path class="st0" d="M2.9,0h58c1.8,0,3.2,1.4,3.2,3.2v57.5c0,1.8-1.4,3.2-3.2,3.2H2.9c-1.8,0-3.2-1.4-3.2-3.2V3.2C-.4,1.4,1.1,0,2.9,0Z"/>
    <path class="st5" d="M5.8,21.7l3.3,13.8,2.1,9h4.7l2.1-9,.2-.8,3.1-13h-4.7l-3,12.8-3-12.8h-4.7ZM22.6,21.7l-4.5,22.4v.5c0,0,4.6,0,4.6,0l2.4-12,2.8,12h4.7l2.8-12,2.4,12h4.7v-.5c0,0-4.6-22.4-4.6-22.4h-4.7l-3,12.8-3-12.8h-4.7ZM43.4,21.7v22.8h2.3s2.8,0,5.6-1.4c2.8-1.4,5.9-4.7,5.9-10s-3-8.6-5.9-10c-2.8-1.4-5.6-1.4-5.6-1.4h-2.3ZM48,26.8c.6.1.6,0,1.3.3,1.8.9,3.3,2.1,3.3,6s-1.6,5.1-3.3,6c-.6.3-.7.2-1.3.3v-12.5Z"/>
    <path class="st8" d="M5.8,20.6l3.3,13.8,2.1,9h4.7l2.1-9,.2-.8,3.1-13h-4.7l-3,12.8-3-12.8h-4.7Z"/>
    <path class="st4" d="M22.6,20.6l-4.5,22.4v.4c0,0,4.6,0,4.6,0l2.4-12,2.8,12h4.7l2.8-12,2.4,12h4.7v-.4c0,0-4.6-22.4-4.6-22.4h-4.7l-3,12.8-3-12.8h-4.7Z"/>
    <path class="st7" d="M43.4,20.6v22.8h2.3s2.8,0,5.6-1.4c2.8-1.4,5.9-4.7,5.9-10s-3-8.6-5.9-10c-2.8-1.4-5.6-1.4-5.6-1.4h-2.3ZM48,25.7c.6.1.6,0,1.3.3,1.8.9,3.3,2.1,3.3,6s-1.6,5.1-3.3,6c-.6.3-.7.2-1.3.3v-12.5Z"/>
    <path class="st2" d="M2.9,0C1.1,0-.4,1.4-.4,3.2v1.1C-.4,2.6,1.1,1.1,2.9,1.1h58c1.8,0,3.2,1.4,3.2,3.2v-1.1c0-1.8-1.4-3.2-3.2-3.2H2.9Z"/>
    <path class="st6" d="M5.8,20.6l.3,1.1h4.5l3,12.8,3-12.8h4.5l.3-1.1h-4.7l-3,12.8-3-12.8h-4.7ZM22.6,20.6l-4.5,22.4v.4c0,0,.1,0,.1,0l4.4-21.7h4.7l3,12.8,3-12.8h4.7l4.4,21.7h.2v-.4c0,0-4.6-22.4-4.6-22.4h-4.7l-3,12.8-3-12.8h-4.7ZM43.4,20.6v1.1h2.3s2.8,0,5.6,1.4c2.7,1.4,5.6,4.5,5.9,9.5,0-.2,0-.4,0-.6,0-5.3-3-8.6-5.9-10s-5.6-1.4-5.6-1.4h-2.3ZM52.5,32.5c-.2,3.3-1.6,4.6-3.3,5.4-.6.3-.7.2-1.3.3v1.1c.6-.1.6,0,1.3-.3,1.8-.9,3.3-2.1,3.3-6s0-.4,0-.6Z"/>
  </g>
</svg>