<?xml version="1.0" encoding="UTF-8"?>
<svg id="_图层_1" xmlns="http://www.w3.org/2000/svg" version="1.1" viewBox="0 0 64 64" width="22" height="22">
  <!-- Generator: Adobe Illustrator 29.0.1, SVG Export Plug-In . SVG Version: 2.1.0 Build 192)  -->
  <defs>
    <style>
      .st0, .st1, .st2 {
        display: none;
      }

      .st0, .st3, .st2 {
        isolation: isolate;
        opacity: .2;
      }

      .st4, .st2 {
        fill: #fff;
      }

      .st1, .st5 {
        fill: #288cf4;
      }
    </style>
  </defs>
  <path class="st5" d="M50.5,64H13.9c-7.6,0-13.9-6.2-13.9-13.7V13.7C0,6.2,6.3,0,13.8,0h36.6c7.5,0,13.7,6.2,13.7,13.7v36.6c0,7.5-6.2,13.7-13.7,13.7h.1Z"/>
  <g>
    <path class="st0" d="M3.2,1.1h57.6c1.8,0,3.2,1.4,3.2,3.2v57.5c0,1.8-1.4,3.2-3.2,3.2H3.2c-1.8,0-3.2-1.4-3.2-3.2V4.3C0,2.6,1.4,1.1,3.2,1.1Z"/>
    <path class="st1" d="M3.2,0h57.6c1.8,0,3.2,1.4,3.2,3.2v57.5c0,1.8-1.4,3.2-3.2,3.2H3.2c-1.8,0-3.2-1.4-3.2-3.2V3.2C0,1.4,1.4,0,3.2,0Z"/>
    <path class="st3" d="M8.3,14.8l10.3,34.1s0,0,0,0c.4,1.4,1.6,2.4,3.1,2.4s2.6-.9,3-2.2c0,0,0,0,0,0l10.3-34.3h-3.5l-9.9,33.2L11.8,14.8h-3.5ZM45.7,14.8c-4.4,0-8,3.6-8,8v8h3.4v-8c0-2.6,2-4.6,4.6-4.6s4.6,2,4.6,4.6v8h3.4v-8c0-4.4-3.6-8-8-8ZM45.7,35.4c-4.4,0-8,3.6-8,8s3.6,8,8,8h8v-3.4h-8c-2.6,0-4.6-2-4.6-4.6s2-4.6,4.6-4.6h8v-3.4h-8Z"/>
    <path class="st4" d="M8.3,13.7l10.3,34.1s0,0,0,0c.4,1.4,1.6,2.4,3.1,2.4s2.6-.9,3-2.2c0,0,0,0,0,0l10.3-34.3h-3.5l-9.9,33.2L11.8,13.7h-3.5ZM45.7,13.7c-4.4,0-8,3.6-8,8v8h3.4v-8c0-2.6,2-4.6,4.6-4.6s4.6,2,4.6,4.6v8h3.4v-8c0-4.4-3.6-8-8-8ZM45.7,34.2c-4.4,0-8,3.6-8,8s3.6,8,8,8h8v-3.4h-8c-2.6,0-4.6-2-4.6-4.6s2-4.6,4.6-4.6h8v-3.4h-8Z"/>
    <path class="st2" d="M3.2,0C1.4,0,0,1.4,0,3.2v1.1C0,2.6,1.4,1.1,3.2,1.1h57.6c1.8,0,3.2,1.4,3.2,3.2v-1.1c0-1.8-1.4-3.2-3.2-3.2H3.2Z"/>
  </g>
</svg>