<?xml version="1.0" encoding="UTF-8"?>
<svg id="_图层_1" xmlns="http://www.w3.org/2000/svg" version="1.1" viewBox="0 0 64 64" width="22" height="22">
  <!-- Generator: Adobe Illustrator 29.0.1, SVG Export Plug-In . SVG Version: 2.1.0 Build 192)  -->
  <defs>
    <style>
      .st0, .st1 {
        fill: #454f6c;
      }

      .st2, .st3, .st4, .st5, .st6, .st7, .st8, .st9 {
        isolation: isolate;
      }

      .st2, .st3, .st10, .st1, .st11, .st8 {
        display: none;
      }

      .st2, .st4, .st6, .st7, .st8 {
        opacity: .2;
      }

      .st3, .st12, .st5, .st7, .st8, .st9 {
        fill: #fff;
      }

      .st3, .st5, .st9 {
        opacity: .1;
      }

      .st13 {
        fill: #008679;
      }

      .st4, .st5, .st14 {
        fill-rule: evenodd;
      }

      .st15 {
        fill: #8e8e8e;
      }

      .st16 {
        fill: #009e8d;
      }

      .st10 {
        fill: #288cf4;
      }

      .st14 {
        fill: #ca42ca;
      }
    </style>
  </defs>
  <path class="st0" d="M50.5,64H13.9c-7.6,0-13.9-6.2-13.9-13.7V13.7C0,6.2,6.3,0,13.8,0h36.6c7.5,0,13.7,6.2,13.7,13.7v36.6c0,7.5-6.2,13.7-13.7,13.7h.1Z"/>
  <g class="st11">
    <path class="st2" d="M3.2,1.1h57.6c1.8,0,3.2,1.4,3.2,3.2v57.5c0,1.8-1.4,3.2-3.2,3.2H3.2c-1.8,0-3.2-1.4-3.2-3.2V4.3C0,2.6,1.4,1.1,3.2,1.1Z"/>
    <path class="st10" d="M3.2,0h57.6c1.8,0,3.2,1.4,3.2,3.2v57.5c0,1.8-1.4,3.2-3.2,3.2H3.2c-1.8,0-3.2-1.4-3.2-3.2V3.2C0,1.4,1.4,0,3.2,0Z"/>
    <path class="st6" d="M8.3,14.8l10.3,34.1s0,0,0,0c.4,1.4,1.6,2.4,3.1,2.4s2.6-.9,3-2.2c0,0,0,0,0,0l10.3-34.3h-3.5l-9.9,33.2L11.8,14.8h-3.5ZM45.7,14.8c-4.4,0-8,3.6-8,8v8h3.4v-8c0-2.6,2-4.6,4.6-4.6s4.6,2,4.6,4.6v8h3.4v-8c0-4.4-3.6-8-8-8ZM45.7,35.4c-4.4,0-8,3.6-8,8s3.6,8,8,8h8v-3.4h-8c-2.6,0-4.6-2-4.6-4.6s2-4.6,4.6-4.6h8v-3.4h-8Z"/>
    <path class="st12" d="M8.3,13.7l10.3,34.1s0,0,0,0c.4,1.4,1.6,2.4,3.1,2.4s2.6-.9,3-2.2c0,0,0,0,0,0l10.3-34.3h-3.5l-9.9,33.2L11.8,13.7h-3.5ZM45.7,13.7c-4.4,0-8,3.6-8,8v8h3.4v-8c0-2.6,2-4.6,4.6-4.6s4.6,2,4.6,4.6v8h3.4v-8c0-4.4-3.6-8-8-8ZM45.7,34.2c-4.4,0-8,3.6-8,8s3.6,8,8,8h8v-3.4h-8c-2.6,0-4.6-2-4.6-4.6s2-4.6,4.6-4.6h8v-3.4h-8Z"/>
    <path class="st8" d="M3.2,0C1.4,0,0,1.4,0,3.2v1.1C0,2.6,1.4,1.1,3.2,1.1h57.6c1.8,0,3.2,1.4,3.2,3.2v-1.1c0-1.8-1.4-3.2-3.2-3.2H3.2Z"/>
  </g>
  <g class="st11">
    <path class="st2" d="M3.2,1.1h57.7c1.8,0,3.2,1.4,3.2,3.2v57.7c0,1.8-1.4,3.2-3.2,3.2H3.2C1.4,65.3,0,63.8,0,62.1V4.4C0,2.6,1.4,1.1,3.2,1.1Z"/>
    <path class="st1" d="M3.2,0h57.7c1.8,0,3.2,1.4,3.2,3.2v57.7c0,1.8-1.4,3.2-3.2,3.2H3.2C1.4,64.1,0,62.7,0,60.9V3.2C0,1.4,1.4,0,3.2,0Z"/>
    <path class="st3" d="M3.2,0C1.4,0,0,1.4,0,3.2v1.1C0,2.6,1.4,1.1,3.2,1.1h57.7c1.8,0,3.2,1.4,3.2,3.2v-1.1c0-1.8-1.4-3.2-3.2-3.2H3.2Z"/>
    <path class="st6" d="M64.1,21.8c-10.6,13.8-22.3,28.6-27.6,36.6-5.1-4.2-4.6-9.6-5.7-14.6L55.5,11.4c3.7,1.4,6.1,6,8.6,10.3Z"/>
    <path class="st13" d="M64.1,20.6c-10.6,13.8-22.3,28.6-27.6,36.6-5.1-4.2-4.6-9.6-5.7-14.6L55.5,10.3c3.7,1.4,6.1,6,8.6,10.3Z"/>
    <path class="st6" d="M15.4,8H1.6s17.3,47.2,17.3,47.2c.3.9,1.4,3.1,2.8,3.2h14.7c-5.9-16-11.8-32.1-17.6-48.1-.4-.9-1.8-2.3-3.3-2.3h0Z"/>
    <path class="st16" d="M15.4,6.9H1.6s17.3,47.2,17.3,47.2c.3.9,1.4,3.1,2.8,3.2h14.7c-5.9-16-11.8-32.1-17.6-48.1-.4-.9-1.8-2.3-3.3-2.3h0Z"/>
    <path class="st6" d="M64,11.4c0-2.6-6.7-9.8-8.4-9.8l-9.8-.5c3.6,4.8,10.7,12.5,18.3,20.6v-10.4Z"/>
    <path class="st16" d="M63.8,12.4C63.8,8.8,60.7,0,49.7,0h-4c3.6,4.8,10.7,12.5,18.3,20.6l-.3-8.2Z"/>
    <path class="st7" d="M1.6,6.9l.4,1.1h13.4c1.6,0,2.9,1.3,3.3,2.3,5.7,15.7,11.5,31.3,17.2,47h.4c-5.9-16-11.8-32.1-17.6-48.1-.4-.9-1.8-2.3-3.3-2.3H1.6Z"/>
    <path class="st7" d="M45.7,0c.3.3.6.8.9,1.1l7.1-.2c1.7,0,8.5,5.1,8.4,6.5l.2-.5c-.8-1.4-5.6-6.6-10.8-6.9h-5.9Z"/>
  </g>
  <g>
    <path class="st4" d="M49,19.4c-1.8,0-3.2,1.5-3,3.3,0,0,.3,2.8-1.4,6.5s-4.7,7.2-13.6,7.2-11.9-3.6-13.6-7.2-1.4-6.5-1.4-6.5c.2-1.8-1.3-3.4-3.1-3.3-1.5,0-2.8,1.2-2.9,2.8,0,0-.5,4.2,1.9,9.5,2.2,4.8,7.2,9.7,16.1,10.6v8.2h-11c-1.7,0-3,1.3-3,3s1.3,3,3,3h28c1.7,0,3-1.3,3-3s-1.3-3-3-3h-11v-8.2c8.8-.9,13.9-5.8,16.1-10.6,2.4-5.3,1.9-9.5,1.9-9.5-.1-1.6-1.4-2.8-3-2.8Z"/>
    <path class="st6" d="M44,22v-5c0-6.9-5.8-12.5-13-12.5h0c-7.2,0-13,5.6-13,12.5v5c0,6.9,5.8,12.5,13,12.5h0c7.2,0,13-5.6,13-12.5Z"/>
    <path class="st14" d="M49,18.4c-1.8,0-3.2,1.5-3,3.3,0,0,.3,2.8-1.4,6.5s-4.7,7.2-13.6,7.2-11.9-3.6-13.6-7.2-1.4-6.5-1.4-6.5c.2-1.8-1.3-3.4-3.1-3.3-1.5,0-2.8,1.2-2.9,2.8,0,0-.5,4.2,1.9,9.5,2.2,4.8,7.2,9.7,16.1,10.6v8.2h-11c-1.7,0-3,1.3-3,3s1.3,3,3,3h28c1.7,0,3-1.3,3-3s-1.3-3-3-3h-11v-8.2c8.8-.9,13.9-5.8,16.1-10.6,2.4-5.3,1.9-9.5,1.9-9.5-.1-1.6-1.4-2.8-3-2.8Z"/>
    <path class="st15" d="M44,21v-5c0-6.9-5.8-12.5-13-12.5h0c-7.2,0-13,5.6-13,12.5v5c0,6.9,5.8,12.5,13,12.5h0c7.2,0,13-5.6,13-12.5Z"/>
    <path class="st9" d="M31,3.5c-7.2,0-13,5.6-13,12.5v1c0-6.9,5.8-12.5,13-12.5s13,5.6,13,12.5v-1c0-6.9-5.8-12.5-13-12.5Z"/>
    <path class="st5" d="M49,18.4c-1.8,0-3.2,1.5-3,3.3,0,0,0,.2,0,.3.2-1.5,1.4-2.6,3-2.6,1.6,0,2.9,1.2,3,2.8,0,0,0,.3,0,.6,0-1,0-1.6,0-1.6-.1-1.6-1.4-2.8-3-2.8ZM13,18.5c-1.5,0-2.8,1.2-2.9,2.8,0,0,0,.6,0,1.6,0-.3,0-.6,0-.6.1-1.5,1.4-2.7,2.9-2.8,1.6,0,2.9,1.1,3.1,2.6,0-.1,0-.3,0-.3.2-1.8-1.3-3.4-3.1-3.3ZM16,22.5c0,0,0,.2,0,.3,0,0-.3,2.8,1.4,6.5,1.7,3.7,4.7,7.2,13.6,7.2s11.9-3.6,13.6-7.2c1.7-3.7,1.4-6.5,1.4-6.5,0,0,0-.2,0-.2,0,1.1-.2,3.1-1.4,5.7-1.7,3.7-4.7,7.2-13.6,7.2s-11.9-3.6-13.6-7.2c-1.2-2.6-1.4-4.7-1.4-5.7ZM17,49.5c-1.7,0-3,1.3-3,3s0,.3,0,.5c.2-1.4,1.5-2.5,2.9-2.5h11v-1h-11ZM34,49.5v1h11c1.5,0,2.7,1.1,2.9,2.5,0-.2,0-.3,0-.5,0-1.7-1.3-3-3-3h-11Z"/>
  </g>
</svg>