<?xml version="1.0" encoding="UTF-8"?>
<svg id="_图层_1" xmlns="http://www.w3.org/2000/svg" version="1.1" viewBox="0 0 64 64" width="22" height="22">
  <!-- Generator: Adobe Illustrator 29.0.1, SVG Export Plug-In . SVG Version: 2.1.0 Build 192)  -->
  <defs>
    <style>
      .st0 {
        fill: #4f4f4f;
      }

      .st1, .st2, .st3, .st4 {
        isolation: isolate;
      }

      .st1, .st3 {
        opacity: .2;
      }

      .st1, .st3, .st5 {
        display: none;
      }

      .st2, .st4 {
        opacity: .1;
      }

      .st6, .st5 {
        fill: #ffb943;
      }

      .st3, .st4 {
        fill: #fff;
      }

      .st7 {
        fill: none;
        stroke: #3f3f3f;
        stroke-linecap: round;
        stroke-linejoin: round;
        stroke-width: 6px;
      }
    </style>
  </defs>
  <path class="st6" d="M50.5,64H13.9c-7.6,0-13.9-6.2-13.9-13.7V13.7C0,6.2,6.3,0,13.8,0h36.6c7.5,0,13.7,6.2,13.7,13.7v36.6c0,7.5-6.2,13.7-13.7,13.7h.1Z"/>
  <g>
    <path class="st1" d="M64,51.2V14.4c0-2-1.8-3.7-4-3.7H4c-2.2,0-4,1.6-4,3.7v36.7c0,2,1.8,3.7,4,3.7h56c2.2,0,4-1.6,4-3.7Z"/>
    <path class="st5" d="M64,50.1V13.3c0-2-1.8-3.7-4-3.7H4c-2.2,0-4,1.6-4,3.7v36.7c0,2,1.8,3.7,4,3.7h56c2.2,0,4-1.6,4-3.7Z"/>
    <path class="st3" d="M4,9.7c-2.2,0-4,1.6-4,3.7v1.1c0-2,1.8-3.7,4-3.7h56c2.2,0,4,1.6,4,3.7v-1.1c0-2-1.8-3.7-4-3.7H4Z"/>
    <path class="st7" d="M14.9,4.2l9.6,15.4"/>
    <path class="st2" d="M15.9,19.6c-1,.5-1.3,1.7-.8,2.6.2.3.4.5.7.7l6,3.2,6,3.2c1,.5,2.2.2,2.8-.7.2-.3.3-.6.3-.9v-6.4s0-6.4,0-6.4c0-1-.9-1.9-2-1.9-.4,0-.7,0-1,.3l-6,3.2-6,3.2Z"/>
    <path class="st4" d="M15,.8c-1.9,0-3.5,1.3-3.6,3.2,0,.2,0,.5,0,.7.3-1.6,1.8-2.8,3.5-2.8,1.2,0,2.2.7,2.8,1.6l9.6,15.4c.2.4.4.8.5,1.2.1-.8,0-1.6-.5-2.3L17.8,2.5c-.6-1-1.6-1.6-2.8-1.6Z"/>
    <path class="st0" d="M15.9,18.5c-1,.5-1.3,1.7-.8,2.6.2.3.4.5.7.7l6,3.2,6,3.2c1,.5,2.2.2,2.8-.7.2-.3.3-.6.3-.9v-6.4s0-6.4,0-6.4c0-1-.9-1.9-2-1.9-.4,0-.7,0-1,.3l-6,3.2-6,3.2Z"/>
    <path class="st7" d="M35.4,38.3l9.6,15.4"/>
    <path class="st2" d="M36.4,53.7c-1,.5-1.3,1.7-.8,2.6.2.3.4.5.7.7l6,3.2,6,3.2c1,.5,2.2.2,2.8-.7.2-.3.3-.6.3-.9v-6.4s0-6.4,0-6.4c0-1-.9-1.9-2-1.9-.4,0-.7,0-1,.3l-6,3.2-6,3.2Z"/>
    <path class="st0" d="M36.4,52.6c-1,.5-1.3,1.7-.8,2.6.2.3.4.5.7.7l6,3.2,6,3.2c1,.5,2.2.2,2.8-.7.2-.3.3-.6.3-.9v-6.4s0-6.4,0-6.4c0-1-.9-1.9-2-1.9-.4,0-.7,0-1,.3l-6,3.2-6,3.2Z"/>
  </g>
</svg>