<?xml version="1.0" encoding="UTF-8"?>
<svg id="_图层_1" xmlns="http://www.w3.org/2000/svg" version="1.1" viewBox="0 0 64 64" width="22" height="22">
  <!-- Generator: Adobe Illustrator 29.0.1, SVG Export Plug-In . SVG Version: 2.1.0 Build 192)  -->
  <defs>
    <style>
      .st0 {
        fill: #4f4f4f;
      }

      .st1 {
        fill: #277390;
      }

      .st2, .st3, .st4, .st5, .st6, .st7 {
        isolation: isolate;
      }

      .st2, .st3, .st8, .st6, .st9, .st10 {
        display: none;
      }

      .st2, .st5, .st6 {
        opacity: .2;
      }

      .st3, .st11, .st6, .st7 {
        fill: #fff;
      }

      .st3, .st4, .st7 {
        opacity: .1;
      }

      .st12 {
        fill: #2689fd;
      }

      .st13 {
        fill: #ec8530;
      }

      .st14 {
        fill: #4d4e99;
      }

      .st15 {
        fill: #ffca68;
      }

      .st16 {
        fill: #e74949;
      }

      .st17 {
        fill: #ffc255;
      }

      .st9, .st18 {
        fill: #e4e4e4;
      }

      .st10 {
        fill: #4899d7;
      }
    </style>
  </defs>
  <path class="st18" d="M50.4,64H13.8c-7.6,0-13.8-6.2-13.8-13.7V13.7C0,6.2,6.2,0,13.7,0h36.6c7.5,0,13.7,6.2,13.7,13.7v36.6c0,7.5-6.2,13.7-13.7,13.7h.1Z"/>
  <g class="st8">
    <path class="st5" d="M27.4,9.3c-3.2.2-6.2,1.9-7.9,4.8L1.3,45.6c-.9,1.5-1.3,3.2-1.2,4.9h16v8.1c1-.8,1.9-1.8,2.6-2.9l18.2-31.5c2.7-4.7,1-10.7-3.8-13.5-1.8-1-3.8-1.5-5.7-1.4Z"/>
    <path class="st5" d="M42,22.4c-1.9-.2-3.8.2-5.6,1.3L4.9,41.9C1.7,43.7,0,47,0,50.5h16v8l30.4-17.5c4.7-2.7,6.3-8.8,3.5-13.6-1.7-3-4.7-4.8-7.9-5Z"/>
    <path class="st5" d="M9.8,40.5h36.4c5.4,0,9.8,4.5,9.8,10h0c0,5.5-4.4,10-9.8,10H9.8C4.4,60.5,0,56,0,50.5H0c0-5.5,4.4-10,9.8-10Z"/>
    <path class="st0" d="M10,3.5C4.5,3.5,0,7.9,0,13.3v36.2h16v8c2.4-1.8,4-4.6,4-7.8V13.3c0-5.4-4.5-9.8-10-9.8Z"/>
    <path class="st7" d="M10,3.5C4.5,3.5,0,7.9,0,13.3v1C0,8.9,4.5,4.5,10,4.5s10,4.4,10,9.8v-1c0-5.4-4.5-9.8-10-9.8Z"/>
    <path class="st14" d="M27.4,8.3c-3.2.2-6.2,1.9-7.9,4.8L1.3,44.6c-.9,1.5-1.3,3.2-1.2,4.9h16v8.1c1-.8,1.9-1.8,2.6-2.9l18.2-31.5c2.7-4.7,1-10.7-3.8-13.5-1.8-1-3.8-1.5-5.7-1.4Z"/>
    <path class="st16" d="M42,21.4c-1.9-.2-3.8.2-5.6,1.3L4.9,40.9C1.7,42.7,0,46,0,49.5h16v8l30.4-17.5c4.7-2.7,6.3-8.8,3.5-13.6-1.7-3-4.7-4.8-7.9-5Z"/>
    <path class="st17" d="M9.8,39.5h36.4c5.4,0,9.8,4.5,9.8,10h0c0,5.5-4.4,10-9.8,10H9.8C4.4,59.5,0,55,0,49.5H0c0-5.5,4.4-10,9.8-10Z"/>
    <circle class="st5" cx="10" cy="50.5" r="4"/>
    <circle class="st11" cx="10" cy="49.5" r="4"/>
    <path class="st7" d="M28.1,8.3c-.2,0-.5,0-.7,0-3.2.2-6.2,1.9-7.9,4.8L1.3,44.6c-.9,1.5-1.3,3.2-1.2,4.9h0c.1-1.3.5-2.6,1.2-3.9L19.5,14.1c1.7-2.9,4.7-4.6,7.9-4.8,1.9-.1,3.9.3,5.7,1.4,3.1,1.8,4.9,4.9,5,8.1.2-3.6-1.6-7.2-5-9.1-1.6-.9-3.3-1.4-5-1.4Z"/>
    <path class="st7" d="M41.3,21.4c-1.7,0-3.3.4-4.9,1.3L4.9,40.9C1.7,42.7,0,46,0,49.5h0c.3-3.1,1.9-6,4.8-7.6l31.5-18.2c1.8-1,3.7-1.4,5.6-1.3,3.2.3,6.2,2,7.9,5,.8,1.5,1.3,3,1.4,4.6,0-1.9-.3-3.8-1.4-5.6-1.7-3-4.7-4.8-7.9-5-.2,0-.5,0-.7,0Z"/>
    <path class="st7" d="M9.8,39.5C4.4,39.5,0,44,0,49.5s0,.3,0,.5c.3-5.3,4.5-9.5,9.8-9.5h36.4c5.3,0,9.5,4.2,9.8,9.5,0-.2,0-.3,0-.5,0-5.5-4.4-10-9.8-10H9.8Z"/>
  </g>
  <g class="st8">
    <ellipse class="st2" cx="31.9" cy="33.1" rx="32.1" ry="32"/>
    <ellipse class="st9" cx="31.9" cy="32" rx="32.1" ry="32"/>
    <path class="st6" d="M31.9,0C14.2,0-.1,14.3-.1,32c0,.2,0,.4,0,.6C.2,15.1,14.5,1.2,31.9,1.1c17.4,0,31.6,13.8,32,31.1,0,0,0-.2,0-.3C64,14.3,49.6,0,31.9,0Z"/>
    <path class="st5" d="M31.2,9.6c-1.3.8-1.7,2.6-.8,3.9,4.6,7.2,5.7,12.6,5.2,17.3-1.9,9.1-6.1,10.9-9.7,10.9s-2.6-5.8,0-7.5c1.6-1,3.6-1.6,5.2-1.6s2.8-1.3,2.8-2.8-1.3-2.8-2.8-2.8-3.6.4-5.3,1c.3-1.6.5-3.4,0-5.2-.7-2.8-2.6-5.5-6-8.1-.6-.5-1.3-.7-2.1-.6-.7,0-1.4.5-1.9,1.1-1,1.2-.7,3,.5,3.9,2.7,2.1,3.6,3.7,4,5,.3,1.3,0,2.7-.6,4.6-.8,2.6-1.7,4.9-2.1,7.1-.2,1.1-.2,2.3-.3,3.2-2-1.9-2.7-4.4-2.7-8.1s-1.3-2.8-2.8-2.8c-1.6,0-2.8,1.3-2.8,2.8,0,5.1,1.5,9.9,5.4,13.1,3.6,3.4,12.7,2.2,12.7,7.6s2.3,2.3,3.8,2.3,3.6-1.1,3.6-2.3c0-6.2,6.6-10,17.4-10,1.6,0,2.8-1.2,2.8-2.8,0-1.5-1.3-2.8-2.8-2.8-.7,0-1.5,0-2.2,0,1.2-2.8,1.7-6,1.6-9.3,0-1.5-1.4-2.8-2.9-2.7-1.6,0-2.8,1.3-2.7,2.9.1,4.4,0,8.4-3.3,10.4-.9.6-2,1.1-3.1,1.1.8-2.2,1.4-4.5,1.7-7,.2-1.6.2-3.5,0-4.9-.3-2.3-.6-4.8.2-6.8.8-1.7,2.5-2.4,5-2.4,1.6,0,2.8-1.3,2.8-2.8,0-1.5-1.3-2.8-2.8-2.8-3.8,0-6.6,2-8.3,4.4-.8-1.8-1.9-3.7-3.1-5.6-.4-.6-1-1.1-1.8-1.2-.4,0-.7,0-1.1,0-.4,0-.7.2-1,.4Z"/>
    <path class="st12" d="M31.2,8.4c-1.3.8-1.7,2.6-.8,3.9,4.6,7.2,5.7,12.6,5.2,17.3-1.9,9.1-6.1,10.9-9.7,10.9s-2.6-5.8,0-7.5c1.6-1,3.6-1.6,5.2-1.6s2.8-1.3,2.8-2.8-1.3-2.8-2.8-2.8-3.6.4-5.3,1c.3-1.6.5-3.4,0-5.2-.7-2.8-2.6-5.5-6-8.1-.6-.5-1.3-.7-2.1-.6-.7,0-1.4.5-1.9,1.1-1,1.2-.7,3,.5,3.9,2.7,2.1,3.6,3.7,4,5,.3,1.3,0,2.7-.6,4.6-.8,2.6-1.7,4.9-2.1,7.1-.2,1.1-.2,2.3-.3,3.2-2-1.9-2.7-4.4-2.7-8.1s-1.3-2.8-2.8-2.8c-1.6,0-2.8,1.3-2.8,2.8,0,5.1,1.5,9.9,5.4,13.1,3.6,3.4,12.7,2.2,12.7,7.6s2.3,2.3,3.8,2.3,3.6-1.1,3.6-2.3c0-6.2,6.6-10,17.4-10,1.6,0,2.8-1.2,2.8-2.8,0-1.5-1.3-2.8-2.8-2.8-.7,0-1.5,0-2.2,0,1.2-2.8,1.7-6,1.6-9.3,0-1.5-1.4-2.8-2.9-2.7-1.6,0-2.8,1.3-2.7,2.9.1,4.4,0,8.4-3.3,10.4-.9.6-2,1.1-3.1,1.1.8-2.2,1.4-4.5,1.7-7,.2-1.6.2-3.5,0-4.9-.3-2.3-.6-4.8.2-6.8.8-1.7,2.5-2.4,5-2.4,1.6,0,2.8-1.3,2.8-2.8,0-1.5-1.3-2.8-2.8-2.8-3.8,0-6.6,2-8.3,4.4-.8-1.8-1.9-3.7-3.1-5.6-.4-.6-1-1.1-1.8-1.2-.4,0-.7,0-1.1,0-.4,0-.7.2-1,.4Z"/>
  </g>
  <g class="st8">
    <ellipse class="st2" cx="32" cy="33" rx="32" ry="31.9"/>
    <ellipse class="st9" cx="32" cy="31.9" rx="32" ry="31.9"/>
    <path class="st6" d="M32,0C14.3,0,0,14.3,0,31.9c0,.2,0,.4,0,.6C.4,15.1,14.6,1.2,32,1.1c17.3,0,31.5,13.8,32,31,0,0,0-.2,0-.3C64,14.3,49.7,0,32,0Z"/>
    <path class="st5" d="M31.2,9.6c-1.3.8-1.7,2.6-.8,3.9,4.6,7.1,5.7,12.5,5.2,17.2-1.9,9-6.1,10.9-9.7,10.9s-2.6-5.8,0-7.5c1.6-1,3.6-1.6,5.2-1.6s2.8-1.2,2.8-2.8-1.3-2.8-2.8-2.8-3.6.4-5.3,1c.3-1.6.5-3.3,0-5.2-.7-2.8-2.6-5.5-6-8.1-.6-.5-1.3-.7-2.1-.6-.7,0-1.4.5-1.9,1.1-1,1.2-.7,3,.5,3.9,2.7,2.1,3.6,3.7,3.9,5,.3,1.3,0,2.7-.6,4.6-.8,2.6-1.7,4.8-2.1,7-.2,1.1-.2,2.3-.3,3.2-2-1.9-2.7-4.4-2.7-8.1s-1.3-2.8-2.8-2.8c-1.5,0-2.8,1.3-2.8,2.8,0,5,1.5,9.8,5.4,13,3.6,3.4,12.7,2.1,12.7,7.6s2.3,2.3,3.8,2.3,3.6-1.1,3.6-2.3c0-6.2,6.6-10,17.3-10,1.6,0,2.8-1.2,2.8-2.8,0-1.5-1.3-2.8-2.8-2.8-.7,0-1.5,0-2.2,0,1.2-2.8,1.7-5.9,1.6-9.3,0-1.5-1.3-2.7-2.9-2.7-1.6,0-2.8,1.3-2.7,2.9.1,4.4,0,8.3-3.3,10.4-.9.6-2,1.1-3.1,1.1.8-2.2,1.4-4.5,1.7-6.9.2-1.6.2-3.5,0-4.9-.3-2.3-.6-4.8.2-6.7.8-1.7,2.5-2.4,5-2.4,1.5,0,2.8-1.3,2.8-2.8,0-1.5-1.3-2.8-2.8-2.8-3.8,0-6.6,2-8.3,4.4-.8-1.8-1.9-3.7-3.1-5.6-.4-.6-1-1.1-1.8-1.2-.4,0-.7,0-1.1,0-.4,0-.7.2-1,.4Z"/>
    <path class="st13" d="M31.2,8.4c-1.3.8-1.7,2.6-.8,3.9,4.6,7.1,5.7,12.5,5.2,17.2-1.9,9-6.1,10.9-9.7,10.9s-2.6-5.8,0-7.5c1.6-1,3.6-1.6,5.2-1.6s2.8-1.2,2.8-2.8-1.3-2.8-2.8-2.8-3.6.4-5.3,1c.3-1.6.5-3.3,0-5.2-.7-2.8-2.6-5.5-6-8.1-.6-.5-1.3-.7-2.1-.6-.7,0-1.4.5-1.9,1.1-1,1.2-.7,3,.5,3.9,2.7,2.1,3.6,3.7,3.9,5,.3,1.3,0,2.7-.6,4.6-.8,2.6-1.7,4.8-2.1,7-.2,1.1-.2,2.3-.3,3.2-2-1.9-2.7-4.4-2.7-8.1s-1.3-2.8-2.8-2.8c-1.5,0-2.8,1.3-2.8,2.8,0,5,1.5,9.8,5.4,13,3.6,3.4,12.7,2.1,12.7,7.6s2.3,2.3,3.8,2.3,3.6-1.1,3.6-2.3c0-6.2,6.6-10,17.3-10,1.6,0,2.8-1.2,2.8-2.8,0-1.5-1.3-2.8-2.8-2.8-.7,0-1.5,0-2.2,0,1.2-2.8,1.7-5.9,1.6-9.3,0-1.5-1.3-2.7-2.9-2.7-1.6,0-2.8,1.3-2.7,2.9.1,4.4,0,8.3-3.3,10.4-.9.6-2,1.1-3.1,1.1.8-2.2,1.4-4.5,1.7-6.9.2-1.6.2-3.5,0-4.9-.3-2.3-.6-4.8.2-6.7.8-1.7,2.5-2.4,5-2.4,1.5,0,2.8-1.3,2.8-2.8,0-1.5-1.3-2.8-2.8-2.8-3.8,0-6.6,2-8.3,4.4-.8-1.8-1.9-3.7-3.1-5.6-.4-.6-1-1.1-1.8-1.2-.4,0-.7,0-1.1,0-.4,0-.7.2-1,.4Z"/>
  </g>
  <g class="st8">
    <path class="st10" d="M32,0h0c17.7,0,32,14.3,32,31.9h0c0,17.6-14.3,31.9-32,31.9h0C14.3,63.9,0,49.6,0,31.9h0C0,14.3,14.3,0,32,0Z"/>
    <path class="st3" d="M32,0C14.3,0,0,14.2,0,31.9s0,.3,0,.4C.4,15,14.5,1.1,32,1.1s31.6,13.8,32,31.2c0-.1,0-.3,0-.4C64,14.2,49.7,0,32,0Z"/>
    <path class="st5" d="M50.3,14.8s-5.5-.2-11,2.6c-1.7.8-3.5,2-5,3.5-2.5,2.5-6.3,7-9.3,10.6h-6.7l-3,4.6,5.2,1.4c0,.2,0,.4.2.8l-.8,1.8s-.3.6,2,3c2.4,2.4,3.2,2.1,3.2,2.1l1.9-.9c.3,0,.5.1.6.1l1.4,5.3,4.6-3v-6.9c3.7-3,8.2-6.7,10.7-9.1,1.5-1.5,2.7-3.3,3.7-5,2.6-5.5,2.4-10.9,2.4-10.9h0ZM39.6,28.5c-1.7,0-3-1.4-3-3s1.4-3,3-3,3,1.4,3,3-1.4,3-3,3ZM23.6,46.7c.3.2.5.3.8.5-.3.3-.6.8-.9,1.1-3.5,3.5-9.7,3-9.7,3,0,0-.5-6.2,3-9.7.3-.3.8-.6,1.1-.9.2.3.3.5.5.8-2.3,2.9-2,7.3-2,7.3,0,0,4.4.3,7.3-2h0Z"/>
    <path class="st15" d="M50.3,13.7s-5.5-.2-11,2.6c-1.7.8-3.5,2-5,3.5-2.5,2.5-6.3,7-9.3,10.6h-6.7l-3,4.6,5.2,1.4c0,.2,0,.4.2.8l-.8,1.8s-.3.6,2,3c2.4,2.4,3.2,2.1,3.2,2.1l1.9-.9c.3,0,.5.1.6.1l1.4,5.3,4.6-3v-6.9c3.7-3,8.2-6.7,10.7-9.1,1.5-1.5,2.7-3.3,3.7-5,2.6-5.5,2.4-10.9,2.4-10.9h0Z"/>
    <path class="st5" d="M39.6,28.5c-1.7,0-3-1.4-3-3s1.4-3,3-3,3,1.4,3,3-1.4,3-3,3Z"/>
    <path class="st11" d="M39.6,27.4c-1.7,0-3-1.4-3-3s1.4-3,3-3,3,1.4,3,3-1.4,3-3,3Z"/>
    <path class="st15" d="M23.6,45.6c.3.2.5.3.8.5-.3.3-.6.8-.9,1.1-3.5,3.5-9.7,3-9.7,3,0,0-.5-6.2,3-9.7.3-.3.8-.6,1.1-.9.2.3.3.5.5.8-2.3,2.9-2,7.3-2,7.3,0,0,4.4.3,7.3-2h0Z"/>
    <path class="st2" d="M64,32.7c-.4,17.3-14.5,31.2-32,31.2S.4,50,0,32.7c0,.1,0,.3,0,.4,0,17.7,14.3,31.9,32,31.9s32-14.2,32-31.9,0-.3,0-.4Z"/>
  </g>
  <g>
    <rect class="st2" y="1.1" width="22" height="22" rx="3.4" ry="3.4"/>
    <path class="st9" d="M3.4,0h57.1c1.9,0,3.4,1.5,3.4,3.4v57.2c0,1.9-1.5,3.4-3.4,3.4H3.4c-1.9,0-3.4-1.5-3.4-3.4V3.4C0,1.5,1.5,0,3.4,0Z"/>
    <path class="st6" d="M3.4,0C1.5,0,0,1.5,0,3.4v1.1C0,2.7,1.5,1.1,3.4,1.1h57.1c1.9,0,3.4,1.5,3.4,3.4v-1.1c0-1.9-1.5-3.4-3.4-3.4H3.4Z"/>
    <path class="st4" d="M32,14.9s-6.4,10.3-16,13.5c0,8,4.8,14.4,4.8,14.4,0,0-2.5-7.3-1.4-11.9,9.6-3.2,12.6-8,12.6-8,0,0,3,4.8,12.6,8,1.1,4.6-1.4,11.9-1.4,11.9,0,0,4.8-6.4,4.8-14.4-9.6-3.2-16-13.5-16-13.5ZM32,27.4s-5,3.7-11.4,6.9c0,6.4,3.4,10.3,3.4,10.3,0,0-1.1-3.2-1.1-8,6.4-1.6,9.1-5.7,9.1-5.7,0,0,2.7,4.1,9.1,5.7,0,4.8-1.1,8-1.1,8,0,0,3.4-3.9,3.4-10.3-6.4-3.2-11.4-6.9-11.4-6.9ZM12.6,32s-1.6,2.9-8,2.9c3.2,3.2,6.9,12,6.9,12l3.4,1.1s-2.5-3.4-5.7-11.4c3.4,0,5.1-1.1,5.1-1.1l-1.7-3.4ZM51.4,32l-1.7,3.4s1.7,1.1,5.1,1.1c-3.2,8-5.7,11.4-5.7,11.4l3.4-1.1s3.7-8.8,6.9-12c-6.4,0-8-2.9-8-2.9ZM32,34.3s-1.6,2.5-8,5.7c0,4,3.4,8,3.4,8,0,0-1.1-3.7-1.1-6.9,4.8-1.6,5.7-3.4,5.7-3.4,0,0,.9,1.8,5.7,3.4,0,3.2-1.1,6.9-1.1,6.9,0,0,3.4-4,3.4-8-6.4-3.2-8-5.7-8-5.7ZM15.4,37.7s-1.3,1.1-2.9,1.1c1.6,2.4,3.4,6.3,3.4,6.3l1.1.6s-1.8-4.1-2.9-6.3h1.7c0,.1-.6-1.7-.6-1.7ZM48.6,37.7l-.6,1.8h1.7c-1.1,2.1-2.9,6.2-2.9,6.2l1.1-.6s1.8-3.9,3.4-6.3c-1.6,0-2.9-1.1-2.9-1.1Z"/>
    <path class="st1" d="M32,13.7s-6.4,10.3-16,13.5c0,8,4.8,14.4,4.8,14.4,0,0-2.5-7.3-1.4-11.9,9.6-3.2,12.6-8,12.6-8,0,0,3,4.8,12.6,8,1.1,4.6-1.4,11.9-1.4,11.9,0,0,4.8-6.4,4.8-14.4-9.6-3.2-16-13.5-16-13.5ZM32,26.3s-5,3.7-11.4,6.9c0,6.4,3.4,10.3,3.4,10.3,0,0-1.1-3.2-1.1-8,6.4-1.6,9.1-5.7,9.1-5.7,0,0,2.7,4.1,9.1,5.7,0,4.8-1.1,8-1.1,8,0,0,3.4-3.9,3.4-10.3-6.4-3.2-11.4-6.9-11.4-6.9ZM12.6,30.9s-1.6,2.9-8,2.9c3.2,3.2,6.9,12,6.9,12l3.4,1.1s-2.5-3.4-5.7-11.4c3.4,0,5.1-1.1,5.1-1.1l-1.7-3.4ZM51.4,30.9l-1.7,3.4s1.7,1.1,5.1,1.1c-3.2,8-5.7,11.4-5.7,11.4l3.4-1.1s3.7-8.8,6.9-12c-6.4,0-8-2.9-8-2.9ZM32,33.2s-1.6,2.5-8,5.7c0,4,3.4,8,3.4,8,0,0-1.1-3.7-1.1-6.9,4.8-1.6,5.7-3.4,5.7-3.4,0,0,.9,1.8,5.7,3.4,0,3.2-1.1,6.9-1.1,6.9,0,0,3.4-4,3.4-8-6.4-3.2-8-5.7-8-5.7ZM15.4,36.6s-1.3,1.1-2.9,1.1c1.6,2.4,3.4,6.3,3.4,6.3l1.1.6s-1.8-4.1-2.9-6.3h1.7c0,.1-.6-1.7-.6-1.7ZM48.6,36.6l-.6,1.8h1.7c-1.1,2.1-2.9,6.2-2.9,6.2l1.1-.6s1.8-3.9,3.4-6.3c-1.6,0-2.9-1.1-2.9-1.1Z"/>
  </g>
</svg>