<?xml version="1.0" encoding="UTF-8"?>
<svg id="_图层_1" xmlns="http://www.w3.org/2000/svg" version="1.1" viewBox="0 0 64 64" width="22" height="22">
  <!-- Generator: Adobe Illustrator 29.0.1, SVG Export Plug-In . SVG Version: 2.1.0 Build 192)  -->
  <defs>
    <style>
      .st0, .st1, .st2 {
        display: none;
      }

      .st0, .st1, .st3 {
        isolation: isolate;
      }

      .st0, .st3 {
        opacity: .2;
      }

      .st1 {
        opacity: .1;
      }

      .st1, .st4 {
        fill: #fff;
      }

      .st2, .st5 {
        fill: #992b2b;
      }

      .st6 {
        fill: #ffa407;
      }
    </style>
  </defs>
  <path class="st5" d="M50.4,64H13.8c-7.6,0-13.8-6.2-13.8-13.7V13.7C0,6.2,6.2,0,13.7,0h36.6c7.5,0,13.7,6.2,13.7,13.7v36.6c0,7.5-6.2,13.7-13.7,13.7h.1Z"/>
  <g>
    <ellipse class="st0" cx="30.6" cy="31.2" rx="30.6" ry="30.1"/>
    <ellipse class="st2" cx="30.6" cy="30.1" rx="30.6" ry="30.1"/>
    <path class="st3" d="M32.3,9.7c-1.2,0-2.2.2-2.5.6-.6.7-2,5.7-3.8,13.5-1.3,5.6-.4,8.8.5,10.5,1.1,2.2,2,3.5.2,8-1.3,3.2-2.6,3.2-3.8,3.4-2.9-.7-5.1-.7-5.4,0-.4,1.1,2.9,3.9,7.4,5.5,4.5,1.6,8.4,2,8.8,1,.3-.8-1.4-2.2-4.1-3.5-1.2-1.2-2.2-2.1-1.3-5.8,1.8-7.4,4.6-4.8,7.9-9.4,2.8-3.9,3.5-6.9,5.2-11.4,1.7-4.8,2.5-7.1,2.2-7.5-1.5-3-7.7-4.8-11.3-4.8h0ZM28.1,19.5c1.8,1.9,3.4,3,4.8,3.1,3.6.1,6.2-3.9,7.8-1.9-.8,2.5-5.4,17.8-11.6,15-5.1-2.2-2.2-13.6-1.1-16.3Z"/>
    <path class="st4" d="M32.3,8.6c-1.2,0-2.2.2-2.5.6-.6.7-2,5.7-3.8,13.5-1.3,5.6-.4,8.8.5,10.5,1.1,2.2,2,3.5.2,8-1.3,3.2-2.6,3.2-3.8,3.4-2.9-.7-5.1-.7-5.4,0-.4,1.1,2.9,3.9,7.4,5.5,4.5,1.6,8.4,2,8.8,1,.3-.8-1.4-2.2-4.1-3.5-1.2-1.2-2.2-2.1-1.3-5.8,1.8-7.4,4.6-4.8,7.9-9.4,2.8-3.9,3.5-6.9,5.2-11.4,1.7-4.8,2.5-7.1,2.2-7.5-1.5-3-7.7-4.8-11.3-4.8h0ZM28.1,18.4c1.8,1.9,3.4,3,4.8,3.1,3.6.1,6.2-3.9,7.8-1.9-.8,2.5-5.4,17.8-11.6,15-5.1-2.2-2.2-13.6-1.1-16.3Z"/>
    <path class="st1" d="M30.6,0C13.7,0,0,13.5,0,30.1c0,.2,0,.4,0,.5C.3,14.2,13.9,1.1,30.6,1.1c16.7,0,30.3,13.2,30.6,29.6,0-.2,0-.4,0-.5C61.2,13.5,47.5,0,30.6,0Z"/>
    <ellipse class="st3" cx="47" cy="47.3" rx="16.4" ry="16.1"/>
    <ellipse class="st6" cx="47" cy="46.3" rx="16.4" ry="16.1"/>
    <path class="st4" d="M47,52.6l-6.1,3.3,1.2-7-4.9-5,6.8-1,3-6.4,3,6.4,6.8,1-4.9,5,1.2,7-6.1-3.3Z"/>
  </g>
</svg>