<?xml version="1.0" encoding="UTF-8" standalone="no"?>
<svg
   id="_图层_1"
   version="1.1"
   viewBox="0 0 64 64" width="22" height="22"
   sodipodi:docname="world-of-tanks.svg"
   xml:space="preserve"
   inkscape:version="1.4 (e7c3feb100, 2024-10-09)"
   xmlns:inkscape="http://www.inkscape.org/namespaces/inkscape"
   xmlns:sodipodi="http://sodipodi.sourceforge.net/DTD/sodipodi-0.dtd"
   xmlns="http://www.w3.org/2000/svg"
   xmlns:svg="http://www.w3.org/2000/svg"><sodipodi:namedview
     id="namedview26"
     pagecolor="#505050"
     bordercolor="#eeeeee"
     borderopacity="1"
     inkscape:showpageshadow="0"
     inkscape:pageopacity="0"
     inkscape:pagecheckerboard="0"
     inkscape:deskcolor="#505050"
     inkscape:zoom="10.6875"
     inkscape:cx="32"
     inkscape:cy="32"
     inkscape:window-width="1920"
     inkscape:window-height="939"
     inkscape:window-x="0"
     inkscape:window-y="34"
     inkscape:window-maximized="1"
     inkscape:current-layer="_图层_1" /><!-- Generator: Adobe Illustrator 29.0.1, SVG Export Plug-In . SVG Version: 2.1.0 Build 192)  --><defs
     id="defs6"><style
       id="style1">
      .st0 {
        fill-opacity: .5;
      }

      .st0, .st1, .st2, .st3, .st4, .st5, .st6, .st7 {
        fill: #fff;
      }

      .st8 {
        fill: #133c9a;
      }

      .st2, .st9 {
        display: none;
      }

      .st3 {
        fill-opacity: .2;
      }

      .st4 {
        fill-opacity: .9;
      }

      .st10 {
        fill: #3370ff;
      }

      .st11 {
        fill: url(#_未命名的渐变_3);
      }

      .st12 {
        fill: url(#_未命名的渐变);
      }

      .st5 {
        fill-opacity: .3;
      }

      .st6 {
        fill-opacity: 0;
      }

      .st7 {
        fill-opacity: .7;
      }

      .st13 {
        fill: #00d6b9;
      }

      .st14 {
        fill: url(#_未命名的渐变_2);
      }
    </style><radialGradient
       id="_未命名的渐变"
       data-name="未命名的渐变"
       cx="123.9"
       cy="-40.2"
       fx="123.9"
       fy="-40.2"
       r="59.4"
       gradientTransform="translate(-26.8 25.5) scale(.6 -.7)"
       gradientUnits="userSpaceOnUse"><stop
         offset="0"
         stop-color="#db202e"
         id="stop1" /><stop
         offset="1"
         stop-color="#e01b24"
         id="stop2" /></radialGradient><radialGradient
       id="_未命名的渐变_2"
       data-name="未命名的渐变 2"
       cx="67.6"
       cy="26.8"
       fx="67.6"
       fy="26.8"
       r="105.2"
       gradientTransform="translate(-26.6 25.3) scale(.6 -.7)"
       gradientUnits="userSpaceOnUse"><stop
         offset="0"
         stop-color="#ffb648"
         id="stop3" /><stop
         offset="1"
         stop-color="#ff7800"
         stop-opacity="0"
         id="stop4" /></radialGradient><radialGradient
       id="_未命名的渐变_3"
       data-name="未命名的渐变 3"
       cx="61.7"
       cy="18.6"
       fx="61.7"
       fy="18.6"
       r="68"
       gradientTransform="translate(-26.8 25.8) scale(.6 -.7)"
       gradientUnits="userSpaceOnUse"><stop
         offset="0"
         stop-color="#c64600"
         id="stop5" /><stop
         offset="1"
         stop-color="#a51d2d"
         id="stop6" /></radialGradient></defs><path
     class="st1"
     d="M 47.5,64.1 H 13.8 C 6.2,64.1 0,57.8 0,50.3 V 13.7 C 0,6.2 6.2,0 13.7,0 H 50.3 C 57.8,0 64,6.2 64,13.7 V 50.3 C 64,57.8 57.8,64 50.3,64 h -2.9 0.1 z"
     id="path6"
     style="fill:#f2f2f2;fill-opacity:1"
     sodipodi:nodetypes="cssssssssccc" /><g
     id="g30"
     transform="matrix(2.9337232,0,0,2.8362574,8.7173489,10.339181)"><path
       style="fill:#4f4f4f"
       d="M 6,0 C 5.5756816,8.168e-5 5.1687688,0.16869524 4.86875,0.468759 l -2.4,2.4000458 C 2.2062764,3.1319224 2.04789,3.473238 2.0101864,3.8317536 L 2,4.800092 v 5.296977 c 8.18e-5,0.424327 0.1686921,0.831247 0.46875,1.131272 l 1.5515624,1.551592 1.6484376,1.551593 1.2,1.200022 c 0.6248476,0.624602 1.6376524,0.624602 2.2625,0 l 1.2,-1.200022 1.648438,-1.551593 1.551562,-1.551592 C 13.831308,10.928316 13.999918,10.521396 14,10.097069 V 4.800092 L 13.9978,3.9551424 C 13.98677,3.5522464 13.823614,3.1620084 13.5312,2.8688048 l -2.4,-2.4000458 C 10.831231,0.16869524 10.424318,8.168e-5 10,0 Z"
       id="path1" /><path
       style="fill:#c2c4c1"
       d="m 7,3.6 h 2 v 9.3 L 8,14.1 7,12.9 Z"
       id="path2-2" /><path
       style="fill:none;stroke:#c2c4c1;stroke-width:2"
       d="m 5,5 v 4.6 l 1.2,1.1"
       id="path3" /><path
       style="fill:none;stroke:#c2c4c1;stroke-width:2"
       d="M 11.000107,5 V 9.6 L 9.8001067,10.7"
       id="path4" /><path
       style="fill:#c2c4c1"
       d="M 10.045455,2 12,4 H 4 L 5.9545455,2 Z"
       id="path5" /></g></svg>
