<?xml version="1.0" encoding="UTF-8"?>
<svg id="_图层_1" xmlns="http://www.w3.org/2000/svg" version="1.1" viewBox="0 0 64 64" width="22" height="22">
  <!-- Generator: Adobe Illustrator 29.0.1, SVG Export Plug-In . SVG Version: 2.1.0 Build 192)  -->
  <defs>
    <style>
      .st0, .st1, .st2 {
        isolation: isolate;
        opacity: .2;
      }

      .st0, .st2, .st3 {
        display: none;
      }

      .st4, .st2 {
        fill: #fff;
      }

      .st5, .st3 {
        fill: #ff7515;
      }
    </style>
  </defs>
  <path class="st5" d="M50.3,64H13.9C6.3,64,.2,57.8.2,50.3V13.8C.2,6.2,6.3,0,13.9,0h36.5c7.5,0,13.7,6.2,13.7,13.7v36.5c0,7.5-6.1,13.7-13.7,13.7h0Z"/>
  <g>
    <path class="st0" d="M3.2,1.2h57.5c1.8,0,3.2,1.4,3.2,3.2v57.4c0,1.8-1.4,3.2-3.2,3.2H3.2c-1.8,0-3.2-1.4-3.2-3.2V4.4C0,2.6,1.4,1.2,3.2,1.2Z"/>
    <path class="st3" d="M3.2,0h57.5c1.8,0,3.2,1.4,3.2,3.2v57.4c0,1.8-1.4,3.2-3.2,3.2H3.2c-1.8,0-3.2-1.4-3.2-3.2V3.3C0,1.5,1.4,0,3.2,0Z"/>
    <path class="st1" d="M9.3,18.7c-.3,0-.5.2-.5.5v27.7c0,.3.2.5.5.5h5.8c.3,0,.5-.2.5-.5v-21c0-.3.2-.5.5-.5h14.3c3.8,0,4.9,2.8,4.9,4.6v16.8c0,.3.2.5.5.5h5.6c.3,0,.5-.2.5-.5v-19.6c0-1.6-.2-3.9-2.4-6-2.3-2.1-4.3-2.5-6.6-2.5H9.3ZM48.9,18.7c-.2,0-.4.2-.4.5v27.7c0,.3.2.5.4.5h5.7c.2,0,.4-.2.4-.5v-27.7c0-.3-.2-.5-.4-.5h-5.7ZM22.5,31.9c-.2,0-.4.2-.4.4v14.6c0,.2.2.4.4.4h5.8c.2,0,.4-.2.4-.4v-14.6c0-.2-.2-.4-.4-.4h-5.8Z"/>
    <path class="st4" d="M9.3,17.7c-.3,0-.5.2-.5.5v27.7c0,.3.2.5.5.5h5.8c.3,0,.5-.2.5-.5v-21c0-.3.2-.5.5-.5h14.3c3.8,0,4.9,2.8,4.9,4.6v16.8c0,.3.2.5.5.5h5.6c.3,0,.5-.2.5-.5v-19.6c0-1.6-.2-3.9-2.4-6-2.3-2.1-4.3-2.5-6.6-2.5H9.3ZM48.9,17.7c-.2,0-.4.2-.4.5v27.7c0,.3.2.5.4.5h5.7c.2,0,.4-.2.4-.5v-27.7c0-.3-.2-.5-.4-.5h-5.7ZM22.5,30.8c-.2,0-.4.2-.4.4v14.6c0,.2.2.4.4.4h5.8c.2,0,.4-.2.4-.4v-14.6c0-.2-.2-.4-.4-.4h-5.8Z"/>
    <path class="st2" d="M3.2,0C1.4,0,0,1.5,0,3.2v1.1C0,2.6,1.4,1.2,3.2,1.2h57.5c1.8,0,3.2,1.4,3.2,3.2v-1.1c0-1.8-1.4-3.2-3.2-3.2H3.2Z"/>
  </g>
</svg>