<?xml version="1.0" encoding="UTF-8"?>
<svg id="_图层_1" xmlns="http://www.w3.org/2000/svg" version="1.1" viewBox="0 0 64 64" width="22" height="22">
  <!-- Generator: Adobe Illustrator 29.0.1, SVG Export Plug-In . SVG Version: 2.1.0 Build 192)  -->
  <defs>
    <style>
      .st0 {
        fill: #fff;
      }

      .st1 {
        fill: #fe163e;
      }
    </style>
  </defs>
  <path class="st0" d="M50.3,64H13.9C6.3,64,.2,57.8.2,50.3V13.8C.2,6.2,6.3,0,13.9,0h36.5c7.5,0,13.7,6.2,13.7,13.7v36.5c0,7.5-6.1,13.7-13.7,13.7h0Z"/>
  <path class="st1" d="M24.7,8.4c-9.5,2.6-16.5,10.9-17.4,20.9-.5,4.9.9,6.8,6.1,8.6,4.9,1.6,8.3,4.8,9.8,8.9,1.9,5.4,2.1,5.7,4.3,6.8,1.9.9,2.7.9,6.2.4,9.9-1.7,17-8,19.5-17.6,3.4-12.5-4.9-25.5-17.9-28.3-4.1-.9-6.3-.8-10.5.3ZM33,23.5c7.4,3.5,9.4,7.4,5.6,11.2-4.8,4.6-11.3,6.4-13.7,3.8-1-1.1-1.2-2.3-1.2-7.6s.2-6.5,1.2-7.6c1.5-1.7,4.1-1.6,8,.2Z"/>
</svg>