<?xml version="1.0" encoding="UTF-8"?>
<svg id="_图层_1" xmlns="http://www.w3.org/2000/svg" version="1.1" viewBox="0 0 64 64" width="22" height="22">
  <!-- Generator: Adobe Illustrator 29.0.1, SVG Export Plug-In . SVG Version: 2.1.0 Build 192)  -->
  <defs>
    <style>
      .st0 {
        stroke-width: 4px;
      }

      .st0, .st1, .st2, .st3, .st4, .st5, .st6, .st7, .st8 {
        fill: none;
        stroke-linecap: round;
      }

      .st0, .st2, .st4, .st5, .st7 {
        stroke-linejoin: round;
      }

      .st0, .st2, .st6, .st7, .st8 {
        stroke: #000;
      }

      .st9 {
        fill: #a766fa;
      }

      .st10, .st11 {
        fill: #4f4f4f;
      }

      .st12 {
        fill: #f71fda;
      }

      .st1, .st3 {
        stroke: #fff;
      }

      .st1, .st4, .st7, .st8 {
        stroke-width: 4px;
      }

      .st13, .st14, .st15, .st16, .st17, .st18, .st19, .st20, .st21, .st11 {
        display: none;
      }

      .st13, .st14, .st22, .st6, .st23, .st8, .st21, .st24 {
        isolation: isolate;
      }

      .st13, .st25, .st6, .st23, .st8, .st21 {
        opacity: .2;
      }

      .st14, .st26, .st21, .st24 {
        fill: #fff;
      }

      .st14, .st22, .st24 {
        opacity: .1;
      }

      .st15 {
        fill: #992b2b;
      }

      .st27 {
        fill: #3f3f3f;
      }

      .st16 {
        fill: #d92929;
      }

      .st28 {
        fill: #2086e7;
      }

      .st29 {
        fill: #1bd9a5;
      }

      .st30 {
        fill: #302da1;
      }

      .st2, .st5 {
        stroke-width: 4px;
      }

      .st17 {
        fill: #7139d2;
      }

      .st31 {
        fill: #ffa407;
      }

      .st3, .st6 {
        stroke-width: 4px;
      }

      .st32 {
        fill: #cf4f8c;
      }

      .st4, .st5 {
        stroke: #ff895e;
      }

      .st18 {
        fill: #c2352a;
      }

      .st33 {
        fill: #6655e4;
      }

      .st34 {
        fill: #c929de;
      }

      .st35 {
        fill: #1cadf4;
      }

      .st19 {
        fill: #707090;
      }
    </style>
  </defs>
  <path class="st10" d="M50.4,64H13.8c-7.6,0-13.8-6.2-13.8-13.7V13.7C0,6.2,6.2,0,13.7,0h36.6c7.5,0,13.7,6.2,13.7,13.7v36.6c0,7.5-6.2,13.7-13.7,13.7h.1Z"/>
  <g class="st20">
    <ellipse class="st13" cx="30.6" cy="31.2" rx="30.6" ry="30.1"/>
    <ellipse class="st15" cx="30.6" cy="30.1" rx="30.6" ry="30.1"/>
    <path class="st23" d="M32.3,9.7c-1.2,0-2.2.2-2.5.6-.6.7-2,5.7-3.8,13.5-1.3,5.6-.4,8.8.5,10.5,1.1,2.2,2,3.5.2,8-1.3,3.2-2.6,3.2-3.8,3.4-2.9-.7-5.1-.7-5.4,0-.4,1.1,2.9,3.9,7.4,5.5,4.5,1.6,8.4,2,8.8,1,.3-.8-1.4-2.2-4.1-3.5-1.2-1.2-2.2-2.1-1.3-5.8,1.8-7.4,4.6-4.8,7.9-9.4,2.8-3.9,3.5-6.9,5.2-11.4,1.7-4.8,2.5-7.1,2.2-7.5-1.5-3-7.7-4.8-11.3-4.8h0ZM28.1,19.5c1.8,1.9,3.4,3,4.8,3.1,3.6.1,6.2-3.9,7.8-1.9-.8,2.5-5.4,17.8-11.6,15-5.1-2.2-2.2-13.6-1.1-16.3Z"/>
    <path class="st26" d="M32.3,8.6c-1.2,0-2.2.2-2.5.6-.6.7-2,5.7-3.8,13.5-1.3,5.6-.4,8.8.5,10.5,1.1,2.2,2,3.5.2,8-1.3,3.2-2.6,3.2-3.8,3.4-2.9-.7-5.1-.7-5.4,0-.4,1.1,2.9,3.9,7.4,5.5,4.5,1.6,8.4,2,8.8,1,.3-.8-1.4-2.2-4.1-3.5-1.2-1.2-2.2-2.1-1.3-5.8,1.8-7.4,4.6-4.8,7.9-9.4,2.8-3.9,3.5-6.9,5.2-11.4,1.7-4.8,2.5-7.1,2.2-7.5-1.5-3-7.7-4.8-11.3-4.8h0ZM28.1,18.4c1.8,1.9,3.4,3,4.8,3.1,3.6.1,6.2-3.9,7.8-1.9-.8,2.5-5.4,17.8-11.6,15-5.1-2.2-2.2-13.6-1.1-16.3Z"/>
    <path class="st14" d="M30.6,0C13.7,0,0,13.5,0,30.1c0,.2,0,.4,0,.5C.3,14.2,13.9,1.1,30.6,1.1c16.7,0,30.3,13.2,30.6,29.6,0-.2,0-.4,0-.5C61.2,13.5,47.5,0,30.6,0Z"/>
    <ellipse class="st23" cx="47" cy="47.3" rx="16.4" ry="16.1"/>
    <ellipse class="st31" cx="47" cy="46.3" rx="16.4" ry="16.1"/>
    <path class="st26" d="M47,52.6l-6.1,3.3,1.2-7-4.9-5,6.8-1,3-6.4,3,6.4,6.8,1-4.9,5,1.2,7-6.1-3.3Z"/>
  </g>
  <g class="st20">
    <ellipse class="st13" cx="30.5" cy="31.1" rx="30.5" ry="30"/>
    <ellipse class="st15" cx="30.5" cy="30" rx="30.5" ry="30"/>
    <path class="st23" d="M32.2,9.7c-1.2,0-2.2.2-2.5.6-.6.7-2,5.7-3.8,13.4-1.3,5.5-.4,8.8.5,10.5,1.1,2.2,2,3.5.2,8-1.3,3.2-2.6,3.2-3.8,3.3-2.9-.7-5.1-.7-5.4,0-.4,1.1,2.9,3.8,7.4,5.4,4.5,1.6,8.4,2,8.8,1,.3-.8-1.4-2.2-4.1-3.5-1.2-1.2-2.2-2.1-1.3-5.8,1.8-7.3,4.6-4.8,7.9-9.4,2.8-3.9,3.5-6.8,5.2-11.4,1.7-4.8,2.5-7,2.2-7.5-1.5-3-7.7-4.8-11.3-4.8h0ZM28.1,19.4c1.8,1.9,3.4,3,4.8,3.1,3.6.1,6.2-3.9,7.8-1.9-.8,2.5-5.4,17.7-11.6,15-5.1-2.2-2.2-13.5-1.1-16.2Z"/>
    <path class="st26" d="M32.2,8.6c-1.2,0-2.2.2-2.5.6-.6.7-2,5.7-3.8,13.4-1.3,5.5-.4,8.8.5,10.5,1.1,2.2,2,3.5.2,8-1.3,3.2-2.6,3.2-3.8,3.3-2.9-.7-5.1-.7-5.4,0-.4,1.1,2.9,3.8,7.4,5.4,4.5,1.6,8.4,2,8.8,1,.3-.8-1.4-2.2-4.1-3.5-1.2-1.2-2.2-2.1-1.3-5.8,1.8-7.3,4.6-4.8,7.9-9.4,2.8-3.9,3.5-6.8,5.2-11.4,1.7-4.8,2.5-7,2.2-7.5-1.5-3-7.7-4.8-11.3-4.8h0ZM28.1,18.4c1.8,1.9,3.4,3,4.8,3.1,3.6.1,6.2-3.9,7.8-1.9-.8,2.5-5.4,17.7-11.6,15-5.1-2.2-2.2-13.5-1.1-16.2Z"/>
    <path class="st14" d="M30.5,0C13.7,0,0,13.4,0,30c0,.2,0,.4,0,.5C.3,14.2,13.9,1.1,30.5,1.1c16.6,0,30.2,13.1,30.5,29.5,0-.2,0-.3,0-.5C61,13.4,47.4,0,30.5,0Z"/>
    <ellipse class="st23" cx="46.9" cy="47.2" rx="16.3" ry="16.1"/>
    <ellipse class="st12" cx="46.9" cy="46.1" rx="16.3" ry="16.1"/>
    <path class="st26" d="M54,39.1c-.7-.6-1.7-.6-2.4,0l-4.8,4.7-4.8-4.7c-.7-.6-1.7-.6-2.4,0-.7.6-.7,1.7,0,2.3l4.8,4.7-4.8,4.7c-.7.6-.7,1.7,0,2.3.7.6,1.7.6,2.4,0l4.8-4.7,4.8,4.7c.7.6,1.7.6,2.4,0,.7-.6.7-1.7,0-2.3l-4.8-4.7,4.8-4.7c.7-.6.7-1.7,0-2.3h0Z"/>
  </g>
  <g class="st20">
    <path class="st13" d="M0,59.7v2.3c0,1.9,1.5,3.4,3.4,3.4h57.1c1.9,0,3.4-1.5,3.4-3.4v-2.3c0,1.9-1.5,3.4-3.4,3.4H3.4c-1.9,0-3.4-1.5-3.4-3.4Z"/>
    <path class="st18" d="M3.4,0h57.1c1.9,0,3.4,1.5,3.4,3.4v57.4c0,1.9-1.5,3.4-3.4,3.4H3.4c-1.9,0-3.4-1.5-3.4-3.4V3.4C0,1.5,1.5,0,3.4,0Z"/>
    <path class="st14" d="M3.4,0C1.5,0,0,1.5,0,3.4v1.1C0,2.7,1.5,1.1,3.4,1.1h57.1c1.9,0,3.4,1.5,3.4,3.4v-1.1c0-1.9-1.5-3.4-3.4-3.4H3.4Z"/>
    <path class="st23" d="M22.1,19.5c-.1,0-.2,0-.4,0-.5,0-10.5,1.8-11.1,2-.7.2-1.2.6-1.4.9-.2.6.5,2.6,1.4,4,1.6,2.3,3.9,3.8,8.7,5.6,2.6,1,3.2,1.2,3.5,1.6.5.5,0,.7-3.4,2.2-5.5,2.3-6.5,4.2-7.6,7-.3.8-.5,3.1-.2,3.6.3.7.5.7,5.7-.2,5.3-.9,4.2-1,4.6-1.4.5-1.2.7-2,1-3.1.3-1,1.1-2.1,2-2.7,3.3-2.2,9.5-1.1,12.9,2.2,1.3,1.3,2.1,1.9,2.7,3.9.4,1.1.7,1.6,1.3,1.7.5,0,.5.3,7.3-.9,3.7-.7,5.3-1.4,5.5-1.6.5-.3.5-1.2,0-2.6-.8-2.4-2.2-4.4-4.8-6.2-1.3-.9-2.9-1.8-5.7-3-2.6-1.2-2.9-1.5-2.9-1.9s0-.4,2.1-1c4.5-1.3,7-3.4,7-6.7s-.3-2.6-.7-3c-.6-.5-1.3-.5-3.8,0-8.1,1.4-8.6,1.7-9,2.2-.2.3-.2.4.2,1.8.2.8.4,1.6.4,1.9,0,.5-.4,1.3-.7,1.6-.8.7-2.6,1.3-4.5,1.3s-4-.9-5.7-2.6c-1.2-1.2-1.9-2.3-2.7-4.5-.7-1.9-.8-2.2-1.6-2.2h0Z"/>
    <path class="st26" d="M22.1,18.4c-.1,0-.2,0-.4,0-.5,0-10.5,1.8-11.1,2-.7.2-1.2.6-1.4.9-.2.6.5,2.6,1.4,4,1.6,2.3,3.9,3.8,8.7,5.6,2.6,1,3.2,1.2,3.5,1.6.5.5,0,.7-3.4,2.2-5.5,2.3-6.5,4.2-7.6,7-.3.8-.5,3.1-.2,3.6.3.7.5.7,5.7-.2,5.3-.9,4.2-1,4.6-1.4.5-1.2.7-2,1-3.1.3-1,1.1-2.1,2-2.7,3.3-2.2,9.5-1.1,12.9,2.2,1.3,1.3,2.1,1.9,2.7,3.9.4,1.1.7,1.6,1.3,1.7.5,0,.5.3,7.3-.9,3.7-.7,5.3-1.4,5.5-1.6.5-.3.5-1.2,0-2.6-.8-2.4-2.2-4.4-4.8-6.2-1.3-.9-2.9-1.8-5.7-3-2.6-1.2-2.9-1.5-2.9-1.9s0-.4,2.1-1c4.5-1.3,7-3.4,7-6.7s-.3-2.6-.7-3c-.6-.5-1.3-.5-3.8,0-8.1,1.4-8.6,1.7-9,2.2-.2.3-.2.4.2,1.8.2.8.4,1.6.4,1.9,0,.5-.4,1.3-.7,1.6-.8.7-2.6,1.3-4.5,1.3s-4-.9-5.7-2.6c-1.2-1.2-1.9-2.3-2.7-4.5-.7-1.9-.8-2.2-1.6-2.2h0Z"/>
  </g>
  <g class="st20">
    <path class="st13" d="M3.2,1.1h57.6c1.8,0,3.2,1.4,3.2,3.2v57.6c0,1.8-1.4,3.2-3.2,3.2H3.2c-1.8,0-3.2-1.4-3.2-3.2V4.3C0,2.6,1.4,1.1,3.2,1.1Z"/>
    <path class="st17" d="M3.2,0h57.6c1.8,0,3.2,1.4,3.2,3.2v57.6c0,1.8-1.4,3.2-3.2,3.2H3.2c-1.8,0-3.2-1.4-3.2-3.2V3.2C0,1.4,1.4,0,3.2,0Z"/>
    <path class="st23" d="M14.2,13.7h35.6c.9,0,1.6.7,1.6,1.6v23c0,.9-.7,1.6-1.6,1.6H14.2c-.9,0-1.6-.7-1.6-1.6V15.4c0-.9.7-1.6,1.6-1.6Z"/>
    <path class="st26" d="M14.2,12.6h35.6c.9,0,1.6.7,1.6,1.6v23c0,.9-.7,1.6-1.6,1.6H14.2c-.9,0-1.6-.7-1.6-1.6V14.2c0-.9.7-1.6,1.6-1.6Z"/>
    <path class="st9" d="M16,16h32v4.7l-16,7.9-16-7.9v-4.7Z"/>
    <path class="st23" d="M15.3,45.1s0,0,0,0c0,0,0,0,0,0h0c-.4.8-2,3.3-2.9,4.9-1-1.6-2.2-3.5-2.9-4.9h0s0,0,0,0c-.6.1-.9.1-1.5,0h0s0,0,0,0c1.2,1.8,3.1,5.3,3.8,6.4v4.7c0,0,0,0,0,0h0s.4,0,.7,0,.7,0,.7,0h0s0,0,0,0v-4.7c0,0,0,0,0,0,1.2-2.1,3.2-5.6,3.8-6.4h0s0,0,0,0c0,0,0,0,0,0,0,0,0,0,0,0-.5.1-1,.1-1.5,0h0ZM55.2,45.2c-.4,0-.7.2-.7.7-.2,2.6-.4,5.3-.8,7.8h0s0,0,0,0c0,0,0,0,0,0h0c.2,0,.4,0,.5,0h0c.4-2.6,1.4-6.4,1.6-7.5,0-.2,0-.3,0-.5,0-.4-.2-.6-.6-.7h0s0,0-.2,0h0ZM47.3,45.7c-3.1,0-5.5,1.8-5.5,5s1.6,5.1,5.5,5.1,5.5-1.8,5.5-5-2-5.1-5.5-5.1h0ZM36.5,46.2c-3.1,0-4.7,2-4.7,4.5s1.8,4.5,4.7,4.5,4.8-1.9,4.8-4.5-1.9-4.6-4.7-4.6h0ZM47.3,46.2c2.3,0,4,1.4,4,4.5s-2.1,4.5-4,4.5-4-1.2-4-4.6,2.1-4.5,4-4.5ZM18.4,46.3c-1.2,3-2.5,6.3-3.8,8.8h0s0,0,0,0h0s0,0,0,0h0s0,0,0,0c.6-.1,1.1,0,1.4,0,0,0,0,0,0,0h0c.3-.8.7-1.7,1-2.6h0c1.2,0,2.4,0,3.6,0,.3.9.7,1.7,1,2.6,0,0,0,0,0,0h0c.5-.1,1.1-.1,1.5,0h0s0,0,0,0c-.9-1.6-2.6-6-3.8-8.8h0s0,0,0,0c-.4.1-.7.1-1,0h0ZM23.8,46.3h0c.1,2.9.1,5.9,0,8.8.5-.1,1-.1,1.5,0h0s0,0,0,0c0-1.4-.1-2.7-.1-4.1,1.6,0,3.3,0,4.9,0,0,1.4,0,2.7-.1,4.1h0s0,0,0,0c.5-.1,1-.1,1.5,0,0,0,0,0,0,0h0c-.1-2.9-.1-5.9,0-8.8h0s0,0,0,0h0c-.5.1-1,.1-1.5,0h0s0,0,0,0c0,1.4.1,2.7.1,4.1-1.6,0-3.3,0-4.9,0,0-1.4,0-2.7.1-4.1h0s0,0,0,0c-.5.1-1,.1-1.5,0h0ZM36.5,46.7h0s0,0,0,0c1.9,0,3.3,1.3,3.3,4s-1.4,4-3.3,4-3.3-1.5-3.3-4,1.5-4,3.2-4h0ZM18.9,47.8c.5,1.4,1,2.7,1.6,4.1h0c-1,0-2.1,0-3.1,0h0c.6-1.6,1.2-3.2,1.6-4.1h0ZM53.7,54.9c-.5,0-.7.4-.7.7s.4.7.8.7.7-.2.7-.7-.3-.7-.8-.7Z"/>
    <path class="st26" d="M15.3,44s0,0,0,0c0,0,0,0,0,0h0c-.4.8-2,3.3-2.9,4.9-1-1.6-2.2-3.5-2.9-4.9h0s0,0,0,0c-.6.1-.9.1-1.5,0h0s0,0,0,0c1.2,1.8,3.1,5.3,3.8,6.4v4.7c0,0,0,0,0,0h0s.4,0,.7,0,.7,0,.7,0h0s0,0,0,0v-4.7c0,0,0,0,0,0,1.2-2.1,3.2-5.6,3.8-6.4h0s0,0,0,0c0,0,0,0,0,0,0,0,0,0,0,0-.5.1-1,.1-1.5,0h0ZM55.2,44.1c-.4,0-.7.2-.7.7-.2,2.6-.4,5.3-.8,7.8h0s0,0,0,0c0,0,0,0,0,0h0c.2,0,.4,0,.5,0h0c.4-2.6,1.4-6.4,1.6-7.5,0-.2,0-.3,0-.5,0-.4-.2-.6-.6-.7h0s0,0-.2,0h0ZM47.3,44.5c-3.1,0-5.5,1.8-5.5,5s1.6,5.1,5.5,5.1,5.5-1.8,5.5-5-2-5.1-5.5-5.1h0ZM36.5,45c-3.1,0-4.7,2-4.7,4.5s1.8,4.5,4.7,4.5,4.8-1.9,4.8-4.5-1.9-4.6-4.7-4.6h0ZM47.3,45.1c2.3,0,4,1.4,4,4.5s-2.1,4.5-4,4.5-4-1.2-4-4.6,2.1-4.5,4-4.5ZM18.4,45.2c-1.2,3-2.5,6.3-3.8,8.8h0s0,0,0,0h0s0,0,0,0h0s0,0,0,0c.6-.1,1.1,0,1.4,0,0,0,0,0,0,0h0c.3-.8.7-1.7,1-2.6h0c1.2,0,2.4,0,3.6,0,.3.9.7,1.7,1,2.6,0,0,0,0,0,0h0c.5-.1,1.1-.1,1.5,0h0s0,0,0,0c-.9-1.6-2.6-6-3.8-8.8h0s0,0,0,0c-.4.1-.7.1-1,0h0ZM23.8,45.2h0c.1,2.9.1,5.9,0,8.8.5-.1,1-.1,1.5,0h0s0,0,0,0c0-1.4-.1-2.7-.1-4.1,1.6,0,3.3,0,4.9,0,0,1.4,0,2.7-.1,4.1h0s0,0,0,0c.5-.1,1-.1,1.5,0,0,0,0,0,0,0h0c-.1-2.9-.1-5.9,0-8.8h0s0,0,0,0h0c-.5.1-1,.1-1.5,0h0s0,0,0,0c0,1.4.1,2.7.1,4.1-1.6,0-3.3,0-4.9,0,0-1.4,0-2.7.1-4.1h0s0,0,0,0c-.5.1-1,.1-1.5,0h0ZM36.5,45.6h0s0,0,0,0c1.9,0,3.3,1.3,3.3,4s-1.4,4-3.3,4-3.3-1.5-3.3-4,1.5-4,3.2-4h0ZM18.9,46.7c.5,1.4,1,2.7,1.6,4.1h0c-1,0-2.1,0-3.1,0h0c.6-1.6,1.2-3.2,1.6-4.1h0ZM53.7,53.7c-.5,0-.7.4-.7.7s.4.7.8.7.7-.2.7-.7-.3-.7-.8-.7Z"/>
    <path class="st14" d="M3.2,0C1.4,0,0,1.4,0,3.2v1.1C0,2.6,1.4,1.1,3.2,1.1h57.6c1.8,0,3.2,1.4,3.2,3.2v-1.1c0-1.8-1.4-3.2-3.2-3.2H3.2Z"/>
  </g>
  <g class="st20">
    <path class="st13" d="M3.2,65.1c-1.8,0-3.2-1.4-3.2-3.2v-2.3c0,1.8,1.4,3.2,3.2,3.2h57.6c1.8,0,3.2-1.4,3.2-3.2v2.3c0,1.8-1.4,3.2-3.2,3.2H3.2Z"/>
    <path class="st32" d="M32,0H14.4C6.4,0,0,6.4,0,14.4v17.6h32V0Z"/>
    <path class="st28" d="M32,0h17.6c8,0,14.4,6.5,14.4,14.4v17.6h-32V0Z"/>
    <path class="st28" d="M32,63.9H14.6c-8,0-14.6-6.5-14.6-14.6v-17.4h32v32Z"/>
    <path class="st33" d="M32,63.9h17.5c8,0,14.5-6.5,14.5-14.5v-17.5h-32v32Z"/>
    <path class="st21" d="M3.2,0C1.4,0,0,1.4,0,3.2v1.1C0,2.6,1.4,1.1,3.2,1.1h57.6c1.8,0,3.2,1.4,3.2,3.2v-1.1c0-1.8-1.4-3.2-3.2-3.2H3.2Z"/>
    <rect class="st27" x="9.1" y="9.1" width="45.7" height="45.7"/>
    <path class="st8" d="M16,49.1h18.3"/>
    <path class="st1" d="M16,48h18.3"/>
    <path class="st6" d="M22.9,35.4v-9.1M29.7,17.1l-6.9,9.1M16,17.1l6.9,9.1"/>
    <path class="st3" d="M22.9,34.3v-9.1M29.7,16l-6.9,9.1M16,16l6.9,9.1"/>
    <path class="st6" d="M38.8,17.1h9.1M43.4,35.4v-18.3"/>
    <path class="st3" d="M38.8,16h9.1M43.4,34.3V16"/>
  </g>
  <g class="st20">
    <path class="st13" d="M18.5,1.1h24.6c10.2,0,18.5,8.3,18.5,18.6v24.8c0,10.3-8.3,18.6-18.5,18.6h-24.6C8.3,63.2,0,54.9,0,44.6v-24.8C0,9.4,8.3,1.1,18.5,1.1Z"/>
    <path class="st19" d="M18.5,0h24.6c10.2,0,18.5,8.3,18.5,18.6v24.8c0,10.3-8.3,18.6-18.5,18.6h-24.6C8.3,62.1,0,53.8,0,43.5v-24.8C0,8.3,8.3,0,18.5,0Z"/>
    <path class="st22" d="M26.9,10l-.5,4.4-3.3,2.9,4.1,1.8,1.8,4.1,3-3.3,4.4-.4-2.2-3.9,1-4.4-4.3.9-3.8-2.3ZM43.2,12.2l-1.4,1.7-2.2.3,1.2,1.9-.4,2.2,2.1-.6,1.9,1.1v-2.2c.1,0,1.7-1.6,1.7-1.6l-2-.8-1-2ZM19.6,21.1c-1.9,0-4,.2-5.4.4-10.1,2.1-4,9.8,1.5,10.3,6.6,1.6,22.4-3,28.8-4.1.8-.1,1.6-.2,2.1-.3,2.6-.1,5.1.6,5.6.7.1,0,1,.4.5-.6-.4-.8-4.5-3.4-7.2-4-2.1-.7-4.3-1.6-6.6-1.4-2.9.2-6.8,3.7-5.1,3.7,1.6,0,3.7-1.5,5.5-1.5,1.3,0,4.6.4,3.9,1.3-.6.8-10.3,1.7-17.7,1.4-4.5-.2-9.3-2.2-7.5-3.6,2.2-1.7,6-1.5,5.6-1.9-.4-.4-2-.6-3.9-.6ZM42.1,29.5c-6.3.6-12.7,3.4-22,3.8.4,6.2-.9,11.5-2.5,15.6-.5,2.5,3.1,4.1,7.8,5.1,7.9,1.6,18.1-1.8,18.6-4.5,0-1.7-3.8-10.9-1.9-20Z"/>
    <path class="st30" d="M25.4,52.8c-4.7-1-8.3-2.6-7.8-5.1,1.5-4,2.9-9.4,2.5-15.6,9.2-.4,15.7-3.2,22-3.8-1.9,9.1,1.8,18.3,1.9,20-.5,2.7-10.7,6.1-18.6,4.5Z"/>
    <path class="st30" d="M36.3,18.4l-4.4.4-3,3.3-1.8-4.1-4.1-1.8,3.3-2.9.5-4.4,3.8,2.3,4.3-.9-1,4.4,2.2,3.9Z"/>
    <path class="st30" d="M46.2,13.9l-1.6,1.6v2.2c-.1,0-2.1-1.1-2.1-1.1l-2.1.6.4-2.2-1.2-1.9,2.2-.3,1.4-1.7,1,2,2.1.8Z"/>
    <path class="st30" d="M19.6,20c-1.9,0-4,.2-5.4.4-10.1,2.1-4,9.8,1.5,10.3,6.6,1.6,22.4-3,28.8-4.1.8-.1,1.6-.2,2.1-.3,2.6-.1,5.1.6,5.6.7.1,0,1,.4.5-.6-.4-.8-4.5-3.4-7.2-4-2.1-.7-4.3-1.6-6.6-1.4-2.9.2-6.8,3.7-5.1,3.7,1.6,0,3.7-1.5,5.5-1.5,1.3,0,4.6.4,3.9,1.3-.6.8-10.3,1.7-17.7,1.4-4.5-.2-9.3-2.2-7.5-3.6,2.2-1.7,6-1.5,5.6-1.9-.4-.4-2-.6-3.9-.6Z"/>
    <path class="st14" d="M18.5,0C8.2,0,0,8.3,0,18.6v1.1C0,9.4,8.2,1.1,18.5,1.1h24.6c10.2,0,18.5,8.3,18.5,18.6v-1.1C61.6,8.3,53.4,0,43.1,0h-24.6Z"/>
    <path class="st13" d="M39.9,31h13.6c5.7,0,10.2,4.6,10.2,10.3v13.8c0,5.7-4.6,10.3-10.2,10.3h-13.6c-5.7,0-10.2-4.6-10.2-10.3v-13.8c0-5.7,4.6-10.3,10.2-10.3Z"/>
    <path class="st34" d="M39.9,29.9h13.6c5.7,0,10.2,4.6,10.2,10.3l.2,10c0,7.2-6.3,13.7-12.8,13.8l-11.5-.2c-5.4.4-10-4.2-10-9.9v-13.8c0-5.7,4.6-10.3,10.2-10.3Z"/>
    <path class="st26" d="M39.7,34.4c-.7,0-1.2.5-1.2,1.2v17.7c0,.6.5,1.1,1.2,1.1h3.2v3.3h-3.2c-.7,0-1.2.4-1.2,1.1v1.1c0,.6.5,1.2,1.2,1.2h14.1c.7,0,1.2-.5,1.2-1.2v-1.1c0-.6-.5-1.1-1.2-1.1h-3.2v-3.3h3.2c.7,0,1.2-.5,1.2-1.1v-17.7c0-.6-.5-1.2-1.2-1.2h-14.1ZM46.8,37.7c2.7,0,5,2.2,5,5s-2.2,5-5,5-5-2.2-5-5,2.2-5,5-5ZM46.8,39.9c-1.5,0-2.8,1.2-2.8,2.8s1.2,2.8,2.8,2.8,2.8-1.2,2.8-2.8-1.2-2.8-2.8-2.8ZM46.8,41c.9,0,1.7.7,1.7,1.7,0,.9-.7,1.7-1.7,1.7s-1.7-.7-1.7-1.7.7-1.7,1.7-1.7ZM51.2,48.8c.9,0,1.7.7,1.7,1.7s-.7,1.7-1.7,1.7-1.7-.7-1.7-1.7.7-1.7,1.7-1.7Z"/>
  </g>
  <g class="st20">
    <path class="st16" d="M3.4,0h57c1.9,0,3.4,1.5,3.4,3.4v57c0,1.9-1.5,3.4-3.4,3.4H3.4c-1.9,0-3.4-1.5-3.4-3.4V3.4C0,1.5,1.5,0,3.4,0Z"/>
    <path class="st14" d="M3.4,0C1.5,0,0,1.5,0,3.4v1.1C0,2.7,1.5,1.1,3.4,1.1h57c1.9,0,3.4,1.5,3.4,3.4v-1.1c0-1.9-1.5-3.4-3.4-3.4H3.4Z"/>
    <path class="st13" d="M0,60.4v1.1c0,1.9,1.5,3.4,3.4,3.4h57c1.9,0,3.4-1.5,3.4-3.4v-1.1c0,1.9-1.5,3.4-3.4,3.4H3.4c-1.9,0-3.4-1.5-3.4-3.4Z"/>
    <g class="st25">
      <path class="st0" d="M9.1,26.2h17.1l-16,20.5h18.3"/>
      <path class="st2" d="M52.5,46.7s-18.3.7-18.2-13.7c0-14.4,18.2-13.7,18.2-13.7"/>
    </g>
    <g>
      <path class="st5" d="M9.1,25.1h17.1l-16,20.5h18.3"/>
      <path class="st5" d="M52.5,45.6s-18.3.7-18.2-13.7c0-14.4,18.2-13.7,18.2-13.7"/>
    </g>
  </g>
  <g class="st20">
    <path class="st16" d="M3.4,0h57.1c1.9,0,3.4,1.5,3.4,3.4v57.1c0,1.9-1.5,3.4-3.4,3.4H3.4c-1.9,0-3.4-1.5-3.4-3.4V3.4C0,1.5,1.5,0,3.4,0Z"/>
    <path class="st14" d="M3.4,0C1.5,0,0,1.5,0,3.4v1.1C0,2.7,1.5,1.1,3.4,1.1h57.1c1.9,0,3.4,1.5,3.4,3.4v-1.1c0-1.9-1.5-3.4-3.4-3.4H3.4Z"/>
    <path class="st13" d="M0,60.5v1.1c0,1.9,1.5,3.4,3.4,3.4h57.1c1.9,0,3.4-1.5,3.4-3.4v-1.1c0,1.9-1.5,3.4-3.4,3.4H3.4c-1.9,0-3.4-1.5-3.4-3.4Z"/>
    <g class="st25">
      <path class="st7" d="M9.2,26.3h17.1l-16,20.5h18.3"/>
      <path class="st7" d="M34.3,46.8v-27.4l10.3,16,10.3-16v27.4"/>
    </g>
    <g>
      <path class="st4" d="M9.2,25.1h17.1l-16,20.5h18.3"/>
      <path class="st4" d="M34.3,45.6v-27.4l10.3,16,10.3-16v27.4"/>
    </g>
  </g>
  <g>
    <path class="st13" d="M9.4,1.4C4.4,1.3.3,5.6.2,10.9c0,3.1,1.4,6,3.7,7.8l9.9,7.7L1.8,45.4c-2.8,4.4-1.7,10.4,2.5,13.3,1.3.9,2.8,1.5,4.4,1.6l45.5,3.4c5,.4,9.4-3.6,9.7-8.9.2-3.4-1.2-6.6-3.9-8.6l-10.7-7.9,12.6-16.2c3.2-4.1,2.6-10.2-1.3-13.5-1.4-1.2-3-1.9-4.8-2.1L10.3,1.4c-.3,0-.6,0-.9,0Z"/>
    <path class="st11" d="M9.4.1C4.4.1.3,4.4.2,9.7c0,3.1,1.4,6,3.7,7.8l9.9,7.7L1.8,44.2c-2.8,4.4-1.7,10.4,2.5,13.3,1.3.9,2.8,1.5,4.4,1.6l45.5,3.4c5,.4,9.4-3.6,9.7-8.9.2-3.4-1.2-6.6-3.9-8.6l-10.7-7.9,12.6-16.2c3.2-4.1,2.6-10.2-1.3-13.5-1.4-1.2-3-1.9-4.8-2.1L10.3.2c-.3,0-.6,0-.9,0Z"/>
    <path class="st23" d="M9.3,50.8l13-20.6,32.5,24-45.5-3.4Z"/>
    <path class="st29" d="M9.3,49.6l13-20.6,32.5,24-45.5-3.4Z"/>
    <path class="st23" d="M9.3,11l45.5,5.1-14.6,18.9L9.3,11Z"/>
    <path class="st35" d="M9.3,9.8l45.5,5.1-14.6,18.9L9.3,9.8Z"/>
    <path class="st14" d="M9.4.1C4.4.1.3,4.4.2,9.7c0,.2,0,.4,0,.6C.6,5.2,4.6,1.3,9.4,1.4c.3,0,.6,0,.9,0l45.5,5.1c4.4.5,7.8,4.3,8.1,9,.3-5.1-3.3-9.6-8.1-10.2L10.3.2c-.3,0-.6,0-.9,0ZM13.3,26L1.8,44.2c-1.1,1.7-1.6,3.8-1.5,5.9.1-1.7.6-3.3,1.5-4.7l12-19.1-.5-.4ZM50,37.6l-.6.8,10.7,7.9c2.3,1.7,3.7,4.3,3.9,7.2.2-3.3-1.3-6.5-3.9-8.4l-10.1-7.5Z"/>
    <path class="st24" d="M22.3,29l-13,20.6h.7c0,0,12.3-19.4,12.3-19.4l30.7,22.7h1.8c0,.1-32.5-23.9-32.5-23.9Z"/>
    <path class="st24" d="M9.3,9.8l1.8,1.4,42.9,4.8.9-1.1L9.3,9.8Z"/>
  </g>
</svg>