<?xml version="1.0" standalone="no"?><!DOCTYPE svg PUBLIC "-//W3C//DTD SVG 1.1//EN" "http://www.w3.org/Graphics/SVG/1.1/DTD/svg11.dtd"><svg t="1732681242189" class="icon" viewBox="0 0 1780 1024" version="1.1" xmlns="http://www.w3.org/2000/svg" p-id="48178" xmlns:xlink="http://www.w3.org/1999/xlink" width="347.65625" height="200"><path d="M1031.042568 62.529464s51.645496-74.693899 153.495962-52.979316c0 0 76.027718 31.211379 80.029177 103.184286a1513.885271 1513.885271 0 0 1 252.678789 97.368833s156.750482 78.001771 261.428646 154.189548c0 0 7.842859 20.647528-13.498255 26.356276 0 0-108.519564 63.489814-464.169228 78.215182A186.734747 186.734747 0 0 1 1217.510551 640.233418a249.477622 249.477622 0 0 1-132.154848 52.605846l1.974053 1.760642h39.48106s-9.230032 42.362111-25.182514 50.95191c0 0-1.653936 2.720992 0.640233 3.788047a120.31053 120.31053 0 0 1 50.845204 46.096807s20.434117 28.010212 12.377846 56.500599c0 0 325.185224 4.855103 393.210025 11.790965 0 0 40.281353 9.710207-56.874069 13.178138l-350.474444 7.629448s-32.011671 39.534414-82.430052 11.310791a62.956286 62.956286 0 0 0-9.336737-5.335279c-1.387172 18.1933-2.774345 35.746366-4.001459 51.325379a19.793883 19.793883 0 0 1 2.027405 9.816913 38.147241 38.147241 0 0 1-3.627989 10.990673L1051.049862 1003.032356l0.586881-35.906425a10.670557 10.670557 0 0 1-10.670557 4.001459l3.627989 8.216329 6.882509 4.108164-98.756005 1.387173s3.627989-11.897671-11.897671-11.897671l-132.368259 0.373469s-4.054812 1.440525-2.934403 10.243735l-82.216642-0.96035 0.853645 41.401761s-1.387172-16.539363-3.414578-41.455114h-8.856562s-3.147814-12.591257 7.682801-14.191841c-4.641692-0.480175-29.023915-4.21487-19.740531-28.437034a215.651956 215.651956 0 0 0 16.005836-19.207003c-0.640233-7.842859-1.33382-16.005835-1.974053-23.9554a77.78836 77.78836 0 0 1-39.534414-3.147814c-6.295629-2.454228-30.517793 32.705257-69.038504 2.400875l-230.323972-1.440525s-16.005835-1.120408-18.353358-26.142865c0 0 1.120408-25.022456 21.661231-27.263273l196.284895-1.120408s-0.586881-71.972907 70.69244-92.887199a7.789507 7.789507 0 0 0 4.001459-8.803209 52.819257 52.819257 0 0 1-16.005835-43.429167l32.598551-1.707289s-65.357161-6.829156-135.409368-66.690981c0 0-55.433543-34.465899-57.08748-154.723076 0 0-326.732455-16.539363-432.584379-54.900016 0 0-59.96853-14.992133-34.145783-43.322461 0 0 156.430365-117.749596 298.775596-182.146408 0 0 145.813161-61.035586 206.848747-79.12218 0 0 3.307873-87.285156 114.601781-110.92044 0 0 68.931798-11.844318 114.228313 59.061533a890.991507 890.991507 0 0 1 290.079091 2.720992z m-646.262284 794.956494l86.164748 1.33382s19.687178 11.364143-1.280467 21.874642H386.060751q-17.286302-12.484552-1.280467-23.208462z m336.816131 52.87261c0.640233-1.227114 1.227114-2.400875 1.707289-3.521284 2.187464-5.335278 1.280467-9.230032-2.027405-11.044026l0.320116 14.56531z m331.05403-20.327411a16.806127 16.806127 0 0 0-2.240816 0.480175 47.270567 47.270567 0 0 1-26.676393-1.760642s-4.374928 7.896212-1.173761 11.790966c6.829156 8.376387 21.341114 22.248111 29.50409 34.946074l0.693586-45.456573z" fill="#221714" p-id="48179"></path><path d="M520.1363 106.70557s9.069973-70.532382 90.699734-94.701193c0 0 48.337623-22.141406 121.857761 48.337623A593.869848 593.869848 0 0 0 520.1363 106.70557zM1257.471787 106.70557S1248.455166 35.906424 1166.825405 11.737613c0 0-48.337623-22.141406-121.911113 48.337623A593.656437 593.656437 0 0 1 1257.471787 106.70557z" fill="#C76F30" p-id="48180"></path><path d="M755.635492 61.462408s89.579326 32.545199 107.612567 41.18835c0 0 28.223623 6.50904 46.256865 0.746939 0 0 96.835305-39.000886 119.243474-41.18835-87.125098-5.708748-176.384307-8.483093-273.112906-0.746939z" fill="#AF9672" p-id="48181"></path><path d="M656.239254 101.850466s-35.532955 101.370291 8.002918 160.965352c0 0 7.896212 22.888345-24.168812 0-5.335278 1.493878-80.029177-95.661543 16.005836-160.858646z" fill="#DCDDDD" p-id="48182"></path><path d="M661.841296 96.035013s-39.534414 34.999427-28.597092 129.007034c0 0 11.31079 49.938207 39.961235 56.767363s-3.627989-177.611421-3.627989-177.611421L661.841296 96.035013z" fill="#A55A3E" p-id="48183"></path><path d="M1121.849007 101.850466s41.081644 99.022769 0.906998 161.178763c0 0-6.615745 23.315167 24.168811-1.440525 5.335278 1.173761 74.427135-99.929766-25.075809-159.738238z" fill="#DCDDDD" p-id="48184"></path><path d="M1121.31548 99.076122s39.481061 34.946074 28.597092 128.953681c0 0-11.364143 49.938207-39.961236 56.767363s3.627989-177.558068 3.62799-177.558068l7.736154-8.162976z" fill="#A55A3E" p-id="48185"></path><path d="M771.1078 452.431616s1.707289 43.642578 65.730631 44.762986l5.655395 1.120409 13.018079 44.762986 67.971448-1.120408 11.364143-47.057157s59.488355 0 61.142292-52.018965c0 0 25.235867 1.600584 37.346949 88.832387a1199.050487 1199.050487 0 0 1 15.472308 167.154275s-51.218673 14.56531-140.317824 12.858021l4.588339-126.766217s-19.420414-47.430626-54.259782 1.120409l6.829157 125.645808s-94.167665 2.240817-138.717241-10.35044c0.320117-116.09566 13.498255-202.31376 43.855989-248.944094z" fill="#C76F30" p-id="48186"></path><path d="M651.704267 280.208826c-43.962695-13.231491-92.246965 24.915751-107.825978 85.364456s7.46939 119.883708 51.485437 133.061845 92.300318-24.915751 107.825979-85.364455-7.46939-119.830355-51.485438-133.061846z" fill="#FFFFFF" p-id="48187"></path><path d="M640.980357 309.446152c-29.557443-8.856562-62.049289 16.806127-72.506434 57.300891s5.015162 80.616058 34.625957 89.525973 62.049289-16.752774 72.559788-57.300891-5.068515-80.882822-34.679311-89.525973z" fill="#B5CAD7" p-id="48188"></path><path d="M634.89814 333.134789c-19.953942-6.028865-41.881936 11.31079-48.924504 38.627416s3.414578 54.313135 23.36852 60.342 41.828583-11.31079 48.871151-38.627417-3.467931-54.366488-23.315167-60.341999z" fill="#221714" p-id="48189"></path><path d="M862.074298 590.82874l22.194758 307.952274s4.268223 11.417496 9.603502-5.335279l17.339655-300.696295s-21.341114-55.486896-49.137915-2.080759zM976.836138 425.328401s40.601469-4.641692 62.63617 112.521023a1939.267024 1939.267024 0 0 1 15.045485 300.482885l-2.29417 144.052519s19.74053-251.771792 19.740531-257.533893 9.283385-184.49393-16.005836-251.771792c0 0-27.850154-83.497108-74.267076-82.376699-30.891262 6.13557-30.197676 24.382223-4.58834 34.839368zM796.343667 425.328401s-40.601469-4.641692-62.636169 112.521023a1934.945449 1934.945449 0 0 0-15.098839 300.482885l2.347523 144.052519s-19.74053-251.771792-19.74053-257.533893-9.283385-184.49393 16.005835-251.771792c0 0 27.850154-83.497108 74.267077-82.376699 30.944615 6.13557 30.251029 24.382223 4.641692 34.839368z" fill="#DCDDDD" p-id="48190"></path><path d="M890.991507 423.78117s57.781066-18.246652 37.34695-63.062991c0 0 21.341114-3.041109 44.869692 28.863856 0 0-20.540822 1.547231-15.205544 25.876101 0 0 9.870265 14.405252 23.528578 15.152191 0 0 10.670557-4.534987 10.670557 9.923618 0 0 8.323034 34.946074-34.199135 49.404678l-29.664148 2.987756 3.041108-9.870265s32.705257-18.246652 2.29417-24.275517q-39.534414-2.29417-42.682228-34.999427zM876.746314 422.287292s-57.781066-18.246652-37.34695-63.062991c0 0-21.341114-3.041109-44.869692 28.863856 0 0 20.540822 1.493878 15.205544 25.822748 0 0-9.870265 14.458605-23.528578 15.205544 0 0-10.670557-4.534987-10.670557 9.870265 0 0-8.323034 34.946074 34.199135 49.404679l29.664148 3.041108 4.534987-9.870265s-40.281353-18.246652-9.870265-24.32887q39.534414-2.240817 42.682228-34.946074z" fill="#A55A3E" p-id="48191"></path><path d="M883.57547 349.620799c5.868806 0 10.670557 2.774345 10.670557 6.188923s-4.748398 6.13557-10.670557 6.135571-10.670557-2.774345-10.670557-6.135571 4.801751-6.188923 10.670557-6.188923zM846.335226 464.809462s30.411087 0.800292 40.281353-18.1933c0 0 21.341114 22.781639 38.734122 24.275517l-3.041109 68.39827-64.55687-0.746939-11.417496-73.733548z" fill="#FFFFFF" p-id="48192"></path><path d="M1233.089564 221.307352s-26.196217 26.196217-41.721878 24.222164l1.974053 7.789507s90.166206 115.402074 97.795655 178.411712c0 0 35.853071 141.598291-71.812849 203.64758 0 0-36.97348 33.612254-145.439691 61.195644l-0.96035-156.803834s1.600584-110.440265-76.82801-148.85427a59.701766 59.701766 0 0 0-21.020998-3.041109s-14.351899-30.037618-45.669984-30.037618a75.760955 75.760955 0 0 0-88.352211-3.147814s-33.825666 8.749857-50.738499 33.825665c0 0-57.300891 1.493878-82.643463 108.839682a1155.354556 1155.354556 0 0 0-10.670557 199.752826s-86.484864-13.391549-146.93357-61.88923c0 0-85.364456-45.563278-73.893607-169.608503 0 0 11.790965-109.639973 111.453968-213.41114 0 0 6.989215-9.069973-3.467931-9.069973a108.732976 108.732976 0 0 1-39.26765-25.28922c11.044026-1.173761 46.150159-4.748398 57.194185-5.975512a112.040848 112.040848 0 0 0 47.537332 62.476111s28.757151 2.454228 22.888344-7.789507c0 0-22.888345-37.026833-20.967644-59.435002 0 0 40.281353-7.362684 152.375553-10.35044 0 0 228.776742-3.041109 322.837702 10.670557a114.014901 114.014901 0 0 1-9.816913 51.16532s-15.045485 27.103215 30.090971 13.551608c0 0 29.397384-30.83791 40.654822-59.435003l45.02975 8.80321zM652.771323 276.954306c-46.203512-13.658313-97.262127 26.089512-113.588079 88.51227s8.002918 124.5254 54.259782 138.183713 97.208774-26.036159 113.534726-88.458917-8.056271-124.5254-54.206429-138.237066z m462.942114 1.600584c47.590684-13.711666 100.249883 26.089512 117.05601 88.565623s-8.269682 124.685458-55.860366 138.343771-100.249883-26.036159-117.05601-88.565623 8.269682-124.632105 55.860366-138.343771z" fill="#C76F30" p-id="48193"></path><path d="M1120.835305 503.810348s73.893607 30.83791 116.149012-55.273486c0 0 37.346949-10.670557 61.729172 18.673475l25.182515 133.381962L1211.108217 692.252384l-86.111395-4.855104c-43.589225-60.342-38.467358-121.110822-4.054812-183.586932zM651.38415 504.82405s-73.94696 30.891262-116.202365-55.220132c0 0-37.346949-10.670557-61.729172 18.673475l-25.182515 133.381962L561.217944 693.586203l86.111395-4.855103c43.589225-60.342 38.414005-121.110822 4.054811-183.640286zM888.910749 182.039702a49.191268 49.191268 0 1 1-49.137915 49.191268 49.137915 49.137915 0 0 1 49.137915-49.191268z" fill="#A55A3E" p-id="48194"></path><path d="M888.910749 170.195384a76.507894 76.507894 0 1 1-76.347835 76.45454 76.561246 76.561246 0 0 1 76.347835-76.45454z m1.067055 4.588339a61.248997 61.248997 0 1 1-61.088938 61.248997 61.30235 61.30235 0 0 1 61.088938-61.248997z" fill="#A55A3E" p-id="48195"></path><path d="M12.324493 374.056375S247.877039 241.688115 600.538946 211.010264c0 0-5.335278-91.980201 58.688064-114.281665 0 0-20.914292 101.743761-6.989215 103.130933 0 0 296.801542-21.341114 479.694889 0.853645 0 0 15.152191-20.167353-13.124785-100.996822 0 0 58.688063 7.09592 61.622466 96.995363l-2.027406 13.124785s382.752879 28.330329 594.616788 160.645235c0 0 8.216329-7.042568-63.169698-51.53879 0 0-240.994529-151.575262-445.869223-203.807638 0 0-122.017819-37.080185-232.511436-51.378732 0 0-71.439379 32.491846-114.335018 42.682228 0 0-10.403793 9.123326-58.688063 5.335278 0 0-88.352212-31.158026-109.159798-46.737039 0 0-173.556609 30.624499-264.202991 56.393893 0 0-176.757776 64.343459-281.80941 125.325692A1705.688532 1705.688532 0 0 0 12.324493 374.056375z" fill="#EDA83E" p-id="48196"></path><path d="M649.943625 696.467254s30.677851 52.87261 51.378732 67.384567l-2.400875-62.155994s-3.788048 2.080759-9.976971-5.335279zM734.7212 746.298755s47.750742-18.993591 30.357735 30.944615c0 0-29.290679 21.341114-41.775231 0.533528l0.586881-70.532382s38.520711 4.321576 56.393894 5.335279l65.677278 60.235294s-21.341114-7.042568-21.714584 9.230032c0 0 0 22.248111 23.315167 5.975512 0 0 5.335278-5.975512 4.908457 14.672015l-10.670557 3.788048s-7.576095-15.739072-13.551608-1.120408c0 0-3.788048 14.138488 7.629449 13.60496a8.42974 8.42974 0 0 0 9.176679-3.788048l9.230031 1.067056s-1.067056 14.672016-13.018079 15.739071c0 0-91.713437 3.788048-105.798573 18.460064h-5.335278l1.760642-49.404679s44.176106 7.042568 55.006721-28.757151c0 0 8.162976-44.496223-33.078727-49.351326-23.421873 1.867347-27.369979 10.670557-18.993591 23.315167zM1125.15688 696.467254c-2.774345 9.016621-36.226541 65.997395-53.352785 67.384567l1.9207-62.155994a12.111082 12.111082 0 0 0 12.431199-5.335279z" fill="#1D96D5" p-id="48197"></path><path d="M653.518262 749.019747s36.653363 39.961236 48.497681 42.682228l-0.373469 4.321575 6.615745 89.632679c0.640233 9.069973-31.42479 5.655395-34.359193 0 0 0-27.743448 37.93383-63.59652 7.736154-70.052207-49.884854-16.699422-127.566509 43.215756-144.319283zM721.169593 800.291773s4.108164 3.627989 7.736154 2.400875l-1.280467 77.094774-6.562392 3.62799V800.291773zM1071.590684 773.188558s19.847236-9.123326 24.008753-20.540822c0 0 51.752201 23.208461 65.090398 70.425676 0 0 17.499713 79.549002-62.422758 79.175533 0 0-18.673475 0.800292-27.049862-14.832074l-3.788048 1.54723 4.161517-115.775543zM1049.555984 789.621216s-15.632366 16.005835-31.638201 13.711666l8.002917 80.029177a20.274058 20.274058 0 0 0 22.834992 3.467931l0.800292-97.102068z" fill="#F7D39F" p-id="48198"></path><path d="M1040.379305 746.298755s-47.750742-18.993591-30.357735 30.944615c0 0 29.290679 21.341114 41.775231 0.533528l-0.533528-70.532382s-38.520711 4.321576-56.447246 5.335279l-65.677278 60.235294s21.341114-7.042568 21.714583 9.230032c0 0 0 22.248111-23.315167 5.975512 0 0-5.335278-5.975512-4.855103 14.672015l10.670557 3.788048s7.576095-15.739072 13.551607-1.120408c0 0 3.788048 14.138488-7.576096 13.60496a8.483093 8.483093 0 0 1-9.230031-3.788048l-9.230032 1.067056s1.067056 14.672016 13.018079 15.739071c0 0 54.526546 2.240817 85.951337 10.030324l-4.321576-43.162403a38.040536 38.040536 0 0 1-27.369978-26.676393s-8.162976-44.496223 33.078726-49.351326c23.421873 1.867347 27.423331 10.670557 18.993592 23.315167z" fill="#1D96D5" p-id="48199"></path><path d="M724.210702 905.076643s59.328297-16.379305 153.869431-16.592717l-1.9207-26.676392c-33.665607 0-104.251342 4.108164-144.052519 16.005835-11.790965 5.335278-13.60496 13.071432-7.949565 27.263274z m176.06419-16.379305a855.832022 855.832022 0 0 1 121.857761 11.790965s8.536446-20.327411-1.974054-28.223623c0 0-71.332673-10.670557-118.336476-10.670557l-1.547231 27.049862z" fill="#F3C91D" p-id="48200"></path><path d="M804.559996 899.314542v52.285729a8.80321 8.80321 0 0 0 9.710207 7.09592l121.377585 0.853645a13.498255 13.498255 0 0 0 7.095921-11.524202l-0.906998-56.660657c0-0.586881-29.023915 0-41.935289-1.067056-4.21487 15.312249-19.74053 24.755692-21.66123-0.746939-30.411087 2.240817-68.39827 1.974053-73.680196 9.76356z" fill="#1D96D5" p-id="48201"></path><path d="M871.944563 895.153025a29.077268 29.077268 0 1 1-29.077268 29.077267 29.023915 29.023915 0 0 1 29.077268-29.077267z" fill="#FFFFFF" p-id="48202"></path><path d="M800.291773 962.804356l-73.200021-2.454228s11.737613-37.346949 11.737613-56.020424l56.553952-8.696504 5.015162 67.011097z" fill="#C76F30" p-id="48203"></path><path d="M721.756474 923.910176h84.617517v46.523628h-84.617517z" fill="#A55A3E" p-id="48204"></path><path d="M718.768718 964.61835c-33.879018-6.882509-17.126244-25.716042-3.25452-41.881936 1.120408 14.778721 2.240817 28.917209 3.25452 41.881936z m3.201167-49.724795a40.761528 40.761528 0 0 0 4.695045-7.416037s9.550148-5.868806 9.230032-1.33382c-0.96035 14.458605-5.335278 46.897098-13.178138 56.447247l-0.746939-47.69739z" fill="#D71518" p-id="48205"></path><path d="M956.56208 964.404939l73.306726-2.347522s-10.670557-38.414005-10.670557-56.980774L960.350128 902.72912l-3.521284 61.675819z" fill="#C76F30" p-id="48206"></path><path d="M950.586568 925.457406h84.617517v46.523629h-84.617517z" fill="#A55A3E" p-id="48207"></path><path d="M1036.964727 966.432345a36.173188 36.173188 0 0 0 14.085135-5.335278l0.320117-22.141406c-8.376387-13.284843-25.342573-28.063565-29.237326-36.97348 0 0-1.387172-1.280467-1.067056 3.201167 1.067056 16.005835 6.348981 56.660658 16.005835 61.035586z m18.300005-9.923618a11.737613 11.737613 0 0 0 0.586881-7.576095c0 2.560934-0.426822 5.335278-0.586881 7.576095z" fill="#D71518" p-id="48208"></path><path d="M1167.892461 856.899078l388.781743 10.403793s18.1933 0-9.069973 5.815453L1157.755432 882.881884a54.79331 54.79331 0 0 0 10.35044-25.982806z" fill="#D4B465" p-id="48209"></path><path d="M1156.368259 883.468765l0.693586-0.96035a54.046371 54.046371 0 0 0 10.297088-25.66269v-0.533528h0.533528l388.72839 10.403793c6.348981 0 6.455687 1.173761 6.50904 1.600584s0 2.027406-15.472308 5.335278z m12.05773-25.982807a55.326838 55.326838 0 0 1-9.76356 24.809045l388.888449-9.710206a48.390976 48.390976 0 0 0 14.351899-4.161518 18.033241 18.033241 0 0 0-5.335278-0.533528z" fill="#221714" p-id="48210"></path><path d="M377.951128 840.679831l195.698015 1.33382a97.155421 97.155421 0 0 0 30.304382 49.671443l-229.416975 2.027405c-30.46444-19.687178-17.126244-46.897098 3.681342-53.032668z m5.335279 16.005836l83.92393 0.426822s19.313708 12.111082-1.013703 23.795342l-81.309644 1.013703q-16.966186-13.391549-1.600583-25.235867z" fill="#D4B465" p-id="48211"></path><path d="M374.056375 894.29938c-13.178138-8.536446-19.527119-19.420414-17.926536-30.677851a30.251029 30.251029 0 0 1 21.767936-23.421873l196.17819 1.387173v0.426822a97.955713 97.955713 0 0 0 30.144324 49.297973l-0.37347 1.067056z m4.001459-53.032668a28.917209 28.917209 0 0 0-20.860939 22.408169c-1.547231 10.670557 4.534987 21.341114 17.232949 29.450738l227.97645-2.027406a99.556297 99.556297 0 0 1-29.237326-48.497682z m6.615745 41.241703a19.420414 19.420414 0 0 1-9.123326-14.085136 16.005835 16.005835 0 0 1 7.576095-12.057729l84.083989 0.426822c0.320117 0.266764 8.696504 5.602042 8.536446 12.804669 0 4.374928-3.307873 8.42974-9.550149 12.004376h-0.320117z m-1.173761-25.182515a14.725369 14.725369 0 0 0-6.935862 10.990674 18.033241 18.033241 0 0 0 8.536445 13.071432l80.936175-1.067056c5.815454-3.361225 8.80321-7.042568 8.909915-10.990673 0-6.082217-6.882509-10.670557-7.896212-11.68426z" fill="#221714" p-id="48212"></path><path d="M1118.114313 282.76976c44.016048-13.178138 92.300318 24.969103 107.879331 85.364456s-7.522743 119.830355-51.485438 133.061845-92.300318-24.915751-107.879331-85.364456 7.46939-119.723649 51.485438-133.061845z" fill="#FFFFFF" p-id="48213"></path><path d="M1128.838222 311.90038c29.610796-8.909915 62.102642 16.752774 72.559788 57.300891s-5.335278 80.616058-34.625958 89.472621-62.102642-16.699422-72.559787-57.247539 4.855103-80.616058 34.625957-89.525973z" fill="#B5CAD7" p-id="48214"></path><path d="M1135.027145 336.122545c19.953942-6.028865 41.828583 11.257438 48.871151 38.574063s-3.361225 54.366488-23.315167 60.342-41.881936-11.257438-48.924503-38.627416 3.414578-54.579899 23.368519-60.288647z" fill="#221714" p-id="48215"></path></svg>