<?xml version="1.0" encoding="UTF-8"?>
<svg id="_图层_1" xmlns="http://www.w3.org/2000/svg" version="1.1" viewBox="0 0 16 16">
  <!-- Generator: Adobe Illustrator 29.0.1, SVG Export Plug-In . SVG Version: 2.1.0 Build 192)  -->
  <defs>
    <style>
      .st0, .st1 {
        fill: #333;
      }

      .st0, .st2, .st3, .st4 {
        display: none;
      }

      .st5, .st3 {
        fill: #ed333b;
      }

      .st6 {
        fill: #444;
      }

      .st7 {
        fill: #2e3434;
      }

      .st8, .st4 {
        fill: #ff7800;
      }
    </style>
  </defs>
  <path class="st0" d="M3.5,6.6c.3,0,.6.3.6.6v3.1c0,.3-.2.6-.6.6s-.6-.3-.6-.6v-3.1c0-.3.2-.6.6-.6ZM6.3,7.2c0-.3-.2-.6-.6-.6s-.6.3-.6.6v3.1c0,.3.2.6.6.6s.6-.3.6-.6v-3.1ZM8,6.6c.3,0,.6.3.6.6v3.1c0,.3-.2.6-.6.6s-.6-.3-.6-.6v-3.1c0-.3.2-.6.6-.6ZM10.8,7.2c0-.3-.2-.6-.6-.6s-.6.3-.6.6v3.1c0,.3.2.6.6.6s.6-.3.6-.6v-3.1Z"/>
  <path class="st6" d="M16,8.1c0-.2,0-.4-.1-.6-.1-.3-.4-.6-.6-.8-.2-.1-.3-.2-.5-.2-.2,0-.4,0-.6-.1h-.4c0-.1,0-.2,0-.2,0-.7-.3-1.3-.7-1.7s-1-.7-1.7-.8c-.6,0-1.5,0-2.5,0h-3.8c-.7,0-.9,0-1.4,0v1.2c.4,0,.8,0,1.5,0h3.7c1.1,0,1.8,0,2.4,0,.5,0,.8.2,1,.4.2.2.3.5.4,1.1,0,.6,0,1.4,0,2.5s0,1.9,0,2.5c0,.6-.2.9-.4,1.1s-.5.4-1,.4c-.6,0-1.3,0-2.4,0h-3.7c-1.1,0-1.8,0-2.4,0-.5,0-.8-.2-1-.4-.2-.2-.3-.5-.4-1.1,0-.6,0-1.4,0-2.5s0-.3,0-.6c0,0,0,0,0,0H0c0,.2,0,.3,0,.5H0c0,1.1,0,2,0,2.7,0,.7.3,1.3.7,1.7s1,.7,1.7.8c.6,0,1.5,0,2.5,0h3.8c1,0,1.8,0,2.5,0,.7,0,1.2-.3,1.7-.8s.6-1,.7-1.7v-.2s.4,0,.4,0c.2,0,.4,0,.6-.1.2,0,.4-.1.5-.2.3-.2.5-.5.6-.8,0-.2.1-.4.1-.6,0-.2,0-.4,0-.6h0c0-.3,0-.5,0-.7h0ZM14.9,9.4c0,0,0,.1,0,.2,0,.1-.1.2-.2.3,0,0-.1,0-.2,0-.2,0-.4,0-.6.1h-.1v-1.2h0v-1.3h.1c.3,0,.4,0,.6.1,0,0,.1,0,.2,0,0,0,.2.2.2.3,0,0,0,0,0,.2,0,.1,0,.3,0,.6s0,.5,0,.6h0Z"/>
  <path class="st4" d="M8.8,3.6h-3.8c-1,0-1.8,0-2.5,0-.7,0-1.2.3-1.7.8S.2,5.5,0,6.1c0,.7,0,1.5,0,2.6h0c0,1.1,0,2,0,2.7,0,.7.3,1.3.7,1.7s1,.7,1.7.8c.6,0,1.5,0,2.5,0h3.8c1,0,1.8,0,2.5,0,.7,0,1.2-.3,1.7-.8s.6-1,.7-1.7v-.2s.4,0,.4,0c.2,0,.4,0,.6-.1.2,0,.4-.1.5-.2.3-.2.5-.5.6-.8,0-.2.1-.4.1-.6,0-.2,0-.4,0-.6h0c0-.3,0-.5,0-.7,0-.2,0-.4-.1-.6-.1-.3-.4-.6-.6-.8-.2-.1-.3-.2-.5-.2-.2,0-.4,0-.6-.1h-.4c0-.1,0-.2,0-.2,0-.7-.3-1.3-.7-1.7s-1-.7-1.7-.8c-.6,0-1.5,0-2.5,0h0ZM13.7,7.5h.1c.3,0,.4,0,.6.1,0,0,.1,0,.2,0,0,0,.2.2.2.3,0,0,0,0,0,.2,0,.1,0,.3,0,.6s0,.5,0,.6c0,0,0,.1,0,.2,0,.1-.1.2-.2.3,0,0-.1,0-.2,0-.2,0-.4,0-.6.1h-.1v-1.2h0v-1.3h0ZM1.6,5.2c.2-.2.5-.4,1-.4.6,0,1.3,0,2.4,0h3.7c1.1,0,1.8,0,2.4,0,.5,0,.8.2,1,.4s.3.5.4,1.1c0,.6,0,1.4,0,2.5s0,1.9,0,2.5c0,.6-.2.9-.4,1.1s-.5.4-1,.4c-.6,0-1.3,0-2.4,0h-3.7c-1.1,0-1.8,0-2.4,0-.5,0-.8-.2-1-.4-.2-.2-.3-.5-.4-1.1,0-.6,0-1.4,0-2.5s0-1.9,0-2.5c0-.6.2-.9.4-1.1Z"/>
  <g class="st2">
    <path class="st1" d="M1.9,2h0c-.2,0-.3,0-.4.2L.2,3.9c0,.1-.2.3-.2.4,0,.1,0,.3,0,.4,0,.1.1.3.2.4,0,0,0,0,0,0,0,0,.2.1.3.1l.9.2-1.3,1.3c-.2.2-.2.6,0,.8.2.2.6.2.8,0l1.6-1.7c0,0,.2-.2.2-.3,0-.1,0-.2,0-.4,0,0,0-.2,0-.2,0-.1,0-.2-.2-.3s-.1-.1-.2-.2c0,0-.2-.1-.3-.1l-.9-.2,1-1.3c0,0,0-.2.1-.2,0-.3-.1-.6-.4-.7h-.1,0Z"/>
  </g>
  <path class="st5" d="M3.5,6.6c.3,0,.6.3.6.6v3.1c0,.3-.2.6-.6.6s-.6-.3-.6-.6v-3.1c0-.3.2-.6.6-.6Z"/>
  <path class="st0" d="M6.3,7.2c0-.3-.2-.6-.6-.6s-.6.3-.6.6v3.1c0,.3.2.6.6.6s.6-.3.6-.6v-3.1Z"/>
  <path class="st0" d="M8,6.6c.3,0,.6.3.6.6v3.1c0,.3-.2.6-.6.6s-.6-.3-.6-.6v-3.1c0-.3.2-.6.6-.6Z"/>
  <path class="st0" d="M10.8,7.2c0-.3-.2-.6-.6-.6s-.6.3-.6.6v3.1c0,.3.2.6.6.6s.6-.3.6-.6v-3.1Z"/>
  <path class="st3" d="M4.8,6.8h0c.2-.3.6-.3.9,0l3.3,3c.3.2.3.7,0,1h0c-.2.3-.6.3-.9,0l-3.3-3c-.3-.2-.3-.7,0-1Z"/>
  <path class="st3" d="M9.3,6.9h0c.2.3.2.7,0,1l-3.4,2.9c-.3.2-.7.2-.9,0h0c-.2-.3-.2-.7,0-1l3.4-2.9c.3-.2.7-.2.9,0Z"/>
  <g class="st2">
    <path class="st7" d="M7,6.4c-.2,0-.5,0-.7.1-.6.3-1,.8-1,1.5h1.1c0-.2.1-.4.3-.5s.4,0,.6.1c.2.2.2.4.1.6s-.3.3-.5.3-.5.2-.5.5v1h1.1v-.6c.4-.2.8-.5,1-.9.3-.6.1-1.2-.3-1.7-.3-.3-.7-.4-1.1-.5h0c0,0,0,0,0,0ZM6.9,10.6c-.3,0-.5.2-.5.5s.2.5.5.5.5-.2.5-.5-.2-.5-.5-.5Z"/>
  </g>
  <g>
    <path class="st8" d="M1.5,6.9c0,.4-.3.7-.7.7s-.7-.3-.7-.7.3-.7.7-.7.7.3.7.7Z"/>
    <path class="st8" d="M.2,2.3v2.7c0,.4.3.7.7.7s.7-.3.7-.7v-2.7s-1.4,0-1.4,0Z"/>
  </g>
</svg>