<?xml version="1.0" encoding="UTF-8"?>
<svg id="_图层_1" data-name="图层_1" xmlns="http://www.w3.org/2000/svg" version="1.1" viewBox="0 0 200 200" width="16" height="16">
  <!-- Generator: Adobe Illustrator 29.0.1, SVG Export Plug-In . SVG Version: 2.1.0 Build 192)  -->
  <defs>
    <style>
      .st0, .st1 {
        fill: #444;
      }

      .st1 {
        display: none;
      }
    </style>
  </defs>
  <path class="st1" d="M155.5,178.7l15.7,15.4h0c0,.1,0,.3,0,.3l-.2.4v.3c-.1,0-.3.3-.3.3v.2c0,0-.1,0-.1,0h0c0,0,0,.2,0,.2h0c0,0,0,.2,0,.2h0c0,.1-.1.3-.1.3h0c0,.1-.2.4-.2.4l-.6.7-.5.4-.2.2h-.1c0,.1-.2.3-.2.3h-.1c0,.1,0,.2,0,.2h0c0,0,0,.1,0,.1h0c0,0,0,.1,0,.1h0s0,0,0,0c0,0,0,0,0,0h0s0,0,0,0h0c0,0,0,0,0,0h0s0,0,0,0c0,0,0,0,0,0h0s0,0,0,0h-.1s-.1,0-.1,0h-.1s-.1,0-.1,0h-.1s-.1,0-.1,0h-.1s-.1,0-.1,0h-.1s-.1,0-.1,0h-.1s-.2,0-.2,0h-.2s-.2,0-.2,0h-.3s-.3,0-.3,0h-.9c0,.1-.9.2-.9.2-4.3-.4-7.5-4.4-7.3-8.8h0c0,0,0-.8,0-.8v-3.4s0-3.5,0-3.5v-4.7s0,0,0,0ZM8.1,34l16.1,15.8v93h94.7s16.9,16.6,16.9,16.6h-29.7v22.1h29.9c4.5,0,8.1,3.7,8.1,8.3s-3.5,8.2-7.9,8.3h-.1s-76,0-76,0c-4.5,0-8.1-3.7-8.1-8.3s3.5-8.2,7.9-8.3h.1s29.9,0,29.9,0v-22.1H23.4c-8.3,0-15.1-6.9-15.2-15.4v-.3s0-109.8,0-109.8ZM13.6,8.7h0c0,0,177.4,174.4,177.4,174.4,3.2,3.2,3.3,8.4.3,11.7-3,3.3-8.1,3.4-11.3.4h0c0,0-177.4-174.4-177.4-174.4-3.2-3.2-3.3-8.4-.3-11.7,3-3.3,8.1-3.4,11.3-.4ZM160.1,184.2h0c-.4.2-.8.4-1.1.7h-.1c0,0,0,0,0,0,.4-.3.8-.5,1.2-.7h0s0,0,0,0ZM174.4.3c8.3,0,15.1,6.9,15.2,15.4v.3s0,11.2,0,11.2c5.7,2.2,9.8,7.8,9.9,14.5v.2s0,43.8,0,43.8c0,8.6-6.7,15.5-15,15.7h-.3s-12.7,0-12.7,0v32.6s0,22.4,0,22.4l-16.1-15.9v-.3s0-22.1,0-22.1v-16.8h-12.2c-8.3,0-15.1-6.9-15.2-15.4v-.3s0-43.8,0-43.8c0-6.7,4.1-12.4,9.9-14.7h0v-11.2c0-8.6,6.7-15.5,15-15.7h.3s21.3,0,21.3,0h0ZM183.3,42.7h-39.2v42h19.2s0,0,0,0h.1s19.8,0,19.8,0v-42h0ZM120.5,13.2c4.5,0,8.1,3.7,8.1,8.3s-3.5,8.2-7.9,8.3h-.1s-77.6,0-77.6,0L26,13.2h94.5ZM173.5,16.9h-19.5v9.2h19.5v-9.2h0Z"/>
  <g>
    <path class="st0" d="M135.9,142.7H16.9V29.6h100.7c4.6,0,8.3-3.8,8.3-8.3s-3.8-8.3-8.4-8.3h0s-101.8,0-101.8,0c-8.7.1-15.7,7.1-15.7,15.7v115.3c.2,8.6,7.3,15.5,15.9,15.4h69.7v22.2h-31.4c-4.6,0-8.3,3.8-8.3,8.3h0c0,4.6,3.8,8.3,8.4,8.3h79.5c4.6,0,8.3-3.8,8.3-8.3s-3.8-8.3-8.4-8.3h-31.3v-22.2h33.6c4.6,0,8.3-3.8,8.3-8.3h0c0-4.7-3.8-8.3-8.4-8.3Z"/>
    <path class="st0" d="M189.7,26.9v-11.4c-.1-8.6-7.2-15.4-15.9-15.4h-22.5c-8.7.1-15.7,7.1-15.7,15.7v11.2c-6,2.2-10.3,8-10.3,14.7v44.1c.2,8.6,7.3,15.5,15.9,15.4h12.7v15.4c.5,0,1.1-.1,1.6-.1h15.1c0,0,.1,0,.2,0v-15.3s13.5,0,13.5,0c8.7-.1,15.7-7.1,15.7-15.7v-44.1c0-6.6-4.3-12.3-10.3-14.5ZM152.5,16.6h20.4v9.2h-20.4v-9.2ZM183.1,84.5h-41v-42h41v42Z"/>
  </g>
  <circle class="st1" cx="104.2" cy="84.5" r="8.8"/>
  <circle class="st1" cx="72.2" cy="84.5" r="8.8"/>
  <circle class="st1" cx="40.1" cy="84.5" r="8.8"/>
  <path class="st1" d="M162.6,173.9h0c-4.7,0-8.6-3.8-8.6-8.6v-35.9c10.2.8,3.8.8,8.6.8h0c4.7,0,0,0,7.5-.8l1.1,35.9c0,4.7-3.8,8.6-8.6,8.6Z"/>
  <ellipse class="st1" cx="162.6" cy="190" rx="8.5" ry="7.9"/>
  <path class="st0" d="M170.3,130.4c6.4,0,11,1.7,14.7,5.1,3.7,3.4,5.5,7.6,5.5,12.7s0,4.2-1.8,6.7c-.9,2.5-2.8,4.2-3.7,5.1-.9.8-1.8,2.5-3.7,3.4h0c-3.7,4.2-6.4,6.7-6.4,10.1v3.4h-9.2v-4.2c0-2.5,0-5.1,1.8-6.7.9-1.7,3.7-4.2,6.4-6.7l3.7-3.4s1.8-1.7,1.8-3.4.9-2.5.9-4.2c0-2.5-.9-5.1-2.8-6.7s-4.6-2.5-8.3-2.5c-5.5,0-9.2,2.5-11.9,8.4l-8.3-3.4c1.8-3.4,3.7-6.7,7.4-9.3,3.7-2.5,8.3-4.2,12.9-4.2h.9ZM170.3,185.2c1.8,0,3.7,0,4.6,1.7.9.8,1.8,2.5,1.8,4.2s0,3.4-1.8,4.2c-.9.8-2.8,1.7-4.6,1.7s-3.7,0-4.6-1.7c-.9-.8-1.8-2.5-1.8-4.2s0-3.4,1.8-4.2c.9-.8,2.8-1.7,4.6-1.7h0Z"/>
</svg>
