<?xml version="1.0" encoding="UTF-8" standalone="no"?>
<svg
   id="_图层_1"
   data-name="图层_1"
   version="1.1"
   viewBox="0 0 128 128"
   width="22"
   height="22"
   sodipodi:docname="application-x-pc-engine-rom.svg"
   xml:space="preserve"
   inkscape:version="1.4 (e7c3feb100, 2024-10-09)"
   xmlns:inkscape="http://www.inkscape.org/namespaces/inkscape"
   xmlns:sodipodi="http://sodipodi.sourceforge.net/DTD/sodipodi-0.dtd"
   xmlns="http://www.w3.org/2000/svg"
   xmlns:svg="http://www.w3.org/2000/svg"><sodipodi:namedview
     id="namedview3"
     pagecolor="#505050"
     bordercolor="#eeeeee"
     borderopacity="1"
     inkscape:showpageshadow="0"
     inkscape:pageopacity="0"
     inkscape:pagecheckerboard="0"
     inkscape:deskcolor="#505050"
     inkscape:zoom="10.6875"
     inkscape:cx="32"
     inkscape:cy="26.292398"
     inkscape:window-width="1920"
     inkscape:window-height="939"
     inkscape:window-x="0"
     inkscape:window-y="34"
     inkscape:window-maximized="1"
     inkscape:current-layer="_图层_1"
     showguides="true"><sodipodi:guide
       position="7.6134526,83.439664"
       orientation="1,0"
       id="guide7"
       inkscape:locked="false" /><sodipodi:guide
       position="120.24109,71.856006"
       orientation="1,0"
       id="guide8"
       inkscape:locked="false" /></sodipodi:namedview><!-- Generator: Adobe Illustrator 29.0.1, SVG Export Plug-In . SVG Version: 2.1.0 Build 192)  --><defs
     id="defs1"><style
       id="style1">
      .st0 {
        fill: #0071e9;
      }

      .st1 {
        fill: #fff;
      }

      .st2 {
        fill: #5aaaff;
        isolation: isolate;
        opacity: .5;
      }
    </style><style
       id="style1-6">
      .st0 {
        fill: #0071e9;
      }

      .st1 {
        fill: #fff;
      }

      .st2 {
        fill: #5aaaff;
        isolation: isolate;
        opacity: .5;
      }
    </style><style
       id="style1-8">
      .st0 {
        fill: #0071e9;
      }

      .st1 {
        fill: #fff;
      }

      .st2 {
        fill: #5aaaff;
        isolation: isolate;
        opacity: .5;
      }
    </style><style
       id="style1-0">
      .st0 {
        fill: #0071e9;
      }

      .st1 {
        fill: #fff;
      }

      .st2 {
        fill: #5aaaff;
        isolation: isolate;
        opacity: .5;
      }
    </style></defs><path
     class="st0"
     d="M18.2,0c-5.6,0-10.2,4.6-10.2,10.2v107.6c0,5.6,4.6,10.2,10.2,10.2h91.6c5.6,0,10.2-4.6,10.2-10.2V40.6L82.2,0H18.2Z"
     id="path1"
     style="fill:#e93a3a;fill-opacity:1" /><path
     class="st2"
     d="m 82.761404,2.619883 v 29.2 c 0,3.2 2.145542,11.6 11.89801,11.6 h 24.966316 z"
     id="path2"
     style="fill:#ba2e2e;fill-opacity:1;stroke-width:0.987546" /><path
     class="st2"
     d="M 82.116964,0.02339171 V 29.223392 c 0,3.2 2.2,11.6 12.2,11.6 h 25.599996 z"
     id="path2-3"
     style="opacity:1;isolation:isolate;fill:#f18080;fill-opacity:1" /><g
     id="g12"
     transform="matrix(2.5571505,0,0,2.2856263,-17.735248,-9.2419206)"><path
       style="opacity:0.2"
       d="m 39.0625,31.011719 c -0.162728,-0.0021 -0.334844,0.0073 -0.517578,0.0293 -1.630663,0.195907 -3.263556,0.459067 -4.845703,0.90625 C 30.312688,32.904442 29.25,36.378906 29.25,36.378906 l -1.185547,7.5 c 0,0 -0.317395,3.466731 3.728516,2.992188 L 37,41.779297 V 40.71875 l -0.927734,0.191406 c 0,0 0.09325,1.04621 -0.445313,1.15625 -0.786237,0.160647 -1.578773,0.291878 -2.373047,0.404297 -0.506818,0.07173 -0.345703,-0.503906 -0.345703,-0.503906 l 0.890625,-6.041016 c 0,0 9.71e-4,-0.377868 0.791016,-0.552734 0.622212,-0.13772 1.25065,-0.248012 1.878906,-0.353516 0.479157,-0.08047 0.443359,0.353516 0.443359,0.353516 v 0.705078 l 4.798829,-0.705078 0.04687,-1.761719 c 0,0 -0.254391,-2.568114 -2.695312,-2.599609 z M 24.90625,32.625 l -8.458984,1.564453 -2.519532,16.798828 4.47461,-0.99414 0.630859,-4.697266 3.021485,-0.605469 c 0,0 4.13764,-0.408602 5.4375,-4.736328 0.371117,-1.235589 0.423215,-2.553477 0.490234,-3.84375 C 28.156066,32.768235 24.90625,32.625 24.90625,32.625 Z M 51,37 41,41 38,38 v 4.199219 L 29,51 39,46 43,49.800781 42,44 Z m -28.0625,0.02734 c 0.193865,0.0032 0.566487,0.107956 0.435547,0.890625 -0.0949,0.567282 -0.210298,1.189865 -0.273438,1.761719 -0.122142,1.106262 -0.9375,1.132812 -0.9375,1.132812 l -2.326171,0.427734 0.644531,-3.77539 2.347656,-0.429688 c 0,0 0.04474,-0.0088 0.109375,-0.0078 z"
       id="path3" /><path
       style="fill:#ffffff"
       d="m 39.0625,30.011719 c -0.162728,-0.0021 -0.334844,0.0073 -0.517578,0.0293 -1.630663,0.195907 -3.263556,0.459067 -4.845703,0.90625 C 30.312688,31.904442 29.25,35.378906 29.25,35.378906 l -1.185547,7.5 c 0,0 -0.317395,3.466731 3.728516,2.992188 L 37,40.779297 V 39.71875 l -0.927734,0.191406 c 0,0 0.09325,1.04621 -0.445313,1.15625 -0.786237,0.160647 -1.578773,0.291878 -2.373047,0.404297 -0.506818,0.07173 -0.345703,-0.503906 -0.345703,-0.503906 l 0.890625,-6.041016 c 0,0 9.71e-4,-0.377868 0.791016,-0.552734 0.622212,-0.13772 1.25065,-0.248012 1.878906,-0.353516 0.479157,-0.08047 0.443359,0.353516 0.443359,0.353516 v 0.705078 l 4.798829,-0.705078 0.04687,-1.761719 c 0,0 -0.254391,-2.568114 -2.695312,-2.599609 z M 24.90625,31.625 l -8.458984,1.564453 -2.519532,16.798828 4.47461,-0.99414 0.630859,-4.697266 3.021485,-0.605469 c 0,0 4.13764,-0.408602 5.4375,-4.736328 0.371117,-1.235589 0.423215,-2.553477 0.490234,-3.84375 C 28.156066,31.768235 24.90625,31.625 24.90625,31.625 Z M 51,36 41,40 38,37 v 4.199219 L 29,50 39,45 43,48.800781 42,43 Z m -28.0625,0.02734 c 0.193865,0.0032 0.566487,0.107956 0.435547,0.890625 -0.0949,0.567282 -0.210298,1.189865 -0.273438,1.761719 -0.122142,1.106262 -0.9375,1.132812 -0.9375,1.132812 l -2.326171,0.427734 0.644531,-3.77539 2.347656,-0.429688 c 0,0 0.04474,-0.0088 0.109375,-0.0078 z"
       id="path7" /></g></svg>
