<?xml version="1.0" encoding="UTF-8" standalone="no"?>
<svg
   id="_图层_1"
   data-name="图层_1"
   version="1.1"
   viewBox="0 0 128 128"
   width="22"
   height="22"
   sodipodi:docname="application-x-world-of-goo-addin.svg"
   xml:space="preserve"
   inkscape:version="1.4 (e7c3feb100, 2024-10-09)"
   xmlns:inkscape="http://www.inkscape.org/namespaces/inkscape"
   xmlns:sodipodi="http://sodipodi.sourceforge.net/DTD/sodipodi-0.dtd"
   xmlns="http://www.w3.org/2000/svg"
   xmlns:svg="http://www.w3.org/2000/svg"><sodipodi:namedview
     id="namedview3"
     pagecolor="#505050"
     bordercolor="#eeeeee"
     borderopacity="1"
     inkscape:showpageshadow="0"
     inkscape:pageopacity="0"
     inkscape:pagecheckerboard="0"
     inkscape:deskcolor="#505050"
     inkscape:zoom="10.6875"
     inkscape:cx="32"
     inkscape:cy="41.263158"
     inkscape:window-width="1920"
     inkscape:window-height="939"
     inkscape:window-x="0"
     inkscape:window-y="34"
     inkscape:window-maximized="1"
     inkscape:current-layer="_图层_1"
     showguides="true"><sodipodi:guide
       position="7.6134526,83.439664"
       orientation="1,0"
       id="guide7"
       inkscape:locked="false" /><sodipodi:guide
       position="120.24109,71.856006"
       orientation="1,0"
       id="guide8"
       inkscape:locked="false" /></sodipodi:namedview><!-- Generator: Adobe Illustrator 29.0.1, SVG Export Plug-In . SVG Version: 2.1.0 Build 192)  --><defs
     id="defs1"><style
       id="style1">
      .st0 {
        fill: #0071e9;
      }

      .st1 {
        fill: #fff;
      }

      .st2 {
        fill: #5aaaff;
        isolation: isolate;
        opacity: .5;
      }
    </style><style
       id="style1-6">
      .st0 {
        fill: #0071e9;
      }

      .st1 {
        fill: #fff;
      }

      .st2 {
        fill: #5aaaff;
        isolation: isolate;
        opacity: .5;
      }
    </style><style
       id="style1-8">
      .st0 {
        fill: #0071e9;
      }

      .st1 {
        fill: #fff;
      }

      .st2 {
        fill: #5aaaff;
        isolation: isolate;
        opacity: .5;
      }
    </style><style
       id="style1-0">
      .st0 {
        fill: #0071e9;
      }

      .st1 {
        fill: #fff;
      }

      .st2 {
        fill: #5aaaff;
        isolation: isolate;
        opacity: .5;
      }
    </style></defs><path
     class="st0"
     d="M18.2,0c-5.6,0-10.2,4.6-10.2,10.2v107.6c0,5.6,4.6,10.2,10.2,10.2h91.6c5.6,0,10.2-4.6,10.2-10.2V40.6L82.2,0H18.2Z"
     id="path1"
     style="fill:#4f4f4f;fill-opacity:1" /><path
     class="st2"
     d="m 82.761404,2.619883 v 29.2 c 0,3.2 2.145542,11.6 11.89801,11.6 h 24.966316 z"
     id="path2"
     style="fill:#3f3f3f;fill-opacity:1;stroke-width:0.987546" /><path
     class="st2"
     d="M 82.116964,0.02339171 V 29.223392 c 0,3.2 2.2,11.6 12.2,11.6 h 25.599996 z"
     id="path2-3"
     style="opacity:1;isolation:isolate;fill:#696969;fill-opacity:1" /><g
     id="g12"
     transform="matrix(2.5571505,0,0,2.2987586,-18.109517,-9.4815841)"><path
       style="opacity:0.2"
       d="M 31.999999,29 C 28.884839,29 26.4673,29.812479 24.582031,31.041016 29.98893,31.474994 30.005859,38 30.005859,38 c 0,0 -0.995958,7 -6.978516,7 C 20.26851,45 19.060316,42.561324 18.509765,40.373047 18.127483,41.916722 18.041015,43 18.041015,43 c 0,0 0.996775,12 13.958984,12 13.959303,0 13.958985,-12 13.958985,-12 0,0 -4e-4,-0.893836 -0.22461,-2.226562 C 45.298945,41.92569 44.280897,43 41.970703,43 c -3.988375,0 -4.984376,-5 -4.984376,-5 0,0 -9e-5,-6 3.988282,-6 0.06178,0 0.113573,0.01185 0.173828,0.01367 C 39.09721,30.257054 36.176635,29 31.999999,29 Z m -7.958984,3 c -3.333333,0 -5,5.142578 -5,5.142578 0,0 -6.51e-4,6.857422 4.166016,6.857422 5,0 5.833984,-6 5.833984,-6 0,0 0,-6 -5,-6 z m 17.083984,1 c -3.083146,0 -3.083984,4.908203 -3.083984,4.908203 0,0 0.770369,4.091797 3.853516,4.091797 3.853933,0 3.083984,-4.091797 3.083984,-4.091797 0,0 4.17e-4,-4.908203 -3.853516,-4.908203 z m -18.597656,3 a 1.4956396,1.5 0 0 1 1.496094,1.5 1.4956396,1.5 0 0 1 -1.496094,1.5 1.4956396,1.5 0 0 1 -1.49414,-1.5 1.4956396,1.5 0 0 1 1.49414,-1.5 z m 20.039063,0 a 1.4956396,1.5 0 0 1 1.496093,1.5 1.4956396,1.5 0 0 1 -1.496093,1.5 1.4956396,1.5 0 0 1 -1.496094,-1.5 1.4956396,1.5 0 0 1 1.496094,-1.5 z"
       id="path6" /><path
       style="fill:#ffffff"
       d="M 31.999999,28 C 28.884839,28 26.4673,28.812479 24.582031,30.041016 29.98893,30.474994 30.005859,37 30.005859,37 c 0,0 -0.995958,7 -6.978516,7 C 20.26851,44 19.060316,41.561324 18.509765,39.373047 18.127483,40.916722 18.041015,42 18.041015,42 c 0,0 0.996775,12 13.958984,12 13.959303,0 13.958985,-12 13.958985,-12 0,0 -4e-4,-0.893836 -0.22461,-2.226562 C 45.298945,40.92569 44.280897,42 41.970703,42 c -3.988375,0 -4.984376,-5 -4.984376,-5 0,0 -9e-5,-6 3.988282,-6 0.06178,0 0.113573,0.01185 0.173828,0.01367 C 39.09721,29.257054 36.176635,28 31.999999,28 Z m -7.958984,3 c -3.333333,0 -5,5.142578 -5,5.142578 0,0 -6.51e-4,6.857422 4.166016,6.857422 5,0 5.833984,-6 5.833984,-6 0,0 0,-6 -5,-6 z m 17.083984,1 c -3.083146,0 -3.083984,4.908203 -3.083984,4.908203 0,0 0.770369,4.091797 3.853516,4.091797 3.853933,0 3.083984,-4.091797 3.083984,-4.091797 0,0 4.17e-4,-4.908203 -3.853516,-4.908203 z m -18.597656,3 a 1.4956396,1.5 0 0 1 1.496094,1.5 1.4956396,1.5 0 0 1 -1.496094,1.5 1.4956396,1.5 0 0 1 -1.49414,-1.5 1.4956396,1.5 0 0 1 1.49414,-1.5 z m 20.039063,0 a 1.4956396,1.5 0 0 1 1.496093,1.5 1.4956396,1.5 0 0 1 -1.496093,1.5 1.4956396,1.5 0 0 1 -1.496094,-1.5 1.4956396,1.5 0 0 1 1.496094,-1.5 z"
       id="path7" /></g></svg>
