<?xml version="1.0" encoding="UTF-8"?>
<svg xmlns="http://www.w3.org/2000/svg" version="1.1" xmlns:inkscape="http://www.inkscape.org/namespaces/inkscape" xmlns:sodipodi="http://sodipodi.sourceforge.net/DTD/sodipodi-0.dtd" xmlns:svg="http://www.w3.org/2000/svg" viewBox="0 0 64 64" width="22" height="22">
  <!-- Generator: Adobe Illustrator 29.0.1, SVG Export Plug-In . SVG Version: 2.1.0 Build 192)  -->
  <defs>
    <style>
      .st0 {
        fill: #fff;
      }

      .st1 {
        fill: #0780da;
      }

      .st2 {
        isolation: isolate;
        opacity: .2;
      }

      .st3 {
        fill: #eaeaea;
      }
    </style>
  </defs>
  <g id="_图层_1" inkscape:version="1.4 (e7c3feb100, 2024-10-09)" sodipodi:docname="application-vnd.oasis.opendocument.database.svg">
    <path id="path1" class="st0" d="M9.1,0c-2.8,0-5.1,2.3-5.1,5.1v53.8c0,2.8,2.3,5.1,5.1,5.1h45.8c2.8,0,5.1-2.3,5.1-5.1V20.3L41.1,0H9.1Z"/>
    <path id="path2" class="st2" d="M41.4,1.3v14.6c0,1.6,1.1,5.8,5.9,5.8h12.5L41.4,1.3Z"/>
    <path id="path2-3" class="st3" d="M41.1,0v14.6c0,1.6,1.1,5.8,6.1,5.8h12.8L41.1,0Z"/>
    <path id="path11" data-name="path1" class="st1" d="M47.4,34.6v-5.9c0-2.2-1.9-3.9-4.2-3.9h-6.3c0-3.2-2.8-5.9-6.3-5.9s-6.3,2.6-6.3,5.9h-6.3c-2.3,0-4.2,1.8-4.2,3.9v7.9h2.1c2.3,0,4.2,1.8,4.2,3.9,0,2.2-1.9,3.9-4.2,3.9h-2.1v7.9c0,2.2,1.9,3.9,4.2,3.9h8.4v-2c0-2.2,1.9-3.9,4.2-3.9,2.3,0,4.2,1.8,4.2,3.9v2h8.4c2.3,0,4.2-1.8,4.2-3.9v-5.9c3.5,0,6.3-2.6,6.3-5.9s-2.8-5.9-6.3-5.9Z"/>
  </g>
</svg>