<?xml version="1.0" standalone="no"?><!DOCTYPE svg PUBLIC "-//W3C//DTD SVG 1.1//EN" "http://www.w3.org/Graphics/SVG/1.1/DTD/svg11.dtd"><svg t="1734904171242" class="icon" viewBox="0 0 1024 1024" version="1.1" xmlns="http://www.w3.org/2000/svg" p-id="51464" xmlns:xlink="http://www.w3.org/1999/xlink" width="22" height="22"><path d="M0 0h1024v1024H0z" fill="#FFFFFF" fill-opacity="0" p-id="51465"></path><path d="M145.28 0C100.48 0 64 36.48 64 81.28v860.8c0 44.8 36.48 81.92 81.28 81.92h732.8c44.8 0 81.92-37.12 81.92-81.92V324.48L657.28 0h-512z" fill="#18C98A" p-id="51466"></path><path d="M373.76 646.4c2.56 0 4.48 0 7.04 1.28 2.56 1.92 11.52 13.44 12.16 16 3.2 19.84 8.96 36.48 17.28 49.28 8.96 13.44 23.68 24.96 43.52 33.92 19.84 8.96 42.88 13.44 68.48 13.44 23.04 0 42.88-3.2 60.16-10.24 16-6.4 28.16-15.36 35.84-26.24a61.44 61.44 0 0 0 10.24-21.76c0.64-4.48 1.28-8.96 1.28-13.44a55.232 55.232 0 0 0-10.88-32.64c-7.04-9.6-19.84-17.92-37.76-24.96-12.8-4.48-40.96-12.8-84.48-23.04-45.44-11.52-78.08-22.4-96.64-32.64-24.96-13.44-43.52-30.08-56.32-50.56a135.04 135.04 0 0 1-10.24-21.76 126.08 126.08 0 0 1-8.32-46.72c0-11.52 1.28-22.4 3.84-33.28 3.84-15.36 10.24-29.44 19.2-43.52 3.2-5.76 7.04-10.24 10.88-15.36 14.08-16.64 32.64-29.44 55.04-39.04 28.16-12.16 59.52-17.92 94.08-17.92 37.12 0 70.4 5.76 99.2 18.56 21.76 9.6 40.32 21.76 54.4 37.76 5.76 6.4 10.24 12.8 14.72 19.2 4.48 7.04 8.32 14.72 12.16 22.4 7.04 17.28 11.52 36.48 13.44 56.32 0 3.2-3.84 10.88-5.12 12.8-1.92 2.56-3.84 4.48-6.4 5.12-1.92 1.28-4.48 1.92-7.04 1.92l-49.28 3.2c-2.56 0-10.24-3.2-12.8-3.84-2.56-1.92-5.76-10.88-7.04-13.44-3.2-22.4-15.36-42.88-28.16-55.68-16.64-13.44-41.6-20.48-76.16-20.48-35.2 0-60.8 6.4-76.16 18.56-10.24 8.32-16.64 17.28-19.84 27.52-1.28 5.12-1.92 10.24-1.92 15.36 0 8.32 1.28 15.36 5.12 22.4 1.92 4.48 5.12 8.32 9.6 12.16 10.24 9.6 40.96 20.48 90.24 32 53.12 12.16 89.6 23.04 109.44 32.64 30.72 14.08 53.12 32.64 67.84 54.4 3.84 6.4 7.04 12.16 10.24 18.56a148.992 148.992 0 0 1 8.96 89.6c-3.84 17.28-10.88 34.56-21.12 50.56-3.84 5.76-7.68 10.88-11.52 16-14.72 17.92-33.92 32-56.96 42.88-29.44 14.08-62.08 21.12-98.56 21.12-45.44 0-83.84-7.04-115.2-21.12-18.56-8.32-35.2-19.2-49.28-32.64-9.6-8.96-17.92-19.84-25.6-31.36-5.12-8.32-10.24-17.28-14.08-26.24-8.32-19.2-12.8-40.96-14.08-64 0-2.56 3.84-10.24 4.48-12.8a44.8 44.8 0 0 1 6.4-5.12c2.56-0.64 4.48-1.28 7.04-1.28l48.64-3.84z" fill="#FFFFFF" p-id="51467"></path><path d="M657.28 0v233.6c0 25.6 17.28 92.8 97.28 92.8h204.8L657.28 0z" fill="#4AFFBF" p-id="51468"></path></svg>
