<?xml version="1.0" encoding="UTF-8" standalone="no"?>
<svg
   id="_图层_1"
   data-name="图层_1"
   version="1.1"
   viewBox="0 0 128 128"
   width="22"
   height="22"
   sodipodi:docname="inode-socket.svg"
   xml:space="preserve"
   inkscape:version="1.4 (e7c3feb100, 2024-10-09)"
   xmlns:inkscape="http://www.inkscape.org/namespaces/inkscape"
   xmlns:sodipodi="http://sodipodi.sourceforge.net/DTD/sodipodi-0.dtd"
   xmlns="http://www.w3.org/2000/svg"
   xmlns:svg="http://www.w3.org/2000/svg"><sodipodi:namedview
     id="namedview3"
     pagecolor="#505050"
     bordercolor="#eeeeee"
     borderopacity="1"
     inkscape:showpageshadow="0"
     inkscape:pageopacity="0"
     inkscape:pagecheckerboard="0"
     inkscape:deskcolor="#505050"
     inkscape:zoom="10.6875"
     inkscape:cx="32"
     inkscape:cy="26.292398"
     inkscape:window-width="1920"
     inkscape:window-height="939"
     inkscape:window-x="0"
     inkscape:window-y="34"
     inkscape:window-maximized="1"
     inkscape:current-layer="_图层_1"
     showguides="true"><sodipodi:guide
       position="7.6134526,83.439664"
       orientation="1,0"
       id="guide7"
       inkscape:locked="false" /><sodipodi:guide
       position="120.24109,71.856006"
       orientation="1,0"
       id="guide8"
       inkscape:locked="false" /></sodipodi:namedview><!-- Generator: Adobe Illustrator 29.0.1, SVG Export Plug-In . SVG Version: 2.1.0 Build 192)  --><defs
     id="defs1"><style
       id="style1">
      .st0 {
        fill: #0071e9;
      }

      .st1 {
        fill: #fff;
      }

      .st2 {
        fill: #5aaaff;
        isolation: isolate;
        opacity: .5;
      }
    </style></defs><path
     class="st0"
     d="M18.2,0c-5.6,0-10.2,4.6-10.2,10.2v107.6c0,5.6,4.6,10.2,10.2,10.2h91.6c5.6,0,10.2-4.6,10.2-10.2V40.6L82.2,0H18.2Z"
     id="path1"
     style="fill:#1fa872;fill-opacity:1" /><path
     class="st2"
     d="m 82.761404,2.619883 v 29.2 c 0,3.2 2.145542,11.6 11.89801,11.6 h 24.966316 z"
     id="path2"
     style="fill:#19865b;fill-opacity:1;stroke-width:0.987546" /><path
     class="st2"
     d="M 82.116964,0.02339171 V 29.223392 c 0,3.2 2.2,11.6 12.2,11.6 h 25.599996 z"
     id="path2-3"
     style="opacity:1;isolation:isolate;fill:#49d19c;fill-opacity:1" /><g
     id="g8"
     transform="matrix(2.4948668,0,0,2.2387578,-17.176738,-6.5408348)"><path
       style="opacity:0.2"
       d="m 46.550781,24.999772 a 1.4076606,1.4076606 0 0 0 -0.966797,0.425781 L 37.423828,33.58571 A 8.4999996,8.4999996 0 0 0 32.5,31.999772 8.4999996,8.4999996 0 0 0 27.019531,34.01735 L 38.990234,45.990006 A 8.4999996,8.4999996 0 0 0 41,40.499772 8.4999996,8.4999996 0 0 0 39.417969,35.572038 l 8.15625,-8.15625 A 1.4076606,1.4076606 0 0 0 46.550781,24.999772 Z M 26.009766,35.009538 A 8.4999996,8.4999996 0 0 0 24,40.499772 a 8.4999996,8.4999996 0 0 0 1.582031,4.927734 l -8.148437,8.148438 a 1.4076606,1.4076606 0 1 0 1.990234,1.990234 l 8.150391,-8.152344 A 8.4999996,8.4999996 0 0 0 32.5,48.999772 8.4999996,8.4999996 0 0 0 37.980469,46.982194 Z"
       id="path5" /><path
       style="fill:#ffffff"
       d="m 32.5,31 a 8.4999996,8.4999996 0 0 0 -5.481283,2.01709 L 38.991209,44.989583 A 8.4999996,8.4999996 0 0 0 40.999999,39.5 8.4999996,8.4999996 0 0 0 32.5,31 Z m -6.49121,3.010417 A 8.4999996,8.4999996 0 0 0 24,39.5 8.4999996,8.4999996 0 0 0 32.5,48 8.4999996,8.4999996 0 0 0 37.981282,45.98291 Z"
       id="path6" /><path
       style="fill:#ffffff"
       d="m 46.550849,24 a 1.4076606,1.4076606 0 0 0 -0.96767,0.426106 L 32.725814,37.283469 c 1.496654,-0.09626 1.882997,0.814427 2.105782,1.874862 L 47.573499,26.416426 A 1.4076606,1.4076606 0 0 0 46.550849,24 Z m -16.01054,15.468975 -13.107528,13.10753 a 1.4076606,1.4076606 0 1 0 1.990319,1.99032 L 32.508637,41.481288 c -0.982109,-0.179259 -1.872024,-0.498237 -1.968328,-2.012313 z"
       id="path7" /></g></svg>
