<?xml version="1.0" encoding="UTF-8" standalone="no"?>
<svg
   id="_图层_1"
   data-name="图层_1"
   version="1.1"
   viewBox="0 0 128 128"
   width="22"
   height="22"
   sodipodi:docname="text-x-makefile.svg"
   xml:space="preserve"
   inkscape:version="1.4 (e7c3feb100, 2024-10-09)"
   xmlns:inkscape="http://www.inkscape.org/namespaces/inkscape"
   xmlns:sodipodi="http://sodipodi.sourceforge.net/DTD/sodipodi-0.dtd"
   xmlns="http://www.w3.org/2000/svg"
   xmlns:svg="http://www.w3.org/2000/svg"><sodipodi:namedview
     id="namedview3"
     pagecolor="#505050"
     bordercolor="#eeeeee"
     borderopacity="1"
     inkscape:showpageshadow="0"
     inkscape:pageopacity="0"
     inkscape:pagecheckerboard="0"
     inkscape:deskcolor="#505050"
     inkscape:zoom="10.6875"
     inkscape:cx="32"
     inkscape:cy="26.19883"
     inkscape:window-width="1920"
     inkscape:window-height="939"
     inkscape:window-x="0"
     inkscape:window-y="34"
     inkscape:window-maximized="1"
     inkscape:current-layer="_图层_1"
     showguides="true"><sodipodi:guide
       position="7.6134526,83.439664"
       orientation="1,0"
       id="guide7"
       inkscape:locked="false" /><sodipodi:guide
       position="120.24109,71.856006"
       orientation="1,0"
       id="guide8"
       inkscape:locked="false" /></sodipodi:namedview><!-- Generator: Adobe Illustrator 29.0.1, SVG Export Plug-In . SVG Version: 2.1.0 Build 192)  --><defs
     id="defs1"><style
       id="style1">
      .st0 {
        fill: #0071e9;
      }

      .st1 {
        fill: #fff;
      }

      .st2 {
        fill: #5aaaff;
        isolation: isolate;
        opacity: .5;
      }
    </style></defs><path
     class="st0"
     d="M18.2,0c-5.6,0-10.2,4.6-10.2,10.2v107.6c0,5.6,4.6,10.2,10.2,10.2h91.6c5.6,0,10.2-4.6,10.2-10.2V40.6L82.2,0H18.2Z"
     id="path1"
     style="fill:#e4e4e4;fill-opacity:1" /><path
     class="st2"
     d="m 82.761404,2.619883 v 29.2 c 0,3.2 2.145542,11.6 11.89801,11.6 h 24.966316 z"
     id="path2"
     style="fill:#b6b6b6;fill-opacity:1;stroke-width:0.987546" /><path
     class="st2"
     d="M 82.116964,0.02339171 V 29.223392 c 0,3.2 2.2,11.6 12.2,11.6 h 25.599996 z"
     id="path2-3"
     style="opacity:1;isolation:isolate;fill:#fafafa;fill-opacity:1" /><g
     id="g8"
     transform="matrix(2.5528974,0,0,2.2823433,-17.692717,-9.0767415)"><path
       style="fill:#8d6e63"
       d="m 28.724609,28 -0.291015,3.421875 a 10.305822,10.215091 0 0 0 -3.009766,1.724609 l -3.140625,-1.464843 -3.28125,5.628906 2.853516,1.964844 a 10.305822,10.215091 0 0 0 -0.158203,1.722656 10.305822,10.215091 0 0 0 0.15039,1.730469 L 19,44.683594 l 3.279297,5.630859 3.132812,-1.460937 a 10.305822,10.215091 0 0 0 3.019532,1.714843 L 28.71875,54 h 6.560547 l 0.289062,-3.425781 a 10.305822,10.215091 0 0 0 3.011719,-1.726563 L 41.71875,50.314453 45,44.683594 42.146484,42.722656 A 10.305822,10.215091 0 0 0 42.306641,40.998047 10.305822,10.215091 0 0 0 42.15625,39.269531 L 45,37.316406 41.720703,31.6875 38.587891,33.148438 A 10.305822,10.215091 0 0 0 35.568359,31.431641 L 35.28125,28 Z M 32,36 a 5.0000005,5.0000005 0 0 1 5,5 5.0000005,5.0000005 0 0 1 -5,5 5.0000005,5.0000005 0 0 1 -5,-5 5.0000005,5.0000005 0 0 1 5,-5 z"
       id="path6" /></g></svg>
