<?xml version="1.0" encoding="UTF-8" standalone="no"?>
<svg
   id="_图层_1"
   data-name="图层_1"
   version="1.1"
   viewBox="0 0 128 128"
   width="22"
   height="22"
   sodipodi:docname="text-rdf.svg"
   xml:space="preserve"
   inkscape:version="1.4 (e7c3feb100, 2024-10-09)"
   xmlns:inkscape="http://www.inkscape.org/namespaces/inkscape"
   xmlns:sodipodi="http://sodipodi.sourceforge.net/DTD/sodipodi-0.dtd"
   xmlns="http://www.w3.org/2000/svg"
   xmlns:svg="http://www.w3.org/2000/svg"><sodipodi:namedview
     id="namedview3"
     pagecolor="#505050"
     bordercolor="#eeeeee"
     borderopacity="1"
     inkscape:showpageshadow="0"
     inkscape:pageopacity="0"
     inkscape:pagecheckerboard="0"
     inkscape:deskcolor="#505050"
     inkscape:zoom="10.6875"
     inkscape:cx="32"
     inkscape:cy="18.71345"
     inkscape:window-width="1920"
     inkscape:window-height="939"
     inkscape:window-x="0"
     inkscape:window-y="34"
     inkscape:window-maximized="1"
     inkscape:current-layer="_图层_1"
     showguides="true"><sodipodi:guide
       position="7.6134526,83.439664"
       orientation="1,0"
       id="guide7"
       inkscape:locked="false" /><sodipodi:guide
       position="120.24109,71.856006"
       orientation="1,0"
       id="guide8"
       inkscape:locked="false" /></sodipodi:namedview><!-- Generator: Adobe Illustrator 29.0.1, SVG Export Plug-In . SVG Version: 2.1.0 Build 192)  --><defs
     id="defs1"><style
       id="style1">
      .st0 {
        fill: #0071e9;
      }

      .st1 {
        fill: #fff;
      }

      .st2 {
        fill: #5aaaff;
        isolation: isolate;
        opacity: .5;
      }
    </style></defs><path
     class="st0"
     d="M18.2,0c-5.6,0-10.2,4.6-10.2,10.2v107.6c0,5.6,4.6,10.2,10.2,10.2h91.6c5.6,0,10.2-4.6,10.2-10.2V40.6L82.2,0H18.2Z"
     id="path1"
     style="fill:#e4e4e4;fill-opacity:1" /><path
     class="st2"
     d="m 82.761404,2.619883 v 29.2 c 0,3.2 2.145542,11.6 11.89801,11.6 h 24.966316 z"
     id="path2"
     style="fill:#b6b6b6;fill-opacity:1;stroke-width:0.987546" /><path
     class="st2"
     d="M 82.116964,0.02339171 V 29.223392 c 0,3.2 2.2,11.6 12.2,11.6 h 25.599996 z"
     id="path2-3"
     style="opacity:1;isolation:isolate;fill:#fafafa;fill-opacity:1" /><g
     id="g8"
     transform="matrix(2.5486443,0,0,2.2954755,-17.650186,-9.316405)"><path
       style="fill:#0c49a0"
       d="m 36.077736,28.604 c 0,0 -2.211334,3.836604 -3.773844,5.366554 -0.960228,0.940228 -2.119798,1.700574 -3.346674,2.249034 -2.586528,1.156278 -8.23797,2.096268 -8.23797,2.096268 l 1.45126,1.983106 -1.612508,4.399052 c 0,0 5.072184,0.640636 7.51375,1.357908 1.233702,0.36243 2.496484,0.756478 3.56167,1.476724 1.831192,1.23819 4.636686,4.741354 4.636686,4.741354 l 1.114616,-2.232056 3.94359,-0.248952 c 0,0 -1.457186,-4.896862 -1.785086,-7.42039 -0.16568,-1.275118 -0.317386,-2.59356 -0.0877,-3.858716 0.394882,-2.174964 2.469694,-6.153012 2.469694,-6.153012 l -3.802136,-0.18672 z m -1.179684,6.696176 c 0.202116,0.0209 0.332274,0.06426 0.393234,0.0905 0.15688,0.11976 0.318844,0.231924 0.489406,0.333814 0.32448,0.19336 0.65725,0.346334 0.995798,0.458304 0.396438,0.423782 1.12655,1.626554 1.202316,4.789444 0.07746,3.187064 -0.756044,4.414428 -1.210806,4.848854 -0.468686,0.238296 -0.907758,0.556066 -1.301316,0.942048 -0.432206,0.17162 -1.664444,0.362238 -4.263268,-1.202308 -2.814346,-1.696118 -3.231878,-3.113726 -3.292916,-3.539046 0.04002,-0.516008 0.0138,-1.031156 -0.06506,-1.533304 l 0.0174,0.0311 c 0,0 -0.23004,-1.37906 2.990222,-3.623916 2.161714,-1.505946 3.43897,-1.65799 4.045428,-1.595534 z"
       id="path6" /><path
       style="opacity:0.1"
       d="m 39,28 a 5,5 0 0 0 -5,5 5,5 0 0 0 5,5 5,5 0 0 0 5,-5 5,5 0 0 0 -5,-5 z M 23,38 a 5,5 0 0 0 -5,5 5,5 0 0 0 5,5 5,5 0 0 0 5,-5 5,5 0 0 0 -5,-5 z m 16,8 a 5,5 0 0 0 -5,5 5,5 0 0 0 5,5 5,5 0 0 0 5,-5 5,5 0 0 0 -5,-5 z"
       id="path7" /><circle
       style="fill:#246dd4"
       cx="23"
       cy="42"
       r="5"
       id="circle7" /><circle
       style="fill:#246dd4"
       cx="39"
       cy="32"
       r="5"
       id="circle8" /><circle
       style="fill:#246dd4"
       cx="39"
       cy="50"
       r="5"
       id="circle9" /></g></svg>
