<?xml version="1.0" encoding="UTF-8"?>
<svg id="_图层_1" data-name="图层_1" xmlns="http://www.w3.org/2000/svg" version="1.1" viewBox="0 0 200 200" width="22" height="22">
  <!-- Generator: Adobe Illustrator 29.0.1, SVG Export Plug-In . SVG Version: 2.1.0 Build 192)  -->
  <defs>
    <style>
      .st0 {
        display: none;
        fill: #dfdfdf;
      }

      .st1 {
        fill: #dfdfdf;
      }
    </style>
  </defs>
  <path class="st0" d="M173.5,0c8.7,0,15.8,6.9,15.9,15.4v11.4c6,2.2,10.2,7.9,10.3,14.5v44.1c0,8.6-7,15.6-15.6,15.7h-13.5v32.7s0,27.6,0,27.6v23.8s0,2.5,0,2.5v2.5s0,1.3,0,1.3v.3s0,.2,0,.2h0c0,.5,0,1-.2,1.5v.3c0,0-.1.2-.1.2h0c0,.1,0,.2,0,.2v.2c0,0-.2.2-.2.2l-.2.4v.3c-.1,0-.3.3-.3.3v.2c0,0-.2,0-.2,0h0c0,0,0,.2,0,.2h0c0,0,0,.2,0,.2h-.1c0,.1-.1.3-.1.3h-.1c0,.1-.2.4-.2.4l-.6.7-.5.4-.2.2h-.2c0,.1-.2.3-.2.3h-.1c0,.1,0,.2,0,.2h0c0,0,0,.1,0,.1h0c0,0,0,.1,0,.1h0s0,0,0,0h0s0,0,0,0h0s0,0,0,0h0s0,0,0,0h0c0,0,0,0,0,0h-.1s0,0,0,0h-.1s-.1,0-.1,0h-.1s-.1,0-.1,0h-.1s-.1,0-.1,0h-.1s-.2,0-.2,0h-.1s-.2,0-.2,0h-.2s-.2,0-.2,0h-.2s-.2,0-.2,0h-.3s-.3,0-.3,0h-.9c0,.1-.9.2-.9.2-4.5-.4-7.8-4.3-7.6-8.8h0c0,0,0-.8,0-.8v-3.4s0-3.5,0-3.5v-6.9s0-36.4,0-36.4v-22.1s0-16.8,0-16.8h-12.7c-8.6,0-15.7-6.8-15.9-15.4v-44.1c0-6.7,4.3-12.5,10.3-14.7v-11.2c0-8.6,7-15.6,15.6-15.7h.3s22.2,0,22.2,0ZM117.3,13c4.7,0,8.4,3.7,8.4,8.3s-3.7,8.2-8.3,8.3H16.9v113.2h118.9c4.6,0,8.3,3.6,8.4,8.2h0c0,4.7-3.7,8.4-8.3,8.4h-33.5v22.2h31.2c4.7,0,8.4,3.7,8.4,8.3s-3.7,8.2-8.3,8.3H54.3c-4.6,0-8.4-3.7-8.4-8.3,0,0,0,0,0,0,0-4.6,3.7-8.2,8.3-8.3h31.3v-22.2H16c-8.6,0-15.7-6.8-15.9-15.4V28.7C0,20.1,7,13.1,15.7,13h101.6ZM158.6,184.2h0c-.4.2-.8.4-1.2.7h-.1c0,0,0,0,0,0,.4-.3.8-.5,1.2-.7h0ZM182.9,42.6h-40.9v42h40.9v-42h0ZM172.6,16.7h-20.3v9.2h20.3v-9.2h0Z"/>
  <path class="st1" d="M155.9,178.7l15.7,15.4h0c0,.1,0,.3,0,.3l-.2.4v.3c-.1,0-.3.3-.3.3v.2c0,0-.1,0-.1,0h0c0,0,0,.2,0,.2h0c0,0,0,.2,0,.2h0c0,.1-.1.3-.1.3h0c0,.1-.2.4-.2.4l-.6.7-.5.4-.2.2h-.1c0,.1-.2.3-.2.3h-.1c0,.1,0,.2,0,.2h0c0,0,0,.1,0,.1h0c0,0,0,.1,0,.1h0s0,0,0,0c0,0,0,0,0,0h0s0,0,0,0h0c0,0,0,0,0,0h0s0,0,0,0c0,0,0,0,0,0h0s0,0,0,0h-.1s-.1,0-.1,0h-.1s-.1,0-.1,0h-.1s-.1,0-.1,0h-.1s-.1,0-.1,0h-.1s-.1,0-.1,0h-.1s-.2,0-.2,0h-.2s-.2,0-.2,0h-.3s-.3,0-.3,0h-.9c0,.1-.9.2-.9.2-4.4-.4-7.6-4.4-7.3-8.8h0c0,0,0-.8,0-.8v-3.4s0-3.5,0-3.5v-4.7s0,0,0,0ZM8.2,33.8l16.2,15.9v93.1h94.9s16.9,16.6,16.9,16.6h-29.8v22.2h30c4.5,0,8.1,3.7,8.1,8.3s-3.5,8.2-8,8.3h-.1s-76.2,0-76.2,0c-4.5,0-8.1-3.7-8.1-8.3s3.5-8.2,8-8.3h.1s30,0,30,0v-22.2H23.4c-8.4,0-15.1-6.9-15.3-15.4v-.3s0-109.9,0-109.9ZM13.6,8.5h0c0,0,177.9,174.7,177.9,174.7,3.2,3.2,3.3,8.4.3,11.8-3.1,3.3-8.1,3.4-11.3.4h0c0,0-177.9-174.7-177.9-174.7-3.2-3.2-3.3-8.4-.3-11.8,3.1-3.3,8.1-3.4,11.3-.4ZM160.5,184.2h0c-.4.2-.8.4-1.2.7h-.1c0,0,0,0,0,0,.4-.3.8-.5,1.2-.7h0s0,0,0,0ZM174.8,0c8.4,0,15.1,6.9,15.3,15.4v.3s0,11.2,0,11.2c5.7,2.2,9.8,7.9,9.9,14.5v.2s0,43.9,0,43.9c0,8.6-6.7,15.6-15,15.7h-.3s-12.7,0-12.7,0v32.7s0,22.4,0,22.4l-16.2-15.9v-.3s0-22.1,0-22.1v-16.8h-12.2c-8.4,0-15.1-6.9-15.3-15.4v-.3s0-43.9,0-43.9c0-6.7,4.1-12.5,9.9-14.7h0v-11.2c0-8.6,6.7-15.6,15-15.7h.3s21.3,0,21.3,0h0ZM183.8,42.5h-39.3v42h19.3s0,0,0,0h.1s19.8,0,19.8,0v-42h0ZM120.8,13c4.5,0,8.1,3.7,8.1,8.3s-3.5,8.2-8,8.3h-.1s-77.8,0-77.8,0L26,13h94.8ZM173.9,16.7h-19.5v9.2h19.5v-9.2h0Z"/>
</svg>
