<?xml version="1.0" encoding="UTF-8"?>
<svg id="_图层_1" data-name="图层_1" xmlns="http://www.w3.org/2000/svg" version="1.1" viewBox="0 0 64 64" width="32" height="32">
  <!-- Generator: Adobe Illustrator 29.0.1, SVG Export Plug-In . SVG Version: 2.1.0 Build 192)  -->
  <defs>
    <style>
      .st0 {
        fill: #85bcff;
      }

      .st1 {
        opacity: .2;
      }

      .st1, .st2 {
        isolation: isolate;
      }

      .st3 {
        display: none;
      }

      .st4 {
        fill: #5398df;
      }

      .st5 {
        fill: #e4e4e4;
      }

      .st6 {
        fill: #5398DD;
        opacity:0.8;
      }

      .st2 {
        fill: #fff;
        opacity: .1;
      }
    </style>
  </defs>
  <rect class="st1" x="4" y="22" width="56" height="36" rx="2.8" ry="2.8"/>
  <path class="st4" d="M4,46.2c0,1.6,1.2,2.8,2.8,2.8h50.4c1.6,0,2.8-1.2,2.8-2.8V15.8c0-1.6-1.2-2.8-2.8-2.8h-25.2c-4.2,0-5.6-6-9.8-6H6.8c-1.6,0-2.8,1.2-2.8,2.8"/>
  <rect class="st1" x="4" y="20" width="56" height="36" rx="2.8" ry="2.8"/>
  <rect class="st5" x="8" y="16" width="48" height="22" rx="2.8" ry="2.8"/>
  <rect class="st0" x="4" y="21" width="56" height="36" rx="2.8" ry="2.8"/>
  <path class="st2" d="M6.8,7c-1.6,0-2.8,1.2-2.8,2.8v1c0-1.6,1.2-2.8,2.8-2.8h15.4c4.2,0,5.6,6,9.8,6h25.2c1.6,0,2.8,1.2,2.8,2.8v-1c0-1.6-1.2-2.8-2.8-2.8h-25.2c-4.2,0-5.6-6-9.8-6H6.8Z"/>
  <g class="st3">
    <path class="st6" d="M28.1,35.2s4.9-5.2,11.5-7.7c0,0,.3-.1,0,.2s-1.4,2-1.6,2.3l-.9.8h.4c0-.1-.9,1.8-.9,1.8l-1.1,1.1.8-.2-.9,2.2-1,1,.9-.5s-.4.9-.9,1.6c0,0,4,.4,7.4,1.9,0,0-1.9.5-2.6.7l-.8-.2.4.2-.9.4c0,0-.7-.2-1,0,0,0,.4.1.4.2l-.9.4s-.2.1-.4.1-.9-.2-1.2,0c0,0,.5.2.7.2,0,0-.3.4-3,.5,0,0,2,5.4,2,6.1,0,.7-1.2-.9-1.2-.9,0,0-1.7-1.8-2.2-2.2-.5-.4-2-.6-5-2.5-3.1-1.9-3.1-4.3-2.9-5.5s.2-2-.6-2.2-2-.5-4.7-.6c0,0-.4-.3.3-.3.8,0,2.8,0,3.8-.1,1.2-.2,1.6-.6,2.6-.5.9.1,2.1.4,3.5,1.7h0Z"/>
  </g>
  <path class="st6" d="M36.6,35.7c.3,0,.6,0,.9,0-.8-3.8-4.7-6.6-9.3-6.6s-9.2,3.5-9.2,8,1.4,4.7,3.7,6.3l-.9,2.8,3.2-1.6c1.1.2,2.1.5,3.2.5s.6,0,.9,0c-.2-.6-.3-1.3-.3-2,0-4.1,3.4-7.4,7.8-7.4ZM31.6,33c.8,0,1.4.6,1.4,1.4s-.6,1.4-1.4,1.4-1.4-.6-1.4-1.4.6-1.4,1.4-1.4ZM25.2,35.9c-.8,0-1.4-.6-1.4-1.4s.6-1.4,1.4-1.4,1.4.6,1.4,1.4-.6,1.4-1.4,1.4ZM44.9,43.1c0-3.7-3.7-6.8-7.8-6.8s-7.8,3.1-7.8,6.8,3.4,6.8,7.8,6.8,1.8-.2,2.8-.5l2.5,1.4-.7-2.3c1.8-1.4,3.2-3.3,3.2-5.4ZM34.7,42c-.6,0-1-.5-1-1s.5-1,1-1,1,.5,1,1c0,.6-.5,1-1,1ZM39.8,42.1c-.6,0-1-.5-1-1s.5-1,1-1,1,.5,1,1c0,.6-.5,1-1,1Z"/>
</svg>
