<?xml version="1.0" encoding="UTF-8" standalone="no"?>
<svg
   id="_图层_1"
   data-name="图层_1"
   version="1.1"
   viewBox="0 0 128 128"
   width="32"
   height="32"
   sodipodi:docname="application-x-sega-pico-rom.svg"
   xml:space="preserve"
   inkscape:version="1.4 (e7c3feb100, 2024-10-09)"
   xmlns:inkscape="http://www.inkscape.org/namespaces/inkscape"
   xmlns:sodipodi="http://sodipodi.sourceforge.net/DTD/sodipodi-0.dtd"
   xmlns="http://www.w3.org/2000/svg"
   xmlns:svg="http://www.w3.org/2000/svg"><sodipodi:namedview
     id="namedview3"
     pagecolor="#505050"
     bordercolor="#eeeeee"
     borderopacity="1"
     inkscape:showpageshadow="0"
     inkscape:pageopacity="0"
     inkscape:pagecheckerboard="0"
     inkscape:deskcolor="#505050"
     inkscape:zoom="10.6875"
     inkscape:cx="32.093567"
     inkscape:cy="26.19883"
     inkscape:window-width="1920"
     inkscape:window-height="939"
     inkscape:window-x="0"
     inkscape:window-y="34"
     inkscape:window-maximized="1"
     inkscape:current-layer="_图层_1" /><!-- Generator: Adobe Illustrator 29.0.1, SVG Export Plug-In . SVG Version: 2.1.0 Build 192)  --><defs
     id="defs1"><style
       id="style1">
      .st0 {
        fill: #0071e9;
      }

      .st1 {
        fill: #fff;
      }

      .st2 {
        fill: #5aaaff;
        isolation: isolate;
        opacity: .5;
      }
    </style></defs><path
     class="st0"
     d="M18.2,0c-5.6,0-10.2,4.6-10.2,10.2v107.6c0,5.6,4.6,10.2,10.2,10.2h91.6c5.6,0,10.2-4.6,10.2-10.2V40.6L82.2,0H18.2Z"
     id="path1"
     style="fill:#6657ac;fill-opacity:1" /><path
     class="st2"
     d="m 82.761404,2.619883 v 29.2 c 0,3.2 2.145542,11.6 11.89801,11.6 h 24.966316 z"
     id="path2"
     style="fill:#52468a;fill-opacity:1;stroke-width:0.987546" /><path
     class="st2"
     d="M 82.116964,0.02339171 V 29.223392 c 0,3.2 2.2,11.6 12.2,11.6 h 25.599996 z"
     id="path2-3"
     style="opacity:1;isolation:isolate;fill:#877cbe;fill-opacity:1" /><g
     id="g1"
     transform="matrix(2.5571505,0,0,2.2823433,-17.735248,-9.1703088)"><path
       d="m 24.433594,28.585468 a 2.8179454,1.0793433 48.256471 0 0 -0.316406,0.125 2.8179454,1.0793433 48.256471 0 0 1.097656,2.833984 2.8179454,1.0793433 48.256471 0 0 2.669922,1.357422 2.8179454,1.0793433 48.256471 0 0 -1.095704,-2.835938 2.8179454,1.0793433 48.256471 0 0 -2.355468,-1.480468 z m 14.115234,0.392578 a 1.0298973,2.683244 45.540585 0 0 -2.251953,1.304687 1.0298973,2.683244 45.540585 0 0 -1.162109,2.601563 1.0298973,2.683244 45.540585 0 0 2.65039,-1.175782 1.0298973,2.683244 45.540585 0 0 1.16211,-2.601562 1.0298973,2.683244 45.540585 0 0 -0.398438,-0.128906 z m 7.603516,4.033203 a 1.032825,2.7620134 64.497803 0 0 -2.128906,0.595703 1.032825,2.7620134 64.497803 0 0 -2.003907,2.117187 1.032825,2.7620134 64.497803 0 0 2.966797,-0.289062 1.032825,2.7620134 64.497803 0 0 2.00586,-2.117188 1.032825,2.7620134 64.497803 0 0 -0.839844,-0.30664 z m -13.91211,1.054687 C 27.188971,34.143216 20.10668,37.785356 20,42.663592 c -0.120729,5.521004 8.074529,7.259439 12.859375,7.326172 4.059577,0.05661 8.604141,-2.180728 10.144531,-5.33789 0.334866,-0.686331 -0.102039,-2.084206 -0.148437,-2.84961 -0.0338,-0.55753 0.226884,-1.112411 0.169922,-1.667968 -0.406741,-3.966957 -6.995678,-6.126342 -10.785157,-6.06836 z m -16.230468,0.484375 a 2.8013428,1.0857401 31.888424 0 0 -0.728516,0.269531 2.8013428,1.0857401 31.888424 0 0 1.830078,2.40625 2.8013428,1.0857401 31.888424 0 0 2.9375,0.53711 2.8013428,1.0857401 31.888424 0 0 -1.830078,-2.40625 2.8013428,1.0857401 31.888424 0 0 -2.208984,-0.806641 z m 15.660156,4.427735 2.533203,0.05469 c 0,0 -0.333216,0.751744 -0.199219,1.097656 0.205938,0.531635 0.809172,0.884768 1.353516,1.017579 0.392294,0.09572 1.03724,0.176798 1.193359,-0.203126 0.125319,-0.304968 -0.616521,-0.489409 -0.55664,-0.814453 0.07075,-0.384041 0.592031,-0.779326 0.953125,-0.65039 1.159453,0.206124 3.459253,0.718916 3.427734,1.699219 -0.122647,3.814633 -4.814743,5.338995 -7.726562,5.283203 -2.933853,-0.05621 -7.476911,-1.206716 -7.347657,-3.708985 0.09671,-1.871911 2.330976,-3.57584 3.302735,-3.560547 0.722297,0.01148 0.108066,1.768247 1.376953,1.81836 0.649859,0.02566 1.889317,-0.0296 1.832031,-0.691407 -0.04628,-0.534728 -1.421028,0.234522 -1.552734,-0.285156 -0.163008,-0.643194 1.410156,-1.05664 1.410156,-1.05664 z m 15.707031,1.976562 A 2.7852995,1.0919936 4.0101176 0 0 45,41.868671 a 2.7852995,1.0919936 4.0101176 0 0 2.705078,1.283203 2.7852995,1.0919936 4.0101176 0 0 2.851563,-0.896485 2.7852995,1.0919936 4.0101176 0 0 -2.705079,-1.283203 2.7852995,1.0919936 4.0101176 0 0 -0.474609,-0.01758 z m -18.734375,2.078125 c -0.266824,-0.01084 -0.446879,0.04829 -0.482422,0.222656 -0.197448,0.968637 2.406002,1.576879 3.636719,1.667969 2.936809,0.217358 5.219071,0.163911 5.175781,-0.917969 -0.03141,-0.784824 -0.648784,-0.306322 -5.064453,-0.289062 -0.876143,0.0034 -2.465153,-0.651077 -3.265625,-0.683594 z m -13.201172,0.929688 a 1.092053,2.7851491 87.256532 0 0 -0.279297,0.0078 1.092053,2.7851491 87.256532 0 0 -2.732421,1.222656 1.092053,2.7851491 87.256532 0 0 2.832031,0.958985 1.092053,2.7851491 87.256532 0 0 2.732422,-1.222656 1.092053,2.7851491 87.256532 0 0 -2.552735,-0.966797 z m 28.365235,4.972656 a 2.8015024,1.0856783 32.060694 0 0 -0.730469,0.269531 2.8015024,1.0856783 32.060694 0 0 1.824219,2.41211 2.8015024,1.0856783 32.060694 0 0 2.935547,0.544921 2.8015024,1.0856783 32.060694 0 0 -1.824219,-2.410156 2.8015024,1.0856783 32.060694 0 0 -2.205078,-0.816406 z m -22.410157,1.115234 a 1.0834316,2.8073119 51.967371 0 0 -2.328125,1.060547 1.0834316,2.8073119 51.967371 0 0 -1.572265,2.589844 1.0834316,2.8073119 51.967371 0 0 2.865234,-0.851563 1.0834316,2.8073119 51.967371 0 0 1.570313,-2.591797 1.0834316,2.8073119 51.967371 0 0 -0.535157,-0.207031 z m 15.111328,0.957031 a 2.8376901,1.0718333 69.658308 0 0 -0.103515,0.02539 2.8376901,1.0718333 69.658308 0 0 -0.0059,3.046875 2.8376901,1.0718333 69.658308 0 0 1.990234,2.269531 2.8376901,1.0718333 69.658308 0 0 0.0059,-3.046875 2.8376901,1.0718333 69.658308 0 0 -1.886719,-2.294921 z m -7.011718,0.02344 a 1.0735521,2.8331464 26.155496 0 0 -2.029297,2.09375 1.0735521,2.8331464 26.155496 0 0 -0.302735,3.03125 1.0735521,2.8331464 26.155496 0 0 2.210938,-2.046875 1.0735521,2.8331464 26.155496 0 0 0.302734,-3.03125 1.0735521,2.8331464 26.155496 0 0 -0.18164,-0.04687 z"
       style="opacity:0.2"
       id="path6" /><path
       d="m 24.433594,27.585938 a 2.8179454,1.0793433 48.256471 0 0 -0.316406,0.125 2.8179454,1.0793433 48.256471 0 0 1.097656,2.833984 2.8179454,1.0793433 48.256471 0 0 2.669922,1.357422 2.8179454,1.0793433 48.256471 0 0 -1.095704,-2.835938 2.8179454,1.0793433 48.256471 0 0 -2.355468,-1.480468 z m 14.115234,0.392578 a 1.0298973,2.683244 45.540585 0 0 -2.251953,1.304687 1.0298973,2.683244 45.540585 0 0 -1.162109,2.601563 1.0298973,2.683244 45.540585 0 0 2.65039,-1.175782 1.0298973,2.683244 45.540585 0 0 1.16211,-2.601562 1.0298973,2.683244 45.540585 0 0 -0.398438,-0.128906 z m 7.603516,4.033203 a 1.032825,2.7620134 64.497803 0 0 -2.128906,0.595703 1.032825,2.7620134 64.497803 0 0 -2.003907,2.117187 1.032825,2.7620134 64.497803 0 0 2.966797,-0.289062 1.032825,2.7620134 64.497803 0 0 2.00586,-2.117188 1.032825,2.7620134 64.497803 0 0 -0.839844,-0.30664 z m -13.91211,1.054687 C 27.188971,33.143686 20.10668,36.785826 20,41.664062 c -0.120729,5.521004 8.074529,7.259439 12.859375,7.326172 4.059577,0.05661 8.604141,-2.180728 10.144531,-5.33789 0.334866,-0.686331 -0.102039,-2.084206 -0.148437,-2.84961 -0.0338,-0.55753 0.226884,-1.112411 0.169922,-1.667968 -0.406741,-3.966957 -6.995678,-6.126342 -10.785157,-6.06836 z m -16.230468,0.484375 a 2.8013428,1.0857401 31.888424 0 0 -0.728516,0.269531 2.8013428,1.0857401 31.888424 0 0 1.830078,2.40625 2.8013428,1.0857401 31.888424 0 0 2.9375,0.53711 2.8013428,1.0857401 31.888424 0 0 -1.830078,-2.40625 2.8013428,1.0857401 31.888424 0 0 -2.208984,-0.806641 z m 15.660156,4.427735 2.533203,0.05469 c 0,0 -0.333216,0.751744 -0.199219,1.097656 0.205938,0.531635 0.809172,0.884768 1.353516,1.017579 0.392294,0.09572 1.03724,0.176798 1.193359,-0.203126 0.125319,-0.304968 -0.616521,-0.489409 -0.55664,-0.814453 0.07075,-0.384041 0.592031,-0.779326 0.953125,-0.65039 1.159453,0.206124 3.459253,0.718916 3.427734,1.699219 -0.122647,3.814633 -4.814743,5.338995 -7.726562,5.283203 -2.933853,-0.05621 -7.476911,-1.206716 -7.347657,-3.708985 0.09671,-1.871911 2.330976,-3.57584 3.302735,-3.560547 0.722297,0.01148 0.108066,1.768247 1.376953,1.81836 0.649859,0.02566 1.889317,-0.0296 1.832031,-0.691407 -0.04628,-0.534728 -1.421028,0.234522 -1.552734,-0.285156 -0.163008,-0.643194 1.410156,-1.05664 1.410156,-1.05664 z m 15.707031,1.976562 A 2.7852995,1.0919936 4.0101176 0 0 45,40.869141 a 2.7852995,1.0919936 4.0101176 0 0 2.705078,1.283203 2.7852995,1.0919936 4.0101176 0 0 2.851563,-0.896485 2.7852995,1.0919936 4.0101176 0 0 -2.705079,-1.283203 2.7852995,1.0919936 4.0101176 0 0 -0.474609,-0.01758 z m -18.734375,2.078125 c -0.266824,-0.01084 -0.446879,0.04829 -0.482422,0.222656 -0.197448,0.968637 2.406002,1.576879 3.636719,1.667969 2.936809,0.217358 5.219071,0.163911 5.175781,-0.917969 -0.03141,-0.784824 -0.648784,-0.306322 -5.064453,-0.289062 -0.876143,0.0034 -2.465153,-0.651077 -3.265625,-0.683594 z m -13.201172,0.929688 a 1.092053,2.7851491 87.256532 0 0 -0.279297,0.0078 1.092053,2.7851491 87.256532 0 0 -2.732421,1.222656 1.092053,2.7851491 87.256532 0 0 2.832031,0.958985 1.092053,2.7851491 87.256532 0 0 2.732422,-1.222656 1.092053,2.7851491 87.256532 0 0 -2.552735,-0.966797 z m 28.365235,4.972656 a 2.8015024,1.0856783 32.060694 0 0 -0.730469,0.269531 2.8015024,1.0856783 32.060694 0 0 1.824219,2.41211 2.8015024,1.0856783 32.060694 0 0 2.935547,0.544921 2.8015024,1.0856783 32.060694 0 0 -1.824219,-2.410156 2.8015024,1.0856783 32.060694 0 0 -2.205078,-0.816406 z m -22.410157,1.115234 a 1.0834316,2.8073119 51.967371 0 0 -2.328125,1.060547 1.0834316,2.8073119 51.967371 0 0 -1.572265,2.589844 1.0834316,2.8073119 51.967371 0 0 2.865234,-0.851563 1.0834316,2.8073119 51.967371 0 0 1.570313,-2.591797 1.0834316,2.8073119 51.967371 0 0 -0.535157,-0.207031 z m 15.111328,0.957031 a 2.8376901,1.0718333 69.658308 0 0 -0.103515,0.02539 2.8376901,1.0718333 69.658308 0 0 -0.0059,3.046875 2.8376901,1.0718333 69.658308 0 0 1.990234,2.269531 2.8376901,1.0718333 69.658308 0 0 0.0059,-3.046875 2.8376901,1.0718333 69.658308 0 0 -1.886719,-2.294921 z m -7.011718,0.02344 a 1.0735521,2.8331464 26.155496 0 0 -2.029297,2.09375 1.0735521,2.8331464 26.155496 0 0 -0.302735,3.03125 1.0735521,2.8331464 26.155496 0 0 2.210938,-2.046875 1.0735521,2.8331464 26.155496 0 0 0.302734,-3.03125 1.0735521,2.8331464 26.155496 0 0 -0.18164,-0.04687 z"
       style="fill:#efd211"
       id="path7" /></g></svg>
