<?xml version="1.0" encoding="UTF-8" standalone="no"?>
<svg
   id="_图层_1"
   data-name="图层_1"
   version="1.1"
   viewBox="0 0 128 128"
   width="32"
   height="32"
   sodipodi:docname="zip (1).svg"
   xml:space="preserve"
   inkscape:version="1.4 (e7c3feb100, 2024-10-09)"
   xmlns:inkscape="http://www.inkscape.org/namespaces/inkscape"
   xmlns:sodipodi="http://sodipodi.sourceforge.net/DTD/sodipodi-0.dtd"
   xmlns="http://www.w3.org/2000/svg"
   xmlns:svg="http://www.w3.org/2000/svg"><sodipodi:namedview
     id="namedview3"
     pagecolor="#505050"
     bordercolor="#eeeeee"
     borderopacity="1"
     inkscape:showpageshadow="0"
     inkscape:pageopacity="0"
     inkscape:pagecheckerboard="0"
     inkscape:deskcolor="#505050"
     inkscape:zoom="8.453125"
     inkscape:cx="44.362292"
     inkscape:cy="25.907579"
     inkscape:window-width="1920"
     inkscape:window-height="939"
     inkscape:window-x="0"
     inkscape:window-y="34"
     inkscape:window-maximized="1"
     inkscape:current-layer="_图层_1" /><!-- Generator: Adobe Illustrator 29.0.1, SVG Export Plug-In . SVG Version: 2.1.0 Build 192)  --><defs
     id="defs1"><style
       id="style1">
      .st0 {
        fill: #0071e9;
      }

      .st1 {
        fill: #fff;
      }

      .st2 {
        fill: #5aaaff;
        isolation: isolate;
        opacity: .5;
      }
    </style></defs><path
     class="st0"
     d="M18.2,0c-5.6,0-10.2,4.6-10.2,10.2v107.6c0,5.6,4.6,10.2,10.2,10.2h91.6c5.6,0,10.2-4.6,10.2-10.2V40.6L82.2,0H18.2Z"
     id="path1"
     style="fill:#56c7f7;fill-opacity:1" /><g
     id="g3"
     transform="matrix(0.12163688,0,0,0.12523104,1.5888274,-0.05175602)"><path
       d="M 135.13387,1024 C 89.053867,1024 51.2,987.20427 51.2,942.40427 V 599.1936 h 921.6 v 343.21067 c 0,44.8 -37.85387,81.59573 -83.93387,81.59573 z"
       fill="#7ecf3b"
       p-id="48553"
       id="path1-7" /><path
       d="M 51.2,682.66667 V 341.33333 h 921.6 v 341.33334 z"
       fill="#f95f5d"
       p-id="48554"
       id="path2-5" /><path
       d="M 409.6,0 H 614.4 V 1024 H 409.6 Z"
       fill="#fdaf42"
       p-id="48556"
       id="path4" /><path
       d="M 606.70293,457.38667 V 569.8048 H 412.99627 V 457.38667 Z M 637.7984,411.4944 H 381.9008 c -4.4032,0 -11.79307,4.4032 -11.79307,11.81013 v 178.97814 c 0,4.4032 4.38614,11.79306 11.79307,11.79306 h 255.8976 c 4.4032,0 11.79307,-4.38613 11.79307,-11.79306 V 423.30453 c -2.90134,-8.8064 -7.38987,-11.81013 -11.776,-11.81013 z"
       fill="#ffffff"
       p-id="48557"
       id="path5" /></g><path
     class="st2"
     d="M 82.67566,2.3659889 V 31.625856 c 0,3.206561 2.180526,11.623783 12.092007,11.623783 h 25.373393 z"
     id="path2"
     style="stroke-width:0.996584;fill:#333333" /><path
     class="st2"
     d="M 82.398318,0.04755236 V 29.247552 c 0,3.2 2.2,11.6 12.2,11.6 h 25.600002 z"
     id="path2-6"
     style="opacity:1;isolation:isolate;fill:#61caf7;fill-opacity:1" /></svg>
