<?xml version="1.0" encoding="UTF-8" standalone="no"?>
<svg
   id="_图层_1"
   data-name="图层_1"
   version="1.1"
   viewBox="0 0 128 128"
   width="32"
   height="32"
   sodipodi:docname="phatch.svg"
   xml:space="preserve"
   inkscape:version="1.4 (e7c3feb100, 2024-10-09)"
   xmlns:inkscape="http://www.inkscape.org/namespaces/inkscape"
   xmlns:sodipodi="http://sodipodi.sourceforge.net/DTD/sodipodi-0.dtd"
   xmlns="http://www.w3.org/2000/svg"
   xmlns:svg="http://www.w3.org/2000/svg"><sodipodi:namedview
     id="namedview3"
     pagecolor="#505050"
     bordercolor="#eeeeee"
     borderopacity="1"
     inkscape:showpageshadow="0"
     inkscape:pageopacity="0"
     inkscape:pagecheckerboard="0"
     inkscape:deskcolor="#505050"
     inkscape:zoom="10.6875"
     inkscape:cx="32"
     inkscape:cy="32"
     inkscape:window-width="1920"
     inkscape:window-height="939"
     inkscape:window-x="0"
     inkscape:window-y="34"
     inkscape:window-maximized="1"
     inkscape:current-layer="_图层_1" /><!-- Generator: Adobe Illustrator 29.0.1, SVG Export Plug-In . SVG Version: 2.1.0 Build 192)  --><defs
     id="defs1"><style
       id="style1">
      .st0 {
        fill: #0071e9;
      }

      .st1 {
        fill: #fff;
      }

      .st2 {
        fill: #5aaaff;
        isolation: isolate;
        opacity: .5;
      }
    </style></defs><path
     class="st0"
     d="M18.2,0c-5.6,0-10.2,4.6-10.2,10.2v107.6c0,5.6,4.6,10.2,10.2,10.2h91.6c5.6,0,10.2-4.6,10.2-10.2V40.6L82.2,0H18.2Z"
     id="path1"
     style="fill:#4f4f4f;fill-opacity:1" /><path
     class="st2"
     d="m 82.574269,2.994152 v 29.2 c 0,3.2 2.167325,11.6 12.018806,11.6 h 25.219795 z"
     id="path2"
     style="fill:#000000;fill-opacity:0.2;stroke-width:0.992546" /><path
     class="st2"
     d="M 82.491223,0.21052628 V 29.410526 c 0,3.2 2.2,11.6 12.2,11.6 h 25.599997 z"
     id="path2-6"
     style="opacity:0.5;isolation:isolate;fill:#707070;fill-opacity:1" /><path
     d="m 97.285036,70.492281 -6.025281,-1.325605 c -0.48202,-1.446114 -1.084542,-2.892227 -1.807577,-4.338341 l 3.253656,-5.422926 c 1.205054,-1.928152 1.807576,-4.820379 0,-6.628021 l -3.253656,-3.253756 c -0.843537,-0.843566 -2.048594,-1.205095 -3.253649,-1.205095 -1.205056,0 -2.53062,0.361529 -3.494661,1.084586 l -5.302245,3.374265 c -1.325564,-0.723057 -2.771626,-1.325605 -4.217696,-1.807642 l -1.325563,-6.025474 c -0.361514,-2.16917 -2.289605,-4.57936 -4.940724,-4.57936 h -4.699717 c -2.530618,0 -4.097188,2.41019 -4.699716,4.69987 l -1.446071,6.025473 c -1.56657,0.482038 -3.133139,1.205095 -4.579209,1.928152 l -5.422752,-3.374266 c -0.723036,-0.964075 -2.048591,-1.325604 -3.253647,-1.325604 -1.205056,0 -2.410112,0.361529 -3.253654,1.325604 l -3.253647,3.253756 c -1.807584,1.807643 -1.205056,4.69987 0,6.628021 l 3.374154,5.663945 c -0.602528,1.325605 -1.205056,2.651209 -1.687077,3.976813 l -6.02528,1.325605 c -2.169098,0.361528 -4.57921,2.289679 -4.57921,4.940887 v 4.699869 c 0,2.530701 2.410112,4.097323 4.699718,4.69987 l 6.02528,1.566622 c 0.361513,1.325606 0.964041,2.530701 1.566569,3.735797 l -3.374154,5.663945 c -1.205056,1.928148 -1.807584,4.820379 0,6.628019 l 3.253647,3.25375 c 0.843542,0.72307 2.048598,1.0846 3.253654,1.0846 1.205056,0 2.530611,-0.36153 3.494661,-1.0846 l 5.422752,-3.49476 c 1.446063,0.72305 3.012632,1.4461 4.57921,1.92815 l 1.446062,6.02547 c 0.482028,2.16917 2.048598,4.69987 4.699718,4.69987 h 4.699716 c 2.530619,0 4.458711,-2.41019 4.940731,-4.57936 l 1.325563,-6.02547 c 1.446062,-0.48205 2.892133,-1.08459 4.217696,-1.80765 l 5.302245,3.37427 c 0.964042,0.60255 2.169098,1.08459 3.494661,1.08459 1.205056,0 2.410113,-0.36154 3.25365,-1.32561 l 3.253655,-3.25375 c 1.807568,-1.80765 1.205055,-4.699873 0,-6.62803 l -3.253655,-5.422924 c 0.602523,-1.325606 1.205054,-2.651212 1.687074,-3.976812 l 6.025281,-1.566627 c 2.169095,-0.482037 4.699712,-2.048659 4.699712,-4.69987 v -4.699868 c -0.1205,-2.530699 -2.530617,-4.45885 -4.820224,-4.820378 z M 64.748535,88.809719 c -6.266287,0 -11.327518,-5.061397 -11.327518,-11.20738 0,-6.145983 5.061231,-11.20738 11.327518,-11.20738 6.266294,0 11.327524,5.061397 11.327524,11.20738 0,6.145983 -5.181737,11.20738 -11.327524,11.20738 z"
     fill="#333333"
     p-id="4288"
     id="path1-6"
     style="stroke-width:0.075317;fill:#54b23f;fill-opacity:1" /></svg>
