<?xml version="1.0" encoding="UTF-8" standalone="no"?>
<svg
   id="_图层_1"
   data-name="图层_1"
   version="1.1"
   viewBox="0 0 128 128"
   width="32"
   height="32"
   sodipodi:docname="application-pkix-cert.svg"
   xml:space="preserve"
   inkscape:version="1.4 (e7c3feb100, 2024-10-09)"
   xmlns:inkscape="http://www.inkscape.org/namespaces/inkscape"
   xmlns:sodipodi="http://sodipodi.sourceforge.net/DTD/sodipodi-0.dtd"
   xmlns="http://www.w3.org/2000/svg"
   xmlns:svg="http://www.w3.org/2000/svg"><sodipodi:namedview
     id="namedview3"
     pagecolor="#505050"
     bordercolor="#eeeeee"
     borderopacity="1"
     inkscape:showpageshadow="0"
     inkscape:pageopacity="0"
     inkscape:pagecheckerboard="0"
     inkscape:deskcolor="#505050"
     inkscape:zoom="10.6875"
     inkscape:cx="32"
     inkscape:cy="33.684211"
     inkscape:window-width="1920"
     inkscape:window-height="939"
     inkscape:window-x="0"
     inkscape:window-y="34"
     inkscape:window-maximized="1"
     inkscape:current-layer="_图层_1" /><!-- Generator: Adobe Illustrator 29.0.1, SVG Export Plug-In . SVG Version: 2.1.0 Build 192)  --><defs
     id="defs1"><style
       id="style1">
      .st0 {
        fill: #0071e9;
      }

      .st1 {
        fill: #fff;
      }

      .st2 {
        fill: #5aaaff;
        isolation: isolate;
        opacity: .5;
      }
    </style></defs><path
     class="st0"
     d="M18.2,0c-5.6,0-10.2,4.6-10.2,10.2v107.6c0,5.6,4.6,10.2,10.2,10.2h91.6c5.6,0,10.2-4.6,10.2-10.2V40.6L82.2,0H18.2Z"
     id="path1"
     style="fill:#13a553;fill-opacity:1" /><path
     class="st2"
     d="m 82.761404,2.619883 v 29.2 c 0,3.2 2.145542,11.6 11.89801,11.6 h 24.966316 z"
     id="path2"
     style="fill:#0f8442;fill-opacity:1;stroke-width:0.987546" /><path
     class="st2"
     d="M 82.116964,0.02339171 V 29.223392 c 0,3.2 2.2,11.6 12.2,11.6 h 25.599996 z"
     id="path2-3"
     style="opacity:1;isolation:isolate;fill:#70c896;fill-opacity:1" /><g
     id="g10"
     transform="matrix(2.5443913,0,0,2.2856263,-17.420521,-9.0898738)"><path
       style="opacity:0.2"
       d="m 32,27.998291 c -1.532492,0.0023 -2.92898,0.879905 -3.595703,2.259766 C 27.95557,30.08793 27.479892,29.999939 27,29.998291 c -2.209139,0 -4,1.790861 -4,4 4e-4,0.479653 0.08706,0.955325 0.255859,1.404297 -1.37834,0.667835 -2.254321,2.064095 -2.255859,3.595703 0.0023,1.532492 0.879905,2.92898 2.259766,3.595703 -0.170127,0.448727 -0.258118,0.924405 -0.259766,1.404297 0,2.209139 1.790861,4 4,4 0.337602,-0.0019 0.673607,-0.04652 1,-0.132812 v 7.132812 c 3.5e-4,0.890637 1.077036,1.336587 1.707031,0.707031 L 32,53.412353 34.292969,55.705322 C 34.922964,56.334878 35.99965,55.888928 36,54.998291 v -7.130859 c 0.326477,0.08564 0.662481,0.129604 1,0.130859 2.209139,0 4,-1.790861 4,-4 -4e-4,-0.479653 -0.08707,-0.955325 -0.255859,-1.404297 C 42.122481,41.926159 42.998462,40.529899 43,38.998291 42.9977,37.465799 42.120095,36.069311 40.740234,35.402588 40.910361,34.953861 40.998352,34.478183 41,33.998291 c 0,-2.209139 -1.790861,-4 -4,-4 -0.479653,4e-4 -0.955325,0.08706 -1.404297,0.255859 C 34.927868,28.87581 33.531608,27.999829 32,27.998291 Z m 0,4 c 3.865993,0 7,3.134007 7,7 0,3.865993 -3.134007,7 -7,7 -3.865993,0 -7,-3.134007 -7,-7 0,-3.865993 3.134007,-7 7,-7 z m 0,1 c -3.313708,0 -6,2.686292 -6,6 0,3.313708 2.686292,6 6,6 3.313708,0 6,-2.686292 6,-6 0,-3.313708 -2.686292,-6 -6,-6 z"
       id="path6" /><path
       style="fill:#ffffff"
       d="m 32,26.998291 c -1.532492,0.0023 -2.92898,0.879905 -3.595703,2.259766 C 27.95557,29.08793 27.479892,28.999939 27,28.998291 c -2.209139,0 -4,1.790861 -4,4 4e-4,0.479653 0.08706,0.955325 0.255859,1.404297 -1.37834,0.667835 -2.254321,2.064095 -2.255859,3.595703 0.0023,1.532492 0.879905,2.92898 2.259766,3.595703 -0.170127,0.448727 -0.258118,0.924405 -0.259766,1.404297 0,2.209139 1.790861,4 4,4 0.337602,-0.0019 0.673607,-0.04652 1,-0.132812 v 7.132812 c 3.5e-4,0.890637 1.077036,1.336587 1.707031,0.707031 L 32,52.412353 34.292969,54.705322 C 34.922964,55.334878 35.99965,54.888928 36,53.998291 v -7.130859 c 0.326477,0.08564 0.662481,0.129604 1,0.130859 2.209139,0 4,-1.790861 4,-4 -4e-4,-0.479653 -0.08707,-0.955325 -0.255859,-1.404297 C 42.122481,40.926159 42.998462,39.529899 43,37.998291 42.9977,36.465799 42.120095,35.069311 40.740234,34.402588 40.910361,33.953861 40.998352,33.478183 41,32.998291 c 0,-2.209139 -1.790861,-4 -4,-4 -0.479653,4e-4 -0.955325,0.08706 -1.404297,0.255859 C 34.927868,27.87581 33.531608,26.999829 32,26.998291 Z m 0,4 c 3.865993,0 7,3.134007 7,7 0,3.865993 -3.134007,7 -7,7 -3.865993,0 -7,-3.134007 -7,-7 0,-3.865993 3.134007,-7 7,-7 z m 0,1 c -3.313708,0 -6,2.686292 -6,6 0,3.313708 2.686292,6 6,6 3.313708,0 6,-2.686292 6,-6 0,-3.313708 -2.686292,-6 -6,-6 z"
       id="path7" /></g></svg>
