<?xml version="1.0" encoding="UTF-8" standalone="no"?>
<svg
   id="_图层_1"
   data-name="图层_1"
   version="1.1"
   viewBox="0 0 128 128"
   width="32"
   height="32"
   sodipodi:docname="application-x-gba-rom.svg"
   xml:space="preserve"
   inkscape:version="1.4 (e7c3feb100, 2024-10-09)"
   xmlns:inkscape="http://www.inkscape.org/namespaces/inkscape"
   xmlns:sodipodi="http://sodipodi.sourceforge.net/DTD/sodipodi-0.dtd"
   xmlns="http://www.w3.org/2000/svg"
   xmlns:svg="http://www.w3.org/2000/svg"><sodipodi:namedview
     id="namedview3"
     pagecolor="#505050"
     bordercolor="#eeeeee"
     borderopacity="1"
     inkscape:showpageshadow="0"
     inkscape:pageopacity="0"
     inkscape:pagecheckerboard="0"
     inkscape:deskcolor="#505050"
     inkscape:zoom="10.6875"
     inkscape:cx="32"
     inkscape:cy="18.807018"
     inkscape:window-width="1920"
     inkscape:window-height="939"
     inkscape:window-x="0"
     inkscape:window-y="34"
     inkscape:window-maximized="1"
     inkscape:current-layer="_图层_1"
     showguides="true"><sodipodi:guide
       position="7.6134526,83.439664"
       orientation="1,0"
       id="guide7"
       inkscape:locked="false" /><sodipodi:guide
       position="120.24109,71.856006"
       orientation="1,0"
       id="guide8"
       inkscape:locked="false" /></sodipodi:namedview><!-- Generator: Adobe Illustrator 29.0.1, SVG Export Plug-In . SVG Version: 2.1.0 Build 192)  --><defs
     id="defs1"><style
       id="style1">
      .st0 {
        fill: #0071e9;
      }

      .st1 {
        fill: #fff;
      }

      .st2 {
        fill: #5aaaff;
        isolation: isolate;
        opacity: .5;
      }
    </style><style
       id="style1-6">
      .st0 {
        fill: #0071e9;
      }

      .st1 {
        fill: #fff;
      }

      .st2 {
        fill: #5aaaff;
        isolation: isolate;
        opacity: .5;
      }
    </style><style
       id="style1-8">
      .st0 {
        fill: #0071e9;
      }

      .st1 {
        fill: #fff;
      }

      .st2 {
        fill: #5aaaff;
        isolation: isolate;
        opacity: .5;
      }
    </style></defs><path
     class="st0"
     d="M18.2,0c-5.6,0-10.2,4.6-10.2,10.2v107.6c0,5.6,4.6,10.2,10.2,10.2h91.6c5.6,0,10.2-4.6,10.2-10.2V40.6L82.2,0H18.2Z"
     id="path1"
     style="fill:#66548f;fill-opacity:1" /><path
     class="st2"
     d="m 82.761404,2.619883 v 29.2 c 0,3.2 2.145542,11.6 11.89801,11.6 h 24.966316 z"
     id="path2"
     style="fill:#524372;fill-opacity:1;stroke-width:0.987546" /><path
     class="st2"
     d="M 82.116964,0.02339171 V 29.223392 c 0,3.2 2.2,11.6 12.2,11.6 h 25.599996 z"
     id="path2-3"
     style="opacity:1;isolation:isolate;fill:#8878ad;fill-opacity:1" /><g
     id="g10"
     transform="matrix(2.5486443,0,0,2.2823433,-17.463051,-9.0767415)"><path
       d="M 36,30 34.5,40 H 35 c 0.403929,-3.02e-4 0.768385,0.242412 0.923828,0.615234 l 2.123047,5.09375 0.607422,-3.78125 L 41.873047,42 c 0,0 2.100599,-0.201319 2.162109,1.826172 0.05119,1.68736 -1.590319,2.161142 -2.435547,2.173828 h -3.43164 l 1.6875,4.050781 2.378906,0.01758 c 2.44659,0.01386 6.659256,-3.07921 6.792969,-6.923828 C 48.999844,41.300635 46.5,39.5 46.5,39.5 c 0,0 2.474478,-1.893636 2.472656,-4.501953 -0.0022,-2.955251 -4.266173,-4.929688 -5.125,-4.929688 z m -7.902344,0.07422 c -5.075277,0.09923 -11.880503,4.077371 -12.089844,11.251953 -0.134128,4.596985 1.342337,9.548907 9.230469,9.673828 0.173082,0.0027 0.352234,-0.02536 0.529297,-0.04297 L 29.916016,41 H 25.125 L 24,44 h 3 l -0.597656,2.9375 c 0,0 -1.637631,0.201809 -2.47461,0.167969 -2.745071,-0.111007 -3.973725,-2.814787 -3.953125,-5.109375 0.03784,-4.220244 4.076858,-7.977234 8.78125,-8.027344 2.161396,-0.02302 3.660157,1.09375 3.660157,1.09375 l 0.658203,-4.136719 c 0,0 -1.258435,-0.924262 -4.976563,-0.851562 z M 40,34 l 1.966797,0.05664 c 0,0 2.112206,-0.05979 2.132812,1.537109 -0.118376,2.305484 -1.803577,2.470342 -2.779297,2.458984 C 40.447354,38.042836 39,38 39,38 Z m -9,7 -5,12 h 8 l -1,-3 h -2 l 2,-5 3,8 h 4 L 35,41 Z"
       style="opacity:0.2"
       id="path6" /><path
       d="M 36,29 34.5,39 H 35 c 0.403929,-3.02e-4 0.768385,0.242412 0.923828,0.615234 l 2.123047,5.09375 0.607422,-3.78125 L 41.873047,41 c 0,0 2.100599,-0.201319 2.162109,1.826172 0.05119,1.68736 -1.590319,2.161142 -2.435547,2.173828 h -3.43164 l 1.6875,4.050781 2.378906,0.01758 c 2.44659,0.01386 6.659256,-3.07921 6.792969,-6.923828 C 48.999844,40.300637 46.5,38.5 46.5,38.5 c 0,0 2.474478,-1.893636 2.472656,-4.501953 -0.0022,-2.955251 -4.266173,-4.929688 -5.125,-4.929688 z m -7.902344,0.07422 c -5.075277,0.09923 -11.880503,4.077371 -12.089844,11.251953 -0.134129,4.596985 1.342337,9.548907 9.230469,9.673828 0.173082,0.0027 0.352234,-0.02536 0.529297,-0.04297 L 29.916016,40 H 25.125 L 24,43 h 3 l -0.597656,2.9375 c 0,0 -1.637631,0.201809 -2.47461,0.167969 -2.745071,-0.111007 -3.973725,-2.814787 -3.953125,-5.109375 0.03784,-4.220244 4.076858,-7.977234 8.78125,-8.027344 2.161396,-0.02302 3.660157,1.09375 3.660157,1.09375 l 0.658203,-4.136719 c 0,0 -1.258435,-0.924262 -4.976563,-0.851562 z M 40,33 l 1.966797,0.05664 c 0,0 2.112206,-0.05979 2.132812,1.537109 -0.118376,2.305484 -1.803578,2.470342 -2.779297,2.458984 C 40.447354,37.042835 39,37 39,37 Z"
       style="fill:#ffffff"
       id="path7" /><path
       d="m 31,40 -5,12 h 8 l -1,-3 h -2 l 2,-5 3,8 h 4 L 35,40 Z"
       style="fill:#ffffff"
       id="path8" /></g></svg>
