<?xml version="1.0" encoding="UTF-8" standalone="no"?>
<svg
   id="_图层_1"
   data-name="图层_1"
   version="1.1"
   viewBox="0 0 128 128"
   width="32"
   height="32"
   sodipodi:docname="application-epub+zip.svg"
   xml:space="preserve"
   inkscape:version="1.4 (e7c3feb100, 2024-10-09)"
   xmlns:inkscape="http://www.inkscape.org/namespaces/inkscape"
   xmlns:sodipodi="http://sodipodi.sourceforge.net/DTD/sodipodi-0.dtd"
   xmlns="http://www.w3.org/2000/svg"
   xmlns:svg="http://www.w3.org/2000/svg"><sodipodi:namedview
     id="namedview3"
     pagecolor="#505050"
     bordercolor="#eeeeee"
     borderopacity="1"
     inkscape:showpageshadow="0"
     inkscape:pageopacity="0"
     inkscape:pagecheckerboard="0"
     inkscape:deskcolor="#505050"
     inkscape:zoom="10.6875"
     inkscape:cx="32"
     inkscape:cy="18.71345"
     inkscape:window-width="1920"
     inkscape:window-height="939"
     inkscape:window-x="0"
     inkscape:window-y="34"
     inkscape:window-maximized="1"
     inkscape:current-layer="_图层_1" /><!-- Generator: Adobe Illustrator 29.0.1, SVG Export Plug-In . SVG Version: 2.1.0 Build 192)  --><defs
     id="defs1"><style
       id="style1">
      .st0 {
        fill: #0071e9;
      }

      .st1 {
        fill: #fff;
      }

      .st2 {
        fill: #5aaaff;
        isolation: isolate;
        opacity: .5;
      }
    </style></defs><path
     class="st0"
     d="M18.2,0c-5.6,0-10.2,4.6-10.2,10.2v107.6c0,5.6,4.6,10.2,10.2,10.2h91.6c5.6,0,10.2-4.6,10.2-10.2V40.6L82.2,0H18.2Z"
     id="path1"
     style="fill:#86b918;fill-opacity:1" /><path
     class="st2"
     d="m 82.761404,2.619883 v 29.2 c 0,3.2 2.145542,11.6 11.89801,11.6 h 24.966316 z"
     id="path2"
     style="fill:#6b9413;fill-opacity:1;stroke-width:0.987546" /><path
     class="st2"
     d="M 82.116964,0.02339171 V 29.223392 c 0,3.2 2.2,11.6 12.2,11.6 h 25.599996 z"
     id="path2-3"
     style="opacity:1;isolation:isolate;fill:#a6d541;fill-opacity:1" /><g
     id="g13"
     transform="matrix(2.5443913,0,0,2.2823433,-17.233387,-9.3574433)"><path
       style="opacity:0.2"
       d="m 31.999944,49.798571 -8.798702,-8.799388 8.798702,-8.798071 2.933209,2.932621 -5.866347,5.86545 2.932943,2.933041 8.798799,-8.798029 -7.664888,-7.664622 c -0.625806,-0.626434 -1.640983,-0.626434 -2.267418,0 L 18.469396,39.866461 c -0.625861,0.625806 -0.625861,1.641039 0,2.267377 l 12.396846,12.396523 c 0.626435,0.626185 1.641612,0.626185 2.267418,0 L 45.530604,42.133838 c 0.625861,-0.626338 0.625861,-1.641572 0,-2.267377 l -1.799576,-1.799114 z"
       id="path6" /><path
       style="fill:#ffffff"
       d="m 31.999944,48.798571 -8.798702,-8.799388 8.798702,-8.798071 2.933209,2.932621 -5.866347,5.86545 2.932943,2.933041 8.798799,-8.798029 -7.664888,-7.664622 c -0.625806,-0.626434 -1.640983,-0.626434 -2.267418,0 L 18.469396,38.866461 c -0.625861,0.625806 -0.625861,1.641039 0,2.267377 l 12.396846,12.396523 c 0.626435,0.626185 1.641612,0.626185 2.267418,0 L 45.530604,41.133838 c 0.625861,-0.626338 0.625861,-1.641572 0,-2.267377 l -1.799576,-1.799114 z"
       id="path7" /></g></svg>
