<?xml version="1.0" encoding="UTF-8" standalone="no"?>
<svg
   id="_图层_1"
   data-name="图层_1"
   version="1.1"
   viewBox="0 0 128 128"
   width="32"
   height="32"
   sodipodi:docname="text-x-fortran.svg"
   xml:space="preserve"
   inkscape:version="1.4 (e7c3feb100, 2024-10-09)"
   xmlns:inkscape="http://www.inkscape.org/namespaces/inkscape"
   xmlns:sodipodi="http://sodipodi.sourceforge.net/DTD/sodipodi-0.dtd"
   xmlns="http://www.w3.org/2000/svg"
   xmlns:svg="http://www.w3.org/2000/svg"><sodipodi:namedview
     id="namedview3"
     pagecolor="#505050"
     bordercolor="#eeeeee"
     borderopacity="1"
     inkscape:showpageshadow="0"
     inkscape:pageopacity="0"
     inkscape:pagecheckerboard="0"
     inkscape:deskcolor="#505050"
     inkscape:zoom="10.6875"
     inkscape:cx="32"
     inkscape:cy="18.71345"
     inkscape:window-width="1920"
     inkscape:window-height="939"
     inkscape:window-x="0"
     inkscape:window-y="34"
     inkscape:window-maximized="1"
     inkscape:current-layer="_图层_1"
     showguides="true"><sodipodi:guide
       position="7.6134526,83.439664"
       orientation="1,0"
       id="guide7"
       inkscape:locked="false" /><sodipodi:guide
       position="120.24109,71.856006"
       orientation="1,0"
       id="guide8"
       inkscape:locked="false" /></sodipodi:namedview><!-- Generator: Adobe Illustrator 29.0.1, SVG Export Plug-In . SVG Version: 2.1.0 Build 192)  --><defs
     id="defs1"><style
       id="style1">
      .st0 {
        fill: #0071e9;
      }

      .st1 {
        fill: #fff;
      }

      .st2 {
        fill: #5aaaff;
        isolation: isolate;
        opacity: .5;
      }
    </style></defs><path
     class="st0"
     d="M18.2,0c-5.6,0-10.2,4.6-10.2,10.2v107.6c0,5.6,4.6,10.2,10.2,10.2h91.6c5.6,0,10.2-4.6,10.2-10.2V40.6L82.2,0H18.2Z"
     id="path1"
     style="fill:#7242a1;fill-opacity:1" /><path
     class="st2"
     d="m 82.761404,2.619883 v 29.2 c 0,3.2 2.145542,11.6 11.89801,11.6 h 24.966316 z"
     id="path2"
     style="fill:#5b3581;fill-opacity:1;stroke-width:0.987546" /><path
     class="st2"
     d="M 82.116964,0.02339171 V 29.223392 c 0,3.2 2.2,11.6 12.2,11.6 h 25.599996 z"
     id="path2-3"
     style="opacity:1;isolation:isolate;fill:#8b59bb;fill-opacity:1" /><g
     id="g8"
     transform="matrix(2.5486443,0,0,2.2921925,-17.650186,-9.1161383)"><path
       style="opacity:0.2"
       d="m 34.000048,53.611964 -0.03846,-1.388018 -1.94458,-0.0897 c -1.989982,-0.0918 -1.310506,-0.224692 -1.665174,-0.603684 -0.360598,-0.941048 -0.351546,-3.097832 -0.367258,-4.547972 l -0.04556,-4.08337 0.921966,0.09338 c 2.19075,0.27788 3.746352,1.180894 3.853346,2.35243 l 0.08346,1.455748 H 36.19354 38 v -5.139346 -6.572408 h -1.759026 c -0.741578,0 -1.348318,0.05296 -1.348318,0.11766 0,0.06472 -0.08932,0.63214 -0.1985,1.260922 -1.084972,2.656572 -2.402772,2.424316 -4.731456,2.619368 v -3.177086 -4.357952 l 3.486736,0.06818 c 2.38834,0.04058 4.208582,0.12974 4.499008,0.220346 1.886058,0.588494 2.771072,2.34055 3.158424,6.611316 l 0.08904,0.548444 H 42.597954 44 V 34.416668 29.000004 H 31.999998 20.000002 v 1.406896 1.406892 l 1.449438,0.05904 c 1.607948,0.0655 2.403262,0.247344 2.55056,0.772774 v 9.422096 c 0,9.728558 -0.0124,9.555716 -0.703732,9.819726 -0.17928,0.06844 -1.097384,0.16592 -1.877638,0.21659 L 20,52.196138 V 53.598068 55 h 6.948538 7.089874 z"
       id="path6" /><path
       style="fill:#ffffff"
       d="m 34.000048,52.611964 -0.03846,-1.388018 -1.94458,-0.0897 c -1.989982,-0.0918 -1.310506,-0.224692 -1.665174,-0.603684 -0.360598,-0.941048 -0.351546,-3.097832 -0.367258,-4.547972 l -0.04556,-4.08337 0.921966,0.09338 c 2.19075,0.27788 3.746352,1.180894 3.853346,2.35243 l 0.08346,1.455748 H 36.19354 38 v -5.139346 -6.572408 h -1.759026 c -0.741578,0 -1.348318,0.05296 -1.348318,0.11766 0,0.06472 -0.08932,0.63214 -0.1985,1.260922 -1.084972,2.656572 -2.402772,2.424316 -4.731456,2.619368 v -3.177086 -4.357952 l 3.486736,0.06818 c 2.38834,0.04058 4.208582,0.12974 4.499008,0.220346 1.886058,0.588494 2.771072,2.34055 3.158424,6.611316 l 0.08904,0.548444 H 42.597954 44 V 33.416668 28.000004 H 31.999998 20.000002 v 1.406896 1.406892 l 1.449438,0.05904 c 1.607948,0.0655 2.403262,0.247344 2.55056,0.772774 v 9.422096 c 0,9.728558 -0.0124,9.555716 -0.703732,9.819726 -0.17928,0.06844 -1.097384,0.16592 -1.877638,0.21659 L 20,51.196138 V 52.598068 54 h 6.948538 7.089874 z"
       id="path7" /></g></svg>
