<?xml version="1.0" encoding="UTF-8" standalone="no"?>
<svg
   id="_图层_1"
   data-name="图层_1"
   version="1.1"
   viewBox="0 0 128 128"
   width="32"
   height="32"
   sodipodi:docname="text-x-lua.svg"
   xml:space="preserve"
   inkscape:version="1.4 (e7c3feb100, 2024-10-09)"
   xmlns:inkscape="http://www.inkscape.org/namespaces/inkscape"
   xmlns:sodipodi="http://sodipodi.sourceforge.net/DTD/sodipodi-0.dtd"
   xmlns="http://www.w3.org/2000/svg"
   xmlns:svg="http://www.w3.org/2000/svg"><sodipodi:namedview
     id="namedview3"
     pagecolor="#505050"
     bordercolor="#eeeeee"
     borderopacity="1"
     inkscape:showpageshadow="0"
     inkscape:pageopacity="0"
     inkscape:pagecheckerboard="0"
     inkscape:deskcolor="#505050"
     inkscape:zoom="10.6875"
     inkscape:cx="32"
     inkscape:cy="26.19883"
     inkscape:window-width="1920"
     inkscape:window-height="939"
     inkscape:window-x="0"
     inkscape:window-y="34"
     inkscape:window-maximized="1"
     inkscape:current-layer="_图层_1"
     showguides="true"><sodipodi:guide
       position="7.6134526,83.439664"
       orientation="1,0"
       id="guide7"
       inkscape:locked="false" /><sodipodi:guide
       position="120.24109,71.856006"
       orientation="1,0"
       id="guide8"
       inkscape:locked="false" /></sodipodi:namedview><!-- Generator: Adobe Illustrator 29.0.1, SVG Export Plug-In . SVG Version: 2.1.0 Build 192)  --><defs
     id="defs1"><style
       id="style1">
      .st0 {
        fill: #0071e9;
      }

      .st1 {
        fill: #fff;
      }

      .st2 {
        fill: #5aaaff;
        isolation: isolate;
        opacity: .5;
      }
    </style></defs><path
     class="st0"
     d="M18.2,0c-5.6,0-10.2,4.6-10.2,10.2v107.6c0,5.6,4.6,10.2,10.2,10.2h91.6c5.6,0,10.2-4.6,10.2-10.2V40.6L82.2,0H18.2Z"
     id="path1"
     style="fill:#31519b;fill-opacity:1" /><path
     class="st2"
     d="m 82.761404,2.619883 v 29.2 c 0,3.2 2.145542,11.6 11.89801,11.6 h 24.966316 z"
     id="path2"
     style="fill:#27417c;fill-opacity:1;stroke-width:0.987546" /><path
     class="st2"
     d="M 82.116964,0.02339171 V 29.223392 c 0,3.2 2.2,11.6 12.2,11.6 h 25.599996 z"
     id="path2-3"
     style="opacity:1;isolation:isolate;fill:#4d6eb9;fill-opacity:1" /><g
     id="g8"
     transform="matrix(2.5571505,0,0,2.2790602,-17.735248,-8.8764748)"><path
       style="opacity:0.2"
       d="M 40.5,29 A 3.5,3.5 0 0 0 37,32.5 3.5,3.5 0 0 0 40.5,36 3.5,3.5 0 0 0 44,32.5 3.5,3.5 0 0 0 40.5,29 Z m -11,4 A 10.5,10.5 0 0 0 19,43.5 10.5,10.5 0 0 0 29.5,54 10.5,10.5 0 0 0 40,43.5 10.5,10.5 0 0 0 29.5,33 Z m 4,3 A 3.5,3.5 0 0 1 37,39.5 3.5,3.5 0 0 1 33.5,43 3.5,3.5 0 0 1 30,39.5 3.5,3.5 0 0 1 33.5,36 Z"
       id="path6" /><path
       style="fill:#ffffff"
       d="M 40.5,28 A 3.5,3.5 0 0 0 37,31.5 3.5,3.5 0 0 0 40.5,35 3.5,3.5 0 0 0 44,31.5 3.5,3.5 0 0 0 40.5,28 Z m -11,4 A 10.5,10.5 0 0 0 19,42.5 10.5,10.5 0 0 0 29.5,53 10.5,10.5 0 0 0 40,42.5 10.5,10.5 0 0 0 29.5,32 Z m 4,3 A 3.5,3.5 0 0 1 37,38.5 3.5,3.5 0 0 1 33.5,42 3.5,3.5 0 0 1 30,38.5 3.5,3.5 0 0 1 33.5,35 Z"
       id="path7" /></g></svg>
