<?xml version="1.0" encoding="UTF-8"?>
<svg width="24" height="24" xmlns="http://www.w3.org/2000/svg" version="1.1" viewBox="0 0 64 64">
  <defs>
    <style>
      .cls-1 {
        fill: #4d4d4d;
        stroke-width: 0px;
      }
    </style>
  </defs>
  <path class="cls-1" d="M63.7,30.5c0-.4-.3-.7-.7-.8l-4.7-.6c-.9-.1-1.6-.8-1.8-1.8,0,0,0,0,0,0-.2-.9.2-1.8,1-2.3l4.2-2.4c.3-.2.5-.6.4-1l-.7-1.9c-.1-.4-.5-.6-.9-.5l-4.6,1.1c-.9.2-1.8-.2-2.3-1,0,0,0,0,0,0-.5-.8-.4-1.8.2-2.5l3.1-3.7c.3-.3.3-.7,0-1.1l-1.3-1.6c-.3-.3-.7-.4-1-.2l-4,2.6c-.8.5-1.8.4-2.5-.2,0,0,0,0,0,0-.7-.6-1-1.5-.7-2.4l1.7-4.5c.1-.4,0-.8-.4-1l-1.8-1c-.4-.2-.8-.1-1,.2l-2.9,3.8c-.6.7-1.5,1-2.4.7,0,0,0,0,0,0-.9-.3-1.5-1.1-1.5-2V1.5c0-.4-.2-.7-.6-.8l-2-.3c-.4,0-.8.2-.9.6l-1.9,6.1c-.4,0-.8,0-1.2,0-.7,0-1.3,0-2,.1l-2.1-6c-.1-.4-.5-.6-.9-.5l-2,.4c-.4,0-.7.4-.7.8l.2,4.8c0,.9-.5,1.8-1.4,2.1,0,0,0,0,0,0-.9.3-1.9.1-2.5-.6l-3-3.7c-.3-.3-.7-.4-1-.2l-1.8,1c-.4.2-.5.6-.3,1l1.8,4.4c.4.9,0,1.9-.6,2.5,0,0,0,0,0,0-.7.6-1.7.7-2.5.3l-4.1-2.4c-.3-.2-.8-.1-1,.2l-1.3,1.6c-.3.3-.2.8,0,1.1l3.2,3.5c.6.7.7,1.7.3,2.5,0,0,0,0,0,0-.5.8-1.3,1.3-2.3,1.1l-4.7-.9c-.4,0-.8.2-.9.5l-.7,2c-.1.4,0,.8.4,1l4.2,2.2c.8.4,1.3,1.4,1.1,2.3,0,0,0,0,0,0-.2.9-.8,1.7-1.7,1.8l-4.7.8c-.4,0-.7.4-.7.8v2.1c0,.4.3.7.7.8l4.7.6c.9.1,1.6.8,1.8,1.8,0,0,0,0,0,0,.2.9-.2,1.8-1,2.3l-4.1,2.4c-.3.2-.5.6-.4,1l.7,1.9c.1.4.5.6.9.5l4.6-1.1c.9-.2,1.8.2,2.3,1.1,0,0,0,0,0,0,.5.8.4,1.8-.2,2.5l-3.1,3.7c-.3.3-.3.7,0,1.1l1.3,1.6c.3.3.7.4,1,.2l4-2.6c.8-.5,1.8-.4,2.5.2,0,0,0,0,0,0,.7.6,1,1.5.7,2.4l-1.7,4.5c-.1.4,0,.8.4,1l1.8,1c.4.2.8.1,1-.2l2.9-3.8c.6-.7,1.5-1,2.4-.7,0,0,0,0,0,0,.9.3,1.5,1.1,1.5,2v4.8c0,.4.2.7.6.8l2,.3c.4,0,.8-.2.9-.6l1.9-6.1c.4,0,.8,0,1.2,0,.7,0,1.3,0,2-.1l2.1,6c.1.4.5.6.9.5l2-.4c.4,0,.7-.4.7-.8l-.2-4.8c0-.9.5-1.8,1.4-2.1,0,0,0,0,0,0,.9-.3,1.9-.1,2.5.6l3,3.7c.3.3.7.4,1,.2l1.8-1c.3-.2.5-.6.3-1l-1.9-4.4c-.4-.9,0-1.9.6-2.5,0,0,0,0,0,0,.7-.6,1.7-.7,2.5-.3l4.1,2.4c.3.2.8.1,1-.2l1.3-1.6c.3-.3.2-.8,0-1.1l-3.2-3.5c-.6-.7-.7-1.7-.3-2.5,0,0,0,0,0,0,.5-.8,1.3-1.3,2.3-1.1l4.7.9c.4,0,.8-.2.9-.5l.7-2c.1-.4,0-.8-.4-1l-4.2-2.2c-.8-.4-1.3-1.4-1.1-2.3,0,0,0,0,0,0,.2-.9.8-1.7,1.7-1.8l4.7-.8c.4,0,.7-.4.7-.8v-2.1ZM17.1,32.2c0-4,1.6-7.7,4.2-10.3,1-1,2.6-.8,3.3.4l5.1,9.1c.3.5.3,1.2,0,1.7l-5.7,8.6c-.7,1.1-2.3,1.3-3.2.3-2.3-2.6-3.7-6-3.7-9.7h0ZM46.8,36.4c-1.8,6.2-7.6,10.7-14.5,10.7s-3.4-.3-4.9-.8c-1.1-.4-1.5-1.7-.9-2.7l5.9-8.9c.4-.6,1-.9,1.7-.9h10.8c1.3,0,2.3,1.3,1.9,2.6h0ZM44.9,30.6h-10.9c-.6,0-1.2-.3-1.5-.9l-5.1-9.2c-.6-1.2,0-2.6,1.4-2.9,1.1-.3,2.3-.4,3.5-.4,6.9,0,12.7,4.5,14.5,10.7.4,1.3-.6,2.6-1.9,2.6h0ZM44.9,30.6"/>
</svg>
