<?xml version="1.0" encoding="UTF-8" standalone="no"?>
<svg
   id="_图层_1"
   data-name="图层_1"
   version="1.1"
   viewBox="0 0 128 128"
   width="16"
   height="16"
   sodipodi:docname="application-x-n64-rom.svg"
   xml:space="preserve"
   inkscape:version="1.4 (e7c3feb100, 2024-10-09)"
   xmlns:inkscape="http://www.inkscape.org/namespaces/inkscape"
   xmlns:sodipodi="http://sodipodi.sourceforge.net/DTD/sodipodi-0.dtd"
   xmlns="http://www.w3.org/2000/svg"
   xmlns:svg="http://www.w3.org/2000/svg"><sodipodi:namedview
     id="namedview3"
     pagecolor="#505050"
     bordercolor="#eeeeee"
     borderopacity="1"
     inkscape:showpageshadow="0"
     inkscape:pageopacity="0"
     inkscape:pagecheckerboard="0"
     inkscape:deskcolor="#505050"
     inkscape:zoom="10.6875"
     inkscape:cx="32"
     inkscape:cy="26.292398"
     inkscape:window-width="1920"
     inkscape:window-height="939"
     inkscape:window-x="0"
     inkscape:window-y="34"
     inkscape:window-maximized="1"
     inkscape:current-layer="_图层_1"
     showguides="true"><sodipodi:guide
       position="7.6134526,83.439664"
       orientation="1,0"
       id="guide7"
       inkscape:locked="false" /><sodipodi:guide
       position="120.24109,71.856006"
       orientation="1,0"
       id="guide8"
       inkscape:locked="false" /></sodipodi:namedview><!-- Generator: Adobe Illustrator 29.0.1, SVG Export Plug-In . SVG Version: 2.1.0 Build 192)  --><defs
     id="defs1"><style
       id="style1">
      .st0 {
        fill: #0071e9;
      }

      .st1 {
        fill: #fff;
      }

      .st2 {
        fill: #5aaaff;
        isolation: isolate;
        opacity: .5;
      }
    </style><style
       id="style1-6">
      .st0 {
        fill: #0071e9;
      }

      .st1 {
        fill: #fff;
      }

      .st2 {
        fill: #5aaaff;
        isolation: isolate;
        opacity: .5;
      }
    </style><style
       id="style1-8">
      .st0 {
        fill: #0071e9;
      }

      .st1 {
        fill: #fff;
      }

      .st2 {
        fill: #5aaaff;
        isolation: isolate;
        opacity: .5;
      }
    </style><style
       id="style1-0">
      .st0 {
        fill: #0071e9;
      }

      .st1 {
        fill: #fff;
      }

      .st2 {
        fill: #5aaaff;
        isolation: isolate;
        opacity: .5;
      }
    </style></defs><path
     class="st0"
     d="M18.2,0c-5.6,0-10.2,4.6-10.2,10.2v107.6c0,5.6,4.6,10.2,10.2,10.2h91.6c5.6,0,10.2-4.6,10.2-10.2V40.6L82.2,0H18.2Z"
     id="path1"
     style="fill:#1eb04a;fill-opacity:1" /><path
     class="st2"
     d="m 82.761404,2.619883 v 29.2 c 0,3.2 2.145542,11.6 11.89801,11.6 h 24.966316 z"
     id="path2"
     style="fill:#188d3b;fill-opacity:1;stroke-width:0.987546" /><path
     class="st2"
     d="M 82.116964,0.02339171 V 29.223392 c 0,3.2 2.2,11.6 12.2,11.6 h 25.599996 z"
     id="path2-3"
     style="opacity:1;isolation:isolate;fill:#47c96e;fill-opacity:1" /><g
     id="g12"
     transform="matrix(2.5571505,0,0,2.2790602,-17.735248,-9.0636093)"><path
       style="opacity:0.2"
       d="M 18,32.6 V 49.094478 L 22,51 25.702327,49.113108 27.804651,53.230205 32.009303,55 36.014,53.230205 V 47.306054 L 38,49.5 42,51 46,49 V 32.6 L 42,31 38.07442,32.383897 35.9959,34.824351 36,28 32,27 28,28 25.5236,32.5244 22,31 Z"
       id="path3" /><path
       style="fill:#ffffff"
       d="M 18,31.6 V 48.094478 L 22,50 25.702327,48.113108 27.804651,52.230205 32.009303,54 36.014,52.230205 V 46.306054 L 38,48.5 42,50 46,48 V 31.6 L 42,30 38.07442,31.383897 35.9959,33.824351 36,27 32,26 28,27 25.5236,31.5244 22,30 Z"
       id="path7" /><path
       style="opacity:0.5;fill:#069330"
       d="m 28,27 -2.477734,4.523437 2.482719,3.661329 L 29.2,34.4 32,28.5 Z m 0.005,8.184766 v 8.736327 L 22.00049,33 18,31.6 V 48.09375 L 22,50 22.041509,41.446484 27.805473,52.230859 32.008202,54 V 36.787109 Z M 38.075813,31.383984 35.177,34.755468 36,35 42,43.617578 V 33 Z M 36.000145,42.8 36.013855,46.305468 38,48.5 42,50 Z"
       id="path8" /></g></svg>
