<?xml version="1.0" encoding="UTF-8" standalone="no"?>
<svg
   id="_图层_1"
   data-name="图层_1"
   version="1.1"
   viewBox="0 0 128 128"
   width="16"
   height="16"
   sodipodi:docname="application-x-mswinurl.svg"
   xml:space="preserve"
   inkscape:version="1.4 (e7c3feb100, 2024-10-09)"
   xmlns:inkscape="http://www.inkscape.org/namespaces/inkscape"
   xmlns:sodipodi="http://sodipodi.sourceforge.net/DTD/sodipodi-0.dtd"
   xmlns="http://www.w3.org/2000/svg"
   xmlns:svg="http://www.w3.org/2000/svg"><sodipodi:namedview
     id="namedview3"
     pagecolor="#505050"
     bordercolor="#eeeeee"
     borderopacity="1"
     inkscape:showpageshadow="0"
     inkscape:pageopacity="0"
     inkscape:pagecheckerboard="0"
     inkscape:deskcolor="#505050"
     inkscape:zoom="8.453125"
     inkscape:cx="31.94085"
     inkscape:cy="36.672828"
     inkscape:window-width="1920"
     inkscape:window-height="939"
     inkscape:window-x="0"
     inkscape:window-y="34"
     inkscape:window-maximized="1"
     inkscape:current-layer="_图层_1" /><!-- Generator: Adobe Illustrator 29.0.1, SVG Export Plug-In . SVG Version: 2.1.0 Build 192)  --><defs
     id="defs1"><style
       id="style1">
      .st0 {
        fill: #0071e9;
      }

      .st1 {
        fill: #fff;
      }

      .st2 {
        fill: #5aaaff;
        isolation: isolate;
        opacity: .5;
      }
    </style></defs><path
     class="st0"
     d="M18.2,0c-5.6,0-10.2,4.6-10.2,10.2v107.6c0,5.6,4.6,10.2,10.2,10.2h91.6c5.6,0,10.2-4.6,10.2-10.2V40.6L82.2,0H18.2Z"
     id="path1"
     style="fill:#2095f2;fill-opacity:1" /><path
     class="st2"
     d="M 83.028096,2.8391867 V 32.039187 c 0,3.2 2.124263,11.6 11.780006,11.6 H 119.5268 Z"
     id="path2"
     style="fill:#1a77c2;stroke-width:0.982636;fill-opacity:1" /><path
     class="st2"
     d="M 82.565621,0.11090591 V 29.310906 c 0,3.2 2.2,11.6 12.2,11.6 h 25.599999 z"
     id="path2-3"
     style="opacity:1;isolation:isolate;fill:#7cc0f5;fill-opacity:1" /><path
     d="m 66.720886,46.665434 c -20.769741,0 -37.500923,16.045045 -37.500923,35.963033 0,19.917983 16.731182,35.963033 37.500923,35.963033 20.769745,0 37.500934,-16.04505 37.500934,-35.963033 0,-19.917988 -16.731189,-35.963033 -37.500934,-35.963033 z M 34.12393,82.628467 c 0,-7.469247 2.884686,-14.385214 7.500185,-19.917988 0.576937,0.553277 0.865406,1.383194 1.153875,2.213109 0.288468,1.936472 -1.153875,8.299162 0.865406,9.682355 2.884686,2.213111 7.211717,0.276639 9.230997,1.659834 2.307749,1.383191 7.788654,7.469245 10.096403,6.08605 3.75009,-2.213111 -2.596219,-10.512271 -2.884685,-12.725381 -0.28847,-3.319663 1.730809,-7.192606 5.76937,-5.809412 2.596217,0.829916 2.884687,4.14958 5.480906,4.14958 2.307747,0 1.153876,-6.915967 1.153876,-8.022522 0,-3.043027 3.173157,-5.532775 6.634778,-6.639329 11.827214,4.702859 20.192817,15.768407 20.192817,28.770424 0,5.256136 -1.442344,10.235633 -3.750104,14.385211 -0.28847,-2.766383 -0.865412,-5.809409 -2.884685,-6.915964 -3.461626,-1.936471 -7.21172,0 -10.096404,-3.043025 -1.153878,-1.106556 0.28847,-6.639329 -3.173154,-8.022524 -6.634783,-2.489748 -12.115685,2.766387 -13.846495,6.915968 -0.57694,1.659836 -0.86541,3.872941 -0.57694,6.086052 0,6.639323 -3.461626,6.639323 -2.30775,9.405715 1.442344,3.04302 6.923247,1.93646 5.769372,8.02253 -0.288467,0.82992 -0.576937,1.65983 -1.442342,2.48975 -0.57694,0.27664 -1.153875,0.82992 -2.01928,1.10655 -0.28847,0 -0.865406,0.27664 -1.153876,0.27664 C 47.681957,112.50545 34.12393,98.950148 34.12393,82.628467 Z"
     fill="#2c86ff"
     p-id="28009"
     id="path1-1"
     style="stroke-width:0.0717265;fill:#1a77c2;fill-opacity:1" /><path
     d="m 67.049908,44.151571 c -20.76974,0 -37.50092,16.045045 -37.50092,35.963033 0,19.917986 16.73118,35.963036 37.50092,35.963036 20.76974,0 37.500942,-16.04505 37.500942,-35.963036 0,-19.917988 -16.731202,-35.963033 -37.500942,-35.963033 z m -32.59696,35.963033 c 0,-7.469247 2.88469,-14.385214 7.50019,-19.917988 0.57694,0.553277 0.8654,1.383194 1.15387,2.213109 0.28847,1.936472 -1.15387,8.299162 0.86541,9.682355 2.88469,2.213111 7.21172,0.276639 9.231,1.659834 2.30775,1.383191 7.78865,7.469245 10.0964,6.08605 3.75009,-2.213111 -2.59622,-10.512271 -2.88469,-12.725381 -0.28847,-3.319663 1.73081,-7.192606 5.76937,-5.809412 2.59622,0.829916 2.88469,4.14958 5.48091,4.14958 2.30775,0 1.15388,-6.915967 1.15388,-8.022522 0,-3.043027 3.17315,-5.532775 6.63477,-6.639329 11.82722,4.702859 20.19282,15.768407 20.19282,28.770424 0,5.256136 -1.44234,10.235633 -3.7501,14.385211 -0.28847,-2.766383 -0.86541,-5.809409 -2.88469,-6.915964 -3.46162,-1.936471 -7.21172,0 -10.0964,-3.043025 -1.15388,-1.106556 0.28847,-6.639329 -3.17316,-8.022524 -6.63478,-2.489748 -12.11568,2.766387 -13.84649,6.915968 -0.57694,1.659836 -0.86541,3.872941 -0.57694,6.086052 0,6.639323 -3.46163,6.639323 -2.30775,9.405715 1.44234,3.043023 6.92325,1.936463 5.76937,8.022533 -0.28847,0.82992 -0.57694,1.65983 -1.44234,2.48975 -0.57694,0.27664 -1.15388,0.82992 -2.01928,1.10655 -0.28847,0 -0.86541,0.27664 -1.15388,0.27664 -16.15424,-0.27664 -29.71227,-13.831945 -29.71227,-30.153626 z"
     fill="#2c86ff"
     p-id="28009"
     id="path1-1-7"
     style="stroke-width:0.0717265;fill:#ffffff;fill-opacity:1" /></svg>
