<?xml version="1.0" encoding="UTF-8"?>
<svg id="_图层_1" data-name="图层_1" xmlns="http://www.w3.org/2000/svg" version="1.1" viewBox="0 0 128 128" width="16" height="16">
  <!-- Generator: Adobe Illustrator 29.0.1, SVG Export Plug-In . SVG Version: 2.1.0 Build 192)  -->
  <defs>
    <style>
      .st0, .st1 {
        fill: #fff;
      }

      .st2 {
        fill: #ff9099;
      }

      .st3 {
        fill: #ff4f5d;
      }

      .st1 {
        fill-opacity: 0;
      }
    </style>
  </defs>
  <path class="st1" d="M8,0h112V128H8V0Z"/>
  <path class="st3" d="M18.2,0C12.6,0,8,4.6,8,10.2v107.6c0,5.6,4.6,10.2,10.2,10.2h91.6c5.6,0,10.2-4.6,10.2-10.2V40.6L82.2,0H18.2Z"/>
  <path class="st2" d="M82.2,0v29.1c0,3.2,2.2,11.6,12.2,11.6h25.7L82.2,0Z"/>
  <path class="st0" d="M45.2,106.7c-.5,0-1,0-1.5-.2l-1.5-.2-1.4-.5c-.5-.2-1-.3-1.4-.6s-.9-.5-1.4-.7c-.4-.2-.9-.6-1.3-.9-.4-.3-.8-.6-1.2-1-.4-.3-.7-.7-1-1-.4-.4-.7-.8-1-1.2-.3-.4-.6-.8-.9-1.3-.3-.4-.5-.9-.7-1.4-.3-.4-.5-.9-.6-1.4-.2-.4-.4-.9-.5-1.4-.2-.5-.3-1-.4-1.5l-.2-1.5v-3.1l.2-1.5c0-.5.2-1,.4-1.5.1-.5.3-1,.5-1.4.1-.5.4-1,.6-1.4.2-.5.4-.9.7-1.4.3-.5.6-.9.9-1.3s.6-.8,1-1.2c.3-.3.6-.7,1-1,.4-.4.8-.7,1.2-1,.4-.3.9-.6,1.3-.9.5-.2.9-.5,1.4-.7.5-.2,1-.4,1.4-.6l1.4-.5,1.5-.2c.5,0,1.8-.2,2.2-.2h22.2c0,0,.8,0,.8,0,.4,0,.8,0,1.1-.2.4,0,.8-.2,1.1-.3.4,0,.8-.2,1.1-.4.4-.2.7-.3,1-.5.4-.2.7-.4,1-.6.3-.2.6-.4.9-.6s.6-.6.9-.8c.3-.3.6-.6.8-.9l.7-1c.2-.3.4-.6.6-1,.2-.4.3-.7.5-1,.2-.4.3-.7.4-1.1.2-.4.2-.8.3-1.2l.2-1.2c0-.4,0-.8,0-1.2s0-.8,0-1.2c0-.4,0-.8,0-1.2,0-.3-.2-.7-.3-1.2,0-.3-.2-.7-.3-1.1-.2-.3-.3-.7-.5-1.1-.2-.3-.4-.7-.6-1-.2-.3-.5-.6-.6-1-.2-.3-.5-.6-.8-.9-.2-.3-.6-.6-.8-.9-.3-.2-.6-.5-1-.7-.3-.3-.6-.5-1-.6-.3-.2-.6-.4-1-.6-.2,0-1-.4-1.1-.5-.3,0-.7-.2-1.1-.3-.3,0-.7-.2-1.1-.2s-1.4,0-1.8,0h-8.8v19.5c0,.4,0,.8-.2,1.1-.2.3-.3.6-.6.9-.2.3-.6.5-.9.6-.3.2-.7.2-1,.2h-4.6c-.4,0-.8,0-1.1-.2-.3-.1-.6-.4-.9-.6-.3-.3-.5-.6-.6-.9-.1-.3-.2-.7-.2-1.1v-24.7c0-.4,0-.7,0-1s.2-.6.3-1c0-.3.6-1,.7-1.3,0-.2,1-1,1.1-1,.2-.2.6-.4.9-.5.2,0,.8-.3,1-.3.2,0,.8,0,1-.2h14c1.5,0,3.1.2,4.6.6,1.4.2,2.7.7,4,1.3,1.1.5,2.2,1,3.1,1.7,2.6,1.6,4.8,3.8,6.5,6.4,1.6,2.3,2.8,4.9,3.4,7.7.4,1.8.6,3.4.6,5.2s-.2,3.5-.6,5.2c-.3,1.2-.6,2.3-1.1,3.5-.6,1.4-1.3,2.8-2.1,4-.8,1.1-1.6,2.2-2.5,3.1-1.2,1.3-2.5,2.3-3.8,3.3-2.1,1.5-4.5,2.5-7,3.1-1.4.3-3.6.6-5.1.6h-22.2c0,0-.9.2-1,.2-.2,0-.8.3-1,.4-.3.2-.6.3-1,.6-.2,0-.6.6-.8.7-.2.2-.5.6-.6.9-.2.3-.4.7-.5,1,0,.2-.3.9-.3,1,0,.4-.2.8-.2,1.1s0,.8.2,1.2c0,.2.2.9.3,1,0,.4.2.7.5,1,.2.3.4.6.6.9l.8.7c.3.2.6.4,1,.6.2.2,1,.4,1.2.5.3,0,1,0,1.3,0h2.6v-6.7c0-.4,0-.8.2-1.1.2-.3.4-.6.6-.9.2-.3.6-.5.9-.6.3-.2.7-.2,1.1-.2h4.6c.3,0,.7,0,1,.2s.6.3.9.6c.3.2.5.6.6.9s.2.7.2,1.1v12c0,.2,0,.6,0,.9,0,.3-.2.6-.2.9-.2.3-.8,1.4-1,1.6-.2.2-1.2,1-1.4,1.2,0,0-.8.3-.9.4-.3,0-1.2.2-1.5.2,0,0-8.6,0-8.6,0Z"/>
</svg>