<?xml version="1.0" encoding="UTF-8" standalone="no"?>
<svg
   id="_图层_1"
   data-name="图层_1"
   version="1.1"
   viewBox="0 0 128 128"
   width="16"
   height="16"
   sodipodi:docname="text-x-xges.svg"
   xml:space="preserve"
   inkscape:version="1.4 (e7c3feb100, 2024-10-09)"
   xmlns:inkscape="http://www.inkscape.org/namespaces/inkscape"
   xmlns:sodipodi="http://sodipodi.sourceforge.net/DTD/sodipodi-0.dtd"
   xmlns="http://www.w3.org/2000/svg"
   xmlns:svg="http://www.w3.org/2000/svg"><sodipodi:namedview
     id="namedview3"
     pagecolor="#505050"
     bordercolor="#eeeeee"
     borderopacity="1"
     inkscape:showpageshadow="0"
     inkscape:pageopacity="0"
     inkscape:pagecheckerboard="0"
     inkscape:deskcolor="#505050"
     inkscape:zoom="10.6875"
     inkscape:cx="32"
     inkscape:cy="26.19883"
     inkscape:window-width="1920"
     inkscape:window-height="939"
     inkscape:window-x="0"
     inkscape:window-y="34"
     inkscape:window-maximized="1"
     inkscape:current-layer="_图层_1" /><!-- Generator: Adobe Illustrator 29.0.1, SVG Export Plug-In . SVG Version: 2.1.0 Build 192)  --><defs
     id="defs1"><style
       id="style1">
      .st0 {
        fill: #0071e9;
      }

      .st1 {
        fill: #fff;
      }

      .st2 {
        fill: #5aaaff;
        isolation: isolate;
        opacity: .5;
      }
    </style></defs><path
     class="st0"
     d="M18.2,0c-5.6,0-10.2,4.6-10.2,10.2v107.6c0,5.6,4.6,10.2,10.2,10.2h91.6c5.6,0,10.2-4.6,10.2-10.2V40.6L82.2,0H18.2Z"
     id="path1"
     style="fill:#e4e4e4;fill-opacity:1" /><path
     class="st2"
     d="m 82.761404,2.619883 v 29.2 c 0,3.2 2.145542,11.6 11.89801,11.6 h 24.966316 z"
     id="path2"
     style="fill:#b6b6b6;fill-opacity:1;stroke-width:0.987546" /><path
     class="st2"
     d="M 82.116964,0.02339171 V 29.223392 c 0,3.2 2.2,11.6 12.2,11.6 h 25.599996 z"
     id="path2-3"
     style="opacity:1;isolation:isolate;fill:#fafafa;fill-opacity:1" /><g
     id="g7"
     transform="matrix(2.5443913,0,0,2.2790602,-17.420521,-8.9700421)"><path
       style="opacity:0.1"
       d="M 22.714287,31 C 20.656571,31 19,32.635335 19,34.666666 V 49.333334 C 19,51.364666 20.656571,53 22.714287,53 H 41.285713 C 43.343429,53 45,51.364666 45,49.333334 V 31 H 41.285713 L 43.142857,34.367 41.285713,38 H 37.571429 L 39.428572,34.367 37.571429,31 H 33.857144 L 35.714285,34.367 33.857144,38 H 30.142857 L 32,34.367 30.142857,31 H 26.428572 L 28.285713,34.367 26.428572,38 h -3.714285 l 1.857141,-3.633 z"
       id="path6" /><path
       style="fill:#813d9c"
       d="M 22.714287,30 C 20.656571,30 19,31.635335 19,33.666666 V 48.333334 C 19,50.364666 20.656571,52 22.714287,52 H 41.285713 C 43.343429,52 45,50.364666 45,48.333334 V 30 H 41.285713 L 43.142857,33.367 41.285713,37 H 37.571429 L 39.428572,33.367 37.571429,30 H 33.857144 L 35.714285,33.367 33.857144,37 H 30.142857 L 32,33.367 30.142857,30 H 26.428572 L 28.285713,33.367 26.428572,37 h -3.714285 l 1.857141,-3.633 z"
       id="path7" /></g></svg>
