<?xml version="1.0" encoding="UTF-8" standalone="no"?>
<svg
   id="_图层_1"
   data-name="图层_1"
   version="1.1"
   viewBox="0 0 128 128"
   width="16"
   height="16"
   sodipodi:docname="text-x-erlang.svg"
   xml:space="preserve"
   inkscape:version="1.4 (e7c3feb100, 2024-10-09)"
   xmlns:inkscape="http://www.inkscape.org/namespaces/inkscape"
   xmlns:sodipodi="http://sodipodi.sourceforge.net/DTD/sodipodi-0.dtd"
   xmlns="http://www.w3.org/2000/svg"
   xmlns:svg="http://www.w3.org/2000/svg"><sodipodi:namedview
     id="namedview3"
     pagecolor="#505050"
     bordercolor="#eeeeee"
     borderopacity="1"
     inkscape:showpageshadow="0"
     inkscape:pageopacity="0"
     inkscape:pagecheckerboard="0"
     inkscape:deskcolor="#505050"
     inkscape:zoom="10.6875"
     inkscape:cx="32"
     inkscape:cy="18.71345"
     inkscape:window-width="1920"
     inkscape:window-height="939"
     inkscape:window-x="0"
     inkscape:window-y="34"
     inkscape:window-maximized="1"
     inkscape:current-layer="_图层_1"
     showguides="true"><sodipodi:guide
       position="7.6134526,83.439664"
       orientation="1,0"
       id="guide7"
       inkscape:locked="false" /><sodipodi:guide
       position="120.24109,71.856006"
       orientation="1,0"
       id="guide8"
       inkscape:locked="false" /></sodipodi:namedview><!-- Generator: Adobe Illustrator 29.0.1, SVG Export Plug-In . SVG Version: 2.1.0 Build 192)  --><defs
     id="defs1"><style
       id="style1">
      .st0 {
        fill: #0071e9;
      }

      .st1 {
        fill: #fff;
      }

      .st2 {
        fill: #5aaaff;
        isolation: isolate;
        opacity: .5;
      }
    </style></defs><path
     class="st0"
     d="M18.2,0c-5.6,0-10.2,4.6-10.2,10.2v107.6c0,5.6,4.6,10.2,10.2,10.2h91.6c5.6,0,10.2-4.6,10.2-10.2V40.6L82.2,0H18.2Z"
     id="path1"
     style="fill:#be0539;fill-opacity:1" /><path
     class="st2"
     d="m 82.761404,2.619883 v 29.2 c 0,3.2 2.145542,11.6 11.89801,11.6 h 24.966316 z"
     id="path2"
     style="fill:#98042e;fill-opacity:1;stroke-width:0.987546" /><path
     class="st2"
     d="M 82.116964,0.02339171 V 29.223392 c 0,3.2 2.2,11.6 12.2,11.6 h 25.599996 z"
     id="path2-3"
     style="opacity:1;isolation:isolate;fill:#d33b64;fill-opacity:1" /><g
     id="g8"
     transform="matrix(2.5528974,0,0,2.2757772,-17.692717,-9.0153893)"><path
       style="opacity:0.2"
       d="m 32.488282,28 c -2.89374,0 -5.439752,0.56945 -7.640626,1.710938 -2.160118,1.141486 -3.85151,2.77161 -5.074218,4.886718 C 18.591487,36.712764 18,39.248688 18,42.203124 c 0,2.988012 0.648904,5.523934 1.953125,7.60547 1.344979,2.04796 3.202507,3.588138 5.566407,4.628906 2.404658,1.040766 5.15638,1.5625 8.253906,1.5625 9.200758,-0.02378 12.78125,-6.949218 12.78125,-6.949218 l -4.96875,-2.617188 c 0,0 -1.570906,5.393166 -7.695314,5.566406 -6.124408,0.17324 -6.089842,-10 -6.089842,-10 H 46 V 40.1875 C 46,37.73666 45.448092,35.605918 44.347656,33.792968 43.287978,31.946444 41.740972,30.518914 39.703124,29.511718 37.706036,28.504522 35.300508,28 32.488282,28 Z m -0.296876,6 c 1.308916,0 2.265476,0.375544 2.871094,1.125 C 35.668114,35.857028 35.980462,36.814814 36,38 h -8 c 0.13674,-1.2549 0.55842,-2.228612 1.261718,-2.925782 C 29.98455,34.35962 30.960636,34 32.191406,34 Z"
       id="path6" /><path
       style="fill:#ffffff"
       d="m 32.488282,27 c -2.89374,0 -5.439752,0.56945 -7.640626,1.710938 -2.160118,1.141486 -3.85151,2.77161 -5.074218,4.886718 C 18.591487,35.712764 18,38.248688 18,41.203124 c 0,2.988012 0.648904,5.523934 1.953125,7.60547 1.344979,2.04796 3.202507,3.588138 5.566407,4.628906 2.404658,1.040766 5.15638,1.5625 8.253906,1.5625 9.200758,-0.02378 12.78125,-6.949218 12.78125,-6.949218 l -4.96875,-2.617188 c 0,0 -1.570906,5.393166 -7.695314,5.566406 -6.124408,0.17324 -6.089842,-10 -6.089842,-10 H 46 V 39.1875 C 46,36.73666 45.448092,34.605918 44.347656,32.792968 43.287978,30.946444 41.740972,29.518914 39.703124,28.511718 37.706036,27.504522 35.300508,27 32.488282,27 Z m -0.296876,6 c 1.308916,0 2.265476,0.375544 2.871094,1.125 C 35.668114,34.857028 35.980462,35.814814 36,37 h -8 c 0.13674,-1.2549 0.55842,-2.228612 1.261718,-2.925782 C 29.98455,33.35962 30.960636,33 32.191406,33 Z"
       id="path7" /></g></svg>
