<?xml version="1.0" encoding="UTF-8"?>
<svg xmlns="http://www.w3.org/2000/svg" version="1.1" xmlns:inkscape="http://www.inkscape.org/namespaces/inkscape" xmlns:sodipodi="http://sodipodi.sourceforge.net/DTD/sodipodi-0.dtd" xmlns:svg="http://www.w3.org/2000/svg" viewBox="0 0 64 64" width="16" height="16">
  <!-- Generator: Adobe Illustrator 29.0.1, SVG Export Plug-In . SVG Version: 2.1.0 Build 192)  -->
  <defs>
    <style>
      .st0 {
        fill-rule: evenodd;
      }

      .st0, .st1 {
        isolation: isolate;
        opacity: .2;
      }

      .st2 {
        fill: #fff;
      }

      .st3 {
        fill: #86c3db;
      }

      .st4 {
        fill: #4ab3e4;
      }

      .st5 {
        fill: #e4e4e4;
      }
    </style>
  </defs>
  <g id="_图层_1" inkscape:version="1.4 (e7c3feb100, 2024-10-09)" sodipodi:docname="application-vnd.oasis.opendocument.database.svg">
    <path id="path1" class="st4" d="M9.1,0c-2.8,0-5.1,2.3-5.1,5.1v53.8c0,2.8,2.3,5.1,5.1,5.1h45.8c2.8,0,5.1-2.3,5.1-5.1V20.3L41.1,0H9.1Z"/>
    <path id="path2" class="st1" d="M41.4,1.3v14.6c0,1.6,1.1,5.8,5.9,5.8h12.5L41.4,1.3Z"/>
    <path id="path2-3" class="st3" d="M41.1,0v14.6c0,1.6,1.1,5.8,6.1,5.8h12.8L41.1,0Z"/>
    <g>
      <path class="st1" d="M26.5,22.6v1.3h11.9v-1.3h-11.9ZM11.6,51.7v1.3c0,1.1,1,2,2.3,2h37.4c1.3,0,2.3-.9,2.3-2v-1.3c0,1.1-1,2-2.3,2H13.9c-1.3,0-2.3-.9-2.3-2Z"/>
      <path class="st5" d="M26.5,20.6l-3,2.7v4.1h-11.9v25c0,1.1,1,2,2.3,2h37.4c1.3,0,2.3-.9,2.3-2v-25h-11.9v-4.1l-3-2.7h-12ZM26.5,23.3h11.9v4.1h-11.9s0-4.1,0-4.1Z"/>
      <path class="st0" d="M56.5,48.2c-.3,5.3-5.3,9.5-11.2,9.5s-10.8-4.1-11.2-9.4v.6c0,5.6,5,10.2,11.2,10.2s11.2-4.5,11.2-10.2v-.8Z"/>
      <ellipse class="st4" cx="45.2" cy="48.2" rx="11.2" ry="10.2"/>
      <path class="st2" d="M47.5,42.2v5.4h2.3l-4.5,5.4-4.5-5.4h2.3v-5.4h4.5ZM40,53h10.5v1.3h-10.5s0-1.3,0-1.3Z"/>
    </g>
  </g>
</svg>