<?xml version="1.0" encoding="UTF-8" standalone="no"?>
<svg
   id="_图层_1"
   version="1.1"
   viewBox="0 0 64 64"
   width="48" height="48"
   sodipodi:docname="115网盘.svg"
   xml:space="preserve"
   inkscape:version="1.4 (e7c3feb100, 2024-10-09)"
   xmlns:inkscape="http://www.inkscape.org/namespaces/inkscape"
   xmlns:sodipodi="http://sodipodi.sourceforge.net/DTD/sodipodi-0.dtd"
   xmlns="http://www.w3.org/2000/svg"
   xmlns:svg="http://www.w3.org/2000/svg"><sodipodi:namedview
     id="namedview26"
     pagecolor="#505050"
     bordercolor="#eeeeee"
     borderopacity="1"
     inkscape:showpageshadow="0"
     inkscape:pageopacity="0"
     inkscape:pagecheckerboard="0"
     inkscape:deskcolor="#505050"
     inkscape:zoom="10.6875"
     inkscape:cx="32"
     inkscape:cy="46.97076"
     inkscape:window-width="1920"
     inkscape:window-height="939"
     inkscape:window-x="0"
     inkscape:window-y="34"
     inkscape:window-maximized="1"
     inkscape:current-layer="_图层_1" /><!-- Generator: Adobe Illustrator 29.0.1, SVG Export Plug-In . SVG Version: 2.1.0 Build 192)  --><defs
     id="defs6"><style
       id="style1">
      .st0 {
        fill-opacity: .5;
      }

      .st0, .st1, .st2, .st3, .st4, .st5, .st6, .st7 {
        fill: #fff;
      }

      .st8 {
        fill: #133c9a;
      }

      .st2, .st9 {
        display: none;
      }

      .st3 {
        fill-opacity: .2;
      }

      .st4 {
        fill-opacity: .9;
      }

      .st10 {
        fill: #3370ff;
      }

      .st11 {
        fill: url(#_未命名的渐变_3);
      }

      .st12 {
        fill: url(#_未命名的渐变);
      }

      .st5 {
        fill-opacity: .3;
      }

      .st6 {
        fill-opacity: 0;
      }

      .st7 {
        fill-opacity: .7;
      }

      .st13 {
        fill: #00d6b9;
      }

      .st14 {
        fill: url(#_未命名的渐变_2);
      }
    </style><radialGradient
       id="_未命名的渐变"
       data-name="未命名的渐变"
       cx="123.9"
       cy="-40.2"
       fx="123.9"
       fy="-40.2"
       r="59.4"
       gradientTransform="translate(-26.8 25.5) scale(.6 -.7)"
       gradientUnits="userSpaceOnUse"><stop
         offset="0"
         stop-color="#db202e"
         id="stop1" /><stop
         offset="1"
         stop-color="#e01b24"
         id="stop2" /></radialGradient><radialGradient
       id="_未命名的渐变_2"
       data-name="未命名的渐变 2"
       cx="67.6"
       cy="26.8"
       fx="67.6"
       fy="26.8"
       r="105.2"
       gradientTransform="translate(-26.6 25.3) scale(.6 -.7)"
       gradientUnits="userSpaceOnUse"><stop
         offset="0"
         stop-color="#ffb648"
         id="stop3" /><stop
         offset="1"
         stop-color="#ff7800"
         stop-opacity="0"
         id="stop4" /></radialGradient><radialGradient
       id="_未命名的渐变_3"
       data-name="未命名的渐变 3"
       cx="61.7"
       cy="18.6"
       fx="61.7"
       fy="18.6"
       r="68"
       gradientTransform="translate(-26.8 25.8) scale(.6 -.7)"
       gradientUnits="userSpaceOnUse"><stop
         offset="0"
         stop-color="#c64600"
         id="stop5" /><stop
         offset="1"
         stop-color="#a51d2d"
         id="stop6" /></radialGradient></defs><path
     class="st1"
     d="M47.5,64.1H13.8c-7.6,0-13.8-6.3-13.8-13.8V13.7C0,6.2,6.2,0,13.7,0h36.6c7.5,0,13.7,6.2,13.7,13.7v36.6c0,7.5-6.2,13.7-13.7,13.7h-2.9.1Z"
     id="path6"
     style="fill:#1851d1;fill-opacity:1" /><g
     id="g26"
     transform="matrix(0.0627151,0,0,0.0626215,-0.0445423,0.0728686)"><path
       d="m 227.84,429.568 c 1.536,-2.56 2.56,-5.632 3.584,-7.68 C 275.456,333.824 320,246.272 363.52,157.696 c 10.752,-22.016 28.16,-31.744 51.2,-31.744 h 203.264 c 26.624,0 54.272,-0.512 80.896,0 28.16,0.512 55.808,-5.12 82.432,-14.336 2.048,-0.512 5.12,-2.048 6.656,-1.536 6.656,0.512 10.24,7.68 7.68,14.336 -12.8,26.112 -26.112,52.224 -40.448,78.336 -10.24,18.432 -26.624,28.16 -47.104,28.16 h -225.28 c -24.576,0 -42.496,10.752 -52.736,33.792 -10.24,21.504 -21.504,42.496 -32.256,64 -1.536,2.048 -2.048,4.096 -3.584,6.656 14.848,3.584 30.208,6.144 44.544,8.704 44.544,9.728 90.112,19.456 132.096,38.4 62.464,27.648 114.176,68.096 148.992,126.976 21.504,35.84 34.304,73.216 36.864,114.688 7.68,95.232 -27.648,173.056 -98.816,235.008 -48.64,41.984 -105.472,66.56 -168.448,78.336 -36.864,6.656 -74.24,8.704 -111.104,6.144 -41.984,-3.584 -82.432,-14.336 -120.32,-33.792 -0.512,-0.512 -1.536,-0.512 -3.584,-2.048 7.68,0.512 12.8,1.536 18.432,1.536 57.856,5.12 114.176,-1.536 168.448,-19.968 47.104,-16.384 90.112,-40.448 124.416,-78.848 28.16,-31.744 44.032,-68.096 49.152,-110.08 7.68,-57.856 -13.824,-104.96 -51.2,-146.944 -38.4,-41.984 -86.016,-68.608 -139.264,-86.528 -41.472,-13.824 -82.944,-23.552 -126.464,-29.696 -22.016,-3.584 -44.544,-5.632 -66.56,-7.68 -1.024,1.024 -1.536,1.024 -3.584,0 z"
       fill="#ffffff"
       p-id="10687"
       id="path3" /></g></svg>
