<?xml version="1.0" encoding="UTF-8"?>
<svg id="_图层_1" xmlns="http://www.w3.org/2000/svg" version="1.1" viewBox="0 0 64 64" width="48" height="48">
  <!-- Generator: Adobe Illustrator 29.0.1, SVG Export Plug-In . SVG Version: 2.1.0 Build 192)  -->
  <defs>
    <style>
      .st0, .st1, .st2, .st3, .st4, .st5 {
        display: none;
      }

      .st0, .st1, .st6 {
        isolation: isolate;
      }

      .st0, .st6 {
        opacity: .2;
      }

      .st1 {
        opacity: .1;
      }

      .st1, .st7 {
        fill: #fff;
      }

      .st8, .st2 {
        fill: #1940ae;
      }

      .st9 {
        fill: #00ad9a;
      }

      .st10 {
        fill: #cdb5d7;
      }

      .st4 {
        fill: #502e8e;
      }

      .st5 {
        fill: #455a64;
      }

      .st11 {
        fill: #1092ff;
      }
    </style>
  </defs>
  <path class="st8" d="M50.4,64H13.8c-7.6,0-13.8-6.2-13.8-13.7V13.7C0,6.2,6.2,0,13.7,0h36.6c7.5,0,13.7,6.2,13.7,13.7v36.6c0,7.5-6.2,13.7-13.7,13.7h.1Z"/>
  <g class="st3">
    <ellipse class="st0" cx="32" cy="32.9" rx="32" ry="31.8"/>
    <ellipse class="st5" cx="32" cy="31.8" rx="32" ry="31.8"/>
    <path class="st6" d="M35.6,19.3c-1.4-.2-3,.3-4,1.4.3.6,2,.3,2.6,1.1.9.8,2.5,2.5,1.3,3.7-4.6,4.4-10.1,9.9-14.7,14.4-.8,1-2.3,1.7-2.5,3.2.3,1.4,1.5,2.5,2.5,3.3.5.2,1.1.1,1.4-.3,6-6.4,10.3-11.8,15.8-17.9.7-.6,1.8-.5,1.8.7-.8,1.3,1.2,2.1,1.8,3.1.7.5,1.2-.5,1.7-.9.8-1,2.3-1.6,2.4-3-.9-.9-1.6-3-2.9-2.4-1.3-.6-.8-2.8-2.1-3.5-1.1-.9-2.5-1.1-3.5-2.3-.5-.3-1.1-.5-1.6-.5Z"/>
    <path class="st9" d="M35.6,18.2c-1.4-.2-3,.3-4,1.4.3.6,2,.3,2.6,1.1.9.8,2.5,2.5,1.3,3.7-4.6,4.4-10.1,9.9-14.7,14.4-.8,1-2.3,1.7-2.5,3.2.3,1.4,1.5,2.5,2.5,3.3.5.2,1.1.1,1.4-.3,6-6.4,10.3-11.8,15.8-17.9.7-.6,1.8-.5,1.8.7-.8,1.3,1.2,2.1,1.8,3.1.7.5,1.2-.5,1.7-.9.8-1,2.3-1.6,2.4-3-.9-.9-1.6-3-2.9-2.4-1.3-.6-.8-2.8-2.1-3.5-1.1-.9-2.5-1.1-3.5-2.3-.5-.3-1.1-.5-1.6-.5Z"/>
    <path class="st6" d="M23.4,19.3c-.5,0-.9,0-1.4,0-2.1.1-.8,1.7.5,2,2.1.6,2.1,2.9.8,4.4-1.1,1.9-2.8,0-4.2-.5-2-.3,0,2.4.6,3.1.9,1.4,2.5,2.1,4.2,1.9,2.1-.3,3.5,1.5,4.9,2.8,3.8,3.5,7.7,7.4,11.6,11.3.6.5,1.2,1,1.6,1.6,2.1,2,5.3-1.2,2.9-3.7-4.9-4.5-9.9-9.6-14.5-14-.7-.7-1.4-1.5-1.9-2.4-.8-1.6,0-3.8-1.4-5.2-1-1.1-2.4-1.3-3.7-1.3Z"/>
    <path class="st11" d="M23.4,18.2c-.5,0-.9,0-1.4,0-2.1.1-.8,1.7.5,2,2.1.6,2.1,2.9.8,4.4-1.1,1.9-2.8,0-4.2-.5-2-.3,0,2.4.6,3.1.9,1.4,2.5,2.1,4.2,1.9,2.1-.3,3.5,1.5,4.9,2.8,3.8,3.5,7.7,7.4,11.6,11.3.6.5,1.2,1,1.6,1.6,2.1,2,5.3-1.2,2.9-3.7-4.9-4.5-9.9-9.6-14.5-14-.7-.7-1.4-1.5-1.9-2.4-.8-1.6,0-3.8-1.4-5.2-1-1.1-2.4-1.3-3.7-1.3Z"/>
    <path class="st1" d="M32,0C14.3,0,0,14.2,0,31.8c0,.2,0,.4,0,.6C.3,15,14.6,1.1,32,1.1c17.5,0,31.7,13.9,32,31.2,0-.2,0-.4,0-.6C64.1,14.2,49.7,0,32,0Z"/>
  </g>
  <g class="st3">
    <path class="st0" d="M0,60.1v2.3C0,64.2,1.4,65.6,3.2,65.6h57.5c1.8,0,3.2-1.4,3.2-3.2v-2.3c0,1.8-1.4,3.2-3.2,3.2H3.2C1.4,63.3,0,61.9,0,60.1H0Z"/>
    <path class="st4" d="M3.2,0h57.5c1.8,0,3.2,1.4,3.2,3.2v58c0,1.8-1.4,3.2-3.2,3.2H3.2c-1.8,0-3.2-1.4-3.2-3.2V3.2C0,1.4,1.4,0,3.2,0Z"/>
    <path class="st1" d="M3.2,0C1.4,0,0,1.4,0,3.2v1.2C0,2.6,1.4,1.2,3.2,1.2h57.5c1.8,0,3.2,1.4,3.2,3.2v-1.2c0-1.8-1.4-3.2-3.2-3.2H3.2Z"/>
    <path class="st6" d="M18.3,17.3l-6.8,32.2h6.8l1.2-9.2h4l1.7,9.2h6.8l-8-32.2h-5.7ZM21.1,27.6l1.5,8.1h-2.5l1.1-8.1Z"/>
    <path class="st10" d="M18.3,16.1l-6.8,32.2h6.8l1.2-9.2h4l1.7,9.2h6.8l-8-32.2h-5.7ZM21.1,26.5l1.5,8.1h-2.5l1.1-8.1Z"/>
    <path class="st6" d="M44.5,24.2c-4.4,0-8,5.7-8,12.7s3.6,12.7,8,12.7c.8,0,3.8-.4,4.6-.8v-6.1c-.6,1.3-3.7,2.3-4.6,2.3-1.3,0-2.5-1.8-3.1-4.6h10.8c.2-1.1.3-2.3.3-3.5,0-7-3.6-12.7-8-12.7ZM44.5,28.8c1.7,0,3.1,2.9,3.4,6.9h-6.8c.2-4,1.7-6.9,3.4-6.9Z"/>
    <path class="st10" d="M44.5,23c-4.4,0-8,5.7-8,12.7s3.6,12.7,8,12.7c.8,0,3.8-.4,4.6-.8v-6.1c-.6,1.3-3.7,2.3-4.6,2.3-1.3,0-2.5-1.8-3.1-4.6h10.8c.2-1.1.3-2.3.3-3.5,0-7-3.6-12.7-8-12.7ZM44.5,27.6c1.7,0,3.1,2.9,3.4,6.9h-6.8c.2-4,1.7-6.9,3.4-6.9Z"/>
  </g>
  <g>
    <ellipse class="st0" cx="31.9" cy="33.3" rx="31.9" ry="31.8"/>
    <ellipse class="st2" cx="31.9" cy="32.1" rx="31.9" ry="31.8"/>
    <path class="st6" d="M30.4,54.6c-1.8-3.3-1.8-5.1-.3-7.7l.9-1.5-1.9-1.5c-2.9-2.4-3.9-3-3.9-5.2s1-4.2,1.8-4.2.3-.2.3-.5-.9-.6-2.1-.8c-2.6-.5-4.1-1.5-4.1-3,0-1,1.4-2.1,4.3-3.4,2.2-1,3-1.5,2.6-1.8-.3-.3-1-.3-1.7-.1-.7.2-1.2,0-1.2-.2s-.8-.5-1.7-.5c-3.2,0-3.8,0-4.2-.4-.2-.2-.9-.4-1.5-.5-.6,0-1.3-.5-1.6-.9-.5-.7-.3-.8,1.2-1.1,2.4-.5,4.7-2.9,6.3-5.1,3-3.8,3.9-4.1,4.6-1.3.4,1.4,1.8,2.8,2.3,2.3,0-.1-.2-1-.5-2-.6-1.7-.6-1.9,0-3.1.7-1.6,2.4-1.8,3.3-.4.8,1.2.8,2.6,0,3.9-.9,1.5,0,2.4,1.1,1.3.5-.5.9-1.1.9-1.4s.3-1,.7-1.6c.9-1.3,1.5-.9,4,2.3,1.9,2.5,3.9,4.7,6.3,5.2,1.6.3,1.7.4,1.2,1.2-.3.4-1,.9-1.6.9-.6,0-1.3.3-1.7.5-.4.2-1,.3-1.5,0-.5-.2-1,0-1.1.2-.1.3-.8.4-1.6.2-.9-.2-1.5-.1-1.6.2-.1.3-.7.4-1.5.3-.7-.2-1.3,0-1.4.2-.1.3.8,1,2.4,1.7,3.2,1.3,4.3,2.3,4.3,3.6s-1.3,2.5-3.5,2.9c-1.1.2-1.9.5-1.9.6s.5,1.1,1.1,2c1.2,1.9,1.3,2.8.7,4.5-.5,1.3-1.2,1.2-3.9,3.4l-1.9,1.6.8,1.2c.4.7.8,1.8,1,2.6.1.7.3,1.6.3,2,.2.9-2.3,4.8-3.1,4.8-.3,0-.9-.7-1.4-1.4h0ZM34.3,50.8c0-1.2-1.4-4.2-1.9-4.2s-.3,2-.3,4.5v4.5l1.1-1.8c.6-1,1.1-2.3,1.1-2.9ZM31.7,51.4c0-1.6-.2-3.4-.3-4-.3-1-.4-.9-1.1.8-.8,1.9-.8,3.5.2,5.6.8,1.8,1.2.9,1.2-2.4ZM31.4,39.9c0-4.9,0-5-.9-5-1.6,0-3.8,1.6-4,2.9-.4,2.1.2,2.4,2.5,4.3,1.2,1,2.3,1.8,2.3,1.8,0,0,0-1.3,0-4h0ZM34.9,42.1c2.4-1.8,2.7-1.3,2.7-2.8s-.6-3.2-2.1-3.8c-3-1.2-3-1.1-3,4.2s.1,3.8.3,3.8,1.1-.6,2.1-1.4ZM31.2,31.3c-.1-.9-.2-2.8-.2-4.2s-.2-2.5-.4-2.5-.3.5-.3,1.1c0,1-.3,1.3-3.6,2.5-4.9,1.8-4.9,2.6,0,3.8,5,1.2,4.7,1.2,4.4-.7ZM38.3,31.7c1.3-.3,2.4-.9,2.5-1.2.1-.6-3.3-2.3-6.2-3.1-1.4-.4-1.8-1.1-.8-1.6.5-.3.5-.4,0-.8-.9-.8-1-.4-1,3.8v4.2l1.5-.3c.9-.2,2.6-.6,3.9-.9Z"/>
    <path class="st7" d="M30.4,53.4c-1.8-3.3-1.8-5.1-.3-7.7l.9-1.5-1.9-1.5c-2.9-2.4-3.9-3-3.9-5.2s1-4.2,1.8-4.2.3-.2.3-.5-.9-.6-2.1-.8c-2.6-.5-4.1-1.5-4.1-3,0-1,1.4-2.1,4.3-3.4,2.2-1,3-1.5,2.6-1.8-.3-.3-1-.3-1.7-.1-.7.2-1.2,0-1.2-.2s-.8-.5-1.7-.5c-3.2,0-3.8,0-4.2-.4-.2-.2-.9-.4-1.5-.5-.6,0-1.3-.5-1.6-.9-.5-.7-.3-.8,1.2-1.1,2.4-.5,4.7-2.9,6.3-5.1,3-3.8,3.9-4.1,4.6-1.3.4,1.4,1.8,2.8,2.3,2.3,0-.1-.2-1-.5-2-.6-1.7-.6-1.9,0-3.1.7-1.6,2.4-1.8,3.3-.4.8,1.2.8,2.6,0,3.9-.9,1.5,0,2.4,1.1,1.3.5-.5.9-1.1.9-1.4s.3-1,.7-1.6c.9-1.3,1.5-.9,4,2.3,1.9,2.5,3.9,4.7,6.3,5.2,1.6.3,1.7.4,1.2,1.2-.3.4-1,.9-1.6.9-.6,0-1.3.3-1.7.5-.4.2-1,.3-1.5,0-.5-.2-1,0-1.1.2-.1.3-.8.4-1.6.2-.9-.2-1.5-.1-1.6.2-.1.3-.7.4-1.5.3-.7-.2-1.3,0-1.4.2-.1.3.8,1,2.4,1.7,3.2,1.3,4.3,2.3,4.3,3.6s-1.3,2.5-3.5,2.9c-1.1.2-1.9.5-1.9.6s.5,1.1,1.1,2c1.2,1.9,1.3,2.8.7,4.5-.5,1.3-1.2,1.2-3.9,3.4l-1.9,1.6.8,1.2c.4.7.8,1.8,1,2.6.1.7.3,1.6.3,2,.2.9-2.3,4.8-3.1,4.8-.3,0-.9-.7-1.4-1.4h0ZM34.3,49.7c0-1.2-1.4-4.2-1.9-4.2s-.3,2-.3,4.5v4.5l1.1-1.8c.6-1,1.1-2.3,1.1-2.9ZM31.7,50.3c0-1.6-.2-3.4-.3-4-.3-1-.4-.9-1.1.8-.8,1.9-.8,3.5.2,5.6.8,1.8,1.2.9,1.2-2.4ZM31.4,38.8c0-4.9,0-5-.9-5-1.6,0-3.8,1.6-4,2.9-.4,2.1.2,2.4,2.5,4.3,1.2,1,2.3,1.8,2.3,1.8,0,0,0-1.3,0-4h0ZM34.9,41c2.4-1.8,2.7-1.3,2.7-2.8s-.6-3.2-2.1-3.8c-3-1.2-3-1.1-3,4.2s.1,3.8.3,3.8,1.1-.6,2.1-1.4ZM31.2,30.1c-.1-.9-.2-2.8-.2-4.2s-.2-2.5-.4-2.5-.3.5-.3,1.1c0,1-.3,1.3-3.6,2.5-4.9,1.8-4.9,2.6,0,3.8,5,1.2,4.7,1.2,4.4-.7ZM38.3,30.5c1.3-.3,2.4-.9,2.5-1.2.1-.6-3.3-2.3-6.2-3.1-1.4-.4-1.8-1.1-.8-1.6.5-.3.5-.4,0-.8-.9-.8-1-.4-1,3.8v4.2l1.5-.3c.9-.2,2.6-.6,3.9-.9Z"/>
    <path class="st1" d="M31.9.3C14.3.3,0,14.6,0,32.1c0,.2,0,.4,0,.6C.3,15.4,14.5,1.5,31.9,1.5c17.4,0,31.6,13.9,31.9,31.2,0-.2,0-.4,0-.6C63.9,14.6,49.6.3,31.9.3Z"/>
  </g>
</svg>