<?xml version="1.0" encoding="UTF-8" standalone="no"?>
<svg
   id="_图层_1"
   version="1.1"
   viewBox="0 0 64 64" width="48" height="48"
   sodipodi:docname="altmediawriter.svg"
   xml:space="preserve"
   inkscape:version="1.4 (e7c3feb100, 2024-10-09)"
   xmlns:inkscape="http://www.inkscape.org/namespaces/inkscape"
   xmlns:sodipodi="http://sodipodi.sourceforge.net/DTD/sodipodi-0.dtd"
   xmlns="http://www.w3.org/2000/svg"
   xmlns:svg="http://www.w3.org/2000/svg"><sodipodi:namedview
     id="namedview26"
     pagecolor="#505050"
     bordercolor="#eeeeee"
     borderopacity="1"
     inkscape:showpageshadow="0"
     inkscape:pageopacity="0"
     inkscape:pagecheckerboard="0"
     inkscape:deskcolor="#505050"
     inkscape:zoom="10.6875"
     inkscape:cx="32"
     inkscape:cy="33.497076"
     inkscape:window-width="1920"
     inkscape:window-height="939"
     inkscape:window-x="0"
     inkscape:window-y="34"
     inkscape:window-maximized="1"
     inkscape:current-layer="_图层_1"
     showguides="true" /><!-- Generator: Adobe Illustrator 29.0.1, SVG Export Plug-In . SVG Version: 2.1.0 Build 192)  --><defs
     id="defs6"><style
       id="style1">
      .st0 {
        fill-opacity: .5;
      }

      .st0, .st1, .st2, .st3, .st4, .st5, .st6, .st7 {
        fill: #fff;
      }

      .st8 {
        fill: #133c9a;
      }

      .st2, .st9 {
        display: none;
      }

      .st3 {
        fill-opacity: .2;
      }

      .st4 {
        fill-opacity: .9;
      }

      .st10 {
        fill: #3370ff;
      }

      .st11 {
        fill: url(#_未命名的渐变_3);
      }

      .st12 {
        fill: url(#_未命名的渐变);
      }

      .st5 {
        fill-opacity: .3;
      }

      .st6 {
        fill-opacity: 0;
      }

      .st7 {
        fill-opacity: .7;
      }

      .st13 {
        fill: #00d6b9;
      }

      .st14 {
        fill: url(#_未命名的渐变_2);
      }
    </style><radialGradient
       id="_未命名的渐变"
       data-name="未命名的渐变"
       cx="123.9"
       cy="-40.2"
       fx="123.9"
       fy="-40.2"
       r="59.4"
       gradientTransform="translate(-26.8 25.5) scale(.6 -.7)"
       gradientUnits="userSpaceOnUse"><stop
         offset="0"
         stop-color="#db202e"
         id="stop1" /><stop
         offset="1"
         stop-color="#e01b24"
         id="stop2" /></radialGradient><radialGradient
       id="_未命名的渐变_2"
       data-name="未命名的渐变 2"
       cx="67.6"
       cy="26.8"
       fx="67.6"
       fy="26.8"
       r="105.2"
       gradientTransform="translate(-26.6 25.3) scale(.6 -.7)"
       gradientUnits="userSpaceOnUse"><stop
         offset="0"
         stop-color="#ffb648"
         id="stop3" /><stop
         offset="1"
         stop-color="#ff7800"
         stop-opacity="0"
         id="stop4" /></radialGradient><radialGradient
       id="_未命名的渐变_3"
       data-name="未命名的渐变 3"
       cx="61.7"
       cy="18.6"
       fx="61.7"
       fy="18.6"
       r="68"
       gradientTransform="translate(-26.8 25.8) scale(.6 -.7)"
       gradientUnits="userSpaceOnUse"><stop
         offset="0"
         stop-color="#c64600"
         id="stop5" /><stop
         offset="1"
         stop-color="#a51d2d"
         id="stop6" /></radialGradient></defs><path
     class="st1"
     d="M47.5,64.1H13.8c-7.6,0-13.8-6.3-13.8-13.8V13.7C0,6.2,6.2,0,13.7,0h36.6c7.5,0,13.7,6.2,13.7,13.7v36.6c0,7.5-6.2,13.7-13.7,13.7h-2.9.1Z"
     id="path6"
     style="fill:#f9f9f9;fill-opacity:1" /><g
     id="g40"
     transform="matrix(0.88304094,0,0,0.8768852,4.3976608,3.518775)"><rect
       style="opacity:0.2"
       width="20"
       height="22"
       x="22"
       y="39"
       rx="2"
       ry="2"
       id="rect1" /><rect
       style="fill:#c0bfbc"
       width="20"
       height="22"
       x="22"
       y="38"
       rx="2"
       ry="2"
       id="rect2" /><rect
       style="opacity:0.3"
       width="4"
       height="3"
       x="25"
       y="54"
       id="rect3" /><rect
       style="opacity:0.3"
       width="4"
       height="3"
       x="35"
       y="54"
       id="rect4" /><rect
       style="opacity:0.2"
       width="40"
       height="46"
       x="12"
       y="5"
       rx="4"
       ry="4"
       id="rect5" /><rect
       style="fill:#fdd005"
       width="40"
       height="46"
       x="12"
       y="4"
       rx="4"
       ry="4"
       id="rect6" /><path
       style="opacity:0.2"
       d="m 30.71,8.32 c -2.93,0.67 -5.26,2.55 -6.24,5.3 -0.71,1.99 -0.85,4.1 -1.32,6.14 -0.28,1.25 -1.34,3.04 -3.6,5.64 L 19,25.47 v 0.99 l 1.51,-0.06 c 2.299,-0.091 4.57,1.44 6,2.92 0.86,0.89 2.13,3.01 2.13,3.01 0.82,1.38 1.56,2.81 2.32,4.22 1.13,2.13 2.08,4.37 3.48,6.36 1.05,1.49 2.47,2.99 3.99,4.09 H 40 c -0.436,-5.034 1.52,-10.98 1.8,-15.68 0.07,-1.56 -0.06,-3.16 -0.32,-4.71 -0.53,-3.18 -2.9,-6.94 -0.59,-9.86 0.27,-0.34 0.58,-0.57 0.98,-0.93 1.23,-1.12 2.39,-2.54 2.58,-4.2 0.05,-0.38 0.04,-0.7 0.07,-0.92 0.33,-0.35 0.52,-0.89 0.46,-1.36 C 44.95,9.11 44.86,8.9 44.68,8.73 44.51,8.57 44.25,8.46 43.9,8.44 c 0.09,0.23 0.08,0.42 0.05,0.59 -0.04,0.16 -0.11,0.32 -0.24,0.49 -0.04,0.06 -0.09,0.11 -0.15,0.17 0.02,-0.12 0.02,-0.23 0,-0.34 C 43.52,9.19 43.44,9.04 43.33,8.9 43.22,8.77 43.09,8.64 42.93,8.52 42.39,8.6 41.84,8.63 41.23,8.62 40.87,8.62 40.48,8.6 40.05,8.56 38.067,8.418 35.707,8 33.84,8 32.79,8 31.75,8.08 30.71,8.32 Z"
       id="path6-4" /><path
       style="fill:#211e1e"
       d="m 30.71,7.32 c -2.93,0.67 -5.26,2.55 -6.24,5.3 -0.71,1.99 -0.85,4.1 -1.32,6.14 -0.28,1.25 -1.34,3.04 -3.6,5.64 L 19,24.47 v 0.99 l 1.51,-0.06 c 2.299,-0.091 4.57,1.44 6,2.92 0.86,0.89 2.13,3.01 2.13,3.01 0.82,1.38 1.56,2.81 2.32,4.22 1.13,2.13 2.08,4.37 3.48,6.36 1.05,1.49 2.47,2.99 3.99,4.09 H 40 c -0.436,-5.034 1.52,-10.98 1.8,-15.68 0.07,-1.56 -0.06,-3.16 -0.32,-4.71 -0.53,-3.18 -2.9,-6.94 -0.59,-9.86 0.27,-0.34 0.58,-0.57 0.98,-0.93 1.23,-1.12 2.39,-2.54 2.58,-4.2 C 44.5,10.24 44.49,9.92 44.52,9.7 44.85,9.35 45.04,8.81 44.98,8.34 44.95,8.11 44.86,7.9 44.68,7.73 44.51,7.57 44.25,7.46 43.9,7.44 c 0.09,0.23 0.08,0.42 0.05,0.59 -0.04,0.16 -0.11,0.32 -0.24,0.49 -0.04,0.06 -0.09,0.11 -0.15,0.17 0.02,-0.12 0.02,-0.23 0,-0.34 C 43.52,8.19 43.44,8.04 43.33,7.9 43.22,7.77 43.09,7.64 42.93,7.52 42.39,7.6 41.84,7.63 41.23,7.62 40.87,7.62 40.48,7.6 40.05,7.56 38.067,7.418 35.707,7 33.84,7 32.79,7 31.75,7.08 30.71,7.32 Z"
       id="path7" /><path
       style="opacity:0.3;fill:#ffffff"
       d="m 16,4 c -2.216,0 -4,1.784 -4,4 v 1 c 0,-2.216 1.784,-4 4,-4 h 32 c 2.216,0 4,1.784 4,4 V 8 C 52,5.784 50.216,4 48,4 Z"
       id="path8" /><path
       style="fill:#ffffff"
       d="m 42.551,8.051 c -3.3,0.49 -4.701,0.47 -7.621,0.16 -3.02,-0.31 -5.52,1.089 -7.25,3.18 0.49,0.43 0.61,1.268 0.23,2.048 -0.43,0.91 -1.35,1.411 -2.08,1.131 -0.598,1.762 -1.121,3.537 -1.9,5.231 -1.53,2.93 -2.5,3.539 -3.42,4.629 3.16,-0.05 4.931,1.109 6.121,1.929 0.28,0.2 0.548,0.411 0.808,0.641 1.64,1.44 2.672,3.45 3.622,5.34 l 0.259,0.529 c 1.23,2.46 3.161,8.11 6.071,9.82 -1.51,-1.83 -2.311,-3.199 -3.461,-5.769 -0.64,-1.43 -1.1,-3.211 -2.77,-6.471 -1.67,-3.26 -5.29,-7.12 -3.76,-11 0.17,2.64 1.359,4.501 2.709,5.631 -2.32,-3.92 -1.989,-8.309 -1.189,-9.949 0.61,-1.26 1.41,-2.29 2.59,-3.24 -0.67,1.63 -0.28,2.349 -0.28,2.349 0,0 0.37,-1.84 1.35,-2.81 0.97,-0.96 1.651,-1.18 2.141,-1.85 0.37,-0.51 2.049,-1.041 3.279,-0.041 -1.01,1.65 -2.03,1.531 -3.26,1.221 2.88,1.48 3.99,-1.03 3.99,-1.03 0,0 -0.169,-0.3 -0.509,-0.58 1.29,0.2 3.28,0.061 4.33,-1.099 z M 36.08,9.35 c -0.31,0.12 -0.66,0.54 -0.57,0.871 0.08,0.31 0.5,0.33 0.84,0.09 -0.16,-0.05 -0.29,-0.182 -0.34,-0.371 -0.05,-0.191 -0.02,-0.4 0.07,-0.59 z"
       id="path9" /></g></svg>
