<?xml version="1.0" encoding="UTF-8"?>
<svg id="_图层_1" xmlns="http://www.w3.org/2000/svg" version="1.1" viewBox="0 0 64 64" width="48" height="48">
  <!-- Generator: Adobe Illustrator 29.0.1, SVG Export Plug-In . SVG Version: 2.1.0 Build 192)  -->
  <defs>
    <style>
      .st0 {
        fill: #3f3f3f;
      }

      .st1 {
        fill: #0088d1;
      }

      .st2, .st3 {
        isolation: isolate;
        opacity: .2;
      }

      .st3 {
        fill: #fff;
      }

      .st4 {
        fill: #e4e4e4;
      }
    </style>
  </defs>
  <path class="st0" d="M50.4,64H13.8c-7.6,0-13.8-6.2-13.8-13.7V13.7C0,6.2,6.2,0,13.7,0h36.6c7.5,0,13.7,6.2,13.7,13.7v36.6c0,7.5-6.2,13.7-13.7,13.7h.1Z"/>
  <g>
    <path class="st1" d="M26.3,4.5c-.5,0-.9,0-1.4.1h0c-1.8.5-3.2,1.9-3.6,3.7l-2.6,12.8-12.3,5.2c-1.9.8-2.9,2.4-3,4.1,0,1.7.7,3.4,2.5,4.4l11.7,6.4,1.2,13c.4,4,5.2,5.8,8.2,3.1l9.8-8.8,13,2.9c4.1.9,7.3-3,5.6-6.6l-5.6-11.9,6.9-11.2c1-1.7.9-3.6-.1-5-1-1.4-2.6-2.4-4.7-2.1l-13.3,1.5-8.8-9.8c-.9-1-2.2-1.6-3.6-1.6Z"/>
    <path class="st2" d="M25.9,4.5c-.4,0-.8,0-1.2.2-2.2.5-3.9,2.3-4.3,4.4l-2.5,12.3-11.8,5c-3,1.3-4.4,4.6-3.1,7.6.5,1.2,1.4,2.1,2.5,2.7l11.2,6.1,1.2,12.5c.3,3.2,3.2,5.5,6.4,5.2,1.3-.1,2.5-.6,3.5-1.5l9.5-8.5,12.5,2.8c3.2.7,6.3-1.2,7.1-4.4.3-1.2.1-2.5-.4-3.7l-5.4-11.4,6.6-10.8c1.7-2.7.7-6.3-2.1-7.9-1.1-.6-2.4-.9-3.7-.8l-12.8,1.5-8.5-9.4c-1.2-1.3-2.9-2-4.7-1.9ZM26.2,10.5h0s0,0,0,0c0,0,0,0,0,0ZM26.2,10.5l8.4,9.4c1.3,1.4,3.2,2.2,5.1,1.9l12.5-1.4-6.3,10.3c-1.1,1.7-1.2,3.9-.3,5.7l5.2,10.9-12.3-2.7c-1.9-.4-3.9.1-5.3,1.4l-9.4,8.4-1.2-12.2c-.2-2-1.3-3.7-3.1-4.7l-10.7-5.8,11.3-4.7c1.8-.8,3.2-2.4,3.6-4.3l2.5-12.1Z"/>
    <path class="st4" d="M25.9,3.5c-.4,0-.8,0-1.2.2-2.2.5-3.9,2.3-4.3,4.4l-2.5,12.3-11.8,5c-3,1.3-4.4,4.6-3.1,7.6.5,1.2,1.4,2.1,2.5,2.7l11.2,6.1,1.2,12.5c.3,3.2,3.2,5.5,6.4,5.2,1.3-.1,2.5-.6,3.5-1.5l9.5-8.5,12.5,2.8c3.2.7,6.3-1.2,7.1-4.4.3-1.2.1-2.5-.4-3.7l-5.4-11.4,6.6-10.8c1.7-2.7.7-6.3-2.1-7.9-1.1-.6-2.4-.9-3.7-.8l-12.8,1.5-8.5-9.4c-1.2-1.3-2.9-2-4.7-1.9ZM26.2,9.5h0s0,0,0,0c0,0,0,0,0,0ZM26.2,9.5l8.4,9.4c1.3,1.4,3.2,2.2,5.1,1.9l12.5-1.4-6.3,10.3c-1.1,1.7-1.2,3.9-.3,5.7l5.2,10.9-12.3-2.7c-1.9-.4-3.9.1-5.3,1.4l-9.4,8.4-1.2-12.2c-.2-2-1.3-3.7-3.1-4.7l-10.7-5.8,11.3-4.7c1.8-.8,3.2-2.4,3.6-4.3l2.5-12.1Z"/>
    <path class="st3" d="M25.9,3.5c-.4,0-.8,0-1.2.2-2.2.5-3.9,2.3-4.3,4.4l-2.5,12.3-11.8,5c-2.4,1-3.9,3.5-3.5,6.1,0-2.2,1.4-4.2,3.5-5.1l11.8-5,2.5-12.3c.4-2.2,2.1-3.9,4.3-4.4.4,0,.8-.2,1.2-.2,1.8,0,3.5.6,4.7,1.9l8.5,9.4,12.8-1.5c3.2-.4,6.2,1.9,6.5,5.1,0,0,0,0,0,.1.3-3.2-2.1-6-5.4-6.2-.4,0-.8,0-1.2,0l-12.8,1.5-8.5-9.4c-1.2-1.3-2.9-2-4.7-1.9ZM52.2,20.4h-.7c0,0-5.6,9.3-5.6,9.3-.6,1.1-.9,2.3-.8,3.5,0-.9.4-1.8.8-2.5l6.3-10.3ZM9.9,31.3l-1,.4,10.7,5.8c1.7,1,2.9,2.7,3.1,4.7l1.2,12.2,9.4-8.4c1.4-1.3,3.4-1.8,5.3-1.4l12.3,2.7-.5-1.1-11.8-2.6c-1.9-.4-3.9.1-5.3,1.4l-9.4,8.4-1.2-12.2c-.2-2-1.3-3.7-3.1-4.7l-9.7-5.3ZM51.3,33.4l-.3.4,5.4,11.4c.3.6.5,1.2.5,1.9,0-1,0-2-.5-2.9l-5.1-10.8Z"/>
  </g>
</svg>