<?xml version="1.0" encoding="UTF-8"?>
<svg id="_图层_1" xmlns="http://www.w3.org/2000/svg" version="1.1" viewBox="0 0 64 64" width="48" height="48">
  <!-- Generator: Adobe Illustrator 29.0.1, SVG Export Plug-In . SVG Version: 2.1.0 Build 192)  -->
  <defs>
    <style>
      .st0 {
        fill: #878787;
      }

      .st1 {
        fill: #f4eded;
      }

      .st2 {
        fill: #565656;
      }
    </style>
  </defs>
  <path class="st1" d="M50.3,64H13.8C6.3,64,.1,57.8.1,50.3V13.8C.1,6.2,6.3,0,13.8,0h36.5c7.5,0,13.7,6.2,13.7,13.7v36.5c0,7.5-6.1,13.7-13.7,13.7h0Z"/>
  <g>
    <path class="st2" d="M39,51.5c-.4-.5-.9-1.1-1.2-1.8-.4-.7-.8-1.5-1-2.3l-.7-1.7,2.2-2.7-2.2-2.7.7-1.8c.6-1.6,1.3-2.9,2.3-4h0c0,0,1.3-1.4,1.3-1.4l3.1.5,1.2-3.2,1.8-.4c1.8-.3,3.7-.3,5.5,0l2,.3,1.1,3.3h.2v-7.2H7.7v23.3c0,1.3,1.1,2.4,2.4,2.4h29.5l-.5-.5h0ZM11.9,39.4l6.5,6c.5.5.5,1.2,0,1.7-.2.2-.5.4-.9.4-.3,0-.6-.1-.8-.3l-6.6-6.1c-.4-.4-.7-1.1-.7-1.8s.3-1.4.7-1.8l6.6-6.1c.5-.5,1.3-.4,1.7,0s.4,1.3,0,1.7l-6.5,6s0,.1,0,.1h0ZM24.5,31.9l-3,15.2c-.1.6-.6,1-1.2,1,0,0-.2,0-.2,0-.7-.1-1.1-.8-.9-1.4l3-15.2c.1-.7.8-1.1,1.4-.9.7.1,1.1.8.9,1.4h0ZM33.5,41.1l-6.6,6.1c-.2.2-.5.3-.8.3-.3,0-.7-.1-.9-.4-.5-.5-.4-1.3,0-1.7l6.5-6s0-.1,0-.2l-6.5-6c-.5-.5-.5-1.2,0-1.7s1.2-.5,1.7,0l6.6,6.1c.4.4.7,1.1.7,1.8s-.3,1.4-.7,1.8h0ZM55.3,15.5c0-1.3-1.1-2.4-2.4-2.4,0,0,0,0,0,0H10.1c-1.3,0-2.4,1.1-2.4,2.4,0,0,0,0,0,0v8.6h47.6v-8.6h0ZM38.2,19.2c0,.6-.5,1.1-1.1,1.1,0,0,0,0,0,0h-1.5c-.6,0-1.1-.5-1.1-1.1,0,0,0,0,0,0v-1.5c0-.6.5-1.1,1.1-1.1,0,0,0,0,0,0h1.5c.6,0,1.1.5,1.1,1.1,0,0,0,0,0,0,0,0,0,1.5,0,1.5ZM44.7,19.2c0,.6-.5,1.1-1.1,1.1,0,0,0,0,0,0h-1.5c-.6,0-1.1-.5-1.1-1.1,0,0,0,0,0,0v-1.5c0-.6.5-1.1,1.1-1.1,0,0,0,0,0,0h1.5c.6,0,1.1.5,1.1,1.1,0,0,0,0,0,0v1.5ZM51.2,19.2c0,.6-.5,1.1-1.1,1.1,0,0,0,0,0,0h-1.5c-.6,0-1.1-.5-1.1-1.1,0,0,0,0,0,0v-1.5c0-.6.5-1.1,1.1-1.1,0,0,0,0,0,0h1.5c.6,0,1.1.5,1.1,1.1,0,0,0,0,0,0v1.5Z"/>
    <path class="st0" d="M58,42.3l1.9-2.3-.2-.5c-.2-.7-.5-1.2-.8-1.8-.3-.6-.7-1-1-1.5l-.4-.4-2.9.4c-.6,0-1.2-.4-1.4-.9l-.9-2.7h-.6c-1.5-.4-3.1-.4-4.6,0h-.5c0,0-1,2.9-1,2.9-.2.6-.8.9-1.4.8l-2.8-.5-.4.4c-.8,1-1.4,2.2-1.9,3.4l-.2.5,1.9,2.3c.4.5.4,1.2,0,1.7l-1.9,2.3.2.5c.2.7.5,1.3.8,1.9.3.6.7,1,1,1.5l.4.4,2.9-.5c.6,0,1.2.3,1.4.8l.9,2.8h.6c1.5.5,3.2.5,4.7,0h.5c0,0,.9-2.9.9-2.9.2-.6.8-.9,1.4-.8l2.8.5.4-.5c.8-.9,1.4-2.1,1.8-3.3l.2-.5-1.8-2.2c-.4-.5-.4-1.2,0-1.7h0ZM49.4,46.9c-2.1,0-3.8-1.6-3.8-3.8s1.6-3.8,3.8-3.8,3.8,1.6,3.8,3.8-1.6,3.8-3.8,3.8Z"/>
  </g>
</svg>
