<?xml version="1.0" encoding="UTF-8" standalone="no"?>
<svg
   id="_图层_1"
   version="1.1"
   viewBox="0 0 64 64" width="48" height="48"
   sodipodi:docname="aqualung.svg"
   xml:space="preserve"
   inkscape:version="1.4 (e7c3feb100, 2024-10-09)"
   xmlns:inkscape="http://www.inkscape.org/namespaces/inkscape"
   xmlns:sodipodi="http://sodipodi.sourceforge.net/DTD/sodipodi-0.dtd"
   xmlns="http://www.w3.org/2000/svg"
   xmlns:svg="http://www.w3.org/2000/svg"><sodipodi:namedview
     id="namedview26"
     pagecolor="#505050"
     bordercolor="#eeeeee"
     borderopacity="1"
     inkscape:showpageshadow="0"
     inkscape:pageopacity="0"
     inkscape:pagecheckerboard="0"
     inkscape:deskcolor="#505050"
     inkscape:zoom="10.6875"
     inkscape:cx="44.25731"
     inkscape:cy="32"
     inkscape:window-width="1920"
     inkscape:window-height="939"
     inkscape:window-x="0"
     inkscape:window-y="34"
     inkscape:window-maximized="1"
     inkscape:current-layer="_图层_1" /><!-- Generator: Adobe Illustrator 29.0.1, SVG Export Plug-In . SVG Version: 2.1.0 Build 192)  --><defs
     id="defs6"><inkscape:path-effect
       effect="fillet_chamfer"
       id="path-effect26"
       is_visible="true"
       lpeversion="1"
       nodesatellites_param="F,0,0,1,0,0,0,1 @ F,0,0,1,0,0,0,1 @ F,0,0,1,0,0,0,1 @ F,0,0,1,0,0,0,1 @ F,0,0,1,0,0,0,1 @ F,0,0,1,0,0,0,1"
       radius="0"
       unit="px"
       method="auto"
       mode="F"
       chamfer_steps="1"
       flexible="false"
       use_knot_distance="true"
       apply_no_radius="true"
       apply_with_radius="true"
       only_selected="false"
       hide_knots="false" /><style
       id="style1">
      .st0 {
        fill-opacity: .5;
      }

      .st0, .st1, .st2, .st3, .st4, .st5, .st6, .st7 {
        fill: #fff;
      }

      .st8 {
        fill: #133c9a;
      }

      .st2, .st9 {
        display: none;
      }

      .st3 {
        fill-opacity: .2;
      }

      .st4 {
        fill-opacity: .9;
      }

      .st10 {
        fill: #3370ff;
      }

      .st11 {
        fill: url(#_未命名的渐变_3);
      }

      .st12 {
        fill: url(#_未命名的渐变);
      }

      .st5 {
        fill-opacity: .3;
      }

      .st6 {
        fill-opacity: 0;
      }

      .st7 {
        fill-opacity: .7;
      }

      .st13 {
        fill: #00d6b9;
      }

      .st14 {
        fill: url(#_未命名的渐变_2);
      }
    </style><radialGradient
       id="_未命名的渐变"
       data-name="未命名的渐变"
       cx="123.9"
       cy="-40.2"
       fx="123.9"
       fy="-40.2"
       r="59.4"
       gradientTransform="translate(-26.8 25.5) scale(.6 -.7)"
       gradientUnits="userSpaceOnUse"><stop
         offset="0"
         stop-color="#db202e"
         id="stop1" /><stop
         offset="1"
         stop-color="#e01b24"
         id="stop2" /></radialGradient><radialGradient
       id="_未命名的渐变_2"
       data-name="未命名的渐变 2"
       cx="67.6"
       cy="26.8"
       fx="67.6"
       fy="26.8"
       r="105.2"
       gradientTransform="translate(-26.6 25.3) scale(.6 -.7)"
       gradientUnits="userSpaceOnUse"><stop
         offset="0"
         stop-color="#ffb648"
         id="stop3" /><stop
         offset="1"
         stop-color="#ff7800"
         stop-opacity="0"
         id="stop4" /></radialGradient><radialGradient
       id="_未命名的渐变_3"
       data-name="未命名的渐变 3"
       cx="61.7"
       cy="18.6"
       fx="61.7"
       fy="18.6"
       r="68"
       gradientTransform="translate(-26.8 25.8) scale(.6 -.7)"
       gradientUnits="userSpaceOnUse"><stop
         offset="0"
         stop-color="#c64600"
         id="stop5" /><stop
         offset="1"
         stop-color="#a51d2d"
         id="stop6" /></radialGradient></defs><path
     class="st1"
     d="M 47.5,64.1 H 13.8 C 6.2,64.1 0,57.8 0,50.3 V 13.7 C 0,6.2 6.2,0 13.7,0 H 50.3 C 57.8,0 64,6.2 64,13.7 V 50.3 C 64,57.8 57.8,64 50.3,64 h -2.9 0.1 z"
     id="path6"
     style="display:inline;fill:#e4e4e4;fill-opacity:1" /><g
     id="g26"
     transform="matrix(0.92147034,0,0,0.89986663,2.9573935,2.8946853)"><path
       d="m 32,8.9999996 c -12.543478,0 -19.61829,7.0002624 -22.8300781,13.7031254 C 5.9581335,29.405988 6,36 6,36 a 3.0003,3.0003 0 1 0 6,0 c 0,0 0.04187,-5.405988 2.580078,-10.703125 C 17.11829,19.999738 21.543478,15 32,15 42.456522,15 46.88171,19.999738 49.419922,25.296875 51.958134,30.594012 52,36 52,36 a 3.0003,3.0003 0 1 0 6,0 C 58,36 58.04187,29.405988 54.830078,22.703125 51.61829,16.000262 44.543478,8.9999996 32,8.9999996 Z"
       style="opacity:0.2"
       id="path1" /><path
       d="M 32,4.9999996 C 26.4,26 4.2255754,38.432776 13.2736,52.699954 c 7.001306,11.038436 30.798848,11.094985 37.7188,0 C 59.99578,38.266106 37.6,26 32.001984,4.9999996 Z"
       style="opacity:0.2"
       id="path2" /><path
       d="M 32,8 C 19.456522,8 12.38171,15.000262 9.1699219,21.703125 5.9581335,28.405988 6,35 6,35 a 3.0003,3.0003 0 1 0 6,0 c 0,0 0.04187,-5.405988 2.580078,-10.703125 C 17.11829,18.999738 21.543478,14 32,14 42.456522,14 46.88171,18.999738 49.419922,24.296875 51.958134,29.594012 52,35 52,35 a 3.0003,3.0003 0 1 0 6,0 C 58,35 58.04187,28.405988 54.830078,21.703125 51.61829,15.000262 44.543478,8 32,8 Z"
       style="fill:#4f4f4f"
       id="path3" /><path
       d="M 32,8 C 19.456522,8 12.38171,15.000262 9.1699219,21.703125 5.9581335,28.405988 6,35 6,35 a 3.0003,3.0003 0 0 0 0.023437,0.386719 C 6.065686,33.947988 6.39209,28.50034 9.1699219,22.703125 12.38171,16.000262 19.456522,9 32,9 c 12.543478,0 19.61829,7.000262 22.830078,13.703125 2.781975,5.805855 3.10507,11.261356 3.146484,12.689453 A 3.0003,3.0003 0 0 0 58,35 C 58,35 58.04187,28.405988 54.830078,21.703125 51.61829,15.000262 44.543478,8 32,8 Z"
       style="opacity:0.1;fill:#ffffff"
       id="path4" /><path
       d="M 32,4 C 26.4,25 4.2255754,37.432776 13.2736,51.699954 c 7.001306,11.038436 30.798848,11.094985 37.7188,0 C 59.99578,37.266106 37.6,25 32.001984,4 Z"
       style="fill:#3ba2ec"
       id="path5" /><path
       d="m 12,37 v 3 h 6 v 4 c 0,0 0,3 5.5,3 5.5,0 5.5,-3 5.5,-3 v -4 h 6 v 4 c 0,0 0,3 5.5,3 5.5,0 5.5,-3 5.5,-3 v -4 h 6 v -3 z"
       style="opacity:0.2"
       id="path6-2" /><path
       d="m 18,38 v 5 c 0,0 0,3 5.5,3 5.5,0 5.5,-3 5.5,-3 v -5 z m 17,0 v 5 c 0,0 0,3 5.5,3 5.5,0 5.5,-3 5.5,-3 v -5 z"
       style="fill:#ffffff"
       id="path7" /><path
       d="M 32,4 C 27.250451,21.810809 10.586545,33.459628 11.152344,45.291016 11.523372,33.797891 27.384179,22.309331 32,5 h 0.002 C 36.625056,22.342782 52.688845,33.72917 53.078125,45.298828 53.630832,33.379758 36.758235,21.842377 32.001953,4 Z"
       style="opacity:0.2;fill:#ffffff"
       id="path8" /><rect
       x="12"
       y="36"
       width="40"
       height="3"
       style="fill:#4f4f4f"
       id="rect8" /><path
       d="m 8,32 c -2.216,0 -4,1.784 -4,4 v 14 c 0,2.216 1.784,4 4,4 h 3 c 2.216,0 4,-1.784 4,-4 V 36 c 0,-2.216 -1.784,-4 -4,-4 z m 45,0 c -2.216,0 -4,1.784 -4,4 v 14 c 0,2.216 1.784,4 4,4 h 3 c 2.216,0 4,-1.784 4,-4 V 36 c 0,-2.216 -1.784,-4 -4,-4 z"
       style="opacity:0.2"
       id="path9" /><path
       d="m 8,31 c -2.216,0 -4,1.784 -4,4 v 14 c 0,2.216 1.784,4 4,4 h 3 c 2.216,0 4,-1.784 4,-4 V 35 c 0,-2.216 -1.784,-4 -4,-4 z m 45,0 c -2.216,0 -4,1.784 -4,4 v 14 c 0,2.216 1.784,4 4,4 h 3 c 2.216,0 4,-1.784 4,-4 V 35 c 0,-2.216 -1.784,-4 -4,-4 z"
       style="fill:#8e8e8e"
       id="path10" /><path
       d="m 8,31 c -2.216,0 -4,1.784 -4,4 v 1 c 0,-2.216 1.784,-4 4,-4 h 3 c 2.216,0 4,1.784 4,4 v -1 c 0,-2.216 -1.784,-4 -4,-4 z m 45,0 c -2.216,0 -4,1.784 -4,4 v 1 c 0,-2.216 1.784,-4 4,-4 h 3 c 2.216,0 4,1.784 4,4 v -1 c 0,-2.216 -1.784,-4 -4,-4 z"
       style="opacity:0.2;fill:#ffffff"
       id="path11" /></g></svg>
