<?xml version="1.0" encoding="UTF-8"?>
<svg id="_图层_1" xmlns="http://www.w3.org/2000/svg" version="1.1" viewBox="0 0 64 64" width="48" height="48">
  <!-- Generator: Adobe Illustrator 29.0.1, SVG Export Plug-In . SVG Version: 2.1.0 Build 192)  -->
  <defs>
    <style>
      .st0 {
        fill: #475f9d;
      }

      .st1 {
        fill: #4f4f4f;
      }

      .st2 {
        fill: #4878ff;
      }

      .st3 {
        fill: #8d5b34;
      }

      .st4, .st5, .st6, .st7 {
        display: none;
      }

      .st4, .st8, .st9, .st10, .st7, .st11 {
        isolation: isolate;
      }

      .st4, .st9, .st10, .st7 {
        opacity: .2;
      }

      .st12 {
        fill: #b2713d;
      }

      .st13 {
        fill: #3f3f3f;
      }

      .st14, .st10, .st7, .st11 {
        fill: #fff;
      }

      .st15 {
        fill: #ffb301;
      }

      .st5 {
        fill: #aee334;
      }

      .st16 {
        fill: #e53935;
      }

      .st17 {
        fill: #e3563b;
      }

      .st18 {
        fill: #c8c8c8;
      }

      .st8, .st11 {
        opacity: .1;
      }

      .st19 {
        fill: #153e44;
      }

      .st20 {
        fill: #31b58e;
      }

      .st21 {
        fill: #eba65b;
      }

      .st22 {
        fill: #e4e4e4;
      }

      .st23 {
        fill: #d2d2d2;
      }

      .st24 {
        fill: #9d9d9d;
      }

      .st25 {
        fill: #3bb2ff;
      }

      .st26 {
        fill: #707070;
      }
    </style>
  </defs>
  <path class="st14" d="M50.4,64H13.8c-7.6,0-13.8-6.2-13.8-13.7V13.7C0,6.2,6.2,0,13.7,0h36.6c7.5,0,13.7,6.2,13.7,13.7v36.6c0,7.5-6.2,13.7-13.7,13.7h.1Z"/>
  <g class="st6">
    <path class="st9" d="M3.5,31.5c0,.3,0,.7,0,1,0,15.5,12.5,28,28,28s28-12.5,28-28,0-.7,0-1c-.5,15-12.8,27-27.9,27S4,46.5,3.5,31.5h0Z"/>
    <rect class="st24" x="3.5" y="3.5" width="56" height="56" rx="28" ry="28"/>
    <path class="st11" d="M31.5,3.5C16,3.5,3.5,16,3.5,31.5s0,.2,0,.3c.4-15.2,12.7-27.3,28-27.3s27.6,12.1,28,27.3c0-.1,0-.2,0-.3,0-15.5-12.5-28-28-28Z"/>
    <circle class="st26" cx="31.5" cy="31.5" r="22"/>
    <circle class="st13" cx="31.5" cy="31.5" r="16"/>
    <circle class="st8" cx="31.5" cy="32.5" r="8"/>
    <circle class="st1" cx="31.5" cy="31.5" r="8"/>
    <path class="st11" d="M31.5,23.5c-4.4,0-8,3.6-8,8,0,.1,0,.3,0,.4.3-4.2,3.8-7.4,8-7.4,4.2,0,7.8,3.3,8,7.6,0-.2,0-.4,0-.6,0-4.4-3.6-8-8-8Z"/>
  </g>
  <g class="st6">
    <path class="st9" d="M2.5,30.5c0,.3,0,.7,0,1,0,15.5,12.5,28,28,28s28-12.5,28-28,0-.7,0-1c-.5,15-12.8,27-27.9,27S3,45.5,2.5,30.5h0Z"/>
    <rect class="st24" x="2.4" y="2.5" width="56" height="56" rx="28" ry="28"/>
    <path class="st11" d="M30.4,2.5C14.9,2.5,2.4,15,2.4,30.5s0,.2,0,.3C2.8,15.6,15.2,3.5,30.4,3.5s27.6,12.1,28,27.3c0-.1,0-.2,0-.3,0-15.5-12.5-28-28-28Z"/>
    <circle class="st26" cx="30.4" cy="30.5" r="22"/>
    <circle class="st13" cx="30.4" cy="30.5" r="16"/>
    <circle class="st8" cx="30.4" cy="31.5" r="8"/>
    <circle class="st1" cx="30.4" cy="30.5" r="8"/>
    <path class="st11" d="M30.4,22.5c-4.4,0-8,3.6-8,8,0,.1,0,.3,0,.4.3-4.2,3.8-7.4,8-7.4,4.2,0,7.8,3.3,8,7.6,0-.2,0-.4,0-.6,0-4.4-3.6-8-8-8Z"/>
    <circle class="st9" cx="44.4" cy="45.5" r="16"/>
    <circle class="st20" cx="44.4" cy="44.5" r="16"/>
    <path class="st14" d="M48.4,35.3v11.2h-8v-11.2c-3.6,1.6-6,5.2-6,9.2,0,4,2.4,7.6,6,9.2v6.3c1.3.3,2.6.5,4,.5,1.3,0,2.7-.2,4-.5v-6.3c3.6-1.6,6-5.2,6-9.2,0-4-2.4-7.6-6-9.2Z"/>
  </g>
  <g class="st6">
    <ellipse class="st4" cx="32" cy="33" rx="32" ry="31.9"/>
    <ellipse class="st5" cx="32" cy="31.9" rx="32" ry="31.9"/>
    <path class="st8" d="M40.7,23l11.9,2.2-10.9,7.2-1-9.4Z"/>
    <path class="st8" d="M35.6,39.8c2.9,6.9,2.3,10.9,12.7,12.4,4.2.4,3.3,5.9-.5,6-2.1,0-4.2,0-5.8-.5-1.8-.5-5.9-4.1-5.9-4.1l-.6-13.8Z"/>
    <path class="st8" d="M25.2,35.6l-1.1,20.3s-1.1-1-1.6-1.4c-.9-.7-1.6-1.4-2.7-1.6-1.1-.2-2.2.6-3.2.6-.8,0-2.4-.8-2.4-.8-2-.6-3.2-4.5-2.6-8.6,1.4-8.8,6.9-9.6,13.6-8.6Z"/>
    <path class="st0" d="M22.3,55c-.2,0-.4.1-.5.3-1.4,1.7-2.7,3.5-3.9,5.3,2,1,4.1,1.7,6.2,2.3,0,0,.1-.2.2-.3,0-.1.1-.3,0-.5l-1.4-6.5c0-.3-.3-.5-.6-.5,0,0,0,0,0,0Z"/>
    <path class="st15" d="M40.7,21.9l11.9,2.2-10.9,7.2-1-9.4Z"/>
    <path class="st21" d="M25.2,34.4l-1.1,20.3s-1.1-1-1.6-1.4c-.9-.7-1.6-1.4-2.7-1.6-1.1-.2-2.2.6-3.2.6-.8,0-2.4-.8-2.4-.8-2-.6-3.2-4.5-2.6-8.6,1.4-8.8,6.9-9.6,13.6-8.6Z"/>
    <path class="st12" d="M20.5,34.1c-3.6.2-6.4,1.6-8,5.5.8.4,1.8.5,2.6.3.9-.3,2.2-2.1,2.2-2.1,2.9-1.2,5.7,0,7.7,1l.2-4.4c-1.7-.3-3.3-.4-4.8-.3Z"/>
    <path class="st12" d="M11.4,44.6c-.1,3.5,1,6.5,2.7,7,0,0,1,.5,1.8.7l-.4-6.4-4.1-1.3Z"/>
    <path class="st0" d="M35.6,38.6c2.9,6.9,2.3,10.9,12.7,12.4,4.2.4,3.3,5.9-.5,6-2.1,0-4.2,0-5.8-.5-1.8-.5-5.9-4.1-5.9-4.1l-.6-13.8Z"/>
    <path class="st17" d="M22.5,35.4c-1.3,4.3-2,8.8-2,13.6,0,4.1.5,8.5.9,13,3.4,1.2,7,1.8,10.6,1.8,2.6,0,5.2-.3,7.7-.9-1-4.9-2-10.1-2-15.3,0-4,.7-8,1.8-11.9l-17-.2Z"/>
    <path class="st3" d="M49.1,41.1c-1.3,0-2.3,1.1-2.3,2.4v16.6c1.6-.8,3.1-1.8,4.6-2.9v-13.7c0-1.3-1-2.4-2.3-2.4Z"/>
    <path class="st8" d="M22.9,36.2l6.9,2.9s-3.8,6.2-2.6,9.5c.6,1.6,1.9,3.6,3.4,5,3.6,3.4-1.3,5.2-2.9,4.1-4.5-2.4-6.7-5-8-7.7-1.2-5.3,1.3-9.2,3.2-13.9Z"/>
    <path class="st0" d="M22.9,35l6.9,2.9s-3.8,6.2-2.6,9.5c.6,1.6,1.9,3.6,3.4,5,3.6,3.4-1.3,5.2-2.9,4.1-4.5-2.4-6.7-5-8-7.7-1.2-5.3,1.3-9.2,3.2-13.9Z"/>
    <ellipse class="st8" cx="29.7" cy="28.5" rx="12.6" ry="12.5"/>
    <ellipse class="st0" cx="29.7" cy="27.3" rx="12.6" ry="12.5"/>
    <ellipse class="st9" cx="33.1" cy="27.3" rx="5.7" ry="5.7"/>
    <ellipse class="st14" cx="33.1" cy="26.2" rx="5.7" ry="5.7"/>
    <path class="st19" d="M33.1,20.5c-.3,0-.5,0-.8,0-1,.9-1.5,2.1-1.5,3.4,0,2.5,2,4.5,4.5,4.5h0c1.3,0,2.5-.6,3.4-1.5,0-.3,0-.5,0-.8,0-3.1-2.6-5.7-5.7-5.7h0Z"/>
    <path class="st7" d="M32,0C14.3,0,0,14.3,0,31.9c0,.2,0,.4,0,.6C.3,15.1,14.5,1.1,32,1.1c17.4,0,31.7,13.9,32,31.3,0-.2,0-.4,0-.6C64,14.3,49.7,0,32,0Z"/>
  </g>
  <g class="st6">
    <rect class="st9" x="16.9" y="8.3" width="42" height="34" rx="4.2" ry="4.2"/>
    <rect class="st23" x="16.9" y="7.3" width="42" height="34" rx="4.2" ry="4.2"/>
    <rect class="st10" x="20.9" y="37.3" width="34" height="1"/>
    <rect class="st2" x="20.9" y="11.3" width="34" height="26"/>
    <rect class="st9" x="2.9" y="20.3" width="42" height="34" rx="4.2" ry="4.2"/>
    <rect class="st22" x="2.9" y="19.3" width="42" height="34" rx="4.2" ry="4.2"/>
    <rect class="st25" x="6.9" y="23.3" width="34" height="26"/>
    <path class="st9" d="M9.9,27.3v2.1l3.7,2.1-3.7,1.8v2.1l6-3.4v-.8l-6-3.8ZM15.9,33.3v2h6v-2h-6Z"/>
    <path class="st14" d="M9.9,26.3v2.1l3.7,2.1-3.7,1.8v2.1l6-3.4v-.8l-6-3.8ZM15.9,32.3v2h6v-2h-6Z"/>
    <path class="st10" d="M21.1,7.3c-2.3,0-4.2,1.9-4.2,4.2v1c0-2.3,1.9-4.2,4.2-4.2h33.6c2.3,0,4.2,1.9,4.2,4.2v-1c0-2.3-1.9-4.2-4.2-4.2H21.1Z"/>
    <path class="st10" d="M7.1,19.3c-2.3,0-4.2,1.9-4.2,4.2v1c0-2.3,1.9-4.2,4.2-4.2h33.6c2.3,0,4.2,1.9,4.2,4.2v-1c0-2.3-1.9-4.2-4.2-4.2H7.1Z"/>
    <rect class="st9" x="6.9" y="23.3" width="34" height="1"/>
    <rect class="st10" x="6.9" y="49.3" width="34" height="1"/>
    <rect class="st9" x="20.9" y="11.3" width="34" height="1"/>
  </g>
  <g class="st6">
    <rect class="st9" x="18" y="8.5" width="42" height="34" rx="4.2" ry="4.2"/>
    <rect class="st23" x="18" y="7.5" width="42" height="34" rx="4.2" ry="4.2"/>
    <rect class="st10" x="22" y="37.5" width="34" height="1"/>
    <rect class="st13" x="22" y="11.5" width="34" height="26"/>
    <rect class="st9" x="4" y="20.5" width="42" height="34" rx="4.2" ry="4.2"/>
    <rect class="st22" x="4" y="19.5" width="42" height="34" rx="4.2" ry="4.2"/>
    <rect class="st1" x="8" y="23.5" width="34" height="26"/>
    <path class="st9" d="M11,27.5v2.1l3.7,2.1-3.7,1.8v2.1l6-3.4v-.8l-6-3.8ZM17,33.5v2h6v-2h-6Z"/>
    <path class="st14" d="M11,26.5v2.1l3.7,2.1-3.7,1.8v2.1l6-3.4v-.8l-6-3.8ZM17,32.5v2h6v-2h-6Z"/>
    <path class="st10" d="M22.2,7.5c-2.3,0-4.2,1.9-4.2,4.2v1c0-2.3,1.9-4.2,4.2-4.2h33.6c2.3,0,4.2,1.9,4.2,4.2v-1c0-2.3-1.9-4.2-4.2-4.2H22.2Z"/>
    <path class="st10" d="M8.2,19.5c-2.3,0-4.2,1.9-4.2,4.2v1c0-2.3,1.9-4.2,4.2-4.2h33.6c2.3,0,4.2,1.9,4.2,4.2v-1c0-2.3-1.9-4.2-4.2-4.2H8.2Z"/>
    <rect class="st9" x="8" y="23.5" width="34" height="1"/>
    <rect class="st10" x="8" y="49.5" width="34" height="1"/>
    <rect class="st9" x="22" y="11.5" width="34" height="1"/>
  </g>
  <g>
    <path class="st9" d="M23.8,61.1c0,0-.7-.2-1.8-.4-2.2-.2-3-.7-3.2-2-.3-1.1.3-2.5,1.6-4.1.6-.7.8-1.3.8-1.4,0-.4-.9-.2-1.6.3-.4.3-1.1.5-1.6.5-1.2,0-1.6-.8-1.4-2.4.1-1,.4-1.4-.2-1.7-.3-.2-2.4-.9-3-1.4-1-.9-1-1-.8-1.9.3-1.1.7-3.6-.4-6.4-.6-1.6-.7-1.6-2.1-2.1-.8-.3-1.9-.8-2.5-1.2-.9-.7-1-.8-1-2.4v-1.7s1.8-.9,1.8-.9c2.1-1.1,3.1-2.5,2.5-2.9-.2-.1-1.3,0-2.4,0-2.1.3-3.2,0-3.8-.9-.4-.7,0-1.8,1-2.5l.8-.6,1.6.6c2.3.9,3.6.8,4.9-.9,1.1-1.6.9-2.2.2-3.5-.2-.5-.5-1.4-.5-2,0-1,0-1.2,1.2-2.1.7-.5,1.8-1.1,2.5-1.3,1.4-.4,2.5-1,1.7-2-.7-.8-1.7-1.2-1.1-2.7.7-2.1,1.4-2.4,4.2-1.2.9.4,1.2.8,1.4.7.1,0,.3-.7.3-1.4,0-1,.1-1.3.9-1.8.5-.3,1.2-.9,1.5-1.4l.4-.9,1.9.7c1,.4,2.2.9,2.5,1.2.8.7.9.1,3.1-1,2.3-1.2,3.4-1.3,4.5-.1.8.8,2.2,2.1,2.5,1.5.3-.5,2-.3,2.6.4.3.4,1.1.5,1.6.6.5,0,1.4-.2,2.1.3,1.4,1,3.1,0,3.9-.9,1.1-1.2,2.5-.8,2.5.7s-.3,1.4-.6,2.2c-.6,1.4-2.7,2.3-2.4,3,.3.5.4.9,1.2,1.1.7.2,1.3.5,1.5.7.4.7.2,2.3-.4,3.3-.6.9-.6,1.2-.4,3.5.4,4.8,2.2,8.7,2.5,9.5.2.4.3,1.3.3,1.9,0,.6,0,1.5.2,1.9.1.6,0,.9-.3,1.1-.5.3-.7.4,0,1.5.7,1.4.8,3.3,0,4.2-.5.6-.7.6-1.9.6-3.7-.2-3.6-1.1-3.6-.2,0,.4.8.9,1.2,1.5.8,1.2.9,2,.3,3.3-.7,1.6-1,1.7-3.5,1.2-1.2-.3-2.4-.7-2.6-.9-.6-.5-1.2,1-1.9,2.2-.7,1-.8,1.1-2,1.1-1.6,0-2.8,1.3-3.7,2.6-.4.7-.9,1-1.5,1.1-1.3.2-2.8,0-4.4-.7l-1.4-.6-2,.7-2.8-.3v1.1c0,.6.2,1.8.3,2.7.1.9.1,1.9,0,2.3-.2.7-.6,1.1-.9.8h0Z"/>
    <path class="st16" d="M23.8,60.1c0,0-.7-.2-1.8-.4-2.2-.2-3-.7-3.2-2-.3-1.1.3-2.5,1.6-4.1.6-.7.8-1.3.8-1.4,0-.4-.9-.2-1.6.3-.4.3-1.1.5-1.6.5-1.2,0-1.6-.8-1.4-2.4.1-1,.4-1.4-.2-1.7-.3-.2-2.4-.9-3-1.4-1-.9-1-1-.8-1.9.3-1.1.7-3.6-.4-6.4-.6-1.6-.7-1.6-2.1-2.1-.8-.3-1.9-.8-2.5-1.2-.9-.7-1-.8-1-2.4v-1.7s1.8-.9,1.8-.9c2.1-1.1,3.1-2.5,2.5-2.9-.2-.1-1.3,0-2.4,0-2.1.3-3.2,0-3.8-.9-.4-.7,0-1.8,1-2.5l.8-.6,1.6.6c2.3.9,3.6.8,4.9-.9,1.1-1.6.9-2.2.2-3.5-.2-.5-.5-1.4-.5-2,0-1,0-1.2,1.2-2.1.7-.5,1.8-1.1,2.5-1.3,1.4-.4,2.5-1,1.7-2-.7-.8-1.7-1.2-1.1-2.7.7-2.1,1.4-2.4,4.2-1.2.9.4,1.2.8,1.4.7.1,0,.3-.7.3-1.4,0-1,.1-1.3.9-1.8.5-.3,1.2-.9,1.5-1.4l.4-.9,1.9.7c1,.4,2.2.9,2.5,1.2.8.7.9.1,3.1-1,2.3-1.2,3.4-1.3,4.5-.1.8.8,2.2,2.1,2.5,1.5.3-.5,2-.3,2.6.4.3.4,1.1.5,1.6.6.5,0,1.4-.2,2.1.3,1.4,1,3.1,0,3.9-.9,1.1-1.2,2.5-.8,2.5.7s-.3,1.4-.6,2.2c-.6,1.4-2.7,2.3-2.4,3,.3.5.4.9,1.2,1.1.7.2,1.3.5,1.5.7.4.7.2,2.3-.4,3.3-.6.9-.6,1.2-.4,3.5.4,4.8,2.2,8.7,2.5,9.5.2.4.3,1.3.3,1.9,0,.6,0,1.5.2,1.9.1.6,0,.9-.3,1.1-.5.3-.7.4,0,1.5.7,1.4.8,3.3,0,4.2-.5.6-.7.6-1.9.6-3.7-.2-3.6-1.1-3.6-.2,0,.4.8.9,1.2,1.5.8,1.2.9,2,.3,3.3-.7,1.6-1,1.7-3.5,1.2-1.2-.3-2.4-.7-2.6-.9-.6-.5-1.2,1-1.9,2.2-.7,1-.8,1.1-2,1.1-1.6,0-2.8,1.3-3.7,2.6-.4.7-.9,1-1.5,1.1-1.3.2-2.8,0-4.4-.7l-1.4-.6-2,.7-2.8-.3v1.1c0,.6.2,1.8.3,2.7.1.9.1,1.9,0,2.3-.2.7-.6,1.1-.9.8h0Z"/>
    <path class="st14" d="M30.8,12.7l-13.8,9.9h0s1.9,16.6,1.9,16.6l15.7,6.7,13.8-9.9-1.9-16.6h0s-15.7-6.7-15.7-6.7Z"/>
    <path class="st18" d="M46.8,19.1l-14.1,10.1,1.9,17,14.1-10.1-1.9-17Z"/>
    <path class="st14" d="M30.8,12.2l-14.1,10.1h0s16,6.9,16,6.9l14.1-10.1h0s-16-6.9-16-6.9Z"/>
    <path class="st22" d="M16.7,22.4l1.9,17,16,6.9-1.9-17-16-6.9Z"/>
    <path class="st8" d="M45.9,19.7l-13.2,9.5-15.1-6.5-.9.6h0s16,6.9,16,6.9l14.1-10.1h0s-.9-.4-.9-.4Z"/>
    <path class="st9" d="M16.8,23.3h-.1c0,0,1.9,17.1,1.9,17.1l16,6.9,14.1-10.1v-.9c-.1,0-14.1,10.1-14.1,10.1l-16-6.9-1.8-16.1Z"/>
    <path class="st10" d="M35.7,4.2c-.7,0-1.5.3-2.7.9-2.2,1.1-2.3,1.7-3.1,1-.3-.3-1.4-.8-2.5-1.2l-1.9-.7-.4.9c-.2.5-1,1-1.5,1.4-.8.5-.9.8-.9,1.8s-.1,1.3-.3,1.4c-.1,0-.4-.4-1.4-.7-2.8-1.1-3.4-.9-4.2,1.2-.2.6-.2,1,0,1.3,0,0,0-.2,0-.3.7-2.1,1.4-2.4,4.2-1.2.9.4,1.2.8,1.4.7.1,0,.3-.7.3-1.4,0-1,.1-1.3.9-1.8.5-.3,1.2-.9,1.5-1.4l.4-.9,1.9.7c1,.4,2.2.9,2.5,1.2.8.7.9.1,3.1-1,2.3-1.2,3.4-1.3,4.5-.1.8.8,2.2,2.1,2.5,1.5.3-.5,2-.3,2.6.4.3.4,1.1.5,1.6.6.5,0,1.4-.2,2.1.3,1.4,1,3.1,0,3.9-.9,1-1,2.2-.9,2.5.2,0-.2,0-.4,0-.5,0-1.5-1.4-1.8-2.5-.7-.8.9-2.5,1.9-3.9.9-.6-.5-1.6-.2-2.1-.3-.5,0-1.2-.3-1.6-.6-.7-.7-2.3-.9-2.6-.4-.4.6-1.7-.7-2.5-1.5-.5-.6-1.1-.8-1.8-.8ZM49.9,13.3c-.2.2-.3.5-.2.6.3.5.4.9,1.2,1.1.7.2,1.3.5,1.5.7,0,.1.1.3.2.5,0-.6,0-1.2-.2-1.5-.1-.2-.8-.5-1.5-.7-.6-.2-.8-.4-1-.7ZM18.2,14.1c-.3.4-1,.7-1.8.9-.7.2-1.8.7-2.5,1.3-1.1.9-1.2,1-1.2,2.1,0,0,0,.2,0,.3,0-.5.4-.7,1.2-1.3.7-.5,1.8-1.1,2.5-1.3,1.3-.3,2.4-.9,1.8-1.9ZM51.5,20.4c0,.5,0,1,0,2,.4,4.8,2.2,8.7,2.5,9.5.2.4.3,1.3.3,1.9,0,.6,0,1.3.1,1.7.1-.2.1-.5,0-.8-.1-.4-.2-1.3-.2-1.9,0-.6-.1-1.5-.3-1.9-.3-.8-2.1-4.8-2.5-9.5,0-.4,0-.7,0-1ZM13.8,22.5c-.1.4-.3.8-.7,1.4-1.2,1.7-2.5,1.8-4.9.9l-1.6-.6-.8.6c-.9.7-1.4,1.7-1.1,2.4.2-.5.5-1,1.1-1.4l.8-.6,1.6.6c2.3.9,3.6.8,4.9-.9.8-1.1.9-1.7.7-2.4ZM11,29c-.4.6-1.2,1.3-2.4,1.9l-1.8.9v1l1.8-.9c2.1-1.1,3.1-2.5,2.5-2.9,0,0,0,0,0,0ZM54,37.2c-.3.2-.3.5.1,1.3.3.6.5,1.2.5,1.9.1-.9,0-2-.5-2.9,0-.1,0-.2-.1-.3ZM48.8,42.7c-.2,0-.1,0-.1.3,0,.4.8.9,1.2,1.5.3.5.6.9.6,1.4.2-.8,0-1.5-.6-2.4-.2-.3-.4-.5-.7-.8-.2,0-.3,0-.4-.1ZM13,43.8c0,.8-.2,1.5-.3,2-.1.5-.2.8,0,1.1,0,0,0,0,0,0,.2-.6.3-1.7.3-3ZM16.7,50.4c0,.1,0,.3,0,.5,0,.5,0,.9,0,1.2,0,0,0-.1,0-.2.1-.8.2-1.2,0-1.5ZM21,53.2c0,0-.2,0-.2,0-.1.2-.3.4-.4.6-1.3,1.5-1.8,2.9-1.6,4,.1-.9.7-1.9,1.6-3,.6-.7.8-1.3.8-1.4s0-.2-.1-.2ZM24.4,54.3v1.1c0,.6.2,1.8.3,2.7,0,.3,0,.7,0,1,0-.5,0-1.3,0-2-.1-.9-.2-2.1-.2-2.7h0c0-.1,0-.1,0-.1Z"/>
  </g>
</svg>