<?xml version="1.0" encoding="UTF-8" standalone="no"?>
<svg
   id="_图层_1"
   version="1.1"
   viewBox="0 0 64 64" width="48" height="48"
   sodipodi:docname="bendy-and-the-ink-machine.svg"
   xml:space="preserve"
   inkscape:version="1.4 (e7c3feb100, 2024-10-09)"
   xmlns:inkscape="http://www.inkscape.org/namespaces/inkscape"
   xmlns:sodipodi="http://sodipodi.sourceforge.net/DTD/sodipodi-0.dtd"
   xmlns="http://www.w3.org/2000/svg"
   xmlns:svg="http://www.w3.org/2000/svg"><sodipodi:namedview
     id="namedview26"
     pagecolor="#505050"
     bordercolor="#eeeeee"
     borderopacity="1"
     inkscape:showpageshadow="0"
     inkscape:pageopacity="0"
     inkscape:pagecheckerboard="0"
     inkscape:deskcolor="#505050"
     inkscape:zoom="10.6875"
     inkscape:cx="32"
     inkscape:cy="32"
     inkscape:window-width="1920"
     inkscape:window-height="939"
     inkscape:window-x="0"
     inkscape:window-y="34"
     inkscape:window-maximized="1"
     inkscape:current-layer="_图层_1" /><!-- Generator: Adobe Illustrator 29.0.1, SVG Export Plug-In . SVG Version: 2.1.0 Build 192)  --><defs
     id="defs6"><style
       id="style1">
      .st0 {
        fill-opacity: .5;
      }

      .st0, .st1, .st2, .st3, .st4, .st5, .st6, .st7 {
        fill: #fff;
      }

      .st8 {
        fill: #133c9a;
      }

      .st2, .st9 {
        display: none;
      }

      .st3 {
        fill-opacity: .2;
      }

      .st4 {
        fill-opacity: .9;
      }

      .st10 {
        fill: #3370ff;
      }

      .st11 {
        fill: url(#_未命名的渐变_3);
      }

      .st12 {
        fill: url(#_未命名的渐变);
      }

      .st5 {
        fill-opacity: .3;
      }

      .st6 {
        fill-opacity: 0;
      }

      .st7 {
        fill-opacity: .7;
      }

      .st13 {
        fill: #00d6b9;
      }

      .st14 {
        fill: url(#_未命名的渐变_2);
      }
    </style><radialGradient
       id="_未命名的渐变"
       data-name="未命名的渐变"
       cx="123.9"
       cy="-40.2"
       fx="123.9"
       fy="-40.2"
       r="59.4"
       gradientTransform="translate(-26.8 25.5) scale(.6 -.7)"
       gradientUnits="userSpaceOnUse"><stop
         offset="0"
         stop-color="#db202e"
         id="stop1" /><stop
         offset="1"
         stop-color="#e01b24"
         id="stop2" /></radialGradient><radialGradient
       id="_未命名的渐变_2"
       data-name="未命名的渐变 2"
       cx="67.6"
       cy="26.8"
       fx="67.6"
       fy="26.8"
       r="105.2"
       gradientTransform="translate(-26.6 25.3) scale(.6 -.7)"
       gradientUnits="userSpaceOnUse"><stop
         offset="0"
         stop-color="#ffb648"
         id="stop3" /><stop
         offset="1"
         stop-color="#ff7800"
         stop-opacity="0"
         id="stop4" /></radialGradient><radialGradient
       id="_未命名的渐变_3"
       data-name="未命名的渐变 3"
       cx="61.7"
       cy="18.6"
       fx="61.7"
       fy="18.6"
       r="68"
       gradientTransform="translate(-26.8 25.8) scale(.6 -.7)"
       gradientUnits="userSpaceOnUse"><stop
         offset="0"
         stop-color="#c64600"
         id="stop5" /><stop
         offset="1"
         stop-color="#a51d2d"
         id="stop6" /></radialGradient></defs><path
     class="st1"
     d="M47.5,64.1H13.8c-7.6,0-13.8-6.3-13.8-13.8V13.7C0,6.2,6.2,0,13.7,0h36.6c7.5,0,13.7,6.2,13.7,13.7v36.6c0,7.5-6.2,13.7-13.7,13.7h-2.9.1Z"
     id="path6"
     style="fill:#dcdcdc;fill-opacity:1" /><g
     id="g26"
     transform="matrix(0.93149541,0,0,0.92854864,2.4260652,2.4842637)"><path
       style="opacity:0.2"
       d="m 41,7 c 2.111,0.835 2.997,1.3495 3,2.5 C 44,11.985 38.627,14 32,14 25.373,14 20,11.985 20,9.5 20.005,8.384 20.999,7.8261 23,7 11.594,10.816 4.0155,20.972 4,33 4,48.464 16.536,61 32,61 47.464,61 60,48.464 60,33 59.992,20.899 52.501,10.764 41,7 Z"
       id="path1" /><path
       style="fill:#4f4f4f"
       d="m 41,6 c 2.111,0.8349 2.997,1.3495 3,2.5 C 44,10.985 38.627,13 32,13 25.373,13 20,10.985 20,8.5 20.005,7.384 20.999,6.8261 23,6 11.594,9.8157 4.0155,19.972 4,32 4,47.464 16.536,60 32,60 47.464,60 60,47.464 60,32 59.992,19.899 52.501,9.7639 41,6 Z"
       id="path2" /><path
       style="opacity:0.2"
       d="M 19,22 C 10,22 7.8398,26.699 7.8398,26.699 7.2929,28.755 7.0107,30.873 7,33 7,46.807 18.193,58 32,58 45.807,58 57,46.807 57,33 56.993,30.938 56.73,28.884 56.219,26.887 56.219,26.887 54,22 45,22 c -5,1 -13,7 -13,7 0,0 -8,-6 -13,-7 z m 1,8 a 6,7 0 0 1 6,7 6,7 0 0 1 -2.039,5.25 A 6,1 0 0 0 20,42 6,1 0 0 0 16.041,42.25 6,7 0 0 1 14.068,38 H 20 L 14.402,34.502 A 6,7 0 0 1 20,30 Z m 23,0 a 6,7 0 0 1 6,7 6,7 0 0 1 -2.039,5.25 A 6,1 0 0 0 43,42 6,1 0 0 0 39.041,42.25 6,7 0 0 1 37.068,38 H 43 L 37.402,34.502 A 6,7 0 0 1 43,30 Z M 24,45 c 0.345,0 0.675,0.031 1,0.078 v 7.168 c -0.345,-0.087 -0.677,-0.185 -1,-0.291 z m 16,0 c 0.338,0 0.672,0.039 1,0.096 v 6.48 c -0.318,0.138 -0.65,0.265 -1,0.379 z m -1,0.082 v 7.164 c -0.326,0.083 -0.66,0.158 -1,0.225 v -7.17 c 0.328,-0.092 0.661,-0.167 1,-0.219 z m -16,0.037 v 6.457 c -0.358,-0.155 -0.693,-0.327 -1,-0.513 v -5.639 c 0.324,-0.14 0.663,-0.234 1,-0.305 z m 3,0.168 c 0.339,0.091 0.673,0.196 1,0.313 v 7.025 c -0.334,-0.051 -0.674,-0.09 -1,-0.154 z m 16,0.084 c 0.374,0.148 0.708,0.347 1,0.586 v 4.33 c -0.284,0.285 -0.618,0.543 -1,0.775 z m -5,0.252 v 7.002 c -0.334,0.051 -0.662,0.115 -1,0.154 V 46 c 0.332,-0.129 0.665,-0.257 1,-0.377 z m -9,0.356 c 0.333,0.131 0.666,0.261 1,0.384 v 6.5 c -0.334,-0.027 -0.666,-0.045 -1,-0.084 z m -7,0.06 v 4.248 C 20.378,49.663 20,48.913 20,48 c 0,-0.829 0.412,-1.476 1,-1.961 z m 14,0.338 v 6.486 c -0.334,0.028 -0.67,0.065 -1,0.082 v -6.246 c 0.337,-0.094 0.67,-0.203 1,-0.322 z m -5,0.316 c 0.328,0.094 0.659,0.172 1,0.225 v 6.057 c -0.334,-0.009 -0.657,-0.011 -1,-0.03 z m 3,0.225 v 6.057 C 32.666,52.983 32.32,53 32,53 v -6 c 0.341,0 0.673,-0.032 1,-0.082 z"
       id="path3" /><path
       style="fill:#ffce66"
       d="M 19,21 C 10,21 7.8398,25.699 7.8398,25.699 7.2929,27.755 7.0107,29.873 7,32 7,45.807 18.193,57 32,57 45.807,57 57,45.807 57,32 56.993,29.938 56.73,27.884 56.219,25.887 56.219,25.887 54,21 45,21 c -5,1 -13,7 -13,7 0,0 -8,-6 -13,-7 z m 1,8 a 6,7 0 0 1 6,7 6,7 0 0 1 -2.039,5.25 A 6,1 0 0 0 20,41 6,1 0 0 0 16.041,41.25 6,7 0 0 1 14.068,37 H 20 L 14.402,33.502 A 6,7 0 0 1 20,29 Z m 23,0 a 6,7 0 0 1 6,7 6,7 0 0 1 -2.039,5.25 A 6,1 0 0 0 43,41 6,1 0 0 0 39.041,41.25 6,7 0 0 1 37.068,37 H 43 L 37.402,33.502 A 6,7 0 0 1 43,29 Z M 24,44 c 0.345,0 0.675,0.031 1,0.078 v 7.168 c -0.345,-0.087 -0.677,-0.185 -1,-0.291 z m 16,0 c 0.338,0 0.672,0.039 1,0.096 v 6.48 c -0.318,0.138 -0.65,0.265 -1,0.379 z m -1,0.082 v 7.164 c -0.326,0.083 -0.66,0.158 -1,0.225 v -7.17 c 0.328,-0.092 0.661,-0.167 1,-0.219 z m -16,0.037 v 6.457 c -0.358,-0.155 -0.693,-0.327 -1,-0.513 v -5.639 c 0.324,-0.14 0.663,-0.234 1,-0.305 z m 3,0.168 c 0.339,0.091 0.673,0.196 1,0.313 v 7.025 c -0.334,-0.051 -0.674,-0.09 -1,-0.154 z m 16,0.084 c 0.374,0.148 0.708,0.347 1,0.586 v 4.33 c -0.284,0.285 -0.618,0.543 -1,0.776 z m -5,0.252 v 7.002 c -0.334,0.051 -0.662,0.115 -1,0.154 V 45 c 0.332,-0.129 0.665,-0.257 1,-0.377 z m -9,0.356 c 0.333,0.131 0.666,0.261 1,0.384 v 6.5 c -0.334,-0.027 -0.666,-0.045 -1,-0.084 z m -7,0.06 v 4.248 C 20.378,48.663 20,47.913 20,47 c 0,-0.829 0.412,-1.476 1,-1.961 z m 14,0.338 v 6.486 c -0.334,0.028 -0.67,0.065 -1,0.082 v -6.246 c 0.337,-0.094 0.67,-0.203 1,-0.322 z m -5,0.316 c 0.328,0.094 0.659,0.172 1,0.225 v 6.057 c -0.334,-0.009 -0.657,-0.011 -1,-0.03 z m 3,0.225 v 6.057 C 32.666,51.983 32.32,52 32,52 v -6 c 0.341,0 0.673,-0.032 1,-0.082 z"
       id="path4" /><path
       style="opacity:0.1;fill:#ffffff"
       d="M 23,6 C 11.594,9.8157 4.0155,19.972 4,32 4,32.204 4.0113,32.406 4.0156,32.609 4.1779,21.829 10.423,12.616 20.037,8.1934 20.215,7.2766 21.193,6.7459 23,6 Z m 18,0 c 1.896,0.7502 2.798,1.2452 2.965,2.1719 C 53.646,12.549 59.829,21.754 59.984,32.604 59.989,32.402 60,32.202 60,32 59.992,19.899 52.501,9.7639 41,6 Z m 2.922,3 C 43.259,11.25 38.177,13 32,13 25.837,13 20.766,11.258 20.084,9.0156 20.034,9.1664 20.001,9.325 20,9.5 20,11.985 25.373,14 32,14 38.627,14 44,11.985 44,9.5 44,9.3173 43.968,9.1545 43.922,9 Z"
       id="path5" /><path
       style="opacity:0.2;fill:#ffffff"
       d="m 19,21 c -9,0 -11.1602,4.699 -11.1602,4.699 -0.4539,1.707 -0.7154,3.455 -0.8007,5.217 0.1262,-1.423 0.3645,-2.834 0.7324,-4.217 0,0 2.1601,-4.699 11.1605,-4.699 5,1 13,7 13,7 0,0 8,-6 13,-7 9,0 11.218,4.887 11.218,4.887 0.512,1.997 0.774,4.051 0.782,6.113 0,0.384 -0.013,0.765 -0.03,1.145 C 56.962,33.437 57,32.723 57,32 56.993,29.938 56.73,27.884 56.219,25.887 56.219,25.887 54,21 45,21 c -5,1 -13,7 -13,7 0,0 -8,-6 -13,-7 z m -4.33,12.668 a 6,7 0 0 0 -0.336,0.834 L 18.332,37 H 20 Z m 23,0 a 6,7 0 0 0 -0.336,0.834 L 41.332,37 H 43 Z m -11.738,3.32 A 6,7 0 0 1 23.961,41.25 6,1 0 0 0 20,41 6,1 0 0 0 16.041,41.25 6,7 0 0 1 14.266,38 H 14 a 6,7 0 0 0 1.973,4.25 6,1 0 0 1 3.959,-0.25 6,1 0 0 1 3.961,0.25 6,7 0 0 0 2.039,-5.25 6,7 0 0 0 0,-0.012 z m 23,0 A 6,7 0 0 1 46.961,41.25 6,1 0 0 0 43,41 6,1 0 0 0 39.041,41.25 6,7 0 0 1 37.266,38 H 37 a 6,7 0 0 0 1.973,4.25 6,1 0 0 1 3.959,-0.25 6,1 0 0 1 3.961,0.25 6,7 0 0 0 2.039,-5.25 6,7 0 0 0 0,-0.012 z m -25,8.012 v 6.955 c 0.323,0.106 0.655,0.204 1,0.291 V 51.227 C 24.612,51.144 24.301,51.053 24,50.955 V 45.006 C 23.977,45.006 23.955,45 23.932,45 Z m 16,0 v 6.955 c 0.35,-0.114 0.682,-0.241 1,-0.379 V 50.602 C 40.634,50.728 40.326,50.848 40,50.955 V 45.006 C 39.977,45.006 39.955,45 39.932,45 Z M 38,45.285 c -0.023,0.006 -0.046,0.01 -0.068,0.016 v 7.17 c 0.34,-0.067 0.673,-0.142 1,-0.225 V 51.262 C 38.627,51.338 38.317,51.408 38,51.471 Z m -12.068,0.002 v 7.184 c 0.325,0.064 0.666,0.103 1,0.154 v -1.01 C 26.62,51.569 26.303,51.531 26,51.471 v -6.162 c -0.023,-0.007 -0.045,-0.016 -0.068,-0.022 z m 16,0.084 v 5.692 c 0.381,-0.233 0.715,-0.491 1,-0.776 v -0.939 c -0.27,0.26 -0.579,0.5 -0.932,0.715 v -4.659 c -0.024,-0.01 -0.044,-0.023 -0.068,-0.033 z M 22,45.398 c -0.023,0.01 -0.046,0.016 -0.068,0.026 v 5.639 c 0.307,0.186 0.641,0.358 1,0.513 V 50.541 C 22.601,50.394 22.286,50.237 22,50.063 Z m 14,0.577 C 35.977,45.983 35.954,45.991 35.932,46 v 6.779 c 0.338,-0.039 0.666,-0.103 1,-0.154 v -0.99 C 36.621,51.684 36.315,51.743 36,51.779 Z m -8.068,0.004 v 6.8 c 0.334,0.039 0.665,0.057 1,0.084 V 51.857 C 28.621,51.833 28.311,51.815 28,51.779 V 46.004 C 27.977,45.995 27.954,45.987 27.932,45.979 Z M 34,46.678 c -0.023,0.006 -0.045,0.015 -0.068,0.021 v 6.246 c 0.329,-0.017 0.666,-0.054 1,-0.082 V 51.869 C 34.62,51.896 34.307,51.929 34,51.945 Z m -4.068,0.015 v 6.252 c 0.343,0.019 0.666,0.021 1,0.03 V 51.973 C 30.622,51.965 30.32,51.963 30,51.945 V 46.709 C 29.978,46.703 29.954,46.7 29.932,46.693 Z M 32,46.994 C 31.977,46.994 31.955,47 31.932,47 v 6 c 0.32,0 0.665,-0.017 1,-0.025 V 51.977 C 32.619,51.986 32.298,52 32,52 Z m -11.965,0.344 c -0.062,0.207 -0.103,0.425 -0.103,0.662 0,0.913 0.378,1.663 1,2.287 v -1.08 c -0.5,-0.527 -0.818,-1.146 -0.897,-1.869 z"
       id="path6-5" /></g></svg>
