<?xml version="1.0" encoding="UTF-8" standalone="no"?>
<svg
   id="_图层_1"
   version="1.1"
   viewBox="0 0 64 64" width="48" height="48"
   sodipodi:docname="charles-proxy.svg"
   xml:space="preserve"
   inkscape:version="1.4 (e7c3feb100, 2024-10-09)"
   xmlns:inkscape="http://www.inkscape.org/namespaces/inkscape"
   xmlns:sodipodi="http://sodipodi.sourceforge.net/DTD/sodipodi-0.dtd"
   xmlns="http://www.w3.org/2000/svg"
   xmlns:svg="http://www.w3.org/2000/svg"><sodipodi:namedview
     id="namedview26"
     pagecolor="#505050"
     bordercolor="#eeeeee"
     borderopacity="1"
     inkscape:showpageshadow="0"
     inkscape:pageopacity="0"
     inkscape:pagecheckerboard="0"
     inkscape:deskcolor="#505050"
     inkscape:zoom="10.6875"
     inkscape:cx="32"
     inkscape:cy="29.005848"
     inkscape:window-width="1920"
     inkscape:window-height="939"
     inkscape:window-x="0"
     inkscape:window-y="34"
     inkscape:window-maximized="1"
     inkscape:current-layer="_图层_1" /><!-- Generator: Adobe Illustrator 29.0.1, SVG Export Plug-In . SVG Version: 2.1.0 Build 192)  --><defs
     id="defs6"><style
       id="style1">
      .st0 {
        fill-opacity: .5;
      }

      .st0, .st1, .st2, .st3, .st4, .st5, .st6, .st7 {
        fill: #fff;
      }

      .st8 {
        fill: #133c9a;
      }

      .st2, .st9 {
        display: none;
      }

      .st3 {
        fill-opacity: .2;
      }

      .st4 {
        fill-opacity: .9;
      }

      .st10 {
        fill: #3370ff;
      }

      .st11 {
        fill: url(#_未命名的渐变_3);
      }

      .st12 {
        fill: url(#_未命名的渐变);
      }

      .st5 {
        fill-opacity: .3;
      }

      .st6 {
        fill-opacity: 0;
      }

      .st7 {
        fill-opacity: .7;
      }

      .st13 {
        fill: #00d6b9;
      }

      .st14 {
        fill: url(#_未命名的渐变_2);
      }
    </style><radialGradient
       id="_未命名的渐变"
       data-name="未命名的渐变"
       cx="123.9"
       cy="-40.2"
       fx="123.9"
       fy="-40.2"
       r="59.4"
       gradientTransform="translate(-26.8 25.5) scale(.6 -.7)"
       gradientUnits="userSpaceOnUse"><stop
         offset="0"
         stop-color="#db202e"
         id="stop1" /><stop
         offset="1"
         stop-color="#e01b24"
         id="stop2" /></radialGradient><radialGradient
       id="_未命名的渐变_2"
       data-name="未命名的渐变 2"
       cx="67.6"
       cy="26.8"
       fx="67.6"
       fy="26.8"
       r="105.2"
       gradientTransform="translate(-26.6 25.3) scale(.6 -.7)"
       gradientUnits="userSpaceOnUse"><stop
         offset="0"
         stop-color="#ffb648"
         id="stop3" /><stop
         offset="1"
         stop-color="#ff7800"
         stop-opacity="0"
         id="stop4" /></radialGradient><radialGradient
       id="_未命名的渐变_3"
       data-name="未命名的渐变 3"
       cx="61.7"
       cy="18.6"
       fx="61.7"
       fy="18.6"
       r="68"
       gradientTransform="translate(-26.8 25.8) scale(.6 -.7)"
       gradientUnits="userSpaceOnUse"><stop
         offset="0"
         stop-color="#c64600"
         id="stop5" /><stop
         offset="1"
         stop-color="#a51d2d"
         id="stop6" /></radialGradient></defs><path
     class="st1"
     d="M47.5,64.1H13.8c-7.6,0-13.8-6.3-13.8-13.8V13.7C0,6.2,6.2,0,13.7,0h36.6c7.5,0,13.7,6.2,13.7,13.7v36.6c0,7.5-6.2,13.7-13.7,13.7h-2.9.1Z"
     id="path6"
     style="fill:#e4e4e4;fill-opacity:1" /><g
     id="g26"
     transform="matrix(1.5151034,0,0,1.4010641,-13.522598,-23.76255)"><path
       style="opacity:0.2"
       d="M 37.20412,50.86449 C 34.488803,49.296802 25.812613,39.371085 25.812613,39.371085 c 0,0 12.934018,2.550946 15.649331,4.118634 2.715319,1.567686 3.497242,5.296807 2.787604,6.525937 -0.709638,1.229129 -4.330112,2.416523 -7.045428,0.848834 z"
       id="path3" /><path
       style="fill:#4670c8"
       d="M 37.20412,49.86449 C 34.488803,48.296802 25.812613,38.371085 25.812613,38.371085 c 0,0 12.934018,2.550946 15.649331,4.118634 2.715319,1.567686 3.497242,5.296807 2.787604,6.525937 -0.709638,1.229129 -4.330112,2.416523 -7.045428,0.848834 z"
       id="path4" /><path
       style="opacity:0.2"
       d="m 41.56933,42.674061 c -3.028541,0.811495 -16.182074,-0.07206 -16.182074,-0.07206 0,0 10.949517,-7.341944 13.978059,-8.153439 3.028541,-0.811494 6.218333,1.27249 6.585668,2.643402 0.367335,1.370916 -1.353114,4.770593 -4.381653,5.582091 z"
       id="path5" /><path
       style="fill:#4ab6e7"
       d="m 41.56933,41.674061 c -3.028541,0.811495 -16.182074,-0.07206 -16.182074,-0.07206 0,0 10.949517,-7.341944 13.978059,-8.153439 3.028541,-0.811494 6.218333,1.27249 6.585668,2.643402 0.367335,1.370916 -1.353114,4.770593 -4.381653,5.582091 z"
       id="path6-0" /><path
       style="opacity:0.2"
       d="m 38.864491,33.795883 c -1.567688,2.715318 -11.493404,11.391504 -11.493404,11.391504 0,0 2.550941,-12.934015 4.11863,-15.649332 1.567689,-2.715316 5.29681,-3.497238 6.525939,-2.787601 1.229127,0.709635 2.416524,4.33011 0.848835,7.045429 z"
       id="path7" /><path
       style="fill:#4670c8"
       d="m 38.864491,32.795883 c -1.567688,2.715318 -11.493404,11.391504 -11.493404,11.391504 0,0 2.550941,-12.934015 4.11863,-15.649332 1.567689,-2.715316 5.29681,-3.497238 6.525939,-2.787601 1.229127,0.709635 2.416524,4.33011 0.848835,7.045429 z"
       id="path8" /><path
       style="opacity:0.2"
       d="m 17.538056,39.510282 c 2.715317,1.56769 15.649331,4.118631 15.649331,4.118631 0,0 -8.676187,-9.925712 -11.391505,-11.493402 -2.715316,-1.567688 -6.33579,-0.380294 -7.045428,0.848836 -0.709639,1.22913 0.07229,4.958247 2.787602,6.525935 z"
       id="path9" /><path
       style="fill:#4670c8"
       d="m 17.538056,38.510282 c 2.715317,1.56769 15.649331,4.118631 15.649331,4.118631 0,0 -8.676187,-9.925712 -11.391505,-11.493402 -2.715316,-1.567688 -6.33579,-0.380294 -7.045428,0.848836 -0.709639,1.22913 0.07229,4.958247 2.787602,6.525935 z"
       id="path10" /><path
       style="opacity:0.2"
       d="m 28.325942,53.56933 c -0.811498,-3.028545 0.07207,-16.182078 0.07207,-16.182078 0,0 7.341941,10.949519 8.153436,13.978061 0.811493,3.028545 -1.27249,6.218335 -2.643402,6.585669 -1.370916,0.367337 -4.770594,-1.353113 -5.582088,-4.381652 z"
       id="path11" /><path
       style="opacity:0.2"
       d="m 19.634686,48.551431 c 3.028544,-0.811494 13.978062,-8.153439 13.978062,-8.153439 0,0 -13.153533,-0.883551 -16.182075,-0.07207 -3.028543,0.811496 -4.748992,4.211175 -4.381655,5.582088 0.367336,1.370919 3.557126,3.454899 6.585668,2.643405 z"
       id="path12" /><path
       style="fill:#4ab6e7"
       d="m 19.634686,47.551431 c 3.028544,-0.811494 13.978062,-8.153439 13.978062,-8.153439 0,0 -13.153533,-0.883551 -16.182075,-0.07207 -3.028543,0.811496 -4.748992,4.211175 -4.381655,5.582088 0.367336,1.370919 3.557126,3.454899 6.585668,2.643405 z"
       id="path13" /><path
       style="fill:#4ab6e7"
       d="m 28.325942,52.56933 c -0.811498,-3.028545 0.07207,-16.182078 0.07207,-16.182078 0,0 7.341941,10.949519 8.153436,13.978061 0.811493,3.028545 -1.27249,6.218335 -2.643402,6.585669 -1.370916,0.367337 -4.770594,-1.353113 -5.582088,-4.381652 z"
       id="path14" /><path
       style="opacity:0.2"
       d="m 27.510284,53.461948 c 1.56769,-2.715319 4.118631,-15.649332 4.118631,-15.649332 0,0 -9.925715,8.676186 -11.493404,11.391504 -1.56769,2.715314 -0.380295,6.33579 0.848835,7.045427 1.229127,0.709639 4.958249,-0.07229 6.525938,-2.787599 z"
       id="path15" /><path
       style="fill:#4670c8"
       d="m 27.510284,52.461948 c 1.56769,-2.715319 4.118631,-15.649332 4.118631,-15.649332 0,0 -9.925715,8.676186 -11.493404,11.391504 -1.56769,2.715314 -0.380295,6.33579 0.848835,7.045427 1.229127,0.709639 4.958249,-0.07229 6.525938,-2.787599 z"
       id="path16" /><path
       style="opacity:0.2"
       d="m 22.44857,31.634685 c 0.811495,3.028542 8.153438,13.978063 8.153438,13.978063 0,0 0.883551,-13.153537 0.07206,-16.182075 -0.811496,-3.028542 -4.211175,-4.748991 -5.582088,-4.381656 -1.370917,0.367338 -3.454899,3.557127 -2.643405,6.585668 z"
       id="path17" /><path
       style="fill:#4ab6e7"
       d="m 22.44857,30.634685 c 0.811495,3.028542 8.153438,13.978063 8.153438,13.978063 0,0 0.883551,-13.153537 0.07206,-16.182075 -0.811496,-3.028542 -4.211175,-4.748991 -5.582088,-4.381656 -1.370917,0.367338 -3.454899,3.557127 -2.643405,6.585668 z"
       id="path18" /><circle
       style="opacity:0.2"
       cx="46.298"
       cy="21.190001"
       r="5.5"
       transform="rotate(30)"
       id="circle18" /><circle
       style="fill:#ffb22e"
       cx="45.798"
       cy="20.323999"
       r="5.5"
       transform="rotate(30)"
       id="circle19" /><path
       style="opacity:0.2;fill:#ffffff"
       d="M 29.240234,35.005859 A 5.5,5.5 0 0 0 24.736328,37.75 5.5,5.5 0 0 0 24.029297,41.001953 5.5,5.5 0 0 1 24.736328,38.75 5.5,5.5 0 0 1 32.25,36.736328 5.5,5.5 0 0 1 34.970703,40.998047 5.5,5.5 0 0 0 32.25,35.736328 5.5,5.5 0 0 0 29.240234,35.005859 Z"
       id="path19" /></g></svg>
