<?xml version="1.0" encoding="UTF-8" standalone="no"?>
<svg
   id="_图层_1"
   version="1.1"
   viewBox="0 0 64 64" width="48" height="48"
   sodipodi:docname="chrome-ieailfmhaghpphfffooibmlghaeopach-Default.svg"
   xml:space="preserve"
   inkscape:version="1.4 (e7c3feb100, 2024-10-09)"
   xmlns:inkscape="http://www.inkscape.org/namespaces/inkscape"
   xmlns:sodipodi="http://sodipodi.sourceforge.net/DTD/sodipodi-0.dtd"
   xmlns="http://www.w3.org/2000/svg"
   xmlns:svg="http://www.w3.org/2000/svg"><sodipodi:namedview
     id="namedview26"
     pagecolor="#505050"
     bordercolor="#eeeeee"
     borderopacity="1"
     inkscape:showpageshadow="0"
     inkscape:pageopacity="0"
     inkscape:pagecheckerboard="0"
     inkscape:deskcolor="#505050"
     inkscape:zoom="10.6875"
     inkscape:cx="32"
     inkscape:cy="36.491228"
     inkscape:window-width="1920"
     inkscape:window-height="939"
     inkscape:window-x="0"
     inkscape:window-y="34"
     inkscape:window-maximized="1"
     inkscape:current-layer="_图层_1" /><!-- Generator: Adobe Illustrator 29.0.1, SVG Export Plug-In . SVG Version: 2.1.0 Build 192)  --><defs
     id="defs6"><style
       id="style1">
      .st0 {
        fill-opacity: .5;
      }

      .st0, .st1, .st2, .st3, .st4, .st5, .st6, .st7 {
        fill: #fff;
      }

      .st8 {
        fill: #133c9a;
      }

      .st2, .st9 {
        display: none;
      }

      .st3 {
        fill-opacity: .2;
      }

      .st4 {
        fill-opacity: .9;
      }

      .st10 {
        fill: #3370ff;
      }

      .st11 {
        fill: url(#_未命名的渐变_3);
      }

      .st12 {
        fill: url(#_未命名的渐变);
      }

      .st5 {
        fill-opacity: .3;
      }

      .st6 {
        fill-opacity: 0;
      }

      .st7 {
        fill-opacity: .7;
      }

      .st13 {
        fill: #00d6b9;
      }

      .st14 {
        fill: url(#_未命名的渐变_2);
      }
    </style><radialGradient
       id="_未命名的渐变"
       data-name="未命名的渐变"
       cx="123.9"
       cy="-40.2"
       fx="123.9"
       fy="-40.2"
       r="59.4"
       gradientTransform="translate(-26.8 25.5) scale(.6 -.7)"
       gradientUnits="userSpaceOnUse"><stop
         offset="0"
         stop-color="#db202e"
         id="stop1" /><stop
         offset="1"
         stop-color="#e01b24"
         id="stop2" /></radialGradient><radialGradient
       id="_未命名的渐变_2"
       data-name="未命名的渐变 2"
       cx="67.6"
       cy="26.8"
       fx="67.6"
       fy="26.8"
       r="105.2"
       gradientTransform="translate(-26.6 25.3) scale(.6 -.7)"
       gradientUnits="userSpaceOnUse"><stop
         offset="0"
         stop-color="#ffb648"
         id="stop3" /><stop
         offset="1"
         stop-color="#ff7800"
         stop-opacity="0"
         id="stop4" /></radialGradient><radialGradient
       id="_未命名的渐变_3"
       data-name="未命名的渐变 3"
       cx="61.7"
       cy="18.6"
       fx="61.7"
       fy="18.6"
       r="68"
       gradientTransform="translate(-26.8 25.8) scale(.6 -.7)"
       gradientUnits="userSpaceOnUse"><stop
         offset="0"
         stop-color="#c64600"
         id="stop5" /><stop
         offset="1"
         stop-color="#a51d2d"
         id="stop6" /></radialGradient></defs><path
     class="st1"
     d="M47.5,64.1H13.8c-7.6,0-13.8-6.3-13.8-13.8V13.7C0,6.2,6.2,0,13.7,0h36.6c7.5,0,13.7,6.2,13.7,13.7v36.6c0,7.5-6.2,13.7-13.7,13.7h-2.9.1Z"
     id="path6"
     style="fill:#ea4335;fill-opacity:1" /><g
     id="g26"
     transform="matrix(1.1453634,0,0,1.1444547,-4.6048454,-4.5631989)"><path
       style="opacity:0.2"
       d="M 36.059046,50.554488 C 41.598814,48.708632 45.938924,45.54712 48.42211,40.433244 49.530196,38.10086 49.999214,35.833562 50,32.805468 50.000728,29.752334 49.548558,27.80458 48.194132,25.02762 44.375106,18.038417 37.758442,14.774829 31.041772,15.012047 c -3.49392,0.123396 -5.31774,0.61243 -8.388824,2.194715 -2.878387,1.483006 -5.803264,4.443984 -7.125263,7.213212 -3.249444,6.806712 -1.178521,13.495362 4.914001,15.87116 0.944632,0.368366 2.09504,0.518774 4.846612,0.633668 1.827414,0.03976 3.21196,-0.281308 4.43757,1.055542 1.110544,1.211328 1.14234,2.504602 0.10008,4.071776 -1.09198,1.642008 -0.999148,3.714524 0.539024,4.481816 1.455972,0.726288 3.65521,0.501162 5.694024,0.02056 1.2e-5,-4e-6 4e-5,-1.6e-5 4e-5,-1.6e-5 z"
       id="path2" /><path
       style="fill:#ffffff"
       d="M 36.059046,49.554488 C 41.598814,47.708632 45.938924,44.54712 48.42211,39.433244 49.530196,37.10086 49.999214,34.833562 50,31.805468 50.000728,28.752334 49.548558,26.80458 48.194132,24.02762 44.375106,17.038417 37.758442,13.774829 31.041772,14.012047 c -3.49392,0.123396 -5.31774,0.61243 -8.388824,2.194715 -2.878387,1.483006 -5.803264,4.443984 -7.125263,7.213212 -3.249444,6.806712 -1.178521,13.495362 4.914001,15.87116 0.944632,0.368366 2.09504,0.518774 4.846612,0.633668 1.827414,0.03976 3.21196,-0.281308 4.43757,1.055542 1.110544,1.211328 1.14234,2.504602 0.10008,4.071776 -1.09198,1.642008 -0.999148,3.714524 0.539024,4.481816 1.455972,0.726288 3.65521,0.501162 5.694024,0.02056 1.2e-5,-4e-6 4e-5,-1.6e-5 4e-5,-1.6e-5 z"
       id="path3" /><circle
       style="fill:#f28b82"
       cx="43"
       cy="28"
       r="3"
       id="circle3" /><circle
       style="fill:#f0a1e4"
       cx="21"
       cy="28"
       r="3"
       id="circle4" /><circle
       style="fill:#f28b82"
       cx="27"
       cy="21"
       r="3"
       id="circle5" /><circle
       style="fill:#f0a1e4"
       cx="37"
       cy="21"
       r="3"
       id="circle6" /><path
       style="fill:#ea4335"
       d="m 28,26.743082 c 1.760946,1.902238 3.861344,0.521918 5.081272,1.970256 0.655844,0.778638 0.503368,2.941864 0.503368,2.941864 l -1.218982,1.016902 C 27.622852,31.98542 28.182992,29.218492 28,26.743082 Z"
       id="path6-3" /><path
       style="fill:#f0a1e4"
       d="m 33.250676,31.655202 c 0.553558,-0.232214 0.822462,0.04436 1.280906,0.291344 3.341934,1.964308 7.624954,6.83141 12.893924,13.50467 1.0266,1.471178 0.424656,2.55948 -1.035642,1.565718 C 41.341596,43.017802 36.556218,38.7659 32.474628,33.837312 32.233706,33.518846 31.98216,33.2067 32.10459,32.672104 Z"
       id="path7" /></g></svg>
