<?xml version="1.0" encoding="UTF-8"?>
<svg id="_图层_1" xmlns="http://www.w3.org/2000/svg" version="1.1" viewBox="0 0 64 64" width="48" height="48">
  <!-- Generator: Adobe Illustrator 29.0.1, SVG Export Plug-In . SVG Version: 2.1.0 Build 192)  -->
  <defs>
    <style>
      .st0 {
        fill: #4c66cc;
      }

      .st1 {
        fill: #6c7f94;
      }

      .st2 {
        fill: #752828;
      }

      .st3 {
        isolation: isolate;
        opacity: .2;
      }
    </style>
  </defs>
  <path class="st2" d="M47.5,64.1H13.8c-7.6,0-13.8-6.3-13.8-13.8V13.7C0,6.2,6.2,0,13.7,0h36.6c7.5,0,13.7,6.2,13.7,13.7v36.6c0,7.5-6.2,13.7-13.7,13.7h-2.9.1Z"/>
  <g>
    <path class="st3" d="M30.9,30.9c-11.9,0-22.1,5.2-22.1,11.6s10.2,11.6,22.1,11.6,22.1-5.2,22.1-11.6-10.2-11.6-22.1-11.6ZM30.9,35.3c9.4,0,17.7,3.2,17.7,7.2s-8.2,7.2-17.7,7.2-17.7-3.2-17.7-7.2,8.2-7.2,17.7-7.2Z"/>
    <path class="st1" d="M30.9,29.8c-11.9,0-22.1,5.2-22.1,11.6s10.2,11.6,22.1,11.6,22.1-5.2,22.1-11.6-10.2-11.6-22.1-11.6ZM30.9,34.2c9.4,0,17.7,3.2,17.7,7.2s-8.2,7.2-17.7,7.2-17.7-3.2-17.7-7.2,8.2-7.2,17.7-7.2Z"/>
    <path class="st3" d="M38.1,9.9c-.9,0-1.7.8-1.7,1.9v26.5c-1.2-.5-2.5-.8-3.9-.8-4,0-7.2,2.2-7.2,5s3.2,5,7.2,5,7.2-2.2,7.2-5V11.8c0-1-.7-1.9-1.7-1.9Z"/>
    <path class="st0" d="M38.1,8.8c-.9,0-1.7.8-1.7,1.9v26.5c-1.2-.5-2.5-.8-3.9-.8-4,0-7.2,2.2-7.2,5s3.2,5,7.2,5,7.2-2.2,7.2-5V10.7c0-1-.7-1.9-1.7-1.9Z"/>
  </g>
</svg>