<?xml version="1.0" encoding="UTF-8"?>
<svg id="_图层_1" xmlns="http://www.w3.org/2000/svg" version="1.1" viewBox="0 0 64 64" width="48" height="48">
  <!-- Generator: Adobe Illustrator 29.0.1, SVG Export Plug-In . SVG Version: 2.1.0 Build 192)  -->
  <defs>
    <style>
      .st0 {
        fill: #3f7da7;
        fill-rule: evenodd;
      }

      .st1 {
        fill: #4a96e1;
      }

      .st2, .st3 {
        fill: #fff;
      }

      .st4 {
        fill: #4271a3;
      }

      .st5 {
        fill: #f44336;
      }

      .st6 {
        fill: #2f67a4;
      }

      .st7 {
        fill: #304776;
      }

      .st8 {
        opacity: .2;
      }

      .st8, .st3 {
        isolation: isolate;
      }

      .st9 {
        fill: #ebebeb;
      }

      .st10 {
        fill: #5c5f60;
      }

      .st11 {
        fill: #f7f7f7;
      }

      .st3 {
        opacity: .1;
      }
    </style>
  </defs>
  <path class="st11" d="M50.4,64H13.8c-7.6,0-13.8-6.2-13.8-13.7V13.7C0,6.2,6.2,0,13.7,0h36.6c7.5,0,13.7,6.2,13.7,13.7v36.6c0,7.5-6.2,13.7-13.7,13.7h.1Z"/>
  <g>
    <path class="st8" d="M26,7.2c-3.9,0-6.2,3.5-7.8,6.4-.3.1-.6.3-.9.4-3.1,1.9-5.6,4.5-7.5,7.4-1.7,2.8-2.7,5.9-3.1,9-.2,3.2.2,6.5,1.5,9.5,2.5,5.2,8.6,11.2,14.3,11.1-1.2-.7-4.3-3.2-5.3-8.1,1,1.9,5.7,4.3,7.1,4.9-.7-.6-3.3-4.2-3.5-6.3l-8.9-2.5c-.8-2.3-1.2-4.6-1.5-7,0-.5-.1-1.1.1-1,.8,1.1,1.9,1.5,3.2,2.2-1.3-1.9-1.9-4-1.7-6.3.2-2.2,1.6-4.4,3.1-6,.2-.2.4-.4.6-.6,0,.6.2,1.2.3,1.7,0,.4.3,1.3,0,1.4-.5,1.3-.9,2.9.2,4,.3-1.4,2-2.1,3.4-2.7,1.5-.6,2.7-1.9,4.2-2.6,2-1,3.9.4,6.4.4s5-.8,7.4-1.8c.6.5,1.6,1.4,2,2h0c1.2,1.8,2.1,4,2.4,6.1.4,2.7,0,5.5-1.7,7.5,0,0,0,0,0,0,0,0,0,0,0,0,0,0,3.2.2,5.3-1.6-1.5,10.7-8.6,16.4-12.4,17.9,4.8.3,8.5-3,8.7-3.2-.5.6-2.2,2.5-3.4,3.2,3.3-.8,5.4-1.1,7.5-2.5,0,0,1.7-.8,3.4-2.7.2-.2.6-.6.9-.9.1-.2.3-.3.4-.5,0,0,0,0,0,0,3.7-4.1,5.5-9.3,5.3-13.9,0-5.6-2.5-10.5-6.6-14.6-3-2.9-6.5-4.9-9.5-5.8-4-1.1-8.9-1.5-12.5-.9-.3.1,0-1.7.5-2-.8,0-1.7,1.5-2.5,2.3,0,0-.2,0-.2,0,.5-.9.2-1.4,1-2.3-2.1.4-2.5,1.6-3.3,2.9-.3,0-.5.2-.8.3.7-2.1,2-3.2,4.1-4.8Z"/>
    <path class="st7" d="M14.4,43.6c2.1,2.8,4.9,6.2,8.1,6.6-1.2-.7-4.3-3.2-5.3-8.1,1,1.9,5.7,4.3,7.1,4.9-.7-.6-3.3-4.2-3.5-6.3l-8.9-2.5c0,0,.3,2.4,2.6,5.4Z"/>
    <path class="st8" d="M46.2,24.2l-16.1-5.2-17.2,1.1-4.4,5c.8,4.7.3,9.7,3,13.8l30.4,8.9,4.2-10.8v-12.8Z"/>
    <path class="st9" d="M46.2,23.4l-16.1-5.2-17.2,1.1-4.4,5c.8,4.7.3,9.7,3,13.8l30.4,8.9,4.2-10.8v-12.8Z"/>
    <path class="st0" d="M13.3,19l2.9.4.8-3.6-1.6.7-2.1,2.5Z"/>
    <path class="st8" d="M44.8,27.1l-2.4-7.2-29.1-.3-.2.2-.3.3,11.4,14.7,20.6-7.7Z"/>
    <path class="st11" d="M44.8,26.3l-2.4-7.2-29.1-.3-.2.2-.3.3,11.4,14.7,20.6-7.7Z"/>
    <path class="st6" d="M30,9.9s-3.7,0-5.3.5c-2.7.6-5.1,1.6-7.4,2.8-3.1,1.9-5.6,4.5-7.5,7.4-1.7,2.8-2.7,5.9-3.1,9-.2,3.2.2,6.5,1.5,9.5,2.5,5.2,8.6,11.2,14.3,11.1-.7-.1-1.3-.8-2-1.1-2.3-1.2-4.5-3.3-6.1-5.5-2.3-3-2.5-5.3-2.6-5.4h0c-.8-2.3-1.2-4.6-1.5-7,0-.5-.1-1.1.1-1,.8,1.1,1.9,1.5,3.2,2.2-1.3-1.9-1.9-4-1.7-6.3.2-2.2,1.6-4.4,3.1-6,4-4.2,9.7-7.5,14.9-10.2Z"/>
    <path class="st3" d="M30,9.9s-3.7,0-5.3.5c-2.7.6-5.1,1.6-7.4,2.8-3.1,1.9-5.6,4.5-7.5,7.4-1.7,2.8-2.7,5.9-3.1,9,0,.6,0,1.3,0,1.9,0-.4,0-.7,0-1.1.4-3.2,1.4-6.3,3.1-9,1.9-2.9,4.5-5.5,7.5-7.4,2.4-1.2,4.8-2.2,7.4-2.8.9-.3,2.4-.4,3.6-.4.6-.3,1.1-.6,1.7-.9Z"/>
    <path class="st1" d="M26,6.4c-4.2.1-6.5,4-8.2,7.1-.6,1-1.2,2.1-1.7,3-1,1.4-.4,3.2-.2,4.7,0,.4.3,1.3,0,1.4-.5,1.3-.9,2.9.2,4,.3-1.4,2-2.1,3.4-2.7,1.5-.6,2.7-1.9,4.2-2.6,2-1,3.9.4,6.4.4s5-.8,7.4-1.8c.6.5,1.6,1.4,2,2h0c1.2,1.8,2.1,4,2.4,6.1.4,2.7,0,5.5-1.7,7.5,0,0,0,0,0,0,0,0,0,0,0,0,0,0,3.2.2,5.3-1.6-1.5,10.7-8.6,16.4-12.4,17.9,5,.3,8.8-3.2,8.8-3.2.7-1-1.8,2.3-3.5,3.2,3.3-.8,5.4-1.1,7.5-2.5,0,0,1.7-.8,3.4-2.7.2-.2.6-.6.9-.9.1-.2.3-.3.4-.5,0,0,0,0,0,0,3.7-4.1,5.5-9.3,5.3-13.9,0-5.6-2.5-10.5-6.6-14.6-3-2.9-6.5-4.9-9.5-5.8-4-1.1-8.9-1.5-12.5-.9-.3.1,0-1.7.5-2-1,0-2.1,2.1-2.9,2.6.7-1,.3-1.6,1.1-2.6-2.9.5-2.6,2.8-4.4,4.3.6-2.9,1.9-4.1,4.4-6h0Z"/>
    <path class="st4" d="M17.8,22.6c5.9-.2,2.2-3.5,10-9.7-6.4,3-12.5,3-10,9.7h0Z"/>
    <path class="st2" d="M21.3,19.9c-.6.9-1.9,1.3-2.6,1-.7-.4-.7-1.6-.2-2.5.6-.9,3-.5,3-.5s.3,1.1-.3,2h0Z"/>
    <path class="st10" d="M18.8,24.2s.3-.3.2-.8c-2,.6-2.9-1.1-2.9-1.1s-1.5,3.6.3,5.2c.2-1.3,2.4-3.2,2.4-3.2"/>
    <ellipse class="st10" cx="19.9" cy="19.4" rx=".9" ry=".8"/>
    <path class="st3" d="M26,6.4c-4.2.1-6.5,4-8.2,7.1-.6,1-1.2,2.1-1.7,3-.5.7-.6,1.6-.5,2.4,0-.6.2-1.1.5-1.6.5-.9,1.1-2.1,1.7-3,1.5-2.7,3.5-6.2,7-6.9.4-.3.8-.6,1.2-1ZM26,8c-2.8.5-2.6,2.5-4.1,4-.1.3-.2.7-.3,1.1,1.7-1.5,1.5-3.6,3.9-4.2,0-.3.2-.6.5-.9ZM27.8,8c-.8,0-1.7,1.4-2.4,2.2,0,.4-.2.7-.5,1.2.7-.4,1.5-1.9,2.4-2.4.1-.4.3-.9.5-1ZM30.2,9.7c-1,0-2,.1-2.9.3,0,0,0,0,0,0,0,.5-.1.9,0,.8,3.5-.6,8.5-.2,12.5.9,3.1,1,6.5,2.9,9.5,5.8,4.2,4,6.7,8.9,6.6,14.6,0,0,0,0,0,.1,0-.3,0-.6,0-.9,0-5.6-2.5-10.5-6.6-14.6-3-2.9-6.5-4.9-9.5-5.8-3-.8-6.5-1.2-9.6-1.2Z"/>
    <ellipse class="st8" cx="44.6" cy="42.1" rx="13.2" ry="12.2"/>
    <ellipse class="st5" cx="44.6" cy="41.3" rx="13.2" ry="12.2"/>
    <path class="st2" d="M47.6,47.8c-.6,1-1.8,1.6-3.1,1.6s-2.4-.6-3.1-1.6h6.1Z"/>
    <path class="st2" d="M44.6,32.4c.7,0,1.3.5,1.3,1.1s0,0,0,.1c2.9.5,4.9,2.8,4.9,5.5v5.1l2.6,2.2v.6h-17.7v-.6l2.6-2.2v-5.1c0-2.7,2-5,4.9-5.5,0,0,0,0,0-.1,0-.6.6-1.1,1.3-1.1Z"/>
  </g>
</svg>