<?xml version="1.0" encoding="UTF-8" standalone="no"?>
<svg
   id="_图层_1"
   version="1.1"
   viewBox="0 0 64 64" width="48" height="48"
   sodipodi:docname="com.github.amikha1lov.RecApp.svg"
   xml:space="preserve"
   inkscape:version="1.4 (e7c3feb100, 2024-10-09)"
   xmlns:inkscape="http://www.inkscape.org/namespaces/inkscape"
   xmlns:sodipodi="http://sodipodi.sourceforge.net/DTD/sodipodi-0.dtd"
   xmlns="http://www.w3.org/2000/svg"
   xmlns:svg="http://www.w3.org/2000/svg"><sodipodi:namedview
     id="namedview26"
     pagecolor="#505050"
     bordercolor="#eeeeee"
     borderopacity="1"
     inkscape:showpageshadow="0"
     inkscape:pageopacity="0"
     inkscape:pagecheckerboard="0"
     inkscape:deskcolor="#505050"
     inkscape:zoom="10.6875"
     inkscape:cx="32"
     inkscape:cy="32.093567"
     inkscape:window-width="1920"
     inkscape:window-height="939"
     inkscape:window-x="0"
     inkscape:window-y="34"
     inkscape:window-maximized="1"
     inkscape:current-layer="_图层_1"
     showguides="true"><sodipodi:guide
       position="25.533397,50.243067"
       orientation="0,-1"
       id="guide26"
       inkscape:locked="false" /><sodipodi:guide
       position="50.579444,53.318274"
       orientation="1,0"
       id="guide27"
       inkscape:locked="false" /></sodipodi:namedview><!-- Generator: Adobe Illustrator 29.0.1, SVG Export Plug-In . SVG Version: 2.1.0 Build 192)  --><defs
     id="defs6"><style
       id="style1">
      .st0 {
        fill-opacity: .5;
      }

      .st0, .st1, .st2, .st3, .st4, .st5, .st6, .st7 {
        fill: #fff;
      }

      .st8 {
        fill: #133c9a;
      }

      .st2, .st9 {
        display: none;
      }

      .st3 {
        fill-opacity: .2;
      }

      .st4 {
        fill-opacity: .9;
      }

      .st10 {
        fill: #3370ff;
      }

      .st11 {
        fill: url(#_未命名的渐变_3);
      }

      .st12 {
        fill: url(#_未命名的渐变);
      }

      .st5 {
        fill-opacity: .3;
      }

      .st6 {
        fill-opacity: 0;
      }

      .st7 {
        fill-opacity: .7;
      }

      .st13 {
        fill: #00d6b9;
      }

      .st14 {
        fill: url(#_未命名的渐变_2);
      }
    </style><radialGradient
       id="_未命名的渐变"
       data-name="未命名的渐变"
       cx="123.9"
       cy="-40.2"
       fx="123.9"
       fy="-40.2"
       r="59.4"
       gradientTransform="translate(-26.8 25.5) scale(.6 -.7)"
       gradientUnits="userSpaceOnUse"><stop
         offset="0"
         stop-color="#db202e"
         id="stop1" /><stop
         offset="1"
         stop-color="#e01b24"
         id="stop2" /></radialGradient><radialGradient
       id="_未命名的渐变_2"
       data-name="未命名的渐变 2"
       cx="67.6"
       cy="26.8"
       fx="67.6"
       fy="26.8"
       r="105.2"
       gradientTransform="translate(-26.6 25.3) scale(.6 -.7)"
       gradientUnits="userSpaceOnUse"><stop
         offset="0"
         stop-color="#ffb648"
         id="stop3" /><stop
         offset="1"
         stop-color="#ff7800"
         stop-opacity="0"
         id="stop4" /></radialGradient><radialGradient
       id="_未命名的渐变_3"
       data-name="未命名的渐变 3"
       cx="61.7"
       cy="18.6"
       fx="61.7"
       fy="18.6"
       r="68"
       gradientTransform="translate(-26.8 25.8) scale(.6 -.7)"
       gradientUnits="userSpaceOnUse"><stop
         offset="0"
         stop-color="#c64600"
         id="stop5" /><stop
         offset="1"
         stop-color="#a51d2d"
         id="stop6" /></radialGradient></defs><path
     class="st1"
     d="M 47.5,64.1 H 13.8 C 6.2,64.1 0,57.8 0,50.3 V 13.7 C 0,6.2 6.2,0 13.7,0 H 50.3 C 57.8,0 64,6.2 64,13.7 V 50.3 C 64,57.8 57.8,64 50.3,64 h -2.9 0.1 z"
     id="path6"
     style="fill:#e4e4e4;fill-opacity:1"
     sodipodi:nodetypes="cssssssssccc" /><g
     id="g27"
     transform="matrix(1.1370092,0,0,1.1428132,-4.3842941,-4.6092644)"><circle
       style="opacity:0.1"
       cx="32"
       cy="33"
       r="12"
       id="circle2" /><circle
       style="fill:#666666"
       cx="32"
       cy="32"
       r="12"
       id="circle3" /><circle
       style="fill:#e33838;stroke:#f9f9f9;stroke-width:2"
       cx="32"
       cy="32"
       r="9"
       id="circle4" /><path
       style="opacity:0.1"
       d="m 14,9 c -3.289,0 -6,2.71 -6,6 v 4 h 4 v -4 c 0,-1.142 0.857,-2 2,-2 h 4 V 9 Z m 12,0 v 4 H 38 V 9 Z m 20,0 v 4 h 4 c 1.142,0 2,0.858 2,2 v 4 h 4 V 15 C 56,11.71 53.29,9 50,9 Z M 8,27 v 12 h 4 V 27 Z m 44,0 v 12 h 4 V 27 Z M 8,47 v 4 c 0,3.29 2.711,6 6,6 h 4 v -4 h -4 c -1.143,0 -2,-0.858 -2,-2 v -4 z m 44,0 v 4 c 0,1.142 -0.858,2 -2,2 h -4 v 4 h 4 c 3.29,0 6,-2.71 6,-6 v -4 z m -26,6 v 4 h 12 v -4 z"
       id="path4" /><path
       style="fill:#e33838"
       d="m 14,8 c -3.289,0 -6,2.71 -6,6 v 4 h 4 v -4 c 0,-1.142 0.857,-2 2,-2 h 4 V 8 Z m 12,0 v 4 H 38 V 8 Z m 20,0 v 4 h 4 c 1.142,0 2,0.858 2,2 v 4 h 4 V 14 C 56,10.71 53.29,8 50,8 Z M 8,26 v 12 h 4 V 26 Z m 44,0 v 12 h 4 V 26 Z M 8,46 v 4 c 0,3.29 2.711,6 6,6 h 4 v -4 h -4 c -1.143,0 -2,-0.858 -2,-2 v -4 z m 44,0 v 4 c 0,1.142 -0.858,2 -2,2 h -4 v 4 h 4 c 3.29,0 6,-2.71 6,-6 v -4 z m -26,6 v 4 h 12 v -4 z"
       id="path5" /><path
       style="opacity:0.1;fill:#ffffff"
       d="M 32,20 A 12,12 0 0 0 20,32 12,12 0 0 0 20.02,32.594 12,12 0 0 1 32,21 12,12 0 0 1 43.98,32.406 12,12 0 0 0 44,32 12,12 0 0 0 32,20 Z"
       id="path6-2" /></g></svg>
