<?xml version="1.0" encoding="UTF-8"?>
<svg id="_图层_1" xmlns="http://www.w3.org/2000/svg" version="1.1" viewBox="0 0 64 64" width="48" height="48">
  <!-- Generator: Adobe Illustrator 29.0.1, SVG Export Plug-In . SVG Version: 2.1.0 Build 192)  -->
  <defs>
    <style>
      .st0 {
        fill: #e2ffb4;
      }

      .st1 {
        fill: #315072;
      }

      .st2 {
        fill: #ffa154;
      }

      .st3, .st4 {
        fill: #fff;
      }

      .st5 {
        fill: #3689e6;
      }

      .st6 {
        fill: #68b723;
      }

      .st7 {
        fill: #ffc27d;
      }

      .st8 {
        fill: #0d52bf;
      }

      .st9 {
        fill: #6199f6;
      }

      .st10 {
        fill: #396bd7;
      }

      .st11 {
        fill: #7a0000;
      }

      .st12 {
        fill: #8cd5ff;
      }

      .st13 {
        fill: #c6262e;
      }

      .st14 {
        fill: #f37329;
      }

      .st15 {
        fill: #ff7c70;
      }

      .st16 {
        fill: #9bdb4d;
      }

      .st17 {
        fill: #4688f4;
      }

      .st18 {
        fill: #64baff;
      }

      .st19, .st4 {
        isolation: isolate;
        opacity: .2;
      }

      .st20 {
        display: none;
      }

      .st21 {
        fill: #ed5353;
      }

      .st22 {
        fill: #e4e4e4;
      }

      .st23 {
        fill: #a2c2fa;
      }

      .st24 {
        fill: #3a9104;
      }

      .st25 {
        fill: #cc3b02;
      }
    </style>
  </defs>
  <path class="st22" d="M50.3,64H13.8c-7.6,0-13.8-6.2-13.8-13.7V13.7C0,6.2,6.2,0,13.7,0h36.5c7.5,0,13.7,6.2,13.7,13.7v36.6c0,7.5-6.2,13.7-13.7,13.7h0Z"/>
  <g class="st20">
    <ellipse class="st19" cx="32.3" cy="32.1" rx="26.1" ry="25.6"/>
    <path class="st9" d="M10.6,17c-.4.7-.9,1.4-1.3,2.1-2,3.7-3.1,7.9-3.1,12.1,0,14.1,11.7,23.8,26.1,23.8l12.8-18.3c-1,1.6-5.1,3.6-6.9,4.6-5.6,3.2-12.8,1.1-16.1-4.4l-11.6-19.8h0Z"/>
    <path class="st10" d="M20.3,36.4l-10.6-18c3.8-6.5,9.9-10.3,15.6-11.9,2.6-.7,4.7-.9,7-.9,3.1,0,13.9.8,21.2,10.6.5.7,1,1.4,1.4,2.1h-22.6c-2.5.3-3.9,1.6-4.7,3.4l8.9,15-10.8,4.5"/>
    <path class="st23" d="M42.9,38.7l-10.6,16.2c0,0,.1,0,.2,0,13.2-.2,25.9-8.6,25.9-23.8,0-4.5-1.2-8.9-3.5-12.8h-22.6s4.1,1.8,5.9,2.8c4.5,2.5,5,11.6,5,15.3l.8.4"/>
    <path class="st4" d="M32.3,5.6c-14.4,0-26.1,11.5-26.1,25.6,0,.2,0,.3,0,.5.3-13.9,11.9-25.1,26.1-25.1,14.2,0,25.7,11,26.1,24.9,0,0,0-.2,0-.2,0-14.1-11.7-25.6-26.1-25.6Z"/>
    <ellipse class="st19" cx="32.3" cy="32.1" rx="13.1" ry="12.8"/>
    <ellipse class="st3" cx="32.3" cy="31.2" rx="13.1" ry="12.8"/>
    <ellipse class="st17" cx="32.3" cy="31.2" rx="10.3" ry="10.1"/>
    <path class="st1" d="M6.5,34.8c1.9,12.6,12.9,21.9,25.9,21.9,13,0,24-9.3,25.9-21.9H6.5Z"/>
    <path class="st19" d="M20.2,39.4v11h2.9c1.7,0,3.1-.5,4-1.4,1-.9,1.5-2.3,1.5-4.2s-.2-2.2-.6-2.9c-.4-.8-1-1.4-1.8-1.8-.8-.4-1.7-.6-2.7-.6h-3.2ZM21.5,40.3h1.7c1.3,0,2.2.3,2.9,1,.7.7,1,2,1,3.5,0,2.9-1.4,4.6-4.3,4.6h-1.4v-9.1ZM33.8,43.1c-.7,0-1.3.1-1.8.4-.5.3-.9.7-1.2,1.3-.3.6-.4,1.2-.4,2s.2,1.4.5,2c.3.5.7.9,1.3,1.2.6.3,1.2.4,1.9.4s1,0,1.4-.1c.4,0,.8-.2,1.2-.3v-1c-.4.2-.8.3-1.2.4-.4,0-.8.1-1.3.1-.8,0-1.4-.2-1.8-.6-.4-.4-.6-1.3-.7-2.1h5.2v-.5c0-.6-.1-1.2-.4-1.7-.2-.5-.6-.9-1.1-1.1-.5-.3-1-.4-1.7-.4ZM38.3,43.1l2.8,7.3h1.4l2.8-7.3h-1.3l-1.6,4.3-.6,1.9h0l-.6-1.9-1.6-4.3h-1.3ZM33.8,44c.6,0,1.1.2,1.4.6.2.2.4.7.4,1.2h-3.7c0-.6.3-1,.5-1.3.4-.4.8-.5,1.4-.5Z"/>
    <path class="st3" d="M41.1,49.5l-2.8-7.3h1.3l1.6,4.3.6,1.9h0l.6-1.9,1.6-4.3h1.3l-2.8,7.3h-1.4ZM33.8,42.1c-.7,0-1.3.1-1.8.4-.5.3-.9.7-1.2,1.3-.3.6-.4,1.2-.4,2s.2,1.4.5,2c.3.5.7.9,1.3,1.2.6.3,1.2.4,1.9.4s1,0,1.4-.1c.4,0,.8-.2,1.2-.3v-1c-.4.2-.8.3-1.2.4-.4,0-.8.1-1.3.1-.8,0-1.4-.2-1.8-.6-.4-.4-.6-1.3-.7-2.1h5.2v-.5c0-.6-.1-1.2-.4-1.7-.2-.5-.6-.9-1.1-1.1-.5-.3-1-.4-1.7-.4ZM33.8,43.1c.6,0,1.1.2,1.4.6.2.2.4.7.4,1.2h-3.7c0-.6.3-1,.5-1.3.4-.4.8-.5,1.4-.5ZM28.6,43.9c0,1.9-.5,3.3-1.5,4.2-1,.9-2.3,1.4-4,1.4h-2.9v-11h3.2c1,0,2,.2,2.7.6.8.4,1.4,1,1.8,1.8.4.8.6,1.8.6,2.9ZM27.2,43.9c0-1.5-.3-2.8-1-3.5-.7-.7-1.7-1-2.9-1h-1.7v9.1h1.4c2.8,0,4.3-1.7,4.3-4.6Z"/>
  </g>
  <g>
    <path class="st19" d="M.6,49.4v.8c0,3.3,2.7,5.9,5.9,5.9h35.7c3.3,0,5.9-2.7,5.9-5.9s0-.2,0-.3c-.3,3-2.8,5.4-5.9,5.4H6.6c-3.3,0-5.9-2.7-5.9-5.9Z"/>
    <path class="st15" d="M36.3,43.5h5.9c3.3,0,5.9,2.7,5.9,5.9s-2.7,5.9-5.9,5.9h-5.9v-11.9Z"/>
    <path class="st11" d="M12.5,43.5h-5.9c-3.3,0-5.9,2.7-5.9,5.9s2.7,5.9,5.9,5.9h5.9v-11.9Z"/>
    <path class="st21" d="M36.3,43.5v11.9h-11.9c-3.8-4.3-4.6-8.3,0-11.9h11.9Z"/>
    <path class="st13" d="M24.4,43.5v11.9h-11.9v-11.9h11.9Z"/>
    <path class="st19" d="M37.9,26.5c-1.1,0-2.3.2-3.4.8l-5.1,3-10.3,5.9-10.3,5.9-5.1,3c-1.6,1-2.6,2.6-2.9,4.3.4,2.9,2.9,5.1,5.9,5.1h4.5l3.6-2.1,10.3-5.9,10.3-5.9,5.1-3c2.9-1.6,3.8-5.3,2.2-8.1-1-1.8-2.8-2.8-4.7-3ZM.7,50.6c0,.2,0,.4,0,.6,0-.2,0-.4,0-.6ZM.9,51.9c0,.1,0,.3.1.4,0-.1,0-.3-.1-.4ZM1.4,53.1s0,0,0,.1c0,0,0,0,0,0,0,0,0-.1-.1-.2h0ZM2,54c0,0,.1.2.2.2,0,0-.1-.2-.2-.2ZM2.8,54.8c0,0,.2.1.2.2,0,0-.2-.1-.2-.2ZM3.7,55.5c.1,0,.2.1.3.2-.1,0-.2-.1-.3-.2ZM4.7,55.9c.1,0,.3,0,.4.1-.2,0-.3,0-.4-.1ZM5.8,56.1c.2,0,.4,0,.6,0-.2,0-.4,0-.6,0Z"/>
    <path class="st7" d="M29.3,29.4l5.1-3c2.9-1.6,6.5-.7,8.1,2.2,1.6,2.9.7,6.5-2.2,8.1l-5.1,3-5.9-10.3Z"/>
    <path class="st25" d="M8.8,41.3l-5.1,3c-2.9,1.6-3.8,5.3-2.2,8.1,1.6,2.9,5.3,3.8,8.1,2.2l5.1-3-5.9-10.3Z"/>
    <path class="st2" d="M29.3,29.4l5.9,10.3-10.3,5.9c-5.5-1.8-8.1-4.9-5.9-10.3l10.3-5.9Z"/>
    <path class="st14" d="M19,35.3l5.9,10.3-10.3,5.9-5.9-10.3,10.3-5.9Z"/>
    <path class="st19" d="M24,13.4c-1.9.1-3.7,1.2-4.7,3l-3,5.1-5.9,10.3-5.9,10.3-3,5.1c-.4.7-.6,1.4-.7,2.1.4,2.9,2.8,5.1,5.9,5.1h4.1c.4-.4.7-.8,1-1.3l3-5.1,5.9-10.3,5.9-10.3,3-5.1c1.6-2.9.7-6.5-2.2-8.1-1.1-.6-2.2-.9-3.4-.8ZM.7,50.5c0,.2,0,.4,0,.6,0-.2,0-.4,0-.6ZM.8,51.6c0,.2,0,.3.1.4,0-.1,0-.3-.1-.4ZM1.2,52.8c0,0,0,.2.1.3,0,0-.1-.2-.1-.3ZM1.8,53.8c0,0,.1.2.2.2,0,0-.1-.2-.2-.2ZM2.6,54.6c0,0,.1.1.2.2,0,0-.1-.1-.2-.2ZM3.5,55.3s0,0,0,0c0,0,0,0,.1,0,0,0-.1,0-.2-.1h0ZM4.6,55.8c.1,0,.2,0,.4.1-.1,0-.2,0-.4-.1ZM5.6,56.1c.2,0,.4,0,.6,0-.2,0-.4,0-.6,0Z"/>
    <path class="st12" d="M16.3,20.7l3-5.1c1.6-2.9,5.3-3.8,8.1-2.2s3.8,5.3,2.2,8.1l-3,5.1-10.3-5.9Z"/>
    <path class="st8" d="M4.4,41.3l-3,5.1c-1.6,2.9-.7,6.5,2.2,8.1,2.9,1.6,6.5.7,8.1-2.2l3-5.1-10.3-5.9Z"/>
    <path class="st18" d="M16.3,20.7l10.3,5.9-5.9,10.3c-5.6,1.2-9.5-.2-10.3-5.9l5.9-10.3Z"/>
    <path class="st5" d="M10.3,31l10.3,5.9-5.9,10.3-10.3-5.9,5.9-10.3Z"/>
    <path class="st0" d="M.6,19.7v-5.9c0-3.3,2.7-5.9,5.9-5.9s5.9,2.7,5.9,5.9v5.9H.6Z"/>
    <path class="st24" d="M.6,43.5v5.9c0,3.3,2.7,5.9,5.9,5.9s5.9-2.7,5.9-5.9v-5.9H.6Z"/>
    <path class="st4" d="M6.6,7.8c-3.3,0-5.9,2.7-5.9,5.9v.8c0-3.3,2.7-5.9,5.9-5.9s5.9,2.7,5.9,5.9v-.8c0-3.3-2.7-5.9-5.9-5.9ZM24.6,12.6c-2.1,0-4.2,1-5.3,3l-3,5.1-5.9,10.3c0,.2,0,.4.1.6l5.8-10.1,3-5.1c1.1-2,3.2-3,5.3-3,1,0,1.9.3,2.8.8,1.8,1,2.8,2.8,3,4.7.1-2.2-.9-4.4-3-5.5-.9-.5-1.9-.8-2.8-.8ZM37.3,25.6c-1,0-1.9.3-2.8.8l-5.1,3-5.8,3.3-.7,1.3,6.5-3.8,5.1-3c2.9-1.6,6.5-.7,8.1,2.2.5.8.7,1.7.8,2.6,0-1.2-.2-2.3-.8-3.4-1.1-2-3.2-3-5.3-3ZM18.5,38.1s0,0-.1,0c0,.4,0,.8,0,1.1,0-.4,0-.7.1-1.1h0ZM30.2,43.5l-1.5.8h13.5c3.1,0,5.7,2.4,5.9,5.5,0-.1,0-.3,0-.4,0-3.3-2.7-5.9-5.9-5.9h-12Z"/>
    <path class="st16" d="M.6,19.7h11.9v11.9c-4.3,3.8-8.3,4.6-11.9,0v-11.9Z"/>
    <path class="st6" d="M.6,31.6h11.9v11.9H.6v-11.9Z"/>
    <circle class="st19" cx="6.6" cy="50.3" r="3.4"/>
    <circle class="st3" cx="6.6" cy="49.4" r="3.4"/>
  </g>
</svg>