<?xml version="1.0" encoding="UTF-8" standalone="no"?>
<svg
   id="_图层_1"
   version="1.1"
   viewBox="0 0 64 64" width="48" height="48"
   sodipodi:docname="com.github.aleksandar-stefanovic.urmsimulator.svg"
   xml:space="preserve"
   inkscape:version="1.4 (e7c3feb100, 2024-10-09)"
   xmlns:inkscape="http://www.inkscape.org/namespaces/inkscape"
   xmlns:sodipodi="http://sodipodi.sourceforge.net/DTD/sodipodi-0.dtd"
   xmlns="http://www.w3.org/2000/svg"
   xmlns:svg="http://www.w3.org/2000/svg"><sodipodi:namedview
     id="namedview26"
     pagecolor="#505050"
     bordercolor="#eeeeee"
     borderopacity="1"
     inkscape:showpageshadow="0"
     inkscape:pageopacity="0"
     inkscape:pagecheckerboard="0"
     inkscape:deskcolor="#505050"
     inkscape:zoom="10.6875"
     inkscape:cx="32"
     inkscape:cy="39.578947"
     inkscape:window-width="1920"
     inkscape:window-height="939"
     inkscape:window-x="0"
     inkscape:window-y="34"
     inkscape:window-maximized="1"
     inkscape:current-layer="_图层_1"
     showguides="true"><sodipodi:guide
       position="25.533397,50.243067"
       orientation="0,-1"
       id="guide26"
       inkscape:locked="false" /><sodipodi:guide
       position="50.579444,53.318274"
       orientation="1,0"
       id="guide27"
       inkscape:locked="false" /></sodipodi:namedview><!-- Generator: Adobe Illustrator 29.0.1, SVG Export Plug-In . SVG Version: 2.1.0 Build 192)  --><defs
     id="defs6"><style
       id="style1">
      .st0 {
        fill-opacity: .5;
      }

      .st0, .st1, .st2, .st3, .st4, .st5, .st6, .st7 {
        fill: #fff;
      }

      .st8 {
        fill: #133c9a;
      }

      .st2, .st9 {
        display: none;
      }

      .st3 {
        fill-opacity: .2;
      }

      .st4 {
        fill-opacity: .9;
      }

      .st10 {
        fill: #3370ff;
      }

      .st11 {
        fill: url(#_未命名的渐变_3);
      }

      .st12 {
        fill: url(#_未命名的渐变);
      }

      .st5 {
        fill-opacity: .3;
      }

      .st6 {
        fill-opacity: 0;
      }

      .st7 {
        fill-opacity: .7;
      }

      .st13 {
        fill: #00d6b9;
      }

      .st14 {
        fill: url(#_未命名的渐变_2);
      }
    </style><radialGradient
       id="_未命名的渐变"
       data-name="未命名的渐变"
       cx="123.9"
       cy="-40.2"
       fx="123.9"
       fy="-40.2"
       r="59.4"
       gradientTransform="translate(-26.8 25.5) scale(.6 -.7)"
       gradientUnits="userSpaceOnUse"><stop
         offset="0"
         stop-color="#db202e"
         id="stop1" /><stop
         offset="1"
         stop-color="#e01b24"
         id="stop2" /></radialGradient><radialGradient
       id="_未命名的渐变_2"
       data-name="未命名的渐变 2"
       cx="67.6"
       cy="26.8"
       fx="67.6"
       fy="26.8"
       r="105.2"
       gradientTransform="translate(-26.6 25.3) scale(.6 -.7)"
       gradientUnits="userSpaceOnUse"><stop
         offset="0"
         stop-color="#ffb648"
         id="stop3" /><stop
         offset="1"
         stop-color="#ff7800"
         stop-opacity="0"
         id="stop4" /></radialGradient><radialGradient
       id="_未命名的渐变_3"
       data-name="未命名的渐变 3"
       cx="61.7"
       cy="18.6"
       fx="61.7"
       fy="18.6"
       r="68"
       gradientTransform="translate(-26.8 25.8) scale(.6 -.7)"
       gradientUnits="userSpaceOnUse"><stop
         offset="0"
         stop-color="#c64600"
         id="stop5" /><stop
         offset="1"
         stop-color="#a51d2d"
         id="stop6" /></radialGradient></defs><path
     class="st1"
     d="M 47.5,64.1 H 13.8 C 6.2,64.1 0,57.8 0,50.3 V 13.7 C 0,6.2 6.2,0 13.7,0 H 50.3 C 57.8,0 64,6.2 64,13.7 V 50.3 C 64,57.8 57.8,64 50.3,64 h -2.9 0.1 z"
     id="path6"
     style="fill:#bc5ae7;fill-opacity:1"
     sodipodi:nodetypes="cssssssssccc" /><g
     id="g27"
     transform="matrix(1.1436926,0,0,1.1444547,-4.5981621,-4.5398071)"><path
       style="opacity:0.2;fill:none;stroke:#000000;stroke-width:4;stroke-linecap:round;stroke-linejoin:bevel"
       d="m 20.000004,24.976266 -7e-6,11.798086 c -2e-6,3.164406 -2.002659,4.251888 -3.999997,4.200078 -1.871804,0.0074 -3.999807,-0.99585 -3.999806,-4.200078 l 6e-6,-11.798086"
       id="path2" /><path
       style="fill:none;stroke:#ffffff;stroke-width:4;stroke-linecap:round;stroke-linejoin:bevel"
       d="m 20.000004,24 -7e-6,11.798086 c -2e-6,3.164406 -2.002659,4.251888 -3.999997,4.200078 -1.871804,0.0074 -3.999807,-0.99585 -3.999806,-4.200078 L 12.0002,24"
       id="path3" /><path
       style="opacity:0.2;fill:none;stroke:#000000;stroke-width:4;stroke-linecap:round"
       d="m 34,40.976266 -4,-6 m -3.8,-2 c 0,0 7.8,1.148726 7.8,-4 0,-5.148728 -7.971694,-3.82772 -7.971694,-3.82772 m 2.06e-4,15.799236 V 25.148754"
       id="path4" /><path
       style="fill:none;stroke:#ffffff;stroke-width:4;stroke-linecap:round"
       d="m 34,40 -4,-6 m -3.8,-2 c 0,0 7.8,1.148726 7.8,-4 0,-5.148728 -7.971694,-3.82772 -7.971694,-3.82772 m 2.06e-4,15.799236 V 24.172488"
       id="path5" /><path
       style="opacity:0.2;fill:none;stroke:#000000;stroke-width:4;stroke-linecap:round;stroke-linejoin:round"
       d="M 52,40.947782 V 24.976266 m -12,0 6,8 6,-8 M 40,40.947782 V 24.976266"
       id="path6-7" /><path
       style="fill:none;stroke:#ffffff;stroke-width:4;stroke-linecap:round;stroke-linejoin:round"
       d="M 52,39.971516 V 24 m -12,0 6,8 6,-8 M 40,39.971516 V 24"
       id="path7" /></g></svg>
