<?xml version="1.0" encoding="UTF-8"?>
<svg id="_图层_1" xmlns="http://www.w3.org/2000/svg" version="1.1" viewBox="0 0 64 64" width="48" height="48">
  <!-- Generator: Adobe Illustrator 29.0.1, SVG Export Plug-In . SVG Version: 2.1.0 Build 192)  -->
  <defs>
    <style>
      .st0 {
        fill: #37e079;
      }

      .st1 {
        fill: #d8d8d8;
      }

      .st2, .st3 {
        isolation: isolate;
        opacity: .2;
      }

      .st3 {
        fill: #fff;
      }

      .st4 {
        fill: #e4e4e4;
      }
    </style>
  </defs>
  <path class="st4" d="M50.3,64H13.8c-7.6,0-13.8-6.2-13.8-13.7V13.7C0,6.2,6.2,0,13.7,0h36.5c7.5,0,13.7,6.2,13.7,13.7v36.6c0,7.5-6.2,13.7-13.7,13.7h0Z"/>
  <g>
    <path class="st2" d="M36.9,25c-2.9,1.6-7.8,6.8-9.6,8.5-11.7,11-1.9,23-1.9,23,4-8.1,16-27.5,16-27.5,0,0-3.4-2.7-4.6-4Z"/>
    <path class="st1" d="M36.9,24.1c-2.9,1.6-7.8,6.8-9.6,8.5-11.7,11-1.9,23-1.9,23,4-8.1,16-27.5,16-27.5,0,0-3.4-2.7-4.6-4Z"/>
    <path class="st2" d="M27.1,25c2.9,1.6,7.8,6.8,9.6,8.5,11.7,11,1.9,23,1.9,23-4-8.1-16-27.5-16-27.5,0,0,3.4-2.7,4.6-4Z"/>
    <path class="st4" d="M27.1,24.1c2.9,1.6,7.8,6.8,9.6,8.5,11.7,11,1.9,23,1.9,23-4-8.1-16-27.5-16-27.5,0,0,3.4-2.7,4.6-4Z"/>
    <path class="st2" d="M19.8,7.6c-6.7,0-12.1,5.5-12.1,12.2,0,6.7,5.5,12.2,12.1,12.2s12.1-5.5,12.1-12.2c0-6.7-5.5-12.2-12.1-12.2ZM19.8,14.6c2.9,0,5.2,2.3,5.2,5.2h0c0,2.9-2.3,5.2-5.2,5.2s-5.2-2.3-5.2-5.2c0,0,0,0,0,0,0-2.9,2.3-5.2,5.2-5.2Z"/>
    <path class="st0" d="M19.8,6.7c-6.7,0-12.1,5.5-12.1,12.2,0,6.7,5.5,12.2,12.1,12.2s12.1-5.5,12.1-12.2c0-6.7-5.5-12.2-12.1-12.2ZM19.8,13.7c2.9,0,5.2,2.3,5.2,5.2h0c0,2.9-2.3,5.2-5.2,5.2s-5.2-2.3-5.2-5.2c0,0,0,0,0,0,0-2.9,2.3-5.2,5.2-5.2Z"/>
    <path class="st2" d="M44.1,7.6c-6.7,0-12.1,5.5-12.1,12.2,0,6.7,5.5,12.2,12.1,12.2s12.1-5.5,12.1-12.2c0-6.7-5.5-12.2-12.1-12.2ZM44.1,14.6c2.9,0,5.2,2.3,5.2,5.2h0c0,2.9-2.3,5.2-5.2,5.2s-5.2-2.3-5.2-5.2h0c0-2.9,2.3-5.2,5.2-5.2Z"/>
    <ellipse class="st2" cx="32" cy="33.8" rx="2.6" ry="2.6"/>
    <path class="st0" d="M44.1,6.7c-6.7,0-12.1,5.5-12.1,12.2,0,6.7,5.5,12.2,12.1,12.2s12.1-5.5,12.1-12.2c0-6.7-5.5-12.2-12.1-12.2ZM44.1,13.7c2.9,0,5.2,2.3,5.2,5.2h0c0,2.9-2.3,5.2-5.2,5.2s-5.2-2.3-5.2-5.2h0c0-2.9,2.3-5.2,5.2-5.2Z"/>
    <path class="st3" d="M19.8,6.7c-6.7,0-12.1,5.5-12.1,12.2,0,.1,0,.3,0,.4.2-6.5,5.6-11.8,12.1-11.8s11.9,5.3,12.1,11.8c0-.1,0-.3,0-.4,0-6.7-5.5-12.2-12.1-12.2ZM14.7,19.8c0,.3,0,.6,0,.9,0,0,0,0,0,0,0,.1,0,.3,0,.4,0-.1,0-.3,0-.4.4,2.5,2.5,4.4,5.1,4.4s4.7-1.9,5.1-4.4c0,.1,0,.3,0,.4,0-.1,0-.3,0-.4h0c0-.3,0-.6,0-.9-.4,2.5-2.5,4.4-5.1,4.4s-4.7-1.9-5.1-4.4Z"/>
    <path class="st3" d="M44.1,6.7c-6.7,0-12.1,5.5-12.1,12.2,0,.1,0,.3,0,.4.2-6.5,5.6-11.8,12.1-11.8s11.9,5.3,12.1,11.8c0-.1,0-.3,0-.4,0-6.7-5.5-12.2-12.1-12.2ZM39,19.8c0,.3,0,.6,0,.9h0c0,.1,0,.3,0,.4,0-.1,0-.3,0-.4.4,2.5,2.5,4.4,5.1,4.4s4.7-1.9,5.1-4.4c0,.1,0,.3,0,.4,0-.1,0-.3,0-.4h0c0-.3,0-.6,0-.9-.4,2.5-2.5,4.4-5.1,4.4s-4.7-1.9-5.1-4.4Z"/>
  </g>
</svg>