<?xml version="1.0" encoding="UTF-8" standalone="no"?>
<svg
   id="_图层_1"
   version="1.1"
   viewBox="0 0 64 64" width="48" height="48"
   sodipodi:docname="cutter.svg"
   xml:space="preserve"
   inkscape:version="1.4 (e7c3feb100, 2024-10-09)"
   xmlns:inkscape="http://www.inkscape.org/namespaces/inkscape"
   xmlns:sodipodi="http://sodipodi.sourceforge.net/DTD/sodipodi-0.dtd"
   xmlns:xlink="http://www.w3.org/1999/xlink"
   xmlns="http://www.w3.org/2000/svg"
   xmlns:svg="http://www.w3.org/2000/svg"><sodipodi:namedview
     id="namedview26"
     pagecolor="#505050"
     bordercolor="#eeeeee"
     borderopacity="1"
     inkscape:showpageshadow="0"
     inkscape:pageopacity="0"
     inkscape:pagecheckerboard="0"
     inkscape:deskcolor="#505050"
     inkscape:zoom="10.6875"
     inkscape:cx="32"
     inkscape:cy="24.51462"
     inkscape:window-width="1920"
     inkscape:window-height="939"
     inkscape:window-x="0"
     inkscape:window-y="34"
     inkscape:window-maximized="1"
     inkscape:current-layer="_图层_1" /><!-- Generator: Adobe Illustrator 29.0.1, SVG Export Plug-In . SVG Version: 2.1.0 Build 192)  --><defs
     id="defs6"><style
       id="style1">
      .st0 {
        fill-opacity: .5;
      }

      .st0, .st1, .st2, .st3, .st4, .st5, .st6, .st7 {
        fill: #fff;
      }

      .st8 {
        fill: #133c9a;
      }

      .st2, .st9 {
        display: none;
      }

      .st3 {
        fill-opacity: .2;
      }

      .st4 {
        fill-opacity: .9;
      }

      .st10 {
        fill: #3370ff;
      }

      .st11 {
        fill: url(#_未命名的渐变_3);
      }

      .st12 {
        fill: url(#_未命名的渐变);
      }

      .st5 {
        fill-opacity: .3;
      }

      .st6 {
        fill-opacity: 0;
      }

      .st7 {
        fill-opacity: .7;
      }

      .st13 {
        fill: #00d6b9;
      }

      .st14 {
        fill: url(#_未命名的渐变_2);
      }
    </style><radialGradient
       id="_未命名的渐变"
       data-name="未命名的渐变"
       cx="123.9"
       cy="-40.2"
       fx="123.9"
       fy="-40.2"
       r="59.4"
       gradientTransform="translate(-26.8 25.5) scale(.6 -.7)"
       gradientUnits="userSpaceOnUse"><stop
         offset="0"
         stop-color="#db202e"
         id="stop1" /><stop
         offset="1"
         stop-color="#e01b24"
         id="stop2" /></radialGradient><radialGradient
       id="_未命名的渐变_2"
       data-name="未命名的渐变 2"
       cx="67.6"
       cy="26.8"
       fx="67.6"
       fy="26.8"
       r="105.2"
       gradientTransform="translate(-26.6 25.3) scale(.6 -.7)"
       gradientUnits="userSpaceOnUse"><stop
         offset="0"
         stop-color="#ffb648"
         id="stop3" /><stop
         offset="1"
         stop-color="#ff7800"
         stop-opacity="0"
         id="stop4" /></radialGradient><radialGradient
       id="_未命名的渐变_3"
       data-name="未命名的渐变 3"
       cx="61.7"
       cy="18.6"
       fx="61.7"
       fy="18.6"
       r="68"
       gradientTransform="matrix(0.6,0,0,-0.7,-26.8,25.8)"
       gradientUnits="userSpaceOnUse"><stop
         offset="0"
         stop-color="#c64600"
         id="stop5" /><stop
         offset="1"
         stop-color="#a51d2d"
         id="stop6" /></radialGradient><linearGradient
       id="linearGradient1261"><stop
         style="stop-color:#4f4f4f"
         offset="0"
         id="stop1-7" /><stop
         style="stop-color:#3f3f3f"
         offset="1"
         id="stop2-0" /></linearGradient><linearGradient
       id="linearGradient1263"
       x1="34.241"
       x2="37.169"
       y1="38.945"
       y2="30.342"
       gradientTransform="matrix(1.3919157,0,0,1.3888889,-1.321022,-0.4865665)"
       gradientUnits="userSpaceOnUse"
       xlink:href="#linearGradient1261" /><style
       id="style1-7">
      .st0 {
        fill-opacity: .5;
      }

      .st0, .st1, .st2, .st3, .st4, .st5, .st6, .st7 {
        fill: #fff;
      }

      .st8 {
        fill: #133c9a;
      }

      .st2, .st9 {
        display: none;
      }

      .st3 {
        fill-opacity: .2;
      }

      .st4 {
        fill-opacity: .9;
      }

      .st10 {
        fill: #3370ff;
      }

      .st11 {
        fill: url(#_未命名的渐变_3);
      }

      .st12 {
        fill: url(#_未命名的渐变);
      }

      .st5 {
        fill-opacity: .3;
      }

      .st6 {
        fill-opacity: 0;
      }

      .st7 {
        fill-opacity: .7;
      }

      .st13 {
        fill: #00d6b9;
      }

      .st14 {
        fill: url(#_未命名的渐变_2);
      }
    </style><radialGradient
       id="_未命名的渐变-8"
       data-name="未命名的渐变"
       cx="123.9"
       cy="-40.2"
       fx="123.9"
       fy="-40.2"
       r="59.4"
       gradientTransform="translate(-26.8 25.5) scale(.6 -.7)"
       gradientUnits="userSpaceOnUse"><stop
         offset="0"
         stop-color="#db202e"
         id="stop1-4" /><stop
         offset="1"
         stop-color="#e01b24"
         id="stop2-5" /></radialGradient><radialGradient
       id="_未命名的渐变_2-0"
       data-name="未命名的渐变 2"
       cx="67.6"
       cy="26.8"
       fx="67.6"
       fy="26.8"
       r="105.2"
       gradientTransform="translate(-26.6 25.3) scale(.6 -.7)"
       gradientUnits="userSpaceOnUse"><stop
         offset="0"
         stop-color="#ffb648"
         id="stop3-3" /><stop
         offset="1"
         stop-color="#ff7800"
         stop-opacity="0"
         id="stop4-6" /></radialGradient><radialGradient
       id="_未命名的渐变_3-1"
       data-name="未命名的渐变 3"
       cx="61.7"
       cy="18.6"
       fx="61.7"
       fy="18.6"
       r="68"
       gradientTransform="translate(-26.8 25.8) scale(.6 -.7)"
       gradientUnits="userSpaceOnUse"><stop
         offset="0"
         stop-color="#c64600"
         id="stop5-0" /><stop
         offset="1"
         stop-color="#a51d2d"
         id="stop6-6" /></radialGradient><style
       id="style1-6">
      .st0 {
        fill: #b0aca9;
      }

      .st0, .st1, .st2, .st3, .st4, .st5, .st6, .st7 {
        display: none;
      }

      .st8 {
        fill: #4f4f4f;
      }

      .st9 {
        fill: #2a4d9b;
      }

      .st10 {
        fill: #d29ab8;
      }

      .st1, .st11, .st12, .st5, .st13, .st14, .st7, .st15 {
        isolation: isolate;
      }

      .st1, .st11, .st5, .st13, .st14, .st7 {
        opacity: .2;
      }

      .st16 {
        fill: #a95b86;
      }

      .st2 {
        fill: #009587;
      }

      .st11, .st17, .st5 {
        fill-rule: evenodd;
      }

      .st18, .st17, .st4, .st14, .st7, .st15 {
        fill: #fff;
      }

      .st3 {
        fill: #8561c5;
      }

      .st19 {
        fill: #2f2f2f;
      }

      .st20 {
        fill: #e74185;
      }

      .st21 {
        fill: none;
        stroke: #ff631b;
        stroke-linecap: round;
        stroke-linejoin: round;
        stroke-width: 5.1px;
      }

      .st22 {
        fill: #d8d8d8;
      }

      .st12, .st15 {
        opacity: .1;
      }

      .st23 {
        fill: #ff631b;
      }

      .st24 {
        fill: #57779f;
      }

      .st25 {
        fill: #1554d4;
      }

      .st26 {
        fill: #765ffc;
      }

      .st27 {
        fill: #1e298c;
      }

      .st28 {
        fill: #c03630;
      }

      .st29 {
        fill: #ffc500;
      }

      .st30 {
        fill: #73a0d6;
      }

      .st31 {
        fill: #277f8d;
      }
    </style></defs><path
     class="st18"
     d="M 58.196208,74.037384 H 10.414439 c -9.94908133,0 -18.0654366,-8.175728 -18.0654366,-18.065721 V 7.7084866 c 0,-9.889993 8.11635527,-18.0657216 17.9345266,-18.0657216 h 47.781769 c 9.818172,0 17.934528,8.1757286 17.934528,18.0657216 V 55.971663 c 0,9.889993 -8.116356,18.065721 -17.934528,18.065721 v 0 z"
     id="path1"
     style="stroke-width:1.31386;fill:#aaaaaa;opacity:1;fill-opacity:1"
     transform="matrix(0.76500823,0,0,0.7572335,5.9030766,7.9364123)" /><g
     id="g28"
     transform="matrix(1.13868,0,0,1.1362471,-4.4845447,-4.6005438)"><path
       style="opacity:0.1"
       d="M 32,10 A 23,23 0 0 0 9,33 23,23 0 0 0 32,56 23,23 0 0 0 48.488281,49 H 37.5 l -8,-16 8,-16 H 48.521484 A 23,23 0 0 0 32,10 Z m 11,16 -5,3.5 -5,3.5 5,3.5 5,3.5 v -7 z m 0,7 5,3.5 5,3.5 v -7 -7 l -5,3.5 z"
       id="path2" /><path
       style="fill:#3f3f3f"
       transform="matrix(1.2375863,0,0,1.5004937,3.0471814,-4.7838033)"
       d="m 24.20261,24.514467 4.040122,-2.332565 4.040122,-2.332566 v 4.665131 4.665131 l -4.040122,-2.332565 z"
       id="path3" /><path
       style="fill:#3f3f3f"
       d="M 32,9 A 23,23 0 0 0 9,32 23,23 0 0 0 32,55 23,23 0 0 0 48.488281,48 H 37.5 l -8,-16 8,-16 H 48.521484 A 23,23 0 0 0 32,9 Z"
       id="path4" /><path
       style="fill:#3f3f3f"
       transform="matrix(1.2375863,0,0,1.5004937,13.047181,-4.7838033)"
       d="m 24.20261,24.514467 4.040122,-2.332565 4.040122,-2.332566 v 4.665131 4.665131 l -4.040122,-2.332565 z"
       id="path5" /><path
       style="opacity:0.2"
       d="m 20.684304,17 c -1.029339,2.06e-4 -1.974464,0.573568 -2.457052,1.490577 L 4.3283371,44.87853 C 3.3452848,46.74727 4.6879209,48.999414 6.7853874,49 H 29.214785 c 2.094801,-7e-4 3.437534,-2.24774 2.459662,-4.116204 L 25.259259,33 30.706183,21.126739 C 31.694432,19.25773 30.351888,17.000459 28.251743,17 Z"
       id="path6" /><path
       style="fill:#ffffff"
       d="m 20.684304,16 c -1.029339,2.06e-4 -1.974464,0.573568 -2.457052,1.490577 L 4.3283371,43.87853 C 3.3452848,45.74727 4.6879209,47.999414 6.7853874,48 H 29.214785 c 2.094801,-7e-4 3.437534,-2.24774 2.459662,-4.116204 L 25.259259,32 30.706183,20.126739 C 31.694432,18.25773 30.351888,16.000459 28.251743,16 Z"
       id="path7" /></g></svg>
