<?xml version="1.0" encoding="UTF-8"?>
<svg id="_图层_1" xmlns="http://www.w3.org/2000/svg" version="1.1" viewBox="0 0 64 64" width="48" height="48">
  <!-- Generator: Adobe Illustrator 29.0.1, SVG Export Plug-In . SVG Version: 2.1.0 Build 192)  -->
  <defs>
    <style>
      .st0 {
        fill: #21d789;
      }

      .st1, .st2 {
        stroke: #fff;
      }

      .st1, .st2, .st3, .st4 {
        fill: none;
        stroke-linecap: round;
      }

      .st1, .st3 {
        stroke-width: 4px;
      }

      .st5, .st6, .st7 {
        display: none;
      }

      .st5, .st3, .st4, .st7 {
        isolation: isolate;
        opacity: .2;
      }

      .st2, .st4 {
        stroke-linejoin: bevel;
        stroke-width: 4px;
      }

      .st8 {
        fill: #3f3f3f;
      }

      .st9 {
        fill: #2086e7;
      }

      .st10 {
        fill: #cf4f8c;
      }

      .st11 {
        fill: #6655e4;
      }

      .st6 {
        fill: #2c5771;
      }

      .st3, .st4 {
        stroke: #000;
      }

      .st7 {
        fill: #fff;
      }
    </style>
  </defs>
  <path class="st6" d="M50.3,64H13.8c-7.6,0-13.8-6.2-13.8-13.7V13.7C0,6.2,6.2,0,13.7,0h36.5c7.5,0,13.7,6.2,13.7,13.7v36.6c0,7.5-6.2,13.7-13.7,13.7h0Z"/>
  <g>
    <path class="st5" d="M3.2,64.9c-1.8,0-3.2-1.4-3.2-3.2v-2.3c0,1.8,1.4,3.2,3.2,3.2h57.6c1.8,0,3.2-1.4,3.2-3.2v2.3c0,1.8-1.4,3.2-3.2,3.2H3.2Z"/>
    <path class="st0" d="M32,0H14.2C6.4,0,0,6.4,0,14.2v17.7h32V0Z"/>
    <path class="st10" d="M32,0h17.7c7.9,0,14.3,6.4,14.3,14.3v17.6h-32V0Z"/>
    <path class="st9" d="M32,63.8H14.1c-7.8,0-14.1-6.3-14.1-14.1v-17.7h32v31.9Z"/>
    <path class="st11" d="M32,63.8h17.9c7.8,0,14.1-6.3,14.1-14.1v-17.8h-32v31.9Z"/>
    <path class="st7" d="M3.2,0C1.4,0,0,1.4,0,3.2v1.1C0,2.6,1.4,1.1,3.2,1.1h57.6c1.8,0,3.2,1.4,3.2,3.2v-1.1c0-1.8-1.4-3.2-3.2-3.2H3.2Z"/>
    <rect class="st8" x="9.1" y="9.1" width="45.7" height="45.6"/>
    <path class="st3" d="M16,49h18.3"/>
    <path class="st1" d="M16,47.8h18.3"/>
    <path class="st4" d="M16,35.3s9.2.8,9.1-9.1c-.1-9.9-9.1-9.1-9.1-9.1M16,35.3v-18.2"/>
    <path class="st2" d="M16,34.2s9.2.8,9.1-9.1c-.1-9.9-9.1-9.1-9.1-9.1M16,34.2V15.9"/>
    <path class="st4" d="M41.1,28.5h4.6M43.4,28.5s1.1,6.8-4.6,6.8-4.6-4.6-4.6-9.1,0-9.1,4.6-9.1,4.6,2.3,4.6,2.3"/>
    <path class="st2" d="M41.1,27.3h4.6M43.4,27.3s1.1,6.8-4.6,6.8-4.6-4.6-4.6-9.1,0-9.1,4.6-9.1,4.6,2.3,4.6,2.3"/>
  </g>
</svg>