<?xml version="1.0" encoding="UTF-8"?>
<svg id="_图层_1" xmlns="http://www.w3.org/2000/svg" version="1.1" viewBox="0 0 64 64" width="48" height="48">
  <!-- Generator: Adobe Illustrator 29.0.1, SVG Export Plug-In . SVG Version: 2.1.0 Build 192)  -->
  <defs>
    <style>
      .st0, .st1, .st2 {
        fill: #fff;
      }

      .st1 {
        opacity: .5;
      }

      .st1, .st3, .st2 {
        isolation: isolate;
      }

      .st4 {
        fill: #4cb009;
      }

      .st3, .st2 {
        opacity: .2;
      }

      .st5 {
        fill: #29565b;
      }

      .st6 {
        fill: #e4e4e4;
      }

      .st7 {
        fill: #2995ff;
      }
    </style>
  </defs>
  <path class="st0" d="M50.3,64H13.9C6.3,64,.2,57.8.2,50.3V13.8C.2,6.2,6.3,0,13.9,0h36.5c7.5,0,13.7,6.2,13.7,13.7v36.5c0,7.5-6.1,13.7-13.7,13.7h0Z"/>
  <g>
    <path class="st3" d="M12.5,31.4v22.5c0,1.4,1.1,2.5,2.5,2.5h35.2c1.4,0,2.5-1.1,2.5-2.5v-22.5H12.5Z"/>
    <path class="st3" d="M25.7,5.5c-7.3,0-13.3,6-13.3,13.3h0c0,0,0,.1,0,.2-4.5,1.4-7.6,5.6-7.6,10.3,0,5.7,4.4,10.4,10.1,10.8h0s.6,0,.6,0h34.7c5.7-.4,10.1-5.1,10.1-10.8,0-5-3.4-9.3-8.1-10.5-1.7-5.7-6.8-9.6-12.7-9.6-1.4,0-2.7.2-4,.6-2.5-2.8-6.1-4.5-9.9-4.5Z"/>
    <ellipse class="st6" cx="15.6" cy="28.3" rx="10.7" ry="10.8"/>
    <ellipse class="st6" cx="25.7" cy="17.8" rx="13.3" ry="13.3"/>
    <ellipse class="st6" cx="39.5" cy="21.7" rx="13.3" ry="13.3"/>
    <ellipse class="st6" cx="49.6" cy="28.3" rx="10.7" ry="10.8"/>
    <rect class="st6" x="14.9" y="23.9" width="35.4" height="15.3"/>
    <rect class="st5" x="9.6" y="27.6" width="46" height="4.8"/>
    <path class="st4" d="M11.4,20.8h1.2c1,0,1.8.8,1.8,1.8v1.2c0,1-.8,1.8-1.8,1.8h-1.2c-1,0-1.8-.8-1.8-1.8v-1.2c0-1,.8-1.8,1.8-1.8Z"/>
    <path class="st7" d="M12.5,30.5v22.5c0,1.4,1.1,2.5,2.5,2.5h35.2c1.4,0,2.5-1.1,2.5-2.5v-22.5H12.5Z"/>
    <rect class="st1" x="17.3" y="47.8" width="26.8" height="2.9"/>
    <rect class="st1" x="17.3" y="41.1" width="22" height="2.9"/>
    <rect class="st1" x="17.3" y="34.3" width="30.6" height="2.9"/>
    <path class="st2" d="M25.7,4.5c-7.3,0-13.3,6-13.3,13.3h0c0,0,0,.1,0,.2-4.5,1.4-7.6,5.6-7.6,10.3,0,.1,0,.3,0,.4.2-4.5,3.3-8.4,7.6-9.8,0,0,0-.1,0-.2,0-7.4,5.9-13.3,13.3-13.3,0,0,0,0,0,0,3.8,0,7.4,1.6,9.9,4.5,1.3-.4,2.7-.6,4-.6,5.9,0,11,3.9,12.7,9.6,4.6,1.2,7.9,5.3,8.1,10.1,0-.2,0-.4,0-.6,0-5-3.4-9.3-8.1-10.5-1.7-5.7-6.8-9.6-12.7-9.6-1.4,0-2.7.2-4,.6-2.5-2.8-6.1-4.5-9.9-4.5Z"/>
  </g>
</svg>