<?xml version="1.0" encoding="UTF-8"?>
<svg id="_图层_1" xmlns="http://www.w3.org/2000/svg" version="1.1" viewBox="0 0 64 64" width="48" height="48">
  <!-- Generator: Adobe Illustrator 29.0.1, SVG Export Plug-In . SVG Version: 2.1.0 Build 192)  -->
  <defs>
    <style>
      .st0 {
        fill: #4f4f4f;
      }

      .st1, .st2 {
        fill: #fff;
      }

      .st3, .st2 {
        isolation: isolate;
        opacity: .2;
      }

      .st4 {
        fill: #569c3b;
      }
    </style>
  </defs>
  <path class="st0" d="M50.3,64H13.8c-7.6,0-13.8-6.2-13.8-13.7V13.7C0,6.2,6.2,0,13.7,0h36.5c7.5,0,13.7,6.2,13.7,13.7v36.6c0,7.5-6.2,13.7-13.7,13.7h0Z"/>
  <g>
    <path class="st3" d="M44.1,7.5c-3.4,0-6.2,1.4-8.4,3.3-1.2-.9-2.6-1.5-4-1.5-.4,0-.8,0-1.2,0h0c-1.5.2-2.9.9-4.1,1.9h-2.9c0-.1,0-.1,0-.1-.4,0-.8,0-1.1,0-.8,0-1.5.3-2.2.5-2.5.9-4.6,3.3-5.2,5.6,0,.2,0,.3,0,.5-.6.2-1.1.4-1.6.6h0c-2.1,1.2-4,3.9-4.1,6.4s.9,4.2,1.9,5.5c.8,1,1.7,1.8,2.7,2.5-.2.6-.6,1.3-.7,2-1.2,5.8,1.1,11.2,4.6,15.4,3.5,4.2,8.6,7.7,14.8,7.7s7-1.7,9.5-4c2-1.8,3.7-4.1,4.7-6.9.9-2.2.5-4.6.1-6.7-.9-5.5-2.3-11.5,4.1-18.9,1.2-2.1,2.5-4.4,1.6-8-.4-1.8-1.7-3.7-3.4-4.7-1.7-1-3.4-1.3-5.1-1.3Z"/>
    <path class="st4" d="M44.1,6.6c-3.4,0-6.2,1.4-8.4,3.3-1.2-.9-2.6-1.5-4-1.5-.4,0-.8,0-1.2,0h0c-1.5.2-2.9.9-4.1,1.9h-2.9c0-.1,0-.1,0-.1-.4,0-.8,0-1.1,0-.8,0-1.5.3-2.2.5-2.5.9-4.6,3.3-5.2,5.6,0,.2,0,.3,0,.5-.6.2-1.1.4-1.6.6h0c-2.1,1.2-4,3.9-4.1,6.4s.9,4.2,1.9,5.5c.8,1,1.7,1.8,2.7,2.5-.2.6-.6,1.3-.7,2-1.2,5.8,1.1,11.2,4.6,15.4,3.5,4.2,8.6,7.7,14.8,7.7s7-1.7,9.5-4c2-1.8,3.7-4.1,4.7-6.9.9-2.2.5-4.6.1-6.7-.9-5.5-2.3-11.5,4.1-18.9,1.2-2.1,2.5-4.4,1.6-8-.4-1.8-1.7-3.7-3.4-4.7-1.7-1-3.4-1.3-5.1-1.3Z"/>
    <path class="st3" d="M44.1,12.9c-8.1,0-9.6,11.7-5,11.7s13.1-11.7,5-11.7ZM31.8,14.7c-.1,0-.3,0-.4,0-4.6.6-3,8.8-.5,9,2.4.1,5-9,.9-9ZM23.3,16.5c-.1,0-.2,0-.3,0-.2,0-.5,0-.8.2-4.3,1.6-.7,8.3,1.8,7.9,2.2-.4,2.5-7.9-.7-8.1h0ZM17.3,22.8c-.4,0-.8,0-1.2.3-3.5,1.9,1.2,6.6,3.3,5.9,1.8-.6.7-6.1-2-6.2ZM34.2,26.4c-6.1-.1-14.2,3.1-15.6,9.5-1.5,6.9,6.1,16.6,14.1,16.6s8.4-3.9,9.3-8.6c.3-1.7-1.6-2.3-3.7-2.2-2.2.1-4.6,1.2-4.5,2.4.2,1.9-.5,3-1.9,3-1.9-.2-3.3-1.1-3.6-2.7-.3-4.3,13.7-7.4,12.6-14.2-.4-2.5-3.2-3.7-6.9-3.8Z"/>
    <path class="st1" d="M44.1,12c-8.1,0-9.6,11.7-5,11.7s13.1-11.7,5-11.7ZM31.8,13.8c-.1,0-.3,0-.4,0-4.6.6-3,8.8-.5,9,2.4.1,5-9,.9-9ZM23.3,15.6c-.1,0-.2,0-.3,0-.2,0-.5,0-.8.2-4.3,1.6-.7,8.3,1.8,7.9,2.2-.4,2.5-7.9-.7-8.1h0ZM17.3,21.9c-.4,0-.8,0-1.2.3-3.5,1.9,1.2,6.6,3.3,5.9,1.8-.6.7-6.1-2-6.2ZM34.2,25.5c-6.1-.1-14.2,3.1-15.6,9.5-1.5,6.9,6.1,16.6,14.1,16.6s8.4-3.9,9.3-8.6c.3-1.7-1.6-2.3-3.7-2.2-2.2.1-4.6,1.2-4.5,2.4.2,1.9-.5,3-1.9,3-1.9-.2-3.3-1.1-3.6-2.7-.3-4.3,13.7-7.4,12.6-14.2-.4-2.5-3.2-3.7-6.9-3.8Z"/>
    <path class="st2" d="M44.1,6.6c-3.4,0-6.2,1.4-8.4,3.3-1.2-.9-2.6-1.5-4-1.5-.4,0-.8,0-1.2,0h0c-1.5.2-2.9.9-4.1,1.9h-2.9c0-.1,0-.1,0-.1-.4,0-.8,0-1.1,0-.8,0-1.5.3-2.2.5-2.5.9-4.6,3.3-5.2,5.6,0,.2,0,.3,0,.5-.6.2-1.1.4-1.6.6h0c-2.1,1.2-4,3.9-4.1,6.4,0,.3,0,.5,0,.8.1-2.4,2-5.1,4.1-6.3h0c.5-.3,1-.5,1.6-.6,0-.2,0-.3,0-.5.6-2.3,2.7-4.7,5.2-5.6.7-.2,1.4-.4,2.2-.5.3,0,.7,0,1.1,0h2.9c1.2-.8,2.6-1.5,4.1-1.7h0c.4,0,.7,0,1.2,0,1.4,0,2.8.6,4,1.5,2.1-1.9,5-3.3,8.4-3.3s3.4.3,5.1,1.3,3,2.9,3.4,4.7c.2.6.2,1.2.2,1.8,0-.8,0-1.7-.2-2.7-.4-1.8-1.7-3.7-3.4-4.7s-3.4-1.3-5.1-1.3ZM13.7,32.6c-.2.4-.3.8-.4,1.3-.3,1.2-.4,2.4-.3,3.6,0-.9.1-1.8.3-2.7.2-.7.5-1.3.7-2,0,0-.2-.1-.3-.2ZM46.2,33.2c0,2.5.4,4.9.8,7.1.2,1.1.4,2.2.4,3.3,0-1.4-.2-2.9-.4-4.2-.3-2-.7-4.1-.8-6.2Z"/>
  </g>
</svg>