<?xml version="1.0" encoding="UTF-8"?>
<svg id="_图层_1" xmlns="http://www.w3.org/2000/svg" version="1.1" viewBox="0 0 64 64" width="48" height="48">
  <!-- Generator: Adobe Illustrator 29.0.1, SVG Export Plug-In . SVG Version: 2.1.0 Build 192)  -->
  <defs>
    <style>
      .st0 {
        fill: #1fa5cf;
      }

      .st1, .st2, .st3, .st4, .st5 {
        opacity: .2;
      }

      .st1, .st6, .st7, .st3, .st4, .st5 {
        isolation: isolate;
      }

      .st1, .st8, .st5, .st9 {
        display: none;
      }

      .st10, .st4, .st5 {
        fill: #fff;
      }

      .st11 {
        stroke: #989898;
        stroke-width: 3px;
      }

      .st11, .st12 {
        fill: none;
        stroke-linecap: round;
      }

      .st13 {
        fill: #e5a50a;
      }

      .st14 {
        fill: #3d3846;
      }

      .st7 {
        opacity: .3;
      }

      .st12 {
        stroke: #f34235;
        stroke-linejoin: round;
        stroke-width: 8px;
      }

      .st9 {
        fill: #298fc5;
      }

      .st15 {
        fill: #63452c;
      }
    </style>
  </defs>
  <path class="st10" d="M50.4,64H13.8c-7.6,0-13.8-6.2-13.8-13.7V13.7C0,6.2,6.2,0,13.7,0h36.6c7.5,0,13.7,6.2,13.7,13.7v36.6c0,7.5-6.2,13.7-13.7,13.7h.1Z"/>
  <g class="st8">
    <path class="st3" d="M7.6,17c-2.3,0-4.1,1.8-4.1,4.1v28.8c0,2.3,1.8,4.1,4.1,4.1h48.9c2.3,0,4.1-1.8,4.1-4.1v-28.8c0-2.3-1.8-4.1-4.1-4.1H7.6Z"/>
    <path class="st11" d="M14.5,16l30.5-11.5"/>
    <circle class="st14" cx="14.5" cy="16" r="3"/>
    <path class="st13" d="M7.6,16c-2.3,0-4.1,1.8-4.1,4.1v28.8c0,2.3,1.8,4.1,4.1,4.1h33V16H7.6Z"/>
    <path class="st15" d="M40.5,16v37h15.9c2.3,0,4.1-1.8,4.1-4.1v-28.8c0-2.3-1.8-4.1-4.1-4.1h-15.9Z"/>
    <path class="st3" d="M50.5,26c-2.2,0-4,1.8-4,4s1.8,4,4,4,4-1.8,4-4-1.8-4-4-4ZM47.2,37c-.4,0-.8.3-.8.8v1.5c0,.4.3.8.8.8h1.5c.4,0,.8-.3.8-.8v-1.5c0-.4-.3-.8-.8-.8h-1.5ZM52.2,37c-.4,0-.8.3-.8.8v1.5c0,.4.3.8.8.8h1.5c.4,0,.8-.3.8-.8v-1.5c0-.4-.3-.8-.8-.8h-1.5ZM47.2,42c-.4,0-.8.3-.8.8v1.5c0,.4.3.8.8.8h1.5c.4,0,.8-.3.8-.8v-1.5c0-.4-.3-.8-.8-.8h-1.5ZM52.2,42c-.4,0-.8.3-.8.8v1.5c0,.4.3.8.8.8h1.5c.4,0,.8-.3.8-.8v-1.5c0-.4-.3-.8-.8-.8h-1.5Z"/>
    <rect class="st13" x="46.5" y="36" width="3" height="3" rx=".8" ry=".8"/>
    <circle class="st13" cx="50.5" cy="29" r="4"/>
    <circle class="st15" cx="48.8" cy="27.3" r=".7"/>
    <rect class="st13" x="51.5" y="36" width="3" height="3" rx=".8" ry=".8"/>
    <rect class="st13" x="46.5" y="41" width="3" height="3" rx=".8" ry=".8"/>
    <rect class="st13" x="51.5" y="41" width="3" height="3" rx=".8" ry=".8"/>
    <path class="st15" d="M22,21c-3.1,0-6.1,1.1-8.5,3h16.9c-2.4-1.9-5.4-3-8.5-3ZM10.8,27c-.6.9-1.1,1.9-1.5,3h25.4c-.4-1.1-.9-2.1-1.5-3H10.8ZM8.6,33c0,.5,0,1,0,1.5,0,.5,0,1,0,1.5h26.8c0-.5,0-1,0-1.5,0-.5,0-1,0-1.5H8.6ZM9.3,39c.4,1.1.9,2.1,1.5,3h22.4c.6-.9,1.1-1.9,1.5-3H9.3ZM13.5,45c2.4,1.9,5.4,3,8.5,3,3.1,0,6.1-1.1,8.5-3H13.5Z"/>
    <path class="st4" d="M50.5,25c-2.2,0-4,1.8-4,4,0,.2,0,.3,0,.5.2-2,1.9-3.5,4-3.5,2,0,3.7,1.5,4,3.5,0-.2,0-.3,0-.5,0-2.2-1.8-4-4-4ZM47.2,36c-.4,0-.8.3-.8.8v1c0-.4.3-.8.8-.8h1.5c.4,0,.8.3.8.8v-1c0-.4-.3-.8-.8-.8h-1.5ZM52.2,36c-.4,0-.8.3-.8.8v1c0-.4.3-.8.8-.8h1.5c.4,0,.8.3.8.8v-1c0-.4-.3-.8-.8-.8h-1.5ZM47.2,41c-.4,0-.8.3-.8.8v1c0-.4.3-.8.8-.8h1.5c.4,0,.8.3.8.8v-1c0-.4-.3-.8-.8-.8h-1.5ZM52.2,41c-.4,0-.8.3-.8.8v1c0-.4.3-.8.8-.8h1.5c.4,0,.8.3.8.8v-1c0-.4-.3-.8-.8-.8h-1.5Z"/>
    <path class="st4" d="M7.6,16c-2.3,0-4.1,1.8-4.1,4.1v1c0-2.3,1.8-4.1,4.1-4.1h48.9c2.3,0,4.1,1.8,4.1,4.1v-1c0-2.3-1.8-4.1-4.1-4.1H7.6Z"/>
  </g>
  <g class="st8">
    <path class="st1" d="M0,59.1v2.6C0,63.7,1.4,65.3,3.2,65.3h57.4c1.8,0,3.2-1.6,3.2-3.6v-2.6c0,2-1.4,3.6-3.2,3.6H3.2C1.4,62.7,0,61.1,0,59.1H0Z"/>
    <path class="st9" d="M63.7,60.4V3.6C63.7,1.6,62.3,0,60.5,0H3.2C1.4,0,0,1.6,0,3.6v56.9c0,2,1.4,3.6,3.2,3.6h57.4c1.8,0,3.2-1.6,3.2-3.6Z"/>
    <g class="st2">
      <path d="M6.8,16.6v7.7h24.4c1.8,0,2.9,1.1,2.9,2.8v12.3c0,1.7-1.1,2.8-2.9,2.8H13.7v-14.7h-6.9v22.4h29.3c2.7,0,4.9-2.5,4.9-5.5v-22.2c0-3.1-2.2-5.5-4.9-5.5H6.8Z"/>
      <path d="M47.8,16.6v7.7h6.8v-7.7h-6.8ZM47.8,26.9v23h6.8v-23h-6.8Z"/>
    </g>
    <g>
      <path class="st10" d="M6.8,15.4v7.7h24.4c1.8,0,2.9,1.1,2.9,2.8v12.3c0,1.7-1.1,2.8-2.9,2.8H13.7v-14.7h-6.9v22.4h29.3c2.7,0,4.9-2.5,4.9-5.5v-22.2c0-3.1-2.2-5.5-4.9-5.5H6.8Z"/>
      <path class="st10" d="M47.8,15.4v7.7h6.8v-7.7h-6.8ZM47.8,25.6v23h6.8v-23h-6.8Z"/>
    </g>
    <path class="st5" d="M3.2,0C1.4,0,0,1.6,0,3.6v1.3C0,2.9,1.4,1.3,3.2,1.3h57.3c1.8,0,3.2,1.6,3.2,3.6v-1.3c0-2-1.4-3.6-3.2-3.6H3.2Z"/>
  </g>
  <g>
    <path class="st3" d="M30.6,4.3h0c15.5,0,28,12.5,28,28h0c0,15.5-12.5,28-28,28h0c-15.5,0-28-12.5-28-28h0C2.6,16.8,15.2,4.3,30.6,4.3Z"/>
    <path class="st0" d="M30.6,3.3h0c15.5,0,28,12.5,28,28h0c0,15.5-12.5,28-28,28h0c-15.5,0-28-12.5-28-28h0C2.6,15.8,15.2,3.3,30.6,3.3Z"/>
    <g class="st6">
      <path class="st7" d="M30.8,4.7l-3.2.4-4,1.1-.8.7,2.5,1.7v1l-1.6,1,2,2.6.9-.5,1.1-1.7c1.7-.5,3.2-1.1,4.8-1.8l1.1-3.3-2.7-1.1ZM23.1,4.9l-1.4.2-.7.7-1.1.2-1,.5-.5.2-.3.4,1.4.2.5-.5,1.1-.2c.7-.4,1.5-.6,2.3-.9l-.4-.7ZM16.7,7.8l-.2.5v1.2c.1,0-.8.7-.8.7l-.5,1.3h1.1l.5-1.2c.5-.3.9-.7,1.4-1l1.1.4c.7.5,1.4,1,2.2,1.5l1.1-1-1.2-.5-.5-1.1-2.1-.2v-.6c-.1,0-1.1.2-1.1.2l-.4.9-.5-1.1ZM44.4,8.8l-2.1.5-1.3.9v.7l-2.1,1.3.4,2,1.2-.9.8.9.9.5.5-1.5-.3-.9.3-.6,1.2-1.5h.5l-.5,1.6v1.1c.5-.1,1-.2,1.5-.2l-1.4,1v.6c-.1,0-1.7,1.3-1.7,1.3l-1.6-.4v-1l-.8.5.3,1.1h-1.2l-.6.8-.8.9-1.5.3.9.9.2.9h-1.1l-1.4.7v2.2h.6l.6.7,1.4-.7.5-1.3,1-.6.2-.5,1.6-.4.9,1,1,.5-.5,1.1.9-.2.4-1.1-1.1-1.2h.4l1.1.9.2,1.2,1,1.1.2-1.6.5-.2c.5.6,1,1.2,1.4,1.8h1.6c0,.1,1,.7,1,.7l-.4.6-1,.9h-1.4l-1.8-.6h-1c0,.1-.7.9-.7.9l-2-2-1.4-.4-2.1.2-1.8.5c-1,1.2-1.9,2.3-2.9,3.5l-1.2,2.8.5.6-1,1.5,1.1,2.6c.9,1,1.7,2.1,2.6,3.1l1.4-1.2.6.7,1.5-.9.5.5h1.5l.8.9-.5,1.7,1,1.2v2c0,0,.7,1.5.7,1.5l-.8,1.2c0,.9,0,1.8,0,2.7.4,1.2.7,2.4,1.1,3.7l.3,2v1h1.2l1.2-.7h1c.4-.3.8-.6,1.1-.8l1.4-1.6-.3-.8,1.4-1.2-1-1.2,1.2-1,1.1-.7.5-.6-.3-1.4v-3.4l1.1-2.1,1.2-1.3,1.3-3.2v-.9c-.6,0-1.3.1-1.9.2l1.3-1.3,1.8-1.2,1-1.1v-1.2c-.2-.4-.4-.8-.7-1.2l-.9,1-.6-.7-1-.7v-1.6l1.1,1.3,1.2-.2c.6.5,1.1,1,1.6,1.6h.1c-.6-6.6-3.4-12.5-7.7-16.9-.2-.2-.5-.5-.7-.7-.3-.3-.7-.6-1-.9l-.3.5-1.1,1.2-1.4-1.7h1.4l.7-.5-2.6-.5-1.4-.5ZM13.8,8.9c-.2.1-.3.2-.5.4l.2,1s-1,.1-1.6.2C6.3,15.5,2.6,22.9,2.6,31.2c.2.4.4.7.4.7l2.3,1.3,2.3.6,1,1.2,1.5,1.1h.9c0-.1.6.2.6.2v.2l-.9,2.3-.7,1,.2.5-.7,1.8,2.1,3.6,1.4,1.7.9,1.2v2.6c-.1,0,1.1,1.5,1.1,1.5l-.4,1.6c1.2.9,2.6,1.6,4,2.3l.5-.5.3-.9,1.4-.5,1.3-2.7-.5-.7.8-1.5,1.6-.4,1-1.5-.3-2.4,1.6-1.8.2-1.8c-1.8-.9-3.8-1.8-5.6-2.7l-.9-1.7-1.6-.4-.9-1.6-2.2.2-1.8-1.5-1.9,1.2v.3c-.6-.2-1.3-.2-1.8-.5l-.4-1.2v-1.3h-1.3c.1-.7.2-1.6.3-2.4h-.8l-.8,1-.8.4-1.1-.6v-1.3c-.1,0,.1-1.5.1-1.5l1.6-1.2h1.3l.2-.7,1.6.4,1,1.5.2-2.4,2.2-1.7.8-1.8h1.5c0,0,.9-1.3.9-1.3l1.9-.4,1-1.5h-2.9l1.8-.9h1.3l1.8-1.2.2-.7-.7-.6-.8-.2.2-.7-.5-1.1-1.3.5.2-1-1.5-.9-1.2,2.1v.7c.1,0-1.1.5-1.1.5l-.8,1.6-.3-1.5-2.1-.9-.3-1.1,2.7-1.6,1.2-1.1v-1.3c.1,0-.5-.4-.5-.4h-1.1ZM34.4,10.1l-1.6.5h-.7c0-.1,0-.1,0-.1v.7c-.1,0,.9.5.9.5l2-.9-.6-.7h0ZM19.4,10.7l-.9.6,1.1.7h.9v-.9l-1.1-.5ZM36.5,13.5v.7l.4.5v1.1l-.2,1.5,1.2-.2.9-.9-.8-.7c-.3-.7-.5-1.3-.9-2h-.7ZM36.1,14.9l-.8.2.2,1.3,1-.5-.4-1.1ZM21.1,17.1l.3,1.7.6-1-1-.7ZM49.4,26.7l1.2,1.4,1.5,3.1.9,1-.4,1.1.8.9c-.4,0-.8,0-1.1,0-.7-1.4-1.2-2.9-1.7-4.4l-1.2-1-.5-1.8.6-.4Z"/>
    </g>
    <path class="st4" d="M30.6,3.3C15.1,3.3,2.6,15.7,2.6,31.3s0,.3,0,.5c.3-15.3,12.6-27.5,28-27.5s27.7,12.2,28,27.5c0-.2,0-.3,0-.5,0-15.5-12.5-28-28-28Z"/>
    <path class="st3" d="M51.6,7.2c-2.2,0-4,1.8-3.9,4.1v15.2c-2.2-1.2-4.9-2.2-8-2.2-8.7,0-15,7.8-15,16s1.4,9.9,4.1,13.3,6.6,5.7,10.9,5.7,6-1.3,8.2-2.8c.6,2.1,2.8,3.3,5,2.7,1.7-.5,2.9-2.1,2.9-3.9v-7.5c0-.4,0-.8,0-1.2v-11.6c0-.4,0-.9,0-1.3V11.3c0-2.2-1.7-4-3.9-4.1,0,0,0,0-.1,0ZM39.6,32.3c1.7,0,4.1,1.1,6,2.3.8.5,1.4,1,2,1.5v9.8c-.6.7-1.4,1.5-2.4,2.4-1.9,1.7-4.4,3-5.6,3s-3.2-.7-4.6-2.5-2.4-4.7-2.4-8.5,3.7-8,7-8Z"/>
    <path class="st12" d="M51.6,33.3s-6-6-12-6-11,6-11,12c0,9,5,15,11,15s12-8,12-8"/>
    <path class="st12" d="M51.6,54.3V10.3"/>
    <path class="st4" d="M51.6,6.2c-2.2,0-4,1.8-3.9,4.1v1c0-2.2,1.7-4,3.9-4.1,2.2,0,4,1.7,4.1,3.9,0,0,0,0,0,.1v-1c0-2.2-1.7-4-3.9-4.1,0,0,0,0-.1,0ZM39.6,23.3c-8.7,0-15,7.8-15,16s0,.4,0,.6c.2-8.1,6.5-15.6,15-15.6s5.8,1,8,2.2v-1c-2.2-1.2-4.9-2.2-8-2.2ZM55.6,32.7v1s0,0,0,.1c0-.4,0-.8,0-1.1ZM32.6,39.9c0,.1,0,.2,0,.4,0,3.8,1.1,6.6,2.4,8.5s2.9,2.5,4.6,2.5,3.7-1.3,5.6-3c1.1-.9,1.8-1.8,2.4-2.4v-1c-.6.7-1.4,1.5-2.4,2.4-1.9,1.7-4.4,3-5.6,3s-3.2-.7-4.6-2.5c-1.3-1.7-2.3-4.4-2.4-7.8ZM55.6,45.6v1s0,0,0,.1c0-.4,0-.7,0-1.1Z"/>
  </g>
</svg>