<?xml version="1.0" encoding="UTF-8"?>
<svg id="_图层_1" xmlns="http://www.w3.org/2000/svg" version="1.1" viewBox="0 0 64 64" width="48" height="48">
  <!-- Generator: Adobe Illustrator 29.0.1, SVG Export Plug-In . SVG Version: 2.1.0 Build 192)  -->
  <defs>
    <style>
      .st0 {
        fill: none;
        stroke: #4f4f4f;
        stroke-width: 4px;
      }

      .st1, .st2, .st3, .st4, .st5, .st6 {
        display: none;
      }

      .st1, .st2, .st7, .st8, .st5 {
        isolation: isolate;
      }

      .st1, .st7, .st8, .st5 {
        opacity: .2;
      }

      .st2 {
        opacity: .1;
      }

      .st2, .st9, .st8, .st5 {
        fill: #fff;
      }

      .st10 {
        fill: #848484;
      }

      .st3, .st11 {
        fill: #325f78;
      }

      .st12 {
        fill: #4f4f4f;
        fill-rule: evenodd;
      }

      .st13 {
        fill: #ff5722;
      }

      .st6, .st14 {
        fill: #e4e4e4;
      }
    </style>
  </defs>
  <path class="st11" d="M50.3,64H13.8c-7.6,0-13.8-6.2-13.8-13.7V13.7C0,6.2,6.2,0,13.7,0h36.5c7.5,0,13.7,6.2,13.7,13.7v36.6c0,7.5-6.2,13.7-13.7,13.7h0Z"/>
  <g class="st4">
    <path class="st1" d="M0,59.2v2.3c0,1.8,1.8,3.2,4,3.2h55.9c2.2,0,4-1.4,4-3.2v-2.3c0,1.8-1.8,3.2-4,3.2H4c-2.2,0-4-1.4-4-3.2h0Z"/>
    <path class="st6" d="M63.9,60.3V3.2c0-1.8-1.8-3.2-4-3.2H4C1.8,0,0,1.4,0,3.2v57.2c0,1.8,1.8,3.2,4,3.2h55.9c2.2,0,4-1.4,4-3.2Z"/>
    <path class="st0" d="M8,13.6h26.4s18.9.8,18.9,18.2c0,17.4-18.9,18.2-18.9,18.2H8"/>
    <path class="st12" d="M13.3,12.7v44h-5.3l8,4.5,8-4.5h-5.3V12.7h-5.3Z"/>
    <path class="st5" d="M4,0C1.8,0,0,1.4,0,3.2v1.1C0,2.6,1.8,1.1,4,1.1h55.9c2.2,0,4,1.4,4,3.2v-1.1c0-1.8-1.8-3.2-4-3.2H4Z"/>
  </g>
  <g class="st4">
    <path class="st7" d="M30,3C14.4,3,2,15.5,2,31s12.5,28,28,28,28-12.5,28-28S45.5,3,30,3ZM30,19c6.6,0,12,5.4,12,12s-5.4,12-12,12-12-5.4-12-12,5.4-12,12-12Z"/>
    <path class="st10" d="M30,15c-8.3,0-15,6.7-15,15s6.7,15,15,15,15-6.7,15-15-6.7-15-15-15ZM30,24c3.3,0,6,2.7,6,6s-2.7,6-6,6-6-2.7-6-6,2.7-6,6-6Z"/>
    <path class="st14" d="M30,2C14.4,2,2,14.5,2,30s12.5,28,28,28,28-12.5,28-28S45.5,2,30,2ZM30,18c6.6,0,12,5.4,12,12s-5.4,12-12,12-12-5.4-12-12,5.4-12,12-12Z"/>
    <path class="st8" d="M30,2C14.4,2,2,14.5,2,30s0,.2,0,.3C2.3,15.2,14.7,3,30,3s27.6,12.1,28,27.3c0-.1,0-.2,0-.3,0-15.5-12.5-28-28-28ZM18,31c0,.3,0,.7,0,1,0,.2,0,.3,0,.5,0-.2,0-.3,0-.5.5,6.2,5.7,11,11.9,11,6.2,0,11.4-4.8,11.9-11,0,.2,0,.4,0,.6,0-.2,0-.4,0-.6,0-.3,0-.7,0-1-.5,6.2-5.7,11-11.9,11-6.2,0-11.4-4.8-11.9-11Z"/>
    <path class="st7" d="M61.9,43.9c-.5,8.5-7.5,15.1-16,15.2-8.4,0-15.4-6.5-16-14.8,0,.3,0,.6,0,.8,0,8.8,7.2,16,16,16s16-7.2,16-16c0-.4,0-.8,0-1.2h0Z"/>
    <circle class="st13" cx="46" cy="44" r="16"/>
    <path class="st9" d="M47.8,36c-4.9,2-7.9,6.7-7.9,10s2.6,5.9,5.8,6c-1.6,0-2.9-1.4-2.9-3s1.5-4,3.9-5c0,3.5,2.6,4,2,6-.4,1.1-1.3,2-2.9,2,0,0,0,0,0,0,3.3,0,5.1-1.7,5.9-4,1.3-4-3.9-5-3.9-12h0Z"/>
  </g>
  <g>
    <path class="st1" d="M0,52.8v2.3C0,57,1.5,58.5,3.5,58.5h57.7c1.9,0,3.5-1.5,3.5-3.4v-2.3c0,1.9-1.5,3.4-3.5,3.4H3.5C1.5,56.3,0,54.7,0,52.8Z"/>
    <path class="st3" d="M64.6,54V10.7c0-1.9-1.5-3.4-3.5-3.4H3.5C1.5,7.3,0,8.8,0,10.7v43.3C0,55.9,1.5,57.4,3.5,57.4h57.7c1.9,0,3.5-1.5,3.5-3.4Z"/>
    <rect class="st7" x="4.6" y="11.9" width="55.3" height="41" rx="3.3" ry="3.3"/>
    <path class="st2" d="M3.5,7.3C1.5,7.3,0,8.8,0,10.7v1.1C0,10,1.5,8.4,3.5,8.4h57.7c1.9,0,3.5,1.5,3.5,3.4v-1.1c0-1.9-1.5-3.4-3.5-3.4H3.5Z"/>
    <path class="st7" d="M6.6,17.5c-.5,0-.9.4-.9.9v5.1c0,.5.4.9.9.9h5.2c.5,0,.9-.4.9-.9v-5.1c0-.5-.4-.9-.9-.9h-5.2ZM18.2,17.5c-.5,0-.9.4-.9.9v5.1c0,.5.4.9.9.9h5.2c.5,0,.9-.4.9-.9v-5.1c0-.5-.4-.9-.9-.9h-5.2ZM29.7,17.5c-.5,0-.9.4-.9.9v5.1c0,.5.4.9.9.9h5.2c.5,0,.9-.4.9-.9v-5.1c0-.5-.4-.9-.9-.9h-5.2ZM41.2,17.5c-.5,0-.9.4-.9.9v5.1c0,.5.4.9.9.9h5.2c.5,0,.9-.4.9-.9v-5.1c0-.5-.4-.9-.9-.9h-5.2ZM52.8,17.5c-.5,0-.9.4-.9.9v5.1c0,.5.4.9.9.9h5.2c.5,0,.9-.4.9-.9v-5.1c0-.5-.4-.9-.9-.9h-5.2ZM6.6,28.9c-.5,0-.9.4-.9.9v5.1c0,.5.4.9.9.9h5.2c.5,0,.9-.4.9-.9v-5.1c0-.5-.4-.9-.9-.9h-5.2ZM18.2,28.9c-.5,0-.9.4-.9.9v5.1c0,.5.4.9.9.9h5.2c.5,0,.9-.4.9-.9v-5.1c0-.5-.4-.9-.9-.9h-5.2ZM29.7,28.9c-.5,0-.9.4-.9.9v5.1c0,.5.4.9.9.9h5.2c.5,0,.9-.4.9-.9v-5.1c0-.5-.4-.9-.9-.9h-5.2ZM41.2,28.9c-.5,0-.9.4-.9.9v5.1c0,.5.4.9.9.9h5.2c.5,0,.9-.4.9-.9v-5.1c0-.5-.4-.9-.9-.9h-5.2ZM52.8,28.9c-.5,0-.9.4-.9.9v5.1c0,.5.4.9.9.9h5.2c.5,0,.9-.4.9-.9v-5.1c0-.5-.4-.9-.9-.9h-5.2ZM18.2,40.3c-.5,0-.9.4-.9.9v5.1c0,.5.4.9.9.9h28.3c.5,0,.9-.4.9-.9v-5.1c0-.5-.4-.9-.9-.9h-28.3Z"/>
    <path class="st9" d="M6.6,16.4c-.5,0-.9.4-.9.9v5.1c0,.5.4.9.9.9h5.2c.5,0,.9-.4.9-.9v-5.1c0-.5-.4-.9-.9-.9h-5.2ZM18.2,16.4c-.5,0-.9.4-.9.9v5.1c0,.5.4.9.9.9h5.2c.5,0,.9-.4.9-.9v-5.1c0-.5-.4-.9-.9-.9h-5.2ZM29.7,16.4c-.5,0-.9.4-.9.9v5.1c0,.5.4.9.9.9h5.2c.5,0,.9-.4.9-.9v-5.1c0-.5-.4-.9-.9-.9h-5.2ZM41.2,16.4c-.5,0-.9.4-.9.9v5.1c0,.5.4.9.9.9h5.2c.5,0,.9-.4.9-.9v-5.1c0-.5-.4-.9-.9-.9h-5.2ZM52.8,16.4c-.5,0-.9.4-.9.9v5.1c0,.5.4.9.9.9h5.2c.5,0,.9-.4.9-.9v-5.1c0-.5-.4-.9-.9-.9h-5.2ZM6.6,27.8c-.5,0-.9.4-.9.9v5.1c0,.5.4.9.9.9h5.2c.5,0,.9-.4.9-.9v-5.1c0-.5-.4-.9-.9-.9h-5.2ZM18.2,27.8c-.5,0-.9.4-.9.9v5.1c0,.5.4.9.9.9h5.2c.5,0,.9-.4.9-.9v-5.1c0-.5-.4-.9-.9-.9h-5.2ZM29.7,27.8c-.5,0-.9.4-.9.9v5.1c0,.5.4.9.9.9h5.2c.5,0,.9-.4.9-.9v-5.1c0-.5-.4-.9-.9-.9h-5.2ZM41.2,27.8c-.5,0-.9.4-.9.9v5.1c0,.5.4.9.9.9h5.2c.5,0,.9-.4.9-.9v-5.1c0-.5-.4-.9-.9-.9h-5.2ZM52.8,27.8c-.5,0-.9.4-.9.9v5.1c0,.5.4.9.9.9h5.2c.5,0,.9-.4.9-.9v-5.1c0-.5-.4-.9-.9-.9h-5.2ZM18.2,39.2c-.5,0-.9.4-.9.9v5.1c0,.5.4.9.9.9h28.3c.5,0,.9-.4.9-.9v-5.1c0-.5-.4-.9-.9-.9h-28.3Z"/>
  </g>
</svg>