<?xml version="1.0" encoding="UTF-8"?>
<svg id="_图层_1" xmlns="http://www.w3.org/2000/svg" version="1.1" viewBox="0 0 64 64" width="48" height="48">
  <!-- Generator: Adobe Illustrator 29.0.1, SVG Export Plug-In . SVG Version: 2.1.0 Build 192)  -->
  <defs>
    <style>
      .st0, .st1 {
        fill: #4f4f4f;
      }

      .st2 {
        stroke-miterlimit: 4;
        stroke-width: 2.1px;
      }

      .st2, .st3 {
        fill: none;
        stroke: #1488c4;
      }

      .st4, .st5, .st6, .st7, .st8, .st9, .st1 {
        display: none;
      }

      .st4, .st5, .st10, .st11, .st8, .st12 {
        isolation: isolate;
      }

      .st4, .st10, .st11, .st8 {
        opacity: .2;
      }

      .st5, .st13, .st11, .st8, .st12 {
        fill: #fff;
      }

      .st5, .st12 {
        opacity: .1;
      }

      .st14 {
        fill: #1488c4;
      }

      .st15, .st6 {
        fill: #39c;
      }

      .st3 {
        stroke-width: 2.1px;
      }

      .st16 {
        fill: #ccc;
      }

      .st9, .st17 {
        fill: #e4e4e4;
      }

      .st18 {
        fill: #11a88b;
      }
    </style>
  </defs>
  <path class="st15" d="M50.4,64H13.8c-7.6,0-13.8-6.2-13.8-13.7V13.7C0,6.2,6.2,0,13.7,0h36.5c7.5,0,13.7,6.2,13.7,13.7v36.6c0,7.5-6.2,13.7-13.7,13.7h.1Z"/>
  <g class="st7">
    <rect class="st4" x="3.2" y="4" width="56" height="56" rx="2.8" ry="2.8"/>
    <rect class="st1" x="3.2" y="3" width="56" height="56" rx="2.8" ry="2.8"/>
    <path class="st10" d="M31.2,11c-7.7,0-14,6.3-14,14v4h-1.7c-.8,0-1.5.2-2.1.6l13.4,13.3c2.2,2.2,3.9,2.1,5.5,1.5,1.5-.5,2.6-1.5,2.6-1.5l13.6-13.6c-.5-.2-1-.3-1.6-.3h-1.7v-4c0-7.7-6.3-14-14-14ZM31.2,15c5.6,0,10,4.4,10,10v2h0v2h-20v-4c0-5.6,4.4-10,10-10ZM50.7,31.2l-11.1,11.1,9.2,8.3c1.5-.7,2.5-2.2,2.5-3.9v-13.4c0-.8-.2-1.5-.6-2.1ZM11.5,31.7c-.2.5-.3,1-.3,1.6v13.4c0,1.7.9,3.1,2.3,3.8l8.8-8-10.8-10.8ZM37.5,44.3l-.6.6s-1.5,1.5-3.7,2.2c-2.3.7-5.5.6-8.4-2.2l-.4-.4-6.9,6.5h27.2l-7.1-6.7Z"/>
    <path class="st18" d="M31.2,10c-7.7,0-14,6.3-14,14v6.3l28-.2v-6.1c0-7.7-6.3-14-14-14ZM31.2,14c5.6,0,10,4.4,10,10v2h0v2h-20v-4c0-5.6,4.4-10,10-10Z"/>
    <path class="st18" d="M15.5,28c-.8,0-1.5.2-2.1.6l13.4,13.3c2.2,2.2,4,2.1,5.5,1.5,1.5-.5,2.6-1.5,2.6-1.5l13.6-13.6c-.5-.2-1-.3-1.6-.3H15.5ZM50.7,30.2l-11.1,11.1,9.2,8.3c1.5-.7,2.5-2.1,2.5-3.9v-13.5c0-.8-.2-1.5-.6-2.1ZM11.5,30.7c-.2.5-.3,1-.3,1.6v13.5c0,1.7.9,3.1,2.3,3.8l8.8-8-10.8-10.8ZM37.5,43.3l-.6.6s-1.5,1.5-3.7,2.2c-2.3.7-5.5.6-8.4-2.2l-.4-.4-6.9,6.5h27.2l-7.1-6.7Z"/>
    <path class="st5" d="M6,3c-1.6,0-2.8,1.2-2.8,2.8v1c0-1.6,1.2-2.8,2.8-2.8h50.4c1.6,0,2.8,1.2,2.8,2.8v-1c0-1.6-1.2-2.8-2.8-2.8H6Z"/>
    <path class="st11" d="M31.2,10c-7.7,0-14,6.3-14,14v1c0-7.7,6.3-14,14-14s14,6.3,14,14v-1c0-7.7-6.3-14-14-14ZM15.5,28c-.8,0-1.5.2-2.1.6l.7.7c.4-.2.9-.2,1.4-.2h1.7v-1h-1.7ZM21.2,28v1h20v-1h-20ZM45.2,28v1h1.7c.3,0,.5,0,.8,0l.8-.8c-.5-.2-1-.3-1.6-.3h-1.7ZM50.7,30.2l-11.1,11.1.5.5,10.6-10.6c.3.6.6,1.3.6,2.1v-1c0-.8-.2-1.5-.6-2.1ZM11.5,30.7c-.2.5-.3,1-.3,1.6v1c0-.6.1-1.1.3-1.6l10.3,10.3.5-.5-10.8-10.8ZM37.5,43.3l-.6.6s-1.5,1.5-3.7,2.2c-2.3.7-5.5.6-8.4-2.2l-.4-.4-6.9,6.5h1.1l5.8-5.5.4.4c2.9,2.9,6.2,3,8.4,2.2,2.3-.7,3.7-2.2,3.7-2.2l.6-.6,6.1,5.7h1.1l-7.1-6.7Z"/>
  </g>
  <g class="st7">
    <ellipse class="st4" cx="32" cy="33.2" rx="32" ry="31.7"/>
    <ellipse class="st9" cx="32" cy="32.1" rx="32" ry="31.7"/>
    <ellipse class="st3" cx="32" cy="32.1" rx="28.6" ry="17"/>
    <ellipse class="st2" cx="32" cy="32.1" rx="17.1" ry="28.3" transform="translate(-11.9 20.7) rotate(-30.5)"/>
    <ellipse class="st2" cx="32" cy="32.1" rx="28.3" ry="17.1" transform="translate(-11.9 43.4) rotate(-59.5)"/>
    <path class="st8" d="M32,.4C14.3.4,0,14.6,0,32.1c0,.2,0,.4,0,.6C.3,15.4,14.6,1.6,32,1.6c17.4,0,31.6,13.8,32,31.1,0-.2,0-.4,0-.6C64,14.6,49.7.4,32,.4Z"/>
    <path class="st14" d="M27.4,18.5v4.5c-.6,0-1.6,0-2.1,0h-2.4v2.3s.8,0,.8,0c1.1,0,1.4.7,1.5,1.2v11.2c0,.3,0,1.1-.7,1.1,0,0-1.5,0-1.5,0v2.3h2.6c.6,0,1.4,0,2,0v4.5h2.3v-4.5h2.2v4.5h2.4v-4.5c4.3-.3,6.8-.8,6.8-5.7s-2.3-4.5-5-4.5c1.7-.1,2.7-1.1,2.7-4-.6-3.4-1.5-4-4.6-4v-4.5h-2.3v4.5c-.7,0-1.6,0-2.3,0v-4.5h-2.3ZM29.7,25.3c3.2,0,4.6,0,4.6,2.3,0,2.3-1.7,2.3-4.6,2.3v-4.5ZM29.7,32.1c4.6,0,6.9,0,6.9,3.4,0,3.4-2.3,3.4-6.9,3.4v-6.8Z"/>
  </g>
  <g class="st7">
    <path class="st10" d="M28.4,6.1h8.2c2.3,0,4.1,1.8,4.1,4.1v46.7c0,2.3-1.8,4.1-4.1,4.1h-8.2c-2.3,0-4.1-1.8-4.1-4.1V10.2c0-2.3,1.8-4.1,4.1-4.1Z" transform="translate(-14.2 32.9) rotate(-45)"/>
    <path class="st16" d="M28.4,5.3h8.2c2.3,0,4.1,1.8,4.1,4.1v46.7c0,2.3-1.8,4.1-4.1,4.1h-8.2c-2.3,0-4.1-1.8-4.1-4.1V9.4c0-2.3,1.8-4.1,4.1-4.1Z" transform="translate(-13.6 32.6) rotate(-45)"/>
    <path class="st10" d="M9.2,25.3h46.7c2.3,0,4.1,1.8,4.1,4.1v8.2c0,2.3-1.8,4.1-4.1,4.1H9.2c-2.3,0-4.1-1.8-4.1-4.1v-8.2c0-2.3,1.8-4.1,4.1-4.1Z" transform="translate(-14.2 32.9) rotate(-45)"/>
    <path class="st17" d="M9.2,24.5h46.7c2.3,0,4.1,1.8,4.1,4.1v8.2c0,2.3-1.8,4.1-4.1,4.1H9.2c-2.3,0-4.1-1.8-4.1-4.1v-8.2c0-2.3,1.8-4.1,4.1-4.1Z" transform="translate(-13.6 32.6) rotate(-45)"/>
    <path class="st0" d="M19,9.2c-.2,0-.3,0-.5,0l14.1,21.2,14.1-21.2c-.2,0-.3,0-.5,0-1.1,0-2.1.4-2.9,1.2l-10.7,10.7-10.7-10.7c-.8-.8-1.9-1.2-2.9-1.2Z"/>
    <path class="st0" d="M32.6,35.1l-14.1,21.2c.2,0,.3,0,.5,0,1.1,0,2.1-.4,2.9-1.2l10.7-10.7,10.7,10.7c.8.8,1.9,1.2,2.9,1.2s.3,0,.5,0l-14.1-21.2Z"/>
    <path class="st12" d="M19,9.2c-1.1,0-2.1.4-2.9,1.2l-5.8,5.8c-.9.9-1.3,2.2-1.2,3.3,0-.9.5-1.8,1.2-2.5l5.8-5.8c.8-.8,1.9-1.2,2.9-1.2s2.1.4,2.9,1.2l10.7,10.7,10.7-10.7c1.6-1.6,4.2-1.6,5.8,0l5.8,5.8c.7.7,1.1,1.6,1.2,2.5.1-1.2-.3-2.4-1.2-3.3l-5.8-5.8c-1.6-1.6-4.2-1.6-5.8,0l-10.7,10.7-10.7-10.7c-.8-.8-1.9-1.2-2.9-1.2ZM20.1,33.6l-9.9,9.9c-.9.9-1.3,2.2-1.2,3.3,0-.9.5-1.8,1.2-2.5l9.9-9.9.4.4.4-.4-.8-.8ZM45.1,33.6l-.8.8.4.4.4-.4,9.9,9.9c.7.7,1.1,1.6,1.2,2.5.1-1.2-.3-2.4-1.2-3.3l-9.9-9.9Z"/>
  </g>
  <g>
    <ellipse class="st4" cx="31.9" cy="33.2" rx="31.9" ry="31.8"/>
    <ellipse class="st6" cx="31.9" cy="32" rx="31.9" ry="31.8"/>
    <path class="st10" d="M23.6,5.9c-2.3,0-4.6.4-6.5,1.6-4.3,2.5-6.5,7.4-6.8,13.2-4.9,3.2-8,7.5-8,12.5s3.2,9.3,8,12.5c.3,5.8,2.5,10.7,6.8,13.2,4.3,2.5,9.6,1.9,14.8-.7,5.2,2.6,10.6,3.2,14.9.7,4.3-2.5,6.5-7.4,6.8-13.2,4.9-3.2,8-7.5,8-12.5s-3.2-9.3-8-12.5c-.3-5.8-2.5-10.7-6.8-13.2-4.3-2.5-9.7-1.9-14.9.7-2.8-1.4-5.6-2.2-8.3-2.3ZM40.2,8.3c2,0,3.8.4,5.4,1.3,3.1,1.8,4.9,5.2,5.5,9.7-2.7-1.4-5.8-2.5-9.2-3.2-2.3-2.6-4.9-4.7-7.4-6.4,2-.8,4-1.3,5.8-1.4ZM23.6,8.3c1.8,0,3.8.5,5.8,1.4-2.6,1.6-5.1,3.8-7.4,6.4-3.4.7-6.5,1.8-9.2,3.2.6-4.5,2.4-7.9,5.5-9.7,1.6-.9,3.4-1.3,5.4-1.3ZM31.9,10.8c2,1.1,4,2.6,6,4.4-1.9-.2-3.9-.4-6-.4s-4,.1-6,.4c1.9-1.8,4-3.3,6-4.4h0ZM31.9,17.3c3,0,6,.3,8.7.8,1.8,2.1,3.6,4.5,5.1,7.1,1.5,2.6,2.7,5.3,3.6,7.9-.9,2.6-2.1,5.3-3.6,7.9-1.5,2.6-3.3,5-5.1,7.1-2.7.5-5.7.8-8.7.8s-6-.3-8.7-.8c-1.8-2.1-3.6-4.5-5.1-7.1-1.5-2.6-2.7-5.3-3.6-7.9.9-2.6,2.1-5.3,3.6-7.9,1.5-2.6,3.3-5,5.1-7.1,2.7-.5,5.7-.8,8.7-.8ZM19.4,19.1c-1.2,1.5-2.3,3.2-3.3,5-1,1.8-1.9,3.5-2.7,5.3-.6-2.6-.9-5.1-.9-7.4,2-1.2,4.3-2.2,6.8-2.9ZM44.5,19.1c2.5.8,4.9,1.8,6.8,2.9,0,2.3-.3,4.8-.9,7.4-.8-1.8-1.6-3.6-2.7-5.3-1-1.8-2.1-3.4-3.3-5ZM27.5,21.8l-2.2,9.7-3.8.6-.9,3.4,4-.6-1.7,7.4h16.5l1.6-4.5h-10.3l.9-3.9,4-.6.9-3.4-4.1.6,2-8.6h-6.8ZM53.6,23.5c3.6,2.7,5.7,6.1,5.7,9.6s-2,6.9-5.7,9.6c-.1-3-.7-6.3-1.8-9.6,1.1-3.3,1.7-6.6,1.8-9.6ZM10.2,23.6c.1,3,.7,6.3,1.8,9.6-1.1,3.3-1.7,6.6-1.8,9.6-3.6-2.7-5.6-6.1-5.6-9.6s2-6.9,5.6-9.6h0ZM13.4,36.9c.8,1.8,1.6,3.6,2.7,5.3,1,1.8,2.1,3.4,3.3,5-2.5-.8-4.9-1.8-6.8-2.9,0-2.3.3-4.8.9-7.4ZM50.5,36.9c.6,2.6.9,5.1.9,7.4-2,1.2-4.3,2.2-6.8,2.9,1.2-1.5,2.3-3.2,3.3-5,1-1.8,1.9-3.5,2.7-5.3ZM12.8,47.1c2.7,1.4,5.8,2.5,9.2,3.2,2.3,2.6,4.9,4.7,7.4,6.4-4.2,1.7-8.1,1.8-11.2,0-3.1-1.8-4.9-5.2-5.5-9.7ZM51.1,47.1c-.6,4.5-2.4,7.9-5.5,9.7-3.1,1.8-7,1.7-11.2,0,2.6-1.6,5.1-3.8,7.4-6.4,3.4-.7,6.5-1.8,9.2-3.2ZM26,51c1.9.2,3.9.4,6,.4s4-.1,6-.4c-1.9,1.8-4,3.3-6,4.4-2-1.1-4-2.6-6-4.4Z"/>
    <path class="st13" d="M23.6,4.8c-2.3,0-4.6.4-6.5,1.6-4.3,2.5-6.5,7.4-6.8,13.2-4.9,3.2-8,7.5-8,12.5s3.2,9.3,8,12.5c.3,5.8,2.5,10.7,6.8,13.2,4.3,2.5,9.6,1.9,14.8-.7,5.2,2.6,10.6,3.2,14.9.7,4.3-2.5,6.5-7.4,6.8-13.2,4.9-3.2,8-7.5,8-12.5s-3.2-9.3-8-12.5c-.3-5.8-2.5-10.7-6.8-13.2-4.3-2.5-9.7-1.9-14.9.7-2.8-1.4-5.6-2.2-8.3-2.3ZM40.2,7.1c2,0,3.8.4,5.4,1.3,3.1,1.8,4.9,5.2,5.5,9.7-2.7-1.4-5.8-2.5-9.2-3.2-2.3-2.6-4.9-4.7-7.4-6.4,2-.8,4-1.3,5.8-1.4ZM23.6,7.1c1.8,0,3.8.5,5.8,1.4-2.6,1.6-5.1,3.8-7.4,6.4-3.4.7-6.5,1.8-9.2,3.2.6-4.5,2.4-7.9,5.5-9.7,1.6-.9,3.4-1.3,5.4-1.3ZM31.9,9.7c2,1.1,4,2.6,6,4.4-1.9-.2-3.9-.4-6-.4s-4,.1-6,.4c1.9-1.8,4-3.3,6-4.4ZM31.9,16.1c3,0,6,.3,8.7.8,1.8,2.1,3.6,4.5,5.1,7.1,1.5,2.6,2.7,5.3,3.6,7.9-.9,2.6-2.1,5.3-3.6,7.9-1.5,2.6-3.3,5-5.1,7.1-2.7.5-5.7.8-8.7.8s-6-.3-8.7-.8c-1.8-2.1-3.6-4.5-5.1-7.1-1.5-2.6-2.7-5.3-3.6-7.9.9-2.6,2.1-5.3,3.6-7.9,1.5-2.6,3.3-5,5.1-7.1,2.7-.5,5.7-.8,8.7-.8ZM19.4,17.9c-1.2,1.5-2.3,3.2-3.3,5-1,1.8-1.9,3.5-2.7,5.3-.6-2.6-.9-5.1-.9-7.4,2-1.2,4.3-2.2,6.8-2.9ZM44.5,17.9c2.5.8,4.9,1.8,6.8,2.9,0,2.3-.3,4.8-.9,7.4-.8-1.8-1.6-3.6-2.7-5.3-1-1.8-2.1-3.4-3.3-5ZM27.5,20.6l-2.2,9.7-3.8.6-.9,3.4,4-.6-1.7,7.4h16.5l1.6-4.5h-10.3l.9-3.9,4-.6.9-3.4-4.1.6,2-8.6h-6.8ZM53.6,22.4c3.6,2.7,5.7,6.1,5.7,9.6s-2,6.9-5.7,9.6c-.1-3-.7-6.3-1.8-9.6,1.1-3.3,1.7-6.6,1.8-9.6ZM10.2,22.4c.1,3,.7,6.3,1.8,9.6-1.1,3.3-1.7,6.6-1.8,9.6-3.6-2.7-5.6-6.1-5.6-9.6s2-6.9,5.6-9.6ZM13.4,35.8c.8,1.8,1.6,3.6,2.7,5.3,1,1.8,2.1,3.4,3.3,5-2.5-.8-4.9-1.8-6.8-2.9,0-2.3.3-4.8.9-7.4ZM50.5,35.8c.6,2.6.9,5.1.9,7.4-2,1.2-4.3,2.2-6.8,2.9,1.2-1.5,2.3-3.2,3.3-5,1-1.8,1.9-3.5,2.7-5.3ZM12.8,45.9c2.7,1.4,5.8,2.5,9.2,3.2,2.3,2.6,4.9,4.7,7.4,6.4-4.2,1.7-8.1,1.8-11.2,0-3.1-1.8-4.9-5.2-5.5-9.7ZM51.1,45.9c-.6,4.5-2.4,7.9-5.5,9.7-3.1,1.8-7,1.7-11.2,0,2.6-1.6,5.1-3.8,7.4-6.4,3.4-.7,6.5-1.8,9.2-3.2ZM26,49.9c1.9.2,3.9.4,6,.4s4-.1,6-.4c-1.9,1.8-4,3.3-6,4.4-2-1.1-4-2.6-6-4.4Z"/>
    <path class="st8" d="M31.9.2C14.3.2,0,14.4,0,32c0,.2,0,.4,0,.6C.3,15.2,14.5,1.3,31.9,1.3c17.4,0,31.6,13.9,31.9,31.3,0-.2,0-.4,0-.6C63.9,14.4,49.6.2,31.9.2Z"/>
  </g>
</svg>