<?xml version="1.0" encoding="UTF-8"?>
<svg id="_图层_1" xmlns="http://www.w3.org/2000/svg" version="1.1" viewBox="0 0 64 64" width="48" height="48">
  <!-- Generator: Adobe Illustrator 29.0.1, SVG Export Plug-In . SVG Version: 2.1.0 Build 192)  -->
  <defs>
    <style>
      .st0 {
        fill: #fecd38;
      }

      .st1 {
        fill: #87d53c;
      }

      .st2 {
        fill: #5294e2;
      }

      .st3, .st4, .st5, .st6, .st7 {
        display: none;
      }

      .st3, .st4, .st8, .st9, .st10, .st11 {
        isolation: isolate;
      }

      .st3, .st9, .st10 {
        opacity: .2;
      }

      .st4, .st12, .st13, .st10, .st11 {
        fill: #fff;
      }

      .st4, .st8, .st11 {
        opacity: .1;
      }

      .st13 {
        fill-rule: evenodd;
      }

      .st5, .st14 {
        fill: #c7c7c7;
      }

      .st15, .st7 {
        fill: #004d71;
      }

      .st16 {
        fill: #333;
      }

      .st17 {
        fill: #f4b801;
      }
    </style>
  </defs>
  <path class="st15" d="M47.5,64.1H13.8c-7.6,0-13.8-6.3-13.8-13.8V13.7C0,6.2,6.2,0,13.7,0h36.6c7.5,0,13.7,6.2,13.7,13.7v36.6c0,7.5-6.2,13.7-13.7,13.7h-2.9.1Z"/>
  <g class="st6">
    <path class="st9" d="M20.3,9.7c-.8,0-1.6.4-2.1,1l-11,12.8c-1,1.2-1.1,3,0,4.3l22.7,28.9c1.1,1.3,2.9,1.5,4.1.3.1-.1.2-.2.3-.3l22.7-28.9c1-1.2.9-3.1,0-4.3l-11-12.8c-.6-.6-1.3-1-2.1-1h-23.4Z"/>
    <path class="st1" d="M20.3,8.9c-.8,0-1.6.4-2.1,1l-11,12.8c-1,1.2-1.1,3,0,4.3l22.7,28.9c1.1,1.3,2.9,1.5,4.1.3.1-.1.2-.2.3-.3l22.7-28.9c1-1.2.9-3.1,0-4.3l-11-12.8c-.6-.6-1.3-1-2.1-1h-23.4Z"/>
    <path class="st9" d="M20.3,8.9c-.2,0-.4,0-.6,0,0,0,0,0,0,0,0,0,0,0,0,0-.2,0-.4.1-.5.2,0,0,0,0,0,0,0,0,0,0,0,0-.2,0-.3.2-.5.3,0,0,0,0,0,0-.2.1-.3.3-.4.4l-11,12.8c-.5.6-.8,1.4-.8,2.2h51.2c0-.8-.3-1.6-.8-2.2l-11-12.8c-.1-.2-.3-.3-.4-.4,0,0,0,0,0,0-.2-.1-.3-.2-.5-.3,0,0,0,0,0,0-.2,0-.3-.1-.5-.2,0,0,0,0,0,0,0,0,0,0,0,0-.2,0-.4,0-.6,0h-11.7s-11.7,0-11.7,0Z"/>
    <path class="st1" d="M32,8.9l11.9,16.1h-23.9l11.9-16.1Z"/>
    <path class="st9" d="M32,57l11.9-32.1h-23.9l11.9,32.1Z"/>
    <path class="st10" d="M20.3,8.9c-.8,0-1.6.4-2.1,1l-11,12.8c-.6.7-.9,1.7-.8,2.6,0-.7.3-1.3.8-1.8l11-12.8c.6-.6,1.3-1,2.1-1h23.4c.8,0,1.6.4,2.1,1l11,12.8c.4.5.7,1.1.8,1.8.1-1-.2-1.9-.8-2.6l-11-12.8c-.6-.6-1.3-1-2.1-1h-23.4Z"/>
  </g>
  <g class="st6">
    <path class="st3" d="M0,9v52.7c0,2,1.4,3.6,3.2,3.6h57.6c1.8,0,3.2-1.6,3.2-3.6V9H0Z"/>
    <path class="st3" d="M8.8,44.9h46.3c1.3,0,2.4,1.3,2.4,3v1.2c0,1.6-1.1,3-2.4,3H8.8c-1.3,0-2.4-1.3-2.4-3v-1.2c0-1.6,1.1-3,2.4-3Z"/>
    <path class="st5" d="M0,7.7v52.7c0,2,1.4,3.6,3.2,3.6h57.6c1.8,0,3.2-1.6,3.2-3.6V7.7H0Z"/>
    <path class="st2" d="M62.3,7.5c0-2-5.4-7.5-12.6-7.5H13.7C9.5.3,2.8,3,1.9,7.1"/>
    <path class="st4" d="M3.2,0C1.4,0,0,1.6,0,3.6v1.3C0,2.9,1.4,1.3,3.2,1.3h57.6c1.8,0,3.2,1.6,3.2,3.6v-1.3c0-2-1.4-3.6-3.2-3.6H3.2Z"/>
    <rect class="st8" x="13.7" y="20.5" width="27.4" height="38.4"/>
    <rect class="st17" x="13.7" y="19.2" width="27.4" height="38.4"/>
    <path class="st9" d="M21.7,16.6v19.2c0,12.8,11.4,16.6,11.4,16.6h26.3s-11.4-3.8-11.4-16.6v-19.2h-26.3Z"/>
    <path class="st0" d="M21.7,15.4v19.2c0,12.8,11.4,16.6,11.4,16.6h26.3s-11.4-3.8-11.4-16.6V15.4h-26.3Z"/>
  </g>
  <g class="st6">
    <g class="st6">
      <path class="st9" d="M0,8v47.2c0,1.8,1.4,3.2,3.1,3.2h55.6c1.7,0,3.1-1.4,3.1-3.2V8H0Z"/>
      <path class="st9" d="M8.5,40.2h44.7c1.3,0,2.4,1.2,2.4,2.7v1.1c0,1.5-1.1,2.7-2.4,2.7H8.5c-1.3,0-2.4-1.2-2.4-2.7v-1.1c0-1.5,1.1-2.7,2.4-2.7Z"/>
      <path class="st14" d="M0,6.9v47.2c0,1.8,1.4,3.2,3.1,3.2h55.6c1.7,0,3.1-1.4,3.1-3.2V6.9H0Z"/>
      <path class="st2" d="M3.1,0C1.4,0,0,1.4,0,3.2v3.7h61.8v-3.7c0-1.8-1.4-3.2-3.1-3.2H3.1Z"/>
      <path class="st11" d="M3.1,0C1.4,0,0,1.4,0,3.2v1.1C0,2.6,1.4,1.1,3.1,1.1h55.6c1.7,0,3.1,1.4,3.1,3.2v-1.1c0-1.8-1.4-3.2-3.1-3.2H3.1Z"/>
      <rect class="st8" x="13.2" y="18.3" width="26.5" height="34.4"/>
      <rect class="st17" x="13.2" y="17.2" width="26.5" height="34.4"/>
      <path class="st9" d="M21,14.9v17.2c0,11.5,11,14.9,11,14.9h25.4s-11-3.4-11-14.9V14.9h-25.4Z"/>
      <path class="st0" d="M21,13.7v17.2c0,11.5,11,14.9,11,14.9h25.4s-11-3.4-11-14.9V13.7h-25.4Z"/>
    </g>
    <ellipse class="st3" cx="47.4" cy="47" rx="16.5" ry="17.2"/>
    <ellipse class="st16" cx="47.4" cy="45.8" rx="16.5" ry="17.2"/>
    <path class="st13" d="M47.4,37.8s-1,0-2.1.6c-1,.6-2.2,2-2.3,4h3c.1-1.4,1.4-1.4,1.4-1.4,0,0,1.5,0,1.5,1.6s-.2,1.3-.6,1.9c-.4.5-1,1.1-1.8,1.7-.7.6-1.6,1.3-2.3,2.2-.7,1-1.2,2.3-1.2,3.9v1.6h8.8v-3.4h-5.4c0,0,0,0,0,0,.4-.5,1-1.1,1.8-1.7s1.6-1.3,2.3-2.2c.7-1,1.2-2.3,1.2-3.9s-1.2-3.6-2.3-4.2c-1.1-.6-2.1-.6-2.1-.6Z"/>
  </g>
  <g>
    <path class="st3" d="M9.3,1.5c-.9,0-1.7.4-2.3,1.2L.6,10.8c-.6.8-.9,1.8-.9,2.9v47.8c0,2.2,1.4,4.1,3.2,4.1h51.5c.9,0,1.7-.4,2.3-1.2l6.4-8.1c.6-.8.9-1.8.9-2.9V5.5c0-2.2-1.4-4.1-3.2-4.1H9.3Z"/>
    <path class="st7" d="M9.3,0c-.9,0-1.7.4-2.3,1.2L.6,9.3c-.6.8-.9,1.8-.9,2.9v47.8c0,2.2,1.4,4.1,3.2,4.1h51.5c.9,0,1.7-.4,2.3-1.2l6.4-8.1c.6-.8.9-1.8.9-2.9V4.1c0-2.2-1.4-4.1-3.2-4.1H9.3Z"/>
    <path class="st9" d="M12.3,13.1l-5.7,7.3v26.1l5.7,7.3h19.5l-6.9-8.7h-12.6v-7.3h12.6v-8.7h-12.6v-7.3h12.6l6.9-8.7H12.3ZM37.6,13.1l-5.7,7.3v10.2l5.7,7.3h13.8v7.3h-19.5l6.9,8.7h12.6l5.7-7.3v-10.2l-5.7-7.3h-13.8v-7.3h12.6l6.9-8.7h-19.5Z"/>
    <path class="st12" d="M12.3,11.6l-5.7,7.3v26.1l5.7,7.3h19.5l-6.9-8.7h-12.6v-7.3h12.6v-8.7h-12.6v-7.3h12.6l6.9-8.7H12.3ZM37.6,11.6l-5.7,7.3v10.2l5.7,7.3h13.8v7.3h-19.5l6.9,8.7h12.6l5.7-7.3v-10.2l-5.7-7.3h-13.8v-7.3h12.6l6.9-8.7h-19.5Z"/>
    <path class="st4" d="M9.3,0c-.9,0-1.7.4-2.3,1.2L.6,9.3c-.6.8-.9,1.8-.9,2.9v1.5c0-1.1.3-2.1.9-2.9L7,2.6c.6-.8,1.4-1.2,2.3-1.2h51.5c1.8,0,3.2,1.8,3.2,4.1v-1.5c0-2.2-1.4-4.1-3.2-4.1H9.3Z"/>
  </g>
</svg>