<?xml version="1.0" encoding="UTF-8"?>
<svg id="_图层_1" xmlns="http://www.w3.org/2000/svg" version="1.1" viewBox="0 0 64 64" width="48" height="48">
  <!-- Generator: Adobe Illustrator 29.0.1, SVG Export Plug-In . SVG Version: 2.1.0 Build 192)  -->
  <defs>
    <style>
      .st0 {
        fill: #37abc8;
      }

      .st1, .st2 {
        fill: #fff;
      }

      .st3 {
        stroke: #000;
      }

      .st3, .st4, .st2 {
        isolation: isolate;
        opacity: .2;
      }

      .st3, .st5 {
        fill: none;
        stroke-linecap: round;
        stroke-width: 2px;
      }

      .st6 {
        fill: #2c80a2;
      }

      .st5 {
        stroke: #ff6e4c;
      }
    </style>
  </defs>
  <path class="st1" d="M47.5,64.1H13.8c-7.6,0-13.8-6.3-13.8-13.8V13.7C0,6.2,6.2,0,13.7,0h36.6c7.5,0,13.7,6.2,13.7,13.7v36.6c0,7.5-6.2,13.7-13.7,13.7h-2.9.1Z"/>
  <g>
    <ellipse class="st4" cx="39.9" cy="40.1" rx="19.6" ry="19.8"/>
    <ellipse class="st6" cx="39.9" cy="39.1" rx="19.6" ry="19.8"/>
    <ellipse class="st4" cx="39.9" cy="40.1" rx="11.8" ry="11.9"/>
    <ellipse class="st1" cx="39.9" cy="39.1" rx="11.8" ry="11.9"/>
    <ellipse class="st4" cx="24.2" cy="24.3" rx="19.6" ry="19.8"/>
    <ellipse class="st0" cx="24.2" cy="23.3" rx="19.6" ry="19.8"/>
    <ellipse class="st4" cx="24.2" cy="24.3" rx="11.8" ry="11.9"/>
    <ellipse class="st1" cx="24.2" cy="23.3" rx="11.8" ry="11.9"/>
    <path class="st3" d="M38.9,44s-1.3-9.3-5.9-13.8c-4.6-4.5-11.8-5.9-11.8-5.9"/>
    <path class="st5" d="M38.9,43s-1.3-9.3-5.9-13.8c-4.6-4.5-11.8-5.9-11.8-5.9"/>
    <path class="st3" d="M25.2,20.3s1.3,9.3,5.9,13.8c4.6,4.5,11.8,5.9,11.8,5.9"/>
    <path class="st5" d="M25.2,19.3s1.3,9.3,5.9,13.8c4.6,4.5,11.8,5.9,11.8,5.9"/>
    <path class="st2" d="M24.2,3.5C13.4,3.5,4.6,12.4,4.6,23.3c0,.2,0,.3,0,.5.3-10.7,9-19.2,19.6-19.3,10.6,0,19.3,8.5,19.6,19.3,0-.2,0-.3,0-.5,0-10.9-8.8-19.8-19.6-19.8Z"/>
  </g>
</svg>