<?xml version="1.0" encoding="UTF-8"?>
<svg id="_图层_1" data-name="图层_1" xmlns="http://www.w3.org/2000/svg" version="1.1" viewBox="0 0 128 128" width="48" height="48">
  <!-- Generator: Adobe Illustrator 29.0.1, SVG Export Plug-In . SVG Version: 2.1.0 Build 192)  -->
  <defs>
    <style>
      .st0 {
        fill: #556080;
      }

      .st1 {
        stroke: #68676b;
        stroke-linejoin: round;
        stroke-width: 2.1px;
      }

      .st1, .st2, .st3, .st4 {
        stroke-linecap: round;
      }

      .st1, .st3, .st4 {
        fill: none;
      }

      .st5 {
        fill: #cff7ff;
      }

      .st6, .st7, .st8, .st9, .st10, .st11, .st12 {
        display: none;
      }

      .st6, .st7, .st13, .st14, .st15 {
        isolation: isolate;
      }

      .st6, .st13, .st14 {
        opacity: .2;
      }

      .st7, .st16, .st14, .st15 {
        fill: #fff;
      }

      .st7, .st15 {
        opacity: .1;
      }

      .st17 {
        fill: #edeada;
      }

      .st2 {
        fill: #949390;
        fill-rule: evenodd;
        stroke: #949390;
        stroke-width: .7px;
      }

      .st8 {
        fill: #1e88e5;
      }

      .st18 {
        fill: #9141ac;
      }

      .st9 {
        fill: #7cb342;
      }

      .st19 {
        fill: #7383bf;
      }

      .st10 {
        fill: #e53935;
      }

      .st20 {
        fill: #a4e869;
      }

      .st21, .st12 {
        fill: #494c60;
      }

      .st22 {
        fill: #858585;
      }

      .st23 {
        fill: #c7cac7;
      }

      .st24 {
        fill: #dedede;
      }

      .st3 {
        stroke: #ed333b;
        stroke-width: .6px;
      }

      .st25 {
        fill: #b7b7b7;
      }

      .st26 {
        fill: #42403c;
      }

      .st4 {
        stroke: #cff7ff;
        stroke-width: 2px;
      }

      .st27 {
        fill: #cec9ae;
      }
    </style>
  </defs>
  <rect class="st16" width="127.8" height="127.8" rx="25.9" ry="25.9"/>
  <path class="st8" d="M65.8,23.8L25.9,100.1l43.8-35.8-3.8-40.4Z"/>
  <path class="st10" d="M65.9,23.8v1.2s5.8,61.3,5.8,61.3h0s.1,1.1.1,1.1l32.6,12.6h1.8l-.7-1.3-.5-1h0L65.9,23.8h0Z"/>
  <path class="st9" d="M50.8,79.4l-24.9,20.7h78.6c0,0-53.7-20.7-53.7-20.7h0Z"/>
  <g class="st11">
    <path class="st23" d="M91.9,71.5v22.2h4.1v-3.9h8.3v-41.7H24.1v41.7h8.3v3.9h4.1v-22.2h55.3Z"/>
    <path class="st0" d="M104.3,71.5v-23.5H24.1v23.5h80.2Z"/>
    <path class="st19" d="M32.4,71.5h63.6v22.2h-63.6v-22.2Z"/>
    <path class="st17" d="M91.9,25.9v22.2h-55.3v-22.2h55.3ZM91.9,71.5v30h-55.3v-30"/>
    <path class="st27" d="M80.8,83.2h-33.2c-.8,0-1.4-.6-1.4-1.3,0-.7.6-1.3,1.4-1.3h33.2c.8,0,1.4.6,1.4,1.3,0,.7-.6,1.3-1.4,1.3h0ZM80.8,89.7h-33.2c-.8,0-1.4-.6-1.4-1.3,0-.7.6-1.3,1.4-1.3h33.2c.8,0,1.4.6,1.4,1.3,0,.7-.6,1.3-1.4,1.3h0Z"/>
    <path class="st20" d="M86.3,59.7c0,2.9,2.5,5.2,5.5,5.2s5.5-2.3,5.5-5.2-2.5-5.2-5.5-5.2-5.5,2.3-5.5,5.2h0Z"/>
  </g>
  <g class="st11">
    <path class="st6" d="M63.1,17.6c-28.8,0-52.1,22-52.1,49.1s23.3,49.1,52.1,49.1,52.1-22,52.1-49.1-23.3-49.1-52.1-49.1Z"/>
    <path class="st12" d="M63.1,15.8c-28.8,0-52.1,22-52.1,49.1s23.3,49.1,52.1,49.1,52.1-22,52.1-49.1S91.9,15.8,63.1,15.8Z"/>
    <path class="st13" d="M65.1,28.1c-.1,0-.3,0-.4,0-1.9,0-3.6,1.1-4.6,2.6-1.5,2.5-.6,5.7,2,7.2,1.8,1,4,.9,5.7,0,1.7,1.7,3.2,3.9,4.6,6.5-7,2.2-14.5,5.8-21.3,10.3-4.3,2.9-7.9,6.5-10.6,10.3-.1-.1-.2-.3-.4-.4-5.5-6.6-7.8-13.7-5.9-18.2,1-2.3,2.4-3.3,4.2-3.8,1.8-.5,4-.4,6.1,0,4.3.9,8.2,3.1,8.2,3.1.9.5,2,.2,2.6-.6.5-.8.3-1.9-.6-2.4,0,0,0,0,0,0,0,0-4.3-2.5-9.4-3.5-1.3-.3-2.6-.4-4-.5-1.4,0-2.7.1-4.1.5-2.7.8-5.1,2.7-6.5,5.8-2.8,6.4.4,14.5,6.4,21.7.4.5.8.9,1.2,1.4-2.5,4.3-4.1,8.7-4.8,12.8-2.4.6-4.1,2.7-4.1,5.1,0,2.9,2.5,5.3,5.6,5.3s5.6-2.4,5.6-5.3c0-2.1-1.3-3.9-3.3-4.8.6-3.2,1.9-6.8,3.8-10.3,5.7,5.4,13,9.8,21,11.9,4.8,1.2,9.8,1.5,14.3,1.4-.3,1.4-.7,2.8-1.2,4.1-1.2,3.3-2.8,6-4.6,7.7-1.8,1.7-3.8,2.5-6.2,2.5-5.3-.2-8.4-2.5-10.3-4.8-1.9-2.3-2.5-4.5-2.5-4.5-.2-.9-1.2-1.6-2.2-1.4s-1.6,1.1-1.4,2.1c0,0,0,0,0,.1,0,0,.8,2.9,3.1,5.8,2.4,2.9,6.6,5.9,13,6.2,3.5.1,6.6-1.2,9-3.5,2.4-2.3,4.2-5.4,5.5-9,.6-1.7,1.1-3.6,1.5-5.5,3.8-.4,7.1-1.1,9.8-1.7,1.7,2.1,4.8,2.7,7.2,1.4,2.7-1.5,3.6-4.7,2-7.2-1-1.7-2.9-2.7-5-2.6-.9,0-1.8.3-2.7.7-1.7.9-2.7,2.5-2.8,4.3-2.2.5-5,1-8,1.4.8-5.4.9-11.2.4-17.1-.5-5.9-1.8-11.6-3.8-16.6,0,0,.1,0,.2,0,3.7-.9,7.1-1.1,9.5-.7s3.9,1.3,4.7,2.8c3.8,7.4-2.5,15.6-2.5,15.6-.6.8-.4,1.9.4,2.5.8.6,2,.4,2.6-.4,0,0,7.8-9.6,2.9-19.2-1.4-2.7-4.2-4.3-7.4-4.8-1.6-.3-3.3-.3-5.2-.2-1.8.1-3.8.5-5.8.9-.2,0-.5.1-.8.2-1.6-3.2-3.6-6.1-6-8.3.8-2.4-.2-4.9-2.5-6.2-.8-.4-1.7-.7-2.7-.7ZM74,47.5c1.9,4.7,3.3,10.1,3.8,15.8.5,5.9.4,11.9-.5,17.1-4.6.3-9.5,0-14.1-1.1-7.5-1.9-14.7-6.4-20-11.7,2.6-3.9,5.9-7.5,10.1-10.2,6.6-4.3,14-7.9,20.7-9.9ZM63.1,59.6c-4.1,0-7.4,3.2-7.4,7s3.4,7,7.4,7,7.4-3.2,7.4-7-3.4-7-7.4-7Z"/>
    <path class="st4" d="M91.1,63.4s7-8.8,2.7-17.4c-4.3-8.5-25.3-2.4-41.5,8.2-11.6,7.7-17.2,21.1-17,29.9"/>
    <path class="st4" d="M50.1,87.7s2.7,10.2,14.5,10.6c11.8.4,16.8-18.4,15.1-36.9-1.2-13.3-6.5-25.6-14.7-29.9"/>
    <path class="st4" d="M53.8,42.5s-16.4-9.3-21.2,1.5c-4.8,10.8,11.1,30.5,30.1,35.4,13.3,3.4,28.2-.7,32-2.1"/>
    <path class="st5" d="M63.1,57.9c-4.1,0-7.4,3.2-7.4,7s3.4,7,7.4,7,7.4-3.2,7.4-7-3.4-7-7.4-7Z"/>
    <path class="st7" d="M63.1,15.8c-28.8,0-52.1,22-52.1,49.1,0,.2,0,.5,0,.7.6-26.7,23.7-48,52-48,28.4,0,51.6,21.5,52,48.3,0-.3,0-.7,0-1,0-27.1-23.3-49.1-52.1-49.1Z"/>
    <path class="st5" d="M64.7,26.3c-1.9,0-3.6,1.1-4.6,2.6-1.5,2.5-.6,5.7,2,7.2,2.7,1.5,6.1.6,7.6-1.9,1.5-2.5.6-5.7-2-7.2-.9-.5-2-.7-3.1-.7ZM94.6,71.9c-.9,0-1.8.3-2.7.7-2.7,1.5-3.6,4.7-2,7.2,1.5,2.5,5,3.4,7.6,1.9,2.7-1.5,3.6-4.7,2-7.2-1-1.7-2.9-2.7-5-2.6ZM35.2,78.9c-3.1,0-5.6,2.4-5.6,5.3s2.5,5.3,5.6,5.3,5.6-2.4,5.6-5.3-2.5-5.3-5.6-5.3Z"/>
    <path class="st21" d="M65,29.8c-1,0-1.9.8-1.9,1.8s.8,1.8,1.9,1.8,1.9-.8,1.9-1.8-.8-1.8-1.9-1.8ZM94.8,75.4c-1,0-1.9.8-1.9,1.8s.8,1.8,1.9,1.8,1.9-.8,1.9-1.8-.8-1.8-1.9-1.8ZM35.2,82.4c-1,0-1.9.8-1.9,1.8s.8,1.8,1.9,1.8,1.9-.8,1.9-1.8-.8-1.8-1.9-1.8Z"/>
  </g>
  <g>
    <path class="st13" d="M26.2,56v41.5c0,2.1,1.8,3.8,4.1,3.8h61.7c2.3,0,4.1-1.7,4.1-3.8v-41.5l-35,29.3-35-29.3Z"/>
    <path class="st22" d="M61.3,25.9c-1.9,0-3.9.9-5.8,2.7l-29.3,26.2,35,33.9h0l35-33.9-29-26.2c-1.9-1.8-3.9-2.7-5.8-2.7h0Z"/>
    <path class="st15" d="M61.3,25.9c-1.9,0-3.9.9-5.8,2.7l-29.3,26.2.7.7,28.5-25.5c2-1.8,3.9-2.7,5.8-2.7,1.9,0,3.9.9,5.8,2.7l28.3,25.5.7-.7-29-26.2c-1.9-1.8-3.9-2.7-5.8-2.7Z"/>
    <path class="st16" d="M38.3,32.6h45.8c3.4,0,6.2,2.6,6.2,5.7v47.8c0,3.2-2.8,5.7-6.2,5.7h-45.8c-3.4,0-6.2-2.6-6.2-5.7v-47.8c0-3.2,2.8-5.7,6.2-5.7Z"/>
    <path class="st25" d="M26.2,54.7v41.5c0,2.1,1.8,3.8,4.1,3.8h61.7c2.3,0,4.1-1.7,4.1-3.8v-41.5l-35,29.3-35-29.3Z"/>
    <path class="st24" d="M61.3,71.7c-1.9,0-3.9.9-5.8,2.6l-28,24.6c.7.7,1.8,1.1,2.9,1.1h61.7c1.1,0,2.1-.4,2.9-1.1l-27.8-24.6c-1.9-1.7-3.9-2.6-5.8-2.6Z"/>
    <path class="st14" d="M61.3,71.7c-1.9,0-3.9.9-5.8,2.6l-28,24.6c.3.2.6.4.9.6l27.2-23.8c2-1.8,3.9-2.6,5.8-2.6,1.9,0,3.9.9,5.8,2.6l26.9,23.8c.3-.2.6-.4.9-.6l-27.8-24.6c-1.9-1.7-3.9-2.6-5.8-2.6Z"/>
    <path class="st13" d="M101.9,86.5c0,10.4-9.1,18.9-20.4,18.9h0c-11.3,0-20.4-8.4-20.4-18.9,0-10.4,9.1-18.9,20.4-18.9s20.4,8.4,20.4,18.9Z"/>
    <path class="st18" d="M101.9,85.1c0,10.4-9.1,18.9-20.4,18.9h0c-11.3,0-20.4-8.4-20.4-18.9,0-10.4,9.1-18.9,20.4-18.9s20.4,8.4,20.4,18.9Z"/>
    <ellipse class="st16" cx="81.5" cy="85.1" rx="16" ry="14.8"/>
    <path class="st2" d="M81.5,85.1l9.8-9"/>
    <path class="st3" d="M81.5,85.1l-4.5,10.7"/>
    <path class="st1" d="M74.4,78.3l7.1,6.8"/>
    <path class="st26" d="M79.8,81.4c2.2-.9,4.8,0,5.8,2s0,4.4-2.2,5.3-4.8,0-5.8-2,0-4.4,2.2-5.3Z"/>
  </g>
</svg>