<?xml version="1.0" encoding="UTF-8"?>
<svg id="_图层_1" xmlns="http://www.w3.org/2000/svg" version="1.1" viewBox="0 0 64 64" width="48" height="48">
  <!-- Generator: Adobe Illustrator 29.0.1, SVG Export Plug-In . SVG Version: 2.1.0 Build 192)  -->
  <defs>
    <style>
      .st0 {
        fill: #757575;
      }

      .st1 {
        fill: #434343;
      }

      .st2, .st3, .st4, .st5, .st6, .st7, .st8 {
        display: none;
      }

      .st2, .st9 {
        fill: #a8a8a8;
      }

      .st3, .st5, .st10, .st11, .st12, .st13, .st14, .st7 {
        isolation: isolate;
      }

      .st3, .st13, .st14, .st7 {
        opacity: .2;
      }

      .st4 {
        fill: #846d00;
      }

      .st15 {
        fill: none;
        stroke: #4f4f4f;
        stroke-linecap: round;
        stroke-linejoin: round;
        stroke-width: 2px;
      }

      .st16 {
        fill: #eb651e;
      }

      .st5, .st10 {
        opacity: .1;
      }

      .st17, .st14, .st7 {
        fill: #fff;
      }

      .st18 {
        fill: #d8b900;
      }

      .st19 {
        fill: #3a3a3a;
      }

      .st20 {
        fill: #f66c25;
      }

      .st11 {
        opacity: .4;
      }

      .st12 {
        opacity: .3;
      }

      .st21 {
        fill: #ccc;
      }

      .st22 {
        fill: #dc5715;
      }

      .st8, .st23 {
        fill: #e4e4e4;
      }

      .st24 {
        fill: #fc9866;
      }

      .st25 {
        fill: #4976a8;
      }

      .st26 {
        fill: #a03802;
      }

      .st27 {
        fill: #f84c4b;
      }

      .st28 {
        fill: #e25d1a;
      }
    </style>
  </defs>
  <path class="st9" d="M50.4,64H13.8c-7.6,0-13.8-6.2-13.8-13.7V13.7C0,6.2,6.2,0,13.7,0h36.5c7.5,0,13.7,6.2,13.7,13.7v36.6c0,7.5-6.2,13.7-13.7,13.7h.1Z"/>
  <g class="st6">
    <path class="st13" d="M12.7,14.6c-1.7,0-2.1,1.7-2.1,1.7l-3.5,17.8v9.1l3.3,6c.5.9,1.8,1,1.8,1h40.5s1.3,0,1.8-1l3.3-6v-9.1l-3.5-17.8s-.3-1.7-2.1-1.7H12.7Z"/>
    <path class="st0" d="M7.2,40.1v2.3l3.3,6c.5.9,1.8,1,1.8,1h40.5s1.3,0,1.8-1l3.3-6v-2.3H7.2Z"/>
    <path class="st21" d="M12.7,13.7c-1.7,0-2.1,1.7-2.1,1.7l-3.5,17.8h50.6l-3.5-17.8s-.3-1.7-2.1-1.7H12.7Z"/>
    <path class="st23" d="M7.2,33.3h50.6v6.8H7.2v-6.8Z"/>
    <rect class="st11" x="14.4" y="43.5" width="5.4" height="2.5"/>
    <rect class="st11" x="22.6" y="43.5" width="5.4" height="2.5"/>
    <rect class="st27" x="17.1" y="35" width="12.6" height="2.5"/>
    <rect class="st13" x="7.2" y="40.1" width="50.6" height=".8"/>
    <path class="st19" d="M37.9,28.2v21.2h10.8v-21.2h-10.8Z"/>
    <rect class="st11" x="39.7" y="41.8" width="2.7" height="5.1"/>
    <rect class="st11" x="44.2" y="41.8" width="2.7" height="5.1"/>
    <path class="st12" d="M16.4,28.2s-.9,0-1.8.4c-.9.4-2,1.6-2,3.1v8.3h2.7v-8.2c0-.8.2-.9.6-1,.3-.2.7-.2.7-.2h21.3v-2.5h-21.5Z"/>
    <rect class="st12" x="37.9" y="26.5" width="10.8" height=".8"/>
    <rect class="st12" x="37.9" y="24.8" width="10.8" height=".8"/>
    <rect class="st12" x="37.9" y="23.1" width="10.8" height=".8"/>
    <rect class="st12" x="37.9" y="21.4" width="10.8" height=".8"/>
    <rect class="st12" x="37.9" y="19.7" width="10.8" height=".8"/>
    <rect class="st12" x="37.9" y="18" width="10.8" height=".8"/>
    <path class="st14" d="M12.7,13.7c-1.7,0-2.1,1.7-2.1,1.7l-3.5,17.8h.2l3.3-17s.3-1.7,2.1-1.7h39.5c1.7,0,2.1,1.7,2.1,1.7l3.3,17h.2l-3.5-17.8s-.3-1.7-2.1-1.7H12.7Z"/>
    <rect class="st19" x="37.9" y="13.7" width="10.8" height="3.4"/>
  </g>
  <g class="st6">
    <circle class="st3" cx="30.7" cy="30.4" r="28"/>
    <circle class="st8" cx="30.7" cy="29.4" r="28"/>
    <path class="st5" d="M6.4,9.4c-1.1.1-1.5.6-2.2,1.5-.8,1.6-1.3,4.4-1.5,8.6,0,2.2,0,2.6.6,3.7.5.9,1.2,2.1,1.3,2.2,0,0,0,0,0,0,.1.2.4.5.5.8.7,1.1,2.1,3.2,2.8,4.2,0,0,0,0,0,0,1.6,2.2,3.1,4.1,4.7,5.8.2.3.5.5.6.6,0,.1.2.2.3.3h0c.3.3.5.6.8.8.3.2.5.5.8.7.1,0,.2.2.3.3.2.1.3.3.5.4.1.1.3.2.5.4.1.1.3.2.4.3,1.5,1.2,3.3,2.3,5.5,3.6,2.9,1.7,6.1,3.4,6.5,3.5,1.3.6,2.7,1.3,3,1.3.5.1,1.1.1,2.1,0,3.5-.5,5.4-1.4,6.2-2.8.5-.6.5-1.3.6-1.9.3-2.2,0-5.5-.5-6.4-.2-.5,0-.4-3-2.5,0,0,0,0,0,0,0,0-.1,0-.2-.2-2-1.4-3.7-2.7-5.1-3.8-1.2-.9-2.2-1.7-3.2-2.5-.2-.2-.4-.4-.6-.5-.1-.1-.3-.2-.4-.3-.3-.3-.6-.6-.9-.8,0,0-.1-.1-.2-.2,0,0,0,0-.1,0-.2-.2-.5-.5-.8-.8-1.3-1.3-2.5-2.7-3.9-4.3,0,0,0,0,0,0-.1-.2-.3-.4-.5-.6-1.5-1.8-2.9-3.6-2.9-3.6,0,0,0,0-.2-.2-.5-.7-2.4-3.1-2.6-3.2-.4-.4-2.7-1.7-4.3-2.5-1.9-.9-3.2-1.4-4.3-1.4-.1,0-.3,0-.4,0Z"/>
    <path class="st7" d="M30.7,1.4C15.2,1.4,2.7,13.9,2.7,29.4c0,.2,0,.3,0,.5C3,14.6,15.4,2.4,30.7,2.4c15.2,0,27.6,12.1,28,27.3,0,0,0-.2,0-.3,0-15.5-12.5-28-28-28Z"/>
    <path class="st24" d="M28.4,45.8c1.4.7,3,1.4,3.3,1.5.5.1,1.1.1,2.1,0,3.5-.5,5.4-1.4,6.2-2.8.5-.6.5-1.3.6-1.9.3-2.2,0-5.5-.5-6.4-.2-.5,0-.4-3-2.5-3.1,2.5-7,3.7-8.7,12.2Z"/>
    <path class="st20" d="M25.4,24.2c-.2,1.4-.4,3.3-.9,4.6-.7,2.1-1.5,4.5-1.5,4.6l.2.5h-.3c-3.5.6-7.8,1-10.3,1.3.5.6,1.1,1.2,1.6,1.7,2,1.8,4.5,3.6,7.9,5.6,3,1.7,6.3,3.5,6.6,3.5,0,0,2-.7,4.2-1.6s4.1-1.6,4.2-1.6.2,0,.4.1l.7-.3v-.7c-.2-.1-.3-.2-.3-.2,0-.1-.4-7.5-.4-7.7,0,0-.3-.3-.7-.6-5.5-4-8.7-6.4-11.4-9.2Z"/>
    <path class="st28" d="M24,34.5h-.3c-5,.8-10.1,1.6-10.2,1.5,0,0-.4-.4-.8-.8-1.5-1.7-3.1-3.6-4.7-5.8.3-1.8,12-9.2,13.6-9.4,1.4,1.6,2.6,3,3.9,4.3.6.6,1.1,1.1,1.1,1.2s-.6,1.8-1.3,4c-.7,2.1-1.5,4.5-1.5,4.6l.2.5Z"/>
    <path class="st22" d="M16.8,27.8c.2-.2-4.8,1.2-7.8,1.9-.4.1-.6.1-.6,0-.2-.1-2.3-3.3-3.2-4.7-.2-.3-.6-.9-.6-.9,0,0,0,0,0-.2,1-3,6.7-9.8,13-9,.3.4.6.7.6.7,0,0,1.4,1.8,2.9,3.6.5.6.8,1,.8,1.1,0,0-.6,1-1.3,2.1-2.5,3.8-3.4,5.1-3.4,5.1.1,1.3.9.4-.3.2Z"/>
    <path class="st16" d="M25.4,24.2c-.2,1.4-.4,3.3-.9,4.6-.7,2.1-1.5,4.5-1.5,4.6l.2.5h-.3c-3.5.6-7.8,1-10.3,1.3.5.6,1.1,1.2,1.6,1.7,2,1.8,4.4,3.5,7.6,5.4,1.7-.6,5.3-2,8.9-3.4h.3c0,0-.3-.6-.3-.6,0,0,.2-2.6.5-4.9.2-2,.4-3.4.4-3.9-2.6-2-4.5-3.6-6.3-5.4Z"/>
    <path class="st26" d="M6.4,8.4c-1.1.1-1.5.6-2.2,1.5-.8,1.6-1.3,4.4-1.5,8.6,0,2.2,0,2.6.6,3.7.5.9,1.2,2.1,1.3,2.2,0,0,.9-.1,3.8-.8,2.1-.5,3.8-.9,3.8-.9,0,0,0,0,0,0,0,0,0,0,0,0s0,0,0,0l.8-.7c0,0,0,0,0,0,0,0,.8-.8,2.5-3,2.2-2.7,2.4-3,2.3-3.1-.4-.6-2.5-3.2-2.6-3.3-.4-.4-2.7-1.7-4.3-2.5-1.9-.9-3.2-1.4-4.3-1.4-.1,0-.3,0-.4,0h0Z"/>
    <path class="st10" d="M5.9,9.4c-.5.1-.9.7-.7,1.2,0,0,0,0,0,0,3.1,11.9,12.9,25.6,35.1,35-2.4,2.4-5.6,4.5-8.1,5.8-.5.3-.7.9-.4,1.4,0,0,0,0,0,0,.3.5.9.7,1.4.4,0,0,0,0,0,0,2.9-1.5,6.5-4,9.2-6.8,0,0,0,0,0,0,.4.2.8.3,1.2.5-1,.9-2.1,1.7-3.4,2.6-.4.3-.5.9-.2,1.4,0,0,0,0,0,0,.3.4.9.5,1.4.2,0,0,0,0,0,0,1.5-1.1,2.9-2.1,4.3-3.5,3.7,1.3,7.6,2.5,11.9,3.6.5.1,1.1-.2,1.2-.7.1-.5-.2-1.1-.7-1.2-3.9-1-7.6-2.1-11-3.3.9-3.3.7-6.6.3-9.8,0-.5-.6-.9-1.1-.9-.5,0-.9.6-.9,1.1.4,3,.5,6-.2,8.8-.3-.1-.5-.2-.8-.3.3-1.8.6-3.7.3-5.8,0-.5-.6-.9-1.1-.9-.5,0-.9.6-.9,1.1.2,1.5,0,3.1-.3,4.8C19.7,35.1,10.2,21.6,7.2,10.1c-.1-.5-.7-.9-1.2-.7,0,0,0,0,0,0Z"/>
    <path class="st15" d="M6.2,9.4c3.8,14.2,17.1,31.3,51.5,40"/>
    <path class="st15" d="M45.9,45.3c1-3.3.8-6.6.4-9.8"/>
    <path class="st15" d="M45.5,45.4c-1.5,1.6-3,2.7-4.7,4"/>
    <path class="st15" d="M41.6,44.8c-2.6,2.7-6.1,5.1-8.9,6.6"/>
    <path class="st15" d="M43.2,44.6c.3-2.1.7-4.1.4-6.2"/>
  </g>
  <g class="st6">
    <path class="st13" d="M0,48.2v13.7c0,1.8,1.4,3.2,3.2,3.2h57.6c1.8,0,3.2-1.4,3.2-3.2v-13.7c0,1.8-1.4,3.2-3.2,3.2H3.2c-1.8,0-3.2-1.4-3.2-3.2Z"/>
    <path class="st4" d="M0,47v13.7c0,1.8,1.4,3.2,3.2,3.2h57.6c1.8,0,3.2-1.4,3.2-3.2v-13.7c0,1.8-1.4,3.2-3.2,3.2H3.2c-1.8,0-3.2-1.4-3.2-3.2Z"/>
    <path class="st10" d="M12.4,1.1h38.4c7.3,0,13.2,5.9,13.2,13.2v33.8c0,1.8-1.4,3.2-3.2,3.2H3.2c-1.8,0-3.2-1.4-3.2-3.2V13.6C0,6.7,5.6,1.1,12.4,1.1Z"/>
    <path class="st18" d="M13.6,0h36.5c7.7,0,14,6.2,14,14v33.1c0,1.8-1.4,3.2-3.2,3.2H3.2c-1.8,0-3.2-1.4-3.2-3.2V13.6C0,6.1,6.1,0,13.6,0Z"/>
    <path class="st7" d="M3.2,0C1.4,0,0,1.4,0,3.2v1.1C0,2.6,1.4,1.1,3.2,1.1h57.6c1.8,0,3.2,1.4,3.2,3.2v-1.1c0-1.8-1.4-3.2-3.2-3.2H3.2Z"/>
    <path class="st10" d="M33.7,8c-2,0-3.5.1-3.5.5,0,.8-.5,2.4-.6,4.2-.3-1.3-.5-2.5-.6-3.9-3,.2-8,3-8,4.3,0,.8.7,7,1.5,10.1-1.5-3-2.2-6.1-2.9-9.2-.9,1-5.2.9-2.2,13.9-1.2-2-1.4-4.3-2.1-6.4-2.1,3.4-3.4,9.3-2.5,16.6-1.6,3.3-2.9,6.8-3.8,10.7l.6.3s.6-1.2,1.1-1.6c.5-.4,2.1-1.1,2.1-1.1,0,0,.3-3.1,1.4-6.5,5.8-.8,9.1-3,11.1-5.8-3.5-4.6-2.6-3.9.4-1,1.4,1.4,3.6,2.7,5.2-1.7,1.2-3.3,2.6-4.2,2.6-4.2-2.1-.9-6-3.9.3-1.2,2-3.1,4.8-5.2,7.4-7.6-5.7,0-4.1-2.5.9-.7,2.4-4.5,8.2-4.5,14.8-3.4-4.8-2.5-10.2-5.7-11.7-3.6l-.2-1.5c-2.8-.6-7.8-1.1-11.2-1.2Z"/>
    <path class="st17" d="M13.8,38.9c6.2-.7,9.6-3,11.7-5.9-3.5-4.6-2.6-3.9.4-1,1.4,1.4,3.6,2.7,5.2-1.7,1.2-3.3,2.6-4.2,2.6-4.2-2.1-.9-6-3.9.3-1.2,2-3.1,4.8-5.2,7.4-7.6-5.7,0-4.1-2.5.9-.7,2.4-4.5,8.2-4.5,14.8-3.4-4.8-2.5-10.2-5.7-11.7-3.6l-.2-1.5c-4.5-1-14.7-1.7-14.8-.7,0,.8-.5,2.4-.6,4.2-.3-1.3-.5-2.5-.6-3.9-3,.2-8,3-8,4.3,0,.8.7,7,1.5,10.1-1.5-3-2.2-6.1-2.9-9.2-.9,1-5.2.9-2.2,13.9-1.2-2-1.4-4.3-2.1-6.5-2.2,3.7-3.7,10.3-2.2,18.4"/>
    <path class="st1" d="M35.4,13.1c-12.7,8.2-22.6,18.6-26.3,34.5l.6.3s.6-1.2,1.1-1.6c.5-.4,2.1-1,2.1-1,0,0,.6-5.8,2.9-10.5,2.3-4.7,5.8-8.4,6.6-9.3,1-1.1,5.6-6.5,13.2-12.3,0,0,0-.3-.2-.2Z"/>
  </g>
  <g>
    <path class="st3" d="M0,48.1v13.7c0,1.8,1.4,3.2,3.2,3.2h57.5c1.8,0,3.2-1.4,3.2-3.2v-13.7c0,1.8-1.4,3.2-3.2,3.2H3.2c-1.8,0-3.2-1.4-3.2-3.2Z"/>
    <path class="st2" d="M0,46.9v13.7c0,1.8,1.4,3.2,3.2,3.2h57.5c1.8,0,3.2-1.4,3.2-3.2v-13.7c0,1.8-1.4,3.2-3.2,3.2H3.2c-1.8,0-3.2-1.4-3.2-3.2Z"/>
    <path class="st10" d="M12.1,1.1h40.3c6.4,0,11.5,5.2,11.5,11.5v35.4c0,1.8-1.4,3.2-3.2,3.2H3.2c-1.8,0-3.2-1.4-3.2-3.2V13.2C0,6.6,5.4,1.1,12.1,1.1Z"/>
    <path class="st23" d="M13.4,0h37c7.4,0,13.4,6,13.4,13.4v33.5c0,1.8-1.4,3.2-3.2,3.2H3.2c-1.8,0-3.2-1.4-3.2-3.2V13.4C0,6,6,0,13.4,0Z"/>
    <path class="st7" d="M3.2,0C1.4,0,0,1.4,0,3.2v1.1C0,2.6,1.4,1.1,3.2,1.1h57.5c1.8,0,3.2,1.4,3.2,3.2v-1.1c0-1.8-1.4-3.2-3.2-3.2H3.2Z"/>
    <path class="st10" d="M33.7,8c-2,0-3.5.1-3.5.5,0,.8-.5,2.4-.6,4.1-.3-1.2-.5-2.5-.6-3.9-2.9.2-8,3-8,4.3,0,.8.7,7,1.5,10.1-1.5-3-2.2-6.1-2.9-9.2-.9,1-5.2.9-2.2,13.9-1.2-2-1.4-4.3-2-6.4-2.1,3.4-3.4,9.3-2.5,16.5,4.9-10.1,12.9-17.6,22.5-23.8.2-.1.3,0,.2.2-7.6,5.8-12.2,11.2-13.2,12.3-.8.8-4.3,4.6-6.5,9.2-.6,1.3-1.1,2.6-1.5,3.9,5.8-.8,9.1-3,11.1-5.8-3.5-4.6-2.6-3.9.4-1,1.4,1.4,3.6,2.7,5.2-1.7,1.2-3.3,2.6-4.2,2.6-4.2-2.1-.9-6-3.9.3-1.2,2-3.1,4.8-5.2,7.3-7.6-5.7,0-4.1-2.5.9-.7,2.4-4.5,8.2-4.5,14.8-3.4-4.8-2.5-10.2-5.7-11.7-3.6l-.2-1.5c-2.8-.6-7.8-1.1-11.2-1.2ZM14.3,39.8c-.2,0-.4,0-.6,0l-.6-.2c-.1-.6-.2-1.2-.3-1.8-1.6,3.3-2.9,6.8-3.7,10.6l.6.3s.6-1.2,1.1-1.6c.5-.4,2.1-1,2.1-1,0,0,.3-3,1.4-6.5Z"/>
    <path class="st1" d="M12.9,36.8c-1.6,3.3-2.9,6.8-3.7,10.6l.6.3s.6-1.2,1.1-1.6c.5-.4,2.1-1,2.1-1,0,0,.3-3,1.4-6.5-.2,0-.4,0-.6,0l-.6-.2c-.1-.6-.2-1.2-.3-1.8Z"/>
    <path class="st25" d="M33.7,6.8c-2,0-3.5.1-3.5.5,0,.8-.5,2.4-.6,4.1-.3-1.2-.5-2.5-.6-3.9-2.9.2-8,3-8,4.3,0,.8.7,7,1.5,10.1-1.5-3-2.2-6.1-2.9-9.2-.9,1-5.2.9-2.2,13.9-1.2-2-1.4-4.3-2-6.4-2.1,3.4-3.4,9.3-2.5,16.5,4.9-10.1,12.9-17.6,22.5-23.8.2-.1.3,0,.2.2-7.6,5.8-12.2,11.2-13.2,12.3-.8.8-4.3,4.6-6.5,9.2-.6,1.3-1.1,2.6-1.5,3.9,5.8-.8,9.1-3,11.1-5.8-3.5-4.6-2.6-3.9.4-1,1.4,1.4,3.6,2.7,5.2-1.7,1.2-3.3,2.6-4.2,2.6-4.2-2.1-.9-6-3.9.3-1.2,2-3.1,4.8-5.2,7.3-7.6-5.7,0-4.1-2.5.9-.7,2.4-4.5,8.2-4.5,14.8-3.4-4.8-2.5-10.2-5.7-11.7-3.6l-.2-1.5c-2.8-.6-7.8-1.1-11.2-1.2Z"/>
  </g>
</svg>