<?xml version="1.0" encoding="UTF-8"?>
<svg id="_图层_1" xmlns="http://www.w3.org/2000/svg" version="1.1" viewBox="0 0 64 64" width="48" height="48">
  <!-- Generator: Adobe Illustrator 29.0.1, SVG Export Plug-In . SVG Version: 2.1.0 Build 192)  -->
  <defs>
    <style>
      .st0, .st1, .st2, .st3 {
        isolation: isolate;
      }

      .st0, .st2, .st3 {
        opacity: .2;
      }

      .st0, .st3, .st4 {
        display: none;
      }

      .st5 {
        fill: #404040;
      }

      .st1 {
        opacity: .1;
      }

      .st3 {
        fill: #fff;
      }

      .st6 {
        fill: #f03b43;
      }

      .st4, .st7 {
        fill: #e4e4e4;
      }

      .st8 {
        fill: #ff0;
      }
    </style>
  </defs>
  <path class="st7" d="M50.4,64H13.8c-7.6,0-13.8-6.2-13.8-13.7V13.7C0,6.2,6.2,0,13.7,0h36.6c7.5,0,13.7,6.2,13.7,13.7v36.6c0,7.5-6.2,13.7-13.7,13.7h.1Z"/>
  <g>
    <ellipse class="st0" cx="31.9" cy="33.1" rx="31.9" ry="32"/>
    <ellipse class="st4" cx="31.9" cy="32" rx="31.9" ry="32"/>
    <path class="st1" d="M33.2,10.3c-2.7,0-3,.1-3.3,1.1-.9,3.4.2,8.9,2.5,11.8.8,1,3.1,2.6,5.7,3.9,2.4,1.2,5,2.7,5.8,3.4.8.7,1.7,1.1,1.9.9,1.1-.6,2.2-5.6,1.9-8.4-.7-7.5-6.7-12.7-14.5-12.7ZM27.5,11.4l-2.1,1.1c-3.8,2-7,6.7-8.6,12.6-1.1,4-1.2,11.9-.3,15.7,1.9,7.6,6.4,13,12.2,14.7.7.2,2.8.4,4.6.4,8.4.1,15.2-7,14.3-15-.6-5.5-3.2-8.5-10.4-12.1-7.1-3.5-9.6-7.1-9.8-14v-3.4ZM41.5,17.1c.9,0,1.7.8,1.7,1.7s-.8,1.7-1.7,1.7h0c-.9,0-1.7-.8-1.7-1.7h0c0-.9.8-1.7,1.7-1.7h0ZM48.2,17.6c-.1,0,0,.3,0,.6.2.5.5,1.9.6,3.1.2,1.2.5,2.2.7,2.2s1.1-.9,2-2l1.6-2-1.4-.6c-.8-.3-2-.8-2.6-1-.5-.2-.8-.3-.9-.2Z"/>
    <path class="st6" d="M28.8,54.4c-5.8-1.7-10.3-7.1-12.2-14.7-1-3.9-.8-11.8.3-15.7,1.6-5.9,4.8-10.5,8.6-12.6l2.1-1.1v3.4c.3,6.9,2.7,10.5,9.8,14,7.2,3.6,9.8,6.6,10.4,12.1.9,8-5.9,15.1-14.3,15-1.8,0-3.9-.2-4.6-.4h0Z"/>
    <path class="st2" d="M36.3,51.8c3.2-4-.4-13-5.6-13.8l-1.9-.3.7,1.6c1,2.1.9,3.6-.2,5.7-.5.9-.9,2.6-.9,3.6,0,4.8,4.9,6.9,7.9,3.2Z"/>
    <path class="st8" d="M36.3,50.7c3.2-4-.4-13-5.6-13.8l-1.9-.3.7,1.6c1,2.1.9,3.6-.2,5.7-.5.9-.9,2.6-.9,3.6,0,4.8,4.9,6.9,7.9,3.2Z"/>
    <path class="st5" d="M33.2,9.1c-2.7,0-3,.1-3.3,1.1-.9,3.4.2,8.9,2.5,11.8.8,1,3.1,2.6,5.7,3.9,2.4,1.2,5,2.7,5.8,3.4.8.7,1.7,1.1,1.9.9,1.1-.6,2.2-5.6,1.9-8.4-.7-7.5-6.7-12.7-14.5-12.7ZM41.5,16c.9,0,1.7.8,1.7,1.7h0c0,.9-.8,1.7-1.7,1.7h0c-.9,0-1.7-.8-1.7-1.7h0c0-.9.8-1.7,1.7-1.7h0Z"/>
    <path class="st5" d="M48.9,20.2c-.2-1.2-.4-2.6-.6-3.1-.3-.7-.2-.8.9-.4.7.3,1.8.7,2.6,1l1.4.6-1.6,2c-.9,1.1-1.8,2-2,2s-.5-1-.7-2.2Z"/>
    <path class="st3" d="M31.9,0C14.3,0,0,14.3,0,32c0,.2,0,.4,0,.6C.3,15.1,14.5,1.1,31.9,1.1c17.4,0,31.5,14,31.8,31.4,0-.2,0-.4,0-.6C63.7,14.3,49.5,0,31.9,0Z"/>
  </g>
</svg>