<?xml version="1.0" encoding="UTF-8"?>
<svg id="_图层_1" xmlns="http://www.w3.org/2000/svg" version="1.1" viewBox="0 0 64 64" width="48" height="48">
  <!-- Generator: Adobe Illustrator 29.0.1, SVG Export Plug-In . SVG Version: 2.1.0 Build 192)  -->
  <defs>
    <style>
      .st0, .st1, .st2, .st3, .st4, .st5, .st6, .st7, .st8 {
        display: none;
      }

      .st0, .st9 {
        fill: #fa4778;
      }

      .st1, .st2, .st10, .st11, .st5, .st12, .st13 {
        isolation: isolate;
      }

      .st1, .st11, .st5, .st13 {
        opacity: .2;
      }

      .st2, .st14, .st5 {
        fill: #fff;
      }

      .st2, .st10 {
        opacity: .1;
      }

      .st15 {
        fill: #d8bbb3;
      }

      .st16 {
        fill: #2f2f2f;
      }

      .st3 {
        fill: #1c7fce;
      }

      .st17 {
        stroke: #fff;
      }

      .st17, .st13 {
        fill: none;
        stroke-linejoin: round;
        stroke-width: 4px;
      }

      .st18 {
        fill: #fee4d2;
      }

      .st6 {
        fill: #ee4237;
      }

      .st7 {
        fill: #744169;
      }

      .st8 {
        fill: #e3536d;
      }

      .st12 {
        fill: #ff4532;
        opacity: .7;
      }

      .st13 {
        stroke: #000;
      }

      .st19 {
        fill: #987d85;
      }
    </style>
  </defs>
  <path class="st9" d="M50.4,64H13.8c-7.6,0-13.8-6.2-13.8-13.7V13.7C0,6.2,6.2,0,13.7,0h36.5c7.5,0,13.7,6.2,13.7,13.7v36.6c0,7.5-6.2,13.7-13.7,13.7h.1Z"/>
  <g class="st4">
    <path class="st1" d="M32.2,2.1h0c-1.5,0-3,.3-4.2.9L4.1,14.8C1.5,16,0,18.3,0,20.8v23.5c0,2.5,1.5,4.8,4.1,6l23.9,11.8c2.5,1.2,5.6,1.2,8.1,0l23.9-11.8c2.5-1.2,4.1-3.5,4.1-6v-23.5c0-2.5-1.5-4.8-4.1-6L36,3c-1.2-.6-2.5-.9-3.9-.9Z"/>
    <path class="st7" d="M32.2,1h0c-1.5,0-3,.3-4.2.9L4.1,13.7C1.5,15,0,17.2,0,19.7v23.5c0,2.5,1.5,4.8,4.1,6l23.9,11.8c2.5,1.2,5.6,1.2,8.1,0l23.9-11.8c2.5-1.2,4.1-3.5,4.1-6v-23.5c0-2.5-1.5-4.8-4.1-6L36,2c-1.2-.6-2.5-.9-3.9-.9Z"/>
    <path class="st2" d="M32.2,1h0c-1.5,0-3,.3-4.2.9L4.1,13.7C1.5,15,0,17.2,0,19.7v1c0-2.5,1.5-4.8,4.1-6L27.9,3c1.3-.6,2.8-1,4.2-.9h0c1.4,0,2.7.3,3.9.9l23.9,11.8c2.5,1.2,4.1,3.5,4.1,6v-1c0-2.5-1.5-4.8-4.1-6L36,2c-1.2-.6-2.5-.9-3.9-.9Z"/>
    <path class="st12" d="M32.1,7.4h0c-1.1,0-2.3.2-3.3.7l-18.4,9.3c-1.9,1-3.1,2.8-3.1,4.7v18.6c0,2,1.2,3.8,3.1,4.7l18.4,9.3c1.9,1,4.3,1,6.2,0l18.4-9.3c1.9-1,3.1-2.8,3.1-4.7v-18.6c0-2-1.2-3.8-3.1-4.7l-18.4-9.3c-.9-.5-1.9-.7-3-.7ZM32.1,9.5h0c.6,0,1.2.2,1.8.4l18.4,9.3c1.2.6,1.9,1.7,1.9,2.9v18.6c0,1.2-.7,2.3-1.9,2.9l-18.4,9.3c-1.2.6-2.6.6-3.7,0l-18.4-9.3c-1.2-.6-1.9-1.7-1.9-2.9v-18.6c0-1.2.7-2.3,1.9-2.9l18.4-9.3c.6-.3,1.3-.5,2-.4Z"/>
    <path class="st15" d="M28.3,8.2v10.2h7.4v-10.2h-7.4Z"/>
    <path class="st11" d="M26.1,21.7v2.7c0,0,.8.7.8.7l-1,1,.6,6.5-.3,23c.6,3.1,5.9,8.5,5.9,8.5,0,0,5.3-5.4,5.9-8.5l-.3-23,.6-6.5-1-1,.9-.7v-2.7h-11.9Z"/>
    <path class="st18" d="M26.1,20.7v2.7c0,0,.8.7.8.7l-1,1,.6,6.5-.3,23c.6,3.1,5.9,8.5,5.9,8.5,0,0,5.3-5.4,5.9-8.5l-.3-23,.6-6.5-1-1,.9-.7v-2.7h-11.9Z"/>
    <path class="st11" d="M26.1,20.7v2.7c0,0,.8.7.8.7l-1,1,.6,6.5-.3,23c.6,3.1,5.9,8.5,5.9,8.5V20.7h-5.9Z"/>
    <path class="st10" d="M30.1,1l-3,2.4,2.5,2.4-2.3,1.4.4,2.2h8.6l.4-2.2-2.3-1.4,2.5-2.4-3-2.4h-1.9s-1.9,0-1.9,0ZM32,16.3l-3.7,2.7h-1.8c0,.1-1.7-.9-1.7-.9l-2.1.9-.6,1.5.4,2,2.2.8,1.5-1.1h2.1l3.7,2.6,3.7-2.6h2.1l1.5,1.1,2.2-.8.4-2-.6-1.5-2.1-.9-1.7,1h-1.8c0-.1-3.7-2.8-3.7-2.8Z"/>
    <path class="st19" d="M32,15.3l-3.7,2.7h-1.8c0,.1-1.8-.9-1.8-.9l-2,.9-.6,1.5.4,2,2.2.8,1.5-1.1h2.1l3.7,2.6,3.7-2.6h2.1l1.5,1.1,2.2-.8.4-2-.6-1.5-2-.9-1.8,1h-1.8c0-.1-3.7-2.8-3.7-2.8Z"/>
    <path class="st19" d="M30.1,0l-3,2.4,2.5,2.4-2.3,1.4.4,2.2h8.6l.4-2.2-2.3-1.4,2.5-2.4-3-2.4h-1.9s-1.9,0-1.9,0Z"/>
  </g>
  <g class="st4">
    <path class="st1" d="M32.1,1.1C14.3,1.1,0,6,0,6l1.2,32.5s0,16,30.7,26.3c30.8-10.2,30.7-26.3,30.7-26.3l1.2-32.5c0,0-14.1-4.8-31.9-4.8Z"/>
    <path class="st3" d="M32.1,0C14.3,0,0,4.8,0,4.8l1.2,32.5s0,16,30.7,26.3c30.8-10.2,30.7-26.3,30.7-26.3l1.2-32.5c0,0-14.1-4.8-31.9-4.8Z"/>
    <path class="st11" d="M15.2,15.9c-3.6,0-5.6,2.1-5.6,5.2v1.6h12.2v-6.8h-6.7ZM25.9,15.9v6.8h12.2v-6.8h-12.2ZM42.2,15.9v6.8h12.2v-1.6c0-3.2-1.9-5.2-5.6-5.2h-6.7ZM9.6,26.1v6.8h12.2v-6.8h-12.2ZM42.2,26.1v6.8h12.2v-6.8h-12.2ZM9.6,36.3v1.6c0,3.2,1.9,5.2,5.6,5.2h6.7v-6.8h-12.2ZM25.9,36.3v6.8h12.2v-6.8h-12.2ZM42.2,36.3v6.8h6.7c3.6,0,5.6-2.1,5.6-5.2v-1.6h-12.2Z"/>
    <path class="st14" d="M15.2,14.8c-3.6,0-5.6,2.1-5.6,5.2v1.6h12.2v-6.8h-6.7ZM25.9,14.8v6.8h12.2v-6.8h-12.2ZM42.2,14.8v6.8h12.2v-1.6c0-3.2-1.9-5.2-5.6-5.2h-6.7ZM9.6,25v6.8h12.2v-6.8h-12.2ZM42.2,25v6.8h12.2v-6.8h-12.2ZM9.6,35.2v1.6c0,3.2,1.9,5.2,5.6,5.2h6.7v-6.8h-12.2ZM25.9,35.2v6.8h12.2v-6.8h-12.2ZM42.2,35.2v6.8h6.7c3.6,0,5.6-2.1,5.6-5.2v-1.6h-12.2Z"/>
    <path class="st5" d="M32.1,0C14.3,0,0,4.8,0,4.8v1.1c.2,0,14.3-4.8,32-4.8s31.8,4.8,31.9,4.8v-1.1c.1,0-14.1-4.8-31.9-4.8Z"/>
  </g>
  <g class="st4">
    <path class="st1" d="M32,1.5C14.2,1.5,0,6.3,0,6.3l1.2,32.5s0,16,30.8,26.3c30.8-10.2,30.8-26.3,30.8-26.3l1.2-32.5c0,0-14.1-4.8-32-4.8Z"/>
    <path class="st6" d="M32,.3C14.2.3,0,5.1,0,5.1l1.2,32.5s0,16,30.8,26.3c30.8-10.2,30.8-26.3,30.8-26.3l1.2-32.5c0,0-14.1-4.8-32-4.8Z"/>
    <path class="st11" d="M15.1,16.2c-3.7,0-5.6,2.1-5.6,5.2v1.6h12.3v-6.8h-6.7ZM25.9,16.2v6.8h12.3v-6.8h-12.3ZM42.2,16.2v6.8h12.3v-1.6c0-3.2-1.9-5.2-5.6-5.2h-6.7ZM9.5,26.5v6.8h12.3v-6.8h-12.3ZM42.2,26.5v6.8h12.3v-6.8h-12.3ZM9.5,36.7v1.6c0,3.2,1.9,5.2,5.6,5.2h6.7v-6.8h-12.3ZM25.9,36.7v6.8h12.3v-6.8h-12.3ZM42.2,36.7v6.8h6.7c3.7,0,5.6-2.1,5.6-5.2v-1.6h-12.3Z"/>
    <path class="st14" d="M15.1,15.1c-3.7,0-5.6,2.1-5.6,5.2v1.6h12.3v-6.8h-6.7ZM25.9,15.1v6.8h12.3v-6.8h-12.3ZM42.2,15.1v6.8h12.3v-1.6c0-3.2-1.9-5.2-5.6-5.2h-6.7ZM9.5,25.3v6.8h12.3v-6.8h-12.3ZM42.2,25.3v6.8h12.3v-6.8h-12.3ZM9.5,35.5v1.6c0,3.2,1.9,5.2,5.6,5.2h6.7v-6.8h-12.3ZM25.9,35.5v6.8h12.3v-6.8h-12.3ZM42.2,35.5v6.8h6.7c3.7,0,5.6-2.1,5.6-5.2v-1.6h-12.3Z"/>
    <path class="st5" d="M32,.3C14.2.3,0,5.1,0,5.1v1.1c.2,0,14.3-4.8,32-4.8s31.9,4.8,31.9,4.8v-1.1c.1,0-14.1-4.8-31.9-4.8Z"/>
  </g>
  <g class="st4">
    <path class="st1" d="M9.1,1.1h45.7c5,0,9.1,4.1,9.1,9.1v45.6c0,5-4.1,9.1-9.1,9.1H9.1c-5,0-9.1-4.1-9.1-9.1V10.3C0,5.2,4.1,1.1,9.1,1.1Z"/>
    <path class="st8" d="M9.1,0h45.7c5,0,9.1,4.1,9.1,9.1v45.6c0,5-4.1,9.1-9.1,9.1H9.1c-5,0-9.1-4.1-9.1-9.1V9.1C0,4.1,4.1,0,9.1,0Z"/>
    <path class="st2" d="M9.1,0C4.1,0,0,4.1,0,9.1v1.1C0,5.2,4.1,1.1,9.1,1.1h45.7c5.1,0,9.1,4.1,9.1,9.1v-1.1c0-5.1-4.1-9.1-9.1-9.1H9.1Z"/>
    <path class="st11" d="M28.6,21.7c-6.3,0-8.8,1.1-11.4,6.8h30.8c4,0,8.4-3.7,9.1-6.8h-28.6ZM6.9,30.8l18.7,4.3-2.7,5.4,5.7-1.7,3.4-8H6.9ZM34.3,30.8l-3.4,8,5.1-1.1,2.9-6.8h-4.6ZM41.1,30.8l-2.9,6.3,4.7-.9c1.5-.3,1.8-1.1,2.3-2.1l2.1-3.4h-6.2ZM14.3,34.2l-5.2,12.6,10.5-4.6,2.8-5.6-8.1-2.5Z"/>
    <path class="st16" d="M28.6,20.5c-6.3,0-8.8,1.1-11.4,6.8h30.8c4,0,8.4-3.7,9.1-6.8h-28.6ZM6.9,29.6l18.7,4.3-2.7,5.4,5.7-1.7,3.4-8H6.9ZM34.3,29.6l-3.4,8,5.1-1.1,2.9-6.8h-4.6ZM41.1,29.6l-2.9,6.3,4.7-.9c1.5-.3,1.8-1.1,2.3-2.1l2.1-3.4h-6.2ZM14.3,33l-5.2,12.6,10.5-4.6,2.8-5.6-8.1-2.5Z"/>
  </g>
  <g>
    <path class="st1" d="M3.2,1.1h57.5c1.8,0,3.2,1.4,3.2,3.2v57.4c0,1.8-1.4,3.2-3.2,3.2H3.2c-1.8,0-3.2-1.4-3.2-3.2V4.3C0,2.6,1.4,1.1,3.2,1.1Z"/>
    <path class="st0" d="M3.2,0h57.5c1.8,0,3.2,1.4,3.2,3.2v57.4c0,1.8-1.4,3.2-3.2,3.2H3.2c-1.8,0-3.2-1.4-3.2-3.2V3.2C0,1.4,1.4,0,3.2,0Z"/>
    <path class="st5" d="M3.2,0C1.4,0,0,1.4,0,3.2v1.1C0,2.6,1.4,1.1,3.2,1.1h57.5c1.8,0,3.2,1.4,3.2,3.2v-1.1c0-1.8-1.4-3.2-3.2-3.2H3.2Z"/>
    <path class="st13" d="M18.3,14.8v36.4l11.4-13.7h9.1l2.3-11.4h-11.4,11.4l2.3-11.4h-25.1Z"/>
    <path class="st17" d="M18.3,13.7v36.4l11.4-13.7h9.1l2.3-11.4h-11.4,11.4l2.3-11.4h-25.1Z"/>
  </g>
</svg>