<?xml version="1.0" encoding="UTF-8"?>
<svg id="_图层_1" data-name="图层_1" xmlns="http://www.w3.org/2000/svg" version="1.1" viewBox="0 0 64 64" width="48" height="48">
  <!-- Generator: Adobe Illustrator 29.0.1, SVG Export Plug-In . SVG Version: 2.1.0 Build 192)  -->
  <defs>
    <style>
      .st0 {
        fill: #3f3f3f;
      }

      .st1, .st2 {
        fill: #fff;
      }

      .st3 {
        fill: #ed333b;
      }

      .st4 {
        opacity: .1;
      }

      .st4, .st5, .st2 {
        isolation: isolate;
      }

      .st6 {
        fill: #f6d32d;
      }

      .st5, .st2 {
        opacity: .2;
      }

      .st7 {
        fill: #33d17a;
      }

      .st8 {
        fill: #3584e4;
      }

      .st9 {
        fill: #a347ba;
      }

      .st10 {
        fill: #ff7800;
      }
    </style>
  </defs>
  <rect class="st1" y=".3" width="64" height="63.5" rx="12.6" ry="12.6"/>
  <ellipse class="st5" cx="32.4" cy="34" rx="23.4" ry="22.4"/>
  <path class="st8" d="M52.6,22.1c4.2,6.9,4.2,15.4,0,22.4l-20.2-11.2,20.2-11.2Z"/>
  <path class="st9" d="M52.6,44.4c-4.2,6.9-11.9,11.2-20.2,11.2v-22.4l20.2,11.2Z"/>
  <path class="st7" d="M32.4,10.9c8.3,0,16.1,4.3,20.2,11.2l-20.2,11.2V10.9Z"/>
  <path class="st6" d="M12.1,22.1c4.2-6.9,11.9-11.2,20.2-11.2v22.4l-20.2-11.2Z"/>
  <path class="st10" d="M12.1,44.4c-4.2-6.9-4.2-15.4,0-22.4l20.2,11.2-20.2,11.2Z"/>
  <path class="st2" d="M32.4,10.9c-12.9,0-23.4,10-23.4,22.4,0,0,0,0,0,0,0,.1,0,.3,0,.4.2-12.2,10.6-22,23.3-22,12.7,0,23.1,9.8,23.3,22,0-.1,0-.3,0-.4,0-12.4-10.5-22.4-23.4-22.4,0,0,0,0,0,0Z"/>
  <path class="st3" d="M32.4,55.6c-8.3,0-16.1-4.3-20.2-11.2l20.2-11.2v22.4Z"/>
  <path class="st5" d="M43.8,21.1l-14.2,13.6c-1.1,1.6-.6,3.3-2.3,4.9l1.7,1.6c1.7-1.6,4-1.1,5.1-2.2l14.2-13.6-4.5-4.4Z"/>
  <path class="st1" d="M43.8,20.3l-14.2,13.6c-1.1,1.6-.6,3.3-2.3,4.9l1.7,1.6c1.7-1.6,4-1.1,5.1-2.2l14.2-13.6-4.5-4.4Z"/>
  <path class="st4" d="M52.2,14.1c-.9,0-1.9.4-2.5,1h0s-3.7,3.5-3.7,3.5l-2.3-2.2c-.5-.5-1.1,0-1.1,0l-1.7,1.6s-.5.5,0,1l9.6,9.2c.5.5,1.1,0,1.1,0l1.7-1.6c.5-.5,0-1,0-1l-2.3-2.2,3.6-3.5h0s0,0,0,0c.7-.6,1.1-1.5,1.1-2.4,0-1.9-1.6-3.4-3.6-3.4h0Z"/>
  <path class="st0" d="M52.2,13.3c-.9,0-1.9.4-2.5,1h0s-3.7,3.5-3.7,3.5l-2.3-2.2c-.5-.5-1.1,0-1.1,0l-1.7,1.6s-.5.5,0,1l9.6,9.2c.5.5,1.1,0,1.1,0l1.7-1.6c.5-.5,0-1,0-1l-2.3-2.2,3.6-3.5h0s0,0,0,0c.7-.6,1.1-1.5,1.1-2.4,0-1.9-1.6-3.4-3.6-3.4h0Z"/>
</svg>
