<?xml version="1.0" encoding="UTF-8"?>
<svg id="_图层_1" xmlns="http://www.w3.org/2000/svg" version="1.1" viewBox="0 0 64 64" width="48" height="48">
  <!-- Generator: Adobe Illustrator 29.0.1, SVG Export Plug-In . SVG Version: 2.1.0 Build 192)  -->
  <defs>
    <style>
      .st0 {
        stroke: #b95026;
      }

      .st0, .st1, .st2 {
        fill: none;
        stroke-width: 1.6px;
      }

      .st3, .st4, .st5, .st6, .st7, .st8, .st9, .st10, .st11, .st12, .st13, .st14 {
        display: none;
      }

      .st3, .st15, .st16 {
        fill: #3f3f3f;
      }

      .st4 {
        fill: #143d4d;
      }

      .st5, .st17, .st6, .st7, .st18, .st19, .st20, .st21, .st22, .st23, .st12 {
        isolation: isolate;
      }

      .st5, .st17, .st7, .st19 {
        opacity: .1;
      }

      .st5, .st17, .st18, .st24, .st25, .st19, .st22, .st16 {
        fill-rule: evenodd;
      }

      .st5, .st7, .st26, .st24, .st19, .st20, .st23, .st12 {
        fill: #fff;
      }

      .st6, .st18, .st21, .st23, .st12 {
        opacity: .2;
      }

      .st1 {
        stroke: #c97335;
      }

      .st27 {
        fill: #d59467;
      }

      .st25 {
        fill: #645b44;
      }

      .st28 {
        fill: #8a8a8a;
      }

      .st8 {
        fill: #c2352a;
      }

      .st29 {
        fill: #f0b530;
      }

      .st20 {
        opacity: .5;
      }

      .st30 {
        fill: #ff9a0c;
      }

      .st31 {
        fill: #c97335;
      }

      .st9 {
        fill: #388ebb;
      }

      .st10, .st32 {
        fill: #e3b56f;
      }

      .st33 {
        fill: #37adba;
      }

      .st2 {
        stroke: #d59467;
      }

      .st22 {
        opacity: .3;
      }

      .st13 {
        fill: #4f4f4f;
      }

      .st14 {
        fill: #2b2b2b;
      }

      .st34 {
        fill: #b95026;
      }
    </style>
  </defs>
  <path class="st32" d="M50.4,64H13.8c-7.6,0-13.8-6.2-13.8-13.7V13.7C0,6.2,6.2,0,13.7,0h36.6c7.5,0,13.7,6.2,13.7,13.7v36.6c0,7.5-6.2,13.7-13.7,13.7h.1Z"/>
  <g class="st11">
    <path class="st14" d="M11-.3h42.1c6.1,0,11,5.1,11,11.3v42.8c0,6.2-4.9,11.3-11,11.3H11c-6.1,0-11-5.1-11-11.3V11C0,4.8,4.9-.3,11-.3Z"/>
    <path class="st3" d="M11-.2h42.1c6.1,0,11,5.1,11,11.3v41.7c0,6.2-4.9,11.3-11,11.3H11c-6.1,0-11-5.1-11-11.3V11.1C0,4.9,4.9-.2,11-.2Z"/>
    <g>
      <path class="st18" d="M50.5,10.9c-.4,0-.7.2-.9.4s-.3.5-.4.9c-.2.7-.9,3.1-3.6,5.6-2.7,2.4-7.3,6.5-15.3,6.7-4.9,0-7.8-3-9.8-7.1-.5-1-1.3-2.9-1.3-1.7v11.6s0,.1,0,.1c0,0,.4,1,0,2.4s-2.6,3.4-6.7,4.7l-.5.2v.6c.3,1.4,1.2,2.7,2.5,4.2,1.3,1.4,3.1,2.9,5.2,4.2,4.1,2.6,9.4,4.6,14.6,4.7,5.1,0,10.2-1.8,13.5-7.1,3.3-5.3,5-15.5,3.6-28.7h0c0-.4-.1-.7-.3-.9-.1-.3-.4-.5-.7-.6h0Z"/>
      <path class="st25" d="M50.5,10c-.4,0-.7.2-.9.4s-.3.5-.4.9c-.2.7-.9,3.1-3.6,5.6-2.7,2.4-7.3,6.5-15.3,6.7-4.9,0-7.8-3-9.8-7.1-.5-1-1.3-2.9-1.3-1.7v11.6s0,.1,0,.1c0,0,.4,1,0,2.4s-2.6,3.4-6.7,4.7l-.5.2v.6c.3,1.4,1.2,2.7,2.5,4.2,1.3,1.4,3.1,2.9,5.2,4.2,4.1,2.6,9.4,4.6,14.6,4.7,5.1,0,10.2-1.8,13.5-7.1,3.3-5.3,5-15.5,3.6-28.7h0c0-.4-.1-.7-.3-.9-.1-.3-.4-.5-.7-.6h0Z"/>
      <path class="st19" d="M50.5,10c-.4,0-.7.2-.9.4s-.3.5-.4.9c-.2.7-.9,3.1-3.6,5.6-2.7,2.4-7.3,6.5-15.3,6.7-4.9,0-7.8-3-9.8-7.1-.5-1-1.3-2.9-1.3-1.7v.9c0-1.2.8.7,1.3,1.7,1.9,4.1,4.9,7.2,9.8,7.1,8-.2,12.6-4.3,15.3-6.7,2.7-2.4,3.4-4.9,3.6-5.6.1-.4.2-.7.4-.9.2-.2.5-.5.9-.4h0c.4,0,.6.3.7.6s.2.6.3.9h0c.3,3.1.5,6,.5,8.7,0-3-.1-6.2-.5-9.6h0c0-.4-.1-.7-.3-.9-.1-.3-.4-.6-.7-.6h0ZM18.4,16.5v9.7h.8l-.8-8.9v-.9ZM18.9,27.9c0,.3,0,.6-.2.9-.5,1.4-2.6,3.4-6.7,4.7l-.5.2v.6c.1,0,.1.2.1.2h.4c4.1-1.4,6.3-3.4,6.7-4.8.2-.7.2-1.3.2-1.7Z"/>
      <path class="st18" d="M23.5,23.4c-1.4,0-2.8.5-3.9,1.5-1.1,1-1.8,2.5-1.8,4.5s.7,3.5,1.8,4.5c1.1,1,2.5,1.5,3.9,1.5s2.8-.5,3.9-1.5c1.1-1,1.8-2.5,1.8-4.5s-.7-3.5-1.8-4.5c-1.1-1-2.5-1.5-3.9-1.5Z"/>
      <path class="st18" d="M33.2,23.4c-1.4,0-2.8.5-3.9,1.5-1.1,1-1.8,2.5-1.8,4.5s.7,3.5,1.8,4.5c1.1,1,2.5,1.5,3.9,1.5s2.8-.5,3.9-1.5c1.1-1,1.8-2.5,1.8-4.5s-.7-3.5-1.8-4.5c-1.1-1-2.5-1.5-3.9-1.5Z"/>
      <path class="st24" d="M23.5,22.6c-1.4,0-2.8.5-3.9,1.5-1.1,1-1.8,2.5-1.8,4.5s.7,3.5,1.8,4.5c1.1,1,2.5,1.5,3.9,1.5s2.8-.5,3.9-1.5c1.1-1,1.8-2.5,1.8-4.5s-.7-3.5-1.8-4.5c-1.1-1-2.5-1.5-3.9-1.5Z"/>
      <path class="st16" d="M24.3,26.8c-.6,0-1.2.2-1.6.6s-.8,1.1-.8,1.9.3,1.5.8,1.9c.5.4,1.1.6,1.6.6s1.2-.2,1.6-.6.8-1.1.8-1.9-.3-1.5-.8-1.9c-.5-.4-1.1-.6-1.6-.6Z"/>
      <path class="st22" d="M22.4,39.9c2.2,0,4.2.1,6,0,3-.2,5.7-.6,7-1.7-.6-.8-.7-1.7-.7-1.7,0,0,1.7.8,2.6,2,.9,1.2-.3,2-.5,3.6-.5-1.4-.8-1.9-1-2.5-.9,1.4-2.6,2.4-4.7,2.5-2.3,0-5.3-.9-8.7-2.2h0Z"/>
      <path class="st17" d="M13.1,26c-.3,0-.6,0-.8,0-.7.1-1.4.4-2,.8-2.3,1.7-2.9,5.6,0,9.7,2.9,4.1,6.6,4.7,8.9,3,2.3-1.7,2.9-5.6,0-9.7-1.9-2.7-4.1-3.9-6.1-3.9h0Z"/>
      <path class="st16" d="M13.1,25.1c-.3,0-.6,0-.8,0-.7.1-1.4.4-2,.8-2.3,1.7-2.9,5.6,0,9.7,2.9,4.1,6.6,4.7,8.9,3,2.3-1.7,2.9-5.6,0-9.7-1.9-2.7-4.1-3.9-6.1-3.9h0Z"/>
      <path class="st24" d="M33.2,22.6c-1.4,0-2.8.5-3.9,1.5-1.1,1-1.8,2.5-1.8,4.5s.7,3.5,1.8,4.5c1.1,1,2.5,1.5,3.9,1.5s2.8-.5,3.9-1.5c1.1-1,1.8-2.5,1.8-4.5s-.7-3.5-1.8-4.5c-1.1-1-2.5-1.5-3.9-1.5Z"/>
      <path class="st16" d="M34,26.8c-.6,0-1.2.2-1.6.6s-.8,1.1-.8,1.9.3,1.5.8,1.9c.5.4,1.1.6,1.6.6s1.2-.2,1.6-.6.8-1.1.8-1.9-.3-1.5-.8-1.9c-.5-.4-1.1-.6-1.6-.6Z"/>
      <path class="st21" d="M36.3,39.9l-1.1.6s4.4,4.2,8.4,6.2c0,.3,0,.6,0,1h.7c0-.1,2.7.7,4.7,1.3-.3,1.3.3,2.9,1.9,3.5,2.7,1,5.2,2.4,5.2,2.4-1.3-4.4-1.7-7.9-5.1-7.6,0,0-.2,0-.3,0l-5.1-2.8v-.7l-.5.4c0,0-.2.1-.3.2-3.7-2.4-8.6-4.5-8.6-4.5h0Z"/>
      <path class="st30" d="M45.9,46.7l1-2c-3.6-2.8-10.3-5.6-10.3-5.6l-1.1.6s6.1,5.8,10.4,7.1h0Z"/>
      <path class="st28" d="M45.7,43l-.5.4c-.5.3-.8.7-1.2,1.3-.4.9-.5,1.4-.4,2.3h.7c0-.1,3.8,1,5.6,1.6l.2-.4.7-1.5-5.2-2.8v-.7h0Z"/>
      <path class="st15" d="M56.4,54.1c-1.3-4.4-1.7-7.9-5.1-7.6-2.7.3-2.9,4.2,0,5.3,2.7,1,5.2,2.4,5.2,2.4h0Z"/>
      <path class="st5" d="M13.1,25.1c-.3,0-.6,0-.8,0-.7.1-1.4.4-2,.8-1.3,1-2.1,2.7-2,4.7.1-1.7.8-3,2-3.9.6-.4,1.3-.7,2-.8.3,0,.5,0,.8,0,2,0,4.3,1.2,6.1,3.9,1.2,1.7,1.8,3.4,1.9,5,.1-1.7-.4-3.7-1.9-5.8-1.9-2.7-4.1-3.9-6.1-3.9Z"/>
    </g>
  </g>
  <g class="st11">
    <path class="st6" d="M31.9,63.8C0,63.8,0,43,0,43,0,43,0,1.5,31.9,1.5s31.9,41.5,31.9,41.5c0,0,0,20.8-31.9,20.8Z"/>
    <path class="st13" d="M31.9,62.3C0,62.3,0,41.5,0,41.5,0,41.5,0,0,31.9,0s31.9,41.5,31.9,41.5c0,0,0,20.8-31.9,20.8Z"/>
    <path class="st21" d="M12.5,28.2c-8,0-8,14.8,0,14.8h16s-9.1-14.8-16-14.8ZM51.3,28.2c-6.8,0-16,14.8-16,14.8h16c8,0,8-14.8,0-14.8Z"/>
    <path class="st29" d="M12.5,26.7c-8,0-8,14.8,0,14.8h16s-9.1-14.8-16-14.8ZM51.3,26.7c-6.8,0-16,14.8-16,14.8h16c8,0,8-14.8,0-14.8Z"/>
    <path class="st7" d="M31.9,0C0,0,0,41.5,0,41.5c0,0,0,.3,0,.5C.2,37.1,2.2,1.5,31.9,1.5s31.7,35.6,31.9,40.6c0-.2,0-.5,0-.5,0,0,0-41.5-31.9-41.5Z"/>
    <path class="st23" d="M12.5,26.7c-4.3,0-6.2,4.2-5.9,8.1.2-3.4,2.2-6.7,5.9-6.7,5.7,0,12.8,10,15,13.4h1s-9.1-14.8-16-14.8ZM51.3,26.7c-6.8,0-16,14.8-16,14.8h1c2.2-3.3,9.2-13.4,15-13.4s5.7,3.2,5.9,6.7c.3-3.9-1.7-8.1-5.9-8.1Z"/>
  </g>
  <g class="st11">
    <ellipse class="st6" cx="32" cy="33" rx="32" ry="31.9"/>
    <ellipse class="st9" cx="32" cy="31.9" rx="32" ry="31.9"/>
    <path class="st21" d="M14.9,21.6c-1.1,0-2,.3-2.6,1-.6.6-.9,1.5-.9,2.7v4.5c0,.7-.1,1.2-.4,1.6s-.9.7-1.4.8c-.4.2-.9.2-1.4.3v1.1c.5,0,1,.1,1.4.3.4.2,1.1.4,1.4.8.3.4.4.9.4,1.6v4.5c0,1.1.3,2,.9,2.7.6.7,1.5,1,2.6,1h1.3v-1.1h-.7c-.7,0-1.2-.2-1.5-.7-.3-.5-.5-1.1-.5-2v-4.4c0-.8-.2-1.5-.7-2.1-.4-.6-1.1-.9-2-1.1h0c.9-.2,1.6-.5,2-1.1.5-.6.7-1.3.7-2.1v-4.4c0-.9.2-1.6.5-2,.3-.5.8-.7,1.5-.7h.7v-1.1h-1.3ZM47.9,21.6v1.1h.7c.7,0,1.2.2,1.5.7.3.4.5,1.1.5,2v4.4c0,.8.2,1.5.7,2.1.5.5,1.1.9,2,1.1h0c-.9.2-1.6.6-2,1.1-.4.5-.7,1.2-.7,2.1v4.4c0,.9-.2,1.5-.5,2-.3.5-.8.7-1.5.7h-.7v1.1h1.3c1.1,0,2-.3,2.6-1,.6-.7.9-1.6.9-2.7v-4.5c0-.7.1-1.2.4-1.6.3-.4.9-.7,1.4-.8.4-.2.9-.2,1.4-.3v-1.1c-.5,0-1-.1-1.4-.3-.4-.2-1.1-.4-1.4-.8-.3-.4-.4-.9-.4-1.6v-4.5c0-1.2-.3-2.1-.9-2.7-.6-.6-1.5-1-2.6-1h-1.3ZM32.5,23.9c-2.2,0-3.7.4-5.2,1.2-1.5.8-2.6,1.8-3.4,3.2-.7,1.4-1.1,2.9-1.1,4.7s.4,3.4,1.1,4.8c.7,1.4,1.8,2.4,3.3,3.2,1.5.8,3.3,1.1,5.5,1.1s2.4,0,3.4-.3c1-.2,2.6-.5,3.5-.9v-5.1c0-1.3.8-1.8,1.5-1.8v-1h-6.1s0,1,0,1c1.1,0,1.5,1.3,1.5,1.7v4.6c-.4,0-1.3.2-1.8.2-.5,0-1,0-1.6,0-2.6,0-4.5-.7-5.5-2-1.1-1.3-1.7-3.3-1.7-5.7s.7-4.4,1.7-5.7c1-1.4,2.4-2,4.8-2s1.7.2,2.2.5c.6.3.9.7,1.2,1.2.2.5.4,1,.4,1.5,0,0,0,0,0,0h0s1.5,0,1.5,0v-4.6h-1.5v.4c-1-.3-2.2-.4-3.7-.4Z"/>
    <path class="st26" d="M14.9,20.5c-1.1,0-2,.3-2.6,1-.6.6-.9,1.5-.9,2.7v4.5c0,.7-.1,1.2-.4,1.6s-.9.7-1.4.8c-.4.2-.9.2-1.4.3v1.1c.5,0,1,.1,1.4.3.4.2,1.1.4,1.4.8.3.4.4.9.4,1.6v4.5c0,1.1.3,2,.9,2.7.6.7,1.5,1,2.6,1h1.3v-1.1h-.7c-.7,0-1.2-.2-1.5-.7-.3-.5-.5-1.1-.5-2v-4.4c0-.8-.2-1.5-.7-2.1-.4-.6-1.1-.9-2-1.1h0c.9-.2,1.6-.5,2-1.1.5-.6.7-1.3.7-2.1v-4.4c0-.9.2-1.6.5-2,.3-.5.8-.7,1.5-.7h.7v-1.1h-1.3ZM47.9,20.5v1.1h.7c.7,0,1.2.2,1.5.7.3.4.5,1.1.5,2v4.4c0,.8.2,1.5.7,2.1.5.5,1.1.9,2,1.1h0c-.9.2-1.6.6-2,1.1-.4.5-.7,1.2-.7,2.1v4.4c0,.9-.2,1.5-.5,2-.3.5-.8.7-1.5.7h-.7v1.1h1.3c1.1,0,2-.3,2.6-1,.6-.7.9-1.6.9-2.7v-4.5c0-.7.1-1.2.4-1.6.3-.4.9-.7,1.4-.8.4-.2.9-.2,1.4-.3v-1.1c-.5,0-1-.1-1.4-.3-.4-.2-1.1-.4-1.4-.8s-.4-.9-.4-1.6v-4.5c0-1.2-.3-2.1-.9-2.7-.6-.6-1.5-1-2.6-1h-1.3ZM32.5,22.8c-2.2,0-3.7.4-5.2,1.2-1.5.8-2.6,1.8-3.4,3.2-.7,1.4-1.1,2.9-1.1,4.7s.4,3.4,1.1,4.8c.7,1.4,1.8,2.4,3.3,3.2,1.5.8,3.3,1.1,5.5,1.1s2.4,0,3.4-.3c1-.2,2.6-.5,3.5-.9v-5.1c0-1.3.8-1.8,1.5-1.8v-1h-6.1s0,1,0,1c1.1,0,1.5,1.3,1.5,1.7v4.6c-.4,0-1.3.2-1.8.2-.5,0-1,0-1.6,0-2.6,0-4.5-.7-5.5-2-1.1-1.3-1.7-3.3-1.7-5.7s.7-4.4,1.7-5.7c1-1.4,2.4-2,4.8-2s1.7.2,2.2.5c.6.3.9.7,1.2,1.2.2.5.4,1,.4,1.5,0,0,0,0,0,0h0s1.5,0,1.5,0v-4.6h-1.5v.4c-1-.3-2.2-.4-3.7-.4Z"/>
    <path class="st7" d="M32,0C14.3,0,0,14.3,0,31.9c0,.2,0,.4,0,.7C.3,15.1,14.5,1.2,32,1.1c17.4,0,31.6,13.9,32,31.2,0-.2,0-.3,0-.5C64,14.3,49.7,0,32,0Z"/>
  </g>
  <g class="st11">
    <path class="st6" d="M32,1.1c-1.7,0-3.4.6-4.6,1.9L1.9,28.5c-2.5,2.5-2.5,6.7,0,9.2l25.5,25.5c2.5,2.5,6.7,2.5,9.2,0l25.5-25.5c2.5-2.5,2.5-6.7,0-9.2L36.6,2.9c-1.3-1.3-2.9-1.9-4.6-1.9Z"/>
    <path class="st8" d="M32,0C30.3,0,28.6.6,27.4,1.9L1.9,27.4c-2.5,2.5-2.5,6.7,0,9.2l25.5,25.5c2.5,2.5,6.7,2.5,9.2,0l25.5-25.5c2.5-2.5,2.5-6.7,0-9.2L36.6,1.9C35.3.6,33.7,0,32,0Z"/>
    <path class="st16" d="M19.3,9.9l-3,3,9.3,9.3v22.6h4.3v-18.3l8.1,8.1,3-3L19.3,9.9Z"/>
    <path class="st21" d="M27.7,16c-3.5,0-6.4,2.9-6.4,6.4s2.9,6.4,6.4,6.4,6.4-2.9,6.4-6.4-2.9-6.4-6.4-6.4ZM39.5,27.7c-3.5,0-6.4,2.9-6.4,6.4s2.9,6.4,6.4,6.4,6.4-2.9,6.4-6.4-2.9-6.4-6.4-6.4ZM27.7,38.4c-3.5,0-6.4,2.9-6.4,6.4s2.9,6.4,6.4,6.4,6.4-2.9,6.4-6.4-2.9-6.4-6.4-6.4Z"/>
    <path class="st26" d="M27.7,14.9c-3.5,0-6.4,2.9-6.4,6.4s2.9,6.4,6.4,6.4,6.4-2.9,6.4-6.4-2.9-6.4-6.4-6.4ZM39.5,26.7c-3.5,0-6.4,2.9-6.4,6.4s2.9,6.4,6.4,6.4,6.4-2.9,6.4-6.4-2.9-6.4-6.4-6.4ZM27.7,37.3c-3.5,0-6.4,2.9-6.4,6.4s2.9,6.4,6.4,6.4,6.4-2.9,6.4-6.4-2.9-6.4-6.4-6.4Z"/>
    <path class="st12" d="M32,0c-1.7,0-3.4.6-4.6,1.9L1.9,27.4C.5,28.8-.1,30.7,0,32.5c.1-1.5.7-2.9,1.9-4.1L27.4,2.9c1.3-1.3,2.9-1.9,4.6-1.9s3.4.6,4.6,1.9l25.5,25.5c1.1,1.1,1.7,2.6,1.9,4.1.1-1.8-.5-3.8-1.9-5.1L36.6,1.9c-1.3-1.3-2.9-1.9-4.6-1.9Z"/>
  </g>
  <g class="st11">
    <ellipse class="st6" cx="30" cy="33.5" rx="30" ry="31.5"/>
    <ellipse class="st4" cx="30" cy="32.4" rx="30" ry="31.5"/>
    <path class="st7" d="M30,.9C13.4.9,0,15,0,32.4c0,.2,0,.4,0,.6C.3,15.8,13.6,2,30,2c16.3,0,29.7,13.8,30,30.9,0-.2,0-.4,0-.6C60,15,46.6.9,30,.9Z"/>
    <path class="st1" d="M31.5,32.4l-7.9,9.1-.6,4.5-3.7,4.4"/>
    <path class="st2" d="M28.5,28.8l-9.3,7.1h-4.7l-3.8,3.3"/>
    <path class="st0" d="M30,30.8l-19.3,17.3"/>
    <ellipse class="st34" cx="10.7" cy="48.1" rx="2.1" ry="2.2"/>
    <ellipse class="st27" cx="10.7" cy="39.1" rx="2.1" ry="2.2"/>
    <ellipse class="st31" cx="19.3" cy="50.4" rx="2.1" ry="2.2"/>
    <path class="st21" d="M57.4,4.3c-.3,0-.7,0-1,.2L12.4,22.3c-1.4.6-2,2.2-1.5,3.6.4,1,1.2,1.6,2.2,1.7,4.6.5,10.2,4.1,14.4,8.9,4.3,4.8,7.1,10.7,7.2,14.5,0,1.5,1.3,2.7,2.7,2.7,1,0,1.9-.6,2.4-1.6L59.7,8.2c.6-1.4,0-3-1.3-3.7-.3-.2-.7-.3-1.1-.3Z"/>
    <path class="st33" d="M57.4,3.1c-.3,0-.7,0-1,.2L12.4,21.2c-1.4.6-2,2.2-1.5,3.6.4,1,1.2,1.6,2.2,1.7,4.6.5,10.2,4.1,14.4,8.9,4.3,4.8,7.1,10.7,7.2,14.5,0,1.5,1.3,2.7,2.7,2.7,1,0,1.9-.6,2.4-1.6L59.7,7.1c.6-1.4,0-3-1.3-3.7-.3-.2-.7-.3-1.1-.3Z"/>
    <path class="st23" d="M57.4,3.1c-.3,0-.7,0-1,.2L12.4,21.2c-1.2.5-1.9,1.8-1.6,3.1.2-.9.8-1.7,1.6-2L56.4,4.5c.3-.1.7-.2,1-.2,1.3,0,2.3.9,2.6,2.2.3-1.5-.6-2.9-2.1-3.3-.2,0-.3,0-.5,0Z"/>
  </g>
  <g>
    <path class="st6" d="M32,1.1c-1.7,0-3.4.6-4.6,1.9L1.9,28.4c-2.5,2.5-2.5,6.7,0,9.2l25.5,25.5c2.5,2.5,6.7,2.5,9.2,0l25.5-25.5c2.5-2.5,2.5-6.7,0-9.2L36.6,2.9c-1.3-1.3-2.9-1.9-4.6-1.9Z"/>
    <path class="st10" d="M32,0C30.3,0,28.6.6,27.4,1.9L1.9,27.3c-2.5,2.5-2.5,6.7,0,9.2l25.5,25.5c2.5,2.5,6.7,2.5,9.2,0l25.5-25.5c2.5-2.5,2.5-6.7,0-9.2L36.6,1.9C35.4.6,33.7,0,32,0Z"/>
    <path class="st20" d="M22.9,6.3l-4.5,4.5,9.3,8.2v22.5h6.4v-16.9l7.5,6.5,4.2-4.8L22.9,6.3Z"/>
    <path class="st21" d="M30.9,12.8c-3.5,0-6.4,2.9-6.4,6.4s2.9,6.4,6.4,6.4,6.4-2.9,6.4-6.4-2.9-6.4-6.4-6.4ZM43.7,23.4c-3.5,0-6.4,2.9-6.4,6.4s2.9,6.4,6.4,6.4,6.4-2.9,6.4-6.4-2.9-6.4-6.4-6.4ZM30.9,35.1c-3.5,0-6.4,2.9-6.4,6.4s2.9,6.4,6.4,6.4,6.4-2.9,6.4-6.4-2.9-6.4-6.4-6.4Z"/>
    <path class="st26" d="M30.9,11.7c-3.5,0-6.4,2.9-6.4,6.4s2.9,6.4,6.4,6.4,6.4-2.9,6.4-6.4-2.9-6.4-6.4-6.4ZM43.7,22.3c-3.5,0-6.4,2.9-6.4,6.4s2.9,6.4,6.4,6.4,6.4-2.9,6.4-6.4-2.9-6.4-6.4-6.4ZM30.9,34.1c-3.5,0-6.4,2.9-6.4,6.4s2.9,6.4,6.4,6.4,6.4-2.9,6.4-6.4-2.9-6.4-6.4-6.4Z"/>
    <path class="st12" d="M32,0c-1.7,0-3.4.6-4.6,1.9L1.9,27.3C.5,28.7-.1,30.6,0,32.5c.1-1.5.7-2.9,1.9-4.1L27.4,2.9c1.3-1.3,2.9-1.9,4.6-1.9s3.4.6,4.6,1.9l25.5,25.5c1.1,1.1,1.7,2.6,1.9,4.1.1-1.8-.5-3.7-1.9-5.1L36.6,1.9c-1.3-1.3-2.9-1.9-4.6-1.9Z"/>
  </g>
</svg>