<?xml version="1.0" encoding="UTF-8"?>
<svg id="_图层_1" xmlns="http://www.w3.org/2000/svg" version="1.1" viewBox="0 0 64 64" width="48" height="48">
  <!-- Generator: Adobe Illustrator 29.0.1, SVG Export Plug-In . SVG Version: 2.1.0 Build 192)  -->
  <defs>
    <style>
      .st0, .st1 {
        fill: #fff;
      }

      .st2 {
        fill: #689f38;
      }

      .st3 {
        opacity: .2;
      }

      .st3, .st1 {
        isolation: isolate;
      }

      .st4 {
        fill: #e4e4e4;
      }

      .st1 {
        opacity: .1;
      }
    </style>
  </defs>
  <path class="st0" d="M50.3,64H13.8c-7.6,0-13.8-6.2-13.8-13.7V13.7C0,6.2,6.2,0,13.7,0h36.5c7.5,0,13.7,6.2,13.7,13.7v36.6c0,7.5-6.2,13.7-13.7,13.7h0Z"/>
  <g>
    <path class="st3" d="M13.3,54.9v1.9c0,1.6,1.3,2.8,2.8,2.8h35.7c1.6,0,2.8-1.3,2.8-2.8v-1.9c0,1.6-1.3,2.8-2.8,2.8H16.1c-1.6,0-2.8-1.3-2.8-2.8Z"/>
    <path class="st4" d="M54.7,55.9V8.9c0-1.6-1.3-2.8-2.8-2.8H16.1c-1.6,0-2.8,1.3-2.8,2.8v47c0,1.6,1.3,2.8,2.8,2.8h35.7c1.6,0,2.8-1.3,2.8-2.8Z"/>
    <path class="st1" d="M16.1,6.1c-1.6,0-2.8,1.3-2.8,2.8v.9c0-1.6,1.3-2.8,2.8-2.8h35.7c1.6,0,2.8,1.3,2.8,2.8v-.9c0-1.6-1.3-2.8-2.8-2.8H16.1Z"/>
    <path class="st3" d="M7.6,10.8v41.3c0,3.8,3.8,3.8,3.8,3.8h48.9L7.6,10.8ZM17.1,31.2l17.8,15.3h-17.8v-15.3Z"/>
    <path class="st2" d="M7.6,9.9v41.3c0,3.8,3.8,3.8,3.8,3.8h48.9L7.6,9.9ZM17.1,30.3l17.8,15.3h-17.8v-15.3Z"/>
  </g>
</svg>