<?xml version="1.0" encoding="UTF-8"?>
<svg id="_图层_1" xmlns="http://www.w3.org/2000/svg" version="1.1" viewBox="0 0 64 64" width="48" height="48">
  <!-- Generator: Adobe Illustrator 29.0.1, SVG Export Plug-In . SVG Version: 2.1.0 Build 192)  -->
  <defs>
    <style>
      .st0 {
        fill: #f4c165;
      }

      .st1, .st2, .st3, .st4 {
        display: none;
      }

      .st1, .st2, .st5, .st6, .st7 {
        isolation: isolate;
      }

      .st1, .st5, .st6 {
        opacity: .2;
      }

      .st2, .st8, .st6, .st7 {
        fill: #fff;
      }

      .st2, .st7 {
        opacity: .1;
      }

      .st9 {
        fill: #3775f2;
      }

      .st10, .st3 {
        fill: #35454c;
      }

      .st11 {
        stroke-width: 3px;
      }

      .st11, .st12 {
        fill: none;
        stroke: #16a085;
        stroke-linecap: round;
        stroke-linejoin: round;
      }

      .st13 {
        fill: #ae56b8;
      }

      .st14 {
        fill: #f2ae37;
      }

      .st12 {
        stroke-width: 3px;
      }

      .st15 {
        fill: #6192f5;
      }
    </style>
  </defs>
  <path class="st10" d="M50.3,64H13.8c-7.6,0-13.8-6.2-13.8-13.7V13.7C0,6.2,6.2,0,13.7,0h36.5c7.5,0,13.7,6.2,13.7,13.7v36.6c0,7.5-6.2,13.7-13.7,13.7h0Z"/>
  <g class="st4">
    <path class="st5" d="M30.7,6.9c-2.9,0-5.2,2.3-5.2,5.1v2.4c-2.3.8-4.4,2-6.2,3.5l-2.1-1.2c-2.5-1.4-5.7-.6-7.1,1.9l-1.3,2.2c-1.4,2.4-.6,5.6,1.9,7l2.1,1.2c-.2,1.2-.3,2.3-.3,3.5,0,1.2.1,2.3.3,3.5l-2.1,1.2c-2.5,1.4-3.4,4.5-1.9,7l1.3,2.2c1.4,2.4,4.6,3.3,7.1,1.9l2.1-1.2c1.8,1.5,3.9,2.7,6.2,3.5v2.4c0,2.8,2.3,5.1,5.2,5.1h2.6c2.9,0,5.2-2.3,5.2-5.1v-2.4c2.3-.8,4.3-2,6.2-3.5l2.1,1.2c2.5,1.4,5.7.6,7.1-1.9l1.3-2.2c1.4-2.4.6-5.6-1.9-7l-2.1-1.2c.2-1.2.3-2.3.3-3.5,0-1.2-.1-2.3-.3-3.5l2.1-1.2c2.5-1.4,3.4-4.5,1.9-7l-1.3-2.2c-1.4-2.4-4.6-3.3-7.1-1.9l-2.1,1.2c-1.8-1.5-3.9-2.7-6.2-3.5v-2.4c0-2.8-2.3-5.1-5.2-5.1h-2.6Z"/>
    <path class="st13" d="M30.7,6c-2.9,0-5.2,2.3-5.2,5.1v2.4c-2.3.8-4.4,2-6.2,3.5l-2.1-1.2c-2.5-1.4-5.7-.6-7.1,1.9l-1.3,2.2c-1.4,2.4-.6,5.6,1.9,7l2.1,1.2c-.2,1.2-.3,2.3-.3,3.5,0,1.2.1,2.3.3,3.5l-2.1,1.2c-2.5,1.4-3.4,4.5-1.9,7l1.3,2.2c1.4,2.4,4.6,3.3,7.1,1.9l2.1-1.2c1.8,1.5,3.9,2.7,6.2,3.5v2.4c0,2.8,2.3,5.1,5.2,5.1h2.6c2.9,0,5.2-2.3,5.2-5.1v-2.4c2.3-.8,4.3-2,6.2-3.5l2.1,1.2c2.5,1.4,5.7.6,7.1-1.9l1.3-2.2c1.4-2.4.6-5.6-1.9-7l-2.1-1.2c.2-1.2.3-2.3.3-3.5,0-1.2-.1-2.3-.3-3.5l2.1-1.2c2.5-1.4,3.4-4.5,1.9-7l-1.3-2.2c-1.4-2.4-4.6-3.3-7.1-1.9l-2.1,1.2c-1.8-1.5-3.9-2.7-6.2-3.5v-2.4c0-2.8-2.3-5.1-5.2-5.1h-2.6Z"/>
    <path class="st7" d="M30.7,6c-2.9,0-5.2,2.3-5.2,5.1v.9c0-2.8,2.3-5.1,5.2-5.1h2.6c2.9,0,5.2,2.3,5.2,5.1v-.9c0-2.8-2.3-5.1-5.2-5.1h-2.6ZM25.5,13.5c-2.3.8-4.4,2-6.2,3.5l-2.1-1.2c-2.5-1.4-5.7-.6-7.1,1.9l-1.3,2.2c-.6,1-.8,2-.7,3,0-.7.3-1.4.7-2.1l1.3-2.2c1.4-2.4,4.6-3.3,7.1-1.9l2.1,1.2c1.8-1.5,3.9-2.7,6.2-3.5v-.9ZM38.5,13.5v.9c2.3.8,4.4,2,6.2,3.5l2.1-1.2c2.5-1.4,5.7-.6,7.1,1.9l1.3,2.2c.4.7.6,1.4.7,2.1,0-1-.1-2.1-.7-3l-1.3-2.2c-1.4-2.4-4.6-3.3-7.1-1.9l-2.1,1.2c-1.8-1.5-3.9-2.7-6.2-3.5ZM51.4,28.8h-.1c.2,1.1.3,2.1.3,3.1,0-.2,0-.3,0-.5,0-.9,0-1.8-.2-2.6ZM12.6,28.8c-.1.9-.2,1.8-.2,2.6,0,.1,0,.3,0,.4,0-1,.1-2,.3-3h-.1ZM51.4,35c0,.3,0,.6-.1.8l2.1,1.2c1.5.9,2.4,2.4,2.6,4,.2-1.9-.8-3.8-2.6-4.9l-2-1.1ZM12.6,35.1l-2,1.1c-1.8,1-2.8,2.9-2.6,4.9.1-1.6,1.1-3.1,2.6-4l2.1-1.2c0-.3,0-.6-.1-.8Z"/>
    <path class="st5" d="M32,21.5c6.2,0,11.2,4.9,11.2,10.9s-5,10.9-11.2,10.9-11.2-4.9-11.2-10.9,5-10.9,11.2-10.9Z"/>
    <path class="st8" d="M32,20.6c6.2,0,11.2,4.9,11.2,10.9s-5,10.9-11.2,10.9-11.2-4.9-11.2-10.9,5-10.9,11.2-10.9Z"/>
  </g>
  <g class="st4">
    <path class="st5" d="M13.8,23.7v1.6c0,.9.7,1.6,1.7,1.6h9.9c.9,0,1.7-.7,1.7-1.6v-1.6c0,.9-.7,1.6-1.7,1.6h-9.9c-.9,0-1.7-.7-1.7-1.6ZM32,30.1v1.6h23.2v-1.6h-23.2ZM37,46.1v1.6c0,.9.7,1.6,1.7,1.6h9.9c.9,0,1.7-.7,1.7-1.6v-1.6c0,.9-.7,1.6-1.7,1.6h-9.9c-.9,0-1.7-.7-1.7-1.6ZM8.8,50.1v1.6c0,1.3,1.1,2.4,2.5,2.4h20.7v-1.6H11.3c-1.4,0-2.5-1.1-2.5-2.4Z"/>
    <path class="st0" d="M32,8.5h20.7c1.4,0,2.5,1.1,2.5,2.4v20h-23.2V8.5Z"/>
    <path class="st14" d="M32,53.3H11.3c-1.4,0-2.5-1.1-2.5-2.4v-20h23.2v22.4Z"/>
    <path class="st15" d="M38.6,35.7h9.9c.9,0,1.7.7,1.7,1.6v9.6c0,.9-.7,1.6-1.7,1.6h-9.9c-.9,0-1.7-.7-1.7-1.6v-9.6c0-.9.7-1.6,1.7-1.6Z"/>
    <path class="st9" d="M15.4,13.3h9.9c.9,0,1.7.7,1.7,1.6v9.6c0,.9-.7,1.6-1.7,1.6h-9.9c-.9,0-1.7-.7-1.7-1.6v-9.6c0-.9.7-1.6,1.7-1.6Z"/>
    <path class="st6" d="M32,8.5v.8h20.7c1.4,0,2.5,1.1,2.5,2.4v-.8c0-1.3-1.1-2.4-2.5-2.4h-20.7ZM15.4,13.3c-.9,0-1.7.7-1.7,1.6v.8c0-.9.7-1.6,1.7-1.6h9.9c.9,0,1.7.7,1.7,1.6v-.8c0-.9-.7-1.6-1.7-1.6h-9.9ZM8.8,30.9v.8h23.2v-.8H8.8ZM38.6,35.7c-.9,0-1.7.7-1.7,1.6v.8c0-.9.7-1.6,1.7-1.6h9.9c.9,0,1.7.7,1.7,1.6v-.8c0-.9-.7-1.6-1.7-1.6h-9.9Z"/>
  </g>
  <g>
    <ellipse class="st1" cx="32" cy="32.7" rx="31.8" ry="31.6"/>
    <ellipse class="st3" cx="32" cy="31.6" rx="31.8" ry="31.6"/>
    <path class="st5" d="M49.1,16.9c-.4,0-.9.1-1.2.4l-8.2,7.1c-2-1.9-4.7-3-7.7-3-6.3,0-11.4,5.1-11.4,11.3,0,2,.6,3.9,1.5,5.6l-7.2,6.2-5.1-4.6c-.7-.6-1.8-.6-2.4,0s-.6,1.8,0,2.4c0,0,0,0,0,0l6.2,5.6c.6.6,1.6.6,2.3,0l8.2-7.1c2,1.9,4.7,3,7.7,3,6.3,0,11.4-5.1,11.4-11.3,0-2-.6-3.9-1.5-5.6l7.2-6.2,5.1,4.6c.7.6,1.8.6,2.4,0,.6-.7.6-1.8,0-2.4,0,0,0,0,0,0l-6.2-5.6c-.3-.3-.7-.4-1.1-.4ZM32,24.8c4.4,0,7.9,3.5,7.9,7.9,0,4.4-3.5,7.9-7.9,7.9-4.4,0-7.9-3.5-7.9-7.9,0-4.4,3.5-7.9,7.9-7.9Z"/>
    <path class="st11" d="M24.1,37.8l-9.1,7.9-6.2-5.6"/>
    <path class="st12" d="M41.7,31.6c0,5.3-4.3,9.6-9.7,9.6-5.3,0-9.7-4.3-9.7-9.6,0-5.3,4.3-9.6,9.7-9.6,5.3,0,9.7,4.3,9.7,9.6Z"/>
    <path class="st11" d="M40,25.4l9.1-7.9,6.2,5.6"/>
    <path class="st6" d="M49.1,15.8c-.4,0-.9.1-1.2.4l-8.2,7.1c-2-1.9-4.7-3-7.7-3-6.3,0-11.4,5.1-11.4,11.3,0,.2,0,.3,0,.5.3-5.9,5.3-10.6,11.3-10.6,3,0,5.7,1.2,7.7,3l8.2-7.1c.3-.3.8-.4,1.2-.4.4,0,.8.2,1.1.4l6.2,5.6c.2.2.4.4.5.7.2-.6,0-1.4-.5-1.8l-6.2-5.6c-.3-.3-.7-.4-1.1-.4ZM42.2,26.8l-.4.3c.9,1.5,1.4,3.3,1.5,5.1,0-.2,0-.4,0-.6,0-1.7-.4-3.3-1.1-4.8ZM24.1,32.2c0,.2,0,.4,0,.6,0,4.4,3.5,7.9,7.9,7.9,4.4,0,7.9-3.5,7.9-7.9,0-.2,0-.4,0-.6-.3,4.1-3.7,7.3-7.9,7.3-4.2,0-7.6-3.2-7.9-7.3ZM21.8,37.5l-6.8,5.9-5.1-4.6c-.7-.6-1.8-.6-2.4.1-.4.5-.6,1.1-.4,1.7.3-.9,1.3-1.3,2.2-1,.2,0,.4.2.6.3l5.1,4.6,7.2-6.2c-.1-.3-.3-.5-.4-.8Z"/>
    <path class="st2" d="M32,0C14.5,0,.2,14.1.2,31.6c0,.2,0,.4,0,.7C.5,15,14.6,1.1,32,1.1c17.3,0,31.4,13.8,31.8,30.9,0-.2,0-.3,0-.5C63.8,14.1,49.6,0,32,0Z"/>
  </g>
</svg>