<?xml version="1.0" encoding="UTF-8"?>
<svg id="_图层_1" xmlns="http://www.w3.org/2000/svg" version="1.1" viewBox="0 0 64 64" width="48" height="48">
  <!-- Generator: Adobe Illustrator 29.0.1, SVG Export Plug-In . SVG Version: 2.1.0 Build 192)  -->
  <defs>
    <style>
      .st0, .st1 {
        fill: #4bae4f;
      }

      .st2 {
        fill: #4f4f4f;
      }

      .st3 {
        stroke: #e9a119;
      }

      .st3, .st4, .st5, .st6 {
        fill: none;
      }

      .st3, .st5, .st6 {
        stroke-width: 4px;
      }

      .st3, .st6 {
        stroke-linejoin: round;
      }

      .st7 {
        fill: #4b5dee;
      }

      .st8, .st1, .st9, .st10, .st11, .st12 {
        display: none;
      }

      .st8, .st13, .st14, .st15, .st11 {
        opacity: .2;
      }

      .st8, .st16, .st17, .st14, .st15, .st11, .st18 {
        isolation: isolate;
      }

      .st19, .st17 {
        fill: #328fff;
      }

      .st20 {
        fill: #3f3f3f;
      }

      .st21, .st15, .st11, .st18 {
        fill: #fff;
      }

      .st22 {
        fill: #f4f803;
      }

      .st23 {
        fill: #3fb2ab;
      }

      .st24 {
        fill: #b0b0b0;
      }

      .st16, .st18 {
        opacity: .1;
      }

      .st17 {
        opacity: .3;
      }

      .st25 {
        fill: #f65d5a;
      }

      .st4 {
        stroke: #6e6e6e;
        stroke-miterlimit: 1.3;
        stroke-width: .9px;
      }

      .st5 {
        stroke: #e22e28;
      }

      .st6 {
        stroke: #1a5fb4;
      }

      .st26 {
        fill: #999;
      }

      .st9 {
        fill: #e11966;
      }

      .st27 {
        fill: #ccc;
      }

      .st28 {
        fill: #214487;
      }

      .st12 {
        fill: #e4e4e4;
      }

      .st29 {
        fill: #fefdfe;
      }

      .st30 {
        fill: #ffc425;
      }

      .st31 {
        fill: #fafafa;
      }

      .st32 {
        fill: #5292de;
      }
    </style>
  </defs>
  <path class="st0" d="M50.4,64H13.8c-7.6,0-13.8-6.2-13.8-13.7V13.7C0,6.2,6.2,0,13.7,0h36.6c7.5,0,13.7,6.2,13.7,13.7v36.6c0,7.5-6.2,13.7-13.7,13.7h.1Z"/>
  <g class="st10">
    <path class="st8" d="M4.9,1.1h54.3c2.7,0,4.9,2.3,4.9,5.1v53.6c0,2.8-2.2,5.1-4.9,5.1H4.9c-2.7,0-4.9-2.3-4.9-5.1V6.2C0,3.4,2.2,1.1,4.9,1.1Z"/>
    <path class="st12" d="M4.9,0h54.3c2.7,0,4.9,2.3,4.9,5.1v53.6c0,2.8-2.2,5.1-4.9,5.1H4.9c-2.7,0-4.9-2.3-4.9-5.1V5.1C0,2.3,2.2,0,4.9,0Z"/>
    <path class="st3" d="M32.1,7.7v56.1"/>
    <path class="st5" d="M32.1,63.8v-12.6c0-3.2,2.6-5.6,5.5-5.6h6.3c3,0,5.2-2.8,5.2-6v-15.3"/>
    <path class="st6" d="M32.1,63.8c0-3.2-2.3-6.8-5.2-6.8h-6.9c-3,0-4.9-2.6-4.9-5.8v-25.3c0-3.2,2-5.4,4.9-5.4h6.9c3,0,5.2-2,5.2-5.2v-3.8"/>
    <path class="st16" d="M32.1,5.7c-2.9,0-5.3,2.6-5.3,5.7s2.4,5.7,5.3,5.7,5.3-2.6,5.3-5.7-2.4-5.7-5.3-5.7ZM49.2,19.4c-2.9,0-5.3,2.6-5.3,5.7s2.4,5.7,5.3,5.7,5.3-2.6,5.3-5.7-2.4-5.7-5.3-5.7ZM15,33c-2.9,0-5.3,2.6-5.3,5.7s2.4,5.7,5.3,5.7,5.3-2.6,5.3-5.7-2.4-5.7-5.3-5.7Z"/>
    <path class="st25" d="M43.8,23.9c0-3.1,2.4-5.7,5.3-5.7s5.3,2.6,5.3,5.7-2.4,5.7-5.3,5.7-5.3-2.6-5.3-5.7Z"/>
    <path class="st21" d="M51.3,23.9c0,1.3-1,2.3-2.1,2.3s-2.1-1-2.1-2.3,1-2.3,2.1-2.3,2.1,1,2.1,2.3Z"/>
    <path class="st32" d="M9.6,37.6c0,3.1,2.4,5.7,5.3,5.7s5.3-2.6,5.3-5.7-2.4-5.7-5.3-5.7-5.3,2.6-5.3,5.7Z"/>
    <path class="st21" d="M17.1,37.6c0,1.3-1,2.3-2.1,2.3s-2.1-1-2.1-2.3,1-2.3,2.1-2.3,2.1,1,2.1,2.3Z"/>
    <path class="st30" d="M26.7,10.2c0,3.1,2.4,5.7,5.3,5.7s5.3-2.6,5.3-5.7-2.4-5.7-5.3-5.7-5.3,2.6-5.3,5.7Z"/>
    <path class="st21" d="M34.2,10.2c0,1.3-1,2.3-2.1,2.3s-2.1-1-2.1-2.3,1-2.3,2.1-2.3,2.1,1,2.1,2.3Z"/>
    <path class="st11" d="M4.9,0C2.2,0,0,2.3,0,5.1v1.1C0,3.4,2.2,1.1,4.9,1.1h54.3c2.7,0,4.9,2.3,4.9,5.1v-1.1c0-2.8-2.2-5.1-4.9-5.1H4.9Z"/>
  </g>
  <g class="st10">
    <path class="st14" d="M33.1,4.5c-.3,0-.5,0-.8,0-14.3,0-26.4,11-27.8,25.3-1.4,14.8,9.1,28.2,23.8,30.3,14.3,2.1,28-7.2,31.3-21.2l-9.9-11.8c-1.4-1.7-2-1.7-4-1.7h-9.1c-9.5-.1-9.5,14.1,0,14h7.9c-2.8,4.9-8.3,7.7-14.2,6.8-7.4-1.1-12.6-7.7-11.9-15.2s7-13,14.5-12.7c.3,0,.6,0,.9,0h8.3c3.9,0,7.1-3.1,7.1-7s-3.2-7.1-7.1-7h-9.1Z"/>
    <path class="st28" d="M33.1,3.5c-.3,0-.5,0-.8,0-14.3,0-26.4,11-27.8,25.3-1.4,14.8,9.1,28.2,23.8,30.3,14.3,2.1,28-7.2,31.3-21.2l-9.9-11.8c-1.4-1.7-2-1.7-4-1.7h-9.1c-9.5-.1-9.5,14.1,0,14h7.9c-2.8,4.9-8.3,7.7-14.2,6.8-7.4-1.1-12.6-7.7-11.9-15.2s7-13,14.5-12.7c.3,0,.6,0,.9,0h8.3c3.9,0,7.1-3.1,7.1-7s-3.2-7.1-7.1-7h-9.1Z"/>
    <path class="st18" d="M33.1,3.5c-.3,0-.5,0-.8,0-14.3,0-26.4,11-27.8,25.3-.1,1.1-.1,2.1-.1,3.2,0-.7,0-1.4.1-2.2,1.4-14.3,13.5-25.3,27.8-25.3.3,0,.5,0,.8,0h9.1c3.7,0,6.8,2.8,7.1,6.5,0-.2,0-.3,0-.5,0-3.9-3.2-7.1-7.1-7h-9.1ZM36.6,24.5c-5,0-7.3,3.8-7.1,7.5.2-3.4,2.6-6.6,7.1-6.5h9.1c2.1,0,2.6,0,4,1.7l9.7,11.6c0-.3.1-.5.2-.8l-9.9-11.8c-1.4-1.7-2-1.7-4-1.7h-9.1ZM18.4,32.1c-.2,7.1,4.8,13.2,11.9,14.3,5.9.9,11.4-2,14.2-6.8h-.6c-2.9,4.3-8.1,6.7-13.6,5.8-6.8-1-11.7-6.6-11.9-13.3Z"/>
  </g>
  <g class="st10">
    <path class="st14" d="M4.1,31.5c0,.3,0,.7,0,1,0,15.5,12.5,28,28,28s28-12.5,28-28,0-.7,0-1c-.5,15-12.8,27-27.9,27S4.6,46.5,4.1,31.5h0Z"/>
    <path class="st2" d="M60,31.5h0c0-15.5-12.5-28-28-28h0c-15.5,0-28,12.5-28,28h0c0,15.5,12.5,28,28,28h0c15.5,0,28-12.5,28-28Z"/>
    <path class="st14" d="M25.7,23.6c-2.4,3.2-3.7,5.8-3.7,7.6s.1,1.4,1.1,2.1c1.8,1.6,1.4,3.1,1.9,5.2-.6,0-1,1-1,2s.5,2,1,2v2c-4.5-2.6-7-7.4-7-13s3.5-10.6,8.5-13.1h-5.4c-3.7,3.3-6.1,7.7-6.1,13s3.8,13.5,10,16.4h.3c.9.5,1.8.8,2.7,1v3.1c-9.6-2.1-16-10.6-16-20.5,0-2,.3-4.1.9-6.1h-3.1c-.5,2-.8,4-.8,6.1,0,12.7,9.4,23.2,22,23.9v-10s0,0,0,0h0c.3,0,.6,0,1,0,0,0,0,0,0,0,.4,0,.7,0,1,0h0s0,0,0,0v10c12.6-.8,22-11.3,22-23.9,0-2-.3-4.1-.8-6.1h-3.1c.6,1.9.9,4,.9,6.1,0,9.8-6.4,18.4-16,20.5v-3.1c.9-.2,1.8-.5,2.7-.9h.3c6.2-3,10-9.2,10-16.5s-2.4-9.8-6.1-13.1h0s-5.4,0-5.4,0c5,2.4,8.5,7.1,8.5,13.1s-2.5,10.4-7,13v-2c.5,0,1-1,1-2s-.4-2-1-2c.4-2.1,0-3.6,1.9-5.2,1-.7,1.1-.9,1.1-2.1,0-1.8-1.3-4.4-3.7-7.6-1.6-2.1-3.3-5.1-6.3-5.1s-5,3.4-6.3,5.1ZM27.5,39.5c.8,0,1.5.7,1.5,1.5,0,.8-.7,1.5-1.5,1.5s-1.5-.7-1.5-1.5c0-.8.7-1.5,1.5-1.5ZM36.5,39.5c.8,0,1.5.7,1.5,1.5,0,.8-.7,1.5-1.5,1.5s-1.5-.7-1.5-1.5c0-.8.7-1.5,1.5-1.5Z"/>
    <path class="st23" d="M25.7,22.6c-2.4,3.2-3.7,5.8-3.7,7.6s.1,1.4,1.1,2.1c1.8,1.6,1.4,3.1,1.9,5.2-.6,0-1,1-1,2s.5,2,1,2v2c-4.5-2.6-7-7.4-7-13s3.5-10.6,8.5-13.1h-5.4c-3.7,3.3-6.1,7.7-6.1,13s3.8,13.5,10,16.4h.3c.9.5,1.8.8,2.7,1v3.1c-9.6-2.1-16-10.6-16-20.5,0-2,.3-4.1.9-6.1h-3.1c-.5,2-.8,4-.8,6.1,0,12.7,9.4,23.2,22,23.9v-10s0,0,0,0h0c.3,0,.6,0,1,0,0,0,0,0,0,0,.4,0,.7,0,1,0h0s0,0,0,0v10c12.6-.8,22-11.3,22-23.9,0-2-.3-4.1-.8-6.1h-3.1c.6,1.9.9,4,.9,6.1,0,9.8-6.4,18.4-16,20.5v-3.1c.9-.2,1.8-.5,2.7-.9h.3c6.2-3,10-9.2,10-16.5s-2.4-9.8-6.1-13.1h0s-5.4,0-5.4,0c5,2.4,8.5,7.1,8.5,13.1s-2.5,10.4-7,13v-2c.5,0,1-1,1-2s-.4-2-1-2c.4-2.1,0-3.6,1.9-5.2,1-.7,1.1-.9,1.1-2.1,0-1.8-1.3-4.4-3.7-7.6-1.6-2.1-3.3-5.1-6.3-5.1s-5,3.4-6.3,5.1ZM27.5,38.5c.8,0,1.5.7,1.5,1.5,0,.8-.7,1.5-1.5,1.5s-1.5-.7-1.5-1.5c0-.8.7-1.5,1.5-1.5ZM36.5,38.5c.8,0,1.5.7,1.5,1.5,0,.8-.7,1.5-1.5,1.5s-1.5-.7-1.5-1.5c0-.8.7-1.5,1.5-1.5Z"/>
    <path class="st18" d="M32,3.5C16.5,3.5,4,16,4,31.5s0,.2,0,.3c.4-15.2,12.7-27.3,28-27.3s27.6,12.1,28,27.3c0-.1,0-.2,0-.3,0-15.5-12.5-28-28-28Z"/>
  </g>
  <g class="st10">
    <path class="st8" d="M0,60.5v2.3C0,64.6,1.4,66,3.2,66h57.7c1.8,0,3.2-1.4,3.2-3.2v-2.3c0,1.8-1.4,3.2-3.2,3.2H3.2C1.4,63.7,0,62.3,0,60.5H0Z"/>
    <path class="st9" d="M3.2,0h57.7c1.8,0,3.2,1.5,3.2,3.2v58.4c0,1.8-1.4,3.2-3.2,3.2H3.2c-1.8,0-3.2-1.5-3.2-3.2V3.2C0,1.5,1.4,0,3.2,0Z"/>
    <g class="st13">
      <rect x="11.4" y="10.4" width="6.9" height="32.4"/>
      <rect x="22.9" y="19.7" width="6.9" height="39.4"/>
      <rect x="34.3" y="19.7" width="6.9" height="39.4"/>
      <rect x="45.8" y="19.7" width="6.9" height="23.2"/>
    </g>
    <g>
      <rect class="st21" x="11.4" y="9.3" width="6.9" height="32.4"/>
      <rect class="st21" x="22.9" y="18.5" width="6.9" height="39.4"/>
      <rect class="st21" x="34.3" y="18.5" width="6.9" height="39.4"/>
      <rect class="st21" x="45.8" y="18.5" width="6.9" height="23.2"/>
    </g>
    <path class="st11" d="M3.2,0C1.4,0,0,1.4,0,3.2v1.2C0,2.6,1.4,1.2,3.2,1.2h57.7c1.8,0,3.2,1.4,3.2,3.2v-1.2c0-1.8-1.4-3.2-3.2-3.2H3.2Z"/>
  </g>
  <g class="st10">
    <circle class="st14" cx="49.6" cy="32.8" r="12"/>
    <circle class="st22" cx="49.6" cy="31.8" r="12"/>
    <circle class="st20" cx="49.6" cy="31.8" r="5"/>
    <circle class="st14" cx="31.6" cy="36.8" r="12"/>
    <path class="st15" d="M49.6,19.8c-6.6,0-12,5.4-12,12,0,.2,0,.3,0,.5.3-6.4,5.5-11.5,12-11.5,6.4,0,11.6,5,12,11.3,0-.1,0-.2,0-.3,0-6.6-5.4-12-12-12Z"/>
    <circle class="st7" cx="31.6" cy="35.8" r="12"/>
    <circle class="st14" cx="35.6" cy="16.8" r="12"/>
    <circle class="st22" cx="35.6" cy="15.8" r="12"/>
    <path class="st20" d="M40.5,27.7l-9.2,3.8.5,1.2,9.6-4c-.3-.4-.6-.7-.9-1.1ZM43.6,35.1l-9.2,3.8.5,1.2,8.7-3.6c0-.5,0-1,0-1.4h0Z"/>
    <path class="st20" d="M39.6,4.4v15.3h1.3V5c-.4-.2-.9-.4-1.3-.6ZM30.3,11.8v14.7c.4.2.9.4,1.3.6v-15.3h-1.3Z"/>
    <circle class="st14" cx="17.6" cy="42.8" r="12"/>
    <circle class="st22" cx="17.6" cy="41.8" r="12"/>
    <path class="st20" d="M28.1,36l-8.2,4.5-1.2.6.6,1.2,1.3,2.3,1.2-.6-1.3-2.3,8.2-4.5-.6-1.2Z"/>
    <path class="st15" d="M18.3,29.8c-.5,0-1,0-1.5,0-1.7.1-3.4.6-4.9,1.4-3.9,2.2-6.3,6.4-6.2,10.8.2-4.1,2.6-7.8,6.2-9.8,1.5-.8,3.2-1.3,4.9-1.4,4.7-.3,9.1,2.1,11.4,6.2.9,1.6,1.4,3.4,1.5,5.2,0-2.2-.4-4.3-1.5-6.2-2-3.6-5.7-6-9.9-6.2Z"/>
    <circle class="st14" cx="19.6" cy="24.8" r="12"/>
    <path class="st15" d="M35.6,3.8c-6.6,0-12,5.4-12,12,0,.2,0,.3,0,.5.3-6.4,5.5-11.5,12-11.5,6.4,0,11.6,5,12,11.3,0-.1,0-.2,0-.3,0-6.6-5.4-12-12-12Z"/>
    <circle class="st7" cx="19.6" cy="23.8" r="12"/>
    <path class="st20" d="M28.6,15.8l-7,6.2-1,.9.9,1,1.8,2,1-.9-1.8-2,7-6.2-.9-1Z"/>
    <path class="st18" d="M19.5,11.8c-2.9,0-5.7,1.1-7.8,3-2.6,2.3-4.1,5.7-4,9.3.2-3.2,1.6-6.2,4-8.3,2.2-1.9,5-3,7.8-3,3.5,0,6.8,1.5,9.1,4.1,1.8,2.1,2.9,4.7,3,7.4.1-3.1-.9-6.1-3-8.4-2.3-2.6-5.6-4.1-9.1-4.1Z"/>
  </g>
  <g class="st10">
    <g>
      <path class="st24" d="M2.2,10.5c-1.2,0-2.2.6-2.2,1.4s1,1.4,2.2,1.4,2.2-.6,2.2-1.4-1-1.4-2.2-1.4ZM8.7,10.5v2.8h46.2v-2.8H8.7ZM61.4,10.5c-1.2,0-2.2.6-2.2,1.4s1,1.4,2.2,1.4,2.2-.6,2.2-1.4-1-1.4-2.2-1.4ZM2.2,18.2c-1.2,0-2.2.6-2.2,1.4s1,1.4,2.2,1.4,2.2-.6,2.2-1.4-1-1.4-2.2-1.4ZM8.7,18.2v2.8h46.2v-2.8H8.7ZM61.4,18.2c-1.2,0-2.2.6-2.2,1.4s1,1.4,2.2,1.4,2.2-.6,2.2-1.4-1-1.4-2.2-1.4ZM2.2,25.7c-1.2,0-2.2.6-2.2,1.4s1,1.4,2.2,1.4,2.2-.6,2.2-1.4-1-1.4-2.2-1.4ZM8.7,25.7v2.8h46.2v-2.8H8.7ZM61.4,25.7c-1.2,0-2.2.6-2.2,1.4s1,1.4,2.2,1.4,2.2-.6,2.2-1.4-1-1.4-2.2-1.4ZM2.2,33.4c-1.2,0-2.2.6-2.2,1.4s1,1.4,2.2,1.4,2.2-.6,2.2-1.4-1-1.4-2.2-1.4ZM8.7,33.4v2.8h46.2v-2.8H8.7ZM61.4,33.4c-1.2,0-2.2.6-2.2,1.4s1,1.4,2.2,1.4,2.2-.6,2.2-1.4-1-1.4-2.2-1.4ZM2.2,40.9c-1.2,0-2.2.6-2.2,1.4s1,1.4,2.2,1.4,2.2-.6,2.2-1.4-1-1.4-2.2-1.4ZM8.7,40.9v2.8h46.2v-2.8H8.7ZM2.2,48.6c-1.2,0-2.2.6-2.2,1.4s1,1.4,2.2,1.4,2.2-.6,2.2-1.4-1-1.4-2.2-1.4ZM8.7,48.6v2.8h37.5v-2.8H8.7Z"/>
      <path class="st31" d="M52.7,49.4c-1.9,0-3.4,1.6-3.4,3.6v10.9l14.7-14.6s-11.3,0-11.3,0Z"/>
      <path class="st16" d="M19.9,44.3l-6,6,1.7,1.7,6-6-1.7-1.7Z"/>
      <path class="st4" d="M14.6,50.3l6-6"/>
      <path class="st16" d="M14.2,48.7c-.7,0-1.4.3-1.9.8l-6.5,6.4c-1.1,1.1-1.2,2.8,0,3.9,1.1,1.1,2.8,1.2,3.9,0,0,0,0,0,0,0l6.5-6.4c1.1-1.1,1.1-2.8,0-3.9-.5-.5-1.3-.9-2.1-.8Z"/>
      <path class="st2" d="M14.2,47.9c-.7,0-1.4.3-1.9.8l-6.5,6.4c-1.1,1.1-1.2,2.8,0,3.9,1.1,1.1,2.8,1.2,3.9,0,0,0,0,0,0,0l6.5-6.4c1.1-1.1,1.1-2.8,0-3.9-.5-.5-1.3-.9-2.1-.8Z"/>
      <ellipse class="st17" cx="30.1" cy="35" rx="14.4" ry="14.2"/>
      <path class="st16" d="M30.1,20.4c-8.6,0-15.6,6.9-15.6,15.5s7,15.4,15.6,15.4,15.6-6.9,15.6-15.4-7-15.5-15.6-15.5ZM30.1,23.9c6.7,0,12.1,5.4,12.1,12s-5.4,12-12.1,12-12.1-5.4-12.1-12,5.4-12,12.1-12Z"/>
      <path class="st19" d="M30.1,19.6c-8.6,0-15.6,6.9-15.6,15.5s7,15.4,15.6,15.4,15.6-6.9,15.6-15.4-7-15.5-15.6-15.5ZM30.1,23c6.7,0,12.1,5.4,12.1,12s-5.4,12-12.1,12-12.1-5.4-12.1-12,5.4-12,12.1-12Z"/>
    </g>
  </g>
  <g>
    <path class="st1" d="M11.6,0h40.9c6.4,0,11.6,5.2,11.6,11.6v40.9c0,6.4-5.2,11.6-11.6,11.6H11.6c-6.4,0-11.6-5.2-11.6-11.6V11.6C0,5.2,5.2,0,11.6,0Z"/>
    <path class="st14" d="M13.8,64c-7.7,0-13.7-7.2-13.7-12.1l-.2-.4h64c0,8.8-10.1,12.6-13.2,12.6H13.8Z"/>
    <path class="st11" d="M15.5,11.4c-1.9,0-3.5,1.6-3.5,3.6v.8c0-1.9,1.5-3.6,3.5-3.6h35.6c1.9,0,3.5,1.6,3.5,3.6v-.8c0-1.9-1.5-3.6-3.5-3.6H15.5Z"/>
    <path class="st27" d="M12.2,64.1c-6.6,0-12.2-6.8-12.1-12.3v-.4c-.1,0,63.9,0,63.9,0v-1.2c0,5.6-3,13.6-13.7,13.7H12.2Z"/>
    <path class="st26" d="M40.2,54.6h9.1c.8,0,1.5.7,1.5,1.5h0c0,.8-.7,1.5-1.5,1.5h-9.1c-.8,0-1.5-.7-1.5-1.5h0c0-.8.7-1.5,1.5-1.5Z"/>
    <path class="st0" d="M15.8,54.6h21.3c.8,0,1.5.7,1.5,1.5h0c0,.8-.7,1.5-1.5,1.5H15.8c-.8,0-1.5-.7-1.5-1.5h0c0-.8.7-1.5,1.5-1.5Z"/>
    <ellipse class="st14" cx="38.7" cy="56.6" rx="3" ry="3.1"/>
    <ellipse class="st29" cx="38.7" cy="56.2" rx="3" ry="3.1"/>
    <rect class="st15" x="0" y="49.9" width="64" height="1.5"/>
    <path class="st14" d="M23.5,12.7c-.8,0-1.4.6-1.4,1.3v26.6c0,1,1,1.5,2.1,1.1l25.1-13.4c1-.6,1-1.7,0-2.3l-22.6-12.1-2.5-1.3h-.6,0Z"/>
    <path class="st29" d="M23.5,11.4c-.8,0-1.4.6-1.4,1.3v26.6c0,1,1,1.5,2.1,1.1l25.1-13.4c1-.6,1-1.7,0-2.3l-22.6-12.1-2.5-1.3h-.6,0Z"/>
  </g>
</svg>