<?xml version="1.0" encoding="UTF-8"?>
<svg id="_图层_1" xmlns="http://www.w3.org/2000/svg" version="1.1" viewBox="0 0 64 64" width="48" height="48">
  <!-- Generator: Adobe Illustrator 29.0.1, SVG Export Plug-In . SVG Version: 2.1.0 Build 192)  -->
  <defs>
    <style>
      .st0, .st1 {
        fill: #4f4f4f;
      }

      .st2, .st3, .st4, .st5 {
        isolation: isolate;
      }

      .st2, .st3, .st6, .st1 {
        display: none;
      }

      .st2, .st7, .st4 {
        opacity: .2;
      }

      .st3, .st5 {
        fill: #fff;
        opacity: .1;
      }

      .st8 {
        fill: #689f38;
      }

      .st9 {
        fill: #81ff85;
      }

      .st10 {
        fill: #e4e4e4;
      }
    </style>
  </defs>
  <path class="st0" d="M50.3,64H13.8c-7.6,0-13.8-6.2-13.8-13.7V13.7C0,6.2,6.2,0,13.7,0h36.5c7.5,0,13.7,6.2,13.7,13.7v36.6c0,7.5-6.2,13.7-13.7,13.7h0Z"/>
  <g class="st6">
    <path class="st4" d="M13.3,54.9v1.9c0,1.6,1.3,2.8,2.8,2.8h35.7c1.6,0,2.8-1.3,2.8-2.8v-1.9c0,1.6-1.3,2.8-2.8,2.8H16.1c-1.6,0-2.8-1.3-2.8-2.8Z"/>
    <path class="st10" d="M54.7,55.9V8.9c0-1.6-1.3-2.8-2.8-2.8H16.1c-1.6,0-2.8,1.3-2.8,2.8v47c0,1.6,1.3,2.8,2.8,2.8h35.7c1.6,0,2.8-1.3,2.8-2.8Z"/>
    <path class="st5" d="M16.1,6.1c-1.6,0-2.8,1.3-2.8,2.8v.9c0-1.6,1.3-2.8,2.8-2.8h35.7c1.6,0,2.8,1.3,2.8,2.8v-.9c0-1.6-1.3-2.8-2.8-2.8H16.1Z"/>
    <path class="st4" d="M7.6,10.8v41.3c0,3.8,3.8,3.8,3.8,3.8h48.9L7.6,10.8ZM17.1,31.2l17.8,15.3h-17.8v-15.3Z"/>
    <path class="st8" d="M7.6,9.9v41.3c0,3.8,3.8,3.8,3.8,3.8h48.9L7.6,9.9ZM17.1,30.3l17.8,15.3h-17.8v-15.3Z"/>
  </g>
  <g>
    <path class="st1" d="M3.2,0h57.7c1.8,0,3.2,1.4,3.2,3.2v57.8c0,1.8-1.4,3.2-3.2,3.2H3.2c-1.8,0-3.2-1.4-3.2-3.2V3.2C0,1.4,1.4,0,3.2,0Z"/>
    <path class="st3" d="M3.2,0C1.4,0,0,1.4,0,3.2v1.1C0,2.6,1.4,1.1,3.2,1.1h57.7c1.8,0,3.2,1.4,3.2,3.2v-1.1c0-1.8-1.4-3.2-3.2-3.2H3.2Z"/>
    <path class="st2" d="M0,61v1.1c0,1.8,1.4,3.2,3.2,3.2h57.7c1.8,0,3.2-1.4,3.2-3.2v-1.1c0,1.8-1.4,3.2-3.2,3.2H3.2c-1.8,0-3.2-1.4-3.2-3.2Z"/>
    <g class="st7">
      <path d="M8.6,8h10.3c.9,0,1.7.8,1.7,1.7v10.3c0,.9-.8,1.7-1.7,1.7h-10.3c-.9,0-1.7-.8-1.7-1.7v-10.3c0-.9.8-1.7,1.7-1.7Z"/>
      <path d="M26.9,8h10.3c.9,0,1.7.8,1.7,1.7v10.3c0,.9-.8,1.7-1.7,1.7h-10.3c-.9,0-1.7-.8-1.7-1.7v-10.3c0-.9.8-1.7,1.7-1.7Z"/>
      <path d="M8.6,26.4h10.3c.9,0,1.7.8,1.7,1.7v10.3c0,.9-.8,1.7-1.7,1.7h-10.3c-.9,0-1.7-.8-1.7-1.7v-10.3c0-.9.8-1.7,1.7-1.7Z"/>
      <path d="M26.9,26.4h10.3c.9,0,1.7.8,1.7,1.7v10.3c0,.9-.8,1.7-1.7,1.7h-10.3c-.9,0-1.7-.8-1.7-1.7v-10.3c0-.9.8-1.7,1.7-1.7Z"/>
      <path d="M8.6,44.7h10.3c.9,0,1.7.8,1.7,1.7v10.3c0,.9-.8,1.7-1.7,1.7h-10.3c-.9,0-1.7-.8-1.7-1.7v-10.3c0-.9.8-1.7,1.7-1.7Z"/>
    </g>
    <g>
      <path class="st9" d="M8.6,6.9h10.3c.9,0,1.7.8,1.7,1.7v10.3c0,.9-.8,1.7-1.7,1.7h-10.3c-.9,0-1.7-.8-1.7-1.7v-10.3c0-.9.8-1.7,1.7-1.7Z"/>
      <rect class="st9" x="25.2" y="6.9" width="13.7" height="13.8" rx="1.7" ry="1.7"/>
      <path class="st9" d="M8.6,25.2h10.3c.9,0,1.7.8,1.7,1.7v10.3c0,.9-.8,1.7-1.7,1.7h-10.3c-.9,0-1.7-.8-1.7-1.7v-10.3c0-.9.8-1.7,1.7-1.7Z"/>
      <path class="st9" d="M26.9,25.2h10.3c.9,0,1.7.8,1.7,1.7v10.3c0,.9-.8,1.7-1.7,1.7h-10.3c-.9,0-1.7-.8-1.7-1.7v-10.3c0-.9.8-1.7,1.7-1.7Z"/>
      <path class="st9" d="M8.6,43.6h10.3c.9,0,1.7.8,1.7,1.7v10.3c0,.9-.8,1.7-1.7,1.7h-10.3c-.9,0-1.7-.8-1.7-1.7v-10.3c0-.9.8-1.7,1.7-1.7Z"/>
    </g>
  </g>
</svg>