<?xml version="1.0" encoding="UTF-8"?>
<svg id="_图层_1" xmlns="http://www.w3.org/2000/svg" version="1.1" viewBox="0 0 64 64" width="48" height="48">
  <!-- Generator: Adobe Illustrator 29.0.1, SVG Export Plug-In . SVG Version: 2.1.0 Build 192)  -->
  <defs>
    <style>
      .st0, .st1 {
        fill: #66a02c;
      }

      .st2 {
        fill: #ffa93e;
      }

      .st3, .st4, .st5, .st6, .st7 {
        isolation: isolate;
        opacity: .2;
      }

      .st3, .st1, .st6 {
        display: none;
      }

      .st4 {
        fill-rule: evenodd;
      }

      .st8, .st9, .st6, .st7 {
        fill: #fff;
      }

      .st9 {
        stroke: #fff;
        stroke-width: 1px;
      }

      .st10 {
        fill: #7ebc2e;
      }

      .st7 {
        stroke: #000;
        stroke-width: 1px;
      }
    </style>
  </defs>
  <path class="st0" d="M50.4,64H13.8c-7.6,0-13.8-6.2-13.8-13.7V13.7C0,6.2,6.2,0,13.7,0h36.6c7.5,0,13.7,6.2,13.7,13.7v36.6c0,7.5-6.2,13.7-13.7,13.7h.1Z"/>
  <g>
    <path class="st3" d="M59.5,48.5V6.7c0-1.1-1-2-2.3-2H19c-1.2,0-2.3.9-2.3,2v41.8c0,1.1,1,2,2.3,2h38.2c1.2,0,2.3-.9,2.3-2Z"/>
    <path class="st1" d="M59.5,46.5V4.7c0-1.1-1-2-2.3-2H19c-1.2,0-2.3.9-2.3,2v41.8c0,1.1,1,2,2.3,2h38.2c1.2,0,2.3-.9,2.3-2Z"/>
    <path class="st5" d="M8.2,55.5v2c0,1.1,1,2,2.3,2h38.2c1.2,0,2.3-.9,2.3-2v-2c0,1.1-1,2-2.3,2H10.5c-1.2,0-2.3-.9-2.3-2h0Z"/>
    <path class="st10" d="M42.7,61.6V10.8c0-1.3-1-2.4-2.3-2.4H2.3C1,8.4,0,10.7,0,12.1v36c0,9.8,9,16.4,13.2,15.9h27.3c1.2,0,2.3-1.1,2.3-2.4Z"/>
    <path class="st7" d="M28,24.9c-.6,0-1.1.3-1.3.7-.5,1.7,0,4.4,1,7.7l-.3.6c-.7,1.6-1.6,3.2-2.4,4.7-3.2,5.9-5.7,9.1-7.4,9.3h0c0-.8,1.4-2.7,3.4-4.2.2-.2,1.1-.9,1.1-.9,0,0-1.2.6-1.4.7-2.5,1.4-3.7,2.8-3.9,3.7,0,.3,0,.6.2.7l.6.3c1.7.8,3.8-1.3,6.6-5.9,2.9-.9,6.4-1.7,9.7-2.1,2.9,1.5,6.2,2.3,7.5,2,.2,0,.5-.2.6-.4.1-.2.2-.8.2-.8,0,0-.2.3-.4.4-.8.4-3.4-.2-6-1.4,2.3-.2,4.2-.2,5.2,0,1.3.4,1.3.8,1.3.9,0,0,0-.3,0-.4,0-.3-.1-.5-.4-.8-.5-.4-1.6-.7-3.2-.7-1.2,0-2.6,0-4.2.3-.7-.4-1.5-.8-2.1-1.3-1.5-1.3-2.8-3.2-3.6-5.2,0-.2.1-.4.2-.6.2-.9.4-4,.4-4,0,0-.6,2.3-.7,2.6,0,.2-.1.5-.2.7-.5-1.6-.7-3.1-.7-4.3s0-1,.1-1.5c0-.4.2-.5.3-.6.3,0,.6.5.9,1.2.3.6.3,1.3.3,1.7,0,0,.3-1.1.2-1.7,0-.4-.4-1.3-1.2-1.3h-.4s0,0,0,0ZM28.3,34.4c.8,1.6,2,3.1,3.5,4.3.3.3.7.5,1.1.8-2.8.5-5.6,1.2-8.3,2.2.5-.8,1-1.7,1.5-2.6,1-1.8,1.7-3.3,2.2-4.6h0Z"/>
    <path class="st6" d="M10.5,12.7c-1.2,0-2.3.9-2.3,2v1c0-1.1,1-2,2.3-2h38.2c1.2,0,2.3.9,2.3,2v-1c0-1.1-1-2-2.3-2H10.5Z"/>
    <path class="st6" d="M19,2.7c-1.2,0-2.3.9-2.3,2v1c0-1.1,1-2,2.3-2h38.2c1.2,0,2.3.9,2.3,2v-1c0-1.1-1-2-2.3-2H19Z"/>
    <path class="st9" d="M28,23.9c-.6,0-1.1.2-1.3.7-.5,1.7,0,4.3,1,7.6l-.3.6c-.7,1.6-1.6,3.2-2.4,4.6-3.2,5.9-5.7,9.1-7.4,9.3h0c0-.8,1.4-2.7,3.4-4.2.2-.2,1.1-.9,1.1-.9,0,0-1.2.6-1.4.7-2.5,1.4-3.7,2.7-3.9,3.7,0,.3,0,.6.2.7l.6.3c1.7.8,3.8-1.3,6.6-5.9,2.9-.9,6.4-1.7,9.7-2.1,2.9,1.5,6.2,2.3,7.5,2,.2,0,.5-.2.6-.4.1-.2.2-.8.2-.8,0,0-.2.3-.4.4-.8.4-3.4-.2-6-1.4,2.3-.2,4.2-.2,5.2,0,1.3.4,1.3.8,1.3.9,0,0,0-.3,0-.4,0-.3-.1-.5-.4-.8-.5-.4-1.6-.7-3.2-.7-1.2,0-2.6,0-4.2.3-.7-.4-1.5-.8-2.1-1.3-1.5-1.3-2.8-3.2-3.6-5.2,0-.2.1-.4.2-.6.2-.9.4-4.1.4-4.1,0,0-.6,2.4-.7,2.7,0,.2-.1.5-.2.7-.5-1.6-.7-3.1-.7-4.3s0-1,.1-1.5c0-.4.2-.5.3-.6.3,0,.6.5.9,1.2.3.6.3,1.3.3,1.7,0,0,.3-1.1.2-1.7,0-.4-.4-1.3-1.2-1.3-.1,0-.3,0-.4,0h0ZM28.3,33.4c.8,1.6,2,3.1,3.5,4.3.3.3.7.5,1.1.8-2.8.5-5.6,1.1-8.3,2.2.5-.8,1-1.7,1.5-2.6,1-1.8,1.7-3.3,2.2-4.6h0Z"/>
    <path class="st4" d="M63.8,46.4c-.5,8.5-8,15.1-17.1,15.1-9,0-16.4-6.5-17.1-14.8,0,.3,0,.6,0,.8,0,8.8,7.7,15.9,17.1,15.9h0c9.4,0,17.1-7.1,17.1-15.9h0c0-.4,0-.8,0-1.1Z"/>
    <ellipse class="st2" cx="46.7" cy="46.5" rx="17.1" ry="15.9"/>
    <path class="st8" d="M38.2,51v3.6h3.8l9.6-9-3.8-3.6-9.6,9ZM55,42.4c.4-.4.4-1,0-1.3l-2.4-2.2c-.4-.4-1-.4-1.4,0l-2,1.9,3.8,3.6,2-1.9Z"/>
  </g>
</svg>