<?xml version="1.0" encoding="UTF-8"?>
<svg id="_图层_1" xmlns="http://www.w3.org/2000/svg" version="1.1" viewBox="0 0 64 64" width="48" height="48">
  <!-- Generator: Adobe Illustrator 29.0.1, SVG Export Plug-In . SVG Version: 2.1.0 Build 192)  -->
  <defs>
    <style>
      .st0, .st1 {
        fill: #f28b42;
      }

      .st0, .st2, .st3, .st4 {
        display: none;
      }

      .st5 {
        fill: #4f4f4f;
      }

      .st6 {
        fill: #8ac246;
      }

      .st7 {
        fill: none;
        stroke: #fff;
        stroke-width: 3px;
      }

      .st2, .st8, .st9, .st10, .st4 {
        isolation: isolate;
      }

      .st2, .st9, .st10, .st4 {
        opacity: .2;
      }

      .st11 {
        fill: #3f3f3f;
      }

      .st12, .st10, .st4 {
        fill: #fff;
      }

      .st13 {
        fill: #8e8e8e;
      }

      .st8 {
        opacity: .1;
      }

      .st14 {
        fill: #008f23;
      }

      .st15 {
        fill: #e4e4e4;
      }

      .st16 {
        fill: #28c264;
      }
    </style>
  </defs>
  <path class="st1" d="M50.3,64H13.8C6.2,64,0,57.8,0,50.3V13.7C0,6.2,6.2,0,13.7,0h36.5c7.5,0,13.7,6.2,13.7,13.7v36.6c0,7.5-6.2,13.7-13.7,13.7h0Z"/>
  <g class="st3">
    <path class="st9" d="M16.3,16.8l-9.5,11.4c-2,2.3-2,6.3,0,8.6l19.9,23.9c2,2.3,5.2,2.4,7.2,0l19.9-23.9c2-2.3,2-6.3,0-8.6l-9.5-11.4h-28.1Z"/>
    <path class="st5" d="M16.3,15.8l-9.5,11.4c-2,2.3-2,6.3,0,8.6l19.9,23.9c2,2.3,5.2,2.4,7.2,0l19.9-23.9c2-2.3,2-6.3,0-8.6l-9.5-11.4h-28.1Z"/>
    <path class="st9" d="M30.3,2.5c-1.4,0-2.8.5-3.9,1.6L4.9,25.6c-2.1,2.1-2.1,5.7,0,7.8l21.5,21.5c2.1,2.1,5.7,2.1,7.8,0l21.5-21.5c2.1-2.1,2.1-5.7,0-7.8L34.2,4.1c-1.1-1.1-2.5-1.6-3.9-1.6Z"/>
    <path class="st15" d="M30.3,1.5c-1.4,0-2.8.5-3.9,1.6L4.9,24.6c-2.1,2.1-2.1,5.7,0,7.8l21.5,21.5c2.1,2.1,5.7,2.1,7.8,0l21.5-21.5c2.1-2.1,2.1-5.7,0-7.8L34.2,3.1c-1.1-1.1-2.5-1.6-3.9-1.6Z"/>
    <path class="st14" d="M30,5.5l-.3.2v.4c-.1,0-.2.4-.2.4l-.2.6v-.2c-.1,0,0,.8,0,.8v.2s0,.3,0,.3v.2c.1,0,.2.3.2.3l.2.2h0c0,.1,0,.4,0,.4l-.2.2v.3c0,0-.1.3-.1.3v.2s.1.2.1.2l.2.2.2.2.2.2v.2s0,.2,0,.2l-.2.2h0c0,.1,0,.5,0,.5l.3.2.2.2v.4c.1,0-.2.4-.2.4v.3s0,.3,0,.3l.2.2v.4c.1,0,.3.1.3.1v.2c0,0,0,.3,0,.3l.2.3h.2s0,.2,0,.2v.2c0,0,0,.3,0,.3h.2c0,.1.1.4.1.4v.5c-.1,0,0,.4,0,.4h.2c0,0,0,.3,0,.3v.5s0,.2,0,.2v.3c0,0,.2,1.3.2,1.3l.5.3v5.8s-.6,6.2-.6,6.2l-.3,3.6-.5,4.4-.2.5-1.8-3-.6-4-.8-6.5-.9-6v5.5c0,0,.4,4.6.4,4.6l.6,4.3-3.9-6.2-5.6-8.4-1.3-1.8h-.1l.4,1.1.7,1.7,1,2.3,1.8,3.8,1.1,1.9,1.3,2.3,2.8,4.4,2.5,4,.4,3.5,1.2,8.1h0s-1.4-4.3-1.4-4.3l-2.9-7.1-2.3-4.8-3.1-5-1.6-2-1.2-1.2-2-1.9.8,1,1.4,1.4.8.9.5.9.6,1,1,1.8.9,1.7.9,2,1.1,2.7,2.2,5.7,2.3,6,1.4,4.2h0c.6.2,1.3.2,1.9,0l-.6-3.6v-1c0,0,.5-1.4.5-1.4l.4-1.3.5-1,1.5,2.6,1.5,2.7v.5c.1,0,2.6-2.5,2.6-2.5l.9-6.4,2.2-10.7,1.4-7.2,2.9-5.7.4-1.2.2-.7v-1.1c0,0-.1-.9-.1-.9l-.4-.8-.8-.8v.2s.4.4.4.4l.3.8v.6s-.4,1.3-.4,1.3l-.6,1.4-1.3,2.3.7-5.4.2-2.8h0c0,0-.2-.1-.2-.1l-1.5,9.7-.3.5-2.4,4.5-3.1,6.1-2.6,5.3-1.4,3.7-.8-1.4.5-1,2.8-5.4,2.9-4.7,1.2-2.3,1-1.9.3-.7v-.6c0,0,0-.5,0-.5h-.1v.4c0,0-.6,1.1-.6,1.1l-1.2,2-3.4,5.2-1.9,2.9-1.3,2.3.8-8.1.3-3.4v-7.3c.1,0,.1,0,.1,0v-.2c0,0,.2-.5.2-.5v-.4c.1,0,.3-.3.3-.3v-1.4c0,0,.2-.5.2-.5v-.7c-.1,0-.1-.5-.1-.5v-.3c.1,0,.3-.7.3-.7v-.4c.1,0-.1-.5-.1-.5l.2-.4-.4-.3-.2-.7.3-.5h-.5c0-.1-.2-.5-.2-.5v-.3l-.2-.3-.2-.2v-.3s0-.3,0-.3v-.9c-.1,0-.2-.5-.2-.5l-.3-.2v-.3c-.1,0-.5-.2-.5-.2l-.2-.4v-.4s0-.4,0-.4l-.2-.4h-.4c0,0-.4-.2-.4-.2l-.2-.3v-.3ZM40.7,29.1l-.4,1.6-1.8,7.1-.9,4-.9,4.9-1,3.2-.4-.8-2.3-4.2.8-1.8,2.5-5.2,1.3-2.8,1.8-3.8,1.2-2.2ZM43,34.3l-.3,1.9-.9,3.1-.9,2.3-1,3-.5,3-.3,1.6,1.7-1.7v-1.2c.1,0,.6-2.3.6-2.3l1.1-4.2.5-3.1v-2.3ZM15.9,36.4h0c0,0,0,0,0,0h0ZM16,36.4l1.2,2.2,1.1,2.5,1.6,3.7.7,1.6.8,2.5,4.3,4.3-.4-1.3-.8-1.4-1.6-3.1-2.3-4.1-1.6-2.7-1.5-2.3-.8-1.1-.7-.7ZM29.7,42.9l.7,1.2-.2,2.9h-.1c0,0-.5-4.1-.5-4.1ZM31,45l.4.7-.3.8-.2.2.2-1.7Z"/>
    <path class="st10" d="M30.3,1.5c-1.4,0-2.8.5-3.9,1.6L4.9,24.6c-1.2,1.2-1.7,2.8-1.5,4.4.1-1.2.6-2.4,1.5-3.4L26.4,4.1c1.1-1.1,2.5-1.6,3.9-1.6s2.8.5,3.9,1.6l21.5,21.5c.9.9,1.4,2.1,1.6,3.4.1-1.6-.4-3.2-1.6-4.4L34.2,3.1c-1.1-1.1-2.5-1.6-3.9-1.6Z"/>
  </g>
  <g class="st3">
    <ellipse class="st9" cx="22.9" cy="11.1" rx="3.8" ry="3.6"/>
    <ellipse class="st9" cx="33.2" cy="11.1" rx="3.8" ry="3.6"/>
    <ellipse class="st9" cx="42.6" cy="12.9" rx="2.8" ry="2.7"/>
    <ellipse class="st9" cx="11.1" cy="15.1" rx="5.2" ry="4.9"/>
    <path class="st9" d="M16.3,27.1c-2.9-7.1,10.3-9.8,10.3-9.8,0,0,13.2-2.7,16,0,5.6,5.3-2.8,4.4,0,12.4s10.3,4.4,10.3,12.4-2.8,15.1-10.3,15.1-13.2-2.7-13.2-5.3c0-8,2.8-11.5,2.8-16.9s-11.3,3.6-16-8Z"/>
    <ellipse class="st6" cx="22.9" cy="10.2" rx="3.8" ry="3.6"/>
    <ellipse class="st6" cx="33.2" cy="10.2" rx="3.8" ry="3.6"/>
    <ellipse class="st6" cx="42.6" cy="12" rx="2.8" ry="2.7"/>
    <ellipse class="st6" cx="11.1" cy="14.2" rx="5.2" ry="4.9"/>
    <path class="st6" d="M16.3,26.2c-2.9-7.1,10.3-9.8,10.3-9.8,0,0,13.2-2.7,16,0,5.6,5.3-2.8,4.4,0,12.4s10.3,4.4,10.3,12.4-2.8,15.1-10.3,15.1-13.2-2.7-13.2-5.3c0-8,2.8-11.5,2.8-16.9s-11.3,3.6-16-8Z"/>
    <path class="st10" d="M22.9,6.7c-2.1,0-3.8,1.6-3.8,3.6,0,.1,0,.3,0,.4.2-1.8,1.8-3.1,3.7-3.1,1.9,0,3.5,1.3,3.7,3.1,0-.1,0-.3,0-.4,0-2-1.7-3.6-3.8-3.6Z"/>
    <path class="st10" d="M33.2,6.7c-2.1,0-3.8,1.6-3.8,3.6,0,.1,0,.3,0,.4.2-1.8,1.8-3.1,3.7-3.1,1.9,0,3.5,1.3,3.7,3.1,0-.1,0-.3,0-.4,0-2-1.7-3.6-3.8-3.6Z"/>
    <path class="st10" d="M42.6,9.4c-1.6,0-2.8,1.2-2.8,2.7,0,.2,0,.3,0,.5.2-1.3,1.4-2.2,2.8-2.2,1.4,0,2.5.9,2.8,2.2,0-.1,0-.3,0-.4,0-1.5-1.3-2.7-2.8-2.7Z"/>
    <path class="st10" d="M11.1,9.4c-2.9,0-5.2,2.2-5.2,4.9,0,.1,0,.3,0,.4.2-2.5,2.5-4.4,5.1-4.4,2.7,0,4.9,1.9,5.1,4.5,0-.2,0-.3,0-.5,0-2.7-2.3-4.9-5.2-4.9h0Z"/>
    <path class="st10" d="M37.6,15.3c-4.8,0-11,1.2-11,1.2,0,0-11.2,2.3-10.7,8.2.6-5.3,10.7-7.3,10.7-7.3,0,0,13.2-2.7,16,0s1.8,2,1.9,2.8c.2-.9-.1-2-1.9-3.7-.9-.8-2.8-1.1-5-1.2ZM42,26.4c0,.9,0,2,.6,3.4,2.8,7.9,10.2,4.5,10.3,12.2,0-.2,0-.4,0-.7,0-8-7.5-4.4-10.3-12.4-.3-1-.5-1.8-.6-2.5ZM32.2,34.8c-.2,5-2.8,8.6-2.8,16.3s0,0,0,.1c.2-7.5,2.8-11,2.8-16.1s0-.2,0-.3Z"/>
  </g>
  <g class="st3">
    <path class="st2" d="M15.2,6.9h33.4c1.7,0,3.1,1.6,3.1,3.5v51.4c0,1.9-1.4,3.5-3.1,3.5H15.2c-1.7,0-3.1-1.6-3.1-3.5V10.4c0-1.9,1.4-3.5,3.1-3.5Z"/>
    <path class="st13" d="M15.2,5.6h33.4c1.7,0,3.1,1.6,3.1,3.5v51.4c0,1.9-1.4,3.5-3.1,3.5H15.2c-1.7,0-3.1-1.6-3.1-3.5V9c0-1.9,1.4-3.5,3.1-3.5Z"/>
    <path class="st9" d="M9.1,1.7l45-.3c1.7,0,9.9,9.4,9.9,11.3l.3,40.8c0,1.9-1.4,3.5-3.1,3.5H3.1c-1.7,0-3.1-1.6-3.1-3.5L.3,11C.3,9.1,7.4,1.7,9.1,1.7Z"/>
    <path class="st11" d="M-.3,48.6v3.5c0,1.9,1.4,3.5,3.1,3.5h58.1c1.7,0,3.1-1.5,3.1-3.5v-3.5H-.3Z"/>
    <path class="st16" d="M13.4,0C11.7,0-.2,1.5,0,11.6l.3,37.2,63.7-.2.2-34.7c0-1.9-3-13.9-13.6-13.9H13.4Z"/>
    <rect class="st9" x="-.3" y="48.6" width="64.3" height="1.4"/>
    <path class="st4" d="M2.8,0C1.1,0-.3,1.5-.3,3.5v1.4C-.3,2.9,1.1,1.4,2.8,1.4h58.1c1.7,0,3.1,1.5,3.1,3.5v-1.4c0-1.9-1.4-3.5-3.1-3.5H2.8Z"/>
    <g>
      <path class="st9" d="M17.4,16.7h20.3c1.6,0,1.6,1.8,1.6,1.8v21.4c0,1.8-1.6,1.8-1.6,1.8h-20.3s-1.6,0-1.6-1.8v-21.4s0-1.8,1.6-1.8h0ZM49.2,19.4v20.8l-9.9-11.1,9.9-9.7Z"/>
      <path class="st12" d="M17.4,15.3h20.3c1.6,0,1.6,1.8,1.6,1.8v21.4c0,1.8-1.6,1.8-1.6,1.8h-20.3s-1.6,0-1.6-1.8v-21.4s0-1.8,1.6-1.8h0ZM49.2,18v20.8l-9.9-11.1,9.9-9.7Z"/>
    </g>
  </g>
  <g>
    <path class="st2" d="M64,61.7V4.8c0-2-1.4-3.6-3.2-3.6H3.2C1.4,1.3,0,2.9,0,4.8v56.9c0,2,1.4,3.6,3.2,3.6h57.6c1.8,0,3.2-1.6,3.2-3.6Z"/>
    <path class="st0" d="M64,60.4V3.6c0-2-1.4-3.6-3.2-3.6H3.2C1.4,0,0,1.6,0,3.6v56.9c0,2,1.4,3.6,3.2,3.6h57.6c1.8,0,3.2-1.6,3.2-3.6Z"/>
    <path class="st7" d="M11.4,43.5l11.4-17.9,13.7,10.2,16-15.4"/>
    <path class="st8" d="M52.6,16.6c-2.5,0-4.6,2.3-4.6,5.1s2,5.1,4.6,5.1,4.6-2.3,4.6-5.1-2-5.1-4.6-5.1ZM22.8,21.8c-2.5,0-4.6,2.3-4.6,5.1s2,5.1,4.6,5.1,4.6-2.3,4.6-5.1-2-5.1-4.6-5.1ZM36.6,32c-2.5,0-4.6,2.3-4.6,5.1s2,5.1,4.6,5.1,4.6-2.3,4.6-5.1-2-5.1-4.6-5.1ZM11.4,39.7c-2.5,0-4.6,2.3-4.6,5.1s2,5.1,4.6,5.1,4.6-2.3,4.6-5.1-2-5.1-4.6-5.1Z"/>
    <g>
      <ellipse class="st11" cx="11.4" cy="43.5" rx="4.6" ry="5.1"/>
      <ellipse class="st11" cx="22.8" cy="25.6" rx="4.6" ry="5.1"/>
      <ellipse class="st11" cx="36.6" cy="35.8" rx="4.6" ry="5.1"/>
      <ellipse class="st11" cx="52.6" cy="20.5" rx="4.6" ry="5.1"/>
    </g>
    <path class="st4" d="M3.2,0C1.4,0,0,1.6,0,3.6v1.3C0,2.9,1.4,1.3,3.2,1.3h57.6c1.8,0,3.2,1.6,3.2,3.6v-1.3c0-2-1.4-3.6-3.2-3.6H3.2Z"/>
  </g>
</svg>