<?xml version="1.0" encoding="UTF-8"?>
<svg id="_图层_1" xmlns="http://www.w3.org/2000/svg" version="1.1" viewBox="0 0 64 64" width="48" height="48">
  <!-- Generator: Adobe Illustrator 29.0.1, SVG Export Plug-In . SVG Version: 2.1.0 Build 192)  -->
  <defs>
    <style>
      .st0, .st1, .st2, .st3, .st4, .st5 {
        isolation: isolate;
      }

      .st0, .st2, .st3 {
        opacity: .1;
      }

      .st0, .st6 {
        fill-rule: evenodd;
      }

      .st7, .st1, .st2, .st8, .st5 {
        display: none;
      }

      .st7, .st9 {
        fill: #8dc5ff;
      }

      .st1, .st4, .st5 {
        opacity: .2;
      }

      .st2, .st10, .st5 {
        fill: #fff;
      }

      .st11 {
        fill: none;
        stroke: #ffffe0;
        stroke-linecap: round;
        stroke-width: .7px;
      }

      .st12 {
        fill: #ff793f;
      }

      .st6 {
        fill: #777f23;
      }

      .st13 {
        fill: #a45390;
      }

      .st14 {
        fill: #6db832;
      }

      .st15 {
        fill: #c2352a;
      }

      .st16 {
        fill: #4987d7;
      }

      .st17 {
        fill: #ffd948;
      }
    </style>
  </defs>
  <path class="st9" d="M50.3,64H13.8c-7.6,0-13.8-6.2-13.8-13.7V13.7C0,6.2,6.2,0,13.7,0h36.5c7.5,0,13.7,6.2,13.7,13.7v36.6c0,7.5-6.2,13.7-13.7,13.7h0Z"/>
  <g class="st8">
    <path class="st1" d="M0,59.5v2.3c0,1.9,1.5,3.4,3.4,3.4h57.4c1.9,0,3.4-1.5,3.4-3.4v-2.3c0,1.9-1.5,3.4-3.4,3.4H3.4C1.5,63,0,61.4,0,59.5Z"/>
    <path class="st16" d="M3.2-.1C2.3-.1,1.5.3.9.8l31.2,31.2L63.3.8c-.6-.6-1.4-.9-2.3-.9H3.2h0Z"/>
    <path class="st13" d="M3.2,64.1c-.9,0-1.7-.4-2.3-.9l31.2-31.2,31.2,31.2c-.6.6-1.4.9-2.3.9H3.2h0Z"/>
    <path class="st14" d="M64.2,3.1c0-.9-.4-1.7-.9-2.3l-31.2,31.2,31.2,31.2c.6-.6.9-1.4.9-2.3V3.1h0Z"/>
    <path class="st15" d="M0,3.1C0,2.2.4,1.4.9.8l31.2,31.2L.9,63.2c-.6-.6-.9-1.4-.9-2.3V3.1h0Z"/>
    <path class="st4" d="M35,5.6c-1.4,0-2.5.2-3.6.5-1,.3-1.9.8-2.6,1.3-.7.6-1.3,1.2-1.8,2-.5.8-.8,1.3-1.1,2.1-.3.9-.5,1.8-.6,2.8-.1,1-.2,1.9-.2,2.9h0c0,1.5.2,2.9.5,4,.4,1.1.9,2,1.5,2.8.7.7,1.4,1.3,2.3,1.7.9.4,1.8.5,2.8.5s2-.2,2.8-.5c.8-.3,1.5-.8,2.1-1.4.6-.6,1-1.4,1.3-2.2.3-.9.5-1.9.5-3s-.1-2-.4-2.8c-.3-.8-.6-1.6-1.1-2.1-.5-.6-1.1-1-1.8-1.3-.7-.3-1.5-.4-2.4-.4s-1.1,0-1.5.2c-.4.1-.8.3-1.2.5-.4.2-.7.6-.9.9-.3.3-.5.6-.7.9h-.2c0-1,.2-1.8.4-2.6.2-.8.5-1.1,1-1.7.5-.6,1.1-1,1.9-1.3.8-.3,1.8-.5,3.1-.5s.8,0,1.2,0c.4,0,.8.1,1.1.2v-3.5c-.2,0-.4,0-.6,0-.2,0-.5,0-.7,0-.2,0-.5,0-.7,0s-.4,0-.6,0ZM32.4,16c.8,0,1.5.3,1.9.9.4.6.6,1.4.6,2.4s0,1.1-.2,1.6c-.1.4-.3.8-.5,1.1-.2.3-.5.5-.8.7-.3.1-.7.2-1,.2s-.9-.1-1.2-.4c-.3-.2-.6-.5-.9-.9-.2-.4-.4-.8-.5-1.3-.1-.5-.2-1-.2-1.4s0-.7.2-1c.1-.3.3-.6.6-.9.3-.3.6-.5.9-.7.4-.2.7-.3,1.2-.3ZM47,24v10.3l1,.9c.2,0,.4-.1.6-.2.2,0,.5-.1.8-.2.3,0,.5,0,.8-.1.3,0,.5,0,.8,0,1.3,0,2.3.3,3,.8.6.5,1,1.3,1,2.3s-.3,2-1,2.5c-.7.5-1.6.8-2.9.8s-.9,0-1.3,0c-.5,0-.9-.2-1.4-.3-.5-.1-.9-.3-1.3-.4-.4-.2-.8-.3-1.1-.5v3.7c.3.2.7.3,1.1.5.4.1.9.3,1.3.3.5,0,1,.2,1.5.2.5,0,1,0,1.5,0,1.3,0,2.4-.2,3.4-.5,1-.3,1.8-.8,2.5-1.4.7-.6,1.2-1.4,1.5-2.2.3-.9.5-1.9.5-3s-.2-1.9-.5-2.7c-.3-.8-.8-1.4-1.3-2-.6-.5-1.2-.9-2-1.2-.8-.3-1.6-.4-2.5-.4h0c-.6,0-1.1,0-1.5.1-.4,0-.7.1-1,.2l.3-4.1h6.5v-3.4h-10.3ZM11.5,24.1c-.8,0-1.6,0-2.2.3-.7.2-1.3.4-1.8.6-.6.3-1.1.6-1.5.9-.5.3-.9.5-1.3.9l2.4,2.8c.7-.7,1.5-1.2,2.1-1.6.7-.4,1.4-.5,2.1-.5s1.3.2,1.7.6c.4.4.6.9.6,1.6s0,1.2-.3,1.7c-.2.5-.5,1.1-.8,1.6-.4.5-.8,1.1-1.3,1.6-.5.6-1,1.2-1.7,1.8l-4.8,5.4v2.8h13.7v-3.4h-8.3v-.2l2.5-2.7c.7-.7,1.4-1.4,2-2.1.6-.7,1.2-1.4,1.7-2.1.5-.7.9-1.4,1.1-2.2.3-.7.4-1.5.4-2.3s-.1-1.7-.4-2.4c-.3-.7-.7-1.1-1.3-1.6-.6-.5-1.2-.9-2-1.2-.8-.3-1.7-.4-2.6-.4ZM25.2,42.5v3.2h9.4l-7.3,17.2h4.5l7.1-17.7v-2.7h-13.8Z"/>
    <path class="st10" d="M35,4.5c-1.4,0-2.5.2-3.6.5-1,.3-1.9.8-2.6,1.3-.7.6-1.3,1.2-1.8,2-.5.8-.8,1.3-1.1,2.1-.3.9-.5,1.8-.6,2.8-.1,1-.2,1.9-.2,2.9h0c0,1.5.2,2.9.5,4,.4,1.1.9,2,1.5,2.8.7.7,1.4,1.3,2.3,1.7.9.4,1.8.5,2.8.5s2-.2,2.8-.5c.8-.3,1.5-.8,2.1-1.4.6-.6,1-1.4,1.3-2.2.3-.9.5-1.9.5-3s-.1-2-.4-2.8c-.3-.8-.6-1.6-1.1-2.1-.5-.6-1.1-1-1.8-1.3-.7-.3-1.5-.4-2.4-.4s-1.1,0-1.5.2c-.4.1-.8.3-1.2.5-.4.2-.7.6-.9.9-.3.3-.5.6-.7.9h-.2c0-1,.2-1.8.4-2.6.2-.8.5-1.1,1-1.7.5-.6,1.1-1,1.9-1.3.8-.3,1.8-.5,3.1-.5s.8,0,1.2,0c.4,0,.8.1,1.1.2v-3.5c-.2,0-.4,0-.6,0-.2,0-.5,0-.7,0-.2,0-.5,0-.7,0s-.4,0-.6,0ZM32.4,14.9c.8,0,1.5.3,1.9.9.4.6.6,1.4.6,2.4s0,1.1-.2,1.6c-.1.4-.3.8-.5,1.1-.2.3-.5.5-.8.7-.3.1-.7.2-1,.2s-.9-.1-1.2-.4c-.3-.2-.6-.5-.9-.9-.2-.4-.4-.8-.5-1.3-.1-.5-.2-1-.2-1.4s0-.7.2-1c.1-.3.3-.6.6-.9.3-.3.6-.5.9-.7.4-.2.7-.3,1.2-.3ZM47,22.8v10.3l1,.9c.2,0,.4-.1.6-.2.2,0,.5-.1.8-.2.3,0,.5,0,.8-.1.3,0,.5,0,.8,0,1.3,0,2.3.3,3,.8.6.5,1,1.3,1,2.3s-.3,2-1,2.5c-.7.5-1.6.8-2.9.8s-.9,0-1.3,0c-.5,0-.9-.2-1.4-.3-.5-.1-.9-.3-1.3-.4-.4-.2-.8-.3-1.1-.5v3.7c.3.2.7.3,1.1.5.4.1.9.3,1.3.3.5,0,1,.2,1.5.2.5,0,1,0,1.5,0,1.3,0,2.4-.2,3.4-.5,1-.3,1.8-.8,2.5-1.4.7-.6,1.2-1.4,1.5-2.2.3-.9.5-1.9.5-3s-.2-1.9-.5-2.7c-.3-.8-.8-1.4-1.3-2-.6-.5-1.2-.9-2-1.2-.8-.3-1.6-.4-2.5-.4h0c-.6,0-1.1,0-1.5.1-.4,0-.7.1-1,.2l.3-4.1h6.5v-3.4h-10.3ZM11.5,22.9c-.8,0-1.6,0-2.2.3-.7.2-1.3.4-1.8.6-.6.3-1.1.6-1.5.9-.5.3-.9.5-1.3.9l2.4,2.8c.7-.7,1.5-1.2,2.1-1.6.7-.4,1.4-.5,2.1-.5s1.3.2,1.7.6c.4.4.6.9.6,1.6s0,1.2-.3,1.7c-.2.5-.5,1.1-.8,1.6-.4.5-.8,1.1-1.3,1.6-.5.6-1,1.2-1.7,1.8l-4.8,5.4v2.8h13.7v-3.4h-8.3v-.2l2.5-2.7c.7-.7,1.4-1.4,2-2.1.6-.7,1.2-1.4,1.7-2.1.5-.7.9-1.4,1.1-2.2.3-.7.4-1.5.4-2.3s-.1-1.7-.4-2.4c-.3-.7-.7-1.1-1.3-1.6-.6-.5-1.2-.9-2-1.2-.8-.3-1.7-.4-2.6-.4ZM25.2,41.4v3.2h9.4l-7.3,17.2h4.5l7.1-17.7v-2.7h-13.8Z"/>
    <path class="st2" d="M3.4-.1C1.5-.1,0,1.4,0,3.3v1.1C0,2.6,1.5,1,3.4,1h57.4c1.9,0,3.4,1.5,3.4,3.4v-1.1c0-1.9-1.5-3.4-3.4-3.4H3.4Z"/>
  </g>
  <g>
    <path class="st1" d="M4.4,1.3C2,1.3,0,3.9,0,7.2v52.5c0,3.2,1.9,5.8,4.4,5.8h55.3c2.4,0,4.4-2.6,4.4-5.8V7.2c0-3.2-1.9-5.8-4.4-5.8H4.4Z"/>
    <path class="st7" d="M4.4-.1C2-.1,0,2.5,0,5.7v26.2h64V5.7c0-3.2-1.9-5.8-4.4-5.8H4.4Z"/>
    <path class="st17" d="M13.8,64C6.8,64,0,59.3,0,49.8v-17.8h64l-.2,18.1c0,8.4-6.6,13.9-13.6,13.9H13.8Z"/>
    <path class="st0" d="M23.3,10.1c-5.6.1-10.4,6.8-7.7,21.1-4.9,1.3-8.6,8.5-5.7,22.9,6.5-8.8,8-3,13.1-4.4,1.3,3.5,4.1,7,9,9.9.7-2.6,3.7-6.5,5.7-10.4,5.7,3.4,8.4-2,14,8.7,5.8-12.3,3.6-20.3-1.2-23.4,4.3-16.4-8.3-23-17.5-17.1-2.4-4.9-6.3-7.5-9.9-7.4ZM22.9,27.4c1.5,0,2.8.7,4.5.7,6.4,7,9.7,4.9,13.4,6.1-1.7.8-3.3,2.1-4.8,3.9-1.3-.7-3.1-1.2-5.3-1.6-1.8-.3-3.4,0-4.7.9-2.4-4.4-5.9-6.6-9.2-6.4,2.7-3,4.5-3.7,6.1-3.6Z"/>
    <path class="st6" d="M23.3,8.6c-5.6.1-10.4,6.8-7.7,21.1-4.9,1.3-8.6,8.5-5.7,22.9,6.5-8.8,8-3,13.1-4.4,1.3,3.5,4.1,7,9,9.9.7-2.6,3.7-6.5,5.7-10.4,5.7,3.4,8.4-2,14,8.7,5.8-12.3,3.6-20.3-1.2-23.4,4.3-16.4-8.3-23-17.5-17.1-2.4-4.9-6.3-7.5-9.9-7.4ZM22.9,25.9c1.5,0,2.8.7,4.5.7,6.4,7,9.7,4.9,13.4,6.1-1.7.8-3.3,2.1-4.8,3.9-1.3-.7-3.1-1.2-5.3-1.6-1.8-.3-3.4,0-4.7.9-2.4-4.4-5.9-6.6-9.2-6.4,2.7-3,4.5-3.7,6.1-3.6Z"/>
    <path class="st3" d="M40.6,59.5c-2.1,1.8-7.4-11.4-11.2-13.9-4.1,1.3-9.1,11.9-11.1,10-2.3-2.2.5-16,1.9-19,1.7-3.9-10-4.2-9-7.5,1-3.2,10.6-6.2,13.7-6.8,1.1-3.8,4-9.9,7.9-9.2,3.9.7,6.1,8.1,6.9,11.9,4.1.9,10.7,4.5,11.2,8,.5,3.4-13.4,2.8-11.7,6.8,1.3,2.9,3,17.8,1.4,19.7Z"/>
    <path class="st12" d="M40.6,58c-2.1,1.8-7.4-11.4-11.2-13.9-4.1,1.3-9.1,11.9-11.1,10-2.3-2.2.5-16,1.9-19,1.7-3.9-10-4.2-9-7.5,1-3.2,10.6-6.2,13.7-6.8,1.1-3.8,4-9.9,7.9-9.2,3.9.7,6.1,8.1,6.9,11.9,4.1.9,10.7,4.5,11.2,8,.5,3.4-13.4,2.8-11.7,6.8,1.3,2.9,3,17.8,1.4,19.7Z"/>
    <ellipse class="st4" cx="31" cy="30.5" rx="7.3" ry="7.8" transform="translate(-6.2 53) rotate(-75.8)"/>
    <path class="st11" d="M32.1,32.1l3-8.4"/>
    <path class="st11" d="M27.7,32.1l-2.9-6.4"/>
    <path class="st11" d="M30.2,28.4l.3-11.6"/>
    <path class="st5" d="M4.4-.1C2-.1,0,2.5,0,5.7v1.5C0,3.9,2,1.3,4.4,1.3h55.3c2.4,0,4.4,2.6,4.4,5.8v-1.5c0-3.2-1.9-5.8-4.4-5.8H4.4Z"/>
  </g>
</svg>