<?xml version="1.0" encoding="UTF-8"?>
<svg id="_图层_1" data-name="图层_1" xmlns="http://www.w3.org/2000/svg" version="1.1" viewBox="0 0 64 64" width="48" height="48">
  <!-- Generator: Adobe Illustrator 29.0.1, SVG Export Plug-In . SVG Version: 2.1.0 Build 192)  -->
  <defs>
    <style>
      .st0 {
        fill: #b31f13;
      }

      .st1 {
        fill: #9b7528;
      }

      .st2 {
        fill: #76ae17;
      }

      .st3 {
        opacity: .3;
      }

      .st4, .st5 {
        isolation: isolate;
        opacity: .2;
      }

      .st5 {
        fill: #fff;
      }

      .st6 {
        fill: #e4e4e4;
      }
    </style>
  </defs>
  <rect class="st0" width="64" height="64" rx="13.7" ry="13.7"/>
  <path class="st4" d="M39.7,22.7c-1.7-1.2-2.6-3.7-3.8-4.7-.7-.6-.7-1.1.2-1,.9,0,2.1.3,3.6,1.1,0,0-.5-5.3-2.9-8-.6-.7-.5-1,.4-.7,1.9.6,4.6,2.4,6.1,5,0,0,3.5-5.2,8.4-5.1.9,0,1,.6.2,1.1-1.8,1.3-4.7,3.9-4.8,7.7,0,0,1.1-1.2,3.3-1.1,1.4,0,3.1,1.1,4.9,2.7.7.6.5,1.1-.5,1.2-2.1,0-5.6.4-6.9,2.3,0,0,2-.3,2.4.5.3.8,0,2.1-1.2,2.4-3.1.6-6.5-1.5-9.2-3.3h0Z"/>
  <path class="st4" d="M51.8,40.5c-2.3,8.5-9.6,13.9-16.3,12.1-6.7-1.8-10.3-10.1-8-18.6,0,0,0,0,0,0,2.3-8.5,9.6-13.9,16.3-12.1,0,0,0,0,0,0,6.7,1.8,10.3,10.1,8,18.6Z"/>
  <path class="st4" d="M35.1,17.6H9.9c0,0,11.5,20.1,11.5,20.1v12.9h-3.9v2.3h10.1v-2.3h-3.9v-12.8l11.3-20.2Z"/>
  <path class="st6" d="M35.1,16.9H9.9c0,0,11.5,20.1,11.5,20.1v12.9h-3.9v2.3h10.1v-2.3h-3.9v-12.8l11.3-20.2Z"/>
  <path class="st0" d="M13.8,19.2c.6,1.1,5.2,9.1,6.3,10.8.6,1,1.3,1.8,1.8,2.1.4.2.9.2,1.3,0,.4-.2,1.3-1.2,1.9-2.2,1-1.6,5.7-9.6,6.2-10.7H13.8Z"/>
  <path class="st2" d="M39.7,21.9c-1.7-1.2-2.6-3.7-3.8-4.7-.7-.6-.7-1.1.2-1,.9,0,2.1.3,3.6,1.1,0,0-.5-5.3-2.9-8-.6-.7-.5-1,.4-.7,1.9.6,4.6,2.4,6.1,5,0,0,3.5-5.2,8.4-5.1.9,0,1,.6.2,1.1-1.8,1.3-4.7,3.9-4.8,7.7,0,0,1.1-1.2,3.3-1.1,1.4,0,3.1,1.1,4.9,2.7.7.6.5,1.1-.5,1.2-2.1,0-5.6.4-6.9,2.3,0,0,2-.3,2.4.5.3.8,0,2.1-1.2,2.4-3.1.6-6.5-1.5-9.2-3.3h0Z"/>
  <path class="st1" d="M51.8,39.7c-2.3,8.5-9.6,13.9-16.3,12.1-6.7-1.8-10.3-10.1-8-18.6,0,0,0,0,0,0,2.3-8.5,9.6-13.9,16.3-12.1,0,0,0,0,0,0,6.7,1.8,10.3,10.1,8,18.6Z"/>
  <g class="st3">
    <path d="M44.6,21.3c-.2.3-.3.8,0,1.2l1.1,2c.3.5,1,.7,1.6.4l1.5-.9c-1.2-1.3-2.6-2.2-4.1-2.7h0ZM42,20.7c-1.5-.1-3.1.1-4.6.7l.5.9c.3.5,1,.7,1.6.4l2-1.1c.3-.2.5-.5.5-.9h0ZM42.8,22.5c-.3,0-.6,0-.9.1l-2,1.1c-.5.3-.7,1-.4,1.6l1.1,2c.3.5,1,.7,1.6.4l2-1.1c.5-.3.7-1,.4-1.6l-1.1-2c-.2-.3-.4-.5-.7-.5h0ZM49.5,24.9l-1.7,1c-.5.3-.7,1-.4,1.6l1.1,2c.3.5,1,.7,1.6.4l1.5-.9c-.5-1.5-1.2-2.9-2.1-4h0ZM36.3,21.9c-1.3.6-2.6,1.5-3.7,2.7l.4.7c.3.5,1,.7,1.6.4l2-1.1c.5-.3.7-1,.4-1.6l-.6-1h0ZM37.9,25.4c-.3,0-.6,0-.9.1l-2,1.1c-.5.3-.7,1-.4,1.6l1.1,2c.3.5,1,.7,1.6.4l2-1.1c.5-.3.7-1,.4-1.6l-1.1-2c-.2-.3-.4-.5-.7-.5h0ZM45.7,27.4c-.3,0-.6,0-.9.1l-2,1.1c-.5.3-.7,1-.4,1.6l1.1,2c.3.5,1,.7,1.6.4l2-1.1c.5-.3.7-1,.4-1.6l-1.1-2c-.2-.3-.4-.5-.7-.5h0ZM51.9,30l-1.3.7c-.5.3-.7,1-.4,1.6l1.1,2c.2.4.7.6,1.1.6,0-1.7-.2-3.3-.6-4.8h0ZM31.7,25.4c-.8.9-1.6,2-2.2,3.1,0,0,0,0,0,0l2-1.1c.5-.3.7-1,.4-1.6l-.2-.4h0ZM32.9,28.2c-.3,0-.6,0-.9.1l-2,1.1c-.5.3-.7,1-.4,1.6l1.1,2c.3.5,1,.7,1.6.4l2-1.1c.5-.3.7-1,.4-1.6l-1.1-2c-.2-.3-.4-.5-.7-.5h0ZM40.7,30.3c-.3,0-.6,0-.9.1l-2,1.1c-.5.3-.7,1-.4,1.6l1.1,2c.3.5,1,.7,1.6.4l2-1.1c.5-.3.7-1,.4-1.6l-1.1-2c-.2-.3-.4-.5-.7-.5h0ZM48.6,32.4c-.3,0-.6,0-.9.1l-2,1.1c-.5.3-.7,1-.4,1.6l1.1,2c.3.5,1,.7,1.6.4l2-1.1c.5-.3.7-1,.4-1.6l-1.1-2c-.2-.3-.4-.5-.7-.5h0ZM35.8,33.1c-.3,0-.6,0-.9.1l-2,1.1c-.5.3-.7,1-.4,1.6l1.1,2c.3.5,1,.7,1.6.4l2-1.1c.5-.3.7-1,.4-1.6l-1.1-2c-.2-.3-.4-.5-.7-.5h0ZM43.6,35.2c-.3,0-.6,0-.9.1l-2,1.1c-.5.3-.7,1-.4,1.6l1.1,2c.3.5,1,.7,1.6.4l2-1.1c.5-.3.7-1,.4-1.6l-1.1-2c-.2-.3-.4-.5-.7-.5h0ZM51.4,37.3c-.3,0-.6,0-.9.1l-2,1.1c-.5.3-.7,1-.4,1.6l1.1,2c.3.5,1,.7,1.5.4.4-.9.7-1.9,1-2.8.1-.6.3-1.1.4-1.7h0c-.2-.4-.4-.6-.7-.7h0ZM28.2,31.2c-.3.7-.5,1.3-.7,2-.3,1.1-.5,2.1-.6,3.2.2,0,.3,0,.5-.1l2-1.1c.5-.3.7-1,.4-1.6l-1.1-2c-.1-.2-.3-.3-.5-.4h0ZM30.8,36c-.3,0-.6,0-.9.1l-2,1.1c-.5.3-.7,1-.4,1.6l1.1,2c.3.5,1,.7,1.6.4l2-1.1c.5-.3.7-1,.4-1.6l-1.1-2c-.2-.3-.4-.5-.7-.5h0ZM38.7,38.1c-.3,0-.6,0-.9.1l-2,1.1c-.5.3-.7,1-.4,1.6l1.1,2c.3.5,1,.7,1.6.4l2-1.1c.5-.3.7-1,.4-1.6l-1.1-2c-.2-.3-.4-.5-.7-.5h0ZM46.5,40.2c-.3,0-.6,0-.9.1l-2,1.1c-.5.3-.7,1-.4,1.6l1.1,2c.3.5,1,.7,1.6.4l2-1.1c.5-.3.7-1,.4-1.6l-1.1-2c-.2-.3-.4-.5-.7-.5h0ZM33.7,40.9c-.3,0-.6,0-.9.1l-2,1.1c-.5.3-.7,1-.4,1.6l1.1,2c.3.5,1,.7,1.6.4l2-1.1c.5-.3.7-1,.4-1.6l-1.1-2c-.2-.3-.4-.5-.7-.5h0ZM41.5,43c-.3,0-.6,0-.9.1l-2,1.1c-.5.3-.7,1-.4,1.6l1.1,2c.3.5,1,.7,1.6.4l2-1.1c.5-.3.7-1,.4-1.6l-1.1-2c-.2-.3-.4-.5-.7-.5h0ZM49.3,45.1c-.3,0-.6,0-.9.1l-2,1.1c-.5.3-.7,1-.4,1.6l.4.8c1.1-1,2.1-2.2,2.9-3.5,0,0,0,0-.1,0h0ZM26.9,40c0,1,.2,1.9.5,2.8.5-.3.6-1,.3-1.5l-.8-1.4h0ZM28.8,43.8c-.3,0-.6,0-.9.1h-.1c.5,1.6,1.2,2.9,2.1,4.1l.3-.2c.5-.3.7-1,.4-1.6l-1.1-2c-.2-.3-.4-.5-.7-.5h0ZM36.6,45.9c-.3,0-.6,0-.9.1l-2,1.1c-.5.3-.7,1-.4,1.6l1.1,2c.3.5,1,.7,1.6.4l2-1.1c.5-.3.7-1,.4-1.6l-1.1-2c-.2-.3-.4-.5-.7-.5h0ZM44.4,47.9c-.3,0-.6,0-.9.1l-2,1.1c-.5.3-.7,1-.4,1.6l.5.9c1.4-.5,2.8-1.2,4-2.2l-.5-.9c-.2-.3-.4-.5-.7-.5h0ZM31.6,48.7c-.3,0-.6,0-.9.1h0c.8.9,1.7,1.6,2.6,2.1l-1-1.7c-.2-.3-.4-.5-.7-.5h0ZM39.4,50.8c-.3,0-.6,0-.9.1l-2,1.1s0,0,0,0c1.3.2,2.6.1,3.9-.1l-.3-.6c-.2-.3-.4-.5-.7-.5h0Z"/>
  </g>
  <path class="st5" d="M35.1,16.9H9.9c0,0,.4.8.4.8h24.3c0,0,.4-.8.4-.8ZM17.5,49.9v.8h3.9v-.8h-3.9ZM23.8,49.9v.8h3.9v-.8h-3.9Z"/>
  <path class="st5" d="M51.7,8.4c-4.9-.1-8.4,5.1-8.4,5.1-1.5-2.6-4.1-4.4-6.1-5-.9-.3-1,0-.4.7,0,0,0,0,0,0,.1,0,.2,0,.3,0,1.9.6,4.6,2.4,6.1,5,0,0,3.5-5.2,8.4-5.1.2,0,.4,0,.5.1.4-.4.3-.8-.5-.9ZM36.1,16.2c-.8,0-.9.3-.4.8.1,0,.3,0,.4,0,.9,0,2.1.3,3.6,1.1,0,0,0-.3-.1-.8-1.4-.7-2.6-1-3.4-1ZM50.4,16.2c-2-.1-3.1.9-3.2,1,0,.3,0,.5,0,.8,0,0,1.1-1.2,3.3-1.1,1.4,0,3.1,1.1,4.9,2.7,0,0,.2.1.2.2.3-.2.2-.6-.2-1-1.8-1.5-3.5-2.6-4.9-2.7ZM48.9,22.3c0,0-.1,0-.2,0-.3.2-.6.5-.9.8,0,0,2-.3,2.4.5,0,0,0,.2,0,.3,0-.4,0-.7,0-1-.2-.4-.8-.5-1.3-.5Z"/>
</svg>
