<?xml version="1.0" encoding="UTF-8"?>
<svg id="_图层_1" xmlns="http://www.w3.org/2000/svg" version="1.1" viewBox="0 0 64 64" width="48" height="48">
  <!-- Generator: Adobe Illustrator 29.0.1, SVG Export Plug-In . SVG Version: 2.1.0 Build 192)  -->
  <defs>
    <style>
      .st0 {
        fill: #d761cf;
      }

      .st1 {
        fill: #3074c3;
      }

      .st2 {
        fill: #d86b18;
      }

      .st2, .st3, .st4, .st5, .st6, .st7, .st8 {
        display: none;
      }

      .st3, .st4, .st9, .st10, .st11, .st12, .st8, .st13 {
        isolation: isolate;
      }

      .st3, .st9, .st14, .st12, .st8 {
        opacity: .2;
      }

      .st4, .st15, .st8, .st13 {
        fill: #fff;
      }

      .st4, .st11, .st13 {
        opacity: .1;
      }

      .st16 {
        fill: #72acef;
      }

      .st5 {
        fill: #00c1e2;
      }

      .st6 {
        fill: #00695c;
      }

      .st17 {
        fill: #4c95eb;
      }

      .st9 {
        stroke: #000;
      }

      .st9, .st18 {
        fill: none;
        stroke-linecap: round;
        stroke-linejoin: round;
        stroke-width: 3px;
      }

      .st19 {
        fill: #df82d9;
      }

      .st18 {
        stroke: #fff;
      }

      .st10 {
        fill-rule: evenodd;
        opacity: .6;
      }

      .st20 {
        fill: #3a8ae9;
      }

      .st21 {
        fill: #ecba9e;
      }

      .st22 {
        fill: #1b1b1b;
      }

      .st23 {
        fill: #b5b5b5;
      }

      .st24 {
        fill: #7cb342;
      }
    </style>
  </defs>
  <path class="st15" d="M50.3,64H13.8C6.2,64,0,57.8,0,50.3V13.7C0,6.2,6.2,0,13.7,0h36.5c7.5,0,13.7,6.2,13.7,13.7v36.6c0,7.5-6.2,13.7-13.7,13.7h0Z"/>
  <g class="st7">
    <path class="st3" d="M3.3,1.1h57.5c1.8,0,3.2,1.4,3.2,3.2v57.6c0,1.8-1.4,3.2-3.2,3.2H3.3c-1.8,0-3.2-1.4-3.2-3.2V4.3C0,2.5,1.5,1.1,3.3,1.1Z"/>
    <rect class="st6" x="0" width="63.9" height="64" rx="3.2" ry="3.2"/>
    <path class="st12" d="M16.6,13.2c-1.8,0-3.3,1.5-3.3,3.3v33.1c0,1.8,1.5,3.3,3.3,3.3s3.3-1.5,3.3-3.3V16.5c0-1.8-1.5-3.3-3.3-3.3Z"/>
    <path class="st24" d="M13.3,24.8v24.8c0,1.8,1.5,3.3,3.3,3.3s3.3-1.5,3.3-3.3v-24.8h-6.6Z"/>
    <path class="st12" d="M47.4,13.2c-1.8,0-3.3,1.5-3.3,3.3v33.1c0,1.8,1.5,3.3,3.3,3.3s3.3-1.5,3.3-3.3V16.5c0-1.8-1.5-3.3-3.3-3.3Z"/>
    <path class="st24" d="M44.1,24.8v24.8c0,1.8,1.5,3.3,3.3,3.3s3.3-1.5,3.3-3.3v-24.8h-6.6Z"/>
    <path class="st12" d="M32,13.2c-1.8,0-3.3,1.5-3.3,3.3v33.1c0,1.8,1.5,3.3,3.3,3.3s3.3-1.5,3.3-3.3V16.5c0-1.8-1.5-3.3-3.3-3.3Z"/>
    <path class="st24" d="M28.7,38.1v11.6c0,1.8,1.5,3.3,3.3,3.3s3.3-1.5,3.3-3.3v-11.6h-6.6Z"/>
    <path class="st11" d="M12,23.2h9.2c1.7,0,3.1,1.4,3.1,3.1v2.6c0,1.7-1.4,3.1-3.1,3.1h-9.2c-1.7,0-3.1-1.4-3.1-3.1v-2.6c0-1.7,1.4-3.1,3.1-3.1Z"/>
    <path class="st23" d="M12,22.1h9.2c1.7,0,3.1,1.4,3.1,3.1v2.6c0,1.7-1.4,3.1-3.1,3.1h-9.2c-1.7,0-3.1-1.4-3.1-3.1v-2.6c0-1.7,1.4-3.1,3.1-3.1Z"/>
    <path class="st11" d="M27.4,36.4h9.2c1.7,0,3.1,1.4,3.1,3.1v2.6c0,1.7-1.4,3.1-3.1,3.1h-9.2c-1.7,0-3.1-1.4-3.1-3.1v-2.6c0-1.7,1.4-3.1,3.1-3.1Z"/>
    <path class="st23" d="M27.4,35.3h9.2c1.7,0,3.1,1.4,3.1,3.1v2.6c0,1.7-1.4,3.1-3.1,3.1h-9.2c-1.7,0-3.1-1.4-3.1-3.1v-2.6c0-1.7,1.4-3.1,3.1-3.1Z"/>
    <path class="st11" d="M42.8,23.2h9.2c1.7,0,3.1,1.4,3.1,3.1v2.6c0,1.7-1.4,3.1-3.1,3.1h-9.2c-1.7,0-3.1-1.4-3.1-3.1v-2.6c0-1.7,1.4-3.1,3.1-3.1Z"/>
    <path class="st23" d="M42.8,22.1h9.2c1.7,0,3.1,1.4,3.1,3.1v2.6c0,1.7-1.4,3.1-3.1,3.1h-9.2c-1.7,0-3.1-1.4-3.1-3.1v-2.6c0-1.7,1.4-3.1,3.1-3.1Z"/>
    <path class="st4" d="M3.3,0C1.5,0,0,1.4,0,3.2v1.1C0,2.5,1.5,1.1,3.3,1.1h57.5c1.8,0,3.2,1.4,3.2,3.2v-1.1c0-1.8-1.4-3.2-3.2-3.2H3.3Z"/>
  </g>
  <g class="st7">
    <ellipse class="st3" cx="31.8" cy="33.2" rx="28.8" ry="32"/>
    <ellipse class="st5" cx="31.8" cy="32" rx="28.8" ry="32"/>
    <path class="st9" d="M1.5,34.9h5.9s.8,3.4,1.6,3.4.8-6.9,2.2-6.9c1.5,0,.5,8.3,2.7,8,2.2-.3,1.7-28.6,4-28.6s1.6,44.6,4.4,44.6c2.8,0,.8-40,3.3-40s1.9,35.5,4.6,35.5c2.7,0,1.3-30.9,3.5-30.9s.9,27.4,4,27.4c3.1,0,1.2-22.9,3.9-22.9s1.1,18.3,3.8,18.3c2.7,0,1.1-12.4,2.9-12.6,1.8-.1,1.3,7.9,3.1,8,1.8,0,1.5-5.6,2.3-5.6s1.4,4.5,2.3,4.5,2.3-2.3,2.3-2.3h3.8"/>
    <path class="st18" d="M1.5,33.7h5.9s.8,3.4,1.6,3.4.8-6.9,2.2-6.9c1.5,0,.5,8.3,2.7,8,2.2-.3,1.7-28.6,4-28.6s1.6,44.6,4.4,44.6c2.8,0,.8-40,3.3-40s1.9,35.5,4.6,35.5c2.7,0,1.3-30.9,3.5-30.9s.9,27.4,4,27.4c3.1,0,1.2-22.9,3.9-22.9s1.1,18.3,3.8,18.3c2.7,0,1.1-12.4,2.9-12.6,1.8-.1,1.3,7.9,3.1,8,1.8,0,1.5-5.6,2.3-5.6s1.4,4.5,2.3,4.5,2.3-2.3,2.3-2.3h3.8"/>
    <path class="st8" d="M31.8,0C15.9,0,3,14.3,3,32c0,.2,0,.4,0,.7C3.3,15.2,16.1,1.1,31.8,1.1c15.7,0,28.5,13.9,28.8,31.3,0-.2,0-.3,0-.5C60.6,14.3,47.8,0,31.8,0Z"/>
  </g>
  <g class="st7">
    <path class="st3" d="M3.2,1.1h57.5c1.8,0,3.2,1.4,3.2,3.2v57.3c0,1.8-1.4,3.2-3.2,3.2H3.2c-1.8,0-3.2-1.4-3.2-3.2V4.3C0,2.6,1.4,1.1,3.2,1.1Z"/>
    <path class="st2" d="M3.2,0h57.5c1.8,0,3.2,1.4,3.2,3.2v57.3c0,1.8-1.4,3.2-3.2,3.2H3.2c-1.8,0-3.2-1.4-3.2-3.2V3.2C0,1.4,1.4,0,3.2,0Z"/>
    <path class="st12" d="M28.3,5c-.2,2.3-1.7,4.2-.4,5.8,1.9-1.3,2-2.5,1-4.5l-.6-1.3ZM26.5,10.5c-5,15.8,4.4,22.1,8.9,26v-13.2s0,0,0,0c0-.4,0-1.5-.2-3-.2-1.6-3-7-3-7,0,0-2.2,5.1-1.1,7.4-1-.7-1.9-1.5-2.4-2.2-1.6-2.3-2.2-8-2.2-8h0ZM20.5,17.1l-1.5,2.5c-1.4,2.3-.7,3.6.6,6.1l.9-8.5ZM18.7,26.2s-1.5,2.1-1.5,4.5c-.3,11.5,14.5,22,16.7,28.4.7,2.1,1.6,5.5,1.6,5.5v-23.8c-2.8-5.4-9.3-4.9-14.2-10.1-1.6-1.7-2.5-4.5-2.5-4.5Z"/>
    <rect class="st15" x="36.5" y="0" width="3.4" height="63.7"/>
    <path class="st21" d="M18.7,25.1s.9,2.8,2.5,4.5c4.9,5.2,11.4,4.7,14.2,10.1v23.8s-.8-3.3-1.6-5.5c-2.2-6.5-17-17-16.7-28.4,0-2.4,1.5-4.5,1.5-4.5Z"/>
    <path class="st21" d="M26.5,9.4s.6,5.7,2.2,8c1.5,2.2,6.6,4.8,6.6,4.8v13.2c-4.5-3.9-13.8-10.2-8.9-26Z"/>
    <path class="st21" d="M32.2,12.2s2.7,5.4,3,7c.2,1.8.2,3.3.2,3.3,0,0-3.6-1.4-4.3-2.9-1.1-2.3,1.1-7.4,1.1-7.4Z"/>
    <path class="st21" d="M19,18.4l1.5-2.5-.9,8.5c-1.4-2.5-2-3.8-.6-6.1Z"/>
    <path class="st21" d="M29,5.2l-.6-1.3c-.2,2.3-1.7,4.2-.4,5.8,1.9-1.3,2-2.5,1-4.5Z"/>
    <path class="st4" d="M3.2,0C1.4,0,0,1.4,0,3.2v1.1C0,2.5,1.4,1.1,3.2,1.1h57.5c1.8,0,3.2,1.4,3.2,3.2v-1.1C63.9,1.4,62.5,0,60.7,0H3.2Z"/>
  </g>
  <g>
    <path class="st12" d="M19.9,48.5c0,.3,0,.7,0,1,0,3.9,3.1,7,7,7s7-3.1,7-7,0-.7,0-1c-.5,3.4-3.4,6-6.9,6s-6.4-2.6-6.9-6Z"/>
    <path class="st12" d="M37.9,46.5c0,.3,0,.7,0,1,0,3.9,3.1,7,7,7s7-3.1,7-7,0-.7,0-1c-.5,3.4-3.4,6-6.9,6s-6.4-2.6-6.9-6Z"/>
    <path class="st19" d="M51.8,46.5h0c0-3.9-3.1-7-7-7h0c-3.9,0-7,3.1-7,7h0c0,3.9,3.1,7,7,7h0c3.9,0,7-3.1,7-7Z"/>
    <path class="st12" d="M20,35.7l-12.8.8-1.4,2.1,15.3-.9-1.1-1.9Z"/>
    <path class="st16" d="M5.8,37.5l8.4-12.8,6.8,11.9-15.3.9Z"/>
    <path class="st13" d="M14.2,24.8l-8.4,12.8h.7s7.7-11.8,7.7-11.8l6.3,10.9h.6s-6.8-11.9-6.8-11.9Z"/>
    <path class="st12" d="M5.8,26.5l-2,1,14,7v-2l-12-6Z"/>
    <path class="st17" d="M3.8,26.5l14-7v14l-14-7Z"/>
    <path class="st13" d="M17.8,19.5l-14,7,1,.5,13-6.5v-1Z"/>
    <path class="st12" d="M20.8,15.3h-.6c0,.1-3,11.2-3,11.2l-9.6-8.5-1.8.4,11.4,10.2,3.5-13.2Z"/>
    <path class="st20" d="M5.8,17.4l15-3.1-3.5,13.2-11.4-10.2Z"/>
    <path class="st13" d="M20.8,14.3l-15,3.1.9.8,13.8-2.8.3-1.1Z"/>
    <path class="st12" d="M11.8,9.8l8.4,12.8c8.5-13.6,7.2-14.8,0-2l-7.1-10.7h-1.4Z"/>
    <path class="st1" d="M11.8,8.8l15.3.9-6.8,11.9-8.4-12.8Z"/>
    <path class="st13" d="M11.8,8.8l.7,1,14,.8.6-1-15.3-.9Z"/>
    <path class="st12" d="M15.9,27.5c0,.3,0,.7,0,1,0,11.1,8.9,20,20,20s20-8.9,20-20,0-.7,0-1c-.5,10.6-9.2,19-20,19s-19.4-8.4-19.9-19Z"/>
    <path class="st0" d="M55.8,27.5h0c0-11-9-20-20-20h0c-11,0-20,9-20,20h0c0,11,9,20,20,20h0c11,0,20-9,20-20Z"/>
    <g class="st14">
      <ellipse cx="41.1" cy="26.2" rx="5.3" ry="6.4"/>
      <ellipse cx="46.5" cy="24.9" rx="5.3" ry="6.4"/>
    </g>
    <path class="st19" d="M33.8,48.5h0c0-3.9-3.1-7-7-7h0c-3.9,0-7,3.1-7,7h0c0,3.9,3.1,7,7,7h0c3.9,0,7-3.1,7-7Z"/>
    <g>
      <ellipse class="st15" cx="41.1" cy="25.2" rx="5.3" ry="6.4"/>
      <ellipse class="st15" cx="46.5" cy="23.9" rx="5.3" ry="6.4"/>
    </g>
    <ellipse class="st22" cx="43.3" cy="25.5" rx="1.5" ry="2"/>
    <path class="st10" d="M48.4,35.5c-2.2.5-3.5,2.3-5.7,2.8-1.6.3-3.6-1-5-.3-.8.4-2.9,1.5-1.2,2.1,0,0,1,.4,2.3.8,1.3.4,2.7.8,4.3.5,1.8-.3,3.2-1.3,4.4-2.2,1.2-.9,2.1-1.7,2.1-1.7.8-.8.2-2-1-2h0Z"/>
    <ellipse class="st22" cx="49.3" cy="23.5" rx="1.5" ry="2"/>
    <path class="st13" d="M35.8,7.5c-11.1,0-20,8.9-20,20s0,.2,0,.3c.4-10.8,9.1-19.3,20-19.3s19.6,8.6,20,19.3c0-.1,0-.2,0-.3,0-11.1-8.9-20-20-20Z"/>
    <path class="st13" d="M26.8,41.5c-3.9,0-7,3.1-7,7s0,.7,0,1c.5-3.4,3.4-6,6.9-6s6.4,2.6,6.9,6c0-.3,0-.7,0-1,0-3.9-3.1-7-7-7Z"/>
  </g>
</svg>