<?xml version="1.0" encoding="UTF-8"?>
<svg id="_图层_1" xmlns="http://www.w3.org/2000/svg" version="1.1" viewBox="0 0 64 64" width="48" height="48">
  <!-- Generator: Adobe Illustrator 29.0.1, SVG Export Plug-In . SVG Version: 2.1.0 Build 192)  -->
  <defs>
    <style>
      .st0, .st1, .st2 {
        display: none;
      }

      .st0, .st3, .st4, .st2 {
        isolation: isolate;
      }

      .st0, .st4, .st2 {
        opacity: .2;
      }

      .st1 {
        fill: #10b981;
      }

      .st5 {
        fill: #3f3f3f;
      }

      .st6, .st2 {
        fill: #fff;
      }

      .st7 {
        fill: #fbb54c;
      }

      .st3 {
        opacity: .1;
      }

      .st8 {
        fill: #f746b3;
      }
    </style>
  </defs>
  <path class="st1" d="M47.5,64.1H13.8c-7.6,0-13.8-6.3-13.8-13.8V13.7C0,6.2,6.2,0,13.7,0h36.6c7.5,0,13.7,6.2,13.7,13.7v36.6c0,7.5-6.2,13.7-13.7,13.7h-2.9.1Z"/>
  <g>
    <path class="st0" d="M19.2,1.1C8.6,1.1,0,9.7,0,20.4v25.6c0,10.6,8.6,19.2,19.2,19.2h25.6c10.6,0,19.2-8.6,19.2-19.2v-25.6c0-10.6-8.6-19.2-19.2-19.2h-25.6Z"/>
    <path class="st8" d="M14.5,0h35.1c7.9,0,14.3,6.4,14.3,14.3v17.7H0V14.5C0,6.5,6.5,0,14.5,0Z"/>
    <path class="st7" d="M14.4,64h35.2c7.9,0,14.3-6.4,14.3-14.3v-17.7H0v17.6c0,8,6.5,14.4,14.4,14.4Z"/>
    <path class="st3" d="M19.4,8h25.1c7.1,0,12.6,5.5,12.6,12.6v25.2c0,7.1-5.5,12.6-12.6,12.6h-25.1c-7.1,0-12.6-5.5-12.6-12.6v-25.2c0-7.1,5.5-12.6,12.6-12.6Z"/>
    <path class="st5" d="M19.4,6.9h25.1c7.1,0,12.6,5.5,12.6,12.6v25.2c0,7.1-5.5,12.6-12.6,12.6h-25.1c-7.1,0-12.6-5.5-12.6-12.6v-25.2c0-7.1,5.5-12.6,12.6-12.6Z"/>
    <path class="st4" d="M22.6,13.7l-10,8.8,4.3,2.3-2.9,8.3,10-8.8-4.3-2.3,2.9-8.3ZM27.4,29.7v3.4h11.4v-3.4h-11.4Z"/>
    <path class="st6" d="M22.6,12.6l-10,8.8,4.3,2.3-2.9,8.3,10-8.8-4.3-2.3,2.9-8.3ZM27.4,28.6v3.4h11.4v-3.4h-11.4Z"/>
    <path class="st2" d="M19.2,0C8.6,0,0,8.6,0,19.2v1.1C0,9.7,8.6,1.1,19.2,1.1h25.6c10.6,0,19.2,8.6,19.2,19.2v-1.1C64,8.6,55.4,0,44.8,0h-25.6Z"/>
  </g>
</svg>