<?xml version="1.0" encoding="UTF-8"?>
<svg id="_图层_1" xmlns="http://www.w3.org/2000/svg" version="1.1" viewBox="0 0 64 64" width="48" height="48">
  <!-- Generator: Adobe Illustrator 29.0.1, SVG Export Plug-In . SVG Version: 2.1.0 Build 192)  -->
  <defs>
    <style>
      .st0 {
        fill: #4f4f4f;
      }

      .st1, .st2, .st3, .st4, .st5, .st6 {
        isolation: isolate;
      }

      .st1, .st3, .st5 {
        opacity: .2;
      }

      .st1, .st7, .st5, .st8 {
        display: none;
      }

      .st9, .st5, .st6 {
        fill: #fff;
      }

      .st2, .st6 {
        opacity: .1;
      }

      .st10 {
        fill: #85aeff;
      }

      .st4 {
        opacity: .5;
      }

      .st8, .st11 {
        fill: #e4e4e4;
      }

      .st12 {
        fill: #a7baff;
      }
    </style>
  </defs>
  <path class="st11" d="M50.4,64H13.8c-7.6,0-13.8-6.2-13.8-13.7V13.7C0,6.2,6.2,0,13.7,0h36.6c7.5,0,13.7,6.2,13.7,13.7v36.6c0,7.5-6.2,13.7-13.7,13.7h.1Z"/>
  <g class="st7">
    <path class="st1" d="M19.1,1.3h25.5c10.6,0,19.1,8.5,19.1,19.1v25.4c0,10.5-8.6,19.1-19.1,19.1h-25.5c-10.6,0-19.1-8.5-19.1-19.1v-25.4C0,9.8,8.6,1.3,19.1,1.3Z"/>
    <path class="st8" d="M19.1.2h25.5c10.6,0,19.1,8.5,19.1,19.1v25.4c0,10.5-8.6,19.1-19.1,19.1h-25.5C8.6,63.8,0,55.2,0,44.7v-25.4C0,8.7,8.6.2,19.1.2Z"/>
    <path class="st2" d="M31.9,13.8c10.7,0,19.3,8.6,19.3,19.3s-8.7,19.3-19.3,19.3-19.3-8.6-19.3-19.3c0-10.7,8.7-19.3,19.3-19.3Z"/>
    <path class="st2" d="M51.2,9.2c2.5,0,4.6,2,4.6,4.5s-2,4.5-4.6,4.5-4.6-2-4.6-4.5,2-4.5,4.6-4.5Z"/>
    <path class="st0" d="M51.2,8.1c2.5,0,4.6,2,4.6,4.5s-2,4.5-4.6,4.5-4.6-2-4.6-4.5,2-4.5,4.6-4.5Z"/>
    <path class="st0" d="M31.9,12.7c10.7,0,19.3,8.6,19.3,19.3s-8.7,19.3-19.3,19.3-19.3-8.6-19.3-19.3c0-10.7,8.7-19.3,19.3-19.3Z"/>
    <path class="st2" d="M31.9,20.6c-6.9,0-12.5,5.6-12.5,12.5s5.6,12.5,12.5,12.5,12.5-5.6,12.5-12.5-5.6-12.5-12.5-12.5Z"/>
    <path class="st9" d="M31.9,19.5c-6.9,0-12.5,5.6-12.5,12.5s5.6,12.5,12.5,12.5,12.5-5.6,12.5-12.5-5.6-12.5-12.5-12.5Z"/>
    <path class="st5" d="M19.1.2C8.5.2,0,8.7,0,19.2v1.1C0,9.8,8.5,1.3,19.1,1.3h25.5c10.6,0,19.1,8.5,19.1,19.1v-1.1C63.7,8.7,55.2.2,44.6.2h-25.5Z"/>
  </g>
  <g>
    <path class="st3" d="M55.4,11.8v26.9c0,1.4-1.1,2.5-2.5,2.5h-26.8c-1.4,0-2.5-1.1-2.5-2.5V11.8c0-1.4,1.1-2.5,2.5-2.5h26.8c1.4,0,2.5,1.1,2.5,2.5Z"/>
    <path class="st10" d="M55.4,11v26.9c0,1.4-1.1,2.5-2.5,2.5h-26.8c-1.4,0-2.5-1.1-2.5-2.5V11c0-1.4,1.1-2.5,2.5-2.5h26.8c1.4,0,2.5,1.1,2.5,2.5Z"/>
    <path class="st3" d="M28.7,18.6v-1.7h20.1v1.7h-20.1Z"/>
    <path class="st3" d="M28.7,23.6v-1.7h20.1v1.7h-20.1Z"/>
    <path class="st3" d="M28.7,28.6v-1.7h20.1v1.7h-20.1Z"/>
    <path class="st3" d="M28.7,33.7v-1.7h13.4v1.7h-13.4Z"/>
    <path class="st3" d="M40.4,27v26.9c0,1.4-1.1,2.5-2.5,2.5H11.1c-1.4,0-2.5-1.1-2.5-2.5v-26.9c0-1.4,1.1-2.5,2.5-2.5h26.8c1.4,0,2.5,1.1,2.5,2.5Z"/>
    <path class="st12" d="M40.4,26.1v26.9c0,1.4-1.1,2.5-2.5,2.5H11.1c-1.4,0-2.5-1.1-2.5-2.5v-26.9c0-1.4,1.1-2.5,2.5-2.5h26.8c1.4,0,2.5,1.1,2.5,2.5Z"/>
    <path class="st6" d="M26.1,8.5c-1.4,0-2.5,1.1-2.5,2.5v.8c0-1.4,1.1-2.5,2.5-2.5h26.8c1.4,0,2.5,1.1,2.5,2.5v-.8c0-1.4-1.1-2.5-2.5-2.5h-26.8Z"/>
    <path class="st6" d="M11.1,23.6c-1.4,0-2.5,1.1-2.5,2.5v.8c0-1.4,1.1-2.5,2.5-2.5h26.8c1.4,0,2.5,1.1,2.5,2.5v-.8c0-1.4-1.1-2.5-2.5-2.5H11.1Z"/>
    <path class="st4" d="M13.6,33.7v-1.7h20.1v1.7H13.6Z"/>
    <path class="st4" d="M13.6,38.7v-1.7h20.1v1.7H13.6Z"/>
    <path class="st4" d="M13.6,43.7v-1.7h20.1v1.7H13.6Z"/>
    <path class="st4" d="M13.6,48.8v-1.7h13.4v1.7h-13.4Z"/>
  </g>
</svg>