<?xml version="1.0" encoding="UTF-8"?>
<svg id="_图层_1" xmlns="http://www.w3.org/2000/svg" version="1.1" viewBox="0 0 64 64" width="48" height="48">
  <!-- Generator: Adobe Illustrator 29.0.1, SVG Export Plug-In . SVG Version: 2.1.0 Build 192)  -->
  <defs>
    <style>
      .st0 {
        fill: #848484;
      }

      .st1 {
        fill-rule: evenodd;
      }

      .st1, .st2, .st3 {
        isolation: isolate;
        opacity: .2;
      }

      .st4, .st3 {
        fill: #fff;
      }

      .st5 {
        fill: #0056c8;
      }

      .st6 {
        fill: #e4e4e4;
      }
    </style>
  </defs>
  <path class="st4" d="M50.3,64H13.8c-7.6,0-13.8-6.2-13.8-13.7V13.7C0,6.2,6.2,0,13.7,0h36.5c7.5,0,13.7,6.2,13.7,13.7v36.6c0,7.5-6.2,13.7-13.7,13.7h0Z"/>
  <g>
    <path class="st2" d="M32.5,6.2c-14.5,0-26.2,11.5-26.2,25.8s11.7,25.8,26.2,25.8,26.2-11.5,26.2-25.8S47,6.2,32.5,6.2ZM32.5,20.9c6.2,0,11.2,5,11.2,11.1s-5,11.1-11.2,11.1-11.2-5-11.2-11.1,5-11.1,11.2-11.1Z"/>
    <path class="st0" d="M32.5,17.2c-7.8,0-14,6.2-14,13.8s6.3,13.8,14,13.8,14-6.2,14-13.8-6.3-13.8-14-13.8ZM32.5,25.5c3.1,0,5.6,2.5,5.6,5.5s-2.5,5.5-5.6,5.5-5.6-2.5-5.6-5.5,2.5-5.5,5.6-5.5Z"/>
    <path class="st6" d="M32.5,5.3c-14.5,0-26.2,11.5-26.2,25.8s11.7,25.8,26.2,25.8,26.2-11.5,26.2-25.8S47,5.3,32.5,5.3ZM32.5,20c6.2,0,11.2,5,11.2,11.1s-5,11.1-11.2,11.1-11.2-5-11.2-11.1,5-11.1,11.2-11.1Z"/>
    <path class="st3" d="M32.5,5.3c-14.5,0-26.2,11.5-26.2,25.8s0,.2,0,.3c.3-14,11.9-25.2,26.2-25.2s25.9,11.2,26.2,25.2c0-.1,0-.2,0-.3,0-14.3-11.7-25.8-26.2-25.8ZM21.3,32c0,.3,0,.6,0,.9,0,.2,0,.3,0,.5,0-.2,0-.3,0-.5.5,5.7,5.3,10.1,11.2,10.1,5.8,0,10.7-4.4,11.2-10.1,0,.2,0,.4,0,.5,0-.2,0-.4,0-.5,0-.3,0-.6,0-.9-.5,5.7-5.3,10.1-11.2,10.1-5.8,0-10.7-4.4-11.2-10.1Z"/>
    <path class="st1" d="M62.4,45.7c-.4,7.8-7,14-14.9,14-7.9,0-14.4-6-14.9-13.7,0,.3,0,.5,0,.8,0,8.1,6.7,14.8,15,14.8s15-6.6,15-14.8c0-.4,0-.7,0-1.1h0Z"/>
    <ellipse class="st5" cx="47.5" cy="45.8" rx="15" ry="14.8"/>
    <path class="st4" d="M40,49.9v3.3h3.3l8.4-8.3-3.3-3.3-8.4,8.3ZM54.7,42c.4-.3.4-.9,0-1.2l-2.1-2.1c-.4-.3-.9-.3-1.3,0l-1.7,1.7,3.3,3.3,1.8-1.7Z"/>
  </g>
</svg>