<?xml version="1.0" encoding="UTF-8" standalone="no"?>
<svg
   id="_图层_1"
   version="1.1"
   viewBox="0 0 64 64" width="48" height="48"
   sodipodi:docname="jabref.svg"
   xml:space="preserve"
   inkscape:version="1.4 (e7c3feb100, 2024-10-09)"
   xmlns:inkscape="http://www.inkscape.org/namespaces/inkscape"
   xmlns:sodipodi="http://sodipodi.sourceforge.net/DTD/sodipodi-0.dtd"
   xmlns:xlink="http://www.w3.org/1999/xlink"
   xmlns="http://www.w3.org/2000/svg"
   xmlns:svg="http://www.w3.org/2000/svg"><sodipodi:namedview
     id="namedview26"
     pagecolor="#505050"
     bordercolor="#eeeeee"
     borderopacity="1"
     inkscape:showpageshadow="0"
     inkscape:pageopacity="0"
     inkscape:pagecheckerboard="0"
     inkscape:deskcolor="#505050"
     inkscape:zoom="7.5572037"
     inkscape:cx="32.15475"
     inkscape:cy="32.15475"
     inkscape:window-width="1920"
     inkscape:window-height="939"
     inkscape:window-x="0"
     inkscape:window-y="34"
     inkscape:window-maximized="1"
     inkscape:current-layer="_图层_1" /><!-- Generator: Adobe Illustrator 29.0.1, SVG Export Plug-In . SVG Version: 2.1.0 Build 192)  --><defs
     id="defs6"><style
       id="style1">
      .st0 {
        fill-opacity: .5;
      }

      .st0, .st1, .st2, .st3, .st4, .st5, .st6, .st7 {
        fill: #fff;
      }

      .st8 {
        fill: #133c9a;
      }

      .st2, .st9 {
        display: none;
      }

      .st3 {
        fill-opacity: .2;
      }

      .st4 {
        fill-opacity: .9;
      }

      .st10 {
        fill: #3370ff;
      }

      .st11 {
        fill: url(#_未命名的渐变_3);
      }

      .st12 {
        fill: url(#_未命名的渐变);
      }

      .st5 {
        fill-opacity: .3;
      }

      .st6 {
        fill-opacity: 0;
      }

      .st7 {
        fill-opacity: .7;
      }

      .st13 {
        fill: #00d6b9;
      }

      .st14 {
        fill: url(#_未命名的渐变_2);
      }
    </style><radialGradient
       id="_未命名的渐变"
       data-name="未命名的渐变"
       cx="123.9"
       cy="-40.2"
       fx="123.9"
       fy="-40.2"
       r="59.4"
       gradientTransform="translate(-26.8 25.5) scale(.6 -.7)"
       gradientUnits="userSpaceOnUse"><stop
         offset="0"
         stop-color="#db202e"
         id="stop1" /><stop
         offset="1"
         stop-color="#e01b24"
         id="stop2" /></radialGradient><radialGradient
       id="_未命名的渐变_2"
       data-name="未命名的渐变 2"
       cx="67.6"
       cy="26.8"
       fx="67.6"
       fy="26.8"
       r="105.2"
       gradientTransform="translate(-26.6 25.3) scale(.6 -.7)"
       gradientUnits="userSpaceOnUse"><stop
         offset="0"
         stop-color="#ffb648"
         id="stop3" /><stop
         offset="1"
         stop-color="#ff7800"
         stop-opacity="0"
         id="stop4" /></radialGradient><radialGradient
       id="_未命名的渐变_3"
       data-name="未命名的渐变 3"
       cx="61.7"
       cy="18.6"
       fx="61.7"
       fy="18.6"
       r="68"
       gradientTransform="translate(-26.8 25.8) scale(.6 -.7)"
       gradientUnits="userSpaceOnUse"><stop
         offset="0"
         stop-color="#c64600"
         id="stop5" /><stop
         offset="1"
         stop-color="#a51d2d"
         id="stop6" /></radialGradient><linearGradient
       id="a"><stop
         offset="0"
         stop-color="#fff"
         id="stop1-3" /><stop
         offset="1"
         stop-color="#fff"
         stop-opacity="0"
         id="stop2-6" /></linearGradient><linearGradient
       gradientTransform="rotate(-90,110.91,115.434)"
       gradientUnits="userSpaceOnUse"
       xlink:href="#a"
       id="b"
       y2="24.145"
       x2="108.974"
       y1="16.246"
       x1="108.118" /><linearGradient
       gradientTransform="rotate(90,135.136,85.779)"
       gradientUnits="userSpaceOnUse"
       xlink:href="#a"
       id="c"
       y2="24.145"
       x2="108.974"
       y1="16.246"
       x1="108.118" /><linearGradient
       gradientUnits="userSpaceOnUse"
       xlink:href="#a"
       id="d"
       y2="24.145"
       x2="108.974"
       y1="16.246"
       x1="108.118" /><linearGradient
       gradientTransform="rotate(180,108.012,88.805)"
       gradientUnits="userSpaceOnUse"
       xlink:href="#a"
       id="e"
       y2="24.145"
       x2="108.974"
       y1="16.246"
       x1="108.118" /></defs><path
     class="st1"
     d="M47.5,64.1H13.8c-7.6,0-13.8-6.3-13.8-13.8V13.7C0,6.2,6.2,0,13.7,0h36.6c7.5,0,13.7,6.2,13.7,13.7v36.6c0,7.5-6.2,13.7-13.7,13.7h-2.9.1Z"
     id="path6"
     style="fill:#e4e4e4;fill-opacity:1" /><g
     id="g28"
     transform="translate(2.6611423e-7,-0.5)"><path
       style="opacity:0.2;fill-rule:evenodd"
       d="M 14.453778,9.0001416 A 6.000975,6.0005823 0 0 0 9.9456837,18.957143 c 6.5999053,7.516799 7.2536773,14.72659 6.9184013,19.632755 -0.09984,1.458724 -0.487866,1.99505 -0.738327,2.312493 -0.250462,0.317444 -1.149883,0.575047 0.273454,0.004 a 6.000975,6.0005823 0 0 0 -0.0039,0.004 c -0.189028,0.07596 -0.341269,0.84442 -3.156447,-0.960935 A 6.000975,6.0005823 0 0 0 3.9999997,45.000035 C 3.9999997,51.667376 10.481983,57 17.606319,57 25.2921,57 31.103732,51.500212 32.767422,44.738318 c 1.22323,1.3865 2.360949,2.835048 3.808832,4.046862 4.512886,3.777089 10.136713,6.793274 16.172886,8.082008 a 6.000975,6.0005823 0 0 0 5.79333,-9.789035 C 56.200076,44.366549 52.600067,40.58754 50.159134,37.38287 49.414568,36.405339 49.177965,35.892262 48.768422,35.199282 51.077964,33.152106 52.985195,30.917159 53.721857,28.000086 54.751003,23.924818 52.928856,19.6388 50.463842,17.125118 45.533811,12.097752 38.446864,10.153638 30.857146,9.0626414 A 6.000975,6.0005823 0 0 0 25.532595,11.004042 C 23.872808,10.366556 19.971405,9.0011694 14.453778,9.0001416 Z M 46.322957,37.308652 c -0.0239,0.02008 -0.0188,0.06316 -0.04296,0.08204 l -0.316426,0.230469 c 0.140389,-0.09538 0.221604,-0.216229 0.359397,-0.312499 z"
       id="path1" /><path
       style="fill:#55648f"
       d="M 14.453778,8.0000713 A 6.000975,6.0005823 0 0 0 9.9456837,17.957073 c 6.5999053,7.516799 7.2536773,14.72659 6.9184013,19.632755 -0.09984,1.458724 -0.487866,1.99505 -0.738327,2.312493 -0.250462,0.317443 -1.149883,0.575047 0.273454,0.004 a 6.000975,6.0005823 0 0 0 -0.0039,0.004 c -0.189028,0.07596 -0.341269,0.84442 -3.156447,-0.960935 a 6.000975,6.0005823 0 0 0 -9.2388653,5.050579 c 0,6.66734 6.4819833,11.999965 13.6063193,11.999965 7.685781,0 13.497413,-5.499788 15.161103,-12.261682 1.22323,1.3865 2.360949,2.835048 3.808832,4.046862 4.512886,3.777089 10.136713,6.793274 16.172886,8.082008 a 6.000975,6.0005823 0 0 0 5.79333,-9.789035 C 56.200076,43.366479 52.600067,39.58747 50.159134,36.3828 49.414568,35.405268 49.177965,34.892192 48.768422,34.199212 51.077964,32.152036 52.985195,29.917089 53.721857,27.000015 54.751003,22.924747 52.928856,18.63873 50.463842,16.125047 45.533811,11.097682 38.446864,9.1535681 30.857146,8.0625711 A 6.000975,6.0005823 0 0 0 25.532595,10.003972 C 23.872808,9.3664861 19.971405,8.0010991 14.453778,8.0000713 Z M 46.322957,36.308582 c -0.0239,0.02008 -0.0188,0.06316 -0.04296,0.08204 l -0.316426,0.230469 c 0.140389,-0.09538 0.221604,-0.216229 0.359397,-0.312499 z"
       id="path2" /><path
       style="opacity:0.2;fill-rule:evenodd"
       d="m 14.453196,15.00007 c 7.776999,8.858 8.804531,18 8.394531,24 -0.36,5.26 -3.596844,7.228562 -4.214844,7.476562 -1.2888,0.518 -4.316812,1.291438 -8.632812,-1.476562 0,3.23 2.775669,6 7.605469,6 4.829599,0 8.783937,-3.878094 9.585937,-8.246094 2.7874,-22.5502 -2.515624,-25.71875 -2.515624,-25.71875 0,0 -4.854829,-2.034156 -10.222657,-2.035156 z m 15.546875,0 c 1.412,5.9836 12,8.339594 12,11.183594 0,2.846 -8.116,3.335312 -8,7.945312 0.118,6.376 10.352,14.811094 20,16.871094 -4.236,-4.904 -14.940156,-15.59575 -11.410156,-18.34375 12.7058,-8.632 1.057156,-15.69441 -12.589844,-17.65625 z"
       id="path3" /><path
       style="fill:#ffffff;fill-rule:evenodd"
       d="m 14.453196,14 c 7.776999,8.858 8.804531,18 8.394531,24 -0.36,5.26 -3.596844,7.228562 -4.214844,7.476562 -1.2888,0.518 -4.316812,1.291438 -8.632812,-1.476562 0,3.23 2.775669,6 7.605469,6 4.829599,0 8.783937,-3.878094 9.585937,-8.246094 2.7874,-22.5502 -2.515624,-25.71875 -2.515624,-25.71875 0,0 -4.854829,-2.034156 -10.222657,-2.035156 z m 15.546875,0 c 1.412,5.9836 12,8.339594 12,11.183594 0,2.846 -8.116,3.335312 -8,7.945312 0.118,6.376 10.352,14.811094 20,16.871094 C 49.764071,45.096 39.059915,34.40425 42.589915,31.65625 55.295715,23.02425 43.647071,15.96184 30.000071,14 Z"
       id="path4" /><path
       style="opacity:0.2;fill:#ffffff;fill-rule:evenodd"
       d="M 14.453125,8 A 6.000975,6.0005823 0 0 0 8.4824219,14.476562 6.000975,6.0005823 0 0 1 14.453125,9 c 5.517627,0.00103 9.42029,1.366421 11.080078,2.003906 A 6.000975,6.0005823 0 0 1 30.857422,9.0625 c 7.589718,1.090997 14.675439,3.035134 19.605469,8.0625 1.873194,1.910178 3.37354,4.844759 3.535156,7.931641 C 54.150928,21.612263 52.53763,18.240702 50.462891,16.125 45.532861,11.097634 38.44714,9.153497 30.857422,8.0625 a 6.000975,6.0005823 0 0 0 -5.324219,1.941406 C 23.873415,9.3664207 19.970752,8.0010278 14.453125,8 Z m 34.693359,26.851562 c -0.126585,0.115821 -0.249667,0.233099 -0.378906,0.347657 0.409544,0.69298 0.646059,1.206062 1.390625,2.183593 2.440933,3.204671 6.042371,6.983709 8.384766,9.695313 a 6.000975,6.0005823 0 0 1 1.43164,3.453125 6.000975,6.0005823 0 0 0 -1.43164,-4.453125 c -2.342395,-2.711604 -5.943833,-6.490642 -8.384766,-9.695313 -0.497697,-0.653419 -0.764586,-1.100428 -1.011719,-1.53125 z M 16.916016,36.15625 c -0.01021,0.490024 -0.02182,0.981181 -0.05273,1.433594 -0.09984,1.458723 -0.48782,1.995057 -0.738281,2.3125 -0.07065,0.08955 -0.183786,0.167702 -0.291016,0.230468 -0.405827,-0.0103 -1.144851,-0.253172 -2.595703,-1.183593 A 6.000975,6.0005823 0 0 0 4,44 c 0,0.165493 0.021399,0.326447 0.029297,0.490234 a 6.000975,6.0005823 0 0 1 9.208984,-4.541015 c 1.450852,0.930421 2.189876,1.173297 2.595703,1.183593 0.10723,-0.06277 0.220362,-0.140919 0.291016,-0.230468 0.250461,-0.317443 0.638439,-0.853777 0.738281,-2.3125 0.05152,-0.753967 0.06592,-1.578065 0.05273,-2.433594 z m 29.40625,1.152344 c -0.137793,0.09627 -0.218987,0.21712 -0.359375,0.3125 l 0.316406,-0.230469 c 0.02416,-0.01888 0.01907,-0.06195 0.04297,-0.08203 z M 16.398438,39.90625 a 6.000975,6.0005823 0 0 0 -0.0039,0.0039 c -0.08652,0.03477 -0.175858,0.20704 -0.505859,0.21875 0.06788,-0.03449 0.03437,-0.03193 0.509766,-0.222656 z m 0,1 c -0.4754,0.190731 -0.441884,0.188164 -0.509766,0.222656 0.330001,-0.01171 0.419337,-0.183981 0.505859,-0.21875 a 6.000975,6.0005823 0 0 1 0.0039,-0.0039 z"
       id="path5" /></g></svg>
