<?xml version="1.0" encoding="UTF-8"?>
<svg id="_图层_1" data-name="图层_1" xmlns="http://www.w3.org/2000/svg" version="1.1" viewBox="0 0 128 128" width="48" height="48">
  <!-- Generator: Adobe Illustrator 29.0.1, SVG Export Plug-In . SVG Version: 2.1.0 Build 192)  -->
  <defs>
    <style>
      .st0 {
        fill: #672168;
      }

      .st1, .st2 {
        fill: #fff;
      }

      .st3 {
        opacity: .2;
      }

      .st3, .st2 {
        isolation: isolate;
      }

      .st2 {
        opacity: .1;
      }
    </style>
  </defs>
  <rect class="st1" width="127.8" height="127.8" rx="25.9" ry="25.9"/>
  <g>
    <path class="st3" d="M22.9,63.8c0,.5,0,.9,0,1.4,0,22.2,18,40.1,40.3,40.1s40.3-17.9,40.3-40.1,0-1,0-1.4c-.8,21.5-18.4,38.6-40.3,38.6s-39.5-17.1-40.3-38.6h0Z"/>
    <path class="st0" d="M63.1,23.7h0c22.3,0,40.3,17.9,40.3,40.1h0c0,22.1-18.1,40.1-40.3,40.1h0c-22.3,0-40.3-17.9-40.3-40.1h0c0-22.1,18.1-40.1,40.3-40.1Z"/>
    <path class="st3" d="M63.1,36.6c-15.9,0-28.8,12.8-28.8,28.6h0c0,15.8,12.9,28.6,28.8,28.6h0c15.9,0,28.8-12.8,28.8-28.6h0c0-15.8-12.9-28.6-28.8-28.6h0ZM53.4,48.1c.3,0,.6,0,.9.3l25.2,15.3c.9.5,1.2,1.7.7,2.6-.2.3-.4.5-.7.7l-25.2,15.3c-.9.5-2,.2-2.5-.7-.2-.3-.2-.6-.2-.9v-30.5c0-1.1.8-1.9,1.8-1.9,0,0,0,0,0,0h0Z"/>
    <path class="st1" d="M63.1,35.2c-15.9,0-28.8,12.8-28.8,28.6,0,15.8,12.9,28.6,28.8,28.6h0c15.9,0,28.8-12.8,28.8-28.6h0c0-15.8-12.9-28.6-28.8-28.6ZM53.4,46.6c.3,0,.6,0,.9.3l25.2,15.3c.9.5,1.2,1.7.7,2.6-.2.3-.4.5-.7.7l-25.2,15.3c-.9.5-2,.2-2.5-.7-.2-.3-.2-.6-.2-.9v-30.5c0-1.1.8-1.9,1.8-1.9,0,0,0,0,0,0Z"/>
    <path class="st2" d="M63.1,23.7c-22.3,0-40.3,17.9-40.3,40.1s0,.3,0,.5c.5-21.7,18.3-39.1,40.3-39.1s39.8,17.4,40.3,39.1c0-.2,0-.3,0-.5,0-22.2-18-40.1-40.3-40.1Z"/>
  </g>
</svg>