<?xml version="1.0" encoding="UTF-8"?>
<svg id="_图层_1" xmlns="http://www.w3.org/2000/svg" version="1.1" viewBox="0 0 64 64" width="48" height="48">
  <!-- Generator: Adobe Illustrator 29.0.1, SVG Export Plug-In . SVG Version: 2.1.0 Build 192)  -->
  <defs>
    <style>
      .st0, .st1 {
        fill: #fff;
      }

      .st2 {
        fill: #2c96ff;
      }

      .st3, .st1 {
        isolation: isolate;
        opacity: .2;
      }

      .st4 {
        fill: #275ce3;
      }
    </style>
  </defs>
  <path class="st0" d="M50.3,64H13.9C6.3,64,.2,57.8.2,50.3V13.8C.2,6.2,6.3,0,13.9,0h36.5c7.5,0,13.7,6.2,13.7,13.7v36.5c0,7.5-6.1,13.7-13.7,13.7h0Z"/>
  <g>
    <path class="st3" d="M34.3,20c-1,0-1.8.8-1.8,1.8s.8,1.8,1.8,1.8,1.8-.8,1.8-1.8-.8-1.8-1.8-1.8ZM12.9,23.5c-1,0-1.8.8-1.8,1.8s.8,1.8,1.8,1.8,1.8-.8,1.8-1.8-.8-1.8-1.8-1.8ZM19.6,25.3c-.5,0-1.1.5-.5,1.2.9,1,1.3,2.7.5,3.1-.8.4-.7-1.3-.8-2.2,0-.9-2.2-1.4-3-.3-.8,1.1,0,2.3.8,2.5.8.2.9,1.1,1.4,2.1.5.9,2.7.7,3.3,0,.5-.7.9-2-.2-3.2s-.7-2.3-1-2.9c0-.2-.2-.2-.4-.2h0s0,0,0,0ZM26.2,25.3s0,0,0,0h0c0,0-.2,0-.2,0-.6.3-.8,1.2,0,3.1.8,1.9,2,3.2,2.6,2.9s.5-2-.4-3.9c-.7-1.6-1.4-2.2-2-2.2ZM43.8,25.3c-.6,0-.9,1.3-1.1,2.4-.2,1.3-.8,2.5-.3,2.8.8.3,1.2-1.7,2-2.5.9-.8.1-2.6-.6-2.7h0s0,0-.1,0h0ZM50.3,25.3c-1,0-1.8.8-1.8,1.8s.8,1.8,1.8,1.8,1.8-.8,1.8-1.8-.8-1.8-1.8-1.8ZM23.1,26.2c-.7,0-1.3.6-1.3,1.3s.6,1.3,1.3,1.3,1.3-.6,1.3-1.3-.6-1.3-1.3-1.3,0,0,0,0ZM38.7,27c-.8,0-1.6,1.4-2,2.4-.5,1.1,0,3.2-1,4-1.1.8-1.9.8-2.4.5-.5-.3.5-.3-.1-1.5-.6-1.2-2-.8-2.4.1-.4.9.4.9.1,1.4-.3.6-2.7.6-3.2-1s-2.3-3.5-2.9-3c-.6.4,0,2.1,1.5,3.4,1.5,1.3-.4,2-1.7,1-1.3-1-2.8.8-3.9,1.9-1.2,1.2-2.2,1.2-3,.5-.8-.7,0-2.6-1.1-4.5-1-1.9-2.9-1-3.1.3-.3,1.3,2.4,2.2,1.9,2.9s-2.6.7-3.2-.6c-.6-1.3-1.9-.9-2,.2,0,1.1,1,.2,1.9,1,0,0,15,20.9,21.2,20.9s21.2-20.9,21.2-20.9c2.5-2.5-.4-1.4-1-.8-.6.6-2.4,1-2.6.4-.2-.6,2-1.6,2.7-2.3.6-.7,1.3-2.6.2-3.3s-2.5.6-3.2,1.5c-.6.9,0,3.4-.9,4.1-.9.7-1.3.3-1.5-.3-.2-.6,1.9-1.5,1-3.1-.8-1.6-2.4-.9-3.1-.1-.7.7.4,1.9.7,3,.3,1.2-2.5,1.1-3.5.7-1.1-.4-1.4-3.1-1.9-3.2-.5-.2-1.4,1.4-2.9,1-1.5-.4-.2-1.3.2-2.4.5-1.1,1.2-3.6.3-4-.1,0-.2,0-.3,0ZM8,29.7c-.7,0-1.3.6-1.3,1.3s.6,1.3,1.3,1.3,1.3-.6,1.3-1.3-.6-1.3-1.3-1.3,0,0,0,0ZM56.9,31.4c-.7,0-1.3.6-1.3,1.3s.6,1.3,1.3,1.3,1.3-.6,1.3-1.3-.6-1.3-1.3-1.3,0,0,0,0Z"/>
    <path class="st2" d="M28.5,6.9h9.8c2.7,0,4.9,2.2,4.9,4.8v25.4c0,2.7-2.2,4.8-4.9,4.8h-9.8c-2.7,0-4.9-2.2-4.9-4.8V11.7c0-2.7,2.2-4.8,4.9-4.8Z"/>
    <path class="st4" d="M34.3,19.1c-1,0-1.8.8-1.8,1.8s.8,1.8,1.8,1.8,1.8-.8,1.8-1.8-.8-1.8-1.8-1.8ZM12.9,22.6c-1,0-1.8.8-1.8,1.8s.8,1.8,1.8,1.8,1.8-.8,1.8-1.8-.8-1.8-1.8-1.8ZM19.6,24.4c-.5,0-1.1.5-.5,1.2.9,1,1.3,2.7.5,3.1-.8.4-.7-1.3-.8-2.2,0-.9-2.2-1.4-3-.3-.8,1.1,0,2.3.8,2.5.8.2.9,1.1,1.4,2.1.5.9,2.7.7,3.3,0,.5-.7.9-2-.2-3.2s-.7-2.3-1-2.9c0-.2-.2-.2-.4-.2h0s0,0,0,0ZM26.2,24.4s0,0,0,0h0c0,0-.2,0-.2,0-.6.3-.8,1.2,0,3.1.8,1.9,2,3.2,2.6,2.9.6-.3.5-2-.4-3.9-.7-1.6-1.4-2.2-2-2.2ZM43.8,24.4c-.6,0-.9,1.3-1.1,2.4-.2,1.3-.8,2.5-.3,2.8.8.3,1.2-1.7,2-2.5.9-.8.1-2.6-.6-2.7h0s0,0-.1,0h0ZM50.3,24.4c-1,0-1.8.8-1.8,1.8s.8,1.8,1.8,1.8,1.8-.8,1.8-1.8-.8-1.8-1.8-1.8ZM23.1,25.3c-.7,0-1.3.6-1.3,1.3s.6,1.3,1.3,1.3,1.3-.6,1.3-1.3-.6-1.3-1.3-1.3,0,0,0,0ZM38.7,26.1c-.8,0-1.6,1.4-2,2.4-.5,1.1,0,3.2-1,4-1.1.8-1.9.8-2.4.5-.5-.3.5-.3-.1-1.5-.6-1.2-2-.8-2.4.1-.4.9.4.9.1,1.4-.3.6-2.7.6-3.2-1s-2.3-3.5-2.9-3c-.6.4,0,2.1,1.5,3.4,1.5,1.3-.4,2-1.7,1-1.3-1-2.8.8-3.9,1.9-1.2,1.2-2.2,1.2-3,.5-.8-.7,0-2.6-1.1-4.5-1-1.9-2.9-1-3.1.3-.3,1.3,2.4,2.2,1.9,2.9s-2.6.7-3.2-.6c-.6-1.3-1.9-.9-2,.2,0,1.1,1,.2,1.9,1,0,0,15,20.9,21.2,20.9s21.2-20.9,21.2-20.9c2.5-2.5-.4-1.4-1-.8-.6.6-2.4,1-2.6.4-.2-.6,2-1.6,2.7-2.3.6-.7,1.3-2.6.2-3.3s-2.5.6-3.2,1.5c-.6.9,0,3.4-.9,4.1-.9.7-1.3.3-1.5-.3-.2-.6,1.9-1.5,1-3.1-.8-1.6-2.4-.9-3.1-.1-.7.7.4,1.9.7,3,.3,1.2-2.5,1.1-3.5.7-1.1-.4-1.4-3.1-1.9-3.2-.5-.2-1.4,1.4-2.9,1-1.5-.4-.2-1.3.2-2.4.5-1.1,1.2-3.6.3-4-.1,0-.2,0-.3,0ZM8,28.8c-.7,0-1.3.6-1.3,1.3s.6,1.3,1.3,1.3,1.3-.6,1.3-1.3-.6-1.3-1.3-1.3,0,0,0,0ZM56.9,30.5c-.7,0-1.3.6-1.3,1.3s.6,1.3,1.3,1.3,1.3-.6,1.3-1.3-.6-1.3-1.3-1.3,0,0,0,0Z"/>
    <path class="st1" d="M28.5,6.9c-2.7,0-4.9,2.2-4.9,4.8v.9c0-2.7,2.2-4.8,4.9-4.8h9.8c2.7,0,4.9,2.2,4.9,4.8v-.9c0-2.7-2.2-4.8-4.9-4.8h-9.8Z"/>
  </g>
</svg>