<?xml version="1.0" encoding="UTF-8"?>
<svg id="_图层_1" xmlns="http://www.w3.org/2000/svg" version="1.1" viewBox="0 0 64 64" width="48" height="48">
  <!-- Generator: Adobe Illustrator 29.0.1, SVG Export Plug-In . SVG Version: 2.1.0 Build 192)  -->
  <defs>
    <style>
      .st0, .st1 {
        display: none;
        isolation: isolate;
        opacity: .2;
      }

      .st2, .st1 {
        fill: #fff;
      }

      .st3 {
        fill: #ffc539;
      }

      .st4 {
        fill: #d55045;
      }

      .st5 {
        fill: #4b95d5;
      }

      .st6 {
        fill: #94d551;
      }
    </style>
  </defs>
  <path class="st2" d="M50.4,64H13.8c-7.6,0-13.8-6.2-13.8-13.7V13.7C0,6.2,6.2,0,13.7,0h36.5c7.5,0,13.7,6.2,13.7,13.7v36.6c0,7.5-6.2,13.7-13.7,13.7h.1Z"/>
  <g>
    <path class="st0" d="M0,16v2.5c0,1.4,1.1,2.5,2.5,2.5h14.8c1.4,0,2.5-1.1,2.5-2.5v-2.5c0,1.4-1.1,2.5-2.5,2.5H2.5c-1.4,0-2.5-1.1-2.5-2.5ZM22.2,16v2.5c0,1.4,1.1,2.5,2.5,2.5h14.8c1.4,0,2.5-1.1,2.5-2.5v-2.5c0,1.4-1.1,2.5-2.5,2.5h-14.8c-1.4,0-2.5-1.1-2.5-2.5ZM44.4,16v2.5c0,1.4,1.1,2.5,2.5,2.5h14.8c1.4,0,2.5-1.1,2.5-2.5v-2.5c0,1.4-1.1,2.5-2.5,2.5h-14.8c-1.4,0-2.5-1.1-2.5-2.5ZM0,38.2v2.5c0,1.4,1.1,2.5,2.5,2.5h14.8c1.4,0,2.5-1.1,2.5-2.5v-2.5c0,1.4-1.1,2.5-2.5,2.5H2.5c-1.4,0-2.5-1.1-2.5-2.5ZM22.2,38.2v2.5c0,1.4,1.1,2.5,2.5,2.5h14.8c1.4,0,2.5-1.1,2.5-2.5v-2.5c0,1.4-1.1,2.5-2.5,2.5h-14.8c-1.4,0-2.5-1.1-2.5-2.5ZM44.4,38.2v2.5c0,1.4,1.1,2.5,2.5,2.5h14.8c1.4,0,2.5-1.1,2.5-2.5v-2.5c0,1.4-1.1,2.5-2.5,2.5h-14.8c-1.4,0-2.5-1.1-2.5-2.5ZM0,60.3v2.5c0,1.4,1.1,2.5,2.5,2.5h14.8c1.4,0,2.5-1.1,2.5-2.5v-2.5c0,1.4-1.1,2.5-2.5,2.5H2.5c-1.4,0-2.5-1.1-2.5-2.5ZM22.2,60.3v2.5c0,1.4,1.1,2.5,2.5,2.5h14.8c1.4,0,2.5-1.1,2.5-2.5v-2.5c0,1.4-1.1,2.5-2.5,2.5h-14.8c-1.4,0-2.5-1.1-2.5-2.5ZM44.4,60.3v2.5c0,1.4,1.1,2.5,2.5,2.5h14.8c1.4,0,2.5-1.1,2.5-2.5v-2.5c0,1.4-1.1,2.5-2.5,2.5h-14.8c-1.4,0-2.5-1.1-2.5-2.5Z"/>
    <path class="st4" d="M14.4,0h2.8c1.4,0,2.5,1.1,2.5,2.5v14.8c0,1.4-1.1,2.5-2.5,2.5H2.5c-1.4,0-2.5-1.1-2.5-2.5v-2.9C0,6.4,6.4,0,14.4,0Z"/>
    <path class="st3" d="M24.6,0h14.8c1.4,0,2.5,1.1,2.5,2.5v14.8c0,1.4-1.1,2.5-2.5,2.5h-14.8c-1.4,0-2.5-1.1-2.5-2.5V2.5c0-1.4,1.1-2.5,2.5-2.5Z"/>
    <path class="st6" d="M46.8,0h3.5c7.6,0,13.7,6.1,13.7,13.7v3.5c0,1.4-1.1,2.5-2.5,2.5h-14.8c-1.4,0-2.5-1.1-2.5-2.5V2.5c0-1.4,1.1-2.5,2.5-2.5Z"/>
    <path class="st6" d="M2.5,22.2h14.8c1.4,0,2.5,1.1,2.5,2.5v14.8c0,1.4-1.1,2.5-2.5,2.5H2.5c-1.4,0-2.5-1.1-2.5-2.5v-14.8c0-1.4,1.1-2.5,2.5-2.5Z"/>
    <path class="st5" d="M24.6,22.2h14.8c1.4,0,2.5,1.1,2.5,2.5v14.8c0,1.4-1.1,2.5-2.5,2.5h-14.8c-1.4,0-2.5-1.1-2.5-2.5v-14.8c0-1.4,1.1-2.5,2.5-2.5Z"/>
    <path class="st6" d="M46.8,22.2h14.8c1.4,0,2.5,1.1,2.5,2.5v14.8c0,1.4-1.1,2.5-2.5,2.5h-14.8c-1.4,0-2.5-1.1-2.5-2.5v-14.8c0-1.4,1.1-2.5,2.5-2.5Z"/>
    <path class="st5" d="M2.5,44.3h14.8c1.4,0,2.5,1.1,2.5,2.5v14.8c0,1.4-1.1,2.5-2.5,2.5h-2.6c-8.1,0-14.6-6.5-14.6-14.6v-2.7c0-1.4,1.1-2.5,2.5-2.5Z"/>
    <path class="st3" d="M24.6,44.3h14.8c1.4,0,2.5,1.1,2.5,2.5v14.8c0,1.4-1.1,2.5-2.5,2.5h-14.8c-1.4,0-2.5-1.1-2.5-2.5v-14.8c0-1.4,1.1-2.5,2.5-2.5Z"/>
    <path class="st4" d="M46.8,44.3h14.8c1.4,0,2.5,1.1,2.5,2.5v2.7c0,8-6.5,14.5-14.6,14.5h-2.7c-1.4,0-2.5-1.1-2.5-2.5v-14.8c0-1.4,1.1-2.5,2.5-2.5Z"/>
    <path class="st1" d="M2.5,0C1.1,0,0,1.1,0,2.5v1.2C0,2.3,1.1,1.2,2.5,1.2h14.8c1.4,0,2.5,1.1,2.5,2.5v-1.2c0-1.4-1.1-2.5-2.5-2.5H2.5ZM24.6,0c-1.4,0-2.5,1.1-2.5,2.5v1.2c0-1.4,1.1-2.5,2.5-2.5h14.8c1.4,0,2.5,1.1,2.5,2.5v-1.2c0-1.4-1.1-2.5-2.5-2.5h-14.8ZM46.8,0c-1.4,0-2.5,1.1-2.5,2.5v1.2c0-1.4,1.1-2.5,2.5-2.5h14.8c1.4,0,2.5,1.1,2.5,2.5v-1.2c0-1.4-1.1-2.5-2.5-2.5h-14.8ZM2.5,22.2c-1.4,0-2.5,1.1-2.5,2.5v1.2c0-1.4,1.1-2.5,2.5-2.5h14.8c1.4,0,2.5,1.1,2.5,2.5v-1.2c0-1.4-1.1-2.5-2.5-2.5H2.5ZM24.6,22.2c-1.4,0-2.5,1.1-2.5,2.5v1.2c0-1.4,1.1-2.5,2.5-2.5h14.8c1.4,0,2.5,1.1,2.5,2.5v-1.2c0-1.4-1.1-2.5-2.5-2.5h-14.8ZM46.8,22.2c-1.4,0-2.5,1.1-2.5,2.5v1.2c0-1.4,1.1-2.5,2.5-2.5h14.8c1.4,0,2.5,1.1,2.5,2.5v-1.2c0-1.4-1.1-2.5-2.5-2.5h-14.8ZM2.5,44.3c-1.4,0-2.5,1.1-2.5,2.5v1.2c0-1.4,1.1-2.5,2.5-2.5h14.8c1.4,0,2.5,1.1,2.5,2.5v-1.2c0-1.4-1.1-2.5-2.5-2.5H2.5ZM24.6,44.3c-1.4,0-2.5,1.1-2.5,2.5v1.2c0-1.4,1.1-2.5,2.5-2.5h14.8c1.4,0,2.5,1.1,2.5,2.5v-1.2c0-1.4-1.1-2.5-2.5-2.5h-14.8ZM46.8,44.3c-1.4,0-2.5,1.1-2.5,2.5v1.2c0-1.4,1.1-2.5,2.5-2.5h14.8c1.4,0,2.5,1.1,2.5,2.5v-1.2c0-1.4-1.1-2.5-2.5-2.5h-14.8Z"/>
  </g>
</svg>