<?xml version="1.0" encoding="UTF-8"?>
<svg id="_图层_1" xmlns="http://www.w3.org/2000/svg" version="1.1" xmlns:xlink="http://www.w3.org/1999/xlink" viewBox="0 0 64 64" width="48" height="48">
  <!-- Generator: Adobe Illustrator 29.0.1, SVG Export Plug-In . SVG Version: 2.1.0 Build 192)  -->
  <defs>
    <style>
      .st0 {
        fill: #4f4f4f;
      }

      .st1, .st2, .st3, .st4, .st5 {
        isolation: isolate;
      }

      .st1, .st3, .st4, .st5 {
        opacity: .2;
      }

      .st1, .st6, .st5 {
        display: none;
      }

      .st7, .st4, .st5 {
        fill: #fff;
      }

      .st8 {
        fill: #535353;
      }

      .st9 {
        fill: #26a269;
      }

      .st10, .st11, .st12 {
        fill: none;
      }

      .st13 {
        fill: #2c96ff;
      }

      .st14 {
        clip-path: url(#clippath-1);
      }

      .st11 {
        clip-path: url(#clippath);
      }

      .st2 {
        opacity: .1;
      }

      .st12 {
        clip-path: url(#clippath-2);
      }

      .st15 {
        clip-path: url(#clippath-3);
      }

      .st16 {
        fill: #2bbd6d;
      }

      .st17 {
        fill: #e8ddc7;
      }

      .st18 {
        fill: #e4e4e4;
      }

      .st19 {
        fill: #275ce3;
      }

      .st20 {
        fill: #71ec8c;
      }
    </style>
    <clipPath id="clippath">
      <polygon class="st10" points="3.3 2.5 4.3 2.5 3.3 3.5 3.3 2.5"/>
    </clipPath>
    <clipPath id="clippath-1">
      <polygon class="st11" points="1.3 .5 .2 .5 1.3 -.5 1.3 .5"/>
    </clipPath>
    <clipPath id="clippath-2">
      <polygon class="st10" points="3.3 2.5 4.3 2.5 3.3 3.5 3.3 2.5"/>
    </clipPath>
    <clipPath id="clippath-3">
      <polygon class="st12" points="1.3 .5 .2 .5 1.3 -.5 1.3 .5"/>
    </clipPath>
  </defs>
  <path class="st18" d="M50.3,64H13.9C6.3,64,.2,57.8.2,50.3V13.8C.2,6.2,6.3,0,13.9,0h36.5c7.5,0,13.7,6.2,13.7,13.7v36.5c0,7.5-6.1,13.7-13.7,13.7h0Z"/>
  <g class="st6">
    <path class="st3" d="M34.3,20c-1,0-1.8.8-1.8,1.8s.8,1.8,1.8,1.8,1.8-.8,1.8-1.8-.8-1.8-1.8-1.8ZM12.9,23.5c-1,0-1.8.8-1.8,1.8s.8,1.8,1.8,1.8,1.8-.8,1.8-1.8-.8-1.8-1.8-1.8ZM19.6,25.3c-.5,0-1.1.5-.5,1.2.9,1,1.3,2.7.5,3.1-.8.4-.7-1.3-.8-2.2,0-.9-2.2-1.4-3-.3-.8,1.1,0,2.3.8,2.5.8.2.9,1.1,1.4,2.1.5.9,2.7.7,3.3,0,.5-.7.9-2-.2-3.2s-.7-2.3-1-2.9c0-.2-.2-.2-.4-.2h0s0,0,0,0ZM26.2,25.3s0,0,0,0h0c0,0-.2,0-.2,0-.6.3-.8,1.2,0,3.1.8,1.9,2,3.2,2.6,2.9s.5-2-.4-3.9c-.7-1.6-1.4-2.2-2-2.2ZM43.8,25.3c-.6,0-.9,1.3-1.1,2.4-.2,1.3-.8,2.5-.3,2.8.8.3,1.2-1.7,2-2.5.9-.8.1-2.6-.6-2.7h0s0,0-.1,0h0ZM50.3,25.3c-1,0-1.8.8-1.8,1.8s.8,1.8,1.8,1.8,1.8-.8,1.8-1.8-.8-1.8-1.8-1.8ZM23.1,26.2c-.7,0-1.3.6-1.3,1.3s.6,1.3,1.3,1.3,1.3-.6,1.3-1.3-.6-1.3-1.3-1.3,0,0,0,0ZM38.7,27c-.8,0-1.6,1.4-2,2.4-.5,1.1,0,3.2-1,4-1.1.8-1.9.8-2.4.5-.5-.3.5-.3-.1-1.5-.6-1.2-2-.8-2.4.1-.4.9.4.9.1,1.4-.3.6-2.7.6-3.2-1s-2.3-3.5-2.9-3c-.6.4,0,2.1,1.5,3.4,1.5,1.3-.4,2-1.7,1-1.3-1-2.8.8-3.9,1.9-1.2,1.2-2.2,1.2-3,.5-.8-.7,0-2.6-1.1-4.5-1-1.9-2.9-1-3.1.3-.3,1.3,2.4,2.2,1.9,2.9s-2.6.7-3.2-.6c-.6-1.3-1.9-.9-2,.2,0,1.1,1,.2,1.9,1,0,0,15,20.9,21.2,20.9s21.2-20.9,21.2-20.9c2.5-2.5-.4-1.4-1-.8-.6.6-2.4,1-2.6.4-.2-.6,2-1.6,2.7-2.3.6-.7,1.3-2.6.2-3.3s-2.5.6-3.2,1.5c-.6.9,0,3.4-.9,4.1-.9.7-1.3.3-1.5-.3-.2-.6,1.9-1.5,1-3.1-.8-1.6-2.4-.9-3.1-.1-.7.7.4,1.9.7,3,.3,1.2-2.5,1.1-3.5.7-1.1-.4-1.4-3.1-1.9-3.2-.5-.2-1.4,1.4-2.9,1-1.5-.4-.2-1.3.2-2.4.5-1.1,1.2-3.6.3-4-.1,0-.2,0-.3,0ZM8,29.7c-.7,0-1.3.6-1.3,1.3s.6,1.3,1.3,1.3,1.3-.6,1.3-1.3-.6-1.3-1.3-1.3,0,0,0,0ZM56.9,31.4c-.7,0-1.3.6-1.3,1.3s.6,1.3,1.3,1.3,1.3-.6,1.3-1.3-.6-1.3-1.3-1.3,0,0,0,0Z"/>
    <path class="st13" d="M28.5,6.9h9.8c2.7,0,4.9,2.2,4.9,4.8v25.4c0,2.7-2.2,4.8-4.9,4.8h-9.8c-2.7,0-4.9-2.2-4.9-4.8V11.7c0-2.7,2.2-4.8,4.9-4.8Z"/>
    <path class="st19" d="M34.3,19.1c-1,0-1.8.8-1.8,1.8s.8,1.8,1.8,1.8,1.8-.8,1.8-1.8-.8-1.8-1.8-1.8ZM12.9,22.6c-1,0-1.8.8-1.8,1.8s.8,1.8,1.8,1.8,1.8-.8,1.8-1.8-.8-1.8-1.8-1.8ZM19.6,24.4c-.5,0-1.1.5-.5,1.2.9,1,1.3,2.7.5,3.1-.8.4-.7-1.3-.8-2.2,0-.9-2.2-1.4-3-.3-.8,1.1,0,2.3.8,2.5.8.2.9,1.1,1.4,2.1.5.9,2.7.7,3.3,0,.5-.7.9-2-.2-3.2s-.7-2.3-1-2.9c0-.2-.2-.2-.4-.2h0s0,0,0,0ZM26.2,24.4s0,0,0,0h0c0,0-.2,0-.2,0-.6.3-.8,1.2,0,3.1.8,1.9,2,3.2,2.6,2.9.6-.3.5-2-.4-3.9-.7-1.6-1.4-2.2-2-2.2ZM43.8,24.4c-.6,0-.9,1.3-1.1,2.4-.2,1.3-.8,2.5-.3,2.8.8.3,1.2-1.7,2-2.5.9-.8.1-2.6-.6-2.7h0s0,0-.1,0h0ZM50.3,24.4c-1,0-1.8.8-1.8,1.8s.8,1.8,1.8,1.8,1.8-.8,1.8-1.8-.8-1.8-1.8-1.8ZM23.1,25.3c-.7,0-1.3.6-1.3,1.3s.6,1.3,1.3,1.3,1.3-.6,1.3-1.3-.6-1.3-1.3-1.3,0,0,0,0ZM38.7,26.1c-.8,0-1.6,1.4-2,2.4-.5,1.1,0,3.2-1,4-1.1.8-1.9.8-2.4.5-.5-.3.5-.3-.1-1.5-.6-1.2-2-.8-2.4.1-.4.9.4.9.1,1.4-.3.6-2.7.6-3.2-1s-2.3-3.5-2.9-3c-.6.4,0,2.1,1.5,3.4,1.5,1.3-.4,2-1.7,1-1.3-1-2.8.8-3.9,1.9-1.2,1.2-2.2,1.2-3,.5-.8-.7,0-2.6-1.1-4.5-1-1.9-2.9-1-3.1.3-.3,1.3,2.4,2.2,1.9,2.9s-2.6.7-3.2-.6c-.6-1.3-1.9-.9-2,.2,0,1.1,1,.2,1.9,1,0,0,15,20.9,21.2,20.9s21.2-20.9,21.2-20.9c2.5-2.5-.4-1.4-1-.8-.6.6-2.4,1-2.6.4-.2-.6,2-1.6,2.7-2.3.6-.7,1.3-2.6.2-3.3s-2.5.6-3.2,1.5c-.6.9,0,3.4-.9,4.1-.9.7-1.3.3-1.5-.3-.2-.6,1.9-1.5,1-3.1-.8-1.6-2.4-.9-3.1-.1-.7.7.4,1.9.7,3,.3,1.2-2.5,1.1-3.5.7-1.1-.4-1.4-3.1-1.9-3.2-.5-.2-1.4,1.4-2.9,1-1.5-.4-.2-1.3.2-2.4.5-1.1,1.2-3.6.3-4-.1,0-.2,0-.3,0ZM8,28.8c-.7,0-1.3.6-1.3,1.3s.6,1.3,1.3,1.3,1.3-.6,1.3-1.3-.6-1.3-1.3-1.3,0,0,0,0ZM56.9,30.5c-.7,0-1.3.6-1.3,1.3s.6,1.3,1.3,1.3,1.3-.6,1.3-1.3-.6-1.3-1.3-1.3,0,0,0,0Z"/>
    <path class="st4" d="M28.5,6.9c-2.7,0-4.9,2.2-4.9,4.8v.9c0-2.7,2.2-4.8,4.9-4.8h9.8c2.7,0,4.9,2.2,4.9,4.8v-.9c0-2.7-2.2-4.8-4.9-4.8h-9.8Z"/>
  </g>
  <g>
    <path class="st1" d="M52.2,62.5H14.6c-2.3,0-4.2-1.9-4.2-4.1V10.6c0-2.3,1.9-4.1,4.2-4.1h37.6c2.3,0,4.2,1.9,4.2,4.1v47.7c0,2.3-1.9,4.1-4.2,4.1Z"/>
    <path class="st18" d="M52.2,61.5H14.6c-2.3,0-4.2-1.9-4.2-4.1V9.6c0-2.3,1.9-4.1,4.2-4.1h37.6c2.3,0,4.2,1.9,4.2,4.1v47.7c0,2.3-1.9,4.1-4.2,4.1Z"/>
    <path class="st2" d="M53.1,10.5L17.6,45.3v10.2h10.4L63.5,20.7l-3.1-3h0l-4.3-4.2-3-3ZM17.7,17.5v.8l5.2,6.4-5.3,6v.8h11l.2-3.9h-.7l-.6,2c-.2,0-.9,0-2,.1-1.1,0-2,0-2.8,0h-2.9l4.9-5.5v-.5l-4.3-5.3h3c1.4,0,2.4,0,3.3.1l.5,2.3h.7v-3.4h-10.1Z"/>
    <g class="st14">
      <path class="st3" d="M49.6,51.5c-2.5,0-4.5,2-4.5,4.4v5.3c0,.4,0,.9.2,1.3l11-10.8c-.4-.1-.8-.2-1.3-.2h-5.5Z"/>
    </g>
    <g class="st15">
      <path class="st7" d="M49.6,50.5c-2.5,0-4.5,2-4.5,4.4v5.3c0,.4,0,.9.2,1.3l11-10.8c-.4-.1-.8-.2-1.3-.2h-5.5Z"/>
    </g>
    <path class="st17" d="M17.6,54.5v-10.2l10.4,10.2h-10.4Z"/>
    <path class="st8" d="M17.6,54.5v-4.1s4.2,4.1,4.2,4.1h-4.2Z"/>
    <path class="st16" d="M27,53.5l-8.3-8.2L54.1,10.5l8.3,8.2L27,53.5Z"/>
    <path class="st3" d="M10.6,9.5c-1.2,0-2.2,1-2.2,2.2s1,2.2,2.2,2.2,2.2-1,2.2-2.2-1-2.2-2.2-2.2ZM20.7,9.5c-1.2,0-2.2,1-2.2,2.2s1,2.2,2.2,2.2,2.2-1,2.2-2.2-1-2.2-2.2-2.2ZM30.8,9.5c-1.2,0-2.2,1-2.2,2.2s1,2.2,2.2,2.2,2.2-1,2.2-2.2-1-2.2-2.2-2.2ZM40.9,9.5c-1.2,0-2.2,1-2.2,2.2s1,2.2,2.2,2.2,2.2-1,2.2-2.2-1-2.2-2.2-2.2ZM51,9.5c-1.2,0-2.2,1-2.2,2.2s1,2.2,2.2,2.2,2.2-1,2.2-2.2-1-2.2-2.2-2.2ZM61.1,9.5c-1.2,0-2.2,1-2.2,2.2s1,2.2,2.2,2.2,2.2-1,2.2-2.2-1-2.2-2.2-2.2ZM1.3,9.6s0,0,0,0v4c.9-.3,1.4-1.1,1.4-2.1,0-.9-.6-1.7-1.4-2.1Z"/>
    <path class="st20" d="M20.7,47.3l-3.1-3L53.1,9.5l3,3L20.7,47.3Z"/>
    <path class="st9" d="M24.9,51.5l3.1,3L63.5,19.7l-3.1-3L24.9,51.5Z"/>
    <path class="st0" d="M24.7,22.7v.5l-4.9,5.5h2.9c.8,0,1.7,0,2.8,0,1.1,0,1.8,0,2-.1l.6-2h.7l-.2,3.9h-11v-.8l5.3-6-5.2-6.4v-.8h10.1v3.4h-.7l-.5-2.3c-.8,0-1.8-.1-3.3-.1h-3l4.3,5.3Z"/>
    <path class="st5" d="M14.6,5.5c-2.3,0-4.2,1.9-4.2,4.1v1c0-2.3,1.9-4.1,4.2-4.1h37.6c2.3,0,4.2,1.9,4.2,4.1v-1c0-2.3-1.9-4.1-4.2-4.1H14.6Z"/>
  </g>
</svg>