<?xml version="1.0" encoding="UTF-8"?>
<svg id="_图层_1" xmlns="http://www.w3.org/2000/svg" version="1.1" viewBox="0 0 64 64" width="48" height="48">
  <!-- Generator: Adobe Illustrator 29.0.1, SVG Export Plug-In . SVG Version: 2.1.0 Build 192)  -->
  <defs>
    <style>
      .st0, .st1, .st2, .st3 {
        display: none;
      }

      .st0, .st4, .st3 {
        isolation: isolate;
        opacity: .2;
      }

      .st5, .st1 {
        fill: #f3ae16;
      }

      .st6 {
        fill: #fde9b6;
      }

      .st2 {
        fill: #e8a30c;
      }

      .st3 {
        fill: #fff;
      }

      .st7 {
        fill: #fafafa;
      }
    </style>
  </defs>
  <path class="st5" d="M50.3,64H13.9C6.3,64,.2,57.8.2,50.3V13.8C.2,6.2,6.3,0,13.9,0h36.5c7.5,0,13.7,6.2,13.7,13.7v36.5c0,7.5-6.1,13.7-13.7,13.7h0Z"/>
  <g>
    <path class="st0" d="M11.6,1.2h29.1l23.3,18.3v36.6c0,5.1-5.2,9.1-11.6,9.1H11.6c-6.5,0-11.6-4.1-11.6-9.1V10.4C0,5.3,5.2,1.2,11.6,1.2Z"/>
    <path class="st1" d="M11.6,0h29.1l23.3,18.3v36.6c0,5.1-5.2,9.1-11.6,9.1H11.6c-6.5,0-11.6-4.1-11.6-9.1V9.2C0,4.1,5.2,0,11.6,0Z"/>
    <path class="st2" d="M46.6,0h17.5v13.7L46.6,0Z"/>
    <path class="st4" d="M20.4,24.1c-6.4,0-11.6,4.1-11.6,9.1s5.2,9.1,11.6,9.1c.2,0,.3,0,.5,0l-6,7.4c-.7.8,0,1.8,1.2,1.8h26.2c1.2,0,1.9-1,1.2-1.8l-4.1-5.1h13.1c1.6,0,2.9-1,2.9-2.3v-11.4c0-1.3-1.3-2.3-2.9-2.3h-14.6c-1.6,0-2.9,1-2.9,2.3v8.4l-3.3-4c.2-.7.3-1.4.3-2.2,0-5.1-5.2-9.1-11.6-9.1h0ZM37.9,30.9h14.6v11.4h-14.6v-11.4Z"/>
    <path class="st7" d="M37.9,27.5c-1.6,0-2.9,1-2.9,2.3v11.4c0,1.3,1.3,2.3,2.9,2.3h14.6c1.6,0,2.9-1,2.9-2.3v-11.4c0-1.3-1.3-2.3-2.9-2.3h-14.6ZM37.9,29.8h14.6v11.4h-14.6v-11.4Z"/>
    <ellipse class="st7" cx="20.4" cy="32.1" rx="11.6" ry="9.1"/>
    <path class="st6" d="M29.1,32.1c-.5,0-.9.2-1.2.5l-13.1,16c-.7.8,0,1.8,1.2,1.8h26.2c1.2,0,1.9-1,1.2-1.8l-13.1-16c-.3-.3-.7-.5-1.2-.5Z"/>
    <path class="st3" d="M46.6,0l1.5,1.1h16V0h-17.5Z"/>
    <path class="st3" d="M11.6,0C5.2,0,0,4.1,0,9.2v1.1C0,5.3,5.2,1.2,11.6,1.2h29.1l23.3,18.3v-1.1L40.8,0H11.6Z"/>
  </g>
</svg>