<?xml version="1.0" encoding="UTF-8"?>
<svg id="_图层_1" xmlns="http://www.w3.org/2000/svg" version="1.1" viewBox="0 0 64 64" width="48" height="48">
  <!-- Generator: Adobe Illustrator 29.0.1, SVG Export Plug-In . SVG Version: 2.1.0 Build 192)  -->
  <defs>
    <style>
      .st0, .st1, .st2 {
        fill: #fff;
      }

      .st3, .st4 {
        display: none;
      }

      .st3, .st5 {
        fill: #ea0056;
      }

      .st6 {
        fill: #0d55cf;
      }

      .st7 {
        fill: #1697fe;
      }

      .st8 {
        fill: #ef5350;
      }

      .st9, .st1 {
        opacity: .2;
      }

      .st9, .st1, .st2 {
        isolation: isolate;
      }

      .st2 {
        opacity: .1;
      }
    </style>
  </defs>
  <path class="st0" d="M50.5,64H13.9C6.3,64,0,57.8,0,50.3V13.7C0,6.2,6.3,0,13.8,0h36.6c7.5,0,13.7,6.2,13.7,13.7v36.6c0,7.5-6.2,13.7-13.7,13.7h.1Z"/>
  <g class="st4">
    <path class="st3" d="M10.6,0h42.9c5.8,0,10.6,4.9,10.6,10.9v42.2c0,6-4.7,10.9-10.6,10.9H10.6c-5.8,0-10.6-4.9-10.6-10.9V10.9C0,4.9,4.7,0,10.6,0Z"/>
    <path class="st5" d="M1.5,32c0,17.1,13.4,31,30,31s30-13.9,30-31S48.1,1,31.5,1,1.5,14.8,1.5,32Z"/>
    <path class="st0" d="M44.8,22.8s0,0,0,0t0,0c-.7,0-1.3.6-1.3,1.4v20c0,1.4-1.1,2.6-2.5,2.6h-19.1c-1.4,0-2.5-1.2-2.5-2.6v-20c0-.8-.6-1.4-1.3-1.4h0c-.7,0-1.3.6-1.3,1.4v23.6c0,3.7,2.6,6.6,5.7,6.6h17.8c3.2,0,5.7-3,5.7-6.6h0v-23.6c0-.8-.6-1.4-1.3-1.4h0ZM19,15.7c.3.5,1,.6,1.4.2,0,0,5.5-4.2,10.8-4.2h.1c5.4,0,11.1,4.2,11.2,4.3.2.1.4.2.6.2.3,0,.6-.2.8-.4.1-.2.2-.4.2-.6,0-.3-.1-.7-.4-.9-.2-.2-6.3-4.6-12.3-4.6-6.1,0-12,4.5-12.2,4.7-.3.2-.4.5-.4.8,0,.2,0,.5.2.7h0Z"/>
    <path class="st0" d="M40.8,19.4c-.2-.1-4.7-3.4-9.3-3.5-4.6,0-9.1,3.4-9.3,3.5-.3.2-.4.5-.4.8,0,.2,0,.5.2.7.3.5,1,.6,1.4.2,0,0,4.1-3.1,8-3.1,4,0,8.1,3.1,8.2,3.1.2.1.4.2.6.2.3,0,.6-.2.8-.4.1-.2.2-.4.2-.6,0-.3-.2-.7-.4-.9h0ZM31.5,22.2c-1.7,0-3.1,1.4-3.1,3.2s1.4,3.2,3.1,3.2,3.1-1.4,3.1-3.2-1.4-3.2-3.1-3.2Z"/>
  </g>
  <g>
    <path class="st9" d="M32.1,3.8c-12.2,0-22,9.8-22,22v8.3h6v-8.3c0-9.1,6.9-16,16-16s16,6.9,16,16v8.3h6v-8.3c0-12.2-9.8-22-22-22Z"/>
    <path class="st9" d="M16.6,23.8c-.1,0-.2,0-.4,0l-11.2,3.8c-.6.2-1,.8-1,1.5v15.2c0,.7.4,1.3,1,1.5l11.2,3.8c.8.3,1.5-.2,1.8-1.1,0-.1,0-.3,0-.5v-22.8c0-.9-.6-1.6-1.4-1.6,0,0,0,0,0,0ZM47.5,23.8c-.8,0-1.4.7-1.5,1.6,0,0,0,0,0,0v22.8c0,.9.6,1.6,1.4,1.6.1,0,.3,0,.4,0l11.2-3.8c.6-.2,1-.8,1-1.5v-15.2c0-.7-.4-1.3-1-1.5l-11.2-3.8c-.1,0-.2,0-.4,0Z"/>
    <path class="st6" d="M32.1,2.8c-12.2,0-22,9.8-22,22v8.3h6v-8.3c0-9.1,6.9-16,16-16s16,6.9,16,16v8.3h6v-8.3c0-12.2-9.8-22-22-22Z"/>
    <path class="st2" d="M32.1,2.8c-12.2,0-22,9.8-22,22v1c0-12.2,9.8-22,22-22s22,9.8,22,22v-1c0-12.2-9.8-22-22-22Z"/>
    <path class="st7" d="M16.6,22.8c-.1,0-.2,0-.4,0l-11.2,3.8c-.6.2-1,.8-1,1.5v15.2c0,.7.4,1.3,1,1.5l11.2,3.8c.8.3,1.5-.2,1.8-1.1,0-.1,0-.3,0-.5v-22.8c0-.9-.6-1.6-1.4-1.6,0,0,0,0,0,0ZM47.5,22.8c-.8,0-1.4.7-1.5,1.6,0,0,0,0,0,0v22.8c0,.9.6,1.6,1.4,1.6.1,0,.3,0,.4,0l11.2-3.8c.6-.2,1-.8,1-1.5v-15.2c0-.7-.4-1.3-1-1.5l-11.2-3.8c-.1,0-.2,0-.4,0Z"/>
    <path class="st9" d="M36.1,11.8l-8.6,32.9-5.7-15.8-8,11.9v.2c0,0,6-5.1,6-5.1l8.2,21.8,8.6-32,5.4,16,7.1-9.7h0l-4.8,2.9-8.3-23.2Z"/>
    <path class="st8" d="M36.1,10.8l-8.6,32.9-5.7-15.8-8,11.9v.2c0,0,6-5.1,6-5.1l8.2,21.8,8.6-32,5.4,16,7.1-9.7h0l-4.8,2.9-8.3-23.2Z"/>
    <path class="st1" d="M16.6,22.8c-.1,0-.2,0-.4,0l-11.2,3.8c-.6.2-1,.8-1,1.5v1c0-.7.4-1.3,1-1.5l11.2-3.8c.1,0,.2,0,.4,0,.8,0,1.4.7,1.5,1.6,0,0,0,0,0,0v-1c0-.9-.6-1.6-1.4-1.6,0,0,0,0,0,0ZM47.5,22.8c-.8,0-1.4.7-1.5,1.6,0,0,0,0,0,0v1c0-.9.6-1.6,1.4-1.6,0,0,0,0,0,0,.1,0,.2,0,.4,0l11.2,3.8c.6.2,1,.8,1,1.5v-1c0-.7-.4-1.3-1-1.5l-11.2-3.8c-.1,0-.2,0-.4,0Z"/>
    <path class="st1" d="M36.1,10.8l-8.6,32.9-5.7-15.8-8,11.9v.2c0,0,1.2-1.1,1.2-1.1l6.7-10.1,5.7,15.8,8.6-32.9,8.3,23.2,3.5-2.1,1.3-1.8-4.8,2.9-8.3-23.2Z"/>
  </g>
</svg>