<?xml version="1.0" encoding="UTF-8"?>
<svg id="_图层_1" data-name="图层_1" xmlns="http://www.w3.org/2000/svg" version="1.1" viewBox="0 0 64 64" width="48" height="48">
  <!-- Generator: Adobe Illustrator 29.0.1, SVG Export Plug-In . SVG Version: 2.1.0 Build 192)  -->
  <defs>
    <style>
      .st0 {
        fill: #17c8d9;
      }

      .st1, .st2 {
        fill: #fff;
      }

      .st3 {
        opacity: 0;
      }

      .st3, .st4, .st2 {
        isolation: isolate;
      }

      .st4, .st2 {
        opacity: 0;
      }

      .st5 {
        fill: #0f303f;
      }

      .st6 {
        fill: #fdc00f;
      }
    </style>
  </defs>
  <rect class="st0" x="1.1" y="1.3" width="61.7" height="61.7" rx="11.7" ry="11.7"/>
  <ellipse class="st4" cx="32.8" cy="32.6" rx="23" ry="23" transform="translate(-.2 .2) rotate(-.4)"/>
  <ellipse class="st0" cx="32.8" cy="31.7" rx="23" ry="23" transform="translate(-.2 .2) rotate(-.4)"/>
  <path class="st3" d="M45,18.3l-27,5v.6c.1,0,.7,3.3.7,3.3v.5c0,0,27.1-5,27.1-5v-.5c0,0-.7-3.3-.7-3.3v-.6ZM18.8,27.7v.7s0,0,0,0v1.4s0,2.1,0,2.1v11.1c0,1,1,1.8,2,1.8l24.1-.2c1,0,1.9-.8,1.9-1.8v-10.5c0,0,0-2.8,0-2.8v-2.1s-27.9.2-27.9.2Z"/>
  <path class="st5" d="M46.8,42.1c0,1-.9,1.8-1.9,1.8l-24.1.2c-1,0-1.9-.8-1.9-1.8v-13.3c0-1,.8-1.8,1.8-1.8l24.1-.2c1,0,1.9.8,1.9,1.8v13.3Z"/>
  <path class="st1" d="M18.8,26.9l27.9-.2v4.9s-27.9.2-27.9.2v-4.9Z"/>
  <path class="st5" d="M23.4,27.6l-3.3,3.6h3.4s3.3-3.6,3.3-3.6h-3.4ZM37.3,27.5l-3.3,3.6h3.4s3.3-3.6,3.3-3.6h-3.4ZM28,27.5l-3.3,3.6h3.4s3.3-3.6,3.3-3.6h-3.4s0,0,0,0ZM32.7,27.5l-3.3,3.6h3.4s3.3-3.6,3.3-3.6h-3.4ZM42,27.4l-3.3,3.6h3.4s3.3-3.6,3.3-3.6h-3.4ZM46.7,27.4l-3.4,3.6h3.4s0-3.6,0-3.6h0ZM18.8,27.6v3.6s0,0,0,0l3.3-3.6h-3.4Z"/>
  <polygon class="st1" points="18 22.5 45 17.5 45.8 21.9 18.8 26.9 18 22.5"/>
  <path class="st5" d="M37.5,19.5l3.8,2.7,3.3-.6-3.8-2.7-3.3.6ZM23.9,22l3.8,2.7,3.3-.6-3.8-2.7-3.3.6ZM33,20.3l3.8,2.7,3.3-.6-3.8-2.7-3.3.6ZM28.4,21.2l3.8,2.7,3.3-.6-3.8-2.7-3.3.6ZM19.4,22.8l3.8,2.7,3.3-.6-3.8-2.7-3.3.6ZM18.1,23.1l.6,3.3,3.3-.6-3.8-2.7h0ZM41.9,18.7l3.8,2.7h0s-.6-3.3-.6-3.3l-3.2.6Z"/>
  <path class="st6" d="M45.1,37h0s0-3.7,0-3.7l-24.6.2v9c0,0,24.7-.2,24.7-.2v-4.9s0,0,0,0v-.4ZM44.7,33.7v3.3s-9,0-9,0v-3.3s9,0,9,0ZM35.3,33.7v3.3s-10.3,0-10.3,0v-3.3s10.3,0,10.3,0ZM20.9,42.1v-8.3c0,0,3.6,0,3.6,0v8.3c0,0-3.6,0-3.6,0ZM25,42.1v-4.5s10.2,0,10.2,0v4.5s-10.2,0-10.2,0ZM44.8,41.9h-9.1c0,0,0-4.5,0-4.5h9.1c0,0,0,4.5,0,4.5h0Z"/>
  <path class="st2" d="M32.6,8.8c-12.7,0-22.9,10.4-22.8,23.1,0,.1,0,.3,0,.4.1-12.5,10.3-22.6,22.8-22.7,12.4,0,22.7,9.8,23.1,22.2,0,0,0-.1,0-.2,0-12.7-10.4-22.9-23.1-22.8Z"/>
</svg>
