<?xml version="1.0" encoding="UTF-8"?>
<svg id="_图层_1" xmlns="http://www.w3.org/2000/svg" version="1.1" viewBox="0 0 64 64" width="48" height="48">
  <!-- Generator: Adobe Illustrator 29.0.1, SVG Export Plug-In . SVG Version: 2.1.0 Build 192)  -->
  <defs>
    <style>
      .st0, .st1 {
        fill: #fecd38;
      }

      .st2 {
        fill: #48a9ff;
      }

      .st3 {
        fill: #df574d;
      }

      .st4, .st5, .st6, .st7, .st8, .st9 {
        opacity: .2;
      }

      .st4, .st5, .st10, .st11, .st12, .st7, .st8, .st9 {
        isolation: isolate;
      }

      .st4, .st13, .st1, .st14, .st9, .st15 {
        display: none;
      }

      .st16 {
        fill: #486afb;
      }

      .st17 {
        fill: #848484;
      }

      .st18 {
        fill: #7d7d7d;
      }

      .st5 {
        fill-rule: evenodd;
      }

      .st19 {
        fill: #e97e10;
      }

      .st20, .st8, .st9 {
        fill: #fff;
      }

      .st21 {
        fill: #bf3667;
      }

      .st13 {
        fill: #f58411;
      }

      .st11 {
        opacity: .1;
      }

      .st12 {
        opacity: .3;
      }

      .st22 {
        fill: #0056c8;
      }

      .st23 {
        fill: #b08458;
      }

      .st24 {
        fill: #e4e4e4;
      }

      .st25 {
        fill: #5d5d5d;
      }

      .st15 {
        fill: #ff5562;
      }

      .st26 {
        fill: #8f6943;
      }

      .st27 {
        fill: #9d9d9d;
      }

      .st28 {
        fill: #323232;
      }
    </style>
  </defs>
  <path class="st0" d="M50.3,64H13.8c-7.6,0-13.8-6.2-13.8-13.7V13.7C0,6.2,6.2,0,13.7,0h36.5c7.5,0,13.7,6.2,13.7,13.7v36.6c0,7.5-6.2,13.7-13.7,13.7h0Z"/>
  <g class="st14">
    <path class="st7" d="M32.5,6.2c-14.5,0-26.2,11.5-26.2,25.8s11.7,25.8,26.2,25.8,26.2-11.5,26.2-25.8S47,6.2,32.5,6.2ZM32.5,20.9c6.2,0,11.2,5,11.2,11.1s-5,11.1-11.2,11.1-11.2-5-11.2-11.1,5-11.1,11.2-11.1Z"/>
    <path class="st17" d="M32.5,17.2c-7.8,0-14,6.2-14,13.8s6.3,13.8,14,13.8,14-6.2,14-13.8-6.3-13.8-14-13.8ZM32.5,25.5c3.1,0,5.6,2.5,5.6,5.5s-2.5,5.5-5.6,5.5-5.6-2.5-5.6-5.5,2.5-5.5,5.6-5.5Z"/>
    <path class="st24" d="M32.5,5.3c-14.5,0-26.2,11.5-26.2,25.8s11.7,25.8,26.2,25.8,26.2-11.5,26.2-25.8S47,5.3,32.5,5.3ZM32.5,20c6.2,0,11.2,5,11.2,11.1s-5,11.1-11.2,11.1-11.2-5-11.2-11.1,5-11.1,11.2-11.1Z"/>
    <path class="st8" d="M32.5,5.3c-14.5,0-26.2,11.5-26.2,25.8s0,.2,0,.3c.3-14,11.9-25.2,26.2-25.2s25.9,11.2,26.2,25.2c0-.1,0-.2,0-.3,0-14.3-11.7-25.8-26.2-25.8ZM21.3,32c0,.3,0,.6,0,.9,0,.2,0,.3,0,.5,0-.2,0-.3,0-.5.5,5.7,5.3,10.1,11.2,10.1,5.8,0,10.7-4.4,11.2-10.1,0,.2,0,.4,0,.5,0-.2,0-.4,0-.5,0-.3,0-.6,0-.9-.5,5.7-5.3,10.1-11.2,10.1-5.8,0-10.7-4.4-11.2-10.1Z"/>
    <path class="st5" d="M62.4,45.7c-.4,7.8-7,14-14.9,14-7.9,0-14.4-6-14.9-13.7,0,.3,0,.5,0,.8,0,8.1,6.7,14.8,15,14.8s15-6.6,15-14.8c0-.4,0-.7,0-1.1h0Z"/>
    <ellipse class="st22" cx="47.5" cy="45.8" rx="15" ry="14.8"/>
    <path class="st20" d="M40,49.9v3.3h3.3l8.4-8.3-3.3-3.3-8.4,8.3ZM54.7,42c.4-.3.4-.9,0-1.2l-2.1-2.1c-.4-.3-.9-.3-1.3,0l-1.7,1.7,3.3,3.3,1.8-1.7Z"/>
  </g>
  <g class="st14">
    <path class="st15" d="M16.7,0h30.6c11.1,0,16.7,5.6,16.7,16.7v30.6c0,11.1-5.6,16.7-16.7,16.7h-30.6c-11.1,0-16.7-5.6-16.7-16.7v-30.6C0,5.6,5.6,0,16.7,0Z"/>
    <path class="st20" d="M34.9,7c2.7,6.4-9.7,10.3-10.8,15.6-1.1,4.9,7.3,10.6,7.3,10.6-1.3-2-2.2-3.7-3.5-6.9-2.2-5.3,13.2-10.1,7-19.3ZM43,15.8s-10.8.7-11.4,7.8c-.3,3.2,2.9,4.8,2.9,7.1,0,1.9-1.9,3.4-1.9,3.4,0,0,3.5-.6,4.6-3.5,1.2-3.2-2.3-5.3-2-7.9.3-2.4,7.7-6.9,7.7-6.9ZM45.7,32.1c-1.1,0-2.4.4-3.5,1.2,2.2-.5,4.1.9,4.1,2.5,0,3.6-5.2,7-5.2,7,0,0,8-.9,8-6.9s-1.5-3.8-3.4-3.9ZM24.5,32.2c-2.8,0-8.4.6-8.4,2.7s13,3.2,22.2,1.4c0,0,2.5-1.8,3.2-2.4-6.1,1.3-20,1.5-20,.4s4.4-2,4.4-2c0,0-.6,0-1.6,0h0ZM23.6,37.7c-1.5,0-3.8,1.2-3.8,2.3,0,2.3,11.5,4.1,20,.7l-2.9-1.8c-5.7,1.9-16.4,1.3-13.2-1.3ZM25.1,43c-2.1,0-3.4,1.3-3.4,2.3,0,3,12.4,3.3,17.4.2l-3.1-2c-3.7,1.6-12.9,1.8-10.8-.5h0ZM18.1,45.7c-3.4,0-5.6,1.5-5.6,2.8,0,6.9,34.8,6.6,34.8-.5s-1.4-1.7-1.9-2c2.8,6.7-28.4,6.2-28.4,2.2s2.3-1.8,4.4-1.4l-1.8-1c-.5,0-1-.1-1.6-.1,0,0,0,0,0,0ZM51,50.3c-5.3,5.1-18.7,7-32.2,3.8,13.5,5.6,32.1,2.5,32.2-3.8Z"/>
  </g>
  <g class="st14">
    <path class="st4" d="M0,59.6v2.3C0,63.7,1.4,65.1,3.2,65.1h57.5c1.8,0,3.2-1.4,3.2-3.2v-2.3c0,1.8-1.4,3.2-3.2,3.2H3.2C1.4,62.8,0,61.4,0,59.6H0Z"/>
    <path class="st13" d="M3.2,0h57.5c1.8,0,3.2,1.4,3.2,3.2v57.6c0,1.8-1.4,3.2-3.2,3.2H3.2C1.4,63.9,0,62.5,0,60.7V3.2C0,1.4,1.4,0,3.2,0Z"/>
    <path class="st9" d="M3.2,0C1.4,0,0,1.4,0,3.2v1.1C0,2.6,1.4,1.1,3.2,1.1h57.5c1.8,0,3.2,1.4,3.2,3.2v-1.1c0-1.8-1.4-3.2-3.2-3.2H3.2Z"/>
    <g class="st7">
      <path d="M31.9,14.8c-3.8,0-6.8,3.1-6.8,6.9s.1,1,.2,1.5l-7.3,4.6c-1.2-.9-2.7-1.5-4.3-1.5-3.8,0-6.8,3.1-6.8,6.9s3.1,6.9,6.8,6.9,3.1-.6,4.3-1.5l7.3,4.6c-.1.5-.2,1-.2,1.5,0,3.8,3.1,6.9,6.8,6.9s6.8-3.1,6.8-6.9-3.1-6.9-6.8-6.9-3.1.6-4.3,1.5l-7.3-4.6c.1-.5.2-1,.2-1.5s-.1-1-.2-1.5l7.3-4.6c1.2.9,2.7,1.5,4.3,1.5,3.8,0,6.8-3.1,6.8-6.9s-3.1-6.9-6.8-6.9h0ZM47.9,14.8c-3.8,0-6.8,3.1-6.8,6.9s3.1,6.9,6.8,6.9,6.8-3.1,6.8-6.9-3.1-6.9-6.8-6.9ZM47.9,37.7c-3.8,0-6.8,3.1-6.8,6.9s3.1,6.9,6.8,6.9,6.8-3.1,6.8-6.9-3.1-6.9-6.8-6.9Z"/>
    </g>
    <g class="st10">
      <path class="st20" d="M31.9,13.7c-3.8,0-6.8,3.1-6.8,6.9s.1,1,.2,1.5l-7.3,4.6c-1.2-.9-2.7-1.5-4.3-1.5-3.8,0-6.8,3.1-6.8,6.9s3.1,6.9,6.8,6.9,3.1-.6,4.3-1.5l7.3,4.6c-.1.5-.2,1-.2,1.5,0,3.8,3.1,6.9,6.8,6.9s6.8-3.1,6.8-6.9-3.1-6.9-6.8-6.9-3.1.6-4.3,1.5l-7.3-4.6c.1-.5.2-1,.2-1.5s-.1-1-.2-1.5l7.3-4.6c1.2.9,2.7,1.5,4.3,1.5,3.8,0,6.8-3.1,6.8-6.9s-3.1-6.9-6.8-6.9h0ZM47.9,13.7c-3.8,0-6.8,3.1-6.8,6.9s3.1,6.9,6.8,6.9,6.8-3.1,6.8-6.9-3.1-6.9-6.8-6.9ZM47.9,36.5c-3.8,0-6.8,3.1-6.8,6.9s3.1,6.9,6.8,6.9,6.8-3.1,6.8-6.9-3.1-6.9-6.8-6.9Z"/>
    </g>
  </g>
  <g class="st14">
    <path class="st7" d="M59.7,36.2c-1.9,13.6-13.5,24-27.7,24s-16.4-3.9-21.5-10.1l-3.6,3.6c-.3.3-.8.5-1.2.5-.9,0-1.7-.8-1.7-1.7v-14.6c0-.9.8-1.7,1.7-1.7h14.6c.9,0,1.7.8,1.7,1.7,0,.4-.2.9-.5,1.2l-2.5,2.5c.1.2.2.3.4.5.2.3.4.5.7.8,0,0,.1.2.2.3.2.2.4.4.6.6.2.2.4.4.7.6.2.2.4.4.6.5,0,0,0,0,0,0,.4.3.8.6,1.2.8.2.1.4.3.7.4.4.2.8.4,1.2.6.3.1.5.2.8.3.4.2.8.3,1.2.4.2,0,.4.1.6.2.5.1,1.1.3,1.7.4.2,0,.4,0,.5,0,.6,0,1.3.1,1.9.1,7.3,0,13.7-4.9,15.5-12h12.2Z"/>
    <circle class="st20" cx="32" cy="31.2" r="22"/>
    <path class="st11" d="M32,4.2c8.7,0,16.4,3.9,21.5,10.1l3.6-3.6c.3-.3.8-.5,1.2-.5.9,0,1.7.8,1.7,1.7v14.6c0,.9-.8,1.7-1.7,1.7h-14.6c-.9,0-1.7-.8-1.7-1.7,0-.4.2-.9.5-1.2l2.5-2.5s0,0,0,0c-.2-.3-.4-.6-.7-.8-.3-.3-.6-.7-.9-1-.2-.2-.3-.3-.5-.5-.4-.4-.9-.7-1.3-1.1-.2-.1-.4-.3-.6-.4-.5-.3-1-.6-1.5-.9-.2-.1-.4-.2-.6-.3-.5-.3-1.1-.5-1.7-.7-.2,0-.4-.1-.5-.2-.6-.2-1.3-.4-1.9-.5-.1,0-.2,0-.3,0-.7-.1-1.5-.2-2.3-.2-7.3,0-13.7,4.9-15.5,12H4.3c1.9-13.6,13.5-24,27.7-24Z"/>
    <path class="st2" d="M32,3.2c8.7,0,16.4,3.9,21.5,10.1l3.6-3.6c.3-.3.8-.5,1.2-.5.9,0,1.7.8,1.7,1.7v14.6c0,.9-.8,1.7-1.7,1.7h-14.6c-.9,0-1.7-.8-1.7-1.7,0-.4.2-.9.5-1.2l2.5-2.5s0,0,0,0c-.2-.3-.4-.6-.7-.8-.3-.3-.6-.7-.9-1-.2-.2-.3-.3-.5-.5-.4-.4-.9-.7-1.3-1.1-.2-.1-.4-.3-.6-.4-.5-.3-1-.6-1.5-.9-.2-.1-.4-.2-.6-.3-.5-.3-1.1-.5-1.7-.7-.2,0-.4-.1-.5-.2-.6-.2-1.3-.4-1.9-.5-.1,0-.2,0-.3,0-.7-.1-1.5-.2-2.3-.2-7.3,0-13.7,4.9-15.5,12H4.3C6.3,13.6,17.9,3.2,32,3.2Z"/>
    <path class="st16" d="M59.7,35.2c-1.9,13.6-13.5,24-27.7,24s-16.4-3.9-21.5-10.1l-3.6,3.6c-.3.3-.8.5-1.2.5-.9,0-1.7-.8-1.7-1.7v-14.6c0-.9.8-1.7,1.7-1.7h14.6c.9,0,1.7.8,1.7,1.7,0,.4-.2.9-.5,1.2l-2.5,2.5c.1.2.2.3.4.5.2.3.4.5.7.8,0,0,.1.2.2.3.2.2.4.4.6.6.2.2.4.4.7.6.2.2.4.4.6.5,0,0,0,0,0,0,.4.3.8.6,1.2.8.2.1.4.3.7.4.4.2.8.4,1.2.6.3.1.5.2.8.3.4.2.8.3,1.2.4.2,0,.4.1.6.2.5.1,1.1.3,1.7.4.2,0,.4,0,.5,0,.6,0,1.3.1,1.9.1,7.3,0,13.7-4.9,15.5-12h12.2Z"/>
    <path class="st8" d="M32,3.2C17.9,3.2,6.3,13.6,4.3,27.2h.2C6.8,14.1,18.2,4.2,32,4.2s16.4,3.9,21.5,10.1l3.6-3.6c.3-.3.8-.5,1.2-.5.9,0,1.7.8,1.7,1.7v-1c0-.9-.7-1.7-1.7-1.7-.5,0-.9.2-1.2.5l-3.6,3.6c-5.1-6.2-12.9-10.1-21.5-10.1Z"/>
  </g>
  <g class="st14">
    <ellipse class="st7" cx="32" cy="48.9" rx="6.9" ry="6.9"/>
    <ellipse class="st26" cx="32" cy="48.1" rx="6.9" ry="6.9"/>
    <path class="st7" d="M11.9,7.2c-.2,0-.3,0-.5,0-.2,0-.4.1-.5.2-1.1.9-.8,4.5,1.2,12,1.1,4.2,2,6.4,3.6,8.8,1,1.6,1.5,2.1,3.2,3.8,1.5,1.7,3.4,4,3.5,6-.4,3.9-3.3,6-3.5,9.3,0,4,1.9,6.8,5.9,6.8,2.5.3,4.9-3,7.1-3.5,2.3.5,4.6,3.7,7.1,3.5,4,0,5.9-2.8,5.9-6.8-.2-3.3-3-5.4-3.5-9.3,0-2,2-4.3,3.5-6,1.7-1.7,2.2-2.3,3.2-3.8,1.6-2.4,2.5-4.6,3.6-8.8,2-7.5,2.3-11.1,1.2-12-.1-.1-.3-.2-.5-.2-.1,0-.3,0-.5,0-.5,0-1.3.3-2.1.7-1.7.9-3.5,2.1-5.4,4-2.9,2.8-3.9,4.4-7.3,11.3-1,2.1-2.3,4.1-3.8,6.3-.4.3-1.4.3-1.4.3,0,0-1,0-1.4-.3-1.5-2.2-2.8-4.2-3.8-6.3-3.4-6.9-4.4-8.5-7.3-11.3-1.9-1.9-3.6-3.1-5.4-4-.9-.4-1.6-.7-2.1-.7Z"/>
    <path class="st7" d="M30,48.1h1.3c.4,0,.7.3.7.7v3.4c0,.4-.3,1.2-.7,1.2h-1.3c-.4,0-.7-.3-.7-.7v-3.9c0-.4.3-.7.7-.7Z"/>
    <path class="st20" d="M30,47.2h1.3c.4,0,.7.3.7.7v3.4c0,.4-.3,1.2-.7,1.2h-1.3c-.4,0-.7-.3-.7-.7v-3.9c0-.4.3-.7.7-.7Z"/>
    <path class="st7" d="M32.6,48.1h1.3c.4,0,.7.3.7.7v3.9c0,.4-.3.7-.7.7h-1.3c-.4,0-.7-.8-.7-1.2v-3.4c0-.4.3-.7.7-.7Z"/>
    <path class="st20" d="M32.6,47.2h1.3c.4,0,.7.3.7.7v3.9c0,.4-.3.7-.7.7h-1.3c-.4,0-.7-.8-.7-1.2v-3.4c0-.4.3-.7.7-.7Z"/>
    <path class="st23" d="M11.9,6.4c-.2,0-.3,0-.5,0-.2,0-.4.1-.5.2-1.1.9-.8,4.5,1.2,12,1.1,4.2,2,6.4,3.6,8.8,1,1.6,1.5,2.1,3.2,3.8,1.5,1.7,3.4,4,3.5,6-.4,3.9-3.3,6-3.5,9.3,0,4,1.9,6.8,5.9,6.8,2.5.3,4.9-3,7.1-3.5,2.3.5,4.6,3.7,7.1,3.5,4,0,5.9-2.8,5.9-6.8-.2-3.3-3-5.4-3.5-9.3,0-2,2-4.3,3.5-6,1.7-1.7,2.2-2.3,3.2-3.8,1.6-2.4,2.5-4.6,3.6-8.8,2-7.5,2.3-11.1,1.2-12-.1-.1-.3-.2-.5-.2-.1,0-.3,0-.5,0-.5,0-1.3.3-2.1.7-1.7.9-3.5,2.1-5.4,4-2.9,2.8-3.9,4.4-7.3,11.3-1,2.1-2.3,4.1-3.8,6.3-.4.3-1.4.3-1.4.3,0,0-1,0-1.4-.3-1.5-2.2-2.8-4.2-3.8-6.3-3.4-6.9-4.4-8.5-7.3-11.3-1.9-1.9-3.6-3.1-5.4-4-.9-.4-1.6-.7-2.1-.7Z"/>
    <path class="st12" d="M12.8,9.2c0,.3,0,.4,0,.7.2,1.7.7,4.4,1.7,8.1,1.1,4.1,1.8,5.9,3.3,8.1h0c1,1.5,1.2,1.8,2.9,3.4h0s0,0,0,0c.7.8,1.6,1.7,2.4,2.8,1.2-1.4,2.8-2.5,4.5-3.2-1.2-2-2.2-4-3-5.7h0c-3.4-6.9-4.1-8-6.8-10.6-1.8-1.7-3.3-2.8-4.8-3.5-.2,0,0,0-.2,0ZM51.5,9.2c-.1,0-.1,0-.2,0-1.5.7-3,1.8-4.8,3.5-2.8,2.7-3.4,3.7-6.8,10.6h0c-.8,1.7-1.8,3.7-3,5.7,1.7.7,3.3,1.8,4.5,3.2.8-1.1,1.6-2,2.4-2.8h0s0,0,0,0c1.7-1.7,1.9-2,2.9-3.4h0c1.4-2.1,2.2-4,3.3-8.1,1-3.7,1.5-6.4,1.7-8.1,0-.4,0-.4,0-.7h0Z"/>
    <path class="st21" d="M31.9,49.8c-2.2-.2-4.2-2.7-3.2-3.9,1-1,2.2-1.3,3.2-1.3,1,0,2.3.4,3.2,1.3.9,1.2-1,3.7-3.2,3.9Z"/>
    <path class="st7" d="M26.4,43.7c-1.6,0-4-1.2-4-2.6s-.2-2.6,1.5-2.6c4.2.4,4.5,5.2,2.5,5.2Z"/>
    <path class="st20" d="M26.4,42.8c-1.6,0-4-1.2-4-2.6s-.2-2.6,1.5-2.6c4.2.4,4.5,5.2,2.5,5.2Z"/>
    <circle class="st28" cx="26.3" cy="41.5" r="1.3"/>
    <path class="st7" d="M37.5,43.7c1.6,0,4-1.2,4-2.6s.2-2.6-1.5-2.6c-4.2.4-4.5,5.2-2.5,5.2Z"/>
    <path class="st20" d="M37.5,42.8c1.6,0,4-1.2,4-2.6s.2-2.6-1.5-2.6c-4.2.4-4.5,5.2-2.5,5.2Z"/>
    <circle class="st28" cx="37.6" cy="41.5" r="1.3"/>
    <path class="st8" d="M11.9,6.4c-.2,0-.3,0-.5,0-.2,0-.4.1-.5.2-.5.4-.7,1.3-.6,2.7,0-.9.2-1.5.6-1.8.1-.1.3-.2.5-.2.1,0,.3,0,.5,0,.5,0,1.3.3,2.1.7,1.7.9,3.5,2.1,5.4,4,2.9,2.8,3.9,4.4,7.3,11.3,1,2.1,2.3,4.1,3.8,6.3.4.3,1.4.3,1.4.3,0,0,1,0,1.4-.3,1.5-2.2,2.8-4.2,3.8-6.3,3.4-6.9,4.4-8.5,7.3-11.3,1.9-1.9,3.6-3.1,5.4-4,.9-.4,1.6-.7,2.1-.7.2,0,.3,0,.5,0,.2,0,.4.1.5.2.4.3.6.9.6,1.8,0-1.4-.1-2.3-.6-2.7-.1-.1-.3-.2-.5-.2-.1,0-.3,0-.5,0-.5,0-1.3.3-2.1.7-1.7.9-3.5,2.1-5.4,4-2.9,2.8-3.9,4.4-7.3,11.3-1,2.1-2.3,4.1-3.8,6.3-.4.3-1.4.3-1.4.3,0,0-1,0-1.4-.3-1.5-2.2-2.8-4.2-3.8-6.3-3.4-6.9-4.4-8.5-7.3-11.3-1.9-1.9-3.6-3.1-5.4-4-.9-.4-1.6-.7-2.1-.7ZM22.4,37.6c-.6,3.7-3.2,5.7-3.4,8.9,0,.2,0,.5,0,.7.3-3.2,3-5.3,3.4-9.1,0-.2,0-.3,0-.5ZM41.5,37.6c0,.2,0,.3,0,.5.4,3.8,3.2,5.9,3.4,9.1,0-.2,0-.4,0-.7-.2-3.2-2.8-5.2-3.4-8.9Z"/>
  </g>
  <g>
    <path class="st4" d="M3.4,1.1h38.8c1.9,0,3.4,1.5,3.4,3.4v38.8c0,1.9-1.5,3.4-3.4,3.4H3.4c-1.9,0-3.4-1.5-3.4-3.4V4.6C0,2.7,1.5,1.1,3.4,1.1Z"/>
    <path class="st1" d="M3.4,0h38.8c1.9,0,3.4,1.5,3.4,3.4v38.8c0,1.9-1.5,3.4-3.4,3.4H3.4c-1.9,0-3.4-1.5-3.4-3.4V3.4C0,1.5,1.5,0,3.4,0Z"/>
    <path class="st7" d="M0,14.8v22.8h17.1C11.2,21,5.3,15.2,0,14.8Z"/>
    <path class="st4" d="M12.6,10.3h38.8c1.9,0,3.4,1.5,3.4,3.4v38.8c0,1.9-1.5,3.4-3.4,3.4H12.6c-1.9,0-3.4-1.5-3.4-3.4V13.7c0-1.9,1.5-3.4,3.4-3.4Z"/>
    <path class="st27" d="M0,13.7v22.8h17.1C11.2,19.9,5.3,14,0,13.7Z"/>
    <path class="st19" d="M12.6,9.1h38.8c1.9,0,3.4,1.5,3.4,3.4v38.8c0,1.9-1.5,3.4-3.4,3.4H12.6c-1.9,0-3.4-1.5-3.4-3.4V12.6c0-1.9,1.5-3.4,3.4-3.4Z"/>
    <path class="st7" d="M9.1,22.8v22.8h17.1c-5.9-16.7-11.8-22.5-17.1-22.8Z"/>
    <path class="st18" d="M9.1,21.7v22.8h17.1c-5.9-16.7-11.8-22.5-17.1-22.8Z"/>
    <path class="st3" d="M21.7,18.3h38.8c1.9,0,3.4,1.5,3.4,3.4v28.3c0,7.7-6.2,13.9-13.9,13.9h-28.3c-1.9,0-3.4-1.5-3.4-3.4V21.7c0-1.9,1.5-3.4,3.4-3.4Z"/>
    <ellipse class="st0" cx="32" cy="42.2" rx="6.8" ry="6.9"/>
    <g class="st6">
      <path d="M18.3,32v22.8h17.1c-5.9-16.7-11.8-22.5-17.1-22.8Z"/>
      <path d="M27.4,54.8h36.5c-18.3-51.4-36.5,0-36.5,0Z"/>
    </g>
    <path class="st8" d="M32,35.4c-3.8,0-6.8,3.1-6.8,6.9,0-3.2,3.1-5.7,6.8-5.7s6.8,2.6,6.8,5.7c0-3.8-3.1-6.9-6.8-6.9ZM38.8,42.2h-13.7,13.7Z"/>
    <path class="st25" d="M18.3,30.8v22.8h17.1c-5.9-16.7-11.8-22.5-17.1-22.8Z"/>
    <path class="st24" d="M27.4,53.7h36.5c-18.3-51.4-36.5,0-36.5,0Z"/>
    <path class="st8" d="M46.6,30.8c-10.9-.4-19.2,22.8-19.2,22.8,0,0,18.3-48.8,36.5,0-6-16.9-12-22.7-17.3-22.8Z"/>
  </g>
</svg>