<?xml version="1.0" encoding="UTF-8"?>
<svg id="_图层_1" xmlns="http://www.w3.org/2000/svg" version="1.1" viewBox="0 0 64 64" width="48" height="48">
  <!-- Generator: Adobe Illustrator 29.0.1, SVG Export Plug-In . SVG Version: 2.1.0 Build 192)  -->
  <defs>
    <style>
      .st0 {
        fill: #3f3f3f;
      }

      .st1 {
        fill: #b4a595;
      }

      .st2 {
        fill: #a08a73;
      }

      .st3 {
        fill: #f2f2f2;
      }

      .st4 {
        fill: none;
        stroke: #b4a595;
        stroke-linecap: round;
        stroke-linejoin: round;
        stroke-width: 3px;
      }

      .st5, .st6, .st7 {
        isolation: isolate;
      }

      .st5, .st7 {
        opacity: .1;
      }

      .st8 {
        fill: #7e664e;
      }

      .st6 {
        opacity: .2;
      }

      .st9 {
        fill: #e4e4e4;
      }

      .st7 {
        fill: #fff;
      }
    </style>
  </defs>
  <path class="st3" d="M50.4,64H13.8c-7.6,0-13.8-6.2-13.8-13.7V13.7C0,6.2,6.2,0,13.7,0h36.5c7.5,0,13.7,6.2,13.7,13.7v36.6c0,7.5-6.2,13.7-13.7,13.7h.1Z"/>
  <g>
    <path class="st6" d="M18.6,9c-3,0,0,8,0,8,0,0-3.6-1.1-4.7-1.1-2.5,0,.5,2.6,4.7,5.7,6.7,5,12.3,7.1,17.2,8.8-4.4.2-8.3,2.4-9.5,2.4-1.6,0-.6-2.1-1.8-4.4-.5-1-2.1-2.2-3.6-2.2-4.7,0-7.1,4.1-7.1,4.1l-5.9,2.5,5.9,1.6s5.7,11.7,15.5,14.1l2.4,1.4-3.2,3.4h-6.6c-.7,0-1.3.5-1.3,1.2,0,.7.6,1.2,1.3,1.3,0,0,0,0,0,0h7.2c.4,0,.7-.1.9-.4l4.7-4.9c.4-.4.4-1.1,0-1.6,1.7-.1,3.4-.3,5-.7l1.8,1.8-1.2,3.4h-1.6c-.7,0-1.3.5-1.3,1.2s.6,1.2,1.3,1.3c0,0,0,0,0,0h2.5c.5,0,1-.3,1.2-.8l1.7-4.9c.2-.4,0-.9-.3-1.3l-1.3-1.3c5.7-1.6,10.4-4.3,11.9-6.5.8-1.2,1-4.5.4-7.7.2-1,.3-2.3.3-3.8,0-4.1-7.3-6.2-7.6-10.3,0-.9.5-2.8,1.7-2.8,3.6,0,3.4,4.2,4.7,2.9,3.6-3.4-1.1-8-5.8-8s-8.1,1.3-8.1,4.4.9,3.8,2.2,5.3c-3.1-1.4-6.6-2.5-10.6-3.7,0-.1,0-.3,0-.4,0-2.2,4.2-2.7,4.2-5.1s-8,.3-9.8,3.8c-1-.3-1.9-.6-2.9-.9-2.5-.8-3.4-5.8-4.6-5.8Z"/>
    <path class="st1" d="M29.4,45.2c-.7,0-1.2.6-1.2,1.3,0,.4.3.8.6,1l2.9,1.7-3.2,3.4h-6.6c-.7,0-1.3.5-1.3,1.2,0,.7.6,1.2,1.3,1.3,0,0,0,0,0,0h7.2c.4,0,.7-.1.9-.4l4.7-4.9c.5-.5.4-1.3,0-1.7,0,0-.1-.1-.2-.1l-4.2-2.5c-.2-.1-.5-.2-.7-.2Z"/>
    <path class="st8" d="M43.4,39s5.9-6.4,4.7-11.4c-.9-4-8.1-6.9-8.1-12.6s4.9-4.4,8.1-4.4c4.7,0,9.4,4.6,5.8,8-1.2,1.2-1.1-2.9-4.7-2.9s-1.7,1.9-1.7,2.8c.3,4.1,7.6,6.2,7.6,10.3s-1.2,6.9-1.2,6.9l-10.7,3.4Z"/>
    <path class="st7" d="M48.2,10.6c-3.2,0-8.1,1.3-8.1,4.4s0,.3,0,.5c.4-2.8,5-4,8.1-4s6.7,2.3,7,4.9c.4-2.9-3.3-5.7-7-5.7ZM47.7,18.7c0,.2,0,.4,0,.6.3,4,7.2,6.1,7.6,10,0-.2,0-.3,0-.5,0-4.1-7-6.1-7.6-10.1ZM48.3,29.3c-.2,4.7-4.9,9.7-4.9,9.7l.9-.3c1.5-1.9,4.2-5.9,3.9-9.4Z"/>
    <path class="st6" d="M29.4,45.2c-.7,0-1.2.6-1.2,1.3,0,.4.3.8.6,1l2.5,1.5c.5,0,1,0,1.5,0,.7,0,1.5,0,2.2,0,0-.4-.2-.9-.6-1.1l-4.2-2.5c-.2-.1-.5-.2-.7-.2Z"/>
    <path class="st9" d="M13.8,33.6s7.1,14.5,18.9,14.5,19.4-4.6,21.7-8c1.5-2.1,1-10.9-2.6-13.9-8.3-6.9-15.2-7.9-28.8-12.3-2.5-.8-3.4-5.8-4.6-5.8-3,0,0,8,0,8,0,0-3.6-1.1-4.7-1.1-2.5,0,.5,2.6,4.7,5.7,15.4,11.4,24.9,8,33.2,18.3-7.1,1.1-32.8-9.5-32.8-9.5l-5.1,4.1Z"/>
    <path class="st5" d="M26.5,14.9c-.5.7-.8,1.4-.8,2,0,9,22.8,15.9,22.8,15.9,0,0-16.9-8.3-16.9-15.9s0-.3,0-.4c-1.6-.5-3.3-1-5.2-1.6ZM18.9,29.5l-5.1,4.1s.1.2.2.4l3.2-2s11.4,11.6,16.8,11.6,17.8-1.5,17.8-3.8,0-.5-.2-.8c-4.7.6-16.5-3.4-24.6-6.4-.3,0-.5.1-.7.1-.6,0-.8-.3-1-.8-3.7-1.4-6.4-2.5-6.4-2.5ZM38.3,30.5c4.9,1.7,9.1,3.5,13,8.1-1.3-2.7-6-7.3-13-8.1Z"/>
    <path class="st2" d="M13.8,29.5s2.4-4.1,7.1-4.1,3,1.1,3.6,2.2c1.2,2.3.1,4.4,1.8,4.4s5.4-2.5,10.1-2.5c9.5,0,15.4,7.2,15.4,9.5s-11.8,3.8-17.8,3.8-16.7-11.6-16.7-11.6l-3.4,2.1v-3.8Z"/>
    <path class="st7" d="M20.9,25.4c-4.7,0-7.1,4.1-7.1,4.1v.8s2.4-4.1,7.1-4.1,3,1.1,3.6,2.2c1.2,2.3.1,4.4,1.8,4.4s5.4-2.5,10.1-2.5c8.8,0,14.6,6.3,15.3,9,0-.1,0-.2,0-.3,0-2.3-5.9-9.5-15.4-9.5s-8.9,2.5-10.1,2.5-.6-2.1-1.8-4.4c-.5-1-2.1-2.2-3.6-2.2Z"/>
    <path class="st5" d="M18.5,28.7c-.7,0-1.3.6-1.3,1.2s.6,1.2,1.3,1.2,1.3-.6,1.3-1.2-.6-1.2-1.3-1.2ZM16.4,31.6l-2.5,2.1s.1.2.3.6l3.1-2.2-.8-.4Z"/>
    <ellipse class="st0" cx="18.5" cy="29.1" rx="1.3" ry="1.2"/>
    <path class="st2" d="M48.5,32s-22.8-6.9-22.8-15.9,10.2-8.6,10.2-5.1-4.2,2.9-4.2,5.1c0,7.6,16.9,15.9,16.9,15.9Z"/>
    <path class="st0" d="M13.8,29.5l-5.9,2.5,5.9,1.6,3.4-2.5-3.4-1.6Z"/>
    <path class="st5" d="M38.8,44.3c-.7,0-1.3.6-1.3,1.2,0,.3.1.7.4.9l1.1,1.1c1-.2,2-.4,2.9-.7l-2.3-2.2c-.2-.2-.6-.4-.9-.4Z"/>
    <path class="st4" d="M38.8,53.8h2.5l1.7-4.9-4.2-4.1"/>
    <path class="st7" d="M34.2,9.8c-2.9,0-8.6,3.4-8.6,6.3s0,.3,0,.4c.6-3.6,9.3-7.7,10.1-5.1,0-.1,0-.3,0-.5,0-.9-.6-1.2-1.6-1.2ZM31.6,16.7c0,0,0,.2,0,.3,0,5.2,8,10.8,13,13.7,2.3.9,3.9,1.3,3.9,1.3,0,0-16.1-7.9-16.9-15.3Z"/>
  </g>
</svg>