<?xml version="1.0" encoding="UTF-8" standalone="no"?>
<svg
   id="_图层_1"
   version="1.1"
   viewBox="0 0 64 64" width="48" height="48"
   sodipodi:docname="magnatune.svg"
   xml:space="preserve"
   inkscape:version="1.4 (e7c3feb100, 2024-10-09)"
   xmlns:inkscape="http://www.inkscape.org/namespaces/inkscape"
   xmlns:sodipodi="http://sodipodi.sourceforge.net/DTD/sodipodi-0.dtd"
   xmlns="http://www.w3.org/2000/svg"
   xmlns:svg="http://www.w3.org/2000/svg"><sodipodi:namedview
     id="namedview26"
     pagecolor="#505050"
     bordercolor="#eeeeee"
     borderopacity="1"
     inkscape:showpageshadow="0"
     inkscape:pageopacity="0"
     inkscape:pagecheckerboard="0"
     inkscape:deskcolor="#505050"
     inkscape:zoom="10.6875"
     inkscape:cx="32"
     inkscape:cy="39.48538"
     inkscape:window-width="1920"
     inkscape:window-height="939"
     inkscape:window-x="0"
     inkscape:window-y="34"
     inkscape:window-maximized="1"
     inkscape:current-layer="_图层_1"
     showguides="true"><sodipodi:guide
       position="24.129209,43.688782"
       orientation="1,0"
       id="guide47"
       inkscape:locked="false" /><sodipodi:guide
       position="39.990611,54.528988"
       orientation="1,0"
       id="guide48"
       inkscape:locked="false" /><sodipodi:guide
       position="31.294665,46.979418"
       orientation="0,-1"
       id="guide49"
       inkscape:locked="false" /><sodipodi:guide
       position="22.407535,30.743878"
       orientation="0,-1"
       id="guide50"
       inkscape:locked="false" /></sodipodi:namedview><!-- Generator: Adobe Illustrator 29.0.1, SVG Export Plug-In . SVG Version: 2.1.0 Build 192)  --><defs
     id="defs6"><style
       id="style1">
      .st0 {
        fill-opacity: .5;
      }

      .st0, .st1, .st2, .st3, .st4, .st5, .st6, .st7 {
        fill: #fff;
      }

      .st8 {
        fill: #133c9a;
      }

      .st2, .st9 {
        display: none;
      }

      .st3 {
        fill-opacity: .2;
      }

      .st4 {
        fill-opacity: .9;
      }

      .st10 {
        fill: #3370ff;
      }

      .st11 {
        fill: url(#_未命名的渐变_3);
      }

      .st12 {
        fill: url(#_未命名的渐变);
      }

      .st5 {
        fill-opacity: .3;
      }

      .st6 {
        fill-opacity: 0;
      }

      .st7 {
        fill-opacity: .7;
      }

      .st13 {
        fill: #00d6b9;
      }

      .st14 {
        fill: url(#_未命名的渐变_2);
      }
    </style><radialGradient
       id="_未命名的渐变"
       data-name="未命名的渐变"
       cx="123.9"
       cy="-40.2"
       fx="123.9"
       fy="-40.2"
       r="59.4"
       gradientTransform="translate(-26.8 25.5) scale(.6 -.7)"
       gradientUnits="userSpaceOnUse"><stop
         offset="0"
         stop-color="#db202e"
         id="stop1" /><stop
         offset="1"
         stop-color="#e01b24"
         id="stop2" /></radialGradient><radialGradient
       id="_未命名的渐变_2"
       data-name="未命名的渐变 2"
       cx="67.6"
       cy="26.8"
       fx="67.6"
       fy="26.8"
       r="105.2"
       gradientTransform="translate(-26.6 25.3) scale(.6 -.7)"
       gradientUnits="userSpaceOnUse"><stop
         offset="0"
         stop-color="#ffb648"
         id="stop3" /><stop
         offset="1"
         stop-color="#ff7800"
         stop-opacity="0"
         id="stop4" /></radialGradient><radialGradient
       id="_未命名的渐变_3"
       data-name="未命名的渐变 3"
       cx="61.7"
       cy="18.6"
       fx="61.7"
       fy="18.6"
       r="68"
       gradientTransform="translate(-26.8 25.8) scale(.6 -.7)"
       gradientUnits="userSpaceOnUse"><stop
         offset="0"
         stop-color="#c64600"
         id="stop5" /><stop
         offset="1"
         stop-color="#a51d2d"
         id="stop6" /></radialGradient></defs><path
     class="st1"
     d="M47.5,64.1H13.8c-7.6,0-13.8-6.3-13.8-13.8V13.7C0,6.2,6.2,0,13.7,0h36.6c7.5,0,13.7,6.2,13.7,13.7v36.6c0,7.5-6.2,13.7-13.7,13.7h-2.9.1Z"
     id="path6"
     style="fill:#246e9a;fill-opacity:1" /><g
     id="g74"
     transform="matrix(1.1420217,0,0,1.1395301,-4.4979115,-4.4265415)"><path
       style="opacity:0.2"
       d="M 31.9996,13.000686 A 19.999714,19.999714 0 0 0 11.999886,33.0004 19.999714,19.999714 0 0 0 31.9996,53.000114 19.999714,19.999714 0 0 0 51.999314,33.0004 19.999714,19.999714 0 0 0 31.9996,13.000686 Z m 0,5.999915 c 2.215968,0 3.999943,1.607137 3.999943,3.601548 v 16.79656 c 0,1.993971 -1.783975,3.601948 -3.999943,3.601948 -2.215968,0 -3.999943,-1.607977 -3.999943,-3.601948 v -16.79656 c 0,-1.993971 1.783975,-3.601948 3.999943,-3.601948 z m -11.999828,7.999885 c 2.215968,0 3.999942,1.783975 3.999942,3.999943 v 7.999886 c 0,2.215968 -1.783974,3.999942 -3.999942,3.999942 -2.215969,0 -3.999943,-1.783974 -3.999943,-3.999942 v -7.999886 c 0,-2.215968 1.783974,-3.999943 3.999943,-3.999943 z m 23.999656,0 c 2.215969,0 3.999943,1.783975 3.999943,3.999943 v 7.999886 c 0,2.215968 -1.783974,3.999942 -3.999943,3.999942 -2.215968,0 -3.999942,-1.783974 -3.999942,-3.999942 v -7.999886 c 0,-2.215968 1.783974,-3.999943 3.999942,-3.999943 z"
       id="path2" /><path
       style="fill:#ffffff"
       d="M 31.9996,12.000715 A 19.999714,19.999714 0 0 0 11.999886,32.000429 19.999714,19.999714 0 0 0 31.9996,52.000143 19.999714,19.999714 0 0 0 51.999314,32.000429 19.999714,19.999714 0 0 0 31.9996,12.000715 Z m 0,5.999914 c 2.215968,0 3.999943,1.607177 3.999943,3.601949 v 16.79576 c 0,1.993971 -1.783975,3.601948 -3.999943,3.601948 -2.215968,0 -3.999943,-1.607977 -3.999943,-3.601948 v -16.79576 c 0,-1.994772 1.783975,-3.601949 3.999943,-3.601949 z m -11.999828,7.999886 c 2.215968,0 3.999942,1.783974 3.999942,3.999943 v 7.999885 c 0,2.215969 -1.783974,3.999943 -3.999942,3.999943 -2.215969,0 -3.999943,-1.783974 -3.999943,-3.999943 v -7.999885 c 0,-2.215969 1.783974,-3.999943 3.999943,-3.999943 z m 23.999656,0 c 2.215969,0 3.999943,1.783974 3.999943,3.999943 v 7.999885 c 0,2.215969 -1.783974,3.999943 -3.999943,3.999943 -2.215968,0 -3.999942,-1.783974 -3.999942,-3.999943 v -7.999885 c 0,-2.215969 1.783974,-3.999943 3.999942,-3.999943 z"
       id="path3" /></g></svg>
