<?xml version="1.0" encoding="UTF-8" standalone="no"?>
<svg
   id="_图层_1"
   version="1.1"
   viewBox="0 0 64 64" width="48" height="48"
   sodipodi:docname="mathematica.svg"
   xml:space="preserve"
   inkscape:version="1.4 (e7c3feb100, 2024-10-09)"
   xmlns:inkscape="http://www.inkscape.org/namespaces/inkscape"
   xmlns:sodipodi="http://sodipodi.sourceforge.net/DTD/sodipodi-0.dtd"
   xmlns="http://www.w3.org/2000/svg"
   xmlns:svg="http://www.w3.org/2000/svg"><sodipodi:namedview
     id="namedview26"
     pagecolor="#505050"
     bordercolor="#eeeeee"
     borderopacity="1"
     inkscape:showpageshadow="0"
     inkscape:pageopacity="0"
     inkscape:pagecheckerboard="0"
     inkscape:deskcolor="#505050"
     inkscape:zoom="10.6875"
     inkscape:cx="32"
     inkscape:cy="29.005848"
     inkscape:window-width="1920"
     inkscape:window-height="939"
     inkscape:window-x="0"
     inkscape:window-y="34"
     inkscape:window-maximized="1"
     inkscape:current-layer="_图层_1" /><!-- Generator: Adobe Illustrator 29.0.1, SVG Export Plug-In . SVG Version: 2.1.0 Build 192)  --><defs
     id="defs6"><style
       id="style1">
      .st0 {
        fill-opacity: .5;
      }

      .st0, .st1, .st2, .st3, .st4, .st5, .st6, .st7 {
        fill: #fff;
      }

      .st8 {
        fill: #133c9a;
      }

      .st2, .st9 {
        display: none;
      }

      .st3 {
        fill-opacity: .2;
      }

      .st4 {
        fill-opacity: .9;
      }

      .st10 {
        fill: #3370ff;
      }

      .st11 {
        fill: url(#_未命名的渐变_3);
      }

      .st12 {
        fill: url(#_未命名的渐变);
      }

      .st5 {
        fill-opacity: .3;
      }

      .st6 {
        fill-opacity: 0;
      }

      .st7 {
        fill-opacity: .7;
      }

      .st13 {
        fill: #00d6b9;
      }

      .st14 {
        fill: url(#_未命名的渐变_2);
      }
    </style><radialGradient
       id="_未命名的渐变"
       data-name="未命名的渐变"
       cx="123.9"
       cy="-40.2"
       fx="123.9"
       fy="-40.2"
       r="59.4"
       gradientTransform="translate(-26.8 25.5) scale(.6 -.7)"
       gradientUnits="userSpaceOnUse"><stop
         offset="0"
         stop-color="#db202e"
         id="stop1" /><stop
         offset="1"
         stop-color="#e01b24"
         id="stop2" /></radialGradient><radialGradient
       id="_未命名的渐变_2"
       data-name="未命名的渐变 2"
       cx="67.6"
       cy="26.8"
       fx="67.6"
       fy="26.8"
       r="105.2"
       gradientTransform="translate(-26.6 25.3) scale(.6 -.7)"
       gradientUnits="userSpaceOnUse"><stop
         offset="0"
         stop-color="#ffb648"
         id="stop3" /><stop
         offset="1"
         stop-color="#ff7800"
         stop-opacity="0"
         id="stop4" /></radialGradient><radialGradient
       id="_未命名的渐变_3"
       data-name="未命名的渐变 3"
       cx="61.7"
       cy="18.6"
       fx="61.7"
       fy="18.6"
       r="68"
       gradientTransform="translate(-26.8 25.8) scale(.6 -.7)"
       gradientUnits="userSpaceOnUse"><stop
         offset="0"
         stop-color="#c64600"
         id="stop5" /><stop
         offset="1"
         stop-color="#a51d2d"
         id="stop6" /></radialGradient></defs><path
     class="st1"
     d="M 47.5,64.1 H 13.8 C 6.2,64.1 0,57.8 0,50.3 V 13.7 C 0,6.2 6.2,0 13.7,0 H 50.3 C 57.8,0 64,6.2 64,13.7 V 50.3 C 64,57.8 57.8,64 50.3,64 h -2.9 0.1 z"
     id="path6"
     style="fill:#ececec;fill-opacity:1"
     sodipodi:nodetypes="cssssssssccc" /><g
     id="g49"
     transform="matrix(3.1083907,0,0,2.8187221,6.1402,11.081909)"><path
       style="fill:#d6342a"
       d="M 8.5178,3.9631e-4 A 0.44934,0.45719 0 0 0 8.1111,0.22659 L 6.7655,2.5707 4.3225,1.4794 A 0.44934,0.45719 0 0 0 3.6949,1.9436 L 3.9605,4.6449 1.3536,5.2232 A 0.44934,0.45719 0 0 0 1.1139,5.9741 L 2.8893,8.0008 1.1142,10.028 a 0.44934,0.45719 0 0 0 0.2399,0.75 l 2.607,0.578 -0.265,2.701 a 0.44934,0.45719 0 0 0 0.6277,0.464 l 2.4429,-1.091 1.3462,2.344 a 0.44934,0.45719 0 0 0 0.7758,-10e-4 l 1.3463,-2.344 2.442,1.091 a 0.44934,0.45719 0 0 0 0.628,-0.464 l -0.265,-2.701 2.606,-0.578 a 0.44934,0.45719 0 0 0 0.24,-0.751 L 14.111,7.9994 15.886,5.9723 A 0.44934,0.45719 0 0 0 15.646,5.2216 L 13.039,4.6439 13.304,1.9425 A 0.44934,0.45719 0 0 0 12.676,1.4785 L 10.233,2.5704 8.887,0.22644 A 0.44934,0.45719 0 0 0 8.5178,3.9631e-4 Z"
       id="path1-4" /><path
       style="fill:#ffffff"
       d="m 4.9648,4 c 0,0 0.7669,2.0575 0.3809,3.377 C 4.9597,8.6964 3,10.182 3,10.182 c 0,0 2.5622,0.141 3.5352,0.769 C 7.5081,11.579 8.498,14 8.498,14 c 0,0 1.3137,-2.667 1.863,-3.049 C 10.911,10.569 14,10.18 14,10.18 14,10.18 11.743,8.0326 11.551,7.4336 11.359,6.8346 12.035,4.002 12.035,4.002 12.035,4.002 9.869,5 8.4414,5 7.0138,5 4.9648,4 4.9648,4 Z m 5.7402,1.5273 c -0.06,0.3401 -0.12,0.6887 -0.154,1.0137 -0.041,0.3945 -0.123,0.6665 0.047,1.1973 0.169,0.5269 0.384,0.7015 0.648,1.0176 0.202,0.2419 0.441,0.4948 0.674,0.7421 -0.339,0.0622 -0.684,0.1244 -0.996,0.2012 -0.405,0.0998 -0.701,0.1315 -1.133,0.4318 -0.4322,0.3 -0.5631,0.567 -0.7871,0.906 -0.1753,0.266 -0.345,0.565 -0.5117,0.858 C 8.1396,11.257 7.7903,10.571 7.0781,10.111 6.4451,9.7026 5.7379,9.6112 5.0625,9.498 5.5451,8.9798 6.075,8.4501 6.3066,7.6582 6.5309,6.8915 6.3947,6.1946 6.2852,5.5371 6.9459,5.7572 7.6603,6 8.4414,6 9.2472,6 10.01,5.7537 10.705,5.5273 Z"
       id="path2" /></g></svg>
