<?xml version="1.0" encoding="UTF-8" standalone="no"?>
<svg
   id="_图层_1"
   version="1.1"
   viewBox="0 0 64 64" width="48" height="48"
   sodipodi:docname="mcpelauncher-ui-qt.svg"
   xml:space="preserve"
   inkscape:version="1.4 (e7c3feb100, 2024-10-09)"
   xmlns:inkscape="http://www.inkscape.org/namespaces/inkscape"
   xmlns:sodipodi="http://sodipodi.sourceforge.net/DTD/sodipodi-0.dtd"
   xmlns="http://www.w3.org/2000/svg"
   xmlns:svg="http://www.w3.org/2000/svg"><sodipodi:namedview
     id="namedview26"
     pagecolor="#505050"
     bordercolor="#eeeeee"
     borderopacity="1"
     inkscape:showpageshadow="0"
     inkscape:pageopacity="0"
     inkscape:pagecheckerboard="0"
     inkscape:deskcolor="#505050"
     inkscape:zoom="10.6875"
     inkscape:cx="32"
     inkscape:cy="36.491228"
     inkscape:window-width="1920"
     inkscape:window-height="939"
     inkscape:window-x="0"
     inkscape:window-y="34"
     inkscape:window-maximized="1"
     inkscape:current-layer="_图层_1" /><!-- Generator: Adobe Illustrator 29.0.1, SVG Export Plug-In . SVG Version: 2.1.0 Build 192)  --><defs
     id="defs6"><style
       id="style1">
      .st0 {
        fill-opacity: .5;
      }

      .st0, .st1, .st2, .st3, .st4, .st5, .st6, .st7 {
        fill: #fff;
      }

      .st8 {
        fill: #133c9a;
      }

      .st2, .st9 {
        display: none;
      }

      .st3 {
        fill-opacity: .2;
      }

      .st4 {
        fill-opacity: .9;
      }

      .st10 {
        fill: #3370ff;
      }

      .st11 {
        fill: url(#_未命名的渐变_3);
      }

      .st12 {
        fill: url(#_未命名的渐变);
      }

      .st5 {
        fill-opacity: .3;
      }

      .st6 {
        fill-opacity: 0;
      }

      .st7 {
        fill-opacity: .7;
      }

      .st13 {
        fill: #00d6b9;
      }

      .st14 {
        fill: url(#_未命名的渐变_2);
      }
    </style><radialGradient
       id="_未命名的渐变"
       data-name="未命名的渐变"
       cx="123.9"
       cy="-40.2"
       fx="123.9"
       fy="-40.2"
       r="59.4"
       gradientTransform="translate(-26.8 25.5) scale(.6 -.7)"
       gradientUnits="userSpaceOnUse"><stop
         offset="0"
         stop-color="#db202e"
         id="stop1" /><stop
         offset="1"
         stop-color="#e01b24"
         id="stop2" /></radialGradient><radialGradient
       id="_未命名的渐变_2"
       data-name="未命名的渐变 2"
       cx="67.6"
       cy="26.8"
       fx="67.6"
       fy="26.8"
       r="105.2"
       gradientTransform="translate(-26.6 25.3) scale(.6 -.7)"
       gradientUnits="userSpaceOnUse"><stop
         offset="0"
         stop-color="#ffb648"
         id="stop3" /><stop
         offset="1"
         stop-color="#ff7800"
         stop-opacity="0"
         id="stop4" /></radialGradient><radialGradient
       id="_未命名的渐变_3"
       data-name="未命名的渐变 3"
       cx="61.7"
       cy="18.6"
       fx="61.7"
       fy="18.6"
       r="68"
       gradientTransform="translate(-26.8 25.8) scale(.6 -.7)"
       gradientUnits="userSpaceOnUse"><stop
         offset="0"
         stop-color="#c64600"
         id="stop5" /><stop
         offset="1"
         stop-color="#a51d2d"
         id="stop6" /></radialGradient></defs><path
     class="st1"
     d="M 47.5,64.1 H 13.8 C 6.2,64.1 0,57.8 0,50.3 V 13.7 C 0,6.2 6.2,0 13.7,0 H 50.3 C 57.8,0 64,6.2 64,13.7 V 50.3 C 64,57.8 57.8,64 50.3,64 h -2.9 0.1 z"
     id="path6"
     style="fill:#e4e4e4;fill-opacity:1"
     sodipodi:nodetypes="cssssssssccc" /><g
     id="g47"
     transform="matrix(3.0250626,0,0,3.0584795,8.1269843,8.9298246)"><path
       style="fill:#474747"
       d="M 1.3873698,3.7999869 A 1.7755407,1.8191537 0 0 0 0.99999994,4.9093582 v 6.1812288 a 1.7755407,1.8191537 0 0 0 0.88791236,1.574994 l 5.2241754,3.090615 a 1.7755407,1.8191537 0 0 0 1.7758245,0 L 14.112088,12.665581 A 1.7755407,1.8191537 0 0 0 15,11.090587 V 4.9093582 A 1.7755407,1.8191537 0 0 0 14.630859,3.7999869 Z"
       id="path1-9" /><path
       style="fill:#545454"
       d="M 1.2673611,3.9601427 A 1.7755407,1.8191537 0 0 0 0.99999994,4.9093582 v 6.1812288 a 1.7755407,1.8191537 0 0 0 0.88791236,1.574994 l 5.2241754,3.090615 A 1.7755407,1.8191537 0 0 0 8,15.999945 V 7.9999724 Z"
       id="path2-3" /><path
       style="fill:#3d3d3d"
       d="m 8.0000003,12.199957 1.5,-0.970196 v 1.049997 l -1.5,0.970195 z"
       id="path3-1" /><path
       style="fill:#323232"
       d="M 13,9.8750035 14.5,8.9050073 V 9.9550037 L 13,10.925 Z"
       id="path4-9" /><path
       style="fill:#363636"
       d="m 9,13.512452 1.5,-0.86945 v 1.049996 L 9,14.562449 Z"
       id="path5-4" /><path
       style="fill:#3e3e3e"
       d="M 12.5,12.137004 14,11.246548 v 1.049996 L 12.5,13.187 Z"
       id="path6-7" /><path
       style="fill:#393939"
       d="M 11,10.099965 14,8.3250019 V 9.3749982 L 11,11.149961 Z"
       id="path7" /><path
       style="fill:#4b4b4b"
       d="m 7,11.71496 1,0.484997 v 1.049996 L 7,12.764956 Z"
       id="path8" /><path
       style="fill:#4b4b4b"
       d="m 4.5000085,12.624957 1.5,0.790047 V 14.465 l -1.5,-0.790047 z"
       id="path9" /><path
       style="fill:#424242"
       d="m 3,9.799967 1.5,0.910037 V 11.76 L 3,10.849963 Z"
       id="path10" /><path
       style="fill:#494949"
       d="m 2,8.4874713 1.5,0.829533 V 10.367 L 2,9.5374676 Z"
       id="path11" /><path
       style="fill:#4b4b4b"
       d="m 0.99999994,10.099965 0.99999996,0.587037 v 1.049996 L 0.99999994,11.149961 Z"
       id="path12" /><path
       style="fill:#3b3b3b"
       d="M 0.99999994,6.9499756 1.4999999,7.2124747 V 8.2624711 L 0.99999994,7.999972 Z"
       id="path13" /><path
       style="fill:#3c3c3c"
       d="m 10,12.622357 1.5,-0.869355 v 1.049996 L 10,13.672353 Z"
       id="path14" /><path
       style="fill:#638f01"
       d="M 14.457031,3.6015625 8,7.4746094 v 2.6249996 1 L 9,10.5 V 9.5546875 L 10,8.9257812 V 9.9003906 L 11,9.2988281 V 8.3007812 l 1.005859,-0.5527343 -0.0078,0.953125 L 14,7.5 V 6.5253906 l 1,-0.625 V 4.9101562 C 14.999756,4.4165344 14.803844,3.9442021 14.457031,3.6015625 Z"
       id="path15" /><path
       style="fill:#74a011"
       d="M 1.546875,3.6015625 C 1.1993243,3.9432993 1.0014525,4.416618 1,4.9101562 v 0.9902344 l 1,0.625 V 7.5 L 4,8.6992188 V 7.7148438 L 5,8.3007812 V 9.2988281 L 6,9.9003906 V 8.9296875 L 7,9.515625 V 10.5 l 1,0.599609 V 7.4746094 Z"
       id="path16" /><path
       style="fill:#8ec115"
       d="M 8.0417752,-2e-8 V 7.7997731e-4 A 1.7755407,1.8191537 0 0 0 7.1120877,0.2429679 L 1.8879123,3.3335821 A 1.7755407,1.8191537 0 0 0 1.2673611,3.9601427 L 8,7.9999724 14.737196,3.9577987 A 1.7755407,1.8191537 0 0 0 14.112088,3.3335821 L 8.8879122,0.2429679 A 1.7755407,1.8191537 0 0 0 8.0417752,-2e-8 Z"
       id="path17" /></g></svg>
