<?xml version="1.0" encoding="UTF-8" standalone="no"?>
<svg
   id="_图层_1"
   version="1.1"
   viewBox="0 0 64 64" width="48" height="48"
   sodipodi:docname="mikutter.svg"
   xml:space="preserve"
   inkscape:version="1.4 (e7c3feb100, 2024-10-09)"
   xmlns:inkscape="http://www.inkscape.org/namespaces/inkscape"
   xmlns:sodipodi="http://sodipodi.sourceforge.net/DTD/sodipodi-0.dtd"
   xmlns="http://www.w3.org/2000/svg"
   xmlns:svg="http://www.w3.org/2000/svg"><sodipodi:namedview
     id="namedview26"
     pagecolor="#505050"
     bordercolor="#eeeeee"
     borderopacity="1"
     inkscape:showpageshadow="0"
     inkscape:pageopacity="0"
     inkscape:pagecheckerboard="0"
     inkscape:deskcolor="#505050"
     inkscape:zoom="10.6875"
     inkscape:cx="32"
     inkscape:cy="36.491228"
     inkscape:window-width="1920"
     inkscape:window-height="939"
     inkscape:window-x="0"
     inkscape:window-y="34"
     inkscape:window-maximized="1"
     inkscape:current-layer="_图层_1" /><!-- Generator: Adobe Illustrator 29.0.1, SVG Export Plug-In . SVG Version: 2.1.0 Build 192)  --><defs
     id="defs6"><style
       id="style1">
      .st0 {
        fill-opacity: .5;
      }

      .st0, .st1, .st2, .st3, .st4, .st5, .st6, .st7 {
        fill: #fff;
      }

      .st8 {
        fill: #133c9a;
      }

      .st2, .st9 {
        display: none;
      }

      .st3 {
        fill-opacity: .2;
      }

      .st4 {
        fill-opacity: .9;
      }

      .st10 {
        fill: #3370ff;
      }

      .st11 {
        fill: url(#_未命名的渐变_3);
      }

      .st12 {
        fill: url(#_未命名的渐变);
      }

      .st5 {
        fill-opacity: .3;
      }

      .st6 {
        fill-opacity: 0;
      }

      .st7 {
        fill-opacity: .7;
      }

      .st13 {
        fill: #00d6b9;
      }

      .st14 {
        fill: url(#_未命名的渐变_2);
      }
    </style><radialGradient
       id="_未命名的渐变"
       data-name="未命名的渐变"
       cx="123.9"
       cy="-40.2"
       fx="123.9"
       fy="-40.2"
       r="59.4"
       gradientTransform="translate(-26.8 25.5) scale(.6 -.7)"
       gradientUnits="userSpaceOnUse"><stop
         offset="0"
         stop-color="#db202e"
         id="stop1" /><stop
         offset="1"
         stop-color="#e01b24"
         id="stop2" /></radialGradient><radialGradient
       id="_未命名的渐变_2"
       data-name="未命名的渐变 2"
       cx="67.6"
       cy="26.8"
       fx="67.6"
       fy="26.8"
       r="105.2"
       gradientTransform="translate(-26.6 25.3) scale(.6 -.7)"
       gradientUnits="userSpaceOnUse"><stop
         offset="0"
         stop-color="#ffb648"
         id="stop3" /><stop
         offset="1"
         stop-color="#ff7800"
         stop-opacity="0"
         id="stop4" /></radialGradient><radialGradient
       id="_未命名的渐变_3"
       data-name="未命名的渐变 3"
       cx="61.7"
       cy="18.6"
       fx="61.7"
       fy="18.6"
       r="68"
       gradientTransform="translate(-26.8 25.8) scale(.6 -.7)"
       gradientUnits="userSpaceOnUse"><stop
         offset="0"
         stop-color="#c64600"
         id="stop5" /><stop
         offset="1"
         stop-color="#a51d2d"
         id="stop6" /></radialGradient></defs><path
     class="st1"
     d="M47.5,64.1H13.8c-7.6,0-13.8-6.3-13.8-13.8V13.7C0,6.2,6.2,0,13.7,0h36.6c7.5,0,13.7,6.2,13.7,13.7v36.6c0,7.5-6.2,13.7-13.7,13.7h-2.9.1Z"
     id="path6"
     style="fill:#f2f2f2;fill-opacity:1" /><g
     id="g37"
     transform="matrix(2.9824562,0,0,2.9721102,8.3752909,6.8072354)"><path
       style="fill:#f540ae"
       d="M 5.9763067,2.0001044 C 3.5119577,2.0137653 1.7476007,3.4002393 0.85347907,4.9481062 0.09793353,6.2560754 0.01588453,7.5389099 0.01562432,7.542972 0.00500392,7.6675546 -0.00111445,7.7925349 -1.4657063e-8,7.9175691 V 10.947514 C -0.01543539,12.037807 0.49205179,13.251664 1.3026786,13.97941 c 0.8106268,0.727746 1.7750422,1.020387 2.6971502,1.020387 0.6734346,0 1.3496674,-0.231089 1.9921022,-0.598966 0.5035645,0.302768 1.0532701,0.530764 1.6659443,0.583358 0.1292371,0.01121 0.2589354,0.01699 0.3886553,0.01561 a 3.0001716,2.9970771 0 0 0 0.015624,0 c 0.7085057,-0.01107 1.3415797,-0.266946 1.9198397,-0.612627 0.6493217,0.378192 1.3353397,0.612622 2.0174917,0.612622 0.922108,0 1.886524,-0.292641 2.697151,-1.020387 0.810626,-0.727746 1.318113,-1.941603 1.302678,-3.031896 V 7.8648915 7.8434302 c 2.05e-4,-0.1172277 -0.0055,-0.2343892 -0.01563,-0.3511849 0,0 -0.08529,-1.2920977 -0.855433,-2.600719 C 14.214531,3.3389529 12.429498,1.9865022 9.9761355,2.0001044 9.2594571,2.0040772 8.6237845,2.1922398 8.0230941,2.4137221 7.3978599,2.1811474 6.7264539,1.9959454 5.9763067,2.0001044 Z"
       id="path1" /><path
       style="fill:none;stroke:#ffffff;stroke-width:2;stroke-linecap:round;stroke-linejoin:round"
       d="M 4,10.999758 V 7.8952892 c 0,0 0.1818182,-1.8854423 2,-1.8955317 1.8181818,-0.010091 2.0000001,1.8505273 2.0000001,1.8505273 v 3.1494732 0"
       id="path2" /><path
       style="fill:none;stroke:#ffffff;stroke-width:2;stroke-linecap:round;stroke-linejoin:round"
       d="M 7.9999999,10.999758 V 7.8952892 c 0,0 0.1818182,-1.8854423 2,-1.8955317 C 11.818182,5.9896665 12,7.8502848 12,7.8502848 v 3.1494732 0"
       id="path3" /></g></svg>
