<?xml version="1.0" encoding="UTF-8"?>
<svg id="_图层_1" xmlns="http://www.w3.org/2000/svg" version="1.1" xmlns:xlink="http://www.w3.org/1999/xlink" viewBox="0 0 64 64" width="48" height="48">
  <!-- Generator: Adobe Illustrator 29.0.1, SVG Export Plug-In . SVG Version: 2.1.0 Build 192)  -->
  <defs>
    <style>
      .st0 {
        fill: #4f4f4f;
      }

      .st1, .st2, .st3, .st4, .st5, .st6, .st7 {
        display: none;
      }

      .st1, .st2, .st8, .st9, .st10, .st11, .st7, .st12 {
        isolation: isolate;
      }

      .st1, .st11, .st7 {
        opacity: .2;
      }

      .st2, .st13, .st9, .st7, .st12 {
        fill: #fff;
      }

      .st2, .st8, .st12 {
        opacity: .1;
      }

      .st14 {
        fill: url(#_未命名的渐变_5);
      }

      .st3, .st15 {
        fill: #afd817;
      }

      .st16 {
        fill: #3f3f3f;
      }

      .st17 {
        fill: #63bfd7;
      }

      .st18 {
        fill: #eb572a;
      }

      .st19 {
        fill: #459ee9;
      }

      .st4 {
        fill: #c2352a;
      }

      .st20 {
        fill: #ffba08;
      }

      .st9, .st10 {
        opacity: .5;
      }

      .st5 {
        fill: #234780;
      }

      .st21 {
        fill: #fe774b;
      }

      .st10 {
        stroke: #000;
        stroke-linecap: round;
        stroke-linejoin: round;
        stroke-width: 6px;
      }

      .st10, .st22 {
        fill: none;
      }

      .st22 {
        stroke: #3f3f3f;
        stroke-width: 5.6px;
      }

      .st23 {
        fill: #79a61c;
      }

      .st24 {
        fill: #e4e4e4;
      }
    </style>
    <linearGradient id="_未命名的渐变_5" data-name="未命名的渐变 5" x1="1573" y1="1078.1" x2="1573" y2="1107.5" gradientTransform="translate(-338.1 -223.8) scale(.2)" gradientUnits="userSpaceOnUse">
      <stop offset="0" stop-color="#2a2c2f"/>
      <stop offset="1" stop-color="#424649"/>
    </linearGradient>
  </defs>
  <path class="st15" d="M50.5,64H13.9C6.3,64,0,57.8,0,50.3V13.7C0,6.2,6.3,0,13.8,0h36.6c7.5,0,13.7,6.2,13.7,13.7v36.6c0,7.5-6.2,13.7-13.7,13.7h.1Z"/>
  <g class="st6">
    <path class="st1" d="M3.4,1.1h57.1c1.9,0,3.4,1.5,3.4,3.4v57.1c0,1.9-1.5,3.4-3.4,3.4H3.4c-1.9,0-3.4-1.5-3.4-3.4V4.6C0,2.7,1.5,1.1,3.4,1.1Z"/>
    <path class="st20" d="M64,32v17.7c0,7.9-6.4,14.2-14.2,14.2h-20v-32h34.3Z"/>
    <path class="st19" d="M0,29.7v19.2c0,8.3,6.7,15,15,15h17V29.7H0Z"/>
    <path class="st18" d="M14.9,0C6.7,0,0,6.7,0,14.9v17.1h34.3V0H14.9Z"/>
    <path class="st23" d="M49.4,0c8.1,0,14.6,6.5,14.6,14.6v17.3h-32V0h17.4Z"/>
    <path class="st7" d="M3.4,0C1.5,0,0,1.5,0,3.4v1.1C0,2.7,1.5,1.1,3.4,1.1h57.1c1.9,0,3.4,1.5,3.4,3.4v-1.1c0-1.9-1.5-3.4-3.4-3.4H3.4Z"/>
  </g>
  <g class="st6">
    <path class="st1" d="M0,59.8v2.3c0,1.9,1.5,3.4,3.4,3.4h57.1c1.9,0,3.4-1.5,3.4-3.4v-2.3c0,1.9-1.5,3.4-3.4,3.4H3.5c-1.9,0-3.4-1.5-3.4-3.4Z"/>
    <path class="st4" d="M3.5,0h57.1c1.9,0,3.4,1.5,3.4,3.4v57.5c0,1.9-1.5,3.4-3.4,3.4H3.5c-1.9,0-3.4-1.5-3.4-3.4V3.4C0,1.5,1.6,0,3.5,0Z"/>
    <path class="st2" d="M3.5,0C1.6,0,0,1.5,0,3.4v1.1C0,2.7,1.6,1.1,3.5,1.1h57.1c1.9,0,3.4,1.5,3.4,3.4v-1.1c0-1.9-1.5-3.4-3.4-3.4H3.5Z"/>
    <path class="st11" d="M13.8,17.2v32.2h9.1v-20.7h4.6v20.7h9.1v-20.7h4.6v20.7h9.1v-26.5c0-3.2-2.3-5.6-5.3-5.6"/>
    <path class="st13" d="M13.8,16.1v32.2h9.1v-20.7h4.6v20.7h9.1v-20.7h4.6v20.7h9.1v-26.5c0-3.2-2.3-5.6-5.3-5.6"/>
  </g>
  <g class="st6">
    <path class="st1" d="M31.9,1.1C14.3,1.1,0,15.3,0,32.8s14.3,31.7,31.9,31.7,31.9-14.2,31.9-31.7S49.6,1.1,31.9,1.1Z"/>
    <path class="st5" d="M31.9,0C14.3,0,0,14.2,0,31.7s14.3,31.7,31.9,31.7,31.9-14.2,31.9-31.7S49.6,0,31.9,0Z"/>
    <path class="st11" d="M31.9,9.1l16,24.9-16,9.1-16-9.1,16-24.9Z"/>
    <path class="st11" d="M31.9,56.6l16-20.4-16,9.1-16-9.1,16,20.4Z"/>
    <path class="st17" d="M31.9,7.9l16,24.9-16,9.1-16-9.1L31.9,7.9Z"/>
    <path class="st17" d="M31.9,55.4l16-20.4-16,9.1-16-9.1,16,20.4Z"/>
    <path class="st2" d="M31.9,0C14.3,0,0,14.2,0,31.7c0,.2,0,.3,0,.5C.4,14.9,14.6,1.1,31.9,1.1c17.4,0,31.7,13.9,31.9,31.2,0-.2,0-.4,0-.7C63.9,14.2,49.6,0,31.9,0Z"/>
  </g>
  <g class="st6">
    <path class="st1" d="M32.1,5.9c-8.3,0-15.3,5.1-18.4,12.2C6,19.3,0,25.9,0,33.9s7.2,16,16,16h34c7.7,0,14-6.3,14-14s-5.4-13.1-12.4-13.9c-1.8-9.2-9.9-16.1-19.6-16.1Z"/>
    <path class="st24" d="M32.1,4.9c-8.3,0-15.3,5.1-18.4,12.2C6,18.3,0,24.9,0,32.9s7.2,16,16,16h34c7.7,0,14-6.3,14-14s-5.4-13.1-12.4-13.9c-1.8-9.2-9.9-16.1-19.6-16.1Z"/>
    <path class="st10" d="M35.2,17.9s5.8,3.4,5.8,12.2-5.9,11.9-5.9,11.9"/>
    <path class="st10" d="M23.1,21.9s6,2.3,6,8.2c0,5.8-6,7.8-6,7.8"/>
    <path class="st7" d="M32.1,4.9c-8.3,0-15.3,5.1-18.4,12.2C6,18.3,0,24.9,0,32.9s0,.3,0,.5c.3-7.8,6.1-14.1,13.6-15.2,3-7.2,10.1-12.2,18.4-12.2s17.8,7,19.6,16.1c6.8.8,12.1,6.4,12.3,13.3,0-.2,0-.3,0-.5,0-7.2-5.4-13.1-12.4-13.9-1.8-9.2-9.9-16.1-19.6-16.1Z"/>
  </g>
  <g class="st6">
    <path class="st11" d="M58.4,33.2c-.4,14-12.1,25.2-26.4,25.2-14.2,0-25.8-11-26.4-24.9,0,.2,0,.5,0,.7,0,14.3,11.8,25.9,26.4,25.9s26.4-11.6,26.4-25.9c0-.3,0-.7,0-1Z"/>
    <path class="st0" d="M58.4,33.3c0,14.3-11.8,25.9-26.4,25.9S5.6,47.7,5.6,33.3,17.4,7.4,32,7.4s26.4,11.6,26.4,25.9Z"/>
    <path class="st12" d="M32,7.4c-14.6,0-26.4,11.6-26.4,25.9,0,.1,0,.3,0,.4.2-14.2,12-25.5,26.4-25.5h0c14.4,0,26.2,11.4,26.4,25.5,0-.1,0-.3,0-.4,0-14.3-11.8-25.9-26.4-25.9h0Z"/>
    <path class="st12" d="M17.4,11.8c-7.1,4.6-11.7,12.6-11.7,21.6h21.1c0-2.1,1.3-3.9,3.1-4.7l-12.5-16.9h0Z"/>
    <path class="st12" d="M46.6,54.9c7.1-4.6,11.7-12.6,11.7-21.6h-21.1c0,2.1-1.3,3.9-3.1,4.7l12.5,16.9h0Z"/>
    <path class="st21" d="M32,23h0c5.8,0,10.6,4.6,10.6,10.4h0c0,5.7-4.7,10.4-10.6,10.4h0c-5.8,0-10.6-4.6-10.6-10.4h0c0-5.7,4.7-10.4,10.6-10.4Z"/>
    <path class="st14" d="M32,36.8h0c1.9,0,3.5-1.5,3.5-3.5h0c0-1.9-1.6-3.5-3.5-3.5h0c-1.9,0-3.5,1.5-3.5,3.5h0c0,1.9,1.6,3.5,3.5,3.5Z"/>
    <path class="st9" d="M32,24.7c-4.9,0-8.8,3.9-8.8,8.6s3.9,8.6,8.8,8.6,8.8-3.9,8.8-8.6-3.9-8.6-8.8-8.6ZM32,26.4c3.9,0,7,3.1,7,6.9s-3.1,6.9-7,6.9-7-3.1-7-6.9,3.1-6.9,7-6.9Z"/>
  </g>
  <g>
    <ellipse class="st1" cx="32.1" cy="32.8" rx="32" ry="31.7"/>
    <ellipse class="st3" cx="32.1" cy="31.7" rx="32" ry="31.7"/>
    <path class="st16" d="M44.2,12.7L6.9,51.3c1.3,1.7,2.8,3.2,4.4,4.6L48.8,17l-4.6-4.4Z"/>
    <path class="st22" d="M17.3,45.7c-.3-.8,4.5-6.4,3.9-9.3-1.6-7.9-4.2-9.8,3.6-16.6"/>
    <path class="st22" d="M21.6,39.4c.9.3,4.5-2.8,7.2-2.6,8.2.5,11.3,2.8,18.3-4"/>
    <ellipse class="st8" cx="25.2" cy="19.3" rx="6.9" ry="6.8"/>
    <ellipse class="st0" cx="25.2" cy="18.1" rx="6.9" ry="6.8"/>
    <polygon class="st8" points="48.6 24.9 56.1 32.3 48.6 39.6 41.2 32.3 48.6 24.9"/>
    <polygon class="st0" points="48.6 23.8 56.1 31.2 48.6 38.5 41.2 31.2 48.6 23.8"/>
    <path class="st8" d="M52.9,9.1l-4.3,15.9-11.7-11.6,16-4.3Z"/>
    <path class="st0" d="M52.9,7.9l-4.3,15.9-11.7-11.6,16-4.3Z"/>
    <path class="st7" d="M32.1,0C14.4,0,0,14.2,0,31.7c0,.2,0,.4,0,.6C.4,15,14.6,1.1,32.1,1.1c17.4,0,31.7,13.9,32,31.2,0-.2,0-.4,0-.6C64.1,14.2,49.7,0,32.1,0Z"/>
  </g>
</svg>