<?xml version="1.0" encoding="UTF-8"?>
<svg id="_图层_1" xmlns="http://www.w3.org/2000/svg" version="1.1" viewBox="0 0 64 64" width="48" height="48">
  <!-- Generator: Adobe Illustrator 29.0.1, SVG Export Plug-In . SVG Version: 2.1.0 Build 192)  -->
  <defs>
    <style>
      .st0 {
        fill: none;
        stroke: #474747;
        stroke-width: 1.4px;
      }

      .st1, .st2, .st3 {
        isolation: isolate;
      }

      .st1, .st2, .st4 {
        display: none;
      }

      .st1, .st3 {
        opacity: .2;
      }

      .st2 {
        opacity: .1;
      }

      .st2, .st5 {
        fill: #fff;
      }

      .st6 {
        fill: #009545;
      }

      .st7 {
        fill: #606060;
      }

      .st8 {
        fill: #474747;
      }

      .st4, .st9 {
        fill: #e4e4e4;
      }

      .st10 {
        fill: #d24646;
      }

      .st11 {
        fill: #2a58ae;
      }
    </style>
  </defs>
  <path class="st9" d="M50.3,64H13.8C6.2,64,0,57.8,0,50.3V13.8C0,6.2,6.2,0,13.8,0h36.6c7.5,0,13.7,6.2,13.7,13.7v36.5c0,7.5-6.2,13.7-13.7,13.7h0Z"/>
  <g>
    <circle class="st1" cx="31.3" cy="31.1" r="28"/>
    <circle class="st4" cx="31.3" cy="30.1" r="28"/>
    <path class="st0" d="M45,23.5c4.9,8.1,3.9,17.7-2.1,21.3-6,3.6-14.8,0-19.7-8.1-4.9-8.1-3.9-17.7,2.1-21.3,6-3.6,14.8,0,19.7,8.1Z"/>
    <path class="st11" d="M33.3,22.1c-5.5,0-10,4.5-10,10s4.5,10,10,10,10-4.5,10-10-4.5-10-10-10ZM31.6,27.4c3.8,0,6.8,3,6.8,6.8s-3.1,6.8-6.8,6.8-6.8-3.1-6.8-6.8,3-6.8,6.8-6.8Z"/>
    <path class="st8" d="M13.1,31.1s-4,3.8-3.7,6.2c.4,3.3,4.6,3.8,7.9,3.8,7.9,0,36.2-9.4,36.1-20.5,0-3.6-6.5-3.9-6.5-3.7,0,0,4.8,1.2,4.7,3.5-.4,8.6-24,18.3-34.5,18.6-2.2,0-5.3-.4-6.1-2.4-.8-1.8,2.2-5.5,2.2-5.5h0Z"/>
    <path class="st10" d="M45.3,21.1c0,2.8-2.2,5-5,5s-5-2.2-5-5,2.2-5,5-5,5,2.2,5,5Z"/>
    <path class="st7" d="M31.3,37.1c0,1.7-1.3,3-3,3s-3-1.3-3-3,1.3-3,3-3,3,1.3,3,3Z"/>
    <circle class="st3" cx="47.3" cy="45.1" r="16"/>
    <circle class="st6" cx="47.3" cy="44.1" r="16"/>
    <rect class="st5" x="44.3" y="43.1" width="6" height="12"/>
    <rect class="st5" x="44.3" y="34.1" width="6" height="6"/>
    <path class="st2" d="M31.3,2.1C15.9,2.1,3.3,14.6,3.3,30.1c0,.2,0,.4,0,.6C3.6,15.4,16,3.1,31.3,3.1c15.2,0,27.7,12.2,28,27.4,0-.1,0-.3,0-.4,0-15.5-12.5-28-28-28Z"/>
  </g>
</svg>