<?xml version="1.0" encoding="UTF-8"?>
<svg id="_图层_1" xmlns="http://www.w3.org/2000/svg" version="1.1" viewBox="0 0 64 64" width="48" height="48">
  <!-- Generator: Adobe Illustrator 29.0.1, SVG Export Plug-In . SVG Version: 2.1.0 Build 192)  -->
  <defs>
    <style>
      .st0 {
        fill: #7d7d7d;
      }

      .st1 {
        fill: #454545;
      }

      .st2, .st3, .st4 {
        opacity: .2;
      }

      .st2, .st3, .st4, .st5 {
        isolation: isolate;
      }

      .st3, .st5 {
        fill: #fff;
      }

      .st4 {
        stroke: #000;
      }

      .st4, .st6 {
        fill: none;
        stroke-linejoin: bevel;
        stroke-width: 6px;
      }

      .st7 {
        fill: #e4e4e4;
      }

      .st6 {
        stroke: #0bad50;
      }

      .st5 {
        opacity: .1;
      }
    </style>
  </defs>
  <path class="st7" d="M50.5,64H13.9C6.3,64,0,57.8,0,50.3V13.7C0,6.2,6.3,0,13.8,0h36.6c7.5,0,13.7,6.2,13.7,13.7v36.6c0,7.5-6.2,13.7-13.7,13.7h.1Z"/>
  <g>
    <path class="st2" d="M32,6.9c-14.1,0-25.5,11.4-25.5,25.6s11.4,25.6,25.5,25.6,25.5-11.4,25.5-25.6S46.1,6.9,32,6.9ZM37.9,13.1c4.1,1.2,7.6,3.7,10.2,7.1-1.7,1.1-2.9,3-2.9,5.2,0,3.4,2.8,6.2,6.2,6.2s.6,0,.8,0c0,.3,0,.6,0,1,0,4.1-1.2,8.1-3.6,11.5-1.1-1.1-2.6-1.8-4.3-1.8-3.4,0-6.2,2.8-6.2,6.2s.3,2.2.9,3.1c-2.2.8-4.6,1.3-7,1.3-2.4,0-4.8-.4-7-1.3.5-.9.9-2,.9-3.1,0-3.4-2.8-6.2-6.2-6.2s-3.2.7-4.3,1.8c-2.3-3.4-3.6-7.4-3.6-11.5,0-.3,0-.6,0-1,.3,0,.5,0,.8,0,3.4,0,6.2-2.8,6.2-6.2s-1.2-4.1-2.9-5.2c2.6-3.4,6.1-5.9,10.2-7.1.8,2.6,3.2,4.4,5.9,4.4,2.7,0,5.1-1.8,5.9-4.4Z"/>
    <path class="st0" d="M32,6c-14.1,0-25.5,11.4-25.5,25.6s11.4,25.6,25.5,25.6,25.5-11.4,25.5-25.6S46.1,6,32,6ZM37.9,12.2c4.1,1.2,7.6,3.7,10.2,7.1-1.7,1.1-2.9,3-2.9,5.2,0,3.4,2.8,6.2,6.2,6.2s.6,0,.8,0c0,.3,0,.6,0,1,0,4.1-1.2,8.1-3.6,11.5-1.1-1.1-2.6-1.8-4.3-1.8-3.4,0-6.2,2.8-6.2,6.2s.3,2.2.9,3.1c-2.2.8-4.6,1.3-7,1.3-2.4,0-4.8-.4-7-1.3.5-.9.9-2,.9-3.1,0-3.4-2.8-6.2-6.2-6.2s-3.2.7-4.3,1.8c-2.3-3.4-3.6-7.4-3.6-11.5,0-.3,0-.6,0-1,.3,0,.5,0,.8,0,3.4,0,6.2-2.8,6.2-6.2s-1.2-4.1-2.9-5.2c2.6-3.4,6.1-5.9,10.2-7.1.8,2.6,3.2,4.4,5.9,4.4,2.7,0,5.1-1.8,5.9-4.4Z"/>
    <path class="st5" d="M32,6c-14.1,0-25.5,11.4-25.5,25.6,0,.1,0,.2,0,.4.3-13.9,11.6-25,25.5-25,13.9,0,25.3,11.2,25.5,25.2,0-.2,0-.3,0-.5,0-14.1-11.4-25.6-25.5-25.6ZM47.6,19.6c-1.5,1.1-2.4,2.9-2.4,4.9s0,.3,0,.5c.1-2,1.2-3.8,2.9-4.8-.1-.2-.3-.4-.4-.6ZM16.4,19.6c-.2.2-.3.4-.5.5,1.6,1,2.7,2.8,2.9,4.8,0-.2,0-.3,0-.5,0-2-1-3.8-2.4-4.9ZM52.2,31.9c0,4-1.3,7.8-3.5,11.1-1.1-1.1-2.6-1.8-4.3-1.8-3.4,0-6.2,2.8-6.2,6.2s0,.2,0,.4c.3-3.2,2.9-5.7,6.1-5.7s3.2.7,4.3,1.8c2.3-3.4,3.6-7.4,3.6-11.5,0-.2,0-.3,0-.5ZM11.8,32c0,.1,0,.3,0,.4,0,4.1,1.3,8.1,3.6,11.5,1.1-1.1,2.6-1.8,4.3-1.8,3.2,0,5.9,2.5,6.1,5.7,0-.1,0-.2,0-.4,0-3.4-2.8-6.2-6.2-6.2s-3.2.7-4.3,1.8c-2.2-3.3-3.5-7.1-3.6-11ZM25.4,50.7c-.1.3-.2.5-.4.8,2.2.8,4.6,1.3,7,1.3,2.4,0,4.8-.4,7-1.3-.1-.2-.3-.5-.4-.8-2.1.8-4.4,1.1-6.6,1.2-2.3,0-4.5-.4-6.6-1.2Z"/>
    <ellipse class="st1" cx="32" cy="10.4" rx="2.6" ry="2.6"/>
    <ellipse class="st1" cx="12.7" cy="24.5" rx="2.6" ry="2.6"/>
    <ellipse class="st1" cx="51.3" cy="24.5" rx="2.6" ry="2.6"/>
    <ellipse class="st1" cx="44.3" cy="47.4" rx="2.6" ry="2.6"/>
    <ellipse class="st1" cx="19.7" cy="47.4" rx="2.6" ry="2.6"/>
    <path class="st6" d="M21.8,25.2l10.2-4.3,10.2,4.3M8.3,13.9h5.9l7.6,11.2,10.2,31.1,10.2-31.1,7.7-11.2h5.9"/>
    <path class="st4" d="M21.8,26.1l10.2-4.3,10.2,4.3M8.3,14.8h5.9l7.6,11.2,10.2,31.1,10.2-31.1,7.7-11.2h5.9"/>
    <path class="st6" d="M21.8,25.2l10.2-4.3,10.2,4.3M8.3,13.9h5.9l7.6,11.2,10.2,31.1,10.2-31.1,7.7-11.2h5.9"/>
    <path class="st3" d="M8.3,11.3v.9h5.9l2.2,1.2,6.4,9.5,8.2-3.5h2.1l8.2,3.5,6.4-9.5,2.2-1.2h5.9v-.9h-5.9l-2.2,1.2-6.4,9.5-8.2-3.5h-2.1l-8.2,3.5-6.4-9.5-2.2-1.2h-5.9ZM25.3,27.4h-.3c0,.1,6.9,21.2,6.9,21.2l6.9-21.1h-.3c0-.1-6.7,20.2-6.7,20.2l-6.7-20.3Z"/>
  </g>
</svg>