<?xml version="1.0" encoding="UTF-8"?>
<svg id="_图层_1" xmlns="http://www.w3.org/2000/svg" version="1.1" viewBox="0 0 64 64" width="48" height="48">
  <!-- Generator: Adobe Illustrator 29.0.1, SVG Export Plug-In . SVG Version: 2.1.0 Build 192)  -->
  <defs>
    <style>
      .st0 {
        fill: #e8494e;
      }

      .st1 {
        fill: #4f4f4f;
      }

      .st2 {
        opacity: .2;
      }

      .st2, .st3, .st4 {
        isolation: isolate;
      }

      .st2, .st3, .st5 {
        display: none;
      }

      .st3, .st6 {
        fill: #fff;
      }

      .st3, .st4 {
        opacity: .1;
      }

      .st7 {
        fill: #38af29;
      }

      .st8 {
        fill: #1f72c7;
      }

      .st5, .st9 {
        fill: #e4e4e4;
      }
    </style>
  </defs>
  <path class="st9" d="M50.3,64H13.9C6.3,64,.2,57.8.2,50.3V13.8C.2,6.2,6.3,0,13.9,0h36.5c7.5,0,13.7,6.2,13.7,13.7v36.5c0,7.5-6.1,13.7-13.7,13.7h0Z"/>
  <g>
    <path class="st2" d="M11.4,10c-1.3,0-2.4,1-2.4,2.3v40.9c0,1.3,1.1,2.3,2.4,2.3h21.4s0,0,.1,0c0,0,.2,0,.3,0,13.3,0,24.2-10.2,24.2-22.7s-10.8-22.7-24.2-22.7c0,0-.1,0-.2,0,0,0-.1,0-.2,0H11.4Z"/>
    <path class="st5" d="M19.2,9.2v45.4h13.6c7.6,0,23-10.2,23-22.7s-15.3-22.7-23-22.7h-13.6Z"/>
    <path class="st0" d="M11.4,9.2c-1.3,0-2.4,1-2.4,2.3v40.9c0,1.3,1.1,2.3,2.4,2.3h1V9.2h-1Z"/>
    <rect class="st7" x="12.5" y="9.2" width="3.5" height="45.4"/>
    <rect class="st8" x="15.9" y="9.2" width="3.5" height="45.4"/>
    <path class="st4" d="M33.2,10c-.8,0-1.6,0-2.3.1,12.3,1.2,21.7,11,21.7,22.6,0,11.7-9.5,21.5-21.8,22.6.8,0,1.7.1,2.5.1,13.3,0,24.2-10.2,24.2-22.7s-10.8-22.7-24.2-22.7ZM33.2,19.7c-.8,0-1.6,0-2.3.2,6.7,1,11.5,6.4,11.6,12.8,0,6.3-4.8,11.7-11.5,12.8.7.1,1.5.2,2.3.2,7.6,0,13.8-5.8,13.8-13s-6.2-13-13.8-13ZM29.7,26.2c-3.8,0-6.9,2.9-6.9,6.5s3.1,6.5,6.9,6.5,6.9-2.9,6.9-6.5-3.1-6.5-6.9-6.5Z"/>
    <path class="st1" d="M33.2,9.2c-.8,0-1.6,0-2.3.1,12.3,1.2,21.7,11,21.7,22.6,0,11.7-9.5,21.5-21.8,22.6.8,0,1.7.1,2.5.1,13.3,0,24.2-10.2,24.2-22.7s-10.8-22.7-24.2-22.7Z"/>
    <path class="st1" d="M33.2,18.9c-.8,0-1.6,0-2.3.2,6.7,1,11.5,6.4,11.6,12.8,0,6.3-4.8,11.7-11.5,12.8.7.1,1.5.2,2.3.2,7.6,0,13.8-5.8,13.8-13s-6.2-13-13.8-13Z"/>
    <ellipse class="st1" cx="29.7" cy="31.9" rx="6.9" ry="6.5"/>
    <path class="st6" d="M27.8,35.6c0-.2,0-.4,0-.5,0-.1.1-.3.3-.3.1,0,.2-.1.4-.2.1,0,.3,0,.5,0s.3,0,.5,0c.1,0,.3.1.4.2.1,0,.2.2.3.3,0,.1,0,.3,0,.5s0,.4,0,.5c0,.1-.2.3-.3.3-.1,0-.2.2-.4.2-.1,0-.3,0-.5,0s-.3,0-.5,0c-.1,0-.3-.1-.4-.2-.1,0-.2-.2-.3-.3,0-.1,0-.3,0-.5M28.1,33.5v-.5c0-.2,0-.4,0-.6,0-.2.1-.3.2-.5,0-.2.2-.3.4-.5.2-.2.3-.3.6-.5.2-.1.4-.3.5-.4.1-.1.2-.2.3-.3,0-.1.1-.2.2-.3,0-.1,0-.3,0-.4,0-.2,0-.4-.3-.6-.2-.2-.4-.2-.8-.2s-.7,0-1,.2c-.4.1-.7.3-1.1.5l-.7-1.4c.2-.1.4-.2.6-.3.2,0,.5-.2.7-.3.2,0,.5-.1.8-.2.3,0,.5,0,.8,0,.5,0,.9,0,1.3.2.4.1.7.3,1,.5.3.2.5.4.6.7.1.3.2.6.2,1s0,.5,0,.7c0,.2-.2.4-.3.6-.1.2-.3.4-.5.5-.2.2-.4.3-.7.5-.2.1-.3.3-.5.4-.1.1-.2.2-.3.3,0,0-.1.2-.1.3,0,.1,0,.2,0,.4v.4h-1.8Z"/>
    <path class="st3" d="M11.4,9.2c-1.3,0-2.4,1-2.4,2.3v.8c0-1.3,1.1-2.3,2.4-2.3h21.4s.1,0,.2,0c0,0,.1,0,.2,0,13.2,0,24,10,24.2,22.4,0-.2,0-.3,0-.5,0-12.5-10.8-22.7-24.2-22.7,0,0-.1,0-.2,0,0,0-.1,0-.2,0H11.4Z"/>
  </g>
</svg>