<?xml version="1.0" encoding="UTF-8"?>
<svg id="_图层_1" xmlns="http://www.w3.org/2000/svg" version="1.1" viewBox="0 0 64 64" width="48" height="48">
  <!-- Generator: Adobe Illustrator 29.0.1, SVG Export Plug-In . SVG Version: 2.1.0 Build 192)  -->
  <defs>
    <style>
      .st0, .st1, .st2, .st3 {
        display: none;
      }

      .st0, .st4 {
        fill: #3f3f3f;
      }

      .st5 {
        fill: #ffba58;
      }

      .st1, .st2, .st6, .st7, .st8 {
        isolation: isolate;
      }

      .st1, .st7, .st8 {
        opacity: .2;
      }

      .st2 {
        opacity: .1;
      }

      .st2, .st9, .st8 {
        fill: #fff;
      }

      .st10 {
        stroke: #dadf18;
        stroke-width: 4px;
      }

      .st10, .st11 {
        fill: none;
        stroke-linejoin: round;
      }

      .st6 {
        opacity: .8;
      }

      .st11 {
        stroke: #eecc7b;
        stroke-linecap: round;
        stroke-width: 1.4px;
      }

      .st12 {
        fill: #dadf18;
      }

      .st13 {
        fill: #736dab;
      }
    </style>
  </defs>
  <path class="st4" d="M50.4,64H13.8c-7.6,0-13.8-6.2-13.8-13.7V13.7C0,6.2,6.2,0,13.7,0h36.6c7.5,0,13.7,6.2,13.7,13.7v36.6c0,7.5-6.2,13.7-13.7,13.7h.1Z"/>
  <g class="st3">
    <path class="st7" d="M57.1,31.4c-.4,13.3-11.5,24-25.1,24-13.5,0-24.5-10.5-25.1-23.7,0,.2,0,.5,0,.7,0,13.6,11.2,24.7,25.1,24.7s25.1-11.1,25.1-24.7c0-.3,0-.7,0-1Z"/>
    <ellipse class="st13" cx="32" cy="31.6" rx="25.1" ry="24.7"/>
    <path class="st5" d="M57.1,31.6c0,13.6-11.2,24.7-25.1,24.7V6.8c13.9,0,25.1,11.1,25.1,24.7Z"/>
    <ellipse class="st7" cx="32" cy="32.4" rx="17.9" ry="17.7"/>
    <ellipse class="st9" cx="32" cy="31.6" rx="17.9" ry="17.7"/>
    <path class="st6" d="M26.6,21v12.4c-.3,0-.6,0-.9,0-2.5,0-4.5,2-4.5,4.4s2,4.4,4.5,4.4,4.5-2,4.5-4.4v-13.2h7.2v5.4c-.3,0-.6,0-.9,0-2.5,0-4.5,2-4.5,4.4s2,4.4,4.5,4.4,4.5-2,4.5-4.4v-13.2h-14.4Z"/>
    <path class="st8" d="M32,6.8c-13.9,0-25.1,11.1-25.1,24.7,0,.1,0,.3,0,.4.2-13.5,11.4-24.3,25.1-24.3h0c13.7,0,24.8,10.8,25.1,24.3,0-.1,0-.3,0-.4,0-13.6-11.2-24.7-25.1-24.7h0Z"/>
  </g>
  <g>
    <path class="st1" d="M3.2,1.1h57.8c1.8,0,3.2,1.4,3.2,3.2v57.5c0,1.8-1.4,3.2-3.2,3.2H3.2c-1.8,0-3.2-1.4-3.2-3.2V4.3C0,2.6,1.4,1.1,3.2,1.1Z"/>
    <path class="st0" d="M3.2,0h57.8c1.8,0,3.2,1.4,3.2,3.2v57.5c0,1.8-1.4,3.2-3.2,3.2H3.2c-1.8,0-3.2-1.4-3.2-3.2V3.2C0,1.4,1.4,0,3.2,0Z"/>
    <path class="st7" d="M52.7,14.8c-.2,0-.4,0-.6.1l-20.6,6.5c-1,.3-1.6,1.2-1.6,2.2v18.7c-1.3-.2-2.7-.2-4.1,0-4.4.7-7.7,3.3-7.3,5.7,0,0,0,0,0,0,.4,2.4,4.3,3.8,8.7,3,0,0,0,0,0,0,4.1-.7,7.3-3,7.4-5.3v-20.6l16.1-5.1v15.3c-1.3-.2-2.7-.2-4.1,0-4.4.7-7.7,3.3-7.3,5.7,0,0,0,0,0,0,.4,2.4,4.3,3.8,8.7,3,0,0,0,0,0,0,4.1-.7,7.3-3,7.4-5.3v-21.9c0-1.3-1-2.3-2.3-2.3,0,0,0,0,0,0ZM7.7,26.3c-.4,0-.8.4-.8.8,0,.3.2.5.4.7l8.7,5.3-8.8,5.5c-.4.2-.5.7-.3,1.1.2.4.7.5,1.1.3,0,0,0,0,0,0l9.9-6.2c.4-.2.5-.7.3-1.1,0-.1-.2-.2-.3-.3l-9.9-5.9c-.1,0-.3-.1-.5-.1h0Z"/>
    <ellipse class="st12" cx="26.4" cy="45.7" rx="8.1" ry="4.4" transform="translate(-7.3 5.1) rotate(-9.7)"/>
    <ellipse class="st12" cx="47" cy="38.8" rx="8.1" ry="4.4" transform="translate(-5.9 8.5) rotate(-9.7)"/>
    <path class="st10" d="M32.1,44.8v-22.3l20.6-6.5v21.9"/>
    <path class="st11" d="M7.7,25.9l9.9,5.9-9.9,6.2"/>
    <path class="st2" d="M3.2,0C1.4,0,0,1.4,0,3.2v1.1C0,2.6,1.4,1.1,3.2,1.1h57.8c1.8,0,3.2,1.4,3.2,3.2v-1.1c0-1.8-1.4-3.2-3.2-3.2H3.2Z"/>
  </g>
</svg>