<?xml version="1.0" encoding="UTF-8"?>
<svg id="_图层_1" xmlns="http://www.w3.org/2000/svg" version="1.1" viewBox="0 0 64 64" width="48" height="48">
  <!-- Generator: Adobe Illustrator 29.0.1, SVG Export Plug-In . SVG Version: 2.1.0 Build 192)  -->
  <defs>
    <style>
      .st0 {
        fill: #4f4f4f;
      }

      .st1 {
        opacity: .9;
      }

      .st1, .st2, .st3, .st4, .st5 {
        isolation: isolate;
      }

      .st1, .st3, .st6, .st5 {
        fill: #fff;
      }

      .st2, .st3, .st7, .st8 {
        display: none;
      }

      .st2, .st4, .st5 {
        opacity: .2;
      }

      .st3 {
        opacity: .1;
      }

      .st9 {
        fill: #2ce55c;
      }

      .st10 {
        fill: #34c637;
      }

      .st11, .st8 {
        fill: #7a7a7a;
      }
    </style>
  </defs>
  <path class="st11" d="M50.3,64H13.8C6.2,64,0,57.8,0,50.3V13.8C0,6.2,6.2,0,13.8,0h36.6c7.5,0,13.7,6.2,13.7,13.7v36.5c0,7.5-6.2,13.7-13.7,13.7h0Z"/>
  <g class="st7">
    <path class="st1" d="M49.4,60.7H16.7c-6.7.2-12.3-5.4-12.3-12.1V15.7c-.2-6.8,5.3-12.4,12-12.4h32.7c6.7-.2,12.3,5.4,12.3,12.1v32.9c.2,6.8-5.3,12.4-12,12.4h0Z"/>
    <g>
      <path class="st9" d="M30.6,52.2v-6.1c-1.8,0-3.5.5-5.2,1,1,2.3,2.9,4.1,5.2,5.1ZM25.3,17c1.7.5,3.4.9,5.2,1v-6.2c-2.3,1-4.2,2.8-5.2,5.2ZM22,48.5c-1.1.5-2.1,1.2-3,1.8,2.2,1.6,4.7,2.8,7.3,3.5-1.7-1.5-3.2-3.3-4.2-5.3h-.1ZM23.8,43.7c2.2-.7,4.4-1.2,6.7-1.3v-9.2h-8.5c0,3.6.7,7.1,1.8,10.5ZM22,15.7c1.1-2.1,2.5-3.9,4.2-5.4-2.6.7-5.1,1.9-7.3,3.5,1,.7,2,1.4,3.1,1.9ZM22.1,29.5h8.5v-7.8c-2.3-.1-4.6-.6-6.7-1.3-1,2.9-1.6,6-1.7,9.1h0ZM18.4,33.2h-8.8c.3,5.5,2.6,10.8,6.4,14.7,1.4-1.1,2.9-2,4.4-2.8-1.3-3.8-2-7.8-2.1-11.9h.1ZM42.3,15.7c1.1-.5,2.1-1.2,3-1.8-2.2-1.6-4.6-2.8-7.2-3.5,1.7,1.5,3.1,3.3,4.2,5.3ZM20.5,19c-1.6-.8-3-1.7-4.4-2.8-3.5,3.6-5.8,8.3-6.3,13.3h8.7c.2-3.6.9-7.1,2.1-10.5h-.1ZM34.3,46.2v6c2.1-1.1,3.8-2.8,4.8-4.9-1.5-.5-3.1-.9-4.8-1.1ZM43.8,45.1c1.6.8,3,1.7,4.4,2.8,3.9-3.9,6.2-9.2,6.4-14.7h-8.7c0,4.1-.8,8.1-2.2,11.9h0ZM43.8,19c1.2,3.4,1.9,6.9,2.1,10.4h8.6c-.6-5-2.8-9.6-6.3-13.2-1.4,1.1-2.9,2-4.4,2.8ZM34.3,12v5.9c1.6-.1,3.2-.5,4.8-1-1-2.1-2.7-3.9-4.8-5h0ZM42.3,48.5c-1,2-2.4,3.8-4.1,5.3,2.6-.7,5-1.9,7.2-3.5-1-.7-2-1.3-3.1-1.8ZM40.5,20.4c-2,.7-4.1,1.1-6.2,1.3v7.8h8c-.2-3.1-.7-6.1-1.7-9.1h0ZM42.3,33.2h-8v9.3c2.1.2,4.2.6,6.2,1.3,1.1-3.4,1.7-7,1.8-10.5h0Z"/>
      <path class="st9" d="M50.4.2H13.8C6.2.2,0,7,0,14H0l.2,36.5c0,7.8,6.4,13.4,13.1,13.4h37.1c8.2,0,13.3-6.5,13.5-13.5V13.7c.1-5.8-4.7-13.5-13.6-13.5ZM32.1,58.2c-14.5,0-26.2-11.8-26.2-26.3S17.7,5.8,32.1,5.8s26.2,11.8,26.2,26.3h0c0,14.5-11.7,26.3-26.2,26.3h0Z"/>
    </g>
  </g>
  <g>
    <g>
      <path class="st2" d="M4.4,1.2C1.9,1.2,0,2.7,0,4.6v57c0,1.9,1.9,3.4,4.4,3.4h49.4c5.6,0,10.2-3.6,10.2-8V9.2c0-4.4-4.5-8-10.2-8H4.4Z"/>
      <path class="st8" d="M4.4,0C1.9,0,0,1.6,0,3.5v57c0,1.9,1.9,3.4,4.4,3.4h49.4c5.6,0,10.2-3.6,10.2-8V8C64,3.6,59.4,0,53.8,0H4.4Z"/>
      <rect class="st4" y="21.7" width="64" height="22.8"/>
      <rect class="st10" y="20.6" width="64" height="22.8"/>
      <rect class="st5" y="20.6" width="64" height="1.1"/>
      <path class="st0" d="M50.4,0v63.8l3.1-.4c.5,0,1.2-.7,1.7-.8l-.3-61.6c-.5,0-1.4-.6-1.9-.6l-2.6-.4Z"/>
      <path class="st3" d="M4.4,0C1.9,0,0,1.6,0,3.5v1.1C0,2.7,1.9,1.2,4.4,1.2h49.4c5.6,0,10.2,3.6,10.2,8v-1.1C64,3.6,59.4,0,53.8,0H4.4Z"/>
    </g>
    <path class="st4" d="M10.2,28.5v9.1h1.5v-8h4.4c.8,0,1.5.5,1.5,1.1v6.8h1.5v-6.8c0-1.3-1.3-2.3-2.9-2.3h-5.8Z"/>
    <path class="st6" d="M10.2,27.4v9.1h1.5v-8h4.4c.8,0,1.5.5,1.5,1.1v6.8h1.5v-6.8c0-1.3-1.3-2.3-2.9-2.3h-5.8Z"/>
    <path class="st4" d="M26.2,28.5c-1.6,0-2.9,1-2.9,2.3v4.6c0,1.3,1.3,2.3,2.9,2.3h2.9v2.3h1.5v-11.4h-4.4ZM26.2,29.7h2.9v6.8h-2.9c-.8,0-1.5-.5-1.5-1.1v-4.6c0-.6.6-1.1,1.5-1.1Z"/>
    <path class="st6" d="M26.2,27.4c-1.6,0-2.9,1-2.9,2.3v4.6c0,1.3,1.3,2.3,2.9,2.3h2.9v2.3h1.5v-11.4h-4.4ZM26.2,28.5h2.9v6.8h-2.9c-.8,0-1.5-.5-1.5-1.1v-4.6c0-.6.6-1.1,1.5-1.1Z"/>
    <path class="st4" d="M37.8,28.5c-1.6,0-2.9,1-2.9,2.3v4.6c0,1.3,1.3,2.3,2.9,2.3h2.9v2.3h1.5v-11.4h-4.4ZM37.8,29.7h2.9v6.8h-2.9c-.8,0-1.5-.5-1.5-1.1v-4.6c0-.6.6-1.1,1.5-1.1Z"/>
    <path class="st6" d="M37.8,27.4c-1.6,0-2.9,1-2.9,2.3v4.6c0,1.3,1.3,2.3,2.9,2.3h2.9v2.3h1.5v-11.4h-4.4ZM37.8,28.5h2.9v6.8h-2.9c-.8,0-1.5-.5-1.5-1.1v-4.6c0-.6.6-1.1,1.5-1.1Z"/>
  </g>
</svg>