<?xml version="1.0" standalone="no"?><!DOCTYPE svg PUBLIC "-//W3C//DTD SVG 1.1//EN" "http://www.w3.org/Graphics/SVG/1.1/DTD/svg11.dtd"><svg t="1722900119182" class="icon" viewBox="0 0 1024 1024" version="1.1" xmlns="http://www.w3.org/2000/svg" p-id="76264" xmlns:xlink="http://www.w3.org/1999/xlink" width="48" height="48"><path d="M974.63523555 299.08992c0.11264 3.072 0.32426667 6.144 0.32540445 9.21486222 0.01479111 224.32995555 0.01365333 448.66104889 0.01365333 672.99100445v7.94510222c-8.45824 5.17006222-15.85379555 11.04668445-20.16142222 20.58695111H72.08504889c-4.96071111-8.09984-10.89649778-15.43281778-20.39125334-19.84967111V33.42791111c8.09301333-4.94705778 15.30993778-10.99548445 20.11022223-20.77809778h7.26812444c197.01077333 0 394.02154667-0.00227555 591.03118223 0.01479112 3.07086222 0 6.14058667 0.23096889 9.21144888 0.35384888 0.03185778 3.84113778 0.09102222 7.68227555 0.09102222 11.52341334 0.00682667 75.29130667 0.01706667 150.58261333-0.01251555 225.87392-0.00227555 6.23616-1.17532445 13.13792 8.83256889 11.76348444l0.69404444 8.90652444c-1.59175111 7.41148445 1.39491555 10.55516445 8.87011556 9.51409778l0.07964444-0.08419555c-1.20945778 7.47747555 1.89781333 10.51534222 9.34684445 9.08515555l-0.23893333 0.37205334c-0.89201778 7.45016889 2.36430222 10.33102222 9.65632 8.76544l258.0013511 0.35157333zM697.72174222 483.37009778c3.90257778-0.07281778 9.2672 2.20956445 9.29792-4.8128 0.11264-25.62503111 0.04437333-51.25006222 0.04437333-77.0048H319.19900445c0 25.54424889 0.20707555 50.12366222-0.12288 74.69624889-0.10353778 7.68455111 3.91395555 8.00199111 9.51182222 7.12135111h129.49162666v332.48369777h101.13365334c2.93774222 0.10012445 6.02453333 1.27317333 9.73368888-2.02638222v-330.45617778l128.77482667-0.00113777z" fill="#1295DA" p-id="76265"></path><path d="M688.91989333 271.08579555l-0.69404444-8.90652444 0.47559111-249.20064c10.23658667-3.24266667 12.10823111 7.86204445 17.22709333 11.81468444 9.65063111 7.45358222 18.81770667 16.84707555 26.58986667 26.21667556 9.84632889 11.87271111 21.04206222 22.70321778 31.72352 33.24586667 10.72014222 10.58019555 22.25379555 21.31740445 33.03310222 31.86574222 10.71786667 10.48803555 21.22524445 22.41991111 31.88508445 32.96028445 10.69511111 10.57450667 22.18552889 21.43232 32.91363555 31.98065777 10.67463111 10.496 21.63029333 21.68490667 31.76220445 33.16622223 11.32885333 12.83868445 23.70218667 25.50670222 36.67171555 36.6023111 11.66791111 9.98172445 19.46624 24.18915555 33.87164445 31.15804445 1.35850667 0.65763555 0.97962667 4.90723555 1.40856888 7.49112889-13.04120889 0.08988445-26.08241778 0.23552-39.12476444 0.25713778-70.19861333 0.11605333-140.39836445 0.20138667-210.59697778 0.29809778l-9.08856888-0.06485334 0.23893333-0.37205333c0.91136-7.17141333-2.22208-10.18083555-9.34684445-9.08515556l-0.07964444 0.08419556c1.21173333-7.05649778-1.56216889-10.39815111-8.87011556-9.51182223z" fill="#FDD880" p-id="76266"></path><path d="M716.06613333 290.03662222c70.19861333-0.09671111 140.39836445-0.18204445 210.59697778-0.29809777 13.04234667-0.02161778 26.08355555-0.16725333 39.12476444-0.25713778 7.11793778-0.63601778 10.63367111 2.048 8.84736 9.60967111-86.00120889-0.11832889-172.00128-0.23665778-258.00248888-0.35271111l-0.56661334-8.70172445z" fill="#B4C39D" p-id="76267"></path><path d="M688.70144 12.97863111l-0.47559111 249.20064c-10.00675555 1.37443555-8.83484445-5.52732445-8.83256889-11.76348444 0.02958222-75.29130667 0.01934222-150.58261333 0.01251555-225.87392 0-3.84113778-0.05916445-7.68227555-0.09102222-11.52341334l9.38666667-0.03982222z" fill="#4FA6C2" p-id="76268"></path><path d="M559.21322667 815.85379555h-92.11676445V474.27811555H328.65393778V410.5216h369.00295111v63.75651555H559.21436445l-0.00113778 341.57568z" fill="#FEFEFE" p-id="76269"></path><path d="M697.65575111 474.27697778v-63.75651556H328.6528l-0.00113778 63.75765333-0.06485333 9.09198223c-5.59672889 0.88064-9.61536 0.5632-9.51182222-7.12135111 0.32995555-24.57258667 0.12288-49.152 0.12288-74.69624889h387.86503111c0 25.75473778 0.06826667 51.38090667-0.04437333 77.0048-0.03072 7.02236445-5.39534222 4.73998222-9.29792 4.8128l-0.06485334-9.09312z" fill="#87C9EC" p-id="76270"></path><path d="M328.58794667 483.37009778l0.06485333-9.09198223 138.4448-0.00113777v341.57568h-9.01688889V483.36896l-129.49276444 0.00113778zM697.65575111 474.27697778l0.06599111 9.09312H568.94691555v330.45617777c-3.70915555 3.29955555-6.79708445 2.12764445-9.73368888 2.02638223V474.27697778h138.44252444z" fill="#C3E4F5" p-id="76271"></path><path d="M688.91989333 271.08579555c7.30794667-0.88632889 10.08184889 2.45646222 8.87011556 9.51409778-7.4752 1.04106667-10.46186667-2.10261333-8.87011556-9.51409778z" fill="#9ABCA6" p-id="76272"></path><path d="M697.86965333 280.51569778c7.12476445-1.09568 10.25820445 1.91374222 9.34684445 9.08515555-7.45016889 1.42904889-10.55630222-1.60768-9.34684445-9.08515555z" fill="#B4C39D" p-id="76273"></path><path d="M716.06613333 290.03662222l0.56661334 8.70172445c-7.29201778 1.56558222-10.54833778-1.31527111-9.65632-8.76544l9.08970666 0.06371555z" fill="#4FA6C2" p-id="76274"></path></svg>
