<?xml version="1.0" encoding="UTF-8"?>
<svg id="_图层_1" xmlns="http://www.w3.org/2000/svg" version="1.1" viewBox="0 0 64 64" width="48" height="48">
  <!-- Generator: Adobe Illustrator 29.0.1, SVG Export Plug-In . SVG Version: 2.1.0 Build 192)  -->
  <defs>
    <style>
      .st0 {
        fill: #3e50b4;
      }

      .st0, .st1, .st2, .st3 {
        display: none;
      }

      .st4 {
        fill: #f23845;
      }

      .st1, .st2, .st5, .st6, .st7 {
        isolation: isolate;
      }

      .st1, .st5, .st6 {
        opacity: .2;
      }

      .st2, .st8, .st6, .st7 {
        fill: #fff;
      }

      .st2, .st7 {
        opacity: .1;
      }

      .st9 {
        fill: #e97e10;
      }

      .st10 {
        fill: #c0191f;
      }

      .st11 {
        fill: #7767c0;
      }

      .st12 {
        fill: #ccc;
      }
    </style>
  </defs>
  <path class="st8" d="M50.3,64H13.9C6.3,64,.2,57.8.2,50.3V13.8C.2,6.2,6.3,0,13.9,0h36.5c7.5,0,13.7,6.2,13.7,13.7v36.5c0,7.5-6.1,13.7-13.7,13.7h0Z"/>
  <g class="st3">
    <ellipse class="st1" cx="32.1" cy="32.6" rx="31.9" ry="31.4"/>
    <ellipse class="st0" cx="32.1" cy="31.5" rx="31.9" ry="31.4"/>
    <path class="st5" d="M18.5,21.4v3.4h27.3v-3.4h-27.3ZM18.5,28.1v3.4h27.3v-3.4h-27.3ZM18.5,34.8v3.4h27.3v-3.4h-27.3ZM18.5,41.6v3.4h18.2v-3.4h-18.2Z"/>
    <path class="st8" d="M18.5,20.2v3.4h27.3v-3.4h-27.3ZM18.5,27v3.4h27.3v-3.4h-27.3ZM18.5,33.7v3.4h27.3v-3.4h-27.3ZM18.5,40.4v3.4h18.2v-3.4h-18.2Z"/>
    <path class="st2" d="M32.1,0C14.5,0,.2,14.1.2,31.5c0,.2,0,.4,0,.7C.5,15,14.7,1.2,32.1,1.2c17.3,0,31.5,13.7,31.9,30.7,0-.2,0-.3,0-.5C64,14.1,49.7,0,32.1,0Z"/>
  </g>
  <g class="st3">
    <path class="st5" d="M32.5,9.7c-12.8,0-23.2,10.1-23.2,22.6,0,8.4,4.8,16.1,12.5,20l3.8-11c-2.9-2.1-4.6-5.5-4.7-9,0-6.3,5.2-11.3,11.6-11.3s11.6,5.1,11.6,11.3c0,3.6-1.7,6.9-4.7,9l3.8,11c7.7-3.9,12.5-11.6,12.5-20,0-12.5-10.4-22.6-23.2-22.6ZM32.5,25.9c-3.7,0-6.6,2.9-6.6,6.5,0,2.7,1.7,5.1,4.2,6l-3.4,16.6h11.6l-3.4-16.6c2.6-1,4.2-3.4,4.2-6,0-3.6-3-6.5-6.6-6.5Z"/>
    <path class="st9" d="M32.5,8.9c-12.8,0-23.2,10.1-23.2,22.6,0,8.4,4.8,16.1,12.5,20l3.8-11c-2.9-2.1-4.6-5.5-4.7-9,0-6.3,5.2-11.3,11.6-11.3s11.6,5.1,11.6,11.3c0,3.6-1.7,6.9-4.7,9l3.8,11c7.7-3.9,12.5-11.6,12.5-20,0-12.5-10.4-22.6-23.2-22.6Z"/>
    <path class="st6" d="M32.5,8.9c-12.8,0-23.2,10.1-23.2,22.6,0,.1,0,.3,0,.4.2-12.3,10.5-22.2,23.2-22.2,12.6,0,22.9,9.8,23.2,22,0,0,0-.1,0-.2,0-12.5-10.4-22.6-23.2-22.6ZM44.1,31.7c0,3.5-1.8,6.7-4.6,8.8l.2.6c2.8-2.1,4.4-5.4,4.5-8.8,0-.2,0-.4,0-.6ZM20.9,31.9c0,.1,0,.3,0,.4,0,3.4,1.7,6.7,4.5,8.8l.2-.6c-2.8-2-4.5-5.2-4.6-8.6Z"/>
    <path class="st11" d="M32.5,25.1c-3.7,0-6.6,2.9-6.6,6.5,0,2.7,1.7,5.1,4.2,6l-3.4,16.6h11.6l-3.4-16.6c2.6-1,4.2-3.4,4.2-6,0-3.6-3-6.5-6.6-6.5Z"/>
    <path class="st7" d="M32.5,25.1c-3.7,0-6.6,2.9-6.6,6.5,0,.1,0,.3,0,.4.2-3.4,3.1-6.1,6.6-6.1,3.5,0,6.3,2.6,6.6,5.9,0,0,0-.2,0-.3,0-3.6-3-6.5-6.6-6.5ZM30,38.3l-3.3,15.9h.2l3.2-15.8c0,0-.1,0-.2,0ZM35,38.3s-.1,0-.2,0l3.2,15.8h.2l-3.3-15.9Z"/>
  </g>
  <g class="st3">
    <path class="st5" d="M37.2,11.6c-3.8,0-7.5,1.4-10.5,4-1.1.7-2.1,1.7-3,2.8-.3.4-.6.8-.8,1.2,0,0,0,0,0,0-.2.4-.5.8-.7,1.2,0,0,0,.1,0,.2-.2.4-.4.8-.6,1.2,0,0,0,.2-.1.3-.2.4-.3.8-.4,1.2,0,.1,0,.3-.1.4-.1.4-.2.8-.3,1.1,0,.2,0,.3-.1.5,0,.4-.2.7-.2,1.1,0,.2,0,.4,0,.6,0,.3,0,.7-.1,1,0,.2,0,.5,0,.7,0,.3,0,.7,0,1,0,.3,0,.6,0,.9,0,.2,0,.3,0,.5,0,0,0,0,0,0,.1-6.5,2.8-12.3,6.8-15.1,0,0,0,0,0,0,1.5-1,3.2-1.5,4.8-1.6,6.3,0,11.5,7.3,11.7,16.5,0-.1,0-.2,0-.3,0-9.4-5.2-17-11.7-17-.5,0-1.1,0-1.6.2,2.3-1.2,4.7-1.8,7.2-1.8,3.7,0,7.3,1.3,10.3,3.8-1.1-1.2-2.4-2.3-3.8-3.2-2.1-1-4.3-1.4-6.5-1.5ZM8.6,31.4c0,.2,0,.3,0,.5,0,12.5,10.1,22.7,22.6,22.7,6.2,0,12.1-2.6,16.4-7.1,4-4.2,6.2-9.8,6.2-15.6,0-.1,0-.2,0-.3-.2,7.5-4,14.4-10.2,18.5-.4.2-.7.5-1.1.7-.3.2-.6.3-.8.5-.4.2-.8.4-1.1.6-.3.1-.6.3-.9.4-.4.2-.8.3-1.2.4-.3.1-.7.2-1,.3-.4.1-.8.2-1.2.3-.3,0-.7.1-1,.2-.4,0-.8.1-1.2.2-.4,0-.7,0-1.1.1-.5,0-1.1,0-1.7,0,0,0,0,0,0,0-12.3,0-22.4-10-22.6-22.4Z"/>
    <path class="st10" d="M31,9.2c-12.5,0-21.7,9.4-21.7,21.9s9.4,22.1,21.8,22.1,10-1.1,13.8-4.1c5.4-4.1,8.8-10.7,8.8-18s-3-12.9-7.7-17.1c-4-3.5-9.3-4.9-15-4.9ZM31.6,14.1c6.5,0,11.7,7.6,11.7,17s-5.2,17-11.7,17-12.1-7.6-12.1-17,5.6-17,12.1-17Z"/>
    <path class="st4" d="M31.2,8.4c-12.5,0-22.6,10.2-22.6,22.7s10.1,22.7,22.6,22.7c6.2,0,12.1-2.6,16.4-7.1-3,2.5-6.6,3.9-10.4,3.9-3.8,0-7.4-1.4-10.4-3.9-3.9-2.5-6.6-8-6.9-14.2h0c0-.5,0-.9,0-1.4,0-6.7,2.7-12.7,6.8-15.5,3-2.6,6.7-4,10.5-4,3.7,0,7.3,1.3,10.3,3.8-4.3-4.5-10.2-7-16.3-7.1Z"/>
    <path class="st6" d="M31.2,8.4c-12.5,0-22.6,10.2-22.6,22.7,0,.1,0,.2,0,.3.3-12.3,10.3-22.2,22.6-22.2,4.5,0,8.9,1.4,12.6,3.9,1.3.6,2.6,1.4,3.8,2.4-4.3-4.5-10.2-7-16.3-7.1ZM19.9,31.5c0,.1,0,.3,0,.4,0,.5,0,.9,0,1.4h0c.3,6.2,3,11.6,6.9,14.2,3,2.5,6.7,3.9,10.4,3.9,2.3,0,4.6-.5,6.7-1.6,1.3-.9,2.5-2,3.6-3.1-3,2.5-6.6,3.9-10.4,3.9-3.8,0-7.4-1.4-10.4-3.9-3.9-2.5-6.6-8-6.9-14.2h0c0-.3,0-.6,0-1Z"/>
  </g>
  <g>
    <path class="st5" d="M37.1,12.2c-3.8,0-7.5,1.4-10.5,4-1.1.7-2.1,1.7-3,2.8-.3.4-.6.8-.8,1.2,0,0,0,0,0,0-.2.4-.5.8-.7,1.2,0,0,0,.1,0,.2-.2.4-.4.8-.6,1.2,0,0,0,.2-.1.3-.2.4-.3.8-.4,1.2,0,.1,0,.3-.1.4-.1.4-.2.8-.3,1.1,0,.2,0,.3-.1.5,0,.4-.2.7-.2,1.1,0,.2,0,.4,0,.6,0,.3-.1.7-.1,1,0,.2,0,.5,0,.7,0,.3,0,.7,0,1,0,.3,0,.6,0,.9,0,.2,0,.3,0,.5,0,0,0,0,0,0,.1-6.5,2.8-12.3,6.9-15,0,0,0,0,0,0,1.5-1,3.2-1.5,4.9-1.5,6.4,0,11.6,7.3,11.7,16.5,0-.1,0-.2,0-.3,0-9.4-5.3-17-11.7-17-.5,0-1.1,0-1.6.2,2.3-1.2,4.7-1.8,7.3-1.8,3.7,0,7.3,1.3,10.3,3.8-1.1-1.2-2.4-2.2-3.8-3.2-2.1-1-4.3-1.4-6.6-1.5ZM8.3,32c0,.2,0,.3,0,.5,0,12.5,10.2,22.6,22.7,22.6,6.2,0,12.2-2.6,16.5-7.1,4-4.2,6.2-9.8,6.2-15.5,0-.1,0-.2,0-.3-.2,7.5-4,14.4-10.3,18.4-.4.2-.7.5-1.1.7-.3.2-.6.3-.9.5-.4.2-.8.4-1.1.6-.3.1-.6.3-.9.4-.4.2-.8.3-1.2.4-.3.1-.7.2-1,.3-.4.1-.8.2-1.2.3-.3,0-.7.1-1,.2-.4,0-.8.1-1.2.2-.4,0-.7,0-1.1.1-.6,0-1.1,0-1.7,0,0,0,0,0,0,0-12.4,0-22.5-9.9-22.7-22.3Z"/>
    <path class="st12" d="M30.8,9.7c-12.5,0-21.8,9.4-21.8,21.9s9.4,22,21.9,22,10-1.1,13.8-4.1c5.4-4.1,8.9-10.6,8.9-18s-3-12.9-7.7-17c-4-3.5-9.4-4.9-15.1-4.9ZM31.4,14.6c6.5,0,11.7,7.6,11.7,17s-5.3,17-11.7,17-12.2-7.6-12.2-17,5.7-17,12.2-17Z"/>
    <path class="st4" d="M31,9c-12.5,0-22.7,10.1-22.7,22.6s10.2,22.6,22.7,22.6c6.2,0,12.2-2.6,16.5-7.1-3,2.5-6.6,3.9-10.4,3.9-3.8,0-7.4-1.4-10.4-3.9-3.9-2.5-6.6-7.9-6.9-14.1h0c0-.5,0-.9,0-1.4,0-6.6,2.7-12.7,6.9-15.4,3-2.6,6.7-4,10.6-4,3.7,0,7.3,1.3,10.3,3.8-4.3-4.5-10.2-7-16.4-7Z"/>
    <path class="st6" d="M31,9c-12.5,0-22.7,10.1-22.7,22.6,0,.1,0,.2,0,.3.3-12.3,10.3-22.2,22.7-22.2,4.5,0,8.9,1.4,12.6,3.9,1.3.6,2.6,1.4,3.8,2.4-4.3-4.5-10.2-7-16.4-7ZM19.7,32.1c0,.1,0,.3,0,.4,0,.5,0,.9,0,1.4h0c.4,6.2,3,11.6,6.9,14.1,3,2.5,6.7,3.9,10.4,3.9,2.3,0,4.6-.5,6.8-1.6,1.3-.9,2.5-2,3.6-3.1-3,2.5-6.6,3.9-10.4,3.9-3.8,0-7.4-1.4-10.4-3.9-3.9-2.5-6.6-7.9-6.9-14.1h0c0-.3,0-.6,0-1Z"/>
  </g>
</svg>