<?xml version="1.0" encoding="UTF-8"?>
<svg id="_图层_1" xmlns="http://www.w3.org/2000/svg" version="1.1" viewBox="0 0 64 64" width="48" height="48">
  <!-- Generator: Adobe Illustrator 29.0.1, SVG Export Plug-In . SVG Version: 2.1.0 Build 192)  -->
  <defs>
    <style>
      .st0 {
        fill: #4bae4f;
      }

      .st1 {
        fill: #71c454;
      }

      .st2 {
        fill: red;
      }

      .st2, .st3, .st4, .st5, .st6 {
        display: none;
      }

      .st3, .st4, .st7, .st8, .st6 {
        isolation: isolate;
      }

      .st3, .st7, .st8, .st6 {
        opacity: .2;
      }

      .st4 {
        opacity: .1;
      }

      .st4, .st9, .st8, .st6 {
        fill: #fff;
      }

      .st10 {
        fill: #3f3f3f;
      }

      .st11 {
        fill: #6aa22a;
      }

      .st12 {
        fill: #86d478;
      }

      .st13 {
        fill: #f9f9f9;
      }

      .st14 {
        fill: #36862c;
      }

      .st15 {
        fill: #a45390;
      }

      .st16 {
        fill: #26abff;
      }

      .st17 {
        fill: #ebebeb;
      }

      .st18 {
        fill: #6db832;
      }

      .st19 {
        fill: #c2352a;
      }

      .st20 {
        fill: #4987d7;
      }

      .st21 {
        fill: #f02f68;
      }
    </style>
  </defs>
  <path class="st2" d="M50.3,64H13.8c-7.6,0-13.8-6.2-13.8-13.7V13.7C0,6.2,6.2,0,13.7,0h36.5c7.5,0,13.7,6.2,13.7,13.7v36.6c0,7.5-6.2,13.7-13.7,13.7h0Z"/>
  <g class="st5">
    <path class="st3" d="M0,59.5v2.3c0,1.9,1.5,3.4,3.4,3.4h57.4c1.9,0,3.4-1.5,3.4-3.4v-2.3c0,1.9-1.5,3.4-3.4,3.4H3.4C1.5,63,0,61.4,0,59.5Z"/>
    <path class="st20" d="M3.2-.1C2.3-.1,1.5.3.9.8l31.2,31.2L63.3.8c-.6-.6-1.4-.9-2.3-.9H3.2h0Z"/>
    <path class="st15" d="M3.2,64.1c-.9,0-1.7-.4-2.3-.9l31.2-31.2,31.2,31.2c-.6.6-1.4.9-2.3.9H3.2h0Z"/>
    <path class="st18" d="M64.2,3.1c0-.9-.4-1.7-.9-2.3l-31.2,31.2,31.2,31.2c.6-.6.9-1.4.9-2.3V3.1h0Z"/>
    <path class="st19" d="M0,3.1C0,2.2.4,1.4.9.8l31.2,31.2L.9,63.2c-.6-.6-.9-1.4-.9-2.3V3.1h0Z"/>
    <path class="st7" d="M35,5.6c-1.4,0-2.5.2-3.6.5-1,.3-1.9.8-2.6,1.3-.7.6-1.3,1.2-1.8,2-.5.8-.8,1.3-1.1,2.1-.3.9-.5,1.8-.6,2.8-.1,1-.2,1.9-.2,2.9h0c0,1.5.2,2.9.5,4,.4,1.1.9,2,1.5,2.8.7.7,1.4,1.3,2.3,1.7.9.4,1.8.5,2.8.5s2-.2,2.8-.5c.8-.3,1.5-.8,2.1-1.4.6-.6,1-1.4,1.3-2.2.3-.9.5-1.9.5-3s-.1-2-.4-2.8c-.3-.8-.6-1.6-1.1-2.1-.5-.6-1.1-1-1.8-1.3-.7-.3-1.5-.4-2.4-.4s-1.1,0-1.5.2c-.4.1-.8.3-1.2.5-.4.2-.7.6-.9.9-.3.3-.5.6-.7.9h-.2c0-1,.2-1.8.4-2.6.2-.8.5-1.1,1-1.7.5-.6,1.1-1,1.9-1.3.8-.3,1.8-.5,3.1-.5s.8,0,1.2,0c.4,0,.8.1,1.1.2v-3.5c-.2,0-.4,0-.6,0-.2,0-.5,0-.7,0-.2,0-.5,0-.7,0s-.4,0-.6,0ZM32.4,16c.8,0,1.5.3,1.9.9.4.6.6,1.4.6,2.4s0,1.1-.2,1.6c-.1.4-.3.8-.5,1.1-.2.3-.5.5-.8.7-.3.1-.7.2-1,.2s-.9-.1-1.2-.4c-.3-.2-.6-.5-.9-.9-.2-.4-.4-.8-.5-1.3-.1-.5-.2-1-.2-1.4s0-.7.2-1c.1-.3.3-.6.6-.9.3-.3.6-.5.9-.7.4-.2.7-.3,1.2-.3ZM47,24v10.3l1,.9c.2,0,.4-.1.6-.2.2,0,.5-.1.8-.2.3,0,.5,0,.8-.1.3,0,.5,0,.8,0,1.3,0,2.3.3,3,.8.6.5,1,1.3,1,2.3s-.3,2-1,2.5c-.7.5-1.6.8-2.9.8s-.9,0-1.3,0c-.5,0-.9-.2-1.4-.3-.5-.1-.9-.3-1.3-.4-.4-.2-.8-.3-1.1-.5v3.7c.3.2.7.3,1.1.5.4.1.9.3,1.3.3.5,0,1,.2,1.5.2.5,0,1,0,1.5,0,1.3,0,2.4-.2,3.4-.5,1-.3,1.8-.8,2.5-1.4.7-.6,1.2-1.4,1.5-2.2.3-.9.5-1.9.5-3s-.2-1.9-.5-2.7c-.3-.8-.8-1.4-1.3-2-.6-.5-1.2-.9-2-1.2-.8-.3-1.6-.4-2.5-.4h0c-.6,0-1.1,0-1.5.1-.4,0-.7.1-1,.2l.3-4.1h6.5v-3.4h-10.3ZM11.5,24.1c-.8,0-1.6,0-2.2.3-.7.2-1.3.4-1.8.6-.6.3-1.1.6-1.5.9-.5.3-.9.5-1.3.9l2.4,2.8c.7-.7,1.5-1.2,2.1-1.6.7-.4,1.4-.5,2.1-.5s1.3.2,1.7.6c.4.4.6.9.6,1.6s0,1.2-.3,1.7c-.2.5-.5,1.1-.8,1.6-.4.5-.8,1.1-1.3,1.6-.5.6-1,1.2-1.7,1.8l-4.8,5.4v2.8h13.7v-3.4h-8.3v-.2l2.5-2.7c.7-.7,1.4-1.4,2-2.1.6-.7,1.2-1.4,1.7-2.1.5-.7.9-1.4,1.1-2.2.3-.7.4-1.5.4-2.3s-.1-1.7-.4-2.4c-.3-.7-.7-1.1-1.3-1.6-.6-.5-1.2-.9-2-1.2-.8-.3-1.7-.4-2.6-.4ZM25.2,42.5v3.2h9.4l-7.3,17.2h4.5l7.1-17.7v-2.7h-13.8Z"/>
    <path class="st9" d="M35,4.5c-1.4,0-2.5.2-3.6.5-1,.3-1.9.8-2.6,1.3-.7.6-1.3,1.2-1.8,2-.5.8-.8,1.3-1.1,2.1-.3.9-.5,1.8-.6,2.8-.1,1-.2,1.9-.2,2.9h0c0,1.5.2,2.9.5,4,.4,1.1.9,2,1.5,2.8.7.7,1.4,1.3,2.3,1.7.9.4,1.8.5,2.8.5s2-.2,2.8-.5c.8-.3,1.5-.8,2.1-1.4.6-.6,1-1.4,1.3-2.2.3-.9.5-1.9.5-3s-.1-2-.4-2.8c-.3-.8-.6-1.6-1.1-2.1-.5-.6-1.1-1-1.8-1.3-.7-.3-1.5-.4-2.4-.4s-1.1,0-1.5.2c-.4.1-.8.3-1.2.5-.4.2-.7.6-.9.9-.3.3-.5.6-.7.9h-.2c0-1,.2-1.8.4-2.6.2-.8.5-1.1,1-1.7.5-.6,1.1-1,1.9-1.3.8-.3,1.8-.5,3.1-.5s.8,0,1.2,0c.4,0,.8.1,1.1.2v-3.5c-.2,0-.4,0-.6,0-.2,0-.5,0-.7,0-.2,0-.5,0-.7,0s-.4,0-.6,0ZM32.4,14.9c.8,0,1.5.3,1.9.9.4.6.6,1.4.6,2.4s0,1.1-.2,1.6c-.1.4-.3.8-.5,1.1-.2.3-.5.5-.8.7-.3.1-.7.2-1,.2s-.9-.1-1.2-.4c-.3-.2-.6-.5-.9-.9-.2-.4-.4-.8-.5-1.3-.1-.5-.2-1-.2-1.4s0-.7.2-1c.1-.3.3-.6.6-.9.3-.3.6-.5.9-.7.4-.2.7-.3,1.2-.3ZM47,22.8v10.3l1,.9c.2,0,.4-.1.6-.2.2,0,.5-.1.8-.2.3,0,.5,0,.8-.1.3,0,.5,0,.8,0,1.3,0,2.3.3,3,.8.6.5,1,1.3,1,2.3s-.3,2-1,2.5c-.7.5-1.6.8-2.9.8s-.9,0-1.3,0c-.5,0-.9-.2-1.4-.3-.5-.1-.9-.3-1.3-.4-.4-.2-.8-.3-1.1-.5v3.7c.3.2.7.3,1.1.5.4.1.9.3,1.3.3.5,0,1,.2,1.5.2.5,0,1,0,1.5,0,1.3,0,2.4-.2,3.4-.5,1-.3,1.8-.8,2.5-1.4.7-.6,1.2-1.4,1.5-2.2.3-.9.5-1.9.5-3s-.2-1.9-.5-2.7c-.3-.8-.8-1.4-1.3-2-.6-.5-1.2-.9-2-1.2-.8-.3-1.6-.4-2.5-.4h0c-.6,0-1.1,0-1.5.1-.4,0-.7.1-1,.2l.3-4.1h6.5v-3.4h-10.3ZM11.5,22.9c-.8,0-1.6,0-2.2.3-.7.2-1.3.4-1.8.6-.6.3-1.1.6-1.5.9-.5.3-.9.5-1.3.9l2.4,2.8c.7-.7,1.5-1.2,2.1-1.6.7-.4,1.4-.5,2.1-.5s1.3.2,1.7.6c.4.4.6.9.6,1.6s0,1.2-.3,1.7c-.2.5-.5,1.1-.8,1.6-.4.5-.8,1.1-1.3,1.6-.5.6-1,1.2-1.7,1.8l-4.8,5.4v2.8h13.7v-3.4h-8.3v-.2l2.5-2.7c.7-.7,1.4-1.4,2-2.1.6-.7,1.2-1.4,1.7-2.1.5-.7.9-1.4,1.1-2.2.3-.7.4-1.5.4-2.3s-.1-1.7-.4-2.4c-.3-.7-.7-1.1-1.3-1.6-.6-.5-1.2-.9-2-1.2-.8-.3-1.7-.4-2.6-.4ZM25.2,41.4v3.2h9.4l-7.3,17.2h4.5l7.1-17.7v-2.7h-13.8Z"/>
    <path class="st4" d="M3.4-.1C1.5-.1,0,1.4,0,3.3v1.1C0,2.6,1.5,1,3.4,1h57.4c1.9,0,3.4,1.5,3.4,3.4v-1.1c0-1.9-1.5-3.4-3.4-3.4H3.4Z"/>
  </g>
  <g class="st5">
    <path class="st7" d="M20.1,42.1c1.5.8,21.3,12.5,21.3,12.5,0,0,2.1,1.5,4.2.6,2.1-1,2-2.9,2-3.1v-25.6s0-1.5-.6-2.9c-.8-1.6-1.9-2.4-3-3.1-1.2-.7-20.2-11.8-20.2-11.8,0,0-1.7-1.3-3.7-.4-2,.8-2.1,2.7-2.1,3.1v27.7c0,.4,0,1,.2,1.3.3.5.4,1,1.9,1.8ZM27.5,20.3l10.6,6.9v15.6l-10.6-6.8v-15.7Z"/>
    <path class="st16" d="M20.1,41.2c1.5.8,21.3,12.5,21.3,12.5,0,0,2.1,1.5,4.2.6,2.1-1,2-2.9,2-3.1v-25.6s0-1.5-.6-2.9c-.8-1.6-1.9-2.4-3-3.1-1.2-.7-20.2-11.8-20.2-11.8,0,0-1.7-1.3-3.7-.4-2,.8-2.1,2.7-2.1,3.1v27.7c0,.4,0,1,.2,1.3.3.5.4,1,1.9,1.8ZM27.5,19.4l10.6,6.9v15.6l-10.6-6.8v-15.7Z"/>
    <path class="st8" d="M21.5,6.9c-.4,0-.9,0-1.4.3-2,.8-2.1,2.7-2.1,3.1v.9c0-.5,0-2.3,2.1-3.1,2-.8,3.7.4,3.7.4,0,0,19,11.1,20.2,11.8,1.2.7,2.2,1.5,3,3.1.5,1,.6,2.2.6,2.7v-.6s0-1.5-.6-2.9c-.8-1.6-1.9-2.4-3-3.1-1.2-.7-20.2-11.8-20.2-11.8,0,0-1-.7-2.3-.7ZM27.5,35.1v.9l10.6,6.8v-.9l-10.6-6.8Z"/>
    <path class="st7" d="M14.2,41.6c0,.4,0,1,.2,1.3.3.5.4,1,1.9,1.8,1.5.8,21.3,12.5,21.3,12.5,0,0,2.1,1.5,4.2.6,2.1-1,2-2.9,2-3.1v-25.6s0-1.5-.6-2.9c-.8-1.6-1.9-2.4-3-3.1-1.2-.7-20.2-11.8-20.2-11.8,0,0-1.7-1.3-3.7-.4-2,.8-2.1,2.7-2.1,3.1v27.7ZM23.7,23l10.5,6.9v15.6l-10.5-6.8v-15.7Z"/>
    <path class="st21" d="M14.2,40.7c0,.4,0,1,.2,1.3.3.5.4,1,1.9,1.8,1.5.8,21.3,12.5,21.3,12.5,0,0,2.1,1.5,4.2.6,2.1-1,2-2.9,2-3.1v-25.6s0-1.5-.6-2.9c-.8-1.6-1.9-2.4-3-3.1-1.2-.7-20.2-11.8-20.2-11.8,0,0-1.7-1.3-3.7-.4-2,.8-2.1,2.7-2.1,3.1v27.7ZM23.7,22.1l10.5,6.9v15.6l-10.5-6.8v-15.7Z"/>
    <path class="st8" d="M17.7,9.6c-.4,0-.9,0-1.4.3-2,.8-2.1,2.7-2.1,3.1v.9c0-.5,0-2.3,2.1-3.1,2-.8,3.7.4,3.7.4,0,0,19,11.1,20.2,11.8s2.2,1.5,3,3.1c.5,1,.6,2.2.6,2.7v-.6s0-1.5-.6-2.9c-.8-1.6-1.9-2.4-3-3.1s-20.2-11.8-20.2-11.8c0,0-1-.7-2.3-.7ZM23.7,37.8v.9l10.5,6.8v-.9l-10.5-6.8Z"/>
  </g>
  <g class="st5">
    <path class="st7" d="M3.2,30.5c0,.4,0,.8,0,1.2,0,8.8,7.2,16,16,16h0c6.5,0,12.4-4,14.8-10h9.2v-2h-9.2c-2.4,6-8.3,10-14.8,10-8.5,0-15.5-6.7-16-15.2h0ZM53.1,35.6v2h6v-2h-6ZM43.1,41.6v2h10v-2h-10Z"/>
    <path class="st0" d="M19.1,14.6c-8.8,0-16,7.2-16,16h0c0,8.8,7.2,16,16,16h0c6.5,0,12.4-4,14.8-10h9.2v6h10v-6h6v-12h-25.2c-2.4-6-8.3-10-14.8-10h0Z"/>
    <circle class="st7" cx="19.1" cy="31.6" r="6"/>
    <circle class="st13" cx="19.1" cy="30.6" r="6"/>
    <path class="st8" d="M19.1,14.6c-8.4,0-15.4,6.5-16,14.8,0-.1,0-.3,0-.4,0,.2,0,.4,0,.6,0,.3,0,.6,0,.8.6-8.4,7.6-14.8,16-14.8,6.5,0,12.4,4,14.8,10h25.2v-1h-25.2c-2.4-6-8.3-10-14.8-10Z"/>
  </g>
  <g>
    <path class="st7" d="M10.1.7l40.2.2c3.7,0,11.4,1.9,11.1,12.1l.4,43.3c0,1.7-1.5,3.1-3.3,3.1H4.3c-1.8,0-4.4-5.8-4.3-9.1V13.2C0,4.7,8.3.7,10.1.7Z"/>
    <path class="st11" d="M64.1,29.1l-.2,21c0,7.3-6,13.9-13.6,13.9l-21.6.2V29.1h35.4Z"/>
    <path class="st1" d="M0,27v23.3c0,8.3,6.7,13.7,13.8,13.7h17.1c0,0,0-37,0-37H0Z"/>
    <path class="st12" d="M13.7-.1C6.7-.1-.1,5.8,0,13.6v15.5s33,0,33,0V-.1H13.7Z"/>
    <path class="st14" d="M50.3-.1c7.2,0,13.6,6.2,13.6,13.7v15.5H30.9V-.1h19.4Z"/>
    <path class="st6" d="M3.3-.1C1.5-.1,0,1.3,0,3v1C0,2.3,1.5.9,3.3.9h55c1.8,0,3.3,1.4,3.3,3.1v-1c0-1.7-1.5-3.1-3.3-3.1H3.3Z"/>
    <ellipse class="st7" cx="46.3" cy="45.8" rx="17.6" ry="16.7"/>
    <ellipse class="st10" cx="46.3" cy="44.8" rx="17.6" ry="16.7"/>
    <path class="st10" d="M15.5,9.3v6.3h-6.6v2.1h6.6v6.3h2.2v-6.3h6.6v-2.1h-6.6v-6.3h-2.2Z"/>
    <path class="st10" d="M39.7,15.6v2.1h13.2v-2.1h-13.2Z"/>
    <path class="st10" d="M9.4,37.5l-1.6,1.5,6.1,5.8-6.1,5.8,1.6,1.5,6.1-5.8,6.1,5.8,1.6-1.5-6.1-5.8,6.1-5.8-1.6-1.5-6.1,5.8-6.1-5.8Z"/>
    <path class="st17" d="M39.7,40.6v2.1h13.2v-2.1h-13.2ZM39.7,46.9v2.1h13.2v-2.1h-13.2Z"/>
  </g>
</svg>