<?xml version="1.0" encoding="UTF-8"?>
<svg id="_图层_1" xmlns="http://www.w3.org/2000/svg" version="1.1" viewBox="0 0 64 64" width="48" height="48">
  <!-- Generator: Adobe Illustrator 29.0.1, SVG Export Plug-In . SVG Version: 2.1.0 Build 192)  -->
  <defs>
    <style>
      .st0 {
        fill: #4f4f4f;
      }

      .st1 {
        fill: #3f3f3f;
      }

      .st1, .st2, .st3 {
        display: none;
      }

      .st2, .st3, .st4, .st5 {
        isolation: isolate;
      }

      .st2, .st4, .st5 {
        opacity: .2;
      }

      .st3 {
        opacity: .1;
      }

      .st3, .st6, .st7, .st5 {
        fill: #fff;
      }

      .st7 {
        fill-rule: evenodd;
      }

      .st8 {
        fill: #39b44a;
      }
    </style>
  </defs>
  <path class="st0" d="M50.4,64H13.8c-7.6,0-13.8-6.2-13.8-13.7V13.7C0,6.2,6.2,0,13.7,0h36.5c7.5,0,13.7,6.2,13.7,13.7v36.6c0,7.5-6.2,13.7-13.7,13.7h.1Z"/>
  <g>
    <ellipse class="st2" cx="31.9" cy="33.1" rx="31.9" ry="31.9"/>
    <ellipse class="st1" cx="31.9" cy="31.9" rx="31.9" ry="31.9"/>
    <path class="st4" d="M30.8,7.8c-13.1.6-23.6,11.1-24.1,24.2h11c.5-7,6.1-12.6,13.1-13.2V7.8ZM33,7.8v11c7,.5,12.6,6.1,13.2,13.2h11c-.6-13.1-11.1-23.6-24.2-24.2ZM6.6,34.2c.6,13.1,11.1,23.6,24.2,24.2v-11c-7-.5-12.6-6.1-13.2-13.2H6.6ZM46.2,34.2c-.5,7-6.1,12.6-13.1,13.2v11c13.1-.6,23.6-11.1,24.1-24.2h-11Z"/>
    <path class="st8" d="M30.8,6.6c-13.1.6-23.6,11.1-24.1,24.2h11c.5-7,6.1-12.6,13.1-13.2V6.6ZM33,6.7v11c7,.5,12.6,6.1,13.2,13.2h11c-.6-13.1-11.1-23.6-24.2-24.2ZM6.6,33.1c.6,13.1,11.1,23.6,24.2,24.2v-11c-7-.5-12.6-6.1-13.2-13.2H6.6ZM46.2,33.1c-.5,7-6.1,12.6-13.1,13.2v11c13.1-.6,23.6-11.1,24.1-24.2h-11Z"/>
    <path class="st4" d="M50.6,22s-.5,0-1.1.2c-.5.2-1.1,1.1-1.1,2h1.1c0-1.1,1.1-1.1,1.1-1.1,0,0,1.1,0,1.1.9s-.1.5-.3.8c-.2.2-.5.4-.9.7-1,.7-2.1,1.7-2.1,2.5v.7h4.4v-1.1h-3.3c1.1-1.3,3.3-2.2,3.3-3.5s-.6-1.5-1.1-1.7c-.5-.2-1.1-.2-1.1-.2ZM19.8,28.6v8.8h2.2v-2.2h.7c.9,0,1.7,0,2.2-.3.5-.3.9-.6,1.2-1.1.2-.5.3-2,.3-2.5,0-.9-.3-1.5-.9-2-.6-.5-1.5-.7-2.7-.7h-3.1ZM28.6,28.6v8.8h2.2v-3.3h2.2v3.3h2.2v-8.8h-2.2v3.3h-2.2v-3.3h-2.2ZM37.4,28.6v8.8h2.3c1.4,0,2.4-.4,3.2-1.1.8-.8,1.1-1.9,1.1-3.4s-.2-1.7-.5-2.4c-.3-.6-.8-1.1-1.4-1.5-.6-.3-1.3-.5-2.2-.5h-2.5ZM22,30.8h1c.8,0,1.2.4,1.2,1.1s-.1.7-.4.9c-.3.2-.6.3-1,.3h-.8v-2.2ZM39.6,30.8h.6c.5,0,.9.2,1.2.5.3.3.4.9.4,1.7,0,1.5-.6,2.2-1.7,2.2h-.5v-4.4Z"/>
    <path class="st6" d="M19.8,27.5v8.8h2.2v-2.2h.7c.9,0,1.7,0,2.2-.3.5-.3.9-.6,1.2-1.1.2-.5.3-2,.3-2.5,0-.9-.3-1.5-.9-2-.6-.5-1.5-.7-2.7-.7h-3.1ZM22,29.7h1c.8,0,1.2.4,1.2,1.1s-.1.7-.4.9c-.3.2-.6.3-1,.3h-.8v-2.2Z"/>
    <path class="st6" d="M28.6,27.5v8.8h2.2v-3.3h2.2v3.3h2.2v-8.8h-2.2v3.3h-2.2v-3.3h-2.2Z"/>
    <path class="st6" d="M37.4,27.5v8.8h2.3c1.4,0,2.4-.4,3.2-1.1.8-.8,1.1-1.9,1.1-3.4s-.2-1.7-.5-2.4c-.3-.6-.8-1.1-1.4-1.5-.6-.3-1.3-.5-2.2-.5h-2.5ZM39.6,29.7h.6c.5,0,.9.2,1.2.5.3.3.4.9.4,1.7,0,1.5-.6,2.2-1.7,2.2h-.5v-4.4Z"/>
    <path class="st7" d="M50.6,20.9s-.5,0-1.1.2c-.5.2-1.1,1.1-1.1,2h1.1c0-1.1,1.1-1.1,1.1-1.1,0,0,1.1,0,1.1.9s-.1.5-.3.8c-.2.2-.5.4-.9.7-1,.7-2.1,1.7-2.1,2.5v.7h4.4v-1.1h-3.3c1.1-1.3,3.3-2.2,3.3-3.5s-.6-1.5-1.1-1.7c-.5-.2-1.1-.2-1.1-.2Z"/>
    <path class="st3" d="M31.9,0C14.3,0,0,14.3,0,31.9c0,.2,0,.4,0,.5C.3,15.1,14.5,1.1,31.9,1.1c17.4,0,31.6,14,31.9,31.4,0-.2,0-.4,0-.5C63.8,14.3,49.5,0,31.9,0Z"/>
    <path class="st5" d="M30.8,6.6c-13.1.6-23.6,11.1-24.1,24.2h0c1.1-12.6,11.4-22.5,24.1-23.1v-1.1ZM33,6.7v1.1c12.7.6,22.9,10.4,24.1,23.1h.1c-.6-13.1-11.1-23.6-24.2-24.2ZM6.6,33.1c0,.4,0,.7.1,1.1h10.9c.5,7,6.1,12.6,13.2,13.2v-1.1c-7-.5-12.6-6.1-13.2-13.2H6.6ZM46.2,33.1c-.5,7-6.1,12.6-13.1,13.2v1.1c7-.5,12.6-6.1,13.1-13.2h10.9c0-.4,0-.7.1-1.1h-11Z"/>
  </g>
</svg>