<?xml version="1.0" encoding="UTF-8"?>
<svg id="_图层_1" xmlns="http://www.w3.org/2000/svg" version="1.1" viewBox="0 0 64 64" width="48" height="48">
  <!-- Generator: Adobe Illustrator 29.0.1, SVG Export Plug-In . SVG Version: 2.1.0 Build 192)  -->
  <defs>
    <style>
      .st0, .st1 {
        fill: #3c8db9;
      }

      .st2, .st1, .st3, .st4 {
        display: none;
      }

      .st2, .st5, .st4 {
        opacity: .2;
      }

      .st2, .st5, .st4, .st6 {
        isolation: isolate;
      }

      .st7, .st4, .st6 {
        fill: #fff;
      }

      .st8 {
        fill: #5cab3b;
      }

      .st6 {
        opacity: .1;
      }
    </style>
  </defs>
  <path class="st0" d="M50.3,64H13.9C6.3,64,.2,57.8.2,50.3V13.8C.2,6.2,6.3,0,13.9,0h36.5c7.5,0,13.7,6.2,13.7,13.7v36.5c0,7.5-6.1,13.7-13.7,13.7h0Z"/>
  <g class="st3">
    <path class="st5" d="M30.9,10c-3,0-5.3,2.1-5.3,4.6v4.6h-12.4c-2,0-3.6,1.4-3.6,3.1v9.2h5.3c3,0,5.3,2.1,5.3,4.6s-2.4,4.6-5.3,4.6h-5.3v10.8c0,1.7,1.6,3.1,3.6,3.1h12.4v-3.1c0-2.6,2.4-4.6,5.3-4.6s5.3,2.1,5.3,4.6v3.1h10.7c2,0,3.6-1.4,3.6-3.1v-10.8h5.3c3,0,5.3-2.1,5.3-4.6s-2.4-4.6-5.3-4.6h-5.3v-9.2c0-1.7-1.6-3.1-3.6-3.1h-10.7v-4.6c0-2.6-2.4-4.6-5.3-4.6Z"/>
    <path class="st8" d="M30.9,9.2c-3,0-5.3,2.1-5.3,4.6v4.6h-12.4c-2,0-3.6,1.4-3.6,3.1v9.2h5.3c3,0,5.3,2.1,5.3,4.6s-2.4,4.6-5.3,4.6h-5.3v10.8c0,1.7,1.6,3.1,3.6,3.1h12.4v-3.1c0-2.6,2.4-4.6,5.3-4.6s5.3,2.1,5.3,4.6v3.1h10.7c2,0,3.6-1.4,3.6-3.1v-10.8h5.3c3,0,5.3-2.1,5.3-4.6s-2.4-4.6-5.3-4.6h-5.3v-9.2c0-1.7-1.6-3.1-3.6-3.1h-10.7v-4.6c0-2.6-2.4-4.6-5.3-4.6Z"/>
    <path class="st6" d="M30.9,9.2c-3,0-5.3,2.1-5.3,4.6v.8c0-2.6,2.4-4.6,5.3-4.6s5.3,2.1,5.3,4.6v-.8c0-2.6-2.4-4.6-5.3-4.6ZM13.1,18.5c-2,0-3.6,1.4-3.6,3.1v.8c0-1.7,1.6-3.1,3.6-3.1h12.4v-.8h-12.4ZM36.2,18.5v.8h10.7c2,0,3.6,1.4,3.6,3.1v-.8c0-1.7-1.6-3.1-3.6-3.1h-10.7ZM50.4,30.8v.8h5.3c2.7,0,4.8,1.7,5.2,3.8,0-.3,0-.5,0-.8s0-.3,0-.4c0,.1,0,.3,0,.4-.4-2.2-2.6-3.8-5.2-3.8h-5.3ZM20.2,35.8c-.2,2.4-2.5,4.2-5.3,4.2h-5.3v.8h5.3c3,0,5.3-2.1,5.3-4.6s0-.2,0-.3Z"/>
  </g>
  <g>
    <path class="st2" d="M2.2,61.5v1.3c0,2.2,1.9,3.9,4.2,3.9h70.2c2.3,0,4.2-1.8,4.2-3.9v-1.3c0,2.2-1.9,3.9-4.2,3.9H6.4c-2.3,0-4.2-1.8-4.2-3.9Z"/>
    <path class="st1" d="M6.4,2.4h70.2c2.3,0,4.2,1.8,4.2,3.9v55.1c0,2.2-1.9,3.9-4.2,3.9H6.4c-2.3,0-4.2-1.8-4.2-3.9V6.4c0-2.2,1.9-3.9,4.2-3.9Z"/>
    <path class="st4" d="M6.4,2.4c-2.3,0-4.2,1.8-4.2,3.9v1.3c0-2.2,1.9-3.9,4.2-3.9h70.2c2.3,0,4.2,1.8,4.2,3.9v-1.3c0-2.2-1.9-3.9-4.2-3.9H6.4Z"/>
    <path class="st5" d="M7.8,11.6v2.6l8.4,5.3v2.6l-8.4,5.3v2.6h2.8l11.2-7.9v-2.6l-11.2-7.9h-2.8ZM27.5,27.4v2.6h16.8v-2.6h-16.8Z"/>
    <path class="st7" d="M7.8,10.3v2.6l8.4,5.3v2.6l-8.4,5.3v2.6h2.8l11.2-7.9v-2.6l-11.2-7.9h-2.8ZM27.5,26.1v2.6h16.8v-2.6h-16.8Z"/>
  </g>
</svg>