<?xml version="1.0" encoding="UTF-8" standalone="no"?>
<svg
   id="_图层_1"
   version="1.1"
   viewBox="0 0 64 64" width="48" height="48"
   sodipodi:docname="projecteur.svg"
   xml:space="preserve"
   inkscape:version="1.4 (e7c3feb100, 2024-10-09)"
   xmlns:inkscape="http://www.inkscape.org/namespaces/inkscape"
   xmlns:sodipodi="http://sodipodi.sourceforge.net/DTD/sodipodi-0.dtd"
   xmlns="http://www.w3.org/2000/svg"
   xmlns:svg="http://www.w3.org/2000/svg"><sodipodi:namedview
     id="namedview26"
     pagecolor="#ffffff"
     bordercolor="#999999"
     borderopacity="1"
     inkscape:showpageshadow="2"
     inkscape:pageopacity="0"
     inkscape:pagecheckerboard="0"
     inkscape:deskcolor="#d1d1d1"
     inkscape:zoom="10.6875"
     inkscape:cx="45.754386"
     inkscape:cy="39.48538"
     inkscape:window-width="1920"
     inkscape:window-height="939"
     inkscape:window-x="0"
     inkscape:window-y="34"
     inkscape:window-maximized="1"
     inkscape:current-layer="g26" /><!-- Generator: Adobe Illustrator 29.0.1, SVG Export Plug-In . SVG Version: 2.1.0 Build 192)  --><defs
     id="defs6"><style
       id="style1">
      .st0 {
        fill-opacity: .5;
      }

      .st0, .st1, .st2, .st3, .st4, .st5, .st6, .st7 {
        fill: #fff;
      }

      .st8 {
        fill: #133c9a;
      }

      .st2, .st9 {
        display: none;
      }

      .st3 {
        fill-opacity: .2;
      }

      .st4 {
        fill-opacity: .9;
      }

      .st10 {
        fill: #3370ff;
      }

      .st11 {
        fill: url(#_未命名的渐变_3);
      }

      .st12 {
        fill: url(#_未命名的渐变);
      }

      .st5 {
        fill-opacity: .3;
      }

      .st6 {
        fill-opacity: 0;
      }

      .st7 {
        fill-opacity: .7;
      }

      .st13 {
        fill: #00d6b9;
      }

      .st14 {
        fill: url(#_未命名的渐变_2);
      }
    </style><radialGradient
       id="_未命名的渐变"
       data-name="未命名的渐变"
       cx="123.9"
       cy="-40.2"
       fx="123.9"
       fy="-40.2"
       r="59.4"
       gradientTransform="translate(-26.8 25.5) scale(.6 -.7)"
       gradientUnits="userSpaceOnUse"><stop
         offset="0"
         stop-color="#db202e"
         id="stop1" /><stop
         offset="1"
         stop-color="#e01b24"
         id="stop2" /></radialGradient><radialGradient
       id="_未命名的渐变_2"
       data-name="未命名的渐变 2"
       cx="67.6"
       cy="26.8"
       fx="67.6"
       fy="26.8"
       r="105.2"
       gradientTransform="translate(-26.6 25.3) scale(.6 -.7)"
       gradientUnits="userSpaceOnUse"><stop
         offset="0"
         stop-color="#ffb648"
         id="stop3" /><stop
         offset="1"
         stop-color="#ff7800"
         stop-opacity="0"
         id="stop4" /></radialGradient><radialGradient
       id="_未命名的渐变_3"
       data-name="未命名的渐变 3"
       cx="61.7"
       cy="18.6"
       fx="61.7"
       fy="18.6"
       r="68"
       gradientTransform="translate(-26.8 25.8) scale(.6 -.7)"
       gradientUnits="userSpaceOnUse"><stop
         offset="0"
         stop-color="#c64600"
         id="stop5" /><stop
         offset="1"
         stop-color="#a51d2d"
         id="stop6" /></radialGradient></defs><path
     class="st1"
     d="M47.5,64.1H13.8c-7.6,0-13.8-6.3-13.8-13.8V13.7C0,6.2,6.2,0,13.7,0h36.6c7.5,0,13.7,6.2,13.7,13.7v36.6c0,7.5-6.2,13.7-13.7,13.7h-2.9.1Z"
     id="path6"
     style="fill:#808080;fill-opacity:1" /><rect
     class="st2"
     x="3"
     y="9.7"
     width="58.1"
     height="45.3"
     id="rect6" /><g
     class="st9"
     id="g21"><path
       class="st12"
       d="M-.1,16v35.3c.3,6.5,6.1,12.6,13.4,12.6l4.7.2h23.3s7.2,0,7.2,0c8.8,0,15.5-4.1,15.5-13.9V16.4h0C64,6.3,58,0,50.7,0H14.8C4.7-.2,0,7.2,0,14.5v1.4h-.1ZM4.6,11.6h4.6v5.8h-4.6v-5.8ZM54.9,11.6h4.6v5.8h-4.6v-5.8ZM4.6,23.2h4.6v5.8h-4.6v-5.8ZM54.9,23.2h4.6v5.8h-4.6v-5.8ZM4.6,34.8h4.6v5.8h-4.6v-5.8ZM54.9,34.8h4.6v5.8h-4.6v-5.8ZM4.6,46.4h4.6v5.8h-4.6v-5.8ZM54.9,46.4h4.6v5.8h-4.6v-5.8Z"
       id="path7" /><path
       class="st14"
       d="M47.5,0h-.7C41.4,0,46.8,0,45.5,0H13.3C4.1.3,0,8.5,0,13.7v1.3c0,.3-.1.3-.1.6v34.3c0,1.1,0,.8,0,.8H0c0,7.1,5.9,13.2,13.8,13.3h0c1.2,0,0,0,1.2,0h0c1.1,0,2.3,0,1.1,0h23.5c1.1,0,0,0,1.1,0h.7c3.2.1-1.7,0,0,0h-2.6c1.1,0,.6,0-1.1,0h-2c1.9,0-.6,0,13.3,0h1.3c5.9,0,13.7-4.3,13.6-11.4l.2-36.2C64.1,8.1,58.6,0,51.2,0M4.8,22.9h4.5v5.8h-4.5v-5.8ZM54.7,11.4h4.5v5.8h-4.5v-5.8ZM4.8,11.4h5v5.8h-5v-5.8ZM54.7,22.9h4.5v5.8h-4.5v-5.8ZM4.8,34.4h4.5v5.8h-4.5v-5.8ZM54.7,34.4h4.5v5.8h-4.5v-5.8ZM4.8,46h4.5v5.8h-4.5v-5.8ZM54.7,46h4.5v5.8h-4.5v-5.8Z"
       id="path8" /><path
       class="st11"
       d="M4.6,9.7v2.2h4.6v-2.2h-4.6ZM54.9,9.7v2.2h4.6v-2.2h-4.6ZM4.6,21.3v2.2h4.6v-2.2h-4.6ZM54.9,21.3v2.2h4.6v-2.2h-4.6ZM4.6,32.9v2.2h4.6v-2.2h-4.6ZM54.9,32.9v2.2h4.6v-2.2h-4.6ZM4.6,44.4v2.2h4.6v-2.2h-4.6ZM54.9,44.4v2.2h4.6v-2.2h-4.6ZM4.6,56v2.2h4.6v-2.2h-4.6ZM54.9,56v2.2h4.6v-2.2h-4.6Z"
       id="path9" /><g
       id="g20"><path
         class="st1"
         d="M25.1,29.3h13.7v11.6h-13.7s0-11.6,0-11.6Z"
         id="path10" /><path
         class="st1"
         d="M32,53.9l-12.6-15.9h25.1l-12.6,15.9h.1Z"
         id="path11" /><path
         class="st7"
         d="M25.1,29.3h4.6v-5.8h-4.6v5.8Z"
         id="path12" /><path
         class="st1"
         d="M29.7,29.3h4.6v-5.8h-4.6s0,5.8,0,5.8Z"
         id="path13" /><path
         class="st4"
         d="M34.3,29.3h4.6v-5.8h-4.6v5.8Z"
         id="path14" /><path
         class="st7"
         d="M38.9,23.5h-4.6v-5.8h4.6v5.8Z"
         id="path15" /><path
         class="st0"
         d="M34.3,23.5h-4.6v-5.8h4.6v5.8Z"
         id="path16" /><path
         class="st4"
         d="M29.7,23.5h-4.6v-5.8h4.6v5.8Z"
         id="path17" /><path
         class="st3"
         d="M38.9,17.7h-4.6v-5.8h4.6v5.8Z"
         id="path18" /><path
         class="st5"
         d="M34.3,17.7h-4.6v-5.8h4.6v5.8Z"
         id="path19" /><path
         class="st6"
         d="M29.7,17.7h-4.6v-5.8h4.6v5.8Z"
         id="path20" /></g></g><g
     class="st9"
     id="g23"><path
       class="st8"
       d="M50.3,23.1c.2,0,.5,0,.7,0,1.8.2,3.5.7,5.1,1.4.5.2.6.4.2.8-1.2,1.2-2.1,2.7-2.9,4.2-.8,1.7-1.6,3.3-2.5,4.9-.6,1.2-1.4,2.3-2.4,3.3-2.5,2.3-5.4,3.2-8.8,2.8-3.8-.5-7.5-1.8-10.9-3.5-.2,0-.3-.2-.5-.3-.1,0-.2-.2,0-.3,0,0,0,0,0,0h.2c2.8-1.6,5.1-3.7,7.3-5.9.9-.9,1.9-1.9,2.8-2.8,2.1-2,4.7-3.4,7.5-4,.6-.2,1.2-.3,1.9-.4h1.4"
       id="path21" /><path
       class="st10"
       d="M23.4,49.9c-.4,0-1.5-.2-1.6-.2-2.7-.3-5.3-1.1-7.7-2.3-1.4-.7-2.8-1.4-4.1-2.2-.9-.5-1.3-1.3-1.3-2.3,0-3.9,0-7.8,0-11.7,0-2.5,0-5-.1-7.5,0-.2,0-.4.1-.7.2-.5.5-.5.8-.2.4.3.6.8,1,1.1,3.2,3.1,6.5,6,10.3,8.3,2.1,1.4,4.3,2.6,6.6,3.6,3.6,1.7,7.4,3.1,11.3,4,3.5.8,6.8.3,9.6-1.9.9-.7,1.3-1.3,2.3-2.6-.5,1.2-1,2.3-1.8,3.4-.7,1-2.1,2.4-3.2,3.5-1.7,1.6-3.9,3-6,4.1-2.3,1.2-4.6,2.2-7.2,2.7-1.3.3-3.2.7-3.8.7-.1,0-.5,0-.7,0-1.7.1-2.7.2-4.4,0h0Z"
       id="path22" /><path
       class="st13"
       d="M16.2,12.3c.1,0,.2,0,.3,0,7.2,0,14.3.1,21.4.1s0,0,0,0c.7.6,1.3,1.2,1.8,1.9,1.6,1.6,2.8,4.4,3.6,6.1.4,1.2,1,2.3,1.3,3.6h0c-.7.3-1.4.5-2.1.9-2.1,1-3,1.8-4.7,3.5-.9.9-1.7,1.7-3,2.9-.5.4-.9.9-1.4,1.3-.3-.6-5.9-11.5-17.1-20"
       id="path23" /></g><g
     id="g26"
     transform="matrix(1.1370092,0,0,1.1395301,-4.4193818,-4.4265415)"><path
       style="opacity:0.2"
       d="m 16.796875,13 c -0.433661,-0.0016 -0.788158,0.34458 -0.789063,0.773438 L 16,20.222656 c -0.0013,0.524264 0.513651,0.898982 1.019531,0.742188 l 8.425781,-2.597656 c 0.549306,-0.16812 0.735426,-0.845772 0.347656,-1.265626 l -3.558592,-3.839843 c -0.14756,-0.159442 -0.35568,-0.252733 -0.57422,-0.253907 z m 8.191407,7.132812 c -0.424252,0.04992 -0.634682,0.557714 -0.378906,0.910156 l 14.39453,19.519033 c -2.116894,-0.31489 -4.383902,-0.484168 -6.683594,-0.5 7.52e-4,-0.0484 -0.0092,-0.10056 -0.03126,-0.14844 L 23.917958,21.878902 c -0.05722,-0.1238 -0.18392,-0.199 -0.316406,-0.1875 -0.214722,0.0172 -0.352384,0.24272 -0.273438,0.449218 l 0.0118,0.0196 7.082032,17.925283 c -2.42613,0.0745 -4.787038,0.319964 -6.933594,0.722656 L 21.68757,22.269596 v -0.02344 c -0.012,-0.17274 -0.15226,-0.305322 -0.320312,-0.304688 -0.17674,-1.94e-4 -0.367392,0.14592 -0.367188,0.328126 v 19.101063 c -0.967042,0.241146 -1.304292,0.372886 -2.117188,0.675782 L 20.234376,22.375 c 0.02214,-0.344122 -0.252096,-0.628466 -0.585938,-0.605468 -0.246964,0.0172 -0.455823,0.19992 -0.507813,0.449218 l -5.0625,23.941406 c -0.01856,0.07072 -0.03516,0.14004 -0.04687,0.210938 l -0.01954,0.08984 c -0.0064,0.03002 0.0057,0.05638 0.0039,0.08594 -0.0071,0.05098 -0.01214,0.10132 -0.01562,0.15234 -2.92e-4,3.479624 8.058477,6.300952 18.000001,6.300782 9.941042,-6.8e-5 18.000288,-2.821324 17.999998,-6.300782 -0.0017,-0.856648 -0.503298,-1.705592 -1.472656,-2.492186 L 25.49218,20.35937 25.4414,20.30077 c -0.11862,-0.12454 -0.284816,-0.1868 -0.453124,-0.16798 z M 30,42 c 6.626994,6e-6 11.999396,1.790806 12,4 -6.04e-4,2.20919 -5.373006,3.999992 -12,4 -6.626994,-8e-6 -11.999394,-1.79081 -12,-4 6.06e-4,-2.209194 5.373006,-3.999994 12,-4 z"
       id="path2" /><path
       style="fill:#ffffff"
       d="m 24.988282,19.132812 c -0.424252,0.04991 -0.634682,0.557714 -0.378906,0.910156 l 14.39453,19.519033 c -2.116894,-0.31489 -4.383902,-0.484168 -6.683594,-0.5 7.52e-4,-0.0484 -0.0092,-0.10056 -0.03126,-0.14844 L 23.917958,20.878902 c -0.05722,-0.1238 -0.18392,-0.199 -0.316406,-0.1875 -0.214722,0.0172 -0.352384,0.242718 -0.273438,0.449218 l 0.0118,0.0196 7.082032,17.925283 c -2.426128,0.0745 -4.787038,0.319964 -6.933594,0.722656 L 21.68757,21.269596 v -0.02344 c -0.012,-0.17274 -0.15226,-0.305322 -0.320312,-0.304688 -0.17674,-1.94e-4 -0.367392,0.14592 -0.367188,0.328126 v 19.101063 c -0.967042,0.241146 -1.304292,0.372886 -2.117188,0.675782 L 20.234376,21.375 c 0.02214,-0.344122 -0.252096,-0.628466 -0.585938,-0.605468 -0.246964,0.0172 -0.455823,0.19992 -0.507813,0.449218 l -5.0625,23.941406 c -0.01856,0.07072 -0.03516,0.14004 -0.04687,0.210938 l -0.01954,0.08984 c -0.0064,0.03002 0.0057,0.05638 0.0039,0.08594 -0.0071,0.05098 -0.01214,0.10132 -0.01562,0.15234 -2.92e-4,3.479624 8.058477,6.300952 18.000001,6.300782 9.941042,-6.8e-5 18.000288,-2.821324 17.999998,-6.300782 -0.0017,-0.856648 -0.503298,-1.705592 -1.472656,-2.492186 l -23.03515,-23.847653 -0.05078,-0.05859 C 25.322786,19.176239 25.15659,19.113975 24.988282,19.132812 Z M 30,41 c 6.626994,6e-6 11.999396,1.790806 12,4 -6.04e-4,2.20919 -5.373006,3.999992 -12,4 -6.626994,-8e-6 -11.999394,-1.79081 -12,-4 6.06e-4,-2.209194 5.373006,-3.999994 12,-4 z"
       id="path3" /><path
       style="fill:#ffffff"
       d="m 16.796538,12.000007 c -0.433661,-0.0016 -0.786351,0.345078 -0.787256,0.773936 l -0.0093,6.448107 c -0.0013,0.524264 0.512923,0.8987 1.018803,0.741906 l 8.428269,-2.596639 c 0.549306,-0.16812 0.73509,-0.844117 0.34732,-1.26397 l -3.561166,-3.842299 c -0.14756,-0.159441 -0.355692,-0.250724 -0.574232,-0.251897 z"
       id="path4" /></g></svg>
