<?xml version="1.0" encoding="UTF-8" standalone="no"?>
<svg
   id="_图层_1"
   version="1.1"
   viewBox="0 0 64 64" width="48" height="48"
   sodipodi:docname="project-zomboid.svg"
   xml:space="preserve"
   inkscape:version="1.4 (e7c3feb100, 2024-10-09)"
   xmlns:inkscape="http://www.inkscape.org/namespaces/inkscape"
   xmlns:sodipodi="http://sodipodi.sourceforge.net/DTD/sodipodi-0.dtd"
   xmlns="http://www.w3.org/2000/svg"
   xmlns:svg="http://www.w3.org/2000/svg"><sodipodi:namedview
     id="namedview26"
     pagecolor="#ffffff"
     bordercolor="#999999"
     borderopacity="1"
     inkscape:showpageshadow="2"
     inkscape:pageopacity="0"
     inkscape:pagecheckerboard="0"
     inkscape:deskcolor="#d1d1d1"
     inkscape:zoom="10.6875"
     inkscape:cx="45.754386"
     inkscape:cy="24.51462"
     inkscape:window-width="1920"
     inkscape:window-height="939"
     inkscape:window-x="0"
     inkscape:window-y="34"
     inkscape:window-maximized="1"
     inkscape:current-layer="_图层_1" /><!-- Generator: Adobe Illustrator 29.0.1, SVG Export Plug-In . SVG Version: 2.1.0 Build 192)  --><defs
     id="defs6"><style
       id="style1">
      .st0 {
        fill-opacity: .5;
      }

      .st0, .st1, .st2, .st3, .st4, .st5, .st6, .st7 {
        fill: #fff;
      }

      .st8 {
        fill: #133c9a;
      }

      .st2, .st9 {
        display: none;
      }

      .st3 {
        fill-opacity: .2;
      }

      .st4 {
        fill-opacity: .9;
      }

      .st10 {
        fill: #3370ff;
      }

      .st11 {
        fill: url(#_未命名的渐变_3);
      }

      .st12 {
        fill: url(#_未命名的渐变);
      }

      .st5 {
        fill-opacity: .3;
      }

      .st6 {
        fill-opacity: 0;
      }

      .st7 {
        fill-opacity: .7;
      }

      .st13 {
        fill: #00d6b9;
      }

      .st14 {
        fill: url(#_未命名的渐变_2);
      }
    </style><radialGradient
       id="_未命名的渐变"
       data-name="未命名的渐变"
       cx="123.9"
       cy="-40.2"
       fx="123.9"
       fy="-40.2"
       r="59.4"
       gradientTransform="translate(-26.8 25.5) scale(.6 -.7)"
       gradientUnits="userSpaceOnUse"><stop
         offset="0"
         stop-color="#db202e"
         id="stop1" /><stop
         offset="1"
         stop-color="#e01b24"
         id="stop2" /></radialGradient><radialGradient
       id="_未命名的渐变_2"
       data-name="未命名的渐变 2"
       cx="67.6"
       cy="26.8"
       fx="67.6"
       fy="26.8"
       r="105.2"
       gradientTransform="translate(-26.6 25.3) scale(.6 -.7)"
       gradientUnits="userSpaceOnUse"><stop
         offset="0"
         stop-color="#ffb648"
         id="stop3" /><stop
         offset="1"
         stop-color="#ff7800"
         stop-opacity="0"
         id="stop4" /></radialGradient><radialGradient
       id="_未命名的渐变_3"
       data-name="未命名的渐变 3"
       cx="61.7"
       cy="18.6"
       fx="61.7"
       fy="18.6"
       r="68"
       gradientTransform="translate(-26.8 25.8) scale(.6 -.7)"
       gradientUnits="userSpaceOnUse"><stop
         offset="0"
         stop-color="#c64600"
         id="stop5" /><stop
         offset="1"
         stop-color="#a51d2d"
         id="stop6" /></radialGradient></defs><path
     class="st1"
     d="M47.5,64.1H13.8c-7.6,0-13.8-6.3-13.8-13.8V13.7C0,6.2,6.2,0,13.7,0h36.6c7.5,0,13.7,6.2,13.7,13.7v36.6c0,7.5-6.2,13.7-13.7,13.7h-2.9.1Z"
     id="path6"
     style="fill:#68303e;fill-opacity:1" /><rect
     class="st2"
     x="3"
     y="9.7"
     width="58.1"
     height="45.3"
     id="rect6" /><g
     class="st9"
     id="g21"><path
       class="st12"
       d="M-.1,16v35.3c.3,6.5,6.1,12.6,13.4,12.6l4.7.2h23.3s7.2,0,7.2,0c8.8,0,15.5-4.1,15.5-13.9V16.4h0C64,6.3,58,0,50.7,0H14.8C4.7-.2,0,7.2,0,14.5v1.4h-.1ZM4.6,11.6h4.6v5.8h-4.6v-5.8ZM54.9,11.6h4.6v5.8h-4.6v-5.8ZM4.6,23.2h4.6v5.8h-4.6v-5.8ZM54.9,23.2h4.6v5.8h-4.6v-5.8ZM4.6,34.8h4.6v5.8h-4.6v-5.8ZM54.9,34.8h4.6v5.8h-4.6v-5.8ZM4.6,46.4h4.6v5.8h-4.6v-5.8ZM54.9,46.4h4.6v5.8h-4.6v-5.8Z"
       id="path7" /><path
       class="st14"
       d="M47.5,0h-.7C41.4,0,46.8,0,45.5,0H13.3C4.1.3,0,8.5,0,13.7v1.3c0,.3-.1.3-.1.6v34.3c0,1.1,0,.8,0,.8H0c0,7.1,5.9,13.2,13.8,13.3h0c1.2,0,0,0,1.2,0h0c1.1,0,2.3,0,1.1,0h23.5c1.1,0,0,0,1.1,0h.7c3.2.1-1.7,0,0,0h-2.6c1.1,0,.6,0-1.1,0h-2c1.9,0-.6,0,13.3,0h1.3c5.9,0,13.7-4.3,13.6-11.4l.2-36.2C64.1,8.1,58.6,0,51.2,0M4.8,22.9h4.5v5.8h-4.5v-5.8ZM54.7,11.4h4.5v5.8h-4.5v-5.8ZM4.8,11.4h5v5.8h-5v-5.8ZM54.7,22.9h4.5v5.8h-4.5v-5.8ZM4.8,34.4h4.5v5.8h-4.5v-5.8ZM54.7,34.4h4.5v5.8h-4.5v-5.8ZM4.8,46h4.5v5.8h-4.5v-5.8ZM54.7,46h4.5v5.8h-4.5v-5.8Z"
       id="path8" /><path
       class="st11"
       d="M4.6,9.7v2.2h4.6v-2.2h-4.6ZM54.9,9.7v2.2h4.6v-2.2h-4.6ZM4.6,21.3v2.2h4.6v-2.2h-4.6ZM54.9,21.3v2.2h4.6v-2.2h-4.6ZM4.6,32.9v2.2h4.6v-2.2h-4.6ZM54.9,32.9v2.2h4.6v-2.2h-4.6ZM4.6,44.4v2.2h4.6v-2.2h-4.6ZM54.9,44.4v2.2h4.6v-2.2h-4.6ZM4.6,56v2.2h4.6v-2.2h-4.6ZM54.9,56v2.2h4.6v-2.2h-4.6Z"
       id="path9" /><g
       id="g20"><path
         class="st1"
         d="M25.1,29.3h13.7v11.6h-13.7s0-11.6,0-11.6Z"
         id="path10" /><path
         class="st1"
         d="M32,53.9l-12.6-15.9h25.1l-12.6,15.9h.1Z"
         id="path11" /><path
         class="st7"
         d="M25.1,29.3h4.6v-5.8h-4.6v5.8Z"
         id="path12" /><path
         class="st1"
         d="M29.7,29.3h4.6v-5.8h-4.6s0,5.8,0,5.8Z"
         id="path13" /><path
         class="st4"
         d="M34.3,29.3h4.6v-5.8h-4.6v5.8Z"
         id="path14" /><path
         class="st7"
         d="M38.9,23.5h-4.6v-5.8h4.6v5.8Z"
         id="path15" /><path
         class="st0"
         d="M34.3,23.5h-4.6v-5.8h4.6v5.8Z"
         id="path16" /><path
         class="st4"
         d="M29.7,23.5h-4.6v-5.8h4.6v5.8Z"
         id="path17" /><path
         class="st3"
         d="M38.9,17.7h-4.6v-5.8h4.6v5.8Z"
         id="path18" /><path
         class="st5"
         d="M34.3,17.7h-4.6v-5.8h4.6v5.8Z"
         id="path19" /><path
         class="st6"
         d="M29.7,17.7h-4.6v-5.8h4.6v5.8Z"
         id="path20" /></g></g><g
     class="st9"
     id="g23"><path
       class="st8"
       d="M50.3,23.1c.2,0,.5,0,.7,0,1.8.2,3.5.7,5.1,1.4.5.2.6.4.2.8-1.2,1.2-2.1,2.7-2.9,4.2-.8,1.7-1.6,3.3-2.5,4.9-.6,1.2-1.4,2.3-2.4,3.3-2.5,2.3-5.4,3.2-8.8,2.8-3.8-.5-7.5-1.8-10.9-3.5-.2,0-.3-.2-.5-.3-.1,0-.2-.2,0-.3,0,0,0,0,0,0h.2c2.8-1.6,5.1-3.7,7.3-5.9.9-.9,1.9-1.9,2.8-2.8,2.1-2,4.7-3.4,7.5-4,.6-.2,1.2-.3,1.9-.4h1.4"
       id="path21" /><path
       class="st10"
       d="M23.4,49.9c-.4,0-1.5-.2-1.6-.2-2.7-.3-5.3-1.1-7.7-2.3-1.4-.7-2.8-1.4-4.1-2.2-.9-.5-1.3-1.3-1.3-2.3,0-3.9,0-7.8,0-11.7,0-2.5,0-5-.1-7.5,0-.2,0-.4.1-.7.2-.5.5-.5.8-.2.4.3.6.8,1,1.1,3.2,3.1,6.5,6,10.3,8.3,2.1,1.4,4.3,2.6,6.6,3.6,3.6,1.7,7.4,3.1,11.3,4,3.5.8,6.8.3,9.6-1.9.9-.7,1.3-1.3,2.3-2.6-.5,1.2-1,2.3-1.8,3.4-.7,1-2.1,2.4-3.2,3.5-1.7,1.6-3.9,3-6,4.1-2.3,1.2-4.6,2.2-7.2,2.7-1.3.3-3.2.7-3.8.7-.1,0-.5,0-.7,0-1.7.1-2.7.2-4.4,0h0Z"
       id="path22" /><path
       class="st13"
       d="M16.2,12.3c.1,0,.2,0,.3,0,7.2,0,14.3.1,21.4.1s0,0,0,0c.7.6,1.3,1.2,1.8,1.9,1.6,1.6,2.8,4.4,3.6,6.1.4,1.2,1,2.3,1.3,3.6h0c-.7.3-1.4.5-2.1.9-2.1,1-3,1.8-4.7,3.5-.9.9-1.7,1.7-3,2.9-.5.4-.9.9-1.4,1.3-.3-.6-5.9-11.5-17.1-20"
       id="path23" /></g><g
     id="g26"
     transform="matrix(1.1436926,0,0,1.1411716,-4.5396826,-4.4331077)"><path
       style="opacity:0.2"
       d="m 29.07903,13.000001 -0.512073,0.1574 c -0.728591,0.1136 -0.811873,0.777708 -1.09699,1.368082 -0.556897,0.832682 -0.588404,1.392189 -0.260448,2.207243 0.363737,0.89716 0.880773,1.666521 1.536233,2.468614 l 1.074761,1.314122 v 0.319788 0.319786 l -0.638139,0.280814 -0.63763,0.281307 -1.202473,0.166387 c -0.782919,0.06307 -0.911027,0.152239 -1.214287,0.795467 -0.342975,0.510707 -0.297264,0.989854 -0.299182,1.575948 l -0.0029,0.94736 -0.397876,1.407054 c -0.635645,1.68507 -0.378078,3.482231 -0.361698,5.244485 -0.02676,1.773122 -0.252148,3.349311 0.650026,4.882232 0.328717,0.529453 0.368605,1.0448 1.0231,1.0448 0.683297,0.104929 0.322631,-0.514147 0.245444,-0.98084 -0.0553,-0.621227 -0.443351,-0.980842 0.286263,-0.980842 0.588501,0.05747 0.413181,-0.112128 0.267136,-0.575614 -0.06894,-0.44784 -0.287819,-0.69284 -0.583373,-1.01832 -0.36615,-0.366547 -0.451941,-0.381294 -0.143654,-0.767481 0.510224,-0.602067 0.453707,-1.496628 0.578215,-2.243495 l 0.319836,-1.918721 0.185507,-0.875908 c 0.106043,-0.448881 0.297171,-0.820908 0.76017,-0.967361 l 0.289363,-0.09147 0.835012,1.514975 c 0.595932,0.828293 0.83501,1.486281 0.83501,2.448869 0.1103,0.738548 -0.08576,1.052227 -0.502242,1.626895 -0.559836,0.565212 -0.559492,1.145254 -0.653651,1.889241 l -0.151396,1.196202 -1.174496,1.873733 c -0.809997,0.998135 -1.177857,1.901003 -1.349675,3.108924 l -0.175678,1.235175 -0.909936,0.973839 c -0.913536,0.720347 -0.992917,1.408041 -1.196722,2.473348 l -0.286786,1.498989 -0.291416,0.513161 -0.291955,0.512654 -0.01957,1.023307 c -0.258966,0.736936 0.153382,0.937104 0.358148,1.471014 0.628352,1.079375 2.354243,2.67515 3.7555,2.189043 l -0.165814,-0.526145 -0.181371,-0.575614 -0.37721,-0.41572 -0.376684,-0.416227 -0.155535,-0.926882 -0.155531,-0.927374 h 0.273355 0.27334 l 0.576657,-1.854762 c 0.200498,-1.202786 0.632764,-1.911707 1.458686,-2.750148 0.787125,-0.590934 0.954434,-1.161855 1.19311,-2.046628 l 0.310542,-1.151228 0.56684,-0.895401 0.566315,-0.8954 0.893407,-0.957362 c 0.820657,-0.756573 1.36465,-1.574267 1.36465,0.056 -0.104786,0.730402 0.250011,1.295496 0.539981,1.950203 0.675825,1.081107 0.419415,1.50712 -0.04233,2.607242 -0.701581,1.135574 -0.4927,1.952521 -0.2935,3.197362 l 0.289874,1.808282 -0.379264,0.709027 c -0.529681,0.850215 -0.49765,1.480294 0.04082,2.224509 l 0.420616,0.580614 -0.146743,0.369253 c -0.0024,1.025111 1.05794,0.831865 1.781256,0.836442 h 4.632754 c -0.04399,-0.964375 -2.147913,-1.318282 -3.040367,-1.445042 l -0.349808,-0.40772 -0.349302,-0.407227 -0.08218,-1.723349 -0.08163,-1.723348 0.398914,-1.708855 0.398895,-1.709348 c 0.774772,-0.495107 0.647476,-0.750907 0.470213,-1.636907 l -0.21698,-1.084762 -0.02992,-2.686202 -0.03047,-2.686203 -0.186528,-1.982668 c 0.139957,-0.613708 -0.727929,-1.982669 0.167418,-1.982669 l 0.160704,0.404722 0.160689,0.404732 v 0.738507 c 0.02442,0.571388 -0.190032,0.808962 0.423194,0.581615 l 0.423703,-0.1574 0.234088,0.357267 0.233547,0.35676 0.0042,0.5906 c 0.0433,0.386908 -0.166439,0.693215 0.268679,0.432708 l 0.264558,-0.157893 0.0083,-0.688535 0.0083,-0.688547 0.388571,0.496667 c 0.229053,0.192627 0.388585,0.756947 0.388585,0.230347 0.02908,-0.37912 -0.165779,-0.726454 -0.292466,-1.077774 -0.1372,-0.580534 -0.261966,-0.795162 -0.768881,-1.057787 L 39.129828,32.245097 39.2678,31.251271 c 0.33671,-1.1678 -0.351137,-2.081095 -0.826751,-3.137896 l -0.964264,-1.858387 -0.507937,-1.023322 -0.508446,-1.023307 -0.179815,-0.986347 c -0.0626,-0.932307 -0.230844,-1.006961 -1.062381,-1.343094 -0.517671,-0.293295 -0.962925,-0.356761 -1.53775,-0.356761 H 33.025781 L 32.61395,20.668369 32.202134,20.099743 v -0.309295 -0.309787 l 0.529113,-0.162386 c 0.828877,-0.123871 0.529116,-0.822788 0.529116,-1.503002 0.0728,-0.771226 0.07239,-1.248481 -0.388571,-1.837761 l -0.388569,-0.496668 -0.0083,-0.575614 c 0.0746,-0.556093 -0.132086,-0.695401 -0.51825,-1.068788 -0.449031,-0.595067 -0.979761,-0.561173 -1.693792,-0.664548 z"
       id="path2" /><path
       style="fill:#ffffff"
       d="m 29.07903,12 -0.512073,0.1574 c -0.728591,0.1136 -0.811873,0.777708 -1.09699,1.368082 -0.556897,0.832682 -0.588404,1.392189 -0.260448,2.207243 0.363737,0.89716 0.880773,1.666521 1.536233,2.468614 l 1.074761,1.314122 v 0.319788 0.319786 l -0.638139,0.280814 -0.63763,0.281307 -1.202473,0.166387 c -0.782919,0.06307 -0.911027,0.152239 -1.214287,0.795467 -0.342975,0.510707 -0.297264,0.989854 -0.299182,1.575948 l -0.0029,0.94736 -0.397876,1.407054 c -0.635645,1.68507 -0.378078,3.482231 -0.361698,5.244485 -0.02676,1.773122 -0.252148,3.349311 0.650026,4.882232 0.328717,0.529453 0.368605,1.0448 1.0231,1.0448 0.683297,0.104929 0.322631,-0.514147 0.245444,-0.98084 -0.0553,-0.621227 -0.443351,-0.980842 0.286263,-0.980842 0.588501,0.05747 0.413181,-0.112128 0.267136,-0.575614 -0.06894,-0.44784 -0.287819,-0.69284 -0.583373,-1.01832 -0.36615,-0.366547 -0.451941,-0.381294 -0.143654,-0.767481 0.510224,-0.602067 0.453707,-1.496628 0.578215,-2.243495 l 0.319836,-1.918721 0.185507,-0.875908 c 0.106043,-0.448881 0.297171,-0.820908 0.76017,-0.967361 l 0.289363,-0.09147 0.835012,1.514975 c 0.595932,0.828293 0.83501,1.486281 0.83501,2.448869 0.1103,0.738548 -0.08576,1.052227 -0.502242,1.626895 -0.559836,0.565212 -0.559492,1.145254 -0.653651,1.889241 l -0.151396,1.196202 -1.174496,1.873733 c -0.809997,0.998135 -1.177857,1.901003 -1.349675,3.108924 l -0.175678,1.235175 -0.909936,0.973839 c -0.913536,0.720347 -0.992917,1.408041 -1.196722,2.473348 l -0.286786,1.498989 -0.291416,0.513161 -0.291955,0.512654 -0.01957,1.023307 c -0.258966,0.736936 0.153382,0.937104 0.358148,1.471014 0.628352,1.079375 2.354243,2.67515 3.7555,2.189043 l -0.165814,-0.526145 -0.181371,-0.575614 -0.37721,-0.41572 -0.376684,-0.416227 -0.155535,-0.926882 -0.155531,-0.927374 h 0.273355 0.27334 l 0.576657,-1.854762 c 0.200498,-1.202786 0.632764,-1.911707 1.458686,-2.750148 0.787125,-0.590934 0.954434,-1.161855 1.19311,-2.046628 l 0.310542,-1.151228 0.56684,-0.895401 0.566315,-0.8954 0.893407,-0.957362 c 0.820657,-0.756573 1.36465,-1.574267 1.36465,0.056 -0.104786,0.730402 0.250011,1.295496 0.539981,1.950203 0.675825,1.081107 0.419415,1.50712 -0.04233,2.607242 -0.701581,1.135574 -0.4927,1.952521 -0.2935,3.197362 l 0.289874,1.808282 -0.379264,0.709027 c -0.529681,0.850215 -0.49765,1.480294 0.04082,2.224509 l 0.420616,0.580614 -0.146743,0.369253 c -0.0024,1.025111 1.05794,0.831865 1.781256,0.836442 h 4.632754 c -0.04399,-0.964375 -2.147913,-1.318282 -3.040367,-1.445042 l -0.349808,-0.40772 -0.349302,-0.407227 -0.08218,-1.723349 -0.08163,-1.723348 0.398914,-1.708855 0.398895,-1.709348 c 0.774772,-0.495107 0.647476,-0.750907 0.470213,-1.636907 l -0.21698,-1.084762 -0.02992,-2.686202 -0.03047,-2.686203 -0.186528,-1.982668 c 0.139957,-0.613708 -0.727929,-1.982669 0.167418,-1.982669 l 0.160704,0.404722 0.160689,0.404732 v 0.738507 c 0.02442,0.571388 -0.190032,0.808962 0.423194,0.581615 l 0.423703,-0.1574 0.234088,0.357267 0.233547,0.35676 0.0042,0.5906 c 0.0433,0.386908 -0.166439,0.693215 0.268679,0.432708 l 0.264558,-0.157893 0.0083,-0.688535 0.0083,-0.688547 0.388571,0.496667 c 0.229053,0.192627 0.388585,0.756947 0.388585,0.230347 0.02908,-0.37912 -0.165779,-0.726454 -0.292466,-1.077774 -0.1372,-0.580534 -0.261966,-0.795162 -0.768881,-1.057787 L 39.129828,31.245096 39.2678,30.25127 c 0.33671,-1.1678 -0.351137,-2.081095 -0.826751,-3.137896 l -0.964264,-1.858387 -0.507937,-1.023322 -0.508446,-1.023307 -0.179815,-0.986347 c -0.0626,-0.932307 -0.230844,-1.006961 -1.062381,-1.343094 -0.517671,-0.293295 -0.962925,-0.356761 -1.53775,-0.356761 H 33.025781 L 32.61395,19.668368 32.202134,19.099742 V 18.790447 18.48066 l 0.529113,-0.162386 c 0.828877,-0.123871 0.529116,-0.822788 0.529116,-1.503002 0.0728,-0.771226 0.07239,-1.248481 -0.388571,-1.837761 l -0.388569,-0.496668 -0.0083,-0.575614 c 0.0746,-0.556093 -0.132086,-0.695401 -0.51825,-1.068788 -0.449031,-0.595067 -0.979761,-0.561173 -1.693792,-0.664548 z"
       id="path3" /></g></svg>
