<?xml version="1.0" encoding="UTF-8"?>
<svg id="_图层_1" xmlns="http://www.w3.org/2000/svg" version="1.1" viewBox="0 0 64 64" width="48" height="48">
  <!-- Generator: Adobe Illustrator 29.0.1, SVG Export Plug-In . SVG Version: 2.1.0 Build 192)  -->
  <defs>
    <style>
      .st0 {
        fill: #4f4f4f;
      }

      .st1 {
        fill: #4daaf5;
      }

      .st2 {
        fill: #ffc107;
      }

      .st3, .st4, .st5 {
        fill: #fff;
      }

      .st6 {
        fill: none;
        stroke: #3669e9;
        stroke-linejoin: round;
        stroke-width: 8px;
      }

      .st7 {
        fill: #788085;
      }

      .st8 {
        fill: #18b4d9;
      }

      .st9 {
        fill: #fb8c00;
      }

      .st10 {
        fill: #e93140;
      }

      .st11 {
        fill: #f1f1f1;
      }

      .st12 {
        fill: #3669e9;
      }

      .st13, .st4 {
        opacity: .2;
      }

      .st13, .st4, .st5 {
        isolation: isolate;
      }

      .st14 {
        display: none;
      }

      .st15 {
        fill: #9d60ff;
      }

      .st16 {
        fill: #bdc3c7;
      }

      .st5 {
        opacity: .1;
      }
    </style>
  </defs>
  <path class="st3" d="M50.4,64H13.8c-7.6,0-13.8-6.2-13.8-13.7V13.7C0,6.2,6.2,0,13.7,0h36.6c7.5,0,13.7,6.2,13.7,13.7v36.6c0,7.5-6.2,13.7-13.7,13.7h.1Z"/>
  <g class="st14">
    <ellipse class="st13" cx="30.6" cy="32.6" rx="25" ry="24.8"/>
    <ellipse class="st7" cx="30.6" cy="31.7" rx="25" ry="24.8"/>
    <path class="st13" d="M28.2,13c-9.1,1.1-16.2,8.2-17.3,17.1l4.8,2.4-4.8,2.4c1.1,9,8.2,16.1,17.3,17.1l2.4-4.8,2.4,4.8c9.1-1.1,16.2-8.2,17.3-17.1l-4.8-2.4,4.8-2.4c-1.1-9-8.2-16.1-17.3-17.1l-2.4,4.8-2.4-4.8Z"/>
    <path class="st3" d="M28.2,12.2c-9.1,1.1-16.2,8.2-17.3,17.1l4.8,2.4-4.8,2.4c1.1,9,8.2,16.1,17.3,17.1l2.4-4.8,2.4,4.8c9.1-1.1,16.2-8.2,17.3-17.1l-4.8-2.4,4.8-2.4c-1.1-9-8.2-16.1-17.3-17.1l-2.4,4.8-2.4-4.8Z"/>
    <path class="st0" d="M33.8,34.9l-14.4,7.9,8-14.3,6.4,6.4Z"/>
    <path class="st10" d="M27.4,28.5l14.4-7.9-8,14.3-6.4-6.4Z"/>
    <path class="st13" d="M33.2,32.6c0,1.4-1.2,2.6-2.6,2.6s-2.6-1.1-2.6-2.6,1.2-2.6,2.6-2.6,2.6,1.1,2.6,2.6Z"/>
    <path class="st16" d="M33.2,31.7c0,1.4-1.2,2.6-2.6,2.6s-2.6-1.1-2.6-2.6,1.2-2.6,2.6-2.6,2.6,1.1,2.6,2.6Z"/>
    <path class="st4" d="M30.6,6.9c-13.8,0-25,11.1-25,24.8,0,.1,0,.3,0,.4.2-13.5,11.4-24.4,25-24.4,13.7,0,24.8,10.8,25,24.4,0-.1,0-.3,0-.4,0-13.7-11.2-24.8-25-24.8Z"/>
    <path class="st4" d="M30.6,29.1c-1.4,0-2.6,1.1-2.6,2.6,0,.1,0,.3,0,.4.2-1.2,1.3-2.1,2.6-2.1,1.3,0,2.3.9,2.6,2.1,0-.1,0-.3,0-.4,0-1.4-1.2-2.6-2.6-2.6Z"/>
  </g>
  <g class="st14">
    <ellipse class="st13" cx="32" cy="49.5" rx="9.3" ry="9"/>
    <ellipse class="st9" cx="32" cy="48.6" rx="9.3" ry="9"/>
    <path class="st13" d="M32,8.1c-2.1,0-3.9,1.7-3.9,3.8,0,0,0,0,0,0-7.7,1.7-12.8,8.4-12.8,16.4v11.8s-.1,3-2.3,4.4l-4.4,4c-1.1.9-.8,2.8.4,2.8h45.9c1.3,0,1.5-1.9.4-2.8l-4.4-4c-2.2-1.4-2.3-4.4-2.3-4.4v-11.8c0-8-5.1-14.7-12.8-16.4,0,0,0,0,0,0,0-2.1-1.7-3.8-3.9-3.8h0Z"/>
    <path class="st2" d="M32,7.2c-2.1,0-3.9,1.7-3.9,3.8,0,0,0,0,0,0-7.7,1.7-12.8,8.4-12.8,16.4v11.8s-.1,3-2.3,4.4l-4.4,4c-1.1.9-.8,2.8.4,2.8h45.9c1.3,0,1.5-1.9.4-2.8l-4.4-4c-2.2-1.4-2.3-4.4-2.3-4.4v-11.8c0-8-5.1-14.7-12.8-16.4,0,0,0,0,0,0,0-2.1-1.7-3.8-3.9-3.8h0Z"/>
    <path class="st4" d="M32,7.2c-2.1,0-3.9,1.7-3.9,3.8,0,0,0,0,0,0-7.7,1.7-12.8,8.4-12.8,16.4v.9c0-8,5.1-14.7,12.8-16.4,0,0,0,0,0,0,0-2.1,1.7-3.8,3.9-3.8s3.9,1.7,3.9,3.8c0,0,0,0,0,0,7.7,1.7,12.8,8.4,12.8,16.4v-.9c0-8-5.1-14.7-12.8-16.4,0,0,0,0,0,0,0-2.1-1.7-3.8-3.9-3.8ZM15.3,39.2s-.1,3-2.3,4.4l-4.4,4c-.6.5-.8,1.3-.6,1.9,0-.4.3-.8.6-1l4.4-4c2.2-1.4,2.3-4.4,2.3-4.4v-.9ZM48.7,39.2v.9s.1,3,2.3,4.4l4.4,4c.3.3.5.7.6,1,.2-.6,0-1.4-.6-1.9l-4.4-4c-2.2-1.4-2.3-4.4-2.3-4.4Z"/>
  </g>
  <g class="st14">
    <path class="st13" d="M13.2,16.9c-1.4,0-2.6,1.1-2.6,2.5v29.5c0,1.4,1.1,2.5,2.6,2.5h23.2l4.6,5.4,4.6-5.4h8.5c1.4,0,2.6-1.1,2.6-2.5v-29.5c0-1.4-1.1-2.5-2.6-2.5H13.2Z"/>
    <path class="st0" d="M13.2,16c-1.4,0-2.6,1.1-2.6,2.5v29.5c0,1.4,1.1,2.5,2.6,2.5h23.2l4.6,5.4,4.6-5.4h8.5c1.4,0,2.6-1.1,2.6-2.5v-29.5c0-1.4-1.1-2.5-2.6-2.5H13.2Z"/>
    <path class="st5" d="M13.2,16c-1.4,0-2.6,1.1-2.6,2.5v.9c0-1.4,1.1-2.5,2.6-2.5h40.9c1.4,0,2.6,1.1,2.6,2.5v-.9c0-1.4-1.1-2.5-2.6-2.5H13.2Z"/>
    <ellipse class="st13" cx="19.4" cy="24.6" rx="14.3" ry="14.1"/>
    <ellipse class="st1" cx="19.4" cy="23.7" rx="14.3" ry="14.1"/>
    <path class="st3" d="M18,15.1v11.8h2.8v-11.8h-2.8ZM18,28.7v2.7h2.8v-2.7h-2.8Z"/>
  </g>
  <g class="st14">
    <path class="st13" d="M50.3,16.1c1.4,0,2.5,1,2.5,2.4v27.8c0,1.3-1.1,2.4-2.5,2.4h-22.8l-4.5,5.1-4.5-5.1h-8.4c-1.4,0-2.5-1-2.5-2.4v-27.8c0-1.3,1.1-2.4,2.5-2.4h40.2Z"/>
    <path class="st0" d="M50.3,15.2c1.4,0,2.5,1,2.5,2.4v27.8c0,1.3-1.1,2.4-2.5,2.4h-22.8l-4.5,5.1-4.5-5.1h-8.4c-1.4,0-2.5-1-2.5-2.4v-27.8c0-1.3,1.1-2.4,2.5-2.4h40.2Z"/>
    <path class="st5" d="M50.3,15.2c1.4,0,2.5,1,2.5,2.4v.9c0-1.3-1.1-2.4-2.5-2.4H10.1c-1.4,0-2.5,1-2.5,2.4v-.9c0-1.3,1.1-2.4,2.5-2.4h40.2Z"/>
    <ellipse class="st13" cx="44.2" cy="23.3" rx="14" ry="13.3"/>
    <ellipse class="st1" cx="44.2" cy="22.5" rx="14" ry="13.3"/>
    <path class="st3" d="M45.6,14.4v11.1h-2.7v-11.1h2.7ZM45.6,27.2v2.6h-2.7v-2.6h2.7Z"/>
  </g>
  <g class="st14">
    <path class="st13" d="M34.1,10.1c-.4,0-.6.3-1.4,2.9l-.8,2.6h-1.3c-.7.2-1.5.3-1.8.3-.4,0-.6,0-.7,0,0,0-.7-1-1.3-2.2-1.3-2.3-1.6-2.6-2-2.6s-3,1.1-3.2,1.3c0,.1-.2.3-.2.5,0,.2.2,1.4.5,2.8.3,1.3.5,2.5.5,2.5,0,0-.3.3-.7.5s-1,.7-1.5,1.1c-.4.4-.8.6-.9.6s-1.1-.6-2.3-1.2c-2.5-1.4-2.6-1.5-2.9-1.3-.4.1-2.2,2.5-2.2,2.8s0,.5,2,2.6c.9,1,1.6,1.9,1.6,2s-.2.5-.4,1-.5,1.2-.7,1.6c-.1.4-.3.7-.4.8,0,0-1.2.1-2.8.1-3.3,0-3-.1-3.3,1.9-.1.8-.2,1.5-.2,1.7,0,.5.2.6,2.9,1.5l2.6.9v1.3c.2.7.3,1.5.3,1.8,0,.3,0,.6,0,.7,0,0-1,.7-2.2,1.4-1.2.7-2.3,1.4-2.4,1.5-.1.1-.2.4-.2.5,0,.4,1.1,3,1.3,3.2.3.2.6.2,3.2-.4,1.3-.3,2.5-.5,2.5-.5,0,0,.3.3.5.7.2.4.7,1,1.1,1.5.4.6.6.9.6,1,0,0-.6,1.1-1.2,2.2-1.3,2.3-1.4,2.5-1.3,2.8,0,.4,2.5,2.3,2.8,2.3.4,0,.5-.1,2.5-2,1-.9,1.9-1.6,1.9-1.6,0,0,.6.2,1,.4.5.2,1.2.6,1.6.7.4.1.8.3.8.3,0,0,0,1.3,0,2.8,0,3.5,0,3.2,1.8,3.5,1.4.2,2,.2,2.2,0,0,0,.5-1.3,1-2.7l.8-2.6h1c.5-.1,1.4-.2,1.8-.3.9-.1.9-.1,1.1,0,0,.1.7,1.1,1.4,2.3s1.3,2.1,1.4,2.2c.3.3.5.2,2.1-.4,1.4-.6,1.7-.8,1.7-1.2,0-.1-.2-1.4-.5-2.8-.3-1.4-.5-2.5-.5-2.6,0,0,.4-.3.7-.6.4-.3,1-.7,1.4-1.1.4-.3.8-.6.8-.6,0,0,1.1.6,2.3,1.3,2.5,1.4,2.5,1.4,2.8,1.3.4,0,2.3-2.5,2.3-2.9s0-.4-2-2.6c-.9-1-1.6-1.8-1.6-1.9,0,0,.1-.5.4-1,.2-.4.5-1.1.7-1.6.2-.4.3-.8.4-.9,0,0,1.2-.1,2.8-.1,2.6,0,2.7,0,2.9-.3.2-.2.3-.5.4-1.7.1-.8.2-1.6.2-1.7,0-.5-.3-.6-2.9-1.5l-2.6-.9v-1.3c-.2-.7-.3-1.5-.3-1.8,0-.3,0-.6,0-.7,0,0,1-.7,2.2-1.4,1.2-.7,2.3-1.4,2.4-1.5.1-.1.2-.3.2-.5,0-.4-1-3-1.3-3.2-.3-.2-.5-.2-2.8.3-2.7.6-2.9.6-3,.5,0,0-.3-.4-.6-.8-.3-.4-.7-1-1-1.4-.3-.4-.6-.7-.6-.8,0,0,.6-1.1,1.3-2.4.7-1.2,1.3-2.4,1.3-2.5.1-.4-.1-.7-1.4-1.7-1.3-1.1-1.5-1.1-2-.8-.1,0-1.1.9-2.1,1.8-1,.9-1.9,1.6-2,1.6s-.5-.2-1-.4c-.5-.2-1.1-.5-1.5-.7-1-.4-1-.2-1-3.2,0-2.4,0-2.6-.2-2.9-.1-.2-.3-.3-.5-.4-.4,0-2.8-.4-3-.4h0Z"/>
    <path class="st15" d="M34.1,9.2c-.4,0-.6.3-1.4,2.9l-.8,2.6h-1.3c-.7.2-1.5.3-1.8.3-.4,0-.6,0-.7,0,0,0-.7-1-1.3-2.2-1.3-2.3-1.6-2.6-2-2.6s-3,1.1-3.2,1.3c0,.1-.2.3-.2.5,0,.2.2,1.4.5,2.8.3,1.3.5,2.5.5,2.5,0,0-.3.3-.7.5s-1,.7-1.5,1.1c-.4.4-.8.6-.9.6s-1.1-.6-2.3-1.2c-2.5-1.4-2.6-1.5-2.9-1.3-.4.1-2.2,2.5-2.2,2.8s0,.5,2,2.6c.9,1,1.6,1.9,1.6,2s-.2.5-.4,1-.5,1.2-.7,1.6c-.1.4-.3.7-.4.8,0,0-1.2.1-2.8.1-3.3,0-3-.1-3.3,1.9-.1.8-.2,1.5-.2,1.7,0,.5.2.6,2.9,1.5l2.6.9v1.3c.2.7.3,1.5.3,1.8,0,.3,0,.6,0,.7,0,0-1,.7-2.2,1.4-1.2.7-2.3,1.4-2.4,1.5-.1.1-.2.4-.2.5,0,.4,1.1,3,1.3,3.2.3.2.6.2,3.2-.4,1.3-.3,2.5-.5,2.5-.5,0,0,.3.3.5.7.2.4.7,1,1.1,1.5.4.6.6.9.6,1,0,0-.6,1.1-1.2,2.2-1.3,2.3-1.4,2.5-1.3,2.8,0,.4,2.5,2.3,2.8,2.3.4,0,.5-.1,2.5-2,1-.9,1.9-1.6,1.9-1.6,0,0,.6.2,1,.4.5.2,1.2.6,1.6.7.4.1.8.3.8.3,0,0,0,1.3,0,2.8,0,3.5,0,3.2,1.8,3.5,1.4.2,2,.2,2.2,0,0,0,.5-1.3,1-2.7l.8-2.6h1c.5-.1,1.4-.2,1.8-.3.9-.1.9-.1,1.1,0,0,.1.7,1.1,1.4,2.3s1.3,2.1,1.4,2.2c.3.3.5.2,2.1-.4,1.4-.6,1.7-.8,1.7-1.2,0-.1-.2-1.4-.5-2.8-.3-1.4-.5-2.5-.5-2.6,0,0,.4-.3.7-.6.4-.3,1-.7,1.4-1.1.4-.3.8-.6.8-.6,0,0,1.1.6,2.3,1.3,2.5,1.4,2.5,1.4,2.8,1.3.4,0,2.3-2.5,2.3-2.9s0-.4-2-2.6c-.9-1-1.6-1.8-1.6-1.9,0,0,.1-.5.4-1,.2-.4.5-1.1.7-1.6.2-.4.3-.8.4-.9,0,0,1.2-.1,2.8-.1,2.6,0,2.7,0,2.9-.3.2-.2.3-.5.4-1.7.1-.8.2-1.6.2-1.7,0-.5-.3-.6-2.9-1.5l-2.6-.9v-1.3c-.2-.7-.3-1.5-.3-1.8,0-.3,0-.6,0-.7,0,0,1-.7,2.2-1.4,1.2-.7,2.3-1.4,2.4-1.5.1-.1.2-.3.2-.5,0-.4-1-3-1.3-3.2-.3-.2-.5-.2-2.8.3-2.7.6-2.9.6-3,.5,0,0-.3-.4-.6-.8-.3-.4-.7-1-1-1.4-.3-.4-.6-.7-.6-.8,0,0,.6-1.1,1.3-2.4.7-1.2,1.3-2.4,1.3-2.5.1-.4-.1-.7-1.4-1.7-1.3-1.1-1.5-1.1-2-.8-.1,0-1.1.9-2.1,1.8-1,.9-1.9,1.6-2,1.6s-.5-.2-1-.4c-.5-.2-1.1-.5-1.5-.7-1-.4-1-.2-1-3.2,0-2.4,0-2.6-.2-2.9-.1-.2-.3-.3-.5-.4-.4,0-2.8-.4-3-.4h0Z"/>
    <path class="st13" d="M39.1,23.2c.4,0,.8,0,1.1,0,1.7.1.6,1.4-.4,1.6-1.7.5-1.7,2.5-.7,3.7.9,1.6,2.3,0,3.4-.4,1.6-.3,0,2-.5,2.6-.8,1.2-2.1,1.8-3.4,1.6-1.7-.2-2.9,1.2-4,2.3-3.2,3-6.4,6.2-9.5,9.4-.5.4-1,.9-1.3,1.4-1.7,1.6-4.3-1-2.4-3.1,4-3.7,8.2-8,11.9-11.7.6-.6,1.2-1.2,1.6-2,.7-1.4,0-3.2,1.2-4.3.8-.9,1.9-1.1,3.1-1.1Z"/>
    <path class="st11" d="M39.1,22.4c.4,0,.8,0,1.1,0,1.7.1.6,1.4-.4,1.6-1.7.5-1.7,2.5-.7,3.7.9,1.6,2.3,0,3.4-.4,1.6-.3,0,2-.5,2.6-.8,1.2-2.1,1.8-3.4,1.6-1.7-.2-2.9,1.2-4,2.3-3.2,3-6.4,6.2-9.5,9.4-.5.4-1,.9-1.3,1.4-1.7,1.6-4.3-1-2.4-3.1,4-3.7,8.2-8,11.9-11.7.6-.6,1.2-1.2,1.6-2,.7-1.4,0-3.2,1.2-4.3.8-.9,1.9-1.1,3.1-1.1Z"/>
    <path class="st13" d="M29.1,23.3c1.2-.2,2.5.3,3.3,1.2-.2.5-1.6.2-2.1.9-.8.7-2.1,2.1-1.1,3.1,3.8,3.7,8.3,8.2,12.1,12,.7.9,1.9,1.4,2,2.6-.2,1.2-1.3,2.1-2.1,2.8-.4.2-.9,0-1.2-.2-5-5.3-8.5-9.8-13-14.9-.6-.5-1.5-.4-1.5.6.6,1.1-1,1.7-1.5,2.6-.6.4-1-.4-1.4-.7-.6-.8-1.9-1.4-1.9-2.5.7-.7,1.3-2.5,2.4-2,1.1-.5.6-2.3,1.8-2.9.9-.7,2.1-.9,2.9-1.9.4-.2.9-.4,1.3-.5Z"/>
    <path class="st3" d="M29.1,22.4c1.2-.2,2.5.3,3.3,1.2-.2.5-1.6.2-2.1.9-.8.7-2.1,2.1-1.1,3.1,3.8,3.7,8.3,8.2,12.1,12,.7.9,1.9,1.4,2,2.6-.2,1.2-1.3,2.1-2.1,2.8-.4.2-.9,0-1.2-.2-5-5.3-8.5-9.8-13-14.9-.6-.5-1.5-.4-1.5.6.6,1.1-1,1.7-1.5,2.6-.6.4-1-.4-1.4-.7-.6-.8-1.9-1.4-1.9-2.5.7-.7,1.3-2.5,2.4-2,1.1-.5.6-2.3,1.8-2.9.9-.7,2.1-.9,2.9-1.9.4-.2.9-.4,1.3-.5Z"/>
    <path class="st5" d="M34.1,9.2c-.4,0-.6.3-1.4,2.9l-.8,2.6h-1.3c-.7.2-1.5.3-1.8.3-.4,0-.6,0-.7,0,0,0-.7-1-1.3-2.2-1.3-2.3-1.6-2.6-2-2.6s-3,1.1-3.2,1.3c0,.1-.2.3-.2.5,0,0,0,.3,0,.5,0,0,0-.1,0-.2.2-.2,2.8-1.3,3.2-1.3s.6.4,2,2.6c.7,1.1,1.3,2.1,1.3,2.2,0,0,.3,0,.7,0,.3,0,1.1-.2,1.8-.2h1.3c0-.1.8-2.7.8-2.7.9-2.6,1-2.9,1.4-2.9.2,0,2.5.4,3,.4.2,0,.3.2.5.4.2.3.2.5.2,2.9,0,3,0,2.8,1,3.2.3.1,1,.4,1.5.7.5.2.9.4,1,.4s1-.7,2-1.6c1-.9,1.9-1.7,2.1-1.8.5-.3.7-.2,2,.8.6.5,1,.9,1.2,1.1,0,0,.2-.3.2-.3.1-.4-.1-.7-1.4-1.7-1.3-1.1-1.5-1.1-2-.8-.1,0-1.1.9-2.1,1.8-1,.9-1.9,1.6-2,1.6s-.5-.2-1-.4c-.5-.2-1.1-.5-1.5-.7-1-.4-1-.2-1-3.2,0-2.4,0-2.6-.2-2.9-.1-.2-.3-.3-.5-.4-.4,0-2.8-.4-3-.4ZM14.4,17c0,0-.2,0-.3,0-.4.1-2.2,2.5-2.2,2.8s0,.3.2.5c.5-.8,1.7-2.3,2-2.4.3-.1.5,0,2.9,1.3,1.2.7,2.2,1.2,2.3,1.2s.5-.3.9-.6c.4-.4,1.1-.8,1.4-1.1s.7-.5.7-.5c0,0,0-.3-.1-.8-.1,0-.3.2-.6.4-.4.2-1,.7-1.4,1.1-.4.4-.8.6-.9.6s-1.1-.6-2.3-1.2c-1.8-1.1-2.4-1.3-2.7-1.4ZM46.3,21.4c0,0-.3.5-.3.5,0,0,.3.4.6.8.3.4.8,1,1,1.4.3.4.5.7.6.8.1,0,.2,0,3-.5,2.3-.5,2.5-.5,2.8-.3.2.2.9,1.8,1.1,2.7,0-.1.1-.3.1-.4,0-.4-1-3-1.3-3.2-.3-.2-.5-.2-2.8.3-2.7.6-2.9.6-3,.5,0,0-.3-.4-.6-.8-.3-.4-.7-1-1-1.4-.2-.2-.2-.3-.3-.4ZM15.3,25c0,.1-.1.3-.2.4-.2.5-.5,1.2-.7,1.6-.1.4-.3.7-.4.8,0,0-1.2.1-2.8.1-3.3,0-3-.1-3.3,1.9-.1.8-.2,1.5-.2,1.7,0,.1,0,.2,0,.3,0-.3,0-.6.2-1.1.3-2,0-1.8,3.3-1.9,1.7,0,2.7,0,2.8-.1,0,0,.2-.4.4-.8.1-.4.5-1.1.7-1.6.2-.5.4-.9.4-1s-.2-.2-.2-.3ZM50.5,30.6s0,0,0,0c0,0,0,.3,0,.7,0,.3.2,1.1.2,1.8v1.3c.1,0,2.7.9,2.7.9,2,.7,2.6.9,2.8,1.2,0-.2,0-.5,0-.6,0-.5-.3-.6-2.9-1.5l-2.6-.9v-1.3c-.2-.6-.2-1.3-.3-1.7ZM13.5,37.7c0,0-1,.6-2.1,1.3-1.2.7-2.3,1.4-2.4,1.5-.1.1-.2.4-.2.5s0,.3.1.5c0,0,0,0,0-.1.1-.1,1.2-.8,2.4-1.5,1.2-.7,2.2-1.3,2.2-1.4,0,0,0-.3,0-.7,0,0,0-.1,0-.2ZM48.7,43.3c-.1.3-.2.5-.2.6,0,0,.7,1,1.6,1.9,1.1,1.3,1.6,1.8,1.8,2.1.1-.2.2-.3.2-.4,0-.3,0-.4-2-2.6-.7-.8-1.2-1.3-1.4-1.7ZM17.7,47c-.2.3-.5.9-1,1.8-1.3,2.3-1.4,2.5-1.3,2.8,0,0,0,.1.1.2.2-.4.5-1,1.2-2.2.6-1.1,1.2-2.1,1.2-2.2,0,0,0-.2-.2-.5ZM41.7,50.9s-.1,0-.1,0c0,0,.2,1.2.5,2.6.2,1.1.4,1.8.4,2.2,0-.1.1-.2.1-.3,0-.1-.2-1.4-.5-2.8-.1-.7-.3-1.3-.4-1.8Z"/>
  </g>
  <g class="st14">
    <path class="st13" d="M30.8,10.1c-2.7,0-4.9,2.1-4.9,4.8v2.2c-2.1.7-4.1,1.8-5.8,3.3l-2-1.1c-2.4-1.3-5.4-.5-6.7,1.8l-1.2,2.1c-1.4,2.3-.6,5.2,1.8,6.5l2,1.1c-.2,1.1-.3,2.2-.3,3.3,0,1.1.1,2.2.3,3.3l-2,1.1c-2.4,1.3-3.2,4.2-1.8,6.5l1.2,2.1c1.4,2.3,4.4,3.1,6.7,1.8l2-1.1c1.7,1.4,3.7,2.5,5.8,3.3v2.3c0,2.7,2.2,4.8,4.9,4.8h2.5c2.7,0,4.9-2.1,4.9-4.8v-2.3c2.1-.7,4.1-1.8,5.8-3.3l2,1.1c2.4,1.3,5.4.5,6.7-1.8l1.2-2.1c1.4-2.3.6-5.2-1.8-6.5l-2-1.1c.2-1.1.3-2.2.3-3.3,0-1.1-.1-2.2-.3-3.3l2-1.1c2.4-1.3,3.2-4.2,1.8-6.5l-1.2-2.1c-1.4-2.3-4.4-3.1-6.7-1.8l-2,1.1c-1.7-1.4-3.7-2.5-5.8-3.3v-2.2c0-2.7-2.2-4.8-4.9-4.8h-2.5Z"/>
    <path class="st8" d="M30.8,9.3c-2.7,0-4.9,2.1-4.9,4.8v2.2c-2.1.7-4.1,1.8-5.8,3.3l-2-1.1c-2.4-1.3-5.4-.5-6.7,1.8l-1.2,2.1c-1.4,2.3-.6,5.2,1.8,6.5l2,1.1c-.2,1.1-.3,2.2-.3,3.3,0,1.1.1,2.2.3,3.3l-2,1.1c-2.4,1.3-3.2,4.2-1.8,6.5l1.2,2.1c1.4,2.3,4.4,3.1,6.7,1.8l2-1.1c1.7,1.4,3.7,2.5,5.8,3.3v2.3c0,2.7,2.2,4.8,4.9,4.8h2.5c2.7,0,4.9-2.1,4.9-4.8v-2.3c2.1-.7,4.1-1.8,5.8-3.3l2,1.1c2.4,1.3,5.4.5,6.7-1.8l1.2-2.1c1.4-2.3.6-5.2-1.8-6.5l-2-1.1c.2-1.1.3-2.2.3-3.3,0-1.1-.1-2.2-.3-3.3l2-1.1c2.4-1.3,3.2-4.2,1.8-6.5l-1.2-2.1c-1.4-2.3-4.4-3.1-6.7-1.8l-2,1.1c-1.7-1.4-3.7-2.5-5.8-3.3v-2.2c0-2.7-2.2-4.8-4.9-4.8h-2.5Z"/>
    <path class="st4" d="M30.8,9.3c-2.7,0-4.9,2.1-4.9,4.8v.9c0-2.7,2.2-4.8,4.9-4.8h2.5c2.7,0,4.9,2.1,4.9,4.8v-.9c0-2.7-2.2-4.8-4.9-4.8h-2.5ZM25.8,16.3c-2.1.7-4.1,1.8-5.8,3.3l-2-1.1c-2.4-1.3-5.4-.5-6.7,1.8l-1.2,2.1c-.5.9-.7,1.9-.6,2.8,0-.7.3-1.4.6-2l1.2-2.1c1.4-2.3,4.4-3.1,6.7-1.8l2,1.1c1.7-1.4,3.7-2.5,5.8-3.3v-.9ZM38.2,16.3v.9c2.1.7,4.1,1.8,5.8,3.3l2-1.1c2.4-1.3,5.4-.5,6.7,1.8l1.2,2.1c.4.6.6,1.3.6,2,0-1-.1-1.9-.6-2.8l-1.2-2.1c-1.4-2.3-4.4-3.1-6.7-1.8l-2,1.1c-1.7-1.4-3.7-2.5-5.8-3.3ZM50.3,30.7h-.1c.2,1,.3,2,.3,3,0-.2,0-.3,0-.5,0-.8,0-1.7-.2-2.5ZM13.7,30.7c-.1.8-.2,1.7-.2,2.5,0,.1,0,.3,0,.4,0-.9.1-1.9.3-2.8h-.1ZM50.3,36.6c0,.3,0,.5-.1.8l2,1.1c1.4.8,2.3,2.2,2.4,3.7.2-1.8-.7-3.6-2.4-4.6l-1.9-1.1ZM13.7,36.6l-1.9,1.1c-1.7,1-2.6,2.8-2.4,4.6.1-1.5,1-2.9,2.4-3.7l2-1.1c0-.3,0-.5-.1-.8Z"/>
    <path class="st13" d="M32,23.8c-5.8,0-10.6,4.6-10.6,10.3v14.7c1.4.9,2.8,1.7,4.4,2.2v2.3c0,1,.3,2,.9,2.7v-13c1.6.9,3.4,1.4,5.3,1.4,5.8,0,10.6-4.6,10.6-10.3s-4.7-10.3-10.6-10.3ZM32,28.9c2.9,0,5.3,2.3,5.3,5.1h0c0,2.8-2.4,5.1-5.3,5.1h0c-2.9,0-5.3-2.3-5.3-5.1h0c0-2.8,2.4-5.1,5.3-5.1h0Z"/>
    <path class="st3" d="M32,22.9c-5.8,0-10.6,4.6-10.6,10.3v14.7c1.4.9,2.8,1.7,4.4,2.2v2.3c0,1,.3,2,.9,2.7v-13c1.6.9,3.4,1.4,5.3,1.4,5.8,0,10.6-4.6,10.6-10.3s-4.7-10.3-10.6-10.3ZM32,28.1c2.9,0,5.3,2.3,5.3,5.1h0c0,2.8-2.4,5.1-5.3,5.1h0c-2.9,0-5.3-2.3-5.3-5.1h0c0-2.8,2.4-5.1,5.3-5.1h0Z"/>
  </g>
  <g>
    <path class="st13" d="M35.8,6.4l-10.3,41.2c-2.1-.6-3.4-1.3-4.2-2-1-.9-1.3-1.6-1.4-3.1,0-2.2,1.5-7,3.1-13.1.1-.4.7-1.5,1.1-3.2.2-.8.4-1.9,0-3.4-.4-1.5-1.9-3-3.3-3.5-1.5-.5-2.8-.8-4.1-.8-3.9-.2-7,1.3-8.6,1.8l2.6,7.6c2.1-.7,3.5-1.2,4.9-1.3-.1.3-.1.4-.2.7-1.4,5.6-3.5,10.2-3.3,15.4.1,3.3,1.5,6.6,4.1,8.9,2,1.7,4.5,2.9,7.5,3.7l-1.8,7.1h8.2l1.5-6.1c4.5-.3,8.5-1.9,11.7-4.2,4.3-3,7.3-6.9,8.5-10.8,2.5-6.3,2.1-12.1,2.1-18.9h-8c0,7.1.3,11.7-1.5,16.1,0,0,0,.2-.1.3-.5,1.5-2.6,4.7-5.6,6.8-1.5,1.1-3.2,1.9-5,2.4L44,6.4h-8.2Z"/>
    <path class="st6" d="M9.2,23.1c2.7-.9,5.7-2.6,10.1-1,1.9.7.3,3.3-.2,5.3-1.5,5.8-3.4,10.5-3.2,14.2.2,4.9,3.4,8,11.2,9.5,10.8,2.1,19.2-6.6,21-12,2.2-5.4,1.8-10.6,1.8-17.6"/>
    <path class="st12" d="M35.8,5.4l-14,56h8.2L44,5.4h-8.2Z"/>
    <path class="st5" d="M35.8,5.4l-10.3,41.2c-2.1-.6-3.4-1.3-4.2-2-.9-.8-1.3-1.5-1.4-2.8,0,.2,0,.5,0,.7,0,1.6.4,2.3,1.4,3.1.8.7,2.1,1.4,4.2,2L35.8,6.4h8l.2-1h-8.2ZM16.6,17.5c-3.9-.2-7,1.3-8.6,1.8l.3.9c1.7-.6,4.6-1.9,8.3-1.7,1.3,0,2.7.3,4.1.8,1.4.5,2.9,2,3.3,3.5.1.4.2.8.2,1.2,0-.6,0-1.3-.2-2.2-.4-1.5-1.9-3-3.3-3.5-1.5-.5-2.8-.8-4.1-.8ZM45.8,21.4c0,.4,0,.6,0,1h8c0,1.5,0,2.9,0,4.3,0-1.7,0-3.4,0-5.3h-8ZM45.8,26.5c0,4.4-.2,7.8-1.5,11.1,0,0,0,.2-.1.3-.5,1.5-2.6,4.7-5.6,6.8-1.4,1-3,1.8-4.7,2.3l-.3,1.1c1.8-.5,3.5-1.3,5-2.4,3-2.1,5.1-5.3,5.6-6.8,0,0,0-.2.1-.3,1.4-3.5,1.5-7.2,1.5-12.1ZM15.5,26.6c-.1,0-.2,0-.3,0-1.4,5.4-3.4,9.9-3.3,14.9.1-4.7,2-9.1,3.4-14.2,0-.4.1-.4.2-.7ZM23.3,55.3l-1.5,6.1h.2l1.5-6.1c0,0-.2,0-.2,0Z"/>
  </g>
</svg>