<?xml version="1.0" encoding="UTF-8"?>
<svg id="_图层_1" xmlns="http://www.w3.org/2000/svg" version="1.1" viewBox="0 0 64 64" width="48" height="48">
  <!-- Generator: Adobe Illustrator 29.0.1, SVG Export Plug-In . SVG Version: 2.1.0 Build 192)  -->
  <defs>
    <style>
      .st0 {
        fill: #4f4f4f;
      }

      .st1, .st2, .st3, .st4, .st5 {
        isolation: isolate;
      }

      .st1, .st3, .st4, .st5 {
        opacity: .2;
      }

      .st1, .st6, .st5, .st7 {
        display: none;
      }

      .st8, .st9, .st4, .st5 {
        fill: #fff;
      }

      .st9 {
        fill-rule: evenodd;
      }

      .st10 {
        fill: #a7abad;
      }

      .st2 {
        opacity: .1;
      }

      .st11 {
        fill: #666;
      }

      .st12 {
        fill: gray;
      }

      .st13 {
        fill: #e4e4e4;
      }

      .st14 {
        fill: #e31c1c;
      }

      .st7 {
        fill: #6a84e2;
      }
    </style>
  </defs>
  <path class="st8" d="M50.4,64H13.8c-7.6,0-13.8-6.2-13.8-13.7V13.7C0,6.2,6.2,0,13.7,0h36.5c7.5,0,13.7,6.2,13.7,13.7v36.6c0,7.5-6.2,13.7-13.7,13.7h.1Z"/>
  <g class="st6">
    <ellipse class="st1" cx="31.9" cy="33.3" rx="31.9" ry="32"/>
    <ellipse class="st7" cx="31.9" cy="32.1" rx="31.9" ry="32"/>
    <path class="st3" d="M12.9,19.2c-1.6,0-2.8,1.3-2.8,2.8v22.4c0,1.6,1.3,2.8,2.8,2.8h38c1.6,0,2.8-1.3,2.8-2.8v-22.4c0-1.6-1.3-2.8-2.8-2.8H12.9ZM15.3,24.8s0,0,0,0c.1,0,.3,0,.4.1l12.9,7.6c.4.2.5.7.3,1.1,0,.1-.2.2-.3.3l-12.9,7.6c-.4.2-.9,0-1.1-.3,0-.1-.1-.3-.1-.4v-15.2c0-.4.3-.8.8-.8ZM34.9,26h8.5c.7,0,1.3.8,1.3,1.7,0,.9-.6,1.7-1.3,1.7h-8.5c-.7,0-1.3-.8-1.3-1.7,0-.4.1-.9.4-1.2.2-.3.6-.5.9-.5ZM34.8,31.6h13.2c.7,0,1.2.8,1.2,1.7,0,.4-.1.9-.4,1.2-.2.3-.6.5-.9.5h-13.2c-.7,0-1.2-.8-1.2-1.7,0-.9.6-1.7,1.2-1.7ZM34.8,37.2h13.2c.7,0,1.2.8,1.2,1.7,0,.4-.1.9-.4,1.2-.2.3-.6.5-.9.5h-13.2c-.7,0-1.2-.8-1.2-1.7,0-.9.6-1.7,1.2-1.7Z"/>
    <path class="st8" d="M12.9,18.1c-1.6,0-2.8,1.3-2.8,2.8v22.4c0,1.6,1.3,2.8,2.8,2.8h38c1.6,0,2.8-1.3,2.8-2.8v-22.4c0-1.6-1.3-2.8-2.8-2.8H12.9ZM15.3,23.7s0,0,0,0c.1,0,.3,0,.4.1l12.9,7.6c.4.2.5.7.3,1.1,0,.1-.2.2-.3.3l-12.9,7.6c-.4.2-.9,0-1.1-.3,0-.1-.1-.3-.1-.4v-15.2c0-.4.3-.8.8-.8ZM34.9,24.8h8.5c.7,0,1.3.8,1.3,1.7,0,.9-.6,1.7-1.3,1.7h-8.5c-.7,0-1.3-.8-1.3-1.7,0-.4.1-.9.4-1.2.2-.3.6-.5.9-.5ZM34.8,30.5h13.2c.7,0,1.2.8,1.2,1.7,0,.4-.1.9-.4,1.2-.2.3-.6.5-.9.5h-13.2c-.7,0-1.2-.8-1.2-1.7,0-.9.6-1.7,1.2-1.7ZM34.8,36.1h13.2c.7,0,1.2.8,1.2,1.7,0,.4-.1.9-.4,1.2-.2.3-.6.5-.9.5h-13.2c-.7,0-1.2-.8-1.2-1.7,0-.9.6-1.7,1.2-1.7Z"/>
    <path class="st5" d="M31.9.1C14.3.1,0,14.5,0,32.1c0,.2,0,.4,0,.7C.3,15.3,14.5,1.3,31.9,1.3c17.4,0,31.5,13.9,31.9,31.3,0-.2,0-.3,0-.5C63.8,14.5,49.5.1,31.9.1Z"/>
  </g>
  <g>
    <rect class="st10" x="10.5" y="16.8" width="42.9" height="31.1"/>
    <path class="st13" d="M40,39.8h3.6c.5,0,.9.4.9.8v.8c0,.5-.4.8-.9.8h-3.6c-.5,0-.9-.4-.9-.8v-.8c0-.5.4-.8.9-.8Z"/>
    <path class="st3" d="M9.1,9.5c-.7,0-1.3.5-1.3,1.1v9.2c0,.6.6,1.1,1.3,1.1h45.8c.7,0,1.3-.5,1.3-1.1v-9.2c0-.6-.6-1.1-1.3-1.1H9.1ZM9.1,41.4c-.7,0-1.3.5-1.3,1.1v11.6c0,.6.6,1.1,1.3,1.1h45.8c.7,0,1.3-.5,1.3-1.1v-11.6c0-.6-.6-1.1-1.3-1.1H9.1Z"/>
    <path class="st14" d="M9.1,8.7h45.8c.7,0,1.3.5,1.3,1.1v9.2c0,.6-.6,1.1-1.3,1.1H9.1c-.7,0-1.3-.5-1.3-1.1v-9.2c0-.6.6-1.1,1.3-1.1Z"/>
    <path class="st0" d="M22,21.8h20c1.4,0,2.5,1,2.5,2.3v12.6c0,1.3-1.1,2.3-2.5,2.3h-20c-1.4,0-2.5-1-2.5-2.3v-12.6c0-1.3,1.1-2.3,2.5-2.3Z"/>
    <path class="st13" d="M47.2,39.8h3.6c.5,0,.9.4.9.8v.8c0,.5-.4.8-.9.8h-3.6c-.5,0-.9-.4-.9-.8v-.8c0-.5.4-.8.9-.8Z"/>
    <rect class="st11" x="15.9" y="34.9" width="1.8" height="5.7"/>
    <path class="st12" d="M14.8,39.8h3.9c.4,0,.7.3.7.7v1.1c0,.4-.3.7-.7.7h-3.9c-.4,0-.7-.3-.7-.7v-1.1c0-.4.3-.7.7-.7Z"/>
    <path class="st14" d="M9.1,40.6h45.8c.7,0,1.3.5,1.3,1.1v11.6c0,.6-.6,1.1-1.3,1.1H9.1c-.7,0-1.3-.5-1.3-1.1v-11.6c0-.6.6-1.1,1.3-1.1Z"/>
    <ellipse class="st2" cx="16.8" cy="34.9" rx="3.6" ry="3.3"/>
    <ellipse class="st0" cx="16.8" cy="34" rx="3.6" ry="3.3"/>
    <path class="st4" d="M9.1,8.7c-.7,0-1.3.5-1.3,1.1v.8c0-.6.6-1.1,1.3-1.1h45.8c.7,0,1.3.5,1.3,1.1v-.8c0-.6-.6-1.1-1.3-1.1H9.1ZM9.1,40.6c-.7,0-1.3.5-1.3,1.1v.8c0-.6.6-1.1,1.3-1.1h45.8c.7,0,1.3.5,1.3,1.1v-.8c0-.6-.6-1.1-1.3-1.1H9.1Z"/>
    <path class="st9" d="M34.7,24.2l-12.5,11.5h6.3l4.5-4.1v4.1l5.4-4.1v4.1l3.6-3.3v-8.2l-7.2,5.7v-5.7Z"/>
  </g>
</svg>