<?xml version="1.0" standalone="no"?><!DOCTYPE svg PUBLIC "-//W3C//DTD SVG 1.1//EN" "http://www.w3.org/Graphics/SVG/1.1/DTD/svg11.dtd"><svg t="1731064453827" class="icon" viewBox="0 0 1024 1024" version="1.1" xmlns="http://www.w3.org/2000/svg" p-id="167700" xmlns:xlink="http://www.w3.org/1999/xlink" width="48" height="48"><path d="M1024 862.8c0 89-72.2 161.2-161.2 161.2H161.2C72.2 1024 0 951.8 0 862.8V161.2C0 72.2 72.2 0 161.2 0h701.6c89 0 161.2 72.2 161.2 161.2v701.6z" fill="#f2f2f2" p-id="167701"></path><path d="M780 857.4c-4.7 37.4-65.8 60.4-136.3 51.5-70.5-9-123.8-46.6-119-84 4.8-37.4 65.8-60.4 136.2-51.4 70.6 8.9 123.9 46.6 119.1 83.9zM248.1 853.8c5.6 37.5 68.9 61.5 141.6 53.7 72.7-7.9 127.1-44.7 121.6-82.2s-69-61.5-141.7-53.6c-72.7 7.9-127.1 44.6-121.5 82.1z" fill="#E38010" p-id="167702"></path><path d="M773.7 366.3c0 139.8-114.2 253.1-255.1 253.1-140.8 0-255-113.3-255-253.1s114.2-253.1 255-253.1c140.9 0 255.1 113.3 255.1 253.1z" fill="#040000" p-id="167703"></path><path d="M245.8 846.4c5.6 37.5 68.9 61.5 141.6 53.7 72.7-7.9 127.1-44.7 121.6-82.2s-69-61.5-141.7-53.6c-72.6 7.8-127.1 44.6-121.5 82.1zM782.9 848.4c-4.7 37.4-65.8 60.4-136.3 51.5-70.5-9-123.8-46.6-119-84 4.8-37.4 65.8-60.4 136.3-51.4 70.5 8.9 123.7 46.5 119 83.9z" fill="#F4A418" p-id="167704"></path><path d="M760.9 646.6c0 113.2-110.2 205-246.1 205s-246.1-91.8-246.1-205 110.2-205 246.1-205 246.1 91.7 246.1 205z" fill="#040000" p-id="167705"></path><path d="M309.1 605.8c-36.1 72.1-92.8 117.8-109.6 108.8-22.3-11.9-27.7-84.7 8.5-156.8 36.2-72.1 94.5-118.3 122.4-104.3 27.9 14.1 14.8 80.2-21.3 152.3zM724.5 614.9c33.1 65.5 80.7 116.4 101 111.9 16.4-3.6 28.2-80.2-1.9-153.6-30.6-74.6-86-128.2-114-114.2-27.9 14-21.4 83.9 14.9 155.9z" fill="#040000" p-id="167706"></path><path d="M334.4 517.8c-15.2 31.2-23.9 66.6-23.9 104.2 0 124.3 93.6 225 209.1 225s209.1-100.7 209.1-225c0-36.6-8.3-71.1-22.7-101.7-106.5 54.3-301.3 14.6-371.6-2.5z" fill="#FFFFFF" p-id="167707"></path><path d="M401.2 307.9a49.9 61.1 0 1 0 99.8 0 49.9 61.1 0 1 0-99.8 0Z" fill="#FFFFFF" p-id="167708"></path><path d="M644.4 308.3c0 33.8-22.3 61.1-49.9 61.1-27.6 0-49.9-27.4-49.9-61.1s22.4-61.1 49.9-61.1c27.6-0.1 49.9 27.3 49.9 61.1z" fill="#FFFFFF" p-id="167709"></path><path d="M527.3 386.1c-69.5 0-130.2 16.2-163.9 40.5 8.4 19.9 33.9 35.4 58.9 49.8 30.2 17.4 79.8 29.1 104.8 29.1 23 0 80.1-15.5 110.9-35.6 21.7-14.1 44.5-26.6 52.8-43.5-33.7-24.2-94.2-40.3-163.5-40.3z" fill="#F4A418" p-id="167710"></path><path d="M493.4 308.3c0 21.4-14 38.7-31.2 38.7S431 329.7 431 308.3c0-21.4 14-38.7 31.2-38.7s31.2 17.3 31.2 38.7z" fill="#040000" p-id="167711"></path><path d="M481.7 299.5c0 8.6-5.9 15.6-13.1 15.6-7.2 0-13.1-7-13.1-15.6s5.9-15.6 13.1-15.6c7.2 0 13.1 6.9 13.1 15.6z" fill="#FFFFFF" p-id="167712"></path><path d="M570.1 318.3c-2.9 0-5.5-2.1-6-5.1-0.3-1.9-0.5-3.8-0.5-5.8 0-16.3 11.6-29.6 25.8-29.6s25.8 13.3 25.8 29.6c0 1.4-0.1 2.8-0.2 4.2-0.4 3.4-3.5 5.7-6.9 5.3-3.4-0.4-5.8-3.5-5.3-6.9 0.1-0.9 0.2-1.8 0.2-2.7 0-9.6-6.1-17.4-13.5-17.4-7.5 0-13.5 7.8-13.5 17.4 0 1.2 0.1 2.5 0.3 3.7 0.6 3.3-1.6 6.5-5 7.1-0.5 0.2-0.9 0.2-1.2 0.2z" fill="#040000" p-id="167713"></path><path d="M388 416.5s38.4 32.9 73.7 42.7c41.3 11.5 100.9 6.1 123.6-1.5 41.1-13.8 84.8-43.5 84.8-43.5s-38.6 29.5-78.4 55.6c-20 13.1-41.9 31.7-88 21.7-11.7-2.5-32.6-16.7-39.3-20.6-34.2-19.8-68.4-46.5-76.4-54.4z" fill="#893322" p-id="167714"></path><path d="M430.4 591.6v111.3s-46 21.8-87.2-17.5c-15.8-15.1 8.5-122.2 8.5-122.2l78.7 28.4z" fill="#D32D19" p-id="167715"></path><path d="M345.4 570.1l84.3 67.5s1.4-42.2-0.4-54.2c-1.8-12-83.9-19.3-83.9-19.3" fill="#B72C22" p-id="167716"></path><path d="M527.3 610.6c-106.1 0-206.2-37.7-285.2-106.9-1.9-1.7-1.3-7-1.3-7s3-11.8 8.1-39.9c3.5-19.7 11.5-43.8 15.8-43.8 2.7 2.2 6 5.2 9.2 8.2 5.8 5.4 11.4 11 13.3 12.7 65.4 61.2 150.2 94.8 240.3 94.8 89.7 0 174.7-33.5 240.1-94.6 0.5-0.5 14.7 17.9 21.1 36.6 6.8 20 13.7 41.8 7.4 46.8-76.4 60.3-170.3 93.1-268.8 93.1z" fill="#D32D19" p-id="167717"></path></svg>
