<?xml version="1.0" encoding="UTF-8"?>
<svg id="_图层_1" xmlns="http://www.w3.org/2000/svg" version="1.1" viewBox="0 0 64 64" width="48" height="48">
  <!-- Generator: Adobe Illustrator 29.0.1, SVG Export Plug-In . SVG Version: 2.1.0 Build 192)  -->
  <defs>
    <style>
      .st0 {
        fill: #4f4f4f;
      }

      .st1, .st2, .st3, .st4, .st5 {
        display: none;
      }

      .st1, .st2, .st6, .st7, .st8, .st5, .st9 {
        isolation: isolate;
      }

      .st1, .st6, .st8, .st5 {
        opacity: .2;
      }

      .st2, .st10, .st8, .st5, .st9 {
        fill: #fff;
      }

      .st2, .st9 {
        opacity: .1;
      }

      .st11 {
        fill: #3f3f3f;
      }

      .st12 {
        fill: none;
        stroke: #7c7c7c;
        stroke-linecap: round;
        stroke-width: 4.2px;
      }

      .st13 {
        fill: #e631a1;
      }

      .st14 {
        fill: #f3af3f;
      }

      .st15 {
        fill: #84c22e;
      }

      .st16 {
        fill: #b3e5fc;
      }

      .st3 {
        fill: #950000;
      }

      .st17 {
        fill: #4c6378;
      }

      .st18 {
        fill: #ffd517;
      }

      .st7 {
        opacity: .5;
      }

      .st19 {
        fill: #2297fd;
      }
    </style>
  </defs>
  <path class="st10" d="M50.4,64H13.8c-7.6,0-13.8-6.2-13.8-13.7V13.7C0,6.2,6.2,0,13.7,0h36.6c7.5,0,13.7,6.2,13.7,13.7v36.6c0,7.5-6.2,13.7-13.7,13.7h.1Z"/>
  <g class="st4">
    <path class="st1" d="M3.2,1.1h57.6c1.8,0,3.2,1.4,3.2,3.2v57.6c0,1.8-1.4,3.2-3.2,3.2H3.2c-1.8,0-3.2-1.4-3.2-3.2V4.3C0,2.6,1.4,1.1,3.2,1.1Z"/>
    <path class="st3" d="M3.2,0h57.6c1.8,0,3.2,1.4,3.2,3.2v57.6c0,1.8-1.4,3.2-3.2,3.2H3.2c-1.8,0-3.2-1.4-3.2-3.2V3.2C0,1.4,1.4,0,3.2,0Z"/>
    <path class="st6" d="M25.8,10.3l-20.4.6,20.4.6v-1.1ZM28,10.3v1.1c1.4,0,2.4.3,3.1,1,.7.7,1.5,1.9,2.3,3.8l7.7,17.6-8.7,17.2c-.7,1.5-1.4,2.4-2.1,3-.7.6-1.5.9-2.4.9v1.1h9.4v-1.1c-2,0-3-.7-3-2.1s.3-1.7,1-2.8l7-13.6,6.1,13.6c.6,1.5.9,2.5.9,3.1s-.2,1.1-.7,1.4c-.5.3-1.3.4-2.4.4v1.1h12.4v-1.1c-.9,0-1.7-.4-2.4-1-.7-.7-1.5-2-2.3-3.8l-8.7-19.5,6.9-13.4c1.4-2.6,2.3-4.3,3-4.9.7-.6,1.7-.9,3.1-.9v-1.1h-10.4v1.1c1.1,0,2,.2,2.4.5.4.3.7.8.7,1.6s-.2,1.3-.6,2.5l-6.3,12.1-5.3-12.1c-.4-.9-.6-1.7-.6-2.4,0-1.4,1-2.1,3.1-2.1v-1.1h-13.3ZM25.8,13.1l-20.4.5,24.2.7h0s0,0,0,0h0s0,0,0,0h0s0,0,0,0h0s-.1,0-.1,0h-.1s0,0,0,0h-.1s-.1,0-.1,0h-.1s-.1,0-.1,0h-2.6s0-.8,0-.8ZM30.6,15.7l-25.2.7,25.9.7h0c0-.1-.1-.4-.1-.4v-.3c-.1,0-.3-.3-.3-.3v-.3c-.1,0-.2-.2-.2-.2ZM31.8,18.5l-26.5.7,27.1.7-.7-1.5ZM33,21.3l-27.7.7,28.3.8-.7-1.5ZM34.3,24l-28.9.8,29.6.8-.7-1.6ZM35.5,26.8l-30.1.8,30.8.8-.7-1.7ZM36.7,29.5l-31.3.8,32.1.9-.8-1.7ZM37.9,32.3l-32.5.9,33.1.9v-.2c.1,0-.6-1.5-.6-1.5ZM38,35l-32.6.9,31.7.9.9-1.8ZM36.5,37.9l-31.2.8,30.3.8.8-1.7ZM35.1,40.7l-29.7.8,28.9.8.8-1.6ZM33.7,43.5l-28.3.8,27.5.7.8-1.5ZM32.2,46.3l-26.9.7,26.2.7.7-1.4ZM30.8,49.2l-25.5.7,24.8.7v-.2c0,0,.2-.2.2-.2v-.2c.1,0,.5-.7.5-.7ZM29.1,52l-23.8.7,20.4.5v-.7h2.3s0,0,0,0h.1s0,0,0,0h.1s0,0,0,0h0s0,0,0,0h0s0,0,0,0h0s0,0,0,0h0c0,0,0-.1,0-.1h0c0,0,0-.1,0-.1h0ZM25.8,54.9l-20.4.6,20.4.6v-1.1Z"/>
    <path class="st10" d="M25.8,9.1l-20.4.6,20.4.6v-1.1ZM28,9.1v1.1c1.4,0,2.4.3,3.1,1,.7.7,1.5,1.9,2.3,3.8l7.7,17.6-8.7,17.2c-.7,1.5-1.4,2.4-2.1,3-.7.6-1.5.9-2.4.9v1.1h9.4v-1.1c-2,0-3-.7-3-2.1s.3-1.7,1-2.8l7-13.6,6.1,13.6c.6,1.5.9,2.5.9,3.1s-.2,1.1-.7,1.4c-.5.3-1.3.4-2.4.4v1.1h12.4v-1.1c-.9,0-1.7-.4-2.4-1-.7-.7-1.5-2-2.3-3.8l-8.7-19.5,6.9-13.4c1.4-2.6,2.3-4.3,3-4.9.7-.6,1.7-.9,3.1-.9v-1.1h-10.4v1.1c1.1,0,2,.2,2.4.5.4.3.7.8.7,1.6s-.2,1.3-.6,2.5l-6.3,12.1-5.3-12.1c-.4-.9-.6-1.7-.6-2.4,0-1.4,1-2.1,3.1-2.1v-1.1h-13.3ZM25.8,12l-20.4.5,24.2.7h0s0,0,0,0h0s0,0,0,0h0s0,0,0,0h0s-.1,0-.1,0h-.1s0,0,0,0h-.1s-.1,0-.1,0h-.1s-.1,0-.1,0h-2.6s0-.8,0-.8ZM30.6,14.6l-25.2.7,25.9.7h0c0-.1-.1-.4-.1-.4v-.3c-.1,0-.3-.3-.3-.3v-.3c-.1,0-.2-.2-.2-.2ZM31.8,17.3l-26.5.7,27.1.7-.7-1.5ZM33,20.1l-27.7.7,28.3.8-.7-1.5ZM34.3,22.9l-28.9.8,29.6.8-.7-1.6ZM35.5,25.6l-30.1.8,30.8.8-.7-1.7ZM36.7,28.4l-31.3.8,32.1.9-.8-1.7ZM37.9,31.1l-32.5.9,33.1.9v-.2c.1,0-.6-1.5-.6-1.5ZM38,33.9l-32.6.9,31.7.9.9-1.8ZM36.5,36.7l-31.2.8,30.3.8.8-1.7ZM35.1,39.5l-29.7.8,28.9.8.8-1.6ZM33.7,42.4l-28.3.8,27.5.7.8-1.5ZM32.2,45.2l-26.9.7,26.2.7.7-1.4ZM30.8,48l-25.5.7,24.8.7v-.2c0,0,.2-.2.2-.2v-.2c.1,0,.5-.7.5-.7ZM29.1,50.9l-23.8.7,20.4.5v-.7h2.3s0,0,0,0h.1s0,0,0,0h.1s0,0,0,0h0s0,0,0,0h0s0,0,0,0h0s0,0,0,0h0c0,0,0-.1,0-.1h0c0,0,0-.1,0-.1h0ZM25.8,53.7l-20.4.6,20.4.6v-1.1Z"/>
    <path class="st5" d="M3.2,0C1.4,0,0,1.4,0,3.2v1.1C0,2.6,1.4,1.1,3.2,1.1h57.6c1.8,0,3.2,1.4,3.2,3.2v-1.1c0-1.8-1.4-3.2-3.2-3.2H3.2Z"/>
  </g>
  <g class="st4">
    <path class="st11" d="M61.5,43.7v-23.7c0-9.8-8-17.7-17.8-17.7h-23.7C10.2,2.3,2.3,10.2,2.3,20v23.7c0,9.8,8,17.7,17.8,17.7h23.7c9.8,0,17.8-7.9,17.8-17.7Z"/>
    <path class="st1" d="M19.1,1.1C8.5,1.1,0,9.7,0,20.2v25.5c0,10.6,8.5,19.1,19.1,19.1h25.5c10.6,0,19.1-8.5,19.1-19.1v-25.5c0-10.6-8.5-19.1-19.1-19.1h-25.5ZM19.1,10.2h25.5c5.7,0,10,4.3,10,10v25.5c0,5.7-4.3,10-10,10h-25.5c-5.7,0-10-4.3-10-10v-25.5c0-5.7,4.3-10,10-10Z"/>
    <path class="st9" d="M19.1,0C8.5,0,0,8.5,0,19.1v1.6C0,10.1,8.5,1.6,19.1,1.6h25.5c10.6,0,19.1,8.5,19.1,19.1v-1.6C63.8,8.5,55.3,0,44.7,0h-25.5Z"/>
    <ellipse class="st18" cx="13.3" cy="50.4" rx="7.2" ry="7.2"/>
    <ellipse class="st6" cx="45.6" cy="28.4" rx="6.8" ry="6.8"/>
    <ellipse class="st18" cx="45.6" cy="27.3" rx="6.8" ry="6.8"/>
    <path class="st12" d="M18.5,46.5l8.3-6.2"/>
    <path class="st12" d="M35.8,34l6.9-4.6"/>
    <ellipse class="st6" cx="31.9" cy="37.5" rx="9.1" ry="9.1"/>
    <ellipse class="st16" cx="31.9" cy="36.4" rx="9.1" ry="9.1"/>
    <path class="st12" d="M21.6,12.5l6.2,15.4"/>
    <path class="st17" d="M19.1,0C8.5,0,0,8.5,0,19.1v25.5c0,10.6,8.5,19.1,19.1,19.1h25.5c10.6,0,19.1-8.5,19.1-19.1v-25.5C63.8,8.5,55.3,0,44.7,0h-25.5ZM19.1,9.1h25.5c5.7,0,10,4.3,10,10v25.5c0,5.7-4.3,10-10,10h-25.5c-5.7,0-10-4.3-10-10v-25.5c0-5.7,4.3-10,10-10Z"/>
    <path class="st2" d="M19.1,0C8.5,0,0,8.5,0,19.1v1.1C0,9.7,8.5,1.1,19.1,1.1h25.5c10.6,0,19.1,8.5,19.1,19.1v-1.1C63.8,8.5,55.3,0,44.7,0h-25.5ZM9.1,44.6v1.1c0,5.7,4.3,10,10,10h25.5c5.7,0,10-4.3,10-10v-1.1c0,5.7-4.3,10-10,10h-25.5c-5.7,0-10-4.3-10-10Z"/>
    <ellipse class="st6" cx="21.6" cy="13.6" rx="8" ry="8"/>
    <ellipse class="st18" cx="21.6" cy="12.5" rx="8" ry="8"/>
    <ellipse class="st6" cx="49" cy="52.3" rx="8" ry="8"/>
    <ellipse class="st18" cx="49" cy="51.2" rx="8" ry="8"/>
    <path class="st8" d="M21.6,4.5c-4.4,0-8,3.6-8,8,0,.2,0,.3,0,.5.3-4.1,3.8-7.3,7.9-7.3,4.2,0,7.6,3.2,7.9,7.4,0-.2,0-.4,0-.6,0-4.4-3.6-8-8-8ZM45.6,20.5c-3.8,0-6.8,3.1-6.8,6.8,0,.2,0,.4,0,.6.3-3.5,3.3-6.2,6.8-6.2,3.6,0,6.5,2.7,6.8,6.3,0-.2,0-.4,0-.6,0-3.8-3.1-6.8-6.8-6.8ZM49,43.2c-4.4,0-8,3.6-8,8,0,.2,0,.3,0,.5.3-4.1,3.8-7.3,7.9-7.3,4.2,0,7.6,3.2,7.9,7.4,0-.2,0-.4,0-.6,0-4.4-3.6-8-8-8Z"/>
    <path class="st12" d="M37.7,41.9l5.6,4.6"/>
  </g>
  <g class="st4">
    <path class="st19" d="M10.8,21.9h29.1c1.3,0,2.4,1.1,2.4,2.4v28.4c0,1.3-1.1,2.4-2.4,2.4H10.8c-1.3,0-2.4-1.1-2.4-2.4v-28.4c0-1.3,1.1-2.4,2.4-2.4Z"/>
    <path class="st6" d="M28.3,46.3h-7.5l-1.2,3.2h-4.8l6.9-18.9h5.7l6.9,18.9h-4.8l-1.2-3.2h0ZM22,42.4h5.1l-2.5-7.4-2.5,7.4Z"/>
    <path class="st10" d="M28.3,45.5h-7.5l-1.2,3.2h-4.8l6.9-18.9h5.7l6.9,18.9h-4.8l-1.2-3.2h0ZM22,41.6h5.1l-2.5-7.4-2.5,7.4Z"/>
    <path class="st8" d="M10.8,21.9c-1.3,0-2.4,1.1-2.4,2.4v.8c0-1.3,1.1-2.4,2.4-2.4h29.1c1.3,0,2.4,1.1,2.4,2.4v-.8c0-1.3-1.1-2.4-2.4-2.4H10.8Z"/>
    <path class="st14" d="M25.4,7.7h29.1c1.3,0,2.4,1.1,2.4,2.4v28.4c0,1.3-1.1,2.4-2.4,2.4h-29.1c-1.3,0-2.4-1.1-2.4-2.4V10c0-1.3,1.1-2.4,2.4-2.4Z"/>
    <path class="st6" d="M32.6,16.3v18.9h8.4c2.6,0,4.6-.4,5.8-1.3,1.3-.9,1.9-2.3,1.9-4.1s-.3-2.2-.9-3c-.6-.8-1.4-1.5-2.5-1.8.9-.3,1.5-.7,1.9-1.3.4-.7.7-1.4.7-2.4,0-1.8-.6-3-1.8-3.8-1.2-.8-3.2-1.2-5.9-1.2h-7.6ZM37.5,19.5h2.6c.7,0,1.3.2,1.7.5.4.3.6.8.6,1.5s-.2,1.1-.6,1.5c-.4.3-.9.5-1.7.5h-2.6v-3.9ZM37.5,27.4h2.8c1,0,1.7.2,2.2.6.5.4.7,1,.7,1.8s-.2,1.4-.7,1.8c-.5.4-1.2.6-2.1.6h-2.8v-4.7Z"/>
    <path class="st10" d="M32.6,15.5v18.9h8.4c2.6,0,4.6-.4,5.8-1.3,1.3-.9,1.9-2.3,1.9-4.1s-.3-2.2-.9-3c-.6-.8-1.4-1.5-2.5-1.8.9-.3,1.5-.7,1.9-1.3.4-.7.7-1.4.7-2.4,0-1.8-.6-3-1.8-3.8-1.2-.8-3.2-1.2-5.9-1.2h-7.6ZM37.5,18.7h2.6c.7,0,1.3.2,1.7.5.4.3.6.8.6,1.5s-.2,1.1-.6,1.5c-.4.3-.9.5-1.7.5h-2.6v-3.9ZM37.5,26.6h2.8c1,0,1.7.2,2.2.6.5.4.7,1,.7,1.8s-.2,1.4-.7,1.8c-.5.4-1.2.6-2.1.6h-2.8v-4.7Z"/>
    <path class="st8" d="M25.4,7.7c-1.3,0-2.4,1.1-2.4,2.4v.8c0-1.3,1.1-2.4,2.4-2.4h29.1c1.3,0,2.4,1.1,2.4,2.4v-.8c0-1.3-1.1-2.4-2.4-2.4h-29.1Z"/>
    <path class="st6" d="M8.4,52.6v.8c0,1.3,1.1,2.4,2.4,2.4h29.1c1.3,0,2.4-1.1,2.4-2.4v-.8c0,1.3-1.1,2.4-2.4,2.4H10.8c-1.3,0-2.4-1.1-2.4-2.4Z"/>
    <path class="st7" d="M23,38.4v.8c0,1.3,1.1,2.4,2.4,2.4h29.1c1.3,0,2.4-1.1,2.4-2.4v-.8c0,1.3-1.1,2.4-2.4,2.4h-29.1c-1.3,0-2.4-1.1-2.4-2.4Z"/>
  </g>
  <g class="st4">
    <path class="st1" d="M4.8,1.1h54.4c2.7,0,4.8,2.1,4.8,4.8v54.3c0,2.6-2.1,4.8-4.8,4.8H4.8c-2.7,0-4.8-2.1-4.8-4.8V5.9C0,3.3,2.1,1.1,4.8,1.1Z"/>
    <path class="st13" d="M49.5,0h-17.5v63.9h17.8c7.9,0,14.2-6.4,14.2-14.2V14.5c0-8-6.5-14.5-14.5-14.5Z"/>
    <path class="st0" d="M14.7,0h17.3v63.9H14.1c-7.8,0-14.1-6.3-14.1-14.1V14.7C0,6.6,6.6,0,14.7,0Z"/>
    <path class="st9" d="M32,31.9v31.9H14.3c-7.9,0-14.3-6.4-14.3-14.3v-17.6h32Z"/>
    <path class="st6" d="M15.4,9.1c-.8,0-1.9.3-3.9,1-.2,0-.2,0-.4.1v.5c1.5-.4,1.7-.4,2-.4.8,0,1,.3,1.5,2.4l1,4.3-2.8,4.1c-.7,1.1-1.3,1.7-1.7,1.7s-.5-.1-.9-.3c-.4-.2-.8-.4-1.1-.4-.7,0-1.1.5-1.1,1.2s.6,1.5,1.7,1.5,1.5-.3,3.1-2.4c.9-1.2,1.7-2.2,3-4.2l1,4.2c.4,1.8.9,2.4,2,2.4s2.2-.8,4.1-4l-.5-.3c-.3.3-.4.5-.7,1-.8,1.1-1.2,1.4-1.6,1.4s-.8-.5-1-1.4c-.1-.4-.1-.5-.1-.6-.8-3.6-1.2-5.2-1.2-5.8,1.5-2.8,2.7-4.3,3.3-4.3s.5.1.8.3c.4.2.6.3.9.3.7,0,1.1-.5,1.1-1.3s-.6-1.3-1.4-1.3c-1.5,0-2.7,1.3-5.1,5.1l-.4-1.9c-.5-2.4-.8-3.1-1.8-3.1ZM40,26.2v3.4h16v-3.4h-16ZM40,36.5v3.4h16v-3.4h-16ZM16.1,41.1c-2.4,0-4.3.7-5.8,2-1.5,1.3-2.2,2.9-2.2,4.8s.5,3.1,1.6,4.2c1.1,1.1,2.2,1.8,3.5,2v.8s-2.8,0-2.8,0c-.7,0-1.2-.1-1.5-.3-.3-.2-.5-.6-.5-1.1h-.5v3.6h6.3l-.2-3.5c-1.2-.4-2-1.2-2.5-2.2-.4-1-.6-2.2-.6-3.5s.5-3.2,1.4-4.3c1-1.1,2.2-1.7,3.6-1.7s2.6.5,3.6,1.6c1,1.1,1.5,2.6,1.5,4.6,0,3-1,4.9-3.1,5.5l-.3,3.5h6.3v-3.6h-.5c0,.4-.1.8-.4,1-.2.3-.7.4-1.5.4h-2.9v-.8c1.7-.4,2.9-1.2,3.8-2.3.9-1.1,1.4-2.5,1.4-4.1s-.7-3.6-2.2-4.8c-1.5-1.3-3.3-1.9-5.7-1.9Z"/>
    <path class="st10" d="M15.4,8c-.8,0-1.9.3-3.9,1-.2,0-.2,0-.4.1v.5c1.5-.4,1.7-.4,2-.4.8,0,1,.3,1.5,2.4l1,4.3-2.8,4.1c-.7,1.1-1.3,1.7-1.7,1.7s-.5-.1-.9-.3c-.4-.2-.8-.4-1.1-.4-.7,0-1.1.5-1.1,1.2s.6,1.5,1.7,1.5,1.5-.3,3.1-2.4c.9-1.2,1.7-2.2,3-4.2l1,4.2c.4,1.8.9,2.4,2,2.4s2.2-.8,4.1-4l-.5-.3c-.3.3-.4.5-.7,1-.8,1.1-1.2,1.4-1.6,1.4s-.8-.5-1-1.4c-.1-.4-.1-.5-.1-.6-.8-3.6-1.2-5.2-1.2-5.8,1.5-2.8,2.7-4.3,3.3-4.3s.5.1.8.3c.4.2.6.3.9.3.7,0,1.1-.5,1.1-1.3s-.6-1.3-1.4-1.3c-1.5,0-2.7,1.3-5.1,5.1l-.4-1.9c-.5-2.4-.8-3.1-1.8-3.1ZM40,25.1v3.4h16v-3.4h-16ZM40,35.4v3.4h16v-3.4h-16ZM16.1,39.9c-2.4,0-4.3.7-5.8,2-1.5,1.3-2.2,2.9-2.2,4.8s.5,3.1,1.6,4.2c1.1,1.1,2.2,1.8,3.5,2v.8s-2.8,0-2.8,0c-.7,0-1.2-.1-1.5-.3-.3-.2-.5-.6-.5-1.1h-.5v3.6h6.3l-.2-3.5c-1.2-.4-2-1.2-2.5-2.2-.4-1-.6-2.2-.6-3.5s.5-3.2,1.4-4.3c1-1.1,2.2-1.7,3.6-1.7s2.6.5,3.6,1.6c1,1.1,1.5,2.6,1.5,4.6,0,3-1,4.9-3.1,5.5l-.3,3.5h6.3v-3.6h-.5c0,.4-.1.8-.4,1-.2.3-.7.4-1.5.4h-2.9v-.8c1.7-.4,2.9-1.2,3.8-2.3.9-1.1,1.4-2.5,1.4-4.1s-.7-3.6-2.2-4.8c-1.5-1.3-3.3-1.9-5.7-1.9Z"/>
    <path class="st2" d="M4.8,0C2.1,0,0,2.1,0,4.8v1.1C0,3.3,2.1,1.1,4.8,1.1h54.4c2.7,0,4.8,2.1,4.8,4.8v-1.1c0-2.7-2.1-4.8-4.8-4.8H4.8Z"/>
  </g>
  <g>
    <path class="st6" d="M9.2,1.7C7.4,1.7,0,12,0,13.7v15.5h28.7V1.1l-19.5.6ZM35.3,1.1v28.2h28.7v-14.7c0-1.7-9.9-13.4-11.7-13.4h-17ZM0,35.7v17.5c-.1,1.7,2.7,10.5,11.6,10.6h17.1v-28.2H0ZM35.3,35.7v28.2l17.2.2c9.5,0,11.2-9.9,11.2-11.7l.3-16.7h-28.7Z"/>
    <path class="st15" d="M12.7,0C6.6,0,.1,7.3,0,12.1v16h28.7V0H12.7ZM35.3,0v28.2h28.7v-14.5c-.2-5.2-5.2-13.8-12.7-13.6h-16ZM0,34.7v16.1c.1,6,5.7,12,9.3,12.1h19.4v-28.2H0ZM35.3,34.7v28.2l20.8-.4c3.1,0,7.7-6.7,7.9-11.6v-16.1h-28.7Z"/>
    <path class="st5" d="M3.2,0C1.4,0,0,1.4,0,3.1v1.1C0,2.5,1.4,1.1,3.2,1.1h25.5V0H3.2ZM35.3,0v1.1h25.5c1.8,0,3.2,1.4,3.2,3.1v-1.1c0-1.7-1.4-3.1-3.2-3.1h-25.5ZM0,34.7v1.1h28.7v-1.1H0ZM35.3,34.7v1.1h28.7v-1.1h-28.7Z"/>
    <path class="st6" d="M16.3,14.1c-1.7,0-3.1,1.4-3.1,3.1v26.3c0,1.7,1.4,3.1,3.1,3.1h31.3c1.7,0,3.1-1.4,3.1-3.1v-21.9c0-1.7-1.4-3.1-3.1-3.1h-18.9v-1.2c0-1.7-1.4-3.1-3.1-3.1h-9.3Z"/>
    <path class="st10" d="M16.4,17.3h31.3c1.7,0,3.1,1.4,3.1,3.1v21.9c0,1.7-1.4,3.1-3.1,3.1h-31.3c-1.7,0-3.1-1.4-3.1-3.1v-21.9c0-1.7,1.4-3.1,3.1-3.1Z"/>
    <path class="st10" d="M16.3,13h9.3c1.7,0,3.1,1.4,3.1,3.1v4.6c0,1.7-1.4,3.1-3.1,3.1h-9.3c-1.7,0-3.1-1.4-3.1-3.1v-4.6c0-1.7,1.4-3.1,3.1-3.1Z"/>
  </g>
</svg>