<?xml version="1.0" encoding="UTF-8"?>
<svg id="_图层_1" xmlns="http://www.w3.org/2000/svg" version="1.1" viewBox="0 0 64 64" width="48" height="48">
  <!-- Generator: Adobe Illustrator 29.0.1, SVG Export Plug-In . SVG Version: 2.1.0 Build 192)  -->
  <defs>
    <style>
      .st0 {
        fill: #0068b6;
      }

      .st1 {
        fill: red;
      }

      .st1, .st2 {
        display: none;
      }

      .st3 {
        fill: #ef7c00;
      }

      .st4 {
        fill: #fff;
      }

      .st5 {
        fill: #6ccbff;
      }

      .st6 {
        fill: #87c51d;
      }

      .st7 {
        fill: #e74a79;
      }

      .st8 {
        fill: #ffd766;
      }

      .st9 {
        fill: #ff5562;
      }

      .st10 {
        fill: #5acc9b;
      }
    </style>
  </defs>
  <path class="st1" d="M50.4,64H13.8c-7.6,0-13.8-6.2-13.8-13.7V13.7C0,6.2,6.2,0,13.7,0h36.6c7.5,0,13.7,6.2,13.7,13.7v36.6c0,7.5-6.2,13.7-13.7,13.7h.1Z"/>
  <g class="st2">
    <path class="st7" d="M54.9,21.7v-4.3c0-2-1.7-3.7-3.7-3.7H10.4c-2.2,0-3.6,1.7-3.7,3.7v28c0,2,1.7,3.7,3.7,3.7h40.7c2,0,3.7-1.7,3.7-3.7v-14c0-1.1-1-1.9-1.9-1.9s-1.9,1-1.9,1.9v13.8H10.9v-27.2h40.1v2.5l-23.9,9-9.4-5.9c-1-.6-2.2-.4-2.8.6-.6,1-.4,2.2.6,2.8l10.3,6.4c.4.1.7.4,1.1.4s.5,0,.7-.1l25.7-9.7c-.1,0,1.6-.7,1.6-2Z"/>
    <path class="st6" d="M34.8,41.4v-7l-2.5.5v1.3h1.2c0-.1,0,5.2,0,5.2h1.3ZM39.2,39.8c-.1.1-.2.2-.4.2-.1.1-.4.1-.5.1-.4.1-.8.1-1.2.2-.4,0-.7,0-1.1.1h-.4v1.1h3.6c.4,0,.7-.2,1-.5.5-.6.6-1.4.5-2.3,0-.6-.2-1-.6-1.3,0,0,.5-.5.5-.6.1-.4.1-.7.1-1.1s-.1-.8-.2-1.3c0,0,0-.1-.1-.1h-.1c-.5-.6-1.2-.4-2-.4h-1.7v1.6h2.4c.1,0,.1.1.1.1,0,.5.2,1.2-.5,1.2h-1.7v1.3h.8c.4,0,1,0,1.2.1.1.1.2.2.2.4,0,0,0,1.1,0,1.1ZM45.7,38.9c0,.4,0,.6-.2,1-.2.2-.5.4-.7.5-.6.2-1.2.2-1.7.2h-.6v.7c0,.1,0,.2.1.2h3.6c.5-.1.8-.4,1-.8.2-.7.1-1.4.1-2.2v-2.9c0-.2-.1-.5-.2-.7,0-.1-.1-.2-.1-.2-.2-.4-.7-.7-1.1-.7h-3c-.4,0-.7.2-.8.5-.2.2-.5.6-.5,1.1v1.3c0,.2.1.6.2.7.2.4.7.7,1.2.7h2.9s-.1.6-.1.6ZM45.6,37.1c0,.1-.1.1-.4.1h-2c-.4-.1-.5-.2-.5-.6v-.4c0-.5.5-.4.7-.4h1.6c.1,0,.4,0,.4.1.1.1.1.4.1.5.1.2.1.4.1.6Z"/>
  </g>
  <g class="st2">
    <path class="st3" d="M45.7,17.4c-.2,0-.3-.1-.4-.4-.3-.9-.7-1.7-1.3-2.4-1.5-2-3.6-2.8-5.9-2.6-.1,0-.2,0-.3-.1-2.3-3-5.2-4.2-8.7-3.8-1.5.1-3,.7-4.3,1.7-1.6,1.2-3,2.8-3.9,4.9,0,.1-.1.2-.3.2-.6.1-1.2.1-1.8.2-4.9,1.2-8.2,6.9-7,12.7.9,5,4.8,8.7,9.2,8.7h15.8c.1,0,.2-.1.1-.2h-.1c-.9-1.2-1.6-2.4-2.2-3.7-.1-.4-.3-.5-.7-.5h-12.8c-.4,0-.9,0-1.3-.1-2.9-.7-4.9-3.9-4.2-7.6.8-4,4.8-6,7.9-4,.1.1.2.1.3.1.1-3.9,1.7-6.4,4.9-7.6,3.7-.7,6.1.9,7.7,4.7,1.2-1.7,3.1-1.9,4.4-1.1.7.5,1.2,1.2,1.5,2,.4,1.1.3,2.1-.1,3.2.1,0,.2-.1.3-.1.9-.5,1.8-.6,2.9-.5,2.9.6,4.6,3.8,4,7-.6,3-3.3,4.9-5.8,4.3-2.2-.6-3.8-2.7-4-5.3q0-.2.2-.2h2.1c.1,0,.2-.1.2-.1,0,0,0-.2-.1-.2l-1-1.2c-1.1-1.2-2.1-2.4-3.3-3.6-.3-.4-.5-.4-.8,0-1.4,1.5-2.9,3.2-4.3,4.7-.1.1-.1.2-.1.4.1,0,.2.1.3.1h2.3v.4c.1.7.1,1.5.2,2.3.7,4.3,3.8,7.6,7.4,8.1.2,0,.5.1.7.1h.7c.1,0,.2,0,.2-.1.4,0,.7-.1,1.1-.1,3.7-.8,6.8-4.4,7-9.4.1-1.8-.1-3.4-.8-5.1-1-3.1-3.1-5-5.9-5.7Z"/>
    <path class="st0" d="M34.4,49.3c.3.6.7,1,1.3,1.1.7.2,1.3.2,2,0v-.7c-.4,0-.9,0-1.3,0s-.7-.3-1-.7h2.2c.1,0,.2,0,.1-.2v-.4c0-.2,0-.2-.1-.2h-2.2c0-.3,0-.4.2-.4h1.8c.4,0,.4,0,.4-.4s0-.2-.2-.2h-2c0,0-.1,0-.1,0v-.4s.1,0,.2,0h1.9c0,0,.1,0,.1-.2v-2.6c0-.2,0-.2-.2-.2h-9.8c0,0,0,.2,0,.2v2.3c0,.2,0,.4,0,.5s.3,0,.4,0h1.9c0,0,.1,0,.1,0v.4h-2.6v.4q0,.2.2.2h2.2c0,0,.1,0,.1.2s0,.2-.1.2h-2.5v.5c0,.2,0,.2.1.2h2c-.1.3-.5.6-.8.7-.3,0-.5,0-.8,0q-.4,0-.4.5c0,0,0,.2.1.2h1.4c.6,0,1.1-.3,1.5-.9,0-.2.1-.2.2-.4,0,0,.1-.2.2-.2h2.9c.2,0,.3.2.4.2h0ZM33.4,44.6h3.4v.4h-3.4c-.1,0-.2,0-.2-.2,0-.2,0-.2.2-.2ZM29,44.6h3.4v.4h-3.4v-.4ZM29,46v-.3h3.4v.3s-3.4,0-3.4,0ZM31.5,46.9h2.4q.2,0,.2.2c0,.2,0,.2-.2.2h-2.5c-.1,0-.2,0-.1-.2,0-.3-.1-.3.2-.3ZM34.1,48.4h-2.8v-.2c0-.2,0-.2.2-.2h2.5q.2,0,.1.4ZM33.2,46q0-.3.2-.3h3.3v.4c-1.2,0-2.3,0-3.5,0h0ZM26.6,50.6v-.8c0-.2,0-.2-.1-.2-1-.2-1.9-.7-2.8-1.4-.7-.7-1.3-1.4-1.5-2.4,0-.2,0-.4,0-.7h4.3c.1,0,.2,0,.1-.2v-.8c0-.2,0-.2-.2-.2h-4.1q-.2,0-.2-.2v-2h4.2v-1.3h-9.5q-.4,0-.4.4v.8h4.1v2q0,.2-.2.2h-4v1.3h4.2c0,.2,0,.2,0,.3-.2,1.6-1,2.7-2.4,3.4-.5.2-1.1.5-1.6.7,0,0-.1,0-.1.2v.9c2.2-.3,3.9-1.6,5-3.8.2.3.4.6.5.8.4.6.7,1.1,1.3,1.5.7.6,1.4.9,2.2,1.1.7.2,1,.2,1.4.4ZM47.9,50.6c.2,0,.4,0,.7-.2.2,0,.4-.3.3-.6,0-.3,0-.6-.1-.9-.1-.9-.4-1.7-.6-2.5,0,0,0-.2,0-.2h-1v.2c.1.8.4,1.7.5,2.5,0,.2,0,.3-.2.4h-7.3c0-.3,0-.7.1-1.1.1-1.1.4-2.2.5-3.4,0-.2,0-.2.3-.2h7.9v-1.2h-10c-.1,0-.1,0-.1.2v.9c0,.2,0,.2.2.2h.8v.2c-.1,1.1-.4,2.3-.5,3.4,0,.4,0,.8,0,1.2s.2.9.7,1c.2,0,.5,0,.7,0,2.5-.2,4.9-.2,7.3-.2h0ZM20.8,52.6c-1.2-.6-2.4-.6-3.6.2-.8.5-1.3,1.3-1.3,2.4s.5,2,1.5,2.6c.4.2,1,.3,1.4.3.8,0,1.6,0,2.2-.6.4-.2.7-.6.9-1.1-.3,0-.6,0-.9-.2,0,0,0,0-.1,0-.1.3-.4.6-.7.7-.5.2-1,.3-1.6.2-1-.2-1.5-.9-1.6-1.9,0-.2,0-.2.2-.2h4.6c.1,0,.1,0,.1-.2,0-.2,0-.3,0-.5,0-.8-.4-1.5-1.2-1.9h0ZM20.9,54.6h-3.4c-.1,0-.2,0-.1-.2.1-.8.7-1.2,1.3-1.5.6-.2,1.3-.2,1.8.2.4.2.7.7.7,1.2,0,.2,0,.2-.2.2ZM26.9,53.1c.2-.2.5-.2.8-.2.5,0,1,0,1.3.4.3.2.4.6.5,1,.3,0,.6,0,1-.2-.2-.8-.7-1.4-1.3-1.7-.7-.2-1.3-.2-2-.2-.4,0-.9.2-1.3.6-.7.7-1,1.6-1,2.7.1,1.1.7,1.9,1.6,2.3.6.2,1.2.2,1.7.2.6,0,1.2-.3,1.6-.8.2-.3.4-.7.5-1.1-.3,0-.6,0-.8-.2-.1,0-.1,0-.1.2-.2.7-.6,1.1-1.2,1.1-.3,0-.6,0-.9,0-.5,0-.8-.3-1.1-.8-.3-.7-.4-1.3-.3-2,.1-.5.4-1,.9-1.3h0ZM39.2,41.7h9.3c0,0,.1,0,.1-.2v-1.1h-9.7v.9c0,.3,0,.3.2.3ZM49.4,53v-.6c0,0,0-.2-.1-.2h-.4q-.1,0-.1.2v2c-.5-.6-1.2-.7-1.9-.7-1.5.2-2.1,2.1-1.3,3.4.5.8,1.4,1.1,2.3.8.4,0,.7-.3,1-.7h0v.2q0,.5.5.5c.1,0,.2,0,.2-.2-.1-1.5-.1-3.1-.1-4.7ZM48.7,55.9v.6c0,.6-.6,1.1-1.1,1.1h-.6c-.4,0-.7-.2-.8-.6-.2-.5-.3-1.1-.2-1.6.2-.9,1-1.3,1.8-1.1.5.2.9.7.9,1.3,0,0,0,.2,0,.2h0ZM33.2,41h2.4c.3,0,.4.2.5.6,0,.2,0,.2-.1.2h-2.4v.3h2.3c0,0,.1,0,.1,0,.1.2,0,.7-.3.7h-2.6v.3c0,.2,0,.2.2.2h3.7c.4,0,.8-.2.8-.9v-1.2c0-.4-.2-.7-.6-.7-.1,0-.2,0-.4,0h-3.5q-.4,0-.4.4c0,0,0,0,.2,0ZM37.7,54c-.8-.3-1.6-.3-2.4,0-1.3.7-1.3,2.6-.4,3.4.4.4,1,.6,1.6.6s.4,0,.6,0c0,0,.2,0,.3,0,.8-.2,1.4-1,1.4-2s-.3-1.6-1.1-2ZM38,56.4c-.1.8-.7,1.2-1.5,1.1-.5,0-1-.2-1.2-.8,0-.2-.1-.6-.1-.9,0-.2,0-.6.2-.8.2-.6.8-.8,1.3-.7.1,0,.3,0,.4,0,.5.2.8.6.9,1.2,0,.2,0,.6,0,.8ZM43.3,54c0,.7,0,1.3,0,2s-.4,1.1-1,1.4c-.6.2-1.2,0-1.3-.7,0-.2,0-.3,0-.5v-2.3h-.7v2.8c0,.3.1.7.4.9.5.7,1.6.8,2.3.2.2-.2.4-.4.5-.7v.9c0,0,0,.2,0,.2h.6v-4.3h-.7c.1,0,.1.2.1.2h0ZM27.7,42.8v.4c0,0,0,.2.1.2h3.8c.5,0,.8-.3.8-.8v-1.3c0-.5-.2-.7-.6-.8-.1,0-.2,0-.4,0h-3.8v.4c0,.2,0,.2.2.2h3c.4,0,.6.2.6.7v.7c0,.2,0,.2-.1.2h-3.5c0,0,0,0-.1,0h0ZM32.9,52.2h-.5q-.2,0-.2.2v5.4c0,.2,0,.2.1.2h.6c.1,0,.1,0,.1-.2v-5.4c0-.2,0-.2-.1-.2h0Z"/>
    <path class="st0" d="M31.4,42q0-.2-.1-.2h-3v.3h3c0,0,.1,0,.1-.2Z"/>
  </g>
  <g>
    <path class="st10" d="M50.8,64H14.1C7.8,63.9,0,58.9,0,49.9v-7.3h64v8.9c0,4.9-6.1,12.4-13.2,12.4Z"/>
    <path class="st5" d="M13.7,0h36.6c9.4,0,13.7,9.4,13.7,12.9v8.4H0v-8.6C.1,8.7,5,0,13.7,0Z"/>
    <path class="st8" d="M0,21.3h64v21.3H0v-21.3Z"/>
    <path class="st9" d="M21.3,0h21.3v64h-21.3V0Z"/>
    <path class="st4" d="M27.5,3.6h4.3v3.6h-4.3v-3.6ZM31.7,0h4.3v3.6h-4.3V0ZM31.7,7.1h4.3v3.6h-4.3v-3.6ZM27.5,10.7h4.3v3.6h-4.3v-3.6ZM31.7,14.2h4.3v3.6h-4.3v-3.6ZM27.5,17.8h4.3v3.6h-4.3v-3.6ZM31.7,21.3h4.3v3.6h-4.3v-3.6ZM27.5,24.9h4.3v3.6h-4.3v-3.6ZM31.7,28.4h4.3v3.6h-4.3v-3.6ZM27.5,32h4.3v3.6h-4.3v-3.6ZM31.7,35.5h4.3v3.6h-4.3v-3.6ZM27.5,39.1h4.3v3.6h-4.3v-3.6ZM31.7,42.7h4.3v3.6h-4.3v-3.6ZM27.5,46.2h4.3v3.6h-4.3v-3.6ZM31.7,49.8h4.3v3.6h-4.3v-3.6ZM27.5,53.3h4.3v3.6h-4.3v-3.6ZM27.5,60.4h4.3v3.6h-4.3v-3.6ZM31.7,56.9h4.3v3.6h-4.3v-3.6Z"/>
  </g>
</svg>