<?xml version="1.0" encoding="UTF-8" standalone="no"?>
<svg
   id="_图层_1"
   version="1.1"
   viewBox="0 0 64 64" width="48" height="48"
   sodipodi:docname="referencer.svg"
   xml:space="preserve"
   inkscape:version="1.4 (e7c3feb100, 2024-10-09)"
   xmlns:inkscape="http://www.inkscape.org/namespaces/inkscape"
   xmlns:sodipodi="http://sodipodi.sourceforge.net/DTD/sodipodi-0.dtd"
   xmlns:xlink="http://www.w3.org/1999/xlink"
   xmlns="http://www.w3.org/2000/svg"
   xmlns:svg="http://www.w3.org/2000/svg"><sodipodi:namedview
     id="namedview26"
     pagecolor="#505050"
     bordercolor="#eeeeee"
     borderopacity="1"
     inkscape:showpageshadow="0"
     inkscape:pageopacity="0"
     inkscape:pagecheckerboard="0"
     inkscape:deskcolor="#505050"
     inkscape:zoom="10.6875"
     inkscape:cx="32"
     inkscape:cy="17.02924"
     inkscape:window-width="1920"
     inkscape:window-height="939"
     inkscape:window-x="0"
     inkscape:window-y="34"
     inkscape:window-maximized="1"
     inkscape:current-layer="_图层_1" /><!-- Generator: Adobe Illustrator 29.0.1, SVG Export Plug-In . SVG Version: 2.1.0 Build 192)  --><defs
     id="defs6"><style
       id="style1">
      .st0 {
        fill-opacity: .5;
      }

      .st0, .st1, .st2, .st3, .st4, .st5, .st6, .st7 {
        fill: #fff;
      }

      .st8 {
        fill: #133c9a;
      }

      .st2, .st9 {
        display: none;
      }

      .st3 {
        fill-opacity: .2;
      }

      .st4 {
        fill-opacity: .9;
      }

      .st10 {
        fill: #3370ff;
      }

      .st11 {
        fill: url(#_未命名的渐变_3);
      }

      .st12 {
        fill: url(#_未命名的渐变);
      }

      .st5 {
        fill-opacity: .3;
      }

      .st6 {
        fill-opacity: 0;
      }

      .st7 {
        fill-opacity: .7;
      }

      .st13 {
        fill: #00d6b9;
      }

      .st14 {
        fill: url(#_未命名的渐变_2);
      }
    </style><radialGradient
       id="_未命名的渐变"
       data-name="未命名的渐变"
       cx="123.9"
       cy="-40.2"
       fx="123.9"
       fy="-40.2"
       r="59.4"
       gradientTransform="translate(-26.8 25.5) scale(.6 -.7)"
       gradientUnits="userSpaceOnUse"><stop
         offset="0"
         stop-color="#db202e"
         id="stop1" /><stop
         offset="1"
         stop-color="#e01b24"
         id="stop2" /></radialGradient><radialGradient
       id="_未命名的渐变_2"
       data-name="未命名的渐变 2"
       cx="67.6"
       cy="26.8"
       fx="67.6"
       fy="26.8"
       r="105.2"
       gradientTransform="translate(-26.6 25.3) scale(.6 -.7)"
       gradientUnits="userSpaceOnUse"><stop
         offset="0"
         stop-color="#ffb648"
         id="stop3" /><stop
         offset="1"
         stop-color="#ff7800"
         stop-opacity="0"
         id="stop4" /></radialGradient><radialGradient
       id="_未命名的渐变_3"
       data-name="未命名的渐变 3"
       cx="61.7"
       cy="18.6"
       fx="61.7"
       fy="18.6"
       r="68"
       gradientTransform="translate(-26.8 25.8) scale(.6 -.7)"
       gradientUnits="userSpaceOnUse"><stop
         offset="0"
         stop-color="#c64600"
         id="stop5" /><stop
         offset="1"
         stop-color="#a51d2d"
         id="stop6" /></radialGradient><linearGradient
       id="linearGradient1261"><stop
         style="stop-color:#4f4f4f"
         offset="0"
         id="stop1-7" /><stop
         style="stop-color:#3f3f3f"
         offset="1"
         id="stop2-0" /></linearGradient><linearGradient
       id="linearGradient1263"
       x1="34.241"
       x2="37.169"
       y1="38.945"
       y2="30.342"
       gradientTransform="matrix(1.3919157,0,0,1.3888889,-1.321022,-0.4865665)"
       gradientUnits="userSpaceOnUse"
       xlink:href="#linearGradient1261" /></defs><path
     class="st1"
     d="M47.5,64.1H13.8c-7.6,0-13.8-6.3-13.8-13.8V13.7C0,6.2,6.2,0,13.7,0h36.6c7.5,0,13.7,6.2,13.7,13.7v36.6c0,7.5-6.2,13.7-13.7,13.7h-2.9.1Z"
     id="path6"
     style="fill:#008295;fill-opacity:1" /><g
     id="g26"
     transform="matrix(1.4593301,0,0,1.1395301,-14.698564,-6.921976)"><path
       style="opacity:0.2"
       d="m 17.686976,6 c -3.190531,0 -7.550529,6.502304 -7.558743,10.928928 l -0.06412,34.552696 C 10.057429,55.085567 14.047629,62 17.943443,62 H 18 V 6 Z"
       id="path2"
       sodipodi:nodetypes="ssssccs" /><path
       style="opacity:0.2;fill-rule:evenodd"
       d="m 36.03852,21.00092 c -5.9052,0 -10.953,3.6736 -12.99,8.8416 -0.10842,0.26286 -0.20364,0.5321 -0.29604,0.80272 C 22.73428,30.70126 22.71344,30.75568 22.696,30.812 22.252,32.164 22,33.6 22,35.1 22,42.767 28.261,49 35.962,49 c 5.8496,0 10.862,-3.6008 12.938,-8.6904 5.4e-4,-0.0013 0.0014,-0.0026 0.002,-0.004 0.14914,-0.3505 0.275,-0.71168 0.39536,-1.0761 0.45048,-1.364 0.70308,-2.8172 0.70308,-4.3296 0,-7.6652 -6.2626,-13.9 -13.962,-13.9 z m -1.0049,2.1696 v 4.6786 c -1.3331,-0.04682 -2.608,-0.18746 -3.786,-0.40912 0.17696,-0.41284 0.36246,-0.81048 0.5648,-1.173 0.93268,-1.6714 2.059,-2.714 3.2212,-3.0964 z m 1.9943,0.07756 c 0.1048,0.0172 0.2114,0.0294 0.3155,0.04848 1.0502,0.45756 2.0596,1.4505 2.9076,2.9704 0.19858,0.35586 0.38088,0.74546 0.55504,1.1498 -1.1728,0.22748 -2.4464,0.37512 -3.7782,0.4285 v -4.5972 z m -6.2496,0.95784 c -0.25016,0.34772 -0.49136,0.7076 -0.70892,1.0974 -0.28958,0.51894 -0.54856,1.0811 -0.7868,1.6675 -0.58376,-0.17046 -1.1238,-0.36342 -1.6282,-0.57198 0.91024,-0.8897 1.9651,-1.6283 3.124,-2.1928 z m 10.723,0.2986 c 0.5446,0.21748 0.96212,0.42034 1.3808,0.62432 0.5316,0.36928 1.0323,0.779 1.4957,1.2273 -0.49828,0.21092 -1.0342,0.40654 -1.6126,0.57974 -0.23448,-0.5732 -0.48752,-1.1241 -0.77124,-1.6326 -0.15492,-0.27764 -0.3218,-0.54086 -0.49272,-0.79884 z m 4.1794,3.3504 c 1.2724,1.7245 2.089,3.7984 2.2748,6.0592 h -3.7548 c -0.0733,-1.8155 -0.34688,-3.5328 -0.78876,-5.0936 0.79638,-0.24304 1.5443,-0.52188 2.228,-0.83956 0.0186,-0.0433 0.029,-0.0845 0.0409,-0.12604 z m -19.382,0.13186 c 0.7158,0.3316 1.5046,0.6188 2.3428,0.86864 -0.43612,1.5517 -0.70626,3.2566 -0.77902,5.0588 h -3.7412 c 0.18104,-2.203 0.96024,-4.2292 2.1774,-5.9272 z m 15.177,1.3243 c 0.3968,1.3904 0.65384,2.9468 0.72838,4.603 h -5.1766 v -4.0834 c 1.5669,-0.05722 3.064,-0.2334 4.4482,-0.51964 z m -10.897,0.02908 c 1.3875,0.27872 2.8868,0.44504 4.454,0.49442 v 4.0796 h -5.1746 c 0.07404,-1.6448 0.3284,-3.1908 0.7206,-4.574 z m -6.458,6.5594 h 3.7412 c 0.07476,1.8516 0.35664,3.6028 0.81408,5.1886 -0.8194,0.2426 -1.5884,0.52322 -2.2924,0.84344 -1.2636,-1.7185 -2.076,-3.7826 -2.2632,-6.032 z m 5.7376,0 h 5.1746 v 4.2192 c -1.5539,0.0488 -3.0414,0.21214 -4.419,0.48668 -0.41328,-1.4161 -0.6793,-3.0092 -0.75564,-4.7058 z m 7.1688,0 h 5.1766 c -0.07686,1.7078 -0.34544,3.3116 -0.76344,4.7348 -1.3744,-0.28196 -2.8594,-0.45524 -4.4132,-0.51188 v -4.223 z m 7.1728,0 h 3.7548 c -0.18924,2.2758 -1.0187,4.3618 -2.3078,6.092 -0.0036,-0.006 -0.004,-0.0134 -0.0078,-0.0194 -0.69354,-0.32222 -1.4538,-0.60388 -2.2632,-0.84924 0.46332,-1.5949 0.74852,-3.3584 0.82382,-5.2236 z m -9.1672,6.2046 v 4.5372 c -1.1617,-0.38308 -2.2888,-1.4217 -3.2212,-3.0926 -0.18162,-0.32548 -0.34894,-0.67878 -0.51026,-1.0451 1.1631,-0.21596 2.4188,-0.3532 3.7316,-0.39942 z m 1.9943,0.004 c 1.3124,0.05214 2.5668,0.19492 3.7256,0.41688 -0.15872,0.3588 -0.32422,0.70432 -0.50248,1.0238 -0.9328,1.6716 -2.0604,2.71 -3.2232,3.0926 v -4.5332 z m -7.6928,0.85894 c 0.22484,0.54064 0.4652,1.0632 0.73424,1.5453 0.21152,0.37904 0.44332,0.73284 0.68554,1.0722 -1.1008,-0.5394 -2.1046,-1.2381 -2.9816,-2.0728 0.4884,-0.19652 1.0024,-0.38324 1.5619,-0.54484 z m 13.38,0.0349 c 0.55356,0.16404 1.063,0.35192 1.5444,0.55066 -0.87128,0.8207 -1.8652,1.5082 -2.9544,2.0396 0.2432,-0.3428 0.47652,-0.69842 0.68944,-1.08 0.26328,-0.4718 0.49958,-0.98248 0.7206,-1.5104 z"
       id="path3" /><path
       style="fill:#ffffff;fill-rule:evenodd"
       d="m 36.03852,20 c -5.9052,0 -10.953,3.6736 -12.99,8.8414 -0.10842,0.26286 -0.20364,0.5321 -0.29604,0.80272 -0.0182,0.05602 -0.03904,0.11044 -0.05648,0.16676 -0.443,1.353 -0.696,2.79 -0.696,4.289 0,7.667 6.261,13.9 13.962,13.9 5.8496,0 10.862,-3.6008 12.938,-8.6904 5.4e-4,-0.0013 0.0014,-0.0026 0.002,-0.004 0.14914,-0.3505 0.275,-0.71168 0.39536,-1.0761 0.45048,-1.364 0.70308,-2.8172 0.70308,-4.3296 0,-7.6652 -6.2626,-13.9 -13.962,-13.9 z m -1.0049,2.1696 v 4.6786 c -1.3331,-0.04682 -2.608,-0.18746 -3.786,-0.40912 0.17696,-0.41284 0.36246,-0.81048 0.5648,-1.173 0.93268,-1.6714 2.059,-2.714 3.2212,-3.0964 z m 1.9943,0.07756 c 0.1048,0.0172 0.2114,0.0294 0.3155,0.04848 1.0502,0.45756 2.0596,1.4505 2.9076,2.9704 0.19858,0.35586 0.38088,0.74546 0.55504,1.1498 -1.1728,0.22748 -2.4464,0.37512 -3.7782,0.4285 v -4.5972 z m -6.2496,0.95784 c -0.25016,0.34772 -0.49136,0.7076 -0.70892,1.0974 -0.28958,0.51894 -0.54856,1.0811 -0.7868,1.6675 -0.58376,-0.17046 -1.1238,-0.36342 -1.6282,-0.57198 0.91024,-0.8897 1.9651,-1.6283 3.124,-2.1928 z m 10.723,0.2986 c 0.5446,0.21748 0.96212,0.42034 1.3808,0.62432 0.5316,0.36928 1.0323,0.779 1.4957,1.2273 -0.49828,0.21092 -1.0342,0.40654 -1.6126,0.57974 -0.23448,-0.5732 -0.48752,-1.1241 -0.77124,-1.6326 -0.15492,-0.27764 -0.3218,-0.54086 -0.49272,-0.79884 z m 4.1794,3.3504 c 1.2724,1.7245 2.089,3.7984 2.2748,6.0592 h -3.7548 c -0.0733,-1.8155 -0.34688,-3.5328 -0.78876,-5.0936 0.79638,-0.24304 1.5443,-0.52188 2.228,-0.83956 0.0186,-0.0433 0.029,-0.0845 0.0409,-0.12604 z m -19.382,0.13186 c 0.7158,0.3316 1.5046,0.6188 2.3428,0.86864 -0.43612,1.5517 -0.70626,3.2566 -0.77902,5.0588 h -3.7412 c 0.18104,-2.203 0.96024,-4.2292 2.1774,-5.9272 z m 15.177,1.3243 c 0.3968,1.3904 0.65384,2.9468 0.72838,4.603 h -5.1766 v -4.0834 c 1.5669,-0.05722 3.064,-0.2334 4.4482,-0.51964 z m -10.897,0.02908 c 1.3875,0.27872 2.8868,0.44504 4.454,0.49442 v 4.0796 h -5.1746 c 0.07404,-1.6448 0.3284,-3.1908 0.7206,-4.574 z m -6.458,6.5594 h 3.7412 c 0.07476,1.8516 0.35664,3.6028 0.81408,5.1886 -0.8194,0.2426 -1.5884,0.52322 -2.2924,0.84344 -1.2636,-1.7185 -2.076,-3.7826 -2.2632,-6.032 z m 5.7376,0 h 5.1746 v 4.2192 c -1.5539,0.0488 -3.0414,0.21214 -4.419,0.48668 -0.41328,-1.4161 -0.6793,-3.0092 -0.75564,-4.7058 z m 7.1688,0 h 5.1766 c -0.07686,1.7078 -0.34544,3.3116 -0.76344,4.7348 -1.3744,-0.28196 -2.8594,-0.45524 -4.4132,-0.51188 v -4.223 z m 7.1728,0 h 3.7548 c -0.18924,2.2758 -1.0187,4.3618 -2.3078,6.092 -0.0036,-0.006 -0.004,-0.0134 -0.0078,-0.0194 -0.69354,-0.32222 -1.4538,-0.60388 -2.2632,-0.84924 0.46332,-1.5949 0.74852,-3.3584 0.82382,-5.2236 z m -9.1672,6.2046 v 4.5372 c -1.1617,-0.38308 -2.2888,-1.4217 -3.2212,-3.0926 -0.18162,-0.32548 -0.34894,-0.67878 -0.51026,-1.0451 1.1631,-0.21596 2.4188,-0.3532 3.7316,-0.39942 z m 1.9943,0.004 c 1.3124,0.05214 2.5668,0.19492 3.7256,0.41688 -0.15872,0.3588 -0.32422,0.70432 -0.50248,1.0238 -0.9328,1.6716 -2.0604,2.71 -3.2232,3.0926 v -4.5332 z m -7.6928,0.85894 c 0.22484,0.54064 0.4652,1.0632 0.73424,1.5453 0.21152,0.37904 0.44332,0.73284 0.68554,1.0722 -1.1008,-0.5394 -2.1046,-1.2381 -2.9816,-2.0728 0.4884,-0.19652 1.0024,-0.38324 1.5619,-0.54484 z m 13.38,0.0349 c 0.55356,0.16404 1.063,0.35192 1.5444,0.55066 -0.87128,0.8207 -1.8652,1.5082 -2.9544,2.0396 0.2432,-0.3428 0.47652,-0.69842 0.68944,-1.08 0.26328,-0.4718 0.49958,-0.98248 0.7206,-1.5104 z"
       id="path4" /></g></svg>
