<?xml version="1.0" encoding="UTF-8"?>
<svg id="_图层_1" xmlns="http://www.w3.org/2000/svg" version="1.1" viewBox="0 0 64 64" width="48" height="48">
  <!-- Generator: Adobe Illustrator 29.0.1, SVG Export Plug-In . SVG Version: 2.1.0 Build 192)  -->
  <defs>
    <style>
      .st0 {
        opacity: .2;
      }

      .st0, .st1, .st2 {
        isolation: isolate;
      }

      .st0, .st1, .st3 {
        display: none;
      }

      .st1 {
        fill: #fff;
      }

      .st1, .st2 {
        opacity: .1;
      }

      .st4 {
        fill: #3f3f3f;
      }

      .st5, .st3 {
        fill: #8e8e8e;
      }

      .st6 {
        fill: none;
        stroke: #3f3f3f;
        stroke-linecap: round;
        stroke-linejoin: round;
        stroke-width: 6px;
      }
    </style>
  </defs>
  <path class="st5" d="M50.4,64H13.8c-7.6,0-13.8-6.2-13.8-13.7V13.7C0,6.2,6.2,0,13.7,0h36.5c7.5,0,13.7,6.2,13.7,13.7v36.6c0,7.5-6.2,13.7-13.7,13.7h.1Z"/>
  <g>
    <path class="st0" d="M4.8,21.7l15.5-15.4c6.4-6.4,16.9-6.4,23.3,0l15.5,15.4c6.4,6.4,6.4,16.7,0,23.1l-15.5,15.4c-6.4,6.4-16.9,6.4-23.3,0l-15.5-15.4c-6.4-6.4-6.4-16.7,0-23.1Z"/>
    <path class="st3" d="M4.8,20.6l15.5-15.4c6.4-6.4,16.9-6.4,23.3,0l15.5,15.4c6.4,6.4,6.4,16.7,0,23.1l-15.5,15.4c-6.4,6.4-16.9,6.4-23.3,0l-15.5-15.4c-6.4-6.4-6.4-16.7,0-23.1Z"/>
    <path class="st2" d="M31.9,10.3c-.9,0-1.7.4-2.3,1L9.8,31c-1.3,1.3-1.3,3.4,0,4.7l19.9,19.7c1.3,1.3,3.4,1.3,4.7,0,0,0,0,0,0,0l16.7-16.6h-9.4l-9.7,9.6-15.2-15.1,15.2-15.1,9.7,9.6h9.4l-16.7-16.6c-.6-.6-1.5-1-2.4-1ZM34.2,30c-1.8,0-3.3,1.4-3.4,3.2,0,1.8,1.4,3.3,3.3,3.3,0,0,0,0,0,0h17.7c1.8,0,3.3-1.4,3.4-3.2,0-1.8-1.4-3.3-3.3-3.3,0,0,0,0,0,0h-17.7Z"/>
    <path class="st6" d="M34.2,32.2h17.7"/>
    <path class="st4" d="M31.9,9.2c-.9,0-1.7.4-2.3,1L9.8,29.9c-1.3,1.3-1.3,3.4,0,4.7l19.9,19.7c1.3,1.3,3.4,1.3,4.7,0,0,0,0,0,0,0l16.7-16.6h-9.4l-9.7,9.6-15.2-15.1,15.2-15.1,9.7,9.6h9.4l-16.7-16.6c-.6-.6-1.5-1-2.4-1Z"/>
    <path class="st1" d="M32,.4c-4.2,0-8.4,1.6-11.6,4.8l-15.5,15.4C1.5,23.9,0,28.2,0,32.5c.2-3.9,1.8-7.8,4.8-10.8l15.5-15.4c3.2-3.2,7.4-4.8,11.6-4.8s8.4,1.6,11.6,4.8l15.5,15.4c3,3,4.6,6.9,4.8,10.8,0-4.3-1.5-8.6-4.8-11.9l-15.5-15.4c-3.2-3.2-7.4-4.8-11.6-4.8Z"/>
  </g>
</svg>