<?xml version="1.0" encoding="UTF-8"?>
<svg id="_图层_1" xmlns="http://www.w3.org/2000/svg" version="1.1" viewBox="0 0 64 64" width="48" height="48">
  <!-- Generator: Adobe Illustrator 29.0.1, SVG Export Plug-In . SVG Version: 2.1.0 Build 192)  -->
  <defs>
    <style>
      .st0 {
        fill: #f8d084;
      }

      .st1 {
        fill: #4f4f4f;
      }

      .st2, .st3, .st4, .st5, .st6, .st7, .st8 {
        isolation: isolate;
      }

      .st2, .st3, .st9, .st10, .st11, .st7 {
        display: none;
      }

      .st2, .st5, .st6, .st7 {
        opacity: .2;
      }

      .st3, .st4, .st8 {
        opacity: .1;
      }

      .st3, .st6, .st7, .st8 {
        fill: #fff;
      }

      .st12 {
        fill: #3f3f3f;
      }

      .st13 {
        fill: #8dc808;
      }

      .st9 {
        fill: #8e8e8e;
      }

      .st10, .st14 {
        fill: #23a8ff;
      }

      .st15 {
        fill: #f14d4d;
      }

      .st16 {
        fill: none;
        stroke: #3f3f3f;
        stroke-linecap: round;
        stroke-linejoin: round;
        stroke-width: 6px;
      }
    </style>
  </defs>
  <path class="st14" d="M50.4,64H13.8c-7.6,0-13.8-6.2-13.8-13.7V13.7C0,6.2,6.2,0,13.7,0h36.5c7.5,0,13.7,6.2,13.7,13.7v36.6c0,7.5-6.2,13.7-13.7,13.7h.1Z"/>
  <g class="st11">
    <path class="st2" d="M4.8,21.7l15.5-15.4c6.4-6.4,16.9-6.4,23.3,0l15.5,15.4c6.4,6.4,6.4,16.7,0,23.1l-15.5,15.4c-6.4,6.4-16.9,6.4-23.3,0l-15.5-15.4c-6.4-6.4-6.4-16.7,0-23.1Z"/>
    <path class="st9" d="M4.8,20.6l15.5-15.4c6.4-6.4,16.9-6.4,23.3,0l15.5,15.4c6.4,6.4,6.4,16.7,0,23.1l-15.5,15.4c-6.4,6.4-16.9,6.4-23.3,0l-15.5-15.4c-6.4-6.4-6.4-16.7,0-23.1Z"/>
    <path class="st4" d="M31.9,10.3c-.9,0-1.7.4-2.3,1L9.8,31c-1.3,1.3-1.3,3.4,0,4.7l19.9,19.7c1.3,1.3,3.4,1.3,4.7,0,0,0,0,0,0,0l16.7-16.6h-9.4l-9.7,9.6-15.2-15.1,15.2-15.1,9.7,9.6h9.4l-16.7-16.6c-.6-.6-1.5-1-2.4-1ZM34.2,30c-1.8,0-3.3,1.4-3.4,3.2,0,1.8,1.4,3.3,3.3,3.3,0,0,0,0,0,0h17.7c1.8,0,3.3-1.4,3.4-3.2,0-1.8-1.4-3.3-3.3-3.3,0,0,0,0,0,0h-17.7Z"/>
    <path class="st16" d="M34.2,32.2h17.7"/>
    <path class="st12" d="M31.9,9.2c-.9,0-1.7.4-2.3,1L9.8,29.9c-1.3,1.3-1.3,3.4,0,4.7l19.9,19.7c1.3,1.3,3.4,1.3,4.7,0,0,0,0,0,0,0l16.7-16.6h-9.4l-9.7,9.6-15.2-15.1,15.2-15.1,9.7,9.6h9.4l-16.7-16.6c-.6-.6-1.5-1-2.4-1Z"/>
    <path class="st3" d="M32,.4c-4.2,0-8.4,1.6-11.6,4.8l-15.5,15.4C1.5,23.9,0,28.2,0,32.5c.2-3.9,1.8-7.8,4.8-10.8l15.5-15.4c3.2-3.2,7.4-4.8,11.6-4.8s8.4,1.6,11.6,4.8l15.5,15.4c3,3,4.6,6.9,4.8,10.8,0-4.3-1.5-8.6-4.8-11.9l-15.5-15.4c-3.2-3.2-7.4-4.8-11.6-4.8Z"/>
  </g>
  <g class="st11">
    <g>
      <path class="st5" d="M32.8,5.3c-6.5,0-13.4,3.3-17.1,10,0,0,0,.1,0,.2-1.4,2.8-1.7,5.6-1.7,8.2s.8,5.9,2.1,8.3c0,.1.2.3.2.4.5.7,1.1,1.2,1.6,1.8-2.3,1.2-2.6,2.3-2.9,2.7h0c-.6.9-1.5,2.1-2.4,3.3s-.8,1.2-1.2,1.9-.9.9-1.2,3.3c-.5,2.5.7,3.9,1.9,5.6.6.8,1.4,1.6,2.2,2.4,1.7,1.6,3.6,3.3,6.2,4.6,3.7,2,8.3,3.3,13.4,3.3s4.9-.3,7.4-1h0c2.4-.7,4.9-1.7,7.1-3.2,2.2-1.6,4.1-3.7,5.5-6.1,1.6-2.7,2.2-5.8,2.2-8.9s-.5-5-1.4-7.4c-.1-.5-.3-1-.5-1.5h0c-.8-1.6-2.1-3-3.3-4.4.4-.5.8-.9,1.1-1.4,0,0,0-.1.1-.2-.3.7,1.2-1.7,2.3-3.5,0,0,.7-.7,1.2-2.4.6-1.7,0-5.6-2-7.3-1.9-1.7-4.8-4.2-9-6.1-2.8-1.3-6.7-2.7-11.5-2.7h0s0,0,0,0h0Z"/>
      <path class="st1" d="M32.8,4.3c-6.5,0-13.4,3.3-17.1,10,0,0,0,.1,0,.2-1.4,2.8-1.7,5.6-1.7,8.2s.8,5.9,2.1,8.3c0,.1.2.3.2.4.5.7,1.1,1.2,1.6,1.8-2.3,1.2-2.6,2.3-2.9,2.7h0c-.6.9-1.5,2.1-2.4,3.3s-.8,1.2-1.2,1.9-.9.9-1.2,3.3c-.5,2.5.7,3.9,1.9,5.6.6.8,1.4,1.6,2.2,2.4,1.7,1.6,3.6,3.3,6.2,4.6,3.7,2,8.3,3.3,13.4,3.3s4.9-.3,7.4-1h0c2.4-.7,4.9-1.7,7.1-3.2,2.2-1.6,4.1-3.7,5.5-6.1,1.6-2.7,2.2-5.8,2.2-8.9s-.5-5-1.4-7.4c-.1-.5-.3-1-.5-1.5h0c-.8-1.6-2.1-3-3.3-4.4.4-.5.8-.9,1.1-1.4,0,0,0-.1.1-.2-.3.7,1.2-1.7,2.3-3.5,0,0,.7-.7,1.2-2.4.6-1.7,0-5.6-2-7.3-1.9-1.7-4.8-4.2-9-6.1-2.8-1.3-6.7-2.7-11.5-2.7h0s0,0,0,0h0Z"/>
      <path class="st5" d="M48.6,36c.9,1.7,1.3,3.8,1.3,6.1s-.5,4.3-1.4,6c-1,1.7-2.2,3.1-3.7,4.1-1.5,1.1-3.3,1.8-5.2,2.4-1.9.5-3.9.8-5.8.8-3.9,0-8.1-1.2-10.7-2.6-3-1.4-7.1-5.8-7-6.5.1-.9,2.4-3.8,3.8-5.8.7-1,1-1.4,2-.5,1.3,1.6,3.1,2.6,4.7,3.4,1.4.7,4.5,1.7,6.1,1.9,1.3.2,3.3.2,3.5-1.9,0-.8-.7-1.5-1.5-2.2-.9-.7-1.4-1.3-2.7-2.1-5.1-4-7.9-5.8-10.5-9.8-.9-1.6-1.4-3.3-1.4-5.4s.3-4,1.1-5.5c2.5-4.5,7.5-6.9,12-6.9,3.8,0,6.6,1,9.2,2.2,3.4,1.4,5.6,3.3,7.4,5,.7.7,0,1.4-.3,2-.9,1.5-2.3,3.3-2.7,4.1-.3.6-.9.9-1.5.4,0,0-1.3-1.1-2.3-1.7-2.7-1.5-5.5-3.7-8.3-4-.8,0-1.5.2-1.9.6-.4.4-.5,1.1-.5,1.7,0,1.1.3,1.3,1.3,2.2.9.7,1.5,1.1,3.3,2.1,1.3.7,2.9,1.7,4.4,2.5,1.5.9,3,2,4.3,3.2,1.3,1.2,2.3,2.6,3.2,4.3h0Z"/>
      <path class="st13" d="M48.6,35c.9,1.7,1.3,3.8,1.3,6.1s-.5,4.3-1.4,6c-1,1.7-2.2,3.1-3.7,4.1-1.5,1.1-3.3,1.8-5.2,2.4-1.9.5-3.9.8-5.8.8-3.9,0-8.1-1.2-10.7-2.6-3-1.4-7.1-5.8-7-6.5.1-.9,2.4-3.8,3.8-5.8.7-1,1-1.4,2-.5,1.3,1.6,3.1,2.6,4.7,3.4,1.4.7,4.5,1.7,6.1,1.9,1.3.2,3.3.2,3.5-1.9,0-.8-.7-1.5-1.5-2.2-.9-.7-1.4-1.3-2.7-2.1-5.1-4-7.9-5.8-10.5-9.8-.9-1.6-1.4-3.3-1.4-5.4s.3-4,1.1-5.5c2.5-4.5,7.5-6.9,12-6.9,3.8,0,6.6,1,9.2,2.2,3.4,1.4,5.6,3.3,7.4,5,.7.7,0,1.4-.3,2-.9,1.5-2.3,3.3-2.7,4.1-.3.6-.9.9-1.5.4,0,0-1.3-1.1-2.3-1.7-2.7-1.5-5.5-3.7-8.3-4-.8,0-1.5.2-1.9.6-.4.4-.5,1.1-.5,1.7,0,1.1.3,1.3,1.3,2.2.9.7,1.5,1.1,3.3,2.1,1.3.7,2.9,1.7,4.4,2.5,1.5.9,3,2,4.3,3.2,1.3,1.2,2.3,2.6,3.2,4.3h0Z"/>
      <path class="st8" d="M32.8,4.3c-6.5,0-13.4,3.3-17.1,10,0,0,0,.1,0,.2-1.4,2.8-1.7,5.6-1.7,8.2s0,.3,0,.5c0-2.5.4-5.1,1.7-7.7,0,0,0-.1,0-.2,3.7-6.7,10.6-10,17.1-10h0s0,0,0,0c4.9,0,8.7,1.4,11.5,2.7,4.3,1.8,7.1,4.3,9,6.1,1.3,1.2,2,3.5,2.1,5.3.1-1.9-.5-4.9-2.1-6.3-1.9-1.7-4.8-4.2-9-6.1-2.8-1.3-6.7-2.7-11.5-2.7,0,0,0,0,0,0h0ZM51.1,28.4c-.1.2-.3.3-.4.5,1.2,1.4,2.4,2.8,3.3,4.4h0c.2.5.4,1,.5,1.5.9,2.2,1.4,4.6,1.4,7,0-.2,0-.4,0-.7,0-2.6-.5-5-1.4-7.4-.1-.5-.3-1-.5-1.5h0c-.7-1.4-1.8-2.7-2.8-3.9ZM17.2,33.6c-1.8,1.1-2.1,2-2.3,2.3h0c-.6.9-1.5,2.1-2.4,3.3-.4.6-.8,1.2-1.2,1.9s-.9.9-1.2,3.3c-.1.6-.1,1.1,0,1.6,0-.2,0-.4,0-.6.3-2.4.8-2.7,1.2-3.3s.8-1.3,1.2-1.9c.9-1.2,1.8-2.5,2.4-3.3h0c.3-.4.6-1.5,2.9-2.7-.2-.2-.4-.4-.6-.7Z"/>
      <path class="st6" d="M32.9,10.3c-4.5,0-9.5,2.4-12,6.9-.8,1.5-1.1,3.5-1.1,5.5s0,.3,0,.4c0-1.8.4-3.5,1-4.9,2.5-4.5,7.5-6.9,12-6.9,3.8,0,6.6,1,9.2,2.2,3.4,1.4,5.6,3.3,7.4,5,0,0,.1.1.2.2.2-.4.2-.8-.2-1.2-1.8-1.7-4-3.6-7.4-5-2.5-1.1-5.3-2.2-9.2-2.2ZM32.1,21.1c0,.2,0,.4,0,.6,0,1.1.3,1.3,1.3,2.2.9.7,1.5,1.1,3.3,2.1,1.3.7,2.9,1.7,4.4,2.5,1.5.9,3,2,4.3,3.2,1.3,1.2,2.3,2.6,3.2,4.3.8,1.6,1.2,3.5,1.3,5.6,0-.2,0-.3,0-.5,0-2.4-.4-4.4-1.3-6.1-.9-1.7-1.9-3.1-3.2-4.3-1.3-1.2-2.8-2.3-4.3-3.2-1.5-.9-3.1-1.8-4.4-2.5-1.8-.9-2.4-1.4-3.3-2.1-.9-.8-1.2-1.1-1.3-1.9ZM20.8,38.4c-.4,0-.7.4-1.1,1-1.4,2-3.7,4.9-3.8,5.8,0,0,0,.3.2.5.6-1.2,2.4-3.6,3.6-5.3.7-1,1-1.4,2-.5,1.3,1.6,3.1,2.6,4.7,3.4,1.4.7,4.5,1.7,6.1,1.9,1.3.2,3.3.2,3.5-1.9,0-.2,0-.3,0-.5-.4,1.6-2.2,1.6-3.4,1.4-1.6-.2-4.6-1.2-6.1-1.9-1.6-.8-3.4-1.8-4.7-3.4-.4-.3-.7-.5-.9-.5Z"/>
    </g>
  </g>
  <g>
    <path class="st2" d="M4,1.1h56c2.2,0,4,1.4,4,3.2v57.5c0,1.8-1.8,3.2-4,3.2H4c-2.2,0-4-1.4-4-3.2V4.3C0,2.6,1.8,1.1,4,1.1Z"/>
    <path class="st10" d="M4,0h56c2.2,0,4,1.4,4,3.2v57.5c0,1.8-1.8,3.2-4,3.2H4c-2.2,0-4-1.4-4-3.2V3.2C0,1.4,1.8,0,4,0Z"/>
    <path class="st5" d="M39.4,41.3c-.5.2-.8.8-.5,1.2l1.2,2.7-3.1-1.3c-.6-.3-1.4,0-1.7.4-.2.4-.2.8.2,1.1l2.4,2.1-3.6-.3c-.7,0-1.3.3-1.3.9,0,.4.2.8.7,1l3.2,1.2-3.4.8c-.7.2-1,.7-.8,1.2.2.4.6.7,1.1.7h3.6c0,.1-2.8,1.9-2.8,1.9-.5.3-.6,1-.2,1.4.3.3.9.5,1.4.3l3.3-1-1.7,2.5c-.3.5,0,1.1.5,1.3.5.2,1,.1,1.4-.1l2.6-2-.3,2.9c0,.5.4,1,1.1,1.1.5,0,1-.2,1.3-.6l1.5-2.6,1,2.7c.2.5.9.8,1.5.7.5-.1.9-.5.9-.9v-2.9c.1,0,2.4,2.2,2.4,2.2.5.4,1.2.4,1.8,0,.4-.3.5-.7.4-1.1l-1.2-2.7,3.1,1.3c.6.3,1.4,0,1.7-.4.2-.4.2-.8-.2-1.1l-2.4-2.1,3.6.3c.7,0,1.3-.3,1.4-.9,0-.4-.2-.8-.7-1l-3.2-1.2,3.4-.8c.7-.2,1-.7.8-1.2-.2-.4-.6-.7-1.2-.7h-3.6c0-.1,2.8-1.9,2.8-1.9.5-.3.6-1,.2-1.4-.3-.3-.9-.5-1.4-.3l-3.3,1,1.7-2.5c.3-.5,0-1.1-.5-1.3-.5-.2-1-.1-1.4.1l-2.6,2,.3-2.9c0-.5-.4-1-1.1-1.1-.5,0-1,.2-1.2.6l-1.5,2.6-1-2.7c-.2-.5-.9-.8-1.5-.7-.5.1-.9.5-.9.9v2.9c-.1,0-2.4-2.2-2.4-2.2-.4-.4-1-.5-1.6-.2ZM40.6,46.7l1.6,2.3c-.4.6-.6,1.2-.6,1.8l-2.8,1.3c-.5-1.9.1-4,1.8-5.4ZM44.6,44.9c2.4-.4,4.9.1,6.8,1.4l-2.9,1.3c-.7-.3-1.5-.5-2.3-.5l-1.6-2.3ZM44.7,48.7c1.4-.7,3.3-.3,4.1.9h0c.8,1.2.3,2.6-1.1,3.3-1.4.7-3.3.3-4.1-.9h0c-.8-1.2-.3-2.6,1.1-3.3h0ZM41.1,55.3l2.9-1.3c.7.3,1.5.5,2.3.5l1.6,2.3c-2.4.4-4.9-.1-6.8-1.4ZM50.7,50.8l2.8-1.3c.5,1.9-.1,4-1.8,5.4l-1.6-2.3c.4-.6.6-1.2.6-1.8Z"/>
    <path class="st4" d="M42,.6v26.4l5-2.4,5,2.4V.6h-10Z"/>
    <path class="st15" d="M41.2,0v26.4l5-2.4,5,2.4V0h-10Z"/>
    <path class="st5" d="M11.2.5C6.1.6.1,6.9.1,12.1v40c-.1,5.3,7.6,12,11.2,11.8h0V0l-.2.5Z"/>
    <path class="st0" d="M39.4,40.2c-.5.2-.8.8-.5,1.2l1.2,2.7-3.1-1.3c-.6-.3-1.4,0-1.7.4-.2.4-.2.8.2,1.1l2.4,2.1-3.6-.3c-.7,0-1.3.3-1.3.9,0,.4.2.8.7,1l3.2,1.2-3.4.8c-.7.2-1,.7-.8,1.2.2.4.6.7,1.1.7h3.6c0,.1-2.8,1.9-2.8,1.9-.5.3-.6,1-.2,1.4.3.3.9.5,1.4.3l3.3-1-1.7,2.5c-.3.5,0,1.1.5,1.3.5.2,1,.1,1.4-.1l2.6-2-.3,2.9c0,.5.4,1,1.1,1.1.5,0,1-.2,1.3-.6l1.5-2.6,1,2.7c.2.5.9.8,1.5.7.5-.1.9-.5.9-.9v-2.9c.1,0,2.4,2.2,2.4,2.2.5.4,1.2.4,1.8,0,.4-.3.5-.7.4-1.1l-1.2-2.7,3.1,1.3c.6.3,1.4,0,1.7-.4.2-.4.2-.8-.2-1.1l-2.4-2.1,3.6.3c.7,0,1.3-.3,1.4-.9,0-.4-.2-.8-.7-1l-3.2-1.2,3.4-.8c.7-.2,1-.7.8-1.2-.2-.4-.6-.7-1.2-.7h-3.6c0-.1,2.8-1.9,2.8-1.9.5-.3.6-1,.2-1.4-.3-.3-.9-.5-1.4-.3l-3.3,1,1.7-2.5c.3-.5,0-1.1-.5-1.3-.5-.2-1-.1-1.4.1l-2.6,2,.3-2.9c0-.5-.4-1-1.1-1.1-.5,0-1,.2-1.2.6l-1.5,2.6-1-2.7c-.2-.5-.9-.8-1.5-.7-.5.1-.9.5-.9.9v2.9c-.1,0-2.4-2.2-2.4-2.2-.4-.4-1-.5-1.6-.2ZM40.6,45.6l1.6,2.3c-.4.6-.6,1.2-.6,1.8l-2.8,1.3c-.5-1.9.1-4,1.8-5.4ZM44.6,43.7c2.4-.4,4.9.1,6.8,1.4l-2.9,1.3c-.7-.3-1.5-.5-2.3-.5l-1.6-2.3ZM44.7,47.6c1.4-.7,3.3-.3,4.1.9h0c.8,1.2.3,2.6-1.1,3.3-1.4.7-3.3.3-4.1-.9h0c-.8-1.2-.3-2.6,1.1-3.3h0ZM41.1,54.1l2.9-1.3c.7.3,1.5.5,2.3.5l1.6,2.3c-2.4.4-4.9-.1-6.8-1.4ZM50.7,49.7l2.8-1.3c.5,1.9-.1,4-1.8,5.4l-1.6-2.3c.4-.6.6-1.2.6-1.8Z"/>
    <path class="st5" d="M13.1,25.8c-.7.3-1,1-.7,1.6l1.6,3.5-4.1-1.8c-.8-.3-1.8,0-2.2.5-.3.5-.2,1.1.2,1.5l3.2,2.8-4.7-.4c-.9,0-1.7.5-1.8,1.2,0,.6.3,1.1.9,1.3l4.2,1.5-4.5,1.1c-.9.2-1.3.9-1.1,1.6.2.5.8.9,1.5.9h4.7c0,.1-3.6,2.5-3.6,2.5-.7.5-.8,1.3-.2,1.8.4.4,1.2.6,1.8.4l4.4-1.3-2.2,3.3c-.4.6-.1,1.4.7,1.8.6.3,1.4.2,1.9-.2l3.4-2.6-.5,3.8c0,.7.6,1.4,1.5,1.4.7,0,1.4-.3,1.6-.8l1.9-3.4,1.4,3.6c.3.7,1.2,1.1,2,.9.7-.2,1.1-.6,1.2-1.2l.2-3.8,3,2.9c.6.6,1.6.6,2.3.2.5-.4.7-1,.5-1.5l-1.6-3.5,4.1,1.8c.8.3,1.8,0,2.2-.5.3-.5.2-1.1-.2-1.5l-3.2-2.8,4.7.4c.9,0,1.7-.5,1.8-1.2,0-.6-.3-1.1-1-1.3l-4.2-1.5,4.5-1.1c.9-.2,1.4-.9,1.1-1.6-.2-.5-.8-.9-1.5-.9h-4.7c0-.1,3.6-2.5,3.6-2.5.7-.5.8-1.3.2-1.8-.4-.4-1.2-.6-1.8-.4l-4.4,1.3,2.2-3.3c.4-.6.1-1.4-.7-1.8-.6-.3-1.3-.2-1.9.2l-3.4,2.6.5-3.8c0-.7-.6-1.4-1.5-1.4-.7,0-1.3.3-1.6.8l-1.9,3.4-1.4-3.6c-.3-.7-1.2-1.1-2-.9-.7.2-1.1.6-1.2,1.2l-.2,3.8-3-2.9c-.5-.5-1.4-.6-2.1-.3ZM14.7,32.9l2.2,3c-.5.7-.8,1.5-.8,2.4l-3.7,1.7c-.7-2.5.2-5.2,2.4-7.1ZM19.9,30.5c3.2-.6,6.5.1,8.9,1.9l-3.8,1.7c-.9-.4-1.9-.6-3-.6l-2.2-3ZM20,35.5c1.9-.9,4.3-.4,5.4,1.2h0c1.1,1.5.4,3.5-1.5,4.4s-4.3.4-5.4-1.2h0c-1.1-1.5-.4-3.5,1.5-4.4ZM15.3,44.1l3.8-1.7c.9.4,1.9.6,3,.6l2.2,3c-3.2.6-6.5-.1-8.9-1.9ZM28,38.3l3.7-1.7c.7,2.5-.2,5.2-2.4,7.1l-2.2-3c.5-.7.8-1.5.8-2.4Z"/>
    <path class="st0" d="M13.1,24.7c-.7.3-1,1-.7,1.6l1.6,3.5-4.1-1.8c-.8-.3-1.8,0-2.2.5-.3.5-.2,1.1.2,1.5l3.2,2.8-4.7-.4c-.9,0-1.7.5-1.8,1.2,0,.6.3,1.1.9,1.3l4.2,1.5-4.5,1.1c-.9.2-1.3.9-1.1,1.6.2.5.8.9,1.5.9h4.7c0,.1-3.6,2.5-3.6,2.5-.7.5-.8,1.3-.2,1.8.4.4,1.2.6,1.8.4l4.4-1.3-2.2,3.3c-.4.6-.1,1.4.7,1.8.6.3,1.4.2,1.9-.2l3.4-2.6-.5,3.8c0,.7.6,1.4,1.5,1.4.7,0,1.4-.3,1.6-.8l1.9-3.4,1.4,3.6c.3.7,1.2,1.1,2,.9.7-.2,1.1-.6,1.2-1.2l.2-3.8,3,2.9c.6.6,1.6.6,2.3.2.5-.4.7-.9.5-1.4l-1.6-3.5,4.1,1.8c.8.3,1.8,0,2.2-.5.3-.5.2-1.1-.2-1.5l-3.2-2.8,4.7.4c.9,0,1.7-.5,1.8-1.2,0-.6-.3-1.1-1-1.3l-4.2-1.5,4.5-1.1c.9-.2,1.4-.9,1.1-1.6-.2-.5-.8-.9-1.5-.9h-4.7c0-.1,3.6-2.5,3.6-2.5.7-.5.8-1.3.2-1.8-.4-.4-1.2-.6-1.8-.4l-4.4,1.3,2.2-3.3c.4-.6.1-1.4-.7-1.8-.6-.3-1.3-.2-1.9.2l-3.4,2.6.5-3.8c0-.7-.6-1.4-1.5-1.4-.7,0-1.3.3-1.6.8l-1.9,3.4-1.4-3.6c-.3-.7-1.2-1.1-2-.9-.7.2-1.1.6-1.2,1.2l-.2,3.8-3-2.9c-.5-.5-1.4-.6-2.1-.3ZM14.7,31.7l2.2,3c-.5.7-.8,1.5-.8,2.4l-3.7,1.7c-.7-2.5.2-5.2,2.4-7.1ZM19.9,29.3c3.2-.6,6.5.1,8.9,1.9l-3.8,1.7c-.9-.4-1.9-.6-3-.6l-2.2-3ZM20,34.3c1.9-.9,4.3-.4,5.4,1.2h0c1.1,1.5.4,3.5-1.5,4.4s-4.3.4-5.4-1.2h0c-1.1-1.5-.4-3.5,1.5-4.4ZM15.3,43l3.8-1.7c.9.4,1.9.6,3,.6l2.2,3c-3.2.6-6.5-.1-8.9-1.9ZM28,37.1l3.7-1.7c.7,2.5-.2,5.2-2.4,7.1l-2.2-3c.5-.7.8-1.5.8-2.4Z"/>
    <path class="st7" d="M4,0C1.8,0,0,1.4,0,3.2v1.1C0,2.6,1.8,1.1,4,1.1h56c2.2,0,4,1.4,4,3.2v-1.1c0-1.8-1.8-3.2-4-3.2H4Z"/>
  </g>
</svg>