<?xml version="1.0" encoding="UTF-8"?>
<svg id="_图层_1" xmlns="http://www.w3.org/2000/svg" version="1.1" viewBox="0 0 64 64" width="48" height="48">
  <!-- Generator: Adobe Illustrator 29.0.1, SVG Export Plug-In . SVG Version: 2.1.0 Build 192)  -->
  <defs>
    <style>
      .st0 {
        fill: #fecd38;
      }

      .st1, .st2 {
        fill: #4f4f4f;
      }

      .st3, .st4, .st5, .st6, .st7, .st8, .st9, .st10, .st11, .st12, .st13 {
        isolation: isolate;
      }

      .st3, .st4, .st14, .st15, .st16, .st11, .st2 {
        display: none;
      }

      .st3, .st17, .st8, .st10, .st11, .st12 {
        opacity: .2;
      }

      .st4, .st18, .st5, .st10, .st11, .st13 {
        fill: #fff;
      }

      .st4, .st13 {
        opacity: .1;
      }

      .st19 {
        fill: #4e4e4e;
      }

      .st20 {
        fill: #91af5b;
      }

      .st21 {
        fill: #3f3f3f;
      }

      .st22 {
        fill: #4d4d4d;
      }

      .st23 {
        fill: #3da7d6;
      }

      .st24 {
        fill: #ffcd40;
      }

      .st5 {
        opacity: .3;
      }

      .st25 {
        fill: #874f29;
      }

      .st26, .st15 {
        fill: #8e8e8e;
      }

      .st27 {
        fill: #f8c44e;
      }

      .st14 {
        fill: #595959;
      }

      .st28 {
        fill: #9cda72;
      }

      .st29 {
        fill: #c0f957;
      }

      .st6 {
        opacity: .4;
      }

      .st30 {
        fill: #333;
      }

      .st7 {
        opacity: .5;
        stroke-width: 3px;
      }

      .st7, .st12 {
        stroke: #000;
      }

      .st7, .st12, .st31 {
        fill: none;
        stroke-linecap: round;
      }

      .st32 {
        fill: #4f9a3c;
      }

      .st33 {
        fill: #1eb29b;
      }

      .st9 {
        opacity: 0;
      }

      .st34 {
        fill: #ccc;
      }

      .st35 {
        fill: #828282;
      }

      .st36 {
        fill: #afafb1;
      }

      .st37 {
        fill: #e4e4e4;
      }

      .st38 {
        fill: #b7b7b7;
      }

      .st39 {
        fill: #f34235;
      }

      .st40 {
        fill: #76ff03;
      }

      .st12, .st31 {
        stroke-linejoin: round;
        stroke-width: 4px;
      }

      .st41 {
        fill: #ff0;
      }

      .st42 {
        fill: #0071e2;
      }

      .st31 {
        stroke: #b7b7b7;
      }
    </style>
  </defs>
  <path class="st1" d="M50.4,64H13.8c-7.6,0-13.8-6.2-13.8-13.7V13.7C0,6.2,6.2,0,13.7,0h36.5c7.5,0,13.7,6.2,13.7,13.7v36.6c0,7.5-6.2,13.7-13.7,13.7h.1Z"/>
  <g class="st16">
    <g>
      <path class="st8" d="M3,50.1v1c0,2.7,2,4.9,4.5,4.9h48.9c2.5,0,4.5-2.2,4.5-4.9v-1c0,2.7-2,4.9-4.5,4.9H7.5c-2.5,0-4.5-2.2-4.5-4.9Z"/>
      <path class="st21" d="M7.5,8c-2.5,0-4.5,2.2-4.5,4.9v37.2c0,2.7,2,4.9,4.5,4.9h48.9c2.5,0,4.5-2.2,4.5-4.9V12.9c0-2.7-2-4.9-4.5-4.9H7.5ZM19.6,25.3c3.4,0,6.2,2.8,6.2,6.2h0c0,3.4-2.8,6.2-6.2,6.2s-6.2-2.8-6.2-6.2c0-3.4,2.8-6.2,6.2-6.2h0ZM44.4,25.3c3.4,0,6.2,2.8,6.2,6.2h0c0,3.4-2.8,6.2-6.2,6.2s-6.2-2.8-6.2-6.2c0-3.4,2.8-6.2,6.2-6.2h0Z"/>
      <path class="st1" d="M9,55l5.4-10h35.2l5.4,10H9Z"/>
      <path class="st42" d="M11.3,14c-1.3,0-2.3,1.2-2.3,2.7v8.3h46v-8.3c0-1.5-1-2.7-2.3-2.7H11.3Z"/>
      <path class="st33" d="M9,25v14.5c0,1.4,1,2.5,2.3,2.5h41.4c1.3,0,2.3-1.1,2.3-2.5v-14.5H9ZM20,26.5c2.5,0,4.5,2,4.5,4.5s-2,4.5-4.5,4.5-4.5-2-4.5-4.5,2-4.5,4.5-4.5ZM44,26.5c2.5,0,4.5,2,4.5,4.5s-2,4.5-4.5,4.5-4.5-2-4.5-4.5,2-4.5,4.5-4.5Z"/>
      <circle class="st6" cx="19.5" cy="49.5" r="2.5"/>
      <path class="st21" d="M20,25c-3.3,0-6,2.7-6,6s2.7,6,6,6h24c3.3,0,6-2.7,6-6s-2.7-6-6-6h-24ZM20,27c2.2,0,4,1.8,4,4s-1.8,4-4,4-4-1.8-4-4,1.8-4,4-4ZM44,27c2.2,0,4,1.8,4,4s-1.8,4-4,4-4-1.8-4-4,1.8-4,4-4Z"/>
      <g>
        <rect class="st34" x="25" y="28" width="14" height="6"/>
        <path class="st25" d="M25,28v6h5.5c.3-1,.5-2,.5-3,0-1-.2-2-.5-3h-5.5Z"/>
      </g>
      <circle class="st6" cx="44.5" cy="49.5" r="2.5"/>
      <path class="st13" d="M7.5,8c-2.5,0-4.5,2.2-4.5,4.9v1c0-2.7,2-4.9,4.5-4.9h48.9c2.5,0,4.5,2.2,4.5,4.9v-1c0-2.7-2-4.9-4.5-4.9H7.5Z"/>
      <path class="st8" d="M9,39.5v1c0,1.4,1,2.5,2.3,2.5h41.4c1.3,0,2.3-1.1,2.3-2.5v-1c0,1.4-1,2.5-2.3,2.5H11.3c-1.3,0-2.3-1.1-2.3-2.5Z"/>
      <rect class="st8" x="25" y="28" width="14" height="1"/>
      <path class="st8" d="M20,27c-2.2,0-4,1.8-4,4,0,.2,0,.3,0,.5.2-2,1.9-3.5,4-3.5,2,0,3.7,1.5,4,3.5,0-.2,0-.3,0-.5,0-2.2-1.8-4-4-4ZM44,27c-2.2,0-4,1.8-4,4,0,.2,0,.3,0,.5.2-2,1.9-3.5,4-3.5,2,0,3.7,1.5,4,3.5,0-.2,0-.3,0-.5,0-2.2-1.8-4-4-4Z"/>
      <path class="st13" d="M14.4,45l-5.4,10h.5l4.9-9h35.2l4.9,9h.5l-5.4-10H14.4Z"/>
    </g>
  </g>
  <g class="st16">
    <path class="st3" d="M57.2,4H9c-1.9,0-3.4,1.3-3.4,3v53.8c0,1.7,1.5,3,3.4,3h48.3c1.9,0,3.4-1.3,3.4-3V7c0-1.7-1.5-3-3.4-3Z"/>
    <path class="st15" d="M57.2,3H9c-1.9,0-3.4,1.3-3.4,3v53.8c0,1.7,1.5,3,3.4,3h48.3c1.9,0,3.4-1.3,3.4-3V5.9c0-1.7-1.5-3-3.4-3Z"/>
    <rect class="st30" x="8" y="5.1" width="50.1" height="25.6" rx="3" ry="3"/>
    <ellipse class="st8" cx="33.1" cy="48.9" rx="15" ry="12.8"/>
    <ellipse class="st18" cx="33.1" cy="47.8" rx="15" ry="12.8"/>
    <ellipse class="st26" cx="33.1" cy="47.8" rx="7.5" ry="6.4"/>
    <path class="st4" d="M9,3c-1.9,0-3.4,1.3-3.4,3v1.1c0-1.7,1.5-3,3.4-3h48.3c1.9,0,3.4,1.3,3.4,3v-1.1c0-1.7-1.5-3-3.4-3H9Z"/>
  </g>
  <g class="st16">
    <path class="st8" d="M14.7,16.2c-1.5,0-2.7,1.2-2.7,2.8v30.5c0,1.5,1.2,2.8,2.7,2.8h5.3v-6h12v6h25.3c1.5,0,2.7-1.2,2.7-2.8v-30.5c0-1.5-1.2-2.8-2.7-2.8H14.7Z"/>
    <path class="st23" d="M14.7,15.2c-1.5,0-2.7,1.2-2.7,2.8v30.5c0,1.5,1.2,2.8,2.7,2.8h5.3v-6h12v6h25.3c1.5,0,2.7-1.2,2.7-2.8v-30.5c0-1.5-1.2-2.8-2.7-2.8H14.7Z"/>
    <rect class="st19" x="30" y="25.2" width="12" height="12" rx="2.4" ry="2.4"/>
    <path class="st12" d="M6,12.2h4v42"/>
    <path class="st31" d="M6,11.2h4v42"/>
    <g class="st17">
      <rect x="34" y="46.2" width="4" height="8"/>
      <rect x="40" y="46.2" width="4" height="8"/>
      <rect x="46" y="46.2" width="4" height="8"/>
      <rect x="52" y="46.2" width="4" height="8"/>
    </g>
    <g>
      <rect class="st27" x="34" y="45.2" width="4" height="8"/>
      <rect class="st27" x="40" y="45.2" width="4" height="8"/>
      <rect class="st27" x="46" y="45.2" width="4" height="8"/>
      <rect class="st27" x="52" y="45.2" width="4" height="8"/>
    </g>
    <g>
      <rect class="st38" x="32" y="22.2" width="2" height="4"/>
      <rect class="st38" x="38" y="22.2" width="2" height="4"/>
      <rect class="st38" x="32" y="36.2" width="2" height="4"/>
      <rect class="st38" x="38" y="36.2" width="2" height="4"/>
      <rect class="st38" x="41" y="27.2" width="4" height="2"/>
      <rect class="st38" x="41" y="33.2" width="4" height="2"/>
      <rect class="st38" x="27" y="27.2" width="4" height="2"/>
      <rect class="st38" x="27" y="33.2" width="4" height="2"/>
    </g>
    <path class="st10" d="M6,9.2c-1.1,0-2,.9-2,2,0,.2,0,.4,0,.5.2-.9,1.1-1.5,2-1.5h4c1.1,0,2,.9,2,2v-1c0-1.1-.9-2-2-2h-4Z"/>
    <path class="st10" d="M57.3,15.2H14.7c-1.5,0-2.7,1.2-2.7,2.8v1c0-1.5,1.2-2.8,2.7-2.8h42.7c1.5,0,2.7,1.2,2.7,2.8v-1c0-1.5-1.2-2.8-2.7-2.8Z"/>
  </g>
  <g class="st16">
    <path class="st8" d="M11.6,31.5h40.9c2,0,3.6,1.6,3.6,3.5v16.3c0,1.9-1.6,3.5-3.6,3.5H11.6c-2,0-3.6-1.6-3.6-3.5v-16.3c0-1.9,1.6-3.5,3.6-3.5Z"/>
    <path class="st26" d="M20,9.9v23.3c0,1.4-1.2,2.5-2.6,2.5h0c-1.4,0-2.6-1.1-2.6-2.5V9.9c0-1.4,1.2-2.5,2.6-2.5h0c1.4,0,2.6,1.1,2.6,2.5Z"/>
    <path class="st1" d="M11.6,30.7h40.9c2,0,3.6,1.6,3.6,3.5v16.3c0,1.9-1.6,3.5-3.6,3.5H11.6c-2,0-3.6-1.6-3.6-3.5v-16.3c0-1.9,1.6-3.5,3.6-3.5Z"/>
    <ellipse class="st8" cx="45.7" cy="43.2" rx="5.2" ry="5"/>
    <ellipse class="st29" cx="45.7" cy="42.3" rx="5.2" ry="5"/>
    <ellipse class="st8" cx="32" cy="43.2" rx="5.2" ry="5"/>
    <ellipse class="st20" cx="32" cy="42.3" rx="5.2" ry="5"/>
    <path class="st13" d="M17.4,7.4c-1.4,0-2.6,1.1-2.6,2.5v.8c0-1.4,1.1-2.5,2.6-2.5s2.6,1.1,2.6,2.5v-.8c0-1.4-1.1-2.5-2.6-2.5Z"/>
    <path class="st13" d="M11.6,30.7c-2,0-3.6,1.6-3.6,3.5v.8c0-1.9,1.6-3.5,3.6-3.5h40.9c2,0,3.6,1.6,3.6,3.5v-.8c0-1.9-1.6-3.5-3.6-3.5H11.6Z"/>
  </g>
  <g class="st16">
    <g>
      <rect class="st8" x="3.7" y="41.5" width="56" height="18" rx="2.5" ry="2.5"/>
      <rect class="st26" x="3.7" y="40.5" width="56" height="18" rx="2.5" ry="2.5"/>
      <path class="st7" d="M23.7,46.5l-4,6"/>
      <path class="st7" d="M17.7,46.5l-4,6"/>
      <path class="st7" d="M11.7,46.5l-4,6"/>
      <path class="st7" d="M29.7,46.5l-4,6"/>
      <circle class="st8" cx="40.2" cy="47" r="2.5"/>
      <circle class="st8" cx="47.2" cy="47" r="2.5"/>
      <circle class="st8" cx="54.2" cy="47" r="2.5"/>
      <circle class="st40" cx="40.2" cy="46" r="2.5"/>
      <circle class="st41" cx="47.2" cy="46" r="2.5"/>
      <circle class="st24" cx="54.2" cy="46" r="2.5"/>
    </g>
    <g>
      <rect class="st8" x="3.7" y="23.5" width="56" height="18" rx="2.5" ry="2.5"/>
      <rect class="st26" x="3.7" y="22.5" width="56" height="18" rx="2.5" ry="2.5"/>
      <path class="st7" d="M23.7,28.5l-4,6"/>
      <path class="st7" d="M17.7,28.5l-4,6"/>
      <path class="st7" d="M11.7,28.5l-4,6"/>
      <path class="st7" d="M29.7,28.5l-4,6"/>
      <circle class="st8" cx="40.2" cy="29" r="2.5"/>
      <circle class="st8" cx="47.2" cy="29" r="2.5"/>
      <circle class="st8" cx="54.2" cy="29" r="2.5"/>
      <circle class="st40" cx="40.2" cy="28" r="2.5"/>
      <circle class="st41" cx="47.2" cy="28" r="2.5"/>
      <circle class="st24" cx="54.2" cy="28" r="2.5"/>
    </g>
    <g>
      <rect class="st8" x="3.7" y="5.5" width="56" height="18" rx="2.5" ry="2.5"/>
      <rect class="st26" x="3.7" y="4.5" width="56" height="18" rx="2.5" ry="2.5"/>
      <path class="st7" d="M23.7,10.5l-4,6"/>
      <path class="st7" d="M17.7,10.5l-4,6"/>
      <path class="st7" d="M11.7,10.5l-4,6"/>
      <path class="st7" d="M29.7,10.5l-4,6"/>
      <circle class="st8" cx="39.2" cy="11" r="2.5"/>
      <circle class="st8" cx="47.2" cy="11" r="2.5"/>
      <circle class="st8" cx="54.2" cy="11" r="2.5"/>
      <circle class="st40" cx="39.2" cy="10" r="2.5"/>
      <circle class="st41" cx="47.2" cy="10" r="2.5"/>
      <circle class="st24" cx="54.2" cy="10" r="2.5"/>
      <path class="st10" d="M6.2,4.5c-1.4,0-2.5,1.1-2.5,2.5v1c0-1.4,1.1-2.5,2.5-2.5h51c1.4,0,2.5,1.1,2.5,2.5v-1c0-1.4-1.1-2.5-2.5-2.5H6.2Z"/>
    </g>
  </g>
  <g class="st16">
    <path class="st8" d="M32,7c-6,0-10.9,4.8-10.9,10.8v14.1h21.9v-14.1c0-6-4.9-10.8-10.9-10.8ZM32,12c3.3,0,5.9,2.5,5.9,5.8v9.1h-11.8v-9.1c0-3.3,2.6-5.8,5.9-5.8Z"/>
    <path class="st8" d="M56.4,51h0c0,1.4-1.1,2.5-2.4,2.5H10c-1.3,0-2.4-1.1-2.4-2.5h0c0-1.4,1.1-2.5,2.4-2.5h43.9c1.3,0,2.4,1.1,2.4,2.5Z"/>
    <rect class="st35" x="29.5" y="40.2" width="5.1" height="9.9"/>
    <path class="st37" d="M32,6.2c-6,0-10.9,4.8-10.9,10.8v14.1h21.9v-14.1c0-6-4.9-10.8-10.9-10.8ZM32,11.2c3.3,0,5.9,2.5,5.9,5.8v9.1h-11.8v-9.1c0-3.3,2.6-5.8,5.9-5.8Z"/>
    <path class="st8" d="M46.3,39.9v-15.9c0-1.1-.9-2-2-2h-24.5c-1.1,0-2,.9-2,2v15.9c0,1.1.9,2,2,2h24.5c1.1,0,2-.9,2-2Z"/>
    <path class="st0" d="M46.3,39v-15.9c0-1.1-.9-2-2-2h-24.5c-1.1,0-2,.9-2,2v15.9c0,1.1.9,2,2,2h24.5c1.1,0,2-.9,2-2Z"/>
    <rect class="st5" x="17.7" y="24.4" width="28.6" height="13.3"/>
    <path class="st35" d="M56.4,50.1h0c0,1.4-1.1,2.5-2.4,2.5H10c-1.3,0-2.4-1.1-2.4-2.5h0c0-1.4,1.1-2.5,2.4-2.5h43.9c1.3,0,2.4,1.1,2.4,2.5Z"/>
    <rect class="st36" x="23.6" y="46" width="16.8" height="8.3"/>
    <rect class="st8" x="23.6" y="54.3" width="16.8" height=".8"/>
    <rect class="st10" x="23.6" y="46" width="16.8" height=".8"/>
    <path class="st10" d="M32,6.2c-6,0-10.9,4.8-10.9,10.8v.8c0-6,4.9-10.8,10.9-10.8s10.9,4.8,10.9,10.8v-.8c0-6-4.9-10.8-10.9-10.8Z"/>
  </g>
  <g class="st16">
    <path class="st9" d="M0,0h63.7v64H0V0Z"/>
    <path class="st37" d="M39,42.3c.8.5,1.2.8,1.2.8.4,0,1.3-.8,2.9-2.3,1.6-1.6,2.3-2.5,2.3-2.9,0-.3-.1-.5-.3-.7-1.6-1.6-3.7-2.9-6.1-3.8-2.3-.9-4.8-1.4-7.2-1.4-2.4,0-4.8.5-7.2,1.4-2.4.9-4.5,2.2-6.1,3.8-.2.2-.3.4-.3.7,0,.4.8,1.3,2.3,2.9,1.6,1.6,2.5,2.3,2.9,2.3s.5-.3,1.3-.8,1.8-1,3.1-1.6c1.3-.5,2.6-.8,4-.8,1.4,0,2.7.3,4,.8,1.3.5,2.4,1,3.2,1.6h0ZM29,49.3c1.5,1.5,2.5,2.3,2.9,2.3s1.4-.8,2.9-2.3c1.5-1.5,2.3-2.5,2.3-2.9,0-.7-.6-1.2-1.9-1.7-1.3-.5-2.4-.7-3.2-.7s-1.9.2-3.2.7c-1.3.5-1.9,1-1.9,1.7s.8,1.4,2.3,2.9Z"/>
    <path class="st28" d="M48.8,34.6c-.3,0-.5,0-.7-.2-2.8-2.2-5.4-3.8-7.8-4.8-2.4-1-5.2-1.5-8.3-1.5s-3.5.2-5.3.7c-1.6.4-3.1.9-4.6,1.7-1.3.6-2.5,1.3-3.5,1.9-1,.6-1.9,1.2-2.5,1.7-.3.3-.6.5-1,.7-.4,0-1.3-.8-2.9-2.3-1.6-1.6-2.3-2.5-2.3-2.9s.1-.5.3-.7c2.7-2.8,6.1-4.9,10-6.4,3.9-1.5,7.8-2.3,11.8-2.3s7.9.8,11.8,2.3,7.2,3.7,10,6.4c.2.2.3.4.3.7,0,.4-.8,1.3-2.3,2.9-1.6,1.6-2.5,2.3-2.9,2.3Z"/>
    <path class="st32" d="M57.2,26.2c-.3,0-.5-.1-.7-.3-3.7-3.3-7.6-5.7-11.6-7.4-4-1.7-8.4-2.5-13.1-2.5s-9.1.8-13.1,2.5c-4,1.7-7.8,4.1-11.6,7.4-.2.2-.4.3-.7.3-.4,0-1.3-.8-2.9-2.3-1.6-1.6-2.3-2.5-2.3-2.9s.1-.5.3-.7c3.9-3.9,8.5-6.9,13.8-9,5.2-2.1,10.8-3.2,16.4-3.2,5.6,0,11,1.1,16.4,3.2,5.4,2.1,10,5.1,13.8,9,.2.2.3.4.3.7,0,.4-.8,1.3-2.3,2.9-1.6,1.6-2.5,2.3-2.9,2.3h0Z"/>
  </g>
  <g class="st16">
    <path class="st3" d="M60.1,52.3v-25.6c0-7.1-8-12.8-17.9-12.8h-21.5c-9.9,0-17.9,5.7-17.9,12.8v25.6c0,7.1,8,12.8,17.9,12.8h21.5c9.9,0,17.9-5.7,17.9-12.8Z"/>
    <path class="st15" d="M60.1,45.9V5.3c0-2.9-2.7-5.3-6-5.3H8.8C5.5,0,2.8,2.4,2.8,5.3v40.5c0,2.9,2.7,5.3,6,5.3h45.4c3.3,0,6-2.4,6-5.3Z"/>
    <path class="st26" d="M60.1,51.2v-25.6c0-7.1-8-12.8-17.9-12.8h-21.5c-9.9,0-17.9,5.7-17.9,12.8v25.6c0,7.1,8,12.8,17.9,12.8h21.5c9.9,0,17.9-5.7,17.9-12.8Z"/>
    <path class="st30" d="M11.7,6.4h39.4c1,0,1.8.7,1.8,1.6v37.3c0,.9-.8,1.6-1.8,1.6H11.7c-1,0-1.8-.7-1.8-1.6V8c0-.9.8-1.6,1.8-1.6Z"/>
    <ellipse class="st22" cx="15.9" cy="53.3" rx="3.6" ry="3.2"/>
    <ellipse class="st22" cx="45.8" cy="53.3" rx="3.6" ry="3.2"/>
    <rect class="st22" x="43.4" width="4.8" height="4.3"/>
    <ellipse class="st22" cx="31.5" cy="55.5" rx="4.8" ry="4.3"/>
    <path class="st11" d="M8.8,0C5.5,0,2.8,2.4,2.8,5.3v1.1c0-3,2.7-5.3,6-5.3h45.4c3.3,0,6,2.4,6,5.3v-1.1c0-3-2.7-5.3-6-5.3H8.8Z"/>
  </g>
  <g class="st16">
    <path class="st3" d="M14.2,1.1h35.6c1.7,0,3.1,1.4,3.1,3.2v57.5c0,1.8-1.4,3.2-3.1,3.2H14.2c-1.7,0-3.1-1.4-3.1-3.2V4.3c0-1.8,1.4-3.2,3.1-3.2Z"/>
    <path class="st14" d="M14.2,0c-1.7,0-3.1,1.4-3.1,3.2v3.2h41.9v-3.2c0-1.8-1.4-3.2-3.1-3.2H14.2ZM11.1,55.3v5.3c0,1.8,1.4,3.2,3.1,3.2h35.6c1.7,0,3.1-1.4,3.1-3.2v-5.3H11.1Z"/>
    <rect class="st30" x="11.1" y="6.4" width="41.9" height="49"/>
    <path class="st30" d="M28.1,2.1c-.7,0-1.3.5-1.3,1.1s.6,1.1,1.3,1.1h7.9c.7,0,1.3-.5,1.3-1.1s-.6-1.1-1.3-1.1h-7.9ZM40.4,2.1c-.6,0-1,.5-1,1.1s.5,1.1,1,1.1,1-.5,1-1.1-.5-1.1-1-1.1ZM30.4,56.4c-.9,0-1.6.7-1.6,1.6v3.2c0,.9.7,1.6,1.6,1.6h3.1c.9,0,1.6-.7,1.6-1.6v-3.2c0-.9-.7-1.6-1.6-1.6h-3.1ZM18.9,57.5c-.9,0-1.6.7-1.6,1.6s.7,1.6,1.6,1.6h3.1c.9,0,1.6-.7,1.6-1.6s-.7-1.6-1.6-1.6h-3.1ZM41.9,57.5c-.9,0-1.6.7-1.6,1.6s.7,1.6,1.6,1.6h3.1c.9,0,1.6-.7,1.6-1.6s-.7-1.6-1.6-1.6h-3.1Z"/>
    <path class="st4" d="M14.2,0c-1.7,0-3.1,1.4-3.1,3.2v1.1c0-1.8,1.4-3.2,3.1-3.2h35.6c1.7,0,3.1,1.4,3.1,3.2v-1.1c0-1.8-1.4-3.2-3.1-3.2H14.2Z"/>
    <rect class="st8" x="11.1" y="6.4" width="41.9" height="1.1"/>
  </g>
  <g class="st16">
    <path class="st37" d="M15.1,7.2c-1.3,0-2.4,1.1-2.4,2.5v14.9h38.5v-14.9c0-1.4-1.1-2.5-2.4-2.5H15.1Z"/>
    <path class="st10" d="M15.1,7.2c-1.3,0-2.4,1.1-2.4,2.5v.9c0-1.4,1.1-2.5,2.4-2.5h33.7c1.3,0,2.4,1.1,2.4,2.5v-.9c0-1.4-1.1-2.5-2.4-2.5H15.1Z"/>
    <g>
      <path class="st8" d="M56.5,53v-11.3c0-1.2-1-2.2-2.2-2.2H9.7c-1.2,0-2.2,1-2.2,2.2v11.3c0,1.2,1,2.2,2.2,2.2h44.6c1.2,0,2.2-1,2.2-2.2Z"/>
      <path class="st26" d="M56.5,52.1v-11.3c0-1.2-1-2.2-2.2-2.2H9.7c-1.2,0-2.2,1-2.2,2.2v11.3c0,1.2,1,2.2,2.2,2.2h44.6c1.2,0,2.2-1,2.2-2.2Z"/>
      <path class="st7" d="M25,43.9l-3.5,5.2"/>
      <path class="st7" d="M19.7,43.9l-3.5,5.2"/>
      <path class="st7" d="M14.5,43.9l-3.5,5.2"/>
      <path class="st7" d="M30.2,43.9l-3.5,5.2"/>
      <ellipse class="st8" cx="39.4" cy="44.3" rx="2.2" ry="2.2"/>
      <ellipse class="st8" cx="45.6" cy="44.3" rx="2.2" ry="2.2"/>
      <ellipse class="st8" cx="51.7" cy="44.3" rx="2.2" ry="2.2"/>
      <ellipse class="st40" cx="39.4" cy="43.4" rx="2.2" ry="2.2"/>
      <ellipse class="st41" cx="45.6" cy="43.4" rx="2.2" ry="2.2"/>
      <ellipse class="st24" cx="51.7" cy="43.4" rx="2.2" ry="2.2"/>
    </g>
    <path class="st8" d="M56.5,37v-16c0-1.4-1.1-2.5-2.5-2.5H9.9c-1.4,0-2.5,1.1-2.5,2.5v16c0,1.4,1.1,2.5,2.5,2.5h44.1c1.4,0,2.5-1.1,2.5-2.5Z"/>
    <path class="st1" d="M56.5,36.2v-16c0-1.4-1.1-2.5-2.5-2.5H9.9c-1.4,0-2.5,1.1-2.5,2.5v16c0,1.4,1.1,2.5,2.5,2.5h44.1c1.4,0,2.5-1.1,2.5-2.5Z"/>
    <rect class="st8" x="10.1" y="29" width="43.8" height="5.2"/>
    <path class="st8" d="M11.8,21.2h1.1c.9,0,1.6.7,1.6,1.6v1.1c0,.9-.7,1.6-1.6,1.6h-1.1c-.9,0-1.6-.7-1.6-1.6v-1.1c0-.9.7-1.6,1.6-1.6Z"/>
    <path class="st40" d="M11.8,20.3h1.1c.9,0,1.6.7,1.6,1.6v1.1c0,.9-.7,1.6-1.6,1.6h-1.1c-.9,0-1.6-.7-1.6-1.6v-1.1c0-.9.7-1.6,1.6-1.6Z"/>
    <path class="st13" d="M9.9,17.7c-1.4,0-2.5,1.1-2.5,2.5v.9c0-1.4,1.1-2.5,2.5-2.5h44.1c1.4,0,2.5,1.1,2.5,2.5v-.9c0-1.4-1.1-2.5-2.5-2.5H9.9Z"/>
    <path class="st10" d="M11.8,20.3c-.9,0-1.6.7-1.6,1.6v.9c0-.9.7-1.6,1.6-1.6h1.1c.9,0,1.6.7,1.6,1.6v-.9c0-.9-.7-1.6-1.6-1.6h-1.1Z"/>
  </g>
  <g>
    <path class="st3" d="M57.1,61.7V4.3c0-1.8-1.4-3.2-3.1-3.2H9.9c-1.7,0-3.1,1.4-3.1,3.2v57.4c0,1.8,1.4,3.2,3.1,3.2h44.1c1.7,0,3.1-1.4,3.1-3.2Z"/>
    <path class="st2" d="M57.1,60.6V3.2c0-1.8-1.4-3.2-3.1-3.2H9.9c-1.7,0-3.1,1.4-3.1,3.2v57.4c0,1.8,1.4,3.2,3.1,3.2h44.1c1.7,0,3.1-1.4,3.1-3.2Z"/>
    <rect class="st37" x="14.6" y="8" width="34.7" height="47.8"/>
    <path class="st8" d="M1.6,20.5h60.6c.9,0,1.6.8,1.6,1.7v3.4c0,.9-.7,1.7-1.6,1.7H1.6c-.9,0-1.6-.8-1.6-1.7v-3.4c0-.9.7-1.7,1.6-1.7Z"/>
    <path class="st39" d="M1.6,19.4h60.6c.9,0,1.6.8,1.6,1.7v3.4c0,.9-.7,1.7-1.6,1.7H1.6c-.9,0-1.6-.8-1.6-1.7v-3.4c0-.9.7-1.7,1.6-1.7Z"/>
    <rect class="st8" x="14.6" y="55.8" width="34.7" height="1.1"/>
    <rect class="st10" x="14.6" y="8" width="34.7" height="1.1"/>
    <path class="st4" d="M9.9,0c-1.7,0-3.1,1.4-3.1,3.2v1.1c0-1.8,1.4-3.2,3.1-3.2h44.1c1.7,0,3.1,1.4,3.1,3.2v-1.1c0-1.8-1.4-3.2-3.1-3.2H9.9Z"/>
  </g>
</svg>
