<?xml version="1.0" encoding="UTF-8"?>
<svg id="_图层_1" xmlns="http://www.w3.org/2000/svg" version="1.1" viewBox="0 0 64 64" width="48" height="48">
  <!-- Generator: Adobe Illustrator 29.0.1, SVG Export Plug-In . SVG Version: 2.1.0 Build 192)  -->
  <defs>
    <style>
      .st0, .st1, .st2 {
        display: none;
      }

      .st0, .st1, .st3 {
        isolation: isolate;
      }

      .st0, .st3 {
        opacity: .2;
      }

      .st1 {
        opacity: .1;
      }

      .st1, .st4 {
        fill: #fff;
      }

      .st2, .st5 {
        fill: #c061cb;
      }
    </style>
  </defs>
  <path class="st5" d="M50.4,64H13.8c-7.6,0-13.8-6.2-13.8-13.7V13.7C0,6.2,6.2,0,13.7,0h36.6c7.5,0,13.7,6.2,13.7,13.7v36.6c0,7.5-6.2,13.7-13.7,13.7h.1Z"/>
  <g>
    <ellipse class="st0" cx="32" cy="33.2" rx="32" ry="32.1"/>
    <ellipse class="st2" cx="32" cy="32.1" rx="32" ry="32.1"/>
    <path class="st3" d="M26.1,17.2c-2.9.5-5.8,1.4-8.4,2.7,0,0,0,0,0,0-5.3,8.2-6.8,16.1-6.1,24,0,0,0,0,0,0,3.5,2.6,6.9,4.3,10.3,5.3,0,0,.1,0,.1,0,.8-1.1,1.5-2,2.1-3.2,0,0,0-.2,0-.2-1.1-.4-2.2-1-3.2-1.6,0,0,0-.2,0-.2.2-.2.4-.3.6-.5,0,0,0,0,.1,0,6.7,3.1,14,3.1,20.7,0,0,0,0,0,.1,0,.2.2.4.3.6.5,0,0,0,.2,0,.2-1,.6-2.1,1.1-3.2,1.6,0,0-.1.1,0,.2.6,1.2,1.3,2.1,2.1,3.2,0,0,0,0,.1,0,3.4-1.1,6.8-2.7,10.3-5.3,0,0,0,0,0,0,.9-9.1-1.4-17-6.1-24,0,0,0,0,0,0-2.6-1.2-5.4-2.1-8.4-2.7,0,0-.1,0-.1,0-.4.7-.8.7-1,1.4-3.2-.5-6.3-.5-9.4,0-.3-.7-.7-.8-1.1-1.4,0,0,0,0-.1,0ZM24.5,32.1c2.2,0,4,1.8,4,4,0,2.2-1.8,4-4,4s-4-1.8-4-4,1.8-4,4-4ZM39.4,32.1c2.2,0,4,1.8,4,4,0,2.2-1.8,4-4,4s-4-1.8-4-4,1.8-4,4-4Z"/>
    <path class="st4" d="M26.1,16.1c-2.9.5-5.8,1.4-8.4,2.7,0,0,0,0,0,0-5.3,8.2-6.8,16.1-6.1,24,0,0,0,0,0,0,3.5,2.6,6.9,4.3,10.3,5.3,0,0,.1,0,.1,0,.8-1.1,1.5-2,2.1-3.2,0,0,0-.2,0-.2-1.1-.4-2.2-1-3.2-1.6,0,0,0-.2,0-.2.2-.2.4-.3.6-.5,0,0,0,0,.1,0,6.7,3.1,14,3.1,20.7,0,0,0,0,0,.1,0,.2.2.4.3.6.5,0,0,0,.2,0,.2-1,.6-2.1,1.1-3.2,1.6,0,0-.1.1,0,.2.6,1.2,1.3,2.1,2.1,3.2,0,0,0,0,.1,0,3.4-1.1,6.8-2.7,10.3-5.3,0,0,0,0,0,0,.9-9.1-1.4-17-6.1-24,0,0,0,0,0,0-2.6-1.2-5.4-2.1-8.4-2.7,0,0-.1,0-.1,0-.4.7-.8.7-1,1.4-3.2-.5-6.3-.5-9.4,0-.3-.7-.7-.8-1.1-1.4,0,0,0,0-.1,0ZM24.5,31c2.2,0,4,1.8,4,4,0,2.2-1.8,4-4,4s-4-1.8-4-4,1.8-4,4-4ZM39.4,31c2.2,0,4,1.8,4,4,0,2.2-1.8,4-4,4s-4-1.8-4-4,1.8-4,4-4Z"/>
    <path class="st1" d="M32,0C14.3,0,0,14.4,0,32.1c0,.2,0,.4,0,.6C.3,15.2,14.5,1.1,32,1.1c17.5,0,31.7,14,32,31.5,0-.2,0-.4,0-.6C64,14.4,49.7,0,32,0Z"/>
  </g>
</svg>