<?xml version="1.0" encoding="UTF-8" standalone="no"?>
<svg
   id="_图层_1"
   version="1.1"
   viewBox="0 0 64 64" width="48" height="48"
   sodipodi:docname="solarus-launcher.svg"
   xml:space="preserve"
   inkscape:version="1.4 (e7c3feb100, 2024-10-09)"
   xmlns:inkscape="http://www.inkscape.org/namespaces/inkscape"
   xmlns:sodipodi="http://sodipodi.sourceforge.net/DTD/sodipodi-0.dtd"
   xmlns:xlink="http://www.w3.org/1999/xlink"
   xmlns="http://www.w3.org/2000/svg"
   xmlns:svg="http://www.w3.org/2000/svg"><sodipodi:namedview
     id="namedview26"
     pagecolor="#505050"
     bordercolor="#eeeeee"
     borderopacity="1"
     inkscape:showpageshadow="0"
     inkscape:pageopacity="0"
     inkscape:pagecheckerboard="0"
     inkscape:deskcolor="#505050"
     inkscape:zoom="10.6875"
     inkscape:cx="32"
     inkscape:cy="32"
     inkscape:window-width="1920"
     inkscape:window-height="939"
     inkscape:window-x="0"
     inkscape:window-y="34"
     inkscape:window-maximized="1"
     inkscape:current-layer="_图层_1" /><!-- Generator: Adobe Illustrator 29.0.1, SVG Export Plug-In . SVG Version: 2.1.0 Build 192)  --><defs
     id="defs6"><style
       id="style1">
      .st0 {
        fill-opacity: .5;
      }

      .st0, .st1, .st2, .st3, .st4, .st5, .st6, .st7 {
        fill: #fff;
      }

      .st8 {
        fill: #133c9a;
      }

      .st2, .st9 {
        display: none;
      }

      .st3 {
        fill-opacity: .2;
      }

      .st4 {
        fill-opacity: .9;
      }

      .st10 {
        fill: #3370ff;
      }

      .st11 {
        fill: url(#_未命名的渐变_3);
      }

      .st12 {
        fill: url(#_未命名的渐变);
      }

      .st5 {
        fill-opacity: .3;
      }

      .st6 {
        fill-opacity: 0;
      }

      .st7 {
        fill-opacity: .7;
      }

      .st13 {
        fill: #00d6b9;
      }

      .st14 {
        fill: url(#_未命名的渐变_2);
      }
    </style><radialGradient
       id="_未命名的渐变"
       data-name="未命名的渐变"
       cx="123.9"
       cy="-40.2"
       fx="123.9"
       fy="-40.2"
       r="59.4"
       gradientTransform="translate(-26.8 25.5) scale(.6 -.7)"
       gradientUnits="userSpaceOnUse"><stop
         offset="0"
         stop-color="#db202e"
         id="stop1" /><stop
         offset="1"
         stop-color="#e01b24"
         id="stop2" /></radialGradient><radialGradient
       id="_未命名的渐变_2"
       data-name="未命名的渐变 2"
       cx="67.6"
       cy="26.8"
       fx="67.6"
       fy="26.8"
       r="105.2"
       gradientTransform="translate(-26.6 25.3) scale(.6 -.7)"
       gradientUnits="userSpaceOnUse"><stop
         offset="0"
         stop-color="#ffb648"
         id="stop3" /><stop
         offset="1"
         stop-color="#ff7800"
         stop-opacity="0"
         id="stop4" /></radialGradient><radialGradient
       id="_未命名的渐变_3"
       data-name="未命名的渐变 3"
       cx="61.7"
       cy="18.6"
       fx="61.7"
       fy="18.6"
       r="68"
       gradientTransform="translate(-26.8 25.8) scale(.6 -.7)"
       gradientUnits="userSpaceOnUse"><stop
         offset="0"
         stop-color="#c64600"
         id="stop5" /><stop
         offset="1"
         stop-color="#a51d2d"
         id="stop6" /></radialGradient><linearGradient
       id="linearGradient1261"><stop
         style="stop-color:#4f4f4f"
         offset="0"
         id="stop1-7" /><stop
         style="stop-color:#3f3f3f"
         offset="1"
         id="stop2-0" /></linearGradient><linearGradient
       id="linearGradient1263"
       x1="34.241"
       x2="37.169"
       y1="38.945"
       y2="30.342"
       gradientTransform="matrix(1.3919157,0,0,1.3888889,-1.321022,-0.4865665)"
       gradientUnits="userSpaceOnUse"
       xlink:href="#linearGradient1261" /></defs><path
     class="st1"
     d="M47.5,64.1H13.8c-7.6,0-13.8-6.3-13.8-13.8V13.7C0,6.2,6.2,0,13.7,0h36.6c7.5,0,13.7,6.2,13.7,13.7v36.6c0,7.5-6.2,13.7-13.7,13.7h-2.9.1Z"
     id="path6"
     style="fill:#ffa800;fill-opacity:1" /><g
     id="g26"
     transform="matrix(1.0777084,0,0,1.1904762,-1.9010308,-12.18797)"><rect
       style="fill:#ffa800"
       width="32"
       height="23"
       x="15.5"
       y="23"
       id="rect1" /><circle
       style="fill:#ffa800"
       cx="15.5"
       cy="36.5"
       r="13.5"
       id="circle1" /><circle
       style="fill:#ffa800"
       cx="47.5"
       cy="36.5"
       r="13.5"
       id="circle2" /><path
       style="opacity:0.2"
       d="M 14.25,29 C 13.5575,29 13,29.631182 13,30.416016 V 35 H 8.4160156 C 7.6311823,35 7,35.5575 7,36.25 v 2.5 C 7,39.4425 7.6311823,40 8.4160156,40 H 13 v 4.583984 C 13,45.368818 13.5575,46 14.25,46 h 2.5 C 17.4425,46 18,45.368818 18,44.583984 V 40 h 4.583984 C 23.368818,40 24,39.4425 24,38.75 v -2.5 C 24,35.5575 23.368818,35 22.583984,35 H 18 V 30.416016 C 18,29.631182 17.4425,29 16.75,29 Z M 47.5,29 A 2.5,2.5 0 0 0 45,31.5 2.5,2.5 0 0 0 47.5,34 2.5,2.5 0 0 0 50,31.5 2.5,2.5 0 0 0 47.5,29 Z m -6,6 A 2.5,2.5 0 0 0 39,37.5 2.5,2.5 0 0 0 41.5,40 2.5,2.5 0 0 0 44,37.5 2.5,2.5 0 0 0 41.5,35 Z m 12,0 A 2.5,2.5 0 0 0 51,37.5 2.5,2.5 0 0 0 53.5,40 2.5,2.5 0 0 0 56,37.5 2.5,2.5 0 0 0 53.5,35 Z m -6,6 A 2.5,2.5 0 0 0 45,43.5 2.5,2.5 0 0 0 47.5,46 2.5,2.5 0 0 0 50,43.5 2.5,2.5 0 0 0 47.5,41 Z"
       id="path2" /><rect
       style="fill:#ffffff"
       width="5"
       height="17"
       x="13"
       y="28"
       rx="1.25"
       ry="1.4170001"
       id="rect2" /><rect
       style="fill:#ffffff"
       width="5"
       height="17"
       x="34"
       y="-24"
       rx="1.25"
       ry="1.4170001"
       transform="rotate(90)"
       id="rect3" /><circle
       style="fill:#ffffff"
       cx="47.5"
       cy="30.5"
       r="2.5"
       id="circle3" /><circle
       style="fill:#ffffff"
       cx="47.5"
       cy="42.5"
       r="2.5"
       id="circle4" /><circle
       style="fill:#ffffff"
       cx="36.5"
       cy="-53.5"
       r="2.5"
       transform="rotate(90)"
       id="circle5" /><circle
       style="fill:#ffffff"
       cx="36.5"
       cy="-41.5"
       r="2.5"
       transform="rotate(90)"
       id="circle6" /></g></svg>
