<?xml version="1.0" encoding="UTF-8"?>
<svg id="_图层_1" xmlns="http://www.w3.org/2000/svg" version="1.1" viewBox="0 0 64 64" width="48" height="48">
  <!-- Generator: Adobe Illustrator 29.0.1, SVG Export Plug-In . SVG Version: 2.1.0 Build 192)  -->
  <defs>
    <style>
      .st0 {
        fill: #cd5252;
      }

      .st1 {
        fill: #4f4f4f;
      }

      .st2, .st3, .st4 {
        fill: #fff;
      }

      .st5 {
        fill: #303030;
      }

      .st6, .st7, .st3, .st4 {
        isolation: isolate;
      }

      .st6, .st3 {
        opacity: .2;
      }

      .st7 {
        opacity: .5;
      }

      .st8 {
        fill: #e4e4e4;
      }

      .st9 {
        fill: #f5432a;
      }

      .st4 {
        opacity: .1;
      }
    </style>
  </defs>
  <path class="st8" d="M50.4,64H13.8c-7.6,0-13.8-6.2-13.8-13.7V13.7C0,6.2,6.2,0,13.7,0h36.6c7.5,0,13.7,6.2,13.7,13.7v36.6c0,7.5-6.2,13.7-13.7,13.7h.1Z"/>
  <g>
    <path class="st6" d="M7.4,49.6v1.6c0,1.2,1.1,2.2,2.4,2.2h2.3c1.3,0,2.4-1,2.4-2.2v-1.6c0,1.2-1.1,2.2-2.4,2.2h-2.3c-1.3,0-2.4-1-2.4-2.2ZM50.6,49.6v1.6c0,1.2,1.1,2.2,2.4,2.2h2.3c1.3,0,2.4-1,2.4-2.2v-1.6c0,1.2-1.1,2.2-2.4,2.2h-2.3c-1.3,0-2.4-1-2.4-2.2h0Z"/>
    <path class="st5" d="M9.8,39.6c-1.3,0-2.4,1-2.4,2.2v8.7c0,1.2,1.1,2.2,2.4,2.2h2.3c1.3,0,2.4-1,2.4-2.2v-8.7c0-1.2-1.1-2.2-2.4-2.2,0,0-2.3,0-2.3,0ZM53,39.6c-1.3,0-2.4,1-2.4,2.2v8.7c0,1.2,1.1,2.2,2.4,2.2h2.3c1.3,0,2.4-1,2.4-2.2v-8.7c0-1.2-1.1-2.2-2.4-2.2h-2.3,0Z"/>
    <path class="st1" d="M32.6,6.9c-9.3,0-16.8,6.7-16.8,14.9s.2,2.8.7,4.2c0,0-2.6,8.3-1.7,12.5.2,1.2.7,2.4,1.4,3.4,2.6-3.1,9.1-5.2,16.5-5.2,7.4,0,13.9,2.1,16.5,5.2.7-1.1,1.2-2.2,1.4-3.4.8-4.1-1.7-12.5-1.7-12.5.4-1.3.7-2.7.7-4.2,0-8.2-7.5-14.9-16.8-14.9h0Z"/>
    <ellipse class="st6" cx="23.6" cy="19.1" rx="3.6" ry="3.3"/>
    <ellipse class="st2" cx="23.6" cy="18.3" rx="3.6" ry="3.3"/>
    <ellipse class="st6" cx="41.6" cy="19.1" rx="3.6" ry="3.3"/>
    <ellipse class="st2" cx="41.6" cy="18.3" rx="3.6" ry="3.3"/>
    <ellipse class="st2" cx="32.6" cy="35.5" rx="12.6" ry="12.6"/>
    <ellipse class="st5" cx="23.6" cy="18.3" rx="1.8" ry="1.6"/>
    <ellipse class="st5" cx="41.6" cy="18.3" rx="1.8" ry="1.6"/>
    <path class="st6" d="M29,21.6h7.2c-.6,5-3.6,9.8-3.6,9.8,0,0-3.6-5.7-3.6-9.8Z"/>
    <path class="st0" d="M29,19.9h7.2c-.6,5-3.6,9.8-3.6,9.8,0,0-3.6-5.7-3.6-9.8Z"/>
    <path class="st5" d="M32.6,29.8c-4,0-7.2,2.9-7.2,6.5s3.2,6.5,7.2,6.5,7.2-2.9,7.2-6.5-3.2-6.5-7.2-6.5ZM32.6,32.4c1,0,2,.3,2.8.9l-2.8,1.5-2.8-1.5c.8-.6,1.8-.9,2.8-.9h0ZM36.8,35.6c0,.2,0,.5,0,.7,0,1.7-1.2,3.1-2.9,3.7v-2.9l2.8-1.5h0ZM28.3,35.6l2.8,1.5v2.9c-1.7-.6-2.9-2-2.9-3.7,0-.2,0-.5,0-.7h0Z"/>
    <path class="st6" d="M14.7,44.2c-.1.3-.2.7-.2,1.1h1.1s-.6-.5-.9-1.1h0ZM50.4,44.2c-.3.6-.9,1.1-.9,1.1h1.1c0-.4,0-.7-.2-1.1h0ZM9.2,50.2v1.6h11.1c3.3,1.5,7.7,1.6,12.3,1.6,4.6,0,9-.1,12.3-1.6h11.1v-1.6h-11.1c-3.3,1.5-7.7,1.6-12.3,1.6-4.6,0-9-.1-12.3-1.6h-11.1,0Z"/>
    <path class="st9" d="M32.6,36.3c-9.7,0-18,3.7-18,8.2,0,.8,1.1,1.6,1.1,1.6h-6.5v4.9h11.1c3.3,1.5,7.7,1.6,12.3,1.6,4.6,0,9-.1,12.3-1.6h11.1v-4.9h-6.5s1.1-.8,1.1-1.6c0-4.5-8.3-8.2-18-8.2Z"/>
    <path class="st1" d="M16.9,26.2c1.7-1.6,6.2-1.3,10,.7s5.5,4.8,3.7,6.4-6.2,1.3-10-.7-5.5-4.8-3.7-6.4Z"/>
    <path class="st1" d="M48.3,26.2c-1.7-1.6-6.2-1.3-10,.7s-5.5,4.8-3.7,6.4,6.2,1.3,10-.7,5.5-4.8,3.7-6.4Z"/>
    <ellipse class="st6" cx="22.7" cy="44.6" rx="2.7" ry="2.3"/>
    <ellipse class="st2" cx="22.7" cy="43.8" rx="2.7" ry="2.3"/>
    <ellipse class="st6" cx="42.5" cy="44.6" rx="2.7" ry="2.3"/>
    <ellipse class="st2" cx="42.5" cy="43.8" rx="2.7" ry="2.3"/>
    <path class="st7" d="M32,41.2c-.3,0-.6.7-.6,1.6v3.3c0,.9.3,1.6.6,1.6s.6-.7.6-1.6v-3.3c0-.9-.3-1.6-.6-1.6h0ZM29.6,42.3c-.3,0-.6.5-.6,1.1v2.2c0,.6.3,1.1.6,1.1s.6-.5.6-1.1v-2.2c0-.6-.3-1.1-.6-1.1h0Z"/>
    <path class="st7" d="M33.2,41.2c.3,0,.6.7.6,1.6v3.3c0,.9-.3,1.6-.6,1.6s-.6-.7-.6-1.6v-3.3c0-.9.3-1.6.6-1.6h0ZM35.6,42.3c.3,0,.6.5.6,1.1v2.2c0,.6-.3,1.1-.6,1.1s-.6-.5-.6-1.1v-2.2c0-.6.3-1.1.6-1.1h0Z"/>
    <path class="st3" d="M32.6,36.3c-9.7,0-18,3.7-18,8.2,0,0,0,.2,0,.3.6-4.3,8.6-7.6,17.9-7.6s17.3,3.4,18,7.6c0,0,0-.2,0-.3,0-4.5-8.3-8.2-18-8.2h0Z"/>
    <path class="st3" d="M9.2,46.1v.8h6.5s-.4-.4-.8-.8h-5.7Z"/>
    <path class="st3" d="M50.2,46.1c-.3.5-.8.8-.8.8h6.5v-.8h-5.7Z"/>
    <path class="st4" d="M53,39.6c-1.3,0-2.4,1-2.4,2.2v.8c0-1.2,1.1-2.2,2.4-2.2h2.3c1.3,0,2.4,1,2.4,2.2v-.8c0-1.2-1.1-2.2-2.4-2.2h-2.3ZM9.8,39.6c-1.3,0-2.4,1-2.4,2.2v.8c0-1.2,1.1-2.2,2.4-2.2h2.3c1.3,0,2.4,1,2.4,2.2v-.8c0-1.2-1.1-2.2-2.4-2.2h-2.3Z"/>
    <path class="st4" d="M32.6,6.9c-9.3,0-16.8,6.7-16.8,14.9s0,.3,0,.5c.2-8.1,7.7-14.6,16.8-14.6s16.6,6.5,16.8,14.6c0-.2,0-.3,0-.5,0-8.2-7.5-14.9-16.8-14.9ZM48.8,26.4c0,.1,0,.3-.1.4,0,0,1.8,5.8,1.9,10.1.1-4-1.5-9.6-1.8-10.5ZM16.3,26.4c-.3,1-1.9,6.5-1.8,10.5.1-4.3,1.9-10.1,1.9-10.1,0-.1,0-.3-.1-.4Z"/>
  </g>
</svg>