<?xml version="1.0" encoding="UTF-8" standalone="no"?>
<svg
   id="_图层_1"
   version="1.1"
   viewBox="0 0 64 64" width="48" height="48"
   sodipodi:docname="synapse.svg"
   xml:space="preserve"
   inkscape:version="1.4 (e7c3feb100, 2024-10-09)"
   xmlns:inkscape="http://www.inkscape.org/namespaces/inkscape"
   xmlns:sodipodi="http://sodipodi.sourceforge.net/DTD/sodipodi-0.dtd"
   xmlns:xlink="http://www.w3.org/1999/xlink"
   xmlns="http://www.w3.org/2000/svg"
   xmlns:svg="http://www.w3.org/2000/svg"><sodipodi:namedview
     id="namedview26"
     pagecolor="#505050"
     bordercolor="#eeeeee"
     borderopacity="1"
     inkscape:showpageshadow="0"
     inkscape:pageopacity="0"
     inkscape:pagecheckerboard="0"
     inkscape:deskcolor="#505050"
     inkscape:zoom="10.6875"
     inkscape:cx="32"
     inkscape:cy="39.48538"
     inkscape:window-width="1920"
     inkscape:window-height="939"
     inkscape:window-x="0"
     inkscape:window-y="34"
     inkscape:window-maximized="1"
     inkscape:current-layer="_图层_1" /><!-- Generator: Adobe Illustrator 29.0.1, SVG Export Plug-In . SVG Version: 2.1.0 Build 192)  --><defs
     id="defs6"><style
       id="style1">
      .st0 {
        fill-opacity: .5;
      }

      .st0, .st1, .st2, .st3, .st4, .st5, .st6, .st7 {
        fill: #fff;
      }

      .st8 {
        fill: #133c9a;
      }

      .st2, .st9 {
        display: none;
      }

      .st3 {
        fill-opacity: .2;
      }

      .st4 {
        fill-opacity: .9;
      }

      .st10 {
        fill: #3370ff;
      }

      .st11 {
        fill: url(#_未命名的渐变_3);
      }

      .st12 {
        fill: url(#_未命名的渐变);
      }

      .st5 {
        fill-opacity: .3;
      }

      .st6 {
        fill-opacity: 0;
      }

      .st7 {
        fill-opacity: .7;
      }

      .st13 {
        fill: #00d6b9;
      }

      .st14 {
        fill: url(#_未命名的渐变_2);
      }
    </style><radialGradient
       id="_未命名的渐变"
       data-name="未命名的渐变"
       cx="123.9"
       cy="-40.2"
       fx="123.9"
       fy="-40.2"
       r="59.4"
       gradientTransform="translate(-26.8 25.5) scale(.6 -.7)"
       gradientUnits="userSpaceOnUse"><stop
         offset="0"
         stop-color="#db202e"
         id="stop1" /><stop
         offset="1"
         stop-color="#e01b24"
         id="stop2" /></radialGradient><radialGradient
       id="_未命名的渐变_2"
       data-name="未命名的渐变 2"
       cx="67.6"
       cy="26.8"
       fx="67.6"
       fy="26.8"
       r="105.2"
       gradientTransform="translate(-26.6 25.3) scale(.6 -.7)"
       gradientUnits="userSpaceOnUse"><stop
         offset="0"
         stop-color="#ffb648"
         id="stop3" /><stop
         offset="1"
         stop-color="#ff7800"
         stop-opacity="0"
         id="stop4" /></radialGradient><radialGradient
       id="_未命名的渐变_3"
       data-name="未命名的渐变 3"
       cx="61.7"
       cy="18.6"
       fx="61.7"
       fy="18.6"
       r="68"
       gradientTransform="translate(-26.8 25.8) scale(.6 -.7)"
       gradientUnits="userSpaceOnUse"><stop
         offset="0"
         stop-color="#c64600"
         id="stop5" /><stop
         offset="1"
         stop-color="#a51d2d"
         id="stop6" /></radialGradient><linearGradient
       id="linearGradient1261"><stop
         style="stop-color:#4f4f4f"
         offset="0"
         id="stop1-7" /><stop
         style="stop-color:#3f3f3f"
         offset="1"
         id="stop2-0" /></linearGradient><linearGradient
       id="linearGradient1263"
       x1="34.241"
       x2="37.169"
       y1="38.945"
       y2="30.342"
       gradientTransform="matrix(1.3919157,0,0,1.3888889,-1.321022,-0.4865665)"
       gradientUnits="userSpaceOnUse"
       xlink:href="#linearGradient1261" /></defs><path
     class="st1"
     d="M47.5,64.1H13.8c-7.6,0-13.8-6.3-13.8-13.8V13.7C0,6.2,6.2,0,13.7,0h36.6c7.5,0,13.7,6.2,13.7,13.7v36.6c0,7.5-6.2,13.7-13.7,13.7h-2.9.1Z"
     id="path6"
     style="fill:#20b293;fill-opacity:1" /><g
     id="g26"
     transform="matrix(1.1263979,0,0,1.1193789,-4.5611471,-3.445856)"><path
       style="opacity:0.2"
       d="m 31.00025,14 v 4.080078 A 14.5,14.5 0 0 0 18.219,30 h 3.064453 a 11.5,11.5 0 0 1 11.216797,-9 11.5,11.5 0 0 1 11.208984,9 h 3.058594 A 14.5,14.5 0 0 0 34.00025,18.083984 V 14 Z m 1.5,10 a 8.5,8.5 0 0 0 -8.5,8.5 8.5,8.5 0 0 0 0.140625,1.5 h 0.859375 2.210938 10.574218 a 5.5,5.5 0 0 1 -5.285156,4 5.5,5.5 0 0 1 -4.236328,-2 h -3.5 a 8.5,8.5 0 0 0 7.736328,5 8.5,8.5 0 0 0 8.5,-8.5 A 8.5,8.5 0 0 0 40.859625,31 H 40.00025 37.789312 27.215094 a 5.5,5.5 0 0 1 5.285156,-4 5.5,5.5 0 0 1 4.236328,2 h 3.5 A 8.5,8.5 0 0 0 32.50025,24 Z M 18.232672,35 A 14.5,14.5 0 0 0 31.00025,46.916016 V 51 h 3 V 46.919922 A 14.5,14.5 0 0 0 46.7815,35 H 43.717047 A 11.5,11.5 0 0 1 32.50025,44 11.5,11.5 0 0 1 21.291266,35 Z"
       id="path2" /><path
       style="fill:#ffffff"
       d="m 31.00025,13 v 4.080078 A 14.5,14.5 0 0 0 18.219,29 h 3.064453 a 11.5,11.5 0 0 1 11.216797,-9 11.5,11.5 0 0 1 11.208984,9 h 3.058594 A 14.5,14.5 0 0 0 34.00025,17.083984 V 13 Z m 1.5,10 a 8.5,8.5 0 0 0 -8.5,8.5 8.5,8.5 0 0 0 0.140625,1.5 h 0.859375 2.210938 10.574218 a 5.5,5.5 0 0 1 -5.285156,4 5.5,5.5 0 0 1 -4.236328,-2 h -3.5 a 8.5,8.5 0 0 0 7.736328,5 8.5,8.5 0 0 0 8.5,-8.5 A 8.5,8.5 0 0 0 40.859625,30 H 40.00025 37.789312 27.215094 a 5.5,5.5 0 0 1 5.285156,-4 5.5,5.5 0 0 1 4.236328,2 h 3.5 A 8.5,8.5 0 0 0 32.50025,23 Z M 18.232672,34 A 14.5,14.5 0 0 0 31.00025,45.916016 V 50 h 3 V 45.919922 A 14.5,14.5 0 0 0 46.7815,34 H 43.717047 A 11.5,11.5 0 0 1 32.50025,43 11.5,11.5 0 0 1 21.291266,34 Z"
       id="path3" /></g></svg>
