<?xml version="1.0" encoding="UTF-8"?>
<svg id="_图层_1" xmlns="http://www.w3.org/2000/svg" version="1.1" viewBox="0 0 64 64" width="48" height="48">
  <!-- Generator: Adobe Illustrator 29.0.1, SVG Export Plug-In . SVG Version: 2.1.0 Build 192)  -->
  <defs>
    <style>
      .st0 {
        fill: #5db43e;
      }

      .st0, .st1, .st2, .st3, .st4 {
        display: none;
      }

      .st1, .st5, .st6, .st4 {
        isolation: isolate;
      }

      .st1, .st6, .st4 {
        opacity: .2;
      }

      .st7, .st4 {
        fill: #fff;
      }

      .st8 {
        fill: #173a4d;
      }

      .st9, .st2 {
        fill: #17aeff;
      }

      .st5 {
        opacity: .1;
      }
    </style>
  </defs>
  <path class="st9" d="M50.5,64H13.9c-7.6,0-13.9-6.2-13.9-13.7V13.7C0,6.2,6.3,0,13.8,0h36.6c7.5,0,13.7,6.2,13.7,13.7v36.6c0,7.5-6.2,13.7-13.7,13.7h.1Z"/>
  <g class="st3">
    <path class="st1" d="M31.9,1.1h0c17.6,0,31.9,14.4,31.9,32.1h0c0,17.7-14.3,32.1-31.9,32.1h0C14.3,65.3,0,50.9,0,33.2h0C0,15.5,14.3,1.1,31.9,1.1Z"/>
    <path class="st0" d="M31.9,0h0c17.6,0,31.9,14.4,31.9,32.1h0c0,17.7-14.3,32.1-31.9,32.1h0C14.3,64.1,0,49.8,0,32.1h0C0,14.4,14.3,0,31.9,0Z"/>
    <path class="st6" d="M17.1,12.6c-2.3,0-3.4,1.1-3.4,3.4s1,3.4,3.4,3.4c17,0,28.5,11.5,28.5,28.6s1.2,3.4,3.4,3.4,3.4-1.4,3.4-3.4c0-20.9-14.6-35.5-35.3-35.5ZM43.3,12.6l9.1,9.2v-4.6c0-2.5-2-4.6-4.6-4.6h-4.6ZM17.1,26.3c-2.2,0-3.4,1-3.4,3.4s1,3.4,3.4,3.4c9.4,0,14.8,5.4,14.8,14.9s1.2,3.4,3.4,3.4,3.4-1.2,3.4-3.4c0-13.3-8.4-21.8-21.6-21.8ZM18.2,40.1c-3.8,0-6.8,3.1-6.8,6.9s3.1,6.9,6.8,6.9,6.8-3.1,6.8-6.9-3.1-6.9-6.8-6.9Z"/>
    <path class="st7" d="M17.1,11.4c-2.3,0-3.4,1.1-3.4,3.4s1,3.4,3.4,3.4c17,0,28.5,11.5,28.5,28.6s1.2,3.4,3.4,3.4,3.4-1.4,3.4-3.4c0-20.9-14.6-35.5-35.3-35.5ZM43.3,11.4l9.1,9.2v-4.6c0-2.5-2-4.6-4.6-4.6,0,0-4.6,0-4.6,0ZM17.1,25.2c-2.2,0-3.4,1-3.4,3.4s1,3.4,3.4,3.4c9.4,0,14.8,5.4,14.8,14.9s1.2,3.4,3.4,3.4,3.4-1.2,3.4-3.4c0-13.3-8.4-21.8-21.6-21.8ZM18.2,38.9c-3.8,0-6.8,3.1-6.8,6.9s3.1,6.9,6.8,6.9,6.8-3.1,6.8-6.9-3.1-6.9-6.8-6.9Z"/>
    <path class="st4" d="M31.9,0C14.2,0,0,14.3,0,32.1s0,.3,0,.4C.4,15,14.5,1.1,31.9,1.1s31.5,13.9,31.9,31.3c0-.1,0-.3,0-.4C63.8,14.3,49.6,0,31.9,0Z"/>
  </g>
  <g>
    <path class="st1" d="M24.7,1.1c-.9,0-1.7,0-2.6,0-3.5.1-7.2.5-10.6,1.4-3.4.9-6.6,2.4-8.8,5C1.3,9.4.3,11.7,0,14.3H0c0,.1,0,.2,0,.4,0,1,0,2,0,3,.4,9.3,2.2,18.5,6.5,26.5,4.8,9,12.9,16.5,24.7,20.4,1,.3,2,.3,3-.1,20.7-9.2,28.8-26.7,29.4-46,0,0,0-.2,0-.3.1-1.2,0-2.4,0-3.5,0-.1,0-.2,0-.3h0c-.4-2.8-1.4-5.2-3-7-2.3-2.6-5.5-4-8.9-4.8-6.7-1.6-14.6-1.1-19.9-1.2h0c-2.1,0-4.5-.1-7,0h0Z"/>
    <path class="st2" d="M24.7,0c-.9,0-1.7,0-2.6,0-3.5.1-7.2.5-10.6,1.4-3.4.9-6.6,2.4-8.8,5C1.3,8.3.3,10.6,0,13.2H0c0,.1,0,.2,0,.4,0,1,0,2,0,3,.4,9.3,2.2,18.5,6.5,26.5,4.8,9,12.9,16.5,24.7,20.4,1,.3,2,.3,3-.1,20.7-9.2,28.8-26.7,29.4-46,0,0,0-.2,0-.3.1-1.2,0-2.4,0-3.5,0-.1,0-.2,0-.3h0c-.4-2.8-1.4-5.2-3-7-2.3-2.6-5.5-4-8.9-4.8C44.9-.3,37.1.2,31.8.1h0c-2.1,0-4.5-.1-7,0h0Z"/>
    <path class="st5" d="M17,5.5c-.9,0-1.6.7-1.6,1.5v11.6h-7.4c.4,8,2.1,16.4,5.6,22.7,3.8,6.8,9.1,12.2,18.3,15.5,9.2-3.3,14.5-8.6,18.3-15.5,3.5-6.3,5.2-14.7,5.6-22.7h-7.4V7c0-.9-.7-1.5-1.6-1.5h-29.7ZM22.9,7.7h4.8c.5,0,.9.4.9.9v4.8c0,.5-.4.9-.9.9h-4.8c-.5,0-.9-.4-.9-.9v-4.8c0-.5.4-.9.9-.9ZM36.1,7.7h4.8c.5,0,.9.4.9.9v4.8c0,.5-.4.9-.9.9h-4.8c-.5,0-.9-.4-.9-.9v-4.8c0-.5.4-.9.9-.9ZM31.7,20.9h0c5.8,0,11.3,4.3,13.1,9.4.1.3-.1.6-.4.6h-5.7c-.1,0-.3,0-.4-.2-1.5-2.2-3.9-3.5-6.8-3.5-4.9,0-7.6,3.2-7.6,8s3,8.2,7.9,8.1c5.2-.1,6.8-2.6,6.8-2.6h-7.4c-.2,0-.4-.2-.4-.5v-5.6c0-.3.2-.5.4-.5h14.5c.2,0,.4.2.4.5v.6s0,0,0,0c0,0,0,0,0,.1,0,7.5-6.1,14.1-14,14.1s-14.6-6.3-14.6-14.3,6.3-14.2,14.1-14.2Z"/>
    <path class="st8" d="M7.9,17.6c.4,8,2.1,16.4,5.6,22.7,3.8,6.8,9.1,12.2,18.3,15.5,9.2-3.3,14.5-8.6,18.3-15.5,3.5-6.3,5.2-14.7,5.6-22.7H7.9ZM31.7,19.8h0c5.8,0,11.3,4.3,13.1,9.4.1.3-.1.6-.4.6h-5.7c-.1,0-.3,0-.4-.2-1.5-2.2-3.9-3.5-6.8-3.5-4.9,0-7.6,3.2-7.6,8s3,8.2,7.9,8.1c5.2-.1,6.8-2.6,6.8-2.6h-7.4c-.2,0-.4-.2-.4-.5v-5.6c0-.3.2-.5.4-.5h14.5c.2,0,.4.2.4.5v.6s0,0,0,0c0,0,0,0,0,.1,0,7.5-6.1,14.1-14,14.1s-14.6-6.3-14.6-14.3,6.3-14.2,14.1-14.2Z"/>
    <path class="st8" d="M17,4.4c-.9,0-1.6.7-1.6,1.5v12.3c0,.9.7,1.5,1.6,1.5h29.7c.9,0,1.6-.7,1.6-1.5V5.9c0-.9-.7-1.5-1.6-1.5h-29.7ZM22.9,6.6h4.8c.5,0,.9.4.9.9v4.8c0,.5-.4.9-.9.9h-4.8c-.5,0-.9-.4-.9-.9v-4.8c0-.5.4-.9.9-.9ZM36.1,6.6h4.8c.5,0,.9.4.9.9v4.8c0,.5-.4.9-.9.9h-4.8c-.5,0-.9-.4-.9-.9v-4.8c0-.5.4-.9.9-.9Z"/>
    <path class="st4" d="M24.8,0c-.9,0-1.7,0-2.6,0-3.5.1-7.2.5-10.6,1.4-3.4.9-6.6,2.4-8.8,5C1.3,8.3.3,10.6,0,13.2H0c0,.1,0,.2,0,.4,0,.5,0,1,0,1.5,0-.1,0-.3,0-.4,0-.1,0-.2,0-.4h0c.3-2.6,1.2-4.9,2.7-6.6,2.2-2.6,5.4-4.1,8.8-5,3.4-.9,7.1-1.3,10.6-1.4.9,0,1.8,0,2.6,0,2.6,0,5,0,7,0h0c5.3.1,13.1-.4,19.9,1.2,3.4.8,6.6,2.2,8.9,4.8,1.6,1.8,2.7,4.2,3,7h0c0,.1,0,.2,0,.3,0,.4,0,.7,0,1.1,0-.8,0-1.5,0-2.2,0-.1,0-.2,0-.3h0c-.4-2.8-1.4-5.2-3-7-2.3-2.6-5.5-4-8.9-4.8C44.9-.3,37.1.2,31.8,0h0c-2.1,0-4.5-.1-7,0Z"/>
  </g>
</svg>