<?xml version="1.0" encoding="UTF-8"?>
<svg id="_图层_1" xmlns="http://www.w3.org/2000/svg" version="1.1" viewBox="0 0 64 64" width="48" height="48">
  <!-- Generator: Adobe Illustrator 29.0.1, SVG Export Plug-In . SVG Version: 2.1.0 Build 192)  -->
  <defs>
    <style>
      .st0 {
        fill: #8bc53f;
      }

      .st1, .st2, .st3 {
        display: none;
      }

      .st1, .st4 {
        fill: #3f3f3f;
      }

      .st2, .st3, .st5 {
        isolation: isolate;
      }

      .st2, .st5 {
        opacity: .2;
      }

      .st3 {
        fill: #fff;
        opacity: .1;
      }

      .st6 {
        fill: #ff7e00;
      }
    </style>
  </defs>
  <path class="st4" d="M50.4,64H13.8c-7.6,0-13.8-6.2-13.8-13.7V13.7C0,6.2,6.2,0,13.7,0h36.5c7.5,0,13.7,6.2,13.7,13.7v36.6c0,7.5-6.2,13.7-13.7,13.7h.1Z"/>
  <g>
    <path class="st2" d="M30.8,1.6C21.9,1.6,10.8,3.6,3,11.9c0,0,0,0,0,0l-.3.4c-.9,1-1.6,2.3-1.9,3.8v.4c-1.5,6.5-1,14.6,2.1,23.2,3.2,8.8,9.3,18,19.3,24.7,2.7,1.4,6,.7,8-1.7.3,0,.6.1,1,.2.3,0,.5.1.8.2.3,0,.5,0,.8-.2.3,0,.6-.1,1-.2,2,2.4,5.3,3.1,8,1.7,10.1-6.7,16.2-15.9,19.3-24.7,3.1-8.7,3.6-16.8,2.2-23.2v-.4c-.3-1.4-1-2.7-1.9-3.8l-.3-.4s0,0,0,0C53.1,3.6,41.9,1.6,33.1,1.6c-.4.1-.8.3-1.2.5-.4-.2-.8-.4-1.2-.5Z"/>
    <path class="st1" d="M30.8.4C21.9.4,10.8,2.4,3,10.7c0,0,0,0,0,0l-.3.4c-.9,1-1.6,2.3-1.9,3.8v.4c-1.5,6.5-1,14.6,2.1,23.2,3.2,8.8,9.3,18,19.3,24.7,2.7,1.4,6,.7,8-1.7.3,0,.6.1,1,.2.3,0,.5.1.8.2.3,0,.5,0,.8-.2.3,0,.6-.1,1-.2,2,2.4,5.3,3.1,8,1.7,10.1-6.7,16.2-15.9,19.3-24.7,3.1-8.7,3.6-16.8,2.2-23.2v-.4c-.3-1.4-1-2.7-1.9-3.8l-.3-.4s0,0,0,0C53.1,2.4,41.9.4,33.1.4c-.4.1-.8.3-1.2.5-.4-.2-.8-.4-1.2-.5Z"/>
    <path class="st5" d="M30.8,9c-7.6,0-17.4,2.3-23,8.1l-.3.4v.5c-2.2,8.9.9,28.4,18.4,39.9C7.6,39.3,9.8,22.3,10.3,19.3c5-5,13.7-6.5,17-6.7v5.2c-4.4.5-9.9,1.3-13.5,4.2-.8,6.6,1.7,13.9,5.4,20.5,2.9,5.3,6.6,9.5,10.8,13.6l1.9-22.4-5.4,13.7c-3.3-4.2-9.3-12.7-9.5-23.2,4.5-2.5,9.6-3.3,14.6-3.3.1,0,.2,0,.4,0s.2,0,.4,0c5,0,10.1.8,14.6,3.3-.2,10.5-6.2,19-9.5,23.2l-5.4-13.7,1.9,22.4c4.2-4.1,7.9-8.3,10.8-13.6,3.7-6.6,6.2-13.9,5.4-20.5-3.7-2.9-9.1-3.7-13.5-4.2v-5.2c3.3.2,12,1.8,17,6.7.5,3,2.7,20-15.4,38.6,17.5-11.5,20.5-31,18.4-39.9v-.5c0,0-.4-.4-.4-.4-5.6-5.9-15.5-8.1-23-8.1v8.5c-.6,0-.7,0-1.2,0-.5,0-.5,0-1.1,0v-8.5Z"/>
    <path class="st0" d="M30.8,7.7c-7.6,0-17.4,2.3-23,8.1l-.3.4v.5c-2.2,8.9.9,28.4,18.4,39.9C7.6,38,9.8,21.1,10.3,18c5-5,13.7-6.5,17-6.7v5.2c-4.4.5-9.9,1.3-13.5,4.2-.8,6.6,1.7,13.9,5.4,20.5,2.9,5.3,6.6,9.5,10.8,13.6l1.9-22.4-5.4,13.7c-3.3-4.2-9.3-12.7-9.5-23.2,4.5-2.5,9.6-3.3,14.6-3.3.1,0,.2,0,.4,0s.2,0,.4,0c5,0,10.1.8,14.6,3.3-.2,10.5-6.2,19-9.5,23.2l-5.4-13.7,1.9,22.4c4.2-4.1,7.9-8.3,10.8-13.6,3.7-6.6,6.2-13.9,5.4-20.5-3.7-2.9-9.1-3.7-13.5-4.2v-5.2c3.3.2,12,1.8,17,6.7.5,3,2.7,20-15.4,38.6,17.5-11.5,20.5-31,18.4-39.9v-.5c0,0-.4-.4-.4-.4-5.6-5.9-15.5-8.1-23-8.1v8.5c-.6,0-.7,0-1.2,0-.5,0-.5,0-1.1,0V7.7Z"/>
    <path class="st6" d="M30.8,7.7c-7.6,0-17.4,2.3-23,8.1l-.3.4,2.9,2c0,0,0-.1,0-.2,5-5,13.7-6.5,17-6.7v5.2c-4.4.5-9.9,1.3-13.5,4.2l3.1,2.2c4.5-2.5,9.6-3.3,14.6-3.3.1,0,.2,0,.4,0s.2,0,.4,0c5,0,10.1.8,14.6,3.3l3.1-2.2c-3.7-2.9-9.1-3.7-13.5-4.2v-5.2c3.3.2,12,1.8,17,6.7,0,0,0,.1,0,.2l2.9-2-.3-.4c-5.6-5.9-15.5-8.1-23-8.1v8.5c-.6,0-.7,0-1.2,0-.5,0-.5,0-1.1,0V7.7Z"/>
    <path class="st3" d="M30.8.4C21.9.4,10.8,2.4,3,10.7c0,0,0,0,0,0l-.3.4c-.9,1-1.6,2.3-1.9,3.8v.4C.1,17.8-.2,20.5,0,23.3c0-2.4.3-4.7.8-6.8v-.4c.3-1.4,1-2.7,1.9-3.8l.3-.4s0,0,0,0C10.8,3.6,21.9,1.6,30.8,1.6c.4.1.8.3,1.2.5.4-.2.8-.4,1.2-.5,8.8,0,20,2,27.8,10.3,0,0,0,0,0,0l.3.4c.9,1,1.6,2.3,1.9,3.8v.4c.5,2.1.8,4.4.8,6.8,0-2.9-.2-5.6-.8-8v-.4c-.3-1.4-1-2.7-1.9-3.8l-.3-.4s0,0,0,0C53.1,2.4,41.9.4,33.1.4c-.4.1-.8.3-1.2.5-.4-.2-.8-.4-1.2-.5Z"/>
  </g>
</svg>