<?xml version="1.0" encoding="UTF-8"?>
<svg id="_图层_1" data-name="图层_1" xmlns="http://www.w3.org/2000/svg" version="1.1" viewBox="0 0 202 200" width="48" height="48">
  <!-- Generator: Adobe Illustrator 29.0.1, SVG Export Plug-In . SVG Version: 2.1.0 Build 192)  -->
  <defs>
    <style>
      .st0 {
        fill: #fff;
      }

      .st1 {
        fill: #c9134b;
      }

      .st2 {
        fill: #e83d62;
      }

      .st3 {
        fill: #fb4f6d;
      }

      .st4 {
        fill: #de325b;
      }
    </style>
  </defs>
  <path class="st4" d="M6,29.2c0-13,10.6-23.5,23.7-23.5h142c13.1,0,23.7,10.5,23.7,23.5v141.2c0,13-10.6,23.5-23.7,23.5H29.7c-13.1,0-23.7-10.5-23.7-23.5,0,0,0-141.2,0-141.2Z"/>
  <path class="st1" d="M6,153.1h188.9v18.9c0,11.9-10.6,21.6-23.6,21.6H29.6c-13,0-23.6-9.7-23.6-21.6,0,0,0-18.9,0-18.9Z"/>
  <path class="st3" d="M172.7,6.2c12.3,0,22.2,10.5,22.2,23.4v141c0,12.5-9.6,22.6-21.5,22.6s-20.2-9.5-20.2-21.2V6.2h19.5,0Z"/>
  <path class="st2" d="M153.3,173.8c0,10.7,9,19.4,20.2,19.4s21.5-9.3,21.5-20.7-9-19.4-20.2-19.4h-21.5v20.7h0Z"/>
  <path class="st0" d="M65.8,28.1h32c16,0,28.9,12.9,28.9,28.9s-12.9,28.9-28.9,28.9h-16.4v39.1h-27.3c-15.1,0-27.3-12.2-27.3-27.3s12.2-27.3,27.3-27.3h11.7s0-42.2,0-42.2ZM65.8,85.9h-11.7c-6.5-.1-11.8,5-11.9,11.5-.1,6.5,5,11.8,11.5,11.9.1,0,.3,0,.4,0h11.7v-23.4h0ZM81.4,70.3h16.4c7.3,0,13.3-5.9,13.3-13.3s-5.9-13.3-13.3-13.3h-16.4s0,26.6,0,26.6Z"/>
</svg>
