<?xml version="1.0" encoding="UTF-8"?>
<svg id="_图层_1" xmlns="http://www.w3.org/2000/svg" version="1.1" viewBox="0 0 64 64" width="48" height="48">
  <!-- Generator: Adobe Illustrator 29.0.1, SVG Export Plug-In . SVG Version: 2.1.0 Build 192)  -->
  <defs>
    <style>
      .st0 {
        fill: #f71fda;
      }

      .st1, .st2, .st3, .st4, .st5 {
        display: none;
      }

      .st1, .st2, .st6 {
        isolation: isolate;
      }

      .st1, .st6 {
        opacity: .2;
      }

      .st2 {
        opacity: .1;
      }

      .st2, .st7 {
        fill: #fff;
      }

      .st3 {
        fill: #992b2b;
      }

      .st8 {
        fill: #ffa407;
      }

      .st4, .st9 {
        fill: #c2352a;
      }
    </style>
  </defs>
  <path class="st9" d="M50.4,64H13.8c-7.6,0-13.8-6.2-13.8-13.7V13.7C0,6.2,6.2,0,13.7,0h36.6c7.5,0,13.7,6.2,13.7,13.7v36.6c0,7.5-6.2,13.7-13.7,13.7h.1Z"/>
  <g class="st5">
    <ellipse class="st1" cx="30.6" cy="31.2" rx="30.6" ry="30.1"/>
    <ellipse class="st3" cx="30.6" cy="30.1" rx="30.6" ry="30.1"/>
    <path class="st6" d="M32.3,9.7c-1.2,0-2.2.2-2.5.6-.6.7-2,5.7-3.8,13.5-1.3,5.6-.4,8.8.5,10.5,1.1,2.2,2,3.5.2,8-1.3,3.2-2.6,3.2-3.8,3.4-2.9-.7-5.1-.7-5.4,0-.4,1.1,2.9,3.9,7.4,5.5,4.5,1.6,8.4,2,8.8,1,.3-.8-1.4-2.2-4.1-3.5-1.2-1.2-2.2-2.1-1.3-5.8,1.8-7.4,4.6-4.8,7.9-9.4,2.8-3.9,3.5-6.9,5.2-11.4,1.7-4.8,2.5-7.1,2.2-7.5-1.5-3-7.7-4.8-11.3-4.8h0ZM28.1,19.5c1.8,1.9,3.4,3,4.8,3.1,3.6.1,6.2-3.9,7.8-1.9-.8,2.5-5.4,17.8-11.6,15-5.1-2.2-2.2-13.6-1.1-16.3Z"/>
    <path class="st7" d="M32.3,8.6c-1.2,0-2.2.2-2.5.6-.6.7-2,5.7-3.8,13.5-1.3,5.6-.4,8.8.5,10.5,1.1,2.2,2,3.5.2,8-1.3,3.2-2.6,3.2-3.8,3.4-2.9-.7-5.1-.7-5.4,0-.4,1.1,2.9,3.9,7.4,5.5,4.5,1.6,8.4,2,8.8,1,.3-.8-1.4-2.2-4.1-3.5-1.2-1.2-2.2-2.1-1.3-5.8,1.8-7.4,4.6-4.8,7.9-9.4,2.8-3.9,3.5-6.9,5.2-11.4,1.7-4.8,2.5-7.1,2.2-7.5-1.5-3-7.7-4.8-11.3-4.8h0ZM28.1,18.4c1.8,1.9,3.4,3,4.8,3.1,3.6.1,6.2-3.9,7.8-1.9-.8,2.5-5.4,17.8-11.6,15-5.1-2.2-2.2-13.6-1.1-16.3Z"/>
    <path class="st2" d="M30.6,0C13.7,0,0,13.5,0,30.1c0,.2,0,.4,0,.5C.3,14.2,13.9,1.1,30.6,1.1c16.7,0,30.3,13.2,30.6,29.6,0-.2,0-.4,0-.5C61.2,13.5,47.5,0,30.6,0Z"/>
    <ellipse class="st6" cx="47" cy="47.3" rx="16.4" ry="16.1"/>
    <ellipse class="st8" cx="47" cy="46.3" rx="16.4" ry="16.1"/>
    <path class="st7" d="M47,52.6l-6.1,3.3,1.2-7-4.9-5,6.8-1,3-6.4,3,6.4,6.8,1-4.9,5,1.2,7-6.1-3.3Z"/>
  </g>
  <g class="st5">
    <ellipse class="st1" cx="30.5" cy="31.1" rx="30.5" ry="30"/>
    <ellipse class="st3" cx="30.5" cy="30" rx="30.5" ry="30"/>
    <path class="st6" d="M32.2,9.7c-1.2,0-2.2.2-2.5.6-.6.7-2,5.7-3.8,13.4-1.3,5.5-.4,8.8.5,10.5,1.1,2.2,2,3.5.2,8-1.3,3.2-2.6,3.2-3.8,3.3-2.9-.7-5.1-.7-5.4,0-.4,1.1,2.9,3.8,7.4,5.4,4.5,1.6,8.4,2,8.8,1,.3-.8-1.4-2.2-4.1-3.5-1.2-1.2-2.2-2.1-1.3-5.8,1.8-7.3,4.6-4.8,7.9-9.4,2.8-3.9,3.5-6.8,5.2-11.4,1.7-4.8,2.5-7,2.2-7.5-1.5-3-7.7-4.8-11.3-4.8h0ZM28.1,19.4c1.8,1.9,3.4,3,4.8,3.1,3.6.1,6.2-3.9,7.8-1.9-.8,2.5-5.4,17.7-11.6,15-5.1-2.2-2.2-13.5-1.1-16.2Z"/>
    <path class="st7" d="M32.2,8.6c-1.2,0-2.2.2-2.5.6-.6.7-2,5.7-3.8,13.4-1.3,5.5-.4,8.8.5,10.5,1.1,2.2,2,3.5.2,8-1.3,3.2-2.6,3.2-3.8,3.3-2.9-.7-5.1-.7-5.4,0-.4,1.1,2.9,3.8,7.4,5.4,4.5,1.6,8.4,2,8.8,1,.3-.8-1.4-2.2-4.1-3.5-1.2-1.2-2.2-2.1-1.3-5.8,1.8-7.3,4.6-4.8,7.9-9.4,2.8-3.9,3.5-6.8,5.2-11.4,1.7-4.8,2.5-7,2.2-7.5-1.5-3-7.7-4.8-11.3-4.8h0ZM28.1,18.4c1.8,1.9,3.4,3,4.8,3.1,3.6.1,6.2-3.9,7.8-1.9-.8,2.5-5.4,17.7-11.6,15-5.1-2.2-2.2-13.5-1.1-16.2Z"/>
    <path class="st2" d="M30.5,0C13.7,0,0,13.4,0,30c0,.2,0,.4,0,.5C.3,14.2,13.9,1.1,30.5,1.1c16.6,0,30.2,13.1,30.5,29.5,0-.2,0-.3,0-.5C61,13.4,47.4,0,30.5,0Z"/>
    <ellipse class="st6" cx="46.9" cy="47.2" rx="16.3" ry="16.1"/>
    <ellipse class="st0" cx="46.9" cy="46.1" rx="16.3" ry="16.1"/>
    <path class="st7" d="M54,39.1c-.7-.6-1.7-.6-2.4,0l-4.8,4.7-4.8-4.7c-.7-.6-1.7-.6-2.4,0-.7.6-.7,1.7,0,2.3l4.8,4.7-4.8,4.7c-.7.6-.7,1.7,0,2.3.7.6,1.7.6,2.4,0l4.8-4.7,4.8,4.7c.7.6,1.7.6,2.4,0,.7-.6.7-1.7,0-2.3l-4.8-4.7,4.8-4.7c.7-.6.7-1.7,0-2.3h0Z"/>
  </g>
  <g>
    <path class="st1" d="M0,59.7v2.3c0,1.9,1.5,3.4,3.4,3.4h57.1c1.9,0,3.4-1.5,3.4-3.4v-2.3c0,1.9-1.5,3.4-3.4,3.4H3.4c-1.9,0-3.4-1.5-3.4-3.4Z"/>
    <path class="st4" d="M3.4,0h57.1c1.9,0,3.4,1.5,3.4,3.4v57.4c0,1.9-1.5,3.4-3.4,3.4H3.4c-1.9,0-3.4-1.5-3.4-3.4V3.4C0,1.5,1.5,0,3.4,0Z"/>
    <path class="st2" d="M3.4,0C1.5,0,0,1.5,0,3.4v1.1C0,2.7,1.5,1.1,3.4,1.1h57.1c1.9,0,3.4,1.5,3.4,3.4v-1.1c0-1.9-1.5-3.4-3.4-3.4H3.4Z"/>
    <path class="st6" d="M22.1,19.5c-.1,0-.2,0-.4,0-.5,0-10.5,1.8-11.1,2-.7.2-1.2.6-1.4.9-.2.6.5,2.6,1.4,4,1.6,2.3,3.9,3.8,8.7,5.6,2.6,1,3.2,1.2,3.5,1.6.5.5,0,.7-3.4,2.2-5.5,2.3-6.5,4.2-7.6,7-.3.8-.5,3.1-.2,3.6.3.7.5.7,5.7-.2,5.3-.9,4.2-1,4.6-1.4.5-1.2.7-2,1-3.1.3-1,1.1-2.1,2-2.7,3.3-2.2,9.5-1.1,12.9,2.2,1.3,1.3,2.1,1.9,2.7,3.9.4,1.1.7,1.6,1.3,1.7.5,0,.5.3,7.3-.9,3.7-.7,5.3-1.4,5.5-1.6.5-.3.5-1.2,0-2.6-.8-2.4-2.2-4.4-4.8-6.2-1.3-.9-2.9-1.8-5.7-3-2.6-1.2-2.9-1.5-2.9-1.9s0-.4,2.1-1c4.5-1.3,7-3.4,7-6.7s-.3-2.6-.7-3c-.6-.5-1.3-.5-3.8,0-8.1,1.4-8.6,1.7-9,2.2-.2.3-.2.4.2,1.8.2.8.4,1.6.4,1.9,0,.5-.4,1.3-.7,1.6-.8.7-2.6,1.3-4.5,1.3s-4-.9-5.7-2.6c-1.2-1.2-1.9-2.3-2.7-4.5-.7-1.9-.8-2.2-1.6-2.2h0Z"/>
    <path class="st7" d="M22.1,18.4c-.1,0-.2,0-.4,0-.5,0-10.5,1.8-11.1,2-.7.2-1.2.6-1.4.9-.2.6.5,2.6,1.4,4,1.6,2.3,3.9,3.8,8.7,5.6,2.6,1,3.2,1.2,3.5,1.6.5.5,0,.7-3.4,2.2-5.5,2.3-6.5,4.2-7.6,7-.3.8-.5,3.1-.2,3.6.3.7.5.7,5.7-.2,5.3-.9,4.2-1,4.6-1.4.5-1.2.7-2,1-3.1.3-1,1.1-2.1,2-2.7,3.3-2.2,9.5-1.1,12.9,2.2,1.3,1.3,2.1,1.9,2.7,3.9.4,1.1.7,1.6,1.3,1.7.5,0,.5.3,7.3-.9,3.7-.7,5.3-1.4,5.5-1.6.5-.3.5-1.2,0-2.6-.8-2.4-2.2-4.4-4.8-6.2-1.3-.9-2.9-1.8-5.7-3-2.6-1.2-2.9-1.5-2.9-1.9s0-.4,2.1-1c4.5-1.3,7-3.4,7-6.7s-.3-2.6-.7-3c-.6-.5-1.3-.5-3.8,0-8.1,1.4-8.6,1.7-9,2.2-.2.3-.2.4.2,1.8.2.8.4,1.6.4,1.9,0,.5-.4,1.3-.7,1.6-.8.7-2.6,1.3-4.5,1.3s-4-.9-5.7-2.6c-1.2-1.2-1.9-2.3-2.7-4.5-.7-1.9-.8-2.2-1.6-2.2h0Z"/>
  </g>
</svg>