<?xml version="1.0" encoding="UTF-8"?>
<svg id="_图层_1" xmlns="http://www.w3.org/2000/svg" version="1.1" viewBox="0 0 64 64" width="48" height="48">
  <!-- Generator: Adobe Illustrator 29.0.1, SVG Export Plug-In . SVG Version: 2.1.0 Build 192)  -->
  <defs>
    <style>
      .st0, .st1 {
        fill: #ab47bc;
      }

      .st2, .st3, .st4 {
        isolation: isolate;
        opacity: .2;
      }

      .st2, .st5, .st1, .st6, .st4 {
        display: none;
      }

      .st3, .st7 {
        fill-rule: evenodd;
      }

      .st5 {
        fill: #f58411;
      }

      .st7, .st4 {
        fill: #fff;
      }

      .st8 {
        fill: none;
        stroke: #fff;
        stroke-linecap: round;
        stroke-width: 2px;
      }
    </style>
  </defs>
  <path class="st0" d="M50.4,64H13.8c-7.6,0-13.8-6.2-13.8-13.7V13.7C0,6.2,6.2,0,13.7,0h36.5c7.5,0,13.7,6.2,13.7,13.7v36.6c0,7.5-6.2,13.7-13.7,13.7h.1Z"/>
  <g class="st6">
    <rect class="st5" width="63.8" height="63.9" rx="3.4" ry="3.4"/>
    <path class="st4" d="M3.4,0C1.5,0,0,1.5,0,3.4v1.1C0,2.7,1.5,1.1,3.4,1.1h57c1.9,0,3.4,1.5,3.4,3.4v-1.1c0-1.9-1.5-3.4-3.4-3.4H3.4Z"/>
    <path class="st2" d="M0,60.5v1.1c0,1.9,1.5,3.4,3.4,3.4h57c1.9,0,3.4-1.5,3.4-3.4v-1.1c0,1.9-1.5,3.4-3.4,3.4H3.4c-1.9,0-3.4-1.5-3.4-3.4Z"/>
    <path class="st3" d="M41.1,12.6l-8,9.7c-4.4,5.4-8,9.8-8,10s3.8,5,8.4,10.8l8.4,10.6h8.8c7,0,8.8,0,8.6-.3-.5-.6-16-20.3-16.4-20.7-.3-.4.4-1.3,7.4-9.8,4.3-5.2,7.9-9.6,8.1-9.9.3-.4-.1-.4-8.5-.4h-8.8ZM6.8,12.6s14.9,19.7,14.6,19.6c0,0-3.4,4.5-7.7,9.9-4.2,5.3-8,10.1-8.5,10.7l-.7.9h17.6l4.1-5.2c2.9-3.6,4.1-5.3,3.9-5.5-.1-.2-2.1-2.7-4.4-5.5l-4.1-5.2,4.3-5.2c2.4-2.9,4.3-5.3,4.3-5.3L6.8,12.6Z"/>
    <path class="st7" d="M41.1,11.4l-8,9.7c-4.4,5.4-8,9.8-8,10s3.8,5,8.4,10.8l8.4,10.6h8.8c7,0,8.8,0,8.6-.3-.5-.6-16-20.3-16.4-20.7-.3-.4.4-1.3,7.4-9.8,4.3-5.2,7.9-9.6,8.1-9.9.3-.4-.1-.4-8.5-.4h-8.8ZM6.8,11.4s14.9,19.7,14.6,19.6c0,0-3.4,4.5-7.7,9.9-4.2,5.3-8,10.1-8.5,10.7l-.7.9h17.6l4.1-5.2c2.9-3.6,4.1-5.3,3.9-5.5-.1-.2-2.1-2.7-4.4-5.5l-4.1-5.2,4.3-5.2c2.4-2.9,4.3-5.3,4.3-5.3L6.8,11.4Z"/>
  </g>
  <g>
    <path class="st2" d="M6.8,1.1h50.2c3.8,0,6.8,3.1,6.8,6.8v50.2c0,3.8-3.1,6.8-6.8,6.8H6.8c-3.8,0-6.8-3.1-6.8-6.8V8C0,4.2,3.1,1.1,6.8,1.1Z"/>
    <path class="st1" d="M6.8,0h50.2c3.8,0,6.8,3.1,6.8,6.8v50.2c0,3.8-3.1,6.8-6.8,6.8H6.8c-3.8,0-6.8-3.1-6.8-6.8V6.8C0,3.1,3.1,0,6.8,0Z"/>
    <path class="st8" d="M12.6,17.1c10.3,0,10.3,14.8,19.4,14.8s9.1-14.8,19.4-14.8"/>
    <path class="st8" d="M12.6,46.8c10.3,0,10.3-14.8,19.4-14.8s9.1,14.8,19.4,14.8"/>
    <path class="st4" d="M6.8,0C3.1,0,0,3.1,0,6.8v1.1C0,4.2,3.1,1.1,6.8,1.1h50.2c3.8,0,6.8,3.1,6.8,6.8v-1.1c0-3.8-3.1-6.8-6.8-6.8H6.8Z"/>
  </g>
</svg>