<?xml version="1.0" encoding="UTF-8"?>
<svg id="_图层_1" xmlns="http://www.w3.org/2000/svg" version="1.1" viewBox="0 0 64 64" width="48" height="48">
  <!-- Generator: Adobe Illustrator 29.0.1, SVG Export Plug-In . SVG Version: 2.1.0 Build 192)  -->
  <defs>
    <style>
      .st0 {
        fill: #a766fa;
      }

      .st1 {
        fill: #f71fda;
      }

      .st2, .st3 {
        stroke: #fff;
      }

      .st2, .st3, .st4, .st5 {
        fill: none;
        stroke-linecap: round;
      }

      .st2, .st5 {
        stroke-width: 4px;
      }

      .st6, .st7, .st8, .st9, .st10, .st11, .st12 {
        display: none;
      }

      .st6, .st7, .st4, .st13, .st5, .st12 {
        isolation: isolate;
      }

      .st6, .st4, .st13, .st5, .st12 {
        opacity: .2;
      }

      .st7 {
        opacity: .1;
      }

      .st7, .st14, .st12 {
        fill: #fff;
      }

      .st8 {
        fill: #992b2b;
      }

      .st15 {
        fill: #3f3f3f;
      }

      .st16 {
        fill: #2086e7;
      }

      .st9 {
        fill: #7139d2;
      }

      .st17 {
        fill: #ffa407;
      }

      .st3, .st4 {
        stroke-width: 4px;
      }

      .st18 {
        fill: #cf4f8c;
      }

      .st10 {
        fill: #c2352a;
      }

      .st19 {
        fill: #6655e4;
      }

      .st4, .st5 {
        stroke: #000;
      }
    </style>
  </defs>
  <path class="st9" d="M50.4,64H13.8c-7.6,0-13.8-6.2-13.8-13.7V13.7C0,6.2,6.2,0,13.7,0h36.6c7.5,0,13.7,6.2,13.7,13.7v36.6c0,7.5-6.2,13.7-13.7,13.7h.1Z"/>
  <g class="st11">
    <ellipse class="st6" cx="30.6" cy="31.2" rx="30.6" ry="30.1"/>
    <ellipse class="st8" cx="30.6" cy="30.1" rx="30.6" ry="30.1"/>
    <path class="st13" d="M32.3,9.7c-1.2,0-2.2.2-2.5.6-.6.7-2,5.7-3.8,13.5-1.3,5.6-.4,8.8.5,10.5,1.1,2.2,2,3.5.2,8-1.3,3.2-2.6,3.2-3.8,3.4-2.9-.7-5.1-.7-5.4,0-.4,1.1,2.9,3.9,7.4,5.5,4.5,1.6,8.4,2,8.8,1,.3-.8-1.4-2.2-4.1-3.5-1.2-1.2-2.2-2.1-1.3-5.8,1.8-7.4,4.6-4.8,7.9-9.4,2.8-3.9,3.5-6.9,5.2-11.4,1.7-4.8,2.5-7.1,2.2-7.5-1.5-3-7.7-4.8-11.3-4.8h0ZM28.1,19.5c1.8,1.9,3.4,3,4.8,3.1,3.6.1,6.2-3.9,7.8-1.9-.8,2.5-5.4,17.8-11.6,15-5.1-2.2-2.2-13.6-1.1-16.3Z"/>
    <path class="st14" d="M32.3,8.6c-1.2,0-2.2.2-2.5.6-.6.7-2,5.7-3.8,13.5-1.3,5.6-.4,8.8.5,10.5,1.1,2.2,2,3.5.2,8-1.3,3.2-2.6,3.2-3.8,3.4-2.9-.7-5.1-.7-5.4,0-.4,1.1,2.9,3.9,7.4,5.5,4.5,1.6,8.4,2,8.8,1,.3-.8-1.4-2.2-4.1-3.5-1.2-1.2-2.2-2.1-1.3-5.8,1.8-7.4,4.6-4.8,7.9-9.4,2.8-3.9,3.5-6.9,5.2-11.4,1.7-4.8,2.5-7.1,2.2-7.5-1.5-3-7.7-4.8-11.3-4.8h0ZM28.1,18.4c1.8,1.9,3.4,3,4.8,3.1,3.6.1,6.2-3.9,7.8-1.9-.8,2.5-5.4,17.8-11.6,15-5.1-2.2-2.2-13.6-1.1-16.3Z"/>
    <path class="st7" d="M30.6,0C13.7,0,0,13.5,0,30.1c0,.2,0,.4,0,.5C.3,14.2,13.9,1.1,30.6,1.1c16.7,0,30.3,13.2,30.6,29.6,0-.2,0-.4,0-.5C61.2,13.5,47.5,0,30.6,0Z"/>
    <ellipse class="st13" cx="47" cy="47.3" rx="16.4" ry="16.1"/>
    <ellipse class="st17" cx="47" cy="46.3" rx="16.4" ry="16.1"/>
    <path class="st14" d="M47,52.6l-6.1,3.3,1.2-7-4.9-5,6.8-1,3-6.4,3,6.4,6.8,1-4.9,5,1.2,7-6.1-3.3Z"/>
  </g>
  <g class="st11">
    <ellipse class="st6" cx="30.5" cy="31.1" rx="30.5" ry="30"/>
    <ellipse class="st8" cx="30.5" cy="30" rx="30.5" ry="30"/>
    <path class="st13" d="M32.2,9.7c-1.2,0-2.2.2-2.5.6-.6.7-2,5.7-3.8,13.4-1.3,5.5-.4,8.8.5,10.5,1.1,2.2,2,3.5.2,8-1.3,3.2-2.6,3.2-3.8,3.3-2.9-.7-5.1-.7-5.4,0-.4,1.1,2.9,3.8,7.4,5.4,4.5,1.6,8.4,2,8.8,1,.3-.8-1.4-2.2-4.1-3.5-1.2-1.2-2.2-2.1-1.3-5.8,1.8-7.3,4.6-4.8,7.9-9.4,2.8-3.9,3.5-6.8,5.2-11.4,1.7-4.8,2.5-7,2.2-7.5-1.5-3-7.7-4.8-11.3-4.8h0ZM28.1,19.4c1.8,1.9,3.4,3,4.8,3.1,3.6.1,6.2-3.9,7.8-1.9-.8,2.5-5.4,17.7-11.6,15-5.1-2.2-2.2-13.5-1.1-16.2Z"/>
    <path class="st14" d="M32.2,8.6c-1.2,0-2.2.2-2.5.6-.6.7-2,5.7-3.8,13.4-1.3,5.5-.4,8.8.5,10.5,1.1,2.2,2,3.5.2,8-1.3,3.2-2.6,3.2-3.8,3.3-2.9-.7-5.1-.7-5.4,0-.4,1.1,2.9,3.8,7.4,5.4,4.5,1.6,8.4,2,8.8,1,.3-.8-1.4-2.2-4.1-3.5-1.2-1.2-2.2-2.1-1.3-5.8,1.8-7.3,4.6-4.8,7.9-9.4,2.8-3.9,3.5-6.8,5.2-11.4,1.7-4.8,2.5-7,2.2-7.5-1.5-3-7.7-4.8-11.3-4.8h0ZM28.1,18.4c1.8,1.9,3.4,3,4.8,3.1,3.6.1,6.2-3.9,7.8-1.9-.8,2.5-5.4,17.7-11.6,15-5.1-2.2-2.2-13.5-1.1-16.2Z"/>
    <path class="st7" d="M30.5,0C13.7,0,0,13.4,0,30c0,.2,0,.4,0,.5C.3,14.2,13.9,1.1,30.5,1.1c16.6,0,30.2,13.1,30.5,29.5,0-.2,0-.3,0-.5C61,13.4,47.4,0,30.5,0Z"/>
    <ellipse class="st13" cx="46.9" cy="47.2" rx="16.3" ry="16.1"/>
    <ellipse class="st1" cx="46.9" cy="46.1" rx="16.3" ry="16.1"/>
    <path class="st14" d="M54,39.1c-.7-.6-1.7-.6-2.4,0l-4.8,4.7-4.8-4.7c-.7-.6-1.7-.6-2.4,0-.7.6-.7,1.7,0,2.3l4.8,4.7-4.8,4.7c-.7.6-.7,1.7,0,2.3.7.6,1.7.6,2.4,0l4.8-4.7,4.8,4.7c.7.6,1.7.6,2.4,0,.7-.6.7-1.7,0-2.3l-4.8-4.7,4.8-4.7c.7-.6.7-1.7,0-2.3h0Z"/>
  </g>
  <g class="st11">
    <path class="st6" d="M0,59.7v2.3c0,1.9,1.5,3.4,3.4,3.4h57.1c1.9,0,3.4-1.5,3.4-3.4v-2.3c0,1.9-1.5,3.4-3.4,3.4H3.4c-1.9,0-3.4-1.5-3.4-3.4Z"/>
    <path class="st10" d="M3.4,0h57.1c1.9,0,3.4,1.5,3.4,3.4v57.4c0,1.9-1.5,3.4-3.4,3.4H3.4c-1.9,0-3.4-1.5-3.4-3.4V3.4C0,1.5,1.5,0,3.4,0Z"/>
    <path class="st7" d="M3.4,0C1.5,0,0,1.5,0,3.4v1.1C0,2.7,1.5,1.1,3.4,1.1h57.1c1.9,0,3.4,1.5,3.4,3.4v-1.1c0-1.9-1.5-3.4-3.4-3.4H3.4Z"/>
    <path class="st13" d="M22.1,19.5c-.1,0-.2,0-.4,0-.5,0-10.5,1.8-11.1,2-.7.2-1.2.6-1.4.9-.2.6.5,2.6,1.4,4,1.6,2.3,3.9,3.8,8.7,5.6,2.6,1,3.2,1.2,3.5,1.6.5.5,0,.7-3.4,2.2-5.5,2.3-6.5,4.2-7.6,7-.3.8-.5,3.1-.2,3.6.3.7.5.7,5.7-.2,5.3-.9,4.2-1,4.6-1.4.5-1.2.7-2,1-3.1.3-1,1.1-2.1,2-2.7,3.3-2.2,9.5-1.1,12.9,2.2,1.3,1.3,2.1,1.9,2.7,3.9.4,1.1.7,1.6,1.3,1.7.5,0,.5.3,7.3-.9,3.7-.7,5.3-1.4,5.5-1.6.5-.3.5-1.2,0-2.6-.8-2.4-2.2-4.4-4.8-6.2-1.3-.9-2.9-1.8-5.7-3-2.6-1.2-2.9-1.5-2.9-1.9s0-.4,2.1-1c4.5-1.3,7-3.4,7-6.7s-.3-2.6-.7-3c-.6-.5-1.3-.5-3.8,0-8.1,1.4-8.6,1.7-9,2.2-.2.3-.2.4.2,1.8.2.8.4,1.6.4,1.9,0,.5-.4,1.3-.7,1.6-.8.7-2.6,1.3-4.5,1.3s-4-.9-5.7-2.6c-1.2-1.2-1.9-2.3-2.7-4.5-.7-1.9-.8-2.2-1.6-2.2h0Z"/>
    <path class="st14" d="M22.1,18.4c-.1,0-.2,0-.4,0-.5,0-10.5,1.8-11.1,2-.7.2-1.2.6-1.4.9-.2.6.5,2.6,1.4,4,1.6,2.3,3.9,3.8,8.7,5.6,2.6,1,3.2,1.2,3.5,1.6.5.5,0,.7-3.4,2.2-5.5,2.3-6.5,4.2-7.6,7-.3.8-.5,3.1-.2,3.6.3.7.5.7,5.7-.2,5.3-.9,4.2-1,4.6-1.4.5-1.2.7-2,1-3.1.3-1,1.1-2.1,2-2.7,3.3-2.2,9.5-1.1,12.9,2.2,1.3,1.3,2.1,1.9,2.7,3.9.4,1.1.7,1.6,1.3,1.7.5,0,.5.3,7.3-.9,3.7-.7,5.3-1.4,5.5-1.6.5-.3.5-1.2,0-2.6-.8-2.4-2.2-4.4-4.8-6.2-1.3-.9-2.9-1.8-5.7-3-2.6-1.2-2.9-1.5-2.9-1.9s0-.4,2.1-1c4.5-1.3,7-3.4,7-6.7s-.3-2.6-.7-3c-.6-.5-1.3-.5-3.8,0-8.1,1.4-8.6,1.7-9,2.2-.2.3-.2.4.2,1.8.2.8.4,1.6.4,1.9,0,.5-.4,1.3-.7,1.6-.8.7-2.6,1.3-4.5,1.3s-4-.9-5.7-2.6c-1.2-1.2-1.9-2.3-2.7-4.5-.7-1.9-.8-2.2-1.6-2.2h0Z"/>
  </g>
  <g class="st11">
    <path class="st6" d="M3.2,1.1h57.6c1.8,0,3.2,1.4,3.2,3.2v57.6c0,1.8-1.4,3.2-3.2,3.2H3.2c-1.8,0-3.2-1.4-3.2-3.2V4.3C0,2.6,1.4,1.1,3.2,1.1Z"/>
    <path class="st9" d="M3.2,0h57.6c1.8,0,3.2,1.4,3.2,3.2v57.6c0,1.8-1.4,3.2-3.2,3.2H3.2c-1.8,0-3.2-1.4-3.2-3.2V3.2C0,1.4,1.4,0,3.2,0Z"/>
    <path class="st13" d="M14.2,13.7h35.6c.9,0,1.6.7,1.6,1.6v23c0,.9-.7,1.6-1.6,1.6H14.2c-.9,0-1.6-.7-1.6-1.6V15.4c0-.9.7-1.6,1.6-1.6Z"/>
    <path class="st14" d="M14.2,12.6h35.6c.9,0,1.6.7,1.6,1.6v23c0,.9-.7,1.6-1.6,1.6H14.2c-.9,0-1.6-.7-1.6-1.6V14.2c0-.9.7-1.6,1.6-1.6Z"/>
    <path class="st0" d="M16,16h32v4.7l-16,7.9-16-7.9v-4.7Z"/>
    <path class="st13" d="M15.3,45.1s0,0,0,0c0,0,0,0,0,0h0c-.4.8-2,3.3-2.9,4.9-1-1.6-2.2-3.5-2.9-4.9h0s0,0,0,0c-.6.1-.9.1-1.5,0h0s0,0,0,0c1.2,1.8,3.1,5.3,3.8,6.4v4.7c0,0,0,0,0,0h0s.4,0,.7,0,.7,0,.7,0h0s0,0,0,0v-4.7c0,0,0,0,0,0,1.2-2.1,3.2-5.6,3.8-6.4h0s0,0,0,0c0,0,0,0,0,0,0,0,0,0,0,0-.5.1-1,.1-1.5,0h0ZM55.2,45.2c-.4,0-.7.2-.7.7-.2,2.6-.4,5.3-.8,7.8h0s0,0,0,0c0,0,0,0,0,0h0c.2,0,.4,0,.5,0h0c.4-2.6,1.4-6.4,1.6-7.5,0-.2,0-.3,0-.5,0-.4-.2-.6-.6-.7h0s0,0-.2,0h0ZM47.3,45.7c-3.1,0-5.5,1.8-5.5,5s1.6,5.1,5.5,5.1,5.5-1.8,5.5-5-2-5.1-5.5-5.1h0ZM36.5,46.2c-3.1,0-4.7,2-4.7,4.5s1.8,4.5,4.7,4.5,4.8-1.9,4.8-4.5-1.9-4.6-4.7-4.6h0ZM47.3,46.2c2.3,0,4,1.4,4,4.5s-2.1,4.5-4,4.5-4-1.2-4-4.6,2.1-4.5,4-4.5ZM18.4,46.3c-1.2,3-2.5,6.3-3.8,8.8h0s0,0,0,0h0s0,0,0,0h0s0,0,0,0c.6-.1,1.1,0,1.4,0,0,0,0,0,0,0h0c.3-.8.7-1.7,1-2.6h0c1.2,0,2.4,0,3.6,0,.3.9.7,1.7,1,2.6,0,0,0,0,0,0h0c.5-.1,1.1-.1,1.5,0h0s0,0,0,0c-.9-1.6-2.6-6-3.8-8.8h0s0,0,0,0c-.4.1-.7.1-1,0h0ZM23.8,46.3h0c.1,2.9.1,5.9,0,8.8.5-.1,1-.1,1.5,0h0s0,0,0,0c0-1.4-.1-2.7-.1-4.1,1.6,0,3.3,0,4.9,0,0,1.4,0,2.7-.1,4.1h0s0,0,0,0c.5-.1,1-.1,1.5,0,0,0,0,0,0,0h0c-.1-2.9-.1-5.9,0-8.8h0s0,0,0,0h0c-.5.1-1,.1-1.5,0h0s0,0,0,0c0,1.4.1,2.7.1,4.1-1.6,0-3.3,0-4.9,0,0-1.4,0-2.7.1-4.1h0s0,0,0,0c-.5.1-1,.1-1.5,0h0ZM36.5,46.7h0s0,0,0,0c1.9,0,3.3,1.3,3.3,4s-1.4,4-3.3,4-3.3-1.5-3.3-4,1.5-4,3.2-4h0ZM18.9,47.8c.5,1.4,1,2.7,1.6,4.1h0c-1,0-2.1,0-3.1,0h0c.6-1.6,1.2-3.2,1.6-4.1h0ZM53.7,54.9c-.5,0-.7.4-.7.7s.4.7.8.7.7-.2.7-.7-.3-.7-.8-.7Z"/>
    <path class="st14" d="M15.3,44s0,0,0,0c0,0,0,0,0,0h0c-.4.8-2,3.3-2.9,4.9-1-1.6-2.2-3.5-2.9-4.9h0s0,0,0,0c-.6.1-.9.1-1.5,0h0s0,0,0,0c1.2,1.8,3.1,5.3,3.8,6.4v4.7c0,0,0,0,0,0h0s.4,0,.7,0,.7,0,.7,0h0s0,0,0,0v-4.7c0,0,0,0,0,0,1.2-2.1,3.2-5.6,3.8-6.4h0s0,0,0,0c0,0,0,0,0,0,0,0,0,0,0,0-.5.1-1,.1-1.5,0h0ZM55.2,44.1c-.4,0-.7.2-.7.7-.2,2.6-.4,5.3-.8,7.8h0s0,0,0,0c0,0,0,0,0,0h0c.2,0,.4,0,.5,0h0c.4-2.6,1.4-6.4,1.6-7.5,0-.2,0-.3,0-.5,0-.4-.2-.6-.6-.7h0s0,0-.2,0h0ZM47.3,44.5c-3.1,0-5.5,1.8-5.5,5s1.6,5.1,5.5,5.1,5.5-1.8,5.5-5-2-5.1-5.5-5.1h0ZM36.5,45c-3.1,0-4.7,2-4.7,4.5s1.8,4.5,4.7,4.5,4.8-1.9,4.8-4.5-1.9-4.6-4.7-4.6h0ZM47.3,45.1c2.3,0,4,1.4,4,4.5s-2.1,4.5-4,4.5-4-1.2-4-4.6,2.1-4.5,4-4.5ZM18.4,45.2c-1.2,3-2.5,6.3-3.8,8.8h0s0,0,0,0h0s0,0,0,0h0s0,0,0,0c.6-.1,1.1,0,1.4,0,0,0,0,0,0,0h0c.3-.8.7-1.7,1-2.6h0c1.2,0,2.4,0,3.6,0,.3.9.7,1.7,1,2.6,0,0,0,0,0,0h0c.5-.1,1.1-.1,1.5,0h0s0,0,0,0c-.9-1.6-2.6-6-3.8-8.8h0s0,0,0,0c-.4.1-.7.1-1,0h0ZM23.8,45.2h0c.1,2.9.1,5.9,0,8.8.5-.1,1-.1,1.5,0h0s0,0,0,0c0-1.4-.1-2.7-.1-4.1,1.6,0,3.3,0,4.9,0,0,1.4,0,2.7-.1,4.1h0s0,0,0,0c.5-.1,1-.1,1.5,0,0,0,0,0,0,0h0c-.1-2.9-.1-5.9,0-8.8h0s0,0,0,0h0c-.5.1-1,.1-1.5,0h0s0,0,0,0c0,1.4.1,2.7.1,4.1-1.6,0-3.3,0-4.9,0,0-1.4,0-2.7.1-4.1h0s0,0,0,0c-.5.1-1,.1-1.5,0h0ZM36.5,45.6h0s0,0,0,0c1.9,0,3.3,1.3,3.3,4s-1.4,4-3.3,4-3.3-1.5-3.3-4,1.5-4,3.2-4h0ZM18.9,46.7c.5,1.4,1,2.7,1.6,4.1h0c-1,0-2.1,0-3.1,0h0c.6-1.6,1.2-3.2,1.6-4.1h0ZM53.7,53.7c-.5,0-.7.4-.7.7s.4.7.8.7.7-.2.7-.7-.3-.7-.8-.7Z"/>
    <path class="st7" d="M3.2,0C1.4,0,0,1.4,0,3.2v1.1C0,2.6,1.4,1.1,3.2,1.1h57.6c1.8,0,3.2,1.4,3.2,3.2v-1.1c0-1.8-1.4-3.2-3.2-3.2H3.2Z"/>
  </g>
  <g>
    <path class="st6" d="M3.2,65.1c-1.8,0-3.2-1.4-3.2-3.2v-2.3c0,1.8,1.4,3.2,3.2,3.2h57.6c1.8,0,3.2-1.4,3.2-3.2v2.3c0,1.8-1.4,3.2-3.2,3.2H3.2Z"/>
    <path class="st18" d="M32,0H14.4C6.4,0,0,6.4,0,14.4v17.6h32V0Z"/>
    <path class="st16" d="M32,0h17.6c8,0,14.4,6.5,14.4,14.4v17.6h-32V0Z"/>
    <path class="st16" d="M32,63.9H14.6c-8,0-14.6-6.5-14.6-14.6v-17.4h32v32Z"/>
    <path class="st19" d="M32,63.9h17.5c8,0,14.5-6.5,14.5-14.5v-17.5h-32v32Z"/>
    <path class="st12" d="M3.2,0C1.4,0,0,1.4,0,3.2v1.1C0,2.6,1.4,1.1,3.2,1.1h57.6c1.8,0,3.2,1.4,3.2,3.2v-1.1c0-1.8-1.4-3.2-3.2-3.2H3.2Z"/>
    <rect class="st15" x="9.1" y="9.1" width="45.7" height="45.7"/>
    <path class="st5" d="M16,49.1h18.3"/>
    <path class="st2" d="M16,48h18.3"/>
    <path class="st4" d="M22.9,35.4v-9.1M29.7,17.1l-6.9,9.1M16,17.1l6.9,9.1"/>
    <path class="st3" d="M22.9,34.3v-9.1M29.7,16l-6.9,9.1M16,16l6.9,9.1"/>
    <path class="st4" d="M38.8,17.1h9.1M43.4,35.4v-18.3"/>
    <path class="st3" d="M38.8,16h9.1M43.4,34.3V16"/>
  </g>
</svg>