<?xml version="1.0" encoding="UTF-8"?>
<svg id="_图层_1" xmlns="http://www.w3.org/2000/svg" version="1.1" viewBox="0 0 64 64" width="48" height="48">
  <!-- Generator: Adobe Illustrator 29.0.1, SVG Export Plug-In . SVG Version: 2.1.0 Build 192)  -->
  <defs>
    <style>
      .st0, .st1, .st2, .st3 {
        isolation: isolate;
        opacity: .2;
      }

      .st0, .st3, .st4 {
        display: none;
      }

      .st5, .st3 {
        fill: #fff;
      }

      .st6, .st4 {
        fill: #9aca3c;
      }

      .st7 {
        fill: #d939a1;
      }

      .st1 {
        stroke: #000;
      }

      .st1, .st8 {
        fill: none;
        stroke-linecap: round;
        stroke-linejoin: round;
        stroke-width: 6px;
      }

      .st8 {
        stroke: #fff;
      }
    </style>
  </defs>
  <path class="st6" d="M50.4,64H13.8c-7.6,0-13.8-6.2-13.8-13.7V13.7C0,6.2,6.2,0,13.7,0h36.5c7.5,0,13.7,6.2,13.7,13.7v36.6c0,7.5-6.2,13.7-13.7,13.7h.1Z"/>
  <g>
    <path class="st0" d="M28.4,1C12.9,1,.4,13.5.4,29s12.5,28,28,28,28-12.5,28-28S43.8,1,28.4,1Z"/>
    <path class="st4" d="M28.4,0C12.9,0,.4,12.5.4,28s12.5,28,28,28,28-12.5,28-28S43.8,0,28.4,0Z"/>
    <path class="st1" d="M18.4,16l10.4,13"/>
    <path class="st1" d="M20.4,42l20-26"/>
    <g>
      <path class="st8" d="M20.4,41l20-26"/>
      <path class="st8" d="M18.4,15l10.4,13"/>
    </g>
    <path class="st3" d="M28.4,0C12.9,0,.4,12.5.4,28c0,.1,0,.3,0,.4C.7,13.2,13.1,1,28.4,1c15.3,0,27.7,12.3,28,27.6,0-.2,0-.4,0-.6C56.4,12.5,43.8,0,28.4,0Z"/>
    <circle class="st2" cx="44.4" cy="44" r="16"/>
    <circle class="st7" cx="44.4" cy="43" r="16"/>
    <path class="st5" d="M42.3,35l-.2,2.1c-.7.2-1.3.6-1.8,1.1l-1.9-.9-2,3.5,1.7,1.2c0,.4,0,.7,0,1.1,0,.4,0,.7,0,1.1l-1.7,1.2,2,3.5,1.9-.9c.5.5,1.2.8,1.8,1.1l.2,2.1h4l.2-2.1c.7-.2,1.3-.6,1.8-1.1l1.9.9,2-3.5-1.7-1.2c0-.4,0-.7,0-1.1,0-.4,0-.7,0-1.1l1.7-1.2-2-3.5-1.9.9c-.5-.5-1.2-.8-1.8-1.1l-.2-2.1h-4,0ZM44.3,40.7c1.3,0,2.3,1,2.3,2.3h0c0,1.3-1,2.3-2.3,2.3h0c-1.3,0-2.3-1-2.3-2.3h0c0-1.3,1-2.3,2.3-2.3h0Z"/>
  </g>
</svg>