<?xml version="1.0" encoding="UTF-8"?>
<svg id="_图层_1" xmlns="http://www.w3.org/2000/svg" version="1.1" viewBox="0 0 64 64" width="48" height="48">
  <!-- Generator: Adobe Illustrator 29.0.1, SVG Export Plug-In . SVG Version: 2.1.0 Build 192)  -->
  <defs>
    <style>
      .st0, .st1, .st2, .st3, .st4, .st5, .st6, .st7, .st8 {
        isolation: isolate;
      }

      .st0, .st1, .st4, .st5, .st6, .st7 {
        opacity: .2;
      }

      .st0, .st9, .st10 {
        stroke-linecap: round;
      }

      .st0, .st9, .st10, .st11, .st12, .st7 {
        fill: none;
        stroke-linejoin: round;
      }

      .st0, .st10 {
        stroke-width: 4px;
      }

      .st0, .st7 {
        stroke: #000;
      }

      .st13 {
        fill: #4f4f4f;
      }

      .st14 {
        fill: #3584e4;
      }

      .st14, .st1, .st2, .st15, .st16, .st6, .st17, .st18 {
        display: none;
      }

      .st19 {
        fill: #facb64;
      }

      .st20 {
        fill: #fd8826;
      }

      .st2, .st21, .st5, .st6, .st8 {
        fill: #fff;
      }

      .st2, .st3, .st8 {
        opacity: .1;
      }

      .st9 {
        stroke: #515153;
        stroke-width: 4px;
      }

      .st22 {
        fill: #3f3f3f;
      }

      .st23 {
        fill: #6b6c6e;
      }

      .st24 {
        fill: #ff2b6d;
      }

      .st10 {
        stroke: #fff;
      }

      .st25 {
        fill: #9b9b9b;
      }

      .st15 {
        fill: #a71416;
      }

      .st11 {
        stroke: #fefefe;
      }

      .st11, .st12, .st7 {
        stroke-width: 6px;
      }

      .st26 {
        fill: #3949ab;
      }

      .st27, .st18 {
        fill: #c4411a;
      }

      .st28 {
        fill: #a45390;
      }

      .st29 {
        fill: #f0e83c;
      }

      .st30 {
        fill: #d56d36;
      }

      .st31 {
        fill: #3d3846;
      }

      .st32 {
        fill: #b4b3b0;
      }

      .st12 {
        stroke: #9e9e9e;
      }

      .st33 {
        fill: #6db832;
      }

      .st34 {
        fill: #c2352a;
      }

      .st35 {
        fill: #4987d7;
      }

      .st17 {
        fill: #e4e4e4;
      }

      .st36 {
        fill: #8a8a8c;
      }

      .st37 {
        fill: #fafafa;
      }
    </style>
  </defs>
  <path class="st27" d="M50.3,64H13.8c-7.6,0-13.8-6.2-13.8-13.7V13.7C0,6.2,6.2,0,13.7,0h36.5c7.5,0,13.7,6.2,13.7,13.7v36.6c0,7.5-6.2,13.7-13.7,13.7h0Z"/>
  <g class="st16">
    <path class="st1" d="M0,59.5v2.3c0,1.9,1.5,3.4,3.4,3.4h57.4c1.9,0,3.4-1.5,3.4-3.4v-2.3c0,1.9-1.5,3.4-3.4,3.4H3.4c-1.9,0-3.4-1.5-3.4-3.4Z"/>
    <path class="st35" d="M3.2-.1C2.3-.1,1.5.3.9.8l31.2,31.2L63.3.8c-.6-.6-1.4-.9-2.3-.9,0,0-57.8,0-57.8,0Z"/>
    <path class="st28" d="M3.2,64.1c-.9,0-1.7-.4-2.3-.9l31.2-31.2,31.2,31.2c-.6.6-1.4.9-2.3.9H3.2Z"/>
    <path class="st33" d="M64.2,3.1c0-.9-.4-1.7-.9-2.3l-31.2,31.2,31.2,31.2c.6-.6.9-1.4.9-2.3V3.1h0Z"/>
    <path class="st34" d="M0,3.1c0-.9.4-1.7.9-2.3l31.2,31.2L.9,63.2c-.6-.6-.9-1.4-.9-2.3V3.1h0Z"/>
    <path class="st4" d="M35,5.6c-1.4,0-2.5.2-3.6.5-1,.3-1.9.8-2.6,1.3-.7.6-1.3,1.2-1.8,2s-.8,1.3-1.1,2.1c-.3.9-.5,1.8-.6,2.8s-.2,1.9-.2,2.9h0c0,1.5.2,2.9.5,4,.4,1.1.9,2,1.5,2.8.7.7,1.4,1.3,2.3,1.7.9.4,1.8.5,2.8.5s2-.2,2.8-.5,1.5-.8,2.1-1.4,1-1.4,1.3-2.2c.3-.9.5-1.9.5-3s0-2-.4-2.8c-.3-.8-.6-1.6-1.1-2.1-.5-.6-1.1-1-1.8-1.3s-1.5-.4-2.4-.4-1.1,0-1.5.2c-.4.1-.8.3-1.2.5-.4.2-.7.6-.9.9-.3.3-.5.6-.7.9h-.2c0-1,.2-1.8.4-2.6.2-.8.5-1.1,1-1.7.5-.6,1.1-1,1.9-1.3.8-.3,1.8-.5,3.1-.5s.8,0,1.2,0,.8.1,1.1.2v-3.5h-2.6s.2,0,.2,0ZM32.4,16c.8,0,1.5.3,1.9.9s.6,1.4.6,2.4,0,1.1-.2,1.6c0,.4-.3.8-.5,1.1-.2.3-.5.5-.8.7-.3.1-.7.2-1,.2s-.9-.1-1.2-.4c-.3-.2-.6-.5-.9-.9-.2-.4-.4-.8-.5-1.3s-.2-1-.2-1.4,0-.7.2-1c.1-.3.3-.6.6-.9.3-.3.6-.5.9-.7.4-.2.7-.3,1.2-.3h0ZM47,24v10.3l1,.9c.2,0,.4,0,.6-.2.2,0,.5,0,.8-.2h1.6c1.3,0,2.3.3,3,.8.6.5,1,1.3,1,2.3s-.3,2-1,2.5-1.6.8-2.9.8-.9,0-1.3,0-.9-.2-1.4-.3-.9-.3-1.3-.4c-.4-.2-.8-.3-1.1-.5v3.7c.3.2.7.3,1.1.5.4,0,.9.3,1.3.3s1,.2,1.5.2h1.5c1.3,0,2.4-.2,3.4-.5s1.8-.8,2.5-1.4c.7-.6,1.2-1.4,1.5-2.2.3-.9.5-1.9.5-3s-.2-1.9-.5-2.7-.8-1.4-1.3-2c-.6-.5-1.2-.9-2-1.2-.8-.3-1.6-.4-2.5-.4h0c-.6,0-1.1,0-1.5.1-.4,0-.7.1-1,.2l.3-4.1h6.5v-3.4h-10.3,0ZM11.5,24.1c-.8,0-1.6,0-2.2.3-.7.2-1.3.4-1.8.6-.6.3-1.1.6-1.5.9-.5.3-.9.5-1.3.9l2.4,2.8c.7-.7,1.5-1.2,2.1-1.6.7-.4,1.4-.5,2.1-.5s1.3.2,1.7.6.6.9.6,1.6,0,1.2-.3,1.7c-.2.5-.5,1.1-.8,1.6-.4.5-.8,1.1-1.3,1.6-.5.6-1,1.2-1.7,1.8l-4.8,5.4v2.8h13.7v-3.4h-8.3v-.2l2.5-2.7c.7-.7,1.4-1.4,2-2.1.6-.7,1.2-1.4,1.7-2.1.5-.7.9-1.4,1.1-2.2.3-.7.4-1.5.4-2.3s-.1-1.7-.4-2.4c-.3-.7-.7-1.1-1.3-1.6-.6-.5-1.2-.9-2-1.2-.8-.3-1.7-.4-2.6-.4h0ZM25.2,42.5v3.2h9.4l-7.3,17.2h4.5l7.1-17.7v-2.7h-13.8.1Z"/>
    <path class="st21" d="M35,4.5c-1.4,0-2.5.2-3.6.5-1,.3-1.9.8-2.6,1.3-.7.6-1.3,1.2-1.8,2s-.8,1.3-1.1,2.1c-.3.9-.5,1.8-.6,2.8s-.2,1.9-.2,2.9h0c0,1.5.2,2.9.5,4,.4,1.1.9,2,1.5,2.8.7.7,1.4,1.3,2.3,1.7.9.4,1.8.5,2.8.5s2-.2,2.8-.5,1.5-.8,2.1-1.4,1-1.4,1.3-2.2c.3-.9.5-1.9.5-3s0-2-.4-2.8c-.3-.8-.6-1.6-1.1-2.1-.5-.6-1.1-1-1.8-1.3s-1.5-.4-2.4-.4-1.1,0-1.5.2c-.4.1-.8.3-1.2.5-.4.2-.7.6-.9.9-.3.3-.5.6-.7.9h-.2c0-1,.2-1.8.4-2.6.2-.8.5-1.1,1-1.7.5-.6,1.1-1,1.9-1.3.8-.3,1.8-.5,3.1-.5s.8,0,1.2,0,.8,0,1.1.2v-3.5h-2.6s.2,0,.2,0ZM32.4,14.9c.8,0,1.5.3,1.9.9.4.6.6,1.4.6,2.4s0,1.1-.2,1.6c0,.4-.3.8-.5,1.1-.2.3-.5.5-.8.7-.3.1-.7.2-1,.2s-.9-.1-1.2-.4c-.3-.2-.6-.5-.9-.9-.2-.4-.4-.8-.5-1.3s-.2-1-.2-1.4,0-.7.2-1c.1-.3.3-.6.6-.9.3-.3.6-.5.9-.7.4-.2.7-.3,1.2-.3h0ZM47,22.8v10.3l1,.9c.2,0,.4,0,.6-.2.2,0,.5,0,.8-.2h1.6c1.3,0,2.3.3,3,.8.6.5,1,1.3,1,2.3s-.3,2-1,2.5-1.6.8-2.9.8-.9,0-1.3,0-.9-.2-1.4-.3-.9-.3-1.3-.4c-.4-.2-.8-.3-1.1-.5v3.7c.3.2.7.3,1.1.5.4,0,.9.3,1.3.3s1,.2,1.5.2h1.5c1.3,0,2.4-.2,3.4-.5s1.8-.8,2.5-1.4c.7-.6,1.2-1.4,1.5-2.2.3-.9.5-1.9.5-3s-.2-1.9-.5-2.7-.8-1.4-1.3-2c-.6-.5-1.2-.9-2-1.2-.8-.3-1.6-.4-2.5-.4h0c-.6,0-1.1,0-1.5.1-.4,0-.7.1-1,.2l.3-4.1h6.5v-3.4h-10.3,0ZM11.5,22.9c-.8,0-1.6,0-2.2.3-.7.2-1.3.4-1.8.6-.6.3-1.1.6-1.5.9-.5.3-.9.5-1.3.9l2.4,2.8c.7-.7,1.5-1.2,2.1-1.6.7-.4,1.4-.5,2.1-.5s1.3.2,1.7.6.6.9.6,1.6,0,1.2-.3,1.7c-.2.5-.5,1.1-.8,1.6-.4.5-.8,1.1-1.3,1.6-.5.6-1,1.2-1.7,1.8l-4.8,5.4v2.8h13.7v-3.4h-8.3v-.2l2.5-2.7c.7-.7,1.4-1.4,2-2.1.6-.7,1.2-1.4,1.7-2.1.5-.7.9-1.4,1.1-2.2.3-.7.4-1.5.4-2.3s-.1-1.7-.4-2.4c-.3-.7-.7-1.1-1.3-1.6-.6-.5-1.2-.9-2-1.2-.8-.3-1.7-.4-2.6-.4h0ZM25.2,41.4v3.2h9.4l-7.3,17.2h4.5l7.1-17.7v-2.7h-13.8.1Z"/>
    <path class="st2" d="M3.4-.1C1.5-.1,0,1.4,0,3.3v1.1C0,2.6,1.5,1,3.4,1h57.4c1.9,0,3.4,1.5,3.4,3.4v-1.1c0-1.9-1.5-3.4-3.4-3.4,0,0-57.4,0-57.4,0Z"/>
  </g>
  <path class="st14" d="M0,13.6H0C0,6.2,6.2,0,13.7,0h36.5c7.5,0,13.7,6.2,13.7,13.6"/>
  <g class="st16">
    <g>
      <path class="st1" d="M1.8,13.2v46.2c0,2.8,2.5,5,5.6,5h28.8l19.6-16.7V13.2H1.8Z"/>
      <path class="st17" d="M1.8,12.1v46.2c0,2.8,2.5,5,5.6,5h28.8l19.6-16.7V12.1H1.8Z"/>
      <rect class="st3" y="12.5" width="64" height=".8"/>
      <path class="st4" d="M17.8,28.9v3.1H0v-14.6h63.8v11.4s-46.1,0-46.1,0Z"/>
      <path class="st4" d="M46.1,43.5v3.1H0v-10.4h63.8v7.3h-17.7Z"/>
      <path class="st14" d="M7.4,5c-3.1,0-5.6,2.3-5.6,5v2.3h54v-2.3c0-2.8-2.5-5-5.6-5H7.4Z"/>
      <path class="st6" d="M7.4,5c-3.1,0-5.6,2.3-5.6,5v1c0-2.8,2.5-5,5.6-5h42.7c3.1,0,5.6,2.3,5.6,5v-1c0-2.8-2.5-5-5.6-5H7.4Z"/>
      <path class="st3" d="M56.8,10.2c-1.6,0-3.2.6-4.5,1.6l-2.1,1.8-2.7,2.3-.7.6L13.4,44.7h0l-1.1,5.6h0l-.7,3.6,4.2-.6h0l6.7-1h0l33.5-28.4.5-.4,2.8-2.4,2.1-1.8c2.5-2.1,2.5-5.5,0-7.6-1.2-1-2.9-1.6-4.5-1.6h0Z"/>
      <path class="st20" d="M47.6,14.7L13.4,43.7l9,7.6,34-28.8s-8.8-7.8-8.8-7.8Z"/>
      <path class="st24" d="M56.8,9.1c-1.6,0-3.2.6-4.5,1.6l-2.1,1.8,9,7.6,2.1-1.8c2.5-2.1,2.5-5.5,0-7.6-1.2-1-2.9-1.6-4.5-1.6h0Z"/>
      <path class="st5" d="M56.8,9.1c-1.6,0-3.2.6-4.5,1.6l-2.1,1.8.6.5,1.5-1.2c1.2-1,2.9-1.6,4.5-1.6s3.2.6,4.5,1.6c1.1.9,1.7,2.1,1.8,3.2.2-1.5-.4-3.1-1.8-4.3-1.2-1-2.9-1.6-4.5-1.6Z"/>
      <path class="st19" d="M15.7,52.3l6.7-1-9-7.6-1.2,5.6,3.4,3h0Z"/>
      <path class="st31" d="M11.7,52.9l4.7-.7-3.9-3.3-.8,4h0Z"/>
      <path class="st32" d="M46.9,15.3l9,7.6,3.6-3-9-7.6-3.6,3Z"/>
      <path class="st37" d="M63.9,47.3h-14.2c-3,0-5.4,2.1-5.4,4.8v11.9s19.6-16.7,19.6-16.7Z"/>
    </g>
  </g>
  <g class="st16">
    <ellipse class="st4" cx="30" cy="22.9" rx="14.8" ry="14.7"/>
    <path class="st4" d="M14.6,32.5c-2.1,0-3.7,1.6-3.7,3.6,0,1.5,1.1,2.6,2.4,3.3,2.4,1.5,6.9,6.2,10,7.8,1.2.6,2.4.7,3.6.8h5.8c1.3,0,2.8-.1,4.2-.8,3.1-1.5,7.6-6.3,10-7.8,1.3-.8,2.3-1.9,2.4-3.3,0-2-1.7-3.6-3.7-3.6-1.1,0-2.2.5-2.9,1.3-1.4,1.8-2.6,4-4.1,6-2.3,3.4-6,5.7-8.2,5.7-3.9-.1-6-2.2-8.5-5.6-1.5-2.1-2.8-4.3-4.2-6.2-.7-.9-1.8-1.3-2.9-1.3h0Z"/>
    <ellipse class="st4" cx="30" cy="51.9" rx="12.2" ry="4.8"/>
    <ellipse class="st26" cx="30" cy="22" rx="14.8" ry="14.7"/>
    <path class="st25" d="M14.6,31.6c-2.1,0-3.7,1.6-3.7,3.6,0,1.5,1.1,2.6,2.4,3.3,2.4,1.5,6.9,6.2,10,7.8,1.2.6,2.4.7,3.6.8h5.8c1.3,0,2.8-.1,4.2-.8,3.1-1.5,7.6-6.3,10-7.8,1.3-.8,2.3-1.9,2.4-3.3,0-2-1.7-3.6-3.7-3.6-1.1,0-2.2.5-2.9,1.3-1.4,1.8-2.6,4-4.1,6-2.3,3.4-6,5.7-8.2,5.7-3.9-.1-6-2.2-8.5-5.6-1.5-2.1-2.8-4.3-4.2-6.2-.7-.9-1.8-1.3-2.9-1.3h0Z"/>
    <path class="st8" d="M14.6,31.6c-2.1,0-3.7,1.6-3.7,3.6,0,.2,0,.3,0,.5.2-1.8,1.8-3.2,3.7-3.2,1.1,0,2.2.5,2.9,1.3,1.4,1.8,2.7,4.1,4.2,6.2,2.5,3.4,4.5,5.4,8.5,5.6,2.1,0,5.9-2.3,8.2-5.7,1.5-2,2.8-4.2,4.1-6,.7-.9,1.8-1.3,2.9-1.3,1.9,0,3.5,1.4,3.7,3.2,0-.2,0-.3,0-.5,0-2-1.7-3.6-3.7-3.6-1.1,0-2.2.5-2.9,1.3-1.4,1.8-2.6,4-4.1,6-2.3,3.4-6,5.7-8.2,5.7-3.9-.1-6-2.2-8.5-5.6-1.5-2.1-2.8-4.3-4.2-6.2-.7-.9-1.8-1.3-2.9-1.3Z"/>
    <ellipse class="st29" cx="30" cy="51.1" rx="12.2" ry="4.8"/>
    <path class="st8" d="M30,7.3c-8.2,0-14.8,6.6-14.8,14.7,0,.2,0,.3,0,.5.2-8,6.7-14.4,14.7-14.4,8,0,14.5,6.3,14.7,14.2,0-.1,0-.2,0-.4,0-8.1-6.6-14.7-14.8-14.7Z"/>
    <path class="st5" d="M30,46.3c-6.7,0-12.2,2.1-12.2,4.8h0c0,.1,0,.3,0,.4.6-2.4,5.8-4.3,12.1-4.3,6.3,0,11.5,1.9,12.1,4.3,0-.1,0-.3,0-.4,0-2.6-5.4-4.8-12.2-4.8Z"/>
  </g>
  <g class="st16">
    <path class="st23" d="M24.8,10.6h14.8c2,0,3.7,1.6,3.7,3.5v15.6c0,1.9-1.7,3.5-3.7,3.5h-14.8c-2,0-3.7-1.6-3.7-3.5v-15.6c0-1.9,1.7-3.5,3.7-3.5Z"/>
    <rect class="st22" x="23.9" y="14.1" width="16.6" height="16.5"/>
    <path class="st9" d="M9.1,39.2v-19.9"/>
    <ellipse class="st4" cx="11.4" cy="40.5" rx="5.1" ry="4.8"/>
    <ellipse class="st23" cx="11.4" cy="39.7" rx="5.1" ry="4.8"/>
    <path class="st9" d="M55.3,38.4v-19.9"/>
    <ellipse class="st4" cx="53" cy="40.5" rx="5.1" ry="4.8"/>
    <ellipse class="st23" cx="53" cy="39.7" rx="5.1" ry="4.8"/>
    <path class="st4" d="M11.9,50.5v-16.5c0-2.6,1.8-4.3,4.6-4.3h31.4c2.8,0,4.6,1.7,4.6,4.3v16.5s-10.2,2.6-20.3,2.6-20.3-2.6-20.3-2.6Z"/>
    <path class="st8" d="M53,34.9c-2.8,0-5.1,2.1-5.1,4.8,0,.1,0,.3,0,.4.2-2.4,2.4-4.3,5.1-4.3,2.6,0,4.8,1.9,5.1,4.3,0-.1,0-.3,0-.4,0-2.6-2.3-4.8-5.1-4.8Z"/>
    <path class="st8" d="M11.4,34.9c-2.8,0-5.1,2.1-5.1,4.8,0,.1,0,.3,0,.4.2-2.4,2.4-4.3,5.1-4.3,2.6,0,4.8,1.9,5.1,4.3,0-.1,0-.3,0-.4,0-2.6-2.3-4.8-5.1-4.8Z"/>
    <path class="st36" d="M11.9,49.6v-16.5c0-2.6,1.8-4.3,4.6-4.3h31.4c2.8,0,4.6,1.7,4.6,4.3v16.5s-10.2,2.6-20.3,2.6-20.3-2.6-20.3-2.6Z"/>
    <ellipse class="st4" cx="23.9" cy="42.7" rx="4.6" ry="4.3"/>
    <ellipse class="st21" cx="23.9" cy="41.8" rx="4.6" ry="4.3"/>
    <ellipse class="st4" cx="40.5" cy="42.7" rx="4.6" ry="4.3"/>
    <ellipse class="st21" cx="40.5" cy="41.8" rx="4.6" ry="4.3"/>
    <ellipse class="st21" cx="32.2" cy="12.4" rx=".9" ry=".9"/>
    <ellipse class="st30" cx="32.2" cy="21.9" rx="6.5" ry="6.1"/>
    <ellipse class="st21" cx="32.2" cy="21.9" rx="2.8" ry="2.6"/>
    <path class="st8" d="M24.8,10.6c-2,0-3.7,1.5-3.7,3.5v.9c0-1.9,1.6-3.5,3.7-3.5h14.8c2,0,3.7,1.5,3.7,3.5v-.9c0-1.9-1.6-3.5-3.7-3.5h-14.8Z"/>
    <path class="st8" d="M9.1,17.6c-1,0-1.8.8-1.8,1.8v.9c0-1,.8-1.7,1.8-1.8,1,0,1.9.8,1.9,1.7,0,0,0,0,0,0v-.9c0-1-.8-1.7-1.8-1.8,0,0,0,0,0,0Z"/>
    <path class="st8" d="M55.3,16.7c-1,0-1.8.8-1.8,1.8v.9c0-1,.8-1.7,1.8-1.8,1,0,1.9.8,1.9,1.7,0,0,0,0,0,0v-.9c0-1-.8-1.7-1.8-1.8,0,0,0,0,0,0Z"/>
    <path class="st5" d="M16.5,28.8c-2.8,0-4.6,1.7-4.6,4.3v.9c0-2.6,1.8-4.3,4.6-4.3h31.4c2.8,0,4.6,1.7,4.6,4.3v-.9c0-2.6-1.8-4.3-4.6-4.3h-31.4Z"/>
  </g>
  <g class="st16">
    <ellipse class="st1" cx="32" cy="32.6" rx="32" ry="31.4"/>
    <ellipse class="st15" cx="32" cy="31.4" rx="32" ry="31.4"/>
    <path class="st7" d="M32,24.7h14.1s3.1,2.9,3.1,8.4-3.1,7.3-3.1,7.3h-10.6v-7.9"/>
    <path class="st12" d="M32,23.6h14.1s3.1,2.9,3.1,8.4-3.1,7.3-3.1,7.3h-10.6v-7.9"/>
    <path class="st7" d="M12.6,24.7h19.4l-16,15.7h19.4"/>
    <path class="st11" d="M12.6,23.6h19.4l-16,15.7h19.4"/>
    <path class="st2" d="M32,0C14.3,0,0,14.1,0,31.4c0,.2,0,.4,0,.7C.3,14.9,14.5,1.1,32,1.1c17.4,0,31.6,13.7,32,30.8,0-.2,0-.3,0-.5C64,14.1,49.7,0,32,0Z"/>
  </g>
  <g>
    <path class="st1" d="M4,1.1C1.8,1.1,0,2.6,0,4.3v57.4c0,1.8,1.8,3.2,4,3.2h56c2.2,0,4-1.4,4-3.2V4.3c0-1.8-1.8-3.2-4-3.2H4Z"/>
    <path class="st13" d="M13.3,0C6.1,0,0,6.4,0,13.7v36.6c0,4.9,4.2,13.5,12.9,13.5h.4V0h0Z"/>
    <path class="st18" d="M13.3,0v63.8h46.7c2.2,0,4-1.4,4-3.2V3.2c0-1.8-1.8-3.2-4-3.2H13.3Z"/>
    <path class="st0" d="M24,17.1h29.3l-29.3,31.9h29.3"/>
    <path class="st10" d="M24,15.9h29.3l-29.3,31.9h29.3"/>
    <path class="st2" d="M4,0C1.8,0,0,1.4,0,3.2v1.1C0,2.6,1.8,1.1,4,1.1h56c2.2,0,4,1.4,4,3.2v-1.1c0-1.8-1.8-3.2-4-3.2H4Z"/>
  </g>
</svg>