<?xml version="1.0" encoding="UTF-8"?>
<svg id="_图层_1" xmlns="http://www.w3.org/2000/svg" version="1.1" viewBox="0 0 64 64" width="48" height="48">
  <!-- Generator: Adobe Illustrator 29.0.1, SVG Export Plug-In . SVG Version: 2.1.0 Build 192)  -->
  <defs>
    <style>
      .st0 {
        fill: #325e6a;
      }

      .st1 {
        fill: #2b6beb;
      }

      .st1, .st2, .st3, .st4, .st5, .st6 {
        display: none;
      }

      .st2, .st7, .st8, .st9, .st10, .st4 {
        isolation: isolate;
      }

      .st2, .st9, .st10, .st4 {
        opacity: .2;
      }

      .st11 {
        fill: #182d33;
      }

      .st12 {
        fill: #3f3f3f;
      }

      .st13, .st7, .st9, .st4 {
        fill: #fff;
      }

      .st14, .st6 {
        fill: #00c8c8;
      }

      .st7, .st8 {
        opacity: .1;
      }

      .st7, .st9 {
        fill-rule: evenodd;
      }

      .st15 {
        fill: #1996b4;
      }

      .st16 {
        fill: #223f48;
      }

      .st5 {
        fill: #e4e4e4;
      }
    </style>
  </defs>
  <path class="st14" d="M50.4,64H13.8c-7.6,0-13.8-6.2-13.8-13.7V13.7C0,6.2,6.2,0,13.7,0h36.5c7.5,0,13.7,6.2,13.7,13.7v36.6c0,7.5-6.2,13.7-13.7,13.7h.1Z"/>
  <g class="st3">
    <path class="st2" d="M3.2,1.1h57.6c1.8,0,3.2,1.4,3.2,3.2v57.6c0,1.8-1.4,3.2-3.2,3.2H3.2c-1.8,0-3.2-1.4-3.2-3.2V4.3C0,2.6,1.4,1.1,3.2,1.1Z"/>
    <rect class="st5" x="0" width="48" height="48" rx="3.2" ry="3.2"/>
    <path class="st11" d="M10.4,8h43.2c1.3,0,2.4,1.1,2.4,2.4v43.2c0,1.3-1.1,2.4-2.4,2.4H10.4c-1.3,0-2.4-1.1-2.4-2.4V10.4c0-1.3,1.1-2.4,2.4-2.4Z"/>
    <ellipse class="st10" cx="32" cy="33.2" rx="17.1" ry="17.2"/>
    <ellipse class="st16" cx="32" cy="32" rx="17.1" ry="17.2"/>
    <ellipse class="st10" cx="32" cy="33.2" rx="11.4" ry="11.4"/>
    <ellipse class="st0" cx="32" cy="32" rx="11.4" ry="11.4"/>
    <circle class="st10" cx="32" cy="33.2" r="4.6"/>
    <circle class="st15" cx="32" cy="32" r="4.6"/>
    <path class="st7" d="M32,14.9c-9.5,0-17.1,7.7-17.1,17.2,0,.2,0,.4,0,.7.3-9.3,7.8-16.7,17.1-16.7,9.2,0,16.8,7.3,17.1,16.5,0-.2,0-.3,0-.5,0-9.5-7.7-17.2-17.1-17.2Z"/>
    <path class="st7" d="M32,20.6c-6.3,0-11.4,5.1-11.4,11.4,0,.2,0,.4,0,.7.3-6.1,5.3-11,11.4-11,6,0,11,4.7,11.4,10.8,0-.2,0-.3,0-.5,0-6.3-5.1-11.4-11.4-11.4Z"/>
    <path class="st9" d="M32,27.4c-2.5,0-4.6,2-4.6,4.6,0,.2,0,.4,0,.6.3-2.3,2.2-4,4.5-4,2.3,0,4.2,1.7,4.5,4,0-.2,0-.4,0-.6,0-2.5-2-4.6-4.6-4.6Z"/>
    <path class="st4" d="M3.2,0C1.4,0,0,1.4,0,3.2v1.1C0,2.6,1.4,1.1,3.2,1.1h57.6c1.8,0,3.2,1.4,3.2,3.2v-1.1c0-1.8-1.4-3.2-3.2-3.2H3.2Z"/>
  </g>
  <g class="st3">
    <circle class="st2" cx="32.9" cy="31.7" r="27"/>
    <circle class="st1" cx="32.9" cy="30.7" r="27"/>
    <path class="st4" d="M32.9,3.7C18,3.7,5.9,15.8,5.9,30.7c0,.2,0,.4,0,.6.2-14.7,12.2-26.6,27-26.6,14.7,0,26.7,11.7,27,26.4,0-.1,0-.3,0-.4,0-14.9-12.1-27-27-27Z"/>
    <path class="st10" d="M3.9,7.7L28.9,2.7l14,14-8.2,2.8,11.2,11.2-5,2,19,26-40-22,6-3-16-11,8-3.2L3.9,7.7Z"/>
    <path class="st13" d="M3.9,6.7L28.9,1.7l14,14-8.2,2.8,11.2,11.2-5,2,19,26-40-22,6-3-16-11,8-3.2L3.9,6.7Z"/>
  </g>
  <g>
    <path class="st2" d="M3.2,1.1h57.6c1.8,0,3.2,1.4,3.2,3.2v57.5c0,1.8-1.4,3.2-3.2,3.2H3.2c-1.8,0-3.2-1.4-3.2-3.2V4.3C0,2.6,1.4,1.1,3.2,1.1Z"/>
    <path class="st6" d="M3.2,0h57.6c1.8,0,3.2,1.4,3.2,3.2v57.5c0,1.8-1.4,3.2-3.2,3.2H3.2c-1.8,0-3.2-1.4-3.2-3.2V3.2C0,1.4,1.4,0,3.2,0Z"/>
    <path class="st8" d="M17.8,54.5c-2.4-.7-3-3.7-2-5.7,1.4-3.7,4.6-6.3,7.7-8.5-1.9-.6-1.5-2.9-1-3.4.3-.3-1.1-.8-1.7-1-5.6-3.3-10.8-8.1-13.2-14.3-1.1-3-1.1-7.1,1.9-9,3.4-2.3,7.8-.7,10.9,1.3,4.1,2.6,7.1,6.4,9.7,10.4,1.1-1.5,3.6-1.1,4.1,0,3.4-5.5,8.2-11,14.7-12.6,3.1-.8,6.9.4,7.9,3.6,1.4,4.3-1,8.7-3.6,12.1-3.1,3.9-7.1,7-11.5,9.4,1.2,1.3.3,3-1,3.5,3.3,2.5,7.2,5.7,8,10.1.7,3-2.6,5.4-5.3,4.2-4.8-1.7-8.2-6-10.7-10.2-.4-1.1-.8-1.1-1.2,0-2.5,4.3-5.8,8.6-10.6,10.3-1,.3-2.1.4-3.1,0h0ZM21.8,50.4c3.1-1.8,5.1-5,6.4-8.3-3.2.8-6.1,2.8-8.1,5.3-1.7,1.8-1.1,4.7,1.7,3ZM44.6,50.5c1-2.2-1.7-4.5-3.2-5.8-1.4-1.2-5.4-2.6-5.4-2.6,1.4,3.3,3.5,7.1,6.9,8.7.6.2,1.5.4,1.8-.2h0ZM22.4,27.1c-4.5,2.9,6.6,8.4,6.9,7.4.6.2-3.2-9.7-6.9-7.4ZM37.4,33.9c2.3-.9,5.1-2.7,5.1-5.4-1-2.8-4.5-.6-5.5,1.1-.8,1.2-2.3,4.2-1.9,5,.7-.1,1.6-.4,2.3-.6ZM23.1,23.8c-1.7-1.4-3.9-3.5-6.1-2.6-2.1.9.4,4.7,1.3,6.3.7-3.8,3.8-3.5,4.8-3.7ZM45.5,21.2c-1.5.3-4.4,2-4.6,2.8,1.9-.2,4.4.3,5,3.5,0,0,4.7-7.3-.4-6.3ZM12.7,20.5c.8-2.2,3.1-3.3,5.3-3.2,1.7,0-1.4-1.1-1.7-1.3-1.7-.9-5.2-1.6-5.6,1.1-.3,1.7.6,4.8,1.6,5.4,0-.7.2-1.3.4-1.9ZM51.3,15.2c-2.2-.2-4.3,1-6.1,2.1,4.6-.7,6.7,2.6,6.6,5.3,2.4-4.4,1.7-6.9-.6-7.4Z"/>
    <path class="st12" d="M17.8,53.3c-2.4-.7-3-3.7-2-5.7,1.4-3.7,4.6-6.3,7.7-8.5-1.9-.6-1.5-2.9-1-3.4.3-.3-1.1-.8-1.7-1-5.6-3.3-10.8-8.1-13.2-14.3-1.1-3-1.1-7.1,1.9-9,3.4-2.3,7.8-.7,10.9,1.3,4.1,2.6,7.1,6.4,9.7,10.4,1.1-1.5,3.6-1.1,4.1,0,3.4-5.5,8.2-11,14.7-12.6,3.1-.8,6.9.4,7.9,3.6,1.4,4.3-1,8.7-3.6,12.1-3.1,3.9-7.1,7-11.5,9.4,1.2,1.3.3,3-1,3.5,3.3,2.5,7.2,5.7,8,10.1.7,3-2.6,5.4-5.3,4.2-4.8-1.7-8.2-6-10.7-10.2-.4-1.1-.8-1.1-1.2,0-2.5,4.3-5.8,8.6-10.6,10.3-1,.3-2.1.4-3.1,0h0ZM21.8,49.2c3.1-1.8,5.1-5,6.4-8.3-3.2.8-6.1,2.8-8.1,5.3-1.7,1.8-1.1,4.7,1.7,3ZM44.6,49.3c1-2.2-1.7-4.5-3.2-5.8-1.4-1.2-5.4-2.6-5.4-2.6,1.4,3.3,3.5,7.1,6.9,8.7.6.2,1.5.4,1.8-.2h0ZM22.4,26c-4.5,2.9,6.6,8.4,6.9,7.4.6.2-3.2-9.7-6.9-7.4ZM37.4,32.7c2.3-.9,5.1-2.7,5.1-5.4-1-2.8-4.5-.6-5.5,1.1-.8,1.2-2.3,4.2-1.9,5,.7-.1,1.6-.4,2.3-.6ZM23.1,22.6c-1.7-1.4-3.9-3.5-6.1-2.6-2.1.9.4,4.7,1.3,6.3.7-3.8,3.8-3.5,4.8-3.7ZM45.5,20.1c-1.5.3-4.4,2-4.6,2.8,1.9-.2,4.4.3,5,3.5,0,0,4.7-7.3-.4-6.3ZM12.7,19.3c.8-2.2,3.1-3.3,5.3-3.2,1.7,0-1.4-1.1-1.7-1.3-1.7-.9-5.2-1.6-5.6,1.1-.3,1.7.6,4.8,1.6,5.4,0-.7.2-1.3.4-1.9ZM51.3,14.1c-2.2-.2-4.3,1-6.1,2.1,4.6-.7,6.7,2.6,6.6,5.3,2.4-4.4,1.7-6.9-.6-7.4Z"/>
    <path class="st4" d="M3.2,0C1.4,0,0,1.4,0,3.2v1.1C0,2.6,1.4,1.1,3.2,1.1h57.6c1.8,0,3.2,1.4,3.2,3.2v-1.1c0-1.8-1.4-3.2-3.2-3.2H3.2Z"/>
  </g>
</svg>