<?xml version="1.0" standalone="no"?><!DOCTYPE svg PUBLIC "-//W3C//DTD SVG 1.1//EN" "http://www.w3.org/Graphics/SVG/1.1/DTD/svg11.dtd"><svg t="1732481672755" class="icon" viewBox="0 0 1024 1024" version="1.1" xmlns="http://www.w3.org/2000/svg" p-id="4493" xmlns:xlink="http://www.w3.org/1999/xlink" width="16" height="16"><path d="M182.857055 1023.9904a109.001055 109.001055 0 0 1-77.577081-32.127974A108.964484 108.964484 0 0 1 73.142857 914.285345V109.714563a108.964484 108.964484 0 0 1 32.137117-77.567937A108.98277 108.98277 0 0 1 182.857055 0.000366h402.285391v255.999794a109.842197 109.842197 0 0 0 109.714197 109.714198h255.999795v548.570987a108.955341 108.955341 0 0 1-32.127975 77.577081A108.991912 108.991912 0 0 1 841.14224 1023.9904z m314.861461-347.428292l62.281093 201.142695h64.566805l94.281067-308.57118h-75.995367l-55.999955 183.999852L530.285347 569.142766h-64.575948L409.142587 753.142618 353.142632 569.142766l-76.571367-0.576L370.861475 877.713946h59.428524l67.419374-201.142695zM219.428454 329.142958a36.571399 36.571399 0 0 0 36.571399 36.5714h146.285597a36.571399 36.571399 0 0 0 36.571399-36.5714 36.571399 36.571399 0 0 0-36.571399-36.571399H255.999853a36.571399 36.571399 0 0 0-36.571399 36.571399z m0-146.285596a36.571399 36.571399 0 0 0 36.571399 36.571399h146.285597a36.617113 36.617113 0 0 0 36.571399-36.571399 36.571399 36.571399 0 0 0-36.571399-36.5714H255.999853a36.571399 36.571399 0 0 0-36.571399 36.5714z m441.169931 75.958796l0.585142-215.862684a36.571399 36.571399 0 0 1 62.116522-30.655975l215.277541 215.277541a36.571399 36.571399 0 0 1-30.665118 62.107379l-215.862684 0.585142a36.571399 36.571399 0 0 1-31.451403-31.433118z" fill="#444444" p-id="4494"></path></svg>
