<?xml version="1.0" standalone="no"?><!DOCTYPE svg PUBLIC "-//W3C//DTD SVG 1.1//EN" "http://www.w3.org/Graphics/SVG/1.1/DTD/svg11.dtd"><svg t="1732229324366" class="icon" viewBox="0 0 1024 1024" version="1.1" xmlns="http://www.w3.org/2000/svg" p-id="6080" xmlns:xlink="http://www.w3.org/1999/xlink" width="16" height="16"><path d="M920.620004 461.9211V210.123652a25.835956 25.835956 0 0 0-7.674541-22.861134 80.495188 80.495188 0 0 1-8.187011-7.674541q-11.03684-10.186891-21.998685-20.461277c-23.011124-20.973746-45.522279-41.934993-67.495965-61.8838a41.097543 41.097543 0 0 1-5.112194-4.599726c-29.148258-26.085941-53.19682-47.559657-71.09575-62.908739-10.224389-8.749477-18.923869-15.349082-24.548533-19.998804a51.459424 51.459424 0 0 0-10.736858-6.649603A26.948389 26.948389 0 0 0 690.471262 0.011212a26.085941 26.085941 0 0 0-25.573471 26.08594v230.161242h204.575271V461.9211H153.953334v-0.51247h-0.487471V52.745559h434.711514a25.323486 25.323486 0 0 0 25.573471-25.573471 25.323486 25.323486 0 0 0-25.573471-25.573471H102.293922V461.9211H0.512506v434.736512h101.793915a127.904854 127.904854 0 0 0 127.854857 127.342388h690.458726V896.657612h102.793855V461.9211zM716.032234 206.248883V77.931554c15.999044 13.899169 35.96035 31.698105 59.333953 52.559358a41.497519 41.497519 0 0 1 5.112195 4.599725c21.473716 19.436338 44.49734 40.397585 66.995995 61.371331 3.749776 3.274804 7.262066 6.537109 10.624365 9.71192zM488.445839 560.402713h76.995397c56.584118 0 96.944205 19.323845 96.944205 76.595421 0 55.54668-40.360087 81.070154-95.569287 81.070154h-38.285212v96.244247h-40.085103z m-292.907491 0l23.74858 132.129601 13.449196 81.420133h1.374918c5.52467-27.26087 11.386819-54.509242 17.248969-81.420133l32.773041-132.129601h35.185397L352.441469 692.532314c5.86215 26.560912 11.386819 53.821783 17.248969 81.420133h1.724896c4.137253-27.59835 8.624484-54.859221 12.761738-81.420133l24.273549-132.129601h38.29771l-49.997011 253.922321h-49.334551l-34.160458-141.104065c-4.487232-19.998805-8.274505-38.98517-11.724299-58.309015h-1.724897c-3.449794 19.323845-7.587046 38.297711-11.724299 58.309015L254.622316 814.325034h-48.297113l-52.134383-253.922321z m673.884717 412.475343H230.161278a76.607921 76.607921 0 0 1-76.707914-76.245442h716.019698z m-89.044677-154.07829a126.679927 126.679927 0 0 1-90.394597-37.260272l23.448598-27.59835c18.286407 18.286407 43.122422 29.998207 67.620958 29.998206 30.710664 0 47.959633-14.486634 47.959633-35.885355 0-23.111118-17.248969-30.360685-40.710066-40.710066l-35.185397-15.174093c-24.498536-10.349381-51.746907-29.673226-51.746907-66.58352 0-39.997609 35.185397-69.995816 83.495009-69.995815a108.7435 108.7435 0 0 1 76.932901 32.060583l-21.036242 25.535974c-15.874051-14.149154-33.4605-22.773639-55.884159-22.773639-25.873453 0-42.784942 12.424257-42.784943 32.773041 0 21.736201 20.348784 29.998207 41.060046 38.29771l34.847917 14.836614c29.998207 12.761737 51.746907 31.398123 51.746906 68.658395-0.012499 40.710066-33.822978 73.820587-89.369657 73.820587z" fill="#444444" p-id="6081"></path><path d="M623.062792 636.985635c0-33.4605-21.048742-44.509839-61.421329-44.509839h-33.110521v93.494411h34.497938c40.710066 0.012499 60.033911-15.511573 60.033912-48.984572z" fill="#666666" p-id="6082"></path></svg>
