<?xml version="1.0" encoding="UTF-8"?>
<svg id="_图层_1" xmlns="http://www.w3.org/2000/svg" version="1.1" viewBox="0 0 64 64" width="32" height="32">
  <!-- Generator: Adobe Illustrator 29.0.1, SVG Export Plug-In . SVG Version: 2.1.0 Build 192)  -->
  <defs>
    <style>
      .st0 {
        fill: #fe3838;
      }

      .st1, .st2, .st3, .st4, .st5, .st6 {
        isolation: isolate;
      }

      .st1, .st2, .st7, .st8, .st5, .st9 {
        display: none;
      }

      .st1, .st3, .st4, .st5 {
        opacity: .2;
      }

      .st2, .st10, .st4, .st5, .st6 {
        fill: #fff;
      }

      .st2, .st6 {
        opacity: .1;
      }

      .st11 {
        fill: #4168b5;
      }

      .st12 {
        fill: #1e3d7d;
      }

      .st13 {
        fill: #e54333;
      }

      .st14 {
        fill: #ff950e;
      }

      .st7 {
        fill: #fecd38;
      }

      .st9 {
        fill: #309fb1;
      }

      .st15 {
        fill: #0fd925;
      }
    </style>
  </defs>
  <path class="st10" d="M50.3,64H13.8c-7.6,0-13.8-6.2-13.8-13.7V13.7C0,6.2,6.2,0,13.7,0h36.5c7.5,0,13.7,6.2,13.7,13.7v36.6c0,7.5-6.2,13.7-13.7,13.7h0Z"/>
  <g class="st8">
    <path class="st1" d="M.5,31.2v1.1c0,17.4,14.2,31.4,31.7,31.4s31.7-14,31.7-31.4,0-.7,0-1.1c-.6,16.9-14.5,30.3-31.7,30.3S1.1,48.1.5,31.2h0Z"/>
    <path class="st7" d="M32.2-.2h0c17.5,0,31.7,14.1,31.7,31.4h0c0,17.4-14.2,31.4-31.7,31.4h0C14.6,62.7.4,48.6.4,31.2H.4C.4,13.9,14.6-.2,32.2-.2Z"/>
    <path class="st3" d="M11.7,18.9v6.7h4.5v20.2h6.8v-26.9h-11.3ZM41.2,18.9c-7.5,0-13.6,6-13.6,13.5s6.1,13.5,13.6,13.5h18.4c1.2-2.1,2.2-4.4,2.9-6.7h-21.4c-3.8,0-6.8-3-6.8-6.7s3-6.7,6.8-6.7,3.8.8,5.1,2.2h7.8c-1.9-5.4-7-9-12.8-9h0Z"/>
    <path class="st0" d="M11.7,17.8v6.7h4.5v20.2h6.8v-26.9s-11.3,0-11.3,0ZM41.2,17.8c-7.5,0-13.6,6-13.6,13.5s6.1,13.5,13.6,13.5h19.6c1-2.1,1.8-4.4,2.3-6.7h-21.9c-3.8,0-6.8-3-6.8-6.7s3-6.7,6.8-6.7,3.8.8,5.1,2.2h7.8c-1.9-5.4-7-9-12.8-9h-.1Z"/>
    <path class="st2" d="M32.2-.2C14.6-.2.4,13.8.4,31.2s0,.3,0,.4C.8,14.6,14.8.9,32.2.9s31.3,13.6,31.7,30.7v-.4C63.9,13.8,49.7-.2,32.2-.2Z"/>
  </g>
  <g class="st8">
    <ellipse class="st1" cx="31.9" cy="33" rx="31.9" ry="31.8"/>
    <ellipse class="st9" cx="31.9" cy="31.8" rx="31.9" ry="31.8"/>
    <path class="st5" d="M31.9,0C14.3,0,0,14.3,0,31.8c0,.2,0,.4,0,.7C.3,15.1,14.5,1.1,31.9,1.1c17.4,0,31.6,13.9,31.9,31.2,0-.2,0-.3,0-.5C63.9,14.3,49.6,0,31.9,0Z"/>
    <path class="st3" d="M20.5,21.6c-2.3,0-2.3,2.3-2.3,2.3v2.3s0,6.8-5.7,6.8-4.7-2.4-5.3-4.3c-.3,1.4-.4,2.9-.4,4.3,0,13.8,11.2,25,25.1,25s25.1-11.2,25.1-25c0-1.9-.2-3.8-.7-5.6-1.6.4-1.6,2.2-1.6,2.2v8s0,2.3-2.3,2.3-2.3-2.3-2.3-2.3v-6.8s0-2.3-2.3-2.3-2.3,2.3-2.3,2.3v9.1s0,3.4-4.6,3.4-4.6-4.5-4.6-4.5v-12.5s0-4.5-4.6-4.5-4.6,4.5-4.6,4.5v19.3s0,2.3-2.3,2.3-2.3-2.3-2.3-2.3v-21.6s0-2.3-2.3-2.3Z"/>
    <path class="st10" d="M20.5,20.5c-2.3,0-2.3,2.3-2.3,2.3v2.3s0,6.8-5.7,6.8-4.7-2.4-5.3-4.3c-.3,1.4-.4,2.9-.4,4.3,0,13.8,11.2,25,25.1,25s25.1-11.2,25.1-25c0-1.9-.2-3.8-.7-5.6-1.6.4-1.6,2.2-1.6,2.2v8s0,2.3-2.3,2.3-2.3-2.3-2.3-2.3v-6.8s0-2.3-2.3-2.3-2.3,2.3-2.3,2.3v9.1s0,3.4-4.6,3.4-4.6-4.5-4.6-4.5v-12.5s0-4.5-4.6-4.5-4.6,4.5-4.6,4.5v19.3s0,2.3-2.3,2.3-2.3-2.3-2.3-2.3v-21.6s0-2.3-2.3-2.3Z"/>
  </g>
  <g class="st8">
    <circle class="st3" cx="44.1" cy="25.8" r="16"/>
    <circle class="st13" cx="44.1" cy="24.8" r="16"/>
    <path class="st4" d="M44.1,8.8c-8.8,0-16,7.2-16,16,0,.2,0,.4,0,.6.2-8.7,7.3-15.6,16-15.6,8.6,0,15.7,6.8,16,15.4,0-.1,0-.3,0-.4,0-8.8-7.2-16-16-16Z"/>
    <circle class="st3" cx="21.1" cy="31.8" r="16"/>
    <circle class="st15" cx="21.1" cy="30.8" r="16"/>
    <circle class="st3" cx="39.1" cy="40.8" r="16"/>
    <path class="st4" d="M21.1,14.8c-8.8,0-16,7.2-16,16,0,.2,0,.4,0,.6.2-8.7,7.3-15.6,16-15.6,8.6,0,15.7,6.8,16,15.4,0-.1,0-.3,0-.4,0-8.8-7.2-16-16-16Z"/>
    <circle class="st11" cx="39.1" cy="39.8" r="16"/>
    <path class="st4" d="M39.1,23.8c-8.8,0-16,7.2-16,16,0,.2,0,.4,0,.6.2-8.7,7.3-15.6,16-15.6,8.6,0,15.7,6.8,16,15.4,0-.1,0-.3,0-.4,0-8.8-7.2-16-16-16Z"/>
  </g>
  <g>
    <path class="st3" d="M49.6,55.7V9.3c0-1.4-1.2-2.6-2.6-2.6H9.8c-1.4,0-2.6,1.2-2.6,2.6v46.4c0,1.4,1.2,2.6,2.6,2.6h37.3c1.4,0,2.6-1.2,2.6-2.6Z"/>
    <path class="st12" d="M49.6,54.8V8.4c0-1.4-1.2-2.6-2.6-2.6H9.8c-1.4,0-2.6,1.2-2.6,2.6v46.4c0,1.4,1.2,2.6,2.6,2.6h37.3c1.4,0,2.6-1.2,2.6-2.6Z"/>
    <path class="st6" d="M9.8,5.8c-1.4,0-2.6,1.1-2.6,2.6v.9c0-1.4,1.1-2.6,2.6-2.6h37.3c1.4,0,2.6,1.1,2.6,2.6v-.9c0-1.4-1.1-2.6-2.6-2.6H9.8Z"/>
    <path class="st3" d="M7.2,16.7v8.1h8.1v-8.1H7.2ZM7.2,28.5v2.7h28v-2.7H7.2ZM7.2,33.9v2.7h28v-2.7H7.2ZM7.2,39.3v2.7h28v-2.7H7.2Z"/>
    <path class="st10" d="M49.6,12.3v34.8h-19.3L49.6,12.3Z"/>
    <path class="st10" d="M7.2,15.8v8.1h8.1v-8.1H7.2ZM7.2,27.6v2.7h28v-2.7H7.2ZM7.2,33v2.7h28v-2.7H7.2ZM7.2,38.4v2.7h28v-2.7H7.2Z"/>
    <path class="st3" d="M46.5,6.7l-21.3,39.4v5.9h21.6v6.3h8.1v-6.3h3.6v-8.1h-3.6V6.7h-8.5ZM46.9,21.5v22.3h-12.5l12.5-22.3Z"/>
    <path class="st14" d="M46.5,5.8l-21.3,39.4v5.9h21.6v6.3h8.1v-6.3h3.6v-8.1h-3.6V5.8h-8.5ZM46.9,20.6v22.3h-12.5l12.5-22.3Z"/>
    <path class="st4" d="M46.5,5.8l-21.3,39.4v.9L46.5,6.7h8.5v-.9h-8.5ZM34.9,42.9l-.5.9h12.5v-.9h-12ZM55,42.9v.9h3.6v-.9h-3.6Z"/>
  </g>
</svg>