<?xml version="1.0" encoding="UTF-8"?>
<svg id="_图层_1" xmlns="http://www.w3.org/2000/svg" version="1.1" viewBox="0 0 64 64" width="32" height="32">
  <!-- Generator: Adobe Illustrator 29.0.1, SVG Export Plug-In . SVG Version: 2.1.0 Build 192)  -->
  <defs>
    <style>
      .st0, .st1, .st2 {
        isolation: isolate;
      }

      .st0, .st1, .st3 {
        display: none;
      }

      .st0, .st2 {
        opacity: .2;
      }

      .st1 {
        fill: #fff;
        opacity: .1;
      }

      .st4 {
        fill: #00ad9a;
      }

      .st5, .st3 {
        fill: #455a64;
      }

      .st6 {
        fill: #1092ff;
      }
    </style>
  </defs>
  <path class="st5" d="M50.4,64H13.8c-7.6,0-13.8-6.2-13.8-13.7V13.7C0,6.2,6.2,0,13.7,0h36.6c7.5,0,13.7,6.2,13.7,13.7v36.6c0,7.5-6.2,13.7-13.7,13.7h.1Z"/>
  <g>
    <ellipse class="st0" cx="32" cy="32.9" rx="32" ry="31.8"/>
    <ellipse class="st3" cx="32" cy="31.8" rx="32" ry="31.8"/>
    <path class="st2" d="M35.6,19.3c-1.4-.2-3,.3-4,1.4.3.6,2,.3,2.6,1.1.9.8,2.5,2.5,1.3,3.7-4.6,4.4-10.1,9.9-14.7,14.4-.8,1-2.3,1.7-2.5,3.2.3,1.4,1.5,2.5,2.5,3.3.5.2,1.1.1,1.4-.3,6-6.4,10.3-11.8,15.8-17.9.7-.6,1.8-.5,1.8.7-.8,1.3,1.2,2.1,1.8,3.1.7.5,1.2-.5,1.7-.9.8-1,2.3-1.6,2.4-3-.9-.9-1.6-3-2.9-2.4-1.3-.6-.8-2.8-2.1-3.5-1.1-.9-2.5-1.1-3.5-2.3-.5-.3-1.1-.5-1.6-.5Z"/>
    <path class="st4" d="M35.6,18.2c-1.4-.2-3,.3-4,1.4.3.6,2,.3,2.6,1.1.9.8,2.5,2.5,1.3,3.7-4.6,4.4-10.1,9.9-14.7,14.4-.8,1-2.3,1.7-2.5,3.2.3,1.4,1.5,2.5,2.5,3.3.5.2,1.1.1,1.4-.3,6-6.4,10.3-11.8,15.8-17.9.7-.6,1.8-.5,1.8.7-.8,1.3,1.2,2.1,1.8,3.1.7.5,1.2-.5,1.7-.9.8-1,2.3-1.6,2.4-3-.9-.9-1.6-3-2.9-2.4-1.3-.6-.8-2.8-2.1-3.5-1.1-.9-2.5-1.1-3.5-2.3-.5-.3-1.1-.5-1.6-.5Z"/>
    <path class="st2" d="M23.4,19.3c-.5,0-.9,0-1.4,0-2.1.1-.8,1.7.5,2,2.1.6,2.1,2.9.8,4.4-1.1,1.9-2.8,0-4.2-.5-2-.3,0,2.4.6,3.1.9,1.4,2.5,2.1,4.2,1.9,2.1-.3,3.5,1.5,4.9,2.8,3.8,3.5,7.7,7.4,11.6,11.3.6.5,1.2,1,1.6,1.6,2.1,2,5.3-1.2,2.9-3.7-4.9-4.5-9.9-9.6-14.5-14-.7-.7-1.4-1.5-1.9-2.4-.8-1.6,0-3.8-1.4-5.2-1-1.1-2.4-1.3-3.7-1.3Z"/>
    <path class="st6" d="M23.4,18.2c-.5,0-.9,0-1.4,0-2.1.1-.8,1.7.5,2,2.1.6,2.1,2.9.8,4.4-1.1,1.9-2.8,0-4.2-.5-2-.3,0,2.4.6,3.1.9,1.4,2.5,2.1,4.2,1.9,2.1-.3,3.5,1.5,4.9,2.8,3.8,3.5,7.7,7.4,11.6,11.3.6.5,1.2,1,1.6,1.6,2.1,2,5.3-1.2,2.9-3.7-4.9-4.5-9.9-9.6-14.5-14-.7-.7-1.4-1.5-1.9-2.4-.8-1.6,0-3.8-1.4-5.2-1-1.1-2.4-1.3-3.7-1.3Z"/>
    <path class="st1" d="M32,0C14.3,0,0,14.2,0,31.8c0,.2,0,.4,0,.6C.3,15,14.6,1.1,32,1.1c17.5,0,31.7,13.9,32,31.2,0-.2,0-.4,0-.6C64.1,14.2,49.7,0,32,0Z"/>
  </g>
</svg>