<?xml version="1.0" encoding="UTF-8"?>
<svg id="_图层_1" xmlns="http://www.w3.org/2000/svg" version="1.1" viewBox="0 0 64 64" width="32" height="32">
  <!-- Generator: Adobe Illustrator 29.0.1, SVG Export Plug-In . SVG Version: 2.1.0 Build 192)  -->
  <defs>
    <style>
      .st0 {
        fill: #fe3838;
      }

      .st1, .st2, .st3, .st4, .st5, .st6 {
        isolation: isolate;
      }

      .st1, .st3 {
        opacity: .1;
      }

      .st1, .st4, .st7, .st8, .st9 {
        fill-rule: evenodd;
      }

      .st2, .st3, .st10, .st11, .st6, .st12 {
        display: none;
      }

      .st2, .st4, .st5, .st6 {
        opacity: .2;
      }

      .st3, .st13, .st6 {
        fill: #fff;
      }

      .st7 {
        fill: #5802cd;
      }

      .st8 {
        fill: #51004d;
      }

      .st10 {
        fill: #fecd38;
      }

      .st12, .st14 {
        fill: #e4e4e4;
      }

      .st15 {
        fill: #f34235;
      }

      .st9 {
        fill: #ec0361;
      }
    </style>
  </defs>
  <path class="st14" d="M50.3,64H13.8c-7.6,0-13.8-6.2-13.8-13.7V13.7C0,6.2,6.2,0,13.7,0h36.5c7.5,0,13.7,6.2,13.7,13.7v36.6c0,7.5-6.2,13.7-13.7,13.7h0Z"/>
  <g class="st11">
    <path class="st2" d="M.5,31.2v1.1c0,17.4,14.2,31.4,31.7,31.4s31.7-14,31.7-31.4,0-.7,0-1.1c-.6,16.9-14.5,30.3-31.7,30.3S1.1,48.1.5,31.2h0Z"/>
    <path class="st10" d="M32.2-.2h0c17.5,0,31.7,14.1,31.7,31.4h0c0,17.4-14.2,31.4-31.7,31.4h0C14.6,62.7.4,48.6.4,31.2H.4C.4,13.9,14.6-.2,32.2-.2Z"/>
    <path class="st5" d="M11.7,18.9v6.7h4.5v20.2h6.8v-26.9h-11.3ZM41.2,18.9c-7.5,0-13.6,6-13.6,13.5s6.1,13.5,13.6,13.5h18.4c1.2-2.1,2.2-4.4,2.9-6.7h-21.4c-3.8,0-6.8-3-6.8-6.7s3-6.7,6.8-6.7,3.8.8,5.1,2.2h7.8c-1.9-5.4-7-9-12.8-9h0Z"/>
    <path class="st0" d="M11.7,17.8v6.7h4.5v20.2h6.8v-26.9s-11.3,0-11.3,0ZM41.2,17.8c-7.5,0-13.6,6-13.6,13.5s6.1,13.5,13.6,13.5h19.6c1-2.1,1.8-4.4,2.3-6.7h-21.9c-3.8,0-6.8-3-6.8-6.7s3-6.7,6.8-6.7,3.8.8,5.1,2.2h7.8c-1.9-5.4-7-9-12.8-9h-.1Z"/>
    <path class="st3" d="M32.2-.2C14.6-.2.4,13.8.4,31.2s0,.3,0,.4C.8,14.6,14.8.9,32.2.9s31.3,13.6,31.7,30.7v-.4C63.9,13.8,49.7-.2,32.2-.2Z"/>
  </g>
  <g class="st11">
    <g>
      <path class="st2" d="M3.6,54.7v2.1c0,1.7,1.5,3.2,3.3,3.2h41.9c1.8,0,3.3-1.4,3.3-3.2v-2.1c0,1.7-1.5,3.2-3.3,3.2H6.9c-1.8,0-3.3-1.4-3.3-3.2Z"/>
      <path class="st12" d="M52.2,55.8V3.2c0-1.7-1.5-3.2-3.3-3.2H6.9c-1.8.1-3.3,1.5-3.3,3.2v52.6c0,1.7,1.5,3.2,3.3,3.2h41.9c1.8,0,3.3-1.4,3.3-3.2h.1Z"/>
      <path class="st3" d="M6.9.1C5.1.1,3.6,1.5,3.6,3.2v1.1c0-1.7,1.5-3.2,3.3-3.2h41.9c1.8,0,3.3,1.4,3.3,3.2v-1.1c0-1.7-1.5-3.2-3.3-3.2H6.9Z"/>
      <path class="st4" d="M63.1,48.5c-.4,6.7-6.5,12-14,12s-13.5-5.2-14-11.8v.7c0,7,6.3,12.7,14.1,12.7s14.1-5.7,14.1-12.7v-.9h-.2Z"/>
      <ellipse class="st15" cx="49.1" cy="48.5" rx="14.1" ry="12.7"/>
      <path class="st13" d="M42.1,52.1v2.8h3.1l7.9-7.2-3.1-2.8-7.9,7.2ZM55.9,45.3c.3-.3.3-.8,0-1.1l-2-1.7c-.3-.3-.9-.3-1.2,0l-1.7,1.5,3.1,2.8,1.7-1.5h0Z"/>
      <rect class="st5" y="15.5" width="63.9" height="4.2"/>
      <rect class="st5" y="25" width="63.9" height="4.2"/>
      <rect class="st5" y="34.5" width="39" height="4.2"/>
    </g>
  </g>
  <g>
    <ellipse class="st2" cx="32" cy="32.9" rx="32" ry="31.8"/>
    <ellipse class="st12" cx="32" cy="31.8" rx="32" ry="31.8"/>
    <path class="st1" d="M46,29.5c.7,0,1,.8.7,1.3l-17.8,25.6c-.5.7-1.5.3-1.5-.5v-25.6c0-.5.4-.8.8-.8h17.8Z"/>
    <path class="st9" d="M46,28.4c.7,0,1,.8.7,1.3l-17.8,25.6c-.5.7-1.5.3-1.5-.5v-25.6c0-.5.4-.8.8-.8h17.8Z"/>
    <path class="st1" d="M34.6,10.2c-.3,0-.5.1-.6.4l-17.8,25.6c-.4.5,0,1.3.7,1.3h17.8c.4,0,.8-.4.8-.8V11.1c0-.5-.4-.8-.8-.8ZM32,19.4v14.7h-10.2l10.2-14.7Z"/>
    <path class="st7" d="M34.6,9.1c-.3,0-.5.1-.6.4l-17.8,25.6c-.4.5,0,1.3.7,1.3h17.8c.4,0,.8-.4.8-.8V9.9c0-.5-.4-.8-.8-.8ZM32,18.3v14.7h-10.2l10.2-14.7Z"/>
    <path class="st6" d="M32,0C14.3,0,0,14.2,0,31.8c0,.2,0,.4,0,.7C.3,15.1,14.5,1.1,32,1.1c17.4,0,31.6,13.8,32,31.1,0-.2,0-.3,0-.5C64,14.2,49.7,0,32,0Z"/>
    <path class="st8" d="M32,28.4v4.5h-4.6v3.4h7.2c.4,0,.8-.4.8-.8v-7.1h-3.4Z"/>
  </g>
</svg>