<?xml version="1.0" encoding="UTF-8"?>
<svg id="_图层_1" xmlns="http://www.w3.org/2000/svg" version="1.1" viewBox="0 0 64 64" width="32" height="32">
  <!-- Generator: Adobe Illustrator 29.0.1, SVG Export Plug-In . SVG Version: 2.1.0 Build 192)  -->
  <defs>
    <style>
      .st0, .st1, .st2 {
        isolation: isolate;
      }

      .st0, .st2 {
        opacity: .2;
      }

      .st0, .st2, .st3 {
        display: none;
      }

      .st4 {
        fill: #8b82a4;
      }

      .st5 {
        fill: #5f5088;
      }

      .st1 {
        opacity: .1;
      }

      .st2 {
        fill: #fff;
      }

      .st3, .st6 {
        fill: #e4e4e4;
      }
    </style>
  </defs>
  <path class="st6" d="M50.3,64H13.8c-7.6,0-13.8-6.2-13.8-13.7V13.7C0,6.2,6.2,0,13.7,0h36.5c7.5,0,13.7,6.2,13.7,13.7v36.6c0,7.5-6.2,13.7-13.7,13.7h0Z"/>
  <g>
    <path class="st0" d="M3.6.8h56.9c1.9,0,3.4,1.5,3.4,3.5v57.3c0,1.9-1.5,3.5-3.4,3.5H3.6c-1.9,0-3.4-1.5-3.4-3.5V4.3C.2,2.4,1.7.8,3.6.8Z"/>
    <path class="st3" d="M3.6-.4h56.9c1.9,0,3.4,1.5,3.4,3.5v57.3c0,1.9-1.5,3.5-3.4,3.5H3.6c-1.9,0-3.4-1.5-3.4-3.5V3.1C.2,1.2,1.7-.4,3.6-.4Z"/>
    <path class="st1" d="M8.7,10.7l12.3,22.2-12.3,22.2h7.4l12.3-22.2-12.3-22.2h-7.4ZM21,10.7l12.3,22.2-12.3,22.2h7.4l8.6-15.6,8.6,15.6h7.4L28.4,10.7h-7.4ZM41.4,25.6l2.7,4.9h11.2v-4.9h-13.9ZM46.9,35.4l2.7,4.9h5.7v-4.9h-8.4Z"/>
    <path class="st4" d="M8.7,9.5l12.3,22.2-12.3,22.2h7.4l12.3-22.2-12.3-22.2h-7.4ZM41.4,24.3l2.7,4.9h11.2v-4.9h-13.9ZM46.9,34.2l2.7,4.9h5.7v-4.9h-8.4Z"/>
    <path class="st5" d="M21,9.5l12.3,22.2-12.3,22.2h7.4l8.6-15.6,8.6,15.6h7.4L28.4,9.5h-7.4Z"/>
    <path class="st2" d="M3.6-.4C1.7-.4.2,1.2.2,3.1v1.2C.2,2.4,1.7.8,3.6.8h56.9c1.9,0,3.4,1.5,3.4,3.5v-1.2c0-1.9-1.5-3.5-3.4-3.5H3.6Z"/>
  </g>
</svg>