<?xml version="1.0" encoding="UTF-8"?>
<svg id="_图层_1" xmlns="http://www.w3.org/2000/svg" version="1.1" viewBox="0 0 64 64" width="32" height="32">
  <!-- Generator: Adobe Illustrator 29.0.1, SVG Export Plug-In . SVG Version: 2.1.0 Build 192)  -->
  <defs>
    <style>
      .st0 {
        fill: #863ea7;
      }

      .st1, .st2, .st3, .st4, .st5 {
        display: none;
      }

      .st1, .st6, .st7, .st8, .st9, .st4, .st10 {
        isolation: isolate;
      }

      .st1, .st8, .st9, .st4 {
        opacity: .2;
      }

      .st11 {
        fill: #8b82a4;
      }

      .st12 {
        fill: #5f5088;
      }

      .st13 {
        fill: none;
        stroke: #ff5722;
        stroke-linejoin: round;
        stroke-width: 6px;
      }

      .st14, .st9, .st4, .st10 {
        fill: #fff;
      }

      .st2, .st15 {
        fill: #e0b833;
      }

      .st16 {
        fill: #ff9800;
      }

      .st6, .st10 {
        opacity: .1;
      }

      .st7 {
        opacity: .3;
      }

      .st5 {
        fill: #e4e4e4;
      }
    </style>
  </defs>
  <path class="st15" d="M50.3,64H13.8c-7.6,0-13.8-6.2-13.8-13.7V13.7C0,6.2,6.2,0,13.7,0h36.5c7.5,0,13.7,6.2,13.7,13.7v36.6c0,7.5-6.2,13.7-13.7,13.7h0Z"/>
  <g class="st3">
    <path class="st1" d="M3.6.8h56.9c1.9,0,3.4,1.5,3.4,3.5v57.3c0,1.9-1.5,3.5-3.4,3.5H3.6c-1.9,0-3.4-1.5-3.4-3.5V4.3C.2,2.4,1.7.8,3.6.8Z"/>
    <path class="st5" d="M3.6-.4h56.9c1.9,0,3.4,1.5,3.4,3.5v57.3c0,1.9-1.5,3.5-3.4,3.5H3.6c-1.9,0-3.4-1.5-3.4-3.5V3.1C.2,1.2,1.7-.4,3.6-.4Z"/>
    <path class="st6" d="M8.7,10.7l12.3,22.2-12.3,22.2h7.4l12.3-22.2-12.3-22.2h-7.4ZM21,10.7l12.3,22.2-12.3,22.2h7.4l8.6-15.6,8.6,15.6h7.4L28.4,10.7h-7.4ZM41.4,25.6l2.7,4.9h11.2v-4.9h-13.9ZM46.9,35.4l2.7,4.9h5.7v-4.9h-8.4Z"/>
    <path class="st11" d="M8.7,9.5l12.3,22.2-12.3,22.2h7.4l12.3-22.2-12.3-22.2h-7.4ZM41.4,24.3l2.7,4.9h11.2v-4.9h-13.9ZM46.9,34.2l2.7,4.9h5.7v-4.9h-8.4Z"/>
    <path class="st12" d="M21,9.5l12.3,22.2-12.3,22.2h7.4l8.6-15.6,8.6,15.6h7.4L28.4,9.5h-7.4Z"/>
    <path class="st4" d="M3.6-.4C1.7-.4.2,1.2.2,3.1v1.2C.2,2.4,1.7.8,3.6.8h56.9c1.9,0,3.4,1.5,3.4,3.5v-1.2c0-1.9-1.5-3.5-3.4-3.5H3.6Z"/>
  </g>
  <g class="st3">
    <path class="st8" d="M55.8,46.7V14.8c0-1.3-1.1-2.3-2.4-2.3H10.6c-1.3,0-2.4,1-2.4,2.3v31.9c0,1.3,1.1,2.3,2.4,2.3h42.8c1.3,0,2.4-1,2.4-2.3Z"/>
    <path class="st0" d="M55.8,45.9V14c0-1.3-1.1-2.3-2.4-2.3H10.6c-1.3,0-2.4,1-2.4,2.3v31.9c0,1.3,1.1,2.3,2.4,2.3h42.8c1.3,0,2.4-1,2.4-2.3Z"/>
    <path class="st8" d="M26.6,22c-.7,0-1.3.5-1.4,1.2,0,0,0,0,0,0v15c0,.7.6,1.2,1.3,1.2.2,0,.5,0,.7-.2l7.1-3.7,7.1-3.7c.6-.3.9-1.1.5-1.7-.1-.2-.3-.3-.5-.4l-7.1-3.7-7.1-3.7c-.2-.1-.4-.2-.6-.2Z"/>
    <path class="st14" d="M26.6,21.2c-.7,0-1.3.5-1.4,1.2,0,0,0,0,0,0v15c0,.7.6,1.2,1.3,1.2.2,0,.5,0,.7-.2l7.1-3.7,7.1-3.7c.6-.3.9-1.1.5-1.7-.1-.2-.3-.3-.5-.4l-7.1-3.7-7.1-3.7c-.2-.1-.4-.2-.6-.2Z"/>
    <path class="st7" d="M48.4,17.3h2.8c.6,0,1.1.5,1.1,1v2.7c0,.6-.5,1-1.1,1h-2.8c-.6,0-1.1-.5-1.1-1v-2.7c0-.6.5-1,1.1-1Z"/>
    <path class="st7" d="M48.4,38.6h2.8c.6,0,1.1.5,1.1,1v2.7c0,.6-.5,1-1.1,1h-2.8c-.6,0-1.1-.5-1.1-1v-2.7c0-.6.5-1,1.1-1Z"/>
    <path class="st7" d="M48.4,31.5h2.8c.6,0,1.1.5,1.1,1v2.7c0,.6-.5,1-1.1,1h-2.8c-.6,0-1.1-.5-1.1-1v-2.7c0-.6.5-1,1.1-1Z"/>
    <path class="st7" d="M48.4,24.4h2.8c.6,0,1.1.5,1.1,1v2.7c0,.6-.5,1-1.1,1h-2.8c-.6,0-1.1-.5-1.1-1v-2.7c0-.6.5-1,1.1-1Z"/>
    <path class="st7" d="M12.8,17.3h2.8c.6,0,1.1.5,1.1,1v2.7c0,.6-.5,1-1.1,1h-2.8c-.6,0-1.1-.5-1.1-1v-2.7c0-.6.5-1,1.1-1Z"/>
    <path class="st7" d="M12.8,38.6h2.8c.6,0,1.1.5,1.1,1v2.7c0,.6-.5,1-1.1,1h-2.8c-.6,0-1.1-.5-1.1-1v-2.7c0-.6.5-1,1.1-1Z"/>
    <path class="st7" d="M12.8,31.5h2.8c.6,0,1.1.5,1.1,1v2.7c0,.6-.5,1-1.1,1h-2.8c-.6,0-1.1-.5-1.1-1v-2.7c0-.6.5-1,1.1-1Z"/>
    <path class="st7" d="M12.8,24.4h2.8c.6,0,1.1.5,1.1,1v2.7c0,.6-.5,1-1.1,1h-2.8c-.6,0-1.1-.5-1.1-1v-2.7c0-.6.5-1,1.1-1Z"/>
    <path class="st10" d="M10.6,11.7c-1.3,0-2.4,1-2.4,2.3v.8c0-1.3,1.1-2.3,2.4-2.3h42.8c1.3,0,2.4,1,2.4,2.3v-.8c0-1.3-1.1-2.3-2.4-2.3H10.6Z"/>
    <path class="st8" d="M53.1,26.8c-.2,0-.3,0-.5,0l-18.7,4.1c-1.2.3-2,1.2-2,2.3v16.5h5.1v-14.6l13.6-3v14.4h5.1v-17.4c0-1.3-1.1-2.4-2.5-2.4,0,0,0,0,0,0Z"/>
    <path class="st13" d="M34.5,48.9v-16.5l18.7-4.1v17.4"/>
    <ellipse class="st8" cx="31.2" cy="49.7" rx="5.9" ry="5.5"/>
    <ellipse class="st16" cx="31.2" cy="48.9" rx="5.9" ry="5.5"/>
    <ellipse class="st8" cx="49.8" cy="46.6" rx="5.9" ry="5.5"/>
    <ellipse class="st16" cx="49.8" cy="45.8" rx="5.9" ry="5.5"/>
    <path class="st9" d="M49.8,40.2c-3.3,0-5.9,2.5-5.9,5.5,0,.1,0,.2,0,.4.2-2.9,2.8-5.1,5.9-5.1,3.1,0,5.7,2.2,5.9,5.1,0-.1,0-.3,0-.4,0-3.1-2.7-5.5-5.9-5.5ZM31.2,43.4c-3.3,0-5.9,2.5-5.9,5.5,0,.1,0,.2,0,.4.2-2.9,2.8-5.1,5.9-5.1,3.1,0,5.7,2.2,5.9,5.1,0-.1,0-.3,0-.4,0-3.1-2.7-5.5-5.9-5.5Z"/>
    <path class="st9" d="M53.1,26c-.2,0-.3,0-.5,0l-18.7,4.1c-1.2.3-2,1.2-2,2.3v.8c0-1.1.8-2.1,2-2.3l18.7-4.1c.2,0,.3,0,.5,0,1.4,0,2.6,1,2.6,2.3,0,0,0,0,0,0v-.8c0-1.3-1.1-2.4-2.5-2.4,0,0,0,0,0,0Z"/>
  </g>
  <g>
    <path class="st1" d="M14.4,1.1h35.2c8,0,14.4,6.4,14.4,14.4v35.2c0,7.9-6.4,14.4-14.4,14.4H14.4c-8,0-14.4-6.4-14.4-14.4V15.5C0,7.6,6.4,1.1,14.4,1.1Z"/>
    <path class="st2" d="M14.4,0h35.2C57.5,0,64,6.4,64,14.4v35.2c0,7.9-6.4,14.4-14.4,14.4H14.4c-8,0-14.4-6.4-14.4-14.4V14.4C0,6.4,6.4,0,14.4,0Z"/>
    <path class="st4" d="M14.4,0C6.4,0,0,6.4,0,14.4v1.1C0,7.6,6.4,1.1,14.4,1.1h35.2c8,0,14.4,6.4,14.4,14.4v-1.1C64,6.4,57.6,0,49.6,0H14.4Z"/>
    <path class="st8" d="M25.9,0c-.9,2.2-1.8,5.2-1.9,8.2,0,3.4,1.2,7.8,1.2,7.8l5.7-1.2s-2.2-2.4-2.3-6.9c0-2.8,1-5.7,2-7.9,0,0-4.6,0-4.6,0ZM63.8,12.2c-2.8.2-6.6.5-8.9,1.2-7.6,2.1-17.1,4.8-17.1,4.8l3.9,3.4s7.5-2.8,13.7-4c2.5-.5,5.9-.7,8.6-.9v-2.5c0-.7,0-1.4-.2-2.1ZM0,16v4.4c2,.4,4.8.9,8.2,1.4,3,.5,9.1,1,9.1,1l1-4.6s-5.6,0-8.4-.3c-4.1-.6-7.6-1.4-9.9-1.9ZM37.7,27.4l-4.2,3.9s5.1.6,17,13.4c5.3,5.7,8.4,10.3,10.3,13.8,1.8-2.2,2.9-5,3.1-8-2.6-3.7-6.3-8-11.6-12.7-7.6-6.9-14.6-10.5-14.6-10.5ZM19.3,28.5c-7.6,0-12.5,5.2-12.5,5.2l4.3,4s2.2-3.4,8-3.4c7.1,0,6,6.9,6,6.9,0,0-20.6-1.1-20.5,9.6,0,4.9,3.3,9.9,11.3,9.9s9.1-5.1,9.1-5.1v5h6.9v-19.4s0-12.6-12.7-12.6ZM24,45.7v3.2c0,1.6-1.1,5.9-4.8,5.9-5.4,0-6.6-2.3-6.6-4.5,0-4.6,11.4-4.6,11.4-4.6Z"/>
    <path class="st14" d="M25.5,0c-.7,2.1-1.4,4.6-1.5,7.1,0,3.4,1.2,7.8,1.2,7.8l5.7-1.2s-2.2-2.4-2.3-6.9C28.5,4.5,29.2,2,30,0h-4.5ZM63.6,11.1c-2.8.2-6.4.5-8.7,1.2-7.6,2.1-17.1,4.8-17.1,4.8l3.9,3.4s7.5-2.8,13.7-4c2.5-.5,5.9-.7,8.6-.9v-1.3c0-1.1-.1-2.2-.4-3.3ZM0,14.9v4.4c2,.4,4.8.9,8.2,1.4,3,.5,9.1,1,9.1,1l1-4.6s-5.6,0-8.4-.3c-4.1-.6-7.6-1.4-9.9-1.9ZM37.7,26.3l-4.2,3.9s5.1.6,17,13.4c5.6,6.1,8.8,10.9,10.6,14.5,1.8-2.4,2.8-5.3,2.8-8.6-2.6-3.7-6.4-8.1-11.6-12.8-7.6-6.9-14.6-10.5-14.6-10.5ZM19.3,27.4c-7.6,0-12.5,5.2-12.5,5.2l4.3,4s2.2-3.4,8-3.4c7.1,0,6,6.9,6,6.9,0,0-20.6-1.1-20.5,9.6,0,4.9,3.3,9.9,11.3,9.9s9.1-5.1,9.1-5.1v5h6.9v-19.4s0-12.6-12.7-12.6ZM24,44.5v3.2c0,1.6-1.1,5.9-4.8,5.9-5.4,0-6.6-2.3-6.6-4.5,0-4.6,11.4-4.6,11.4-4.6Z"/>
  </g>
</svg>