<?xml version="1.0" encoding="UTF-8"?>
<svg id="_图层_1" xmlns="http://www.w3.org/2000/svg" version="1.1" viewBox="0 0 64 64" width="32" height="32">
  <!-- Generator: Adobe Illustrator 29.0.1, SVG Export Plug-In . SVG Version: 2.1.0 Build 192)  -->
  <defs>
    <style>
      .st0, .st1 {
        fill: #4f4f4f;
      }

      .st2, .st3, .st4, .st5, .st6, .st7, .st8 {
        isolation: isolate;
      }

      .st2, .st3, .st9, .st7, .st10, .st1 {
        display: none;
      }

      .st2, .st5, .st6, .st7 {
        opacity: .2;
      }

      .st3, .st11, .st4, .st6, .st7, .st8 {
        fill: #fff;
      }

      .st3, .st8 {
        opacity: .1;
      }

      .st12 {
        fill: #fbfbfb;
      }

      .st4 {
        opacity: .5;
      }

      .st13 {
        fill: #369ad7;
      }

      .st10 {
        fill: #345784;
      }

      .st14 {
        fill: #bedbd9;
      }

      .st15 {
        fill: #e65776;
      }

      .st16 {
        fill: #8d8069;
      }

      .st17 {
        fill: #afafaf;
      }
    </style>
  </defs>
  <path class="st0" d="M50.3,64H13.8c-7.6,0-13.8-6.2-13.8-13.7V13.7C0,6.2,6.2,0,13.7,0h36.5c7.5,0,13.7,6.2,13.7,13.7v36.6c0,7.5-6.2,13.7-13.7,13.7h0Z"/>
  <g class="st9">
    <path class="st2" d="M14.4,1.1h35.2c8,0,14.4,6.4,14.4,14.3v35c0,7.9-6.4,14.3-14.4,14.3H14.4c-8,0-14.4-6.4-14.4-14.3V15.4C0,7.5,6.4,1.1,14.4,1.1Z"/>
    <path class="st13" d="M4.2,4.2C1.6,6.8,0,10.4,0,14.4v35.2c0,8,6.4,14.4,14.4,14.4h35.2c3.7,0,7.1-1.4,9.6-3.7L42.3,10.3,4.2,4.2Z"/>
    <path class="st15" d="M14.4,0C10.4,0,6.8,1.6,4.2,4.2l55.1,56c2.9-2.6,4.8-6.4,4.8-10.7V14.4C64,6.4,57.6,0,49.6,0H14.4Z"/>
    <path class="st7" d="M14.4,0C6.4,0,0,6.4,0,14.3v1.1C0,7.5,6.4,1.1,14.4,1.1h35.2c8,0,14.4,6.4,14.4,14.3v-1.1C64,6.4,57.6,0,49.6,0H14.4Z"/>
    <path class="st5" d="M25.9,0c-.9,2.2-1.8,5.2-1.9,8.3,0,3.4,1.2,7.8,1.2,7.8l5.7-1.2s-2.2-2.4-2.3-7c0-2.8,1-5.7,2-7.9,0,0-4.6,0-4.6,0ZM63.8,12.3c-2.8.2-6.6.5-8.9,1.2-7.6,2.1-17.2,4.8-17.2,4.8l3.9,3.5s7.5-2.8,13.7-4c2.5-.5,5.9-.7,8.6-.9v-2.5c0-.7,0-1.4-.2-2.1ZM0,16.1v4.4c2,.4,4.8.9,8.2,1.4,3,.5,9.1,1,9.1,1l1-4.6s-5.6,0-8.4-.3c-4.1-.6-7.6-1.4-9.9-1.9ZM37.8,27.5l-4.2,3.9s5.1.6,17,13.4c5.3,5.7,8.4,10.3,10.3,13.8,1.8-2.2,2.9-5,3.1-8-2.6-3.7-6.3-8-11.6-12.7-7.6-6.9-14.6-10.5-14.6-10.5ZM19.3,28.6c-7.6,0-12.5,5.2-12.5,5.2l4.3,4s2.2-3.4,8-3.4c7.1,0,6,6.9,6,6.9,0,0-20.6-1.1-20.5,9.6,0,4.9,3.3,9.9,11.3,9.9s9.2-5.1,9.2-5.1v5h6.9v-19.4s0-12.6-12.7-12.6ZM24,45.7v3.2c0,1.6-1.1,5.9-4.8,5.9-5.4,0-6.6-2.3-6.6-4.6,0-4.6,11.4-4.6,11.4-4.6Z"/>
    <path class="st11" d="M25.5,0c-.7,2.1-1.4,4.6-1.5,7.1,0,3.4,1.2,7.8,1.2,7.8l5.7-1.2s-2.2-2.4-2.3-7C28.5,4.5,29.2,2,30.1,0h-4.5ZM63.6,11.1c-2.8.2-6.4.5-8.7,1.2-7.6,2.1-17.2,4.8-17.2,4.8l3.9,3.5s7.5-2.8,13.7-4c2.5-.5,5.9-.7,8.6-.9v-1.3c0-1.1-.1-2.2-.4-3.3ZM0,14.9v4.4c2,.4,4.8.9,8.2,1.4,3,.5,9.1,1,9.1,1l1-4.6s-5.6,0-8.4-.3c-4.1-.6-7.6-1.4-9.9-1.9ZM37.8,26.3l-4.2,3.9s5.1.6,17,13.4c5.6,6.1,8.8,10.9,10.6,14.5,1.8-2.4,2.8-5.4,2.8-8.6-2.6-3.7-6.4-8.1-11.6-12.8-7.6-6.9-14.6-10.5-14.6-10.5ZM19.3,27.4c-7.6,0-12.5,5.2-12.5,5.2l4.3,4s2.2-3.4,8-3.4c7.1,0,6,6.9,6,6.9,0,0-20.6-1.1-20.5,9.6,0,4.9,3.3,9.9,11.3,9.9s9.2-5.1,9.2-5.1v5h6.9v-19.4s0-12.6-12.7-12.6ZM24,44.6v3.2c0,1.6-1.1,5.9-4.8,5.9-5.4,0-6.6-2.3-6.6-4.6,0-4.6,11.4-4.6,11.4-4.6Z"/>
  </g>
  <g class="st9">
    <ellipse class="st2" cx="32.1" cy="32.7" rx="32.1" ry="31.6"/>
    <ellipse class="st1" cx="32.1" cy="31.6" rx="32.1" ry="31.6"/>
    <path class="st3" d="M32.1,0C14.4,0,0,14.1,0,31.6c0,.2,0,.4,0,.7C.3,15,14.6,1.1,32.1,1.1c17.5,0,31.7,13.7,32.1,30.9,0-.2,0-.3,0-.5C64.2,14.1,49.9,0,32.1,0Z"/>
    <path class="st5" d="M32.1,1.1c-.8,0-1.5,0-2.3,0v15.9l-14.3,15.1c-.8.9-.8,2.3,0,3.1l14.2,14v14.7c.8,0,1.5.1,2.3.1.8,0,1.5,0,2.3,0v-14.7l9.1-8,1.9,1.9c.9.9,2.3.9,3.2,0s.9-2.3,0-3.2c0,0,0,0,0,0l-3.4-3.4c-.9-.8-2.2-.9-3.2,0l-9.9,8.7-11.8-11.6,11.8-12.5,9.8,9.6c.9.9,2.3.9,3.2,0l3.4-3.4c.9-.9.9-2.3,0-3.2-.9-.9-2.3-.9-3.2,0,0,0,0,0,0,0l-1.8,1.8-9.2-9V1.2c-.8,0-1.5-.1-2.3-.1ZM32.1,30.4c-1.9,0-3.4,1.5-3.4,3.4s1.5,3.4,3.4,3.4,3.4-1.5,3.4-3.4-1.5-3.4-3.4-3.4Z"/>
    <path class="st14" d="M32.1,0c-.8,0-1.5,0-2.3,0v15.9l-14.3,15.1c-.8.9-.8,2.3,0,3.1l14.2,14v14.7c.8,0,1.5.1,2.3.1.8,0,1.5,0,2.3,0v-14.7l9.1-8,1.9,1.9c.9.9,2.3.9,3.2,0s.9-2.3,0-3.2c0,0,0,0,0,0l-3.4-3.4c-.9-.8-2.2-.9-3.2,0l-9.9,8.7-11.8-11.6,11.8-12.5,9.8,9.6c.9.9,2.3.9,3.2,0l3.4-3.4c.9-.9.9-2.3,0-3.2s-2.3-.9-3.2,0c0,0,0,0,0,0l-1.8,1.8-9.2-9V.1c-.8,0-1.5-.1-2.3-.1ZM32.1,29.3c-1.9,0-3.4,1.5-3.4,3.4s1.5,3.4,3.4,3.4,3.4-1.5,3.4-3.4-1.5-3.4-3.4-3.4Z"/>
    <path class="st6" d="M32.1,0c-.8,0-1.5,0-2.3,0v1.1c.8,0,1.5,0,2.3,0,.8,0,1.5,0,2.3.1V.1c-.8,0-1.5-.1-2.3-.1ZM34.4,16v1.1l9.2,9,1.8-1.8c.9-.9,2.3-.9,3.2,0,.3.3.5.7.6,1.1.3-1.2-.4-2.4-1.7-2.7-.8-.2-1.6,0-2.2.6l-1.8,1.8-9.2-9ZM29.8,16l-14.3,15.1c-.5.6-.7,1.4-.5,2.1,0-.4.3-.7.5-1l14.3-15.1v-1.1ZM32.1,29.3c-1.9,0-3.4,1.5-3.4,3.4,0,.2,0,.4,0,.5.3-1.6,1.7-2.8,3.4-2.8,1.7,0,3.1,1.2,3.4,2.8,0-.2,0-.4,0-.6,0-1.9-1.5-3.4-3.4-3.4ZM20.9,33.2l-.6.6,11.8,11.6,9.9-8.7c.9-.8,2.3-.8,3.2,0l3.4,3.4c.3.3.5.7.6,1.1.2-.8,0-1.6-.6-2.2l-3.4-3.4c-.9-.8-2.2-.9-3.2,0l-9.9,8.7-11.3-11.1Z"/>
  </g>
  <g class="st9">
    <rect class="st2" x="0" y="1.1" width="63.9" height="63.9" rx="3.2" ry="3.2"/>
    <rect class="st10" x="0" width="63.9" height="63.9" rx="3.2" ry="3.2"/>
    <path class="st5" d="M34,14.8c-.2,0-.3,0-.5,0-2.1.3-2.7.8-3.9,3.5-.9,1.8-1.3,2.1-2.4,2.3-5.2-3.8-5.2,2-6.2,3.6-1.4-1.2-3.2-3.9-5-5.4-1.6-1.3-3.2-2.2-4.5-1.3-1,.7-1.8,2.2-2.2,5.7-.4,4.8,0,7.5,3,11.4,3.4,4.5,8.4,8.9,16.4,14.5,3.5,2.4,6.4,4.4,6.4,4.4.5,0-4.6-6.7-7.7-10.1-4.6-5.1-5.5-7-5.6-9.3,0-2.1.8-3.5,2-3.5s2.4,1.5,4.5,3.9c1.8,2,3,4.7,4.4,6.7,3,3.8,6.5,4.3,7.8,1.1,1.3-3.1.4-8.6-2.4-12.4-.3-1.4.3-1.6,1.7-1.6,1.8,0,5.2,1.2,7.2,3,2.5,2.2,3,2.2,5.8,7.8,1.7,3.3,3.3,6.4,3.7,6.9.6.8.6.8.7-.2-.5-8.6-3.5-16.8-9.9-22.7-1.1-1-4.3-3.3-7.1-5.2-4.1-2.8-5-3.3-6.2-3.3Z"/>
    <path class="st16" d="M34,13.7c-.2,0-.3,0-.5,0-2.1.3-2.7.8-3.9,3.5-.9,1.8-1.3,2.1-2.4,2.3-5.2-3.8-5.2,2-6.2,3.6-1.4-1.2-3.2-3.9-5-5.4-1.6-1.3-3.2-2.2-4.5-1.3-1,.7-1.8,2.2-2.2,5.7-.4,4.8,0,7.5,3,11.4,3.4,4.5,8.4,8.9,16.4,14.5,3.5,2.4,6.4,4.4,6.4,4.4.5,0-4.6-6.7-7.7-10.1-4.6-5.1-5.5-7-5.6-9.3,0-2.1.8-3.5,2-3.5s2.4,1.5,4.5,3.9c1.8,2,3,4.7,4.4,6.7,3,3.8,6.5,4.3,7.8,1.1,1.3-3.1.4-8.6-2.4-12.4-.3-1.4.3-1.6,1.7-1.6,1.8,0,5.2,1.2,7.2,3,2.5,2.2,3,2.2,5.8,7.8,1.7,3.3,3.3,6.4,3.7,6.9.6.8.6.8.7-.2-.5-8.6-3.5-16.8-9.9-22.7-1.1-1-4.3-3.3-7.1-5.2-4.1-2.8-5-3.3-6.2-3.3Z"/>
    <path class="st5" d="M32.3,31.9c.7-1.6,2.8-1.4,4.5.5s2.5,4.8,1.8,6.4-2.8,1.4-4.5-.5-2.5-4.8-1.8-6.4Z"/>
    <path class="st11" d="M32.3,30.8c.7-1.6,2.8-1.4,4.5.5s2.5,4.8,1.8,6.4-2.8,1.4-4.5-.5-2.5-4.8-1.8-6.4Z"/>
    <path class="st3" d="M3.3,0C1.5,0,0,1.4,0,3.2v1.1C0,2.6,1.5,1.1,3.3,1.1h57.5c1.8,0,3.2,1.4,3.2,3.2v-1.1c0-1.8-1.4-3.2-3.2-3.2H3.3Z"/>
    <path class="st8" d="M34,13.7c-.2,0-.3,0-.5,0-2.1.3-2.7.8-3.9,3.5-.9,1.8-1.3,2.1-2.4,2.3-5.2-3.8-5.2,2-6.2,3.6-1.4-1.2-3.2-3.9-5-5.4-1.6-1.3-3.2-2.2-4.5-1.3-1,.7-1.8,2.2-2.2,5.7-.1,1.3-.2,2.4-.1,3.4,0-.7,0-1.4.1-2.2.3-3.5,1.2-5,2.2-5.7,1.3-.8,2.9,0,4.5,1.3,1.8,1.5,3.6,4.2,5,5.4,1-1.6,1-7.5,6.2-3.6,1.1-.2,1.5-.5,2.4-2.3,1.3-2.7,1.8-3.2,3.9-3.5.2,0,.4,0,.5,0,1.2,0,2.1.5,6.2,3.3,2.8,1.9,6,4.2,7.1,5.2,6.3,5.8,9.2,13.8,9.8,22.2,0-.1,0-.3,0-.6-.5-8.6-3.5-16.8-9.9-22.7-1.1-1-4.3-3.3-7.1-5.2-4.1-2.8-5-3.3-6.2-3.3ZM38.2,29c-.1.2-.1.6,0,1.1,1.9,2.5,2.9,5.8,3,8.7.2-3-.8-6.9-3-9.8ZM21.9,33.4c0,.3,0,.6,0,.9,0,2.3,1,4.1,5.6,9.3,2.1,2.3,5,6,6.6,8.2.5.3,1.1.8,1.2.8.5,0-4.6-6.7-7.7-10.1-4.4-4.9-5.4-6.8-5.5-9Z"/>
  </g>
  <g>
    <path class="st5" d="M31.4,5.1C16,5.1,3.4,17.6,3.4,33.1h0c0,15.5,12.5,28,28,28h0c15.5,0,28-12.5,28-28h0c0-15.5-12.5-28-28-28h0ZM31.4,27.1c3.3,0,6,2.7,6,6s-2.7,6-6,6-6-2.7-6-6h0c0-3.3,2.7-6,6-6s0,0,0,0Z"/>
    <path class="st17" d="M31.4,4.1c-15.5,0-28,12.5-28,28,0,0,0,0,0,0,0,15.5,12.5,28,28,28h0c15.5,0,28-12.5,28-28h0c0-15.5-12.5-28-28-28,0,0,0,0,0,0ZM31.4,25.1c3.9,0,7,3.1,7,7s-3.1,7-7,7-7-3.1-7-7,3.1-7,7-7Z"/>
    <path class="st4" d="M32.1,4.1c-.5,0-1.1,0-1.6,0-6.2.2-12.1,2.5-16.8,6.4C1.7,20.3,0,37.9,9.8,49.9l16.2-13.4c-1-1.3-1.6-2.8-1.6-4.4,0-3.9,3.1-7,7-7,2.1,0,4.1.9,5.4,2.6l16.2-13.3c-5.2-6.3-12.8-10-20.9-10.2Z"/>
    <path class="st5" d="M43.4,31.9c-.4,6.3-5.6,11.2-11.9,11.2-6.2,0-11.4-4.8-11.9-11,0,.3,0,.7,0,1,0,6.6,5.4,12,12,12s12-5.4,12-12c0-.4,0-.8,0-1.2Z"/>
    <path class="st12" d="M31.4,20.1c-6.6,0-12,5.4-12,12,0,6.6,5.4,12,12,12s12-5.4,12-12h0c0-6.6-5.4-12-12-12ZM31.4,26.1c3.3,0,6,2.7,6,6h0c0,3.3-2.7,6-6,6s-6-2.7-6-6h0c0-3.3,2.7-6,6-6h0Z"/>
    <path class="st6" d="M31.4,4.1C16,4.1,3.4,16.6,3.4,32.1c0,0,0,.2,0,.3.4-15.1,12.8-27.3,28-27.3s27.6,12.1,28,27.3c0,0,0-.2,0-.3,0-15.5-12.5-28-28-28Z"/>
    <path class="st0" d="M31.4,4.1c-1.1,0-2.2,0-3.3.2l4.6,5.7-5.2,4.4,5.8,5.2-1.9,6.5,7.3-6.1-5.4-5.2,7.1-4.7-2.3-5.1c-2.2-.5-4.4-.8-6.7-.8Z"/>
  </g>
</svg>