<?xml version="1.0" standalone="no"?><!DOCTYPE svg PUBLIC "-//W3C//DTD SVG 1.1//EN" "http://www.w3.org/Graphics/SVG/1.1/DTD/svg11.dtd"><svg t="1732792420924" class="icon" viewBox="0 0 1024 1024" version="1.1" xmlns="http://www.w3.org/2000/svg" p-id="5157" width="32" height="32" xmlns:xlink="http://www.w3.org/1999/xlink"><path d="M184.32 0h655.36C962.56 0 1024 61.44 1024 184.32v655.36c0 122.88-61.44 184.32-184.32 184.32H184.32C61.44 1024 0 962.56 0 839.68V184.32C0 61.44 61.44 0 184.32 0z" fill="#FFFFFF" p-id="5158"></path><path d="M519.2192 238.6944a123.0336 123.0336 0 1 0 0 246.1184 123.0336 123.0336 0 0 0 0-246.0672z m0-110.6944a233.7792 233.7792 0 1 1 0 467.5072 233.7792 233.7792 0 0 1 0-467.5072z" fill="#61C3FA" p-id="5159"></path><path d="M892.16 773.0176a215.552 215.552 0 0 1-304.384-10.6496 55.3984 55.3984 0 0 1 80.9984-75.52 104.6016 104.6016 0 1 0 5.12-147.8144 55.3472 55.3472 0 0 1-75.52-80.9984 215.296 215.296 0 0 1 293.7856 314.88v0.1024z m-606.72-263.68a110.6944 110.6944 0 1 0 0 221.4912 110.6944 110.6944 0 0 0 0-221.44z m0-110.6944a221.44 221.44 0 1 1 0 442.88 221.44 221.44 0 0 1 0-442.88z" fill="#61C3FA" p-id="5160"></path><path d="M430.08 787.8144l-79.104-77.5168 250.624-256 79.104 77.5168-250.6752 256z" fill="#61C3FA" p-id="5161"></path><path d="M519.2192 595.5072a234.0352 234.0352 0 0 1-233.7792-233.7792 55.3472 55.3472 0 1 1 110.6944 0 123.0336 123.0336 0 0 0 246.1184 0 55.3472 55.3472 0 1 1 110.6944 0 234.0352 234.0352 0 0 1-233.728 233.7792z" fill="#EC5A70" p-id="5162"></path><path d="M378.88 942.08H512V1024H378.88a40.96 40.96 0 1 1 0-81.92z" fill="#EB566F" p-id="5163"></path><path d="M512 942.08h133.12a40.96 40.96 0 1 1 0 81.92H512v-81.92z" fill="#448BF7" p-id="5164"></path></svg>
