<?xml version="1.0" encoding="UTF-8"?>
<svg id="_图层_1" xmlns="http://www.w3.org/2000/svg" version="1.1" viewBox="0 0 64 64" width="32" height="32">
  <!-- Generator: Adobe Illustrator 29.0.1, SVG Export Plug-In . SVG Version: 2.1.0 Build 192)  -->
  <defs>
    <style>
      .st0 {
        fill: #4f4f4f;
      }

      .st1 {
        fill: #486afb;
      }

      .st2, .st3, .st4 {
        fill: #fff;
      }

      .st5 {
        fill: #fb4848;
      }

      .st6, .st3 {
        opacity: .2;
      }

      .st6, .st3, .st4 {
        isolation: isolate;
      }

      .st7 {
        fill: #f4d6b6;
      }

      .st4 {
        opacity: .1;
      }
    </style>
  </defs>
  <path class="st2" d="M50.3,64H13.8C6.2,64,0,57.8,0,50.3V13.7c0-7.5,6.2-13.7,13.7-13.7h36.5c7.5,0,13.7,6.2,13.7,13.7v36.6c0,7.5-6.2,13.7-13.7,13.7h0Z"/>
  <g>
    <ellipse class="st6" cx="32" cy="33.9" rx="23" ry="22.9"/>
    <path class="st0" d="M55,33.1c0-12.7-10.3-22.9-23-22.9s-3.4,2.6-5.5,3.2c-7.8,2.3-14.9,6.2-16.9,14.1-.4,1.8-.7,3.6-.7,5.5,0,12.7,10.3,22.9,23,22.9s2.5-2.1,3.6-2.3c8.5-1.3,15.2-5,18-12.8.9-2.4,1.4-5.1,1.4-7.8Z"/>
    <path class="st4" d="M32,10.2c-12.7,0-23,10.2-23,22.9,0,.1,0,.3,0,.4.2-12.5,10.5-22.4,23-22.4,12.5,0,22.8,10,23,22.4,0-.1,0-.3,0-.4,0-12.6-10.3-22.9-23-22.9Z"/>
    <ellipse class="st6" cx="32" cy="33.9" rx="13.2" ry="13.1"/>
    <ellipse class="st7" cx="32" cy="33.1" rx="13.2" ry="13.1"/>
    <path class="st6" d="M32,11c-7.1,0-13.5,3.2-17.7,8.2l-3-2.9c-.3-.3-.6-.4-1-.4-.8,0-1.4.6-1.4,1.4v11.9c0,.8.6,1.4,1.4,1.4h12c.8,0,1.4-.6,1.4-1.4,0-.4-.1-.7-.4-1l-2-2c2.4-3.3,6.3-5.4,10.6-5.4v-9.8Z"/>
    <path class="st5" d="M10.4,15.1c-.8,0-1.4.6-1.4,1.4v11.9c0,.8.6,1.4,1.4,1.4h12c.8,0,1.4-.6,1.4-1.4,0-.4-.1-.7-.4-1l-12-11.9c-.3-.3-.6-.4-1-.4Z"/>
    <path class="st1" d="M53.7,51.1c.8,0,1.4-.6,1.4-1.4v-11.9c0-.8-.6-1.4-1.4-1.4h-12c-.8,0-1.4.6-1.4,1.4,0,.4.1.7.4,1l12,11.9c.3.3.6.4,1,.4Z"/>
    <ellipse class="st6" cx="32" cy="33.9" rx="4.9" ry="4.9"/>
    <ellipse class="st2" cx="32" cy="33.1" rx="4.9" ry="4.9"/>
    <path class="st1" d="M53.7,40.9c-3.2,8.8-11.7,15.1-21.6,15.1v-9.8c5,0,9.3-2.7,11.5-6.8l10.1,1.5Z"/>
    <path class="st3" d="M41.6,36.4c-.8,0-1.4.6-1.4,1.4,0,.1,0,.3,0,.4.2-.6.7-1,1.3-1h12c.8,0,1.4.6,1.4,1.4v-.8c0-.8-.6-1.4-1.4-1.4h-12Z"/>
    <path class="st5" d="M32,10.2c-9,0-16.8,5.1-20.5,12.5l8.3,5.6c1.9-4.9,6.7-8.4,12.3-8.4v-9.8Z"/>
    <path class="st3" d="M32,10.2c-7.1,0-13.5,3.2-17.7,8.2l-3-2.9c-.3-.3-.6-.4-1-.4-.8,0-1.4.6-1.4,1.4v.8c0-.8.6-1.4,1.4-1.4.4,0,.7.1,1,.4l3,2.9c4.2-5,10.6-8.2,17.7-8.2v-.8Z"/>
  </g>
</svg>