<?xml version="1.0" encoding="UTF-8" standalone="no"?>
<svg
   id="_图层_1"
   version="1.1"
   viewBox="0 0 64 64" width="32" height="32"
   sodipodi:docname="beyond-a-steel-sky.svg"
   xml:space="preserve"
   inkscape:version="1.4 (e7c3feb100, 2024-10-09)"
   xmlns:inkscape="http://www.inkscape.org/namespaces/inkscape"
   xmlns:sodipodi="http://sodipodi.sourceforge.net/DTD/sodipodi-0.dtd"
   xmlns="http://www.w3.org/2000/svg"
   xmlns:svg="http://www.w3.org/2000/svg"><sodipodi:namedview
     id="namedview26"
     pagecolor="#505050"
     bordercolor="#eeeeee"
     borderopacity="1"
     inkscape:showpageshadow="0"
     inkscape:pageopacity="0"
     inkscape:pagecheckerboard="0"
     inkscape:deskcolor="#505050"
     inkscape:zoom="10.6875"
     inkscape:cx="32"
     inkscape:cy="36.397661"
     inkscape:window-width="1920"
     inkscape:window-height="939"
     inkscape:window-x="0"
     inkscape:window-y="34"
     inkscape:window-maximized="1"
     inkscape:current-layer="_图层_1" /><!-- Generator: Adobe Illustrator 29.0.1, SVG Export Plug-In . SVG Version: 2.1.0 Build 192)  --><defs
     id="defs6"><style
       id="style1">
      .st0 {
        fill-opacity: .5;
      }

      .st0, .st1, .st2, .st3, .st4, .st5, .st6, .st7 {
        fill: #fff;
      }

      .st8 {
        fill: #133c9a;
      }

      .st2, .st9 {
        display: none;
      }

      .st3 {
        fill-opacity: .2;
      }

      .st4 {
        fill-opacity: .9;
      }

      .st10 {
        fill: #3370ff;
      }

      .st11 {
        fill: url(#_未命名的渐变_3);
      }

      .st12 {
        fill: url(#_未命名的渐变);
      }

      .st5 {
        fill-opacity: .3;
      }

      .st6 {
        fill-opacity: 0;
      }

      .st7 {
        fill-opacity: .7;
      }

      .st13 {
        fill: #00d6b9;
      }

      .st14 {
        fill: url(#_未命名的渐变_2);
      }
    </style><radialGradient
       id="_未命名的渐变"
       data-name="未命名的渐变"
       cx="123.9"
       cy="-40.2"
       fx="123.9"
       fy="-40.2"
       r="59.4"
       gradientTransform="translate(-26.8 25.5) scale(.6 -.7)"
       gradientUnits="userSpaceOnUse"><stop
         offset="0"
         stop-color="#db202e"
         id="stop1" /><stop
         offset="1"
         stop-color="#e01b24"
         id="stop2" /></radialGradient><radialGradient
       id="_未命名的渐变_2"
       data-name="未命名的渐变 2"
       cx="67.6"
       cy="26.8"
       fx="67.6"
       fy="26.8"
       r="105.2"
       gradientTransform="translate(-26.6 25.3) scale(.6 -.7)"
       gradientUnits="userSpaceOnUse"><stop
         offset="0"
         stop-color="#ffb648"
         id="stop3" /><stop
         offset="1"
         stop-color="#ff7800"
         stop-opacity="0"
         id="stop4" /></radialGradient><radialGradient
       id="_未命名的渐变_3"
       data-name="未命名的渐变 3"
       cx="61.7"
       cy="18.6"
       fx="61.7"
       fy="18.6"
       r="68"
       gradientTransform="translate(-26.8 25.8) scale(.6 -.7)"
       gradientUnits="userSpaceOnUse"><stop
         offset="0"
         stop-color="#c64600"
         id="stop5" /><stop
         offset="1"
         stop-color="#a51d2d"
         id="stop6" /></radialGradient><style
       id="style1-2">
      .st0, .st1, .st2, .st3, .st4, .st5 {
        isolation: isolate;
      }

      .st0, .st1, .st6, .st7, .st5, .st8 {
        display: none;
      }

      .st0, .st3, .st4, .st5 {
        opacity: .2;
      }

      .st1 {
        opacity: .1;
      }

      .st1, .st9, .st2, .st4, .st5 {
        fill: #fff;
      }

      .st10 {
        fill: #3f3f3f;
      }

      .st2 {
        opacity: .3;
      }

      .st6 {
        fill: #505d6e;
      }

      .st11, .st8 {
        fill: #ffcca3;
      }

      .st12 {
        fill: #fed24c;
      }

      .st13 {
        fill: #c2352a;
      }
    </style></defs><path
     class="st1"
     d="M 47.5,64.1 H 13.8 C 6.2,64.1 0,57.8 0,50.3 V 13.7 C 0,6.2 6.2,0 13.7,0 H 50.3 C 57.8,0 64,6.2 64,13.7 V 50.3 C 64,57.8 57.8,64 50.3,64 h -2.9 0.1 z"
     id="path6"
     style="display:inline;opacity:1;fill:#91c1e1;fill-opacity:1" /><g
     id="g27"
     transform="matrix(1.13868,0,0,1.1444547,-4.3909774,-4.6392223)"><path
       d="M 12.235294,9 C 9.888941,9 8,10.888941 8,13.235294 V 52.764706 C 8,55.111059 9.888941,57 12.235294,57 h 7.726102 l -0.319851,-1.582721 0.383271,-0.352942 -0.590073,-4.042278 0.179227,-0.179228 -0.179227,-0.226103 0.408088,-3.14614 -0.34467,0.05239 -0.579043,1.020222 c 0,0 -2.520866,-0.887566 -3.860294,-1.822612 1.642474,-2.342881 2.330297,-4.51689 2.699448,-5.46783 -0.693641,-1.183919 -0.634962,-1.899471 -0.181986,-3.181986 0.05157,-0.146018 -0.347537,-0.0089 -0.452205,-0.12408 -1.013397,-1.114798 -0.878312,-2.935267 -0.942081,-4.431066 -0.08911,-2.090007 1.013772,-4.378675 1.013772,-4.378675 L 16,27 l 0.434743,-1.381433 -0.215074,-0.286765 1.811582,-2.500918 1.613051,-1.108456 c 0.388863,-3.817064 3.749992,-2.396853 3.749992,-2.396853 0,1e-6 0.01902,-1.599388 0.234374,-2.360293 0.23987,-0.847494 0.947878,-1.883272 1.764706,-2.007354 0.116696,-0.01772 0.235598,-0.0144 0.355699,0.0084 4.08285,0.770935 3.424633,2.500918 3.424633,2.500918 l -0.435663,0.446692 -0.215073,1.108455 -0.165441,0.195773 c 0,0 -0.01838,0.827206 -0.01655,1.108457 0.0011,0.169397 -0.507353,0.08823 -0.507353,0.08823 0,0 -0.08101,0.247391 -0.146141,0.358455 -0.0732,0.1248 -0.270219,0.339155 -0.270219,0.339155 0,-1e-6 0.07719,0.232919 0.03585,0.339155 -0.05824,0.149609 -0.363971,0.319851 -0.363971,0.319851 0,0 1.139662,0.431793 1.342832,0.788604 0.218029,0.38291 0.725191,2.628471 0.725191,2.628471 0,0 -0.281909,0.855482 -0.490808,1.036765 -0.177357,0.153911 -0.705883,0.05514 -0.705883,0.05514 l -0.05514,0.212317 0.308823,0.07169 -0.05514,0.446691 0.272978,0.661764 -0.380515,0.733457 5.131435,2.589155 0.07721,0.366728 1.422795,-0.113054 c 0,0 1.385994,-0.191695 1.461396,0.162683 0.05907,0.277745 -0.527403,0.197647 -0.82169,0.264706 -0.119986,0.179393 -0.628677,0.228859 -0.628677,0.228859 l 0.488051,0.06342 c 0,0 0.611346,0.35012 1.221508,0.477023 0.610161,0.126904 1.218332,0.03105 1.160845,0.344668 -0.05078,0.277055 -1.830883,0.09926 -1.830883,0.09926 0,0 0.44454,0.288947 0.937501,0.380514 0.492963,0.09155 1.033341,-0.01434 0.970588,0.314339 -0.06603,0.34582 -1.960478,0.06342 -1.960478,0.06342 0,0 0.32109,0.217848 0.659007,0.289522 0.337916,0.07168 0.693728,-0.0024 0.661765,0.228861 -0.05824,0.421614 -1.781251,-0.06342 -1.781251,-0.06342 0,0 0.169287,0.14208 0.391545,0.220588 0.222258,0.07849 0.498346,0.09469 0.454963,0.248161 -0.08276,0.292663 -1.855699,-0.394302 -1.855699,-0.394302 l -1.557903,-0.893381 -0.471508,0.570772 -2.897978,-1.213236 c 0,0 0.09409,1.30225 0.11856,1.954963 0.02879,0.76821 -1.100184,0.606619 -1.100184,0.606619 0,0 0.02355,1.95172 0.204045,2.90625 0.154028,0.814541 0.117551,1.554956 0.244144,2.37408 0.400213,2.589655 0.02482,7.858457 0.02482,7.858457 l -0.961056,0.380514 -0.02482,-1.011948 -0.667279,-0.201287 -0.02482,1.615809 -0.308823,0.253676 0.256433,1.160845 -0.587316,0.430148 0.28125,0.253676 -0.07721,0.631434 -0.794118,2.500919 0.04963,0.909925 -0.256433,0.176471 0.333639,0.05239 c 0,0 0.184876,0.47948 0.179229,0.730699 C 26.166125,56.558312 25.870404,57 25.870404,57 h 6.124082 c 0,0 0.02604,-1.650493 0.107534,-3.308824 0.02774,-0.564403 0.651784,-1.382675 1.213235,-1.381433 0.738249,0.0017 2.106617,-0.03585 2.106617,-0.03585 0,0 -0.506536,-0.202103 -0.534926,-0.430149 -0.07695,-0.618113 0.929227,-3.410844 0.929227,-3.410844 l -0.250918,0.286764 -1.232537,0.0193 0.286765,-1.221508 -0.322611,-0.121327 c -0.25575,0.327894 -0.893381,0.821691 -0.893381,0.821691 l -0.08824,0.430147 -1.767463,0.0193 -0.162685,-0.286765 c 0,0 -0.175261,0.0779 -0.267463,0.07169 -0.163133,0.0209 -0.576769,-0.113731 -0.463235,-0.628676 0.155409,-0.704872 0.625919,-1.11397 0.625919,-1.11397 0,-1e-6 -0.249438,-0.181048 -0.234374,-0.501839 0.02417,-0.51444 0.06039,-1.026473 0.07169,-1.541359 0.0052,-0.240508 0.382593,-0.286424 0.568014,0.01383 0.277481,0.449261 0.576288,1.295954 0.576288,1.295954 0,0 0.915629,-0.867528 1.494485,-0.890624 0.346125,-0.01384 0.934742,0.457721 0.934742,0.457721 l 0.140626,0.217829 0.394302,-0.181984 h 0.231618 l 0.107534,0.181984 0.625918,-0.0193 0.08824,0.143382 0.358456,-0.215074 -0.609374,-0.465992 -0.212318,-0.898897 c 0,0 -0.36831,-0.584209 -0.3943,-0.915441 -0.04145,-0.52836 0.231618,-0.625919 0.231618,-0.625919 L 35.082716,42.06345 c 0,0 -0.838891,-2.278492 1.963236,-3.518384 0.70308,-0.311101 1.251529,-0.446531 1.684742,-0.465992 1.29964,-0.05838 1.586052,0.927314 2.068015,1.345588 0.284441,0.246854 0.981617,0.556985 0.981617,0.556985 0,10e-7 0.520211,0.455874 0.945772,1.309744 0.56128,0.285475 0.499081,1.309741 0.499081,1.309741 l -0.248161,0.286765 -0.0193,1.381435 -1.646141,1.141544 h 1.125 l 0.176471,0.151655 v 0.330881 l 0.08824,-0.102028 0.568016,0.02482 0.151655,-0.215075 0.568014,0.253677 0.380515,-0.521139 -0.29228,-0.391545 0.733456,-0.69761 0.783088,-0.306066 0.402573,-0.951287 0.102028,0.0386 -0.08391,-1.701286 -0.176471,-0.126833 0.102029,-0.736214 0.226102,-0.102029 -0.264706,-0.03585 0.454964,-1.21875 -0.06342,-0.165442 0.278491,-0.46875 0.314339,-0.0386 0.113054,0.06342 -0.25092,0.419118 0.30331,0.264706 0.02482,2.26103 -0.303309,0.137873 0.119761,1.789521 0.151655,0.102029 -0.113054,0.355699 0.126833,0.07444 -0.137877,0.394265 0.361214,1.483455 c 0,0 -0.733699,1.655455 -1.712318,2.86489 -0.712317,0.05362 -1.403491,-0.0193 -1.403491,-0.0193 l -0.04136,-0.126833 -0.341912,0.154414 -0.292279,0.0331 -0.317096,-0.286765 c 0,0 1.171717,2.634078 1.1443,3.590073 -0.0053,0.189096 -0.465992,0.32261 -0.465992,0.32261 0,0 0.880435,-0.01045 1.464155,0.0193 0.925929,0.04723 1.209944,0.625235 1.530098,0.879596 C 47.177923,53.472858 47.046641,57 47.046641,57 h 4.718065 C 54.111059,57 56,55.111059 56,52.764706 V 13.235294 C 56,10.888941 54.111059,9 51.764706,9 Z"
       style="opacity:0.1"
       id="path2" /><path
       d="M 12.235294,8 C 9.888941,8 8,9.8889412 8,12.235294 V 51.764706 C 8,54.111059 9.888941,56 12.235294,56 h 7.726102 l -0.319851,-1.582721 0.383271,-0.352942 -0.590073,-4.042278 0.179227,-0.179228 -0.179227,-0.226103 0.408088,-3.14614 -0.34467,0.05239 -0.579043,1.020222 c 0,0 -2.520866,-0.887566 -3.860294,-1.822612 1.642474,-2.342881 2.330297,-4.51689 2.699448,-5.46783 -0.693641,-1.183919 -0.634962,-1.899471 -0.181986,-3.181986 0.05157,-0.146018 -0.347537,-0.0089 -0.452205,-0.12408 -1.013397,-1.114798 -0.878312,-2.935267 -0.942081,-4.431066 -0.08911,-2.090007 1.013772,-4.378675 1.013772,-4.378675 L 16,26 l 0.434743,-1.381433 -0.215074,-0.286765 1.811582,-2.500918 1.613051,-1.108456 c 0.388863,-3.817064 3.749992,-2.396853 3.749992,-2.396853 0,1e-6 0.01902,-1.599388 0.234374,-2.360293 0.23987,-0.847494 0.947878,-1.883272 1.764706,-2.007354 0.116696,-0.01772 0.235598,-0.0144 0.355699,0.0084 4.08285,0.770935 3.424633,2.500918 3.424633,2.500918 l -0.435663,0.446692 -0.215073,1.108455 -0.165441,0.195773 c 0,0 -0.01838,0.827206 -0.01655,1.108457 0.0011,0.169397 -0.507353,0.08823 -0.507353,0.08823 0,0 -0.08101,0.247391 -0.146141,0.358455 -0.0732,0.1248 -0.270219,0.339155 -0.270219,0.339155 0,-1e-6 0.07719,0.232919 0.03585,0.339155 -0.05824,0.149609 -0.363971,0.319851 -0.363971,0.319851 0,0 1.139662,0.431793 1.342832,0.788604 0.218029,0.38291 0.725191,2.628471 0.725191,2.628471 0,0 -0.281909,0.855482 -0.490808,1.036765 -0.177357,0.153911 -0.705883,0.05514 -0.705883,0.05514 l -0.05514,0.212317 0.308823,0.07169 -0.05514,0.446691 0.272978,0.661764 -0.380515,0.733457 5.131435,2.589155 0.07721,0.366728 1.422795,-0.113054 c 0,0 1.385994,-0.191695 1.461396,0.162683 0.05907,0.277745 -0.527403,0.197647 -0.82169,0.264706 -0.119986,0.179393 -0.628677,0.228859 -0.628677,0.228859 l 0.488051,0.06342 c 0,0 0.611346,0.35012 1.221508,0.477023 0.610161,0.126904 1.218332,0.03105 1.160845,0.344668 -0.05078,0.277055 -1.830883,0.09926 -1.830883,0.09926 0,0 0.44454,0.288947 0.937501,0.380514 0.492963,0.09155 1.033341,-0.01434 0.970588,0.314339 -0.06603,0.34582 -1.960478,0.06342 -1.960478,0.06342 0,0 0.32109,0.217848 0.659007,0.289522 0.337916,0.07168 0.693728,-0.0024 0.661765,0.228861 -0.05824,0.421614 -1.781251,-0.06342 -1.781251,-0.06342 0,0 0.169287,0.14208 0.391545,0.220588 0.222258,0.07849 0.498346,0.09469 0.454963,0.248161 -0.08276,0.292663 -1.855699,-0.394302 -1.855699,-0.394302 l -1.557903,-0.893381 -0.471508,0.570772 -2.897978,-1.213236 c 0,0 0.09409,1.30225 0.11856,1.954963 0.02879,0.76821 -1.100184,0.606619 -1.100184,0.606619 0,0 0.02355,1.95172 0.204045,2.90625 0.154028,0.814541 0.217551,1.554956 0.344144,2.37408 0.400213,2.589655 0.02482,7.858457 0.02482,7.858457 l -1.061056,0.380514 -0.02482,-1.011948 -0.667279,-0.201287 -0.02482,1.615809 -0.308823,0.253676 0.256433,1.160845 -0.587316,0.430148 0.28125,0.253676 -0.07721,0.631434 -0.794118,2.500919 0.04963,0.909925 -0.256433,0.176471 0.333639,0.05239 c 0,0 0.184876,0.47948 0.179229,0.730699 C 26.166125,55.558312 25.870404,56 25.870404,56 h 6.124082 c 0,0 0.02604,-1.650493 0.107534,-3.308824 0.02774,-0.564403 0.651784,-1.382675 1.213235,-1.381433 0.738249,0.0017 2.106617,-0.03585 2.106617,-0.03585 0,0 -0.506536,-0.202103 -0.534926,-0.430149 -0.07695,-0.618113 0.929227,-3.410844 0.929227,-3.410844 l -0.250918,0.286764 -1.232537,0.0193 0.286765,-1.221508 -0.322611,-0.121327 c -0.25575,0.327894 -0.893381,0.821691 -0.893381,0.821691 l -0.08824,0.430147 -1.767463,0.0193 -0.162685,-0.286765 c 0,0 -0.175261,0.0779 -0.267463,0.07169 -0.163133,0.0209 -0.576769,-0.113731 -0.463235,-0.628676 0.155409,-0.704872 0.625919,-1.11397 0.625919,-1.11397 0,-1e-6 -0.249438,-0.181048 -0.234374,-0.501839 0.02417,-0.51444 0.06039,-1.026473 0.07169,-1.541359 0.0052,-0.240508 0.382593,-0.286424 0.568014,0.01383 0.277481,0.449261 0.576288,1.295954 0.576288,1.295954 0,0 0.915629,-0.867528 1.494485,-0.890624 0.346125,-0.01384 0.934742,0.457721 0.934742,0.457721 l 0.140626,0.217829 0.394302,-0.181984 h 0.231618 l 0.107534,0.181984 0.625918,-0.0193 0.08824,0.143382 0.358456,-0.215074 -0.609374,-0.465992 -0.212318,-0.898897 c 0,0 -0.36831,-0.584209 -0.3943,-0.915441 -0.04145,-0.52836 0.231618,-0.625919 0.231618,-0.625919 L 35.082716,41.06345 c 0,0 -0.838891,-2.278492 1.963236,-3.518384 0.70308,-0.311101 1.251529,-0.446531 1.684742,-0.465992 1.29964,-0.05838 1.586052,0.927314 2.068015,1.345588 0.284441,0.246854 0.981617,0.556985 0.981617,0.556985 0,10e-7 0.520211,0.455874 0.945772,1.309744 0.56128,0.285475 0.499081,1.309741 0.499081,1.309741 l -0.248161,0.286765 -0.0193,1.381435 -1.646141,1.141544 h 1.125 l 0.176471,0.151655 v 0.330881 l 0.08824,-0.102028 0.568016,0.02482 0.151655,-0.215075 0.568014,0.253677 0.380515,-0.521139 -0.29228,-0.391545 0.733456,-0.69761 0.783088,-0.306066 0.402573,-0.951287 0.102028,0.0386 -0.08391,-1.701286 -0.176471,-0.126833 0.102029,-0.736214 0.226102,-0.102029 -0.264706,-0.03585 0.454964,-1.21875 -0.06342,-0.165442 0.278491,-0.46875 0.314339,-0.0386 0.113054,0.06342 -0.25092,0.419118 0.30331,0.264706 0.02482,2.26103 -0.303309,0.137873 0.119761,1.789521 0.151655,0.102029 -0.113054,0.355699 0.126833,0.07444 -0.137877,0.394265 0.361214,1.483455 c 0,0 -0.733699,1.655455 -1.712318,2.86489 -0.712317,0.05362 -1.403491,-0.0193 -1.403491,-0.0193 l -0.04136,-0.126833 -0.341912,0.154414 -0.292279,0.0331 -0.317096,-0.286765 c 0,0 1.171717,2.634078 1.1443,3.590073 -0.0053,0.189096 -0.465992,0.32261 -0.465992,0.32261 0,0 0.880435,-0.01045 1.464155,0.0193 0.925929,0.04723 1.209944,0.625235 1.530098,0.879596 C 47.177923,52.472858 47.046641,56 47.046641,56 h 4.718065 C 54.111059,56 56,54.111059 56,51.764706 V 12.235294 C 56,9.8889412 54.111059,8 51.764706,8 Z"
       style="fill:#3a405b"
       id="path3" /></g></svg>
