<?xml version="1.0" standalone="no"?><!DOCTYPE svg PUBLIC "-//W3C//DTD SVG 1.1//EN" "http://www.w3.org/Graphics/SVG/1.1/DTD/svg11.dtd"><svg t="1730981326737" class="icon" viewBox="0 0 1024 1024" version="1.1" xmlns="http://www.w3.org/2000/svg" p-id="21557" xmlns:xlink="http://www.w3.org/1999/xlink" width="32" height="32"><path d="M0 0m256 0l512 0q256 0 256 256l0 512q0 256-256 256l-512 0q-256 0-256-256l0-512q0-256 256-256Z" fill="#EC5D85" p-id="21558"></path><path d="M512 241.95584h52.224l65.06496-96.31744c49.63328-50.31936 89.64096 0.43008 63.85664 45.71136l-34.31424 51.5072C916.48 247.8848 916.48 285.86496 916.48 567.89504c0 325.94944 0 336.46592-404.48 336.46592s-404.48-10.51648-404.48-336.46592c0-277.69856 0-318.80192 253.14304-324.95616l-39.43424-58.368c-31.26272-54.90688 37.33504-90.40896 64.68608-42.37312l60.416 99.80928c18.18624-0.0512 41.18528-0.0512 65.66912-0.0512z" fill="#EF85A7" p-id="21559"></path><path d="M512 338.5856c332.8 0 332.8 0 332.8 240.64s0 248.39168-332.8 248.39168-332.8-7.75168-332.8-248.39168 0-240.64 332.8-240.64z" fill="#EC5D85" p-id="21560"></path><path d="M281.6 558.08a30.70464 30.70464 0 0 1-27.47392-16.97792 30.72 30.72 0 0 1 13.73184-41.216l122.88-61.44a30.72 30.72 0 1 1 27.47392 54.95808l-122.88 61.44A30.58688 30.58688 0 0 1 281.6 558.08z m471.04 0a30.5152 30.5152 0 0 1-12.8512-2.83648l-133.12-61.44a30.72512 30.72512 0 0 1-15.04256-40.7552 30.68928 30.68928 0 0 1 17.26976-15.95392 30.72 30.72 0 0 1 23.49568 0.93184l133.12 61.44a30.69952 30.69952 0 0 1 17.13152 34.4832A30.70464 30.70464 0 0 1 752.64 558.08z m-297.984 108.8a15.34976 15.34976 0 0 1-12.288-6.1952 15.36 15.36 0 0 1 3.072-21.49376l68.5056-50.91328 50.35008 52.62336a15.35488 15.35488 0 0 1-0.48128 21.71904 15.37024 15.37024 0 0 1-21.71904-0.48128l-31.5904-33.024-46.71488 34.72384a15.29856 15.29856 0 0 1-9.13408 3.04128z" fill="#EF85A7" p-id="21561"></path><path d="M65.536 369.31584c15.03744 101.90848 32.85504 147.17952 44.544 355.328 14.63808 2.18112 177.71008 10.04544 204.0576-74.62912 1.80224-3.32288 2.38592-7.168 1.64864-10.87488-30.60736-80.3328-169.216-60.416-169.216-60.416s-10.36288-146.50368-11.49952-238.83776L65.536 369.31584z m296.71936 13.7216l34.816 303.17568h34.64192l-26.4704-305.08032-42.98752 1.90464z m-52.72576 153.25184h45.48608l16.09728 158.6176-31.82592 1.85344-29.75744-160.47104z m137.33888 6.69696h45.80352v162.34496h-33.87392l-11.9296-162.34496zM296.6016 457.97376h21.39136l5.2736 58.99264-18.91328 2.26304-7.75168-61.25568z m30.39232 0h21.39136l2.53952 55.808-17.408 1.61792-6.52288-57.42592z m143.62624 1.91488h19.456v62.27968h-19.456V459.88864z m-30.38208 0h22.20032v62.27968h-16.62976l-5.57056-62.27968z" fill="#FFFFFF" p-id="21562"></path><path d="M243.5584 645.51936a275.8656 275.8656 0 0 1-28.4672 23.74656 242.89792 242.89792 0 0 1-29.52704 17.52064 2.72384 2.72384 0 0 1-2.80064 0.36864 2.688 2.688 0 0 1-1.60256-2.32448 258.89792 258.89792 0 0 1-5.12-29.57312c-1.41312-12.1856-1.95584-25.68192-2.16064-36.36224 0-0.3072 0-2.5088 3.01056-1.90464a245.4784 245.4784 0 0 1 34.22208 9.5744c11.12576 4.3008 21.9392 9.3696 32.3584 15.17568 0.52224 0.256 2.51904 1.4848 0.09216 3.77856z" fill="#EB5480" p-id="21563"></path><path d="M513.30048 369.31584c15.03232 101.90848 32.84992 147.17952 44.544 355.328 14.63296 2.18112 177.70496 10.04544 204.05248-74.62912a16.1792 16.1792 0 0 0 1.64864-10.87488c-30.60736-80.3328-169.216-60.416-169.216-60.416s-10.36288-146.50368-11.49952-238.83776l-69.5296 29.42976z m296.71424 13.7216l34.816 303.17568h34.64192l-26.4704-305.08032-42.98752 1.90464z m-52.72576 153.25184h45.48608l16.09728 158.6176-31.82592 1.85344-29.75744-160.47104z m137.33888 6.69696h45.80352v162.34496h-33.87392l-11.9296-162.34496z m-150.26176-85.01248h21.39136l5.2736 58.99264-18.91328 2.26304-7.75168-61.25568z m30.39232 0h21.39136l2.53952 55.808-17.408 1.61792-6.52288-57.42592z m143.62624 1.91488h19.456v62.27968h-19.456V459.88864z m-30.38208 0h22.20032v62.27968h-16.62976l-5.57056-62.27968z" fill="#FFFFFF" p-id="21564"></path><path d="M691.32288 645.51936a276.08064 276.08064 0 0 1-28.4672 23.74656 242.78016 242.78016 0 0 1-29.53216 17.52064 2.7392 2.7392 0 0 1-2.80064 0.36864 2.71872 2.71872 0 0 1-1.60256-2.32448 258.33984 258.33984 0 0 1-5.12-29.57312c-1.41312-12.1856-1.95584-25.68192-2.16064-36.36224 0-0.3072 0-2.5088 3.01056-1.90464a245.51424 245.51424 0 0 1 34.22208 9.5744c11.12576 4.3008 21.9392 9.3696 32.3584 15.17568 0.52224 0.256 2.51904 1.4848 0.09216 3.77856z" fill="#EB5480" p-id="21565"></path></svg>
