<?xml version="1.0" encoding="UTF-8" standalone="no"?>
<svg
   id="_图层_1"
   version="1.1"
   viewBox="0 0 64 64" width="32" height="32"
   sodipodi:docname="braindump.svg"
   xml:space="preserve"
   inkscape:version="1.4 (e7c3feb100, 2024-10-09)"
   xmlns:inkscape="http://www.inkscape.org/namespaces/inkscape"
   xmlns:sodipodi="http://sodipodi.sourceforge.net/DTD/sodipodi-0.dtd"
   xmlns="http://www.w3.org/2000/svg"
   xmlns:svg="http://www.w3.org/2000/svg"><sodipodi:namedview
     id="namedview26"
     pagecolor="#505050"
     bordercolor="#eeeeee"
     borderopacity="1"
     inkscape:showpageshadow="0"
     inkscape:pageopacity="0"
     inkscape:pagecheckerboard="0"
     inkscape:deskcolor="#505050"
     inkscape:zoom="10.6875"
     inkscape:cx="32"
     inkscape:cy="28.912281"
     inkscape:window-width="1920"
     inkscape:window-height="939"
     inkscape:window-x="0"
     inkscape:window-y="34"
     inkscape:window-maximized="1"
     inkscape:current-layer="_图层_1" /><!-- Generator: Adobe Illustrator 29.0.1, SVG Export Plug-In . SVG Version: 2.1.0 Build 192)  --><defs
     id="defs6"><style
       id="style1">
      .st0 {
        fill-opacity: .5;
      }

      .st0, .st1, .st2, .st3, .st4, .st5, .st6, .st7 {
        fill: #fff;
      }

      .st8 {
        fill: #133c9a;
      }

      .st2, .st9 {
        display: none;
      }

      .st3 {
        fill-opacity: .2;
      }

      .st4 {
        fill-opacity: .9;
      }

      .st10 {
        fill: #3370ff;
      }

      .st11 {
        fill: url(#_未命名的渐变_3);
      }

      .st12 {
        fill: url(#_未命名的渐变);
      }

      .st5 {
        fill-opacity: .3;
      }

      .st6 {
        fill-opacity: 0;
      }

      .st7 {
        fill-opacity: .7;
      }

      .st13 {
        fill: #00d6b9;
      }

      .st14 {
        fill: url(#_未命名的渐变_2);
      }
    </style><radialGradient
       id="_未命名的渐变"
       data-name="未命名的渐变"
       cx="123.9"
       cy="-40.2"
       fx="123.9"
       fy="-40.2"
       r="59.4"
       gradientTransform="translate(-26.8 25.5) scale(.6 -.7)"
       gradientUnits="userSpaceOnUse"><stop
         offset="0"
         stop-color="#db202e"
         id="stop1" /><stop
         offset="1"
         stop-color="#e01b24"
         id="stop2" /></radialGradient><radialGradient
       id="_未命名的渐变_2"
       data-name="未命名的渐变 2"
       cx="67.6"
       cy="26.8"
       fx="67.6"
       fy="26.8"
       r="105.2"
       gradientTransform="translate(-26.6 25.3) scale(.6 -.7)"
       gradientUnits="userSpaceOnUse"><stop
         offset="0"
         stop-color="#ffb648"
         id="stop3" /><stop
         offset="1"
         stop-color="#ff7800"
         stop-opacity="0"
         id="stop4" /></radialGradient><radialGradient
       id="_未命名的渐变_3"
       data-name="未命名的渐变 3"
       cx="61.7"
       cy="18.6"
       fx="61.7"
       fy="18.6"
       r="68"
       gradientTransform="translate(-26.8 25.8) scale(.6 -.7)"
       gradientUnits="userSpaceOnUse"><stop
         offset="0"
         stop-color="#c64600"
         id="stop5" /><stop
         offset="1"
         stop-color="#a51d2d"
         id="stop6" /></radialGradient><style
       id="style1-2">
      .st0, .st1, .st2, .st3, .st4, .st5 {
        isolation: isolate;
      }

      .st0, .st1, .st6, .st7, .st5, .st8 {
        display: none;
      }

      .st0, .st3, .st4, .st5 {
        opacity: .2;
      }

      .st1 {
        opacity: .1;
      }

      .st1, .st9, .st2, .st4, .st5 {
        fill: #fff;
      }

      .st10 {
        fill: #3f3f3f;
      }

      .st2 {
        opacity: .3;
      }

      .st6 {
        fill: #505d6e;
      }

      .st11, .st8 {
        fill: #ffcca3;
      }

      .st12 {
        fill: #fed24c;
      }

      .st13 {
        fill: #c2352a;
      }
    </style></defs><path
     class="st1"
     d="M 47.5,64.1 H 13.8 C 6.2,64.1 0,57.8 0,50.3 V 13.7 C 0,6.2 6.2,0 13.7,0 H 50.3 C 57.8,0 64,6.2 64,13.7 V 50.3 C 64,57.8 57.8,64 50.3,64 h -2.9 0.1 z"
     id="path6"
     style="display:inline;opacity:1;fill:#424242;fill-opacity:1" /><g
     id="g27"
     transform="translate(-0.46781171,-1.0672515)"><path
       style="opacity:0.2"
       d="m 48.93,22.622132 c -0.399997,4.807971 -4.481973,9.163946 -6.469962,13.827918 -0.919994,2.161987 -2.611984,6.549961 -2.611984,6.549961 H 24.152147 c 0,0 -1.691991,-4.387974 -2.611985,-6.549961 -1.935189,-4.539973 -5.998565,-8.733948 -6.489162,-13.429921 -0.02,0.337998 -0.0508,0.671996 -0.0508,1.015994 -0.0348,5.09997 4.470773,9.559944 6.539961,14.413915 C 22.460155,40.612025 24.152146,45 24.152146,45 h 15.695907 c 0,0 1.69199,-4.387975 2.611984,-6.549962 C 44.530026,33.596067 48.91,29.080094 49,24.036123 49,23.558126 48.968,23.088129 48.93,22.622132 Z"
       id="path1" /><path
       style="opacity:0.2"
       d="m 24.152147,45.000083 2.617984,11.397932 C 27.074129,57.806007 27.934124,59 29.382116,59 h 5.235969 c 1.447991,0 2.289986,-1.197993 2.611984,-2.601985 l 2.617985,-11.397932 h -0.461997 l -2.155988,9.397944 c -0.321998,1.403992 -1.163993,2.601985 -2.611984,2.601985 h -5.235969 c -1.447992,0 -2.307987,-1.193993 -2.611985,-2.601985 l -2.155987,-9.397944 z"
       id="path2" /><path
       style="fill:#f5ab35"
       d="m 32.0001,6.0003186 c -9.387944,0 -16.9997,7.6265554 -16.9997,17.0338994 -0.0348,5.10197 4.469974,9.559944 6.537762,14.413915 0.921994,2.163987 2.615984,6.551961 2.615984,6.551961 h 15.692108 c 0,0 1.69355,-4.388574 2.615384,-6.551761 2.067988,-4.853971 6.447962,-9.367945 6.537962,-14.413915 0,-9.407344 -7.611955,-17.0338994 -16.9999,-17.0338994 z"
       id="path3" /><path
       style="fill:#434343"
       d="m 39.846054,44.000094 -2.615985,11.399933 c -0.321998,1.403992 -1.165993,2.599985 -2.613984,2.599985 h -5.230769 c -1.448912,0 -2.311787,-1.191553 -2.615385,-2.599985 L 24.153946,44.000094 Z"
       id="path4" /><path
       style="opacity:0.2;fill:#ffffff"
       d="m 24.668143,46.000083 0.445998,1.999988 H 38.88606 l 0.445997,-1.999988 z m 0.893995,3.999976 0.445998,1.999988 h 11.983929 l 0.445997,-1.999988 z m 0.895995,3.999976 0.311998,1.397992 c 0.046,0.211999 0.127999,0.403998 0.197999,0.601997 h 10.059941 c 0.072,-0.197999 0.155999,-0.389998 0.201998,-0.601997 l 0.311999,-1.397992 z"
       id="path5" /><path
       style="opacity:0.2;fill:#ffffff"
       d="M 32,6 C 22.612056,6 15,13.628365 15,23.037109 14.9989,23.20309 15.01656,23.366281 15.02539,23.53125 15.294043,14.357979 22.781955,7 32,7 41.150882,7 48.593746,14.252214 48.964844,23.332031 48.979962,23.234394 48.997987,23.13676 49,23.037109 49,13.628365 41.387945,6 32,6 Z"
       id="path6-0" /><path
       style="opacity:0.2;fill-rule:evenodd"
       d="m 35.000082,11.000165 -9.99994,15.999906 h 5.999964 V 39 l 9.999941,-15.999906 h -5.999965 z"
       id="path7" /><path
       style="fill:#ffffff;fill-rule:evenodd"
       d="m 35.000082,10.000295 -9.99994,15.999906 h 5.999964 V 38.00013 l 9.999941,-15.999906 h -5.999965 z"
       id="path8" /></g></svg>
