<?xml version="1.0" encoding="UTF-8" standalone="no"?>
<svg
   id="_图层_1"
   version="1.1"
   viewBox="0 0 64 64" width="32" height="32"
   sodipodi:docname="caveexpress-icon.svg"
   xml:space="preserve"
   inkscape:version="1.4 (e7c3feb100, 2024-10-09)"
   xmlns:inkscape="http://www.inkscape.org/namespaces/inkscape"
   xmlns:sodipodi="http://sodipodi.sourceforge.net/DTD/sodipodi-0.dtd"
   xmlns="http://www.w3.org/2000/svg"
   xmlns:svg="http://www.w3.org/2000/svg"><sodipodi:namedview
     id="namedview26"
     pagecolor="#505050"
     bordercolor="#eeeeee"
     borderopacity="1"
     inkscape:showpageshadow="0"
     inkscape:pageopacity="0"
     inkscape:pagecheckerboard="0"
     inkscape:deskcolor="#505050"
     inkscape:zoom="10.6875"
     inkscape:cx="32"
     inkscape:cy="34.71345"
     inkscape:window-width="1920"
     inkscape:window-height="939"
     inkscape:window-x="0"
     inkscape:window-y="34"
     inkscape:window-maximized="1"
     inkscape:current-layer="_图层_1" /><!-- Generator: Adobe Illustrator 29.0.1, SVG Export Plug-In . SVG Version: 2.1.0 Build 192)  --><defs
     id="defs6"><style
       id="style1">
      .st0 {
        fill-opacity: .5;
      }

      .st0, .st1, .st2, .st3, .st4, .st5, .st6, .st7 {
        fill: #fff;
      }

      .st8 {
        fill: #133c9a;
      }

      .st2, .st9 {
        display: none;
      }

      .st3 {
        fill-opacity: .2;
      }

      .st4 {
        fill-opacity: .9;
      }

      .st10 {
        fill: #3370ff;
      }

      .st11 {
        fill: url(#_未命名的渐变_3);
      }

      .st12 {
        fill: url(#_未命名的渐变);
      }

      .st5 {
        fill-opacity: .3;
      }

      .st6 {
        fill-opacity: 0;
      }

      .st7 {
        fill-opacity: .7;
      }

      .st13 {
        fill: #00d6b9;
      }

      .st14 {
        fill: url(#_未命名的渐变_2);
      }
    </style><radialGradient
       id="_未命名的渐变"
       data-name="未命名的渐变"
       cx="123.9"
       cy="-40.2"
       fx="123.9"
       fy="-40.2"
       r="59.4"
       gradientTransform="translate(-26.8 25.5) scale(.6 -.7)"
       gradientUnits="userSpaceOnUse"><stop
         offset="0"
         stop-color="#db202e"
         id="stop1" /><stop
         offset="1"
         stop-color="#e01b24"
         id="stop2" /></radialGradient><radialGradient
       id="_未命名的渐变_2"
       data-name="未命名的渐变 2"
       cx="67.6"
       cy="26.8"
       fx="67.6"
       fy="26.8"
       r="105.2"
       gradientTransform="translate(-26.6 25.3) scale(.6 -.7)"
       gradientUnits="userSpaceOnUse"><stop
         offset="0"
         stop-color="#ffb648"
         id="stop3" /><stop
         offset="1"
         stop-color="#ff7800"
         stop-opacity="0"
         id="stop4" /></radialGradient><radialGradient
       id="_未命名的渐变_3"
       data-name="未命名的渐变 3"
       cx="61.7"
       cy="18.6"
       fx="61.7"
       fy="18.6"
       r="68"
       gradientTransform="translate(-26.8 25.8) scale(.6 -.7)"
       gradientUnits="userSpaceOnUse"><stop
         offset="0"
         stop-color="#c64600"
         id="stop5" /><stop
         offset="1"
         stop-color="#a51d2d"
         id="stop6" /></radialGradient></defs><path
     class="st1"
     d="M47.5,64.1H13.8c-7.6,0-13.8-6.3-13.8-13.8V13.7C0,6.2,6.2,0,13.7,0h36.6c7.5,0,13.7,6.2,13.7,13.7v36.6c0,7.5-6.2,13.7-13.7,13.7h-2.9.1Z"
     id="path6"
     style="fill:#426180;fill-opacity:1" /><g
     id="g26"
     transform="matrix(0.8780284,0,0,0.90312313,3.6691729,1.8519691)"><path
       d="M 18,17.997314 V 51.951652"
       style="fill:none;stroke:#885e3d;stroke-width:7.99463;stroke-linecap:round"
       id="path1" /><path
       d="M 17.941406,14.928313 A 4.0004,3.9950275 0 0 0 14,18.977555 v 33.954337 a 4.0004,3.9950275 0 1 0 8,0 V 18.977555 a 4.0004,3.9950275 0 0 0 -4.058594,-4.049242 z"
       style="opacity:0.2"
       id="path2" /><path
       d="M 46,51.951652 V 17.997314"
       style="fill:none;stroke:#885e3d;stroke-width:7.99463;stroke-linecap:round"
       id="path3" /><path
       d="m 32,4.016116 c -2.209138,0 -4,1.7884559 -4,3.994628 v 3.994628 h 8 V 8.010744 C 36,5.8045719 34.209138,4.016116 32,4.016116 Z"
       style="fill:#c29875"
       id="path4" /><path
       d="M 45.941406,14.928313 A 4.0004,3.9950275 0 0 0 42,18.977555 v 33.954337 a 4.0004,3.9950275 0 1 0 8,0 V 18.977555 a 4.0004,3.9950275 0 0 0 -4.058594,-4.049242 z"
       style="opacity:0.2"
       id="path5" /><path
       d="m 34,13.018802 c 0,0 2,-3.994628 6,-3.994628 7.107562,0 8,3.994628 12,5.991942 4,1.997314 8,1.997314 8,1.997314 0,0 -8,1.997314 -14,1.997314 -6,0 -12,-5.991942 -12,-5.991942 z"
       style="opacity:0.2"
       id="path6-9" /><path
       d="m 34,12.005372 c 0,0 2,-3.994628 6,-3.994628 7.107562,0 8,3.994628 12,5.991942 C 56,16 60,16 60,16 c 0,0 -8,1.997314 -14,1.997314 -6,0 -12,-5.991942 -12,-5.991942 z"
       style="fill:#73873a"
       id="path7" /><path
       d="m 12,46.93995 a 4.0004,3.9950275 0 1 0 0,7.989256 h 40 a 4.0004,3.9950275 0 1 0 0,-7.989256 z"
       style="opacity:0.2"
       id="path8" /><path
       d="M 52,50.002287 H 12"
       style="fill:none;stroke:#c29875;stroke-width:7.99463;stroke-linecap:round;stroke-linejoin:round"
       id="path9" /><path
       d="M 12,46.005859 A 3.9977128,3.9977128 0 0 0 7.9667969,50.513672 3.9977128,3.9977128 0 0 1 12,47.005859 H 52 A 3.9977128,3.9977128 0 0 1 56.033203,50.492188 3.9977128,3.9977128 0 0 0 52,46.005859 Z"
       style="opacity:0.2;fill:#ffffff"
       id="path10" /><path
       d="m 12,23.010344 a 4.0004,3.9950275 0 1 0 0,7.989256 h 40 a 4.0004,3.9950275 0 1 0 0,-7.989256 z"
       style="opacity:0.2"
       id="path11" /><path
       d="m 30,13.018802 c 0,0 -2,-3.994628 -6,-3.994628 -7.107562,0 -8,3.994628 -12,5.991942 -4,1.997314 -8,1.997314 -8,1.997314 0,0 8,1.997314 14,1.997314 6,0 12,-5.991942 12,-5.991942 z"
       style="opacity:0.2"
       id="path12" /><path
       d="m 30,12.005372 c 0,0 -2,-3.994628 -6,-3.994628 -7.107562,0 -8,3.994628 -12,5.991942 C 8,16 4,16 4,16 c 0,0 8,1.997314 14,1.997314 6,0 12,-5.991942 12,-5.991942 z"
       style="fill:#73873a"
       id="path13" /><path
       d="m 23.941406,46.916544 a 2.0002,1.9975137 0 0 0 -1.796874,1.279529 l -4.000001,9.98657 a 2.0002,1.9975137 0 1 0 3.710937,1.482383 l 4,-9.98657 a 2.0002,1.9975137 0 0 0 -1.914062,-2.761912 z"
       style="opacity:0.2"
       id="path14" /><path
       d="M 12,26.002287 H 52"
       style="fill:none;stroke:#c29875;stroke-width:7.99463;stroke-linecap:round;stroke-linejoin:round"
       id="path15" /><path
       d="M 12,22.005859 A 3.9977128,3.9977128 0 0 0 7.9667969,26.513672 3.9977128,3.9977128 0 0 1 12,23.005859 H 52 A 3.9977128,3.9977128 0 0 1 56.033203,26.492188 3.9977128,3.9977128 0 0 0 52,22.005859 Z"
       style="opacity:0.2;fill:#ffffff"
       id="path16" /><path
       d="m 40,8.0117188 c -4,-1e-7 -6,3.9941402 -6,3.9941402 0,0 0.291031,0.259378 0.396484,0.359375 0.761311,-1.131733 2.6264,-3.3417965 5.603516,-3.3417965 7.107562,0 8,3.9948735 12,5.9921875 1.773432,0.885525 3.526337,1.366245 4.951172,1.640625 C 58.675008,16.304961 60,16 60,16 60,16 56,15.999267 52,14.001953 48,12.004639 47.107562,8.0117188 40,8.0117188 Z"
       style="opacity:0.1;fill:#ffffff"
       id="path17" /><path
       d="m 32,9.024174 c 0,0 14,3.994628 14,7.989256 C 38,21.008058 32,27 32,27 32,27 26,21.008058 18,17.01343 18,13.018802 32,9.024174 32,9.024174 Z"
       style="opacity:0.2"
       id="path18" /><path
       d="m 40,46.912643 a 2.0002,1.9975137 0 0 0 -1.855468,2.765813 l 4,9.98657 a 2.0002,1.9975137 0 1 0 3.710936,-1.482383 l -4,-9.98657 A 2.0002,1.9975137 0 0 0 40,46.912643 Z"
       style="opacity:0.2"
       id="path19" /><path
       d="m 24,8.0117188 c -7.107562,0 -8,3.9929202 -12,5.9902342 C 8,15.999267 4,16 4,16 4,16 5.3249919,16.304961 7.0488281,16.65625 8.4736631,16.38187 10.226568,15.90115 12,15.015625 c 4,-1.997314 4.892438,-5.9921875 12,-5.9921875 2.977116,0 4.842205,2.2100635 5.603516,3.3417965 C 29.708969,12.265237 30,12.005859 30,12.005859 c 0,0 -2,-3.9941403 -6,-3.9941402 z"
       style="opacity:0.1;fill:#ffffff"
       id="path20" /><path
       d="m 32,8.010744 c 0,0 14,3.994628 14,7.989256 -8,3.994628 -14,9.98657 -14,9.98657 0,0 -6,-5.991942 -14,-9.98657 0,-3.994628 14,-7.989256 14,-7.989256 z"
       style="fill:#95b634"
       id="path21" /><path
       d="m 24,47.957024 -4,9.98657"
       style="fill:none;stroke:#e1b793;stroke-width:3.99731;stroke-linecap:round;stroke-linejoin:round"
       id="path22" /><path
       d="m 40,47.957024 4,9.98657"
       style="fill:none;stroke:#e1b793;stroke-width:3.99731;stroke-linecap:round;stroke-linejoin:round"
       id="path23" /><path
       d="m 24,32.959711 v 13.981198 l -2,5.991942 v 3.994628 H 42 V 52.932851 L 40,46.940909 V 32.959711 Z"
       style="opacity:0.2"
       id="path24" /><rect
       x="24"
       y="31.978512"
       width="16"
       height="13.981198"
       style="fill:#c29875"
       id="rect24" /><path
       d="m 24,45.95971 -2,5.991942 H 42 L 40,45.95971 Z"
       style="fill:#885e3d"
       id="path25" /><rect
       x="22"
       y="51.951653"
       width="20"
       height="3.994628"
       style="fill:#c29875"
       id="rect25" /><path
       d="m 32,4.015625 c -2.209138,0 -4,1.7899217 -4,3.9960938 v 1.0117187 c 0,-2.2061721 1.790862,-3.9941406 4,-3.9941406 2.209138,0 4,1.7879685 4,3.9941406 V 8.0117188 C 36,5.8055466 34.209138,4.015625 32,4.015625 Z"
       style="opacity:0.2;fill:#ffffff"
       id="path26" /><path
       d="m 32,8.0117188 c 0,0 -14,3.9936532 -14,7.9882812 0.07791,0.0389 0.152944,0.07987 0.230469,0.119141 C 20.022563,12.443831 32,9.0234375 32,9.0234375 c 0,0 11.977437,3.4203935 13.769531,7.0957035 C 45.847056,16.079868 45.922092,16.038901 46,16 46,12.005372 32,8.0117188 32,8.0117188 Z"
       style="opacity:0.2;fill:#ffffff"
       id="path27" /><path
       d="m 24,31.978516 v 1.013672 h 16 v -1.013672 z"
       style="opacity:0.2;fill:#ffffff"
       id="path28" /></g></svg>
