<?xml version="1.0" encoding="UTF-8" standalone="no"?>
<svg
   id="_图层_1"
   version="1.1"
   viewBox="0 0 64 64" width="32" height="32"
   sodipodi:docname="chkrootkit.svg"
   xml:space="preserve"
   inkscape:version="1.4 (e7c3feb100, 2024-10-09)"
   xmlns:inkscape="http://www.inkscape.org/namespaces/inkscape"
   xmlns:sodipodi="http://sodipodi.sourceforge.net/DTD/sodipodi-0.dtd"
   xmlns="http://www.w3.org/2000/svg"
   xmlns:svg="http://www.w3.org/2000/svg"><sodipodi:namedview
     id="namedview26"
     pagecolor="#505050"
     bordercolor="#eeeeee"
     borderopacity="1"
     inkscape:showpageshadow="0"
     inkscape:pageopacity="0"
     inkscape:pagecheckerboard="0"
     inkscape:deskcolor="#505050"
     inkscape:zoom="10.6875"
     inkscape:cx="32"
     inkscape:cy="29.005848"
     inkscape:window-width="1920"
     inkscape:window-height="939"
     inkscape:window-x="0"
     inkscape:window-y="34"
     inkscape:window-maximized="1"
     inkscape:current-layer="_图层_1" /><!-- Generator: Adobe Illustrator 29.0.1, SVG Export Plug-In . SVG Version: 2.1.0 Build 192)  --><defs
     id="defs6"><style
       id="style1">
      .st0 {
        fill-opacity: .5;
      }

      .st0, .st1, .st2, .st3, .st4, .st5, .st6, .st7 {
        fill: #fff;
      }

      .st8 {
        fill: #133c9a;
      }

      .st2, .st9 {
        display: none;
      }

      .st3 {
        fill-opacity: .2;
      }

      .st4 {
        fill-opacity: .9;
      }

      .st10 {
        fill: #3370ff;
      }

      .st11 {
        fill: url(#_未命名的渐变_3);
      }

      .st12 {
        fill: url(#_未命名的渐变);
      }

      .st5 {
        fill-opacity: .3;
      }

      .st6 {
        fill-opacity: 0;
      }

      .st7 {
        fill-opacity: .7;
      }

      .st13 {
        fill: #00d6b9;
      }

      .st14 {
        fill: url(#_未命名的渐变_2);
      }
    </style><radialGradient
       id="_未命名的渐变"
       data-name="未命名的渐变"
       cx="123.9"
       cy="-40.2"
       fx="123.9"
       fy="-40.2"
       r="59.4"
       gradientTransform="translate(-26.8 25.5) scale(.6 -.7)"
       gradientUnits="userSpaceOnUse"><stop
         offset="0"
         stop-color="#db202e"
         id="stop1" /><stop
         offset="1"
         stop-color="#e01b24"
         id="stop2" /></radialGradient><radialGradient
       id="_未命名的渐变_2"
       data-name="未命名的渐变 2"
       cx="67.6"
       cy="26.8"
       fx="67.6"
       fy="26.8"
       r="105.2"
       gradientTransform="translate(-26.6 25.3) scale(.6 -.7)"
       gradientUnits="userSpaceOnUse"><stop
         offset="0"
         stop-color="#ffb648"
         id="stop3" /><stop
         offset="1"
         stop-color="#ff7800"
         stop-opacity="0"
         id="stop4" /></radialGradient><radialGradient
       id="_未命名的渐变_3"
       data-name="未命名的渐变 3"
       cx="61.7"
       cy="18.6"
       fx="61.7"
       fy="18.6"
       r="68"
       gradientTransform="translate(-26.8 25.8) scale(.6 -.7)"
       gradientUnits="userSpaceOnUse"><stop
         offset="0"
         stop-color="#c64600"
         id="stop5" /><stop
         offset="1"
         stop-color="#a51d2d"
         id="stop6" /></radialGradient></defs><path
     class="st1"
     d="M47.5,64.1H13.8c-7.6,0-13.8-6.3-13.8-13.8V13.7C0,6.2,6.2,0,13.7,0h36.6c7.5,0,13.7,6.2,13.7,13.7v36.6c0,7.5-6.2,13.7-13.7,13.7h-2.9.1Z"
     id="path6"
     style="fill:#f9f9f9;fill-opacity:1" /><g
     id="g26"
     transform="translate(0.12573099,-0.2251462)"><rect
       style="opacity:0.2"
       width="52"
       height="32"
       x="6"
       y="17"
       rx="3.25"
       ry="2.8570001"
       id="rect1" /><rect
       style="fill:#8e8e8e"
       width="52"
       height="32"
       x="6"
       y="16"
       rx="3.25"
       ry="2.8570001"
       id="rect2" /><path
       style="opacity:0.2"
       d="m 15.665817,24 h 31.668366 c 1.462023,0 2.879386,1.077155 2.63903,2.375002 L 47.334183,40.625 C 47.093829,41.922845 46.157176,43 44.695153,43 H 18.304847 c -1.462023,0 -2.398675,-1.077155 -2.63903,-2.375 L 13.026787,26.375002 C 12.786431,25.077155 14.203794,24 15.665817,24 Z"
       id="path2" /><path
       style="fill:#30c9c6"
       d="m 15.665817,23 h 31.668366 c 1.462023,0 2.879386,1.077155 2.63903,2.375002 L 47.334183,39.625 C 47.093829,40.922845 46.157176,42 44.695153,42 H 18.304847 c -1.462023,0 -2.398675,-1.077155 -2.63903,-2.375 L 13.026787,25.375002 C 12.786431,24.077155 14.203794,23 15.665817,23 Z"
       id="path3" /><rect
       style="opacity:0.2"
       width="10"
       height="10"
       x="2"
       y="28"
       rx="2.273"
       ry="2.145"
       id="rect3" /><rect
       style="fill:#b3b3b3"
       width="10"
       height="10"
       x="2"
       y="27"
       rx="2.273"
       ry="2.145"
       id="rect4" /><circle
       style="opacity:0.5"
       cx="7"
       cy="32"
       r="3"
       id="circle4" /><rect
       style="opacity:0.2"
       width="10"
       height="10"
       x="51"
       y="28"
       rx="2.273"
       ry="2.145"
       id="rect5" /><rect
       style="fill:#b3b3b3"
       width="10"
       height="10"
       x="51"
       y="27"
       rx="2.273"
       ry="2.145"
       id="rect6" /><circle
       style="opacity:0.5"
       cx="56"
       cy="32"
       r="3"
       id="circle6" /><path
       style="opacity:0.1;fill:#ffffff"
       d="M 4.2734375,27 C 3.0142799,27 2,27.956201 2,29.144531 v 1 C 2,28.956201 3.0142799,28 4.2734375,28 h 5.453125 C 10.98572,28 12,28.956201 12,30.144531 v -1 C 12,27.956201 10.98572,27 9.7265625,27 Z"
       id="path6-6" /><path
       style="opacity:0.1;fill:#ffffff"
       d="M 53.273438,27 C 52.01428,27 51,27.956201 51,29.144531 v 1 C 51,28.956201 52.01428,28 53.273438,28 h 5.453124 C 59.98572,28 61,28.956201 61,30.144531 v -1 C 61,27.956201 59.98572,27 58.726562,27 Z"
       id="path7" /><path
       style="opacity:0.1"
       d="M 20.5,28 A 2.5,2.5 0 0 0 18,30.5 2.5,2.5 0 0 0 20.5,33 2.5,2.5 0 0 0 23,30.5 2.5,2.5 0 0 0 20.5,28 Z m 7,0 A 2.5,2.5 0 0 0 25,30.5 2.5,2.5 0 0 0 27.5,33 2.5,2.5 0 0 0 30,30.5 2.5,2.5 0 0 0 27.5,28 Z m 7,0 A 2.5,2.5 0 0 0 32,30.5 2.5,2.5 0 0 0 34.5,33 2.5,2.5 0 0 0 37,30.5 2.5,2.5 0 0 0 34.5,28 Z m 7,0 A 2.5,2.5 0 0 0 39,30.5 2.5,2.5 0 0 0 41.5,33 2.5,2.5 0 0 0 44,30.5 2.5,2.5 0 0 0 41.5,28 Z m -17,6 A 2.5,2.5 0 0 0 22,36.5 2.5,2.5 0 0 0 24.5,39 2.5,2.5 0 0 0 27,36.5 2.5,2.5 0 0 0 24.5,34 Z m 7,0 A 2.5,2.5 0 0 0 29,36.5 2.5,2.5 0 0 0 31.5,39 2.5,2.5 0 0 0 34,36.5 2.5,2.5 0 0 0 31.5,34 Z m 7,0 A 2.5,2.5 0 0 0 36,36.5 2.5,2.5 0 0 0 38.5,39 2.5,2.5 0 0 0 41,36.5 2.5,2.5 0 0 0 38.5,34 Z"
       id="path8" /><path
       style="fill:#4f4f4f"
       d="M 20.5,27 A 2.5,2.5 0 0 0 18,29.5 2.5,2.5 0 0 0 20.5,32 2.5,2.5 0 0 0 23,29.5 2.5,2.5 0 0 0 20.5,27 Z m 7,0 A 2.5,2.5 0 0 0 25,29.5 2.5,2.5 0 0 0 27.5,32 2.5,2.5 0 0 0 30,29.5 2.5,2.5 0 0 0 27.5,27 Z m 7,0 A 2.5,2.5 0 0 0 32,29.5 2.5,2.5 0 0 0 34.5,32 2.5,2.5 0 0 0 37,29.5 2.5,2.5 0 0 0 34.5,27 Z m 7,0 A 2.5,2.5 0 0 0 39,29.5 2.5,2.5 0 0 0 41.5,32 2.5,2.5 0 0 0 44,29.5 2.5,2.5 0 0 0 41.5,27 Z m -17,6 A 2.5,2.5 0 0 0 22,35.5 2.5,2.5 0 0 0 24.5,38 2.5,2.5 0 0 0 27,35.5 2.5,2.5 0 0 0 24.5,33 Z m 7,0 A 2.5,2.5 0 0 0 29,35.5 2.5,2.5 0 0 0 31.5,38 2.5,2.5 0 0 0 34,35.5 2.5,2.5 0 0 0 31.5,33 Z m 7,0 A 2.5,2.5 0 0 0 36,35.5 2.5,2.5 0 0 0 38.5,38 2.5,2.5 0 0 0 41,35.5 2.5,2.5 0 0 0 38.5,33 Z"
       id="path9" /><path
       style="opacity:0.1;fill:#ffffff"
       d="m 15.666016,23 c -1.462023,0 -2.879028,1.077153 -2.638672,2.375 l 0.05078,0.279297 C 13.354475,24.703816 14.488101,24 15.666016,24 h 31.667968 c 1.177915,0 2.311541,0.703816 2.587891,1.654297 L 49.972656,25.375 C 50.213012,24.077153 48.796007,23 47.333984,23 Z"
       id="path10" /><path
       style="opacity:0.1;fill:#ffffff"
       d="M 9.25,16 C 7.4495,16 6,17.274565 6,18.857422 v 1 C 6,18.274565 7.4495,17 9.25,17 h 45.5 c 1.8005,0 3.25,1.274565 3.25,2.857422 v -1 C 58,17.274565 56.5505,16 54.75,16 Z"
       id="path11" /></g></svg>
