<?xml version="1.0" encoding="UTF-8" standalone="no"?>
<svg
   id="_图层_1"
   version="1.1"
   viewBox="0 0 64 64" width="32" height="32"
   sodipodi:docname="choqok.svg"
   xml:space="preserve"
   inkscape:version="1.4 (e7c3feb100, 2024-10-09)"
   xmlns:inkscape="http://www.inkscape.org/namespaces/inkscape"
   xmlns:sodipodi="http://sodipodi.sourceforge.net/DTD/sodipodi-0.dtd"
   xmlns="http://www.w3.org/2000/svg"
   xmlns:svg="http://www.w3.org/2000/svg"><sodipodi:namedview
     id="namedview26"
     pagecolor="#505050"
     bordercolor="#eeeeee"
     borderopacity="1"
     inkscape:showpageshadow="0"
     inkscape:pageopacity="0"
     inkscape:pagecheckerboard="0"
     inkscape:deskcolor="#505050"
     inkscape:zoom="10.6875"
     inkscape:cx="32"
     inkscape:cy="29.005848"
     inkscape:window-width="1920"
     inkscape:window-height="939"
     inkscape:window-x="0"
     inkscape:window-y="34"
     inkscape:window-maximized="1"
     inkscape:current-layer="_图层_1" /><!-- Generator: Adobe Illustrator 29.0.1, SVG Export Plug-In . SVG Version: 2.1.0 Build 192)  --><defs
     id="defs6"><style
       id="style1">
      .st0 {
        fill-opacity: .5;
      }

      .st0, .st1, .st2, .st3, .st4, .st5, .st6, .st7 {
        fill: #fff;
      }

      .st8 {
        fill: #133c9a;
      }

      .st2, .st9 {
        display: none;
      }

      .st3 {
        fill-opacity: .2;
      }

      .st4 {
        fill-opacity: .9;
      }

      .st10 {
        fill: #3370ff;
      }

      .st11 {
        fill: url(#_未命名的渐变_3);
      }

      .st12 {
        fill: url(#_未命名的渐变);
      }

      .st5 {
        fill-opacity: .3;
      }

      .st6 {
        fill-opacity: 0;
      }

      .st7 {
        fill-opacity: .7;
      }

      .st13 {
        fill: #00d6b9;
      }

      .st14 {
        fill: url(#_未命名的渐变_2);
      }
    </style><radialGradient
       id="_未命名的渐变"
       data-name="未命名的渐变"
       cx="123.9"
       cy="-40.2"
       fx="123.9"
       fy="-40.2"
       r="59.4"
       gradientTransform="translate(-26.8 25.5) scale(.6 -.7)"
       gradientUnits="userSpaceOnUse"><stop
         offset="0"
         stop-color="#db202e"
         id="stop1" /><stop
         offset="1"
         stop-color="#e01b24"
         id="stop2" /></radialGradient><radialGradient
       id="_未命名的渐变_2"
       data-name="未命名的渐变 2"
       cx="67.6"
       cy="26.8"
       fx="67.6"
       fy="26.8"
       r="105.2"
       gradientTransform="translate(-26.6 25.3) scale(.6 -.7)"
       gradientUnits="userSpaceOnUse"><stop
         offset="0"
         stop-color="#ffb648"
         id="stop3" /><stop
         offset="1"
         stop-color="#ff7800"
         stop-opacity="0"
         id="stop4" /></radialGradient><radialGradient
       id="_未命名的渐变_3"
       data-name="未命名的渐变 3"
       cx="61.7"
       cy="18.6"
       fx="61.7"
       fy="18.6"
       r="68"
       gradientTransform="translate(-26.8 25.8) scale(.6 -.7)"
       gradientUnits="userSpaceOnUse"><stop
         offset="0"
         stop-color="#c64600"
         id="stop5" /><stop
         offset="1"
         stop-color="#a51d2d"
         id="stop6" /></radialGradient></defs><path
     class="st1"
     d="M47.5,64.1H13.8c-7.6,0-13.8-6.3-13.8-13.8V13.7C0,6.2,6.2,0,13.7,0h36.6c7.5,0,13.7,6.2,13.7,13.7v36.6c0,7.5-6.2,13.7-13.7,13.7h-2.9.1Z"
     id="path6"
     style="fill:#f9f9f9;fill-opacity:1" /><g
     id="g26"
     transform="matrix(0.9197995,0,0,0.88972431,3.1278196,5.1612365)"><path
       style="opacity:0.2"
       d="M 32,4 29.333334,7.2 26,6 24.416666,9.0418 C 18.2748,10.3056 13.93504,13.274 10.338547,17.9662 4.0479734,26.1732 4,40.3334 4,48.3334 4,56.3332 18.666666,59 32,59 45.333334,59 60,56.3332 60,48.3334 60,40.3334 59.952,26.1732 53.661454,17.9662 50.06496,13.2738 45.7252,10.3056 39.583334,9.0416 L 38,6 34.666666,7.2 Z"
       id="path1" /><path
       style="fill:#81b427"
       d="M 32,3 29.333334,6.2 26,5 24.416666,8.0418 C 18.2748,9.3056 13.93504,12.274 10.338547,16.9662 4.0479734,25.1732 4,39.3334 4,47.3334 4,55.3332 18.666666,58 32,58 45.333334,58 60,55.3332 60,47.3334 60,39.3334 59.952,25.1732 53.661454,16.9662 50.06496,12.2738 45.7252,9.3056 39.583334,8.0416 L 38,5 34.666666,6.2 Z"
       id="path2" /><path
       style="fill:#86572f"
       d="M 25.388962,46.1768 C 26.752912,48.5392 29.272114,49.996 32,50 c 2.727886,0 5.247088,-1.4608 6.611038,-3.8232 H 32 Z"
       id="path3" /><path
       style="opacity:0.2"
       d="m 32.000002,38 c -0.30634,2e-4 -0.602058,0.1276 -0.818968,0.3566 L 24.376166,44.73 c -0.728164,0.77 -0.345204,3.0472 0.684954,3.0479 L 32.000002,49 l 6.93888,-1.2221 c 1.030146,-7e-4 1.41312,-2.2779 0.684954,-3.0479 l -6.80487,-6.3734 C 32.602056,38.1272 32.30634,38.0002 32.000002,38 Z"
       id="path4" /><path
       style="fill:#ffc12e"
       d="m 32.000002,37 c -0.30634,2e-4 -0.602058,0.1276 -0.818968,0.3566 L 24.376166,43.73 c -0.728164,0.77 -0.345204,3.0472 0.684954,3.0479 L 32.000002,48 l 6.93888,-1.2221 c 1.030146,-7e-4 1.41312,-2.2779 0.684954,-3.0479 l -6.80487,-6.3734 C 32.602056,37.1272 32.30634,37.0002 32.000002,37 Z"
       id="path5" /><path
       style="opacity:0.2;fill:#ffffff"
       d="M 32,3 29.333984,6.1992188 26,5 24.416016,8.0410156 C 18.27415,9.3048156 13.934384,12.274597 10.337891,16.966797 4.047317,25.173797 4,39.333984 4,47.333984 c 0,0.02261 0.00367,0.04389 0.00391,0.06641 C 4.014844,39.276651 4.2721185,25.880517 10.337895,17.9668 13.934388,13.2746 18.274154,10.304819 24.41602,9.0410186 L 26,6 29.333984,7.1992188 32,4 34.666016,7.1992188 38,6 39.583984,9.0410156 c 6.141866,1.2640004 10.481631,4.2333814 14.078125,8.9257814 6.06575,7.913717 6.323049,21.309851 6.333985,29.433594 2.34e-4,-0.02252 0.0039,-0.0438 0.0039,-0.06641 0,-8 -0.04734,-22.160187 -6.337891,-30.367187 C 50.065615,12.274397 45.72585,9.3050156 39.583984,8.0410156 L 38,5 34.666016,6.1992188 Z"
       id="path6-0" /><path
       style="opacity:0.2;fill:#ffffff"
       d="m 32,37 c -0.30634,2e-4 -0.601449,0.128422 -0.818359,0.357422 l -6.804688,6.373047 c -0.349767,0.369862 -0.439675,1.086394 -0.328125,1.732422 0.05533,-0.292175 0.159876,-0.554506 0.328125,-0.732422 l 6.804688,-6.373047 C 31.398551,38.128422 31.69366,38.0002 32,38 c 0.306338,2e-4 0.601449,0.128022 0.818359,0.357422 l 6.804688,6.373047 c 0.16825,0.177916 0.272796,0.440247 0.328125,0.732422 0.111552,-0.646028 0.02164,-1.36256 -0.328125,-1.732422 L 32.818359,37.357422 C 32.601449,37.128022 32.306338,37.0002 32,37 Z"
       id="path7" /><circle
       style="opacity:0.2"
       cx="46"
       cy="33"
       r="6"
       id="circle7" /><circle
       style="fill:#ffffff"
       cx="46"
       cy="32"
       r="6"
       id="circle8" /><path
       style="opacity:0.2"
       d="m 18,30.000141 a 6,6 0 0 0 -6,6 A 6,6 0 0 0 12.197266,37.506 6,6 0 0 1 18,33.000141 6,6 0 0 1 23.802734,37.494282 6,6 0 0 0 24,36.000141 a 6,6 0 0 0 -6,-6 z"
       id="path8" /><path
       style="fill:#ffffff"
       d="m 18,29.000141 a 6,6 0 0 0 -6,6 A 6,6 0 0 0 12.197266,36.506 6,6 0 0 1 18,32.000141 6,6 0 0 1 23.802734,36.494282 6,6 0 0 0 24,35.000141 a 6,6 0 0 0 -6,-6 z"
       id="path9" /><circle
       style="fill:#3f3f3f"
       cx="46"
       cy="32"
       r="4"
       id="circle9" /></g></svg>
