<?xml version="1.0" encoding="UTF-8"?>
<svg id="_图层_1" xmlns="http://www.w3.org/2000/svg" version="1.1" viewBox="0 0 64 64" width="32" height="32">
  <!-- Generator: Adobe Illustrator 29.0.1, SVG Export Plug-In . SVG Version: 2.1.0 Build 192)  -->
  <defs>
    <style>
      .st0, .st1 {
        stroke-linejoin: round;
      }

      .st0, .st1, .st2, .st3, .st4, .st5 {
        fill: none;
        stroke-linecap: round;
      }

      .st0, .st1, .st3, .st5 {
        stroke-width: 4px;
      }

      .st0, .st6, .st7, .st4, .st5, .st8, .st9 {
        isolation: isolate;
        opacity: .2;
      }

      .st0, .st4, .st5 {
        stroke: #000;
      }

      .st10 {
        fill: #2095f2;
      }

      .st11 {
        fill: #21d789;
      }

      .st1, .st2, .st3 {
        stroke: #fff;
      }

      .st2, .st4 {
        stroke-width: 4px;
      }

      .st6, .st12, .st9 {
        display: none;
      }

      .st3, .st5 {
        stroke-linejoin: bevel;
      }

      .st13 {
        fill: #3f3f3f;
      }

      .st14 {
        fill: #2086e7;
      }

      .st15, .st8, .st9 {
        fill: #fff;
      }

      .st16 {
        fill: #cf4f8c;
      }
    </style>
  </defs>
  <path class="st13" d="M50.3,64H13.8c-7.6,0-13.8-6.2-13.8-13.7V13.7C0,6.2,6.2,0,13.7,0h36.5c7.5,0,13.7,6.2,13.7,13.7v36.6c0,7.5-6.2,13.7-13.7,13.7h0Z"/>
  <g class="st12">
    <path class="st6" d="M3.2,64.9c-1.8,0-3.2-1.4-3.2-3.2v-2.3c0,1.8,1.4,3.2,3.2,3.2h57.4c1.8,0,3.2-1.4,3.2-3.2v2.3c0,1.8-1.4,3.2-3.2,3.2H3.2Z"/>
    <path class="st11" d="M31.9,0H14.4C6.5,0,0,6.5,0,14.4v17.4h31.9V0Z"/>
    <path class="st16" d="M31.9,0h17.5c8,0,14.4,6.5,14.4,14.4v17.5h-31.9V0Z"/>
    <path class="st14" d="M31.9,63.8H14c-7.7,0-14-6.3-14-14v-17.9h31.9v31.9Z"/>
    <path class="st11" d="M31.9,63.8h18.2c7.6,0,13.7-6.1,13.7-13.7v-18.2h-31.9v31.9Z"/>
    <rect class="st13" x="9.1" y="9.1" width="45.6" height="45.6"/>
    <path class="st4" d="M16,49h18.2"/>
    <path class="st2" d="M16,47.8h18.2"/>
    <path class="st5" d="M25.1,33s0,2.3-4.6,2.3-4.6-4.6-4.6-9.1,0-9.1,4.6-9.1,4.6,2.3,4.6,2.3"/>
    <path class="st3" d="M25.1,31.9s0,2.3-4.6,2.3-4.6-4.6-4.6-9.1,0-9.1,4.6-9.1,4.6,2.3,4.6,2.3"/>
    <path class="st0" d="M34.2,17.1v18.2h9.1"/>
    <path class="st1" d="M34.2,15.9v18.2h9.1"/>
    <path class="st9" d="M3.2,0C1.4,0,0,1.4,0,3.2v1.1C0,2.6,1.4,1.1,3.2,1.1h57.4c1.8,0,3.2,1.4,3.2,3.2v-1.1c0-1.8-1.4-3.2-3.2-3.2H3.2Z"/>
  </g>
  <g>
    <path class="st7" d="M3.2,31.5c0,.3,0,.7,0,1,0,15.5,12.5,28,28,28s28-12.5,28-28,0-.7,0-1c-.5,15-12.8,27-27.9,27S3.7,46.5,3.2,31.5h0Z"/>
    <path class="st10" d="M31.1,3.5h0c15.5,0,28,12.5,28,28h0c0,15.5-12.5,28-28,28h0c-15.5,0-28-12.5-28-28h0C3.1,16,15.7,3.5,31.1,3.5Z"/>
    <path class="st8" d="M31.1,3.5c-6.4,0-12.3,2.1-17,5.7,0,15.5,12.7,28.3,28.2,28.3s12.1-2.5,16.8-6c0-1.9-.2-3.8-.6-5.6,0,0,0,0,0,0-.3-1.4-.7-2.7-1.1-4,0,0,0,0,0,0-.6-1.7-1.4-3.4-2.3-4.9-3-5-7.6-9-13-11.3,0,0,0,0,0,0-.4-.2-.8-.3-1.3-.5,0,0,0,0,0,0-3-1.1-6.3-1.7-9.6-1.7s0,0,0,0Z"/>
    <path class="st7" d="M28.3,12.5c-.8,0-1.1.7-1.1,1.5v24.5h-6l10,14,10-14h-6V14c0-.9-.4-1.5-1.1-1.5h-5.7Z"/>
    <path class="st15" d="M28.3,11.5c-.8,0-1.1.7-1.1,1.5v24.5h-6l10,14,10-14h-6V13c0-.9-.4-1.5-1.1-1.5h-5.7Z"/>
    <path class="st8" d="M31.1,3.5C15.6,3.5,3.1,16,3.1,31.5s0,.2,0,.3c.4-15.2,12.7-27.3,28-27.3s27.6,12.1,28,27.3c0-.1,0-.2,0-.3,0-15.5-12.5-28-28-28Z"/>
  </g>
</svg>