<?xml version="1.0" encoding="UTF-8" standalone="no"?>
<svg
   id="_图层_1"
   version="1.1"
   viewBox="0 0 64 64" width="32" height="32"
   sodipodi:docname="com.github.marbetschar.time-limit.svg"
   xml:space="preserve"
   inkscape:version="1.4 (e7c3feb100, 2024-10-09)"
   xmlns:inkscape="http://www.inkscape.org/namespaces/inkscape"
   xmlns:sodipodi="http://sodipodi.sourceforge.net/DTD/sodipodi-0.dtd"
   xmlns="http://www.w3.org/2000/svg"
   xmlns:svg="http://www.w3.org/2000/svg"><sodipodi:namedview
     id="namedview26"
     pagecolor="#505050"
     bordercolor="#eeeeee"
     borderopacity="1"
     inkscape:showpageshadow="0"
     inkscape:pageopacity="0"
     inkscape:pagecheckerboard="0"
     inkscape:deskcolor="#505050"
     inkscape:zoom="10.6875"
     inkscape:cx="32"
     inkscape:cy="33.309942"
     inkscape:window-width="1920"
     inkscape:window-height="939"
     inkscape:window-x="0"
     inkscape:window-y="34"
     inkscape:window-maximized="1"
     inkscape:current-layer="g33" /><!-- Generator: Adobe Illustrator 29.0.1, SVG Export Plug-In . SVG Version: 2.1.0 Build 192)  --><defs
     id="defs6"><style
       id="style1">
      .st0 {
        fill-opacity: .5;
      }

      .st0, .st1, .st2, .st3, .st4, .st5, .st6, .st7 {
        fill: #fff;
      }

      .st8 {
        fill: #133c9a;
      }

      .st2, .st9 {
        display: none;
      }

      .st3 {
        fill-opacity: .2;
      }

      .st4 {
        fill-opacity: .9;
      }

      .st10 {
        fill: #3370ff;
      }

      .st11 {
        fill: url(#_未命名的渐变_3);
      }

      .st12 {
        fill: url(#_未命名的渐变);
      }

      .st5 {
        fill-opacity: .3;
      }

      .st6 {
        fill-opacity: 0;
      }

      .st7 {
        fill-opacity: .7;
      }

      .st13 {
        fill: #00d6b9;
      }

      .st14 {
        fill: url(#_未命名的渐变_2);
      }
    </style><radialGradient
       id="_未命名的渐变"
       data-name="未命名的渐变"
       cx="123.9"
       cy="-40.2"
       fx="123.9"
       fy="-40.2"
       r="59.4"
       gradientTransform="translate(-26.8 25.5) scale(.6 -.7)"
       gradientUnits="userSpaceOnUse"><stop
         offset="0"
         stop-color="#db202e"
         id="stop1" /><stop
         offset="1"
         stop-color="#e01b24"
         id="stop2" /></radialGradient><radialGradient
       id="_未命名的渐变_2"
       data-name="未命名的渐变 2"
       cx="67.6"
       cy="26.8"
       fx="67.6"
       fy="26.8"
       r="105.2"
       gradientTransform="translate(-26.6 25.3) scale(.6 -.7)"
       gradientUnits="userSpaceOnUse"><stop
         offset="0"
         stop-color="#ffb648"
         id="stop3" /><stop
         offset="1"
         stop-color="#ff7800"
         stop-opacity="0"
         id="stop4" /></radialGradient><radialGradient
       id="_未命名的渐变_3"
       data-name="未命名的渐变 3"
       cx="61.7"
       cy="18.6"
       fx="61.7"
       fy="18.6"
       r="68"
       gradientTransform="translate(-26.8 25.8) scale(.6 -.7)"
       gradientUnits="userSpaceOnUse"><stop
         offset="0"
         stop-color="#c64600"
         id="stop5" /><stop
         offset="1"
         stop-color="#a51d2d"
         id="stop6" /></radialGradient></defs><path
     class="st1"
     d="M47.5,64.1H13.8c-7.6,0-13.8-6.3-13.8-13.8V13.7C0,6.2,6.2,0,13.7,0h36.6c7.5,0,13.7,6.2,13.7,13.7v36.6c0,7.5-6.2,13.7-13.7,13.7h-2.9.1Z"
     id="path6"
     style="fill:#c8c8c8;fill-opacity:1" /><g
     id="g33"
     transform="matrix(1.1453634,0,0,1.1411716,-4.6048455,-4.4448036)"><path
       style="opacity:0.2"
       d="M 32.000001,51 C 41.941124,51 50,42.941124 50,33 50,23.058876 41.941124,15 32,15 c -9.941126,0 -18,8.058876 -18,18 0,9.941124 8.058874,18 18.000001,18 z"
       id="path2" /><path
       style="fill:#ffffff"
       d="M 32.000001,50 C 41.941124,50 50,41.941124 50,32 50,22.058876 41.941124,14 32,14 c -9.941126,0 -18,8.058876 -18,18 0,9.941124 8.058874,18 18.000001,18 z"
       id="path3" /><circle
       style="fill:#3c4145"
       cx="41.5"
       cy="41.5"
       r="1.5"
       id="circle3-6" /><path
       style="fill:none;stroke:#3c4145;stroke-width:3;stroke-linecap:round;stroke-linejoin:round"
       d="m 29.5,29.5 5,5"
       id="path4-2" /><path
       style="fill:#89949a"
       d="M 31.75,53 A 0.75,0.66666666 0 0 0 31,53.666666 v 2.666668 A 0.75,0.66666666 0 0 0 31.75,57 0.75,0.66666666 0 0 0 32.5,56.333334 V 53.666666 A 0.75,0.66666666 0 0 0 31.75,53 Z"
       id="path5-6" /><path
       style="fill:#89949a"
       d="M 11,31.25 A 0.66666666,0.75 0 0 0 10.333334,30.5 H 7.6666666 A 0.66666666,0.75 0 0 0 7,31.25 0.66666666,0.75 0 0 0 7.6666666,32 H 10.333334 A 0.66666666,0.75 0 0 0 11,31.25 Z"
       id="path6-1" /><path
       style="fill:#89949a"
       d="m 17.06658,46.93342 a 0.75,0.66666666 45 0 0 -1.001735,-0.05893 l -1.885619,1.885619 a 0.75,0.66666666 45 0 0 0.05893,1.001735 0.75,0.66666666 45 0 0 1.001735,0.05893 L 17.12551,47.935155 A 0.75,0.66666666 45 0 0 17.06658,46.93342 Z"
       id="path7-8" /><path
       style="fill:#89949a"
       d="m 17.066579,17.061844 a 0.66666666,0.75 45 0 1 -1.001735,0.05893 l -1.885619,-1.885619 a 0.66666666,0.75 45 0 1 0.05893,-1.001734 0.66666666,0.75 45 0 1 1.001735,-0.05893 l 1.885619,1.885619 a 0.66666666,0.75 45 0 1 -0.05893,1.001734 z"
       id="path8-7" /><path
       style="opacity:0.1;fill:none;stroke:#000000;stroke-width:2;stroke-linecap:round;stroke-linejoin:round"
       d="M 31.958113,9.0003379 A 24,24 0 0 1 54.181115,23.835253 24,24 0 0 1 48.911221,50.029999"
       id="path9-9" /><path
       style="fill:none;stroke:#378ef7;stroke-width:2;stroke-linecap:round;stroke-linejoin:round"
       d="M 31.958113,8.0000366 A 24,24 0 0 1 54.181115,22.834951 24,24 0 0 1 48.911221,49.029698"
       id="path10-2" /></g></svg>
