<?xml version="1.0" encoding="UTF-8" standalone="no"?>
<svg
   id="_图层_1"
   version="1.1"
   viewBox="0 0 64 64" width="32" height="32"
   sodipodi:docname="com.github.manexim.typewriter.svg"
   xml:space="preserve"
   inkscape:version="1.4 (e7c3feb100, 2024-10-09)"
   xmlns:inkscape="http://www.inkscape.org/namespaces/inkscape"
   xmlns:sodipodi="http://sodipodi.sourceforge.net/DTD/sodipodi-0.dtd"
   xmlns="http://www.w3.org/2000/svg"
   xmlns:svg="http://www.w3.org/2000/svg"><sodipodi:namedview
     id="namedview26"
     pagecolor="#505050"
     bordercolor="#eeeeee"
     borderopacity="1"
     inkscape:showpageshadow="0"
     inkscape:pageopacity="0"
     inkscape:pagecheckerboard="0"
     inkscape:deskcolor="#505050"
     inkscape:zoom="10.6875"
     inkscape:cx="32"
     inkscape:cy="33.309942"
     inkscape:window-width="1920"
     inkscape:window-height="939"
     inkscape:window-x="0"
     inkscape:window-y="34"
     inkscape:window-maximized="1"
     inkscape:current-layer="_图层_1" /><!-- Generator: Adobe Illustrator 29.0.1, SVG Export Plug-In . SVG Version: 2.1.0 Build 192)  --><defs
     id="defs6"><style
       id="style1">
      .st0 {
        fill-opacity: .5;
      }

      .st0, .st1, .st2, .st3, .st4, .st5, .st6, .st7 {
        fill: #fff;
      }

      .st8 {
        fill: #133c9a;
      }

      .st2, .st9 {
        display: none;
      }

      .st3 {
        fill-opacity: .2;
      }

      .st4 {
        fill-opacity: .9;
      }

      .st10 {
        fill: #3370ff;
      }

      .st11 {
        fill: url(#_未命名的渐变_3);
      }

      .st12 {
        fill: url(#_未命名的渐变);
      }

      .st5 {
        fill-opacity: .3;
      }

      .st6 {
        fill-opacity: 0;
      }

      .st7 {
        fill-opacity: .7;
      }

      .st13 {
        fill: #00d6b9;
      }

      .st14 {
        fill: url(#_未命名的渐变_2);
      }
    </style><radialGradient
       id="_未命名的渐变"
       data-name="未命名的渐变"
       cx="123.9"
       cy="-40.2"
       fx="123.9"
       fy="-40.2"
       r="59.4"
       gradientTransform="translate(-26.8 25.5) scale(.6 -.7)"
       gradientUnits="userSpaceOnUse"><stop
         offset="0"
         stop-color="#db202e"
         id="stop1" /><stop
         offset="1"
         stop-color="#e01b24"
         id="stop2" /></radialGradient><radialGradient
       id="_未命名的渐变_2"
       data-name="未命名的渐变 2"
       cx="67.6"
       cy="26.8"
       fx="67.6"
       fy="26.8"
       r="105.2"
       gradientTransform="translate(-26.6 25.3) scale(.6 -.7)"
       gradientUnits="userSpaceOnUse"><stop
         offset="0"
         stop-color="#ffb648"
         id="stop3" /><stop
         offset="1"
         stop-color="#ff7800"
         stop-opacity="0"
         id="stop4" /></radialGradient><radialGradient
       id="_未命名的渐变_3"
       data-name="未命名的渐变 3"
       cx="61.7"
       cy="18.6"
       fx="61.7"
       fy="18.6"
       r="68"
       gradientTransform="translate(-26.8 25.8) scale(.6 -.7)"
       gradientUnits="userSpaceOnUse"><stop
         offset="0"
         stop-color="#c64600"
         id="stop5" /><stop
         offset="1"
         stop-color="#a51d2d"
         id="stop6" /></radialGradient></defs><path
     class="st1"
     d="M47.5,64.1H13.8c-7.6,0-13.8-6.3-13.8-13.8V13.7C0,6.2,6.2,0,13.7,0h36.6c7.5,0,13.7,6.2,13.7,13.7v36.6c0,7.5-6.2,13.7-13.7,13.7h-2.9.1Z"
     id="path6"
     style="fill:#e4e4e4;fill-opacity:1" /><g
     id="g36"
     transform="matrix(0.79949875,0,0,0.7701857,6.4160404,6.9572697)"><rect
       style="opacity:0.2"
       width="56"
       height="39"
       x="4"
       y="22"
       rx="2.8"
       ry="2.786"
       id="rect1" /><rect
       style="fill:#e4e4e4"
       width="40"
       height="49"
       x="12"
       y="4"
       rx="2.8570001"
       ry="2.8"
       id="rect2" /><rect
       style="fill:#3dbe43"
       width="56"
       height="39"
       x="4"
       y="21"
       rx="2.8"
       ry="2.786"
       id="rect3" /><path
       style="opacity:0.2"
       d="m 10,30 a 3,3 0 0 0 -3,3 3,3 0 0 0 3,3 3,3 0 0 0 3,-3 3,3 0 0 0 -3,-3 z m 9,0 a 3,3 0 0 0 -3,3 3,3 0 0 0 3,3 3,3 0 0 0 3,-3 3,3 0 0 0 -3,-3 z m 9,0 a 3,3 0 0 0 -3,3 3,3 0 0 0 3,3 3,3 0 0 0 3,-3 3,3 0 0 0 -3,-3 z m 9,0 a 3,3 0 0 0 -3,3 3,3 0 0 0 3,3 3,3 0 0 0 3,-3 3,3 0 0 0 -3,-3 z m 9,0 a 3,3 0 0 0 -3,3 3,3 0 0 0 3,3 3,3 0 0 0 3,-3 3,3 0 0 0 -3,-3 z m 9,0 a 3,3 0 0 0 -3,3 3,3 0 0 0 3,3 3,3 0 0 0 3,-3 3,3 0 0 0 -3,-3 z M 14,41 a 3,3 0 0 0 -3,3 3,3 0 0 0 3,3 3,3 0 0 0 3,-3 3,3 0 0 0 -3,-3 z m 9,0 a 3,3 0 0 0 -3,3 3,3 0 0 0 3,3 3,3 0 0 0 3,-3 3,3 0 0 0 -3,-3 z m 9,0 a 3,3 0 0 0 -3,3 3,3 0 0 0 3,3 3,3 0 0 0 3,-3 3,3 0 0 0 -3,-3 z m 9,0 a 3,3 0 0 0 -3,3 3,3 0 0 0 3,3 3,3 0 0 0 3,-3 3,3 0 0 0 -3,-3 z m 9,0 a 3,3 0 0 0 -3,3 3,3 0 0 0 3,3 3,3 0 0 0 3,-3 3,3 0 0 0 -3,-3 z M 12.400391,51 C 11.624791,51 11,51.669 11,52.5 v 3 c 0,0.831 0.624791,1.5 1.400391,1.5 H 51.599609 C 52.375209,57 53,56.331 53,55.5 v -3 C 53,51.669 52.375209,51 51.599609,51 Z"
       id="path3-2" /><circle
       style="fill:#ffffff"
       cx="10"
       cy="32"
       r="3"
       id="circle3" /><circle
       style="fill:#ffffff"
       cx="19"
       cy="32"
       r="3"
       id="circle4" /><circle
       style="fill:#ffffff"
       cx="28"
       cy="32"
       r="3"
       id="circle5" /><circle
       style="fill:#ffffff"
       cx="37"
       cy="32"
       r="3"
       id="circle6" /><circle
       style="fill:#ffffff"
       cx="46"
       cy="32"
       r="3"
       id="circle7" /><circle
       style="fill:#ffffff"
       cx="55"
       cy="32"
       r="3"
       id="circle8" /><circle
       style="fill:#ffffff"
       cx="14"
       cy="43"
       r="3"
       id="circle9" /><circle
       style="fill:#ffffff"
       cx="23"
       cy="43"
       r="3"
       id="circle10" /><circle
       style="fill:#ffffff"
       cx="32"
       cy="43"
       r="3"
       id="circle11" /><circle
       style="fill:#ffffff"
       cx="41"
       cy="43"
       r="3"
       id="circle12" /><circle
       style="fill:#ffffff"
       cx="50"
       cy="43"
       r="3"
       id="circle13" /><rect
       style="fill:#ffffff"
       width="42"
       height="6"
       x="11"
       y="50"
       rx="1.4"
       ry="1.5"
       id="rect13" /><path
       style="opacity:0.3"
       d="m 15,6 v 3 h 5 V 6 Z m 8,0 v 3 h 6 V 6 Z m 9,0 V 9 H 43 V 6 Z m -17,6 v 3 h 11 v -3 z m 14,0 v 3 h 7 v -3 z m -14,6 v 3 h 7 v -3 z m 10,0 v 3 h 7 v -3 z m 10,0 v 3 h 11 v -3 z"
       id="path13" /><path
       style="opacity:0.2;fill:#ffffff"
       d="M 14.857422,4 C 13.274565,4 12,5.2495813 12,6.8007812 v 1 C 12,6.2495813 13.274565,5 14.857422,5 H 49.142578 C 50.725435,5 52,6.2495813 52,7.8007812 v -1 C 52,5.2495813 50.725435,4 49.142578,4 Z"
       id="path14" /><path
       style="opacity:0.1;fill:#ffffff"
       d="M 6.8007812,21 C 5.2495813,21 4,22.241871 4,23.785156 v 1 C 4,23.241871 5.2495813,22 6.8007812,22 H 57.199219 C 58.750419,22 60,23.241871 60,24.785156 v -1 C 60,22.241871 58.750419,21 57.199219,21 Z"
       id="path15" /></g></svg>
