<?xml version="1.0" encoding="UTF-8"?>
<svg id="_图层_1" xmlns="http://www.w3.org/2000/svg" version="1.1" viewBox="0 0 64 64" width="32" height="32">
  <!-- Generator: Adobe Illustrator 29.0.1, SVG Export Plug-In . SVG Version: 2.1.0 Build 192)  -->
  <defs>
    <style>
      .st0 {
        fill: #6f6f6f;
      }

      .st1 {
        fill: #e65829;
      }

      .st2, .st3, .st4, .st5, .st6, .st7 {
        display: none;
      }

      .st2, .st3, .st8, .st9, .st6 {
        isolation: isolate;
      }

      .st2, .st9, .st6 {
        opacity: .2;
      }

      .st3, .st10, .st6 {
        fill: #fff;
      }

      .st3, .st8 {
        opacity: .1;
      }

      .st11 {
        fill: #ac7ece;
      }

      .st4 {
        fill: #8340b7;
      }

      .st7, .st12 {
        fill: #e4e4e4;
      }
    </style>
  </defs>
  <path class="st12" d="M50.4,64H13.8c-7.6,0-13.8-6.2-13.8-13.7V13.7C0,6.2,6.2,0,13.7,0h36.6c7.5,0,13.7,6.2,13.7,13.7v36.6c0,7.5-6.2,13.7-13.7,13.7h.1Z"/>
  <g class="st5">
    <path class="st2" d="M3.1,1.1h57.7c1.8,0,3.2,1.4,3.2,3.2v57.5c0,1.8-1.4,3.2-3.2,3.2H3.1c-1.8,0-3.2-1.4-3.2-3.2V4.3C-.1,2.6,1.3,1.1,3.1,1.1Z"/>
    <path class="st4" d="M3.1,0h57.7c1.8,0,3.2,1.4,3.2,3.2v57.5c0,1.8-1.4,3.2-3.2,3.2H3.1c-1.8,0-3.2-1.4-3.2-3.2V3.2C-.1,1.4,1.3,0,3.1,0Z"/>
    <path class="st9" d="M35.8,14.8L14.7,51.3h5.2l5-9.1h16.7l1.5,9.1h5.2l-6.8-36.5h-5.6ZM37.7,19.7l3.2,17.9h-13.3l10.2-17.9Z"/>
    <path class="st10" d="M35.8,13.7L14.7,50.2h5.2l5-9.1h16.7l1.5,9.1h5.2l-6.8-36.5h-5.6ZM37.7,18.5l3.2,17.9h-13.3l10.2-17.9Z"/>
    <ellipse class="st9" cx="7.9" cy="9.1" rx="4.6" ry="4.6"/>
    <ellipse class="st11" cx="7.9" cy="8" rx="4.6" ry="4.6"/>
    <ellipse class="st9" cx="19.3" cy="9.1" rx="4.6" ry="4.6"/>
    <ellipse class="st11" cx="19.3" cy="8" rx="4.6" ry="4.6"/>
    <ellipse class="st9" cx="30.8" cy="9.1" rx="4.6" ry="4.6"/>
    <ellipse class="st11" cx="30.8" cy="8" rx="4.6" ry="4.6"/>
    <path class="st3" d="M3.1,0C1.3,0-.1,1.4-.1,3.2v1.1C-.1,2.6,1.3,1.1,3.1,1.1h57.7c1.8,0,3.2,1.4,3.2,3.2v-1.1c0-1.8-1.4-3.2-3.2-3.2H3.1Z"/>
  </g>
  <g>
    <path class="st2" d="M17.8,1.1h23.8c9.8,0,17.8,7.9,17.8,17.7v23.7c0,9.8-8,17.7-17.8,17.7h-23.8C8,60.2,0,52.3,0,42.5v-23.7C0,9,8,1.1,17.8,1.1Z"/>
    <path class="st7" d="M17.8,0h23.8c9.8,0,17.8,7.9,17.8,17.7v23.7c0,9.8-8,17.7-17.8,17.7h-23.8C8,59.2,0,51.2,0,41.4v-23.7C0,7.9,8,0,17.8,0Z"/>
    <path class="st8" d="M29.7,9.5c-11.7,0-21.2,9.5-21.2,21.1s9.5,21.1,21.2,21.1,21.2-9.5,21.2-21.1-9.5-21.1-21.2-21.1ZM27.7,13.7c.2,0,.5,0,.8,0,0,.1-.2.5-.4,1.1-1.7,3.6-1.8,7.9-.2,10.2.3.4.5.8.5.9s-.3.1-.6.1c-.8,0-1.6-.5-3.1-1.7-.7-.5-1.6-1-1.9-1.1-.5-.1-.7,0-1.4.6-.7.7-.9,1-.9,1.6,0,2.3,2.7,4.1,7.8,5.1,6.9,1.4,8.5,2.7,8.7,6.3.2,4.5-2.2,7.9-7.4,10.5-.6.3-1,.4-1.3.5-.1,0-.2,0-.3,0,0-.1-.1-.5-.1-1.1,0-2.4-.9-4.9-2.4-6.2-.4-.4-1.5-1.2-2.4-1.7-.9-.6-1.8-1.2-2.1-1.5-.3-.5-.4-.7-.1-1.6.5-1.6,1-2.4,2.2-3.4.6-.5,1.2-1,1.3-1,.1,0-.7-.3-2-.5-1.3-.3-3.2-.8-4.2-1.2-1.8-.7-4.2-2-5.2-3,0,0,0,0-.1-.1,1.3-5.3,5.1-9.6,10-11.7,1-.4,2.1-.7,3.2-1,.6-.1,1.1-.2,1.7-.2ZM43.9,21.8c.4.2,1.9,3.5,2.4,5.2.6,2.1.5,5.7,0,7.7-.2.8-.5,1.5-.5,1.6,0,0-.4-.4-.8-1.1-.4-.6-1.5-2-2.5-3-2.8-2.9-3.2-4.4-2.1-6.8.6-1.2,3.1-3.8,3.5-3.7Z"/>
    <path class="st0" d="M29.7,8.5c-11.7,0-21.2,9.5-21.2,21.1s9.5,21.1,21.2,21.1,21.2-9.5,21.2-21.1-9.5-21.1-21.2-21.1ZM27.7,12.7c.2,0,.5,0,.8,0,0,.1-.2.5-.4,1.1-1.7,3.6-1.8,7.9-.2,10.2.3.4.5.8.5.9s-.3.1-.6.1c-.8,0-1.6-.5-3.1-1.7-.7-.5-1.6-1-1.9-1.1-.5-.1-.7,0-1.4.6-.7.7-.9,1-.9,1.6,0,2.3,2.7,4.1,7.8,5.1,6.9,1.4,8.5,2.7,8.7,6.3.2,4.5-2.2,7.9-7.4,10.5-.6.3-1,.4-1.3.5-.1,0-.2,0-.3,0,0-.1-.1-.5-.1-1.1,0-2.4-.9-4.9-2.4-6.2-.4-.4-1.5-1.2-2.4-1.7-.9-.6-1.8-1.2-2.1-1.5-.3-.5-.4-.7-.1-1.6.5-1.6,1-2.4,2.2-3.4.6-.5,1.2-1,1.3-1,.1,0-.7-.3-2-.5-1.3-.3-3.2-.8-4.2-1.2-1.8-.7-4.2-2-5.2-3,0,0,0,0-.1-.1,1.3-5.3,5.1-9.6,10-11.7,1-.4,2.1-.7,3.2-1,.6-.1,1.1-.2,1.7-.2ZM43.9,20.7c.4.2,1.9,3.5,2.4,5.2.6,2.1.5,5.7,0,7.7-.2.8-.5,1.5-.5,1.6,0,0-.4-.4-.8-1.1-.4-.6-1.5-2-2.5-3-2.8-2.9-3.2-4.4-2.1-6.8.6-1.2,3.1-3.8,3.5-3.7Z"/>
    <path class="st6" d="M17.8,0C7.9,0,0,7.9,0,17.7v1.1C0,9,7.9,1.1,17.8,1.1h23.8c9.9,0,17.8,7.9,17.8,17.7v-1.1C59.4,7.9,51.4,0,41.6,0h-23.8Z"/>
    <ellipse class="st9" cx="46.7" cy="46.5" rx="17" ry="16.9"/>
    <ellipse class="st1" cx="46.7" cy="45.4" rx="17" ry="16.9"/>
    <path class="st10" d="M46.1,34.9c-.9,0-1.6.7-1.6,1.6v11.1h11.1c.9,0,1.6-.7,1.6-1.6s-.7-1.6-1.6-1.6h-8v-7.9c0-.9-.7-1.6-1.6-1.6Z"/>
  </g>
</svg>