<?xml version="1.0" encoding="UTF-8"?>
<svg id="_图层_1" xmlns="http://www.w3.org/2000/svg" version="1.1" viewBox="0 0 64 64" width="32" height="32">
  <!-- Generator: Adobe Illustrator 29.0.1, SVG Export Plug-In . SVG Version: 2.1.0 Build 192)  -->
  <defs>
    <style>
      .st0, .st1, .st2 {
        isolation: isolate;
      }

      .st0, .st1, .st3 {
        display: none;
      }

      .st0, .st2 {
        opacity: .2;
      }

      .st1 {
        opacity: .1;
      }

      .st1, .st4 {
        fill: #fff;
      }

      .st5 {
        fill: none;
        stroke: #fff;
        stroke-linejoin: round;
        stroke-width: 6px;
      }

      .st6, .st3 {
        fill: #4f8d28;
      }
    </style>
  </defs>
  <path class="st6" d="M47.5,64.1H13.8c-7.6,0-13.8-6.3-13.8-13.8V13.7C0,6.2,6.2,0,13.7,0h36.6c7.5,0,13.7,6.2,13.7,13.7v36.6c0,7.5-6.2,13.7-13.7,13.7h-2.9.1Z"/>
  <g>
    <path class="st0" d="M32,1.1C14.3,1.1,0,15.4,0,33s14.3,31.9,32,31.9,32-14.3,32-31.9S49.7,1.1,32,1.1Z"/>
    <path class="st0" d="M28.8,9.6v4.9c-2.9.2-5.5.7-7.7,1.9-3.1,1.7-5.1,5.2-5.1,9.2s2.8,7.6,5.9,9c3.1,1.4,6.5,1.8,9.7,2.2,3.2.4,6.2.9,7.9,1.6,1.7.8,2.1,1.1,2.1,3.2s-.4,2.3-1.9,3.2c-1.5.9-4.1,1.6-7.7,1.6-5.6,0-7.5-1.8-8.5-3.4-1.1-1.6-1.1-3-1.1-3h-6.4s0,3.3,2.1,6.6c1.8,2.7,5.3,5.2,10.7,6v5h6.4v-4.9c3-.3,5.7-1.1,7.9-2.4,2.9-1.8,4.9-5.1,4.9-8.6s-2.8-7.6-5.9-9c-3.1-1.4-6.5-1.8-9.7-2.2-3.2-.4-6.2-.9-7.9-1.6-1.7-.8-2.1-1.1-2.1-3.2s.4-2.9,1.7-3.6c1.3-.7,4.1-1.2,7.9-1.2,5.7,0,7.8,1.6,8.7,2.8.9,1.2.9,2,.9,2h6.4s0-3.2-2.3-6c-1.9-2.4-5.3-4.4-10.5-5v-5h-6.4Z"/>
    <path class="st3" d="M32,0C14.3,0,0,14.3,0,31.9s14.3,31.9,32,31.9,32-14.3,32-31.9S49.7,0,32,0Z"/>
    <path class="st2" d="M28.7,8.8v5.6c-2.8.1-5.4.5-7.7,1.6-3.2,1.5-5.5,5-5.5,9.1s2.9,7.7,6.1,9.1c3.2,1.4,6.7,1.8,10,2.2s6.4.9,8.2,1.6,2.2,1,2.2,3.1-.3,1.9-1.9,2.7c-1.5.8-4.4,1.4-8.1,1.4-5.7,0-7.9-1.6-8.9-2.7-1-1.2-1-1.9-1-1.9l-6.6.4s.3,3.2,2.6,5.8c2,2.2,5.4,4.2,10.6,4.8v5.7h6.6v-5.6c3-.3,5.6-.9,7.9-2.1,3.1-1.6,5.4-4.9,5.4-8.5s-2.9-7.7-6.1-9.1c-3.2-1.4-6.7-1.8-10-2.2s-6.4-.9-8.2-1.6-2.2-1-2.2-3.1.3-2.5,1.7-3.1,4.4-1,8.2-1c5.7,0,7.9,1.6,8.9,2.7,1,1.2,1,1.9,1,1.9l6.6-.4s-.3-3.2-2.6-5.8c-2-2.2-5.4-4.2-10.6-4.8v-5.7h-6.6Z"/>
    <path class="st5" d="M45.2,24.2s-.4-7.7-13.2-7.7-13.2,1-13.2,7.4c0,12.8,26.5,3.2,26.5,16s-5.2,7.4-13.2,7.4c-12.8,0-13.2-7.7-13.2-7.7h0"/>
    <rect class="st4" x="28.7" y="7.7" width="6.6" height="6.6"/>
    <rect class="st4" x="28.7" y="49.5" width="6.6" height="6.6"/>
    <path class="st1" d="M32,0C14.3,0,0,14.3,0,31.9c0,.1,0,.3,0,.4C.4,15,14.6,1.1,32,1.1c17.5,0,31.7,14,32,31.4,0-.2,0-.4,0-.6C64,14.3,49.7,0,32,0Z"/>
  </g>
</svg>