<?xml version="1.0" encoding="UTF-8" standalone="no"?>
<svg
   id="_图层_1"
   version="1.1"
   viewBox="0 0 64 64" width="32" height="32"
   sodipodi:docname="com.amazon.Workspaces.svg"
   xml:space="preserve"
   inkscape:version="1.4 (e7c3feb100, 2024-10-09)"
   xmlns:inkscape="http://www.inkscape.org/namespaces/inkscape"
   xmlns:sodipodi="http://sodipodi.sourceforge.net/DTD/sodipodi-0.dtd"
   xmlns="http://www.w3.org/2000/svg"
   xmlns:svg="http://www.w3.org/2000/svg"><sodipodi:namedview
     id="namedview26"
     pagecolor="#505050"
     bordercolor="#eeeeee"
     borderopacity="1"
     inkscape:showpageshadow="0"
     inkscape:pageopacity="0"
     inkscape:pagecheckerboard="0"
     inkscape:deskcolor="#505050"
     inkscape:zoom="10.6875"
     inkscape:cx="32"
     inkscape:cy="29.005848"
     inkscape:window-width="1920"
     inkscape:window-height="939"
     inkscape:window-x="0"
     inkscape:window-y="34"
     inkscape:window-maximized="1"
     inkscape:current-layer="_图层_1" /><!-- Generator: Adobe Illustrator 29.0.1, SVG Export Plug-In . SVG Version: 2.1.0 Build 192)  --><defs
     id="defs6"><style
       id="style1">
      .st0 {
        fill-opacity: .5;
      }

      .st0, .st1, .st2, .st3, .st4, .st5, .st6, .st7 {
        fill: #fff;
      }

      .st8 {
        fill: #133c9a;
      }

      .st2, .st9 {
        display: none;
      }

      .st3 {
        fill-opacity: .2;
      }

      .st4 {
        fill-opacity: .9;
      }

      .st10 {
        fill: #3370ff;
      }

      .st11 {
        fill: url(#_未命名的渐变_3);
      }

      .st12 {
        fill: url(#_未命名的渐变);
      }

      .st5 {
        fill-opacity: .3;
      }

      .st6 {
        fill-opacity: 0;
      }

      .st7 {
        fill-opacity: .7;
      }

      .st13 {
        fill: #00d6b9;
      }

      .st14 {
        fill: url(#_未命名的渐变_2);
      }
    </style><radialGradient
       id="_未命名的渐变"
       data-name="未命名的渐变"
       cx="123.9"
       cy="-40.2"
       fx="123.9"
       fy="-40.2"
       r="59.4"
       gradientTransform="translate(-26.8 25.5) scale(.6 -.7)"
       gradientUnits="userSpaceOnUse"><stop
         offset="0"
         stop-color="#db202e"
         id="stop1" /><stop
         offset="1"
         stop-color="#e01b24"
         id="stop2" /></radialGradient><radialGradient
       id="_未命名的渐变_2"
       data-name="未命名的渐变 2"
       cx="67.6"
       cy="26.8"
       fx="67.6"
       fy="26.8"
       r="105.2"
       gradientTransform="translate(-26.6 25.3) scale(.6 -.7)"
       gradientUnits="userSpaceOnUse"><stop
         offset="0"
         stop-color="#ffb648"
         id="stop3" /><stop
         offset="1"
         stop-color="#ff7800"
         stop-opacity="0"
         id="stop4" /></radialGradient><radialGradient
       id="_未命名的渐变_3"
       data-name="未命名的渐变 3"
       cx="61.7"
       cy="18.6"
       fx="61.7"
       fy="18.6"
       r="68"
       gradientTransform="translate(-26.8 25.8) scale(.6 -.7)"
       gradientUnits="userSpaceOnUse"><stop
         offset="0"
         stop-color="#c64600"
         id="stop5" /><stop
         offset="1"
         stop-color="#a51d2d"
         id="stop6" /></radialGradient></defs><path
     class="st1"
     d="M47.5,64.1H13.8c-7.6,0-13.8-6.3-13.8-13.8V13.7C0,6.2,6.2,0,13.7,0h36.6c7.5,0,13.7,6.2,13.7,13.7v36.6c0,7.5-6.2,13.7-13.7,13.7h-2.9.1Z"
     id="path6"
     style="fill:#f2f2f2;fill-opacity:1" /><g
     id="g26"
     transform="matrix(0.91311612,0,0,0.88582833,-0.07518801,5.496762)"><path
       style="opacity:0.2"
       d="M 18.316406,7.7304688 6,14.917969 v 14.218749 l 5.992188,3.5625 v -14.218749 -0.0078 l 0.01562,0.0078 11.882812,-7.507813 z M 40,9.125 32,13.738281 18,21.84375 V 38 47.28125 L 40,60 62,47.28125 v -25.4375 z"
       id="path1" /><path
       style="fill:#ff7857"
       d="m 40,33.562502 11,6.349232 11,6.369518 V 20.843754 Z"
       id="path2" /><path
       style="fill:#d04134"
       d="M 51,39.911734 40,33.562502 V 59 L 62,46.281252 Z"
       id="path3" /><path
       style="fill:#ffb99f"
       d="m 32,12.74 v 16.2 L 40,33.562502 62,20.843754 40,8.1250046 Z"
       id="path4" /><path
       style="fill:#ff7857"
       d="M 18,46.281252 40,59 V 33.562502 L 32,28.94 18,37 Z"
       id="path5" /><path
       style="fill:#ff7857"
       d="M 32,28.94 V 12.74 L 18,20.843752 Z"
       id="path6-6" /><path
       style="fill:#d04134"
       d="M 32,28.94 18,20.843754 V 37 Z"
       id="path7" /><path
       style="fill:#ff7857"
       d="M 6,13.919158 12.008648,17.482245 23.89,9.97362 18.315135,6.731919 Z"
       id="path8" /><path
       style="fill:#d04134"
       d="M 6,28.136904 11.991352,31.7 v -14.217755 -0.0173 L 6,13.919158 Z"
       id="path9" /><path
       style="fill:#822826"
       d="M 11.991352,31.7 6,13.919158 v 14.217746 z"
       id="path10" /><path
       style="opacity:0.2;fill:#ffffff"
       d="M 18.316406,6.7304688 6,13.917969 v 1 l 12.316406,-7.1875002 4.75,2.7636722 0.824219,-0.5214848 z M 40,8.125 32,12.738281 18,20.84375 v 1 L 32,13.738281 40,9.125 62,21.84375 v -1 z"
       id="path11" /><path
       style="opacity:0.2"
       d="M 12.007812,17.482422 6.8496094,14.423828 6,14.919922 l 6.007812,3.5625 c 0,0 -0.01646,-1.017477 0,-1 z m 6.855469,3.861328 -0.863281,0.5 14,8.095703 8,4.623047 11,6.349609 11,6.369141 v -1 L 51,39.912109 40,33.5625 32,28.939453 Z"
       id="path12" /></g></svg>
