<?xml version="1.0" encoding="UTF-8"?>
<svg id="_图层_1" xmlns="http://www.w3.org/2000/svg" version="1.1" viewBox="0 0 64 64" width="32" height="32">
  <!-- Generator: Adobe Illustrator 29.0.1, SVG Export Plug-In . SVG Version: 2.1.0 Build 192)  -->
  <defs>
    <style>
      .st0 {
        opacity: .2;
      }

      .st0, .st1, .st2 {
        display: none;
      }

      .st0, .st1, .st3 {
        isolation: isolate;
      }

      .st1 {
        opacity: .1;
      }

      .st1, .st3 {
        fill: #fff;
      }

      .st2, .st4 {
        fill: #1e88e5;
      }

      .st3 {
        fill-rule: evenodd;
        opacity: .4;
      }
    </style>
  </defs>
  <path class="st4" d="M50.4,64H13.8c-7.6,0-13.8-6.2-13.8-13.7V13.7C0,6.2,6.2,0,13.7,0h36.6c7.5,0,13.7,6.2,13.7,13.7v36.6c0,7.5-6.2,13.7-13.7,13.7h.1Z"/>
  <g>
    <path class="st0" d="M0,58.5v2.9C0,63.6,1.4,65.4,3.2,65.4h57.6c1.8,0,3.2-1.8,3.2-4v-2.9c0,2.2-1.4,4-3.2,4H3.2C1.4,62.5,0,60.7,0,58.5H0Z"/>
    <path class="st2" d="M3.2,0S0,0,0,4v56C0,62.2,1.4,64,3.2,64h57.6c1.8,0,3.2-1.8,3.2-4V4C64,1.8,62.6,0,60.8,0H3.2Z"/>
    <path class="st3" d="M64,43.6c-4.2,0-8.3,2.3-11.3,6.1-3,3.8-4.7,8.9-4.7,14.3h0c.2,0-1.5.1,3.7,0,5.9-.1,12.3-6.7,12.3-13.2v-7.2h0Z"/>
    <path class="st3" d="M0,20.4c4.2,0,8.3-2.3,11.3-6.1C14.3,10.5,16,5.4,16,0h-.7c-.2.1,3.4.2-2.5.2S.1,4.3,0,13.7s0,1.2,0,1.2v5.5H0Z"/>
    <path class="st1" d="M3.2,0S0,0,0,4v1.5C0,1.5,3.2,1.5,3.2,1.5h57.6c1.8,0,3.2,1.8,3.2,4v-1.5c0-2.2-1.4-4-3.2-4H3.2Z"/>
  </g>
</svg>