<?xml version="1.0" encoding="UTF-8"?>
<svg id="_图层_1" xmlns="http://www.w3.org/2000/svg" version="1.1" viewBox="0 0 64 64" width="32" height="32">
  <!-- Generator: Adobe Illustrator 29.0.1, SVG Export Plug-In . SVG Version: 2.1.0 Build 192)  -->
  <defs>
    <style>
      .st0, .st1, .st2, .st3, .st4 {
        isolation: isolate;
      }

      .st0, .st1, .st5, .st6, .st7 {
        display: none;
      }

      .st0, .st8, .st3, .st4 {
        opacity: .2;
      }

      .st1, .st9, .st4 {
        fill: #fff;
      }

      .st1, .st2 {
        opacity: .1;
      }

      .st10, .st11, .st12, .st13, .st14, .st15 {
        fill: none;
        stroke-linecap: round;
        stroke-width: 3px;
      }

      .st10, .st14, .st15 {
        stroke: #000;
      }

      .st11, .st12, .st13 {
        stroke: #f07400;
      }

      .st12, .st15 {
        stroke-linejoin: bevel;
      }

      .st13, .st14 {
        stroke-linejoin: round;
      }

      .st16 {
        fill: #7f7fff;
      }

      .st17 {
        fill: #ff7f7f;
      }

      .st6 {
        fill: #4f4f4f;
      }

      .st7 {
        fill: #5865f2;
      }

      .st18 {
        fill: #7f3fbf;
      }
    </style>
  </defs>
  <path class="st9" d="M50.4,64H13.8c-7.6,0-13.8-6.2-13.8-13.7V13.7C0,6.2,6.2,0,13.7,0h36.6c7.5,0,13.7,6.2,13.7,13.7v36.6c0,7.5-6.2,13.7-13.7,13.7h.1Z"/>
  <g class="st5">
    <path class="st0" d="M3.2,1.1h58.3c1.8,0,3.2,1.4,3.2,3.2v57.5c0,1.8-1.5,3.2-3.2,3.2H3.2C1.5,65,0,63.6,0,61.8V4.3C0,2.6,1.5,1.1,3.2,1.1Z"/>
    <path class="st6" d="M3.2,0h58.3c1.8,0,3.2,1.4,3.2,3.2v57.5c0,1.8-1.5,3.2-3.2,3.2H3.2C1.5,63.9,0,62.4,0,60.7V3.2C0,1.4,1.5,0,3.2,0Z"/>
    <path class="st3" d="M17.8,8c-.9,0-1.6.7-1.6,1.6v28.7c0,.9.7,1.6,1.6,1.6h14.6c9,0,16.2-7.1,16.2-16s-7.3-16-16.2-16h-14.6ZM26.2,17.1h6.2c3.8,0,6.9,3.1,6.9,6.8s-3.1,6.8-6.9,6.8h-6.2c-.4,0-.7-.3-.7-.7v-12.3c0-.4.3-.7.7-.7Z"/>
    <path class="st9" d="M17.8,6.8c-.9,0-1.6.7-1.6,1.6v28.7c0,.9.7,1.6,1.6,1.6h14.6c9,0,16.2-7.1,16.2-16s-7.3-16-16.2-16h-14.6ZM26.2,16h6.2c3.8,0,6.9,3.1,6.9,6.8s-3.1,6.8-6.9,6.8h-6.2c-.4,0-.7-.3-.7-.7v-12.3c0-.4.3-.7.7-.7Z"/>
    <path class="st1" d="M3.2,0C1.4,0,0,1.4,0,3.2v1.1C0,2.6,1.4,1.1,3.2,1.1h58.3c1.8,0,3.2,1.4,3.2,3.2v-1.1c0-1.8-1.4-3.2-3.2-3.2H3.2Z"/>
    <g class="st8">
      <path class="st10" d="M12.1,59.8l-3.5-5.1M5.2,53s6.9.8,6.9-3.4-6.9-3.4-6.9-3.4M5.2,59.8v-13.6"/>
      <path class="st15" d="M18,54.2h6.9M18,59.8v-10.2M24.9,59.8v-10.2M18,49.6s0-3.4,3.5-3.4,3.5,3.4,3.5,3.4"/>
      <path class="st14" d="M30.7,46.3v13.6h6.9"/>
      <path class="st14" d="M43.4,46.3v13.6h6.9"/>
      <path class="st10" d="M56.1,59.8v-6.8M61.3,46.2l-5.2,6.8M51,46.2l5.2,6.8"/>
    </g>
    <g>
      <path class="st11" d="M12.1,58.7l-3.5-5.1M5.2,51.9s6.9.8,6.9-3.4-6.9-3.4-6.9-3.4M5.2,58.7v-13.6"/>
      <path class="st12" d="M18,53h6.9M18,58.7v-10.2M24.9,58.7v-10.2M18,48.5s0-3.4,3.5-3.4,3.5,3.4,3.5,3.4"/>
      <path class="st13" d="M30.7,45.1v13.6h6.9"/>
      <path class="st13" d="M43.4,45.1v13.6h6.9"/>
      <path class="st11" d="M56.1,58.7v-6.8M61.3,45.1l-5.2,6.8M51,45.1l5.2,6.8"/>
    </g>
  </g>
  <g class="st5">
    <ellipse class="st0" cx="32.2" cy="32.9" rx="31.8" ry="31.8"/>
    <ellipse class="st7" cx="32.2" cy="31.8" rx="31.8" ry="31.8"/>
    <path class="st3" d="M26.4,17c-2.9.5-5.7,1.4-8.3,2.6,0,0,0,0,0,0-5.3,8.1-6.7,16-6,23.8,0,0,0,0,0,0,3.5,2.6,6.9,4.2,10.2,5.3,0,0,.1,0,.1,0,.8-1.1,1.5-2,2.1-3.2,0,0,0-.2,0-.2-1.1-.4-2.2-1-3.2-1.6,0,0,0-.2,0-.2.2-.2.4-.3.6-.5,0,0,0,0,.1,0,6.7,3.1,13.9,3.1,20.5,0,0,0,0,0,.1,0,.2.2.4.3.6.5,0,0,0,.2,0,.2-1,.6-2.1,1.1-3.2,1.6,0,0-.1.1,0,.2.6,1.2,1.3,2.1,2.1,3.2,0,0,0,0,.1,0,3.3-1.1,6.7-2.6,10.2-5.3,0,0,0,0,0,0,.9-9-1.4-16.8-6-23.7,0,0,0,0,0,0-2.6-1.2-5.4-2.1-8.3-2.6,0,0-.1,0-.1,0-.4.7-.8.7-1,1.4-3.1-.5-6.3-.5-9.3,0-.3-.7-.7-.7-1.1-1.4,0,0,0,0-.1,0ZM24.8,31.8c2.2,0,4,1.8,4,4,0,2.2-1.8,4-4,4s-4-1.8-4-4,1.8-4,4-4ZM39.6,31.8c2.2,0,4,1.8,4,4,0,2.2-1.7,4-4,4s-4-1.8-4-4,1.8-4,4-4Z"/>
    <path class="st9" d="M26.4,15.9c-2.9.5-5.7,1.4-8.3,2.6,0,0,0,0,0,0-5.3,8.1-6.7,16-6,23.8,0,0,0,0,0,0,3.5,2.6,6.9,4.2,10.2,5.3,0,0,.1,0,.1,0,.8-1.1,1.5-2,2.1-3.2,0,0,0-.2,0-.2-1.1-.4-2.2-1-3.2-1.6,0,0,0-.2,0-.2.2-.2.4-.3.6-.5,0,0,0,0,.1,0,6.7,3.1,13.9,3.1,20.5,0,0,0,0,0,.1,0,.2.2.4.3.6.5,0,0,0,.2,0,.2-1,.6-2.1,1.1-3.2,1.6,0,0-.1.1,0,.2.6,1.2,1.3,2.1,2.1,3.2,0,0,0,0,.1,0,3.3-1.1,6.7-2.6,10.2-5.3,0,0,0,0,0,0,.9-9-1.4-16.8-6-23.7,0,0,0,0,0,0-2.6-1.2-5.4-2.1-8.3-2.6,0,0-.1,0-.1,0-.4.7-.8.7-1,1.4-3.1-.5-6.3-.5-9.3,0-.3-.7-.7-.7-1.1-1.4,0,0,0,0-.1,0ZM24.8,30.7c2.2,0,4,1.8,4,4,0,2.2-1.8,4-4,4s-4-1.8-4-4,1.8-4,4-4ZM39.6,30.7c2.2,0,4,1.8,4,4,0,2.2-1.7,4-4,4s-4-1.8-4-4,1.8-4,4-4Z"/>
    <path class="st1" d="M32.2,0C14.7,0,.4,14.2.4,31.8c0,.2,0,.4,0,.6C.8,15,14.9,1.1,32.2,1.1c17.3,0,31.5,13.9,31.8,31.2,0-.2,0-.4,0-.6C64,14.2,49.8,0,32.2,0Z"/>
  </g>
  <g>
    <path class="st3" d="M35.7,10.5c-1.6.2-31.5,35.1-31.5,35.1,0,0,2.1.6,7,1.3,1.6-1.2,23.8-36.9,24.5-36.3,0,0,0,0,0,0h0Z"/>
    <path class="st3" d="M35.8,10.6c0,0-24.5,36.3-24.5,36.3-2.1,3.3-3.8,6-3.8,6,0,0,23,1,40.8-1.3,25.4-3.2-5.2-34.1-12.4-41.1Z"/>
    <path class="st16" d="M35.8,9.7c0,0-24.5,36.3-24.5,36.3-2.1,3.3-3.8,6-3.8,6,0,0,23,1,40.8-1.3,25.4-3.2-5.2-34.1-12.4-41.1Z"/>
    <path class="st2" d="M35.8,10.5c-1-.2-24.5,36.3-24.5,36.3,0,0,22.2,1.3,30.9,1.1,24.7-.4-.7-30.3-6.4-37.4,0,0,0,0,0,0Z"/>
    <path class="st17" d="M35.7,9.7c-1.6.2-31.5,35.1-31.5,35.1,0,0,2.1.6,7,1.3,1.6-1.2,23.8-36.9,24.5-36.3,0,0,0,0,0,0h0Z"/>
    <path class="st4" d="M35.7,9.7c-1.6.2-31.5,35.1-31.5,35.1,0,0,.5.1.6.1,1.8-2.1,29.3-34.2,30.9-34.4,0,0,0,0,0,0,0,0,0,0,0,0,0,0,0,0,0,0,5.1,4.9,21.8,21.7,22.3,32.3.4-10.5-17.1-28.1-22.3-33.2,0,0,0,0,0,0,0,0,0,0,0,0,0,0,0,0,0,0ZM10.8,46.8c-1.7,2.7-3.3,5.2-3.3,5.2,0,0,.5,0,.5,0,.4-.6,1.5-2.3,3.3-5.2-.2,0-.3,0-.5,0Z"/>
    <path class="st18" d="M35.8,9.7c-1-.2-24.5,36.3-24.5,36.3,0,0,22.2,1.3,30.9,1.1,24.7-.4-.7-30.3-6.4-37.4,0,0,0,0,0,0Z"/>
  </g>
</svg>