<?xml version="1.0" encoding="UTF-8"?>
<svg id="_图层_1" xmlns="http://www.w3.org/2000/svg" version="1.1" viewBox="0 0 64 64" width="32" height="32">
  <!-- Generator: Adobe Illustrator 29.0.1, SVG Export Plug-In . SVG Version: 2.1.0 Build 192)  -->
  <defs>
    <style>
      .st0 {
        fill: #d1dbe0;
      }

      .st1 {
        fill: #6f8a94;
      }

      .st2 {
        fill: #21d789;
      }

      .st3, .st4, .st5 {
        stroke: #fff;
      }

      .st3, .st4, .st5, .st6, .st7, .st8 {
        fill: none;
        stroke-linecap: round;
      }

      .st3, .st4, .st6, .st8 {
        stroke-width: 4px;
      }

      .st9 {
        fill: #f7c73c;
      }

      .st4, .st8 {
        stroke-linejoin: round;
      }

      .st10, .st11, .st12, .st13 {
        display: none;
      }

      .st10, .st14, .st15, .st6, .st7, .st16, .st13, .st8 {
        isolation: isolate;
      }

      .st10, .st15, .st6, .st7, .st16, .st13, .st8 {
        opacity: .2;
      }

      .st11 {
        fill: #00b2f7;
      }

      .st5, .st7 {
        stroke-linejoin: bevel;
        stroke-width: 4px;
      }

      .st17 {
        fill: #3f3f3f;
      }

      .st18 {
        fill: #2086e7;
      }

      .st19 {
        fill: #9daeb5;
      }

      .st20, .st14, .st16, .st13 {
        fill: #fff;
      }

      .st21 {
        fill: #44ad4d;
      }

      .st22 {
        fill: #cf4f8c;
      }

      .st23 {
        fill: #ffab32;
      }

      .st24 {
        fill: #6655e4;
      }

      .st14 {
        opacity: .5;
      }

      .st25 {
        fill: #15acbe;
      }

      .st6, .st7, .st8 {
        stroke: #000;
      }

      .st26 {
        fill: #df391e;
      }

      .st27 {
        fill: #255f8a;
      }
    </style>
  </defs>
  <path class="st20" d="M50.4,64H13.8c-7.6,0-13.8-6.2-13.8-13.7V13.7C0,6.2,6.2,0,13.7,0h36.5c7.5,0,13.7,6.2,13.7,13.7v36.6c0,7.5-6.2,13.7-13.7,13.7h.1Z"/>
  <g class="st12">
    <path class="st10" d="M3.2,64.9c-1.8,0-3.2-1.4-3.2-3.2v-2.3c0,1.8,1.4,3.2,3.2,3.2h57.6c1.8,0,3.2-1.4,3.2-3.2v2.3c0,1.8-1.4,3.2-3.2,3.2H3.2Z"/>
    <path class="st2" d="M32,0H14.2C6.4,0,0,6.4,0,14.2v17.7h32V0Z"/>
    <path class="st22" d="M32,0h17.7c7.9,0,14.3,6.4,14.3,14.3v17.6h-32V0Z"/>
    <path class="st18" d="M32,63.8H14.1c-7.8,0-14.1-6.3-14.1-14.1v-17.7h32v31.9Z"/>
    <path class="st24" d="M32,63.8h17.9c7.8,0,14.1-6.3,14.1-14.1v-17.8h-32v31.9Z"/>
    <path class="st13" d="M3.2,0C1.4,0,0,1.4,0,3.2v1.1C0,2.6,1.4,1.1,3.2,1.1h57.6c1.8,0,3.2,1.4,3.2,3.2v-1.1c0-1.8-1.4-3.2-3.2-3.2H3.2Z"/>
    <rect class="st17" x="9.1" y="9.1" width="45.7" height="45.6"/>
    <path class="st6" d="M16,49h18.3"/>
    <path class="st3" d="M16,47.8h18.3"/>
    <path class="st7" d="M16,35.3s9.2.8,9.1-9.1c-.1-9.9-9.1-9.1-9.1-9.1M16,35.3v-18.2"/>
    <path class="st5" d="M16,34.2s9.2.8,9.1-9.1c-.1-9.9-9.1-9.1-9.1-9.1M16,34.2V15.9"/>
    <path class="st7" d="M41.1,28.5h4.6M43.4,28.5s1.1,6.8-4.6,6.8-4.6-4.6-4.6-9.1,0-9.1,4.6-9.1,4.6,2.3,4.6,2.3"/>
    <path class="st5" d="M41.1,27.3h4.6M43.4,27.3s1.1,6.8-4.6,6.8-4.6-4.6-4.6-9.1,0-9.1,4.6-9.1,4.6,2.3,4.6,2.3"/>
  </g>
  <g class="st12">
    <path class="st15" d="M31,32c-13.5,0-24.4,5.1-24.4,11.3h0c0,6.2,10.9,11.3,24.4,11.3h0c13.5,0,24.4-5.1,24.4-11.3s-10.9-11.3-24.4-11.3h0Z"/>
    <path class="st1" d="M31,31.2c-13.5,0-24.4,5.1-24.4,11.3h0c0,6.2,10.9,11.3,24.4,11.3h0c13.5,0,24.4-5.1,24.4-11.3s-10.9-11.3-24.4-11.3Z"/>
    <path class="st15" d="M31,20.7c-13.5,0-24.4,5.1-24.4,11.3h0c0,6.2,10.9,11.3,24.4,11.3h0c13.5,0,24.4-5.1,24.4-11.3s-10.9-11.3-24.4-11.3Z"/>
    <path class="st19" d="M31,19.9c-13.5,0-24.4,5.1-24.4,11.3h0c0,6.2,10.9,11.3,24.4,11.3h0c13.5,0,24.4-5.1,24.4-11.3s-10.9-11.3-24.4-11.3Z"/>
    <path class="st15" d="M31,9.4c-13.5,0-24.4,5.1-24.4,11.3h0c0,6.2,10.9,11.3,24.4,11.3h0c13.5,0,24.4-5.1,24.4-11.3s-10.9-11.3-24.4-11.3Z"/>
    <path class="st0" d="M31,8.6c-13.5,0-24.4,5.1-24.4,11.3h0c0,6.2,10.9,11.3,24.4,11.3h0c13.5,0,24.4-5.1,24.4-11.3s-10.9-11.3-24.4-11.3Z"/>
    <path class="st16" d="M31,8.6c-13.5,0-24.4,5.1-24.4,11.3,0,.1,0,.2,0,.3.6-6,11.3-10.8,24.4-10.8,13.2,0,23.9,4.8,24.4,10.9,0-.1,0-.3,0-.4,0-6.2-10.9-11.3-24.4-11.3Z"/>
    <path class="st21" d="M33.5,29.6h22.8c1.4,0,2.5,1.1,2.5,2.3v21.1c0,1.3-1.1,2.3-2.5,2.3h-22.8c-1.4,0-2.5-1.1-2.5-2.3v-21.1c0-1.3,1.1-2.3,2.5-2.3Z"/>
    <rect class="st20" x="33.6" y="33.6" width="8.7" height="6.5"/>
    <rect class="st14" x="37.1" y="37.8" width="1.7" height="8.2"/>
    <rect class="st14" x="41.1" y="36" width="8.9" height="1.6"/>
    <rect class="st20" x="33.6" y="44.1" width="8.7" height="6.5"/>
    <rect class="st20" x="47.5" y="33.6" width="8.7" height="6.5"/>
  </g>
  <g class="st12">
    <path class="st10" d="M3.2,65c-1.8,0-3.2-1.4-3.2-3.2v-2.3c0,1.8,1.4,3.2,3.2,3.2h57.6c1.8,0,3.2-1.4,3.2-3.2v2.3c0,1.8-1.4,3.2-3.2,3.2H3.2Z"/>
    <path class="st9" d="M32,0H14.1C6.3,0,0,6.3,0,14.1v17.9h32V0Z"/>
    <path class="st2" d="M32,0h17.9c7.8,0,14.1,6.3,14.1,14.1v17.8h-32V0Z"/>
    <path class="st18" d="M32,63.9H13.4c-7.4,0-13.4-6-13.4-13.4v-18.5h32v31.9Z"/>
    <path class="st25" d="M32,63.9h18.3c7.6,0,13.7-6.2,13.7-13.7v-18.2h-32v31.9Z"/>
    <path class="st13" d="M3.2,0C1.4,0,0,1.4,0,3.2v1.1C0,2.6,1.4,1.1,3.2,1.1h57.6c1.8,0,3.2,1.4,3.2,3.2v-1.1c0-1.8-1.4-3.2-3.2-3.2H3.2Z"/>
    <rect class="st17" x="9.1" y="9.1" width="45.7" height="45.6"/>
    <path class="st6" d="M16,49h18.3"/>
    <path class="st3" d="M16,47.9h18.3"/>
    <path class="st7" d="M16,35.4s9.2.8,9.1-9.1c-.1-9.9-9.1-9.1-9.1-9.1M16,35.4v-18.2"/>
    <path class="st5" d="M16,34.2s9.2.8,9.1-9.1c-.1-9.9-9.1-9.1-9.1-9.1M16,34.2V16"/>
    <path class="st8" d="M34.3,33.1s1.2,2.3,4.6,2.3c3.4,0,4.6-2.3,4.6-4.6,0-9.6-9.1.5-9.1-9.1,0-2.3,1.1-4.6,4.5-4.6s4.6,2.3,4.6,2.3"/>
    <path class="st4" d="M34.3,31.9s1.2,2.3,4.6,2.3c3.4,0,4.6-2.3,4.6-4.6,0-9.6-9.1.5-9.1-9.1,0-2.3,1.1-4.6,4.5-4.6s4.6,2.3,4.6,2.3"/>
  </g>
  <g class="st12">
    <path class="st10" d="M12.8,1.1h38.4c7.1,0,12.8,5.7,12.8,12.8v38.4c0,7.1-5.7,12.8-12.8,12.8H12.8c-7.1,0-12.8-5.7-12.8-12.8V13.9C0,6.9,5.7,1.1,12.8,1.1Z"/>
    <path class="st11" d="M12.8,0h38.4c7.1,0,12.8,5.7,12.8,12.8v38.4c0,7.1-5.7,12.8-12.8,12.8H12.8c-7.1,0-12.8-5.7-12.8-12.8V12.8C0,5.7,5.7,0,12.8,0Z"/>
    <path class="st15" d="M24,11.4c-5.7,0-10.3,1.5-10.3,3.4s4.6,3.4,10.3,3.4,10.3-1.5,10.3-3.4-4.6-3.4-10.3-3.4ZM12.6,14.6v8c.1,3.6,7.4,4.6,11.4,4.9.2,0,.4,0,.5,0,.5-.7,1.3-1.1,2.2-1.1h4.3c2.4-.7,4.4-1.9,4.4-3.7v-8c-.1,3.6-7.4,4.6-11.4,4.9-4-.3-11.3-1.3-11.4-4.9ZM12.6,23.7v8c.1,3.6,7.4,4.6,11.4,4.9v-7.6c0-.1,0-.3,0-.4,0,0,0,0,0,0-4-.3-11.3-1.3-11.4-4.9ZM26.7,27.4c-.9,0-1.6.7-1.6,1.6v22c0,.9.7,1.6,1.6,1.6h22c.9,0,1.6-.7,1.6-1.6v-22c0-.9-.7-1.6-1.6-1.6h-22ZM12.6,32.9v8c.1,3.6,7.4,4.6,11.4,4.9v-8c-4-.3-11.3-1.3-11.4-4.9ZM28.6,34.3h5.7v5.7h-5.7v-5.7ZM37.7,34.3h9.1v5.7h-9.1v-5.7ZM28.6,43.4h5.7v5.7h-5.7v-5.7ZM37.7,43.4h9.1v5.7h-9.1v-5.7Z"/>
    <path class="st20" d="M26.7,26.3c-.9,0-1.6.7-1.6,1.6v22c0,.9.7,1.6,1.6,1.6h22c.9,0,1.6-.7,1.6-1.6v-22c0-.9-.7-1.6-1.6-1.6h-22ZM28.6,33.2h5.7v5.7h-5.7v-5.7ZM37.7,33.2h9.1v5.7h-9.1v-5.7ZM28.6,42.3h5.7v5.7h-5.7v-5.7ZM37.7,42.3h9.1v5.7h-9.1v-5.7Z"/>
    <path class="st20" d="M24,10.3c-5.7,0-10.3,1.5-10.3,3.4s4.6,3.4,10.3,3.4,10.3-1.5,10.3-3.4-4.6-3.4-10.3-3.4ZM12.6,13.4v8c.1,3.6,7.4,4.6,11.4,4.9.2,0,.4,0,.5,0,.5-.7,1.3-1.1,2.2-1.1h4.3c2.4-.7,4.4-1.9,4.4-3.7v-8c-.1,3.6-7.4,4.6-11.4,4.9-4-.3-11.3-1.3-11.4-4.9ZM12.6,22.6v8c.1,3.6,7.4,4.6,11.4,4.9v-7.6c0-.1,0-.3,0-.4,0,0,0,0,0,0-4-.3-11.3-1.3-11.4-4.9ZM12.6,31.7v8c.1,3.6,7.4,4.6,11.4,4.9v-8c-4-.3-11.3-1.3-11.4-4.9Z"/>
    <path class="st13" d="M12.8,0C5.7,0,0,5.7,0,12.8v1.1C0,6.9,5.7,1.1,12.8,1.1h38.4c7.1,0,12.8,5.7,12.8,12.8v-1.1c0-7.1-5.7-12.8-12.8-12.8H12.8Z"/>
  </g>
  <g>
    <ellipse class="st15" cx="32" cy="32.9" rx="24.7" ry="23.9"/>
    <path class="st23" d="M32.3,9.6L15.8,50.1c4.3,3.7,10,5.9,16.2,5.9s12.2-2.4,16.6-6.2L32.3,9.6Z"/>
    <path class="st27" d="M30.7,8.2c-13.1.7-23.3,11.2-23.3,23.9,0,6.4,2.7,12.6,7.5,17.1L30.7,8.2Z"/>
    <path class="st26" d="M33.3,8.2l15.9,41c4.8-4.5,7.5-10.7,7.5-17.1,0-12.7-10.3-23.2-23.3-23.8Z"/>
    <path class="st16" d="M32,8.2c-13.6,0-24.7,10.7-24.7,23.9,0,.2,0,.3,0,.5.2-13.1,11.2-23.6,24.7-23.6,13.4,0,24.4,10.4,24.7,23.4,0-.1,0-.2,0-.4,0-13.2-11-23.9-24.7-23.9Z"/>
    <path class="st15" d="M32,9c-.9,0-1.8,0-2.7.2-.1.4-7.8,23.2-15.5,39.9,1.1,1.2,2.3,2.2,3.7,3.2l5.7-11.6h18.5l5.5,11.2c1.3-1,2.5-2.1,3.6-3.3-7.8-16.7-15.9-38.9-16-39.3-.9,0-1.8-.2-2.7-.2ZM32,15.8l7.1,19.6h-14.1l7.1-19.6Z"/>
    <path class="st20" d="M32,8.2c-.9,0-1.8,0-2.7.2-.1.4-7.8,23.2-15.5,39.9,1.1,1.2,2.3,2.2,3.7,3.2l5.7-11.6h18.5l5.5,11.2c1.3-1,2.5-2.1,3.6-3.3-7.8-16.7-15.9-38.9-16-39.3-.9,0-1.8-.2-2.7-.2ZM32,15l7.1,19.6h-14.1l7.1-19.6Z"/>
  </g>
</svg>