<?xml version="1.0" encoding="UTF-8"?>
<svg id="_图层_1" xmlns="http://www.w3.org/2000/svg" version="1.1" viewBox="0 0 64 64" width="32" height="32">
  <!-- Generator: Adobe Illustrator 29.0.1, SVG Export Plug-In . SVG Version: 2.1.0 Build 192)  -->
  <defs>
    <style>
      .st0, .st1 {
        fill: #4f4f4f;
      }

      .st2, .st3, .st4, .st5, .st6, .st1 {
        display: none;
      }

      .st2, .st7 {
        fill: #3f3f3f;
      }

      .st3 {
        fill: #a52727;
      }

      .st8 {
        fill: #f14c21;
      }

      .st4, .st5, .st9, .st10, .st11 {
        isolation: isolate;
      }

      .st4, .st9, .st10 {
        opacity: .2;
      }

      .st5, .st12, .st10, .st11 {
        fill: #fff;
      }

      .st5, .st11 {
        opacity: .1;
      }

      .st13 {
        fill: #51a7de;
      }

      .st14 {
        fill: #e13c3c;
      }
    </style>
  </defs>
  <path class="st0" d="M50.4,64H13.8c-7.6,0-13.8-6.2-13.8-13.7V13.7C0,6.2,6.2,0,13.7,0h36.5c7.5,0,13.7,6.2,13.7,13.7v36.6c0,7.5-6.2,13.7-13.7,13.7h.1Z"/>
  <g class="st6">
    <ellipse class="st4" cx="32" cy="32.5" rx="32" ry="31.2"/>
    <ellipse class="st2" cx="32" cy="31.4" rx="32" ry="31.2"/>
    <path class="st5" d="M32,.2C14.3.2,0,14.2,0,31.4c0,.2,0,.4,0,.5C.3,14.9,14.6,1.3,32,1.3c17.4,0,31.6,13.7,32,30.7,0-.2,0-.4,0-.5C64,14.2,49.7.2,32,.2Z"/>
    <path class="st9" d="M14.7,6.3c-.9.6-1.7,1.2-2.6,1.8l6.9,20.2L.8,39.3c.2.7.3,1.4.5,2.1h22.3c0,.1,6.2,22.3,6.2,22.3.7,0,1.4,0,2.1.1.5,0,1,0,1.5,0l6.6-22.3h22.5c.3-.8.5-1.7.7-2.5l-18.1-10.9,7.1-19.6c0,0-.1,0-.2-.1-.8-.6-1.7-1.3-2.5-1.8l-17.3,12.3L14.7,6.3ZM16.7,11.6l12.8,9.2-7.8,5.6-5-14.7ZM47.7,11.7l-5.2,14.4-7.5-5.4,12.7-9.1ZM32.3,22.7l9.1,6.5-3.5,9.2h-11.9l-3.2-8.9,9.5-6.7ZM44.1,31.1l12.9,7.2h-15.7l2.8-7.2ZM20.1,31.3l2.5,7h-3.4s-11.5,0-11.5,0l12.4-7ZM27,41.5h9.6l-5,17.6v-.4c-.1,0-4.7-17.2-4.7-17.2Z"/>
    <path class="st8" d="M14.7,5.1c-.9.6-1.7,1.2-2.6,1.8l6.9,20.2L.8,38.1c.2.7.3,1.4.5,2.1h22.3c0,.1,6.2,22.3,6.2,22.3.7,0,1.4,0,2.1.1.5,0,1,0,1.5,0l6.6-22.3h22.5c.3-.8.5-1.7.7-2.5l-18.1-10.9,7.1-19.6c0,0-.1,0-.2-.1-.8-.6-1.7-1.3-2.5-1.8l-17.3,12.3L14.7,5.1ZM16.7,10.5l12.8,9.2-7.8,5.6-5-14.7ZM47.7,10.5l-5.2,14.4-7.5-5.4,12.7-9.1ZM32.3,21.5l9.1,6.5-3.5,9.2h-11.9l-3.2-8.9,9.5-6.7ZM44.1,30l12.9,7.2h-15.7l2.8-7.2ZM20.1,30.2l2.5,7h-3.4s-11.5,0-11.5,0l12.4-7ZM27,40.3h9.6l-5,17.6v-.4c-.1,0-4.7-17.2-4.7-17.2Z"/>
    <path class="st10" d="M14.7,5.1c-.9.6-1.7,1.2-2.6,1.8l.3.9c.7-.6,1.5-1.1,2.2-1.6l17.6,12.5,17.3-12.3c.8.5,1.6,1.1,2.4,1.7l.3-.9c0,0-.1,0-.2-.1-.8-.6-1.7-1.3-2.5-1.8l-17.3,12.3L14.7,5.1ZM16.7,11.6l5,14.7,7.8-5.6-.8-.6-7,5-4.5-13.3-.5-.4ZM47.7,11.7l-.5.4-4.7,12.9-6.7-4.8-.8.6,7.5,5.4,5.2-14.4ZM45.5,27.1l-.3.9,17.8,10.8c0-.3.2-.6.3-1l-17.8-10.7ZM18.7,27.3L.8,38.1c0,.3.2.6.2,1l18-10.9-.3-.9ZM41,28.9l-3.2,8.3h-11.9l-2.9-8-.3.2,3.2,8.9h11.9l3.5-9.2-.3-.2ZM9.6,37.2l-2,1.1h11.5s0,0,0,0h3.4l-.4-1.1h-3s-9.6,0-9.6,0ZM41.7,37.2l-.4,1.1h15.7l-2-1.1h-13.3ZM27,41.5l4.5,17.2v.4c.1,0,5.1-17.6,5.1-17.6h-.3l-4.7,16.5v-.4c-.1,0-4.4-16.1-4.4-16.1h-.3Z"/>
  </g>
  <g class="st6">
    <path class="st4" d="M3.2,1.1h57.6c1.8,0,3.2,1.4,3.2,3.2v57.7c0,1.8-1.4,3.2-3.2,3.2H3.2c-1.8,0-3.2-1.4-3.2-3.2V4.4C0,2.6,1.4,1.1,3.2,1.1Z"/>
    <path class="st3" d="M3.2,0h57.6c1.8,0,3.2,1.4,3.2,3.2v57.7c0,1.8-1.4,3.2-3.2,3.2H3.2c-1.8,0-3.2-1.4-3.2-3.2V3.2C0,1.4,1.4,0,3.2,0Z"/>
    <path class="st9" d="M61,16h-2.4c-1.8,0-3.8,0-3.8,0l-1.6,4.6s-1.8-4.7-2.2-4.6h-.3c-.2,0-.9,0-2,0h-1.9v16.9h-.2c-.1.2-.2.2-.1.3l4.8,3.5v-3.4c0-3.1,0-3.4,0-3.2l1.8,4.7,1.6-4.9v4.5s0,4.5,0,4.5l4.5,3.2v-12.4s0-12,0-12l1.6-1.7ZM20.9,16l-.7.5-.7.5v15.8s7.4,5.5,7.4,5.5l4-3v-9.2s0-9.2,0-9.2l-.7-.5-.7-.5h-8.5ZM34.6,16l-.7.5-.7.5v9.2s0,9.2,0,9.2l4,3,7.4-5.5v-7.9s0-7.9,0-7.9l-.7-.5-.7-.5h-8.5ZM4.1,16l1.6,1.6v11.5c0,6.3,0,11.9,0,12.5h0c0,.7,0,1.6,0,1.6,0,0,11.7-9.5,11.7-9.5,0,0,0,0-.2-.2h-.2v-16.5l-.7-.5-.7-.5h-5.8c-3.8,0-6,0-5.9,0h0ZM26.6,19.5c.2,0,.2,0,.5.1h.3c0,.1,0,7.1,0,7.1,0,3.2,0,7.2,0,7.2l-4.5-3.4v-10.8s.3-.1.3-.1h.3c0-.1,1.5-.1,1.5-.1.8,0,1.6,0,1.7,0h0ZM37.4,19.5c.1,0,.9,0,1.7,0h1.8c0,.1.3.3.3.3v5.9s0,4.9,0,4.9l-4.5,3.4s0-4,0-7.2v-7s.3-.1.3-.1c.3-.1.3-.1.5-.1h0ZM13.2,19.5h.3c0,.1.3.2.3.2v12.1l-4.6,3.5c0,0,0-5.9,0-10.6v-5.3s2.3,0,2.3,0h1.8ZM18.3,37.8l-9.1,8,1.1,1.1h2.3v2.3l1.1,1.1h10.3l2.3,1.1h3.4l1.1,3.4h2.3l1.1-3.4h3.4l2.3-1.1h10.3l1.1-1.1v-2.3h2.3l1.1-1.1-9.1-8h-2.3l6.9,5.7h-6.9l-3.4-1.1h-4.6l-3.4-3.4-3.4,3.4h-4.6l-3.4,1.1h-6.9l6.9-5.7h-2.3Z"/>
    <path class="st12" d="M61,14.9h-2.4c-1.8,0-3.8,0-3.8,0l-1.6,4.6s-1.8-4.7-2.2-4.6h-.3c-.2,0-.9,0-2,0h-1.9v16.9h-.2c-.1.2-.2.2-.1.3l4.8,3.5v-3.4c0-3.1,0-3.4,0-3.2l1.8,4.7,1.6-4.9v4.5s0,4.5,0,4.5l4.5,3.2v-12.4s0-12,0-12l1.6-1.7ZM20.9,14.9l-.7.5-.7.5v15.8s7.4,5.5,7.4,5.5l4-3v-9.2s0-9.2,0-9.2l-.7-.5-.7-.5h-8.5ZM34.6,14.9l-.7.5-.7.5v9.2s0,9.2,0,9.2l4,3,7.4-5.5v-7.9s0-7.9,0-7.9l-.7-.5-.7-.5h-8.5ZM4.1,14.9l1.6,1.6v11.5c0,6.3,0,11.9,0,12.5h0c0,.7,0,1.6,0,1.6,0,0,11.7-9.5,11.7-9.5,0,0,0,0-.2-.2h-.2V16l-.7-.5-.7-.5h-5.8c-3.8,0-6,0-5.9,0ZM26.6,18.3c.2,0,.2,0,.5.1h.3c0,.1,0,7.1,0,7.1,0,3.2,0,7.2,0,7.2l-4.5-3.4v-10.8s.3-.1.3-.1h.3c0-.1,1.5-.1,1.5-.1.8,0,1.6,0,1.7,0ZM37.4,18.3c.1,0,.9,0,1.7,0h1.8c0,.1.3.3.3.3v5.9s0,4.9,0,4.9l-4.5,3.4s0-4,0-7.2v-7s.3-.1.3-.1c.3-.1.3-.1.5-.1ZM13.2,18.4h.3c0,.1.3.2.3.2v12.1l-4.6,3.5c0,0,0-5.9,0-10.6v-5.3s2.3,0,2.3,0c0,0,1.8,0,1.8,0ZM18.3,36.6l-9.1,8,1.1,1.1h2.3v2.3l1.1,1.1h10.3l2.3,1.1h3.4l1.1,3.4h2.3l1.1-3.4h3.4l2.3-1.1h10.3l1.1-1.1v-2.3h2.3l1.1-1.1-9.1-8h-2.3l6.9,5.7h-6.9l-3.4-1.1h-4.6l-3.4-3.4-3.4,3.4h-4.6l-3.4,1.1h-6.9l6.9-5.7h-2.3Z"/>
    <path class="st5" d="M3.2,0C1.4,0,0,1.4,0,3.2v1.1C0,2.6,1.4,1.1,3.2,1.1h57.6c1.8,0,3.2,1.4,3.2,3.2v-1.1c0-1.8-1.4-3.2-3.2-3.2H3.2Z"/>
  </g>
  <g class="st6">
    <path class="st7" d="M9.7,15.6h24.8l13.2,8.9v22H9.7V15.6Z"/>
    <path class="st9" d="M9.7,16.3v10.8h29.4c4.2,0,7.4,2.5,7.4,6.2s-3.1,6.1-7.4,6.2h-17.1v-9.3h-12.2v20.1h29.4c10.8,0,19.6-7.6,19.6-17s-8.8-17-19.6-17H9.7Z"/>
    <path class="st14" d="M9.7,15.6v10.8h29.4c4.2,0,7.4,2.5,7.4,6.2s-3.1,6.1-7.4,6.2h-17.1v-9.3h-12.2v20.1h29.4c10.8,0,19.6-7.6,19.6-17s-8.8-17-19.6-17H9.7Z"/>
    <path class="st11" d="M9.7,15.6v.8h29.4c10.7,0,19.4,7.4,19.6,16.7,0-.1,0-.3,0-.4,0-9.4-8.8-17-19.6-17H9.7ZM9.7,29.5v.8h12.2v-.8h-12.2ZM46.4,33c-.2,3.4-3.3,5.8-7.3,5.8h-17.1v.8h17.1c4.2,0,7.4-2.5,7.4-6.2s0-.3,0-.4Z"/>
  </g>
  <g>
    <path class="st4" d="M3.2,1.1h57.6c1.8,0,3.2,1.4,3.2,3.2v57.6c0,1.8-1.4,3.2-3.2,3.2H3.2c-1.8,0-3.2-1.4-3.2-3.2V4.3C0,2.6,1.4,1.1,3.2,1.1Z"/>
    <rect class="st1" x="0" width="32" height="32" rx="3.2" ry="3.2"/>
    <path class="st9" d="M31.8,14.9c-.3,0-.5,0-.9.3-.5.2-1.1.6-1.4.9-.2.3-.7.9-1,1.2-.8,1-1,1.5-.8,1.9.3.6.3,3-.1,3.1-.2,0-.5-.4-.8-.6-.4-.2-.7-.2-1.4,0-.7.2-1,.2-1.4,0-.4-.2-.6-.2-1.4.2-.5.3-1.4.3-1.9.9-.9,1-1.1.1-1.8,0h-.8c0,0-.8,1.6-.8,1.6-.5,1.1-1,2.4-1.4,2.6-.3.2-.8.7-1,1.2-.5.9-.5,1-.2,1.8.2.6.3,1.1.2,1.7-.1.8,0,1,.3,1.4.3.3.3.6.7.7.6.1.7.2.7.7,0,1.1-.4,4.3-.6,5-.2.8.7,2.6,1.8,3.7,1.5,1.5,1.1,2-1,1.3-.7-.2-1.1-.4-1.4-.4s-1-.2-1.6-.5c-2.1-1-3-.3-3,2.2,0,.7-.1,1.5-.3,1.9-.4,1-.4,1.8.1,2.7.4.8.4.8,1.6.8q1.2,0,1.2-.8c0-1,.4-1.8.9-1.9,4.8,1.7,6.7,2.7,10,2.6,2,0,4.1-.8,2.9-3.8-.2-.6-.6-1.3-1-2.2-.3-.6-.5-1.8-.6-2.8,0-.6,0-.6,1.4-1,.8-.2,1.9-.7,2.9-1.2,2.2-1,2.3-1,2.2,1.6,0,4-.2,5.9-.5,7.5-.2,1.7.8,1.8.8,1.8,2.4,0,8,0,8.1-.2.3-.4-.6-1.9-1.9-2.1-1.9-.2-1.3-.9-1-3.4.2-1,.3-2.3.2-5.5,0-2.3-.1-4.1-.2-4.4-.1-.6,0-.7.7-1.5.4-.5,1.1-1.3,1.4-1.9.5-.9.7-1.2,1.5-1.5.9-.4.9-.5.9-1.2s0-.8.7-1.2c.7-.4.7-.5.7-1.7,0-1.2.7-1.3,1.3-1.3.2,0,.4,0,.6,0v4.1c0,0,0,.2.2.2h1.2c0,0,.2,0,.2-.2v-3.9c.3-.2.8-.3,1.7-.3.6,0,1.1-.3,1.4-.4h4.7c0,0,.2,0,.2-.2v-.5c0,0,0-.2-.2-.2h-11.9s0,0,0,0h-.2s-.4-.6-.4-.6c-.2-.3-.3-.1-.3-.4h1.3c0,0,.2,0,.2-.2v-1.1c0,0,0-.2-.2-.2h-5.4c0,0-.2,0-.2.2v1.1c0,0,0,.2.2.2h1.4s0,0,0,0c1.7,0-.8.6-1.1.6-1,0-1.7,0-1.9.2-.3.3-1.5.3-1.7,0,0-.1,0-.3,0-.4.1-.1.3-.5.3-.8,0-.3.4-1.5.8-2,.4-.5.7-1.2.7-1.4,0-.7-1.1-2.6-2-3.2-.4-.3-1.2-.7-1.8-.9-.5-.1-.7-.2-1-.2h0ZM35.3,25c.1,0,.2,0,.5.2.7.4.6.8,0,1.2-.7.4-.9.4-1.2,0-.4-.4-.3-.6.3-1.1.3-.2.4-.4.5-.3h0ZM39.1,26.2c.8,0,1.1.3.9.9-.1.4-.8.4-1.5,0-.8-.4-.6-.8.4-.9,0,0,.1,0,.2,0h0ZM38.4,27.7c.3,0,.9.3.9.6,0,.5-1,1.6-1.7,1.8-1.2.5-1.3,0-.3-1.2.5-.6.9-1.1.9-1.1,0,0,0,0,.2,0h0ZM32.5,32.6c.2,0,.5.2.8.5.4.4.4.6.3.8-.2.4-.5.4-1.4.3-.8-.1-1-.5-.4-1.2.3-.3.5-.5.8-.5Z"/>
    <path class="st13" d="M31.8,13.7c-.3,0-.5,0-.9.3-.5.2-1.1.6-1.4.9-.2.3-.7.9-1,1.2-.8,1-1,1.5-.8,1.9.3.6.3,3-.1,3.1-.2,0-.5-.4-.8-.6-.4-.2-.7-.2-1.4,0-.7.2-1,.2-1.4,0-.4-.2-.6-.2-1.4.2-.5.3-1.4.3-1.9.9-.9,1-1.1.1-1.8,0h-.8c0,0-.8,1.6-.8,1.6-.5,1.1-1,2.4-1.4,2.6-.3.2-.8.7-1,1.2-.5.9-.5,1-.2,1.8.2.6.3,1.1.2,1.7-.1.8,0,1,.3,1.4.3.3.3.6.7.7.6.1.7.2.7.7,0,1.1-.4,4.3-.6,5-.2.8.7,2.6,1.8,3.7,1.5,1.5,1.1,2-1,1.3-.7-.2-1.1-.4-1.4-.4s-1-.2-1.6-.5c-2.1-1-3-.3-3,2.2,0,.7-.1,1.5-.3,1.9-.4,1-.4,1.8.1,2.7.4.8.4.8,1.6.8q1.2,0,1.2-.8c0-1,.4-1.8.9-1.9,4.8,1.7,6.7,2.7,10,2.6,2,0,4.1-.8,2.9-3.8-.2-.6-.6-1.3-1-2.2-.3-.6-.5-1.8-.6-2.8,0-.6,0-.6,1.4-1,.8-.2,1.9-.7,2.9-1.2,2.2-1,2.3-1,2.2,1.6,0,4-.2,5.9-.5,7.5-.2,1.7.8,1.8.8,1.8,2.4,0,8,0,8.1-.2.3-.4-.6-1.9-1.9-2.1-1.9-.2-1.3-.9-1-3.4.2-1,.3-2.3.2-5.5,0-2.3-.1-4.1-.2-4.4-.1-.6,0-.7.7-1.5.4-.5,1.1-1.3,1.4-1.9.5-.9.7-1.2,1.5-1.5.9-.4.9-.5.9-1.2s0-.8.7-1.2c.7-.4.7-.5.7-1.7,0-1.2.7-1.3,1.3-1.3.2,0,.4,0,.6,0v4.1c0,0,0,.2.2.2h1.2c0,0,.2,0,.2-.2v-3.9c.3-.2.8-.3,1.7-.3.6,0,1.1-.3,1.4-.4h4.7c0,0,.2,0,.2-.2v-.5c0,0,0-.2-.2-.2h-11.9s0,0,0,0h-.2s-.4-.6-.4-.6c-.2-.3-.3-.1-.3-.4h1.3c0,0,.2,0,.2-.2v-1.1c0,0,0-.2-.2-.2h-5.4c0,0-.2,0-.2.2v1.1c0,0,0,.2.2.2h1.4s0,0,0,0c1.7,0-.8.6-1.1.6-1,0-1.7,0-1.9.2-.3.3-1.5.3-1.7,0,0-.1,0-.3,0-.4.1-.1.3-.5.3-.8,0-.3.4-1.5.8-2,.4-.5.7-1.2.7-1.4,0-.7-1.1-2.6-2-3.2-.4-.3-1.2-.7-1.8-.9-.5-.1-.7-.2-1-.2h0ZM35.3,23.9c.1,0,.2,0,.5.2.7.4.6.8,0,1.2-.7.4-.9.4-1.2,0-.4-.4-.3-.6.3-1.1.3-.2.4-.4.5-.3h0ZM39.1,25c.8,0,1.1.3.9.9-.1.4-.8.4-1.5,0-.8-.4-.6-.8.4-.9,0,0,.1,0,.2,0h0ZM38.4,26.6c.3,0,.9.3.9.6,0,.5-1,1.6-1.7,1.8-1.2.5-1.3,0-.3-1.2.5-.6.9-1.1.9-1.1,0,0,0,0,.2,0h0ZM32.5,31.5c.2,0,.5.2.8.5.4.4.4.6.3.8-.2.4-.5.4-1.4.3-.8-.1-1-.5-.4-1.2.3-.3.5-.5.8-.5Z"/>
    <path class="st5" d="M3.2,0C1.4,0,0,1.4,0,3.2v1.1C0,2.6,1.4,1.1,3.2,1.1h57.6c1.8,0,3.2,1.4,3.2,3.2v-1.1c0-1.8-1.4-3.2-3.2-3.2H3.2Z"/>
    <path class="st10" d="M31.8,13.7c-.3,0-.5,0-.9.3-.5.2-1.1.6-1.4.9s-.7.9-1,1.2c-.8,1-1,1.5-.8,1.9,0,0,0,.2,0,.2.1-.3.4-.6.7-1,.3-.3.7-.9,1-1.2s.9-.7,1.4-.9c.4-.2.7-.2.9-.3.3,0,.5,0,1,.2.5.2,1.3.6,1.8.9.7.5,1.5,1.7,1.8,2.6,0-.2.2-.4.2-.5,0-.7-1.1-2.6-2-3.2-.4-.3-1.2-.7-1.8-.9-.5-.1-.7-.2-1-.2ZM27.9,20c0,.6-.1,1.1-.3,1.1-.2,0-.5-.4-.8-.6-.4-.2-.7-.2-1.4,0-.7.2-1,.2-1.4,0-.4-.2-.6-.2-1.4.2-.5.3-1.4.3-1.9.9-.9,1-1.1.1-1.8,0h-.8c0,0-.8,1.6-.8,1.6-.5,1.1-1,2.4-1.4,2.6-.3.2-.8.7-1,1.2-.4.8-.5,1-.2,1.6,0-.1.1-.3.2-.5.3-.5.7-1.1,1-1.2.3-.2.8-1.5,1.4-2.6l.8-1.7h.8c.7.1.9,1,1.8,0,.6-.6,1.4-.6,1.9-.9.8-.4,1-.5,1.4-.2.4.2.7.2,1.4,0,.7-.2,1-.2,1.4,0,.3.1.6.6.8.6.3,0,.4-1.3.3-2.3ZM37.8,20.5c0,0-.2,0-.2.2v1.1s0,0,0,0c0,0,0-.1.2-.1h5.4c0,0,.1,0,.2.1,0,0,0,0,0,0v-1.1c0,0,0-.2-.2-.2h-5.4ZM37.7,22.6c-.7,0-1.3,0-1.4.2-.2.2-.9.3-1.4.2,0,.2-.2.4-.2.5-.1.1-.1.3,0,.4,0,0,.2.1.3.2.2-.2.3-.3.4-.2.1,0,.2,0,.5.2,0,0,0,0,0,0,.2,0,.4,0,.5-.2.2-.2.8-.2,1.9-.2.3,0,2.8-.5,1.1-.6,0,0,0,0,0,0h-1.4c0,0-.2,0-.2-.2v-.3ZM43.4,23s0,0-.1,0h-1.3c0,.3.2.1.3.4l.4.6h6.1c.5,0,.9-.3,1.2-.4h4.7c0,0,.2,0,.2-.2v-.5c0,0,0-.2-.2-.2h-11.3ZM35.8,25.2s0,0,0,0c-.6.3-.8.3-1,.2-.4.4-.5.7-.1,1,.3.3.5.3,1.2,0,.7-.4.7-.8,0-1.2ZM39.1,26.2c0,0-.1,0-.2,0-.8,0-1.1.3-.8.6,0,0,.1-.2.1-.2,0,0,0,0,.2,0,.3,0,.9.3.9.6s0,0,0,.2c.3,0,.6,0,.7-.3.2-.6,0-.9-.9-.9h0ZM38.9,27.9c-.4.5-.9.9-1.3,1.1-.2,0-.3,0-.4.1-.8,1.1-.7,1.5.4,1,.7-.2,1.7-1.4,1.7-1.8s-.2-.3-.4-.4ZM14.9,30.9c0,.3,0,.5,0,.7,0-.2,0-.5,0-.7ZM31.8,33s0,0,0,0c-.6.6-.4,1,.4,1.2,1,.1,1.2,0,1.4-.3.2-.3.1-.4-.3-.8,0,0,0,0,0,0-.2,0-.5.1-1.1,0-.1,0-.2,0-.3,0ZM16.6,34.3c-.1,1.4-.4,3.7-.5,4.3,0,.2,0,.5,0,.8.2-.9.5-3.6.5-4.6,0-.2,0-.4,0-.5ZM37.6,35c-.1.2-.1.4,0,.7,0,.4.2,2.1.2,4.4,0-.4,0-.6,0-1.1,0-2-.1-3.4-.2-4ZM32.1,41.1c0,3.9-.2,5.8-.5,7.3,0,.4,0,.7,0,1,.3-1.5.4-3.5.5-7.3,0-.4,0-.7,0-1ZM25.7,42.2c0,.1,0,.2,0,.4,0,1,.3,2.1.6,2.8.4.9.7,1.7,1,2.2.1.4.2.7.3,1,.1-.5,0-1.2-.3-2.1-.2-.6-.6-1.3-1-2.2-.2-.5-.4-1.3-.5-2ZM12.5,42.2c-1.1-.1-1.7.7-1.7,2.6,0,.7-.1,1.5-.3,1.9-.3.6-.3,1.2-.2,1.8,0-.2.1-.4.2-.7.2-.4.3-1.3.3-1.9,0-2.5.9-3.2,3-2.2.6.3,1.3.5,1.6.5s.7.2,1.4.4c1.9.6,2.4.3,1.4-.9-.3,0-.8,0-1.4-.3-.7-.2-1.1-.4-1.4-.4s-1-.2-1.6-.5c-.5-.2-1-.4-1.3-.4ZM37.4,47.4c-.2,1.2-.1,1.6,1.3,1.7.7,0,1.2.5,1.6,1,.2,0,.3,0,.3,0,.3-.4-.6-1.9-1.9-2.1-.8,0-1.1-.2-1.3-.6Z"/>
  </g>
</svg>