<?xml version="1.0" encoding="UTF-8"?>
<svg id="_图层_1" xmlns="http://www.w3.org/2000/svg" version="1.1" viewBox="0 0 64 64" width="32" height="32">
  <!-- Generator: Adobe Illustrator 29.0.1, SVG Export Plug-In . SVG Version: 2.1.0 Build 192)  -->
  <defs>
    <style>
      .st0 {
        fill: #fecd38;
      }

      .st1 {
        fill: #4e4e4e;
      }

      .st2 {
        fill: #e97e10;
      }

      .st3, .st4 {
        fill: #fff;
      }

      .st5, .st4 {
        isolation: isolate;
        opacity: .2;
      }

      .st6 {
        fill: #c5e636;
      }

      .st7 {
        fill: #8bc34a;
      }
    </style>
  </defs>
  <path class="st7" d="M47.5,64.1H13.8c-7.6,0-13.8-6.3-13.8-13.8V13.7C0,6.2,6.2,0,13.7,0h36.6c7.5,0,13.7,6.2,13.7,13.7v36.6c0,7.5-6.2,13.7-13.7,13.7h-2.9.1Z"/>
  <g>
    <path class="st5" d="M13.8,10.7c-2.2,2.1-1.6,7-1.6,7l-3-4.6c-2-1-4.1,2.6-5.2,6.2C0,21.5,0,26.6,0,26.6v20.9s4,8.3,12,8.3c12,0,12-8.3,20-12.5,8,4.2,8,12.5,20,12.5s12-8.3,12-8.3v-20.9s0-5.1-3.9-7.3c-.9-3.6-3.2-7.3-5.3-6.2l-2.6,4.6s0-4.9-1.9-7c-4,0-10.9,11.8-18.3,11.8-7.4,0-14.2-11.8-18.2-11.8Z"/>
    <path class="st6" d="M13.8,9.5c-2.2,2.1-1.6,7-1.6,7l-3-4.6c-2-1-4.1,2.6-5.2,6.2C0,20.3,0,25.5,0,25.5v20.9s4,8.3,12,8.3c12,0,12-8.3,20-12.5,8,4.2,8,12.5,20,12.5s12-8.3,12-8.3v-20.9s0-5.1-3.9-7.3c-.9-3.6-3.2-7.3-5.3-6.2l-2.6,4.6s0-4.9-1.9-7c-4,0-10.9,11.8-18.3,11.8-7.4,0-14.2-11.8-18.2-11.8Z"/>
    <path class="st4" d="M13.8,9.5c-1.6,1.5-1.7,4.6-1.6,6.1,0-1.6.4-3.8,1.6-5,4,0,10.8,11.8,18.2,11.8,7.4,0,14.3-11.8,18.3-11.8,1.9,2.1,1.9,7,1.9,7l2.6-4.6c2-1,4.3,2.7,5.3,6.2,3.8,2.2,3.9,7.3,3.9,7.3v-1.1s0-5.1-3.9-7.3c-.9-3.6-3.2-7.3-5.3-6.2l-2.6,4.6s0-4.9-1.9-7c-4,0-10.9,11.8-18.3,11.8-7.4,0-14.2-11.8-18.2-11.8ZM8.4,11.8c-1.8,0-3.5,3.3-4.4,6.3C0,20.3,0,25.5,0,25.5v1.1s0-5.2,4-7.3c1.1-3.5,3.2-7.1,5.2-6.2l3,4.6s0-.5,0-1.2l-2.9-4.5c-.2-.1-.5-.2-.8-.2Z"/>
    <path class="st5" d="M14.8,23.9h0c5.7,0,10.3,4.6,10.3,10.3v5.7c0,5.7-4.6,10.3-10.3,10.3h0c-5.7,0-10.3-4.6-10.3-10.3v-5.7c0-5.7,4.6-10.3,10.3-10.3Z"/>
    <path class="st3" d="M14.8,22.8h0c5.7,0,10.3,4.6,10.3,10.3v5.7c0,5.7-4.6,10.3-10.3,10.3h0c-5.7,0-10.3-4.6-10.3-10.3v-5.7c0-5.7,4.6-10.3,10.3-10.3Z"/>
    <path class="st5" d="M49.1,23.9h0c5.7,0,10.3,4.6,10.3,10.3v5.7c0,5.7-4.6,10.3-10.3,10.3h0c-5.7,0-10.3-4.6-10.3-10.3v-5.7c0-5.7,4.6-10.3,10.3-10.3Z"/>
    <path class="st3" d="M49.1,22.8h0c5.7,0,10.3,4.6,10.3,10.3v5.7c0,5.7-4.6,10.3-10.3,10.3h0c-5.7,0-10.3-4.6-10.3-10.3v-5.7c0-5.7,4.6-10.3,10.3-10.3Z"/>
    <path class="st1" d="M17.1,29.6c-.8,0-1.6.2-2.4.5.8.5,1.2,1.4,1.2,2.3,0,1.6-1.3,2.9-2.9,2.9-.6,0-1.2-.2-1.7-.6,0,.2,0,.4,0,.6v3.4c0,3.2,2.5,5.7,5.7,5.7s5.7-2.5,5.7-5.7v-3.4c0-3.2-2.5-5.7-5.7-5.7Z"/>
    <path class="st1" d="M46.8,29.6c-.8,0-1.6.2-2.4.5.8.5,1.2,1.4,1.2,2.3,0,1.6-1.3,2.9-2.9,2.9-.6,0-1.2-.2-1.7-.6,0,.2,0,.4,0,.6v3.4c0,3.2,2.5,5.7,5.7,5.7s5.7-2.5,5.7-5.7v-3.4c0-3.2-2.5-5.7-5.7-5.7Z"/>
    <ellipse id="ellipse851" class="st5" cx="32" cy="46.8" rx="4.6" ry="4.6"/>
    <ellipse id="ellipse853" class="st2" cx="32" cy="45.6" rx="4.6" ry="4.6"/>
    <path class="st5" d="M24,46.8s3.4-4.6,8-4.6,8,4.6,8,4.6l-8,2.3"/>
    <path class="st0" d="M24,45.6s3.4-4.6,8-4.6,8,4.6,8,4.6l-8,2.3"/>
    <path class="st4" d="M32,41.1c-4.6,0-8,4.6-8,4.6l.8.2c1.3-1.3,3.9-3.7,7.2-3.7s5.9,2.3,7.2,3.7l.8-.2s-3.4-4.6-8-4.6Z"/>
  </g>
</svg>