<?xml version="1.0" encoding="UTF-8"?>
<svg id="_图层_1" xmlns="http://www.w3.org/2000/svg" version="1.1" viewBox="0 0 64 64" width="32" height="32">
  <!-- Generator: Adobe Illustrator 29.0.1, SVG Export Plug-In . SVG Version: 2.1.0 Build 192)  -->
  <defs>
    <style>
      .st0, .st1 {
        fill: #fff;
      }

      .st2 {
        fill: #4c3a91;
      }

      .st3 {
        opacity: .2;
      }

      .st3, .st1 {
        isolation: isolate;
      }

      .st4 {
        fill: #f7941e;
      }

      .st1 {
        opacity: .1;
      }
    </style>
  </defs>
  <path class="st0" d="M50.3,64H13.9C6.3,64,.2,57.8.2,50.3V13.8C.2,6.2,6.3,0,13.9,0h36.5c7.5,0,13.7,6.2,13.7,13.7v36.5c0,7.5-6.1,13.7-13.7,13.7h0Z"/>
  <g>
    <path class="st3" d="M56.3,27.9h1.3c.4,0,.7.3.7.6v8.7c0,.3-.3.6-.7.6h-1.3c-.4,0-.7-.3-.7-.6v-8.7c0-.3.3-.6.7-.6Z"/>
    <path class="st3" d="M45.6,27.9h1.3c.4,0,.7.3.7.6v8.7c0,.3-.3.6-.7.6h-1.3c-.4,0-.7-.3-.7-.6v-8.7c0-.3.3-.6.7-.6Z"/>
    <path class="st3" d="M29.4,7.9c-13.6,0-24.5,11.1-24.5,25s10.9,25,24.5,25,11.7-2.3,16-6c1.3-1.2-3.6-1.3-2.5-2.7l-8.6-16.2,11-17.5c-1.8-2.4-.4-2-2.9-3.7-3.8-2.4-8.2-3.8-13-3.8Z"/>
    <path class="st4" d="M29.4,7c-13.6,0-24.5,11.1-24.5,25s10.9,25,24.5,25,11.7-2.3,16-6c1.3-1.2-3.6-1.3-2.5-2.7l-8.6-16.2,11-17.5c-1.8-2.4-.4-2-2.9-3.7-3.8-2.4-8.2-3.8-13-3.8Z"/>
    <path class="st1" d="M29.4,7c-13.6,0-24.5,11.1-24.5,25s0,.3,0,.5c.2-13.6,11.1-24.5,24.5-24.5s9.3,1.4,13,3.8c2.4,1.5,1.3,1.3,2.6,3.2l.3-.5c-1.8-2.4-.4-2-2.9-3.7-3.8-2.4-8.2-3.8-13-3.8ZM34.5,32.4l-.3.4,8.6,16.2c-.8,1,1.5,1.4,2.4,1.9,0,0,0,0,.1-.1,1.3-1.2-3.6-1.3-2.5-2.7l-8.3-15.7Z"/>
    <path class="st3" d="M34.7,7.9c-13.6,0-24.5,11.1-24.5,25s10.9,25,24.5,25,12.9-2.8,17.4-7.3l-17.4-17.7,17.4-17.7c-4.4-4.5-10.6-7.3-17.4-7.3Z"/>
    <path class="st2" d="M34.7,7c-13.6,0-24.5,11.1-24.5,25s10.9,25,24.5,25,12.9-2.8,17.4-7.3l-17.4-17.7,17.4-17.7c-4.4-4.5-10.6-7.3-17.4-7.3Z"/>
    <path class="st3" d="M34.7,15.1c-6.7,0-12.7,3.9-15.6,10h-7.7c-.4,1.2-.7,2.5-.9,3.7h7.3c-.2.9-.3,1.7-.4,2.6h-7.2c0,.5,0,.9,0,1.4,0,.8,0,1.6.1,2.4h7.2c.1.9.3,1.8.5,2.6h-7.4c.3,1.3.6,2.5,1,3.7h7.9c3.1,5.5,8.9,9,15.1,9,4.6,0,9-1.9,12.3-5.2l-3.2-3.2c-2.4,2.5-5.7,3.9-9.1,3.9-7.1,0-12.9-5.9-12.9-13.2h0c0-7.3,5.8-13.2,12.9-13.2,3.4,0,6.7,1.4,9.1,3.9l3.2-3.2c-3.3-3.3-7.7-5.2-12.3-5.2ZM34.7,26.9c-3.2,0-5.8,2.6-5.8,5.9s2.6,5.9,5.8,5.9,5.8-2.6,5.8-5.9-2.6-5.9-5.8-5.9Z"/>
    <path class="st0" d="M34.7,14.2c-6.7,0-12.7,3.9-15.6,10h-7.7c-.4,1.2-.7,2.5-.9,3.7h7.3c-.2.9-.3,1.7-.4,2.6h-7.2c0,.5,0,.9,0,1.4,0,.8,0,1.6.1,2.4h7.2c.1.9.3,1.8.5,2.6h-7.4c.3,1.3.6,2.5,1,3.7h7.9c3.1,5.5,8.9,9,15.1,9,4.6,0,9-1.9,12.3-5.2l-3.2-3.2c-2.4,2.5-5.7,3.9-9.1,3.9-7.1,0-12.9-5.9-12.9-13.2h0c0-7.3,5.8-13.2,12.9-13.2,3.4,0,6.7,1.4,9.1,3.9l3.2-3.2c-3.3-3.3-7.7-5.2-12.3-5.2ZM34.7,26c-3.2,0-5.8,2.6-5.8,5.9s2.6,5.9,5.8,5.9,5.8-2.6,5.8-5.9-2.6-5.9-5.8-5.9Z"/>
    <path class="st2" d="M45.6,26.9h1.3c.4,0,.7.3.7.6v8.7c0,.3-.3.6-.7.6h-1.3c-.4,0-.7-.3-.7-.6v-8.7c0-.3.3-.6.7-.6Z"/>
    <path class="st2" d="M56.3,26.9h1.3c.4,0,.7.3.7.6v8.7c0,.3-.3.6-.7.6h-1.3c-.4,0-.7-.3-.7-.6v-8.7c0-.3.3-.6.7-.6Z"/>
    <path class="st3" d="M51.2,32.2v1.4c0,.4-.3.7-.6.7h-8.6c-.3,0-.6-.3-.6-.7v-1.4c0-.4.3-.7.6-.7h8.6c.3,0,.6.3.6.7Z"/>
    <path class="st2" d="M51.2,31.3v1.4c0,.4-.3.7-.6.7h-8.6c-.3,0-.6-.3-.6-.7v-1.4c0-.4.3-.7.6-.7h8.6c.3,0,.6.3.6.7Z"/>
    <path class="st3" d="M61.9,32.2v1.4c0,.4-.3.7-.6.7h-8.6c-.3,0-.6-.3-.6-.7v-1.4c0-.4.3-.7.6-.7h8.6c.3,0,.6.3.6.7Z"/>
    <path class="st2" d="M61.9,31.3v1.4c0,.4-.3.7-.6.7h-8.6c-.3,0-.6-.3-.6-.7v-1.4c0-.4.3-.7.6-.7h8.6c.3,0,.6.3.6.7Z"/>
    <path class="st1" d="M34.7,7c-13.6,0-24.5,11.1-24.5,25s0,.3,0,.5c.2-13.6,11.1-24.5,24.5-24.5s12.5,2.6,16.9,6.9l.5-.5c-4.4-4.5-10.6-7.3-17.4-7.3ZM35.1,32.4l-.4.5,16.9,17.2c.2-.1.3-.3.5-.4l-16.9-17.2Z"/>
  </g>
</svg>