<?xml version="1.0" encoding="UTF-8"?>
<svg id="_图层_1" xmlns="http://www.w3.org/2000/svg" version="1.1" viewBox="0 0 64 64" width="32" height="32">
  <!-- Generator: Adobe Illustrator 29.0.1, SVG Export Plug-In . SVG Version: 2.1.0 Build 192)  -->
  <defs>
    <style>
      .st0 {
        fill: #717ce5;
      }

      .st1, .st2, .st3, .st4 {
        display: none;
      }

      .st1, .st5, .st6, .st7, .st4, .st8 {
        isolation: isolate;
      }

      .st1, .st6, .st7, .st4 {
        opacity: .2;
      }

      .st2 {
        fill: #73cd4d;
      }

      .st9, .st7, .st4, .st8 {
        fill: #fff;
      }

      .st10 {
        fill: #3f7ed9;
      }

      .st11, .st12 {
        fill: none;
      }

      .st13 {
        fill: #1e5914;
      }

      .st5, .st8 {
        opacity: .1;
      }

      .st14 {
        fill: #ccc;
      }

      .st15 {
        fill: #e4e4e4;
      }

      .st12 {
        stroke: #1e5914;
        stroke-linecap: round;
        stroke-width: 1.4px;
      }
    </style>
  </defs>
  <path class="st9" d="M50.3,64H13.8c-7.6,0-13.8-6.2-13.8-13.7V13.7C0,6.2,6.2,0,13.7,0h36.5c7.5,0,13.7,6.2,13.7,13.7v36.6c0,7.5-6.2,13.7-13.7,13.7h0Z"/>
  <g class="st3">
    <path class="st1" d="M63.9,32.4c0,17.3-14.3,31.3-31.9,31.3S0,49.6,0,32.4,14.3,1.1,31.9,1.1s31.9,14,31.9,31.3Z"/>
    <path class="st2" d="M63.9,31.2c0,17.3-14.3,31.3-31.9,31.3S0,48.5,0,31.2,14.3,0,31.9,0s31.9,14,31.9,31.3Z"/>
    <path class="st5" d="M38.4,10.1c-.4,0-.8.4-.8.8,0,.4.3.7.8.7,3.1.3,6.6,2.6,9.4,5.5,2.8,2.9,4.9,6.4,5.2,8.8,0,.4.5.7.9.7.4,0,.7-.5.7-.9,0,0,0,0,0,0-.4-2.9-2.6-6.5-5.6-9.6-3-3.1-6.7-5.6-10.4-6,0,0,0,0,0,0,0,0,0,0,0,0h0ZM37.2,14.1c-.4,0-.8.4-.8.8,0,.4.3.7.7.7,3,.4,5.8,2.3,7.9,4.6s3.6,5.3,4.1,7.6c0,.4.5.7.9.6s.7-.5.6-.9c-.6-2.7-2.1-5.8-4.4-8.3s-5.4-4.7-8.9-5.2c0,0-.1,0-.2,0h0ZM36.1,17.8c-.4,0-.8.4-.7.8,0,.3.2.6.6.7,5.2,1.7,7.5,5.3,9.3,9.6.2.4.6.6,1,.5s.6-.6.5-1c0,0,0,0,0,0-1.8-4.4-4.5-8.6-10.3-10.5-.1,0-.2,0-.3,0ZM29.4,17.8c-.5,0-1.1.3-1.9.9l-1.9,1.7,5.8,5.7,1.6-1.4c1.7-1.6,1.4-2.4.4-3.5l-2.5-2.5c-.6-.6-1-.9-1.6-.9ZM24.2,21.7l-6.2,5.5c-3.2,2.4-5.6,5.8-6.4,9.4-.7,3.5,0,8.6,4.5,12.4,4.3,3.6,9.2,4,12.5,3,3.3-1,5.4-3,5.4-3,0,0,0,0,.1-.1l8.5-9-5.8-5.7-7.7,8.3c-3.3,3.5-6.1,1.7-7.7.4-1.8-1.8-3-5.2-.8-7.2l9.3-8.3-5.8-5.7ZM41.8,30c-.8,0-1.4.5-2.2,1.4l-1.3,1.4,5.8,5.7,1.5-1.6c1.8-1.8,1.3-2.4.4-3.5l-2.6-2.6c-.6-.6-1.1-.8-1.5-.9Z"/>
    <path class="st13" d="M29.4,16.7c-.5,0-1.1.3-1.9.9l-1.9,1.7,5.8,5.7,1.6-1.4c1.7-1.6,1.4-2.4.4-3.5l-2.5-2.5c-.6-.6-1-.9-1.6-.9ZM24.2,20.6l-6.1,5.5c-3.2,2.4-5.6,5.8-6.4,9.4-.7,3.5,0,8.6,4.5,12.4,4.3,3.6,9.2,4,12.5,3,3.3-1,5.4-3,5.4-3,0,0,0,0,.1-.1l8.5-9-5.8-5.7-7.7,8.3c-3.3,3.5-6.1,1.7-7.7.4-1.8-1.8-3-5.2-.8-7.2l9.3-8.3-5.8-5.7ZM41.8,28.8c-.8,0-1.4.5-2.2,1.4l-1.3,1.4,5.8,5.7,1.5-1.6c1.8-1.8,1.3-2.4.4-3.5l-2.6-2.6c-.6-.6-1.1-.8-1.5-.9Z"/>
    <path class="st12" d="M46,27.5c-1.8-4.4-4.3-8.3-9.8-10.1"/>
    <path class="st12" d="M49.9,26.7c-1-5-6.1-12-12.7-12.9"/>
    <path class="st12" d="M53.8,24.7c-.8-5.3-8.5-14.3-15.3-14.9"/>
    <path class="st4" d="M31.9,0C14.3,0,0,14,0,31.2c0,.2,0,.4,0,.7C.3,14.8,14.5,1.1,31.9,1.1c17.4,0,31.6,13.6,31.9,30.6,0-.2,0-.3,0-.5C63.9,14,49.6,0,31.9,0Z"/>
  </g>
  <g class="st3">
    <path class="st6" d="M18,8.5c-7,0-12.2,5.5-12.6,12.3l-1.4,26c-.9,5.1,4.2,8.3,8.4,2.7l7.5-11.1h23s8.6,11.4,8.6,11.4c4.2,5.5,8.9,1,8.4-2.8l-1.4-25.9c0-.1,0-.3,0-.4,0-6.8-5.6-12.3-12.6-12.3h-27.9,0Z"/>
    <path class="st0" d="M18,7.5c-7,0-12.2,5.5-12.6,12.3l-1.4,26c-.9,5.1,4.2,8.3,8.4,2.7l7.5-11.1h23s8.6,11.4,8.6,11.4c4.2,5.5,8.9,1,8.4-2.8l-1.4-25.9c0-.1,0-.3,0-.4,0-6.8-5.6-12.3-12.6-12.3h-27.9,0Z"/>
    <path class="st6" d="M16,14.5v4h-4v4h4v4h4v-4h4v-4h-4v-4h-4ZM46,14.5c-1.1,0-2,.9-2,2s.9,2,2,2,2-.9,2-2-.9-2-2-2ZM42,18.5c-1.1,0-2,.9-2,2s.9,2,2,2,2-.9,2-2-.9-2-2-2ZM50,18.5c-1.1,0-2,.9-2,2s.9,2,2,2,2-.9,2-2-.9-2-2-2ZM46,22.5c-1.1,0-2,.9-2,2s.9,2,2,2c1.1,0,2-.9,2-2h0c0-1.1-.9-2-2-2h0Z"/>
    <path class="st9" d="M16,13.5v4h-4v4h4v4h4v-4h4v-4h-4v-4h-4Z"/>
    <path class="st9" d="M46,13.5c-1.1,0-2,.9-2,2s.9,2,2,2,2-.9,2-2-.9-2-2-2Z"/>
    <path class="st9" d="M42,17.5c-1.1,0-2,.9-2,2s.9,2,2,2,2-.9,2-2-.9-2-2-2Z"/>
    <path class="st9" d="M50,17.5c-1.1,0-2,.9-2,2s.9,2,2,2,2-.9,2-2-.9-2-2-2Z"/>
    <path class="st9" d="M46,21.5c-1.1,0-2,.9-2,2s.9,2,2,2,2-.9,2-2-.9-2-2-2Z"/>
    <path class="st8" d="M18,7.5c-7,0-12.2,5.5-12.6,12.3l-1.4,26c0,.6,0,1.1,0,1.6,0-.2,0-.4,0-.6l1.4-26c.4-6.8,5.6-12.3,12.6-12.3h27.9c6.8,0,12.3,5.2,12.5,11.8,0-.2,0-.3,0-.5,0-6.8-5.6-12.3-12.6-12.3h-27.9Z"/>
  </g>
  <g>
    <path class="st6" d="M38.5,46.7h9.8v9.4l-9.8-9.4Z"/>
    <path class="st14" d="M38.5,45.9h9.8v9.4l-9.8-9.4Z"/>
    <path class="st6" d="M54.9,44.5V14.4c0-1.2-1-2.2-2.3-2.2H11.4c-1.3,0-2.3,1-2.3,2.2v30.2c0,1.2,1,2.2,2.3,2.2h41.2c1.3,0,2.3-1,2.3-2.2Z"/>
    <path class="st15" d="M54.9,43.7V13.6c0-1.2-1-2.2-2.3-2.2H11.4c-1.3,0-2.3,1-2.3,2.2v30.2c0,1.2,1,2.2,2.3,2.2h41.2c1.3,0,2.3-1,2.3-2.2Z"/>
    <path class="st5" d="M32,20c-5.4,0-9.8,4.2-9.8,9.4s4.4,9.4,9.8,9.4,9.8-4.2,9.8-9.4-4.4-9.4-9.8-9.4Z"/>
    <path class="st10" d="M32,19.2c-5.4,0-9.8,4.2-9.8,9.4s4.4,9.4,9.8,9.4,9.8-4.2,9.8-9.4-4.4-9.4-9.8-9.4Z"/>
    <path class="st6" d="M27.1,25.5v2.4h2.5v-2.4h-2.5ZM34.5,25.5v2.4h2.5v-2.4h-2.5ZM38.5,30.5c-1.5,1.4-4,2.1-6.7,2.1s-4.9-.6-6.4-1.9c.8,2.1,2.4,5.1,6.6,5.1,4.2,0,5.8-3,6.5-5.2Z"/>
    <path class="st9" d="M27.1,24.7v2.4h2.5v-2.4h-2.5ZM34.5,24.7v2.4h2.5v-2.4h-2.5ZM38.5,29.7c-1.5,1.4-4,2.1-6.7,2.1s-4.9-.6-6.4-1.9c.8,2.1,2.4,5.1,6.6,5.1,4.2,0,5.8-3,6.5-5.2Z"/>
    <rect class="st11" x="25.8" y="22.5" width="18.3" height="17.6"/>
    <path class="st7" d="M11.4,11.4c-1.3,0-2.3,1-2.3,2.2v.8c0-1.2,1-2.2,2.3-2.2h41.2c1.3,0,2.3,1,2.3,2.2v-.8c0-1.2-1-2.2-2.3-2.2H11.4Z"/>
  </g>
</svg>