<?xml version="1.0" encoding="UTF-8"?>
<svg id="_图层_1" xmlns="http://www.w3.org/2000/svg" version="1.1" viewBox="0 0 64 64" width="32" height="32">
  <!-- Generator: Adobe Illustrator 29.0.1, SVG Export Plug-In . SVG Version: 2.1.0 Build 192)  -->
  <defs>
    <style>
      .st0 {
        fill: #37abc8;
      }

      .st1, .st2, .st3, .st4, .st5 {
        display: none;
      }

      .st1, .st6, .st7, .st8, .st9, .st4, .st10 {
        isolation: isolate;
      }

      .st1, .st7, .st8, .st9, .st4 {
        opacity: .2;
      }

      .st2 {
        fill: #f3990f;
      }

      .st11 {
        fill: #3f3f3f;
      }

      .st12, .st9, .st4, .st10 {
        fill: #fff;
      }

      .st13 {
        fill: #5c3d2b;
      }

      .st14 {
        fill: #ffb144;
      }

      .st15 {
        fill: #ff2d55;
      }

      .st16 {
        stroke: #ff2d55;
        stroke-width: 6px;
      }

      .st16, .st17, .st7, .st18 {
        fill: none;
      }

      .st19 {
        fill: #fa3e30;
      }

      .st20 {
        fill: #3f51b5;
      }

      .st6, .st10 {
        opacity: .1;
      }

      .st17 {
        stroke: #3f51b5;
        stroke-width: 3px;
      }

      .st7 {
        stroke: #000;
      }

      .st7, .st18 {
        stroke-linecap: round;
        stroke-width: 2px;
      }

      .st5, .st21 {
        fill: #e4e4e4;
      }

      .st22 {
        fill: #2c80a2;
      }

      .st18 {
        stroke: #ff6e4c;
      }

      .st23 {
        fill: #3ac140;
      }
    </style>
  </defs>
  <path class="st21" d="M47.5,64.1H13.8c-7.6,0-13.8-6.3-13.8-13.8V13.7C0,6.2,6.2,0,13.7,0h36.6c7.5,0,13.7,6.2,13.7,13.7v36.6c0,7.5-6.2,13.7-13.7,13.7h-2.9.1Z"/>
  <g class="st3">
    <ellipse class="st8" cx="39.9" cy="40.1" rx="19.6" ry="19.8"/>
    <ellipse class="st22" cx="39.9" cy="39.1" rx="19.6" ry="19.8"/>
    <ellipse class="st8" cx="39.9" cy="40.1" rx="11.8" ry="11.9"/>
    <ellipse class="st12" cx="39.9" cy="39.1" rx="11.8" ry="11.9"/>
    <ellipse class="st8" cx="24.2" cy="24.3" rx="19.6" ry="19.8"/>
    <ellipse class="st0" cx="24.2" cy="23.3" rx="19.6" ry="19.8"/>
    <ellipse class="st8" cx="24.2" cy="24.3" rx="11.8" ry="11.9"/>
    <ellipse class="st12" cx="24.2" cy="23.3" rx="11.8" ry="11.9"/>
    <path class="st7" d="M38.9,44s-1.3-9.3-5.9-13.8c-4.6-4.5-11.8-5.9-11.8-5.9"/>
    <path class="st18" d="M38.9,43s-1.3-9.3-5.9-13.8c-4.6-4.5-11.8-5.9-11.8-5.9"/>
    <path class="st7" d="M25.2,20.3s1.3,9.3,5.9,13.8c4.6,4.5,11.8,5.9,11.8,5.9"/>
    <path class="st18" d="M25.2,19.3s1.3,9.3,5.9,13.8c4.6,4.5,11.8,5.9,11.8,5.9"/>
    <path class="st9" d="M24.2,3.5C13.4,3.5,4.6,12.4,4.6,23.3c0,.2,0,.3,0,.5.3-10.7,9-19.2,19.6-19.3,10.6,0,19.3,8.5,19.6,19.3,0-.2,0-.3,0-.5,0-10.9-8.8-19.8-19.6-19.8Z"/>
  </g>
  <g class="st3">
    <path class="st1" d="M3.2,1.1h57.7c1.8,0,3.2,1.4,3.2,3.2v57.5c0,1.8-1.4,3.2-3.2,3.2H3.2c-1.8,0-3.2-1.4-3.2-3.2V4.3C0,2.6,1.4,1.1,3.2,1.1Z"/>
    <path class="st2" d="M3.2,0h57.7c1.8,0,3.2,1.4,3.2,3.2v57.5c0,1.8-1.4,3.2-3.2,3.2H3.2c-1.8,0-3.2-1.4-3.2-3.2V3.2C0,1.4,1.4,0,3.2,0Z"/>
    <ellipse class="st8" cx="11.4" cy="49.1" rx="6.9" ry="6.9"/>
    <ellipse class="st11" cx="11.4" cy="48" rx="6.9" ry="6.9"/>
    <ellipse class="st8" cx="52.6" cy="49.1" rx="6.9" ry="6.9"/>
    <ellipse class="st11" cx="52.6" cy="48" rx="6.9" ry="6.9"/>
    <path class="st8" d="M41.2,49.1c0,4.4-4.1,8-9.2,8s-9.2-3.6-9.2-8h18.3Z"/>
    <path class="st11" d="M41.2,48c0,4.4-4.1,8-9.2,8s-9.2-3.6-9.2-8h18.3Z"/>
    <path class="st4" d="M3.2,0C1.4,0,0,1.4,0,3.2v1.1C0,2.6,1.4,1.1,3.2,1.1h57.7c1.8,0,3.2,1.4,3.2,3.2v-1.1c0-1.8-1.4-3.2-3.2-3.2H3.2Z"/>
  </g>
  <g class="st3">
    <path class="st1" d="M32,1.1C14.3,1.1,0,15.5,0,33.1v27.2c0,2.7,2.1,4.8,4.8,4.8h54.4c2.7,0,4.8-2.1,4.8-4.8V5.9c0-2.7-2.1-4.8-4.8-4.8h-27.2Z"/>
    <path class="st5" d="M32,0C14.3,0,0,14.3,0,32v27.2c0,2.7,2.1,4.8,4.8,4.8h54.4c2.7,0,4.8-2.1,4.8-4.8V4.8c0-2.7-2.1-4.8-4.8-4.8h-27.2Z"/>
    <path class="st6" d="M26.3,14.8v3.4c-2.4,0-4.7.3-6.6,1.5-2.4,1.5-3.7,4.4-3.7,8.7h3.4c0-3.7.8-5,2.1-5.8,1-.6,2.6-.9,4.8-1v3.4l6.9-5.1-6.9-5.1ZM34.3,14.8v38.8h16V14.8h-16ZM13.7,30.8v22.8h16v-22.8H13.7Z"/>
    <rect class="st23" x="34.3" y="13.7" width="16" height="38.8"/>
    <rect class="st19" x="13.7" y="29.7" width="16" height="22.8"/>
    <path class="st17" d="M17.7,27.4c0-8,4.2-8.6,10.6-8.6"/>
    <path class="st20" d="M33.1,18.8l-6.9,5.1v-10.3l6.9,5.1Z"/>
    <path class="st11" d="M42.9,36.5c-1.4,0-2.3.4-3,1.2-.7.8-1,2-1.2,3.4h-1.4l-.7,1.5h2.1c0,.2,0,.5,0,.8,0,.3,0,.5,0,.8h-1.4l-.7,1.5h2.1c.2,1.4.5,2.6,1.2,3.4.7.8,1.6,1.2,3,1.2s2.8-1.5,2.8-1.5v-1.5s-1.6,1.4-2.8,1.5c-1.2,0-2.4-.9-2.8-3h2.8l.7-1.5h-3.5c0-.2,0-.5,0-.8,0-.3,0-.5,0-.8h3.5l.7-1.5h-4.2c.4-2.1,1.5-3.1,2.8-3,1.3,0,2.8,1.5,2.8,1.5v-1.5s-1.4-1.5-2.8-1.5Z"/>
    <path class="st4" d="M32,0C14.3,0,0,14.3,0,32v1.1C0,15.5,14.3,1.1,32,1.1h27.2c2.7,0,4.8,2.1,4.8,4.8v-1.1c0-2.7-2.1-4.8-4.8-4.8h-27.2Z"/>
  </g>
  <g class="st3">
    <path class="st1" d="M19.2,1.1h25.6c10.6,0,19.2,8.6,19.2,19.2v25.6c0,10.6-8.6,19.2-19.2,19.2h-25.6c-10.6,0-19.2-8.6-19.2-19.2v-25.6C0,9.7,8.6,1.1,19.2,1.1Z"/>
    <path class="st5" d="M19.2,0h25.6c10.6,0,19.2,8.6,19.2,19.2v25.6c0,10.6-8.6,19.2-19.2,19.2h-25.6C8.6,63.9,0,55.4,0,44.8v-25.6C0,8.6,8.6,0,19.2,0Z"/>
    <path class="st6" d="M44.5,6.9c-.6,0-1,.5-1,1v3.6h-24.8s-2.3.4-4.6,1.9c-2.3,1.5-4.9,4.6-4.9,9v22.3h6.9v-22.3c0-2,.7-2.6,1.7-3.2.9-.6,1.8-.8,1.9-.8h34.3c.6,0,1-.5,1-1,0-.3-.1-.5-.3-.7l-9.4-9.4c-.2-.2-.5-.3-.7-.3ZM48,21.7v22.3c0,2-.7,2.6-1.7,3.2-.9.6-1.8.8-1.9.8H10.2c-.6,0-1,.5-1,1,0,.3.1.5.3.7l9.4,9.4c.2.2.5.3.7.3.6,0,1-.5,1-1v-3.6h24.8s2.3-.4,4.6-1.9c2.3-1.5,4.9-4.6,4.9-9v-22.3h-6.9ZM25.9,28.5c-1.7,0-3,1.4-3,3v3c0,1.7,1.4,3,3,3h.8c1.7,0,3-1.4,3-3v-3c0-1.7-1.4-3-3-3h-.8ZM37.4,28.5c-1.7,0-3,1.4-3,3v3c0,1.7,1.4,3,3,3h.8c1.7,0,3-1.4,3-3v-3c0-1.7-1.4-3-3-3h-.8Z"/>
    <path class="st16" d="M12.6,43.4v-22.3c0-6.4,6.6-7.4,6.6-7.4h27.2"/>
    <path class="st15" d="M44.5,5.7c-.6,0-1,.5-1,1v9.4c0,.6.5,1,1,1h9.4c.6,0,1-.5,1-1,0-.3-.1-.5-.3-.7l-9.4-9.4c-.2-.2-.5-.3-.7-.3Z"/>
    <rect class="st15" x="22.9" y="26.3" width="6.9" height="10.3" rx="3.4" ry="3.4"/>
    <path class="st16" d="M51.5,20.6v22.3c0,6.4-6.6,7.4-6.6,7.4h-27.2"/>
    <path class="st15" d="M19.6,58.2c.6,0,1-.5,1-1v-9.4c0-.6-.5-1-1-1h-9.4c-.6,0-1,.5-1,1,0,.3.1.5.3.7l9.4,9.4c.2.2.5.3.7.3Z"/>
    <rect class="st15" x="34.3" y="26.3" width="6.9" height="10.3" rx="3.4" ry="3.4"/>
    <path class="st4" d="M19.2,0C8.6,0,0,8.6,0,19.2v1.1C0,9.7,8.6,1.1,19.2,1.1h25.6c10.6,0,19.2,8.6,19.2,19.2v-1.1c0-10.6-8.6-19.2-19.2-19.2h-25.6Z"/>
  </g>
  <g>
    <path class="st8" d="M25.8,9.3c-.3,0-.6,0-1,0-2.2.3-3.7,1.7-5.1,4.6-2.5,5.4-4.9,10.8-6.6,14.5-1.9,3.5-3.8,7.3-4.3,8.4-1.4,3.1-1.5,6-.1,3.4.7-1.3,2.7-3,4.6-3.9,1.8-.8,2.5-1,2.3-.5-.1.5-.4,1.6-.4,1.8.7-.6,2-.9,2.4-.2.2.5.2,1-.4,2.9-.6,2.1-.7,4.3-.4,4.3.4-.8,1.3-1.8,2.2-1.4.6.3.7.6.9,2.9.2,2,1.7,4.8,2.1,5-.2-1.2,0-1.8,1.6-1.1.3.1,1.5,1.2,2.7,2.3,1.2,1.1,3.3,2.4,3.5,2.4,0,0-.5-.7-.4-1,.3-.7,1.1-.7,2.6-.2.7.3,2.2.7,3.3,1,1.8.5,3.1.9,3.5.8-2.2-1.2.4-1.7,2.4-2.3,1.5-.5,3.5-1.2,5.2-2.8-1.1.2-.8-.8-.7-1.3.4-1.3.3-3.7-.2-4.9-.4-1.4-1.6-2.4-2.8-3.3,0,.1.1.2.1.3,0,.1,0,.2.1.4,0,0,0,0,0,0,0,0,0,0,0,0,0,.1,0,.2,0,.4,0,.1,0,.3,0,.4,0,.5-.1,1-.4,1.3.3,1.8.9,2.7-.2,5-.8,1.3-2.4,2.4-3.7,2.7-1.7.4-2.6.4-4.3,0-4.1-1.1-7.7-4.1-8.5-8.3-.4-2.2-1-3.5.4-2.2.2-.2,0-1.4.3-1.6,3.4-3.7,2.9-10.3,6.3-11,.3,0,.6,0,.8,0,1.4.1,2.2.5,3.1,1.1,0-.7-1.1-1.5-1.3-1.9-.5-1.1,2-.3,3,0-.2-.3-2.4-1.5-2.6-1.6-.1,0-.2-.2,1.9-.2,0,0-1.4-.7-2.5-.7-.7,0-1.3,0-1.3-.2-.2-.6,2.8-2.3,5.2-2.5,1.9-.2,3,0,3.4.9.5,1.2,1.4,1.9,2.6,2.3.6.2,1.4.6,1.7.9,1.7,1.3,1.8,3.7,1.2,3.8,0,0,.8.2,1.8,0,2.5-.5,3.9-2.6,2.7-4.1-.4-.5-.5-1.1-.7-2.6-.2-2.1-.4-2.7-1.7-4.4-.5-.6-1-1.6-1.1-2.1-.5-1.8-1.8-3.4-3.2-4.8-.9-.8-1.4-1.3-1.7-1.3,0,0,1.4,2.5,1.5,4.2,0,1.6-1.1,1.8-2,.7-.8-1.1-.9-2.5-2.7-2.7,0,0,.6,1.1.4,1.3-1.5,1.4-3.4.7-4.5-.7-.5-.6-1.2-.8-1.2-.8.2.6-.4,1.6-1.8,1.6-.6,0-1.8-.8-4.2-2.9-1.6-1.4-2.8-2-4.1-2Z"/>
    <path class="st13" d="M25.8,8.5c-.3,0-.6,0-1,0-2.2.3-3.7,1.7-5.1,4.6-2.5,5.4-4.9,10.8-6.6,14.5-1.9,3.5-3.8,7.3-4.3,8.4-1.4,3.1-1.5,6-.1,3.4.7-1.3,2.7-3,4.6-3.9,1.8-.8,2.5-1,2.3-.5-.1.5-.4,1.6-.4,1.8.7-.6,2-.9,2.4-.2.2.5.2,1-.4,2.9-.6,2.1-.7,4.3-.4,4.3.4-.8,1.3-1.8,2.2-1.4.6.3.7.6.9,2.9.2,2,1.7,4.8,2.1,5-.2-1.2,0-1.8,1.6-1.1.3.1,1.5,1.2,2.7,2.3,1.2,1.1,3.3,2.4,3.5,2.4,0,0-.5-.7-.4-1,.3-.7,1.1-.7,2.6-.2.7.3,2.2.7,3.3,1,1.8.5,3.1.9,3.5.8-2.2-1.2.4-1.7,2.4-2.3,1.5-.5,3.5-1.2,5.2-2.8-1.1.2-.8-.8-.7-1.3.4-1.3.3-3.7-.2-4.9-.4-1.4-1.6-2.4-2.8-3.3,0,.1.1.2.1.3,0,.1,0,.2.1.4,0,0,0,0,0,0,0,0,0,0,0,0,0,.1,0,.2,0,.4,0,.1,0,.3,0,.4,0,.5-.1,1-.4,1.3.3,1.8.9,2.7-.2,5-.8,1.3-2.4,2.4-3.7,2.7-1.7.4-2.6.4-4.3,0-4.1-1.1-7.7-4.1-8.5-8.3-.4-2.2-1-3.5.4-2.2.2-.2,0-1.4.3-1.6,3.4-3.7,2.9-10.3,6.3-11,.3,0,.6,0,.8,0,1.4.1,2.2.5,3.1,1.1,0-.7-1.1-1.5-1.3-1.9-.5-1.1,2-.3,3,0-.2-.3-2.4-1.5-2.6-1.6-.1,0-.2-.2,1.9-.2,0,0-1.4-.7-2.5-.7-.7,0-1.3,0-1.3-.2-.2-.6,2.8-2.3,5.2-2.5,1.9-.2,3,0,3.4.9.5,1.2,1.4,1.9,2.6,2.3.6.2,1.4.6,1.7.9,1.7,1.3,1.8,3.7,1.2,3.8,0,0,.8.2,1.8,0,2.5-.5,3.9-2.6,2.7-4.1-.4-.5-.5-1.1-.7-2.6-.2-2.1-.4-2.7-1.7-4.4-.5-.6-1-1.6-1.1-2.1-.5-1.8-1.8-3.4-3.2-4.8-.9-.8-1.4-1.3-1.7-1.3,0,0,1.4,2.5,1.5,4.2,0,1.6-1.1,1.8-2,.7-.8-1.1-.9-2.5-2.7-2.7,0,0,.6,1.1.4,1.3-1.5,1.4-3.4.7-4.5-.7-.5-.6-1.2-.8-1.2-.8.2.6-.4,1.6-1.8,1.6-.6,0-1.8-.8-4.2-2.9-1.6-1.4-2.8-2-4.1-2Z"/>
    <path class="st10" d="M25.8,8.5c-.3,0-.6,0-1,0-2.2.3-3.7,1.7-5.1,4.6-2.5,5.4-4.9,10.8-6.6,14.5-1.9,3.5-3.8,7.3-4.3,8.4-.9,1.9-1.2,3.8-1.1,4.3.1-.8.4-2.1,1.1-3.5.5-1.1,2.4-4.9,4.3-8.4,1.7-3.8,4.1-9.2,6.6-14.5,1.3-2.9,2.8-4.2,5.1-4.6.3,0,.7,0,1,0,1.3,0,2.5.6,4.1,2,2.4,2.1,3.6,2.9,4.2,2.9,1.4,0,2-1,1.8-1.6,0,0,.8.2,1.2.8,1.1,1.4,2.9,2.1,4.5.7,0,0,0-.4-.1-.7-1.5,1.2-3.2.6-4.3-.8-.5-.6-1.2-.8-1.2-.8.2.6-.4,1.6-1.8,1.6-.6,0-1.8-.8-4.2-2.9-1.6-1.4-2.8-2-4.1-2ZM44.5,9.8s.3.5.5,1.1c.3.2.7.5,1.2,1,1.5,1.4,2.7,3,3.2,4.8.2.6.7,1.5,1.1,2.1,1.3,1.7,1.5,2.3,1.7,4.4.1,1.5.3,2.1.7,2.6.2.3.3.5.4.8.1-.5,0-1.1-.4-1.6-.4-.5-.5-1.1-.7-2.6-.2-2.1-.4-2.7-1.7-4.4-.5-.6-1-1.6-1.1-2.1-.5-1.8-1.8-3.4-3.2-4.8-.9-.8-1.4-1.3-1.7-1.3ZM41.3,12.1s.2.5.4.9c1.4.4,1.6,1.6,2.3,2.6.9,1.1,2,.9,2-.7,0-.1,0-.2,0-.4-.2,1.2-1.1,1.2-2,.3-.8-1.1-.9-2.5-2.7-2.7ZM34.7,24.1c-.3.3-.5.5-.4.7,0,.1.6.2,1.3.2.2,0,.4,0,.6,0,0,0,0,0,0,0-.1,0-.2-.2,1.9-.2,0,0-1.4-.7-2.5-.7-.3,0-.7,0-.9,0ZM37.3,25.5c-1.3,0-1.2,0-1.1.2,0,0,.4.2.7.4.6.1,1.4.3,1.9.4,0-.2-.8-.6-1.4-.9ZM35.9,26.8c-.2,0-.3.2-.2.5,0,.2.4.5.6.8.2.1.4.2.6.3,0-.6-.7-1.2-1.1-1.6ZM48.6,28.8c0,.2-.1.4-.3.4,0,0,.2,0,.3,0,0-.1,0-.3,0-.4ZM15.5,35.6c-.1.5-.3,1.1-.3,1.3,0,0,.1-.1.2-.2,0-.3.2-.6.2-.9,0-.2,0-.2-.1-.3ZM17.7,37.8c0,.4-.2,1-.4,1.8-.5,1.7-.6,3.4-.5,4,0-.8.2-2,.5-3.2.4-1.6.5-2.2.4-2.6ZM42.8,39.9c0,.1.1.2.1.3,0,.1,0,.2.1.4h0s0,0,0,0c0,.1,0,.2,0,.3,1,.8,2.1,1.8,2.5,3.1.3.6.4,1.5.4,2.4,0-1.1-.1-2.4-.4-3.2-.4-1.4-1.6-2.4-2.8-3.3ZM25.7,40.2c-.2.2.1,1.2.4,2.7.8,4.2,4.4,7.3,8.5,8.3,1.7.4,2.6.4,4.3,0,1.2-.4,2.8-1.4,3.7-2.7.6-1.2.7-2,.6-2.8,0,.6-.2,1.2-.6,2-.8,1.3-2.4,2.4-3.7,2.7-1.7.4-2.6.4-4.3,0-4.1-1.1-7.7-4.1-8.5-8.3-.2-.8-.3-1.4-.4-1.9ZM43.1,41.8c0,.4-.2.7-.4,1,0,.2,0,.4.1.6.2-.3.3-.7.3-1.1s0-.3,0-.4c0,0,0,0,0,0ZM45.6,49.3c0,.3-.1.6,0,.9.2-.2.5-.4.7-.6-.4,0-.7,0-.8-.2ZM22,50.3s0,0,0,0c0,0,0,0,0,0,0,0,0,0,0,0ZM29.5,53.6c0,0,0,.1-.1.2.2,0,.3.2.4.2,0,0-.1-.2-.2-.4ZM38.2,54.3c-.1,0-.2.2-.2.3.4,0,.7.1.8,0-.3-.1-.5-.3-.6-.4Z"/>
    <path class="st8" d="M25.5,17.4c-.8,0-1.8,0-2.9,0-6.7.1-6.4.1-5.4,1.4.6.7.6.8.6,6.6s0,5.2-.6,6.1c-1,1.6-1.3,1.6,5.3,1.6h3.7c.9,0,1.3,0,1.9-.6.3-.3.6-.7.6-.9s.2-.4.3-.6c.5-.4.8,9.6.4,10.9-.2.5-.3,1.2-.3,1.5,0,.5,0,.7,1.2.8,2.4,0,5.7,0,8.3,0,1,0,2,0,3-.2,1.1-.2,1.8-1.2,1.8-2.3s-.5-2.1-1.5-2.9c-.9-.6-1.7-.9-2.5-.9-.3,0-.6,0-.8.1-1.3.3-1.4.7-.3,1.8,1,1.5.6,2.5-.9,2.3-.6-.1-1.2-.3-1.8-.7-.5-.3-.6-.6-.6-1.1v-4.9c0-5.3,0-6.6.5-7.4.8-1.3.7-1.2-2.6-1.4h-3.7l-1,1.2c-1.5,1.7-1.9,3.4-3.4,3.4s-2-.7-2-3.6,0-1.4.5-2.3c.4-.8.7-1,1.3-1.1.9,0,1.6.6,1.4,1.3-.2.6.5.8,1.3.3,1-.5,1.5-1.5,1.5-2.6s-1.2-2.6-2.4-2.6-2,.4-2.8,1.1c-.6.5-.7.5-.8.2-.3-.7,0-2.7.5-3.2,1.1-1,3-.4,4.7.8,1.2.8,1.7,1,1.9.4.2-.5-.2-2.4-.6-2.7-.2-.2-1.2-.2-3.5-.2Z"/>
    <path class="st14" d="M25.5,16.6c-.8,0-1.8,0-2.9,0-6.7.1-6.4.1-5.4,1.4.6.7.6.8.6,6.6s0,5.2-.6,6.1c-1,1.6-1.3,1.6,5.3,1.6h3.7c.9,0,1.3,0,1.9-.6.3-.3.6-.7.6-.9s.2-.4.3-.6c.5-.4.8,9.6.4,10.9-.2.5-.3,1.2-.3,1.5,0,.5,0,.7,1.2.8,2.4,0,5.7,0,8.3,0,1,0,2,0,3-.2,1.1-.2,1.8-1.2,1.8-2.3s-.5-2.1-1.5-2.9c-.9-.6-1.7-.9-2.5-.9-.3,0-.6,0-.8.1-1.3.3-1.4.7-.3,1.8,1,1.5.6,2.5-.9,2.3-.6-.1-1.2-.3-1.8-.7-.5-.3-.6-.6-.6-1.1v-4.9c0-5.3,0-6.6.5-7.4.8-1.3.7-1.2-2.6-1.4h-3.7l-1,1.2c-1.5,1.7-1.9,3.4-3.4,3.4s-2-.7-2-3.6,0-1.4.5-2.3c.4-.8.7-1,1.3-1.1.9,0,1.6.6,1.4,1.3-.2.6.5.8,1.3.3,1-.5,1.5-1.5,1.5-2.6s-1.2-2.6-2.4-2.6-2,.4-2.8,1.1c-.6.5-.7.5-.8.2-.3-.7,0-2.7.5-3.2,1.1-1,3-.4,4.7.8,1.2.8,1.7,1,1.9.4.2-.5-.2-2.4-.6-2.7-.2-.2-1.2-.2-3.5-.2Z"/>
    <path class="st13" d="M37.7,38.8c-1.5.4-2.8,1.9-3.8,2.9-1,1.2-1.2,2.7-.6,4.1.7,1.7,2,2.5,3.9,2.5,1.9,0,3.5-1.3,3-2.5-.1-.4-.2-.4-.9.2-1.1.9-1.6,1-2.5.6-1-.5-1.7-1.6-1.4-2.6.3-1,.7-1.5,2.1-2.1.1,0,.2,0,.3-.1.2-.1.4-.3.7-.5.3-.4.3-1.1-.4-2-.2-.2-.3-.3-.4-.5Z"/>
    <path class="st9" d="M25.5,16.6c-.8,0-1.8,0-2.9,0-6,0-6.4.1-5.7,1.1.6-.2,2.2-.2,5.7-.3,1.1,0,2.1,0,2.9,0,2.4,0,3.4,0,3.5.2.3.2.5,1.1.6,1.9.2-.5-.2-2.3-.6-2.6-.2-.2-1.2-.2-3.5-.2ZM26.1,20.2c-1,0-2,.4-2.8,1.1-.6.5-.7.5-.8.2,0,0,0-.2,0-.3,0,.4,0,.9,0,1.1.1.3.2.3.8-.2.8-.7,1.7-1.1,2.8-1.1s2.2,1.1,2.3,2.2c0-.2,0-.3,0-.5,0-1.2-1.2-2.6-2.4-2.6ZM17.8,25c0,5.3,0,4.9-.6,5.8-.4.7-.8,1.1-.3,1.4,0-.2.2-.3.3-.6.6-.9.6-.4.6-6.1s0-.3,0-.4ZM25.7,25.3s0,0,0,.1c0,0,0,0,0-.1ZM29,26.1l-1,1.2c-1.5,1.7-1.9,3.4-3.4,3.4s-2-.6-2-3.1c0,.1,0,.2,0,.3,0,2.9.2,3.6,2,3.6s1.9-1.7,3.4-3.4l1-1.2h3.7c1.6,0,2.5.1,2.8.3.6-.9.2-.9-2.8-1.1h-3.7ZM34.8,34.9c0,.3,0,.4,0,.7v4.9c0,.6.1.8.6,1.1.6.4,1.2.6,1.8.7,1.2.2,1.7-.4,1.4-1.3-.2.4-.6.6-1.4.5-.6-.1-1.2-.3-1.8-.7-.5-.3-.6-.6-.6-1.1v-4.8ZM39.3,37.3c-.3,0-.6,0-.8.1-1,.2-1.2.5-.9,1.2.2-.1.4-.3.9-.4.3,0,.6-.1.8-.1.8,0,1.6.3,2.5.9.9.7,1.4,1.4,1.5,2.4,0-.1,0-.2,0-.3,0-1.2-.5-2.1-1.5-2.9-.9-.6-1.7-.9-2.5-.9ZM29.6,38c0,1.6,0,3-.2,3.4-.2.5-.3,1.2-.3,1.5,0,.2,0,.3,0,.5,0-.3.2-.8.3-1.1.2-.5.2-2.3.2-4.2Z"/>
  </g>
</svg>