<?xml version="1.0" encoding="UTF-8"?>
<svg id="_图层_1" xmlns="http://www.w3.org/2000/svg" version="1.1" viewBox="0 0 64 64" width="32" height="32">
  <!-- Generator: Adobe Illustrator 29.0.1, SVG Export Plug-In . SVG Version: 2.1.0 Build 192)  -->
  <defs>
    <style>
      .st0 {
        stroke: #ffa02e;
        stroke-linejoin: round;
      }

      .st0, .st1 {
        fill: none;
        stroke-linecap: round;
        stroke-width: 5px;
      }

      .st2, .st3, .st4, .st5, .st6, .st7, .st8 {
        isolation: isolate;
      }

      .st2, .st3, .st9, .st7, .st10, .st11 {
        display: none;
      }

      .st2, .st5, .st6, .st7 {
        opacity: .2;
      }

      .st3, .st12, .st6, .st7, .st8 {
        fill: #fff;
      }

      .st3, .st4, .st8 {
        opacity: .1;
      }

      .st13 {
        fill: #7f4a04;
      }

      .st1 {
        stroke: #656565;
      }

      .st14 {
        fill: #ffce23;
      }

      .st15 {
        fill: #ff670b;
      }

      .st16 {
        fill: #5e473a;
      }

      .st17 {
        fill: #f45c49;
      }

      .st18, .st11 {
        fill: #fe6d40;
      }

      .st10 {
        fill: #4f4f4f;
      }

      .st19 {
        fill: #ef4e4e;
      }
    </style>
  </defs>
  <path class="st18" d="M50.4,64H13.8c-7.6,0-13.8-6.2-13.8-13.7V13.7C0,6.2,6.2,0,13.7,0h36.6c7.5,0,13.7,6.2,13.7,13.7v36.6c0,7.5-6.2,13.7-13.7,13.7h.1Z"/>
  <g class="st9">
    <path class="st5" d="M5.8,12.6h51.1c1.6,0,2.8,1.1,2.8,2.4v37.8c0,1.3-1.3,2.4-2.8,2.4H5.8c-1.6,0-2.8-1.1-2.8-2.4V15c0-1.3,1.3-2.4,2.8-2.4Z"/>
    <path class="st15" d="M5.8,11.7h51.1c1.6,0,2.8,1.1,2.8,2.4v37.8c0,1.3-1.3,2.4-2.8,2.4H5.8c-1.6,0-2.8-1.1-2.8-2.4V14.1c0-1.3,1.3-2.4,2.8-2.4Z"/>
    <rect class="st16" x="3" y="20.4" width="56.8" height="25.2"/>
    <path class="st12" d="M3,16.1v4.3h2.9v-4.3h-2.9ZM10.7,16.1v4.3h2.9v-4.3h-2.9ZM18.4,16.1v4.3h2.9v-4.3h-2.9ZM26.1,16.1v4.3h2.9v-4.3h-2.9ZM33.8,16.1v4.3h2.9v-4.3h-2.9ZM41.5,16.1v4.3h2.9v-4.3h-2.9ZM49.2,16.1v4.3h2.9v-4.3h-2.9ZM56.9,16.1v4.3h2.9v-4.3h-2.9ZM3,45.6v4.3h2.9v-4.3h-2.9ZM10.7,45.6v4.3h2.9v-4.3h-2.9ZM18.4,45.6v4.3h2.9v-4.3h-2.9ZM26.1,45.6v4.3h2.9v-4.3h-2.9ZM33.8,45.6v4.3h2.9v-4.3h-2.9ZM41.5,45.6v4.3h2.9v-4.3h-2.9ZM49.2,45.6v4.3h2.9v-4.3h-2.9ZM56.9,45.6v4.3h2.9v-4.3h-2.9Z"/>
    <path class="st5" d="M7.8,24.7v18.2h2.9v-7.8h7.7v-2.6h-7.7v-5.2h8.7v-2.6H7.8ZM23.7,24.7c-.4,0-.8.1-1,.3-.3.2-.4.5-.4,1s.1.8.4,1c.3.2.6.3,1,.3s.7-.1,1-.3c.3-.2.4-.6.4-1s-.2-.8-.4-1c-.3-.2-.6-.3-1-.3ZM28.9,24.7v18.2h2.9v-18.2h-2.9ZM22.2,29.1v13.9h2.9v-13.9h-2.9ZM42.2,29.1c-.8,0-1.6.2-2.4.5-.7.3-1.3.9-1.8,1.6h-.1l-.3-1.9h-1.9v13.6h2.8v-7.1c0-1.6.3-2.8.8-3.7s1-1.3,2.5-1.3,2.6,1.1,2.6,3.2v8.8h2.9v-7.5c0-2,.2-4.3,3.1-4.5,1.9,0,2.6,1.1,2.6,3.2v8.8h2.9v-8.9c0-1.7-.4-3-1.2-3.8s-2-1.2-3.6-1.2-1.8.2-2.6.6-1.4.9-1.9,1.7h-.1c-.7-1.5-2.1-2.3-4.3-2.3Z"/>
    <path class="st12" d="M10.7,42.1h-2.9v-18.2h11.5v2.6h-8.7v5.2h7.7v2.6h-7.7v7.8Z"/>
    <path class="st12" d="M23.7,23.9c.4,0,.7.1,1,.3.3.2.4.5.4,1s-.1.8-.4,1c-.3.2-.6.3-1,.3s-.8-.1-1-.3c-.3-.2-.4-.6-.4-1s.1-.8.4-1c.3-.2.6-.3,1-.3Z"/>
    <path class="st12" d="M25.1,28.2v13.9h-2.9v-13.9h2.9Z"/>
    <path class="st12" d="M31.8,42.1h-2.9v-18.2h2.9v18.2Z"/>
    <path class="st12" d="M51.1,28.2c1.6,0,2.8.4,3.6,1.2.8.8,1.2,2.1,1.2,3.8v8.9h-2.9v-8.8c0-2.2-.7-3.2-2.6-3.2-2.9.2-3.1,2.5-3.1,4.5v7.5h-2.9v-8.8c0-2.2-.7-3.2-2.6-3.2s-1.9.4-2.5,1.3-.8,2.1-.8,3.7v7.1h-2.8v-13.6h1.9l.3,1.9h.1c.4-.7,1-1.2,1.8-1.6.8-.4,1.6-.5,2.4-.5,2.2,0,3.6.8,4.3,2.3h.1c.5-.8,1.1-1.4,1.9-1.7.8-.4,1.7-.6,2.6-.6Z"/>
    <path class="st4" d="M3,49.9v.9h2.9v-.9h-2.9ZM10.7,49.9v.9h2.9v-.9h-2.9ZM18.4,49.9v.9h2.9v-.9h-2.9ZM26.1,49.9v.9h2.9v-.9h-2.9ZM33.8,49.9v.9h2.9v-.9h-2.9ZM41.5,49.9v.9h2.9v-.9h-2.9ZM49.2,49.9v.9h2.9v-.9h-2.9ZM56.9,49.9v.9h2.9v-.9h-2.9Z"/>
    <rect class="st4" x="3" y="20.4" width="56.8" height=".9"/>
    <rect class="st8" x="3" y="45.6" width="56.8" height=".9"/>
    <path class="st6" d="M5.8,11.7c-1.6,0-2.8,1.1-2.8,2.4v.9c0-1.3,1.3-2.4,2.8-2.4h51.1c1.6,0,2.8,1.1,2.8,2.4v-.9c0-1.3-1.3-2.4-2.8-2.4H5.8Z"/>
  </g>
  <g class="st9">
    <rect class="st5" x="6" y="6.9" width="53" height="53" rx="2.7" ry="2.7"/>
    <rect class="st19" x="6" y="5.9" width="53" height="53" rx="2.6" ry="2.6"/>
    <path class="st8" d="M8.7,5.9c-1.5,0-2.7,1.2-2.7,2.7v1c0-1.5,1.2-2.7,2.7-2.7h47.7c1.5,0,2.7,1.2,2.7,2.7v-1c0-1.5-1.2-2.7-2.7-2.7H8.7Z"/>
    <path class="st1" d="M32.5,6.4v52"/>
    <path class="st1" d="M18.5,6.4v52"/>
    <path class="st1" d="M46.5,6.4v52"/>
    <path class="st5" d="M6.5,16.9c-1.4,0-2.5,1.1-2.5,2.5s1.1,2.5,2.5,2.5c0,0,0,0,0,0h52c1.4,0,2.5-1.1,2.5-2.5s-1.1-2.5-2.5-2.5c0,0,0,0,0,0H6.5ZM6.5,30.9c-1.4,0-2.5,1.1-2.5,2.5,0,1.4,1.1,2.5,2.5,2.5,0,0,0,0,0,0h52c1.4,0,2.5-1.1,2.5-2.5s-1.1-2.5-2.5-2.5c0,0,0,0,0,0H6.5ZM6.5,44.9c-1.4,0-2.5,1.1-2.5,2.5s1.1,2.5,2.5,2.5c0,0,0,0,0,0h52c1.4,0,2.5-1.1,2.5-2.5s-1.1-2.5-2.5-2.5c0,0,0,0,0,0H6.5Z"/>
    <path class="st1" d="M58.5,32.4H6.5"/>
    <path class="st1" d="M58.5,18.4H6.5"/>
    <path class="st1" d="M58.5,46.4H6.5"/>
    <path class="st5" d="M27.5,10.4l-1.4,2.6-2.6,1.4,2.6,1.4,1.4,2.6,1.4-2.6,2.6-1.4-2.6-1.4-1.4-2.6ZM38.5,16.4l-1.8,3.2-3.2,1.8,3.2,1.8,1.8,3.2,1.8-3.2,3.2-1.8-3.2-1.8-1.8-3.2ZM21.4,21.9l-5.4,5.4,5.8,5.8,5.4-5.4-5.8-5.8ZM29.2,29.7l-5.4,5.4,20.8,20.8,5.4-5.4-20.8-20.8ZM17.5,37.4l-1.1,1.9-1.9,1.1,1.9,1.1,1.1,1.9,1.1-1.9,1.9-1.1-1.9-1.1-1.1-1.9Z"/>
    <path class="st12" d="M27.5,9.4l-1.4,2.6-2.6,1.4,2.6,1.4,1.4,2.6,1.4-2.6,2.6-1.4-2.6-1.4-1.4-2.6ZM38.5,15.4l-1.8,3.2-3.2,1.8,3.2,1.8,1.8,3.2,1.8-3.2,3.2-1.8-3.2-1.8-1.8-3.2ZM21.4,20.9l-5.4,5.4,5.8,5.8,5.4-5.4-5.8-5.8ZM29.2,28.7l-5.4,5.4,20.8,20.8,5.4-5.4-20.8-20.8ZM17.5,36.4l-1.1,1.9-1.9,1.1,1.9,1.1,1.1,1.9,1.1-1.9,1.9-1.1-1.9-1.1-1.1-1.9Z"/>
  </g>
  <g class="st9">
    <rect class="st5" x="6" y="6" width="53" height="53" rx="2.7" ry="2.7"/>
    <rect class="st19" x="6" y="5" width="53" height="53" rx="2.6" ry="2.6"/>
    <path class="st8" d="M8.7,5c-1.5,0-2.7,1.2-2.7,2.7v1c0-1.5,1.2-2.7,2.7-2.7h47.7c1.5,0,2.7,1.2,2.7,2.7v-1c0-1.5-1.2-2.7-2.7-2.7H8.7Z"/>
    <path class="st1" d="M32.5,5.5v52"/>
    <path class="st1" d="M18.5,5.5v52"/>
    <path class="st1" d="M46.5,5.5v52"/>
    <path class="st5" d="M6.5,16c-1.4,0-2.5,1.1-2.5,2.5s1.1,2.5,2.5,2.5c0,0,0,0,0,0h52c1.4,0,2.5-1.1,2.5-2.5s-1.1-2.5-2.5-2.5c0,0,0,0,0,0H6.5ZM6.5,30c-1.4,0-2.5,1.1-2.5,2.5,0,1.4,1.1,2.5,2.5,2.5,0,0,0,0,0,0h52c1.4,0,2.5-1.1,2.5-2.5s-1.1-2.5-2.5-2.5c0,0,0,0,0,0H6.5ZM6.5,44c-1.4,0-2.5,1.1-2.5,2.5s1.1,2.5,2.5,2.5c0,0,0,0,0,0h52c1.4,0,2.5-1.1,2.5-2.5s-1.1-2.5-2.5-2.5c0,0,0,0,0,0H6.5Z"/>
    <path class="st1" d="M58.5,31.5H6.5"/>
    <path class="st1" d="M58.5,17.5H6.5"/>
    <path class="st1" d="M58.5,45.5H6.5"/>
    <path class="st0" d="M41.5,43v-7.5c0-2.4,2-4,5.2-4s4.8,1.7,4.8,4v7.5"/>
    <circle class="st5" cx="46.5" cy="48.5" r="10.5"/>
    <circle class="st14" cx="46.5" cy="47.5" r="10.5"/>
    <circle class="st13" cx="46.5" cy="46.5" r="2.5"/>
    <path class="st13" d="M45,45v4.5c0,.8.7,1.5,1.5,1.5h0c.8,0,1.5-.7,1.5-1.5h0v-4.5h-3Z"/>
    <path class="st6" d="M46.5,37c-5.8,0-10.5,4.7-10.5,10.5h0c0,.2,0,.4,0,.6.2-5.6,4.8-10.1,10.5-10.1,5.6,0,10.2,4.3,10.5,9.9,0-.1,0-.3,0-.4,0-5.8-4.7-10.5-10.5-10.5h0Z"/>
  </g>
  <g class="st9">
    <path class="st2" d="M7.7,1.1C3.4,1.1,0,4.5,0,8.5v9.1C0,19.7.9,21.6,2.4,22.9.9,24.3,0,26.2,0,28.3v8.7C0,39.1.9,41,2.4,42.4.9,43.8,0,45.6,0,47.7v9.1C0,60.8,3.4,64.2,7.7,64.2h18.7c2.1,0,4-.9,5.4-2.2,1.4,1.3,3.3,2.2,5.4,2.2h18.7c4.2,0,7.7-3.4,7.7-7.4v-9.1c0-2-.9-3.9-2.4-5.3,1.5-1.4,2.4-3.3,2.4-5.4v-8.7c0-2.1-.9-4-2.4-5.4,1.5-1.4,2.4-3.2,2.4-5.3v-9.1c0-4-3.4-7.4-7.7-7.4h-18.7c-2.1,0-4,.9-5.4,2.2-1.4-1.3-3.3-2.2-5.4-2.2H7.7Z"/>
    <path class="st10" d="M7.7,0C3.4,0,0,3.4,0,7.4v9.1C0,18.6.9,20.5,2.4,21.8.9,23.2,0,25.1,0,27.2v8.7C0,38,.9,39.9,2.4,41.3.9,42.7,0,44.6,0,46.6v9.1C0,59.7,3.4,63.1,7.7,63.1h18.7c2.1,0,4-.9,5.4-2.2,1.4,1.3,3.3,2.2,5.4,2.2h18.7c4.2,0,7.7-3.4,7.7-7.4v-9.1c0-2-.9-3.9-2.4-5.3,1.5-1.4,2.4-3.3,2.4-5.4v-8.7c0-2.1-.9-4-2.4-5.4,1.5-1.4,2.4-3.2,2.4-5.3V7.4C63.5,3.4,60,0,55.8,0h-18.7C35,0,33.1.9,31.7,2.2,30.3.9,28.4,0,26.4,0H7.7Z"/>
    <path class="st5" d="M7.7,5.4c-1.7,0-3.1,1.4-3.1,3v9.1c0,1.7,1.4,3,3.1,3h18.7c1.7,0,3.1-1.4,3.1-3v-9.1c0-1.7-1.4-3-3.1-3,0,0-18.7,0-18.7,0ZM37.1,5.4c-1.7,0-3.1,1.4-3.1,3v9.1c0,1.7,1.4,3,3.1,3h18.7c1.7,0,3.1-1.4,3.1-3v-9.1c0-1.7-1.4-3-3.1-3,0,0-18.7,0-18.7,0ZM7.9,25c-1.9,0-3.4,1.5-3.4,3.3v8.7c0,1.8,1.5,3.3,3.4,3.3h4.5c1.9,0,3.4-1.5,3.4-3.3v-8.7c0-1.8-1.5-3.3-3.4-3.3h-4.5ZM23.2,25c-1.6,0-2.8,1.4-2.8,3v9.1c0,1.7,1.3,3,2.8,3h17c1.6,0,2.8-1.4,2.8-3v-9.1c0-1.7-1.3-3-2.8-3h-17ZM51,25c-1.9,0-3.4,1.5-3.4,3.3v8.7c0,1.8,1.5,3.3,3.4,3.3h4.5c1.9,0,3.4-1.5,3.4-3.3v-8.7c0-1.8-1.5-3.3-3.4-3.3h-4.5ZM7.7,44.6c-1.7,0-3.1,1.4-3.1,3v9.1c0,1.7,1.4,3,3.1,3h18.7c1.7,0,3.1-1.4,3.1-3v-9.1c0-1.7-1.4-3-3.1-3H7.7ZM37.1,44.6c-1.7,0-3.1,1.4-3.1,3v9.1c0,1.7,1.4,3,3.1,3h18.7c1.7,0,3.1-1.4,3.1-3v-9.1c0-1.7-1.4-3-3.1-3h-18.7Z"/>
    <path class="st17" d="M7.7,4.4c-1.7,0-3.1,1.4-3.1,3v9.1c0,1.7,1.4,3,3.1,3h18.7c1.7,0,3.1-1.4,3.1-3V7.4c0-1.7-1.4-3-3.1-3,0,0-18.7,0-18.7,0ZM37.1,4.4c-1.7,0-3.1,1.4-3.1,3v9.1c0,1.7,1.4,3,3.1,3h18.7c1.7,0,3.1-1.4,3.1-3V7.4c0-1.7-1.4-3-3.1-3h-18.7ZM7.9,24c-1.9,0-3.4,1.5-3.4,3.3v8.7c0,1.8,1.5,3.3,3.4,3.3h4.5c1.9,0,3.4-1.5,3.4-3.3v-8.7c0-1.8-1.5-3.3-3.4-3.3h-4.5ZM23.2,24c-1.6,0-2.8,1.4-2.8,3v9.1c0,1.7,1.3,3,2.8,3h17c1.6,0,2.8-1.4,2.8-3v-9.1c0-1.7-1.3-3-2.8-3h-17ZM51,24c-1.9,0-3.4,1.5-3.4,3.3v8.7c0,1.8,1.5,3.3,3.4,3.3h4.5c1.9,0,3.4-1.5,3.4-3.3v-8.7c0-1.8-1.5-3.3-3.4-3.3h-4.5ZM7.7,43.5c-1.7,0-3.1,1.4-3.1,3v9.1c0,1.7,1.4,3,3.1,3h18.7c1.7,0,3.1-1.4,3.1-3v-9.1c0-1.7-1.4-3-3.1-3H7.7ZM37.1,43.5c-1.7,0-3.1,1.4-3.1,3v9.1c0,1.7,1.4,3,3.1,3h18.7c1.7,0,3.1-1.4,3.1-3v-9.1c0-1.7-1.4-3-3.1-3h-18.7Z"/>
    <path class="st3" d="M7.7,0C3.4,0,0,3.4,0,7.4v1.1C0,4.5,3.4,1.1,7.7,1.1h18.7c2.1,0,4,.9,5.4,2.2,1.4-1.3,3.3-2.2,5.4-2.2h18.7c4.2,0,7.7,3.4,7.7,7.4v-1.1C63.5,3.4,60,0,55.8,0h-18.7C35,0,33.1.9,31.7,2.2,30.3.9,28.4,0,26.4,0,26.4,0,7.7,0,7.7,0ZM1.9,22.4C.7,23.7,0,25.4,0,27.2v1.1C0,26.2.9,24.3,2.4,22.9c-.2-.2-.4-.4-.5-.5ZM61.6,22.4c-.2.2-.3.4-.5.5,1.5,1.4,2.4,3.3,2.4,5.4v-1.1c0-1.8-.7-3.5-1.9-4.8ZM1.9,41.9c-1.1,1.3-1.9,3-1.9,4.7v1.1c0-2,.9-3.9,2.4-5.3-.2-.2-.4-.4-.5-.5ZM61.6,41.9c-.2.2-.3.4-.5.5,1.5,1.4,2.4,3.2,2.4,5.3v-1.1c0-1.8-.7-3.4-1.9-4.7Z"/>
  </g>
  <g>
    <path class="st2" d="M32.2,1.3c-.2,0-1,.5-1.9,1.1C22.7,7.8,11.9,13.4,1.7,14.8l-1.3.2v1.3c.2,2.1,1.6,7.9,2.8,11.9,1.6,5.1,3.4,9.4,5.8,13.9,5.3,10,12.1,16.3,20.3,21,1.1.6,2.1,1,2.9,1,.8,0,1.8-.4,2.9-1,8.3-4.8,15-11,20.3-21,2.4-4.4,4.1-8.7,5.8-13.9,1.3-4,2.6-9.7,2.7-11.9v-1.3c0,0-1.2-.2-1.2-.2-10.2-1.4-21-7-28.6-12.4-.9-.6-1.7-1.1-1.9-1.1Z"/>
    <path class="st11" d="M32.2.2c-.2,0-1,.5-1.9,1.1C22.7,6.7,11.9,12.3,1.7,13.7l-1.3.2v1.3c.2,2.1,1.6,7.9,2.8,11.9,1.6,5.1,3.4,9.4,5.8,13.9,5.3,10,12.1,16.3,20.3,21,1.1.6,2.1,1,2.9,1,.8,0,1.8-.4,2.9-1,8.3-4.8,15-11,20.3-21,2.4-4.4,4.1-8.7,5.8-13.9,1.3-4,2.6-9.7,2.7-11.9v-1.3c0,0-1.2-.2-1.2-.2-10.2-1.4-21-7-28.6-12.4-.9-.6-1.7-1.1-1.9-1.1Z"/>
    <path class="st5" d="M32.2,9.2c-6.6,4.4-14.7,8.7-23.7,11,.5,2.3.8,4,1.4,6.1,1.5,4.8,3.1,8.7,5.3,12.8,4.6,8.7,10,13.6,16.9,17.7,7-4.2,12.3-9.1,16.9-17.7,2.2-4.1,3.8-8,5.3-12.8.7-2.1.9-3.8,1.4-6.1-9-2.3-17-6.5-23.7-11Z"/>
    <path class="st12" d="M32.2,8c-6.6,4.4-14.7,8.7-23.7,11,.5,2.3.8,4,1.4,6.1,1.5,4.8,3.1,8.7,5.3,12.8,4.6,8.7,10,13.6,16.9,17.7,7-4.2,12.3-9.1,16.9-17.7,2.2-4.1,3.8-8,5.3-12.8.7-2.1.9-3.8,1.4-6.1-9-2.3-17-6.5-23.7-11Z"/>
    <rect class="st18" x="28.6" y="34.7" width="7.1" height="12.5"/>
    <path class="st5" d="M32.2,17l6.5,11.2,6.5,11.2h-25.9l6.5-11.2,6.5-11.2Z"/>
    <path class="st18" d="M32.2,15.8l6.5,11.2,6.5,11.2h-25.9l6.5-11.2,6.5-11.2Z"/>
    <path class="st5" d="M32.2,14.7l5.3,7.8,5.3,7.8h-21.2l5.3-7.8,5.3-7.8Z"/>
    <path class="st18" d="M32.2,13.6l5.3,7.8,5.3,7.8h-21.2l5.3-7.8,5.3-7.8Z"/>
    <path class="st7" d="M32.2.2c-.2,0-1,.5-1.9,1.1C22.7,6.7,11.9,12.3,1.7,13.7l-1.3.2v1.1c0,0,1.3-.2,1.3-.2,10.2-1.4,21-7,28.6-12.4.9-.6,1.7-1.1,1.9-1.1s1,.5,1.9,1.1c7.6,5.4,18.4,11,28.6,12.4l1.2.2v-1.1c0,0-1.2-.2-1.2-.2-10.2-1.4-21-7-28.6-12.4-.9-.6-1.7-1.1-1.9-1.1Z"/>
  </g>
</svg>