<?xml version="1.0" encoding="UTF-8"?>
<svg id="_图层_1" xmlns="http://www.w3.org/2000/svg" version="1.1" viewBox="0 0 64 64" width="32" height="32">
  <!-- Generator: Adobe Illustrator 29.0.1, SVG Export Plug-In . SVG Version: 2.1.0 Build 192)  -->
  <defs>
    <style>
      .st0, .st1, .st2, .st3, .st4, .st5, .st6, .st7, .st8 {
        isolation: isolate;
      }

      .st0, .st1, .st9, .st7, .st10, .st11 {
        display: none;
      }

      .st0, .st2, .st4, .st5, .st6, .st7 {
        opacity: .2;
      }

      .st1, .st12, .st4, .st6, .st7, .st8 {
        fill: #fff;
      }

      .st1, .st3, .st8 {
        opacity: .1;
      }

      .st2, .st4 {
        fill-rule: evenodd;
      }

      .st13 {
        fill: #4d4d4d;
      }

      .st14 {
        fill: #bababa;
      }

      .st15 {
        fill: #cc5e55;
      }

      .st16 {
        fill: #5bbc41;
      }

      .st17, .st11 {
        fill: #959595;
      }

      .st18 {
        fill: #565656;
      }

      .st10 {
        fill: #4f4f4f;
      }
    </style>
  </defs>
  <path class="st17" d="M50.3,64H13.8c-7.6,0-13.8-6.2-13.8-13.7V13.7C0,6.2,6.2,0,13.7,0h36.5c7.5,0,13.7,6.2,13.7,13.7v36.6c0,7.5-6.2,13.7-13.7,13.7h0Z"/>
  <g class="st9">
    <path class="st0" d="M0,58.7v2.7c0,2.2,1.5,4,3.4,4h56.8c1.9,0,3.4-1.8,3.4-4v-2.7c0,2.2-1.5,4-3.4,4H3.4c-1.9,0-3.4-1.8-3.4-4Z"/>
    <path class="st10" d="M63.6,60V4c0-2.2-1.5-4-3.4-4H3.4C1.5,0,0,1.8,0,4v56c0,2.2,1.5,4,3.4,4h56.8c1.9,0,3.4-1.8,3.4-4Z"/>
    <path class="st5" d="M0,16v-3.2C0,10.6,2.8-.2,14.9,0h35.3c3,0,9.7,2.6,9.7,4.9l3.7,11.2H0Z"/>
    <path class="st5" d="M1.3,8l1.2-2.3C3.6,3.8,9.7,0,11.6,0h38.6c4.2.2,10.8,3.5,10.8,5.7l1.4,2-61.2.4Z"/>
    <path class="st7" d="M3.4,0C1.5,0,0,1.8,0,4v1.3C0,3.1,1.5,1.3,3.4,1.3h56.8c1.9,0,3.4,1.8,3.4,4v-1.3c0-2.2-1.5-4-3.4-4H3.4Z"/>
    <path class="st6" d="M4.2,3.7C1.3,6.4,0,11.5,0,13.7v2.3h13.6v-8L7.2,1.8l-3,2Z"/>
    <path class="st4" d="M22.7,8L15.9,0h9.1l6.8,8h-9.1Z"/>
    <path class="st4" d="M22.7,8l-6.8,8h9.1l6.8-8h-9.1Z"/>
    <path class="st4" d="M38.6,8L31.8,0h9.1l6.8,8h-9.1Z"/>
    <path class="st4" d="M38.6,8l-6.8,8h9.1l6.8-8h-9.1Z"/>
    <path class="st4" d="M54.5,8L47.7,0h9.1l6.8,8h-9.1Z"/>
    <path class="st4" d="M54.5,8l-6.8,8h9.1l6.8-8h-9.1Z"/>
    <path class="st5" d="M44.3,38.7l-10.2,6.7-10.2,6.7v-13.3s0-13.3,0-13.3l10.2,6.7,10.2,6.7Z"/>
    <path class="st14" d="M44.3,37.3l-10.2,6.7-10.2,6.7v-13.3s0-13.3,0-13.3l10.2,6.7,10.2,6.7Z"/>
  </g>
  <g class="st9">
    <path class="st5" d="M28.1,8c-11.2,0-20.4,9.1-20.4,20.2,0,11.1,9.2,20.2,20.4,20.2,2.1,0,4.2-.4,6.2-1l4.9,4.9c1.8,1.8,4.6,3,7.2,2.9,2.5-.1,4.6-1.2,6.2-2.7,1.5-1.5,2.6-3.6,2.8-6.1.1-2.5-1.1-5.3-2.9-7.1h0c0,0-5.1-4.9-5.1-4.9.6-2,1-4,1-6.1h0c0-11.1-9.2-20.2-20.4-20.2h0Z"/>
    <path class="st16" d="M28.1,7.1c-11.2,0-20.4,9.1-20.4,20.2,0,11.1,9.2,20.2,20.4,20.2,2.1,0,4.2-.4,6.2-1l4.9,4.9c1.8,1.8,4.6,3,7.2,2.9,2.5-.1,4.6-1.2,6.2-2.7,1.5-1.5,2.6-3.6,2.8-6.1.1-2.5-1.1-5.3-2.9-7.1h0c0,0-5.1-4.9-5.1-4.9.6-2,1-4,1-6.1h0c0-11.1-9.2-20.2-20.4-20.2h0Z"/>
    <path class="st5" d="M33.8,37.3l10.4,10.3c2.4,2.5,6.1-1.2,3.6-3.6l-10.6-10.5c-4,1.3-2.3,1.3-3.5,3.7Z"/>
    <path class="st18" d="M33.8,36.5l10.4,10.3c2.4,2.5,6.1-1.2,3.6-3.6l-10.6-10.5c-4,1.3-2.3,1.3-3.5,3.7Z"/>
    <path class="st5" d="M28.1,14.7c-7.5,0-13.6,6-13.6,13.5,0,7.4,6.1,13.5,13.6,13.5s13.6-6,13.6-13.5-6.1-13.5-13.6-13.5ZM28.1,19.8c4.7,0,8.5,3.8,8.5,8.4h0c0,4.7-3.8,8.4-8.5,8.4h0c-4.7,0-8.5-3.8-8.5-8.4h0c0-4.7,3.8-8.4,8.5-8.4h0Z"/>
    <path class="st12" d="M28.1,13.9c-7.5,0-13.6,6-13.6,13.5s6.1,13.5,13.6,13.5,13.6-6,13.6-13.5-6.1-13.5-13.6-13.5ZM28.1,18.9c4.7,0,8.5,3.8,8.5,8.4h0c0,4.7-3.8,8.4-8.5,8.4h0c-4.7,0-8.5-3.8-8.5-8.4h0c0-4.7,3.8-8.4,8.5-8.4h0Z"/>
    <path class="st8" d="M28.1,7.1c-11.2,0-20.4,9.1-20.4,20.2,0,0,0,.2,0,.3.3-10.8,9.4-19.6,20.4-19.6,11,0,20.1,8.8,20.4,19.7,0-.1,0-.2,0-.3h0c0-11.1-9.2-20.2-20.4-20.2ZM47.9,33.8c-.1.4-.2.9-.4,1.3l.2.2c0-.2.1-.4.2-.7l4.7,4.6h0c1.7,1.5,2.8,3.9,2.9,6.3,0,0,0,0,0,0,.1-2.5-1.1-5.3-2.9-7.1h0c0,0-4.7-4.6-4.7-4.6Z"/>
  </g>
  <g class="st9">
    <path class="st0" d="M0,59.6v2.3c0,1.9,1.5,3.4,3.4,3.4h57.2c1.9,0,3.4-1.5,3.4-3.4v-2.3c0,1.9-1.5,3.4-3.4,3.4H3.4c-1.9,0-3.4-1.5-3.4-3.4Z"/>
    <path class="st11" d="M3.4,0h57.2c1.9,0,3.4,1.5,3.4,3.4v57.3c0,1.9-1.5,3.4-3.4,3.4H3.4c-1.9,0-3.4-1.5-3.4-3.4V3.4C0,1.5,1.5,0,3.4,0Z"/>
    <path class="st1" d="M3.4,0C1.5,0,0,1.5,0,3.4v1.1C0,2.7,1.5,1.1,3.4,1.1h57.2c1.9,0,3.4,1.5,3.4,3.4v-1.1c0-1.9-1.5-3.4-3.4-3.4H3.4Z"/>
    <path class="st3" d="M32,19.5h0c-4.8,0-8.9,1.8-10.6,4.3-.1.2-.3.4-.4.6-.1.2-.2.4-.3.6,0,0,0,.1,0,.2,0,.1,0,.3-.1.4,0,.2,0,.4,0,.6,0,.2,0,.4,0,.7,0,.2,0,.4.2.6,0,.2.2.4.3.6.1.2.2.4.4.6,1.7,2.6,5.9,4.3,10.6,4.3,4.7,0,8.9-1.7,10.6-4.3,0,0,0,0,0,0,.1-.2.2-.4.3-.5,0,0,0,0,0-.1,0-.2.1-.3.2-.5,0,0,0-.1,0-.2,0-.1,0-.3,0-.4,0-.1,0-.2,0-.3,0-.2,0-.4,0-.6,0-.2,0-.5,0-.7-.1-.7-.4-1.3-.8-1.9-1.7-2.5-5.8-4.3-10.6-4.3ZM21.4,32.1c-.6.7-.8,1.4-.8,2.2,0,3.2,5.1,5.8,11.4,5.8s11.4-2.6,11.4-5.8h0c0-.8-.3-1.5-.8-2.2-1.7,2.2-5.9,3.6-10.6,3.6-4.7,0-8.9-1.4-10.6-3.6ZM21.4,39c-.6.7-.8,1.4-.8,2.2,0,3.2,5.1,5.8,11.4,5.8h0c6.3,0,11.4-2.6,11.4-5.8,0-.8-.3-1.5-.8-2.2-1.7,2.2-5.9,3.6-10.6,3.6-4.7,0-8.9-1.4-10.6-3.6Z"/>
    <path class="st13" d="M32,18.3h0c-4.8,0-8.9,1.8-10.6,4.3-.1.2-.3.4-.4.6-.1.2-.2.4-.3.6,0,0,0,.1,0,.2,0,.1,0,.3-.1.4,0,.2,0,.4,0,.6,0,.2,0,.4,0,.7,0,.2,0,.4.2.6,0,.2.2.4.3.6.1.2.2.4.4.6,1.7,2.6,5.9,4.3,10.6,4.3,4.7,0,8.9-1.7,10.6-4.3,0,0,0,0,0,0,.1-.2.2-.4.3-.5,0,0,0,0,0-.1,0-.2.1-.3.2-.5,0,0,0-.1,0-.2,0-.1,0-.3,0-.4,0-.1,0-.2,0-.3,0-.2,0-.4,0-.6,0-.2,0-.5,0-.7-.1-.7-.4-1.3-.8-1.9-1.7-2.5-5.8-4.3-10.6-4.3ZM21.4,31c-.6.7-.8,1.4-.8,2.2,0,3.2,5.1,5.8,11.4,5.8s11.4-2.6,11.4-5.8h0c0-.8-.3-1.5-.8-2.2-1.7,2.2-5.9,3.6-10.6,3.6-4.7,0-8.9-1.4-10.6-3.6ZM21.4,37.8c-.6.7-.8,1.4-.8,2.2,0,3.2,5.1,5.8,11.4,5.8h0c6.3,0,11.4-2.6,11.4-5.8,0-.8-.3-1.5-.8-2.2-1.7,2.2-5.9,3.6-10.6,3.6-4.7,0-8.9-1.4-10.6-3.6Z"/>
  </g>
  <g>
    <path class="st0" d="M0,55.5v2.1c0,1.8,1.4,3.2,3.2,3.2h53c1.8,0,3.2-1.4,3.2-3.2v-2.1c0,1.8-1.4,3.2-3.2,3.2H3.2c-1.8,0-3.2-1.4-3.2-3.2Z"/>
    <path class="st11" d="M3.2,0h53c1.8,0,3.2,1.4,3.2,3.2v53.4c0,1.8-1.4,3.2-3.2,3.2H3.2c-1.8,0-3.2-1.4-3.2-3.2V3.2C0,1.4,1.4,0,3.2,0Z"/>
    <path class="st1" d="M3.2,0C1.4,0,0,1.4,0,3.2v1.1C0,2.5,1.4,1.1,3.2,1.1h53c1.8,0,3.2,1.4,3.2,3.2v-1.1c0-1.8-1.4-3.2-3.2-3.2H3.2Z"/>
    <path class="st3" d="M29.7,18.1h0c-4.4,0-8.2,1.7-9.8,4-.1.2-.2.4-.3.6,0,.2-.2.4-.2.6,0,0,0,.1,0,.2,0,.1,0,.3,0,.4,0,.2,0,.4,0,.6,0,.2,0,.4,0,.6,0,.2,0,.4.1.6,0,.2.1.4.2.6,0,.2.2.4.3.6,1.6,2.4,5.5,4,9.8,4,4.3,0,8.2-1.6,9.8-4,0,0,0,0,0,0,.1-.2.2-.3.3-.5,0,0,0,0,0,0,0-.1.1-.3.2-.4,0,0,0-.1,0-.2,0-.1,0-.2,0-.4,0,0,0-.2,0-.3,0-.2,0-.4,0-.5,0-.2,0-.4,0-.6,0-.6-.3-1.2-.7-1.8-1.6-2.3-5.4-4-9.8-4ZM19.9,29.9c-.5.6-.8,1.3-.8,2,0,3,4.7,5.4,10.6,5.4s10.6-2.4,10.6-5.4h0c0-.7-.3-1.4-.8-2-1.6,2.1-5.5,3.4-9.8,3.4-4.3,0-8.2-1.3-9.8-3.4ZM19.9,36.3c-.5.6-.8,1.3-.8,2,0,3,4.7,5.4,10.6,5.4h0c5.9,0,10.6-2.4,10.6-5.4,0-.7-.3-1.4-.8-2-1.6,2.1-5.5,3.4-9.8,3.4-4.3,0-8.2-1.3-9.8-3.4Z"/>
    <path class="st13" d="M29.7,17.1h0c-4.4,0-8.2,1.7-9.8,4-.1.2-.2.4-.3.6,0,.2-.2.4-.2.6,0,0,0,.1,0,.2,0,.1,0,.3,0,.4,0,.2,0,.4,0,.6,0,.2,0,.4,0,.6,0,.2,0,.4.1.6,0,.2.1.4.2.6,0,.2.2.4.3.6,1.6,2.4,5.5,4,9.8,4,4.3,0,8.2-1.6,9.8-4,0,0,0,0,0,0,.1-.2.2-.3.3-.5,0,0,0,0,0,0,0-.1.1-.3.2-.4,0,0,0-.1,0-.2,0-.1,0-.2,0-.4,0,0,0-.2,0-.3,0-.2,0-.4,0-.5,0-.2,0-.4,0-.6,0-.6-.3-1.2-.7-1.8-1.6-2.3-5.4-4-9.8-4ZM19.9,28.8c-.5.6-.8,1.3-.8,2,0,3,4.7,5.4,10.6,5.4s10.6-2.4,10.6-5.4h0c0-.7-.3-1.4-.8-2-1.6,2.1-5.5,3.4-9.8,3.4-4.3,0-8.2-1.3-9.8-3.4ZM19.9,35.2c-.5.6-.8,1.3-.8,2,0,3,4.7,5.4,10.6,5.4h0c5.9,0,10.6-2.4,10.6-5.4,0-.7-.3-1.4-.8-2-1.6,2.1-5.5,3.4-9.8,3.4-4.3,0-8.2-1.3-9.8-3.4Z"/>
    <path class="st2" d="M63.7,44.7c-.5,9.1-7.9,16.2-16.9,16.2-8.9,0-16.3-6.9-16.9-15.8,0,.3,0,.6,0,.9,0,9.4,7.6,17.1,17,17.1s17-7.6,17-17.1c0-.4,0-.8,0-1.2Z"/>
    <ellipse class="st15" cx="46.6" cy="44.8" rx="17" ry="17.1"/>
    <path class="st12" d="M44.5,36.3l-.2,2.2c-.7.3-1.4.6-1.9,1.1l-2-1-2.1,3.7,1.8,1.3c0,.4,0,.8-.1,1.1,0,.4,0,.8,0,1.1l-1.8,1.3,2.1,3.7,2-1c.6.5,1.2.9,2,1.1l.2,2.3h4.2l.2-2.2c.7-.3,1.4-.6,1.9-1.1l2,1,2.1-3.7-1.8-1.3c0-.4,0-.8.1-1.1,0-.4,0-.8,0-1.1l1.8-1.3-2.1-3.7-2,1c-.6-.5-1.2-.9-2-1.1l-.2-2.3h-4.2,0ZM46.6,42.4c1.3,0,2.4,1.1,2.4,2.4h0c0,1.3-1.1,2.4-2.4,2.4h0c-1.3,0-2.4-1.1-2.4-2.4h0c0-1.3,1.1-2.4,2.4-2.4h0Z"/>
  </g>
</svg>