<?xml version="1.0" encoding="UTF-8"?>
<svg id="_图层_1" data-name="图层_1" xmlns="http://www.w3.org/2000/svg" version="1.1" viewBox="0 0 64 64" width="32" height="32">
  <!-- Generator: Adobe Illustrator 29.0.1, SVG Export Plug-In . SVG Version: 2.1.0 Build 192)  -->
  <defs>
    <style>
      .st0 {
        fill: #2769bc;
      }

      .st1, .st2, .st3 {
        fill: #fff;
      }

      .st2 {
        opacity: .5;
      }

      .st2, .st4, .st5, .st3 {
        isolation: isolate;
      }

      .st4 {
        opacity: .3;
      }

      .st5 {
        opacity: .2;
      }

      .st3 {
        opacity: .1;
      }
    </style>
  </defs>
  <rect class="st0" width="64" height="64" rx="14" ry="14"/>
  <path class="st5" d="M11,13.7h43.6c1.9,0,3.5,1.5,3.5,3.3v31.2c0,1.8-1.6,3.3-3.5,3.3H11c-1.9,0-3.5-1.5-3.5-3.3v-31.2c0-1.8,1.6-3.3,3.5-3.3Z"/>
  <path class="st0" d="M11,12.9h43.6c1.9,0,3.5,1.5,3.5,3.3v31.2c0,1.8-1.6,3.3-3.5,3.3H11c-1.9,0-3.5-1.5-3.5-3.3v-31.2c0-1.8,1.6-3.3,3.5-3.3Z"/>
  <path class="st5" d="M32.8,19.5c-5.3,0-9.6,4-9.6,9s4.3,9,9.6,9,9.6-4,9.6-9-4.3-9-9.6-9ZM29.3,23.6h1c.2,0,.3,0,.5.1l6.8,3.9c.3.2.5.5.5.9s-.2.7-.5.9l-6.8,3.9c-.1,0-.3.1-.5.1h-1v-9.8Z"/>
  <path class="st1" d="M32.8,18.7c-5.3,0-9.6,4-9.6,9s4.3,9,9.6,9,9.6-4,9.6-9-4.3-9-9.6-9ZM29.3,22.8h1c.2,0,.3,0,.5.1l6.8,3.9c.3.2.5.5.5.9s-.2.7-.5.9l-6.8,3.9c-.1,0-.3.1-.5.1h-1v-9.8Z"/>
  <path class="st2" d="M19.3,42.4h27c.7,0,1.3.6,1.3,1.2h0c0,.7-.6,1.2-1.3,1.2h-27c-.7,0-1.3-.6-1.3-1.2h0c0-.7.6-1.2,1.3-1.2Z"/>
  <path class="st5" d="M25.4,40.8h0c2.2,0,3.9,1.7,3.9,3.7h0c0,2-1.8,3.7-3.9,3.7h0c-2.2,0-3.9-1.7-3.9-3.7h0c0-2,1.8-3.7,3.9-3.7Z"/>
  <path class="st1" d="M25.4,40h0c2.2,0,3.9,1.7,3.9,3.7h0c0,2-1.8,3.7-3.9,3.7h0c-2.2,0-3.9-1.7-3.9-3.7h0c0-2,1.8-3.7,3.9-3.7Z"/>
  <path class="st4" d="M11,12.9v3.3h3.5v-3.3h-3.5ZM51.1,12.9v3.3h3.5v-3.3h-3.5ZM11,19.5v3.3h3.5v-3.3h-3.5ZM51.1,19.5v3.3h3.5v-3.3h-3.5ZM11,26v3.3h3.5v-3.3h-3.5ZM51.1,26v3.3h3.5v-3.3h-3.5ZM11,32.6v3.3h3.5v-3.3h-3.5ZM51.1,32.6v3.3h3.5v-3.3h-3.5ZM11,39.2v3.3h3.5v-3.3h-3.5ZM51.1,39.2v3.3h3.5v-3.3h-3.5ZM11,45.7v3.3h3.5v-3.3h-3.5ZM51.1,45.7v3.3h3.5v-3.3h-3.5Z"/>
  <path class="st3" d="M11,12.9c-1.9,0-3.5,1.5-3.5,3.3v.8c0-1.8,1.6-3.3,3.5-3.3h43.6c1.9,0,3.5,1.5,3.5,3.3v-.8c0-1.8-1.6-3.3-3.5-3.3H11Z"/>
</svg>
