<?xml version="1.0" encoding="UTF-8"?>
<svg id="_图层_1" xmlns="http://www.w3.org/2000/svg" version="1.1" viewBox="0 0 64 64" width="32" height="32">
  <!-- Generator: Adobe Illustrator 29.0.1, SVG Export Plug-In . SVG Version: 2.1.0 Build 192)  -->
  <defs>
    <style>
      .st0 {
        fill: #fec006;
      }

      .st1, .st2 {
        fill: #fff;
      }

      .st3, .st2 {
        isolation: isolate;
        opacity: .2;
      }

      .st4 {
        fill: #3f89db;
      }

      .st5 {
        fill: #55b65a;
      }

      .st6 {
        fill: #fe6c06;
      }
    </style>
  </defs>
  <path class="st4" d="M47.5,64.1H13.8c-7.6,0-13.8-6.3-13.8-13.8V13.7C0,6.2,6.2,0,13.7,0h36.6c7.5,0,13.7,6.2,13.7,13.7v36.6c0,7.5-6.2,13.7-13.7,13.7h-2.9.1Z"/>
  <path class="st5" d="M42.5,11.7h18.7c1.5,0,2.8,1.3,2.8,2.8v10.1c0,1-.8,1.8-1.8,1.8h-19.7v-14.7h0Z"/>
  <path class="st0" d="M45.5,24.1h16.2c1.3,0,2.3,1,2.3,2.3v11.2c0,1.3-1,2.3-2.3,2.3h-16.2v-15.9h0Z"/>
  <path class="st6" d="M43.6,36.9h18.1c1.3,0,2.4,1.1,2.4,2.4v10.3c0,1.2-1,2.3-2.3,2.3h-18.2v-15h0Z"/>
  <rect class="st4" x="17.7" y="8.9" width="32.3" height="47.3"/>
  <path class="st3" d="M26.5,15.4c-8.8,0-16,7.2-16,16.2s7.2,16.2,16,16.2h10s1.9,0,2-2c0-2-2-2-2-2h-10c-6.7,0-12-5.5-12-12.1s5.4-12.1,12-12.1,12,5.5,12,12.1v2c0,1.1-.9,2-2,2s-2-.9-2-2v-2c0-4.5-3.6-8.1-8-8.1s-8,3.6-8,8.1,3.6,8.1,8,8.1,4-.8,5.4-2.2c1.1,1.3,2.8,2.2,4.6,2.2,3.3,0,6-2.7,6-6v-2c0-8.9-7.2-16.2-16-16.2h.1v-.2ZM26.5,27.5c2.2,0,4,1.8,4,4s-1.8,4-4,4-4-1.8-4-4,1.8-4,4-4Z"/>
  <path class="st1" d="M26.5,14.2c-8.8,0-16,7.2-16,16.2s7.2,16.2,16,16.2h10s1.9,0,2-2c0-2-2-2-2-2h-10c-6.7,0-12-5.5-12-12.1s5.4-12.1,12-12.1,12,5.5,12,12.1v2c0,1.1-.9,2-2,2s-2-.9-2-2v-2c0-4.5-3.6-8.1-8-8.1s-8,3.6-8,8.1,3.6,8.1,8,8.1,4-.8,5.4-2.2c1.1,1.3,2.8,2.2,4.6,2.2,3.3,0,6-2.7,6-6v-2c0-8.9-7.2-16.2-16-16.2h.1v-.2ZM26.5,26.4c2.2,0,4,1.8,4,4s-1.8,4-4,4-4-1.8-4-4,1.8-4,4-4Z"/>
  <path class="st2" d="M49.9,24.1h11.7c1.3,0,2.3,1,2.3,2.3v.3h-14v-2.6h0Z"/>
  <path class="st2" d="M49.9,11.7h11.4c1.4,0,2.6,1.2,2.6,2.6v.3h-14v-3h0Z"/>
  <path class="st2" d="M49.9,36.9h11.7c1.3,0,2.4,1.1,2.4,2.4v.3h-14.1v-2.7h0Z"/>
</svg>