<?xml version="1.0" encoding="UTF-8"?>
<svg id="_图层_1" xmlns="http://www.w3.org/2000/svg" version="1.1" viewBox="0 0 64 64" width="32" height="32">
  <!-- Generator: Adobe Illustrator 29.0.1, SVG Export Plug-In . SVG Version: 2.1.0 Build 192)  -->
  <defs>
    <style>
      .st0 {
        fill: #366a90;
      }

      .st1, .st2 {
        fill: #4f4f4f;
      }

      .st3 {
        fill: #ffbb30;
      }

      .st4 {
        fill: #db3151;
      }

      .st5, .st6, .st7, .st8, .st9, .st10, .st11, .st12, .st13 {
        isolation: isolate;
      }

      .st5, .st6, .st14, .st2 {
        display: none;
      }

      .st5, .st11, .st12 {
        opacity: .2;
      }

      .st6, .st15, .st9, .st12, .st13 {
        fill: #fff;
      }

      .st6, .st8, .st13 {
        opacity: .1;
      }

      .st16 {
        fill: #6155db;
      }

      .st17 {
        fill: #3f3f3f;
      }

      .st18 {
        fill: #8d4e0a;
      }

      .st19 {
        fill: #f14649;
      }

      .st20 {
        fill: #379dc7;
      }

      .st7 {
        opacity: .2;
      }

      .st21 {
        fill: #2f5d7c;
      }

      .st22 {
        stroke-width: 4px;
      }

      .st22, .st23 {
        fill: none;
        stroke: #e4e4e4;
        stroke-linecap: round;
        stroke-linejoin: round;
      }

      .st24 {
        fill: #649cff;
      }

      .st9 {
        opacity: .5;
      }

      .st23 {
        stroke-width: 8px;
      }

      .st10 {
        opacity: .3;
      }

      .st25 {
        fill: #83929a;
      }

      .st26 {
        fill: #6e7e87;
      }

      .st27 {
        fill: #a9a9a9;
      }

      .st28 {
        fill: #447ede;
      }

      .st29 {
        fill: #e4e4e4;
      }

      .st30 {
        fill: #dfd92a;
      }
    </style>
  </defs>
  <path class="st1" d="M50.4,64H13.8c-7.6,0-13.8-6.2-13.8-13.7V13.7C0,6.2,6.2,0,13.7,0h36.6c7.5,0,13.7,6.2,13.7,13.7v36.6c0,7.5-6.2,13.7-13.7,13.7h.1Z"/>
  <g class="st14">
    <path class="st11" d="M31.3,19.2c-6.5,0-11.7,5-11.7,11.1s5.2,11.1,11.7,11.1,11.7-5,11.7-11.1-5.2-11.1-11.7-11.1ZM27.1,24.3h1.2c.2,0,.4,0,.6.1l8.3,4.8c.4.2.6.6.6,1.1s-.2.9-.6,1.1l-8.3,4.8c-.1,0-.4.1-.6.1h-1.2s0-12.1,0-12.1Z"/>
    <path class="st15" d="M31.3,18.2c-6.5,0-11.7,5-11.7,11.1s5.2,11.1,11.7,11.1,11.7-5,11.7-11.1-5.2-11.1-11.7-11.1ZM27.1,23.3h1.2c.2,0,.4,0,.6.1l8.3,4.8c.4.2.6.6.6,1.1s-.2.9-.6,1.1l-8.3,4.8c-.1,0-.4.1-.6.1h-1.2v-12.1Z"/>
    <path class="st9" d="M14.9,47.6h32.9c.9,0,1.6.7,1.6,1.5h0c0,.9-.7,1.5-1.6,1.5H14.9c-.9,0-1.6-.7-1.6-1.5h0c0-.9.7-1.5,1.6-1.5Z"/>
    <path class="st11" d="M22.3,45.6h0c2.7,0,4.8,2.1,4.8,4.6h0c0,2.5-2.2,4.6-4.8,4.6h0c-2.7,0-4.8-2.1-4.8-4.6h0c0-2.5,2.2-4.6,4.8-4.6Z"/>
    <path class="st15" d="M22.3,44.6h0c2.7,0,4.8,2.1,4.8,4.6h0c0,2.5-2.2,4.6-4.8,4.6h0c-2.7,0-4.8-2.1-4.8-4.6h0c0-2.5,2.2-4.6,4.8-4.6Z"/>
    <path class="st10" d="M4.7,11.1v4.1h4.3v-4.1s-4.3,0-4.3,0ZM53.7,11.1v4.1h4.3v-4.1s-4.3,0-4.3,0ZM4.7,19.2v4.1h4.3v-4.1h-4.3ZM53.7,19.2v4.1h4.3v-4.1h-4.3ZM4.7,27.3v4.1h4.3v-4.1h-4.3ZM53.7,27.3v4.1h4.3v-4.1h-4.3ZM4.7,35.4v4.1h4.3v-4.1h-4.3ZM53.7,35.4v4.1h4.3v-4.1h-4.3ZM4.7,43.6v4.1h4.3v-4.1h-4.3ZM53.7,43.6v4.1h4.3v-4.1h-4.3ZM4.7,51.7v4.1h4.3v-4.1h-4.3ZM53.7,51.7v4.1h4.3v-4.1h-4.3Z"/>
  </g>
  <g class="st14">
    <path class="st11" d="M9,7.3c-2.2,0-4,1.8-4,4v28c0,2.2,1.8,4,4,4h32c2.2,0,4-1.8,4-4V11.3c0-2.2-1.8-4-4-4H9ZM13,15.3h24v20H13V15.3ZM50,16.3c-1.1,0-2,.9-2,2v28H14c-1.1,0-2,.9-2,2s.9,2,2,2h36c1.1,0,2-.9,2-2v-30c0-1.1-.9-2-2-2ZM57,23.3c-1.1,0-2,.9-2,2v28H21c-1.1,0-2,.9-2,2s.9,2,2,2h36c1.1,0,2-.9,2-2v-30c0-1.1-.9-2-2-2Z"/>
    <path class="st22" d="M14,47.3h36v-30"/>
    <path class="st23" d="M9,10.3h32v28H9V10.3Z"/>
    <path class="st22" d="M21,54.3h36v-30"/>
    <rect class="st17" x="9" y="10.3" width="32" height="28"/>
    <path class="st12" d="M9,6.3c-2.2,0-4,1.8-4,4v1c0-2.2,1.8-4,4-4h32c2.2,0,4,1.8,4,4v-1c0-2.2-1.8-4-4-4H9ZM50,15.3c-1.1,0-2,.9-2,2v1c0-1.1.9-2,2-2s2,.9,2,2v-1c0-1.1-.9-2-2-2ZM57,22.3c-1.1,0-2,.9-2,2v1c0-1.1.9-2,2-2s2,.9,2,2v-1c0-1.1-.9-2-2-2ZM14,45.3c-1.1,0-2,.9-2,2,0,.2,0,.3.1.5.2-.9,1-1.5,1.9-1.5h34v-1H14ZM21,52.3c-1.1,0-2,.9-2,2,0,.2,0,.3.1.5.2-.9,1-1.5,1.9-1.5h34v-1H21Z"/>
    <rect class="st11" x="9" y="10.3" width="32" height="1"/>
  </g>
  <g class="st14">
    <path class="st11" d="M43.6,26.3l12.4,6.8v13.7l-12.4,6.8-12.4-6.8v-13.7s12.4-6.8,12.4-6.8Z"/>
    <path class="st11" d="M18.8,26.3l12.4,6.8v13.7l-12.4,6.8-12.4-6.8v-13.7s12.4-6.8,12.4-6.8Z"/>
    <path class="st26" d="M43.6,25.4l12.4,6.8v13.7l-12.4,6.8-12.4-6.8v-13.7s12.4-6.8,12.4-6.8Z"/>
    <path class="st7" d="M43.6,25.4l12.4,6.8v13.7l-12.4,6.8v-27.4Z"/>
    <path class="st25" d="M43.6,25.4l-12.4,6.8,12.4,6.8,12.4-6.8-12.4-6.8Z"/>
    <path class="st21" d="M18.8,25.4l12.4,6.8v13.7l-12.4,6.8-12.4-6.8v-13.7s12.4-6.8,12.4-6.8Z"/>
    <path class="st11" d="M18.8,25.4l12.4,6.8v13.7l-12.4,6.8v-27.4Z"/>
    <path class="st0" d="M18.8,25.4l-12.4,6.8,12.4,6.8,12.4-6.8-12.4-6.8Z"/>
    <path class="st11" d="M31.2,6l12.4,6.8v13.7l-12.4,6.8-12.4-6.8v-13.7s12.4-6.8,12.4-6.8Z"/>
    <path class="st28" d="M31.2,5.2l12.4,6.8v13.7l-12.4,6.8-12.4-6.8v-13.7s12.4-6.8,12.4-6.8Z"/>
    <path class="st11" d="M31.2,5.2l12.4,6.8v13.7l-12.4,6.8V5.2Z"/>
    <path class="st24" d="M31.2,5.2l-12.4,6.8,12.4,6.8,12.4-6.8-12.4-6.8Z"/>
    <path class="st8" d="M32,32.7l-.8.4,12.4,6.8,12.4-6.8-.8-.4-11.7,6.4-11.7-6.4Z"/>
    <path class="st8" d="M7.1,32.7l-.8.4,12.4,6.8,12.4-6.8-.8-.4-11.7,6.4-11.7-6.4Z"/>
    <path class="st8" d="M19.6,12.4l-.8.4,12.4,6.8,12.4-6.8-.8-.4-11.7,6.4-11.7-6.4Z"/>
    <path class="st13" d="M43.6,25.4v.9l11.7,6.4.8-.4-12.4-6.8Z"/>
    <path class="st13" d="M18.8,25.4l-12.4,6.8.8.4,11.7-6.4v-.9Z"/>
    <path class="st12" d="M31.2,5.2l-12.4,6.8.8.4,11.7-6.4,11.7,6.4.8-.4-12.4-6.8Z"/>
  </g>
  <g class="st14">
    <path class="st11" d="M10,3.1C5.8,3.1,1.6,7.3,1.6,11.5v44.6c0,1.5,1.5,3,3,3h44.6c4.2,0,8.4-4.2,8.4-8.4C57.6,22.7,38,3.1,10,3.1Z"/>
    <path class="st30" d="M57.6,49.7C57.6,21.7,38,2.1,10,2.1S1.6,6.3,1.6,10.5v39.2c0,4.2,4.2,8.4,8.4,8.4h39.2c4.2,0,8.4-4.2,8.4-8.4Z"/>
    <path class="st4" d="M40.6,52.3c0-19.5-13.7-33.2-33.2-33.2s-5.9,2.9-5.9,5.9v27.3c0,2.9,2.9,5.8,5.9,5.8h27.3c2.9,0,5.8-2.9,5.9-5.8Z"/>
    <path class="st17" d="M21.6,55.1c0-10-7-17-17-17s-3,1.5-3,3v14c0,1.5,1.5,3,3,3h14c1.5,0,3-1.5,3-3Z"/>
    <path class="st12" d="M10,2.1C5.8,2.1,1.6,6.3,1.6,10.5v1C1.6,7.3,5.8,3.1,10,3.1c27.8,0,47.2,19.3,47.6,46.9,0,0,0-.2,0-.3C57.6,21.7,38,2.1,10,2.1Z"/>
    <path class="st8" d="M7.4,19.1c-2.9,0-5.8,2.9-5.8,5.8v1c0-2.9,2.9-5.8,5.8-5.8,19.3,0,32.8,13.3,33.1,32.4,0,0,0-.2,0-.3,0-19.5-13.7-33.2-33.2-33.2Z"/>
    <path class="st8" d="M4.6,38.1c-1.5,0-3,1.5-3,3v1c0-1.5,1.5-3,3-3,9.8,0,16.6,6.7,17,16.3,0,0,0-.2,0-.3,0-10-7-17-17-17Z"/>
  </g>
  <g class="st14">
    <path class="st5" d="M0,10c-.6,13.6,8.8,41.5,18.9,50.3,8.2,7.1,20,7.6,33.7-8,8.3-9.5,11.6-17.6,11.2-24.4-.4,6.3-3.8,13.7-11.2,22.1-13.6,15.5-25.5,15.1-33.7,8C9.4,49.7.5,24.3,0,10Z"/>
    <path class="st2" d="M52.6,51.2c-13.6,15.5-25.5,15.1-33.7,8C6.7,48.5-4.6,9.7,1.9,2.4c6.5-7.3,47.1,3.8,55.8,12,8.7,8.1,9.3,20.6-5,36.9h0Z"/>
    <path class="st6" d="M10.3,0C6.3,0,3.3.8,1.9,2.4.5,3.9,0,6.9,0,10.6c0-3.2.6-5.7,1.8-7.1C3.5,1.7,7.2,1,12.1,1.2h0c14.6.4,39.1,8.2,45.6,14.3,3.8,3.5,6,7.9,6.2,13,.2-5.6-2.1-10.4-6.2-14.2C51.1,8.3,26.7.4,12.1,0h0c-.6,0-1.2,0-1.8,0Z"/>
    <path class="st11" d="M24,24c-3.2,0-5.8.9-7.6,2.7-1.8,1.8-2.7,4.3-2.7,7.6s.9,5.7,2.7,7.6c1.8,1.8,4.4,2.7,7.6,2.7s2.9-.2,4.2-.6c1.3-.4,2.7-.9,3.8-1.7v-9.2h-8v2.3h5.7v5.9c-.6.3-1.3.6-2.1.8-.8.2-2.3.2-3.3.2-2.5,0-5-.7-6.3-2-1.3-1.4-2-3.4-2-6s.7-4.7,2-6.1c1.3-1.4,3.7-2,6.3-2s2.2.2,3.3.6,2.2,1.1,3.2,1.9v-2.9c-1-.6-2.1-1.1-3.3-1.4-1.2-.3-2.1-.5-3.5-.5ZM36.5,24v20.6h2.3v-8h4c2.3,0,4.4-.5,5.6-1.5,1.2-1,1.8-2.5,1.8-4.4s-.6-4.1-1.8-5.1c-1.2-1-3.3-1.6-5.6-1.6h-6.3ZM38.8,26.3h4.2c1.6,0,2.8.3,3.6,1,.9.6,1.3,2.2,1.3,3.4s-.4,2.1-1.3,2.7-2.1,1-3.6,1h-4.2v-8h0s0,0,0,0Z"/>
    <path class="st15" d="M24,22.8c-3.2,0-5.8.9-7.6,2.7-1.8,1.8-2.7,4.3-2.7,7.6s.9,5.7,2.7,7.6c1.8,1.8,4.4,2.7,7.6,2.7s2.9-.2,4.2-.6c1.3-.4,2.7-.9,3.8-1.7v-9.2h-8v2.3h5.7v5.9c-.6.3-1.3.6-2.1.8-.8.2-2.3.2-3.3.2-2.5,0-5-.7-6.3-2-1.3-1.4-2-3.4-2-6s.7-4.7,2-6.1c1.3-1.4,3.7-2,6.3-2s2.2.2,3.3.6,2.2,1.1,3.2,1.9v-2.9c-1-.6-2.1-1.1-3.3-1.4-1.2-.3-2.1-.5-3.5-.5Z"/>
    <path class="st19" d="M36.5,22.8v20.6h2.3v-8h4c2.3,0,4.4-.5,5.6-1.5,1.2-1,1.8-2.5,1.8-4.4s-.6-4.1-1.8-5.1c-1.2-1-3.3-1.6-5.6-1.6h-6.3ZM38.8,25.1h4.2c1.6,0,2.8.3,3.6,1,.9.6,1.3,2.2,1.3,3.4s-.4,2.1-1.3,2.7c-.9.6-2.1,1-3.6,1h-4.2v-8h0Z"/>
  </g>
  <g class="st14">
    <path class="st11" d="M43.5,16c3.8,3.8,5.2,10,1.4,13.9-1,1-2.2,1.8-3.5,2.3v25l-.2.2-3.8,3.2-3.8-3.2-.3-.2v-3.9c0,0-3-3.6-3-3.6l3-3.4v-2.8l-2.9-3.6,2.9-2.6v-5.1c-1.3-.5-2.7-1.3-3.7-2.3-3.8-3.8-3.8-10,0-13.9,1.8-1.8.5,7.2,3.1,7.2h0l2.3-.9c2.6,0,6.6-8.1,8.5-6.3h0ZM37,24.5c-1.6-1.6-1.3-5.3-2.9-3.7-1.6,1.6-2.1-.6-.5,1,1.6,1.6,4.3,1.6,5.9,0,1.6-1.6-.9,4.3-2.5,2.6Z"/>
    <path class="st11" d="M42.3,20.3c0,5.4-3.4,10.8-8.8,10.8-1.4,0-2.8-.3-4.1-.9l-17.7,18.3h-.3s-6,0-6,0v-5s0-.3,0-.3l3.4-3,.7-.8v-4.9c0,0,4.2,0,4.2,0l1.7-2v-4h4l4.4-3.9c-.6-1.3-1.1-2.9-1.1-4.3,0-5.4,4.4-9.8,9.8-9.8,2.6,0-4.7,5.5-2.9,7.3h0l2.3,1c1.8,1.8,10.4-1,10.4,1.5h0ZM31.6,21.8c0-2.3,2.9-4.7.5-4.7-2.3,0-1.1-1.9-1.1.4,0,2.3,1.9,4.2,4.2,4.2,2.3,0-3.6,2.4-3.6,0Z"/>
    <path class="st29" d="M43.5,15c3.8,3.8,5.2,10,1.4,13.9-1,1-2.2,1.8-3.5,2.3v25l-.2.2-3.8,3.2-3.8-3.2-.3-.2v-3.9c0,0-3-3.6-3-3.6l3-3.4v-2.8l-2.9-3.6,2.9-2.6v-5.1c-1.3-.5-2.7-1.3-3.7-2.3-3.8-3.8-3.8-10,0-13.9,1.8-1.8.5,7.2,3.1,7.2h0l2.3-.9c2.6,0,6.6-8.1,8.5-6.3h0ZM37,23.5c-1.6-1.6-1.3-5.3-2.9-3.7-1.6,1.6-2.1-.6-.5,1,1.6,1.6,4.3,1.6,5.9,0,1.6-1.6-.9,4.3-2.5,2.6Z"/>
    <path class="st11" d="M29.4,28.5h0c0,.1.2.2.2.3,1,1,2.5,1.8,3.8,2.3v5.1c0,0-3,2.6-3,2.6l2.9,3.6v2.8l-3,3.4,2.9,3.6v1c0,0,0,2.8,0,2.8l.3.2,3.8,3.2v-31h-8Z"/>
    <path class="st11" d="M37.4,10.5c-3.1,0-6.1,1.2-8.5,3.5-4.7,4.7-4.7,12.3,0,17,4.7,4.7,12.3,4.7,17,0,4.7-4.7,4.7-12.3,0-17s-5.4-3.5-8.5-3.5ZM37.4,13.5c.8,0,1.5.3,2.1.9,1.2,1.2,1.2,3.1,0,4.2-1.2,1.2-3.1,1.2-4.2,0s-1.2-3.1,0-4.2c.6-.6,1.4-.9,2.1-.9Z"/>
    <path class="st20" d="M37.4,9.5c-3.1,0-6.1,1.2-8.5,3.5-4.7,4.7-4.7,12.3,0,17,4.7,4.7,12.3,4.7,17,0,4.7-4.7,4.7-12.3,0-17s-5.4-3.5-8.5-3.5ZM37.4,12.5c.8,0,1.5.3,2.1.9,1.2,1.2,1.2,3.1,0,4.2-1.2,1.2-3.1,1.2-4.2,0s-1.2-3.1,0-4.2c.6-.6,1.4-.9,2.1-.9Z"/>
    <path class="st13" d="M37.4,9.5c-3.1,0-6.1,1.2-8.5,3.5-2.5,2.5-3.6,5.7-3.5,9,.1-2.9,1.3-5.8,3.5-8,2.3-2.3,5.4-3.5,8.5-3.5s6.1,1.2,8.5,3.5c2.2,2.2,3.4,5.1,3.5,8,.1-3.2-1-6.5-3.5-9-2.3-2.3-5.4-3.5-8.5-3.5ZM34.4,16c-.2.9.1,1.9.8,2.6,1.2,1.2,3.1,1.2,4.2,0,.7-.7,1-1.7.8-2.6,0,.6-.4,1.2-.8,1.6-1.2,1.2-3.1,1.2-4.2,0-.5-.5-.7-1-.8-1.6Z"/>
    <path class="st29" d="M42.3,19.3c0,5.4-3.4,10.8-8.8,10.8-1.4,0-2.8-.3-4.1-.9l-17.7,18.3h-.3s-6,0-6,0v-5s0-.3,0-.3l3.4-3,.7-.8v-4.9c0,0,4.2,0,4.2,0l1.7-2v-4h4l4.4-3.9c-.6-1.3-1.1-2.9-1.1-4.3,0-5.4,4.4-9.8,9.8-9.8,2.6,0-4.7,5.5-2.9,7.3h0l2.3,1c1.8,1.8,10.4-1,10.4,1.5h0ZM31.6,20.8c0-2.3,2.9-4.7.5-4.7-2.3,0-1.1-1.9-1.1.4,0,2.3,1.9,4.2,4.2,4.2,2.3,0-3.6,2.4-3.6,0Z"/>
    <path class="st11" d="M29,11.9l-6.3,6.3c0,.3,0,.7,0,1,0,1.4.5,3,1.1,4.3l-4.4,3.9h-4v4l-1.7,2h-4.3s0,4.9,0,4.9l-.7.8-3.4,3v.3c0,0,0,5,0,5l29.1-29.1c-.8,0-1.5,0-2-.3-.2.3-.3.6-.5,1-.4-.5-.7-1-.8-1.6l-1.6-.7c-.7-.7,0-2,1-3.4l-1.5-1.5ZM31.2,17.5l.7.3c.2.2.4.3.6.4.6-1.2,1-2-.3-2-.6,0-.9-.1-1.1-.3,0,.2,0,.4,0,.7s0,.7.1,1ZM31,15.8c-.1-.9-.5-.4,0,0Z"/>
    <path class="st11" d="M41.9,12c-2.2-2.2-5.2-3.5-8.5-3.5-6.6,0-12,5.4-12,12,0,6.6,5.4,12,12,12,6.6,0,12-5.4,12-12,0-3.3-1.3-6.3-3.5-8.5ZM39.7,14.1c.5.5.9,1.3.9,2.1,0,1.7-1.3,3-3,3-1.7,0-3-1.3-3-3,0-1.7,1.3-3,3-3,.8,0,1.6.3,2.1.9Z"/>
    <path class="st3" d="M41.9,11c-2.2-2.2-5.2-3.5-8.5-3.5-6.6,0-12,5.4-12,12,0,6.6,5.4,12,12,12,6.6,0,12-5.4,12-12,0-3.3-1.3-6.3-3.5-8.5ZM39.7,13.1c.5.5.9,1.3.9,2.1,0,1.7-1.3,3-3,3-1.7,0-3-1.3-3-3,0-1.7,1.3-3,3-3,.8,0,1.6.3,2.1.9Z"/>
    <path class="st12" d="M33.4,7.5c-6.6,0-12,5.4-12,12,0,.2,0,.3,0,.5.3-6.4,5.5-11.5,12-11.5,3.3,0,6.3,1.3,8.5,3.5,2.1,2.1,3.4,4.9,3.5,8,0-.2,0-.3,0-.5,0-3.3-1.3-6.3-3.5-8.5-2.2-2.2-5.2-3.5-8.5-3.5ZM34.7,15.8c0,.2,0,.3,0,.5,0,1.7,1.3,3,3,3,1.7,0,3-1.3,3-3,0-.2,0-.3,0-.5-.2,1.4-1.5,2.5-2.9,2.5-1.5,0-2.7-1.1-2.9-2.5Z"/>
    <path class="st11" d="M44.4,4.5c-5,0-9,4-9,9,0,1.6.4,3.2,1.3,4.6.3.1.6.2,1,.2.8,0,1.5-.3,2-.8,0,0,0-.1.1-.2-.9-1.1-1.4-2.4-1.4-3.8,0-3.3,2.7-6,6-6s6,2.7,6,6c0,1.5-.6,3-1.7,4.1.4,1.1.6,2.2.6,3.4,2.5-1.7,4-4.5,4-7.5,0-5-4-9-9-9Z"/>
    <path class="st29" d="M44.4,3.5c-5,0-9,4-9,9,0,2.1.7,4.1,2.1,5.7,0,0,.1,0,.2,0,.8,0,1.5-.3,2-.8.2-.2.4-.5.5-.8-1.1-1.1-1.7-2.6-1.7-4.2,0-3.3,2.7-6,6-6s6,2.7,6,6c0,1.7-.7,3.3-1.9,4.4.4,1,.7,2.1.8,3.1,2.6-1.7,4.1-4.5,4.1-7.5,0-5-4-9-9-9Z"/>
    <path class="st12" d="M44.4,3.5c-5,0-9,4-9,9,0,.1,0,.3,0,.4.3-4.7,4.2-8.4,9-8.4,4.8,0,8.7,3.7,9,8.5,0-.2,0-.3,0-.5,0-5-4-9-9-9ZM50.4,13c-.1,1.5-.8,2.9-1.9,3.9,0,.2.2.5.3.7,1.1-1.1,1.6-2.6,1.7-4.1,0-.2,0-.3,0-.5ZM38.4,13c0,.2,0,.3,0,.5,0,1.4.5,2.7,1.4,3.8.1-.2.3-.4.3-.6-1-1-1.6-2.3-1.7-3.7Z"/>
  </g>
  <g>
    <path class="st11" d="M51.6,6.5c-.2,0-.4,0-.6,0-.8.1-1.7.5-2.5,1h0s0,0,0,0c0,0-11.8,6.7-17.2,13.6h0l11.9,9h0c6.4-7.4,11.7-19.1,11.7-19.1h0c0,0,0-.2,0-.2.3-1.6-.1-3.3-1.6-4.1-.5-.3-1.1-.4-1.7-.4h0Z"/>
    <path class="st11" d="M32.2,19.6c-.4,0-.7,0-1.1,0l-1.5.2.4,3.1-1.1.8-7.6,15.7,1,.7,6.4,4.6,12.4-12.2.3-1.2,3.2-.6-.5-1.6c-.8-2.2-2.7-4.6-5.1-6.5-2.1-1.7-4.5-3.2-7-3.2Z"/>
    <ellipse class="st11" cx="28" cy="52.7" rx="21.5" ry="2.6"/>
    <ellipse class="st11" cx="50.4" cy="48.7" rx="4.7" ry="1.3"/>
    <ellipse class="st16" cx="28" cy="51.8" rx="21.5" ry="2.6"/>
    <path class="st13" d="M28,49.2c-11.9,0-21.5,1.2-21.5,2.6,0,.1.1.3.3.4,1.7-1.3,10.7-2.2,21.2-2.2,10.5,0,19.4.9,21.2,2.2.2-.1.3-.3.3-.4,0-1.4-9.6-2.6-21.5-2.6Z"/>
    <path class="st18" d="M51.6,5.6c-.2,0-.4,0-.6,0-.8.1-1.7.5-2.5,1h0s0,0,0,0c0,0-11.8,6.7-17.2,13.6h0l11.9,9h0c6.4-7.4,11.7-19.1,11.7-19.1h0c0,0,0-.2,0-.2.3-1.6-.1-3.3-1.6-4.1-.5-.3-1.1-.4-1.7-.4h0Z"/>
    <path class="st13" d="M51.6,5.6c-.2,0-.4,0-.6,0-.8.1-1.7.5-2.5,1h0s0,0,0,0c0,0-11.8,6.7-17.2,13.6l.4.3c5.6-6.7,16.7-13.1,16.7-13.1h0s0,0,0,0c.8-.5,1.7-.9,2.5-1,.2,0,.4,0,.6,0,.6,0,1.2.1,1.7.4,1,.6,1.5,1.6,1.6,2.7.1-1.4-.3-2.9-1.6-3.6-.5-.3-1.1-.4-1.7-.4Z"/>
    <path class="st27" d="M32.2,18.7c-.4,0-.7,0-1.1,0l-1.5.2.4,3.1-1.1.8-7.6,15.7,1,.7,6.4,4.6,12.4-12.2.3-1.2,3.2-.6-.5-1.6c-.8-2.2-2.7-4.6-5.1-6.5-2.1-1.7-4.5-3.2-7-3.2Z"/>
    <path class="st12" d="M32.2,18.7c-.4,0-.7,0-1.1,0l-1.5.2v.9c.1,0,1.5-.2,1.5-.2.4,0,.7,0,1.1,0,2.5,0,4.9,1.5,7,3.2,2.4,1.9,4.3,4.3,5.1,6.5l.3.8h.3s-.5-1.6-.5-1.6c-.8-2.2-2.7-4.6-5.1-6.5-2.1-1.7-4.5-3.2-7-3.2ZM30,22.3l-.9.7-7.6,15.7.3.2,7.2-15,1.1-.8v-.8Z"/>
    <path class="st8" d="M6.5,52.7c12.9-2.2,22.1,4.1,23.3-6.8.9-8.8-9.7-11.2-14.3-2.7-4.5,8.2-9,9.5-9,9.5Z"/>
    <path class="st17" d="M6.5,51.8c12.9-2.2,22.1,4.1,23.3-6.8.9-8.8-9.7-11.2-14.3-2.7-4.5,8.2-9,9.5-9,9.5Z"/>
    <ellipse class="st16" cx="50.4" cy="47.9" rx="4.7" ry="1.3"/>
    <path class="st13" d="M50.4,46.6c-2.6,0-4.7.6-4.7,1.3h0c0,.1,0,.3.3.4.7-.5,2.4-.9,4.4-.9,2,0,3.7.3,4.4.9.2-.1.3-.3.3-.4,0-.7-2.1-1.3-4.7-1.3h0Z"/>
  </g>
</svg>