<?xml version="1.0" encoding="UTF-8"?>
<svg id="_图层_1" xmlns="http://www.w3.org/2000/svg" version="1.1" viewBox="0 0 64 64" width="32" height="32">
  <!-- Generator: Adobe Illustrator 29.0.1, SVG Export Plug-In . SVG Version: 2.1.0 Build 192)  -->
  <defs>
    <style>
      .st0 {
        fill: #974fa4;
      }

      .st1 {
        fill: #4d4d4d;
      }

      .st2, .st3, .st4 {
        fill: #fff;
      }

      .st5, .st3 {
        opacity: .2;
      }

      .st5, .st3, .st4 {
        isolation: isolate;
      }

      .st4 {
        opacity: .1;
      }
    </style>
  </defs>
  <path class="st2" d="M50.3,64H13.8C6.2,64,0,57.8,0,50.3V13.8C0,6.2,6.2,0,13.8,0h36.6c7.5,0,13.7,6.2,13.7,13.7v36.5c0,7.5-6.2,13.7-13.7,13.7h0Z"/>
  <g>
    <path class="st5" d="M32.1,8.1c-.5,0-1,0-1.5,0-7.8.8-13.6,7.1-13,14l-1.8.2,1.1,9.2,6.1-.7-1.1-9.2-2.3.2c-.4-6,4.5-11.3,11.2-12,6.7-.7,12.7,3.4,13.7,9.3l-2,.2,1,9.2,5.9-.6-1-9.2-1.9.2c-1-6.5-7.2-11.1-14.4-11h0Z"/>
    <path class="st5" d="M31.2,13.1c-.8,0-1.6.5-2.1,1.1-.6.6-1,1.5-1.4,2.5-.8,2-1.2,6.2-1.5,8.9-.3,2.7-.3,3.8-.2,6.1.1,2.3.4,4.1.8,5.1.4.9.9,1.9,1.1,2.8.2.9.2,1.6-.4,2.2-.6.6-1.8,1.1-4.1,1.2-2.3.1-5.7-.8-10.6-1.7-.8-.1-1.4-.2-2,0-.6.2-1,.6-1.3,1.1-.5,1-.6,4.7-.7,6.6,0,.6.2,1.2.6,1.7.4.5,1,.9,1.7,1.2,1.4.7,3.5,1.2,6,1.6,5,.7,12,.8,20,.4h0s0,0,0,0c2.9-.2,7.5-.4,11.5-1.4,2-.5,3.8-1.2,5.2-2.2,1.4-1.1,2.4-2.5,2.5-4.4,0-1.7,0-4.4-.4-5.2-.4-.8-1.1-1.3-1.9-1.3-1.6,0-3.5.8-5.9,1.4-2.8.6-4.8,1.2-6.1,1.1-1.3,0-2-.8-2.4-1.3-.4-.5-.6-1.3-.7-2.2,0-1,0-2.1-.2-3.3-.3-2.3-.7-6.1-1.8-10.9-.5-2.4-1.2-6.3-2.1-8-.5-.9-1-1.6-1.6-2.1-.6-.5-1.4-.8-2.2-.8h0Z"/>
    <path class="st1" d="M32.1,7.3c-.5,0-1,0-1.5,0-7.8.8-13.6,7.1-13,14l-1.8.2,1.1,9.2,6.1-.7-1.1-9.2-2.3.2c-.4-6,4.5-11.3,11.2-12,6.7-.7,12.7,3.4,13.7,9.3l-2,.2,1,9.2,5.9-.6-1-9.2-1.9.2c-1-6.5-7.2-11.1-14.4-11h0Z"/>
    <path class="st0" d="M31.2,12.3c-.8,0-1.6.5-2.1,1.1-.6.6-1,1.5-1.4,2.5-.8,2-1.2,6.2-1.5,8.9-.3,2.7-.3,3.8-.2,6.1.1,2.3.4,4.1.8,5.1.4.9.9,2.7,1.1,3.6.2.9.2,1.6-.4,2.2-.6.6-1.8,1.1-4.1,1.2-2.3.1-5.7-.8-10.6-1.7-.8-.1-1.4-.2-2,0-.6.2-1,.6-1.3,1.1-.5,1-.6,3.9-.7,5.8,0,.6.2,1.2.6,1.7.4.5,1,.9,1.7,1.2,1.4.7,3.5,1.2,6,1.6,5,.7,12,.8,20,.4h0s0,0,0,0c2.9-.2,7.5-.4,11.5-1.4,2-.5,3.8-1.2,5.2-2.2,1.4-1.1,2.4-2.5,2.5-4.4,0-1.7,0-3.5-.4-4.4-.4-.8-1.1-1.3-1.9-1.3-1.6,0-3.5.8-5.9,1.4-2.8.6-4.8,1.2-6.1,1.1-1.3,0-2-.8-2.4-1.3-.4-.5-.6-1.3-.7-2.2,0-1,0-2.9-.2-4.1-.3-2.3-.7-6.1-1.8-10.9-.5-2.4-1.2-6.3-2.1-8-.5-.9-1-1.6-1.6-2.1-.6-.5-1.4-.8-2.2-.8h0Z"/>
    <path class="st3" d="M31.2,12.3c-.8,0-1.6.5-2.1,1.1-.6.6-1,1.5-1.4,2.5-.8,2-1.2,6.2-1.5,8.9-.2,2-.3,3.2-.2,4.6,0-1.1,0-2.2.2-3.8.3-2.7.7-6.9,1.5-8.9.4-1,.8-1.8,1.4-2.5.6-.6,1.3-1.1,2.1-1.1h0c.8,0,1.6.3,2.2.8.6.5,1.1,1.2,1.6,2.1.9,1.7,1.6,5.6,2.1,8,1.1,4.8,1.6,8.6,1.8,10.9.1,1.2.1,3.2.2,4.1,0,1,.3,1.7.7,2.2.4.5,1.1,1.2,2.4,1.3,1.3,0,3.3-.5,6.1-1.1,2.4-.5,4.3-1.4,5.9-1.4.8,0,1.6.5,1.9,1.3.2.6.4,1.6.4,2.8,0-1.5,0-2.9-.4-3.6-.4-.8-1.1-1.3-1.9-1.3-1.6,0-3.5.8-5.9,1.4-2.8.6-4.8,1.2-6.1,1.1-1.3,0-2-.8-2.4-1.3-.4-.5-.6-1.3-.7-2.2,0-1,0-2.9-.2-4.1-.3-2.3-.7-6.1-1.8-10.9-.5-2.4-1.2-6.3-2.1-8-.5-.9-1-1.6-1.6-2.1-.6-.5-1.4-.8-2.2-.8h0ZM28.1,40.7c0,.3-.2.6-.5.9-.6.6-1.8,1.1-4.1,1.2-2.3.1-5.7-.8-10.6-1.7-.8-.1-1.4-.2-2,0-.6.2-1,.6-1.3,1.1-.5,1-.6,3.9-.7,5.8,0,.1,0,.2,0,.3,0-1.9.2-4.4.6-5.3.3-.5.7-.9,1.3-1.1.6-.2,1.2-.2,2,0,4.8.9,8.2,1.8,10.6,1.7,2.3-.1,3.5-.6,4.1-1.2.5-.5.6-1.1.5-1.7Z"/>
    <path class="st5" d="M29.4,26.4c-.2,5.4-2.7,9.8-5.5,9.7-2.8,0-4.9-4.5-4.7-10,0,0,0-.2,0-.2.2-5.4,2.7-9.8,5.5-9.7,2.8,0,4.9,4.5,4.7,10,0,0,0,.2,0,.2Z"/>
    <path class="st2" d="M29.4,25.6c-.2,5.4-2.7,9.8-5.5,9.7-2.8,0-4.9-4.5-4.7-10,0,0,0-.2,0-.2.2-5.4,2.7-9.8,5.5-9.7,2.8,0,4.9,4.5,4.7,10,0,0,0,.2,0,.2Z"/>
    <path class="st1" d="M27.7,27.1c-.1,1.8-1.4,3.2-2.8,3.2-1.4,0-2.4-1.5-2.3-3.4.1-1.8,1.4-3.2,2.8-3.2,1.4,0,2.4,1.5,2.3,3.4,0,0,0,0,0,0Z"/>
    <path class="st5" d="M44.6,25.7c.6,5.4-1.5,10-4.7,10.3-3.2.3-6.3-3.9-7-9.3-.6-5.4,1.5-10,4.7-10.3,3.2-.3,6.3,3.9,7,9.3h0Z"/>
    <path class="st2" d="M44.6,24.9c.6,5.4-1.5,10-4.7,10.3-3.2.3-6.3-3.9-7-9.3-.6-5.4,1.5-10,4.7-10.3,3.2-.3,6.3,3.9,7,9.3,0,0,0,0,0,0Z"/>
    <path class="st1" d="M41.2,27.2c-.4,1.8-1.8,3.2-3.1,3-1.3-.1-2.1-1.7-1.8-3.5.4-1.8,1.8-3.2,3.1-3.1,1.4.1,2.2,1.7,1.8,3.5,0,0,0,0,0,0Z"/>
    <path class="st4" d="M32.1,7.3c-.5,0-1,0-1.5,0-7.6.8-13.2,6.7-13,13.4.3-6.4,5.7-11.8,13-12.6.5,0,1,0,1.5,0,7.2-.1,13.4,4.6,14.4,11l1.9-.2,1,8.4h0s-1.1-9.2-1.1-9.2l-1.9.2c-1-6.5-7.2-11.1-14.4-11ZM44.4,18.6l-1.8.2v.8c0,0,2-.2,2-.2,0-.3-.1-.5-.2-.8ZM19.7,20.8c0,.4,0,.8,0,1.2l2.3-.2,1,8.4h0s-1.1-9.2-1.1-9.2l-2.3.2c0-.1,0-.3,0-.4ZM17.6,21.4l-1.8.2v.8c0,0,1.8-.2,1.8-.2,0-.3,0-.5,0-.8Z"/>
  </g>
</svg>