<?xml version="1.0" encoding="UTF-8"?>
<svg id="_图层_1" xmlns="http://www.w3.org/2000/svg" version="1.1" viewBox="0 0 64 64" width="32" height="32">
  <!-- Generator: Adobe Illustrator 29.0.1, SVG Export Plug-In . SVG Version: 2.1.0 Build 192)  -->
  <defs>
    <style>
      .st0, .st1, .st2, .st3, .st4, .st5, .st6 {
        display: none;
      }

      .st0, .st1, .st7, .st5 {
        isolation: isolate;
      }

      .st0, .st7, .st5 {
        opacity: .2;
      }

      .st1 {
        opacity: .1;
      }

      .st1, .st8, .st5 {
        fill: #fff;
      }

      .st9 {
        fill: #c9c9c9;
      }

      .st10 {
        fill: #4253cd;
      }

      .st11 {
        fill: #6fa2cd;
      }

      .st12 {
        fill: #42a1cd;
      }

      .st2, .st13 {
        fill: #a1441e;
      }

      .st3 {
        fill: #522f17;
      }

      .st14 {
        fill: #a38976;
      }

      .st6 {
        fill: #172f52;
      }
    </style>
  </defs>
  <path class="st13" d="M50.3,64H13.8C6.2,64,0,57.8,0,50.3V13.7C0,6.2,6.2,0,13.7,0h36.5c7.5,0,13.7,6.2,13.7,13.7v36.6c0,7.5-6.2,13.7-13.7,13.7h0Z"/>
  <g class="st4">
    <ellipse class="st0" cx="30.6" cy="31.2" rx="30.6" ry="30.2"/>
    <ellipse class="st3" cx="30.6" cy="30.2" rx="30.6" ry="30.2"/>
    <path class="st1" d="M30.6,0C13.7,0,0,13.5,0,30.2c0,.2,0,.4,0,.5C.3,14.3,13.9,1.1,30.6,1.1c16.6,0,30.1,13,30.6,29.4,0,0,0-.2,0-.3C61.2,13.5,47.5,0,30.6,0Z"/>
    <path class="st7" d="M30.6,7.5c-13.3,0-24,10.6-24,23.7s10.8,23.7,24,23.7,24-10.6,24-23.7S43.9,7.5,30.6,7.5ZM21.9,16.2h7.3l9.8,23.5,5.1-2,1.6,4-9.1,3.6h0l-6.4-15.3-11.2,16.4-3.6-2.2,12.8-19.1-1.9-4.6h-4.3v-4.3Z"/>
    <path class="st14" d="M30.6,6.5c-13.3,0-24,10.6-24,23.7s10.8,23.7,24,23.7,24-10.6,24-23.7S43.9,6.5,30.6,6.5ZM21.9,15.1h7.3l9.8,23.5,5.1-2,1.6,4-9.1,3.6h0l-6.4-15.3-11.2,16.4-3.6-2.2,12.8-19.1-1.9-4.6h-4.3s0-4.3,0-4.3Z"/>
    <ellipse class="st7" cx="47" cy="47.4" rx="16.4" ry="16.2"/>
    <ellipse class="st12" cx="47" cy="46.3" rx="16.4" ry="16.2"/>
    <path class="st8" d="M46,50.6c.4-.5,1.1-1,1.8-1.6.7-.6,1.6-1.2,2.3-2.1.7-.9,1.2-2.2,1.2-3.6s-1.2-3.4-2.3-4c-1.1-.6-2.1-.5-2.1-.5h0s-1,0-2.1.5c-1,.5-2.2,1.9-2.3,3.8h2.9c.1-1.3,1.4-1.3,1.4-1.3,0,0,1.5,0,1.5,1.5s-.2,1.2-.6,1.7c-.4.5-1,1-1.7,1.6-.7.6-1.6,1.2-2.3,2.1-.7.9-1.2,2.2-1.2,3.6v1.5h8.7v-3.2"/>
  </g>
  <g class="st4">
    <ellipse class="st0" cx="30.6" cy="31.1" rx="30.6" ry="30"/>
    <ellipse class="st6" cx="30.6" cy="30" rx="30.6" ry="30"/>
    <path class="st1" d="M30.6,0C13.7,0,0,13.4,0,30c0,.2,0,.4,0,.5C.3,14.2,13.9,1.1,30.6,1.1c16.6,0,30.2,13,30.6,29.2,0,0,0-.2,0-.3C61.3,13.4,47.6,0,30.6,0Z"/>
    <path class="st7" d="M30.6,7.5c-13.3,0-24.1,10.6-24.1,23.6s10.8,23.6,24.1,23.6,24.1-10.6,24.1-23.6S43.9,7.5,30.6,7.5ZM21.9,16.1h7.3l9.8,23.4,5.1-2,1.6,4-9.1,3.6h0l-6.4-15.3-11.2,16.3-3.7-2.2,12.8-19-1.9-4.6h-4.3v-4.3Z"/>
    <path class="st11" d="M30.6,6.4c-13.3,0-24.1,10.6-24.1,23.6s10.8,23.6,24.1,23.6,24.1-10.6,24.1-23.6S43.9,6.4,30.6,6.4ZM21.9,15h7.3l9.8,23.4,5.1-2,1.6,4-9.1,3.6h0l-6.4-15.3-11.2,16.3-3.7-2.2,12.8-19-1.9-4.6h-4.3s0-4.3,0-4.3Z"/>
    <ellipse class="st7" cx="47.1" cy="47.2" rx="16.4" ry="16.1"/>
    <ellipse class="st10" cx="47.1" cy="46.1" rx="16.4" ry="16.1"/>
    <path class="st8" d="M46.1,50.4c.4-.5,1.1-1,1.8-1.6.7-.6,1.6-1.2,2.3-2.1.7-.9,1.2-2.2,1.2-3.6s-1.2-3.4-2.3-4c-1.1-.6-2.1-.5-2.1-.5h0s-1,0-2.1.5c-1,.5-2.2,1.9-2.3,3.8h2.9c.1-1.3,1.4-1.3,1.4-1.3,0,0,1.5,0,1.5,1.5s-.2,1.2-.6,1.7c-.4.5-1,1-1.7,1.6-.7.6-1.6,1.2-2.3,2.1-.7.9-1.2,2.2-1.2,3.6v1.5h8.8v-3.2"/>
  </g>
  <g>
    <path class="st0" d="M4.6,1.1h54.7c2.5,0,4.6,2.1,4.6,4.6v55c0,2.5-2,4.6-4.6,4.6H4.6c-2.5,0-4.6-2.1-4.6-4.6V5.7C0,3.2,2.1,1.1,4.6,1.1Z"/>
    <path class="st2" d="M4.6,0h54.7c2.5,0,4.6,2.1,4.6,4.6v55c0,2.5-2,4.6-4.6,4.6H4.6c-2.5,0-4.6-2.1-4.6-4.6V4.6C0,2,2.1,0,4.6,0Z"/>
    <path class="st7" d="M16,19.5l3.8-2.3,11.6,17.4,6.7-16.3,9.5,3.8-1.7,4.3-5.3-2.1-10.2,25h-7.6v-4.6h4.5l2-4.9-13.4-20.3Z"/>
    <path class="st9" d="M16,18.3l3.8-2.3,11.6,17.4,6.7-16.3,9.5,3.8-1.7,4.3-5.3-2.1-10.2,25h-7.6v-4.6h4.5l2-4.9-13.4-20.3Z"/>
    <path class="st5" d="M4.6,0C2.1,0,0,2,0,4.6v1.1C0,3.2,2.1,1.1,4.6,1.1h54.7c2.5,0,4.6,2,4.6,4.6v-1.1C63.9,2,61.9,0,59.3,0H4.6Z"/>
  </g>
</svg>