<?xml version="1.0" encoding="UTF-8"?>
<svg id="_图层_1" xmlns="http://www.w3.org/2000/svg" version="1.1" viewBox="0 0 64 64" width="32" height="32">
  <!-- Generator: Adobe Illustrator 29.0.1, SVG Export Plug-In . SVG Version: 2.1.0 Build 192)  -->
  <defs>
    <style>
      .st0, .st1, .st2, .st3 {
        display: none;
      }

      .st0, .st4 {
        fill: #3f474a;
      }

      .st5 {
        fill: #4f4f4f;
      }

      .st1, .st2, .st6, .st7, .st8, .st9 {
        isolation: isolate;
      }

      .st1, .st6, .st7, .st8 {
        opacity: .2;
      }

      .st2, .st10, .st7, .st9 {
        fill: #fff;
      }

      .st2, .st9 {
        opacity: .1;
      }

      .st11 {
        fill: #997bc8;
      }

      .st11, .st6, .st12, .st7, .st13, .st14 {
        fill-rule: evenodd;
      }

      .st12 {
        fill: #84ddea;
      }

      .st15 {
        fill: #34ae72;
      }

      .st13 {
        fill: #706bc8;
      }

      .st14 {
        fill: #55c5e4;
      }
    </style>
  </defs>
  <path class="st4" d="M50.4,64H13.8c-7.6,0-13.8-6.2-13.8-13.7V13.7C0,6.2,6.2,0,13.7,0h36.6c7.5,0,13.7,6.2,13.7,13.7v36.6c0,7.5-6.2,13.7-13.7,13.7h.1Z"/>
  <g class="st3">
    <path class="st8" d="M6,10.4c-2.2,0-4,1.9-4,4.2v36.6c0,2.3,1.8,4.2,4,4.2s4-1.9,4-4.2v-1.8c.1,0,.3,0,.4,0h5.6v6h5v-6h3v6h5v-6h3v6h5v-6h19.6c3,0,5.4-2.5,5.4-5.5v-22c0-3-2.4-5.5-5.4-5.5H10.4c-.1,0-.3,0-.4,0v-1.8c0-2.3-1.8-4.2-4-4.2Z"/>
    <path class="st5" d="M10.4,15.4h46.1c3,0,5.4,2.5,5.4,5.5v22c0,3-2.4,5.5-5.4,5.5H10.4c-3,0-5.4-2.5-5.4-5.5v-22c0-3,2.4-5.5,5.4-5.5Z"/>
    <circle class="st8" cx="22.5" cy="32.9" r="10.5"/>
    <circle class="st10" cx="22.5" cy="31.9" r="10.5"/>
    <circle class="st8" cx="46.5" cy="32.9" r="8.5"/>
    <circle class="st10" cx="46.5" cy="31.9" r="8.5"/>
    <rect class="st15" x="21" y="23.4" width="3" height="17"/>
    <rect class="st5" x="16" y="47.4" width="5" height="7"/>
    <rect class="st15" x="45" y="25.4" width="3" height="13"/>
    <path class="st5" d="M6,9.4h0c2.2,0,4,1.9,4,4.2v36.6c0,2.3-1.8,4.2-4,4.2h0c-2.2,0-4-1.9-4-4.2V13.6c0-2.3,1.8-4.2,4-4.2Z"/>
    <rect class="st15" x="14" y="30.4" width="17" height="3"/>
    <rect class="st15" x="21" y="23.4" width="3" height="17" transform="translate(-16 25.3) rotate(-45)"/>
    <rect class="st15" x="14" y="30.4" width="17" height="3" transform="translate(-16 25.3) rotate(-45)"/>
    <circle class="st15" cx="22.5" cy="31.9" r="4.5"/>
    <rect class="st15" x="40" y="30.4" width="13" height="3"/>
    <rect class="st15" x="45" y="25.4" width="3" height="13" transform="translate(-9 42.2) rotate(-45)"/>
    <rect class="st15" x="40" y="30.4" width="13" height="3" transform="translate(-9 42.2) rotate(-45)"/>
    <rect class="st5" x="24" y="47.4" width="5" height="7"/>
    <rect class="st5" x="32" y="47.4" width="5" height="7"/>
    <path class="st9" d="M6,9.4c-2.2,0-4,1.9-4,4.2v1c0-2.3,1.8-4.2,4-4.2s4,1.9,4,4.2v-1c0-2.3-1.8-4.2-4-4.2ZM10.4,15.4c-.1,0-.3,0-.4,0v1c.1,0,.3,0,.4,0h46.1c3,0,5.4,2.5,5.4,5.5v-1c0-3-2.4-5.5-5.4-5.5H10.4Z"/>
  </g>
  <g>
    <path class="st1" d="M6.4,1.1h51.3c3.5,0,6.4,2.9,6.4,6.4v51.3c0,3.5-2.9,6.4-6.4,6.4H6.4c-3.5,0-6.4-2.9-6.4-6.4V7.6C0,4,2.9,1.1,6.4,1.1Z"/>
    <path class="st0" d="M6.4,0h51.3c3.5,0,6.4,2.9,6.4,6.4v51.3c0,3.5-2.9,6.4-6.4,6.4H6.4c-3.5,0-6.4-2.9-6.4-6.4V6.4C0,2.9,2.9,0,6.4,0Z"/>
    <path class="st2" d="M6.4,0C2.9,0,0,2.9,0,6.4v1.1C0,4,2.9,1.1,6.4,1.1h51.3c3.5,0,6.4,2.9,6.4,6.4v-1.1c0-3.6-2.9-6.4-6.4-6.4H6.4Z"/>
    <path class="st6" d="M13.7,4.6v8.5c0,1.1.6,2.1,1.5,2.6,6.7,3.9,33,19,34,19.6.7-.6,1.1-1.4,1.1-2.3v-5.6c0-1.1-.6-2.1-1.5-2.6L13.7,4.6Z"/>
    <path class="st6" d="M48.8,50.8c.9.5,1.5,1.5,1.5,2.6v8.5L15.2,41.7c-.9-.5-1.5-1.5-1.5-2.6v-6.7c0-.5.1-1.1.4-1.5,0,0,27.9,16,34.7,19.9Z"/>
    <path class="st14" d="M48.8,49.6c.9.5,1.5,1.5,1.5,2.6v8.5L15.2,40.5c-.9-.5-1.5-1.5-1.5-2.6v-6.7c0-.5.1-1.1.4-1.5,0,0,27.9,16,34.7,19.9Z"/>
    <path class="st6" d="M17.1,54.9c-.3.2-.6.5-.8.8-.6,1.1-.3,2.4.8,3h0l-1.8-1.1c-.9-.5-1.5-1.5-1.5-2.6v-6.7c0-1.1.6-2.1,1.5-2.6l31.7-18.2h0c.3-.2.6-.5.8-.8.6-1.1.3-2.4-.8-3h0l1.8,1.1c.9.5,1.5,1.5,1.5,2.6v6.7c0,1.1-.6,2.1-1.5,2.6l-1.9,1.1h0s-29.9,17.1-29.9,17.1Z"/>
    <path class="st13" d="M13.7,3.4l35.1,20.2c.9.5,1.5,1.5,1.5,2.6v6.7c0,.5-.1,1.1-.4,1.5,0,0-27.9-16-34.7-19.9-.9-.5-1.5-1.5-1.5-2.6,0,0,0-8.5,0-8.5Z"/>
    <path class="st6" d="M47,7.6c1.1.6,1.4,2,.8,3-.2.3-.5.6-.8.8h0S15.2,29.7,15.2,29.7c-.9.5-1.5,1.5-1.5,2.6v5.6c0,1.1.6,2.1,1.5,2.6l.7.4c0-.4,0-.9.3-1.3.2-.4.5-.6.8-.8l29.8-17.1,1.9-1.1c.9-.5,1.5-1.5,1.5-2.6v-6.7c0-1.1-.6-2.1-1.5-2.6l-1.8-1.1ZM14.1,40.5c.1.2.3.4.5.6-.2-.2-.3-.4-.5-.6Z"/>
    <path class="st11" d="M17.1,53.8c-.3.2-.6.5-.8.8-.6,1.1-.3,2.4.8,3h0l-1.8-1.1c-.9-.5-1.5-1.5-1.5-2.6v-6.7c0-1.1.6-2.1,1.5-2.6l31.7-18.2h0c.3-.2.6-.5.8-.8.6-1.1.3-2.4-.8-3h0l1.8,1.1c.9.5,1.5,1.5,1.5,2.6v6.7c0,1.1-.6,2.1-1.5,2.6l-1.9,1.1h0s-29.9,17.1-29.9,17.1Z"/>
    <path class="st7" d="M47,22.5c1.1.6,1.4,2,.8,3-.2.3-.5.6-.8.8h0s-31.7,18.2-31.7,18.2c-.9.5-1.5,1.5-1.5,2.6v1.1c0-1.1.6-2.1,1.5-2.6l31.7-18.2h0c3.6-2.1,1.2-4.3,0-5h0Z"/>
    <path class="st12" d="M17.1,37.7c-.3.2-.6.5-.8.8-.6,1.1-.3,2.4.8,3h0l-1.8-1.1c-.9-.5-1.5-1.5-1.5-2.6v-6.7c0-1.1.6-2.1,1.5-2.6l31.7-18.2h0c.3-.2.6-.5.8-.8.6-1.1.3-2.4-.8-3h0l1.8,1.1c.9.5,1.5,1.5,1.5,2.6v6.7c0,1.1-.6,2.1-1.5,2.6l-1.9,1.1h0s-29.9,17.1-29.9,17.1Z"/>
    <path class="st7" d="M47,6.5c1.1.6,1.4,2,.8,3-.2.3-.5.6-.8.8h0S15.2,28.6,15.2,28.6c-.9.5-1.5,1.5-1.5,2.6v1.1c0-1.1.6-2.1,1.5-2.6l31.7-18.2h0c3.6-2.1,1.2-4.3,0-5h0Z"/>
  </g>
</svg>