<?xml version="1.0" encoding="UTF-8"?>
<svg id="_图层_1" xmlns="http://www.w3.org/2000/svg" version="1.1" viewBox="0 0 64 64" width="32" height="32">
  <!-- Generator: Adobe Illustrator 29.0.1, SVG Export Plug-In . SVG Version: 2.1.0 Build 192)  -->
  <defs>
    <style>
      .st0 {
        fill: #c552da;
      }

      .st1 {
        fill: #4f4f4f;
      }

      .st2 {
        fill: #336eef;
      }

      .st3 {
        fill: #3f3f3f;
      }

      .st4 {
        fill: #ff5454;
      }

      .st5 {
        fill: #50beee;
      }

      .st6 {
        fill: #fff129;
      }

      .st7, .st8 {
        opacity: .2;
      }

      .st7, .st8, .st9 {
        isolation: isolate;
      }

      .st10 {
        display: none;
      }

      .st8, .st9 {
        fill: #fff;
      }

      .st11 {
        fill: #00d4ea;
      }

      .st12 {
        fill: #45cb32;
      }

      .st9 {
        opacity: .1;
      }
    </style>
  </defs>
  <path class="st3" d="M50.3,64H13.8C6.2,64,0,57.8,0,50.3V13.7C0,6.2,6.2,0,13.7,0h36.5c7.5,0,13.7,6.2,13.7,13.7v36.6c0,7.5-6.2,13.7-13.7,13.7h0Z"/>
  <g class="st10">
    <path class="st7" d="M34.7,5.5c-1-.4-3-1-4-1s-3,.6-4,1l-16,6c-1.1.5-2,1.1-2,2s.2,1.5.5,2.5l9.5,33.5s.4,1.2,1,2c.5.8,2,2,2,2l7,6s1.3,1,2,1,2-1,2-1l7-6s1.4-1.2,2-2c.6-.8,1-2,1-2l9.5-33.5c.3-1,.5-1.5.5-2.5s-.6-1.5-2-2l-16-6Z"/>
    <path class="st5" d="M34.7,4.5c-1-.4-3-1-4-1s-3,.6-4,1l-16,6c-1.1.5-2,1.1-2,2s.2,1.5.5,2.5l9.5,33.5s.4,1.2,1,2c.5.8,2,2,2,2l7,6s1.3,1,2,1,2-1,2-1l7-6s1.4-1.2,2-2c.6-.8,1-2,1-2l9.5-33.5c.3-1,.5-1.5.5-2.5s-.6-1.5-2-2l-16-6Z"/>
    <path class="st7" d="M30.7,12.5l-4,6,2.5,24.5,1.5,1.5,1.5-1.5,2.5-24.5-4-6ZM23.7,44.5l-1,2,1,2,5-.5,1-1.5-1-1.5-5-.5ZM37.7,44.5l-5,.5-1,1.5,1,1.5,5,.5,1-2-1-2ZM30.7,48.5l-1.5,1.5-.5,4.5,2,1,2-1-.5-4.5-1.5-1.5Z"/>
    <path class="st1" d="M30.7,11.5l-4,6,2.5,24.5,1.5,1.5,1.5-1.5,2.5-24.5-4-6ZM23.7,43.5l-1,2,1,2,5-.5,1-1.5-1-1.5-5-.5ZM37.7,43.5l-5,.5-1,1.5,1,1.5,5,.5,1-2-1-2ZM30.7,47.5l-1.5,1.5-.5,4.5,2,1,2-1-.5-4.5-1.5-1.5Z"/>
    <path class="st8" d="M30.7,3.5c-1,0-3,.6-4,1l-16,6c-1.1.5-2,1.1-2,2s0,.5,0,.7c.2-.7,1-1.3,2-1.7l16-6c1-.4,3-1,4-1s3,.6,4,1l16,6c1.2.4,1.8,1,2,1.7,0-.2,0-.4,0-.7,0-.9-.6-1.5-2-2l-16-6c-1-.4-3-1-4-1Z"/>
    <path class="st9" d="M30.7,11.5l-4,6v.9c0,0,4-5.9,4-5.9l3.9,5.9v-.9c0,0-3.9-6-3.9-6ZM23.7,43.5l-1,2,.2.5.8-1.5,5,.5.7,1,.3-.5-1-1.5-5-.5ZM37.7,43.5l-5,.5-1,1.5.3.5.7-1,5-.5.8,1.5.2-.5-1-2ZM30.7,47.5l-1.5,1.5-.5,4.5h.1c0,0,.4-3.5.4-3.5l1.5-1.5,1.5,1.5.4,3.6h.1c0,0-.5-4.6-.5-4.6l-1.5-1.5Z"/>
  </g>
  <g>
    <path class="st7" d="M60,33.7c0,15.5-12.5,28-28,28S4,49.2,4,33.7,16.5,5.7,32,5.7s28,12.5,28,28Z"/>
    <path class="st3" d="M60,32.7c0,15.5-12.5,28-28,28S4,48.2,4,32.7,16.5,4.7,32,4.7s28,12.5,28,28Z"/>
    <path class="st7" d="M32,5.7c-2.1,0-4.1.3-6.2.7l6.2,25.9,6.2-25.9c-2-.5-4.1-.7-6.2-.7ZM52.5,14.8l-19.3,18.3,25.5-7.6c-1.2-4-3.3-7.6-6.2-10.7ZM11.4,14.8c-2.8,3-4.9,6.7-6.2,10.7l25.5,7.6L11.4,14.8ZM30.8,34.4l-25.5,7.6c1.2,4,3.3,7.6,6.2,10.7l19.3-18.3ZM33.2,34.4l19.3,18.3c2.8-3,4.9-6.7,6.2-10.7l-25.5-7.6ZM32,35.1l-6.2,25.9c2,.5,4.1.7,6.2.7,2.1,0,4.1-.3,6.2-.7l-6.2-25.9Z"/>
    <path class="st4" d="M32,4.7c-2.1,0-4.1.3-6.2.7l6.2,25.9,6.2-25.9c-2-.5-4.1-.7-6.2-.7Z"/>
    <path class="st6" d="M52.5,13.8l-19.3,18.3,25.5-7.6c-1.2-4-3.3-7.6-6.2-10.7Z"/>
    <path class="st0" d="M11.4,13.8c-2.8,3-4.9,6.7-6.2,10.7l25.5,7.6L11.4,13.8Z"/>
    <path class="st2" d="M30.8,33.4l-25.5,7.6c1.2,4,3.3,7.6,6.2,10.7l19.3-18.3Z"/>
    <path class="st12" d="M33.2,33.4l19.3,18.3c2.8-3,4.9-6.7,6.2-10.7l-25.5-7.6Z"/>
    <path class="st11" d="M32,34.1l-6.2,25.9c2,.5,4.1.7,6.2.7,2.1,0,4.1-.3,6.2-.7l-6.2-25.9Z"/>
    <path class="st9" d="M32,4.7c-15.5,0-28,12.5-28,28,0,.2,0,.3,0,.5.3-15.3,12.7-27.5,28-27.5,15.3,0,27.7,12.2,28,27.5,0-.2,0-.3,0-.5,0-15.5-12.5-28-28-28Z"/>
    <path class="st9" d="M32,4.7c-2.1,0-4.1.3-6.2.7l.2.9c1.9-.4,3.9-.7,5.9-.7,2,0,4,.2,5.9.7l.2-1c-2-.5-4.1-.7-6.2-.7ZM52.5,13.8l-19.3,18.3,1.5-.5,17.8-16.8c2.6,2.8,4.6,6.1,5.8,9.8h.3c-1.2-4.1-3.3-7.7-6.2-10.8ZM11.4,13.8c-2.8,3-4.9,6.7-6.2,10.7h.3c1.3-3.5,3.3-6.8,5.9-9.7l17.8,16.8,1.5.5L11.4,13.8ZM30.8,33.4l-25.5,7.6c.1.3.2.6.3.9l23.6-7,1.5-1.5ZM33.2,33.4l1.5,1.5,23.7,7.1c.1-.3.2-.6.3-.9l-25.5-7.6ZM32,34.1l-6.2,25.9c0,0,.2,0,.2,0l5.9-24.9,5.9,24.9c0,0,.2,0,.2,0l-6.2-25.9Z"/>
  </g>
</svg>