<?xml version="1.0" encoding="UTF-8"?>
<svg id="_图层_1" xmlns="http://www.w3.org/2000/svg" version="1.1" viewBox="0 0 64 64" width="32" height="32">
  <!-- Generator: Adobe Illustrator 29.0.1, SVG Export Plug-In . SVG Version: 2.1.0 Build 192)  -->
  <defs>
    <style>
      .st0, .st1, .st2, .st3 {
        display: none;
      }

      .st0, .st1, .st4 {
        isolation: isolate;
      }

      .st0, .st4 {
        opacity: .2;
      }

      .st1 {
        opacity: .1;
      }

      .st1, .st5 {
        fill: #fff;
      }

      .st2 {
        fill: #5d4e73;
      }

      .st6 {
        fill: #ff4c4c;
      }

      .st7 {
        fill: #3b73df;
      }

      .st8 {
        fill: #236ee7;
      }

      .st9 {
        fill: #319831;
      }
    </style>
  </defs>
  <path class="st2" d="M47.5,64.1H13.8c-7.6,0-13.8-6.3-13.8-13.8V13.7C0,6.2,6.2,0,13.7,0h36.6c7.5,0,13.7,6.2,13.7,13.7v36.6c0,7.5-6.2,13.7-13.7,13.7h-2.9.1Z"/>
  <g class="st3">
    <path class="st0" d="M3.2,1.1h57.6c1.8,0,3.2,1.4,3.2,3.2v57.7c0,1.8-1.4,3.2-3.2,3.2H3.2c-1.8,0-3.2-1.4-3.2-3.2V4.4C0,2.6,1.4,1.1,3.2,1.1Z"/>
    <path class="st2" d="M3.2,0h57.6c1.8,0,3.2,1.4,3.2,3.2v57.7c0,1.8-1.4,3.2-3.2,3.2H3.2c-1.8,0-3.2-1.4-3.2-3.2V3.2C0,1.4,1.4,0,3.2,0Z"/>
    <path class="st4" d="M43.4,20.6s-7.2,3.1-11.1,3.3c-4.6.3-8.5-2.8-13.1-2.6-5.2.3-7.8,4.7-7.8,4.7,0,0,3.9-1.2,6.6-.8,4,.6,9.6,3.9,14.5,3.3,9.1-1.1,10.3-3.8,11-7.9ZM59.4,29.8s-7.2,3.1-11.1,3.3c-4.6.3-8.5-2.8-13.1-2.6-5.2.3-7.8,4.7-7.8,4.7,0,0,3.9-1.2,6.6-.8,4,.6,9.6,3.9,14.5,3.3,9.1-1.1,10.3-3.8,11-7.9ZM36.6,40.1s-7.2,3.1-11.1,3.3c-4.6.3-8.5-2.8-13.1-2.6-5.2.3-7.8,4.7-7.8,4.7,0,0,3.9-1.2,6.6-.8,4,.6,9.6,3.9,14.5,3.3,9.1-1.1,10.3-3.8,11-7.9Z"/>
    <path class="st6" d="M19.3,20.2c4.6-.2,8.5,2.8,13.1,2.6,3.8-.2,11.1-3.3,11.1-3.3-.6,4.1-1.9,6.8-11,7.9-4.9.6-10.4-2.7-14.5-3.3-2.7-.4-6.6.8-6.6.8,0,0,2.6-4.4,7.8-4.7Z"/>
    <path class="st9" d="M35.3,29.4c4.6-.2,8.5,2.8,13.1,2.6,3.8-.2,11.1-3.3,11.1-3.3-.6,4.1-1.9,6.8-11,7.9-4.9.6-10.4-2.7-14.5-3.3-2.7-.4-6.6.8-6.6.8,0,0,2.6-4.4,7.8-4.7Z"/>
    <path class="st7" d="M12.4,39.7c4.6-.2,8.5,2.8,13.1,2.6,3.8-.2,11.1-3.3,11.1-3.3-.6,4.1-1.9,6.8-11,7.9-4.9.6-10.4-2.7-14.5-3.3-2.7-.4-6.6.8-6.6.8,0,0,2.6-4.4,7.8-4.7Z"/>
    <path class="st1" d="M3.2,0C1.4,0,0,1.4,0,3.2v1.1C0,2.6,1.4,1.1,3.2,1.1h57.6c1.8,0,3.2,1.4,3.2,3.2v-1.1c0-1.8-1.4-3.2-3.2-3.2H3.2Z"/>
  </g>
  <g>
    <path class="st8" d="M49.4,64.1H14.4c-7.9,0-14.4-6.5-14.4-14.4V14.4C0,6.5,6.4,0,14.4,0h35.1c7.9,0,14.5,6.5,14.5,14.4v35.3c-.1,7.9-6.6,14.4-14.6,14.4h0Z"/>
    <path class="st5" d="M28.2,40.8v-20.9c0-1.5-.7-2.9-1.8-3.7h8.3c1,.9,1.7,2.2,1.7,3.7v17.6c0,.9.7,1.6,1.6,1.6h2v-19.2c0-1.5-.7-2.9-1.8-3.7h7.9c1.1.9,1.8,2.2,1.8,3.7v19.2h1.1l-1.1,5.9v2.6l-7.9,2.1v-2.4h-5.4c-3.5,0-6.4-2.9-6.4-6.5h0ZM16.4,42.3c0,3.5,2.8,6.4,6.4,6.4h7.9c-3.5,0-6.3-2.9-6.4-6.4v-14.3h-7.9v14.3ZM24.3,24.7v-4.8c0-1.5-.7-2.9-1.8-3.8h-7.9c1.1.9,1.8,2.2,1.8,3.8v4.8h7.9Z"/>
    <path class="st5" d="M31.9,58.9c-15,0-27.2-12.2-27.2-27.3S16.9,4.3,31.9,4.3s27.2,12.2,27.2,27.3-12.2,27.3-27.2,27.3h0ZM31.9,6.4c-13.8,0-25.1,11.2-25.1,25.1s11.2,25.1,25.1,25.1,25.1-11.2,25.1-25.1S45.7,6.4,31.9,6.4Z"/>
  </g>
</svg>