<?xml version="1.0" encoding="UTF-8" standalone="no"?>
<svg
   id="_图层_1"
   version="1.1"
   viewBox="0 0 64 64" width="32" height="32"
   sodipodi:docname="io.github.seadve.Kooha.svg"
   xml:space="preserve"
   inkscape:version="1.4 (e7c3feb100, 2024-10-09)"
   xmlns:inkscape="http://www.inkscape.org/namespaces/inkscape"
   xmlns:sodipodi="http://sodipodi.sourceforge.net/DTD/sodipodi-0.dtd"
   xmlns:xlink="http://www.w3.org/1999/xlink"
   xmlns="http://www.w3.org/2000/svg"
   xmlns:svg="http://www.w3.org/2000/svg"><sodipodi:namedview
     id="namedview26"
     pagecolor="#505050"
     bordercolor="#eeeeee"
     borderopacity="1"
     inkscape:showpageshadow="0"
     inkscape:pageopacity="0"
     inkscape:pagecheckerboard="0"
     inkscape:deskcolor="#505050"
     inkscape:zoom="7.5572037"
     inkscape:cx="32.15475"
     inkscape:cy="32.15475"
     inkscape:window-width="1920"
     inkscape:window-height="939"
     inkscape:window-x="0"
     inkscape:window-y="34"
     inkscape:window-maximized="1"
     inkscape:current-layer="_图层_1" /><!-- Generator: Adobe Illustrator 29.0.1, SVG Export Plug-In . SVG Version: 2.1.0 Build 192)  --><defs
     id="defs6"><style
       id="style1">
      .st0 {
        fill-opacity: .5;
      }

      .st0, .st1, .st2, .st3, .st4, .st5, .st6, .st7 {
        fill: #fff;
      }

      .st8 {
        fill: #133c9a;
      }

      .st2, .st9 {
        display: none;
      }

      .st3 {
        fill-opacity: .2;
      }

      .st4 {
        fill-opacity: .9;
      }

      .st10 {
        fill: #3370ff;
      }

      .st11 {
        fill: url(#_未命名的渐变_3);
      }

      .st12 {
        fill: url(#_未命名的渐变);
      }

      .st5 {
        fill-opacity: .3;
      }

      .st6 {
        fill-opacity: 0;
      }

      .st7 {
        fill-opacity: .7;
      }

      .st13 {
        fill: #00d6b9;
      }

      .st14 {
        fill: url(#_未命名的渐变_2);
      }
    </style><radialGradient
       id="_未命名的渐变"
       data-name="未命名的渐变"
       cx="123.9"
       cy="-40.2"
       fx="123.9"
       fy="-40.2"
       r="59.4"
       gradientTransform="translate(-26.8 25.5) scale(.6 -.7)"
       gradientUnits="userSpaceOnUse"><stop
         offset="0"
         stop-color="#db202e"
         id="stop1" /><stop
         offset="1"
         stop-color="#e01b24"
         id="stop2" /></radialGradient><radialGradient
       id="_未命名的渐变_2"
       data-name="未命名的渐变 2"
       cx="67.6"
       cy="26.8"
       fx="67.6"
       fy="26.8"
       r="105.2"
       gradientTransform="translate(-26.6 25.3) scale(.6 -.7)"
       gradientUnits="userSpaceOnUse"><stop
         offset="0"
         stop-color="#ffb648"
         id="stop3" /><stop
         offset="1"
         stop-color="#ff7800"
         stop-opacity="0"
         id="stop4" /></radialGradient><radialGradient
       id="_未命名的渐变_3"
       data-name="未命名的渐变 3"
       cx="61.7"
       cy="18.6"
       fx="61.7"
       fy="18.6"
       r="68"
       gradientTransform="translate(-26.8 25.8) scale(.6 -.7)"
       gradientUnits="userSpaceOnUse"><stop
         offset="0"
         stop-color="#c64600"
         id="stop5" /><stop
         offset="1"
         stop-color="#a51d2d"
         id="stop6" /></radialGradient><linearGradient
       id="a"><stop
         offset="0"
         stop-color="#fff"
         id="stop1-3" /><stop
         offset="1"
         stop-color="#fff"
         stop-opacity="0"
         id="stop2-6" /></linearGradient><linearGradient
       gradientTransform="rotate(-90,110.91,115.434)"
       gradientUnits="userSpaceOnUse"
       xlink:href="#a"
       id="b"
       y2="24.145"
       x2="108.974"
       y1="16.246"
       x1="108.118" /><linearGradient
       gradientTransform="rotate(90,135.136,85.779)"
       gradientUnits="userSpaceOnUse"
       xlink:href="#a"
       id="c"
       y2="24.145"
       x2="108.974"
       y1="16.246"
       x1="108.118" /><linearGradient
       gradientUnits="userSpaceOnUse"
       xlink:href="#a"
       id="d"
       y2="24.145"
       x2="108.974"
       y1="16.246"
       x1="108.118" /><linearGradient
       gradientTransform="rotate(180,108.012,88.805)"
       gradientUnits="userSpaceOnUse"
       xlink:href="#a"
       id="e"
       y2="24.145"
       x2="108.974"
       y1="16.246"
       x1="108.118" /></defs><path
     class="st1"
     d="M47.5,64.1H13.8c-7.6,0-13.8-6.3-13.8-13.8V13.7C0,6.2,6.2,0,13.7,0h36.6c7.5,0,13.7,6.2,13.7,13.7v36.6c0,7.5-6.2,13.7-13.7,13.7h-2.9.1Z"
     id="path6"
     style="fill:#f1356a;fill-opacity:1" /><g
     id="g30"
     transform="matrix(1.1394129,0,0,1.1107829,-4.3950498,-2.3802328)"><path
       style="opacity:0.2"
       d="m 8,16 v 6.667969 C 8.0007173,23.403332 8.6962773,23.999282 9.4316406,24 10.16853,24.00144 10.999282,23.404859 11,22.667969 V 19 h 3.667969 C 15.404858,18.999282 16.00144,18.168529 16,17.431641 15.999282,16.696278 15.403332,16.000718 14.667969,16 Z m 41.332031,0 C 48.596668,16.000718 48.000718,16.696278 48,17.431641 47.99856,18.168529 48.595142,18.999282 49.332031,19 H 53 v 3.667969 C 53.000718,23.404859 53.83147,24.0014 54.568359,24 55.303722,23.999282 55.999282,23.403332 56,22.667969 V 16 Z m -4.964843,8 -8.730469,0.0039 h -8.171875 c -0.807198,0 -1.432599,0.754956 -1.453125,1.496094 0,0 -0.02334,-0.589085 -0.02344,7.421875 L 19.19531,26.0039 18.457029,25.9961 H 18 v 14.011718 h 0.390625 l 0.664063,-0.01562 6.933593,-7.066407 v 0.02344 l 0.0039,7.507812 C 26.098147,41.563819 26.759259,41.940176 27.484375,42 l 8.164063,-0.01953 H 44.3125 c 1.241586,0 1.622512,-0.811979 1.6875,-1.566407 V 32.94922 L 45.9961,25.671876 C 45.996332,24.622869 45.295808,24.001528 44.367188,24 Z m -8.382813,3 c 0.240056,0 0.482598,0.01521 0.722656,0.04297 3.286928,0.39892 5.635537,3.371948 5.253907,6.652343 l -0.01172,0.105469 C 41.506036,37.07197 38.49396,39.372696 35.20703,38.94922 32.077126,38.52267 29.805516,35.75865 30.011718,32.613282 30.214847,29.470973 32.823627,27.01841 35.984375,27 Z m -0.08203,3 c -1.449996,0.04502 -2.691787,1.142588 -2.878906,2.628906 -0.20357,1.637172 0.948659,3.132469 2.585937,3.347656 1.637272,0.21227 3.142263,-0.939956 3.363281,-2.574218 l 0.0078,-0.05469 c 0.191952,-1.64008 -0.9809,-3.126475 -2.621082,-3.324216 C 36.205873,30.004838 36.052342,29.99534 35.902345,30 Z M 9.4316406,42 C 8.6962773,42.000718 8.0007173,42.596668 8,43.332031 V 50 h 6.667969 C 15.403332,49.999282 15.999282,49.303722 16,48.568359 16.00144,47.831471 15.404858,47.000718 14.667969,47 H 11 V 43.332031 C 10.999282,42.595141 10.16853,41.99856 9.4316406,42 Z M 54.568359,42 C 53.83147,41.9986 53.000718,42.595141 53,43.332031 V 47 H 49.332031 C 48.595142,47.000718 47.9986,47.831471 48,48.568359 48.000718,49.303722 48.596668,49.999282 49.332031,50 H 56 V 43.332031 C 55.999282,42.596668 55.303722,42.000718 54.568359,42 Z"
       id="path3" /><path
       style="fill:#ffffff"
       d="m 44.367188,23 -8.73047,0.004 h -8.171874 c -0.807198,0 -1.4326,0.754956 -1.453126,1.496094 0,0 -0.02334,-0.589084 -0.02344,7.421876 l -6.792966,-6.918064 -0.738281,-0.0078 H 18 v 14.011718 h 0.390625 l 0.664063,-0.0156 6.933594,-7.066406 v 0.02344 l 0.004,7.507814 c 0.10596,1.106788 0.766978,1.483116 1.492094,1.54294 l 8.164062,-0.0196 H 44.3125 c 1.241586,0 1.622512,-0.811978 1.6875,-1.566406 V 31.94915 L 45.996,24.671808 C 45.996238,23.622802 45.295808,23.001528 44.367188,23 Z m -8.382812,3 c 0.240056,0 0.482598,0.0152 0.722656,0.04296 3.286928,0.39892 5.635536,3.371948 5.253906,6.652344 l -0.0118,0.10548 c -0.443182,3.271188 -3.455256,5.571912 -6.742186,5.148436 -3.129904,-0.42655 -5.401516,-3.190568 -5.195314,-6.335936 0.203128,-3.142308 2.81191,-5.594872 5.972658,-5.613282 z m -0.08204,3 c -1.449996,0.04502 -2.691786,1.142588 -2.878906,2.628906 -0.20357,1.637172 0.94866,3.132468 2.585938,3.347656 1.637272,0.21227 3.142262,-0.939956 3.36328,-2.574218 l 0.0078,-0.05468 C 39.172388,30.707582 37.999558,29.22118 36.359376,29.023438 36.205874,29.004838 36.052342,28.99534 35.902344,29 Z"
       id="path4" /><path
       style="fill:#f89ab5"
       d="m 8,15 v 6.667969 C 8.0007173,22.403332 8.6962773,22.999282 9.4316406,23 10.16853,23.00144 10.999282,22.404859 11,21.667969 V 18 h 3.667969 C 15.404858,17.999282 16.00144,17.168529 16,16.431641 15.999282,15.696278 15.403332,15.000718 14.667969,15 Z m 41.332031,0 C 48.596668,15.000718 48.000718,15.696278 48,16.431641 47.99856,17.168529 48.595142,17.999282 49.332031,18 H 53 v 3.667969 C 53.000718,22.404859 53.83147,23.0014 54.568359,23 55.303722,22.999282 55.999282,22.403332 56,21.667969 V 15 Z M 9.4316406,41 C 8.6962773,41.000718 8.0007173,41.596668 8,42.332031 V 49 h 6.667969 C 15.403332,48.999282 15.999282,48.303722 16,47.568359 16.00144,46.831471 15.404858,46.000718 14.667969,46 H 11 V 42.332031 C 10.999282,41.595141 10.16853,40.99856 9.4316406,41 Z M 54.568359,41 C 53.83147,40.9986 53.000718,41.595141 53,42.332031 V 46 H 49.332031 C 48.595142,46.000718 47.9986,46.831471 48,47.568359 48.000718,48.303722 48.596668,48.999282 49.332031,49 H 56 V 42.332031 C 55.999282,41.596668 55.303722,41.000718 54.568359,41 Z"
       id="path5" /></g></svg>
