<?xml version="1.0" encoding="UTF-8"?>
<svg id="_图层_1" xmlns="http://www.w3.org/2000/svg" version="1.1" viewBox="0 0 64 64" width="32" height="32">
  <!-- Generator: Adobe Illustrator 29.0.1, SVG Export Plug-In . SVG Version: 2.1.0 Build 192)  -->
  <defs>
    <style>
      .st0, .st1, .st2 {
        display: none;
      }

      .st0, .st1, .st3, .st4 {
        isolation: isolate;
      }

      .st0, .st3, .st4 {
        opacity: .2;
      }

      .st1 {
        opacity: .1;
      }

      .st1, .st4 {
        fill: #fff;
      }

      .st2, .st5 {
        fill: #31405e;
      }

      .st6 {
        fill: #a245e9;
      }

      .st7 {
        fill: #4287ea;
      }
    </style>
  </defs>
  <path class="st5" d="M50.4,64H13.8c-7.6,0-13.8-6.2-13.8-13.7V13.7C0,6.2,6.2,0,13.7,0h36.6c7.5,0,13.7,6.2,13.7,13.7v36.6c0,7.5-6.2,13.7-13.7,13.7h.1Z"/>
  <g>
    <path class="st0" d="M19.2,1.1h25.7c10.6,0,19.2,8.6,19.2,19.3v25.7c0,10.6-8.6,19.3-19.2,19.3h-25.7c-10.6,0-19.2-8.6-19.2-19.3v-25.7C0,9.8,8.6,1.1,19.2,1.1Z"/>
    <path class="st2" d="M19.2,0h25.7c10.6,0,19.2,8.6,19.2,19.3v25.7c0,10.6-8.6,19.3-19.2,19.3h-25.7c-10.6,0-19.2-8.6-19.2-19.3v-25.7C0,8.6,8.6,0,19.2,0Z"/>
    <path class="st3" d="M32.1,10.3c-6.1,0-25.6,35.5-22.6,41.4,3,6,42.3,5.9,45.2,0,2.9-5.9-16.5-41.4-22.6-41.4ZM32.1,19.4c4,0,16.7,23.3,14.8,27.2-1.9,3.9-27.7,3.9-29.6,0-2-3.9,10.8-27.2,14.8-27.2ZM32.1,28.7c-1.9,0-7.9,10.6-7,12.4.9,1.8,13.1,1.8,14,0,.9-1.8-5.1-12.4-7-12.4Z"/>
    <path class="st7" d="M32.1,27.5c-1.9,0-7.9,10.6-7,12.4.9,1.8,13.1,1.8,14,0,.9-1.8-5.1-12.4-7-12.4Z"/>
    <path class="st6" d="M32.1,9.2c-6.1,0-25.6,35.5-22.6,41.4,3,6,42.3,5.9,45.2,0,2.9-5.9-16.5-41.4-22.6-41.4ZM46.9,45.4c-1.9,3.9-27.7,3.9-29.6,0-2-3.9,10.8-27.2,14.8-27.2s16.7,23.3,14.8,27.2Z"/>
    <path class="st1" d="M19.2,0C8.6,0,0,8.6,0,19.3v1.1C0,9.7,8.6,1.1,19.2,1.1h25.7c10.7,0,19.2,8.6,19.2,19.3v-1.1c0-10.7-8.6-19.3-19.2-19.3h-25.7Z"/>
    <path class="st4" d="M32.1,9.2c-5.7,0-23.6,31.8-22.9,40.3.8-9.8,17.4-39.1,22.9-39.1s22.1,29.3,22.9,39.1c.7-8.4-17.1-40.3-22.9-40.3ZM32.1,27.5c-1.9,0-7.9,10.5-7,12.4.7-3.3,5.4-11.2,7-11.2,1.6,0,6.3,7.9,7,11.3.8-1.8-5.1-12.4-7-12.4ZM17.1,44.8c0,.7,0,1.3.2,1.7,2,3.9,27.7,3.9,29.6,0,.2-.4.2-1,.2-1.7,0,.2,0,.4-.2.6-1.9,3.9-27.7,3.9-29.6,0,0-.2-.1-.4-.2-.6Z"/>
  </g>
</svg>