<?xml version="1.0" encoding="UTF-8"?>
<svg id="_图层_1" xmlns="http://www.w3.org/2000/svg" version="1.1" viewBox="0 0 64 64" width="32" height="32">
  <!-- Generator: Adobe Illustrator 29.0.1, SVG Export Plug-In . SVG Version: 2.1.0 Build 192)  -->
  <defs>
    <style>
      .st0, .st1, .st2, .st3, .st4, .st5, .st6 {
        display: none;
      }

      .st0, .st1, .st7, .st8, .st9, .st6 {
        isolation: isolate;
      }

      .st0, .st8, .st9, .st6 {
        opacity: .2;
      }

      .st1, .st10, .st9, .st6 {
        fill: #fff;
      }

      .st1, .st7 {
        opacity: .1;
      }

      .st2, .st11 {
        fill: #ffdb0b;
      }

      .st12 {
        fill: #487355;
      }

      .st13 {
        fill: #9eba71;
      }

      .st14 {
        fill: #2fab74;
      }

      .st3, .st15 {
        fill: #8f5066;
      }

      .st16 {
        fill: #d9d991;
      }

      .st17 {
        fill: #c1ede5;
      }

      .st18, .st4 {
        fill: #ffad29;
      }

      .st19 {
        fill: #99aa6b;
      }

      .st20 {
        fill: #ed6041;
      }

      .st21 {
        fill: #b79f32;
      }

      .st22 {
        fill: #1f5489;
      }

      .st23 {
        fill: #353535;
      }

      .st24 {
        fill: #987e2e;
      }
    </style>
  </defs>
  <path class="st15" d="M50.4,64H13.8c-7.6,0-13.8-6.2-13.8-13.7V13.7C0,6.2,6.2,0,13.7,0h36.6c7.5,0,13.7,6.2,13.7,13.7v36.6c0,7.5-6.2,13.7-13.7,13.7h.1Z"/>
  <g class="st5">
    <path class="st8" d="M33.3,6.5c-13.4,0-24.4,11.1-24.4,24.7s.6,6.1,1.6,8.9h0c.6,1.7,1.1,3.5,1.3,4.9.2,1.4-.3,2.6-.6,3.6-.3,1-.6,1.8-.8,2.5-.3.8-.5,1.5.1,2.2.6.7,2.1,1.3,4.7,1.8,2.7.5,6.6.8,10,.8h8c13.4,0,24.4-11.1,24.4-24.7S46.7,6.5,33.3,6.5Z"/>
    <path class="st14" d="M38.1,53.6c-1.2.3-2.7,1.5-4.8,1.5h-8c-3.4,0-7.3-.3-10-.8-2.7-.5-4.1-1.1-4.7-1.8-.6-.7-.4-1.4-.1-2.2.3-.8.6-1.6.8-2.5.3-1,.8-2.1.6-3.6-.2-1.4-.7-3.2-1.3-4.9"/>
    <path class="st14" d="M57.6,30.3c0,13.7-10.9,24.7-24.4,24.7s-24.4-11.1-24.4-24.7S19.8,5.6,33.3,5.6s24.4,11.1,24.4,24.7Z"/>
    <path class="st8" d="M22.2,18c-1.6,0-2.9,1.2-2.9,2.6s1.3,2.6,2.9,2.6h22c1.6,0,2.9-1.2,2.9-2.6s-1.3-2.6-2.9-2.6h-22ZM18.7,28.6c-1.6,0-2.9,1.2-2.9,2.6s1.3,2.6,2.9,2.6h29.1c1.6,0,2.9-1.2,2.9-2.6s-1.3-2.6-2.9-2.6h-29.1ZM22,39.2c-1.4,0-2.6,1.2-2.6,2.6s1.2,2.6,2.6,2.6,2.6-1.2,2.6-2.6-1.2-2.6-2.6-2.6ZM30.8,39.2c-1.5,0-2.8,1.2-2.8,2.6s1.2,2.6,2.8,2.6h13.6c1.5,0,2.8-1.2,2.8-2.6s-1.2-2.6-2.8-2.6h-13.6Z"/>
    <path class="st17" d="M22.2,17.1h22c1.6,0,2.9,1.2,2.9,2.6h0c0,1.5-1.3,2.6-2.9,2.6h-22c-1.6,0-2.9-1.2-2.9-2.6h0c0-1.5,1.3-2.6,2.9-2.6Z"/>
    <path class="st17" d="M18.7,27.7h29.1c1.6,0,2.8,1.2,2.8,2.6h0c0,1.5-1.3,2.6-2.8,2.6h-29.1c-1.6,0-2.8-1.2-2.8-2.6h0c0-1.5,1.3-2.6,2.8-2.6Z"/>
    <path class="st17" d="M30.8,38.3h13.6c1.5,0,2.8,1.2,2.8,2.6h0c0,1.5-1.2,2.6-2.8,2.6h-13.6c-1.5,0-2.8-1.2-2.8-2.6h0c0-1.5,1.2-2.6,2.8-2.6Z"/>
    <path class="st17" d="M22,38.3h0c1.4,0,2.6,1.2,2.6,2.6h0c0,1.5-1.2,2.6-2.6,2.6h0c-1.4,0-2.6-1.2-2.6-2.6h0c0-1.5,1.2-2.6,2.6-2.6Z"/>
    <path class="st9" d="M33.3,5.6c-13.4,0-24.4,11.1-24.4,24.7s0,.2,0,.3c.3-13.4,11.1-24.1,24.3-24.1s24,10.8,24.3,24.1c0,0,0-.2,0-.3,0-13.7-10.9-24.7-24.4-24.7Z"/>
  </g>
  <g class="st5">
    <path class="st8" d="M14.6,13.2l21.8-7.4,10.9,8.3v43.2H14.6V13.2Z"/>
    <path class="st21" d="M14.6,12.3l21.8-7.4,10.9,8.3v43.2H14.6V12.3Z"/>
    <path class="st24" d="M36.4,4.9v51.5h10.9V13.2l-10.9-8.3Z"/>
    <path class="st9" d="M36.4,4.9l-21.8,7.4v.9l21.8-7.4,10.9,8.3v-.9l-10.9-8.3Z"/>
  </g>
  <g class="st5">
    <path class="st18" d="M50.3,64H13.8C6.2,64,0,57.8,0,50.3V13.7C0,6.2,6.2,0,13.7,0h36.5c7.5,0,13.7,6.2,13.7,13.7v36.6c0,7.5-6.2,13.7-13.7,13.7h0Z"/>
    <g>
      <path class="st0" d="M0,59.3v2.3c0,1.9,1.5,3.4,3.4,3.4h57c1.9,0,3.4-1.5,3.4-3.4v-2.3c0,1.9-1.5,3.4-3.4,3.4H3.5c-1.9,0-3.4-1.5-3.4-3.4H0Z"/>
      <path class="st4" d="M3.5.2h57c1.9,0,3.4,1.5,3.4,3.4v56.8c0,1.9-1.5,3.4-3.4,3.4H3.5c-1.9,0-3.4-1.5-3.4-3.4V3.6C0,1.8,1.6.2,3.5.2Z"/>
      <path class="st1" d="M3.5.2C1.6.2,0,1.8,0,3.6v1.1C0,2.9,1.6,1.4,3.5,1.4h57c1.9,0,3.4,1.5,3.4,3.4v-1.1c0-1.9-1.5-3.4-3.4-3.4H3.5Z"/>
      <path class="st8" d="M25.8,8.6c-.4.3-.5.8-.5,1.4,0,1.1.4,2.4.6,2.9,0,0,.7,5.5.8,6.2-.8,0-1.9.2-2.4.3h-.7c-1.6,0-3.1.2-3.7.7l-.3.2.3.3c.5.5.7,1.9.8,3.4.5,3,1,7.1,3.8,8.5l.6.2v-1.2c0-.4,0-.7-.2-1.2.7,0,1.9.2,2.4.2,0,.7,3,27.5,3,27.5h.9s1.4-26.5,1.4-27.3c.7,0,3.2,0,4.1.2-.2.5-.9,2.5-.9,2.5l1.3-1.1c.4-.2,8.5-7,7.4-11.2-.4-1.4-1.7-2.4-3.8-2.9h-.2c-1.2,0-4.6,0-7.4.2v-4.3c0-.4,0-1,.5-1.4.4-.5.8-.9.8-1.4s0-.3-.2-.5c-.6-.7-5.6-2.6-7.4-2.8-.6,0-.9.2-1.1.4h0v.2ZM26.3,21.9h.5c0,.7.3,6.1.4,6.9-.7,0-2.1-.2-2.6-.2-.3-1.1-.4-2.2-.5-3.4,0-1-.2-2.2-.4-3.1.8,0,2.6-.2,2.6-.2h0ZM32.8,24.6v-2.9c1.2.2,2.5.2,4,.2h1.7v.7c-.2,1.8-.5,4.2-1.3,6.3-.6,0-3.7-.2-4.4-.2v-4.2h0Z"/>
      <path class="st10" d="M25.8,7.5c-.4.3-.5.8-.5,1.4,0,1.1.4,2.4.6,2.9,0,0,.7,5.5.8,6.2-.8,0-1.9.2-2.4.3h-.7c-1.6,0-3.1.2-3.7.7l-.3.2.3.3c.5.5.7,1.9.8,3.4.5,3,1,7.1,3.8,8.5l.6.2v-1.2c0-.4,0-.7-.2-1.2.7,0,1.9.2,2.4.2,0,.7,3,27.5,3,27.5h.9s1.4-26.5,1.4-27.3c.7,0,3.2,0,4.1.2-.2.5-.9,2.5-.9,2.5l1.3-1.1c.4-.2,8.5-7,7.4-11.2-.4-1.4-1.7-2.4-3.8-2.9h-.2c-1.2,0-4.6,0-7.4.2v-4.3c0-.4,0-1,.5-1.4.4-.5.8-.9.8-1.4s0-.3-.2-.5c-.6-.7-5.6-2.6-7.4-2.8-.6,0-.9.2-1.1.4h0v.2ZM26.3,20.7h.5c0,.7.3,6.1.4,6.9-.7,0-2.1-.2-2.6-.2-.3-1.1-.4-2.2-.5-3.4,0-1-.2-2.2-.4-3.1.8,0,2.6-.2,2.6-.2h0ZM32.8,23.5v-2.9c1.2.2,2.5.2,4,.2h1.7v.7c-.2,1.8-.5,4.2-1.3,6.3-.6,0-3.7-.2-4.4-.2v-4.2h0Z"/>
    </g>
  </g>
  <g class="st5">
    <path class="st0" d="M4.6,1.1h54.9c2.5,0,4.6,2,4.6,4.6v54.9c0,2.5-2,4.6-4.6,4.6H4.6c-2.5,0-4.6-2-4.6-4.6V5.7C0,3.2,2,1.1,4.6,1.1Z"/>
    <path class="st2" d="M4.6,0h54.9c2.5,0,4.6,2,4.6,4.6v54.9c0,2.5-2,4.6-4.6,4.6H4.6c-2.5,0-4.6-2-4.6-4.6V4.6C0,2,2,0,4.6,0Z"/>
    <path class="st6" d="M0,5.7v-1.1C0,2,2,0,4.6,0h54.9c2.5,0,4.6,2,4.6,4.6v1.1c0-2.5-2-4.6-4.6-4.6H4.6C2,1.1,0,3.2,0,5.7Z"/>
    <path class="st23" d="M32,8c-13.9,0-25.1,9.2-25.1,20.6,0,6.1,3.3,11.8,8.9,15.7l-3.2,11.7,11.2-8c2.6.8,5.4,1.2,8.2,1.2,13.9,0,25.1-9.2,25.1-20.6s-11.3-20.6-25.1-20.6Z"/>
    <path class="st8" d="M12.6,22.9c-.6,0-1.1.5-1.1,1.1s.5,1.1,1.1,1.1h2.3v10.3c0,.6.5,1.1,1.1,1.1s1.1-.5,1.1-1.1v-10.3h2.3c.6,0,1.1-.5,1.1-1.1s-.5-1.1-1.1-1.1h-6.9ZM25.7,22.9s0,0,0,0c0,0,0,0,0,0,0,0,0,0,0,0,0,0,0,0,0,0,0,0,0,0,0,0,0,0,0,0,0,0,0,0,0,0,0,0,0,0,0,0,0,0,0,0,0,0,0,0,0,0,0,0,0,0,0,0,0,0,0,0-.3.2-.5.5-.6.8l-4,11.4c-.2.6.2,1.2.8,1.4.6.2,1.2-.2,1.4-.8l.8-2.7h4.2l.8,2.7c.2.6.8,1,1.4.8s1-.8.8-1.4l-4-11.4c0-.3-.3-.6-.6-.8,0,0,0,0,0,0,0,0,0,0-.1,0,0,0,0,0,0,0,0,0,0,0,0,0,0,0,0,0,0,0,0,0,0,0,0,0,0,0,0,0,0,0,0,0,0,0,0,0,0,0,0,0,0,0,0,0,0,0,0,0,0,0,0,0,0,0h0ZM34.3,22.9c-.6,0-1.1.5-1.1,1.1v11.4c0,.6.5,1.1,1.1,1.1h6.9c.6,0,1.1-.5,1.1-1.1s-.5-1.1-1.1-1.1h-5.7v-10.3c0-.6-.5-1.1-1.1-1.1ZM45.7,22.9c-.6,0-1.1.5-1.1,1.1v11.4c0,.6.5,1.1,1.1,1.1s1.1-.5,1.1-1.1v-3.8l3.7,4.4c.4.5,1.1.5,1.6.1s.5-1.1.1-1.6l-4.3-4.9,4.3-4.9c.4-.5.3-1.2-.1-1.6s-1.2-.3-1.6.1l-3.7,4.4v-3.7c0-.6-.5-1.1-1.1-1.1ZM25.7,27l1.5,3.9h-2.9l1.5-3.9Z"/>
    <path class="st11" d="M12.6,21.7c-.6,0-1.1.5-1.1,1.1s.5,1.1,1.1,1.1h2.3v10.3c0,.6.5,1.1,1.1,1.1s1.1-.5,1.1-1.1v-10.3h2.3c.6,0,1.1-.5,1.1-1.1s-.5-1.1-1.1-1.1h-6.9ZM25.7,21.7s0,0,0,0c0,0,0,0,0,0,0,0,0,0,0,0,0,0,0,0,0,0,0,0,0,0,0,0,0,0,0,0,0,0,0,0,0,0,0,0,0,0,0,0,0,0,0,0,0,0,0,0,0,0,0,0,0,0,0,0,0,0,0,0-.3.2-.5.5-.6.8l-4,11.4c-.2.6.2,1.2.8,1.4.6.2,1.2-.2,1.4-.8l.8-2.7h4.2l.8,2.7c.2.6.8,1,1.4.8s1-.8.8-1.4l-4-11.4c0-.3-.3-.6-.6-.8,0,0,0,0,0,0,0,0,0,0-.1,0,0,0,0,0,0,0,0,0,0,0,0,0,0,0,0,0,0,0,0,0,0,0,0,0,0,0,0,0,0,0,0,0,0,0,0,0,0,0,0,0,0,0,0,0,0,0,0,0,0,0,0,0,0,0h0ZM34.3,21.7c-.6,0-1.1.5-1.1,1.1v11.4c0,.6.5,1.1,1.1,1.1h6.9c.6,0,1.1-.5,1.1-1.1s-.5-1.1-1.1-1.1h-5.7v-10.3c0-.6-.5-1.1-1.1-1.1ZM45.7,21.7c-.6,0-1.1.5-1.1,1.1v11.4c0,.6.5,1.1,1.1,1.1s1.1-.5,1.1-1.1v-3.8l3.7,4.4c.4.5,1.1.5,1.6.1s.5-1.1.1-1.6l-4.3-4.9,4.3-4.9c.4-.5.3-1.2-.1-1.6s-1.2-.3-1.6.1l-3.7,4.4v-3.7c0-.6-.5-1.1-1.1-1.1ZM25.7,25.8l1.5,3.9h-2.9l1.5-3.9Z"/>
  </g>
  <g class="st5">
    <path class="st8" d="M32.2,4c-1.5,0-3,.6-4.2,1.7L4.9,28.8c-1.1,1.1-1.7,2.7-1.7,4.2s.6,3,1.7,4.2l23.1,23.1c1,1,2.2,1.5,3.4,1.7,0,0,0,0,0,0,0,0,0,0,0,0,.2,0,.3,0,.5,0,0,0,0,0,.1,0,0,0,0,0,0,0h0c1.5,0,3-.6,4.2-1.7l23.1-23.1c1.1-1.1,1.7-2.7,1.7-4.2h0s0,0,0-.1c0,0,0-.2,0-.2,0-.1,0-.3,0-.4,0,0,0,0,0-.1,0,0,0,0,0,0-.2-1.2-.7-2.3-1.6-3.2L36.4,5.7c-1.1-1.1-2.7-1.7-4.2-1.7,0,0,0,0,0,0s0,0,0,0h0Z"/>
    <path class="st12" d="M32.2,3c-1.5,0-2.2,2.6-3.3,3.7L5.7,28.9c-2.3,2.3-.7,4.7,1.6,7l21.8,21.9c1,1,1.1,3,2.3,3.2,1.7.2,3.6-.4,4.9-1.7l23.1-23.1c1.4-1.4,1.9-3.3,1.6-5.1-.2-1.2-2-1.5-2.9-2.4L35,5.7c-1.1-1.1-1.3-2.7-2.8-2.7Z"/>
    <path class="st13" d="M32.2,3v29h29c0-1.5-.6-3-1.7-4.2L36.4,4.7c-1.1-1.1-2.7-1.7-4.2-1.7Z"/>
    <path class="st16" d="M32.2,3v29H3.2c0-1.5.6-3,1.7-4.2L28,4.7c1.1-1.1,2.7-1.7,4.2-1.7Z"/>
    <path class="st19" d="M32.2,61v-29H3.2c0,1.5.6,3,1.7,4.2l23.1,23.1c1.1,1.1,2.7,1.7,4.2,1.7Z"/>
    <path class="st9" d="M32.2,3c-1.5,0-3,.6-4.2,1.7L4.9,27.8c-1.1,1.1-1.7,2.7-1.7,4.2s0,.3,0,.5c.1-1.4.7-2.7,1.7-3.7L28,5.7c1.1-1.1,2.7-1.7,4.2-1.7h0c1.5,0,3,.6,4.2,1.7l23.1,23.1c.9.9,1.4,2,1.6,3.2,0,0,0,0,0,0,0,0,0,0,0,.1,0,0,0,.2,0,.3,0-.2,0-.3,0-.5h0s0,0,0-.1c0,0,0-.2,0-.2,0-.1,0-.3,0-.4,0,0,0,0,0-.1,0,0,0,0,0,0-.2-1.2-.7-2.3-1.6-3.2L36.4,4.7c-1.1-1.1-2.7-1.7-4.2-1.7h0Z"/>
    <path class="st7" d="M27.7,42.5l8.8-9.4,16.9,22.9h-13l-12.7-13.5Z"/>
    <path class="st22" d="M27.7,41.5l8.8-9.4,16.9,22.9h-13l-12.7-13.5Z"/>
    <path class="st7" d="M15.2,14v42h10.6l.2-6.9L55.2,14h-12.3l-16.3,18.4.6-18.4h-12Z"/>
    <path class="st20" d="M15.2,13h12l-1.4,42h-10.6V13Z"/>
    <path class="st20" d="M42.9,13h12.3l-30.4,36.6-2.4-13.6,20.4-23Z"/>
  </g>
  <g>
    <rect class="st0" x="0" y="1.1" width="32" height="32" rx="19.2" ry="19.2"/>
    <path class="st3" d="M19.2,0h25.6c10.6,0,19.2,8.6,19.2,19.2v25.6c0,10.6-8.6,19.2-19.2,19.2h-25.6c-10.6,0-19.2-8.6-19.2-19.2v-25.6C0,8.6,8.6,0,19.2,0Z"/>
    <path class="st1" d="M19.2,0C8.6,0,0,8.6,0,19.2v1.1C0,9.7,8.6,1.1,19.2,1.1h25.6c10.6,0,19.2,8.6,19.2,19.2v-1.1C64,8.6,55.4,0,44.8,0h-25.6Z"/>
    <path class="st8" d="M46.3,11.4c-.9,0-2.1.1-2.6.3-2.1.8-3.7,3.2-4.7,7-1.5,6-4.1,8.7-8.4,8.7s-1.3.3,0,1.4c2.4,2.3,3.9,5.7,4.3,9.9.2,1.7.4,2.4,1,3.1.4.5,1,.9,1.2.9s.6-.7,1-1.6c.4-1.2.6-3.4.8-8.2.2-5.6.4-6.9,1-8.4,1.5-4,5-6.1,8.5-4.5,1.7.8,3.1,2.9,5.3,6.7,1.6,2.8,3.3,4.8,4.1,4.8s.4-.5,0-.8c-.8-.5-1.4-3.5-1.5-7.6,0-4.1-.1-4.3-1.2-6.3-1.7-3.3-5-5.4-8.7-5.4ZM23.6,26.8c-.3,0-.7,0-1.1,0-2,.2-3.1.5-3.1.8s1.3,1.5,2.8,3c3.1,3.1,4.5,5.5,5.2,8.7.2.8.3,2.2.4,3.3-2.4,1-3.9,3.3-3.9,5.8,0,3.5,2.8,6.3,6.3,6.3h0c3.5,0,6.3-2.8,6.3-6.3,0-2.3-1.2-4.4-3.2-5.5-.1-1.1-.2-2.5-.2-3.1,0-5.3-2.7-10.1-7-12.4-1.1-.6-1.6-.8-2.5-.8ZM16.9,28.9l-1.7,1.2c-2.5,1.7-5,4.5-6.4,7.2-1.1,2.1-1.2,2.7-1.3,5.4,0,1.9-.3,3.4-.6,4-.7,1.3-.3,2.6.8,2.8.5.1,1.6.9,2.5,1.8,3,3,8.6,4.2,13.6,2.9,1.3-.3,1.5-.6.7-1.2-.3-.2-.9-1.1-1.3-2-1.5-3-1-6.7,1.4-9,1.1-1.1,1.1-1.3.9-2.6-.1-.8-.6-2.1-1-3-.9-1.8-4.7-5.9-6.4-6.9l-1.1-.7ZM13.7,42.3c1.3,0,2.3,1,2.3,2.3s-1,2.3-2.3,2.3-2.3-1-2.3-2.3,1-2.3,2.3-2.3ZM30.3,45.7c1.6,0,2.9,1.3,2.9,2.9s-1.3,2.9-2.9,2.9-2.9-1.3-2.9-2.9,1.3-2.9,2.9-2.9Z"/>
    <path class="st10" d="M46.3,10.3c-.9,0-2.1.1-2.6.3-2.1.8-3.7,3.2-4.7,7-1.5,6-4.1,8.7-8.4,8.7s-1.3.3,0,1.4c2.4,2.3,3.9,5.7,4.3,9.9.2,1.7.4,2.4,1,3.1.4.5,1,.9,1.2.9s.6-.7,1-1.6c.4-1.2.6-3.4.8-8.2.2-5.6.4-6.9,1-8.4,1.5-4,5-6.1,8.5-4.5,1.7.8,3.1,2.9,5.3,6.7,1.6,2.8,3.3,4.8,4.1,4.8s.4-.5,0-.8c-.8-.5-1.4-3.5-1.5-7.6,0-4.1-.1-4.3-1.2-6.3-1.7-3.3-5-5.4-8.7-5.4ZM23.6,25.7c-.3,0-.7,0-1.1,0-2,.2-3.1.5-3.1.8s1.3,1.5,2.8,3c3.1,3.1,4.5,5.5,5.2,8.7.2.8.3,2.2.4,3.3-2.4,1-3.9,3.3-3.9,5.8,0,3.5,2.8,6.3,6.3,6.3s6.3-2.8,6.3-6.3c0-2.3-1.2-4.4-3.2-5.5-.1-1.1-.2-2.5-.2-3.1,0-5.3-2.7-10.1-7-12.4-1.1-.6-1.6-.8-2.5-.8ZM16.9,27.8l-1.7,1.2c-2.5,1.7-5,4.5-6.4,7.2-1.1,2.1-1.2,2.7-1.3,5.4,0,1.9-.3,3.4-.6,4-.7,1.3-.3,2.6.8,2.8.5.1,1.6.9,2.5,1.8,3,3,8.6,4.2,13.6,2.9,1.3-.3,1.5-.6.7-1.2-.3-.2-.9-1.1-1.3-2-1.5-3-1-6.7,1.4-9,1.1-1.1,1.1-1.3.9-2.6-.1-.8-.6-2.1-1-3-.9-1.8-4.7-5.9-6.4-6.9l-1.1-.7ZM13.7,41.2c1.3,0,2.3,1,2.3,2.3s-1,2.3-2.3,2.3-2.3-1-2.3-2.3,1-2.3,2.3-2.3ZM30.3,44.6c1.6,0,2.9,1.3,2.9,2.9s-1.3,2.9-2.9,2.9-2.9-1.3-2.9-2.9,1.3-2.9,2.9-2.9Z"/>
  </g>
</svg>