<?xml version="1.0" encoding="UTF-8"?>
<svg id="_图层_1" xmlns="http://www.w3.org/2000/svg" version="1.1" viewBox="0 0 64 64" width="32" height="32">
  <!-- Generator: Adobe Illustrator 29.0.1, SVG Export Plug-In . SVG Version: 2.1.0 Build 192)  -->
  <defs>
    <style>
      .st0 {
        fill: #4daf7c;
      }

      .st1, .st2, .st3, .st4 {
        isolation: isolate;
      }

      .st1, .st3, .st4 {
        opacity: .2;
      }

      .st1, .st5, .st4, .st6 {
        display: none;
      }

      .st7, .st4 {
        fill: #fff;
      }

      .st8 {
        fill: #e3e3e3;
      }

      .st2 {
        opacity: .1;
      }

      .st6, .st9 {
        fill: #e4e4e4;
      }

      .st10 {
        fill: #343434;
      }

      .st11 {
        fill: #5ed698;
      }
    </style>
  </defs>
  <path class="st9" d="M50.4,64H13.8c-7.6,0-13.8-6.2-13.8-13.7V13.7C0,6.2,6.2,0,13.7,0h36.6c7.5,0,13.7,6.2,13.7,13.7v36.6c0,7.5-6.2,13.7-13.7,13.7h.1Z"/>
  <g class="st5">
    <path class="st8" d="M44,64.1h-16.2l-11.8-11.5,13.7-21.5c1.2-9.8,1.1-9.6,9.1-12.7l11.3-.8c11,9.5,2.6,2,13.9,12v22.2c0,6.2-7.4,12.2-13.6,12.2h-6.4Z"/>
    <g>
      <path class="st0" d="M40,32h-5.9c-.2,0-.4,0-.5.2-.5.2-.8.5-1.1.9s-.4.9-.4,1.4v7.6h-4c-.7,0-1.2.2-1.3.5s0,.8.6,1.3l8.2,7.8c.2.2.5.4.9.5s.7.2,1,.2.7,0,1-.2.6-.3.9-.5l8.2-7.8c.5-.5.7-.9.6-1.3s-.6-.5-1.3-.5h-4v-7.6c0-.7-.3-1.3-.8-1.8s-1.2-.7-1.9-.7h-.2Z"/>
      <path class="st11" d="M29.8,9.7c-1-.2-1.9,0-2.7.7s-1.1,1.4-1.1,2.4v20.6c-.6-.2-1.3-.4-1.9-.5-.7,0-1.3-.2-2-.2-1.6,0-3.1.3-4.5.9-1.4.6-2.6,1.3-3.6,2.3s-1.8,2.1-2.5,3.5c-.6,1.3-.9,2.7-.9,4.2s.3,2.9.9,4.2c.6,1.3,1.4,2.5,2.5,3.4,1,1,2.2,1.8,3.6,2.3,1.4.6,2.9.8,4.5.8s3.4-.4,5-1.1c1.6-.7,2.8-1.7,3.9-3l-5.2-4.9c-.8-.8-1.2-1.5-1.2-2.1s0-1.1.2-1.3c0-.3.4-.6.8-1.1.5-.4,1.3-.7,2.4-.7h1.9v-5.7c0-1,.3-2,1-2.8s1.6-1.3,2.6-1.6v-8.2c3.7,0,6.5.5,8.4,1.4,1.9.9,3.2,2,3.9,3.4s1,2.8.8,4.4c-.2,1.5-.4,2.9-.9,4.1-.3,1-.4,1.5-.2,1.6s.6-.2,1.3-.9c4.5-4.7,6.6-8.6,6.3-11.7-.3-3.2-1.7-5.8-4.3-7.8s-5.8-3.5-9.6-4.6c-3.8-1-6.9-1.8-9.4-2.2h0v.2Z"/>
    </g>
  </g>
  <g>
    <path class="st1" d="M6.4,1.1h51.2c3.5,0,6.4,2.9,6.4,6.4v51.2c0,3.5-2.9,6.4-6.4,6.4H6.4c-3.5,0-6.4-2.9-6.4-6.4V7.5C0,4,2.9,1.1,6.4,1.1Z"/>
    <rect class="st6" width="32" height="32" rx="6.4" ry="6.4"/>
    <path class="st2" d="M21,14.9c-11.4.2-20.1,12.3-8.9,23.3l3,7.5c.5,1.7-1.2,5.5-.4,6.6.9-1.6,1.1-3.9,2.2-4.2,2,1.3,4.9,1.8,6.6,3.5.6-1.7-1.9-2.5-4-3.5,2,.3,3.3-.7,4.8.9.2-.8,0-1.5-.6-2l-.9-1.2c1.6.8,5.7.8,6.7,2.3.4-2.8-3.1-1.8-4.7-2.7,1.1.1,2.1-.4,3.1-.2-.3-.8-.8-1.1-1.5-1.1-5.6,1.3-6-7.8-5.9-10.4,1.8-.7,3.6-1.3,5.4-1.3,5.5,0,10.4,2.5,15-1.5,2-2.8,10.8,5,13.3,11.3,3.7-1.5-7.7-12-10.8-14.7,1.3-3.4-2.7-8.1-7.3-8.2-1,0-2.1.3-3.1.8-4-3.7-7.8-5.4-11.9-5.4ZM42.3,35.4c-4.4,0-8,3.6-8,8s3.6,8,8,8,8-3.6,8-8-3.6-8-8-8ZM17.9,37.4c.5,0,1,.3,1.1.9l1.2,5.6c-.7.2-.9.8-.8,1.9.3-.3.4-.9,1-.7l1.5,1.9c-5.1.4-5.5-2.4-6.4-7,.3-1.7,1.5-2.6,2.4-2.6Z"/>
    <circle class="st10" cx="42.3" cy="42.3" r="8"/>
    <path class="st10" d="M21,13.7c-11.4.2-20.1,12.3-8.9,23.3l3,7.5c.5,1.7-1.2,5.5-.4,6.6.9-1.6,1.1-3.9,2.2-4.2,2,1.3,4.9,1.8,6.6,3.5.6-1.7-1.9-2.5-4-3.5,2,.3,3.3-.7,4.8.9.2-.8,0-1.5-.6-2l-.9-1.2c1.6.8,5.7.8,6.7,2.3.4-2.8-3.1-1.8-4.7-2.7,1.1.1,2.1-.4,3.1-.2-.3-.8-.8-1.1-1.5-1.1-5.6,1.3-6-7.8-5.9-10.4,1.8-.7,3.6-1.3,5.4-1.3,5.5,0,10.4,2.5,15-1.5,2-2.8,10.8,5,13.3,11.3,3.7-1.5-7.7-12-10.8-14.7,1.3-3.4-2.7-8.1-7.3-8.2-1,0-2.1.3-3.1.8-4-3.7-7.8-5.4-11.9-5.4ZM17.9,36.3c.5,0,1,.3,1.1.9l1.2,5.6c-.7.2-.9.8-.8,1.9.3-.3.4-.9,1-.7l1.5,1.9c-5.1.4-5.5-2.4-6.4-7,.3-1.7,1.5-2.6,2.4-2.6Z"/>
    <path class="st3" d="M40,25.2c0,1.2-1,2.3-2.3,2.3,0,0,0,0,0,0-1.3,0-2.3-1-2.3-2.3,0-1.3,1-2.3,2.3-2.3s2.3,1,2.3,2.3h0Z"/>
    <path class="st7" d="M40,24c0,1.2-1,2.3-2.3,2.3,0,0,0,0,0,0-1.3,0-2.3-1-2.3-2.3,0-1.3,1-2.3,2.3-2.3s2.3,1,2.3,2.3h0Z"/>
    <path class="st10" d="M40,24.9c0,.8-.6,1.4-1.4,1.4h0c-.8,0-1.4-.6-1.4-1.4,0-.8.6-1.4,1.4-1.4s1.4.6,1.4,1.4Z"/>
    <path class="st4" d="M6.4,0C2.9,0,0,2.9,0,6.4v1.1C0,4,2.9,1.1,6.4,1.1h51.2c3.5,0,6.4,2.9,6.4,6.4v-1.1c0-3.5-2.9-6.4-6.4-6.4H6.4Z"/>
  </g>
</svg>