<?xml version="1.0" encoding="UTF-8"?>
<svg id="_图层_1" xmlns="http://www.w3.org/2000/svg" version="1.1" viewBox="0 0 64 64" width="32" height="32">
  <!-- Generator: Adobe Illustrator 29.0.1, SVG Export Plug-In . SVG Version: 2.1.0 Build 192)  -->
  <defs>
    <style>
      .st0, .st1, .st2, .st3, .st4 {
        isolation: isolate;
      }

      .st0, .st2, .st3 {
        opacity: .1;
      }

      .st0, .st3 {
        fill: #00008b;
      }

      .st1, .st2, .st3, .st5 {
        display: none;
      }

      .st1, .st4 {
        opacity: .2;
      }

      .st2, .st6 {
        fill: #fff;
      }

      .st7 {
        fill: #dcdcbe;
      }

      .st8 {
        fill: #ff2f2f;
      }

      .st9 {
        fill: none;
        stroke: #2e2e2e;
        stroke-linecap: round;
        stroke-linejoin: round;
        stroke-width: 2px;
      }

      .st10 {
        fill: #a45390;
      }

      .st11 {
        fill: #6db832;
      }

      .st12 {
        fill: #c2352a;
      }

      .st13 {
        fill: #4987d7;
      }
    </style>
  </defs>
  <path class="st3" d="M50.3,64H13.8c-7.6,0-13.8-6.2-13.8-13.7V13.7C0,6.2,6.2,0,13.7,0h36.5c7.5,0,13.7,6.2,13.7,13.7v36.6c0,7.5-6.2,13.7-13.7,13.7h0Z"/>
  <g class="st5">
    <path class="st1" d="M0,59.5v2.3c0,1.9,1.5,3.4,3.4,3.4h57.4c1.9,0,3.4-1.5,3.4-3.4v-2.3c0,1.9-1.5,3.4-3.4,3.4H3.4C1.5,63,0,61.4,0,59.5Z"/>
    <path class="st13" d="M3.2-.1C2.3-.1,1.5.3.9.8l31.2,31.2L63.3.8c-.6-.6-1.4-.9-2.3-.9H3.2h0Z"/>
    <path class="st10" d="M3.2,64.1c-.9,0-1.7-.4-2.3-.9l31.2-31.2,31.2,31.2c-.6.6-1.4.9-2.3.9H3.2h0Z"/>
    <path class="st11" d="M64.2,3.1c0-.9-.4-1.7-.9-2.3l-31.2,31.2,31.2,31.2c.6-.6.9-1.4.9-2.3V3.1h0Z"/>
    <path class="st12" d="M0,3.1C0,2.2.4,1.4.9.8l31.2,31.2L.9,63.2c-.6-.6-.9-1.4-.9-2.3V3.1h0Z"/>
    <path class="st4" d="M35,5.6c-1.4,0-2.5.2-3.6.5-1,.3-1.9.8-2.6,1.3-.7.6-1.3,1.2-1.8,2-.5.8-.8,1.3-1.1,2.1-.3.9-.5,1.8-.6,2.8-.1,1-.2,1.9-.2,2.9h0c0,1.5.2,2.9.5,4,.4,1.1.9,2,1.5,2.8.7.7,1.4,1.3,2.3,1.7.9.4,1.8.5,2.8.5s2-.2,2.8-.5c.8-.3,1.5-.8,2.1-1.4.6-.6,1-1.4,1.3-2.2.3-.9.5-1.9.5-3s-.1-2-.4-2.8c-.3-.8-.6-1.6-1.1-2.1-.5-.6-1.1-1-1.8-1.3-.7-.3-1.5-.4-2.4-.4s-1.1,0-1.5.2c-.4.1-.8.3-1.2.5-.4.2-.7.6-.9.9-.3.3-.5.6-.7.9h-.2c0-1,.2-1.8.4-2.6.2-.8.5-1.1,1-1.7.5-.6,1.1-1,1.9-1.3.8-.3,1.8-.5,3.1-.5s.8,0,1.2,0c.4,0,.8.1,1.1.2v-3.5c-.2,0-.4,0-.6,0-.2,0-.5,0-.7,0-.2,0-.5,0-.7,0s-.4,0-.6,0ZM32.4,16c.8,0,1.5.3,1.9.9.4.6.6,1.4.6,2.4s0,1.1-.2,1.6c-.1.4-.3.8-.5,1.1-.2.3-.5.5-.8.7-.3.1-.7.2-1,.2s-.9-.1-1.2-.4c-.3-.2-.6-.5-.9-.9-.2-.4-.4-.8-.5-1.3-.1-.5-.2-1-.2-1.4s0-.7.2-1c.1-.3.3-.6.6-.9.3-.3.6-.5.9-.7.4-.2.7-.3,1.2-.3ZM47,24v10.3l1,.9c.2,0,.4-.1.6-.2.2,0,.5-.1.8-.2.3,0,.5,0,.8-.1.3,0,.5,0,.8,0,1.3,0,2.3.3,3,.8.6.5,1,1.3,1,2.3s-.3,2-1,2.5c-.7.5-1.6.8-2.9.8s-.9,0-1.3,0c-.5,0-.9-.2-1.4-.3-.5-.1-.9-.3-1.3-.4-.4-.2-.8-.3-1.1-.5v3.7c.3.2.7.3,1.1.5.4.1.9.3,1.3.3.5,0,1,.2,1.5.2.5,0,1,0,1.5,0,1.3,0,2.4-.2,3.4-.5,1-.3,1.8-.8,2.5-1.4.7-.6,1.2-1.4,1.5-2.2.3-.9.5-1.9.5-3s-.2-1.9-.5-2.7c-.3-.8-.8-1.4-1.3-2-.6-.5-1.2-.9-2-1.2-.8-.3-1.6-.4-2.5-.4h0c-.6,0-1.1,0-1.5.1-.4,0-.7.1-1,.2l.3-4.1h6.5v-3.4h-10.3ZM11.5,24.1c-.8,0-1.6,0-2.2.3-.7.2-1.3.4-1.8.6-.6.3-1.1.6-1.5.9-.5.3-.9.5-1.3.9l2.4,2.8c.7-.7,1.5-1.2,2.1-1.6.7-.4,1.4-.5,2.1-.5s1.3.2,1.7.6c.4.4.6.9.6,1.6s0,1.2-.3,1.7c-.2.5-.5,1.1-.8,1.6-.4.5-.8,1.1-1.3,1.6-.5.6-1,1.2-1.7,1.8l-4.8,5.4v2.8h13.7v-3.4h-8.3v-.2l2.5-2.7c.7-.7,1.4-1.4,2-2.1.6-.7,1.2-1.4,1.7-2.1.5-.7.9-1.4,1.1-2.2.3-.7.4-1.5.4-2.3s-.1-1.7-.4-2.4c-.3-.7-.7-1.1-1.3-1.6-.6-.5-1.2-.9-2-1.2-.8-.3-1.7-.4-2.6-.4ZM25.2,42.5v3.2h9.4l-7.3,17.2h4.5l7.1-17.7v-2.7h-13.8Z"/>
    <path class="st6" d="M35,4.5c-1.4,0-2.5.2-3.6.5-1,.3-1.9.8-2.6,1.3-.7.6-1.3,1.2-1.8,2-.5.8-.8,1.3-1.1,2.1-.3.9-.5,1.8-.6,2.8-.1,1-.2,1.9-.2,2.9h0c0,1.5.2,2.9.5,4,.4,1.1.9,2,1.5,2.8.7.7,1.4,1.3,2.3,1.7.9.4,1.8.5,2.8.5s2-.2,2.8-.5c.8-.3,1.5-.8,2.1-1.4.6-.6,1-1.4,1.3-2.2.3-.9.5-1.9.5-3s-.1-2-.4-2.8c-.3-.8-.6-1.6-1.1-2.1-.5-.6-1.1-1-1.8-1.3-.7-.3-1.5-.4-2.4-.4s-1.1,0-1.5.2c-.4.1-.8.3-1.2.5-.4.2-.7.6-.9.9-.3.3-.5.6-.7.9h-.2c0-1,.2-1.8.4-2.6.2-.8.5-1.1,1-1.7.5-.6,1.1-1,1.9-1.3.8-.3,1.8-.5,3.1-.5s.8,0,1.2,0c.4,0,.8.1,1.1.2v-3.5c-.2,0-.4,0-.6,0-.2,0-.5,0-.7,0-.2,0-.5,0-.7,0s-.4,0-.6,0ZM32.4,14.9c.8,0,1.5.3,1.9.9.4.6.6,1.4.6,2.4s0,1.1-.2,1.6c-.1.4-.3.8-.5,1.1-.2.3-.5.5-.8.7-.3.1-.7.2-1,.2s-.9-.1-1.2-.4c-.3-.2-.6-.5-.9-.9-.2-.4-.4-.8-.5-1.3-.1-.5-.2-1-.2-1.4s0-.7.2-1c.1-.3.3-.6.6-.9.3-.3.6-.5.9-.7.4-.2.7-.3,1.2-.3ZM47,22.8v10.3l1,.9c.2,0,.4-.1.6-.2.2,0,.5-.1.8-.2.3,0,.5,0,.8-.1.3,0,.5,0,.8,0,1.3,0,2.3.3,3,.8.6.5,1,1.3,1,2.3s-.3,2-1,2.5c-.7.5-1.6.8-2.9.8s-.9,0-1.3,0c-.5,0-.9-.2-1.4-.3-.5-.1-.9-.3-1.3-.4-.4-.2-.8-.3-1.1-.5v3.7c.3.2.7.3,1.1.5.4.1.9.3,1.3.3.5,0,1,.2,1.5.2.5,0,1,0,1.5,0,1.3,0,2.4-.2,3.4-.5,1-.3,1.8-.8,2.5-1.4.7-.6,1.2-1.4,1.5-2.2.3-.9.5-1.9.5-3s-.2-1.9-.5-2.7c-.3-.8-.8-1.4-1.3-2-.6-.5-1.2-.9-2-1.2-.8-.3-1.6-.4-2.5-.4h0c-.6,0-1.1,0-1.5.1-.4,0-.7.1-1,.2l.3-4.1h6.5v-3.4h-10.3ZM11.5,22.9c-.8,0-1.6,0-2.2.3-.7.2-1.3.4-1.8.6-.6.3-1.1.6-1.5.9-.5.3-.9.5-1.3.9l2.4,2.8c.7-.7,1.5-1.2,2.1-1.6.7-.4,1.4-.5,2.1-.5s1.3.2,1.7.6c.4.4.6.9.6,1.6s0,1.2-.3,1.7c-.2.5-.5,1.1-.8,1.6-.4.5-.8,1.1-1.3,1.6-.5.6-1,1.2-1.7,1.8l-4.8,5.4v2.8h13.7v-3.4h-8.3v-.2l2.5-2.7c.7-.7,1.4-1.4,2-2.1.6-.7,1.2-1.4,1.7-2.1.5-.7.9-1.4,1.1-2.2.3-.7.4-1.5.4-2.3s-.1-1.7-.4-2.4c-.3-.7-.7-1.1-1.3-1.6-.6-.5-1.2-.9-2-1.2-.8-.3-1.7-.4-2.6-.4ZM25.2,41.4v3.2h9.4l-7.3,17.2h4.5l7.1-17.7v-2.7h-13.8Z"/>
    <path class="st2" d="M3.4-.1C1.5-.1,0,1.4,0,3.3v1.1C0,2.6,1.5,1,3.4,1h57.4c1.9,0,3.4,1.5,3.4,3.4v-1.1c0-1.9-1.5-3.4-3.4-3.4H3.4Z"/>
  </g>
  <g>
    <path class="st1" d="M1.7,61.7v2.3c0,1.9,1.5,3.4,3.3,3.4h55.5c1.8,0,3.3-1.5,3.3-3.4v-2.3c0,1.9-1.5,3.4-3.3,3.4H5c-1.8,0-3.3-1.5-3.3-3.4Z"/>
    <path class="st7" d="M13.5-.1h36.8c7.5,0,13.6,6.1,13.6,13.6v36.9c0,7.5-6.1,13.6-13.6,13.6H13.5C6,64,0,57.9,0,50.4V13.5C0,6,6-.1,13.5-.1Z"/>
    <path class="st0" d="M13.2,0C6,0,.1,5.9.1,13.1v37c0,7.6,6.2,13.8,13.8,13.8h36.2c7.5,0,13.6-6.1,13.6-13.7V13.1C63.8,5.9,58,0,50.8,0H13.2ZM6.9,2.3h0v4.6H2.4c0-2.5,2-4.6,4.5-4.6ZM9.2,2.3h4.5v4.6h-4.5V2.3ZM16,2.3h4.5v4.6h-4.5V2.3ZM22.9,2.3h4.5v4.6h-4.5V2.3ZM29.7,2.3h4.5v4.6h-4.5V2.3ZM36.5,2.3h4.5v4.6h-4.5V2.3ZM43.3,2.3h4.5v4.6h-4.5V2.3ZM50.2,2.3h4.5v4.6h-4.5V2.3ZM57,2.3h0c2.5,0,4.5,2,4.5,4.6h0s-4.5,0-4.5,0V2.3ZM2.4,9.2h4.5v4.6H2.4v-4.6ZM9.2,9.2h4.5v4.6h-4.5v-4.6ZM16,9.2h4.5v4.6h-4.5v-4.6ZM22.9,9.2h4.5v4.6h-4.5v-4.6ZM29.7,9.2h4.5v4.6h-4.5v-4.6ZM36.5,9.2h4.5v4.6h-4.5v-4.6ZM43.3,9.2h4.5v4.6h-4.5v-4.6ZM50.2,9.2h4.5v4.6h-4.5v-4.6ZM57,9.2h4.5v4.6h-4.5v-4.6ZM2.4,16h4.5v4.6H2.4v-4.6ZM9.2,16h4.5v4.6h-4.5v-4.6ZM16,16h4.5v4.6h-4.5v-4.6ZM22.9,16h4.5v4.6h-4.5v-4.6ZM29.7,16h4.5v4.6h-4.5v-4.6ZM36.5,16h4.5v4.6h-4.5v-4.6ZM43.3,16h4.5v4.6h-4.5v-4.6ZM50.2,16h4.5v4.6h-4.5v-4.6ZM57,16h4.5v4.6h-4.5v-4.6ZM2.4,22.9h4.5v4.6H2.4v-4.6ZM9.2,22.9h4.5v4.6h-4.5v-4.6ZM16,22.9h4.5v4.6h-4.5v-4.6ZM22.9,22.9h4.5v4.6h-4.5v-4.6ZM29.7,22.9h4.5v4.6h-4.5v-4.6ZM36.5,22.9h4.5v4.6h-4.5v-4.6ZM43.3,22.9h4.5v4.6h-4.5v-4.6ZM50.2,22.9h4.5v4.6h-4.5v-4.6ZM57,22.9h4.5v4.6h-4.5v-4.6ZM2.4,29.7h4.5v4.6H2.4v-4.6ZM9.2,29.7h4.5v4.6h-4.5v-4.6ZM16,29.7h4.5v4.6h-4.5v-4.6ZM22.9,29.7h4.5v4.6h-4.5v-4.6ZM29.7,29.7h4.5v4.6h-4.5v-4.6ZM36.5,29.7h4.5v4.6h-4.5v-4.6ZM43.3,29.7h4.5v4.6h-4.5v-4.6ZM50.2,29.7h4.5v4.6h-4.5v-4.6ZM57,29.7h4.5v4.6h-4.5v-4.6ZM2.4,36.6h4.5v4.6H2.4v-4.6ZM9.2,36.6h4.5v4.6h-4.5v-4.6ZM16,36.6h4.5v4.6h-4.5v-4.6ZM22.9,36.6h4.5v4.6h-4.5v-4.6ZM29.7,36.6h4.5v4.6h-4.5v-4.6ZM36.5,36.6h4.5v4.6h-4.5v-4.6ZM43.3,36.6h4.5v4.6h-4.5v-4.6ZM50.2,36.6h4.5v4.6h-4.5v-4.6ZM57,36.6h4.5v4.6h-4.5v-4.6ZM2.4,43.4h4.5v4.6H2.4v-4.6ZM9.2,43.4h4.5v4.6h-4.5v-4.6ZM16,43.4h4.5v4.6h-4.5v-4.6ZM22.9,43.4h4.5v4.6h-4.5v-4.6ZM29.7,43.4h4.5v4.6h-4.5v-4.6ZM36.5,43.4h4.5v4.6h-4.5v-4.6ZM43.3,43.4h4.5v4.6h-4.5v-4.6ZM50.2,43.4h4.5v4.6h-4.5v-4.6ZM57,43.4h4.5v4.6h-4.5v-4.6ZM2.4,50.3h4.5v4.6H2.4v-4.6ZM9.2,50.3h4.5v4.6h-4.5v-4.6ZM16,50.3h4.5v4.6h-4.5v-4.6ZM22.9,50.3h4.5v4.6h-4.5v-4.6ZM29.7,50.3h4.5v4.6h-4.5v-4.6ZM36.5,50.3h4.5v4.6h-4.5v-4.6ZM43.3,50.3h4.5v4.6h-4.5v-4.6ZM50.2,50.3h4.5v4.6h-4.5v-4.6ZM57,50.3h4.5v4.6h-4.5v-4.6ZM2.4,57.1h4.5v4.6h0c-2.5,0-4.5-2-4.5-4.6h0ZM9.2,57.1h4.5v4.6h-4.5v-4.6ZM16,57.1h4.5v4.6h-4.5v-4.6ZM22.9,57.1h4.5v4.6h-4.5v-4.6ZM29.7,57.1h4.5v4.6h-4.5v-4.6ZM36.5,57.1h4.5v4.6h-4.5v-4.6ZM43.3,57.1h4.5v4.6h-4.5v-4.6ZM50.2,57.1h4.5v4.6h-4.5v-4.6ZM57,57.1h4.5c0,2.5-2,4.6-4.5,4.6h0v-4.6Z"/>
    <path class="st2" d="M5,2.3c-1.8,0-3.3,1.5-3.3,3.4v1.1c0-1.9,1.5-3.4,3.3-3.4h55.5c1.8,0,3.3,1.5,3.3,3.4v-1.1c0-1.9-1.5-3.4-3.3-3.4H5Z"/>
    <rect class="st8" x="1.7" y="34.3" width="8.9" height="2.3"/>
    <rect class="st8" x="15" y="34.3" width="8.9" height="2.3"/>
    <rect class="st8" x="28.3" y="34.3" width="8.9" height="2.3"/>
    <rect class="st8" x="41.6" y="34.3" width="8.9" height="2.3"/>
    <rect class="st8" x="54.9" y="34.3" width="8.9" height="2.3"/>
    <path class="st9" d="M9.4,44.6s16,9.1,22.2,4.6c12-8.9-11.8-31.7,2.2-36.6,9.2-3.2,20,18.3,20,18.3"/>
  </g>
</svg>