<?xml version="1.0" encoding="UTF-8"?>
<svg id="_图层_1" xmlns="http://www.w3.org/2000/svg" version="1.1" viewBox="0 0 64 64" width="32" height="32">
  <!-- Generator: Adobe Illustrator 29.0.1, SVG Export Plug-In . SVG Version: 2.1.0 Build 192)  -->
  <defs>
    <style>
      .st0 {
        fill: #4f4f4f;
      }

      .st1, .st2, .st3, .st4, .st5 {
        display: none;
      }

      .st1, .st6, .st7, .st8, .st4 {
        isolation: isolate;
      }

      .st1, .st7, .st8, .st4 {
        opacity: .2;
      }

      .st9, .st8, .st4 {
        fill: #fff;
      }

      .st10 {
        fill: #a6a6a6;
      }

      .st11 {
        fill: #ffd52b;
      }

      .st12 {
        fill: #f56161;
      }

      .st13, .st2 {
        fill: #a94912;
      }

      .st14 {
        fill: none;
        stroke: #4f4f4f;
        stroke-linecap: round;
        stroke-width: 6px;
      }

      .st6 {
        opacity: .1;
      }

      .st15 {
        fill: #ffc539;
      }

      .st16 {
        fill: #d55045;
      }

      .st17 {
        fill: #eda458;
      }

      .st18 {
        fill: #4b95d5;
      }

      .st5 {
        fill: #e4e4e4;
      }

      .st19 {
        fill: #94d551;
      }
    </style>
  </defs>
  <path class="st13" d="M50.4,64H13.8c-7.6,0-13.8-6.2-13.8-13.7V13.7C0,6.2,6.2,0,13.7,0h36.5c7.5,0,13.7,6.2,13.7,13.7v36.6c0,7.5-6.2,13.7-13.7,13.7h.1Z"/>
  <g class="st3">
    <path class="st1" d="M0,16v2.5c0,1.4,1.1,2.5,2.5,2.5h14.8c1.4,0,2.5-1.1,2.5-2.5v-2.5c0,1.4-1.1,2.5-2.5,2.5H2.5c-1.4,0-2.5-1.1-2.5-2.5ZM22.2,16v2.5c0,1.4,1.1,2.5,2.5,2.5h14.8c1.4,0,2.5-1.1,2.5-2.5v-2.5c0,1.4-1.1,2.5-2.5,2.5h-14.8c-1.4,0-2.5-1.1-2.5-2.5ZM44.4,16v2.5c0,1.4,1.1,2.5,2.5,2.5h14.8c1.4,0,2.5-1.1,2.5-2.5v-2.5c0,1.4-1.1,2.5-2.5,2.5h-14.8c-1.4,0-2.5-1.1-2.5-2.5ZM0,38.2v2.5c0,1.4,1.1,2.5,2.5,2.5h14.8c1.4,0,2.5-1.1,2.5-2.5v-2.5c0,1.4-1.1,2.5-2.5,2.5H2.5c-1.4,0-2.5-1.1-2.5-2.5ZM22.2,38.2v2.5c0,1.4,1.1,2.5,2.5,2.5h14.8c1.4,0,2.5-1.1,2.5-2.5v-2.5c0,1.4-1.1,2.5-2.5,2.5h-14.8c-1.4,0-2.5-1.1-2.5-2.5ZM44.4,38.2v2.5c0,1.4,1.1,2.5,2.5,2.5h14.8c1.4,0,2.5-1.1,2.5-2.5v-2.5c0,1.4-1.1,2.5-2.5,2.5h-14.8c-1.4,0-2.5-1.1-2.5-2.5ZM0,60.3v2.5c0,1.4,1.1,2.5,2.5,2.5h14.8c1.4,0,2.5-1.1,2.5-2.5v-2.5c0,1.4-1.1,2.5-2.5,2.5H2.5c-1.4,0-2.5-1.1-2.5-2.5ZM22.2,60.3v2.5c0,1.4,1.1,2.5,2.5,2.5h14.8c1.4,0,2.5-1.1,2.5-2.5v-2.5c0,1.4-1.1,2.5-2.5,2.5h-14.8c-1.4,0-2.5-1.1-2.5-2.5ZM44.4,60.3v2.5c0,1.4,1.1,2.5,2.5,2.5h14.8c1.4,0,2.5-1.1,2.5-2.5v-2.5c0,1.4-1.1,2.5-2.5,2.5h-14.8c-1.4,0-2.5-1.1-2.5-2.5Z"/>
    <path class="st16" d="M14.4,0h2.8c1.4,0,2.5,1.1,2.5,2.5v14.8c0,1.4-1.1,2.5-2.5,2.5H2.5c-1.4,0-2.5-1.1-2.5-2.5v-2.9C0,6.4,6.4,0,14.4,0Z"/>
    <path class="st15" d="M24.6,0h14.8c1.4,0,2.5,1.1,2.5,2.5v14.8c0,1.4-1.1,2.5-2.5,2.5h-14.8c-1.4,0-2.5-1.1-2.5-2.5V2.5c0-1.4,1.1-2.5,2.5-2.5Z"/>
    <path class="st19" d="M46.8,0h3.5c7.6,0,13.7,6.1,13.7,13.7v3.5c0,1.4-1.1,2.5-2.5,2.5h-14.8c-1.4,0-2.5-1.1-2.5-2.5V2.5c0-1.4,1.1-2.5,2.5-2.5Z"/>
    <path class="st19" d="M2.5,22.2h14.8c1.4,0,2.5,1.1,2.5,2.5v14.8c0,1.4-1.1,2.5-2.5,2.5H2.5c-1.4,0-2.5-1.1-2.5-2.5v-14.8c0-1.4,1.1-2.5,2.5-2.5Z"/>
    <path class="st18" d="M24.6,22.2h14.8c1.4,0,2.5,1.1,2.5,2.5v14.8c0,1.4-1.1,2.5-2.5,2.5h-14.8c-1.4,0-2.5-1.1-2.5-2.5v-14.8c0-1.4,1.1-2.5,2.5-2.5Z"/>
    <path class="st19" d="M46.8,22.2h14.8c1.4,0,2.5,1.1,2.5,2.5v14.8c0,1.4-1.1,2.5-2.5,2.5h-14.8c-1.4,0-2.5-1.1-2.5-2.5v-14.8c0-1.4,1.1-2.5,2.5-2.5Z"/>
    <path class="st18" d="M2.5,44.3h14.8c1.4,0,2.5,1.1,2.5,2.5v14.8c0,1.4-1.1,2.5-2.5,2.5h-2.6c-8.1,0-14.6-6.5-14.6-14.6v-2.7c0-1.4,1.1-2.5,2.5-2.5Z"/>
    <path class="st15" d="M24.6,44.3h14.8c1.4,0,2.5,1.1,2.5,2.5v14.8c0,1.4-1.1,2.5-2.5,2.5h-14.8c-1.4,0-2.5-1.1-2.5-2.5v-14.8c0-1.4,1.1-2.5,2.5-2.5Z"/>
    <path class="st16" d="M46.8,44.3h14.8c1.4,0,2.5,1.1,2.5,2.5v2.7c0,8-6.5,14.5-14.6,14.5h-2.7c-1.4,0-2.5-1.1-2.5-2.5v-14.8c0-1.4,1.1-2.5,2.5-2.5Z"/>
    <path class="st4" d="M2.5,0C1.1,0,0,1.1,0,2.5v1.2C0,2.3,1.1,1.2,2.5,1.2h14.8c1.4,0,2.5,1.1,2.5,2.5v-1.2c0-1.4-1.1-2.5-2.5-2.5H2.5ZM24.6,0c-1.4,0-2.5,1.1-2.5,2.5v1.2c0-1.4,1.1-2.5,2.5-2.5h14.8c1.4,0,2.5,1.1,2.5,2.5v-1.2c0-1.4-1.1-2.5-2.5-2.5h-14.8ZM46.8,0c-1.4,0-2.5,1.1-2.5,2.5v1.2c0-1.4,1.1-2.5,2.5-2.5h14.8c1.4,0,2.5,1.1,2.5,2.5v-1.2c0-1.4-1.1-2.5-2.5-2.5h-14.8ZM2.5,22.2c-1.4,0-2.5,1.1-2.5,2.5v1.2c0-1.4,1.1-2.5,2.5-2.5h14.8c1.4,0,2.5,1.1,2.5,2.5v-1.2c0-1.4-1.1-2.5-2.5-2.5H2.5ZM24.6,22.2c-1.4,0-2.5,1.1-2.5,2.5v1.2c0-1.4,1.1-2.5,2.5-2.5h14.8c1.4,0,2.5,1.1,2.5,2.5v-1.2c0-1.4-1.1-2.5-2.5-2.5h-14.8ZM46.8,22.2c-1.4,0-2.5,1.1-2.5,2.5v1.2c0-1.4,1.1-2.5,2.5-2.5h14.8c1.4,0,2.5,1.1,2.5,2.5v-1.2c0-1.4-1.1-2.5-2.5-2.5h-14.8ZM2.5,44.3c-1.4,0-2.5,1.1-2.5,2.5v1.2c0-1.4,1.1-2.5,2.5-2.5h14.8c1.4,0,2.5,1.1,2.5,2.5v-1.2c0-1.4-1.1-2.5-2.5-2.5H2.5ZM24.6,44.3c-1.4,0-2.5,1.1-2.5,2.5v1.2c0-1.4,1.1-2.5,2.5-2.5h14.8c1.4,0,2.5,1.1,2.5,2.5v-1.2c0-1.4-1.1-2.5-2.5-2.5h-14.8ZM46.8,44.3c-1.4,0-2.5,1.1-2.5,2.5v1.2c0-1.4,1.1-2.5,2.5-2.5h14.8c1.4,0,2.5,1.1,2.5,2.5v-1.2c0-1.4-1.1-2.5-2.5-2.5h-14.8Z"/>
  </g>
  <g class="st3">
    <path class="st7" d="M49.5,8.8l-2.4-1.1c-.7-.3-1.6,0-2,.7l-.8,1.4c-1-.2-2.1-.2-3.1,0l-.7-1.4c-.4-.7-1.2-1.1-2-.8l-2.4,1c-.7.3-1.2,1.2-1,2l.4,1.6c-.9.7-1.6,1.4-2.3,2.3l-1.5-.5c-.8-.2-1.6.2-1.9.9l-1,2.5c-.3.8,0,1.7.7,2.1l1.5.9c-.1,1-.1,2.1,0,3.1l-1.5.8c-.7.4-1,1.3-.7,2.1l1,2.5c.3.8,1.1,1.2,1.9,1l1.7-.5c.6.8,1.2,1.4,1.9,2l-.5,1.8c-.2.8.2,1.7.9,2l2.4,1.1c.7.3,1.6,0,2-.7l.9-1.6c.9.1,1.9.2,2.8,0l.9,1.7c.4.7,1.2,1.1,2,.8l2.4-1c.7-.3,1.2-1.2,1-2l-.5-1.8c.8-.6,1.6-1.4,2.2-2.2l1.7.5c.8.2,1.6-.2,1.9-.9l1-2.5c.3-.8,0-1.7-.7-2.1l-1.5-.9c.1-1,.2-2.1,0-3.1l1.4-.8c.7-.4,1-1.3.7-2.1l-1-2.5c-.3-.8-1.1-1.2-1.9-1l-1.5.4c-.6-.8-1.3-1.6-2-2.2l.5-1.6c.2-.8-.1-1.7-.9-2Z"/>
    <path class="st7" d="M11.8,45.8c.2.9.6,1.7,1,2.5l-1.2,1.6c-.4.5-.4,1.3,0,1.8l2.1,2.2c.5.5,1.2.5,1.7.1l1.6-1.3c.8.5,1.6.9,2.5,1.1l.2,2.1c0,.7.6,1.2,1.3,1.2h3c.6,0,1.2-.5,1.3-1.2l.2-2c1-.3,1.9-.6,2.7-1.1l1.5,1.2c.5.4,1.2.4,1.7-.1l2.1-2.2c.5-.5.5-1.2,0-1.8l-1.2-1.5c.5-.9.9-1.8,1.1-2.8l1.8-.2c.6,0,1.1-.6,1.1-1.3v-3.1c0-.7-.5-1.2-1.1-1.3l-1.8-.2c-.2-1-.6-1.9-1.1-2.8l1.1-1.4c.4-.5.4-1.3,0-1.8l-2.1-2.2c-.5-.5-1.2-.5-1.7-.1l-1.3,1.1c-.9-.5-1.8-.9-2.8-1.2l-.2-1.8c0-.7-.6-1.2-1.3-1.2h-3c-.6,0-1.2.5-1.3,1.2l-.2,1.8c-1,.3-2,.7-2.8,1.3l-1.4-1.1c-.5-.4-1.2-.4-1.7.1l-2.1,2.2c-.5.5-.5,1.2,0,1.8l1.2,1.5c-.5.9-.8,1.8-1.1,2.8l-1.9.2c-.6,0-1.1.6-1.1,1.3v3.1c0,.7.5,1.2,1.1,1.3l2,.2h0Z"/>
    <path class="st10" d="M11.8,44.9c.2.9.6,1.7,1,2.5l-1.2,1.6c-.4.5-.4,1.3,0,1.8l2.1,2.2c.5.5,1.2.5,1.7.1l1.6-1.3c.8.5,1.6.9,2.5,1.1l.2,2.1c0,.7.6,1.2,1.3,1.2h3c.6,0,1.2-.5,1.3-1.2l.2-2c1-.3,1.9-.6,2.7-1.1l1.5,1.2c.5.4,1.2.4,1.7-.1l2.1-2.2c.5-.5.5-1.2,0-1.8l-1.2-1.5c.5-.9.9-1.8,1.1-2.8l1.8-.2c.6,0,1.1-.6,1.1-1.3v-3.1c0-.7-.5-1.2-1.1-1.3l-1.8-.2c-.2-1-.6-1.9-1.1-2.8l1.1-1.4c.4-.5.4-1.3,0-1.8l-2.1-2.2c-.5-.5-1.2-.5-1.7-.1l-1.3,1.1c-.9-.5-1.8-.9-2.8-1.2l-.2-1.8c0-.7-.6-1.2-1.3-1.2h-3c-.6,0-1.2.5-1.3,1.2l-.2,1.8c-1,.3-2,.7-2.8,1.3l-1.4-1.1c-.5-.4-1.2-.4-1.7.1l-2.1,2.2c-.5.5-.5,1.2,0,1.8l1.2,1.5c-.5.9-.8,1.8-1.1,2.8l-1.9.2c-.6,0-1.1.6-1.1,1.3v3.1c0,.7.5,1.2,1.1,1.3l2,.2h0Z"/>
    <ellipse class="st7" cx="22.7" cy="42.6" rx="4.9" ry="5.1"/>
    <ellipse class="st9" cx="22.7" cy="41.7" rx="4.9" ry="5.1"/>
    <path class="st11" d="M49.5,8l-2.4-1.1c-.7-.3-1.6,0-2,.7l-.8,1.4c-1-.2-2.1-.2-3.1,0l-.7-1.4c-.4-.7-1.2-1.1-2-.8l-2.4,1c-.7.3-1.2,1.2-1,2l.4,1.6c-.9.7-1.6,1.4-2.3,2.3l-1.5-.5c-.8-.2-1.6.2-1.9.9l-1,2.5c-.3.8,0,1.7.7,2.1l1.5.9c-.1,1-.1,2.1,0,3.1l-1.5.8c-.7.4-1,1.3-.7,2.1l1,2.5c.3.8,1.1,1.2,1.9,1l1.7-.5c.6.8,1.2,1.4,1.9,2l-.5,1.8c-.2.8.2,1.7.9,2l2.4,1.1c.7.3,1.6,0,2-.7l.9-1.6c.9.1,1.9.2,2.8,0l.9,1.7c.4.7,1.2,1.1,2,.8l2.4-1c.7-.3,1.2-1.2,1-2l-.5-1.8c.8-.6,1.6-1.4,2.2-2.2l1.7.5c.8.2,1.6-.2,1.9-.9l1-2.5c.3-.8,0-1.7-.7-2.1l-1.5-.9c.1-1,.2-2.1,0-3.1l1.4-.8c.7-.4,1-1.3.7-2.1l-1-2.5c-.3-.8-1.1-1.2-1.9-1l-1.5.4c-.6-.8-1.3-1.6-2-2.2l.5-1.6c.2-.8-.1-1.7-.9-2Z"/>
    <ellipse class="st7" cx="42.5" cy="22" rx="4.9" ry="5.1"/>
    <ellipse class="st9" cx="42.5" cy="21.2" rx="4.9" ry="5.1"/>
    <path class="st8" d="M21.3,27.2c-.6,0-1.2.5-1.3,1.2l-.2,1.8c-1,.3-2,.7-2.8,1.3l-1.4-1.1c-.5-.4-1.2-.4-1.7.1l-2.1,2.2c-.4.4-.5.9-.3,1.4,0-.2.2-.4.3-.5l2.1-2.2c.5-.5,1.2-.5,1.7-.1l1.4,1.1c.9-.6,1.8-1,2.8-1.3l.2-1.8c0-.7.6-1.2,1.3-1.2h3c.6,0,1.2.5,1.3,1.2l.2,1.8c1,.3,1.9.7,2.8,1.2l1.3-1.1c.5-.4,1.2-.4,1.7.1l2.1,2.2c.1.2.2.3.3.5.2-.5,0-1-.3-1.4l-2.1-2.2c-.5-.5-1.2-.5-1.7-.1l-1.3,1.1c-.9-.5-1.8-.9-2.8-1.2l-.2-1.8c0-.7-.6-1.2-1.3-1.2h-3ZM33,36.3l-.3.3c.5.9.8,1.8,1.1,2.8l1.8.2c.6,0,1.1.6,1.1,1.3v-.9c0-.7-.5-1.2-1.1-1.3l-1.8-.2c-.2-.8-.5-1.5-.8-2.2ZM12.5,36.4c-.3.7-.6,1.5-.8,2.3l-1.9.2c-.6,0-1.1.6-1.1,1.3v.9c0-.7.5-1.2,1.1-1.3l1.9-.2c.2-1,.6-1.9,1.1-2.8l-.3-.3ZM12.6,47.8l-1,1.3c-.3.4-.3.8-.2,1.2,0-.1.1-.3.2-.4l1.2-1.6c0-.2-.2-.4-.2-.5ZM32.9,47.9c0,.2-.2.3-.3.5l1.2,1.5c0,.1.2.3.2.4.1-.4,0-.9-.2-1.3l-.9-1.2Z"/>
    <path class="st8" d="M39,6.6c-.2,0-.4,0-.6.1l-2.4,1c-.7.3-1.2,1.2-1,2h0c.1-.5.5-.9,1-1.1l2.4-1c.8-.3,1.6,0,2,.8l.7,1.4c1-.1,2.1-.1,3.1,0l.8-1.4c.4-.7,1.3-1,2-.7l2.4,1.1c.5.2.8.6.9,1.1.2-.8-.2-1.6-.9-1.9l-2.4-1.1c-.7-.3-1.6,0-2,.7l-.8,1.4c-1-.2-2.1-.2-3.1,0l-.7-1.4c-.3-.6-.8-.9-1.4-.9ZM35.2,11.4c-.8.6-1.5,1.4-2.1,2.2l-1.5-.5c-.8-.2-1.6.2-1.9.9l-1,2.5c-.1.4-.2.7,0,1.1,0,0,0-.2,0-.2l1-2.5c.3-.8,1.1-1.2,1.9-.9l1.5.5c.6-.9,1.4-1.7,2.3-2.3l-.2-.7ZM50.1,11.7l-.2.7c.8.6,1.5,1.4,2,2.2l1.5-.4c.8-.2,1.6.2,1.9,1l1,2.5c0,0,0,.1,0,.2,0-.3,0-.7,0-1l-1-2.5c-.3-.8-1.1-1.2-1.9-1l-1.5.4c-.5-.8-1.2-1.4-1.8-2ZM30.7,20.3c0,.4,0,.7,0,1.1,0-.4,0-.7,0-1.1h0ZM54.2,20.6h0c0,.3,0,.6,0,.9,0-.3,0-.6,0-.9ZM30.7,22.6l-1.4.8c-.7.4-1,1.2-.8,1.9.1-.4.4-.8.8-1l1.5-.8c0-.3,0-.5,0-.8ZM54.2,22.9c0,.3,0,.5,0,.8l1.5.9c.4.2.6.6.7,1,.2-.7-.1-1.5-.7-1.9l-1.4-.8ZM34.9,31.2l-.3,1.1c0,.3,0,.6,0,.9,0,0,0,0,0,0l.5-1.8c0,0-.1-.1-.2-.2ZM49.6,31.6c0,0-.1.1-.2.1l.5,1.8c0-.3,0-.6,0-.8l-.3-1.1Z"/>
  </g>
  <g class="st3">
    <path class="st1" d="M3.6,1.1h57.2c1.8,0,3.2,1.4,3.2,3.2v57.5c0,1.8-1.4,3.2-3.2,3.2H3.6c-1.8,0-3.2-1.4-3.2-3.2V4.3C.4,2.5,1.8,1.1,3.6,1.1Z"/>
    <path class="st5" d="M3.6,0h57.2c1.8,0,3.2,1.4,3.2,3.2v57.5c0,1.8-1.4,3.2-3.2,3.2H3.6c-1.8,0-3.2-1.4-3.2-3.2V3.2C.4,1.4,1.8,0,3.6,0Z"/>
    <path class="st6" d="M12.4,9.9c-1.8,0-3.3,1.5-3.3,3.3,0,.9.4,1.7,1,2.4l6.8,6.8c-2.2,3.1-3.3,6.9-3.4,10.7,0,3.8,1.2,7.6,3.3,10.7l-6.8,6.8c-1.3,1.3-1.4,3.4,0,4.7s3.3,1.4,4.6,0c0,0,0,0,0,0l6.8-6.8c3.1,2.2,6.8,3.4,10.6,3.4,3.8,0,7.5-1.2,10.6-3.4l6.8,6.8c1.3,1.3,3.3,1.4,4.6,0s1.4-3.4,0-4.7c0,0,0,0,0,0l-6.8-6.8c2.2-3.1,3.3-6.9,3.4-10.7,0-3.8-1.2-7.6-3.3-10.7l6.8-6.8c1.3-1.3,1.3-3.4,0-4.7-.6-.7-1.5-1-2.5-1-.9,0-1.7.4-2.3,1l-6.8,6.8c-3.1-2.2-6.8-3.4-10.6-3.4-3.8,0-7.5,1.2-10.6,3.4l-6.8-6.8c-.6-.6-1.5-1-2.4-1ZM32.2,20.9c2.1,0,4.1.5,5.9,1.5l-5.9,5.9-5.9-5.9c1.8-1,3.8-1.5,5.9-1.5ZM21.7,27.1l5.9,5.9-5.9,5.9c-1-1.8-1.5-3.8-1.5-5.9,0-2.1.5-4.1,1.5-5.9ZM42.7,27.2c1,1.8,1.5,3.8,1.5,5.9,0,2.1-.5,4.1-1.5,5.9l-5.9-5.9,5.9-5.9ZM32.2,37.7l5.9,5.9c-1.8,1-3.8,1.5-5.9,1.5-2.1,0-4.1-.5-5.9-1.5l5.9-5.9Z"/>
    <path class="st0" d="M32.2,13.2c-10.3,0-18.6,8.4-18.6,18.7s8.3,18.7,18.6,18.7,18.6-8.4,18.6-18.7h0c0-10.3-8.3-18.7-18.6-18.7ZM32.2,19.8c6.7,0,12.1,5.4,12.1,12.1s-5.4,12.1-12.1,12.1-12.1-5.4-12.1-12.1,5.4-12.1,12.1-12.1Z"/>
    <path class="st14" d="M12.5,12.1l39.5,39.7h0"/>
    <path class="st14" d="M51.9,12.1L12.5,51.8"/>
    <path class="st4" d="M3.6,0C1.8,0,.4,1.4.4,3.2v1.1C.4,2.5,1.8,1.1,3.6,1.1h57.2c1.8,0,3.2,1.4,3.2,3.2v-1.1c0-1.8-1.4-3.2-3.2-3.2H3.6Z"/>
  </g>
  <g>
    <path class="st1" d="M0,32.1C0,32.4,0,32.8,0,33.2c0,17.8,14.2,32.1,31.9,32.1s31.9-14.3,31.9-32.1,0-.8,0-1.1c-.6,17.2-14.6,30.9-31.8,30.9S.7,49.3,0,32.1h0Z"/>
    <path class="st2" d="M31.9,0h0c17.6,0,31.9,14.4,31.9,32.1h0c0,17.7-14.3,32.1-31.9,32.1h0C14.3,64.1,0,49.8,0,32.1h0C0,14.4,14.3,0,31.9,0Z"/>
    <path class="st7" d="M31.9,10.3c-7.6,0-13.7,6.2-13.7,13.7h0c0,5.9,3.7,11.1,9.3,13l2.1,21.4h4.6l2.1-21.4c5.5-1.9,9.3-7.1,9.3-13,0-7.6-6.1-13.7-13.7-13.7h0ZM31.9,12.6c5,0,9.1,4.1,9.1,9.2h0c0,5.1-4.1,9.2-9.1,9.2h0c-5,0-9.1-4.1-9.1-9.2h0c0-5.1,4.1-9.2,9.1-9.2h0Z"/>
    <path class="st17" d="M31.9,9.2c-7.6,0-13.7,6.2-13.7,13.7h0c0,7.6,6.1,13.7,13.7,13.7h0c7.6,0,13.7-6.2,13.7-13.7h0c0-7.6-6.1-13.7-13.7-13.7h0ZM31.9,11.4c5,0,9.1,4.1,9.1,9.2h0c0,5.1-4.1,9.2-9.1,9.2h0c-5,0-9.1-4.1-9.1-9.2h0c0-5.1,4.1-9.2,9.1-9.2h0Z"/>
    <path class="st17" d="M27.3,34.3h9.1l-2.3,22.9h-4.6l-2.3-22.9Z"/>
    <rect class="st7" x="22.8" y="37.8" width="18.2" height="4.6"/>
    <rect class="st12" x="22.8" y="36.6" width="18.2" height="4.6"/>
    <path class="st4" d="M31.9,0C14.2,0,0,14.3,0,32.1s0,.3,0,.4C.4,15,14.5,1.1,31.9,1.1s31.5,13.9,31.9,31.3c0-.1,0-.3,0-.4C63.8,14.3,49.6,0,31.9,0Z"/>
  </g>
</svg>