<?xml version="1.0" encoding="UTF-8"?>
<svg id="_图层_1" xmlns="http://www.w3.org/2000/svg" version="1.1" viewBox="0 0 64 64" width="32" height="32">
  <!-- Generator: Adobe Illustrator 29.0.1, SVG Export Plug-In . SVG Version: 2.1.0 Build 192)  -->
  <defs>
    <style>
      .st0, .st1 {
        fill: #4f4f4f;
      }

      .st2, .st3, .st4, .st5, .st6, .st7, .st1 {
        display: none;
      }

      .st2, .st3, .st8, .st9, .st7, .st10 {
        isolation: isolate;
      }

      .st2, .st8, .st9, .st7 {
        opacity: .2;
      }

      .st3, .st11, .st9, .st7, .st10 {
        fill: #fff;
      }

      .st3, .st10 {
        opacity: .1;
      }

      .st12 {
        fill: #6f6fee;
      }

      .st4 {
        fill: #f2385a;
      }

      .st13 {
        fill: #f2f2f2;
      }

      .st14 {
        fill: #25c65f;
      }

      .st5 {
        fill: #f57f38;
      }

      .st15 {
        fill: #f34235;
      }

      .st16 {
        fill: #59d4f1;
      }
    </style>
  </defs>
  <path class="st13" d="M50.4,64H13.8c-7.6,0-13.8-6.2-13.8-13.7V13.7C0,6.2,6.2,0,13.7,0h36.5c7.5,0,13.7,6.2,13.7,13.7v36.6c0,7.5-6.2,13.7-13.7,13.7h.1Z"/>
  <g class="st6">
    <path class="st2" d="M31.9,1.2c-.9,0-1.8,0-2.6.1-7.8.6-14.1,3.5-19.8,9.2C4.8,15.2,1.9,21,.7,27c-.1.6-.2,1.1-.3,1.7,0,.3,0,.7-.1,1,0,.7-.1,1.5-.1,2.3,0,.2,0,.4,0,.6,0,.2,0,.4,0,.5,0,17.4,13.7,31.4,30.8,31.9.1,0,.3,0,.4,0,.2,0,.3,0,.5,0,.8,0,1.5,0,2.3,0,0,0,.2,0,.3,0,11.3-.9,20.9-7.7,25.8-17.4h0c.3-.6.6-1.3.9-1.9,1.5-3.4,2.3-7,2.4-10.7,0-.1,0-.2,0-.4,0-.4,0-.7,0-1.1,0-.1,0-.2,0-.3V6c0-2.7-2.1-4.8-4.8-4.8h-26.9Z"/>
    <path class="st5" d="M31.9,0c-.9,0-1.8,0-2.6.1-7.8.6-14.1,3.5-19.8,9.2C4.8,14,1.9,19.8.7,25.9c-.1.6-.2,1.1-.3,1.7,0,.3,0,.7-.1,1,0,.7-.1,1.5-.1,2.3,0,.2,0,.4,0,.6,0,.2,0,.4,0,.5,0,17.4,13.7,31.4,30.8,31.9.1,0,.3,0,.4,0,.2,0,.3,0,.5,0,.8,0,1.5,0,2.3,0,0,0,.2,0,.3,0,11.3-.9,20.9-7.7,25.8-17.4h0c.3-.6.6-1.3.9-1.9,1.5-3.4,2.3-7,2.4-10.7,0-.1,0-.2,0-.4,0-.4,0-.7,0-1.1,0-.1,0-.2,0-.3V4.8c0-2.7-2.1-4.8-4.8-4.8h-26.9Z"/>
    <path class="st8" d="M35,14.9c-.8,0-1.5.6-1.5,1.4,0,.8.7,1.4,1.5,1.4,3.5,0,6.3,1.1,8.6,3.3,2.3,2.1,3.4,5.1,3.5,9h0c0,.8.7,1.4,1.5,1.4s0,0,0,0c.8,0,1.5-.7,1.5-1.4h0c0-2.3-.4-4.4-1.1-6.2-.7-1.9-1.8-3.5-3.3-4.9-2.8-2.7-6.5-4.1-10.6-4.1h0,0ZM20.1,18.2c-.6,0-1.2,0-1.8.3h-.1c-1.1.7-2.2,1.5-3.1,2.6h0v.2c-.7.9-1.1,1.7-1.2,2.6,0,.1,0,.3,0,.4,0,.4,0,.8.2,1.2h0c0,.1,0,.1,0,.1.4,1.3,1.3,3.4,3.2,7,1.3,2.3,2.6,4.3,3.9,5.9.7.9,1.5,1.8,2.4,2.7,0,0,0,0,0,0,0,0,0,0,0,0h0c0,0,0,0,0,0,0,0,0,0,0,0h0s0,0,0,0c.9.9,1.8,1.7,2.7,2.4,1.6,1.3,3.6,2.6,5.9,3.9,3.5,1.9,5.6,2.8,6.9,3.2h0c0,0,0,0,0,0,.4.1.8.2,1.2.2.2,0,.3,0,.4,0,.9-.1,1.8-.5,2.7-1.3h0s0,0,0,0c0,0,0,0,0,0,0,0,0,0,0,0,1.1-1,1.9-2,2.5-3.1h0c.6-1.4.4-2.6-.6-3.4,0,0-.5-.4-1-.9-.6-.5-1.3-1-1.7-1.4-.9-.7-2.2-1.5-3-1.9h0c-1.5-.8-3-.4-3.7.5l-1.2,1.5c-.5.6-1.5.6-1.5.6-8.1-2.1-10.3-10.3-10.3-10.4,0,0,0-1,.6-1.5l1.5-1.2c.9-.7,1.4-2.2.6-3.8-.4-.8-1.3-2.2-1.9-3h0c-.3-.5-.9-1.2-1.4-1.8-.2-.3-.5-.6-.6-.8,0,0-.1-.2-.2-.2,0,0,0,0,0,0,0,0,0,0,0,0-.4-.5-.9-.8-1.5-.9h0ZM35,21.5c-.8,0-1.5.5-1.5,1.3,0,.8.6,1.4,1.3,1.5,1.9.1,3.2.7,4.2,1.8h0c1,1.1,1.5,2.3,1.4,3.9h0c0,.8.6,1.4,1.4,1.4h0c.8,0,1.4-.6,1.4-1.4,0-2.3-.7-4.3-2.2-5.9-1.5-1.6-3.6-2.5-6.2-2.7h0Z"/>
    <path class="st11" d="M35,13.7c-.8,0-1.5.6-1.5,1.4,0,.8.7,1.4,1.5,1.4,3.5,0,6.3,1.1,8.6,3.3,2.3,2.1,3.4,5.1,3.5,9h0c0,.8.7,1.4,1.5,1.4s0,0,0,0c.8,0,1.5-.7,1.5-1.4h0c0-2.3-.4-4.4-1.1-6.2-.7-1.9-1.8-3.5-3.3-4.9-2.8-2.7-6.5-4.1-10.6-4.1h0,0ZM20.1,17.1c-.6,0-1.2,0-1.8.3h-.1c-1.1.7-2.2,1.5-3.1,2.6h0v.2c-.7.9-1.1,1.7-1.2,2.6,0,.1,0,.3,0,.4,0,.4,0,.8.2,1.2h0c0,.1,0,.1,0,.1.4,1.3,1.3,3.4,3.2,7,1.3,2.3,2.6,4.3,3.9,5.9.7.9,1.5,1.8,2.4,2.7,0,0,0,0,0,0,0,0,0,0,0,0h0c0,0,0,0,0,0,0,0,0,0,0,0h0s0,0,0,0c.9.9,1.8,1.7,2.7,2.4,1.6,1.3,3.6,2.6,5.9,3.9,3.5,1.9,5.6,2.8,6.9,3.2h0c0,0,0,0,0,0,.4.1.8.2,1.2.2.2,0,.3,0,.4,0,.9-.1,1.8-.5,2.7-1.3h0s0,0,0,0c0,0,0,0,0,0,0,0,0,0,0,0,1.1-1,1.9-2,2.5-3.1h0c.6-1.4.4-2.6-.6-3.4,0,0-.5-.4-1-.9-.6-.5-1.3-1-1.7-1.4-.9-.7-2.2-1.5-3-1.9h0c-1.5-.8-3-.4-3.7.5l-1.2,1.5c-.5.6-1.5.6-1.5.6-8.1-2.1-10.3-10.3-10.3-10.4,0,0,0-1,.6-1.5l1.5-1.2c.9-.7,1.4-2.2.6-3.8-.4-.8-1.3-2.2-1.9-3h0c-.3-.5-.9-1.2-1.4-1.8-.2-.3-.5-.6-.6-.8,0,0-.1-.2-.2-.2,0,0,0,0,0,0,0,0,0,0,0,0-.4-.5-.9-.8-1.5-.9h0ZM35,20.4c-.8,0-1.5.5-1.5,1.3,0,.8.6,1.4,1.3,1.5,1.9.1,3.2.7,4.2,1.8h0c1,1.1,1.5,2.3,1.4,3.9h0c0,.8.6,1.4,1.4,1.4h0c.8,0,1.4-.6,1.4-1.4,0-2.3-.7-4.3-2.2-5.9-1.5-1.6-3.6-2.5-6.2-2.7h0Z"/>
    <path class="st7" d="M31.9,0c-.9,0-1.8,0-2.6.1-7.8.6-14.1,3.5-19.8,9.2C4.8,14,1.9,19.8.7,25.9c-.1.6-.2,1.1-.3,1.7,0,.3,0,.7-.1,1,0,.7-.1,1.5-.1,2.3,0,.2,0,.4,0,.6,0,.2,0,.4,0,.5s0,.3,0,.4c0-.1,0-.3,0-.4,0-.8,0-1.5.1-2.3,0-.3,0-.7.1-1,0-.6.2-1.1.3-1.7,1.1-6.1,4-11.8,8.7-16.5C15.1,4.8,21.4,1.9,29.2,1.3c.9,0,1.7-.1,2.6-.1h26.9c2.6,0,4.8,2.1,4.8,4.8v-1.1c0-2.7-2.1-4.8-4.8-4.8h-26.9Z"/>
  </g>
  <g class="st6">
    <path class="st8" d="M32,15.2l-8,4.6-8,4.6v2l8-4.6,8-4.6,8,4.6,8,4.6v-2l-8-4.6-8-4.6h0ZM8,21.8h0s0,8.6,0,8.6v-8.6s0,0,0,0ZM8,47.4v2s8,4.6,8,4.6l8-4.6v-2l-8,4.6-8-4.6h0ZM56,47.4l-8,4.6-8-4.6v2s8,4.6,8,4.6l8-4.6v-2h0Z"/>
    <path class="st14" d="M8,48.4v-18.4s0-9.2,0-9.2l8-4.6,16-9.1,16,9.1,8,4.6v27.7l-8,4.6-8-4.6v-9.2s8-4.6,8-4.6v-9.2l-8-4.6-8-4.6-8,4.6-8,4.6v9.2l8,4.6v9.2l-8,4.6-8-4.6Z"/>
    <path class="st9" d="M32,7l-16,9.1-8,4.6v1s8-4.6,8-4.6l16-9.1,16,9.1,8,4.6v-1l-8-4.6-16-9.1ZM8,30.7v17.8s0,0,0,0v-17.4s0-.3,0-.3ZM16,34.6v1l8,4.6v-1l-8-4.6ZM48,34.6l-8,4.6v9.2s0,0,0,0v-8.2s8-4.6,8-4.6v-1Z"/>
  </g>
  <g class="st6">
    <ellipse class="st2" cx="32" cy="33.3" rx="32" ry="31.8"/>
    <ellipse class="st1" cx="32" cy="32.2" rx="32" ry="31.8"/>
    <path class="st8" d="M24.3,24.2l-3.5,20.4h15.4l8.4-20.4h-3.2l-6,14.4v-8.8c-.5.2-1.1.3-1.7.3s-1.2,0-1.7-.3v11.4h-7.4l2.9-17h-3.2Z"/>
    <path class="st8" d="M32,12.9c-11.4,0-20.6,9.1-20.6,20.4s9.2,20.4,20.6,20.4,20.6-9.1,20.6-20.4-9.2-20.4-20.6-20.4ZM32,16.3c9.5,0,17.2,7.6,17.2,17s-7.7,17-17.2,17-17.2-7.6-17.2-17,7.7-17,17.2-17Z"/>
    <path class="st11" d="M24.3,23.1h3.2l-3.5,20.4h-3.2l3.5-20.4Z"/>
    <path class="st11" d="M35.2,40.1v3.4h-14.3l1-3.4h13.4Z"/>
    <path class="st12" d="M32,11.8c-11.4,0-20.6,9.1-20.6,20.4s9.2,20.4,20.6,20.4,20.6-9.1,20.6-20.4-9.2-20.4-20.6-20.4ZM32,15.2c9.5,0,17.2,7.6,17.2,17s-7.7,17-17.2,17-17.2-7.6-17.2-17,7.7-17,17.2-17Z"/>
    <path class="st11" d="M32,28.7v14.6h3.4v-14.6c-.5.2-1.1.3-1.7.3s-1.2,0-1.7-.3Z"/>
    <path class="st11" d="M41.4,23.1h3.2l-8.4,20.4h-3.2l8.4-20.4Z"/>
    <path class="st8" d="M12.6,20.8c-1.2,0-2.3.1-3.2.4-1.7.4-3.1,1.2-3.5,2.7-.4,1.5.3,3.1,1.5,4.5,1,1.2,2.5,2.3,4.1,3.5,0-.9.2-1.8.4-2.7-1.1-.9-2.2-1.7-2.8-2.4-.9-1.1-1.1-1.8-1-2.2,0-.3.6-.8,1.9-1.1,1.3-.3,3.3-.4,5.6-.2,4.7.4,11.1,1.8,18,4.3,6.8,2.4,12.8,5.4,16.9,8.2,2,1.4,3.6,2.7,4.5,3.8.9,1.1,1.1,1.8,1,2.2,0,.3-.6.8-1.9,1.1-1,.2-2.5.3-4.1.3-.5.8-1,1.6-1.6,2.4,2.4.2,4.7.1,6.3-.3,1.7-.4,3.1-1.2,3.5-2.7.4-1.5-.3-3.1-1.5-4.5s-2.9-2.9-5-4.3c-4.3-2.9-10.5-6-17.5-8.5-7-2.5-13.6-4-18.6-4.4-.6,0-1.2,0-1.8-.1-.4,0-.9,0-1.3,0h0Z"/>
    <path class="st16" d="M12.6,19.7c-1.2,0-2.3.1-3.2.4-1.7.4-3.1,1.2-3.5,2.7-.4,1.5.3,3.1,1.5,4.5,1,1.2,2.5,2.3,4.1,3.5,0-.9.2-1.8.4-2.7-1.1-.9-2.2-1.7-2.8-2.4-.9-1.1-1.1-1.8-1-2.2,0-.3.6-.8,1.9-1.1,1.3-.3,3.3-.4,5.6-.2,4.7.4,11.1,1.8,18,4.3,6.8,2.4,12.8,5.4,16.9,8.2,2,1.4,3.6,2.7,4.5,3.8.9,1.1,1.1,1.8,1,2.2,0,.3-.6.8-1.9,1.1-1,.2-2.5.3-4.1.3-.5.8-1,1.6-1.6,2.4,2.4.2,4.7.1,6.3-.3,1.7-.4,3.1-1.2,3.5-2.7.4-1.5-.3-3.1-1.5-4.5s-2.9-2.9-5-4.3c-4.3-2.9-10.5-6-17.5-8.5-7-2.5-13.6-4-18.6-4.4-.6,0-1.2,0-1.8-.1-.4,0-.9,0-1.3,0Z"/>
    <ellipse class="st8" cx="33.7" cy="25.9" rx="2.9" ry="2.8"/>
    <ellipse class="st11" cx="33.7" cy="24.8" rx="2.9" ry="2.8"/>
    <path class="st3" d="M32,.4C14.3.4,0,14.6,0,32.2c0,.2,0,.4,0,.6C.4,15.4,14.6,1.6,32,1.5c17.4,0,31.5,13.7,32,30.9,0,0,0-.2,0-.3C64.1,14.6,49.7.4,32,.4Z"/>
  </g>
  <g class="st6">
    <path class="st2" d="M3.2,1.1h57.6c1.8,0,3.2,1.4,3.2,3.2v57.6c0,1.8-1.4,3.2-3.2,3.2H3.2c-1.8,0-3.2-1.4-3.2-3.2V4.3C0,2.6,1.4,1.1,3.2,1.1Z"/>
    <path class="st4" d="M3.2,0h57.6c1.8,0,3.2,1.4,3.2,3.2v57.6c0,1.8-1.4,3.2-3.2,3.2H3.2c-1.8,0-3.2-1.4-3.2-3.2V3.2C0,1.4,1.4,0,3.2,0Z"/>
    <path class="st8" d="M9,9v9h6.7v-1.2h-5.7v-7.8h-1ZM21.3,9c.2,1.4.5,2.6,1.1,3.4.5.8,1.3,1.5,2.3,2.2v3.3h1.1v-3.3c1-.7,1.7-1.5,2.3-2.2.6-.9.9-2,1.1-3.4h-1.1c-.2,1.2-.5,2.1-.9,2.8-.4.7-1,1.3-1.9,1.9-.8-.6-1.4-1.2-1.9-1.9-.5-.7-.8-1.6-.9-2.8h-1.1ZM34.8,9v9h1v-6.3l5.7,6.3v-9h-1v6.3l-5.7-6.3ZM47.2,9v9h6.7v-1.2h-5.7v-3.3h4.6v-1h-4.6v-2.3h5.7v-1.2h-6.7ZM13.5,21.9l-4.5,4.5,4.5,4.5,4.5-4.5-4.5-4.5ZM25.8,21.9l-4.5,4.5,4.5,4.5,4.5-4.5-4.5-4.5ZM38.2,21.9l-4.5,4.5,4.5,4.5,4.5-4.5-4.5-4.5ZM50.5,21.9l-4.5,4.5,4.5,4.5,4.5-4.5-4.5-4.5ZM13.5,34.2l-4.5,4.5,4.5,4.5,4.5-4.5-4.5-4.5ZM25.8,34.2l-4.5,4.5,4.5,4.5,4.5-4.5-4.5-4.5ZM38.2,34.2l-4.5,4.5,4.5,4.5,4.5-4.5-4.5-4.5ZM50.5,34.2l-4.5,4.5,4.5,4.5,4.5-4.5-4.5-4.5ZM13.5,46.6l-4.5,4.5,4.5,4.5,4.5-4.5-4.5-4.5ZM25.8,46.6l-4.5,4.5,4.5,4.5,4.5-4.5-4.5-4.5ZM38.2,46.6l-4.5,4.5,4.5,4.5,4.5-4.5-4.5-4.5ZM50.5,46.6l-4.5,4.5,4.5,4.5,4.5-4.5-4.5-4.5Z"/>
    <path class="st11" d="M9,7.9v9h6.7v-1.2h-5.7v-7.8h-1ZM21.3,7.9c.2,1.4.5,2.6,1.1,3.4.5.8,1.3,1.5,2.3,2.2v3.3h1.1v-3.3c1-.7,1.7-1.5,2.3-2.2.6-.9.9-2,1.1-3.4h-1.1c-.2,1.2-.5,2.1-.9,2.8-.4.7-1,1.3-1.9,1.9-.8-.6-1.4-1.2-1.9-1.9-.5-.7-.8-1.6-.9-2.8h-1.1ZM34.8,7.9v9h1v-6.3l5.7,6.3V7.9h-1v6.3l-5.7-6.3ZM47.2,7.9v9h6.7v-1.2h-5.7v-3.3h4.6v-1h-4.6v-2.3h5.7v-1.2h-6.7ZM13.5,20.8l-4.5,4.5,4.5,4.5,4.5-4.5-4.5-4.5ZM25.8,20.8l-4.5,4.5,4.5,4.5,4.5-4.5-4.5-4.5ZM38.2,20.8l-4.5,4.5,4.5,4.5,4.5-4.5-4.5-4.5ZM50.5,20.8l-4.5,4.5,4.5,4.5,4.5-4.5-4.5-4.5ZM13.5,33.1l-4.5,4.5,4.5,4.5,4.5-4.5-4.5-4.5ZM25.8,33.1l-4.5,4.5,4.5,4.5,4.5-4.5-4.5-4.5ZM38.2,33.1l-4.5,4.5,4.5,4.5,4.5-4.5-4.5-4.5ZM50.5,33.1l-4.5,4.5,4.5,4.5,4.5-4.5-4.5-4.5ZM13.5,45.4l-4.5,4.5,4.5,4.5,4.5-4.5-4.5-4.5ZM25.8,45.4l-4.5,4.5,4.5,4.5,4.5-4.5-4.5-4.5ZM38.2,45.4l-4.5,4.5,4.5,4.5,4.5-4.5-4.5-4.5ZM50.5,45.4l-4.5,4.5,4.5,4.5,4.5-4.5-4.5-4.5Z"/>
    <path class="st7" d="M3.2,0C1.4,0,0,1.4,0,3.2v1.1C0,2.5,1.4,1.1,3.2,1.1h57.6c1.8,0,3.2,1.4,3.2,3.2v-1.1c0-1.8-1.4-3.2-3.2-3.2H3.2Z"/>
  </g>
  <g>
    <path class="st8" d="M7.3,32.7c0,.3,0,.6,0,.9,0,13.5,11,24.5,24.7,24.5s24.7-10.9,24.7-24.5,0-.6,0-.9c-.5,13.1-11.3,23.6-24.7,23.6S7.8,45.8,7.3,32.7h0Z"/>
    <path class="st0" d="M56.7,32.7h0c0-13.5-11.1-24.5-24.7-24.5h0c-13.7,0-24.7,10.9-24.7,24.5h0c0,13.5,11.1,24.5,24.7,24.5h0c13.7,0,24.7-10.9,24.7-24.5Z"/>
    <path class="st13" d="M14.5,50l15.3-19.4,2.1,2,2.3,2.3-19.7,15.1Z"/>
    <path class="st15" d="M49.5,15.4l-19.7,15.1,4.4,4.3,15.3-19.4Z"/>
    <path class="st9" d="M49.5,15.4L14.5,50c-9.7-9.6-9.7-25,0-34.6,9.7-9.6,25.3-9.6,34.9,0h0Z"/>
    <path class="st10" d="M32,8.2c-13.7,0-24.7,10.9-24.7,24.5,0,0,0,.2,0,.3.3-13.3,11.2-23.9,24.7-23.9s24.4,10.6,24.7,23.9c0,0,0-.2,0-.3,0-13.5-11-24.5-24.7-24.5Z"/>
  </g>
</svg>