<?xml version="1.0" encoding="UTF-8"?>
<svg id="_图层_1" xmlns="http://www.w3.org/2000/svg" version="1.1" viewBox="0 0 64 64" width="32" height="32">
  <!-- Generator: Adobe Illustrator 29.0.1, SVG Export Plug-In . SVG Version: 2.1.0 Build 192)  -->
  <defs>
    <style>
      .st0, .st1, .st2, .st3, .st4, .st5 {
        display: none;
      }

      .st0, .st1, .st6, .st7, .st5 {
        isolation: isolate;
      }

      .st0, .st7, .st5 {
        opacity: .2;
      }

      .st1, .st8, .st5 {
        fill: #fff;
      }

      .st1, .st6 {
        opacity: .1;
      }

      .st9 {
        fill: #3f3f3f;
      }

      .st10, .st3 {
        fill: #4263eb;
      }

      .st11 {
        fill: none;
        stroke: #fff;
        stroke-linecap: round;
        stroke-linejoin: round;
        stroke-width: 3px;
      }

      .st2 {
        fill: #949494;
      }
    </style>
  </defs>
  <path class="st10" d="M50.4,64H13.8c-7.6,0-13.8-6.2-13.8-13.7V13.7C0,6.2,6.2,0,13.7,0h36.5c7.5,0,13.7,6.2,13.7,13.7v36.6c0,7.5-6.2,13.7-13.7,13.7h.1Z"/>
  <g class="st4">
    <ellipse class="st0" cx="32.2" cy="30.6" rx="26.3" ry="24.2"/>
    <ellipse class="st2" cx="32.2" cy="29.7" rx="26.3" ry="24.2"/>
    <path class="st5" d="M32.2,5.5c-14.5,0-26.3,10.8-26.3,24.2,0,.2,0,.3,0,.5.3-13.2,12-23.7,26.3-23.7,14.3,0,26,10.6,26.3,23.7,0-.2,0-.3,0-.5,0-13.4-11.8-24.2-26.3-24.2Z"/>
    <path class="st6" d="M7.9,60.4C13.5,17.4,49.2,8.9,59,4.6c-7.3,20.8-19.1,35.6-43.9,42.9,8.7-15.2,21.9-25.3,36.5-35.7-12.4,9.7-24.9,19.4-33,33.5,11.6-3.6,35.1-23.9,27.3-24.4,2.7-.3,5.9-2.1,8.8-12.2-9,3-35.6,14.3-46.8,51.8Z"/>
    <path class="st9" d="M7.9,59.5C13.5,16.5,49.2,8,59,3.6c-7.3,20.8-19.1,35.6-43.9,42.9,8.7-15.2,21.9-25.3,36.5-35.7-12.4,9.7-24.9,19.4-33,33.5,11.6-3.6,35.1-23.9,27.3-24.4,2.7-.3,5.9-2.1,8.8-12.2-9,3-35.6,14.3-46.8,51.8Z"/>
  </g>
  <g>
    <ellipse class="st0" cx="31.9" cy="32.9" rx="31.9" ry="31.7"/>
    <ellipse class="st3" cx="31.9" cy="31.7" rx="31.9" ry="31.7"/>
    <path class="st7" d="M17.8,13.6c-1,0-1.9.4-2.5.9s-1,1.2-1.2,1.8c-.4,1.1-.4,2.2-.4,2.2v22.9c-1.4.8-2.3,2.3-2.3,3.9,0,2.5,2,4.5,4.6,4.5s4.6-2,4.6-4.5c0-2.1-1.4-3.9-3.4-4.4v-22.5s0-.5.2-1c0-.2.2-.4.2-.4,0,0,0,0,.2,0,.7,0,.8.5.8.5h0l9.3,27.3c0,0,0,.1,0,.2,0,0,1.2,2.5,3.9,2.5s3.9-2.5,3.9-2.5c0,0,0-.1,0-.2l9.3-27.4h0s0,0,.2-.2c.1-.1.2-.2.6-.2,0,0,0,0,0,0,.2,0,.2,0,.2,0,0,0,.2.2.2.4.2.4.2,1,.2,1v22.5c-2,.5-3.4,2.3-3.4,4.4,0,2.5,2,4.5,4.6,4.5s4.6-2,4.6-4.5c0-1.6-.9-3.1-2.3-3.9v-22.9s0-1-.4-2.2c-.2-.6-.6-1.2-1.2-1.8-.6-.5-1.5-.9-2.5-.9-1.4,0-2.6.7-3.2,1.3-.6.7-.9,1.4-.9,1.4,0,0,0,0,0,0l-9.3,27.2s-.4.6-.8.6-.8-.6-.8-.6l-9.3-27.2s0,0,0,0c0,0-1.2-2.6-4-2.6Z"/>
    <ellipse class="st8" cx="47.9" cy="44.2" rx="4.6" ry="4.5"/>
    <ellipse class="st8" cx="16" cy="44.2" rx="4.6" ry="4.5"/>
    <path class="st11" d="M15.4,41.7v-24.4s0-3.2,2.4-3.2,2.4,1.6,2.4,1.6l9.3,27.4s.8,1.6,2.4,1.6,2.4-1.6,2.4-1.6l9.3-27.4s.6-1.6,2.4-1.6c2.4,0,2.4,3.2,2.4,3.2v24.4"/>
    <path class="st1" d="M31.9,0C14.3,0,0,14.2,0,31.7c0,.2,0,.4,0,.5C.4,15,14.5,1.2,31.9,1.1c17.3,0,31.4,13.7,31.9,30.9,0,0,0-.2,0-.3C63.8,14.2,49.5,0,31.9,0Z"/>
  </g>
</svg>