<?xml version="1.0" encoding="UTF-8"?>
<svg id="_图层_1" xmlns="http://www.w3.org/2000/svg" version="1.1" xmlns:xlink="http://www.w3.org/1999/xlink" viewBox="0 0 64 64" width="32" height="32">
  <!-- Generator: Adobe Illustrator 29.0.1, SVG Export Plug-In . SVG Version: 2.1.0 Build 192)  -->
  <defs>
    <style>
      .st0 {
        fill: #c0bfbc;
      }

      .st1 {
        fill: #4f4f4f;
      }

      .st2, .st3, .st4, .st5, .st6, .st7, .st8, .st9, .st10, .st11, .st12 {
        isolation: isolate;
      }

      .st2, .st4, .st5, .st6 {
        opacity: .1;
      }

      .st2, .st13, .st14 {
        fill-rule: evenodd;
      }

      .st15 {
        fill: #5bbd41;
      }

      .st3, .st16, .st7, .st9, .st10, .st11 {
        opacity: .2;
      }

      .st3, .st17, .st18, .st11, .st19 {
        display: none;
      }

      .st20, .st4 {
        stroke-width: 3px;
      }

      .st20, .st4, .st21, .st5, .st22, .st7, .st23 {
        fill: none;
        stroke-linecap: round;
      }

      .st20, .st4, .st21, .st5, .st7, .st23 {
        stroke-linejoin: round;
      }

      .st20, .st23 {
        stroke: #3f3f3f;
      }

      .st4, .st5, .st7 {
        stroke: #000;
      }

      .st24, .st10, .st11 {
        fill: #fff;
      }

      .st25 {
        fill: #ef5646;
      }

      .st21 {
        stroke: #e4e4e4;
      }

      .st21, .st7 {
        stroke-width: 6px;
      }

      .st26, .st17 {
        fill: #27cebe;
      }

      .st27 {
        fill: #38732b;
      }

      .st28 {
        fill: #42a5e9;
      }

      .st5, .st23 {
        stroke-width: 5px;
      }

      .st29 {
        fill: #eb9200;
      }

      .st30 {
        fill: #3f51b5;
      }

      .st13 {
        fill: #e34ae9;
      }

      .st22 {
        stroke: #4f4f4f;
        stroke-width: 6px;
      }

      .st31 {
        fill: #333;
      }

      .st8 {
        opacity: .3;
      }

      .st14 {
        fill: #2d5de1;
      }

      .st32 {
        fill: #f3963c;
      }

      .st33 {
        fill: #d64e44;
      }

      .st19, .st34 {
        fill: #e4e4e4;
      }

      .st12 {
        fill: url(#_未命名的渐变_2);
        opacity: .2;
      }

      .st35 {
        fill: #ff0;
      }
    </style>
    <linearGradient id="_未命名的渐变_2" data-name="未命名的渐变 2" x1="136.7" y1="-99.6" x2="136.5" y2="-89.9" gradientTransform="translate(-280.1 -216.2) scale(2.3 -2.5)" gradientUnits="userSpaceOnUse">
      <stop offset="0" stop-color="#fff"/>
      <stop offset="1" stop-color="#fff" stop-opacity="0"/>
    </linearGradient>
  </defs>
  <path class="st26" d="M50.4,64H13.8c-7.6,0-13.8-6.2-13.8-13.7V13.7C0,6.2,6.2,0,13.7,0h36.5c7.5,0,13.7,6.2,13.7,13.7v36.6c0,7.5-6.2,13.7-13.7,13.7h.1Z"/>
  <g class="st18">
    <path class="st9" d="M11.3,7.7h43.4c1.3,0,2.4,1,2.4,2.3v41.2c0,1.3-1.1,2.3-2.4,2.3H11.3c-1.3,0-2.4-1-2.4-2.3V10c0-1.3,1.1-2.3,2.4-2.3Z"/>
    <path class="st34" d="M11.3,6.8h43.4c1.3,0,2.4,1,2.4,2.3v41.2c0,1.3-1.1,2.3-2.4,2.3H11.3c-1.3,0-2.4-1-2.4-2.3V9.1c0-1.3,1.1-2.3,2.4-2.3Z"/>
    <path class="st10" d="M11.3,6.8c-1.3,0-2.4,1-2.4,2.3v.9c0-1.3,1.1-2.3,2.4-2.3h43.4c1.3,0,2.4,1,2.4,2.3v-.9c0-1.3-1.1-2.3-2.4-2.3H11.3Z"/>
    <path class="st14" d="M57.1,11.4l-14.5,4.3-9.6,17.4v19.5h21.7c1.3,0,2.4-1,2.4-2.3V11.4Z"/>
    <path class="st2" d="M57.1,11.4l-14.5,4.3-9.6,17.4v.9l9.6-17.4,14.5-4.3v-.9Z"/>
    <path class="st13" d="M28.2,26.6l-19.3,13v10.7c0,1.3,1.1,2.3,2.4,2.3h43.4c1.3,0,2.4-1,2.4-2.3v-12.9l-14.5,8.7-9.6-13-4.8-6.5Z"/>
    <path class="st2" d="M28.2,26.6l-19.3,13v.9l19.3-13,4.8,6.5,9.6,13,14.5-8.7v-.9l-14.5,8.7-9.6-13-4.8-6.5Z"/>
    <path class="st6" d="M6.1,7.7c-1.5,0-2.8,1.1-2.8,2.6,0,1.5,1.2,2.7,2.7,2.7,0,0,0,0,0,0h5.6c1.5,0,2.8-1.1,2.8-2.6,0-1.5-1.2-2.7-2.7-2.7,0,0,0,0,0,0h-5.6ZM6.1,18.3c-1.5,0-2.8,1.1-2.8,2.6,0,1.5,1.2,2.7,2.7,2.7,0,0,0,0,0,0h5.6c1.5,0,2.8-1.1,2.8-2.6s-1.2-2.7-2.7-2.7c0,0,0,0,0,0h-5.6ZM6.1,28.9c-1.5,0-2.8,1.1-2.8,2.6s1.2,2.7,2.7,2.7c0,0,0,0,0,0h5.6c1.5,0,2.8-1.1,2.8-2.6s-1.2-2.7-2.7-2.7c0,0,0,0,0,0h-5.6ZM6.1,39.4c-1.5,0-2.8,1.1-2.8,2.6,0,1.5,1.2,2.7,2.7,2.7,0,0,0,0,0,0h5.6c1.5,0,2.8-1.1,2.8-2.6,0-1.5-1.2-2.7-2.7-2.7,0,0,0,0,0,0h-5.6ZM20.9,48.2c-1.5,0-2.8,1.2-2.7,2.7v5.3c0,1.5,1.2,2.7,2.7,2.7,1.5,0,2.8-1.1,2.8-2.6,0,0,0,0,0,0v-5.3c0-1.5-1.2-2.7-2.7-2.7,0,0,0,0,0,0ZM32,48.2c-1.5,0-2.8,1.2-2.7,2.7v5.3c0,1.5,1.2,2.7,2.7,2.7,1.5,0,2.8-1.1,2.8-2.6,0,0,0,0,0,0v-5.3c0-1.5-1.2-2.7-2.7-2.7,0,0,0,0,0,0ZM43.1,48.2c-1.5,0-2.8,1.2-2.7,2.7v5.3c0,1.5,1.2,2.7,2.7,2.7,1.5,0,2.8-1.1,2.8-2.6,0,0,0,0,0,0v-5.3c0-1.5-1.2-2.7-2.7-2.7,0,0,0,0,0,0ZM54.3,48.2c-1.5,0-2.8,1.2-2.7,2.7v5.3c0,1.5,1.2,2.7,2.7,2.7,1.5,0,2.8-1.1,2.8-2.6,0,0,0,0,0,0v-5.3c0-1.5-1.2-2.7-2.7-2.7,0,0,0,0,0,0Z"/>
    <path class="st22" d="M6.1,9.5h5.6"/>
    <path class="st22" d="M6.1,41.2h5.6"/>
    <path class="st22" d="M6.1,30.6h5.6"/>
    <path class="st22" d="M6.1,20.1h5.6"/>
    <path class="st22" d="M54.3,55.3v-5.3"/>
    <path class="st22" d="M43.2,55.3v-5.3"/>
    <path class="st22" d="M32.1,55.3v-5.3"/>
    <path class="st22" d="M20.9,55.3v-5.3"/>
  </g>
  <g class="st18">
    <path class="st9" d="M21.6,44.2v7.5c0,2.5,2.5,2.5,2.5,2.5h24.4s2.5,0,2.5-2.5v-7.5h-29.4Z"/>
    <g>
      <rect class="st35" x="25.8" y="43.4" width="4.2" height="9.9"/>
      <path class="st27" d="M21.6,43.4v7.5c0,2.5,2.5,2.5,2.5,2.5h1.7v-9.9h-4.2Z"/>
      <rect class="st27" x="30" y="43.4" width="4.2" height="9.9"/>
      <rect class="st35" x="34.2" y="43.4" width="4.2" height="9.9"/>
      <rect class="st27" x="38.4" y="43.4" width="4.2" height="9.9"/>
      <rect class="st35" x="42.6" y="43.4" width="4.2" height="9.9"/>
      <path class="st27" d="M51,43.4v7.5c0,2.5-2.5,2.5-2.5,2.5h-1.7v-9.9h4.2Z"/>
    </g>
    <path class="st7" d="M9,14.4h5v36.4h0"/>
    <path class="st9" d="M56.9,47.9v-30.4c0-1.2-1-2.2-2.3-2.2H13.8c-1.3,0-2.3,1-2.3,2.2v30.4c0,1.2,1,2.2,2.3,2.2h40.9c1.3,0,2.3-1,2.3-2.2Z"/>
    <path class="st15" d="M56.9,47v-30.4c0-1.2-1-2.2-2.3-2.2H13.8c-1.3,0-2.3,1-2.3,2.2v30.4c0,1.2,1,2.2,2.3,2.2h40.9c1.3,0,2.3-1,2.3-2.2Z"/>
    <path class="st10" d="M13.8,14.4c-1.3,0-2.3,1-2.3,2.2v.8c0-1.2,1-2.2,2.3-2.2h40.9c1.3,0,2.3,1,2.3,2.2v-.8c0-1.2-1-2.2-2.3-2.2H13.8Z"/>
    <path class="st5" d="M23.7,23.1h15.1l-15.1,19.9h15.1"/>
    <path class="st23" d="M23.7,22.3h15.1l-15.1,19.9h15.1"/>
    <path class="st4" d="M43.9,22.3h6.7l-6.7,9.9h6.7"/>
    <path class="st20" d="M43.9,21.5h6.7l-6.7,9.9h6.7"/>
    <path class="st21" d="M9,13.6h5v36.4h0"/>
  </g>
  <g class="st18">
    <g>
      <path class="st9" d="M14.1,40.9h14.9c1.6,0,3,1.2,3,2.7v13.5c0,1.5-1.3,2.7-3,2.7h-14.9c-1.6,0-3-1.2-3-2.7v-13.5c0-1.5,1.3-2.7,3-2.7Z"/>
      <path class="st0" d="M14.1,39.9h14.9c1.6,0,3,1.2,3,2.7v13.5c0,1.5-1.3,2.7-3,2.7h-14.9c-1.6,0-3-1.2-3-2.7v-13.5c0-1.5,1.3-2.7,3-2.7Z"/>
      <path class="st9" d="M32,5.2c-13.3,0-24.2,9.8-24.2,21.8s0,.6,0,.9h0v15.9h0c.1,2.7,2.5,4.8,5.5,5h18.7c13.3,0,24.2-9.8,24.2-21.8S45.3,5.2,32,5.2h0Z"/>
      <path class="st28" d="M32,4.2c-13.3,0-24.2,9.8-24.2,21.8s0,.6,0,.9h0v15.9h0c.1,2.7,2.5,4.8,5.5,5h18.7c13.3,0,24.2-9.8,24.2-21.8S45.3,4.2,32,4.2h0Z"/>
      <path class="st9" d="M37,15.1c-3.9,0-7.1,2.9-7.1,6.5v12.4h0c-.3,1.7-1.9,3-3.8,3s-3.8-1.6-3.8-3.5,1.7-3.5,3.8-3.5h1.7v-4h-1.7c-4.5,0-8.2,3.4-8.2,7.5s3.7,7.5,8.3,7.5h0c4.4,0,7.9-3,8.2-6.9h0v-.4h0v-3.5h2.2c1.2,0,2.2-.9,2.2-2s-1-2-2.2-2h-2.2v-4.5c0-1.4,1.2-2.5,2.8-2.5s2.8,1.1,2.8,2.5v.5c0,1.1,1,2,2.2,2s2.2-.9,2.2-2h0v-1h0c-.3-3.4-3.4-6-7.1-6h0Z"/>
      <path class="st24" d="M37,14.1c-3.9,0-7.1,2.9-7.1,6.5v12.4h0c-.3,1.7-1.9,3-3.8,3s-3.8-1.6-3.8-3.5,1.7-3.5,3.8-3.5h1.7v-4h-1.7c-4.5,0-8.2,3.4-8.2,7.5s3.7,7.5,8.3,7.5h0c4.4,0,7.9-3,8.2-6.9h0v-.4h0v-3.5h2.2c1.2,0,2.2-.9,2.2-2s-1-2-2.2-2h-2.2v-4.5c0-1.4,1.2-2.5,2.8-2.5s2.8,1.1,2.8,2.5v.5c0,1.1,1,2,2.2,2s2.2-.9,2.2-2h0v-1h0c-.3-3.4-3.4-6-7.1-6h0Z"/>
      <rect class="st8" x="14.4" y="52.8" width="4.4" height="3"/>
      <rect class="st8" x="24.3" y="52.8" width="4.4" height="3"/>
    </g>
  </g>
  <g class="st18">
    <path class="st3" d="M.5,58.8v2.3c0,2.6,2.6,4.6,5.7,4.6h51.7c3.2,0,5.7-2.1,5.7-4.6v-2.3c0,2.6-2.6,4.6-5.7,4.6H6.2c-3.2,0-5.7-2.1-5.7-4.6Z"/>
    <path class="st19" d="M63.7,60V4.6c0-2.5-2.6-4.6-5.7-4.6H6.2C3.1,0,.5,2.1.5,4.6v55.4c0,2.5,2.6,4.6,5.7,4.6h51.7c3.2,0,5.7-2.1,5.7-4.6Z"/>
    <path class="st12" d="M10.8,9.2h42.7c.9,0,1.6.6,1.6,1.4v20.2c0,.8-.7,1.4-1.6,1.4H10.8c-.9,0-1.6-.6-1.6-1.4V10.7c0-.8.7-1.4,1.6-1.4Z"/>
    <rect class="st31" x="12" y="11.5" width="40.2" height="18.5"/>
    <path class="st11" d="M6.2,0C3.1,0,.5,2.1.5,4.6v1.2C.5,3.2,3.1,1.2,6.2,1.2h51.7c3.2,0,5.7,2.1,5.7,4.6v-1.2c0-2.6-2.6-4.6-5.7-4.6H6.2Z"/>
    <path class="st10" d="M14.3,40.4c-1.1,0-2,.7-2,1.6v3.2h-4c-1.1,0-2,.7-2,1.6v3.2c0,.9.9,1.6,2,1.6h4v3.2c0,.9.9,1.6,2,1.6h4c1.1,0,2-.7,2-1.6v-3.2h4c1.1,0,2-.7,2-1.6v-3.2c0-.9-.9-1.6-2-1.6h-4v-3.2c0-.9-.9-1.6-2-1.6h-4,0Z"/>
    <g class="st16">
      <ellipse class="st24" cx="53.7" cy="43.8" rx="4.3" ry="3.5"/>
      <ellipse class="st24" cx="42.2" cy="43.8" rx="4.3" ry="3.5"/>
      <ellipse class="st24" cx="53.7" cy="53.1" rx="4.3" ry="3.5"/>
      <ellipse class="st24" cx="42.2" cy="53.1" rx="4.3" ry="3.5"/>
    </g>
    <g>
      <ellipse class="st25" cx="53.7" cy="42.7" rx="4.3" ry="3.5"/>
      <ellipse class="st25" cx="42.2" cy="42.7" rx="4.3" ry="3.5"/>
      <ellipse class="st29" cx="53.7" cy="51.9" rx="4.3" ry="3.5"/>
      <ellipse class="st29" cx="42.2" cy="51.9" rx="4.3" ry="3.5"/>
    </g>
    <path class="st1" d="M14.9,39.2c-1.6,0-2.9,1-2.9,2.3v2.3h-2.9c-1.6,0-2.9,1-2.9,2.3v2.3c0,1.3,1.3,2.3,2.9,2.3h2.9v2.3c0,1.3,1.3,2.3,2.9,2.3h2.9c1.6,0,2.9-1,2.9-2.3v-2.3h2.9c1.6,0,2.9-1,2.9-2.3v-2.3c0-1.3-1.3-2.3-2.9-2.3h-2.9v-2.3c0-1.3-1.3-2.3-2.9-2.3h-2.9Z"/>
  </g>
  <g>
    <path class="st3" d="M3.2,1.1h57.5c1.8,0,3.2,1.4,3.2,3.2v57.5c0,1.8-1.4,3.2-3.2,3.2H3.2c-1.8,0-3.2-1.4-3.2-3.2V4.3C0,2.6,1.4,1.1,3.2,1.1Z"/>
    <path class="st32" d="M13.7,0C6.1,0,0,6.1,0,13.7v18.2h63.9V13.2c0-7.3-5.9-13.2-13.2-13.2H13.7Z"/>
    <path class="st17" d="M63.9,31.9v28.7c0,1.8-1.4,3.2-3.2,3.2H3.2c-1.8,0-3.2-1.4-3.2-3.2v-28.7h63.9Z"/>
    <path class="st6" d="M40.4,4.5c-.9,0-1.6.7-1.6,1.6v10.9c0,.2,0,.4,0,.5v8.9h-9.1V6.2c0-1.4-1.7-2.1-2.7-1.1l-7.8,6.9-7.3-6.9c-1-1-2.7-.3-2.7,1.1v18.2L0,15.3v4.4l9.6,9.5c1,1,2.7.2,2.7-1.2V10l5.7,5.3c.6.6,1.6.6,2.3,0l6.2-5.3v18c0,.9.7,1.6,1.6,1.6h12.3c.9,0,1.6-.7,1.6-1.6v-9.1h7.3v9.1c0,1.3,1.6,2.1,2.6,1.2l12-9.6v-4.1l-11.4,9.1v-7.1c0-.2,0-.3,0-.5V6.2c0-2.2-3.2-2.2-3.2,0v9.6h-7.3V6.2c0-.9-.7-1.6-1.6-1.6ZM40.4,36.5c0,0-.2,0-.2,0h-12.1c-.9,0-1.6.7-1.6,1.6v18l-6.2-5.3c-.6-.6-1.6-.6-2.3,0l-5.7,5.3v-18c0-1.4-1.7-2.1-2.7-1.2L0,46.2v4.3l9.1-8.8v18.3c0,1.4,1.7,2.1,2.7,1.1l7.3-6.9,7.8,6.9c1,1,2.7.3,2.7-1.1v-20.3h9.1v8.9c0,.2,0,.3,0,.5v10.9c0,.9.7,1.6,1.6,1.6h10.7c2.2,0,2.2-3.2,0-3.2h-9.1v-8h9c2.2,0,2.2-3.2,0-3.2h-9v-7.5h11.5l10.4,9.2v-4.3l-8.7-7.7c-.3-.3-.7-.4-1.1-.4h-13.4c0,0-.2,0-.3,0h0Z"/>
    <path class="st30" d="M40.4,3.4c-.9,0-1.6.7-1.6,1.6v10.9c0,.2,0,.4,0,.5v8.9h-9.1V5c0-1.4-1.7-2.1-2.7-1.1l-7.8,6.9-7.3-6.9c-1-1-2.7-.3-2.7,1.1v18.2L0,14.2v4.4l9.6,9.5c1,1,2.7.2,2.7-1.2V8.9l5.7,5.3c.6.6,1.6.6,2.3,0l6.2-5.3v18c0,.9.7,1.6,1.6,1.6h12.3c.9,0,1.6-.7,1.6-1.6v-9.1h7.3v9.1c0,1.3,1.6,2.1,2.6,1.2l12-9.6v-4.1l-11.4,9.1v-7.1c0-.2,0-.3,0-.5V5c0-2.2-3.2-2.2-3.2,0v9.6h-7.3V5c0-.9-.7-1.6-1.6-1.6Z"/>
    <path class="st33" d="M40.4,35.3c0,0-.2,0-.2,0h-12.1c-.9,0-1.6.7-1.6,1.6v18l-6.2-5.3c-.6-.6-1.6-.6-2.3,0l-5.7,5.3v-18c0-1.4-1.7-2.1-2.7-1.2L0,45v4.3l9.1-8.8v18.3c0,1.4,1.7,2.1,2.7,1.1l7.3-6.9,7.8,6.9c1,1,2.7.3,2.7-1.1v-20.3h9.1v8.9c0,.2,0,.3,0,.5v10.9c0,.9.7,1.6,1.6,1.6h10.7c2.2,0,2.2-3.2,0-3.2h-9.1v-8h9c2.2,0,2.2-3.2,0-3.2h-9v-7.5h11.5l10.4,9.2v-4.3l-8.7-7.7c-.3-.3-.7-.4-1.1-.4h-13.4c0,0-.2,0-.3,0h0Z"/>
    <path class="st11" d="M3.2,0C1.4,0,0,1.4,0,3.2v1.1C0,2.6,1.4,1.1,3.2,1.1h57.5c1.8,0,3.2,1.4,3.2,3.2v-1.1c0-1.8-1.4-3.2-3.2-3.2H3.2Z"/>
  </g>
</svg>