<?xml version="1.0" encoding="UTF-8"?>
<svg id="_图层_1" xmlns="http://www.w3.org/2000/svg" version="1.1" viewBox="0 0 64 64" width="32" height="32">
  <!-- Generator: Adobe Illustrator 29.0.1, SVG Export Plug-In . SVG Version: 2.1.0 Build 192)  -->
  <defs>
    <style>
      .st0 {
        fill: #3f3f3f;
      }

      .st1 {
        fill: #d64043;
      }

      .st2, .st3, .st4 {
        isolation: isolate;
      }

      .st2, .st4 {
        opacity: .1;
      }

      .st5 {
        fill: #4a5579;
      }

      .st3 {
        opacity: .2;
      }

      .st6 {
        fill: #ececec;
      }

      .st4 {
        fill: #fff;
      }
    </style>
  </defs>
  <path class="st5" d="M50.4,64H13.8c-7.6,0-13.8-6.2-13.8-13.7V13.7C0,6.2,6.2,0,13.7,0h36.6c7.5,0,13.7,6.2,13.7,13.7v36.6c0,7.5-6.2,13.7-13.7,13.7h.1Z"/>
  <g>
    <path class="st3" d="M34.7,3.5c-16,0-29,13-29,29,0,16,13,29,29,29,7.1,0,13.9-2.6,19.2-7.3l-20.8-20.5,22.1-21.7c-5.4-5.4-12.8-8.5-20.5-8.5Z"/>
    <path class="st0" d="M34.7,2.5c-16,0-29,13-29,29,0,16,13,29,29,29,7.1,0,13.9-2.6,19.2-7.3l-20.8-20.5,22.1-21.7c-5.4-5.4-12.8-8.5-20.5-8.5Z"/>
    <path class="st4" d="M34.7,2.5c-16,0-29,13-29,29,0,.2,0,.3,0,.5.3-15.8,13.1-28.5,29-28.5,7.4,0,14.6,2.9,20,8l.5-.5c-5.4-5.4-12.8-8.5-20.5-8.5ZM33.6,33.2l-.5.5,20.2,19.9c.2-.2.4-.3.5-.5l-20.3-20Z"/>
    <circle class="st3" cx="34.7" cy="32.5" r="16"/>
    <circle class="st6" cx="34.7" cy="31.5" r="16"/>
    <circle class="st2" cx="34.7" cy="32.5" r="6"/>
    <circle class="st1" cx="34.7" cy="31.5" r="6"/>
  </g>
</svg>