<?xml version="1.0" encoding="UTF-8"?>
<svg id="_图层_1" xmlns="http://www.w3.org/2000/svg" version="1.1" viewBox="0 0 64 64" width="32" height="32">
  <!-- Generator: Adobe Illustrator 29.0.1, SVG Export Plug-In . SVG Version: 2.1.0 Build 192)  -->
  <defs>
    <style>
      .st0 {
        fill: #ffd8c6;
      }

      .st1, .st2, .st3, .st4, .st5, .st6, .st7, .st8, .st9 {
        isolation: isolate;
      }

      .st1, .st2, .st10, .st11, .st12, .st7, .st13, .st14 {
        display: none;
      }

      .st1, .st3, .st15, .st5, .st6, .st7, .st8 {
        opacity: .2;
      }

      .st2, .st16, .st6, .st7, .st9 {
        fill: #fff;
      }

      .st2, .st4, .st9 {
        opacity: .1;
      }

      .st17 {
        fill: #7d7d7d;
      }

      .st3 {
        fill-rule: evenodd;
      }

      .st18 {
        fill: #1f798c;
      }

      .st19 {
        fill: #3f8ce6;
      }

      .st20 {
        fill: #b1772f;
      }

      .st21 {
        fill: #454545;
      }

      .st22 {
        fill: #2a76ea;
      }

      .st23 {
        fill: #6b3f0d;
      }

      .st24 {
        fill: #6ccc32;
      }

      .st25 {
        fill: #ff4040;
      }

      .st10, .st26 {
        fill: #2a6130;
      }

      .st11 {
        fill: #584a3f;
      }

      .st27 {
        fill: #228c1f;
      }

      .st28 {
        fill: #13c759;
      }

      .st29 {
        fill: #13b7c9;
      }

      .st8 {
        stroke: #000;
      }

      .st8, .st30 {
        fill: none;
        stroke-linejoin: bevel;
        stroke-width: 6px;
      }

      .st13 {
        fill: #ff7c40;
      }

      .st14 {
        fill: #4f4f4f;
      }

      .st30 {
        stroke: #0bad50;
      }
    </style>
  </defs>
  <path class="st26" d="M50.5,64H13.9C6.3,64,0,57.8,0,50.3V13.7C0,6.2,6.3,0,13.8,0h36.6c7.5,0,13.7,6.2,13.7,13.7v36.6c0,7.5-6.2,13.7-13.7,13.7h.1Z"/>
  <g class="st12">
    <path class="st5" d="M32,6.9c-14.1,0-25.5,11.4-25.5,25.6s11.4,25.6,25.5,25.6,25.5-11.4,25.5-25.6S46.1,6.9,32,6.9ZM37.9,13.1c4.1,1.2,7.6,3.7,10.2,7.1-1.7,1.1-2.9,3-2.9,5.2,0,3.4,2.8,6.2,6.2,6.2s.6,0,.8,0c0,.3,0,.6,0,1,0,4.1-1.2,8.1-3.6,11.5-1.1-1.1-2.6-1.8-4.3-1.8-3.4,0-6.2,2.8-6.2,6.2s.3,2.2.9,3.1c-2.2.8-4.6,1.3-7,1.3-2.4,0-4.8-.4-7-1.3.5-.9.9-2,.9-3.1,0-3.4-2.8-6.2-6.2-6.2s-3.2.7-4.3,1.8c-2.3-3.4-3.6-7.4-3.6-11.5,0-.3,0-.6,0-1,.3,0,.5,0,.8,0,3.4,0,6.2-2.8,6.2-6.2s-1.2-4.1-2.9-5.2c2.6-3.4,6.1-5.9,10.2-7.1.8,2.6,3.2,4.4,5.9,4.4,2.7,0,5.1-1.8,5.9-4.4Z"/>
    <path class="st17" d="M32,6c-14.1,0-25.5,11.4-25.5,25.6s11.4,25.6,25.5,25.6,25.5-11.4,25.5-25.6S46.1,6,32,6ZM37.9,12.2c4.1,1.2,7.6,3.7,10.2,7.1-1.7,1.1-2.9,3-2.9,5.2,0,3.4,2.8,6.2,6.2,6.2s.6,0,.8,0c0,.3,0,.6,0,1,0,4.1-1.2,8.1-3.6,11.5-1.1-1.1-2.6-1.8-4.3-1.8-3.4,0-6.2,2.8-6.2,6.2s.3,2.2.9,3.1c-2.2.8-4.6,1.3-7,1.3-2.4,0-4.8-.4-7-1.3.5-.9.9-2,.9-3.1,0-3.4-2.8-6.2-6.2-6.2s-3.2.7-4.3,1.8c-2.3-3.4-3.6-7.4-3.6-11.5,0-.3,0-.6,0-1,.3,0,.5,0,.8,0,3.4,0,6.2-2.8,6.2-6.2s-1.2-4.1-2.9-5.2c2.6-3.4,6.1-5.9,10.2-7.1.8,2.6,3.2,4.4,5.9,4.4,2.7,0,5.1-1.8,5.9-4.4Z"/>
    <path class="st9" d="M32,6c-14.1,0-25.5,11.4-25.5,25.6,0,.1,0,.2,0,.4.3-13.9,11.6-25,25.5-25,13.9,0,25.3,11.2,25.5,25.2,0-.2,0-.3,0-.5,0-14.1-11.4-25.6-25.5-25.6ZM47.6,19.6c-1.5,1.1-2.4,2.9-2.4,4.9s0,.3,0,.5c.1-2,1.2-3.8,2.9-4.8-.1-.2-.3-.4-.4-.6ZM16.4,19.6c-.2.2-.3.4-.5.5,1.6,1,2.7,2.8,2.9,4.8,0-.2,0-.3,0-.5,0-2-1-3.8-2.4-4.9ZM52.2,31.9c0,4-1.3,7.8-3.5,11.1-1.1-1.1-2.6-1.8-4.3-1.8-3.4,0-6.2,2.8-6.2,6.2s0,.2,0,.4c.3-3.2,2.9-5.7,6.1-5.7s3.2.7,4.3,1.8c2.3-3.4,3.6-7.4,3.6-11.5,0-.2,0-.3,0-.5ZM11.8,32c0,.1,0,.3,0,.4,0,4.1,1.3,8.1,3.6,11.5,1.1-1.1,2.6-1.8,4.3-1.8,3.2,0,5.9,2.5,6.1,5.7,0-.1,0-.2,0-.4,0-3.4-2.8-6.2-6.2-6.2s-3.2.7-4.3,1.8c-2.2-3.3-3.5-7.1-3.6-11ZM25.4,50.7c-.1.3-.2.5-.4.8,2.2.8,4.6,1.3,7,1.3,2.4,0,4.8-.4,7-1.3-.1-.2-.3-.5-.4-.8-2.1.8-4.4,1.1-6.6,1.2-2.3,0-4.5-.4-6.6-1.2Z"/>
    <ellipse class="st21" cx="32" cy="10.4" rx="2.6" ry="2.6"/>
    <ellipse class="st21" cx="12.7" cy="24.5" rx="2.6" ry="2.6"/>
    <ellipse class="st21" cx="51.3" cy="24.5" rx="2.6" ry="2.6"/>
    <ellipse class="st21" cx="44.3" cy="47.4" rx="2.6" ry="2.6"/>
    <ellipse class="st21" cx="19.7" cy="47.4" rx="2.6" ry="2.6"/>
    <path class="st30" d="M21.8,25.2l10.2-4.3,10.2,4.3M8.3,13.9h5.9l7.6,11.2,10.2,31.1,10.2-31.1,7.7-11.2h5.9"/>
    <path class="st8" d="M21.8,26.1l10.2-4.3,10.2,4.3M8.3,14.8h5.9l7.6,11.2,10.2,31.1,10.2-31.1,7.7-11.2h5.9"/>
    <path class="st30" d="M21.8,25.2l10.2-4.3,10.2,4.3M8.3,13.9h5.9l7.6,11.2,10.2,31.1,10.2-31.1,7.7-11.2h5.9"/>
    <path class="st6" d="M8.3,11.3v.9h5.9l2.2,1.2,6.4,9.5,8.2-3.5h2.1l8.2,3.5,6.4-9.5,2.2-1.2h5.9v-.9h-5.9l-2.2,1.2-6.4,9.5-8.2-3.5h-2.1l-8.2,3.5-6.4-9.5-2.2-1.2h-5.9ZM25.3,27.4h-.3c0,.1,6.9,21.2,6.9,21.2l6.9-21.1h-.3c0-.1-6.7,20.2-6.7,20.2l-6.7-20.3Z"/>
  </g>
  <g class="st12">
    <path class="st1" d="M32.1,1.1C14.4,1.1,0,15.5,0,33.2s14.3,32,32,32,32-14.3,32-32S49.7,1.1,32.1,1.1Z"/>
    <path class="st13" d="M32.1,0C14.4,0,0,14.3,0,32s14.3,32,32,32,32-14.3,32-32S49.7,0,32.1,0Z"/>
    <path class="st5" d="M38.9,13.7c-7.6,0-13.7,2-13.7,4.6s6.1,4.6,13.7,4.6,13.7-2,13.7-4.6-6.1-4.6-13.7-4.6ZM52.2,21.7c-1.6,2-7,3.4-13.3,3.4-6.2,0-11.7-1.4-13.3-3.4-.3.4-.4.8-.5,1.1,0,2.5,6.1,4.6,13.7,4.6s13.7-2,13.7-4.6c0-.4-.2-.8-.5-1.1ZM52.2,26.3c-1.6,2-7,3.4-13.3,3.4-6.2,0-11.7-1.4-13.3-3.4-.3.4-.4.8-.5,1.1,0,.8.7,1.6,2,2.4,4.2.2,7.7,1,9.8,2.2.7,0,1.3,0,2,0,7.6,0,13.7-2,13.7-4.6,0-.4-.2-.8-.5-1.1ZM52.2,30.9c-1.6,2-7,3.4-13.3,3.4,0,0,0,1.7,0,2.3,7.6,0,13.7-2,13.7-4.6,0-.4-.2-.8-.5-1.1ZM52.2,35.4c-1.6,2-7,3.4-13.3,3.4,0,1,0,1.2,0,2.3,7.6,0,13.7-2,13.7-4.6,0-.4-.2-.8-.5-1.1ZM52.2,40c-1.6,2-7,3.4-13.3,3.4,0,1,0,1.6,0,2.3,7.6,0,13.7-2,13.7-4.6,0-.4-.2-.8-.5-1.1ZM52.2,44.6c-1.6,2-7,3.4-13.3,3.4,0,.8-.7,1.6-1.8,2.2.6,0,1.2,0,1.8,0,7.6,0,13.7-2,13.7-4.6,0-.4-.2-.8-.5-1.1Z"/>
    <path class="st5" d="M25.2,29.7c-7.6,0-13.7,2-13.7,4.6s6.1,4.6,13.7,4.6,13.7-2,13.7-4.6-6.1-4.6-13.7-4.6ZM38.5,37.7c-1.6,2-7,3.4-13.3,3.4-6.2,0-11.7-1.4-13.3-3.4-.3.4-.4.8-.5,1.1,0,2.5,6.1,4.6,13.7,4.6s13.7-2,13.7-4.6c0-.4-.2-.8-.5-1.1ZM38.5,42.3c-1.6,2-7,3.4-13.3,3.4-6.2,0-11.7-1.4-13.3-3.4-.3.4-.4.8-.5,1.1,0,2.5,6.1,4.6,13.7,4.6s13.7-2,13.7-4.6c0-.4-.2-.8-.5-1.1ZM38.5,46.9c-1.6,2-7,3.4-13.3,3.4-6.2,0-11.7-1.4-13.3-3.4-.3.4-.4.8-.5,1.1,0,2.5,6.1,4.6,13.7,4.6s13.7-2,13.7-4.6c0-.4-.2-.8-.5-1.1Z"/>
    <path class="st0" d="M38.9,12.6c-7.6,0-13.7,2-13.7,4.6s6.1,4.6,13.7,4.6,13.7-2,13.7-4.6-6.1-4.6-13.7-4.6ZM52.2,20.6c-1.6,2-7,3.4-13.3,3.4-6.2,0-11.7-1.4-13.3-3.4-.3.4-.4.8-.5,1.1,0,2.5,6.1,4.6,13.7,4.6s13.7-2,13.7-4.6c0-.4-.2-.8-.5-1.1ZM52.2,25.1c-1.6,2-7,3.4-13.3,3.4-6.2,0-11.7-1.4-13.3-3.4-.3.4-.4.8-.5,1.1,0,.8.7,1.6,2,2.4,4.2.2,7.7,1,9.8,2.2.7,0,1.3,0,2,0,7.6,0,13.7-2,13.7-4.6,0-.4-.2-.8-.5-1.1ZM52.2,29.7c-1.6,2-7,3.4-13.3,3.4,0,0,0,1.7,0,2.3,7.6,0,13.7-2,13.7-4.6,0-.4-.2-.8-.5-1.1ZM52.2,34.3c-1.6,2-7,3.4-13.3,3.4,0,1,0,1.2,0,2.3,7.6,0,13.7-2,13.7-4.6,0-.4-.2-.8-.5-1.1ZM52.2,38.9c-1.6,2-7,3.4-13.3,3.4,0,1,0,1.6,0,2.3,7.6,0,13.7-2,13.7-4.6,0-.4-.2-.8-.5-1.1ZM52.2,43.4c-1.6,2-7,3.4-13.3,3.4,0,.8-.7,1.6-1.8,2.2.6,0,1.2,0,1.8,0,7.6,0,13.7-2,13.7-4.6,0-.4-.2-.8-.5-1.1Z"/>
    <path class="st16" d="M25.2,28.6c-7.6,0-13.7,2-13.7,4.6s6.1,4.6,13.7,4.6,13.7-2,13.7-4.6-6.1-4.6-13.7-4.6ZM38.5,36.6c-1.6,2-7,3.4-13.3,3.4-6.2,0-11.7-1.4-13.3-3.4-.3.4-.4.8-.5,1.1,0,2.5,6.1,4.6,13.7,4.6s13.7-2,13.7-4.6c0-.4-.2-.8-.5-1.1ZM38.5,41.2c-1.6,2-7,3.4-13.3,3.4-6.2,0-11.7-1.4-13.3-3.4-.3.4-.4.8-.5,1.1,0,2.5,6.1,4.6,13.7,4.6s13.7-2,13.7-4.6c0-.4-.2-.8-.5-1.1ZM38.5,45.7c-1.6,2-7,3.4-13.3,3.4-6.2,0-11.7-1.4-13.3-3.4-.3.4-.4.8-.5,1.1,0,2.5,6.1,4.6,13.7,4.6s13.7-2,13.7-4.6c0-.4-.2-.8-.5-1.1Z"/>
    <path class="st7" d="M32.1,0C14.4,0,0,14.3,0,32c0,.2,0,.3,0,.5C.5,15.1,14.7,1.2,32.1,1.1c17.5,0,31.7,14,32,31.5,0-.2,0-.4,0-.7C64.1,14.3,49.7,0,32.1,0Z"/>
  </g>
  <g class="st12">
    <path class="st5" d="M48.6,11.7c-2.4,4.7-5.1,8.9-7.7,13.1l-8.8,13.6h25.4c1.8-.3,2.7-1.8,3-3.6,1.9-12.3-1.6-18.6-6.3-23.6-2.2-2.3-4-2.5-5.7.5h0Z"/>
    <path class="st5" d="M31.1,3.4c-8.4,0-17,4.6-21.3,10.1-3.5,4.5-6.2,9.1-6.8,14.6h0c.1,3.1,1.8,5.2,5.4,5.4h25.7l1.6-11.5c.6-4.3,1.4-8.6,1.2-13-.1-3.5-3.3-5.4-5.9-5.5h0Z"/>
    <path class="st5" d="M32.7,22.5c-5.3-.3-11.3.6-15.3,3.8-4,3.2-6.6,7.5-7.3,12.4-.9,8.2,2.9,13.1,9.3,16.7,14.3,5.4,28.4-.7,36.1-10.3,2.7-3.3,1-7.2-.6-9.4-4.8-6.7-11-12.6-22.3-13.2h0Z"/>
    <path class="st27" d="M31.1,2.4c-8.4,0-17,4.6-21.3,10.1-3.5,4.5-6.2,9.1-6.8,14.6h0c.1,3.1,1.8,5.2,5.4,5.4h25.7l1.6-11.5c.6-4.3,1.4-8.6,1.2-13-.1-3.5-3.3-5.4-5.9-5.5h0Z"/>
    <path class="st27" d="M48.6,10.7c-2.4,4.7-5.1,8.9-7.7,13.1l-8.8,13.6h25.4c1.8-.3,2.7-1.8,3-3.6,1.9-12.3-1.6-18.6-6.3-23.6-2.2-2.3-4-2.5-5.7.5h0Z"/>
    <path class="st9" d="M51.2,8.4c-.9,0-1.8.7-2.6,2.3h0c-2.4,4.7-5.1,8.9-7.7,13.1l-8.8,13.6h.6l8.2-12.6c2.6-4.2,5.3-8.5,7.7-13.1h0c1.6-3,3.5-2.8,5.7-.5,3.7,4,6.7,8.8,6.8,16.7.1-8.6-3-13.5-6.8-17.7-1.1-1.2-2.1-1.8-3-1.8Z"/>
    <path class="st24" d="M32.7,21.5c-5.3-.3-11.3.6-15.3,3.8-4,3.2-6.6,7.5-7.3,12.4-.9,8.2,2.9,13.1,9.3,16.7,14.3,5.4,28.4-.7,36.1-10.3,2.7-3.3,1-7.2-.6-9.4-4.8-6.7-11-12.6-22.3-13.2h0Z"/>
    <path class="st9" d="M31.1,2.4c-8.4,0-17,4.6-21.3,10.1-3.5,4.5-6.2,9.1-6.8,14.6h0c0,.2,0,.3,0,.5.7-5.3,3.3-9.7,6.7-14.1C14.1,8,22.7,3.4,31.1,3.4c2.6,0,5.8,2,5.9,5.5,0,.3,0,.6,0,.9,0-.6,0-1.3,0-1.9-.1-3.5-3.3-5.4-5.9-5.5Z"/>
    <path class="st6" d="M30.7,21.4c-4.7,0-9.8,1.1-13.3,3.9-4,3.2-6.6,7.5-7.3,12.4-.1,1-.1,2-.1,3,0-.6,0-1.3.1-2,.7-4.9,3.3-9.1,7.3-12.4,4-3.2,10-4.1,15.3-3.8h0c11.4.6,17.5,6.5,22.3,13.2.9,1.3,1.8,3,2,4.9.2-2.3-.9-4.4-2-5.9-4.8-6.7-11-12.6-22.3-13.2h0c-.7,0-1.3,0-2,0Z"/>
  </g>
  <g class="st12">
    <path class="st5" d="M47,14.1c-2.2,4.2-4.6,8.1-7,11.9l-8,12.4h23.1c1.6-.2,2.5-1.7,2.7-3.3,1.8-11.2-1.5-16.9-5.7-21.5-2-2.1-3.7-2.3-5.1.4h0Z"/>
    <path class="st5" d="M31.2,6.6c-7.6,0-15.4,4.2-19.3,9.2-3.2,4.1-5.6,8.3-6.1,13.2h0c.1,2.8,1.6,4.7,4.9,4.9h23.3l1.4-10.4c.5-3.9,1.3-7.8,1.1-11.8-.1-3.2-3-4.9-5.4-5h0Z"/>
    <path class="st5" d="M32.7,23.9c-4.8-.3-10.2.5-13.8,3.5-3.6,2.9-6,6.8-6.6,11.2-.8,7.5,2.6,11.9,8.5,15.2,12.9,5,25.7-.7,32.7-9.3,2.4-3,.9-6.5-.5-8.6-4.4-6.1-9.9-11.5-20.2-12h0Z"/>
    <path class="st18" d="M31.2,5.7c-7.6,0-15.4,4.2-19.3,9.2-3.2,4.1-5.6,8.3-6.1,13.2h0c.1,2.8,1.6,4.7,4.9,4.9h23.3l1.4-10.4c.5-3.9,1.3-7.8,1.1-11.8-.1-3.2-3-4.9-5.4-5h0Z"/>
    <path class="st18" d="M47,13.2c-2.2,4.2-4.6,8.1-7,11.9l-8,12.4h23.1c1.6-.2,2.5-1.7,2.7-3.3,1.8-11.2-1.5-16.9-5.7-21.5-2-2.1-3.7-2.3-5.1.4h0Z"/>
    <path class="st9" d="M49.4,11.1c-.9,0-1.7.7-2.4,2.1h0c-2.2,4.2-4.6,8.1-7,11.9l-8,12.4h.6l7.4-11.5c2.4-3.9,4.8-7.7,7-11.9h0c1.5-2.8,3.2-2.6,5.1-.4,3.3,3.7,6,8,6.1,15.2.1-7.8-2.7-12.3-6.1-16.1-1-1.1-1.9-1.6-2.7-1.6Z"/>
    <path class="st29" d="M32.7,23c-4.8-.3-10.2.5-13.8,3.5-3.6,2.9-6,6.8-6.6,11.2-.8,7.5,2.6,11.9,8.5,15.2,12.9,5,25.7-.7,32.7-9.3,2.4-3,.9-6.5-.5-8.6-4.4-6.1-9.9-11.5-20.2-12h0Z"/>
    <path class="st9" d="M31.2,5.7c-7.6,0-15.4,4.2-19.3,9.2-3.2,4.1-5.6,8.3-6.1,13.2h0c0,.2,0,.3,0,.5.6-4.8,3-8.8,6.1-12.8,3.9-5,11.6-9.2,19.3-9.2,2.4,0,5.2,1.8,5.4,5,0,.3,0,.6,0,.9,0-.6,0-1.2,0-1.8-.1-3.2-3-4.9-5.4-5Z"/>
    <path class="st6" d="M30.9,22.9c-4.3,0-8.9,1-12,3.5-3.6,2.9-6,6.8-6.6,11.2,0,.9-.1,1.8,0,2.7,0-.6,0-1.2,0-1.8.6-4.5,3-8.3,6.6-11.2,3.6-2.9,9.1-3.7,13.8-3.5h0c10.3.6,15.9,5.9,20.2,12,.8,1.1,1.6,2.7,1.8,4.5.1-2.1-.8-4-1.8-5.4-4.4-6.1-9.9-11.5-20.2-12h0c-.6,0-1.2,0-1.8,0Z"/>
  </g>
  <g class="st12">
    <path class="st1" d="M0,54.3v2.2c0,1.7,1.5,3,3.3,3h45.1c1.8,0,3.3-1.4,3.3-3v-2.2c0,1.7-1.5,3-3.3,3H3.4c-1.8,0-3.3-1.4-3.3-3h0Z"/>
    <path class="st14" d="M51.8,55.4V3c0-1.7-1.5-3-3.3-3H3.4C1.5,0,0,1.4,0,3v52.3c0,1.7,1.5,3,3.3,3h45.1c1.8,0,3.3-1.4,3.3-3Z"/>
    <g class="st15">
      <path d="M22.4,5.4v10.8h7.1V5.4h-7.1ZM22.4,24.9v10.8h7.1v-10.8h-7.1ZM22.4,44.3v10.8h7.1v-10.8h-7.1Z"/>
    </g>
    <path class="st16" d="M22.4,4.3v10.8h7.1V4.3h-7.1ZM22.4,23.8v10.8h7.1v-10.8h-7.1ZM22.4,43.3v10.8h7.1v-10.8h-7.1Z"/>
    <path class="st2" d="M3.4,0C1.5,0,0,1.4,0,3v1.1C0,2.4,1.5,1.1,3.4,1.1h45.1c1.8,0,3.3,1.4,3.3,3v-1.1c0-1.7-1.5-3-3.3-3H3.4Z"/>
    <path class="st3" d="M63.5,45.3c-.5,9.2-8.8,16.4-18.8,16.4-9.9,0-18.1-7-18.8-16.1,0,.3,0,.6,0,.9,0,9.6,8.4,17.3,18.8,17.3s18.8-7.7,18.8-17.3c0-.4,0-.8,0-1.2h0Z"/>
    <ellipse class="st19" cx="44.7" cy="45.4" rx="18.8" ry="17.3"/>
    <path class="st16" d="M42.4,30.3v4.5c-4.6.9-8.2,4.2-9.2,8.4h-5v4.3h4.9c.9,4.2,4.6,7.6,9.2,8.4v4.6h4.7v-4.5c4.6-.9,8.2-4.2,9.2-8.4h5v-4.3h-4.9c-.9-4.2-4.6-7.6-9.2-8.4v-4.6h-4.7ZM44.7,40c3.2,0,5.9,2.4,5.9,5.4s-2.6,5.4-5.9,5.4-5.9-2.4-5.9-5.4,2.6-5.4,5.9-5.4Z"/>
  </g>
  <g class="st12">
    <path class="st1" d="M3.3,1.1h57.5c1.8,0,3.2,1.4,3.2,3.2v57.7c0,1.8-1.4,3.2-3.2,3.2H3.3c-1.8,0-3.2-1.4-3.2-3.2V4.4C0,2.6,1.5,1.1,3.3,1.1Z"/>
    <path class="st11" d="M3.3,0h57.5c1.8,0,3.2,1.4,3.2,3.2v57.7c0,1.8-1.4,3.2-3.2,3.2H3.3c-1.8,0-3.2-1.4-3.2-3.2V3.2C0,1.4,1.5,0,3.3,0Z"/>
    <path class="st5" d="M7.9,42.4v-1.6h.5c.9,0,1.7-.2,2.3-.5.6-.3,1-1.1,1-2.3v-18.9c0-1.1-.3-1.8-1-2.2-.6-.3-1.4-.5-2.3-.5h-.5v-1.6h7.4l14.5,20.5v-16.3c0-1.1-.3-1.8-1-2.2-.6-.3-1.4-.5-2.3-.5h-.5v-1.6h10.1v1.6h-.5c-.9,0-1.8.2-2.4.5-.6.3-1,1.1-1,2.3v23.1h-2.7l-15.4-21.4v17c0,1.2.3,2,1,2.3.6.3,1.6.5,2.6.5h.5v1.6H7.9Z"/>
    <path class="st25" d="M7.9,41.2v-1.6h.5c.9,0,1.7-.2,2.3-.5.6-.3,1-1.1,1-2.3v-18.9c0-1.1-.3-1.8-1-2.2-.6-.3-1.4-.5-2.3-.5h-.5v-1.6h7.4l14.5,20.5v-16.3c0-1.1-.3-1.8-1-2.2-.6-.3-1.4-.5-2.3-.5h-.5v-1.6h10.1v1.6h-.5c-.9,0-1.8.2-2.4.5-.6.3-1,1.1-1,2.3v23.1h-2.7l-15.4-21.4v17c0,1.2.3,2,1,2.3.6.3,1.6.5,2.6.5h.5v1.6H7.9Z"/>
    <path class="st5" d="M26.5,58.4v-1.6h.5c.9,0,1.2-.2,1.9-.5.6-.3,1-1.1,1-2.3v-18.9c0-1.1-.3-1.8-1-2.2-.6-.3-.9-.5-1.8-.5h-.5v-1.6h10.2c3.5,0,6,.6,7.7,1.7,1.7,1.1,2.6,2.8,2.6,5.2s-.5,3.1-1.4,4c-.9.9-2.1,1.6-3.5,2v.2c1.8.3,3.3,1,4.4,2.2,1.1,1.2,1.7,2.7,1.7,4.8,0,5-3.4,7.4-10.3,7.4h-11.4ZM34.3,43h2.3c2.3,0,3.9-.4,4.8-1.2.9-.8,1.3-2.2,1.3-4s-.5-3.2-1.4-3.9c-.9-.7-2.5-1.1-4.8-1.1h-2.2v10.2ZM34.3,56.5h3.4c2.3,0,3.9-.4,4.8-1.3.9-.8,1.4-2.3,1.4-4.3s-.4-3.5-1.3-4.4c-.9-1-2.4-1.5-4.8-1.5h-3.5v11.5Z"/>
    <path class="st28" d="M26.5,57.2v-1.6h.5c.9,0,1.2-.2,1.9-.5.6-.3,1-1.1,1-2.3v-18.9c0-1.1-.3-1.8-1-2.2-.6-.3-.9-.5-1.8-.5h-.5v-1.6h10.2c3.5,0,6,.6,7.7,1.7,1.7,1.1,2.6,2.8,2.6,5.2s-.5,3.1-1.4,4c-.9.9-2.1,1.6-3.5,2v.2c1.8.3,3.3,1,4.4,2.2,1.1,1.2,1.7,2.7,1.7,4.8,0,5-3.4,7.4-10.3,7.4h-11.4ZM34.3,41.9h2.3c2.3,0,3.9-.4,4.8-1.2.9-.8,1.3-2.2,1.3-4s-.5-3.2-1.4-3.9c-.9-.7-2.5-1.1-4.8-1.1h-2.2v10.2ZM34.3,55.3h3.4c2.3,0,3.9-.4,4.8-1.3.9-.8,1.4-2.3,1.4-4.3s-.4-3.5-1.3-4.4c-.9-1-2.4-1.5-4.8-1.5h-3.5v11.5Z"/>
    <path class="st5" d="M37.2,35.5v-1.6h.9c.9,0,1.6-.1,2.3-.4.7-.3.8-1,.8-2.2V9.9h-3.6c-1.2,0-2,.3-2.4,1-.5.6-.7,1.3-.8,2.2l-.2,1.7h-2.1l.2-6.7h22.4l.2,6.7h-2.1l-.2-1.7c-.1-.8-.4-1.6-.8-2.2-.5-.6-1.3-1-2.5-1h-3.6v21.2c0,1.2,0,2,.6,2.3.6.3,1.4.5,2.3.5h.9v1.6h-12.4Z"/>
    <path class="st22" d="M37.2,34.3v-1.6h.9c.9,0,1.6-.1,2.3-.4.7-.3.8-1,.8-2.2V8.8h-3.6c-1.2,0-2,.3-2.4,1-.5.6-.7,1.3-.8,2.2l-.2,1.7h-2.1l.2-6.7h22.4l.2,6.7h-2.1l-.2-1.7c-.1-.8-.4-1.6-.8-2.2-.5-.6-1.3-1-2.5-1h-3.6v21.2c0,1.2,0,2,.6,2.3.6.3,1.4.5,2.3.5h.9v1.6h-12.4Z"/>
    <path class="st2" d="M3.3,0C1.5,0,0,1.4,0,3.2v1.1C0,2.6,1.5,1.1,3.3,1.1h57.5c1.8,0,3.2,1.4,3.2,3.2v-1.1c0-1.8-1.4-3.2-3.2-3.2H3.3Z"/>
  </g>
  <g>
    <path class="st1" d="M3.3,1.1h57.5c1.8,0,3.2,1.4,3.2,3.2v57.8c0,1.8-1.4,3.2-3.2,3.2H3.3c-1.8,0-3.2-1.4-3.2-3.2V4.4C0,2.6,1.5,1.1,3.3,1.1Z"/>
    <path class="st10" d="M3.3,0h57.5c1.8,0,3.2,1.4,3.2,3.2v57.8c0,1.8-1.4,3.2-3.2,3.2H3.3c-1.8,0-3.2-1.4-3.2-3.2V3.2C0,1.4,1.5,0,3.3,0Z"/>
    <path class="st4" d="M30.9,1.1v8h-3.4v12.6h3.4v3.4h-6.8v-3.4h-4.6v-4.6h-8v4.6h3.4v3.4h4.6v4.6h4.6v3.4h-4.6v4.6H3.5v3.4h8v4.6h3.4v8h4.6v-8h4.6v-4.6h3.4v4.6h4.6v3.4h-4.6v16.1h12.6v-16.1h3.4v-8h4.6v4.6h7.9v3.4h3.4v-8h-3.4v-3.4h-8v-4.6h-4.6v4.6h-8v-4.6h4.6v-3.4h3.4v-4.6h4.6v4.6h3.4v-4.6h4.6v-4.6h-4.6v-3.4h4.6v-3.4h-4.6v-4.6h-3.4v8h-12.6V1.1h-4.6Z"/>
    <path class="st20" d="M32,60.8h-4.6v-8h4.6v-8h-4.6v-8h-3.4v3.4H3.5v-3.4h16v-4.6h8v-3.4h-3.4v-4.6h-4.6v-3.4h-8v-4.6h8v4.6h4.6v3.4h3.4v4.6h3.4v-8h-3.4v-12.6h3.4V0h4.6v8h-4.6v8h4.6v3.4h8v-3.4h4.6v-8h3.4v11.5h4.6v4.6h-4.6v-4.6h-8v4.6h-8v4.6h-4.6v8h4.6v27.5h-3.4v-3.4ZM14.9,44.8h4.6v8h-4.6v-8ZM56,40.2h-16v-3.4h16v3.4h3.4v8h-3.4v-8Z"/>
    <path class="st23" d="M27.5,60.8h4.6v3.4h-4.6v-3.4ZM35.4,50.5v-13.8h-4.6v-8h-3.4v3.4h-3.4v-3.4h-4.6v-4.6h-4.6v-3.4h4.6v3.4h4.6v4.6h3.4v-4.6h3.4v4.6h4.6v-4.6h8v-4.6h-8v-3.4h-4.6v-8h4.6v8h8v3.4h8v9.2h-3.4v-4.6h-4.6v4.6h-3.4v3.4h-4.6v4.6h4.6v3.4h3.4v8h-3.4v16.1h-4.6v-13.8ZM32,48.2v4.6h-4.6v-4.6h4.6ZM11.5,40.2h12.6v-3.4h3.4v3.4h-3.4v4.6h-12.6v-4.6ZM48,40.2h7.9v4.6h-7.9v-4.6ZM43.4,32.1h4.6v4.6h-4.6v-4.6ZM51.4,12.6h4.6v3.4h-4.6v-3.4Z"/>
    <path class="st2" d="M3.3,0C1.5,0,0,1.4,0,3.2v1.1C0,2.6,1.5,1.1,3.3,1.1h57.5c1.8,0,3.2,1.4,3.2,3.2v-1.1c0-1.8-1.4-3.2-3.2-3.2H3.3Z"/>
  </g>
</svg>