<?xml version="1.0" encoding="UTF-8"?>
<svg id="_图层_1" xmlns="http://www.w3.org/2000/svg" version="1.1" viewBox="0 0 64 64" width="32" height="32">
  <!-- Generator: Adobe Illustrator 29.0.1, SVG Export Plug-In . SVG Version: 2.1.0 Build 192)  -->
  <defs>
    <style>
      .st0 {
        fill: #fff;
      }

      .st1 {
        display: none;
      }

      .st1, .st2 {
        fill: #a5d940;
      }

      .st3 {
        fill: #c4eaff;
      }
    </style>
  </defs>
  <path class="st2" d="M15.4.7h29.7c-.4,0,18.1,18.1,18.1,18.1v29.7c0,8.1-6.6,14.7-14.7,14.7H15.4c-8.1,0-14.7-6.6-14.7-14.7V15.4C.7,7.3,7.3.7,15.4.7Z"/>
  <path class="st1" d="M5.3,48.8c0,15.2,13.3,15.2,13.3,15.2h26.4s13.6,0,13.4-15.7c0-1.3,0,2.5,0,1.7l.3-31.9L40.5,0h-21.8S5.3,0,5.3,15.4"/>
  <path class="st0" d="M23.2,21.1v3.1h-6.1v20.9h-2.8v-20.9h-6.1v-3.1s15,0,15,0ZM27.5,21.1l4.5,8.7,4.5-8.7h3.4l-6.2,11.6,6.6,12.4h-3.4l-4.9-9.5-4.9,9.5h-3.4l6.6-12.4-6.1-11.6h3.4,0ZM55.8,21.1v3.1h-6.1v20.9h-2.8v-20.9h-6v-3.1s14.9,0,14.9,0Z"/>
  <path class="st3" d="M63.2,18.8h-14.9c-1.7,0-3.2-1.5-3.2-3.2V.7s18.1,18.1,18.1,18.1Z"/>
</svg>
