<?xml version="1.0" encoding="UTF-8"?>
<svg id="_图层_1" xmlns="http://www.w3.org/2000/svg" version="1.1" viewBox="0 0 64 64" width="32" height="32">
  <!-- Generator: Adobe Illustrator 29.0.1, SVG Export Plug-In . SVG Version: 2.1.0 Build 192)  -->
  <defs>
    <style>
      .st0 {
        fill: #84cb71;
      }

      .st1 {
        fill: #5cce74;
      }

      .st2 {
        fill: #6cb960;
      }

      .st3 {
        fill: #a9f37e;
      }

      .st4 {
        fill: #fff;
      }

      .st5 {
        fill: #a5d940;
      }

      .st5, .st6 {
        display: none;
      }

      .st7 {
        fill: #8fe772;
      }

      .st8 {
        fill: #fbfdfc;
      }

      .st9 {
        fill: #77c66c;
      }

      .st10 {
        fill: #231f20;
      }

      .st11 {
        fill: #87de71;
      }

      .st12 {
        fill: #959d64;
      }

      .st13 {
        isolation: isolate;
        opacity: .2;
      }

      .st14 {
        fill: #dcc576;
      }

      .st15 {
        fill: #90e59a;
      }

      .st16 {
        fill: #d07b84;
      }

      .st17 {
        fill: #c4eaff;
      }

      .st18 {
        fill: #75d66f;
      }

      .st19 {
        fill: #fefefe;
      }

      .st20 {
        fill: #f5d776;
      }

      .st21 {
        fill: #ddc377;
      }

      .st22 {
        fill: #97eb74;
      }

      .st23 {
        fill: #e1cb86;
      }
    </style>
  </defs>
  <path class="st4" d="M47.5,64.1H13.8c-7.6,0-13.8-6.3-13.8-13.8V13.7C0,6.2,6.2,0,13.7,0h36.6c7.5,0,13.7,6.2,13.7,13.7v36.6c0,7.5-6.2,13.7-13.7,13.7h-2.9.1Z"/>
  <g>
    <path class="st5" d="M50.5,64H13.9c-7.6,0-13.9-6.2-13.9-13.7V13.7C0,6.2,6.3,0,13.8,0h36.6c7.5,0,13.7,6.2,13.7,13.7v36.6c0,7.5-6.2,13.7-13.7,13.7h.1Z"/>
    <g>
      <path class="st5" d="M50.5,64H14.1c-7.6,0-14.1-6-14.1-13.6V13.6C0,6.4,6.5,0,14.1,0h36.4c7.6,0,13.6,6,13.6,13.6v36.4c0,7.6-6,13.6-13.6,13.6h0v.4Z"/>
      <g class="st6">
        <path class="st5" d="M41.3,2.8H11.3c-.8,0-1.6,0-2,.8-.4.4-.8,1.2-.8,2v52c0,.8,0,1.6.8,2,.4.4,1.2.8,2,.8h44c.8,0,1.6,0,2-.8.4-.4.8-1.2.8-2V19.2L41.3,2.8Z"/>
        <path class="st13" d="M21.1,16.2v4.4h-6.7v30.7h-3v-30.7h-6.7v-4.4h17-.6ZM26,16.2l4.9,13.2,4.9-13.2h3.6l-6.7,17.6,7.3,18.6h-3.6l-5.5-14.3-5.5,14.3h-3.6l7.3-18.6-6.7-17.6s3.6,0,3.6,0ZM57.5,16.2v4.4h-6.7v30.7h-3v-30.7h-6.7v-4.4h16.4Z"/>
        <path class="st17" d="M63.9,11.7l-13.9,5.1c-1.6,0-2.8-1.2-3.2-2.8V.4l17.1,11.3Z"/>
        <path class="st4" d="M20.2,15.5v4.4h-6.7v30.7h-3v-30.7H3.8v-4.4h17-.6ZM25.1,15.5l4.9,13.2,4.9-13.2h3.6l-6.7,17.6,7.3,18.6h-3.6l-5.5-14.3-5.5,14.3h-3.6l7.3-18.6-6.7-17.6s3.6,0,3.6,0ZM56.6,15.5v4.4h-6.7v30.7h-3v-30.7h-6.7v-4.4h16.4Z"/>
      </g>
    </g>
  </g>
  <g>
    <path class="st15" d="M18.6,17.6c1.5-1.4,3.6-1.8,5.6-2.4,2.2-.1,4.4.5,6.5,1.4.9.3.8,1.3,1,2.1-.6.1-1.3.3-1.9.4.3-.4.5-.8.8-1.2,0-.4-.5-.6-.8-.8l-1,.7-.7-.6c-.6,0-1.3.2-1.9-.2-1-.4-2-.7-3.1-.6-.5.2-.9.6-1.3.9,0-.2,0-.5,0-.7-.2.3-.5.5-.7.8-1.5.2-2.2,1.7-1.9,3-.3.2-.6.5-1,.7.3-.7.6-1.4.2-2.1-1.1.3-1.2,1.5-1.7,2.3-.5.9-1.4,1.6-1.8,2.6,0,.5,0,1.1.1,1.6-.4-.1-.8-.2-1.2-.3,1-2.7,2.3-5.6,4.7-7.6Z"/>
    <path class="st1" d="M21.9,17.3c.4-.3.8-.7,1.3-.9,1.1-.1,2.1.2,3.1.6-.1.6-.3,1.2-.6,1.7-.8-.4-1.7-.9-2.5-1.4l.5.9c-.2.2-.4.5-.5.7-.3-.4-.7-.9-1-1.3-.1.7-.6,1.1-1.3.8.2-.4.3-.7.5-1,.2-.3.4-.5.7-.8,0,.2,0,.5,0,.7Z"/>
    <path class="st18" d="M26.3,17c.6.3,1.2.2,1.9.2l.7.6,1-.7c.2.3.7.4.8.8-.2.4-.5.8-.8,1.2-.2,0-.5.1-.6.2.3.4.6.7.9,1.1-1.3,0-2.3-.8-3.3-1.5-.9.1-1.6,1.1-2.6,1.2-.5-.2-.9-.5-1.3-.7-.2.5-.3,1-.6,1.4-.4.3-1,.3-1.5.4,0,.2,0,.5,0,.7-.5-.5-1.2-1-2-.6.6.6-.3.8-.7,1-.8.4-1.6.9-1.7,1.8-.2.5,0,1.3-.6,1.6-.7.2-1.5,0-2.2,0,0-.2.1-.5.2-.7.4.1.8.2,1.2.3,0-.5-.2-1.1-.1-1.6.4-1,1.3-1.7,1.8-2.6.5-.8.6-2,1.7-2.3.4.7.1,1.4-.2,2.1.3-.3.6-.5,1-.7-.3-1.3.4-2.8,1.9-3-.2.3-.3.7-.5,1,.7.4,1.2-.1,1.3-.8.3.5.7.9,1,1.3.2-.2.3-.5.5-.7l-.5-.9c.8.5,1.6.9,2.5,1.4.2-.5.4-1.1.6-1.7M19.3,27.7c.4,0,.8.1,1.1.2-.4,1.1-1,2.3-1,3.5.2.8.9,1.4,1.5,2.1-.8.2-1.8,0-2.4.7-.3,1.3,1,2.1,1.8,3-1.2-.4-2.5-1-2.9-2.3.6-.7,1.3-1.2,2-1.8-1.1-1.6-1.6-3.9-.1-5.4M31.4,30.6c.3.2.6.5.9.7,0,.5,0,.9,0,1.4-.5-.6-.9-1.3-.9-2.1M38.9,31c.3-.4.8-.4,1.1,0,.6.7.9,1.6,1.3,2.5.5,0,1,0,1.5.1-1,.4-1.9.9-2.1,2-.4-.6.2-1.1.4-1.6-.6-1.1-1.9-1.7-2.3-2.9M24.6,31.7l.3-.2c0,.8.4,1.6-.2,2.3-.6,0-1.1,0-1.7-.2.8-.5,1.3-1.1,1.6-1.9M32.4,32.7c.4.5.9,1,1.4,1.5.6-.6,1.8-1.6,2.3-.4-.8.4-1.9.7-2.2,1.7,0,0,0,0,0,.1.1.9.5,1.7.7,2.5-1.9-1.2-.8-3.8-2.3-5.3M42.8,32.9c.8,0,1.7.3,2.3.9-.8,0-1.6,0-2.3-.3v-.6M40.8,37.3c1,.4,2,.9,3,1.2.6-.2,1.4-1.5,1.9-.6-.8.7-1.8,1.4-2.9,1.1-.8-.4-1.4-1.2-2-1.8M13,37.4c.2,0,.6,0,.8.1.8,1.9.9,4,2,5.8.7,1,1.2,2.1,1.8,3.2.7,1.1,1.8,1.8,2.8,2.6,2.2,1.6,5.8,1.3,7.4-1,1-2.1-.2-4.2-1.1-6.1-1.5-2.2-5.3-.5-5.2,1.9-.4-2.4,2.8-4.5,4.9-3.2,1.5.9,1.9,2.7,2.5,4.3.7,1.8-.3,4-2.1,4.8-1.4.9-3.1.5-4.7.5-2.1-.1-3.5-1.8-4.9-3.1-1.3-1.6-2.2-3.5-3.3-5.3-.6-1.4-.9-3-1-4.5M24.4,43.6c.2.3.4.6.7.9-.6.7-1.6.7-2.4.6-.3-.4-.7-.7-1.1-1.1.8.5,1.8,1.5,2.8.9,0-.4,0-.8,0-1.2Z"/>
    <path class="st7" d="M24.2,20.2c1-.1,1.6-1.1,2.6-1.2,1,.7,2,1.5,3.3,1.5-.3-.4-.6-.7-.9-1.1.2,0,.5-.1.6-.2.6-.2,1.3-.3,1.9-.4.2.6.3,1.2.5,1.7-.3.3-.6.6-.9.9.6.9,1.2,1.8,1.9,2.6,1.3-.4,2.2.9,2.8,1.9-1.2,0-2.6,0-3.5-.9-.6-.5-1.1-1-1.7-1.5l-1.1.3c-.3-.7-.5-1.6-1.4-1.8,0,.4.2.7.2,1-.5.3-1.1.4-1.7.3.2-.5.5-1,.8-1.5-.8,0-1.2.6-1.6,1,0-.3-.2-.5-.2-.8-.3,0-.5-.1-.8-.1-.4,0-.6.6-1,.7-.7,0-1.4-.4-2.1-.4-.9.1-1.7.5-2.6.7-.3-.2-.6-.4-.9-.7.4-.3,1.2-.5.7-1,.8-.3,1.4.1,2,.6,0-.2,0-.5,0-.7.5-.1,1-.1,1.5-.4.3-.4.4-.9.6-1.4.5.3.9.5,1.4.7Z"/>
    <path class="st3" d="M31.2,21.4c.3-.3.6-.6.9-.9.3.9.7,1.7,1.4,2.3,1.3.9,2.6,1.9,4.1,2.3,1.4.3,2.9.1,4.1-.7,1-.9,1.5-2.2,2.6-3.1,1,.5,2.2.7,3.1,1.3,1,.6,1.5,1.7,2.1,2.7-.7.1-1.3.3-2,.4.2.4.5.8.8,1.2-.2.3-.3.5-.5.8-.3-.5-.6-1-1-1.5-.7.2-1.4.4-2,.8l.2,1c-1.5-.8-3.2,0-4.6.7-.4.2-.9.5-1.3.7-.9-.5-1.7-.9-2.7-1.3-.4.6-.8,1.1-1.2,1.7-.2-.4-.3-.9-.5-1.3-.2,0-.5,0-.6,0,0,.6,0,1.2,0,1.9-.4,0-.9-.1-1.3-.2.2-.8.4-1.7.6-2.5-.2,0-.6,0-.9,0-.7,1.1-.8,2.3-.6,3.6-.3-.2-.6-.5-.9-.7,0-.9.2-1.7.2-2.6-.9-.4-1.3.7-1.5,1.3-.5-.2-1-.3-1.6-.5-1.2-.4-1.9-1.3-3.1-1.8-.6-.2-1-.7-1.5-1.1,0,.2-.2.5-.2.7.5.7.5,1.7-.4,2.2-.3,0-.8-.1-1.1-.2.9.9,2.3,1.1,3.6,1.4l-.7.5c-1.2-.4-2.5-.4-3.6-1,0-.4,0-.9-.1-1.3-.3,0-.6-.1-1-.2-.4,0-.8-.1-1.1-.2-.3-.3-.6-.9-1.1-.6-.4.4-.7.8-1.1,1.2-.2-.3-.5-.6-.7-.9-1.7.2-1.6,2.2-2.7,3.1-.7.5-.7,1.4-1.3,2,0-.8-.1-1.5,0-2.3.3-1.3,1-2.6,1.3-3.9,0-.1,0-.3.1-.4.7,0,1.5.1,2.2,0,.6-.3.4-1.1.6-1.6.1-.9.9-1.4,1.7-1.8.3.2.6.4.9.7.9-.3,1.7-.6,2.6-.7.7,0,1.4.3,2.1.4.4,0,.6-.6,1-.7.3,0,.5,0,.8.1,0,.3.2.5.2.8.4-.5.9-1.1,1.6-1-.3.5-.5,1-.8,1.5.6.2,1.2,0,1.7-.3,0-.4-.2-.7-.2-1,.9.2,1.1,1.1,1.4,1.8l1.1-.3c.6.5,1.2,1,1.7,1.5.9.8,2.3.9,3.5.9-.6-1-1.5-2.2-2.8-1.9-.6-.9-1.3-1.8-1.9-2.6Z"/>
    <path class="st11" d="M47.8,25.7c.7-.1,1.3-.3,2-.4.2.4.4.9.6,1.3-1.8,1.8-4.5,2.2-6.9,2.7-1,.3-1.9-.2-2.7-.7,1.4-.7,3-1.5,4.6-.7l-.2-1c.6-.4,1.3-.6,2-.8.3.5.6,1,1,1.5.2-.3.3-.5.5-.8-.2-.4-.5-.8-.7-1.2Z"/>
    <path class="st8" d="M34.6,21.7v.2c1.5,1.5,3.7,2.3,5.8,1.8.8-.4,1.6-.9,2-1.8,1.3-2.6,1.5-5.7.6-8.5-.8-.6-1.6-1.2-2-2-1-1.3-2.6-2.6-4.3-2-1.8.2-3,1.8-3.5,3.3-.7,2-.9,4.3,0,6.3.2,1,.4,2.2,1.4,2.7ZM37.9,16.7c.4,1.1-.2,2.6-1.6,2.6-.6-.4-1.5-.8-1.4-1.7-.2-1.6,2-1.6,3-.9ZM49.7,23.1c.8-.8,1.8-1.5,2.6-2.2,1.5-2.1,2.7-4.8,1.6-7.3-.4-1.7-2.4-2.2-3.9-2-2,.3-4.3,1-5.4,2.9,0,1.8.3,3.6,0,5.4,2,.5,4.2,1.3,5.1,3.2ZM51.2,15.4c.4,0,.8-.2,1.2-.3.5.7.4,1.6.2,2.4-.8.8-2,0-2.3-.8.3-.4.6-.8.9-1.2Z"/>
    <path class="st10" d="M42.8,32.9s0,0,0,0t0,0s0,0,0,0Z"/>
    <path class="st4" d="M8.2,34c-.2.4-.4.9-.6,1.3.2.5.5,1,.8,1.5.1,0,.3-.1.4-.2-.8-.8-.2-1.9.3-2.7-.3,0-.6,0-.9,0ZM10.4,34.4v-.2c-.1,0-.2.2-.2.3l-.2.2s-.1.1-.1.2c-.5.4-.4.9-.4,1.5,0,.1.2.4.3.5.8.5.6-1.2,0-1.2.3-.4.7-.8.8-1.3h-.3Z"/>
    <path class="st10" d="M36.3,19.4c1.4,0,2-1.5,1.6-2.6-1-.6-3.2-.7-3,.9-.1.9.7,1.3,1.4,1.7ZM52.6,17.5c.2-.7.3-1.7-.2-2.4-.4.1-.8.2-1.2.3-.3.4-.6.8-.9,1.2.3.8,1.5,1.6,2.3.9Z"/>
    <path class="st10" d="M51.8,33.8c-1.8-.3-3.6,0-5.4,0-.8-.5-1.6-1.1-2.6-1.2-.3.1-.6.3-.9.4.8,0,1.7.3,2.3.8-.8,0-1.6,0-2.3-.3-1,.4-1.9.9-2.1,2-.4-.6.2-1.1.4-1.6-.6-1.1-1.9-1.7-2.3-2.9.3-.4.8-.4,1.1,0,.6.7.9,1.6,1.3,2.5.5,0,1,0,1.5.1v-.6c-.2.1-.5.2-.8.3-.4-.9-.8-1.9-1.1-2.8.6.1,1.2.3,1.8.5,2.7-.4,5.7-.9,7.8-2.7.5-.4,1.3-.8,1.1-1.6,0-.4-.2-.7-.3-1-.3-.6-.7-1.2-1-1.8.6-.2,1.2-.4,1.8-.7,2.1-2,3.2-4.9,3.4-7.7-.2-1.5-.6-3.2-1.9-4.2-2.2-1.1-4.8-.7-7,0-1,.4-1.7,1.2-2.6,1.8-.7-.2-1.1-.9-1.6-1.4-.9-1.4-2.1-2.7-3.7-3.4-1.4,0-2.9-.4-4.1.4-.6.4-1.3.7-1.7,1.3-.9,1.7-1.5,3.6-1.6,5.5-.3-.1-.6-.2-.9-.3-2.1-.7-4.3-1.2-6.5-1.2-1.5.3-3,.7-4.5,1.3-2.9,1.5-4.8,4.3-5.9,7.3-.7,1.3-1.1,2.6-1.4,4-.2,1.3-.8,2.5-.8,3.8,0,.9,0,1.8,0,2.6,0,0,0,0-.1,0-.9.5-2.1.5-3.1.7-.8,0-1.5-.4-2.3-.2h0c-.8.4-1.7.6-2.6,1-.2,1.1-.4,2.7,1,3.2h1.5c1.8,0,3.6,0,5.4,0h.4c.4,2.2.9,4.5,2.1,6.4,1.4,2.2,2.8,4.5,5,6.1,2.1,1.3,4.7,1.4,7,1,.9-.1,1.5-.8,2.3-1.1.5-.3,1.2-.4,1.4-1,1.6-2.5.4-5.7-1.1-8-.9-1.6-3-1.9-4.7-1.8-1,.2-1.6,1-2.5,1.5-.9.5-1.8,1.6-1.1,2.6.6,1.1,1.3,2.5,2.8,2.4.9-.1,2.2-.3,2.6-1.2.2-1.1-1.2-1.7-2.1-1.9,0,.6.1,1.1.2,1.7-.5-.3-1-.6-1.5-.9.3-1.5,2-1.5,3.2-1.9,1.2,1.8,2.5,4.1,1.5,6.3-1.1,1.4-3.2,1.2-4.8.8-2.1-.3-3.4-2.1-4.4-3.8-1.4-2.3-3.1-4.8-2.8-7.6,1,0,1.9,0,2.9,0,.9.2,1.7,1,2.7.6,2.1-.6,4.4-.2,6.5-.3,1.7,0,3.4-.2,5.2,0,.6.2,1,.9,1.7.8.8.3,1.3-.6,1.9-.9,1.4,0,2.8,0,4.1,0,.6,1.1,1.6,2.3,3,2.4,1.7,0,3.1-1.1,4.1-2.4,1.2.3,2.5.6,3.7,0,2.5-1,5.3-1,7.9-1.8v-.7c-2-1.2-4.6-.9-7-1.5ZM40.1,33.9c-1.6,0-3.4.2-4.4-1.3-.6.2-1.3.4-1.6,1-.2-.1-.7-.4-.9-.5,0-.6,0-1.1,0-1.7h1c1,0,1.9-.1,2.9-.2.5,0,.6.6.9.9.6.7,1.3,1.1,2,1.7ZM39,35.4c-1.2,0-2.4,0-3.6,0-.1-.7.8-.6,1.2-.7,1,0,2,0,3,0,0,.5-.2.7-.7.7ZM44.6,14.5c1.1-1.9,3.3-2.6,5.4-2.9,1.6-.2,3.5.4,3.9,2,1.1,2.5-.1,5.2-1.6,7.3-.9.8-1.8,1.4-2.6,2.2-1-1.9-3.1-2.7-5.1-3.2.4-1.8,0-3.7,0-5.5ZM33.1,12.7c.5-1.6,1.7-3.1,3.5-3.3,1.7-.6,3.4.7,4.3,2,.5.9,1.2,1.5,2,2,.9,2.8.7,5.9-.6,8.5-.4.8-1.2,1.3-2,1.8-2.1.6-4.3-.3-5.8-1.8v-.2c-1-.5-1.2-1.7-1.4-2.7-.9-2-.7-4.3,0-6.3ZM6,37.1c-.6,0-1.2,0-1.9-.2-.1-.6-.4-1.4.2-1.8.6-.3,1.1-.9,1.4-1.5,0,0,.1,0,.2,0,.5,0,1.1,0,1.6,0,0,.7-1,.9-.9,1.6.2.7.5,1.2.8,1.9-.5,0-1,0-1.6,0ZM8.8,36.7c-.1,0-.3.1-.4.2-.3-.5-.6-1-.8-1.5.2-.4.5-.8.6-1.3.3,0,.6,0,.9,0-.5.8-1.1,1.8-.3,2.7ZM9.7,36.8c0-.1-.2-.4-.3-.5,0-.5,0-1.1.4-1.5,0,0,0-.1.1-.2l.2-.2c0,0,0-.2.1-.3v.2c0,0,.3-.1.3-.1,0,.5-.5.9-.8,1.3.6,0,.7,1.7,0,1.2ZM11,35.3c0-.3.2-.4.4-.6.6-.5,1.7-.3,2.4-.4.9.1,2-.2,2.6.5l-.3.6c-1.6,0-3.2-.1-4.7-.1-.1,0-.3,0-.4,0ZM18.3,32.9c-.9.5-1.9.5-2.9.5-.2-1.5.7-2.7,1.4-3.9.3,0,.6-.1.9-.2-.4,1.2-.2,2.5.5,3.6ZM15.8,43.3c.7,1,1.2,2.1,1.8,3.2.7,1.1,1.8,1.8,2.8,2.6,2.2,1.6,5.8,1.3,7.4-1,1-2.1-.2-4.2-1.1-6.1-1.5-2.2-5.3-.5-5.2,1.9.8.5,1.8,1.5,2.8.9,0-.4,0-.8,0-1.2.2.3.4.6.7.9-.6.7-1.6.7-2.4.6-.3-.4-.7-.7-1.1-1.1-.4-2.4,2.8-4.5,4.9-3.2,1.5.9,1.9,2.7,2.5,4.3.7,1.8-.3,4-2.1,4.8-1.4.9-3.1.5-4.7.5-2.1-.1-3.5-1.8-4.9-3.1-1.3-1.6-2.2-3.5-3.3-5.3-.5-1.5-.9-3-1-4.5.2,0,.6,0,.8.1.8,1.9.9,4,2,5.8ZM11.7,36.7c0-.1-.2-.4-.2-.5,1.9-.3,3.7.1,5.6.2,0,0,.2.2.3.3-1.9,0-3.8.1-5.6,0ZM17.4,34.9c.6-.7,1.3-1.2,2-1.8-1.1-1.6-1.6-3.9-.2-5.4-.3-.3-.6-.9-1.1-.6-.4.4-.7.8-1.1,1.2-1.6,1.2-2.3,3.1-3.2,4.7-.5,0-.9,0-1.4,0,0-.1,0-.4,0-.6,0-.8-.1-1.5,0-2.3.3-1.3,1-2.6,1.3-3.9,0-.1,0-.3.1-.4,0-.2.1-.5.2-.7,1-2.7,2.3-5.6,4.7-7.6,1.5-1.4,3.6-1.8,5.6-2.4,2.2-.1,4.4.5,6.4,1.4h.1c.9.4.8,1.4,1,2.1.2.6.3,1.2.5,1.7.3.9.7,1.7,1.4,2.3,1.3.9,2.6,1.9,4.1,2.3,1.4.3,2.9.1,4.1-.7,1-.9,1.5-2.2,2.6-3.1,1,.5,2.2.7,3.1,1.3,1,.6,1.5,1.7,2.1,2.7v.3c.3.4.4.7.6,1.1-1.8,1.8-4.5,2.2-6.9,2.7-1,.3-1.9-.2-2.7-.7-.4.2-.9.5-1.3.7-1.5.8-3.3,1.2-5,1-.4,0-.9-.1-1.3-.2.2-.8.4-1.7.6-2.5-.2,0-.6,0-.9,0-.7,1.1-.8,2.3-.6,3.6,0,.5,0,.9,0,1.4-.5-.6-.9-1.3-.9-2.1,0-.9.2-1.7.2-2.6-.9-.4-1.3.7-1.5,1.3,0,.4,0,.7,0,1.1-1.7.4-3.4.6-5.1,0-1.2-.4-2.5-.4-3.6-1,0-.4,0-.9-.1-1.3-.3,0-.6-.1-1-.2-.4,1.1-1,2.3-1,3.5.2.8.9,1.4,1.5,2.1-.8.2-1.8,0-2.4.7-.3,1.3,1,2.1,1.8,3-1.2-.5-2.5-1.1-2.9-2.3ZM32.1,34c-2.2,0-4.4.1-6.5,0,.1-.7.4-1.4.6-2.1,1.5,0,3,0,4.6,0,.7.5,1,1.4,1.4,2.2ZM24.8,33.8c-.6,0-1.1,0-1.7-.2.8-.5,1.3-1.1,1.6-1.9l.3-.2c0,.8.4,1.6-.2,2.3ZM23,31.3c-.1.4-.2.8-.3,1.2-.5.3-1,.7-1.5,1-.6-.9-.9-1.9-.7-3,.8.2,1.8.2,2.4.8ZM19.8,35.4c-.1-.4-.2-.7-.3-1.1.8.2,2.1-.3,2.6.4.7.1,1.4.4,2.1.5,2.6-.7,5.4-.3,8-.3,0,.2,0,.7,0,.9-2,0-4,0-6,0-1,0-2-.7-3.1-.4-.5,0-1,.5-1.4.1-.7,0-1.3,0-2,0ZM32.2,37.1c-3,.1-6,0-9.1,0-.6,0-1.3,0-1.9,0-.2-.2-.3-.4-.5-.6.8,0,1.6,0,2.4,0,3.1,0,6.2,0,9.3.3,0,.1-.2.3-.2.4ZM32.6,33c.3.4.7.8,1.2,1.1.6-.6,1.8-1.6,2.3-.4-.8.4-1.9.7-2.2,1.7h0c.1,1,.5,1.8.7,2.6-1.8-1.1-.9-3.4-2-5ZM42.8,39c-.8-.4-1.4-1.2-2-1.8,1,.4,2,.9,3,1.2.6-.2,1.4-1.5,1.9-.6-.8.7-1.9,1.4-2.9,1.1ZM47.9,37c-.8.1-1.6-.4-2.4-.3-1.6.1-3.2.2-4.8-.1-1.8.4-3.7.2-5.5.3,0-.2,0-.5,0-.7,1.9-.2,3.7,0,5.6.3,1.7-.2,3.5,0,5.2-.3.7,0,2.2-.3,2,.8ZM44.8,35.5c-1-.1-2.2,0-3.2-.3,0-.1.2-.4.3-.5,1.9-.2,3.7-.4,5.7-.3.5.1.9.5,1.4.8-1.3.6-2.7.5-4.1.3ZM54,36.3c-1.4.3-2.7.9-4.2.9,0-.4,0-.8,0-1.1.2-.1.5-.3.7-.4,0-.4,0-.8.1-1.2,1.2,0,2.3.4,3.4.5,0,.4.2.9,0,1.4Z"/>
    <path class="st22" d="M24.1,25.9c.5.4.9.9,1.5,1.1,1.1.4,1.9,1.4,3.1,1.8-.1.2-.2.4-.3.5-1.6-.5-3.3-.1-4.9-.6.9-.5.9-1.4.4-2.2,0-.2.1-.5.2-.7Z"/>
    <path class="st0" d="M13.7,30.5c1.1-.9,1-2.9,2.7-3.1.2.3.5.6.7.9-1.6,1.2-2.3,3.1-3.2,4.7-.5,0-.9,0-1.4,0,0-.1,0-.4,0-.6.6-.5.6-1.5,1.3-2Z"/>
    <path class="st2" d="M36.8,28.1c.9.4,1.8.8,2.7,1.3-1.5.8-3.3,1.2-5,1,0-.6-.1-1.2,0-1.9.2,0,.5,0,.6,0,.2.4.3.9.5,1.3.4-.5.9-1.1,1.2-1.7Z"/>
    <path class="st9" d="M22.3,28.6c.3,0,.8.1,1.1.2,1.6.5,3.3.1,4.9.6.1-.2.2-.4.3-.5.5.2,1,.3,1.6.5,0,.4,0,.7,0,1.1-1.7.4-3.4.6-5.1,0l.7-.5c-1.2-.3-2.6-.5-3.6-1.4Z"/>
    <path class="st16" d="M5.8,33.7c.6,0,1.2,0,1.8,0,0,.7-1,.9-.9,1.6.2.7.5,1.2.8,1.9-1.1,0-2.3,0-3.4-.2-.1-.6-.4-1.4.2-1.8.6-.4,1-.9,1.4-1.5Z"/>
    <path class="st19" d="M50.6,34.4c1.2,0,2.3.4,3.4.5,0,.5.1,1,0,1.4-1.4.3-2.7.9-4.2.9,0-.4,0-.8,0-1.1.2-.1.5-.3.7-.4,0-.4.1-.8.1-1.2Z"/>
    <path class="st23" d="M19.5,34.3c.8.2,2.1-.3,2.6.4h-.6c0,.2.2.5.3.8-.6,0-1.3,0-2,0-.1-.4-.2-.7-.3-1.1M11.4,36.2c1.9-.3,3.7.1,5.6.2,0,0,.2.2.3.3-1.9,0-3.8.1-5.6,0,0-.1-.2-.4-.2-.5Z"/>
    <path class="st21" d="M11,35.3c.3-1.1,1.9-.9,2.8-1,.9.1,2-.2,2.6.5l-.3.6c-1.7,0-3.4-.1-5.2-.2M23.1,36.4c3.1,0,6.2,0,9.3.3,0,.1-.2.3-.2.4-3,.1-6,0-9.1,0,0,0,0-.7,0-.7Z"/>
    <path class="st14" d="M21.5,34.6h.6c.7.2,1.4.5,2.1.5,2.6-.7,5.4-.3,8-.3,0,.2,0,.7,0,.9-2,0-4,0-6,0-1,0-2-.7-3.1-.4-.5,0-1,.5-1.4.1-.1-.3-.2-.6-.3-.8M20.8,36.4c.8,0,1.6,0,2.4,0v.7c-.6,0-1.3,0-1.9,0-.2-.2-.3-.4-.5-.6Z"/>
    <path class="st20" d="M35.4,35.4c-.1-.7.8-.6,1.2-.7,1,0,2,0,3,0,0,.5-.2.7-.6.7-1.2,0-2.4,0-3.6,0M41.9,34.8c1.9-.2,3.7-.4,5.7-.3.5.1.9.5,1.4.8-1.3.6-2.7.5-4.1.3-1-.1-2.2,0-3.2-.3,0-.1.2-.4.3-.5M35.1,36.2c1.9-.2,3.7,0,5.6.3,1.7-.2,3.5,0,5.2-.3.7,0,2.2-.3,2,.8-.8.1-1.6-.4-2.4-.3-1.6.1-3.2.2-4.8-.1-1.8.4-3.7.2-5.5.3,0-.2,0-.5,0-.7Z"/>
    <path class="st12" d="M33.9,35.5s0,0,0-.1h0Z"/>
  </g>
</svg>