<?xml version="1.0" encoding="UTF-8"?>
<svg id="_图层_1" xmlns="http://www.w3.org/2000/svg" version="1.1" viewBox="0 0 64 64" width="32" height="32">
  <!-- Generator: Adobe Illustrator 29.0.1, SVG Export Plug-In . SVG Version: 2.1.0 Build 192)  -->
  <defs>
    <style>
      .st0, .st1, .st2 {
        fill: #fff;
      }

      .st1 {
        opacity: .7;
      }

      .st1, .st2 {
        isolation: isolate;
      }

      .st3 {
        fill: #2e68f8;
      }

      .st2 {
        opacity: .8;
      }
    </style>
  </defs>
  <path class="st3" d="M50.4,64H13.8c-7.6,0-13.8-6.2-13.8-13.7V13.7C0,6.2,6.2,0,13.7,0h36.6c7.5,0,13.7,6.2,13.7,13.7v36.6c0,7.5-6.2,13.7-13.7,13.7h.1Z"/>
  <g>
    <path class="st0" d="M37.2,28.3c-.2.2-.6,0-.9-.4v-2.3c0-.2.2-.4.4-.6l3-1.5c.2-.2.4-.2.6-.2h1.7c.4,0,.6.4.6.6v8.1h6.4v-13.4c0-.9-.6-1.5-1.3-1.5h-31.6c-.6,0-1.3.6-1.3,1.5v13.4h10.3v-.9c0-.4.2-.6.6-.6.9,0,1.3-.2,1.5-.2.6-.2,1.1-.9,1.1-1.9s-.2-1.1-.4-1.5c-.4-.4-.9-.6-1.5-.6s-1.3.2-1.7.6-.2.6-.4,1.3c0,.2-.4.6-.6.6h-1.5c-.4,0-.6-.2-.6-.6,0-.6.2-1.3.2-1.7.2-.6.6-1.3,1.3-1.7.4-.4.9-.6,1.5-.9s1.3-.2,2.1-.2,2.8.4,3.6,1.3c.9.9,1.3,1.9,1.3,3.4s-.2,1.7-.9,2.6c-.4.4-.6.6-1.1.9.2,0,.6.2,1.1.6h8.8v-4.5l-2.3.4h0Z"/>
    <path class="st1" d="M42.7,34.1v5.8c0,.4-.2.6-.6.6h-1.7c-.4,0-.6-.4-.6-.6v-5.8h-7.7c0,.4.2.6.2,1.1,0,1.5-.4,2.6-1.3,3.6s-2.3,1.5-4.1,1.5-3.8-.9-4.7-2.3c-.2-.4-.4-1.3-.4-2.6s.2-.6.6-.6h1.1c.2,0,.6.2.6.6s.2.9.2,1.1c.4.9,1.1,1.3,2.1,1.3s1.3-.2,1.7-.6.6-1.1.6-1.9,0-.9-.2-1.3h-13.7v13.4c0,1.1.6,1.7,1.3,1.7h31.4c.9,0,1.3-.6,1.3-1.3v-13.6h-6.2,0Z"/>
    <path class="st2" d="M49.1,34.1h-6.4v5.8c0,.4-.2.6-.6.6h-1.7c-.4,0-.6-.4-.6-.6v-5.8h-7.7c0,.4.2.6.2,1.1,0,1.5-.4,2.6-1.3,3.6s-2.3,1.5-4.1,1.5-3.8-.9-4.7-2.3c-.2-.4-.4-1.3-.4-2.6s.2-.6.6-.6h1.1c.2,0,.6.2.6.6s.2.9.2,1.1c.4.9,1.1,1.3,2.1,1.3s1.3-.2,1.7-.6.6-1.1.6-1.9,0-.9-.2-1.3h-13.7l-1.3,11.3c0,.9.4,1.5,1.3,1.7h34.2c.9,0,1.3-.6,1.3-1.5l-1.3-11.3h0Z"/>
  </g>
</svg>