<?xml version="1.0" encoding="UTF-8"?>
<svg id="_图层_1" xmlns="http://www.w3.org/2000/svg" version="1.1" viewBox="0 0 64 64" width="32" height="32">
  <!-- Generator: Adobe Illustrator 29.0.1, SVG Export Plug-In . SVG Version: 2.1.0 Build 192)  -->
  <defs>
    <style>
      .st0, .st1, .st2, .st3 {
        display: none;
      }

      .st0, .st4 {
        fill: #3168b2;
      }

      .st1, .st2, .st5, .st3 {
        isolation: isolate;
      }

      .st1, .st5, .st3 {
        opacity: .2;
      }

      .st2 {
        opacity: .1;
      }

      .st2, .st3 {
        fill: #fff;
      }

      .st6 {
        fill: #3c3c3c;
      }

      .st7 {
        fill: #e4e4e4;
      }
    </style>
  </defs>
  <path class="st4" d="M50.4,64H13.8c-7.6,0-13.8-6.2-13.8-13.7V13.7C0,6.2,6.2,0,13.7,0h36.6c7.5,0,13.7,6.2,13.7,13.7v36.6c0,7.5-6.2,13.7-13.7,13.7h.1Z"/>
  <g>
    <path class="st7" d="M50.4,64.1h-17.7c-7.6,0,13.1-7,13.1-14.5l3-23.9C48.8,18.2,33.1,0,40.6,0h9.7c7.5-.1,13.7,6.1,13.7,13.6v36.7c0,7.5-6.2,13.7-13.7,13.7h.1Z"/>
    <ellipse class="st1" cx="31.9" cy="32.5" rx="31.9" ry="31.4"/>
    <path class="st3" d="M31.9,0C15.6,0,2,12.1.2,28,2,13,15.7,1.6,31.9,1.6c16.6,0,30.4,11.9,31.8,27.4C62.4,12.6,48.5,0,31.9,0ZM63.7,29c0,.8.1,1.6.1,2.4,0-.8,0-1.6-.1-2.4ZM.2,28c0,.2,0,.4,0,.6,0-.2,0-.4,0-.6ZM.1,28.6c0,.9-.1,1.8-.1,2.8,0-.9,0-1.8.1-2.8Z"/>
    <path class="st0" d="M31.9,0C14.3,0,0,14.1,0,31.4s8.7,25,20.8,29.4c3.5,1.3,6.7-3.7,10.6-3.7,17.6,0,29.5-8.2,29.5-25.5s-6.9-22.7-19.7-26.8c-.5-.2-.5-3.6-.9-3.7-2.6-.7-5.4-1.1-8.3-1.1h0Z"/>
    <path class="st5" d="M40,2.2c-5.2,2.9-18.3,11.1-17.2,18.3,1.5,10,22.2,8.3,22.8,16.2.7,9.3-13.5,18.7-22.8,23.6,2.9.9,6,1.3,9.1,1.3,17.2,0,31.3-13.4,31.9-30.4-.5-13.7-10.1-25.6-23.8-29.1h0Z"/>
    <path class="st7" d="M40,0c-5.2,3-18.3,11.5-17.2,19,1.5,10.4,22.2,8.6,22.8,16.8.8,10.6-16.4,21.3-25.4,25.9,3.7,1.5,7.7,2.3,11.7,2.3,17.6,0,31.9-14.6,31.9-32.5S54,3.8,40,0h0Z"/>
    <path class="st5" d="M3.4,16.5C1.9,18.9.8,21.6,0,24.3h8.3v15.7H0c.7,2.8,1.9,5.4,3.4,7.8h56.7c.4-.7.8-1.5,1.2-2.2h-2.4v-3.4h3.5v1.5c.5-1.2.9-2.5,1.3-3.7h-7.1v-15.7h7.2c-.3-1.3-.8-2.5-1.3-3.8v1.5h-3.5v-3.4h2.7c-.4-.8-.8-1.5-1.2-2.2H3.4ZM2.5,18.7h3.5v3.4h-3.5v-3.4ZM9.5,18.7h3.5v3.4h-3.5v-3.4ZM16.6,18.7h3.5v3.4h-3.5v-3.4ZM23.6,18.7h3.5v3.4h-3.5v-3.4ZM30.7,18.7h3.5v3.4h-3.5v-3.4ZM37.8,18.7h3.5v3.4h-3.5v-3.4ZM44.8,18.7h3.5v3.4h-3.5v-3.4ZM51.9,18.7h3.5v3.4h-3.5v-3.4ZM14.2,24.3h15.3v15.7h-15.3s0-15.7,0-15.7ZM35.4,24.3h15.3v15.7h-15.3s0-15.7,0-15.7ZM2.5,42.3h3.5v3.4h-3.5v-3.4ZM9.5,42.3h3.5v3.4h-3.5v-3.4ZM16.6,42.3h3.5v3.4h-3.5v-3.4ZM23.6,42.3h3.5v3.4h-3.5v-3.4ZM30.7,42.3h3.5v3.4h-3.5v-3.4ZM37.8,42.3h3.5v3.4h-3.5v-3.4ZM44.8,42.3h3.5v3.4h-3.5v-3.4ZM51.9,42.3h3.5v3.4h-3.5v-3.4Z"/>
    <path class="st6" d="M3.4,15.4C1.9,17.8.8,20.5,0,23.2h8.3v15.7H0c.7,2.8,1.9,5.4,3.4,7.8h56.7c.4-.7.8-1.5,1.2-2.2h-2.4v-3.4h3.5v1.5c.5-1.2.9-2.5,1.3-3.7h-7.1v-15.7h7.2c-.3-1.3-.8-2.5-1.3-3.8v1.5h-3.5v-3.4h2.7c-.4-.8-.8-1.5-1.2-2.2H3.4ZM2.5,17.6h3.5v3.4h-3.5v-3.4ZM9.5,17.6h3.5v3.4h-3.5v-3.4ZM16.6,17.6h3.5v3.4h-3.5v-3.4ZM23.6,17.6h3.5v3.4h-3.5v-3.4ZM30.7,17.6h3.5v3.4h-3.5v-3.4ZM37.8,17.6h3.5v3.4h-3.5v-3.4ZM44.8,17.6h3.5v3.4h-3.5v-3.4ZM51.9,17.6h3.5v3.4h-3.5v-3.4ZM14.2,23.2h15.3v15.7h-15.3v-15.7ZM35.4,23.2h15.3v15.7h-15.3v-15.7ZM2.5,41.1h3.5v3.4h-3.5v-3.4ZM9.5,41.1h3.5v3.4h-3.5v-3.4ZM16.6,41.1h3.5v3.4h-3.5v-3.4ZM23.6,41.1h3.5v3.4h-3.5v-3.4ZM30.7,41.1h3.5v3.4h-3.5v-3.4ZM37.8,41.1h3.5v3.4h-3.5v-3.4ZM44.8,41.1h3.5v3.4h-3.5v-3.4ZM51.9,41.1h3.5v3.4h-3.5v-3.4Z"/>
    <path class="st2" d="M31.9,0C14.3,0,0,14.1,0,31.4s0,.4,0,.6C.3,14.8,14.5,1.1,31.9,1.1c17.4,0,31.6,13.7,31.9,30.8,0-.2,0-.4,0-.6C63.8,14.1,49.5,0,31.9,0Z"/>
  </g>
</svg>