<?xml version="1.0" encoding="UTF-8"?>
<svg id="_图层_1" data-name="图层_1" xmlns="http://www.w3.org/2000/svg" version="1.1" xmlns:xlink="http://www.w3.org/1999/xlink" viewBox="0 0 200 200" width="32" height="32">
  <!-- Generator: Adobe Illustrator 29.0.1, SVG Export Plug-In . SVG Version: 2.1.0 Build 192)  -->
  <defs>
    <style>
      .st0 {
        fill: #4f4f4f;
      }

      .st1 {
        fill: #9c9c9c;
      }

      .st2 {
        fill: #ff8802;
      }

      .st3, .st4, .st5 {
        fill: #fff;
      }

      .st6 {
        fill: #3ddc84;
      }

      .st7 {
        fill: none;
        stroke: #989898;
        stroke-width: .9px;
      }

      .st8 {
        fill: #d03141;
      }

      .st9 {
        fill: #8d8d8d;
      }

      .st10 {
        fill: #927bcb;
      }

      .st11 {
        fill: #9550e8;
      }

      .st12 {
        fill: #98b6ea;
      }

      .st13 {
        fill: #09aeee;
      }

      .st14 {
        opacity: .1;
      }

      .st14, .st15, .st16, .st4, .st5 {
        isolation: isolate;
      }

      .st17 {
        fill: #ffc802;
      }

      .st15 {
        opacity: .4;
      }

      .st18 {
        fill: #f2e9f8;
      }

      .st19 {
        fill: #ff5853;
      }

      .st20 {
        fill: url(#_未命名的渐变_23);
      }

      .st16, .st4, .st5 {
        opacity: .2;
      }

      .st21, .st5 {
        display: none;
      }

      .st22 {
        fill: #ccc;
      }

      .st23 {
        fill: #bcc5ee;
      }

      .st24 {
        fill: #e4e4e4;
      }

      .st25 {
        fill: #bf5297;
      }

      .st26 {
        fill: #e7521d;
      }

      .st27 {
        fill: url(#_未命名的渐变_231);
      }

      .st28 {
        fill: #ff7800;
      }

      .st29 {
        fill: #989898;
      }
    </style>
    <linearGradient id="_未命名的渐变_23" data-name="未命名的渐变 23" x1="68.5" y1="106" x2="130.1" y2="106" gradientUnits="userSpaceOnUse">
      <stop offset="0" stop-color="#6aa5ff"/>
      <stop offset="1" stop-color="#3f76ff"/>
    </linearGradient>
    <linearGradient id="_未命名的渐变_231" data-name="未命名的渐变 23" x1="88.2" y1="106" x2="110.4" y2="106" xlink:href="#_未命名的渐变_23"/>
  </defs>
  <path class="st9" d="M157.3,200H43.3c-23.5,0-42.7-19.3-42.7-42.8V43C.6,19.5,19.8.2,43.3.2h114c23.5,0,42.7,19.3,42.7,42.8v114.2c0,23.5-19.2,42.8-42.7,42.8h0Z"/>
  <g class="st21">
    <path class="st3" d="M184.1,110.5c0-12.2-5.3-23.8-14.6-31.9-9.1-7.9-21.3-11.4-33.4-9.5-4.4-15.7-17.6-27.6-34.1-30.7-16.3-2.8-32.9,3.9-42.3,17.2-5.6,7.8-8.6,17.1-8.4,26.7-18.3,3.4-30.9,19.7-29.2,37.8,1.1,18,16.3,32.2,34.8,32.5h90.3c.9,0,1.8-.2,2.5-.6,20.1-4,34.5-21.3,34.2-41.3Z"/>
  </g>
  <g class="st21">
    <path class="st20" d="M120.9,79.8h-43.1c-5.1,0-9.3,4.3-9.3,9.5v33.5c0,5.2,4.2,9.5,9.3,9.5h43.1c5.1,0,9.3-4.3,9.3-9.5v-33.5c0-5.2-4.2-9.5-9.3-9.5ZM72.2,107.9h4.5v6.8h-4.5v-6.8ZM76.7,104.1h-4.5v-6.8h4.5v6.8ZM80.4,83.6h37.8v44.9h-37.8s0-44.9,0-44.9ZM126.4,104.1h-4.5v-6.8h4.5v6.8ZM121.9,107.9h4.5v6.8h-4.5v-6.8ZM126.4,89.3v4.3h-4.5v-9.9c2.6.5,4.5,2.8,4.5,5.6ZM76.7,83.7v9.9h-4.5v-4.3c0-2.8,2-5.1,4.5-5.6ZM72.2,122.8v-4.3h4.5v9.9c-2.6-.5-4.5-2.8-4.5-5.6ZM121.9,128.4v-9.9h4.5v4.3c0,2.8-2,5.1-4.5,5.6Z"/>
    <path class="st27" d="M108.2,102.2l-13.5-8c-1.3-.8-3-.8-4.3,0s-2.2,2.2-2.2,3.8v16.1c0,1.6.8,3,2.2,3.8.7.4,1.4.6,2.2.6s1.5-.2,2.2-.6l13.5-8c1.3-.8,2.2-2.2,2.2-3.8s-.8-3-2.2-3.8ZM106.4,106.6l-13.5,8c-.3.2-.5,0-.6,0-.1,0-.3-.2-.3-.5v-16.1c0-.3.2-.5.3-.5,0,0,.2,0,.3,0s.2,0,.3,0l13.5,8c.3.2.3.4.3.5,0,.1,0,.4-.3.5h0Z"/>
  </g>
  <g class="st21">
    <path class="st16" d="M72.5,36.7c-1.2,0-2.1.8-2.2,1.8,0,.4.1.7.3,1l7.2,10.1c-12.6,6.7-20.2,18.7-20.2,31.5,0,20.5,19,37.1,42.4,37.1h0c23.4,0,42.4-16.6,42.4-37.1h0c0-12.9-7.7-24.8-20.2-31.5l7.2-10.1c.6-.9.3-2-.6-2.6-.4-.2-.8-.3-1.2-.3-.7,0-1.4.4-1.8.9l-7.3,10.3c-5.7-2.4-12.1-3.7-18.5-3.7-6.4,0-12.7,1.3-18.5,3.7l-7.3-10.2c-.4-.5-1-.9-1.8-.9Z"/>
    <path class="st16" d="M165,155.3H48c-7.2,0-13-5.1-13.1-11.3v-79.1c0,6.6,6.4,11.8,13.9,11.4h97c7.8,0,19.1-.4,19.1,12.5v66.6Z"/>
    <path class="st2" d="M82.7,54h-34.9c-7.1,0-12.8,4.4-12.8,9.9-.2,5.3,5.2,9.7,12,9.9.1,0,.3,0,.4,0h35.6l-.4-19.8Z"/>
    <path class="st16" d="M47.8,54c-7.1,0-12.8,4.4-12.8,9.9,0,.5,0,.9,0,1.4.7-5,6.2-8.8,12.7-8.8h34.9l.3,17.3h0l-.4-19.8h-34.9Z"/>
    <path class="st6" d="M72.5,31.7c-1.2,0-2.1.8-2.2,1.8,0,.4.1.7.3,1l7.2,10.1c-12.6,6.7-20.2,18.7-20.2,31.5,0,20.5,19,37.1,42.4,37.1s42.4-16.6,42.4-37.1c0-12.9-7.7-24.8-20.2-31.5l7.2-10.1c.6-.9.3-2-.6-2.6-.4-.2-.8-.3-1.2-.3-.7,0-1.4.4-1.8.9l-7.3,10.3c-5.7-2.4-12.1-3.7-18.5-3.7-6.4,0-12.7,1.3-18.5,3.7l-7.3-10.2c-.4-.5-1-.9-1.8-.9Z"/>
    <path class="st4" d="M72.5,31.7c-1.2,0-2.1.8-2.2,1.8,0,.4.1.7.3,1l.2.3c.4-.4,1-.7,1.7-.6.7,0,1.4.4,1.8.9l7.3,10.2c5.8-2.4,12.1-3.7,18.5-3.7,6.4,0,12.7,1.3,18.5,3.7l7.3-10.3c.4-.5,1-.9,1.8-.9.6,0,1.2.2,1.7.6l.2-.3c.6-.9.3-2-.6-2.6-.4-.2-.8-.3-1.2-.3-.7,0-1.4.4-1.8.9l-7.3,10.3c-5.7-2.4-12.1-3.7-18.5-3.7-6.4,0-12.7,1.3-18.5,3.7l-7.3-10.2c-.4-.5-1-.9-1.8-.9ZM123.4,45.4l-1.2,1.7c12.2,6.6,19.8,18,20.2,30.5,0-.5,0-1,0-1.5,0-12.4-7.2-24-19-30.8ZM76.6,45.4c-11.8,6.8-19,18.4-19,30.8,0,.4,0,.7,0,1.1.5-12.4,8.1-23.7,20.2-30.2l-1.2-1.7Z"/>
    <path class="st17" d="M165,152.8H48c-7.2,0-13-5.1-13.1-11.3V62.4c0,6.6,6.4,11.8,13.9,11.4h97c7.8,0,19.1-.4,19.1,12.5v66.6Z"/>
    <path class="st16" d="M84.7,56.4c-1.3,0-2.5.5-3.2,1.3-1.6,1.4-1.6,3.6,0,5,.8.7,1.8,1.1,2.9,1.1,1.1,0,2.1-.4,2.9-1,1.8-1.3,2-3.5.6-5.1-.8-.8-1.9-1.3-3.1-1.3ZM115.6,56.4c-1.1,0-2.3.4-3.1,1.1-1.7,1.4-1.7,3.8,0,5.2.8.7,1.9,1.1,3.1,1.1,2.3,0,4.2-1.6,4.2-3.7h0c0-2-1.9-3.7-4.2-3.7Z"/>
    <path class="st3" d="M115.6,61.4c-2.3,0-4.2-1.6-4.3-3.6,0-1,.4-2,1.3-2.7,1.7-1.5,4.4-1.4,6,0,.8.7,1.2,1.6,1.2,2.6,0,2-1.9,3.7-4.2,3.7"/>
    <path class="st26" d="M104.3,99.8c-3.9,0-7.1,2.7-7.1,6.1,0,3.4,3.1,6.2,6.9,6.3,1,0,2-.2,2.9-.5,3.6-1.3,5.3-4.8,3.9-8-1.1-2.4-3.7-4-6.6-3.9Z"/>
    <path class="st3" d="M84.3,61.4c-2.2,0-4.1-1.6-4.1-3.5,0-1,.4-1.9,1.2-2.6,1.4-1.5,4-1.8,5.8-.5,1.8,1.3,2,3.5.6,5.1-.2.2-.4.3-.6.5-.8.7-1.8,1-2.9,1"/>
    <path class="st14" d="M100,91c-1.6,0-2.8,1.1-2.8,2.5h0v2.7c-6.6,1.2-11.3,6.2-11.3,12.1,0,3.6,1.8,7.1,5,9.4l-26.9,49.2c-1.1,1.8-.9,4,.5,5.6,1.4,1.7,3.7,2.6,6.2,2.4,2.4-.2,4.5-1.5,5.5-3.3l18.9-33.3c.9-1.5,2.8-2.6,4.9-2.6,0,0,.1,0,.2,0,0,0,.1,0,.2,0,2.1,0,4,1,4.9,2.6l18.9,33.3c1,1.9,3.1,3.1,5.5,3.3,2.4.2,4.8-.7,6.2-2.4,1.4-1.7,1.6-3.8.5-5.6l-26.9-49.2c3.2-2.3,5-5.8,5-9.4,0-5.9-4.7-10.9-11.3-12.1v-2.7c0-1.4-1.2-2.5-2.8-2.5,0,0,0,0,0,0ZM100,100.9c4.7,0,8.5,3.3,8.5,7.4h0c0,4.1-3.8,7.4-8.5,7.4s-8.5-3.3-8.5-7.4c0-4.1,3.8-7.4,8.5-7.4Z"/>
    <path class="st2" d="M100,88.5c-1.6,0-2.8,1.1-2.8,2.5h0v2.7c-6.6,1.2-11.3,6.2-11.3,12.1,0,3.6,1.8,7.1,5,9.4l-26.9,49.2c-1.1,1.8-.9,4,.5,5.6,1.4,1.7,3.7,2.6,6.2,2.4,2.4-.2,4.5-1.5,5.5-3.3l18.9-33.3c.9-1.5,2.8-2.6,4.9-2.6,0,0,.1,0,.2,0,0,0,.1,0,.2,0,2.1,0,4,1,4.9,2.6l18.9,33.3c1,1.9,3.1,3.1,5.5,3.3,2.4.2,4.8-.7,6.2-2.4,1.4-1.7,1.6-3.8.5-5.6l-26.9-49.2c3.2-2.3,5-5.8,5-9.4,0-5.9-4.7-10.9-11.3-12.1v-2.7c0-1.4-1.2-2.5-2.8-2.5,0,0,0,0,0,0ZM100,98.4c4.7,0,8.5,3.3,8.5,7.4h0c0,4.1-3.8,7.4-8.5,7.4h0c-4.7,0-8.5-3.3-8.5-7.4h0c0-4.1,3.8-7.4,8.5-7.4Z"/>
    <path class="st16" d="M153.8,96h-5.1c-.4,0-.6.2-.6.6v73c0,.3.3.6.6.6h5.3c6.1,0,11.1-4.6,11.1-10.2v-74.5c0,5.7-5,10.7-11.2,10.6Z"/>
    <path class="st2" d="M153.8,93.5h-5.1c-.4,0-.6.2-.6.6v73c0,.3.3.6.6.6h5.3c6.1,0,11.1-4.6,11.1-10.2v-74.5c0,5.7-5,10.7-11.2,10.6Z"/>
  </g>
  <g class="st21">
    <ellipse class="st16" cx="102.7" cy="104.6" rx="79" ry="77.4"/>
    <ellipse class="st24" cx="102.7" cy="101.8" rx="79" ry="77.4"/>
    <ellipse class="st0" cx="102.7" cy="101.8" rx="67.7" ry="66.4"/>
    <ellipse class="st15" cx="102.7" cy="101.8" rx="59.2" ry="58.1"/>
    <ellipse class="st25" cx="102.7" cy="101.8" rx="50.8" ry="49.8"/>
    <path class="st10" d="M102.7,68.6c-18.7,0-33.8,14.9-33.8,33.2s15.2,33.2,33.8,33.2,33.8-14.9,33.8-33.2-15.2-33.2-33.8-33.2ZM102.7,79.7c12.5,0,22.6,9.9,22.6,22.1s-10.1,22.1-22.6,22.1-22.6-9.9-22.6-22.1,10.1-22.1,22.6-22.1Z"/>
    <ellipse class="st18" cx="83" cy="82.5" rx="14.1" ry="13.8"/>
    <ellipse class="st23" cx="125.3" cy="124" rx="11.3" ry="11.1"/>
    <ellipse class="st12" cx="108.3" cy="107.4" rx="8.5" ry="8.3"/>
    <path class="st5" d="M102.7,24.4c-43.6,0-79,34.7-79,77.4,0,.5,0,.9,0,1.4.8-42.2,35.8-76,78.9-76,42.8,0,77.8,33.4,78.9,75.4,0-.2,0-.5,0-.7,0-42.8-35.4-77.4-79-77.4Z"/>
  </g>
  <g class="st21">
    <path class="st16" d="M81.4,11.5l-7.9,12.4h55.2l-7.9-12.4h-39.5ZM13.7,42.4c-2.6,0-4.6,2-4.6,4.4v119.4c0,6.8,5.9,12.4,13.2,12.4h157.9c7.3,0,13.2-5.5,13.2-12.4V46.8c0-2.4-2-4.4-4.6-4.4H13.7Z"/>
    <path class="st1" d="M73.5,20.8l7.9-12.4h39.5l7.9,12.4h-55.3Z"/>
    <path class="st24" d="M81.4,8.4l-13.2,11.6v23.1h13.2V8.4Z"/>
    <path class="st24" d="M9.1,105.2v57.9c0,6.8,5.9,12.4,13.2,12.4h157.9c7.3,0,13.2-5.5,13.2-12.4v-57.9H9.1Z"/>
    <path class="st24" d="M120.9,8.4l13.2,11.6v23.1h-13.2V8.4Z"/>
    <path class="st22" d="M13.7,39.4h175c2.6,0,4.6,2,4.6,4.4v63.7H9.1v-63.7c0-2.4,2.1-4.4,4.6-4.4Z"/>
    <path class="st14" d="M120.9,67.2c-10.9,0-19.7,8.3-19.7,18.6s8.8,18.6,19.7,18.6,19.7-8.3,19.7-18.6-8.8-18.6-19.7-18.6ZM68.3,92c-7.3,0-13.2,5.5-13.2,12.4v12.4c0,6.8,5.9,12.4,13.2,12.4h13.2c7.3,0,13.2-5.5,13.2-12.4v-12.4c0-6.8-5.9-12.4-13.2-12.4h-13.2ZM135,113.6c-1,0-1.9.2-2.8.7l-28.3,16.1c-1.7,1-2.8,2.8-2.8,4.8s1.1,3.8,2.8,4.8l28.3,16.1c1.7,1,3.9,1,5.6,0,1.7-1,2.8-2.9,2.8-4.8v-32.1c0-2-1.1-3.8-2.8-4.8-.9-.5-1.8-.8-2.8-.8Z"/>
    <path class="st19" d="M68.3,88.9h13.2c7.3,0,13.2,5.5,13.2,12.4v12.4c0,6.8-5.9,12.4-13.2,12.4h-13.2c-7.3,0-13.2-5.5-13.2-12.4v-12.4c0-6.8,5.9-12.4,13.2-12.4Z"/>
    <path class="st11" d="M120.9,101.2c-10.9,0-19.7-8.3-19.7-18.6s8.8-18.6,19.7-18.6,19.7,8.3,19.7,18.6-8.8,18.6-19.7,18.6Z"/>
    <path class="st13" d="M132.2,111.3l-28.3,16.1c-1.7,1-2.8,2.8-2.8,4.8s1.1,3.8,2.8,4.8l28.3,16.1c1.7,1,3.9,1,5.6,0,1.7-1,2.8-2.8,2.8-4.8v-32.1c0-2-1.1-3.8-2.8-4.8-1.7-1-3.9-1-5.6,0h0Z"/>
    <path class="st4" d="M81.4,8.4l-13.2,11.6v3.1l13.2-11.6h39.5l13.2,11.6v-3.1l-13.2-11.6h-39.5Z"/>
    <path class="st4" d="M13.7,39.4c-2.6,0-4.6,2-4.6,4.4v3.1c0-2.4,2-4.4,4.6-4.4h175c2.6,0,4.6,2,4.6,4.4v-3.1c0-2.4-2-4.4-4.6-4.4H13.7Z"/>
  </g>
  <g>
    <path class="st16" d="M100.4,32c-14.6.1-29.4,4.7-40.4,13.9-5.5,4.6-10,10.4-12.9,16.9-2.9,6.5-4.2,13.6-3.5,20.7.8,8.2,4.3,15.9,8.5,23,4.7,7.8,10.4,15,17,21.3l8,13.7h44.9l10.2-14.8c5.8-6.2,11-13,15.5-20.1,4.5-7.1,8.3-14.8,9.3-23.1.9-7-.2-14.3-3.1-20.8-2.8-6.5-7.4-12.4-12.9-17-11.1-9.3-26.1-13.7-40.8-13.6Z"/>
    <path class="st16" d="M121.2,151.6v14.1c0,3.2-2.7,5.8-6,5.8,0,0,0,0,0,0h-29.4c-3.3,0-6.1-2.6-6.1-5.8,0,0,0,0,0,0v-14.1h41.5Z"/>
    <path class="st7" d="M113,127.2l-5.9,25.6"/>
    <path class="st8" d="M100.4,29.5c-14.6.1-29.4,4.7-40.4,13.9-5.5,4.6-10,10.4-12.9,16.9-2.9,6.5-4.2,13.6-3.5,20.7.8,8.2,4.3,15.9,8.5,23,4.7,7.8,10.4,15,17,21.3l8,13.7h44.9l10.2-14.8c5.8-6.2,11-13,15.5-20.1,4.5-7.1,8.3-14.8,9.3-23.1.9-7-.2-14.3-3.1-20.8-2.8-6.5-7.4-12.4-12.9-17-11.1-9.3-26.1-13.7-40.8-13.6Z"/>
    <path class="st3" d="M101.9,29.5c-20.4,3-39.9,9.5-48.5,32.2-7.8,28.2,4.5,41.8,19.9,63.6l6.9,13.7h9.4c-5.8-16.6-20.4-45.3-20.4-59.7,0-42.3,32.5-49.7,32.7-49.9ZM101.9,29.5c0,.2,9,19.7,9,49.9,0,15.9-1.3,43.4-3.5,59.7h11.9c14.4-24.9,23.8-48.6,22.9-68-.7-14.3-7-26.3-21.9-34.5-5.1-2.8-11.2-7.1-18.4-7.1h0Z"/>
    <path class="st7" d="M86.3,124.8l5.9,26.7"/>
    <path class="st7" d="M69.8,125.3l12.5,26.3"/>
    <path class="st29" d="M68.4,124.2v1.7s0,1.7,2.1,1.7h59.9c2.1,0,2.1-1.7,2.1-1.7v-1.7h-64.1Z"/>
    <path class="st7" d="M131,126l-12,25.6"/>
    <path class="st28" d="M121.2,149.1v14.1c0,3.2-2.7,5.8-6,5.8,0,0,0,0,0,0h-29.4c-3.3,0-6.1-2.6-6.1-5.8,0,0,0,0,0,0v-14.1h41.5Z"/>
    <path class="st4" d="M100.4,29.5c-14.6.1-29.4,4.6-40.4,13.9-5.5,4.6-10,10.4-12.9,16.9-2.5,5.7-3.8,11.9-3.6,18,.2-5.3,1.4-10.6,3.6-15.6,2.9-6.5,7.4-12.3,12.9-16.9,11-9.3,25.8-13.8,40.4-13.9,14.7-.1,29.7,4.3,40.8,13.6,5.5,4.7,10.1,10.5,12.9,17,2,4.7,3.2,9.7,3.3,14.8.2-5.9-1-11.8-3.3-17.3-2.8-6.5-7.4-12.4-12.9-17-11.1-9.3-26.1-13.7-40.8-13.6Z"/>
    <rect class="st4" x="79.8" y="149.1" width="41.5" height="2.5"/>
  </g>
</svg>