<?xml version="1.0" encoding="UTF-8"?>
<svg id="_图层_1" xmlns="http://www.w3.org/2000/svg" version="1.1" viewBox="0 0 64 64" width="32" height="32">
  <!-- Generator: Adobe Illustrator 29.0.1, SVG Export Plug-In . SVG Version: 2.1.0 Build 192)  -->
  <defs>
    <style>
      .st0, .st1, .st2, .st3 {
        isolation: isolate;
      }

      .st0, .st2, .st3 {
        opacity: .2;
      }

      .st0, .st4 {
        display: none;
      }

      .st5 {
        fill: #28acfe;
      }

      .st6 {
        fill: #00e655;
      }

      .st7 {
        fill: #fe004c;
      }

      .st1 {
        opacity: .1;
      }

      .st8 {
        fill: #fefe26;
      }

      .st9 {
        fill: #82759b;
      }

      .st10 {
        fill: #fdf0e8;
      }

      .st11 {
        fill: #fecba9;
      }

      .st3 {
        fill: #fff;
      }

      .st12 {
        fill: #fe76a7;
      }

      .st13 {
        fill: #2eb1b4;
      }

      .st14 {
        fill: #e4e4e4;
      }

      .st15 {
        fill: #fea200;
      }
    </style>
  </defs>
  <path class="st13" d="M47.5,64.1H13.8c-7.6,0-13.8-6.3-13.8-13.8V13.7C0,6.2,6.2,0,13.7,0h36.6c7.5,0,13.7,6.2,13.7,13.7v36.6c0,7.5-6.2,13.7-13.7,13.7h-2.9.1Z"/>
  <g class="st4">
    <path class="st0" d="M25.1,1.1v12.5h13.7V1.1h-13.7ZM38.8,13.7v12.5h12.6v-12.5h-12.6ZM51.4,26.2v13.7h12.6v-13.7h-12.6ZM51.4,39.9h-12.6v12.5h12.6v-12.5ZM38.8,52.4h-13.7v12.5h13.7v-12.5ZM25.1,52.4v-12.5h-12.6v12.5h12.6ZM12.5,39.9v-13.7H-.1v13.7h12.6ZM12.5,26.2h12.6v-12.5h-12.6v12.5Z"/>
    <rect class="st15" x="12.5" y="12.5" width="12.6" height="12.5"/>
    <rect class="st7" x="25.1" width="13.7" height="12.5"/>
    <rect class="st11" x="38.8" y="12.5" width="12.6" height="12.5"/>
    <rect class="st8" x="-.1" y="25.1" width="12.6" height="13.7"/>
    <rect class="st9" x="38.8" y="38.7" width="12.6" height="12.5"/>
    <rect class="st5" x="25.1" y="51.2" width="13.7" height="12.5"/>
    <rect class="st6" x="12.5" y="38.7" width="12.6" height="12.5"/>
    <rect class="st12" x="51.4" y="25.1" width="12.6" height="13.7"/>
    <path class="st2" d="M25.1,13.7v12.5h-12.6v13.7h12.6v12.5h13.7v-12.5h12.6v-13.7h-12.6v-12.5h-13.7Z"/>
    <path class="st10" d="M25.1,12.5v12.5h-12.6v13.7h12.6v12.5h13.7v-12.5h12.6v-13.7h-12.6v-12.5h-13.7Z"/>
    <path class="st3" d="M25.1,0v1.1h13.7V0h-13.7ZM12.5,12.5v1.1h12.6v-1.1h-12.6ZM38.8,12.5v1.1h12.6v-1.1h-12.6ZM-.1,25.1v1.1h12.6v-1.1H-.1ZM51.4,25.1v1.1h12.6v-1.1h-12.6Z"/>
  </g>
  <g>
    <path class="st2" d="M31.4,10.1c-2.8,0-5.1,2-5.1,4.5v2.1c-2.2.7-4.2,1.7-6,3.1l-2.1-1c-2.4-1.2-5.5-.5-7,1.6l-1.3,1.9c-1.4,2.1-.6,4.9,1.9,6.1l2.1,1c-.2,1-.3,2-.3,3.1,0,1,.1,2.1.3,3.1l-2.1,1c-2.4,1.2-3.3,4-1.9,6.1l1.3,1.9c1.4,2.1,4.5,2.9,7,1.6l2.1-1c1.8,1.3,3.8,2.4,6,3v2.1c0,2.5,2.3,4.5,5.1,4.5h2.5c2.8,0,5.1-2,5.1-4.5v-2.1c2.2-.7,4.2-1.7,6-3l2.1,1c2.4,1.2,5.5.5,7-1.6l1.3-1.9c1.4-2.1.6-4.9-1.9-6.1l-2.1-1c.2-1,.3-2,.3-3.1,0-1-.1-2.1-.3-3.1l2.1-1c2.4-1.2,3.3-4,1.9-6.1l-1.3-1.9c-1.4-2.1-4.5-2.9-7-1.6l-2.1,1c-1.8-1.3-3.8-2.4-6-3v-2.1c0-2.5-2.3-4.5-5.1-4.5h-2.5Z"/>
    <path class="st14" d="M31.4,9.3c-2.8,0-5.1,2-5.1,4.5v2.1c-2.2.7-4.2,1.7-6,3.1l-2.1-1c-2.4-1.2-5.5-.5-7,1.6l-1.3,1.9c-1.4,2.1-.6,4.9,1.9,6.1l2.1,1c-.2,1-.3,2-.3,3.1,0,1,.1,2.1.3,3.1l-2.1,1c-2.4,1.2-3.3,4-1.9,6.1l1.3,1.9c1.4,2.1,4.5,2.9,7,1.6l2.1-1c1.8,1.3,3.8,2.4,6,3v2.1c0,2.5,2.3,4.5,5.1,4.5h2.5c2.8,0,5.1-2,5.1-4.5v-2.1c2.2-.7,4.2-1.7,6-3l2.1,1c2.4,1.2,5.5.5,7-1.6l1.3-1.9c1.4-2.1.6-4.9-1.9-6.1l-2.1-1c.2-1,.3-2,.3-3.1,0-1-.1-2.1-.3-3.1l2.1-1c2.4-1.2,3.3-4,1.9-6.1l-1.3-1.9c-1.4-2.1-4.5-2.9-7-1.6l-2.1,1c-1.8-1.3-3.8-2.4-6-3v-2.1c0-2.5-2.3-4.5-5.1-4.5h-2.5Z"/>
    <path class="st1" d="M32.7,21.3c-7,0-12.7,5-12.7,11.2v11.9c0,0,.1,0,.2.1h.2c1.5,1.1,3.3,2,5.1,2.7v-5.5c2.1,1.3,4.7,2,7.3,2,7,0,12.7-5,12.7-11.2s-5.7-11.2-12.7-11.2ZM32.7,26.1c4,0,7.3,2.9,7.3,6.4s-3.3,6.4-7.3,6.4-7.3-2.9-7.3-6.4,3.3-6.4,7.3-6.4Z"/>
    <path class="st13" d="M32.7,20.5c-7,0-12.7,5-12.7,11.2v12.9l.3-.2c1.5,1.1,3.3,2.1,5.1,2.7v-6.3c2.1,1.3,4.7,2,7.3,2,7,0,12.7-5,12.7-11.2s-5.7-11.2-12.7-11.2ZM32.7,25.3c4,0,7.3,2.9,7.3,6.4s-3.3,6.4-7.3,6.4-7.3-2.9-7.3-6.4,3.3-6.4,7.3-6.4Z"/>
    <path class="st3" d="M31.4,9.3c-2.8,0-5.1,2-5.1,4.5v.8c0-2.5,2.3-4.5,5.1-4.5h2.5c2.8,0,5.1,2,5.1,4.5v-.8c0-2.5-2.3-4.5-5.1-4.5h-2.5ZM26.3,15.9c-2.2.7-4.2,1.7-6,3.1l-2.1-1c-2.4-1.2-5.5-.5-7,1.6l-1.3,1.9c-.5.8-.8,1.8-.7,2.7,0-.6.3-1.3.7-1.9l1.3-1.9c1.4-2.1,4.5-2.9,7-1.6l2.1,1c1.8-1.3,3.8-2.4,6-3.1v-.8ZM39,15.9v.8c2.2.7,4.3,1.7,6,3l2.1-1c2.4-1.2,5.5-.5,7,1.6l1.3,1.9c.4.6.6,1.2.7,1.9,0-.9-.1-1.8-.7-2.7l-1.3-1.9c-1.4-2.1-4.5-2.9-7-1.6l-2.1,1c-1.8-1.3-3.8-2.4-6-3ZM51.5,29.3h-.1c.2,1,.3,1.9.3,2.8,0-.1,0-.3,0-.4,0-.8,0-1.6-.2-2.3ZM13.8,29.3c-.1.8-.2,1.5-.2,2.3,0,.1,0,.2,0,.4,0-.9.1-1.8.3-2.6h-.1ZM51.5,34.8c0,.2,0,.5-.1.7l2.1,1c1.5.8,2.4,2.1,2.5,3.5.2-1.7-.8-3.4-2.5-4.3l-1.9-1ZM13.8,34.8l-1.9,1c-1.8.9-2.7,2.6-2.5,4.3.1-1.4,1-2.7,2.5-3.5l2.1-1c0-.2,0-.5-.1-.7Z"/>
  </g>
</svg>