<?xml version="1.0" encoding="UTF-8"?>
<svg id="_图层_1" xmlns="http://www.w3.org/2000/svg" version="1.1" viewBox="0 0 64 64" width="32" height="32">
  <!-- Generator: Adobe Illustrator 29.0.1, SVG Export Plug-In . SVG Version: 2.1.0 Build 192)  -->
  <defs>
    <style>
      .st0, .st1, .st2 {
        display: none;
      }

      .st0, .st3 {
        fill: #3f3f3f;
      }

      .st1, .st2, .st4, .st5 {
        isolation: isolate;
      }

      .st1, .st4 {
        opacity: .2;
      }

      .st2, .st5 {
        fill: #fff;
        opacity: .1;
      }

      .st6 {
        fill: #606060;
      }

      .st7 {
        fill: #ffb81b;
      }
    </style>
  </defs>
  <path class="st3" d="M50.4,64H13.8c-7.6,0-13.8-6.2-13.8-13.7V13.7C0,6.2,6.2,0,13.7,0h36.5c7.5,0,13.7,6.2,13.7,13.7v36.6c0,7.5-6.2,13.7-13.7,13.7h.1Z"/>
  <g>
    <path class="st1" d="M3.2,1.1h57.5c1.8,0,3.2,1.4,3.2,3.2v57.8c0,1.8-1.4,3.2-3.2,3.2H3.2c-1.8,0-3.2-1.4-3.2-3.2V4.4C0,2.6,1.4,1.1,3.2,1.1Z"/>
    <path class="st0" d="M3.2,0h57.5c1.8,0,3.2,1.4,3.2,3.2v57.8c0,1.8-1.4,3.2-3.2,3.2H3.2c-1.8,0-3.2-1.4-3.2-3.2V3.2C0,1.4,1.4,0,3.2,0Z"/>
    <path class="st4" d="M18,12.6h14.2l13.7,20.6-13.7,20.6h-14.2l13.7-20.6-13.7-20.6Z"/>
    <path class="st6" d="M18,11.5h14.2l13.7,20.6-13.7,20.6h-14.2l13.7-20.6-13.7-20.6Z"/>
    <path class="st7" d="M19.6,13.8l6.1,9.2h2.2l-.6-1.1h2.8l.6,1.1h-2.7l5.1,8h2.7l.6,1.1-5.9,9.2h-2.5l-6.1,9.2h9.1l2.2-3.4h-2.2l.7-1.1h2.2l2.9-4.6h-2.1l1-1.1h4.9l5.4-8h-5l-.6-1.1h2.1l-5-8h-2.1l-6.1-9.2h-4.6l.8,1.1h-2.4l-.7-1.1h-2.5Z"/>
    <path class="st2" d="M3.2,0C1.4,0,0,1.4,0,3.2v1.1C0,2.6,1.4,1.1,3.2,1.1h57.5c1.8,0,3.2,1.4,3.2,3.2v-1.1c0-1.8-1.4-3.2-3.2-3.2H3.2Z"/>
    <path class="st5" d="M18,11.5l.8,1.1h13.5l13.4,20.1.4-.6-13.7-20.6h-14.2ZM31.3,32.7l-13.4,20.1h.8l13-19.5-.4-.6Z"/>
  </g>
</svg>