<?xml version="1.0" encoding="UTF-8"?>
<svg id="_图层_1" xmlns="http://www.w3.org/2000/svg" version="1.1" viewBox="0 0 64 64" width="32" height="32">
  <!-- Generator: Adobe Illustrator 29.0.1, SVG Export Plug-In . SVG Version: 2.1.0 Build 192)  -->
  <defs>
    <style>
      .st0 {
        fill: #9a3cdb;
      }

      .st1 {
        fill: #e03c90;
      }

      .st2, .st3, .st4, .st5, .st6, .st7 {
        display: none;
      }

      .st2, .st8, .st9, .st6 {
        isolation: isolate;
      }

      .st2, .st9, .st6 {
        opacity: .2;
      }

      .st3 {
        fill: #ffa521;
      }

      .st10 {
        stroke-width: 3px;
      }

      .st10, .st11 {
        fill: none;
        stroke: #3f3f3f;
        stroke-linecap: round;
        stroke-linejoin: round;
      }

      .st12 {
        fill: #3f3f3f;
      }

      .st13, .st6 {
        fill: #fff;
      }

      .st4 {
        fill: #dd9f59;
      }

      .st11 {
        stroke-width: 3px;
      }

      .st8 {
        opacity: .1;
      }

      .st14 {
        fill: #296ec6;
      }

      .st15 {
        fill: #6b6b6b;
      }

      .st7, .st16 {
        fill: #e4e4e4;
      }

      .st17 {
        fill: #ff5f06;
      }
    </style>
  </defs>
  <path class="st16" d="M50.4,64H13.8c-7.6,0-13.8-6.2-13.8-13.7V13.7C0,6.2,6.2,0,13.7,0h36.5c7.5,0,13.7,6.2,13.7,13.7v36.6c0,7.5-6.2,13.7-13.7,13.7h.1Z"/>
  <g class="st5">
    <circle class="st2" cx="31.9" cy="33.2" r="31.9"/>
    <circle class="st3" cx="31.9" cy="32.1" r="31.9"/>
    <path class="st8" d="M31.9,10.2c-5.3,0-9.5,4.2-9.5,9.4h0v12.6c0,5.2,4.3,9.4,9.5,9.4h0c5.3,0,9.5-4.2,9.5-9.4h0v-12.6c0-5.2-4.3-9.4-9.5-9.4h0ZM16.2,29.2c-.9,0-1.6.7-1.6,1.6-.5,6.5,2.7,12.7,8.2,16.1,2.3,1.4,4.8,2.2,7.4,2.5v4.6h-6.2c-.9,0-1.7.7-1.7,1.7,0,.9.7,1.7,1.7,1.7,0,0,0,0,0,0h15.7c.9,0,1.7-.7,1.7-1.7s-.7-1.7-1.7-1.7c0,0,0,0,0,0h-6.2v-4.6c2.5-.2,5.1-1,7.3-2.4,5.6-3.4,8.8-9.6,8.3-16.1,0-.9-.8-1.6-1.8-1.6-.9,0-1.6.8-1.6,1.8,0,0,0,0,0,0,.4,5.2-2.2,10.2-6.7,13s-10.1,2.7-14.6,0c-4.5-2.7-7-7.8-6.6-13,0-.9-.6-1.7-1.5-1.8,0,0-.1,0-.2,0Z"/>
    <path class="st11" d="M47.6,29.9c.4,5.9-2.5,11.5-7.5,14.5-5,3-11.3,3-16.3,0-5-3.1-7.9-8.7-7.4-14.6"/>
    <rect class="st12" x="30.3" y="46.5" width="3.4" height="8"/>
    <path class="st10" d="M24.1,54.5h15.7"/>
    <path class="st13" d="M31.4,15.9c-5.3,0-5.6-.7-5.6,4.5l-3.4,10.8c0,5.2,4.3,9.4,9.5,9.4s9.5-4.2,9.5-9.4v-12.6c0-5.2-4.8-2.7-10.1-2.7Z"/>
    <path class="st17" d="M41.5,18.7c0,5.3-4.3,9.5-9.5,9.5h0c-5.3,0-9.5-4.3-9.5-9.5s4.3-9.5,9.5-9.5,9.5,4.3,9.5,9.5Z"/>
    <path class="st17" d="M25.4,16.7h3c1.7,0,3,1.4,3,3.1v10.8c0,1.7-1.3,3.1-3,3.1h-3c-1.7,0-3-1.4-3-3.1v-10.8c0-1.7,1.3-3.1,3-3.1Z"/>
    <path class="st6" d="M31.9.2C14.3.2,0,14.5,0,32.1c0,.2,0,.4,0,.7C.3,15.3,14.5,1.3,31.9,1.3c17.4,0,31.6,13.9,31.9,31.3,0-.2,0-.3,0-.5C63.9,14.5,49.6.2,31.9.2Z"/>
  </g>
  <g class="st5">
    <path class="st2" d="M3.2,1.1h57.5c1.8,0,3.2,1.4,3.2,3.2v57.6c0,1.8-1.4,3.2-3.2,3.2H3.2c-1.8,0-3.2-1.4-3.2-3.2V4.3C0,2.6,1.4,1.1,3.2,1.1Z"/>
    <path class="st4" d="M3.2,0h57.5c1.8,0,3.2,1.4,3.2,3.2v57.6c0,1.8-1.4,3.2-3.2,3.2H3.2c-1.8,0-3.2-1.4-3.2-3.2V3.2C0,1.4,1.4,0,3.2,0Z"/>
    <path class="st9" d="M57,55.2V11c0-1.7-1.4-3-3.1-3H10c-1.7,0-3.1,1.4-3.1,3v44.2c0,1.7,1.4,3,3.1,3h43.9c1.7,0,3.1-1.4,3.1-3Z"/>
    <path class="st13" d="M57,54V9.9c0-1.7-1.4-3-3.1-3H10c-1.7,0-3.1,1.4-3.1,3v44.2c0,1.7,1.4,3,3.1,3h43.9c1.7,0,3.1-1.4,3.1-3Z"/>
    <path class="st15" d="M22.9,9.1c-2.4,1.5-8.6,3.4-12.6,4.5v.4c2-.2,4.7-.5,6.6-.8v2.8h-6.6l.2,2.4h5.5c-1,3.9-3.1,5.6-5.7,8.6l.4.4c2.3-1.7,4.7-3.2,6.2-5.5v7.8h.6c1.6,0,3.1-.6,3.1-.8v-8c1.2,1.1,1.4,2.4,1.7,3.7.4.3.9.5,1.3.5.9,0,1.6-.6,1.6-1.5s-.4-2.2-4.5-3.2v-2.1h5.3c.9,0,2.4-2,2.6-2.3l-5.7-2.4-1,2.3h-1.2v-3.4c1.4-.3,2.8-.6,3.8-1,.6,0,4.1-.2,4.1-.2l-5.7-2.3Z"/>
    <path class="st15" d="M29.7,11.5v18.2c3,0,3.3-1.1,3.4-1.1v-1.1h5.8v1.7c2.5,0,3.4-.7,3.4-.8v-14.3c.7-.1,1.2-.3,1.4-.6l-2.5-2-2.5,2.2h-5.3l-3.5-2.2ZM33,16.1h5.8v9.1h-5.8v-9.1Z"/>
    <path class="st6" d="M3.2,0C1.4,0,0,1.4,0,3.2v1.1C0,2.6,1.4,1.1,3.2,1.1h57.5c1.8,0,3.2,1.4,3.2,3.2v-1.1c0-1.8-1.4-3.2-3.2-3.2H3.2Z"/>
    <path class="st15" d="M29.7,36.5v17.1h3.4v-6.9h3.6c.8,4,4.3,6.9,8.4,6.9,4.7,0,8.6-3.8,8.6-8.6h0c0-4.7-3.8-8.6-8.6-8.6h0c-4.1,0-7.6,2.9-8.4,6.9h-3.6v-6.9h-3.4ZM45.1,40c2.8,0,5.1,2.3,5.1,5.1s-2.3,5.1-5.1,5.1-5.1-2.3-5.1-5.1,2.3-5.1,5.1-5.1Z"/>
  </g>
  <g>
    <path class="st2" d="M17.8,1.1h23.8c9.8,0,17.8,8.1,17.8,18.1v24.2c0,10-8,18.1-17.8,18.1h-23.8C8,61.6,0,53.4,0,43.4v-24.2C0,9.2,8,1.1,17.8,1.1Z"/>
    <path class="st7" d="M17.8,0h23.8c9.8,0,17.8,8.1,17.8,18.1v24.2c0,10-8,18.1-17.8,18.1h-23.8C8,60.5,0,52.4,0,42.3v-24.2C0,8.1,8,0,17.8,0Z"/>
    <ellipse class="st8" cx="16.4" cy="30.8" rx="11.1" ry="11.3"/>
    <ellipse class="st14" cx="16.4" cy="29.7" rx="11.1" ry="11.3"/>
    <ellipse class="st8" cx="43" cy="30.8" rx="11.1" ry="11.3"/>
    <ellipse class="st1" cx="43" cy="29.7" rx="11.1" ry="11.3"/>
    <ellipse class="st9" cx="48.8" cy="48.6" rx="14.8" ry="15.1"/>
    <ellipse class="st0" cx="48.8" cy="47.5" rx="14.8" ry="15.1"/>
    <path class="st13" d="M48.8,38.9l-6.3,8.6h4.2v8.6h4.2v-8.6h4.2l-6.4-8.6Z"/>
    <path class="st6" d="M17.8,0C7.9,0,0,8.1,0,18.1v1.1C0,9.2,7.9,1.1,17.8,1.1h23.8c9.9,0,17.8,8.1,17.8,18.1v-1.1c0-10.1-7.9-18.1-17.8-18.1h-23.8Z"/>
  </g>
</svg>