<?xml version="1.0" encoding="UTF-8" standalone="no"?>
<svg
   id="_图层_1"
   version="1.1"
   viewBox="0 0 128 128" width="32" height="32"
   sodipodi:docname="preferences-system-time.svg"
   xml:space="preserve"
   inkscape:version="1.4 (e7c3feb100, 2024-10-09)"
   xmlns:inkscape="http://www.inkscape.org/namespaces/inkscape"
   xmlns:sodipodi="http://sodipodi.sourceforge.net/DTD/sodipodi-0.dtd"
   xmlns:xlink="http://www.w3.org/1999/xlink"
   xmlns="http://www.w3.org/2000/svg"
   xmlns:svg="http://www.w3.org/2000/svg"><sodipodi:namedview
     id="namedview9"
     pagecolor="#505050"
     bordercolor="#eeeeee"
     borderopacity="1"
     inkscape:showpageshadow="0"
     inkscape:pageopacity="0"
     inkscape:pagecheckerboard="0"
     inkscape:deskcolor="#505050"
     inkscape:zoom="3.7786019"
     inkscape:cx="64.3095"
     inkscape:cy="46.578074"
     inkscape:window-width="1920"
     inkscape:window-height="939"
     inkscape:window-x="0"
     inkscape:window-y="34"
     inkscape:window-maximized="1"
     inkscape:current-layer="_图层_1" /><!-- Generator: Adobe Illustrator 29.0.1, SVG Export Plug-In . SVG Version: 2.1.0 Build 192)  --><defs
     id="defs1"><linearGradient
       id="linearGradient1"
       inkscape:collect="always"><stop
         style="stop-color:#596872;stop-opacity:1;"
         offset="0"
         id="stop1" /><stop
         style="stop-color:#56646e;stop-opacity:0.99215686;"
         offset="0.12565887"
         id="stop4" /><stop
         style="stop-color:#505c65;stop-opacity:0.97254902;"
         offset="0.25219756"
         id="stop5" /><stop
         style="stop-color:#4d5860;stop-opacity:0.96470588;"
         offset="0.37470078"
         id="stop7" /><stop
         style="stop-color:#4a545c;stop-opacity:0.95686275;"
         offset="0.49819022"
         id="stop6" /><stop
         style="stop-color:#464f56;stop-opacity:0.94509804;"
         offset="0.61704981"
         id="stop8" /><stop
         style="stop-color:#424a51;stop-opacity:0.93333333;"
         offset="0.69297719"
         id="stop13" /><stop
         style="stop-color:#393e43;stop-opacity:0.91372549;"
         offset="0.82890278"
         id="stop12" /><stop
         style="stop-color:#34373b;stop-opacity:0.90196078;"
         offset="0.91164869"
         id="stop10" /><stop
         style="stop-color:#2e2f32;stop-opacity:0.88627452;"
         offset="1"
         id="stop3" /></linearGradient><linearGradient
       id="linearGradient9"
       inkscape:collect="always"><stop
         style="stop-color:#b5c5d0;stop-opacity:1;"
         offset="0"
         id="stop9" /><stop
         style="stop-color:#7e7f83;stop-opacity:1;"
         offset="1"
         id="stop11" /></linearGradient><style
       id="style1">
      .st0 {
        fill: #49dbd7;
      }

      .st1 {
        fill: #ed7161;
      }

      .st2 {
        fill: #e244e2;
      }

      .st3 {
        fill: #88c057;
      }

      .st4 {
        fill: #f2f2f2;
      }

      .st5 {
        fill: #282828;
      }

      .st6 {
        fill: #48a0dc;
      }

      .st7 {
        fill: #fc6;
      }

      .st8 {
        fill: #63ea99;
      }

      .st9 {
        fill: #9b7cab;
      }
    </style><linearGradient
       inkscape:collect="always"
       xlink:href="#linearGradient9"
       id="linearGradient11"
       x1="64"
       y1="-1.2032503e-06"
       x2="64"
       y2="128"
       gradientUnits="userSpaceOnUse" /><radialGradient
       inkscape:collect="always"
       xlink:href="#linearGradient1"
       id="radialGradient3"
       cx="64"
       cy="64.466782"
       fx="64"
       fy="64.466782"
       r="58.422199"
       gradientTransform="matrix(1,0,0,0.97735041,0,1.4601463)"
       gradientUnits="userSpaceOnUse" /></defs><rect
     style="opacity:1;fill:url(#linearGradient11)"
     class="st4"
     width="128"
     height="128"
     rx="28.5"
     ry="28.5"
     id="rect1" /><path
     d="m 64.000002,7.3678162 c 32.266837,0 58.422198,25.5629588 58.422198,57.0989638 0,31.536008 -26.155361,57.09896 -58.422198,57.09896 -32.266837,0 -58.422204,-25.562952 -58.422204,-57.09896 0,-31.536005 26.155367,-57.0989638 58.422204,-57.0989638 z m 0,23.8549548 a 0.60962299,0.59581527 0 0 0 -0.609623,0.595815 v 29.837932 l -0.01525,0.134058 c -1.066839,0.238326 -1.899992,1.067503 -2.123519,2.115144 l -39.041273,0.01985 a 7.9174786,7.7381507 0 0 0 -0.26163,-2.135005 3.7237805,3.6394383 0 0 0 -0.706147,-1.362928 2.4334117,2.3782959 0 0 0 -1.038899,-0.705048 3.7847428,3.6990198 0 0 0 -2.532475,0.01985 2.8423672,2.7779887 0 0 0 -1.643442,1.588841 c -0.152406,0.372385 -0.22861,0.782008 -0.22861,1.231352 a 4.109875,4.0167879 0 0 0 0.23369,1.372857 h -5.385003 a 0.56136162,0.548647 0 0 0 0,1.097294 l 6.154652,-0.005 c 0.210828,0.173779 0.449597,0.312803 0.721387,0.422035 0.375934,0.156401 0.807751,0.233361 1.292908,0.233361 a 2.4613528,2.4056041 0 0 0 1.709485,-0.652945 h 0.492779 c -0.0762,0.916066 -0.254009,1.618632 -0.546121,2.107696 a 1.7069444,1.6682827 0 0 1 -1.574859,0.888759 1.9076119,1.8644052 0 0 1 -1.186225,-0.369902 1.4580149,1.4249915 0 0 1 -0.566441,-1.052608 h -1.143043 c 0.07113,0.806833 0.370854,1.410097 0.901733,1.804825 0.52834,0.394727 1.193846,0.590849 1.993976,0.590849 1.158283,0 2.001596,-0.431966 2.524855,-1.295898 0.406415,-0.670292 0.655345,-1.561533 0.749328,-2.678686 l 39.074294,-0.02234 c 0.213367,1.052607 1.04144,1.886748 2.10574,2.135004 l -0.165106,37.521457 a 2.5096146,2.4527728 0 0 0 -0.602003,0.27309 3.2183013,3.1454081 0 0 0 -1.077001,1.11715 5.1894157,5.0718775 0 0 0 -0.574062,1.60125 10.602361,10.362221 0 0 0 -0.0508,3.39119 c 0.0762,0.5263 0.228609,1.0104 0.462297,1.44982 0.23369,0.43693 0.566442,0.7969 0.998258,1.07991 0.431814,0.28053 1.000796,0.42203 1.709482,0.42203 0.602003,0 1.107482,-0.0993 1.516437,-0.29791 a 2.8449072,2.7804712 0 0 0 1.516438,-1.75765 c 0.106683,-0.3699 0.162566,-0.72491 0.162566,-1.06751 0,-0.42948 -0.06859,-0.82916 -0.203209,-1.19907 a 2.969372,2.9021169 0 0 0 -0.571521,-0.96076 2.5654969,2.5073893 0 0 0 -0.916974,-0.63801 3.0785962,3.0088671 0 0 0 -1.234486,-0.23088 l 0.314971,0.0124 0.01524,-2.31375 c 0.187968,0.0373 0.355614,0.10675 0.502939,0.20108 l 0.177808,0.13906 c 0.279409,0.25321 0.444517,0.59085 0.500398,1.01288 h 1.143043 c -0.07113,-0.77207 -0.340372,-1.36293 -0.80775,-1.77006 -0.467377,-0.40963 -1.094782,-0.6132 -1.884751,-0.6132 l 0.365774,0.0149 0.167646,-37.437047 c 0.871252,-0.258187 1.564699,-0.918549 1.849189,-1.76262 l 0.08636,-0.327698 h 2.463892 a 0.56263189,0.5498885 0 0 0 0,-1.099777 h -2.468973 a 2.811886,2.7481979 0 0 0 -1.907614,-2.05308 v -0.04469 a 0.72646737,0.71001316 0 0 0 -0.228609,-0.521339 l -0.0025,-29.465547 a 0.60962299,0.59581527 0 0 0 -0.609623,-0.595815 z m 0.957616,77.778719 a 1.7933076,1.7526899 0 0 1 0.962697,1.12709 c 0.0762,0.26066 0.114304,0.53374 0.114304,0.8242 0,0.27308 -0.04318,0.53376 -0.127005,0.7845 a 2.1235202,2.0754233 0 0 1 -0.370855,0.66284 1.7018641,1.6633176 0 0 1 -0.599461,0.45431 1.9228524,1.8793006 0 0 1 -0.828072,0.16633 2.014296,1.9686729 0 0 1 -0.843312,-0.16633 1.8136284,1.7725504 0 0 1 -1.003338,-1.0973 2.730603,2.6687558 0 0 1 -0.0076,-1.63849 1.8415695,1.7998587 0 0 1 0.909355,-1.07495 l -0.0025,2.00343 c -0.0025,0.39473 0.325132,0.71498 0.729007,0.71498 a 0.73662782,0.71994347 0 0 0 0.734088,-0.71498 l 0.0127,-2.15487 a 1.6612226,1.6235966 0 0 1 0.320052,0.11172 z m -1.778067,-3.23975 -0.0076,2.27651 -0.228608,0.0968 a 2.3445085,2.2914062 0 0 0 -0.835692,0.69015 l -0.167647,0.24329 -0.02794,-0.0249 c 0.0076,-0.35998 0.04572,-0.74477 0.106684,-1.15936 0.0635,-0.41211 0.177807,-0.79442 0.345454,-1.15191 a 2.4359519,2.3807786 0 0 1 0.81537,-0.9682 z m 26.985978,-7.676088 h -4.714418 l -0.889033,4.845968 0.983017,0.0546 a 2.8195063,2.7556456 0 0 1 0.774729,-0.64051 1.9939753,1.9488125 0 0 1 1.003337,-0.24328 c 0.322593,0 0.617244,0.0522 0.883953,0.15888 a 1.9812748,1.9363996 0 0 1 1.117643,1.11218 c 0.101604,0.25818 0.152406,0.54369 0.152406,0.84904 0,0.3699 -0.0508,0.69263 -0.160025,0.9682 a 2.0320767,1.986051 0 0 1 -0.436898,0.69263 1.7806072,1.7402771 0 0 1 -0.647724,0.41459 2.3216477,2.2690632 0 0 1 -1.562159,0.0124 1.7958478,1.7551725 0 0 1 -1.219246,-1.56153 h -1.145583 c 0.0076,0.42204 0.09399,0.79938 0.254009,1.13452 0.162566,0.33266 0.383555,0.61072 0.660425,0.83664 0.279412,0.22342 0.602003,0.39472 0.965237,0.5114 0.363234,0.11916 0.751868,0.17874 1.165904,0.17874 0.556281,0 1.041439,-0.0844 1.460555,-0.2557 a 2.9465112,2.8797738 0 0 0 1.671383,-1.68566 c 0.139705,-0.37238 0.208288,-0.75718 0.208288,-1.15439 a 3.8863466,3.7983223 0 0 0 -0.24131,-1.40017 2.9211102,2.8549481 0 0 0 -0.660424,-1.00296 2.6594803,2.5992441 0 0 0 -0.983017,-0.59829 3.5383534,3.458211 0 0 0 -1.201466,-0.19861 c -0.322591,0 -0.647725,0.057 -0.975397,0.16634 a 1.8415695,1.7998587 0 0 0 -0.802669,0.50644 l -0.0254,-0.0249 0.510559,-2.68861 h 3.853326 z m -46.633619,0 h -6.182594 v 1.055092 h 5.01161 a 14.58015,14.249916 0 0 0 -2.560416,3.654336 c -0.330213,0.68766 -0.604544,1.40762 -0.812832,2.15983 a 11.880028,11.61095 0 0 0 -0.398795,2.30879 h 1.280209 c 0.04318,-0.7274 0.170186,-1.47713 0.375933,-2.24921 a 15.367579,15.019509 0 0 1 1.927933,-4.30725 c 0.421657,-0.6405 0.876334,-1.191629 1.358952,-1.658346 z M 23.510875,82.564669 c -0.368314,0 -0.721387,0.05213 -1.05922,0.158884 -0.335293,0.104268 -0.635023,0.258186 -0.894113,0.459274 a 2.2708456,2.2194118 0 0 0 -0.619784,0.744769 2.2784659,2.2268596 0 0 0 -0.228608,1.020334 c 0,0.422035 0.119384,0.809315 0.363233,1.166805 a 2.0600177,2.013359 0 0 0 0.970316,0.769594 2.4232514,2.3683657 0 0 0 -1.239566,0.888758 2.5400958,2.4825636 0 0 0 -0.431817,1.439887 c 0,0.476652 0.08382,0.891241 0.24893,1.246247 a 2.5299354,2.4726333 0 0 0 0.685826,0.888758 c 0.294651,0.238326 0.635023,0.412105 1.031278,0.526304 a 4.4985096,4.3966201 0 0 0 2.519776,-0.01241 2.6874214,2.6265523 0 0 0 1.676463,-1.434922 2.9211102,2.8549481 0 0 0 0.25147,-1.211491 c 0,-0.58092 -0.139706,-1.067502 -0.419117,-1.469678 a 2.3191074,2.2665805 0 0 0 -1.280207,-0.861452 2.2175037,2.167278 0 0 0 0.965235,-0.78449 2.0701781,2.0232894 0 0 0 0.355614,-1.151909 c 0,-0.297908 -0.0508,-0.590851 -0.160027,-0.876345 a 2.1489211,2.1002488 0 0 0 -0.508018,-0.762148 2.491834,2.4353949 0 0 0 -0.894114,-0.541198 3.7822025,3.6965371 0 0 0 -1.33355,-0.203571 z m 82.809665,0 h -0.91444 l -4.35372,6.069868 v 1.079915 h 4.19116 v 2.187138 h 1.077 v -2.184655 h 1.29544 v -0.988061 h -1.29544 z m -82.715682,4.915476 a 2.0473172,2.0009463 0 0 1 1.386892,0.513891 1.778067,1.7377945 0 0 1 0.424196,0.558577 1.8949116,1.8519925 0 0 1 0.0127,1.429956 1.7145647,1.6757304 0 0 1 -0.401336,0.570989 1.9152322,1.8718529 0 0 1 -0.619779,0.382316 2.1209799,2.0729406 0 0 1 -0.78743,0.139023 2.1641617,2.1151442 0 0 1 -1.463095,-0.481618 c -0.381015,-0.32025 -0.574063,-0.762146 -0.574063,-1.323206 a 1.7171047,1.678213 0 0 1 0.584223,-1.303345 1.9177724,1.8743356 0 0 1 0.650264,-0.362455 c 0.24639,-0.08441 0.50802,-0.124128 0.78743,-0.124128 z m 81.638682,-3.319188 v 4.567917 h -3.20815 l 3.1802,-4.567917 h 0.0254 z M 23.592159,83.555212 c 0.467377,0 0.850931,0.121645 1.150662,0.362453 0.302272,0.24081 0.452137,0.598299 0.452137,1.072468 0,0.474171 -0.147324,0.844072 -0.444516,1.107224 a 1.618041,1.581393 0 0 1 -1.132884,0.394727 2.2556051,2.2045164 0 0 1 -0.660424,-0.09186 1.5443783,1.5093988 0 0 1 -0.5385,-0.278048 1.3411706,1.3107936 0 0 1 -0.363234,-0.466721 1.6002603,1.5640151 0 0 1 -0.134625,-0.665328 1.3995929,1.3678926 0 0 1 0.492779,-1.067501 1.4732555,1.4398869 0 0 1 0.533419,-0.275565 2.2098834,2.1598304 0 0 1 0.645186,-0.09186 z M 109.84619,59.523996 c -0.475,0 -0.89412,0.07448 -1.25989,0.223431 a 2.5096146,2.4527728 0 0 0 -0.90936,0.618158 2.7941055,2.73082 0 0 0 -0.55881,0.948339 c -0.12955,0.36742 -0.20322,0.777043 -0.22099,1.223905 h 1.14305 c 0,-0.273082 0.0381,-0.531269 0.10921,-0.777043 a 1.8999916,1.8569575 0 0 1 0.33021,-0.645467 1.6078806,1.5714627 0 0 1 0.56645,-0.441896 1.8009279,1.7601375 0 0 1 0.80013,-0.163849 c 0.48515,0 0.88903,0.124128 1.21416,0.374867 0.32259,0.250739 0.48262,0.625606 0.48262,1.127084 a 1.4224538,1.3902357 0 0 1 -0.54611,1.139497 1.7679067,1.7278642 0 0 1 -0.57661,0.287977 2.3572088,2.3038189 0 0 1 -0.69345,0.0993 h -0.37847 a 0.62486357,0.61071064 0 0 1 -0.12192,-0.01241 v 0.948336 c 0.21591,-0.02483 0.44704,-0.03973 0.68837,-0.03973 0.28702,0 0.55373,0.03724 0.80266,0.111715 0.24639,0.07448 0.45721,0.188675 0.6401,0.342593 a 1.7475858,1.7080037 0 0 1 0.59185,1.335621 1.7374256,1.6980735 0 0 1 -0.61979,1.323206 2.0473172,2.0009463 0 0 1 -0.66042,0.357489 2.4562726,2.4006389 0 0 1 -0.79505,0.124128 c -0.65535,0 -1.15321,-0.191158 -1.49613,-0.57099 a 2.329268,2.2765109 0 0 1 -0.53849,-1.48457 h -1.14304 c -0.0102,0.484101 0.0584,0.913583 0.20575,1.290933 0.14986,0.377351 0.36322,0.695118 0.6401,0.955787 0.2794,0.258187 0.61724,0.454309 1.01095,0.585885 0.39626,0.131577 0.83824,0.198606 1.32086,0.198606 0.44959,0 0.87379,-0.05958 1.27258,-0.178744 0.40133,-0.119164 0.74934,-0.297908 1.04399,-0.533753 0.29719,-0.235843 0.53342,-0.533751 0.70869,-0.888757 a 2.8703083,2.805297 0 0 0 0.26162,-1.231351 c 0,-0.561061 -0.1397,-1.050126 -0.4242,-1.462231 -0.28195,-0.412105 -0.71631,-0.680222 -1.30052,-0.801868 v -0.02483 a 2.4130911,2.3584354 0 0 0 0.94491,-0.739804 1.8466496,1.8048237 0 0 0 0.37594,-1.117154 c 0,-0.431965 -0.0736,-0.80435 -0.22099,-1.122119 a 2.1260601,2.0779057 0 0 0 -0.6147,-0.777041 2.6671006,2.6066918 0 0 0 -0.92206,-0.45431 c -0.35561,-0.0993 -0.73662,-0.148954 -1.1532,-0.148954 z m -90.96083,0.985578 a 1.7856873,1.7452421 0 0 1 1.463095,0.638018 c 0.162567,0.198606 0.289572,0.422036 0.375934,0.67774 a 2.6671006,2.6066918 0 0 1 -0.0076,1.601254 2.0523974,2.0059114 0 0 1 -0.26671,0.506443 l -3.035414,-0.0025 -0.0254,-0.03228 a 2.1844825,2.1350047 0 0 1 -0.378474,-1.176736 c 0,-0.290459 0.03302,-0.566024 0.101603,-0.829175 a 2.1489211,2.1002488 0 0 1 0.322593,-0.705048 1.6205811,1.5838756 0 0 1 0.579143,-0.494031 1.8415695,1.7998587 0 0 1 0.871251,-0.183709 z m 8.438199,-21.83663 c -0.492779,0 -0.916975,0.06952 -1.272589,0.208535 a 2.5146948,2.4577379 0 0 0 -1.435154,1.397685 5.4180244,5.2953082 0 0 0 -0.309891,1.000472 7.4272402,7.259016 0 0 0 -0.134625,1.079915 22.972626,22.452305 0 0 0 0,2.135005 c 0.01779,0.367419 0.0635,0.727391 0.134625,1.077432 0.07113,0.352525 0.175266,0.682705 0.309891,0.993026 0.134626,0.312803 0.320052,0.588368 0.553742,0.824211 0.231148,0.238326 0.5258,0.422036 0.881412,0.56106 0.355614,0.134058 0.77981,0.203569 1.272589,0.203569 0.502938,0 0.929675,-0.06952 1.280208,-0.203569 a 2.4537326,2.3981565 0 0 0 0.876333,-0.56106 c 0.233689,-0.235843 0.416576,-0.511408 0.551201,-0.821729 0.137166,-0.312803 0.238768,-0.645466 0.309891,-0.993024 a 7.4170797,7.2490856 0 0 0 0.134625,-1.082399 22.886264,22.367898 0 0 0 0,-2.135004 7.4170797,7.2490856 0 0 0 -0.134625,-1.077433 5.4180244,5.2953082 0 0 0 -0.309891,-1.000472 2.5146948,2.4577379 0 0 0 -1.435154,-1.395202 3.3859477,3.3092572 0 0 0 -1.270048,-0.211018 z m 75.895511,0 c -0.50294,0 -0.95253,0.08192 -1.34625,0.248257 a 2.7509237,2.6886164 0 0 0 -1.57739,1.737794 3.8609456,3.7734967 0 0 0 -0.14986,1.315759 h 1.14557 a 3.2411622,3.1677511 0 0 1 0.0889,-0.834141 2.2784659,2.2268596 0 0 1 0.3302,-0.74477 1.6663029,1.6285618 0 0 1 1.44278,-0.737321 c 0.24892,0 0.48769,0.03973 0.71123,0.119163 a 1.7120246,1.6732479 0 0 1 0.98301,0.876345 1.6485221,1.6111838 0 0 1 0.14987,0.690153 c 0,0.325216 -0.0507,0.610711 -0.15495,0.856485 a 2.3013268,2.2492026 0 0 1 -0.45722,0.685187 c -0.2032,0.211018 -0.45722,0.419553 -0.76203,0.625606 -0.30481,0.206052 -0.66042,0.431966 -1.06684,0.67774 -0.3302,0.19364 -0.65025,0.399692 -0.95507,0.62064 -0.30481,0.218466 -0.57914,0.471688 -0.82046,0.762147 a 3.8736461,3.7859094 0 0 0 -0.602,1.020334 5.0725714,4.9576796 0 0 0 -0.302265,1.415061 h 6.238475 v -0.985578 h -4.90239 a 1.8110883,1.7700679 0 0 1 0.34292,-0.769594 c 0.17527,-0.225913 0.38609,-0.434449 0.63248,-0.628089 0.24639,-0.19364 0.51818,-0.372384 0.81283,-0.546164 0.29719,-0.171297 0.59439,-0.345075 0.88903,-0.521338 0.29974,-0.18371 0.58423,-0.374867 0.86363,-0.578438 0.27941,-0.201087 0.5258,-0.427 0.74171,-0.67774 a 2.9769923,2.9095646 0 0 0 0.71377,-1.941363 c 0,-0.439414 -0.0762,-0.826694 -0.23622,-1.159358 a 2.4511925,2.395674 0 0 0 -0.64011,-0.836624 c -0.26926,-0.22343 -0.58422,-0.39721 -0.95,-0.513891 a 3.6628183,3.5798568 0 0 0 -1.16337,-0.178744 z m -82.334654,0 h -0.878874 a 1.8898312,1.8470273 0 0 1 -0.977936,1.410096 c -0.246389,0.129094 -0.52326,0.218466 -0.828072,0.268117 -0.304812,0.04965 -0.619783,0.07447 -0.942375,0.07447 v 0.893723 h 2.479133 v 6.688026 h 1.143044 v -9.334439 z m 6.439143,0.985578 c 0.325132,0 0.596923,0.06207 0.82299,0.186193 0.223529,0.124127 0.411496,0.283011 0.558822,0.479135 0.147325,0.198604 0.261629,0.429482 0.337832,0.692635 a 6.309598,6.166688 0 0 1 0.24131,1.638492 l 0.0076,0.757181 c 0,0.352525 -0.0127,0.744769 -0.03555,1.179218 -0.02032,0.434448 -0.09399,0.844071 -0.213367,1.223903 a 2.3673694,2.3137494 0 0 1 -0.586762,0.9682 c -0.269253,0.263153 -0.647728,0.397211 -1.132887,0.397211 -0.482618,0 -0.863633,-0.134058 -1.130343,-0.397211 a 2.3673694,2.3137494 0 0 1 -0.586762,-0.9682 5.0776514,4.9626445 0 0 1 -0.215907,-1.223903 24.105509,23.559529 0 0 1 -0.02541,-1.936399 6.7541147,6.6011365 0 0 1 0.241308,-1.638492 2.1971828,2.1474174 0 0 1 0.337834,-0.692635 1.7348855,1.695591 0 0 1 0.558823,-0.479135 1.6586827,1.6211141 0 0 1 0.820452,-0.186193 z m 60.18503,-17.447458 h -0.876334 a 1.8898312,1.8470273 0 0 1 -0.977937,1.410096 c -0.246388,0.129093 -0.523259,0.220949 -0.82807,0.268117 -0.304812,0.04964 -0.619785,0.07447 -0.942376,0.07447 v 0.893723 h 2.479134 v 6.69051 h 1.143042 v -9.339406 z m -41.167333,0 h -0.876333 a 1.8898312,1.8470273 0 0 1 -0.977936,1.410096 c -0.246391,0.131577 -0.523261,0.220949 -0.828073,0.268117 -0.304811,0.04964 -0.619782,0.07447 -0.942374,0.07447 v 0.893723 h 2.479133 v 6.69051 h 1.143044 v -9.339406 z m -7.493282,0 h -0.876333 a 1.8898312,1.8470273 0 0 1 -0.977937,1.410096 c -0.24385,0.131577 -0.52072,0.220949 -0.825532,0.268117 -0.304812,0.04964 -0.619783,0.07447 -0.944915,0.07447 v 0.893723 h 2.479133 v 6.69051 h 1.145584 V 22.208581 Z M 67.66536,15.627306 c -0.502938,0 -0.952535,0.08192 -1.346251,0.248255 a 2.7509237,2.6886164 0 0 0 -1.577398,1.737796 3.8609456,3.7734967 0 0 0 -0.147326,1.31824 h 1.143042 a 3.2411622,3.1677511 0 0 1 0.0889,-0.836624 2.2784659,2.2268596 0 0 1 0.330212,-0.744769 1.6663029,1.6285618 0 0 1 1.442775,-0.737321 c 0.248929,0 0.487699,0.03973 0.711226,0.119163 a 1.7120246,1.6732479 0 0 1 0.985561,0.876345 1.6485221,1.6111838 0 0 1 0.147326,0.690153 c 0,0.325216 -0.0508,0.610711 -0.152406,0.856484 a 2.3013268,2.2492026 0 0 1 -0.459758,0.685188 c -0.203207,0.211018 -0.457217,0.419553 -0.762028,0.625606 -0.304811,0.206052 -0.660425,0.431966 -1.0643,0.67774 -0.330213,0.19364 -0.650265,0.399692 -0.957617,0.620641 -0.304812,0.218465 -0.579142,0.471686 -0.820451,0.762147 a 3.8736461,3.7859094 0 0 0 -0.599462,1.020333 5.0725714,4.9576796 0 0 0 -0.304811,1.415061 h 6.238475 v -0.985577 h -4.902385 a 1.8110883,1.7700679 0 0 1 0.342912,-0.769595 c 0.175267,-0.223431 0.386095,-0.434448 0.635025,-0.628089 0.243849,-0.191157 0.515639,-0.372384 0.81283,-0.546163 0.297191,-0.171297 0.591843,-0.342594 0.889034,-0.521338 0.297191,-0.181228 0.584222,-0.374868 0.863632,-0.578439 0.279411,-0.198604 0.5258,-0.427 0.739167,-0.677739 a 2.9769923,2.9095646 0 0 0 0.713769,-1.941365 c 0,-0.439413 -0.0762,-0.826694 -0.23369,-1.159357 a 2.4511925,2.395674 0 0 0 -0.640104,-0.836624 c -0.26925,-0.223431 -0.586762,-0.394728 -0.949996,-0.51389 a 3.6628183,3.5798568 0 0 0 -1.168444,-0.176262 z m -6.360399,0 h -0.876334 a 1.8898312,1.8470273 0 0 1 -0.977937,1.410095 c -0.243849,0.129094 -0.52072,0.220949 -0.825531,0.268117 -0.304812,0.04964 -0.619783,0.07448 -0.944916,0.07448 v 0.893722 h 2.479134 v 6.69051 h 1.145584 v -9.339405 z"
     fill="#000000"
     p-id="10810"
     id="path1"
     style="stroke-width:0.117711;fill:url(#radialGradient3)" /></svg>
