<?xml version="1.0" encoding="UTF-8"?>
<svg id="_图层_1" xmlns="http://www.w3.org/2000/svg" version="1.1" viewBox="0 0 64 64" width="32" height="32">
  <!-- Generator: Adobe Illustrator 29.0.1, SVG Export Plug-In . SVG Version: 2.1.0 Build 192)  -->
  <defs>
    <style>
      .st0, .st1 {
        fill: #fecd38;
      }

      .st2, .st1, .st3 {
        display: none;
      }

      .st2, .st3 {
        isolation: isolate;
        opacity: .2;
      }

      .st4 {
        fill: #333;
      }

      .st3 {
        fill: #fff;
      }
    </style>
  </defs>
  <path class="st0" d="M50.3,64H13.9C6.3,64,.2,57.8.2,50.3V13.8C.2,6.2,6.3,0,13.9,0h36.5c7.5,0,13.7,6.2,13.7,13.7v36.5c0,7.5-6.1,13.7-13.7,13.7h0Z"/>
  <g>
    <rect class="st1" x="3.4" y="4" width="56" height="56" rx="2.8" ry="2.8"/>
    <path class="st4" d="M26.4,14c-2.8,0-5,2.2-5,5s2.2,5,5,5,5-2.2,5-5-2.2-5-5-5ZM22.4,26c-.8,0-1.5.5-1.8,1.2l-5,10c-1.1,2.5,2.7,4.1,3.7,1.5l2.2-5.3v.6c0,0,0,14,0,14,0,1.1.9,2,2,2h0c1.1,0,2-.9,2-2v-8s2,0,2,0v8c0,1.1.9,2,2,2s2-.9,2-2v-14s0-.6,0-.6l2.2,5.4c.4,1.1,1.8,1.6,2.9,1l3.1-.2c0,.1,0,.3,0,.4v9c0,.6.4,1,1,1s1-.4,1-1v-5s2,0,2,0v5c0,.6.5,1,1,1s1-.4,1-1v-7.6l2.3,2.3c.9,1,2.4-.5,1.4-1.4l-4-4c-.2-.2-.4-.3-.7-.3h-7c0-.2,0-.5-.2-.8l-5-10c-.3-.7-1-1.2-1.8-1.2h-8ZM42.4,29.5c-1.9,0-3.5,1.6-3.5,3.5s1.6,3.5,3.5,3.5,3.5-1.6,3.5-3.5-1.6-3.5-3.5-3.5Z"/>
    <path class="st3" d="M6.2,4c-1.6,0-2.8,1.2-2.8,2.8v1c0-1.6,1.2-2.8,2.8-2.8h50.4c1.5,0,2.8,1.2,2.8,2.8v-1c0-1.6-1.3-2.8-2.8-2.8H6.2Z"/>
    <path class="st2" d="M3.4,57.2v1c0,1.5,1.2,2.8,2.8,2.8h50.4c1.5,0,2.8-1.3,2.8-2.8v-1c0,1.5-1.3,2.8-2.8,2.8H6.2c-1.6,0-2.8-1.3-2.8-2.8Z"/>
  </g>
</svg>