<?xml version="1.0" encoding="UTF-8"?>
<svg id="_图层_1" xmlns="http://www.w3.org/2000/svg" version="1.1" viewBox="0 0 64 64" width="32" height="32">
  <!-- Generator: Adobe Illustrator 29.0.1, SVG Export Plug-In . SVG Version: 2.1.0 Build 192)  -->
  <defs>
    <style>
      .st0, .st1, .st2, .st3, .st4, .st5, .st6, .st7, .st8, .st9, .st10 {
        isolation: isolate;
      }

      .st0, .st11, .st5 {
        fill: #f9f9f9;
      }

      .st0, .st3, .st10 {
        opacity: .1;
      }

      .st12 {
        fill: #4f4f4f;
      }

      .st13 {
        fill: #e7d324;
      }

      .st1, .st2, .st14, .st4, .st5, .st6, .st7, .st8, .st9 {
        opacity: .2;
      }

      .st1, .st15, .st16, .st17, .st9, .st18 {
        display: none;
      }

      .st2, .st4 {
        fill-rule: evenodd;
      }

      .st19 {
        fill: #c033e3;
      }

      .st20 {
        fill: #f58411;
      }

      .st21, .st4, .st8, .st9, .st10 {
        fill: #fff;
      }

      .st22 {
        fill: #80809d;
      }

      .st23 {
        fill: #007f0e;
      }

      .st24 {
        fill: #45c034;
      }

      .st25, .st16 {
        fill: #4ab367;
      }

      .st26 {
        fill: #ff7d27;
      }

      .st27 {
        fill: #3266b4;
      }

      .st28 {
        stroke: #d6d5cd;
      }

      .st28, .st7 {
        stroke-width: 3px;
      }

      .st28, .st7, .st29 {
        fill: none;
      }

      .st15 {
        fill: #8e8e8e;
      }

      .st30 {
        fill: #ddd;
      }

      .st31 {
        fill: #333;
      }

      .st7 {
        stroke: #000;
      }

      .st29 {
        stroke: #4a2507;
        stroke-linecap: round;
        stroke-linejoin: round;
        stroke-width: 4px;
      }

      .st32 {
        fill: #9e9c89;
      }

      .st33 {
        fill: #8b5a3a;
      }

      .st18 {
        fill: #e4e4e4;
      }

      .st34 {
        fill: #f24040;
      }
    </style>
  </defs>
  <path class="st25" d="M50.4,64H13.8c-7.6,0-13.8-6.2-13.8-13.7V13.7C0,6.2,6.2,0,13.7,0h36.6c7.5,0,13.7,6.2,13.7,13.7v36.6c0,7.5-6.2,13.7-13.7,13.7h.1Z"/>
  <g class="st17">
    <rect class="st24" x="35.6" y="7.6" width="4.7" height="47.8"/>
    <rect class="st13" x="30.9" y="7.6" width="4.7" height="47.8"/>
    <rect class="st19" x="45" y="7.6" width="4.7" height="47.8"/>
    <rect class="st27" x="40.3" y="7.6" width="4.7" height="47.8"/>
    <rect class="st33" x="16.9" y="7.6" width="4.7" height="47.8"/>
    <rect class="st12" x="12.2" y="7.6" width="4.7" height="47.8"/>
    <rect class="st26" x="26.2" y="7.6" width="4.7" height="47.8"/>
    <rect class="st34" x="21.5" y="7.6" width="4.7" height="47.8"/>
    <rect class="st22" x="49.6" y="7.6" width="4.7" height="47.8"/>
    <path class="st6" d="M11,37.1h44.5c1.9,0,3.5,1.7,3.5,3.8v12.6c0,2.1-1.6,3.8-3.5,3.8H11c-1.9,0-3.5-1.7-3.5-3.8v-12.6c0-2.1,1.6-3.8,3.5-3.8Z"/>
    <path class="st32" d="M11,36.1h44.5c1.9,0,3.5,1.7,3.5,3.8v12.6c0,2.1-1.6,3.8-3.5,3.8H11c-1.9,0-3.5-1.7-3.5-3.8v-12.6c0-2.1,1.6-3.8,3.5-3.8Z"/>
    <path class="st7" d="M14,53.2h5.2v-12h15v12h6.6v-12h6.6v12h5.2"/>
    <path class="st28" d="M14,52.2h5.2v-12h15v12h6.6v-12h6.6v12h5.2"/>
    <path class="st5" d="M11,36.1c-1.9,0-3.5,1.7-3.5,3.8v.9c0-2.1,1.6-3.8,3.5-3.8h44.5c1.9,0,3.5,1.7,3.5,3.8v-.9c0-2.1-1.6-3.8-3.5-3.8H11Z"/>
    <rect class="st0" x="12.2" y="7.6" width="42.2" height=".9"/>
  </g>
  <g class="st17">
    <path class="st2" d="M37.4,11.2c-.4,0-.7,0-1.1,0-.4,0-.6.2-.9.7-.3.5-.6,1.4-.8,2.3-.4,1.8-.3,3.6-.3,3.6,0,.9-.7,1.7-1.6,1.7-.8,0-1.5-.6-1.7-1.4,0,.9,0,1.4,0,1.4,0,.9.8,1.6,1.7,1.6.9,0,1.6-.8,1.6-1.7,0,0,0,0,0,0,0,0,0-1.8.3-3.6.2-.9.5-1.7.8-2.3.3-.5.5-.7.9-.7,3.1-.3,5.3,1.3,5.3,1.3.7.6,1.8.4,2.3-.3.4-.5.5-1.2.1-1.8-.5.8-1.5,1.1-2.3.6,0,0-.1,0-.2-.1,0,0-1.7-1.3-4.2-1.4h0Z"/>
    <path class="st20" d="M26.8,15.4l5.8,3.3,5.8-3.3c9.7,0,17.5,7.9,17.5,17.6v4.7c0,9.8-7.8,17.6-17.5,17.6l-5.8-1.7-5.8,1.7c-9.7,0-17.5-7.9-17.5-17.6v-4.7c0-9.8,7.8-17.6,17.5-17.6h0Z"/>
    <path class="st8" d="M26.8,15.4c-9.7,0-17.5,7.9-17.5,17.6v.8c0-9.8,7.8-17.6,17.5-17.6l5.8,3.3,5.8-3.3c9.7,0,17.5,7.9,17.5,17.6v-.8c0-9.8-7.8-17.6-17.5-17.6l-5.8,3.3-5.8-3.3Z"/>
    <path class="st29" d="M32.6,18.7s-.3-7.9,3.5-8.3c3.8-.4,6.5,1.7,6.5,1.7"/>
    <path class="st6" d="M9.3,37.7v.8c0,9.8,7.8,17.6,17.5,17.6l5.8-1.7,5.8,1.7c9.7,0,17.5-7.9,17.5-17.6v-.8c0,9.8-7.8,17.6-17.5,17.6l-5.8-1.7-5.8,1.7c-9.7,0-17.5-7.9-17.5-17.6Z"/>
    <path class="st4" d="M36.7,8.7c-.3,0-.5,0-.8,0-1.5.2-2.7,1.2-3.4,2.2-.7,1.1-1,2.3-1.2,3.4-.5,2.3-.4,4.4-.4,4.4,0,0,0,0,0,.1,0-.7,0-2,.4-3.7.2-1.1.6-2.3,1.2-3.4.7-1.1,1.8-2.1,3.4-2.2.6,0,1.1,0,1.6,0,3.6.1,6.1,2.1,6.1,2.1.3.2.5.5.6.9.2-.6,0-1.3-.6-1.7,0,0-2.5-1.9-6.1-2.1-.3,0-.5,0-.8,0Z"/>
  </g>
  <g class="st17">
    <rect class="st1" y="1.1" width="64" height="63.9" rx="3.2" ry="3.2"/>
    <path class="st18" d="M3.2,0h57.6c1.8,0,3.2,1.4,3.2,3.2v57.5c0,1.8-1.4,3.2-3.2,3.2H3.2c-1.8,0-3.2-1.4-3.2-3.2V3.2C0,1.4,1.4,0,3.2,0Z"/>
    <path class="st9" d="M3.2,0C1.4,0,0,1.4,0,3.2v1.1C0,2.5,1.4,1.1,3.2,1.1h57.6c1.8,0,3.2,1.4,3.2,3.2v-1.1c0-1.8-1.4-3.2-3.2-3.2H3.2Z"/>
    <path class="st3" d="M45.6,33.6c-1.4,0-3.3,1.1-3.3,3.2v3.2c0,2.2,1.8,3.2,3.3,3.2h8.1s1.6,0,1.6,1.6-1.6,1.6-1.6,1.6h-11.4v3.2h13c1.4,0,3.3-1.1,3.3-3.2v-3.2c0-2.2-1.8-3.2-3.3-3.2h-8.1s-1.6,0-1.6-1.6,1.6-1.6,1.6-1.6h11.4v-3.2h-13ZM23.9,33.6v13c0,2.2,1.8,3.2,3.3,3.2h13v-3.2h-11.4s-1.6,0-1.6-1.6,1.6-1.6,1.6-1.6h11.4v-3.2h-11.4s-1.6,0-1.6-1.6,1.6-1.6,1.6-1.6h11.4v-3.2h-16.3ZM5.4,33.6v16.2h3.3v-13h8.1c1.6,0,1.6,1.6,1.6,1.6v11.4h3.3v-13c0-2.2-1.8-3.2-3.3-3.2H5.4ZM32.5,14.1v13c0,2.4,2.2,3.2,3.3,3.2h9.8c1.1,0,3.3-.8,3.3-3.2v-13h-3.3v11.4c0,1.6-1.6,1.6-1.6,1.6h-6.5s-1.6,0-1.6-1.6v-11.4h-3.3ZM14.1,14.1v16.2h3.3v-4.9s0-1.6,1.6-1.6h8.1c1.4,0,3.3-1.1,3.3-3.2v-3.2c0-2.2-1.8-3.2-3.3-3.2h-13ZM19,17.3h6.5s1.6,0,1.6,1.6-1.6,1.6-1.6,1.6h-6.5s-1.6,0-1.6-1.6,1.6-1.6,1.6-1.6Z"/>
    <path class="st23" d="M45.6,32.5c-1.4,0-3.3,1.1-3.3,3.2v3.2c0,2.2,1.8,3.2,3.3,3.2h8.1s1.6,0,1.6,1.6-1.6,1.6-1.6,1.6h-11.4v3.2h13c1.4,0,3.3-1.1,3.3-3.2v-3.2c0-2.2-1.8-3.2-3.3-3.2h-8.1s-1.6,0-1.6-1.6,1.6-1.6,1.6-1.6h11.4v-3.2h-13ZM23.9,32.5v13c0,2.2,1.8,3.2,3.3,3.2h13v-3.2h-11.4s-1.6,0-1.6-1.6,1.6-1.6,1.6-1.6h11.4v-3.2h-11.4s-1.6,0-1.6-1.6,1.6-1.6,1.6-1.6h11.4v-3.2h-16.3ZM5.4,32.5v16.2h3.3v-13h8.1c1.6,0,1.6,1.6,1.6,1.6v11.4h3.3v-13c0-2.2-1.8-3.2-3.3-3.2H5.4ZM32.5,13v13c0,2.4,2.2,3.2,3.3,3.2h9.8c1.1,0,3.3-.8,3.3-3.2v-13h-3.3v11.4c0,1.6-1.6,1.6-1.6,1.6h-6.5s-1.6,0-1.6-1.6v-11.4h-3.3ZM14.1,13v16.2h3.3v-4.9s0-1.6,1.6-1.6h8.1c1.4,0,3.3-1.1,3.3-3.2v-3.2c0-2.2-1.8-3.2-3.3-3.2h-13ZM19,16.2h6.5s1.6,0,1.6,1.6-1.6,1.6-1.6,1.6h-6.5s-1.6,0-1.6-1.6,1.6-1.6,1.6-1.6Z"/>
  </g>
  <g class="st17">
    <path class="st1" d="M3.4,1.5h57.1c1.9,0,3.4,1.5,3.4,3.4v56.7c0,1.9-1.5,3.4-3.4,3.4H3.4c-1.9,0-3.4-1.5-3.4-3.4V4.9C0,3.1,1.5,1.5,3.4,1.5Z"/>
    <path class="st15" d="M3.4.4h57.1c1.9,0,3.4,1.5,3.4,3.4v56.7c0,1.9-1.5,3.4-3.4,3.4H3.4c-1.9,0-3.4-1.5-3.4-3.4V3.8C0,1.9,1.5.4,3.4.4Z"/>
    <path class="st6" d="M30.9,6.1c-12.6,0-22.9,10.1-22.9,22.7v31.7h16v-10.1c2.2.7,4.5,1,6.9,1s4.1-.3,6-.8l10,9.9,10.3-10.2-8-8c2.9-3.8,4.6-8.5,4.6-13.6,0-12.5-10.2-22.7-22.9-22.7Z"/>
    <path class="st30" d="M30.9,4.9c-12.6,0-22.9,10.1-22.9,22.7v31.7h16v-10.1c2.2.7,4.5,1,6.9,1s4.1-.3,6-.8l10,9.9,10.3-10.2-8-8c2.9-3.8,4.6-8.5,4.6-13.6,0-12.5-10.2-22.7-22.9-22.7Z"/>
    <path class="st6" d="M30.9,10.6c-10.1,0-18.3,8.1-18.3,18.1v27.2h6.9v-13.1c3.2,2.6,7.3,4,11.4,4,10.1,0,18.3-8.1,18.3-18.1s-8.2-18.1-18.3-18.1Z"/>
    <path class="st31" d="M30.9,9.5c-10.1,0-18.3,8.1-18.3,18.1v27.2h6.9v-13.1c3.2,2.6,7.3,4,11.4,4,10.1,0,18.3-8.1,18.3-18.1s-8.2-18.1-18.3-18.1Z"/>
    <ellipse class="st6" cx="30.9" cy="28.7" rx="11.4" ry="11.3"/>
    <ellipse class="st21" cx="30.9" cy="27.6" rx="11.4" ry="11.3"/>
    <path class="st10" d="M30.9,9.5c-10.1,0-18.3,8.1-18.3,18.1v1.1c0-10,8.2-18.1,18.3-18.1,9.9,0,18,7.8,18.3,17.7,0-.2,0-.4,0-.7,0-10-8.2-18.1-18.3-18.1Z"/>
    <path class="st9" d="M3.4.4C1.5.4,0,1.9,0,3.8v1.1C0,3.1,1.5,1.5,3.4,1.5h57.1c1.9,0,3.4,1.5,3.4,3.4v-1.1c0-1.9-1.5-3.4-3.4-3.4H3.4Z"/>
  </g>
  <g>
    <path class="st16" d="M32,3.5h0c15.5,0,28,12.5,28,28h0c0,15.5-12.5,28-28,28h0c-15.5,0-28-12.5-28-28h0C4,16,16.5,3.5,32,3.5Z"/>
    <g class="st14">
      <path d="M17.3,22.5h5.3c.7,0,1.3.5,1.3,1.2v19.6c0,.7-.6,1.2-1.3,1.2h-5.3c-.7,0-1.3-.5-1.3-1.2v-19.6c0-.7.6-1.2,1.3-1.2"/>
      <path d="M27.3,22.5c-.7,0-1.3.5-1.3,1.2v19.6c0,.7.6,1.2,1.3,1.2,3.8,0,7.6,0,11.4,0,6.3,0,11.4-4.9,11.4-11s-5.1-11-11.4-11h-11.4Z"/>
    </g>
    <g>
      <path class="st11" d="M17.3,21.5h5.3c.7,0,1.3.5,1.3,1.2v19.6c0,.7-.6,1.2-1.3,1.2h-5.3c-.7,0-1.3-.5-1.3-1.2v-19.6c0-.7.6-1.2,1.3-1.2"/>
      <path class="st11" d="M27.3,21.5c-.7,0-1.3.5-1.3,1.2v19.6c0,.7.6,1.2,1.3,1.2,3.8,0,7.6,0,11.4,0,6.3,0,11.4-4.9,11.4-11s-5.1-11-11.4-11h-11.4Z"/>
    </g>
    <path class="st9" d="M32,3.5C16.5,3.5,4,16,4,31.5s0,.2,0,.3c.4-15.2,12.7-27.3,28-27.3s27.6,12.1,28,27.3c0-.1,0-.2,0-.3,0-15.5-12.5-28-28-28Z"/>
    <path class="st1" d="M4,32.2c0,.1,0,.2,0,.3,0,15.5,12.5,28,28,28s28-12.5,28-28,0-.2,0-.3c-.4,15.2-12.7,27.3-28,27.3S4.4,47.4,4,32.2Z"/>
  </g>
</svg>