<?xml version="1.0" encoding="UTF-8" standalone="no"?>
<svg
   id="_图层_1"
   version="1.1"
   viewBox="0 0 64 64" width="32" height="32"
   sodipodi:docname="PyCrust.svg"
   xml:space="preserve"
   inkscape:version="1.4 (e7c3feb100, 2024-10-09)"
   xmlns:inkscape="http://www.inkscape.org/namespaces/inkscape"
   xmlns:sodipodi="http://sodipodi.sourceforge.net/DTD/sodipodi-0.dtd"
   xmlns="http://www.w3.org/2000/svg"
   xmlns:svg="http://www.w3.org/2000/svg"><sodipodi:namedview
     id="namedview26"
     pagecolor="#ffffff"
     bordercolor="#999999"
     borderopacity="1"
     inkscape:showpageshadow="2"
     inkscape:pageopacity="0"
     inkscape:pagecheckerboard="0"
     inkscape:deskcolor="#d1d1d1"
     inkscape:zoom="10.6875"
     inkscape:cx="32"
     inkscape:cy="32"
     inkscape:window-width="1920"
     inkscape:window-height="939"
     inkscape:window-x="0"
     inkscape:window-y="34"
     inkscape:window-maximized="1"
     inkscape:current-layer="_图层_1" /><!-- Generator: Adobe Illustrator 29.0.1, SVG Export Plug-In . SVG Version: 2.1.0 Build 192)  --><defs
     id="defs6"><style
       id="style1">
      .st0 {
        fill-opacity: .5;
      }

      .st0, .st1, .st2, .st3, .st4, .st5, .st6, .st7 {
        fill: #fff;
      }

      .st8 {
        fill: #133c9a;
      }

      .st2, .st9 {
        display: none;
      }

      .st3 {
        fill-opacity: .2;
      }

      .st4 {
        fill-opacity: .9;
      }

      .st10 {
        fill: #3370ff;
      }

      .st11 {
        fill: url(#_未命名的渐变_3);
      }

      .st12 {
        fill: url(#_未命名的渐变);
      }

      .st5 {
        fill-opacity: .3;
      }

      .st6 {
        fill-opacity: 0;
      }

      .st7 {
        fill-opacity: .7;
      }

      .st13 {
        fill: #00d6b9;
      }

      .st14 {
        fill: url(#_未命名的渐变_2);
      }
    </style><radialGradient
       id="_未命名的渐变"
       data-name="未命名的渐变"
       cx="123.9"
       cy="-40.2"
       fx="123.9"
       fy="-40.2"
       r="59.4"
       gradientTransform="translate(-26.8 25.5) scale(.6 -.7)"
       gradientUnits="userSpaceOnUse"><stop
         offset="0"
         stop-color="#db202e"
         id="stop1" /><stop
         offset="1"
         stop-color="#e01b24"
         id="stop2" /></radialGradient><radialGradient
       id="_未命名的渐变_2"
       data-name="未命名的渐变 2"
       cx="67.6"
       cy="26.8"
       fx="67.6"
       fy="26.8"
       r="105.2"
       gradientTransform="translate(-26.6 25.3) scale(.6 -.7)"
       gradientUnits="userSpaceOnUse"><stop
         offset="0"
         stop-color="#ffb648"
         id="stop3" /><stop
         offset="1"
         stop-color="#ff7800"
         stop-opacity="0"
         id="stop4" /></radialGradient><radialGradient
       id="_未命名的渐变_3"
       data-name="未命名的渐变 3"
       cx="61.7"
       cy="18.6"
       fx="61.7"
       fy="18.6"
       r="68"
       gradientTransform="translate(-26.8 25.8) scale(.6 -.7)"
       gradientUnits="userSpaceOnUse"><stop
         offset="0"
         stop-color="#c64600"
         id="stop5" /><stop
         offset="1"
         stop-color="#a51d2d"
         id="stop6" /></radialGradient></defs><path
     class="st1"
     d="M47.5,64.1H13.8c-7.6,0-13.8-6.3-13.8-13.8V13.7C0,6.2,6.2,0,13.7,0h36.6c7.5,0,13.7,6.2,13.7,13.7v36.6c0,7.5-6.2,13.7-13.7,13.7h-2.9.1Z"
     id="path6" /><rect
     class="st2"
     x="3"
     y="9.7"
     width="58.1"
     height="45.3"
     id="rect6" /><g
     class="st9"
     id="g21"><path
       class="st12"
       d="M-.1,16v35.3c.3,6.5,6.1,12.6,13.4,12.6l4.7.2h23.3s7.2,0,7.2,0c8.8,0,15.5-4.1,15.5-13.9V16.4h0C64,6.3,58,0,50.7,0H14.8C4.7-.2,0,7.2,0,14.5v1.4h-.1ZM4.6,11.6h4.6v5.8h-4.6v-5.8ZM54.9,11.6h4.6v5.8h-4.6v-5.8ZM4.6,23.2h4.6v5.8h-4.6v-5.8ZM54.9,23.2h4.6v5.8h-4.6v-5.8ZM4.6,34.8h4.6v5.8h-4.6v-5.8ZM54.9,34.8h4.6v5.8h-4.6v-5.8ZM4.6,46.4h4.6v5.8h-4.6v-5.8ZM54.9,46.4h4.6v5.8h-4.6v-5.8Z"
       id="path7" /><path
       class="st14"
       d="M47.5,0h-.7C41.4,0,46.8,0,45.5,0H13.3C4.1.3,0,8.5,0,13.7v1.3c0,.3-.1.3-.1.6v34.3c0,1.1,0,.8,0,.8H0c0,7.1,5.9,13.2,13.8,13.3h0c1.2,0,0,0,1.2,0h0c1.1,0,2.3,0,1.1,0h23.5c1.1,0,0,0,1.1,0h.7c3.2.1-1.7,0,0,0h-2.6c1.1,0,.6,0-1.1,0h-2c1.9,0-.6,0,13.3,0h1.3c5.9,0,13.7-4.3,13.6-11.4l.2-36.2C64.1,8.1,58.6,0,51.2,0M4.8,22.9h4.5v5.8h-4.5v-5.8ZM54.7,11.4h4.5v5.8h-4.5v-5.8ZM4.8,11.4h5v5.8h-5v-5.8ZM54.7,22.9h4.5v5.8h-4.5v-5.8ZM4.8,34.4h4.5v5.8h-4.5v-5.8ZM54.7,34.4h4.5v5.8h-4.5v-5.8ZM4.8,46h4.5v5.8h-4.5v-5.8ZM54.7,46h4.5v5.8h-4.5v-5.8Z"
       id="path8" /><path
       class="st11"
       d="M4.6,9.7v2.2h4.6v-2.2h-4.6ZM54.9,9.7v2.2h4.6v-2.2h-4.6ZM4.6,21.3v2.2h4.6v-2.2h-4.6ZM54.9,21.3v2.2h4.6v-2.2h-4.6ZM4.6,32.9v2.2h4.6v-2.2h-4.6ZM54.9,32.9v2.2h4.6v-2.2h-4.6ZM4.6,44.4v2.2h4.6v-2.2h-4.6ZM54.9,44.4v2.2h4.6v-2.2h-4.6ZM4.6,56v2.2h4.6v-2.2h-4.6ZM54.9,56v2.2h4.6v-2.2h-4.6Z"
       id="path9" /><g
       id="g20"><path
         class="st1"
         d="M25.1,29.3h13.7v11.6h-13.7s0-11.6,0-11.6Z"
         id="path10" /><path
         class="st1"
         d="M32,53.9l-12.6-15.9h25.1l-12.6,15.9h.1Z"
         id="path11" /><path
         class="st7"
         d="M25.1,29.3h4.6v-5.8h-4.6v5.8Z"
         id="path12" /><path
         class="st1"
         d="M29.7,29.3h4.6v-5.8h-4.6s0,5.8,0,5.8Z"
         id="path13" /><path
         class="st4"
         d="M34.3,29.3h4.6v-5.8h-4.6v5.8Z"
         id="path14" /><path
         class="st7"
         d="M38.9,23.5h-4.6v-5.8h4.6v5.8Z"
         id="path15" /><path
         class="st0"
         d="M34.3,23.5h-4.6v-5.8h4.6v5.8Z"
         id="path16" /><path
         class="st4"
         d="M29.7,23.5h-4.6v-5.8h4.6v5.8Z"
         id="path17" /><path
         class="st3"
         d="M38.9,17.7h-4.6v-5.8h4.6v5.8Z"
         id="path18" /><path
         class="st5"
         d="M34.3,17.7h-4.6v-5.8h4.6v5.8Z"
         id="path19" /><path
         class="st6"
         d="M29.7,17.7h-4.6v-5.8h4.6v5.8Z"
         id="path20" /></g></g><g
     class="st9"
     id="g23"><path
       class="st8"
       d="M50.3,23.1c.2,0,.5,0,.7,0,1.8.2,3.5.7,5.1,1.4.5.2.6.4.2.8-1.2,1.2-2.1,2.7-2.9,4.2-.8,1.7-1.6,3.3-2.5,4.9-.6,1.2-1.4,2.3-2.4,3.3-2.5,2.3-5.4,3.2-8.8,2.8-3.8-.5-7.5-1.8-10.9-3.5-.2,0-.3-.2-.5-.3-.1,0-.2-.2,0-.3,0,0,0,0,0,0h.2c2.8-1.6,5.1-3.7,7.3-5.9.9-.9,1.9-1.9,2.8-2.8,2.1-2,4.7-3.4,7.5-4,.6-.2,1.2-.3,1.9-.4h1.4"
       id="path21" /><path
       class="st10"
       d="M23.4,49.9c-.4,0-1.5-.2-1.6-.2-2.7-.3-5.3-1.1-7.7-2.3-1.4-.7-2.8-1.4-4.1-2.2-.9-.5-1.3-1.3-1.3-2.3,0-3.9,0-7.8,0-11.7,0-2.5,0-5-.1-7.5,0-.2,0-.4.1-.7.2-.5.5-.5.8-.2.4.3.6.8,1,1.1,3.2,3.1,6.5,6,10.3,8.3,2.1,1.4,4.3,2.6,6.6,3.6,3.6,1.7,7.4,3.1,11.3,4,3.5.8,6.8.3,9.6-1.9.9-.7,1.3-1.3,2.3-2.6-.5,1.2-1,2.3-1.8,3.4-.7,1-2.1,2.4-3.2,3.5-1.7,1.6-3.9,3-6,4.1-2.3,1.2-4.6,2.2-7.2,2.7-1.3.3-3.2.7-3.8.7-.1,0-.5,0-.7,0-1.7.1-2.7.2-4.4,0h0Z"
       id="path22" /><path
       class="st13"
       d="M16.2,12.3c.1,0,.2,0,.3,0,7.2,0,14.3.1,21.4.1s0,0,0,0c.7.6,1.3,1.2,1.8,1.9,1.6,1.6,2.8,4.4,3.6,6.1.4,1.2,1,2.3,1.3,3.6h0c-.7.3-1.4.5-2.1.9-2.1,1-3,1.8-4.7,3.5-.9.9-1.7,1.7-3,2.9-.5.4-.9.9-1.4,1.3-.3-.6-5.9-11.5-17.1-20"
       id="path23" /></g><g
     id="g26"
     transform="translate(-3.8362572,-3.0263494)"><path
       style="opacity:0.2"
       d="m 49.917906,9.0033647 c -0.03898,0.0036 -0.08784,0.02034 -0.1289,0.02734 -0.08274,0.0144 -0.1688,0.03078 -0.261718,0.0586 -0.06076,0.0182 -0.129419,0.0426 -0.195319,0.0664 -0.07852,0.02832 -0.17106,0.0695 -0.257814,0.10546 -0.25513,0.10648 -0.534581,0.230409 -0.878905,0.398437 L 46.359319,10.558051 42.839791,12.276799 5.8749973,30.323648 c -0.4215972,0.205824 -0.7529831,0.372022 -1.0156236,0.53125 -0.00538,0.0032 -0.01422,0.0046 -0.01954,0.0078 -0.264134,0.160819 -0.4541661,0.321229 -0.5859368,0.511717 -0.2789344,0.403227 -0.2977056,0.953923 -0.1914057,2.027341 v 5.152337 9.082018 0.09374 4.812493 1.144531 c 0.1088478,2.58391 0.6653561,2.441986 3.3789016,2.488278 l 48.2929132,0.824241 c 2.344663,0.03942 4.265714,-1.848299 4.265618,-4.1914 v -21.582003 -0.004 -0.004 -0.004 -0.004 -0.004 -0.004 -0.004 -0.004 c -0.008,-1.013524 -0.06754,-1.989873 -0.167959,-2.937496 -0.0017,-0.016 -0.006,-0.03094 -0.0078,-0.04688 -0.034,-0.315963 -0.07744,-0.624453 -0.1211,-0.933593 -0.02424,-0.171639 -0.04318,-0.346023 -0.07032,-0.515625 -0.04628,-0.289227 -0.10174,-0.572007 -0.15626,-0.855467 -0.0366,-0.190519 -0.07306,-0.382305 -0.11328,-0.570311 -0.05182,-0.242068 -0.11032,-0.480743 -0.16796,-0.718749 -0.0529,-0.218424 -0.102499,-0.437223 -0.160159,-0.652343 -0.06134,-0.228812 -0.12874,-0.454489 -0.19532,-0.679687 -0.06256,-0.211672 -0.12434,-0.42422 -0.1914,-0.632811 -0.07618,-0.236888 -0.1565,-0.470064 -0.238282,-0.703125 -0.06282,-0.1791 -0.125379,-0.358238 -0.191399,-0.535156 -0.0938,-0.251235 -0.1929,-0.499071 -0.292968,-0.746093 -0.06828,-0.168639 -0.13594,-0.337145 -0.207032,-0.503905 -0.10132,-0.237586 -0.205663,-0.473107 -0.312499,-0.707031 -0.06924,-0.15166 -0.13946,-0.302926 -0.210938,-0.453123 -0.1131,-0.236782 -0.229188,-0.47226 -0.347663,-0.706275 -0.107,-0.211468 -0.216936,-0.420154 -0.328124,-0.628906 -0.0841,-0.157799 -0.16752,-0.316333 -0.253908,-0.472655 -0.1131,-0.204714 -0.230769,-0.407065 -0.347655,-0.609373 -0.11474,-0.1985 -0.229446,-0.39742 -0.347656,-0.593749 -0.11036,-0.18336 -0.222699,-0.3653 -0.335935,-0.546876 -0.10982,-0.176019 -0.219634,-0.352885 -0.332032,-0.527343 -0.0911,-0.14144 -0.18462,-0.281396 -0.277343,-0.421873 -0.403008,-0.610357 -0.819809,-1.217727 -1.249999,-1.812498 -0.499701,-0.690839 -1.014712,-1.374486 -1.542966,-2.050779 -0.189919,-0.274452 -0.355583,-0.501617 -0.507813,-0.7031233 -0.11736,-0.15532 -0.2279,-0.296024 -0.33203,-0.410158 -0.0036,-0.004 -0.0082,-0.004 -0.0118,-0.0078 -0.102279,-0.111179 -0.199379,-0.204049 -0.296873,-0.277341 -0.0176,-0.0132 -0.03712,-0.02704 -0.05468,-0.03906 -0.0994,-0.068 -0.200674,-0.1174 -0.304688,-0.14844 -0.019,-0.0056 -0.03932,-0.0112 -0.0586,-0.0156 -0.09556,-0.02208 -0.193819,-0.02956 -0.300779,-0.02344 -0.0164,8.8e-4 -0.03006,-0.0054 -0.04688,-0.004 z"
       id="path1" /><path
       style="fill:#eea400"
       d="M 5.8749109,29.323836 46.360147,9.5590407 56.880302,20.992561 55.824146,52.643343 30.999571,51.855962 4.0607726,51.544222 V 32.40372 c -0.2071723,-2.092033 0.04916,-2.218223 1.8141383,-3.079884 z"
       id="path2" /><path
       style="fill:#b80066"
       d="m 4.0607726,37.554389 50.3452354,1.537084 v 9.12454 L 4.0607726,46.637159 Z"
       id="path3" /><path
       style="fill:#fedda6"
       d="M 48.19514,8.6620359 42.838513,11.27604 c 0.14632,0.536338 0.797989,1.038239 1.140265,1.476496 5.073239,6.172684 7.962977,10.118477 8.021157,17.510531 V 47.942013 L 4.0607726,46.731043 v 5.955505 c 0.1088478,2.583911 0.6652305,2.442667 3.378776,2.488959 L 55.73347,55.999396 c 2.344665,0.03942 4.26655,-1.848946 4.266454,-4.192046 v -21.579763 -0.0028 -0.0028 -0.0028 -0.0028 -0.0028 -0.0028 -0.0028 -0.0028 -0.0028 -0.0028 -0.0028 -0.0028 C 59.931602,21.513955 56.316321,15.376073 51.831021,9.6337986 50.489327,7.6948892 50.306637,7.6316353 48.19514,8.6620359 Z"
       id="path4" /><path
       style="opacity:0.2;fill:#ffffff"
       d="m 49.921044,8.0064628 c -0.412168,0.03758 -0.934437,0.2686076 -1.726248,0.6550071 l -1.835503,0.8979048 -3.52078,1.7166653 c 0,0 0,0.0026 0,0.0026 L 5.8744249,29.324222 C 5.0139831,29.744287 4.516285,29.991831 4.2519711,30.374965 L 59.950758,28.715613 C 59.508377,20.807274 56.056324,15.043403 51.830293,9.6330646 50.991736,8.4212462 50.607991,7.9438429 49.921044,8.0064628 Z"
       id="path5" /><path
       style="opacity:0.2;fill:#ffffff"
       d="m 49.917969,8.0039062 c -0.03898,0.0036 -0.08785,0.020344 -0.128907,0.027344 -0.08274,0.0144 -0.1688,0.030774 -0.261718,0.058594 -0.06076,0.0182 -0.129413,0.042606 -0.195313,0.066406 -0.07852,0.02832 -0.171058,0.069509 -0.257812,0.1054688 -0.25513,0.1064799 -0.534582,0.2304096 -0.878907,0.3984374 L 46.359375,9.5585938 42.839844,11.277344 5.875,29.324219 c -0.4215972,0.205824 -0.7529845,0.372023 -1.015625,0.53125 -0.00538,0.0032 -0.014211,0.0046 -0.019531,0.0078 -0.2641341,0.16082 -0.4541669,0.321231 -0.5859376,0.511719 -0.2422486,0.350194 -0.2824208,0.833879 -0.2207031,1.652344 0.033916,-0.262832 0.099134,-0.476603 0.2207031,-0.652344 0.1317707,-0.190488 0.3218035,-0.350899 0.5859376,-0.511719 0.00532,-0.0032 0.014151,-0.0046 0.019531,-0.0078 0.2626405,-0.159227 0.5940278,-0.325426 1.015625,-0.53125 l 36.964844,-18.046875 3.519531,-1.71875 1.835937,-0.8984378 c 0.344325,-0.1680278 0.623777,-0.2919575 0.878907,-0.3984374 0.08675,-0.03596 0.179292,-0.077149 0.257812,-0.1054688 0.0659,-0.0238 0.134553,-0.048206 0.195313,-0.066406 0.09292,-0.02782 0.178978,-0.044194 0.261718,-0.058594 0.04106,-0.007 0.08993,-0.023744 0.128907,-0.027344 0.01682,-0.0014 0.03048,0.00479 0.04687,0.00391 0.10696,-0.00612 0.205221,0.00136 0.300781,0.023437 0.01928,0.0044 0.03959,0.010025 0.05859,0.015625 0.104014,0.03104 0.205287,0.080438 0.304687,0.1484375 0.01756,0.01202 0.03709,0.025863 0.05469,0.039063 0.09749,0.073292 0.194596,0.1661639 0.296875,0.2773438 0.0036,0.0038 0.0081,0.00381 0.01172,0.00781 0.10413,0.1141319 0.214671,0.2548366 0.332031,0.4101563 0.15223,0.2015074 0.317893,0.4286724 0.507812,0.7031244 0.528254,0.676294 1.043268,1.359943 1.542969,2.050782 0.43019,0.594771 0.846992,1.202143 1.25,1.8125 0.09272,0.140478 0.186244,0.280415 0.277344,0.421875 0.112398,0.17446 0.222211,0.351324 0.332031,0.527343 0.113234,0.181576 0.225577,0.363517 0.335937,0.546876 0.118211,0.19633 0.232917,0.39525 0.347657,0.59375 0.116886,0.202307 0.234556,0.404661 0.347656,0.609374 0.08639,0.156322 0.169806,0.314857 0.253906,0.472657 0.111188,0.208752 0.221125,0.417441 0.328125,0.628906 0.118475,0.234016 0.234556,0.469494 0.347656,0.707031 0.07148,0.150198 0.141698,0.301445 0.210938,0.453125 0.106836,0.233921 0.21118,0.469445 0.3125,0.707031 0.07109,0.16676 0.138751,0.335267 0.207031,0.503907 0.100052,0.247022 0.199069,0.495609 0.292969,0.746093 0.06602,0.176919 0.128586,0.356058 0.191406,0.535157 0.08178,0.233062 0.162101,0.466238 0.238282,0.703125 0.06706,0.208592 0.128846,0.42114 0.191406,0.632812 0.06658,0.225197 0.133972,0.450876 0.195312,0.679688 0.05766,0.215119 0.107256,0.43392 0.160156,0.652344 0.05764,0.238004 0.116149,0.476682 0.167969,0.71875 0.04022,0.188004 0.07668,0.379792 0.113281,0.570312 0.05452,0.28346 0.10997,0.566241 0.15625,0.855469 0.02714,0.169602 0.04607,0.343985 0.07031,0.515625 0.04366,0.30914 0.08709,0.617629 0.121094,0.933594 0.0018,0.01594 0.0061,0.03088 0.0078,0.04687 0.10044,0.947626 0.15999,1.923978 0.16799,2.937503 v -0.96875 -0.0039 -0.0039 -0.0039 -0.0039 -0.0039 -0.0039 -0.0039 -0.0039 c -0.008,-1.013525 -0.06755,-1.989877 -0.167969,-2.9375 -0.0017,-0.016 -0.006,-0.03093 -0.0078,-0.04687 -0.034,-0.315965 -0.07743,-0.624454 -0.121094,-0.933594 -0.02424,-0.17164 -0.04317,-0.346023 -0.07031,-0.515625 -0.04628,-0.289228 -0.101729,-0.572009 -0.15625,-0.855469 -0.0366,-0.19052 -0.07306,-0.382308 -0.113281,-0.570312 -0.05182,-0.242068 -0.110329,-0.480745 -0.167969,-0.71875 -0.0529,-0.218424 -0.102496,-0.437225 -0.160156,-0.652344 -0.06134,-0.228812 -0.128732,-0.454491 -0.195312,-0.679688 -0.06256,-0.211672 -0.124346,-0.42422 -0.191406,-0.632812 -0.07618,-0.236887 -0.1565,-0.470063 -0.238282,-0.703125 -0.06282,-0.179099 -0.125386,-0.358238 -0.191406,-0.535157 -0.0939,-0.250484 -0.192917,-0.499071 -0.292969,-0.746093 -0.06828,-0.16864 -0.135939,-0.337147 -0.207031,-0.503907 -0.10132,-0.237586 -0.205664,-0.47311 -0.3125,-0.707031 -0.06924,-0.15168 -0.13946,-0.302927 -0.210938,-0.453125 -0.1131,-0.237537 -0.229181,-0.473015 -0.347656,-0.707031 -0.107,-0.211465 -0.216937,-0.420154 -0.328125,-0.628906 -0.0841,-0.1578 -0.167518,-0.316335 -0.253906,-0.472657 -0.1131,-0.204713 -0.23077,-0.407068 -0.347656,-0.609374 -0.11474,-0.1985 -0.229446,-0.397421 -0.347657,-0.59375 -0.11036,-0.183359 -0.222703,-0.3653 -0.335937,-0.546876 -0.10982,-0.176019 -0.219633,-0.352883 -0.332031,-0.527343 -0.0911,-0.14146 -0.184621,-0.281397 -0.277344,-0.421875 -0.403008,-0.610357 -0.81981,-1.217729 -1.25,-1.8125 -0.499716,-0.690893 -1.01473,-1.374542 -1.542984,-2.0508355 -0.189919,-0.2744516 -0.355582,-0.5016172 -0.507812,-0.703125 -0.11736,-0.1553197 -0.227902,-0.2960244 -0.332031,-0.4101563 -0.0036,-0.004 -0.0081,-0.00401 -0.01172,-0.00781 -0.102278,-0.1111823 -0.19938,-0.2040543 -0.296874,-0.2773462 -0.0176,-0.0132 -0.03713,-0.027043 -0.05469,-0.039063 -0.0994,-0.068 -0.200673,-0.1173975 -0.304687,-0.1484375 -0.019,-0.0056 -0.03931,-0.011225 -0.05859,-0.015625 -0.09556,-0.02208 -0.193821,-0.029557 -0.300781,-0.023437 -0.0164,8.8e-4 -0.03005,-0.00531 -0.04687,-0.00391 z"
       id="path6-6" /></g></svg>
