<?xml version="1.0" encoding="UTF-8"?>
<svg id="_图层_1" xmlns="http://www.w3.org/2000/svg" version="1.1" viewBox="0 0 64 64" width="32" height="32">
  <!-- Generator: Adobe Illustrator 29.0.1, SVG Export Plug-In . SVG Version: 2.1.0 Build 192)  -->
  <defs>
    <style>
      .st0, .st1 {
        fill: #4f4f4f;
      }

      .st2, .st3, .st4, .st5, .st6, .st7 {
        isolation: isolate;
      }

      .st2, .st3, .st5, .st8, .st9, .st1 {
        display: none;
      }

      .st2, .st5, .st6 {
        opacity: .2;
      }

      .st3, .st10, .st6, .st7 {
        fill: #fff;
      }

      .st3, .st4, .st7 {
        opacity: .1;
      }

      .st10, .st5 {
        fill-rule: evenodd;
      }

      .st11 {
        fill: #17c7e1;
      }

      .st12 {
        fill: #2ec27e;
      }

      .st9 {
        fill: #e4e4e4;
      }

      .st13 {
        fill: #309dc0;
      }
    </style>
  </defs>
  <path class="st0" d="M50.4,64H13.8c-7.6,0-13.8-6.2-13.8-13.7V13.7C0,6.2,6.2,0,13.7,0h36.5c7.5,0,13.7,6.2,13.7,13.7v36.6c0,7.5-6.2,13.7-13.7,13.7h.1Z"/>
  <g class="st8">
    <path class="st9" d="M51.5,57.2V3.2c0-1.8-1.6-3.2-3.5-3.2H3.5C1.6,0,0,1.4,0,3.2v54c0,1.8,1.6,3.2,3.5,3.2h44.5c1.9,0,3.5-1.4,3.5-3.2Z"/>
    <path class="st2" d="M0,57.2v1.1c0,1.8,1.6,3.2,3.5,3.2h44.5c1.9,0,3.5-1.4,3.5-3.2v-1.1c0,1.8-1.6,3.2-3.5,3.2H3.5c-1.9,0-3.5-1.4-3.5-3.2Z"/>
    <path class="st7" d="M3.5,0C1.6,0,0,1.4,0,3.2v1.1C0,2.5,1.6,1.1,3.5,1.1h44.5c1.9,0,3.5,1.4,3.5,3.2v-1.1c0-1.8-1.6-3.2-3.5-3.2H3.5Z"/>
    <ellipse class="st13" cx="44.5" cy="45.4" rx="18.7" ry="17.3"/>
    <path class="st10" d="M44.5,38.9c-2.3,0-4.6.5-6.5,1.5-.8.5-1.7,1-2.4,1.6-1.1,1-2.1,2.1-2.7,3.4,1.8,3.5,5.7,6,10,6.4,2.8.3,5.8-.1,8.3-1.4.8-.5,1.7-1,2.4-1.6,1.1-1,2.1-2.1,2.7-3.4-1.8-3.5-5.7-6-10-6.4-.6,0-1.1,0-1.7,0ZM44.5,41c2.5,0,4.7,2,4.7,4.3,0,2.5-2.7,4.7-5.4,4.3-2.7-.3-4.7-3.1-3.8-5.5.6-1.8,2.5-3.1,4.5-3h0ZM44.5,43.2c-1.3,0-2.3,1-2.3,2.2,0,0,0,0,0,0,0,1.2,1,2.2,2.3,2.2s2.3-1,2.3-2.2c0-1.2-1.1-2.2-2.3-2.2h0Z"/>
    <path class="st5" d="M25.8,45.9c0,.2,0,.4,0,.5,0,9.5,8.4,17.3,18.7,17.3h0c10.3,0,18.7-7.7,18.7-17.3h0c0-.2,0-.4,0-.5-.3,9.3-8.6,16.7-18.7,16.7-10.1,0-18.4-7.4-18.7-16.7Z"/>
  </g>
  <g>
    <path class="st2" d="M41.7,65.3h-19.7c-2.1,0-4.2-.9-5.7-2.4l-11.6-11.8c-1.5-1.5-2.4-3.7-2.4-6v-22.5c0-2.3.8-4.5,2.3-6.1L16.3,3.7c1.5-1.6,3.5-2.5,5.6-2.5h19.7c2.1,0,4.1.9,5.6,2.5l11.8,12.8c1.5,1.6,2.3,3.8,2.3,6.1v22.5c0,2.3-.9,4.4-2.4,6l-11.6,11.8c-1.5,1.6-3.6,2.4-5.7,2.4Z"/>
    <path class="st1" d="M41.7,64.1h-19.7c-2.1,0-4.2-.9-5.7-2.4l-11.6-11.8c-1.5-1.5-2.4-3.7-2.4-6v-22.5c0-2.3.8-4.5,2.3-6.1L16.3,2.5C17.8.9,19.8,0,21.9,0h19.7c2.1,0,4.1.9,5.6,2.5l11.8,12.8c1.5,1.6,2.3,3.8,2.3,6.1v22.5c0,2.3-.9,4.4-2.4,6l-11.6,11.8c-1.5,1.6-3.6,2.4-5.7,2.4Z"/>
    <path class="st3" d="M21.9,0c-2.1,0-4.1.9-5.6,2.5L4.5,15.3c-1.5,1.6-2.3,3.8-2.3,6.1v1.2c0-2.3.8-4.5,2.3-6.1L16.3,3.7c1.5-1.6,3.5-2.5,5.6-2.5h19.7c2.1,0,4.1.9,5.6,2.5l11.8,12.8c1.5,1.6,2.3,3.8,2.3,6.1v-1.2c0-2.3-.8-4.5-2.3-6.1l-11.8-12.8C45.8.9,43.8,0,41.7,0h-19.7Z"/>
    <path class="st4" d="M2.3,20.2c0,.4-.1.8-.1,1.2v2.5l41.4,29.4c.7.6,1.7-.3,1.4-1.2l-11.3-29.1c-.6-1.7-2.1-2.8-3.7-2.8H2.3ZM43.7,27.3c-2.5,0-3.8,2-2.8,4.6l1.4,3.9c.9,2.5,3.6,4.6,6.1,4.6h12.1c.3,0,.7,0,.9-.1v-9.4c-1.2-2-3.5-3.5-5.6-3.5h-12.1Z"/>
    <path class="st11" d="M45,50.9l-11.3-29.1c-.6-1.7-2.1-2.8-3.7-2.8H1.3c-1.2,0-1.7,1.7-.7,2.5l43.1,30.5c.7.6,1.7-.3,1.4-1.2Z"/>
    <path class="st12" d="M43.7,26.1h12.1c2.5,0,5.2,2,6.1,4.6l1.4,3.9c.9,2.5-.4,4.6-2.8,4.6h-12.1c-2.5,0-5.2-2-6.1-4.6l-1.4-3.9c-.9-2.5.4-4.6,2.8-4.6Z"/>
    <path class="st6" d="M1.3,19c-1,0-1.5,1.1-1.1,2,.2-.4.6-.8,1.1-.8h28.7c1.7,0,3.1,1.1,3.7,2.8l11.2,28.8c.2-.2.2-.6.1-.9l-11.3-29.1c-.6-1.7-2.1-2.8-3.7-2.8H1.3ZM43.7,26.1c-2.2,0-3.4,1.5-3.1,3.6.2-1.4,1.4-2.4,3.1-2.4h12.1c2.5,0,5.2,2,6.1,4.6l1.4,3.9c.1.3.2.7.2,1,.1-.6,0-1.4-.2-2.2l-1.4-3.9c-.9-2.5-3.6-4.6-6.1-4.6h-12.1Z"/>
  </g>
</svg>