<?xml version="1.0" encoding="UTF-8"?>
<svg id="_图层_1" data-name="图层_1" xmlns="http://www.w3.org/2000/svg" version="1.1" viewBox="0 0 128 128" width="32" height="32">
  <!-- Generator: Adobe Illustrator 29.0.1, SVG Export Plug-In . SVG Version: 2.1.0 Build 192)  -->
  <defs>
    <style>
      .st0 {
        fill: #3f3f3f;
      }

      .st1, .st2 {
        fill: #fff;
      }

      .st3 {
        fill: #55cc98;
      }

      .st4 {
        fill: #d67495;
      }

      .st5 {
        fill: #c4c4c4;
      }

      .st6, .st2 {
        isolation: isolate;
        opacity: .2;
      }

      .st7 {
        fill: #ba174e;
      }
    </style>
  </defs>
  <rect class="st5" x=".6" y=".6" width="127.8" height="127.8" rx="25.9" ry="25.9"/>
  <g>
    <path class="st5" d="M60.3,24.2c-21.4,0-38.7,17.4-38.7,38.9s17.3,38.9,38.7,38.9,38.7-17.4,38.7-38.9-17.3-38.9-38.7-38.9Z"/>
    <path class="st2" d="M60.3,24.2c-21.4,0-38.7,17.4-38.7,38.9s0,.3,0,.5c.5-21.1,17.5-38,38.7-38h0c21.1,0,38.2,16.9,38.7,38,0-.2,0-.3,0-.5,0-21.6-17.3-38.9-38.7-38.9h0Z"/>
    <path class="st6" d="M40.1,65c0-.4,0-.7,0-1.1,0-11.2,9.1-20.2,20.3-20.2h0c11.2,0,20.3,9.1,20.3,20.2,0,.3,0,.5,0,.8-.6-10.7-9.5-19.2-20.2-19.2-10.9,0-19.8,8.6-20.2,19.5Z"/>
    <ellipse class="st0" cx="60.3" cy="63.2" rx="24.9" ry="25"/>
    <ellipse class="st6" cx="60.3" cy="64.6" rx="19.3" ry="19.5"/>
    <ellipse class="st7" cx="60.3" cy="63.2" rx="19.3" ry="19.5"/>
    <path class="st6" d="M98.9,64.1c-.5,21.1-17.5,38-38.7,38s-38.2-16.9-38.7-38c0,.2,0,.3,0,.5,0,21.6,17.3,38.9,38.7,38.9s38.7-17.4,38.7-38.9,0-.3,0-.5Z"/>
    <ellipse class="st6" cx="60.3" cy="64.6" rx="11.1" ry="11.1"/>
    <ellipse class="st4" cx="60.3" cy="63.2" rx="11.1" ry="11.1"/>
    <ellipse class="st3" cx="82.4" cy="82.6" rx="22.1" ry="22.2"/>
    <path class="st1" d="M79.6,71.5l-.2,2.9c-.9.3-1.8.8-2.6,1.5l-2.7-1.3-2.8,4.8,2.4,1.7c0,.5-.1,1-.1,1.5,0,.5,0,1,.1,1.5l-2.4,1.7,2.8,4.8,2.7-1.3c.8.6,1.6,1.1,2.6,1.5l.2,2.9h5.6l.2-2.9c.9-.3,1.8-.8,2.6-1.5l2.7,1.3,2.8-4.8-2.4-1.7c0-.5.1-1,.1-1.5,0-.5,0-1-.1-1.5l2.4-1.7-2.8-4.8-2.7,1.3c-.8-.6-1.6-1.1-2.6-1.5l-.2-2.9h-5.6ZM82.4,79.5c1.8,0,3.2,1.4,3.2,3.2h0c0,1.8-1.4,3.2-3.2,3.2h0c-1.8,0-3.2-1.4-3.2-3.2h0c0-1.8,1.4-3.2,3.2-3.2h0Z"/>
    <path class="st6" d="M60.3,83.3c0,.2,0,.5,0,.7,0,12.3,9.9,22.2,22.1,22.2s22.1-10,22.1-22.2c0-.2,0-.5,0-.7-.4,12-10.2,21.5-22.1,21.5-11.9,0-21.7-9.6-22.1-21.6Z"/>
  </g>
</svg>