<?xml version="1.0" encoding="UTF-8"?>
<svg id="_图层_1" xmlns="http://www.w3.org/2000/svg" version="1.1" viewBox="0 0 64 64" width="32" height="32">
  <!-- Generator: Adobe Illustrator 29.0.1, SVG Export Plug-In . SVG Version: 2.1.0 Build 192)  -->
  <defs>
    <style>
      .st0 {
        fill: #ffc107;
      }

      .st1 {
        fill: #009688;
      }

      .st2, .st3, .st4 {
        isolation: isolate;
        opacity: .2;
      }

      .st2, .st4, .st5 {
        display: none;
      }

      .st6 {
        fill: #03a9f4;
      }

      .st7 {
        fill: #fa3e30;
      }

      .st8 {
        fill: #999;
      }

      .st9 {
        fill: #f4f4f4;
      }

      .st3, .st4 {
        fill: #fff;
      }

      .st10 {
        fill: #c162c9;
      }

      .st5, .st11 {
        fill: #e4e4e4;
      }

      .st12 {
        opacity: .1;
      }
    </style>
  </defs>
  <path class="st11" d="M50.4,64H13.8c-7.6,0-13.8-6.2-13.8-13.7V13.7C0,6.2,6.2,0,13.7,0h36.5c7.5,0,13.7,6.2,13.7,13.7v36.6c0,7.5-6.2,13.7-13.7,13.7h.1Z"/>
  <g>
    <path class="st2" d="M3.2,1.1h57.5c1.8,0,3.2,1.4,3.2,3.2v57.3c0,1.8-1.4,3.2-3.2,3.2H3.2c-1.8,0-3.2-1.4-3.2-3.2V4.3C0,2.6,1.4,1.1,3.2,1.1Z"/>
    <path class="st5" d="M3.2,0h57.5c1.8,0,3.2,1.4,3.2,3.2v57.3c0,1.8-1.4,3.2-3.2,3.2H3.2c-1.8,0-3.2-1.4-3.2-3.2V3.2C0,1.4,1.4,0,3.2,0Z"/>
    <g class="st12">
      <path d="M35.4,37.5v4.5l1.5-1.6,8.1,8.1-1.6,1.5h4.6v-4.5l-1.5,1.6-8.1-8.1,1.6-1.5h-4.6ZM27.4,53.5l3.4-3.4v2.3h17.1v2.3h-17.1v2.3l-3.4-3.4ZM37.7,12.5l3.4-3.4v2.3h6.8v2.3h-6.8v2.3l-3.4-3.4ZM31.9,27.3l-3.4-3.4h2.3v-6.8h2.3v6.8h2.3l-3.4,3.4ZM17.1,33l3.4-3.4v2.3h6.8v2.3h-6.8v2.3l-3.4-3.4ZM52.5,18.2l3.4,3.4h-2.3v27.3h-2.3v-27.3h-2.3l3.4-3.4Z"/>
      <path d="M31.9,6.8c-3.2,0-5.7,2.5-5.7,5.7s2.6,5.7,5.7,5.7,5.7-2.5,5.7-5.7-2.6-5.7-5.7-5.7ZM52.5,6.8c-3.2,0-5.7,2.5-5.7,5.7s2.6,5.7,5.7,5.7,5.7-2.5,5.7-5.7-2.6-5.7-5.7-5.7ZM11.4,27.3c-3.2,0-5.7,2.5-5.7,5.7s2.6,5.7,5.7,5.7,5.7-2.5,5.7-5.7-2.6-5.7-5.7-5.7ZM31.9,27.3c-3.2,0-5.7,2.5-5.7,5.7s2.6,5.7,5.7,5.7,5.7-2.5,5.7-5.7-2.6-5.7-5.7-5.7ZM21.7,47.8c-3.2,0-5.7,2.5-5.7,5.7s2.6,5.7,5.7,5.7,5.7-2.5,5.7-5.7-2.6-5.7-5.7-5.7ZM52.5,47.8c-3.2,0-5.7,2.5-5.7,5.7s2.6,5.7,5.7,5.7,5.7-2.5,5.7-5.7-2.6-5.7-5.7-5.7Z"/>
    </g>
    <path class="st8" d="M35.4,36.4v4.5l1.5-1.6,8.1,8.1-1.6,1.5h4.6v-4.5l-1.5,1.6-8.1-8.1,1.6-1.5h-4.6ZM27.4,52.3l3.4-3.4v2.3h17.1v2.3h-17.1v2.3l-3.4-3.4ZM37.7,11.4l3.4-3.4v2.3h6.8v2.3h-6.8v2.3l-3.4-3.4ZM31.9,26.2l-3.4-3.4h2.3v-6.8h2.3v6.8h2.3l-3.4,3.4ZM17.1,31.8l3.4-3.4v2.3h6.8v2.3h-6.8v2.3l-3.4-3.4ZM52.5,17.1l3.4,3.4h-2.3v27.3h-2.3v-27.3h-2.3l3.4-3.4Z"/>
    <ellipse class="st10" cx="31.9" cy="31.8" rx="5.7" ry="5.7"/>
    <ellipse class="st1" cx="11.4" cy="31.8" rx="5.7" ry="5.7"/>
    <ellipse class="st6" cx="31.9" cy="11.4" rx="5.7" ry="5.7"/>
    <ellipse class="st0" cx="52.5" cy="11.4" rx="5.7" ry="5.7"/>
    <ellipse class="st9" cx="21.7" cy="52.3" rx="5.7" ry="5.7"/>
    <ellipse class="st7" cx="52.5" cy="52.3" rx="5.7" ry="5.7"/>
    <path class="st3" d="M31.9,5.7c-3.2,0-5.7,2.5-5.7,5.7,0,.2,0,.4,0,.6.3-2.9,2.7-5.1,5.6-5.1,2.9,0,5.3,2.1,5.6,4.9,0-.1,0-.2,0-.4,0-3.1-2.6-5.7-5.7-5.7ZM52.5,5.7c-3.2,0-5.7,2.5-5.7,5.7,0,.2,0,.4,0,.6.3-2.9,2.7-5.1,5.6-5.1,2.9,0,5.3,2.1,5.6,4.9,0-.1,0-.2,0-.4,0-3.1-2.6-5.7-5.7-5.7ZM11.4,26.2c-3.2,0-5.7,2.5-5.7,5.7,0,.2,0,.4,0,.6.3-2.9,2.7-5.1,5.6-5.1,2.9,0,5.3,2.1,5.6,4.9,0-.1,0-.2,0-.4,0-3.1-2.6-5.7-5.7-5.7ZM31.9,26.2c-3.2,0-5.7,2.5-5.7,5.7,0,.2,0,.4,0,.6.3-2.9,2.7-5.1,5.6-5.1,2.9,0,5.3,2.1,5.6,4.9,0-.1,0-.2,0-.4,0-3.1-2.6-5.7-5.7-5.7ZM21.7,46.6c-3.2,0-5.7,2.5-5.7,5.7,0,.2,0,.4,0,.6.3-2.9,2.7-5.1,5.6-5.1,2.9,0,5.3,2.1,5.6,4.9,0-.1,0-.2,0-.4,0-3.1-2.6-5.7-5.7-5.7ZM52.5,46.6c-3.2,0-5.7,2.5-5.7,5.7,0,.2,0,.4,0,.6.3-2.9,2.7-5.1,5.6-5.1,2.9,0,5.3,2.1,5.6,4.9,0-.1,0-.2,0-.4,0-3.1-2.6-5.7-5.7-5.7Z"/>
    <path class="st4" d="M3.2,0C1.4,0,0,1.4,0,3.2v1.1C0,2.6,1.4,1.1,3.2,1.1h57.5c1.8,0,3.2,1.4,3.2,3.2v-1.1c0-1.8-1.4-3.2-3.2-3.2H3.2Z"/>
  </g>
</svg>