<?xml version="1.0" encoding="UTF-8"?>
<svg id="_图层_1" xmlns="http://www.w3.org/2000/svg" version="1.1" viewBox="0 0 64 64" width="32" height="32">
  <!-- Generator: Adobe Illustrator 29.0.1, SVG Export Plug-In . SVG Version: 2.1.0 Build 192)  -->
  <defs>
    <style>
      .st0, .st1, .st2 {
        display: none;
      }

      .st0, .st3 {
        fill: #3f3f3f;
      }

      .st1, .st2, .st4, .st5 {
        isolation: isolate;
      }

      .st1, .st5 {
        opacity: .2;
      }

      .st2 {
        opacity: .1;
      }

      .st2, .st4 {
        fill: #fff;
      }
    </style>
  </defs>
  <path class="st3" d="M50.3,64H13.9C6.3,64,.2,57.8.2,50.3V13.8C.2,6.2,6.3,0,13.9,0h36.5c7.5,0,13.7,6.2,13.7,13.7v36.5c0,7.5-6.1,13.7-13.7,13.7h0Z"/>
  <g>
    <path class="st1" d="M31.1,4.5C15.6,4.5,3.1,17,3.1,32.5s12.5,28,28,28,28-12.5,28-28S46.6,4.5,31.1,4.5Z"/>
    <path class="st0" d="M31.1,3.5C15.6,3.5,3.1,16,3.1,31.5s12.5,28,28,28,28-12.5,28-28S46.6,3.5,31.1,3.5Z"/>
    <path class="st5" d="M40.6,15.5c-1.9,0-3.5,1.6-3.5,3.5s1.6,3.5,3.5,3.5,3.5-1.6,3.5-3.5-1.6-3.5-3.5-3.5ZM24.9,24.5c-.3,0-.6.1-.9.4l-11.6,12.2c-.1.2-.3.5-.3.8v4.4c0,.7.5,1.2,1.3,1.2h35.4c.7,0,1.3-.6,1.3-1.2v-3.2c0-.3-.1-.6-.4-.9l-8.5-9.2c-.5-.4-1.3-.5-1.8,0l-3.3,3.9c-.5.4-1.3.4-1.8,0l-8.5-8c-.3-.2-.6-.3-.9-.3Z"/>
    <path class="st4" d="M40.6,14.5c-1.9,0-3.5,1.6-3.5,3.5s1.6,3.5,3.5,3.5,3.5-1.6,3.5-3.5-1.6-3.5-3.5-3.5ZM24.9,23.5c-.3,0-.6.1-.9.4l-11.6,12.2c-.1.2-.3.5-.3.8v4.4c0,.7.5,1.2,1.3,1.2h35.4c.7,0,1.3-.6,1.3-1.2v-3.2c0-.3-.1-.6-.4-.9l-8.5-9.2c-.5-.4-1.3-.5-1.8,0l-3.3,3.9c-.5.4-1.3.4-1.8,0l-8.5-8c-.3-.2-.6-.3-.9-.3Z"/>
    <path class="st2" d="M31.1,3.5C15.6,3.5,3.1,16,3.1,31.5s0,.3,0,.5c.3-15.3,12.6-27.5,28-27.5s27.7,12.2,28,27.5c0-.2,0-.3,0-.5,0-15.5-12.5-28-28-28Z"/>
  </g>
</svg>