<?xml version="1.0" encoding="UTF-8" standalone="no"?>
<svg
   id="_图层_1"
   version="1.1"
   viewBox="0 0 64 64" width="32" height="32"
   sodipodi:docname="rapidsvn.svg"
   xml:space="preserve"
   inkscape:version="1.4 (e7c3feb100, 2024-10-09)"
   xmlns:inkscape="http://www.inkscape.org/namespaces/inkscape"
   xmlns:sodipodi="http://sodipodi.sourceforge.net/DTD/sodipodi-0.dtd"
   xmlns="http://www.w3.org/2000/svg"
   xmlns:svg="http://www.w3.org/2000/svg"><sodipodi:namedview
     id="namedview26"
     pagecolor="#505050"
     bordercolor="#eeeeee"
     borderopacity="1"
     inkscape:showpageshadow="0"
     inkscape:pageopacity="0"
     inkscape:pagecheckerboard="0"
     inkscape:deskcolor="#505050"
     inkscape:zoom="10.6875"
     inkscape:cx="32"
     inkscape:cy="32"
     inkscape:window-width="1920"
     inkscape:window-height="939"
     inkscape:window-x="0"
     inkscape:window-y="34"
     inkscape:window-maximized="1"
     inkscape:current-layer="_图层_1" /><!-- Generator: Adobe Illustrator 29.0.1, SVG Export Plug-In . SVG Version: 2.1.0 Build 192)  --><defs
     id="defs6"><style
       id="style1">
      .st0 {
        fill-opacity: .5;
      }

      .st0, .st1, .st2, .st3, .st4, .st5, .st6, .st7 {
        fill: #fff;
      }

      .st8 {
        fill: #133c9a;
      }

      .st2, .st9 {
        display: none;
      }

      .st3 {
        fill-opacity: .2;
      }

      .st4 {
        fill-opacity: .9;
      }

      .st10 {
        fill: #3370ff;
      }

      .st11 {
        fill: url(#_未命名的渐变_3);
      }

      .st12 {
        fill: url(#_未命名的渐变);
      }

      .st5 {
        fill-opacity: .3;
      }

      .st6 {
        fill-opacity: 0;
      }

      .st7 {
        fill-opacity: .7;
      }

      .st13 {
        fill: #00d6b9;
      }

      .st14 {
        fill: url(#_未命名的渐变_2);
      }
    </style><radialGradient
       id="_未命名的渐变"
       data-name="未命名的渐变"
       cx="123.9"
       cy="-40.2"
       fx="123.9"
       fy="-40.2"
       r="59.4"
       gradientTransform="translate(-26.8 25.5) scale(.6 -.7)"
       gradientUnits="userSpaceOnUse"><stop
         offset="0"
         stop-color="#db202e"
         id="stop1" /><stop
         offset="1"
         stop-color="#e01b24"
         id="stop2" /></radialGradient><radialGradient
       id="_未命名的渐变_2"
       data-name="未命名的渐变 2"
       cx="67.6"
       cy="26.8"
       fx="67.6"
       fy="26.8"
       r="105.2"
       gradientTransform="translate(-26.6 25.3) scale(.6 -.7)"
       gradientUnits="userSpaceOnUse"><stop
         offset="0"
         stop-color="#ffb648"
         id="stop3" /><stop
         offset="1"
         stop-color="#ff7800"
         stop-opacity="0"
         id="stop4" /></radialGradient><radialGradient
       id="_未命名的渐变_3"
       data-name="未命名的渐变 3"
       cx="61.7"
       cy="18.6"
       fx="61.7"
       fy="18.6"
       r="68"
       gradientTransform="translate(-26.8 25.8) scale(.6 -.7)"
       gradientUnits="userSpaceOnUse"><stop
         offset="0"
         stop-color="#c64600"
         id="stop5" /><stop
         offset="1"
         stop-color="#a51d2d"
         id="stop6" /></radialGradient></defs><path
     class="st1"
     d="M47.5,64.1H13.8c-7.6,0-13.8-6.3-13.8-13.8V13.7C0,6.2,6.2,0,13.7,0h36.6c7.5,0,13.7,6.2,13.7,13.7v36.6c0,7.5-6.2,13.7-13.7,13.7h-2.9.1Z"
     id="path6"
     style="fill:#4f4f4f;fill-opacity:1" /><g
     id="g38"
     transform="matrix(1.1420217,0,0,1.1411716,-4.4043442,-4.4331077)"><path
       style="opacity:0.1"
       d="M 38,47.397438 C 38,49.344774 35.293956,55 32,55 27.887474,55 22,50.517612 22,47.580122 22,44.642636 25.887472,43 30,43 c 4.112526,0 8,2.316922 8,4.397438 z M 48.000002,32.021646 A 4.000002,2.9783526 0 0 1 44,35 4.000002,2.9783526 0 0 1 39.999998,32.021646 4.000002,2.9783526 0 0 1 44,29.043294 a 4.000002,2.9783526 0 0 1 4.000002,2.978352 z m 4.254774,-18.35306 c 0,0 -14.944694,12.83008 -31.019248,13.331414 -4.408462,0.137356 -7.631089,-0.967774 -9.797365,-2 C 9.2718884,23.967742 6.5299222,21.369216 6.5299222,21.369216 L 5.6753054,23.46006 c 0,0 1.4649726,1.381168 2.1705506,1.888702 C 8.4163036,28.401204 10.687115,37 20,37 c 7.884356,0 10.870546,-6.420344 11.716894,-9.641838 11.683204,-3.329328 21.95531,-12.085886 21.95531,-12.085886 z"
       id="path4-2" /><path
       style="fill:#e6e6e6"
       d="M 38,46.397438 C 38,48.344774 35.293956,54 32,54 27.887474,54 22,49.517612 22,46.580122 22,43.642636 25.887472,42 30,42 c 4.112526,0 8,2.316922 8,4.397438 z M 48.000002,31.021646 C 48.000004,32.666546 46.20914,34 44,34 c -2.20914,0 -4.000004,-1.333454 -4.000002,-2.978354 0,-1.644898 1.790862,-2.978352 4.000002,-2.978352 2.20914,0 4.000002,1.333454 4.000002,2.978352 z m 3.704863,-17.894118 c 0,0 -14.695647,12.091827 -30.770201,12.593161 -4.408462,0.137356 -7.631089,-0.967774 -9.797365,-2 C 8.9710245,22.688431 6.8819375,20.658208 6.8819375,20.658208 l -0.89342,2.016459 c 0,0 0.8508966,0.88725 1.5564746,1.394784 C 8.1154397,27.121893 10.687115,36 20,36 27.884356,36 30.870546,29.579656 31.716894,26.358162 43.400098,23.028834 53.121301,14.64898 53.121301,14.64898 Z"
       id="path5-9" /></g></svg>
