<?xml version="1.0" encoding="UTF-8" standalone="no"?>
<svg
   id="_图层_1"
   version="1.1"
   viewBox="0 0 64 64" width="32" height="32"
   sodipodi:docname="raven-reader.svg"
   xml:space="preserve"
   inkscape:version="1.4 (e7c3feb100, 2024-10-09)"
   xmlns:inkscape="http://www.inkscape.org/namespaces/inkscape"
   xmlns:sodipodi="http://sodipodi.sourceforge.net/DTD/sodipodi-0.dtd"
   xmlns:xlink="http://www.w3.org/1999/xlink"
   xmlns="http://www.w3.org/2000/svg"
   xmlns:svg="http://www.w3.org/2000/svg"><sodipodi:namedview
     id="namedview26"
     pagecolor="#505050"
     bordercolor="#eeeeee"
     borderopacity="1"
     inkscape:showpageshadow="0"
     inkscape:pageopacity="0"
     inkscape:pagecheckerboard="0"
     inkscape:deskcolor="#505050"
     inkscape:zoom="10.6875"
     inkscape:cx="32"
     inkscape:cy="24.51462"
     inkscape:window-width="1920"
     inkscape:window-height="939"
     inkscape:window-x="0"
     inkscape:window-y="34"
     inkscape:window-maximized="1"
     inkscape:current-layer="_图层_1" /><!-- Generator: Adobe Illustrator 29.0.1, SVG Export Plug-In . SVG Version: 2.1.0 Build 192)  --><defs
     id="defs6"><style
       id="style1">
      .st0 {
        fill-opacity: .5;
      }

      .st0, .st1, .st2, .st3, .st4, .st5, .st6, .st7 {
        fill: #fff;
      }

      .st8 {
        fill: #133c9a;
      }

      .st2, .st9 {
        display: none;
      }

      .st3 {
        fill-opacity: .2;
      }

      .st4 {
        fill-opacity: .9;
      }

      .st10 {
        fill: #3370ff;
      }

      .st11 {
        fill: url(#_未命名的渐变_3);
      }

      .st12 {
        fill: url(#_未命名的渐变);
      }

      .st5 {
        fill-opacity: .3;
      }

      .st6 {
        fill-opacity: 0;
      }

      .st7 {
        fill-opacity: .7;
      }

      .st13 {
        fill: #00d6b9;
      }

      .st14 {
        fill: url(#_未命名的渐变_2);
      }
    </style><radialGradient
       id="_未命名的渐变"
       data-name="未命名的渐变"
       cx="123.9"
       cy="-40.2"
       fx="123.9"
       fy="-40.2"
       r="59.4"
       gradientTransform="translate(-26.8 25.5) scale(.6 -.7)"
       gradientUnits="userSpaceOnUse"><stop
         offset="0"
         stop-color="#db202e"
         id="stop1" /><stop
         offset="1"
         stop-color="#e01b24"
         id="stop2" /></radialGradient><radialGradient
       id="_未命名的渐变_2"
       data-name="未命名的渐变 2"
       cx="67.6"
       cy="26.8"
       fx="67.6"
       fy="26.8"
       r="105.2"
       gradientTransform="translate(-26.6 25.3) scale(.6 -.7)"
       gradientUnits="userSpaceOnUse"><stop
         offset="0"
         stop-color="#ffb648"
         id="stop3" /><stop
         offset="1"
         stop-color="#ff7800"
         stop-opacity="0"
         id="stop4" /></radialGradient><radialGradient
       id="_未命名的渐变_3"
       data-name="未命名的渐变 3"
       cx="61.7"
       cy="18.6"
       fx="61.7"
       fy="18.6"
       r="68"
       gradientTransform="translate(-26.8 25.8) scale(.6 -.7)"
       gradientUnits="userSpaceOnUse"><stop
         offset="0"
         stop-color="#c64600"
         id="stop5" /><stop
         offset="1"
         stop-color="#a51d2d"
         id="stop6" /></radialGradient><linearGradient
       id="linearGradient1261"><stop
         style="stop-color:#4f4f4f"
         offset="0"
         id="stop1-7" /><stop
         style="stop-color:#3f3f3f"
         offset="1"
         id="stop2-0" /></linearGradient><linearGradient
       id="linearGradient1263"
       x1="34.241"
       x2="37.169"
       y1="38.945"
       y2="30.342"
       gradientTransform="matrix(1.3919157,0,0,1.3888889,-1.321022,-0.4865665)"
       gradientUnits="userSpaceOnUse"
       xlink:href="#linearGradient1261" /><style
       id="style1-7">
      .st0 {
        fill-opacity: .5;
      }

      .st0, .st1, .st2, .st3, .st4, .st5, .st6, .st7 {
        fill: #fff;
      }

      .st8 {
        fill: #133c9a;
      }

      .st2, .st9 {
        display: none;
      }

      .st3 {
        fill-opacity: .2;
      }

      .st4 {
        fill-opacity: .9;
      }

      .st10 {
        fill: #3370ff;
      }

      .st11 {
        fill: url(#_未命名的渐变_3);
      }

      .st12 {
        fill: url(#_未命名的渐变);
      }

      .st5 {
        fill-opacity: .3;
      }

      .st6 {
        fill-opacity: 0;
      }

      .st7 {
        fill-opacity: .7;
      }

      .st13 {
        fill: #00d6b9;
      }

      .st14 {
        fill: url(#_未命名的渐变_2);
      }
    </style><radialGradient
       id="_未命名的渐变-8"
       data-name="未命名的渐变"
       cx="123.9"
       cy="-40.2"
       fx="123.9"
       fy="-40.2"
       r="59.4"
       gradientTransform="translate(-26.8 25.5) scale(.6 -.7)"
       gradientUnits="userSpaceOnUse"><stop
         offset="0"
         stop-color="#db202e"
         id="stop1-4" /><stop
         offset="1"
         stop-color="#e01b24"
         id="stop2-5" /></radialGradient><radialGradient
       id="_未命名的渐变_2-0"
       data-name="未命名的渐变 2"
       cx="67.6"
       cy="26.8"
       fx="67.6"
       fy="26.8"
       r="105.2"
       gradientTransform="translate(-26.6 25.3) scale(.6 -.7)"
       gradientUnits="userSpaceOnUse"><stop
         offset="0"
         stop-color="#ffb648"
         id="stop3-3" /><stop
         offset="1"
         stop-color="#ff7800"
         stop-opacity="0"
         id="stop4-6" /></radialGradient><radialGradient
       id="_未命名的渐变_3-1"
       data-name="未命名的渐变 3"
       cx="61.7"
       cy="18.6"
       fx="61.7"
       fy="18.6"
       r="68"
       gradientTransform="translate(-26.8 25.8) scale(.6 -.7)"
       gradientUnits="userSpaceOnUse"><stop
         offset="0"
         stop-color="#c64600"
         id="stop5-0" /><stop
         offset="1"
         stop-color="#a51d2d"
         id="stop6-6" /></radialGradient></defs><path
     class="st1"
     d="M47.5,64.1H13.8c-7.6,0-13.8-6.3-13.8-13.8V13.7C0,6.2,6.2,0,13.7,0h36.6c7.5,0,13.7,6.2,13.7,13.7v36.6c0,7.5-6.2,13.7-13.7,13.7h-2.9.1Z"
     id="path6"
     style="fill:#2bc89d;fill-opacity:1" /><g
     id="g27"
     transform="matrix(1.0601504,0,0,1,-3.9832916,-3.9926138)"><path
       style="opacity:0.1"
       d="M 50.924154,31.105299 C 41.57263,14.799841 34.17776,13.458661 28.780883,16.00323 c -2.636432,1.244726 -1.53409,2.388405 -5.291235,1.566241 -3.343769,-0.7303 -5.460184,-0.978327 -8.399759,0.390413 -2.939575,1.368741 -4.133778,2.736751 -4.133778,3.522168 0,0.785418 0.785418,-1.175829 2.939576,-1.377926 2.154158,-0.202096 5.657684,0 8.009346,1.763747 2.351659,1.763746 2.54457,3.312681 2.54457,4.098099 0,0.785419 -2.54839,-0.349075 -5.552267,0.390412 -2.654805,0.652219 -4.703321,1.426087 -4.900825,2.211503 -0.197502,0.785418 4.721842,0.302128 7.022978,0.297537 1.093155,0.03675 1.893076,-0.307736 2.655529,1.17583 0.79001,1.561649 0.978327,2.755852 1.961247,3.132486 0.982921,0.376632 1.175831,-0.780825 2.351661,1.570835 1.17583,2.351661 1.566242,3.200187 0.192909,6.727677 -1.373333,3.527492 -2.36875,6.219835 -1.780835,5.627327 0.459309,-0.459311 1.939946,-0.892209 2.468152,-1.57658 -0.146979,1.258507 0,3.573422 1.676477,6.154736 2.939575,4.505819 7.238704,4.133778 13.319951,5.690835 9.466352,2.383812 13.618174,2.242026 15.602385,5.47556 0.390413,0.638439 0.638441,1.198795 0.220468,-0.330703 C 57.739965,55.38955 56.66092,41.10445 50.924154,31.105299 Z"
       id="path2" /><path
       style="fill:#3e4d64"
       d="M 50.924154,30.105299 C 41.57263,13.799841 34.17776,12.458661 28.780883,15.00323 c -2.636432,1.244726 -1.53409,2.388405 -5.291235,1.566241 -3.343769,-0.7303 -5.460184,-0.978327 -8.399759,0.390413 -2.939575,1.368741 -4.133778,2.736751 -4.133778,3.522168 0,0.785418 0.785418,-1.175829 2.939576,-1.377926 2.154158,-0.202096 5.657684,0 8.009346,1.763747 2.351659,1.763746 2.54457,3.312681 2.54457,4.098099 0,0.785419 -2.54839,-0.349075 -5.552267,0.390412 -2.654805,0.652219 -4.703321,1.426087 -4.900825,2.211503 -0.197502,0.785418 4.721842,0.302128 7.022978,0.297537 1.093155,0.03675 1.893076,-0.307736 2.655529,1.17583 0.79001,1.561649 0.978327,2.755852 1.961247,3.132486 0.982921,0.376632 1.175831,-0.780825 2.351661,1.570835 1.17583,2.351661 1.566242,3.200187 0.192909,6.727677 -1.373333,3.527492 -2.36875,6.219835 -1.780835,5.627327 0.459309,-0.459311 1.939946,-0.892209 2.468152,-1.57658 -0.146979,1.258507 0,3.573422 1.676477,6.154736 2.939575,4.505819 7.238704,4.133778 13.319951,5.690835 9.466352,2.383812 13.618174,2.242026 15.602385,5.47556 0.390413,0.638439 0.638441,1.198795 0.220468,-0.330703 C 57.739965,54.38955 56.66092,40.10445 50.924154,30.105299 Z"
       id="path3" /><circle
       style="opacity:0.2"
       cx="30.5"
       cy="19.5"
       r="1.5"
       id="circle3" /><circle
       style="fill:#ffffff"
       cx="30.5"
       cy="18.5"
       r="1.5"
       id="circle4" /></g></svg>
