<?xml version="1.0" encoding="UTF-8"?>
<svg id="_图层_1" xmlns="http://www.w3.org/2000/svg" version="1.1" viewBox="0 0 64 64" width="32" height="32">
  <!-- Generator: Adobe Illustrator 29.0.1, SVG Export Plug-In . SVG Version: 2.1.0 Build 192)  -->
  <defs>
    <style>
      .st0 {
        fill: #4f4f4f;
      }

      .st1 {
        fill: #797979;
      }

      .st2, .st3, .st4, .st5, .st6, .st7, .st8, .st9, .st10 {
        isolation: isolate;
      }

      .st2, .st3, .st5, .st7, .st8, .st9 {
        opacity: .2;
      }

      .st2, .st11, .st12, .st13, .st9 {
        display: none;
      }

      .st3, .st5, .st14 {
        fill-rule: evenodd;
      }

      .st15 {
        fill: #4d4d4d;
      }

      .st16, .st5, .st8, .st9, .st10 {
        fill: #fff;
      }

      .st11 {
        fill: #ff4848;
      }

      .st17 {
        fill: #ff4a3e;
      }

      .st4, .st10 {
        opacity: .1;
      }

      .st18 {
        fill: #ff961b;
      }

      .st19 {
        fill: #ff8602;
      }

      .st12, .st20 {
        fill: #d2d2d2;
      }

      .st21 {
        fill: #94ff57;
      }

      .st14 {
        fill: #ffe330;
      }

      .st6 {
        opacity: .3;
      }

      .st22 {
        fill: #57beff;
      }

      .st23 {
        fill: #02ace5;
      }
    </style>
  </defs>
  <path class="st20" d="M50.4,64H13.8c-7.6,0-13.8-6.2-13.8-13.7V13.7C0,6.2,6.2,0,13.7,0h36.5c7.5,0,13.7,6.2,13.7,13.7v36.6c0,7.5-6.2,13.7-13.7,13.7h.1Z"/>
  <g class="st13">
    <path class="st7" d="M27.9,4c-.1,0-.3,0-.4,0-1.2.2-1.9,1.6-1.7,3.1v.6c-1.6.4-3.2,1-4.7,1.7l-.3-.5c-.8-1.4-2.2-2-3.3-1.4-1,.6-1.2,2.2-.4,3.5l.3.5c-1.7,1.1-3.2,2.5-4.5,4l-.5-.3c-1.3-.9-2.8-.9-3.5,0-.7.9-.2,2.5,1,3.4l.5.4c-.9,1.4-1.6,3-2.2,4.6l-.6-.2c-1.5-.4-3,.2-3.3,1.3s.7,2.4,2.2,2.8l.6.2c-.3,1.4-.4,2.9-.4,4.4,0,.5,0,1.1,0,1.6h-.6c-1.6.3-2.7,1.4-2.5,2.6.2,1.2,1.6,1.9,3.1,1.7h.6c.4,1.6,1,3.2,1.7,4.7l-.5.3c-1.4.8-2,2.2-1.4,3.3.6,1,2.2,1.2,3.5.4l.5-.3c1.1,1.7,2.5,3.2,4,4.5l-.3.5c-.9,1.3-.9,2.8,0,3.5.9.7,2.5.2,3.4-1l.4-.5c1.4.9,3,1.6,4.6,2.2l-.2.6c-.4,1.5.2,3,1.3,3.3s2.4-.7,2.8-2.2l.2-.6c1.4.3,2.9.4,4.4.4.5,0,1.1,0,1.6,0v.6c.3,1.6,1.4,2.7,2.6,2.5,1.2-.2,1.9-1.6,1.7-3.1v-.6c1.6-.4,3.2-1,4.7-1.7l.3.5c.8,1.4,2.2,2,3.3,1.4,1-.6,1.2-2.2.4-3.5l-.3-.5c1.7-1.1,3.2-2.5,4.5-4l.5.3c1.3.9,2.8.9,3.5,0,.7-.9.2-2.5-1-3.4l-.5-.4c.9-1.4,1.6-3,2.2-4.6l.6.2c1.5.4,3-.2,3.3-1.3.3-1.1-.7-2.4-2.2-2.8l-.6-.2c.3-1.4.4-2.9.4-4.4,0-.5,0-1.1,0-1.6h.6c1.6-.3,2.7-1.4,2.5-2.6-.2-1.2-1.6-1.9-3.1-1.7h-.6c-.4-1.6-1-3.2-1.7-4.7l.5-.3c1.4-.8,2-2.2,1.4-3.3-.6-1-2.2-1.2-3.5-.4l-.5.3c-1.1-1.7-2.5-3.2-4-4.5l.3-.5c.9-1.3.9-2.8,0-3.5s-2.5-.2-3.4,1l-.4.5c-1.4-.9-3-1.6-4.6-2.2l.2-.6c.4-1.5-.2-3-1.3-3.3s-2.4.7-2.8,2.2l-.2.6c-1.4-.3-2.9-.4-4.4-.4-.5,0-1.1,0-1.6,0v-.6c-.3-1.4-1.2-2.4-2.2-2.5Z"/>
    <path class="st0" d="M27.5,3c-1.2.2-1.9,1.6-1.7,3.1l2.1,14.1-7.1-12.3c-.8-1.4-2.2-2-3.3-1.4-1,.6-1.2,2.2-.4,3.5l7.7,13.2-12.3-9.1c-1.3-.9-2.8-.9-3.5,0-.7.9-.2,2.5,1,3.4l11.5,8.5-13.8-3.7c-1.5-.4-3,.2-3.3,1.3-.3,1.1.7,2.4,2.2,2.8l14.8,3.9-15.1,2.3c-1.6.2-2.7,1.4-2.5,2.5.2,1.2,1.6,1.9,3.1,1.7l14.1-2.1-12.3,7.1c-1.4.8-2,2.2-1.4,3.3.6,1,2.2,1.2,3.5.4l13.2-7.7-9.1,12.3c-.9,1.3-.9,2.8,0,3.5.9.7,2.5.2,3.4-1l8.5-11.5-3.7,13.8c-.4,1.5.2,3,1.3,3.3s2.4-.7,2.8-2.2l3.9-14.8,2.3,15.1c.2,1.6,1.4,2.7,2.5,2.5s1.9-1.6,1.7-3.1l-2.1-14.1,7.1,12.3c.8,1.4,2.2,2,3.3,1.4,1-.6,1.2-2.2.4-3.5l-7.7-13.2,12.3,9.1c1.3.9,2.8.9,3.5,0,.7-.9.2-2.5-1-3.4l-11.5-8.5,13.8,3.7c1.5.4,3-.2,3.3-1.3.3-1.1-.7-2.4-2.2-2.8l-14.8-3.9,15.1-2.3c1.6-.2,2.7-1.4,2.5-2.5-.2-1.2-1.6-1.9-3.1-1.7l-14.1,2.1,12.3-7.1c1.4-.8,2-2.2,1.4-3.3-.6-1-2.2-1.2-3.5-.4l-13.2,7.7,9.1-12.3c.9-1.3.9-2.8,0-3.5s-2.5-.2-3.4,1l-8.5,11.5,3.7-13.8c.4-1.5-.2-3-1.3-3.3-1.1-.3-2.4.7-2.8,2.2l-3.9,14.8-2.3-15.1c-.2-1.6-1.4-2.7-2.5-2.5Z"/>
    <circle class="st0" cx="31.7" cy="31" r="25"/>
    <circle class="st6" cx="31.7" cy="31" r="17"/>
    <circle class="st7" cx="31.7" cy="32" r="13"/>
    <circle class="st1" cx="31.7" cy="31" r="13"/>
    <path class="st7" d="M34.5,12l-1.7,16h9.9l-13.8,24,2-17h-10.3l13.8-23Z"/>
    <path class="st19" d="M34.5,11l-1.7,16h9.9l-13.8,24,2-17h-10.3l13.8-23Z"/>
    <path class="st10" d="M27.9,3c-.1,0-.3,0-.4,0-1.1.2-1.9,1.5-1.7,3,.2-1.1.8-1.9,1.7-2,.1,0,.3,0,.4,0,1,.1,1.9,1.1,2.1,2.5v.6c.6,0,1.2,0,1.7,0,1.5,0,2.9.1,4.4.4l.2-.6c.4-1.5,1.6-2.5,2.8-2.2.8.2,1.3.9,1.4,1.8.2-1.3-.4-2.6-1.4-2.8-1.1-.3-2.4.7-2.8,2.2l-.2.6c-1.4-.3-2.9-.4-4.4-.4-.5,0-1.1,0-1.6,0v-.6c-.3-1.4-1.2-2.4-2.2-2.5ZM18.4,6.2c-.3,0-.6,0-.8.2-.7.4-1,1.3-.9,2.3.1-.6.4-1,.9-1.3,1-.6,2.5,0,3.3,1.4l.3.5c1.5-.7,3.1-1.3,4.8-1.7v-.6c-.1-.1-.1-.3-.1-.4-1.6.4-3.2.9-4.7,1.6l-.3-.5c-.6-1-1.6-1.6-2.4-1.6ZM40.4,7.6c0,.1,0,.2,0,.3l-.2.6c1.6.6,3.1,1.3,4.6,2.2l.4-.5c.9-1.3,2.4-1.7,3.4-1,.4.3.6.6.7,1.1.2-.8,0-1.6-.7-2.1-.9-.7-2.5-.2-3.4,1l-.4.5c-1.4-.8-2.8-1.6-4.4-2.1ZM17,10.8c-1.5,1.1-2.9,2.3-4.1,3.7l-.5-.3c-1.3-.9-2.8-.9-3.5,0-.3.4-.4,1-.3,1.6,0-.2.1-.4.3-.6.7-.9,2.3-1,3.5,0l.5.3c1.3-1.5,2.8-2.9,4.5-4l-.3-.5c0,0,0-.1,0-.2ZM48.6,12.6s0,0,0,.1l-.3.5c1.5,1.3,2.9,2.8,4,4.5l.5-.3c1.4-.8,2.9-.6,3.5.4,0,.1.1.2.1.4.1-.5,0-1-.1-1.4-.6-1-2.2-1.2-3.5-.4l-.5.3c-1-1.5-2.2-2.9-3.6-4.1ZM10,18.6c-.7,1.2-1.3,2.5-1.8,3.9l-.6-.2c-1.5-.4-3,.2-3.3,1.3,0,.3,0,.6,0,.9.3-1.1,1.8-1.6,3.3-1.2l.6.2c.6-1.6,1.3-3.1,2.2-4.6l-.4-.3ZM54.7,21.1l-.3.2c.7,1.5,1.3,3.1,1.7,4.8h.6c1.4-.3,2.7.3,3,1.3,0-.2.1-.5,0-.8-.2-1.2-1.6-1.9-3.1-1.7h-.6c-.3-1.3-.8-2.6-1.3-3.9ZM7,27.6c-.2,1.1-.3,2.3-.3,3.4,0,.2,0,.4,0,.5,0-1.3.2-2.6.4-3.9h-.1ZM56.7,30.3h0c0,.4,0,.7,0,1.1,0-.2,0-.3,0-.5,0-.2,0-.4,0-.6ZM6.7,32.6h-.5c-1.6.3-2.7,1.4-2.5,2.6,0,0,0,.2,0,.2.3-.9,1.2-1.6,2.4-1.8h.6c0-.4,0-.7,0-1.1ZM56.4,35.4c0,.3,0,.6-.1,1l.6.2c1.1.3,1.9,1,2.2,1.9,0,0,0,0,0,0,.3-1.1-.7-2.4-2.2-2.8h-.4ZM8.8,41.8h-.2c-1.2.8-1.8,2-1.5,3,.2-.7.7-1.4,1.5-1.9l.5-.3c-.1-.3-.2-.5-.3-.8ZM53.4,44.3c-.1.2-.3.5-.4.7l.5.4c.7.5,1.1,1.2,1.3,1.8.2-.9-.2-2.1-1.3-2.8h0ZM14.8,50.3c-.5.8-.7,1.6-.6,2.3,0-.5.3-1,.6-1.5l.3-.5c-.1-.1-.3-.3-.4-.4ZM46.4,52.1c-.1.1-.3.2-.4.3l.3.5c.2.4.4.8.4,1.2.1-.6,0-1.3-.3-2ZM23,55.4c0,.4,0,.8,0,1.1,0-.1,0-.3,0-.4l.2-.6c0,0-.1,0-.2,0ZM37.7,56.2s0,0-.1,0v.6c0,0,0,0,0,0,0-.2,0-.5,0-.7Z"/>
    <path class="st8" d="M34.5,11l-13.8,23h.6l13-21.8v-1.2ZM32.9,27v1c-.1,0,9.2,0,9.2,0l.6-1h-9.8ZM30.9,35l-1.9,16,.2-.3,1.9-15.7h-.1Z"/>
  </g>
  <g class="st13">
    <path class="st2" d="M64,61.7V4.3c0-1.8-1.8-3.2-4-3.2H4C1.8,1.1,0,2.6,0,4.3v57.4C0,63.5,1.8,64.9,4,64.9h56c2.2,0,4-1.4,4-3.2Z"/>
    <path class="st11" d="M64,60.6V3.2c0-1.8-1.8-3.2-4-3.2H4C1.8,0,0,1.4,0,3.2v57.4C0,62.3,1.8,63.8,4,63.8h56c2.2,0,4-1.4,4-3.2Z"/>
    <path class="st7" d="M13.8,1.1c.2.5.4,1.3.4,1.3l.5,1.2h0s0,0,0,0c.1.3.2.6.3.9,0,.3.1.7.2,1,0,.3,0,.6,0,1,0,.3,0,.6,0,1,0,.3-.1.6-.2.9,0,.3-.2.6-.3.9-.1.3-.3.6-.5.9-.2.3-.4.5-.6.8h0c-.2.2-.4.5-.6.8-.2.3-.4.6-.5.8-.2.3-.3.6-.4.9-.1.3-.2.6-.3.9,0,.3-.1.6-.1,1,0,.3,0,.6,0,1s0,.7.2,1c0,.3.2.6.3,1,.1.3.2.5.4.8.1.3.3.5.5.7.3.5.7.9,1.2,1.3.4.4.9.8,1.4,1.1.5.3,1.1.6,1.6.8.6.2,1.2.4,1.8.6.6.1,1.3.2,1.9.3.7,0,1.3,0,2,0,.3,0,.7,0,1-.1.3,0,.7-.1,1-.2.3,0,.7-.2,1-.3.3-.1.6-.2.9-.4.6-.3,1.1-.6,1.6-.9.5-.3,1-.7,1.4-1.1s.8-.8,1-1.3c.3-.5.5-.9.7-1.4.2-.5.3-1,.4-1.5,0-.5,0-1,0-1.6,0-.3,0-.5-.2-.8,0-.3-.2-.5-.3-.8-.1-.3-.3-.6-.5-.9-.2-.3-.4-.6-.6-.9-.2-.3-.4-.5-.7-.8-.3-.2-.5-.5-.8-.7-.3-.2-.6-.4-.9-.6-.3-.2-.6-.4-1-.5-.3-.2-.7-.3-1-.4-.4-.1-.7-.2-1.1-.3h0c-.4-.1-.7-.2-1.1-.4-.3-.1-.7-.3-1-.5-.3-.2-.6-.4-1-.6-.3-.2-.6-.4-.9-.7-.3-.2-.5-.5-.8-.7-.2-.3-.5-.5-.7-.8-.2-.3-.4-.6-.6-.9-.1-.2-.2-.5-.3-.7h0s-.6-1.5-.6-1.5c0,0,0-.2,0-.3,0,0-4.2,0-4.2,0ZM42.7,17.1c-.4,0-.8,0-1.2,0-.4,0-.8,0-1.2.1-.4,0-.8.1-1.2.3-.3,0-.7.2-1,.3-.3.1-.6.2-.9.4-.6.3-1.1.6-1.6.9-.5.3-1,.7-1.4,1.1-.4.4-.8.8-1.1,1.3-.3.5-.5.9-.7,1.4-.2.5-.3,1-.3,1.5,0,.5,0,1,0,1.6,0,.3,0,.5.2.8,0,.3.2.5.3.8.1.3.2.5.4.8.1.2.3.5.5.7.3.5.7.9,1.2,1.3.4.4.9.7,1.5,1.1.5.3,1.1.6,1.7.8.6.2,1.2.4,1.8.5.6.1,1.3.2,2,.3.7,0,1.4,0,2,0,.3,0,.7,0,1-.1s.7-.1,1-.2c.4-.1.8-.2,1.2-.4.4-.1.7-.3,1.1-.5.3-.2.7-.4,1-.6.3-.2.6-.4.9-.6.3-.2.5-.5.8-.7.2-.2.5-.5.7-.8.2-.3.4-.5.6-.8.2-.3.3-.6.4-.9h0c.1-.2.3-.5.4-.8.2-.3.4-.5.6-.8.2-.3.5-.5.7-.8.3-.2.5-.5.8-.7s.6-.4.9-.6c.3-.2.7-.4,1-.5.4-.2.7-.3,1.1-.5.3-.1.6-.2.9-.3h0c1.7-.3,3.4-.3,5.2-.3v-3.2c-1.9,0-3.8,0-6.2.4h0s0,0,0,0c-.4.1-.8.2-1.2.3-.4,0-.8.1-1.2.1-.4,0-.8,0-1.2,0-.4,0-.8,0-1.2,0-.4,0-.8,0-1.2-.2-.4,0-.8-.2-1.2-.3s-.7-.2-1.1-.3c-.4-.1-.7-.3-1-.5h0c-.3-.1-.7-.3-1-.5-.4-.1-.7-.3-1.1-.4-.4-.1-.8-.2-1.1-.3-.4,0-.8-.1-1.2-.2-.4,0-.8,0-1.2,0ZM12.7,26.2c-.3,0-.7,0-1,0-.3,0-.7,0-1,.1s-.7.1-1,.2c-.4.1-.8.2-1.2.4-.4.1-.7.3-1.1.5-.3.2-.7.4-1,.6-.3.2-.6.4-.9.6-.3.2-.5.5-.8.7-.2.2-.5.5-.7.8-.2.3-.4.5-.5.8-.2.3-.3.6-.4.9h0c-.1.2-.3.5-.4.8-.2.3-.4.5-.6.8-.5.5-1.2.8-2,.9v5.1h1.2c.4,0,.8,0,1.2,0,.4,0,.8,0,1.2.2.4,0,.8.2,1.2.3.4.1.7.2,1.1.4.4.1.7.3,1,.4h0c.3.1.7.3,1,.5.3.1.7.3,1.1.4.4.1.8.2,1.1.3.4,0,.8.1,1.2.2.4,0,.8,0,1.2.1.4,0,.8,0,1.2,0,.4,0,.8,0,1.2-.1.4,0,.8-.1,1.2-.3.3,0,.7-.2,1-.3.3-.1.6-.2.9-.4.6-.3,1.1-.6,1.6-.9s1-.7,1.4-1.1c.4-.4.8-.8,1-1.3.3-.5.5-.9.7-1.4.2-.5.3-1,.3-1.5,0-.5,0-1,0-1.6,0-.3,0-.5-.2-.8,0-.3-.2-.5-.3-.8-.1-.3-.2-.5-.4-.8-.1-.2-.3-.5-.5-.7-.3-.5-.7-.9-1.2-1.3-.4-.4-.9-.7-1.5-1.1-.5-.3-1.1-.6-1.7-.8-.6-.2-1.2-.4-1.8-.5s-1.3-.2-2-.3c-.3,0-.7,0-1,0ZM33.3,33.1c-.3,0-.7,0-1,0-.3,0-.7,0-1,.1-.3,0-.7.1-1,.2s-.7.2-1,.3-.6.2-.9.4c-.6.3-1.1.6-1.6.9-.5.3-1,.7-1.4,1.1-.4.4-.8.9-1,1.3-.3.5-.5.9-.7,1.4-.2.5-.3,1-.4,1.5,0,.5,0,1.1,0,1.6,0,.3,0,.5.2.8,0,.3.2.5.3.8.1.3.3.6.5.9s.4.6.6.9.4.5.7.8c.3.2.5.5.8.7.3.2.6.4.9.6.3.2.6.4,1,.5.3.2.7.3,1,.4.4.1.7.2,1.1.3h0c.4.1.7.2,1.1.4.3.1.7.3,1,.5s.7.4,1,.6c.3.2.6.4.9.7s.6.5.8.7.5.5.7.8c.2.3.4.6.6.9.1.2.2.5.3.7h0s.7,1.5.7,1.5c0,0,1.2,3,1.7,7h4.1c-.5-4.6-2-8.1-2-8.1l-.5-1.2h0s0,0,0,0c-.1-.3-.2-.6-.3-1s-.2-.6-.2-1c0-.3,0-.7,0-1,0-.3,0-.7,0-1,0-.3.1-.6.2-.9,0-.3.2-.6.3-.9.1-.3.3-.6.5-.9.2-.3.4-.5.6-.8h0c.2-.2.4-.5.6-.8.2-.3.4-.6.5-.8.2-.3.3-.6.4-.9.1-.3.2-.6.3-.9s.1-.6.1-.9,0-.6,0-1c0-.3,0-.6-.2-1,0-.3-.2-.6-.3-1-.1-.3-.2-.5-.4-.8-.1-.3-.3-.5-.5-.7-.3-.5-.7-.9-1.2-1.3-.4-.4-.9-.8-1.4-1.1-.5-.3-1.1-.6-1.6-.8-.6-.2-1.2-.4-1.8-.6s-1.3-.2-1.9-.3c-.3,0-.7,0-1,0h0Z"/>
    <path class="st16" d="M13.8,0c.2.5.4,1.3.4,1.3l.5,1.2h0s0,0,0,0c.1.3.2.6.3.9,0,.3.1.7.2,1,0,.3,0,.6,0,1,0,.3,0,.6,0,1,0,.3-.1.6-.2.9,0,.3-.2.6-.3.9-.1.3-.3.6-.5.9-.2.3-.4.5-.6.8h0c-.2.2-.4.5-.6.8-.2.3-.4.6-.5.8-.2.3-.3.6-.4.9-.1.3-.2.6-.3.9,0,.3-.1.6-.1,1,0,.3,0,.6,0,1s0,.7.2,1c0,.3.2.6.3,1,.1.3.2.5.4.8.1.3.3.5.5.7.3.5.7.9,1.2,1.3.4.4.9.8,1.4,1.1.5.3,1.1.6,1.6.8.6.2,1.2.4,1.8.6.6.1,1.3.2,1.9.3.7,0,1.3,0,2,0,.3,0,.7,0,1-.1.3,0,.7-.1,1-.2s.7-.2,1-.3c.3-.1.6-.2.9-.4.6-.3,1.1-.6,1.6-.9.5-.3,1-.7,1.4-1.1s.8-.8,1-1.3c.3-.5.5-.9.7-1.4.2-.5.3-1,.4-1.5,0-.5,0-1,0-1.6,0-.3,0-.5-.2-.8,0-.3-.2-.5-.3-.8-.1-.3-.3-.6-.5-.9-.2-.3-.4-.6-.6-.9-.2-.3-.4-.5-.7-.8-.3-.2-.5-.5-.8-.7-.3-.2-.6-.4-.9-.6-.3-.2-.6-.4-1-.5-.3-.2-.7-.3-1-.4-.4-.1-.7-.2-1.1-.3h0c-.4-.1-.7-.2-1.1-.4-.3-.1-.7-.3-1-.5-.3-.2-.6-.4-1-.6-.3-.2-.6-.4-.9-.7-.3-.2-.5-.5-.8-.7-.2-.3-.5-.5-.7-.8-.2-.3-.4-.6-.6-.9-.1-.2-.2-.5-.3-.7h0s-.6-1.5-.6-1.5c0,0,0-.2,0-.3C17.9,0,13.8,0,13.8,0ZM42.7,15.9c-.4,0-.8,0-1.2,0-.4,0-.8,0-1.2.1-.4,0-.8.1-1.2.2-.3,0-.7.2-1,.3-.3.1-.6.2-.9.4-.6.3-1.1.6-1.6.9-.5.3-1,.7-1.4,1.1-.4.4-.8.8-1.1,1.3-.3.5-.5.9-.7,1.4-.2.5-.3,1-.3,1.5,0,.5,0,1,0,1.6,0,.3,0,.5.2.8,0,.3.2.5.3.8.1.3.2.5.4.8.1.2.3.5.5.7.3.5.7.9,1.2,1.3.4.4.9.7,1.5,1.1.5.3,1.1.6,1.7.8.6.2,1.2.4,1.8.5.6.1,1.3.2,2,.3.7,0,1.4,0,2,0,.3,0,.7,0,1-.1s.7-.1,1-.2c.4-.1.8-.2,1.2-.4.4-.1.7-.3,1.1-.5.3-.2.7-.4,1-.6.3-.2.6-.4.9-.6.3-.2.5-.5.8-.7.2-.2.5-.5.7-.8.2-.3.4-.5.6-.8s.3-.6.4-.9h0c.1-.2.3-.5.4-.8.2-.3.4-.5.6-.8.2-.3.5-.5.7-.8.3-.2.5-.5.8-.7.3-.2.6-.4.9-.6.3-.2.7-.4,1-.5.4-.2.7-.3,1.1-.5.3-.1.6-.2.9-.3h0c1.7-.3,3.4-.3,5.2-.3v-3.2c-1.9,0-3.8,0-6.2.4h0s0,0,0,0c-.4.1-.8.2-1.2.3-.4,0-.8.1-1.2.1-.4,0-.8,0-1.2,0-.4,0-.8,0-1.2,0-.4,0-.8,0-1.2-.2-.4,0-.8-.2-1.2-.3-.4-.1-.7-.2-1.1-.3s-.7-.3-1-.5h0c-.3-.1-.7-.3-1-.5-.4-.1-.7-.3-1.1-.4-.4-.1-.8-.2-1.1-.3-.4,0-.8-.1-1.2-.2-.4,0-.8,0-1.2,0h0ZM12.7,25.1c-.3,0-.7,0-1,0-.3,0-.7,0-1,.1s-.7.1-1,.2c-.4.1-.8.2-1.2.4-.4.1-.7.3-1.1.5-.3.2-.7.4-1,.6-.3.2-.6.4-.9.6-.3.2-.5.5-.8.7-.2.2-.5.5-.7.8-.2.3-.4.5-.5.8-.2.3-.3.6-.4.9h0c-.1.2-.3.5-.4.8-.2.3-.4.5-.6.8-.5.5-1.2.8-2,.9v5.1h1.2c.4,0,.8,0,1.2,0,.4,0,.8,0,1.2.2.4,0,.8.2,1.2.3.4.1.7.2,1.1.4.4.1.7.3,1,.4h0c.3.1.7.3,1,.5.3.1.7.3,1.1.4.4.1.8.2,1.1.3.4,0,.8.1,1.2.2.4,0,.8,0,1.2.1.4,0,.8,0,1.2,0,.4,0,.8,0,1.2-.1.4,0,.8-.1,1.2-.3.3,0,.7-.2,1-.3.3-.1.6-.2.9-.4.6-.3,1.1-.6,1.6-.9s1-.7,1.4-1.1c.4-.4.8-.8,1-1.3.3-.5.5-.9.7-1.4.2-.5.3-1,.3-1.5,0-.5,0-1,0-1.6,0-.3,0-.5-.2-.8,0-.3-.2-.5-.3-.8-.1-.3-.2-.5-.4-.8-.1-.2-.3-.5-.5-.7-.3-.5-.7-.9-1.2-1.3-.4-.4-.9-.7-1.5-1.1-.5-.3-1.1-.6-1.7-.8-.6-.2-1.2-.4-1.8-.5s-1.3-.2-2-.3c-.3,0-.7,0-1,0ZM33.3,32c-.3,0-.7,0-1,0-.3,0-.7,0-1,.1-.3,0-.7.1-1,.2s-.7.2-1,.3-.6.2-.9.4c-.6.3-1.1.6-1.6.9-.5.3-1,.7-1.4,1.1-.4.4-.8.9-1,1.3-.3.5-.5.9-.7,1.4-.2.5-.3,1-.4,1.5,0,.5,0,1.1,0,1.6,0,.3,0,.5.2.8,0,.3.2.5.3.8.1.3.3.6.5.9.2.3.4.6.6.9s.4.5.7.8c.3.2.5.5.8.7.3.2.6.4.9.6.3.2.6.4,1,.5.3.2.7.3,1,.4.4.1.7.2,1.1.3h0c.4.1.7.2,1.1.4.3.1.7.3,1,.5s.7.4,1,.6c.3.2.6.4.9.7s.6.5.8.7.5.5.7.8c.2.3.4.6.6.9.1.2.2.5.3.7h0s.7,1.5.7,1.5c0,0,1.8,4.2,2,9.3h4c-.2-5.7-2.2-10.3-2.2-10.3l-.5-1.2h0s0,0,0,0c-.1-.3-.2-.6-.3-1,0-.3-.2-.6-.2-1,0-.3,0-.7,0-1,0-.3,0-.7,0-1,0-.3.1-.6.2-.9,0-.3.2-.6.3-.9.1-.3.3-.6.5-.9.2-.3.4-.5.6-.8h0c.2-.2.4-.5.6-.8.2-.3.4-.6.5-.8.2-.3.3-.6.4-.9.1-.3.2-.6.3-.9,0-.3.1-.6.1-.9,0-.3,0-.6,0-1,0-.3,0-.6-.2-1,0-.3-.2-.6-.3-1-.1-.3-.2-.5-.4-.8-.1-.3-.3-.5-.5-.7-.3-.5-.7-.9-1.2-1.3-.4-.4-.9-.8-1.4-1.1-.5-.3-1.1-.6-1.6-.8-.6-.2-1.2-.4-1.8-.6s-1.3-.2-1.9-.3-.7,0-1,0Z"/>
    <path class="st9" d="M4,0C1.8,0,0,1.4,0,3.2v1.1C0,2.6,1.8,1.1,4,1.1h56c2.2,0,4,1.4,4,3.2v-1.1c0-1.8-1.8-3.2-4-3.2H4Z"/>
  </g>
  <g class="st13">
    <path class="st7" d="M12.5,5C5.7,5,.3,9.9.3,16.1v24.9c0,6.1,5.4,11.1,12.2,11.1h4.6V5h-4.6ZM46.2,14v47h4.6c6.8,0,12.2-4.9,12.2-11.1v-24.9c0-6.1-5.4-11.1-12.2-11.1h-4.6ZM28.2,23l-.8,4h-4.1l-.6,3h4.1l-1.1,6h-4.2l-.6,3h4.2l-1.1,5h3.2l1.1-5h4.7l-1.1,5h3.2l1.1-5h4.2l.6-3h-4.2l1.1-6h4.3l.6-3h-4.3l.8-4h-3.2l-.8,4h-4.7l.8-4h-3.2ZM30,30h4.7l-1.1,6h-4.7l1.1-6Z"/>
    <path class="st23" d="M17.1,4v47h-4.6c-6.8,0-12.2-4.9-12.2-11.1V15.1C.3,8.9,5.7,4,12.5,4h4.6Z"/>
    <path class="st17" d="M46.2,13v47h4.6c6.8,0,12.2-4.9,12.2-11.1v-24.9c0-6.1-5.4-11.1-12.2-11.1h-4.6Z"/>
    <path class="st17" d="M36,22l-.8,4h-2.2l-.6,3h2.2l-1.1,6h-2.3l-.6,3h2.3l-1.1,5h3.2l1.1-5h4.2l.6-3h-4.2l1.1-6h4.3l.6-3h-4.3l.8-4h-3.2Z"/>
    <path class="st23" d="M28.2,22l-.8,4h-4.1l-.6,3h4.1l-1.1,6h-4.2l-.6,3h4.2l-1.1,5h3.2l1.1-5h2.3l.6-3h-2.4l1.1-6h2.4l.6-3h-2.5l.8-4h-3.2Z"/>
    <path class="st8" d="M12.5,4C5.7,4,.3,8.9.3,15.1v1C.3,9.9,5.7,5,12.5,5h4.6v-1h-4.6ZM46.2,13v1h4.6c6.8,0,12.2,4.9,12.2,11.1v-1c0-6.1-5.4-11.1-12.2-11.1h-4.6ZM28.2,22l-.8,4h-4.1l-.6,3h.2l.4-2h4.1l.8-4h3l.2-1h-3.2ZM36,22l-.8,4h-4.5l-.2,1h4.7l.8-4h3l.2-1h-3.2ZM38.6,26l-.2,1h4.1l.2-1h-4.1ZM26.6,30l-.9,5h-4.2l-.6,3h.2l.4-2h4.2l1.1-6h-.2ZM34.4,30l-.9,5h-4.5l-.2,1h4.7l1.1-6h-.2ZM36.9,35l-.2,1h4l.2-1h-4ZM24.9,39l-.9,4h.2l.9-4h-.2ZM32.7,39l-.9,4h.2l.9-4h-.2Z"/>
  </g>
  <g class="st13">
    <path class="st3" d="M9.8,35.5c-.2,0-4,0-.2,3.6l20.4,18.5c.8.7,1.5,1,2.5,1,1,0,1.8-.4,2.5-1l20.4-18.5c3.8-3.6,0-3.6-.2-3.6h-22.8s-22.8,0-22.8,0Z"/>
    <path class="st18" d="M19.2,7.9c-1,0-2.4,1.1-2.4,2.5v26h31.7V10.4c0-1.4-1.4-2.5-2.4-2.5h-26.8Z"/>
    <path class="st14" d="M9.8,34.6c-.2,0-4,0-.2,3.6l20.4,18.5c.8.7,1.5,1,2.5,1,1,0,1.8-.4,2.5-1l20.4-18.5c3.8-3.6,0-3.6-.2-3.6h-22.8s-22.8,0-22.8,0Z"/>
    <path class="st10" d="M19.2,7.9c-1,0-2.4,1.1-2.4,2.5v.9c0-1.4,1.4-2.5,2.4-2.5h26.8c1,0,2.4,1.1,2.4,2.5v-.9c0-1.4-1.4-2.5-2.4-2.5h-26.8Z"/>
    <path class="st5" d="M9.8,34.6c-.2,0-2.4,0-1.8,1.6.4-.7,1.7-.7,1.8-.7h45.5c.1,0,1.4,0,1.8.7.6-1.6-1.6-1.6-1.8-1.6H9.8Z"/>
  </g>
  <g>
    <path class="st2" d="M32,1.1C14.5,1.1.4,15.2.4,32.7s14.1,31.7,31.6,31.7,31.6-14.1,31.6-31.7S49.5,1.1,32,1.1Z"/>
    <path class="st12" d="M32,0C14.5,0,.4,14.1.4,31.7s14.1,31.7,31.6,31.7,31.6-14.1,31.6-31.7S49.5,0,32,0Z"/>
    <path class="st4" d="M48.2,16.5c8.9,9,8.9,23.5,0,32.4-8.9,9-23.4,9-32.4,0s-8.9-23.5,0-32.4,23.4-9,32.4,0Z"/>
    <path class="st15" d="M48.2,15.4c8.9,9,8.9,23.5,0,32.4-8.9,9-23.4,9-32.4,0-8.9-9-8.9-23.5,0-32.4s23.4-9,32.4,0Z"/>
    <path class="st7" d="M45.9,18.9c-1.8-1.8-3.9-3.2-6.1-4.1l-8.5,18.8,18.8-8.6c-1-2.2-2.3-4.3-4.1-6.1Z"/>
    <path class="st22" d="M45.9,17.8c-1.8-1.8-3.9-3.2-6.1-4.1l-8.5,18.8,18.8-8.6c-1-2.2-2.3-4.3-4.1-6.1Z"/>
    <ellipse class="st7" cx="32" cy="15.3" rx="3.3" ry="3.3"/>
    <ellipse class="st21" cx="32" cy="14.2" rx="3.3" ry="3.3"/>
    <ellipse class="st7" cx="32" cy="50.2" rx="3.3" ry="3.3"/>
    <ellipse class="st21" cx="32" cy="49.1" rx="3.3" ry="3.3"/>
    <ellipse class="st7" cx="49.5" cy="32.7" rx="3.3" ry="3.3"/>
    <ellipse class="st21" cx="49.5" cy="31.7" rx="3.3" ry="3.3"/>
    <ellipse class="st7" cx="14.6" cy="32.7" rx="3.3" ry="3.3"/>
    <ellipse class="st21" cx="14.6" cy="31.7" rx="3.3" ry="3.3"/>
    <path class="st9" d="M32,0C14.5,0,.4,14.1.4,31.7s0,.2,0,.4C.8,14.8,14.8,1.1,32,1.1s31.2,13.7,31.6,30.9c0-.1,0-.2,0-.4C63.6,14.1,49.5,0,32,0Z"/>
  </g>
</svg>