<?xml version="1.0" encoding="UTF-8"?>
<svg id="_图层_1" xmlns="http://www.w3.org/2000/svg" version="1.1" viewBox="0 0 64 64" width="32" height="32">
  <!-- Generator: Adobe Illustrator 29.0.1, SVG Export Plug-In . SVG Version: 2.1.0 Build 192)  -->
  <defs>
    <style>
      .st0, .st1, .st2 {
        fill: #fff;
      }

      .st3 {
        fill: #ee545f;
      }

      .st1 {
        opacity: .3;
      }

      .st1, .st4, .st2 {
        isolation: isolate;
      }

      .st5 {
        fill: #8e8e8e;
      }

      .st6 {
        fill: #bc7538;
      }

      .st4, .st2 {
        opacity: .2;
      }

      .st7 {
        display: none;
      }

      .st8 {
        fill: #f4955b;
      }

      .st9 {
        fill: #f12a2a;
      }
    </style>
  </defs>
  <path class="st0" d="M50.4,64H13.8c-7.6,0-13.8-6.2-13.8-13.7V13.7C0,6.2,6.2,0,13.7,0h36.5c7.5,0,13.7,6.2,13.7,13.7v36.6c0,7.5-6.2,13.7-13.7,13.7h.1Z"/>
  <g class="st7">
    <g>
      <path class="st4" d="M43,46.3c0,0-.1.1-.2.2,0,0,.2.1.2.3.2.3.8.7,1.2.9,1.2.6,3.2,2.9,3.8,4.3l.4,1.1.9.2c1.2.2,1.6.5,2,1.2.4.8,1.7.5,2.5.3.2-.8.5-2.1-.3-2.6-.7-.4-1-.8-1.2-2l-.2-.9-1.1-.4c-1.4-.6-3.7-2.6-4.3-3.8-.2-.5-.6-1-.9-1.2-.1-.1-.2-.2-.3-.3l-2.7,2.7h0Z"/>
      <path class="st4" d="M8.5,8.9l.4,9.1,22.5,22.7,4.3-4.3,4.3-4.3L17.5,9.4l-9-.4h0Z"/>
      <path class="st5" d="M8.5,8.1l.4,9.1,22.5,22.7,4.3-4.3,4.3-4.3L17.5,8.6l-9-.4h0Z"/>
      <path class="st1" d="M8.5,8.1s26.9,27.1,27.2,27.5l4.3-4.3L17.5,8.6l-9-.4h0Z"/>
      <path class="st6" d="M43,45.5c0,0-.1.1-.2.2,0,0,.2.1.2.3.2.3.8.7,1.2.9,1.2.6,3.2,2.9,3.8,4.3l.4,1.1.9.2c1.2.2,1.6.5,2,1.2.4.8,1.7.5,2.5.3.2-.8.5-2.1-.3-2.6-.7-.4-1-.8-1.2-2l-.2-.9-1.1-.4c-1.4-.6-3.7-2.6-4.3-3.8-.2-.5-.6-1-.9-1.2-.1-.1-.2-.2-.3-.3l-2.7,2.7h0Z"/>
      <path class="st4" d="M43,17.1c-.4,0-.6.7-1.1,2.3-.7,2.1-.8,3.4-.5,5.2.4,2.1.2,2.6-1.1,2.5-1.1-.1-1.4,0-.5.3.4.1.7.5,1.2,1.2.5.8.7,1.1.7,2,0,.6,0,1.3-.2,1.5-.2.5-.9.4-1.5-.2l-.4-.4-.8,1c-1.1,1.3-1.9,1.7-3.5,1.7-.7,0-2.2-.7-2.3-.7,0,0,.7,1.5.7,2.2,0,1.6-.4,2.5-1.7,3.6l-1,.8.4.4c.6.6.6,1.3.2,1.5-.2.1-.4.2-1,.2-.8,0-1.6-.2-2.4-.7-.7-.5-1.1-.8-1.2-1.2-.3-.8-.5-.6-.3.5.1,1.2-.4,1.5-2.5,1.1-1.8-.3-3.1-.2-5.2.5-1.1.4-1.8.5-2.1.8-.2.2-.2.3,0,.4.1.1.9.4,1.7.6,1.5.4,2.6.6,2.4.8,0,0-.2.4-.9.7-.7.3-1.4.7-1.5.8-.5.5,1,1.1,3.1,1,.7,0,1.3,0,1.3,0,.1.1-1.2,1.3-2.3,1.9-1.2.7-1.2,1.1,0,1.4,1.5.3,2.8,0,4.1-.9,2-1.4,2.3-1.2,1,.9-.7,1.2-.9,1.6-.9,2.4,0,.5,0,1,.2,1,.4,0,4-3,4.7-3.9,1-1.3,1.3-1.1.9.6-.2.6-.3,1.7-.2,2.3v1.1c.1,0,1-.9,1-.9,1.1-1.1,2-2.4,2.5-3.9.2-.6.5-1.1.6-1.1.1,0,.4.5.6,1,.2.5.6,1.3.9,1.7.5.7.6.8.9.5.5-.5.8-1.5,1.1-3.4l.2-1.7,1,.4c.8.3,1.1.3,2.2-.1.9-.3,1.1-.4,1.3-.3,0,0,.1-.1.2-.2l2.7-2.8s0,0,0,0c-.2-.2,0-.5.3-1.3.4-1.1.4-1.4.1-2.2l-.4-1,1.7-.2c1.8-.3,2.8-.6,3.3-1.1.3-.3.2-.4-.5-.9-.4-.3-1.2-.8-1.7-1-.5-.2-.9-.4-.9-.6,0-.1.4-.4,1-.6,1.4-.6,2.7-1.4,3.8-2.5l.9-.9h-1.1c-.6-.2-1.6,0-2.3,0-1.6.4-1.8.2-.6-.9.9-.7,3.8-4.4,3.8-4.8,0,0-.4-.1-1-.2-.8,0-1.2.1-2.3.9-2.1,1.4-2.3,1.1-.9-1,.9-1.4,1.2-2.7.9-4.2-.3-1.3-.7-1.3-1.4,0-.6,1.1-1.7,2.5-1.8,2.3,0,0,0-.7,0-1.3.1-2.1-.4-3.7-1-3.1-.1.1-.4.8-.7,1.5-.3.7-.6.9-.7.9-.2.2-.4-.9-.8-2.4-.2-.9-.5-1.6-.6-1.7,0,0,0,0-.2,0h0ZM52.3,49.3l.2.9c0,.3.1.6.2.8,0-.2-.1-.5-.2-.8l-.2-.9ZM48.5,53.2h.8c0,.1-.8,0-.8,0h0ZM54.2,53.4c0,.5-.1,1-.2,1.4.1-.4.2-.9.2-1.4Z"/>
      <path class="st2" d="M8.5,8.1v.8s9,.4,9,.4l22.1,22.3.4-.4L17.5,8.6l-9-.4h0Z"/>
      <path class="st8" d="M43,16.3c-.4,0-.6.7-1.1,2.3-.7,2.1-.8,3.4-.5,5.2.4,2.1.2,2.6-1.1,2.5-1.1-.1-1.4,0-.5.3.4.1.7.5,1.2,1.2.5.8.7,1.1.7,2,0,.6,0,1.3-.2,1.5-.2.5-.9.4-1.5-.2l-.4-.4-.8,1c-1.1,1.3-1.9,1.7-3.5,1.7-.7,0-2.2-.7-2.3-.7,0,0,.7,1.5.7,2.2,0,1.6-.4,2.5-1.7,3.6l-1,.8.4.4c.6.6.6,1.3.2,1.5-.2.1-.4.2-1,.2-.8,0-1.6-.2-2.4-.7-.7-.5-1.1-.8-1.2-1.2-.3-.8-.5-.6-.3.5.1,1.2-.4,1.5-2.5,1.1-1.8-.3-3.1-.2-5.2.5-1.1.4-1.8.5-2.1.8-.2.2-.2.3,0,.4.1.1.9.4,1.7.6,1.5.4,2.6.6,2.4.8,0,0-.2.4-.9.7-.7.3-1.4.7-1.5.8-.5.5,1,1.1,3.1,1,.7,0,1.3,0,1.3,0,.1.1-1.2,1.3-2.3,1.9-1.2.7-1.2,1.1,0,1.4,1.5.3,2.8,0,4.1-.9,2-1.4,2.3-1.2,1,.9-.7,1.2-.9,1.6-.9,2.4,0,.5,0,1,.2,1,.4,0,4-3,4.7-3.9,1-1.3,1.3-1.1.9.6-.2.6-.3,1.7-.2,2.3v1.1c.1,0,1-.9,1-.9,1.1-1.1,2-2.4,2.5-3.9.2-.6.5-1.1.6-1.1.1,0,.4.5.6,1,.2.5.6,1.3.9,1.7.5.7.6.8.9.5.5-.5.8-1.5,1.1-3.4l.2-1.7,1,.4c.8.3,1.1.3,2.2-.1.9-.3,1.1-.4,1.3-.3,0,0,.1-.1.2-.2l2.7-2.8s0,0,0,0c-.2-.2,0-.5.3-1.3.4-1.1.4-1.4.1-2.2l-.4-1,1.7-.2c1.8-.3,2.8-.6,3.3-1.1.3-.3.2-.4-.5-.9-.4-.3-1.2-.8-1.7-1-.5-.2-.9-.4-.9-.6,0-.1.4-.4,1-.6,1.4-.6,2.7-1.4,3.8-2.5l.9-.9h-1.1c-.6-.2-1.6,0-2.3,0-1.6.4-1.8.2-.6-.9.9-.7,3.8-4.4,3.8-4.8,0,0-.4-.1-1-.2-.8,0-1.2.1-2.3.9-2.1,1.4-2.3,1.1-.9-1,.9-1.4,1.2-2.7.9-4.2-.3-1.3-.7-1.3-1.4,0-.6,1.1-1.7,2.5-1.8,2.3,0,0,0-.7,0-1.3.1-2.1-.4-3.7-1-3.1-.1.1-.4.8-.7,1.5-.3.7-.6.9-.7.9-.2.2-.4-.9-.8-2.4-.2-.9-.5-1.6-.6-1.7,0,0,0,0-.2,0h0ZM52.3,48.5l.2.9c0,.3.1.6.2.8,0-.2-.1-.5-.2-.8l-.2-.9ZM48.5,52.3h.8c0,.1-.8,0-.8,0h0ZM54.2,52.6c0,.5-.1,1-.2,1.4.1-.4.2-.9.2-1.4Z"/>
      <path class="st2" d="M43,16.3h0c-.4,0-.6.7-1.1,2.3-.5,1.5-.7,2.6-.7,3.8,0-.9.2-1.8.7-3,.5-1.5.7-2.3,1.1-2.3h0c0,0,.1,0,.2,0,.1.1.4.9.6,1.7.4,1.5.6,2.6.8,2.4,0,0,.4-.2.7-.9.3-.7.6-1.4.7-1.5.4-.4.9.6,1,2.1,0-2-.4-3.5-1-3-.1.1-.4.8-.7,1.5-.3.7-.6.9-.7.9-.2.2-.4-.9-.8-2.4-.2-.9-.5-1.6-.6-1.7,0,0,0,0-.2,0ZM49.6,19.4c-.2,0-.5.3-.8.9-.6,1.1-1.7,2.5-1.8,2.3,0,0,0-.2,0-.3,0,.6,0,1,0,1.1.1.2,1.3-1.2,1.8-2.3.7-1.3,1.1-1.2,1.4,0,0,.2,0,.5,0,.7,0-.5,0-1,0-1.5-.1-.7-.3-1-.5-1ZM52.4,24.7c-.8,0-1.2.1-2.3.9-.7.5-1.2.8-1.5.8-.6,1.1-.2,1.1,1.5,0,1.1-.7,1.6-.9,2.3-.9.2,0,.4,0,.5,0,.2-.4.4-.6.4-.7,0,0-.4-.1-1-.2ZM41.5,25.6c0,.6-.5.8-1.2.7-1.1-.1-1.4,0-.5.3.2,0,.4.2.7.5.9,0,1.2-.3,1.1-1.5ZM51.9,30.3c-.6,0-1.3,0-1.8.2-.4,0-.6.1-.8.2-.9.8-.7,1.1.8.7.6-.2,1.7-.3,2.3-.2h.4s.7-.7.7-.7h-1.1c-.2-.1-.3-.1-.5-.1ZM41.7,30.3c0,.4,0,.9-.2,1-.2.5-.9.4-1.5-.2l-.4-.4-.8,1c-1.1,1.3-1.9,1.7-3.5,1.7-.7,0-2.2-.7-2.3-.7,0,0,.1.4.3.9.5.2,1.4.6,1.9.6,1.6,0,2.4-.4,3.5-1.7l.8-1,.4.4c.6.6,1.3.6,1.5.2.1-.2.2-.9.2-1.5,0-.1,0-.2,0-.4ZM48.4,34.8c-.4.2-.6.3-.6.4,0,.1.5.4.9.6.5.2,1.3.6,1.7,1,.1,0,.2.2.3.2,0,0,.1-.1.2-.2.3-.3.2-.4-.5-.9-.4-.3-1.2-.8-1.7-1-.1,0-.2-.1-.3-.2ZM33.7,35.7c-.1,1.2-.6,2-1.7,2.9l-1,.8.4.4s0,0,0,0l.6-.5c1.3-1.1,1.7-1.9,1.7-3.5,0,0,0-.1,0-.2ZM46.1,39h-.3s.4,1,.4,1c0,.2.1.4.2.5,0-.4,0-.8-.2-1.3v-.2ZM26.7,39.1c0,0-.1.3,0,.9,0-.2.2,0,.3.4.1.4.5.7,1.2,1.2.8.6,1.6.7,2.4.7.6,0,.8,0,1-.2.3-.2.4-.6.2-1,0,0-.1.1-.2.2-.2.1-.4.2-1,.2-.8,0-1.6-.2-2.4-.7-.7-.5-1.1-.8-1.2-1.2-.1-.3-.2-.5-.3-.5ZM26.6,40.8c-.1.7-.8.8-2.5.5-1.8-.3-3.1-.2-5.2.5-1.1.4-1.8.5-2.1.8-.2.2-.2.3,0,.4,0,0,.2.1.4.2.4-.2,1-.3,1.8-.6,2.1-.7,3.4-.8,5.2-.5,2.1.4,2.6.2,2.5-1.1,0,0,0-.1,0-.2ZM20.4,44.9c-.1,0-.2.1-.4.2-.7.3-1.4.7-1.5.8-.2.2,0,.4.3.6.3-.2.7-.4,1.1-.6.7-.3.8-.6.9-.7.1-.1,0-.2-.5-.3ZM22.5,47.6c0,0-.2,0-.3,0-.5.4-1.1.8-1.6,1.1-1,.5-1.2.9-.6,1.2.1-.1.3-.2.6-.4,1-.6,2.4-1.7,2.3-1.9,0,0-.2,0-.4,0ZM52.3,48.5l.2.9c0,.3.1.6.2.8,0-.2-.1-.5-.2-.8l-.2-.9ZM26.6,49s0,0-.1,0c-.1.3-.3.6-.6,1-.7,1.2-.9,1.6-.9,2.4,0,.1,0,.2,0,.3,0-.5.3-1,.9-1.9.8-1.2,1-1.8.7-1.8ZM30.8,49.5c0,.2,0,.3-.1.6-.2.6-.3,1.7-.2,2.3,0-.5,0-1.1.2-1.5.2-.8.3-1.3.1-1.4ZM48.5,52.3h0s.8.1.8.1h-.8Z"/>
      <path class="st9" d="M33.1,33.1c.3.7.5,1.3.8,3.4.2,1.3.4,1.8.6,2.2.3.5.8.8,1.4.7.4,0,.6-.1.9-.4.4-.4.5-1.1.3-1.8,0-.2-.1-.4,0-.4,0,0,.1,0,.3,0,.5.2,1.1.2,1.5,0,.3-.1.6-.6.7-.9.2-.9-.3-1.7-1.4-2-.4-.1-.8-.2-1.8-.4-1.4-.2-2.4-.5-3-.8-.1,0-.2-.1-.2-.1,0,0,0,.1.1.2h0Z"/>
    </g>
  </g>
  <g>
    <path class="st4" d="M40,6.5s-7.3,3.6-10.1,9.2c-2.8,5.6,2.1,9.8,2.1,9.8,0,0,4.2-2.6,7-11,0,7-4,12-4,12,0,0,5.7.4,8.5-5.2,1.4-2.8-.5-14.8-.5-14.8,0,0-1.6,3-3,3v-3ZM13,10.5s1.6,1.8.8,3l-2.8-2s-.4,9.4,2.8,14.8c3.2,5.4,9.7,2.5,9.7,2.5,0,0,.4-4.3-6.6-11.3,5.9,3.8,9.4,9,9.4,9,0,0,3.1-3.1,0-8.5-1.6-2.7-13.3-7.5-13.3-7.5ZM46,24.5c-5.6,0-8,6.6-8,6.6,0,0,3.6,2.4,12,2.4-5.6,2.8-12,.4-12,.4,0,0,1,5.6,6.6,5.6s15.4-6,15.4-6l-1-1,1-1s-8.8-7-14-7ZM30.5,28.5c-2.5,0-4.5,1.6-4.5,3.5s2,3.5,4.5,3.5,4.5-1.6,4.5-3.5-2-3.5-4.5-3.5ZM18.5,32.5c-1,0-2,.1-3,.5-5.1,1.9-11.6,10.7-11.6,10.7,0,0,2.4-.9,2.8,0,.3.6-1.4,1.4-1.4,1.4,0,0,11.2,3.7,16.1,1.9,5.3-1.9,4.5-8.5,4.5-8.5,0,0-4.1-1.9-12,1,4.3-4.6,12-4,12-4,0,0-3.3-3-7.5-3ZM34.5,38.5c-.7,0-1.3,0-1.3,0,0,0-1.4,3.5,2.8,11.9-5.6-5.6-5-11-5-11,0,0-5.6,2.8-1.4,9.8,2.6,4.3,10.4,9.2,10.4,9.2,0,0-1-2.2.4-2.2s1.6,1.2,1.6,1.2c0,0,1.7-7.4.7-11-1.5-3.8-3.7-7.6-8.2-8Z"/>
    <path class="st3" d="M40,5.5s-7.3,3.6-10.1,9.2c-2.8,5.6,2.1,9.8,2.1,9.8,0,0,4.2-2.6,7-11,0,7-4,12-4,12,0,0,5.7.4,8.5-5.2,1.4-2.8-.5-14.8-.5-14.8,0,0-1.6,3-3,3v-3ZM13,9.5s1.6,1.8.8,3l-2.8-2s-.4,9.4,2.8,14.8c3.2,5.4,9.7,2.5,9.7,2.5,0,0,.4-4.3-6.6-11.3,5.9,3.8,9.4,9,9.4,9,0,0,3.1-3.1,0-8.5-1.6-2.7-13.3-7.5-13.3-7.5ZM46,23.5c-5.6,0-8,6.6-8,6.6,0,0,3.6,2.4,12,2.4-5.6,2.8-12,.4-12,.4,0,0,1,5.6,6.6,5.6s15.4-6,15.4-6l-1-1,1-1s-8.8-7-14-7ZM30.5,27.5c-2.5,0-4.5,1.6-4.5,3.5s2,3.5,4.5,3.5,4.5-1.6,4.5-3.5-2-3.5-4.5-3.5ZM18.5,31.5c-1,0-2,.1-3,.5-5.1,1.9-11.6,10.7-11.6,10.7,0,0,2.4-.9,2.8,0,.3.6-1.4,1.4-1.4,1.4,0,0,11.2,3.7,16.1,1.9,5.3-1.9,4.5-8.5,4.5-8.5,0,0-4.1-1.9-12,1,4.3-4.6,12-4,12-4,0,0-3.3-3-7.5-3ZM34.5,37.5c-.7,0-1.3,0-1.3,0,0,0-1.4,3.5,2.8,11.9-5.6-5.6-5-11-5-11,0,0-5.6,2.8-1.4,9.8,2.6,4.3,10.4,9.2,10.4,9.2,0,0-1-2.2.4-2.2s1.6,1.2,1.6,1.2c0,0,1.7-7.4.7-11-1.5-3.8-3.7-7.6-8.2-8Z"/>
    <path class="st2" d="M40,5.5s-7.3,3.6-10.1,9.2c-.7,1.4-.9,2.8-.8,4,0-.9.3-1.9.8-3,2.8-5.6,10.1-9.2,10.1-9.2v-1ZM43,5.5s-1.6,3-3,3v1c1.4,0,3-3,3-3,0,0,1,6.2,1,10.7.1-4.5-1-11.7-1-11.7ZM13,9.5s.5.6.8,1.3c2,.9,11.1,4.8,12.5,7.2.9,1.6,1.3,3,1.4,4.2.1-1.4-.2-3.1-1.4-5.2-1.6-2.7-13.3-7.5-13.3-7.5ZM11,10.5s0,.7,0,1.7c0-.2,0-.7,0-.7l2.8,2c.2-.4.2-.8.1-1.3,0,0,0,.2-.1.3l-2.8-2ZM39,14.5s0,0,0,.1c-.4,6.4-4,10.9-4,10.9,0,0,.3,0,.7,0,1.1-1.8,3.3-5.8,3.3-11ZM17,17.5c5.1,5.1,6.2,8.7,6.5,10.3,0,0,0,0,0,0,0,0,.3-3.1-4-8.4-.8-.7-1.7-1.3-2.6-1.9ZM46,23.5c-5.6,0-8,6.6-8,6.6,0,0,.2.1.4.2.8-1.7,3.1-5.8,7.6-5.8s12,5.5,13.4,6.6l.6-.6s-8.8-7-14-7ZM30.5,27.5c-2.5,0-4.5,1.6-4.5,3.5s0,.3,0,.5c.3-1.7,2.2-3,4.4-3s4.1,1.3,4.4,3c0-.2,0-.3,0-.5,0-1.9-2-3.5-4.5-3.5ZM18.5,31.5c-1,0-2,.1-3,.5-5.1,1.9-11.6,10.7-11.6,10.7,0,0,.5-.1,1-.3,1.9-2.4,6.6-8,10.6-9.4,1-.4,2-.5,3-.5,2.6,0,4.8,1.1,6.1,2,.8,0,1.4,0,1.4,0,0,0-3.3-3-7.5-3ZM59.5,32l-.5.5.4.4c.2-.1.6-.4.6-.4l-.5-.5ZM38,32.9s0,.5.3,1.1c.9.3,6.5,2.1,11.7-.5-.9,0-1.7,0-2.5,0-4.8,1.2-9.5-.5-9.5-.5ZM21.3,36.9c-1.4,0-3.2.3-5.2.9-.7.5-1.4,1-2.1,1.7,7.9-2.9,12-1,12-1,0,0,0,.3,0,.4,0-.8,0-1.4,0-1.4,0,0-1.6-.7-4.7-.6ZM34.5,37.5c-.7,0-1.3,0-1.3,0,0,0-.3.7-.2,2.2,0-.8.2-1.2.2-1.2,0,0,.6,0,1.3,0,4.5.4,6.7,4.1,8.2,8,.2.7.3,1.7.3,2.6,0-1.3,0-2.6-.3-3.6-1.5-3.8-3.7-7.6-8.2-8ZM31,38.5s-3.2,1.6-2.9,5.4c.3-3.1,2.9-4.4,2.9-4.4,0,0-.6,5.4,5,11-.4-.7-.6-1.4-.9-2-4.6-5.2-4.1-10-4.1-10ZM6.5,43.4c-.4.4-1.1.7-1.1.7,0,0,.6.2,1.1.3.3-.2.4-.5.3-.7,0-.1-.2-.2-.3-.3ZM39.7,56.7c0,.2,0,.4,0,.6,0,0,.3.2.3.2,0,0-.2-.4-.3-.8Z"/>
  </g>
</svg>