<?xml version="1.0" encoding="UTF-8" standalone="no"?>
<svg
   id="_图层_1"
   version="1.1"
   viewBox="0 0 64 64" width="32" height="32"
   sodipodi:docname="tuxpuck.svg"
   xml:space="preserve"
   inkscape:version="1.4 (e7c3feb100, 2024-10-09)"
   xmlns:inkscape="http://www.inkscape.org/namespaces/inkscape"
   xmlns:sodipodi="http://sodipodi.sourceforge.net/DTD/sodipodi-0.dtd"
   xmlns="http://www.w3.org/2000/svg"
   xmlns:svg="http://www.w3.org/2000/svg"><sodipodi:namedview
     id="namedview26"
     pagecolor="#505050"
     bordercolor="#eeeeee"
     borderopacity="1"
     inkscape:showpageshadow="0"
     inkscape:pageopacity="0"
     inkscape:pagecheckerboard="0"
     inkscape:deskcolor="#505050"
     inkscape:zoom="10.6875"
     inkscape:cx="32"
     inkscape:cy="32"
     inkscape:window-width="1920"
     inkscape:window-height="939"
     inkscape:window-x="0"
     inkscape:window-y="34"
     inkscape:window-maximized="1"
     inkscape:current-layer="_图层_1" /><!-- Generator: Adobe Illustrator 29.0.1, SVG Export Plug-In . SVG Version: 2.1.0 Build 192)  --><defs
     id="defs6"><style
       id="style1">
      .st0 {
        fill-opacity: .5;
      }

      .st0, .st1, .st2, .st3, .st4, .st5, .st6, .st7 {
        fill: #fff;
      }

      .st8 {
        fill: #133c9a;
      }

      .st2, .st9 {
        display: none;
      }

      .st3 {
        fill-opacity: .2;
      }

      .st4 {
        fill-opacity: .9;
      }

      .st10 {
        fill: #3370ff;
      }

      .st11 {
        fill: url(#_未命名的渐变_3);
      }

      .st12 {
        fill: url(#_未命名的渐变);
      }

      .st5 {
        fill-opacity: .3;
      }

      .st6 {
        fill-opacity: 0;
      }

      .st7 {
        fill-opacity: .7;
      }

      .st13 {
        fill: #00d6b9;
      }

      .st14 {
        fill: url(#_未命名的渐变_2);
      }
    </style><radialGradient
       id="_未命名的渐变"
       data-name="未命名的渐变"
       cx="123.9"
       cy="-40.2"
       fx="123.9"
       fy="-40.2"
       r="59.4"
       gradientTransform="translate(-26.8 25.5) scale(.6 -.7)"
       gradientUnits="userSpaceOnUse"><stop
         offset="0"
         stop-color="#db202e"
         id="stop1" /><stop
         offset="1"
         stop-color="#e01b24"
         id="stop2" /></radialGradient><radialGradient
       id="_未命名的渐变_2"
       data-name="未命名的渐变 2"
       cx="67.6"
       cy="26.8"
       fx="67.6"
       fy="26.8"
       r="105.2"
       gradientTransform="translate(-26.6 25.3) scale(.6 -.7)"
       gradientUnits="userSpaceOnUse"><stop
         offset="0"
         stop-color="#ffb648"
         id="stop3" /><stop
         offset="1"
         stop-color="#ff7800"
         stop-opacity="0"
         id="stop4" /></radialGradient><radialGradient
       id="_未命名的渐变_3"
       data-name="未命名的渐变 3"
       cx="61.7"
       cy="18.6"
       fx="61.7"
       fy="18.6"
       r="68"
       gradientTransform="translate(-26.8 25.8) scale(.6 -.7)"
       gradientUnits="userSpaceOnUse"><stop
         offset="0"
         stop-color="#c64600"
         id="stop5" /><stop
         offset="1"
         stop-color="#a51d2d"
         id="stop6" /></radialGradient></defs><path
     class="st1"
     d="M47.5,64.1H13.8c-7.6,0-13.8-6.3-13.8-13.8V13.7C0,6.2,6.2,0,13.7,0h36.6c7.5,0,13.7,6.2,13.7,13.7v36.6c0,7.5-6.2,13.7-13.7,13.7h-2.9.1Z"
     id="path6"
     style="fill:#999999;fill-opacity:1" /><g
     transform="matrix(0.94162041,0,0,0.93762183,2.4293933,-924.71485)"
     id="g17"><path
       style="opacity:0.2"
       d="m 31.959041,993.36162 c -5.369531,0 -9.999983,4.99519 -9.999983,11.19998 0,14 -7.999986,15.4 -7.999986,25.2002 0,10.8245 8.05886,19.5997 17.999969,19.5997 9.941109,0 17.999969,-8.7752 17.999969,-19.5997 0,-9.8002 -7.999986,-11.2002 -7.999986,-25.2002 0,-6.20479 -4.630452,-11.19998 -9.999983,-11.19998 z"
       id="path1-5" /><path
       style="fill:#3d7284"
       d="m 31.959041,992.36222 c -5.369531,0 -9.999983,4.9952 -9.999983,11.19998 0,14 -7.999986,15.4 -7.999986,25.2002 0,10.8245 8.05886,19.5997 17.999969,19.5997 9.941109,0 17.999969,-8.7752 17.999969,-19.5997 0,-9.8002 -7.999986,-11.2002 -7.999986,-25.2002 0,-6.20478 -4.630452,-11.19998 -9.999983,-11.19998 z"
       id="path2-6" /><path
       style="opacity:0.1"
       d="m 31.959041,1009.3623 c -3.579684,0 -5.99999,3.0328 -5.99999,6.7998 0,8.5002 -5.99999,9.35 -5.99999,15.3 0,6.5721 5.372575,11.9001 11.99998,11.9001 6.627405,0 11.99998,-5.328 11.99998,-11.9001 0,-5.95 -5.99999,-6.7998 -5.99999,-15.3 0,-3.767 -2.420306,-6.7998 -5.99999,-6.7998 z"
       id="path3" /><path
       style="fill:#ffffff"
       d="m 31.959041,1008.3622 c -3.579684,0 -5.959041,3.0328 -5.959041,6.7998 0,8.5002 -6.040939,9.35 -6.040939,15.3 0,6.5721 5.372575,11.9001 11.99998,11.9001 6.627405,0 11.99998,-5.328 11.99998,-11.9001 0,-5.95 -5.959021,-6.7998 -5.959021,-15.3 0,-3.767 -2.461275,-6.7998 -6.040959,-6.7998 z"
       id="path4" /><path
       style="opacity:0.2"
       d="m 22.99578,1049.3205 c -0.602643,-0.096 -1.13555,-0.2754 -2.303188,-0.7792 -1.73842,-0.7504 -2.549049,-0.9938 -5.730818,-1.72 -1.587082,-0.3622 -2.17856,-0.523 -3.556047,-0.9686 -0.501079,-0.162 -1.168939,-0.3688 -1.4841334,-0.4594 -0.8556362,-0.2462 -1.0824808,-0.342 -1.3959697,-0.5888 -0.4276564,-0.3368 -0.6269587,-0.8562 -0.5505218,-1.4348 0.048974,-0.3708 0.1784037,-0.727 0.5356615,-1.4746 0.4774856,-0.9994 1.6630144,-1.3588 1.7357464,-2.342 0.04279,-0.5788 0.0077,-1.2296 -0.139152,-2.5844 -0.08691,-0.802 -0.106767,-1.0974 -0.1080394,-1.6074 -0.00131,-0.5535 0.00578,-0.168 0.06275,-0.3796 0.214083,-0.7929 0.377015,-1.2503 1.134875,-1.4475 0.219364,-0.058 -0.239605,-0.066 0.789891,-0.086 0.640865,-0.02 1.011891,-0.036 1.094053,-0.056 0.444032,-0.102 0.767311,-0.2678 1.068587,-0.5548 0.286982,-0.2736 0.483392,-1.7526 0.85798,-2.419 0.583106,-1.0284 1.733424,-1.0182 2.672782,-1.0564 0.266321,0.056 0.354868,0.092 0.646553,0.2608 0.293564,0.168 0.376588,0.2364 0.631859,0.5082 0.64239,0.6842 0.949057,1.1064 2.389858,3.2888 1.141952,1.7301 1.490866,2.2835 1.951179,3.0951 0.501445,0.8846 1.405405,2.3034 1.740519,2.732 0.05678,0.074 0.404463,0.5142 0.772609,0.9808 0.368163,0.4674 0.704848,0.9042 0.748206,0.9714 0.691375,0.9644 1.176726,2.0728 1.349378,3.1802 0.05804,0.386 0.06006,0.4512 0.02758,0.893 -0.0412,0.561 -0.077,0.8008 -0.13782,0.9232 -0.0244,0.05 -0.07802,0.184 -0.11914,0.2974 -0.528615,1.4728 -1.846244,2.5778 -3.372734,2.8288 -0.324611,0.054 -0.9683,0.054 -1.312508,0 z"
       id="path5-2" /><path
       style="fill:#eab108"
       d="m 22.99578,1048.3211 c -0.602643,-0.096 -1.13555,-0.2754 -2.303188,-0.7792 -1.73842,-0.7504 -2.549049,-0.9938 -5.730818,-1.72 -1.587082,-0.3622 -2.17856,-0.523 -3.556047,-0.9686 -0.501079,-0.162 -1.168939,-0.3688 -1.4841334,-0.4594 -0.8556362,-0.2462 -1.0824808,-0.342 -1.3959697,-0.5888 -0.4276564,-0.3368 -0.6269587,-0.8562 -0.5505218,-1.4348 0.048974,-0.3708 0.1784037,-0.727 0.5356615,-1.4746 0.4774856,-0.9994 1.6630144,-1.3588 1.7357464,-2.342 0.04279,-0.5788 0.0077,-1.2296 -0.139152,-2.5844 -0.08691,-0.8017 -0.106767,-1.0971 -0.1080394,-1.6073 -0.024094,-0.7511 0.4794544,-1.8027 1.1976254,-1.8272 0.219364,-0.058 0,0 0.789891,-0.086 0.640865,-0.02 1.011891,-0.036 1.094053,-0.056 0.444032,-0.102 0.767311,-0.2678 1.068587,-0.5548 0.286982,-0.2736 0.483392,-1.7526 0.85798,-2.419 0.583106,-1.0284 1.733424,-1.0182 2.672782,-1.0564 0.266321,0.056 0.354868,0.092 0.646553,0.2608 0.293564,0.168 0.376588,0.2364 0.631859,0.5082 0.64239,0.6842 0.949057,1.1064 2.389858,3.2888 1.141952,1.7302 1.490866,2.2836 1.951179,3.0952 0.501445,0.8845 1.405405,2.3033 1.740519,2.7319 0.05678,0.074 0.404463,0.5142 0.772609,0.9808 0.368163,0.4674 0.704848,0.9042 0.748206,0.9714 0.691375,0.9644 1.176726,2.0728 1.349378,3.1802 0.05804,0.386 0.06006,0.4512 0.02758,0.893 -0.0412,0.561 -0.077,0.8008 -0.13782,0.9232 -0.0244,0.05 -0.07802,0.184 -0.11914,0.2974 -0.528615,1.4728 -1.846244,2.5778 -3.372734,2.8288 -0.324611,0.054 -0.9683,0.054 -1.312508,0 z"
       id="path6-9" /><path
       style="opacity:0.2"
       d="m 46.382253,1048.6537 c 0.460037,-0.3232 0.82758,-0.6856 1.586979,-1.569 1.13055,-1.3152 1.101292,-1.8424 3.43904,-3.7262 1.16615,-0.9392 1.589943,-1.3104 2.547588,-2.2322 0.348399,-0.3352 0.816518,-0.7746 1.04033,-0.9764 0.607543,-0.5476 0.755987,-0.7176 0.913546,-1.0452 0.214998,-0.4468 0.16474,-0.9484 -0.138639,-1.3858 -0.19448,-0.2804 -0.449716,-0.5162 -1.056213,-0.976 -0.810704,-0.6148 -1.042564,-1.1434 -1.510959,-1.9099 -0.2756,-0.4512 0.08408,-1.5922 -0.356327,-2.7492 -0.260554,-0.6844 -0.366694,-0.9316 -0.577389,-1.3454 -0.228622,-0.4488 -0.275454,-0.526 -0.410238,-0.6732 -0.506591,-0.555 -1.069016,-0.7426 -1.779511,-0.594 -0.205713,0.044 -0.326625,0.094 -1.188902,0.4966 -0.537503,0.2496 -1.019858,0.4632 -1.095736,0.4814 -0.409837,0.1 -0.747615,0.094 -1.116606,-0.02 -0.351545,-0.104 -0.630237,0.6274 -1.217412,0.2402 -0.401687,-0.263 -0.832824,-0.5914 -1.14134,-0.6766 -0.428655,-0.118 -0.427241,-0.118 -0.827801,-0.074 -0.385587,0.048 -0.669674,0.158 -0.983354,0.4028 -0.197719,0.154 -0.255711,0.22 -0.428055,0.4746 -0.17312,0.2568 -0.214288,0.3448 -0.313216,0.6688 -0.248921,0.8156 -0.328073,1.2822 -0.617563,3.6359 -0.229225,1.8662 -0.288987,2.4562 -0.333921,3.301 -0.04892,0.9202 -0.209972,2.437 -0.310037,2.9206 -0.0168,0.082 -0.12212,0.5812 -0.233782,1.109 -0.11152,0.5284 -0.20943,1.019 -0.217524,1.091 -0.173239,1.0626 -0.115979,2.1574 0.20041,3.1246 0.11198,0.336 0.13742,0.3898 0.347693,0.7344 0.266918,0.4374 0.396108,0.617 0.49735,0.6912 0.0404,0.03 0.140699,0.116 0.222317,0.192 1.049596,0.9776 2.601004,1.3354 3.971257,0.9172 0.29119,-0.088 0.825145,-0.3514 1.088649,-0.5344 z"
       id="path7-1" /><path
       style="fill:#eab108"
       d="m 46.382253,1047.6543 c 0.460037,-0.3232 0.82758,-0.6856 1.586979,-1.569 1.13055,-1.3152 1.101292,-1.8424 3.43904,-3.7262 1.16615,-0.9392 1.589943,-1.3104 2.547588,-2.2322 0.348399,-0.3352 0.816518,-0.7746 1.04033,-0.9764 0.607543,-0.5476 0.755987,-0.7176 0.913546,-1.0452 0.214998,-0.4468 0.16474,-0.9484 -0.138639,-1.3858 -0.19448,-0.2804 -0.449716,-0.5162 -1.056213,-0.9759 -0.810704,-0.6148 -1.142326,-1.1434 -1.610721,-1.91 -0.275599,-0.4512 0.08408,-1.5922 -0.356327,-2.7492 -0.260554,-0.6844 -0.266932,-0.9316 -0.477627,-1.3454 -0.228622,-0.4488 -0.275454,-0.526 -0.410238,-0.6732 -0.506591,-0.555 -1.069016,-0.7424 -1.779511,-0.5938 -0.205713,0.044 -0.326625,0.094 -1.188902,0.4966 -0.537503,0.2494 -1.019858,0.463 -1.095736,0.4812 -0.409837,0.1 -0.747615,0.094 -1.116606,-0.02 -0.351545,-0.104 -0.630237,0.6276 -1.217412,0.2402 -0.401687,-0.263 -0.832824,-0.5914 -1.14134,-0.6766 -0.428655,-0.118 -0.427241,-0.118 -0.827801,-0.074 -0.385587,0.048 -0.669674,0.158 -0.983354,0.4028 -0.197719,0.154 -0.255711,0.22 -0.428055,0.4746 -0.17312,0.2568 -0.214288,0.3448 -0.313216,0.6688 -0.248921,0.8156 -0.328073,1.2822 -0.617563,3.636 -0.229225,1.8661 -0.288987,2.4561 -0.333921,3.3009 -0.04892,0.9202 -0.209972,2.4372 -0.310037,2.9208 -0.0168,0.082 -0.12212,0.581 -0.233782,1.109 -0.11152,0.5282 -0.20943,1.019 -0.217524,1.091 -0.173239,1.0626 -0.115979,2.1574 0.20041,3.1246 0.11198,0.336 0.13742,0.3898 0.347693,0.7344 0.266918,0.4374 0.396108,0.617 0.49735,0.6912 0.0404,0.03 0.140699,0.116 0.222317,0.192 1.049596,0.9774 2.601004,1.3354 3.971257,0.9172 0.29119,-0.088 0.825145,-0.3514 1.088649,-0.5344 z"
       id="path8-2" /><circle
       style="opacity:0.1"
       cx="27.959"
       cy="1003.362"
       r="4"
       id="circle8" /><circle
       style="fill:#ffffff"
       cx="27.959"
       cy="1002.362"
       r="4"
       id="circle9" /><circle
       style="fill:#323232"
       cx="27.959"
       cy="1002.362"
       r="2"
       id="circle10" /><path
       style="opacity:0.1"
       d="m 37.959031,1008.3622 c 0,3.8662 -2.686288,7 -5.99999,7 -3.313702,0 -5.99999,-3.1338 -5.99999,-7 z"
       id="path10" /><path
       style="fill:#f77d00"
       d="m 37.959031,1007.5622 c 0,3.8662 -2.686288,6.8 -5.99999,6.8 -3.313702,0 -5.99999,-2.9338 -5.99999,-6.8 z"
       id="path11" /><circle
       style="opacity:0.1"
       cx="35.959"
       cy="1003.362"
       r="4"
       id="circle11" /><circle
       style="fill:#ffffff"
       cx="35.959"
       cy="1002.362"
       r="4"
       id="circle12" /><circle
       style="fill:#323232"
       cx="35.959"
       cy="1002.362"
       r="2"
       id="circle13" /><path
       style="fill:#eab108"
       d="m 37.959031,1007.6956 c 0,0.6666 -2.686288,4.6666 -5.99999,4.6666 -3.313702,0 -5.99999,-4 -5.99999,-4.6666 0,-1.841 2.686288,-3.3334 5.99999,-3.3334 3.313702,0 5.99999,1.4924 5.99999,3.3334 z"
       id="path13" /><path
       style="opacity:0.2;fill:#ffffff"
       transform="translate(0,988.3622)"
       d="m 50.587891,40.0625 c -0.160557,-0.0053 -0.330189,0.0097 -0.507813,0.04687 -0.205713,0.044 -0.327176,0.09349 -1.189453,0.496094 -0.537503,0.2494 -1.019825,0.464222 -1.095703,0.482422 -0.409837,0.1 -0.746243,0.09447 -1.115234,-0.01953 -0.351546,-0.104 -0.631575,0.627635 -1.21875,0.240235 -0.401688,-0.263 -0.83211,-0.592535 -1.140626,-0.677735 -0.428654,-0.118 -0.427565,-0.118218 -0.828124,-0.07422 -0.385588,0.048 -0.668742,0.159496 -0.982422,0.404297 -0.197719,0.153999 -0.255391,0.220009 -0.427735,0.474609 -0.17312,0.2568 -0.215525,0.343969 -0.314453,0.667969 -0.248921,0.8156 -0.327697,1.282918 -0.617187,3.636718 -0.229225,1.8661 -0.289051,2.455982 -0.333985,3.300782 -0.04892,0.9202 -0.210482,2.436321 -0.310547,2.919922 -0.0168,0.082 -0.120759,0.581374 -0.232421,1.109374 -0.11152,0.5282 -0.210657,1.017844 -0.21875,1.089844 -0.09096,0.557947 -0.112547,1.125166 -0.07227,1.677735 0.01575,-0.226184 0.03561,-0.452921 0.07227,-0.677735 0.0081,-0.072 0.10723,-0.561644 0.21875,-1.089844 0.111662,-0.528 0.215621,-1.027374 0.232421,-1.109374 0.100065,-0.483601 0.261627,-2.001675 0.310547,-2.921876 0.04493,-0.844799 0.10476,-1.434681 0.333985,-3.300781 0.28949,-2.3538 0.368266,-2.819165 0.617187,-3.634765 0.09893,-0.324 0.141333,-0.413122 0.314453,-0.669922 0.172344,-0.2546 0.230016,-0.32061 0.427735,-0.47461 0.31368,-0.2448 0.596834,-0.354343 0.982422,-0.402343 0.400559,-0.044 0.39947,-0.04378 0.828124,0.07422 0.308516,0.0852 0.738938,0.412782 1.140626,0.675782 0.587175,0.3874 0.867204,-0.344235 1.21875,-0.240235 0.368991,0.114 0.705397,0.121485 1.115234,0.02148 0.07588,-0.0182 0.5582,-0.233022 1.095703,-0.482422 0.862277,-0.4026 0.98374,-0.452094 1.189453,-0.496094 0.710495,-0.1486 1.272706,0.03875 1.779297,0.59375 0.134784,0.1472 0.181534,0.225028 0.410156,0.673828 0.210695,0.4138 0.217962,0.65935 0.478516,1.34375 0.440407,1.157 0.07987,2.2988 0.355469,2.75 0.468395,0.7666 0.800624,1.295356 1.611328,1.910156 0.606497,0.4597 0.86216,0.696163 1.05664,0.976563 0.06927,0.09986 0.121331,0.203454 0.164063,0.308594 0.175059,-0.427279 0.122376,-0.895618 -0.164063,-1.308594 -0.19448,-0.2804 -0.450143,-0.516863 -1.05664,-0.976563 -0.810704,-0.6148 -1.142933,-1.143556 -1.611328,-1.910156 -0.275599,-0.4512 0.08494,-1.591047 -0.355469,-2.748047 -0.260554,-0.6844 -0.267821,-0.931903 -0.478516,-1.345703 -0.228622,-0.4488 -0.275372,-0.526628 -0.410156,-0.673828 -0.379943,-0.41625 -0.789816,-0.624594 -1.271484,-0.640625 z"
       id="path14" /><path
       style="fill:#3d7284"
       d="m 46.861258,1034.4598 c -2.303424,0 -2.320588,-1.9136 -2.78048,-4.1708 -0.511647,-2.5112 -0.838676,-3.963 3.170903,-4.1708 3.646857,-1.71 4.008189,8.2078 -0.390423,8.3416 z"
       id="path15" /><path
       style="opacity:0.2;fill:#ffffff"
       transform="translate(0,988.3622)"
       d="m 17.679688,40 c -0.939358,0.0382 -2.088769,0.02824 -2.671876,1.056641 -0.374588,0.6664 -0.570439,2.146322 -0.857421,2.419921 -0.301276,0.287 -0.626281,0.452688 -1.070313,0.554688 -0.08216,0.02 -0.452885,0.03469 -1.09375,0.05469 -0.789891,0.086 -0.569698,0.02794 -0.789062,0.08594 C 10.479095,44.196375 9.975906,45.2489 10,46 c 5.19e-4,0.208277 0.03296,0.470509 0.04297,0.65625 0.103394,-0.693902 0.539029,-1.463386 1.154297,-1.484375 0.219364,-0.058 -8.29e-4,6.3e-5 0.789062,-0.08594 0.640865,-0.02 1.011588,-0.03664 1.09375,-0.05664 0.444032,-0.102 0.769037,-0.267688 1.070313,-0.554688 0.286982,-0.2736 0.482833,-1.751568 0.857421,-2.417968 C 15.590919,41.028241 16.74033,41.0382 17.679688,41 c 0.266321,0.056 0.354799,0.09097 0.646484,0.259766 0.293564,0.168 0.377541,0.237965 0.632812,0.509765 0.64239,0.6842 0.947871,1.10471 2.388672,3.28711 1.141952,1.7302 1.490859,2.284103 1.951172,3.095703 0.501445,0.8845 1.407074,2.303822 1.742188,2.732422 0.05678,0.074 0.403338,0.513868 0.771484,0.980468 0.368163,0.4674 0.704689,0.903504 0.748047,0.970704 0.691375,0.9644 1.176957,2.07424 1.349609,3.18164 0.0055,0.03633 0.0053,0.04885 0.0098,0.08008 0.006,-0.07019 0.01142,-0.103635 0.01758,-0.1875 0.03248,-0.4418 0.0307,-0.506578 -0.02734,-0.892578 -0.172652,-1.1074 -0.658234,-2.215287 -1.349609,-3.179687 -0.04336,-0.0672 -0.379884,-0.505257 -0.748047,-0.972657 -0.368146,-0.4666 -0.714704,-0.906468 -0.771484,-0.980468 -0.335114,-0.4286 -1.240743,-1.845969 -1.742188,-2.730469 -0.460313,-0.8116 -0.80922,-1.365503 -1.951172,-3.095703 -1.440801,-2.1824 -1.746282,-2.604863 -2.388672,-3.289063 -0.255271,-0.2718 -0.339248,-0.339812 -0.632812,-0.507812 C 18.034487,40.092919 17.946009,40.056 17.679688,40 Z m -7.433594,10.167969 c -4.79e-4,0.0068 5e-4,0.01667 0,0.02344 -0.07273,0.9832 -1.2568897,1.342397 -1.7343752,2.341797 -0.3572578,0.7476 -0.4881354,1.10381 -0.5371094,1.474609 -0.034552,0.261543 -0.00539,0.508423 0.068359,0.734376 0.071631,-0.29873 0.191174,-0.628128 0.46875,-1.208985 0.4774855,-0.9994 1.6616436,-1.358597 1.7343756,-2.341797 0.02169,-0.293331 0.02273,-0.610859 0,-1.023437 z"
       id="path16" /><path
       style="opacity:0.1;fill:#ffffff"
       transform="translate(0,988.3622)"
       d="m 31.958984,4 c -5.369531,0 -10,4.9944387 -10,11.199219 0,14 -8,15.400972 -8,25.201172 0,0.17673 0.02112,0.347829 0.02539,0.523437 0.264006,-9.356814 7.974609,-10.963713 7.974609,-24.724609 0,-6.2047803 4.630469,-11.199219 10,-11.199219 5.369531,0 10,4.9944387 10,11.199219 0,13.760896 7.710603,15.367795 7.97461,24.724609 0.0043,-0.175608 0.02539,-0.346707 0.02539,-0.523437 0,-9.8002 -8,-11.201172 -8,-25.201172 C 41.958984,8.9944387 37.328515,4 31.958984,4 Z"
       id="path17" /></g></svg>
