<?xml version="1.0" encoding="UTF-8"?>
<svg id="_图层_1" xmlns="http://www.w3.org/2000/svg" version="1.1" viewBox="0 0 64 64" width="32" height="32">
  <!-- Generator: Adobe Illustrator 29.0.1, SVG Export Plug-In . SVG Version: 2.1.0 Build 192)  -->
  <defs>
    <style>
      .st0, .st1 {
        fill: #4f4f4f;
      }

      .st2, .st3, .st4 {
        isolation: isolate;
      }

      .st2, .st3, .st1 {
        display: none;
      }

      .st2, .st5, .st4 {
        opacity: .2;
      }

      .st3 {
        opacity: .1;
      }

      .st3, .st6 {
        fill: #fff;
      }

      .st7 {
        fill: #62c9ea;
      }

      .st8 {
        fill: #a2a2a2;
      }
    </style>
  </defs>
  <path class="st0" d="M50.3,64H13.9C6.3,64,.2,57.8.2,50.3V13.8C.2,6.2,6.3,0,13.9,0h36.5c7.5,0,13.7,6.2,13.7,13.7v36.5c0,7.5-6.1,13.7-13.7,13.7h0Z"/>
  <g>
    <path class="st2" d="M5.8,1.3h66c3.2,0,5.8,2.4,5.8,5.3v52.6c0,2.9-2.6,5.3-5.8,5.3H5.8c-3.2,0-5.8-2.4-5.8-5.3V6.6C0,3.7,2.6,1.3,5.8,1.3Z"/>
    <path class="st1" d="M5.8,0h66c3.2,0,5.8,2.4,5.8,5.3v52.6c0,2.9-2.6,5.3-5.8,5.3H5.8c-3.2,0-5.8-2.4-5.8-5.3V5.3C0,2.4,2.6,0,5.8,0Z"/>
    <g class="st5">
      <path d="M8.9,31.3l14-12.2c.8-.7,2-.7,2.8,0l2.8,2.4c.8.7.8,1.8,0,2.4l-14,12.2c-.8.7-2,.7-2.8,0l-2.8-2.4c-.8-.7-.8-1.8,0-2.4Z"/>
      <path d="M8.9,14.3l14,12.2c.8.7,2,.7,2.8,0l2.8-2.4c.8-.7.8-1.8,0-2.4l-14-12.2c-.8-.7-2-.7-2.8,0l-2.8,2.4c-.8.7-.8,1.8,0,2.4Z"/>
    </g>
    <path class="st4" d="M32.6,29.1h19.4c1.1,0,2.1.8,2.1,1.9v3.8c0,1-.9,1.9-2.1,1.9h-19.4c-1.1,0-2.1-.8-2.1-1.9v-3.8c0-1,.9-1.9,2.1-1.9Z"/>
    <path class="st6" d="M32.6,27.8h19.4c1.1,0,2.1.8,2.1,1.9v3.8c0,1-.9,1.9-2.1,1.9h-19.4c-1.1,0-2.1-.8-2.1-1.9v-3.8c0-1,.9-1.9,2.1-1.9Z"/>
    <path class="st8" d="M8.9,30l14-12.2c.8-.7,2-.7,2.8,0l2.8,2.4c.8.7.8,1.8,0,2.4l-14,12.2c-.8.7-2,.7-2.8,0l-2.8-2.4c-.8-.7-.8-1.8,0-2.4Z"/>
    <path class="st7" d="M8.9,13l14,12.2c.8.7,2,.7,2.8,0l2.8-2.4c.8-.7.8-1.8,0-2.4l-14-12.2c-.8-.7-2-.7-2.8,0l-2.8,2.4c-.8.7-.8,1.8,0,2.4Z"/>
    <path class="st3" d="M5.8,0C2.6,0,0,2.4,0,5.3v1.3C0,3.7,2.6,1.3,5.8,1.3h66c3.2,0,5.8,2.3,5.8,5.3v-1.3c0-2.9-2.6-5.3-5.8-5.3H5.8Z"/>
    <path class="st4" d="M18.7,21.5l-.7.6,4.9,4.3c.2.2.5.4.8.4l1.9-1.6c-.8.6-2,.6-2.7,0l-4.2-3.7Z"/>
    <path class="st7" d="M8.9,13l14,12.2c.8.7,2,.7,2.8,0l2.8-2.4c.8-.7.8-1.8,0-2.4l-14-12.2c-.8-.7-2-.7-2.8,0l-2.8,2.4c-.8.7-.8,1.8,0,2.4Z"/>
    <path class="st6" d="M8.9,13l14,12.2c.8.7,2,.7,2.8,0l2.8-2.4c.8-.7.8-1.8,0-2.4l-14-12.2c-.8-.7-2-.7-2.8,0l-2.8,2.4c-.8.7-.8,1.8,0,2.4Z"/>
  </g>
</svg>