<?xml version="1.0" encoding="UTF-8"?>
<svg id="_图层_1" xmlns="http://www.w3.org/2000/svg" version="1.1" viewBox="0 0 64 64" width="32" height="32">
  <!-- Generator: Adobe Illustrator 29.0.1, SVG Export Plug-In . SVG Version: 2.1.0 Build 192)  -->
  <defs>
    <style>
      .st0 {
        fill: #115ccc;
      }

      .st0, .st1, .st2 {
        fill-rule: evenodd;
      }

      .st1, .st2, .st3, .st4 {
        isolation: isolate;
      }

      .st1, .st3, .st4 {
        opacity: .2;
      }

      .st5 {
        fill: #3f3f3f;
      }

      .st2 {
        opacity: .1;
      }

      .st2, .st4 {
        fill: #fff;
      }

      .st6 {
        fill: #3387f5;
      }
    </style>
  </defs>
  <path class="st5" d="M50.5,64H13.9c-7.6,0-13.9-6.2-13.9-13.7V13.7C0,6.2,6.3,0,13.8,0h36.6c7.5,0,13.7,6.2,13.7,13.7v36.6c0,7.5-6.2,13.7-13.7,13.7h.1Z"/>
  <g>
    <path class="st1" d="M41.7,56.9c1.1,0,2-.9,2-2,0-9,1.7-15.6,3.4-18.2,1-1.5,1.7-2.3,2.9-2.8,1.2-.6,3.3-.9,6.3-.9,1.1,0,2-.9,2-2V14.7c0-1.1-.9-2-2-2-11,0-21,4.8-26.5,13.1-5.4,8.2-6.8,18.1-6.8,29.1,0,1.1.9,2,2,2h16.6Z"/>
    <path class="st3" d="M41.8,56.9c1.1,0,2-.9,2-2,0-.3,0-.6-.2-.9L24.2,13.8c-.3-.7-1-1.2-1.8-1.2H5.5c-1.1,0-2,.9-2,2,0,.3,0,.6.2.9l19.3,40.2c.3.7,1,1.2,1.8,1.2h16.9Z"/>
    <path class="st0" d="M41.7,56c1.1,0,2-.9,2-2,0-9,1.7-15.6,3.4-18.2,1-1.5,1.7-2.3,2.9-2.8,1.2-.6,3.3-.9,6.3-.9,1.1,0,2-.9,2-2V13.8c0-1.1-.9-2-2-2-11,0-21,4.8-26.5,13.1-5.4,8.2-6.8,18.1-6.8,29.1,0,1.1.9,2,2,2h16.6Z"/>
    <path class="st2" d="M56.4,11.8c-11,0-21,4.8-26.5,13.1-5.4,8.2-6.8,18.1-6.8,29.1,0,0,0,0,0,.1,0-10.7,1.5-20.4,6.8-28.3,5.5-8.3,15.5-13.1,26.5-13.1,1.1,0,2,.9,2,2v-.9c0-1.1-.9-2-2-2Z"/>
    <path class="st6" d="M41.8,56c1.1,0,2-.9,2-2,0-.3,0-.6-.2-.9L24.2,12.9c-.3-.7-1-1.2-1.8-1.2H5.5c-1.1,0-2,.9-2,2,0,.3,0,.6.2.9l19.3,40.2c.3.7,1,1.2,1.8,1.2h16.9Z"/>
    <path class="st4" d="M5.5,11.8c-1.1,0-2,.9-2,2,0,.2,0,.3,0,.5.2-.9,1-1.6,2-1.6h16.9c.8,0,1.5.4,1.8,1.2l19.3,40.2c0,.1.1.3.2.4.1-.5,0-.9-.2-1.3L24.2,12.9c-.3-.7-1-1.2-1.8-1.2H5.5Z"/>
  </g>
</svg>