<?xml version="1.0" encoding="UTF-8"?>
<svg id="_图层_1" data-name="图层_1" xmlns="http://www.w3.org/2000/svg" version="1.1" viewBox="0 0 200 200" width="32" height="32">
  <!-- Generator: Adobe Illustrator 29.0.1, SVG Export Plug-In . SVG Version: 2.1.0 Build 192)  -->
  <defs>
    <style>
      .st0 {
        fill: #dbac00;
      }

      .st1 {
        fill: #fff;
      }

      .st2 {
        fill: #e8b600;
      }

      .st3 {
        fill: #ebb800;
      }

      .st4 {
        fill: #f7c200;
      }
    </style>
  </defs>
  <path class="st2" d="M6.4,29.2c0-12.8,10.5-23.1,23.5-23.1h140.9c13,0,23.5,10.4,23.5,23.1v138.9c0,12.8-10.5,23.1-23.5,23.1H29.9c-13,0-23.5-10.4-23.5-23.1V29.2Z"/>
  <path class="st0" d="M6.4,153.1h186.2v17.8c0,11.2-10.4,20.3-23.3,20.3H29.6c-12.9,0-23.3-9.1-23.3-20.3v-17.8Z"/>
  <path class="st4" d="M172.3,5.7c12.1,0,21.9,10.4,21.9,23.2v139.9c0,12.4-9.5,22.4-21.2,22.4-11,0-19.9-9.4-19.9-21V5.7h19.2Z"/>
  <path class="st3" d="M153.1,172.8c0,10.2,9,18.4,20.1,18.4,11.8,0,21.4-8.8,21.4-19.7,0-10.2-9-18.4-20.1-18.4h-21.4v19.7h0Z"/>
  <path class="st1" d="M122.7,31.2s-.9,6-3.3,14.6l-.6,2.1c-3.9,13.6-11.2,32.4-23.7,44.9-15.2,13-24.1,14.9-34.6,15.4l-6.9,6.9h0c-1.7,2-4.2,3.1-6.8,3.1l-20.2.5,18.6-17v-.3c.5-10.5,3.3-27.8,17-42.6,11.9-12.9,30.4-19.8,43.8-23.7l2.2-.6c8.6-2.4,14.6-3.3,14.6-3.3h0ZM100.5,53.4c-10.1,3.7-20.2,8.9-27,16.1-6.8,7.3-10,15.6-11.6,22.9,3.2-.3,5.7-.8,8.2-1.8,3.3-1.3,7.7-3.8,14.2-9.3,7.1-7.3,12.3-17.8,16.1-28h0Z"/>
</svg>
