<?xml version="1.0" standalone="no"?><!DOCTYPE svg PUBLIC "-//W3C//DTD SVG 1.1//EN" "http://www.w3.org/Graphics/SVG/1.1/DTD/svg11.dtd"><svg t="1732235084028" class="icon" viewBox="0 0 1034 1024" version="1.1" xmlns="http://www.w3.org/2000/svg" p-id="17498" xmlns:xlink="http://www.w3.org/1999/xlink" width="32" height="32"><path d="M0.44032 128C0.44032 57.30304 57.74336 0 128.44032 0h768c70.68672 0 128 57.30304 128 128v768c0 70.69696-57.31328 128-128 128h-768c-70.69696 0-128-57.30304-128-128v-768z" fill="#109968" p-id="17499"></path><path d="M0.44032 784.00512h1024V896c0 70.69696-57.31328 128-128 128h-768c-70.69696 0-128-57.30304-128-128V784.00512z" fill="#007D53" p-id="17500"></path><path d="M896.44032 0c70.68672 0 128 57.30304 128 128v772.12672c0 68.41344-55.45984 123.87328-123.87328 123.87328-64.13312 0-116.1216-51.98848-116.1216-116.1216V0h111.99488z" fill="#38B27F" p-id="17501"></path><path d="M784.44544 907.8784c0 64.13312 51.98848 116.1216 116.1216 116.1216 68.41344 0 123.87328-55.45984 123.87328-123.87328 0-64.13312-51.98848-116.1216-116.1216-116.1216H784.4352v123.86304z" fill="#21A170" p-id="17502"></path><path d="M264.76544 217.04704c33.41312-33.3312 85.93408-49.39776 148.31616-44.02176 66.49856 5.7344 105.33888 36.23936 125.75744 70.22592a138.15808 138.15808 0 0 1 16.7424 42.91584c1.19808 5.77536 1.82272 10.69056 2.1504 14.37696a97.80224 97.80224 0 0 1 0.37888 6.8096v0.4096c0 0.03072 0 0.0512-39.99744 0.0512-40.00768 0-40.00768 0.02048-40.00768 0.0512V308.15232l0.01024 0.23552v0.14336a47.24736 47.24736 0 0 0-0.8704-6.11328 58.18368 58.18368 0 0 0-6.98368-17.9712c-6.68672-11.14112-22.07744-28.09856-64.04096-31.71328-46.06976-3.96288-72.73472 8.7552-84.9408 20.95104-11.42784 11.39712-13.57824 24.832-7.68 37.9904 3.56352 7.95648 12.45184 16.54784 34.12992 25.07776 18.60608 7.31136 40.30464 12.288 65.32096 18.00192l13.63968 3.14368c28.19072 6.5536 61.98272 14.98112 88.64768 30.99648 13.9776 8.3968 27.5968 19.7632 37.64224 35.50208 10.28096 16.10752 15.4624 34.68288 15.4624 55.05024 0 59.98592-39.8336 98.67264-84.85888 117.1456-44.1344 18.1248-98.4064 19.968-146.30912 7.0656-56.68864-15.2576-88.36096-47.16544-104.79616-78.10048a141.12768 141.12768 0 0 1-13.89568-39.05536 121.69216 121.69216 0 0 1-1.82272-12.9024 91.93472 91.93472 0 0 1-0.31744-6.22592v-0.39936c0-0.02048 0-0.0512 39.99744 0.02048 39.99744 0.06144 39.99744 0.03072 39.99744 0.01024V466.70848a51.97824 51.97824 0 0 0 0-0.4608l0.03072 0.55296c0.07168 0.78848 0.23552 2.32448 0.64512 4.4032 0.8192 4.20864 2.52928 10.26048 6.01088 16.81408 6.3488 11.95008 20.29568 29.06112 54.95808 38.4 33.024 8.88832 69.12 6.84032 95.1296-3.82976 25.1392-10.32192 35.2256-25.32352 35.2256-43.14112 0-6.31808-1.4336-9.728-2.88768-12.01152-1.67936-2.63168-4.9152-6.06208-11.40736-9.95328-14.26432-8.57088-35.88096-14.75584-65.57696-21.6576-3.91168-0.9216-7.9872-1.8432-12.15488-2.79552-24.65792-5.60128-53.22752-12.10368-77.95712-21.83168-29.16352-11.4688-61.60384-30.55616-77.85472-66.78528-19.9168-44.43136-10.0352-93.2352 24.1664-127.36512z" fill="#FFFFFF" p-id="17503"></path></svg>
