<?xml version="1.0" encoding="UTF-8"?>
<svg id="_图层_1" xmlns="http://www.w3.org/2000/svg" version="1.1" viewBox="0 0 64 64" width="32" height="32">
  <!-- Generator: Adobe Illustrator 29.0.1, SVG Export Plug-In . SVG Version: 2.1.0 Build 192)  -->
  <defs>
    <style>
      .st0 {
        fill: #f6b473;
      }

      .st1 {
        fill: #4f4f4f;
      }

      .st2 {
        opacity: .8;
      }

      .st2, .st3, .st4, .st5, .st6, .st7, .st8 {
        isolation: isolate;
      }

      .st2, .st9 {
        fill: #83e4ff;
      }

      .st10 {
        fill: #3b3a76;
      }

      .st10, .st3, .st4, .st11, .st8, .st12 {
        display: none;
      }

      .st13 {
        fill: #7d5651;
      }

      .st3, .st6, .st7, .st8 {
        opacity: .2;
      }

      .st4, .st14, .st7, .st8 {
        fill: #fff;
      }

      .st4, .st5 {
        opacity: .1;
      }

      .st15 {
        fill: #b94141;
      }

      .st16 {
        fill: #8a5f5a;
      }

      .st17 {
        fill: #00d42a;
      }

      .st18 {
        fill: #b1e71e;
      }

      .st19 {
        fill: #00d4fa;
      }

      .st20 {
        fill: #def800;
      }

      .st21 {
        fill: #98f0ff;
      }

      .st22 {
        fill: #ccc;
      }

      .st12 {
        fill: #f8a084;
      }
    </style>
  </defs>
  <path class="st14" d="M50.4,64H13.8c-7.6,0-13.8-6.2-13.8-13.7V13.7C0,6.2,6.2,0,13.7,0h36.5c7.5,0,13.7,6.2,13.7,13.7v36.6c0,7.5-6.2,13.7-13.7,13.7h.1Z"/>
  <g class="st11">
    <path class="st3" d="M18.2,2.9h24.3c10.1,0,18.2,8.4,18.2,18.7v24.9c0,10.3-8.2,18.7-18.2,18.7h-24.3c-10.1,0-18.2-8.4-18.2-18.7v-24.9C0,11.2,8.2,2.9,18.2,2.9Z"/>
    <path class="st12" d="M18.2,1.8h24.3c10.1,0,18.2,8.4,18.2,18.7v24.9c0,10.3-8.2,18.7-18.2,18.7h-24.3C8.2,64,0,55.6,0,45.3v-24.9C0,10.1,8.2,1.8,18.2,1.8Z"/>
    <path class="st8" d="M18.2,1.8C8.1,1.8,0,10.1,0,20.4v1.1C0,11.2,8.1,2.9,18.2,2.9h24.3c10.1,0,18.2,8.3,18.2,18.7v-1.1c0-10.3-8.1-18.7-18.2-18.7h-24.3Z"/>
    <ellipse class="st6" cx="30.4" cy="34" rx="21.7" ry="22.2"/>
    <path class="st22" d="M42.1,14.2c-1.2.2-2.4.5-3,.5-5,0-10.9,2.2-14.3,6.5-3,3.7-3.9,9.2-4.1,13.6.2-2.1,3-2.6,4.5-3.8,1.6-1.3,2.9-6.1,5.3-6.1.3,0,.6,0,.9,0,0,0,0,0,0,0,9.2.5,15.9,7.3,15.9,16.8s-.3,3.7-.8,5.5c.2,0,.3.1.4.2,0,0,0,0,0,0,.3-.4.6-.7.9-1.1.1-.2.3-.4.4-.5.2-.3.5-.7.7-1.1.2-.2.3-.5.4-.7.2-.3.4-.7.5-1,.1-.3.3-.6.4-.8.2-.4.3-.7.4-1.1.1-.3.2-.6.3-.9.1-.3.2-.7.3-1,0-.3.2-.7.3-1.1,0-.3.2-.6.2-1,0-.4.1-.8.2-1.2,0-.3,0-.6.1-.8,0-.7,0-1.4.1-2.1,0-.5,0-.9,0-1.4,0,0,0,0,0,0,0-.1,0-.3,0-.4,0-.6-.1-1.2-.2-1.8,0-.1,0-.3,0-.4,0,0,0,0,0,0,0-.5-.2-1-.3-1.5,0,0,0,0,0,0,0-.3-.1-.5-.2-.8-.1-.4-.3-.8-.4-1.2-.1-.3-.2-.6-.4-.9-.1-.4-.3-.7-.5-1.1-.1-.3-.2-.5-.4-.8,0,0,0,0,0,0h0c-.2-.4-.4-.8-.6-1.1,0,0,0,0,0,0-.2-.3-.4-.6-.5-.9h0s0,0,0,0c-.2-.3-.5-.7-.7-1-.2-.3-.4-.6-.7-.9,0,0,0,0,0,0,0,0-.2-.2-.2-.3-.4-.5-.9-1-1.4-1.5,0,0,0,0,0,0,0,0,0,0-.1-.1-.3-.3-.5-.5-.8-.7,0,0,0,0,0,0-.8-.7-1.6-1.3-2.4-1.8h0ZM46.2,47.5c-.1.1-.2.2-.3.4.1-.1.2-.2.3-.4ZM44.9,48.8c-.1.1-.3.3-.4.4,0,0,0,0,0,0,.1-.1.3-.3.4-.4Z"/>
    <path class="st14" d="M31.3,24c4.4.5,6.4,4.4,6.4,9,0,.3,0,.6,0,.9,0,0,0,0,0,0-.5,9.4-6.6,16.3-15.9,16.3s-4.6-1.4-6.3-2c0,0,0,.3-.2.6,4,4,9.5,6.3,15.1,6.3.5,0,.9,0,1.4,0,0,0,0,0,0,0,.1,0,.3,0,.4,0,.6,0,1.2-.1,1.8-.2.1,0,.3,0,.4,0,0,0,0,0,0,0,.5,0,1-.2,1.5-.3,0,0,0,0,0,0,.2,0,.5-.1.7-.2.4-.1.8-.3,1.2-.4.3-.1.6-.2.9-.4.4-.1.7-.3,1-.5.3-.1.5-.2.8-.4,0,0,0,0,0,0h0c.4-.2.8-.4,1.1-.7,0,0,0,0,0,0,.3-.2.6-.4.8-.6h0s0,0,0,0c.3-.2.6-.5,1-.7.3-.2.6-.5.9-.7,0,0,0,0,0,0,0,0,.2-.2.3-.2.5-.4,1-.9,1.5-1.4,0,0,0,0,0,0,0,0,0,0,0-.1.2-.3.5-.5.7-.8.6-1.7.9-3.6.9-5.5,0-9.5-7.3-17.3-16.5-17.7h0ZM14.4,47.4c.1.1.3.3.4.4-.1-.1-.3-.3-.4-.4,0,0,0,0,0,0Z"/>
    <path class="st22" d="M16.2,16.5c-.1.1-.3.3-.4.4.1-.1.3-.3.4-.4,0,0,0,0,0,0ZM14.9,17.9c-.1.1-.2.2-.3.4.1-.1.2-.2.3-.4ZM14.2,18.2c-3.5,4.1-5.5,9.3-5.5,14.7,0,.5,0,.9,0,1.4,0,.1,0,.3,0,.4,0,.6.1,1.2.2,1.8,0,.1,0,.3,0,.4,0,.5.2,1,.3,1.5,0,.3.1.5.2.8.1.4.3.8.4,1.2.1.3.2.6.4.9.1.4.3.7.5,1.1.1.3.2.5.4.8,0,0,0,0,0,0,.2.4.4.8.6,1.1.2.3.4.6.6.9.2.3.5.7.7,1,.2.3.5.6.7.9,0,0,.2.2.2.3.4.5.9,1,1.4,1.5,0,0,0,0,.1.1.3.3.5.5.8.7,1.7.6,3.5.9,5.4.9,9.3,0,16.9-7.5,17.3-16.9-.4,4.5-4.1,7.6-8.6,7.6-.3,0-.6,0-.9,0,0,0,0,0,0,0-9.2-.5-16-7.9-16-17.4s.3-3.7.8-5.5c0-.1,0-.2-.1-.4Z"/>
    <path class="st14" d="M29.5,41.7c-1.2-.1,5-1.5,4.1-2-2.6-1.5-11.4-3.4-11.4-6.8,0-.3-.4-.6-.4-.9,0,0,0,0,0,0,.5-9.4,8-16.8,17.3-16.8s3.7.3,5.3.9c-3.9-3.4-8.9-5.3-14-5.3-6.4,0-12.4,2.9-16.5,7.8-.6,1.7-.9,3.6-.9,5.5,0,9.5,7.3,17.3,16.5,17.7ZM46.4,17.9c-.1-.1-.3-.3-.4-.4.1.1.3.3.4.4,0,0,0,0,0,0ZM45.1,16.5c-.1-.1-.2-.2-.4-.3.1.1.2.2.4.3Z"/>
    <ellipse class="st1" cx="30.4" cy="32.9" rx="9.8" ry="10"/>
    <path class="st5" d="M55.4,2.9c-.8,0-1.6.3-2.3,1l-5.6,5.8h0s-16.9,17.3-16.9,17.3l-1.7,5.2-.6,1.7h0l-1.1,3.5,3.4-1.2h0s1.7-.6,1.7-.6l5.1-1.7,16.9-17.3h0s5.6-5.8,5.6-5.8c1.3-1.3,1.3-3.3,0-4.6l-2.3-2.3c-.6-.6-1.4-1-2.3-1Z"/>
    <path class="st15" d="M47.5,8.5l-16.9,17.3,6.8,6.9,16.9-17.3-6.8-6.9Z"/>
    <path class="st0" d="M30.5,25.8l-1.7,5.2-.6,1.7,2.3,2.3,1.7-.6,5.1-1.7-3.4-3.5-3.4-3.5Z"/>
    <path class="st16" d="M47.5,8.5l6.8,6.9,5.6-5.8c1.3-1.3,1.3-3.3,0-4.6l-2.3-2.3c-1.3-1.3-3.3-1.3-4.5,0l-5.6,5.8Z"/>
    <polygon class="st14" points="47.5 8.5 48.6 7.3 55.4 14.3 54.3 15.4 47.5 8.5"/>
    <path class="st13" d="M28.3,32.7l-1.1,3.5,3.4-1.2-2.3-2.3Z"/>
  </g>
  <g class="st11">
    <path class="st3" d="M32.2,1.2c-.6,0-1.2,0-1.8,0-4.4.3-6.5,1.2-16.2,6.6C6.1,12.4,3.2,15,1.4,19.4.3,21.8.2,23,0,32c-.1,8.2,0,10.4.6,12.7,1,3.4,3.2,6.7,5.9,8.9,2.7,2.3,17.1,10,20,10.8,3.2.9,9.7.5,12.6-.7,4.3-1.8,16.8-9.1,18.7-10.9,4.8-4.5,6-8.4,6-19.6s-.5-11.9-2.6-15.8c-2.1-3.8-5-6-13.8-10.7-8-4.2-11.2-5.5-15.3-5.5Z"/>
    <path class="st10" d="M32.2.1c-.6,0-1.2,0-1.8,0-4.4.3-6.5,1.2-16.2,6.6C6.1,11.3,3.2,14,1.4,18.3.3,20.7.2,21.9,0,30.9c-.1,8.2,0,10.4.6,12.7,1,3.4,3.2,6.7,5.9,8.9,2.7,2.3,17.1,10,20,10.8,3.2.9,9.7.5,12.6-.7,4.3-1.8,16.8-9.1,18.7-10.9,4.8-4.5,6-8.4,6-19.6s-.5-11.9-2.6-15.8c-2.1-3.8-5-6-13.8-10.7C39.6,1.4,36.3.2,32.2.1Z"/>
    <path class="st6" d="M32.1,12.2c-.6,0-1.3.2-1.9.6-.6.3-1.8,1.6-2.7,2.9-2.5,3.5-4.8,4.7-9.6,5.1-3.2.3-4.2.5-5.2,1.4-1.6,1.4-1.6,3.5.1,6.5,1.1,1.9,1.3,3,1.3,5.3s-.3,3.5-1.3,5.3c-.3.5-.5,1-.7,1.4-.2.3-.4.6-.5,1-.1.4-.1.8,0,1.2,0,1.1.3,1.9,1.2,2.7,1.6,1.2,3.2,1,4.9,1.2,4.5.3,6.7,1.5,9.6,5.3,3.9,5.2,6.2,5.2,9.9,0,2.5-3.5,4.7-5.4,9.1-5.7,4.1-.3,5.7-1.1,6.2-3.1.5-2-.3-3.4-2.5-4.2-2.1-.7-3.9.2-5.9,3.2-1.9,2.8-3.9,5.1-6.3,5.6-2.4.6-10.1.5-11.8-.2-2.5-.9-4.8-2.8-6.2-5-.9-1.1-1.5-2.4-2-3.5-2.5-4.5-2.2-7.1,1.5-12.7,3.4-5.1,6.6-7,11.8-7s4.5-1,4.9-2.1c1.2-2.8-1.1-5.4-3.8-5.2h0ZM46.8,21c-.6,0-1.1.2-1.6.4-1.6.9-2.2,2.9-1.3,4.5.9,1.6,3,2.1,4.7,1.2,1.6-.9,2.2-2.9,1.3-4.5-.6-1-1.8-1.7-3-1.6Z"/>
    <path class="st18" d="M32.1,11.1c-.6,0-1.3.2-1.9.6-.6.3-1.8,1.6-2.7,2.9-2.5,3.5-4.8,4.7-9.6,5.1-3.2.3-4.2.5-5.2,1.4-1.6,1.4-1.6,3.5.1,6.5,1.1,1.9,1.3,3,1.3,5.3s-.3,3.5-1.3,5.3c-.3.5-.5,1-.7,1.4-.2.3-.4.6-.5,1-.1.4-.1.8,0,1.2,0,1.1.3,1.9,1.2,2.7,1.6,1.2,3.2,1,4.9,1.2,4.5.3,6.7,1.5,9.6,5.3,3.9,5.2,6.2,5.2,9.9,0,2.5-3.5,4.7-5.4,9.1-5.7,4.1-.3,5.7-1.1,6.2-3.1.5-2-.3-3.4-2.5-4.2-2.1-.7-3.9.2-5.9,3.2-1.9,2.8-3.9,5.1-6.3,5.6-2.4.6-10.1.5-11.8-.2-2.5-.9-4.8-2.8-6.2-5-.9-1.1-1.5-2.4-2-3.5-2.5-4.5-2.2-7.1,1.5-12.7,3.4-5.1,6.6-7,11.8-7s4.5-1,4.9-2.1c1.2-2.8-1.1-5.4-3.8-5.2h0Z"/>
    <path class="st18" d="M49.8,21.5c.9,1.6.4,3.6-1.3,4.5s-3.7.4-4.7-1.2-.4-3.6,1.3-4.5,3.7-.4,4.7,1.2Z"/>
    <path class="st4" d="M32.2.1c-.6,0-1.2,0-1.8,0-4.4.3-6.5,1.2-16.2,6.6C6.1,11.3,3.2,14,1.4,18.3.3,20.7.2,21.9,0,30.9c0,2.5,0,4.3,0,5.9,0-.6,0-1.2,0-1.8,0-1,0-1.7,0-2.9.2-9.1.3-10.2,1.3-12.6,1.8-4.3,4.8-6.9,12.8-11.5C23.9,2.5,26,1.6,30.4,1.3c.6,0,1.2,0,1.8,0,4.1,0,7.4,1.3,15.3,5.5,8.8,4.7,11.7,6.9,13.8,10.7,2.1,3.8,2.6,6.5,2.6,15.1,0-.1,0-.2,0-.4,0-9.2-.5-11.9-2.6-15.8-2.1-3.8-5-6-13.8-10.7C39.6,1.4,36.3.2,32.2.1Z"/>
    <path class="st7" d="M32.1,11.1c-.6,0-1.3.2-1.9.6-.6.3-1.8,1.6-2.7,2.9-2.5,3.5-4.8,4.7-9.6,5.1-3.2.3-4.2.5-5.2,1.4-.9.8-1.3,1.8-1.1,3.1.1-.8.5-1.5,1.1-2,1-.8,2-1.1,5.2-1.4,4.8-.4,7.2-1.6,9.6-5.1.9-1.3,2.1-2.6,2.7-2.9.6-.4,1.3-.5,1.9-.6,2-.1,3.8,1.3,4,3.1.4-2.4-1.7-4.4-4-4.2ZM46.8,19.9c-.6,0-1.1.2-1.6.4-1.2.7-1.9,2-1.7,3.4.2-1,.8-1.8,1.7-2.3.5-.3,1.1-.4,1.6-.4,1.3,0,2.4.6,3,1.6.2.3.3.7.4,1.1.1-.8,0-1.5-.4-2.2-.6-1-1.8-1.7-3-1.6ZM14.1,33.5c0,1.9-.4,3.1-1.3,4.8-.3.5-.5,1-.7,1.4-.2.3-.4.6-.5,1-.1.4-.1.8,0,1.2,0,.1,0,.2,0,.3,0-.1,0-.3,0-.4.1-.4.3-.7.5-1,.2-.4.4-.9.7-1.4,1.1-1.9,1.3-3,1.3-5.3s0-.4,0-.5ZM16,33.6c-.1,1.8.4,3.5,1.6,5.6.6,1.1,1.1,2.4,2,3.5,1.3,2.2,3.7,4.1,6.2,5,1.8.6,9.4.8,11.8.2,2.4-.6,4.4-2.8,6.3-5.6,2-3,3.8-3.9,5.9-3.2,1.5.5,2.4,1.4,2.6,2.6.3-1.7-.6-3-2.6-3.7-2.1-.7-3.9.2-5.9,3.2-1.9,2.8-3.9,5.1-6.3,5.6-2.4.6-10.1.5-11.8-.2-2.5-.9-4.8-2.8-6.2-5-.9-1.1-1.5-2.4-2-3.5-1-1.7-1.5-3.1-1.6-4.5Z"/>
  </g>
  <g>
    <path class="st6" d="M45.4,8.3c-.4,0-.7,0-.9,0-3.3.3-6.2,2.1-8,4.9-.7,1-1.3,2.5-1.6,3.7-.2.9-.2,1.3-.2,2.3s0,1.3.2,2.3c.2,1.2.9,2.7,1.6,3.7,2,3.1,5.5,4.9,9.1,4.9s7.9-2.4,9.7-6.1c1.8-3.7,1.4-8.1-1-11.4-1.7-2.3-4.3-3.8-7.2-4.3-.3,0-1,0-1.7,0Z"/>
    <path class="st6" d="M29.6,48.1c4.6.2,8.4,1.8,8.4,3.6s-5,3.6-10.2,3.6-9.9-1.6-9.9-3.6,4.4-3.3,8.8-3.6v-.4c.3-2.1.3-9.3.3-9.3L10.3,19.9l-.7-1.1c0-2.1,8.1-3.8,18.1-3.8s18.1,1.7,18.1,3.8l-.7,1.1-15.7,18.5s0,7.2.3,9.3v.4Z"/>
    <path class="st9" d="M29.6,47.2c4.6.2,8.4,1.8,8.4,3.6s-5,3.6-10.2,3.6-9.9-1.6-9.9-3.6,4.4-3.3,8.8-3.6v-.4c.3-2.1.3-9.3.3-9.3L10.3,19.1l-.7-1.1c0-2.1,8.1-3.8,18.1-3.8s18.1,1.7,18.1,3.8l-.7,1.1-15.7,18.5s0,7.2.3,9.3v.4Z"/>
    <path class="st7" d="M27.7,14.2c-10,0-18.1,1.7-18.1,3.8l.2.3c1.3-1.9,8.8-3.3,17.9-3.3s16.6,1.4,17.9,3.3l.2-.3c0-2.1-8.1-3.8-18.1-3.8ZM27,39.2c0,2,0,6-.2,7.6v.4c-4.4.3-8.8,1.8-8.8,3.6s0,.3,0,.4c.6-1.6,4.6-2.9,8.7-3.2v-.4c.3-1.6.3-5.6.3-7.6h0c0-.1,0-.8,0-.8h0ZM29.3,39.2h0s0,.7,0,.8h0c0,2,0,6,.2,7.6v.4c4.3.2,7.8,1.5,8.4,3.2,0-.1,0-.3,0-.4,0-1.8-3.8-3.4-8.4-3.6v-.4c-.3-1.6-.3-5.6-.3-7.6Z"/>
    <path class="st19" d="M16.5,25.8c-8.1,21.7-4.1,10.8,0,0ZM16.5,25.8c0,0,0,.1,0,.1,0,0,0,0,0-.1ZM39.5,25.7c-22.2,21.8-11.1,10.9,0,0ZM39.5,25.7c0,0,0,.1,0,.2,0,0,0-.1,0-.2h0ZM39.5,25.8c0,.1,0,.2-.2.3h.1c0-.1,0-.3,0-.3h0ZM16.6,26c0,0,0,0,0,.1h0c0,0,0,0-.1-.1ZM16.7,26.2c.2.2,10.3,11.3,10.3,11.3,0,0,0,7.2-.3,9.3-.3,2.1-.7,3.1-.7,3.1,0,0,1.4.6,2.1.6s2.1-.6,2.1-.6c0,0-.5-1-.7-3.1-.3-2.1-.3-9.3-.3-9.3,0,0,9.4-10.6,10-11.3-1,1-6.2,1.3-11.1,1.3-5.1,0-10.5-.3-11.5-1.4h0Z"/>
    <path class="st21" d="M39,26c0,1.1-5,1.6-11.1,1.6s-11.1-.5-11.1-1.6c0-1.1,5-1.7,11.1-1.7s11.1.6,11.1,1.7Z"/>
    <path class="st20" d="M45.4,7.5c-.4,0-.7,0-.9,0-3.3.3-6.2,2.1-8,4.9-.7,1-1.3,2.5-1.6,3.7-.2.9-.2,1.3-.2,2.3s0,1.3.2,2.3c.2,1.2.9,2.7,1.6,3.7,2,3.1,5.5,4.9,9.1,4.9s7.9-2.4,9.7-6.1c1.8-3.7,1.4-8.1-1-11.4-1.7-2.3-4.3-3.8-7.2-4.3-.3,0-1,0-1.7,0Z"/>
    <path class="st14" d="M45.5,8.7c-5.3,0-9.7,4.3-9.7,9.7h0c0,5.4,4.3,9.7,9.7,9.7h0c5.3,0,9.7-4.3,9.7-9.7h0c0-5.4-4.3-9.7-9.7-9.7h0ZM44.3,9.7c.3,0,.5,0,.6,0,.2,0,.2.2.2.7,0,.8,0,7,0,7.1,0,0-.3-.2-1.5-1.2-2.2-1.8-3.7-3.3-4-3.8,0-.2,0-.4,0-.6.4-.8,2.4-1.8,4.1-2.1.2,0,.3,0,.5,0ZM46.8,9.8c.5,0,1.2.1,2,.4.9.3,2,.9,2.4,1.4.4.4.5.8.3,1-.4.6-1.9,1.9-4.4,4.1l-1,.9v-.2c0-.6,0-4.7,0-5.9,0-.7.1-1.2.2-1.4,0-.1,0-.2.2-.2,0,0,.2,0,.3,0h0ZM52.3,13.3c.1,0,.5.2.7.4.4.4.8,1.2,1,1.8.2.5.2.8.2,1.4s0,.9-.2,1c0,0-.1,0-3.7,0h-3.6s.3-.3.3-.3c2-1.9,4.3-3.9,5-4.3.1,0,.3-.1.3-.1h0ZM38.8,13.3c.4,0,1.7,1.1,4.4,3.5.5.5,1,.9,1.1,1h.1c0,.1-.7.2-.7.2-1.2,0-5.2,0-5.7,0-.6,0-.8-.2-1-.5-.2-.4-.1-1,.2-1.9.4-1.1.9-2,1.4-2.2,0,0,.2,0,.2,0h0ZM49.9,18.7c.7,0,2.9,0,3.3.1.5,0,.6.1.8.3.4.4.3,1.2-.2,2.5-.5,1.3-1.1,2-1.6,1.9-.3,0-.9-.6-2.1-1.6-1.2-1-3.4-3-3.3-3.1,0,0,.6,0,1.4,0,.7,0,1.6,0,1.8,0h0ZM37.5,18.7c.8,0,5.9,0,6.4.1h.5s-.2.2-.2.2c-2.3,2.1-4.3,3.8-5.1,4.3-.3.2-.4.2-.6,0-.4-.2-.8-.7-1.1-1.5-.4-.8-.5-1.2-.5-2.1s0-.9.2-1c0,0,.2,0,.4,0h0ZM46,19.2s.4.3,1.3,1.1c2.1,1.8,3.5,3.2,3.9,3.8.1.2.2.3.2.4,0,.3,0,.4-.4.7-.6.6-1.8,1.2-3,1.6-1.2.3-2,.3-2.1,0-.1-.3-.1-3,0-6.2,0-.7,0-1.3,0-1.3s0,0,0,0h0ZM45,19.2s0,0,0,0c0,.1,0,5,0,5.6,0,.8-.1,1.5-.2,1.8,0,.3-.1.4-.7.3-.4,0-.5,0-.9-.1-.6-.2-1.1-.4-1.8-.7-1.3-.6-1.9-1.2-1.9-1.7,0-.1,0-.2.2-.4.5-.6,2.3-2.2,5-4.6.2-.2.3-.3.4-.3Z"/>
    <path class="st17" d="M51.8,18.4l-4.8,3-4.8,3v-12.1l4.8,3,4.8,3Z"/>
    <path class="st2" d="M38,27.7l6.6-8.6h0c-1.4,1-5.4,2-9.9,2.5"/>
    <path class="st7" d="M45.4,7.5c-.4,0-.7,0-.9,0-3.3.3-6.2,2.1-8,4.9-.7,1-1.3,2.5-1.6,3.7-.2.9-.2,1.3-.2,2.3s0,.4,0,.6c0-.6,0-.9.2-1.6.2-1.2.9-2.7,1.6-3.7,1.8-2.8,4.8-4.5,8-4.9.2,0,.5,0,.9,0,.6,0,1.3,0,1.7,0,2.9.4,5.4,2,7.2,4.3,1.3,1.8,2.1,3.8,2.2,6,.1-2.5-.6-5.1-2.2-7.2-1.7-2.3-4.3-3.8-7.2-4.3-.3,0-1,0-1.7,0Z"/>
    <path class="st14" d="M30.5,31.2l2.1-7.7,5.7-.7-7.7,8.4Z"/>
  </g>
</svg>