<?xml version="1.0" encoding="UTF-8"?>
<svg id="_图层_1" data-name="图层_1" xmlns="http://www.w3.org/2000/svg" version="1.1" viewBox="0 0 200 200" width="16" height="16">
  <!-- Generator: Adobe Illustrator 29.0.1, SVG Export Plug-In . SVG Version: 2.1.0 Build 192)  -->
  <defs>
    <style>
      .st0, .st1 {
        fill: #dfdfdf;
      }

      .st1, .st2 {
        display: none;
      }

      .st2 {
        fill: #363636;
        isolation: isolate;
        opacity: .3;
      }
    </style>
  </defs>
  <path class="st0" d="M83.4,19.4c-1.7,0-3.4.6-4.9,1.8L30.3,56H7.6c-4.2,0-7.6,3.4-7.6,7.6v75.9c0,4.2,3.4,7.6,7.6,7.6h22.8l48.2,34.8c1.5,1.3,3.2,1.8,4.9,1.8,3.9,0,7.6-3.1,7.6-7.6V27c0-4.5-3.7-7.6-7.6-7.6ZM75.9,161.2l-36.6-26.5-4-2.9H15.2v-60.7h20.1l4-2.9,36.6-26.5v119.3Z"/>
  <path class="st1" d="M165.9,100c0-26.1-12.7-50.7-34-66-3.4-2.4-8.1-1.6-10.6,1.8-2.4,3.4-1.7,8.1,1.8,10.6,17.3,12.4,27.7,32.4,27.7,53.6s-10.3,41.2-27.7,53.6c-3.4,2.4-4.2,7.2-1.8,10.6,1.5,2.1,3.8,3.2,6.2,3.2s3.1-.5,4.4-1.4c21.3-15.2,34-39.9,34-66Z"/>
  <path class="st1" d="M115.9,63.1c-3.2-2.7-8-2.3-10.7.9-2.7,3.2-2.3,8,.9,10.7,7.6,6.4,12,15.6,12,25.3s-4.4,18.9-12,25.3c-3.2,2.7-3.6,7.5-.9,10.7,1.5,1.8,3.7,2.7,5.8,2.7s3.5-.6,4.9-1.8c11.1-9.3,17.4-22.8,17.4-36.9,0-14.2-6.3-27.6-17.4-36.9Z"/>
  <path class="st2" d="M148.2,5.5c-3.5-2.3-8.2-1.4-10.5,2.1-2.3,3.5-1.4,8.2,2.1,10.5,27.4,18.4,43.7,49,43.7,81.9s-16.3,63.5-43.7,81.9c-3.5,2.3-4.4,7-2.1,10.5,1.5,2.2,3.9,3.4,6.3,3.4s2.9-.4,4.2-1.3c31.6-21.2,50.4-56.5,50.4-94.5S179.7,26.7,148.2,5.5Z"/>
  <rect class="st0" x="155.1" y="33.7" width="14.5" height="125.1" rx="7.2" ry="7.2" transform="translate(80.9 -74) rotate(33.8)"/>
  <rect class="st0" x="157.4" y="35.6" width="14.5" height="122" rx="7.2" ry="7.2" transform="translate(-26.2 100.3) rotate(-31.5)"/>
</svg>
