<?xml version="1.0" standalone="no"?><!DOCTYPE svg PUBLIC "-//W3C//DTD SVG 1.1//EN" "http://www.w3.org/Graphics/SVG/1.1/DTD/svg11.dtd"><svg t="1725346552004" class="icon" viewBox="0 0 1024 1024" version="1.1" xmlns="http://www.w3.org/2000/svg" p-id="191838" xmlns:xlink="http://www.w3.org/1999/xlink" width="16" height="16"><path d="M485.953085 42.750219L485.99575 42.664889z" p-id="191839"></path><path d="M397.67943 780.938128l0.17066-5.162452c2.602558-103.974334 56.658973-183.971001 120.741635-178.55256 64.082663 5.418441 113.872589 94.204075 111.355361 198.093079-0.511979 19.583184-2.730553 38.3984-6.570393 55.84834 115.963168 22.697721 240.501979 80.295321 400.580642 172.70747-31.529353-58.109579-59.730845-110.502062-86.652389-160.377317-42.4089-32.851965-86.609725-75.644848-176.760635-121.893588 61.992084 16.127328 106.363568 34.64389 140.922128 55.421691C627.771176 287.860006 605.670764 220.108162 511.850673 0c-45.608766 111.696679-73.04229 184.738969-123.770843 293.193117 31.145369 33.022624 69.330445 71.378359 131.322528 114.768551-66.685221-27.433524-112.165993-54.995042-146.169909-83.537852C308.339153 459.927503 206.540727 652.943461 0 1023.957335c162.339903-93.692096 288.115995-151.417691 405.401775-173.518103a298.355569 298.355569 0 0 1-7.722345-69.501104z" fill="#dfdfdf" p-id="191840"></path><path d="M373.275114 324.423816C308.339153 459.927503 206.540727 652.943461 0 1023.957335c162.339903-93.692096 288.115995-151.417691 405.401775-173.518103a297.800925 297.800925 0 0 1-7.722345-69.501104l0.17066-5.162452c2.517228-100.390484 52.989792-178.424566 114.128578-178.80855V404.847131c-62.632057-26.452231-105.979584-52.989792-138.703554-80.423315zM511.850673 0c-45.608766 111.696679-73.04229 184.738969-123.770843 293.193117 29.865422 31.657348 66.215908 68.263822 123.898838 109.478105V0.298654L511.850673 0z" fill="#dfdfdf" p-id="191841"></path></svg>
