<?xml version="1.0" encoding="UTF-8"?>
<svg id="_图层_1" xmlns="http://www.w3.org/2000/svg" version="1.1" viewBox="0 0 64 64" width="24" height="24">
  <!-- Generator: Adobe Illustrator 29.0.1, SVG Export Plug-In . SVG Version: 2.1.0 Build 192)  -->
  <defs>
    <style>
      .st0, .st1 {
        fill: #fecd38;
      }

      .st2 {
        fill: #fe3838;
      }

      .st3, .st4, .st5 {
        isolation: isolate;
      }

      .st3, .st4, .st1 {
        display: none;
      }

      .st3, .st5 {
        opacity: .2;
      }

      .st4 {
        fill: #fff;
        opacity: .1;
      }
    </style>
  </defs>
  <path class="st0" d="M50.3,64H13.8c-7.6,0-13.8-6.2-13.8-13.7V13.7C0,6.2,6.2,0,13.7,0h36.5c7.5,0,13.7,6.2,13.7,13.7v36.6c0,7.5-6.2,13.7-13.7,13.7h0Z"/>
  <g>
    <path class="st3" d="M.5,31.2c0,.4,0,.7,0,1.1,0,17.4,14.2,31.4,31.7,31.4s31.7-14,31.7-31.4,0-.7,0-1.1c-.6,16.9-14.5,30.3-31.7,30.3S1.1,48.1.5,31.2h0Z"/>
    <path class="st1" d="M32.2-.2h0c17.5,0,31.7,14.1,31.7,31.4h0c0,17.4-14.2,31.4-31.7,31.4h0C14.6,62.7.4,48.6.4,31.2H.4C.4,13.9,14.6-.2,32.2-.2Z"/>
    <path class="st5" d="M11.7,18.9v6.7h4.5v20.2h6.8v-26.9h-11.3ZM41.2,18.9c-7.5,0-13.6,6-13.6,13.5s6.1,13.5,13.6,13.5h18.4c1.2-2.1,2.2-4.4,2.9-6.7h-21.4c-3.8,0-6.8-3-6.8-6.7s3-6.7,6.8-6.7c1.9,0,3.8.8,5.1,2.2h7.8c-1.9-5.4-7-9-12.8-9h0Z"/>
    <path class="st2" d="M11.7,17.8v6.7h4.5v20.2h6.8v-26.9h-11.3ZM41.2,17.8c-7.5,0-13.6,6-13.6,13.5s6.1,13.5,13.6,13.5h19.6c1-2.1,1.8-4.4,2.3-6.7h-21.9c-3.8,0-6.8-3-6.8-6.7s3-6.7,6.8-6.7c1.9,0,3.8.8,5.1,2.2h7.8c-1.9-5.4-7-9-12.8-9h0Z"/>
    <path class="st4" d="M32.2-.2C14.6-.2.4,13.8.4,31.2s0,.3,0,.4C.8,14.6,14.8.9,32.2.9s31.3,13.6,31.7,30.7c0-.1,0-.2,0-.4C63.9,13.8,49.7-.2,32.2-.2Z"/>
  </g>
</svg>