<?xml version="1.0" encoding="UTF-8"?>
<svg id="_图层_1" xmlns="http://www.w3.org/2000/svg" version="1.1" viewBox="0 0 64 64" width="24" height="24">
  <!-- Generator: Adobe Illustrator 29.0.1, SVG Export Plug-In . SVG Version: 2.1.0 Build 192)  -->
  <defs>
    <style>
      .st0, .st1, .st2, .st3 {
        isolation: isolate;
      }

      .st0, .st2, .st3 {
        opacity: .2;
      }

      .st0, .st4, .st3, .st5 {
        display: none;
      }

      .st6 {
        fill: #3f3f3f;
      }

      .st7, .st3 {
        fill: #fff;
      }

      .st8 {
        fill: #394045;
      }

      .st1 {
        opacity: .1;
      }

      .st9 {
        fill: #9071d6;
      }

      .st10 {
        fill: #678dfd;
      }

      .st5 {
        fill: #e4e4e4;
      }

      .st11 {
        fill: #0076e2;
      }

      .st12 {
        fill: #b7b7b7;
      }
    </style>
  </defs>
  <path class="st7" d="M50.3,64H13.9C6.3,64,.2,57.8.2,50.3V13.8C.2,6.2,6.3,0,13.9,0h36.5c7.5,0,13.7,6.2,13.7,13.7v36.5c0,7.5-6.1,13.7-13.7,13.7h0Z"/>
  <g class="st4">
    <circle class="st0" cx="31.4" cy="32.5" r="28"/>
    <circle class="st5" cx="31.4" cy="31.5" r="28"/>
    <circle class="st2" cx="31.4" cy="31.5" r="8"/>
    <path class="st1" d="M28.7,20.5c-.7,0-1.3.6-1.3,1.3v5.4s1.4,1.3,1.4,2.1-1.4,2.1-1.4,2.1v11.7c0,.7.6,1.3,1.3,1.3h5.3c.7,0,1.3-.6,1.3-1.3v-5.4h0s-1.5-1.3-1.5-2.2c0-.9,1.5-2.2,1.5-2.2h0v-11.5c0-.7-.6-1.3-1.3-1.3h-5.3Z"/>
    <path class="st8" d="M28.7,19.5c-.7,0-1.3.6-1.3,1.3v5.4s1.4,1.3,1.4,2.1-1.4,2.1-1.4,2.1v11.7c0,.7.6,1.3,1.3,1.3h5.3c.7,0,1.3-.6,1.3-1.3v-5.4h0s-1.5-1.3-1.5-2.2c0-.9,1.5-2.2,1.5-2.2h0v-11.5c0-.7-.6-1.3-1.3-1.3h-5.3Z"/>
    <path class="st1" d="M31.4,10.5c-12.1,0-22,9.9-22,22s9.9,22,22,22,22-9.9,22-22-9.9-22-22-22ZM31.4,15.5c9.4,0,17,7.6,17,17s-7.6,17-17,17-17-7.6-17-17,7.6-17,17-17Z"/>
    <path class="st11" d="M31.4,9.5c-12.1,0-22,9.9-22,22s9.9,22,22,22,22-9.9,22-22-9.9-22-22-22ZM31.4,14.5c9.4,0,17,7.6,17,17s-7.6,17-17,17-17-7.6-17-17,7.6-17,17-17Z"/>
    <path class="st3" d="M31.4,3.5C15.9,3.5,3.4,16,3.4,31.5c0,.2,0,.4,0,.6.2-15.3,12.7-27.6,28-27.6,15.2,0,27.7,12.2,28,27.4,0-.1,0-.3,0-.4,0-15.5-12.5-28-28-28Z"/>
  </g>
  <g class="st4">
    <path class="st2" d="M31.7,10.1c-13.6,0-24.8,10.6-24.8,23.7-.1,1.9,0,3.3.1,5.6.4,5.4,3.9,9.3,7,11.1,2.9,1.8,5.7,2.4,5.7,2.4,0,0,.1,0,.2,0,1.8.3,4-.4,5.2-1.6,1.2-1.2,1.7-2.7,1.7-4v-17.1c0-1.2-.4-2.5-1.4-3.7-.3-.3-.8-.6-1.2-.9,2.1-1.7,4.7-2.7,7.5-2.7,2.8,0,5.5,1,7.5,2.7-.4.3-.9.5-1.2.9-1,1.2-1.4,2.5-1.4,3.7v17.1c0,1.4.5,2.8,1.7,4,1.2,1.2,3.4,1.9,5.2,1.6,0,0,.1,0,.2,0,0,0,2.7-.6,5.7-2.4,3.1-1.9,6.6-5.7,7-11.1.1-2.2.1-3.7.1-5.6,0-13-11.2-23.7-24.8-23.7h0Z"/>
    <path class="st9" d="M31.7,9.3c-13.6,0-24.8,10.6-24.8,23.7-.1,1.9,0,3.3.1,5.6.4,5.4,3.9,9.3,7,11.1,2.9,1.8,5.7,2.4,5.7,2.4,0,0,.1,0,.2,0,1.8.3,4-.4,5.2-1.6,1.2-1.2,1.7-2.7,1.7-4v-17.1c0-1.2-.4-2.5-1.4-3.7-.3-.3-.8-.6-1.2-.9,2.1-1.7,4.7-2.7,7.5-2.7,2.8,0,5.5,1,7.5,2.7-.4.3-.9.5-1.2.9-1,1.2-1.4,2.5-1.4,3.7v17.1c0,1.4.5,2.8,1.7,4,1.2,1.2,3.4,1.9,5.2,1.6,0,0,.1,0,.2,0,0,0,2.7-.6,5.7-2.4,3.1-1.9,6.6-5.7,7-11.1.1-2.2.1-3.7.1-5.6,0-13-11.2-23.7-24.8-23.7h0Z"/>
    <path class="st2" d="M31.6,14.8c-11,0-19.9,8.5-19.9,18.9v4.4h0c0,0,0,.1,0,.2,0,4.1,2.5,6.6,4.8,8,2.3,1.4,4.1,1.8,4.1,1.8.6,0,1-.4,1-1v-17.1c0-.6-.3-1-.9-1,0,0,0,0,0,0,0,0-1.8.2-4.2,1.4-.4.2-.9.6-1.3.8,1.2-7.6,8.3-13.4,16.3-13.4,8.1,0,15.1,5.8,16.3,13.4-.4-.3-.9-.7-1.3-.9-2.4-1.2-4.2-1.4-4.2-1.4,0,0,0,0,0,0-.5,0-.9.4-.9,1v17.1c0,.6.4,1.1,1,1,0,0,1.8-.4,4.1-1.8,2.3-1.4,4.8-3.9,4.8-8,0,0,0-.1,0-.2h0v-4.4c0-10.4-8.9-18.9-19.9-18.9Z"/>
    <path class="st7" d="M31.6,14c-11,0-19.9,8.5-19.9,18.9v4.4h0c0,0,0,.1,0,.2,0,4.1,2.5,6.6,4.8,8,2.3,1.4,4.1,1.8,4.1,1.8.6,0,1-.4,1-1v-17.1c0-.6-.3-1-.9-1,0,0,0,0,0,0,0,0-1.8.2-4.2,1.4-.4.2-.9.6-1.3.8,1.2-7.6,8.3-13.4,16.3-13.4,8.1,0,15.1,5.8,16.3,13.4-.4-.3-.9-.7-1.3-.9-2.4-1.2-4.2-1.4-4.2-1.4,0,0,0,0,0,0-.5,0-.9.4-.9,1v17.1c0,.6.4,1.1,1,1,0,0,1.8-.4,4.1-1.8,2.3-1.4,4.8-3.9,4.8-8,0,0,0-.1,0-.2h0v-4.4c0-10.4-8.9-18.9-19.9-18.9Z"/>
    <path class="st3" d="M31.7,9.3h0c-13.6,0-24.8,10.6-24.8,23.7,0,.7,0,1.3,0,1.9,0-.4,0-.7,0-1.2,0-13,11.2-23.7,24.8-23.7h0c13.6,0,24.7,10.5,24.8,23.5,0-.2,0-.4,0-.6,0-13-11.2-23.7-24.8-23.7ZM38.6,25.1c-.2.2-.5.3-.6.5-1,1.2-1.4,2.5-1.4,3.7v.8c0-1.2.4-2.5,1.4-3.7.3-.3.8-.6,1.2-.9-.2-.2-.4-.3-.6-.4ZM24.7,25.1c-.2.1-.4.3-.6.4.4.3.9.5,1.2.9,1,1.2,1.4,2.5,1.4,3.7v-.8c0-1.2-.4-2.5-1.4-3.7-.2-.2-.4-.4-.6-.5Z"/>
    <ellipse class="st2" cx="45.3" cy="43.8" rx="12" ry="11.5"/>
    <ellipse class="st12" cx="45.3" cy="43" rx="12" ry="11.5"/>
    <ellipse class="st6" cx="45.3" cy="37.4" rx="2.9" ry="2.8"/>
    <ellipse class="st6" cx="45.3" cy="48.6" rx="2.9" ry="2.8"/>
    <ellipse class="st6" cx="51.1" cy="43" rx="2.9" ry="2.8"/>
    <ellipse class="st6" cx="39.5" cy="43" rx="2.9" ry="2.8"/>
  </g>
  <g>
    <path class="st0" d="M35.5,10.3c-5.5,0-10.6,3-13.2,7.9-4.3.7-7.7,4.2-8.3,8.5-6.6.7-11.5,6.2-11.5,12.8,0,7.1,5.8,12.9,12.9,12.9h34.3c7.1,0,12.9-5.8,12.9-12.9,0-6.8-5.3-12.4-12.1-12.8,0-.4,0-.9,0-1.3,0-8.3-6.7-15-15-15Z"/>
    <circle class="st10" cx="49.6" cy="38.5" r="12.9"/>
    <circle class="st10" cx="35.5" cy="24.3" r="15"/>
    <circle class="st10" cx="23.9" cy="27.1" r="10"/>
    <circle class="st10" cx="15.4" cy="38.5" r="12.9"/>
    <rect class="st10" x="15.4" y="34.2" width="34.3" height="17.1"/>
    <path class="st3" d="M35.5,9.3c-5.5,0-10.6,3-13.2,7.9-4.3.7-7.7,4.2-8.3,8.5-6.6.7-11.5,6.2-11.5,12.8,0,.1,0,.3,0,.4.3-6.4,5.2-11.5,11.5-12.2.6-4.3,4-7.8,8.3-8.5,2.6-4.8,7.7-7.8,13.2-7.9,8.1,0,14.7,6.4,15,14.5,0-.2,0-.3,0-.5,0-8.3-6.7-15-15-15ZM50.5,25.7c0,0,0,.1,0,.2,0,.2,0,.3,0,.5,0,.1,0,.2,0,.3,6.6.4,11.7,5.8,12,12.4,0-.2,0-.4,0-.5,0-6.8-5.3-12.4-12-12.8ZM50.5,26.8c0,.3,0,.5,0,.8,0,0,0,0,0,0,0-.1,0-.2,0-.3,0-.2,0-.3,0-.5Z"/>
    <path class="st2" d="M42.5,18.3l-17,6v12.3c-.5-.2-1-.3-1.5-.3-2.5,0-4.5,2-4.5,4.5s2,4.5,4.5,4.5,4.5-2,4.5-4.5v-11.6l11-3.9v8.2c-.5-.2-1-.3-1.5-.3-2.5,0-4.5,2-4.5,4.5s2,4.5,4.5,4.5,4.5-2,4.5-4.5v-19.5Z"/>
    <path class="st7" d="M42.5,17.3l-17,6v12.3c-.5-.2-1-.3-1.5-.3-2.5,0-4.5,2-4.5,4.5s2,4.5,4.5,4.5,4.5-2,4.5-4.5v-11.6l11-3.9v8.2c-.5-.2-1-.3-1.5-.3-2.5,0-4.5,2-4.5,4.5s2,4.5,4.5,4.5,4.5-2,4.5-4.5v-19.5Z"/>
  </g>
</svg>