<?xml version="1.0" encoding="UTF-8"?>
<svg id="_图层_1" xmlns="http://www.w3.org/2000/svg" version="1.1" viewBox="0 0 64 64" width="24" height="24">
  <!-- Generator: Adobe Illustrator 29.0.1, SVG Export Plug-In . SVG Version: 2.1.0 Build 192)  -->
  <defs>
    <style>
      .st0, .st1 {
        fill: #009587;
      }

      .st2, .st1, .st3 {
        display: none;
      }

      .st2, .st4, .st3 {
        isolation: isolate;
        opacity: .2;
      }

      .st5 {
        fill: #d8d8d8;
      }

      .st3 {
        fill: #fff;
      }
    </style>
  </defs>
  <path class="st0" d="M50.3,64H13.8C6.2,64,0,57.8,0,50.3V13.7c0-7.5,6.2-13.7,13.7-13.7h36.5c7.5,0,13.7,6.2,13.7,13.7v36.6c0,7.5-6.2,13.7-13.7,13.7h0Z"/>
  <g>
    <path class="st2" d="M4.4,1.1h55.2c2.4,0,4.4,1.5,4.4,3.4v57.2c0,1.9-2,3.4-4.4,3.4H4.4c-2.4,0-4.4-1.5-4.4-3.4V4.6C0,2.7,2,1.1,4.4,1.1Z"/>
    <path class="st1" d="M4.4,0h55.2c2.4,0,4.4,1.5,4.4,3.4v57.2c0,1.9-2,3.4-4.4,3.4H4.4c-2.4,0-4.4-1.5-4.4-3.4V3.4C0,1.5,2,0,4.4,0Z"/>
    <path class="st4" d="M40.8,1.1v32l5.8-4.6,5.8,4.6V1.1h-11.6Z"/>
    <path class="st5" d="M40.8,0v32l5.8-4.6,5.8,4.6V0h-11.6Z"/>
    <path class="st4" d="M12.4.1C5,.1,0,8.1,0,12.1v39.1c0,6,6.3,12.1,11.6,12.3v.4c0,0,0-64,0-64h.7Z"/>
    <path class="st3" d="M4.4,0C2,0,0,1.5,0,3.4v1.1C0,2.7,2,1.1,4.4,1.1h55.2c2.4,0,4.4,1.5,4.4,3.4v-1.1c0-1.9-1.9-3.4-4.4-3.4H4.4Z"/>
  </g>
</svg>