<?xml version="1.0" encoding="UTF-8"?>
<svg id="_图层_1" xmlns="http://www.w3.org/2000/svg" version="1.1" viewBox="0 0 64 64" width="24" height="24">
  <!-- Generator: Adobe Illustrator 29.0.1, SVG Export Plug-In . SVG Version: 2.1.0 Build 192)  -->
  <defs>
    <style>
      .st0 {
        fill: #848484;
      }

      .st1 {
        fill: #ba2d2d;
      }

      .st2, .st3 {
        isolation: isolate;
        opacity: .2;
      }

      .st4 {
        fill: #545454;
      }

      .st3 {
        fill: #fff;
      }
    </style>
  </defs>
  <path class="st4" d="M50.4,64H13.8c-7.6,0-13.8-6.2-13.8-13.7V13.7C0,6.2,6.2,0,13.7,0h36.6c7.5,0,13.7,6.2,13.7,13.7v36.6c0,7.5-6.2,13.7-13.7,13.7h.1Z"/>
  <g>
    <path class="st2" d="M11.4,53.8v2c0,1.5,1.2,2.7,2.7,2.7h34.7c1.5,0,2.7-1.2,2.7-2.7v-2c0,1.5-1.2,2.7-2.7,2.7H14.1c-1.5,0-2.7-1.2-2.7-2.7Z"/>
    <path class="st0" d="M20,5.5h2.7c1.5,0,2.7,1.2,2.7,2.8v16.5c0,1.5-1.2,2.8-2.7,2.8h-2.7c-1.5,0-2.7-1.2-2.7-2.8V8.2c0-1.5,1.2-2.8,2.7-2.8Z"/>
    <path class="st0" d="M40,5.5h2.7c1.5,0,2.7,1.2,2.7,2.8v16.5c0,1.5-1.2,2.8-2.7,2.8h-2.7c-1.5,0-2.7-1.2-2.7-2.8V8.2c0-1.5,1.2-2.8,2.7-2.8Z"/>
    <rect class="st1" x="11.4" y="25.5" width="40" height="32" rx="2.7" ry="2.7"/>
    <path class="st3" d="M20.1,5.5c-1.5,0-2.7,1.2-2.7,2.8v1c0-1.5,1.2-2.8,2.7-2.8h2.7c1.5,0,2.7,1.2,2.7,2.8v-1c0-1.5-1.2-2.8-2.7-2.8h-2.7Z"/>
    <path class="st3" d="M40.1,5.5c-1.5,0-2.7,1.2-2.7,2.8v1c0-1.5,1.2-2.8,2.7-2.8h2.7c1.5,0,2.7,1.2,2.7,2.8v-1c0-1.5-1.2-2.8-2.7-2.8h-2.7Z"/>
  </g>
</svg>