<?xml version="1.0" encoding="UTF-8"?>
<svg id="_图层_1" xmlns="http://www.w3.org/2000/svg" version="1.1" viewBox="0 0 64 64" width="24" height="24">
  <!-- Generator: Adobe Illustrator 29.0.1, SVG Export Plug-In . SVG Version: 2.1.0 Build 192)  -->
  <defs>
    <style>
      .st0 {
        fill: #df574d;
      }

      .st1 {
        fill: #4f4f4f;
      }

      .st2, .st3, .st4, .st5, .st6, .st7 {
        display: none;
      }

      .st2, .st3, .st8, .st9, .st10, .st6 {
        isolation: isolate;
      }

      .st2, .st9, .st10, .st6 {
        opacity: .2;
      }

      .st3, .st11, .st10, .st6 {
        fill: #fff;
      }

      .st3, .st8 {
        opacity: .1;
      }

      .st4 {
        fill: #45b449;
      }

      .st12 {
        fill: #37bdbd;
      }

      .st13, .st7 {
        fill: #356db6;
      }

      .st14 {
        fill: #ebebeb;
      }

      .st15 {
        fill: #393939;
      }

      .st16 {
        fill: #2fa28e;
      }
    </style>
  </defs>
  <path class="st13" d="M50.4,64H13.8c-7.6,0-13.8-6.2-13.8-13.7V13.7C0,6.2,6.2,0,13.7,0h36.6c7.5,0,13.7,6.2,13.7,13.7v36.6c0,7.5-6.2,13.7-13.7,13.7h.1Z"/>
  <g class="st5">
    <path class="st2" d="M0,32C0,32.4,0,32.7,0,33.1c0,17.7,14.2,32,31.9,32s31.9-14.3,31.9-32,0-.8,0-1.1c-.6,17.2-14.6,30.8-31.9,30.8S.7,49.1,0,32h0Z"/>
    <path class="st4" d="M31.9,0h0c17.6,0,31.9,14.3,31.9,32h0c0,17.7-14.3,32-31.9,32h0C14.3,63.9,0,49.6,0,32h0C0,14.3,14.3,0,31.9,0Z"/>
    <ellipse class="st15" cx="31.9" cy="43.4" rx="11.4" ry="11.4"/>
    <ellipse class="st15" cx="31.9" cy="29.7" rx="20.5" ry="20.6"/>
    <path class="st9" d="M16.2,31.1c3.6-.8,7.4.3,10.2,3,2.8,2.8,3.8,6.6,3,10.2-3.6.8-7.4-.3-10.2-3-2.8-2.8-3.8-6.6-3-10.2h0Z"/>
    <path class="st0" d="M16.2,29.9c3.6-.8,7.4.3,10.2,3,2.8,2.8,3.8,6.6,3,10.2-3.6.8-7.4-.3-10.2-3-2.8-2.8-3.8-6.6-3-10.2h0Z"/>
    <path class="st9" d="M47.7,31.1c-3.6-.8-7.4.3-10.2,3-2.8,2.8-3.8,6.6-3,10.2,3.6.8,7.4-.3,10.2-3,2.8-2.8,3.8-6.6,3-10.2Z"/>
    <path class="st0" d="M47.7,29.9c-3.6-.8-7.4.3-10.2,3-2.8,2.8-3.8,6.6-3,10.2,3.6.8,7.4-.3,10.2-3,2.8-2.8,3.8-6.6,3-10.2Z"/>
    <path class="st6" d="M31.9,0C14.2,0,0,14.3,0,32s0,.3,0,.4C.4,15,14.5,1.1,31.9,1.1s31.5,13.9,31.9,31.2c0-.1,0-.3,0-.4C63.9,14.3,49.6,0,31.9,0Z"/>
  </g>
  <g class="st5">
    <path class="st9" d="M32,4.9c-1.9,0-3.6.8-4.6,2.3L4.2,43.9c-.9,3.6,1.8,6.2,5.8,8.1,7.6,3.6,19.8,4.8,21.8,4.8,3.3,0,13.3-1.4,20.5-4.3,5.4-2.2,9.2-5.1,7.1-8.7L36.1,7.2c-.9-1.3-2.4-2.2-4.1-2.3Z"/>
    <path class="st16" d="M32,3.9c-1.9,0-3.6.8-4.6,2.3L4.2,42.9c-.9,3.6,1.8,6.2,5.8,8.1,7.6,3.6,19.8,4.8,21.8,4.8,3.3,0,13.3-1.4,20.5-4.3,5.4-2.2,9.2-5.1,7.1-8.7L36.1,6.2c-.9-1.3-2.4-2.2-4.1-2.3Z"/>
    <path class="st9" d="M32.1,4.9c-1.9,0-3.6.8-4.5,2.3l-3.5,5.5c0,.3,0,.5,0,.8v39.8c0,4.3,4.6,5.7,8,5.7s8-1.4,8-5.7V13.4c0-.1,0-.3,0-.4l-3.7-5.9c-.8-1.2-2.1-2-3.6-2.2-.2,0-.4,0-.6,0Z"/>
    <path class="st14" d="M32,3.9c-1.9,0-3.6.8-4.6,2.3l-3.5,5.5v40.6c0,4.3,4.6,5.7,8,5.7s8-1.4,8-5.7V12.3l-3.9-6.1c-.9-1.3-2.4-2.2-4.1-2.3Z"/>
    <path class="st9" d="M15,22.9h0c1.7,0,3,1.9,3,4.2v25.5c0,2.3-1.3,4.2-3,4.2h0c-1.7,0-3-1.9-3-4.2v-25.5c0-2.3,1.3-4.2,3-4.2Z"/>
    <path class="st10" d="M32,3.9c-1.9,0-3.6.8-4.6,2.3L4.2,42.9c-.2.7-.2,1.3-.1,1.9,0-.3,0-.6.1-.9L27.5,7.2c.9-1.5,2.7-2.4,4.6-2.3,1.7,0,3.2.9,4.1,2.3l23.3,36.8c.3.5.5,1,.5,1.5.1-.8,0-1.6-.5-2.5L36.1,6.2c-.9-1.3-2.4-2.2-4.1-2.3Z"/>
    <path class="st12" d="M15,21.9h0c1.7,0,3,1.9,3,4.2v25.5c0,2.3-1.3,4.2-3,4.2h0c-1.7,0-3-1.9-3-4.2v-25.5c0-2.3,1.3-4.2,3-4.2Z"/>
    <ellipse class="st8" cx="32" cy="40.7" rx="7" ry="8.2"/>
    <ellipse class="st1" cx="32" cy="39.7" rx="7" ry="8.2"/>
    <path class="st9" d="M49,22.9h0c1.7,0,3,1.9,3,4.2v25.5c0,2.3-1.3,4.2-3,4.2h0c-1.7,0-3-1.9-3-4.2v-25.5c0-2.3,1.3-4.2,3-4.2Z"/>
    <path class="st12" d="M49,21.9h0c1.7,0,3,1.9,3,4.2v25.5c0,2.3-1.3,4.2-3,4.2h0c-1.7,0-3-1.9-3-4.2v-25.5c0-2.3,1.3-4.2,3-4.2Z"/>
    <path class="st10" d="M15,21.9c-1.7,0-3,1.9-3,4.2v1c0-2.4,1.3-4.2,3-4.2s3,1.9,3,4.2v-1c0-2.4-1.3-4.2-3-4.2Z"/>
    <path class="st10" d="M49,21.9c-1.7,0-3,1.9-3,4.2v1c0-2.4,1.3-4.2,3-4.2s3,1.9,3,4.2v-1c0-2.4-1.3-4.2-3-4.2Z"/>
  </g>
  <g>
    <path class="st2" d="M51.5,24.1c0,19.6-11.1,36.4-19.5,36.4S12.5,43.7,12.5,24.1,21.2,4.5,32,4.5s19.5,8.8,19.5,19.6Z"/>
    <path class="st7" d="M51.5,23.1c0,19.6-11.1,36.4-19.5,36.4S12.5,42.7,12.5,23.1,21.2,3.5,32,3.5s19.5,8.8,19.5,19.6Z"/>
    <path class="st9" d="M34.5,45.3c-.2-.5,1.7-5.3,2.8-7,2.1-3.3,5-5.2,8.5-5.7,1.7-.3,1.8-.2,1.6,1.1-.3,2.9-1.1,5-3.1,7.3-2.1,2.4-5.4,4.1-8.8,4.4-.8,0-1,0-1.1-.1Z"/>
    <path class="st11" d="M34.5,44.3c-.2-.5,1.7-5.3,2.8-7,2.1-3.3,5-5.2,8.5-5.7,1.7-.3,1.8-.2,1.6,1.1-.3,2.9-1.1,5-3.1,7.3-2.1,2.4-5.4,4.1-8.8,4.4-.8,0-1,0-1.1-.1Z"/>
    <path class="st9" d="M29.5,45.3c.2-.5-1.7-5.3-2.8-7-2.1-3.3-5-5.2-8.5-5.7-1.7-.3-1.8-.2-1.6,1.1.3,2.9,1.1,5,3.1,7.3,2.1,2.4,5.4,4.1,8.8,4.4.8,0,1,0,1.1-.1Z"/>
    <path class="st11" d="M29.5,44.3c.2-.5-1.7-5.3-2.8-7-2.1-3.3-5-5.2-8.5-5.7-1.7-.3-1.8-.2-1.6,1.1.3,2.9,1.1,5,3.1,7.3,2.1,2.4,5.4,4.1,8.8,4.4.8,0,1,0,1.1-.1Z"/>
    <path class="st3" d="M32,3.5c-10.8,0-19.5,8.8-19.5,19.6s0,.4,0,.6c.2-10.6,8.9-19.2,19.5-19.2s19.3,8.6,19.5,19.2c0-.2,0-.4,0-.6,0-10.8-8.7-19.6-19.5-19.6Z"/>
  </g>
</svg>