<?xml version="1.0" encoding="UTF-8" standalone="no"?>
<svg
   id="_图层_1"
   version="1.1"
   viewBox="0 0 64 64" width="24" height="24"
   sodipodi:docname="ares.svg"
   xml:space="preserve"
   inkscape:version="1.4 (e7c3feb100, 2024-10-09)"
   xmlns:inkscape="http://www.inkscape.org/namespaces/inkscape"
   xmlns:sodipodi="http://sodipodi.sourceforge.net/DTD/sodipodi-0.dtd"
   xmlns="http://www.w3.org/2000/svg"
   xmlns:svg="http://www.w3.org/2000/svg"><sodipodi:namedview
     id="namedview26"
     pagecolor="#505050"
     bordercolor="#eeeeee"
     borderopacity="1"
     inkscape:showpageshadow="0"
     inkscape:pageopacity="0"
     inkscape:pagecheckerboard="0"
     inkscape:deskcolor="#505050"
     inkscape:zoom="10.6875"
     inkscape:cx="44.25731"
     inkscape:cy="32"
     inkscape:window-width="1920"
     inkscape:window-height="939"
     inkscape:window-x="0"
     inkscape:window-y="34"
     inkscape:window-maximized="1"
     inkscape:current-layer="_图层_1" /><!-- Generator: Adobe Illustrator 29.0.1, SVG Export Plug-In . SVG Version: 2.1.0 Build 192)  --><defs
     id="defs6"><inkscape:path-effect
       effect="fillet_chamfer"
       id="path-effect26"
       is_visible="true"
       lpeversion="1"
       nodesatellites_param="F,0,0,1,0,0,0,1 @ F,0,0,1,0,0,0,1 @ F,0,0,1,0,0,0,1 @ F,0,0,1,0,0,0,1 @ F,0,0,1,0,0,0,1 @ F,0,0,1,0,0,0,1"
       radius="0"
       unit="px"
       method="auto"
       mode="F"
       chamfer_steps="1"
       flexible="false"
       use_knot_distance="true"
       apply_no_radius="true"
       apply_with_radius="true"
       only_selected="false"
       hide_knots="false" /><style
       id="style1">
      .st0 {
        fill-opacity: .5;
      }

      .st0, .st1, .st2, .st3, .st4, .st5, .st6, .st7 {
        fill: #fff;
      }

      .st8 {
        fill: #133c9a;
      }

      .st2, .st9 {
        display: none;
      }

      .st3 {
        fill-opacity: .2;
      }

      .st4 {
        fill-opacity: .9;
      }

      .st10 {
        fill: #3370ff;
      }

      .st11 {
        fill: url(#_未命名的渐变_3);
      }

      .st12 {
        fill: url(#_未命名的渐变);
      }

      .st5 {
        fill-opacity: .3;
      }

      .st6 {
        fill-opacity: 0;
      }

      .st7 {
        fill-opacity: .7;
      }

      .st13 {
        fill: #00d6b9;
      }

      .st14 {
        fill: url(#_未命名的渐变_2);
      }
    </style><radialGradient
       id="_未命名的渐变"
       data-name="未命名的渐变"
       cx="123.9"
       cy="-40.2"
       fx="123.9"
       fy="-40.2"
       r="59.4"
       gradientTransform="translate(-26.8 25.5) scale(.6 -.7)"
       gradientUnits="userSpaceOnUse"><stop
         offset="0"
         stop-color="#db202e"
         id="stop1" /><stop
         offset="1"
         stop-color="#e01b24"
         id="stop2" /></radialGradient><radialGradient
       id="_未命名的渐变_2"
       data-name="未命名的渐变 2"
       cx="67.6"
       cy="26.8"
       fx="67.6"
       fy="26.8"
       r="105.2"
       gradientTransform="translate(-26.6 25.3) scale(.6 -.7)"
       gradientUnits="userSpaceOnUse"><stop
         offset="0"
         stop-color="#ffb648"
         id="stop3" /><stop
         offset="1"
         stop-color="#ff7800"
         stop-opacity="0"
         id="stop4" /></radialGradient><radialGradient
       id="_未命名的渐变_3"
       data-name="未命名的渐变 3"
       cx="61.7"
       cy="18.6"
       fx="61.7"
       fy="18.6"
       r="68"
       gradientTransform="translate(-26.8 25.8) scale(.6 -.7)"
       gradientUnits="userSpaceOnUse"><stop
         offset="0"
         stop-color="#c64600"
         id="stop5" /><stop
         offset="1"
         stop-color="#a51d2d"
         id="stop6" /></radialGradient></defs><path
     class="st1"
     d="M 47.5,64.1 H 13.8 C 6.2,64.1 0,57.8 0,50.3 V 13.7 C 0,6.2 6.2,0 13.7,0 H 50.3 C 57.8,0 64,6.2 64,13.7 V 50.3 C 64,57.8 57.8,64 50.3,64 h -2.9 0.1 z"
     id="path6"
     style="display:inline;fill:#4d4d4d;fill-opacity:1" /><g
     id="g26"
     transform="translate(-0.63137595,-0.03182013)"><path
       style="opacity:0.2"
       d="M 34.579776,5.0104239 C 32.47333,4.8075079 31.584617,7.6219485 33.426397,8.6630263 39.354936,12.025701 42.997767,18.301064 43,25.111206 43,35.583638 34.560162,43.99721 24.076897,44 17.281233,43.98153 11.024724,40.368459 7.664235,34.468293 6.618911,32.635343 3.809976,33.522949 4.0101723,35.622953 5.3899035,49.972982 17.473713,60.967483 31.905573,60.999998 c 0.0017,3e-6 0.0034,3e-6 0.005,0 C 47.400752,60.999998 60,48.414572 60,32.94149 59.999063,18.495746 48.975953,6.3830518 34.579776,5.0104239 Z"
       id="path1" /><path
       style="fill:#fdd835"
       d="M 34.579776,4.0104241 C 32.47333,3.8075081 31.584617,6.6219487 33.426397,7.6630265 39.354936,11.025701 42.997767,17.301064 43,24.111206 43,34.583638 34.560162,42.99721 24.076897,43 17.281233,42.98153 11.024724,39.368459 7.664235,33.468293 6.618911,31.635343 3.809976,32.522949 4.0101723,34.622953 5.3899035,48.972982 17.473713,59.967483 31.905573,59.999998 c 0.0017,3e-6 0.0034,3e-6 0.005,0 C 47.400752,59.999998 60,47.414572 60,31.94149 59.999063,17.495746 48.975953,5.3830521 34.579776,4.0104241 Z"
       id="path2" /><path
       style="opacity:0.2;fill:#ffffff"
       d="M 34.199219,4.0058594 C 32.91497,4.1083845 32.206755,5.3920703 32.496094,6.484375 32.71522,5.6252147 33.47845,4.9036447 34.580078,5.0097656 48.800871,6.3656712 59.723189,18.203646 59.988281,32.416016 59.990938,32.25743 60,32.100614 60,31.941406 59.999063,17.495662 48.976255,5.3823936 34.580078,4.0097656 34.448425,3.9970834 34.320989,3.9961381 34.199219,4.0058594 Z M 42.984375,24.675781 C 42.686449,34.883445 34.369695,42.99726 24.076172,43 17.280508,42.98153 11.024552,39.368916 7.6640625,33.46875 6.6187385,31.6358 3.8095693,32.523043 4.0097656,34.623047 c 0.011412,0.118689 0.030097,0.23529 0.042969,0.353515 C 4.4137601,33.362687 6.7340913,32.838068 7.6640625,34.46875 11.024552,40.368916 17.280508,43.98153 24.076172,44 34.559437,43.99721 43,35.58376 43,25.111328 c -4.8e-5,-0.146035 -0.01224,-0.290027 -0.01563,-0.435547 z"
       id="path3" /></g></svg>
