<?xml version="1.0" encoding="UTF-8"?>
<svg id="_图层_1" xmlns="http://www.w3.org/2000/svg" version="1.1" viewBox="0 0 64 64" width="24" height="24">
  <!-- Generator: Adobe Illustrator 29.0.1, SVG Export Plug-In . SVG Version: 2.1.0 Build 192)  -->
  <defs>
    <style>
      .st0 {
        fill: #2c9f5a;
      }

      .st1 {
        display: none;
        fill: red;
      }

      .st2 {
        fill: #fff;
      }

      .st3 {
        fill: #f2b714;
      }

      .st4 {
        fill: #0ea8f4;
      }

      .st5 {
        fill: #068fd2;
      }

      .st6 {
        fill: #32cc70;
      }

      .st7 {
        fill: #fb5e46;
      }
    </style>
  </defs>
  <path class="st1" d="M50.4,64H13.8c-7.6,0-13.8-6.2-13.8-13.7V13.7C0,6.2,6.2,0,13.7,0h36.6c7.5,0,13.7,6.2,13.7,13.7v36.6c0,7.5-6.2,13.7-13.7,13.7h.1Z"/>
  <g>
    <path class="st7" d="M0,21.4h63.9v21.4H0v-21.4Z"/>
    <path class="st4" d="M63.9,21.4v-9C64.1,9.4,59.6,0,50.5,0H13C5.2.1,0,8.4,0,13.3v8c0,0,63.8,0,63.8,0Z"/>
    <path class="st6" d="M0,42.7v8.1c0,9.1,9,13.4,14.6,13.3l34.7-.2c11.9,0,14.7-10.1,14.7-13.6v-7.6H0Z"/>
    <path class="st0" d="M0,42.7h63.9v3.6H0v-3.6Z"/>
    <path class="st5" d="M0,17.8h63.9v3.6H0v-3.6Z"/>
    <path class="st3" d="M25.6,0h12.8v64.1h-12.8s0-64.1,0-64.1Z"/>
    <path class="st2" d="M39,27.5v9.4h-14.5v-9.4h14.5ZM41.4,23.7h-19.2c-.3,0-.9.4-.9,1v14.9c0,.4.3,1,.9,1h19.2c.3,0,.9-.4.9-1v-14.9c-.2-.7-.6-1-.9-1Z"/>
  </g>
</svg>