<?xml version="1.0" encoding="UTF-8"?>
<svg id="_图层_1" data-name="图层_1" xmlns="http://www.w3.org/2000/svg" version="1.1" viewBox="0 0 200 200" width="24" height="24">
  <!-- Generator: Adobe Illustrator 29.0.1, SVG Export Plug-In . SVG Version: 2.1.0 Build 192)  -->
  <defs>
    <style>
      .st0 {
        fill: #fff;
      }

      .st1 {
        fill: #f46c6c;
      }

      .st2 {
        fill: #75cf9f;
      }

      .st3 {
        fill: #58adf0;
      }

      .st4 {
        fill: #ffcd5f;
      }
    </style>
  </defs>
  <path class="st1" d="M40.1,0h120c29.4,0,39.9,34.4,39.9,39.9.7,8.2-.5-37.5,0-29.9v150.7c0,26.8-34.3,39.3-39.9,39.3H40.1C5.2,200-.2,166.2-.2,160.7c0,0,.8-8.9,0,0V39.9C-.2,34.4,7.7,0,40.1,0Z"/>
  <path class="st3" d="M200,40.9v29.1H0l-.2-31.4C-.2,33.1-.2,0,39.9,0h119.3c40.9,0,40.9,34.4,40.9,39.9,0,29.9,0,1,0,1Z"/>
  <path class="st2" d="M200,130v30.7c0,34.7-39.9,39.3-39.9,39.3H40.1C3.6,200-.2,166.2-.2,160.7c0,0-.2-14,0,0l.2-30.7h200Z"/>
  <path class="st4" d="M130,200h-60V0h60v200Z"/>
  <path class="st0" d="M65,60h70c3.3,0,5,1.7,5,5v70c0,3.3-1.7,5-5,5h-70c-3.3,0-5-1.7-5-5v-70c0-3.3,1.7-5,5-5Z"/>
  <path class="st4" d="M75,70h50c3.3,0,5,1.7,5,5v50c0,3.3-1.7,5-5,5h-50c-3.3,0-5-1.7-5-5v-50c0-3.3,1.7-5,5-5Z"/>
</svg>
