<?xml version="1.0" encoding="UTF-8" standalone="no"?>
<svg
   id="_图层_1"
   version="1.1"
   viewBox="0 0 64 64" width="24" height="24"
   sodipodi:docname="audiobook.svg"
   xml:space="preserve"
   inkscape:version="1.4 (e7c3feb100, 2024-10-09)"
   xmlns:inkscape="http://www.inkscape.org/namespaces/inkscape"
   xmlns:sodipodi="http://sodipodi.sourceforge.net/DTD/sodipodi-0.dtd"
   xmlns="http://www.w3.org/2000/svg"
   xmlns:svg="http://www.w3.org/2000/svg"><sodipodi:namedview
     id="namedview26"
     pagecolor="#505050"
     bordercolor="#eeeeee"
     borderopacity="1"
     inkscape:showpageshadow="0"
     inkscape:pageopacity="0"
     inkscape:pagecheckerboard="0"
     inkscape:deskcolor="#505050"
     inkscape:zoom="10.6875"
     inkscape:cx="32"
     inkscape:cy="24.51462"
     inkscape:window-width="1920"
     inkscape:window-height="939"
     inkscape:window-x="0"
     inkscape:window-y="34"
     inkscape:window-maximized="1"
     inkscape:current-layer="g26" /><!-- Generator: Adobe Illustrator 29.0.1, SVG Export Plug-In . SVG Version: 2.1.0 Build 192)  --><defs
     id="defs6"><style
       id="style1">
      .st0 {
        fill-opacity: .5;
      }

      .st0, .st1, .st2, .st3, .st4, .st5, .st6, .st7 {
        fill: #fff;
      }

      .st8 {
        fill: #133c9a;
      }

      .st2, .st9 {
        display: none;
      }

      .st3 {
        fill-opacity: .2;
      }

      .st4 {
        fill-opacity: .9;
      }

      .st10 {
        fill: #3370ff;
      }

      .st11 {
        fill: url(#_未命名的渐变_3);
      }

      .st12 {
        fill: url(#_未命名的渐变);
      }

      .st5 {
        fill-opacity: .3;
      }

      .st6 {
        fill-opacity: 0;
      }

      .st7 {
        fill-opacity: .7;
      }

      .st13 {
        fill: #00d6b9;
      }

      .st14 {
        fill: url(#_未命名的渐变_2);
      }
    </style><radialGradient
       id="_未命名的渐变"
       data-name="未命名的渐变"
       cx="123.9"
       cy="-40.2"
       fx="123.9"
       fy="-40.2"
       r="59.4"
       gradientTransform="translate(-26.8 25.5) scale(.6 -.7)"
       gradientUnits="userSpaceOnUse"><stop
         offset="0"
         stop-color="#db202e"
         id="stop1" /><stop
         offset="1"
         stop-color="#e01b24"
         id="stop2" /></radialGradient><radialGradient
       id="_未命名的渐变_2"
       data-name="未命名的渐变 2"
       cx="67.6"
       cy="26.8"
       fx="67.6"
       fy="26.8"
       r="105.2"
       gradientTransform="translate(-26.6 25.3) scale(.6 -.7)"
       gradientUnits="userSpaceOnUse"><stop
         offset="0"
         stop-color="#ffb648"
         id="stop3" /><stop
         offset="1"
         stop-color="#ff7800"
         stop-opacity="0"
         id="stop4" /></radialGradient><radialGradient
       id="_未命名的渐变_3"
       data-name="未命名的渐变 3"
       cx="61.7"
       cy="18.6"
       fx="61.7"
       fy="18.6"
       r="68"
       gradientTransform="translate(-26.8 25.8) scale(.6 -.7)"
       gradientUnits="userSpaceOnUse"><stop
         offset="0"
         stop-color="#c64600"
         id="stop5" /><stop
         offset="1"
         stop-color="#a51d2d"
         id="stop6" /></radialGradient></defs><path
     class="st1"
     d="M47.5,64.1H13.8c-7.6,0-13.8-6.3-13.8-13.8V13.7C0,6.2,6.2,0,13.7,0h36.6c7.5,0,13.7,6.2,13.7,13.7v36.6c0,7.5-6.2,13.7-13.7,13.7h-2.9.1Z"
     id="path6"
     style="fill:#009587;fill-opacity:1" /><g
     id="g26"
     transform="matrix(1.1784709,0,0,1.0777084,-11.743773,-4.2435821)"><path
       style="opacity:0.2;stroke-width:1.14212"
       d="M 19.560191,4.0868206 C 16.699593,3.9331042 10,9.2410805 10,15.347177 v 36.518007 c 0,5.671994 5.962787,11.847635 11.306929,11.607639 l -0.05165,0 -0.0794,-59.2991819 z"
       id="path3"
       sodipodi:nodetypes="ssssccs" /><path
       style="opacity:0.2"
       d="m 38,5 v 28 l 4,-4 4,4 V 5 Z"
       id="path4" /><path
       style="fill:#d8d8d8"
       d="m 38,4 v 28 l 4,-4 4,4 V 4 Z"
       id="path5" /><path
       style="opacity:0.2;fill-rule:evenodd"
       d="M 63.958,45.848 A 16,16 0 0 1 48,61 16,16 0 0 1 32.042,46.152 16,16 0 0 0 32,47 16,16 0 0 0 48,63 16,16 0 0 0 64,47 16,16 0 0 0 63.958,45.848 Z"
       id="path7" /><circle
       style="fill:#f34235"
       cx="48"
       cy="46"
       r="16"
       id="circle7" /><path
       style="fill:#ffffff"
       d="m 48,36 -6.087891,6 H 38 v 8 h 3.912109 L 48,56 Z m 2,0 v 2 c 3.374499,1.057203 6,4.328606 6,8 0,3.671394 -2.625291,6.942797 -6,8 v 2 c 4.581908,-1.114222 8,-5.142957 8,-10 0,-4.857249 -3.418092,-8.885778 -8,-10 z m 0,6 v 8 c 1.776528,-0.773276 3,-2.266708 3,-4 0,-1.733292 -1.206688,-3.226532 -3,-4 z"
       id="path8" /></g></svg>
