<?xml version="1.0" encoding="UTF-8" standalone="no"?>
<svg
   id="_图层_1"
   version="1.1"
   viewBox="0 0 64 64" width="24" height="24"
   sodipodi:docname="betaflight-configurator.svg"
   xml:space="preserve"
   inkscape:version="1.4 (e7c3feb100, 2024-10-09)"
   xmlns:inkscape="http://www.inkscape.org/namespaces/inkscape"
   xmlns:sodipodi="http://sodipodi.sourceforge.net/DTD/sodipodi-0.dtd"
   xmlns="http://www.w3.org/2000/svg"
   xmlns:svg="http://www.w3.org/2000/svg"><sodipodi:namedview
     id="namedview26"
     pagecolor="#505050"
     bordercolor="#eeeeee"
     borderopacity="1"
     inkscape:showpageshadow="0"
     inkscape:pageopacity="0"
     inkscape:pagecheckerboard="0"
     inkscape:deskcolor="#505050"
     inkscape:zoom="10.6875"
     inkscape:cx="32"
     inkscape:cy="24.51462"
     inkscape:window-width="1920"
     inkscape:window-height="939"
     inkscape:window-x="0"
     inkscape:window-y="34"
     inkscape:window-maximized="1"
     inkscape:current-layer="_图层_1" /><!-- Generator: Adobe Illustrator 29.0.1, SVG Export Plug-In . SVG Version: 2.1.0 Build 192)  --><defs
     id="defs6"><style
       id="style1">
      .st0 {
        fill-opacity: .5;
      }

      .st0, .st1, .st2, .st3, .st4, .st5, .st6, .st7 {
        fill: #fff;
      }

      .st8 {
        fill: #133c9a;
      }

      .st2, .st9 {
        display: none;
      }

      .st3 {
        fill-opacity: .2;
      }

      .st4 {
        fill-opacity: .9;
      }

      .st10 {
        fill: #3370ff;
      }

      .st11 {
        fill: url(#_未命名的渐变_3);
      }

      .st12 {
        fill: url(#_未命名的渐变);
      }

      .st5 {
        fill-opacity: .3;
      }

      .st6 {
        fill-opacity: 0;
      }

      .st7 {
        fill-opacity: .7;
      }

      .st13 {
        fill: #00d6b9;
      }

      .st14 {
        fill: url(#_未命名的渐变_2);
      }
    </style><radialGradient
       id="_未命名的渐变"
       data-name="未命名的渐变"
       cx="123.9"
       cy="-40.2"
       fx="123.9"
       fy="-40.2"
       r="59.4"
       gradientTransform="translate(-26.8 25.5) scale(.6 -.7)"
       gradientUnits="userSpaceOnUse"><stop
         offset="0"
         stop-color="#db202e"
         id="stop1" /><stop
         offset="1"
         stop-color="#e01b24"
         id="stop2" /></radialGradient><radialGradient
       id="_未命名的渐变_2"
       data-name="未命名的渐变 2"
       cx="67.6"
       cy="26.8"
       fx="67.6"
       fy="26.8"
       r="105.2"
       gradientTransform="translate(-26.6 25.3) scale(.6 -.7)"
       gradientUnits="userSpaceOnUse"><stop
         offset="0"
         stop-color="#ffb648"
         id="stop3" /><stop
         offset="1"
         stop-color="#ff7800"
         stop-opacity="0"
         id="stop4" /></radialGradient><radialGradient
       id="_未命名的渐变_3"
       data-name="未命名的渐变 3"
       cx="61.7"
       cy="18.6"
       fx="61.7"
       fy="18.6"
       r="68"
       gradientTransform="translate(-26.8 25.8) scale(.6 -.7)"
       gradientUnits="userSpaceOnUse"><stop
         offset="0"
         stop-color="#c64600"
         id="stop5" /><stop
         offset="1"
         stop-color="#a51d2d"
         id="stop6" /></radialGradient></defs><path
     class="st1"
     d="M47.5,64.1H13.8c-7.6,0-13.8-6.3-13.8-13.8V13.7C0,6.2,6.2,0,13.7,0h36.6c7.5,0,13.7,6.2,13.7,13.7v36.6c0,7.5-6.2,13.7-13.7,13.7h-2.9.1Z"
     id="path6"
     style="fill:#4f4f4f;fill-opacity:1" /><rect
     class="st2"
     x="3"
     y="9.7"
     width="58.1"
     height="45.3"
     id="rect6" /><g
     class="st9"
     id="g23"><path
       class="st8"
       d="M50.3,23.1c.2,0,.5,0,.7,0,1.8.2,3.5.7,5.1,1.4.5.2.6.4.2.8-1.2,1.2-2.1,2.7-2.9,4.2-.8,1.7-1.6,3.3-2.5,4.9-.6,1.2-1.4,2.3-2.4,3.3-2.5,2.3-5.4,3.2-8.8,2.8-3.8-.5-7.5-1.8-10.9-3.5-.2,0-.3-.2-.5-.3-.1,0-.2-.2,0-.3,0,0,0,0,0,0h.2c2.8-1.6,5.1-3.7,7.3-5.9.9-.9,1.9-1.9,2.8-2.8,2.1-2,4.7-3.4,7.5-4,.6-.2,1.2-.3,1.9-.4h1.4"
       id="path21" /><path
       class="st10"
       d="M23.4,49.9c-.4,0-1.5-.2-1.6-.2-2.7-.3-5.3-1.1-7.7-2.3-1.4-.7-2.8-1.4-4.1-2.2-.9-.5-1.3-1.3-1.3-2.3,0-3.9,0-7.8,0-11.7,0-2.5,0-5-.1-7.5,0-.2,0-.4.1-.7.2-.5.5-.5.8-.2.4.3.6.8,1,1.1,3.2,3.1,6.5,6,10.3,8.3,2.1,1.4,4.3,2.6,6.6,3.6,3.6,1.7,7.4,3.1,11.3,4,3.5.8,6.8.3,9.6-1.9.9-.7,1.3-1.3,2.3-2.6-.5,1.2-1,2.3-1.8,3.4-.7,1-2.1,2.4-3.2,3.5-1.7,1.6-3.9,3-6,4.1-2.3,1.2-4.6,2.2-7.2,2.7-1.3.3-3.2.7-3.8.7-.1,0-.5,0-.7,0-1.7.1-2.7.2-4.4,0h0Z"
       id="path22" /><path
       class="st13"
       d="M16.2,12.3c.1,0,.2,0,.3,0,7.2,0,14.3.1,21.4.1s0,0,0,0c.7.6,1.3,1.2,1.8,1.9,1.6,1.6,2.8,4.4,3.6,6.1.4,1.2,1,2.3,1.3,3.6h0c-.7.3-1.4.5-2.1.9-2.1,1-3,1.8-4.7,3.5-.9.9-1.7,1.7-3,2.9-.5.4-.9.9-1.4,1.3-.3-.6-5.9-11.5-17.1-20"
       id="path23" /></g><g
     id="g26"
     transform="matrix(1.1436926,0,0,1.1444547,-4.504595,-4.5398072)"><path
       style="opacity:0.2"
       class="st0"
       d="m 44.233644,42.773132 c -3.140186,-1.345384 -5.429908,-3.363458 -7.654204,-4.237958 1.17757,-0.538154 2.28972,-1.278112 2.943924,-1.950806 0.719624,-0.73996 0.981308,-1.614458 0.915888,-2.488958 2.355138,1.614458 5.102804,1.748998 6.542054,1.816268 1.439252,0.06728 2.878504,0.403614 3.140188,1.076306 0,0 0.457944,-8.20684 -15.962614,-13.655642 0,0 4.90654,2.287152 6.411212,4.103418 0,0 -1.766356,-0.13454 -2.48598,1.076308 -0.392524,0.605422 -0.457946,1.479922 -0.13084,2.488958 -0.26168,-0.06728 -0.588782,-0.06728 -0.915886,-0.13454 L 11,15.999999 l 2.747664,6.054227 -2.551402,-0.94177 0.785046,1.479924 c 0,0 1.11215,2.152612 3.598132,6.659646 1.962616,3.565264 5.495326,5.314264 10.205604,5.112456 h 0.588786 c 1.17757,-0.06728 3.009346,-0.269074 4.7757,-0.403614 -0.13084,0.672692 -0.13084,1.479922 0.06542,2.42169 0.19626,1.076308 0.654206,1.816266 1.177568,2.219884 -1.37383,0.67269 -2.48207,2.018074 -3.005436,3.565266 v 0 c -0.392522,1.009036 -0.523364,2.152612 0,3.565264 v 0 c 0.06542,0.269078 0.19626,0.538154 0.392524,0.8745 0.13084,0.269078 0.327104,0.538152 0.588786,0.807228 2.878504,3.565268 9.743754,2.959844 14.19235,1.076308 0.06542,0 0.13084,-0.06728 0.19626,-0.06728 0.3271,-0.13454 0.719624,-0.336346 1.046728,-0.470884 0.06542,-0.06728 0.13084,-0.06728 0.19626,-0.13454 0.392522,-0.201816 0.719626,-0.403618 1.112148,-0.605424 C 51.495326,44.589384 53,41.495002 53,41.495002 c 0,0 -4.51402,3.094382 -8.766356,1.278114 z m 0.71157,-12.57667 c 1.242992,0.538156 3.140188,3.767076 3.140188,3.767076 -1.570094,-0.269076 -4.7757,-1.345384 -5.102804,-2.556228 -0.327102,-1.210848 0.719628,-1.748998 1.962616,-1.210848 z M 41.2243,46.472938 c 0,0 0.327102,1.076304 -0.06542,2.488956 -0.457944,0.13454 -0.915888,0.201816 -1.37383,0.336348 0.785044,-0.605422 1.439252,-1.547192 1.439252,-2.825304 z M 19.700937,25.95584 31.018692,32.548218 c -2.093458,0.201816 -4.252336,0.403614 -5.364486,0.470884 -1.700934,0.06728 -3.205608,-0.13454 -4.51402,-0.605422 -1.962614,-0.672692 -3.401865,-2.018074 -4.448595,-3.834344 -1.30841,-2.287152 -2.158878,-3.96888 -2.747663,-5.045184 l 2.355139,0.807228 -2.355139,-5.179729 20.607474,11.704837 c -0.588786,0.06728 -1.11215,0.269078 -1.635514,0.470886 z m 12.037379,8.274108 c 0.785048,-3.901612 5.691592,-2.690768 5.691592,-2.690768 -1.766356,0 -2.813086,0.470884 -3.33645,1.210848 -0.785046,1.076304 0.19626,1.950804 0.19626,1.950804 -0.26168,-0.06728 -0.523362,-0.13454 -0.654206,-0.269076 v 0.06728 c 0.392526,1.547188 1.635514,1.950804 1.635514,1.950804 -0.45794,0.06728 -0.850464,0 -1.177568,-0.06728 0.261684,0.605424 0.654204,1.076308 0.850466,1.210846 -1.11215,0 -1.635512,0.269076 -2.028036,0.403614 -0.850468,-0.605422 -1.570094,-2.085342 -1.177572,-3.767072 z m 3.53662,8.610452 c 0,0 -1.766354,2.287152 -5.626168,2.287152 -0.19626,-0.8745 -0.13084,-1.748998 0.06542,-2.556228 1.24299,0.80723 3.074768,1.210846 5.560746,0.269076 z m -3.205606,5.314266 c 1.635512,-0.403616 3.72897,-1.345384 5.691588,-3.632536 0,0 -0.261684,2.556228 -2.093458,4.91065 -0.850468,-0.13454 -1.700934,-0.336346 -2.485982,-0.672692 -0.392522,-0.201814 -0.785046,-0.403616 -1.112148,-0.605422 z M 47.30841,46.06932 c -0.19626,-0.605422 -0.327104,-1.883534 -0.327104,-1.883534 1.373834,0.13454 3.009346,-0.470886 3.009346,-0.470886 -1.112148,1.47992 -2.682242,2.35442 -2.682242,2.35442 z"
       id="path2" /><path
       style="fill:#ffbb00"
       class="st0"
       d="m 44.233644,41.773132 c -3.140186,-1.345384 -5.429908,-3.363458 -7.654204,-4.237958 1.17757,-0.538154 2.28972,-1.278112 2.943924,-1.950806 0.719624,-0.73996 0.981308,-1.614458 0.915888,-2.488958 2.355138,1.614458 5.102804,1.748998 6.542054,1.816268 1.439252,0.06728 2.878504,0.403614 3.140188,1.076306 0,0 0.457944,-8.20684 -15.962614,-13.655642 0,0 4.90654,2.287152 6.411212,4.103418 0,0 -1.766356,-0.13454 -2.48598,1.076308 -0.392524,0.605422 -0.457946,1.479922 -0.13084,2.488958 -0.26168,-0.06728 -0.588782,-0.06728 -0.915886,-0.13454 L 11,14.999999 l 2.747664,6.054227 -2.551402,-0.941769 0.785046,1.479923 c 0,0 1.11215,2.152612 3.598132,6.659646 1.962616,3.565264 5.495326,5.314264 10.205604,5.112456 h 0.588786 c 1.17757,-0.06728 3.009346,-0.269074 4.7757,-0.403614 -0.13084,0.672692 -0.13084,1.479922 0.06542,2.42169 0.19626,1.076308 0.654206,1.816266 1.177568,2.219884 -1.37383,0.67269 -2.48207,2.018074 -3.005436,3.565266 v 0 c -0.392522,1.009036 -0.523364,2.152612 0,3.565264 v 0 c 0.06542,0.269078 0.19626,0.538154 0.392524,0.8745 0.13084,0.269078 0.327104,0.538152 0.588786,0.807228 2.878504,3.565268 9.743754,2.959844 14.19235,1.076308 0.06542,0 0.13084,-0.06728 0.19626,-0.06728 0.3271,-0.13454 0.719624,-0.336346 1.046728,-0.470884 0.06542,-0.06728 0.13084,-0.06728 0.19626,-0.13454 0.392522,-0.201816 0.719626,-0.403618 1.112148,-0.605424 C 51.495326,43.589384 53,40.495002 53,40.495002 c 0,0 -4.51402,3.094382 -8.766356,1.278114 z m 0.71157,-12.57667 c 1.242992,0.538156 3.140188,3.767076 3.140188,3.767076 -1.570094,-0.269076 -4.7757,-1.345384 -5.102804,-2.556228 -0.327102,-1.210848 0.719628,-1.748998 1.962616,-1.210848 z M 41.2243,45.472938 c 0,0 0.327102,1.076304 -0.06542,2.488956 -0.457944,0.13454 -0.915888,0.201816 -1.37383,0.336348 0.785044,-0.605422 1.439252,-1.547192 1.439252,-2.825304 z M 19.700937,24.95584 31.018692,31.548218 c -2.093458,0.201816 -4.252336,0.403614 -5.364486,0.470884 -1.700934,0.06728 -3.205608,-0.13454 -4.51402,-0.605422 -1.962614,-0.672692 -3.401865,-2.018074 -4.448595,-3.834344 -1.30841,-2.287152 -2.158878,-3.96888 -2.747663,-5.045184 l 2.355139,0.807228 -2.355139,-5.179728 20.607474,11.704836 c -0.588786,0.06728 -1.11215,0.269078 -1.635514,0.470886 z m 12.037379,8.274108 c 0.785048,-3.901612 5.691592,-2.690768 5.691592,-2.690768 -1.766356,0 -2.813086,0.470884 -3.33645,1.210848 -0.785046,1.076304 0.19626,1.950804 0.19626,1.950804 -0.26168,-0.06728 -0.523362,-0.13454 -0.654206,-0.269076 v 0.06728 c 0.392526,1.547188 1.635514,1.950804 1.635514,1.950804 -0.45794,0.06728 -0.850464,0 -1.177568,-0.06728 0.261684,0.605424 0.654204,1.076308 0.850466,1.210846 -1.11215,0 -1.635512,0.269076 -2.028036,0.403614 -0.850468,-0.605422 -1.570094,-2.085342 -1.177572,-3.767072 z m 3.53662,8.610452 c 0,0 -1.766354,2.287152 -5.626168,2.287152 -0.19626,-0.8745 -0.13084,-1.748998 0.06542,-2.556228 1.24299,0.80723 3.074768,1.210846 5.560746,0.269076 z m -3.205606,5.314266 c 1.635512,-0.403616 3.72897,-1.345384 5.691588,-3.632536 0,0 -0.261684,2.556228 -2.093458,4.91065 -0.850468,-0.13454 -1.700934,-0.336346 -2.485982,-0.672692 -0.392522,-0.201814 -0.785046,-0.403616 -1.112148,-0.605422 z M 47.30841,45.06932 c -0.19626,-0.605422 -0.327104,-1.883534 -0.327104,-1.883534 1.373834,0.13454 3.009346,-0.470886 3.009346,-0.470886 -1.112148,1.47992 -2.682242,2.35442 -2.682242,2.35442 z"
       id="path3" /></g></svg>
