<?xml version="1.0" encoding="UTF-8"?>
<svg id="_图层_1" xmlns="http://www.w3.org/2000/svg" version="1.1" viewBox="0 0 64 64" width="24" height="24">
  <!-- Generator: Adobe Illustrator 29.0.1, SVG Export Plug-In . SVG Version: 2.1.0 Build 192)  -->
  <defs>
    <style>
      .st0 {
        fill: #3a99e7;
      }

      .st1, .st2, .st3 {
        fill: #fff;
      }

      .st4 {
        fill: #86572f;
      }

      .st5 {
        fill: #ffc12e;
      }

      .st6, .st2 {
        opacity: .2;
      }

      .st6, .st2, .st7, .st3 {
        isolation: isolate;
      }

      .st7 {
        opacity: .6;
      }

      .st3 {
        opacity: .8;
      }
    </style>
  </defs>
  <path class="st1" d="M50.3,64H13.9C6.3,64,.2,57.8.2,50.3V13.8C.2,6.2,6.3,0,13.9,0h36.5c7.5,0,13.7,6.2,13.7,13.7v36.5c0,7.5-6.1,13.7-13.7,13.7h0Z"/>
  <g>
    <path class="st6" d="M32,7.8l-2.3,2.8-2.9-1-1.4,2.6c-5.3,1.1-9,3.7-12.1,7.7-5.4,7.1-5.4,19.4-5.4,26.4s12.6,9.3,24,9.3,24-2.3,24-9.3,0-19.2-5.4-26.4c-3.1-4.1-6.8-6.6-12.1-7.7l-1.4-2.6-2.9,1-2.3-2.8Z"/>
    <path class="st0" d="M32,7l-2.3,2.8-2.9-1-1.4,2.6c-5.3,1.1-9,3.7-12.1,7.7-5.4,7.1-5.4,19.4-5.4,26.4s12.6,9.3,24,9.3,24-2.3,24-9.3,0-19.2-5.4-26.4c-3.1-4.1-6.8-6.6-12.1-7.7l-1.4-2.6-2.9,1-2.3-2.8Z"/>
    <path class="st4" d="M26.3,44.4c1.2,2.1,3.3,3.3,5.7,3.3,2.3,0,4.5-1.3,5.7-3.3h-11.3Z"/>
    <path class="st6" d="M32,37.3c-.3,0-.5.1-.7.3l-5.8,5.5c-.6.7-.3,2.6.6,2.6l5.9,1.1,5.9-1.1c.9,0,1.2-2,.6-2.6l-5.8-5.5c-.2-.2-.4-.3-.7-.3Z"/>
    <path class="st5" d="M32,36.5c-.3,0-.5.1-.7.3l-5.8,5.5c-.6.7-.3,2.6.6,2.6l5.9,1.1,5.9-1.1c.9,0,1.2-2,.6-2.6l-5.8-5.5c-.2-.2-.4-.3-.7-.3Z"/>
    <path class="st7" d="M19.2,27.1c-2.8.7-4.7,3.5-4.3,6.3s3.1,4.5,5.9,3.8c2.8-.7,4.7-3.5,4.3-6.3s-3.1-4.5-5.9-3.8Z"/>
    <path class="st3" d="M20.7,29.1c.4.6,0,1.7-.9,2.5s-1.9.8-2.3.1,0-1.7.9-2.5,1.9-.8,2.3-.1Z"/>
    <path class="st7" d="M44.8,27.1c2.8.7,4.7,3.5,4.3,6.3s-3.1,4.5-5.9,3.8c-2.8-.7-4.7-3.5-4.3-6.3s3.1-4.5,5.9-3.8Z"/>
    <path class="st3" d="M44.7,29.1c.4.6,0,1.7-.9,2.5s-1.9.8-2.3.1,0-1.7.9-2.5,1.9-.8,2.3-.1Z"/>
    <path class="st2" d="M32,7l-2.3,2.8-2.9-1-1.4,2.6c-5.3,1.1-9,3.7-12.1,7.7-5.4,7.1-5.4,19.4-5.4,26.4s0,0,0,0c0-7.1.2-18.7,5.4-25.5,3.1-4.1,6.8-6.6,12.1-7.7l1.4-2.6,2.9,1,2.3-2.8,2.3,2.8,2.9-1,1.4,2.6c5.3,1.1,9,3.7,12.1,7.7,5.2,6.9,5.4,18.5,5.4,25.5,0,0,0,0,0,0,0-6.9,0-19.2-5.4-26.4-3.1-4.1-6.8-6.6-12.1-7.7l-1.4-2.6-2.9,1-2.3-2.8Z"/>
    <path class="st2" d="M32,36.5c-.3,0-.5.1-.7.3l-5.8,5.5c-.3.3-.4.9-.3,1.5,0-.3.1-.5.3-.6l5.8-5.5c.2-.2.4-.3.7-.3.3,0,.5.1.7.3l5.8,5.5c.1.2.2.4.3.6,0-.6,0-1.2-.3-1.5l-5.8-5.5c-.2-.2-.4-.3-.7-.3Z"/>
  </g>
</svg>