<?xml version="1.0" encoding="UTF-8" standalone="no"?>
<svg
   id="_图层_1"
   version="1.1"
   viewBox="0 0 64 64" width="24" height="24"
   sodipodi:docname="borderlands-the-pre-sequel.svg"
   xml:space="preserve"
   inkscape:version="1.4 (e7c3feb100, 2024-10-09)"
   xmlns:inkscape="http://www.inkscape.org/namespaces/inkscape"
   xmlns:sodipodi="http://sodipodi.sourceforge.net/DTD/sodipodi-0.dtd"
   xmlns="http://www.w3.org/2000/svg"
   xmlns:svg="http://www.w3.org/2000/svg"><sodipodi:namedview
     id="namedview26"
     pagecolor="#505050"
     bordercolor="#eeeeee"
     borderopacity="1"
     inkscape:showpageshadow="0"
     inkscape:pageopacity="0"
     inkscape:pagecheckerboard="0"
     inkscape:deskcolor="#505050"
     inkscape:zoom="10.6875"
     inkscape:cx="32"
     inkscape:cy="28.912281"
     inkscape:window-width="1920"
     inkscape:window-height="939"
     inkscape:window-x="0"
     inkscape:window-y="34"
     inkscape:window-maximized="1"
     inkscape:current-layer="_图层_1" /><!-- Generator: Adobe Illustrator 29.0.1, SVG Export Plug-In . SVG Version: 2.1.0 Build 192)  --><defs
     id="defs6"><style
       id="style1">
      .st0 {
        fill-opacity: .5;
      }

      .st0, .st1, .st2, .st3, .st4, .st5, .st6, .st7 {
        fill: #fff;
      }

      .st8 {
        fill: #133c9a;
      }

      .st2, .st9 {
        display: none;
      }

      .st3 {
        fill-opacity: .2;
      }

      .st4 {
        fill-opacity: .9;
      }

      .st10 {
        fill: #3370ff;
      }

      .st11 {
        fill: url(#_未命名的渐变_3);
      }

      .st12 {
        fill: url(#_未命名的渐变);
      }

      .st5 {
        fill-opacity: .3;
      }

      .st6 {
        fill-opacity: 0;
      }

      .st7 {
        fill-opacity: .7;
      }

      .st13 {
        fill: #00d6b9;
      }

      .st14 {
        fill: url(#_未命名的渐变_2);
      }
    </style><radialGradient
       id="_未命名的渐变"
       data-name="未命名的渐变"
       cx="123.9"
       cy="-40.2"
       fx="123.9"
       fy="-40.2"
       r="59.4"
       gradientTransform="translate(-26.8 25.5) scale(.6 -.7)"
       gradientUnits="userSpaceOnUse"><stop
         offset="0"
         stop-color="#db202e"
         id="stop1" /><stop
         offset="1"
         stop-color="#e01b24"
         id="stop2" /></radialGradient><radialGradient
       id="_未命名的渐变_2"
       data-name="未命名的渐变 2"
       cx="67.6"
       cy="26.8"
       fx="67.6"
       fy="26.8"
       r="105.2"
       gradientTransform="translate(-26.6 25.3) scale(.6 -.7)"
       gradientUnits="userSpaceOnUse"><stop
         offset="0"
         stop-color="#ffb648"
         id="stop3" /><stop
         offset="1"
         stop-color="#ff7800"
         stop-opacity="0"
         id="stop4" /></radialGradient><radialGradient
       id="_未命名的渐变_3"
       data-name="未命名的渐变 3"
       cx="61.7"
       cy="18.6"
       fx="61.7"
       fy="18.6"
       r="68"
       gradientTransform="translate(-26.8 25.8) scale(.6 -.7)"
       gradientUnits="userSpaceOnUse"><stop
         offset="0"
         stop-color="#c64600"
         id="stop5" /><stop
         offset="1"
         stop-color="#a51d2d"
         id="stop6" /></radialGradient><style
       id="style1-2">
      .st0, .st1, .st2, .st3, .st4, .st5 {
        isolation: isolate;
      }

      .st0, .st1, .st6, .st7, .st5, .st8 {
        display: none;
      }

      .st0, .st3, .st4, .st5 {
        opacity: .2;
      }

      .st1 {
        opacity: .1;
      }

      .st1, .st9, .st2, .st4, .st5 {
        fill: #fff;
      }

      .st10 {
        fill: #3f3f3f;
      }

      .st2 {
        opacity: .3;
      }

      .st6 {
        fill: #505d6e;
      }

      .st11, .st8 {
        fill: #ffcca3;
      }

      .st12 {
        fill: #fed24c;
      }

      .st13 {
        fill: #c2352a;
      }
    </style></defs><path
     class="st1"
     d="M 47.5,64.1 H 13.8 C 6.2,64.1 0,57.8 0,50.3 V 13.7 C 0,6.2 6.2,0 13.7,0 H 50.3 C 57.8,0 64,6.2 64,13.7 V 50.3 C 64,57.8 57.8,64 50.3,64 h -2.9 0.1 z"
     id="path6"
     style="display:inline;opacity:1;fill:#5f89c9;fill-opacity:1" /><g
     id="g27"
     transform="matrix(1.1403509,0,0,1.1378886,-4.3976608,-4.4726069)"><circle
       style="fill:#5f89c9"
       cx="32"
       cy="32"
       r="28"
       id="circle2" /><path
       style="opacity:0.2"
       d="m 27.436,11.484 c 2.322,-0.498 4.749,-0.614 7.119,-0.337 3.44,0.402 6.771,1.63 9.662,3.562 2.858,1.909 5.205,4.426 6.896,7.393 0.648,1.136 1.2,2.349 1.642,3.606 0.308,0.88 0.589,1.898 0.782,2.823 1.004,4.823 0.366,9.796 -1.823,14.217 l -0.177,0.32 c 0,0 -18.565,-26.444 -18.658,-26.583 -0.577,-0.862 -1.166,-1.496 -1.83,-1.965 -0.159,-0.112 -0.549,-0.335 -0.722,-0.413 -0.799,-0.357 -1.644,-0.463 -2.592,-0.319 -0.659,0.098 -0.856,0.157 -1.436,0.385 -0.892,0.349 -1.574,0.863 -2.087,1.572 -0.111,0.154 -0.337,0.542 -0.419,0.719 -0.34,0.738 -0.534,1.581 -0.601,2.616 L 20.178,51.516 19.99,51.419 c -1.059,-0.681 -2.119,-1.507 -3.058,-2.382 -2.419,-2.255 -4.281,-5.029 -5.466,-8.143 -0.291,-0.767 -0.901,-2.978 -0.997,-3.407 -0.8797,-4.188 -0.5175,-8.515 1.049,-12.512 0.638,-1.628 1.49,-3.212 2.5,-4.645 2.735,-3.882 6.611,-6.752 11.107,-8.225 0.719,-0.235 1.564,-0.462 2.311,-0.621 z m 0.6,5.857 c 1.664,-0.173 2.73,1.003 3.639,2.24 4.307,7.456 8.898,15.532 13.557,23.845 1.34,2.39 2.653,4.742 2.657,4.76 0.004,0.015 -0.053,0.079 -0.282,0.31 -2.625,2.646 -5.873,4.572 -9.462,5.612 -0.82,0.236 -2.18,0.568 -3.628,0.741 -2.78,0.33 -5.569,0.119 -8.279,-0.627 L 26.037,54.158 25.783,23.633 c 0.147,-2.714 0.016,-5.541 2.253,-6.292 z"
       id="path3" /><path
       style="fill:#f7b400"
       d="m 27.436,10.484 c 2.322,-0.4979 4.749,-0.6142 7.119,-0.337 3.44,0.402 6.771,1.63 9.662,3.562 2.858,1.909 5.205,4.426 6.896,7.393 0.648,1.136 1.2,2.349 1.642,3.606 0.308,0.88 0.589,1.898 0.782,2.823 1.004,4.823 0.366,9.796 -1.823,14.217 l -0.177,0.32 c 0,0 -18.565,-26.444 -18.658,-26.583 -0.577,-0.862 -1.166,-1.496 -1.83,-1.965 -0.159,-0.112 -0.549,-0.335 -0.722,-0.413 -0.799,-0.357 -1.644,-0.463 -2.592,-0.319 -0.659,0.098 -0.856,0.157 -1.436,0.385 -0.892,0.349 -1.574,0.863 -2.087,1.572 -0.111,0.154 -0.337,0.542 -0.419,0.719 -0.34,0.738 -0.534,1.581 -0.601,2.616 L 20.178,50.516 19.99,50.419 c -1.059,-0.681 -2.119,-1.507 -3.058,-2.382 -2.419,-2.255 -4.281,-5.029 -5.466,-8.143 -0.291,-0.767 -0.901,-2.978 -0.997,-3.407 -0.8797,-4.188 -0.5175,-8.515 1.049,-12.512 0.638,-1.628 1.49,-3.212 2.5,-4.645 2.735,-3.882 6.611,-6.752 11.107,-8.225 0.719,-0.235 1.564,-0.462 2.311,-0.621 z m 0.6,5.857 c 1.664,-0.173 2.73,1.003 3.639,2.24 4.307,7.456 8.898,15.532 13.557,23.845 1.34,2.39 2.653,4.742 2.657,4.76 0.004,0.015 -0.053,0.079 -0.282,0.31 -2.625,2.646 -5.873,4.572 -9.462,5.612 -0.82,0.236 -2.18,0.568 -3.628,0.741 -2.78,0.33 -5.569,0.119 -8.279,-0.627 L 26.037,53.158 25.783,22.633 c 0.147,-2.714 0.016,-5.541 2.253,-6.292 z"
       id="path4" /><path
       style="opacity:0.2;fill:#ffffff"
       d="m 32.77,10.014 c -1.792,-0.0612 -3.593,0.097 -5.334,0.47 -0.747,0.159 -1.592,0.386 -2.311,0.621 -4.496,1.473 -8.372,4.343 -11.107,8.225 -1.01,1.433 -1.862,3.017 -2.5,4.645 -1.061,2.704 -1.555,5.562 -1.5,8.423 0.067,-2.525 0.563,-5.034 1.5,-7.423 0.638,-1.628 1.49,-3.212 2.5,-4.645 2.735,-3.882 6.611,-6.752 11.107,-8.225 0.719,-0.235 1.564,-0.462 2.311,-0.621 2.322,-0.498 4.749,-0.615 7.119,-0.338 3.44,0.402 6.771,1.631 9.662,3.563 2.858,1.909 5.205,4.426 6.896,7.393 0.648,1.136 1.201,2.348 1.643,3.605 0.308,0.88 0.588,1.899 0.781,2.824 0.249,1.194 0.395,2.397 0.443,3.598 0.009,-1.533 -0.125,-3.072 -0.443,-4.598 -0.193,-0.925 -0.473,-1.944 -0.781,-2.824 -0.442,-1.257 -0.995,-2.469 -1.643,-3.605 -1.691,-2.967 -4.038,-5.484 -6.896,-7.393 -2.891,-1.932 -6.222,-3.161 -9.662,-3.563 -0.593,-0.069 -1.188,-0.112 -1.785,-0.132 z m -4.137,6.322 c -0.19,-0.018 -0.39,-0.016 -0.598,0.006 -2.237,0.751 -2.105,3.577 -2.252,6.291 l 0.008,0.855 c 0.135,-2.668 0.047,-5.409 2.244,-6.146 1.664,-0.173 2.732,1.001 3.641,2.238 4.307,7.456 8.897,15.533 13.556,23.846 1.164,2.076 2.024,3.621 2.307,4.135 0.022,-0.023 0.046,-0.043 0.068,-0.065 0.229,-0.231 0.286,-0.295 0.282,-0.31 -0.004,-0.018 -1.317,-2.37 -2.657,-4.76 C 40.573,34.113 35.983,26.036 31.676,18.58 30.88,17.498 29.964,16.462 28.633,16.336 Z"
       id="path5" /></g></svg>
