<?xml version="1.0" encoding="UTF-8" standalone="no"?>
<svg
   id="_图层_1"
   version="1.1"
   viewBox="0 0 64 64" width="24" height="24"
   sodipodi:docname="bubblemail.svg"
   xml:space="preserve"
   inkscape:version="1.4 (e7c3feb100, 2024-10-09)"
   xmlns:inkscape="http://www.inkscape.org/namespaces/inkscape"
   xmlns:sodipodi="http://sodipodi.sourceforge.net/DTD/sodipodi-0.dtd"
   xmlns="http://www.w3.org/2000/svg"
   xmlns:svg="http://www.w3.org/2000/svg"><sodipodi:namedview
     id="namedview26"
     pagecolor="#505050"
     bordercolor="#eeeeee"
     borderopacity="1"
     inkscape:showpageshadow="0"
     inkscape:pageopacity="0"
     inkscape:pagecheckerboard="0"
     inkscape:deskcolor="#505050"
     inkscape:zoom="10.6875"
     inkscape:cx="32"
     inkscape:cy="28.912281"
     inkscape:window-width="1920"
     inkscape:window-height="939"
     inkscape:window-x="0"
     inkscape:window-y="34"
     inkscape:window-maximized="1"
     inkscape:current-layer="_图层_1" /><!-- Generator: Adobe Illustrator 29.0.1, SVG Export Plug-In . SVG Version: 2.1.0 Build 192)  --><defs
     id="defs6"><style
       id="style1">
      .st0 {
        fill-opacity: .5;
      }

      .st0, .st1, .st2, .st3, .st4, .st5, .st6, .st7 {
        fill: #fff;
      }

      .st8 {
        fill: #133c9a;
      }

      .st2, .st9 {
        display: none;
      }

      .st3 {
        fill-opacity: .2;
      }

      .st4 {
        fill-opacity: .9;
      }

      .st10 {
        fill: #3370ff;
      }

      .st11 {
        fill: url(#_未命名的渐变_3);
      }

      .st12 {
        fill: url(#_未命名的渐变);
      }

      .st5 {
        fill-opacity: .3;
      }

      .st6 {
        fill-opacity: 0;
      }

      .st7 {
        fill-opacity: .7;
      }

      .st13 {
        fill: #00d6b9;
      }

      .st14 {
        fill: url(#_未命名的渐变_2);
      }
    </style><radialGradient
       id="_未命名的渐变"
       data-name="未命名的渐变"
       cx="123.9"
       cy="-40.2"
       fx="123.9"
       fy="-40.2"
       r="59.4"
       gradientTransform="translate(-26.8 25.5) scale(.6 -.7)"
       gradientUnits="userSpaceOnUse"><stop
         offset="0"
         stop-color="#db202e"
         id="stop1" /><stop
         offset="1"
         stop-color="#e01b24"
         id="stop2" /></radialGradient><radialGradient
       id="_未命名的渐变_2"
       data-name="未命名的渐变 2"
       cx="67.6"
       cy="26.8"
       fx="67.6"
       fy="26.8"
       r="105.2"
       gradientTransform="translate(-26.6 25.3) scale(.6 -.7)"
       gradientUnits="userSpaceOnUse"><stop
         offset="0"
         stop-color="#ffb648"
         id="stop3" /><stop
         offset="1"
         stop-color="#ff7800"
         stop-opacity="0"
         id="stop4" /></radialGradient><radialGradient
       id="_未命名的渐变_3"
       data-name="未命名的渐变 3"
       cx="61.7"
       cy="18.6"
       fx="61.7"
       fy="18.6"
       r="68"
       gradientTransform="translate(-26.8 25.8) scale(.6 -.7)"
       gradientUnits="userSpaceOnUse"><stop
         offset="0"
         stop-color="#c64600"
         id="stop5" /><stop
         offset="1"
         stop-color="#a51d2d"
         id="stop6" /></radialGradient><style
       id="style1-2">
      .st0, .st1, .st2, .st3, .st4, .st5 {
        isolation: isolate;
      }

      .st0, .st1, .st6, .st7, .st5, .st8 {
        display: none;
      }

      .st0, .st3, .st4, .st5 {
        opacity: .2;
      }

      .st1 {
        opacity: .1;
      }

      .st1, .st9, .st2, .st4, .st5 {
        fill: #fff;
      }

      .st10 {
        fill: #3f3f3f;
      }

      .st2 {
        opacity: .3;
      }

      .st6 {
        fill: #505d6e;
      }

      .st11, .st8 {
        fill: #ffcca3;
      }

      .st12 {
        fill: #fed24c;
      }

      .st13 {
        fill: #c2352a;
      }
    </style></defs><path
     class="st1"
     d="M 47.5,64.1 H 13.8 C 6.2,64.1 0,57.8 0,50.3 V 13.7 C 0,6.2 6.2,0 13.7,0 H 50.3 C 57.8,0 64,6.2 64,13.7 V 50.3 C 64,57.8 57.8,64 50.3,64 h -2.9 0.1 z"
     id="path6"
     style="display:inline;opacity:1;fill:#f9f9f9;fill-opacity:1" /><g
     id="g27"
     transform="matrix(0.95321637,0,0,0.83982556,2.0116958,5.2144419)"><path
       style="fill:#3393e7"
       d="m 9,10.999999 h 8 38 v 28 L 53.714286,45.809523 33.226634,48.571429 19.190476,58.238095 17.809524,48.571429 10.904762,47.190475 8.1428572,43.047619 V 29.507033 Z"
       id="path1" /><path
       style="opacity:0.2"
       d="m 14,7.9963142 c -6.0421084,0 -11,4.9578918 -11,10.9999998 v 22.000001 c 0,6.042108 4.9578916,11 11,11 h 1 v 7 c 0.0014,2.410224 2.700521,3.835076 4.691406,2.476562 L 33.582032,51.996315 H 48 c 6.042108,0 11,-4.957892 11,-11 v -4 a 3,3 0 0 0 -3,-3 3,3 0 0 0 -3,3 v 4 c 0,2.821892 -2.178108,5 -5,5 H 41 34.042968 31.726562 L 21,53.316627 v -7.320312 h -2 -4 -1 c -2.821892,0 -5,-2.178108 -5,-5 V 18.996314 c 0,-2.821892 2.178108,-5 5,-5 h 4 a 3,3 0 0 0 3,-3 3,3 0 0 0 -3,-2.9999998 z"
       id="path2" /><path
       style="fill:#3f51b5"
       d="m 14,6.9999991 c -6.0421084,0 -11,4.9578919 -11,10.9999999 v 22 c 0,6.042108 4.9578916,11 11,11 h 1 v 7 c 0.0014,2.410224 2.700521,3.835076 4.691406,2.476562 L 33.582032,50.999999 H 48 c 6.042108,0 11,-4.957892 11,-11 v -4 h -6 v 4 c 0,2.821892 -2.178108,5 -5,5 H 41 34.042968 31.726562 L 21,52.320311 v -7.320312 h -2 -4 -1 c -2.821892,0 -5,-2.178108 -5,-5 v -22 c 0,-2.821892 2.178108,-5 5,-5 h 4 V 6.9999991 Z"
       id="path3" /><circle
       style="fill:#3f51b5"
       cx="18"
       cy="10"
       r="3"
       id="circle3" /><circle
       style="fill:#3f51b5"
       cx="56"
       cy="36"
       r="3"
       id="circle4" /><rect
       style="opacity:0.2"
       width="36"
       height="26"
       x="25"
       y="4"
       rx="4.1539998"
       ry="4.3330002"
       id="rect4" /><rect
       style="fill:#ffc107"
       width="36"
       height="26"
       x="25"
       y="3"
       rx="4.1539998"
       ry="4.3330002"
       id="rect5" /><path
       style="opacity:0.1"
       d="m 29.153848,3.9999997 c -1.067966,0 -2.029432,0.4282688 -2.763824,1.1143662 L 43,18 59.609976,5.1143659 C 58.875584,4.4282685 57.914118,3.9999997 56.846152,3.9999997 Z"
       id="path5" /><path
       style="fill:#fddf58"
       d="m 29.153848,2.9999986 c -1.067966,0 -2.029432,0.4282689 -2.763824,1.1143663 L 43,16.999999 59.609976,4.1143649 C 58.875584,3.4282675 57.914118,2.9999986 56.846152,2.9999986 Z"
       id="path6-7" /><path
       style="opacity:0.2;fill:#ffffff"
       d="M 29.152344,3 C 26.851114,3 25,4.9313649 25,7.3320312 v 1 C 25,5.9313649 26.851114,4 29.152344,4 H 56.847656 C 59.148886,4 61,5.9313648 61,8.3320312 v -1 C 61,4.9313649 59.148886,3 56.847656,3 Z"
       id="path7" /></g></svg>
