<?xml version="1.0" encoding="UTF-8"?>
<svg id="_图层_1" xmlns="http://www.w3.org/2000/svg" version="1.1" viewBox="0 0 64 64" width="24" height="24">
  <!-- Generator: Adobe Illustrator 29.0.1, SVG Export Plug-In . SVG Version: 2.1.0 Build 192)  -->
  <defs>
    <style>
      .st0, .st1 {
        fill: #4f4f4f;
      }

      .st2 {
        fill: #ab70ff;
      }

      .st3, .st4, .st5, .st6, .st7, .st8 {
        isolation: isolate;
      }

      .st3, .st4, .st9, .st10, .st1 {
        display: none;
      }

      .st3, .st7, .st8 {
        opacity: .2;
      }

      .st4, .st11, .st8 {
        fill: #fff;
      }

      .st4, .st5 {
        opacity: .1;
      }

      .st12 {
        fill: #c9c9c9;
      }

      .st13 {
        fill: #0f87a6;
      }

      .st14 {
        fill: #68c7ff;
      }

      .st6 {
        fill: none;
        opacity: .5;
        stroke: #000;
        stroke-linecap: round;
        stroke-linejoin: round;
        stroke-width: 3px;
      }

      .st9 {
        fill: #ab47bc;
      }

      .st15 {
        fill: #ff639c;
      }

      .st16 {
        fill: #ffdb49;
      }

      .st17 {
        fill: #3afee4;
      }

      .st18 {
        fill: #b1f145;
      }
    </style>
  </defs>
  <path class="st0" d="M50.4,64H13.8c-7.6,0-13.8-6.2-13.8-13.7V13.7C0,6.2,6.2,0,13.7,0h36.6c7.5,0,13.7,6.2,13.7,13.7v36.6c0,7.5-6.2,13.7-13.7,13.7h.1Z"/>
  <g class="st10">
    <path class="st3" d="M20.2,1.1l-6.3,5.5c0,0-.7-.4-1.4-.6-1.8-.5-4.1-.4-5.6.2-1,.4-1.4.7-3.8,2.7-2.6,2.2-3.1,2.7-3.1,3.2s.9,1.3,1.4,2.2l.8,1.7-1.1,2.5C.6,19.9,0,21.1,0,21.2c0,.2,8.3,27.9,8.7,28.8.8,1.6,2,3.1,3.7,4.3,1.5,1.1,16.3,9.7,17.8,10.4.4.2,1.1.3,1.7.3.6,0,1.3-.1,1.7-.3,1.5-.6,16.3-9.3,17.8-10.4,1.6-1.2,2.9-2.6,3.7-4.3.4-.9,8.8-28.5,8.7-28.8,0,0-.5-1.3-1.1-2.7l-1.1-2.5.8-1.7c.5-.9,1.4-2.1,1.4-2.2,0-.5-.5-1-3.1-3.2-2.4-2-2.8-2.3-3.8-2.7-1.5-.6-3.8-.7-5.6-.2-.7.2-1.3.6-1.4.6l-6.3-5.5h-23.6Z"/>
    <path class="st9" d="M20.2,0l-6.3,5.5c0,0-.7-.4-1.4-.6-1.8-.5-4.1-.4-5.6.2-1,.4-1.4.7-3.8,2.7-2.6,2.2-3.1,2.7-3.1,3.2s.9,1.3,1.4,2.2l.8,1.7-1.1,2.5C.6,18.7,0,20,0,20c0,.2,8.3,27.9,8.7,28.8.8,1.6,2,3.1,3.7,4.3,1.5,1.1,16.3,9.7,17.8,10.4.4.2,1.1.3,1.7.3.6,0,1.3-.1,1.7-.3,1.5-.6,16.3-9.3,17.8-10.4,1.6-1.2,2.9-2.6,3.7-4.3.4-.9,8.8-28.5,8.7-28.8,0,0-.5-1.3-1.1-2.7l-1.1-2.5.8-1.7c.5-.9,1.4-2.1,1.4-2.2,0-.5-.5-1-3.1-3.2-2.4-2-2.8-2.3-3.8-2.7-1.5-.6-3.8-.7-5.6-.2-.7.2-1.3.6-1.4.6l-6.3-5.5h-23.6Z"/>
    <path class="st7" d="M35,49.5s3.3-1.8,6.2-3.6c1.6-1,1.9-1.3,1.6-1.6-.2-.3-5.5-2.5-8-3.4-2.7-.9-2.9-.9-5.5,0-2.3.8-7.5,3-8,3.4-.5.4-.2.7.9,1.4,2.3,1.4,6.8,4,6.8,4,3,2.2,2.8,2.2,5.9,0h0ZM22.7,41.6c3.2-1.3,3.6-1.5,6.1-3.4,2-1.5,2.4-2,2.1-2.6,0-.2-1.6-1.4-3.4-2.7-4.2-3-4-2.6-2.4-5.9.9-1.9,1.2-2.6,1.2-3.1,0-.8-.4-1.4-1.1-1.8-.3-.2-2.8-1-5.6-1.9-2.8-.9-5.1-1.7-5.1-1.8,0-.2,3.1-.5,5.4-.5h1.7s3.1.9,3.1.9c2.7.8,3.2,1,3.4,1.3.1.2.2.5.2.6,0,.1-.5,2.1-1.1,4.3-1.1,3.9-1.1,4.1-.8,4.3.4.4,4.8,1.3,6.2,1.2,1.6-.1,4.7-.9,5.1-1.2.3-.2.2-.5-.8-4.3-.6-2.2-1.1-4.2-1.1-4.3,0-.1.1-.4.2-.6.2-.3.6-.5,3-1.2,3.9-1.2,3.8-1.2,7.4-.9,1.7.1,3.1.3,3.2.3,0,0,0,.2-.2.2-.2,0-2.5.8-5.1,1.6-2.6.8-5,1.7-5.3,1.8-.8.4-1.2,1-1.2,1.9,0,.5.2,1.2,1.2,3.1.6,1.3,1.2,2.5,1.2,2.7,0,.6-.5,1.1-3.5,3.2-1.7,1.2-3.2,2.4-3.3,2.6-.1.2-.2.6-.2.7,0,.3,2.1,2,4.2,3.4.9.6,6.1,3.4,7,3.5.7,0,1.5-.8,2.7-1.7,1.2-.9,1.9-1.7,2.4-2.9.5-1.1.3-1.8-.6-3.6-.7-1.3-.9-2.1-.6-2.6,0-.1,1.9-1.6,4.2-3.4,4.9-3.8,6-4.5,6.3-5.1.3-.8,0-2.9-.6-3.9-1.6-2.4-8.2-9.8-8.8-9.8-2.9.4-5.3,1.3-8.4,1.7-.2,0-1.3-.2-2.3-.5-4.3-1.1-5.7-1.2-6.5-1.2s-2.2,0-6.5,1.2c-1,.3-2,.5-2.3.5-3-.4-5.2-1.4-8.4-1.7-.5.3-4.8,5.3-6.6,7.5-2.1,2.6-2.7,4.1-2.9,5.1-.2,1.4.4,1.6,6.6,6.5,2.1,1.6,3.9,3.1,3.9,3.2.2.5,0,1.3-.6,2.6-.9,1.9-1,2.4-.6,3.5.5,1.2,1.3,2.2,2.6,3.1,1.2.8,1.6,1.6,2.3,1.6.2,0,1.6-1.1,3.1-1.7Z"/>
    <path class="st11" d="M35,48.4s3.3-1.8,6.2-3.6c1.6-1,1.9-1.3,1.6-1.6-.2-.3-5.5-2.5-8-3.4-2.7-.9-2.9-.9-5.5,0-2.3.8-7.5,3-8,3.4-.5.4-.2.7.9,1.4,2.3,1.4,6.8,4,6.8,4,3,2.2,2.8,2.2,5.9,0h0ZM22.7,40.5c3.2-1.3,3.6-1.5,6.1-3.4,2-1.5,2.4-2,2.1-2.6,0-.2-1.6-1.4-3.4-2.7-4.2-3-4-2.6-2.4-5.9.9-1.9,1.2-2.6,1.2-3.1,0-.8-.4-1.4-1.1-1.8-.3-.2-2.8-1-5.6-1.9-2.8-.9-5.1-1.7-5.1-1.8,0-.2,3.1-.5,5.4-.5h1.7s3.1.9,3.1.9c2.7.8,3.2,1,3.4,1.3.1.2.2.5.2.6,0,.1-.5,2.1-1.1,4.3-1.1,3.9-1.1,4.1-.8,4.3.4.4,4.8,1.3,6.2,1.2,1.6-.1,4.7-.9,5.1-1.2.3-.2.2-.5-.8-4.3-.6-2.2-1.1-4.2-1.1-4.3,0-.1.1-.4.2-.6.2-.3.6-.5,3-1.2,3.9-1.2,3.8-1.2,7.4-.9,1.7.1,3.1.3,3.2.3,0,0,0,.2-.2.2-.2,0-2.5.8-5.1,1.6-2.6.8-5,1.7-5.3,1.8-.8.4-1.2,1-1.2,1.9,0,.5.2,1.2,1.2,3.1.6,1.3,1.2,2.5,1.2,2.7,0,.6-.5,1.1-3.5,3.2-1.7,1.2-3.2,2.4-3.3,2.6-.1.2-.2.6-.2.7,0,.3,2.1,2,4.2,3.4.9.6,6.1,3.4,7,3.5.7,0,1.5-.8,2.7-1.7,1.2-.9,1.9-1.7,2.4-2.9.5-1.1.3-1.8-.6-3.6-.7-1.3-.9-2.1-.6-2.6,0-.1,1.9-1.6,4.2-3.4,4.9-3.8,6-4.5,6.3-5.1.3-.8,0-2.9-.6-3.9-1.6-2.4-8.2-9.8-8.8-9.8-2.9.4-5.3,1.3-8.4,1.7-.2,0-1.3-.2-2.3-.5-4.3-1.1-5.7-1.2-6.5-1.2s-2.2,0-6.5,1.2c-1,.3-2,.5-2.3.5-3-.4-5.2-1.4-8.4-1.7-.5.3-4.8,5.3-6.6,7.5-2.1,2.6-2.7,4.1-2.9,5.1-.2,1.4.4,1.6,6.6,6.5,2.1,1.6,3.9,3.1,3.9,3.2.2.5,0,1.3-.6,2.6-.9,1.9-1,2.4-.6,3.5.5,1.2,1.3,2.2,2.6,3.1,1.2.8,1.6,1.6,2.3,1.6.2,0,1.6-1.1,3.1-1.7Z"/>
    <path class="st4" d="M20.2,0l-6.3,5.5c0,0-.7-.4-1.4-.6-1.8-.5-4.1-.4-5.6.2-1,.4-1.4.7-3.8,2.7-2.6,2.2-3.1,2.7-3.1,3.2s.2.3.3.5c.4-.5,1.1-1.1,2.8-2.5,2.4-2,2.8-2.3,3.8-2.7,1.5-.6,3.8-.7,5.6-.2.7.2,1.3.6,1.4.6l6.3-5.5h23.6l6.3,5.5c0,0,.7-.4,1.4-.6,1.8-.5,4.1-.4,5.6.2,1,.4,1.4.7,3.8,2.7,1.7,1.4,2.4,2.1,2.8,2.5.1-.2.3-.5.3-.5,0-.5-.5-1-3.1-3.2-2.4-2-2.8-2.3-3.8-2.7-1.5-.6-3.8-.7-5.6-.2-.7.2-1.3.6-1.4.6l-6.3-5.5h-23.6ZM2,15.4l-.8,1.9C.6,18.7,0,20,0,20c0,0,.2.6.2.7.2-.4.5-1.1.9-2.2l1.1-2.5-.3-.5ZM62,15.4l-.3.5,1.1,2.5c.5,1.2.8,1.9.9,2.2,0,0,.2-.7.2-.7,0,0-.5-1.3-1.1-2.7l-.8-1.9Z"/>
  </g>
  <g class="st10">
    <path class="st7" d="M11.1,5.5c-.6,0-1.1,0-1.7.2l2.2,2.6c3.5.6,6.7,2.5,9.2,5.4,2.4,2.9,4,6.7,4.4,10.8l2.6,3.1c1-6-.6-12.1-4.2-16.4-3.2-3.8-7.7-5.8-12.3-5.6ZM51.1,5.5c-4.5-.3-9,1.8-12.2,5.6-3.6,4.3-5.3,10.4-4.5,16.4l2.6-3.1c.5-4.1,2.1-7.9,4.5-10.8,2.5-2.9,5.7-4.8,9.1-5.4l2.2-2.6c-.6-.1-1.1-.2-1.7-.2Z"/>
    <ellipse class="st7" cx="31.1" cy="37.7" rx="16.3" ry="19.3"/>
    <path class="st13" d="M51.1,4.6c-4.5-.3-9,1.8-12.2,5.6-3.6,4.3-5.3,10.4-4.5,16.4l2.6-3c.5-4.1,2.1-7.9,4.5-10.8,2.5-2.9,5.7-4.8,9.1-5.4l2.2-2.6c-.6-.1-1.1-.2-1.7-.2Z"/>
    <path class="st13" d="M11.1,4.6c4.7-.3,9.2,1.8,12.3,5.6,3.6,4.3,5.2,10.4,4.2,16.4l-2.6-3c-.4-4.1-1.9-7.9-4.4-10.8-2.4-2.9-5.7-4.8-9.2-5.4l-2.1-2.6c.6-.1,1.1-.2,1.7-.2Z"/>
    <path class="st8" d="M11.1,4.6c-.6,0-1.1,0-1.7.2l.7.8c.3,0,.7,0,1-.1,4.7-.3,9.2,1.8,12.3,5.6,2.8,3.4,4.4,7.9,4.4,12.7,0,0,0,.1,0,.2.2-5.2-1.4-10.1-4.5-13.8-3.2-3.8-7.7-5.8-12.3-5.6ZM51.1,4.6c-4.5-.3-9,1.8-12.2,5.6-3.2,3.8-4.9,9.1-4.6,14.4,0,0,0,0,0-.1,0-5,1.6-9.8,4.6-13.4,3.2-3.8,7.6-5.8,12.2-5.6.3,0,.6,0,1,.1l.7-.8c-.6-.1-1.1-.2-1.7-.2Z"/>
    <ellipse class="st18" cx="31.1" cy="36.8" rx="16.3" ry="19.3"/>
    <path class="st7" d="M24.3,23.9c-4.3,0-7.8,4.1-7.8,9.2s3.5,9.2,7.8,9.2c2.8,0,5.3-1.8,6.7-4.6,1.4,2.8,3.9,4.6,6.7,4.6,4.3,0,7.8-4.1,7.8-9.2s-3.5-9.2-7.8-9.2c-2.8,0-5.3,1.8-6.7,4.6-1.4-2.8-4-4.6-6.7-4.6Z"/>
    <path class="st6" d="M26.1,49.7s.6,1.4,4.8,1.4,5.1-1.4,5.1-1.4"/>
    <ellipse class="st11" cx="24.3" cy="32.2" rx="7.8" ry="9.2"/>
    <ellipse class="st17" cx="21.5" cy="32.2" rx="3.2" ry="3.7"/>
    <ellipse class="st0" cx="21.5" cy="32.2" rx="2.7" ry="3.2"/>
    <ellipse class="st11" cx="37.8" cy="32.2" rx="7.8" ry="9.2"/>
    <ellipse class="st17" cx="36.1" cy="32.2" rx="3.2" ry="3.7"/>
    <ellipse class="st0" cx="36.1" cy="32.2" rx="2.7" ry="3.2"/>
    <path class="st8" d="M31.1,17.4c-9,0-16.3,8.7-16.3,19.3,0,.1,0,.3,0,.4.2-10.5,7.5-18.8,16.3-18.8,8.8,0,16,8.2,16.3,18.6,0,0,0-.1,0-.2,0-10.7-7.3-19.3-16.3-19.3Z"/>
  </g>
  <g>
    <path class="st3" d="M3.6,1.1h56.9c2,0,3.6,1.4,3.6,3.2v57.5c0,1.8-1.6,3.2-3.6,3.2H3.6c-2,0-3.6-1.4-3.6-3.2V4.3C0,2.6,1.6,1.1,3.6,1.1Z"/>
    <path class="st1" d="M3.6,0h56.9c2,0,3.6,1.4,3.6,3.2v57.5c0,1.8-1.6,3.2-3.6,3.2H3.6c-2,0-3.6-1.4-3.6-3.2V3.2C0,1.4,1.6,0,3.6,0Z"/>
    <path class="st7" d="M5.1,50.2v8.9c0,.8.6,1.4,1.4,1.4h50.9c.8,0,1.4-.6,1.4-1.4v-8.9H5.1Z"/>
    <path class="st14" d="M6.5,4.6c-.8,0-1.4.6-1.4,1.3v12.4h53.8V5.9c0-.7-.6-1.3-1.4-1.3H6.5Z"/>
    <path class="st2" d="M5.1,18.2v10.3h53.8v-10.3H5.1Z"/>
    <path class="st15" d="M5.1,28.5v10.3h53.8v-10.3H5.1Z"/>
    <path class="st16" d="M5.1,38.8v10.3h53.8v-10.3H5.1Z"/>
    <path class="st12" d="M5.1,49v8.9c0,.8.6,1.4,1.4,1.4h50.9c.8,0,1.4-.6,1.4-1.4v-8.9H5.1Z"/>
    <rect class="st5" x="5.1" y="18.2" width="53.8" height="1.1"/>
    <rect class="st5" x="5.1" y="28.5" width="53.8" height="1.1"/>
    <rect class="st5" x="5.1" y="38.8" width="53.8" height="1.1"/>
    <rect class="st5" x="5.1" y="49" width="53.8" height="1.1"/>
    <path class="st8" d="M6.5,4.6c-.8,0-1.4.6-1.4,1.3v1.1c0-.7.6-1.3,1.4-1.3h50.9c.8,0,1.4.6,1.4,1.3v-1.1c0-.7-.6-1.3-1.4-1.3H6.5Z"/>
    <path class="st4" d="M3.6,0C1.6,0,0,1.4,0,3.2v1.1C0,2.6,1.6,1.1,3.6,1.1h56.9c2,0,3.6,1.4,3.6,3.2v-1.1c0-1.8-1.6-3.2-3.6-3.2H3.6Z"/>
  </g>
</svg>