<?xml version="1.0" encoding="UTF-8"?>
<svg id="_图层_1" xmlns="http://www.w3.org/2000/svg" version="1.1" xmlns:xlink="http://www.w3.org/1999/xlink" viewBox="0 0 200 200" width="24" height="24">
  <!-- Generator: Adobe Illustrator 29.0.1, SVG Export Plug-In . SVG Version: 2.1.0 Build 192)  -->
  <defs>
    <style>
      .st0 {
        mask: url(#mask-1);
      }

      .st1 {
        fill: url(#_未命名的渐变_141);
      }

      .st1, .st2 {
        display: none;
      }

      .st3, .st4 {
        fill: #fff;
      }

      .st5 {
        mask: url(#mask);
      }

      .st4, .st6, .st7 {
        fill-rule: evenodd;
      }

      .st8 {
        fill: none;
      }

      .st9 {
        clip-path: url(#clippath-1);
      }

      .st10 {
        fill: url(#_未命名的渐变_13);
      }

      .st6 {
        fill: #12121c;
      }

      .st7 {
        fill: #c0bfbc;
      }

      .st11 {
        fill-opacity: .1;
      }

      .st12 {
        fill: url(#_未命名的渐变_14);
      }

      .st13 {
        clip-path: url(#clippath);
      }
    </style>
    <linearGradient id="_未命名的渐变_14" data-name="未命名的渐变 14" x1="100.3" y1=".2" x2="100.3" y2="200" gradientUnits="userSpaceOnUse">
      <stop offset="0" stop-color="#edece9"/>
      <stop offset="1" stop-color="#fff"/>
    </linearGradient>
    <linearGradient id="_未命名的渐变_141" data-name="未命名的渐变 14" x1="305.9" y1="-98.4" x2="305.9" y2="-297.4" gradientTransform="translate(-206 -96) scale(1 -1)" xlink:href="#_未命名的渐变_14"/>
    <radialGradient id="_未命名的渐变_13" data-name="未命名的渐变 13" cx="1430.9" cy="463.5" fx="1430.9" fy="463.5" r="156.4" gradientTransform="translate(-600.4 -536.8) rotate(77) scale(.5 -1.1) skewX(14.8)" gradientUnits="userSpaceOnUse">
      <stop offset="0" stop-color="#dc8add"/>
      <stop offset="1" stop-color="#813d9c"/>
    </radialGradient>
    <clipPath id="clippath">
      <rect class="st8" x="-62.1" y="-39.9" width="432" height="268.3"/>
    </clipPath>
    <mask id="mask" x="-44.1" y="-11.7" width="288" height="225.9" maskUnits="userSpaceOnUse">
      <g id="d">
        <rect class="st11" x="-44.1" y="-11.7" width="288" height="225.9"/>
      </g>
    </mask>
    <clipPath id="clippath-1">
      <rect class="st8" x="-62.1" y="-39.9" width="432" height="268.3"/>
    </clipPath>
    <mask id="mask-1" x="-44.1" y="-11.7" width="288" height="225.9" maskUnits="userSpaceOnUse">
      <g id="f">
        <rect class="st11" x="-44.1" y="-11.7" width="288" height="225.9"/>
      </g>
    </mask>
  </defs>
  <path class="st12" d="M157.3,200H43.3c-23.5,0-42.7-19.3-42.7-42.8V43c0-23.5,19.2-42.8,42.7-42.8h114c23.5,0,42.7,19.3,42.7,42.8v114.2c0,23.5-19.2,42.8-42.7,42.8h0Z"/>
  <g class="st2">
    <path class="st3" d="M184.1,110.5c0-12.2-5.3-23.8-14.6-31.9-9.1-7.9-21.3-11.4-33.4-9.5-4.4-15.7-17.6-27.6-34.1-30.7-16.3-2.8-32.9,3.9-42.3,17.2-5.6,7.8-8.6,17.1-8.4,26.7-18.3,3.4-30.9,19.7-29.2,37.8,1.1,18,16.3,32.2,34.8,32.5h90.3c.9,0,1.8-.2,2.5-.6,20.1-4,34.5-21.3,34.2-41.3l.2-.2Z"/>
  </g>
  <g>
    <path class="st1" d="M19,2.4h162c10,0,18,6.3,18,14.1l-.2,141.4-54,42.4H19.2c-10,0-18-6.3-18-14.1L.9,16.6c0-7.8,8-14.1,18-14.1Z"/>
    <path class="st10" d="M39.7,16.5h120.1c11.6,0,21,9.4,21,21v116.1c0,7.1-3.6,13.7-9.5,17.6l-17.3,11.3c-3.4,2.2-7.4,3.4-11.5,3.4H39.7c-11.6,0-21-9.4-21-21V37.6c0-11.6,9.4-21,21-21Z"/>
    <path class="st6" d="M168.6,58.4c-26.3-2.6-43.5,1.8-58.2,7.8,15-14.8,33.6-19.4,58.2-7.8Z"/>
    <path class="st6" d="M24.7,68.4c25-6.8,43-5.3,59-1.8-18.6-12-38.1-13.5-59,1.8Z"/>
    <g class="st13">
      <g class="st5">
        <path class="st6" d="M168.6,61.3c-26.3-2.6-43.5,1.8-58.2,7.8,15-14.8,33.6-19.4,58.2-7.8Z"/>
      </g>
    </g>
    <g class="st9">
      <g class="st0">
        <path class="st6" d="M24.7,71.3c25-6.8,43-5.3,59-1.8-18.6-12-38.1-13.5-59,1.8Z"/>
      </g>
    </g>
    <path class="st7" d="M180.8,77.6c-63.3,25.4-123.8,24.5-162.7,19.6v24.1c63.1,35.9,119.8,19.2,162.7-9.3v-34.5Z"/>
    <path class="st4" d="M180.8,77.6c-5.6,2.2-11.2,4.3-16.7,6.1,2.4,6.5,11.2,28.6,12.2,31.2,1.5-1,3-1.9,4.5-2.9v-34.5ZM160.1,85.1c-7.6,2.4-15,4.5-22.4,6.2-.6,4.2,8.4,30.2,11.2,38.2,9.6-4.1,18.7-9,27.3-14.4-1.7-3.9-10.9-25.1-16.1-29.9ZM133.4,92.2c-8.6,1.9-17.1,3.4-25.4,4.6-.2,9.1,4,35.7,5.2,43.2,12.4-2.1,24.3-5.7,35.6-10.5-2.9-7.8-12.2-32.9-15.5-37.2ZM113.3,140c-1.2-7.6-5.9-34.7-9.8-42.6-9.9,1.2-19.4,2-28.6,2.3-2.9,6.8-3.2,33.4-3.2,40.7,14.4,2.1,28.3,1.8,41.6-.4ZM71.7,140.4c0-7.2-.1-32.8-1.5-40.5-9.1.2-17.7,0-25.8-.3-3.1,5.4-5.7,23.5-6.8,31.3,11.7,4.8,23.1,7.9,34.2,9.5ZM18.1,97.2v24.1c6.5,3.7,13,6.9,19.4,9.5.8-7.8,2.7-25.6,2.8-31.5-8-.5-15.4-1.2-22.2-2.1Z"/>
    <path class="st3" d="M162.9,157.7c-10,0-18,6.3-18,14.1v28.2l54-42.4h-36Z"/>
  </g>
</svg>