<?xml version="1.0" encoding="UTF-8"?>
<svg id="_图层_1" xmlns="http://www.w3.org/2000/svg" version="1.1" viewBox="0 0 64 64" width="24" height="24">
  <!-- Generator: Adobe Illustrator 29.0.1, SVG Export Plug-In . SVG Version: 2.1.0 Build 192)  -->
  <defs>
    <style>
      .st0, .st1, .st2 {
        display: none;
      }

      .st0, .st3 {
        fill: #3f3f3f;
      }

      .st1, .st2, .st4, .st5 {
        isolation: isolate;
      }

      .st1, .st4, .st5 {
        opacity: .2;
      }

      .st2 {
        opacity: .1;
      }

      .st2, .st5 {
        fill: #fff;
      }

      .st6 {
        fill: #f47c04;
      }

      .st7 {
        fill: #05caf4;
      }
    </style>
  </defs>
  <path class="st3" d="M47.5,64.1H13.8c-7.6,0-13.8-6.3-13.8-13.8V13.7C0,6.2,6.2,0,13.7,0h36.6c7.5,0,13.7,6.2,13.7,13.7v36.6c0,7.5-6.2,13.7-13.7,13.7h-2.9.1Z"/>
  <g>
    <path class="st1" d="M3.2,1.1h57.7c1.8,0,3.2,1.4,3.2,3.2v57.6c0,1.8-1.4,3.2-3.2,3.2H3.2c-1.8,0-3.2-1.4-3.2-3.2V4.3C0,2.6,1.4,1.1,3.2,1.1Z"/>
    <path class="st0" d="M3.2,0h57.7c1.8,0,3.2,1.4,3.2,3.2v57.6c0,1.8-1.4,3.2-3.2,3.2H3.2c-1.8,0-3.2-1.4-3.2-3.2V3.2C0,1.4,1.4,0,3.2,0Z"/>
    <path class="st4" d="M13.4,18.3l-7.4,29.7h3.3l7.4-29.7h-3.3ZM20.1,18.3l-7.4,29.7h6.6l7.4-29.7h-6.6ZM30,18.3l-7.4,29.7h11.6l7.4-29.7h-11.6ZM44.8,18.3l-7.4,29.7h13.2l7.4-29.7h-13.2Z"/>
    <path class="st6" d="M44.8,17.2h13.2l-7.4,29.7h-13.2l7.4-29.7Z"/>
    <path class="st7" d="M30,17.2h11.6l-7.4,29.7h-11.6l7.4-29.7Z"/>
    <path class="st7" d="M20.1,17.2h6.6l-7.4,29.7h-6.6l7.4-29.7Z"/>
    <path class="st7" d="M13.4,17.2h3.3l-7.4,29.7h-3.3l7.4-29.7Z"/>
    <path class="st2" d="M3.2,0C1.4,0,0,1.4,0,3.2v1.1C0,2.6,1.4,1.1,3.2,1.1h57.7c1.8,0,3.2,1.4,3.2,3.2v-1.1c0-1.8-1.4-3.2-3.2-3.2H3.2Z"/>
    <path class="st5" d="M13.4,17.2l-7.4,29.7h.3l7.1-28.6h3l.3-1.1h-3.3ZM20.1,17.2l-7.4,29.7h.3l7.1-28.6h6.3l.3-1.1h-6.6ZM30,17.2l-7.4,29.7h.3l7.1-28.6h11.3l.3-1.1h-11.6ZM44.8,17.2l-7.4,29.7h.3l7.1-28.6h12.9l.3-1.1h-13.2Z"/>
  </g>
</svg>