<?xml version="1.0" encoding="UTF-8" standalone="no"?>
<svg
   id="_图层_1"
   version="1.1"
   viewBox="0 0 64 64" width="24" height="24"
   sodipodi:docname="com.github.bartzaalberg.lottery.svg"
   xml:space="preserve"
   inkscape:version="1.4 (e7c3feb100, 2024-10-09)"
   xmlns:inkscape="http://www.inkscape.org/namespaces/inkscape"
   xmlns:sodipodi="http://sodipodi.sourceforge.net/DTD/sodipodi-0.dtd"
   xmlns="http://www.w3.org/2000/svg"
   xmlns:svg="http://www.w3.org/2000/svg"><sodipodi:namedview
     id="namedview26"
     pagecolor="#505050"
     bordercolor="#eeeeee"
     borderopacity="1"
     inkscape:showpageshadow="0"
     inkscape:pageopacity="0"
     inkscape:pagecheckerboard="0"
     inkscape:deskcolor="#505050"
     inkscape:zoom="10.6875"
     inkscape:cx="32"
     inkscape:cy="32.093567"
     inkscape:window-width="1920"
     inkscape:window-height="939"
     inkscape:window-x="0"
     inkscape:window-y="34"
     inkscape:window-maximized="1"
     inkscape:current-layer="_图层_1" /><!-- Generator: Adobe Illustrator 29.0.1, SVG Export Plug-In . SVG Version: 2.1.0 Build 192)  --><defs
     id="defs6"><style
       id="style1">
      .st0 {
        fill-opacity: .5;
      }

      .st0, .st1, .st2, .st3, .st4, .st5, .st6, .st7 {
        fill: #fff;
      }

      .st8 {
        fill: #133c9a;
      }

      .st2, .st9 {
        display: none;
      }

      .st3 {
        fill-opacity: .2;
      }

      .st4 {
        fill-opacity: .9;
      }

      .st10 {
        fill: #3370ff;
      }

      .st11 {
        fill: url(#_未命名的渐变_3);
      }

      .st12 {
        fill: url(#_未命名的渐变);
      }

      .st5 {
        fill-opacity: .3;
      }

      .st6 {
        fill-opacity: 0;
      }

      .st7 {
        fill-opacity: .7;
      }

      .st13 {
        fill: #00d6b9;
      }

      .st14 {
        fill: url(#_未命名的渐变_2);
      }
    </style><radialGradient
       id="_未命名的渐变"
       data-name="未命名的渐变"
       cx="123.9"
       cy="-40.2"
       fx="123.9"
       fy="-40.2"
       r="59.4"
       gradientTransform="translate(-26.8 25.5) scale(.6 -.7)"
       gradientUnits="userSpaceOnUse"><stop
         offset="0"
         stop-color="#db202e"
         id="stop1" /><stop
         offset="1"
         stop-color="#e01b24"
         id="stop2" /></radialGradient><radialGradient
       id="_未命名的渐变_2"
       data-name="未命名的渐变 2"
       cx="67.6"
       cy="26.8"
       fx="67.6"
       fy="26.8"
       r="105.2"
       gradientTransform="translate(-26.6 25.3) scale(.6 -.7)"
       gradientUnits="userSpaceOnUse"><stop
         offset="0"
         stop-color="#ffb648"
         id="stop3" /><stop
         offset="1"
         stop-color="#ff7800"
         stop-opacity="0"
         id="stop4" /></radialGradient><radialGradient
       id="_未命名的渐变_3"
       data-name="未命名的渐变 3"
       cx="61.7"
       cy="18.6"
       fx="61.7"
       fy="18.6"
       r="68"
       gradientTransform="translate(-26.8 25.8) scale(.6 -.7)"
       gradientUnits="userSpaceOnUse"><stop
         offset="0"
         stop-color="#c64600"
         id="stop5" /><stop
         offset="1"
         stop-color="#a51d2d"
         id="stop6" /></radialGradient></defs><path
     class="st1"
     d="M47.5,64.1H13.8c-7.6,0-13.8-6.3-13.8-13.8V13.7C0,6.2,6.2,0,13.7,0h36.6c7.5,0,13.7,6.2,13.7,13.7v36.6c0,7.5-6.2,13.7-13.7,13.7h-2.9.1Z"
     id="path6"
     style="fill:#c2352a;fill-opacity:1" /><g
     id="g26"
     transform="matrix(1.1420217,0,0,1.1395301,-4.4979115,-4.5201087)"><path
       style="opacity:0.2"
       d="m 32,17.999769 a 3,3 0 0 0 -3,3 3,3 0 0 0 1.173828,2.376953 c -1.538279,2.603459 -3.076957,5.20433 -4.615234,7.677735 -0.794092,1.209622 -1.984644,1.976562 -3.175782,1.976562 -4.161207,-0.02918 -4.10252,-2.27205 -5.847656,-4.75 A 2,2 0 0 0 17,26.999769 a 2,2 0 0 0 -2,-2 2,2 0 0 0 -2,2 2,2 0 0 0 1.859375,1.992188 l 0.111328,0.314453 c 0.79409,3.09125 1.455911,6.450854 2.25,9.945312 0.132349,0.537606 0.5292,0.941406 1.058594,0.941406 4.499843,0.537608 9.133433,0.806641 13.765625,0.806641 4.632192,0 9.26383,-0.269033 13.763672,-0.806641 0.397046,0 0.793441,-0.4038 0.925781,-0.941406 0.79409,-3.494458 1.45591,-6.854062 2.25,-9.945312 l 0.107422,-0.310547 A 2,2 0 0 0 51,26.999769 a 2,2 0 0 0 -2,-2 2,2 0 0 0 -2,2 2,2 0 0 0 0.605469,1.431641 c -1.987582,2.213341 -2.819644,4.454764 -6.164063,4.599609 -1.323482,0 -2.383644,-0.766941 -3.177734,-1.976562 -1.520849,-2.445378 -3.039698,-5.01599 -4.560547,-7.589844 A 3,3 0 0 0 35,20.999769 a 3,3 0 0 0 -3,-3 z M 18.828125,43.003675 C 18.38963,43.021305 18,43.433295 18,43.843519 v 2.460938 c 0,0.58603 0.381214,1.171858 1.017578,1.289062 8.52727,1.875308 17.437572,1.875308 25.964844,0 C 45.491514,47.476319 46,46.890486 46,46.304457 v -2.460938 c 0,-0.586036 -0.381212,-0.939474 -1.017578,-0.822266 -4.243924,0.583324 -8.582941,1.175039 -12.921875,1.177735 -4.379244,0.0028 -8.759621,-0.588991 -13.042969,-1.177735 -0.06364,-0.01465 -0.126811,-0.0201 -0.189453,-0.01758 z"
       id="path2" /><path
       style="fill:#ffe15b"
       d="m 49.444587,26.965416 -0.459766,1.34159 c -0.79409,3.09125 -1.455993,6.451308 -2.250083,9.945766 -0.13234,0.537606 -0.529392,0.940814 -0.926438,0.940814 C 41.308458,39.731194 36.676266,40 32.044074,40 v 0 c -4.632192,0 -9.264386,-0.268806 -13.764229,-0.806414 -0.529394,0 -0.926439,-0.403208 -1.058788,-0.940814 -0.794089,-3.494458 -1.456029,-6.854516 -2.250119,-9.945766 L 14.511173,27.0165 c -0.926439,-0.1344 -0.311054,-0.583218 -0.311054,-1.524034 0,-1.20962 -0.59913,-0.32685 0.592005,-0.595652 1.191136,-0.268806 1.245638,-0.14394 1.245638,1.200068 0,0.806414 0.753512,0.253084 0.224119,0.790692 C 18.322628,29.518326 18,32 22.382642,32.030738 c 1.191138,0 2.38227,-0.766882 3.176362,-1.976504 1.588178,-2.55364 3.17636,-5.241684 4.76454,-7.92973 -0.397046,-0.537606 -0.661742,-1.209618 -0.661742,-1.88163 0,-1.478425 0.977524,-1.800747 2.301008,-1.800747 1.191134,0 2.198836,0.322322 2.198836,1.800747 0,0.672012 -0.264696,1.344024 -0.661742,1.88163 v 0 c 1.58818,2.688046 3.176362,5.37609 4.764542,7.92973 0.79409,1.209622 1.852876,1.976504 3.176358,1.976504 3.715116,-0.1609 4.316379,-2.90848 6.861905,-5.331332 -0.529392,-0.537612 -0.0747,-0.08854 -0.0747,-0.894956 0,-1.344022 -0.555026,-1.212052 0.636106,-0.94325 1.191138,0.268808 1.095876,0.405642 1.095876,1.615262 -0.13234,0.672012 0.411048,0.22015 -0.515404,0.488954 z"
       id="path3" /><path
       style="fill:#ffe15b"
       d="M 46,42.842906 C 46,42.25687 45.618184,41.90525 44.981818,42.022458 40.737894,42.605782 36.399396,43.197304 32.060462,43.2 27.681218,43.2028 23.30153,42.611202 19.018182,42.022458 18.50909,41.905258 18,42.374078 18,42.842906 v 2.461342 c 0,0.58603 0.381818,1.172068 1.018182,1.289272 8.52727,1.875308 17.436364,1.875308 25.963636,0 C 45.49091,46.47632 46,45.890278 46,45.304248 Z"
       id="path4" /><circle
       style="fill:#ffe15b"
       cx="15"
       cy="26"
       r="2"
       id="circle4" /><circle
       style="fill:#ffe15b"
       cx="49"
       cy="26"
       r="2"
       id="circle5" /><circle
       style="fill:#ffe15b"
       cx="32"
       cy="20"
       r="3"
       id="circle6" /></g></svg>
