<?xml version="1.0" encoding="UTF-8" standalone="no"?>
<svg
   id="_图层_1"
   version="1.1"
   viewBox="0 0 64 64" width="24" height="24"
   sodipodi:docname="com.github.donadigo.appeditor.svg"
   xml:space="preserve"
   inkscape:version="1.4 (e7c3feb100, 2024-10-09)"
   xmlns:inkscape="http://www.inkscape.org/namespaces/inkscape"
   xmlns:sodipodi="http://sodipodi.sourceforge.net/DTD/sodipodi-0.dtd"
   xmlns="http://www.w3.org/2000/svg"
   xmlns:svg="http://www.w3.org/2000/svg"><sodipodi:namedview
     id="namedview26"
     pagecolor="#505050"
     bordercolor="#eeeeee"
     borderopacity="1"
     inkscape:showpageshadow="0"
     inkscape:pageopacity="0"
     inkscape:pagecheckerboard="0"
     inkscape:deskcolor="#505050"
     inkscape:zoom="8.453125"
     inkscape:cx="31.94085"
     inkscape:cy="33.833641"
     inkscape:window-width="1920"
     inkscape:window-height="939"
     inkscape:window-x="0"
     inkscape:window-y="34"
     inkscape:window-maximized="1"
     inkscape:current-layer="_图层_1" /><!-- Generator: Adobe Illustrator 29.0.1, SVG Export Plug-In . SVG Version: 2.1.0 Build 192)  --><defs
     id="defs6"><style
       id="style1">
      .st0 {
        fill-opacity: .5;
      }

      .st0, .st1, .st2, .st3, .st4, .st5, .st6, .st7 {
        fill: #fff;
      }

      .st8 {
        fill: #133c9a;
      }

      .st2, .st9 {
        display: none;
      }

      .st3 {
        fill-opacity: .2;
      }

      .st4 {
        fill-opacity: .9;
      }

      .st10 {
        fill: #3370ff;
      }

      .st11 {
        fill: url(#_未命名的渐变_3);
      }

      .st12 {
        fill: url(#_未命名的渐变);
      }

      .st5 {
        fill-opacity: .3;
      }

      .st6 {
        fill-opacity: 0;
      }

      .st7 {
        fill-opacity: .7;
      }

      .st13 {
        fill: #00d6b9;
      }

      .st14 {
        fill: url(#_未命名的渐变_2);
      }
    </style><radialGradient
       id="_未命名的渐变"
       data-name="未命名的渐变"
       cx="123.9"
       cy="-40.2"
       fx="123.9"
       fy="-40.2"
       r="59.4"
       gradientTransform="translate(-26.8 25.5) scale(.6 -.7)"
       gradientUnits="userSpaceOnUse"><stop
         offset="0"
         stop-color="#db202e"
         id="stop1" /><stop
         offset="1"
         stop-color="#e01b24"
         id="stop2" /></radialGradient><radialGradient
       id="_未命名的渐变_2"
       data-name="未命名的渐变 2"
       cx="67.6"
       cy="26.8"
       fx="67.6"
       fy="26.8"
       r="105.2"
       gradientTransform="translate(-26.6 25.3) scale(.6 -.7)"
       gradientUnits="userSpaceOnUse"><stop
         offset="0"
         stop-color="#ffb648"
         id="stop3" /><stop
         offset="1"
         stop-color="#ff7800"
         stop-opacity="0"
         id="stop4" /></radialGradient><radialGradient
       id="_未命名的渐变_3"
       data-name="未命名的渐变 3"
       cx="61.7"
       cy="18.6"
       fx="61.7"
       fy="18.6"
       r="68"
       gradientTransform="translate(-26.8 25.8) scale(.6 -.7)"
       gradientUnits="userSpaceOnUse"><stop
         offset="0"
         stop-color="#c64600"
         id="stop5" /><stop
         offset="1"
         stop-color="#a51d2d"
         id="stop6" /></radialGradient></defs><path
     class="st1"
     d="M47.5,64.1H13.8c-7.6,0-13.8-6.3-13.8-13.8V13.7C0,6.2,6.2,0,13.7,0h36.6c7.5,0,13.7,6.2,13.7,13.7v36.6c0,7.5-6.2,13.7-13.7,13.7h-2.9.1Z"
     id="path6"
     style="fill:#e4e4e4;fill-opacity:1" /><g
     id="g47"
     transform="matrix(0.83627756,0,0,0.8166382,4.1993542,5.8205657)"><path
       style="opacity:0.2"
       d="m 5.1342311,23.485961 -0.214829,0.371099 c -0.3154241,0.558597 -0.1778373,1.331674 0.3085844,1.749992 l 4.4371761,3.893983 C 9.7103365,28.887678 9.7740462,28.28064 9.8643698,27.676823 L 5.2280037,23.606841 c -0.039198,-0.036 -0.059198,-0.084 -0.093796,-0.122 z m 53.7312909,0 c -0.03458,0.038 -0.05458,0.0874 -0.09374,0.1211 l -4.636566,4.070382 c 0.09026,0.603817 0.15402,1.210855 0.199199,1.824212 l 4.437377,-3.894583 c 0.486356,-0.418318 0.623988,-1.191395 0.308585,-1.749992 L 58.866388,23.485081 Z M 9.6460041,32.001924 c -0.01666,0.332259 -0.042966,0.661698 -0.042966,0.999996 0,0.507438 0.026068,1.005196 0.062498,1.499994 l 0.1992072,-0.17578 C 9.7499497,33.560138 9.685152,32.786141 9.6459543,32.002144 Z m 44.7077449,0 c -0.03932,0.783877 -0.104139,1.558034 -0.218749,2.32419 l 0.199219,0.17578 c 0.03644,-0.494798 0.0625,-0.992556 0.0625,-1.499994 0,-0.338298 -0.0263,-0.667737 -0.04296,-0.999996 z M 5.1342311,40.517888 c -0.3945801,0.433998 -0.5047744,1.113995 -0.214789,1.627993 l 5.6013179,9.710958 c 0.324763,0.550798 1.055606,0.821717 1.660076,0.613277 l 5.819906,-1.969991 c 1.748732,1.399934 3.742612,2.541789 5.862904,3.370985 l 1.179621,5.992175 C 25.163067,60.490682 25.76003,60.9913 26.398679,61 h 11.202634 c 0.638628,-0.008 1.235659,-0.509318 1.355412,-1.136715 l 1.179621,-5.992175 c 2.117893,-0.829996 4.111793,-1.971991 5.859703,-3.371985 l 5.820107,1.968751 c 0.60445,0.20844 1.335312,-0.0624 1.660077,-0.613277 l 5.601318,-9.710958 c 0.290005,-0.513598 0.179799,-1.195135 -0.214829,-1.628893 l -5.386529,9.33976 c -0.324765,0.550877 -1.055627,0.821716 -1.660077,0.613277 l -5.821705,-1.969991 c -1.748732,1.399934 -3.742612,2.537789 -5.862905,3.367185 l -1.17962,5.995974 c -0.118,0.625998 -0.715965,1.127995 -1.353933,1.135995 H 26.39532 c -0.63863,-0.0086 -1.235619,-0.509317 -1.355413,-1.136715 l -1.177941,-5.995974 c -2.121892,-0.829996 -4.114992,-1.967991 -5.863704,-3.367985 l -5.820106,1.967991 c -0.60437,0.209999 -1.335133,-0.062 -1.659916,-0.611997 l -5.3865287,-9.33996 z"
       id="path1" /><path
       style="fill:#5f7c8a"
       d="m 26.268604,4.0024732 c -0.593595,0.0646 -1.116455,0.5502856 -1.224951,1.1374511 l -1.181175,5.9934427 c -2.120516,0.829298 -4.113437,1.968709 -5.862168,3.368713 l -5.817772,-1.968749 c -0.604476,-0.208436 -1.337647,0.0616 -1.662414,0.612483 L 4.9203438,22.85796 c -0.3154276,0.558586 -0.1801932,1.331626 0.3062281,1.749935 l 4.6372175,4.068494 c -0.1631933,1.090911 -0.2624897,2.188543 -0.2624897,3.324912 0,1.136411 0.099196,2.233942 0.2624897,3.324913 l -4.6372175,4.068693 c -0.4863609,0.41831 -0.6216557,1.191349 -0.3062281,1.749934 l 5.5997802,9.712147 c 0.324767,0.550785 1.057938,0.820898 1.662414,0.612463 l 5.818371,-1.968667 c 1.748752,1.399904 3.741653,2.539333 5.862169,3.368711 l 1.181175,5.993442 c 0.1198,0.627386 0.717551,1.128751 1.356186,1.137451 h 11.19936 c 0.638636,-0.008 1.236431,-0.510065 1.356166,-1.137451 l 1.181193,-5.993442 c 2.120517,-0.829298 4.113439,-1.968727 5.862171,-3.368711 l 5.818371,1.968667 c 0.604456,0.208435 1.337646,-0.0616 1.662415,-0.612463 l 5.59978,-9.712147 c 0.315407,-0.558585 0.180199,-1.331624 -0.306229,-1.749934 l -4.637218,-4.068693 c 0.1632,-1.090911 0.262471,-2.188342 0.262471,-3.324913 0,-1.136409 -0.0994,-2.233941 -0.262471,-3.324912 l 4.637218,-4.068494 c 0.48636,-0.418309 0.621636,-1.191349 0.306229,-1.749935 l -5.59978,-9.712146 C 53.155346,12.595028 52.422156,12.324895 51.8177,12.533331 L 45.999329,14.502 C 44.249397,13.101036 42.257475,11.961665 40.137558,11.132287 L 38.956365,5.1388443 C 38.836566,4.511461 38.238835,4.0100732 37.600199,4.0013932 h -11.19936 c -0.0438,-0.00102 -0.0876,-0.00102 -0.131199,0 z"
       id="path2" /><path
       style="opacity:0.2"
       d="m 31.999948,21.000103 c 6.627372,0 11.999949,5.372577 11.999949,11.999948 C 43.999897,39.627423 38.62732,45 31.999948,45 25.372577,45 20,39.627423 20,33.000051 20,26.37268 25.372577,21.000103 31.999948,21.000103 Z"
       id="path3-1" /><path
       style="fill:#ffffff"
       d="m 32.001333,20.00038 c 6.627372,0 11.999949,5.372577 11.999949,11.999949 0,6.627371 -5.372577,11.999948 -11.999949,11.999948 -6.627371,0 -11.999948,-5.372577 -11.999948,-11.999948 0,-6.627372 5.372577,-11.999949 11.999948,-11.999949 z"
       id="path4-0" /><path
       style="opacity:0.2;fill:#ffffff"
       d="m 26.251953,4 c -0.593617,0.0646 -1.079,0.5378225 -1.1875,1.125 l -1.1875,6 c -2.120591,0.829316 -4.126208,1.975066 -5.875,3.375 l -5.8125,-1.9375 c -0.604498,-0.208439 -1.362722,0.012 -1.6875,0.5625 L 5.1269531,22.5 c 0.03808,0.043 0.081141,0.0872 0.125,0.125 L 5.5,22.847656 10.501953,14.125 c 0.324778,-0.5505 1.083002,-0.770939 1.6875,-0.5625 l 5.8125,1.9375 c 1.748792,-1.399934 3.754409,-2.545684 5.875,-3.375 l 1.1875,-6 c 0.1085,-0.5871775 0.593883,-1.0604 1.1875,-1.125 0.0436,-0.00102 0.0812,-0.00102 0.125,0 h 11.25 c 0.638657,0.00868 1.1927,0.4976027 1.3125,1.125 l 1.1875,6 c 2.120591,0.829396 4.126188,1.975066 5.875,3.375 l 5.8125,-1.9375 c 0.604478,-0.208439 1.362721,0.0117 1.6875,0.5625 l 5.001953,8.722656 0.248047,-0.222656 c 0.0438,-0.0378 0.087,-0.082 0.125,-0.125 l -5.375,-9.375 c -0.324779,-0.550798 -1.083022,-0.770939 -1.6875,-0.5625 l -5.8125,1.9375 c -1.748812,-1.399934 -3.754409,-2.545604 -5.875,-3.375 l -1.1875,-6 C 38.819653,4.4976027 38.26561,4.00868 37.626953,4 h -11.25 c -0.0438,-0.00102 -0.0814,-0.00102 -0.125,0 z M 4.8125,23.3125 c -0.0337,0.185199 -0.03894,0.314861 0,0.5 -0.02838,-0.157599 -0.02348,-0.342441 0,-0.5 z m 54.376953,0 c 0.0236,0.157599 0.0284,0.342301 0,0.5 0.039,-0.185199 0.0338,-0.314861 0,-0.5 z m -49.5,12.1875 -4.4375,3.875 c -0.04386,0.0378 -0.086841,0.082 -0.125,0.125 l 0.375,0.65625 4.1875,-3.65625 c 0.022276,0.303793 0.062439,0.597984 0.091797,0.894531 L 9.876953,37.3125 C 9.7862334,36.706503 9.7345928,36.115597 9.689453,35.5 Z m 44.623047,0 c -0.0452,0.615597 -0.0969,1.206503 -0.1875,1.8125 l 0.0957,0.08203 C 54.25007,37.097984 54.29019,36.803793 54.3125,36.5 L 58.5,40.15625 58.875,39.5 C 58.8368,39.457 58.7938,39.4128 58.75,39.375 Z"
       id="path5" /><path
       style="opacity:0.2;fill-rule:evenodd"
       d="M 63.958,46.848 A 16,16 0 0 1 48,62 16,16 0 0 1 32.042,47.152 16,16 0 0 0 32,48 16,16 0 0 0 48,64 16,16 0 0 0 64,48 16,16 0 0 0 63.95704,46.84766 Z"
       id="path6-6" /><g
       transform="matrix(2,0,0,2,6,1)"
       id="g6"><circle
         style="fill:#0ab884"
         cx="21"
         cy="23"
         r="8"
         id="circle6-3" /></g><path
       style="fill:#ffffff"
       d="M 40,51.436 V 55 h 3.5638 l 9.0008,-9.0008 -3.5638,-3.5638 z m 15.7172,-8.5782 c 0.37696,-0.37694 0.37696,-0.9709 0,-1.34786 l -2.2274,-2.2274 c -0.37696,-0.37696 -0.97092,-0.37696 -1.34786,0 l -1.862,1.874 3.564,3.564 z"
       id="path7-2" /></g></svg>
