<?xml version="1.0" encoding="UTF-8" standalone="no"?>
<svg
   id="_图层_1"
   version="1.1"
   viewBox="0 0 64 64" width="24" height="24"
   sodipodi:docname="com.github.linuxhubit.catfacts.svg"
   xml:space="preserve"
   inkscape:version="1.4 (e7c3feb100, 2024-10-09)"
   xmlns:inkscape="http://www.inkscape.org/namespaces/inkscape"
   xmlns:sodipodi="http://sodipodi.sourceforge.net/DTD/sodipodi-0.dtd"
   xmlns="http://www.w3.org/2000/svg"
   xmlns:svg="http://www.w3.org/2000/svg"><sodipodi:namedview
     id="namedview26"
     pagecolor="#505050"
     bordercolor="#eeeeee"
     borderopacity="1"
     inkscape:showpageshadow="0"
     inkscape:pageopacity="0"
     inkscape:pagecheckerboard="0"
     inkscape:deskcolor="#505050"
     inkscape:zoom="10.6875"
     inkscape:cx="32"
     inkscape:cy="26.760234"
     inkscape:window-width="1920"
     inkscape:window-height="939"
     inkscape:window-x="0"
     inkscape:window-y="34"
     inkscape:window-maximized="1"
     inkscape:current-layer="_图层_1" /><!-- Generator: Adobe Illustrator 29.0.1, SVG Export Plug-In . SVG Version: 2.1.0 Build 192)  --><defs
     id="defs6"><style
       id="style1">
      .st0 {
        fill-opacity: .5;
      }

      .st0, .st1, .st2, .st3, .st4, .st5, .st6, .st7 {
        fill: #fff;
      }

      .st8 {
        fill: #133c9a;
      }

      .st2, .st9 {
        display: none;
      }

      .st3 {
        fill-opacity: .2;
      }

      .st4 {
        fill-opacity: .9;
      }

      .st10 {
        fill: #3370ff;
      }

      .st11 {
        fill: url(#_未命名的渐变_3);
      }

      .st12 {
        fill: url(#_未命名的渐变);
      }

      .st5 {
        fill-opacity: .3;
      }

      .st6 {
        fill-opacity: 0;
      }

      .st7 {
        fill-opacity: .7;
      }

      .st13 {
        fill: #00d6b9;
      }

      .st14 {
        fill: url(#_未命名的渐变_2);
      }
    </style><radialGradient
       id="_未命名的渐变"
       data-name="未命名的渐变"
       cx="123.9"
       cy="-40.2"
       fx="123.9"
       fy="-40.2"
       r="59.4"
       gradientTransform="translate(-26.8 25.5) scale(.6 -.7)"
       gradientUnits="userSpaceOnUse"><stop
         offset="0"
         stop-color="#db202e"
         id="stop1" /><stop
         offset="1"
         stop-color="#e01b24"
         id="stop2" /></radialGradient><radialGradient
       id="_未命名的渐变_2"
       data-name="未命名的渐变 2"
       cx="67.6"
       cy="26.8"
       fx="67.6"
       fy="26.8"
       r="105.2"
       gradientTransform="translate(-26.6 25.3) scale(.6 -.7)"
       gradientUnits="userSpaceOnUse"><stop
         offset="0"
         stop-color="#ffb648"
         id="stop3" /><stop
         offset="1"
         stop-color="#ff7800"
         stop-opacity="0"
         id="stop4" /></radialGradient><radialGradient
       id="_未命名的渐变_3"
       data-name="未命名的渐变 3"
       cx="61.7"
       cy="18.6"
       fx="61.7"
       fy="18.6"
       r="68"
       gradientTransform="matrix(0.6,0,0,-0.7,-26.8,25.8)"
       gradientUnits="userSpaceOnUse"><stop
         offset="0"
         stop-color="#c64600"
         id="stop5" /><stop
         offset="1"
         stop-color="#a51d2d"
         id="stop6" /></radialGradient></defs><path
     class="st1"
     d="M 47.5,64.1 H 13.8 C 6.2,64.1 0,57.8 0,50.3 V 13.7 C 0,6.2 6.2,0 13.7,0 H 50.3 C 57.8,0 64,6.2 64,13.7 V 50.3 C 64,57.8 57.8,64 50.3,64 h -2.9 0.1 z"
     id="path6"
     style="fill:#6f6df3;fill-opacity:1"
     sodipodi:nodetypes="cssssssssccc" /><g
     id="g50"
     transform="matrix(1.1420217,0,0,1.1444547,-4.4979114,-4.5807428)"><path
       style="opacity:0.2"
       d="m 35.5,18.999996 c -1.933732,0 -3.5,2.463623 -3.5,5.5 0,3.037788 1.566268,5.5 3.5,5.5 1.932336,0 3.5,-2.462212 3.5,-5.5 0,-3.036377 -1.567664,-5.5 -3.5,-5.5 z m -8,2 c -1.933732,0 -3.5,2.463623 -3.5,5.5 0,3.037788 1.566268,5.5 3.5,5.5 1.932336,0 3.5,-2.462212 3.5,-5.5 0,-3.036377 -1.567664,-5.5 -3.5,-5.5 z m 16.105469,7 c -1.415843,0.02272 -3.03083,1.142443 -3.947266,2.863281 -1.12946,2.117957 -0.770721,4.342913 0.798828,4.970703 1.569545,0.62779 3.756847,-0.580641 4.884766,-2.697265 1.127919,-2.117956 0.770719,-4.342913 -0.798828,-4.970703 -0.294579,-0.117711 -0.610767,-0.171258 -0.9375,-0.166016 z m -23.210938,1 c -0.326661,-0.0054 -0.643182,0.04854 -0.9375,0.166016 -1.569698,0.627873 -1.926855,2.85246 -0.798828,4.970703 1.128028,2.116908 3.315069,3.323806 4.884766,2.697265 1.569698,-0.627873 1.926854,-2.851842 0.798828,-4.96875 -0.916524,-1.721071 -2.531733,-2.841799 -3.947266,-2.865234 z m 11.28125,4 c 0,0 -2.110448,-0.0055 -3.558593,1.291016 -2.004142,1.793532 -4.314454,5.609375 -4.314454,5.609375 C 22.57922,41.815808 22,42.831598 22,43.890621 c 0,2.095884 1.566494,3.109375 3.675781,3.109375 0.927195,0 1.504836,0.0086 3.021485,-0.773438 0,0 0.983514,-0.904683 3.304687,-0.814453 2.298868,-0.09181 3.279297,0.802735 3.279297,0.802735 1.51665,0.783765 2.116494,0.785156 3.046875,0.785156 2.107693,0 3.671875,-1.016658 3.671875,-3.109375 0,-1.060608 -0.577268,-2.076396 -1.800781,-3.990234 0,0 -2.37208,-3.750941 -4.3125,-5.609375 -1.357336,-1.296324 -3.560547,-1.291016 -3.560547,-1.291016 z"
       id="path2-0" /><path
       style="fill:#ffffff"
       d="m 44.543055,27.166005 c -1.571087,-0.627789 -3.756143,0.579806 -4.884064,2.697761 -1.12946,2.117957 -0.770924,4.342543 0.798625,4.970333 1.569545,0.62779 3.756142,-0.581137 4.884061,-2.697761 1.127919,-2.117956 0.770925,-4.342543 -0.798622,-4.970333 z"
       id="path3" /><path
       style="fill:#ffffff"
       d="M 35.5,29 C 37.432336,29 39,26.537083 39,23.499295 39,20.462918 37.432336,18 35.5,18 33.566268,18 32,20.462918 32,23.499295 32,26.537083 33.566268,29 35.5,29 Z"
       id="path4" /><path
       style="fill:#ffffff"
       d="m 23.542914,35.83456 c 1.569698,-0.627873 1.926727,-2.85276 0.798701,-4.969668 -1.12803,-2.118242 -3.314833,-3.326 -4.88453,-2.699459 -1.569698,0.627873 -1.926726,2.85276 -0.798699,4.971003 1.128028,2.116908 3.314831,3.324665 4.884528,2.698124 z"
       id="path5" /><path
       style="fill:#ffffff"
       d="M 27.5,31 C 29.432336,31 31,28.537083 31,25.499295 31,22.462918 29.432336,20 27.5,20 25.566268,20 24,22.462918 24,25.499295 24,28.537083 25.566268,31 27.5,31 Z"
       id="path6-7" /><path
       style="fill:#ffffff"
       d="M 40.199779,38.900271 C 41.423292,40.814109 42,41.83039 42,42.890998 c 0,2.092717 -1.564443,3.108999 -3.672136,3.108999 -0.930381,0 -1.529393,-0.0014 -3.046043,-0.785165 0,0 -0.98136,-0.894391 -3.280228,-0.802578 -2.321173,-0.09023 -3.304126,0.813659 -3.304126,0.813659 -1.516649,0.782 -2.09495,0.774084 -3.022145,0.774084 C 23.566035,45.999997 22,44.986882 22,42.890998 c 0,-1.059023 0.578301,-2.075306 1.801815,-3.990727 0,0 2.311615,-3.815015 4.315756,-5.608547 C 29.565717,31.995253 31.675004,32 31.675004,32 h 0.651585 v 0 c 0,0 2.203281,-0.0046 3.560617,1.291724 1.94042,1.858434 4.312573,5.608547 4.312573,5.608547 z"
       id="path7" /></g></svg>
