<?xml version="1.0" encoding="UTF-8" standalone="no"?>
<svg
   id="_图层_1"
   version="1.1"
   viewBox="0 0 64 64" width="24" height="24"
   sodipodi:docname="com.github.maoschanz.DynamicWallpaperEditor.svg"
   xml:space="preserve"
   inkscape:version="1.4 (e7c3feb100, 2024-10-09)"
   xmlns:inkscape="http://www.inkscape.org/namespaces/inkscape"
   xmlns:sodipodi="http://sodipodi.sourceforge.net/DTD/sodipodi-0.dtd"
   xmlns="http://www.w3.org/2000/svg"
   xmlns:svg="http://www.w3.org/2000/svg"><sodipodi:namedview
     id="namedview26"
     pagecolor="#505050"
     bordercolor="#eeeeee"
     borderopacity="1"
     inkscape:showpageshadow="0"
     inkscape:pageopacity="0"
     inkscape:pagecheckerboard="0"
     inkscape:deskcolor="#505050"
     inkscape:zoom="10.6875"
     inkscape:cx="32"
     inkscape:cy="25.824561"
     inkscape:window-width="1920"
     inkscape:window-height="939"
     inkscape:window-x="0"
     inkscape:window-y="34"
     inkscape:window-maximized="1"
     inkscape:current-layer="_图层_1" /><!-- Generator: Adobe Illustrator 29.0.1, SVG Export Plug-In . SVG Version: 2.1.0 Build 192)  --><defs
     id="defs6"><style
       id="style1">
      .st0 {
        fill-opacity: .5;
      }

      .st0, .st1, .st2, .st3, .st4, .st5, .st6, .st7 {
        fill: #fff;
      }

      .st8 {
        fill: #133c9a;
      }

      .st2, .st9 {
        display: none;
      }

      .st3 {
        fill-opacity: .2;
      }

      .st4 {
        fill-opacity: .9;
      }

      .st10 {
        fill: #3370ff;
      }

      .st11 {
        fill: url(#_未命名的渐变_3);
      }

      .st12 {
        fill: url(#_未命名的渐变);
      }

      .st5 {
        fill-opacity: .3;
      }

      .st6 {
        fill-opacity: 0;
      }

      .st7 {
        fill-opacity: .7;
      }

      .st13 {
        fill: #00d6b9;
      }

      .st14 {
        fill: url(#_未命名的渐变_2);
      }
    </style><radialGradient
       id="_未命名的渐变"
       data-name="未命名的渐变"
       cx="123.9"
       cy="-40.2"
       fx="123.9"
       fy="-40.2"
       r="59.4"
       gradientTransform="translate(-26.8 25.5) scale(.6 -.7)"
       gradientUnits="userSpaceOnUse"><stop
         offset="0"
         stop-color="#db202e"
         id="stop1" /><stop
         offset="1"
         stop-color="#e01b24"
         id="stop2" /></radialGradient><radialGradient
       id="_未命名的渐变_2"
       data-name="未命名的渐变 2"
       cx="67.6"
       cy="26.8"
       fx="67.6"
       fy="26.8"
       r="105.2"
       gradientTransform="translate(-26.6 25.3) scale(.6 -.7)"
       gradientUnits="userSpaceOnUse"><stop
         offset="0"
         stop-color="#ffb648"
         id="stop3" /><stop
         offset="1"
         stop-color="#ff7800"
         stop-opacity="0"
         id="stop4" /></radialGradient><radialGradient
       id="_未命名的渐变_3"
       data-name="未命名的渐变 3"
       cx="61.7"
       cy="18.6"
       fx="61.7"
       fy="18.6"
       r="68"
       gradientTransform="translate(-26.8 25.8) scale(.6 -.7)"
       gradientUnits="userSpaceOnUse"><stop
         offset="0"
         stop-color="#c64600"
         id="stop5" /><stop
         offset="1"
         stop-color="#a51d2d"
         id="stop6" /></radialGradient></defs><path
     class="st1"
     d="M47.5,64.1H13.8c-7.6,0-13.8-6.3-13.8-13.8V13.7C0,6.2,6.2,0,13.7,0h36.6c7.5,0,13.7,6.2,13.7,13.7v36.6c0,7.5-6.2,13.7-13.7,13.7h-2.9.1Z"
     id="path6"
     style="fill:#c8c8c8;fill-opacity:1" /><g
     id="g34"
     transform="matrix(0.95488722,0,0,0.93395253,2.0517959,2.1026832)"><rect
       style="opacity:0.2"
       width="45.230999"
       height="34"
       x="-58"
       y="-49"
       rx="2.6919999"
       ry="2.6559999"
       transform="matrix(0,-1,-1,0,0,0)"
       id="rect1" /><rect
       style="fill:#8e8e8e"
       width="45.230999"
       height="34"
       x="-57"
       y="-49"
       rx="2.6919999"
       ry="2.6559999"
       transform="matrix(0,-1,-1,0,0,0)"
       id="rect2" /><rect
       style="opacity:0.2"
       width="44"
       height="56"
       x="-52"
       y="-60"
       rx="2.75"
       ry="2.6919999"
       transform="matrix(0,-1,-1,0,0,0)"
       id="rect3" /><rect
       style="fill:#4f4f4f"
       width="44"
       height="56"
       x="-51"
       y="-60"
       rx="2.75"
       ry="2.6919999"
       transform="matrix(0,-1,-1,0,0,0)"
       id="rect4" /><rect
       style="fill:#333333"
       width="36"
       height="48"
       x="-47"
       y="-56"
       rx="0"
       ry="0"
       transform="matrix(0,-1,-1,0,0,0)"
       id="rect5" /><path
       style="fill:#303f9f"
       d="M 8.0000002,36.710036 V 47 H 18.491729 Z"
       id="path5" /><path
       style="fill:#2357cd"
       d="M 8.0000002,26.30108 V 36.710036 L 18.491729,47 H 29.10478 Z"
       id="path6-0" /><path
       style="fill:#9844e8"
       d="M 8.0000002,15.892127 V 26.30108 L 29.10478,47 h 10.610294 z"
       id="path7" /><path
       style="fill:#f845c5"
       d="m 8.0000002,11 v 4.892127 L 39.715074,47 H 50.330882 L 13.622243,11 Z"
       id="path8" /><path
       style="fill:#ffb86c"
       d="M 13.622243,11 50.330882,47 H 56 V 42.153846 L 24.235294,11 Z"
       id="path9" /><path
       style="fill:#359435"
       d="M 24.235294,11 56,42.153846 V 31.744892 L 34.848346,11 Z"
       id="path10" /><path
       style="fill:#17aab6"
       d="M 34.848346,11 56,31.744892 V 21.335938 L 45.461396,11 Z"
       id="path11" /><path
       style="fill:#1bbcff"
       d="M 45.461396,11 56,21.335938 V 11 Z"
       id="path12" /><path
       style="opacity:0.2"
       d="M 42.386718,16.019531 41.40625,16.28125 c -0.1301,0.03486 -0.241134,0.12143 -0.308594,0.238281 -0.06748,0.116862 -0.08564,0.252689 -0.05078,0.382813 l 0.523436,1.964844 c 0.03486,0.130106 0.12142,0.241131 0.238282,0.308593 0.11686,0.06747 0.256598,0.08564 0.386718,0.05078 l 0.98047,-0.261718 c 0.1301,-0.03487 0.241134,-0.12143 0.308594,-0.238282 0.0675,-0.116862 0.08566,-0.256608 0.05078,-0.386718 l -0.527344,-1.960939 c -0.03486,-0.130104 -0.11752,-0.24113 -0.234374,-0.308594 -0.11686,-0.06746 -0.2566,-0.08563 -0.38672,-0.05078 z m 4.851564,0.636719 c -0.12538,0.03359 -0.238144,0.116264 -0.308594,0.238281 l -1.015626,1.757813 c -0.0675,0.116858 -0.08564,0.256595 -0.05078,0.386718 0.03486,0.130106 0.11754,0.24113 0.234374,0.308594 l 0.882812,0.507813 c 0.244036,0.140892 0.550506,0.05653 0.691408,-0.1875 L 48.6875,17.910156 c 0.14088,-0.244034 0.06044,-0.554414 -0.1836,-0.695312 L 47.625,16.707031 c -0.12202,-0.07045 -0.261348,-0.08437 -0.386718,-0.05078 z m -9.714844,2.601562 c -0.12538,0.03359 -0.238144,0.116264 -0.308594,0.238282 L 36.707032,20.375 c -0.0675,0.11686 -0.08564,0.25658 -0.05078,0.386718 0.03486,0.1301 0.11752,0.24113 0.234374,0.308594 l 1.76172,1.015626 c 0.24403,0.1409 0.550506,0.06044 0.691406,-0.1836 l 0.511718,-0.882812 c 0.14088,-0.244036 0.05654,-0.550508 -0.1875,-0.691406 L 37.90625,19.3125 C 37.78423,19.24205 37.648808,19.22422 37.523438,19.25781 Z M 44,20 c -2.195314,0 -4,1.804688 -4,4 0,2.195318 1.804686,4 4,4 2.195312,0 4,-1.804682 4,-4 0,-2.195312 -1.804688,-4 -4,-4 z m 7.097656,1.046876 -1.964844,0.527342 c -0.1301,0.03488 -0.241134,0.1175 -0.308594,0.234376 -0.0675,0.11686 -0.08566,0.256598 -0.05078,0.386718 l 0.265624,0.984376 c 0.03578,0.12774 0.11918,0.238176 0.234376,0.304688 0.11686,0.0675 0.256598,0.08564 0.386718,0.05078 L 51.625,23.011718 c 0.1301,-0.03488 0.241114,-0.12142 0.308594,-0.23828 0.0675,-0.11686 0.08564,-0.252692 0.05078,-0.382814 L 51.718748,21.40625 c -0.03486,-0.1301 -0.12144,-0.241132 -0.238282,-0.308594 -0.11686,-0.06746 -0.252692,-0.08564 -0.38281,-0.05078 z M 38.339844,24.464844 36.375,24.992188 c -0.13012,0.03486 -0.241134,0.11752 -0.308594,0.234374 -0.06748,0.11686 -0.08564,0.2566 -0.05078,0.38672 l 0.265626,0.980468 c 0.03488,0.1301 0.11754,0.241134 0.234374,0.308594 0.11686,0.0675 0.2566,0.08564 0.38672,0.05078 l 1.960938,-0.523436 c 0.1301,-0.03486 0.241134,-0.12142 0.308594,-0.238282 0.0675,-0.11686 0.08566,-0.256598 0.05078,-0.386718 l -0.261718,-0.98047 c -0.03486,-0.1301 -0.12144,-0.241132 -0.238282,-0.308594 -0.11686,-0.0675 -0.252692,-0.08564 -0.382814,-0.05078 z m 10.621094,1.398438 c -0.12538,0.0336 -0.238144,0.11626 -0.308594,0.23828 l -0.507812,0.878906 c -0.0675,0.11686 -0.08564,0.2566 -0.05078,0.38672 0.03488,0.1301 0.12144,0.241134 0.238282,0.308594 l 1.757812,1.015624 c 0.244034,0.1409 0.554412,0.05654 0.695312,-0.1875 L 51.292968,27.625 c 0.14088,-0.244036 0.05654,-0.554412 -0.1875,-0.695312 l -1.757812,-1.015626 c -0.12202,-0.07044 -0.261348,-0.08438 -0.386718,-0.05078 z m -8.328126,2.230468 c -0.12538,0.0336 -0.238144,0.11626 -0.308594,0.238282 l -1.015624,1.761718 c -0.0675,0.11686 -0.08566,0.252692 -0.05078,0.382812 0.03486,0.1301 0.12144,0.241134 0.238282,0.308594 l 0.878906,0.507812 c 0.244036,0.14088 0.554412,0.06044 0.695312,-0.1836 l 1.015626,-1.76172 c 0.14088,-0.244034 0.05654,-0.550506 -0.1875,-0.691406 l -0.878906,-0.511718 c -0.12202,-0.07044 -0.261348,-0.08438 -0.38672,-0.05078 z m 5.171876,0.683594 -0.984376,0.261718 c -0.12876,0.03538 -0.237762,0.12234 -0.304688,0.238282 -0.0675,0.11686 -0.08564,0.252692 -0.05078,0.382812 L 44.988282,31.625 c 0.03486,0.1301 0.12142,0.241134 0.23828,0.308594 0.11686,0.0675 0.2566,0.08564 0.38672,0.05078 l 0.980468,-0.26172 c 0.1301,-0.03486 0.241134,-0.12144 0.308594,-0.23828 0.0675,-0.11686 0.08566,-0.2566 0.05078,-0.38672 l -0.527342,-1.960938 c -0.03486,-0.1301 -0.11752,-0.241132 -0.234376,-0.308594 -0.11686,-0.0675 -0.256598,-0.08564 -0.386718,-0.05078 z M 19,30 c -3.865235,0 -7,3.134768 -7,7 0,3.865232 3.134765,7 7,7 3.86523,0 7,-3.134768 7,-7 0,-0.414062 -0.03711,-0.828126 -0.109376,-1.234376 C 25.412108,37.945312 23.482422,39.5 21.25,39.5 c -2.623047,0 -4.75,-2.126952 -4.75,-4.75 0,-2.23242 1.554685,-4.162108 3.734376,-4.640624 C 19.828121,30.037096 19.414062,30 19,30 Z"
       id="path13" /><path
       style="fill:#ffffff"
       d="M 44.000002,18.999998 C 41.804688,18.999998 40,20.804684 40,22.999996 40,25.195314 41.804688,27 44.000002,27 46.195314,27 48,25.195314 48,22.999996 48,20.804684 46.195314,18.999998 44.000002,18.999998 Z m 0,0"
       id="path14" /><path
       style="fill:#ffffff"
       d="m 47.623264,15.707688 0.879894,0.508008 c 0.244036,0.140898 0.32684,0.449917 0.18596,0.693952 l -1.016016,1.759791 c -0.1409,0.244033 -0.449918,0.326836 -0.693954,0.185944 l -0.8799,-0.508008 c -0.11684,-0.06746 -0.201782,-0.17837 -0.236644,-0.308476 -0.03486,-0.130124 -0.0168,-0.268609 0.0507,-0.385468 l 1.016026,-1.759793 c 0.1409,-0.244033 0.449916,-0.326836 0.69395,-0.185944 z m -6.604104,11.438644 0.879896,0.508008 c 0.244034,0.1409 0.326838,0.449918 0.18596,0.693952 L 41.069,30.108084 c -0.1409,0.244034 -0.449918,0.326836 -0.693954,0.18596 l -0.879904,-0.508018 c -0.11684,-0.06746 -0.201782,-0.17838 -0.236644,-0.308478 -0.03488,-0.13012 -0.0168,-0.268608 0.0507,-0.385468 l 1.016014,-1.759792 c 0.1409,-0.244032 0.449918,-0.326836 0.693952,-0.18596 z m 0.385852,-11.864339 0.981292,-0.262934 c 0.13012,-0.03485 0.26861,-0.01676 0.385468,0.0507 0.11686,0.06746 0.201782,0.178372 0.236644,0.308475 l 0.525872,1.962583 c 0.03488,0.13011 0.0168,0.268608 -0.0507,0.385469 -0.06746,0.116852 -0.17838,0.201774 -0.308474,0.236643 l -0.98129,0.262939 c -0.13012,0.03486 -0.268608,0.01676 -0.38547,-0.05071 -0.11686,-0.06746 -0.201782,-0.17837 -0.236644,-0.308477 L 41.04583,15.9041 c -0.03486,-0.130124 -0.0168,-0.268617 0.05068,-0.385478 0.06746,-0.116852 0.17838,-0.201772 0.308488,-0.236637 z m 3.41718,12.758509 0.982282,-0.264658 c 0.13012,-0.03486 0.26861,-0.0168 0.385468,0.0507 0.11686,0.06746 0.201782,0.17838 0.236646,0.308476 l 0.52759,1.963576 c 0.03488,0.13012 0.0168,0.268608 -0.0507,0.38547 -0.06746,0.11684 -0.17838,0.201782 -0.308476,0.236644 l -0.983008,0.261942 c -0.13012,0.03486 -0.26861,0.0168 -0.38547,-0.0507 -0.11686,-0.06746 -0.201782,-0.17838 -0.236646,-0.308478 l -0.525872,-1.962582 c -0.03486,-0.13012 -0.0168,-0.26861 0.0507,-0.385468 0.06746,-0.11686 0.17838,-0.201782 0.308474,-0.236644 z m -8.541906,-2.445508 -0.262936,-0.98129 c -0.03486,-0.13012 -0.0168,-0.268618 0.05068,-0.38548 0.06746,-0.11686 0.17838,-0.201782 0.30849,-0.236636 l 1.96258,-0.525872 c 0.13012,-0.03486 0.26861,-0.0168 0.385472,0.0507 0.11684,0.06746 0.201782,0.17838 0.236644,0.308474 l 0.262934,0.981292 c 0.03488,0.13012 0.0168,0.268606 -0.0507,0.38547 -0.06746,0.11686 -0.17838,0.201782 -0.308474,0.236642 l -1.962584,0.525874 c -0.13012,0.03486 -0.268606,0.0168 -0.38547,-0.0507 -0.11684,-0.06746 -0.201762,-0.17838 -0.236642,-0.308474 z m 12.758506,-3.41718 -0.264654,-0.982284 c -0.03488,-0.13012 -0.0168,-0.268608 0.0507,-0.38547 0.06746,-0.116868 0.17838,-0.201774 0.308476,-0.236644 l 1.96258,-0.525872 c 0.13012,-0.03486 0.26861,-0.01676 0.385474,0.0507 0.11684,0.06746 0.201782,0.17837 0.236644,0.308476 l 0.264656,0.982282 c 0.03486,0.13012 0.0168,0.268608 -0.0507,0.385468 -0.06748,0.11686 -0.17838,0.201774 -0.308478,0.236646 l -1.964302,0.524878 c -0.13012,0.03486 -0.268608,0.0168 -0.38547,-0.0507 -0.11684,-0.06746 -0.201762,-0.17836 -0.236642,-0.308472 z m 2.253526,4.44716 -0.50801,0.879898 c -0.1409,0.244032 -0.449916,0.326834 -0.69395,0.18594 l -1.759792,-1.016016 c -0.11684,-0.06746 -0.201762,-0.17838 -0.236644,-0.308474 -0.03486,-0.13012 -0.0168,-0.268608 0.0507,-0.38547 l 0.508008,-0.879896 c 0.1409,-0.244034 0.449914,-0.326838 0.693952,-0.18596 l 1.75979,1.016016 c 0.244036,0.1409 0.326838,0.449918 0.18596,0.693954 z M 39.853676,20.02087 39.345668,20.900765 c -0.1409,0.244035 -0.449924,0.326835 -0.693954,0.185945 l -1.759792,-1.016017 c -0.11686,-0.06746 -0.201782,-0.178372 -0.236642,-0.308476 -0.03486,-0.130138 -0.0168,-0.268618 0.0507,-0.38548 l 0.508016,-0.879895 c 0.1409,-0.244034 0.449918,-0.326836 0.693954,-0.185944 l 1.75979,1.016016 c 0.244032,0.140898 0.326838,0.449919 0.18596,0.693953 z m 0,0"
       id="path15" /><path
       style="fill:#ffffff"
       d="M 19.000001,29 C 15.134766,29 12,32.134768 12,36 c 0,3.865232 3.134766,7 7.000001,7 C 22.865232,43 26,39.865232 26,36 26,35.585938 25.9629,35.171874 25.89064,34.765626 25.412124,36.945312 23.482438,38.5 21.250016,38.5 c -2.623047,0 -4.75,-2.126952 -4.75,-4.75 0,-2.23242 1.554686,-4.162108 3.734376,-4.640624 -0.406254,-0.07228 -0.820314,-0.10936 -1.234376,-0.10936 z m 0,0"
       id="path16" /><rect
       style="opacity:0.1;fill:#ffffff"
       width="48"
       height="1"
       x="8"
       y="47"
       id="rect16" /><path
       style="opacity:0.1;fill:#ffffff"
       d="M 6.6914062,7 C 5.1998678,7 4,8.2265 4,9.75 v 1 C 4,9.2265 5.1998678,8 6.6914062,8 H 57.308594 C 58.800132,8 60,9.2265 60,10.75 v -1 C 60,8.2265 58.800132,7 57.308594,7 Z"
       id="path17" /></g></svg>
