<?xml version="1.0" encoding="UTF-8" standalone="no"?>
<svg
   id="_图层_1"
   version="1.1"
   viewBox="0 0 64 64" width="24" height="24"
   sodipodi:docname="com.github.neithern.g4music.svg"
   xml:space="preserve"
   inkscape:version="1.4 (e7c3feb100, 2024-10-09)"
   xmlns:inkscape="http://www.inkscape.org/namespaces/inkscape"
   xmlns:sodipodi="http://sodipodi.sourceforge.net/DTD/sodipodi-0.dtd"
   xmlns="http://www.w3.org/2000/svg"
   xmlns:svg="http://www.w3.org/2000/svg"><sodipodi:namedview
     id="namedview26"
     pagecolor="#505050"
     bordercolor="#eeeeee"
     borderopacity="1"
     inkscape:showpageshadow="0"
     inkscape:pageopacity="0"
     inkscape:pagecheckerboard="0"
     inkscape:deskcolor="#505050"
     inkscape:zoom="10.6875"
     inkscape:cx="32"
     inkscape:cy="26.666667"
     inkscape:window-width="1920"
     inkscape:window-height="939"
     inkscape:window-x="0"
     inkscape:window-y="34"
     inkscape:window-maximized="1"
     inkscape:current-layer="_图层_1" /><!-- Generator: Adobe Illustrator 29.0.1, SVG Export Plug-In . SVG Version: 2.1.0 Build 192)  --><defs
     id="defs6"><style
       id="style1">
      .st0 {
        fill-opacity: .5;
      }

      .st0, .st1, .st2, .st3, .st4, .st5, .st6, .st7 {
        fill: #fff;
      }

      .st8 {
        fill: #133c9a;
      }

      .st2, .st9 {
        display: none;
      }

      .st3 {
        fill-opacity: .2;
      }

      .st4 {
        fill-opacity: .9;
      }

      .st10 {
        fill: #3370ff;
      }

      .st11 {
        fill: url(#_未命名的渐变_3);
      }

      .st12 {
        fill: url(#_未命名的渐变);
      }

      .st5 {
        fill-opacity: .3;
      }

      .st6 {
        fill-opacity: 0;
      }

      .st7 {
        fill-opacity: .7;
      }

      .st13 {
        fill: #00d6b9;
      }

      .st14 {
        fill: url(#_未命名的渐变_2);
      }
    </style><radialGradient
       id="_未命名的渐变"
       data-name="未命名的渐变"
       cx="123.9"
       cy="-40.2"
       fx="123.9"
       fy="-40.2"
       r="59.4"
       gradientTransform="translate(-26.8 25.5) scale(.6 -.7)"
       gradientUnits="userSpaceOnUse"><stop
         offset="0"
         stop-color="#db202e"
         id="stop1" /><stop
         offset="1"
         stop-color="#e01b24"
         id="stop2" /></radialGradient><radialGradient
       id="_未命名的渐变_2"
       data-name="未命名的渐变 2"
       cx="67.6"
       cy="26.8"
       fx="67.6"
       fy="26.8"
       r="105.2"
       gradientTransform="translate(-26.6 25.3) scale(.6 -.7)"
       gradientUnits="userSpaceOnUse"><stop
         offset="0"
         stop-color="#ffb648"
         id="stop3" /><stop
         offset="1"
         stop-color="#ff7800"
         stop-opacity="0"
         id="stop4" /></radialGradient><radialGradient
       id="_未命名的渐变_3"
       data-name="未命名的渐变 3"
       cx="61.7"
       cy="18.6"
       fx="61.7"
       fy="18.6"
       r="68"
       gradientTransform="matrix(0.6,0,0,-0.7,-26.8,25.8)"
       gradientUnits="userSpaceOnUse"><stop
         offset="0"
         stop-color="#c64600"
         id="stop5" /><stop
         offset="1"
         stop-color="#a51d2d"
         id="stop6" /></radialGradient></defs><path
     class="st1"
     d="M47.5,64.1H13.8c-7.6,0-13.8-6.3-13.8-13.8V13.7C0,6.2,6.2,0,13.7,0h36.6c7.5,0,13.7,6.2,13.7,13.7v36.6c0,7.5-6.2,13.7-13.7,13.7h-2.9.1Z"
     id="path6"
     style="fill:#5ed698;fill-opacity:1" /><g
     id="g46"
     transform="matrix(1.1436926,0,0,1.1428132,-4.5045949,-4.4806094)"><path
       style="fill:#48ad79"
       d="M 34,8 V 9.4648438 C 44.851854,10.961018 53.038982,19.148147 54.535156,30 H 56 C 54.48854,18.533908 45.466092,9.5114622 34,8 Z m 0,6 v 1.453125 C 41.351206,16.802185 47.18695,22.458918 48.546876,30 H 50 C 48.611038,21.7157 42.069562,15.377338 34,14 Z M 8,34 C 9.51146,45.466092 18.533908,54.488538 30,56 V 54.535156 C 19.148146,53.038982 10.961018,44.851854 9.4648438,34 Z m 6,0 c 1.388962,8.2843 7.930438,14.622662 16,16 V 48.546876 C 22.648794,47.197814 16.813051,41.541082 15.453125,34 Z"
       id="path2" /><path
       style="fill:#48ad79"
       d="m 33.084628,43.950578 v 0 c 6.59786,-0.594848 11.46265,-6.408022 10.865832,-12.984116 l -0.008,-0.08712 C 43.345646,24.303302 37.513228,19.4545 30.91537,20.04941 v 0 c -6.597858,0.594846 -11.462648,6.408022 -10.86583,12.984114 l 0.008,0.08714 c 0.596814,6.576032 6.42923,11.424834 13.027088,10.829926 z"
       id="path3-3" /><path
       style="opacity:0.2"
       d="m 32.361494,29.01645 v 0 c 2.199308,0.1983 3.820916,2.13604 3.621956,4.32807 l -0.0026,0.029 c -0.1989,2.19203 -2.143082,3.80832 -4.342392,3.61002 v 0 c -2.199262,-0.1983 -3.820868,-2.136038 -3.62191,-4.328066 l 0.0026,-0.029 c 0.1989,-2.19203 2.143086,-3.808322 4.342394,-3.610022 z"
       id="path4-7" /><path
       style="fill:#ffffff"
       d="m 32.361494,28.016454 v 0 c 2.199308,0.1983 3.820916,2.13604 3.621956,4.32807 l -0.0026,0.029 c -0.1989,2.19203 -2.143082,3.80832 -4.342392,3.61002 v 0 c -2.199262,-0.1983 -3.820868,-2.136038 -3.62191,-4.328066 l 0.0026,-0.029 c 0.1989,-2.19203 2.143086,-3.808322 4.342394,-3.610022 z"
       id="path5-4" /></g></svg>
