<?xml version="1.0" encoding="UTF-8" standalone="no"?>
<svg
   id="_图层_1"
   version="1.1"
   viewBox="0 0 64 64" width="24" height="24"
   sodipodi:docname="cups.svg"
   xml:space="preserve"
   inkscape:version="1.4 (e7c3feb100, 2024-10-09)"
   xmlns:inkscape="http://www.inkscape.org/namespaces/inkscape"
   xmlns:sodipodi="http://sodipodi.sourceforge.net/DTD/sodipodi-0.dtd"
   xmlns="http://www.w3.org/2000/svg"
   xmlns:svg="http://www.w3.org/2000/svg"><sodipodi:namedview
     id="namedview26"
     pagecolor="#505050"
     bordercolor="#eeeeee"
     borderopacity="1"
     inkscape:showpageshadow="0"
     inkscape:pageopacity="0"
     inkscape:pagecheckerboard="0"
     inkscape:deskcolor="#505050"
     inkscape:zoom="8.453125"
     inkscape:cx="31.94085"
     inkscape:cy="31.822551"
     inkscape:window-width="1920"
     inkscape:window-height="939"
     inkscape:window-x="0"
     inkscape:window-y="34"
     inkscape:window-maximized="1"
     inkscape:current-layer="_图层_1" /><!-- Generator: Adobe Illustrator 29.0.1, SVG Export Plug-In . SVG Version: 2.1.0 Build 192)  --><defs
     id="defs6"><style
       id="style1">
      .st0 {
        fill-opacity: .5;
      }

      .st0, .st1, .st2, .st3, .st4, .st5, .st6, .st7 {
        fill: #fff;
      }

      .st8 {
        fill: #133c9a;
      }

      .st2, .st9 {
        display: none;
      }

      .st3 {
        fill-opacity: .2;
      }

      .st4 {
        fill-opacity: .9;
      }

      .st10 {
        fill: #3370ff;
      }

      .st11 {
        fill: url(#_未命名的渐变_3);
      }

      .st12 {
        fill: url(#_未命名的渐变);
      }

      .st5 {
        fill-opacity: .3;
      }

      .st6 {
        fill-opacity: 0;
      }

      .st7 {
        fill-opacity: .7;
      }

      .st13 {
        fill: #00d6b9;
      }

      .st14 {
        fill: url(#_未命名的渐变_2);
      }
    </style><radialGradient
       id="_未命名的渐变"
       data-name="未命名的渐变"
       cx="123.9"
       cy="-40.2"
       fx="123.9"
       fy="-40.2"
       r="59.4"
       gradientTransform="translate(-26.8 25.5) scale(.6 -.7)"
       gradientUnits="userSpaceOnUse"><stop
         offset="0"
         stop-color="#db202e"
         id="stop1" /><stop
         offset="1"
         stop-color="#e01b24"
         id="stop2" /></radialGradient><radialGradient
       id="_未命名的渐变_2"
       data-name="未命名的渐变 2"
       cx="67.6"
       cy="26.8"
       fx="67.6"
       fy="26.8"
       r="105.2"
       gradientTransform="translate(-26.6 25.3) scale(.6 -.7)"
       gradientUnits="userSpaceOnUse"><stop
         offset="0"
         stop-color="#ffb648"
         id="stop3" /><stop
         offset="1"
         stop-color="#ff7800"
         stop-opacity="0"
         id="stop4" /></radialGradient><radialGradient
       id="_未命名的渐变_3"
       data-name="未命名的渐变 3"
       cx="61.7"
       cy="18.6"
       fx="61.7"
       fy="18.6"
       r="68"
       gradientTransform="translate(-26.8 25.8) scale(.6 -.7)"
       gradientUnits="userSpaceOnUse"><stop
         offset="0"
         stop-color="#c64600"
         id="stop5" /><stop
         offset="1"
         stop-color="#a51d2d"
         id="stop6" /></radialGradient></defs><path
     class="st1"
     d="M47.5,64.1H13.8c-7.6,0-13.8-6.3-13.8-13.8V13.7C0,6.2,6.2,0,13.7,0h36.6c7.5,0,13.7,6.2,13.7,13.7v36.6c0,7.5-6.2,13.7-13.7,13.7h-2.9.1Z"
     id="path6"
     style="fill:#cccccc;opacity:0.5" /><g
     id="g11"
     transform="matrix(0.05337168,0,0,0.04947455,5.1474868,7.226263)"><path
       d="m 49.548387,255.81282 m 110.107523,0 h 704.66616 q 110.10752,0 110.10752,110.10752 v 311.09781 q 0,110.10753 -110.10752,110.10753 H 159.65591 q -110.107523,0 -110.107523,-110.10753 V 365.92034 q 0,-110.10752 110.107523,-110.10752 z"
       fill="#5eadef"
       p-id="33607"
       id="path1" /><path
       d="m 201.8271,206.61677 h 620.32378 a 44.043011,44.043011 0 0 1 44.04301,44.04301 v 5.15304 h -708.4098 v -5.15304 a 44.043011,44.043011 0 0 1 44.04301,-44.04301 z"
       fill="#4087e9"
       p-id="33608"
       id="path2" /><path
       d="m 251.01213,0 h 502.26649 a 44.043011,44.043011 0 0 1 44.04301,44.043011 V 255.81282 H 206.96912 V 44.043011 A 44.043011,44.043011 0 0 1 251.01213,0 Z"
       fill="#ddebff"
       p-id="33609"
       id="path3" /><path
       d="m 138.09686,570.66529 m 33.03226,0 h 681.70873 q 33.03226,0 33.03226,33.03226 v 22.48396 q 0,33.03225 -33.03226,33.03225 H 171.12912 q -33.03226,0 -33.03226,-33.03225 v -22.48396 q 0,-33.03226 33.03226,-33.03226 z"
       fill="#4087e9"
       p-id="33610"
       id="path4" /><path
       d="m 165.95407,365.85428 m -33.26349,0 a 33.263485,33.263485 0 1 0 66.52697,0 33.263485,33.263485 0 1 0 -66.52697,0 z"
       fill="#e7f5fd"
       p-id="33611"
       id="path5" /><path
       d="m 206.96912,570.66529 h 590.35251 v 398.72138 a 44.043011,44.043011 0 0 1 -44.04301,44.04303 H 251.01213 a 44.043011,44.043011 0 0 1 -44.04301,-44.04303 z"
       fill="#ddebff"
       p-id="33612"
       id="path6-7" /><path
       d="m 282.35974,681.81884 m 20.7883,0 h 424.05712 q 20.7883,0 20.7883,20.7883 v 0 q 0,20.7883 -20.7883,20.7883 H 303.14804 q -20.7883,0 -20.7883,-20.7883 v 0 q 0,-20.7883 20.7883,-20.7883 z"
       fill="#add1ef"
       p-id="33613"
       id="path7" /><path
       d="m 282.35974,773.28516 m 20.7883,0 h 307.65144 q 20.7883,0 20.7883,20.7883 v 0 q 0,20.7883 -20.7883,20.7883 H 303.14804 q -20.7883,0 -20.7883,-20.7883 v 0 q 0,-20.7883 20.7883,-20.7883 z"
       fill="#add1ef"
       p-id="33614"
       id="path8" /><path
       d="m 282.35974,864.75148 m 20.7883,0 H 535.9594 q 20.7883,0 20.7883,20.78831 v 0 q 0,20.7883 -20.7883,20.7883 H 303.14804 q -20.7883,0 -20.7883,-20.7883 v 0 q 0,-20.78831 20.7883,-20.78831 z"
       fill="#add1ef"
       p-id="33615"
       id="path9" /><path
       d="m 265.7335,365.85428 m -33.26348,0 a 33.263485,33.263485 0 1 0 66.52697,0 33.263485,33.263485 0 1 0 -66.52697,0 z"
       fill="#fce05d"
       p-id="33616"
       id="path10" /></g></svg>
