<?xml version="1.0" encoding="UTF-8"?>
<svg id="_图层_1" xmlns="http://www.w3.org/2000/svg" version="1.1" viewBox="0 0 64 64" width="24" height="24">
  <!-- Generator: Adobe Illustrator 29.0.1, SVG Export Plug-In . SVG Version: 2.1.0 Build 192)  -->
  <defs>
    <style>
      .st0 {
        fill: #23992b;
      }

      .st1 {
        fill: #4f4f4f;
      }

      .st2 {
        fill: #797979;
      }

      .st3 {
        fill: #ae1857;
      }

      .st4, .st5, .st6, .st7, .st8, .st9 {
        display: none;
      }

      .st4, .st10, .st11, .st12, .st13, .st7 {
        isolation: isolate;
      }

      .st4, .st11, .st13, .st7 {
        opacity: .2;
      }

      .st5, .st14 {
        fill: #ff8818;
      }

      .st15 {
        fill: #3f3f3f;
      }

      .st16, .st13, .st7 {
        fill: #fff;
      }

      .st17 {
        fill: #cdcdcd;
      }

      .st18 {
        fill: #f57e26;
      }

      .st19 {
        fill: #58adf9;
      }

      .st20 {
        fill: #8e8e8e;
      }

      .st10 {
        opacity: .1;
      }

      .st21 {
        fill: #444;
      }

      .st22 {
        fill: #eb2f63;
      }

      .st23 {
        fill: #b130ae;
      }

      .st12 {
        opacity: .5;
      }

      .st24 {
        fill: #3584e4;
      }

      .st8, .st25 {
        fill: #e4e4e4;
      }

      .st26 {
        fill: #b7b7b7;
      }

      .st9 {
        fill: #ffeb3b;
      }
    </style>
  </defs>
  <path class="st14" d="M50.4,64H13.8c-7.6,0-13.8-6.2-13.8-13.7V13.7C0,6.2,6.2,0,13.7,0h36.6c7.5,0,13.7,6.2,13.7,13.7v36.6c0,7.5-6.2,13.7-13.7,13.7h.1Z"/>
  <g class="st6">
    <path class="st4" d="M32,1.1h0c17.7,0,32,14.4,32,32.1h0c0,17.7-14.3,32.1-32,32.1h0C14.3,65.3,0,50.9,0,33.2h0C0,15.5,14.3,1.1,32,1.1Z"/>
    <path class="st9" d="M32,0h0c17.7,0,32,14.4,32,32.1h0c0,17.7-14.3,32.1-32,32.1h0C14.3,64.1,0,49.8,0,32.1h0C0,14.4,14.3,0,32,0Z"/>
    <path class="st10" d="M32,5.7c-15.1,0-27.4,12.3-27.4,27.5s12.3,27.5,27.4,27.5c7.3,0,14.3-2.9,19.5-8.2l-2.3-2.3c-4.5,4.6-10.7,7.2-17.2,7.2-13.4,0-24.2-10.9-24.2-24.2s10.8-24.2,24.2-24.2c6.4,0,12.6,2.6,17.2,7.2l2.3-2.3c-5.1-5.2-12.2-8.1-19.5-8.2ZM32,13.8c-10.7,0-19.4,8.7-19.4,19.4s8.7,19.4,19.4,19.4c5.1,0,10.1-2.1,13.7-5.7l-2.3-2.3c-3,3-7.1,4.7-11.4,4.7-8.9,0-16.1-7.2-16.1-16.2s7.2-16.2,16.1-16.2c4.3,0,8.4,1.7,11.4,4.7l2.3-2.3c-3.6-3.7-8.6-5.7-13.7-5.7ZM32,21.9c-6.2,0-11.3,5.1-11.3,11.3s5.1,11.3,11.3,11.3c3,0,5.8-1.2,7.9-3.3l-2.3-2.2c-1.5,1.5-3.5,2.3-5.6,2.3-4.5,0-8.1-3.6-8.1-8.1s3.6-8.1,8.1-8.1c2.1,0,4.1.8,5.6,2.3l2.3-2.3c-2.1-2.1-5-3.3-7.9-3.3Z"/>
    <path class="st1" d="M32,4.6c-15.1,0-27.4,12.3-27.4,27.5s12.3,27.5,27.4,27.5c7.3,0,14.3-2.9,19.5-8.2l-2.3-2.3c-4.5,4.6-10.7,7.2-17.2,7.2-13.4,0-24.2-10.9-24.2-24.2S18.6,7.8,32,7.8c6.4,0,12.6,2.6,17.2,7.2l2.3-2.3c-5.1-5.2-12.2-8.1-19.5-8.2ZM32,12.7c-10.7,0-19.4,8.7-19.4,19.4s8.7,19.4,19.4,19.4c5.1,0,10.1-2.1,13.7-5.7l-2.3-2.3c-3,3-7.1,4.7-11.4,4.7-8.9,0-16.1-7.2-16.1-16.2s7.2-16.2,16.1-16.2c4.3,0,8.4,1.7,11.4,4.7l2.3-2.3c-3.6-3.7-8.6-5.7-13.7-5.7ZM32,20.7c-6.2,0-11.3,5.1-11.3,11.3s5.1,11.3,11.3,11.3c3,0,5.8-1.2,7.9-3.3l-2.3-2.2c-1.5,1.5-3.5,2.3-5.6,2.3-4.5,0-8.1-3.6-8.1-8.1s3.6-8.1,8.1-8.1c2.1,0,4.1.8,5.6,2.3l2.3-2.3c-2.1-2.1-5-3.3-7.9-3.3Z"/>
    <path class="st7" d="M32,0C14.3,0,0,14.3,0,32.1s0,.3,0,.4C.4,15,14.5,1.1,32,1.1s31.6,13.9,32,31.3c0-.1,0-.3,0-.4C64,14.3,49.7,0,32,0Z"/>
  </g>
  <g class="st6">
    <g>
      <rect class="st20" x="5.6" y="38.8" width="52" height="2"/>
      <rect class="st20" x="5.6" y="44.8" width="52" height="2"/>
      <rect class="st20" x="5.6" y="50.8" width="52" height="2"/>
      <rect class="st20" x="5.6" y="20.8" width="52" height="2"/>
      <rect class="st20" x="5.6" y="26.8" width="52" height="2"/>
      <rect class="st20" x="5.6" y="32.8" width="52" height="2"/>
      <rect class="st20" x="5.6" y="14.8" width="52" height="2"/>
      <rect class="st20" x="5.6" y="8.8" width="52" height="2"/>
      <rect class="st20" x="21.6" y="4.8" width="2" height="52"/>
      <rect class="st20" x="15.6" y="4.8" width="2" height="52"/>
      <rect class="st20" x="9.6" y="4.8" width="2" height="52"/>
      <rect class="st20" x="39.6" y="4.8" width="2" height="52"/>
      <rect class="st20" x="33.6" y="4.8" width="2" height="52"/>
      <rect class="st20" x="27.6" y="4.8" width="2" height="52"/>
      <rect class="st20" x="45.6" y="4.8" width="2" height="52"/>
      <rect class="st20" x="51.6" y="4.8" width="2" height="52"/>
    </g>
    <rect class="st11" x="7.6" y="7.8" width="24" height="24" rx="2.5" ry="2.5"/>
    <rect class="st26" x="7.6" y="6.8" width="24" height="24" rx="2.5" ry="2.5"/>
    <path class="st13" d="M10.1,6.8c-1.4,0-2.5,1.1-2.5,2.5v1c0-1.4,1.1-2.5,2.5-2.5h43c1.4,0,2.5,1.1,2.5,2.5v-1c0-1.4-1.1-2.5-2.5-2.5H10.1Z"/>
    <path class="st12" d="M32.7,37c-2.2,1-3.3,1-4.7.9-1.7-.1-3-.6-3.6-1-.4-.2-.9-.2-1.1.2-.2.4-.2.9.2,1.1.9.6,2.6,1.1,4.4,1.2.3,0-.4,0,0,0,1.5,0,3.5-.1,5.5-1.1.4-.2.6-.7.4-1.1-.2-.4-.7-.6-1.1-.4ZM41.6,35.8c0-6.9.8-20-12.4-18.9-13.1,1.1-8.6,14.8-8.8,19.5-.2,2.4-1.6,5.4-2.7,8.5h4.1c.4-1.3.6-2.6.7-3.8.2.1.4.3.7.4.4.2.7.5,1.1.9.8.8,1.8,1.6,3.7,1.7.1,0-.7,0-.6,0,1.9,0,3.2-.8,4.2-1.5.5-.3.9-.6,1.3-.7,1.1-.4,2.1-.9,2.9-1.7.1-.1.2-.2.3-.4.4,1.5,1,3.2,1.6,5h7.9c-1.8-2.8-4.1-5.5-4-9ZM21.6,32h0c-.1-2.3.9-4.2,2.4-4.2,1.5,0,2.7,1.7,2.9,3.9h0c0,.1,0,.2,0,.4-.5.1-.9.3-1.3.5,0,0,0,0,0,0h0c-.1-1.3-.8-2.2-1.5-2.2-.7,0-1.2,1.2-1.1,2.5h0c0,.6.2,1.1.4,1.4,0,0-.7.5-.9.7-.5-.7-.9-1.7-1-2.9ZM35.4,37.6c0,1.2-1.6,2.3-3,2.8h0c-.6.2-1.1.5-1.7.9-.9.6-1.9,1.2-3.4,1.2s.8,0,.7,0c-1.3,0-1.9-.6-2.7-1.3-.4-.4-.8-.8-1.4-1.1h0c-1.2-.7-1.9-1.5-1.9-2.2,0-.4.1-.7.5-.9.7-.5,1.2-.9,1.5-1.1.4-.3.7-.5.7-.6.7-.7.8-1.7,2.5-1.7s2.2.4,3.4,1.2c.6.4,1.1.6,1.7.8.4.2,1.6.6,1.6.6.6.3,1.4.7,1.3,1.5ZM35,34.8c-.1,0-.2-.1-.4-.2-.6-.3-1.1-.4-1.5-.6.2-.4.4-1,.4-1.6h0c0-1.4-.7-2.6-1.6-2.6-.9,0-1.7,1.2-1.7,2.6h0c-.6-.1-1.1-.3-1.7-.4v-.2s0,0,0,0c0-2.6,1.5-4.8,3.6-4.8,2,0,3.7,2,3.8,4.6h0c0,1.2-.3,2.3-.8,3.1Z"/>
  </g>
  <g class="st6">
    <path class="st11" d="M32,4c-15.7,0-28.5,12.8-28.5,28.5s2.4,13.1,6.4,18c.3.4.7.8,1.1,1.1,5.4,6,13,9.4,21.1,9.4,8,0,15.6-3.4,21-9.3.4-.4.8-.8,1.2-1.3,4-4.9,6.3-11.1,6.3-17.9,0-15.7-12.8-28.5-28.5-28.5Z"/>
    <path class="st19" d="M60.5,31.5c0,6.8-2.4,13-6.3,17.9-5.2,6.5-12,2.8-21,2.8s-18.1,3.7-23.3-2.7c-4-4.9-6.4-11.1-6.4-18C3.5,15.8,16.3,3,32,3s28.5,12.8,28.5,28.5Z"/>
    <path class="st22" d="M32,13c-7.1,0-12.5,5.6-12.5,14.2v12.2c0,4.1-3.9,5.9-7.8,8.3-.7.4-1.4.8-2.1,1.2,5.4,7,13.7,11,22.5,11.1,8.8,0,17.1-4.1,22.5-11.1-.7-.4-1.4-.8-2.1-1.2-3.9-2.4-7.8-4.1-7.8-8.3v-12.2c0-8.7-5.4-14.2-12.5-14.2Z"/>
    <path class="st3" d="M30.5,35.8v24.2c.5,0,1,0,1.5,0,.5,0,1,0,1.5,0v-24.2h-3Z"/>
    <rect class="st3" x="21.5" y="21" width="21" height="21" rx="4.5" ry="4.5"/>
    <path class="st21" d="M30.5,14h3c5,0,9,5.4,9,12v3c0,3-4.5,12-10.5,12-6,0-10.5-9-10.5-12v-3c0-6.6,4-12,9-12Z"/>
    <path class="st11" d="M32,18c-3,0-5.5,2.5-5.5,5.5s2.5,5.5,5.5,5.5,5.5-2.5,5.5-5.5-2.5-5.5-5.5-5.5ZM32,20c1.9,0,3.5,1.6,3.5,3.5s-1.6,3.5-3.5,3.5-3.5-1.6-3.5-3.5,1.6-3.5,3.5-3.5Z"/>
    <path class="st16" d="M32,17c-3,0-5.5,2.5-5.5,5.5s2.5,5.5,5.5,5.5,5.5-2.5,5.5-5.5-2.5-5.5-5.5-5.5ZM32,19c1.9,0,3.5,1.6,3.5,3.5s-1.6,3.5-3.5,3.5-3.5-1.6-3.5-3.5,1.6-3.5,3.5-3.5Z"/>
    <path class="st13" d="M32,3C16.3,3,3.5,15.8,3.5,31.5s0,.4,0,.5c.2-15.5,12.9-28,28.5-28s28.2,12.5,28.5,28c0-.2,0-.4,0-.5,0-15.7-12.8-28.5-28.5-28.5Z"/>
    <path class="st10" d="M21.5,36.5v1c0,2.5,2,4.5,4.5,4.5h12c2.5,0,4.5-2,4.5-4.5v-1c0,2.5-2,4.5-4.5,4.5h-12c-2.5,0-4.5-2-4.5-4.5Z"/>
  </g>
  <g class="st6">
    <path class="st15" d="M6.4,3.2l51-.2c1.1,0,4,2.6,4,3.6l-1.2,51.6c0,1-2.7,2.9-3.7,2.9H7c-1.1,0-4.3-3.8-4.3-4.8L3.9,5.4c0-1,1.5-2.2,2.6-2.2Z"/>
    <path class="st11" d="M12.2,1.1C5.5,1.1,0,6.6,0,13.3v5.2c0,.9.7,1.6,1.6,1.6h15.9c.9,0,1.6-.7,1.6-1.6V2.7c0-.9-.7-1.6-1.6-1.6h-5.3ZM24,1.1c-.9,0-1.6.7-1.6,1.6v15.9c0,.9.7,1.6,1.6,1.6h15.9c.9,0,1.6-.7,1.6-1.6V2.7c0-.9-.7-1.6-1.6-1.6h-15.9ZM46.5,1.1c-.9,0-1.6.7-1.6,1.6v15.9c0,.9.7,1.6,1.6,1.6h15.9c.9,0,1.6-.7,1.6-1.6v-5.2c0-6.8-5.5-12.2-12.2-12.2h-5.3ZM1.6,23.5c-.9,0-1.6.7-1.6,1.6v15.9c0,.9.7,1.6,1.6,1.6h15.9c.9,0,1.6-.7,1.6-1.6v-15.9c0-.9-.7-1.6-1.6-1.6H1.6ZM24,23.5c-.9,0-1.6.7-1.6,1.6v15.9c0,.9.7,1.6,1.6,1.6h15.9c.9,0,1.6-.7,1.6-1.6v-15.9c0-.9-.7-1.6-1.6-1.6h-15.9ZM46.5,23.5c-.9,0-1.6.7-1.6,1.6v15.9c0,.9.7,1.6,1.6,1.6h15.9c.9,0,1.6-.7,1.6-1.6v-15.9c0-.9-.7-1.6-1.6-1.6h-15.9ZM1.6,45.9c-.9,0-1.6.7-1.6,1.6v1.3c0,8.9,7.3,13.9,16.2,13.9l.3-1.2c.9,0,1.1,2,1.1,1.1l1.4-15.1c0-.9-.7-1.6-1.6-1.6H1.6ZM24,45.9c-.9,0-1.6.7-1.6,1.6l.4,15.1c0,.9.2.3,1.1.3l13.9-2.3c.9,0,1.9,1.7,1.9.9l1.8-14c0-.9-.7-1.6-1.6-1.6h-15.9ZM46.5,45.9c-.9,0-1.6.7-1.6,1.6v14.8c0,.9,1.4,0,2.3,0h0c9.6,0,17.5-7.8,17.5-17.5l-.7,2.7c0-.9-.7-1.6-1.6-1.6h-15.9Z"/>
    <path class="st25" d="M14.1,0C6.3,0,0,6.3,0,14.1v3.3C0,18.3.7,19.1,1.6,19.1h15.9c.9,0,1.6-.7,1.6-1.6V1.6C19.1.7,18.4,0,17.5,0h-3.4Z"/>
    <path class="st18" d="M24,0c-.9,0-1.6.7-1.6,1.6v15.9c0,.9.7,1.6,1.6,1.6h15.9c.9,0,1.6-.7,1.6-1.6V1.6c0-.9-.7-1.6-1.6-1.6h-15.9Z"/>
    <path class="st23" d="M46.5,0c-.9,0-1.6.7-1.6,1.6v15.9c0,.9.7,1.6,1.6,1.6h15.9c.9,0,1.6-.7,1.6-1.6v-3.3c0-7.8-6.3-14.2-14.2-14.2h-3.3Z"/>
    <path class="st23" d="M1.6,22.4C.7,22.4,0,23.1,0,24v15.9c0,.9.7,1.6,1.6,1.6h15.9c.9,0,1.6-.7,1.6-1.6v-15.9c0-.9-.7-1.6-1.6-1.6H1.6Z"/>
    <path class="st25" d="M24,22.4c-.9,0-1.6.7-1.6,1.6v15.9c0,.9.7,1.6,1.6,1.6h15.9c.9,0,1.6-.7,1.6-1.6v-15.9c0-.9-.7-1.6-1.6-1.6h-15.9Z"/>
    <path class="st25" d="M46.5,22.4c-.9,0-1.6.7-1.6,1.6v15.9c0,.9.7,1.6,1.6,1.6h15.9c.9,0,1.6-.7,1.6-1.6v-15.9c0-.9-.7-1.6-1.6-1.6h-15.9Z"/>
    <path class="st0" d="M1.6,44.8C.7,44.8,0,45.5,0,46.4v3.7C0,57.7,6.2,63.9,13.8,63.9h3.7c.9,0,1.6-.7,1.6-1.6v-15.9c0-.9-.7-1.6-1.6-1.6H1.6Z"/>
    <path class="st18" d="M24,44.8c-.9,0-1.6.7-1.6,1.6v15.9c0,.9.7,1.6,1.6,1.6h15.9c.9,0,1.6-.7,1.6-1.6v-15.9c0-.9-.7-1.6-1.6-1.6h-15.9Z"/>
    <path class="st0" d="M46.5,44.8c-.9,0-1.6.7-1.6,1.6v15.9c0,.9.7,1.6,1.6,1.6h3.5c7.7,0,14-6.3,14-14v-3.5c0-.9-.7-1.6-1.6-1.6h-15.9Z"/>
    <path class="st7" d="M1.6,0C.7,0,0,.7,0,1.6v1.1c0-.9.7-1.6,1.6-1.6h15.9c.9,0,1.6.7,1.6,1.6v-1.1c0-.9-.7-1.6-1.6-1.6H1.6ZM24,0c-.9,0-1.6.7-1.6,1.6v1.1c0-.9.7-1.6,1.6-1.6h15.9c.9,0,1.6.7,1.6,1.6v-1.1c0-.9-.7-1.6-1.6-1.6h-15.9ZM46.5,0c-.9,0-1.6.7-1.6,1.6v1.1c0-.9.7-1.6,1.6-1.6h15.9c.9,0,1.6.7,1.6,1.6v-1.1c0-.9-.7-1.6-1.6-1.6h-15.9ZM1.6,22.4c-.9,0-1.6.7-1.6,1.6v1.1c0-.9.7-1.6,1.6-1.6h15.9c.9,0,1.6.7,1.6,1.6v-1.1c0-.9-.7-1.6-1.6-1.6H1.6ZM24,22.4c-.9,0-1.6.7-1.6,1.6v1.1c0-.9.7-1.6,1.6-1.6h15.9c.9,0,1.6.7,1.6,1.6v-1.1c0-.9-.7-1.6-1.6-1.6h-15.9ZM46.5,22.4c-.9,0-1.6.7-1.6,1.6v1.1c0-.9.7-1.6,1.6-1.6h15.9c.9,0,1.6.7,1.6,1.6v-1.1c0-.9-.7-1.6-1.6-1.6h-15.9ZM1.6,44.8c-.9,0-1.6.7-1.6,1.6v1.1c0-.9.7-1.6,1.6-1.6h15.9c.9,0,1.6.7,1.6,1.6v-1.1c0-.9-.7-1.6-1.6-1.6H1.6ZM24,44.8c-.9,0-1.6.7-1.6,1.6v1.1c0-.9.7-1.6,1.6-1.6h15.9c.9,0,1.6.7,1.6,1.6v-1.1c0-.9-.7-1.6-1.6-1.6h-15.9ZM46.5,44.8c-.9,0-1.6.7-1.6,1.6v1.1c0-.9.7-1.6,1.6-1.6h15.9c.9,0,1.6.7,1.6,1.6v-1.1c0-.9-.7-1.6-1.6-1.6h-15.9Z"/>
  </g>
  <g class="st6">
    <path class="st4" d="M64,28.2v31.9c0,2.8-2.2,5.1-4.9,5.1H4.9c-2.7,0-4.9-2.3-4.9-5.1v-31.9h64Z"/>
    <path class="st8" d="M64,27.1v31.9c0,2.8-2.2,5.1-4.9,5.1H4.9c-2.7,0-4.9-2.3-4.9-5.1v-31.9h64Z"/>
    <path class="st17" d="M11,0C6.7,0,.2,6.4,0,14v13.4h64v-13.7c-.2-4.8-4.3-13.3-13.1-13.7H11Z"/>
    <path class="st24" d="M48.5,37.7h-11.3c-4.1,0-7.5,3.3-7.5,7.4s3.4,7.4,7.5,7.4h11.3c4.1,0,5.8-3.3,5.8-7.4s-1.6-7.4-5.8-7.4Z"/>
    <path class="st10" d="M37.2,37.7c-4.1,0-7.5,3.3-7.5,7.4s0,.4,0,.6c.3-3.8,3.5-6.9,7.5-6.9h11.3c4,0,5.5,3,5.8,6.9,0-.2,0-.4,0-.6,0-4.1-1.6-7.4-5.8-7.4h-11.3Z"/>
    <path class="st11" d="M41.1,46.3c0,4.1,3.3,7.4,7.4,7.4s7.4-3.3,7.4-7.4-3.3-7.4-7.4-7.4-7.4,3.3-7.4,7.4Z"/>
    <path class="st16" d="M41.1,45.2c0,4.1,3.3,7.4,7.4,7.4s7.4-3.3,7.4-7.4-3.3-7.4-7.4-7.4-7.4,3.3-7.4,7.4Z"/>
    <path class="st10" d="M9.6,37.7h15c.3,0,.5.2.5.4v3.7c0,.2-.2.4-.5.4h-15c-.3,0-.5-.2-.5-.4v-3.7c0-.2.2-.4.5-.4Z"/>
    <path class="st2" d="M19.4,9.1h4.6v4.6h-4.6v-4.6Z"/>
    <path class="st10" d="M9.6,49.2h8.3c.2,0,.4.2.4.4v3.7c0,.2-.2.4-.4.4h-8.3c-.2,0-.4-.2-.4-.4v-3.7c0-.2.2-.4.4-.4Z"/>
    <path class="st2" d="M37.7,9.1h17.1v4.6h-17.1v-4.6Z"/>
    <path class="st11" d="M32.8,4.6h2.6l-5.3,16h-2.6l5.3-16Z"/>
    <path class="st24" d="M37.7,16h17.1v3.4h-17.1v-3.4Z"/>
    <path class="st11" d="M13.3,4.6h2.5l-5.3,16h-2.5L13.3,4.6Z"/>
    <rect class="st11" y="27.4" width="64" height="1.1"/>
    <path class="st7" d="M4.9,0C2.2,0,0,2.3,0,5.2v1.1C0,3.5,2.2,1.1,4.9,1.1h54.2c2.7,0,4.9,2.3,4.9,5.2v-1.1c0-2.9-2.2-5.2-4.9-5.2H4.9Z"/>
  </g>
  <g>
    <path class="st4" d="M4.9,1.2C2.2,1.2,0,3.4,0,6.1v53.1c0,2.7,2.2,5,4.9,5h22.2c2.7,0,4.9,1.2,4.9,3.5,0-2.3,2.2-3.5,4.9-3.5h20.9c3.4,0,6.2-2.9,6.2-6.2V6.1c0-2.7-2.2-4.9-4.9-4.9h-22.2c-2.7,0-4.9,2.2-4.9,4.9,0-2.7-2.2-4.9-4.9-4.9H4.9Z"/>
    <path class="st5" d="M4.9,0C2.2,0,0,2.2,0,4.9v53.1c0,2.7,2.2,5,4.9,5h22.2c2.7,0,4.9,1.2,4.9,3.5,0-2.3,2.2-3.5,4.9-3.5h20.9c3.4,0,6.2-2.9,6.2-6.2V4.9c0-2.7-2.2-4.9-4.9-4.9h-22.2c-2.7,0-4.9,2.2-4.9,4.9,0-2.7-2.2-4.9-4.9-4.9H4.9Z"/>
    <path class="st13" d="M12.1,0C7.7.2-.1,5.8,0,12.7v39.1c.2,5.3,5.7,12,13.8,12.2l7.5-.3c.9,0,10.9,0,10.9,0-.1-3.2-.1-2.8-.1-5V4.7c0-2.6-2.2-4.7-4.9-4.7h-14.9Z"/>
    <path class="st11" d="M7.1,5.8c-1.4,0-2.5,1.1-2.5,2.4v46.2c0,1.3,1.1,2.6,2.5,2.6h19.9c2.8,0,5,2,5,4.7,0-2.7,2.2-4.7,5-4.7h19.9c1.4,0,2.5-1.3,2.5-2.6V8.3c0-1.3-1.1-2.4-2.5-2.4h-19.9c-2.8,0-5,2.2-5,4.9,0-2.7-2.2-4.9-5-4.9H7.1ZM9.1,10.5h17.9c2.8,0,5,2.4,5,5.1,0-2.7,2.2-5.1,5-5.1h17.9v42h-17.9c-2.8,0-5,2-5,4.7,0-2.7-2.2-4.7-5-4.7H9.1V10.5ZM22.9,19.8v23.3h4.6v-9.3h9.1v9.3h4.6v-23.3h-4.6v9.3h-9.1v-9.3h-4.6Z"/>
    <path class="st16" d="M7.1,4.7c-1.4,0-2.5,1.1-2.5,2.4v46.2c0,1.3,1.1,2.6,2.5,2.6h19.9c2.8,0,5,2,5,4.7,0-2.7,2.2-4.7,5-4.7h19.9c1.4,0,2.5-1.3,2.5-2.6V7.1c0-1.3-1.1-2.4-2.5-2.4h-19.9c-2.8,0-5,2.2-5,4.9,0-2.7-2.2-4.9-5-4.9H7.1ZM9.1,9.3h17.9c2.8,0,5,2.4,5,5.1,0-2.7,2.2-5.1,5-5.1h17.9v42h-17.9c-2.8,0-5,2-5,4.7,0-2.7-2.2-4.7-5-4.7H9.1V9.3ZM22.9,18.7v23.3h4.6v-9.3h9.1v9.3h4.6v-23.3h-4.6v9.3h-9.1v-9.3h-4.6Z"/>
    <path class="st7" d="M4.9,0C2.2,0,0,2.2,0,4.9v1.2C0,3.4,2.2,1.2,4.9,1.2h22.2c2.7,0,4.9,2.2,4.9,4.9,0-2.7,2.2-4.9,4.9-4.9h22.2c2.7,0,4.9,2.2,4.9,4.9v-1.2c0-2.7-2.2-4.9-4.9-4.9h-22.2c-2.7,0-4.9,2.2-4.9,4.9,0-2.7-2.2-4.9-4.9-4.9H4.9Z"/>
  </g>
</svg>