<?xml version="1.0" encoding="UTF-8"?>
<svg id="_图层_1" xmlns="http://www.w3.org/2000/svg" version="1.1" viewBox="0 0 64 64" width="24" height="24">
  <!-- Generator: Adobe Illustrator 29.0.1, SVG Export Plug-In . SVG Version: 2.1.0 Build 192)  -->
  <defs>
    <style>
      .st0, .st1 {
        fill: #4f4f4f;
      }

      .st2, .st3, .st4 {
        isolation: isolate;
      }

      .st2, .st3, .st1 {
        display: none;
      }

      .st2, .st5, .st4 {
        opacity: .2;
      }

      .st3 {
        opacity: .1;
      }

      .st3, .st6 {
        fill: #fff;
      }

      .st7, .st8, .st9, .st10, .st11, .st12 {
        fill: none;
        stroke-linecap: round;
        stroke-width: 3px;
      }

      .st7, .st11, .st12 {
        stroke: #000;
      }

      .st8, .st9, .st10 {
        stroke: #f07400;
      }

      .st9, .st12 {
        stroke-linejoin: bevel;
      }

      .st10, .st11 {
        stroke-linejoin: round;
      }
    </style>
  </defs>
  <path class="st0" d="M50.4,64H13.8c-7.6,0-13.8-6.2-13.8-13.7V13.7C0,6.2,6.2,0,13.7,0h36.6c7.5,0,13.7,6.2,13.7,13.7v36.6c0,7.5-6.2,13.7-13.7,13.7h.1Z"/>
  <g>
    <path class="st2" d="M3.2,1.1h58.3c1.8,0,3.2,1.4,3.2,3.2v57.5c0,1.8-1.5,3.2-3.2,3.2H3.2C1.5,65,0,63.6,0,61.8V4.3C0,2.6,1.5,1.1,3.2,1.1Z"/>
    <path class="st1" d="M3.2,0h58.3c1.8,0,3.2,1.4,3.2,3.2v57.5c0,1.8-1.5,3.2-3.2,3.2H3.2C1.5,63.9,0,62.4,0,60.7V3.2C0,1.4,1.5,0,3.2,0Z"/>
    <path class="st4" d="M17.8,8c-.9,0-1.6.7-1.6,1.6v28.7c0,.9.7,1.6,1.6,1.6h14.6c9,0,16.2-7.1,16.2-16s-7.3-16-16.2-16h-14.6ZM26.2,17.1h6.2c3.8,0,6.9,3.1,6.9,6.8s-3.1,6.8-6.9,6.8h-6.2c-.4,0-.7-.3-.7-.7v-12.3c0-.4.3-.7.7-.7Z"/>
    <path class="st6" d="M17.8,6.8c-.9,0-1.6.7-1.6,1.6v28.7c0,.9.7,1.6,1.6,1.6h14.6c9,0,16.2-7.1,16.2-16s-7.3-16-16.2-16h-14.6ZM26.2,16h6.2c3.8,0,6.9,3.1,6.9,6.8s-3.1,6.8-6.9,6.8h-6.2c-.4,0-.7-.3-.7-.7v-12.3c0-.4.3-.7.7-.7Z"/>
    <path class="st3" d="M3.2,0C1.4,0,0,1.4,0,3.2v1.1C0,2.6,1.4,1.1,3.2,1.1h58.3c1.8,0,3.2,1.4,3.2,3.2v-1.1c0-1.8-1.4-3.2-3.2-3.2H3.2Z"/>
    <g class="st5">
      <path class="st7" d="M12.1,59.8l-3.5-5.1M5.2,53s6.9.8,6.9-3.4-6.9-3.4-6.9-3.4M5.2,59.8v-13.6"/>
      <path class="st12" d="M18,54.2h6.9M18,59.8v-10.2M24.9,59.8v-10.2M18,49.6s0-3.4,3.5-3.4,3.5,3.4,3.5,3.4"/>
      <path class="st11" d="M30.7,46.3v13.6h6.9"/>
      <path class="st11" d="M43.4,46.3v13.6h6.9"/>
      <path class="st7" d="M56.1,59.8v-6.8M61.3,46.2l-5.2,6.8M51,46.2l5.2,6.8"/>
    </g>
    <g>
      <path class="st8" d="M12.1,58.7l-3.5-5.1M5.2,51.9s6.9.8,6.9-3.4-6.9-3.4-6.9-3.4M5.2,58.7v-13.6"/>
      <path class="st9" d="M18,53h6.9M18,58.7v-10.2M24.9,58.7v-10.2M18,48.5s0-3.4,3.5-3.4,3.5,3.4,3.5,3.4"/>
      <path class="st10" d="M30.7,45.1v13.6h6.9"/>
      <path class="st10" d="M43.4,45.1v13.6h6.9"/>
      <path class="st8" d="M56.1,58.7v-6.8M61.3,45.1l-5.2,6.8M51,45.1l5.2,6.8"/>
    </g>
  </g>
</svg>