<?xml version="1.0" encoding="UTF-8"?>
<svg id="_图层_1" xmlns="http://www.w3.org/2000/svg" version="1.1" viewBox="0 0 64 64" width="24" height="24">
  <!-- Generator: Adobe Illustrator 29.0.1, SVG Export Plug-In . SVG Version: 2.1.0 Build 192)  -->
  <defs>
    <style>
      .st0, .st1, .st2, .st3, .st4 {
        display: none;
      }

      .st0, .st5, .st6, .st4 {
        isolation: isolate;
      }

      .st0, .st6, .st4 {
        opacity: .2;
      }

      .st7 {
        fill: #3f3f3f;
      }

      .st8, .st4 {
        fill: #fff;
      }

      .st1, .st9 {
        fill: #5df;
      }

      .st5 {
        opacity: .1;
      }

      .st2 {
        fill: #6eaa36;
      }
    </style>
  </defs>
  <path class="st9" d="M50.4,64H13.8c-7.6,0-13.8-6.2-13.8-13.7V13.7C0,6.2,6.2,0,13.7,0h36.6c7.5,0,13.7,6.2,13.7,13.7v36.6c0,7.5-6.2,13.7-13.7,13.7h.1Z"/>
  <g class="st3">
    <path class="st2" d="M32.1,0C14.4,0,.1,14.2.1,31.8s14.3,31.8,31.9,31.8,31.9-14.2,31.9-31.8S49.7,0,32.1,0Z"/>
    <path class="st6" d="M32.3,8.4c-9.8,0-15.4,4-19,8.5,2.8.8,4.8,1.4,5.4,1.6,0-.4,0-4.2,0-4.2h0c0-.1.1-.2.1-.2.9.1,19.2,2.8,27,7.3,1,.6,1.4,1.1,2,1.8,2.1,2.2,5,11.4,5.3,13.3v.2c-.2,0-.5.2-.9.5-1.8,1.3-6,4.2-11.4,3.7-4.9-.4-11.2-3.2-18.9-8.2.3.8,1.9,4.6,2.2,5.2h.1c1.1.7,11.7,6.1,17,6,4.3,0,8.8-2.2,10.6-3.2h.6c.2,0,.1.3,0,.5-.1.5-.4,1.5-.5,1.9v.4c-.3.5-.6,1.1-.9,1.4-1.1,1-2.8,1.7-5.5,2.9-4.1,1.8-10.9,2.9-17.1,2.9-2.2,0-4.4-.3-6.3-.5-4-.4-7.2-.8-9.1.7,4.7,5.3,11.5,8.6,19.1,8.6,14.1,0,25.5-11.4,25.5-25.4s-11.4-25.4-25.5-25.4h0ZM39,21.9c-2,0-3.8.8-5.2,2.1-1.5,1.4-2.4,3.4-2.5,5.5-.1,4.3,3.3,7.9,7.6,8.1,2.1,0,4.1-.7,5.6-2.1,1.5-1.4,2.4-3.4,2.5-5.4.1-4.3-3.3-7.9-7.6-8.1-.1,0-.3,0-.4,0h0ZM38.8,24.2c.2,0,.4,0,.5,0,3,.1,5.4,2.6,5.3,5.6,0,1.5-.7,2.8-1.7,3.8-1.1,1-2.5,1.5-3.9,1.5-3-.1-5.4-2.6-5.3-5.7,0-1.5.7-2.8,1.7-3.8.9-.9,2.1-1.4,3.4-1.5h0ZM40.2,26.9c-1.3,0-2.4.7-2.4,1.6s1.1,1.6,2.4,1.6,2.4-.7,2.4-1.6-1.1-1.6-2.4-1.6Z"/>
    <path class="st8" d="M32.3,7.3c-9.8,0-15.4,4-19,8.5,2.8.8,4.8,1.4,5.4,1.6,0-.4,0-4.2,0-4.2h0c0-.1.1-.2.1-.2.9.1,19.2,2.8,27,7.3,1,.6,1.4,1.1,2,1.8,2.1,2.2,5,11.4,5.3,13.3v.2c-.2,0-.5.2-.9.5-1.8,1.3-6,4.2-11.4,3.7-4.9-.4-11.2-3.2-18.9-8.2.3.8,1.9,4.6,2.2,5.2h.1c1.1.7,11.7,6.1,17,6,4.3,0,8.8-2.2,10.6-3.2h.6c.2,0,.1.3,0,.5-.1.5-.4,1.5-.5,1.9v.4c-.3.5-.6,1.1-.9,1.4-1.1,1-2.8,1.7-5.5,2.9-4.1,1.8-10.9,2.9-17.1,2.9-2.2,0-4.4-.3-6.3-.5-4-.4-7.2-.8-9.1.7,4.7,5.3,11.5,8.6,19.1,8.6,14.1,0,25.5-11.4,25.5-25.4S46.4,7.3,32.3,7.3h0ZM39,20.7c-2,0-3.8.8-5.2,2.1-1.5,1.4-2.4,3.4-2.5,5.5-.1,4.3,3.3,7.9,7.6,8.1,2.1,0,4.1-.7,5.6-2.1,1.5-1.4,2.4-3.4,2.5-5.4.1-4.3-3.3-7.9-7.6-8.1-.1,0-.3,0-.4,0h0ZM38.8,23c.2,0,.4,0,.5,0,3,.1,5.4,2.6,5.3,5.6,0,1.5-.7,2.8-1.7,3.8-1.1,1-2.5,1.5-3.9,1.5-3-.1-5.4-2.6-5.3-5.7,0-1.5.7-2.8,1.7-3.8.9-.9,2.1-1.4,3.4-1.5h0ZM40.2,25.8c-1.3,0-2.4.7-2.4,1.6s1.1,1.6,2.4,1.6,2.4-.7,2.4-1.6-1.1-1.6-2.4-1.6Z"/>
    <path class="st0" d="M.2,32.3c0,.2,0,.4,0,.7,0,17.6,14.3,31.8,31.9,31.8s31.9-14.2,31.9-31.8c0-.2,0-.3,0-.5-.4,17.3-14.5,31.1-31.9,31.1-17.4,0-31.6-14-31.9-31.3Z"/>
    <path class="st4" d="M32.1,0C14.4,0,.1,14.2.1,31.8c0,.2,0,.3,0,.5C.5,15,14.7,1.1,32.1,1.1c17.4,0,31.6,14,31.9,31.3,0-.2,0-.4,0-.7C64,14.2,49.7,0,32.1,0Z"/>
  </g>
  <g>
    <ellipse class="st0" cx="32" cy="33" rx="32" ry="31.8"/>
    <ellipse class="st1" cx="32" cy="31.8" rx="32" ry="31.8"/>
    <path class="st5" d="M24,9.1l-9.1,4,4.6,9.7v-5.7h4.6l8,15.9h8v27.3l4-19.3,4,11.4v-19.3l8,8-4.6-8-11.4-19.3h-8l-8-4.5Z"/>
    <path class="st4" d="M32,0C14.3,0,0,14.3,0,31.8c0,.2,0,.4,0,.7C.3,15.1,14.5,1.1,32,1.1c17.4,0,31.6,13.9,32,31.2,0-.2,0-.3,0-.5C64,14.3,49.7,0,32,0Z"/>
    <path class="st7" d="M24,8l-9.1,4,4.6,9.7v-5.7h4.6l8,15.9h8v27.3l4-19.3,4,11.4v-19.3l8,8-4.6-8-11.4-19.3h-8l-8-4.5Z"/>
  </g>
</svg>