<?xml version="1.0" encoding="UTF-8"?>
<svg id="_图层_1" xmlns="http://www.w3.org/2000/svg" version="1.1" viewBox="0 0 64 64" width="24" height="24">
  <!-- Generator: Adobe Illustrator 29.0.1, SVG Export Plug-In . SVG Version: 2.1.0 Build 192)  -->
  <defs>
    <style>
      .st0, .st1, .st2 {
        display: none;
      }

      .st0, .st3 {
        fill: #1c90ed;
      }

      .st1, .st4, .st2 {
        isolation: isolate;
        opacity: .2;
      }

      .st5, .st2 {
        fill: #fff;
      }
    </style>
  </defs>
  <path class="st3" d="M50.3,64H13.9C6.3,64,.2,57.8.2,50.3V13.8C.2,6.2,6.3,0,13.9,0h36.5c7.5,0,13.7,6.2,13.7,13.7v36.5c0,7.5-6.1,13.7-13.7,13.7h0Z"/>
  <g>
    <circle class="st1" cx="30.1" cy="31.3" r="28"/>
    <circle class="st0" cx="30.1" cy="30.3" r="28"/>
    <path class="st4" d="M31.9,16.3c-.4,0-.8.4-.8.8v2.4c0,.4.4.8.8.8h2.4c.4,0,.8-.4.8-.8v-2.4c0-.4-.4-.8-.8-.8h-2.4ZM21.9,21.3c-.4,0-.8.4-.8.8v2.4c0,.4.4.8.8.8h2.4c.4,0,.8-.4.8-.8v-2.4c0-.4-.4-.8-.8-.8h-2.4ZM26.9,21.3c-.4,0-.8.4-.8.8v2.4c0,.4.4.8.8.8h2.4c.4,0,.8-.4.8-.8v-2.4c0-.4-.4-.8-.8-.8h-2.4ZM31.9,21.3c-.4,0-.8.4-.8.8v2.4c0,.4.4.8.8.8h2.4c.4,0,.8-.4.8-.8v-2.4c0-.4-.4-.8-.8-.8h-2.4ZM45,23.6c0,0-.6.8-.8,1.3-.6,1.1-.8,2.1-.8,3.2,0,1,.2,1.3.6,2.1.1.2.2.4.2.4,0,0-.6.3-1.1.4-.4,0-1.1.2-1.6.3-.3,0-5.2,0-14.4,0-13.9,0-14,0-14.1,0-.4.2-.7.5-.8.9,0,.3,0,.9,0,2.1.3,3.2,1.3,6.7,2.8,8.7,1.3,1.6,2.7,2.6,4.9,3.3,1.5.5,3.1.7,5.5.9.4,0,2.6,0,3.1,0,4.6-.3,8.7-1.6,11.8-3.9,3.1-2.3,5.4-5.2,7.2-9.6v-.2h.5c1.9,0,3.5-.6,4.7-1.7.5-.4.7-.8,1-1.3.2-.3.4-.9.4-1s-.1-.1-.3-.3c-.6-.5-1.4-.7-2.4-.9-.7,0-2.1,0-2.7,0-.1,0-.1,0-.2-.3-.2-1.4-1.2-3.1-2.5-4-.3-.2-1-.6-1.1-.6ZM16.9,26.3c-.4,0-.8.4-.8.8v2.4c0,.4.4.8.8.8h2.4c.4,0,.8-.4.8-.8v-2.4c0-.4-.4-.8-.8-.8h-2.4ZM21.9,26.3c-.4,0-.8.4-.8.8v2.4c0,.4.4.8.8.8h2.4c.4,0,.8-.4.8-.8v-2.4c0-.4-.4-.8-.8-.8h-2.4ZM26.9,26.3c-.4,0-.8.4-.8.8v2.4c0,.4.4.8.8.8h2.4c.4,0,.8-.4.8-.8v-2.4c0-.4-.4-.8-.8-.8h-2.4ZM31.9,26.3c-.4,0-.8.4-.8.8v2.4c0,.4.4.8.8.8h2.4c.4,0,.8-.4.8-.8v-2.4c0-.4-.4-.8-.8-.8h-2.4ZM36.9,26.3c-.4,0-.8.4-.8.8v2.4c0,.4.4.8.8.8h2.4c.4,0,.8-.4.8-.8v-2.4c0-.4-.4-.8-.8-.8h-2.4Z"/>
    <path class="st5" d="M25.4,46.3c-2.3-.2-3.9-.4-5.5-.9-2.2-.7-3.6-1.7-4.9-3.3-1.6-2-2.6-5.5-2.8-8.7,0-1.1,0-1.8,0-2.1.1-.4.4-.7.8-.9.2,0,.2,0,14.1,0,9.2,0,14.1,0,14.4,0,.5,0,1.2-.2,1.6-.3.5-.1,1.1-.4,1.1-.4s0-.2-.2-.4c-.4-.8-.6-1.1-.6-2.1,0-1.1.3-2.1.8-3.2.2-.4.8-1.3.8-1.3,0,0,.7.4,1.1.6,1.3.9,2.2,2.6,2.5,4,0,.3,0,.3.2.3.6-.1,2.1-.2,2.7,0,1,.1,1.8.4,2.4.9.2.1.3.2.3.3,0,0-.2.7-.4,1-.3.5-.5.9-1,1.3-1.2,1.1-2.8,1.7-4.7,1.7h-.4s0,.2,0,.2c-1.8,4.5-4.1,7.4-7.2,9.6-3.1,2.3-7.2,3.6-11.8,3.9-.5,0-2.7,0-3.1,0h0Z"/>
    <rect class="st5" x="16.1" y="25.3" width="4" height="4" rx=".8" ry=".8"/>
    <rect class="st5" x="21.1" y="25.3" width="4" height="4" rx=".8" ry=".8"/>
    <rect class="st5" x="26.1" y="25.3" width="4" height="4" rx=".8" ry=".8"/>
    <rect class="st5" x="31.1" y="25.3" width="4" height="4" rx=".8" ry=".8"/>
    <rect class="st5" x="36.1" y="25.3" width="4" height="4" rx=".8" ry=".8"/>
    <rect class="st5" x="21.1" y="20.3" width="4" height="4" rx=".8" ry=".8"/>
    <rect class="st5" x="26.1" y="20.3" width="4" height="4" rx=".8" ry=".8"/>
    <rect class="st5" x="31.1" y="20.3" width="4" height="4" rx=".8" ry=".8"/>
    <rect class="st5" x="31.1" y="15.3" width="4" height="4" rx=".8" ry=".8"/>
    <path class="st2" d="M30.1,2.3C14.7,2.3,2.1,14.8,2.1,30.3c0,.2,0,.3,0,.5C2.5,15.6,14.9,3.3,30.1,3.3c15.2,0,27.6,12.1,28,27.3,0,0,0-.2,0-.3,0-15.5-12.5-28-28-28Z"/>
  </g>
</svg>