<?xml version="1.0" encoding="UTF-8"?>
<svg id="_图层_1" xmlns="http://www.w3.org/2000/svg" version="1.1" xmlns:xlink="http://www.w3.org/1999/xlink" viewBox="0 0 64 64" width="24" height="24">
  <!-- Generator: Adobe Illustrator 29.0.1, SVG Export Plug-In . SVG Version: 2.1.0 Build 192)  -->
  <defs>
    <style>
      .st0 {
        fill: #3f3f3f;
      }

      .st1, .st2 {
        fill: #fff;
      }

      .st3 {
        opacity: .1;
      }

      .st3, .st4, .st2 {
        isolation: isolate;
      }

      .st5 {
        fill: url(#_未命名的渐变_211);
      }

      .st6 {
        fill: #5bb237;
      }

      .st4, .st2 {
        opacity: .2;
      }

      .st7 {
        display: none;
      }

      .st8 {
        fill: #c7c7c7;
      }

      .st9 {
        fill: url(#_未命名的渐变_21);
      }
    </style>
    <linearGradient id="_未命名的渐变_21" data-name="未命名的渐变 21" x1="32" y1="0" x2="32" y2="64" gradientUnits="userSpaceOnUse">
      <stop offset="0" stop-color="#6dff6a"/>
      <stop offset="1" stop-color="#00bf07"/>
    </linearGradient>
    <linearGradient id="_未命名的渐变_211" data-name="未命名的渐变 21" x1="32" y1="0" x2="32" y2="64" xlink:href="#_未命名的渐变_21"/>
  </defs>
  <path class="st1" d="M50.3,64H13.8C6.2,64,0,57.8,0,50.3V13.8C0,6.2,6.2,0,13.8,0h36.6c7.5,0,13.7,6.2,13.7,13.7v36.5c0,7.5-6.2,13.7-13.7,13.7h0Z"/>
  <g class="st7">
    <path class="st9" d="M4.1,59.9c-.7-1,0,1.3-2.6-3.3-.6-1.5-1.5-4.7-1.4-6.3V13.5c0-2.9,2.1-8.3,4.5-9.8C6.7,1.7,10.9,0,13.8,0h36.6c2.9,0,7.6,1.5,9.2,3.7,2.4,2.1,4.4,6.1,4.4,9.8v36.8c0,1.6-.9,5.2-1.6,6.5-.6,1.4-1.3,2-2.4,3.1-2,2.3-6.8,4.1-9.7,4.1H13.8c-2.9,0-6.5-1.1-8.5-3.2l-1.2-.9ZM32,26.6c3.3,0,6.4-1.3,8.7-3.6,2.3-2.3,3.6-5.5,3.6-8.8,0-1.3-1.1-2.4-2.4-2.4-1.3,0-2.4,1.1-2.4,2.4,0,2-.8,3.9-2.2,5.4-1.4,1.4-3.3,2.2-5.4,2.2-2,0-3.9-.8-5.4-2.2-1.4-1.4-2.2-3.4-2.2-5.4,0-1.3-1.1-2.4-2.5-2.3-1.3,0-2.3,1.1-2.3,2.3,0,6.9,5.6,12.4,12.4,12.4ZM24,43.7c0,2,1.7,3.7,3.7,3.7h3.7v-3.7c0-2-1.7-3.7-3.7-3.7h0c-2,0-3.7,1.7-3.7,3.7ZM36.3,40c-2,0-3.7,1.6-3.7,3.7h0v3.7h3.7c2,0,3.7-1.7,3.7-3.7s-1.7-3.7-3.7-3.7ZM27.7,56c2,0,3.7-1.6,3.7-3.7v-3.7h-3.7c-2,0-3.7,1.6-3.7,3.7s1.7,3.7,3.7,3.7ZM40,52.3c0-2-1.7-3.7-3.7-3.7h-3.7v3.7h0c0,2,1.7,3.7,3.7,3.7s3.7-1.7,3.7-3.7Z"/>
  </g>
  <g class="st7">
    <path class="st5" d="M35.1,51.2c-.4-.4-.9-.6-1.4-.5-.5,0-1,.2-1.4.6-.4.4-.5,1-.5,1.5,0,1,.8,1.9,1.8,1.9,0,0,0,0,.1,0,.5,0,1-.2,1.4-.6.4-.4.5-.9.5-1.4,0-.5-.2-1-.6-1.4ZM35.1,51.2c-.4-.4-.9-.6-1.4-.5-.5,0-1,.2-1.4.6-.4.4-.5,1-.5,1.5,0,1,.8,1.9,1.8,1.9,0,0,0,0,.1,0,.5,0,1-.2,1.4-.6.4-.4.5-.9.5-1.4,0-.5-.2-1-.6-1.4ZM35.1,51.2c-.4-.4-.9-.6-1.4-.5-.5,0-1,.2-1.4.6-.4.4-.5,1-.5,1.5,0,1,.8,1.9,1.8,1.9,0,0,0,0,.1,0,.5,0,1-.2,1.4-.6.4-.4.5-.9.5-1.4,0-.5-.2-1-.6-1.4ZM41.3,51.3c-.3-.3-.8-.5-1.2-.5-.5,0-1,.2-1.5.5v2.8c.4.3.9.4,1.4.4.5,0,1-.2,1.3-.5.3-.4.5-.8.5-1.3,0-.5-.1-1.1-.5-1.5h0ZM41.3,51.3c-.3-.3-.8-.5-1.2-.5-.5,0-1,.2-1.5.5v2.8c.4.3.9.4,1.4.4.5,0,1-.2,1.3-.5.3-.4.5-.8.5-1.3,0-.5-.1-1.1-.5-1.5h0ZM35.1,51.2c-.4-.4-.9-.6-1.4-.5-.5,0-1,.2-1.4.6-.4.4-.5,1-.5,1.5,0,1,.8,1.9,1.8,1.9,0,0,0,0,.1,0,.5,0,1-.2,1.4-.6.4-.4.5-.9.5-1.4,0-.5-.2-1-.6-1.4ZM35.1,51.2c-.4-.4-.9-.6-1.4-.5-.5,0-1,.2-1.4.6-.4.4-.5,1-.5,1.5,0,1,.8,1.9,1.8,1.9,0,0,0,0,.1,0,.5,0,1-.2,1.4-.6.4-.4.5-.9.5-1.4,0-.5-.2-1-.6-1.4ZM41.3,51.3c-.3-.3-.8-.5-1.2-.5-.5,0-1,.2-1.5.5v2.8c.4.3.9.4,1.4.4.5,0,1-.2,1.3-.5.3-.4.5-.8.5-1.3,0-.5-.1-1.1-.5-1.5h0ZM41.3,51.3c-.3-.3-.8-.5-1.2-.5-.5,0-1,.2-1.5.5v2.8c.4.3.9.4,1.4.4.5,0,1-.2,1.3-.5.3-.4.5-.8.5-1.3,0-.5-.1-1.1-.5-1.5h0ZM35.1,51.2c-.4-.4-.9-.6-1.4-.5-.5,0-1,.2-1.4.6-.4.4-.5,1-.5,1.5,0,1,.8,1.9,1.8,1.9,0,0,0,0,.1,0,.5,0,1-.2,1.4-.6.4-.4.5-.9.5-1.4,0-.5-.2-1-.6-1.4ZM35.1,51.2c-.4-.4-.9-.6-1.4-.5-.5,0-1,.2-1.4.6-.4.4-.5,1-.5,1.5,0,1,.8,1.9,1.8,1.9,0,0,0,0,.1,0,.5,0,1-.2,1.4-.6.4-.4.5-.9.5-1.4,0-.5-.2-1-.6-1.4ZM41.3,51.3c-.3-.3-.8-.5-1.2-.5-.5,0-1,.2-1.5.5v2.8c.4.3.9.4,1.4.4.5,0,1-.2,1.3-.5.3-.4.5-.8.5-1.3,0-.5-.1-1.1-.5-1.5h0ZM41.3,51.3c-.3-.3-.8-.5-1.2-.5-.5,0-1,.2-1.5.5v2.8c.4.3.9.4,1.4.4.5,0,1-.2,1.3-.5.3-.4.5-.8.5-1.3,0-.5-.1-1.1-.5-1.5h0ZM35.1,51.2c-.4-.4-.9-.6-1.4-.5-.5,0-1,.2-1.4.6-.4.4-.5,1-.5,1.5,0,1,.8,1.9,1.8,1.9,0,0,0,0,.1,0,.5,0,1-.2,1.4-.6.4-.4.5-.9.5-1.4,0-.5-.2-1-.6-1.4ZM35.1,51.2c-.4-.4-.9-.6-1.4-.5-.5,0-1,.2-1.4.6-.4.4-.5,1-.5,1.5,0,1,.8,1.9,1.8,1.9,0,0,0,0,.1,0,.5,0,1-.2,1.4-.6.4-.4.5-.9.5-1.4,0-.5-.2-1-.6-1.4ZM41.3,51.3c-.3-.3-.8-.5-1.2-.5-.5,0-1,.2-1.5.5v2.8c.4.3.9.4,1.4.4.5,0,1-.2,1.3-.5.3-.4.5-.8.5-1.3,0-.5-.1-1.1-.5-1.5h0ZM41.3,51.3c-.3-.3-.8-.5-1.2-.5-.5,0-1,.2-1.5.5v2.8c.4.3.9.4,1.4.4.5,0,1-.2,1.3-.5.3-.4.5-.8.5-1.3,0-.5-.1-1.1-.5-1.5h0ZM35.1,51.2c-.4-.4-.9-.6-1.4-.5-.5,0-1,.2-1.4.6-.4.4-.5,1-.5,1.5,0,1,.8,1.9,1.8,1.9,0,0,0,0,.1,0,.5,0,1-.2,1.4-.6.4-.4.5-.9.5-1.4,0-.5-.2-1-.6-1.4ZM50.7,0h-5.3v22.4c0,.5-.3,1-.7,1.2-.4.2-.9.2-1.4,0l-2.9-1.9-3.3,1.9c-.4.2-.9.2-1.3,0l-3.4-2-3.5,2c-.2.1-.4.2-.7.2-.2,0-.5,0-.7-.2l-3.4-2-3.7,2c-.7.3-1.5,0-1.8-.6-.1-.2-.2-.4-.2-.6V0h-5.3C6,0,0,6,0,13.3v37.3c0,7.4,6,13.3,13.3,13.3h37.3c7.4,0,13.3-6,13.3-13.3V13.3c0-7.4-6-13.3-13.3-13.3ZM12,31.6h15c.7,0,1.3.6,1.3,1.3,0,.7-.6,1.3-1.3,1.3h-15c-.7,0-1.3-.6-1.3-1.3,0-.7.6-1.3,1.3-1.3ZM12,40.7c-.7,0-1.3-.6-1.3-1.3,0-.7.6-1.3,1.3-1.3h10.5c.7,0,1.3.6,1.3,1.3,0,.7-.6,1.3-1.3,1.3h-10.5ZM22.7,51.8c.2.2.3.4.5.5.3.2.5.5.7.8.1.2.2.4.2.6,0,.4-.2.9-.6,1.1-.3.3-.8.5-1.2.5-.2,0-.3,0-.5-.1-.1,0-.2-.2-.2-.3,0-.2,0-.4.2-.5.2.1.5.2.7.2.2,0,.4,0,.6-.2.2-.1.2-.3.2-.5,0-.2,0-.3-.1-.4-.1-.2-.3-.3-.5-.5-.7-.5-1-1-1-1.4,0-.5.2-.9.6-1.2.4-.4,1-.6,1.5-.5.1,0,.3,0,.4.1,0,0,.1.1.1.2,0,.2,0,.4-.2.5-.2,0-.3-.1-.5-.1-.3,0-.5,0-.7.2-.2.1-.3.3-.3.5,0,.2,0,.3.1.4h0ZM29.1,55.2c-.1,0-.3,0-.3-.1,0-.2,0-.3,0-.5v-2c0-.5,0-1.1-.3-1.6-.2-.3-.5-.5-.9-.5-.5,0-1,.2-1.4.5v1.9c0,.4,0,.8,0,1.2,0,.3.1.5.2.7-.2.1-.5.2-.8.2-.1,0-.3,0-.3-.1,0-.2-.1-.4,0-.5,0-.3,0-.9,0-1.7s0-1.7,0-2.6c0-.6,0-1.1,0-1.7,0-.3,0-.5-.2-.7.2-.1.5-.2.7-.2.2,0,.3,0,.3.2,0,.2,0,.4,0,.5v.7c0,.3,0,.8,0,1.5.5-.4,1-.6,1.6-.6.3,0,.6,0,.9.1.2.1.5.3.6.5.1.2.3.4.3.7,0,.3,0,.6,0,.9v1.4c0,.5,0,1.1.2,1.5-.2.1-.5.2-.8.3h0ZM35.6,54.5c-.5.6-1.3.9-2,.8-.7,0-1.5-.2-2-.8-.5-.5-.8-1.2-.8-1.9,0-.8.3-1.5.8-2,.6-.5,1.3-.8,2.1-.8.7,0,1.4.2,1.9.7.5.5.8,1.2.8,1.9,0,.8-.3,1.5-.8,2.1h0ZM41.9,54.4c-.5.5-1.2.8-1.9.8-.5,0-1-.1-1.4-.4v.6c0,.6,0,1.3.3,1.9-.2.1-.5.2-.7.2,0,0-.2,0-.3,0,0,0,0-.1-.1-.2,0-.1,0-.3,0-.4v-4.5c0-.8,0-1.6-.3-2.3.2,0,.3,0,.5,0,.3,0,.5.2.6.6.5-.4,1.2-.6,1.8-.6.7,0,1.3.3,1.8.7.5.5.7,1.1.7,1.8,0,.7-.3,1.4-.8,2h0ZM40,50.6c-.5,0-1,.2-1.5.5v2.8c.4.3.9.4,1.4.4.5,0,1-.2,1.3-.5.3-.4.5-.8.5-1.3,0-.5-.1-1-.5-1.4-.3-.3-.8-.5-1.3-.5h0ZM33.7,50.6c-.5,0-1,.2-1.4.6-.4.4-.5,1-.5,1.5,0,1,.7,1.9,1.7,1.9,0,0,.1,0,.2,0,.5,0,1-.2,1.4-.6.4-.4.5-.9.5-1.4,0-.5-.2-1-.6-1.4-.3-.4-.8-.6-1.4-.6ZM35.1,51.1c-.4-.4-.9-.6-1.4-.5-.5,0-1,.2-1.4.6-.4.4-.5,1-.5,1.5,0,1,.7,1.9,1.7,1.9,0,0,.1,0,.2,0,.5,0,1-.2,1.4-.6.4-.4.5-.9.5-1.4,0-.5-.2-1-.6-1.4h0ZM41.3,51.2c-.3-.3-.8-.5-1.2-.5-.5,0-1,.2-1.5.5v2.8c.4.3.9.4,1.4.4.5,0,1-.2,1.3-.5.3-.4.5-.8.5-1.3,0-.5-.2-1-.5-1.4h0ZM41.3,51.2c-.3-.3-.8-.5-1.2-.5-.5,0-1,.2-1.5.5v2.8c.4.3.9.4,1.4.4.5,0,1-.2,1.3-.5.3-.4.5-.8.5-1.3,0-.5-.2-1-.5-1.4h0ZM35.1,51.1c-.4-.4-.9-.6-1.4-.5-.5,0-1,.2-1.4.6-.4.4-.5,1-.5,1.5,0,1,.7,1.9,1.7,1.9,0,0,.1,0,.2,0,.5,0,1-.2,1.4-.6.4-.4.5-.9.5-1.4,0-.5-.2-1-.6-1.4h0ZM35.1,51.1c-.4-.4-.9-.6-1.4-.5-.5,0-1,.2-1.4.6-.4.4-.5,1-.5,1.5,0,1,.7,1.9,1.7,1.9,0,0,.1,0,.2,0,.5,0,1-.2,1.4-.6.4-.4.5-.9.5-1.4,0-.5-.2-1-.6-1.4h0ZM41.3,51.2c-.3-.3-.8-.5-1.2-.5-.5,0-1,.2-1.5.5v2.8c.4.3.9.4,1.4.4.5,0,1-.2,1.3-.5.3-.4.5-.8.5-1.3,0-.5-.2-1-.5-1.4h0ZM41.3,51.2c-.3-.3-.8-.5-1.2-.5-.5,0-1,.2-1.5.5v2.8c.4.3.9.4,1.4.4.5,0,1-.2,1.3-.5.3-.4.5-.8.5-1.3,0-.5-.2-1-.5-1.4h0ZM35.1,51.1c-.4-.4-.9-.6-1.4-.5-.5,0-1,.2-1.4.6-.4.4-.5,1-.5,1.5,0,1,.7,1.9,1.7,1.9,0,0,.1,0,.2,0,.5,0,1-.2,1.4-.6.4-.4.5-.9.5-1.4,0-.5-.2-1-.6-1.4h0ZM35.1,51.1c-.4-.4-.9-.6-1.4-.5-.5,0-1,.2-1.4.6-.4.4-.5,1-.5,1.5,0,1,.7,1.9,1.7,1.9,0,0,.1,0,.2,0,.5,0,1-.2,1.4-.6.4-.4.5-.9.5-1.4,0-.5-.2-1-.6-1.4h0ZM41.3,51.2c-.3-.3-.8-.5-1.2-.5-.5,0-1,.2-1.5.5v2.8c.4.3.9.4,1.4.4.5,0,1-.2,1.3-.5.3-.4.5-.8.5-1.3,0-.5-.2-1-.5-1.4h0ZM41.3,51.2c-.3-.3-.8-.5-1.2-.5-.5,0-1,.2-1.5.5v2.8c.4.3.9.4,1.4.4.5,0,1-.2,1.3-.5.3-.4.5-.8.5-1.3,0-.5-.2-1-.5-1.4h0ZM35.1,51.1c-.4-.4-.9-.6-1.4-.5-.5,0-1,.2-1.4.6-.4.4-.5,1-.5,1.5,0,1,.7,1.9,1.7,1.9,0,0,.1,0,.2,0,.5,0,1-.2,1.4-.6.4-.4.5-.9.5-1.4,0-.5-.2-1-.6-1.4h0ZM35.1,51.1c-.4-.4-.9-.6-1.4-.5-.5,0-1,.2-1.4.6-.4.4-.5,1-.5,1.5,0,1,.7,1.9,1.7,1.9,0,0,.1,0,.2,0,.5,0,1-.2,1.4-.6.4-.4.5-.9.5-1.4,0-.5-.2-1-.6-1.4h0ZM41.3,51.2c-.3-.3-.8-.5-1.2-.5-.5,0-1,.2-1.5.5v2.8c.4.3.9.4,1.4.4.5,0,1-.2,1.3-.5.3-.4.5-.8.5-1.3,0-.5-.2-1-.5-1.4h0ZM41.3,51.2c-.3-.3-.8-.5-1.2-.5-.5,0-1,.2-1.5.5v2.8c.4.3.9.4,1.4.4.5,0,1-.2,1.3-.5.3-.4.5-.8.5-1.3,0-.5-.2-1-.5-1.4h0ZM35.1,51.1c-.4-.4-.9-.6-1.4-.5-.5,0-1,.2-1.4.6-.4.4-.5,1-.5,1.5,0,1,.7,1.9,1.7,1.9,0,0,.1,0,.2,0,.5,0,1-.2,1.4-.6.4-.4.5-.9.5-1.4,0-.5-.2-1-.6-1.4h0ZM21.2,0v20.2l2.5-1.2c.4-.2.9-.2,1.2,0l3.3,1.9,3.5-2c.4-.2.9-.2,1.3,0l3.4,1.9,3.3-1.9c.4-.3,1-.3,1.4,0l1.5,1V0h-21.5Z"/>
  </g>
  <g>
    <path class="st4" d="M24,7.2c-1.3,0-2.7.5-3.6,1.4l-2.7,2.8c-1.1,1.1-2.9,3-4.1,4.2l-2.7,2.8c-1.1,1.1-1.6,3.3-1.2,4.9l2.5,8.1c.5,1.5,1.8,3.7,2.9,4.8l19.9,19.9c1.1,1.1,3,1.1,4.1,0l7.4-7.5c1.1-1.1,2.9-3,4.1-4.2l7.4-7.5c1.1-1.1,1.1-3,0-4.1l-19.9-19.9c-1.1-1.1-3.3-2.4-4.8-2.9l-8-2.5c-.4-.1-.8-.2-1.2-.2ZM21.9,15.9c2,0,3.7,1.7,3.7,3.7,0,2.1-1.7,3.7-3.7,3.7s-3.7-1.7-3.7-3.7,1.7-3.7,3.7-3.7Z"/>
    <path class="st6" d="M24,6.3c-1.3,0-2.7.5-3.6,1.4l-2.7,2.8c-1.1,1.1-2.9,3-4.1,4.2l-2.7,2.8c-1.1,1.1-1.6,3.3-1.2,4.9l2.5,8.1c.5,1.5,1.8,3.7,2.9,4.8l19.9,19.9c1.1,1.1,3,1.1,4.1,0l7.4-7.5c1.1-1.1,2.9-3,4.1-4.2l7.4-7.5c1.1-1.1,1.1-3,0-4.1l-19.9-19.9c-1.1-1.1-3.3-2.4-4.8-2.9l-8-2.5c-.4-.1-.8-.2-1.2-.2ZM21.9,15c2,0,3.7,1.7,3.7,3.7,0,2.1-1.7,3.7-3.7,3.7s-3.7-1.7-3.7-3.7,1.7-3.7,3.7-3.7Z"/>
    <path class="st4" d="M40.2,14.9c-4.8,1.3-9.6,2.6-14.3,4.1-.5.2-1,.4-1.4.6,0,1.5-1.2,2.7-2.6,2.7s-.1,0-.2,0c-.6,1.1-.8,2.6-.6,4.3.5,5,1.2,9.9,1.9,14.9.1.9.3,1.9.4,2.8l8.5,8.5c4.9-1.4,9.9-2.8,14.8-4.2,1.1-1.1,2.9-3,4.1-4.2h0c0-1.5-.2-3-.3-4.5-.7.2-1.3.4-1.8.5-4.6,1.3-9.2,2.6-13.8,4-1.3.4-1.8,0-1.9-1.3-.1-1.3-.3-2.5-.4-4,.7-.2,1.3-.4,1.9-.5,3.5-1.1,7.1-2,10.6-3.2,3.2-1.1,4.6-3,4.4-6.4-.1-1.8-.3-3.6-.5-5.4l-8.4-8.5ZM38.4,22.7c.4,0,.7.3.8.9.2,1.8.5,3.5.6,5.3,0,.5-.4,1.3-.8,1.4-2.5.8-5,1.5-7.6,2.2-.3-2.3-.6-4.4-.8-6.5,0-.5.5-1.3,1-1.4,2.1-.7,4.2-1.2,6.3-1.9.2,0,.4,0,.5,0Z"/>
    <path class="st1" d="M40.2,14c-4.8,1.3-9.6,2.6-14.3,4.1-.5.2-1,.4-1.4.6,0,1.5-1.2,2.7-2.6,2.7s-.1,0-.2,0c-.6,1.1-.8,2.6-.6,4.3.5,5,1.2,9.9,1.9,14.9.1.9.3,1.9.4,2.8l8.5,8.5c4.9-1.4,9.9-2.8,14.8-4.2,1.1-1.1,2.9-3,4.1-4.2h0c0-1.5-.2-3-.3-4.5-.7.2-1.3.4-1.8.5-4.6,1.3-9.2,2.6-13.8,4-1.3.4-1.8,0-1.9-1.3-.1-1.3-.3-2.5-.4-4,.7-.2,1.3-.4,1.9-.5,3.5-1.1,7.1-2,10.6-3.2,3.2-1.1,4.6-3,4.4-6.4-.1-1.8-.3-3.6-.5-5.4l-8.4-8.5ZM38.4,21.8c.4,0,.7.3.8.9.2,1.8.5,3.5.6,5.3,0,.5-.4,1.3-.8,1.4-2.5.8-5,1.5-7.6,2.2-.3-2.3-.6-4.4-.8-6.5,0-.5.5-1.3,1-1.4,2.1-.7,4.2-1.2,6.3-1.9.2,0,.4,0,.5,0Z"/>
    <path class="st3" d="M21.9,14.3c-2.9,0-5.3,2.4-5.3,5.3s2.4,5.3,5.3,5.3,5.3-2.4,5.3-5.3c0-2.9-2.4-5.3-5.3-5.3ZM21.9,16.9c1.5,0,2.6,1.2,2.6,2.7s-1.2,2.7-2.6,2.7-2.6-1.2-2.6-2.7,1.2-2.7,2.6-2.7Z"/>
    <path class="st8" d="M21.9,13.4c-2.9,0-5.3,2.4-5.3,5.3s2.4,5.3,5.3,5.3,5.3-2.4,5.3-5.3c0-2.9-2.4-5.3-5.3-5.3ZM21.9,16c1.5,0,2.6,1.2,2.6,2.7s-1.2,2.7-2.6,2.7-2.6-1.2-2.6-2.7,1.2-2.7,2.6-2.7Z"/>
    <path class="st3" d="M21,41.9c-.2,2.1-1.2,5.6-3.2,7.5-.9.9-2.1,1.3-3.4,1.3s-.6,0-.9,0c-1.8-.2-3.1-1.6-3.6-3.9-1.6-7,3.7-21.9,11.4-27.2.2-.2.6-.1.8.1.2.3.1.6-.1.8-7.7,5.3-12.4,20.1-11,26.1.4,1.9,1.3,2.9,2.7,3.1,1.4.2,2.5-.1,3.4-1,2.1-1.9,2.8-6,2.9-7.7"/>
    <path class="st0" d="M21,41c-.2,2.1-1.2,5.6-3.2,7.5-.9.9-2.1,1.3-3.4,1.3s-.6,0-.9,0c-1.8-.2-3.1-1.6-3.6-3.9-1.6-7,3.7-21.9,11.4-27.2.2-.2.6-.1.8.1.2.3.1.6-.1.8-7.7,5.3-12.4,20.1-11,26.1.4,1.9,1.3,2.9,2.7,3.1,1.4.2,2.5-.1,3.4-1,2.1-1.9,2.8-6,2.9-7.7"/>
    <path class="st2" d="M24,6.3c-1.3,0-2.7.5-3.6,1.4l-2.7,2.8c-1.1,1.1-2.9,3-4.1,4.2l-2.7,2.8c-.9,1-1.4,2.6-1.3,4,0-1.2.6-2.4,1.3-3.2l2.7-2.8c1.1-1.1,2.9-3,4.1-4.2l2.7-2.8c.8-.9,2.3-1.4,3.6-1.4.4,0,.9,0,1.2.2l8,2.5c1.5.5,3.7,1.8,4.8,2.9l19.9,19.9c.5.5.7,1,.8,1.6.1-.9-.1-1.8-.8-2.5l-19.9-19.9c-1.1-1.1-3.3-2.4-4.8-2.9l-8-2.5c-.4-.1-.8-.2-1.2-.2Z"/>
  </g>
</svg>