<?xml version="1.0" encoding="UTF-8"?>
<svg id="_图层_1" xmlns="http://www.w3.org/2000/svg" version="1.1" viewBox="0 0 64 64" width="24" height="24">
  <!-- Generator: Adobe Illustrator 29.0.1, SVG Export Plug-In . SVG Version: 2.1.0 Build 192)  -->
  <defs>
    <style>
      .st0 {
        fill: #00ff73;
      }

      .st1, .st2, .st3, .st4, .st5, .st6, .st7, .st8 {
        display: none;
      }

      .st1, .st9 {
        fill: #009eff;
      }

      .st2, .st3, .st10, .st11, .st12, .st13, .st7 {
        isolation: isolate;
      }

      .st2, .st12, .st13, .st7 {
        opacity: .2;
      }

      .st3 {
        opacity: .1;
      }

      .st3, .st14, .st13, .st7 {
        fill: #fff;
      }

      .st4 {
        fill: #ca1e1e;
      }

      .st15 {
        fill: #00dbfe;
      }

      .st16 {
        fill: #3f3f3f;
      }

      .st17 {
        fill: #ffb0b0;
      }

      .st18 {
        fill: #ffcd40;
      }

      .st19 {
        fill: #00ff03;
      }

      .st20 {
        fill: #8e8e8e;
      }

      .st21 {
        fill: #00b8fe;
      }

      .st22, .st5 {
        fill: #ffa023;
      }

      .st23 {
        fill: #00feb8;
      }

      .st24 {
        fill: #e98300;
      }

      .st10 {
        opacity: .5;
        stroke: #000;
        stroke-linecap: round;
        stroke-width: 3px;
      }

      .st10, .st25 {
        fill: none;
      }

      .st26 {
        fill: #00ff8a;
      }

      .st11 {
        opacity: .3;
      }

      .st27 {
        fill: #e9a400;
      }

      .st8 {
        fill: #4f4f4f;
      }

      .st28 {
        fill: #00fef2;
      }

      .st25 {
        stroke: #b8b8b8;
        stroke-width: 4.5px;
      }

      .st29 {
        fill: #f5c700;
      }

      .st30 {
        fill: #76ff03;
      }

      .st31 {
        fill: #ff0;
      }
    </style>
  </defs>
  <path class="st9" d="M50.3,64H13.8c-7.6,0-13.8-6.2-13.8-13.7V13.7C0,6.2,6.2,0,13.7,0h36.5c7.5,0,13.7,6.2,13.7,13.7v36.6c0,7.5-6.2,13.7-13.7,13.7h0Z"/>
  <g class="st6">
    <path class="st2" d="M3.2,1.1h57.6c1.8,0,3.2,1.4,3.2,3.2v57.7c0,1.8-1.4,3.2-3.2,3.2H3.2c-1.8,0-3.2-1.4-3.2-3.2V4.3C0,2.6,1.4,1.1,3.2,1.1Z"/>
    <path class="st4" d="M3.2,0h57.6c1.8,0,3.2,1.4,3.2,3.2v57.7c0,1.8-1.4,3.2-3.2,3.2H3.2c-1.8,0-3.2-1.4-3.2-3.2V3.2C0,1.4,1.4,0,3.2,0Z"/>
    <path class="st12" d="M12.9,7.9c-3.4,0-6.2,2.8-6.2,6.2s2.8,6.2,6.2,6.2,6.2-2.8,6.2-6.2-2.8-6.2-6.2-6.2h0ZM51.1,7.9c-3.4,0-6.2,2.8-6.2,6.2s2.8,6.2,6.2,6.2,6.2-2.8,6.2-6.2-2.8-6.2-6.2-6.2ZM32,27c-3.4,0-6.2,2.8-6.2,6.2s2.8,6.2,6.2,6.2,6.2-2.8,6.2-6.2-2.8-6.2-6.2-6.2ZM12.9,46.1c-3.4,0-6.2,2.8-6.2,6.2s2.8,6.2,6.2,6.2,6.2-2.8,6.2-6.2-2.8-6.2-6.2-6.2ZM51.1,46.1c-3.4,0-6.2,2.8-6.2,6.2s2.8,6.2,6.2,6.2,6.2-2.8,6.2-6.2-2.8-6.2-6.2-6.2Z"/>
    <ellipse class="st17" cx="12.9" cy="12.9" rx="6.2" ry="6.2"/>
    <ellipse class="st17" cx="32" cy="32.1" rx="6.2" ry="6.2"/>
    <ellipse class="st17" cx="51.1" cy="12.9" rx="6.2" ry="6.2"/>
    <ellipse class="st17" cx="12.9" cy="51.2" rx="6.2" ry="6.2"/>
    <ellipse class="st17" cx="51.1" cy="51.2" rx="6.2" ry="6.2"/>
    <path class="st7" d="M3.2,0C1.4,0,0,1.4,0,3.2v1.1C0,2.6,1.4,1.1,3.2,1.1h57.6c1.8,0,3.2,1.4,3.2,3.2v-1.1c0-1.8-1.4-3.2-3.2-3.2H3.2Z"/>
    <path class="st13" d="M12.9,6.8c-3.4,0-6.2,2.8-6.2,6.2,0,.2,0,.4,0,.6.3-3.2,2.9-5.6,6.1-5.6,3.2,0,5.8,2.4,6.1,5.6,0-.2,0-.4,0-.5,0-3.4-2.8-6.2-6.2-6.2ZM51.1,6.8c-3.4,0-6.2,2.8-6.2,6.2,0,.2,0,.4,0,.6.3-3.2,2.9-5.6,6.1-5.6,3.2,0,5.8,2.4,6.1,5.6,0-.2,0-.4,0-.5,0-3.4-2.8-6.2-6.2-6.2ZM32,25.9c-3.4,0-6.2,2.8-6.2,6.2,0,.2,0,.4,0,.6.3-3.2,2.9-5.6,6.1-5.6,3.2,0,5.8,2.4,6.1,5.6,0-.2,0-.4,0-.5,0-3.4-2.8-6.2-6.2-6.2ZM12.9,45c-3.4,0-6.2,2.8-6.2,6.2,0,.2,0,.4,0,.6.3-3.2,2.9-5.6,6.1-5.6,3.2,0,5.8,2.4,6.1,5.6,0-.2,0-.4,0-.5,0-3.4-2.8-6.2-6.2-6.2ZM51.1,45c-3.4,0-6.2,2.8-6.2,6.2,0,.2,0,.4,0,.6.3-3.2,2.9-5.6,6.1-5.6,3.2,0,5.8,2.4,6.1,5.6,0-.2,0-.4,0-.5,0-3.4-2.8-6.2-6.2-6.2Z"/>
  </g>
  <g class="st6">
    <path class="st2" d="M3.2,1.1h57.5c1.8,0,3.2,1.4,3.2,3.2v57.6c0,1.8-1.4,3.2-3.2,3.2H3.2c-1.8,0-3.2-1.4-3.2-3.2V4.3C0,2.6,1.4,1.1,3.2,1.1Z"/>
    <path class="st8" d="M3.2,0h57.5c1.8,0,3.2,1.4,3.2,3.2v57.6c0,1.8-1.4,3.2-3.2,3.2H3.2c-1.8,0-3.2-1.4-3.2-3.2V3.2C0,1.4,1.4,0,3.2,0Z"/>
    <path class="st12" d="M18.8,6.9c-2.9,0-5.2,1.9-6,4.6h38.5v-4.6H18.8ZM12.6,14.9v4.6h38.8v-4.6H12.6ZM12.6,22.9v4.6h12.6v-4.6h-12.6ZM12.6,30.9v4.6h12.6v-4.6h-12.6ZM12.6,38.9v4.6h12.6v-4.6h-12.6ZM12.6,46.9v4.6h38.8v-4.6H12.6ZM12.8,54.9c.7,2.6,3.1,4.6,6,4.6h32.6v-4.6H12.8Z"/>
    <path class="st19" d="M18.8,5.7c-2.9,0-5.2,1.9-6,4.6h38.5v-4.6H18.8Z"/>
    <path class="st0" d="M12.6,13.7v4.6h38.8v-4.6H12.6Z"/>
    <path class="st26" d="M12.6,21.7v4.6h12.6v-4.6h-12.6Z"/>
    <path class="st23" d="M12.6,29.7v4.6h12.6v-4.6h-12.6Z"/>
    <path class="st28" d="M12.6,37.7v4.6h12.6v-4.6h-12.6Z"/>
    <path class="st15" d="M12.6,45.7v4.6h38.8v-4.6H12.6Z"/>
    <path class="st21" d="M12.8,53.7c.7,2.6,3.1,4.6,6,4.6h32.6v-4.6H12.8Z"/>
    <path class="st3" d="M3.2,0C1.4,0,0,1.4,0,3.2v1.1C0,2.6,1.4,1.1,3.2,1.1h57.5c1.8,0,3.2,1.4,3.2,3.2v-1.1c0-1.8-1.4-3.2-3.2-3.2H3.2Z"/>
  </g>
  <g class="st6">
    <path class="st12" d="M11.5,27.1h5.2v6.7l9,4v6.7l-14.2-8v-9.3Z"/>
    <path class="st25" d="M42,23.6l-9,22.7"/>
    <path class="st12" d="M41.8,13.2h0c2.4,0,4.3,1.8,4.3,4v8c0,2.2-1.9,4-4.3,4h0c-2.4,0-4.3-1.8-4.3-4v-8c0-2.2,1.9-4,4.3-4Z"/>
    <polygon class="st24" points="21.8 13 32.2 5 40.7 16.8 30.3 24.8 21.8 13"/>
    <path class="st24" d="M11.5,26.3h5.2v6.7l9,4v6.7l-14.2-8v-9.3Z"/>
    <path class="st12" d="M6.3,24.7h0c0-2.5,1.7-4.5,3.9-4.5h15.5c2.1,0,3.9,2,3.9,4.5h0c0,2.5-1.7,4.5-3.9,4.5h-15.5c-2.1,0-3.9-2-3.9-4.5Z"/>
    <path class="st27" d="M6.3,23.8h0c0-2.5,1.7-4.5,3.9-4.5h15.5c2.1,0,3.9,2,3.9,4.5h0c0,2.5-1.7,4.5-3.9,4.5h-15.5c-2.1,0-3.9-2-3.9-4.5Z"/>
    <path class="st13" d="M10.2,19.3c-2.1,0-3.9,2-3.9,4.5s0,.3,0,.4c.2-2.3,1.8-4,3.8-4h15.5c2,0,3.6,1.8,3.8,4,0-.1,0-.3,0-.4,0-2.5-1.7-4.5-3.9-4.5h-15.5Z"/>
    <path class="st27" d="M41.8,12.3h0c2.4,0,4.3,1.8,4.3,4v8c0,2.2-1.9,4-4.3,4h0c-2.4,0-4.3-1.8-4.3-4v-8c0-2.2,1.9-4,4.3-4Z"/>
    <path class="st24" d="M38.3,32.3h0c2.1.8,3.1,3.3,2.3,5.4l-3,7.8c-.8,2.2-3.2,3.2-5.3,2.4h0c-2.1-.8-3.1-3.3-2.3-5.4l3-7.8c.8-2.2,3.2-3.2,5.3-2.4Z"/>
    <ellipse class="st11" cx="41.8" cy="23.8" rx="2.6" ry="2.7"/>
    <path class="st12" d="M42.6,7.7c-12.1,0-22.1,9.5-23.9,21.5h12.4c1.5-5.3,6.3-9,11.6-9,2.4,0,4.8.8,6.9,2.2l-2.1-14.2c-1.6-.3-3.2-.5-4.9-.5ZM18.4,34.6c.7,13.2,11.2,23.3,24.2,23.3,1.6,0,3.2-.2,4.7-.5l2.1-14.2c-2,1.4-4.3,2.1-6.7,2.1-6,0-11.1-4.6-12-10.7h-12.3Z"/>
    <path class="st29" d="M42.6,6.8c-12.1,0-22.1,9.5-23.9,21.5h12.4c1.5-5.3,6.3-9,11.6-9,2.4,0,4.8.8,6.9,2.2l-2.1-14.2c-1.6-.3-3.2-.5-4.9-.5ZM18.4,33.7c.7,13.2,11.2,23.3,24.2,23.3,1.6,0,3.2-.2,4.7-.5l2.1-14.2c-2,1.4-4.3,2.1-6.7,2.1-6,0-11.1-4.6-12-10.7h-12.3Z"/>
    <path class="st11" d="M27.1,17.6c-2.4,0-4.3,2-4.3,4.5h0c0,2.5,1.9,4.5,4.3,4.5h0c2.4,0,4.3-2,4.3-4.5s-1.9-4.5-4.3-4.5ZM27.1,18.8c1.7,0,3.1,1.4,3.1,3.2s-1.4,3.2-3.1,3.2h0c-1.7,0-3.1-1.4-3.1-3.2h0c0-1.8,1.4-3.2,3.1-3.2h0Z"/>
    <ellipse class="st11" cx="10.6" cy="23.8" rx="2.6" ry="2.7"/>
    <ellipse class="st11" cx="33.1" cy="47.1" rx="2.6" ry="2.7"/>
    <path class="st13" d="M42.6,6.8c-12.1,0-22.1,9.5-23.9,21.5h.2c2.2-11.5,12-20.6,23.8-20.6,1.6,0,3.3.2,4.9.5l1.9,13.2s0,0,.1,0l-2.1-14.2c-1.6-.3-3.2-.5-4.9-.5ZM18.4,33.7c0,.3,0,.6,0,.9h12.2c.9,6.2,6,10.7,12,10.7,2.3,0,4.6-.7,6.6-2v-1c-1.8,1.4-4.2,2.1-6.6,2.1-6,0-11.1-4.6-12-10.7h-12.3Z"/>
  </g>
  <g class="st6">
    <path class="st2" d="M3.2,1.1h57.7c1.8,0,3.2,1.4,3.2,3.2v57.8c0,1.8-1.4,3.2-3.2,3.2H3.2c-1.8,0-3.2-1.4-3.2-3.2V4.3C0,2.5,1.4,1.1,3.2,1.1Z"/>
    <path class="st5" d="M3.2,0h57.7c1.8,0,3.2,1.4,3.2,3.2v57.8c0,1.8-1.4,3.2-3.2,3.2H3.2c-1.8,0-3.2-1.4-3.2-3.2V3.2C0,1.4,1.4,0,3.2,0Z"/>
    <path class="st16" d="M6.6,6.6v50.9h50.8V6.6H6.6Z"/>
    <path class="st12" d="M40.1,49.4c1.4-.4,2.9-.5,4-1.4.2-1.8-.4-2.8-1-4.5-.3-1.7-2.2-.7-3.3-.5-3.2.9-6.9.2-9.2-2.4-2.4-3.4-3.4-9.4-1.4-12.8,1.2-2.4,3.5-4.2,6.2-4.4,2.2-.3,4.7.4,7,.6,1.1-.6,1.1-2.1,1.4-3.3.3-1.2.3-2.6-1.3-3.2-3.4-1-7.4-1.1-10.9-.7-4.5.6-8.4,3.8-10.2,8-1.7,3.6-1.9,7.7-1.5,11.6.6,5.5,4.4,10.7,9.6,12.5,3.3,1.2,6.9,1,10.3.5h.2Z"/>
    <path class="st22" d="M40.1,48.3c1.4-.4,2.9-.5,4-1.4.2-1.8-.4-2.8-1-4.5-.3-1.7-2.2-.7-3.3-.5-3.2.9-6.9.2-9.2-2.4-2.4-3.4-3.4-9.4-1.4-12.8,1.2-2.4,3.5-4.2,6.2-4.4,2.2-.3,4.7.4,7,.6,1.1-.6,1.1-2.1,1.4-3.3.3-1.2.3-2.6-1.3-3.2-3.4-1-7.4-1.1-10.9-.7-4.5.6-8.4,3.8-10.2,8-1.7,3.6-1.9,7.7-1.5,11.6.6,5.5,4.4,10.7,9.6,12.5,3.3,1.2,6.9,1,10.3.5h.2Z"/>
    <path class="st7" d="M3.2,0C1.4,0,0,1.4,0,3.2v1.1C0,2.5,1.4,1.1,3.2,1.1h57.7c1.8,0,3.2,1.4,3.2,3.2v-1.1c0-1.8-1.4-3.2-3.2-3.2H3.2Z"/>
    <path class="st13" d="M36.5,15.5c-.7,0-1.4,0-2.1,0-.9,0-1.8.1-2.7.2-4.5.6-8.4,3.8-10.2,8-1.2,2.6-1.6,5.4-1.6,8.3.1-2.5.5-4.9,1.6-7.2,1.8-4.2,5.7-7.4,10.2-8,.9,0,1.8-.2,2.7-.2,2.8-.1,5.6,0,8.2.9.9.3,1.2.8,1.4,1.5.1-1.1,0-2.1-1.4-2.6-1.9-.6-4-.9-6.1-.9ZM28.4,32.4c0,.5,0,1.1,0,1.7,0-.2,0-.4,0-.6.2,2.5,1.1,5.1,2.4,7,2.2,2.6,6,3.3,9.2,2.4,1.1-.2,3-1.2,3.3.5.4,1.2.9,2.2,1,3.3.2-1.7-.4-2.8-1-4.4-.3-1.7-2.2-.7-3.3-.5-3.2.9-6.9.2-9.2-2.4-1.3-1.8-2.2-4.5-2.4-7Z"/>
    <rect class="st12" x="6.6" y="6.6" width="50.8" height="1.1"/>
    <rect class="st13" x="6.6" y="57.6" width="50.8" height="1.1"/>
  </g>
  <g class="st6">
    <path class="st2" d="M0,62.1v-15.4c0-1.6,1.3-3,2.9-3h58.2c1.6,0,2.9,1.3,2.9,3v15.4c0,1.6-1.3,3-2.9,3H2.9c-1.6,0-2.9-1.3-2.9-3Z"/>
    <path class="st20" d="M0,50.3v-4.7c0-1.6,1.3-3,2.9-3h58.2c1.6,0,2.9,1.3,2.9,3v4.7c0,10.4-8.8,13.8-14.6,13.7H13.3c-8.3,0-13.2-7.1-13.3-13.7Z"/>
    <path class="st10" d="M41.1,49.7l4.6,7.1"/>
    <path class="st10" d="M47.9,49.7l4.6,7.1"/>
    <path class="st10" d="M54.8,49.7l4.6,7.1"/>
    <path class="st10" d="M34.2,49.7l4.6,7.1"/>
    <ellipse class="st12" cx="22.3" cy="50.3" rx="2.9" ry="3"/>
    <ellipse class="st12" cx="14.3" cy="50.3" rx="2.9" ry="3"/>
    <ellipse class="st12" cx="6.3" cy="50.3" rx="2.9" ry="3"/>
    <ellipse class="st30" cx="22.3" cy="49.1" rx="2.9" ry="3"/>
    <ellipse class="st31" cx="14.3" cy="49.1" rx="2.9" ry="3"/>
    <ellipse class="st18" cx="6.3" cy="49.1" rx="2.9" ry="3"/>
    <path class="st12" d="M0,40.8v-15.4c0-1.6,1.3-3,2.9-3h58.2c1.6,0,2.9,1.3,2.9,3v15.4c0,1.6-1.3,3-2.9,3H2.9c-1.6,0-2.9-1.3-2.9-3Z"/>
    <path class="st20" d="M0,39.6v-15.4c0-1.6,1.3-3,2.9-3h58.2c1.6,0,2.9,1.3,2.9,3v15.4c0,1.6-1.3,3-2.9,3H2.9c-1.6,0-2.9-1.3-2.9-3Z"/>
    <path class="st10" d="M41.1,28.4l4.6,7.1"/>
    <path class="st10" d="M47.9,28.4l4.6,7.1"/>
    <path class="st10" d="M54.8,28.4l4.6,7.1"/>
    <path class="st10" d="M34.2,28.4l4.6,7.1"/>
    <ellipse class="st12" cx="14.3" cy="29" rx="2.9" ry="3"/>
    <ellipse class="st12" cx="6.3" cy="29" rx="2.9" ry="3"/>
    <ellipse class="st31" cx="14.3" cy="27.8" rx="2.9" ry="3"/>
    <ellipse class="st18" cx="6.3" cy="27.8" rx="2.9" ry="3"/>
    <path class="st12" d="M0,19.5v-7.7C.4,7.5,5.3,1.2,8.7,1.2l46.5.2c3.3.7,8.5,6,8.7,10.5v7.7c0,1.6-1.3,3-2.9,3H2.9c-1.6,0-2.9-1.3-2.9-3Z"/>
    <path class="st20" d="M0,18.3v-4.4C0,4.1,8.1,0,13.1.1h37.1c6.2-.3,13.7,5,13.7,12.3v5.9c0,1.6-1.3,3-2.9,3H2.9c-1.6,0-2.9-1.3-2.9-3Z"/>
    <path class="st10" d="M41.1,7.1l4.6,7.1"/>
    <path class="st10" d="M47.9,7.1l4.6,7.1"/>
    <path class="st10" d="M54.8,7.1l4.6,7.1"/>
    <path class="st10" d="M34.2,7.1l4.6,7.1"/>
    <ellipse class="st12" cx="6.3" cy="7.7" rx="2.9" ry="3"/>
    <ellipse class="st18" cx="6.3" cy="6.5" rx="2.9" ry="3"/>
    <path class="st7" d="M61,0c1.6,0,2.9,1.3,2.9,3v1.2c0-1.6-1.3-3-2.9-3H2.9C1.3,1.2,0,2.5,0,4.1v-1.2C0,1.3,1.3,0,2.9,0h58.2Z"/>
  </g>
  <g>
    <path class="st2" d="M0,31.8C0,32.3,0,32.8,0,33.2c0,9.5,4.2,18.4,11.4,24.5v-2.5C4.5,49.4.3,40.9,0,31.8ZM63.9,32.2c-.8,17.1-14.8,30.6-31.9,30.6-4.1,0-8.2-.8-12.1-2.4l-8.5,7.3v2.5l8.5-7.3c3.8,1.6,7.9,2.4,12.1,2.4,17.7,0,32-14.3,32-32h0c0-.3,0-.7,0-1Z"/>
    <path class="st1" d="M32,0C14.3,0,0,14.3,0,32c0,9.5,4.2,18.4,11.4,24.5v12.4l8.5-7.3c3.8,1.6,7.9,2.4,12.1,2.4,17.7,0,32-14.3,32-32S49.7,0,32,0Z"/>
    <path class="st12" d="M34.3,43.1l-9.1-11.1-16,11.1,18.3-22.2,9.1,12.3,18.3-12.3-20.6,22.2Z"/>
    <path class="st14" d="M34.3,41.9l-9.1-11.1-16,11.1,18.3-22.2,9.1,12.3,18.3-12.3-20.6,22.2Z"/>
    <path class="st7" d="M32,0C14.3,0,0,14.3,0,32c0,.2,0,.3,0,.5C.4,15.1,14.6,1.2,32,1.2h0c17.5,0,31.7,14,32,31.5,0-.2,0-.5,0-.7C64,14.3,49.7,0,32,0h0Z"/>
  </g>
</svg>