<?xml version="1.0" encoding="UTF-8"?>
<svg id="_图层_1" xmlns="http://www.w3.org/2000/svg" version="1.1" viewBox="0 0 64 64" width="24" height="24">
  <!-- Generator: Adobe Illustrator 29.0.1, SVG Export Plug-In . SVG Version: 2.1.0 Build 192)  -->
  <defs>
    <style>
      .st0 {
        fill: #ff812d;
      }

      .st1 {
        fill: #eb2273;
      }

      .st2, .st3, .st4, .st5, .st6 {
        opacity: .2;
      }

      .st2, .st3, .st7, .st6, .st8 {
        display: none;
      }

      .st2, .st9, .st4, .st5, .st6 {
        isolation: isolate;
      }

      .st10 {
        fill: #404040;
      }

      .st11 {
        fill: #763983;
      }

      .st9 {
        opacity: .1;
      }

      .st5, .st6 {
        fill: #fff;
      }

      .st12 {
        fill: #f03b43;
      }

      .st8 {
        fill: #e4e4e4;
      }

      .st13 {
        fill: #ffdf55;
      }

      .st14 {
        fill: #ff0;
      }
    </style>
  </defs>
  <path class="st11" d="M50.4,64H13.8c-7.6,0-13.8-6.2-13.8-13.7V13.7C0,6.2,6.2,0,13.7,0h36.6c7.5,0,13.7,6.2,13.7,13.7v36.6c0,7.5-6.2,13.7-13.7,13.7h.1Z"/>
  <g class="st7">
    <ellipse class="st2" cx="31.9" cy="33.1" rx="31.9" ry="32"/>
    <ellipse class="st8" cx="31.9" cy="32" rx="31.9" ry="32"/>
    <path class="st9" d="M33.2,10.3c-2.7,0-3,.1-3.3,1.1-.9,3.4.2,8.9,2.5,11.8.8,1,3.1,2.6,5.7,3.9,2.4,1.2,5,2.7,5.8,3.4.8.7,1.7,1.1,1.9.9,1.1-.6,2.2-5.6,1.9-8.4-.7-7.5-6.7-12.7-14.5-12.7ZM27.5,11.4l-2.1,1.1c-3.8,2-7,6.7-8.6,12.6-1.1,4-1.2,11.9-.3,15.7,1.9,7.6,6.4,13,12.2,14.7.7.2,2.8.4,4.6.4,8.4.1,15.2-7,14.3-15-.6-5.5-3.2-8.5-10.4-12.1-7.1-3.5-9.6-7.1-9.8-14v-3.4ZM41.5,17.1c.9,0,1.7.8,1.7,1.7s-.8,1.7-1.7,1.7h0c-.9,0-1.7-.8-1.7-1.7h0c0-.9.8-1.7,1.7-1.7h0ZM48.2,17.6c-.1,0,0,.3,0,.6.2.5.5,1.9.6,3.1.2,1.2.5,2.2.7,2.2s1.1-.9,2-2l1.6-2-1.4-.6c-.8-.3-2-.8-2.6-1-.5-.2-.8-.3-.9-.2Z"/>
    <path class="st12" d="M28.8,54.4c-5.8-1.7-10.3-7.1-12.2-14.7-1-3.9-.8-11.8.3-15.7,1.6-5.9,4.8-10.5,8.6-12.6l2.1-1.1v3.4c.3,6.9,2.7,10.5,9.8,14,7.2,3.6,9.8,6.6,10.4,12.1.9,8-5.9,15.1-14.3,15-1.8,0-3.9-.2-4.6-.4h0Z"/>
    <path class="st4" d="M36.3,51.8c3.2-4-.4-13-5.6-13.8l-1.9-.3.7,1.6c1,2.1.9,3.6-.2,5.7-.5.9-.9,2.6-.9,3.6,0,4.8,4.9,6.9,7.9,3.2Z"/>
    <path class="st14" d="M36.3,50.7c3.2-4-.4-13-5.6-13.8l-1.9-.3.7,1.6c1,2.1.9,3.6-.2,5.7-.5.9-.9,2.6-.9,3.6,0,4.8,4.9,6.9,7.9,3.2Z"/>
    <path class="st10" d="M33.2,9.1c-2.7,0-3,.1-3.3,1.1-.9,3.4.2,8.9,2.5,11.8.8,1,3.1,2.6,5.7,3.9,2.4,1.2,5,2.7,5.8,3.4.8.7,1.7,1.1,1.9.9,1.1-.6,2.2-5.6,1.9-8.4-.7-7.5-6.7-12.7-14.5-12.7ZM41.5,16c.9,0,1.7.8,1.7,1.7h0c0,.9-.8,1.7-1.7,1.7h0c-.9,0-1.7-.8-1.7-1.7h0c0-.9.8-1.7,1.7-1.7h0Z"/>
    <path class="st10" d="M48.9,20.2c-.2-1.2-.4-2.6-.6-3.1-.3-.7-.2-.8.9-.4.7.3,1.8.7,2.6,1l1.4.6-1.6,2c-.9,1.1-1.8,2-2,2s-.5-1-.7-2.2Z"/>
    <path class="st6" d="M31.9,0C14.3,0,0,14.3,0,32c0,.2,0,.4,0,.6C.3,15.1,14.5,1.1,31.9,1.1c17.4,0,31.5,14,31.8,31.4,0-.2,0-.4,0-.6C63.7,14.3,49.5,0,31.9,0Z"/>
  </g>
  <g>
    <g class="st3">
      <path d="M32,1.1c17.7,0,32,14.2,32,31.9s-14.3,31.9-32,31.9S0,50.7,0,33,14.3,1.1,32,1.1Z"/>
    </g>
    <g class="st7">
      <path class="st11" d="M32,0c17.7,0,32,14.2,32,31.9s-14.3,31.9-32,31.9S0,49.5,0,31.9,14.3,0,32,0Z"/>
    </g>
    <path class="st4" d="M35.3,28.8c18.9-3.6,19.6-11.8,19.6-11.8,0,0-1.5,25.3-15.3,26.6-17.5,1.7-20.4,9.9-20.4,9.9,0,0-.4-2.6.7-6,2.2-6.8,8-17.2,15.4-18.6Z"/>
    <path class="st1" d="M35.3,27.7c18.9-3.6,19.6-11.8,19.6-11.8,0,0-1.5,25.3-15.3,26.6-17.5,1.7-20.4,9.9-20.4,9.9,0,0-.4-2.6.7-6,2.2-6.8,8-17.2,15.4-18.6Z"/>
    <path class="st5" d="M54.9,15.9s-.7,8.1-19.6,11.8c-7.4,1.4-13.2,11.8-15.4,18.7-.8,2.5-.8,4.5-.8,5.4,0-1.1.2-2.6.8-4.3,2.2-6.8,8-17.2,15.4-18.7,15.7-3,18.8-9.1,19.4-11.1.1-1.1.2-1.8.2-1.8Z"/>
    <path class="st4" d="M22.7,27.9c15.9-6.7,14.5-17.7,14.5-17.7,0,0,8.8,22.3-4.4,27.5-14.7,5.8-13.6,15.7-13.6,15.7,0,0-5.8-21.7,3.5-25.6Z"/>
    <path class="st0" d="M22.7,26.8c15.9-6.7,14.5-17.7,14.5-17.7,0,0,8.8,22.3-4.4,27.5-14.7,5.8-13.6,15.7-13.6,15.7,0,0-5.8-21.7,3.5-25.6Z"/>
    <path class="st5" d="M37.1,9.1s0,.5,0,1.2c0,0,2.7,7,2.9,14,.2-7.4-2.9-15.1-2.9-15.1ZM37.1,10.3c-.1,2.9-1.6,11-14.5,16.5-4.3,1.8-5.4,7.3-5.3,12.8,0-5.1,1.3-10,5.3-11.7,15.7-6.6,14.5-17.3,14.5-17.6Z"/>
    <path class="st4" d="M14,33.6c9-11.7,7-19.9,7-19.9,0,0,11.5,14.3,3.7,23.1-8.8,9.9-5.5,16.7-5.5,16.7,0,0-10.4-13.2-5.2-19.9Z"/>
    <path class="st13" d="M14,32.5c9-11.7,7-19.9,7-19.9,0,0,11.5,14.3,3.7,23.1-8.8,9.9-5.5,16.7-5.5,16.7,0,0-10.4-13.2-5.2-19.9Z"/>
    <path class="st5" d="M21,12.5s.1.5.2,1.4c.6.8,5.9,7.8,6.2,14.8.3-7.9-6.4-16.2-6.4-16.2ZM21.2,15.1c0,3.3-1.1,9.5-7.2,17.4-1.2,1.5-1.5,3.3-1.4,5.3,0-1.5.5-2.9,1.4-4.1,6.8-8.9,7.3-15.7,7.2-18.5ZM18.6,49.5c0,.9,0,1.6.1,2.2.3.4.5.6.5.6,0,0-.5-1-.6-2.9Z"/>
  </g>
</svg>