<?xml version="1.0" encoding="UTF-8"?>
<svg id="_图层_1" xmlns="http://www.w3.org/2000/svg" version="1.1" viewBox="0 0 64 64" width="24" height="24">
  <!-- Generator: Adobe Illustrator 29.0.1, SVG Export Plug-In . SVG Version: 2.1.0 Build 192)  -->
  <defs>
    <style>
      .st0 {
        fill: #455259;
      }

      .st0, .st1, .st2, .st3, .st4, .st5, .st6, .st7 {
        display: none;
      }

      .st8 {
        fill: #66dd23;
      }

      .st1 {
        fill: #222b76;
      }

      .st2, .st3, .st9, .st10, .st11 {
        isolation: isolate;
      }

      .st2, .st9, .st10, .st11 {
        opacity: .2;
      }

      .st3 {
        opacity: .1;
      }

      .st3, .st12 {
        fill: #fff;
      }

      .st13, .st4 {
        fill: #762276;
      }

      .st14 {
        stroke: #ff5e49;
      }

      .st14, .st9, .st15, .st16, .st10, .st17 {
        fill: none;
      }

      .st14, .st15, .st10, .st17 {
        stroke-width: 2.8px;
      }

      .st9, .st16 {
        stroke-linecap: round;
        stroke-linejoin: round;
        stroke-width: 3px;
      }

      .st9, .st10 {
        stroke: #000;
      }

      .st18 {
        fill: #e6df15;
      }

      .st15, .st16 {
        stroke: #fff;
      }

      .st19 {
        fill: #24f0ff;
      }

      .st20 {
        fill: #5d99ff;
      }

      .st21 {
        fill: #cfd3db;
      }

      .st22 {
        fill: #484848;
      }

      .st17 {
        stroke: #5cd262;
      }

      .st6 {
        fill: #e4e4e4;
      }

      .st7 {
        fill: #4f4f4f;
      }

      .st23 {
        fill: #ff8118;
      }

      .st24 {
        fill: #abe619;
      }

      .st25 {
        fill: #f24c3d;
      }
    </style>
  </defs>
  <path class="st13" d="M50.4,64H13.8c-7.6,0-13.8-6.2-13.8-13.7V13.7C0,6.2,6.2,0,13.7,0h36.6c7.5,0,13.7,6.2,13.7,13.7v36.6c0,7.5-6.2,13.7-13.7,13.7h.1Z"/>
  <g class="st5">
    <path class="st2" d="M0,59.5v2.3c0,1.9,1.9,3.4,4.4,3.4h55.2c2.4,0,4.4-1.5,4.4-3.4v-2.3c0,1.9-1.9,3.4-4.4,3.4H4.4c-2.4,0-4.4-1.5-4.4-3.4Z"/>
    <path class="st6" d="M63.9,60.6V3.4c0-1.9-1.9-3.4-4.4-3.4H4.4C1.9,0,0,1.5,0,3.4v57.2c0,1.9,1.9,3.4,4.4,3.4h55.2c2.4,0,4.4-1.5,4.4-3.4Z"/>
    <path class="st3" d="M4.4,0C1.9,0,0,1.5,0,3.4v1.1C0,2.7,1.9,1.1,4.4,1.1h55.2c2.4,0,4.4,1.5,4.4,3.4v-1.1c0-1.9-1.9-3.4-4.4-3.4H4.4Z"/>
    <path class="st22" d="M19.6,22.4c6.8-5.4,17.8-5.4,24.6,0s6.8,14,0,19.4c-6.8,5.4-17.8,5.4-24.6,0s-6.8-14,0-19.4Z"/>
    <path class="st22" d="M40.2,38.5h0c1.1-.9,3-.9,4.1,0l12.3,9.7c1.1.9,1.1,2.3,0,3.2h0c-1.1.9-3,.9-4.1,0l-12.3-9.7c-1.1-.9-1.1-2.3,0-3.2Z"/>
    <path class="st11" d="M40.1,26.7c-4.6-3.6-11.8-3.6-16.4,0s-4.6,9.3,0,12.9c4.6,3.6,11.8,3.6,16.4,0s4.6-9.3,0-12.9Z"/>
    <path class="st20" d="M40.1,25.6c-4.6-3.6-11.8-3.6-16.4,0s-4.6,9.3,0,12.9c4.6,3.6,11.8,3.6,16.4,0s4.6-9.3,0-12.9Z"/>
  </g>
  <g class="st5">
    <path class="st2" d="M5.3,59.5v2.3c0,1.9,1.4,3.4,3.2,3.4h52.5c1.7,0,3.2-1.5,3.2-3.4v-2.3c0,1.9-1.4,3.4-3.2,3.4H8.5c-1.7,0-3.2-1.5-3.2-3.4Z"/>
    <path class="st7" d="M8.5,0h52.5c1.7,0,3.2,1.5,3.2,3.4v57.2c0,1.9-1.4,3.4-3.2,3.4H8.5c-1.7,0-3.2-1.5-3.2-3.4V3.4c0-1.9,1.4-3.4,3.2-3.4Z"/>
    <path class="st3" d="M8.5,0c-1.7,0-3.2,1.5-3.2,3.4v1.1c0-1.9,1.4-3.4,3.2-3.4h52.5c1.7,0,3.2,1.5,3.2,3.4v-1.1c0-1.9-1.4-3.4-3.2-3.4H8.5Z"/>
    <path class="st25" d="M12.8,64h9.3l42-45.7v-7.3c0-1.5-.2-.5-1.6-2.3L12.4,63.2c-.3.3,0,.9.4.9Z"/>
    <path class="st18" d="M22.1,64h10.5l31.5-34.3v-11.4l-42,45.7Z"/>
    <path class="st8" d="M32.6,64h10.5l21-22.9v-11.4l-31.5,34.3Z"/>
    <path class="st19" d="M43.1,64h6.8c2.4,0,4.6-1,6.2-2.7l6.5-7.1c1-1.1,1.5-2.4,1.5-3.9v-9.2l-21,22.9Z"/>
    <path class="st11" d="M28.4,8l5.3,9.1-5.3,9.1h4.2l3.2-5.5,3.2,5.5h4.2l-5.3-9.1,5.3-9.1h-4.2l-3.2,5.5-3.2-5.5h-4.2ZM11.6,8h14.7v2.3l-9.5,12.6h9.5v3.4h-14.7v-2.3l9.5-12.6h-9.5v-3.4Z"/>
    <path class="st12" d="M28.4,6.9l5.3,9.1-5.3,9.1h4.2l3.2-5.5,3.2,5.5h4.2l-5.3-9.1,5.3-9.1h-4.2l-3.2,5.5-3.2-5.5h-4.2ZM11.6,6.9h14.7v2.3l-9.5,12.6h9.5v3.4h-14.7v-2.3l9.5-12.6h-9.5v-3.4Z"/>
  </g>
  <g class="st5">
    <ellipse class="st2" cx="32" cy="32.9" rx="32" ry="31.8"/>
    <ellipse class="st0" cx="32" cy="31.8" rx="32" ry="31.8"/>
    <path class="st10" d="M32,52.8l-9.4-15.1,9.4-4.9,9.4,4.9-9.4,15.1ZM50.4,23.4l-18.4,29.4-9.4-15.1,27.8-14.3ZM13.6,23.4l18.4,29.4,9.4-15.1-27.8-14.3Z"/>
    <path class="st14" d="M13.6,22.3l18.4,29.4,9.4-15.1-27.8-14.3Z"/>
    <path class="st17" d="M50.4,22.3l-18.4,29.4-9.4-15.1,27.8-14.3Z"/>
    <path class="st15" d="M32,51.7l-9.4-15.1,9.4-4.9,9.4,4.9-9.4,15.1Z"/>
    <path class="st3" d="M32,0C14.3,0,0,14.2,0,31.8c0,.2,0,.4,0,.6C.3,15,14.6,1.1,32,1.1c17.4,0,31.7,13.9,32,31.2,0-.2,0-.4,0-.6C64,14.2,49.7,0,32,0Z"/>
  </g>
  <g class="st5">
    <path class="st2" d="M3.2,1.1h57.7c1.8,0,3.2,1.4,3.2,3.2v57.8c0,1.8-1.4,3.2-3.2,3.2H3.2c-1.8,0-3.2-1.4-3.2-3.2V4.4C0,2.6,1.4,1.1,3.2,1.1Z"/>
    <path class="st1" d="M3.2,0h57.7c1.8,0,3.2,1.4,3.2,3.2v57.8c0,1.8-1.4,3.2-3.2,3.2H3.2c-1.8,0-3.2-1.4-3.2-3.2V3.2C0,1.4,1.4,0,3.2,0Z"/>
    <path class="st3" d="M3.2,0C1.4,0,0,1.4,0,3.2v1.1C0,2.6,1.4,1.1,3.2,1.1h57.7c1.8,0,3.2,1.4,3.2,3.2v-1.1c0-1.8-1.4-3.2-3.2-3.2H3.2Z"/>
    <path class="st11" d="M18.3,10.3v9.2h-9.2v18.4h9.2v-9.2h27.5v9.2h9.2v-18.4h-9.2v-9.2h-9.2v9.2h-9.2v-9.2h-9.2ZM45.8,37.9h-27.5v9.2h27.5v-9.2ZM45.8,47.1v9.2h9.2v-9.2h-9.2ZM18.3,47.1h-9.2v9.2h9.2v-9.2Z"/>
    <path class="st21" d="M18.3,9.2v9.2h-9.2v18.4h9.2v-9.2h27.5v9.2h9.2v-18.4h-9.2v-9.2h-9.2v9.2h-9.2v-9.2h-9.2ZM45.8,36.7h-27.5v9.2h27.5v-9.2ZM45.8,45.9v9.2h9.2v-9.2h-9.2ZM18.3,45.9h-9.2v9.2h9.2v-9.2Z"/>
  </g>
  <g>
    <path class="st2" d="M3.2,1.1h57.6c1.8,0,3.2,1.4,3.2,3.2v57.3c0,1.8-1.4,3.2-3.2,3.2H3.2c-1.8,0-3.2-1.4-3.2-3.2V4.3C0,2.6,1.4,1.1,3.2,1.1Z"/>
    <path class="st4" d="M3.2,0h57.6c1.8,0,3.2,1.4,3.2,3.2v57.3c0,1.8-1.4,3.2-3.2,3.2H3.2c-1.8,0-3.2-1.4-3.2-3.2V3.2C0,1.4,1.4,0,3.2,0Z"/>
    <path class="st11" d="M50.5,12.5l-22.2,35.5-5.3-8.2h-7.6l10.3,15.9h5.5S58.1,12.5,58.1,12.5h-7.6Z"/>
    <path class="st23" d="M50.5,11.4l-22.2,35.5-5.3-8.2h-7.6l10.3,15.9h5.5S58.1,11.4,58.1,11.4h-7.6Z"/>
    <path class="st11" d="M40.9,12.5l-22.2,35.5-5.3-8.2h-7.6l10.3,15.9h5.5S48.5,12.5,48.5,12.5h-7.6Z"/>
    <path class="st24" d="M40.9,11.4l-22.2,35.5-5.3-8.2h-7.6l10.3,15.9h5.5S48.5,11.4,48.5,11.4h-7.6Z"/>
    <path class="st3" d="M3.2,0C1.4,0,0,1.4,0,3.2v1.1C0,2.6,1.4,1.1,3.2,1.1h57.6c1.8,0,3.2,1.4,3.2,3.2v-1.1c0-1.8-1.4-3.2-3.2-3.2H3.2Z"/>
    <path class="st9" d="M57.7,41.6s-4.5-1.2-4.5,2.9,4.5,2.2,4.5,6.3-4.5,3.2-4.5,3.2"/>
    <path class="st16" d="M57.7,40.5s-4.5-1.2-4.5,2.9,4.5,2.2,4.5,6.3-4.5,3.2-4.5,3.2"/>
    <path class="st9" d="M47.4,47.2h-3.4M48.6,41.5c-5.4,0-4.5,1.3-4.5,12.4"/>
    <path class="st16" d="M47.4,46.1h-3.4M48.6,40.4c-5.4,0-4.5,1.3-4.5,12.4"/>
  </g>
</svg>