<?xml version="1.0" encoding="UTF-8"?>
<svg id="_图层_1" xmlns="http://www.w3.org/2000/svg" version="1.1" viewBox="0 0 64 64" width="24" height="24">
  <!-- Generator: Adobe Illustrator 29.0.1, SVG Export Plug-In . SVG Version: 2.1.0 Build 192)  -->
  <defs>
    <style>
      .st0, .st1 {
        fill: #4f4f4f;
      }

      .st2, .st3, .st4, .st5 {
        isolation: isolate;
      }

      .st2, .st3, .st1 {
        display: none;
      }

      .st2, .st4, .st5 {
        opacity: .2;
      }

      .st3 {
        opacity: .1;
      }

      .st3, .st6, .st5 {
        fill: #fff;
      }

      .st7 {
        fill: #d08e3b;
      }
    </style>
  </defs>
  <path class="st0" d="M50.4,64H13.8c-7.6,0-13.8-6.2-13.8-13.7V13.7C0,6.2,6.2,0,13.7,0h36.6c7.5,0,13.7,6.2,13.7,13.7v36.6c0,7.5-6.2,13.7-13.7,13.7h.1Z"/>
  <g>
    <ellipse class="st2" cx="32" cy="33.1" rx="32" ry="31.9"/>
    <ellipse class="st1" cx="32" cy="31.9" rx="32" ry="31.9"/>
    <path class="st4" d="M32,7.7c-14,0-25.4,11.3-25.4,25.3s11.4,25.3,25.4,25.3c12.7,0,23.5-9.4,25.1-22h6.7c.1-1.1.2-2.2.2-3.3,0-1.1,0-2.2-.2-3.3h-19.6v6.6h6.3c-1.6,8.9-9.4,15.4-18.4,15.4-10.4,0-18.8-8.4-18.8-18.7h0c0-10.3,8.4-18.7,18.8-18.7h17.1c-4.7-4.2-10.7-6.6-17.1-6.6Z"/>
    <path class="st7" d="M32,6.6c-14,0-25.4,11.3-25.4,25.3s11.4,25.3,25.4,25.3c12.7,0,23.5-9.4,25.1-22h6.7c.1-1.1.2-2.2.2-3.3,0-1.1,0-2.2-.2-3.3h-19.6v6.6h6.3c-1.6,8.9-9.4,15.4-18.4,15.4-10.4,0-18.8-8.4-18.8-18.7h0c0-10.3,8.4-18.7,18.8-18.7h17.1c-4.7-4.2-10.7-6.6-17.1-6.6Z"/>
    <path class="st4" d="M32,20.9c-6.7,0-12.1,5.4-12.1,12.1s5.4,12.1,12.1,12.1c1.9,0,3.8-.5,5.5-1.3v1.3h6.6v-24.2h-6.6v1.3c-1.7-.9-3.6-1.3-5.5-1.3ZM32,27.5c3,0,5.5,2.5,5.5,5.5s-2.5,5.5-5.5,5.5-5.5-2.5-5.5-5.5,2.5-5.5,5.5-5.5Z"/>
    <path class="st6" d="M32,19.8c-6.7,0-12.1,5.4-12.1,12.1s5.4,12.1,12.1,12.1c1.9,0,3.8-.5,5.5-1.3v1.3h6.6v-24.2h-6.6v1.3c-1.7-.9-3.6-1.3-5.5-1.3ZM32,26.4c3,0,5.5,2.5,5.5,5.5s-2.5,5.5-5.5,5.5-5.5-2.5-5.5-5.5,2.5-5.5,5.5-5.5Z"/>
    <path class="st3" d="M32,0C14.3,0,0,14.3,0,31.9c0,.2,0,.4,0,.5C.3,15.1,14.5,1.1,32,1.1c17.4,0,31.7,14,32,31.4,0-.2,0-.4,0-.5C64,14.3,49.7,0,32,0Z"/>
    <path class="st5" d="M32,6.6c-14,0-25.4,11.3-25.4,25.3,0,.1,0,.3,0,.4.4-13.7,11.6-24.7,25.3-24.7,5.7,0,11.2,2,15.7,5.5h1.3c-4.7-4.2-10.7-6.6-17.1-6.6ZM44.1,28.6v1.1h19.6c.1.9.2,1.9.2,2.8,0-.2,0-.4,0-.6,0-1.1,0-2.2-.2-3.3h-19.6ZM13.3,33.2c0,.3,0,.6,0,.9,0,.2,0,.4,0,.6,0-.1,0-.2,0-.4.7,9.8,8.9,17.4,18.7,17.4,8.2,0,15.5-5.4,17.9-13.2h.3c0-.4.2-.7.3-1.1h-.6c-2.4,7.8-9.7,13.2-17.9,13.2-9.9,0-18-7.6-18.7-17.4Z"/>
  </g>
</svg>