<?xml version="1.0" encoding="UTF-8" standalone="no"?>
<svg
   id="_图层_1"
   version="1.1"
   viewBox="0 0 64 64"
   width="24"
   height="24"
   sodipodi:docname="mplayer.svg"
   xml:space="preserve"
   inkscape:version="1.4 (e7c3feb100, 2024-10-09)"
   xmlns:inkscape="http://www.inkscape.org/namespaces/inkscape"
   xmlns:sodipodi="http://sodipodi.sourceforge.net/DTD/sodipodi-0.dtd"
   xmlns="http://www.w3.org/2000/svg"
   xmlns:svg="http://www.w3.org/2000/svg"><sodipodi:namedview
     id="namedview7"
     pagecolor="#505050"
     bordercolor="#eeeeee"
     borderopacity="1"
     inkscape:showpageshadow="0"
     inkscape:pageopacity="0"
     inkscape:pagecheckerboard="0"
     inkscape:deskcolor="#505050"
     inkscape:zoom="10.6875"
     inkscape:cx="31.906433"
     inkscape:cy="31.906433"
     inkscape:window-width="1920"
     inkscape:window-height="939"
     inkscape:window-x="0"
     inkscape:window-y="34"
     inkscape:window-maximized="1"
     inkscape:current-layer="g7" /><!-- Generator: Adobe Illustrator 29.0.1, SVG Export Plug-In . SVG Version: 2.1.0 Build 192)  --><defs
     id="defs1"><style
       id="style1">
      .st0 {
        fill: #f29111;
      }

      .st1 {
        fill: #e74c3c;
      }

      .st2 {
        fill: #a6ef4d;
      }

      .st3 {
        fill: #00758a;
      }

      .st4 {
        fill: #e5e5e5;
        opacity: .5;
      }

      .st5, .st6 {
        opacity: .2;
      }

      .st5, .st6, .st7 {
        isolation: isolate;
      }

      .st8 {
        display: none;
      }

      .st6, .st7 {
        fill: #fff;
      }

      .st7 {
        opacity: .1;
      }
    </style></defs><path
     class="st4"
     d="M47.5,64.1H13.8c-7.6,0-13.8-6.3-13.8-13.8V13.7C0,6.2,6.2,0,13.7,0h36.6c7.5,0,13.7,6.2,13.7,13.7v36.6c0,7.5-6.2,13.7-13.7,13.7h-2.9.1Z"
     id="path1"
     style="fill:#23689b;fill-opacity:1;opacity:1" /><g
     id="g7"
     transform="matrix(0.14630464,0,0,0.14636457,-5.0657777,-4.9866184)"><g
       fill-rule="evenodd"
       id="g6"><path
         d="m 298,98.63 c -5.193,0.02 -10.426,1.384 -15.281,4.188 l -51.656,29.813 0.031,0.031 h -67.62 c -17.09,0 -30.813,13.756 -30.813,30.844 v 12.875 l -0.031,-0.031 -18.5,10.781 c -14.798,8.544 -19.856,27.358 -11.313,42.16 l 29.813,51.656 0.031,0.031 v 67.59 c 0,8.544 3.433,16.245 9,21.813 l 1.063,1.031 100.31,100.31 c 3.319,0.149 130.71499,-0.31719 134.07021,-0.38928 59.50443,-1.27856 94.83979,-44.95015 94.83979,-94.89059 0,-3.358 -0.069,-130.09013 -0.219,-133.41013 l -101.34,-101.34 c -5.584,-5.584 -13.323,-9.03 -21.875,-9.03 h -3.594 l -24.938,-24.938 c -5.35,-5.35 -12.439,-8.489 -19.75,-9 -0.74,-0.052 -1.477,-0.097 -2.219,-0.094 m 81.38,249.97 c -0.017,17.04 -13.747,30.731 -30.781,30.781 0.034,-17.05 13.729,-30.764 30.781,-30.781"
         opacity="0.25"
         id="path2"
         sodipodi:nodetypes="ccccssccccccscccsscsscsccccc" /></g><g
       fill-rule="evenodd"
       id="g21"><path
         d="m 163.45,132.65 c -17.09,0 -30.806,13.772 -30.806,30.86 v 185.05 c 0,17.09 13.718,30.806 30.806,30.806 H 348.5 c 17.09,0 30.86,-13.718 30.86,-30.806 V 163.51 c 0,-17.09 -13.772,-30.86 -30.86,-30.86 z m 27.893,32.91 148.1,90.48 -148.1,90.48 V 165.57"
         fill="#ffffff"
         id="path20" /><path
         d="m 300.21,98.71 c -5.922,-0.414 -11.929,0.909 -17.478,4.113 l -51.664,29.816 h 104.61 l -10.8,-18.51 c -5.34,-9.25 -14.8,-14.73 -24.67,-15.42 m -167.59,77.62 -18.507,10.796 c -14.798,8.544 -19.853,27.356 -11.31,42.15 l 29.816,51.664 v -104.61 m 246.75,54.749 v 104.61 l 18.507,-10.796 c 14.798,-8.544 19.853,-27.356 11.31,-42.15 l -29.816,-51.664 m -203.06,148.31 10.796,18.507 c 8.544,14.798 27.356,19.853 42.15,11.31 l 51.664,-29.816 h -104.61"
         fill="#0a3859"
         opacity="0.5"
         id="path21" /></g></g></svg>
