<?xml version="1.0" encoding="UTF-8"?>
<svg id="_图层_1" xmlns="http://www.w3.org/2000/svg" version="1.1" viewBox="0 0 64 64" width="24" height="24">
  <!-- Generator: Adobe Illustrator 29.0.1, SVG Export Plug-In . SVG Version: 2.1.0 Build 192)  -->
  <defs>
    <style>
      .st0, .st1 {
        fill: #484b61;
      }

      .st2, .st3, .st1, .st4, .st5 {
        display: none;
      }

      .st2, .st3, .st6, .st7, .st8 {
        isolation: isolate;
      }

      .st2, .st9, .st7 {
        opacity: .2;
      }

      .st3, .st10, .st8 {
        fill: #fff;
      }

      .st3, .st6, .st8 {
        opacity: .1;
      }

      .st11 {
        fill: #9499b2;
      }

      .st12 {
        fill: #689f38;
      }

      .st13 {
        fill: #81ff85;
      }

      .st14 {
        fill: #e4e4e4;
      }

      .st5 {
        fill: #4f4f4f;
      }
    </style>
  </defs>
  <path class="st0" d="M50.3,64H13.8c-7.6,0-13.8-6.2-13.8-13.7V13.7C0,6.2,6.2,0,13.7,0h36.5c7.5,0,13.7,6.2,13.7,13.7v36.6c0,7.5-6.2,13.7-13.7,13.7h0Z"/>
  <g class="st4">
    <path class="st7" d="M13.3,54.9v1.9c0,1.6,1.3,2.8,2.8,2.8h35.7c1.6,0,2.8-1.3,2.8-2.8v-1.9c0,1.6-1.3,2.8-2.8,2.8H16.1c-1.6,0-2.8-1.3-2.8-2.8Z"/>
    <path class="st14" d="M54.7,55.9V8.9c0-1.6-1.3-2.8-2.8-2.8H16.1c-1.6,0-2.8,1.3-2.8,2.8v47c0,1.6,1.3,2.8,2.8,2.8h35.7c1.6,0,2.8-1.3,2.8-2.8Z"/>
    <path class="st8" d="M16.1,6.1c-1.6,0-2.8,1.3-2.8,2.8v.9c0-1.6,1.3-2.8,2.8-2.8h35.7c1.6,0,2.8,1.3,2.8,2.8v-.9c0-1.6-1.3-2.8-2.8-2.8H16.1Z"/>
    <path class="st7" d="M7.6,10.8v41.3c0,3.8,3.8,3.8,3.8,3.8h48.9L7.6,10.8ZM17.1,31.2l17.8,15.3h-17.8v-15.3Z"/>
    <path class="st12" d="M7.6,9.9v41.3c0,3.8,3.8,3.8,3.8,3.8h48.9L7.6,9.9ZM17.1,30.3l17.8,15.3h-17.8v-15.3Z"/>
  </g>
  <g class="st4">
    <path class="st5" d="M3.2,0h57.7c1.8,0,3.2,1.4,3.2,3.2v57.8c0,1.8-1.4,3.2-3.2,3.2H3.2c-1.8,0-3.2-1.4-3.2-3.2V3.2C0,1.4,1.4,0,3.2,0Z"/>
    <path class="st3" d="M3.2,0C1.4,0,0,1.4,0,3.2v1.1C0,2.6,1.4,1.1,3.2,1.1h57.7c1.8,0,3.2,1.4,3.2,3.2v-1.1c0-1.8-1.4-3.2-3.2-3.2H3.2Z"/>
    <path class="st2" d="M0,61v1.1c0,1.8,1.4,3.2,3.2,3.2h57.7c1.8,0,3.2-1.4,3.2-3.2v-1.1c0,1.8-1.4,3.2-3.2,3.2H3.2c-1.8,0-3.2-1.4-3.2-3.2Z"/>
    <g class="st9">
      <path d="M8.6,8h10.3c.9,0,1.7.8,1.7,1.7v10.3c0,.9-.8,1.7-1.7,1.7h-10.3c-.9,0-1.7-.8-1.7-1.7v-10.3c0-.9.8-1.7,1.7-1.7Z"/>
      <path d="M26.9,8h10.3c.9,0,1.7.8,1.7,1.7v10.3c0,.9-.8,1.7-1.7,1.7h-10.3c-.9,0-1.7-.8-1.7-1.7v-10.3c0-.9.8-1.7,1.7-1.7Z"/>
      <path d="M8.6,26.4h10.3c.9,0,1.7.8,1.7,1.7v10.3c0,.9-.8,1.7-1.7,1.7h-10.3c-.9,0-1.7-.8-1.7-1.7v-10.3c0-.9.8-1.7,1.7-1.7Z"/>
      <path d="M26.9,26.4h10.3c.9,0,1.7.8,1.7,1.7v10.3c0,.9-.8,1.7-1.7,1.7h-10.3c-.9,0-1.7-.8-1.7-1.7v-10.3c0-.9.8-1.7,1.7-1.7Z"/>
      <path d="M8.6,44.7h10.3c.9,0,1.7.8,1.7,1.7v10.3c0,.9-.8,1.7-1.7,1.7h-10.3c-.9,0-1.7-.8-1.7-1.7v-10.3c0-.9.8-1.7,1.7-1.7Z"/>
    </g>
    <g>
      <path class="st13" d="M8.6,6.9h10.3c.9,0,1.7.8,1.7,1.7v10.3c0,.9-.8,1.7-1.7,1.7h-10.3c-.9,0-1.7-.8-1.7-1.7v-10.3c0-.9.8-1.7,1.7-1.7Z"/>
      <rect class="st13" x="25.2" y="6.9" width="13.7" height="13.8" rx="1.7" ry="1.7"/>
      <path class="st13" d="M8.6,25.2h10.3c.9,0,1.7.8,1.7,1.7v10.3c0,.9-.8,1.7-1.7,1.7h-10.3c-.9,0-1.7-.8-1.7-1.7v-10.3c0-.9.8-1.7,1.7-1.7Z"/>
      <path class="st13" d="M26.9,25.2h10.3c.9,0,1.7.8,1.7,1.7v10.3c0,.9-.8,1.7-1.7,1.7h-10.3c-.9,0-1.7-.8-1.7-1.7v-10.3c0-.9.8-1.7,1.7-1.7Z"/>
      <path class="st13" d="M8.6,43.6h10.3c.9,0,1.7.8,1.7,1.7v10.3c0,.9-.8,1.7-1.7,1.7h-10.3c-.9,0-1.7-.8-1.7-1.7v-10.3c0-.9.8-1.7,1.7-1.7Z"/>
    </g>
  </g>
  <g>
    <path class="st2" d="M31.9,1C14.5,1,.3,15.3.3,32.9s14.2,32,31.6,32,31.6-14.3,31.6-32S49.4,1,31.9,1Z"/>
    <path class="st1" d="M31.9-.2C14.5-.2.3,14.1.3,31.8s14.2,32,31.6,32,31.6-14.3,31.6-32S49.4-.2,31.9-.2Z"/>
    <ellipse class="st7" cx="31.9" cy="32.9" rx="18.1" ry="18.3"/>
    <ellipse class="st11" cx="31.9" cy="31.8" rx="18.1" ry="18.3"/>
    <path class="st6" d="M46.1,9h0c1.6.9,2.2,3,1.3,4.6l-11.4,20c-.9,1.6-2.9,2.1-4.6,1.1h0c-1.6-.9-2.2-3-1.3-4.6l11.4-20c.9-1.6,2.9-2.1,4.6-1.1Z"/>
    <path class="st10" d="M46.1,7.9h0c1.6.9,2.2,3,1.3,4.6l-11.4,20c-.9,1.6-2.9,2.1-4.6,1.1h0c-1.6-.9-2.2-3-1.3-4.6l11.4-20c.9-1.6,2.9-2.1,4.6-1.1Z"/>
    <path class="st3" d="M31.9-.2C14.5-.2.3,14.1.3,31.8c0,.2,0,.3,0,.5C.7,14.9,14.7,1,31.9,1c17.3,0,31.3,14,31.6,31.5,0-.2,0-.4,0-.7C63.6,14.1,49.4-.2,31.9-.2Z"/>
    <path class="st6" d="M10.5,31.8v2.3c0,.6-.4,1.1-1,1.1H3.6c-.5,0-1-.5-1-1.1v-2.3c0-.6.4-1.1,1-1.1h5.9c.5,0,1,.5,1,1.1Z"/>
    <path class="st11" d="M10.5,30.6v2.3c0,.6-.4,1.1-1,1.1H3.6c-.5,0-1-.5-1-1.1v-2.3c0-.6.4-1.1,1-1.1h5.9c.5,0,1,.5,1,1.1Z"/>
    <path class="st6" d="M61.3,31.8v2.3c0,.6-.4,1.1-1,1.1h-5.9c-.5,0-1-.5-1-1.1v-2.3c0-.6.4-1.1,1-1.1h5.9c.5,0,1,.5,1,1.1Z"/>
    <path class="st11" d="M61.3,30.6v2.3c0,.6-.4,1.1-1,1.1h-5.9c-.5,0-1-.5-1-1.1v-2.3c0-.6.4-1.1,1-1.1h5.9c.5,0,1,.5,1,1.1Z"/>
    <path class="st6" d="M33.1,11.2h-2.3c-.6,0-1.1-.4-1.1-1v-6c0-.6.5-1,1.1-1h2.3c.6,0,1.1.4,1.1,1v6c0,.6-.5,1-1.1,1Z"/>
    <path class="st11" d="M33.1,10.1h-2.3c-.6,0-1.1-.4-1.1-1V3.1c0-.6.5-1,1.1-1h2.3c.6,0,1.1.4,1.1,1v6c0,.6-.5,1-1.1,1Z"/>
    <path class="st6" d="M33.1,62.6h-2.3c-.6,0-1.1-.4-1.1-1v-6c0-.6.5-1,1.1-1h2.3c.6,0,1.1.4,1.1,1v6c0,.6-.5,1-1.1,1Z"/>
    <path class="st11" d="M33.1,61.5h-2.3c-.6,0-1.1-.4-1.1-1v-6c0-.6.5-1,1.1-1h2.3c.6,0,1.1.4,1.1,1v6c0,.6-.5,1-1.1,1Z"/>
  </g>
</svg>