<?xml version="1.0" encoding="UTF-8"?>
<svg id="_图层_1" xmlns="http://www.w3.org/2000/svg" version="1.1" viewBox="0 0 64 64" width="24" height="24">
  <!-- Generator: Adobe Illustrator 29.0.1, SVG Export Plug-In . SVG Version: 2.1.0 Build 192)  -->
  <defs>
    <style>
      .st0 {
        fill: #7cce44;
      }

      .st1 {
        fill: #ffad87;
      }

      .st2 {
        fill: #4f4f4f;
      }

      .st3 {
        fill: #6c48b3;
      }

      .st4 {
        fill: #924ab4;
      }

      .st5, .st6, .st7, .st8, .st9, .st10, .st11, .st12 {
        isolation: isolate;
      }

      .st5, .st6, .st13, .st11, .st14 {
        display: none;
      }

      .st5, .st15, .st8, .st10, .st11 {
        opacity: .2;
      }

      .st6, .st16, .st10, .st11, .st12 {
        fill: #fff;
      }

      .st6, .st7, .st12 {
        opacity: .1;
      }

      .st17 {
        fill: #78ac3d;
      }

      .st18 {
        fill: #0078d7;
      }

      .st19 {
        fill: #ff4c4c;
      }

      .st20 {
        fill: #8bdb4c;
      }

      .st21 {
        fill: #3476cc;
      }

      .st22 {
        fill: #8e8e8e;
      }

      .st23 {
        fill: #79de7d;
      }

      .st24 {
        fill: #47b1b1;
      }

      .st25 {
        fill: #2bd677;
      }

      .st26 {
        fill: #71c1ff;
      }

      .st9 {
        opacity: .5;
      }

      .st27 {
        fill: #b3b3b3;
      }

      .st28 {
        fill: #476bd7;
      }

      .st29 {
        fill: #3f9142;
      }

      .st30 {
        fill: #e4e4e4;
      }

      .st31 {
        fill: #cae8ff;
      }

      .st32 {
        fill: #ffee57;
      }

      .st33 {
        fill: #f56666;
      }

      .st34 {
        fill: #db4cb7;
      }

      .st14 {
        fill: #d54747;
      }

      .st35 {
        fill: #ffdb4c;
      }
    </style>
  </defs>
  <path class="st16" d="M50.3,64H13.8C6.2,64,0,57.8,0,50.3V13.7C0,6.2,6.2,0,13.7,0h36.5c7.5,0,13.7,6.2,13.7,13.7v36.6c0,7.5-6.2,13.7-13.7,13.7h0Z"/>
  <g class="st13">
    <path class="st5" d="M64,33.1h0C64,15.4,49.7,1.1,32,1.1h0C14.3,1.1,0,15.4,0,33.1h0c0,17.6,14.3,31.9,32,31.9h0c17.7,0,32-14.3,32-31.9Z"/>
    <path class="st18" d="M64,31.9h0C64,14.3,49.7,0,32,0h0C14.3,0,0,14.3,0,31.9h0c0,17.6,14.3,31.9,32,31.9h0c17.7,0,32-14.3,32-31.9Z"/>
    <g class="st15">
      <path d="M32.2,25.3c-2.8,0-5.5,1.4-6.9,3.9-2.1,3.7-.9,8.4,2.8,10.5,0,0,0,0,0,0,3.7,2.1,8.4.9,10.5-2.8,0,0,0,0,0,0,2.1-3.7.9-8.4-2.8-10.5,0,0,0,0,0,0-1.1-.6-2.4-1-3.7-1ZM31.8,29.8c.6,0,1.3.1,1.8.4,1.6.9,2.1,2.9,1.2,4.5-.9,1.6-2.9,2.1-4.5,1.2-1.6-.9-2.1-2.9-1.2-4.5.6-1,1.6-1.6,2.7-1.6Z"/>
      <g>
        <path d="M36.7,23.7l9.4-9.3,2.3,7-7,7-4.7-4.7Z"/>
        <path d="M15.6,16.7c-9,9-9,23.7,0,32.7s23.7,9,32.8,0c9-9,9-23.7,0-32.7-.8-.8-1.6-1.5-2.5-2.1l-4.7,4.7c.9.6,1.8,1.3,2.6,2.1,6.5,6.5,6.5,16.9,0,23.4-6.5,6.5-16.9,6.5-23.4,0s-6.5-16.9,0-23.4c3.7-3.7,8.9-5.4,14-4.7l5.4-5.4c-8.4-3-17.8-.9-24.1,5.4Z"/>
      </g>
    </g>
    <g>
      <path class="st31" d="M32.2,24.2c-2.8,0-5.5,1.4-6.9,3.9-2.1,3.7-.9,8.4,2.8,10.5,0,0,0,0,0,0,3.7,2.1,8.4.9,10.5-2.8,0,0,0,0,0,0,2.1-3.7.9-8.4-2.8-10.5,0,0,0,0,0,0-1.1-.6-2.4-1-3.7-1ZM31.8,28.6c.6,0,1.3.1,1.8.4,1.6.9,2.1,2.9,1.2,4.5-.9,1.6-2.9,2.1-4.5,1.2-1.6-.9-2.1-2.9-1.2-4.5.6-1,1.6-1.6,2.7-1.6Z"/>
      <g>
        <path class="st26" d="M36.7,22.6l9.4-9.3,2.3,7-7,7-4.7-4.7Z"/>
        <path class="st26" d="M15.6,15.6c-9,9-9,23.7,0,32.7s23.7,9,32.8,0c9-9,9-23.7,0-32.7-.8-.8-1.6-1.5-2.5-2.1l-4.7,4.7c.9.6,1.8,1.3,2.6,2.1,6.5,6.5,6.5,16.9,0,23.4-6.5,6.5-16.9,6.5-23.4,0s-6.5-16.9,0-23.4c3.7-3.7,8.9-5.4,14-4.7l5.4-5.4c-8.4-3-17.8-.9-24.1,5.4Z"/>
      </g>
    </g>
    <path class="st11" d="M32,0C14.3,0,0,14.2,0,31.9s0,.2,0,.4C.4,15,14.5,1.1,32,1.1s31.6,13.9,32,31.2c0-.1,0-.2,0-.4C64,14.2,49.7,0,32,0Z"/>
  </g>
  <g class="st13">
    <ellipse class="st5" cx="32" cy="32.9" rx="31.9" ry="31.8"/>
    <ellipse class="st29" cx="32" cy="31.8" rx="31.9" ry="31.8"/>
    <ellipse class="st7" cx="32" cy="32.9" rx="25.1" ry="25"/>
    <ellipse class="st23" cx="32" cy="31.8" rx="25.1" ry="25"/>
    <path class="st10" d="M49.1,36.1c0,5.3-1.3,9.4-4,12.1-2.7,2.7-6.7,4.1-12.1,4.1s-7-.8-9.8-2.5c-2.7-1.7-4.8-3.9-6.2-6.9-1.4-2.9-2.1-6.4-2.1-10.3s.7-7,2.2-9.8,3.6-5.1,6.3-6.7c2.8-1.6,6-2.5,9.6-2.5s7.3,1,9.8,3c2.6,2,4.6,4.9,5.6,8.3h-6.8c-.6-1.6-2-3.1-3.5-4.1-1.5-1-3.3-1.6-5.3-1.6-3.2,0-6,1.3-8.3,3.8-2.3,2.5-3.5,5.7-3.5,9.5h0c0,2.6.5,4.9,1.4,7,.9,2.1,2.3,3.8,4.1,5,1.8,1.3,3.9,1.9,6.2,1.9s3.5-.2,4.9-.7c1.4-.5,2.6-1.2,3.5-2.2.9-1,1.5-2.5,1.5-3.9h-6.3v-5.7h12.5"/>
    <path class="st29" d="M49.1,34.9c0,5.3-1.3,9.4-4,12.1-2.7,2.7-6.7,4.1-12.1,4.1s-7-.8-9.8-2.5c-2.7-1.7-4.8-3.9-6.2-6.9-1.4-2.9-2.1-6.4-2.1-10.3s.7-7,2.2-9.8,3.6-5.1,6.3-6.7c2.8-1.6,6-2.5,9.6-2.5s7.3,1,9.8,3c2.6,2,4.6,4.9,5.6,8.3h-6.8c-.6-1.6-2-3.1-3.5-4.1-1.5-1-3.3-1.6-5.3-1.6-3.2,0-6,1.3-8.3,3.8-2.3,2.5-3.5,5.7-3.5,9.5h0c0,2.6.5,4.9,1.4,7,.9,2.1,2.3,3.8,4.1,5,1.8,1.3,3.9,1.9,6.2,1.9s3.5-.2,4.9-.7c1.4-.5,2.6-1.2,3.5-2.2.9-1,1.5-2.5,1.5-3.9h-6.3v-5.7h12.5"/>
    <path class="st10" d="M32,6.8c-13.8,0-25.1,11.2-25.1,25,0,.2,0,.4,0,.7.3-13.6,11.4-24.5,25.1-24.5,13.6,0,24.7,10.8,25.1,24.3,0-.2,0-.3,0-.5,0-13.8-11.2-25-25.1-25Z"/>
    <path class="st6" d="M32,0C14.4,0,0,14.2,0,31.8c0,.2,0,.4,0,.7C.3,15.1,14.5,1.1,32,1.1c17.4,0,31.5,13.8,31.9,31.1,0-.2,0-.3,0-.5C63.9,14.2,49.6,0,32,0Z"/>
  </g>
  <g class="st13">
    <path class="st5" d="M32.1,1.3c-2.7,0-5.2.4-7.6,1.1C15.1,5.3,8.6,13.6,6,23.5.5,25.9-1.9,33.8,1.7,39.5l6.9,10.7s0,0,0,0c.9,1.4,2.3,2.2,3.7,2.9.5,1.6,1.1,3.3,2.1,4.5.4.5.8,1,1.3,1.4,4.9,4.2,10.7,6,16.2,6,0,0-.3,0,0,0,0,0,0,0,0,0,3.8,0,5.5-.7,7.4-1.1,0,0,.1,0,.2,0,9.3-2.8,15.8-11.2,18.5-21,5.5-2.4,7.9-10.3,4.3-16l-6.9-10.7s0,0,0,0c-.9-1.4-2.3-2.2-3.7-2.9-.5-1.6-1.1-3.3-2.1-4.5-.4-.5-.8-1-1.3-1.4-4.9-4.3-10.7-6-16.2-6h0Z"/>
    <path class="st14" d="M32.1,0c-2.7,0-5.2.4-7.6,1.1C15.1,3.9,8.6,12.3,6,22.2.5,24.6-1.9,32.5,1.7,38.2l6.9,10.7s0,0,0,0c.9,1.4,2.3,2.2,3.7,2.9.5,1.6,1.1,3.3,2.1,4.5.4.5.8,1,1.3,1.4,4.9,4.2,10.7,6,16.2,6,0,0-.3,0,0,0,0,0,0,0,0,0,3.8,0,5.5-.7,7.4-1.1,0,0,.1,0,.2,0,9.3-2.8,15.8-11.2,18.5-21,5.5-2.4,7.9-10.3,4.3-16l-6.9-10.7s0,0,0,0c-.9-1.4-2.3-2.2-3.7-2.9-.5-1.6-1.1-3.3-2.1-4.5-.4-.5-.8-1-1.3-1.4C43.4,1.8,37.6,0,32.1,0h0Z"/>
    <path class="st8" d="M32,11.9c-1.8,0-3.5.3-5.3.8-8,2.4-13.2,11.2-13.1,20.4h-4.6l6.9,10.6,6.9-10.6h-4.6c0-3.9.5-7.7,2.8-10.6,4-5.3,12-7.4,17.8-3.6,1.9,2.8,6.2-.3,3.9-3.1-3.2-2.8-6.8-3.9-10.8-3.9ZM48,22.5l-6.9,10.6h4.6c0,3.9-.5,7.7-2.8,10.6-4.3,5.8-12,7.4-17.8,3.6-1.9-2.8-6.2.3-3.9,3.1,3.2,2.8,6.8,3.9,10.8,3.9h0c1.8,0,3.5-.3,5.3-.8,8-2.4,13.2-11.2,13.1-20.4h4.6l-6.9-10.6Z"/>
    <path class="st1" d="M32,10.6c-1.8,0-3.5.3-5.3.8-8,2.4-13.2,11.2-13.1,20.4h-4.6l6.9,10.6,6.9-10.6h-4.6c0-3.9.5-7.7,2.8-10.6,4-5.3,12-7.4,17.8-3.6,1.9,2.8,6.2-.3,3.9-3.1-3.2-2.8-6.8-3.9-10.8-3.9ZM48,21.2l-6.9,10.6h4.6c0,3.9-.5,7.7-2.8,10.6-4.3,5.8-12,7.4-17.8,3.6-1.9-2.8-6.2.3-3.9,3.1,3.2,2.8,6.8,3.9,10.8,3.9h0c1.8,0,3.5-.3,5.3-.8,8-2.4,13.2-11.2,13.1-20.4h4.6l-6.9-10.6Z"/>
    <path class="st11" d="M32.1,0c-2.7,0-5.2.4-7.6,1.1C15.1,3.9,8.6,12.3,6,22.2,2.1,23.9-.2,28.3,0,32.8c.2-4,2.5-7.8,6-9.3C8.6,13.6,15.1,5.3,24.5,2.5c2.4-.7,4.9-1.2,7.6-1.1h0c5.5,0,11.3,1.8,16.2,6,.5.4.9.9,1.3,1.4,1,1.3,1.6,2.9,2.1,4.5,1.4.7,2.7,1.5,3.7,2.9,0,0,0,0,0,0l6.9,10.7c1.1,1.7,1.6,3.5,1.7,5.4.1-2.3-.4-4.6-1.7-6.7l-6.9-10.7s0,0,0,0c-.9-1.4-2.3-2.2-3.7-2.9-.5-1.6-1.1-3.3-2.1-4.5-.4-.5-.8-1-1.3-1.4C43.4,1.8,37.6,0,32.1,0h0Z"/>
  </g>
  <g class="st13">
    <path class="st8" d="M5.8,23l-.2.4c-.3.6-.2,1.3.3,1.7l4.4,3.9c0-.6.1-1.2.2-1.8l-4.6-4.1s0,0,0-.1h0ZM59.5,23s0,0,0,.1l-4.6,4.1c0,.6.2,1.2.2,1.8l4.4-3.9c.5-.4.6-1.2.3-1.7l-.2-.4h0ZM10.3,31.5c0,.3,0,.7,0,1,0,.5,0,1,0,1.5l.2-.2c-.1-.8-.2-1.5-.2-2.3h0ZM55,31.5c0,.8-.1,1.6-.2,2.3l.2.2c0-.5,0-1,0-1.5s0-.7,0-1h0ZM5.8,40c-.4.4-.5,1.1-.2,1.6l5.6,9.7c.3.6,1.1.8,1.7.6l5.8-2c1.7,1.4,3.7,2.5,5.9,3.4l1.2,6c.1.6.7,1.1,1.4,1.1h11.2c.6,0,1.2-.5,1.4-1.1l1.2-6c2.1-.8,4.1-2,5.9-3.4l5.8,2c.6.2,1.3,0,1.7-.6l5.6-9.7c.3-.5.2-1.2-.2-1.6l-5.4,9.3c-.3.6-1.1.8-1.7.6l-5.8-2c-1.7,1.4-3.7,2.5-5.9,3.4l-1.2,6c-.1.6-.7,1.1-1.4,1.1h-11.2c-.6,0-1.2-.5-1.4-1.1l-1.2-6c-2.1-.8-4.1-2-5.9-3.4l-5.8,2c-.6.2-1.3,0-1.7-.6l-5.4-9.3h0Z"/>
    <path class="st17" d="M26.9,3.5c-.6,0-1.1.6-1.2,1.1l-1.2,6c-2.1.8-4.1,2-5.9,3.4l-5.8-2c-.6-.2-1.3,0-1.7.6l-5.6,9.7c-.3.6-.2,1.3.3,1.7l4.6,4.1c-.2,1.1-.3,2.2-.3,3.3s0,2.2.3,3.3l-4.6,4.1c-.5.4-.6,1.2-.3,1.7l5.6,9.7c.3.6,1.1.8,1.7.6l5.8-2c1.7,1.4,3.7,2.5,5.9,3.4l1.2,6c.1.6.7,1.1,1.4,1.1h11.2c.6,0,1.2-.5,1.4-1.1l1.2-6c2.1-.8,4.1-2,5.9-3.4l5.8,2c.6.2,1.3,0,1.7-.6l5.6-9.7c.3-.6.2-1.3-.3-1.7l-4.6-4.1c.2-1.1.3-2.2.3-3.3s0-2.2-.3-3.3l4.6-4.1c.5-.4.6-1.2.3-1.7l-5.6-9.7c-.3-.6-1.1-.8-1.7-.6l-5.8,2c-1.7-1.4-3.7-2.5-5.9-3.4l-1.2-6c-.1-.6-.7-1.1-1.4-1.1h-11.2s0,0-.1,0h0Z"/>
    <path class="st8" d="M32.7,20.5c6.6,0,12,5.4,12,12s-5.4,12-12,12-12-5.4-12-12,5.4-12,12-12Z"/>
    <path class="st16" d="M32.7,19.5c6.6,0,12,5.4,12,12s-5.4,12-12,12-12-5.4-12-12,5.4-12,12-12Z"/>
    <path class="st8" d="M32.7,13.5c-9.9,0-18,8.1-18,18s8.1,18,18,18,18-8.1,18-18-8.1-18-18-18ZM32.7,15.6c8.8,0,15.9,7.1,15.9,15.9s-7.1,15.9-15.9,15.9-15.9-7.1-15.9-15.9,7.1-15.9,15.9-15.9h0Z"/>
    <path class="st32" d="M30.8,13.6c-9.1.9-16.2,8.6-16.2,17.9s8.1,18,18,18,2.9-.2,4.3-.5c.1-.3.4-.8.3-1.2,0-.4-.4-.7-.7-.9-1.2.3-2.5.5-3.8.5-8.8,0-15.9-7.1-15.9-15.9s6.5-15.2,14.7-15.8c.3-.3.4-.7.4-1.2,0-.5-.4-.8-1-.9h0Z"/>
    <path class="st10" d="M26.9,3.5h0c-.6,0-1.1.6-1.2,1.1l-1.2,6c-2.1.8-4.1,2-5.9,3.4l-5.8-2c-.6-.2-1.3,0-1.7.6l-5.6,9.7c-.2.4-.2.8,0,1.2,0,0,0-.1,0-.2l5.6-9.7c.3-.6,1.1-.8,1.7-.6l5.8,2c1.7-1.4,3.7-2.5,5.9-3.4l1.2-6c.1-.6.6-1.1,1.2-1.1h0s0,0,.1,0h11.2c.6,0,1.2.5,1.4,1.1l1.2,6c2.1.8,4.1,2,5.9,3.4l5.8-2c.6-.2,1.3,0,1.7.6l5.6,9.7c0,0,0,.1,0,.2.1-.4.1-.8,0-1.2l-5.6-9.7c-.3-.6-1.1-.8-1.7-.6l-5.8,2c-1.7-1.4-3.7-2.5-5.9-3.4l-1.2-6c-.1-.6-.7-1.1-1.4-1.1h-11.2s0,0-.1,0ZM10.4,29.1c0,.8-.2,1.6-.2,2.4s0,.3,0,.5c0-1,.1-1.9.2-2.8h-.1ZM54.9,29.1h-.1c.1,1,.2,2,.2,2.9,0-.2,0-.3,0-.5,0-.8,0-1.6-.2-2.4ZM54.9,34.9c0,.3,0,.6-.1.9l4.6,4.1c.2.2.3.4.4.6.2-.5,0-1.2-.4-1.6l-4.5-4ZM10.4,34.9l-4.5,4c-.4.4-.6,1-.4,1.6,0-.2.2-.4.4-.6l4.6-4.1c0-.3,0-.6-.1-.9Z"/>
  </g>
  <g class="st13">
    <path class="st21" d="M25.1,7.1c-2.6,0-4.8,1.9-5.2,4.4l-7.4,38.3c-.6,2.8,1.3,5.6,4.3,6.2,3,.6,5.9-1.3,6.5-4.1,0,0,0-.1,0-.2l7.4-38.3c.6-2.8-1.4-5.6-4.3-6.1-.4,0-.8-.1-1.3,0Z"/>
    <path class="st0" d="M43.5,7.1c-2.6,0-4.8,1.9-5.2,4.4l-7.4,38.3c-.6,2.8,1.3,5.6,4.3,6.2,3,.6,5.9-1.3,6.5-4.1,0,0,0-.1,0-.2l7.4-38.3c.6-2.8-1.4-5.6-4.3-6.1-.4,0-.8-.1-1.3,0Z"/>
    <path class="st30" d="M14.3,17.6c-3,0-5.6,2.3-5.6,5.2,0,2.9,2.4,5.3,5.4,5.3,0,0,.1,0,.2,0h36.8c3,0,5.6-2.3,5.6-5.2,0-2.9-2.4-5.3-5.4-5.3,0,0-.1,0-.2,0H14.3Z"/>
    <path class="st33" d="M10.6,33.3c-3,0-5.6,2.3-5.6,5.2,0,2.9,2.4,5.3,5.4,5.3,0,0,.1,0,.2,0h36.8c3,0,5.6-2.3,5.6-5.2,0-2.9-2.4-5.3-5.4-5.3,0,0-.1,0-.2,0H10.6Z"/>
    <path class="st0" d="M37.1,17.6l-2,10.5h11.2l2-10.5h-11.2Z"/>
    <path class="st21" d="M15.7,33.3l-2,10.5h11.2l2-10.5h-11.2Z"/>
    <path class="st8" d="M30.8,12.8c0,.2,0,.4,0,.6l-.8,4.3h.2l.7-3.4c0-.5.1-1,0-1.4ZM27.9,28.1l-4.5,23.6c-.5,2.8-3.3,4.8-6.3,4.3-2.5-.4-4.4-2.3-4.6-4.7-.2,2.9,2,5.4,5.1,5.6,2.8.2,5.4-1.7,5.9-4.3l4.7-24.4h-.2Z"/>
    <path class="st8" d="M49.2,12.8c0,.2,0,.4,0,.6l-3.8,20h.2l3.7-19.1c0-.5.1-1,0-1.4ZM43.3,43.8l-1.5,7.9c-.5,2.8-3.3,4.8-6.3,4.3-2.5-.4-4.4-2.3-4.6-4.7-.2,2.9,2.1,5.4,5.1,5.6,2.8.2,5.4-1.7,5.8-4.3l1.7-8.8h-.2Z"/>
    <path class="st8" d="M8.7,23.3c-.3,2.9,2,5.4,5,5.7.2,0,.4,0,.6,0h20.6l.2-.9H14.3c-2.9,0-5.3-2.1-5.6-4.8ZM56.6,23.3c-.3,2.7-2.7,4.8-5.6,4.8h-4.8l-.2.9h4.9c3,0,5.5-2.3,5.6-5.2,0-.2,0-.3,0-.5Z"/>
    <path class="st8" d="M5,38.9c-.3,2.9,2,5.4,5,5.7.2,0,.4,0,.6,0h2.9l.2-.9h-3.1c-2.9,0-5.3-2.1-5.6-4.8ZM53,39c-.3,2.7-2.7,4.8-5.6,4.8h-22.5l-.2.9h22.7c3,0,5.5-2.3,5.6-5.2,0-.2,0-.3,0-.5Z"/>
    <path class="st10" d="M25.1,7.1c-2.6,0-4.8,1.9-5.2,4.4l-1.2,6.2h.2l1-5.3c.4-2.5,2.6-4.3,5.2-4.4,2.9,0,5.5,2,5.7,4.8.3-2.9-2-5.4-5-5.7-.2,0-.4,0-.7,0ZM16.7,28.1l-4.2,21.7c-.1.5-.1,1,0,1.5,0-.2,0-.4,0-.6l4.3-22.6h-.2Z"/>
    <path class="st10" d="M43.5,7.1c-2.6,0-4.8,1.9-5.2,4.4l-4.2,21.8h.2l4-21c.4-2.5,2.6-4.3,5.2-4.4,2.9,0,5.5,2,5.7,4.8.3-2.9-2-5.4-5-5.7-.2,0-.4,0-.7,0ZM32.1,43.8l-1.2,6c-.1.5-.1,1,0,1.5,0-.2,0-.4,0-.6l1.3-6.9h-.2Z"/>
    <path class="st10" d="M14.3,17.6c-3,0-5.5,2.3-5.6,5.2,0,.2,0,.3,0,.5.3-2.7,2.7-4.8,5.6-4.8h22.7l.2-.9H14.3ZM48.3,17.6l-.2.9h2.9c2.9,0,5.3,2.1,5.6,4.8.3-2.9-2-5.4-5-5.7-.2,0-.4,0-.6,0h-2.8Z"/>
    <path class="st10" d="M10.6,33.3c-3,0-5.5,2.3-5.6,5.2,0,.2,0,.3,0,.5.3-2.7,2.7-4.8,5.6-4.8h4.9l.2-.9h-5.1ZM26.9,33.3l-.2.9h20.6c2.9,0,5.3,2.1,5.6,4.8.3-2.9-2-5.4-5-5.7-.2,0-.4,0-.6,0h-20.5Z"/>
  </g>
  <g class="st13">
    <path class="st8" d="M10.1,16.6h45.5c1.8,0,3.2,1.3,3.2,2.9v26.3c0,1.6-1.5,2.9-3.2,2.9H10.1c-1.8,0-3.2-1.3-3.2-2.9v-26.3c0-1.6,1.5-2.9,3.2-2.9Z"/>
    <path class="st22" d="M10.1,15.6h45.5c1.8,0,3.2,1.3,3.2,2.9v26.3c0,1.6-1.5,2.9-3.2,2.9H10.1c-1.8,0-3.2-1.3-3.2-2.9v-26.3c0-1.6,1.5-2.9,3.2-2.9Z"/>
    <path class="st8" d="M16.5,23.6h31.7c1.5,0,2.9,1.1,2.6,2.4l-2.6,14.2c-.2,1.3-1.2,2.4-2.6,2.4h-26.4c-1.5,0-2.4-1.1-2.6-2.4l-2.6-14.2c-.2-1.3,1.2-2.4,2.6-2.4Z"/>
    <path class="st25" d="M16.5,22.6h31.7c1.5,0,2.9,1.1,2.6,2.4l-2.6,14.2c-.2,1.3-1.2,2.4-2.6,2.4h-26.4c-1.5,0-2.4-1.1-2.6-2.4l-2.6-14.2c-.2-1.3,1.2-2.4,2.6-2.4Z"/>
    <path class="st8" d="M5.1,27.6h5.5c1.3,0,2.3,1,2.3,2.1v5.7c0,1.2-1,2.1-2.3,2.1h-5.5c-1.3,0-2.3-1-2.3-2.1v-5.7c0-1.2,1-2.1,2.3-2.1Z"/>
    <path class="st27" d="M5.1,26.6h5.5c1.3,0,2.3,1,2.3,2.1v5.7c0,1.2-1,2.1-2.3,2.1h-5.5c-1.3,0-2.3-1-2.3-2.1v-5.7c0-1.2,1-2.1,2.3-2.1Z"/>
    <circle class="st9" cx="7.8" cy="31.6" r="3"/>
    <path class="st8" d="M54.1,27.6h5.5c1.3,0,2.3,1,2.3,2.1v5.7c0,1.2-1,2.1-2.3,2.1h-5.5c-1.3,0-2.3-1-2.3-2.1v-5.7c0-1.2,1-2.1,2.3-2.1Z"/>
    <path class="st27" d="M54.1,26.6h5.5c1.3,0,2.3,1,2.3,2.1v5.7c0,1.2-1,2.1-2.3,2.1h-5.5c-1.3,0-2.3-1-2.3-2.1v-5.7c0-1.2,1-2.1,2.3-2.1Z"/>
    <circle class="st9" cx="56.8" cy="31.6" r="3"/>
    <path class="st12" d="M5.1,26.6c-1.3,0-2.3,1-2.3,2.1v1c0-1.2,1-2.1,2.3-2.1h5.5c1.3,0,2.3,1,2.3,2.1v-1c0-1.2-1-2.1-2.3-2.1h-5.5Z"/>
    <path class="st12" d="M54.1,26.6c-1.3,0-2.3,1-2.3,2.1v1c0-1.2,1-2.1,2.3-2.1h5.5c1.3,0,2.3,1,2.3,2.1v-1c0-1.2-1-2.1-2.3-2.1h-5.5Z"/>
    <path class="st8" d="M21.3,27.6c-1.4,0-2.5,1.1-2.5,2.5s1.1,2.5,2.5,2.5,2.5-1.1,2.5-2.5-1.1-2.5-2.5-2.5ZM28.3,27.6c-1.4,0-2.5,1.1-2.5,2.5s1.1,2.5,2.5,2.5,2.5-1.1,2.5-2.5-1.1-2.5-2.5-2.5ZM35.3,27.6c-1.4,0-2.5,1.1-2.5,2.5s1.1,2.5,2.5,2.5,2.5-1.1,2.5-2.5-1.1-2.5-2.5-2.5ZM42.3,27.6c-1.4,0-2.5,1.1-2.5,2.5s1.1,2.5,2.5,2.5,2.5-1.1,2.5-2.5-1.1-2.5-2.5-2.5ZM25.3,33.6c-1.4,0-2.5,1.1-2.5,2.5s1.1,2.5,2.5,2.5,2.5-1.1,2.5-2.5-1.1-2.5-2.5-2.5ZM32.3,33.6c-1.4,0-2.5,1.1-2.5,2.5s1.1,2.5,2.5,2.5,2.5-1.1,2.5-2.5-1.1-2.5-2.5-2.5ZM39.3,33.6c-1.4,0-2.5,1.1-2.5,2.5s1.1,2.5,2.5,2.5,2.5-1.1,2.5-2.5-1.1-2.5-2.5-2.5Z"/>
    <path class="st16" d="M21.3,26.6c-1.4,0-2.5,1.1-2.5,2.5s1.1,2.5,2.5,2.5,2.5-1.1,2.5-2.5-1.1-2.5-2.5-2.5ZM28.3,26.6c-1.4,0-2.5,1.1-2.5,2.5s1.1,2.5,2.5,2.5,2.5-1.1,2.5-2.5-1.1-2.5-2.5-2.5ZM35.3,26.6c-1.4,0-2.5,1.1-2.5,2.5s1.1,2.5,2.5,2.5,2.5-1.1,2.5-2.5-1.1-2.5-2.5-2.5ZM42.3,26.6c-1.4,0-2.5,1.1-2.5,2.5s1.1,2.5,2.5,2.5,2.5-1.1,2.5-2.5-1.1-2.5-2.5-2.5ZM25.3,32.6c-1.4,0-2.5,1.1-2.5,2.5s1.1,2.5,2.5,2.5,2.5-1.1,2.5-2.5-1.1-2.5-2.5-2.5ZM32.3,32.6c-1.4,0-2.5,1.1-2.5,2.5s1.1,2.5,2.5,2.5,2.5-1.1,2.5-2.5-1.1-2.5-2.5-2.5ZM39.3,32.6c-1.4,0-2.5,1.1-2.5,2.5s1.1,2.5,2.5,2.5,2.5-1.1,2.5-2.5-1.1-2.5-2.5-2.5Z"/>
    <path class="st12" d="M16.5,22.6c-1.5,0-2.9,1.1-2.6,2.4v.3c.3-1,1.5-1.7,2.6-1.7h31.7c1.2,0,2.3.7,2.6,1.7v-.3c.3-1.3-1.1-2.4-2.6-2.4h-31.7Z"/>
    <path class="st12" d="M10.1,15.6c-1.8,0-3.2,1.3-3.2,2.9v1c0-1.6,1.4-2.9,3.2-2.9h45.5c1.8,0,3.2,1.3,3.2,2.9v-1c0-1.6-1.4-2.9-3.2-2.9H10.1Z"/>
  </g>
  <g>
    <ellipse class="st8" cx="32" cy="32.6" rx="21.8" ry="21.4"/>
    <ellipse class="st22" cx="32" cy="31.8" rx="21.8" ry="21.4"/>
    <path class="st19" d="M42.6,49.3c-2-1.9-12.6-15.5-10.7-17.5,2-1.9,15.8,8.5,17.8,10.5,2,1.9,2,5.1,0,7-2,1.9-5.1,1.9-7.1,0Z"/>
    <path class="st34" d="M52.1,36.8c-2.8,0-20.1-2.2-20.1-4.9s17.3-4.9,20.1-4.9,5,2.2,5,4.9-2.2,4.9-5,4.9Z"/>
    <path class="st4" d="M49.7,21.4c-2,1.9-15.8,12.4-17.8,10.5s8.7-15.5,10.7-17.5c2-1.9,5.1-1.9,7.1,0,2,1.9,2,5.1,0,7Z"/>
    <path class="st12" d="M46.2,12.9c-1.3,0-2.6.5-3.6,1.4-1.9,1.8-11.6,14.3-10.8,17.1.7-3.9,9.1-14.6,10.8-16.3,1-1,2.3-1.4,3.6-1.4s2.6.5,3.6,1.4c.9.9,1.3,1.9,1.4,3.1.1-1.4-.4-2.8-1.4-3.9-1-1-2.3-1.4-3.6-1.4Z"/>
    <path class="st3" d="M37,12.1c0,2.7-2.2,19.7-5,19.7s-5-17-5-19.7,2.2-4.9,5-4.9,5,2.2,5,4.9Z"/>
    <path class="st28" d="M14.2,21.4c2,1.9,15.8,12.4,17.8,10.5,2-1.9-8.7-15.5-10.7-17.5-2-1.9-5.1-1.9-7.1,0s-2,5.1,0,7Z"/>
    <path class="st7" d="M12.8,18.3c-.1,1.4.4,2.8,1.5,3.9,2,1.9,15.8,12.4,17.8,10.5.2-.2.3-.6.2-1.2,0,.1,0,.3-.2.4-2,1.9-15.8-8.5-17.8-10.5-.9-.9-1.4-2-1.5-3.1Z"/>
    <path class="st24" d="M11.9,36.8c2.8,0,20.1-2.2,20.1-4.9s-17.3-4.9-20.1-4.9-5,2.2-5,4.9,2.2,4.9,5,4.9Z"/>
    <path class="st7" d="M32.2,33c-.7,3.9-9.1,14.6-10.8,16.3-2,1.9-5.1,1.9-7.1,0-.9-.9-1.4-2-1.5-3.1-.1,1.4.4,2.8,1.5,3.9,2,1.9,5.1,1.9,7.1,0,1.9-1.8,11.6-14.2,10.8-17.1Z"/>
    <path class="st7" d="M6.9,32.2c0,.1,0,.3,0,.4,0,2.7,2.2,4.9,5,4.9s20.1-2.2,20.1-4.9,0-.3-.1-.4c-1.6,2.5-17.3,4.5-19.9,4.5s-4.8-2-5-4.5Z"/>
    <path class="st20" d="M21.3,49.3c2-1.9,12.6-15.5,10.7-17.5s-15.8,8.5-17.8,10.5c-2,1.9-2,5.1,0,7,2,1.9,5.1,1.9,7.1,0Z"/>
    <path class="st35" d="M37,51.6c0-2.7-2.2-19.7-5-19.7s-5,17-5,19.7,2.2,4.9,5,4.9,5-2.2,5-4.9Z"/>
    <path class="st19" d="M32,31.8c-.9.9.9,4.3,3.3,7.9,0-2.6-.7-5-1.6-6.4-1.1-.5-1.7-1-1.7-1.5Z"/>
    <path class="st34" d="M32,31.8c0,.5.5,1,1.5,1.4-.1-.9-1-1.4-1.5-1.4Z"/>
    <path class="st12" d="M32,7.1c-2.8,0-5,2.2-5,4.9s0,.3,0,.4c.2-2.5,2.4-4.5,5-4.5s4.8,2,5,4.5c0-.1,0-.3,0-.4,0-2.7-2.2-4.9-5-4.9Z"/>
    <path class="st12" d="M17.8,12.9c-1.3,0-2.6.5-3.6,1.4-1.1,1.1-1.6,2.5-1.4,3.9,0-1.1.6-2.2,1.4-3.1,1-1,2.3-1.4,3.6-1.4s2.6.5,3.6,1.4c1.7,1.7,10.2,12.4,10.8,16.3.8-2.8-9-15.3-10.8-17.1-1-1-2.3-1.4-3.6-1.4Z"/>
    <path class="st7" d="M31.8,33c-.7,2.9,9,15.2,10.8,17.1,2,1.9,5.1,1.9,7.1,0,1.1-1.1,1.6-2.5,1.5-3.9,0,1.1-.6,2.2-1.5,3.1-2,1.9-5.1,1.9-7.1,0s-10.1-12.4-10.8-16.3Z"/>
    <path class="st7" d="M32.1,32.2c0,.1-.1.3-.1.4,0,2.7,17.3,4.9,20.1,4.9s5-2.2,5-4.9,0-.3,0-.4c-.2,2.5-2.4,4.5-5,4.5s-18.4-2-19.9-4.5Z"/>
    <path class="st7" d="M51.2,18.3c0,1.1-.6,2.2-1.5,3.1-2,1.9-15.8,12.4-17.8,10.5s-.2-.2-.2-.4c0,.5,0,1,.2,1.2,2,1.9,15.8-8.5,17.8-10.5,1.1-1.1,1.6-2.5,1.5-3.9Z"/>
    <path class="st7" d="M27,52c0,.1,0,.3,0,.4,0,2.7,2.2,4.9,5,4.9s5-2.2,5-4.9,0-.3,0-.4c-.2,2.5-2.4,4.5-5,4.5s-4.8-2-5-4.5Z"/>
    <path class="st7" d="M26.5,23c-.6.3-.9,1-.7,1.6l.6,1.5c-.5.4-.9.8-1.2,1.2l-1.5-.6c-.6-.3-1.4,0-1.6.7l-.9,2.3c-.3.6,0,1.3.7,1.6l1.5.6c0,.6,0,1.2,0,1.7l-1.5.6c-.6.3-.9,1-.7,1.6l1,2.2c.3.6,1,.9,1.6.7l1.5-.6c.4.5.8.9,1.3,1.2l-.6,1.5c-.3.6,0,1.3.7,1.6l2.3.9c.6.3,1.4,0,1.6-.7l.6-1.5c.6,0,1.2,0,1.8,0l.6,1.5c.3.6,1,.9,1.6.7l2.3-.9c.6-.3.9-1,.7-1.6l-.6-1.5c.5-.4.9-.8,1.2-1.2l1.5.6c.6.3,1.4,0,1.6-.7l.9-2.3c.3-.6,0-1.3-.7-1.6l-1.5-.6c0-.6,0-1.2,0-1.7l1.5-.6c.6-.3.9-1,.7-1.6l-1-2.2c-.3-.6-1-.9-1.6-.7l-1.5.6c-.4-.5-.8-.9-1.3-1.2l.6-1.5c.3-.6,0-1.3-.7-1.6l-2.3-.9c-.6-.3-1.4,0-1.6.7l-.6,1.5c-.6,0-1.2,0-1.8,0l-.6-1.5c-.3-.6-1-.9-1.6-.7l-2.3.9Z"/>
    <path class="st2" d="M26.5,22.2c-.6.3-.9,1-.7,1.6l.6,1.5c-.5.4-.9.8-1.2,1.2l-1.5-.6c-.6-.3-1.4,0-1.6.7l-.9,2.3c-.3.6,0,1.3.7,1.6l1.5.6c0,.6,0,1.2,0,1.7l-1.5.6c-.6.3-.9,1-.7,1.6l1,2.2c.3.6,1,.9,1.6.7l1.5-.6c.4.5.8.9,1.3,1.2l-.6,1.5c-.3.6,0,1.3.7,1.6l2.3.9c.6.3,1.4,0,1.6-.7l.6-1.5c.6,0,1.2,0,1.8,0l.6,1.5c.3.6,1,.9,1.6.7l2.3-.9c.6-.3.9-1,.7-1.6l-.6-1.5c.5-.4.9-.8,1.2-1.2l1.5.6c.6.3,1.4,0,1.6-.7l.9-2.3c.3-.6,0-1.3-.7-1.6l-1.5-.6c0-.6,0-1.2,0-1.7l1.5-.6c.6-.3.9-1,.7-1.6l-1-2.2c-.3-.6-1-.9-1.6-.7l-1.5.6c-.4-.5-.8-.9-1.3-1.2l.6-1.5c.3-.6,0-1.3-.7-1.6l-2.3-.9c-.6-.3-1.4,0-1.6.7l-.6,1.5c-.6,0-1.2,0-1.8,0l-.6-1.5c-.3-.6-1-.9-1.6-.7l-2.3.9Z"/>
    <ellipse class="st8" cx="32" cy="32.6" rx="5" ry="4.9"/>
    <ellipse class="st16" cx="32" cy="31.8" rx="5" ry="4.9"/>
  </g>
</svg>