<?xml version="1.0" encoding="UTF-8"?>
<svg id="_图层_1" xmlns="http://www.w3.org/2000/svg" version="1.1" viewBox="0 0 64 64" width="24" height="24">
  <!-- Generator: Adobe Illustrator 29.0.1, SVG Export Plug-In . SVG Version: 2.1.0 Build 192)  -->
  <defs>
    <style>
      .st0, .st1, .st2 {
        isolation: isolate;
        opacity: .2;
      }

      .st0, .st3, .st2 {
        display: none;
      }

      .st4, .st2 {
        fill: #fff;
      }

      .st5 {
        fill: #8561c5;
      }

      .st6, .st3 {
        fill: #74d159;
      }
    </style>
  </defs>
  <path class="st6" d="M50.3,64H13.9C6.3,64,.2,57.8.2,50.3V13.8C.2,6.2,6.3,0,13.9,0h36.5c7.5,0,13.7,6.2,13.7,13.7v36.5c0,7.5-6.1,13.7-13.7,13.7h0Z"/>
  <g>
    <path class="st0" d="M2.5,52.1v2c0,1.7,1.3,3,3,3h50c1.7,0,3-1.3,3-3v-2c0,1.7-1.3,3-3,3H5.5c-1.7,0-3-1.3-3-3Z"/>
    <rect class="st3" x="2.5" y="8.1" width="56" height="48" rx="3" ry="3"/>
    <path class="st2" d="M5.5,8.1c-1.7,0-3,1.3-3,3v1c0-1.7,1.3-3,3-3h50c1.7,0,3,1.3,3,3v-1c0-1.7-1.3-3-3-3H5.5Z"/>
    <path class="st1" d="M10.5,15.1v2h-1c-1.7,0-3,1.3-3,3s1.3,3,3,3h1v2h-3.8c.4,1.2,1.5,2,2.8,2h1v2h2v-2h1c1.7,0,3-1.3,3-3s-1.3-3-3-3h-1v-2h3.8c-.4-1.2-1.5-2-2.8-2h-1v-2h-2ZM9.5,19.1h1v2h-1c-.6,0-1-.4-1-1s.4-1,1-1ZM12.5,23.1h1c.6,0,1,.4,1,1s-.4,1-1,1h-1v-2ZM20.5,27.1v2h12v-2h-12Z"/>
    <path class="st4" d="M10.5,14.1v2h-1c-1.7,0-3,1.3-3,3s1.3,3,3,3h1v2h-3.8c.4,1.2,1.5,2,2.8,2h1v2h2v-2h1c1.7,0,3-1.3,3-3s-1.3-3-3-3h-1v-2h3.8c-.4-1.2-1.5-2-2.8-2h-1v-2h-2ZM9.5,18.1h1v2h-1c-.6,0-1-.4-1-1s.4-1,1-1ZM12.5,22.1h1c.6,0,1,.4,1,1s-.4,1-1,1h-1v-2ZM20.5,26.1v2h12v-2h-12Z"/>
    <path class="st1" d="M62.5,46c-.5,8.5-7.5,15.1-16,15.2-8.4,0-15.4-6.5-16-14.8,0,.3,0,.6,0,.8,0,8.8,7.2,16,16,16s16-7.2,16-16c0-.4,0-.8,0-1.2Z"/>
    <circle class="st5" cx="46.5" cy="46.1" r="16"/>
    <path class="st4" d="M44.5,38.1l-.2,2.1c-.7.2-1.3.6-1.8,1.1l-1.9-.9-2,3.5,1.7,1.2c0,.4,0,.7,0,1.1,0,.4,0,.7,0,1.1l-1.7,1.2,2,3.5,1.9-.9c.5.5,1.2.8,1.8,1.1l.2,2.1h4l.2-2.1c.7-.2,1.3-.6,1.8-1.1l1.9.9,2-3.5-1.7-1.2c0-.4,0-.7,0-1.1,0-.4,0-.7,0-1.1l1.7-1.2-2-3.5-1.9.9c-.5-.5-1.2-.8-1.8-1.1l-.2-2.1h-4ZM46.5,43.9c1.3,0,2.3,1,2.3,2.3h0c0,1.3-1,2.3-2.3,2.3h0c-1.3,0-2.3-1-2.3-2.3h0c0-1.3,1-2.3,2.3-2.3h0Z"/>
  </g>
</svg>