<?xml version="1.0" encoding="UTF-8"?>
<svg id="_图层_1" xmlns="http://www.w3.org/2000/svg" version="1.1" viewBox="0 0 64 64" width="24" height="24">
  <!-- Generator: Adobe Illustrator 29.0.1, SVG Export Plug-In . SVG Version: 2.1.0 Build 192)  -->
  <defs>
    <style>
      .st0, .st1, .st2, .st3 {
        isolation: isolate;
      }

      .st0, .st1, .st4 {
        display: none;
      }

      .st0, .st5, .st2, .st3 {
        opacity: .2;
      }

      .st1 {
        opacity: .1;
      }

      .st1, .st6, .st3 {
        fill: #fff;
      }

      .st7 {
        fill: #a45390;
      }

      .st8 {
        fill: #6db832;
      }

      .st9 {
        fill: #c2352a;
      }

      .st10 {
        fill: #4987d7;
      }

      .st11 {
        fill: #5584bb;
      }
    </style>
  </defs>
  <path class="st6" d="M50.3,64H13.8c-7.6,0-13.8-6.2-13.8-13.7V13.7C0,6.2,6.2,0,13.7,0h36.5c7.5,0,13.7,6.2,13.7,13.7v36.6c0,7.5-6.2,13.7-13.7,13.7h0Z"/>
  <g class="st4">
    <path class="st0" d="M0,59.5v2.3c0,1.9,1.5,3.4,3.4,3.4h57.4c1.9,0,3.4-1.5,3.4-3.4v-2.3c0,1.9-1.5,3.4-3.4,3.4H3.4C1.5,63,0,61.4,0,59.5Z"/>
    <path class="st10" d="M3.2-.1C2.3-.1,1.5.3.9.8l31.2,31.2L63.3.8c-.6-.6-1.4-.9-2.3-.9H3.2h0Z"/>
    <path class="st7" d="M3.2,64.1c-.9,0-1.7-.4-2.3-.9l31.2-31.2,31.2,31.2c-.6.6-1.4.9-2.3.9H3.2h0Z"/>
    <path class="st8" d="M64.2,3.1c0-.9-.4-1.7-.9-2.3l-31.2,31.2,31.2,31.2c.6-.6.9-1.4.9-2.3V3.1h0Z"/>
    <path class="st9" d="M0,3.1C0,2.2.4,1.4.9.8l31.2,31.2L.9,63.2c-.6-.6-.9-1.4-.9-2.3V3.1h0Z"/>
    <path class="st2" d="M35,5.6c-1.4,0-2.5.2-3.6.5-1,.3-1.9.8-2.6,1.3-.7.6-1.3,1.2-1.8,2-.5.8-.8,1.3-1.1,2.1-.3.9-.5,1.8-.6,2.8-.1,1-.2,1.9-.2,2.9h0c0,1.5.2,2.9.5,4,.4,1.1.9,2,1.5,2.8.7.7,1.4,1.3,2.3,1.7.9.4,1.8.5,2.8.5s2-.2,2.8-.5c.8-.3,1.5-.8,2.1-1.4.6-.6,1-1.4,1.3-2.2.3-.9.5-1.9.5-3s-.1-2-.4-2.8c-.3-.8-.6-1.6-1.1-2.1-.5-.6-1.1-1-1.8-1.3-.7-.3-1.5-.4-2.4-.4s-1.1,0-1.5.2c-.4.1-.8.3-1.2.5-.4.2-.7.6-.9.9-.3.3-.5.6-.7.9h-.2c0-1,.2-1.8.4-2.6.2-.8.5-1.1,1-1.7.5-.6,1.1-1,1.9-1.3.8-.3,1.8-.5,3.1-.5s.8,0,1.2,0c.4,0,.8.1,1.1.2v-3.5c-.2,0-.4,0-.6,0-.2,0-.5,0-.7,0-.2,0-.5,0-.7,0s-.4,0-.6,0ZM32.4,16c.8,0,1.5.3,1.9.9.4.6.6,1.4.6,2.4s0,1.1-.2,1.6c-.1.4-.3.8-.5,1.1-.2.3-.5.5-.8.7-.3.1-.7.2-1,.2s-.9-.1-1.2-.4c-.3-.2-.6-.5-.9-.9-.2-.4-.4-.8-.5-1.3-.1-.5-.2-1-.2-1.4s0-.7.2-1c.1-.3.3-.6.6-.9.3-.3.6-.5.9-.7.4-.2.7-.3,1.2-.3ZM47,24v10.3l1,.9c.2,0,.4-.1.6-.2.2,0,.5-.1.8-.2.3,0,.5,0,.8-.1.3,0,.5,0,.8,0,1.3,0,2.3.3,3,.8.6.5,1,1.3,1,2.3s-.3,2-1,2.5c-.7.5-1.6.8-2.9.8s-.9,0-1.3,0c-.5,0-.9-.2-1.4-.3-.5-.1-.9-.3-1.3-.4-.4-.2-.8-.3-1.1-.5v3.7c.3.2.7.3,1.1.5.4.1.9.3,1.3.3.5,0,1,.2,1.5.2.5,0,1,0,1.5,0,1.3,0,2.4-.2,3.4-.5,1-.3,1.8-.8,2.5-1.4.7-.6,1.2-1.4,1.5-2.2.3-.9.5-1.9.5-3s-.2-1.9-.5-2.7c-.3-.8-.8-1.4-1.3-2-.6-.5-1.2-.9-2-1.2-.8-.3-1.6-.4-2.5-.4h0c-.6,0-1.1,0-1.5.1-.4,0-.7.1-1,.2l.3-4.1h6.5v-3.4h-10.3ZM11.5,24.1c-.8,0-1.6,0-2.2.3-.7.2-1.3.4-1.8.6-.6.3-1.1.6-1.5.9-.5.3-.9.5-1.3.9l2.4,2.8c.7-.7,1.5-1.2,2.1-1.6.7-.4,1.4-.5,2.1-.5s1.3.2,1.7.6c.4.4.6.9.6,1.6s0,1.2-.3,1.7c-.2.5-.5,1.1-.8,1.6-.4.5-.8,1.1-1.3,1.6-.5.6-1,1.2-1.7,1.8l-4.8,5.4v2.8h13.7v-3.4h-8.3v-.2l2.5-2.7c.7-.7,1.4-1.4,2-2.1.6-.7,1.2-1.4,1.7-2.1.5-.7.9-1.4,1.1-2.2.3-.7.4-1.5.4-2.3s-.1-1.7-.4-2.4c-.3-.7-.7-1.1-1.3-1.6-.6-.5-1.2-.9-2-1.2-.8-.3-1.7-.4-2.6-.4ZM25.2,42.5v3.2h9.4l-7.3,17.2h4.5l7.1-17.7v-2.7h-13.8Z"/>
    <path class="st6" d="M35,4.5c-1.4,0-2.5.2-3.6.5-1,.3-1.9.8-2.6,1.3-.7.6-1.3,1.2-1.8,2-.5.8-.8,1.3-1.1,2.1-.3.9-.5,1.8-.6,2.8-.1,1-.2,1.9-.2,2.9h0c0,1.5.2,2.9.5,4,.4,1.1.9,2,1.5,2.8.7.7,1.4,1.3,2.3,1.7.9.4,1.8.5,2.8.5s2-.2,2.8-.5c.8-.3,1.5-.8,2.1-1.4.6-.6,1-1.4,1.3-2.2.3-.9.5-1.9.5-3s-.1-2-.4-2.8c-.3-.8-.6-1.6-1.1-2.1-.5-.6-1.1-1-1.8-1.3-.7-.3-1.5-.4-2.4-.4s-1.1,0-1.5.2c-.4.1-.8.3-1.2.5-.4.2-.7.6-.9.9-.3.3-.5.6-.7.9h-.2c0-1,.2-1.8.4-2.6.2-.8.5-1.1,1-1.7.5-.6,1.1-1,1.9-1.3.8-.3,1.8-.5,3.1-.5s.8,0,1.2,0c.4,0,.8.1,1.1.2v-3.5c-.2,0-.4,0-.6,0-.2,0-.5,0-.7,0-.2,0-.5,0-.7,0s-.4,0-.6,0ZM32.4,14.9c.8,0,1.5.3,1.9.9.4.6.6,1.4.6,2.4s0,1.1-.2,1.6c-.1.4-.3.8-.5,1.1-.2.3-.5.5-.8.7-.3.1-.7.2-1,.2s-.9-.1-1.2-.4c-.3-.2-.6-.5-.9-.9-.2-.4-.4-.8-.5-1.3-.1-.5-.2-1-.2-1.4s0-.7.2-1c.1-.3.3-.6.6-.9.3-.3.6-.5.9-.7.4-.2.7-.3,1.2-.3ZM47,22.8v10.3l1,.9c.2,0,.4-.1.6-.2.2,0,.5-.1.8-.2.3,0,.5,0,.8-.1.3,0,.5,0,.8,0,1.3,0,2.3.3,3,.8.6.5,1,1.3,1,2.3s-.3,2-1,2.5c-.7.5-1.6.8-2.9.8s-.9,0-1.3,0c-.5,0-.9-.2-1.4-.3-.5-.1-.9-.3-1.3-.4-.4-.2-.8-.3-1.1-.5v3.7c.3.2.7.3,1.1.5.4.1.9.3,1.3.3.5,0,1,.2,1.5.2.5,0,1,0,1.5,0,1.3,0,2.4-.2,3.4-.5,1-.3,1.8-.8,2.5-1.4.7-.6,1.2-1.4,1.5-2.2.3-.9.5-1.9.5-3s-.2-1.9-.5-2.7c-.3-.8-.8-1.4-1.3-2-.6-.5-1.2-.9-2-1.2-.8-.3-1.6-.4-2.5-.4h0c-.6,0-1.1,0-1.5.1-.4,0-.7.1-1,.2l.3-4.1h6.5v-3.4h-10.3ZM11.5,22.9c-.8,0-1.6,0-2.2.3-.7.2-1.3.4-1.8.6-.6.3-1.1.6-1.5.9-.5.3-.9.5-1.3.9l2.4,2.8c.7-.7,1.5-1.2,2.1-1.6.7-.4,1.4-.5,2.1-.5s1.3.2,1.7.6c.4.4.6.9.6,1.6s0,1.2-.3,1.7c-.2.5-.5,1.1-.8,1.6-.4.5-.8,1.1-1.3,1.6-.5.6-1,1.2-1.7,1.8l-4.8,5.4v2.8h13.7v-3.4h-8.3v-.2l2.5-2.7c.7-.7,1.4-1.4,2-2.1.6-.7,1.2-1.4,1.7-2.1.5-.7.9-1.4,1.1-2.2.3-.7.4-1.5.4-2.3s-.1-1.7-.4-2.4c-.3-.7-.7-1.1-1.3-1.6-.6-.5-1.2-.9-2-1.2-.8-.3-1.7-.4-2.6-.4ZM25.2,41.4v3.2h9.4l-7.3,17.2h4.5l7.1-17.7v-2.7h-13.8Z"/>
    <path class="st1" d="M3.4-.1C1.5-.1,0,1.4,0,3.3v1.1C0,2.6,1.5,1,3.4,1h57.4c1.9,0,3.4,1.5,3.4,3.4v-1.1c0-1.9-1.5-3.4-3.4-3.4H3.4Z"/>
  </g>
  <g>
    <path class="st2" d="M8.4,32.1c0,.3,0,.6,0,.9,0,13.4,10.9,24.1,24.5,24.1s24.5-10.8,24.5-24.1,0-.6,0-.9c-.5,13-11.2,23.3-24.5,23.3s-24-10.3-24.5-23.3h0Z"/>
    <path class="st11" d="M32.9,7.9h0c13.5,0,24.5,10.8,24.5,24.1h0c0,13.3-11,24.1-24.5,24.1h0c-13.5,0-24.5-10.8-24.5-24.1h0c0-13.3,11-24.1,24.5-24.1Z"/>
    <path class="st3" d="M32.9,7.9c-13.6,0-24.5,10.8-24.5,24.1s0,.2,0,.3c.3-13.1,11.1-23.6,24.5-23.6s24.2,10.5,24.5,23.6c0,0,0-.2,0-.3,0-13.4-10.9-24.1-24.5-24.1Z"/>
    <path class="st2" d="M25.9,21c-6.1,3.5-8.6,10.9-5.9,17.3l24-13.7c-4.3-5.5-12-7.1-18.1-3.6h0ZM21.8,41.3c4.3,5.5,12,7.1,18.1,3.6,6.1-3.5,8.6-10.9,5.9-17.3,0,0-24,13.7-24,13.7Z"/>
    <path class="st6" d="M25.9,20.1c-6.1,3.5-8.6,10.9-5.9,17.3l24-13.7c-4.3-5.5-12-7.1-18.1-3.6h0ZM21.8,40.4c4.3,5.5,12,7.1,18.1,3.6,6.1-3.5,8.6-10.9,5.9-17.3l-24,13.7Z"/>
    <g class="st5">
      <rect x="29.4" y="12.2" width="7" height="3.4"/>
      <rect x="29.4" y="50.2" width="7" height="3.4"/>
      <rect x="50.4" y="29.5" width="3.5" height="6.9"/>
      <rect x="11.9" y="29.5" width="3.5" height="6.9"/>
      <polygon points="45.3 15.9 50.2 20.7 47.8 23.2 42.8 18.3 45.3 15.9"/>
      <polygon points="18.1 42.7 23 47.6 20.5 50 15.6 45.1 18.1 42.7"/>
      <polygon points="50.2 45.1 45.3 50 42.8 47.6 47.8 42.7 50.2 45.1"/>
      <polygon points="23 18.3 18.1 23.2 15.6 20.7 20.5 15.9 23 18.3"/>
    </g>
    <g>
      <rect class="st6" x="29.4" y="11.4" width="7" height="3.4"/>
      <rect class="st6" x="29.4" y="49.3" width="7" height="3.4"/>
      <rect class="st6" x="50.4" y="28.6" width="3.5" height="6.9"/>
      <rect class="st6" x="11.9" y="28.6" width="3.5" height="6.9"/>
      <polygon class="st6" points="45.3 15 50.2 19.9 47.8 22.3 42.8 17.4 45.3 15"/>
      <polygon class="st6" points="18.1 41.8 23 46.7 20.5 49.1 15.6 44.3 18.1 41.8"/>
      <polygon class="st6" points="50.2 44.3 45.3 49.1 42.8 46.7 47.8 41.8 50.2 44.3"/>
      <polygon class="st6" points="23 17.4 18.1 22.3 15.6 19.9 20.5 15 23 17.4"/>
    </g>
  </g>
</svg>