<?xml version="1.0" encoding="UTF-8"?>
<svg id="_图层_1" xmlns="http://www.w3.org/2000/svg" version="1.1" viewBox="0 0 64 64" width="24" height="24">
  <!-- Generator: Adobe Illustrator 29.0.1, SVG Export Plug-In . SVG Version: 2.1.0 Build 192)  -->
  <defs>
    <style>
      .st0 {
        fill: #62a325;
      }

      .st1 {
        fill: #0f7b9f;
      }

      .st2 {
        fill: #838383;
      }

      .st3, .st4, .st5 {
        fill-rule: evenodd;
      }

      .st3, .st6, .st7, .st8, .st9, .st10, .st11 {
        isolation: isolate;
      }

      .st3, .st9, .st10 {
        opacity: .2;
      }

      .st12 {
        fill: #3f3f3f;
      }

      .st13, .st4, .st10, .st11 {
        fill: #fff;
      }

      .st5 {
        fill: #e4e4e4;
      }

      .st14 {
        fill: #001c41;
      }

      .st6, .st11 {
        opacity: .1;
      }

      .st7 {
        opacity: .4;
      }

      .st15 {
        fill: #394e9a;
      }

      .st8 {
        opacity: .3;
      }

      .st16 {
        fill: #67a1fd;
      }

      .st17 {
        display: none;
      }

      .st18 {
        fill: #2aa2f6;
      }

      .st19 {
        fill: #216bcc;
      }

      .st20 {
        fill: #0f9f98;
      }
    </style>
  </defs>
  <path class="st13" d="M47.5,64.1H13.8c-7.6,0-13.8-6.3-13.8-13.8V13.7C0,6.2,6.2,0,13.7,0h36.6c7.5,0,13.7,6.2,13.7,13.7v36.6c0,7.5-6.2,13.7-13.7,13.7h-2.9.1Z"/>
  <g class="st17">
    <path class="st9" d="M32.1,5.5h0c-1.2,0-2.3.3-3.3.9l-18.7,10.9c-1.8,1.1-3,3-3.1,5.1,0,0,0,0,0,0,0,0,0,0,0,0,0,0,0,0,0,0,0,0,0,0,0,0,0,0,0,0,0,0,0,0,0,0,0,0,0,0,0,0,0,0v21.8c0,2.3,1.2,4.4,3.2,5.5l18.7,10.8c1,.6,2.1.8,3.2.9,1.1,0,2.2-.3,3.2-.9l18.7-10.8c2-1.1,3.2-3.2,3.2-5.5v-21.8s0,0,0,0c0,0,0,0,0,0,0,0,0,0,0,0,0,0,0,0,0,0-.1-2.1-1.3-4-3.1-5.1l-18.7-10.9c-.9-.5-2-.8-3-.9Z"/>
    <path class="st1" d="M32.1,5.2h0c-1.1,0-2.3.3-3.2.8l-18.2,10.5c-1.8,1-2.9,2.9-3.1,5,0,0,0,0,0,0,0,0,0,0,0,0,0,0,0,0,0,0,0,0,0,0,0,.1v21.2c0,2.2,1.2,4.3,3.1,5.4l18.2,10.5c1,.6,2,.8,3.1.8,1.1,0,2.1-.3,3.1-.8l18.2-10.5c1.9-1.1,3.1-3.2,3.1-5.4v-21.2s0,0,0-.1c0,0,0,0,0,0-.1-2.1-1.3-4-3.1-5l-18.2-10.5c-.9-.5-1.9-.8-2.9-.8ZM56.3,22.3c0,0,0,.1,0,.2,0,0,0-.1,0-.2ZM56.1,23s0,0,0,.1c0,0,0,0,0-.1ZM55.5,24.4s0,0,0,.1c0,0,0,0,0-.1ZM55,25c0,0,0,.1-.1.2,0,0,0-.1.1-.2ZM54.6,25.5c0,0-.1.1-.2.2,0,0,.1-.1.2-.2ZM54.1,26c0,0-.1.1-.2.2,0,0,.1-.1.2-.2ZM34.4,37.4s0,0,0,0c0,0,0,0,0,0ZM32.8,37.9s0,0,0,0c0,0,0,0,0,0Z"/>
    <path class="st20" d="M57,21.4c-.2,2.1-1.3,4-3.1,5l-18.7,10.8c-1,.6-2.1.8-3.2.8v22.4c1.1,0,2.2-.3,3.2-.9l18.7-10.8c2-1.1,3.2-3.2,3.2-5.5v-21.8s0,0,0-.1h0Z"/>
    <path class="st16" d="M7,21.3s0,0,0,0c0,0,0,0,0,0,0,0,0,0,0,.1v21.8c0,2.3,1.2,4.4,3.2,5.5l18.7,10.8c1,.6,2.1.8,3.2.9v-22.4s0,0,0,0c-.2,0-.3,0-.5,0,0,0,0,0-.1,0-.2,0-.3,0-.5,0,0,0,0,0,0,0-.2,0-.3,0-.5-.1,0,0-.1,0-.2,0-.1,0-.2,0-.3-.1,0,0-.2,0-.3-.1,0,0-.2,0-.3-.1-.1,0-.2-.1-.4-.2l-18.7-10.8c-.2-.1-.4-.2-.5-.3h0s0,0,0,0c-.2-.1-.3-.2-.5-.4,0,0-.1-.1-.2-.2,0,0-.2-.1-.2-.2,0,0-.2-.2-.2-.3,0,0-.1-.1-.2-.2,0-.1-.1-.2-.2-.3,0,0,0-.1-.1-.2,0-.1-.1-.2-.2-.4,0,0,0-.1-.1-.2,0-.1-.1-.2-.2-.4,0,0,0-.1,0-.2,0,0,0-.2,0-.3,0-.1,0-.2-.1-.4,0,0,0-.1,0-.2,0-.2,0-.3,0-.5,0-.2,0-.4,0-.6Z"/>
    <path class="st19" d="M32.1,4.5h0c-1.2,0-2.3.3-3.3.9l-18.7,10.9c-1.8,1.1-3,3-3.2,5.2.1,2.2,1.3,4.1,3.2,5.2l18.7,10.9c2,1.2,4.4,1.2,6.3,0l18.7-10.9c1.8-1.1,3-3,3.2-5.2-.1-2.2-1.3-4.1-3.2-5.2l-18.7-10.9c-.9-.5-2-.8-3-.9Z"/>
    <path class="st9" d="M29,11.5v6h6v-6h-6ZM29,20.5v14h6v-14h-6ZM13.1,33.7c-1.9,0-3.1,1.1-3.1,3.1v4c0,3.3,3.2,7.9,7.1,10.2l11.9,7v-4l-11.9-7c-1.4-.8-2.4-2.2-2.4-3.4v-4c0-1.2,1-1.4,2.4-.6l11.9,7v-4l-11.9-7c-1.5-.9-2.9-1.3-4-1.3ZM50.9,33.8c-1.1,0-2.5.5-4,1.3l-2.4,1.4-2.4,1.4c-3.9,2.3-7.1,6.9-7.1,10.2v4c0,3.3,3.2,4.1,7.1,1.8l2.4-1.4v-4l-2.4,1.4c-1.4.8-2.4.6-2.4-.6l4.7-2.8,4.7-2.8,4.8-2.8v-4c0-2.1-1.2-3.2-3.1-3.1ZM48.2,38.6c.6,0,1,.3,1,1.1l-9.5,5.6c0-1.2,1-2.6,2.4-3.4l2.4-1.4,2.4-1.4c.5-.3,1-.5,1.4-.5Z"/>
    <path class="st13" d="M29,10.5v6h6v-6h-6ZM29,19.5v14h6v-14h-6ZM13.1,32.7c-1.9,0-3.1,1.1-3.1,3.1v4c0,3.3,3.2,7.9,7.1,10.2l11.9,7v-4l-11.9-7c-1.4-.8-2.4-2.2-2.4-3.4v-4c0-1.2,1-1.4,2.4-.6l11.9,7v-4l-11.9-7c-1.5-.9-2.9-1.3-4-1.3ZM50.9,32.8c-1.1,0-2.5.5-4,1.3l-2.4,1.4-2.4,1.4c-3.9,2.3-7.1,6.9-7.1,10.2v4c0,3.3,3.2,4.1,7.1,1.8l2.4-1.4v-4l-2.4,1.4c-1.4.8-2.4.6-2.4-.6l4.7-2.8,4.7-2.8,4.8-2.8v-4c0-2.1-1.2-3.2-3.1-3.1ZM48.2,37.6c.6,0,1,.3,1,1.1l-9.5,5.6c0-1.2,1-2.6,2.4-3.4l2.4-1.4,2.4-1.4c.5-.3,1-.5,1.4-.5Z"/>
    <path class="st6" d="M7.1,22c0,.2,0,.3,0,.5.1,2.2,1.3,4.1,3.2,5.2l18.7,10.9c2,1.2,4.4,1.2,6.3,0l18.7-10.9c1.8-1.1,3-3,3.2-5.2,0-.2,0-.3,0-.5-.3,1.9-1.4,3.7-3.1,4.6l-18.7,10.9c-2,1.2-4.4,1.2-6.3,0l-18.7-10.9c-1.7-1-2.8-2.7-3.1-4.7Z"/>
    <path class="st11" d="M32.1,4.5h0c-1.2,0-2.3.3-3.3.9l-18.7,10.9c-1.8,1.1-3,3-3.2,5.2,0,.3,0,.7.1,1,.4-1.8,1.5-3.3,3-4.2L28.8,7.3c1-.6,2.2-.9,3.3-.9h0c1.1,0,2.1.3,3,.9l18.7,10.9c1.5.9,2.6,2.4,3,4.2,0-.3.1-.7.1-1-.1-2.2-1.3-4.1-3.2-5.2l-18.7-10.9c-.9-.5-2-.8-3-.9Z"/>
  </g>
  <g class="st17">
    <ellipse class="st9" cx="29.8" cy="35.9" rx="22.1" ry="20.7"/>
    <ellipse class="st15" cx="29.8" cy="35.1" rx="22.1" ry="20.7"/>
    <path class="st7" d="M16.1,18.8c-3,2-5.9,5-7.5,11l1.3-1.7c1.1.1,1.9.7,2.5,1.5l.5.6h.5c0-.1.8.5.8.5v-.5c0,0,.4.6.4.6l.4.3h.3c0-.1,1.2.5,1.2.5l.8-1-.2-.2h.8c0,0,.3-1.2.3-1.2l-.7.6h-.8c0,0,0-.5,0-.5h-.2l-.4-.8h-.3c0,.1-.1.6-.1.6h-.3c0,0,.1-1.1.1-1.1l-.7-.2-.2-.3.4-.2v-.2l-.4-.2.4-.6v-1c0,0-.5,0-.5,0l.5-.8v-1.2c0,0-.2-.1-.2-.1v-.2c0,0,.3-.2.3-.2v-1.3c.4-1.1.8-1.1,1.3-1.5v-1.2h0ZM28.2,28v.6c0,0-.3,1.2-.3,1.2l-.8.7.2.9h.8c0,0,0,.3,0,.3l-.4.2v.7l-.2.3v.5c.1,0-.8,0-.8,0v.4c0,0-2.2-.2-2.2-.2.3-.6,1.2-.9-1-2.5h-1.5c0,0,0-.9,0-.9l-.5-.8-.2,1.6.5.5v.6c1.2.4,1,.8,1.2,1.2h.4c0,0,.2-.6.2-.6l-1.5-.9.7.2,1,.6v1.5c0,0-.5.2-.5.2l.4.8-.2.5h-.4v.4c-.1,0,0,.6,0,.6h.5c0,0,.5-.6.5-.6l.5.7-.4.5.4.6h.3v.9c.1,0,1.8.9,1.8.9h.4v-.6h.5c0,0,.7.6.7.6v-.9h-.3v-.8h.5l.5-1.3,2.2,1.5c0,.4.2.9-.2,1.2.5.5,1.1,1.1.5,1.5-.6.5-.7,1,.2,1.3l1.6.2.9-.4,1.3-.2,3.4-4.5v-3.1c-.3-.2-.7-.4-1.2-1.3l-1.8-.2s.4-.3.6-.2c.2.1,1.3,0,1.3,0v-1l-.7-.5.2-1.1-.5-.5-8.6-1.2h0ZM46.7,42.5l-.6.6v.9c-.1,0-.7.9-.7.9v.6c0,0-.3.3-.3.3h0s0,0,0,0h0s0,0,0,0v.5c0,0-.3,0-.3,0l-.6.6-.5.4h-.3c0,0-.6.1-.6.1v.2s-.2.4-.2.4c-.2,0-1.5.2-1.6,0,0,0-.2,0-.3.1h0c-.2.2-.4.4-.7.6h0s-1,.8-1,.8v1c0,0-.5.6-.5.6,1.1.2,2,0,2.7,0,2.6-.2,4.5-1,5.6-2.7l-.2-.4,1.1-.6v-.8c0,0,.4-.1.4-.1l.2-1.3.5-1.1-.2-1.6-1.3.2-.6-.4h0Z"/>
    <path class="st9" d="M28.2,8.3c-11.3,0-16.6,8.3-18.6,19.5,4.9-7.1,7.8-8.1,9.2-8.6,1.1-.4,2-.5,2.9-.5,5.2.2,5.9,6.4,7.1,13.1.8,2.8,2.7,8.7,6.2,11.4,1,.7,2.1,1.8,3.2,1.4,1-.4,1.2-1.9.4-3.5-.6-1.9-1.8-3.6-2.5-5.7-1.4-4.3-2.2-5.5-.7-9.6.8-2.2,2.5-4.3,3.3-3.3l1.6,1.8c1.4,2.5,3.6,4.8,6.3,5.9,1.6.7,2.4.9,4.1.2,1.3-.8.4-3.8,1.8-6.4,1.1-2,2.1-3.1,2-5.2.4-.2.6-.5.7-.9,0-.2.2-.6.6-.9,1.2-.9,1.9-1.9,1.6-3.5l-7.2,1.8h-2.7l-1.1-3.4c-.6-.7-.9-1.6-1.8-1.8l-1.2,3.3c-4-1.6-8-4.9-15.3-5ZM15.7,32.5c-.3,0-.7,0-1,.3-1.6,1.1-1.4,2.7-1.3,4.6,1.5,11.2,11.7,19.1,23.7,19.3,6.3-.2,12.4-2.8,13-8.4,0-1.3,0-2.6-.3-3.9-1.9,4-5.9,8-11.5,7.1-12.4-2-14.9-7.4-20-17.1-.7-1-1.5-1.8-2.5-1.8Z"/>
    <path class="st18" d="M28.2,7.4c-11.3,0-16.6,8.3-18.6,19.5,4.9-7.1,7.8-8.1,9.2-8.6,1.1-.4,2-.5,2.9-.5,5.2.2,5.9,6.4,7.1,13.1.8,2.8,2.7,8.7,6.2,11.4,1,.7,2.1,1.8,3.2,1.4,1-.4,1.2-1.9.4-3.5-.6-1.9-1.8-3.6-2.5-5.7-1.4-4.3-2.2-5.5-.7-9.6.8-2.2,2.5-4.3,3.3-3.3l1.6,1.8c1.4,2.5,3.6,4.8,6.3,5.9,1.6.7,2.4.9,4.1.2,1.3-.8.4-3.8,1.8-6.4,1.1-2,2.1-3.1,2-5.2.4-.2.6-.5.7-.9,0-.2.2-.6.6-.9,1.2-.9,1.9-1.9,1.6-3.5l-7.2,1.8h-2.7l-1.1-3.4c-.6-.7-.9-1.6-1.8-1.8l-1.2,3.3c-4-1.6-8-4.9-15.3-5ZM15.7,31.7c-.3,0-.7,0-1,.3-1.6,1.1-1.4,2.7-1.3,4.6,1.5,11.2,11.7,19.1,23.7,19.3,6.3-.2,12.4-2.8,13-8.4,0-1.3,0-2.6-.3-3.9-1.9,4-5.9,8-11.5,7.1-12.4-2-14.9-7.4-20-17.1-.7-1-1.5-1.8-2.5-1.8Z"/>
    <path class="st14" d="M44.6,23c2.9,2.3,2.7,2.6,2.7,2.6,0-.4,0-.8,0-1.5-1.1-.8-1.9-.8-2.8-1.1h0Z"/>
    <path class="st14" d="M47.9,28.5l.9-.4h1.6c-.4.5-.8.7-1.1.7-.2,0-.5,0-1.4-.2,0,0,.1-.2.1-.2Z"/>
    <path class="st10" d="M28.2,7.4c-11.3,0-16.6,8.3-18.6,19.5,0-.1.2-.2.2-.3,2.1-10.6,7.4-18.3,18.4-18.3,7.3.1,11.3,3.4,15.3,5l1.2-3.3c.8.2,1.2,1.1,1.8,1.8l1.1,3.4h2.7l7.2-1.7c0,0,0,.2,0,.3,0-.3,0-.7,0-1.1l-7.2,1.7h-2.7l-1.1-3.4c-.6-.7-.9-1.6-1.8-1.8l-1.2,3.3c-4-1.6-8-4.9-15.3-5ZM34.6,29c-.1,1.9.5,3.4,1.5,6.3.7,2.1,1.9,3.8,2.5,5.7.3.5.4,1,.5,1.5.1-.7,0-1.5-.5-2.3-.6-1.9-1.8-3.6-2.5-5.7-.8-2.4-1.4-3.9-1.5-5.4ZM15.7,31.7c-.3,0-.7,0-1,.3-1.3.9-1.4,2.1-1.4,3.6,0-1.1.3-2,1.4-2.7.4-.2.7-.3,1-.3,1,0,1.8.8,2.5,1.8,5.1,9.7,7.6,15.1,20,17.1,5.6.9,9.6-3.1,11.5-7.1.2.8.3,1.7.3,2.5,0-1.1,0-2.3-.3-3.4-1.9,4-5.9,8-11.5,7.1-12.4-2-14.9-7.4-20-17.1-.7-1-1.5-1.8-2.5-1.8Z"/>
  </g>
  <g>
    <path class="st9" d="M57,32.5h0c0-13.2-10.8-24-24.2-24h0c-13.3,0-24.2,10.7-24.2,24h0c0,13.2,10.8,24,24.2,24h0c13.3,0,24.2-10.7,24.2-24Z"/>
    <ellipse class="st0" cx="32.9" cy="31.6" rx="24.2" ry="24"/>
    <path class="st8" d="M30.6,7.7c-3.1.3-6,1.1-8.8,2.5.1.4,0,.8-.5,1.2-.3.3-.5.7-.5.9,0,.7.7,1.8,1.2,2,.7.2.5,1-.4,1.4-.4.2-.9.7-1.1,1.2-.2.5-.5.9-.7,1-.2,0-.3.5-.3.8s.2.7,1,1c.5.2,1.2.4,1.4.3,1.4-.1,1.5.7.3,2.3-.7.9-1,1.1-1.4,1-.4-.1-.7,0-.8.4-.2.4-.5.6-1.4.7-.9,0-1.3.2-1.6.7-.2.3-.6.6-.8.6s-.6.2-1,.5c-.7.6-1,.6-1.2.3-.3-.5-1-.2-2.1.7-.9.9-1,1.1-.9,1.9.2,1.4,1,2.6,1.8,3,.7.4.8.4.3.9-.3.3-.7.6-1,.6-.8.2-.4.6,1.1.7,1.5.2,2,.7,1.3,1.5-.4.4-.4.5.3.9,1.2.8,2.2.3,1-.5-.7-.5-.2-.7.9-.3.9.3,1,.3,1.5-.2,1-.9,2.2.4,1.2,1.4-.6.6-.4,1.4.4,1.5.3,0,1.1.4,1.6.7.5.3,1.1.6,1.3.6s.7.4,1.1.8c.9.9,1.4,1,1.6.4.3-.7.2-1.1-.6-2-.6-.7-1.7-2.5-1.7-3s1.1,0,1.6.4c.4.3,1,.6,1.3.7.4.2.8.6,1,1.2.3.8.4.9,1.4.9h1.1l.2,2c.2,2.3.4,2.8,1.2,3,.6.1,1.2,1.1,1.2,1.8s-.4.7-1,1c-.7.5-.9.9-.9,1.3,0,.5,0,.6-.8.5-.5,0-1.2.1-1.7.3-.6.3-1.2.4-1.8.2-.7-.1-.9,0-.9.2s-.2.6-.5.8c-.7.6-.4,1,.7.8.7-.1,1,0,1.1.2.3.6-.4,1.6-1,1.4-.4,0-.6,0-.7.5,0,.2-.1.3-.2.4,1.2.5,2.5.9,3.8,1.1-.1-.2-.3-.4-.4-.5-.6-.4-.2-1.6.7-1.8.9-.2.7-.8-.2-.9-.8,0-1.7-.9-1.4-1.4.2-.3,1-.2,2.6.1.7.2,1.2-.2,2.9-2,1-1.1,1.7-1.5,2.5-1.5s1.4-.3,2.5-.6c2-.7,2.8-.6,2.7,0-.2,1.5.8,1.5,2.4-.1.7-.7,1.3-1.1,1.3-1.1.3.3-.2,1.7-.9,2.3-.8.7-.8,1.2-.1,1.5.4.2.6.6.6,1.5v1.2h1.1c.4,0,.6,0,.9.1,7-4.2,11.5-11.7,11.7-19.8-.4-.8-.3-1.3,0-1.8,0-.4,0-.9-.1-1.3-.2,0-.4,0-.7,0-1.2,0-2.3-.4-2.3-1s-.4-.7-1-1.2c-.6-.6-.9-1.1-.8-1.4,0-.2,0-.6-.4-.9-.3-.3-.6-.7-.6-.9,0-.4-.3-.5-2.1-.4h-2.1c0,0,0,2.1,0,2.1,0,3.6.6,4.6,2.3,4,.8-.3,2.7,0,3.2.4.2.2.5.7.6,1.2.1.5.7,1.4,1.2,2,1.1,1.2,1.2,1.7.5,3.1-.5,1.2-1.1,1.1-1-.2v-1c0,0-.8.2-.8.2-.5,0-1.1.5-1.4.8-.4.5-.6.6-.9.4-.2-.2-.4-.5-.4-.8s-.3-.5-.6-.6c-.3,0-.7-.6-1-1.1-.3-.8-.3-1,0-1.9.4-1,.4-1.1,0-1.5-.3-.3-.5-.3-1,0-.4.3-.7.2-1.2-.1-.4-.2-1-.4-1.4-.4-.8,0-1.1-.4-1.1-1.7s-.7-1.6-2.4-1.5c-1.2.1-1.5,0-2.4-.7-.6-.5-1.5-1.5-2.1-2.4-.6-.9-1.2-1.8-1.3-2.1-.3-.4-.2-.7.3-1.7l.6-1.2-1.3.2c-2.3.3-2.8.6-1.8,1.1.4.2.4.3.1.7-.2.2-.3.6-.2.8,0,.2,0,.7-.2,1.1-.2.4-.4,1-.4,1.2,0,.9-1.6,1.6-3.3,1.5-2.6-.1-2.8-.1-3.7.8-1.2,1.1-1.3,1.6-.8,2.6.5,1,1.4,1.3,3.1,1.3,1.4,0,1.6,0,1.3,1-.3.8-1.2,1.1-1.8.6-.5-.4-2.2,0-2.7.5-.2.2-.5.9-.7,1.4-.3.9-.4,1-1.7,1.1-1.4.1-1.5,0-2.5-.8-1.1-1-1.3-1.7-.7-3.1.2-.6.4-.7,1-.6,1.2.2,1.7-.2,1.7-1.5s-.1-1.2-.3-1.3c-.2,0-.3-.4-.3-.7s-.2-.7-.3-.9c-.3-.3-.2-.4.2-.7.3-.2.8-.4,1.1-.3.3,0,1.1,0,1.9-.3,1-.3,1.3-.5,1.5-1,.3-1,.9-1.9,1.5-1.9.9,0,.9-2,0-4.9-.1-.4-.5-.7-1.1-.9-.5-.1-1-.4-1.2-.7-.2-.3-.5-.5-.6-.5s-.6-.2-.9-.5c-.3-.3-.8-.5-1.3-.5-1,0-1-.7,0-1.1,1.1-.4,2.7.1,3.1,1,.5,1.1,1.2.7,1.3-1.1.2-2.1,1-2.7,3.3-2.7h1.7l-.7-.7c-.2-.2-.4-.5-.6-.8h0ZM39.3,8.5s0,0-.1.1c-.6.6-.8.6-1.7.5-1.5-.2-1.3.4.4,1.1.9.4,1.5.8,1.7,1.3,1,2.2,1.6,3.4,1.9,3.5.7.2,1.1-.2,1.2-1.5.2-1.4.7-1.7,1.5-1,.3.3.8.6,1.1.6.7,0,1.3.3,1.3.7s.3.7.6,1.1c.5.6.8.8,1.6.8s1.7.2,3,.9c0,0,0,0,0,0-3.2-4-7.6-6.9-12.5-8.2h0ZM8.7,31.5s0,0,0,.1c0,1.5.2,3.1.5,4.6.9.4,1.1.2,1.2-.6,0-.4.3-.9.5-1.1.3-.3.3-.4-.4-.9-.5-.3-.9-.9-1-1.2,0-.3-.4-.7-.7-1h0ZM16.3,39.4c-.2,0-.5,0-.8.4-.6.6-.5,1.8.2,2.3.8.6,1.2.4,1.3-.6.1-1.3-.1-2-.6-2.1h0ZM20.4,43.1c-.2,0-.5.2-.8.6-.3.4-.4.9-.3,1.7.1.9,0,1.1-.4,1.4-.6.3-.8,1.3-.3,1.8.5.5,1,.4,1.2-.3.3-1,1.7-1.1,2.6-.2.4.4.8.6.8.4s-.4-.7-1-1.1c-.8-.7-1-1.1-1-2s-.4-2.2-1-2.1h0ZM13.7,46.2c.2.2.4.5.6.7-.2-.3-.4-.5-.6-.7h0ZM21.8,49.9c-.1,0-.2.2-.2.5s-.2.6-.4.6c-.3.1-.3.4-.2,1.2,0,.1,0,.3,0,.4.3.2.7.4,1,.5,0-.4,0-.9.3-1.5.4-1,.4-1.3,0-1.5-.3-.2-.5-.2-.6-.2Z"/>
    <path class="st10" d="M32.9,7.6c-13.4,0-24.2,10.7-24.2,24s0,.3,0,.4c.2-13.1,10.9-23.6,24.1-23.6s23.9,10.5,24.1,23.6c0-.1,0-.3,0-.4,0-13.3-10.8-24-24.2-24Z"/>
    <path class="st3" d="M29.9,43.6c-2.3-8.4-12.3-3.2-16.4-9.6-4.1-6.4-1.7-12.6-3.8-10.3-2.1,2.3-1.2,6.4-1.2,6.4,0,0-.7-4.4-1.6-2-.9,2.5,1.4,6.1,1.4,6.1,0,0-2.5-4.2-2-1.6.5,2.6,2.8,5.4,2.8,5.4,0,0-2.1-2.3-1.9-.4.2,2,4.3,3.7,4.3,3.7,0,0-3.2.6-1.1,2.3,2.1,1.7,6.8.2,6.8.2,0,0-3.4,3,.1,3.8,3.5.9,6.5-1.1,6.5-1.1,0,0-1.4,3.2,2.1,3,3.5-.2,4.9-2.9,4.1-6Z"/>
    <path class="st5" d="M29.9,42.7c-2.3-8.4-12.3-3.2-16.4-9.6-4.1-6.4-1.7-12.6-3.8-10.3-2.1,2.3-1.2,6.4-1.2,6.4,0,0-.7-4.4-1.6-2-.9,2.5,1.4,6.1,1.4,6.1,0,0-2.5-4.2-2-1.6.5,2.6,2.8,5.4,2.8,5.4,0,0-2.1-2.3-1.9-.4.2,2,4.3,3.7,4.3,3.7,0,0-3.2.6-1.1,2.3,2.1,1.7,6.8.2,6.8.2,0,0-3.4,3,.1,3.8,3.5.9,6.5-1.1,6.5-1.1,0,0-1.4,3.2,2.1,3,3.5-.2,4.9-2.9,4.1-6Z"/>
    <path class="st3" d="M39.3,9.3c-1.7,0,3.4,5.6,3.1,13.8-.4,8.6-13.2,9-11.9,17.9-1.2-.6-2.2-2.7-1.9-5.8.4-4.3-2.4-6-4.9-6-.7,0-1.3.1-1.8.4-5.6,3.3-4.2,13,.3,20.7,2,3.5,5.2,5.6,8.6,6.3.6,0,1.2,0,1.9,0,2,0,4-.3,5.9-.7,5.1-1.9,9.4-6.7,10-13.8,3.2.4,8.8-2.8,9.3-4.7.5-1.8-2.5-.7-3.3-.3.8-.4,4-2.2,2.8-4.5-.8-1.5-2.4-.2-3.5,1.1-.7,1-1.4,1.8-1.4,1.8,0,0,.6-.9,1.4-1.8,1-1.5,2.3-3.5.6-4.3-1.1-.5-2.4.3-3,1.4-.3,1.9-1.3,3.7-1.3,3.7,0,0,.3-2,1.3-3.7.2-1.2,0-1.7-1.2-1.4-.4.1-.9.2-1.5.3.5-.7,2.8-3.7,2-5.7,0,0,0,0,0,0,0,0,0-.2-.1-.3-.6-1.1-1.1.2-1.4,1,.2-1.4.6-4.4-.2-6.5,0-.2-.2-.4-.2-.5-.7-1.5-.8,1.1-.9,2.4,0-1.2,0-4.1-1-5.8,0,0,0,0,0,0,0-.1-.2-.5-.2-.6-.2-.4-.5-.7-.8-1-1.9-1.7-1.1,1.4-.7,2.6-.3-.7-1.3-1.6-2.2-2.8-.7-.9-1.3-2-2.3-2.6-.4-.1-.9-.3-1.3-.4Z"/>
    <path class="st4" d="M39.3,8.4c-1.7,0,3.4,5.6,3.1,13.8-.4,8.6-13.2,9-11.9,17.9-1.2-.6-2.2-2.7-1.9-5.8.4-4.3-2.4-6-4.9-6-.7,0-1.3.1-1.8.4-5.6,3.3-4.2,13,.3,20.7,2,3.5,5.2,5.6,8.6,6.3.6,0,1.2,0,1.9,0,2,0,4-.3,5.9-.7,5.1-1.9,9.4-6.7,10-13.8,3.2.4,8.8-2.8,9.3-4.7.5-1.8-2.5-.7-3.3-.3.8-.4,4-2.2,2.8-4.5-.8-1.5-2.4-.2-3.5,1.1-.7,1-1.4,1.8-1.4,1.8,0,0,.6-.9,1.4-1.8,1-1.5,2.3-3.5.6-4.3-1.1-.5-2.4.3-3,1.4-.3,1.9-1.3,3.7-1.3,3.7,0,0,.3-2,1.3-3.7.2-1.2,0-1.7-1.2-1.4-.4.1-.9.2-1.5.3.5-.7,2.8-3.7,2-5.7,0,0,0,0,0,0,0,0,0-.2-.1-.3-.6-1.1-1.1.2-1.4,1,.2-1.4.6-4.4-.2-6.5,0-.2-.2-.4-.2-.5-.7-1.5-.8,1.1-.9,2.4,0-1.2,0-4.1-1-5.8,0,0,0,0,0,0,0-.1-.2-.5-.2-.6-.2-.4-.5-.7-.8-1-1.9-1.7-1.1,1.4-.7,2.6-.3-.7-1.3-1.6-2.2-2.8-.7-.9-1.3-2-2.3-2.6-.4-.1-.9-.3-1.3-.4Z"/>
    <path class="st12" d="M21.6,32.8c-.2.4-.7.6-1.1.5-.4-.2-.6-.7-.5-1.1,0,0,0,0,0,0,.2-.4.7-.6,1.1-.5.4.2.6.7.5,1.1,0,0,0,0,0,0Z"/>
    <path class="st12" d="M25.1,33.4c0,.5.5.8,1,.7s.8-.5.7-1c0,0,0,0,0,0,0-.5-.5-.8-1-.7s-.8.5-.7,1c0,0,0,0,0,0Z"/>
    <path class="st2" d="M21.2,34.2h3.6l-.9.9-.9.9-.9-.9-.9-.9Z"/>
  </g>
</svg>