<?xml version="1.0" encoding="UTF-8"?>
<svg id="_图层_1" xmlns="http://www.w3.org/2000/svg" version="1.1" viewBox="0 0 64 64" width="24" height="24">
  <!-- Generator: Adobe Illustrator 29.0.1, SVG Export Plug-In . SVG Version: 2.1.0 Build 192)  -->
  <defs>
    <style>
      .st0 {
        fill: #4f4f4f;
      }

      .st1 {
        fill: #2f66dd;
      }

      .st2, .st3 {
        fill: #fff;
      }

      .st4 {
        fill: #2dac43;
      }

      .st5 {
        opacity: .1;
      }

      .st5, .st6, .st3 {
        isolation: isolate;
      }

      .st7 {
        fill: #ffae1a;
      }

      .st6, .st3 {
        opacity: .2;
      }

      .st8 {
        fill: #e53626;
      }

      .st9 {
        fill: #82248f;
      }
    </style>
  </defs>
  <path class="st2" d="M50.4,64H13.8c-7.6,0-13.8-6.2-13.8-13.7V13.7C0,6.2,6.2,0,13.7,0h36.5c7.5,0,13.7,6.2,13.7,13.7v36.6c0,7.5-6.2,13.7-13.7,13.7h.1Z"/>
  <g>
    <rect class="st6" x="2.9" y="7.7" width="58" height="50" rx="2.6" ry="2.6"/>
    <path class="st0" d="M6.2,7.3h51.5c1.4,0,2.6,1.2,2.6,2.6v43.7c0,1.4-1.2,2.6-2.6,2.6H6.2c-1.4,0-2.6-1.2-2.6-2.6V9.9c0-1.4,1.2-2.6,2.6-2.6Z"/>
    <path class="st8" d="M5.5,6.7c-.6,0-1.2.2-1.6.6l-.5.5c-.3.4-.6,1-.6,1.6v19.9L25.5,6.7H5.5Z"/>
    <path class="st7" d="M25.5,6.7L2.9,29.3v21L46.5,6.7h-21Z"/>
    <path class="st4" d="M46.5,6.7L2.9,50.2v3.8c0,1.5,1.2,2.6,2.6,2.6h11.9L60.9,13.3v-4c0-1.5-1.2-2.6-2.6-2.6h-11.8Z"/>
    <path class="st1" d="M60.9,13.3L17.4,56.7h21l22.5-22.4V13.3Z"/>
    <path class="st9" d="M60.9,34.3l-22.5,22.4h19.8c1.5,0,2.6-1.2,2.6-2.6v-19.8Z"/>
    <path class="st3" d="M5.5,6.7c-1.5,0-2.6,1.2-2.6,2.6v1c0-1.5,1.2-2.6,2.6-2.6h52.7c1.5,0,2.6,1.2,2.6,2.6v-1c0-1.5-1.2-2.6-2.6-2.6H5.5Z"/>
    <path class="st5" d="M24.5,7.7L2.9,29.3v1L25.5,7.7h-1ZM45.5,7.7L2.9,50.2v1L46.5,7.7h-1ZM60.9,13.3L17.4,56.7h1L60.9,14.3v-1ZM60.9,34.3l-22.5,22.4h1l21.5-21.4v-1ZM3.4,55.6c0,.1.2.3.3.4-.1-.1-.2-.2-.3-.4Z"/>
    <path class="st6" d="M17.9,20.7v2.6s2.2.2,2.2.2l.4.5-3.7,17.5-.6.5-2.3.2v2.6h10s0-2.6,0-2.6h-2c0-.1-.4-.7-.4-.7l1.5-6.8h2.3l3.3,6.1c1.4,2.7,2.3,3.8,5.2,3.9.8,0,1.2,0,3.5,0,7.8-6.3,11.9-11.7,12.5-13.8.4-1.3-.2-2.1-1.5-2.1s-1.4.3-2.2.8l-.6,5.1c-1.6,2-3.7,4.2-6.4,6.5l2.3-9.2c.4-1.8.5-2.7-.7-3.1l-5.4,1.1-.3,1,2.5.4c.2.6-.6,2.5-.9,4.5l-1.2,6.4c0,0,0,.1,0,.2-.8-.4-1.3-1.1-1.8-2.2l-4.7-8.5,8.6-8,2.5-.3v-2.7s-10,0-10,0v2.7s3.5.2,3.5.2l.2.6-9.1,7.9h-1.1l1.7-8,.5-.5,2.3-.2v-2.6s-10,0-10,0Z"/>
    <path class="st2" d="M17.9,19.7v2.6s2.2.2,2.2.2l.4.5-3.7,17.5-.6.5-2.3.2v2.6h10s0-2.6,0-2.6h-2c0-.1-.4-.7-.4-.7l1.5-6.8h2.3l3.3,6.1c1.4,2.7,2.3,3.8,5.2,3.9.8,0,1.2,0,3.5,0,7.8-6.3,11.9-11.7,12.5-13.8.4-1.3-.2-2.1-1.5-2.1s-1.4.3-2.2.8l-.6,5.1c-1.6,2-3.7,4.2-6.4,6.5l2.3-9.2c.4-1.8.5-2.7-.7-3.1l-5.4,1.1-.3,1,2.5.4c.2.6-.6,2.5-.9,4.5l-1.2,6.4c0,0,0,.1,0,.2-.8-.4-1.3-1.1-1.8-2.2l-4.7-8.5,8.6-8,2.5-.3v-2.7s-10,0-10,0v2.7s3.5.2,3.5.2l.2.6-9.1,7.9h-1.1l1.7-8,.5-.5,2.3-.2v-2.6s-10,0-10,0Z"/>
  </g>
</svg>