<?xml version="1.0" encoding="UTF-8"?>
<svg id="_图层_1" xmlns="http://www.w3.org/2000/svg" version="1.1" viewBox="0 0 64 64" width="24" height="24">
  <!-- Generator: Adobe Illustrator 29.0.1, SVG Export Plug-In . SVG Version: 2.1.0 Build 192)  -->
  <defs>
    <style>
      .st0, .st1, .st2 {
        display: none;
      }

      .st0, .st3, .st4, .st2 {
        isolation: isolate;
        opacity: .2;
      }

      .st1, .st5 {
        fill: #e4c022;
      }

      .st6 {
        fill: #413818;
      }

      .st4, .st2 {
        fill: #fff;
      }
    </style>
  </defs>
  <path class="st5" d="M47.5,64.1H13.8c-7.6,0-13.8-6.3-13.8-13.8V13.7C0,6.2,6.2,0,13.7,0h36.6c7.5,0,13.7,6.2,13.7,13.7v36.6c0,7.5-6.2,13.7-13.7,13.7h-2.9.1Z"/>
  <g>
    <rect class="st0" y="1.1" width="64" height="64.1" rx="3.2" ry="3.2"/>
    <path class="st1" d="M3.2,0h57.6c1.8,0,3.2,1.4,3.2,3.2v57.7c0,1.8-1.4,3.2-3.2,3.2H3.2c-1.8,0-3.2-1.4-3.2-3.2V3.2C0,1.4,1.4,0,3.2,0Z"/>
    <path class="st6" d="M6.6,6.6v50.9h50.8V6.6H6.6Z"/>
    <path class="st2" d="M3.2,0C1.4,0,0,1.4,0,3.2v1.1C0,2.5,1.4,1.1,3.2,1.1h57.6c1.8,0,3.2,1.4,3.2,3.2v-1.1c0-1.8-1.4-3.2-3.2-3.2H3.2Z"/>
    <rect class="st3" x="6.6" y="6.6" width="50.8" height="1.1"/>
    <rect class="st4" x="6.6" y="57.5" width="50.8" height="1.1"/>
    <path class="st3" d="M11,12.2l2.2,2.2v26.5l-2.2,2.2h19.9l4.4-6.6-5.5,2.2h-12.1V14.4l2.2-2.2h-8.8ZM39.9,20c-7.6,0-17,6.2-17.8,16.5h6.6c.7-6.1,5.4-13.2,12.7-13.2s11.4,6.6,11.4,6.6v-5.5s-5.1-4.3-13-4.3ZM53,44.2s-5.1,6.6-11.4,6.6-8.3-2.3-10.5-5.5h-7.2c3.2,6,10.2,8.8,16.1,8.8s13-4.4,13-4.4v-5.5Z"/>
    <path class="st5" d="M11,11.1l2.2,2.2v26.5l-2.2,2.2h19.9l4.4-6.6-5.5,2.2h-12.1V13.3l2.2-2.2h-8.8ZM39.9,18.9c-7.6,0-17,6.2-17.8,16.5h6.6c.7-6.1,5.4-13.2,12.7-13.2s11.4,6.6,11.4,6.6v-5.5s-5.1-4.3-13-4.3ZM53,43.1s-5.1,6.6-11.4,6.6-8.3-2.3-10.5-5.5h-7.2c3.2,6,10.2,8.8,16.1,8.8s13-4.4,13-4.4v-5.5Z"/>
    <path class="st4" d="M11,11.1l1.1,1.1h6.6l1.1-1.1h-8.8ZM39.9,18.9c-7.6,0-17,6.2-17.8,16.5h.1c1.4-9.6,10.3-15.4,17.6-15.4s13,4.3,13,4.3v-1.1s-5.1-4.3-13-4.3ZM35.3,35.4l-5.5,2.2h-12.1v1.1h12.1l4.5-1.8,1-1.5ZM13.2,39.8l-2.2,2.2h1.1l1.1-1.1v-1.1ZM53,43.1s-5.1,6.6-11.4,6.6-8.3-2.3-10.5-5.5h-7.2c.2.4.4.7.7,1.1h6.5c2.2,3.2,5.8,5.5,10.5,5.5s11.4-6.6,11.4-6.6v-1.1Z"/>
  </g>
</svg>