<?xml version="1.0" encoding="UTF-8"?>
<svg id="_图层_1" xmlns="http://www.w3.org/2000/svg" version="1.1" viewBox="0 0 64 64" width="24" height="24">
  <!-- Generator: Adobe Illustrator 29.0.1, SVG Export Plug-In . SVG Version: 2.1.0 Build 192)  -->
  <defs>
    <style>
      .st0, .st1, .st2 {
        fill-rule: evenodd;
      }

      .st0, .st3 {
        opacity: .1;
      }

      .st0, .st3, .st4, .st5 {
        isolation: isolate;
      }

      .st6 {
        fill: #3f3f3f;
      }

      .st1 {
        fill: #e34ae9;
      }

      .st7 {
        fill: none;
        stroke: #4f4f4f;
        stroke-linecap: round;
        stroke-width: 6px;
      }

      .st4, .st5 {
        opacity: .2;
      }

      .st2 {
        fill: #2d5de1;
      }

      .st5 {
        fill: #fff;
      }

      .st8 {
        fill: #e4e4e4;
      }
    </style>
  </defs>
  <path class="st6" d="M50.4,64H13.8c-7.6,0-13.8-6.2-13.8-13.7V13.7C0,6.2,6.2,0,13.7,0h36.5c7.5,0,13.7,6.2,13.7,13.7v36.6c0,7.5-6.2,13.7-13.7,13.7h.1Z"/>
  <g>
    <path class="st4" d="M11.3,7.7h43.4c1.3,0,2.4,1,2.4,2.3v41.2c0,1.3-1.1,2.3-2.4,2.3H11.3c-1.3,0-2.4-1-2.4-2.3V10c0-1.3,1.1-2.3,2.4-2.3Z"/>
    <path class="st8" d="M11.3,6.8h43.4c1.3,0,2.4,1,2.4,2.3v41.2c0,1.3-1.1,2.3-2.4,2.3H11.3c-1.3,0-2.4-1-2.4-2.3V9.1c0-1.3,1.1-2.3,2.4-2.3Z"/>
    <path class="st5" d="M11.3,6.8c-1.3,0-2.4,1-2.4,2.3v.9c0-1.3,1.1-2.3,2.4-2.3h43.4c1.3,0,2.4,1,2.4,2.3v-.9c0-1.3-1.1-2.3-2.4-2.3H11.3Z"/>
    <path class="st2" d="M57.1,11.4l-14.5,4.3-9.6,17.4v19.5h21.7c1.3,0,2.4-1,2.4-2.3V11.4Z"/>
    <path class="st0" d="M57.1,11.4l-14.5,4.3-9.6,17.4v.9l9.6-17.4,14.5-4.3v-.9Z"/>
    <path class="st1" d="M28.2,26.6l-19.3,13v10.7c0,1.3,1.1,2.3,2.4,2.3h43.4c1.3,0,2.4-1,2.4-2.3v-12.9l-14.5,8.7-9.6-13-4.8-6.5Z"/>
    <path class="st0" d="M28.2,26.6l-19.3,13v.9l19.3-13,4.8,6.5,9.6,13,14.5-8.7v-.9l-14.5,8.7-9.6-13-4.8-6.5Z"/>
    <path class="st3" d="M6.1,7.7c-1.5,0-2.8,1.1-2.8,2.6,0,1.5,1.2,2.7,2.7,2.7,0,0,0,0,0,0h5.6c1.5,0,2.8-1.1,2.8-2.6,0-1.5-1.2-2.7-2.7-2.7,0,0,0,0,0,0h-5.6ZM6.1,18.3c-1.5,0-2.8,1.1-2.8,2.6,0,1.5,1.2,2.7,2.7,2.7,0,0,0,0,0,0h5.6c1.5,0,2.8-1.1,2.8-2.6s-1.2-2.7-2.7-2.7c0,0,0,0,0,0h-5.6ZM6.1,28.9c-1.5,0-2.8,1.1-2.8,2.6s1.2,2.7,2.7,2.7c0,0,0,0,0,0h5.6c1.5,0,2.8-1.1,2.8-2.6s-1.2-2.7-2.7-2.7c0,0,0,0,0,0h-5.6ZM6.1,39.4c-1.5,0-2.8,1.1-2.8,2.6,0,1.5,1.2,2.7,2.7,2.7,0,0,0,0,0,0h5.6c1.5,0,2.8-1.1,2.8-2.6,0-1.5-1.2-2.7-2.7-2.7,0,0,0,0,0,0h-5.6ZM20.9,48.2c-1.5,0-2.8,1.2-2.7,2.7v5.3c0,1.5,1.2,2.7,2.7,2.7,1.5,0,2.8-1.1,2.8-2.6,0,0,0,0,0,0v-5.3c0-1.5-1.2-2.7-2.7-2.7,0,0,0,0,0,0ZM32,48.2c-1.5,0-2.8,1.2-2.7,2.7v5.3c0,1.5,1.2,2.7,2.7,2.7,1.5,0,2.8-1.1,2.8-2.6,0,0,0,0,0,0v-5.3c0-1.5-1.2-2.7-2.7-2.7,0,0,0,0,0,0ZM43.1,48.2c-1.5,0-2.8,1.2-2.7,2.7v5.3c0,1.5,1.2,2.7,2.7,2.7,1.5,0,2.8-1.1,2.8-2.6,0,0,0,0,0,0v-5.3c0-1.5-1.2-2.7-2.7-2.7,0,0,0,0,0,0ZM54.3,48.2c-1.5,0-2.8,1.2-2.7,2.7v5.3c0,1.5,1.2,2.7,2.7,2.7,1.5,0,2.8-1.1,2.8-2.6,0,0,0,0,0,0v-5.3c0-1.5-1.2-2.7-2.7-2.7,0,0,0,0,0,0Z"/>
    <path class="st7" d="M6.1,9.5h5.6"/>
    <path class="st7" d="M6.1,41.2h5.6"/>
    <path class="st7" d="M6.1,30.6h5.6"/>
    <path class="st7" d="M6.1,20.1h5.6"/>
    <path class="st7" d="M54.3,55.3v-5.3"/>
    <path class="st7" d="M43.2,55.3v-5.3"/>
    <path class="st7" d="M32.1,55.3v-5.3"/>
    <path class="st7" d="M20.9,55.3v-5.3"/>
  </g>
</svg>