<?xml version="1.0" encoding="UTF-8" standalone="no"?>
<svg
   id="_图层_1"
   version="1.1"
   viewBox="0 0 64 64" width="24" height="24"
   sodipodi:docname="meow.svg"
   xml:space="preserve"
   inkscape:version="1.4 (e7c3feb100, 2024-10-09)"
   xmlns:inkscape="http://www.inkscape.org/namespaces/inkscape"
   xmlns:sodipodi="http://sodipodi.sourceforge.net/DTD/sodipodi-0.dtd"
   xmlns="http://www.w3.org/2000/svg"
   xmlns:svg="http://www.w3.org/2000/svg"><sodipodi:namedview
     id="namedview26"
     pagecolor="#505050"
     bordercolor="#eeeeee"
     borderopacity="1"
     inkscape:showpageshadow="0"
     inkscape:pageopacity="0"
     inkscape:pagecheckerboard="0"
     inkscape:deskcolor="#505050"
     inkscape:zoom="10.6875"
     inkscape:cx="32"
     inkscape:cy="43.976608"
     inkscape:window-width="1920"
     inkscape:window-height="939"
     inkscape:window-x="0"
     inkscape:window-y="34"
     inkscape:window-maximized="1"
     inkscape:current-layer="_图层_1" /><!-- Generator: Adobe Illustrator 29.0.1, SVG Export Plug-In . SVG Version: 2.1.0 Build 192)  --><defs
     id="defs6"><style
       id="style1">
      .st0 {
        fill-opacity: .5;
      }

      .st0, .st1, .st2, .st3, .st4, .st5, .st6, .st7 {
        fill: #fff;
      }

      .st8 {
        fill: #133c9a;
      }

      .st2, .st9 {
        display: none;
      }

      .st3 {
        fill-opacity: .2;
      }

      .st4 {
        fill-opacity: .9;
      }

      .st10 {
        fill: #3370ff;
      }

      .st11 {
        fill: url(#_未命名的渐变_3);
      }

      .st12 {
        fill: url(#_未命名的渐变);
      }

      .st5 {
        fill-opacity: .3;
      }

      .st6 {
        fill-opacity: 0;
      }

      .st7 {
        fill-opacity: .7;
      }

      .st13 {
        fill: #00d6b9;
      }

      .st14 {
        fill: url(#_未命名的渐变_2);
      }
    </style><radialGradient
       id="_未命名的渐变"
       data-name="未命名的渐变"
       cx="123.9"
       cy="-40.2"
       fx="123.9"
       fy="-40.2"
       r="59.4"
       gradientTransform="translate(-26.8 25.5) scale(.6 -.7)"
       gradientUnits="userSpaceOnUse"><stop
         offset="0"
         stop-color="#db202e"
         id="stop1" /><stop
         offset="1"
         stop-color="#e01b24"
         id="stop2" /></radialGradient><radialGradient
       id="_未命名的渐变_2"
       data-name="未命名的渐变 2"
       cx="67.6"
       cy="26.8"
       fx="67.6"
       fy="26.8"
       r="105.2"
       gradientTransform="translate(-26.6 25.3) scale(.6 -.7)"
       gradientUnits="userSpaceOnUse"><stop
         offset="0"
         stop-color="#ffb648"
         id="stop3" /><stop
         offset="1"
         stop-color="#ff7800"
         stop-opacity="0"
         id="stop4" /></radialGradient><radialGradient
       id="_未命名的渐变_3"
       data-name="未命名的渐变 3"
       cx="61.7"
       cy="18.6"
       fx="61.7"
       fy="18.6"
       r="68"
       gradientTransform="translate(-26.8 25.8) scale(.6 -.7)"
       gradientUnits="userSpaceOnUse"><stop
         offset="0"
         stop-color="#c64600"
         id="stop5" /><stop
         offset="1"
         stop-color="#a51d2d"
         id="stop6" /></radialGradient></defs><path
     class="st1"
     d="M 47.5,64.1 H 13.8 C 6.2,64.1 0,57.8 0,50.3 V 13.7 C 0,6.2 6.2,0 13.7,0 H 50.3 C 57.8,0 64,6.2 64,13.7 V 50.3 C 64,57.8 57.8,64 50.3,64 h -2.9 0.1 z"
     id="path6"
     style="fill:#4ba9c0;fill-opacity:1"
     sodipodi:nodetypes="cssssssssccc" /><g
     id="g42"
     transform="matrix(4,0,0,4.005848,-0.04678363,0.02339181)"><path
       fill="#ffffff"
       d="M 7.5046,11.982 C 7.171,11.952 6.5068,11.834 6.2202,11.753 5.6074,11.581 5.0644,11.608 4.6194,11.235 4.5309,11.161 4.4237,11.101 4.3782,11.101 c -0.045009,0 -0.47174,0.12872 -0.94829,0.28605 -0.47655,0.15733 -0.88979,0.28605 -0.91831,0.28605 -0.091126,0 -0.15683,-0.21651 -0.26742,-0.55317 -0.12105,-0.3685 -0.12923,-0.43696 -0.058964,-0.49344 0.026916,-0.02165 0.36605,-0.14186 0.7536,-0.26715 0.38755,-0.12529 0.71001,-0.2434 0.71657,-0.26247 0.013755,-0.03997 -0.53198,-0.07868 -1.1092,-0.07868 -0.3607,0 -0.38258,-0.0041 -0.4683,-0.087085 -0.083195,-0.080581 -0.08827,-0.10233 -0.067915,-0.29099 0.012117,-0.11214 0.022003,-0.28389 0.022003,-0.38165 0,-0.28923 0.00235,-0.29412 0.77572,-0.27744 l 0.4983,0.011 0.0432,-0.2873 c 0.0501,-0.333 0.1632,-0.8405 0.3372,-1.1176 0.0922,-0.147 0.119,-0.2226 0.1075,-0.3029 l 0.20614,-3.2842 c 0.36986,0 1.4073,0.41841 2.414,1.3771 l 0.50773,0.32371 0.3335,-0.036016 c 0.41942,-0.045296 0.96429,-0.045435 1.4946,-2.73e-4 l 0.4113,0.035 0.579,-0.3741 c 0.8809,-0.5692 1.1939,-0.9306 1.5389,-1.1311 0.244,-0.1424 0.537,-0.1689 0.721,-0.1802 l 0.23915,3.3072 0.15014,0.22318 c 0.18931,0.28141 0.30787,0.79534 0.36277,1.1619 l 0.04284,0.28605 0.46222,-0.011536 c 0.45918,-0.00926 0.58432,-0.00192 0.63784,0.03729 0.05576,0.040885 0.07104,0.11328 0.09406,0.44551 0.01616,0.2332 0.01432,0.42051 -0.0045,0.45448 -0.03726,0.06742 -0.20478,0.099714 -0.52104,0.10045 -0.12422,2.74e-4 -0.29339,0.01038 -0.50921,0.02242 -0.89235,0.02549 -0.86862,0.02549 0.1776,0.3364 0.36507,0.10849 0.68246,0.23602 0.71155,0.26419 0.04736,0.04587 0.04671,0.07403 -0.0061,0.26911 -0.08495,0.31368 -0.20781,0.70015 -0.27925,0.74272 -0.04919,0.02931 -0.23312,-0.01982 -0.9034,-0.2413 -0.4629,-0.15296 -0.87172,-0.27789 -0.90849,-0.27764 -0.03676,2.75e-4 -0.20876,-0.0015 -0.3822,0.12646 -0.66836,0.4929 -1.5125,0.60391 -2.471,0.71025 -0.29317,0.03253 -1.0817,0.03892 -1.3884,0.01123 z"
       id="path1" /><circle
       fill="#303030"
       cx="6"
       cy="8"
       r="1"
       id="circle1" /><circle
       fill="#303030"
       cx="10"
       cy="8"
       r="1"
       id="circle2" /></g></svg>
