<?xml version="1.0" encoding="UTF-8" standalone="no"?>
<svg
   id="_图层_1"
   version="1.1"
   viewBox="0 0 64 64" width="24" height="24"
   sodipodi:docname="minetest.svg"
   xml:space="preserve"
   inkscape:version="1.4 (e7c3feb100, 2024-10-09)"
   xmlns:inkscape="http://www.inkscape.org/namespaces/inkscape"
   xmlns:sodipodi="http://sodipodi.sourceforge.net/DTD/sodipodi-0.dtd"
   xmlns="http://www.w3.org/2000/svg"
   xmlns:svg="http://www.w3.org/2000/svg"><sodipodi:namedview
     id="namedview26"
     pagecolor="#505050"
     bordercolor="#eeeeee"
     borderopacity="1"
     inkscape:showpageshadow="0"
     inkscape:pageopacity="0"
     inkscape:pagecheckerboard="0"
     inkscape:deskcolor="#505050"
     inkscape:zoom="10.6875"
     inkscape:cx="32"
     inkscape:cy="32"
     inkscape:window-width="1920"
     inkscape:window-height="939"
     inkscape:window-x="0"
     inkscape:window-y="34"
     inkscape:window-maximized="1"
     inkscape:current-layer="_图层_1" /><!-- Generator: Adobe Illustrator 29.0.1, SVG Export Plug-In . SVG Version: 2.1.0 Build 192)  --><defs
     id="defs6"><style
       id="style1">
      .st0 {
        fill-opacity: .5;
      }

      .st0, .st1, .st2, .st3, .st4, .st5, .st6, .st7 {
        fill: #fff;
      }

      .st8 {
        fill: #133c9a;
      }

      .st2, .st9 {
        display: none;
      }

      .st3 {
        fill-opacity: .2;
      }

      .st4 {
        fill-opacity: .9;
      }

      .st10 {
        fill: #3370ff;
      }

      .st11 {
        fill: url(#_未命名的渐变_3);
      }

      .st12 {
        fill: url(#_未命名的渐变);
      }

      .st5 {
        fill-opacity: .3;
      }

      .st6 {
        fill-opacity: 0;
      }

      .st7 {
        fill-opacity: .7;
      }

      .st13 {
        fill: #00d6b9;
      }

      .st14 {
        fill: url(#_未命名的渐变_2);
      }
    </style><radialGradient
       id="_未命名的渐变"
       data-name="未命名的渐变"
       cx="123.9"
       cy="-40.2"
       fx="123.9"
       fy="-40.2"
       r="59.4"
       gradientTransform="translate(-26.8 25.5) scale(.6 -.7)"
       gradientUnits="userSpaceOnUse"><stop
         offset="0"
         stop-color="#db202e"
         id="stop1" /><stop
         offset="1"
         stop-color="#e01b24"
         id="stop2" /></radialGradient><radialGradient
       id="_未命名的渐变_2"
       data-name="未命名的渐变 2"
       cx="67.6"
       cy="26.8"
       fx="67.6"
       fy="26.8"
       r="105.2"
       gradientTransform="translate(-26.6 25.3) scale(.6 -.7)"
       gradientUnits="userSpaceOnUse"><stop
         offset="0"
         stop-color="#ffb648"
         id="stop3" /><stop
         offset="1"
         stop-color="#ff7800"
         stop-opacity="0"
         id="stop4" /></radialGradient><radialGradient
       id="_未命名的渐变_3"
       data-name="未命名的渐变 3"
       cx="61.7"
       cy="18.6"
       fx="61.7"
       fy="18.6"
       r="68"
       gradientTransform="translate(-26.8 25.8) scale(.6 -.7)"
       gradientUnits="userSpaceOnUse"><stop
         offset="0"
         stop-color="#c64600"
         id="stop5" /><stop
         offset="1"
         stop-color="#a51d2d"
         id="stop6" /></radialGradient></defs><path
     class="st1"
     d="M47.5,64.1H13.8c-7.6,0-13.8-6.3-13.8-13.8V13.7C0,6.2,6.2,0,13.7,0h36.6c7.5,0,13.7,6.2,13.7,13.7v36.6c0,7.5-6.2,13.7-13.7,13.7h-2.9.1Z"
     id="path6"
     style="fill:#e4e4e4;fill-opacity:1" /><g
     id="g33"
     transform="matrix(3.0760234,0,0,2.7894737,6.7836254,10.245614)"><path
       style="fill:#197236"
       d="M 7.9619529,6.0006399 C 7.6967005,6.0067941 7.4501585,6.0471224 7.1595997,6.2141812 L 0.63071466,9.9680862 C 0.33992414,10.135282 0.03576138,10.451012 0.00228398,10.925116 c -0.0334772,0.474106 0.30711196,0.922019 0.62503376,1.104818 l 6.53567916,3.75781 c 0.317952,0.182814 0.6096436,0.217829 0.8750472,0.211588 0.2654036,-0.0063 0.5117476,-0.04645 0.8023532,-0.213541 l 6.5288857,-3.753905 c 0.290577,-0.167075 0.594922,-0.482739 0.62843,-0.95703 0.03351,-0.474291 -0.307289,-0.922121 -0.625034,-1.1048177 L 8.8370001,6.2122283 C 8.5191909,6.0294966 8.2277069,5.994547 7.9626321,6.0006399 Z"
       id="path1" /><path
       style="fill:#a0722e"
       d="M 4,7.9999999 H 6 V 11.2 L 5,12 4,11.2 Z"
       id="path2" /><path
       style="fill:#74ba2f"
       d="M 5.0240672,2.9927979e-4 A 1.0145947,1.023269 0 0 0 4.4927252,0.136806 L 1.5073416,1.8751417 A 1.0145947,1.023269 0 0 0 1,2.7614085 V 6.238305 a 1.0145947,1.023269 0 0 0 0.5072976,0.886178 l 2.9853828,1.7384249 a 1.0145947,1.023269 0 0 0 1.0145948,0 L 8.4926584,7.124483 A 1.0145947,1.023269 0 0 0 9,6.2382145 V 2.7613185 A 1.0145947,1.023269 0 0 0 8.4926584,1.8750513 L 5.5072752,0.1367158 A 1.0145947,1.023269 0 0 0 5.0239336,2.0992979e-4 Z"
       id="path3" /></g></svg>
