<?xml version="1.0" encoding="UTF-8"?>
<svg id="_图层_1" xmlns="http://www.w3.org/2000/svg" version="1.1" viewBox="0 0 64 64" width="24" height="24">
  <!-- Generator: Adobe Illustrator 29.0.1, SVG Export Plug-In . SVG Version: 2.1.0 Build 192)  -->
  <defs>
    <style>
      .st0, .st1, .st2, .st3, .st4 {
        display: none;
      }

      .st0, .st1, .st5, .st4 {
        isolation: isolate;
      }

      .st0, .st5, .st4 {
        opacity: .2;
      }

      .st1 {
        opacity: .1;
      }

      .st1, .st6, .st4 {
        fill: #fff;
      }

      .st7 {
        fill: #eb572a;
      }

      .st8 {
        fill: #459ee9;
      }

      .st2, .st9 {
        fill: #c2352a;
      }

      .st10 {
        fill: #ffba08;
      }

      .st11 {
        fill: #79a61c;
      }
    </style>
  </defs>
  <path class="st9" d="M50.5,64H13.9C6.3,64,0,57.8,0,50.3V13.7C0,6.2,6.3,0,13.8,0h36.6c7.5,0,13.7,6.2,13.7,13.7v36.6c0,7.5-6.2,13.7-13.7,13.7h.1Z"/>
  <g class="st3">
    <path class="st0" d="M3.4,1.1h57.1c1.9,0,3.4,1.5,3.4,3.4v57.1c0,1.9-1.5,3.4-3.4,3.4H3.4c-1.9,0-3.4-1.5-3.4-3.4V4.6C0,2.7,1.5,1.1,3.4,1.1Z"/>
    <path class="st10" d="M64,32v17.7c0,7.9-6.4,14.2-14.2,14.2h-20v-32h34.3Z"/>
    <path class="st8" d="M0,29.7v19.2c0,8.3,6.7,15,15,15h17V29.7H0Z"/>
    <path class="st7" d="M14.9,0C6.7,0,0,6.7,0,14.9v17.1h34.3V0H14.9Z"/>
    <path class="st11" d="M49.4,0c8.1,0,14.6,6.5,14.6,14.6v17.3h-32V0h17.4Z"/>
    <path class="st4" d="M3.4,0C1.5,0,0,1.5,0,3.4v1.1C0,2.7,1.5,1.1,3.4,1.1h57.1c1.9,0,3.4,1.5,3.4,3.4v-1.1c0-1.9-1.5-3.4-3.4-3.4H3.4Z"/>
  </g>
  <g>
    <path class="st0" d="M0,59.8v2.3c0,1.9,1.5,3.4,3.4,3.4h57.1c1.9,0,3.4-1.5,3.4-3.4v-2.3c0,1.9-1.5,3.4-3.4,3.4H3.5c-1.9,0-3.4-1.5-3.4-3.4Z"/>
    <path class="st2" d="M3.5,0h57.1c1.9,0,3.4,1.5,3.4,3.4v57.5c0,1.9-1.5,3.4-3.4,3.4H3.5c-1.9,0-3.4-1.5-3.4-3.4V3.4C0,1.5,1.6,0,3.5,0Z"/>
    <path class="st1" d="M3.5,0C1.6,0,0,1.5,0,3.4v1.1C0,2.7,1.6,1.1,3.5,1.1h57.1c1.9,0,3.4,1.5,3.4,3.4v-1.1c0-1.9-1.5-3.4-3.4-3.4H3.5Z"/>
    <path class="st5" d="M13.8,17.2v32.2h9.1v-20.7h4.6v20.7h9.1v-20.7h4.6v20.7h9.1v-26.5c0-3.2-2.3-5.6-5.3-5.6"/>
    <path class="st6" d="M13.8,16.1v32.2h9.1v-20.7h4.6v20.7h9.1v-20.7h4.6v20.7h9.1v-26.5c0-3.2-2.3-5.6-5.3-5.6"/>
  </g>
</svg>