<?xml version="1.0" encoding="UTF-8"?>
<svg id="_图层_1" xmlns="http://www.w3.org/2000/svg" version="1.1" viewBox="0 0 64 64" width="24" height="24">
  <!-- Generator: Adobe Illustrator 29.0.1, SVG Export Plug-In . SVG Version: 2.1.0 Build 192)  -->
  <defs>
    <style>
      .st0 {
        fill: #33c481;
      }

      .st1 {
        fill: #21a366;
      }

      .st2, .st3, .st4, .st5, .st6 {
        isolation: isolate;
      }

      .st2, .st3, .st7, .st8 {
        display: none;
      }

      .st2, .st5, .st6 {
        opacity: .2;
      }

      .st3, .st9, .st6 {
        fill: #fff;
      }

      .st3, .st4 {
        opacity: .1;
      }

      .st10 {
        fill: #0e6f3a;
      }

      .st11, .st8 {
        fill: #f63db6;
      }

      .st12 {
        fill: #107c41;
      }

      .st13 {
        fill: #185c37;
      }
    </style>
  </defs>
  <path class="st11" d="M50.3,64H13.9C6.3,64,.2,57.8.2,50.3V13.8C.2,6.2,6.3,0,13.9,0h36.5c7.5,0,13.7,6.2,13.7,13.7v36.5c0,7.5-6.1,13.7-13.7,13.7h0Z"/>
  <g class="st7">
    <path class="st5" d="M17.9,9.3h33.2c1.2,0,2.2,1.1,2.2,2.4v42.4c0,1.3-1,2.4-2.2,2.4H17.9c-1.2,0-2.2-1.1-2.2-2.4V11.7c0-1.3,1-2.4,2.2-2.4Z"/>
    <path class="st13" d="M53.3,43.9v9.4c0,1.3-1,2.4-2.2,2.4H17.9c-1.2,0-2.2-1.1-2.2-2.4v-22.1h18l.8.8,18.8,11.8Z"/>
    <path class="st1" d="M17.9,8.5h16.6l18.8,11.8v12.6h-18l-.8-.8-18.8-11.8v-9.4c0-1.3,1-2.4,2.2-2.4Z"/>
    <path class="st0" d="M34.5,8.5h16.6c1.2,0,2.2,1.1,2.2,2.4v9.4h-18.8v-11.8Z"/>
    <path class="st12" d="M34.5,32.1h18.8v11.8h-18.8v-11.8ZM15.7,20.3h18.8v11.8H15.7v-11.8Z"/>
    <path class="st4" d="M15.7,20.3h37.5v.8H15.7v-.8ZM15.7,32.1h37.5v.8H15.7v-.8ZM15.7,43.9h37.5v.8H15.7v-.8Z"/>
    <path class="st6" d="M17.9,8.5c-1.2,0-2.2,1.1-2.2,2.4v.8c0-1.3,1-2.4,2.2-2.4h33.2c1.2,0,2.2,1.1,2.2,2.4v-.8c0-1.3-1-2.4-2.2-2.4H17.9Z"/>
    <path class="st5" d="M8.6,19.5h20.6c1.2,0,2.2,1.1,2.2,2.4v22.2c0,1.3-1,2.4-2.2,2.4H8.6c-1.2,0-2.2-1.1-2.2-2.4v-22.2c0-1.3,1-2.4,2.2-2.4Z"/>
    <path class="st10" d="M8.6,18.6h20.6c1.2,0,2.2,1.1,2.2,2.4v22.2c0,1.3-1,2.4-2.2,2.4H8.6c-1.2,0-2.2-1.1-2.2-2.4v-22.2c0-1.3,1-2.4,2.2-2.4Z"/>
    <path class="st9" d="M11.9,40.5l5.1-8.4-4.6-8.4h3.7l3,6.5,3.3-6.5h3.4l-4.8,8.3,4.9,8.5h-3.6l-3.3-6.7-3.3,6.7h-3.7Z"/>
  </g>
  <g>
    <rect class="st2" x=".1" y="1.1" width="63.7" height="64" rx="3.2" ry="3.2"/>
    <rect class="st8" x=".1" y="0" width="63.7" height="64" rx="3.2" ry="3.2"/>
    <path class="st5" d="M25.4,51.7c-6.7-2.4-12.1-4.3-12.2-4.3,0,0,0,0,0,0,0,0,5.5.6,12.2,1.4,9.2,1.1,11.1,1.4,11.1,1.4,0-.1,0-32,0-32.2,0-.1-15.7,3.5-15.8,3.7,0,0,0,2.4,0,11s0,10.9,0,10.9c-.1.1-7.7,3.6-7.8,3.6,0,0,0-2.8,0-13.9v-13.9s9.6-3.5,9.6-3.5c5.2-1.9,10.9-3.9,12.5-4.5l3-1.1,6.7,2.1c3.7,1.2,6.8,2.1,6.8,2.2,0,0,0,3.9,0,18.7s0,18.7-.1,18.7c-.2.1-13.4,4-13.5,4,0,0-5.6-1.9-12.3-4.3h0Z"/>
    <path class="st9" d="M25.4,50.5c-6.7-2.4-12.1-4.3-12.2-4.3,0,0,0,0,0,0,0,0,5.5.6,12.2,1.4,9.2,1.1,11.1,1.4,11.1,1.4,0-.1,0-32,0-32.2,0-.1-15.7,3.5-15.8,3.7,0,0,0,2.4,0,11s0,10.9,0,10.9c-.1.1-7.7,3.6-7.8,3.6,0,0,0-2.8,0-13.9v-13.9s9.6-3.5,9.6-3.5c5.2-1.9,10.9-3.9,12.5-4.5l3-1.1,6.7,2.1c3.7,1.2,6.8,2.1,6.8,2.2,0,0,0,3.9,0,18.7s0,18.7-.1,18.7c-.2.1-13.4,4-13.5,4,0,0-5.6-1.9-12.3-4.3h0Z"/>
    <path class="st3" d="M3.3,0C1.6,0,.1,1.4.1,3.2v1.1C.1,2.5,1.6,1.1,3.3,1.1h57.4c1.8,0,3.2,1.4,3.2,3.2v-1.1c0-1.8-1.4-3.2-3.2-3.2H3.3Z"/>
  </g>
</svg>