<?xml version="1.0" encoding="UTF-8"?>
<svg id="_图层_1" xmlns="http://www.w3.org/2000/svg" version="1.1" xmlns:xlink="http://www.w3.org/1999/xlink" viewBox="0 0 64 64" width="24" height="24">
  <!-- Generator: Adobe Illustrator 29.0.1, SVG Export Plug-In . SVG Version: 2.1.0 Build 192)  -->
  <defs>
    <style>
      .st0 {
        fill: #4f4f4f;
      }

      .st1, .st2, .st3, .st4, .st5, .st6 {
        display: none;
      }

      .st1, .st2, .st7, .st8, .st9, .st6, .st10 {
        isolation: isolate;
      }

      .st1, .st8, .st9, .st6 {
        opacity: .2;
      }

      .st2, .st11, .st9, .st6, .st10 {
        fill: #fff;
      }

      .st2, .st7, .st10 {
        opacity: .1;
      }

      .st3 {
        fill: #4a5579;
      }

      .st12 {
        fill: #eb4646;
      }

      .st13 {
        fill: #3f3f3f;
      }

      .st14 {
        fill: #3088d4;
      }

      .st15 {
        fill: #4f82ea;
      }

      .st16 {
        fill: #f9f9f9;
      }

      .st4, .st17 {
        fill: #c2352a;
      }

      .st18 {
        fill: #d64043;
      }

      .st19 {
        fill: #4696e2;
      }

      .st20 {
        fill: #ffa822;
      }

      .st21 {
        fill: #b7785d;
      }

      .st22 {
        fill: #feb925;
      }

      .st23 {
        fill: #ffbc2c;
      }

      .st24 {
        fill: #ececec;
      }

      .st25 {
        fill: url(#_未命名的渐变_2);
      }
    </style>
    <linearGradient id="_未命名的渐变_2" data-name="未命名的渐变 2" x1="1570.3" y1="1065" x2="1570.3" y2="1095.4" gradientTransform="translate(-338.1 -223.8) scale(.2)" gradientUnits="userSpaceOnUse">
      <stop offset="0" stop-color="#2a2c2f"/>
      <stop offset="1" stop-color="#424649"/>
    </linearGradient>
  </defs>
  <path class="st17" d="M50.4,64H13.8c-7.6,0-13.8-6.2-13.8-13.7V13.7C0,6.2,6.2,0,13.7,0h36.6c7.5,0,13.7,6.2,13.7,13.7v36.6c0,7.5-6.2,13.7-13.7,13.7h.1Z"/>
  <g class="st5">
    <path class="st8" d="M34.7,3.5c-16,0-29,13-29,29,0,16,13,29,29,29,7.1,0,13.9-2.6,19.2-7.3l-20.8-20.5,22.1-21.7c-5.4-5.4-12.8-8.5-20.5-8.5Z"/>
    <path class="st13" d="M34.7,2.5c-16,0-29,13-29,29,0,16,13,29,29,29,7.1,0,13.9-2.6,19.2-7.3l-20.8-20.5,22.1-21.7c-5.4-5.4-12.8-8.5-20.5-8.5Z"/>
    <path class="st10" d="M34.7,2.5c-16,0-29,13-29,29,0,.2,0,.3,0,.5.3-15.8,13.1-28.5,29-28.5,7.4,0,14.6,2.9,20,8l.5-.5c-5.4-5.4-12.8-8.5-20.5-8.5ZM33.6,33.2l-.5.5,20.2,19.9c.2-.2.4-.3.5-.5l-20.3-20Z"/>
    <circle class="st8" cx="34.7" cy="32.5" r="16"/>
    <circle class="st24" cx="34.7" cy="31.5" r="16"/>
    <circle class="st7" cx="34.7" cy="32.5" r="6"/>
    <circle class="st18" cx="34.7" cy="31.5" r="6"/>
  </g>
  <g class="st5">
    <path class="st1" d="M51.2,1.4c-2.9.4-5.5,2.2-8.2,3.6-1.8.9-3.3,2.5-4,4.7-.7-.9-1.1-1.9-1.9-2.6-4.4-4-9.7-6.1-15.2-5.7C8.2,1.4.6,19,.4,30.8c0,13.6,3.7,22.3,6.1,29.3,1.5,4.3,5.5,6.3,9,4.4,3.7-1.8,8.9-3.1,9.9-7.7.5.6.2.5.7,1,4,4.3,9.4,7.3,15.5,7.3s10.9-3.1,15.1-8.1c4.2-5,7.3-12.4,7.3-21.1,0-13.4-3.4-22.4-6.2-29.1,0-.3-.2-.6-.3-.9,0,0,0,0,0,0-1.2-2.9-3.6-4.6-6.3-4.5Z"/>
    <path class="st3" d="M51.2,0c-2.9.4-5.5,2.2-8.2,3.6-1.8.9-3.3,2.5-4,4.7-.7-.9-1.1-1.9-1.9-2.6C32.7,1.8,27.4-.4,22,0,8.2,0,.6,17.6.4,29.4c0,13.6,3.7,22.3,6.1,29.3,1.5,4.3,5.5,6.3,9,4.4,3.7-1.8,8.9-3.1,9.9-7.7.5.6.2.5.7,1,4,4.3,9.4,7.3,15.5,7.3s10.9-3.1,15.1-8.1,7.3-12.4,7.3-21.1c0-13.4-3.4-22.4-6.2-29.1,0-.3-.2-.6-.3-.9,0,0,0,0,0,0C56.3,1.7,53.9,0,51.2,0Z"/>
    <path class="st8" d="M22.4,9.8c-6.9.6-15.2,8.4-15.2,21,0,12,3,18.6,5.6,26.2l5.4-2.8c-3.1-5.7-7.6-17.3-7.4-24.9.2-5,1.6-8.6,4.1-11.4,6-6.9,14.3-5.2,19.2,2.1,2.8,4.3,3.2,10.6.7,15.3-4.3,7.8-14.1,4-14.7-5.1-.3-4.3,3.1-7.6,6.2-7.7-3.2-2.3-8.1,1.9-7.9,7,.8,15.1,14.2,15.4,18.4,6.8,7.4-15.4-5.2-27.2-14.4-26.4h0Z"/>
    <path class="st8" d="M51.4,9.7l-5.8,3c3.5,8.3,7.5,14.7,7.5,24.9,0,3.8-1.2,8-4.1,11.2-2.6,2.9-6,4.6-10.1,3.9-4.3-.7-7.2-3.2-9-5.9-2.9-4.7-3.4-10.7-1-15.1,1.3-2.5,4.3-4.6,7.2-4.3,5.1.5,8,4.1,8,9.4,0,5.4-3.2,7.5-6.6,7.1,3.3,1.8,8.2-.5,8.2-6.5,0-8.1-4.4-11.9-9.1-12-4.9,0-7.6,2.2-9.2,5.3-1.6,3.1-2,7.1-1.8,10.4.2,3.3,2.1,7.4,5.1,10.5,3,3.1,6.9,5.3,11.1,5.3,6.7,0,15.6-8.4,15.5-20.8,0-12.4-3-19.8-5.8-26.4h0Z"/>
    <path class="st16" d="M22.4,8.4c-6.9.6-15.2,8.4-15.2,21,0,12,3,18.6,5.6,26.2l5.4-2.8c-3.1-5.7-7.6-17.3-7.4-24.9.2-5,1.6-8.6,4.1-11.4,6-6.9,14.3-5.2,19.2,2.1,2.8,4.3,3.2,10.6.7,15.3-4.3,7.8-14.1,4-14.7-5.1-.3-4.3,3.1-7.6,6.2-7.7-3.2-2.3-8.1,1.9-7.9,7,.8,15.1,14.2,15.4,18.4,6.8,7.4-15.4-5.2-27.2-14.4-26.4h0Z"/>
    <path class="st19" d="M51.4,8.3l-5.8,3c3.5,8.3,7.5,14.7,7.5,24.9,0,3.8-1.2,8-4.1,11.2-2.6,2.9-6,4.6-10.1,3.9-4.3-.7-7.2-3.2-9-5.9-2.9-4.7-3.4-10.7-1-15.1,1.3-2.5,4.3-4.6,7.2-4.3,5.1.5,8,4.1,8,9.4,0,5.4-3.2,7.5-6.6,7.1,3.3,1.8,8.2-.5,8.2-6.5,0-8.1-4.4-11.9-9.1-12-4.9,0-7.6,2.2-9.2,5.3-1.6,3.1-2,7.1-1.8,10.4.2,3.3,2.1,7.4,5.1,10.5,3,3.1,6.9,5.3,11.1,5.3,6.7,0,15.6-8.4,15.5-20.8,0-12.4-3-19.8-5.8-26.4h0Z"/>
    <path class="st16" d="M36.1,23c.3,1.5.5,3,.4,4.5l2.3.9c.3-1.9.3-3.7,0-5.4h-2.8Z"/>
    <path class="st2" d="M24,0c-.7,0-1.4,0-2,0C8.2,0,.6,17.6.4,29.4c0,.3,0,.7,0,1C.8,18.6,8.4,1.4,22,1.4c5.5-.5,10.7,1.7,15.2,5.7.8.7,1.2,1.7,1.9,2.6.6-2.2,2.2-3.8,4-4.7,2.8-1.4,5.3-3.2,8.2-3.7,2.6,0,5.1,1.7,6.3,4.5,0,0,0,0,0,0,.1.3.2.6.3.9,2.7,6.5,6,15.4,6.1,28.5,0-.3,0-.5,0-.8,0-13.4-3.4-22.4-6.2-29.1,0-.3-.2-.6-.3-.9,0,0,0,0,0,0C56.3,1.7,53.9,0,51.2,0c-2.9.4-5.5,2.2-8.2,3.7-1.8.9-3.3,2.5-4,4.7-.7-.9-1.1-1.9-1.9-2.6C33.2,2.3,28.7.2,24,0Z"/>
  </g>
  <g class="st5">
    <path class="st8" d="M57.7,30.2c-.4,14.5-12.1,26.1-26.3,26.1-14.2,0-25.8-11.4-26.3-25.8,0,.2,0,.5,0,.7,0,14.8,11.8,26.8,26.4,26.8s26.4-12,26.4-26.8c0-.3,0-.7,0-1Z"/>
    <path class="st0" d="M57.7,30.3c0,14.8-11.8,26.8-26.4,26.8S5,45.2,5,30.3,16.8,3.5,31.4,3.5s26.4,12,26.4,26.8Z"/>
    <path class="st10" d="M31.4,3.5c-14.6,0-26.4,12-26.4,26.8,0,.2,0,.3,0,.5.2-14.6,12-26.4,26.4-26.4h0c14.4,0,26.1,11.8,26.4,26.4,0-.2,0-.3,0-.5,0-14.8-11.8-26.8-26.4-26.8h0Z"/>
    <path class="st10" d="M16.7,8.1c-7.1,4.8-11.7,13-11.7,22.3h21.1c0-2.2,1.3-4,3.1-4.9l-12.5-17.4h0Z"/>
    <path class="st10" d="M46,52.6c7.1-4.8,11.7-13,11.7-22.3h-21.1c0,2.2-1.3,4-3.1,4.9l12.5,17.4h0Z"/>
    <path class="st22" d="M31.4,19.6h0c5.8,0,10.6,4.8,10.6,10.7h0c0,5.9-4.7,10.7-10.6,10.7h0c-5.8,0-10.6-4.8-10.6-10.7h0c0-5.9,4.7-10.7,10.6-10.7Z"/>
    <path class="st25" d="M31.4,33.9h0c1.9,0,3.5-1.6,3.5-3.6h0c0-2-1.6-3.6-3.5-3.6h0c-1.9,0-3.5,1.6-3.5,3.6h0c0,2,1.6,3.6,3.5,3.6Z"/>
  </g>
  <g class="st5">
    <path class="st8" d="M22.8,4.3c-9.2,0-16.7,7.7-16.7,17.3v9.4c0,.3,0,.6,0,.9.1,6.7,1,18,5.3,22.8,4.3,4.9,14.3,5.6,18.3,5.6,7.2,0,10.4-2.8,10.4-2.8v-4.6s-4.3,1.5-9.4,1.4c-3.5,0-6.5-1-8-3.3-.5-.8-.5-1.6-.7-2.8.3,0,.5,0,.8,0h16.7c9.2,0,16.7-7.7,16.7-17.3v-9.4c0-9.6-7.4-17.3-16.7-17.3h-16.7Z"/>
    <path class="st14" d="M22.8,3.3h16.7c9.2,0,16.7,7.7,16.7,17.3v9.4c0,9.5-7.5,17.3-16.7,17.3h-16.7c-9.2,0-16.7-7.7-16.7-17.3v-9.4C6.1,11,13.6,3.3,22.8,3.3Z"/>
    <path class="st14" d="M6.2,25.7h14.8s-.6,13.3,1,21c.3,1.6.1,2.4.7,3.3,1.5,2.3,4.5,3.2,8,3.3,5.1,0,9.4-1.4,9.4-1.4v4.6s-3.2,2.8-10.4,2.8-14-.7-18.3-5.6c-6.2-7-5.3-28-5.3-28Z"/>
    <circle class="st8" cx="21.1" cy="21.3" r="3"/>
    <circle class="st11" cx="21.1" cy="20.3" r="3"/>
    <path class="st9" d="M22.8,3.3C13.5,3.3,6.1,11,6.1,20.6v1c0-9.6,7.4-17.3,16.7-17.3h16.7c9.2,0,16.7,7.7,16.7,17.3v-1c0-9.6-7.4-17.3-16.7-17.3h-16.7ZM22,49.2c0,.4,0,.7.1,1,0,0,.1,0,.2,0,0,.3.2.5.4.8,1.5,2.3,4.5,3.2,8,3.3,5.1,0,9.4-1.4,9.4-1.4v-1s-4.3,1.5-9.4,1.4c-3.5,0-6.5-1-8-3.3-.2-.3-.3-.5-.4-.8-.1,0-.2,0-.3,0Z"/>
  </g>
  <g class="st5">
    <path class="st8" d="M24.3,20.4v32.5c0,2,1.7,3.6,3.8,3.6h7.7c2.1,0,3.8-1.6,3.8-3.6V20.4h-15.4Z"/>
    <path class="st8" d="M8.9,20.4v32.5c0,2,1.7,3.6,3.8,3.6h7.7c2.1,0,3.8-1.6,3.8-3.6V20.4h-15.4Z"/>
    <path class="st8" d="M39.7,20.4v32.5c0,2,1.7,3.6,3.8,3.6h7.7c2.1,0,3.8-1.6,3.8-3.6V20.4h-15.4Z"/>
    <path class="st23" d="M24.3,19.5v32.5c0,2,1.7,3.6,3.8,3.6h7.7c2.1,0,3.8-1.6,3.8-3.6V19.5h-15.4Z"/>
    <path class="st21" d="M28.2,13.5l-3.8,6h15.4l-3.8-6h-7.7Z"/>
    <path class="st8" d="M32,8.4l-3.8,6h7.7l-3.8-6Z"/>
    <path class="st23" d="M32,7.5l-3.8,6h7.7l-3.8-6Z"/>
    <rect class="st7" x="29.7" y="19.5" width="4.5" height="36.1"/>
    <path class="st12" d="M8.9,19.5v32.5c0,2,1.7,3.6,3.8,3.6h7.7c2.1,0,3.8-1.6,3.8-3.6V19.5h-15.4Z"/>
    <path class="st21" d="M12.8,13.5l-3.8,6h15.4l-3.8-6h-7.7Z"/>
    <path class="st8" d="M16.6,8.4l-3.8,6h7.7l-3.8-6Z"/>
    <path class="st12" d="M16.6,7.5l-3.8,6h7.7l-3.8-6Z"/>
    <rect class="st7" x="14.4" y="19.5" width="4.5" height="36.1"/>
    <path class="st15" d="M39.7,19.5v32.5c0,2,1.7,3.6,3.8,3.6h7.7c2.1,0,3.8-1.6,3.8-3.6V19.5h-15.4Z"/>
    <path class="st21" d="M43.5,13.5l-3.8,6h15.4l-3.8-6h-7.7Z"/>
    <path class="st8" d="M47.4,8.4l-3.8,6h7.7l-3.8-6Z"/>
    <path class="st15" d="M47.4,7.5l-3.8,6h7.7l-3.8-6Z"/>
    <rect class="st7" x="45.1" y="19.5" width="4.5" height="36.1"/>
    <path class="st9" d="M32,7.5l-3.8,6h.5l3.3-5.2,3.3,5.2h.5l-3.8-6Z"/>
    <path class="st9" d="M16.6,7.5l-3.8,6h.5l3.3-5.2,3.3,5.2h.5l-3.8-6Z"/>
    <path class="st9" d="M47.4,7.5l-3.8,6h.5l3.3-5.2,3.3,5.2h.5l-3.8-6Z"/>
    <rect class="st9" x="8.9" y="19.5" width="46.1" height=".9"/>
  </g>
  <g>
    <path class="st1" d="M0,55.9v2.1c0,1.7,1.3,3,3,3h53.3c1.6,0,3-1.3,3-3v-2.1c0,1.7-1.3,3-3,3H3C1.3,58.8,0,57.5,0,55.9h0Z"/>
    <path class="st4" d="M59.2,56.9V3c0-1.7-1.3-3-3-3H3C1.3,0,0,1.3,0,3v53.9c0,1.7,1.3,3,3,3h53.3c1.6,0,3-1.3,3-3Z"/>
    <path class="st8" d="M11.3,9.6c-1.6,0-2.8,1.3-2.8,2.9v37.1c0,1.6,1.3,2.9,2.8,2.9h36.7c1.6,0,2.8-1.3,2.8-2.9V12.5c0-1.6-1.3-2.9-2.8-2.9,0,0-36.7,0-36.7,0ZM12.7,16h10.6l6.3,10.7,6.3-10.7h10.6v30h-8.5v-19.3l-6.3,12.8h-4.2l-6.3-12.8v19.3h-8.5s0-30,0-30Z"/>
    <path class="st11" d="M11.3,8.6c-1.6,0-2.8,1.3-2.8,2.9v37.1c0,1.6,1.3,2.9,2.8,2.9h36.7c1.6,0,2.8-1.3,2.8-2.9V11.4c0-1.6-1.3-2.9-2.8-2.9H11.3ZM12.7,15h10.6l6.3,10.7,6.3-10.7h10.6v30h-8.5v-19.3l-6.3,12.8h-4.2l-6.3-12.8v19.3h-8.5s0-30,0-30Z"/>
    <path class="st6" d="M3,0C1.3,0,0,1.3,0,3v1.1C0,2.4,1.3,1.1,3,1.1h53.3c1.6,0,3,1.3,3,3v-1.1c0-1.7-1.3-3-3-3H3Z"/>
    <path class="st8" d="M63.4,44.8c-.5,9.1-7.9,16.2-16.9,16.2-8.9,0-16.2-6.9-16.9-15.9,0,.3,0,.6,0,.9,0,9.5,7.6,17.1,16.9,17.1s16.9-7.7,16.9-17.1c0-.4,0-.8,0-1.2h0Z"/>
    <ellipse class="st20" cx="46.5" cy="44.9" rx="16.9" ry="17.1"/>
    <path class="st11" d="M33.9,38.5v4.3h4.2v8.6h4.2v-8.6h4.2v-4.3h-12.7Z"/>
    <path class="st11" d="M46.5,38.5l4.2,12.8h4.2l4.2-12.8h-4.2l-2.1,7.5-2.1-7.5h-4.2Z"/>
  </g>
</svg>