<?xml version="1.0" encoding="UTF-8"?>
<svg id="_图层_1" xmlns="http://www.w3.org/2000/svg" version="1.1" xmlns:xlink="http://www.w3.org/1999/xlink" viewBox="0 0 64 64" width="24" height="24">
  <!-- Generator: Adobe Illustrator 29.0.1, SVG Export Plug-In . SVG Version: 2.1.0 Build 192)  -->
  <defs>
    <style>
      .st0 {
        fill: #9c27b0;
      }

      .st1 {
        fill: #999;
      }

      .st2, .st3 {
        isolation: isolate;
        opacity: .2;
      }

      .st4 {
        display: none;
      }

      .st5 {
        fill: #f4f4f4;
      }

      .st3 {
        fill: #fff;
      }

      .st6 {
        fill: #e4e4e4;
      }

      .st7 {
        fill: #fefdfe;
      }

      .st8 {
        fill: url(#_未命名的渐变_2);
      }
    </style>
    <linearGradient id="_未命名的渐变_2" data-name="未命名的渐变 2" x1="1016.8" y1="-1278.7" x2="895.4" y2="-1068.3" gradientTransform="translate(-274 -343.5) scale(.3 -.3)" gradientUnits="userSpaceOnUse">
      <stop offset="0" stop-color="#ff5c41"/>
      <stop offset="1" stop-color="#fe177d"/>
    </linearGradient>
  </defs>
  <path class="st0" d="M47.5,64.1H13.8c-7.6,0-13.8-6.3-13.8-13.8V13.7C0,6.2,6.2,0,13.7,0h36.6c7.5,0,13.7,6.2,13.7,13.7v36.6c0,7.5-6.2,13.7-13.7,13.7h-2.9.1Z"/>
  <g class="st4">
    <path class="st8" d="M13.1,0h37.6c7.3,0,13.1,5.9,13.1,13.2v37.7c0,7.3-5.9,13.2-13.1,13.2H13.1c-7.3,0-13.1-5.9-13.1-13.2V13.2C0,5.9,5.9,0,13.1,0Z"/>
    <g>
      <path class="st5" d="M31.4,59.8c-14.7,0-26.7-12.5-26.7-27.9S16.8,4.1,31.6,4.1c14.7,0,26.6,12.6,26.5,28,0,15.2-12,27.7-26.7,27.7h0ZM7.5,31.9c0,13.8,10.7,25,23.9,25s24-11.1,24.1-25c0-13.8-10.7-25.1-24-25.1S7.5,18.1,7.5,31.9h0Z"/>
      <path class="st5" d="M14.7,34.9v-3.6c0-2.7,2.4-4.7,4.9-3.9,1,.3,2.1.6,3.1.9,1.1.4,2.3.2,3.3-.4,1.6-1,3.3-2,4.9-3,2.6-1.6,5.6.2,5.6,3.3v.4c0,.7.4,1,1,.7,1.8-.9,3.6-1.9,5.4-2.8,1.3-.7,2.6-1.4,4-2,.7-.4,1.1-.1,1.1.7v2.4c0,.4-.2.7-.5.9-.5.2-1,.5-1.5.7-.8.4-1.1,1-1.1,1.9v7.8c0,2.6-.2,1-.9,1h-1.8c-.7,0-.9-.2-.9-.9v-5.6c0-1-.5-1.3-1.4-.9-.8.4-1.6.8-2.3,1.2-2.2,1.1-4.6-.4-4.6-2.9v-.9c0-.9-.6-1.3-1.4-.8-1.2.7-2.4,1.5-3.6,2.2-2,1.2-4.1,1.5-6.4.8-.6-.2-1.3-.4-2-.6-.7-.2-1.3.2-1.3,1.1v6.3c0,.9-.1,1.1-1,1.1h-1.8c-.5,0-.7-.2-.7-.8v-4h0Z"/>
    </g>
  </g>
  <g>
    <path class="st6" d="M14.2,64.1c-6.8,0-14.2-4.7-14.1-12.7v-3.5c0,0,63.9,0,63.9,0v2.7c.3,8-7.5,13.5-13,13.5H14.2Z"/>
    <path class="st1" d="M43.4,53.2h13.7c1.3,0,2.3,1.2,2.3,2.7h0c0,1.5-1,2.7-2.3,2.7h-13.7c-1.3,0-2.3-1.2-2.3-2.7h0c0-1.5,1-2.7,2.3-2.7Z"/>
    <path class="st0" d="M6.8,53.2h32c1.3,0,2.3,1.2,2.3,2.7h0c0,1.5-1,2.7-2.3,2.7H6.8c-1.3,0-2.3-1.2-2.3-2.7h0c0-1.5,1-2.7,2.3-2.7Z"/>
    <ellipse class="st2" cx="41.1" cy="57.1" rx="4.5" ry="5.3"/>
    <ellipse class="st7" cx="41.1" cy="55.9" rx="4.5" ry="5.3"/>
    <rect class="st3" y="47.9" width="64" height="2.7"/>
    <path class="st2" d="M23.8,12c-.5,0-1,.5-1,1.2v24.2c0,.9.8,1.5,1.5,1l18.6-12.1c.7-.5.7-1.6,0-2.1l-16.7-10.9-1.9-1.2c-.1-.1-.3-.2-.5-.2h0Z"/>
    <path class="st7" d="M23.8,10.7c-.5,0-1,.5-1,1.2v24.2c0,.9.8,1.5,1.5,1l18.6-12.1c.7-.5.7-1.6,0-2.1l-16.7-10.9-1.9-1.2c-.1-.1-.3-.2-.5-.2h0Z"/>
  </g>
</svg>