<?xml version="1.0" encoding="UTF-8"?>
<svg id="_图层_1" xmlns="http://www.w3.org/2000/svg" version="1.1" viewBox="0 0 64 64" width="24" height="24">
  <!-- Generator: Adobe Illustrator 29.0.1, SVG Export Plug-In . SVG Version: 2.1.0 Build 192)  -->
  <defs>
    <style>
      .st0 {
        fill: #ffba58;
      }

      .st1, .st2 {
        fill: #fff;
      }

      .st3 {
        opacity: .8;
      }

      .st3, .st4, .st2 {
        isolation: isolate;
      }

      .st4, .st2 {
        opacity: .2;
      }

      .st5 {
        fill: #736dab;
      }

      .st6 {
        fill: #e4e4e4;
      }
    </style>
  </defs>
  <path class="st6" d="M50.4,64H13.8c-7.6,0-13.8-6.2-13.8-13.7V13.7C0,6.2,6.2,0,13.7,0h36.6c7.5,0,13.7,6.2,13.7,13.7v36.6c0,7.5-6.2,13.7-13.7,13.7h.1Z"/>
  <g>
    <path class="st4" d="M57.1,31.4c-.4,13.3-11.5,24-25.1,24-13.5,0-24.5-10.5-25.1-23.7,0,.2,0,.5,0,.7,0,13.6,11.2,24.7,25.1,24.7s25.1-11.1,25.1-24.7c0-.3,0-.7,0-1Z"/>
    <ellipse class="st5" cx="32" cy="31.6" rx="25.1" ry="24.7"/>
    <path class="st0" d="M57.1,31.6c0,13.6-11.2,24.7-25.1,24.7V6.8c13.9,0,25.1,11.1,25.1,24.7Z"/>
    <ellipse class="st4" cx="32" cy="32.4" rx="17.9" ry="17.7"/>
    <ellipse class="st1" cx="32" cy="31.6" rx="17.9" ry="17.7"/>
    <path class="st3" d="M26.6,21v12.4c-.3,0-.6,0-.9,0-2.5,0-4.5,2-4.5,4.4s2,4.4,4.5,4.4,4.5-2,4.5-4.4v-13.2h7.2v5.4c-.3,0-.6,0-.9,0-2.5,0-4.5,2-4.5,4.4s2,4.4,4.5,4.4,4.5-2,4.5-4.4v-13.2h-14.4Z"/>
    <path class="st2" d="M32,6.8c-13.9,0-25.1,11.1-25.1,24.7,0,.1,0,.3,0,.4.2-13.5,11.4-24.3,25.1-24.3h0c13.7,0,24.8,10.8,25.1,24.3,0-.1,0-.3,0-.4,0-13.6-11.2-24.7-25.1-24.7h0Z"/>
  </g>
</svg>