<?xml version="1.0" encoding="UTF-8" standalone="no"?>
<svg
   id="_图层_1"
   version="1.1"
   viewBox="0 0 64 64"
   width="24" height="24"
   sodipodi:docname="Ndd.svg"
   xml:space="preserve"
   inkscape:version="1.4 (e7c3feb100, 2024-10-09)"
   xmlns:inkscape="http://www.inkscape.org/namespaces/inkscape"
   xmlns:sodipodi="http://sodipodi.sourceforge.net/DTD/sodipodi-0.dtd"
   xmlns="http://www.w3.org/2000/svg"
   xmlns:svg="http://www.w3.org/2000/svg"><sodipodi:namedview
     id="namedview26"
     pagecolor="#505050"
     bordercolor="#eeeeee"
     borderopacity="1"
     inkscape:showpageshadow="0"
     inkscape:pageopacity="0"
     inkscape:pagecheckerboard="0"
     inkscape:deskcolor="#505050"
     inkscape:zoom="10.6875"
     inkscape:cx="32"
     inkscape:cy="32"
     inkscape:window-width="1920"
     inkscape:window-height="939"
     inkscape:window-x="0"
     inkscape:window-y="34"
     inkscape:window-maximized="1"
     inkscape:current-layer="_图层_1" /><!-- Generator: Adobe Illustrator 29.0.1, SVG Export Plug-In . SVG Version: 2.1.0 Build 192)  --><defs
     id="defs6"><style
       id="style1">
      .st0 {
        fill-opacity: .5;
      }

      .st0, .st1, .st2, .st3, .st4, .st5, .st6, .st7 {
        fill: #fff;
      }

      .st8 {
        fill: #133c9a;
      }

      .st2, .st9 {
        display: none;
      }

      .st3 {
        fill-opacity: .2;
      }

      .st4 {
        fill-opacity: .9;
      }

      .st10 {
        fill: #3370ff;
      }

      .st11 {
        fill: url(#_未命名的渐变_3);
      }

      .st12 {
        fill: url(#_未命名的渐变);
      }

      .st5 {
        fill-opacity: .3;
      }

      .st6 {
        fill-opacity: 0;
      }

      .st7 {
        fill-opacity: .7;
      }

      .st13 {
        fill: #00d6b9;
      }

      .st14 {
        fill: url(#_未命名的渐变_2);
      }
    </style><radialGradient
       id="_未命名的渐变"
       data-name="未命名的渐变"
       cx="123.9"
       cy="-40.2"
       fx="123.9"
       fy="-40.2"
       r="59.4"
       gradientTransform="translate(-26.8 25.5) scale(.6 -.7)"
       gradientUnits="userSpaceOnUse"><stop
         offset="0"
         stop-color="#db202e"
         id="stop1" /><stop
         offset="1"
         stop-color="#e01b24"
         id="stop2" /></radialGradient><radialGradient
       id="_未命名的渐变_2"
       data-name="未命名的渐变 2"
       cx="67.6"
       cy="26.8"
       fx="67.6"
       fy="26.8"
       r="105.2"
       gradientTransform="translate(-26.6 25.3) scale(.6 -.7)"
       gradientUnits="userSpaceOnUse"><stop
         offset="0"
         stop-color="#ffb648"
         id="stop3" /><stop
         offset="1"
         stop-color="#ff7800"
         stop-opacity="0"
         id="stop4" /></radialGradient><radialGradient
       id="_未命名的渐变_3"
       data-name="未命名的渐变 3"
       cx="61.7"
       cy="18.6"
       fx="61.7"
       fy="18.6"
       r="68"
       gradientTransform="translate(-26.8 25.8) scale(.6 -.7)"
       gradientUnits="userSpaceOnUse"><stop
         offset="0"
         stop-color="#c64600"
         id="stop5" /><stop
         offset="1"
         stop-color="#a51d2d"
         id="stop6" /></radialGradient><style
       type="text/css"
       id="style1-3">@font-face { font-family: feedback-iconfont; src: url(&quot;//at.alicdn.com/t/font_1031158_u69w8yhxdu.woff2?t=1630033759944&quot;) format(&quot;woff2&quot;), url(&quot;//at.alicdn.com/t/font_1031158_u69w8yhxdu.woff?t=1630033759944&quot;) format(&quot;woff&quot;), url(&quot;//at.alicdn.com/t/font_1031158_u69w8yhxdu.ttf?t=1630033759944&quot;) format(&quot;truetype&quot;); }
</style></defs><path
     class="st1"
     d="M47.5,64.1H13.8c-7.6,0-13.8-6.3-13.8-13.8V13.7C0,6.2,6.2,0,13.7,0h36.6c7.5,0,13.7,6.2,13.7,13.7v36.6c0,7.5-6.2,13.7-13.7,13.7h-2.9.1Z"
     id="path6"
     style="fill:#a5d940;fill-opacity:1" /><path
     d="m 22.614568,23.807018 v 2.89404 H 16.109706 V 46.025783 H 13.157917 V 26.701058 H 6.6257309 v -2.89404 z m 4.673654,0 4.755656,8.028629 4.755651,-8.028629 h 3.635063 l -6.61418,10.735958 7.078814,11.482807 h -3.635058 l -5.22029,-8.806597 -5.220291,8.806597 H 23.188525 L 30.212678,34.542976 23.653159,23.807018 Z m 30.146465,0 v 2.89404 H 50.929834 V 46.025783 H 47.97805 V 26.701058 h -6.422874 v -2.89404 z"
     fill="#ffffff"
     p-id="8218"
     id="path3-6"
     style="opacity:0.5;fill:#b3b3b3;stroke-width:0.0911367" /><g
     id="g26"
     transform="matrix(0.046875,0,0,0.046875,-46.923967,1.2631534)"><path
       d="m 2365.9323,264.29114 h -239.0399 a 52.479967,52.479967 0 0 1 -51.2,-51.19997 V -25.948678 Z"
       fill="#c4eaff"
       p-id="8217"
       id="path2"
       style="fill:#d1eb9c;fill-opacity:1" /><path
       d="m 1499.5831,447.54374 v 61.73953 h -138.7704 v 412.2608 h -62.9715 v -412.2608 h -139.3533 v -61.73953 z m 99.7046,0 101.454,171.27743 101.4539,-171.27743 h 77.548 l -141.1025,229.03377 151.0147,244.96656 h -77.5479 L 1700.7417,733.67 1589.3755,921.54407 h -77.548 L 1661.6761,676.57751 1521.7397,447.54374 Z m 643.1246,0 v 61.73953 h -138.7702 v 412.2608 h -62.9714 v -412.2608 h -137.0213 v -61.73953 z"
       fill="#ffffff"
       p-id="8218"
       id="path3"
       style="stroke-width:1.94425" /></g></svg>
