<?xml version="1.0" encoding="UTF-8"?>
<svg id="_图层_1" xmlns="http://www.w3.org/2000/svg" version="1.1" viewBox="0 0 64 64" width="24" height="24">
  <!-- Generator: Adobe Illustrator 29.0.1, SVG Export Plug-In . SVG Version: 2.1.0 Build 192)  -->
  <defs>
    <style>
      .st0, .st1 {
        fill: #4f4f4f;
      }

      .st2, .st3, .st4, .st5 {
        isolation: isolate;
      }

      .st2, .st3, .st6, .st7, .st1 {
        display: none;
      }

      .st2, .st4, .st5 {
        opacity: .2;
      }

      .st3 {
        fill: #fff;
        opacity: .1;
      }

      .st4 {
        fill: #041218;
      }

      .st6 {
        fill: #1e88e5;
      }

      .st8 {
        fill: #ebebeb;
      }

      .st9 {
        fill: #b7b7b7;
      }
    </style>
  </defs>
  <path class="st0" d="M50.4,64H13.8c-7.6,0-13.8-6.2-13.8-13.7V13.7C0,6.2,6.2,0,13.7,0h36.6c7.5,0,13.7,6.2,13.7,13.7v36.6c0,7.5-6.2,13.7-13.7,13.7h.1Z"/>
  <g class="st7">
    <path class="st2" d="M3.2,7.1s-3.2,0-3.2,3v42.6c0,1.7,1.4,3,3.2,3h57.6c1.8,0,3.2-1.4,3.2-3V10.2c0-1.7-1.4-3-3.2-3H3.2Z"/>
    <path class="st6" d="M3.2,6s-3.2,0-3.2,3v42.6c0,1.7,1.4,3,3.2,3h57.6c1.8,0,3.2-1.4,3.2-3V9.1c0-1.7-1.4-3-3.2-3H3.2Z"/>
    <ellipse class="st5" cx="35.4" cy="25.9" rx="10.3" ry="10"/>
    <ellipse class="st4" cx="35.4" cy="25.9" rx="6.9" ry="6.6"/>
    <path class="st5" d="M35.4,24.8c-3.4,0-3.4,2.2-3.4,4.4,0,1.4,0,4.2,0,8.4,0,6.7,0,8.8,0,9.1-2.4-.2-6-1.2-7.6-2.4-1-.8-2.1-1.5-2.3-1.6-.9-.4-2.2-.1-3,.6-.5.5-.7.9-.8,1.7,0,.6,0,.8.2,1.2.1.3.3.6.5.8.1.2,2.1,2.7,4.4,5.6,4.2,5.4,8.5,7.4,9.2,7.6.4.1,23.4.1,23.9,0,.2,0,.5-.2.7-.4.3-.3.4-.5.7-1.2.7-2,1.3-5.1,1.5-6.8,0-2,0-2,0-3.7,0,0,0,0,0,0,0-1.4,0-2.6,0-3.2,0-2.2,0-4.4-3.4-4.4s-3.4,1.8-3.4,3.8c0,0,0,.1,0,.2,0-.5,0-1.4,0-1.7,0-2.2,0-4.4-3.4-4.4s-3.4,1.8-3.4,3.7c0,0,0,0,0,0,0,0,0-.1,0-.1,0-.4,0-1.1,0-1.4,0-2.2,0-4.4-3.4-4.4s-3.2,1.3-3.4,2.9c0,0,0,0,0,0,0,0,0-2.7,0-5.6s0-3.2,0-3.9c0-2.2,0-4.4-3.4-4.4h0Z"/>
    <path class="st8" d="M35.4,23.7c-3.4,0-3.4,2.2-3.4,4.4,0,1.4,0,4.2,0,8.4,0,6.7,0,8.8,0,9.1-2.4-.2-6-1.2-7.6-2.4-1-.8-2.1-1.5-2.3-1.6-.9-.4-2.2-.1-3,.6-.5.5-.7.9-.8,1.7,0,.6,0,.8.2,1.2.1.3.3.6.5.8.1.2,2.1,2.7,4.4,5.6,4.2,5.4,8.5,7.4,9.2,7.6.4.1,23.4.1,23.9,0,.2,0,.5-.2.7-.4.3-.3.4-.5.7-1.2.7-2,1.3-5.1,1.5-6.8,0-2,0-2,0-3.7,0,0,0,0,0,0,0-1.4,0-2.6,0-3.2,0-2.2,0-4.4-3.4-4.4s-3.4,1.8-3.4,3.8c0,0,0,.1,0,.2,0-.5,0-1.4,0-1.7,0-2.2,0-4.4-3.4-4.4s-3.4,1.8-3.4,3.7c0,0,0,0,0,0,0,0,0-.1,0-.1,0-.4,0-1.1,0-1.4,0-2.2,0-4.4-3.4-4.4s-3.2,1.3-3.4,2.9c0,0,0,0,0,0,0,0,0-2.7,0-5.6s0-3.2,0-3.9c0-2.2,0-4.4-3.4-4.4h0Z"/>
    <path class="st3" d="M3.2,6s-3.2,0-3.2,3v1.1c0-3,3.2-3,3.2-3h57.6c1.8,0,3.2,1.4,3.2,3v-1.1c0-1.7-1.4-3-3.2-3H3.2Z"/>
  </g>
  <g>
    <path class="st2" d="M64,31.7c-.5,17.2-14.7,30.9-32,30.9-17.1,0-31.2-13.5-31.9-30.5,0,.3,0,.6,0,.9,0,17.6,14.3,31.8,32,31.8s32-14.3,32-31.8c0-.4,0-.9,0-1.3Z"/>
    <path class="st1" d="M64,31.8c0,17.6-14.3,31.8-32,31.8S0,49.4,0,31.8,14.3,0,32,0s32,14.3,32,31.8Z"/>
    <path class="st5" d="M25.4,10.2c-.1,0-.3,0-.4.1-.1,0-.2.3-.3.4,0,.3,0,.4.1.7.6,1,1.1,1.9,1.3,2.5.4.9.4,1.7.3,2.2l-.7,3.3c-3.4.8-6.7,1.6-9.9,2.8-.6.2-1.1.4-1.6.7,0,0,0,0-.1,0-.2.1-.2.3-.3.4,0,0-.1.2-.1.3,0,.1,0,.3.1.4.3.4.7.6,1.2.8.5.3,1.2.5,1.6.7,2.3.9,5.2,1.5,7.5,1.8-.6,2.9-1.2,5.8-2.2,8.6-.2.7-.5,1.4-.8,2.1-.8,1.9-1.9,3.7-3,5.4-1.1,1.6-2,3.1-3.2,4.6-.2.2-.6.5-.8.7-.1.1-.2.3-.3.4,0,0-.1,0-.1.1,0,0,0,0,0,.3,0,0,0,0,0,.1,0,0,0,.1.1.1,0,0,0,.1.1.1,0,0,0,0,.1,0,.2,0,.4,0,.7-.1.2,0,.4-.1.7-.3.6-.3,1.3-.6,1.9-1,.9-.6,1.5-1.1,2-1.5.9-.7,2.9-2.6,3.9-3.9,1.2-1.4,2.4-2.8,3.4-4.7,0,0,0-.1,0-.1,0-.1.4-.8.5-1.1.2-.5.3-1,.4-1.2l3-9.3,10.4-2.5c-.3,2.2-.5,4.4-.8,6.6-.2,1.8-.3,2.6-.5,4.6,0,0,0,0,0,.1-.1.6-.4,2.3-.5,2.8-.7,3.4-1.4,6.5-3,9.3-.4.5-.8,1.1-1.2,1.5-.4-.2-1-.5-1.9-.6,0,0,0,0-.1,0,0,0,0,0-.1,0,0,0-.1.1-.1.1,0,0-.1,0-.1.1,0,.3,0,.6.1.8,0,.3.2.6.3.8.8,1.8,1.7,3.4,2.6,5,0,0,0,.1.1.1,0,0,0,.1.1.1,0,0,0,0,.1,0,0,0,0,0,.1,0,0,0,.1,0,.1-.1,1.3-1.3,2.8-3.3,3.9-5,2.1-3.3,4-7,5.2-11.2.2-.7.3-1.3.5-2.1l4-15.9c.2-.7.4-1.5.4-2.1,0,0,0,0,0-.1,0-.2-.3-.3-.4-.4-.1-.1-.2-.2-.4-.3-.3-.2-.8-.4-1.2-.6-1.9-.7-4-1.3-6.3-1.8-.2-.1-.4-.2-.7-.1-.3,0-.6,0-.9.1-.6.1-1.2.3-1.6.4l-5.4,1.2c.2-.7.6-1.8.3-3.2-.5-1.5-1.6-2.4-3-2.9-1.1-.4-2.2-.7-3.4-1.1-.2,0-1-.4-1.9-.4h0Z"/>
    <path class="st9" d="M25.4,9.1c-.1,0-.3,0-.4.1-.1,0-.2.3-.3.4,0,.3,0,.4.1.7.6,1,1.1,1.9,1.3,2.5.4.9.4,1.7.3,2.2l-.7,3.3c-3.4.8-6.7,1.6-9.9,2.8-.6.2-1.1.4-1.6.7,0,0,0,0-.1,0-.2.1-.2.3-.3.4,0,0-.1.2-.1.3,0,.1,0,.3.1.4.3.4.7.6,1.2.8.5.3,1.2.5,1.6.7,2.3.9,5.2,1.5,7.5,1.8-.6,2.9-1.2,5.8-2.2,8.6-.2.7-.5,1.4-.8,2.1-.8,1.9-1.9,3.7-3,5.4-1.1,1.6-2,3.1-3.2,4.6-.2.2-.6.5-.8.7-.1.1-.2.3-.3.4,0,0-.1,0-.1.1,0,0,0,0,0,.3,0,0,0,0,0,.1,0,0,0,.1.1.1,0,0,0,.1.1.1,0,0,0,0,.1,0,.2,0,.4,0,.7-.1.2,0,.4-.1.7-.3.6-.3,1.3-.6,1.9-1,.9-.6,1.5-1.1,2-1.5.9-.7,2.9-2.6,3.9-3.9,1.2-1.4,2.4-2.8,3.4-4.7,0,0,0-.1,0-.1,0-.1.4-.8.5-1.1.2-.5.3-1,.4-1.2l3-9.3,10.4-2.5c-.3,2.2-.5,4.4-.8,6.6-.2,1.8-.3,2.6-.5,4.6,0,0,0,0,0,.1-.1.6-.4,2.3-.5,2.8-.7,3.4-1.4,6.5-3,9.3-.4.5-.8,1.1-1.2,1.5-.4-.2-1-.5-1.9-.6,0,0,0,0-.1,0,0,0,0,0-.1,0,0,0-.1.1-.1.1,0,0-.1,0-.1.1,0,.3,0,.6.1.8,0,.3.2.6.3.8.8,1.8,1.7,3.4,2.6,5,0,0,0,.1.1.1,0,0,0,.1.1.1,0,0,0,0,.1,0,0,0,0,0,.1,0,0,0,.1,0,.1-.1,1.3-1.3,2.8-3.3,3.9-5,2.1-3.3,4-7,5.2-11.2.2-.7.3-1.3.5-2.1l4-15.9c.2-.7.4-1.5.4-2.1,0,0,0,0,0-.1,0-.2-.3-.3-.4-.4-.1-.1-.2-.2-.4-.3-.3-.2-.8-.4-1.2-.6-1.9-.7-4-1.3-6.3-1.8-.2-.1-.4-.2-.7-.1-.3,0-.6,0-.9.1-.6.1-1.2.3-1.6.4l-5.4,1.2c.2-.7.6-1.8.3-3.2-.5-1.5-1.6-2.4-3-2.9-1.1-.4-2.2-.7-3.4-1.1-.2,0-1-.4-1.9-.4h0Z"/>
    <path class="st3" d="M32,0C14.3,0,0,14.3,0,31.8c0,.2,0,.4,0,.6C.3,15.1,14.6,1.1,32,1.1h0c17.4,0,31.7,13.9,32,31.3,0-.2,0-.4,0-.6C64,14.3,49.7,0,32,0h0Z"/>
  </g>
</svg>