<?xml version="1.0" encoding="UTF-8"?>
<svg id="_图层_1" xmlns="http://www.w3.org/2000/svg" version="1.1" viewBox="0 0 64 64" width="24" height="24">
  <!-- Generator: Adobe Illustrator 29.0.1, SVG Export Plug-In . SVG Version: 2.1.0 Build 192)  -->
  <defs>
    <style>
      .st0 {
        fill: #ca994c;
      }

      .st1, .st2 {
        fill: #fff;
      }

      .st3 {
        opacity: .2;
      }

      .st3, .st4, .st2 {
        isolation: isolate;
      }

      .st5 {
        fill: #977339;
      }

      .st4, .st2 {
        opacity: .2;
      }

      .st6 {
        display: none;
      }
    </style>
  </defs>
  <path class="st1" d="M50.3,64H13.9C6.3,64,.2,57.8.2,50.3V13.8C.2,6.2,6.3,0,13.9,0h36.5c7.5,0,13.7,6.2,13.7,13.7v36.5c0,7.5-6.1,13.7-13.7,13.7h0Z"/>
  <g class="st6">
    <path class="st4" d="M33.1,8.2c-13.7,0-24.9,10.9-24.9,24.3s11.1,24.3,24.9,24.3c1.8,0,3.6-.2,5.3-.6-11.4-2.4-19.5-12.3-19.5-23.7,0-11.4,8.1-21.2,19.5-23.7-1.7-.4-3.5-.6-5.3-.6Z"/>
    <path class="st4" d="M33.1,14.2c2.2,3.6,2.5,7.3,2.4,10.9-.9-.4-1.8-.7-2.9-.9-9-2-8.8,2.6-12.6,4.3,4.3,0,7.7,1.5,10.9,3.4-.8.6-1.5,1.2-2.2,2-6.3,6.7-2.1,8.8-2.4,12.8,2.1-3.6,5.2-5.8,8.5-7.5.1.9.3,1.9.6,2.9,2.8,8.6,6.8,6.1,10.1,8.5-2.2-3.6-2.5-7.3-2.4-10.9.9.4,1.8.7,2.9.9,9,2,8.8-2.6,12.6-4.3-4.3,0-7.7-1.5-10.9-3.4.8-.6,1.5-1.2,2.2-2,6.3-6.7,2.1-8.8,2.4-12.8-2.1,3.6-5.2,5.8-8.5,7.5-.1-.9-.3-1.9-.6-2.9-2.8-8.6-6.8-6.1-10.1-8.5Z"/>
    <path class="st0" d="M52.4,17.2c-3.6,6.1-9.6,8-15.3,10.6h0c-3,1.2-5.8,2.6-8.4,5.3-6.3,6.7-2.1,8.8-2.4,12.8,3.6-6.1,9.6-8,15.3-10.6h0c3-1.2,5.8-2.6,8.4-5.3,6.3-6.7,2.1-8.8,2.4-12.8Z"/>
    <path class="st0" d="M33.1,7.3c-13.7,0-24.9,10.9-24.9,24.3s11.1,24.3,24.9,24.3c1.8,0,3.6-.2,5.3-.6-11.4-2.4-19.5-12.3-19.5-23.7,0-11.4,8.1-21.2,19.5-23.7-1.7-.4-3.5-.6-5.3-.6Z"/>
    <path class="st0" d="M58.6,35.4c-7.2,0-11.9-4.1-17-7.6h0c-2.6-1.9-5.2-3.6-8.9-4.4-9-2-8.8,2.6-12.6,4.3,7.2,0,11.9,4.1,17,7.6h0c2.6,1.9,5.2,3.6,8.9,4.4,9,2,8.8-2.6,12.6-4.3Z"/>
    <path class="st0" d="M33.1,13.4c3.6,6,2.3,12.1,1.8,18.2h0c-.4,3.1-.6,6.2.5,9.8,2.8,8.6,6.8,6.1,10.1,8.4-3.6-6-2.3-12.1-1.8-18.2h0c.4-3.1.6-6.2-.5-9.8-2.8-8.6-6.8-6.1-10.1-8.4Z"/>
    <path class="st3" d="M33.1,13.4c2.2,3.6,2.6,7.3,2.4,10.9l3.9,7.3h0c.3-3.1.6-6.2-.5-9.8-1.2-3.8-3.4-6.8-5.1-8-.2-.1-.5-.3-.7-.4Z"/>
    <path class="st3" d="M39.4,31.6c-.4,4.5-1.3,13.8,5.5,17.8h0c.2.1.4.2.7.4-2.2-3.6-2.6-7.3-2.4-10.9l-3.7-7.3Z"/>
    <path class="st3" d="M52.4,17.2c-2.1,3.6-5.2,5.8-8.5,7.5l-4.5,6.9h0c2.9-1.3,5.8-2.6,8.4-5.3,2.7-2.9,4.4-6.3,4.6-8.3,0-.3,0-.5,0-.8h0Z"/>
    <path class="st3" d="M39.4,31.6c-4.2,1.9-12.9,5.8-13.1,13.5h0c0,.2,0,.5,0,.8,2.1-3.6,5.2-5.8,8.5-7.5l4.6-6.8Z"/>
    <path class="st3" d="M58.6,35.4c-4.3,0-7.7-1.5-10.9-3.4l-8.4-.3h0c2.7,1.8,5.2,3.6,8.9,4.4,3.9.9,7.7.6,9.7-.3.2-.1.5-.3.7-.4Z"/>
    <path class="st3" d="M39.3,31.6c-3.8-2.6-11.6-8-18.5-4.3h0c-.2.1-.4.3-.7.4,4.3,0,7.7,1.5,10.9,3.4l8.3.5Z"/>
    <path class="st3" d="M36.2,7.5c-12.4,1.5-21.7,11.8-21.8,24,0,12.2,9.3,22.5,21.8,24,.7,0,1.5-.2,2.2-.4-11.4-2.4-19.5-12.3-19.5-23.7,0-11.4,8.1-21.2,19.5-23.7-.7-.2-1.5-.3-2.2-.4Z"/>
    <path class="st2" d="M33.1,7.3c-13.7,0-24.9,10.9-24.9,24.3,0,0,0,.2,0,.3.3-13.1,11.3-23.7,24.9-23.7,1.1,0,2.2,0,3.3.2.7-.2,1.3-.4,2-.5-1.7-.4-3.5-.6-5.3-.6Z"/>
    <path class="st2" d="M33.1,13.4c.3.4.5.8.7,1.3,3.2,1.6,6.9,0,9.5,8,.2.7.4,1.4.5,2.1,0,0,0,0,.1,0-.1-.9-.3-1.9-.7-2.9-2.8-8.6-6.8-6.1-10.1-8.4ZM28.4,22.9c-4.9.1-5.3,3.4-8.4,4.8.4,0,.9,0,1.3,0,2.5-2,3.4-5.2,11.3-3.5,1,.2,2,.5,2.9.9,0-.6,0-1.2,0-1.7,0,.3,0,.6,0,.9-.9-.4-1.8-.7-2.9-.9-1.7-.4-3.1-.5-4.2-.5ZM30.3,31.6c-.5.5-1.1.9-1.6,1.5-3,3.2-3.6,5.3-3.4,7.1.1-1.6.9-3.6,3.4-6.2.7-.8,1.5-1.4,2.2-2-.2-.1-.4-.2-.6-.4ZM26.3,45.9s0,0,0,0c0,0,0,0,0,0,0,0,0,0,0,0h0Z"/>
  </g>
  <g>
    <path class="st4" d="M31.8,8.4c-12.9,0-23.4,10.3-23.4,23s10.5,23,23.4,23c1.7,0,3.4-.2,5-.6-10.7-2.3-18.4-11.6-18.4-22.4,0-10.8,7.6-20.1,18.3-22.4-1.6-.4-3.3-.5-5-.6Z"/>
    <path class="st0" d="M31.8,7.6c-12.9,0-23.4,10.3-23.4,23s10.5,23,23.4,23c1.7,0,3.4-.2,5-.6-10.7-2.3-18.4-11.6-18.4-22.4,0-10.8,7.6-20.1,18.3-22.4-1.6-.4-3.3-.5-5-.6Z"/>
    <path class="st3" d="M34.7,7.8c-11.7,1.5-20.4,11.2-20.4,22.8,0,11.6,8.8,21.3,20.4,22.8.7,0,1.4-.2,2.1-.3-10.7-2.3-18.4-11.6-18.4-22.4,0-10.8,7.6-20.1,18.3-22.4-.7-.1-1.4-.3-2.1-.4Z"/>
    <path class="st2" d="M31.8,7.6c-12.9,0-23.4,10.3-23.4,23,0,0,0,.2,0,.3.3-12.4,10.6-22.4,23.4-22.4,1,0,2.1,0,3.1.2.6-.2,1.2-.4,1.9-.5-1.6-.4-3.3-.5-5-.6Z"/>
    <path class="st4" d="M35.8,15c-.8,0-1.5.9-1.5,2v1.7c-1.2.3-2.4.8-3.4,1.4l-1.2-1.2c-.8-.8-1.9-1-2.5-.4l-2.6,2.6c-.6.6-.4,1.7.4,2.5l1.2,1.2c-.6,1.1-1.1,2.2-1.4,3.4h-1.7c-1.1,0-2.1.6-2.1,1.5v3.7c0,.8.9,1.5,2.1,1.5h1.7c.3,1.2.8,2.3,1.4,3.4l-1.2,1.2c-.8.8-1,1.9-.4,2.5l2.6,2.6c.6.6,1.7.4,2.5-.4l1.2-1.2c1.1.6,2.2,1.1,3.4,1.4v1.7c0,1.1.7,2,1.5,2h3.7c.8,0,1.5-.9,1.5-2v-1.7c1.2-.3,2.4-.8,3.4-1.4l1.2,1.2c.8.8,1.9,1,2.5.4l2.6-2.6c.6-.6.4-1.7-.4-2.5l-1.2-1.2c.6-1.1,1.1-2.2,1.4-3.4h1.7c1.1,0,2.1-.6,2.1-1.5v-3.7c0-.8-.9-1.5-2.1-1.5h-1.7c-.3-1.2-.8-2.3-1.4-3.4l1.2-1.2c.8-.8,1-1.9.4-2.5l-2.6-2.6c-.6-.6-1.7-.4-2.5.4l-1.2,1.2c-1.1-.6-2.2-1.1-3.4-1.4v-1.7c0-1.1-.7-2-1.5-2h-3.7ZM37.7,24.8c3.7,0,6.7,2.9,6.7,6.6,0,3.6-3,6.6-6.7,6.6-3.7,0-6.7-2.9-6.7-6.6h0c0-3.6,3-6.6,6.7-6.6Z"/>
    <path class="st0" d="M35.8,14.2c-.8,0-1.5.9-1.5,2v1.7c-1.2.3-2.4.8-3.4,1.4l-1.2-1.2c-.8-.8-1.9-1-2.5-.4l-2.6,2.6c-.6.6-.4,1.7.4,2.5l1.2,1.2c-.6,1.1-1.1,2.2-1.4,3.4h-1.7c-1.1,0-2.1.6-2.1,1.5v3.7c0,.8.9,1.5,2.1,1.5h1.7c.3,1.2.8,2.3,1.4,3.4l-1.2,1.2c-.8.8-1,1.9-.4,2.5l2.6,2.6c.6.6,1.7.4,2.5-.4l1.2-1.2c1.1.6,2.2,1.1,3.4,1.4v1.7c0,1.1.7,2,1.5,2h3.7c.8,0,1.5-.9,1.5-2v-1.7c1.2-.3,2.4-.8,3.4-1.4l1.2,1.2c.8.8,1.9,1,2.5.4l2.6-2.6c.6-.6.4-1.7-.4-2.5l-1.2-1.2c.6-1.1,1.1-2.2,1.4-3.4h1.7c1.1,0,2.1-.6,2.1-1.5v-3.7c0-.8-.9-1.5-2.1-1.5h-1.7c-.3-1.2-.8-2.3-1.4-3.4l1.2-1.2c.8-.8,1-1.9.4-2.5l-2.6-2.6c-.6-.6-1.7-.4-2.5.4l-1.2,1.2c-1.1-.6-2.2-1.1-3.4-1.4v-1.7c0-1.1-.7-2-1.5-2h-3.7ZM37.7,23.2s0,0,0,0c4.1,0,7.5,3.3,7.5,7.4h0c0,4.1-3.4,7.4-7.5,7.4s-7.5-3.3-7.5-7.4c0-4.1,3.4-7.4,7.5-7.4Z"/>
    <path class="st5" d="M37.7,20.7c-5.5,0-10,4.4-10,9.8s4.5,9.8,10,9.8,10-4.4,10-9.8-4.5-9.8-10-9.8ZM37.7,24c3.7,0,6.7,2.9,6.7,6.6s-3,6.6-6.7,6.6-6.7-2.9-6.7-6.6,3-6.6,6.7-6.6Z"/>
    <path class="st2" d="M35.8,14.2c-.8,0-1.5.9-1.5,2v.8c0-1.1.7-2,1.5-2h3.7c.8,0,1.5.9,1.5,2v-.8c0-1.1-.7-2-1.5-2h-3.7ZM28,17.4c-.3,0-.6.1-.8.3l-2.6,2.6c-.3.3-.4.8-.3,1.3,0-.2.1-.3.3-.5l2.6-2.6c.6-.6,1.7-.4,2.5.4l1.2,1.2c1.1-.6,2.2-1.1,3.4-1.4v-.8c-1.2.3-2.4.8-3.4,1.4l-1.2-1.2c-.5-.5-1.1-.7-1.7-.7ZM47.3,17.4c-.5,0-1.2.2-1.7.7l-1.2,1.2c-1.1-.6-2.2-1.1-3.4-1.4v.8c1.2.3,2.4.8,3.4,1.4l1.2-1.2c.8-.8,1.9-1,2.5-.4l2.6,2.6c.1.1.2.3.3.5.1-.5,0-1-.3-1.3l-2.6-2.6c-.2-.2-.5-.3-.8-.3ZM49.5,24.5l-.3.3c.6,1.1,1.1,2.2,1.4,3.4h1.7c1.1,0,2.1.6,2.1,1.5v-.8c0-.8-.9-1.5-2.1-1.5h-1.7c-.3-1-.6-1.9-1.1-2.8ZM25.9,24.5c-.5.9-.9,1.9-1.1,2.8h-1.7c-1.1,0-2.1.6-2.1,1.5v.8c0-.8.9-1.5,2.1-1.5h1.7c.3-1.2.8-2.3,1.4-3.4l-.3-.3ZM31,31c0,.1,0,.3,0,.4,0,3.6,3,6.6,6.7,6.6h0c3.7,0,6.7-2.9,6.7-6.6,0-.1,0-.3,0-.4-.2,3.5-3.1,6.1-6.7,6.2-3.5,0-6.4-2.7-6.7-6.2ZM49.5,37.5c0,.2-.2.4-.3.5l1.2,1.2c.4.4.6.8.7,1.2.2-.6,0-1.4-.7-2l-.9-.9ZM25.9,37.5l-.9.9c-.6.6-.9,1.4-.7,2,0-.4.3-.8.7-1.2l1.2-1.2c-.1-.2-.2-.3-.3-.5Z"/>
  </g>
</svg>