<?xml version="1.0" encoding="UTF-8" standalone="no"?>
<svg
   id="_图层_1"
   version="1.1"
   viewBox="0 0 64 64" width="24" height="24"
   sodipodi:docname="org.nickvision.tubeconverter.svg"
   xml:space="preserve"
   inkscape:version="1.4 (e7c3feb100, 2024-10-09)"
   xmlns:inkscape="http://www.inkscape.org/namespaces/inkscape"
   xmlns:sodipodi="http://sodipodi.sourceforge.net/DTD/sodipodi-0.dtd"
   xmlns="http://www.w3.org/2000/svg"
   xmlns:svg="http://www.w3.org/2000/svg"><sodipodi:namedview
     id="namedview26"
     pagecolor="#505050"
     bordercolor="#eeeeee"
     borderopacity="1"
     inkscape:showpageshadow="0"
     inkscape:pageopacity="0"
     inkscape:pagecheckerboard="0"
     inkscape:deskcolor="#505050"
     inkscape:zoom="10.6875"
     inkscape:cx="32"
     inkscape:cy="32"
     inkscape:window-width="1920"
     inkscape:window-height="939"
     inkscape:window-x="0"
     inkscape:window-y="34"
     inkscape:window-maximized="1"
     inkscape:current-layer="_图层_1" /><!-- Generator: Adobe Illustrator 29.0.1, SVG Export Plug-In . SVG Version: 2.1.0 Build 192)  --><defs
     id="defs6"><style
       id="style1">
      .st0 {
        fill-opacity: .5;
      }

      .st0, .st1, .st2, .st3, .st4, .st5, .st6, .st7 {
        fill: #fff;
      }

      .st8 {
        fill: #133c9a;
      }

      .st2, .st9 {
        display: none;
      }

      .st3 {
        fill-opacity: .2;
      }

      .st4 {
        fill-opacity: .9;
      }

      .st10 {
        fill: #3370ff;
      }

      .st11 {
        fill: url(#_未命名的渐变_3);
      }

      .st12 {
        fill: url(#_未命名的渐变);
      }

      .st5 {
        fill-opacity: .3;
      }

      .st6 {
        fill-opacity: 0;
      }

      .st7 {
        fill-opacity: .7;
      }

      .st13 {
        fill: #00d6b9;
      }

      .st14 {
        fill: url(#_未命名的渐变_2);
      }
    </style><radialGradient
       id="_未命名的渐变"
       data-name="未命名的渐变"
       cx="123.9"
       cy="-40.2"
       fx="123.9"
       fy="-40.2"
       r="59.4"
       gradientTransform="translate(-26.8 25.5) scale(.6 -.7)"
       gradientUnits="userSpaceOnUse"><stop
         offset="0"
         stop-color="#db202e"
         id="stop1" /><stop
         offset="1"
         stop-color="#e01b24"
         id="stop2" /></radialGradient><radialGradient
       id="_未命名的渐变_2"
       data-name="未命名的渐变 2"
       cx="67.6"
       cy="26.8"
       fx="67.6"
       fy="26.8"
       r="105.2"
       gradientTransform="translate(-26.6 25.3) scale(.6 -.7)"
       gradientUnits="userSpaceOnUse"><stop
         offset="0"
         stop-color="#ffb648"
         id="stop3" /><stop
         offset="1"
         stop-color="#ff7800"
         stop-opacity="0"
         id="stop4" /></radialGradient><radialGradient
       id="_未命名的渐变_3"
       data-name="未命名的渐变 3"
       cx="61.7"
       cy="18.6"
       fx="61.7"
       fy="18.6"
       r="68"
       gradientTransform="translate(-26.8 25.8) scale(.6 -.7)"
       gradientUnits="userSpaceOnUse"><stop
         offset="0"
         stop-color="#c64600"
         id="stop5" /><stop
         offset="1"
         stop-color="#a51d2d"
         id="stop6" /></radialGradient></defs><path
     class="st1"
     d="M47.5,64.1H13.8c-7.6,0-13.8-6.3-13.8-13.8V13.7C0,6.2,6.2,0,13.7,0h36.6c7.5,0,13.7,6.2,13.7,13.7v36.6c0,7.5-6.2,13.7-13.7,13.7h-2.9.1Z"
     id="path6"
     style="fill:#e53935;fill-opacity:1" /><g
     id="g44"
     transform="matrix(1.1436926,0,0,1.1460962,-4.5045949,-4.5463732)"><path
       style="opacity:0.2"
       d="m 32,11 a 3,3 0 0 0 -3,3 V 35.757812 L 24.121094,30.878906 A 3,3 0 0 0 22,30 a 3,3 0 0 0 -2.121094,0.878906 3,3 0 0 0 0,4.242188 l 10,10 a 3,3 0 0 0 0.578125,0.443359 3,3 0 0 0 0.22461,0.109375 3,3 0 0 0 0.445312,0.185547 3,3 0 0 0 0.283203,0.06445 3,3 0 0 0 0.439453,0.05664 A 3,3 0 0 0 32,46 a 3,3 0 0 0 0.150391,-0.01953 3,3 0 0 0 0.185547,0 3,3 0 0 0 0.253906,-0.05664 3,3 0 0 0 0.283203,-0.06445 3,3 0 0 0 0.445312,-0.185547 3,3 0 0 0 0.22461,-0.109375 3,3 0 0 0 0.578125,-0.443359 l 10,-10 a 3,3 0 0 0 0,-4.242188 A 3,3 0 0 0 42,30 3,3 0 0 0 39.878906,30.878906 L 35,35.757812 V 14 A 3,3 0 0 0 32,11 Z M 16,49 v 6 h 32 v -6 z"
       id="path3-3" /><path
       style="fill:none;stroke:#ffffff;stroke-width:6;stroke-linecap:round"
       d="M 32,13 V 42"
       id="path4" /><path
       style="fill:none;stroke:#ffffff;stroke-width:6;stroke-linecap:round"
       d="M 22,32 32,42"
       id="path5" /><path
       style="fill:none;stroke:#ffffff;stroke-width:6;stroke-linecap:round"
       d="M 42,32 32,42"
       id="path6-6" /><path
       style="fill:none;stroke:#ffffff;stroke-width:6"
       d="M 16,51 H 48"
       id="path7" /></g></svg>
