<?xml version="1.0" encoding="UTF-8" standalone="no"?>
<svg
   id="_图层_1"
   version="1.1"
   viewBox="0 0 64 64" width="24" height="24"
   sodipodi:docname="penumbra-overture.svg"
   xml:space="preserve"
   inkscape:version="1.4 (e7c3feb100, 2024-10-09)"
   xmlns:inkscape="http://www.inkscape.org/namespaces/inkscape"
   xmlns:sodipodi="http://sodipodi.sourceforge.net/DTD/sodipodi-0.dtd"
   xmlns="http://www.w3.org/2000/svg"
   xmlns:svg="http://www.w3.org/2000/svg"><sodipodi:namedview
     id="namedview26"
     pagecolor="#ffffff"
     bordercolor="#999999"
     borderopacity="1"
     inkscape:showpageshadow="2"
     inkscape:pageopacity="0"
     inkscape:pagecheckerboard="0"
     inkscape:deskcolor="#d1d1d1"
     inkscape:zoom="8.453125"
     inkscape:cx="31.94085"
     inkscape:cy="31.94085"
     inkscape:window-width="1920"
     inkscape:window-height="939"
     inkscape:window-x="0"
     inkscape:window-y="34"
     inkscape:window-maximized="1"
     inkscape:current-layer="g32" /><!-- Generator: Adobe Illustrator 29.0.1, SVG Export Plug-In . SVG Version: 2.1.0 Build 192)  --><defs
     id="defs6"><style
       id="style1">
      .st0 {
        fill-opacity: .5;
      }

      .st0, .st1, .st2, .st3, .st4, .st5, .st6, .st7 {
        fill: #fff;
      }

      .st8 {
        fill: #133c9a;
      }

      .st2, .st9 {
        display: none;
      }

      .st3 {
        fill-opacity: .2;
      }

      .st4 {
        fill-opacity: .9;
      }

      .st10 {
        fill: #3370ff;
      }

      .st11 {
        fill: url(#_未命名的渐变_3);
      }

      .st12 {
        fill: url(#_未命名的渐变);
      }

      .st5 {
        fill-opacity: .3;
      }

      .st6 {
        fill-opacity: 0;
      }

      .st7 {
        fill-opacity: .7;
      }

      .st13 {
        fill: #00d6b9;
      }

      .st14 {
        fill: url(#_未命名的渐变_2);
      }
    </style><radialGradient
       id="_未命名的渐变"
       data-name="未命名的渐变"
       cx="123.9"
       cy="-40.2"
       fx="123.9"
       fy="-40.2"
       r="59.4"
       gradientTransform="translate(-26.8 25.5) scale(.6 -.7)"
       gradientUnits="userSpaceOnUse"><stop
         offset="0"
         stop-color="#db202e"
         id="stop1" /><stop
         offset="1"
         stop-color="#e01b24"
         id="stop2" /></radialGradient><radialGradient
       id="_未命名的渐变_2"
       data-name="未命名的渐变 2"
       cx="67.6"
       cy="26.8"
       fx="67.6"
       fy="26.8"
       r="105.2"
       gradientTransform="translate(-26.6 25.3) scale(.6 -.7)"
       gradientUnits="userSpaceOnUse"><stop
         offset="0"
         stop-color="#ffb648"
         id="stop3" /><stop
         offset="1"
         stop-color="#ff7800"
         stop-opacity="0"
         id="stop4" /></radialGradient><radialGradient
       id="_未命名的渐变_3"
       data-name="未命名的渐变 3"
       cx="61.7"
       cy="18.6"
       fx="61.7"
       fy="18.6"
       r="68"
       gradientTransform="translate(-26.8 25.8) scale(.6 -.7)"
       gradientUnits="userSpaceOnUse"><stop
         offset="0"
         stop-color="#c64600"
         id="stop5" /><stop
         offset="1"
         stop-color="#a51d2d"
         id="stop6" /></radialGradient><style
       id="style1-0">
      .st0 {
        fill-opacity: .5;
      }

      .st0, .st1, .st2, .st3, .st4, .st5, .st6, .st7 {
        fill: #fff;
      }

      .st8 {
        fill: #133c9a;
      }

      .st2, .st9 {
        display: none;
      }

      .st3 {
        fill-opacity: .2;
      }

      .st4 {
        fill-opacity: .9;
      }

      .st10 {
        fill: #3370ff;
      }

      .st11 {
        fill: url(#_未命名的渐变_3);
      }

      .st12 {
        fill: url(#_未命名的渐变);
      }

      .st5 {
        fill-opacity: .3;
      }

      .st6 {
        fill-opacity: 0;
      }

      .st7 {
        fill-opacity: .7;
      }

      .st13 {
        fill: #00d6b9;
      }

      .st14 {
        fill: url(#_未命名的渐变_2);
      }
    </style><radialGradient
       id="_未命名的渐变-6"
       data-name="未命名的渐变"
       cx="123.9"
       cy="-40.2"
       fx="123.9"
       fy="-40.2"
       r="59.4"
       gradientTransform="matrix(0.6,0,0,-0.7,-26.8,25.5)"
       gradientUnits="userSpaceOnUse"><stop
         offset="0"
         stop-color="#db202e"
         id="stop1-3" /><stop
         offset="1"
         stop-color="#e01b24"
         id="stop2-2" /></radialGradient><radialGradient
       id="_未命名的渐变_2-0"
       data-name="未命名的渐变 2"
       cx="67.6"
       cy="26.8"
       fx="67.6"
       fy="26.8"
       r="105.2"
       gradientTransform="matrix(0.6,0,0,-0.7,-26.6,25.3)"
       gradientUnits="userSpaceOnUse"><stop
         offset="0"
         stop-color="#ffb648"
         id="stop3-6" /><stop
         offset="1"
         stop-color="#ff7800"
         stop-opacity="0"
         id="stop4-1" /></radialGradient><radialGradient
       id="_未命名的渐变_3-5"
       data-name="未命名的渐变 3"
       cx="61.7"
       cy="18.6"
       fx="61.7"
       fy="18.6"
       r="68"
       gradientTransform="matrix(0.6,0,0,-0.7,-26.8,25.8)"
       gradientUnits="userSpaceOnUse"><stop
         offset="0"
         stop-color="#c64600"
         id="stop5-5" /><stop
         offset="1"
         stop-color="#a51d2d"
         id="stop6-4" /></radialGradient></defs><path
     class="st1"
     d="M47.5,64.1H13.8c-7.6,0-13.8-6.3-13.8-13.8V13.7C0,6.2,6.2,0,13.7,0h36.6c7.5,0,13.7,6.2,13.7,13.7v36.6c0,7.5-6.2,13.7-13.7,13.7h-2.9.1Z"
     id="path6"
     style="fill:#8a97b5;fill-opacity:1" /><rect
     class="st2"
     x="3"
     y="9.7"
     width="58.1"
     height="45.3"
     id="rect6" /><g
     class="st9"
     id="g21"><path
       class="st12"
       d="M-.1,16v35.3c.3,6.5,6.1,12.6,13.4,12.6l4.7.2h23.3s7.2,0,7.2,0c8.8,0,15.5-4.1,15.5-13.9V16.4h0C64,6.3,58,0,50.7,0H14.8C4.7-.2,0,7.2,0,14.5v1.4h-.1ZM4.6,11.6h4.6v5.8h-4.6v-5.8ZM54.9,11.6h4.6v5.8h-4.6v-5.8ZM4.6,23.2h4.6v5.8h-4.6v-5.8ZM54.9,23.2h4.6v5.8h-4.6v-5.8ZM4.6,34.8h4.6v5.8h-4.6v-5.8ZM54.9,34.8h4.6v5.8h-4.6v-5.8ZM4.6,46.4h4.6v5.8h-4.6v-5.8ZM54.9,46.4h4.6v5.8h-4.6v-5.8Z"
       id="path7" /><path
       class="st14"
       d="M47.5,0h-.7C41.4,0,46.8,0,45.5,0H13.3C4.1.3,0,8.5,0,13.7v1.3c0,.3-.1.3-.1.6v34.3c0,1.1,0,.8,0,.8H0c0,7.1,5.9,13.2,13.8,13.3h0c1.2,0,0,0,1.2,0h0c1.1,0,2.3,0,1.1,0h23.5c1.1,0,0,0,1.1,0h.7c3.2.1-1.7,0,0,0h-2.6c1.1,0,.6,0-1.1,0h-2c1.9,0-.6,0,13.3,0h1.3c5.9,0,13.7-4.3,13.6-11.4l.2-36.2C64.1,8.1,58.6,0,51.2,0M4.8,22.9h4.5v5.8h-4.5v-5.8ZM54.7,11.4h4.5v5.8h-4.5v-5.8ZM4.8,11.4h5v5.8h-5v-5.8ZM54.7,22.9h4.5v5.8h-4.5v-5.8ZM4.8,34.4h4.5v5.8h-4.5v-5.8ZM54.7,34.4h4.5v5.8h-4.5v-5.8ZM4.8,46h4.5v5.8h-4.5v-5.8ZM54.7,46h4.5v5.8h-4.5v-5.8Z"
       id="path8" /><path
       class="st11"
       d="M4.6,9.7v2.2h4.6v-2.2h-4.6ZM54.9,9.7v2.2h4.6v-2.2h-4.6ZM4.6,21.3v2.2h4.6v-2.2h-4.6ZM54.9,21.3v2.2h4.6v-2.2h-4.6ZM4.6,32.9v2.2h4.6v-2.2h-4.6ZM54.9,32.9v2.2h4.6v-2.2h-4.6ZM4.6,44.4v2.2h4.6v-2.2h-4.6ZM54.9,44.4v2.2h4.6v-2.2h-4.6ZM4.6,56v2.2h4.6v-2.2h-4.6ZM54.9,56v2.2h4.6v-2.2h-4.6Z"
       id="path9" /><g
       id="g20"><path
         class="st1"
         d="M25.1,29.3h13.7v11.6h-13.7s0-11.6,0-11.6Z"
         id="path10" /><path
         class="st1"
         d="M32,53.9l-12.6-15.9h25.1l-12.6,15.9h.1Z"
         id="path11" /><path
         class="st7"
         d="M25.1,29.3h4.6v-5.8h-4.6v5.8Z"
         id="path12" /><path
         class="st1"
         d="M29.7,29.3h4.6v-5.8h-4.6s0,5.8,0,5.8Z"
         id="path13" /><path
         class="st4"
         d="M34.3,29.3h4.6v-5.8h-4.6v5.8Z"
         id="path14" /><path
         class="st7"
         d="M38.9,23.5h-4.6v-5.8h4.6v5.8Z"
         id="path15" /><path
         class="st0"
         d="M34.3,23.5h-4.6v-5.8h4.6v5.8Z"
         id="path16" /><path
         class="st4"
         d="M29.7,23.5h-4.6v-5.8h4.6v5.8Z"
         id="path17" /><path
         class="st3"
         d="M38.9,17.7h-4.6v-5.8h4.6v5.8Z"
         id="path18" /><path
         class="st5"
         d="M34.3,17.7h-4.6v-5.8h4.6v5.8Z"
         id="path19" /><path
         class="st6"
         d="M29.7,17.7h-4.6v-5.8h4.6v5.8Z"
         id="path20" /></g></g><g
     class="st9"
     id="g23"><path
       class="st8"
       d="M50.3,23.1c.2,0,.5,0,.7,0,1.8.2,3.5.7,5.1,1.4.5.2.6.4.2.8-1.2,1.2-2.1,2.7-2.9,4.2-.8,1.7-1.6,3.3-2.5,4.9-.6,1.2-1.4,2.3-2.4,3.3-2.5,2.3-5.4,3.2-8.8,2.8-3.8-.5-7.5-1.8-10.9-3.5-.2,0-.3-.2-.5-.3-.1,0-.2-.2,0-.3,0,0,0,0,0,0h.2c2.8-1.6,5.1-3.7,7.3-5.9.9-.9,1.9-1.9,2.8-2.8,2.1-2,4.7-3.4,7.5-4,.6-.2,1.2-.3,1.9-.4h1.4"
       id="path21" /><path
       class="st10"
       d="M23.4,49.9c-.4,0-1.5-.2-1.6-.2-2.7-.3-5.3-1.1-7.7-2.3-1.4-.7-2.8-1.4-4.1-2.2-.9-.5-1.3-1.3-1.3-2.3,0-3.9,0-7.8,0-11.7,0-2.5,0-5-.1-7.5,0-.2,0-.4.1-.7.2-.5.5-.5.8-.2.4.3.6.8,1,1.1,3.2,3.1,6.5,6,10.3,8.3,2.1,1.4,4.3,2.6,6.6,3.6,3.6,1.7,7.4,3.1,11.3,4,3.5.8,6.8.3,9.6-1.9.9-.7,1.3-1.3,2.3-2.6-.5,1.2-1,2.3-1.8,3.4-.7,1-2.1,2.4-3.2,3.5-1.7,1.6-3.9,3-6,4.1-2.3,1.2-4.6,2.2-7.2,2.7-1.3.3-3.2.7-3.8.7-.1,0-.5,0-.7,0-1.7.1-2.7.2-4.4,0h0Z"
       id="path22" /><path
       class="st13"
       d="M16.2,12.3c.1,0,.2,0,.3,0,7.2,0,14.3.1,21.4.1s0,0,0,0c.7.6,1.3,1.2,1.8,1.9,1.6,1.6,2.8,4.4,3.6,6.1.4,1.2,1,2.3,1.3,3.6h0c-.7.3-1.4.5-2.1.9-2.1,1-3,1.8-4.7,3.5-.9.9-1.7,1.7-3,2.9-.5.4-.9.9-1.4,1.3-.3-.6-5.9-11.5-17.1-20"
       id="path23" /></g><g
     id="g32"
     transform="matrix(1.1373102,0,0,1.1349041,-4.3345944,-4.2340168)"><path
       d="m 32.103085,7.9995002 c 0,0 -1.43235,0.8721134 -1.940958,1.526982 -0.550507,0.7088238 -0.674296,1.6825948 -1.104796,2.4746978 -0.413531,0.760881 -1.27432,1.31372 -1.412575,2.174069 -0.08052,0.500909 0.382497,1.471988 0.382497,1.471988 l -1.376995,1.200688 -0.555071,1.719455 -0.741864,1.239185 -0.64758,3.246436 -2.501359,9.161888 1.001614,1.877105 -0.91088,0.243804 c 0,0 -0.360391,-0.298815 -0.638681,-0.269467 -0.260931,0.02752 -0.768555,0.168646 -0.768555,0.168646 0,0 -1.182093,0.435361 -0.818371,1.955929 0.376065,1.572161 1.505083,1.587475 1.505083,1.587475 0,0 0.707334,-0.221641 1.147499,-0.405119 0.23099,-0.09628 0.359369,-0.674584 0.359369,-0.674584 l 0.494581,-0.161313 c 0.0083,0.02005 0.0073,0.05046 0.01778,0.06783 0.362037,0.596046 1.074146,1.100879 1.702562,0.826733 0.558128,-0.243486 0.578971,-1.074047 0.706284,-1.68463 0.19103,-0.916168 0.288211,-2.795493 0.288211,-2.795493 0,0 0.520158,2.123638 0.35937,3.176782 -0.144957,0.949452 -1.161727,2.623181 -1.161727,2.623181 0,0 1.106545,0.775748 1.77372,0.70208 0.246619,0.47176 0.203291,0.593422 0.213492,1.090701 0.01141,0.55554 -0.588875,1.552644 -0.588875,1.552644 l 0.916217,2.766165 c 0,0 0.23999,4.620863 -0.261522,7.897038 -0.814536,0.630474 -1.212573,1.312235 -1.047867,1.889938 0.426174,0.758213 0.938078,1.343539 1.636741,1.34917 1.432404,-0.9022 2.535024,-0.956499 2.620555,-2.09158 0.42048,-5.579909 0.409185,-13.555852 0.409185,-13.555852 0,0 0.294826,0.159039 0.770331,0.201643 v 0.01285 c 0.06311,0.0032 0.112104,-0.0061 0.17079,-0.0072 0.0592,0.0012 0.10879,0.01059 0.172576,0.0072 v -0.01285 c 0.475506,-0.04261 0.772106,-0.201643 0.772106,-0.201643 0,0 -0.01127,7.975943 0.409186,13.555852 0.08554,1.135081 1.18816,1.18938 2.620563,2.09158 0.698664,-0.0056 1.21056,-0.590957 1.636733,-1.34917 0.164706,-0.577703 -0.233331,-1.259464 -1.047868,-1.889938 -0.50151,-3.276175 -0.26152,-7.897038 -0.26152,-7.897038 l 0.91622,-2.766164 c 0,0 -0.600251,-0.997104 -0.588873,-1.552644 0.01018,-0.497279 -0.0349,-0.618941 0.211714,-1.0907 0.667176,0.07368 1.773721,-0.702081 1.773721,-0.702081 0,0 -1.016769,-1.673729 -1.161727,-2.623181 -0.160788,-1.053144 0.359369,-3.176781 0.359369,-3.176781 0,0 0.09718,1.879324 0.288212,2.795492 0.127311,0.610583 0.148155,1.441144 0.706286,1.68463 0.628416,0.274146 1.340524,-0.230686 1.702563,-0.826732 0.196312,-0.323209 0,-1.143863 0,-1.143863 l 0.370044,-0.287801 V 34.124989 L 42,32.214887 39.498643,23.053 38.851061,19.806564 38.109195,18.567378 37.554124,16.847923 36.17713,15.647235 c 0,0 0.46299,-0.971078 0.382496,-1.471988 C 36.421372,13.3149 35.560582,12.762061 35.147052,12.00118 34.716552,11.209077 34.59455,10.235306 34.044042,9.5264822 33.535433,8.8716136 32.103085,7.9995002 32.103085,7.9995002 Z M 20.953702,34.718918 c 0.37325,0.01521 0.782345,0.47887 0.978485,1.109032 0.227455,0.731409 0.09131,1.430311 -0.304217,1.56181 -0.395876,0.131224 -0.90157,-0.355376 -1.129708,-1.087035 -0.228266,-0.732271 -0.09204,-1.432496 0.304224,-1.563643 0.048,-0.01568 0.09867,-0.02246 0.151216,-0.02016 z"
       style="opacity:0.1"
       id="path3" /><path
       d="m 32.103085,6.999996 c 0,0 -1.43235,0.8721134 -1.940958,1.526982 -0.550507,0.708824 -0.674296,1.682595 -1.104796,2.474698 -0.413531,0.760881 -1.27432,1.31372 -1.412575,2.174069 -0.08052,0.500909 0.382497,1.471988 0.382497,1.471988 l -1.376995,1.200688 -0.555071,1.719455 -0.741864,1.239185 -0.64758,3.246436 -2.501359,9.161888 1.001614,1.877105 -0.91088,0.243804 c 0,0 -0.360391,-0.298815 -0.638681,-0.269467 -0.260931,0.02752 -0.768555,0.168646 -0.768555,0.168646 0,0 -1.182093,0.435361 -0.818371,1.955929 0.376065,1.572161 1.505083,1.587475 1.505083,1.587475 0,0 0.707334,-0.221641 1.147499,-0.405119 0.23099,-0.09628 0.359369,-0.674584 0.359369,-0.674584 l 0.494581,-0.161313 c 0.0083,0.02005 0.0073,0.05046 0.01778,0.06783 0.362037,0.596046 1.074146,1.100879 1.702562,0.826733 0.558128,-0.243486 0.578971,-1.074047 0.706284,-1.68463 0.19103,-0.916168 0.288211,-2.795493 0.288211,-2.795493 0,0 0.520158,2.123638 0.35937,3.176782 -0.144957,0.949452 -1.161727,2.623181 -1.161727,2.623181 0,0 1.106545,0.775748 1.77372,0.70208 0.246619,0.47176 0.203291,0.593422 0.213492,1.090701 0.01141,0.55554 -0.588875,1.552644 -0.588875,1.552644 l 0.916217,2.766165 c 0,0 0.23999,4.620863 -0.261522,7.897038 -0.814536,0.630474 -1.212573,1.312235 -1.047867,1.889938 0.426174,0.758213 0.938078,1.343538 1.636741,1.34917 1.432404,-0.902201 2.535024,-0.956499 2.620555,-2.09158 0.42048,-5.579909 0.409185,-13.555852 0.409185,-13.555852 0,0 0.294826,0.159039 0.770331,0.201643 v 0.01285 c 0.06311,0.0032 0.112104,-0.0061 0.17079,-0.0072 0.0592,0.0012 0.10879,0.01059 0.172576,0.0072 v -0.01285 c 0.475506,-0.04261 0.772106,-0.201643 0.772106,-0.201643 0,0 -0.01127,7.975943 0.409186,13.555852 0.08554,1.135081 1.18816,1.189379 2.620563,2.09158 0.698664,-0.0056 1.21056,-0.590957 1.636733,-1.34917 0.164706,-0.577703 -0.233331,-1.259464 -1.047868,-1.889938 -0.50151,-3.276175 -0.26152,-7.897038 -0.26152,-7.897038 l 0.91622,-2.766164 c 0,0 -0.600251,-0.997104 -0.588873,-1.552644 0.01018,-0.497279 -0.0349,-0.618941 0.211714,-1.0907 0.667176,0.07368 1.773721,-0.702081 1.773721,-0.702081 0,0 -1.016769,-1.673729 -1.161727,-2.623181 -0.160788,-1.053144 0.359369,-3.176781 0.359369,-3.176781 0,0 0.09718,1.879324 0.288212,2.795492 0.127311,0.610583 0.148155,1.441144 0.706286,1.68463 0.628416,0.274146 1.340524,-0.230686 1.702563,-0.826732 0.196312,-0.323209 0,-1.143863 0,-1.143863 l 0.370044,-0.287801 V 33.125485 L 42,31.215383 39.498643,22.053496 38.851061,18.80706 38.109195,17.567874 37.554124,15.848419 36.17713,14.647731 c 0,0 0.46299,-0.971078 0.382496,-1.471988 C 36.421372,12.315396 35.560582,11.762557 35.147052,11.001676 34.716552,10.209573 34.59455,9.235802 34.044042,8.526978 33.535433,7.8721094 32.103085,6.999996 32.103085,6.999996 Z M 20.953702,33.719414 c 0.37325,0.01521 0.782345,0.47887 0.978485,1.109032 0.227455,0.731409 0.09131,1.430311 -0.304217,1.56181 -0.395876,0.131224 -0.90157,-0.355376 -1.129708,-1.087035 -0.228266,-0.732271 -0.09204,-1.432496 0.304224,-1.563643 0.048,-0.01568 0.09867,-0.02246 0.151216,-0.02016 z"
       style="fill:#3f3f3f"
       id="path4" /></g></svg>
