<?xml version="1.0" encoding="UTF-8" standalone="no"?>
<svg
   id="_图层_1"
   version="1.1"
   viewBox="0 0 64 64" width="24" height="24"
   sodipodi:docname="pizarra.svg"
   xml:space="preserve"
   inkscape:version="1.4 (e7c3feb100, 2024-10-09)"
   xmlns:inkscape="http://www.inkscape.org/namespaces/inkscape"
   xmlns:sodipodi="http://sodipodi.sourceforge.net/DTD/sodipodi-0.dtd"
   xmlns="http://www.w3.org/2000/svg"
   xmlns:svg="http://www.w3.org/2000/svg"><sodipodi:namedview
     id="namedview26"
     pagecolor="#ffffff"
     bordercolor="#999999"
     borderopacity="1"
     inkscape:showpageshadow="2"
     inkscape:pageopacity="0"
     inkscape:pagecheckerboard="0"
     inkscape:deskcolor="#d1d1d1"
     inkscape:zoom="8.453125"
     inkscape:cx="31.94085"
     inkscape:cy="31.94085"
     inkscape:window-width="1920"
     inkscape:window-height="939"
     inkscape:window-x="0"
     inkscape:window-y="34"
     inkscape:window-maximized="1"
     inkscape:current-layer="g29" /><!-- Generator: Adobe Illustrator 29.0.1, SVG Export Plug-In . SVG Version: 2.1.0 Build 192)  --><defs
     id="defs6"><style
       id="style1">
      .st0 {
        fill-opacity: .5;
      }

      .st0, .st1, .st2, .st3, .st4, .st5, .st6, .st7 {
        fill: #fff;
      }

      .st8 {
        fill: #133c9a;
      }

      .st2, .st9 {
        display: none;
      }

      .st3 {
        fill-opacity: .2;
      }

      .st4 {
        fill-opacity: .9;
      }

      .st10 {
        fill: #3370ff;
      }

      .st11 {
        fill: url(#_未命名的渐变_3);
      }

      .st12 {
        fill: url(#_未命名的渐变);
      }

      .st5 {
        fill-opacity: .3;
      }

      .st6 {
        fill-opacity: 0;
      }

      .st7 {
        fill-opacity: .7;
      }

      .st13 {
        fill: #00d6b9;
      }

      .st14 {
        fill: url(#_未命名的渐变_2);
      }
    </style><radialGradient
       id="_未命名的渐变"
       data-name="未命名的渐变"
       cx="123.9"
       cy="-40.2"
       fx="123.9"
       fy="-40.2"
       r="59.4"
       gradientTransform="translate(-26.8 25.5) scale(.6 -.7)"
       gradientUnits="userSpaceOnUse"><stop
         offset="0"
         stop-color="#db202e"
         id="stop1" /><stop
         offset="1"
         stop-color="#e01b24"
         id="stop2" /></radialGradient><radialGradient
       id="_未命名的渐变_2"
       data-name="未命名的渐变 2"
       cx="67.6"
       cy="26.8"
       fx="67.6"
       fy="26.8"
       r="105.2"
       gradientTransform="translate(-26.6 25.3) scale(.6 -.7)"
       gradientUnits="userSpaceOnUse"><stop
         offset="0"
         stop-color="#ffb648"
         id="stop3" /><stop
         offset="1"
         stop-color="#ff7800"
         stop-opacity="0"
         id="stop4" /></radialGradient><radialGradient
       id="_未命名的渐变_3"
       data-name="未命名的渐变 3"
       cx="61.7"
       cy="18.6"
       fx="61.7"
       fy="18.6"
       r="68"
       gradientTransform="translate(-26.8 25.8) scale(.6 -.7)"
       gradientUnits="userSpaceOnUse"><stop
         offset="0"
         stop-color="#c64600"
         id="stop5" /><stop
         offset="1"
         stop-color="#a51d2d"
         id="stop6" /></radialGradient></defs><path
     class="st1"
     d="M47.5,64.1H13.8c-7.6,0-13.8-6.3-13.8-13.8V13.7C0,6.2,6.2,0,13.7,0h36.6c7.5,0,13.7,6.2,13.7,13.7v36.6c0,7.5-6.2,13.7-13.7,13.7h-2.9.1Z"
     id="path6"
     style="fill:#3f3f3f;fill-opacity:1" /><rect
     class="st2"
     x="3"
     y="9.7"
     width="58.1"
     height="45.3"
     id="rect6" /><g
     class="st9"
     id="g21"><path
       class="st12"
       d="M-.1,16v35.3c.3,6.5,6.1,12.6,13.4,12.6l4.7.2h23.3s7.2,0,7.2,0c8.8,0,15.5-4.1,15.5-13.9V16.4h0C64,6.3,58,0,50.7,0H14.8C4.7-.2,0,7.2,0,14.5v1.4h-.1ZM4.6,11.6h4.6v5.8h-4.6v-5.8ZM54.9,11.6h4.6v5.8h-4.6v-5.8ZM4.6,23.2h4.6v5.8h-4.6v-5.8ZM54.9,23.2h4.6v5.8h-4.6v-5.8ZM4.6,34.8h4.6v5.8h-4.6v-5.8ZM54.9,34.8h4.6v5.8h-4.6v-5.8ZM4.6,46.4h4.6v5.8h-4.6v-5.8ZM54.9,46.4h4.6v5.8h-4.6v-5.8Z"
       id="path7" /><path
       class="st14"
       d="M47.5,0h-.7C41.4,0,46.8,0,45.5,0H13.3C4.1.3,0,8.5,0,13.7v1.3c0,.3-.1.3-.1.6v34.3c0,1.1,0,.8,0,.8H0c0,7.1,5.9,13.2,13.8,13.3h0c1.2,0,0,0,1.2,0h0c1.1,0,2.3,0,1.1,0h23.5c1.1,0,0,0,1.1,0h.7c3.2.1-1.7,0,0,0h-2.6c1.1,0,.6,0-1.1,0h-2c1.9,0-.6,0,13.3,0h1.3c5.9,0,13.7-4.3,13.6-11.4l.2-36.2C64.1,8.1,58.6,0,51.2,0M4.8,22.9h4.5v5.8h-4.5v-5.8ZM54.7,11.4h4.5v5.8h-4.5v-5.8ZM4.8,11.4h5v5.8h-5v-5.8ZM54.7,22.9h4.5v5.8h-4.5v-5.8ZM4.8,34.4h4.5v5.8h-4.5v-5.8ZM54.7,34.4h4.5v5.8h-4.5v-5.8ZM4.8,46h4.5v5.8h-4.5v-5.8ZM54.7,46h4.5v5.8h-4.5v-5.8Z"
       id="path8" /><path
       class="st11"
       d="M4.6,9.7v2.2h4.6v-2.2h-4.6ZM54.9,9.7v2.2h4.6v-2.2h-4.6ZM4.6,21.3v2.2h4.6v-2.2h-4.6ZM54.9,21.3v2.2h4.6v-2.2h-4.6ZM4.6,32.9v2.2h4.6v-2.2h-4.6ZM54.9,32.9v2.2h4.6v-2.2h-4.6ZM4.6,44.4v2.2h4.6v-2.2h-4.6ZM54.9,44.4v2.2h4.6v-2.2h-4.6ZM4.6,56v2.2h4.6v-2.2h-4.6ZM54.9,56v2.2h4.6v-2.2h-4.6Z"
       id="path9" /><g
       id="g20"><path
         class="st1"
         d="M25.1,29.3h13.7v11.6h-13.7s0-11.6,0-11.6Z"
         id="path10" /><path
         class="st1"
         d="M32,53.9l-12.6-15.9h25.1l-12.6,15.9h.1Z"
         id="path11" /><path
         class="st7"
         d="M25.1,29.3h4.6v-5.8h-4.6v5.8Z"
         id="path12" /><path
         class="st1"
         d="M29.7,29.3h4.6v-5.8h-4.6s0,5.8,0,5.8Z"
         id="path13" /><path
         class="st4"
         d="M34.3,29.3h4.6v-5.8h-4.6v5.8Z"
         id="path14" /><path
         class="st7"
         d="M38.9,23.5h-4.6v-5.8h4.6v5.8Z"
         id="path15" /><path
         class="st0"
         d="M34.3,23.5h-4.6v-5.8h4.6v5.8Z"
         id="path16" /><path
         class="st4"
         d="M29.7,23.5h-4.6v-5.8h4.6v5.8Z"
         id="path17" /><path
         class="st3"
         d="M38.9,17.7h-4.6v-5.8h4.6v5.8Z"
         id="path18" /><path
         class="st5"
         d="M34.3,17.7h-4.6v-5.8h4.6v5.8Z"
         id="path19" /><path
         class="st6"
         d="M29.7,17.7h-4.6v-5.8h4.6v5.8Z"
         id="path20" /></g></g><g
     class="st9"
     id="g23"><path
       class="st8"
       d="M50.3,23.1c.2,0,.5,0,.7,0,1.8.2,3.5.7,5.1,1.4.5.2.6.4.2.8-1.2,1.2-2.1,2.7-2.9,4.2-.8,1.7-1.6,3.3-2.5,4.9-.6,1.2-1.4,2.3-2.4,3.3-2.5,2.3-5.4,3.2-8.8,2.8-3.8-.5-7.5-1.8-10.9-3.5-.2,0-.3-.2-.5-.3-.1,0-.2-.2,0-.3,0,0,0,0,0,0h.2c2.8-1.6,5.1-3.7,7.3-5.9.9-.9,1.9-1.9,2.8-2.8,2.1-2,4.7-3.4,7.5-4,.6-.2,1.2-.3,1.9-.4h1.4"
       id="path21" /><path
       class="st10"
       d="M23.4,49.9c-.4,0-1.5-.2-1.6-.2-2.7-.3-5.3-1.1-7.7-2.3-1.4-.7-2.8-1.4-4.1-2.2-.9-.5-1.3-1.3-1.3-2.3,0-3.9,0-7.8,0-11.7,0-2.5,0-5-.1-7.5,0-.2,0-.4.1-.7.2-.5.5-.5.8-.2.4.3.6.8,1,1.1,3.2,3.1,6.5,6,10.3,8.3,2.1,1.4,4.3,2.6,6.6,3.6,3.6,1.7,7.4,3.1,11.3,4,3.5.8,6.8.3,9.6-1.9.9-.7,1.3-1.3,2.3-2.6-.5,1.2-1,2.3-1.8,3.4-.7,1-2.1,2.4-3.2,3.5-1.7,1.6-3.9,3-6,4.1-2.3,1.2-4.6,2.2-7.2,2.7-1.3.3-3.2.7-3.8.7-.1,0-.5,0-.7,0-1.7.1-2.7.2-4.4,0h0Z"
       id="path22" /><path
       class="st13"
       d="M16.2,12.3c.1,0,.2,0,.3,0,7.2,0,14.3.1,21.4.1s0,0,0,0c.7.6,1.3,1.2,1.8,1.9,1.6,1.6,2.8,4.4,3.6,6.1.4,1.2,1,2.3,1.3,3.6h0c-.7.3-1.4.5-2.1.9-2.1,1-3,1.8-4.7,3.5-.9.9-1.7,1.7-3,2.9-.5.4-.9.9-1.4,1.3-.3-.6-5.9-11.5-17.1-20"
       id="path23" /></g><g
     id="g29"
     transform="matrix(1.1373119,0,0,1.14528,-4.3348297,-4.3935045)"><path
       style="opacity:0.2"
       d="m 38.008,11 c -0.445,0.895 -0.731,-0.07 -1.329,0.263 -0.193,0.808 -0.944,-0.264 -1.207,0.766 -0.264,0.476 -0.886,0.623 -0.753,1.379 -0.516,0.325 -0.347,1.413 -1.035,1.33 -0.385,0.711 -0.623,1.665 -0.991,2.28 -0.498,0.377 -0.386,1.129 -0.789,1.63 -0.332,0.593 -0.195,1.277 -0.433,1.899 -0.402,-1.117 -0.773,0.134 -0.918,0.556 -0.758,0.681 -0.637,1.937 -1,2.86 -0.313,0.231 -0.418,1.661 -0.675,1.171 -0.621,-0.288 -0.753,0.856 -1.073,1.257 -0.364,0.429 -0.459,1.003 -0.378,1.832 -0.207,0.655 -0.876,1.048 -0.787,1.758 0.108,0.503 -0.098,1.363 -0.462,1.512 -0.853,-0.14 -0.289,1.319 -0.983,1.51 -0.453,0.282 -0.007,1.458 0.309,0.752 0.221,-0.403 0.518,-0.933 0.558,-1.469 0.566,-0.035 0.866,-0.987 1.024,-1.545 0.028,-0.894 0.389,-1.652 0.813,-2.464 -0.133,-0.794 0.37,-1.42 0.556,-2.166 0.509,-0.999 -0.063,0.635 0.104,1.018 0.158,0.808 -0.16,1.827 0.385,2.488 0.729,-0.409 -0.145,-1.277 0.1,-2.072 0.008,-0.771 -0.212,-1.449 0.346,-1.843 0.149,-0.784 0.413,-1.08 0.644,-1.73 0.219,-0.738 0.301,-1.512 0.572,-2.238 0.678,-0.532 0.365,-0.733 1.15,-0.567 0.464,-0.98 0.175,-2.11 0.945,-2.924 0.586,-0.218 0.262,-1.111 0.65,-1.556 0.395,-0.354 0.256,-1.466 0.806,-1.347 0.53,-0.34 0.445,-1.191 0.986,-1.37 -0.156,-0.801 0.292,-1.078 0.676,-1.606 0.113,-0.7 0.996,0.328 1.102,-0.604 0.246,-0.065 0.956,0.845 1.114,-0.137 0.416,0.298 0.924,1.709 1.343,0.935 0.153,-0.5 0.353,0.415 0.531,0.572 -0.463,0.606 -0.958,1.416 -1.34,2.103 0.487,-0.84 0.154,-1.349 0.024,-1.649 0.609,-1.16 -0.695,-0.469 -0.571,0.362 -0.167,0.508 -0.539,2.092 0.348,1.7 -0.789,1.589 -2.291,2.705 -2.924,4.396 -0.698,1.373 -1.513,2.68 -2.209,4.055 -0.992,1.37 -1.976,2.746 -2.611,4.327 -0.539,1.059 -1.39,1.937 -1.808,3.07 -0.608,-0.67 -0.142,-1.452 -0.14,-2.069 -0.381,-0.446 -0.233,-1.438 -0.163,-2.046 -0.842,-0.305 -0.488,1.175 -0.478,1.705 0.025,0.908 -0.164,1.995 0.41,2.785 0.416,0.533 -0.539,0.528 -0.531,-0.453 -0.295,-1.225 -1.083,-0.566 -0.363,0.33 0.144,0.687 0.81,1.322 0.255,1.936 -0.388,0.87 -0.494,-0.944 -0.655,-1.345 -0.872,-0.308 -0.097,1.299 -0.003,1.875 0.263,0.322 -0.341,1.285 -0.548,1.063 -0.377,-0.42 0.237,-2.052 -0.569,-1.303 -0.039,0.661 -0.885,0.904 -0.612,1.877 -0.172,0.932 0.931,0.861 0.462,0.017 0.029,-1.362 0.055,-0.771 0.631,-0.022 -0.318,1.057 -1.168,1.902 -1.746,2.831 -0.2,1.143 -0.601,0.046 -0.592,-0.477 0.135,-0.314 0.369,-0.62 0.334,-0.984 1.018,0.424 0.471,-0.414 0.293,-0.802 0.257,-0.568 -0.699,-1.099 -0.489,-0.38 -0.167,0.532 -0.247,1.151 -0.446,1.735 -0.509,0.721 0.233,1.471 0.361,2.151 -0.364,1.175 -0.608,2.401 -0.934,3.572 -0.592,0.872 0.908,0.738 0.493,0.027 0.256,-0.975 0.432,-1.991 0.745,-2.963 0.245,-1.16 0.904,-2.144 1.643,-3.04 0.688,-1.2 1.221,-2.484 2.038,-3.609 0.779,-1.682 1.478,-3.424 2.64,-4.89 0.481,-0.943 0.867,-1.943 1.461,-2.823 0.649,0.731 0.809,-0.48 1.578,-0.445 1.081,-0.445 2.169,-0.876 3.221,-1.386 0.216,0.308 -0.387,0.922 -0.883,1.192 -0.428,0.285 -1.118,0.622 -1.765,0.905 -0.564,0.137 -1.929,1.287 -0.838,1.055 0.795,-0.55 1.744,-1.049 2.637,-1.297 0.919,0.002 -0.588,0.357 -0.733,0.709 -0.227,0.716 -1.178,0.099 -1.771,0.624 -1.028,0.371 -2.253,0.715 -2.886,1.659 0.436,0.515 1.191,-0.751 1.964,-0.825 0.511,-0.123 1.614,-0.871 1.737,-0.348 -0.536,0.118 -0.604,0.92 -1.067,0.904 -0.492,-0.383 -1.217,0.351 -1.787,0.522 -0.763,-0.033 -1.682,1.587 -0.605,0.835 0.646,-0.345 1.501,-0.786 2.068,-0.999 0.265,0.695 -0.714,0.698 -1.249,0.991 -0.647,0.254 -1.455,0.615 -1.627,1.281 -0.893,-0.054 -1.171,1.67 -0.404,0.826 0.474,-0.587 1.487,-0.61 2.041,-1.149 -0.837,-0.324 -0.694,-0.06 0.288,-0.582 0.384,-0.257 1.654,-0.582 0.622,-0.148 -0.262,0.438 -0.762,0.693 -1.011,1.198 -0.397,0.583 -1.069,0.269 -1.755,0.743 -0.193,0.711 -1.048,0.892 -1.255,1.689 0.432,0.539 -0.87,0.769 -1.09,1.311 -0.437,1.152 0.881,-0.23 1.318,-0.509 1.07,-0.23 -0.011,-0.603 0.442,-1.092 0.45,-0.495 1.455,-0.471 1.687,-1.044 -1.323,0.015 -0.624,-0.069 0.277,-0.304 0.36,-0.77 -0.362,1.292 0.553,0.38 0.353,-0.195 0.231,-0.815 0.497,-0.986 0.328,-0.374 0.637,-0.797 0.982,-1.14 1.052,-0.159 0.34,-0.988 0.404,-1.484 0.554,-0.29 0.937,-0.659 1.278,-1.036 0.263,-0.508 0.567,-0.7 1.198,-0.976 -0.285,-0.682 1.076,-0.477 1.015,-1.181 -1.164,-0.436 0.15,-0.318 0.118,-1.085 0.751,-0.151 0.543,-0.84 0.489,-0.986 0.447,-0.322 1.487,-0.476 1.337,-1.19 -0.938,-0.255 1.276,-0.702 0.097,-1.02 -0.289,-0.024 1.487,-0.71 0.376,-0.943 -0.815,-0.114 0.775,-0.446 1.026,-0.73 -0.072,-0.62 0.687,-0.551 0.979,-1.073 -0.89,-0.326 0.833,-0.881 -0.056,-1.325 -1.086,-0.058 -0.445,-0.631 0.273,-0.648 0.923,-0.188 -0.265,-0.859 -0.721,-0.566 -0.132,0.635 -1.088,0.077 -1.658,0.547 -1.078,0.501 -1.133,0.191 -0.101,-0.289 0.635,-0.086 1.456,-0.73 1.909,-0.393 0.197,-0.415 1.112,-0.51 1.098,-1.112 -0.678,-0.261 0.796,-0.092 0.85,-0.55 -0.612,-0.605 1.593,-0.23 0.754,-0.977 -1.099,-0.323 -2.245,-0.57 -3.357,-0.747 -0.558,-0.037 -0.685,-0.462 -0.994,-0.935 -0.306,-0.868 -0.719,0.463 -0.939,-0.138 C 38.607,11.604 38.375,11.204 38.008,11 Z m -0.717,1.302 c -0.734,0.619 -0.549,1.815 -0.781,2.694 0.023,0.689 -0.291,1.549 0.142,2.121 0.764,-0.357 0.972,-0.619 0.815,-1.55 0.093,-0.831 0.117,-1.679 0.34,-2.482 -0.794,-0.307 -0.61,1.251 -0.739,1.838 -0.066,0.407 -0.141,2.336 -0.148,1.066 0.011,-1.197 0.243,-2.45 0.586,-3.546 L 37.455,12.37 v 0 z m 3.343,0.994 c 0.701,0.445 1.792,0.346 2.624,0.682 -0.763,0 -0.757,0.752 -1.375,0.801 -0.856,0.353 -1.99,0.363 -2.554,1.197 0.62,0.611 -1.226,0.631 -1.29,1.452 0.242,0.144 -1.294,1.452 0.235,1.135 -0.404,-0.668 1.034,-0.769 1.56,-1.071 0.964,-0.662 0.597,0.53 1.496,0.609 0.365,0.11 -1.45,0.792 -0.341,1.031 -0.869,0.142 -0.774,0.805 -1.328,1.055 -0.65,0.081 -1.357,0.944 -0.342,1.06 -0.692,0.104 -0.928,0.806 -0.554,1.011 -1.702,0.098 -3.429,0.849 -4.658,2.024 0.462,0.628 1.189,-0.645 1.844,-0.733 0.764,-0.433 1.628,-0.706 2.5,-0.805 0.779,0.449 -0.312,0.577 -0.701,0.884 -0.578,0.445 -1.312,0.385 -1.955,0.835 -1.062,0.456 -2.15,0.852 -3.196,1.342 1.238,-1.522 1.966,-3.356 2.991,-5.01 0.599,-1.451 1.543,-2.696 2.558,-3.873 0.636,-0.737 0.704,-1.942 1.803,-2.073 0.755,-0.327 1.741,-0.442 2.36,-0.726 -0.092,-0.72 -1.119,-0.014 -1.582,-0.03 -0.557,0.197 -1.672,0.741 -0.814,-0.198 0.074,-0.402 0.707,-0.328 0.719,-0.599 z m -4.267,0.739 c -0.728,0.261 -0.544,1.377 -0.615,2.035 -0.272,0.585 0.28,1.91 0.601,0.827 -0.344,-0.541 -0.066,-1.395 -0.048,-2.045 0.039,-0.25 0.4,-0.635 0.062,-0.817 z m -1.026,0.819 c -0.699,0.361 -0.425,1.436 -0.687,2.108 -0.006,1.014 -0.422,2.091 -0.043,3.062 0.741,-0.043 0.074,-1.374 0.399,-1.938 0.014,-1.064 0.389,-2.143 0.43,-3.164 z m 6.083,0.566 c 0.523,0.348 -0.616,0.525 -1.001,0.587 -1.098,0.539 -0.581,-0.16 0.186,-0.347 0.272,-0.079 0.543,-0.162 0.815,-0.24 z m -7.033,0.661 c -0.405,0.744 -0.257,1.748 -0.457,2.589 -0.508,0.783 0.403,1.899 0.447,0.665 -0.087,-1.001 0.361,-2.17 0.26,-3.197 l -0.073,-0.052 z m 7.21,0.516 c 0.093,-0.04 0.047,0.142 0,0 z m -8.091,0.682 c -0.735,0.369 -0.444,1.512 -0.558,2.235 0.084,0.836 -0.221,1.914 0.41,2.552 0.78,-0.522 -0.253,-0.998 0.051,-1.859 0.002,-0.924 -0.035,-1.876 0.253,-2.758 l -0.055,-0.106 z m 6.526,0.889 c -1.352,0.229 -2.689,0.838 -3.694,1.757 -0.196,1.112 1.027,-0.462 1.614,-0.55 0.698,-0.496 1.638,-0.53 2.339,-0.906 l 0.009,-0.119 v 0 l -0.269,-0.182 z m -8.35,1.359 c 0.051,0.047 -0.048,0.036 0,0 z m 6.83,0.518 c -1.097,0.359 -2.413,0.693 -3.065,1.713 0.487,0.961 0.633,-0.511 1.37,-0.582 0.588,-0.412 1.461,-0.404 1.968,-0.861 0.035,-0.148 -0.116,-0.315 -0.273,-0.27 z m -5.831,0.11 c -0.532,0.61 -0.214,1.632 -0.322,2.418 -0.027,0.545 -0.033,2.333 0.626,1.434 -0.389,-1.184 -0.013,-2.553 -0.146,-3.774 l -0.071,-0.055 z m 5.242,1.233 c -0.996,0.136 -1.944,0.672 -2.686,1.302 0.438,0.818 1.093,-0.493 1.806,-0.603 0.254,-0.183 1.673,-0.164 0.88,-0.699 z m -6.636,0.539 c -0.567,0.496 -0.244,1.532 -0.391,2.259 0.063,0.603 -0.363,2.044 0.483,1.872 -0.11,-1.258 0.015,-2.666 0.104,-3.973 C 31.46,22 31.38,21.935 31.291,21.928 Z m -0.749,1.808 c -0.535,0.79 -0.369,1.892 -0.375,2.807 -0.227,1.036 1.257,1.088 0.568,0.34 -0.285,-0.979 -0.08,-2.046 0.105,-3.014 -0.042,-0.113 -0.178,-0.182 -0.298,-0.133 z m 7.238,0.859 c 0.143,-0.009 -0.009,0.025 0,0 z m -8.189,1.246 c -0.689,0.534 -0.31,1.645 -0.389,2.423 0.56,1.207 0.595,-0.228 0.448,-0.875 -0.216,-0.532 0.429,-1.29 -0.059,-1.548 z m -4.823,11.121 c 0.019,-0.003 -0.018,0.017 -0.012,0.01 0.001,-0.002 0.005,-0.005 0.012,-0.01 z M 50.12,23.646 c -0.926,0.13 -1.789,0.535 -2.57,0.986 -1.679,0.41 -3.217,1.159 -4.881,1.654 -3.1,1.197 -6.216,2.6 -8.641,4.932 -2.033,1.651 -4.407,3.023 -5.83,5.289 -1.108,1.245 -2.186,2.51 -3.215,3.82 -1.074,0.973 -1.445,2.444 -2.103,3.692 -0.15,1.062 0.694,-0.067 0.747,-0.535 0.576,-1.122 0.984,-2.357 1.995,-3.182 1.237,-1.71 2.791,-3.162 3.987,-4.902 1.959,-1.926 4.328,-3.363 6.356,-5.212 1.736,-1.282 3.724,-2.159 5.693,-3.016 2.089,0.388 4.22,0.528 6.322,0.825 0.868,-0.61 -0.941,-0.535 -1.416,-0.642 -1.363,-0.158 -2.727,-0.309 -4.087,-0.5 1.481,-0.49 2.937,-1.07 4.395,-1.555 1.022,-0.128 1.737,-0.866 2.733,-1.074 0.285,-0.053 1.277,-0.214 0.515,-0.58 z m 3.606,0.341 c -1.055,0.074 -2.167,-0.009 -3.185,0.245 0.059,0.691 1.246,0.182 1.817,0.273 0.773,-0.106 1.264,-0.156 1.546,0.463 0.774,-0.118 1.095,0.288 0.171,0.488 -0.626,0.302 -1.54,0.085 -1.943,0.646 -0.479,0.054 -0.898,0.653 -1.3,0.576 -0.41,-0.527 -1.349,-0.147 -1.957,-0.344 -0.799,0.012 -1.6,-0.237 -2.381,-0.215 0.418,1.125 -1.051,0.458 -1.788,0.482 -1.296,0.258 0.605,0.642 1.225,0.605 0.879,0.002 1.808,0.377 2.653,0.149 -0.739,-0.738 -0.496,-0.249 0.582,-0.318 1.103,-0.247 0.12,0.774 1.244,0.659 -0.757,0.151 -1.722,0.125 -2.267,0.623 -0.64,0.126 -1.436,0.674 -1.984,0.22 -2.062,-0.264 -4.151,-0.2 -6.217,-0.365 -0.195,0.871 0.722,1.007 1.859,0.884 1.29,0.003 2.596,0.105 3.847,0.427 -1.035,0.381 0.858,0.693 -0.725,0.8 -0.489,0.236 -1.837,0.174 -1.501,0.908 0.178,0.379 -1.162,0.476 -1.572,0.249 -2.087,-0.131 -4.185,-0.037 -6.267,-0.22 -0.456,0.783 1.318,0.47 1.92,0.561 1.165,0.042 2.699,0.012 3.628,0.119 -0.524,0.412 -1.49,0.069 -2.199,0.166 -0.93,-0.032 -1.872,-0.052 -2.785,-0.241 -0.984,0.221 0.597,0.741 1.278,0.624 1.253,0.119 2.513,0.072 3.768,0.112 1.04,-0.426 0.67,0.122 -0.301,0.168 -1.48,0.202 -3.003,-0.223 -4.498,-0.302 -0.645,-0.008 -1.327,-0.254 -1.955,-0.078 -0.194,0.256 -1.76,0.551 -0.443,0.681 0.67,-0.033 0.955,-0.503 1.778,-0.202 1.158,0.108 2.312,0.253 3.469,0.363 0.955,0.51 -0.418,0.679 -0.918,0.464 -1.42,-0.163 -2.848,-0.247 -4.276,-0.252 -0.494,0.831 1.254,0.342 1.849,0.506 0.425,0.077 2.229,0.068 1.635,0.225 -0.861,0.151 -0.87,0.705 -1.958,0.267 -1.365,-0.122 -2.718,-0.327 -4.093,-0.149 -0.425,0.896 1.286,0.184 1.864,0.443 1.126,-0.002 1.419,0.127 0.147,0.334 -0.76,0.362 -1.711,-0.188 -2.393,0.256 0.478,0.518 1.283,0.332 1.905,0.339 0.502,-0.065 2.06,0.563 1.74,-0.225 -1.046,-0.123 0.624,-0.201 0.593,-0.568 0.315,0.12 1.868,0.16 1.212,0.345 -1.041,0.082 -1.13,0.942 -0.034,0.738 1.153,-0.16 0.591,0.219 -0.187,0.446 -0.581,0.301 -1.683,0.068 -1.789,0.759 -0.668,0.293 -1.296,0.766 -2.021,0.407 -0.961,0.062 -2.008,-0.114 -2.909,0.212 0.065,0.821 -1.181,0.382 -1.802,0.599 -0.811,0.275 -1.347,1.17 -0.045,0.869 0.485,-0.45 1.524,-0.271 2.229,-0.354 0.624,-0.112 1.036,-0.48 1.812,-0.362 0.925,-0.133 -0.603,0.559 -0.945,0.606 -0.144,1.014 -0.874,-0.059 -1.332,0.237 -0.571,0.564 -1.587,0.086 -2.077,0.69 0.969,0.485 -0.859,0.564 -1.315,0.672 -0.996,-0.184 -1.22,1.29 -0.282,0.631 1.084,-0.624 -0.396,0.48 0.564,0.341 0.44,-0.008 2.143,0.006 1.214,-0.515 -1.4,0.078 0.28,-0.347 0.826,-0.293 0.75,0.056 1.279,-0.339 2.073,-0.234 1.152,-0.408 -0.114,0.489 -0.517,0.608 -0.896,0.156 -0.401,0.961 0.328,0.827 1.216,0.035 0.207,0.09 -0.458,0.117 -1.596,0.058 -3.196,-0.005 -4.752,-0.314 -0.658,0.657 0.995,0.591 1.503,0.694 0.374,0.097 2.242,0.032 1.096,0.158 -1.129,0.133 -2.248,0.4 -3.367,0.556 -0.521,0.868 1.107,0.204 1.617,0.191 1.898,-0.359 3.854,-0.49 5.728,-0.9 0.818,0.241 1.162,-0.823 0.169,-0.843 -0.377,-0.155 -1.434,0.01 -1.417,-0.186 0.426,-0.278 1.322,-0.659 1.073,-1.263 -0.277,-0.308 0.614,-0.447 0.8,-0.846 -0.165,-0.612 0.462,-0.698 0.982,-1.087 0.298,-0.513 1.19,-0.586 1.724,-0.933 0.646,-0.12 0.889,-0.579 1.561,-0.65 0.509,-0.259 1.363,-0.389 1.507,-1.003 -1.027,-0.414 -0.744,-0.363 0.226,-0.645 1.06,-0.259 -0.473,-0.892 0.787,-0.898 0.424,-0.26 1.8,-0.22 1.308,-0.915 0.853,-0.24 1.883,-0.255 2.593,-0.773 -0.731,-0.616 -0.23,-0.455 0.509,-0.691 0.755,-0.002 0.467,-0.828 0.711,-0.887 0.762,-0.294 1.754,-0.273 2.361,-0.823 -0.197,-0.59 1.067,-0.283 1.44,-0.742 -0.609,-0.683 0.2,-0.39 0.673,-0.904 0.911,-0.33 2.008,-0.158 2.847,-0.644 -0.141,-0.694 -1.284,-0.44 -0.132,-0.855 0.711,-0.569 1.639,-0.543 2.501,-0.698 0.138,-0.599 1.002,-0.399 1.251,-1.023 0.47,-0.407 -0.35,-0.789 -0.784,-0.727 -0.12,-0.085 0.1,-0.692 -0.672,-0.541 z m -4.28,0.733 c -0.464,0.816 1.271,0.346 1.848,0.478 0.565,0.296 1.966,-0.206 0.777,-0.415 -0.873,-0.087 -1.75,-0.029 -2.625,-0.063 z m 5.484,0.103 c -0.057,0.102 -0.037,-0.006 0,0 z m -7.794,0.523 c -0.493,0.817 1.247,0.408 1.791,0.551 0.819,-0.064 1.719,0.249 2.474,-0.022 -0.188,-0.639 -1.211,-0.276 -1.761,-0.416 -0.835,-0.035 -1.671,-0.035 -2.504,-0.113 z m -4.702,2.232 c -0.564,0.781 1.247,0.349 1.802,0.544 1.09,0.139 2.2,0.17 3.276,0.382 0.897,-0.478 -0.744,-0.622 -1.145,-0.63 -1.311,-0.116 -2.614,-0.32 -3.933,-0.296 z m -4.222,1.786 c -0.527,0.656 0.926,0.4 0.516,1.053 1.475,0.103 2.953,-0.145 4.426,0.083 0.332,-0.245 1.932,-0.588 0.552,-0.751 -1.617,0.214 -3.244,0.181 -4.828,-0.237 -0.23,-0.015 -0.445,-0.123 -0.666,-0.148 z m 0.626,1.302 c -0.789,0.012 -1.578,-0.012 -2.366,0.022 -0.29,0.83 1.492,0.295 2.173,0.441 1.188,0.063 2.381,0.16 3.563,0.268 0.868,-0.644 -1.009,-0.5 -1.496,-0.588 -0.625,-0.047 -1.249,-0.098 -1.874,-0.143 z m -4.947,5.385 c -1.11,0.044 -2.219,0.118 -3.327,0.188 -0.788,0.078 -2.001,1.043 -0.468,0.973 0.188,-0.608 1.21,-0.224 1.764,-0.401 0.589,-0.127 1.619,0.305 1.883,-0.293 0.449,0.092 0.755,-0.487 0.148,-0.467 z m -3.145,0.26 c 0.038,-0.036 0.035,0.049 0,0 z M 22.87,11.792 c -0.026,0.741 -0.972,0.231 -1.473,0.338 -0.513,0.101 -1.483,-0.452 -1.53,0.24 0.289,0.346 1.304,0.963 1.08,1.146 -0.826,0.137 -0.139,0.98 -0.091,1.412 0.12,0.531 -0.309,1.124 -0.072,1.766 -0.234,0.851 -0.589,-0.439 -0.92,-0.668 -1.074,-0.357 0.17,1.114 -0.29,1.529 0.097,0.645 0.767,1.216 0.175,1.754 -0.07,0.808 0.03,1.47 -0.669,1.826 -0.156,1.074 0.248,2.144 0.25,3.177 0.154,0.932 0.823,1.8 0.604,2.726 -0.532,0.129 -0.897,1.018 -0.793,1.656 -0.071,0.531 -0.572,1.055 -0.531,1.846 -0.247,0.767 0.453,1.103 0.536,1.81 0.349,0.621 -0.018,1.171 0.076,1.887 -0.122,0.578 0.564,1.313 0.342,1.655 0.263,1.151 0.234,2.407 0.974,3.33 0.664,-0.12 0.965,0.029 1.018,0.766 -0.385,0.727 0.922,0.985 0.145,1.149 -0.392,-0.653 -0.656,0.505 -0.808,0.811 -0.065,0.673 -0.622,1.451 -0.246,2.066 0.61,-0.193 0.287,-1.023 0.576,-1.512 0.448,-0.816 0.099,0.759 0.122,1.171 -0.339,0.871 0.685,0.939 0.845,0.198 0.211,-0.807 0.187,-1.644 0.191,-2.476 0.432,-0.528 0.213,-1.241 0.402,-1.896 0.058,-0.737 0.068,-1.491 0.691,-2.006 0.453,-0.841 0.888,-1.683 1.48,-2.444 -0.164,-0.484 0.031,-0.773 0.166,-1.358 -0.056,-0.624 -0.399,-0.879 0.389,-1.301 0.836,-0.674 -0.614,-0.523 0.051,-1.265 0.525,-0.716 -0.476,-0.786 -0.206,-1.127 0.565,-0.72 -0.356,-0.952 0.373,-1.542 0.037,-0.71 -0.972,-0.159 -0.218,-1.128 -0.471,-0.399 -0.425,-0.409 -0.177,-1.115 -0.021,-0.522 -0.131,-0.917 0.169,-1.455 -0.348,-0.421 -0.29,-0.741 0.067,-1.463 0.235,-0.43 -0.05,-0.788 0.339,-1.148 0.254,-0.486 0.174,-0.939 0.533,-1.408 0.657,-0.684 -0.758,-0.624 -0.147,-1.016 0.723,-0.546 0.221,-0.968 0.406,-1.52 -0.193,-0.489 -0.568,-0.239 -0.322,-0.951 -0.911,0.082 -0.328,-0.621 -0.046,-1.281 0.54,-0.542 -0.593,-0.624 -0.207,-1.139 0.005,-0.577 -0.978,-0.313 -0.508,-1.054 -0.752,-0.328 0.109,-0.417 -0.161,-1.079 -0.884,0.389 0.157,-0.699 -0.706,-0.603 -0.474,-0.098 -1.187,0.347 -1.503,0.083 -0.073,-0.165 -0.112,-0.464 -0.376,-0.387 z m -2.087,0.763 c 0.44,0.133 1.28,-0.133 1.45,0.236 -0.644,0.401 0.781,0.902 -0.416,0.613 0.003,0.464 1.365,1.545 0.381,0.765 -0.627,-0.323 -0.658,-0.986 -1.227,-1.461 z m 3.706,0.615 c 0.329,0.086 0.049,0.867 -0.167,1.192 -10e-4,1.237 0.785,-0.378 0.669,0.153 -0.67,0.503 -0.083,1.198 -0.543,1.453 -0.472,0.389 -0.156,1.427 -0.407,0.457 C 23.92,15.652 23.68,14.704 23.854,14 c 0.021,-0.5 0.34,-0.457 0.635,-0.83 z m -3.478,0.846 c 0.889,0.132 1.3,1.108 1.73,1.837 0.068,0.675 -0.513,-0.98 -1.034,-0.996 -0.332,0.126 -0.573,-0.627 -0.696,-0.841 z m 1.977,0.827 c 0.594,0.414 0.468,1.311 0.652,2.041 0.248,2.865 -0.287,5.721 -0.228,8.586 0.126,1.017 -0.304,-0.615 -0.5,-0.885 -0.332,-1.502 -1.553,-2.602 -2.403,-3.834 -0.584,0.197 -0.3,-0.432 -0.351,-0.907 0.463,-0.245 0.496,-0.89 0.235,-1.443 -0.032,-0.178 -0.039,-0.998 0.049,-0.897 0.487,0.018 1.179,0.726 0.874,-0.314 -0.225,-0.75 -0.184,-1.665 0.569,-0.778 0.669,0.33 1.043,1.735 0.16,0.859 -1.046,-0.491 -0.165,1.075 0.072,1.521 0.471,0.701 0.378,1.232 -0.265,0.319 -0.649,-1.146 -1.134,-0.17 -0.55,0.657 0.328,0.637 0.888,1.18 1.074,1.869 -0.513,-0.56 -0.975,-1.192 -1.515,-1.71 -0.57,0.575 0.71,1.263 1.034,1.859 0.645,0.276 0.549,2.111 1.056,1.007 -0.055,-0.828 -0.724,-0.94 -0.183,-1.431 -0.076,-0.49 -0.927,-1.452 -0.872,-1.55 0.421,0.271 1.162,1.776 1.436,0.877 -0.178,-0.106 -0.914,-0.72 -0.406,-1.233 -0.243,-0.638 -0.697,-1.356 0.031,-0.379 -0.072,0.722 0.959,1.015 0.565,-0.034 -0.405,-0.594 -1.228,-1.041 -0.444,-1.585 -0.15,-0.783 -0.546,-1.17 0.116,-1.523 0.16,-0.387 -0.886,-1.207 -0.206,-1.092 z m 2.532,1.775 c -0.103,0.806 -1.051,0.885 -1.362,1.585 -0.027,-0.261 0.027,-0.392 0.253,-0.526 -0.148,-0.602 0.662,-0.879 1.109,-1.059 z m -0.397,1.238 c 0.908,-0.057 0.346,0.641 0.821,0.952 -0.303,0.495 0.089,0.8 -0.548,1.358 0.231,0.648 0.97,0.223 0.196,1.189 -0.385,-0.516 -1.229,0.618 -1.483,1.054 0.32,0.823 1.38,-1.201 1.107,-0.532 0.09,0.589 -1.372,0.736 -1.076,1.533 0.853,-0.06 -0.956,1.673 0.386,1.03 0.436,-1.021 -0.174,0.268 0.425,0.452 -0.267,-0.234 -1.139,1.008 -1.077,0.554 -0.08,-1.665 0.165,-3.318 0.249,-4.977 0.501,0.007 0.379,-0.95 1.165,-0.984 0.119,-0.809 -1.704,0.357 -0.508,-0.56 1.069,-0.306 0.634,-1.248 -0.18,-0.435 -0.554,0.46 0.497,-0.732 0.523,-0.634 z m -0.073,2.396 c -1.101,-0.082 -0.893,2.029 -0.618,0.881 0.103,0.081 1.186,-0.693 0.618,-0.881 z m -4.917,0.738 c 0.572,0.821 1.243,1.587 1.786,2.436 -0.857,-1.074 -0.896,0.154 -0.023,0.657 0.69,0.587 0.856,1.503 1.266,2.252 0.576,0.07 0.266,1.68 0.116,1.855 -1.113,-0.637 -1.792,-1.76 -2.613,-2.677 -0.478,0.772 -0.722,-0.829 -0.887,-1.314 0.057,-0.467 -0.211,-1.423 0.207,-0.47 0.594,1.177 1.486,2.16 2.46,3.027 0.38,0.761 0.785,-0.154 0.207,-0.475 -0.858,-1.215 -1.781,-2.571 -2.586,-3.892 -0.533,0.245 -0.519,0.369 -0.521,-0.357 0.48,0.374 0.699,-0.679 0.588,-1.042 z m 0.327,4.915 c 0.747,1.139 1.708,2.175 2.855,2.879 -0.021,0.799 -0.07,1.434 -0.759,0.594 -0.827,-0.59 -1.181,-1.578 -1.685,-2.42 -0.724,0.556 -0.428,-0.415 -0.392,-0.981 z m 4.088,0.609 c 0.258,0.311 -1.144,1.779 0.107,1.282 0.325,-0.561 -0.039,0.533 -0.411,0.778 -0.002,1.282 0.852,-0.462 0.689,0.23 -0.181,0.521 -1.127,1.48 -0.288,1.588 -0.229,0.301 -0.921,0.885 -0.876,1.263 -0.576,0.922 0.477,0.444 0.878,0.133 -0.15,-0.508 -0.431,-0.595 0.514,-1.004 -0.105,0.599 -0.372,1.228 -0.929,1.531 0.819,0.719 -1.286,0.863 -0.227,1.444 0.636,-0.629 0.775,0.466 0.409,0.345 -1.242,-0.211 -0.679,0.786 -0.18,0.427 -0.321,0.569 0.271,0.75 -0.482,1.465 -0.221,0.246 -0.526,1.406 -0.657,0.921 0.389,-1.802 0.08,-3.652 0.427,-5.456 0.133,-1.466 0.327,-2.95 0.4,-4.445 0.847,0.295 0.116,-0.492 0.626,-0.502 z m -4.144,1.169 c 0.483,0.753 1.175,1.349 1.639,2.105 0.539,0.317 1.365,0.523 1.047,1.351 -0.178,1.213 -0.277,2.488 -0.237,3.677 -1.143,-1.015 -2.406,-1.957 -3.094,-3.365 -0.555,0.14 -0.826,-0.671 -0.612,-1.262 0.262,-0.864 0.661,0.569 0.884,0.92 0.716,0.977 1.697,1.78 2.261,2.85 1.005,0.249 -0.12,-0.936 -0.172,-1.288 -0.762,-1.157 -1.766,-2.222 -2.462,-3.398 -0.175,-0.476 0.256,-0.691 0.177,-1.163 -0.16,-0.649 0.58,0.434 0.569,-0.427 z m -0.282,0.832 c -0.577,0.591 0.655,1.373 1.115,1.855 0.698,0.339 1.316,1.554 1.737,1.016 -0.173,-0.784 -1.249,-0.942 -1.684,-1.59 -0.52,-0.326 -0.737,-0.897 -1.168,-1.281 z m -0.177,4.872 c 0.594,0.573 1.3,1.105 1.635,1.877 1.292,0.461 -0.772,-1.714 0.059,-0.91 0.41,0.399 1.022,0.85 1.175,1.217 -0.094,0.683 -0.05,1.736 -0.863,0.84 -0.798,-0.497 -1.224,-1.406 -1.799,-2.098 -0.596,0.552 0.566,1.415 0.941,1.976 0.317,0.584 1.405,0.68 1.438,1.276 -0.027,0.389 -0.318,1.605 -0.737,1.235 -0.35,-0.68 -1.676,-1.528 -0.866,-0.277 0.349,0.556 -0.491,0.082 -0.372,-0.349 -0.254,-0.722 -0.406,-1.489 -0.504,-2.274 0.512,0.914 1.218,1.737 1.596,2.71 0.834,0.024 -0.019,-1.054 -0.232,-1.421 -0.477,-0.505 -0.716,-1.63 -1.372,-1.646 -0.103,-0.57 -0.499,-0.973 -0.352,-1.498 0.47,0.03 0.296,-0.413 0.253,-0.658 z M 12.69,41.38 c -1.3,-0.02 -2.75,0.17 -3.66,1.17 0.09,0.94 0.76,-0.26 1.27,-0.33 0.93,-0.42 2,-0.39 3,-0.34 -0.79,0.04 -1.56,0.32 -2.37,0.36 -0.53,0.81 1.04,0.28 1.54,0.23 0.4,-0.26 1.91,0.19 1.2,-0.47 -0.73,-0.23 0.66,0.01 0.9,-0.04 1.48,-0.15 3,-0.08 4.4,0.51 0.4,0.1 1.64,0.74 1.37,-0.06 -1.75,-0.56 -3.57,-1.26 -5.44,-0.91 -0.74,0.01 -1.48,-0.09 -2.21,-0.12 z m 4.27,1 c -1.66,0.17 -3.25,0.79 -4.86,1.23 -0.78,0.69 0.36,0.46 0.81,0.23 1.46,-0.37 2.95,-0.95 4.43,-1.04 0.12,-0.24 -0.18,-0.4 -0.38,-0.42 z M 9.7,42.86 c -0.83,0.56 0.1,1.5 0.7,1.82 0.63,0.48 0.91,-0.37 0.13,-0.48 C 9.93,43.93 9.78,43.4 9.91,42.95 L 9.88,42.91 Z M 8.74,43.1 c -0.27,0.54 0.38,1.18 0.74,1.63 1.93,1.72 3.33,3.97 5.3,5.66 2.55,2.03 5.76,2.86 8.73,4.06 2.02,0.7 4.19,0.45 6.29,0.55 0.96,-0.1 1.88,-0.39 2.84,-0.44 0.92,-0.65 0.09,-0.78 -0.52,-1.08 -0.21,-0.77 -1.1,-0.36 -0.42,0.25 -0.61,-0.11 -1.08,-0.61 -1.52,-1.01 -0.68,0.37 0.49,1.08 0.97,1.31 0.9,0.27 -0.31,0.24 -0.63,0.41 -0.86,0.18 -1.75,0.05 -2.62,0.06 0.59,0.03 1.79,-0.72 0.55,-0.64 -1.02,0.07 -0.68,0.88 -1.71,0.62 -0.65,0.07 -1.29,-0.15 -1.94,-0.17 0.67,-0.57 1.66,-0.63 2.34,-1.08 -0.49,-0.6 -1.47,0.22 -2.13,0.4 -0.52,0.61 -0.9,0.7 -1.7,0.25 -2.79,-1.12 -5.79,-1.91 -8.18,-3.82 -1.21,-0.52 -0.04,-0.76 -0.74,-1.2 -0.38,-0.3 -1.15,-1.81 -1.07,-0.68 0.1,0.29 -0.72,-0.76 -0.94,-1 C 11.52,45.96 10.31,45.03 9.39,43.87 9.12,43.64 9.23,43.01 8.74,43.1 Z m 10.13,0.16 c -1.55,0.36 -3.09,0.98 -4.41,1.89 -0.86,0.89 1.41,1.05 0.35,0.31 1.24,-0.81 2.83,-1.48 4.17,-1.73 0.26,-0.11 0.13,-0.46 -0.11,-0.47 z m 5.03,0.44 c -0.71,0.54 0.01,0.44 0.44,0.57 1,0.51 1.74,1.41 2.73,1.96 1.04,0.8 2.05,1.62 2.99,2.54 0.7,0.65 1.53,1.24 1.73,2.24 0.41,0.78 0.61,1.71 1.21,2.37 0.77,0 -0.02,-0.7 -0.16,-1.08 -0.51,-1.05 -0.71,-2.31 -1.63,-3.11 -1.2,-1.07 -2.35,-2.25 -3.69,-3.17 C 26.62,45.38 25.75,44.69 24.88,44 24.57,43.85 24.26,43.7 23.9,43.7 Z m -12.41,0.41 c -0.66,0.59 0.15,1.89 0.96,1.92 0.43,-0.55 -0.9,-0.67 -0.75,-1.39 0,-0.2 0.16,-0.54 -0.21,-0.53 z m 1.52,1.14 c -0.6,0.38 0,1.29 0.44,1.57 1.12,-0.04 -0.24,-0.55 -0.23,-1.11 0.02,-0.19 0.11,-0.47 -0.21,-0.46 z m 5.91,0.14 c -1.04,0.39 -2.15,0.91 -2.85,1.81 -0.79,-0.03 -0.21,1.04 0.25,1.22 0.31,0.52 1.42,0.38 0.58,-0.15 -0.7,-0.32 -0.69,-0.67 -0.18,-1.11 0.66,-0.71 1.7,-0.95 2.43,-1.49 l -0.01,-0.12 z m 1.81,0.7 c -0.9,0.38 -1.84,0.91 -2.44,1.69 0.62,0.44 1.28,-0.83 2.04,-1 0.23,-0.15 1.04,-0.39 0.4,-0.69 z m 3.73,0.14 c -1.39,0.44 -2.84,0.98 -3.96,1.95 0.33,0.76 1.36,-0.68 2.11,-0.76 0.66,-0.36 1.45,-0.5 2.08,-0.86 l 0.02,-0.12 z m -10.04,0.02 c -0.6,0.38 0.08,1.12 0.37,1.5 0.6,0.55 1.12,-0.25 0.23,-0.41 -0.33,-0.31 -0.28,-0.89 -0.6,-1.09 z m 12.51,1.1 c -1.34,0.77 -2.97,1.08 -4.13,2.09 0.41,0.59 1.38,-0.58 2.14,-0.68 0.72,-0.41 1.75,-0.54 2.24,-1.2 l -0.03,-0.08 z m -11.88,0.78 c -0.64,0.6 0.34,1.4 0.77,1.86 0.42,0.61 1.14,-0.05 0.33,-0.32 -0.6,-0.38 -0.74,-1.12 -1.1,-1.54 z m 3.09,0.13 c -0.6,0.47 0.41,0.99 0.57,1.5 0.55,0.54 1.03,-0.17 0.26,-0.4 -0.2,-0.41 -0.52,-0.85 -0.83,-1.1 z m 10.43,0.46 c -0.88,0.39 -1.88,0.77 -2.52,1.51 0.33,0.94 0.86,-0.51 1.55,-0.56 0.25,-0.24 1.64,-0.48 0.97,-0.95 z m -11.55,0.3 c -0.59,0.47 0.3,1.47 0.68,1.93 0.37,0.7 1.41,0.35 0.5,-0.19 -0.7,-0.41 -0.74,-1.31 -1.18,-1.74 z m 3.09,0.16 c -0.58,0.44 0.38,1.07 0.8,1.32 0.35,0.41 1.04,0.29 1.14,0.35 0.2,0.48 1.11,1.24 1.38,0.55 -0.46,-0.23 -1.03,-0.51 -1.05,-1.1 -0.44,0.43 -0.85,0.01 -1.45,-0.34 -0.41,-0.14 -0.48,-0.6 -0.82,-0.78 z m 9.96,1.24 c -0.62,0.15 -1.43,0.49 -1.54,1.17 0.48,0.06 1.39,-0.66 1.76,-1 z m -10.53,0.26 c -0.87,0.15 0.14,2.06 0.21,0.96 -0.24,-0.32 0.25,-0.85 -0.21,-0.96 z m 4.21,0.02 c -0.33,0.35 0.39,0.9 0.68,1.28 -0.53,0.1 -1.53,0.43 -1.64,1.03 0.51,0.04 1.51,-0.41 1.78,-0.89 0.3,0.11 0.81,-0.32 -0.08,-0.73 -0.18,-0.27 -0.34,-0.7 -0.74,-0.69 z m 1.6,0.41 c -0.44,0.49 0.72,0.94 1.04,1.38 0.97,0.18 -0.1,-0.69 -0.41,-1.01 -0.19,-0.14 -0.39,-0.34 -0.63,-0.37 z m 5.52,0.26 c -0.95,0.55 0.84,0.51 0,0 z m -9.12,0.06 c -0.82,0.05 -1.08,1.85 -0.27,0.84 0.07,-0.33 1,-0.58 0.27,-0.84 z m 5.18,0.12 c -0.59,0.58 0.63,1.21 1.09,1.2 0.6,0.19 1.05,1.5 1.84,1 -0.22,-0.43 -0.92,-0.62 -1.2,-1.13 -0.36,-0.42 -0.85,-0.18 -1.25,-0.6 -0.22,-0.11 -0.23,-0.39 -0.48,-0.47 z"
       id="path2" /><path
       style="fill:#87e133"
       d="m 12.69,40.38 c -1.3,-0.02 -2.75,0.17 -3.66,1.17 0.09,0.94 0.76,-0.26 1.27,-0.33 0.93,-0.42 2,-0.39 3,-0.34 -0.79,0.04 -1.56,0.32 -2.37,0.36 -0.53,0.81 1.04,0.28 1.54,0.23 0.4,-0.26 1.91,0.19 1.2,-0.47 -0.73,-0.23 0.66,0.01 0.9,-0.04 1.48,-0.15 3,-0.08 4.4,0.51 0.4,0.1 1.64,0.74 1.37,-0.06 -1.75,-0.56 -3.57,-1.26 -5.44,-0.91 -0.74,0.01 -1.48,-0.09 -2.21,-0.12 z m 4.27,1 c -1.66,0.17 -3.25,0.79 -4.86,1.23 -0.78,0.69 0.36,0.46 0.81,0.23 1.46,-0.37 2.95,-0.95 4.43,-1.04 0.12,-0.24 -0.18,-0.4 -0.38,-0.42 z M 9.7,41.86 c -0.83,0.56 0.1,1.5 0.7,1.82 0.63,0.48 0.91,-0.37 0.13,-0.48 C 9.93,42.93 9.78,42.4 9.91,41.95 L 9.88,41.91 Z M 8.74,42.1 c -0.27,0.54 0.38,1.18 0.74,1.63 1.93,1.72 3.33,3.97 5.3,5.66 2.55,2.03 5.76,2.86 8.73,4.06 2.02,0.7 4.19,0.45 6.29,0.55 0.96,-0.1 1.88,-0.39 2.84,-0.44 0.92,-0.65 0.09,-0.78 -0.52,-1.08 -0.21,-0.77 -1.1,-0.36 -0.42,0.25 -0.61,-0.11 -1.08,-0.61 -1.52,-1.01 -0.68,0.37 0.49,1.08 0.97,1.31 0.9,0.27 -0.31,0.24 -0.63,0.41 -0.86,0.18 -1.75,0.05 -2.62,0.06 0.59,0.03 1.79,-0.72 0.55,-0.64 -1.02,0.07 -0.68,0.88 -1.71,0.62 -0.65,0.07 -1.29,-0.15 -1.94,-0.17 0.67,-0.57 1.66,-0.63 2.34,-1.08 -0.49,-0.6 -1.47,0.22 -2.13,0.4 -0.52,0.61 -0.9,0.7 -1.7,0.25 -2.79,-1.12 -5.79,-1.91 -8.18,-3.82 -1.21,-0.52 -0.04,-0.76 -0.74,-1.2 -0.38,-0.3 -1.15,-1.81 -1.07,-0.68 0.1,0.29 -0.72,-0.76 -0.94,-1 C 11.52,44.96 10.31,44.03 9.39,42.87 9.12,42.64 9.23,42.01 8.74,42.1 Z m 10.13,0.16 c -1.55,0.36 -3.09,0.98 -4.41,1.89 -0.86,0.89 1.41,1.05 0.35,0.31 1.24,-0.81 2.83,-1.48 4.17,-1.73 0.26,-0.11 0.13,-0.46 -0.11,-0.47 z m 5.03,0.44 c -0.71,0.54 0.01,0.44 0.44,0.57 1,0.51 1.74,1.41 2.73,1.96 1.04,0.8 2.05,1.62 2.99,2.54 0.7,0.65 1.53,1.24 1.73,2.24 0.41,0.78 0.61,1.71 1.21,2.37 0.77,0 -0.02,-0.7 -0.16,-1.08 -0.51,-1.05 -0.71,-2.31 -1.63,-3.11 -1.2,-1.07 -2.35,-2.25 -3.69,-3.17 C 26.62,44.38 25.75,43.69 24.88,43 24.57,42.85 24.26,42.7 23.9,42.7 Z m -12.41,0.41 c -0.66,0.59 0.15,1.89 0.96,1.92 0.43,-0.55 -0.9,-0.67 -0.75,-1.39 0,-0.2 0.16,-0.54 -0.21,-0.53 z m 1.52,1.14 c -0.6,0.38 0,1.29 0.44,1.57 1.12,-0.04 -0.24,-0.55 -0.23,-1.11 0.02,-0.19 0.11,-0.47 -0.21,-0.46 z m 5.91,0.14 c -1.04,0.39 -2.15,0.91 -2.85,1.81 -0.79,-0.03 -0.21,1.04 0.25,1.22 0.31,0.52 1.42,0.38 0.58,-0.15 -0.7,-0.32 -0.69,-0.67 -0.18,-1.11 0.66,-0.71 1.7,-0.95 2.43,-1.49 l -0.01,-0.12 z m 1.81,0.7 c -0.9,0.38 -1.84,0.91 -2.44,1.69 0.62,0.44 1.28,-0.83 2.04,-1 0.23,-0.15 1.04,-0.39 0.4,-0.69 z m 3.73,0.14 c -1.39,0.44 -2.84,0.98 -3.96,1.95 0.33,0.76 1.36,-0.68 2.11,-0.76 0.66,-0.36 1.45,-0.5 2.08,-0.86 l 0.02,-0.12 z m -10.04,0.02 c -0.6,0.38 0.08,1.12 0.37,1.5 0.6,0.55 1.12,-0.25 0.23,-0.41 -0.33,-0.31 -0.28,-0.89 -0.6,-1.09 z m 12.51,1.1 c -1.34,0.77 -2.97,1.08 -4.13,2.09 0.41,0.59 1.38,-0.58 2.14,-0.68 0.72,-0.41 1.75,-0.54 2.24,-1.2 l -0.03,-0.08 z m -11.88,0.78 c -0.64,0.6 0.34,1.4 0.77,1.86 0.42,0.61 1.14,-0.05 0.33,-0.32 -0.6,-0.38 -0.74,-1.12 -1.1,-1.54 z m 3.09,0.13 c -0.6,0.47 0.41,0.99 0.57,1.5 0.55,0.54 1.03,-0.17 0.26,-0.4 -0.2,-0.41 -0.52,-0.85 -0.83,-1.1 z m 10.43,0.46 c -0.88,0.39 -1.88,0.77 -2.52,1.51 0.33,0.94 0.86,-0.51 1.55,-0.56 0.25,-0.24 1.64,-0.48 0.97,-0.95 z m -11.55,0.3 c -0.59,0.47 0.3,1.47 0.68,1.93 0.37,0.7 1.41,0.35 0.5,-0.19 -0.7,-0.41 -0.74,-1.31 -1.18,-1.74 z m 3.09,0.16 c -0.58,0.44 0.38,1.07 0.8,1.32 0.35,0.41 1.04,0.29 1.14,0.35 0.2,0.48 1.11,1.24 1.38,0.55 -0.46,-0.23 -1.03,-0.51 -1.05,-1.1 -0.44,0.43 -0.85,0.01 -1.45,-0.34 -0.41,-0.14 -0.48,-0.6 -0.82,-0.78 z m 9.96,1.24 c -0.62,0.15 -1.43,0.49 -1.54,1.17 0.48,0.06 1.39,-0.66 1.76,-1 z m -10.53,0.26 c -0.87,0.15 0.14,2.06 0.21,0.96 -0.24,-0.32 0.25,-0.85 -0.21,-0.96 z m 4.21,0.02 c -0.33,0.35 0.39,0.9 0.68,1.28 -0.53,0.1 -1.53,0.43 -1.64,1.03 0.51,0.04 1.51,-0.41 1.78,-0.89 0.3,0.11 0.81,-0.32 -0.08,-0.73 -0.18,-0.27 -0.34,-0.7 -0.74,-0.69 z m 1.6,0.41 c -0.44,0.49 0.72,0.94 1.04,1.38 0.97,0.18 -0.1,-0.69 -0.41,-1.01 -0.19,-0.14 -0.39,-0.34 -0.63,-0.37 z m 5.52,0.26 c -0.95,0.55 0.84,0.51 0,0 z m -9.12,0.06 c -0.82,0.05 -1.08,1.85 -0.27,0.84 0.07,-0.33 1,-0.58 0.27,-0.84 z m 5.18,0.12 c -0.59,0.58 0.63,1.21 1.09,1.2 0.6,0.19 1.05,1.5 1.84,1 -0.22,-0.43 -0.92,-0.62 -1.2,-1.13 -0.36,-0.42 -0.85,-0.18 -1.25,-0.6 -0.22,-0.11 -0.23,-0.39 -0.48,-0.47 z"
       id="path3" /><path
       style="fill:#fae84c"
       d="m 22.87,10.792 c -0.026,0.741 -0.972,0.231 -1.473,0.338 -0.513,0.101 -1.483,-0.452 -1.53,0.24 0.289,0.346 1.304,0.963 1.08,1.146 -0.826,0.137 -0.139,0.98 -0.091,1.412 0.12,0.531 -0.309,1.124 -0.072,1.766 -0.234,0.851 -0.589,-0.439 -0.92,-0.668 -1.074,-0.357 0.17,1.114 -0.29,1.529 0.097,0.645 0.767,1.216 0.175,1.754 -0.07,0.808 0.03,1.47 -0.669,1.826 -0.156,1.074 0.248,2.144 0.25,3.177 0.154,0.932 0.823,1.8 0.604,2.726 -0.532,0.129 -0.897,1.018 -0.793,1.656 -0.071,0.531 -0.572,1.055 -0.531,1.846 -0.247,0.767 0.453,1.103 0.536,1.81 0.349,0.621 -0.018,1.171 0.076,1.887 -0.122,0.578 0.564,1.313 0.342,1.655 0.263,1.151 0.234,2.407 0.974,3.33 0.664,-0.12 0.965,0.029 1.018,0.766 -0.385,0.727 0.922,0.985 0.145,1.149 -0.392,-0.653 -0.656,0.505 -0.808,0.811 -0.065,0.673 -0.622,1.451 -0.246,2.066 0.61,-0.193 0.287,-1.023 0.576,-1.512 0.448,-0.816 0.099,0.759 0.122,1.171 -0.339,0.871 0.685,0.939 0.845,0.198 0.211,-0.807 0.187,-1.644 0.191,-2.476 0.432,-0.528 0.213,-1.241 0.402,-1.896 0.058,-0.737 0.068,-1.491 0.691,-2.006 0.453,-0.841 0.888,-1.683 1.48,-2.444 -0.164,-0.484 0.031,-0.773 0.166,-1.358 -0.056,-0.624 -0.399,-0.879 0.389,-1.301 0.836,-0.674 -0.614,-0.523 0.051,-1.265 0.525,-0.716 -0.476,-0.786 -0.206,-1.127 0.565,-0.72 -0.356,-0.952 0.373,-1.542 0.037,-0.71 -0.972,-0.159 -0.218,-1.128 -0.471,-0.399 -0.425,-0.409 -0.177,-1.115 -0.021,-0.522 -0.131,-0.917 0.169,-1.455 -0.348,-0.421 -0.29,-0.741 0.067,-1.463 0.235,-0.43 -0.05,-0.788 0.339,-1.148 0.254,-0.486 0.174,-0.939 0.533,-1.408 0.657,-0.684 -0.758,-0.624 -0.147,-1.016 0.723,-0.546 0.221,-0.968 0.406,-1.52 -0.193,-0.489 -0.568,-0.239 -0.322,-0.951 -0.911,0.082 -0.328,-0.621 -0.046,-1.281 0.54,-0.542 -0.593,-0.624 -0.207,-1.139 0.005,-0.577 -0.978,-0.313 -0.508,-1.054 -0.752,-0.328 0.109,-0.417 -0.161,-1.079 -0.884,0.389 0.157,-0.699 -0.706,-0.603 -0.474,-0.098 -1.187,0.347 -1.503,0.083 -0.073,-0.165 -0.112,-0.464 -0.376,-0.387 z m -2.087,0.763 c 0.44,0.133 1.28,-0.133 1.45,0.236 -0.644,0.401 0.781,0.902 -0.416,0.613 0.003,0.464 1.365,1.545 0.381,0.765 -0.627,-0.323 -0.658,-0.986 -1.227,-1.461 z m 3.706,0.615 c 0.329,0.086 0.049,0.867 -0.167,1.192 -10e-4,1.237 0.785,-0.378 0.669,0.153 -0.67,0.503 -0.083,1.198 -0.543,1.453 -0.472,0.389 -0.156,1.427 -0.407,0.457 C 23.92,14.652 23.68,13.704 23.854,13 c 0.021,-0.5 0.34,-0.457 0.635,-0.83 z m -3.478,0.846 c 0.889,0.132 1.3,1.108 1.73,1.837 0.068,0.675 -0.513,-0.98 -1.034,-0.996 -0.332,0.126 -0.573,-0.627 -0.696,-0.841 z m 1.977,0.827 c 0.594,0.414 0.468,1.311 0.652,2.041 0.248,2.865 -0.287,5.721 -0.228,8.586 0.126,1.017 -0.304,-0.615 -0.5,-0.885 -0.332,-1.502 -1.553,-2.602 -2.403,-3.834 -0.584,0.197 -0.3,-0.432 -0.351,-0.907 0.463,-0.245 0.496,-0.89 0.235,-1.443 -0.032,-0.178 -0.039,-0.998 0.049,-0.897 0.487,0.018 1.179,0.726 0.874,-0.314 -0.225,-0.75 -0.184,-1.665 0.569,-0.778 0.669,0.33 1.043,1.735 0.16,0.859 -1.046,-0.491 -0.165,1.075 0.072,1.521 0.471,0.701 0.378,1.232 -0.265,0.319 -0.649,-1.146 -1.134,-0.17 -0.55,0.657 0.328,0.637 0.888,1.18 1.074,1.869 -0.513,-0.56 -0.975,-1.192 -1.515,-1.71 -0.57,0.575 0.71,1.263 1.034,1.859 0.645,0.276 0.549,2.111 1.056,1.007 -0.055,-0.828 -0.724,-0.94 -0.183,-1.431 -0.076,-0.49 -0.927,-1.452 -0.872,-1.55 0.421,0.271 1.162,1.776 1.436,0.877 -0.178,-0.106 -0.914,-0.72 -0.406,-1.233 -0.243,-0.638 -0.697,-1.356 0.031,-0.379 -0.072,0.722 0.959,1.015 0.565,-0.034 -0.405,-0.594 -1.228,-1.041 -0.444,-1.585 -0.15,-0.783 -0.546,-1.17 0.116,-1.523 0.16,-0.387 -0.886,-1.207 -0.206,-1.092 z m 2.532,1.775 c -0.103,0.806 -1.051,0.885 -1.362,1.585 -0.027,-0.261 0.027,-0.392 0.253,-0.526 -0.148,-0.602 0.662,-0.879 1.109,-1.059 z m -0.397,1.238 c 0.908,-0.057 0.346,0.641 0.821,0.952 -0.303,0.495 0.089,0.8 -0.548,1.358 0.231,0.648 0.97,0.223 0.196,1.189 -0.385,-0.516 -1.229,0.618 -1.483,1.054 0.32,0.823 1.38,-1.201 1.107,-0.532 0.09,0.589 -1.372,0.736 -1.076,1.533 0.853,-0.06 -0.956,1.673 0.386,1.03 0.436,-1.021 -0.174,0.268 0.425,0.452 -0.267,-0.234 -1.139,1.008 -1.077,0.554 -0.08,-1.665 0.165,-3.318 0.249,-4.977 0.501,0.007 0.379,-0.95 1.165,-0.984 0.119,-0.809 -1.704,0.357 -0.508,-0.56 1.069,-0.306 0.634,-1.248 -0.18,-0.435 -0.554,0.46 0.497,-0.732 0.523,-0.634 z m -0.073,2.396 c -1.101,-0.082 -0.893,2.029 -0.618,0.881 0.103,0.081 1.186,-0.693 0.618,-0.881 z m -4.917,0.738 c 0.572,0.821 1.243,1.587 1.786,2.436 -0.857,-1.074 -0.896,0.154 -0.023,0.657 0.69,0.587 0.856,1.503 1.266,2.252 0.576,0.07 0.266,1.68 0.116,1.855 -1.113,-0.637 -1.792,-1.76 -2.613,-2.677 -0.478,0.772 -0.722,-0.829 -0.887,-1.314 0.057,-0.467 -0.211,-1.423 0.207,-0.47 0.594,1.177 1.486,2.16 2.46,3.027 0.38,0.761 0.785,-0.154 0.207,-0.475 -0.858,-1.215 -1.781,-2.571 -2.586,-3.892 -0.533,0.245 -0.519,0.369 -0.521,-0.357 0.48,0.374 0.699,-0.679 0.588,-1.042 z m 0.327,4.915 c 0.747,1.139 1.708,2.175 2.855,2.879 -0.021,0.799 -0.07,1.434 -0.759,0.594 -0.827,-0.59 -1.181,-1.578 -1.685,-2.42 -0.724,0.556 -0.428,-0.415 -0.392,-0.981 z m 4.088,0.609 c 0.258,0.311 -1.144,1.779 0.107,1.282 0.325,-0.561 -0.039,0.533 -0.411,0.778 -0.002,1.282 0.852,-0.462 0.689,0.23 -0.181,0.521 -1.127,1.48 -0.288,1.588 -0.229,0.301 -0.921,0.885 -0.876,1.263 -0.576,0.922 0.477,0.444 0.878,0.133 -0.15,-0.508 -0.431,-0.595 0.514,-1.004 -0.105,0.599 -0.372,1.228 -0.929,1.531 0.819,0.719 -1.286,0.863 -0.227,1.444 0.636,-0.629 0.775,0.466 0.409,0.345 -1.242,-0.211 -0.679,0.786 -0.18,0.427 -0.321,0.569 0.271,0.75 -0.482,1.465 -0.221,0.246 -0.526,1.406 -0.657,0.921 0.389,-1.802 0.08,-3.652 0.427,-5.456 0.133,-1.466 0.327,-2.95 0.4,-4.445 0.847,0.295 0.116,-0.492 0.626,-0.502 z m -4.144,1.169 c 0.483,0.753 1.175,1.349 1.639,2.105 0.539,0.317 1.365,0.523 1.047,1.351 -0.178,1.213 -0.277,2.488 -0.237,3.677 -1.143,-1.015 -2.406,-1.957 -3.094,-3.365 -0.555,0.14 -0.826,-0.671 -0.612,-1.262 0.262,-0.864 0.661,0.569 0.884,0.92 0.716,0.977 1.697,1.78 2.261,2.85 1.005,0.249 -0.12,-0.936 -0.172,-1.288 -0.762,-1.157 -1.766,-2.222 -2.462,-3.398 -0.175,-0.476 0.256,-0.691 0.177,-1.163 -0.16,-0.649 0.58,0.434 0.569,-0.427 z m -0.282,0.832 c -0.577,0.591 0.655,1.373 1.115,1.855 0.698,0.339 1.316,1.554 1.737,1.016 -0.173,-0.784 -1.249,-0.942 -1.684,-1.59 -0.52,-0.326 -0.737,-0.897 -1.168,-1.281 z m -0.177,4.872 c 0.594,0.573 1.3,1.105 1.635,1.877 1.292,0.461 -0.772,-1.714 0.059,-0.91 0.41,0.399 1.022,0.85 1.175,1.217 -0.094,0.683 -0.05,1.736 -0.863,0.84 -0.798,-0.497 -1.224,-1.406 -1.799,-2.098 -0.596,0.552 0.566,1.415 0.941,1.976 0.317,0.584 1.405,0.68 1.438,1.276 -0.027,0.389 -0.318,1.605 -0.737,1.235 -0.35,-0.68 -1.676,-1.528 -0.866,-0.277 0.349,0.556 -0.491,0.082 -0.372,-0.349 -0.254,-0.722 -0.406,-1.489 -0.504,-2.274 0.512,0.914 1.218,1.737 1.596,2.71 0.834,0.024 -0.019,-1.054 -0.232,-1.421 -0.477,-0.505 -0.716,-1.63 -1.372,-1.646 -0.103,-0.57 -0.499,-0.973 -0.352,-1.498 0.47,0.03 0.296,-0.413 0.253,-0.658 z"
       id="path4" /><path
       style="fill:#ce5ac3"
       d="m 50.12,22.646 c -0.926,0.13 -1.789,0.535 -2.57,0.986 -1.679,0.41 -3.217,1.159 -4.881,1.654 -3.1,1.197 -6.216,2.6 -8.641,4.932 -2.033,1.651 -4.407,3.023 -5.83,5.289 -1.108,1.245 -2.186,2.51 -3.215,3.82 -1.074,0.973 -1.445,2.444 -2.103,3.692 -0.15,1.062 0.694,-0.067 0.747,-0.535 0.576,-1.122 0.984,-2.357 1.995,-3.182 1.237,-1.71 2.791,-3.162 3.987,-4.902 1.959,-1.926 4.328,-3.363 6.356,-5.212 1.736,-1.282 3.724,-2.159 5.693,-3.016 2.089,0.388 4.22,0.528 6.322,0.825 0.868,-0.61 -0.941,-0.535 -1.416,-0.642 -1.363,-0.158 -2.727,-0.309 -4.087,-0.5 1.481,-0.49 2.937,-1.07 4.395,-1.555 1.022,-0.128 1.737,-0.866 2.733,-1.074 0.285,-0.053 1.277,-0.214 0.515,-0.58 z m 3.606,0.341 c -1.055,0.074 -2.167,-0.009 -3.185,0.245 0.059,0.691 1.246,0.182 1.817,0.273 0.773,-0.106 1.264,-0.156 1.546,0.463 0.774,-0.118 1.095,0.288 0.171,0.488 -0.626,0.302 -1.54,0.085 -1.943,0.646 -0.479,0.054 -0.898,0.653 -1.3,0.576 -0.41,-0.527 -1.349,-0.147 -1.957,-0.344 -0.799,0.012 -1.6,-0.237 -2.381,-0.215 0.418,1.125 -1.051,0.458 -1.788,0.482 -1.296,0.258 0.605,0.642 1.225,0.605 0.879,0.002 1.808,0.377 2.653,0.149 -0.739,-0.738 -0.496,-0.249 0.582,-0.318 1.103,-0.247 0.12,0.774 1.244,0.659 -0.757,0.151 -1.722,0.125 -2.267,0.623 -0.64,0.126 -1.436,0.674 -1.984,0.22 -2.062,-0.264 -4.151,-0.2 -6.217,-0.365 -0.195,0.871 0.722,1.007 1.859,0.884 1.29,0.003 2.596,0.105 3.847,0.427 -1.035,0.381 0.858,0.693 -0.725,0.8 -0.489,0.236 -1.837,0.174 -1.501,0.908 0.178,0.379 -1.162,0.476 -1.572,0.249 -2.087,-0.131 -4.185,-0.037 -6.267,-0.22 -0.456,0.783 1.318,0.47 1.92,0.561 1.165,0.042 2.699,0.012 3.628,0.119 -0.524,0.412 -1.49,0.069 -2.199,0.166 -0.93,-0.032 -1.872,-0.052 -2.785,-0.241 -0.984,0.221 0.597,0.741 1.278,0.624 1.253,0.119 2.513,0.072 3.768,0.112 1.04,-0.426 0.67,0.122 -0.301,0.168 -1.48,0.202 -3.003,-0.223 -4.498,-0.302 -0.645,-0.008 -1.327,-0.254 -1.955,-0.078 -0.194,0.256 -1.76,0.551 -0.443,0.681 0.67,-0.033 0.955,-0.503 1.778,-0.202 1.158,0.108 2.312,0.253 3.469,0.363 0.955,0.51 -0.418,0.679 -0.918,0.464 -1.42,-0.163 -2.848,-0.247 -4.276,-0.252 -0.494,0.831 1.254,0.342 1.849,0.506 0.425,0.077 2.229,0.068 1.635,0.225 -0.861,0.151 -0.87,0.705 -1.958,0.267 -1.365,-0.122 -2.718,-0.327 -4.093,-0.149 -0.425,0.896 1.286,0.184 1.864,0.443 1.126,-0.002 1.419,0.127 0.147,0.334 -0.76,0.362 -1.711,-0.188 -2.393,0.256 0.478,0.518 1.283,0.332 1.905,0.339 0.502,-0.065 2.06,0.563 1.74,-0.225 -1.046,-0.123 0.624,-0.201 0.593,-0.568 0.315,0.12 1.868,0.16 1.212,0.345 -1.041,0.082 -1.13,0.942 -0.034,0.738 1.153,-0.16 0.591,0.219 -0.187,0.446 -0.581,0.301 -1.683,0.068 -1.789,0.759 -0.668,0.293 -1.296,0.766 -2.021,0.407 -0.961,0.062 -2.008,-0.114 -2.909,0.212 0.065,0.821 -1.181,0.382 -1.802,0.599 -0.811,0.275 -1.347,1.17 -0.045,0.869 0.485,-0.45 1.524,-0.271 2.229,-0.354 0.624,-0.112 1.036,-0.48 1.812,-0.362 0.925,-0.133 -0.603,0.559 -0.945,0.606 -0.144,1.014 -0.874,-0.059 -1.332,0.237 -0.571,0.564 -1.587,0.086 -2.077,0.69 0.969,0.485 -0.859,0.564 -1.315,0.672 -0.996,-0.184 -1.22,1.29 -0.282,0.631 1.084,-0.624 -0.396,0.48 0.564,0.341 0.44,-0.008 2.143,0.006 1.214,-0.515 -1.4,0.078 0.28,-0.347 0.826,-0.293 0.75,0.056 1.279,-0.339 2.073,-0.234 1.152,-0.408 -0.114,0.489 -0.517,0.608 -0.896,0.156 -0.401,0.961 0.328,0.827 1.216,0.035 0.207,0.09 -0.458,0.117 -1.596,0.058 -3.196,-0.005 -4.752,-0.314 -0.658,0.657 0.995,0.591 1.503,0.694 0.374,0.097 2.242,0.032 1.096,0.158 -1.129,0.133 -2.248,0.4 -3.367,0.556 -0.521,0.868 1.107,0.204 1.617,0.191 1.898,-0.359 3.854,-0.49 5.728,-0.9 0.818,0.241 1.162,-0.823 0.169,-0.843 -0.377,-0.155 -1.434,0.01 -1.417,-0.186 0.426,-0.278 1.322,-0.659 1.073,-1.263 -0.277,-0.308 0.614,-0.447 0.8,-0.846 -0.165,-0.612 0.462,-0.698 0.982,-1.087 0.298,-0.513 1.19,-0.586 1.724,-0.933 0.646,-0.12 0.889,-0.579 1.561,-0.65 0.509,-0.259 1.363,-0.389 1.507,-1.003 -1.027,-0.414 -0.744,-0.363 0.226,-0.645 1.06,-0.259 -0.473,-0.892 0.787,-0.898 0.424,-0.26 1.8,-0.22 1.308,-0.915 0.853,-0.24 1.883,-0.255 2.593,-0.773 -0.731,-0.616 -0.23,-0.455 0.509,-0.691 0.755,-0.002 0.467,-0.828 0.711,-0.887 0.762,-0.294 1.754,-0.273 2.361,-0.823 -0.197,-0.59 1.067,-0.283 1.44,-0.742 -0.609,-0.683 0.2,-0.39 0.673,-0.904 0.911,-0.33 2.008,-0.158 2.847,-0.644 -0.141,-0.694 -1.284,-0.44 -0.132,-0.855 0.711,-0.569 1.639,-0.543 2.501,-0.698 0.138,-0.599 1.002,-0.399 1.251,-1.023 0.47,-0.407 -0.35,-0.789 -0.784,-0.727 -0.12,-0.085 0.1,-0.692 -0.672,-0.541 z m -4.28,0.733 c -0.464,0.816 1.271,0.346 1.848,0.478 0.565,0.296 1.966,-0.206 0.777,-0.415 -0.873,-0.087 -1.75,-0.029 -2.625,-0.063 z m 5.484,0.103 c -0.057,0.102 -0.037,-0.006 0,0 z m -7.794,0.523 c -0.493,0.817 1.247,0.408 1.791,0.551 0.819,-0.064 1.719,0.249 2.474,-0.022 -0.188,-0.639 -1.211,-0.276 -1.761,-0.416 -0.835,-0.035 -1.671,-0.035 -2.504,-0.113 z m -4.702,2.232 c -0.564,0.781 1.247,0.349 1.802,0.544 1.09,0.139 2.2,0.17 3.276,0.382 0.897,-0.478 -0.744,-0.622 -1.145,-0.63 -1.311,-0.116 -2.614,-0.32 -3.933,-0.296 z m -4.222,1.786 c -0.527,0.656 0.926,0.4 0.516,1.053 1.475,0.103 2.953,-0.145 4.426,0.083 0.332,-0.245 1.932,-0.588 0.552,-0.751 -1.617,0.214 -3.244,0.181 -4.828,-0.237 -0.23,-0.015 -0.445,-0.123 -0.666,-0.148 z m 0.626,1.302 c -0.789,0.012 -1.578,-0.012 -2.366,0.022 -0.29,0.83 1.492,0.295 2.173,0.441 1.188,0.063 2.381,0.16 3.563,0.268 0.868,-0.644 -1.009,-0.5 -1.496,-0.588 -0.625,-0.047 -1.249,-0.098 -1.874,-0.143 z m -4.947,5.385 c -1.11,0.044 -2.219,0.118 -3.327,0.188 -0.788,0.078 -2.001,1.043 -0.468,0.973 0.188,-0.608 1.21,-0.224 1.764,-0.401 0.589,-0.127 1.619,0.305 1.883,-0.293 0.449,0.092 0.755,-0.487 0.148,-0.467 z m -3.145,0.26 c 0.038,-0.036 0.035,0.049 0,0 z"
       id="path5" /><path
       style="fill:#509def"
       d="m 38.008,10 c -0.445,0.895 -0.731,-0.07 -1.329,0.263 -0.193,0.808 -0.944,-0.264 -1.207,0.766 -0.264,0.476 -0.886,0.623 -0.753,1.379 -0.516,0.325 -0.347,1.413 -1.035,1.33 -0.385,0.711 -0.623,1.665 -0.991,2.28 -0.498,0.377 -0.386,1.129 -0.789,1.63 -0.332,0.593 -0.195,1.277 -0.433,1.899 -0.402,-1.117 -0.773,0.134 -0.918,0.556 -0.758,0.681 -0.637,1.937 -1,2.86 -0.313,0.231 -0.418,1.661 -0.675,1.171 -0.621,-0.288 -0.753,0.856 -1.073,1.257 -0.364,0.429 -0.459,1.003 -0.378,1.832 -0.207,0.655 -0.876,1.048 -0.787,1.758 0.108,0.503 -0.098,1.363 -0.462,1.512 -0.853,-0.14 -0.289,1.319 -0.983,1.51 -0.453,0.282 -0.007,1.458 0.309,0.752 0.221,-0.403 0.518,-0.933 0.558,-1.469 0.566,-0.035 0.866,-0.987 1.024,-1.545 0.028,-0.894 0.389,-1.652 0.813,-2.464 -0.133,-0.794 0.37,-1.42 0.556,-2.166 0.509,-0.999 -0.063,0.635 0.104,1.018 0.158,0.808 -0.16,1.827 0.385,2.488 0.729,-0.409 -0.145,-1.277 0.1,-2.072 0.008,-0.771 -0.212,-1.449 0.346,-1.843 0.149,-0.784 0.413,-1.08 0.644,-1.73 0.219,-0.738 0.301,-1.512 0.572,-2.238 0.678,-0.532 0.365,-0.733 1.15,-0.567 0.464,-0.98 0.175,-2.11 0.945,-2.924 0.586,-0.218 0.262,-1.111 0.65,-1.556 0.395,-0.354 0.256,-1.466 0.806,-1.347 0.53,-0.34 0.445,-1.191 0.986,-1.37 -0.156,-0.801 0.292,-1.078 0.676,-1.606 0.113,-0.7 0.996,0.328 1.102,-0.604 0.246,-0.065 0.956,0.845 1.114,-0.137 0.416,0.298 0.924,1.709 1.343,0.935 0.153,-0.5 0.353,0.415 0.531,0.572 -0.463,0.606 -0.958,1.416 -1.34,2.103 0.487,-0.84 0.154,-1.349 0.024,-1.649 0.609,-1.16 -0.695,-0.469 -0.571,0.362 -0.167,0.508 -0.539,2.092 0.348,1.7 -0.789,1.589 -2.291,2.705 -2.924,4.396 -0.698,1.373 -1.513,2.68 -2.209,4.055 -0.992,1.37 -1.976,2.746 -2.611,4.327 -0.539,1.059 -1.39,1.937 -1.808,3.07 -0.608,-0.67 -0.142,-1.452 -0.14,-2.069 -0.381,-0.446 -0.233,-1.438 -0.163,-2.046 -0.842,-0.305 -0.488,1.175 -0.478,1.705 0.025,0.908 -0.164,1.995 0.41,2.785 0.416,0.533 -0.539,0.528 -0.531,-0.453 -0.295,-1.225 -1.083,-0.566 -0.363,0.33 0.144,0.687 0.81,1.322 0.255,1.936 -0.388,0.87 -0.494,-0.944 -0.655,-1.345 -0.872,-0.308 -0.097,1.299 -0.003,1.875 0.263,0.322 -0.341,1.285 -0.548,1.063 -0.377,-0.42 0.237,-2.052 -0.569,-1.303 -0.039,0.661 -0.885,0.904 -0.612,1.877 -0.172,0.932 0.931,0.861 0.462,0.017 0.029,-1.362 0.055,-0.771 0.631,-0.022 -0.318,1.057 -1.168,1.902 -1.746,2.831 -0.2,1.143 -0.601,0.046 -0.592,-0.477 0.135,-0.314 0.369,-0.62 0.334,-0.984 1.018,0.424 0.471,-0.414 0.293,-0.802 0.257,-0.568 -0.699,-1.099 -0.489,-0.38 -0.167,0.532 -0.247,1.151 -0.446,1.735 -0.509,0.721 0.233,1.471 0.361,2.151 -0.364,1.175 -0.608,2.401 -0.934,3.572 -0.592,0.872 0.908,0.738 0.493,0.027 0.256,-0.975 0.432,-1.991 0.745,-2.963 0.245,-1.16 0.904,-2.144 1.643,-3.04 0.688,-1.2 1.221,-2.484 2.038,-3.609 0.779,-1.682 1.478,-3.424 2.64,-4.89 0.481,-0.943 0.867,-1.943 1.461,-2.823 0.649,0.731 0.809,-0.48 1.578,-0.445 1.081,-0.445 2.169,-0.876 3.221,-1.386 0.216,0.308 -0.387,0.922 -0.883,1.192 -0.428,0.285 -1.118,0.622 -1.765,0.905 -0.564,0.137 -1.929,1.287 -0.838,1.055 0.795,-0.55 1.744,-1.049 2.637,-1.297 0.919,0.002 -0.588,0.357 -0.733,0.709 -0.227,0.716 -1.178,0.099 -1.771,0.624 -1.028,0.371 -2.253,0.715 -2.886,1.659 0.436,0.515 1.191,-0.751 1.964,-0.825 0.511,-0.123 1.614,-0.871 1.737,-0.348 -0.536,0.118 -0.604,0.92 -1.067,0.904 -0.492,-0.383 -1.217,0.351 -1.787,0.522 -0.763,-0.033 -1.682,1.587 -0.605,0.835 0.646,-0.345 1.501,-0.786 2.068,-0.999 0.265,0.695 -0.714,0.698 -1.249,0.991 -0.647,0.254 -1.455,0.615 -1.627,1.281 -0.893,-0.054 -1.171,1.67 -0.404,0.826 0.474,-0.587 1.487,-0.61 2.041,-1.149 -0.837,-0.324 -0.694,-0.06 0.288,-0.582 0.384,-0.257 1.654,-0.582 0.622,-0.148 -0.262,0.438 -0.762,0.693 -1.011,1.198 -0.397,0.583 -1.069,0.269 -1.755,0.743 -0.193,0.711 -1.048,0.892 -1.255,1.689 0.432,0.539 -0.87,0.769 -1.09,1.311 -0.437,1.152 0.881,-0.23 1.318,-0.509 1.07,-0.23 -0.011,-0.603 0.442,-1.092 0.45,-0.495 1.455,-0.471 1.687,-1.044 -1.323,0.015 -0.624,-0.069 0.277,-0.304 0.36,-0.77 -0.362,1.292 0.553,0.38 0.353,-0.195 0.231,-0.815 0.497,-0.986 0.328,-0.374 0.637,-0.797 0.982,-1.14 1.052,-0.159 0.34,-0.988 0.404,-1.484 0.554,-0.29 0.937,-0.659 1.278,-1.036 0.263,-0.508 0.567,-0.7 1.198,-0.976 -0.285,-0.682 1.076,-0.477 1.015,-1.181 -1.164,-0.436 0.15,-0.318 0.118,-1.085 0.751,-0.151 0.543,-0.84 0.489,-0.986 0.447,-0.322 1.487,-0.476 1.337,-1.19 -0.938,-0.255 1.276,-0.702 0.097,-1.02 -0.289,-0.024 1.487,-0.71 0.376,-0.943 -0.815,-0.114 0.775,-0.446 1.026,-0.73 -0.072,-0.62 0.687,-0.551 0.979,-1.073 -0.89,-0.326 0.833,-0.881 -0.056,-1.325 -1.086,-0.058 -0.445,-0.631 0.273,-0.648 0.923,-0.188 -0.265,-0.859 -0.721,-0.566 -0.132,0.635 -1.088,0.077 -1.658,0.547 -1.078,0.501 -1.133,0.191 -0.101,-0.289 0.635,-0.086 1.456,-0.73 1.909,-0.393 0.197,-0.415 1.112,-0.51 1.098,-1.112 -0.678,-0.261 0.796,-0.092 0.85,-0.55 -0.612,-0.605 1.593,-0.23 0.754,-0.977 -1.099,-0.323 -2.245,-0.57 -3.357,-0.747 -0.558,-0.037 -0.685,-0.462 -0.994,-0.935 -0.306,-0.868 -0.719,0.463 -0.939,-0.138 C 38.607,10.604 38.375,10.204 38.008,10 Z m -0.717,1.302 c -0.734,0.619 -0.549,1.815 -0.781,2.694 0.023,0.689 -0.291,1.549 0.142,2.121 0.764,-0.357 0.972,-0.619 0.815,-1.55 0.093,-0.831 0.117,-1.679 0.34,-2.482 -0.794,-0.307 -0.61,1.251 -0.739,1.838 -0.066,0.407 -0.141,2.336 -0.148,1.066 0.011,-1.197 0.243,-2.45 0.586,-3.546 L 37.455,11.37 v 0 z m 3.343,0.994 c 0.701,0.445 1.792,0.346 2.624,0.682 -0.763,0 -0.757,0.752 -1.375,0.801 -0.856,0.353 -1.99,0.363 -2.554,1.197 0.62,0.611 -1.226,0.631 -1.29,1.452 0.242,0.144 -1.294,1.452 0.235,1.135 -0.404,-0.668 1.034,-0.769 1.56,-1.071 0.964,-0.662 0.597,0.53 1.496,0.609 0.365,0.11 -1.45,0.792 -0.341,1.031 -0.869,0.142 -0.774,0.805 -1.328,1.055 -0.65,0.081 -1.357,0.944 -0.342,1.06 -0.692,0.104 -0.928,0.806 -0.554,1.011 -1.702,0.098 -3.429,0.849 -4.658,2.024 0.462,0.628 1.189,-0.645 1.844,-0.733 0.764,-0.433 1.628,-0.706 2.5,-0.805 0.779,0.449 -0.312,0.577 -0.701,0.884 -0.578,0.445 -1.312,0.385 -1.955,0.835 -1.062,0.456 -2.15,0.852 -3.196,1.342 1.238,-1.522 1.966,-3.356 2.991,-5.01 0.599,-1.451 1.543,-2.696 2.558,-3.873 0.636,-0.737 0.704,-1.942 1.803,-2.073 0.755,-0.327 1.741,-0.442 2.36,-0.726 -0.092,-0.72 -1.119,-0.014 -1.582,-0.03 -0.557,0.197 -1.672,0.741 -0.814,-0.198 0.074,-0.402 0.707,-0.328 0.719,-0.599 z m -4.267,0.739 c -0.728,0.261 -0.544,1.377 -0.615,2.035 -0.272,0.585 0.28,1.91 0.601,0.827 -0.344,-0.541 -0.066,-1.395 -0.048,-2.045 0.039,-0.25 0.4,-0.635 0.062,-0.817 z m -1.026,0.819 c -0.699,0.361 -0.425,1.436 -0.687,2.108 -0.006,1.014 -0.422,2.091 -0.043,3.062 0.741,-0.043 0.074,-1.374 0.399,-1.938 0.014,-1.064 0.389,-2.143 0.43,-3.164 z m 6.083,0.566 c 0.523,0.348 -0.616,0.525 -1.001,0.587 -1.098,0.539 -0.581,-0.16 0.186,-0.347 0.272,-0.079 0.543,-0.162 0.815,-0.24 z m -7.033,0.661 c -0.405,0.744 -0.257,1.748 -0.457,2.589 -0.508,0.783 0.403,1.899 0.447,0.665 -0.087,-1.001 0.361,-2.17 0.26,-3.197 l -0.073,-0.052 z m 7.21,0.516 c 0.093,-0.04 0.047,0.142 0,0 z m -8.091,0.682 c -0.735,0.369 -0.444,1.512 -0.558,2.235 0.084,0.836 -0.221,1.914 0.41,2.552 0.78,-0.522 -0.253,-0.998 0.051,-1.859 0.002,-0.924 -0.035,-1.876 0.253,-2.758 l -0.055,-0.106 z m 6.526,0.889 c -1.352,0.229 -2.689,0.838 -3.694,1.757 -0.196,1.112 1.027,-0.462 1.614,-0.55 0.698,-0.496 1.638,-0.53 2.339,-0.906 l 0.009,-0.119 v 0 l -0.269,-0.182 z m -8.35,1.359 c 0.051,0.047 -0.048,0.036 0,0 z m 6.83,0.518 c -1.097,0.359 -2.413,0.693 -3.065,1.713 0.487,0.961 0.633,-0.511 1.37,-0.582 0.588,-0.412 1.461,-0.404 1.968,-0.861 0.035,-0.148 -0.116,-0.315 -0.273,-0.27 z m -5.831,0.11 c -0.532,0.61 -0.214,1.632 -0.322,2.418 -0.027,0.545 -0.033,2.333 0.626,1.434 -0.389,-1.184 -0.013,-2.553 -0.146,-3.774 l -0.071,-0.055 z m 5.242,1.233 c -0.996,0.136 -1.944,0.672 -2.686,1.302 0.438,0.818 1.093,-0.493 1.806,-0.603 0.254,-0.183 1.673,-0.164 0.88,-0.699 z m -6.636,0.539 c -0.567,0.496 -0.244,1.532 -0.391,2.259 0.063,0.603 -0.363,2.044 0.483,1.872 -0.11,-1.258 0.015,-2.666 0.104,-3.973 C 31.46,21 31.38,20.935 31.291,20.928 Z m -0.749,1.808 c -0.535,0.79 -0.369,1.892 -0.375,2.807 -0.227,1.036 1.257,1.088 0.568,0.34 -0.285,-0.979 -0.08,-2.046 0.105,-3.014 -0.042,-0.113 -0.178,-0.182 -0.298,-0.133 z m 7.238,0.859 c 0.143,-0.009 -0.009,0.025 0,0 z m -8.189,1.246 c -0.689,0.534 -0.31,1.645 -0.389,2.423 0.56,1.207 0.595,-0.228 0.448,-0.875 -0.216,-0.532 0.429,-1.29 -0.059,-1.548 z m -4.823,11.121 c 0.019,-0.003 -0.018,0.017 -0.012,0.01 0.001,-0.002 0.005,-0.005 0.012,-0.01 z"
       id="path6-5" /></g></svg>
