<?xml version="1.0" encoding="UTF-8"?>
<svg id="_图层_1" xmlns="http://www.w3.org/2000/svg" version="1.1" viewBox="0 0 64 64" width="24" height="24">
  <!-- Generator: Adobe Illustrator 29.0.1, SVG Export Plug-In . SVG Version: 2.1.0 Build 192)  -->
  <defs>
    <style>
      .st0, .st1 {
        fill: #3c6eb4;
      }

      .st2 {
        fill: #fc66cc;
      }

      .st3, .st4, .st1, .st5 {
        display: none;
      }

      .st3, .st4, .st6, .st7 {
        isolation: isolate;
      }

      .st3, .st6, .st7 {
        opacity: .2;
      }

      .st4 {
        opacity: .1;
      }

      .st4, .st8, .st7 {
        fill: #fff;
      }

      .st9 {
        fill: #09aef0;
      }
    </style>
  </defs>
  <path class="st0" d="M50.4,64H13.8c-7.6,0-13.8-6.2-13.8-13.7V13.7C0,6.2,6.2,0,13.7,0h36.5c7.5,0,13.7,6.2,13.7,13.7v36.6c0,7.5-6.2,13.7-13.7,13.7h.1Z"/>
  <g class="st5">
    <path class="st6" d="M17.3,8.7c-.7.2-1.1.9-.9,1.6l3.7,13.7,11.5,6.6,6.6-11.5-3.7-13.7c-.2-.7-.9-1.1-1.6-.9l-15.5,4.2ZM5,30c-.7.2-1.1.9-.9,1.6l4.2,15.5c.2.7.9,1.1,1.6.9l13.7-3.7,6.6-11.5-11.5-6.6-13.7,3.7ZM40.4,20.5l-6.6,11.5,11.5,6.6,13.7-3.7c.7-.2,1.1-.9.9-1.6l-4.2-15.5c-.2-.7-.9-1.1-1.6-.9l-13.7,3.7ZM32.5,34.3l-6.6,11.5,3.7,13.7c.2.7.9,1.1,1.6.9l15.5-4.2c.7-.2,1.1-.9.9-1.6l-3.7-13.7-11.5-6.6Z"/>
    <path class="st9" d="M17.3,7.7c-.7.2-1.1.9-.9,1.6l3.7,13.7,11.5,6.6,6.6-11.5-3.7-13.7c-.2-.7-.9-1.1-1.6-.9l-15.5,4.2ZM5,29c-.7.2-1.1.9-.9,1.6l4.2,15.5c.2.7.9,1.1,1.6.9l13.7-3.7,6.6-11.5-11.5-6.6-13.7,3.7ZM40.4,19.5l-6.6,11.5,11.5,6.6,13.7-3.7c.7-.2,1.1-.9.9-1.6l-4.2-15.5c-.2-.7-.9-1.1-1.6-.9l-13.7,3.7ZM32.5,33.3l-6.6,11.5,3.7,13.7c.2.7.9,1.1,1.6.9l15.5-4.2c.7-.2,1.1-.9.9-1.6l-3.7-13.7-11.5-6.6Z"/>
    <path class="st7" d="M33.1,3.5c0,0-.2,0-.3,0l-15.5,4.2c-.7.2-1.1.9-.9,1.6v.2c.2-.4.5-.7.9-.8l15.5-4.2c.7-.2,1.4.2,1.6.9l3.5,13,.2-.3-3.7-13.7c-.2-.6-.7-1-1.4-1ZM54.4,15.8c0,0-.2,0-.3,0l-13.7,3.7-6.6,11.5.4.2,6.2-10.7,13.7-3.7c.7-.2,1.4.2,1.6.9l4.1,15.4c0-.3.1-.5,0-.8l-4.2-15.5c-.2-.6-.8-1-1.4-1ZM18.7,25.4l-13.7,3.7c-.7.2-1.1.9-.9,1.6v.2c.2-.4.5-.7.9-.8l13.7-3.7,11,6.4.4-.8-11.5-6.6ZM32.5,33.3l-6.6,11.5.2.7,6.4-11.2,11.5,6.6,3.6,13.5c0-.3.1-.5,0-.8l-3.7-13.7-11.5-6.6Z"/>
  </g>
  <g class="st5">
    <path class="st6" d="M29.7,4.5c-7.8,0-14.8,3.1-19.8,8.2l19.8,19.8-19.8,19.8c5.1,5.1,12.1,8.2,19.8,8.2,15.5,0,28-12.5,28-28S45.2,4.5,29.7,4.5Z"/>
    <path class="st2" d="M29.8,3.5c-7.8,0-14.8,3.1-19.8,8.2l19.8,19.8-19.8,19.8c5.1,5.1,12.1,8.2,19.8,8.2,15.5,0,28-12.5,28-28S45.3,3.5,29.8,3.5Z"/>
    <path class="st7" d="M29.7,3.5c-7.8,0-14.8,3.1-19.8,8.2l.5.5c5-4.8,11.8-7.7,19.3-7.7,15.3,0,27.6,12.1,28,27.3,0-.1,0-.2,0-.3,0-15.5-12.5-28-28-28ZM28.7,32.5l-18.8,18.8c.2.2.3.3.5.5l18.3-18.3.5.5.5-.5-1-1Z"/>
    <path class="st6" d="M29.7,18.5c-7.7,0-14,6.3-14,14s6.3,14,14,14v5.5h.1c0,.1,9.5-9.4,9.5-9.4,0,0,.2-.2.3-.3h.1c0-.1,0-.1,0-.1,2.5-2.6,4-6.1,4-9.8,0-7.7-6.3-14-14-14Z"/>
    <path class="st8" d="M43.7,31.5c0,7.7-6.3,14-14,14s-14-6.3-14-14,6.3-14,14-14,14,6.3,14,14Z"/>
    <path class="st8" d="M29.8,31.4h-.1v19.7h.1c0,.1,9.9-9.8,9.9-9.8l-9.9-9.9Z"/>
  </g>
  <g>
    <rect class="st3" x="0" y="1.1" width="24" height="24" rx="3.2" ry="3.2"/>
    <rect class="st1" width="24" height="24" rx="3.2" ry="3.2"/>
    <path class="st6" d="M41.1,12.6c-.2,0-.6.1-1.3.4-.8.3-2.6.6-4,.6-5,.1-9,1.8-12.2,5-4.4,4.4-5.8,10-3.8,15.1.5,1.2.7,2.4.6,2.7-.1.3-1,1.1-1.9,1.8-2,1.5-3.3,3.9-3.7,6.5-.2,1.6,0,2.3.8,4.2,1.9,4,6.1,5.7,10.6,4.3,2.6-.8,5.2-3.7,7.3-8.2,1.8-3.8,1.9-3.9,3.8-4.6,3.3-1.2,5.3-2.4,7.4-4.6,3.6-3.8,5-8.7,3.7-13.4-.6-2.1-1.1-2.8-3.7-5.5-1.7-1.7-3.2-3.4-3.3-3.8-.1-.3-.2-.5-.4-.5ZM32.3,17.2c1.6,0,2.8.5,3.1,1.4.1.3-.3,1.8-1,3.2-1.7,3.7-2.3,5.8-3.3,12.4-1.3,8.2-2.7,11.7-5.5,13.9-1.8,1.3-4,1.5-5.1.3-1-1-1.3-2.3-.8-3.7.4-1.1.7-1.2,3.4-1.6,1.9-.3,3.2-1.6,3.2-3.3s-.4-1.7-1.9-3.2c-2.3-2.4-3.2-4.7-3.3-7.6,0-4.5,2.2-8.4,6-10.4,1.7-.9,3.6-1.4,5.2-1.4ZM38.1,19.4c.5,0,1.1.5,1.9,1.6,3.3,4.5,3,11.3-.8,15.2-1.6,1.7-2,1.8-3.1.9-.6-.5-.8-1-.8-2.9,0-2.9.9-10.1,1.5-12.8.3-1.3.7-2,1.1-2.1Z"/>
    <path class="st8" d="M41.1,11.4c-.2,0-.6.1-1.3.4-.8.3-2.6.6-4,.6-5,.1-9,1.8-12.2,5-4.4,4.4-5.8,10-3.8,15.1.5,1.2.7,2.4.6,2.7-.1.3-1,1.1-1.9,1.8-2,1.5-3.3,3.9-3.7,6.5-.2,1.6,0,2.3.8,4.2,1.9,4,6.1,5.7,10.6,4.3,2.6-.8,5.2-3.7,7.3-8.2,1.8-3.8,1.9-3.9,3.8-4.6,3.3-1.2,5.3-2.4,7.4-4.6,3.6-3.8,5-8.7,3.7-13.4-.6-2.1-1.1-2.8-3.7-5.5-1.7-1.7-3.2-3.4-3.3-3.8-.1-.3-.2-.5-.4-.5ZM32.3,16c1.6,0,2.8.5,3.1,1.4.1.3-.3,1.8-1,3.2-1.7,3.7-2.3,5.8-3.3,12.4-1.3,8.2-2.7,11.7-5.5,13.9-1.8,1.3-4,1.5-5.1.3-1-1-1.3-2.3-.8-3.7.4-1.1.7-1.2,3.4-1.6,1.9-.3,3.2-1.6,3.2-3.3s-.4-1.7-1.9-3.2c-2.3-2.4-3.2-4.7-3.3-7.6,0-4.5,2.2-8.4,6-10.4,1.7-.9,3.6-1.4,5.2-1.4ZM38.1,18.3c.5,0,1.1.5,1.9,1.6,3.3,4.5,3,11.3-.8,15.2-1.6,1.7-2,1.8-3.1.9-.6-.5-.8-1-.8-2.9,0-2.9.9-10.1,1.5-12.8.3-1.3.7-2,1.1-2.1Z"/>
    <path class="st4" d="M3.2,0C1.4,0,0,1.4,0,3.2v1.1C0,2.6,1.4,1.1,3.2,1.1h57.6c1.8,0,3.2,1.4,3.2,3.2v-1.1c0-1.8-1.4-3.2-3.2-3.2H3.2Z"/>
  </g>
</svg>