<?xml version="1.0" encoding="UTF-8"?>
<svg id="_图层_1" xmlns="http://www.w3.org/2000/svg" version="1.1" viewBox="0 0 64 64" width="24" height="24">
  <!-- Generator: Adobe Illustrator 29.0.1, SVG Export Plug-In . SVG Version: 2.1.0 Build 192)  -->
  <defs>
    <style>
      .st0, .st1 {
        isolation: isolate;
        opacity: .2;
      }

      .st0, .st1, .st2 {
        display: none;
      }

      .st3 {
        fill: #188eee;
      }

      .st1 {
        fill: #fff;
      }

      .st2, .st4 {
        fill: #e4e4e4;
      }

      .st5 {
        opacity: .1;
      }
    </style>
  </defs>
  <path class="st4" d="M50.4,64H13.8c-7.6,0-13.8-6.2-13.8-13.7V13.7C0,6.2,6.2,0,13.7,0h36.5c7.5,0,13.7,6.2,13.7,13.7v36.6c0,7.5-6.2,13.7-13.7,13.7h.1Z"/>
  <g>
    <ellipse class="st0" cx="32" cy="32.9" rx="31.6" ry="31.8"/>
    <ellipse class="st2" cx="32" cy="31.8" rx="31.6" ry="31.8"/>
    <g class="st5">
      <path d="M32,12.5c-4.4,0-7.9,3.6-7.9,7.9s3.5,7.9,7.9,7.9,7.9-3.6,7.9-7.9-3.5-7.9-7.9-7.9Z"/>
      <path d="M32,34c-15.8,0-15.8,10.1-15.8,10.1v4.1s2.9,6.3,15.8,6.3,15.8-6.3,15.8-6.3v-4.1s0-10.1-15.8-10.1h0Z"/>
    </g>
    <path class="st3" d="M32,11.3c-4.4,0-7.9,3.6-7.9,7.9s3.5,7.9,7.9,7.9,7.9-3.6,7.9-7.9-3.5-7.9-7.9-7.9Z"/>
    <path class="st3" d="M32,32.9c-15.8,0-15.8,10.1-15.8,10.1v4.1s2.9,6.3,15.8,6.3,15.8-6.3,15.8-6.3v-4.1s0-10.1-15.8-10.1h0Z"/>
    <path class="st1" d="M32,0C14.6,0,.4,14.2.4,31.8c0,.2,0,.4,0,.6C.7,15,14.8,1.1,32,1.1c17.2,0,31.3,13.9,31.6,31.2,0-.2,0-.4,0-.6C63.6,14.2,49.5,0,32,0Z"/>
  </g>
</svg>