<?xml version="1.0" encoding="UTF-8"?>
<svg id="_图层_1" data-name="图层_1" xmlns="http://www.w3.org/2000/svg" version="1.1" viewBox="0 0 64 64" width="24" height="24">
  <!-- Generator: Adobe Illustrator 29.0.1, SVG Export Plug-In . SVG Version: 2.1.0 Build 192)  -->
  <defs>
    <style>
      .st0 {
        fill: #0780da;
      }

      .st1 {
        opacity: .2;
      }

      .st1, .st2 {
        isolation: isolate;
      }

      .st3 {
        fill: #f7f7f7;
      }

      .st2 {
        fill: #fff;
        opacity: .1;
      }
    </style>
  </defs>
  <rect class="st3" x=".8" y=".4" width="62.8" height="62.8" rx="13.1" ry="13.1"/>
  <path class="st1" d="M28.6,10.4c-2.6,0-4.7,2-4.7,4.6v4.6h-11c-1.7,0-3.1,1.4-3.1,3.1v9.2h4.7c2.6,0,4.7,2,4.7,4.6s-2.1,4.6-4.7,4.6h-4.7v10.7c0,1.7,1.4,3.1,3.1,3.1h11v-3.1c0-2.5,2.1-4.6,4.7-4.6s4.7,2,4.7,4.6v3.1h9.4c1.7,0,3.1-1.4,3.1-3.1v-10.7h4.7c2.6,0,4.7-2,4.7-4.6s-2.1-4.6-4.7-4.6h-4.7v-9.2c0-1.7-1.4-3.1-3.1-3.1h-9.4v-4.6c0-2.5-2.1-4.6-4.7-4.6Z"/>
  <path class="st0" d="M28.6,9.6c-2.6,0-4.7,2-4.7,4.6v4.6h-11c-1.7,0-3.1,1.4-3.1,3.1v9.2h4.7c2.6,0,4.7,2,4.7,4.6s-2.1,4.6-4.7,4.6h-4.7v10.7c0,1.7,1.4,3.1,3.1,3.1h11v-3.1c0-2.5,2.1-4.6,4.7-4.6s4.7,2,4.7,4.6v3.1h9.4c1.7,0,3.1-1.4,3.1-3.1v-10.7h4.7c2.6,0,4.7-2,4.7-4.6s-2.1-4.6-4.7-4.6h-4.7v-9.2c0-1.7-1.4-3.1-3.1-3.1h-9.4v-4.6c0-2.5-2.1-4.6-4.7-4.6Z"/>
  <path class="st2" d="M28.6,9.6c-2.6,0-4.7,2-4.7,4.6v.8c0-2.5,2.1-4.6,4.7-4.6s4.7,2,4.7,4.6v-.8c0-2.5-2.1-4.6-4.7-4.6ZM12.8,18.8c-1.7,0-3.1,1.4-3.1,3.1v.8c0-1.7,1.4-3.1,3.1-3.1h11v-.8h-11ZM33.3,18.8v.8h9.4c1.7,0,3.1,1.4,3.1,3.1v-.8c0-1.7-1.4-3.1-3.1-3.1h-9.4ZM45.9,31v.8h4.7c2.5,0,4.5,1.8,4.7,4.2,0-.1,0-.2,0-.4,0-2.5-2.1-4.6-4.7-4.6h-4.7ZM19,36.4c-.4,2.2-2.3,3.8-4.6,3.8h-4.7v.8h4.7c2.3,0,4.3-1.7,4.6-3.8,0,.1,0,.3,0,.4,0-.1,0-.3,0-.4,0-.3,0-.5,0-.8Z"/>
</svg>
