<?xml version="1.0" encoding="UTF-8"?>
<svg id="_图层_1" xmlns="http://www.w3.org/2000/svg" version="1.1" viewBox="0 0 64 64" width="24" height="24">
  <!-- Generator: Adobe Illustrator 29.0.1, SVG Export Plug-In . SVG Version: 2.1.0 Build 192)  -->
  <defs>
    <style>
      .st0 {
        fill: #ffca58;
      }

      .st1, .st2 {
        fill: #4f4f4f;
      }

      .st3, .st4, .st5 {
        isolation: isolate;
      }

      .st3, .st5 {
        opacity: .1;
      }

      .st4 {
        opacity: .2;
      }

      .st6, .st2 {
        display: none;
      }

      .st7 {
        fill: #e4e4e4;
      }

      .st8 {
        fill: #ee5353;
      }

      .st5 {
        fill: #fff;
      }
    </style>
  </defs>
  <path class="st7" d="M50.4,64H13.8c-7.6,0-13.8-6.2-13.8-13.7V13.7C0,6.2,6.2,0,13.7,0h36.5c7.5,0,13.7,6.2,13.7,13.7v36.6c0,7.5-6.2,13.7-13.7,13.7h.1Z"/>
  <g class="st6">
    <path class="st4" d="M17.6,9.6c-7,0-12.2,5.5-12.6,12.3l-1.4,26c-.9,5.1,4.2,8.3,8.4,2.7l7.5-11.1h23s8.6,11.4,8.6,11.4c4.2,5.5,8.9,1,8.4-2.8l-1.4-25.9c0-.1,0-.3,0-.4,0-6.8-5.6-12.3-12.6-12.3h-27.9,0Z"/>
    <path class="st1" d="M17.6,8.6c-7,0-12.2,5.5-12.6,12.3l-1.4,26c-.9,5.1,4.2,8.3,8.4,2.7l7.5-11.1h23s8.6,11.4,8.6,11.4c4.2,5.5,8.9,1,8.4-2.8l-1.4-25.9c0-.1,0-.3,0-.4,0-6.8-5.6-12.3-12.6-12.3h-27.9,0Z"/>
    <path class="st4" d="M15.6,15.6v4h-4v4h4v4h4v-4h4v-4h-4v-4h-4ZM45.6,15.6c-1.1,0-2,.9-2,2s.9,2,2,2,2-.9,2-2-.9-2-2-2ZM41.6,19.6c-1.1,0-2,.9-2,2s.9,2,2,2,2-.9,2-2-.9-2-2-2ZM49.6,19.6c-1.1,0-2,.9-2,2s.9,2,2,2,2-.9,2-2-.9-2-2-2ZM45.6,23.6c-1.1,0-2,.9-2,2s.9,2,2,2c1.1,0,2-.9,2-2h0c0-1.1-.9-2-2-2h0Z"/>
    <path class="st7" d="M15.6,14.6v4h-4v4h4v4h4v-4h4v-4h-4v-4h-4Z"/>
    <path class="st8" d="M45.6,14.6c-1.1,0-2,.9-2,2s.9,2,2,2,2-.9,2-2-.9-2-2-2Z"/>
    <path class="st8" d="M41.6,18.6c-1.1,0-2,.9-2,2s.9,2,2,2,2-.9,2-2-.9-2-2-2Z"/>
    <path class="st0" d="M49.6,18.6c-1.1,0-2,.9-2,2s.9,2,2,2,2-.9,2-2-.9-2-2-2Z"/>
    <path class="st0" d="M45.6,22.6c-1.1,0-2,.9-2,2s.9,2,2,2,2-.9,2-2-.9-2-2-2Z"/>
    <path class="st5" d="M17.6,8.6c-7,0-12.2,5.5-12.6,12.3l-1.4,26c0,.6,0,1.1,0,1.6,0-.2,0-.4,0-.6l1.4-26c.4-6.8,5.6-12.3,12.6-12.3h27.9c6.8,0,12.3,5.2,12.5,11.8,0-.2,0-.3,0-.5,0-6.8-5.6-12.3-12.6-12.3h-27.9Z"/>
  </g>
  <g class="st6">
    <path class="st2" d="M3.2,6.2h57.4c1.8,0,3.2,1.5,3.2,3.3v42.8c0,1.8-1.4,3.3-3.2,3.3H3.2c-1.8,0-3.2-1.5-3.2-3.3V9.5C0,7.7,1.4,6.2,3.2,6.2Z"/>
    <ellipse class="st7" cx="7.9" cy="18.5" rx="4" ry="4.1"/>
    <ellipse class="st7" cx="19.9" cy="18.5" rx="4" ry="4.1"/>
    <ellipse class="st7" cx="31.9" cy="18.5" rx="4" ry="4.1"/>
    <ellipse class="st7" cx="43.8" cy="18.5" rx="4" ry="4.1"/>
    <ellipse class="st7" cx="55.8" cy="18.5" rx="4" ry="4.1"/>
    <ellipse class="st7" cx="15.9" cy="30.9" rx="4" ry="4.1"/>
    <ellipse class="st7" cx="27.9" cy="30.9" rx="4" ry="4.1"/>
    <ellipse class="st7" cx="39.8" cy="30.9" rx="4" ry="4.1"/>
    <ellipse class="st7" cx="51.8" cy="30.9" rx="4" ry="4.1"/>
    <path class="st7" d="M9.9,43.2h43.8c1.1,0,2,.9,2,2.1v4.1c0,1.1-.9,2.1-2,2.1H9.9c-1.1,0-2-.9-2-2.1v-4.1c0-1.1.9-2.1,2-2.1Z"/>
  </g>
  <g>
    <path class="st4" d="M31.6,4.5s0,0,0,0h0c-9,0-17.9,9.4-17.9,16.3v23.1c0,9.5,6.7,16.6,18,16.6,11.2,0,18-7.1,18-16.6v-22.4c0-7.3-9-16.9-18-17h0Z"/>
    <path class="st1" d="M31.6,3.5s0,0,0,0h0c-9,0-17.9,9.4-17.9,16.3v23.1c0,9.5,6.7,16.6,18,16.6,11.2,0,18-7.1,18-16.6v-22.4c0-7.3-9-16.9-18-17h0Z"/>
    <path class="st3" d="M31.6,3.5s0,0,0,0h0c-9,0-17.9,9.4-17.9,16.3v11.7h36v-11c0-7.3-9-16.9-18-17h0Z"/>
    <path class="st3" d="M31.6,3.5s0,0,0,0h0c-9,0-17.9,9.4-17.9,16.3v11.7h18s0-28,0-28h0Z"/>
    <path class="st4" d="M31.6,11.5c1.7,0,3,1.2,3,2.8v7.4c0,1.5-1.3,2.8-3,2.8s-3-1.2-3-2.8v-7.4c0-1.5,1.3-2.8,3-2.8"/>
    <path class="st7" d="M31.6,10.5c1.7,0,3,1.2,3,2.8v7.4c0,1.5-1.3,2.8-3,2.8s-3-1.2-3-2.8v-7.4c0-1.5,1.3-2.8,3-2.8"/>
    <path class="st5" d="M31.6,3.5s0,0,0,0h0c-9,0-17.9,9.4-17.9,16.3v1c0-7,8.9-16.3,17.9-16.3h0s0,0,0,0h0c9,0,18,9.7,18,17v-1c0-7.3-9-16.9-18-17h0Z"/>
  </g>
</svg>
