<?xml version="1.0" encoding="UTF-8"?>
<svg id="_图层_1" xmlns="http://www.w3.org/2000/svg" version="1.1" viewBox="0 0 64 64" width="24" height="24">
  <!-- Generator: Adobe Illustrator 29.0.1, SVG Export Plug-In . SVG Version: 2.1.0 Build 192)  -->
  <defs>
    <style>
      .st0, .st1, .st2, .st3, .st4 {
        display: none;
      }

      .st0, .st1, .st5, .st6, .st7, .st4, .st8 {
        isolation: isolate;
      }

      .st0, .st5, .st7, .st4 {
        opacity: .2;
      }

      .st1, .st9, .st7, .st4, .st8 {
        fill: #fff;
      }

      .st1, .st8 {
        opacity: .1;
      }

      .st10 {
        fill: #3f3f3f;
      }

      .st11 {
        fill: none;
        stroke: #7c7c7c;
        stroke-linecap: round;
        stroke-width: 4.2px;
      }

      .st12 {
        fill: #f3af3f;
      }

      .st13 {
        fill: #b3e5fc;
      }

      .st2 {
        fill: #950000;
      }

      .st14 {
        fill: #4c6378;
      }

      .st15 {
        fill: #ffd517;
      }

      .st6 {
        opacity: .5;
      }

      .st16 {
        fill: #2297fd;
      }
    </style>
  </defs>
  <path class="st9" d="M50.4,64H13.8c-7.6,0-13.8-6.2-13.8-13.7V13.7C0,6.2,6.2,0,13.7,0h36.6c7.5,0,13.7,6.2,13.7,13.7v36.6c0,7.5-6.2,13.7-13.7,13.7h.1Z"/>
  <g class="st3">
    <path class="st0" d="M3.2,1.1h57.6c1.8,0,3.2,1.4,3.2,3.2v57.6c0,1.8-1.4,3.2-3.2,3.2H3.2c-1.8,0-3.2-1.4-3.2-3.2V4.3C0,2.6,1.4,1.1,3.2,1.1Z"/>
    <path class="st2" d="M3.2,0h57.6c1.8,0,3.2,1.4,3.2,3.2v57.6c0,1.8-1.4,3.2-3.2,3.2H3.2c-1.8,0-3.2-1.4-3.2-3.2V3.2C0,1.4,1.4,0,3.2,0Z"/>
    <path class="st5" d="M25.8,10.3l-20.4.6,20.4.6v-1.1ZM28,10.3v1.1c1.4,0,2.4.3,3.1,1,.7.7,1.5,1.9,2.3,3.8l7.7,17.6-8.7,17.2c-.7,1.5-1.4,2.4-2.1,3-.7.6-1.5.9-2.4.9v1.1h9.4v-1.1c-2,0-3-.7-3-2.1s.3-1.7,1-2.8l7-13.6,6.1,13.6c.6,1.5.9,2.5.9,3.1s-.2,1.1-.7,1.4c-.5.3-1.3.4-2.4.4v1.1h12.4v-1.1c-.9,0-1.7-.4-2.4-1-.7-.7-1.5-2-2.3-3.8l-8.7-19.5,6.9-13.4c1.4-2.6,2.3-4.3,3-4.9.7-.6,1.7-.9,3.1-.9v-1.1h-10.4v1.1c1.1,0,2,.2,2.4.5.4.3.7.8.7,1.6s-.2,1.3-.6,2.5l-6.3,12.1-5.3-12.1c-.4-.9-.6-1.7-.6-2.4,0-1.4,1-2.1,3.1-2.1v-1.1h-13.3ZM25.8,13.1l-20.4.5,24.2.7h0s0,0,0,0h0s0,0,0,0h0s0,0,0,0h0s-.1,0-.1,0h-.1s0,0,0,0h-.1s-.1,0-.1,0h-.1s-.1,0-.1,0h-2.6s0-.8,0-.8ZM30.6,15.7l-25.2.7,25.9.7h0c0-.1-.1-.4-.1-.4v-.3c-.1,0-.3-.3-.3-.3v-.3c-.1,0-.2-.2-.2-.2ZM31.8,18.5l-26.5.7,27.1.7-.7-1.5ZM33,21.3l-27.7.7,28.3.8-.7-1.5ZM34.3,24l-28.9.8,29.6.8-.7-1.6ZM35.5,26.8l-30.1.8,30.8.8-.7-1.7ZM36.7,29.5l-31.3.8,32.1.9-.8-1.7ZM37.9,32.3l-32.5.9,33.1.9v-.2c.1,0-.6-1.5-.6-1.5ZM38,35l-32.6.9,31.7.9.9-1.8ZM36.5,37.9l-31.2.8,30.3.8.8-1.7ZM35.1,40.7l-29.7.8,28.9.8.8-1.6ZM33.7,43.5l-28.3.8,27.5.7.8-1.5ZM32.2,46.3l-26.9.7,26.2.7.7-1.4ZM30.8,49.2l-25.5.7,24.8.7v-.2c0,0,.2-.2.2-.2v-.2c.1,0,.5-.7.5-.7ZM29.1,52l-23.8.7,20.4.5v-.7h2.3s0,0,0,0h.1s0,0,0,0h.1s0,0,0,0h0s0,0,0,0h0s0,0,0,0h0s0,0,0,0h0c0,0,0-.1,0-.1h0c0,0,0-.1,0-.1h0ZM25.8,54.9l-20.4.6,20.4.6v-1.1Z"/>
    <path class="st9" d="M25.8,9.1l-20.4.6,20.4.6v-1.1ZM28,9.1v1.1c1.4,0,2.4.3,3.1,1,.7.7,1.5,1.9,2.3,3.8l7.7,17.6-8.7,17.2c-.7,1.5-1.4,2.4-2.1,3-.7.6-1.5.9-2.4.9v1.1h9.4v-1.1c-2,0-3-.7-3-2.1s.3-1.7,1-2.8l7-13.6,6.1,13.6c.6,1.5.9,2.5.9,3.1s-.2,1.1-.7,1.4c-.5.3-1.3.4-2.4.4v1.1h12.4v-1.1c-.9,0-1.7-.4-2.4-1-.7-.7-1.5-2-2.3-3.8l-8.7-19.5,6.9-13.4c1.4-2.6,2.3-4.3,3-4.9.7-.6,1.7-.9,3.1-.9v-1.1h-10.4v1.1c1.1,0,2,.2,2.4.5.4.3.7.8.7,1.6s-.2,1.3-.6,2.5l-6.3,12.1-5.3-12.1c-.4-.9-.6-1.7-.6-2.4,0-1.4,1-2.1,3.1-2.1v-1.1h-13.3ZM25.8,12l-20.4.5,24.2.7h0s0,0,0,0h0s0,0,0,0h0s0,0,0,0h0s-.1,0-.1,0h-.1s0,0,0,0h-.1s-.1,0-.1,0h-.1s-.1,0-.1,0h-2.6s0-.8,0-.8ZM30.6,14.6l-25.2.7,25.9.7h0c0-.1-.1-.4-.1-.4v-.3c-.1,0-.3-.3-.3-.3v-.3c-.1,0-.2-.2-.2-.2ZM31.8,17.3l-26.5.7,27.1.7-.7-1.5ZM33,20.1l-27.7.7,28.3.8-.7-1.5ZM34.3,22.9l-28.9.8,29.6.8-.7-1.6ZM35.5,25.6l-30.1.8,30.8.8-.7-1.7ZM36.7,28.4l-31.3.8,32.1.9-.8-1.7ZM37.9,31.1l-32.5.9,33.1.9v-.2c.1,0-.6-1.5-.6-1.5ZM38,33.9l-32.6.9,31.7.9.9-1.8ZM36.5,36.7l-31.2.8,30.3.8.8-1.7ZM35.1,39.5l-29.7.8,28.9.8.8-1.6ZM33.7,42.4l-28.3.8,27.5.7.8-1.5ZM32.2,45.2l-26.9.7,26.2.7.7-1.4ZM30.8,48l-25.5.7,24.8.7v-.2c0,0,.2-.2.2-.2v-.2c.1,0,.5-.7.5-.7ZM29.1,50.9l-23.8.7,20.4.5v-.7h2.3s0,0,0,0h.1s0,0,0,0h.1s0,0,0,0h0s0,0,0,0h0s0,0,0,0h0s0,0,0,0h0c0,0,0-.1,0-.1h0c0,0,0-.1,0-.1h0ZM25.8,53.7l-20.4.6,20.4.6v-1.1Z"/>
    <path class="st4" d="M3.2,0C1.4,0,0,1.4,0,3.2v1.1C0,2.6,1.4,1.1,3.2,1.1h57.6c1.8,0,3.2,1.4,3.2,3.2v-1.1c0-1.8-1.4-3.2-3.2-3.2H3.2Z"/>
  </g>
  <g class="st3">
    <path class="st10" d="M61.5,43.7v-23.7c0-9.8-8-17.7-17.8-17.7h-23.7C10.2,2.3,2.3,10.2,2.3,20v23.7c0,9.8,8,17.7,17.8,17.7h23.7c9.8,0,17.8-7.9,17.8-17.7Z"/>
    <path class="st0" d="M19.1,1.1C8.5,1.1,0,9.7,0,20.2v25.5c0,10.6,8.5,19.1,19.1,19.1h25.5c10.6,0,19.1-8.5,19.1-19.1v-25.5c0-10.6-8.5-19.1-19.1-19.1h-25.5ZM19.1,10.2h25.5c5.7,0,10,4.3,10,10v25.5c0,5.7-4.3,10-10,10h-25.5c-5.7,0-10-4.3-10-10v-25.5c0-5.7,4.3-10,10-10Z"/>
    <path class="st8" d="M19.1,0C8.5,0,0,8.5,0,19.1v1.6C0,10.1,8.5,1.6,19.1,1.6h25.5c10.6,0,19.1,8.5,19.1,19.1v-1.6C63.8,8.5,55.3,0,44.7,0h-25.5Z"/>
    <ellipse class="st15" cx="13.3" cy="50.4" rx="7.2" ry="7.2"/>
    <ellipse class="st5" cx="45.6" cy="28.4" rx="6.8" ry="6.8"/>
    <ellipse class="st15" cx="45.6" cy="27.3" rx="6.8" ry="6.8"/>
    <path class="st11" d="M18.5,46.5l8.3-6.2"/>
    <path class="st11" d="M35.8,34l6.9-4.6"/>
    <ellipse class="st5" cx="31.9" cy="37.5" rx="9.1" ry="9.1"/>
    <ellipse class="st13" cx="31.9" cy="36.4" rx="9.1" ry="9.1"/>
    <path class="st11" d="M21.6,12.5l6.2,15.4"/>
    <path class="st14" d="M19.1,0C8.5,0,0,8.5,0,19.1v25.5c0,10.6,8.5,19.1,19.1,19.1h25.5c10.6,0,19.1-8.5,19.1-19.1v-25.5C63.8,8.5,55.3,0,44.7,0h-25.5ZM19.1,9.1h25.5c5.7,0,10,4.3,10,10v25.5c0,5.7-4.3,10-10,10h-25.5c-5.7,0-10-4.3-10-10v-25.5c0-5.7,4.3-10,10-10Z"/>
    <path class="st1" d="M19.1,0C8.5,0,0,8.5,0,19.1v1.1C0,9.7,8.5,1.1,19.1,1.1h25.5c10.6,0,19.1,8.5,19.1,19.1v-1.1C63.8,8.5,55.3,0,44.7,0h-25.5ZM9.1,44.6v1.1c0,5.7,4.3,10,10,10h25.5c5.7,0,10-4.3,10-10v-1.1c0,5.7-4.3,10-10,10h-25.5c-5.7,0-10-4.3-10-10Z"/>
    <ellipse class="st5" cx="21.6" cy="13.6" rx="8" ry="8"/>
    <ellipse class="st15" cx="21.6" cy="12.5" rx="8" ry="8"/>
    <ellipse class="st5" cx="49" cy="52.3" rx="8" ry="8"/>
    <ellipse class="st15" cx="49" cy="51.2" rx="8" ry="8"/>
    <path class="st7" d="M21.6,4.5c-4.4,0-8,3.6-8,8,0,.2,0,.3,0,.5.3-4.1,3.8-7.3,7.9-7.3,4.2,0,7.6,3.2,7.9,7.4,0-.2,0-.4,0-.6,0-4.4-3.6-8-8-8ZM45.6,20.5c-3.8,0-6.8,3.1-6.8,6.8,0,.2,0,.4,0,.6.3-3.5,3.3-6.2,6.8-6.2,3.6,0,6.5,2.7,6.8,6.3,0-.2,0-.4,0-.6,0-3.8-3.1-6.8-6.8-6.8ZM49,43.2c-4.4,0-8,3.6-8,8,0,.2,0,.3,0,.5.3-4.1,3.8-7.3,7.9-7.3,4.2,0,7.6,3.2,7.9,7.4,0-.2,0-.4,0-.6,0-4.4-3.6-8-8-8Z"/>
    <path class="st11" d="M37.7,41.9l5.6,4.6"/>
  </g>
  <g>
    <path class="st16" d="M10.8,21.9h29.1c1.3,0,2.4,1.1,2.4,2.4v28.4c0,1.3-1.1,2.4-2.4,2.4H10.8c-1.3,0-2.4-1.1-2.4-2.4v-28.4c0-1.3,1.1-2.4,2.4-2.4Z"/>
    <path class="st5" d="M28.3,46.3h-7.5l-1.2,3.2h-4.8l6.9-18.9h5.7l6.9,18.9h-4.8l-1.2-3.2h0ZM22,42.4h5.1l-2.5-7.4-2.5,7.4Z"/>
    <path class="st9" d="M28.3,45.5h-7.5l-1.2,3.2h-4.8l6.9-18.9h5.7l6.9,18.9h-4.8l-1.2-3.2h0ZM22,41.6h5.1l-2.5-7.4-2.5,7.4Z"/>
    <path class="st7" d="M10.8,21.9c-1.3,0-2.4,1.1-2.4,2.4v.8c0-1.3,1.1-2.4,2.4-2.4h29.1c1.3,0,2.4,1.1,2.4,2.4v-.8c0-1.3-1.1-2.4-2.4-2.4H10.8Z"/>
    <path class="st12" d="M25.4,7.7h29.1c1.3,0,2.4,1.1,2.4,2.4v28.4c0,1.3-1.1,2.4-2.4,2.4h-29.1c-1.3,0-2.4-1.1-2.4-2.4V10c0-1.3,1.1-2.4,2.4-2.4Z"/>
    <path class="st5" d="M32.6,16.3v18.9h8.4c2.6,0,4.6-.4,5.8-1.3,1.3-.9,1.9-2.3,1.9-4.1s-.3-2.2-.9-3c-.6-.8-1.4-1.5-2.5-1.8.9-.3,1.5-.7,1.9-1.3.4-.7.7-1.4.7-2.4,0-1.8-.6-3-1.8-3.8-1.2-.8-3.2-1.2-5.9-1.2h-7.6ZM37.5,19.5h2.6c.7,0,1.3.2,1.7.5.4.3.6.8.6,1.5s-.2,1.1-.6,1.5c-.4.3-.9.5-1.7.5h-2.6v-3.9ZM37.5,27.4h2.8c1,0,1.7.2,2.2.6.5.4.7,1,.7,1.8s-.2,1.4-.7,1.8c-.5.4-1.2.6-2.1.6h-2.8v-4.7Z"/>
    <path class="st9" d="M32.6,15.5v18.9h8.4c2.6,0,4.6-.4,5.8-1.3,1.3-.9,1.9-2.3,1.9-4.1s-.3-2.2-.9-3c-.6-.8-1.4-1.5-2.5-1.8.9-.3,1.5-.7,1.9-1.3.4-.7.7-1.4.7-2.4,0-1.8-.6-3-1.8-3.8-1.2-.8-3.2-1.2-5.9-1.2h-7.6ZM37.5,18.7h2.6c.7,0,1.3.2,1.7.5.4.3.6.8.6,1.5s-.2,1.1-.6,1.5c-.4.3-.9.5-1.7.5h-2.6v-3.9ZM37.5,26.6h2.8c1,0,1.7.2,2.2.6.5.4.7,1,.7,1.8s-.2,1.4-.7,1.8c-.5.4-1.2.6-2.1.6h-2.8v-4.7Z"/>
    <path class="st7" d="M25.4,7.7c-1.3,0-2.4,1.1-2.4,2.4v.8c0-1.3,1.1-2.4,2.4-2.4h29.1c1.3,0,2.4,1.1,2.4,2.4v-.8c0-1.3-1.1-2.4-2.4-2.4h-29.1Z"/>
    <path class="st5" d="M8.4,52.6v.8c0,1.3,1.1,2.4,2.4,2.4h29.1c1.3,0,2.4-1.1,2.4-2.4v-.8c0,1.3-1.1,2.4-2.4,2.4H10.8c-1.3,0-2.4-1.1-2.4-2.4Z"/>
    <path class="st6" d="M23,38.4v.8c0,1.3,1.1,2.4,2.4,2.4h29.1c1.3,0,2.4-1.1,2.4-2.4v-.8c0,1.3-1.1,2.4-2.4,2.4h-29.1c-1.3,0-2.4-1.1-2.4-2.4Z"/>
  </g>
</svg>