<?xml version="1.0" encoding="UTF-8"?>
<svg id="_图层_1" data-name="图层_1" xmlns="http://www.w3.org/2000/svg" version="1.1" viewBox="0 0 128 128" width="24" height="24">
  <!-- Generator: Adobe Illustrator 29.0.1, SVG Export Plug-In . SVG Version: 2.1.0 Build 192)  -->
  <defs>
    <style>
      .st0 {
        fill: #008b00;
      }

      .st1 {
        fill: #67da25;
      }

      .st2 {
        fill: #4cdb5d;
      }

      .st3, .st4, .st5, .st6, .st7, .st8 {
        isolation: isolate;
      }

      .st3, .st5, .st6, .st7 {
        opacity: .2;
      }

      .st3, .st9, .st7 {
        display: none;
      }

      .st10, .st6, .st7, .st8 {
        fill: #fff;
      }

      .st4, .st8 {
        opacity: .1;
      }

      .st11 {
        fill: #31ae3e;
      }

      .st12 {
        fill: #00cc5c;
      }
    </style>
  </defs>
  <rect class="st12" x=".6" y=".6" width="127.8" height="127.8" rx="25.9" ry="25.9"/>
  <g class="st9">
    <path class="st3" d="M27.7,27.8h77.5s4.5,0,4.5,4.4v57.3l-13,13.2H19.3s-4.5,0-4.5-4.4v-57.3l13-13.2Z"/>
    <path class="st12" d="M27.7,26.3h77.5s4.5,0,4.5,4.4v57.3l-13,13.2H19.3s-4.5,0-4.5-4.4v-57.3l13-13.2Z"/>
    <path class="st5" d="M74.9,45v9.4h-6.3v4.7h6.3v12.8c0,8.8,3.2,12.1,8.8,12.1h7v-6.2h-6.3c-3.1,0-3.2-2.1-3.2-6.5v-12.2h9.5v-4.7h-9.5v-9.4h-6.3ZM49.7,43.5c-12.6,0-15.9,7-15.9,20.2s3.3,20.4,15.9,20.4h3.6l5.2,8.8,6.1-2.2-4.9-8.8c4.7-2.2,5.8-9.3,5.8-18.2,0-13.2-3.2-20.2-15.7-20.2ZM49.6,49.7c7.7,0,9.5,5.5,9.5,14.5,0,9-1.7,13.6-9.5,13.6s-9.5-4.5-9.5-13.6,1.9-14.5,9.5-14.5Z"/>
    <path class="st10" d="M74.9,43.4v9.4h-6.3v4.7h6.3v12.8c0,8.8,3.2,12.1,8.8,12.1h7v-6.2h-6.3c-3.1,0-3.2-2.1-3.2-6.5v-12.2h9.5v-4.7h-9.5v-9.4h-6.3ZM49.7,42c-12.6,0-15.9,7-15.9,20.2s3.3,20.4,15.9,20.4h3.6l5.2,8.8,6.1-2.2-4.9-8.8c4.7-2.2,5.8-9.3,5.8-18.2,0-13.2-3.2-20.2-15.7-20.2ZM49.6,48.1c7.7,0,9.5,5.5,9.5,14.5,0,9-1.7,13.6-9.5,13.6s-9.5-4.5-9.5-13.6,1.9-14.5,9.5-14.5Z"/>
    <path class="st7" d="M27.7,26.3l-13,13.2v1.6l13-13.2h77.5s4.5,0,4.5,4.4v-1.6c0-4.4-4.5-4.4-4.5-4.4H27.7Z"/>
  </g>
  <g class="st9">
    <path class="st5" d="M31.8,28.6c-.8,0-1.6.4-2.2,1l-11.8,13c-.3.4-.6.9-.7,1.3h0c0,.3-.1.6-.1.9v49.6c0,3.2,2,5.8,3.8,6.7s3.4.9,3.4.9h70.4c.8,0,1.6-.4,2.2-1l11.8-13s0,0,0-.1c.2-.3.4-.6.6-1,0,0,0,0,0,0h0c.1-.3.2-.7.2-1.1v-49.6c0-3.2-2-5.8-3.8-6.7-1.8-.9-3.4-.9-3.4-.9H31.8Z"/>
    <path class="st2" d="M31.8,27c-.8,0-1.6.4-2.2,1l-11.8,13c-.5.6-.9,1.4-.9,2.2l9.1,24.7c1.1,3-4.7,24.2-3,25.2s9.3-4.2,9.3-4.2l57.2,2.3c.8,0,3.8-1.7,4.4-2.3l14.6-2.5c.5-.6.9-1.4.9-2.2v-49.6c0-3.2-2-5.8-3.8-6.7-1.8-.9-3.4-.9-3.4-.9H31.8Z"/>
    <path class="st11" d="M17.1,42.3c0,.3-.1.6-.1.9v49.6c0,3.2,2,5.8,3.8,6.7,1.8.9,3.4.9,3.4.9h70.4c.8,0,1.6-.4,2.2-1l11.8-13c.3-.3.5-.7.7-1.2L17.1,42.3Z"/>
    <path class="st4" d="M17.1,42.3c0,.3-.1.6-.1.9v1.7c0-.3,0-.6.1-.9l91.3,42.5h.1c.3-.5.5-.9.7-1.3L17.1,42.3Z"/>
    <path class="st5" d="M58.3,45.3l-11,40h6.9l2.4-10h13.3l2.4,10h6.9l-11-40h-9.9ZM63.2,52.3l4.8,16.4h-9.6l4.8-16.4Z"/>
    <path class="st10" d="M58.3,43.6l-11,40h6.9l2.4-10h13.3l2.4,10h6.9l-11-40h-9.9ZM63.2,50.6l4.8,16.4h-9.6l4.8-16.4Z"/>
    <path class="st6" d="M31.8,27c-.8,0-1.6.4-2.2,1l-11.8,13c-.5.6-.9,1.4-.9,2.2l.2.5c.1-.4.4-.8.7-1.1l11.8-13c.6-.6,1.4-1,2.2-1h70.4s1.7,0,3.4.9c1.8.9,3.8,3.4,3.8,6.7v-1.7c0-3.2-2-5.8-3.8-6.7-1.8-.9-3.4-.9-3.4-.9H31.8Z"/>
  </g>
  <g>
    <ellipse class="st5" cx="64.1" cy="65.3" rx="37.9" ry="38"/>
    <ellipse class="st0" cx="64.1" cy="63.9" rx="37.9" ry="38"/>
    <ellipse class="st5" cx="66.8" cy="62.5" rx="29.8" ry="29.9"/>
    <ellipse class="st10" cx="66.8" cy="61.2" rx="29.8" ry="29.9"/>
    <path class="st1" d="M58.7,43.5v35.3l29.8-17.7-29.8-17.7Z"/>
    <path class="st8" d="M64.1,25.9c-20.9,0-37.9,17-37.9,38,0,.2,0,.4,0,.7.4-20.7,17.2-37.3,37.8-37.3,20.5,0,37.3,16.4,37.8,37,0-.1,0-.2,0-.3,0-21-17-38-37.9-38Z"/>
  </g>
</svg>