<?xml version="1.0" encoding="UTF-8" standalone="no"?>
<svg
   id="_图层_1"
   version="1.1"
   viewBox="0 0 64 64"
   width="24" height="24"
   sodipodi:docname="Safaribrowsers.svg"
   xml:space="preserve"
   inkscape:version="1.4 (e7c3feb100, 2024-10-09)"
   xmlns:inkscape="http://www.inkscape.org/namespaces/inkscape"
   xmlns:sodipodi="http://sodipodi.sourceforge.net/DTD/sodipodi-0.dtd"
   xmlns:xlink="http://www.w3.org/1999/xlink"
   xmlns="http://www.w3.org/2000/svg"
   xmlns:svg="http://www.w3.org/2000/svg"><sodipodi:namedview
     id="namedview26"
     pagecolor="#505050"
     bordercolor="#eeeeee"
     borderopacity="1"
     inkscape:showpageshadow="0"
     inkscape:pageopacity="0"
     inkscape:pagecheckerboard="0"
     inkscape:deskcolor="#505050"
     inkscape:zoom="10.6875"
     inkscape:cx="39.953216"
     inkscape:cy="32"
     inkscape:window-width="1920"
     inkscape:window-height="939"
     inkscape:window-x="0"
     inkscape:window-y="34"
     inkscape:window-maximized="1"
     inkscape:current-layer="_图层_1" /><!-- Generator: Adobe Illustrator 29.0.1, SVG Export Plug-In . SVG Version: 2.1.0 Build 192)  --><defs
     id="defs6"><linearGradient
       id="linearGradient27"
       inkscape:collect="always"><stop
         style="stop-color:#ffffff;stop-opacity:1;"
         offset="0"
         id="stop27" /><stop
         style="stop-color:#d2d2d2;stop-opacity:1;"
         offset="1"
         id="stop29" /></linearGradient><style
       id="style1">
      .st0 {
        fill-opacity: .5;
      }

      .st0, .st1, .st2, .st3, .st4, .st5, .st6, .st7 {
        fill: #fff;
      }

      .st8 {
        fill: #133c9a;
      }

      .st2, .st9 {
        display: none;
      }

      .st3 {
        fill-opacity: .2;
      }

      .st4 {
        fill-opacity: .9;
      }

      .st10 {
        fill: #3370ff;
      }

      .st11 {
        fill: url(#_未命名的渐变_3);
      }

      .st12 {
        fill: url(#_未命名的渐变);
      }

      .st5 {
        fill-opacity: .3;
      }

      .st6 {
        fill-opacity: 0;
      }

      .st7 {
        fill-opacity: .7;
      }

      .st13 {
        fill: #00d6b9;
      }

      .st14 {
        fill: url(#_未命名的渐变_2);
      }
    </style><radialGradient
       id="_未命名的渐变"
       data-name="未命名的渐变"
       cx="123.9"
       cy="-40.2"
       fx="123.9"
       fy="-40.2"
       r="59.4"
       gradientTransform="translate(-26.8 25.5) scale(.6 -.7)"
       gradientUnits="userSpaceOnUse"><stop
         offset="0"
         stop-color="#db202e"
         id="stop1" /><stop
         offset="1"
         stop-color="#e01b24"
         id="stop2" /></radialGradient><radialGradient
       id="_未命名的渐变_2"
       data-name="未命名的渐变 2"
       cx="67.6"
       cy="26.8"
       fx="67.6"
       fy="26.8"
       r="105.2"
       gradientTransform="translate(-26.6 25.3) scale(.6 -.7)"
       gradientUnits="userSpaceOnUse"><stop
         offset="0"
         stop-color="#ffb648"
         id="stop3" /><stop
         offset="1"
         stop-color="#ff7800"
         stop-opacity="0"
         id="stop4" /></radialGradient><radialGradient
       id="_未命名的渐变_3"
       data-name="未命名的渐变 3"
       cx="61.7"
       cy="18.6"
       fx="61.7"
       fy="18.6"
       r="68"
       gradientTransform="translate(-26.8 25.8) scale(.6 -.7)"
       gradientUnits="userSpaceOnUse"><stop
         offset="0"
         stop-color="#c64600"
         id="stop5" /><stop
         offset="1"
         stop-color="#a51d2d"
         id="stop6" /></radialGradient><linearGradient
       id="a"
       x1="132.55"
       x2="134.37"
       y1="111.67"
       y2="-105.3"
       xlink:href="#b"><stop
         offset="0"
         stop-color="#d2d2d2"
         id="stop1-6" /><stop
         offset=".53"
         stop-color="#f2f2f2"
         id="stop2-7" /><stop
         offset="1"
         stop-color="#fff"
         id="stop3-5" /></linearGradient><linearGradient
       id="b"
       gradientUnits="userSpaceOnUse" /><linearGradient
       id="c"
       x1="65.44"
       x2="67.4"
       y1="115.72"
       y2="17.14"
       xlink:href="#b"><stop
         offset="0"
         stop-color="#005ad5"
         id="stop4-3" /><stop
         offset=".16"
         stop-color="#0875f0"
         id="stop5-5" /><stop
         offset=".31"
         stop-color="#218cee"
         id="stop6-6" /><stop
         offset=".63"
         stop-color="#27a5f3"
         id="stop7" /><stop
         offset=".81"
         stop-color="#25aaf2"
         id="stop8" /><stop
         offset="1"
         stop-color="#21aaef"
         id="stop9" /></linearGradient><linearGradient
       id="d"
       x1="158.7"
       x2="176.28"
       y1="96.71"
       y2="79.53"
       xlink:href="#b"><stop
         offset="0"
         stop-color="#c72e24"
         id="stop10" /><stop
         offset="1"
         stop-color="#fd3b2f"
         id="stop11" /></linearGradient><filter
       id="e"
       class="b"
       x="-0.032727273"
       y="-0.032727273"
       width="1.0668182"
       height="1.0781818"><feFlood
         flood-opacity=".28"
         id="feFlood11" /><feComposite
         in2="SourceGraphic"
         operator="in"
         id="feComposite11" /><feGaussianBlur
         stdDeviation="3"
         id="feGaussianBlur11" /><feOffset
         dx=".3"
         dy="2.8"
         id="feOffset11" /><feComposite
         in="SourceGraphic"
         id="feComposite12" /></filter><filter
       id="f"
       class="b"
       x="-0.015552675"
       y="-0.015559878"
       width="1.0311053"
       height="1.0477911"><feFlood
         class="c"
         id="feFlood12" /><feComposite
         class="c"
         in2="SourceGraphic"
         operator="out"
         id="feComposite13" /><feGaussianBlur
         flood-opacity=".3"
         stdDeviation=".7"
         id="feGaussianBlur13" /><feOffset
         dy="1.8"
         id="feOffset13" /><feComposite
         in2="SourceGraphic"
         operator="atop"
         id="feComposite14" /></filter><filter
       id="g"
       class="b"
       x="-0.078110807"
       y="-0.089981689"
       width="1.1796851"
       height="1.2157119"><feFlood
         flood-opacity=".61"
         id="feFlood14" /><feComposite
         in2="SourceGraphic"
         operator="in"
         id="feComposite15" /><feGaussianBlur
         stdDeviation=".5"
         id="feGaussianBlur15" /><feOffset
         dx=".8"
         dy=".8"
         id="feOffset15" /><feComposite
         in="SourceGraphic"
         result="A"
         id="feComposite16" /><feColorMatrix
         values="0 0 0 -1 0 0 0 0 -1 0 0 0 0 -1 0 0 0 0 1 0"
         id="feColorMatrix16" /><feFlood
         flood-opacity=".4"
         id="feFlood16" /><feComposite
         in2="A"
         operator="in"
         id="feComposite17" /><feGaussianBlur
         stdDeviation="3.8"
         id="feGaussianBlur17" /><feOffset
         dx="2.3"
         dy="3.3"
         id="feOffset17" /><feComposite
         in="A"
         id="feComposite18" /></filter><filter
       id="h"
       width="1.0340171"
       height="1.0349402"
       x="-0.016500813"
       y="-0.016457363"><feGaussianBlur
         in="SourceAlpha"
         stdDeviation=".4"
         id="feGaussianBlur18" /><feOffset
         dx=".1"
         dy=".2"
         id="feOffset18" /><feComponentTransfer
         result="A"
         id="feComponentTransfer18"><feFuncA
           type="linear"
           id="feFuncA18" /></feComponentTransfer><feFlood
         flood-color="rgba(0,0,0,0.5)"
         id="feFlood18" /><feComposite
         in2="A"
         operator="in"
         id="feComposite19" /><feMerge
         id="feMerge20"><feMergeNode
           id="feMergeNode19" /><feMergeNode
           in="SourceGraphic"
           id="feMergeNode20" /></feMerge></filter><radialGradient
       id="i"
       cx="-69.88"
       cy="69.29"
       r="54.01"
       gradientTransform="matrix(0.9023,-0.01249,0.0377,2.7234,-9.44,-120.29)"
       xlink:href="#b"><stop
         offset="0"
         stop-color="#24a5f3"
         stop-opacity=".01"
         id="stop20" /><stop
         offset="1"
         stop-color="#1e8ceb"
         stop-opacity=".98"
         id="stop21" /></radialGradient><radialGradient
       id="j"
       cx="109.35"
       cy="13.76"
       r="93.08"
       gradientTransform="matrix(-0.01822,1.0922,-1.042,-0.01765,136.95,-115.33)"
       xlink:href="#b"><stop
         offset="0"
         stop-opacity="0"
         id="stop22" /><stop
         offset=".96"
         stop-color="#5488d6"
         stop-opacity="0"
         id="stop23" /><stop
         offset="1"
         stop-color="#5d96eb"
         id="stop24" /></radialGradient><linearGradient
       inkscape:collect="always"
       xlink:href="#linearGradient27"
       id="linearGradient28"
       x1="31.999996"
       y1="0.050005615"
       x2="31.999996"
       y2="64.050003"
       gradientUnits="userSpaceOnUse" /></defs><path
     class="st1"
     d="M47.5,64.1H13.8c-7.6,0-13.8-6.3-13.8-13.8V13.7C0,6.2,6.2,0,13.7,0h36.6c7.5,0,13.7,6.2,13.7,13.7v36.6c0,7.5-6.2,13.7-13.7,13.7h-2.9.1Z"
     id="path6"
     style="fill:url(#linearGradient28)" /><style
     id="style1-3">.b{color-interpolation-filters:srgb}.c{flood-opacity:.31}</style><g
     id="g27"
     transform="matrix(0.48118454,0,0,0.4738357,-94.166965,-90.450188)"
     style="display:inline"><g
       filter="url(#f)"
       transform="translate(194.2,190.07)"
       id="g25"><ellipse
         cx="67.769997"
         cy="67.730003"
         fill="url(#c)"
         paint-order="stroke fill markers"
         rx="54.009998"
         ry="53.98"
         id="ellipse24"
         style="fill:url(#c)" /><ellipse
         cx="-69.879997"
         cy="69.290001"
         fill="url(#i)"
         rx="54.009998"
         ry="53.98"
         transform="translate(137.65,-1.55)"
         id="ellipse25"
         style="fill:url(#i)" /></g><ellipse
       cx="120"
       cy="14.15"
       fill="url(#j)"
       rx="93.080002"
       ry="93.669998"
       transform="matrix(0.58082,0,0,0.57636,192.3,249.63)"
       id="ellipse26"
       style="fill:url(#j)" /><g
       filter="url(#g)"
       transform="matrix(0.58289,0,0,0.56508,196.8,181.63)"
       id="g29"><path
         fill="#cac7c8"
         d="m 46,191.66 0.73,0.35 72.18,-48.2 -7.34,-8.95 z"
         id="path26-2" /><path
         fill="#fbfffc"
         d="m 45.8,190.87 0.2,0.8 65.57,-56.8 -6.95,-8.92 -58.83,64.92 z"
         id="path27" /><path
         fill="url(#d)"
         d="m 118.91,143.81 -7.35,-8.95 66.08,-57.2 0.27,0.73 z"
         id="path28"
         style="fill:url(#d)" /><path
         fill="#fb645c"
         d="m 104.62,125.95 6.94,8.92 66.08,-57.2 -0.65,-0.35 z"
         id="path29" /></g><path
       stroke="#ffffff"
       stroke-linecap="round"
       stroke-miterlimit="1"
       stroke-width="1.33"
       d="m 286.59,278.44 3.14,-2.14 m -11.23,-17.8 7.8,-1.37 m -8.32,-2.9 3.78,-0.3 m -3.3,-12.47 7.8,1.38 m -8.2,3.03 3.76,0.38 m -1.2,-13.05 7.47,2.73 m -3.77,-10.5 6.86,3.96 m -1.87,-10.96 6.07,5.09 m 0.05,-11.07 5.09,6.07 m 1.97,-10.99 3.97,6.86 m 3.7,-10.53 2.71,7.43 m 5.62,-9.62 1.37,7.8 m 15.62,-7.89 -1.38,7.8 m 9.82,-5.6 -2.72,7.42 m 10.5,-3.75 -3.96,6.86 m 10.98,-1.89 -5.12,6.07 m 16.18,6.96 -6.87,3.96 m 10.45,3.88 -7.45,2.7 m 9.64,5.6 -7.82,1.38 m 7.81,15.79 -7.82,-1.39 m 5.6,9.7 -7.44,-2.71 m 3.8,10.47 -6.87,-3.95 m 1.91,10.98 -6.07,-5.07 m -0.05,11.2 -5.1,-6.08 m -1.95,10.99 -4,-6.88 m -3.87,10.5 -2.7,-7.43 m -5.61,9.61 -1.37,-7.78 m -15.78,7.75 1.4,-7.86 m -9.7,5.58 2.72,-7.47 m -10.5,3.73 3.97,-6.87 m -10.96,1.9 5.08,-6.03 m -8.26,3.13 2.75,-2.68 m 3.84,8.23 2.2,-3.1 m 5.2,7.44 1.66,-3.45 m 6.43,6.47 1.02,-3.7 m 7.52,5.32 0.43,-3.82 m 8.08,3.8 -0.31,-3.84 m 8.81,2.33 -0.97,-3.69 m 9.06,0.75 -1.58,-3.48 m 9.05,-0.76 -2.16,-3.18 m 8.78,-2.38 -2.68,-2.73 m 8.24,-3.85 -3.11,-2.2 m 7.42,-5.2 -3.47,-1.67 m 6.42,-6.41 -3.7,-1.03 m 5.17,-7.46 -3.78,-0.37 m 3.8,-8.24 -3.81,0.3 m 2.35,-8.8 -3.7,0.97 m 0.8,-9.06 -3.49,1.61 m -1.03,-9.12 -3.2,2.2 m -2.12,-8.62 -2.72,2.7 m -3.84,-8.28 -2.23,3.12 m -5.21,-7.45 -1.66,3.44 m -6.55,-6.32 -1.02,3.63 m -7.42,-5.2 -0.38,3.81 m -8.09,-3.66 0.28,3.8 m -8.79,-2.34 0.95,3.68 m -8.9,-0.72 1.61,3.46 m -9.06,0.82 2.18,3.16 m -8.82,2.27 2.68,2.7 m -8.25,3.85 3.1,2.23 m -7.44,5.17 3.42,1.66 m -6.3,6.36 3.7,1.05 m -3.71,24.39 3.7,-0.91 m -2.44,5.03 7.48,-2.72 m -5.86,6.73 3.5,-1.61 m -1.53,5.43 6.87,-3.95 m -13.33,-20.52 7.96,0.01 m 41.16,-41.44 v -7.96 m 0.02,98.74 0.01,-7.94 m 49.33,-41.4 -7.95,-0.01"
       filter="url(#h)"
       transform="translate(-65,7.73)"
       id="path30" /></g></svg>
