<?xml version="1.0" encoding="UTF-8" standalone="no"?>
<svg
   id="_图层_1"
   version="1.1"
   viewBox="0 0 64 64" width="24" height="24"
   sodipodi:docname="soundux.svg"
   xml:space="preserve"
   inkscape:version="1.4 (e7c3feb100, 2024-10-09)"
   xmlns:inkscape="http://www.inkscape.org/namespaces/inkscape"
   xmlns:sodipodi="http://sodipodi.sourceforge.net/DTD/sodipodi-0.dtd"
   xmlns="http://www.w3.org/2000/svg"
   xmlns:svg="http://www.w3.org/2000/svg"><sodipodi:namedview
     id="namedview26"
     pagecolor="#505050"
     bordercolor="#eeeeee"
     borderopacity="1"
     inkscape:showpageshadow="0"
     inkscape:pageopacity="0"
     inkscape:pagecheckerboard="0"
     inkscape:deskcolor="#505050"
     inkscape:zoom="10.6875"
     inkscape:cx="32"
     inkscape:cy="32"
     inkscape:window-width="1920"
     inkscape:window-height="939"
     inkscape:window-x="0"
     inkscape:window-y="34"
     inkscape:window-maximized="1"
     inkscape:current-layer="_图层_1" /><!-- Generator: Adobe Illustrator 29.0.1, SVG Export Plug-In . SVG Version: 2.1.0 Build 192)  --><defs
     id="defs6"><style
       id="style1">
      .st0 {
        fill-opacity: .5;
      }

      .st0, .st1, .st2, .st3, .st4, .st5, .st6, .st7 {
        fill: #fff;
      }

      .st8 {
        fill: #133c9a;
      }

      .st2, .st9 {
        display: none;
      }

      .st3 {
        fill-opacity: .2;
      }

      .st4 {
        fill-opacity: .9;
      }

      .st10 {
        fill: #3370ff;
      }

      .st11 {
        fill: url(#_未命名的渐变_3);
      }

      .st12 {
        fill: url(#_未命名的渐变);
      }

      .st5 {
        fill-opacity: .3;
      }

      .st6 {
        fill-opacity: 0;
      }

      .st7 {
        fill-opacity: .7;
      }

      .st13 {
        fill: #00d6b9;
      }

      .st14 {
        fill: url(#_未命名的渐变_2);
      }
    </style><radialGradient
       id="_未命名的渐变"
       data-name="未命名的渐变"
       cx="123.9"
       cy="-40.2"
       fx="123.9"
       fy="-40.2"
       r="59.4"
       gradientTransform="translate(-26.8 25.5) scale(.6 -.7)"
       gradientUnits="userSpaceOnUse"><stop
         offset="0"
         stop-color="#db202e"
         id="stop1" /><stop
         offset="1"
         stop-color="#e01b24"
         id="stop2" /></radialGradient><radialGradient
       id="_未命名的渐变_2"
       data-name="未命名的渐变 2"
       cx="67.6"
       cy="26.8"
       fx="67.6"
       fy="26.8"
       r="105.2"
       gradientTransform="translate(-26.6 25.3) scale(.6 -.7)"
       gradientUnits="userSpaceOnUse"><stop
         offset="0"
         stop-color="#ffb648"
         id="stop3" /><stop
         offset="1"
         stop-color="#ff7800"
         stop-opacity="0"
         id="stop4" /></radialGradient><radialGradient
       id="_未命名的渐变_3"
       data-name="未命名的渐变 3"
       cx="61.7"
       cy="18.6"
       fx="61.7"
       fy="18.6"
       r="68"
       gradientTransform="translate(-26.8 25.8) scale(.6 -.7)"
       gradientUnits="userSpaceOnUse"><stop
         offset="0"
         stop-color="#c64600"
         id="stop5" /><stop
         offset="1"
         stop-color="#a51d2d"
         id="stop6" /></radialGradient></defs><path
     class="st1"
     d="M 47.5,64.1 H 13.8 C 6.2,64.1 0,57.8 0,50.3 V 13.7 C 0,6.2 6.2,0 13.7,0 H 50.3 C 57.8,0 64,6.2 64,13.7 V 50.3 C 64,57.8 57.8,64 50.3,64 h -2.9 0.1 z"
     id="path6"
     style="fill:#0cbb94;fill-opacity:1"
     sodipodi:nodetypes="cssssssssccc" /><g
     id="g39"
     transform="matrix(4.005848,0,0,3.994152,-0.04678363,0.04678363)"><path
       style="fill:#ffffff"
       d="M 7.5273438,4 C 6.5072816,4 5.5809824,4.7679873 5.5039062,5.7382812 5.215807,5.9197496 5.007052,5.9607705 4.8164062,5.9492188 4.6200295,5.937317 4.4300038,5.8713904 4.1972656,5.8710938 4.1076415,5.8695638 4.0311884,5.9264266 4.0136719,6.0136719 v 0.00195 C 3.8979588,6.6775258 4.49491,7.4580891 5.8535156,7.421875 l 0.1757813,0.28125 C 5.5510496,8.2382626 4.7441406,8.904079 4.7441406,9.8652344 c 0,0.5017296 0.1563431,1.0083136 0.5078125,1.4062496 0.350241,0.3982 1.0464456,0.678739 1.7734375,0.728516 h 0.00391 2.9472656 C 10.787818,12 11.544195,11.518265 12.095703,10.810547 12.64597,10.103381 13,9.0878792 13,8.1152344 13.0014,8.0473254 12.95779,7.9938654 12.9082,7.9648438 12.85844,7.9357198 12.792445,7.9244578 12.730466,7.9550738 11.84082,8.4013232 11.561674,8.2493161 10.994138,8.0195268 10.547403,7.8389091 9.9915107,7.6379599 9.2441406,7.640625 9.4591251,7.4721707 9.6600646,7.3711794 9.7714844,7.1738281 9.9624222,6.8365054 10.015625,6.4782904 10.015625,6.1347656 10.009677,5.4580734 9.754837,4.9185992 9.3339844,4.5546875 8.9131315,4.1907754 8.1803637,4.0019345 7.5273438,4 Z m 0,0.3515625 c 1.1250043,-0.00284 2.1120924,0.6943207 2.1210937,1.7832031 -6.94e-5,0.3092914 -0.044998,0.6018866 -0.1972656,0.8710938 -0.151731,0.2688438 -0.4112968,0.4471928 -0.875,0.6679687 v 0.00195 c -0.082315,0.040025 -0.1203682,0.126721 -0.091797,0.2109376 v 0.00195 c 0.030172,0.084989 0.1141099,0.1321598 0.203125,0.1191406 l 0.00195,-0.00195 h 0.00195 C 9.7232921,7.8268247 10.264976,8.1083204 10.849603,8.3457 c 0.519391,0.210417 0.957549,0.3163402 1.75,0.013672 -0.05428,0.804384 -0.345473,1.655563 -0.800781,2.240234 -0.50199,0.644756 -1.165145,1.048828 -1.8222658,1.048829 H 7.0429688 C 6.4018128,11.602832 5.8166103,11.368603 5.53125,11.044922 5.2454783,10.720143 5.1113281,10.296459 5.1113281,9.8652344 c 0,-0.8494658 0.7847349,-1.4638697 1.2832031,-2.0332032 l 0.00195,-0.00195 c 0.050087,-0.059439 0.053487,-0.138707 0.011719,-0.203125 L 6.1777344,7.2578125 6.3105469,7.0703125 C 6.3535502,7.0076552 6.3498641,6.9256183 6.3027344,6.8652344 6.0273703,6.4560497 5.843637,6.2995976 5.8496094,5.8632812 v -0.00195 c 0,-0.826617 0.7822006,-1.5097656 1.6777344,-1.5097656 z M 6.6054688,5.25 C 6.4073902,5.2600502 6.25,5.423753 6.25,5.625 6.25,5.8316558 6.4179634,6 6.625,6 6.8319174,6 7,5.8316558 7,5.625 7,5.4172612 6.8319174,5.25 6.625,5.25 c -0.00647,0 -0.013142,-3.242e-4 -0.019531,0 z M 5.5175781,6.1269531 c 0.055168,0.3502204 0.2073371,0.5572629 0.4179688,0.84375 L 5.8613281,7.0742188 C 4.7930769,7.1143769 4.419963,6.6748538 4.3925781,6.25 c 0.2648152,0.043517 0.6370295,0.1089589 1.125,-0.1230469 z M 8.2285156,9 C 7.3966392,9 7,9.4938043 7,9.9277344 7.00389,10.269751 7.1570403,10.54131 7.3867188,10.722656 7.6163967,10.904003 7.9192812,10.998185 8.2265625,11 h 0.00195 c 0.5592079,0 1.1047645,-0.0991 1.6367188,-0.146484 h 0.00195 c 0.061211,-0.0066 0.1004814,-0.05242 0.1152344,-0.09766 0.01476,-0.04524 0.00801,-0.104807 -0.039063,-0.142578 L 9.7167969,10.445312 10.160156,10.1875 c 0.09152,-0.05145 0.09355,-0.175762 0.0039,-0.2304688 L 9.9082031,9.796875 10.455078,9.5449219 c 0.11936,-0.053736 0.09929,-0.2283645 -0.0293,-0.2558594 h -0.0039 -0.0039 C 9.6994586,9.1925771 8.9977934,9.0215197 8.2304688,9 Z m 0,0.2714844 c 0.2791747,1.842e-4 1.0508582,0.1086743 1.6914063,0.21875 L 9.5546875,9.6601562 c -0.049846,0.022833 -0.07289,0.070065 -0.076172,0.1132813 -0.00328,0.04321 0.015072,0.093488 0.060547,0.1230469 L 9.8144531,10.066406 9.390625,10.3125 v 0.002 C 9.302247,10.3637 9.292981,10.48109 9.375,10.539109 l 0.1074219,0.07813 c -0.4254989,0.04824 -0.8448257,0.111328 -1.2539063,0.111328 h -0.00195 C 7.7185763,10.740386 7.2787094,10.403755 7.2890625,9.9277344 7.2887722,9.6645397 7.4238924,9.5116691 7.6113281,9.4121094 7.7984214,9.3127319 8.0403185,9.275456 8.2285156,9.2714844 Z"
       id="path1-1" /></g></svg>
