<?xml version="1.0" encoding="UTF-8"?>
<svg id="_图层_1" xmlns="http://www.w3.org/2000/svg" version="1.1" xmlns:xlink="http://www.w3.org/1999/xlink" viewBox="0 0 64 64" width="24" height="24">
  <!-- Generator: Adobe Illustrator 29.0.1, SVG Export Plug-In . SVG Version: 2.1.0 Build 192)  -->
  <defs>
    <style>
      .st0 {
        fill: #d32f2f;
      }

      .st1, .st2 {
        fill: #4f4f4f;
      }

      .st3, .st4, .st5, .st6, .st2 {
        stroke-linejoin: round;
      }

      .st3, .st5, .st6 {
        fill: none;
        stroke-linecap: round;
        stroke-width: 6px;
      }

      .st3, .st2 {
        stroke: #4f4f4f;
      }

      .st7, .st8, .st6, .st9, .st10, .st11 {
        opacity: .2;
      }

      .st7, .st6, .st12, .st9, .st10, .st11, .st13 {
        isolation: isolate;
      }

      .st7, .st14, .st11, .st15, .st16 {
        display: none;
      }

      .st17 {
        fill: #dc3a2d;
      }

      .st18, .st10, .st11, .st13 {
        fill: #fff;
      }

      .st19 {
        fill: #ffca1d;
      }

      .st4, .st6 {
        stroke: #000;
      }

      .st4, .st2 {
        stroke-width: 2px;
      }

      .st20 {
        fill: #75ac4c;
      }

      .st5 {
        stroke: #85722f;
      }

      .st21 {
        fill: #b4291e;
      }

      .st12 {
        fill: url(#_未命名的渐变_2);
      }

      .st12, .st13 {
        opacity: .1;
      }

      .st22 {
        fill: #3c8cf8;
      }

      .st23 {
        fill: #f5c839;
      }

      .st15, .st24 {
        fill: #e4e4e4;
      }

      .st16 {
        fill: #47b648;
      }

      .st25 {
        fill: #41b941;
      }
    </style>
    <linearGradient id="_未命名的渐变_2" data-name="未命名的渐变 2" x1="138.5" y1="-1155.3" x2="144.5" y2="-1155.3" gradientTransform="translate(-274 -2276.6) scale(2 -2)" gradientUnits="userSpaceOnUse">
      <stop offset="0" stop-color="#000" stop-opacity="0"/>
      <stop offset="1" stop-color="#000"/>
    </linearGradient>
  </defs>
  <path class="st24" d="M50.5,64H13.9c-7.6,0-13.9-6.2-13.9-13.7V13.7C0,6.2,6.3,0,13.8,0h36.6c7.5,0,13.7,6.2,13.7,13.7v36.6c0,7.5-6.2,13.7-13.7,13.7h.1Z"/>
  <g class="st14">
    <path class="st9" d="M34.6,11.9c-.5,0-1.2,0-2.1.1-6.4.7-11.8,4.8-17.9,13.8-1.8,2.7-4.2,6.2-5.3,7.7-4.4,6.5-4.3,13.2.5,16,3,1.8,6,2.5,10.6,2.6,2.3,0,5.8.2,7.6.4,5.2.5,5.8.5,9.4-.2,4.1-.7,7.2-2.3,9.7-4.8,2-1.9,4.8-7.3,5.2-9.7,3.7-11.5-9.4-25.4-17.9-26Z"/>
    <path class="st17" d="M34.6,11.1c-.5,0-1.2,0-2.1.1-6.4.7-11.8,4.8-17.9,13.8-1.8,2.7-4.2,6.2-5.3,7.7-4.4,6.5-4.3,13.2.5,16,3,1.8,6,2.5,10.6,2.6,2.3,0,5.8.2,7.6.4,5.2.5,5.8.5,9.4-.2,4.1-.7,7.2-2.3,9.7-4.8,2-1.9,4.8-7.3,5.2-9.7,3.7-11.5-9.4-25.4-17.9-26Z"/>
    <path class="st10" d="M34.6,11.1c-.5,0-1.2,0-2.1.1-6.4.7-11.8,4.8-17.9,13.8-1.8,2.7-4.2,6.2-5.3,7.7-2.2,3.3-3.3,6.6-3.2,9.4.1-2.6,1.2-5.6,3.2-8.5,1.1-1.5,3.4-5,5.3-7.7,6.1-9,11.5-13.1,17.9-13.8.9-.1,1.6-.2,2.1-.1,7.3.5,18.1,11.1,18.4,21.4.3-10.5-10.9-21.7-18.4-22.3Z"/>
    <path class="st9" d="M36.8,10.2c-.2,0-.3.5-.2,1.1,0,0,.4,1.9,3.3,3.3,2,.9,2,1.4,0,2-.9.2-1.9.7-2.3,1-.7.5-.4.7,2.7,2.3,1.9,1,3.8,2,4.3,2.4.8.6.7.7-.7,1.8-1.6,1.3-3.6,4.3-3.6,5.5s.3.7,3,.5c1.7-.1,3.5-.3,4-.4h1c0-.1-.1,3.3-.1,3.3,0,1.9-.3,3.9-.5,4.4-.2.6-.3,1.1-.2,1.2.4.4,2.2-.5,3.4-1.9,1.2-1.4,1.3-1.4,1.6-.6.9,1.5,1.3,2.9,2.7,4.2.3,0,.5-.3.7-1.1.6-2.4.3-4.6-1-7-.7-1.3-1.4-3.3-1.5-4.4-.1-1.2-.4-2.5-.5-3-.2-.8.2-1.2,2.5-2.7,2.6-1.7,3.3-2.7,2.3-3.3-.2-.2-1.5.3-2.9,1-1.3.7-2.7,1.3-3,1.3s-1.3-.9-2.2-2c-1.6-1.9-1.6-2.2-1.6-5s0-3-.9-3.1c-.6,0-1,.2-1.4,1.2-.3.7-.7,1.3-.8,1.3s-1.9-.8-3.9-1.7c-2-.9-3.8-1.7-4-1.7h0Z"/>
    <path class="st20" d="M36.8,9.3c-.2,0-.3.5-.2,1.1,0,0,.4,1.9,3.3,3.3,2,.9,2,1.4,0,2-.9.2-1.9.7-2.3,1-.7.5-.4.7,2.7,2.3,1.9,1,3.8,2,4.3,2.4.8.6.7.7-.7,1.8-1.6,1.3-3.6,4.3-3.6,5.5s.3.7,3,.5c1.7-.1,3.5-.3,4-.4h1c0-.1-.1,3.3-.1,3.3,0,1.9-.3,3.9-.5,4.4-.2.6-.3,1.1-.2,1.2.4.4,2.2-.5,3.4-1.9,1.2-1.4,1.3-1.4,1.6-.6.9,1.5,1.3,2.9,2.7,4.2.3,0,.5-.3.7-1.1.6-2.4.3-4.6-1-7-.7-1.3-1.4-3.3-1.5-4.4-.1-1.2-.4-2.5-.5-3-.2-.8.2-1.2,2.5-2.7,2.6-1.7,3.3-2.7,2.3-3.3-.2-.2-1.5.3-2.9,1-1.3.7-2.7,1.3-3,1.3s-1.3-.9-2.2-2c-1.6-1.9-1.6-2.2-1.6-5s0-3-.9-3.1c-.6,0-1,.2-1.4,1.2-.3.7-.7,1.3-.8,1.3s-1.9-.8-3.9-1.7c-2-.9-3.8-1.7-4-1.7h0Z"/>
    <path class="st21" d="M31.8,24.5c-1,1-2.6,1.1-3.6.2-.9-.9-.8-2.5.2-3.5,1-1,3.1-1.6,4.1-.7.9.9.3,3-.7,4.1Z"/>
    <path class="st21" d="M28.2,33.4c-1,1-2.6,1.1-3.6.2-.9-.9-.8-2.5.2-3.5,1-1,3.1-1.6,4.1-.7.9.9.3,3-.7,4.1Z"/>
    <path class="st21" d="M40.7,38.7c-1,1-2.6,1.1-3.6.2-.9-.9-.8-2.5.2-3.5,1-1,3.1-1.6,4.1-.7.9.9.3,3-.7,4.1Z"/>
    <path class="st21" d="M37.1,47.7c-1,1-2.6,1.1-3.6.2-.9-.9-.8-2.5.2-3.5s3.1-1.6,4.1-.7.3,3-.7,4.1Z"/>
    <path class="st21" d="M26.4,45.9c-1,1-2.6,1.1-3.6.2-.9-.9-.8-2.5.2-3.5,1-1,3.1-1.6,4.1-.7.9.9.3,3-.7,4.1Z"/>
    <path class="st21" d="M15.7,42.3c-1,1-2.6,1.1-3.6.2-.9-.9-.8-2.5.2-3.5s3.1-1.6,4.1-.7c.9.9.3,3-.7,4.1Z"/>
    <path class="st21" d="M19.2,31.6c-1,1-2.6,1.1-3.6.2-.9-.9-.8-2.5.2-3.5,1-1,3.1-1.6,4.1-.7.9.9.3,3-.7,4.1Z"/>
    <path class="st9" d="M32.9,21.3c-.1.8-.6,1.7-1.1,2.3-1,1-2.6,1.1-3.6.2-.3-.3-.5-.7-.6-1.1-.1.7,0,1.5.6,2,.9.9,2.5.8,3.6-.2.8-.8,1.3-2.2,1.1-3.2ZM20.4,28.4c-.1.8-.6,1.7-1.1,2.3-1,1-2.6,1.1-3.6.2s-.5-.7-.6-1.1c-.1.7,0,1.5.6,2,.9.9,2.5.8,3.6-.2.8-.8,1.3-2.2,1.1-3.2ZM29.3,30.2c-.1.8-.6,1.7-1.1,2.3-1,1-2.6,1.1-3.6.2-.3-.3-.5-.7-.6-1.1-.1.7,0,1.5.6,2,.9.9,2.5.8,3.6-.2.8-.8,1.3-2.2,1.1-3.2ZM41.9,35.5c-.1.8-.6,1.7-1.1,2.3-1,1-2.6,1.1-3.6.2-.3-.3-.5-.7-.6-1.1-.1.7,0,1.5.6,2,.9.9,2.5.8,3.6-.2.8-.8,1.3-2.2,1.1-3.2ZM16.8,39.1c-.1.8-.6,1.7-1.1,2.3-1,1-2.6,1.1-3.6.2-.3-.3-.5-.7-.6-1.1-.1.7,0,1.5.6,2,.9.9,2.5.8,3.6-.2.8-.8,1.3-2.2,1.1-3.2ZM27.5,42.7c-.1.8-.6,1.7-1.1,2.3-1,1-2.6,1.1-3.6.2-.3-.3-.5-.7-.6-1.1-.1.7,0,1.5.6,2,.9.9,2.5.8,3.6-.2.8-.8,1.3-2.2,1.1-3.2ZM38.3,44.5c-.1.8-.6,1.7-1.1,2.3-1,1-2.6,1.1-3.6.2s-.5-.7-.6-1.1c-.1.7,0,1.5.6,2,.9.9,2.5.8,3.6-.2.8-.8,1.3-2.2,1.1-3.2Z"/>
    <path class="st10" d="M36.8,9.3c-.2,0-.3.4-.2,1,0,0,0-.1.2-.1.2,0,2,.8,4,1.7,2,.9,3.8,1.7,3.9,1.7s.6-.6.8-1.3c.4-1,.8-1.3,1.4-1.2.8.1.9.4.9,3.1s0,3.1,1.6,5c.9,1.1,1.9,2,2.2,2s1.7-.6,3-1.3c1.3-.7,2.6-1.2,2.9-1,.1,0,.2.1.3.2.3-.5.2-.8-.3-1.1-.2-.2-1.5.3-2.9,1-1.3.7-2.7,1.3-3,1.3s-1.3-.9-2.2-2c-1.6-1.9-1.6-2.2-1.6-5s0-3-.9-3.1c-.6,0-1,.2-1.4,1.2-.3.7-.7,1.3-.8,1.3s-1.9-.8-3.9-1.7c-2-.9-3.8-1.7-4-1.7ZM41,15.2c-.2.2-.6.3-1.2.4-.9.2-1.9.7-2.3,1-.4.3-.5.5,0,.9.4-.3,1.4-.7,2.3-1,1.5-.4,1.8-.8,1.2-1.3ZM44.7,22.4c-.2.2-.5.4-.9.8-1.6,1.3-3.6,4.3-3.6,5.5s0,.3,0,.4c.4-1.4,2-3.9,3.5-5,1.3-1,1.4-1.2.9-1.7ZM52.9,24.2c-.1.2-.1.4,0,.7.1.5.4,1.9.5,3,.1,1.2.8,3.2,1.5,4.4.8,1.4,1.2,2.9,1.3,4.3,0-1.7-.3-3.4-1.3-5.2-.7-1.3-1.4-3.3-1.5-4.4-.1-1.1-.3-2.2-.5-2.8ZM48.3,29.6h0s-.1,2.5-.1,2.5c0,1.9-.3,3.9-.5,4.4-.2.6-.3,1.1-.2,1.2,0,0,0,0,0,0,0-.1,0-.2.1-.4.2-.6.4-2.6.5-4.4v-3.4Z"/>
  </g>
  <g class="st14">
    <g>
      <path class="st9" d="M47.7,6.2l-25.8,6.3c-3.6.5-3.5,4.4-3.5,4.4v16.7c-.8-.3-1.7-.4-2.6-.4-5.2,0-9.5,4.5-9.5,10,0,5.5,4.2,10,9.5,10,4.9,0,9-3.9,9.4-9.1h0v-25.1l18.9-4.7v13.9c-.8-.3-1.7-.4-2.6-.4-5.2,0-9.5,4.5-9.5,10s4.2,10,9.5,10c4.9,0,9-3.9,9.4-9.1h0V9.6s0-4.2-3.4-3.4Z"/>
      <path class="st22" d="M47.7,5.3l-25.8,6.3c-3.6.5-3.5,4.4-3.5,4.4v16.7c-.8-.3-1.7-.4-2.6-.4-5.2,0-9.5,4.5-9.5,10s4.2,10,9.5,10c4.9,0,9-3.9,9.4-9.1h0v-25.1l18.9-4.7v13.9c-.8-.3-1.7-.4-2.6-.4-5.2,0-9.5,4.5-9.5,10s4.2,10,9.5,10c4.9,0,9-3.9,9.4-9.1h0V8.7s0-4.2-3.4-3.4Z"/>
      <path class="st10" d="M48.3,5.2c-.2,0-.4,0-.6,0l-25.8,6.3c-3.6.5-3.5,4.4-3.5,4.4v.9s-.1-3.9,3.5-4.4l25.8-6.3c3.5-.8,3.4,3.4,3.4,3.4v-.9s0-3.7-2.8-3.5ZM41.6,26.8c-5.2,0-9.5,4.5-9.5,10s0,.3,0,.5c.2-5.3,4.4-9.5,9.4-9.5.9,0,1.7.1,2.6.4v-.9c-.8-.3-1.7-.4-2.6-.4ZM15.8,32.2c-5.2,0-9.5,4.5-9.5,10s0,.3,0,.5c.2-5.3,4.4-9.5,9.4-9.5.9,0,1.7.1,2.6.4v-.9c-.8-.3-1.7-.4-2.6-.4Z"/>
    </g>
    <ellipse class="st23" cx="42.5" cy="41.3" rx="13.8" ry="14.5"/>
    <path class="st9" d="M56.2,42.1c-.4,7.7-6.4,13.7-13.7,13.7-7.2,0-13.2-5.9-13.7-13.5,0,.3,0,.5,0,.8,0,8,6.2,14.5,13.8,14.5s13.8-6.5,13.8-14.5c0-.3,0-.7,0-1h0Z"/>
    <g>
      <rect class="st18" x="37.3" y="32.2" width="3.4" height="18.1"/>
      <rect class="st18" x="44.2" y="32.2" width="3.4" height="18.1"/>
    </g>
    <g>
      <rect class="st18" x="33.9" y="35.9" width="17.2" height="3.6"/>
      <rect class="st18" x="33.9" y="43.1" width="17.2" height="3.6"/>
    </g>
  </g>
  <g class="st14">
    <path class="st7" d="M3.2,1.1h57.5c1.8,0,3.2,1.4,3.2,3.2v57.5c0,1.8-1.4,3.2-3.2,3.2H3.2c-1.8,0-3.2-1.4-3.2-3.2V4.3C0,2.6,1.4,1.1,3.2,1.1Z"/>
    <path class="st16" d="M3.2,0h57.5c1.8,0,3.2,1.4,3.2,3.2v57.6c0,1.8-1.4,3.2-3.2,3.2H3.2c-1.8,0-3.2-1.4-3.2-3.2V3.2C0,1.4,1.4,0,3.2,0Z"/>
    <path class="st9" d="M32,17.1c-.5,0-1,0-1.5,0-5.8.1-12.3,2-16.9,5.8-3.2,2.7-6.7,6-6.6,10.6-.3,1.6.6,2.4,1.8,2.5h0c1.5-1.1,3.3-1.7,5.2-1.7,1.9,0,4,.7,5.5,2.4h0c0,0,0,.1,0,.1.9,1.3,1.5,2.8,1.8,4.2,2.4.3,4.8.1,7.2,0,.7,0,1.3-.1,1.9-.3,1.2-1.2,2.7-2.7,5.1-3h0s0,0,0,0c1.8-.2,3.4.3,4.8,1.5.3.3.7.6.9,1,.8-1.9,3.2-1.2,2.8.8,2,1.9,1.6-2.6,3.1-2,1.3,1.7,2.9,3.8,5,4.4,1.6.2,3.4-.3,4.2-1.9,1.3-2.5-1-4.7-1.9-6.8-1.3-3.2-1.9-6.7-4-9.5-3.4-4.6-9-6.7-14.4-7.6-1.4-.2-2.9-.4-4.3-.4ZM49.6,33.1c.9,0,1.7.8,1.7,1.7s-.8,1.7-1.7,1.7-1.7-.8-1.7-1.7.8-1.7,1.7-1.7ZM14.1,36.5c-1.4,0-2.8.5-3.9,1.3-2,1.7-3.7,4.5-3.3,7.3.8,2.7,3.7,3.3,6,3.8,2.2.4,5.3.3,6.1-2.3.7-2.8.4-6.1-1.3-8.5-.9-1.1-2.3-1.6-3.7-1.5ZM36,40c-2.4.4-3.8,2.6-5.5,4.1-1,1.4-4.2,3.2-2.7,4.9,4.5.8,8.4-2.3,11.2-5.5,2.7-1.9-1.1-3.7-3-3.5Z"/>
    <path class="st18" d="M32,16c-.5,0-1,0-1.5,0-5.8.1-12.3,2-16.9,5.8-3.2,2.7-6.7,6-6.6,10.6-.3,1.6.6,2.4,1.8,2.5h0c1.5-1.1,3.3-1.7,5.2-1.7,1.9,0,4,.7,5.5,2.4h0c0,0,0,.1,0,.1.9,1.3,1.5,2.8,1.8,4.2,2.4.3,4.8.1,7.2,0,.7,0,1.3-.1,1.9-.3,1.2-1.2,2.7-2.7,5.1-3h0s0,0,0,0c1.8-.2,3.4.3,4.8,1.5.3.3.7.6.9,1,.8-1.9,3.2-1.2,2.8.8,2,1.9,1.6-2.6,3.1-2,1.3,1.7,2.9,3.8,5,4.4,1.6.2,3.4-.3,4.2-1.9,1.3-2.5-1-4.7-1.9-6.8-1.3-3.2-1.9-6.7-4-9.5-3.4-4.6-9-6.7-14.4-7.6-1.4-.2-2.9-.4-4.3-.4ZM49.6,32c.9,0,1.7.8,1.7,1.7s-.8,1.7-1.7,1.7-1.7-.8-1.7-1.7.8-1.7,1.7-1.7ZM14.1,35.4c-1.4,0-2.8.5-3.9,1.3-2,1.7-3.7,4.5-3.3,7.3.8,2.7,3.7,3.3,6,3.8,2.2.4,5.3.3,6.1-2.3.7-2.8.4-6.1-1.3-8.5-.9-1.1-2.3-1.6-3.7-1.5ZM36,38.8c-2.4.4-3.8,2.6-5.5,4.1-1,1.4-4.2,3.2-2.7,4.9,4.5.8,8.4-2.3,11.2-5.5,2.7-1.9-1.1-3.7-3-3.5Z"/>
    <path class="st11" d="M3.2,0C1.4,0,0,1.4,0,3.2v1.1C0,2.6,1.4,1.1,3.2,1.1h57.5c1.8,0,3.2,1.4,3.2,3.2v-1.1c0-1.8-1.4-3.2-3.2-3.2H3.2Z"/>
  </g>
  <g class="st14">
    <path class="st7" d="M3.2,1.1h57.7c1.8,0,3.2,1.4,3.2,3.2v57.5c0,1.8-1.4,3.2-3.2,3.2H3.2c-1.8,0-3.2-1.4-3.2-3.2V4.3C0,2.6,1.4,1.1,3.2,1.1Z"/>
    <path class="st15" d="M3.2,0h57.7c1.8,0,3.2,1.4,3.2,3.2v57.5c0,1.8-1.4,3.2-3.2,3.2H3.2c-1.8,0-3.2-1.4-3.2-3.2V3.2C0,1.4,1.4,0,3.2,0Z"/>
    <path class="st6" d="M28.6,10.3c-6.6,8.7-20.6,6.9-20.6,15.6s14.9,8.7,12.4,21.4c-1.6,8-8.7,6.4-13.5,6.4"/>
    <path class="st3" d="M28.6,9.1c-6.6,8.7-20.6,6.9-20.6,15.6s14.9,8.7,12.4,21.4c-1.6,8-8.7,6.4-13.5,6.4"/>
    <path class="st6" d="M33.3,54.8V20.3c1.8-5.7,4.4-10,10-10s9.4,3.7,9.4,10-12.6,11.1-12.6,15.1,12.8,16.2,16,19.4"/>
    <path class="st5" d="M33.3,53.7V19.2c1.8-5.7,4.4-10,10-10s9.4,3.7,9.4,10-12.6,11.1-12.6,15.1,12.8,16.2,16,19.4"/>
    <path class="st11" d="M3.2,0C1.4,0,0,1.4,0,3.2v1.1C0,2.6,1.4,1.1,3.2,1.1h57.7c1.8,0,3.2,1.4,3.2,3.2v-1.1c0-1.8-1.4-3.2-3.2-3.2H3.2Z"/>
  </g>
  <g class="st14">
    <path class="st9" d="M58.9,32.9c-.7,8.7-12.9,14.4-23.7,14.4s-18.8-5.2-20.2-8c-1.4,2.8-10.1,4-10,4v2c0,0,8.6-1.2,10-4,1.4,2.8,9,8,20.2,8s23.8-6.1,23.8-15.2c0-.4,0-.8,0-1.2h0Z"/>
    <path class="st25" d="M16.8,12.3h.2c1,0,1.9,1.3,1.9,2.8v10.4c0,1.5-.8,2.8-1.9,2.8h-.2c-1,0-1.9-1.3-1.9-2.8v-10.4c0-1.5.8-2.8,1.9-2.8Z"/>
    <path class="st10" d="M16.8,12.3c-1,0-1.9,1.2-1.9,2.8v1c0-1.5.8-2.8,1.9-2.8h.2c1,0,1.9,1.2,1.9,2.8v-1c0-1.5-.8-2.8-1.9-2.8h-.2Z"/>
    <path class="st19" d="M28.2,12.3c-1.6,0-3.2,1.2-3.2,2.8v3.2c-5.2,1.6-8.6,6.2-10,9-1.4-2.8-10-4-10-4v7h-2v8h2v6c0,0,8.6-1.2,10-4,1.4,2.8,9,8,20.2,8s23.8-6.1,23.8-15.2c0-6.5-5.5-12.1-14-14.8v-3.2c0-1.5-1.2-2.8-2.8-2.8h-14Z"/>
    <circle class="st9" cx="35" cy="33.3" r="4"/>
    <circle class="st18" cx="35" cy="32.3" r="4"/>
    <circle class="st9" cx="45" cy="33.3" r="4"/>
    <circle class="st18" cx="45" cy="32.3" r="4"/>
    <circle class="st9" cx="25" cy="33.3" r="4"/>
    <circle class="st18" cx="25" cy="32.3" r="4"/>
    <path class="st12" d="M15,27.5c-1.4-2.8-10-4-10-4v7h-2v8h2v6c0,0,8.6-1.2,10-4v-13Z"/>
    <path class="st10" d="M28.2,12.3c-1.6,0-3.2,1.2-3.2,2.8v1c0-1.5,1.6-2.8,3.2-2.8h14c1.6,0,2.8,1.2,2.8,2.8v-1c0-1.5-1.2-2.8-2.8-2.8h-14ZM45,18.3v1c8.3,2.6,13.7,8,14,14.3,0-.2,0-.4,0-.6,0-6.5-5.5-12.1-14-14.8ZM25,18.3c-5.2,1.6-8.6,6.2-10,9-1.4-2.8-10-4-10-4v1s8.6,1.2,10,4c1.4-2.8,4.8-7.4,10-9v-1ZM3,30.3v1h2v-1h-2Z"/>
  </g>
  <g>
    <g class="st8">
      <path class="st4" d="M33.2,23.1l15.6-9-2.8,13.2-12.8-4.2ZM21.7,39.4l-15.6-9,12.8-4.2,2.8,13.2ZM40.7,40.3v18l-10-9,10-9Z"/>
      <path d="M27.7,5.3c-2.1,0-4.1,1.1-5.1,2.9l-6.7,11.2,10.6,6.1,6.2-10.2,3.6,6.7,10.6-6.1-4-7.4c-1-2-3.1-3.2-5.3-3.2h-10ZM53.6,28.2l-10.6,6.1,4.8,8.9h-8v12h10c2.3,0,4.4-1.3,5.4-3.3l4-8c.9-1.7.8-3.8,0-5.5l-5.5-10.2ZM8.7,31.4l-4.1,6.8c-1.1,1.8-1.1,3.9-.2,5.8l4,8c1,2,3.1,3.3,5.4,3.3h12v-12h-10l3.5-5.8-10.6-6.1Z"/>
    </g>
    <path class="st0" d="M15.6,42.3l-3.5,5.7c-1.1,1.8-1.1,3.9-.2,5.8v.2c.7.2,1.3.3,1.9.3h12v-12h-10.2ZM53.6,27.2l-10.6,6.1,5,9.4h6.2c2.3,0,4.4-1.3,5.4-3.3h0c-.1-.8-.3-1.4-.6-2l-5.5-10.2ZM27.4,4.3c-2,.1-3.8,1.2-4.8,2.9l-6.7,11.2,10.6,6.1,6.6-10.9-3.8-7.2c-.5-.8-1.1-1.6-1.9-2.1Z"/>
    <path class="st1" d="M8.7,30.4l-4.1,6.8c-1.1,1.8-1.1,3.9-.2,5.8l4,8c.9,1.8,2.6,3,4.5,3.2l-.5-.9c-.9-1.8-.8-4,.2-5.8l6.7-11-10.6-6.1ZM59.4,38.3l-.3.6c-1,2-3.1,3.3-5.4,3.3h-14v12h10c2.3,0,4.4-1.3,5.4-3.3l4-8c.7-1.4.8-3.1.3-4.6ZM27.7,4.3c-.5,0-.9,0-1.4.2,1,.6,1.9,1.4,2.4,2.4l7.6,14.1,10.6-6.1-4-7.4c-1-2-3.1-3.2-5.3-3.2h-10Z"/>
    <path class="st2" d="M33.2,22.1l15.6-9-2.8,13.2-12.8-4.2ZM21.7,38.4l-15.6-9,12.8-4.2,2.8,13.2ZM40.7,39.3v18l-10-9,10-9Z"/>
    <path class="st13" d="M59.4,38.3l-.3.6c-1,2-3.1,3.3-5.4,3.3h-12v1h12c2.3,0,4.4-1.3,5.4-3.3l.3-.6c.2.5.3,1,.3,1.4,0-.8,0-1.7-.3-2.4ZM48.6,12.1c-.1,0-.2,0-.4.1l-2.4,1.4.4.8,2-1.2c.1,0,.2-.1.4-.1.1,0,.3,0,.4,0,.3,0,.5.3.7.5v-.4c.2-.5-.1-1-.7-1.2-.1,0-.3,0-.4,0ZM35.2,19.8l-2.5,1.5c-.5.3-.6.9-.3,1.4,0-.1.2-.3.3-.4l2.9-1.7-.4-.8ZM19.1,24.3c-.1,0-.3,0-.4,0l-12.8,4.2c-.5.2-.8.8-.6,1.3,0,0,0,.1,0,.2.1-.2.3-.4.5-.5l12.8-4.2c.1,0,.3,0,.4,0,.4,0,.8.4.9.8l2.7,12.8c0-.2.1-.4,0-.6l-2.8-13.2c0-.4-.4-.7-.9-.8ZM40.8,38.3c-.3,0-.5,0-.7.3l-10,9c-.3.3-.4.8-.2,1.2,0,0,0-.2.2-.2l10-9c.2-.2.4-.3.7-.3.1,0,.3,0,.4,0,.4.2.6.5.6.9v-1c0-.4-.2-.8-.6-.9-.1,0-.2,0-.4,0ZM27.7,4.3c-2.1,0-4.1,1.1-5.1,2.9l-6.7,11.2.4.3,6.3-10.4c1.1-1.8,3-2.9,5.1-2.9h10c2.2,0,4.3,1.2,5.3,3.2l2.8,5.2.4-.2-3.2-6c-1-2-3.1-3.2-5.3-3.2h-10ZM53.6,27.2l-10.6,6.1.4.8,10.2-5.9,5.5,10.2c0,.1.1.2.2.3l.2-.4c.2.5.3,1,.3,1.4,0-.8-.3-1.6-.7-2.3l-5.5-10.2ZM7.9,31.6l-3.3,5.6c-.7,1.1-.9,2.4-.8,3.6,0-.9.3-1.8.8-2.6l3.8-6.3-.4-.3ZM16.3,42.3l-.6,1h10v-1h-9.4Z"/>
    <path class="st9" d="M27.5,5.3c-.4,0-.8,0-1.2.2,1,.6,1.9,1.4,2.4,2.4l3.7,6.9.3-.5-3.9-7.4c-.3-.6-.8-1.1-1.2-1.6ZM15.8,42.3l-3.2,5.2c-.7,1.1-.9,2.4-.8,3.6,0-.9.3-1.8.8-2.6l3.8-6.2h-.6Z"/>
  </g>
</svg>