<?xml version="1.0" encoding="UTF-8" standalone="no"?>
<svg
   id="_图层_1"
   version="1.1"
   viewBox="0 0 64 64" width="24" height="24"
   sodipodi:docname="syncplay.svg"
   xml:space="preserve"
   inkscape:version="1.4 (e7c3feb100, 2024-10-09)"
   xmlns:inkscape="http://www.inkscape.org/namespaces/inkscape"
   xmlns:sodipodi="http://sodipodi.sourceforge.net/DTD/sodipodi-0.dtd"
   xmlns:xlink="http://www.w3.org/1999/xlink"
   xmlns="http://www.w3.org/2000/svg"
   xmlns:svg="http://www.w3.org/2000/svg"><sodipodi:namedview
     id="namedview26"
     pagecolor="#505050"
     bordercolor="#eeeeee"
     borderopacity="1"
     inkscape:showpageshadow="0"
     inkscape:pageopacity="0"
     inkscape:pagecheckerboard="0"
     inkscape:deskcolor="#505050"
     inkscape:zoom="10.6875"
     inkscape:cx="32"
     inkscape:cy="32"
     inkscape:window-width="1920"
     inkscape:window-height="939"
     inkscape:window-x="0"
     inkscape:window-y="34"
     inkscape:window-maximized="1"
     inkscape:current-layer="_图层_1" /><!-- Generator: Adobe Illustrator 29.0.1, SVG Export Plug-In . SVG Version: 2.1.0 Build 192)  --><defs
     id="defs6"><style
       id="style1">
      .st0 {
        fill-opacity: .5;
      }

      .st0, .st1, .st2, .st3, .st4, .st5, .st6, .st7 {
        fill: #fff;
      }

      .st8 {
        fill: #133c9a;
      }

      .st2, .st9 {
        display: none;
      }

      .st3 {
        fill-opacity: .2;
      }

      .st4 {
        fill-opacity: .9;
      }

      .st10 {
        fill: #3370ff;
      }

      .st11 {
        fill: url(#_未命名的渐变_3);
      }

      .st12 {
        fill: url(#_未命名的渐变);
      }

      .st5 {
        fill-opacity: .3;
      }

      .st6 {
        fill-opacity: 0;
      }

      .st7 {
        fill-opacity: .7;
      }

      .st13 {
        fill: #00d6b9;
      }

      .st14 {
        fill: url(#_未命名的渐变_2);
      }
    </style><radialGradient
       id="_未命名的渐变"
       data-name="未命名的渐变"
       cx="123.9"
       cy="-40.2"
       fx="123.9"
       fy="-40.2"
       r="59.4"
       gradientTransform="translate(-26.8 25.5) scale(.6 -.7)"
       gradientUnits="userSpaceOnUse"><stop
         offset="0"
         stop-color="#db202e"
         id="stop1" /><stop
         offset="1"
         stop-color="#e01b24"
         id="stop2" /></radialGradient><radialGradient
       id="_未命名的渐变_2"
       data-name="未命名的渐变 2"
       cx="67.6"
       cy="26.8"
       fx="67.6"
       fy="26.8"
       r="105.2"
       gradientTransform="translate(-26.6 25.3) scale(.6 -.7)"
       gradientUnits="userSpaceOnUse"><stop
         offset="0"
         stop-color="#ffb648"
         id="stop3" /><stop
         offset="1"
         stop-color="#ff7800"
         stop-opacity="0"
         id="stop4" /></radialGradient><radialGradient
       id="_未命名的渐变_3"
       data-name="未命名的渐变 3"
       cx="61.7"
       cy="18.6"
       fx="61.7"
       fy="18.6"
       r="68"
       gradientTransform="translate(-26.8 25.8) scale(.6 -.7)"
       gradientUnits="userSpaceOnUse"><stop
         offset="0"
         stop-color="#c64600"
         id="stop5" /><stop
         offset="1"
         stop-color="#a51d2d"
         id="stop6" /></radialGradient><linearGradient
       id="linearGradient1261"><stop
         style="stop-color:#4f4f4f"
         offset="0"
         id="stop1-7" /><stop
         style="stop-color:#3f3f3f"
         offset="1"
         id="stop2-0" /></linearGradient><linearGradient
       id="linearGradient1263"
       x1="34.241"
       x2="37.169"
       y1="38.945"
       y2="30.342"
       gradientTransform="matrix(1.3919157,0,0,1.3888889,-1.321022,-0.4865665)"
       gradientUnits="userSpaceOnUse"
       xlink:href="#linearGradient1261" /></defs><path
     class="st1"
     d="M47.5,64.1H13.8c-7.6,0-13.8-6.3-13.8-13.8V13.7C0,6.2,6.2,0,13.7,0h36.6c7.5,0,13.7,6.2,13.7,13.7v36.6c0,7.5-6.2,13.7-13.7,13.7h-2.9.1Z"
     id="path6"
     style="fill:#ffffff;fill-opacity:1" /><g
     id="g26"
     transform="matrix(0.84795322,0,0,0.80302334,3.6959062,4.3119149)"><path
       style="opacity:0.2"
       d="m 58.96073,4.9987266 c -1.179976,-0.00508 -3.411179,0.2301556 -5.914016,0.5976516 -0.159379,0.023402 -0.306617,0.074635 -0.460934,0.1093731 -2.922708,0.4347431 -6.085685,0.9983063 -8.449155,1.6054564 -0.69451,0.1784126 -1.382835,0.3627872 -2.062484,0.5546833 -0.507638,0.1433289 -0.97378,0.3062788 -1.46483,0.4570277 -0.452695,0.1365369 -0.901949,0.2754138 -1.347648,0.4179655 -0.29188,0.096555 -0.589125,0.1897746 -0.874993,0.2890603 -2.122028,0.70483 -4.164098,1.4776405 -6.117139,2.3163875 v -0.01172 c -0.105119,0.04518 -0.203968,0.09507 -0.308591,0.140623 -0.172199,0.0749 -0.352604,0.142831 -0.523434,0.218748 -0.248272,0.110334 -0.466169,0.228065 -0.707027,0.339842 -12.690996,5.818391 -21.4965788,14.468247 -24.9685555,24.917776 -0.912404,2.746031 -1.4878241,6.033756 -1.6679559,8.812432 -0.0152,0.08188 -0.046108,0.166659 -0.050782,0.246092 -0.0108,0.183459 0.00304,0.32594 -0.0039,0.503902 -0.0036,0.09232 -0.01696,0.198299 -0.01954,0.289062 l 0.01954,-0.0078 c -0.039718,1.452347 0.025112,2.745209 0.2773417,3.574191 0.8808605,2.895049 2.8189971,5.108098 5.8749547,6.785103 0.07895,0.04698 0.119671,0.09824 0.20703,0.144539 0.884579,0.468688 1.860164,0.894617 2.933571,1.277332 2.613357,0.931775 6.417004,1.666653 10.331951,2.085922 0.169479,0.0286 0.294072,0.07426 0.488278,0.09374 0.790188,0.07934 1.58347,0.146559 2.371076,0.195318 2.57074,0.159179 8.813971,-0.09504 10.87101,-0.441402 7.3948,-1.245066 13.37706,-4.575971 17.148303,-9.550706 2.760924,-3.641996 4.485525,-8.587406 3.378881,-9.691331 -0.393427,-0.392461 -0.829975,-0.237782 -1.523426,0.542964 -1.476122,1.661941 -4.35667,3.517063 -6.984322,4.613246 -1.7004,0.685261 -4.862752,1.225771 -6.62786,0.984366 l 0.515622,-1.79686 1.164053,-1.574207 c 0.399277,-0.02238 1.413135,-0.05366 1.842741,-0.09374 3.267321,-0.304813 7.068088,-3.496227 9.015555,-6.218702 2.253698,-3.150569 3.828784,-7.773187 3.894501,-11.421785 0.02934,-1.628879 -0.03426,-2.087964 -0.332029,-2.386701 -0.08644,-0.08672 -0.156519,-0.146819 -0.22656,-0.175779 -0.210093,-0.0869 -0.421433,0.124879 -1.082024,0.878899 -3.328214,3.694765 -8.335023,7.355265 -12.339746,9.523364 l -2.050772,-1.277362 0.707026,-1.835924 c 1.828528,-1.067957 4.222601,-2.550966 5.925734,-3.714815 0.08428,-0.05814 0.162759,-0.124179 0.246092,-0.183598 0.0017,-0.005 0.0022,-0.0106 0.004,-0.0156 5.65243,-4.036733 9.111042,-11.059504 9.8593,-20.101406 C 60.055286,5.4950636 60.024847,5.186616 59.738168,5.07687 59.599129,5.023644 59.333261,5.000349 58.96083,4.998745 Z"
       id="path1" /><path
       style="fill:#d81b60"
       d="M 58.958892,3.9985118 C 57.778916,3.9934355 55.549983,4.230063 53.047144,4.597559 50.020264,5.0420011 47.941284,7.6393222 45.484123,8.2705301 25.562873,13.388003 12.067663,22.133697 7.4770692,35.949686 c -1.5337671,4.616052 -0.9836078,9.79755 -0.2178535,12.314253 1.1541352,3.79313 6.7629413,5.830976 11.7124003,7.595635 2.723741,0.971112 1.091756,3.486259 5.180576,3.896784 0.790188,0.07934 1.583424,0.144178 2.37103,0.192938 2.57074,0.159179 8.815009,-0.09388 10.872047,-0.440235 7.394801,-1.245066 13.376295,-4.576436 17.147538,-9.551172 2.760924,-3.641995 4.486385,-8.586701 3.379741,-9.690626 -0.393425,-0.392461 -0.832355,-0.236605 -1.525806,0.544141 -1.476122,1.661941 -4.355268,3.517299 -6.98292,4.613483 -1.7004,0.68526 -4.261413,1.223388 -6.026521,0.981984 l 0.515772,-1.794474 1.162641,-1.573676 c 0.399277,-0.02238 0.813182,-0.05328 1.242788,-0.09336 3.267321,-0.304814 7.066148,-3.496633 9.013615,-6.219108 2.253698,-3.15057 3.830828,-7.772888 3.896545,-11.421485 0.02934,-1.62888 -0.03584,-2.088372 -0.333599,-2.38711 -0.08644,-0.08672 -0.156919,-0.148779 -0.226954,-0.177739 -0.210093,-0.0869 -0.419507,0.126459 -1.080098,0.88047 -3.328214,3.694765 -8.334137,7.353645 -12.33886,9.521744 l -2.05306,-1.276814 0.710088,-1.834156 c 1.828528,-1.067958 4.221155,-2.553566 5.924288,-3.717415 5.807627,-4.004951 9.349418,-11.119482 10.109146,-20.300002 0.125719,-1.5192914 0.09526,-1.8261916 -0.191419,-1.9359376 -0.139039,-0.053226 -0.406879,-0.077693 -0.77931,-0.079295 z"
       id="path2" /><path
       style="fill:#fd5450"
       d="m 53.836538,4.5071057 c -3.222475,0.4447477 -7.004084,1.1089998 -9.701563,1.8019532 -0.69451,0.1784128 -1.381661,0.36362 -2.06131,0.5555159 C 23.258705,12.176891 15.953055,22.615369 11.522576,35.949686 9.9888329,40.565738 8.087162,46.973157 8.8529061,49.489857 c 0.9038158,2.970489 -1.6503548,5.117818 1.5437829,6.810207 0.884579,0.468689 1.862144,0.893081 2.93555,1.275796 2.991173,1.066482 7.530631,1.902006 12.025782,2.266797 C 35.290762,52.540551 42.518,43.14453 47.449706,31.84593 c -0.743989,0.461192 -1.485649,0.902791 -2.212109,1.296094 l -2.050782,-1.276954 0.708202,-1.834766 c 1.8285,-1.067958 4.221617,-2.552706 5.924726,-3.716555 0.08428,-0.05814 0.162759,-0.123779 0.246092,-0.183199 2.386182,-6.964679 3.658724,-14.262186 3.770703,-21.6234403 z"
       id="path3" /><path
       style="fill:#ff9e21"
       d="m 42.953726,6.6399184 c -4.115266,1.1172627 -7.963384,2.4761984 -11.514644,4.0543936 -13.085514,5.81526 -15.765667,13.62676 -19.303547,24.27464 -0.933904,2.81074 -7.9244755,7.220938 -8.090419,10.041686 -0.1065832,1.81174 -0.02759,3.37236 0.2718879,4.356628 0.9537084,3.134474 3.1296443,5.480682 6.6417971,7.199608 19.32425,-9.166803 31.739421,-28.540239 31.994925,-49.9269556 z"
       id="path4" /><path
       style="fill:#fdd835"
       d="M 32.270521,10.334059 C 18.743654,16.147048 9.3726563,25.079024 5.7607539,35.949686 4.7350302,39.03677 4.1053993,42.848061 4.0216913,45.80164 A 42.000002,42.000002 0 0 0 32.270521,10.334059 Z"
       id="path5" /><path
       style="opacity:0.2"
       d="M 30,23 A 15.999877,15.999877 0 0 0 14,39 15.999877,15.999877 0 0 0 30,55 15.999877,15.999877 0 0 0 46,39 15.999877,15.999877 0 0 0 30,23 Z m 0,3 A 13,13 0 0 1 43,39 13,13 0 0 1 30,52 13,13 0 0 1 17,39 13,13 0 0 1 30,26 Z"
       id="path6-7" /><path
       style="fill:#ffffff"
       d="M 30,22 A 15.999877,15.999877 0 0 0 14,38 15.999877,15.999877 0 0 0 30,54 15.999877,15.999877 0 0 0 46,38 15.999877,15.999877 0 0 0 30,22 Z m 0,3 A 13,13 0 0 1 43,38 13,13 0 0 1 30,51 13,13 0 0 1 17,38 13,13 0 0 1 30,25 Z"
       id="path7" /><path
       style="opacity:0.2"
       d="m 25.280513,31.000468 a 1.2512513,1.2688774 0 0 0 -1.28045,1.266766 v 6.732306 6.732307 a 1.2512513,1.2688774 0 0 0 1.876692,1.098264 l 5.749313,-3.366154 5.749316,-3.366152 a 1.2512513,1.2688774 0 0 0 0,-2.196525 l -5.749316,-3.366154 -5.749313,-3.366154 a 1.2512513,1.2688774 0 0 0 -0.596242,-0.168518 z"
       id="path8" /><path
       style="fill:#ffffff"
       d="m 25.280513,29.998576 a 1.2512513,1.2688774 0 0 0 -1.28045,1.266766 v 6.732306 6.732308 a 1.2512513,1.2688774 0 0 0 1.876692,1.098263 l 5.749313,-3.366153 5.749316,-3.366152 a 1.2512513,1.2688774 0 0 0 0,-2.196525 l -5.749316,-3.366154 -5.749313,-3.366154 a 1.2512513,1.2688774 0 0 0 -0.596242,-0.168519 z"
       id="path9" /><path
       style="opacity:0.2;fill:#ffffff"
       d="m 58.958984,3.9980469 c -1.179976,-0.00508 -3.40927,0.2321134 -5.912109,0.5996093 -0.196726,0.028886 -0.389043,0.067339 -0.578125,0.1132813 -2.886785,0.4326428 -6.005873,0.9995895 -8.333984,1.5976563 -0.69451,0.1784128 -1.380898,0.3647447 -2.060547,0.5566406 -0.546399,0.1542732 -1.050928,0.3273694 -1.578125,0.4902344 -0.381509,0.1156326 -0.760191,0.2336006 -1.136719,0.3535156 -0.336634,0.1107547 -0.679144,0.2176585 -1.007813,0.3320312 -2.110106,0.7019168 -4.139186,1.4702623 -6.082031,2.3046874 a 42.000002,42.000002 0 0 0 0.002,-0.01172 c -0.104959,0.04511 -0.204135,0.09515 -0.308593,0.140625 -0.172201,0.0749 -0.352607,0.142833 -0.523438,0.21875 -0.245552,0.109125 -0.462873,0.223449 -0.701172,0.333985 C 18.042183,16.845766 9.2345599,25.497086 5.7617188,35.949219 4.8487638,38.696907 4.2734844,41.987875 4.09375,44.767578 c -0.014886,0.08081 -0.044215,0.163767 -0.048828,0.242188 -0.03977,0.676026 -0.044899,1.29933 -0.03125,1.888672 0.00725,-0.291375 0.013167,-0.579337 0.03125,-0.886719 0.00461,-0.07842 0.033942,-0.161378 0.048828,-0.242188 C 4.2734844,42.989828 4.8487638,39.69886 5.7617188,36.951172 9.2345598,26.499039 18.042136,17.84772 30.738281,12.029297 c 0.238299,-0.110536 0.45562,-0.224859 0.701172,-0.333985 0.170831,-0.07592 0.351237,-0.14385 0.523438,-0.21875 0.104458,-0.04547 0.203634,-0.09553 0.308593,-0.140624 a 42.000002,42.000002 0 0 1 -0.002,0.01172 c 1.942845,-0.834425 3.971925,-1.6027705 6.082031,-2.3046872 0.328669,-0.1143728 0.671179,-0.2212766 1.007813,-0.3320313 0.376528,-0.119915 0.75521,-0.237883 1.136719,-0.3535156 0.527197,-0.162865 1.031726,-0.3359612 1.578125,-0.4902344 0.679649,-0.1918959 1.366037,-0.3782278 2.060547,-0.5566406 2.328111,-0.5980668 5.447199,-1.1650135 8.333984,-1.5976563 0.189082,-0.045942 0.381399,-0.084395 0.578125,-0.1132812 C 55.549714,5.2321135 57.779008,4.99492 58.958984,5 c 0.372431,0.0016 0.640258,0.026852 0.779297,0.080078 0.125908,0.0482 0.194934,0.1550514 0.230469,0.3652344 0.06396,-0.9921444 0.0123,-1.2742515 -0.230469,-1.3671875 -0.139039,-0.053226 -0.406866,-0.078476 -0.779297,-0.080078 z M 58.494141,22.734375 c -0.178491,0.0588 -0.420573,0.321211 -0.916016,0.886719 -2.73956,3.041279 -6.60995,6.043367 -10.128906,8.224609 -0.743989,0.461192 -1.484478,0.903572 -2.210938,1.296875 L 43.5,32.058594 l -0.3125,0.808594 2.050781,1.277343 c 0.72646,-0.393303 1.466949,-0.835683 2.210938,-1.296875 3.518956,-2.181242 7.389346,-5.18333 10.128906,-8.224609 0.660591,-0.754011 0.869985,-0.967759 1.080078,-0.880859 0.07003,0.02896 0.140123,0.09101 0.226563,0.177734 0.220294,0.221022 0.312283,0.536417 0.333984,1.341797 0.02703,-1.587359 -0.03937,-2.048166 -0.333984,-2.34375 -0.08644,-0.08672 -0.156528,-0.148775 -0.226563,-0.177735 -0.05252,-0.02172 -0.104566,-0.02546 -0.164062,-0.0059 z m -1.044922,17.326172 c -0.28547,0.01812 -0.619328,0.262034 -1.052735,0.75 -1.476122,1.661941 -4.354768,3.51905 -6.982422,4.615234 -1.614439,0.650618 -3.997758,1.157995 -5.746093,1.001953 l -0.28125,0.980469 c 1.765108,0.241404 4.326943,-0.295209 6.027343,-0.980469 2.627653,-1.096184 5.5063,-2.953293 6.982422,-4.615234 0.693451,-0.780746 1.131966,-0.93543 1.525391,-0.542969 0.152221,0.151847 0.245167,0.382255 0.294922,0.666016 0.08244,-0.766592 0.0065,-1.367263 -0.294922,-1.667969 -0.147534,-0.147173 -0.301374,-0.217904 -0.472656,-0.207031 z"
       id="path10" /></g></svg>
