<?xml version="1.0" encoding="UTF-8" standalone="no"?>
<svg
   id="_图层_1"
   version="1.1"
   viewBox="0 0 64 64" width="24" height="24"
   sodipodi:docname="system76-driver.svg"
   xml:space="preserve"
   inkscape:version="1.4 (e7c3feb100, 2024-10-09)"
   xmlns:inkscape="http://www.inkscape.org/namespaces/inkscape"
   xmlns:sodipodi="http://sodipodi.sourceforge.net/DTD/sodipodi-0.dtd"
   xmlns="http://www.w3.org/2000/svg"
   xmlns:svg="http://www.w3.org/2000/svg"><sodipodi:namedview
     id="namedview26"
     pagecolor="#505050"
     bordercolor="#eeeeee"
     borderopacity="1"
     inkscape:showpageshadow="0"
     inkscape:pageopacity="0"
     inkscape:pagecheckerboard="0"
     inkscape:deskcolor="#505050"
     inkscape:zoom="10.6875"
     inkscape:cx="32"
     inkscape:cy="34.152047"
     inkscape:window-width="1920"
     inkscape:window-height="939"
     inkscape:window-x="0"
     inkscape:window-y="34"
     inkscape:window-maximized="1"
     inkscape:current-layer="_图层_1" /><!-- Generator: Adobe Illustrator 29.0.1, SVG Export Plug-In . SVG Version: 2.1.0 Build 192)  --><defs
     id="defs6"><style
       id="style1">
      .st0 {
        fill-opacity: .5;
      }

      .st0, .st1, .st2, .st3, .st4, .st5, .st6, .st7 {
        fill: #fff;
      }

      .st8 {
        fill: #133c9a;
      }

      .st2, .st9 {
        display: none;
      }

      .st3 {
        fill-opacity: .2;
      }

      .st4 {
        fill-opacity: .9;
      }

      .st10 {
        fill: #3370ff;
      }

      .st11 {
        fill: url(#_未命名的渐变_3);
      }

      .st12 {
        fill: url(#_未命名的渐变);
      }

      .st5 {
        fill-opacity: .3;
      }

      .st6 {
        fill-opacity: 0;
      }

      .st7 {
        fill-opacity: .7;
      }

      .st13 {
        fill: #00d6b9;
      }

      .st14 {
        fill: url(#_未命名的渐变_2);
      }
    </style><radialGradient
       id="_未命名的渐变"
       data-name="未命名的渐变"
       cx="123.9"
       cy="-40.2"
       fx="123.9"
       fy="-40.2"
       r="59.4"
       gradientTransform="translate(-26.8 25.5) scale(.6 -.7)"
       gradientUnits="userSpaceOnUse"><stop
         offset="0"
         stop-color="#db202e"
         id="stop1" /><stop
         offset="1"
         stop-color="#e01b24"
         id="stop2" /></radialGradient><radialGradient
       id="_未命名的渐变_2"
       data-name="未命名的渐变 2"
       cx="67.6"
       cy="26.8"
       fx="67.6"
       fy="26.8"
       r="105.2"
       gradientTransform="translate(-26.6 25.3) scale(.6 -.7)"
       gradientUnits="userSpaceOnUse"><stop
         offset="0"
         stop-color="#ffb648"
         id="stop3" /><stop
         offset="1"
         stop-color="#ff7800"
         stop-opacity="0"
         id="stop4" /></radialGradient><radialGradient
       id="_未命名的渐变_3"
       data-name="未命名的渐变 3"
       cx="61.7"
       cy="18.6"
       fx="61.7"
       fy="18.6"
       r="68"
       gradientTransform="translate(-26.8 25.8) scale(.6 -.7)"
       gradientUnits="userSpaceOnUse"><stop
         offset="0"
         stop-color="#c64600"
         id="stop5" /><stop
         offset="1"
         stop-color="#a51d2d"
         id="stop6" /></radialGradient></defs><path
     class="st1"
     d="M47.5,64.1H13.8c-7.6,0-13.8-6.3-13.8-13.8V13.7C0,6.2,6.2,0,13.7,0h36.6c7.5,0,13.7,6.2,13.7,13.7v36.6c0,7.5-6.2,13.7-13.7,13.7h-2.9.1Z"
     id="path6"
     style="fill:#4e4540;fill-opacity:1" /><g
     id="g41"
     transform="matrix(1.13868,0,0,1.1362471,-4.3909774,-4.5479122)"><path
       style="opacity:0.2"
       d="M 44.648438,8.0507812 33.570312,29.070312 c -0.12796,0.22514 -0.25116,0.452852 -0.36328,0.683594 l -0.0586,0.10938 0.004,0.004 c -2.011744,4.254564 -1.367286,9.368354 1.765624,12.98828 3.43219,3.965722 9.063216,5.240048 13.871094,3.144532 4.807878,-2.095516 7.709326,-7.090914 7.140626,-12.304688 -0.568698,-5.213778 -4.478414,-9.47075 -9.625,-10.480468 -0.13028,-0.02702 -0.261476,-0.03836 -0.394532,-0.03906 -2.43552,-0.0078 -2.768834,3.52 -0.375,3.96875 3.444594,0.675804 6.033434,3.49481 6.414062,6.984374 0.380628,3.489562 -1.539914,6.800606 -4.757812,8.203126 -3.217896,1.402522 -6.952846,0.556588 -9.25,-2.097656 -2.297152,-2.654248 -2.599752,-6.469782 -0.75,-9.453126 0.07684,-0.11546 0.14394,-0.238366 0.19532,-0.367188 L 48.089844,10.105469 A 28,28 0 0 0 44.648438,8.0507812 Z M 8,23 a 2.0001698,2.0001698 0 0 0 -1.6640624,3.109376 l 4.0000004,6 a 2.0001698,2.0001698 0 1 0 3.328124,-2.218752 L 11.738281,27 H 24.644532 L 11.261719,51.765624 A 28,28 0 0 0 14.25,54.636718 l 15.511718,-28.6875 A 2.0001698,2.0001698 0 0 0 28,23 Z M 35.65625,51 C 34.739758,51 34,51.884316 34,52.980468 v 0.03906 C 34,54.11568 34.739758,55 35.65625,55 H 49.3125 a 28,28 0 0 0 4.132812,-4 z"
       id="path2-8" /><path
       style="fill:#ffffff"
       d="M 44.648438,7.0507812 33.570312,28.070312 c -0.12796,0.22514 -0.25116,0.452852 -0.36328,0.683594 l -0.0586,0.10938 0.004,0.004 c -2.011744,4.254564 -1.367286,9.368354 1.765624,12.98828 3.43219,3.965722 9.063216,5.240048 13.871094,3.144532 4.807878,-2.095516 7.709326,-7.090914 7.140626,-12.304688 -0.568698,-5.213778 -4.478414,-9.47075 -9.625,-10.480468 -0.13028,-0.02702 -0.261476,-0.03836 -0.394532,-0.03906 -2.43552,-0.0078 -2.768834,3.52 -0.375,3.96875 3.444594,0.675804 6.033434,3.49481 6.414062,6.984374 0.380628,3.489562 -1.539914,6.800606 -4.757812,8.203126 -3.217896,1.402522 -6.952846,0.556588 -9.25,-2.097656 -2.297152,-2.654248 -2.599752,-6.469782 -0.75,-9.453126 0.07684,-0.11546 0.14394,-0.238366 0.19532,-0.367188 L 48.089844,9.1054688 A 28,28 0 0 0 44.648438,7.0507812 Z M 8,22 a 2.0001698,2.0001698 0 0 0 -1.6640624,3.109376 l 4.0000004,6 a 2.0001698,2.0001698 0 1 0 3.328124,-2.218752 L 11.738281,26 H 24.644532 L 11.261719,50.765624 A 28,28 0 0 0 14.25,53.636718 l 15.511718,-28.6875 A 2.0001698,2.0001698 0 0 0 28,22 Z"
       id="path3" /><path
       style="fill:#faa41a"
       d="M 35.65625,50 C 34.739758,50 34,50.884316 34,51.980468 v 0.03906 C 34,53.11568 34.739758,54 35.65625,54 H 49.3125 a 28,28 0 0 0 4.132812,-4 z"
       id="path4" /><path
       style="opacity:0.2;fill:#ffffff"
       d="M 35.65625,50 C 34.739758,50 34,50.884317 34,51.980469 v 0.03906 c 0,0.159502 0.02824,0.308438 0.0625,0.453125 C 34.25034,51.625256 34.88756,51 35.65625,51 h 16.855469 a 28,28 0 0 0 0.933593,-1 z"
       id="path6-4" /></g></svg>
