<?xml version="1.0" encoding="UTF-8"?>
<svg id="_图层_1" xmlns="http://www.w3.org/2000/svg" version="1.1" viewBox="0 0 64 64" width="24" height="24">
  <!-- Generator: Adobe Illustrator 29.0.1, SVG Export Plug-In . SVG Version: 2.1.0 Build 192)  -->
  <defs>
    <style>
      .st0 {
        fill: #5d51ae;
      }

      .st1 {
        fill: #4f4f4f;
      }

      .st2 {
        fill: #dc3636;
      }

      .st2, .st3, .st4, .st5, .st6, .st7, .st8 {
        display: none;
      }

      .st3, .st4, .st9, .st10, .st8, .st11 {
        isolation: isolate;
      }

      .st3, .st9, .st10, .st8 {
        opacity: .2;
      }

      .st4, .st12, .st10, .st8, .st11 {
        fill: #fff;
      }

      .st4, .st11 {
        opacity: .1;
      }

      .st13, .st7 {
        fill: #284b45;
      }

      .st14 {
        fill: #26aaff;
      }

      .st5 {
        fill: #0a384e;
      }

      .st15 {
        fill: #004465;
      }

      .st16 {
        fill: #db5637;
      }
    </style>
  </defs>
  <path class="st13" d="M50.5,64H13.9c-7.6,0-13.9-6.2-13.9-13.7V13.7C0,6.2,6.3,0,13.8,0h36.6c7.5,0,13.7,6.2,13.7,13.7v36.6c0,7.5-6.2,13.7-13.7,13.7h.1Z"/>
  <g class="st6">
    <path class="st9" d="M40.2,18.3c-2.6,0-4.9,1.1-6.6,2.9,3,2.3,5.3,5.5,5.3,9.1h-4c0-1.7-1.3-4-3.5-5.8-1.6-1.3-3.6-2.2-5.9-2.2h-13.3c-5,0-9.3,4.1-9.3,9.2v7.8c0,5.1,4.4,9.1,9.3,9.1h4.7c0,2.2,1.8,4,4,4,1,0,2-.4,2.7-1.1l3.2-2.9h-1.3c2.6,0,4.9-1.1,6.6-2.8-3-2.3-5.3-5.5-5.3-9.2h4c0,1.8,1.4,4.2,3.7,6,1.6,1.2,3.5,2,5.6,2h4.7l3.2,2.9c1.6,1.5,4.2,1.4,5.7-.2.7-.7,1.1-1.7,1.1-2.7v-.3c4.3-.7,8-4.2,8-8.8v-7.8c0-5.1-4.3-9.2-9.3-9.2h-13.3Z"/>
    <path class="st0" d="M40.2,17.3c-2.6,0-4.9,1.1-6.6,2.9,3,2.3,5.3,5.5,5.3,9.1h-4c0-1.7-1.3-4-3.5-5.8-1.6-1.3-3.6-2.2-5.9-2.2h-13.3c-5,0-9.3,4.1-9.3,9.2v7.8c0,5.1,4.4,9.1,9.3,9.1h4.7c0,2.2,1.8,4,4,4,1,0,2-.4,2.7-1.1l3.2-2.9h-1.3c2.6,0,4.9-1.1,6.6-2.8-3-2.3-5.3-5.5-5.3-9.2h4c0,1.8,1.4,4.2,3.7,6,1.6,1.2,3.5,2,5.6,2h4.7l3.2,2.9c1.6,1.5,4.2,1.4,5.7-.2.7-.7,1.1-1.7,1.1-2.7v-.3c4.3-.7,8-4.2,8-8.8v-7.8c0-5.1-4.3-9.2-9.3-9.2h-13.3Z"/>
    <path class="st9" d="M40.2,22.3c-3,0-5.3,2.3-5.3,5.2v7.8c0,2.9,2.4,5.1,5.3,5.1h6.3l4.4,4v-4h2.7c3,0,5.3-2.2,5.3-5.1v-7.8c0-2.9-2.4-5.2-5.3-5.2h-13.3ZM12.2,26.3c-3,0-5.3,2.3-5.3,5.2v7.8c0,2.9,2.4,5.1,5.3,5.1h8.7v4l4.4-4h.3c3,0,5.3-2.2,5.3-5.1v-7.8c0-2.9-2.4-5.2-5.3-5.2h-13.3Z"/>
    <path class="st12" d="M40.2,21.3c-3,0-5.3,2.3-5.3,5.2v7.8c0,2.9,2.4,5.1,5.3,5.1h6.3l4.4,4v-4h2.7c3,0,5.3-2.2,5.3-5.1v-7.8c0-2.9-2.4-5.2-5.3-5.2h-13.3ZM12.2,25.3c-3,0-5.3,2.3-5.3,5.2v7.8c0,2.9,2.4,5.1,5.3,5.1h8.7v4l4.4-4h.3c3,0,5.3-2.2,5.3-5.1v-7.8c0-2.9-2.4-5.2-5.3-5.2h-13.3Z"/>
    <path class="st11" d="M40.2,17.3c-2.6,0-4.9,1.1-6.6,2.9.2.1.4.3.6.5,1.6-1.4,3.7-2.3,6-2.3h13.3c5,0,9.3,4.1,9.3,9.2v-1c0-5.1-4.3-9.2-9.3-9.2h-13.3ZM12.2,21.3c-5,0-9.3,4.1-9.3,9.2v1c0-5.1,4.3-9.2,9.3-9.2h13.3c2.2,0,4.2.9,5.9,2.2,2.1,1.8,3.5,4.1,3.5,5.8h4c0-.3,0-.7,0-1h-3.9c0-1.7-1.3-4-3.5-5.8-1.6-1.3-3.6-2.2-5.9-2.2h-13.3ZM26.9,36.3c0,3.4,2,6.4,4.7,8.7.2-.2.4-.3.6-.5-2.7-2.1-4.8-5-5.2-8.2h0ZM25.8,48.3c0,0-.1,0-.2,0h.2Z"/>
  </g>
  <g class="st6">
    <path class="st3" d="M19.2,1.1h25.6c10.6,0,19.2,8.6,19.2,19.2v25.6c0,10.6-8.6,19.2-19.2,19.2h-25.6c-10.6,0-19.2-8.6-19.2-19.2v-25.6C0,9.7,8.6,1.1,19.2,1.1Z"/>
    <path class="st2" d="M19.2,0h25.6c10.6,0,19.2,8.6,19.2,19.2v25.6c0,10.6-8.6,19.2-19.2,19.2h-25.6C8.6,63.9,0,55.4,0,44.8v-25.6C0,8.6,8.6,0,19.2,0Z"/>
    <path class="st9" d="M15.6,17.1c-1.7,0-3,1.3-3,3v12.7c0,.8.3,1.6.9,2.1l13.2,13.2c1.2,1.2,3.1,1.2,4.2,0l12.7-12.7c1.2-1.2,1.2-3.1,0-4.2l-13.2-13.2c-.6-.6-1.3-.9-2.1-.9h-12.7ZM33.3,17.1l12.3,12.3c1.1,1.1,1.6,2.5,1.6,4s-.6,2.9-1.6,4l-10.9,10.9h0c1.2,1.2,3.1,1.2,4.2,0l12.7-12.7c1.2-1.2,1.2-3.1,0-4.2l-13.2-13.2c-.6-.6-1.3-.9-2.1-.9h-3ZM19.4,20.6c1.9,0,3.4,1.5,3.4,3.4s-1.5,3.4-3.4,3.4-3.4-1.5-3.4-3.4,1.5-3.4,3.4-3.4Z"/>
    <path class="st12" d="M15.6,16c-1.7,0-3,1.3-3,3v12.7c0,.8.3,1.6.9,2.1l13.2,13.2c1.2,1.2,3.1,1.2,4.2,0l12.7-12.7c1.2-1.2,1.2-3.1,0-4.2l-13.2-13.2c-.6-.6-1.3-.9-2.1-.9h-12.7ZM33.3,16l12.3,12.3c1.1,1.1,1.6,2.5,1.6,4s-.6,2.9-1.6,4l-10.9,10.9h0c1.2,1.2,3.1,1.2,4.2,0l12.7-12.7c1.2-1.2,1.2-3.1,0-4.2l-13.2-13.2c-.6-.6-1.3-.9-2.1-.9h-3ZM19.4,19.4c1.9,0,3.4,1.5,3.4,3.4s-1.5,3.4-3.4,3.4-3.4-1.5-3.4-3.4,1.5-3.4,3.4-3.4Z"/>
    <path class="st8" d="M19.2,0C8.6,0,0,8.6,0,19.2v1.1C0,9.7,8.6,1.1,19.2,1.1h25.6c10.6,0,19.2,8.6,19.2,19.2v-1.1C64,8.6,55.4,0,44.8,0h-25.6Z"/>
  </g>
  <g class="st6">
    <path class="st3" d="M3.2,1.1h57.6c1.8,0,3.2,1.4,3.2,3.2v57.5c0,1.8-1.4,3.2-3.2,3.2H3.2c-1.8,0-3.2-1.4-3.2-3.2V4.3C0,2.6,1.4,1.1,3.2,1.1Z"/>
    <path class="st5" d="M3.2,0h57.6c1.8,0,3.2,1.4,3.2,3.2v57.5c0,1.8-1.4,3.2-3.2,3.2H3.2c-1.8,0-3.2-1.4-3.2-3.2V3.2C0,1.4,1.4,0,3.2,0Z"/>
    <path class="st15" d="M20.4,0l9.8,26.2c-1.1.4-2,1-2.9,1.7L3.2,5.1c-.3.5-1.1.5-1.1,1.1L.1,12.6c0,.3,0,.5.2.7l24.6,17.6c-.7,1.3-1,2.8-1,4.3,0,.4,0,.8,0,1.1L0,41.1v11.2l25.4-12.1c.4.6.8,1.2,1.4,1.8L6.8,61.9l12.4,2.1,11.2-19.7c1,.4,2.1.6,3.2.6.2,0,.4,0,.6,0l2.1,19.2h10.6l-9-20.2c.6-.3,1.2-.7,1.7-1.1l17.5,19.2,2.2-1.4c2.2-2.6,4.3-4.6,4.6-7.8v-1.9s-21.5-11.8-21.5-11.8c.4-1,.6-2,.7-3l20.8-1.7v-10.9l-21.5,8.4c-.4-.9-.9-1.8-1.5-2.5L61.5,6l-.3-.5C61.2,2.9,55.5,0,52.9,0h-7.3s-9,26.1-9,26.1c-.4-.1-.8-.2-1.2-.3L38.3,0h-17.9Z"/>
    <path class="st9" d="M36,1.1v.6c0,.7-.6,13.8-1,24.2-.2,3.8-.3,6.9-.3,6.9,0,0,0,0,0,0,0,0,1.8-5.1,3.9-11.3C44.3,5.3,45.5,1.9,45.6,1.5v-.4c.1,0-9.7,0-9.7,0ZM25.4,14.5s-6.8,5.7-6.9,5.8c0,0,1.1,1.2,3.3,3.4,1.9,1.8,5.1,5,7.2,7.1,2.1,2.1,3.8,3.7,3.8,3.7s0,0,0,0h0s-1.4-3.8-3.1-8.4c-1.7-4.6-3.4-9.1-3.7-10-.3-.9-.7-1.6-.7-1.6h0ZM51.9,18.7c0,0-15.4,16.3-15.5,16.4,0,0,0,0,.2,0,0,0,4.6-1.8,10.1-3.9,5.4-2.1,9.9-3.9,9.9-3.9,0,0-4.6-8.6-4.7-8.6ZM21,29.2c0,0-.1,0-.1.1,0,.2-1.1,8.6-1.1,8.8s0,.2.1.2,2.4-.5,5.3-1.1c2.8-.6,5.2-1.1,5.2-1.1,0,0,0,0,0,0-.2-.1-9.3-6.7-9.4-6.8ZM53.6,36.1c0,0-15.5,1.3-15.6,1.4,0,0,0,0,0,0,0,0,3.1,1.7,6.9,3.8,3.8,2.1,6.9,3.8,7,3.8.1,0,.2-.4.9-4.5h0c.4-2.5.8-4.5.8-4.5h0ZM31.6,38.4c0,0-5.1,2.4-11.2,5.3s-12.3,5.9-13.9,6.6c-1.6.7-2.8,1.4-2.8,1.4,0,0,1.1,1.7,2.4,3.6,3.2,4.6,3.1,4.5,3.2,4.5s5.1-4.8,11.2-10.7h0c6.1-5.9,11.2-10.7,11.2-10.8,0,0,0,0-.1,0ZM35.8,39.5s0,0,0,0,.6,1.4,1.3,3,3.2,7.3,5.6,12.6c2.3,5.3,4.2,9.7,4.3,9.8v.2h.2c0,0,.2-.1.2-.1,0,0,1.7-1.1,3.7-2.4,2-1.3,3.7-2.4,3.7-2.4,0,0-18.9-20.7-19-20.7h0ZM33.5,39.9s0,0,0,0c-.1.1-7.5,13.4-7.5,13.4s.2.1.9.2c.5,0,2.5.3,4.5.6,2,.3,3.7.5,3.7.4,0,0,0-.1,0-.3,0-.2-1.1-10.7-1.4-13.2,0-.8-.1-1.1-.2-1.2h0Z"/>
    <path class="st14" d="M36,0v.6c0,.7-.6,13.8-1,24.2-.2,3.8-.3,6.9-.3,6.9,0,0,0,0,0,0,0,0,1.8-5.1,3.9-11.3C44.3,4.2,45.5.8,45.6.4v-.4c.1,0-9.7,0-9.7,0ZM25.4,13.3s-6.8,5.7-6.9,5.8c0,0,1.1,1.2,3.3,3.4,1.9,1.8,5.1,5,7.2,7.1,2.1,2.1,3.8,3.7,3.8,3.7s0,0,0,0h0s-1.4-3.8-3.1-8.4c-1.7-4.6-3.4-9.1-3.7-10-.3-.9-.7-1.6-.7-1.6h0ZM51.9,17.5c0,0-15.4,16.3-15.5,16.4,0,0,0,0,.2,0,0,0,4.6-1.8,10.1-3.9,5.4-2.1,9.9-3.9,9.9-3.9,0,0-4.6-8.6-4.7-8.6ZM21,28.1c0,0-.1,0-.1.1,0,.2-1.1,8.6-1.1,8.8s0,.2.1.2,2.4-.5,5.3-1.1c2.8-.6,5.2-1.1,5.2-1.1,0,0,0,0,0,0-.2-.1-9.3-6.7-9.4-6.8ZM53.6,35c0,0-15.5,1.3-15.6,1.4,0,0,0,0,0,0,0,0,3.1,1.7,6.9,3.8,3.8,2.1,6.9,3.8,7,3.8.1,0,.2-.4.9-4.5h0c.4-2.5.8-4.5.8-4.5h0ZM31.6,37.2c0,0-5.1,2.4-11.2,5.3-6.1,2.9-12.3,5.9-13.9,6.6-1.6.7-2.8,1.4-2.8,1.4,0,0,1.1,1.7,2.4,3.6,3.2,4.6,3.1,4.5,3.2,4.5s5.1-4.8,11.2-10.7h0c6.1-5.9,11.2-10.7,11.2-10.8,0,0,0,0-.1,0ZM35.8,38.4s0,0,0,0,.6,1.4,1.3,3,3.2,7.3,5.6,12.6c2.3,5.3,4.2,9.7,4.3,9.8v.2h.2c0,0,.2-.1.2-.1,0,0,1.7-1.1,3.7-2.4,2-1.3,3.7-2.4,3.7-2.4,0,0-18.9-20.7-19-20.7h0ZM33.5,38.8s0,0,0,0c-.1.1-7.5,13.4-7.5,13.4s.2.1.9.2c.5,0,2.5.3,4.5.6,2,.3,3.7.5,3.7.4,0,0,0-.1,0-.3,0-.2-1.1-10.7-1.4-13.2,0-.8-.1-1.1-.2-1.2h0Z"/>
    <path class="st4" d="M3.2,0C1.4,0,0,1.4,0,3.2v1.1C0,2.6,1.4,1.1,3.2,1.1h57.6c1.8,0,3.2,1.4,3.2,3.2v-1.1c0-1.8-1.4-3.2-3.2-3.2H3.2Z"/>
    <path class="st10" d="M36,0v.6c0,.7-.6,13.8-1,24.2-.2,3.8-.3,6.9-.2,6.9,0,0,0,0,0,0,0-.8,0-2.6.2-5.8.4-10.3,1-23.4,1-24.2v-.6h9.4s.3-.8.3-.8v-.4c.1,0-9.7,0-9.7,0ZM25.4,13.3s-6.8,5.7-6.9,5.8c0,0,.3.3.6.6,1-.9,6.3-5.3,6.3-5.3,0,0,.3.7.7,1.6.3.9,2,5.4,3.7,10,1.4,3.7,2.1,5.7,2.5,6.8,0,0,.6.5.6.5,0,0,0,0,0,0h0s-1.4-3.8-3.1-8.4c-1.7-4.6-3.4-9.1-3.7-10-.3-.9-.7-1.6-.7-1.6ZM51.9,17.5c0,0-15.4,16.3-15.5,16.4,0,0,0,0,.2,0,0,0,1.2-.5,1.4-.5,2.5-2.7,13.9-14.8,13.9-14.7,0,0,3.4,6.1,4.2,7.6,0,0,.5-.2.5-.2,0,0-4.6-8.6-4.7-8.6ZM21,28.1c0,0-.1,0-.1.1,0,.2-1.1,8.6-1.1,8.8s0,.2.1.2c.2-1.6.9-7.6,1-7.8,0-.1,0-.1.1-.1,0,0,6.4,4.6,8.3,6,.2,0,1.1-.2,1.1-.2,0,0,0,0,0,0-.2-.1-9.3-6.7-9.4-6.8ZM53.6,35c0,0-15.5,1.3-15.6,1.4,0,0,0,0,0,0,0,0,1.3.7,1.6.9,2.6-.3,13.4-1.2,13.7-1.2,0-.2.2-1.2.2-1.2ZM31.7,37.2s0,0-.1,0c0,0-5.1,2.4-11.2,5.3-6.1,2.9-12.3,5.9-13.9,6.6-1.6.7-2.8,1.4-2.8,1.4s.5.7.6.8c.5-.3,1.2-.6,2.3-1.1,1.6-.7,7.8-3.7,13.9-6.6,4.9-2.4,7.6-3.6,9.1-4.3.4-.4,2.2-2.1,2.2-2.1,0,0,0,0,0,0ZM35.8,38.4s0,0,0,0,.5,1.1.9,2c1.5,1.6,16.4,17.8,17.5,19.1,0,0,.7-.4.7-.4,0,0-18.9-20.7-19-20.7ZM33.5,38.8s0,0,0,0c-.1.1-7.5,13.4-7.5,13.4s.2,0,.6.1c.9-1.7,6.9-12.3,7-12.4,0,0,0,0,0,0,0,0,.1.4.2,1.2.2,2.3,1.1,11,1.3,12.4,0,0,0,0,0,0,0,0,0-.1,0-.3,0-.2-1.1-10.7-1.4-13.2,0-.8-.1-1.1-.2-1.2Z"/>
  </g>
  <g>
    <path class="st3" d="M3.2,1.1h57.7c1.8,0,3.2,1.4,3.2,3.2v57.5c0,1.8-1.4,3.2-3.2,3.2H3.2c-1.8,0-3.2-1.4-3.2-3.2V4.3C0,2.6,1.4,1.1,3.2,1.1Z"/>
    <rect class="st7" width="64.1" height="63.9" rx="3.2" ry="3.2"/>
    <path class="st1" d="M0,48v2.3c0,7.6,6.1,13.7,13.7,13.7h36.6c7.7,0,13.9-6.2,13.9-13.9v-2.1H0Z"/>
    <path class="st11" d="M0,48v1.1h64.1v-1.1H0Z"/>
    <rect class="st9" x="26.3" y="25.1" width="11.5" height="24"/>
    <rect class="st16" x="26.3" y="24" width="11.5" height="24"/>
    <path class="st9" d="M32.1,20.6l5.7-5.7h-11.5l5.7,5.7Z"/>
    <path class="st12" d="M32.1,19.4l5.7-5.7h-11.5l5.7,5.7Z"/>
    <path class="st10" d="M26.3,24v1.1h11.5v-1.1h-11.5Z"/>
    <path class="st4" d="M3.2,0C1.4,0,0,1.4,0,3.2v1.1C0,2.6,1.4,1.1,3.2,1.1h57.7c1.8,0,3.2,1.4,3.2,3.2v-1.1c0-1.8-1.4-3.2-3.2-3.2H3.2Z"/>
  </g>
</svg>