<?xml version="1.0" encoding="UTF-8"?>
<svg id="_图层_1" xmlns="http://www.w3.org/2000/svg" version="1.1" viewBox="0 0 64 64" width="24" height="24">
  <!-- Generator: Adobe Illustrator 29.0.1, SVG Export Plug-In . SVG Version: 2.1.0 Build 192)  -->
  <defs>
    <style>
      .st0, .st1, .st2 {
        display: none;
      }

      .st0, .st3 {
        fill: #3f3f3f;
      }

      .st1, .st2, .st4 {
        isolation: isolate;
      }

      .st1, .st4 {
        opacity: .2;
      }

      .st2 {
        opacity: .1;
      }

      .st2, .st5 {
        fill: #fff;
      }
    </style>
  </defs>
  <path class="st3" d="M50.3,64H13.9C6.3,64,.2,57.8.2,50.3V13.8C.2,6.2,6.3,0,13.9,0h36.5c7.5,0,13.7,6.2,13.7,13.7v36.5c0,7.5-6.1,13.7-13.7,13.7h0Z"/>
  <g>
    <circle class="st1" cx="32" cy="31.7" r="28"/>
    <circle class="st0" cx="32" cy="30.7" r="28"/>
    <path class="st4" d="M19.7,13.8c-1.5,0-2.8.6-4,1.7-.9.8-1.1,1.4.2,2.1,2.2,1.1,4.4,2.5,6.6,3.6,2.4,1.2,4.6.9,6.6-.7,1.3-1,1.4-1.8-.3-2.6-2-1-4-2.2-6-3.3-1-.6-2.1-.9-3.3-.9ZM43.7,15c-1.2,0-2.5.2-3.7.9-3.5,2-7.1,4.1-10.5,6.1-.7.4-1.8.5-1.8,1.4,0,1.1,1.1,1.5,1.8,2,2,1.1,4,1,5.9-.1,3.9-2.2,7.7-4.5,11.6-6.7,1.5-.8,1.1-1.4.1-2.3-1-.8-2.1-1.3-3.3-1.4ZM52.2,23.8c-.3,0-.7.1-1.2.4-2.2,1.4-4.6,2.5-6.8,3.8-2.3,1.4-3.2,3.4-2.9,6,.2,1.7.8,2.1,2.5,1.1,2-1.3,4.1-2.4,6.2-3.5,1.1-.6,1.9-1.3,2.5-2.3.8-1.4.9-2.8.6-4.3-.1-.8-.4-1.2-.9-1.3ZM11.9,24c-.5,0-.7.6-.8,1.5-.4,2.5.7,4.9,3.2,6.3,3.5,2,7.1,4,10.7,5.9.7.4,1.4,1.3,2.2.9.9-.5.7-1.7.8-2.6-.1-2.3-1.2-3.9-3.1-5-3.9-2.2-7.9-4.3-11.7-6.5-.5-.3-.9-.4-1.2-.4ZM38.8,31.7c-.7,0-1.4.5-2,.8-1.9,1.2-2.8,3-2.8,5.2,0,4.5.2,9,.2,13.5,0,1.7.7,1.7,2,1.2,2.4-.9,3.9-3,3.9-5.9,0-4.1,0-8.2-.2-12.3,0-.8.4-1.9-.3-2.3-.2-.1-.5-.2-.7-.2ZM23.1,38.7c-.8,0-1.2.4-1.1,1.7.2,2.2.1,4.3.1,6.5s.2,2.2.9,3.1c.8,1.3,1.9,2,3.3,2.5,1.2.4,1.7.2,1.7-1.2-.1-2.4,0-4.8-.2-7.2,0-2.5-1.4-4.2-3.8-5.1-.4-.2-.7-.2-1-.3Z"/>
    <path class="st5" d="M19.7,12.8c-1.5,0-2.8.6-4,1.7-.9.8-1.1,1.4.2,2.1,2.2,1.1,4.4,2.5,6.6,3.6,2.4,1.2,4.6.9,6.6-.7,1.3-1,1.4-1.8-.3-2.6-2-1-4-2.2-6-3.3-1-.6-2.1-.9-3.3-.9ZM43.7,14c-1.2,0-2.5.2-3.7.9-3.5,2-7.1,4.1-10.5,6.1-.7.4-1.8.5-1.8,1.4,0,1.1,1.1,1.5,1.8,2,2,1.1,4,1,5.9-.1,3.9-2.2,7.7-4.5,11.6-6.7,1.5-.8,1.1-1.4.1-2.3-1-.8-2.1-1.3-3.3-1.4ZM52.2,22.8c-.3,0-.7.1-1.2.4-2.2,1.4-4.6,2.5-6.8,3.8-2.3,1.4-3.2,3.4-2.9,6,.2,1.7.8,2.1,2.5,1.1,2-1.3,4.1-2.4,6.2-3.5,1.1-.6,1.9-1.3,2.5-2.3.8-1.4.9-2.8.6-4.3-.1-.8-.4-1.2-.9-1.3ZM11.9,23c-.5,0-.7.6-.8,1.5-.4,2.5.7,4.9,3.2,6.3,3.5,2,7.1,4,10.7,5.9.7.4,1.4,1.3,2.2.9.9-.5.7-1.7.8-2.6-.1-2.3-1.2-3.9-3.1-5-3.9-2.2-7.9-4.3-11.7-6.5-.5-.3-.9-.4-1.2-.4ZM38.8,30.7c-.7,0-1.4.5-2,.8-1.9,1.2-2.8,3-2.8,5.2,0,4.5.2,9,.2,13.5,0,1.7.7,1.7,2,1.2,2.4-.9,3.9-3,3.9-5.9,0-4.1,0-8.2-.2-12.3,0-.8.4-1.9-.3-2.3-.2-.1-.5-.2-.7-.2ZM23.1,37.7c-.8,0-1.2.4-1.1,1.7.2,2.2.1,4.3.1,6.5s.2,2.2.9,3.1c.8,1.3,1.9,2,3.3,2.5,1.2.4,1.7.2,1.7-1.2-.1-2.4,0-4.8-.2-7.2,0-2.5-1.4-4.2-3.8-5.1-.4-.2-.7-.2-1-.3Z"/>
    <path class="st2" d="M32,2.7C16.5,2.7,4,15.2,4,30.7c0,.2,0,.3,0,.5.3-15.3,12.7-27.5,28-27.5,15.3,0,27.7,12.2,28,27.5,0-.2,0-.3,0-.5,0-15.5-12.5-28-28-28Z"/>
  </g>
</svg>