<?xml version="1.0" encoding="UTF-8"?>
<svg id="_图层_1" xmlns="http://www.w3.org/2000/svg" version="1.1" viewBox="0 0 64 64" width="24" height="24">
  <!-- Generator: Adobe Illustrator 29.0.1, SVG Export Plug-In . SVG Version: 2.1.0 Build 192)  -->
  <defs>
    <style>
      .st0, .st1, .st2 {
        display: none;
      }

      .st0, .st1, .st3 {
        isolation: isolate;
      }

      .st0, .st3 {
        opacity: .2;
      }

      .st1 {
        opacity: .1;
      }

      .st1, .st4 {
        fill: #fff;
      }

      .st2, .st5 {
        fill: #4c459c;
      }
    </style>
  </defs>
  <path class="st5" d="M50.4,64H13.8c-7.6,0-13.8-6.2-13.8-13.7V13.7C0,6.2,6.2,0,13.7,0h36.5c7.5,0,13.7,6.2,13.7,13.7v36.6c0,7.5-6.2,13.7-13.7,13.7h.1Z"/>
  <g>
    <path class="st0" d="M19.2,1.5h25.6c10.6,0,19.2,8.5,19.2,19v25.3c0,10.5-8.6,19-19.2,19h-25.6c-10.6,0-19.2-8.5-19.2-19v-25.3C0,10,8.6,1.5,19.2,1.5Z"/>
    <path class="st2" d="M19.2.4h25.6c10.6,0,19.2,8.5,19.2,19v25.3c0,10.5-8.6,19-19.2,19h-25.6C8.6,63.7,0,55.2,0,44.7v-25.3C0,8.9,8.6.4,19.2.4Z"/>
    <path class="st3" d="M50.2,12.8c-2.5,0-4.6,2-4.6,4.5,0,.5,0,.9.2,1.4l-7.8,8.5c-1.2-.5-2.5-.8-3.8-.8-4.9,0-9,3.9-9.1,8.7l-11.1,1.6c-.6-.8-1.6-1.2-2.6-1.2-1.8,0-3.3,1.4-3.3,3.2,0,1.8,1.5,3.2,3.3,3.2,1.3,0,2.5-.8,3-2l11.1-1.6c1.3,3.7,4.7,6.1,8.6,6.1,5,0,9.1-4,9.1-9,0-1.8-.6-3.6-1.6-5.1l7.8-8.5c.2,0,.4,0,.6,0,2.5,0,4.6-2,4.6-4.5s-2-4.5-4.6-4.5ZM24,15.1c-1.9,0-3.4,1.5-3.4,3.4h0c0,1.9,1.5,3.4,3.4,3.4h0c1.9,0,3.4-1.5,3.4-3.4h0c0-1.9-1.5-3.4-3.4-3.4h0ZM50.2,15.1c1.3,0,2.3,1,2.3,2.3s-1,2.3-2.3,2.3-2.3-1-2.3-2.3,1-2.3,2.3-2.3ZM27.1,21.4l-1.7,1.2,1.1,1.6,1.7-1.2-1.1-1.6ZM28.8,23.8l-1.7,1.2,1.5,2.1,1.7-1.2-1.5-2.1ZM34.2,30.9c2.5,0,4.6,2,4.6,4.5s-2,4.5-4.6,4.5-4.6-2-4.6-4.5,2-4.5,4.6-4.5ZM11.5,37.1c.9,0,1.6.7,1.6,1.6,0,.9-.7,1.6-1.6,1.6-.9,0-1.6-.7-1.6-1.6,0-.9.7-1.6,1.6-1.6ZM42.1,41.3l-1.6,1.6,2.1,2,1.6-1.6-2.1-2ZM44.9,44.1l-1.6,1.6,2.4,2.4,1.6-1.6-2.4-2.4ZM30.2,44.3l-1.4,3.5,2,.7,1.4-3.5-2-.7ZM49.6,46.7c-2.2,0-4,1.8-4,4h0c0,2.2,1.8,4,4,4h0c2.2,0,4-1.8,4-4h0c0-2.2-1.8-4-4-4h0ZM28.5,49c-1.9,0-3.4,1.5-3.4,3.4h0c0,1.9,1.5,3.4,3.4,3.4h0c1.9,0,3.4-1.5,3.4-3.4h0c0-1.9-1.5-3.4-3.4-3.4h0Z"/>
    <path class="st4" d="M50.2,11.7c-2.5,0-4.6,2-4.6,4.5,0,.5,0,.9.2,1.4l-7.8,8.5c-1.2-.5-2.5-.8-3.8-.8-4.9,0-9,3.9-9.1,8.7l-11.1,1.6c-.6-.8-1.6-1.2-2.6-1.2-1.8,0-3.3,1.4-3.3,3.2,0,1.8,1.5,3.2,3.3,3.2,1.3,0,2.5-.8,3-2l11.1-1.6c1.3,3.7,4.7,6.1,8.6,6.1,5,0,9.1-4,9.1-9,0-1.8-.6-3.6-1.6-5.1l7.8-8.5c.2,0,.4,0,.6,0,2.5,0,4.6-2,4.6-4.5s-2-4.5-4.6-4.5ZM24,14c-1.9,0-3.4,1.5-3.4,3.4h0c0,1.9,1.5,3.4,3.4,3.4h0c1.9,0,3.4-1.5,3.4-3.4h0c0-1.9-1.5-3.4-3.4-3.4h0ZM50.2,14c1.3,0,2.3,1,2.3,2.3s-1,2.3-2.3,2.3-2.3-1-2.3-2.3,1-2.3,2.3-2.3ZM27.1,20.2l-1.7,1.2,1.1,1.6,1.7-1.2-1.1-1.6ZM28.8,22.6l-1.7,1.2,1.5,2.1,1.7-1.2-1.5-2.1ZM34.2,29.8c2.5,0,4.6,2,4.6,4.5s-2,4.5-4.6,4.5-4.6-2-4.6-4.5,2-4.5,4.6-4.5ZM11.5,36c.9,0,1.6.7,1.6,1.6,0,.9-.7,1.6-1.6,1.6-.9,0-1.6-.7-1.6-1.6,0-.9.7-1.6,1.6-1.6ZM42.1,40.2l-1.6,1.6,2.1,2,1.6-1.6-2.1-2ZM44.9,43l-1.6,1.6,2.4,2.4,1.6-1.6-2.4-2.4ZM30.2,43.2l-1.4,3.5,2,.7,1.4-3.5-2-.7ZM49.6,45.6c-2.2,0-4,1.8-4,4h0c0,2.2,1.8,4,4,4h0c2.2,0,4-1.8,4-4h0c0-2.2-1.8-4-4-4h0ZM28.5,47.9c-1.9,0-3.4,1.5-3.4,3.4h0c0,1.9,1.5,3.4,3.4,3.4h0c1.9,0,3.4-1.5,3.4-3.4h0c0-1.9-1.5-3.4-3.4-3.4h0Z"/>
    <path class="st1" d="M19.2.4C8.5.4,0,8.9,0,19.4v1.1C0,10,8.5,1.5,19.2,1.5h25.6c10.6,0,19.2,8.5,19.2,19v-1.1C63.9,8.9,55.3.4,44.7.4h-25.6Z"/>
  </g>
</svg>