<?xml version="1.0" standalone="no"?><!DOCTYPE svg PUBLIC "-//W3C//DTD SVG 1.1//EN" "http://www.w3.org/Graphics/SVG/1.1/DTD/svg11.dtd"><svg t="1722860529232" class="icon" viewBox="0 0 1252 1024" version="1.1" xmlns="http://www.w3.org/2000/svg" p-id="81178" xmlns:xlink="http://www.w3.org/1999/xlink" width="24.53125" height="24"><path d="M939.723 554.61c-0.028-27.904 19.797-48.185 47.275-48.356 26.368-0.142 48.412 20.765 47.786 45.37-0.71 29.212-21.674 50.915-48.753 50.374-24.52-0.455-46.308-22.755-46.308-47.388z" fill="#7F8383" p-id="81179"></path><path d="M148.512 785.778a7.14 7.14 0 0 0-1.65-4.38 4.38 4.38 0 0 0-1.137-4.438c5.518-24.69 9.529-49.863 16.924-73.984 7.936-25.828 0.939-42.667-21.105-58.112-50.632-35.442-87.723-83.342-111.93-139.662-46.648-108.374-39.224-212.68 29.782-310.784C168.765 38.912 324.186-9.017 504.836 5.688c118.585 9.615 220.729 57.316 302.108 145.352 50.233 54.329 81.38 117.96 87.24 192.711-22.016 0.17-44.232-1.422-66.048 0.74-96.143 9.7-183.865 38.883-252.246 111.872-66.844 71.31-101.83 152.263-78.506 251.534 1.65 7.111 2.73 14.507 5.319 21.276 4.181 10.951-3.414 14.109-10.525 18.006l-9.813 0.569h-68.637l-9.67-0.91c-33.167-6.4-66.22-13.426-99.5-18.916-13.624-2.276-27.391 0.199-39.082 8.96a4.494 4.494 0 0 0-3.982 1.479c-6.827-0.2-11.833 3.1-15.9 8.249a5.092 5.092 0 0 0-3.983 1.735l-5.376 3.413-4.551 1.963-4.494 3.157-0.256 0.228a20.764 20.764 0 0 0-15.73 9.187 5.32 5.32 0 0 0-4.04 1.878l-4.835 3.413-5.12 2.332-3.555 2.845-1.024 0.597-5.69 3.84-4.38 2.048-4.295 3.186-0.398 0.284-19.57 5.547a5.888 5.888 0 0 0-4.153-1.308l-5.632-5.177z" fill="#85DA46" p-id="81180"></path><path d="M492.178 747.179c7.111-3.897 14.706-7.055 10.525-18.006-2.589-6.77-3.67-14.137-5.348-21.276-23.267-99.271 11.69-180.224 78.507-251.534C644.27 383.374 731.993 354.19 828.164 344.49c21.788-2.19 44.004-0.57 66.02-0.74 125.127 9.16 231.48 55.182 302.961 162.361 75.634 113.351 59.677 244.48-32.796 342.756-15.616 16.554-31.005 33.536-50.46 46.279-9.217 6.03-13.768 14.023-9.046 27.164 6.884 19.001 10.496 39.225 15.161 58.994 1.906 8.021 3.47 16.896-4.096 22.755-7.908 6.06-17.124 4.637-25.486 0.171-13.654-7.31-27.961-13.88-40.391-22.955-30.663-22.414-62.294-24.177-99.47-16.896-128.143 25.145-245.874-0.74-349.924-81.777-40.533-31.574-72.647-69.831-92.075-117.789-3.413-8.39-11.32-11.378-16.355-17.635z m447.545-192.57c0 24.662 21.789 46.934 46.308 47.39 27.079 0.511 48.042-21.163 48.782-50.347 0.597-24.633-21.447-45.54-47.815-45.398-27.478 0.17-47.303 20.452-47.275 48.356z m-152.576-0.369c0.142-27.591-19.911-47.986-47.16-47.957-26.227 0.028-46.195 19.541-46.735 45.738-0.597 28.16 18.972 49.437 45.596 49.579 27.08 0.142 48.157-20.508 48.3-47.36z" fill="#EDEFF0" p-id="81181"></path><path d="M787.147 554.24c-0.142 26.852-21.22 47.502-48.299 47.36-26.624-0.142-46.193-21.447-45.596-49.579 0.569-26.169 20.48-45.71 46.734-45.738 27.25 0 47.303 20.366 47.161 47.957z" fill="#7F8383" p-id="81182"></path><path d="M515.275 299.065c0-27.904 19.797-48.185 47.275-48.356 26.368-0.142 48.412 20.765 47.786 45.37-0.71 29.212-21.674 50.886-48.753 50.374-24.52-0.455-46.308-22.755-46.308-47.388z m-152.576-0.37c-0.142 26.823-21.191 47.502-48.299 47.332-26.624-0.143-46.193-21.419-45.596-49.579 0.569-26.169 20.508-45.682 46.734-45.71 27.25-0.029 47.303 20.338 47.161 47.957z" fill="#116F20" p-id="81183"></path></svg>
