<?xml version="1.0" encoding="UTF-8"?>
<svg id="_图层_1" xmlns="http://www.w3.org/2000/svg" version="1.1" viewBox="0 0 64 64" width="24" height="24">
  <!-- Generator: Adobe Illustrator 29.0.1, SVG Export Plug-In . SVG Version: 2.1.0 Build 192)  -->
  <defs>
    <style>
      .st0, .st1, .st2 {
        opacity: .2;
      }

      .st0, .st1, .st2, .st3 {
        isolation: isolate;
      }

      .st0, .st4, .st5, .st6, .st2 {
        display: none;
      }

      .st7, .st2, .st3 {
        fill: #fff;
      }

      .st4 {
        fill: #a42a2a;
      }

      .st6, .st8 {
        fill: #47ad5d;
      }

      .st9 {
        fill: #e4e4e4;
      }

      .st3 {
        opacity: .1;
      }
    </style>
  </defs>
  <path class="st8" d="M50.3,64H13.9C6.3,64,.2,57.8.2,50.3V13.8C.2,6.2,6.3,0,13.9,0h36.5c7.5,0,13.7,6.2,13.7,13.7v36.5c0,7.5-6.1,13.7-13.7,13.7h0Z"/>
  <g class="st5">
    <path class="st0" d="M32.5,9.2c-1.3,0-2.5.5-3.5,1.4L9.6,30.1c-1.9,1.9-1.9,5.1,0,7l19.4,19.4c1.9,1.9,5.1,1.9,7,0l19.4-19.4c1.9-1.9,1.9-5.1,0-7l-19.4-19.4c-1-1-2.2-1.4-3.5-1.4Z"/>
    <path class="st4" d="M32.5,8.4c-1.3,0-2.5.5-3.5,1.4L9.6,29.2c-1.9,1.9-1.9,5.1,0,7l19.4,19.4c1.9,1.9,5.1,1.9,7,0l19.4-19.4c1.9-1.9,1.9-5.1,0-7l-19.4-19.4c-1-1-2.2-1.4-3.5-1.4Z"/>
    <path class="st2" d="M32.5,8.4c-1.3,0-2.6.5-3.5,1.4L9.6,29.2c-1.1,1.1-1.5,2.5-1.4,3.9,0-1.1.6-2.2,1.4-3.1L29,10.6c1-1,2.2-1.4,3.5-1.4s2.5.5,3.5,1.4l19.4,19.4c.9.9,1.3,2,1.4,3.1.1-1.4-.4-2.9-1.4-3.9l-19.4-19.4c-1-1-2.2-1.4-3.5-1.4Z"/>
    <path class="st1" d="M13.9,15.7c-1.3,0-2.4,1.1-2.4,2.4s1.1,2.4,2.4,2.4h.8v27.6c0,2.7,2.2,4.9,4.9,4.9,1.3,0,2.5-.5,3.4-1.4l31.8-31.1c1.2-.2,2.1-1.2,2.1-2.4s-1.1-2.4-2.4-2.4h-11.4c-1.3,0-2.4,1.1-2.4,2.4s.3,1.4.8,1.8l-17,16.7v-16h.8c1.3,0,2.4-1.1,2.4-2.4s-1.1-2.4-2.4-2.4h-11.4Z"/>
    <path class="st9" d="M13.9,14.9c-1.3,0-2.4,1.1-2.4,2.4s1.1,2.4,2.4,2.4h.8v27.6c0,2.7,2.2,4.9,4.9,4.9,1.3,0,2.5-.5,3.4-1.4l31.8-31.1c1.2-.2,2.1-1.2,2.1-2.4s-1.1-2.4-2.4-2.4h-11.4c-1.3,0-2.4,1.1-2.4,2.4s.3,1.4.8,1.8l-17,16.7v-16h.8c1.3,0,2.4-1.1,2.4-2.4s-1.1-2.4-2.4-2.4h-11.4Z"/>
    <path class="st3" d="M13.9,14.9c-1.3,0-2.4,1.1-2.4,2.4s0,.3,0,.4c.2-1.2,1.2-2,2.4-2h11.4c1.2,0,2.2.9,2.4,2,0-.1,0-.3,0-.4,0-1.3-1.1-2.4-2.4-2.4h-11.4ZM43,14.9c-1.3,0-2.4,1.1-2.4,2.4s0,.3,0,.4c.2-1.1,1.2-2,2.4-2h11.4c1.2,0,2.2.9,2.4,2,0-.1,0-.3,0-.4,0-1.3-1.1-2.4-2.4-2.4h-11.4ZM41,19.5l-16.6,16.3v.8l17-16.7c-.1-.1-.3-.3-.4-.4Z"/>
  </g>
  <g>
    <path class="st0" d="M32,1C14.3,1,0,15.4,0,33.1c0,5.3,1.3,10.5,3.8,15.2h0c1.6,3.7,1.5,4.8,1.2,8-.2,2.2-.8,4.5-1.5,5.7-.7,1.1-1.2,2.3-1.2,2.6,0,.9,5.4.6,10.2-.6,5.3-1.4,6.1-1.5,10-.3,0,0,0,0,.1,0,.2,0,.3,0,.5.2h0c2.9.8,5.9,1.3,8.9,1.3,17.7,0,32-14.4,32-32.1S49.7,1,32,1Z"/>
    <path class="st6" d="M32-.1C14.3-.1,0,14.2,0,32c0,5.3,1.3,10.5,3.8,15.2h0c1.6,3.7,1.5,4.8,1.2,8-.2,2.2-.8,4.5-1.5,5.7-.7,1.1-1.2,2.3-1.2,2.6,0,.9,5.4.6,10.2-.6,5.3-1.4,6.1-1.5,10-.3,0,0,0,0,.1,0,.2,0,.3,0,.5.2h0c2.9.8,5.9,1.3,8.9,1.3,17.7,0,32-14.4,32-32.1S49.7-.1,32-.1Z"/>
    <path class="st1" d="M44,47.2c2.4-1.1,3.5-2.6,3.9-5,.3-1.9.2-2.3-3.5-4.1-4.6-2.2-4.4-2.2-6.4.2-1.2,1.5-1.8,2-2.2,2-4.7-1.3-9.5-5-11.1-9.8,0-.2.5-1,1.1-1.7,1.8-2.1,1.8-2.2.2-6.1-1.8-4.5-2.4-4.5-4.4-4.5-2,0-2.7.2-4,2-1.3,1.8-1.8,3.3-1.8,5.5,0,2.8.9,5.1,3.6,8.9,4.6,6.5,9.1,10.1,15.6,12.3,4,1.3,6.4,1.4,8.8.3Z"/>
    <path class="st7" d="M44,46.1c2.4-1.1,3.5-2.6,3.9-5,.3-1.9.2-2.3-3.5-4.1-4.6-2.2-4.4-2.2-6.4.2-1.2,1.5-1.8,2-2.2,2-4.7-1.3-9.5-5-11.1-9.8,0-.2.5-1,1.1-1.7,1.8-2.1,1.8-2.2.2-6.1-1.8-4.5-2.4-4.5-4.4-4.5-2,0-2.7.2-4,2-1.3,1.8-1.8,3.3-1.8,5.5,0,2.8.9,5.1,3.6,8.9,4.6,6.5,9.1,10.1,15.6,12.3,4,1.3,6.4,1.4,8.8.3Z"/>
    <path class="st2" d="M32-.1C14.3-.1,0,14.2,0,32c0,.2,0,.3,0,.5C.4,15,14.6,1,32,1c17.5,0,31.7,14.1,32,31.6,0-.2,0-.4,0-.7C64,14.2,49.7-.1,32-.1ZM5.1,53.2c0,.6,0,1.2-.1,1.9-.2,2.2-.8,4.5-1.5,5.7-.7,1.1-1.2,2.3-1.2,2.6s.1.2.3.3c.2-.5.5-1.2.9-1.8.7-1.3,1.3-3.5,1.5-5.7.1-1.3.2-2.2.1-3.1Z"/>
  </g>
</svg>