<?xml version="1.0" encoding="UTF-8"?>
<svg id="_图层_1" xmlns="http://www.w3.org/2000/svg" version="1.1" viewBox="0 0 64 64" width="24" height="24">
  <!-- Generator: Adobe Illustrator 29.0.1, SVG Export Plug-In . SVG Version: 2.1.0 Build 192)  -->
  <defs>
    <style>
      .st0 {
        fill: #e8b600;
      }

      .st0, .st1, .st2, .st3, .st4, .st5, .st6, .st7, .st8, .st9, .st10, .st11, .st12, .st13, .st14, .st15, .st16, .st17, .st18, .st19, .st20, .st21, .st22, .st23, .st24, .st25, .st26, .st27, .st28, .st29, .st30, .st31, .st32 {
        display: none;
      }

      .st1 {
        fill: #e56700;
      }

      .st33, .st16 {
        fill: #1050e7;
      }

      .st34, .st13 {
        fill: #476dff;
      }

      .st2 {
        fill: #e83d62;
      }

      .st3 {
        fill: #7c33de;
      }

      .st4 {
        fill: #fb4f6d;
      }

      .st35, .st14 {
        fill: #3b64fc;
      }

      .st36, .st37, .st9 {
        fill: #fff;
      }

      .st5 {
        fill: #109968;
      }

      .st6 {
        fill: #dbac00;
      }

      .st7 {
        fill: #0070cc;
      }

      .st8 {
        fill: #de325b;
      }

      .st37 {
        fill-rule: evenodd;
      }

      .st38, .st24 {
        fill: #5589ff;
      }

      .st10 {
        fill: #40a9ff;
      }

      .st11 {
        fill: #9147f0;
      }

      .st12 {
        fill: #df4023;
      }

      .st15 {
        fill: #007d53;
      }

      .st17 {
        fill: #38b27f;
      }

      .st18 {
        fill: #944bf0;
      }

      .st19 {
        fill: #ff9a47;
      }

      .st20 {
        fill: #f7c200;
      }

      .st21 {
        fill: #a761ff;
      }

      .st22 {
        fill: #1885de;
      }

      .st25 {
        fill: #ff7a0d;
      }

      .st26 {
        fill: #21a170;
      }

      .st27 {
        fill: #c9134b;
      }

      .st28 {
        fill: #c82912;
      }

      .st29 {
        fill: #ebb800;
      }

      .st30 {
        fill: #ff8119;
      }

      .st31 {
        fill: #e54627;
      }

      .st32 {
        fill: #f85836;
      }
    </style>
  </defs>
  <path class="st35" d="M50.4,64H13.8c-7.6,0-13.8-6.2-13.8-13.7V13.7C0,6.2,6.2,0,13.7,0h36.6c7.5,0,13.7,6.2,13.7,13.7v36.6c0,7.5-6.2,13.7-13.7,13.7h.1Z"/>
  <g>
    <path class="st33" d="M0,49h64v1c0,7.7-6.3,14-14,14H14c-7.7,0-14-6.3-14-14v-1Z"/>
    <path class="st38" d="M50.3,59c-.6-.9-1.2-2.5-1.2-10v-29.7c0-7.5,0-10.6,0-19.3h1.2c7.5,0,13.7,6.2,13.7,13.7v36.6c0,7.5-6.9,13.9-12.2,10"/>
    <path class="st34" d="M49.1,55.4c0,3.3,2.8,6,6.3,6h0c3.7,0,6.7-2.9,6.7-6.4s-2.8-6-6.3-6h-6.7v6.4Z"/>
    <path class="st9" d="M18.2,13.1l-11.7,3.8,4.3,5.4,11.7-3.8,4.3,5.4,11.7-3.8-4.3-5.4-11.7,3.8-4.3-5.4h0ZM22.2,25.1l-11.7,3.8,4.3,5.4,11.7-3.8,4.3,5.4,11.7-3.8-4.3-5.4-11.7,3.8-4.3-5.4h0Z"/>
  </g>
  <g class="st23">
    <path class="st5" d="M0,8C0,3.6,3.6,0,8,0h47.9C60.3,0,63.9,3.6,63.9,8v48c0,4.4-3.6,8-8,8H8c-4.4,0-8-3.6-8-8,0,0,0-48,0-48Z"/>
    <path class="st15" d="M0,49h63.9v7c0,4.4-3.6,8-8,8H8c-4.4,0-8-3.6-8-8,0,0,0-7,0-7Z"/>
    <path class="st17" d="M55.9,0C60.3,0,63.9,3.6,63.9,8v48.2c0,4.3-3.5,7.7-7.7,7.7s-7.2-3.2-7.2-7.3V0h7Z"/>
    <path class="st26" d="M48.9,56.7c0,4,3.2,7.3,7.2,7.3s7.7-3.5,7.7-7.7-3.2-7.3-7.2-7.3h-7.7v7.7h0Z"/>
    <path class="st36" d="M16.5,13.6c2.1-2.1,5.4-3.1,9.3-2.8,4.1.4,6.6,2.3,7.8,4.4.5.8.8,1.7,1,2.7,0,.4.1.7.1.9,0,.1,0,.3,0,.4h0s0,0-2.5,0-2.5,0-2.5,0h0s0,0,0,0h0c0-.1,0-.2,0-.4,0-.4-.2-.8-.4-1.1-.4-.7-1.4-1.8-4-2-2.9-.2-4.5.5-5.3,1.3-.7.7-.8,1.6-.5,2.4.2.5.8,1,2.1,1.6,1.2.5,2.5.8,4.1,1.1l.9.2c1.8.4,3.9.9,5.5,1.9.9.5,1.7,1.2,2.3,2.2.6,1,1,2.2,1,3.4,0,3.7-2.5,6.2-5.3,7.3-2.8,1.1-6.1,1.2-9.1.4-3.5-1-5.5-2.9-6.5-4.9-.4-.8-.7-1.6-.9-2.4,0-.3,0-.5-.1-.8,0-.1,0-.3,0-.4h0s0,0,2.5,0q2.5,0,2.5,0h0s0,0,0,0h0c0,0,0,.2,0,.3,0,.3.2.6.4,1.1.4.7,1.3,1.8,3.4,2.4,2.1.6,4.3.4,5.9-.2,1.6-.6,2.2-1.6,2.2-2.7s0-.6-.2-.8c-.1-.2-.3-.4-.7-.6-.9-.5-2.2-.9-4.1-1.4-.2,0-.5-.1-.8-.2-1.5-.3-3.3-.8-4.9-1.4-1.8-.7-3.8-1.9-4.9-4.2-1.2-2.8-.6-5.8,1.5-8Z"/>
  </g>
  <g class="st23">
    <path class="st0" d="M0,8C0,3.6,3.6,0,8,0h48c4.4,0,8,3.6,8,8v48c0,4.4-3.6,8-8,8H8c-4.4,0-8-3.6-8-8V8Z"/>
    <path class="st6" d="M0,49h64v7c0,4.4-3.6,8-8,8H8c-4.4,0-8-3.6-8-8v-7Z"/>
    <path class="st20" d="M56,0c4.4,0,8,3.6,8,8v48.3c0,4.3-3.5,7.7-7.7,7.7-4,0-7.3-3.2-7.3-7.3V0h7Z"/>
    <path class="st29" d="M49,56.7c0,4,3.2,7.3,7.3,7.3,4.3,0,7.7-3.5,7.7-7.7,0-4-3.2-7.3-7.3-7.3h-7.7v7.7Z"/>
    <path class="st36" d="M39.3,10s-.3,1.9-1.1,4.7l-.2.7c-1.3,4.3-3.6,10.4-7.6,14.4-4.9,4.1-7.7,4.8-11.1,4.9l-2.2,2.2h0c-.6.7-1.3,1-2.2,1h-6.5c0,.1,5.9-5.3,5.9-5.3h0c.2-3.5,1.1-9,5.4-13.7,3.8-4.1,9.7-6.3,14-7.6l.7-.2c2.7-.8,4.7-1.1,4.7-1.1h0ZM32.2,17.1c-3.2,1.2-6.5,2.8-8.6,5.2-2.2,2.3-3.2,5-3.7,7.3,1,0,1.8-.2,2.6-.6,1-.4,2.5-1.2,4.5-3,2.3-2.3,3.9-5.7,5.2-9h0Z"/>
  </g>
  <g class="st23">
    <path class="st25" d="M0,8C0,3.6,3.6,0,8,0h48C60.4,0,64,3.6,64,8v48c0,4.4-3.6,8-8,8H8c-4.4,0-8-3.6-8-8V8Z"/>
    <path class="st1" d="M0,49h64v7c0,4.4-3.6,8-8,8H8c-4.4,0-8-3.6-8-8v-7Z"/>
    <path class="st19" d="M56,0c4.4,0,8,3.6,8,8v48.3c0,4.3-3.5,7.7-7.7,7.7s-7.3-3.2-7.3-7.3V0h7Z"/>
    <path class="st30" d="M49,56.7c0,4,3.2,7.3,7.3,7.3s7.7-3.5,7.7-7.7-3.2-7.3-7.3-7.3h-7.7v7.7Z"/>
    <path class="st36" d="M15,17.5h5v22.5h-5v-22.5Z"/>
    <path class="st36" d="M9,20.7h16.5v5H9v-5Z"/>
    <path class="st36" d="M23.2,9.2h2.2v5h-2.2v-5Z"/>
    <path class="st36" d="M29.5,9.2h2.2v5h-2.2v-5Z"/>
    <path class="st36" d="M29.5,20.7h2.2v5h-2.2v-5Z"/>
    <path class="st37" d="M23.5,25.7h-.3c-4.6,0-8.2-3.7-8.2-8.2s3.7-8.2,8.2-8.2h.3v5h-.3c-1.8,0-3.2,1.5-3.2,3.2s1.5,3.2,3.2,3.2h.3v5Z"/>
    <path class="st37" d="M31.5,25.7h.2c4.6,0,8.2-3.7,8.2-8.2s-3.7-8.2-8.2-8.2h-.2v5h.2c1.8,0,3.2,1.5,3.2,3.2s-1.5,3.2-3.2,3.2h-.2v5Z"/>
  </g>
  <g class="st23">
    <path class="st22" d="M0,8C0,3.6,3.6,0,8,0h48c4.4,0,8,3.6,8,8v48c0,4.4-3.6,8-8,8H8c-4.4,0-8-3.6-8-8V8Z"/>
    <path class="st7" d="M0,49h64.1v7c0,4.4-3.6,8-8,8H8c-4.4,0-8-3.6-8-8v-7Z"/>
    <path class="st10" d="M56.1,0c4.4,0,8,3.6,8,8v48.3c0,4.3-3.5,7.7-7.7,7.7s-7.3-3.2-7.3-7.3V0h7Z"/>
    <path class="st22" d="M49,56.7c0,4,3.3,7.3,7.3,7.3s7.7-3.5,7.7-7.7-3.3-7.3-7.3-7.3h-7.7v7.7Z"/>
    <path class="st36" d="M15,17.5h5v22.5h-5v-22.5Z"/>
    <path class="st36" d="M9,20.8h16.5v5H9v-5Z"/>
    <path class="st36" d="M23.3,9.2h2.3v5h-2.3v-5Z"/>
    <path class="st36" d="M29.5,9.2h2.3v5h-2.3v-5Z"/>
    <path class="st36" d="M29.5,20.8h2.3v5h-2.3v-5Z"/>
    <path class="st37" d="M23.5,25.8h-.3c-4.6,0-8.3-3.7-8.3-8.2s3.7-8.2,8.3-8.2h.3v5h-.3c-1.8,0-3.3,1.5-3.3,3.2s1.5,3.2,3.3,3.2h.3v5Z"/>
    <path class="st37" d="M31.5,25.8h.3c4.6,0,8.3-3.7,8.3-8.2s-3.7-8.2-8.3-8.2h-.3v5h.3c1.8,0,3.3,1.5,3.3,3.2s-1.5,3.2-3.3,3.2h-.3v5Z"/>
  </g>
  <g class="st23">
    <path class="st11" d="M0,8C0,3.6,3.6,0,8,0h48.1c4.4,0,8,3.6,8,8v48c0,4.4-3.6,8-8,8H8c-4.4,0-8-3.6-8-8,0,0,0-48,0-48Z"/>
    <path class="st3" d="M0,49h64.1v7c0,4.4-3.6,8-8,8H8c-4.4,0-8-3.6-8-8v-7h0Z"/>
    <path class="st21" d="M56.1,0c4.4,0,8,3.6,8,8v48.3c0,4.3-3.5,7.7-7.8,7.7s-7.3-3.2-7.3-7.3V0h7Z"/>
    <path class="st18" d="M49.1,56.7c0,4,3.3,7.3,7.3,7.3s7.8-3.5,7.8-7.7-3.3-7.3-7.3-7.3h-7.8v7.7h0Z"/>
    <path class="st36" d="M10.8,12.8h27.6v5H10.8v-5ZM10.8,22h27.6v5H10.8v-5ZM27.8,31.2H10.8v5h17s0-5,0-5Z"/>
  </g>
  <g class="st23">
    <path class="st8" d="M0,8C0,3.6,3.6,0,8,0h48.1C60.6,0,64.1,3.6,64.1,8v48c0,4.4-3.6,8-8,8H8C3.6,64,0,60.4,0,56,0,56,0,8,0,8Z"/>
    <path class="st27" d="M0,49h64.1v7c0,4.4-3.6,8-8,8H8C3.6,64,0,60.4,0,56,0,56,0,49,0,49Z"/>
    <path class="st4" d="M56.1,0C60.6,0,64.1,3.6,64.1,8v48.2c0,4.3-3.5,7.7-7.8,7.7s-7.3-3.2-7.3-7.3V0h7,0Z"/>
    <path class="st2" d="M49.1,56.7c0,4,3.3,7.3,7.3,7.3s7.8-3.5,7.8-7.7-3.3-7.3-7.3-7.3h-7.8v7.7h0Z"/>
    <path class="st36" d="M21,9h10.3c5.1,0,9.3,4.1,9.3,9.2s-4.2,9.2-9.3,9.2h-5.3v12.5h-8.8c-4.8,0-8.8-3.9-8.8-8.7s3.9-8.7,8.8-8.7h3.8s0-13.5,0-13.5ZM21,27.5h-3.8c-2.1,0-3.8,1.6-3.8,3.7,0,2.1,1.6,3.8,3.7,3.8,0,0,0,0,.1,0h3.8v-7.5h0ZM26.1,22.5h5.3c2.4,0,4.3-1.9,4.3-4.2s-1.9-4.2-4.3-4.2h-5.3s0,8.5,0,8.5Z"/>
  </g>
  <g class="st23">
    <path class="st12" d="M0,8C0,3.6,3.6,0,8,0h48C60.4,0,64,3.6,64,8v48c0,4.4-3.6,8-8,8H8c-4.4,0-8-3.6-8-8V8Z"/>
    <path class="st28" d="M0,49h64v7c0,4.4-3.6,8-8,8H8c-4.4,0-8-3.6-8-8v-7Z"/>
    <path class="st32" d="M56,0C60.4,0,64,3.6,64,8v48.3c0,4.3-3.5,7.7-7.7,7.7s-7.3-3.2-7.3-7.3h0V0h7Z"/>
    <path class="st31" d="M49,56.7c0,4,3.2,7.3,7.3,7.3h0c4.3,0,7.7-3.5,7.7-7.7s-3.2-7.3-7.3-7.3h-7.7v7.7Z"/>
    <path class="st36" d="M12.5,9.5h15c5.5,0,10,4.5,10,10s-4.5,10-10,10h-10v10h-5V9.5ZM17.5,24.5h10c2.8,0,5-2.2,5-5s-2.2-5-5-5h-10v10Z"/>
  </g>
  <g>
    <path class="st14" d="M0,8C0,3.6,3.6,0,8,0h48C60.4,0,64,3.6,64,8v48c0,4.4-3.6,8-8,8H8c-4.4,0-8-3.6-8-8,0,0,0-48,0-48Z"/>
    <path class="st16" d="M0,49h64v7c0,4.4-3.6,8-8,8H8c-4.4,0-8-3.6-8-8v-7h0Z"/>
    <path class="st24" d="M56,0C60.4,0,64,3.6,64,8v48.3c0,4.3-3.5,7.7-7.7,7.7s-7.3-3.2-7.3-7.3V0h7Z"/>
    <path class="st13" d="M49,56.7c0,4,3.2,7.3,7.3,7.3s7.7-3.5,7.7-7.7-3.2-7.3-7.3-7.3h-7.7v7.7h0Z"/>
    <path class="st36" d="M15.4,35.8l-5.9-23.5h4.7l4.2,18.7,3.9-17.7h4.2l4.3,17.9,3.7-18.8h4.7l-5.3,23.5h-5.9l-3.5-14.2-3.3,14.2h-5.8,0Z"/>
  </g>
</svg>