<?xml version="1.0" standalone="no"?><!DOCTYPE svg PUBLIC "-//W3C//DTD SVG 1.1//EN" "http://www.w3.org/Graphics/SVG/1.1/DTD/svg11.dtd"><svg t="1732235139879" class="icon" viewBox="0 0 1034 1024" version="1.1" xmlns="http://www.w3.org/2000/svg" p-id="19927" xmlns:xlink="http://www.w3.org/1999/xlink" width="24" height="24"><path d="M0.65536 128C0.65536 57.30304 57.96864 0 128.65536 0h768c70.69696 0 128 57.30304 128 128v768c0 70.69696-57.30304 128-128 128h-768c-70.68672 0-128-57.30304-128-128v-768z" fill="#DE325B" p-id="19928"></path><path d="M0.65536 784.00512h1024V896c0 70.69696-57.30304 128-128 128h-768c-70.68672 0-128-57.30304-128-128V784.00512z" fill="#C9134B" p-id="19929"></path><path d="M896.65536 0c70.69696 0 128 57.30304 128 128v772.12672c0 68.41344-55.4496 123.87328-123.86304 123.87328-64.14336 0-116.13184-51.98848-116.13184-116.1216V0h112.00512z" fill="#FB4F6D" p-id="19930"></path><path d="M784.66048 907.8784c0 64.13312 51.98848 116.1216 116.1216 116.1216 68.41344 0 123.87328-55.45984 123.87328-123.87328 0-64.13312-51.98848-116.1216-116.1216-116.1216H784.66048v123.86304z" fill="#E83D62" p-id="19931"></path><path d="M336.66048 144.00512h164.00384c81.73568 0 147.99872 66.2528 147.99872 147.99872 0 81.73568-66.26304 147.99872-147.99872 147.99872H416.6656V640H276.66432c-77.32224 0-140.00128-62.67904-140.00128-140.00128 0-77.312 62.6688-140.00128 140.00128-140.00128h59.99616V144.00512z m0 295.99744h-60.0064a60.0064 60.0064 0 1 0 0 119.99232h60.0064V440.0128z m80.00512-80.00512h83.99872a67.9936 67.9936 0 0 0 0-135.99744H416.6656v135.99744z" fill="#FFFFFF" p-id="19932"></path></svg>
