<?xml version="1.0" encoding="UTF-8"?>
<svg id="_图层_1" xmlns="http://www.w3.org/2000/svg" version="1.1" viewBox="0 0 64 64" width="24" height="24">
  <!-- Generator: Adobe Illustrator 29.0.1, SVG Export Plug-In . SVG Version: 2.1.0 Build 192)  -->
  <defs>
    <style>
      .st0 {
        fill: #4f4f4f;
      }

      .st1 {
        fill: none;
        stroke: #fff;
        stroke-width: 3px;
      }

      .st2, .st3, .st4, .st5, .st6, .st7, .st8, .st9, .st10 {
        isolation: isolate;
      }

      .st2, .st3, .st11, .st12, .st9, .st13 {
        display: none;
      }

      .st2, .st4, .st7, .st8, .st9 {
        opacity: .2;
      }

      .st3, .st14, .st15, .st8, .st9, .st10 {
        fill: #fff;
      }

      .st3, .st5, .st10 {
        opacity: .1;
      }

      .st4, .st15 {
        fill-rule: evenodd;
      }

      .st16 {
        fill: #3f3f3f;
      }

      .st17 {
        fill: #383838;
      }

      .st18 {
        fill: #48a422;
      }

      .st19 {
        fill: #28a8ea;
      }

      .st20 {
        fill: #ba972c;
      }

      .st6 {
        opacity: .3;
      }

      .st11 {
        fill: #4d4d4d;
      }

      .st13, .st21 {
        fill: #e4e4e4;
      }

      .st22 {
        fill: #1587d7;
      }
    </style>
  </defs>
  <path class="st17" d="M50.3,64H13.8C6.2,64,0,57.8,0,50.3V13.7c0-7.5,6.2-13.7,13.7-13.7h36.5c7.5,0,13.7,6.2,13.7,13.7v36.6c0,7.5-6.2,13.7-13.7,13.7h0Z"/>
  <g class="st12">
    <ellipse class="st7" cx="22.8" cy="23.2" rx="13.9" ry="13.9"/>
    <ellipse class="st7" cx="43" cy="43.3" rx="13.9" ry="13.9"/>
    <ellipse class="st22" cx="22.8" cy="22.4" rx="13.9" ry="13.9"/>
    <path class="st10" d="M22.8,8.5c-7.7,0-13.9,6.2-13.9,13.9,0,0,0,0,0,0,0,.2,0,.3,0,.5.2-7.5,6.4-13.5,13.9-13.5,7.5,0,13.6,5.9,13.9,13.4,0-.1,0-.2,0-.4,0-7.7-6.2-13.9-13.9-13.9,0,0,0,0,0,0Z"/>
    <ellipse class="st22" cx="43" cy="42.4" rx="13.9" ry="13.9"/>
    <ellipse class="st7" cx="32.9" cy="33.2" rx="22.3" ry="22.2"/>
    <ellipse class="st19" cx="32.9" cy="32.4" rx="22.3" ry="22.2"/>
    <path class="st4" d="M27.2,32.8c-.9-.5-1.6-1.3-2.1-2.1-.5-.9-.8-1.9-.7-2.9,0-1.3.4-2.6,1.3-3.6.9-1,2.1-1.8,3.4-2.2,1.4-.5,2.9-.7,4.4-.7,1,0,2,0,3,.2.7.1,1.4.3,2.1.5.6.2,1.2.5,1.6,1,.3.4.5.8.5,1.3,0,.5-.2,1-.5,1.4-.3.3-.8.5-1.3.5-.3,0-.7,0-1-.2-.8-.3-1.5-.6-2.3-.8-.7-.2-1.5-.3-2.2-.3-1,0-2,.2-2.8.7-.7.4-1.2,1.2-1.1,2,0,.5.2,1,.6,1.4.4.4,1,.8,1.6,1.1.7.3,1.6.7,2.9,1.2.1,0,.3,0,.4.2,1.3.5,2.5,1.1,3.6,1.8.9.6,1.7,1.3,2.2,2.2.6.9.8,2,.8,3.1,0,1.3-.3,2.6-1.1,3.7-.8,1-1.9,1.8-3.1,2.2-1.5.5-3.1.8-4.7.7-2.2,0-4.4-.3-6.4-1.2-.5-.2-1-.6-1.3-1-.3-.4-.4-.9-.4-1.3,0-.5.2-1,.6-1.4.4-.3.9-.5,1.5-.5.6,0,1.2.2,1.7.4.7.3,1.2.5,1.5.7.4.2.9.3,1.3.4.6.1,1.1.2,1.7.2,1,0,2-.2,2.9-.7.6-.5,1-1.2,1-2,0-.5-.2-1.1-.6-1.5-.5-.5-1.1-.9-1.8-1.2-.8-.4-1.9-.9-3.3-1.4-1.3-.5-2.5-1.1-3.6-1.8"/>
    <path class="st15" d="M27.2,32c-.9-.5-1.6-1.3-2.1-2.1-.5-.9-.8-1.9-.7-2.9,0-1.3.4-2.6,1.3-3.6.9-1,2.1-1.8,3.4-2.2,1.4-.5,2.9-.7,4.4-.7,1,0,2,0,3,.2.7.1,1.4.3,2.1.5.6.2,1.2.5,1.6,1,.3.4.5.8.5,1.3,0,.5-.2,1-.5,1.4-.3.3-.8.5-1.3.5-.3,0-.7,0-1-.2-.8-.3-1.5-.6-2.3-.8-.7-.2-1.5-.3-2.2-.3-1,0-2,.2-2.8.7-.7.4-1.2,1.2-1.1,2,0,.5.2,1,.6,1.4.4.4,1,.8,1.6,1.1.7.3,1.6.7,2.9,1.2.1,0,.3,0,.4.2,1.3.5,2.5,1.1,3.6,1.8.9.6,1.7,1.3,2.2,2.2.6.9.8,2,.8,3.1,0,1.3-.3,2.6-1.1,3.7-.8,1-1.9,1.8-3.1,2.2-1.5.5-3.1.8-4.7.7-2.2,0-4.4-.3-6.4-1.2-.5-.2-1-.6-1.3-1-.3-.4-.4-.9-.4-1.3,0-.5.2-1,.6-1.4.4-.3.9-.5,1.5-.5.6,0,1.2.2,1.7.4.7.3,1.2.5,1.5.7.4.2.9.3,1.3.4.6.1,1.1.2,1.7.2,1,0,2-.2,2.9-.7.6-.5,1-1.2,1-2,0-.5-.2-1.1-.6-1.5-.5-.5-1.1-.9-1.8-1.2-.8-.4-1.9-.9-3.3-1.4-1.3-.5-2.5-1.1-3.6-1.8"/>
    <path class="st8" d="M32.9,10.2c-12.3,0-22.3,9.9-22.3,22.2,0,.2,0,.3,0,.5.2-12.1,10.1-21.8,22.3-21.8,12.1,0,22,9.6,22.3,21.7,0-.1,0-.2,0-.4,0-12.3-10-22.2-22.3-22.2Z"/>
  </g>
  <g class="st12">
    <path class="st2" d="M64,61.9V4.5c0-1.8-1.4-3.2-3.2-3.2H3.3C1.5,1.4,0,2.8,0,4.5v57.4c0,1.8,1.4,3.2,3.2,3.2h57.5c1.8,0,3.2-1.4,3.2-3.2Z"/>
    <path class="st13" d="M64,60.8V3.4c0-1.8-1.4-3.2-3.2-3.2H3.3C1.5.2,0,1.7,0,3.4v57.4c0,1.8,1.4,3.2,3.2,3.2h57.5c1.8,0,3.2-1.4,3.2-3.2Z"/>
    <path class="st5" d="M4.5,5.8v22.4h22.4V5.8H4.5ZM48,6.1c-6.2,0-11.2,5-11.2,11.2s5,11.2,11.2,11.2,11.2-5,11.2-11.2-5-11.2-11.2-11.2ZM9,10.3h13.5v13.4h-13.5v-13.4ZM11.3,38.3v6.7h-6.7v8.9h6.7v6.7h9v-6.7h6.7v-8.9h-6.7v-6.7h-9ZM48.3,38.3l-11.2,22.4h22.4l-11.2-22.4ZM48.3,43.6v14.6h-7.3l7.3-14.6Z"/>
    <ellipse class="st16" cx="48" cy="16.1" rx="11.2" ry="11.2"/>
    <path class="st16" d="M4.5,4.7v22.4h22.4V4.7H4.5ZM9,9.2h13.5v13.4h-13.5v-13.4Z"/>
    <rect class="st16" x="11.3" y="37.1" width="9" height="22.4"/>
    <rect class="st16" x="4.5" y="43.8" width="22.4" height="8.9"/>
    <path class="st16" d="M48.3,37.1l-11.2,22.4h22.4l-11.2-22.4ZM48.3,42.5l7.3,14.6h-14.7l7.3-14.6Z"/>
    <path class="st16" d="M48.3,40.3l9.6,19.2h-9.6v-19.2Z"/>
    <path class="st6" d="M30.3.2v30.2H0v3.4h30.3v30.2h3.4v-30.2h30.3v-3.4h-30.3V.2h-3.4Z"/>
    <path class="st9" d="M3.3.2C1.5.2,0,1.7,0,3.4v1.1C0,2.8,1.5,1.4,3.3,1.4h57.5c1.8,0,3.2,1.4,3.2,3.2v-1.1c0-1.8-1.4-3.2-3.2-3.2H3.3Z"/>
  </g>
  <g class="st12">
    <path class="st2" d="M9.1.8h45.7c5,0,9.1,4.1,9.1,9.2v45.9c0,5.1-4.1,9.2-9.1,9.2H9.1c-5,0-9.1-4.1-9.1-9.2V10C0,4.9,4.1.8,9.1.8Z"/>
    <path class="st11" d="M9.1-.4h45.7c5,0,9.1,4.1,9.1,9.2v45.9c0,5.1-4.1,9.2-9.1,9.2H9.1c-5,0-9.1-4.1-9.1-9.2V8.8C0,3.8,4.1-.4,9.1-.4Z"/>
    <path class="st7" d="M10.3,10l18.2,24.4-18.2,21.5h4.6l15.8-18.7,13.9,18.7h9.1l-18.2-24.4,18.2-21.5h-4.6l-15.8,18.7-13.9-18.7h-9.1ZM14.9,12.3h3.4l30.8,41.3h-3.4L14.9,12.3Z"/>
    <path class="st14" d="M10.3,8.8l18.2,24.4-18.2,21.5h4.6l15.8-18.7,13.9,18.7h9.1l-18.2-24.4,18.2-21.5h-4.6l-15.8,18.7-13.9-18.7h-9.1ZM14.9,11.1h3.4l30.8,41.3h-3.4L14.9,11.1Z"/>
    <path class="st3" d="M9.1-.4C4.1-.4,0,3.7,0,8.8v1.1C0,4.9,4.1.8,9.1.8h45.7c5.1,0,9.1,4.1,9.1,9.2v-1.1c0-5.1-4.1-9.2-9.1-9.2H9.1Z"/>
  </g>
  <g class="st12">
    <path class="st2" d="M32.4,1.3c-1.5,0-2.9.3-4.2.9L4.4,14.3C1.9,15.6.4,17.9.4,20.5v24.2c0,2.5,1.5,4.9,4,6.2l23.7,12.1c2.5,1.3,5.6,1.3,8.1,0l23.7-12.1c2.5-1.3,4-3.6,4-6.2v-24.2c0-2.5-1.5-4.9-4-6.2L36.2,2.2c-1.2-.6-2.5-.9-3.8-.9h0Z"/>
    <path class="st0" d="M32.4.2c-1.5,0-2.9.3-4.2.9L4.4,13.2C1.9,14.5.4,16.8.4,19.3v24.2c0,2.5,1.5,4.9,4,6.2l23.7,12.1c2.5,1.3,5.6,1.3,8.1,0l23.7-12.1c2.5-1.3,4-3.6,4-6.2v-24.2c0-2.5-1.5-4.9-4-6.2L36.2,1.1c-1.2-.6-2.5-.9-3.8-.9h0Z"/>
    <path class="st7" d="M26,21.4l-2,1.8c-1.5-.8-3.4-1.6-6.1-1.7-5.9-.3-12.4,3.8-12.4,11,0,2.6,1,5.3,3,7.4s5.2,3.7,9,3.7,7.6-1.4,10.2-3.3c2.6-2,4.4-4.4,6.2-6.8,1.8-2.3,3.5-4.5,5.6-6.1,2.1-1.6,4.5-2.5,8.1-2.5s7.6,2.2,7.6,8.6-3.2,6.9-8.3,6.8c-1.8,0-3-.3-3.8-.7l1.8-1.6-4.5-1-4.5-1,1.2,3.9,1.2,3.9,1.9-1.7c1.5.8,3.6,1.5,6.5,1.6,7.1.1,12.2-4.8,12.2-10.2,0-7.9-6.2-11.9-11.4-11.9s-7.9,1.4-10.6,3.3-4.5,4.4-6.4,6.8c-1.8,2.4-3.5,4.6-5.5,6.1-2,1.6-4.3,2.5-7.7,2.5s-4.7-1-6.1-2.5c-1.4-1.5-2.2-3.5-2.2-5.3,0-5.5,4.5-7.9,8.4-7.7,1.5,0,2.6.4,3.5.7l-1.8,1.5,4.5,1,4.5,1-1.2-3.9-1.2-3.9Z"/>
    <g>
      <path class="st1" d="M39.3,37.7s1.6,3,7.6,3.1c6,.1,10.2-4.1,10.2-8.5,0-7.1-5.3-10.2-9.5-10.2-16.1,0-14.8,18.8-30.1,18.8s-10.1-5.1-10.1-9.4c0-6.4,5.5-9.6,10.4-9.3,5.2.2,7.4,3.1,7.4,3.1"/>
      <path class="st14" d="M28.4,28.1l-4.5-1-4.5-1,3.3-2.9,3.3-2.9,1.2,3.9,1.2,3.9Z"/>
      <path class="st14" d="M36,34.8l4.5,1,4.5,1-3.3,2.9-3.3,2.9-1.2-3.9-1.2-3.9Z"/>
    </g>
    <path class="st3" d="M32.4.2c-1.5,0-2.9.3-4.2,1L4.4,13.2C1.9,14.5.4,16.8.4,19.3v1.1c0-2.5,1.5-4.9,4-6.2L28.1,2.2c1.3-.7,2.7-1,4.2-1h0c1.4,0,2.7.4,3.8,1l23.7,12.1c2.5,1.3,4,3.6,4,6.2v-1.1c0-2.5-1.5-4.9-4-6.2L36.2,1.1c-1.2-.6-2.5-.9-3.8-1h0Z"/>
  </g>
  <g class="st12">
    <path class="st20" d="M7.3,21.3c-.8.9-.8,2.3,0,3.2.8.9,2.2.9,3,0,12.4-13.1,32.4-13.1,44.8,0,.8.9,2.2.9,3,0,.8-.9.8-2.3,0-3.2-14-14.8-36.8-14.8-50.8,0h0ZM49,28.4c-9.1-9.6-23.9-9.6-33,0-.8.9-.8,2.3,0,3.2s2.2.9,3,0c7.4-7.9,19.5-7.9,26.9,0,.8.9,2.2.9,3,0,.8-.9.8-2.3,0-3.2h0ZM41.3,35.5c-5-5.3-13.1-5.3-18,0-.8.9-.8,2.3,0,3.2.8.9,2.2.9,3,0,3.3-3.5,8.7-3.5,12,0s2.2.9,3,0,.8-2.3,0-3.2h0ZM36.8,47.5c0-2.7-2.1-4.9-4.6-4.9s-4.6,2.2-4.6,4.9,2.1,4.9,4.6,4.9,4.6-2.2,4.6-4.9Z"/>
  </g>
  <g class="st12">
    <path class="st2" d="M0,58.1v2.3c0,2.5,2.6,4.6,5.8,4.6h52.2c3.2,0,5.8-2,5.8-4.6v-2.3c0,2.5-2.6,4.6-5.8,4.6H5.9c-3.2,0-5.8-2-5.8-4.6Z"/>
    <path class="st13" d="M63.9,59.2V4.6c0-2.5-2.6-4.6-5.8-4.6H5.9C2.7,0,0,2,0,4.6v54.7c0,2.5,2.6,4.6,5.8,4.6h52.2c3.2,0,5.8-2,5.8-4.6Z"/>
    <path class="st6" d="M32,9.1c-11.2,0-20.3,7.1-20.3,15.9v15.9h20.3c11.2,0,20.3-7.1,20.3-15.9s-9.1-15.9-20.3-15.9ZM32,15.9c6.4,0,11.6,4.1,11.6,9.1s-5.2,9.1-11.6,9.1-11.6-4.1-11.6-9.1,5.2-9.1,11.6-9.1Z"/>
    <path class="st9" d="M5.9,0C2.7,0,0,2,0,4.6v1.1C0,3.2,2.7,1.1,5.9,1.1h52.2c3.2,0,5.8,2,5.8,4.6v-1.1c0-2.5-2.6-4.6-5.8-4.6H5.9Z"/>
  </g>
  <g>
    <path class="st7" d="M26.4,8.8v13.6c-7.8,2.4-13.2,9.4-13.2,17.3,0,10,8.4,18.2,18.8,18.2s18.8-8.1,18.8-18.2c0-7.9-5.3-14.9-13.2-17.3v-13.6h-11.3Z"/>
    <rect class="st21" x="26.4" y="7.9" width="11.3" height="21.8"/>
    <ellipse class="st21" cx="32" cy="38.8" rx="18.8" ry="18.2"/>
    <path class="st8" d="M26.4,7.9v.9h11.3v-.9h-11.3ZM37.6,21.5v.9c7.7,2.3,13,9.2,13.2,17,0-.2,0-.4,0-.5,0-7.9-5.3-14.9-13.2-17.3ZM26.4,21.5c-7.8,2.4-13.2,9.4-13.2,17.3,0,.1,0,.2,0,.4.2-7.7,5.5-14.4,13.2-16.8v-.9Z"/>
    <path class="st7" d="M20.1,34.3c-.8,1.7-1.3,3.6-1.3,5.5,0,7,5.9,12.7,13.2,12.7s13.2-5.7,13.2-12.7c0-1.9-.4-3.7-1.3-5.5h-23.8Z"/>
    <path class="st18" d="M20.1,33.4c-.8,1.7-1.3,3.6-1.3,5.5,0,7,5.9,12.7,13.2,12.7s13.2-5.7,13.2-12.7c0-1.9-.4-3.7-1.3-5.5h-23.8Z"/>
    <path class="st7" d="M25.7,7h12.6c.7,0,1.3.6,1.3,1.4h0c0,.8-.6,1.4-1.3,1.4h-12.6c-.7,0-1.3-.6-1.3-1.4h0c0-.8.6-1.4,1.3-1.4Z"/>
    <path class="st21" d="M25.7,6.1h12.6c.7,0,1.3.6,1.3,1.4h0c0,.8-.6,1.4-1.3,1.4h-12.6c-.7,0-1.3-.6-1.3-1.4h0c0-.8.6-1.4,1.3-1.4Z"/>
    <path class="st8" d="M25.7,6.1c-.7,0-1.3.6-1.3,1.4s0,.3,0,.5c.2-.5.6-.9,1.2-.9h12.6c.5,0,1,.4,1.2.9,0-.1,0-.3,0-.5,0-.8-.6-1.4-1.3-1.4h-12.6Z"/>
  </g>
</svg>