<?xml version="1.0" encoding="UTF-8"?>
<svg id="_图层_1" data-name="图层_1" xmlns="http://www.w3.org/2000/svg" version="1.1" xmlns:xlink="http://www.w3.org/1999/xlink" viewBox="0 0 200 200" width="24" height="24">
  <!-- Generator: Adobe Illustrator 29.0.1, SVG Export Plug-In . SVG Version: 2.1.0 Build 192)  -->
  <defs>
    <style>
      .st0, .st1 {
        fill: #4f4f4f;
      }

      .st2 {
        fill: #fec006;
      }

      .st3, .st4, .st5, .st6 {
        isolation: isolate;
      }

      .st3, .st4, .st7, .st1 {
        display: none;
      }

      .st3, .st6 {
        opacity: .2;
      }

      .st4 {
        opacity: .1;
      }

      .st4, .st8 {
        fill: #fff;
      }

      .st9 {
        fill: #3f3f3f;
      }

      .st5 {
        opacity: .4;
      }

      .st10 {
        fill: url(#_未命名的渐变_23);
      }

      .st11 {
        fill: url(#_未命名的渐变_231);
      }
    </style>
    <linearGradient id="_未命名的渐变_23" data-name="未命名的渐变 23" x1="68.5" y1="106" x2="130.1" y2="106" gradientUnits="userSpaceOnUse">
      <stop offset="0" stop-color="#6aa5ff"/>
      <stop offset="1" stop-color="#3f76ff"/>
    </linearGradient>
    <linearGradient id="_未命名的渐变_231" data-name="未命名的渐变 23" x1="88.2" y1="106" x2="110.4" y2="106" xlink:href="#_未命名的渐变_23"/>
  </defs>
  <path class="st0" d="M157.3,200H43.3c-23.5,0-42.7-19.3-42.7-42.8V43C.6,19.5,19.8.2,43.3.2h114c23.5,0,42.7,19.3,42.7,42.8v114.2c0,23.5-19.2,42.8-42.7,42.8h0Z"/>
  <g class="st7">
    <path class="st8" d="M184.1,110.5c0-12.2-5.3-23.8-14.6-31.9-9.1-7.9-21.3-11.4-33.4-9.5-4.4-15.7-17.6-27.6-34.1-30.7-16.3-2.8-32.9,3.9-42.3,17.2-5.6,7.8-8.6,17.1-8.4,26.7-18.3,3.4-30.9,19.7-29.2,37.8,1.1,18,16.3,32.2,34.8,32.5h90.3c.9,0,1.8-.2,2.5-.6,20.1-4,34.5-21.3,34.2-41.3Z"/>
  </g>
  <g class="st7">
    <path class="st10" d="M120.9,79.8h-43.1c-5.1,0-9.3,4.3-9.3,9.5v33.5c0,5.2,4.2,9.5,9.3,9.5h43.1c5.1,0,9.3-4.3,9.3-9.5v-33.5c0-5.2-4.2-9.5-9.3-9.5ZM72.2,107.9h4.5v6.8h-4.5v-6.8ZM76.7,104.1h-4.5v-6.8h4.5v6.8ZM80.4,83.6h37.8v44.9h-37.8s0-44.9,0-44.9ZM126.4,104.1h-4.5v-6.8h4.5v6.8ZM121.9,107.9h4.5v6.8h-4.5v-6.8ZM126.4,89.3v4.3h-4.5v-9.9c2.6.5,4.5,2.8,4.5,5.6ZM76.7,83.7v9.9h-4.5v-4.3c0-2.8,2-5.1,4.5-5.6ZM72.2,122.8v-4.3h4.5v9.9c-2.6-.5-4.5-2.8-4.5-5.6ZM121.9,128.4v-9.9h4.5v4.3c0,2.8-2,5.1-4.5,5.6Z"/>
    <path class="st11" d="M108.2,102.2l-13.5-8c-1.3-.8-3-.8-4.3,0s-2.2,2.2-2.2,3.8v16.1c0,1.6.8,3,2.2,3.8.7.4,1.4.6,2.2.6s1.5-.2,2.2-.6l13.5-8c1.3-.8,2.2-2.2,2.2-3.8s-.8-3-2.2-3.8ZM106.4,106.6l-13.5,8c-.3.2-.5,0-.6,0-.1,0-.3-.2-.3-.5v-16.1c0-.3.2-.5.3-.5,0,0,.2,0,.3,0s.2,0,.3,0l13.5,8c.3.2.3.4.3.5,0,.1,0,.4-.3.5h0Z"/>
  </g>
  <g>
    <path class="st1" d="M172.2-1.1H30.4c-5.6,0-10.1,4.5-10.1,10v179.2c0,5.5,4.5,10,10.1,10h141.8c5.6,0,10.1-4.5,10.1-10V8.8c0-5.5-4.5-10-10.1-10Z"/>
    <ellipse class="st5" cx="101.3" cy="113.7" rx="72.9" ry="68.9"/>
    <ellipse class="st6" cx="101.3" cy="117.5" rx="56.7" ry="53.6"/>
    <ellipse class="st2" cx="101.3" cy="113.7" rx="56.7" ry="53.6"/>
    <ellipse class="st9" cx="101.3" cy="113.7" rx="24.3" ry="23"/>
    <ellipse class="st5" cx="52.7" cy="29.5" rx="8.1" ry="7.7"/>
    <ellipse class="st5" cx="150" cy="29.5" rx="8.1" ry="7.7"/>
    <path class="st3" d="M20.3,188v3.8c0,5.5,4.5,10,10.1,10h141.8c5.6,0,10.1-4.4,10.1-10v-3.8c0,5.5-4.5,10-10.1,10H30.4c-5.6,0-10.1-4.4-10.1-10Z"/>
    <path class="st4" d="M30.4-1.1c-5.6,0-10.1,4.4-10.1,10v3.8c0-5.5,4.5-10,10.1-10h141.8c5.6,0,10.1,4.4,10.1,10v-3.8c0-5.5-4.5-10-10.1-10H30.4Z"/>
  </g>
</svg>