<?xml version="1.0" encoding="UTF-8"?>
<svg id="_图层_1" xmlns="http://www.w3.org/2000/svg" version="1.1" viewBox="0 0 64 64" width="24" height="24">
  <!-- Generator: Adobe Illustrator 29.0.1, SVG Export Plug-In . SVG Version: 2.1.0 Build 192)  -->
  <defs>
    <style>
      .st0, .st1 {
        fill: #fff;
      }

      .st2 {
        fill: #03a9f4;
      }

      .st3, .st1 {
        isolation: isolate;
        opacity: .2;
      }

      .st4 {
        fill: #fa2235;
      }
    </style>
  </defs>
  <path class="st0" d="M50.3,64H13.9C6.3,64,.2,57.8.2,50.3V13.8C.2,6.2,6.3,0,13.9,0h36.5c7.5,0,13.7,6.2,13.7,13.7v36.5c0,7.5-6.1,13.7-13.7,13.7h0Z"/>
  <g>
    <path class="st3" d="M25.9,52.6c-9.3-.2-13-.3-15.3-.6-1.7-.2-2.5-.4-3.4-.9-1.5-.8-2.5-1.9-3.2-3.6-.6-1.6-.9-2.9-1.1-5.6-.3-3-.3-3.6-.3-8.3,0-5.6,0-7.4.4-11.1.2-1.9.5-3.2,1-4.6.5-1.2.9-1.9,1.7-2.7,1-.9,2.1-1.5,3.5-1.8,2.1-.5,11.4-.8,21.4-.8s19.4.3,21.4.8c1.5.3,2.6.9,3.7,2,.8.9,1.3,1.6,1.8,3.2.5,1.6.7,3.1,1,7.3.1,2,.1,11.3,0,13.3-.2,2.4-.4,4.5-.5,5.2-.4,1.9-1,3.7-1.8,4.8-.5.7-1.6,1.5-2.5,2-.9.4-1.7.6-3.1.8-4.2.4-17.2.7-24.6.6h0Z"/>
    <path class="st4" d="M25.9,51.6c-9.3-.2-13-.3-15.3-.6-1.7-.2-2.5-.4-3.4-.9-1.5-.8-2.5-1.9-3.2-3.6-.6-1.6-.9-2.9-1.1-5.6-.3-3-.3-3.6-.3-8.3,0-5.6,0-7.4.4-11.1.2-1.9.5-3.2,1-4.6.5-1.2.9-1.9,1.7-2.7,1-.9,2.1-1.5,3.5-1.8,2.1-.5,11.4-.8,21.4-.8s19.4.3,21.4.8c1.5.3,2.6.9,3.7,2,.8.9,1.3,1.6,1.8,3.2.5,1.6.7,3.1,1,7.3.1,2,.1,11.3,0,13.3-.2,2.4-.4,4.5-.5,5.2-.4,1.9-1,3.7-1.8,4.8-.5.7-1.6,1.5-2.5,2-.9.4-1.7.6-3.1.8-4.2.4-17.2.7-24.6.6h0Z"/>
    <path class="st3" d="M31.7,37.2c7.9-4.5,7.8-4.4,7.8-4.5s-13.9-8.1-14-8c0,0,0,15.9,0,16,0,0,0,0,.1,0,0,0,2.8-1.6,6.1-3.5h0Z"/>
    <path class="st0" d="M31.7,36.2c7.9-4.5,7.8-4.4,7.8-4.5s-13.9-8.1-14-8c0,0,0,15.9,0,16,0,0,0,0,.1,0,0,0,2.8-1.6,6.1-3.5h0Z"/>
    <path class="st1" d="M30.5,11.6c-10,0-19.4.4-21.4.8-1.4.3-2.5.9-3.5,1.8-.8.8-1.2,1.4-1.7,2.7-.5,1.4-.8,2.6-1,4.6-.3,3-.4,4.9-.4,8.5,0-3,.1-4.7.4-7.5.2-1.9.5-3.2,1-4.6.5-1.2.9-1.9,1.7-2.7,1-.9,2.1-1.5,3.5-1.8,2.1-.5,11.4-.8,21.4-.8s19.4.4,21.4.8c1.5.3,2.6.9,3.7,2,.8.9,1.3,1.6,1.8,3.2.5,1.6.7,3.1,1,7.3,0,1,0,3.6,0,6.3,0,.1,0,.3,0,.4,0-3.2,0-6.5,0-7.7-.3-4.2-.5-5.7-1-7.3-.5-1.6-.9-2.3-1.8-3.2-1.1-1.1-2.2-1.7-3.7-2-2.1-.5-11.4-.8-21.4-.8Z"/>
    <g>
      <path class="st3" d="M62.5,45.5c-.5,7.9-7,14.1-15,14.1-7.9,0-14.4-6.1-15-13.9,0,.3,0,.6,0,.9,0,8.3,6.7,15,15,15s15-6.7,15-15c0-.4,0-.7,0-1.1Z"/>
      <circle class="st2" cx="47.5" cy="45.6" r="15"/>
      <path class="st0" d="M50.5,36.6v8h3l-6,8-6-8h3v-8h6ZM40.5,52.6h14v2h-14v-2Z"/>
    </g>
  </g>
</svg>