<?xml version="1.0" encoding="UTF-8"?>
<svg id="_图层_1" xmlns="http://www.w3.org/2000/svg" version="1.1" viewBox="0 0 64 64" width="24" height="24">
  <!-- Generator: Adobe Illustrator 29.0.1, SVG Export Plug-In . SVG Version: 2.1.0 Build 192)  -->
  <defs>
    <style>
      .st0 {
        fill: #8a49ff;
      }

      .st0, .st1, .st2, .st3, .st4 {
        fill-rule: evenodd;
      }

      .st5, .st1, .st2, .st6, .st7, .st8 {
        opacity: .2;
      }

      .st5, .st1, .st2, .st6, .st7, .st8, .st9 {
        isolation: isolate;
      }

      .st5, .st10, .st11, .st8 {
        display: none;
      }

      .st12, .st2, .st7, .st8, .st9 {
        fill: #fff;
      }

      .st13 {
        fill: #64aca8;
      }

      .st14 {
        stroke: #69501b;
      }

      .st14, .st15, .st16, .st17 {
        fill: none;
      }

      .st14, .st15, .st17 {
        stroke-linecap: round;
        stroke-linejoin: round;
      }

      .st14, .st17 {
        stroke-width: 6px;
      }

      .st15 {
        stroke-width: 3px;
      }

      .st15, .st16 {
        stroke: #fff;
      }

      .st18 {
        fill: #8ab9c1;
      }

      .st19 {
        fill: #3b8668;
      }

      .st3 {
        fill: #b66af5;
      }

      .st11 {
        fill: #f556b6;
      }

      .st4 {
        fill: #a551ff;
      }

      .st16 {
        stroke-width: 2px;
      }

      .st17 {
        stroke: #9b7528;
      }

      .st9 {
        opacity: .1;
      }
    </style>
  </defs>
  <path class="st12" d="M50.4,64H13.8c-7.6,0-13.8-6.2-13.8-13.7V13.7C0,6.2,6.2,0,13.7,0h36.5c7.5,0,13.7,6.2,13.7,13.7v36.6c0,7.5-6.2,13.7-13.7,13.7h.1Z"/>
  <g class="st10">
    <path class="st6" d="M10.1,15.6l-2.8,5.4,2.8,12.6,10.1,5.4,10.1-5.4v-5.4l-10.1-1.8-10.1-10.8ZM56.2,15.6l-10.1,10.8-10.1,1.8v5.4l10.1,5.4,10.3-5.4,2.6-12.6-2.8-5.4ZM30.4,43.5l-7.4,5.4,2.8,4.5,7.4,2.7,7.4-2.7,2.8-4.5-7.4-5.4h-5.5Z"/>
    <path class="st19" d="M10.1,14.5l-2.8,5.4,2.8,12.6,10.1,5.4,10.1-5.4v-5.4l-10.1-1.8-10.1-10.8ZM56.2,14.5l-10.1,10.8-10.1,1.8v5.4l10.1,5.4,10.3-5.4,2.6-12.6-2.8-5.4ZM30.4,42.4l-7.4,5.4,2.8,4.5,7.4,2.7,7.4-2.7,2.8-4.5-7.4-5.4h-5.5Z"/>
    <path class="st9" d="M10.1,14.5l-2.8,5.4.2.8,2.6-5.1,10.1,10.8,10.1,1.8v-1.1l-10.1-1.8-10.1-10.8ZM56.2,14.5l-10.1,10.8-10.1,1.8v1.1l10.1-1.8,10.1-10.8,2.6,5.1.2-.8-2.8-5.4ZM30.4,42.4l-7.4,5.4.5.7,6.9-5.1h5.5l6.9,5.1.5-.7-7.4-5.4h-5.5Z"/>
    <path class="st6" d="M33.1,10.9l-5.2,5,2.4,5-4.6,7.2v10.8l7.4,13.5,7.4-13.5v-10.8l-4.6-7.2,2.4-5-5.2-5Z"/>
    <path class="st13" d="M33.1,9.9l-5.2,5,2.4,5-4.6,7.2v10.8l7.4,13.5,7.4-13.5v-10.8l-4.6-7.2,2.4-5-5.2-5Z"/>
    <path class="st7" d="M33.1,9.9l-5.2,5,.4.7,4.8-4.7,4.8,4.7.4-.7s-5.2-5-5.2-5ZM30.1,20.4l-4.3,6.7v1.1l4.6-7.2-.3-.6ZM36.2,20.4l-.3.6,4.6,7.2v-1.1l-4.3-6.7Z"/>
    <rect class="st6" x="33.1" y="15.6" width="12.9" height="2.7"/>
    <rect class="st18" x="33.1" y="14.5" width="12.9" height="2.7"/>
    <path class="st6" d="M40.6,23.5c-.7,0-1.4.2-2,.7l-14.8,12.6c-1.2,1-1.3,2.7-.4,3.8,1,1.1,2.7,1.3,3.9.3,0,0,0,0,0,0l14.8-12.6c1.2-1,1.3-2.7.3-3.8-.5-.6-1.2-.9-2-.9Z"/>
    <path class="st14" d="M40.5,25.3l-14.8,12.6"/>
    <path class="st6" d="M25.8,23.5c-1.5,0-2.8,1.1-2.9,2.6,0,.8.3,1.6,1,2.1l14.8,12.6c1.1,1,2.9.9,3.9-.2,1-1.1,1-2.8-.2-3.8,0,0,0,0,0,0l-14.8-12.6c-.5-.4-1.1-.7-1.8-.7Z"/>
    <path class="st17" d="M25.7,25.3l14.8,12.6"/>
  </g>
  <g class="st10">
    <path class="st5" d="M12.8,1.1h38.3c7,0,12.8,5.7,12.8,12.8v38.3c0,7.1-5.7,12.8-12.8,12.8H12.8c-7,0-12.8-5.7-12.8-12.8V13.9C0,6.8,5.7,1.1,12.8,1.1Z"/>
    <path class="st11" d="M12.8,0h38.3c7,0,12.8,5.7,12.8,12.8v38.3c0,7.1-5.7,12.8-12.8,12.8H12.8c-7,0-12.8-5.7-12.8-12.8V12.8C0,5.7,5.7,0,12.8,0Z"/>
    <path class="st6" d="M31.9,11.4c-.5,0-1,.2-1.3.7l-16.5,21.1c-.5.6-.5,1.5,0,2.1l16.5,21.1c.6.7,1.7.9,2.4.3.1,0,.2-.2.3-.3l16.5-21.1c.5-.6.5-1.5,0-2.1l-16.5-21.1c-.3-.4-.8-.7-1.3-.7ZM31.9,16.6l5.7,16.5h-11.4l5.7-16.5ZM28,20.8l-4.2,12.2h-5.4l9.6-12.2ZM35.8,20.8l9.6,12.2h-5.4l-4.2-12.2ZM18.4,35.3h5.6l4.1,12.4-9.7-12.4ZM26.4,35.3h11l-5.5,16.5-5.5-16.5ZM39.8,35.3h5.6l-9.7,12.4,4.1-12.4Z"/>
    <path class="st15" d="M31.9,12l-16.5,21.1,16.5,21.1,16.5-21.1L31.9,12Z"/>
    <path class="st16" d="M31.9,54.3l-7.2-21.6,7.2-20.8h0"/>
    <path class="st16" d="M31.9,54.3l7.2-21.6-7.2-20.8h0"/>
    <path class="st16" d="M16,33.1h31.9"/>
    <path class="st8" d="M12.8,0C5.7,0,0,5.7,0,12.8v1.1C0,6.8,5.7,1.1,12.8,1.1h38.3c7.1,0,12.8,5.7,12.8,12.8v-1.1C63.8,5.7,58.1,0,51,0H12.8Z"/>
  </g>
  <g>
    <path class="st1" d="M11.6,36.9v-19.2c0-2.7.7-2.8,2.9-4.1l15.2-8.8c2-1,1.9-1,3.5,0l18.3,10.5-4.8,8.9-15.2-9.3-10,6v10.4l-10,5.7Z"/>
    <path class="st1" d="M51.5,26.8v19.4c0,2.8-.6,2.8-2.8,4.1l-15.7,9.1c-1.6.9-1.6.8-3,0l-18.4-10.6,6-7.6,13.9,8,10-6v-10.5l10-5.8Z"/>
    <path class="st3" d="M11.6,35.9v-19.2c0-2.7.7-2.8,2.9-4.1L29.7,3.8c2-1,1.9-1,3.5,0l18.3,10.5-4.8,8.9-15.2-9.3-10,6v10.4l-10,5.7Z"/>
    <path class="st0" d="M51.5,25.8v19.4c0,2.8-.6,2.8-2.8,4.1l-15.7,9.1c-1.6.9-1.6.8-3,0l-18.4-10.6,6-7.6,13.9,8,10-6v-10.5l10-5.8Z"/>
    <path class="st1" d="M11.6,48.8l40-23.4v-10.2L11.6,38.3v10.5Z"/>
    <path class="st2" d="M31.6,3c-.4,0-.9.3-1.9.8l-15.2,8.8c-2.2,1.3-2.9,1.3-2.9,4.1v1c0-2.7.7-2.8,2.9-4.1l15.2-8.8c1-.5,1.5-.8,1.9-.8s.8.2,1.6.7l17.9,10.2.4-.8L33.3,3.7c-.8-.5-1.2-.7-1.6-.7Z"/>
    <path class="st4" d="M11.6,47.8l40-23.4v-10.2L11.6,37.3v10.5Z"/>
  </g>
</svg>