<?xml version="1.0" encoding="UTF-8"?>
<svg id="_图层_1" data-name="图层_1" xmlns="http://www.w3.org/2000/svg" version="1.1" viewBox="0 0 218.9 200" width="16" height="16">
  <!-- Generator: Adobe Illustrator 29.0.1, SVG Export Plug-In . SVG Version: 2.1.0 Build 192)  -->
  <path fill="#363636" d="M89.7.7c-3.5-1.4-7.5-.6-10.2,2.1l-46.7,47.2H9.5C4.3,49.9,0,54.1,0,59.2c0,0,0,.2,0,.2v81c0,5.2,4.1,9.4,9.2,9.5,0,0,.2,0,.2,0h23.2l47,47.2c1.8,1.8,4.2,2.8,6.7,2.8,1.1,0,2.3-.2,3.3-.7,3.5-1.5,5.7-5,5.6-8.8V9.5c.2-3.8-2.1-7.3-5.6-8.8ZM76.2,167.4l-33.1-33.6c-1.7-1.9-4.1-2.9-6.6-2.9h-17.4v-61.8h17.4c2.5,0,4.8-1.1,6.4-2.9l33.2-33.6v134.8ZM126.6,140.3c-1.8,2.1-4.4,3.3-7.2,3.3-2.3,0-4.6-.9-6.3-2.4-3.9-3.5-4.2-9.6-.7-13.5,14.1-15.5,14.1-39.2,0-54.6-4-3.4-4.5-9.4-1.1-13.4s9.4-4.5,13.4-1.1c.8.7,1.5,1.5,2,2.4,20.3,22.6,20.3,56.8,0,79.4ZM155.4,165.8c-1.8,2-4.4,3.2-7.1,3.2-2.3,0-4.6-.9-6.3-2.4-3.9-3.5-4.2-9.5-.7-13.4,47-52.6,1.9-104.1,0-106.3-2.6-4.5-1-10.3,3.5-13,3.4-1.9,7.6-1.6,10.6.8.6.2,58.3,66.1,0,131.1h0ZM185.4,184.9c-1.8,2-4.4,3.2-7.1,3.2-5.2,0-9.5-4.2-9.6-9.4,0-2.4.9-4.8,2.5-6.5,25.8-25.9,35.2-64,24.3-98.9-5.1-16.6-13.3-32-24.3-45.4-3.5-3.9-3.2-10,.7-13.5,3.9-3.5,9.9-3.2,13.4.7.9.9,75.1,85.9,0,169.8h0Z"/>
</svg>
