<?xml version="1.0" standalone="no"?><!DOCTYPE svg PUBLIC "-//W3C//DTD SVG 1.1//EN" "http://www.w3.org/Graphics/SVG/1.1/DTD/svg11.dtd"><svg t="1733801821825" class="icon" viewBox="0 0 1274 1024" version="1.1" xmlns="http://www.w3.org/2000/svg" p-id="5232" xmlns:xlink="http://www.w3.org/1999/xlink" width="16" height="16"><path d="M1199.238928 343.759431a72.223073 72.223073 0 0 1-45.349371-16.236194 826.926189 826.926189 0 0 0-1035.197375 0 72.782941 72.782941 0 0 1-91.258612-111.973756 972.492072 972.492072 0 0 1 1217.15473 0 72.782941 72.782941 0 0 1-45.349372 129.329688zM291.691635 544.192455a550.351011 550.351011 0 0 1 688.6386 0 72.782941 72.782941 0 1 0 91.258611-111.973756 695.916894 695.916894 0 0 0-870.595954 0 72.782941 72.782941 0 0 0 90.698743 111.973756z m615.855659 206.59158a72.782941 72.782941 0 0 0-11.197376-102.455987 412.623291 412.623291 0 0 0-522.357572 0 72.782941 72.782941 0 0 0 91.258611 111.973756 270.97649 270.97649 0 0 1 340.400219 0 72.782941 72.782941 0 0 0 102.455986-11.197375z m-272.656097 55.986878a108.614543 108.614543 0 1 0 108.614544 108.614544 108.614543 108.614543 0 0 0-107.494806-110.854019z" fill="#363636" p-id="5233"></path></svg>
