<?xml version="1.0" encoding="UTF-8" standalone="no"?>
<svg
   id="_图层_1"
   data-name="图层_1"
   version="1.1"
   viewBox="0 0 128 128"
   width="64"
   height="64"
   sodipodi:docname="application-x-extension-fcstd.svg"
   xml:space="preserve"
   inkscape:version="1.4 (e7c3feb100, 2024-10-09)"
   xmlns:inkscape="http://www.inkscape.org/namespaces/inkscape"
   xmlns:sodipodi="http://sodipodi.sourceforge.net/DTD/sodipodi-0.dtd"
   xmlns="http://www.w3.org/2000/svg"
   xmlns:svg="http://www.w3.org/2000/svg"><sodipodi:namedview
     id="namedview3"
     pagecolor="#505050"
     bordercolor="#eeeeee"
     borderopacity="1"
     inkscape:showpageshadow="0"
     inkscape:pageopacity="0"
     inkscape:pagecheckerboard="0"
     inkscape:deskcolor="#505050"
     inkscape:zoom="10.6875"
     inkscape:cx="32"
     inkscape:cy="26.292398"
     inkscape:window-width="1920"
     inkscape:window-height="939"
     inkscape:window-x="0"
     inkscape:window-y="34"
     inkscape:window-maximized="1"
     inkscape:current-layer="_图层_1"
     showguides="true"><sodipodi:guide
       position="7.6134526,83.439664"
       orientation="1,0"
       id="guide7"
       inkscape:locked="false" /><sodipodi:guide
       position="120.24109,71.856006"
       orientation="1,0"
       id="guide8"
       inkscape:locked="false" /></sodipodi:namedview><!-- Generator: Adobe Illustrator 29.0.1, SVG Export Plug-In . SVG Version: 2.1.0 Build 192)  --><defs
     id="defs1"><style
       id="style1">
      .st0 {
        fill: #0071e9;
      }

      .st1 {
        fill: #fff;
      }

      .st2 {
        fill: #5aaaff;
        isolation: isolate;
        opacity: .5;
      }
    </style><style
       id="style1-6">
      .st0 {
        fill: #0071e9;
      }

      .st1 {
        fill: #fff;
      }

      .st2 {
        fill: #5aaaff;
        isolation: isolate;
        opacity: .5;
      }
    </style><style
       id="style1-8">
      .st0 {
        fill: #0071e9;
      }

      .st1 {
        fill: #fff;
      }

      .st2 {
        fill: #5aaaff;
        isolation: isolate;
        opacity: .5;
      }
    </style><style
       id="style1-0">
      .st0 {
        fill: #0071e9;
      }

      .st1 {
        fill: #fff;
      }

      .st2 {
        fill: #5aaaff;
        isolation: isolate;
        opacity: .5;
      }
    </style></defs><path
     class="st0"
     d="M18.2,0c-5.6,0-10.2,4.6-10.2,10.2v107.6c0,5.6,4.6,10.2,10.2,10.2h91.6c5.6,0,10.2-4.6,10.2-10.2V40.6L82.2,0H18.2Z"
     id="path1"
     style="fill:#4f4f4f;fill-opacity:1" /><path
     class="st2"
     d="m 82.761404,2.619883 v 29.2 c 0,3.2 2.145542,11.6 11.89801,11.6 h 24.966316 z"
     id="path2"
     style="fill:#3f3f3f;fill-opacity:1;stroke-width:0.987546" /><path
     class="st2"
     d="M 82.116964,0.02339171 V 29.223392 c 0,3.2 2.2,11.6 12.2,11.6 h 25.599996 z"
     id="path2-3"
     style="opacity:1;isolation:isolate;fill:#676767;fill-opacity:1" /><g
     id="g12"
     transform="matrix(2,0,0,2,0,9.4561399)"><path
       style="opacity:0.2"
       d="m 16,16 v 36 h 6 V 36 h 8 v -6 h -8 v -6 h 16 v -8 z m 20.75,18 -0.19922,2.367188 A 7.0737524,7.0726018 0 0 0 34.484374,37.5625 l -2.156252,-1.015624 -2.25,3.902342 1.957032,1.35547 a 7.0737524,7.0726018 0 0 0 -0.10938,1.191406 7.0737524,7.0726018 0 0 0 0.10546,1.195312 l -1.953126,1.359376 2.25,3.898436 2.152344,-1.011718 a 7.0737524,7.0726018 0 0 0 2.070314,1.1875 L 36.75,52 h 4.5 l 0.19922,-2.371094 a 7.0737524,7.0726018 0 0 0 2.066406,-1.195312 l 2.152344,1.015624 2.25,-3.898436 -1.953124,-1.359376 a 7.0737524,7.0726018 0 0 0 0.10938,-1.195312 7.0737524,7.0726018 0 0 0 -0.10156,-1.195312 l 1.94922,-1.351564 -2.25,-3.898436 -2.152344,1.011718 A 7.0737524,7.0726018 0 0 0 41.449218,36.375 L 41.25,34 Z M 39,39.996094 a 3.0009768,3.0009764 0 0 1 3,3 3.0009768,3.0009764 0 0 1 -3,3 3.0009768,3.0009764 0 0 1 -3.003906,-3 3.0009768,3.0009764 0 0 1 3.003906,-3 z"
       id="path3" /><path
       style="fill:#3f92e7"
       d="m 25.701776,33.999998 -0.0028,0.0054 h 0.0028 z"
       id="path7" /><path
       style="fill:#ff6363"
       d="m 16,15 h 22 v 7.999858 H 22 V 29 h 7.99916 v 6 H 22 v 16 h -6 z"
       id="path8" /><path
       style="fill:#3f92e7"
       d="m 36.751068,33 -0.19928,2.36796 a 7.0737524,7.0726018 0 0 0 -2.066102,1.1957 L 32.328734,35.54673 30.078,39.447412 32.035668,40.8043 a 7.0737524,7.0726018 0 0 0 -0.10844,1.19277 7.0737524,7.0726018 0 0 0 0.10258,1.195702 L 30.078,44.54966 l 2.250732,3.897752 2.15109,-1.011072 a 7.0737524,7.0726018 0 0 0 2.071964,1.18691 L 36.748118,51 h 4.501466 l 0.19928,-2.370888 a 7.0737524,7.0726018 0 0 0 2.066102,-1.195702 l 2.15402,1.014002 2.250734,-3.897752 -1.954738,-1.359818 a 7.0737524,7.0726018 0 0 0 0.10844,-1.192772 7.0737524,7.0726018 0 0 0 -0.10256,-1.1957 l 1.951806,-1.353958 -2.250732,-3.897752 -2.151092,1.01107 A 7.0737524,7.0726018 0 0 0 41.448886,35.376752 L 41.2496,33 Z m 2.247802,5.996094 a 3.0009768,3.0009764 0 0 1 3.000976,3.000976 3.0009768,3.0009764 0 0 1 -3.000976,3.000976 3.0009768,3.0009764 0 0 1 -3.000976,-3.000976 3.0009768,3.0009764 0 0 1 3.000976,-3.000976 z"
       id="path9" /></g></svg>
