<?xml version="1.0" encoding="UTF-8" standalone="no"?>
<svg
   id="_图层_1"
   data-name="图层_1"
   version="1.1"
   viewBox="0 0 128 128"
   width="64"
   height="64"
   sodipodi:docname="application-x-codelite-workspace.svg"
   xml:space="preserve"
   inkscape:version="1.4 (e7c3feb100, 2024-10-09)"
   xmlns:inkscape="http://www.inkscape.org/namespaces/inkscape"
   xmlns:sodipodi="http://sodipodi.sourceforge.net/DTD/sodipodi-0.dtd"
   xmlns="http://www.w3.org/2000/svg"
   xmlns:svg="http://www.w3.org/2000/svg"><sodipodi:namedview
     id="namedview3"
     pagecolor="#505050"
     bordercolor="#eeeeee"
     borderopacity="1"
     inkscape:showpageshadow="0"
     inkscape:pageopacity="0"
     inkscape:pagecheckerboard="0"
     inkscape:deskcolor="#505050"
     inkscape:zoom="10.6875"
     inkscape:cx="32"
     inkscape:cy="41.169591"
     inkscape:window-width="1920"
     inkscape:window-height="939"
     inkscape:window-x="0"
     inkscape:window-y="34"
     inkscape:window-maximized="1"
     inkscape:current-layer="_图层_1" /><!-- Generator: Adobe Illustrator 29.0.1, SVG Export Plug-In . SVG Version: 2.1.0 Build 192)  --><defs
     id="defs1"><style
       id="style1">
      .st0 {
        fill: #0071e9;
      }

      .st1 {
        fill: #fff;
      }

      .st2 {
        fill: #5aaaff;
        isolation: isolate;
        opacity: .5;
      }
    </style></defs><path
     class="st0"
     d="M18.2,0c-5.6,0-10.2,4.6-10.2,10.2v107.6c0,5.6,4.6,10.2,10.2,10.2h91.6c5.6,0,10.2-4.6,10.2-10.2V40.6L82.2,0H18.2Z"
     id="path1"
     style="fill:#4f4f4f;fill-opacity:1" /><path
     class="st2"
     d="m 82.761404,2.619883 v 29.2 c 0,3.2 2.145542,11.6 11.89801,11.6 h 24.966316 z"
     id="path2"
     style="fill:#3f3f3f;fill-opacity:1;stroke-width:0.987546" /><path
     class="st2"
     d="M 82.116964,0.02339171 V 29.223392 c 0,3.2 2.2,11.6 12.2,11.6 h 25.599996 z"
     id="path2-3"
     style="opacity:1;isolation:isolate;fill:#696969;fill-opacity:1" /><g
     id="g4"
     transform="matrix(2.4948668,0,0,2.2790602,-17.176738,-8.8764748)"><rect
       style="opacity:0.1"
       width="18"
       height="18"
       x="27"
       y="36"
       rx="1.385"
       ry="1.385"
       id="rect4" /><rect
       style="fill:#1190e6"
       width="18"
       height="18"
       x="27"
       y="35"
       rx="1.385"
       ry="1.385"
       id="rect5" /><rect
       style="opacity:0.1"
       width="18"
       height="18"
       x="23"
       y="32"
       rx="1.385"
       ry="1.385"
       id="rect6" /><rect
       style="fill:#6eca60"
       width="18"
       height="18"
       x="23"
       y="31"
       rx="1.385"
       ry="1.385"
       id="rect7" /><rect
       style="opacity:0.1"
       width="18"
       height="18"
       x="19"
       y="28"
       rx="1.385"
       ry="1.385"
       id="rect8" /><rect
       style="fill:#ffd748"
       width="18"
       height="18"
       x="19"
       y="27"
       rx="1.385"
       ry="1.385"
       id="rect9" /></g></svg>
