<?xml version="1.0" encoding="UTF-8" standalone="no"?>
<svg
   id="_图层_1"
   data-name="图层_1"
   version="1.1"
   viewBox="0 0 128 128"
   width="64"
   height="64"
   sodipodi:docname="application-x-openboardview-board.svg"
   xml:space="preserve"
   inkscape:version="1.4 (e7c3feb100, 2024-10-09)"
   xmlns:inkscape="http://www.inkscape.org/namespaces/inkscape"
   xmlns:sodipodi="http://sodipodi.sourceforge.net/DTD/sodipodi-0.dtd"
   xmlns="http://www.w3.org/2000/svg"
   xmlns:svg="http://www.w3.org/2000/svg"><sodipodi:namedview
     id="namedview3"
     pagecolor="#505050"
     bordercolor="#eeeeee"
     borderopacity="1"
     inkscape:showpageshadow="0"
     inkscape:pageopacity="0"
     inkscape:pagecheckerboard="0"
     inkscape:deskcolor="#505050"
     inkscape:zoom="10.6875"
     inkscape:cx="32"
     inkscape:cy="26.292398"
     inkscape:window-width="1920"
     inkscape:window-height="939"
     inkscape:window-x="0"
     inkscape:window-y="34"
     inkscape:window-maximized="1"
     inkscape:current-layer="_图层_1"
     showguides="true"><sodipodi:guide
       position="7.6134526,83.439664"
       orientation="1,0"
       id="guide7"
       inkscape:locked="false" /><sodipodi:guide
       position="120.24109,71.856006"
       orientation="1,0"
       id="guide8"
       inkscape:locked="false" /></sodipodi:namedview><!-- Generator: Adobe Illustrator 29.0.1, SVG Export Plug-In . SVG Version: 2.1.0 Build 192)  --><defs
     id="defs1"><style
       id="style1">
      .st0 {
        fill: #0071e9;
      }

      .st1 {
        fill: #fff;
      }

      .st2 {
        fill: #5aaaff;
        isolation: isolate;
        opacity: .5;
      }
    </style><style
       id="style1-6">
      .st0 {
        fill: #0071e9;
      }

      .st1 {
        fill: #fff;
      }

      .st2 {
        fill: #5aaaff;
        isolation: isolate;
        opacity: .5;
      }
    </style><style
       id="style1-8">
      .st0 {
        fill: #0071e9;
      }

      .st1 {
        fill: #fff;
      }

      .st2 {
        fill: #5aaaff;
        isolation: isolate;
        opacity: .5;
      }
    </style><style
       id="style1-0">
      .st0 {
        fill: #0071e9;
      }

      .st1 {
        fill: #fff;
      }

      .st2 {
        fill: #5aaaff;
        isolation: isolate;
        opacity: .5;
      }
    </style></defs><path
     class="st0"
     d="M18.2,0c-5.6,0-10.2,4.6-10.2,10.2v107.6c0,5.6,4.6,10.2,10.2,10.2h91.6c5.6,0,10.2-4.6,10.2-10.2V40.6L82.2,0H18.2Z"
     id="path1"
     style="fill:#3f4077;fill-opacity:1" /><path
     class="st2"
     d="m 82.761404,2.619883 v 29.2 c 0,3.2 2.145542,11.6 11.89801,11.6 h 24.966316 z"
     id="path2"
     style="fill:#32335f;fill-opacity:1;stroke-width:0.987546" /><path
     class="st2"
     d="M 82.116964,0.02339171 V 29.223392 c 0,3.2 2.2,11.6 12.2,11.6 h 25.599996 z"
     id="path2-3"
     style="opacity:1;isolation:isolate;fill:#5c5da7;fill-opacity:1" /><g
     id="g12"
     transform="matrix(2.5073424,0,0,2.2921925,-17.488629,-9.3032728)"><path
       style="opacity:0.2"
       d="m 42,32.999969 c -3.865993,0 -7,3.134007 -7,7 0.0017,1.202567 0.313099,2.384428 0.904297,3.431641 l -2.580078,2.568359 H 14.808594 L 10,51.003875 V 55.332 l 6.085938,-6.332031 H 34.5625 l 3.347656,-3.330078 c 1.189935,0.86154 2.620767,1.326868 4.089844,1.330078 3.865993,0 7,-3.134007 7,-7 0,-3.865993 -3.134007,-7 -7,-7 z m 0,2.800781 c 2.318986,4.31e-4 4.198788,1.880233 4.199219,4.199219 C 46.198788,42.318955 44.318986,44.198757 42,44.199188 39.681014,44.198757 37.801212,42.318955 37.800781,39.999969 37.801212,37.680983 39.681014,35.801181 42,35.80075 Z M 18.5,37 C 17.119288,37 16,38.119288 16,39.5 16,40.880712 17.119288,42 18.5,42 19.880712,42 21,40.880712 21,39.5 21,38.119288 19.880712,37 18.5,37 Z m 9,0 C 26.119288,37 25,38.119288 25,39.5 25,40.880712 26.119288,42 27.5,42 28.880712,42 30,40.880712 30,39.5 30,38.119288 28.880712,37 27.5,37 Z"
       id="path3" /><circle
       style="fill:#ffffff"
       cx="18.5"
       cy="38.5"
       r="2.5"
       id="circle5" /><circle
       style="fill:#ffffff"
       cx="27.5"
       cy="38.5"
       r="2.5"
       id="circle6" /><path
       style="fill:#ffffff"
       d="m 42,32 a 7,7 0 0 0 -7,7 7,7 0 0 0 7,7 7,7 0 0 0 7,-7 7,7 0 0 0 -7,-7 z m 0,2.8 A 4.2,4.2 0 0 1 46.2,39 4.2,4.2 0 0 1 42,43.2 4.2,4.2 0 0 1 37.8,39 4.2,4.2 0 0 1 42,34.8 Z"
       id="path6" /><path
       style="fill:#ffffff"
       d="M 36.847656,41.494141 33.324219,45 H 14.808594 L 10,50.003906 v 4.328125 L 16.085938,48 H 34.5625 l 4.402344,-4.378906 z"
       id="path7" /></g></svg>
