<?xml version="1.0" encoding="UTF-8" standalone="no"?>
<svg
   id="_图层_1"
   data-name="图层_1"
   version="1.1"
   viewBox="0 0 128 128"
   width="64"
   height="64"
   sodipodi:docname="application-x-lyx.svg"
   xml:space="preserve"
   inkscape:version="1.4 (e7c3feb100, 2024-10-09)"
   xmlns:inkscape="http://www.inkscape.org/namespaces/inkscape"
   xmlns:sodipodi="http://sodipodi.sourceforge.net/DTD/sodipodi-0.dtd"
   xmlns="http://www.w3.org/2000/svg"
   xmlns:svg="http://www.w3.org/2000/svg"><sodipodi:namedview
     id="namedview3"
     pagecolor="#505050"
     bordercolor="#eeeeee"
     borderopacity="1"
     inkscape:showpageshadow="0"
     inkscape:pageopacity="0"
     inkscape:pagecheckerboard="0"
     inkscape:deskcolor="#505050"
     inkscape:zoom="10.6875"
     inkscape:cx="32"
     inkscape:cy="26.292398"
     inkscape:window-width="1920"
     inkscape:window-height="939"
     inkscape:window-x="0"
     inkscape:window-y="34"
     inkscape:window-maximized="1"
     inkscape:current-layer="_图层_1"
     showguides="true"><sodipodi:guide
       position="7.6134526,83.439664"
       orientation="1,0"
       id="guide7"
       inkscape:locked="false" /><sodipodi:guide
       position="120.24109,71.856006"
       orientation="1,0"
       id="guide8"
       inkscape:locked="false" /></sodipodi:namedview><!-- Generator: Adobe Illustrator 29.0.1, SVG Export Plug-In . SVG Version: 2.1.0 Build 192)  --><defs
     id="defs1"><style
       id="style1">
      .st0 {
        fill: #0071e9;
      }

      .st1 {
        fill: #fff;
      }

      .st2 {
        fill: #5aaaff;
        isolation: isolate;
        opacity: .5;
      }
    </style></defs><path
     class="st0"
     d="M18.2,0c-5.6,0-10.2,4.6-10.2,10.2v107.6c0,5.6,4.6,10.2,10.2,10.2h91.6c5.6,0,10.2-4.6,10.2-10.2V40.6L82.2,0H18.2Z"
     id="path1"
     style="fill:#e4e4e4;fill-opacity:1" /><path
     class="st2"
     d="m 82.761404,2.619883 v 29.2 c 0,3.2 2.145542,11.6 11.89801,11.6 h 24.966316 z"
     id="path2"
     style="fill:#b6b6b6;fill-opacity:1;stroke-width:0.987546" /><path
     class="st2"
     d="M 82.116964,0.02339171 V 29.223392 c 0,3.2 2.2,11.6 12.2,11.6 h 25.599996 z"
     id="path2-3"
     style="opacity:1;isolation:isolate;fill:#fafafa;fill-opacity:1" /><g
     id="g8"
     transform="matrix(2.4990253,0,0,2.2921925,-17.218323,-9.3032728)"><path
       style="opacity:0.1;fill-rule:evenodd"
       d="M 19.837259,48.905306 14,35.428317 l 4.842728,-2.231916 3.761514,9.04614 4.548489,-2.309303 2.046728,4.35346 z"
       id="path6" /><path
       style="fill:#4587cf;fill-rule:evenodd"
       d="M 19.837259,47.905306 14,34.428317 l 4.842728,-2.231916 3.761514,9.04614 4.548489,-2.309303 2.046728,4.35346 z"
       id="path7" /><path
       style="opacity:0.1;fill-rule:evenodd"
       d="m 36.884251,31 5.134748,0.982333 1.103114,3.3183 L 45.376767,32.73687 51,33.919124 l -5.050652,5.608073 2.851262,8.354435 -6.053317,-0.585736 -1.076759,-4.529428 -2.735008,3.727168 -4.707253,-1.465292 4.732758,-6.675295 z"
       id="path8" /><path
       style="fill:#de5328;fill-rule:evenodd"
       d="m 36.884251,30 5.134748,0.982333 1.103114,3.3183 L 45.376767,31.73687 51,32.919124 l -5.050652,5.608073 2.851262,8.354435 -6.053317,-0.585736 -1.076759,-4.529428 -2.735008,3.727168 -4.707253,-1.465292 4.732758,-6.675295 z"
       id="path9" /><path
       style="opacity:0.1;fill-rule:evenodd"
       d="m 23.893011,35.850824 5.875148,0.794981 1.743581,3.634302 2.198468,-3.142149 5.913036,0.757135 -5.420299,7.722799 L 32.876305,53 27.380229,52.129307 28.327834,45.504316 Z"
       id="path10" /><path
       style="fill:#dfa722;fill-rule:evenodd"
       d="m 23.893011,34.850824 5.875148,0.794981 1.743581,3.634302 2.198468,-3.142149 5.913036,0.757135 -5.420299,7.722799 L 32.876305,52 27.380229,51.129307 28.327834,44.504316 Z"
       id="path11" /></g></svg>
