<?xml version="1.0" encoding="UTF-8"?>
<svg id="_图层_1" data-name="图层_1" xmlns="http://www.w3.org/2000/svg" version="1.1" viewBox="0 0 128 128" width="64" height="64">
  <!-- Generator: Adobe Illustrator 29.0.1, SVG Export Plug-In . SVG Version: 2.1.0 Build 192)  -->
  <defs>
    <style>
      .st0 {
        fill: #0071e9;
      }

      .st1 {
        fill: #fff;
      }

      .st2 {
        fill: #5aaaff;
        isolation: isolate;
        opacity: .5;
      }
    </style>
  </defs>
  <path class="st0" d="M18.2,0c-5.6,0-10.2,4.6-10.2,10.2v107.6c0,5.6,4.6,10.2,10.2,10.2h91.6c5.6,0,10.2-4.6,10.2-10.2V40.6L82.2,0H18.2Z"/>
  <path class="st2" d="M82.2,0v29.2c0,3.2,2.2,11.6,12.2,11.6h25.6L82.2,0Z"/>
  <path class="st1" d="M46,52v33.1l11.4-13.9c.4-.6.9-1,1.4-1.4.5-.4,1-.7,1.6-1,.6-.3,1.1-.5,1.7-.6.6,0,1.2-.2,1.9-.2s1.2,0,1.8.2c.6.2,1.1.3,1.7.6.6.2,1.1.6,1.6,1,.6.4,1,.9,1.4,1.4l11.4,14.4v-33.6c0-3.4,2.7-6,6.1-6s6,2.6,6,6v33.1c0,.6,0,1.4-.2,2,0,.6-.2,1-.3,1.6-.2.9-.6,1.7-1,2.5-.2.3-.3.6-.5.9-.7,1.1-1.4,2-2.4,2.9-.6.6-1.3,1-2.1,1.5-.3.2-.7.3-1.1.6-1.2.5-2.4.8-3.7.9-1.3,0-2.6,0-3.8-.4-1.2-.3-2.3-.8-3.4-1.5-.3-.3-.7-.6-1-.8-.6-.6-1.2-1.1-1.7-1.8l-8.8-11.3-8.9,11.3c-.8,1-1.7,1.8-2.7,2.5-.8.6-1.7,1-2.6,1.4-.2,0-.6.2-.8.2-1.3.4-2.6.5-3.8.4s-2.5-.4-3.7-.9c-.4-.2-.8-.4-1.1-.6-.8-.5-1.4-1-2.1-1.5-.9-.8-1.7-1.8-2.4-2.9-.6-1-1-2.2-1.4-3.4-.3-1.2-.4-2.4-.4-3.6v-33.1c0-3.4,2.6-6,6-6s6,2.6,6,6Z"/>
</svg>