<?xml version="1.0" encoding="UTF-8" standalone="no"?>
<svg
   id="_图层_1"
   data-name="图层_1"
   version="1.1"
   viewBox="0 0 128 128"
   width="64"
   height="64"
   sodipodi:docname="text-x-vala.svg"
   xml:space="preserve"
   inkscape:version="1.4 (e7c3feb100, 2024-10-09)"
   xmlns:inkscape="http://www.inkscape.org/namespaces/inkscape"
   xmlns:sodipodi="http://sodipodi.sourceforge.net/DTD/sodipodi-0.dtd"
   xmlns="http://www.w3.org/2000/svg"
   xmlns:svg="http://www.w3.org/2000/svg"><sodipodi:namedview
     id="namedview3"
     pagecolor="#505050"
     bordercolor="#eeeeee"
     borderopacity="1"
     inkscape:showpageshadow="0"
     inkscape:pageopacity="0"
     inkscape:pagecheckerboard="0"
     inkscape:deskcolor="#505050"
     inkscape:zoom="10.6875"
     inkscape:cx="32"
     inkscape:cy="26.19883"
     inkscape:window-width="1920"
     inkscape:window-height="939"
     inkscape:window-x="0"
     inkscape:window-y="34"
     inkscape:window-maximized="1"
     inkscape:current-layer="_图层_1" /><!-- Generator: Adobe Illustrator 29.0.1, SVG Export Plug-In . SVG Version: 2.1.0 Build 192)  --><defs
     id="defs1"><style
       id="style1">
      .st0 {
        fill: #0071e9;
      }

      .st1 {
        fill: #fff;
      }

      .st2 {
        fill: #5aaaff;
        isolation: isolate;
        opacity: .5;
      }
    </style></defs><path
     class="st0"
     d="M18.2,0c-5.6,0-10.2,4.6-10.2,10.2v107.6c0,5.6,4.6,10.2,10.2,10.2h91.6c5.6,0,10.2-4.6,10.2-10.2V40.6L82.2,0H18.2Z"
     id="path1"
     style="fill:#634d9f;fill-opacity:1" /><path
     class="st2"
     d="m 82.761404,2.619883 v 29.2 c 0,3.2 2.145542,11.6 11.89801,11.6 h 24.966316 z"
     id="path2"
     style="fill:#4f3e7f;fill-opacity:1;stroke-width:0.987546" /><path
     class="st2"
     d="M 82.116964,0.02339171 V 29.223392 c 0,3.2 2.2,11.6 12.2,11.6 h 25.599996 z"
     id="path2-3"
     style="opacity:1;isolation:isolate;fill:#806cb8;fill-opacity:1" /><g
     id="g7"
     transform="matrix(2.5443913,0,0,2.2790602,-17.420521,-8.7829076)"><path
       style="opacity:0.2"
       d="m 28.00041,54.999176 -8.2e-4,-25.188418 c -1.751004,0.655798 -2.429146,1.288882 -3.409573,2.688188 -0.977107,1.39457 -1.106677,3.921162 -1.106677,5.998314 0,0.473602 0.02443,0.862416 0.07332,1.166444 0.06043,0.291404 0.121096,0.528204 0.182068,0.710402 0.06097,0.17012 0.115893,0.303752 0.164763,0.400886 0.06043,0.09714 0.09062,0.1822 0.09062,0.255186 -0.644267,0 -1.215486,-0.06064 -1.713656,-0.18192 -0.498693,-0.1339 -0.91832,-0.34052 -1.258855,-0.619854 C 20.693153,39.94962 20.437753,39.57919 20.2554,39.117112 20.085131,38.656134 20,38.085398 20,37.404902 c 0,-0.825922 0.231578,-2.317186 0.528103,-3.140754 1.283179,-3.563904 5.647498,-5.8588 9.025906,-6.868598 1.042506,-0.311602 2.109665,-0.3836 3.155436,-0.3836 C 33.102963,26.96253 33.96999,27.08223 34,27.08439 V 50.042812 L 42.39243,27.19304 h 2.607567 L 34.62413,55 h -6.62454 z"
       id="path5" /><path
       style="fill:#ffffff"
       d="m 28.00041,53.999176 -8.2e-4,-25.188418 c -1.751004,0.655798 -2.429146,1.288882 -3.409573,2.688188 -0.977107,1.39457 -1.106677,3.921162 -1.106677,5.998314 0,0.473602 0.02443,0.862416 0.07332,1.166444 0.06043,0.291404 0.121096,0.528204 0.182068,0.710402 0.06097,0.17012 0.115893,0.303752 0.164763,0.400886 0.06043,0.09714 0.09062,0.1822 0.09062,0.255186 -0.644267,0 -1.215486,-0.06064 -1.713656,-0.18192 -0.498693,-0.1339 -0.91832,-0.34052 -1.258855,-0.619854 C 20.693153,38.94962 20.437753,38.57919 20.2554,38.117112 20.085131,37.656134 20,37.085398 20,36.404902 c 0,-0.825922 0.231578,-2.317186 0.528103,-3.140754 1.283179,-3.563904 5.647498,-5.8588 9.025906,-6.868598 1.042506,-0.311602 2.109665,-0.3836 3.155436,-0.3836 C 33.102963,25.96253 33.96999,26.08223 34,26.08439 V 49.042812 L 42.39243,26.19304 h 2.607567 L 34.62413,54 h -6.62454 z"
       id="path6" /></g></svg>
