<?xml version="1.0" encoding="UTF-8" standalone="no"?>
<svg
   id="_图层_1"
   data-name="图层_1"
   version="1.1"
   viewBox="0 0 128 128"
   width="64"
   height="64"
   sodipodi:docname="text-x-eiffel.svg"
   xml:space="preserve"
   inkscape:version="1.4 (e7c3feb100, 2024-10-09)"
   xmlns:inkscape="http://www.inkscape.org/namespaces/inkscape"
   xmlns:sodipodi="http://sodipodi.sourceforge.net/DTD/sodipodi-0.dtd"
   xmlns="http://www.w3.org/2000/svg"
   xmlns:svg="http://www.w3.org/2000/svg"><sodipodi:namedview
     id="namedview3"
     pagecolor="#505050"
     bordercolor="#eeeeee"
     borderopacity="1"
     inkscape:showpageshadow="0"
     inkscape:pageopacity="0"
     inkscape:pagecheckerboard="0"
     inkscape:deskcolor="#505050"
     inkscape:zoom="10.6875"
     inkscape:cx="32"
     inkscape:cy="33.684211"
     inkscape:window-width="1920"
     inkscape:window-height="939"
     inkscape:window-x="0"
     inkscape:window-y="34"
     inkscape:window-maximized="1"
     inkscape:current-layer="_图层_1"
     showguides="true"><sodipodi:guide
       position="7.6134526,83.439664"
       orientation="1,0"
       id="guide7"
       inkscape:locked="false" /><sodipodi:guide
       position="120.24109,71.856006"
       orientation="1,0"
       id="guide8"
       inkscape:locked="false" /></sodipodi:namedview><!-- Generator: Adobe Illustrator 29.0.1, SVG Export Plug-In . SVG Version: 2.1.0 Build 192)  --><defs
     id="defs1"><style
       id="style1">
      .st0 {
        fill: #0071e9;
      }

      .st1 {
        fill: #fff;
      }

      .st2 {
        fill: #5aaaff;
        isolation: isolate;
        opacity: .5;
      }
    </style></defs><path
     class="st0"
     d="M18.2,0c-5.6,0-10.2,4.6-10.2,10.2v107.6c0,5.6,4.6,10.2,10.2,10.2h91.6c5.6,0,10.2-4.6,10.2-10.2V40.6L82.2,0H18.2Z"
     id="path1"
     style="fill:#2684b5;fill-opacity:1" /><path
     class="st2"
     d="m 82.761404,2.619883 v 29.2 c 0,3.2 2.145542,11.6 11.89801,11.6 h 24.966316 z"
     id="path2"
     style="fill:#1e6a91;fill-opacity:1;stroke-width:0.987546" /><path
     class="st2"
     d="M 82.116964,0.02339171 V 29.223392 c 0,3.2 2.2,11.6 12.2,11.6 h 25.599996 z"
     id="path2-3"
     style="opacity:1;isolation:isolate;fill:#549cc2;fill-opacity:1" /><g
     id="g8"
     transform="matrix(2.5614035,0,0,2.2823433,-18.152047,-9.0416538)"><path
       style="opacity:0.2"
       d="m 39.215976,29.000016 c -1.880414,0.430462 -4.547812,1.076488 -6.603148,1.420858 l 1.66125,1.937072 z m 2.361624,0.12948 1.223946,4.692188 3.41133,-1.506612 z m -0.743934,0.300986 -2.754514,6.414032 3.935754,-1.721842 z m -0.91817,0.08658 -5.11614,3.486564 2.405184,2.840872 z m -7.95863,1.377136 -3.105554,5.252126 4.766804,-3.272174 z m 14.343128,2.238902 -3.323356,1.462894 1.268358,4.950296 z m -12.156598,0.343864 -5.073434,3.486562 7.434204,-0.688568 z m 8.090164,1.420856 -4.067288,1.764722 5.379206,3.400806 z m -6.34094,2.152302 -7.609296,0.68857 2.098558,3.185576 z m 2.098558,0.343866 1.355478,5.295002 4.023728,-1.894196 z m -1.574132,0.258948 -5.597858,3.917026 2.361624,3.572316 0.08796,-0.1715 v 0.04286 z m 0.831052,0.12864 -3.192676,7.404426 4.548156,-2.152304 z m -9.620734,0.387582 -4.766806,8.049278 6.865364,-4.820824 z m 16.005232,3.357928 -4.110848,1.937074 1.574132,6.069328 z M 30.163228,42.043302 23.166332,46.9936 32.56841,45.70222 Z m 8.659004,1.764722 -4.72325,2.2389 6.297378,3.874146 z m -6.996898,2.712238 -9.489202,1.291382 2.667396,3.701796 z m 2.230088,0.300986 2.011438,6.069326 4.3295,-2.152302 z M 33.268784,47.036478 29.944576,55 h 1.924318 l 3.498448,-1.76472 z m -0.874612,0.04286 -6.909776,5.079772 2.011438,2.840872 h 1.44345 z m -10.713996,1.162748 -3.980171,6.757894 h 2.536717 l 4.11085,-3.013222 z m 18.804158,3.31421 -4.154406,2.109426 0.437306,1.334258 h 2.667394 z M 24.828438,52.632448 21.5922,54.99998 h 4.941902 z m 10.757558,1.377978 -1.96788,0.989554 h 2.318064 z"
       id="path6" /><path
       id="polygon2"
       style="fill:#ffffff"
       d="m 39.215976,28.000016 c -1.880414,0.430462 -4.547812,1.076488 -6.603148,1.420858 l 1.66125,1.937072 z m 2.361624,0.12948 1.223946,4.692188 3.41133,-1.506612 z m -0.743934,0.300986 -2.754514,6.414032 3.935754,-1.721842 z m -0.91817,0.08658 -5.11614,3.486564 2.405184,2.840872 z m -7.95863,1.377136 -3.105554,5.252126 4.766804,-3.272174 z m 14.343128,2.238902 -3.323356,1.462894 1.268358,4.950296 z m -12.156598,0.343864 -5.073434,3.486562 7.434204,-0.688568 z m 8.090164,1.420856 -4.067288,1.764722 5.379206,3.400806 z m -6.34094,2.152302 -7.609296,0.68857 2.098558,3.185576 z m 2.098558,0.343866 1.355478,5.295002 4.023728,-1.894196 z m -1.574132,0.258948 -5.597858,3.917026 2.361624,3.572316 0.08796,-0.1715 v 0.04286 z m 0.831052,0.12864 -3.192676,7.404426 4.548156,-2.152304 z m -9.620734,0.387582 -4.766806,8.049278 6.865364,-4.820824 z m 16.005232,3.357928 -4.110848,1.937074 1.574132,6.069328 z M 30.163228,41.043302 23.166332,45.9936 32.56841,44.70222 Z m 8.659004,1.764722 -4.72325,2.2389 6.297378,3.874146 z m -6.996898,2.712238 -9.489202,1.291382 2.667396,3.701796 z m 2.230088,0.300986 2.011438,6.069326 4.3295,-2.152302 z M 33.268784,46.036478 29.944576,54 h 1.924318 l 3.498448,-1.76472 z m -0.874612,0.04286 -6.909776,5.079772 2.011438,2.840872 h 1.44345 z m -10.713996,1.162748 -3.980171,6.757894 h 2.536717 l 4.11085,-3.013222 z m 18.804158,3.31421 -4.154406,2.109426 0.437306,1.334258 h 2.667394 z M 24.828438,51.632448 21.5922,53.99998 h 4.941902 z m 10.757558,1.377978 -1.96788,0.989554 h 2.318064 z" /></g></svg>
