<?xml version="1.0" encoding="UTF-8" standalone="no"?>
<svg
   id="_图层_1"
   data-name="图层_1"
   version="1.1"
   viewBox="0 0 128 128"
   width="64"
   height="64"
   sodipodi:docname="text-x-qml.svg"
   xml:space="preserve"
   inkscape:version="1.4 (e7c3feb100, 2024-10-09)"
   xmlns:inkscape="http://www.inkscape.org/namespaces/inkscape"
   xmlns:sodipodi="http://sodipodi.sourceforge.net/DTD/sodipodi-0.dtd"
   xmlns="http://www.w3.org/2000/svg"
   xmlns:svg="http://www.w3.org/2000/svg"><sodipodi:namedview
     id="namedview3"
     pagecolor="#505050"
     bordercolor="#eeeeee"
     borderopacity="1"
     inkscape:showpageshadow="0"
     inkscape:pageopacity="0"
     inkscape:pagecheckerboard="0"
     inkscape:deskcolor="#505050"
     inkscape:zoom="10.6875"
     inkscape:cx="32"
     inkscape:cy="26.19883"
     inkscape:window-width="1920"
     inkscape:window-height="939"
     inkscape:window-x="0"
     inkscape:window-y="34"
     inkscape:window-maximized="1"
     inkscape:current-layer="_图层_1"
     showguides="true"><sodipodi:guide
       position="7.6134526,83.439664"
       orientation="1,0"
       id="guide7"
       inkscape:locked="false" /><sodipodi:guide
       position="120.24109,71.856006"
       orientation="1,0"
       id="guide8"
       inkscape:locked="false" /></sodipodi:namedview><!-- Generator: Adobe Illustrator 29.0.1, SVG Export Plug-In . SVG Version: 2.1.0 Build 192)  --><defs
     id="defs1"><style
       id="style1">
      .st0 {
        fill: #0071e9;
      }

      .st1 {
        fill: #fff;
      }

      .st2 {
        fill: #5aaaff;
        isolation: isolate;
        opacity: .5;
      }
    </style></defs><path
     class="st0"
     d="M18.2,0c-5.6,0-10.2,4.6-10.2,10.2v107.6c0,5.6,4.6,10.2,10.2,10.2h91.6c5.6,0,10.2-4.6,10.2-10.2V40.6L82.2,0H18.2Z"
     id="path1"
     style="fill:#607d8b;fill-opacity:1" /><path
     class="st2"
     d="m 82.761404,2.619883 v 29.2 c 0,3.2 2.145542,11.6 11.89801,11.6 h 24.966316 z"
     id="path2"
     style="fill:#4d646f;fill-opacity:1;stroke-width:0.987546" /><path
     class="st2"
     d="M 82.116964,0.02339171 V 29.223392 c 0,3.2 2.2,11.6 12.2,11.6 h 25.599996 z"
     id="path2-3"
     style="opacity:1;isolation:isolate;fill:#859daa;fill-opacity:1" /><g
     id="g8"
     transform="matrix(2.5443913,0,0,2.2889094,-17.420521,-9.2550528)"><path
       style="opacity:0.2;fill-rule:evenodd"
       d="m 24.642578,29.002248 a 1.365308,1.4042805 0 0 0 -0.128906,0.0039 1.365308,1.4042805 0 0 0 -0.361328,0.07617 c 0,0 -0.854001,0.28979 -1.84375,0.826172 -0.991115,0.536382 -2.194697,1.285218 -2.96875,2.574219 -0.861423,1.433627 -0.535152,2.96841 -0.267578,3.886719 0.268938,0.916904 0.41643,1.319984 0.167968,1.933593 -0.120134,0.300486 -0.860376,0.956631 -1.669922,1.365235 -0.810911,0.408605 -1.546874,0.623046 -1.546874,0.623046 a 1.365308,1.4042805 0 0 0 -0.976563,1.72461 1.365308,1.4042805 0 0 0 0.976563,1.6875 c 0,0 0.735962,0.214442 1.546874,0.623047 0.809547,0.407201 1.549788,1.064749 1.669922,1.365234 0.248462,0.615013 0.10097,1.015286 -0.167968,1.933594 -0.267574,0.918307 -0.593845,2.451687 0.267578,3.886719 0.774053,1.287596 1.977635,2.037836 2.96875,2.574218 0.989749,0.534977 1.84375,0.826172 1.84375,0.826172 a 1.365308,1.4042805 0 1 0 0.859375,-2.664062 c 0,0 -0.649398,-0.222434 -1.431641,-0.646485 -0.782244,-0.422646 -1.619186,-1.077459 -1.914062,-1.570312 -0.334468,-0.557443 -0.225027,-0.74925 0.02344,-1.601563 0.249827,-0.852313 0.698107,-2.265137 0.07422,-3.8125 -0.551529,-1.37044 -1.653606,-2.097349 -2.640625,-2.621093 0.987019,-0.52234 2.089096,-1.2487 2.640625,-2.619141 0.623883,-1.547362 0.175603,-2.96214 -0.07422,-3.814453 -0.248461,-0.852314 -0.357902,-1.045524 -0.02344,-1.601563 0.294876,-0.492853 1.131818,-1.144309 1.914062,-1.568359 0.782243,-0.422646 1.431641,-0.646484 1.431641,-0.646484 A 1.365308,1.4042805 0 0 0 24.642578,29.00224 Z m 14.708984,0 a 1.3653073,1.404279 0 0 0 -0.363281,2.744141 c 0,0 0.649399,0.223839 1.431641,0.646484 0.782243,0.424051 1.619775,1.075506 1.916016,1.568359 0.334466,0.556039 0.223067,0.74925 -0.02539,1.601563 -0.248461,0.852312 -0.696741,2.267093 -0.07422,3.814453 0.552894,1.37044 1.653607,2.096801 2.640625,2.619141 -0.987018,0.523744 -2.087731,1.250654 -2.640625,2.621093 -0.622518,1.547361 -0.174238,2.960188 0.07422,3.8125 0.248461,0.852312 0.35986,1.046073 0.02539,1.603516 -0.296242,0.492852 -1.133773,1.145713 -1.916016,1.568359 -0.782242,0.42405 -1.431641,0.646485 -1.431641,0.646485 a 1.3653073,1.404279 0 1 0 0.859375,2.664062 c 0,0 0.855954,-0.291195 1.845703,-0.826172 0.989749,-0.536381 2.192746,-1.286623 2.966797,-2.574218 0.861423,-1.435029 0.535151,-2.968413 0.267578,-3.886719 -0.267574,-0.918307 -0.415063,-1.318582 -0.167968,-1.933594 0.121501,-0.300486 0.860964,-0.958033 1.671875,-1.365234 0.809547,-0.408604 1.544922,-0.623047 1.544921,-0.623047 a 1.3653073,1.404279 0 0 0 0.976563,-1.6875 1.3653073,1.404279 0 0 0 -0.976563,-1.72461 c 0,0 -0.735374,-0.214442 -1.544921,-0.623046 -0.810911,-0.408604 -1.550374,-1.06475 -1.671875,-1.365235 -0.247095,-0.613609 -0.09961,-1.016692 0.167968,-1.933593 0.267573,-0.918307 0.593845,-2.453094 -0.267578,-3.886719 -0.774051,-1.289 -1.977048,-2.037839 -2.966797,-2.574219 -0.989749,-0.536382 -1.845703,-0.826172 -1.845703,-0.826172 a 1.3653073,1.404279 0 0 0 -0.359375,-0.07617 1.3653073,1.404279 0 0 0 -0.130859,-0.0039 1.3653073,1.404279 0 0 0 -0.0059,0 z m -7.351562,6 a 3.0000002,3.0000002 0 0 0 -3,3 3.0000002,3.0000002 0 0 0 3,3 3.0000002,3.0000002 0 0 0 3,-3 3.0000002,3.0000002 0 0 0 -3,-3 z m 0,7.976562 c -1.6575,0 -3,1.3425 -3,3 0,1.6575 1.3425,3 3,3 1.0605,0 1.5,3 1.5,3 0,0 1.5,-5.403001 1.5,-6 0,-1.6575 -1.342499,-3 -3,-3 z"
       id="path6" /><path
       style="fill:#ffffff;fill-rule:evenodd"
       d="m 24.642578,28 a 1.365308,1.4042805 0 0 0 -0.128906,0.0039 1.365308,1.4042805 0 0 0 -0.361328,0.07617 c 0,0 -0.854001,0.28979 -1.84375,0.826172 -0.991115,0.536382 -2.194697,1.285218 -2.96875,2.574219 -0.861423,1.433627 -0.535152,2.96841 -0.267578,3.886719 0.268938,0.916904 0.41643,1.319984 0.167968,1.933593 -0.120134,0.300486 -0.860376,0.956631 -1.669922,1.365235 -0.810911,0.408605 -1.546874,0.623046 -1.546874,0.623046 a 1.365308,1.4042805 0 0 0 -0.976563,1.72461 1.365308,1.4042805 0 0 0 0.976563,1.6875 c 0,0 0.735962,0.214442 1.546874,0.623047 0.809547,0.407201 1.549788,1.064749 1.669922,1.365234 0.248462,0.615013 0.10097,1.015286 -0.167968,1.933594 -0.267574,0.918307 -0.593845,2.451687 0.267578,3.886719 0.774053,1.287596 1.977635,2.037836 2.96875,2.574218 0.989749,0.534977 1.84375,0.826172 1.84375,0.826172 a 1.365308,1.4042805 0 1 0 0.859375,-2.664062 c 0,0 -0.649398,-0.222434 -1.431641,-0.646485 -0.782244,-0.422646 -1.619186,-1.077459 -1.914062,-1.570312 -0.334468,-0.557443 -0.225027,-0.74925 0.02344,-1.601563 0.249827,-0.852313 0.698107,-2.265137 0.07422,-3.8125 -0.551529,-1.37044 -1.653606,-2.097349 -2.640625,-2.621093 0.987019,-0.52234 2.089096,-1.2487 2.640625,-2.619141 0.623883,-1.547362 0.175603,-2.96214 -0.07422,-3.814453 -0.248461,-0.852314 -0.357902,-1.045524 -0.02344,-1.601563 0.294876,-0.492853 1.131818,-1.144309 1.914062,-1.568359 0.782243,-0.422646 1.431641,-0.646484 1.431641,-0.646484 A 1.365308,1.4042805 0 0 0 24.642578,28 Z m 14.708984,0 a 1.3653073,1.404279 0 0 0 -0.363281,2.744141 c 0,0 0.649399,0.223839 1.431641,0.646484 0.782243,0.424051 1.619775,1.075506 1.916016,1.568359 0.334466,0.556039 0.223067,0.74925 -0.02539,1.601563 -0.248461,0.852312 -0.696741,2.267093 -0.07422,3.814453 0.552894,1.37044 1.653607,2.096801 2.640625,2.619141 -0.987018,0.523744 -2.087731,1.250654 -2.640625,2.621093 -0.622518,1.547361 -0.174238,2.960188 0.07422,3.8125 0.248461,0.852312 0.35986,1.046073 0.02539,1.603516 -0.296242,0.492852 -1.133773,1.145713 -1.916016,1.568359 -0.782242,0.42405 -1.431641,0.646485 -1.431641,0.646485 a 1.3653073,1.404279 0 1 0 0.859375,2.664062 c 0,0 0.855954,-0.291195 1.845703,-0.826172 0.989749,-0.536381 2.192746,-1.286623 2.966797,-2.574218 0.861423,-1.435029 0.535151,-2.968413 0.267578,-3.886719 -0.267574,-0.918307 -0.415063,-1.318582 -0.167968,-1.933594 0.121501,-0.300486 0.860964,-0.958033 1.671875,-1.365234 0.809547,-0.408604 1.544922,-0.623047 1.544921,-0.623047 a 1.3653073,1.404279 0 0 0 0.976563,-1.6875 1.3653073,1.404279 0 0 0 -0.976563,-1.72461 c 0,0 -0.735374,-0.214442 -1.544921,-0.623046 -0.810911,-0.408604 -1.550374,-1.06475 -1.671875,-1.365235 -0.247095,-0.613609 -0.09961,-1.016692 0.167968,-1.933593 0.267573,-0.918307 0.593845,-2.453094 -0.267578,-3.886719 -0.774051,-1.289 -1.977048,-2.037839 -2.966797,-2.574219 -0.989749,-0.536382 -1.845703,-0.826172 -1.845703,-0.826172 A 1.3653073,1.404279 0 0 0 39.488281,28.003906 1.3653073,1.404279 0 0 0 39.357422,28 a 1.3653073,1.404279 0 0 0 -0.0059,0 z M 32,34 a 3.0000002,3.0000002 0 0 0 -3,3 3.0000002,3.0000002 0 0 0 3,3 3.0000002,3.0000002 0 0 0 3,-3 3.0000002,3.0000002 0 0 0 -3,-3 z m 0,7.976562 c -1.6575,0 -3,1.3425 -3,3 0,1.6575 1.3425,3 3,3 1.0605,0 1.5,3 1.5,3 0,0 1.5,-5.403001 1.5,-6 0,-1.6575 -1.342499,-3 -3,-3 z"
       id="path7" /></g></svg>
