<?xml version="1.0" encoding="UTF-8"?>
<svg id="_图层_1" data-name="图层_1" xmlns="http://www.w3.org/2000/svg" version="1.1" viewBox="0 0 128 128" width="64" height="64">
  <!-- Generator: Adobe Illustrator 29.0.1, SVG Export Plug-In . SVG Version: 2.1.0 Build 192)  -->
  <defs>
    <style>
      .st0 {
        fill: #18c98a;
      }

      .st1, .st2 {
        fill: #fff;
      }

      .st2 {
        fill-opacity: 0;
      }

      .st3 {
        fill: #4affbf;
      }
    </style>
  </defs>
  <g>
    <path class="st2" d="M0,0H128v128H0V0Z"/>
    <path class="st0" d="M18.2,0C12.6,0,8,4.6,8,10.2v107.6c0,5.6,4.6,10.2,10.2,10.2h91.6c5.6,0,10.2-4.6,10.2-10.2V40.6L82.2,0H18.2Z"/>
    <path class="st1" d="M46.7,80.8c.3,0,.6,0,.9.2.3.2,1.4,1.7,1.5,2,.4,2.5,1.1,4.6,2.2,6.2,1.1,1.7,3,3.1,5.4,4.2,2.5,1.1,5.4,1.7,8.6,1.7s5.4-.4,7.5-1.3c2-.8,3.5-1.9,4.5-3.3.6-.8,1-1.7,1.3-2.7,0-.6.2-1.1.2-1.7,0-1.5-.5-2.9-1.4-4.1-.9-1.2-2.5-2.2-4.7-3.1-1.6-.6-5.1-1.6-10.6-2.9-5.7-1.4-9.8-2.8-12.1-4.1-3.1-1.7-5.4-3.8-7-6.3-.5-.9-.9-1.8-1.3-2.7-.7-1.9-1.1-3.8-1-5.8,0-1.4.2-2.8.5-4.2.5-1.9,1.3-3.7,2.4-5.4.4-.7.9-1.3,1.4-1.9,1.8-2.1,4.1-3.7,6.9-4.9,3.5-1.5,7.4-2.2,11.8-2.2s8.8.7,12.4,2.3c2.7,1.2,5,2.7,6.8,4.7.7.8,1.3,1.6,1.8,2.4.6.9,1,1.8,1.5,2.8.9,2.2,1.4,4.6,1.7,7,0,.4-.5,1.4-.6,1.6-.2.3-.5.6-.8.6-.2.2-.6.2-.9.2l-6.2.4c-.3,0-1.3-.4-1.6-.5-.3-.2-.7-1.4-.9-1.7-.4-2.8-1.9-5.4-3.5-7-2.1-1.7-5.2-2.6-9.5-2.6s-7.6.8-9.5,2.3c-1.3,1-2.1,2.2-2.5,3.4-.2.6-.2,1.3-.2,1.9,0,1,.2,1.9.6,2.8.2.6.6,1,1.2,1.5,1.3,1.2,5.1,2.6,11.3,4,6.6,1.5,11.2,2.9,13.7,4.1,3.8,1.8,6.6,4.1,8.5,6.8.5.8.9,1.5,1.3,2.3,1.5,3.5,1.9,7.4,1.1,11.2-.5,2.2-1.4,4.3-2.6,6.3-.5.7-1,1.4-1.4,2-1.8,2.2-4.2,4-7.1,5.4-3.7,1.8-7.8,2.6-12.3,2.6s-10.5-.9-14.4-2.6c-2.3-1-4.4-2.4-6.2-4.1-1.2-1.1-2.2-2.5-3.2-3.9-.6-1-1.3-2.2-1.8-3.3-1-2.4-1.6-5.1-1.8-8,0-.3.5-1.3.6-1.6.2-.2.5-.5.8-.6.3,0,.6-.2.9-.2l6.1-.5Z"/>
    <path class="st3" d="M82.2,0v29.2c0,3.2,2.2,11.6,12.2,11.6h25.6L82.2,0Z"/>
  </g>
  <g>
    <path class="st1" d="M27.7,24.9l-3,3.9c-.7.9-1.3,1.3-1.9,1.3s-.7-.2-1-.5c-.3-.3-.4-.5-.4-.8s0-.4.2-.6c.1-.2.4-.6.8-1.1l3.5-4.5-3.7-5.2c-.3-.5-.5-.8-.5-1.1s0-.4.3-.7c.3-.5.8-.7,1.4-.7s.4,0,.5,0c.2.1.4.3.7.7l3.2,4.5,3-4.6c.3-.4.6-.7,1-.7s.9.2,1.3.6.4.5.4.8,0,.2,0,.4c0,.3-.2.5-.2.6l-3.5,5.4,3.5,5.2c.2.4.4.7.4,1.1s-.2.6-.5.9c-.4.3-.8.5-1.2.5s-.7-.2-1-.7l-3.1-4.5Z"/>
    <path class="st1" d="M36.3,28.2v-11.9c0-.6.1-1,.3-1.2.2-.2.5-.3.9-.3.6,0,.9,0,1.1.3.2.2.4.6.4,1.2v10.9c0,.2.1.3.3.3h5.6c.6,0,.9,0,1.1.3.2.2.3.5.3,1s0,.8-.3,1c-.2.2-.5.3-1.1.3h-6.7c-.7,0-1.2-.1-1.5-.4s-.4-.8-.4-1.5Z"/>
    <path class="st1" d="M55,17.6v11.2c0,.6-.1,1-.3,1.2-.2.2-.5.3-.9.3-.6,0-.9,0-1.1-.3-.2-.2-.4-.6-.4-1.2v-11.2h-3.5c-.6,0-1,0-1.2-.3-.2-.2-.3-.5-.3-1s0-.8.3-1c.2-.2.6-.3,1.2-.3h9.7c.6,0,1,0,1.2.3.2.2.3.5.3,1s0,.8-.3,1c-.2.2-.6.3-1.2.3h-3.5Z"/>
  </g>
</svg>