<?xml version="1.0" encoding="UTF-8" standalone="no"?>
<svg
   id="_图层_1"
   data-name="图层_1"
   version="1.1"
   viewBox="0 0 128 128"
   width="24"
   height="24"
   sodipodi:docname="application-x-aoi.svg"
   xml:space="preserve"
   inkscape:version="1.4 (e7c3feb100, 2024-10-09)"
   xmlns:inkscape="http://www.inkscape.org/namespaces/inkscape"
   xmlns:sodipodi="http://sodipodi.sourceforge.net/DTD/sodipodi-0.dtd"
   xmlns="http://www.w3.org/2000/svg"
   xmlns:svg="http://www.w3.org/2000/svg"><sodipodi:namedview
     id="namedview3"
     pagecolor="#505050"
     bordercolor="#eeeeee"
     borderopacity="1"
     inkscape:showpageshadow="0"
     inkscape:pageopacity="0"
     inkscape:pagecheckerboard="0"
     inkscape:deskcolor="#505050"
     inkscape:zoom="10.6875"
     inkscape:cx="32"
     inkscape:cy="26.19883"
     inkscape:window-width="1920"
     inkscape:window-height="939"
     inkscape:window-x="0"
     inkscape:window-y="34"
     inkscape:window-maximized="1"
     inkscape:current-layer="_图层_1" /><!-- Generator: Adobe Illustrator 29.0.1, SVG Export Plug-In . SVG Version: 2.1.0 Build 192)  --><defs
     id="defs1"><style
       id="style1">
      .st0 {
        fill: #0071e9;
      }

      .st1 {
        fill: #fff;
      }

      .st2 {
        fill: #5aaaff;
        isolation: isolate;
        opacity: .5;
      }
    </style></defs><path
     class="st0"
     d="M18.2,0c-5.6,0-10.2,4.6-10.2,10.2v107.6c0,5.6,4.6,10.2,10.2,10.2h91.6c5.6,0,10.2-4.6,10.2-10.2V40.6L82.2,0H18.2Z"
     id="path1"
     style="fill:#e4e4e4;fill-opacity:1" /><path
     class="st2"
     d="m 82.761404,2.619883 v 29.2 c 0,3.2 2.145542,11.6 11.89801,11.6 h 24.966316 z"
     id="path2"
     style="fill:#b6b6b6;fill-opacity:1;stroke-width:0.987546" /><path
     class="st2"
     d="M 82.116964,0.02339171 V 29.223392 c 0,3.2 2.2,11.6 12.2,11.6 h 25.599996 z"
     id="path2-3"
     style="opacity:1;isolation:isolate;fill:#fafafa;fill-opacity:1" /><g
     id="g4"
     transform="matrix(2.4823912,0,0,2.2790602,-16.677713,-8.8764748)"><rect
       style="opacity:0.1"
       width="16"
       height="16"
       x="30"
       y="28"
       ry="2.6670001"
       id="rect5" /><rect
       style="fill:#2995ff"
       width="16"
       height="16"
       x="30"
       y="27"
       ry="2.6670001"
       id="rect6" /><circle
       style="opacity:0.1"
       cx="33"
       cy="45"
       r="8"
       id="circle6" /><circle
       style="fill:#d72b1f"
       cx="33"
       cy="44"
       r="8"
       id="circle7" /><path
       style="opacity:0.1"
       d="m 26.015559,28.000088 c -0.464598,-0.0053 -0.898407,0.232007 -1.144778,0.626298 l -6.660534,10.666608 c -0.07401,0.118706 -0.128877,0.248329 -0.16261,0.384113 0,0 -0.106378,0.506881 -0.0012,1.011713 0.105076,0.504832 0.415205,1.128087 0.991274,1.640617 C 20.18988,43.354498 22.175319,44 26.00008,44 c 3.82476,0 5.810198,-0.645502 6.962337,-1.670563 0.576069,-0.51253 0.886198,-1.135785 0.991276,-1.640617 0.105076,-0.504832 -0.0014,-1.011713 -0.0014,-1.011713 -0.03373,-0.135784 -0.0886,-0.265407 -0.16261,-0.384113 L 27.129151,28.626386 C 26.888609,28.241524 26.469044,28.00554 26.015559,28.000088 Z"
       id="path7" /><path
       style="fill:#ffc913"
       d="m 26.015559,27.000088 c -0.464598,-0.0053 -0.898407,0.232007 -1.144778,0.626298 l -6.660534,10.666608 c -0.07401,0.118706 -0.128877,0.248329 -0.16261,0.384113 0,0 -0.106378,0.506881 -0.0012,1.011713 0.105076,0.504832 0.415205,1.128087 0.991274,1.640617 C 20.18988,42.354498 22.175319,43 26.00008,43 c 3.82476,0 5.810198,-0.645502 6.962337,-1.670563 0.576069,-0.51253 0.886198,-1.135785 0.991276,-1.640617 0.105076,-0.504832 -0.0014,-1.011713 -0.0014,-1.011713 -0.03373,-0.135784 -0.0886,-0.265407 -0.16261,-0.384113 L 27.129151,27.626386 C 26.888609,27.241524 26.469044,27.00554 26.015559,27.000088 Z"
       id="path8" /></g></svg>
