<?xml version="1.0" encoding="UTF-8" standalone="no"?>
<svg
   id="_图层_1"
   data-name="图层_1"
   version="1.1"
   viewBox="0 0 128 128"
   width="24"
   height="24"
   sodipodi:docname="application-afdesigner.svg"
   xml:space="preserve"
   inkscape:version="1.4 (e7c3feb100, 2024-10-09)"
   xmlns:inkscape="http://www.inkscape.org/namespaces/inkscape"
   xmlns:sodipodi="http://sodipodi.sourceforge.net/DTD/sodipodi-0.dtd"
   xmlns="http://www.w3.org/2000/svg"
   xmlns:svg="http://www.w3.org/2000/svg"><sodipodi:namedview
     id="namedview3"
     pagecolor="#505050"
     bordercolor="#eeeeee"
     borderopacity="1"
     inkscape:showpageshadow="0"
     inkscape:pageopacity="0"
     inkscape:pagecheckerboard="0"
     inkscape:deskcolor="#505050"
     inkscape:zoom="10.6875"
     inkscape:cx="32"
     inkscape:cy="18.71345"
     inkscape:window-width="1920"
     inkscape:window-height="939"
     inkscape:window-x="0"
     inkscape:window-y="34"
     inkscape:window-maximized="1"
     inkscape:current-layer="_图层_1" /><!-- Generator: Adobe Illustrator 29.0.1, SVG Export Plug-In . SVG Version: 2.1.0 Build 192)  --><defs
     id="defs1"><style
       id="style1">
      .st0 {
        fill: #0071e9;
      }

      .st1 {
        fill: #fff;
      }

      .st2 {
        fill: #5aaaff;
        isolation: isolate;
        opacity: .5;
      }
    </style></defs><path
     class="st0"
     d="M18.2,0c-5.6,0-10.2,4.6-10.2,10.2v107.6c0,5.6,4.6,10.2,10.2,10.2h91.6c5.6,0,10.2-4.6,10.2-10.2V40.6L82.2,0H18.2Z"
     id="path1"
     style="fill:#4f4f4f;fill-opacity:1" /><path
     class="st2"
     d="m 82.761404,2.619883 v 29.2 c 0,3.2 2.145542,11.6 11.89801,11.6 h 24.966316 z"
     id="path2"
     style="fill:#000000;fill-opacity:0.2;stroke-width:0.987546" /><path
     class="st2"
     d="M 82.116964,0.02339171 V 29.223392 c 0,3.2 2.2,11.6 12.2,11.6 h 25.599996 z"
     id="path2-3"
     style="opacity:1;isolation:isolate;fill:#606060;fill-opacity:1" /><g
     id="g7"
     transform="matrix(2,0,0,2,-0.37426901,6.5555556)"><path
       style="opacity:0.2"
       d="m 27.393434,13 h 6.61455 l 0.553329,2 h 1.896034 L 53,43.509283 49.437836,50 H 34.959141 l 1.467214,3 h -0.64043 L 34.318847,50 H 16.346386 L 15.426355,48 H 14.288571 L 11,42.272248 v 0 l 4.214881,-7.310956 3.904154,-2.250311 6.459186,-11.183845 -1.299291,-2.250448 z M 31.291307,23.777584 19.864997,44 h 10.935237 l -1.262021,-3.00686 11.917384,0.01372 z"
       id="path2-6" /><path
       style="fill:#ffffff"
       d="m 27.393434,12 h 6.61455 l 0.553329,2 h 1.896034 L 53,42.509283 49.437836,49 H 34.959141 l 1.467214,3 h -0.64043 L 34.318847,49 H 16.346386 L 15.426355,47 H 14.288571 L 11,41.272248 v 0 l 4.214881,-7.310956 3.904154,-2.250311 6.459186,-11.183845 -1.299291,-2.250448 z M 31.291307,22.777584 19.864997,43 h 10.935237 l -1.262021,-3.00686 11.917384,0.01372 z"
       id="path3" /></g></svg>
