<?xml version="1.0" encoding="UTF-8" standalone="no"?>
<svg
   id="_图层_1"
   data-name="图层_1"
   version="1.1"
   viewBox="0 0 128 128"
   width="24"
   height="24"
   sodipodi:docname="com.github.torikulhabib.mindi.flac.svg"
   xml:space="preserve"
   inkscape:version="1.4 (e7c3feb100, 2024-10-09)"
   xmlns:inkscape="http://www.inkscape.org/namespaces/inkscape"
   xmlns:sodipodi="http://sodipodi.sourceforge.net/DTD/sodipodi-0.dtd"
   xmlns="http://www.w3.org/2000/svg"
   xmlns:svg="http://www.w3.org/2000/svg"><sodipodi:namedview
     id="namedview3"
     pagecolor="#505050"
     bordercolor="#eeeeee"
     borderopacity="1"
     inkscape:showpageshadow="0"
     inkscape:pageopacity="0"
     inkscape:pagecheckerboard="0"
     inkscape:deskcolor="#505050"
     inkscape:zoom="10.6875"
     inkscape:cx="32"
     inkscape:cy="26.19883"
     inkscape:window-width="1920"
     inkscape:window-height="939"
     inkscape:window-x="0"
     inkscape:window-y="34"
     inkscape:window-maximized="1"
     inkscape:current-layer="_图层_1" /><!-- Generator: Adobe Illustrator 29.0.1, SVG Export Plug-In . SVG Version: 2.1.0 Build 192)  --><defs
     id="defs1"><style
       id="style1">
      .st0 {
        fill: #0071e9;
      }

      .st1 {
        fill: #fff;
      }

      .st2 {
        fill: #5aaaff;
        isolation: isolate;
        opacity: .5;
      }
    </style></defs><path
     class="st0"
     d="M18.2,0c-5.6,0-10.2,4.6-10.2,10.2v107.6c0,5.6,4.6,10.2,10.2,10.2h91.6c5.6,0,10.2-4.6,10.2-10.2V40.6L82.2,0H18.2Z"
     id="path1"
     style="fill:#b1b527;fill-opacity:1"
     inkscape:label="path1" /><path
     class="st2"
     d="m 82.761404,2.619883 v 29.2 c 0,3.2 2.145542,11.6 11.89801,11.6 h 24.966316 z"
     id="path2"
     style="fill:#8e911f;fill-opacity:1;stroke-width:0.987546" /><path
     class="st2"
     d="M 82.116964,0.02339171 V 29.223392 c 0,3.2 2.2,11.6 12.2,11.6 h 25.599996 z"
     id="path2-3"
     style="opacity:1;isolation:isolate;fill:#c8cb7c;fill-opacity:1" /><g
     id="g2"
     transform="matrix(3.502924,0,0,3.2003994,-20.163743,-12.842533)"><path
       style="opacity:0.2"
       d="m 12,27 v 8 h 1.007812 v -3.095703 h 2.830079 v -0.884766 h -2.830079 v -3.134765 h 3.042969 V 27 Z m 5.999617,0 v 8 h 4 V 34.103516 H 19.007429 V 27 Z m 8.488281,0 -3.111328,8 h 1.013672 l 0.847656,-2.056641 h 3.361328 L 29.456648,35 h 1.03711 l -3.101563,-8 z m 8.25,0 c -0.799273,0 -1.477618,0.170211 -2.037109,0.511719 -0.559491,0.334241 -0.984746,0.803161 -1.275391,1.40625 -0.283378,0.595822 -0.425781,1.285572 -0.425781,2.070312 0,0.813806 0.130998,1.523865 0.392578,2.126953 0.268847,0.603088 0.668792,1.067556 1.199219,1.394532 C 33.121841,34.836741 33.781828,35 34.573836,35 c 0.4287,0 0.796385,-0.02531 1.101562,-0.07617 0.312444,-0.05086 0.613652,-0.131242 0.904297,-0.240234 v -0.84961 c -0.297911,0.0872 -0.599119,0.160624 -0.904297,0.21875 -0.305177,0.05813 -0.624743,0.08594 -0.958984,0.08594 -0.893733,0 -1.565126,-0.280353 -2.015625,-0.839844 C 32.257556,32.732071 32.034773,31.966395 32.034773,31 c 0,-0.97366 0.239186,-1.739337 0.71875,-2.298828 0.479564,-0.559491 1.137053,-0.839844 1.972656,-0.839844 0.348775,0 0.670293,0.04367 0.960938,0.13086 0.297911,0.08719 0.566859,0.183976 0.806641,0.292968 l 0.390625,-0.828125 C 36.274029,27.151854 35.55897,27 34.737898,27 Z m -7.814453,1.037109 c 0.02977,0.08926 0.06671,0.219541 0.111328,0.390625 0.05207,0.163645 0.10418,0.324262 0.15625,0.480469 0.05207,0.156209 0.08901,0.264709 0.111328,0.324219 l 0.996094,2.818359 h -2.726562 l 1.005859,-2.818359 c 0.04463,-0.126453 0.09674,-0.297959 0.15625,-0.513672 0.06695,-0.223153 0.129943,-0.451051 0.189453,-0.681641 z"
       id="path6" /><path
       style="fill:#ffffff"
       d="M 13.008404,34 H 12 v -8 h 4.051443 v 0.885155 h -3.043039 v 3.134269 h 2.830153 v 0.885152 h -2.830153 z"
       id="path7" /><path
       style="fill:#ffffff"
       d="m 18,34 v -8 h 1.008404 v 7.103642 H 22 V 34 Z"
       id="path8" /><path
       style="fill:#ffffff"
       d="M 29.456893,34 28.600135,31.943327 H 25.237629 L 24.391342,34 H 23.376 l 3.112971,-8 h 0.903766 l 3.101813,8 z M 28.298879,31.050719 27.303476,28.23152 c -0.02232,-0.05951 -0.05951,-0.167361 -0.111576,-0.32357 -0.05207,-0.156207 -0.104135,-0.316132 -0.156206,-0.479777 -0.04462,-0.171084 -0.08181,-0.301256 -0.111576,-0.390516 -0.05951,0.23059 -0.122732,0.457461 -0.18968,0.680614 -0.05951,0.215713 -0.111574,0.386796 -0.156207,0.513249 l -1.005873,2.819199 z"
       id="path9" /><path
       style="fill:#ffffff"
       d="m 34.72752,26.861034 q -1.253406,0 -1.972752,0.839237 -0.719346,0.839237 -0.719346,2.299727 0,1.449592 0.66485,2.299728 0.675749,0.839237 2.016349,0.839237 0.501362,0 0.959128,-0.08719 0.457766,-0.08719 0.904632,-0.217983 v 0.850136 q -0.435967,0.163488 -0.904632,0.239782 -0.457766,0.07629 -1.100817,0.07629 -1.188011,0 -1.983652,-0.490463 Q 31.79564,33.019072 31.39237,32.11444 31,31.209808 31,29.989099 q 0,-1.177111 0.425068,-2.070844 0.435967,-0.904633 1.275204,-1.405995 0.839237,-0.512262 2.038147,-0.512262 1.231608,0 2.147139,0.457766 l -0.39237,0.828338 q -0.359673,-0.163488 -0.80654,-0.294278 -0.435967,-0.13079 -0.959128,-0.13079 z"
       id="path10" /></g></svg>
