<?xml version="1.0" encoding="UTF-8"?>
<svg xmlns="http://www.w3.org/2000/svg" version="1.1" xmlns:inkscape="http://www.inkscape.org/namespaces/inkscape" xmlns:sodipodi="http://sodipodi.sourceforge.net/DTD/sodipodi-0.dtd" xmlns:svg="http://www.w3.org/2000/svg" viewBox="0 0 64 64" width="24" height="24">
  <!-- Generator: Adobe Illustrator 29.0.1, SVG Export Plug-In . SVG Version: 2.1.0 Build 192)  -->
  <defs>
    <style>
      .st0 {
        fill: #34e0c4;
      }

      .st1 {
        fill: #ffc107;
      }

      .st2 {
        fill: #009688;
      }

      .st3 {
        fill: #fb8300;
      }

      .st4, .st5 {
        fill: #fff;
      }

      .st6 {
        fill: #03a9f4;
      }

      .st7 {
        fill: #fa3e30;
      }

      .st8 {
        fill: #a544c9;
      }

      .st9, .st5 {
        isolation: isolate;
        opacity: .2;
      }

      .st10 {
        fill: #eaeaea;
      }

      .st11 {
        fill: #278df2;
      }
    </style>
  </defs>
  <g id="_图层_1" inkscape:version="1.4 (e7c3feb100, 2024-10-09)" sodipodi:docname="application-vnd.oasis.opendocument.database.svg">
    <path id="path1" class="st4" d="M9.1,0c-2.8,0-5.1,2.3-5.1,5.1v53.8c0,2.8,2.3,5.1,5.1,5.1h45.8c2.8,0,5.1-2.3,5.1-5.1V20.3L41.1,0H9.1Z"/>
    <path id="path2" class="st9" d="M41.4,1.3v14.6c0,1.6,1.1,5.8,5.9,5.8h12.5L41.4,1.3Z"/>
    <path id="path2-3" class="st10" d="M41.1,0v14.6c0,1.6,1.1,5.8,6.1,5.8h12.8L41.1,0Z"/>
    <g>
      <path id="ellipse845" class="st9" d="M32.1,20.3c-3.3,0-6.4,2.1-7.8,5.4-3.6-.5-7.1,1-8.7,3.9-1.7,2.8-1.3,6.5.9,9.3-2.2,2.8-2.6,6.5-.9,9.3,1.7,2.8,5.1,4.3,8.7,3.9,1.4,3.3,4.4,5.4,7.8,5.4s6.4-2.1,7.8-5.4c3.6.5,7.1-1,8.7-3.9,1.7-2.9,1.2-6.6-.9-9.3.2-.2.4-.5.5-.8h0c.2-.3.3-.5.5-.8h0c.1-.3.3-.5.4-.8h0c.1-.3.2-.5.3-.8,0,0,0,0,0-.1,0-.2.1-.5.2-.7,0,0,0-.1,0-.2,0-.2,0-.4,0-.7v-1.1c0-.2,0-.4,0-.6,0,0,0-.2,0-.3,0-.2,0-.4-.1-.5,0-.1,0-.2,0-.3,0-.2-.1-.3-.2-.5,0-.1,0-.2-.1-.3,0-.1-.1-.3-.2-.4,0-.2-.2-.3-.3-.5-.1-.2-.3-.4-.4-.6,0-.1-.2-.2-.3-.3-.1-.1-.2-.2-.3-.3-.1-.1-.2-.2-.3-.3-.1-.1-.2-.2-.3-.3-.1,0-.2-.2-.3-.3-.1-.1-.2-.2-.4-.3s-.3-.2-.4-.2c-.1,0-.2-.2-.4-.2-.1,0-.3-.2-.4-.2s-.3-.1-.4-.2c-.2,0-.3-.1-.4-.2-.1,0-.3-.1-.4-.1-.2,0-.3,0-.4-.1-.2,0-.3,0-.4-.1-.2,0-.3,0-.5,0-.2,0-.3,0-.5,0-.3,0-.5,0-.8,0-.5,0-1.1,0-1.6,0-1.4-3.3-4.4-5.4-7.8-5.4h0Z"/>
      <ellipse class="st11" cx="32.1" cy="38.3" rx="15.3" ry="14.9"/>
      <path id="ellipse8" class="st0" d="M48.6,29c2.4,4,.6,9.3-4,11.9-4.6,2.6-10.2,1.4-12.6-2.6-2.4-4-.6-9.3,4-11.9,4.6-2.6,10.2-1.4,12.6,2.6Z"/>
      <ellipse id="ellipse10" class="st1" cx="32.1" cy="47.6" rx="8.6" ry="9.3"/>
      <path id="ellipse14" class="st3" d="M32.1,38.3c2.4,4,.6,9.3-4,11.9-4.6,2.6-10.2,1.4-12.6-2.6-2.4-4-.6-9.3,4-11.9,4.6-2.6,10.2-1.4,12.6,2.6Z"/>
      <path id="ellipse18" class="st7" d="M15.6,29c-2.4,4-.6,9.3,4,11.9,4.6,2.6,10.2,1.4,12.6-2.6,2.4-4,.6-9.3-4-11.9-4.6-2.6-10.2-1.4-12.6,2.6Z"/>
      <path class="st8" d="M32.1,19.7c-4.7,0-8.6,4.1-8.6,9.3h0c0,5.1,3.9,9.3,8.6,9.3h0c-2.4-4-.6-9.3,4-11.9h0c1.2-.7,2.5-1.1,3.8-1.3-1.4-3.3-4.4-5.4-7.8-5.4h0ZM32.1,38.3c3.7,0,7-2.6,8.2-6.4-.3.9-.7,1.7-1.2,2.5-3,.1-5.6,1.6-7,3.9ZM40.3,31.8c0-.3.2-.5.2-.8,0,.3-.1.5-.2.8ZM40,25.4c.1.3.2.5.3.8,0-.3-.2-.6-.3-.8ZM40.3,26.2c0,.2.1.5.2.7,0-.2-.1-.5-.2-.7ZM40.5,27.2c0,.2,0,.4,0,.6,0-.2,0-.4,0-.6ZM40.6,28.2c0,.3,0,.5,0,.8,0-.3,0-.5,0-.8ZM40.7,29.4c0,.2,0,.4,0,.6,0-.2,0-.4,0-.6ZM40.6,30.2c0,.2,0,.5-.1.7,0-.2,0-.5.1-.7Z"/>
      <path class="st2" d="M39.2,34.3c-3,0-5.7,1.6-7.2,4,4.7,0,8.6,4.1,8.6,9.3s-.3,2.7-.8,3.9c3.6.5,7.1-1,8.7-3.9,2.4-4,.6-9.3-4-11.9-1.7-.9-3.6-1.4-5.4-1.4h0Z"/>
      <path id="ellipse980" class="st6" d="M41.5,25c-1.9,0-3.8.4-5.4,1.4-4.6,2.6-6.3,7.9-4,11.9,1.4-2.4,4.1-3.9,7.2-4,1.9,0,3.8.4,5.4,1.4,1.2.7,2.2,1.6,3,2.6,2.2-2.8,2.6-6.4.9-9.3-1.4-2.4-4.1-3.9-7.2-4h0ZM32.1,38.3c1.4,2.3,4,3.8,7,3.9-1.6-2.4-4.1-3.9-7-3.9Z"/>
      <path class="st1" d="M32.1,38.3c-14.8,14.9-7.4,7.4,0,0ZM32.1,38.3c1.5,3,4.1,4.3,7,3.9-1.6-2.4-4.1-3.9-7-3.9Z"/>
      <path class="st5" d="M32.1,19.7c-3.3,0-6.4,2.1-7.8,5.4-3.6-.5-7.1,1-8.7,3.9-.8,1.3-1.1,2.7-1,4.2,0-1.3.4-2.5,1-3.6,1.7-2.8,5.1-4.3,8.7-3.9,1.4-3.3,4.4-5.4,7.8-5.4s6.4,2.1,7.8,5.4c.5,0,1.1-.1,1.6,0,.3,0,.5,0,.8,0,.2,0,.3,0,.5,0s.3,0,.5,0,.3,0,.4.1c.2,0,.3,0,.4.1s.3.1.4.1c.2,0,.3.1.4.2.1,0,.3.1.4.2.2,0,.3.1.4.2s.3.1.4.2c.1,0,.3.2.4.2.1,0,.3.2.4.3s.2.2.3.3c.1.1.2.2.3.3.1.1.2.2.3.3.1.1.2.2.3.3,0,.1.2.2.3.3.2.2.3.4.4.6.1.2.2.3.3.5,0,.1.1.3.2.4,0,.1.1.2.1.3,0,.2.1.3.2.5,0,.1,0,.2,0,.3,0,.2,0,.4.1.5,0,0,0,.2,0,.3,0,.2,0,.4,0,.6h0v-.7c0-.2,0-.4,0-.6,0,0,0-.2,0-.3,0-.2,0-.4-.1-.5,0-.1,0-.2,0-.3,0-.2-.1-.3-.2-.5,0-.1,0-.2-.1-.3,0-.1-.1-.3-.2-.4,0-.2-.2-.3-.3-.5-.1-.2-.3-.4-.4-.6,0-.1-.2-.2-.3-.3-.1-.1-.2-.2-.3-.3-.1-.1-.2-.2-.3-.3-.1-.1-.2-.2-.3-.3-.1,0-.2-.2-.3-.3-.1-.1-.2-.2-.4-.3s-.3-.2-.4-.2c-.1,0-.2-.2-.4-.2-.1,0-.3-.2-.4-.2s-.3-.1-.4-.2c-.2,0-.3-.1-.4-.2-.1,0-.3-.1-.4-.1-.2,0-.3,0-.4-.1-.2,0-.3,0-.4-.1-.2,0-.3,0-.5,0-.2,0-.3,0-.5,0-.3,0-.5,0-.8,0-.5,0-1.1,0-1.6,0-1.4-3.3-4.4-5.4-7.8-5.4h0ZM47.9,38.6c0,.1-.2.2-.3.3,1.2,1.5,1.9,3.3,2,5.1,0-1.9-.5-3.8-1.7-5.5h0ZM16.3,38.6c-1.2,1.7-1.8,3.6-1.7,5.5,0-1.8.8-3.6,2-5.2,0-.1-.2-.2-.3-.3h0Z"/>
    </g>
  </g>
</svg>