<?xml version="1.0" encoding="UTF-8" standalone="no"?>
<svg
   id="_图层_1"
   data-name="图层_1"
   version="1.1"
   viewBox="0 0 128 128"
   width="24"
   height="24"
   sodipodi:docname="text-x-csrc.svg"
   xml:space="preserve"
   inkscape:version="1.4 (e7c3feb100, 2024-10-09)"
   xmlns:inkscape="http://www.inkscape.org/namespaces/inkscape"
   xmlns:sodipodi="http://sodipodi.sourceforge.net/DTD/sodipodi-0.dtd"
   xmlns="http://www.w3.org/2000/svg"
   xmlns:svg="http://www.w3.org/2000/svg"><sodipodi:namedview
     id="namedview3"
     pagecolor="#505050"
     bordercolor="#eeeeee"
     borderopacity="1"
     inkscape:showpageshadow="0"
     inkscape:pageopacity="0"
     inkscape:pagecheckerboard="0"
     inkscape:deskcolor="#505050"
     inkscape:zoom="10.6875"
     inkscape:cx="32"
     inkscape:cy="26.19883"
     inkscape:window-width="1920"
     inkscape:window-height="939"
     inkscape:window-x="0"
     inkscape:window-y="34"
     inkscape:window-maximized="1"
     inkscape:current-layer="_图层_1"
     showguides="true"><sodipodi:guide
       position="7.6134526,83.439664"
       orientation="1,0"
       id="guide7"
       inkscape:locked="false" /><sodipodi:guide
       position="120.24109,71.856006"
       orientation="1,0"
       id="guide8"
       inkscape:locked="false" /></sodipodi:namedview><!-- Generator: Adobe Illustrator 29.0.1, SVG Export Plug-In . SVG Version: 2.1.0 Build 192)  --><defs
     id="defs1"><style
       id="style1">
      .st0 {
        fill: #0071e9;
      }

      .st1 {
        fill: #fff;
      }

      .st2 {
        fill: #5aaaff;
        isolation: isolate;
        opacity: .5;
      }
    </style></defs><path
     class="st0"
     d="M18.2,0c-5.6,0-10.2,4.6-10.2,10.2v107.6c0,5.6,4.6,10.2,10.2,10.2h91.6c5.6,0,10.2-4.6,10.2-10.2V40.6L82.2,0H18.2Z"
     id="path1"
     style="fill:#e4e4e4;fill-opacity:1" /><path
     class="st2"
     d="m 82.761404,2.619883 v 29.2 c 0,3.2 2.145542,11.6 11.89801,11.6 h 24.966316 z"
     id="path2"
     style="fill:#b6b6b6;fill-opacity:1;stroke-width:0.987546" /><path
     class="st2"
     d="M 82.116964,0.02339171 V 29.223392 c 0,3.2 2.2,11.6 12.2,11.6 h 25.599996 z"
     id="path2-3"
     style="opacity:1;isolation:isolate;fill:#fafafa;fill-opacity:1" /><g
     id="g8"
     transform="matrix(2.5486443,0,0,2.2823433,-17.83732,-9.0767415)"><path
       style="fill:#0180cd"
       d="m 31.601562,29 c -1.757142,0 -3.322724,0.512898 -4.484374,1.439453 -1.161651,0.926555 -1.87195,2.174142 -2.306641,3.431641 -0.869382,2.514998 -0.808593,5.228125 -0.808594,7.328125 0,2.1 -0.06594,4.722957 0.820313,7.160156 0.443127,1.218599 1.175037,2.425712 2.341796,3.300781 C 28.330822,52.535226 29.868229,53 31.601562,53 34.671457,53 36.694185,52.080717 37.8125,50.837891 38.930815,49.595064 39,48 39,48 v -2 h -4 v 2 c 0,0 0.0693,-0.09506 -0.162109,0.162109 C 34.606481,48.419283 33.930566,49 31.601562,49 c -1.066666,0 -1.628868,-0.234835 -2.037109,-0.541016 -0.408241,-0.30618 -0.727502,-0.760396 -0.984375,-1.466796 -0.513746,-1.412802 -0.578125,-3.692969 -0.578125,-5.792969 1e-6,-2.100001 0.05923,-4.486483 0.589844,-6.021485 0.265309,-0.767501 0.606182,-1.281633 1.019531,-1.611328 C 30.024677,33.236711 30.558705,33 31.601562,33 c 2.329004,0 3.004919,0.580717 3.236329,0.837891 C 35.0693,34.095064 35,34 35,34 v 2 h 4 V 34 C 39,34 38.93082,32.404936 37.8125,31.162109 36.694185,29.919283 34.671457,29 31.601562,29 Z"
       id="path6" /></g></svg>
