<?xml version="1.0" encoding="UTF-8" standalone="no"?>
<svg
   id="_图层_1"
   data-name="图层_1"
   version="1.1"
   viewBox="0 0 128 128"
   width="24"
   height="24"
   sodipodi:docname="text-x-cobol.svg"
   xml:space="preserve"
   inkscape:version="1.4 (e7c3feb100, 2024-10-09)"
   xmlns:inkscape="http://www.inkscape.org/namespaces/inkscape"
   xmlns:sodipodi="http://sodipodi.sourceforge.net/DTD/sodipodi-0.dtd"
   xmlns="http://www.w3.org/2000/svg"
   xmlns:svg="http://www.w3.org/2000/svg"><sodipodi:namedview
     id="namedview3"
     pagecolor="#505050"
     bordercolor="#eeeeee"
     borderopacity="1"
     inkscape:showpageshadow="0"
     inkscape:pageopacity="0"
     inkscape:pagecheckerboard="0"
     inkscape:deskcolor="#505050"
     inkscape:zoom="10.6875"
     inkscape:cx="32"
     inkscape:cy="26.19883"
     inkscape:window-width="1920"
     inkscape:window-height="939"
     inkscape:window-x="0"
     inkscape:window-y="34"
     inkscape:window-maximized="1"
     inkscape:current-layer="_图层_1"
     showguides="true"><sodipodi:guide
       position="7.6134526,83.439664"
       orientation="1,0"
       id="guide7"
       inkscape:locked="false" /><sodipodi:guide
       position="120.24109,71.856006"
       orientation="1,0"
       id="guide8"
       inkscape:locked="false" /></sodipodi:namedview><!-- Generator: Adobe Illustrator 29.0.1, SVG Export Plug-In . SVG Version: 2.1.0 Build 192)  --><defs
     id="defs1"><style
       id="style1">
      .st0 {
        fill: #0071e9;
      }

      .st1 {
        fill: #fff;
      }

      .st2 {
        fill: #5aaaff;
        isolation: isolate;
        opacity: .5;
      }
    </style></defs><path
     class="st0"
     d="M18.2,0c-5.6,0-10.2,4.6-10.2,10.2v107.6c0,5.6,4.6,10.2,10.2,10.2h91.6c5.6,0,10.2-4.6,10.2-10.2V40.6L82.2,0H18.2Z"
     id="path1"
     style="fill:#6860cc;fill-opacity:1" /><path
     class="st2"
     d="m 82.761404,2.619883 v 29.2 c 0,3.2 2.145542,11.6 11.89801,11.6 h 24.966316 z"
     id="path2"
     style="fill:#534da3;fill-opacity:1;stroke-width:0.987546" /><path
     class="st2"
     d="M 82.116964,0.02339171 V 29.223392 c 0,3.2 2.2,11.6 12.2,11.6 h 25.599996 z"
     id="path2-3"
     style="opacity:1;isolation:isolate;fill:#8782d8;fill-opacity:1" /><g
     id="g8"
     transform="matrix(2.5486443,0,0,2.2757772,-17.650186,-8.8633425)"><path
       style="opacity:0.2"
       d="m 35.4819,33.002795 c -1.033218,-0.0362 -2.631118,0.283238 -4.440054,0.889704 -1.112896,0.373116 -1.691142,0.454864 -3.223918,0.44891 -1.285026,-0.005 -1.435352,-0.019 -3.041634,-0.281244 -2.56974,-0.4196 -3.001486,-0.400428 -4.979108,0.22175 -0.490008,0.15414 -0.964595,0.295016 -1.054673,0.313698 -0.45486,0.09426 -1.224316,1.178822 -2.114561,2.974696 -0.686597,1.385042 -0.779697,2.0263 -0.427076,2.993628 0.314091,0.861668 0.398438,1.320786 0.427076,2.325674 0.02626,0.921072 0.14906,1.664308 0.317706,1.928146 0.143222,0.224066 0.307714,0.08856 0.398432,-0.327218 0.09199,-0.421252 0.0089,-1.045482 -0.252601,-1.892992 -0.204093,-0.661398 -0.322587,-1.307956 -0.294268,-1.611744 0.0192,-0.20684 0.05234,-0.17362 0.856762,0.9492 1.33075,1.857372 1.015725,1.830322 1.012525,2.355422 -0.0019,0.401658 -0.03518,0.522866 -0.333329,1.2034 -0.330141,0.753524 -0.32972,0.75665 -0.32812,1.384586 0.0019,0.683138 0.01262,1.000166 0.684887,2.915204 0.339425,0.966912 0.447242,1.13371 0.911445,1.206104 h 3.257776 c 0.0172,-0.05724 -0.06922,-0.17982 -0.361976,-0.48136 -1.28542,-1.323956 -1.546922,-3.23904 -0.794258,-4.432662 0.320972,-0.509004 2.066878,-2.886734 2.244766,-2.911182 0.09696,-0.0132 0.250078,0.09178 0.531242,0.365074 1.460602,1.419858 2.980836,1.72437 5.694384,1.265598 1.326782,-0.224304 1.47065,-0.220018 1.65623,0.0703 0.14696,0.229836 0.206274,1.855552 0.247394,3.798548 0.04354,2.056376 0.011,1.996906 0.627596,2.120148 0.57121,0.1142 1.559424,0.204908 1.78123,0.16226 0.266204,-0.0512 0.258718,-0.15112 -0.03386,-0.392116 -0.1315,-0.10832 -0.30144,-0.328298 -0.3776,-0.489474 -0.12928,-0.273518 -0.13798,-0.402228 -0.10676,-1.211514 0.03218,-0.833054 0.11604,-1.213812 0.236978,-1.08982 0.03058,0.03136 0.15274,0.48727 0.270828,1.0141 0.24307,1.085248 0.309732,1.282452 0.549474,1.573888 0.18574,0.225756 0.393106,0.350186 0.864576,0.524628 0.413542,0.15298 0.834918,0.15158 1.020818,-0.0028 0.12512,-0.1039 0.14584,-0.17574 0.14584,-0.524628 v -0.405688 l -0.414054,-0.457022 c -0.882438,-0.976922 -1.003822,-1.709264 -0.570308,-3.429018 0.07964,-0.315902 0.24362,-0.963618 0.36458,-1.441374 0.12096,-0.47776 0.218746,-0.942602 0.218746,-1.03303 0,-0.17082 0.283658,-0.6238 0.763014,-0.985262 0.19268,-0.1453 0.30342,-0.18122 0.565098,-0.18122 0.293196,0 0.364658,0.03004 0.71353,0.300178 0.717206,0.555334 1.797589,0.970878 2.899749,1.187174 0.615256,0.12074 1.916872,0.138 2.184868,0.02974 0.14158,-0.0572 0.207928,-0.0507 0.354164,0.03786 0.17174,0.10406 0.1898,0.10434 0.398434,-0.0108 0.380858,-0.210234 0.557308,-0.48045 0.671866,-1.022214 0.0714,-0.337596 0.18756,-0.627588 0.367182,-0.93027 1.135504,-1.91338 1.9278,-3.408564 2.143204,-4.271844 0.09556,-0.382962 0.282828,-1.844976 0.283852,-2.220208 9.12e-4,-0.336246 -0.1009,-0.233148 -0.242184,0.243384 -0.24027,0.810798 -0.787098,2.003156 -1.106758,2.414912 -0.464602,0.598456 -1.448625,1.521468 -1.620781,1.521468 -0.03328,0 -0.04206,-0.16966 -0.0182,-0.816194 0.05634,-1.531036 -0.0112,-1.731606 -0.351558,-1.033032 -0.226958,0.465972 -0.433236,0.709224 -0.744784,0.87348 -0.291886,0.15388 -1.103717,0.26766 -1.290643,0.219588 -0.237132,-0.061 -0.571332,-1.540662 -0.423174,-1.595522 0.0301,-0.011 0.19394,-0.09762 0.361976,-0.192 0.370364,-0.208022 0.452116,-0.425614 0.450516,-1.179062 -0.0016,-0.535428 -0.0458,-0.795206 -0.14324,-0.827506 -0.03288,-0.0108 -0.1643,0.14626 -0.291664,0.34885 -0.30582,0.48652 -0.865666,1.112162 -0.947904,1.060076 -0.03584,-0.02276 -0.477984,-0.263566 -0.493984,-0.532744 -0.03184,-0.546796 -0.16478,-0.877988 -0.47395,-1.17906 l -0.1901,-0.18388 -0.322914,0.327218 c -0.17798,0.18014 -0.364456,0.325078 -0.414058,0.32451 -0.04964,-5.42e-4 -0.327328,-0.21352 -0.614576,-0.47595 -0.855012,-0.781154 -1.983848,-1.337248 -2.481252,-1.584702 -0.439048,-0.218438 -0.509822,-0.234184 -1.158838,-0.256908 z"
       id="path6" /><path
       style="fill:#ffffff"
       d="m 35.4819,32.002794 c -1.033218,-0.0362 -2.631118,0.283238 -4.440054,0.889704 -1.112896,0.373116 -1.691142,0.454864 -3.223918,0.44891 -1.285026,-0.005 -1.435352,-0.019 -3.041634,-0.281244 -2.56974,-0.4196 -3.001486,-0.400428 -4.979108,0.22175 -0.490008,0.15414 -0.964595,0.295016 -1.054673,0.313698 -0.45486,0.09426 -1.224316,1.178822 -2.114561,2.974696 -0.686597,1.385042 -0.779697,2.0263 -0.427076,2.993628 0.314091,0.861668 0.398438,1.320786 0.427076,2.325674 0.02626,0.921072 0.14906,1.664308 0.317706,1.928146 0.143222,0.224066 0.307714,0.08856 0.398432,-0.327218 0.09199,-0.421252 0.0089,-1.045482 -0.252601,-1.892992 -0.204093,-0.661398 -0.322587,-1.307956 -0.294268,-1.611744 0.0192,-0.20684 0.05234,-0.17362 0.856762,0.9492 1.33075,1.857372 1.015725,1.830322 1.012525,2.355422 -0.0019,0.401658 -0.03518,0.522866 -0.333329,1.2034 -0.330141,0.753524 -0.32972,0.75665 -0.32812,1.384586 0.0019,0.683138 0.01262,1.000166 0.684887,2.915204 0.339425,0.966912 0.447242,1.13371 0.911445,1.206104 h 3.257776 c 0.0172,-0.05724 -0.06922,-0.17982 -0.361976,-0.48136 -1.28542,-1.323956 -1.546922,-3.23904 -0.794258,-4.432662 0.320972,-0.509004 2.066878,-2.886734 2.244766,-2.911182 0.09696,-0.0132 0.250078,0.09178 0.531242,0.365074 1.460602,1.419858 2.980836,1.72437 5.694384,1.265598 1.326782,-0.224304 1.47065,-0.220018 1.65623,0.0703 0.14696,0.229836 0.206274,1.855552 0.247394,3.798548 0.04354,2.056376 0.011,1.996906 0.627596,2.120148 0.57121,0.1142 1.559424,0.204908 1.78123,0.16226 0.266204,-0.0512 0.258718,-0.15112 -0.03386,-0.392116 -0.1315,-0.10832 -0.30144,-0.328298 -0.3776,-0.489474 -0.12928,-0.273518 -0.13798,-0.402228 -0.10676,-1.211514 0.03218,-0.833054 0.11604,-1.213812 0.236978,-1.08982 0.03058,0.03136 0.15274,0.48727 0.270828,1.0141 0.24307,1.085248 0.309732,1.282452 0.549474,1.573888 0.18574,0.225756 0.393106,0.350186 0.864576,0.524628 0.413542,0.15298 0.834918,0.15158 1.020818,-0.0028 0.12512,-0.1039 0.14584,-0.17574 0.14584,-0.524628 v -0.405688 l -0.414054,-0.457022 c -0.882438,-0.976922 -1.003822,-1.709264 -0.570308,-3.429018 0.07964,-0.315902 0.24362,-0.963618 0.36458,-1.441374 0.12096,-0.47776 0.218746,-0.942602 0.218746,-1.03303 0,-0.17082 0.283658,-0.6238 0.763014,-0.985262 0.19268,-0.1453 0.30342,-0.18122 0.565098,-0.18122 0.293196,0 0.364658,0.03004 0.71353,0.300178 0.717206,0.555334 1.797589,0.970878 2.899749,1.187174 0.615256,0.12074 1.916872,0.138 2.184868,0.02974 0.14158,-0.0572 0.207928,-0.0507 0.354164,0.03786 0.17174,0.10406 0.1898,0.10434 0.398434,-0.0108 0.380858,-0.210234 0.557308,-0.48045 0.671866,-1.022214 0.0714,-0.337596 0.18756,-0.627588 0.367182,-0.93027 1.135504,-1.91338 1.9278,-3.408564 2.143204,-4.271844 0.09556,-0.382962 0.282828,-1.844976 0.283852,-2.220208 9.12e-4,-0.336246 -0.1009,-0.233148 -0.242184,0.243384 -0.24027,0.810798 -0.787098,2.003156 -1.106758,2.414912 -0.464602,0.598456 -1.448625,1.521468 -1.620781,1.521468 -0.03328,0 -0.04206,-0.16966 -0.0182,-0.816194 0.05634,-1.531036 -0.0112,-1.731606 -0.351558,-1.033032 -0.226958,0.465972 -0.433236,0.709224 -0.744784,0.87348 -0.291886,0.15388 -1.103717,0.26766 -1.290643,0.219588 -0.237132,-0.061 -0.571332,-1.540662 -0.423174,-1.595522 0.0301,-0.011 0.19394,-0.09762 0.361976,-0.192 0.370364,-0.208022 0.452116,-0.425614 0.450516,-1.179062 -0.0016,-0.535428 -0.0458,-0.795206 -0.14324,-0.827506 -0.03288,-0.0108 -0.1643,0.14626 -0.291664,0.34885 -0.30582,0.48652 -0.865666,1.112162 -0.947904,1.060076 -0.03584,-0.02276 -0.477984,-0.263566 -0.493984,-0.532744 -0.03184,-0.546796 -0.16478,-0.877988 -0.47395,-1.17906 l -0.1901,-0.18388 -0.322914,0.327218 c -0.17798,0.18014 -0.364456,0.325078 -0.414058,0.32451 -0.04964,-5.42e-4 -0.327328,-0.21352 -0.614576,-0.47595 -0.855012,-0.781154 -1.983848,-1.337248 -2.481252,-1.584702 -0.439048,-0.218438 -0.509822,-0.234184 -1.158838,-0.256908 z"
       id="path7" /></g></svg>
