<?xml version="1.0" encoding="UTF-8"?>
<svg id="_图层_1" xmlns="http://www.w3.org/2000/svg" version="1.1" viewBox="0 0 64 64" width="16" height="16">
  <!-- Generator: Adobe Illustrator 29.0.1, SVG Export Plug-In . SVG Version: 2.1.0 Build 192)  -->
  <defs>
    <style>
      .st0 {
        fill: #fff;
      }

      .st1 {
        fill: #87c51d;
      }

      .st2 {
        fill: #e74a79;
      }
    </style>
  </defs>
  <path class="st0" d="M50.4,64H13.8c-7.6,0-13.8-6.2-13.8-13.7V13.7C0,6.2,6.2,0,13.7,0h36.6c7.5,0,13.7,6.2,13.7,13.7v36.6c0,7.5-6.2,13.7-13.7,13.7h.1Z"/>
  <g>
    <path class="st2" d="M54.9,21.7v-4.3c0-2-1.7-3.7-3.7-3.7H10.4c-2.2,0-3.6,1.7-3.7,3.7v28c0,2,1.7,3.7,3.7,3.7h40.7c2,0,3.7-1.7,3.7-3.7v-14c0-1.1-1-1.9-1.9-1.9s-1.9,1-1.9,1.9v13.8H10.9v-27.2h40.1v2.5l-23.9,9-9.4-5.9c-1-.6-2.2-.4-2.8.6-.6,1-.4,2.2.6,2.8l10.3,6.4c.4.1.7.4,1.1.4s.5,0,.7-.1l25.7-9.7c-.1,0,1.6-.7,1.6-2Z"/>
    <path class="st1" d="M34.8,41.4v-7l-2.5.5v1.3h1.2c0-.1,0,5.2,0,5.2h1.3ZM39.2,39.8c-.1.1-.2.2-.4.2-.1.1-.4.1-.5.1-.4.1-.8.1-1.2.2-.4,0-.7,0-1.1.1h-.4v1.1h3.6c.4,0,.7-.2,1-.5.5-.6.6-1.4.5-2.3,0-.6-.2-1-.6-1.3,0,0,.5-.5.5-.6.1-.4.1-.7.1-1.1s-.1-.8-.2-1.3c0,0,0-.1-.1-.1h-.1c-.5-.6-1.2-.4-2-.4h-1.7v1.6h2.4c.1,0,.1.1.1.1,0,.5.2,1.2-.5,1.2h-1.7v1.3h.8c.4,0,1,0,1.2.1.1.1.2.2.2.4,0,0,0,1.1,0,1.1ZM45.7,38.9c0,.4,0,.6-.2,1-.2.2-.5.4-.7.5-.6.2-1.2.2-1.7.2h-.6v.7c0,.1,0,.2.1.2h3.6c.5-.1.8-.4,1-.8.2-.7.1-1.4.1-2.2v-2.9c0-.2-.1-.5-.2-.7,0-.1-.1-.2-.1-.2-.2-.4-.7-.7-1.1-.7h-3c-.4,0-.7.2-.8.5-.2.2-.5.6-.5,1.1v1.3c0,.2.1.6.2.7.2.4.7.7,1.2.7h2.9s-.1.6-.1.6ZM45.6,37.1c0,.1-.1.1-.4.1h-2c-.4-.1-.5-.2-.5-.6v-.4c0-.5.5-.4.7-.4h1.6c.1,0,.4,0,.4.1.1.1.1.4.1.5.1.2.1.4.1.6Z"/>
  </g>
</svg>