<?xml version="1.0" encoding="UTF-8"?>
<svg id="_图层_1" xmlns="http://www.w3.org/2000/svg" version="1.1" viewBox="0 0 64 64" width="16" height="16">
  <!-- Generator: Adobe Illustrator 29.0.1, SVG Export Plug-In . SVG Version: 2.1.0 Build 192)  -->
  <defs>
    <style>
      .st0 {
        opacity: .2;
      }

      .st0, .st1, .st2, .st3 {
        isolation: isolate;
      }

      .st0, .st1, .st4 {
        display: none;
      }

      .st1 {
        fill: #fff;
      }

      .st1, .st2 {
        opacity: .1;
      }

      .st5 {
        fill: #636e73;
      }

      .st6 {
        fill: #3174fc;
      }

      .st3 {
        opacity: .2;
      }

      .st4, .st7 {
        fill: #e4e4e4;
      }
    </style>
  </defs>
  <path class="st7" d="M50.3,64H13.9C6.3,64,.2,57.8.2,50.3V13.8C.2,6.2,6.3,0,13.9,0h36.5c7.5,0,13.7,6.2,13.7,13.7v36.5c0,7.5-6.1,13.7-13.7,13.7h0Z"/>
  <g>
    <path class="st0" d="M.3,51.3v2.2c0,1.8,1.5,3.3,3.4,3.3h56.6c1.9,0,3.4-1.5,3.4-3.3v-2.2c0,1.8-1.5,3.3-3.4,3.3H3.7c-1.9,0-3.4-1.5-3.4-3.3Z"/>
    <path class="st4" d="M.3,11.6v40.8c0,1.8,1.5,3.3,3.4,3.3h56.6c1.9,0,3.4-1.5,3.4-3.3V11.6H.3Z"/>
    <path class="st5" d="M62.7,9.1h0C62.7,7.3,58.5-.1,50.3,0H13.9C5.9-.1,1.3,7.4,1.3,9.3v-.4l61.4.3Z"/>
    <path class="st2" d="M28.6,16v21h-9l6.8-18.7h-6.8l-6.8,18.7v5.5h15.8v11h6.8v-11h3.4s12.4,0,12.4-15.4-12.4-11-12.4-11h-10.2ZM35.4,21.5h3.4s5.7,0,5.7,5.5c0,9.9-5.7,9.9-5.7,9.9h-3.4v-15.4Z"/>
    <path class="st6" d="M28.6,14.9v21h-9l6.8-18.7h-6.8l-6.8,18.7v5.5h15.8v11h6.8v-11h3.4s12.4,0,12.4-15.4-12.4-11-12.4-11h-10.2ZM35.4,20.4h3.4s5.7,0,5.7,5.5c0,9.9-5.7,9.9-5.7,9.9h-3.4v-15.4Z"/>
    <path class="st3" d="M64,49.7V13.4c-.2-2.3-.8-3.7-1.5-4.8l-30.2-.4v55.8h18c9.1,0,13.6-8.8,13.7-14.4Z"/>
    <path class="st1" d="M3.7,2.8C1.8,2.8.3,4.3.3,6.1v1.1c0-1.8,1.5-3.3,3.4-3.3h56.6c1.9,0,3.4,1.5,3.4,3.3v-1.1c0-1.8-1.5-3.3-3.4-3.3H3.7Z"/>
  </g>
</svg>