<?xml version="1.0" encoding="UTF-8"?>
<svg id="_图层_1" xmlns="http://www.w3.org/2000/svg" version="1.1" viewBox="0 0 64 64" width="16" height="16">
  <!-- Generator: Adobe Illustrator 29.0.1, SVG Export Plug-In . SVG Version: 2.1.0 Build 192)  -->
  <defs>
    <style>
      .st0 {
        fill: none;
        stroke: #ffb73c;
        stroke-linecap: round;
        stroke-linejoin: round;
        stroke-width: 6px;
      }

      .st1 {
        fill: #4f4f4f;
      }

      .st2, .st3, .st4, .st5 {
        display: none;
      }

      .st2, .st3, .st6, .st7, .st8 {
        isolation: isolate;
      }

      .st2, .st6, .st7 {
        opacity: .2;
      }

      .st3, .st7, .st8 {
        fill: #fff;
      }

      .st3, .st8 {
        opacity: .1;
      }

      .st9 {
        fill: #3f3f3f;
      }

      .st10 {
        fill: #f43e3e;
      }

      .st4, .st11 {
        fill: #595552;
      }

      .st12 {
        fill: #c6241d;
      }
    </style>
  </defs>
  <path class="st11" d="M50.3,64H13.8c-7.6,0-13.8-6.2-13.8-13.7V13.7C0,6.2,6.2,0,13.7,0h36.5c7.5,0,13.7,6.2,13.7,13.7v36.6c0,7.5-6.2,13.7-13.7,13.7h0Z"/>
  <g class="st5">
    <path class="st2" d="M2.3,1.1h59.3c1.3,0,2.3,1,2.3,2.3v59.3c0,1.3-1,2.3-2.3,2.3H2.3c-1.3,0-2.3-1-2.3-2.3V3.4C0,2.2,1,1.1,2.3,1.1Z"/>
    <path class="st4" d="M2.3,0h59.3c1.3,0,2.3,1,2.3,2.3v59.3c0,1.3-1,2.3-2.3,2.3H2.3c-1.3,0-2.3-1-2.3-2.3V2.3C0,1,1,0,2.3,0Z"/>
    <path class="st6" d="M6.8,6.8l5.7,10.3h25.1l-5.7,6.8,3.4-2.3-1.1,2.3,3.4-2.3-8,6.8v-1.1l-1.1,2.3,1.1,2.3-8,9.1-3.4,3.4v3.4l2.3,2.3-3.4,2.3h2.3l-2.3,3.4,8-8-8,12.5,10.3-9.1,1.1-3.4v-2.3l3.4-3.4v1.1l4.6-1.1,4.6-4.6-1.1-1.1-2.3,2.3v-2.3l3.4-3.5v-3.4l16-22.8H6.8Z"/>
    <path class="st12" d="M6.8,5.7l5.7,10.3h25.1l-5.7,6.8,3.4-2.3-1.1,2.3,3.4-2.3-8,6.8v-1.1l-1.1,2.3,1.1,2.3-8,9.1-3.4,3.4v3.4l2.3,2.3-3.4,2.3h2.3l-2.3,3.4,8-8-8,12.5,10.3-9.1,1.1-3.4v-2.3l3.4-3.4v1.1l4.6-1.1,4.6-4.6-1.1-1.1-2.3,2.3v-2.3l3.4-3.5v-3.4l16-22.8H6.8Z"/>
    <path class="st3" d="M2.3,0C1,0,0,1,0,2.3v1.1C0,2.2,1,1.1,2.3,1.1h59.3c1.3,0,2.3,1,2.3,2.3v-1.1c0-1.3-1-2.3-2.3-2.3H2.3Z"/>
    <path class="st7" d="M6.8,5.7l.6,1.1h48.7l.8-1.1H6.8ZM36.7,17.1l-4.7,5.7,2.1-1.4,3.6-4.3h-1ZM35.3,21.7l-.9.6-.3.6.9-.6.3-.6ZM37.6,21.7l-3.4,2.3.4-.9-5,4.3v1.1l8-6.8ZM29.6,27.4v-1.1l-1.1,2.3.3.6.9-1.7ZM29.3,31.2l-7.6,8.7-3.4,3.4v1.1l3.4-3.4,8-9.1-.4-.7ZM39.9,35.4l-2.3,2.3v1.1l2.3-2.3.6.6.6-.6-1.1-1.1ZM25.1,47.9l-2,2-6,9.4,1.7-1.5,6.3-9.9ZM19.8,49.5l-2.7,1.8h1.7l1.7-1.1-.7-.7ZM18.6,52.5l-1.5,2.3,2.3-2.3h-.8Z"/>
  </g>
  <g>
    <path class="st6" d="M9.6,37h44.8c3.1,0,5.6,2.5,5.6,5.5v11c0,3-2.5,5.5-5.6,5.5H9.6c-3.1,0-5.6-2.5-5.6-5.5v-11c0-3,2.5-5.5,5.6-5.5Z"/>
    <path class="st1" d="M9.6,36h44.8c3.1,0,5.6,2.5,5.6,5.5v11c0,3-2.5,5.5-5.6,5.5H9.6c-3.1,0-5.6-2.5-5.6-5.5v-11c0-3,2.5-5.5,5.6-5.5Z"/>
    <path class="st8" d="M9.5,36c-3.1,0-5.6,2.5-5.6,5.5v1c0-3,2.5-5.5,5.6-5.5h44.8c3.1,0,5.6,2.5,5.6,5.5v-1c0-3-2.5-5.5-5.6-5.5H9.5Z"/>
    <path class="st9" d="M24.6,2l-1.6,4.8-3.9-3.4-1.4,4-2.9-2.5-1.4,4.2-2.8-1.4-.3,4.8-4-1.9-.3,5-4-.8,1,5,7,16.2h44l7-16.2,1-5-4,.8-.3-5-4,1.9-.3-4.8-2.8,1.4-1.4-4.2-2.9,2.5-1.4-4-3.9,3.4-1.6-4.8-3.9,3.4-.6,2.2v-1.2l-2.9-4.2h0s0,0,0,0l-2.9,4.2v1.2l-.6-2.2-3.9-3.4Z"/>
    <path class="st8" d="M24.6,2l-1.6,4.8-3.9-3.4-1.4,4-2.9-2.5-1.4,4.2-2.8-1.4-.3,4.8-4-1.9-.3,5-4-.8.2,1,3.7.7.3-5,4,1.9.3-4.8,2.8,1.4,1.4-4.2,2.9,2.5,1.4-4,3.9,3.4,1.6-4.8,3.9,3.4.6,2.2v-1l-.6-2.2-3.9-3.4ZM39.3,2l-3.9,3.4-.6,2.2v1l.6-2.2,3.9-3.4,1.6,4.8,3.9-3.4,1.4,4,2.9-2.5,1.4,4.2,2.8-1.4.3,4.8,4-1.9.3,5,3.7-.7.2-1-4,.8-.3-5-4,1.9-.3-4.8-2.8,1.4-1.4-4.2-2.9,2.5-1.4-4-3.9,3.4-1.6-4.8ZM31.9,2l-2.9,4.2v1l2.9-4.2h0s0,0,0,0l2.9,4.2v-1l-2.9-4.2h0s0,0,0,0Z"/>
    <path class="st6" d="M38.9,23c-1.7,0-3,1.4-3,3h0v8.3c0,.3,0,.5,0,.8v2c0,.4,0,.7,0,1.1v7.8c0,1.7,1.3,3,3,3,1.7,0,3-1.3,3-3,0,0,0,0,0,0v-3.4l4.8,5.4c1.1,1.3,3,1.4,4.2.3s1.4-3,.3-4.2c0,0,0,0,0,0l-7-7.9,7-8.1c1.1-1.2,1-3.1-.3-4.2-.6-.5-1.3-.8-2-.8-.9,0-1.7.4-2.3,1.1l-4.7,5.5v-3.5c0-1.7-1.3-3-3-3,0,0,0,0,0,0ZM15,23c-1.7,0-3,1.3-3,3,0,1.7,1.3,3,3,3,0,0,0,0,0,0h5.7c-3.5,5.1-4.7,10.1-4.7,17,0,1.7,1.3,3,3,3,1.7,0,3-1.3,3-3,0,0,0,0,0,0,0-8.5.9-11.4,7.2-17.9,1.1-1.2,1.1-3.1,0-4.2-.6-.5-1.3-.8-2.1-.8h-12Z"/>
    <path class="st0" d="M15,25h12c-6.5,6.8-8,11.1-8,20"/>
    <path class="st0" d="M39,25v20"/>
    <path class="st6" d="M31.9,21L19.9,1h24s-12,20-12,20Z"/>
    <path class="st0" d="M49,25l-10,11.6"/>
    <path class="st0" d="M49,45l-10-11.3"/>
    <path class="st10" d="M31.9,20L19.9,0h24s-12,20-12,20Z"/>
    <path class="st8" d="M20,0l.6,1h22.8l.6-1h-24Z"/>
  </g>
</svg>