<?xml version="1.0" encoding="UTF-8"?>
<svg id="_图层_1" xmlns="http://www.w3.org/2000/svg" version="1.1" viewBox="0 0 64 64" width="16" height="16">
  <!-- Generator: Adobe Illustrator 29.0.1, SVG Export Plug-In . SVG Version: 2.1.0 Build 192)  -->
  <defs>
    <style>
      .st0 {
        fill: #475f9d;
      }

      .st1 {
        fill: #4f4f4f;
      }

      .st2, .st3 {
        fill: #aee334;
      }

      .st4 {
        fill: #8d5b34;
      }

      .st5, .st3, .st6, .st7 {
        display: none;
      }

      .st5, .st8, .st9, .st7, .st10 {
        isolation: isolate;
      }

      .st5, .st9, .st7 {
        opacity: .2;
      }

      .st11 {
        fill: #b2713d;
      }

      .st12 {
        fill: #3f3f3f;
      }

      .st13, .st7, .st10 {
        fill: #fff;
      }

      .st14 {
        fill: #ffb301;
      }

      .st15 {
        fill: #e3563b;
      }

      .st8, .st10 {
        opacity: .1;
      }

      .st16 {
        fill: #153e44;
      }

      .st17 {
        fill: #31b58e;
      }

      .st18 {
        fill: #eba65b;
      }

      .st19 {
        fill: #9d9d9d;
      }

      .st20 {
        fill: #707070;
      }
    </style>
  </defs>
  <path class="st2" d="M50.4,64H13.8c-7.6,0-13.8-6.2-13.8-13.7V13.7C0,6.2,6.2,0,13.7,0h36.6c7.5,0,13.7,6.2,13.7,13.7v36.6c0,7.5-6.2,13.7-13.7,13.7h.1Z"/>
  <g class="st6">
    <path class="st9" d="M3.5,31.5c0,.3,0,.7,0,1,0,15.5,12.5,28,28,28s28-12.5,28-28,0-.7,0-1c-.5,15-12.8,27-27.9,27S4,46.5,3.5,31.5h0Z"/>
    <rect class="st19" x="3.5" y="3.5" width="56" height="56" rx="28" ry="28"/>
    <path class="st10" d="M31.5,3.5C16,3.5,3.5,16,3.5,31.5s0,.2,0,.3c.4-15.2,12.7-27.3,28-27.3s27.6,12.1,28,27.3c0-.1,0-.2,0-.3,0-15.5-12.5-28-28-28Z"/>
    <circle class="st20" cx="31.5" cy="31.5" r="22"/>
    <circle class="st12" cx="31.5" cy="31.5" r="16"/>
    <circle class="st8" cx="31.5" cy="32.5" r="8"/>
    <circle class="st1" cx="31.5" cy="31.5" r="8"/>
    <path class="st10" d="M31.5,23.5c-4.4,0-8,3.6-8,8,0,.1,0,.3,0,.4.3-4.2,3.8-7.4,8-7.4,4.2,0,7.8,3.3,8,7.6,0-.2,0-.4,0-.6,0-4.4-3.6-8-8-8Z"/>
  </g>
  <g class="st6">
    <path class="st9" d="M2.5,30.5c0,.3,0,.7,0,1,0,15.5,12.5,28,28,28s28-12.5,28-28,0-.7,0-1c-.5,15-12.8,27-27.9,27S3,45.5,2.5,30.5h0Z"/>
    <rect class="st19" x="2.4" y="2.5" width="56" height="56" rx="28" ry="28"/>
    <path class="st10" d="M30.4,2.5C14.9,2.5,2.4,15,2.4,30.5s0,.2,0,.3C2.8,15.6,15.2,3.5,30.4,3.5s27.6,12.1,28,27.3c0-.1,0-.2,0-.3,0-15.5-12.5-28-28-28Z"/>
    <circle class="st20" cx="30.4" cy="30.5" r="22"/>
    <circle class="st12" cx="30.4" cy="30.5" r="16"/>
    <circle class="st8" cx="30.4" cy="31.5" r="8"/>
    <circle class="st1" cx="30.4" cy="30.5" r="8"/>
    <path class="st10" d="M30.4,22.5c-4.4,0-8,3.6-8,8,0,.1,0,.3,0,.4.3-4.2,3.8-7.4,8-7.4,4.2,0,7.8,3.3,8,7.6,0-.2,0-.4,0-.6,0-4.4-3.6-8-8-8Z"/>
    <circle class="st9" cx="44.4" cy="45.5" r="16"/>
    <circle class="st17" cx="44.4" cy="44.5" r="16"/>
    <path class="st13" d="M48.4,35.3v11.2h-8v-11.2c-3.6,1.6-6,5.2-6,9.2,0,4,2.4,7.6,6,9.2v6.3c1.3.3,2.6.5,4,.5,1.3,0,2.7-.2,4-.5v-6.3c3.6-1.6,6-5.2,6-9.2,0-4-2.4-7.6-6-9.2Z"/>
  </g>
  <g>
    <ellipse class="st5" cx="32" cy="33" rx="32" ry="31.9"/>
    <ellipse class="st3" cx="32" cy="31.9" rx="32" ry="31.9"/>
    <path class="st8" d="M40.7,23l11.9,2.2-10.9,7.2-1-9.4Z"/>
    <path class="st8" d="M35.6,39.8c2.9,6.9,2.3,10.9,12.7,12.4,4.2.4,3.3,5.9-.5,6-2.1,0-4.2,0-5.8-.5-1.8-.5-5.9-4.1-5.9-4.1l-.6-13.8Z"/>
    <path class="st8" d="M25.2,35.6l-1.1,20.3s-1.1-1-1.6-1.4c-.9-.7-1.6-1.4-2.7-1.6-1.1-.2-2.2.6-3.2.6-.8,0-2.4-.8-2.4-.8-2-.6-3.2-4.5-2.6-8.6,1.4-8.8,6.9-9.6,13.6-8.6Z"/>
    <path class="st0" d="M22.3,55c-.2,0-.4.1-.5.3-1.4,1.7-2.7,3.5-3.9,5.3,2,1,4.1,1.7,6.2,2.3,0,0,.1-.2.2-.3,0-.1.1-.3,0-.5l-1.4-6.5c0-.3-.3-.5-.6-.5,0,0,0,0,0,0Z"/>
    <path class="st14" d="M40.7,21.9l11.9,2.2-10.9,7.2-1-9.4Z"/>
    <path class="st18" d="M25.2,34.4l-1.1,20.3s-1.1-1-1.6-1.4c-.9-.7-1.6-1.4-2.7-1.6-1.1-.2-2.2.6-3.2.6-.8,0-2.4-.8-2.4-.8-2-.6-3.2-4.5-2.6-8.6,1.4-8.8,6.9-9.6,13.6-8.6Z"/>
    <path class="st11" d="M20.5,34.1c-3.6.2-6.4,1.6-8,5.5.8.4,1.8.5,2.6.3.9-.3,2.2-2.1,2.2-2.1,2.9-1.2,5.7,0,7.7,1l.2-4.4c-1.7-.3-3.3-.4-4.8-.3Z"/>
    <path class="st11" d="M11.4,44.6c-.1,3.5,1,6.5,2.7,7,0,0,1,.5,1.8.7l-.4-6.4-4.1-1.3Z"/>
    <path class="st0" d="M35.6,38.6c2.9,6.9,2.3,10.9,12.7,12.4,4.2.4,3.3,5.9-.5,6-2.1,0-4.2,0-5.8-.5-1.8-.5-5.9-4.1-5.9-4.1l-.6-13.8Z"/>
    <path class="st15" d="M22.5,35.4c-1.3,4.3-2,8.8-2,13.6,0,4.1.5,8.5.9,13,3.4,1.2,7,1.8,10.6,1.8,2.6,0,5.2-.3,7.7-.9-1-4.9-2-10.1-2-15.3,0-4,.7-8,1.8-11.9l-17-.2Z"/>
    <path class="st4" d="M49.1,41.1c-1.3,0-2.3,1.1-2.3,2.4v16.6c1.6-.8,3.1-1.8,4.6-2.9v-13.7c0-1.3-1-2.4-2.3-2.4Z"/>
    <path class="st8" d="M22.9,36.2l6.9,2.9s-3.8,6.2-2.6,9.5c.6,1.6,1.9,3.6,3.4,5,3.6,3.4-1.3,5.2-2.9,4.1-4.5-2.4-6.7-5-8-7.7-1.2-5.3,1.3-9.2,3.2-13.9Z"/>
    <path class="st0" d="M22.9,35l6.9,2.9s-3.8,6.2-2.6,9.5c.6,1.6,1.9,3.6,3.4,5,3.6,3.4-1.3,5.2-2.9,4.1-4.5-2.4-6.7-5-8-7.7-1.2-5.3,1.3-9.2,3.2-13.9Z"/>
    <ellipse class="st8" cx="29.7" cy="28.5" rx="12.6" ry="12.5"/>
    <ellipse class="st0" cx="29.7" cy="27.3" rx="12.6" ry="12.5"/>
    <ellipse class="st9" cx="33.1" cy="27.3" rx="5.7" ry="5.7"/>
    <ellipse class="st13" cx="33.1" cy="26.2" rx="5.7" ry="5.7"/>
    <path class="st16" d="M33.1,20.5c-.3,0-.5,0-.8,0-1,.9-1.5,2.1-1.5,3.4,0,2.5,2,4.5,4.5,4.5h0c1.3,0,2.5-.6,3.4-1.5,0-.3,0-.5,0-.8,0-3.1-2.6-5.7-5.7-5.7h0Z"/>
    <path class="st7" d="M32,0C14.3,0,0,14.3,0,31.9c0,.2,0,.4,0,.6C.3,15.1,14.5,1.1,32,1.1c17.4,0,31.7,13.9,32,31.3,0-.2,0-.4,0-.6C64,14.3,49.7,0,32,0Z"/>
  </g>
</svg>