<?xml version="1.0" encoding="UTF-8"?>
<svg id="_图层_1" xmlns="http://www.w3.org/2000/svg" version="1.1" viewBox="0 0 64 64" width="16" height="16">
  <!-- Generator: Adobe Illustrator 29.0.1, SVG Export Plug-In . SVG Version: 2.1.0 Build 192)  -->
  <defs>
    <style>
      .st0 {
        fill: #ffca28;
      }

      .st1 {
        fill: #ffee58;
      }

      .st2 {
        opacity: .1;
      }

      .st2, .st3, .st4 {
        isolation: isolate;
      }

      .st5 {
        fill: #ff5252;
      }

      .st3, .st4 {
        opacity: .2;
      }

      .st6 {
        fill: #fff176;
      }

      .st4 {
        fill: #fff;
      }
    </style>
  </defs>
  <path class="st5" d="M50.4,64H13.8c-7.6,0-13.8-6.2-13.8-13.7V13.7C0,6.2,6.2,0,13.7,0h36.6c7.5,0,13.7,6.2,13.7,13.7v36.6c0,7.5-6.2,13.7-13.7,13.7h.1Z"/>
  <g>
    <path class="st3" d="M10.9,54.8c0,3,1,4,4,4h36c3,0,4-1,4-4v-19c0-4-10.5-8.1-13.5-18.5l-1.5-11.4c-2-2.1-4.5-3.1-7-3.1-2.5,0-5,1-7,3.1l-1.5,11.4c-3,10.4-13.5,14.5-13.5,18.5v19ZM28.9,12.8c0-2,2-4,4-4s4,2,4,4-2,4-4,4-4-2-4-4Z"/>
    <path class="st1" d="M10.9,53.8c0,3,1,4,4,4h36c3,0,4-1,4-4v-19c0-4-10.5-8.1-13.5-18.5l-1.5-11.4c-2-2.1-4.5-3.1-7-3.1-2.5,0-5,1-7,3.1l-1.5,11.4c-3,10.4-13.5,14.5-13.5,18.5v19ZM28.9,11.8c0-2,2-4,4-4s4,2,4,4-2,4-4,4-4-2-4-4Z"/>
    <path class="st4" d="M32.9,1.8c-2.5,0-5,1-7,3.1l-1.5,11.4c-3,10.4-13.5,14.5-13.5,18.5v1c0-4,10.5-8.1,13.5-18.5l1.5-11.4c2-2.1,4.5-3.1,7-3.1,2.5,0,5,1,7,3.1l1.5,11.4c3,10.4,13.5,14.5,13.5,18.5v-1c0-4-10.5-8.1-13.5-18.5l-1.5-11.4c-2-2.1-4.5-3.1-7-3.1ZM28.9,12.3c0,.2,0,.3,0,.5,0,2,2,4,4,4s4-2,4-4,0-.3,0-.5c-.3,1.8-2.1,3.5-4,3.5s-3.7-1.7-4-3.5Z"/>
    <path class="st4" d="M26.9,29.8v10.2c-.5-.1-1-.2-1.5-.2-3,0-5.5,2.4-5.5,5.5,0,3,2.4,5.5,5.4,5.5,3,0,5.5-2.4,5.6-5.4h0v-11.6h8v6.2c-.5-.1-1-.2-1.5-.2-3,0-5.5,2.4-5.5,5.5,0,3,2.4,5.5,5.4,5.5,3,0,5.5-2.4,5.6-5.4h0v-15.6h-16Z"/>
    <path class="st0" d="M26.9,30.8v10.2c-.5-.1-1-.2-1.5-.2-3,0-5.5,2.4-5.5,5.5,0,3,2.4,5.5,5.4,5.5,3,0,5.5-2.4,5.6-5.4h0v-11.6h8v6.2c-.5-.1-1-.2-1.5-.2-3,0-5.5,2.4-5.5,5.5,0,3,2.4,5.5,5.4,5.5,3,0,5.5-2.4,5.6-5.4h0v-15.6h-16Z"/>
    <path class="st2" d="M32.9,2.8c-5.5,0-10,4.5-10,10s4.5,10,10,10,10-4.5,10-10-4.5-10-10-10ZM32.9,6.8c4,0,6,2,6,6s-2,6-6,6-6-2-6-6,2.5-6,6-6Z"/>
    <path class="st6" d="M32.9,1.8c-5.5,0-10,4.5-10,10s4.5,10,10,10,10-4.5,10-10S38.4,1.8,32.9,1.8ZM32.9,5.8c4,0,6,2,6,6s-2,6-6,6-6-2-6-6,2.5-6,6-6Z"/>
    <path class="st4" d="M32.9,1.8c-5.5,0-10,4.5-10,10s0,.3,0,.5c.3-5.3,4.6-9.5,10-9.5s9.7,4.2,10,9.5c0-.2,0-.3,0-.5,0-5.5-4.5-10-10-10ZM38.9,12.2c-.2,3.2-2.2,5.5-6,5.5s-5.8-1.8-6-5.5c0,.2,0,.3,0,.5,0,4,2,6,6,6s6-2.5,6-6,0-.4,0-.5Z"/>
  </g>
</svg>