<?xml version="1.0" encoding="UTF-8" standalone="no"?>
<svg
   id="_图层_1"
   version="1.1"
   viewBox="0 0 64 64" width="16" height="16"
   sodipodi:docname="applications-education.svg"
   xml:space="preserve"
   inkscape:version="1.4 (e7c3feb100, 2024-10-09)"
   xmlns:inkscape="http://www.inkscape.org/namespaces/inkscape"
   xmlns:sodipodi="http://sodipodi.sourceforge.net/DTD/sodipodi-0.dtd"
   xmlns="http://www.w3.org/2000/svg"
   xmlns:svg="http://www.w3.org/2000/svg"><sodipodi:namedview
     id="namedview26"
     pagecolor="#505050"
     bordercolor="#eeeeee"
     borderopacity="1"
     inkscape:showpageshadow="0"
     inkscape:pageopacity="0"
     inkscape:pagecheckerboard="0"
     inkscape:deskcolor="#505050"
     inkscape:zoom="10.6875"
     inkscape:cx="44.25731"
     inkscape:cy="32"
     inkscape:window-width="1920"
     inkscape:window-height="939"
     inkscape:window-x="0"
     inkscape:window-y="34"
     inkscape:window-maximized="1"
     inkscape:current-layer="_图层_1" /><!-- Generator: Adobe Illustrator 29.0.1, SVG Export Plug-In . SVG Version: 2.1.0 Build 192)  --><defs
     id="defs6"><inkscape:path-effect
       effect="fillet_chamfer"
       id="path-effect26"
       is_visible="true"
       lpeversion="1"
       nodesatellites_param="F,0,0,1,0,0,0,1 @ F,0,0,1,0,0,0,1 @ F,0,0,1,0,0,0,1 @ F,0,0,1,0,0,0,1 @ F,0,0,1,0,0,0,1 @ F,0,0,1,0,0,0,1"
       radius="0"
       unit="px"
       method="auto"
       mode="F"
       chamfer_steps="1"
       flexible="false"
       use_knot_distance="true"
       apply_no_radius="true"
       apply_with_radius="true"
       only_selected="false"
       hide_knots="false" /><style
       id="style1">
      .st0 {
        fill-opacity: .5;
      }

      .st0, .st1, .st2, .st3, .st4, .st5, .st6, .st7 {
        fill: #fff;
      }

      .st8 {
        fill: #133c9a;
      }

      .st2, .st9 {
        display: none;
      }

      .st3 {
        fill-opacity: .2;
      }

      .st4 {
        fill-opacity: .9;
      }

      .st10 {
        fill: #3370ff;
      }

      .st11 {
        fill: url(#_未命名的渐变_3);
      }

      .st12 {
        fill: url(#_未命名的渐变);
      }

      .st5 {
        fill-opacity: .3;
      }

      .st6 {
        fill-opacity: 0;
      }

      .st7 {
        fill-opacity: .7;
      }

      .st13 {
        fill: #00d6b9;
      }

      .st14 {
        fill: url(#_未命名的渐变_2);
      }
    </style><radialGradient
       id="_未命名的渐变"
       data-name="未命名的渐变"
       cx="123.9"
       cy="-40.2"
       fx="123.9"
       fy="-40.2"
       r="59.4"
       gradientTransform="translate(-26.8 25.5) scale(.6 -.7)"
       gradientUnits="userSpaceOnUse"><stop
         offset="0"
         stop-color="#db202e"
         id="stop1" /><stop
         offset="1"
         stop-color="#e01b24"
         id="stop2" /></radialGradient><radialGradient
       id="_未命名的渐变_2"
       data-name="未命名的渐变 2"
       cx="67.6"
       cy="26.8"
       fx="67.6"
       fy="26.8"
       r="105.2"
       gradientTransform="translate(-26.6 25.3) scale(.6 -.7)"
       gradientUnits="userSpaceOnUse"><stop
         offset="0"
         stop-color="#ffb648"
         id="stop3" /><stop
         offset="1"
         stop-color="#ff7800"
         stop-opacity="0"
         id="stop4" /></radialGradient><radialGradient
       id="_未命名的渐变_3"
       data-name="未命名的渐变 3"
       cx="61.7"
       cy="18.6"
       fx="61.7"
       fy="18.6"
       r="68"
       gradientTransform="translate(-26.8 25.8) scale(.6 -.7)"
       gradientUnits="userSpaceOnUse"><stop
         offset="0"
         stop-color="#c64600"
         id="stop5" /><stop
         offset="1"
         stop-color="#a51d2d"
         id="stop6" /></radialGradient></defs><path
     class="st1"
     d="M 47.5,64.1 H 13.8 C 6.2,64.1 0,57.8 0,50.3 V 13.7 C 0,6.2 6.2,0 13.7,0 H 50.3 C 57.8,0 64,6.2 64,13.7 V 50.3 C 64,57.8 57.8,64 50.3,64 h -2.9 0.1 z"
     id="path6"
     style="display:inline;fill:#ffffff;fill-opacity:1" /><g
     id="g26"
     transform="translate(0.58487732,-1.62284)"><path
       style="opacity:0.2"
       d="M 12,27.200107 H 52 V 42.600038 C 52,42.600038 49.142858,51 32,51 14.857143,51 12,42.600038 12,42.600038 Z"
       id="path1" /><path
       style="fill:#4d4d4d"
       d="M 12,26.200107 H 52 V 41.600038 C 52,41.600038 49.142858,50 32,50 14.857143,50 12,41.600038 12,41.600038 Z"
       id="path2" /><path
       style="opacity:0.2"
       d="m 31.34138,12.018672 a 5.890926,2.945484 0 0 0 -3.504716,0.842173 L 5.7221637,23.919797 a 5.890926,2.945484 0 0 0 0,4.162289 L 27.836664,39.138334 a 5.890926,2.945484 0 0 0 8.326677,0 L 58.277839,28.082086 a 5.890926,2.945484 0 0 0 0,-4.162289 L 36.163341,12.860845 A 5.890926,2.945484 0 0 0 31.34138,12.018672 Z"
       id="path3" /><path
       style="fill:#666666"
       d="m 31.34138,11.018672 a 5.890926,2.945484 0 0 0 -3.504716,0.842173 L 5.7221637,22.919797 a 5.890926,2.945484 0 0 0 0,4.162289 L 27.836664,38.138334 a 5.890926,2.945484 0 0 0 8.326677,0 L 58.277839,27.082086 a 5.890926,2.945484 0 0 0 0,-4.162289 L 36.163341,11.860845 A 5.890926,2.945484 0 0 0 31.34138,11.018672 Z"
       id="path4" /><path
       style="opacity:0.2"
       d="M 32.271484,23.017578 11.482422,26.224609 C 9.5145052,26.388827 8.1795577,27.569539 7.6015625,28.646484 7.0160182,29.737496 7,30.798828 7,30.798828 a 1.50015,1.50015 0 0 0 0,0.03711 v 9.238281 a 1.1253793,1.1667781 0 0 0 -0.7285156,0.865234 l -2.25,11.666016 A 1.1253793,1.1667781 0 0 0 5.125,54 h 6.751953 a 1.1253793,1.1667781 0 0 0 1.103516,-1.394531 L 10.728516,40.939453 A 1.1253793,1.1667781 0 0 0 10,40.074219 V 30.875 c 0,0 0.02045,-0.393752 0.244141,-0.810547 0.223693,-0.416795 0.444982,-0.77897 1.521484,-0.853515 a 1.50015,1.50015 0 0 0 0.125,-0.01367 l 20.837891,-3.214844 a 1.5,1.5 0 0 0 1.253906,-1.710938 1.5,1.5 0 0 0 -1.710938,-1.253906 z"
       id="path5" /><path
       style="fill:none;stroke:#ffbd21;stroke-width:3;stroke-linecap:round;stroke-linejoin:round"
       d="M 32.5,23.5 11.66196,26.714063 C 8.5750729,26.927821 8.5000397,29.836559 8.5000397,29.836559 V 41.799946"
       id="path6-6" /><path
       style="fill:#ff8000"
       d="m 7.3754693,38.999958 a 1.1253793,1.1667781 0 0 0 -1.1032891,0.9388 L 4.0216467,51.605371 a 1.1253793,1.1667781 0 0 0 1.1032888,1.394524 h 6.7516015 a 1.1253793,1.1667781 0 0 0 1.103288,-1.394524 L 10.729292,39.938758 a 1.1253793,1.1667781 0 0 0 -1.1032893,-0.9388 z"
       id="path7" /><path
       style="opacity:0.1;fill:#ffffff"
       d="m 32.660156,11.017578 a 5.890926,2.945484 0 0 0 -1.318359,0.002 5.890926,2.945484 0 0 0 -3.505859,0.841797 L 5.7226562,22.919922 A 5.890926,2.945484 0 0 0 4.1328125,25.5 5.890926,2.945484 0 0 1 5.7226562,23.919922 L 27.835938,12.861328 a 5.890926,2.945484 0 0 1 3.505859,-0.841797 5.890926,2.945484 0 0 1 4.822265,0.841797 L 58.277344,23.919922 A 5.890926,2.945484 0 0 1 59.908203,25.5 5.890926,2.945484 0 0 0 58.277344,22.919922 L 36.164062,11.861328 a 5.890926,2.945484 0 0 0 -3.503906,-0.84375 z"
       id="path8" /></g></svg>
