<?xml version="1.0" encoding="UTF-8"?>
<svg id="_图层_1" xmlns="http://www.w3.org/2000/svg" version="1.1" viewBox="0 0 64 64" width="16" height="16">
  <!-- Generator: Adobe Illustrator 29.0.1, SVG Export Plug-In . SVG Version: 2.1.0 Build 192)  -->
  <defs>
    <style>
      .st0, .st1 {
        fill-rule: evenodd;
      }

      .st0, .st2 {
        fill: #5294e2;
      }

      .st1, .st3, .st4 {
        opacity: .1;
      }

      .st1, .st3, .st4, .st5 {
        isolation: isolate;
      }

      .st3 {
        display: none;
      }

      .st3, .st6 {
        fill: #fff;
      }

      .st7 {
        fill: #5a6367;
      }

      .st5 {
        opacity: .2;
      }

      .st8 {
        fill: #c7c7c7;
      }
    </style>
  </defs>
  <path class="st8" d="M47.5,64.1H13.8c-7.6,0-13.8-6.3-13.8-13.8V13.7C0,6.2,6.2,0,13.7,0h36.6c7.5,0,13.7,6.2,13.7,13.7v36.6c0,7.5-6.2,13.7-13.7,13.7h-2.9.1Z"/>
  <g>
    <path class="st5" d="M8.8,44.7h46.3c1.3,0,2.4,1.3,2.4,3v1.2c0,1.7-1.1,3-2.4,3H8.8c-1.3,0-2.4-1.3-2.4-3v-1.2c0-1.7,1.1-3,2.4-3Z"/>
    <path class="st7" d="M12.7,0C7.2,0-.2,6.3-.1,12H-.1l64.2-.2h0C64,7.8,58.8,0,50.8,0H12.7Z"/>
    <path class="st5" d="M9.3,44.6h45.5c1.3,0,2.4,1.4,2.4,3.2v1.3c0,1.8-1.1,3.2-2.4,3.2H9.3c-1.3,0-2.4-1.4-2.4-3.2v-1.3c0-1.8,1.1-3.2,2.4-3.2Z"/>
    <path class="st6" d="M9.3,43.3h45.5c1.3,0,2.4,1.4,2.4,3.2v1.3c0,1.8-1.1,3.2-2.4,3.2H9.3c-1.3,0-2.4-1.4-2.4-3.2v-1.3c0-1.8,1.1-3.2,2.4-3.2Z"/>
    <path class="st1" d="M50.3,48.5c0,5-3.6,9.1-8,9.1s-8-4.1-8-9.1,3.6-9.1,8-9.1,8,4.1,8,9.1Z"/>
    <path class="st0" d="M50.3,47.2c0,5-3.6,9.1-8,9.1s-8-4.1-8-9.1,3.6-9.1,8-9.1,8,4.1,8,9.1Z"/>
    <ellipse class="st5" cx="10.3" cy="20" rx="3.4" ry="3.9"/>
    <ellipse class="st6" cx="10.3" cy="18.7" rx="3.4" ry="3.9"/>
    <path class="st4" d="M21.7,29.1h4.7c.6,0,1.1.6,1.1,1.3v5.1c0,.7-.5,1.3-1.1,1.3h-4.7c-.6,0-1.1-.6-1.1-1.3v-5.1c0-.7.5-1.3,1.1-1.3Z"/>
    <path class="st2" d="M21.7,27.8h4.7c.6,0,1.1.6,1.1,1.3v5.1c0,.7-.5,1.3-1.1,1.3h-4.7c-.6,0-1.1-.6-1.1-1.3v-5.1c0-.7.5-1.3,1.1-1.3Z"/>
    <ellipse class="st4" cx="10.3" cy="33" rx="3.4" ry="3.9"/>
    <ellipse class="st2" cx="10.3" cy="31.7" rx="3.4" ry="3.9"/>
    <path class="st5" d="M21.7,16.1h4.7c.6,0,1.1.6,1.1,1.3v5.1c0,.7-.5,1.3-1.1,1.3h-4.7c-.6,0-1.1-.6-1.1-1.3v-5.1c0-.7.5-1.3,1.1-1.3Z"/>
    <path class="st6" d="M21.7,14.8h4.7c.6,0,1.1.6,1.1,1.3v5.1c0,.7-.5,1.3-1.1,1.3h-4.7c-.6,0-1.1-.6-1.1-1.3v-5.1c0-.7.5-1.3,1.1-1.3Z"/>
    <path class="st3" d="M3.2-.7C1.4-.7,0,.9,0,2.9v1.3C0,2.2,1.4.6,3.2.6h57.6c1.8,0,3.2,1.6,3.2,3.6v-1.3c0-2-1.4-3.6-3.2-3.6H3.2Z"/>
  </g>
</svg>