<?xml version="1.0" encoding="UTF-8" standalone="no"?>
<svg
   id="_图层_1"
   version="1.1"
   viewBox="0 0 64 64" width="16" height="16"
   sodipodi:docname="au.edu.uq.esys.escript.svg"
   xml:space="preserve"
   inkscape:version="1.4 (e7c3feb100, 2024-10-09)"
   xmlns:inkscape="http://www.inkscape.org/namespaces/inkscape"
   xmlns:sodipodi="http://sodipodi.sourceforge.net/DTD/sodipodi-0.dtd"
   xmlns="http://www.w3.org/2000/svg"
   xmlns:svg="http://www.w3.org/2000/svg"><sodipodi:namedview
     id="namedview26"
     pagecolor="#505050"
     bordercolor="#eeeeee"
     borderopacity="1"
     inkscape:showpageshadow="0"
     inkscape:pageopacity="0"
     inkscape:pagecheckerboard="0"
     inkscape:deskcolor="#505050"
     inkscape:zoom="10.6875"
     inkscape:cx="32"
     inkscape:cy="32"
     inkscape:window-width="1920"
     inkscape:window-height="939"
     inkscape:window-x="0"
     inkscape:window-y="34"
     inkscape:window-maximized="1"
     inkscape:current-layer="_图层_1" /><!-- Generator: Adobe Illustrator 29.0.1, SVG Export Plug-In . SVG Version: 2.1.0 Build 192)  --><defs
     id="defs6"><style
       id="style1">
      .st0 {
        fill-opacity: .5;
      }

      .st0, .st1, .st2, .st3, .st4, .st5, .st6, .st7 {
        fill: #fff;
      }

      .st8 {
        fill: #133c9a;
      }

      .st2, .st9 {
        display: none;
      }

      .st3 {
        fill-opacity: .2;
      }

      .st4 {
        fill-opacity: .9;
      }

      .st10 {
        fill: #3370ff;
      }

      .st11 {
        fill: url(#_未命名的渐变_3);
      }

      .st12 {
        fill: url(#_未命名的渐变);
      }

      .st5 {
        fill-opacity: .3;
      }

      .st6 {
        fill-opacity: 0;
      }

      .st7 {
        fill-opacity: .7;
      }

      .st13 {
        fill: #00d6b9;
      }

      .st14 {
        fill: url(#_未命名的渐变_2);
      }
    </style><radialGradient
       id="_未命名的渐变"
       data-name="未命名的渐变"
       cx="123.9"
       cy="-40.2"
       fx="123.9"
       fy="-40.2"
       r="59.4"
       gradientTransform="translate(-26.8 25.5) scale(.6 -.7)"
       gradientUnits="userSpaceOnUse"><stop
         offset="0"
         stop-color="#db202e"
         id="stop1" /><stop
         offset="1"
         stop-color="#e01b24"
         id="stop2" /></radialGradient><radialGradient
       id="_未命名的渐变_2"
       data-name="未命名的渐变 2"
       cx="67.6"
       cy="26.8"
       fx="67.6"
       fy="26.8"
       r="105.2"
       gradientTransform="translate(-26.6 25.3) scale(.6 -.7)"
       gradientUnits="userSpaceOnUse"><stop
         offset="0"
         stop-color="#ffb648"
         id="stop3" /><stop
         offset="1"
         stop-color="#ff7800"
         stop-opacity="0"
         id="stop4" /></radialGradient><radialGradient
       id="_未命名的渐变_3"
       data-name="未命名的渐变 3"
       cx="61.7"
       cy="18.6"
       fx="61.7"
       fy="18.6"
       r="68"
       gradientTransform="translate(-26.8 25.8) scale(.6 -.7)"
       gradientUnits="userSpaceOnUse"><stop
         offset="0"
         stop-color="#c64600"
         id="stop5" /><stop
         offset="1"
         stop-color="#a51d2d"
         id="stop6" /></radialGradient></defs><path
     class="st1"
     d="M47.5,64.1H13.8c-7.6,0-13.8-6.3-13.8-13.8V13.7C0,6.2,6.2,0,13.7,0h36.6c7.5,0,13.7,6.2,13.7,13.7v36.6c0,7.5-6.2,13.7-13.7,13.7h-2.9.1Z"
     id="path6"
     style="fill:#6999d1;fill-opacity:1" /><g
     id="g26"
     transform="matrix(1.1470343,0,0,1.1395301,-4.7050961,-4.5025648)"><path
       style="opacity:0.1"
       d="m 27.332032,15 -4.234376,0.121094 -4.414062,0.300781 -2.710938,3.671875 -1.707031,4.335938 -1.925781,10.039062 3.875,6.648438 -1.566406,7.933594 8.328124,1.683594 9.35547,-1.5625 L 39.214844,51 46.945312,47.414062 51.660156,41.214844 48.992188,35.585938 45.5,40.207032 l 4.332032,-5.78125 -1.984376,-9.88672 -2.410156,-7.070312 -6.824218,2.496094 -3.66797,0.226562 z m 14.433592,6.996094 -7.003906,1.21875 3.671876,-0.644532 z"
       id="path2" /><g
       transform="matrix(0.20649866,0,0,0.20649866,6.0654474,52.50887)"
       id="g61"><path
         style="fill:#006fef"
         d="m 51.475308,-125.33376 44.71207,13.91628 -33.049157,28.57414 z"
         id="path3" /><path
         style="fill:#005bc3"
         d="m 96.187378,-111.41748 35.381742,24.12132 -25.17669,4.66518 z"
         id="path4" /><path
         style="fill:#005bc3"
         d="m 131.56912,-87.29616 25.46826,15.95729 -28.09242,13.70393 z"
         id="path5" /><path
         style="fill:#0050ac"
         d="m 157.03738,-71.33887 33.92387,6.91853 -36.54803,28.86572 z"
         id="path6-6" /><path
         style="fill:#006fef"
         d="m 190.96125,-64.42034 29.84185,4.87752 -22.84411,30.03201 z"
         id="path7" /><path
         style="fill:#006fef"
         d="m 163.16042,-111.78828 18.17893,27.91177 -24.30197,12.53764 z"
         id="path8" /><path
         style="fill:#003776"
         d="m 146.24921,-115.49952 49.37722,-16.11572 -32.46601,19.82696 z"
         id="path9" /><path
         style="fill:#006fef"
         d="m 81.317178,-149.82588 29.841842,10.70898 -14.971642,27.69942 z"
         id="path10" /><path
         style="fill:#006fef"
         d="m 111.45061,-169.06969 27.50925,22.37188 -27.80084,7.58091 z"
         id="path11" /><path
         style="fill:#0050ac"
         d="m 138.95986,-146.69781 33.92385,-5.91067 -26.6345,37.10896 z"
         id="path12" /><path
         style="fill:#003d82"
         d="M 63.138221,-82.84334 93.563222,-46.47595 49.142727,-64.84504 Z"
         id="path13" /><path
         style="fill:#003776"
         d="m 93.563222,-46.47595 33.632298,20.62246 -45.29521,7.58089 z"
         id="path14" /><path
         style="fill:#006fef"
         d="M 49.142727,-64.84504 81.90031,-18.2726 41.561834,-26.43664 Z"
         id="path15" /><path
         style="fill:#00234b"
         d="m 39.710967,-145.66465 11.764341,20.33089 -21.094671,28.28256 z"
         id="path16" /><path
         style="fill:#006fef"
         d="m 47.976434,-166.65788 33.340744,16.832 -29.84187,24.49212 z"
         id="path17" /><path
         style="fill:#006fef"
         d="m 82.483469,-185.90169 28.967141,16.832 -30.133432,19.24381 z"
         id="path18" /><path
         style="fill:#153153"
         d="m 102.995,-186.48485 53.75083,36.65895 -45.29522,-19.24379 z"
         id="path19" /><path
         style="fill:#00234b"
         d="m 190.6697,-174.53037 -33.92387,24.70447 16.13788,-2.78258 z"
         id="path20" /><path
         style="fill:#003d82"
         d="m 154.41322,-35.55462 -27.2177,9.70113 33.34072,13.70392 z"
         id="path21" /><path
         style="fill:#003776"
         d="m 154.41322,-35.55462 43.54577,6.04381 -37.42275,17.36124 z"
         id="path22" /><path
         style="fill:#006fef"
         d="m 128.94496,-57.63494 25.46826,22.08032 -27.2177,9.70113 z"
         id="path23" /><path
         style="fill:#0050ac"
         d="m 106.39243,-82.63098 22.55253,24.99604 -35.381738,11.15899 z"
         id="path24" /><path
         style="fill:#0050ac"
         d="m 96.187378,-111.41748 10.205052,28.7865 -43.254209,-0.21236 z"
         id="path25" /><path
         style="fill:#258bff"
         d="m 81.317178,-149.82588 14.8702,38.4084 -44.71207,-13.91628 z"
         id="path26" /><path
         style="fill:#003d82"
         d="M 51.475308,-125.33376 63.138221,-82.84334 30.380637,-97.0512 Z"
         id="path27" /><path
         style="fill:#003776"
         d="m 49.142727,-64.84504 44.420495,18.36909 -31.109574,0.58314 z"
         id="path28" /><path
         style="fill:#258bff"
         d="m 111.15902,-139.1169 27.80084,-7.5809 -11.28262,28.57414 z"
         id="path29" /><path
         style="fill:#003776"
         d="m 127.67724,-118.12366 18.57197,2.62414 -14.68009,28.20336 z"
         id="path30" /><path
         style="fill:#258bff"
         d="m 96.187378,-111.41748 31.489862,-6.70618 3.89188,30.8275 z"
         id="path31" /><path
         style="fill:#0050ac"
         d="m 131.56912,-87.29616 31.5913,-24.49212 -6.12304,40.44941 z"
         id="path32" /><path
         style="fill:#006fef"
         d="m 163.16042,-111.78828 32.46601,-19.82696 7.58088,29.36964 z"
         id="path33" /><path
         style="fill:#00234b"
         d="m 172.88371,-152.60848 29.44891,12.32526 -6.70619,8.66798 z"
         id="path34" /><path
         style="fill:#003d82"
         d="m 82.483469,-185.90169 -1.166291,36.07581 -20.219954,-34.61795 z"
         id="path35" /><path
         style="fill:#153153"
         d="m 181.33935,-83.87651 21.86796,-18.36909 8.74717,9.83426 z"
         id="path36" /><path
         style="fill:#003776"
         d="m 190.96125,-64.42034 16.91122,-22.3719 12.93063,27.24942 z"
         id="path37" /><path
         style="fill:#003776"
         d="m 157.03738,-71.33887 24.30197,-12.53764 9.6219,19.45617 z"
         id="path38" /><path
         style="fill:#003776"
         d="m 172.88371,-152.60848 17.78599,-21.92189 11.66292,34.24715 z"
         id="path39" /><path
         style="fill:#153153"
         d="m 195.62643,-131.61524 6.70619,-8.66798 9.62186,47.87188 z"
         id="path40" /><path
         style="fill:#00234b"
         d="m 195.62643,-131.61524 7.58088,29.36964 8.74717,9.83426 z"
         id="path41" /><path
         style="fill:#003d82"
         d="m 181.33935,-83.87651 30.61513,-8.53483 -20.99323,27.991 z"
         id="path42" /><path
         style="fill:#005bc3"
         d="m 154.41322,-35.55462 36.54803,-28.86572 6.99774,34.90953 z"
         id="path43" /><path
         style="fill:#003d82"
         d="M 62.453648,-45.89281 93.563222,-46.47595 81.90031,-18.2726 Z"
         id="path44" /><path
         style="fill:#003776"
         d="m 30.380637,-97.0512 32.757584,14.20786 -13.995494,17.9983 z"
         id="path45" /><path
         style="fill:#005bc3"
         d="m 63.138221,-82.84334 43.254209,0.21236 -12.829208,36.15503 z"
         id="path46" /><path
         style="fill:#0050ac"
         d="m 106.39243,-82.63098 25.17669,-4.66518 -2.62416,29.66122 z"
         id="path47" /><path
         style="fill:#003d82"
         d="m 146.24921,-115.49952 16.91121,3.71124 -31.5913,24.49212 z"
         id="path48" /><path
         style="fill:#003d82"
         d="m 138.95986,-146.69781 7.28935,31.19829 -18.57197,-2.62414 z"
         id="path49" /><path
         style="fill:#153153"
         d="m 157.62052,-162.44274 33.04918,-12.08763 -33.92387,24.70447 z"
         id="path50" /><path
         style="fill:#00234b"
         d="m 138.56686,-161.27644 19.05366,-1.1663 -0.87469,12.61684 z"
         id="path51" /><path
         style="fill:#003776"
         d="m 111.45061,-169.06969 45.29522,19.24379 -17.78597,3.12809 z"
         id="path52" /><path
         style="fill:#258bff"
         d="m 81.317178,-149.82588 30.133432,-19.24381 -0.29159,29.95279 z"
         id="path53" /><path
         style="fill:#006fef"
         d="m 96.187378,-111.41748 14.971642,-27.69942 16.51822,20.99324 z"
         id="path54" /><path
         style="fill:#003776"
         d="m 47.976434,-166.65788 13.12079,-17.78595 20.219954,34.61795 z"
         id="path55" /><path
         style="fill:#153153"
         d="m 39.710967,-145.66465 8.265467,-20.99323 3.498874,41.32412 z"
         id="path56" /><path
         style="fill:#00234b"
         d="m 82.483469,-185.90169 20.511531,-0.58316 8.45561,17.41516 z"
         id="path57" /><path
         style="fill:#005bc3"
         d="m 146.24921,-115.49952 26.6345,-37.10896 22.74272,20.99324 z"
         id="path58" /><path
         style="fill:#258bff"
         d="m 181.33935,-83.87651 -18.17893,-27.91177 40.04689,9.54268 z"
         id="path59" /><path
         style="fill:#258bff"
         d="m 154.41322,-35.55462 -25.46826,-22.08032 28.09242,-13.70393 z"
         id="path60" /><path
         style="fill:#258bff"
         d="M 127.19552,-25.85349 93.563222,-46.47595 128.94496,-57.63494 Z"
         id="path61" /></g></g></svg>
