<?xml version="1.0" encoding="UTF-8" standalone="no"?>
<svg
   id="_图层_1"
   version="1.1"
   viewBox="0 0 64 64" width="16" height="16"
   sodipodi:docname="baiji-manga-viewer.svg"
   xml:space="preserve"
   inkscape:version="1.4 (e7c3feb100, 2024-10-09)"
   xmlns:inkscape="http://www.inkscape.org/namespaces/inkscape"
   xmlns:sodipodi="http://sodipodi.sourceforge.net/DTD/sodipodi-0.dtd"
   xmlns="http://www.w3.org/2000/svg"
   xmlns:svg="http://www.w3.org/2000/svg"><sodipodi:namedview
     id="namedview26"
     pagecolor="#505050"
     bordercolor="#eeeeee"
     borderopacity="1"
     inkscape:showpageshadow="0"
     inkscape:pageopacity="0"
     inkscape:pagecheckerboard="0"
     inkscape:deskcolor="#505050"
     inkscape:zoom="10.6875"
     inkscape:cx="32"
     inkscape:cy="19.368421"
     inkscape:window-width="1920"
     inkscape:window-height="939"
     inkscape:window-x="0"
     inkscape:window-y="34"
     inkscape:window-maximized="1"
     inkscape:current-layer="_图层_1" /><!-- Generator: Adobe Illustrator 29.0.1, SVG Export Plug-In . SVG Version: 2.1.0 Build 192)  --><defs
     id="defs6"><inkscape:path-effect
       effect="fillet_chamfer"
       id="path-effect26"
       is_visible="true"
       lpeversion="1"
       nodesatellites_param="F,0,0,1,0,0,0,1 @ F,0,0,1,0,0,0,1 @ F,0,1,1,0,0,0,1 @ F,0,0,1,0,0,0,1 | F,0,0,1,0,0,0,1 @ F,0,0,1,0,0,0,1 @ F,0,0,1,0,0,0,1 @ F,0,0,1,0,0,0,1"
       radius="0"
       unit="px"
       method="auto"
       mode="F"
       chamfer_steps="1"
       flexible="false"
       use_knot_distance="true"
       apply_no_radius="true"
       apply_with_radius="true"
       only_selected="false"
       hide_knots="false" /><style
       id="style1">
      .st0 {
        fill-opacity: .5;
      }

      .st0, .st1, .st2, .st3, .st4, .st5, .st6, .st7 {
        fill: #fff;
      }

      .st8 {
        fill: #133c9a;
      }

      .st2, .st9 {
        display: none;
      }

      .st3 {
        fill-opacity: .2;
      }

      .st4 {
        fill-opacity: .9;
      }

      .st10 {
        fill: #3370ff;
      }

      .st11 {
        fill: url(#_未命名的渐变_3);
      }

      .st12 {
        fill: url(#_未命名的渐变);
      }

      .st5 {
        fill-opacity: .3;
      }

      .st6 {
        fill-opacity: 0;
      }

      .st7 {
        fill-opacity: .7;
      }

      .st13 {
        fill: #00d6b9;
      }

      .st14 {
        fill: url(#_未命名的渐变_2);
      }
    </style><radialGradient
       id="_未命名的渐变"
       data-name="未命名的渐变"
       cx="123.9"
       cy="-40.2"
       fx="123.9"
       fy="-40.2"
       r="59.4"
       gradientTransform="translate(-26.8 25.5) scale(.6 -.7)"
       gradientUnits="userSpaceOnUse"><stop
         offset="0"
         stop-color="#db202e"
         id="stop1" /><stop
         offset="1"
         stop-color="#e01b24"
         id="stop2" /></radialGradient><radialGradient
       id="_未命名的渐变_2"
       data-name="未命名的渐变 2"
       cx="67.6"
       cy="26.8"
       fx="67.6"
       fy="26.8"
       r="105.2"
       gradientTransform="translate(-26.6 25.3) scale(.6 -.7)"
       gradientUnits="userSpaceOnUse"><stop
         offset="0"
         stop-color="#ffb648"
         id="stop3" /><stop
         offset="1"
         stop-color="#ff7800"
         stop-opacity="0"
         id="stop4" /></radialGradient><radialGradient
       id="_未命名的渐变_3"
       data-name="未命名的渐变 3"
       cx="61.7"
       cy="18.6"
       fx="61.7"
       fy="18.6"
       r="68"
       gradientTransform="translate(-26.8 25.8) scale(.6 -.7)"
       gradientUnits="userSpaceOnUse"><stop
         offset="0"
         stop-color="#c64600"
         id="stop5" /><stop
         offset="1"
         stop-color="#a51d2d"
         id="stop6" /></radialGradient></defs><path
     class="st1"
     d="M47.5,64.1H13.8c-7.6,0-13.8-6.3-13.8-13.8V13.7C0,6.2,6.2,0,13.7,0h36.6c7.5,0,13.7,6.2,13.7,13.7v36.6c0,7.5-6.2,13.7-13.7,13.7h-2.9.1Z"
     id="path6"
     style="fill:#00a2a4;fill-opacity:1" /><g
     id="g26"
     transform="matrix(1.2318687,0,0,1.2035125,-7.5726101,-4.957325)"><path
       style="opacity:0.2"
       d="M 32,5 A 28,28 0 0 0 6.103516,22.388672 C 11.36051,23.933251 20.146318,25.558856 33,25 33,25 48.848082,24.9912 58.173828,23.082031 A 28,28 0 0 0 32,5 Z"
       id="path2" /><path
       style="fill:#69d3d3"
       d="M 32,4 C 28.036455,3.9733872 21.570362,4.1123469 17.102392,4.1925787 11.546587,4.2923449 6.2728687,8.9479762 6.2945666,14.768885 6.3027417,16.962036 6.1663013,19.482551 6.103516,21.388672 11.36051,22.933251 20.146318,24.558856 33,24 33,24 48.848082,23.9912 58.173828,22.082031 58.056055,18.574928 58.086245,18.264517 57.980406,14.5504 57.827439,9.1824394 53.018943,4.4780795 48.064076,4.3057389 43.325069,4.1409063 34.779284,4.0186612 32,4 Z"
       id="path3"
       sodipodi:nodetypes="ssscccsss" /><path
       style="opacity:0.2"
       d="m 29,16 c -5,0 -7,3 -7,3 l -3,-1 c 0,0 -4,-2 -4,1 0,1 3,5 9,10 1.846574,1.538812 6,4 6,4 1,1 1,1 1,4 0,3 -4,3 -4,3 l -2,-1 c 0,0 2,-2 2,-5 0,-3 -3,-4 -3,-4 l -5,4 v 1 l -1,-1 -6,1 c 0,0 -1,3 1,6 2,3 7,1 7,1 0,0 2,6 10,6 13,0 14,-12 14,-12 v -3 c 0,0 8,-2 8,-4 0,0 -3,-6 -11,-6 -4,-5 -6,-7 -12,-7 z m -0.5,5 A 1.5,1.5 0 0 1 30,22.5 1.5,1.5 0 0 1 28.5,24 1.5,1.5 0 0 1 27,22.5 1.5,1.5 0 0 1 28.5,21 Z"
       id="path5" /><path
       style="fill:#ffffff"
       d="m 29,15 c -5,0 -7,3 -7,3 l -3,-1 c 0,0 -4,-2 -4,1 0,1 3,5 9,10 1.846574,1.538812 6,4 6,4 1,1 1,1 1,4 0,3 -4,3 -4,3 l -2,-1 c 0,0 2,-2 2,-5 0,-3 -3,-4 -3,-4 l -5,4 v 1 l -1,-1 -6,1 c 0,0 -1,3 1,6 2,3 7,1 7,1 0,0 2,6 10,6 13,0 14,-12 14,-12 v -3 c 0,0 8,-2 8,-4 0,0 -3,-6 -11,-6 -4,-5 -6,-7 -12,-7 z m -0.5,5 A 1.5,1.5 0 0 1 30,21.5 1.5,1.5 0 0 1 28.5,23 1.5,1.5 0 0 1 27,21.5 1.5,1.5 0 0 1 28.5,20 Z"
       id="path6-2" /></g></svg>
