<?xml version="1.0" encoding="UTF-8"?>
<svg id="_图层_1" xmlns="http://www.w3.org/2000/svg" version="1.1" viewBox="0 0 64 64" width="16" height="16">
  <!-- Generator: Adobe Illustrator 29.0.1, SVG Export Plug-In . SVG Version: 2.1.0 Build 192)  -->
  <defs>
    <style>
      .st0, .st1 {
        fill: #4f4f4f;
      }

      .st2, .st3, .st4, .st5, .st6 {
        isolation: isolate;
      }

      .st2, .st3, .st1 {
        display: none;
      }

      .st2, .st4, .st5 {
        opacity: .2;
      }

      .st3, .st5, .st6 {
        fill: #fff;
      }

      .st3, .st6 {
        opacity: .1;
      }

      .st7 {
        fill: #eddc54;
      }

      .st8 {
        fill: #ef5555;
      }

      .st9 {
        fill: #21cb43;
      }

      .st10 {
        fill: #76ed54;
      }
    </style>
  </defs>
  <path class="st0" d="M50.4,64H13.8c-7.6,0-13.8-6.2-13.8-13.7V13.7C0,6.2,6.2,0,13.7,0h36.6c7.5,0,13.7,6.2,13.7,13.7v36.6c0,7.5-6.2,13.7-13.7,13.7h.1Z"/>
  <g>
    <path class="st2" d="M3.4,1.1h57.3c1.9,0,3.4,1.5,3.4,3.3v54.6c0,1.8-1.5,3.3-3.4,3.3H3.4c-1.9,0-3.4-1.5-3.4-3.3V4.4C0,2.6,1.5,1.1,3.4,1.1Z"/>
    <path class="st1" d="M3.4,0h57.3c1.9,0,3.4,1.5,3.4,3.3v54.6c0,1.8-1.5,3.3-3.4,3.3H3.4c-1.9,0-3.4-1.5-3.4-3.3V3.3C0,1.5,1.5,0,3.4,0Z"/>
    <path class="st3" d="M3.4,0C1.5,0,0,1.5,0,3.3v1.1C0,2.6,1.5,1.1,3.4,1.1h57.3c1.9,0,3.4,1.5,3.4,3.3v-1.1c0-1.8-1.5-3.3-3.4-3.3H3.4Z"/>
    <path class="st10" d="M8.5,52.4c-.9,0-1.6.7-1.6,1.6v5.6c0,.9.7,1.6,1.6,1.6h9.3c.9,0,1.6-.7,1.6-1.6,0,.9.7,1.6,1.6,1.6h9.3c.9,0,1.6-.7,1.6-1.6,0,.9.7,1.6,1.6,1.6h9.3c.9,0,1.6-.7,1.6-1.6,0,.9.7,1.6,1.6,1.6h9.3c.9,0,1.6-.7,1.6-1.6v-5.6c0-.9-.7-1.6-1.6-1.6h-9.3c-.9,0-1.6.7-1.6,1.6,0-.9-.7-1.6-1.6-1.6h-9.3c-.9,0-1.6.7-1.6,1.6,0-.9-.7-1.6-1.6-1.6h-9.3c-.9,0-1.6.7-1.6,1.6,0-.9-.7-1.6-1.6-1.6h-9.3Z"/>
    <path class="st4" d="M8.5,44.7c-.9,0-1.6.7-1.6,1.6v5.6c0,.9.7,1.6,1.6,1.6h9.3c.9,0,1.6-.7,1.6-1.6,0,.9.7,1.6,1.6,1.6h9.3c.9,0,1.6-.7,1.6-1.6,0,.9.7,1.6,1.6,1.6h9.3c.9,0,1.6-.7,1.6-1.6,0,.9.7,1.6,1.6,1.6h9.3c.9,0,1.6-.7,1.6-1.6v-5.6c0-.9-.7-1.6-1.6-1.6h-9.3c-.9,0-1.6.7-1.6,1.6,0-.9-.7-1.6-1.6-1.6h-9.3c-.9,0-1.6.7-1.6,1.6,0-.9-.7-1.6-1.6-1.6h-9.3c-.9,0-1.6.7-1.6,1.6,0-.9-.7-1.6-1.6-1.6h-9.3Z"/>
    <path class="st10" d="M8.5,43.6c-.9,0-1.6.7-1.6,1.6v5.6c0,.9.7,1.6,1.6,1.6h9.3c.9,0,1.6-.7,1.6-1.6,0,.9.7,1.6,1.6,1.6h9.3c.9,0,1.6-.7,1.6-1.6,0,.9.7,1.6,1.6,1.6h9.3c.9,0,1.6-.7,1.6-1.6,0,.9.7,1.6,1.6,1.6h9.3c.9,0,1.6-.7,1.6-1.6v-5.6c0-.9-.7-1.6-1.6-1.6h-9.3c-.9,0-1.6.7-1.6,1.6,0-.9-.7-1.6-1.6-1.6h-9.3c-.9,0-1.6.7-1.6,1.6,0-.9-.7-1.6-1.6-1.6h-9.3c-.9,0-1.6.7-1.6,1.6,0-.9-.7-1.6-1.6-1.6h-9.3Z"/>
    <path class="st4" d="M8.5,36c-.9,0-1.6.7-1.6,1.6v5.6c0,.9.7,1.6,1.6,1.6h9.3c.9,0,1.6-.7,1.6-1.6v-5.6c0-.9-.7-1.6-1.6-1.6h-9.3ZM33.7,36c-.9,0-1.6.7-1.6,1.6v5.6c0,.9.7,1.6,1.6,1.6h9.3c.9,0,1.6-.7,1.6-1.6,0,.9.7,1.6,1.6,1.6h9.3c.9,0,1.6-.7,1.6-1.6v-5.6c0-.9-.7-1.6-1.6-1.6h-9.3c-.9,0-1.6.7-1.6,1.6,0-.9-.7-1.6-1.6-1.6h-9.3Z"/>
    <path class="st10" d="M8.5,34.9c-.9,0-1.6.7-1.6,1.6v5.6c0,.9.7,1.6,1.6,1.6h9.3c.9,0,1.6-.7,1.6-1.6v-5.6c0-.9-.7-1.6-1.6-1.6h-9.3ZM33.7,34.9c-.9,0-1.6.7-1.6,1.6v5.6c0,.9.7,1.6,1.6,1.6h9.3c.9,0,1.6-.7,1.6-1.6,0,.9.7,1.6,1.6,1.6h9.3c.9,0,1.6-.7,1.6-1.6v-5.6c0-.9-.7-1.6-1.6-1.6h-9.3c-.9,0-1.6.7-1.6,1.6,0-.9-.7-1.6-1.6-1.6h-9.3Z"/>
    <path class="st4" d="M8.5,27.3c-.9,0-1.6.7-1.6,1.6v5.6c0,.9.7,1.6,1.6,1.6h9.3c.9,0,1.6-.7,1.6-1.6v-.6s2.8,1.1,4.4,1.1c4.8,0,4.8-7.6,4.8-7.6,0,0-2.6,1.1-4.8,1.1-3.2,0-4.4,1.6-4.4,1.6v-1.2c0-.9-.7-1.6-1.6-1.6h-9.3ZM43.1,27.3c-3.2,0-11,.9-11,3.6v3.6s0,1.5,1.6,1.5h9.5c1.6,0,1.6-1.5,1.6-1.5h0c0,.8.7,1.5,1.6,1.5h9.3c.9,0,1.6-.7,1.6-1.6v-5.6c0-.9-.7-1.6-1.6-1.6h-9.3c-.9,0-1.6.7-1.6,1.6h0c0,0,0-1.6-1.6-1.6Z"/>
    <path class="st9" d="M17.2,30.6l2.3,2.2s2.7,1.1,4.4,1.1c4.8,0,4.8-7.6,4.8-7.6,0,0-2.6,1.1-4.8,1.1-3.2,0-4.4,1.6-4.4,1.6l-2.3,1.6Z"/>
    <path class="st10" d="M33.6,34.9c-1.6,0-1.6-1.5-1.6-1.5v-3.6c0-2.8,7.9-3.6,11-3.6s1.6,1.5,1.6,1.5v5.8s0,1.5-1.6,1.5h-9.5Z"/>
    <path class="st9" d="M37.9,27.7c2.8-.6,5.3-.5,5.6.2s-1.8,1.7-4.7,2.3-5.3.5-5.6-.2,1.8-1.7,4.7-2.3Z"/>
    <path class="st6" d="M28.6,26.2s-2.6,1.1-4.8,1.1c-3.2,0-4.4,1.6-4.4,1.6l-2.3,1.6.7.6,1.6-1.2s1.1-1.6,4.4-1.6,4.5-1,4.7-1.1c0-.6,0-1.1,0-1.1Z"/>
    <path class="st10" d="M8.5,26.2h9.3c.9,0,1.6.7,1.6,1.6v5.6c0,.9-.7,1.6-1.6,1.6h-9.3c-.9,0-1.6-.7-1.6-1.6v-5.6c0-.9.7-1.6,1.6-1.6Z"/>
    <path class="st4" d="M8.5,18.5h9.3c.9,0,1.6.7,1.6,1.6v5.6c0,.9-.7,1.6-1.6,1.6h-9.3c-.9,0-1.6-.7-1.6-1.6v-5.6c0-.9.7-1.6,1.6-1.6Z"/>
    <path class="st10" d="M46.3,26.2h9.3c.9,0,1.6.7,1.6,1.6v5.6c0,.9-.7,1.6-1.6,1.6h-9.3c-.9,0-1.6-.7-1.6-1.6v-5.6c0-.9.7-1.6,1.6-1.6Z"/>
    <path class="st7" d="M8.5,17.5h9.3c.9,0,1.6.7,1.6,1.6v5.6c0,.9-.7,1.6-1.6,1.6h-9.3c-.9,0-1.6-.7-1.6-1.6v-5.6c0-.9.7-1.6,1.6-1.6Z"/>
    <path class="st4" d="M46.3,18.5h9.3c.9,0,1.6.7,1.6,1.6v5.6c0,.9-.7,1.6-1.6,1.6h-9.3c-.9,0-1.6-.7-1.6-1.6v-5.6c0-.9.7-1.6,1.6-1.6Z"/>
    <path class="st7" d="M46.3,17.5h9.3c.9,0,1.6.7,1.6,1.6v5.6c0,.9-.7,1.6-1.6,1.6h-9.3c-.9,0-1.6-.7-1.6-1.6v-5.6c0-.9.7-1.6,1.6-1.6Z"/>
    <path class="st4" d="M46.3,9.8h9.3c.9,0,1.6.7,1.6,1.6v5.6c0,.9-.7,1.6-1.6,1.6h-9.3c-.9,0-1.6-.7-1.6-1.6v-5.6c0-.9.7-1.6,1.6-1.6Z"/>
    <path class="st8" d="M46.3,8.7h9.3c.9,0,1.6.7,1.6,1.6v5.6c0,.9-.7,1.6-1.6,1.6h-9.3c-.9,0-1.6-.7-1.6-1.6v-5.6c0-.9.7-1.6,1.6-1.6Z"/>
    <path class="st5" d="M43.1,26.2c-3.2,0-11,.9-11,3.6v1.1c0-2.8,7.9-3.6,11-3.6s1.6,1.5,1.6,1.5v-1.1s0-1.5-1.6-1.5Z"/>
    <path class="st5" d="M8.5,17.5c-.9,0-1.6.7-1.6,1.6v1.1c0-.9.7-1.6,1.6-1.6h9.3c.9,0,1.6.7,1.6,1.6v-1.1c0-.9-.7-1.6-1.6-1.6h-9.3Z"/>
    <path class="st5" d="M46.3,8.7c-.9,0-1.6.7-1.6,1.6v1.1c0-.9.7-1.6,1.6-1.6h9.3c.9,0,1.6.7,1.6,1.6v-1.1c0-.9-.7-1.6-1.6-1.6h-9.3Z"/>
  </g>
</svg>