<?xml version="1.0" encoding="UTF-8" standalone="no"?>
<svg
   id="_图层_1"
   version="1.1"
   viewBox="0 0 64 64" width="16" height="16"
   sodipodi:docname="call-of-duty-2.svg"
   xml:space="preserve"
   inkscape:version="1.4 (e7c3feb100, 2024-10-09)"
   xmlns:inkscape="http://www.inkscape.org/namespaces/inkscape"
   xmlns:sodipodi="http://sodipodi.sourceforge.net/DTD/sodipodi-0.dtd"
   xmlns="http://www.w3.org/2000/svg"
   xmlns:svg="http://www.w3.org/2000/svg"><sodipodi:namedview
     id="namedview26"
     pagecolor="#505050"
     bordercolor="#eeeeee"
     borderopacity="1"
     inkscape:showpageshadow="0"
     inkscape:pageopacity="0"
     inkscape:pagecheckerboard="0"
     inkscape:deskcolor="#505050"
     inkscape:zoom="10.6875"
     inkscape:cx="32"
     inkscape:cy="29.005848"
     inkscape:window-width="1920"
     inkscape:window-height="939"
     inkscape:window-x="0"
     inkscape:window-y="34"
     inkscape:window-maximized="1"
     inkscape:current-layer="_图层_1" /><!-- Generator: Adobe Illustrator 29.0.1, SVG Export Plug-In . SVG Version: 2.1.0 Build 192)  --><defs
     id="defs6"><style
       id="style1">
      .st0 {
        fill-opacity: .5;
      }

      .st0, .st1, .st2, .st3, .st4, .st5, .st6, .st7 {
        fill: #fff;
      }

      .st8 {
        fill: #133c9a;
      }

      .st2, .st9 {
        display: none;
      }

      .st3 {
        fill-opacity: .2;
      }

      .st4 {
        fill-opacity: .9;
      }

      .st10 {
        fill: #3370ff;
      }

      .st11 {
        fill: url(#_未命名的渐变_3);
      }

      .st12 {
        fill: url(#_未命名的渐变);
      }

      .st5 {
        fill-opacity: .3;
      }

      .st6 {
        fill-opacity: 0;
      }

      .st7 {
        fill-opacity: .7;
      }

      .st13 {
        fill: #00d6b9;
      }

      .st14 {
        fill: url(#_未命名的渐变_2);
      }
    </style><radialGradient
       id="_未命名的渐变"
       data-name="未命名的渐变"
       cx="123.9"
       cy="-40.2"
       fx="123.9"
       fy="-40.2"
       r="59.4"
       gradientTransform="translate(-26.8 25.5) scale(.6 -.7)"
       gradientUnits="userSpaceOnUse"><stop
         offset="0"
         stop-color="#db202e"
         id="stop1" /><stop
         offset="1"
         stop-color="#e01b24"
         id="stop2" /></radialGradient><radialGradient
       id="_未命名的渐变_2"
       data-name="未命名的渐变 2"
       cx="67.6"
       cy="26.8"
       fx="67.6"
       fy="26.8"
       r="105.2"
       gradientTransform="translate(-26.6 25.3) scale(.6 -.7)"
       gradientUnits="userSpaceOnUse"><stop
         offset="0"
         stop-color="#ffb648"
         id="stop3" /><stop
         offset="1"
         stop-color="#ff7800"
         stop-opacity="0"
         id="stop4" /></radialGradient><radialGradient
       id="_未命名的渐变_3"
       data-name="未命名的渐变 3"
       cx="61.7"
       cy="18.6"
       fx="61.7"
       fy="18.6"
       r="68"
       gradientTransform="translate(-26.8 25.8) scale(.6 -.7)"
       gradientUnits="userSpaceOnUse"><stop
         offset="0"
         stop-color="#c64600"
         id="stop5" /><stop
         offset="1"
         stop-color="#a51d2d"
         id="stop6" /></radialGradient></defs><path
     class="st1"
     d="M47.5,64.1H13.8c-7.6,0-13.8-6.3-13.8-13.8V13.7C0,6.2,6.2,0,13.7,0h36.6c7.5,0,13.7,6.2,13.7,13.7v36.6c0,7.5-6.2,13.7-13.7,13.7h-2.9.1Z"
     id="path6"
     style="fill:#e4e4e4;fill-opacity:1" /><g
     id="g26"
     transform="matrix(0.92546367,0,0,0.87312915,1.4079205,1.9957875)"><path
       d="M 32.000031,4.9994421 C 29.385634,5.0368101 27.519562,6.611236 26.644557,9.218197 l 0.03516,-0.117189 -4.10938,11.898451 H 8.71876 c -0.030202,-4.84e-4 -0.059642,-4.84e-4 -0.089844,0 -1.654255,0.05362 -3.1443889,1.02522 -4.1953168,2.304691 -2.2728444,2.608995 -1.7924197,7.31597 1.0937511,9.261728 l 10.8906357,7.95704 -4.226567,13.132826 c -0.0047,0.0146 -0.0073,0.02836 -0.01172,0.04296 -0.645811,2.12152 -0.03851,4.305614 1.585939,5.800788 0.01174,0.011 0.02314,0.02438 0.03516,0.03516 1.952084,1.735374 4.697848,1.95593 6.90235,0.519532 0.04194,-0.02714 0.08068,-0.05664 0.1211,-0.08594 l 11.175786,-7.968752 11.175793,7.968758 c 0.04042,0.02932 0.07916,0.05882 0.1211,0.08594 2.204503,1.436398 4.950264,1.215842 6.90235,-0.519532 0.012,-0.0108 0.02334,-0.02412 0.03516,-0.03516 1.624451,-1.495174 2.231748,-3.679268 1.585937,-5.800788 -0.0044,-0.0146 -0.007,-0.02842 -0.0118,-0.04296 l -4.22657,-13.132826 10.890635,-7.95704 c 2.886171,-1.945758 3.366596,-6.652733 1.093752,-9.261728 -1.050928,-1.279471 -2.541061,-2.25107 -4.195317,-2.304691 -0.0302,-4.84e-4 -0.05964,-4.84e-4 -0.08984,0 H 41.429658 l -4.109381,-11.89845 0.03516,0.117188 C 36.480498,6.611236 34.614426,5.0368101 32.000031,4.9994421 Z"
       style="opacity:0.2"
       id="path1" /><path
       d="M 32,4 C 29.385603,4.037368 27.521489,5.6117895 26.646484,8.21875 L 26.677734,8.1015625 22.570312,20 H 8.71875 C 8.688548,19.999516 8.659108,19.999516 8.628906,20 6.974651,20.05362 5.4825683,21.025216 4.4316404,22.304688 2.158796,24.913682 2.6411727,29.618694 5.5273436,31.564453 L 16.417969,39.525391 12.191406,52.65625 c -0.0047,0.01454 -0.0093,0.02837 -0.01367,0.04297 -0.64581,2.12152 -0.03852,4.30756 1.585938,5.802734 0.01181,0.01104 0.02704,0.0224 0.03906,0.0332 1.952084,1.735374 4.693936,1.955931 6.898438,0.519532 0.04194,-0.02714 0.08458,-0.05664 0.125,-0.08594 L 32,51 43.173828,58.96875 c 0.04042,0.02932 0.08306,0.05882 0.125,0.08594 2.204505,1.436397 4.946352,1.215842 6.898438,-0.519532 0.012,-0.0108 0.02724,-0.02216 0.03906,-0.0332 1.624453,-1.495174 2.231749,-3.681213 1.585938,-5.802734 -0.0044,-0.0146 -0.0089,-0.02843 -0.01367,-0.04297 L 47.582031,39.525391 58.472656,31.564453 c 2.886171,-1.945759 3.368547,-6.65077 1.095703,-9.259765 C 58.517431,21.025216 57.02535,20.05362 55.371094,20 c -0.0302,-4.84e-4 -0.05964,-4.84e-4 -0.08984,0 H 41.429688 L 37.322266,8.1015625 37.353516,8.21875 C 36.478511,5.6117895 34.614396,4.037368 32,4 Z"
       style="fill:#c5b441"
       id="path2" /><path
       d="M 32,4 V 32 L 41.429688,20 37.322266,8.101562 37.353516,8.2187495 C 36.478511,5.611789 34.614396,4.0373675 32,4 Z m 0,28 17.066406,27.306641 c 0.395264,-0.213498 0.779115,-0.45879 1.13086,-0.771485 0.012,-0.0108 0.02724,-0.02216 0.03906,-0.0332 1.624453,-1.495174 2.231749,-3.681214 1.585938,-5.802734 -0.0044,-0.0146 -0.0089,-0.02843 -0.01367,-0.04297 L 47.582031,39.525391 58.472656,31.564453 c 1.401274,-0.944691 2.23119,-2.540608 2.458985,-4.230469 z m 0,0 -17.673828,26.931641 c 1.899853,1.34937 4.358876,1.436702 6.375,0.123047 0.04194,-0.02714 0.08458,-0.05664 0.125,-0.08594 L 32,51 Z m 0,0 -28.607422,-7.892578 c -0.9349886,2.5991 -0.1673815,5.905001 2.1347657,7.457031 l 10.8906253,7.960938 z"
       style="opacity:0.2"
       id="path3" /><path
       d="M 32,4 C 29.385603,4.037368 27.519536,5.611789 26.644531,8.21875 L 26.679688,8.1015625 22.570312,20 H 8.71875 C 8.688548,19.999516 8.659108,19.999516 8.628906,20 6.974651,20.05362 5.4845214,21.025216 4.4335936,22.304688 3.370926,23.524522 2.9178805,25.201361 3.0234373,26.841797 3.1238817,25.538697 3.5868432,24.276671 4.4335936,23.304688 5.4845216,22.025216 6.9746512,21.05362 8.6289062,21 c 0.030202,-4.84e-4 0.059642,-4.84e-4 0.089844,0 H 22.570312 L 26.679688,9.1015625 26.644531,9.21875 C 27.519536,6.611789 29.385603,5.037368 32,5 c 2.614396,0.037368 4.48053,1.611783 5.355469,4.21875 L 37.320312,9.1015625 41.429688,21 H 55.28125 c 0.0302,-4.84e-4 0.05964,-4.84e-4 0.08984,0 1.654256,0.05362 3.144384,1.025216 4.195312,2.304688 0.84675,0.971983 1.309712,2.234009 1.410156,3.537109 C 61.082115,25.201361 60.62907,23.524522 59.566402,22.304688 58.515478,21.025216 57.02535,20.053621 55.371094,20 c -0.0302,-4.84e-4 -0.05964,-4.84e-4 -0.08984,0 H 41.429688 L 37.320312,8.1015625 37.355469,8.21875 C 36.48053,5.611783 34.614396,4.037368 32,4 Z M 16.158203,40.333984 12.191406,52.65625 c -0.0047,0.0146 -0.0073,0.02837 -0.01172,0.04297 -0.225064,0.739345 -0.290036,1.484293 -0.220704,2.207031 0.03394,-0.401754 0.09822,-0.804652 0.220704,-1.207031 0.0044,-0.0146 0.007,-0.02837 0.01172,-0.04297 l 4.226563,-13.132812 z m 31.683594,0 -0.259766,0.189454 4.226563,13.132812 c 0.0048,0.01454 0.0073,0.02837 0.01172,0.04297 0.122489,0.402379 0.186762,0.805277 0.220704,1.207031 0.06933,-0.722738 0.0044,-1.467686 -0.220704,-2.207031 -0.0044,-0.0146 -0.0069,-0.02843 -0.01172,-0.04297 z"
       style="opacity:0.2;fill:#ffffff"
       id="path4" /><circle
       cx="47"
       cy="48"
       r="15"
       style="opacity:0.2"
       id="circle4" /><circle
       cx="47"
       cy="47"
       r="15"
       style="fill:#ca6734"
       id="circle5" /><path
       d="m 47,40 c 0,0 -0.944996,-0.01925 -1.929688,0.498047 -0.948298,0.49778 -1.980944,1.743627 -2.05664,3.501953 h 2.677734 C 45.820332,42.814884 47,42.800781 47,42.800781 c 0,0 1.333984,-0.0016 1.333984,1.398438 0,0.738913 -0.187436,1.152522 -0.542968,1.61914 -0.355534,0.466757 -0.923177,0.935943 -1.589844,1.460938 C 45.534507,47.804294 44.769465,48.384596 44.125,49.230469 43.480533,50.076204 43,51.238539 43,52.599609 V 54 h 8 v -3 h -4.865234 c 0.04173,-0.0616 0.02622,0.04347 0.07422,-0.01953 0.355533,-0.466757 0.923178,-0.933988 1.589844,-1.458985 0.666663,-0.524998 1.431704,-1.107252 2.07617,-1.953126 C 50.519465,46.722624 51,45.560289 51,44.199219 51,42.332611 49.914366,41.014924 48.929688,40.498047 47.944984,39.981031 47,40 47,40 Z"
       style="fill:#ffffff;fill-rule:evenodd"
       id="path5" /></g></svg>
