<?xml version="1.0" encoding="UTF-8"?>
<svg id="_图层_1" xmlns="http://www.w3.org/2000/svg" version="1.1" viewBox="0 0 64 64" width="16" height="16">
  <!-- Generator: Adobe Illustrator 29.0.1, SVG Export Plug-In . SVG Version: 2.1.0 Build 192)  -->
  <defs>
    <style>
      .st0, .st1, .st2, .st3 {
        isolation: isolate;
      }

      .st0, .st1, .st4 {
        display: none;
      }

      .st0, .st2, .st3 {
        opacity: .2;
      }

      .st1 {
        opacity: .1;
      }

      .st1, .st3 {
        fill: #fff;
      }

      .st5 {
        fill: #3fea3f;
      }

      .st6 {
        fill: #bbb;
      }

      .st7, .st4 {
        fill: #5b5a43;
      }

      .st8 {
        fill: #00ffed;
      }
    </style>
  </defs>
  <path class="st7" d="M47.5,64.1H13.8c-7.6,0-13.8-6.3-13.8-13.8V13.7C0,6.2,6.2,0,13.7,0h36.6c7.5,0,13.7,6.2,13.7,13.7v36.6c0,7.5-6.2,13.7-13.7,13.7h-2.9.1Z"/>
  <g>
    <rect class="st0" y="1.1" width="16" height="16" rx="3.2" ry="3.2"/>
    <path class="st4" d="M3.2,0h57.6c1.8,0,3.2,1.4,3.2,3.2v57.6c0,1.8-1.4,3.2-3.2,3.2H3.2c-1.8,0-3.2-1.4-3.2-3.2V3.2C0,1.4,1.4,0,3.2,0Z"/>
    <rect class="st2" x="38.8" y="3.4" width="18.3" height="25.2"/>
    <path class="st2" d="M64,50.4v-18.4H0v18.4c0,7.5,6.1,13.6,13.6,13.6h36.7c7.5,0,13.6-6.1,13.6-13.6Z"/>
    <ellipse class="st2" cx="16" cy="17.2" rx="9.1" ry="9.1"/>
    <ellipse class="st6" cx="16" cy="16" rx="9.1" ry="9.1"/>
    <rect class="st5" x="38.8" y="3.4" width="9.1" height="4.6"/>
    <rect class="st5" x="38.8" y="10.3" width="13.7" height="4.6"/>
    <rect class="st8" x="38.8" y="17.2" width="6.9" height="4.6"/>
    <rect class="st8" x="38.8" y="24" width="16" height="4.6"/>
    <path class="st3" d="M16,6.9c-5,0-9.1,4.1-9.1,9.1,0,.2,0,.3,0,.5.4-4.8,4.3-8.5,9.1-8.5,4.8,0,8.8,3.7,9.1,8.5,0-.2,0-.4,0-.5,0-5.1-4.1-9.1-9.1-9.1Z"/>
    <path class="st1" d="M3.2,0C1.4,0,0,1.4,0,3.2v1.1C0,2.6,1.4,1.1,3.2,1.1h57.6c1.8,0,3.2,1.4,3.2,3.2v-1.1c0-1.8-1.4-3.2-3.2-3.2H3.2Z"/>
    <rect class="st2" y="32" width="64" height="1.1"/>
    <rect class="st2" x="38.8" y="35.4" width="18.3" height="25.2"/>
    <ellipse class="st2" cx="16" cy="49.2" rx="9.1" ry="9.1"/>
    <ellipse class="st6" cx="16" cy="48" rx="9.1" ry="9.1"/>
    <rect class="st5" x="38.8" y="35.4" width="9.1" height="4.6"/>
    <rect class="st5" x="38.8" y="42.3" width="13.7" height="4.6"/>
    <rect class="st8" x="38.8" y="49.2" width="6.9" height="4.6"/>
    <rect class="st8" x="38.8" y="56" width="16" height="4.6"/>
    <path class="st3" d="M16,38.9c-5,0-9.1,4.1-9.1,9.1,0,.2,0,.3,0,.5.4-4.8,4.3-8.5,9.1-8.5,4.8,0,8.8,3.7,9.1,8.5,0-.2,0-.4,0-.5,0-5.1-4.1-9.1-9.1-9.1Z"/>
  </g>
</svg>