<?xml version="1.0" encoding="UTF-8" standalone="no"?>
<svg
   id="_图层_1"
   version="1.1"
   viewBox="0 0 64 64" width="16" height="16"
   sodipodi:docname="cine-encoder.svg"
   xml:space="preserve"
   inkscape:version="1.4 (e7c3feb100, 2024-10-09)"
   xmlns:inkscape="http://www.inkscape.org/namespaces/inkscape"
   xmlns:sodipodi="http://sodipodi.sourceforge.net/DTD/sodipodi-0.dtd"
   xmlns="http://www.w3.org/2000/svg"
   xmlns:svg="http://www.w3.org/2000/svg"><sodipodi:namedview
     id="namedview26"
     pagecolor="#505050"
     bordercolor="#eeeeee"
     borderopacity="1"
     inkscape:showpageshadow="0"
     inkscape:pageopacity="0"
     inkscape:pagecheckerboard="0"
     inkscape:deskcolor="#505050"
     inkscape:zoom="10.6875"
     inkscape:cx="32"
     inkscape:cy="36.491228"
     inkscape:window-width="1920"
     inkscape:window-height="939"
     inkscape:window-x="0"
     inkscape:window-y="34"
     inkscape:window-maximized="1"
     inkscape:current-layer="_图层_1" /><!-- Generator: Adobe Illustrator 29.0.1, SVG Export Plug-In . SVG Version: 2.1.0 Build 192)  --><defs
     id="defs6"><style
       id="style1">
      .st0 {
        fill-opacity: .5;
      }

      .st0, .st1, .st2, .st3, .st4, .st5, .st6, .st7 {
        fill: #fff;
      }

      .st8 {
        fill: #133c9a;
      }

      .st2, .st9 {
        display: none;
      }

      .st3 {
        fill-opacity: .2;
      }

      .st4 {
        fill-opacity: .9;
      }

      .st10 {
        fill: #3370ff;
      }

      .st11 {
        fill: url(#_未命名的渐变_3);
      }

      .st12 {
        fill: url(#_未命名的渐变);
      }

      .st5 {
        fill-opacity: .3;
      }

      .st6 {
        fill-opacity: 0;
      }

      .st7 {
        fill-opacity: .7;
      }

      .st13 {
        fill: #00d6b9;
      }

      .st14 {
        fill: url(#_未命名的渐变_2);
      }
    </style><radialGradient
       id="_未命名的渐变"
       data-name="未命名的渐变"
       cx="123.9"
       cy="-40.2"
       fx="123.9"
       fy="-40.2"
       r="59.4"
       gradientTransform="translate(-26.8 25.5) scale(.6 -.7)"
       gradientUnits="userSpaceOnUse"><stop
         offset="0"
         stop-color="#db202e"
         id="stop1" /><stop
         offset="1"
         stop-color="#e01b24"
         id="stop2" /></radialGradient><radialGradient
       id="_未命名的渐变_2"
       data-name="未命名的渐变 2"
       cx="67.6"
       cy="26.8"
       fx="67.6"
       fy="26.8"
       r="105.2"
       gradientTransform="translate(-26.6 25.3) scale(.6 -.7)"
       gradientUnits="userSpaceOnUse"><stop
         offset="0"
         stop-color="#ffb648"
         id="stop3" /><stop
         offset="1"
         stop-color="#ff7800"
         stop-opacity="0"
         id="stop4" /></radialGradient><radialGradient
       id="_未命名的渐变_3"
       data-name="未命名的渐变 3"
       cx="61.7"
       cy="18.6"
       fx="61.7"
       fy="18.6"
       r="68"
       gradientTransform="translate(-26.8 25.8) scale(.6 -.7)"
       gradientUnits="userSpaceOnUse"><stop
         offset="0"
         stop-color="#c64600"
         id="stop5" /><stop
         offset="1"
         stop-color="#a51d2d"
         id="stop6" /></radialGradient></defs><path
     class="st1"
     d="M47.5,64.1H13.8c-7.6,0-13.8-6.3-13.8-13.8V13.7C0,6.2,6.2,0,13.7,0h36.6c7.5,0,13.7,6.2,13.7,13.7v36.6c0,7.5-6.2,13.7-13.7,13.7h-2.9.1Z"
     id="path6"
     style="fill:#2f3f46;fill-opacity:1" /><g
     id="g26"
     transform="matrix(1.1436755,0,0,1.1559441,-4.5025661,-4.7789832)"><path
       style="opacity:0.2"
       d="m 25.423828,23.000001 c -1.028362,0 -2.058316,0.103657 -3.066406,0.351562 -3.183944,0.711642 -5.713549,3.248633 -6.66211,6.242188 -0.967309,2.984835 -0.890581,5.264636 0.01758,8.253906 0.791233,2.697301 2.993281,5.020273 5.833984,5.714844 3.162758,0.777579 6.587873,0.49764 9.609375,-0.681641 v -2.923828 c -0.01063,-0.481567 0.169118,-1.215959 -0.589844,-0.685547 -2.384889,0.737572 -5.917504,1.41272 -8.361328,0.53711 -1.791875,-0.654454 -2.670093,-2.510868 -2.972656,-4.230469 -0.38549,-2.446848 -0.36599,-4.119303 0.886719,-6.34375 0.846842,-1.587464 3.232664,-2.529001 5.054687,-2.457031 1.765581,-0.0079 3.714264,0.728236 5.296875,1.40625 L 32,24.498048 C 29.948061,23.58732 27.686228,23.000001 25.423828,23.000001 Z m 10.576172,0 v 21 h 13 v -4 h -9 v -5 h 9 v -4 h -9 v -4 h 9 v -4 z"
       id="path2" /><path
       style="fill:#ffffff"
       d="m 25.423828,22 c -1.028362,0 -2.058316,0.103657 -3.066406,0.351562 -3.183944,0.711642 -5.713549,3.248633 -6.66211,6.242188 -0.967309,2.984835 -0.890581,5.264636 0.01758,8.253906 0.791233,2.697301 2.993281,5.020273 5.833984,5.714844 3.162758,0.777579 6.587873,0.49764 9.609375,-0.681641 v -2.923828 c -0.01063,-0.481567 0.169118,-1.215959 -0.589844,-0.685547 -2.384889,0.737572 -5.917504,1.41272 -8.361328,0.53711 -1.791875,-0.654454 -2.670093,-2.510868 -2.972656,-4.230469 -0.38549,-2.446848 -0.36599,-4.119303 0.886719,-6.34375 0.846842,-1.587464 3.232664,-2.529001 5.054687,-2.457031 1.765581,-0.0079 3.714264,0.728236 5.296875,1.40625 L 32,23.498047 C 29.948061,22.587319 27.686228,22 25.423828,22 Z M 36,22 v 21 h 13 v -4 h -9 v -5 h 9 v -4 h -9 v -4 h 9 v -4 z"
       id="path3" /></g></svg>
