<?xml version="1.0" encoding="UTF-8"?>
<svg id="_图层_1" xmlns="http://www.w3.org/2000/svg" version="1.1" viewBox="0 0 64 64" width="16" height="16">
  <!-- Generator: Adobe Illustrator 29.0.1, SVG Export Plug-In . SVG Version: 2.1.0 Build 192)  -->
  <defs>
    <style>
      .st0 {
        fill: #3a99e7;
      }

      .st1 {
        fill: #f9a726;
      }

      .st2, .st3, .st4 {
        fill: #fff;
      }

      .st5 {
        fill: #86572f;
      }

      .st6 {
        fill: #ffc12e;
      }

      .st7 {
        fill: #f8e12e;
      }

      .st8, .st3 {
        opacity: .2;
      }

      .st8, .st3, .st9, .st4 {
        isolation: isolate;
      }

      .st10 {
        fill: #ff9426;
      }

      .st11 {
        fill: #f17623;
      }

      .st12 {
        display: none;
      }

      .st13 {
        fill: #ffbf55;
      }

      .st9 {
        opacity: .6;
      }

      .st4 {
        opacity: .8;
      }
    </style>
  </defs>
  <path class="st2" d="M50.3,64H13.9C6.3,64,.2,57.8.2,50.3V13.8C.2,6.2,6.3,0,13.9,0h36.5c7.5,0,13.7,6.2,13.7,13.7v36.5c0,7.5-6.1,13.7-13.7,13.7h0Z"/>
  <g class="st12">
    <g>
      <path class="st8" d="M32,7.8l-2.3,2.8-2.9-1-1.4,2.6c-5.3,1.1-9,3.7-12.1,7.7-5.4,7.1-5.4,19.4-5.4,26.4s12.6,9.3,24,9.3,24-2.3,24-9.3,0-19.2-5.4-26.4c-3.1-4.1-6.8-6.6-12.1-7.7l-1.4-2.6-2.9,1-2.3-2.8Z"/>
      <path class="st0" d="M32,7l-2.3,2.8-2.9-1-1.4,2.6c-5.3,1.1-9,3.7-12.1,7.7-5.4,7.1-5.4,19.4-5.4,26.4s12.6,9.3,24,9.3,24-2.3,24-9.3,0-19.2-5.4-26.4c-3.1-4.1-6.8-6.6-12.1-7.7l-1.4-2.6-2.9,1-2.3-2.8Z"/>
      <path class="st5" d="M26.3,44.4c1.2,2.1,3.3,3.3,5.7,3.3,2.3,0,4.5-1.3,5.7-3.3h-11.3Z"/>
      <path class="st8" d="M32,37.3c-.3,0-.5.1-.7.3l-5.8,5.5c-.6.7-.3,2.6.6,2.6l5.9,1.1,5.9-1.1c.9,0,1.2-2,.6-2.6l-5.8-5.5c-.2-.2-.4-.3-.7-.3Z"/>
      <path class="st6" d="M32,36.5c-.3,0-.5.1-.7.3l-5.8,5.5c-.6.7-.3,2.6.6,2.6l5.9,1.1,5.9-1.1c.9,0,1.2-2,.6-2.6l-5.8-5.5c-.2-.2-.4-.3-.7-.3Z"/>
      <path class="st9" d="M19.2,27.1c-2.8.7-4.7,3.5-4.3,6.3s3.1,4.5,5.9,3.8c2.8-.7,4.7-3.5,4.3-6.3s-3.1-4.5-5.9-3.8Z"/>
      <path class="st4" d="M20.7,29.1c.4.6,0,1.7-.9,2.5s-1.9.8-2.3.1,0-1.7.9-2.5,1.9-.8,2.3-.1Z"/>
      <path class="st9" d="M44.8,27.1c2.8.7,4.7,3.5,4.3,6.3s-3.1,4.5-5.9,3.8c-2.8-.7-4.7-3.5-4.3-6.3s3.1-4.5,5.9-3.8Z"/>
      <path class="st4" d="M44.7,29.1c.4.6,0,1.7-.9,2.5s-1.9.8-2.3.1,0-1.7.9-2.5,1.9-.8,2.3-.1Z"/>
      <path class="st3" d="M32,7l-2.3,2.8-2.9-1-1.4,2.6c-5.3,1.1-9,3.7-12.1,7.7-5.4,7.1-5.4,19.4-5.4,26.4s0,0,0,0c0-7.1.2-18.7,5.4-25.5,3.1-4.1,6.8-6.6,12.1-7.7l1.4-2.6,2.9,1,2.3-2.8,2.3,2.8,2.9-1,1.4,2.6c5.3,1.1,9,3.7,12.1,7.7,5.2,6.9,5.4,18.5,5.4,25.5,0,0,0,0,0,0,0-6.9,0-19.2-5.4-26.4-3.1-4.1-6.8-6.6-12.1-7.7l-1.4-2.6-2.9,1-2.3-2.8Z"/>
      <path class="st3" d="M32,36.5c-.3,0-.5.1-.7.3l-5.8,5.5c-.3.3-.4.9-.3,1.5,0-.3.1-.5.3-.6l5.8-5.5c.2-.2.4-.3.7-.3.3,0,.5.1.7.3l5.8,5.5c.1.2.2.4.3.6,0-.6,0-1.2-.3-1.5l-5.8-5.5c-.2-.2-.4-.3-.7-.3Z"/>
    </g>
  </g>
  <g class="st12">
    <path class="st8" d="M31,8.9c-13.1,0-23.7,10.5-23.7,23.5s10.6,23.5,23.7,23.5,23.7-10.5,23.7-23.5-10.6-23.5-23.7-23.5Z"/>
    <path class="st10" d="M31,8c-13.1,0-23.7,10.5-23.7,23.5s10.6,23.5,23.7,23.5,23.7-10.5,23.7-23.5-10.6-23.5-23.7-23.5Z"/>
    <ellipse class="st8" cx="31" cy="32.4" rx="20.3" ry="20.1"/>
    <ellipse class="st2" cx="31" cy="31.5" rx="20.3" ry="20.1"/>
    <path class="st7" d="M43,19.6c-1.5-1.5-3.2-2.6-4.2-2.9,0,0,0,0,0,0-.1.3-5.4,12.5-5.4,12.5l12.5-5.3c-.4-1-1.5-2.7-3-4.2ZM31,14.7c-2.1,0-4.1.4-5,.9,0,0,0,0,0,0,.2.3,5.1,12.6,5.1,12.6l5.1-12.6c-1-.5-3-.8-5.1-.8Z"/>
    <path class="st1" d="M19.1,19.6c1.5-1.5,3.2-2.6,4.2-2.9,0,0,0,0,0,0,.1.3,5.4,12.5,5.4,12.5l-12.5-5.3c.4-1,1.5-2.7,3-4.2ZM43,43.3c1.5-1.5,2.6-3.2,2.9-4.1,0,0,0,0,0,0-.3-.1-12.5-5.3-12.5-5.3l5.4,12.5c1-.4,2.7-1.5,4.2-3ZM19.1,43.3c-1.5-1.5-2.6-3.2-2.9-4.1,0,0,0,0,0,0,.3-.1,12.5-5.3,12.5-5.3l-5.4,12.5c-1-.4-2.7-1.5-4.2-3ZM14.1,31.5c0-2.1.4-4,.9-5,0,0,0,0,0,0,.3.2,12.7,5,12.7,5l-12.7,5c-.5-1-.8-3-.8-5.1ZM47.9,31.5c0-2.1-.4-4-.9-5,0,0,0,0,0,0-.3.2-12.7,5-12.7,5l12.7,5c.5-1,.8-3,.8-5.1ZM31,48.3c-2.1,0-4.1-.4-5-.9,0,0,0,0,0,0,.2-.3,5.1-12.6,5.1-12.6l5.1,12.6c-1,.5-3,.8-5.1.8Z"/>
    <path class="st3" d="M31,8c-13.1,0-23.7,10.5-23.7,23.5,0,.1,0,.2,0,.3.3-12.8,10.8-23,23.6-23,12.9,0,23.4,10.3,23.6,23.1,0-.2,0-.3,0-.5,0-13-10.6-23.5-23.7-23.5Z"/>
  </g>
  <g>
    <path class="st8" d="M21.2,8.8c-4.4.2-9.4,5.4-10.9,12.7-.4,1.8-.4,3.3-.4,5,0,.2,0,.3,0,.5.6,14.8,13.2,26.8,28.7,27.3,0,0,.2,0,.2,0,1,0,2.2,0,3.1-.1,11.7-1.1,19.3-10.2,13-15.2-3.6-2.8-10.1-4.9-17-11.4-7.2-6.9-9.3-13.4-12.3-16.8-1.2-1.4-2.8-2-4.4-1.9Z"/>
    <path class="st11" d="M21.2,8c-4.4.2-9.4,5.4-10.9,12.7-.4,1.8-.4,3.3-.4,5,0,.2,0,.3,0,.5.6,14.8,13.2,26.8,28.7,27.3,0,0,.2,0,.2,0,1,0,2.2,0,3.1-.1,11.7-1.1,19.3-10.2,13-15.2-3.6-2.8-10.1-4.9-17-11.4-7.2-6.9-9.3-13.4-12.3-16.8-1.2-1.4-2.8-2-4.4-1.9Z"/>
    <path class="st13" d="M22.4,8c-4.9,4.9-7.5,10.6-7.5,16.9,0,13.2,11.7,23.3,24.5,23.5,6.4,0,11.9-2.2,17.6-7.2-.2-1.2-.9-2.3-2.1-3.3-3.6-2.8-10.1-4.9-17-11.4-7.2-6.9-9.3-13.4-12.3-16.8-.9-1-2-1.6-3.2-1.8Z"/>
    <path class="st8" d="M22.3,9c-4.7,4.4-7.4,10.5-7.4,16.8,0,13,11,23.5,24.5,23.5h0c6.6,0,12.9-2.6,17.5-7.1-1-.2-1.9-.5-2.9-.7-4,3.4-9.2,5.4-14.6,5.4-12.1,0-21.9-9.4-21.9-21.1,0-5.2,2-10.2,5.6-14.1-.3-.9-.6-1.8-.8-2.7Z"/>
    <path class="st2" d="M22.3,8.2c-4.7,4.4-7.4,10.5-7.4,16.8,0,13,11,23.5,24.5,23.5,6.6,0,12.9-2.6,17.5-7.1-1-.2-1.9-.5-2.9-.7-4,3.4-9.2,5.4-14.6,5.4-12.1,0-21.9-9.4-21.9-21.1,0-5.2,2-10.2,5.6-14.1-.3-.9-.6-1.8-.8-2.7Z"/>
    <path class="st3" d="M21.2,8c-4.4.2-9.4,5.4-10.9,12.7-.4,1.8-.4,3.3-.4,5,0,.1,0,.2,0,.3,0-1.5.1-2.8.4-4.5,1.5-7.3,6.5-12.5,10.9-12.7,1.6,0,3.1.5,4.4,1.9,3,3.4,5.1,9.9,12.3,16.8,6.9,6.5,13.4,8.6,17,11.4,1.4,1.1,2.1,2.5,2.2,3.9.1-1.7-.5-3.3-2.2-4.7-3.6-2.8-10.1-4.9-17-11.4-7.2-6.9-9.3-13.4-12.3-16.8-1.2-1.4-2.8-2-4.4-1.9Z"/>
  </g>
</svg>