<?xml version="1.0" encoding="UTF-8"?>
<svg id="_图层_1" xmlns="http://www.w3.org/2000/svg" version="1.1" viewBox="0 0 64 64" width="16" height="16">
  <!-- Generator: Adobe Illustrator 29.0.1, SVG Export Plug-In . SVG Version: 2.1.0 Build 192)  -->
  <defs>
    <style>
      .st0, .st1, .st2, .st3 {
        isolation: isolate;
      }

      .st0, .st2, .st3 {
        opacity: .2;
      }

      .st0, .st3, .st4 {
        display: none;
      }

      .st5 {
        fill: #3f3f3f;
      }

      .st6 {
        fill: #039cf4;
      }

      .st1 {
        opacity: .1;
      }

      .st7 {
        fill: none;
        stroke: #3f3f3f;
        stroke-width: 4px;
      }

      .st3 {
        fill: #fff;
      }

      .st4, .st8 {
        fill: #e4e4e4;
      }
    </style>
  </defs>
  <path class="st8" d="M47.5,64.1H13.8c-7.6,0-13.8-6.3-13.8-13.8V13.7C0,6.2,6.2,0,13.7,0h36.6c7.5,0,13.7,6.2,13.7,13.7v36.6c0,7.5-6.2,13.7-13.7,13.7h-2.9.1Z"/>
  <g>
    <ellipse class="st0" cx="32.1" cy="33.2" rx="32.1" ry="32.1"/>
    <ellipse class="st4" cx="32.1" cy="32.1" rx="32.1" ry="32.1"/>
    <path class="st1" d="M47.4,14.8l-11.2,11.2,3.2,3.2,11.2-11.2-3.2-3.2ZM32.1,28.6c-2.5,0-4.6,2.1-4.6,4.6s2.1,4.6,4.6,4.6,4.6-2.1,4.6-4.6-2.1-4.6-4.6-4.6ZM39.3,37.9l-3.1,3.4,11.2,10.4,3.1-3.4-11.2-10.4Z"/>
    <path class="st6" d="M32.1,8c-13.3,0-24.1,10.8-24.1,24s10.8,24,24.1,24c4.1,0,8.2-1.1,11.8-3.1l-5.3-5c-.4.2-.9.3-1.3.4-1.7.5-3.5.8-5.2.8-9.5,0-17.2-7.7-17.2-17.2s7.7-17.2,17.2-17.2c2.3,0,4.6.5,6.7,1.4l5.1-5.1c-3.6-2.1-7.7-3.1-11.9-3.1Z"/>
    <ellipse class="st5" cx="32.1" cy="32.1" rx="4.6" ry="4.6"/>
    <path class="st7" d="M37.7,26.4l11.2-11.2h0"/>
    <path class="st7" d="M37.7,38.5l11.2,10.4"/>
    <path class="st3" d="M32.1,0C14.4,0,0,14.4,0,32.1c0,.2,0,.4,0,.7C.3,15.2,14.6,1.2,32.1,1.1c17.5,0,31.7,14,32.1,31.4,0-.2,0-.3,0-.5C64.2,14.4,49.9,0,32.1,0Z"/>
    <path class="st2" d="M32.1,8c-13.3,0-24.1,10.8-24.1,24s0,.4,0,.6c.3-13,11-23.5,24.1-23.5,3.9,0,7.7,1,11.1,2.8l.8-.7c-3.6-2.1-7.7-3.1-11.9-3.1ZM14.9,32.7c0,.2,0,.3,0,.5,0,9.5,7.7,17.2,17.2,17.2,1.8,0,3.6-.3,5.2-.8.4-.1.9-.2,1.3-.4l4.5,4.3c.3-.1.5-.3.8-.4l-5.3-5c-.4.2-.9.3-1.3.4-1.7.5-3.5.8-5.2.8-9.2,0-16.8-7.3-17.2-16.5Z"/>
  </g>
</svg>