<?xml version="1.0" encoding="UTF-8" standalone="no"?>
<svg
   id="_图层_1"
   version="1.1"
   viewBox="0 0 64 64" width="16" height="16"
   sodipodi:docname="com.beakerbrowser.Beaker.svg"
   xml:space="preserve"
   inkscape:version="1.4 (e7c3feb100, 2024-10-09)"
   xmlns:inkscape="http://www.inkscape.org/namespaces/inkscape"
   xmlns:sodipodi="http://sodipodi.sourceforge.net/DTD/sodipodi-0.dtd"
   xmlns="http://www.w3.org/2000/svg"
   xmlns:svg="http://www.w3.org/2000/svg"><sodipodi:namedview
     id="namedview26"
     pagecolor="#505050"
     bordercolor="#eeeeee"
     borderopacity="1"
     inkscape:showpageshadow="0"
     inkscape:pageopacity="0"
     inkscape:pagecheckerboard="0"
     inkscape:deskcolor="#505050"
     inkscape:zoom="10.6875"
     inkscape:cx="32"
     inkscape:cy="21.520468"
     inkscape:window-width="1920"
     inkscape:window-height="939"
     inkscape:window-x="0"
     inkscape:window-y="34"
     inkscape:window-maximized="1"
     inkscape:current-layer="_图层_1" /><!-- Generator: Adobe Illustrator 29.0.1, SVG Export Plug-In . SVG Version: 2.1.0 Build 192)  --><defs
     id="defs6"><style
       id="style1">
      .st0 {
        fill-opacity: .5;
      }

      .st0, .st1, .st2, .st3, .st4, .st5, .st6, .st7 {
        fill: #fff;
      }

      .st8 {
        fill: #133c9a;
      }

      .st2, .st9 {
        display: none;
      }

      .st3 {
        fill-opacity: .2;
      }

      .st4 {
        fill-opacity: .9;
      }

      .st10 {
        fill: #3370ff;
      }

      .st11 {
        fill: url(#_未命名的渐变_3);
      }

      .st12 {
        fill: url(#_未命名的渐变);
      }

      .st5 {
        fill-opacity: .3;
      }

      .st6 {
        fill-opacity: 0;
      }

      .st7 {
        fill-opacity: .7;
      }

      .st13 {
        fill: #00d6b9;
      }

      .st14 {
        fill: url(#_未命名的渐变_2);
      }
    </style><radialGradient
       id="_未命名的渐变"
       data-name="未命名的渐变"
       cx="123.9"
       cy="-40.2"
       fx="123.9"
       fy="-40.2"
       r="59.4"
       gradientTransform="translate(-26.8 25.5) scale(.6 -.7)"
       gradientUnits="userSpaceOnUse"><stop
         offset="0"
         stop-color="#db202e"
         id="stop1" /><stop
         offset="1"
         stop-color="#e01b24"
         id="stop2" /></radialGradient><radialGradient
       id="_未命名的渐变_2"
       data-name="未命名的渐变 2"
       cx="67.6"
       cy="26.8"
       fx="67.6"
       fy="26.8"
       r="105.2"
       gradientTransform="translate(-26.6 25.3) scale(.6 -.7)"
       gradientUnits="userSpaceOnUse"><stop
         offset="0"
         stop-color="#ffb648"
         id="stop3" /><stop
         offset="1"
         stop-color="#ff7800"
         stop-opacity="0"
         id="stop4" /></radialGradient><radialGradient
       id="_未命名的渐变_3"
       data-name="未命名的渐变 3"
       cx="61.7"
       cy="18.6"
       fx="61.7"
       fy="18.6"
       r="68"
       gradientTransform="translate(-26.8 25.8) scale(.6 -.7)"
       gradientUnits="userSpaceOnUse"><stop
         offset="0"
         stop-color="#c64600"
         id="stop5" /><stop
         offset="1"
         stop-color="#a51d2d"
         id="stop6" /></radialGradient></defs><path
     class="st1"
     d="M47.5,64.1H13.8c-7.6,0-13.8-6.3-13.8-13.8V13.7C0,6.2,6.2,0,13.7,0h36.6c7.5,0,13.7,6.2,13.7,13.7v36.6c0,7.5-6.2,13.7-13.7,13.7h-2.9.1Z"
     id="path6"
     style="fill:#614eff;fill-opacity:1" /><g
     id="g26"
     transform="matrix(1.1370092,0,0,1.1313225,-4.4778614,-4.3235354)"><path
       style="opacity:0.2"
       d="M 32,15 A 18,18 0 0 0 14,33 18,18 0 0 0 32,51 18,18 0 0 0 50,33 18,18 0 0 0 47.203124,23.40625 c -0.0126,-0.08246 -0.0178,-0.0964 -0.03124,-0.1875 -0.08148,-0.548702 -0.09942,-1.029828 -0.08594,-2.222656 0.0094,-0.837866 0.02374,-1.78317 0.02734,-2.101563 0.0058,-0.514719 -0.013,-0.612374 -0.15626,-0.886719 -0.09534,-0.182498 -0.236294,-0.365294 -0.402344,-0.523437 -0.1882,-0.220486 -0.411786,-0.324084 -0.63672,-0.382813 -0.72458,-0.19312 -1.518202,-0.03377 -2.171874,0.03125 -1.021414,0.09683 -2.080884,0.182922 -2.878906,0.226563 A 18,18 0 0 0 32,15 Z m 0,6 A 12,12 0 0 1 44,33 12,12 0 0 1 32,45 12,12 0 0 1 20,33 12,12 0 0 1 32,21 Z"
       id="path2" /><path
       style="fill:#ffffff"
       d="M 32,14 A 18,18 0 0 0 14,32 18,18 0 0 0 32,50 18,18 0 0 0 50,32 18,18 0 0 0 32,14 Z m 0,6 A 12,12 0 0 1 44,32 12,12 0 0 1 32,44 12,12 0 0 1 20,32 12,12 0 0 1 32,20 Z"
       id="path3" /><path
       style="fill:#ffffff"
       d="m 37.14,15.437652 c 2.388852,0.946075 3.35697,4.714592 5.271036,6.498864 2.605184,2.428522 5.854602,3.175874 6.560936,6.600896 -0.06836,-0.361916 -0.14092,-0.772494 -0.1839,-0.954626 -0.19612,-0.831044 -0.69403,-2.280334 -1.014122,-2.95042 -0.305902,-0.640382 -0.380142,-0.929162 -0.600362,-2.412262 -0.08148,-0.548702 -0.10002,-1.030128 -0.08654,-2.222956 0.0094,-0.837867 0.02074,-1.785572 0.02434,-2.103966 0.0058,-0.51472 -0.0108,-0.612674 -0.15414,-0.887019 -0.09534,-0.182498 -0.235136,-0.361814 -0.401186,-0.519957 -0.1882,-0.220486 -0.412982,-0.32512 -0.637916,-0.383848 -0.72458,-0.19312 -1.517994,-0.03356 -2.171666,0.03146 -1.069948,0.101436 -2.210712,0.195868 -3.017158,0.236827 H 39.55294 L 39.039118,16.121848 C 38.49193,15.857189 37.679708,15.636335 37.14,15.437652 Z m 11.86172,13.24309 c 0.0804,0.4266 0.14534,0.855964 0.19472,1.287258 -0.02492,-0.276438 -0.05476,-0.520614 -0.119,-0.892426 -0.02448,-0.14178 -0.04778,-0.243756 -0.07572,-0.394832 z"
       id="path4" /></g></svg>
