<?xml version="1.0" encoding="UTF-8" standalone="no"?>
<svg
   id="_图层_1"
   version="1.1"
   viewBox="0 0 64 64" width="16" height="16"
   sodipodi:docname="com.github.artemanufrij.regextester.svg"
   xml:space="preserve"
   inkscape:version="1.4 (e7c3feb100, 2024-10-09)"
   xmlns:inkscape="http://www.inkscape.org/namespaces/inkscape"
   xmlns:sodipodi="http://sodipodi.sourceforge.net/DTD/sodipodi-0.dtd"
   xmlns="http://www.w3.org/2000/svg"
   xmlns:svg="http://www.w3.org/2000/svg"><sodipodi:namedview
     id="namedview26"
     pagecolor="#505050"
     bordercolor="#eeeeee"
     borderopacity="1"
     inkscape:showpageshadow="0"
     inkscape:pageopacity="0"
     inkscape:pagecheckerboard="0"
     inkscape:deskcolor="#505050"
     inkscape:zoom="10.6875"
     inkscape:cx="32"
     inkscape:cy="32.093567"
     inkscape:window-width="1920"
     inkscape:window-height="939"
     inkscape:window-x="0"
     inkscape:window-y="34"
     inkscape:window-maximized="1"
     inkscape:current-layer="_图层_1"
     showguides="true"><sodipodi:guide
       position="25.533397,50.243067"
       orientation="0,-1"
       id="guide26"
       inkscape:locked="false" /><sodipodi:guide
       position="50.579444,53.318274"
       orientation="1,0"
       id="guide27"
       inkscape:locked="false" /></sodipodi:namedview><!-- Generator: Adobe Illustrator 29.0.1, SVG Export Plug-In . SVG Version: 2.1.0 Build 192)  --><defs
     id="defs6"><style
       id="style1">
      .st0 {
        fill-opacity: .5;
      }

      .st0, .st1, .st2, .st3, .st4, .st5, .st6, .st7 {
        fill: #fff;
      }

      .st8 {
        fill: #133c9a;
      }

      .st2, .st9 {
        display: none;
      }

      .st3 {
        fill-opacity: .2;
      }

      .st4 {
        fill-opacity: .9;
      }

      .st10 {
        fill: #3370ff;
      }

      .st11 {
        fill: url(#_未命名的渐变_3);
      }

      .st12 {
        fill: url(#_未命名的渐变);
      }

      .st5 {
        fill-opacity: .3;
      }

      .st6 {
        fill-opacity: 0;
      }

      .st7 {
        fill-opacity: .7;
      }

      .st13 {
        fill: #00d6b9;
      }

      .st14 {
        fill: url(#_未命名的渐变_2);
      }
    </style><radialGradient
       id="_未命名的渐变"
       data-name="未命名的渐变"
       cx="123.9"
       cy="-40.2"
       fx="123.9"
       fy="-40.2"
       r="59.4"
       gradientTransform="translate(-26.8 25.5) scale(.6 -.7)"
       gradientUnits="userSpaceOnUse"><stop
         offset="0"
         stop-color="#db202e"
         id="stop1" /><stop
         offset="1"
         stop-color="#e01b24"
         id="stop2" /></radialGradient><radialGradient
       id="_未命名的渐变_2"
       data-name="未命名的渐变 2"
       cx="67.6"
       cy="26.8"
       fx="67.6"
       fy="26.8"
       r="105.2"
       gradientTransform="translate(-26.6 25.3) scale(.6 -.7)"
       gradientUnits="userSpaceOnUse"><stop
         offset="0"
         stop-color="#ffb648"
         id="stop3" /><stop
         offset="1"
         stop-color="#ff7800"
         stop-opacity="0"
         id="stop4" /></radialGradient><radialGradient
       id="_未命名的渐变_3"
       data-name="未命名的渐变 3"
       cx="61.7"
       cy="18.6"
       fx="61.7"
       fy="18.6"
       r="68"
       gradientTransform="translate(-26.8 25.8) scale(.6 -.7)"
       gradientUnits="userSpaceOnUse"><stop
         offset="0"
         stop-color="#c64600"
         id="stop5" /><stop
         offset="1"
         stop-color="#a51d2d"
         id="stop6" /></radialGradient></defs><path
     class="st1"
     d="M 47.5,64.1 H 13.8 C 6.2,64.1 0,57.8 0,50.3 V 13.7 C 0,6.2 6.2,0 13.7,0 H 50.3 C 57.8,0 64,6.2 64,13.7 V 50.3 C 64,57.8 57.8,64 50.3,64 h -2.9 0.1 z"
     id="path6"
     style="fill:#70ae39;fill-opacity:1"
     sodipodi:nodetypes="cssssssssccc" /><g
     id="g27"
     transform="matrix(1.1453634,0,0,1.1444547,-4.6048454,-4.7093977)"><path
       style="opacity:0.2"
       d="M 16.986328,22 12,39 h 2.060547 L 19,22 Z M 19,22 23.939453,39 H 26 L 21.013672,22 Z M 37.986328,22 33,39 h 2.060547 L 40,22 Z m 10.972656,4 c -0.03186,0.05413 -0.06386,0.609416 -0.0957,1.181641 -0.03184,0.572226 -0.04883,0.975045 -0.04883,1.207031 h -0.02539 c -0.366267,-0.750083 -0.885699,-1.326409 -1.5625,-1.728516 -0.668838,-0.409838 -1.461282,-0.613281 -2.376953,-0.613281 -1.632284,0 -2.850095,0.53045 -3.654297,1.589844 C 40.399065,28.688378 40,30.921312 40,33.140625 c 0,2.188377 0.370829,3.377707 1.111328,4.398437 0.748462,1.020728 1.915491,1.529297 3.5,1.529297 0.947521,0 1.775724,-0.199455 2.484375,-0.601562 0.70865,-0.409838 1.263842,-1.016103 1.669922,-1.820313 h 0.02344 v 2.017578 c 0,2.435829 -1.069062,3.345704 -3.210937,3.345704 -0.796235,10e-7 -1.441882,-0.155613 -1.935547,-0.472657 -0.485705,-0.309312 -0.800037,-0.755977 -0.943359,-1.335937 l -2.16211,0.302734 c 0.23887,0.989796 0.777234,2.151986 1.613282,2.685547 C 42.986432,43.730749 44.110194,44 45.519531,44 49.126479,44 51,42.143343 51,38.617188 V 28.769531 26 Z m -4.078125,2 c 0.603638,0 1.140557,0.178767 1.613282,0.537109 0.479999,0.351314 0.851461,0.864537 1.113281,1.539063 C 47.869246,30.74367 48,32.066669 48,32.994141 c 0,0.906393 -0.130753,1.312185 -0.392578,1.972656 -0.26182,0.653447 -0.633282,1.154544 -1.113281,1.505859 C 46.01414,36.823972 45.465836,37 44.847656,37 43.807657,37 43.073623,36.660069 42.644531,35.978516 42.215442,35.296964 42,34.553984 42,32.994141 42,31.420248 42.22932,29.757317 42.6875,29.054688 43.145686,28.352058 43.877225,28 44.880859,28 Z M 28,36 v 3 h 3 v -3 z"
       id="path2" /><path
       style="fill:#3f3f3f"
       d="M 16.985424,21 12,38 h 2.061224 L 19,21 Z"
       id="path3" /><path
       style="fill:#ffffff"
       d="m 28,38 v -3 h 3 v 3 z"
       id="path4" /><path
       style="fill:#3f3f3f"
       d="M 37.985424,21 33,38 h 2.061224 L 40,21 Z"
       id="path5" /><path
       style="fill:#3f3f3f"
       d="m 48.958984,25 c -0.03186,0.05413 -0.06386,0.609416 -0.0957,1.181641 -0.03184,0.572226 -0.04883,0.975045 -0.04883,1.207031 h -0.02539 c -0.366267,-0.750083 -0.885699,-1.326409 -1.5625,-1.728516 -0.668838,-0.409838 -1.461282,-0.613281 -2.376953,-0.613281 -1.632284,0 -2.850096,0.53045 -3.654297,1.589844 C 40.399066,27.688378 40,29.921312 40,32.140625 c 0,2.188377 0.370829,3.377707 1.111328,4.398437 0.748462,1.020728 1.915491,1.529297 3.5,1.529297 0.947521,0 1.775724,-0.199455 2.484375,-0.601562 0.70865,-0.409838 1.263842,-1.016103 1.669922,-1.820313 h 0.02344 v 2.017578 c 0,2.435829 -1.069062,3.346157 -3.210937,3.346157 -0.796235,10e-7 -1.441882,-0.155456 -1.935547,-0.4725 -0.485705,-0.309312 -0.800037,-0.755978 -0.943359,-1.335938 l -2.16211,0.302735 c 0.23887,0.989796 0.777234,2.151376 1.613282,2.684937 C 42.986435,42.730749 44.110194,43 45.519531,43 49.126479,43 51,41.143343 51,37.617188 V 27.769531 25 Z m -4.078125,2 c 0.603638,0 1.140557,0.178767 1.613282,0.537109 0.479999,0.351314 0.851461,0.864537 1.113281,1.539063 C 47.869246,29.74367 48,31.066669 48,31.994141 c 0,0.906393 -0.130753,1.312185 -0.392578,1.972656 -0.26182,0.653447 -0.633282,1.154544 -1.113281,1.505859 C 46.01414,35.823972 45.465836,36 44.847656,36 43.807657,36 43.073623,35.660069 42.644531,34.978516 42.215442,34.296964 42,33.553984 42,31.994141 42,30.420248 42.22932,28.757317 42.6875,28.054688 43.145686,27.352058 43.877225,27 44.880859,27 Z"
       id="path6-2" /><path
       style="fill:#ffffff"
       d="M 21.014576,21 26,38 H 23.938776 L 19,21 Z"
       id="path7" /></g></svg>
