<?xml version="1.0" encoding="UTF-8" standalone="no"?>
<svg
   id="_图层_1"
   version="1.1"
   viewBox="0 0 64 64" width="16" height="16"
   sodipodi:docname="com.github.bcedu.valasimplehttpserver.svg"
   xml:space="preserve"
   inkscape:version="1.4 (e7c3feb100, 2024-10-09)"
   xmlns:inkscape="http://www.inkscape.org/namespaces/inkscape"
   xmlns:sodipodi="http://sodipodi.sourceforge.net/DTD/sodipodi-0.dtd"
   xmlns="http://www.w3.org/2000/svg"
   xmlns:svg="http://www.w3.org/2000/svg"><sodipodi:namedview
     id="namedview26"
     pagecolor="#505050"
     bordercolor="#eeeeee"
     borderopacity="1"
     inkscape:showpageshadow="0"
     inkscape:pageopacity="0"
     inkscape:pagecheckerboard="0"
     inkscape:deskcolor="#505050"
     inkscape:zoom="10.6875"
     inkscape:cx="32"
     inkscape:cy="32"
     inkscape:window-width="1920"
     inkscape:window-height="939"
     inkscape:window-x="0"
     inkscape:window-y="34"
     inkscape:window-maximized="1"
     inkscape:current-layer="_图层_1" /><!-- Generator: Adobe Illustrator 29.0.1, SVG Export Plug-In . SVG Version: 2.1.0 Build 192)  --><defs
     id="defs6"><style
       id="style1">
      .st0 {
        fill-opacity: .5;
      }

      .st0, .st1, .st2, .st3, .st4, .st5, .st6, .st7 {
        fill: #fff;
      }

      .st8 {
        fill: #133c9a;
      }

      .st2, .st9 {
        display: none;
      }

      .st3 {
        fill-opacity: .2;
      }

      .st4 {
        fill-opacity: .9;
      }

      .st10 {
        fill: #3370ff;
      }

      .st11 {
        fill: url(#_未命名的渐变_3);
      }

      .st12 {
        fill: url(#_未命名的渐变);
      }

      .st5 {
        fill-opacity: .3;
      }

      .st6 {
        fill-opacity: 0;
      }

      .st7 {
        fill-opacity: .7;
      }

      .st13 {
        fill: #00d6b9;
      }

      .st14 {
        fill: url(#_未命名的渐变_2);
      }
    </style><radialGradient
       id="_未命名的渐变"
       data-name="未命名的渐变"
       cx="123.9"
       cy="-40.2"
       fx="123.9"
       fy="-40.2"
       r="59.4"
       gradientTransform="translate(-26.8 25.5) scale(.6 -.7)"
       gradientUnits="userSpaceOnUse"><stop
         offset="0"
         stop-color="#db202e"
         id="stop1" /><stop
         offset="1"
         stop-color="#e01b24"
         id="stop2" /></radialGradient><radialGradient
       id="_未命名的渐变_2"
       data-name="未命名的渐变 2"
       cx="67.6"
       cy="26.8"
       fx="67.6"
       fy="26.8"
       r="105.2"
       gradientTransform="translate(-26.6 25.3) scale(.6 -.7)"
       gradientUnits="userSpaceOnUse"><stop
         offset="0"
         stop-color="#ffb648"
         id="stop3" /><stop
         offset="1"
         stop-color="#ff7800"
         stop-opacity="0"
         id="stop4" /></radialGradient><radialGradient
       id="_未命名的渐变_3"
       data-name="未命名的渐变 3"
       cx="61.7"
       cy="18.6"
       fx="61.7"
       fy="18.6"
       r="68"
       gradientTransform="translate(-26.8 25.8) scale(.6 -.7)"
       gradientUnits="userSpaceOnUse"><stop
         offset="0"
         stop-color="#c64600"
         id="stop5" /><stop
         offset="1"
         stop-color="#a51d2d"
         id="stop6" /></radialGradient></defs><path
     class="st1"
     d="M47.5,64.1H13.8c-7.6,0-13.8-6.3-13.8-13.8V13.7C0,6.2,6.2,0,13.7,0h36.6c7.5,0,13.7,6.2,13.7,13.7v36.6c0,7.5-6.2,13.7-13.7,13.7h-2.9.1Z"
     id="path6"
     style="fill:#e4e4e4;fill-opacity:1" /><g
     id="g26"
     transform="matrix(1.0717349,0,0,1.0654952,-2.2019494,-2.7991589)"><path
       d="M 32,12 C 24.234,12 17.6198,16.6106 14.7734,23.136 7.544,24.178 2,30.154 2,37.454 2,45.488 8.7158,52 17,52 H 48.876 C 56.124,52 62,46.302 62,39.272 62,32.74 56.934,27.386 50.398,26.66 48.694,18.3194 41.1,12 32,12 Z"
       style="fill:#e4e4e4"
       id="path2" /><rect
       transform="rotate(90)"
       x="19"
       y="-27"
       width="30"
       height="16"
       rx="2.8570001"
       ry="2.6670001"
       style="opacity:0.2"
       id="rect2" /><path
       d="m 58.999489,41.73762 a 2.8647506,2.519535 0 0 1 -0.383235,1.185836 l -5.566683,8.480438 -5.566683,8.480436 a 2.8647506,2.519535 0 0 1 -4.962462,0 l -5.566682,-8.480436 -5.569478,-8.480438 a 2.8647506,2.519535 0 0 1 2.481228,-3.778924 h 22.269531 a 2.8647506,2.519535 0 0 1 2.864464,2.593088 z"
       style="opacity:0.2"
       id="path4" /><rect
       transform="rotate(90)"
       x="18"
       y="-27"
       width="30"
       height="16"
       rx="2.8570001"
       ry="2.6670001"
       style="fill:#7f25d8"
       id="rect4" /><rect
       transform="matrix(0,-1,-1,0,0,0)"
       x="-46.144531"
       y="-53.001244"
       width="30"
       height="16"
       rx="2.8570001"
       ry="2.6670001"
       style="fill:#1984b8"
       id="rect5" /><path
       d="M 32.998247,24.406911 A 2.8647506,2.519535 0 0 0 32.615012,23.221076 L 27.048328,14.740637 21.481646,6.2602002 a 2.8647506,2.519535 0 0 0 -4.962462,0 L 10.952502,14.740637 5.3830254,23.221076 A 2.8647506,2.519535 0 0 0 7.8642534,27 H 30.133783 a 2.8647506,2.519535 0 0 0 2.864464,-2.593089 z"
       style="opacity:0.2"
       id="path5" /><path
       d="M 32.998247,23.406913 A 2.8647506,2.519535 0 0 0 32.615012,22.221077 L 27.048328,13.740639 21.481646,5.2602017 a 2.8647506,2.519535 0 0 0 -4.962462,0 l -5.566682,8.4804373 -5.5694766,8.480438 a 2.8647506,2.519535 0 0 0 2.481228,3.778924 H 30.133783 a 2.8647506,2.519535 0 0 0 2.864464,-2.593088 z"
       style="fill:#9c56e2"
       id="path6-5" /><path
       d="m 58.999489,40.737622 a 2.8647506,2.519535 0 0 1 -0.383235,1.185837 l -5.566683,8.480437 -5.566683,8.480436 a 2.8647506,2.519535 0 0 1 -4.962462,0 l -5.566682,-8.480436 -5.569478,-8.480437 a 2.8647506,2.519535 0 0 1 2.481228,-3.778925 h 22.269531 a 2.8647506,2.519535 0 0 1 2.864464,2.593088 z"
       style="fill:#28a4e2"
       id="path7" /><path
       d="M 50.332031,16.144531 C 51.809363,16.144531 53,17.417143 53,19 v 1 c 0,-1.582857 -1.190637,-2.855469 -2.667969,-2.855469 H 39.667969 C 38.190637,17.144531 37,18.417143 37,20 v -1 c 0,-1.582857 1.190637,-2.855469 2.667969,-2.855469 z"
       style="opacity:0.1;fill:#ffffff"
       id="path8" /><path
       d="m 19.135476,4.0039066 a 2.8647506,2.519535 0 0 1 2.34375,1.2578126 l 5.570312,8.4804688 5.566406,8.480468 a 2.8647506,2.519535 0 0 1 0.382813,1.183594 2.8647506,2.519535 0 0 1 -0.05859,0.572266 2.8647506,2.519535 0 0 0 -0.324219,-0.75586 L 27.049542,14.742188 21.47923,6.2617192 A 2.8647506,2.519535 0 0 0 19.13548,5.0039066 2.8647506,2.519535 0 0 0 16.518292,6.2617192 l -5.566406,8.4804688 -5.5703126,8.480468 a 2.8647506,2.519535 0 0 0 -0.322265,0.757813 2.8647506,2.519535 0 0 1 0.322265,-1.757813 l 5.5703086,-8.480468 5.566406,-8.4804688 a 2.8647506,2.519535 0 0 1 2.617188,-1.2578126 z"
       style="opacity:0.2;fill:#ffffff"
       id="path9" /><path
       d="M 56.132812,38.144531 A 2.8647506,2.519535 0 0 1 59,40.738281 2.8647506,2.519535 0 0 1 58.93945,41.160156 2.8647506,2.519535 0 0 0 56.132809,39.144531 H 33.863281 a 2.8647506,2.519535 0 0 0 -2.800781,2.019531 2.8647506,2.519535 0 0 1 2.800781,-3.019531 z"
       style="opacity:0.2;fill:#ffffff"
       id="path10" /></g></svg>
