<?xml version="1.0" encoding="UTF-8" standalone="no"?>
<svg
   id="_图层_1"
   version="1.1"
   viewBox="0 0 64 64" width="16" height="16"
   sodipodi:docname="com.github.huluti.Coulr.svg"
   xml:space="preserve"
   inkscape:version="1.4 (e7c3feb100, 2024-10-09)"
   xmlns:inkscape="http://www.inkscape.org/namespaces/inkscape"
   xmlns:sodipodi="http://sodipodi.sourceforge.net/DTD/sodipodi-0.dtd"
   xmlns="http://www.w3.org/2000/svg"
   xmlns:svg="http://www.w3.org/2000/svg"><sodipodi:namedview
     id="namedview26"
     pagecolor="#505050"
     bordercolor="#eeeeee"
     borderopacity="1"
     inkscape:showpageshadow="0"
     inkscape:pageopacity="0"
     inkscape:pagecheckerboard="0"
     inkscape:deskcolor="#505050"
     inkscape:zoom="10.6875"
     inkscape:cx="32"
     inkscape:cy="33.497076"
     inkscape:window-width="1920"
     inkscape:window-height="939"
     inkscape:window-x="0"
     inkscape:window-y="34"
     inkscape:window-maximized="1"
     inkscape:current-layer="_图层_1" /><!-- Generator: Adobe Illustrator 29.0.1, SVG Export Plug-In . SVG Version: 2.1.0 Build 192)  --><defs
     id="defs6"><style
       id="style1">
      .st0 {
        fill-opacity: .5;
      }

      .st0, .st1, .st2, .st3, .st4, .st5, .st6, .st7 {
        fill: #fff;
      }

      .st8 {
        fill: #133c9a;
      }

      .st2, .st9 {
        display: none;
      }

      .st3 {
        fill-opacity: .2;
      }

      .st4 {
        fill-opacity: .9;
      }

      .st10 {
        fill: #3370ff;
      }

      .st11 {
        fill: url(#_未命名的渐变_3);
      }

      .st12 {
        fill: url(#_未命名的渐变);
      }

      .st5 {
        fill-opacity: .3;
      }

      .st6 {
        fill-opacity: 0;
      }

      .st7 {
        fill-opacity: .7;
      }

      .st13 {
        fill: #00d6b9;
      }

      .st14 {
        fill: url(#_未命名的渐变_2);
      }
    </style><radialGradient
       id="_未命名的渐变"
       data-name="未命名的渐变"
       cx="123.9"
       cy="-40.2"
       fx="123.9"
       fy="-40.2"
       r="59.4"
       gradientTransform="translate(-26.8 25.5) scale(.6 -.7)"
       gradientUnits="userSpaceOnUse"><stop
         offset="0"
         stop-color="#db202e"
         id="stop1" /><stop
         offset="1"
         stop-color="#e01b24"
         id="stop2" /></radialGradient><radialGradient
       id="_未命名的渐变_2"
       data-name="未命名的渐变 2"
       cx="67.6"
       cy="26.8"
       fx="67.6"
       fy="26.8"
       r="105.2"
       gradientTransform="translate(-26.6 25.3) scale(.6 -.7)"
       gradientUnits="userSpaceOnUse"><stop
         offset="0"
         stop-color="#ffb648"
         id="stop3" /><stop
         offset="1"
         stop-color="#ff7800"
         stop-opacity="0"
         id="stop4" /></radialGradient><radialGradient
       id="_未命名的渐变_3"
       data-name="未命名的渐变 3"
       cx="61.7"
       cy="18.6"
       fx="61.7"
       fy="18.6"
       r="68"
       gradientTransform="translate(-26.8 25.8) scale(.6 -.7)"
       gradientUnits="userSpaceOnUse"><stop
         offset="0"
         stop-color="#c64600"
         id="stop5" /><stop
         offset="1"
         stop-color="#a51d2d"
         id="stop6" /></radialGradient></defs><path
     class="st1"
     d="M47.5,64.1H13.8c-7.6,0-13.8-6.3-13.8-13.8V13.7C0,6.2,6.2,0,13.7,0h36.6c7.5,0,13.7,6.2,13.7,13.7v36.6c0,7.5-6.2,13.7-13.7,13.7h-2.9.1Z"
     id="path6"
     style="fill:#8067db;fill-opacity:1" /><g
     id="g29"
     transform="matrix(1.1420217,0,0,1.1395301,-4.4979115,-4.4382374)"><path
       style="opacity:0.2"
       d="m 41.969659,44.453232 c 0,3.529974 -0.789076,6.426857 -2.367227,8.690649 C 37.821956,55.714627 35.232173,57 31.833082,57 27.867475,57 25.115831,55.388485 23.578146,52.165455 22.526044,49.940036 21.999994,46.544354 21.999994,41.978411 V 19.762589 c 0,-2.033577 0.586748,-4.067148 1.760245,-6.100715 C 25.540714,10.553958 28.231662,9 31.833082,9 c 3.844211,0 6.595856,1.381295 8.254935,4.143885 1.335359,2.110307 1.962573,4.930454 1.881642,8.460439 0,1.15107 -0.02023,2.799016 -0.0607,3.412926 -0.04047,0.613912 -0.343966,0.959238 -0.910471,1.03598 -0.566514,0.0767 -1.578148,0.09587 -3.034902,0.05752 -2.023269,-0.0767 -2.119284,-0.115045 -1.916955,-0.115045 -0.728379,0 -1.112798,-0.326142 -1.153262,-0.978423 V 20.165494 C 34.65058,18.170288 33.087513,17.172685 31.833085,17.172685 30.174005,17.172685 29,20.587551 29,27.417283 v 16.345333 c 0,1.07434 0.506327,2.091122 0.830049,3.050349 0.44512,1.342924 1.112799,2.014387 2.003038,2.014387 1.578151,0 3.181684,-2.014387 3.181684,-6.043158 v -1.694666 c -0.04047,-0.652282 -0.06071,-1.035975 -0.06071,-1.151075 0,-0.690654 0.283259,-1.03598 0.849774,-1.03598 2.549319,0 3.758131,0.01917 5.25535,0.05752 0.606979,0 0.910468,0.326142 0.910468,0.978423 0.04047,0.997599 0.04047,2.557972 0,4.514808 z"
       id="path2-2" /><path
       style="fill:#ffffff"
       d="m 41.969659,43.453232 c 0,3.529974 -0.789076,6.426857 -2.367227,8.690649 C 37.821956,54.714627 35.232173,56 31.833082,56 27.867475,56 25.115831,54.388485 23.578146,51.165455 22.526044,48.940036 21.999994,45.544354 21.999994,40.978411 V 18.762589 c 0,-2.033577 0.586748,-4.067148 1.760245,-6.100715 C 25.540714,9.5539581 28.231662,8 31.833082,8 c 3.844211,0 6.595856,1.381295 8.254935,4.143885 1.335359,2.110307 1.962573,4.930454 1.881642,8.460439 0,1.15107 -0.02023,2.799016 -0.0607,3.412926 -0.04047,0.613912 -0.343966,0.959238 -0.910471,1.03598 -0.566514,0.0767 -1.578148,0.09587 -3.034902,0.05752 -2.023269,-0.0767 -2.119284,-0.115045 -1.916955,-0.115045 -0.728379,0 -1.112798,-0.326142 -1.153262,-0.978423 V 19.165494 C 34.65058,17.170288 33.087513,16.172685 31.833085,16.172685 30.174005,16.172685 29,19.587551 29,26.417283 v 16.345333 c 0,1.07434 0.506327,2.091122 0.830049,3.050349 0.44512,1.342924 1.112799,2.014387 2.003038,2.014387 1.578151,0 3.181684,-2.014387 3.181684,-6.043158 v -1.694666 c -0.04047,-0.652282 -0.06071,-1.035975 -0.06071,-1.151075 0,-0.690654 0.283259,-1.03598 0.849774,-1.03598 2.549319,0 3.758131,0.01917 5.25535,0.05752 0.606979,0 0.910468,0.326142 0.910468,0.978423 0.04047,0.997599 0.04047,2.557972 0,4.514808 z"
       id="path3-6" /></g></svg>
