<?xml version="1.0" encoding="UTF-8" standalone="no"?>
<svg
   id="_图层_1"
   version="1.1"
   viewBox="0 0 64 64" width="16" height="16"
   sodipodi:docname="com.github.naaando.lyrics.svg"
   xml:space="preserve"
   inkscape:version="1.4 (e7c3feb100, 2024-10-09)"
   xmlns:inkscape="http://www.inkscape.org/namespaces/inkscape"
   xmlns:sodipodi="http://sodipodi.sourceforge.net/DTD/sodipodi-0.dtd"
   xmlns="http://www.w3.org/2000/svg"
   xmlns:svg="http://www.w3.org/2000/svg"><sodipodi:namedview
     id="namedview26"
     pagecolor="#505050"
     bordercolor="#eeeeee"
     borderopacity="1"
     inkscape:showpageshadow="0"
     inkscape:pageopacity="0"
     inkscape:pagecheckerboard="0"
     inkscape:deskcolor="#505050"
     inkscape:zoom="10.6875"
     inkscape:cx="32"
     inkscape:cy="34.152047"
     inkscape:window-width="1920"
     inkscape:window-height="939"
     inkscape:window-x="0"
     inkscape:window-y="34"
     inkscape:window-maximized="1"
     inkscape:current-layer="_图层_1" /><!-- Generator: Adobe Illustrator 29.0.1, SVG Export Plug-In . SVG Version: 2.1.0 Build 192)  --><defs
     id="defs6"><style
       id="style1">
      .st0 {
        fill-opacity: .5;
      }

      .st0, .st1, .st2, .st3, .st4, .st5, .st6, .st7 {
        fill: #fff;
      }

      .st8 {
        fill: #133c9a;
      }

      .st2, .st9 {
        display: none;
      }

      .st3 {
        fill-opacity: .2;
      }

      .st4 {
        fill-opacity: .9;
      }

      .st10 {
        fill: #3370ff;
      }

      .st11 {
        fill: url(#_未命名的渐变_3);
      }

      .st12 {
        fill: url(#_未命名的渐变);
      }

      .st5 {
        fill-opacity: .3;
      }

      .st6 {
        fill-opacity: 0;
      }

      .st7 {
        fill-opacity: .7;
      }

      .st13 {
        fill: #00d6b9;
      }

      .st14 {
        fill: url(#_未命名的渐变_2);
      }
    </style><radialGradient
       id="_未命名的渐变"
       data-name="未命名的渐变"
       cx="123.9"
       cy="-40.2"
       fx="123.9"
       fy="-40.2"
       r="59.4"
       gradientTransform="translate(-26.8 25.5) scale(.6 -.7)"
       gradientUnits="userSpaceOnUse"><stop
         offset="0"
         stop-color="#db202e"
         id="stop1" /><stop
         offset="1"
         stop-color="#e01b24"
         id="stop2" /></radialGradient><radialGradient
       id="_未命名的渐变_2"
       data-name="未命名的渐变 2"
       cx="67.6"
       cy="26.8"
       fx="67.6"
       fy="26.8"
       r="105.2"
       gradientTransform="translate(-26.6 25.3) scale(.6 -.7)"
       gradientUnits="userSpaceOnUse"><stop
         offset="0"
         stop-color="#ffb648"
         id="stop3" /><stop
         offset="1"
         stop-color="#ff7800"
         stop-opacity="0"
         id="stop4" /></radialGradient><radialGradient
       id="_未命名的渐变_3"
       data-name="未命名的渐变 3"
       cx="61.7"
       cy="18.6"
       fx="61.7"
       fy="18.6"
       r="68"
       gradientTransform="matrix(0.6,0,0,-0.7,-26.8,25.8)"
       gradientUnits="userSpaceOnUse"><stop
         offset="0"
         stop-color="#c64600"
         id="stop5" /><stop
         offset="1"
         stop-color="#a51d2d"
         id="stop6" /></radialGradient></defs><path
     class="st1"
     d="M47.5,64.1H13.8c-7.6,0-13.8-6.3-13.8-13.8V13.7C0,6.2,6.2,0,13.7,0h36.6c7.5,0,13.7,6.2,13.7,13.7v36.6c0,7.5-6.2,13.7-13.7,13.7h-2.9.1Z"
     id="path6"
     style="fill:#6d37ae;fill-opacity:1" /><g
     id="g47"
     transform="matrix(1.1370092,0,0,1.1378886,-4.4778614,-4.460911)"><g
       transform="matrix(1.4,0,0,1.4,-1.6,-1.6)"
       id="g11"><circle
         style="opacity:0.1;fill:none;stroke:#000000;stroke-width:1.3398;stroke-linecap:round;stroke-linejoin:round;stroke-dasharray:10.7184, 5.3592;stroke-dashoffset:40.0029"
         cx="10.87"
         cy="32.689999"
         r="12.187"
         transform="rotate(-25.767261)"
         id="circle3" /><circle
         style="fill:none;stroke:#07e6d2;stroke-width:1.3398;stroke-linecap:round;stroke-linejoin:round;stroke-dasharray:10.7184, 5.3592;stroke-dashoffset:40.0029"
         cx="11.18"
         cy="32.047001"
         r="12.187"
         transform="rotate(-25.767261)"
         id="circle4" /><circle
         style="opacity:0.1;fill:none;stroke:#000000;stroke-width:1.40961;stroke-linecap:round;stroke-linejoin:round;stroke-dasharray:11.2769, 5.63845;stroke-dashoffset:40"
         cx="31.648001"
         cy="-13.608"
         r="16.436001"
         transform="rotate(69.107061)"
         id="circle5" /><circle
         style="fill:none;stroke:#07a8e6;stroke-width:1.40961;stroke-linecap:round;stroke-linejoin:round;stroke-dasharray:11.2769, 5.63845;stroke-dashoffset:40"
         cx="30.981001"
         cy="-13.863"
         r="16.436001"
         transform="rotate(69.107061)"
         id="circle6" /><circle
         style="opacity:0.1;fill:none;stroke:#000000;stroke-width:1.29438;stroke-linecap:round;stroke-linejoin:round;stroke-dasharray:10.3551, 5.17753;stroke-dashoffset:13.4541"
         cx="22.737"
         cy="25.881001"
         r="7.9239998"
         transform="rotate(-2.8607949)"
         id="circle7" /><circle
         style="fill:none;stroke:#07e690;stroke-width:1.29438;stroke-linecap:round;stroke-linejoin:round;stroke-dasharray:10.3551, 5.17753;stroke-dashoffset:13.4541"
         cx="22.771999"
         cy="25.167999"
         r="7.9239998"
         transform="rotate(-2.8607949)"
         id="circle8" /><g
         style="fill:#9bdb4d"
         transform="matrix(0.28153679,0,0,0.28153679,6.6099078,5.9816368)"
         id="g10"><path
           style="opacity:0.2"
           d="m 51.695333,48.778157 a 2.4973435,2.4570409 0 0 0 -2.556914,2.454292 l -0.02772,15.298426 -0.02772,15.305239 a 2.4973435,2.4570409 0 0 0 3.741823,2.133874 l 13.484433,-7.62876 13.484428,-7.62876 a 2.4973435,2.4570409 0 0 0 0.0069,-4.260924 L 66.343884,56.781878 52.887172,49.105396 a 2.4973435,2.4570409 0 0 0 -1.191839,-0.327239 z"
           id="path8" /><path
           style="fill:#9bdb4d"
           d="m 51.695333,46.241062 a 2.4973435,2.4570409 0 0 0 -2.556914,2.454292 l -0.02772,15.298426 -0.02772,15.305239 a 2.4973435,2.4570409 0 0 0 3.741823,2.133874 l 13.484433,-7.62876 13.484428,-7.62876 a 2.4973435,2.4570409 0 0 0 0.0069,-4.260924 L 66.343884,54.244783 52.887172,46.568301 a 2.4973435,2.4570409 0 0 0 -1.191839,-0.327239 z"
           id="path9" /><path
           style="opacity:0.2;fill:#ffffff"
           transform="matrix(2.5370955,0,0,2.5370955,-19.418601,-17.187024)"
           d="m 28.029297,25 a 0.9843317,0.96844637 0 0 0 -1.007813,0.966797 l -0.0098,6.03125 L 27,38.029297 a 0.9843317,0.96844637 0 0 0 0.002,0.04687 l 0.0098,-5.078125 0.0098,-6.03125 A 0.9843317,0.96844637 0 0 1 28.029297,26 0.9843317,0.96844637 0 0 1 28.5,26.128906 l 5.302734,3.025391 5.304688,3.023437 a 0.9843317,0.96844637 0 0 1 0.351562,0.339844 0.9843317,0.96844637 0 0 0 -0.351562,-1.339844 L 33.802734,28.154297 28.5,25.128906 A 0.9843317,0.96844637 0 0 0 28.029297,25 Z"
           id="path10" /></g></g></g></svg>
