<?xml version="1.0" encoding="UTF-8"?>
<svg id="_图层_1" xmlns="http://www.w3.org/2000/svg" version="1.1" viewBox="0 0 64 64" width="16" height="16">
  <!-- Generator: Adobe Illustrator 29.0.1, SVG Export Plug-In . SVG Version: 2.1.0 Build 192)  -->
  <defs>
    <style>
      .st0 {
        fill: #05ac9c;
      }

      .st1, .st2, .st3 {
        display: none;
      }

      .st1, .st4 {
        fill: #3f3f3f;
      }

      .st2, .st3, .st5 {
        isolation: isolate;
      }

      .st2, .st5 {
        opacity: .2;
      }

      .st3 {
        fill: #fff;
        opacity: .1;
      }

      .st6 {
        fill: #3446d9;
      }

      .st7 {
        fill: #f57524;
      }

      .st8 {
        fill: #9e2bbb;
      }

      .st9 {
        fill: #b72b68;
      }

      .st10 {
        fill: #f6a500;
      }

      .st11 {
        fill: #16be71;
      }

      .st12 {
        fill: #fabc45;
      }

      .st13 {
        fill: #026ed2;
      }

      .st14 {
        fill: #e74b32;
      }
    </style>
  </defs>
  <path class="st4" d="M50.3,64H13.8c-7.6,0-13.8-6.2-13.8-13.7V13.7C0,6.2,6.2,0,13.7,0h36.5c7.5,0,13.7,6.2,13.7,13.7v36.6c0,7.5-6.2,13.7-13.7,13.7h0Z"/>
  <g>
    <path class="st2" d="M63.9,62.2V4.4c0-1.8-1.4-3.2-3.2-3.2H3.2C1.4,1.1,0,2.6,0,4.4v57.8c0,1.8,1.4,3.2,3.2,3.2h57.5c1.8,0,3.2-1.4,3.2-3.2Z"/>
    <path class="st1" d="M63.9,61.1V3.2c0-1.8-1.4-3.2-3.2-3.2H3.2C1.4,0,0,1.4,0,3.2v57.8c0,1.8,1.4,3.2,3.2,3.2h57.5c1.8,0,3.2-1.4,3.2-3.2Z"/>
    <path class="st11" d="M58.5,12.6h-10.8v6.9h10.8v-6.9Z"/>
    <path class="st0" d="M58.5,23h-10.8v6.9h10.8v-6.9Z"/>
    <path class="st13" d="M58.5,33.3h-10.8v6.9h10.8v-6.9Z"/>
    <path class="st10" d="M16.2,43.6H5.4v6.9h10.8v-6.9Z"/>
    <path class="st14" d="M30.3,43.6h-10.8v6.9h10.8v-6.9Z"/>
    <path class="st6" d="M58.5,43.6h-10.8v6.9h10.8v-6.9Z"/>
    <path class="st8" d="M44.4,40.2h-10.8v-6.9h10.8v6.9Z"/>
    <path class="st9" d="M44.4,50.5h-10.8v-6.9h10.8v6.9Z"/>
    <path class="st7" d="M30.3,33.3h-10.8v6.9h10.8v-6.9Z"/>
    <path class="st12" d="M30.3,23h-10.8v6.9h10.8v-6.9Z"/>
    <path class="st5" d="M47.7,19.5v1.1h10.8v-1.1h-10.8ZM19.5,29.8v1.1h10.8v-1.1h-10.8ZM47.7,29.8v1.1h10.8v-1.1h-10.8ZM19.5,40.2v1.1h10.8v-1.1h-10.8ZM33.6,40.2v1.1h10.8v-1.1h-10.8ZM47.7,40.2v1.1h10.8v-1.1h-10.8ZM5.4,50.5v1.1h10.8v-1.1H5.4ZM19.5,50.5v1.1h10.8v-1.1h-10.8ZM33.6,50.5v1.1h10.8v-1.1h-10.8ZM47.7,50.5v1.1h10.8v-1.1h-10.8Z"/>
    <path class="st3" d="M3.2,0C1.4,0,0,1.4,0,3.2v1.1C0,2.6,1.4,1.1,3.2,1.1h57.5c1.8,0,3.2,1.4,3.2,3.2v-1.1c0-1.8-1.4-3.2-3.2-3.2H3.2Z"/>
  </g>
</svg>