<?xml version="1.0" encoding="UTF-8"?>
<svg id="_图层_1" xmlns="http://www.w3.org/2000/svg" version="1.1" viewBox="0 0 64 64" width="16" height="16">
  <!-- Generator: Adobe Illustrator 29.0.1, SVG Export Plug-In . SVG Version: 2.1.0 Build 192)  -->
  <defs>
    <style>
      .st0 {
        fill: #05ac9c;
      }

      .st1 {
        fill: #3f3f3f;
      }

      .st1, .st2, .st3, .st4, .st5, .st6 {
        display: none;
      }

      .st2, .st3, .st7, .st5 {
        isolation: isolate;
      }

      .st2, .st7, .st5 {
        opacity: .2;
      }

      .st3 {
        opacity: .1;
      }

      .st3, .st5 {
        fill: #fff;
      }

      .st8 {
        fill: #3446d9;
      }

      .st9 {
        fill: #f57524;
      }

      .st10 {
        fill: #9e2bbb;
      }

      .st11 {
        fill: #b72b68;
      }

      .st12 {
        fill: #efc008;
      }

      .st13 {
        fill: #f6a500;
      }

      .st14 {
        fill: #16be71;
      }

      .st15 {
        fill: #fabc45;
      }

      .st6, .st16 {
        fill: #8a0112;
      }

      .st17 {
        fill: #026ed2;
      }

      .st18 {
        fill: #e74b32;
      }
    </style>
  </defs>
  <path class="st16" d="M50.3,64H13.8c-7.6,0-13.8-6.2-13.8-13.7V13.7C0,6.2,6.2,0,13.7,0h36.5c7.5,0,13.7,6.2,13.7,13.7v36.6c0,7.5-6.2,13.7-13.7,13.7h0Z"/>
  <g class="st4">
    <path class="st2" d="M63.9,62.2V4.4c0-1.8-1.4-3.2-3.2-3.2H3.2C1.4,1.1,0,2.6,0,4.4v57.8c0,1.8,1.4,3.2,3.2,3.2h57.5c1.8,0,3.2-1.4,3.2-3.2Z"/>
    <path class="st1" d="M63.9,61.1V3.2c0-1.8-1.4-3.2-3.2-3.2H3.2C1.4,0,0,1.4,0,3.2v57.8c0,1.8,1.4,3.2,3.2,3.2h57.5c1.8,0,3.2-1.4,3.2-3.2Z"/>
    <path class="st14" d="M58.5,12.6h-10.8v6.9h10.8v-6.9Z"/>
    <path class="st0" d="M58.5,23h-10.8v6.9h10.8v-6.9Z"/>
    <path class="st17" d="M58.5,33.3h-10.8v6.9h10.8v-6.9Z"/>
    <path class="st13" d="M16.2,43.6H5.4v6.9h10.8v-6.9Z"/>
    <path class="st18" d="M30.3,43.6h-10.8v6.9h10.8v-6.9Z"/>
    <path class="st8" d="M58.5,43.6h-10.8v6.9h10.8v-6.9Z"/>
    <path class="st10" d="M44.4,40.2h-10.8v-6.9h10.8v6.9Z"/>
    <path class="st11" d="M44.4,50.5h-10.8v-6.9h10.8v6.9Z"/>
    <path class="st9" d="M30.3,33.3h-10.8v6.9h10.8v-6.9Z"/>
    <path class="st15" d="M30.3,23h-10.8v6.9h10.8v-6.9Z"/>
    <path class="st7" d="M47.7,19.5v1.1h10.8v-1.1h-10.8ZM19.5,29.8v1.1h10.8v-1.1h-10.8ZM47.7,29.8v1.1h10.8v-1.1h-10.8ZM19.5,40.2v1.1h10.8v-1.1h-10.8ZM33.6,40.2v1.1h10.8v-1.1h-10.8ZM47.7,40.2v1.1h10.8v-1.1h-10.8ZM5.4,50.5v1.1h10.8v-1.1H5.4ZM19.5,50.5v1.1h10.8v-1.1h-10.8ZM33.6,50.5v1.1h10.8v-1.1h-10.8ZM47.7,50.5v1.1h10.8v-1.1h-10.8Z"/>
    <path class="st3" d="M3.2,0C1.4,0,0,1.4,0,3.2v1.1C0,2.6,1.4,1.1,3.2,1.1h57.5c1.8,0,3.2,1.4,3.2,3.2v-1.1c0-1.8-1.4-3.2-3.2-3.2H3.2Z"/>
  </g>
  <g>
    <path class="st6" d="M31.9,0C14.2,0,0,14.2,0,31.8s14.2,31.8,31.9,31.8,31.9-14.2,31.9-31.8S49.6,0,31.9,0Z"/>
    <path class="st3" d="M31.9,0C14.2,0,0,14.2,0,31.8s0,.2,0,.3C.4,14.9,14.5,1.1,31.9,1.1s31.5,13.7,31.9,31c0-.1,0-.2,0-.3C63.9,14.2,49.6,0,31.9,0Z"/>
    <path class="st2" d="M63.9,32.6c-.4,17.2-14.5,31-31.9,31S.4,49.8,0,32.6c0,.1,0,.2,0,.4,0,17.6,14.2,31.7,31.9,31.7s31.9-14.1,31.9-31.7,0-.3,0-.4Z"/>
    <path class="st7" d="M31.8,57.9c-7.5,0-11.9-4.6-11.9-4.6l6.8-12.9c1.5,1.1,3.4,1.7,5.2,1.7,1.8,0,3.5-.5,5-1.5l6.8,12.7s-4.5,4.6-11.9,4.6ZM31.9,37.4c-2.5,0-4.6-2-4.6-4.5s2-4.5,4.6-4.5,4.6,2,4.6,4.5-2,4.5-4.6,4.5ZM41.2,33.2c0-.7-.1-1.3-.3-2,0,0,0-.2,0-.3,0,0,0,0,0-.1-.6-2.5-2.3-4.6-4.6-5.8l8.4-12.2s6.4,1.4,10.1,7.5c3.7,6.2,1.8,12.1,1.8,12.1h0s-15.3.8-15.3.8ZM22.7,33l-15.3-.8s-2-6,1.8-12.2c3.7-6.2,10.1-7.5,10.1-7.5l8.4,12.3c-.8.5-1.6,1.1-2.2,1.8-.1.1-.2.2-.3.4,0,.1-.2.2-.3.3,0,0,0,0,0,0-.2.3-.4.6-.6.9,0,0,0,0,0,0,0,0,0,.1-.1.2-.1.2-.2.4-.3.6-.6,1.3-1,2.6-1,3.9Z"/>
    <path class="st12" d="M31.8,56.7c-7.5,0-11.9-4.6-11.9-4.6l6.8-12.9c1.5,1.1,3.4,1.7,5.2,1.7,1.8,0,3.5-.5,5-1.5l6.8,12.7s-4.5,4.6-11.9,4.6ZM31.9,36.3c-2.5,0-4.6-2-4.6-4.5s2-4.5,4.6-4.5,4.6,2,4.6,4.5-2,4.5-4.6,4.5ZM41.2,32c0-.7-.1-1.3-.3-2,0,0,0-.2,0-.3,0,0,0,0,0-.1-.6-2.5-2.3-4.6-4.6-5.8l8.4-12.2s6.4,1.4,10.1,7.5c3.7,6.2,1.8,12.1,1.8,12.1h0s-15.3.8-15.3.8ZM22.7,31.8l-15.3-.8s-2-6,1.8-12.2c3.7-6.2,10.1-7.5,10.1-7.5l8.4,12.3c-.8.5-1.6,1.1-2.2,1.8-.1.1-.2.2-.3.4,0,.1-.2.2-.3.3,0,0,0,0,0,0-.2.3-.4.6-.6.9,0,0,0,0,0,0,0,0,0,.1-.1.2-.1.2-.2.4-.3.6-.6,1.3-1,2.6-1,3.9Z"/>
    <path class="st5" d="M19.3,11.3s-6.4,1.4-10.1,7.5c-1.3,2.2-1.9,4.4-2.2,6.3.3-1.7.9-3.5,2-5.4,3.7-6.2,10.1-7.5,10.1-7.5l8,11.7c.2-.1.3-.2.5-.3l-8.4-12.3ZM44.6,11.5l-8.4,12.2c.1,0,.2.1.3.2l7.9-11.6s6.4,1.4,10.1,7.5c2.3,3.8,2.4,7.6,2.2,9.9.4-2.1.6-6.4-2.1-10.8-3.7-6.2-10.1-7.5-10.1-7.5ZM31.9,27.2c-2.4,0-4.4,1.9-4.5,4.3.5-2,2.3-3.4,4.4-3.4s4.6,2,4.6,4.5,0,.2,0,.2c0-.4.1-.7.1-1.1,0-2.5-2-4.5-4.6-4.5ZM22.7,31.3c0,.2,0,.4,0,.6h0c0-.2,0-.4,0-.6ZM26.7,39.2l-6.8,12.9s.2.2.2.2l6.5-12.2c1.5,1.1,3.4,1.7,5.2,1.7,1.8,0,3.5-.5,5-1.5l6.5,12.2c.1-.1.4-.4.4-.4l-6.8-12.7c-1.5,1-3.2,1.5-5,1.5-1.9,0-3.7-.6-5.2-1.7Z"/>
  </g>
</svg>