<?xml version="1.0" encoding="UTF-8"?>
<svg id="_图层_1" xmlns="http://www.w3.org/2000/svg" version="1.1" viewBox="0 0 64 64" width="16" height="16">
  <!-- Generator: Adobe Illustrator 29.0.1, SVG Export Plug-In . SVG Version: 2.1.0 Build 192)  -->
  <defs>
    <style>
      .st0 {
        fill: #4daaf5;
      }

      .st1, .st2, .st3, .st4, .st5, .st6, .st7 {
        isolation: isolate;
      }

      .st1, .st2, .st8, .st9, .st10, .st7, .st11 {
        display: none;
      }

      .st1, .st4, .st6, .st7 {
        opacity: .2;
      }

      .st2 {
        opacity: .1;
      }

      .st2, .st12, .st3, .st6, .st7 {
        fill: #fff;
      }

      .st13 {
        fill: #3f3f3f;
      }

      .st3 {
        opacity: .3;
      }

      .st14, .st8 {
        fill: #8e8e8e;
      }

      .st9 {
        fill: #505d6e;
      }

      .st5 {
        opacity: .5;
      }

      .st15 {
        fill: #fed24c;
      }

      .st16 {
        fill: #c2352a;
      }

      .st11 {
        fill: #ffcca3;
      }
    </style>
  </defs>
  <path class="st14" d="M50.3,64H13.8C6.2,64,0,57.8,0,50.3V13.7c0-7.5,6.2-13.7,13.7-13.7h36.5c7.5,0,13.7,6.2,13.7,13.7v36.6c0,7.5-6.2,13.7-13.7,13.7h0Z"/>
  <g class="st10">
    <rect class="st1" x="0" y="1.3" width="63.8" height="63.9" rx="14.4" ry="14.4"/>
    <rect class="st9" x="0" y=".1" width="63.8" height="63.9" rx="14.4" ry="14.4"/>
    <path class="st4" d="M32,16.1v3.4h5.7v27.4h-5.7v3.4h14.8v-3.4h-5.7v-27.4h5.7v-3.4h-14.8ZM13.4,24.1c-1.7,0-3.1,1.4-3.1,3v12.2c0,1.7,1.4,3,3.1,3h23.1v-3.4H13.7v-11.4h22.8v-3.4H13.4ZM42.2,24.1v3.4h8v11.4h-8v3.4h8.3c1.7,0,3.1-1.4,3.1-3v-12.2c0-1.7-1.4-3-3.1-3h-8.3ZM16,29.8v6.8h17.1v-6.8h-17.1Z"/>
    <path class="st12" d="M32,15v3.4h5.7v27.4h-5.7v3.4h14.8v-3.4h-5.7v-27.4h5.7v-3.4h-14.8ZM13.4,23c-1.7,0-3.1,1.4-3.1,3v12.2c0,1.7,1.4,3,3.1,3h23.1v-3.4H13.7v-11.4h22.8v-3.4H13.4ZM42.2,23v3.4h8v11.4h-8v3.4h8.3c1.7,0,3.1-1.4,3.1-3v-12.2c0-1.7-1.4-3-3.1-3h-8.3ZM16,28.7v6.8h17.1v-6.8h-17.1Z"/>
    <path class="st2" d="M14.4.1C6.5.1,0,6.6,0,14.5v1.1C0,7.7,6.5,1.3,14.4,1.3h35.1c8,0,14.4,6.4,14.4,14.4v-1.1C63.9,6.6,57.5.1,49.5.1H14.4Z"/>
  </g>
  <g class="st10">
    <path class="st1" d="M0,58.8v2.7c0,2.2,1.9,4,4.2,4h69.8c2.3,0,4.2-1.8,4.2-4v-2.7c0,2.2-1.9,4-4.2,4H4.2c-2.3,0-4.2-1.8-4.2-4Z"/>
    <path class="st11" d="M4.2,0h69.8c2.3,0,4.2,1.8,4.2,4v56.2c0,2.2-1.9,4-4.2,4H4.2c-2.3,0-4.2-1.8-4.2-4V4C0,1.8,1.9,0,4.2,0Z"/>
    <path class="st7" d="M4.2,0C1.9,0,0,1.8,0,4v1.3C0,3.1,1.9,1.3,4.2,1.3h69.8c2.3,0,4.2,1.8,4.2,4v-1.3c0-2.2-1.9-4-4.2-4H4.2Z"/>
    <path class="st4" d="M11.2,9.4v2.7h-1.4c-2.3,0-4.2,1.8-4.2,4s1.9,4,4.2,4h1.4v2.7h-5.3c.6,1.6,2.1,2.7,3.9,2.7h1.4v2.7h2.8v-2.7h1.4c2.3,0,4.2-1.8,4.2-4s-1.9-4-4.2-4h-1.4v-2.7h5.3c-.6-1.6-2.1-2.7-3.9-2.7h-1.4v-2.7h-2.8ZM9.8,14.7h1.4v2.7h-1.4c-.8,0-1.4-.6-1.4-1.3s.6-1.3,1.4-1.3ZM14,20.1h1.4c.8,0,1.4.6,1.4,1.3s-.6,1.4-1.4,1.3h-1.4v-2.7ZM22.3,25.4v2.7h14v-2.7h-14Z"/>
    <path class="st13" d="M11.2,8v2.7h-1.4c-2.3,0-4.2,1.8-4.2,4s1.9,4,4.2,4h1.4v2.7h-5.3c.6,1.6,2.1,2.7,3.9,2.7h1.4v2.7h2.8v-2.7h1.4c2.3,0,4.2-1.8,4.2-4s-1.9-4-4.2-4h-1.4v-2.7h5.3c-.6-1.6-2.1-2.7-3.9-2.7h-1.4v-2.7h-2.8ZM9.8,13.4h1.4v2.7h-1.4c-.8,0-1.4-.6-1.4-1.3s.6-1.3,1.4-1.3ZM14,18.7h1.4c.8,0,1.4.6,1.4,1.3s-.6,1.4-1.4,1.3h-1.4v-2.7ZM22.3,24.1v2.7h14v-2.7h-14Z"/>
    <path class="st3" d="M39.1,0h12.5c5.2-.2,12.5,6.8,12.5,11.6l-.2,40.5c0,4.6-5.9,11.7-13.6,11.9l-11.2.2V0Z"/>
  </g>
  <g class="st10">
    <path class="st15" d="M26.3,29.2l-3.1,3.6-2.4,2.4-2.6,1.8-3.2,1.7-3.7,1.4-2.3.5v.3c0,0,0,.8,0,.8l.5,1.4,1.1,2.3,1.1,1.7,2.1,2.3,1,1,.9.3h4s-2.3,1.6-2.3,1.6v.4s1.4,1.1,1.4,1.1l1.9,1.1c2.5,1.4,4.7-1.4,4.7-1.4,0,0-1.2,2.1-1.1,2.8h2.3l1.2-.2,1.4-.7-.5.8h2.6c2.7,0,4.5-1.6,6.1-3.3l1.7-2,1.3-2,1-1.8,1.5-3.7,1.2-3,.6-1.6h-.6l-4.2-.5c-3.4-1-5.2-3.5-8.4-5.5l-2.6-1.6-2.1-1.3-.3-.4v-.2c0,0-.2,0-.2,0h0Z"/>
    <path class="st16" d="M45.3,6.7l-2.5,4.7-2.1,4.8-2.6,5.3-1.8,4.3-2-.9-2.9-1.3h-.7l-.6.2-1,1.3-2.8,3.8v.4c.1,0,.4.4.4.4l2.1,1.3,2.6,1.6c3.2,2,5,4.5,8.4,5.5l4.2.5h.7v-.2s.7-3.9.7-3.9l.5-3.1v-.7c0,0-.3-.7-.3-.7l-2.5-1.2-1.4-.6-.9-.6h-.1s.1-.2.1-.2l1.5-3.7,1.3-3.3,1.7-4.4,1.3-3.1,1.1-2.8.9-2.7c.5-2-1.8-3.1-3.3-.8h0Z"/>
    <path class="st6" d="M26.3,29.2h0s-3.1,3.6-3.1,3.6l-2.4,2.4-2.6,1.8-3.2,1.7-3.7,1.4-2.3.5v.3c-.1,0,0,.6,0,.6h0s2.3-.6,2.3-.6l3.7-1.4,3.2-1.7,2.6-1.8,2.4-2.4,3.1-3.6h0s.1,0,.1,0v.2c0,0,.4.4.4.4l2.1,1.3,2.6,1.6c3.2,2,5,4.5,8.4,5.5l4.2.5h.2l.3-.9h-.6l-4.2-.5c-3.4-1-5.2-3.5-8.4-5.5l-2.6-1.6-2.1-1.3-.3-.4v-.2c0,0-.2,0-.2,0ZM19.8,51.5h-1.3s-1,.7-1,.7v.4s.3.3.3.3l2-1.4ZM25.4,54.4s-.3.4-.8.8c-.2.4-.3.9-.3,1.1h.2c.3-.9.9-1.9.9-1.9h0ZM47.1,5.4c-.6,0-1.3.4-1.8,1.3h0l-2.5,4.7-2.1,4.8-2.6,5.3-1.8,4.3-2-.9-2.9-1.3h-.7l-.6.2-1,1.3-2.8,3.8v.4c.1,0,.3.2.3.2l2.6-3.4,1-1.3.6-.2h.7l2.9,1.3,2,.9,1.8-4.3,2.6-5.3,2.1-4.8,2.5-4.7h0c1.2-1.9,3-1.6,3.3-.3.3-1.2-.5-2.1-1.5-2h0ZM41.1,28l-.2.5v.2c-.1,0,0,0,0,0l.9.6,1.4.6,2.5,1.2.3.6h0c0-.1,0-.8,0-.8l-.4-.7-2.5-1.2-1.4-.6-.7-.4Z"/>
    <path class="st4" d="M44.3,39.7l-.2.7-1.2,3-1.5,3.7-1,1.8-1.3,2-1.7,2c-1.6,1.7-3.4,3.3-6.1,3.4h-2.5s.5-.8.5-.8l-1.4.7-1.2.2h-2.1c-.1.4-.2.7-.2.9h2.3l1.2-.2,1.4-.7-.5.8h2.5c2.7,0,4.5-1.6,6.1-3.3l1.7-2,1.3-2,1-1.8,1.5-3.7,1.2-3,.6-1.6h-.3ZM9,41.5v.3c0,0,0,.8,0,.8l.5,1.4,1.1,2.3,1.1,1.7,2.1,2.3,1,1,.9.3h2.6s1.3-.9,1.3-.9h-4s-.9-.3-.9-.3l-1-1-2.1-2.3-1.1-1.7-1.1-2.3-.5-1.4v-.2ZM17.7,52.9l-.3.2v.4s1.4,1.1,1.4,1.1l1.9,1.1c1.6.9,3,.1,3.9-.6.3-.8.8-1.7.8-1.7,0,0-2.2,2.8-4.7,1.4l-1.9-1.1-1.1-.8ZM48.6,7.4s0,0,0,.1l-.9,2.7-1.1,2.8-1.3,3.1-1.7,4.4-1.3,3.3-1.5,3.7v.2c-.1,0,0,0,0,0h.2c0,.1,1.3-3.1,1.3-3.1l1.3-3.3,1.7-4.4,1.3-3.1,1.1-2.8.9-2.7c.1-.4,0-.7,0-1h0ZM26.6,29.6l-.3.3v.4c.1,0,.4.4.4.4l2.1,1.3,2.6,1.6c3.2,2,5,4.5,8.4,5.5l4.2.5h.7v-.2s.7-3.9.7-3.9l.5-3.1v-.7s0-.1,0-.1l-.5,3-.6,3.9v.2h-.8l-4.2-.5c-3.4-1-5.2-3.5-8.4-5.5l-2.6-1.6-2.1-1.3-.2-.3Z"/>
  </g>
  <g>
    <path class="st1" d="M1.5,54.7v2.1c0,2.4,2,4.3,4.6,4.3h41.4c2.5,0,4.6-1.9,4.6-4.3v-2.1c0,2.4-2,4.3-4.6,4.3H6.1c-2.5,0-4.6-1.9-4.6-4.3Z"/>
    <path class="st8" d="M52.1,55.8V4.3c0-2.4-2.1-4.3-4.6-4.3H6.1C3.6,0,1.5,1.9,1.5,4.3v51.5c0,2.4,2.1,4.3,4.6,4.3h41.4c2.5,0,4.6-1.9,4.6-4.3Z"/>
    <path class="st5" d="M26.8,8.6c-8.9,0-16.1,6.7-16.1,15v15h16.1c8.9,0,16.1-6.7,16.1-15s-7.2-15-16.1-15ZM26.8,15c5.1,0,9.2,3.8,9.2,8.6s-4.1,8.6-9.2,8.6-9.2-3.8-9.2-8.6,4.1-8.6,9.2-8.6Z"/>
    <path class="st2" d="M6.1,0C3.6,0,1.5,1.9,1.5,4.3v1.1C1.5,3,3.6,1.1,6.1,1.1h41.4c2.5,0,4.6,1.9,4.6,4.3v-1.1c0-2.4-2-4.3-4.6-4.3H6.1Z"/>
    <path class="st4" d="M63.5,44.9c-.5,9.1-8.6,16.2-18.3,16.3-9.6,0-17.6-7-18.3-15.9,0,.3,0,.6,0,.9,0,9.5,8.2,17.2,18.4,17.2s18.4-7.7,18.4-17.2c0-.4,0-.8,0-1.2h0Z"/>
    <ellipse class="st0" cx="45.2" cy="45.1" rx="18.4" ry="17.2"/>
    <g>
      <rect class="st12" x="41.7" y="42.9" width="6.9" height="12.9"/>
      <rect class="st12" x="41.7" y="34.3" width="6.9" height="6.4"/>
    </g>
  </g>
</svg>