<?xml version="1.0" encoding="UTF-8"?>
<svg id="_图层_1" xmlns="http://www.w3.org/2000/svg" version="1.1" viewBox="0 0 64 64" width="16" height="16">
  <!-- Generator: Adobe Illustrator 29.0.1, SVG Export Plug-In . SVG Version: 2.1.0 Build 192)  -->
  <defs>
    <style>
      .st0 {
        fill: #95e000;
      }

      .st0, .st1, .st2, .st3, .st4, .st5 {
        display: none;
      }

      .st1, .st2, .st6, .st5 {
        isolation: isolate;
      }

      .st1, .st6, .st5 {
        opacity: .2;
      }

      .st2 {
        opacity: .1;
      }

      .st2, .st7, .st5 {
        fill: #fff;
      }

      .st8, .st3 {
        fill: #0d597f;
      }
    </style>
  </defs>
  <path class="st8" d="M50.4,64H13.8c-7.6,0-13.8-6.2-13.8-13.7V13.7C0,6.2,6.2,0,13.7,0h36.5c7.5,0,13.7,6.2,13.7,13.7v36.6c0,7.5-6.2,13.7-13.7,13.7h.1Z"/>
  <g class="st4">
    <ellipse class="st1" cx="32" cy="33" rx="32" ry="31.9"/>
    <ellipse class="st0" cx="32" cy="31.9" rx="32" ry="31.9"/>
    <path class="st5" d="M32,0C14.3,0,0,14.3,0,31.9c0,.2,0,.4,0,.7C.3,15.1,14.5,1.2,32,1.1c17.4,0,31.6,13.9,32,31.2,0-.2,0-.3,0-.5C64,14.3,49.7,0,32,0Z"/>
    <path class="st6" d="M32,4.6c-15.8,0-28.6,12.7-28.6,28.5s12.8,28.5,28.6,28.5,28.6-12.7,28.6-28.5S47.8,4.6,32,4.6ZM32,6.8c14.5,0,26.3,11.7,26.3,26.2s-11.8,26.2-26.3,26.2h0c-14.5,0-26.3-11.7-26.3-26.2S17.5,6.8,32,6.8ZM18.3,25.1l-5.7,14.8h3.4l1.4-3.4h5.6l1,3.4h3.4l-4.6-14.8h-4.6ZM29.7,25.1v14.8h3.4v-14.8h-3.4ZM35.4,25.1l5.7,7.4-5.7,7.4h3.4l4-5.2,4,5.2h3.4l-5.7-7.4,5.7-7.4h-3.4l-4,5.2-4-5.2h-3.4ZM20.6,28.5l1.4,4.6h-3.2l1.8-4.6Z"/>
    <path class="st7" d="M32,3.4C16.2,3.4,3.4,16.2,3.4,31.9s12.8,28.5,28.6,28.5,28.6-12.7,28.6-28.5S47.8,3.4,32,3.4ZM32,5.7c14.5,0,26.3,11.7,26.3,26.2s-11.8,26.2-26.3,26.2S5.7,46.4,5.7,31.9,17.5,5.7,32,5.7ZM18.3,23.9l-5.7,14.8h3.4l1.4-3.4h5.6l1,3.4h3.4l-4.6-14.8h-4.6ZM29.7,23.9v14.8h3.4v-14.8h-3.4ZM35.4,23.9l5.7,7.4-5.7,7.4h3.4l4-5.2,4,5.2h3.4l-5.7-7.4,5.7-7.4h-3.4l-4,5.2-4-5.2h-3.4ZM20.6,27.3l1.4,4.6h-3.2l1.8-4.6Z"/>
  </g>
  <g>
    <path class="st1" d="M18.7,64.9c-1.8,0-3.9-1.4-4.8-3.1L.7,36.1c-.9-1.7-.9-4.5,0-6.2L13.9,4.2c.9-1.7,3-3.1,4.8-3.1h26.5c1.8,0,3.9,1.4,4.8,3.1l13.3,25.7c.9,1.7.9,4.5,0,6.2l-13.3,25.7c-.9,1.7-3,3.1-4.8,3.1h-26.5Z"/>
    <path class="st3" d="M18.7,63.8c-1.8,0-3.9-1.4-4.8-3.1L.7,35c-.9-1.7-.9-4.5,0-6.2L13.9,3.1c.9-1.7,3-3.1,4.8-3.1h26.5c1.8,0,3.9,1.4,4.8,3.1l13.3,25.7c.9,1.7.9,4.5,0,6.2l-13.3,25.7c-.9,1.7-3,3.1-4.8,3.1h-26.5Z"/>
    <path class="st6" d="M25.8,21.6l-16.5,19.4h7.2l9.3-11.4,8.3,11.4h7.2l-5.2-5.7,4.1-3.4,8.3,9.1h7.2l-15.5-17.1-7.2,6.8-7.2-9.1ZM23.7,35.3l-4.1,5.7h4.1v-5.7Z"/>
    <path class="st7" d="M25.8,20.5l-16.5,19.4h7.2l9.3-11.4,8.3,11.4h7.2l-5.2-5.7,4.1-3.4,8.3,9.1h7.2l-15.5-17.1-7.2,6.8-7.2-9.1ZM23.7,34.2l-4.1,5.7h4.1v-5.7Z"/>
    <path class="st2" d="M18.7,0c-1.8,0-3.9,1.4-4.8,3.1L.7,28.8c-.5,1-.7,2.4-.6,3.7,0-.9.3-1.8.6-2.5L13.9,4.2c.9-1.7,3-3.1,4.8-3.1h26.5c1.8,0,3.9,1.4,4.8,3.1l13.3,25.7c.4.7.6,1.6.6,2.5,0-1.3-.1-2.7-.6-3.7L50.1,3.1c-.9-1.7-3-3.1-4.8-3.1h-26.5Z"/>
  </g>
</svg>