<?xml version="1.0" encoding="UTF-8"?>
<svg id="_图层_1" xmlns="http://www.w3.org/2000/svg" version="1.1" viewBox="0 0 64 64" width="16" height="16">
  <!-- Generator: Adobe Illustrator 29.0.1, SVG Export Plug-In . SVG Version: 2.1.0 Build 192)  -->
  <defs>
    <style>
      .st0, .st1, .st2 {
        isolation: isolate;
        opacity: .2;
      }

      .st0, .st3, .st2 {
        display: none;
      }

      .st1 {
        stroke: #000;
      }

      .st1, .st4 {
        fill: none;
        stroke-linecap: round;
        stroke-linejoin: round;
        stroke-width: 3px;
      }

      .st4 {
        stroke: #fff;
      }

      .st3, .st5 {
        fill: #e95361;
      }

      .st2 {
        fill: #fff;
      }
    </style>
  </defs>
  <path class="st5" d="M47.5,64.1H13.8c-7.6,0-13.8-6.3-13.8-13.8V13.7C0,6.2,6.2,0,13.7,0h36.6c7.5,0,13.7,6.2,13.7,13.7v36.6c0,7.5-6.2,13.7-13.7,13.7h-2.9.1Z"/>
  <g>
    <path class="st0" d="M32.2,1.1h0c-1.5,0-3,.3-4.3,1L4.1,14.5C1.5,15.8,0,18.2,0,20.8v24.8c0,2.6,1.5,5,4.1,6.3l23.9,12.4c2.5,1.3,5.6,1.3,8.1,0l23.9-12.4c2.5-1.3,4.1-3.7,4.1-6.3v-24.8c0-2.6-1.5-5-4.1-6.3L36.1,2.1c-1.2-.6-2.5-.9-3.9-1Z"/>
    <path class="st3" d="M32.2,0h0c-1.5,0-3,.3-4.3,1L4.1,13.4C1.5,14.7,0,17.1,0,19.7v24.8c0,2.6,1.5,5,4.1,6.3l23.9,12.4c2.5,1.3,5.6,1.3,8.1,0l23.9-12.4c2.5-1.3,4.1-3.7,4.1-6.3v-24.8c0-2.6-1.5-5-4.1-6.3L36.1,1C34.9.4,33.6,0,32.2,0Z"/>
    <path class="st1" d="M10.7,23.1v20.3l21.3,10.1M10.7,23.1l21.3,10.1M10.7,23.1l10.7-5.1M32,53.5l21.3-10.1v-20.3M32,53.5v-20.3M53.4,23.1l-21.3-10.1-10.7,5.1M53.4,23.1l-10.7,5.1M32,33.2l10.7-5.1M21.4,18l21.3,10.1"/>
    <path class="st4" d="M10.7,22v20.3l21.3,10.1M10.7,22l21.3,10.1M10.7,22l10.7-5.1M32,52.4l21.3-10.1v-20.3M32,52.4v-20.3M53.4,22l-21.3-10.1-10.7,5.1M53.4,22l-10.7,5.1M32,32.1l10.7-5.1M21.4,16.9l21.3,10.1"/>
    <path class="st2" d="M32.2,0h0c-1.5,0-3,.3-4.3,1L4.1,13.4C1.5,14.7,0,17.1,0,19.7v1.1c0-2.6,1.5-5,4.1-6.3L28,2.1c1.3-.7,2.8-1,4.3-1h0c1.4,0,2.7.4,3.9,1l23.9,12.4c2.5,1.3,4.1,3.7,4.1,6.3v-1.1c0-2.6-1.5-5-4.1-6.3L36.1,1c-1.2-.6-2.5-.9-3.9-1Z"/>
  </g>
</svg>