<?xml version="1.0" encoding="UTF-8"?>
<svg id="_图层_1" xmlns="http://www.w3.org/2000/svg" version="1.1" viewBox="0 0 64 64" width="16" height="16">
  <!-- Generator: Adobe Illustrator 29.0.1, SVG Export Plug-In . SVG Version: 2.1.0 Build 192)  -->
  <defs>
    <style>
      .st0 {
        fill: #dc5145;
      }

      .st1 {
        fill: #ffa923;
      }

      .st2 {
        fill-rule: evenodd;
      }

      .st2, .st3, .st4 {
        isolation: isolate;
        opacity: .2;
      }

      .st5, .st4 {
        fill: #fff;
      }

      .st6 {
        fill: #3084e0;
      }
    </style>
  </defs>
  <path class="st5" d="M50.3,64H13.8C6.2,64,0,57.8,0,50.3V13.7c0-7.5,6.2-13.7,13.7-13.7h36.5c7.5,0,13.7,6.2,13.7,13.7v36.6c0,7.5-6.2,13.7-13.7,13.7h0Z"/>
  <g>
    <path class="st3" d="M42.3,20.1v6.1c0,3.4-2.7,6.1-5.9,6.1h-11.9s-5.9,0-5.9,6.1v10.6c0,4.2,4.6,7.6,10.4,7.6h3c5.8,0,10.4-3.4,10.4-7.6v-1.9h-11.9v-2.6h16.4c4.1,0,7.4-4.7,7.4-10.6v-3c0-5.9-3.3-10.6-7.4-10.6h-4.5Z"/>
    <path class="st1" d="M42.3,19.2v6.1c0,3.4-2.7,6.1-5.9,6.1h-11.9s-5.9,0-5.9,6.1v10.6c0,4.2,4.6,7.6,10.4,7.6h3c5.8,0,10.4-3.4,10.4-7.6v-1.9h-11.9v-2.6h16.4c4.1,0,7.4-4.7,7.4-10.6v-3c0-5.9-3.3-10.6-7.4-10.6h-4.5Z"/>
    <path class="st3" d="M36.8,51.3c.7,0,1.3.6,1.3,1.3s-.6,1.3-1.3,1.3-1.3-.6-1.3-1.3.6-1.3,1.3-1.3Z"/>
    <path class="st5" d="M36.8,50.4c.7,0,1.3.6,1.3,1.3h0c0,.7-.6,1.3-1.3,1.3s-1.3-.6-1.3-1.3.6-1.3,1.3-1.3h0Z"/>
    <path class="st3" d="M28.9,8c-5.8,0-10.4,3.4-10.4,7.6v1.9h11.9v2.6H14.1c-4.1,0-7.4,4.7-7.4,10.6v3c0,5.9,3.3,10.6,7.4,10.6h4.5v-6.1c0-3.4,2.7-6.1,5.9-6.1h11.9s5.9,0,5.9-6.1v-10.6c0-4.2-4.6-7.6-10.4-7.6h-3Z"/>
    <path class="st6" d="M28.9,7.1c-5.8,0-10.4,3.4-10.4,7.6v1.9h11.9v2.6H14.1c-4.1,0-7.4,4.7-7.4,10.6v3c0,5.9,3.3,10.6,7.4,10.6h4.5v-6.1c0-3.4,2.7-6.1,5.9-6.1h11.9s5.9,0,5.9-6.1v-10.6c0-4.2-4.6-7.6-10.4-7.6h-3Z"/>
    <path class="st3" d="M24.9,10.6c.7,0,1.3.6,1.3,1.3s-.6,1.3-1.3,1.3-1.3-.6-1.3-1.3.6-1.3,1.3-1.3Z"/>
    <path class="st5" d="M24.9,9.7c.7,0,1.3.6,1.3,1.3s-.6,1.3-1.3,1.3-1.3-.6-1.3-1.3.6-1.3,1.3-1.3Z"/>
    <path class="st4" d="M42.3,19.2v.9h4.5c4.1,0,7.4,4.7,7.4,10.6v-.9c0-5.9-3.3-10.6-7.4-10.6h-4.5ZM30.4,46.1v.9h11.9v-.9h-11.9Z"/>
    <path class="st4" d="M28.9,7.1c-5.8,0-10.4,3.4-10.4,7.6v.9c0-4.2,4.6-7.6,10.4-7.6h3c5.8,0,10.4,3.4,10.4,7.6v-.9c0-4.2-4.6-7.6-10.4-7.6h-3ZM14.1,19.2c-4.1,0-7.4,4.7-7.4,10.6v.9c0-5.9,3.3-10.6,7.4-10.6h16.4v-.9H14.1Z"/>
    <path class="st2" d="M57.6,42.5c-.4,7.4-6.3,13.1-13.6,13.1-7.1,0-13-5.6-13.6-12.9,0,.2,0,.5,0,.7,0,7.7,6.1,13.9,13.6,13.9s13.6-6.2,13.6-13.9c0-.3,0-.7,0-1Z"/>
    <ellipse class="st0" cx="44" cy="42.6" rx="13.6" ry="13.9"/>
    <path class="st5" d="M42.3,35.7v1.8c-.7.2-1.2.5-1.7.9l-1.6-.8-1.7,3,1.5,1c0,.3,0,.6,0,.9,0,.3,0,.6,0,.9l-1.5,1,1.7,3,1.6-.8c.5.4,1,.7,1.6.9v1.8h3.5v-1.8c.7-.2,1.2-.5,1.7-.9l1.6.8,1.7-3-1.5-1c0-.3,0-.6,0-.9,0-.3,0-.6,0-.9l1.5-1-1.7-3-1.6.8c-.5-.4-1-.7-1.6-.9v-1.8h-3.5,0ZM44,40.6c1.1,0,1.9.9,1.9,2h0c0,1.1-.9,2-1.9,2h0c-1.1,0-1.9-.9-1.9-2h0c0-1.1.9-2,1.9-2h0Z"/>
  </g>
</svg>