<?xml version="1.0" encoding="UTF-8"?>
<svg id="_图层_1" xmlns="http://www.w3.org/2000/svg" version="1.1" viewBox="0 0 64 64" width="16" height="16">
  <!-- Generator: Adobe Illustrator 29.0.1, SVG Export Plug-In . SVG Version: 2.1.0 Build 192)  -->
  <defs>
    <style>
      .st0 {
        fill: #4677af;
      }

      .st1, .st2, .st3, .st4 {
        display: none;
      }

      .st1, .st5, .st4 {
        opacity: .2;
      }

      .st1, .st5, .st4, .st6 {
        isolation: isolate;
      }

      .st7, .st4, .st6 {
        fill: #fff;
      }

      .st2 {
        fill: #3db54a;
      }

      .st8 {
        fill: #ebebeb;
      }

      .st6 {
        opacity: .1;
      }
    </style>
  </defs>
  <path class="st0" d="M50.4,64H13.8c-7.6,0-13.8-6.2-13.8-13.7V13.7C0,6.2,6.2,0,13.7,0h36.6c7.5,0,13.7,6.2,13.7,13.7v36.6c0,7.5-6.2,13.7-13.7,13.7h.1Z"/>
  <g class="st3">
    <ellipse class="st1" cx="32.1" cy="33.1" rx="32.1" ry="32"/>
    <ellipse class="st2" cx="32.1" cy="32" rx="32.1" ry="32"/>
    <path class="st5" d="M20.3,17.1c-.5,0-.9.4-.9.9v5.4c0,.3.2.6.4.7l8.4,5-8.4,5c-.3.2-.4.4-.4.7v5.4c0,.5.4.9.9.9.1,0,.3,0,.4-.1l14.4-8.5c.3-.2.4-.4.4-.7v-5.2c0-.3-.2-.6-.4-.7l-14.4-8.5c-.1,0-.3-.1-.4-.1ZM35.9,42.2c-.8,0-1.5.8-1.5,1.7v3.4c0,.9.7,1.7,1.5,1.7h16.4c.8,0,1.5-.8,1.5-1.7v-3.4c0-.9-.7-1.7-1.5-1.7h-16.4Z"/>
    <path class="st7" d="M20.3,16c-.5,0-.9.4-.9.9v5.4c0,.3.2.6.4.7l8.4,5-8.4,5c-.3.2-.4.4-.4.7v5.4c0,.5.4.9.9.9.1,0,.3,0,.4-.1l14.4-8.5c.3-.2.4-.4.4-.7v-5.2c0-.3-.2-.6-.4-.7l-14.4-8.5c-.1,0-.3-.1-.4-.1ZM35.9,41.1c-.8,0-1.5.8-1.5,1.7v3.4c0,.9.7,1.7,1.5,1.7h16.4c.8,0,1.5-.8,1.5-1.7v-3.4c0-.9-.7-1.7-1.5-1.7h-16.4Z"/>
    <path class="st4" d="M32.1,0C14.4,0,0,14.3,0,32c0,.2,0,.4,0,.6C.3,15.1,14.6,1.1,32.1,1.1c17.5,0,31.7,14,32,31.4,0-.2,0-.4,0-.6C64.1,14.3,49.8,0,32.1,0Z"/>
  </g>
  <g>
    <g class="st3">
      <path class="st5" d="M0,59.5v2.3c0,1.9,1.9,3.4,4.4,3.4h55.3c2.4,0,4.4-1.5,4.4-3.4v-2.3c0,1.9-1.9,3.4-4.4,3.4H4.4c-2.4,0-4.4-1.5-4.4-3.4Z"/>
      <path class="st0" d="M4.4,0C1.9,0,0,1.5,0,3.4v57.2c0,1.9,1.9,3.4,4.4,3.4h55.3c2.4,0,4.4-1.5,4.4-3.4V3.4c0-1.9-1.9-3.4-4.4-3.4H4.4Z"/>
      <path class="st6" d="M4.4,0C1.9,0,0,1.5,0,3.4v1.1C0,2.7,1.9,1.1,4.4,1.1h55.3c2.4,0,4.4,1.5,4.4,3.4v-1.1c0-1.9-1.9-3.4-4.4-3.4H4.4Z"/>
    </g>
    <path class="st5" d="M32,4.6c5.8,0,13.8,3.4,13.1,12.6-.6,8-6.9,12.6-6.9,12.6h16.5c2.5,0-4.4,5-6.7,6.9-4.1-2.4-11.1-2.3-12.6-2.3s-1.9,13.7,2.4,17.2,3,2.2,3,3c0,.6-.3,1.1-1,1.6l-7.9,5.7-7.7-5.7c-.6-.4-.9-.9-1-1.5,0-.8,1.1-1.8,2.8-3.1,4.4-3.4,2.9-17.2,2.5-17.2-1.5,0-8.5,0-12.7,2.3-2.4-1.8-9.3-6.9-6.7-6.9h16.5s-6.2-4.6-6.9-12.6c-.7-9.1,7.3-12.6,13.1-12.6ZM24.7,17.2c0,4.6,3.3,9.1,7.3,9.1s7.3-4.6,7.3-9.1-4.4-8-7.3-8-7.3,2.5-7.3,8Z"/>
    <path class="st8" d="M32,3.4c5.8,0,13.8,3.4,13.1,12.6-.6,8-6.9,12.6-6.9,12.6h16.5c2.5,0-4.4,5-6.7,6.9-4.1-2.4-11.1-2.3-12.6-2.3s-1.9,13.7,2.4,17.2,3,2.2,3,3c0,.6-.3,1.1-1,1.6l-7.9,5.7-7.7-5.7c-.6-.4-.9-.9-1-1.5,0-.8,1.1-1.8,2.8-3.1,4.4-3.4,2.9-17.2,2.5-17.2-1.5,0-8.5,0-12.7,2.3-2.4-1.8-9.3-6.9-6.7-6.9h16.5s-6.2-4.6-6.9-12.6c-.7-9.1,7.3-12.6,13.1-12.6ZM24.7,16c0,4.6,3.3,9.1,7.3,9.1s7.3-4.6,7.3-9.1-4.4-8-7.3-8-7.3,2.5-7.3,8Z"/>
  </g>
</svg>