<?xml version="1.0" encoding="UTF-8"?>
<svg id="_图层_1" xmlns="http://www.w3.org/2000/svg" version="1.1" viewBox="0 0 64 64" width="16" height="16">
  <!-- Generator: Adobe Illustrator 29.0.1, SVG Export Plug-In . SVG Version: 2.1.0 Build 192)  -->
  <defs>
    <style>
      .st0, .st1, .st2 {
        fill: #fff;
      }

      .st3 {
        fill: #ff670b;
      }

      .st4 {
        fill: #5e473a;
      }

      .st5, .st6, .st1, .st2 {
        isolation: isolate;
      }

      .st5, .st2 {
        opacity: .1;
      }

      .st6, .st1 {
        opacity: .2;
      }
    </style>
  </defs>
  <path class="st0" d="M50.4,64H13.8c-7.6,0-13.8-6.2-13.8-13.7V13.7C0,6.2,6.2,0,13.7,0h36.6c7.5,0,13.7,6.2,13.7,13.7v36.6c0,7.5-6.2,13.7-13.7,13.7h.1Z"/>
  <g>
    <path class="st6" d="M5.8,12.6h51.1c1.6,0,2.8,1.1,2.8,2.4v37.8c0,1.3-1.3,2.4-2.8,2.4H5.8c-1.6,0-2.8-1.1-2.8-2.4V15c0-1.3,1.3-2.4,2.8-2.4Z"/>
    <path class="st3" d="M5.8,11.7h51.1c1.6,0,2.8,1.1,2.8,2.4v37.8c0,1.3-1.3,2.4-2.8,2.4H5.8c-1.6,0-2.8-1.1-2.8-2.4V14.1c0-1.3,1.3-2.4,2.8-2.4Z"/>
    <rect class="st4" x="3" y="20.4" width="56.8" height="25.2"/>
    <path class="st0" d="M3,16.1v4.3h2.9v-4.3h-2.9ZM10.7,16.1v4.3h2.9v-4.3h-2.9ZM18.4,16.1v4.3h2.9v-4.3h-2.9ZM26.1,16.1v4.3h2.9v-4.3h-2.9ZM33.8,16.1v4.3h2.9v-4.3h-2.9ZM41.5,16.1v4.3h2.9v-4.3h-2.9ZM49.2,16.1v4.3h2.9v-4.3h-2.9ZM56.9,16.1v4.3h2.9v-4.3h-2.9ZM3,45.6v4.3h2.9v-4.3h-2.9ZM10.7,45.6v4.3h2.9v-4.3h-2.9ZM18.4,45.6v4.3h2.9v-4.3h-2.9ZM26.1,45.6v4.3h2.9v-4.3h-2.9ZM33.8,45.6v4.3h2.9v-4.3h-2.9ZM41.5,45.6v4.3h2.9v-4.3h-2.9ZM49.2,45.6v4.3h2.9v-4.3h-2.9ZM56.9,45.6v4.3h2.9v-4.3h-2.9Z"/>
    <path class="st6" d="M7.8,24.7v18.2h2.9v-7.8h7.7v-2.6h-7.7v-5.2h8.7v-2.6H7.8ZM23.7,24.7c-.4,0-.8.1-1,.3-.3.2-.4.5-.4,1s.1.8.4,1c.3.2.6.3,1,.3s.7-.1,1-.3c.3-.2.4-.6.4-1s-.2-.8-.4-1c-.3-.2-.6-.3-1-.3ZM28.9,24.7v18.2h2.9v-18.2h-2.9ZM22.2,29.1v13.9h2.9v-13.9h-2.9ZM42.2,29.1c-.8,0-1.6.2-2.4.5-.7.3-1.3.9-1.8,1.6h-.1l-.3-1.9h-1.9v13.6h2.8v-7.1c0-1.6.3-2.8.8-3.7s1-1.3,2.5-1.3,2.6,1.1,2.6,3.2v8.8h2.9v-7.5c0-2,.2-4.3,3.1-4.5,1.9,0,2.6,1.1,2.6,3.2v8.8h2.9v-8.9c0-1.7-.4-3-1.2-3.8s-2-1.2-3.6-1.2-1.8.2-2.6.6-1.4.9-1.9,1.7h-.1c-.7-1.5-2.1-2.3-4.3-2.3Z"/>
    <path class="st0" d="M10.7,42.1h-2.9v-18.2h11.5v2.6h-8.7v5.2h7.7v2.6h-7.7v7.8Z"/>
    <path class="st0" d="M23.7,23.9c.4,0,.7.1,1,.3.3.2.4.5.4,1s-.1.8-.4,1c-.3.2-.6.3-1,.3s-.8-.1-1-.3c-.3-.2-.4-.6-.4-1s.1-.8.4-1c.3-.2.6-.3,1-.3Z"/>
    <path class="st0" d="M25.1,28.2v13.9h-2.9v-13.9h2.9Z"/>
    <path class="st0" d="M31.8,42.1h-2.9v-18.2h2.9v18.2Z"/>
    <path class="st0" d="M51.1,28.2c1.6,0,2.8.4,3.6,1.2.8.8,1.2,2.1,1.2,3.8v8.9h-2.9v-8.8c0-2.2-.7-3.2-2.6-3.2-2.9.2-3.1,2.5-3.1,4.5v7.5h-2.9v-8.8c0-2.2-.7-3.2-2.6-3.2s-1.9.4-2.5,1.3-.8,2.1-.8,3.7v7.1h-2.8v-13.6h1.9l.3,1.9h.1c.4-.7,1-1.2,1.8-1.6.8-.4,1.6-.5,2.4-.5,2.2,0,3.6.8,4.3,2.3h.1c.5-.8,1.1-1.4,1.9-1.7.8-.4,1.7-.6,2.6-.6Z"/>
    <path class="st5" d="M3,49.9v.9h2.9v-.9h-2.9ZM10.7,49.9v.9h2.9v-.9h-2.9ZM18.4,49.9v.9h2.9v-.9h-2.9ZM26.1,49.9v.9h2.9v-.9h-2.9ZM33.8,49.9v.9h2.9v-.9h-2.9ZM41.5,49.9v.9h2.9v-.9h-2.9ZM49.2,49.9v.9h2.9v-.9h-2.9ZM56.9,49.9v.9h2.9v-.9h-2.9Z"/>
    <rect class="st5" x="3" y="20.4" width="56.8" height=".9"/>
    <rect class="st2" x="3" y="45.6" width="56.8" height=".9"/>
    <path class="st1" d="M5.8,11.7c-1.6,0-2.8,1.1-2.8,2.4v.9c0-1.3,1.3-2.4,2.8-2.4h51.1c1.6,0,2.8,1.1,2.8,2.4v-.9c0-1.3-1.3-2.4-2.8-2.4H5.8Z"/>
  </g>
</svg>