<?xml version="1.0" encoding="UTF-8"?>
<svg id="_图层_1" xmlns="http://www.w3.org/2000/svg" version="1.1" viewBox="0 0 64 64" width="16" height="16">
  <!-- Generator: Adobe Illustrator 29.0.1, SVG Export Plug-In . SVG Version: 2.1.0 Build 192)  -->
  <defs>
    <style>
      .st0, .st1, .st2, .st3 {
        opacity: .2;
      }

      .st0, .st4, .st5, .st3, .st6 {
        display: none;
      }

      .st0, .st7, .st2, .st3 {
        isolation: isolate;
      }

      .st8, .st7, .st3 {
        fill: #fff;
      }

      .st4 {
        fill: #e78117;
      }

      .st9, .st6 {
        fill: #dd2525;
      }

      .st7 {
        opacity: .5;
      }
    </style>
  </defs>
  <path class="st9" d="M50.4,64H13.8c-7.6,0-13.8-6.2-13.8-13.7V13.7C0,6.2,6.2,0,13.7,0h36.6c7.5,0,13.7,6.2,13.7,13.7v36.6c0,7.5-6.2,13.7-13.7,13.7h.1Z"/>
  <g class="st5">
    <path class="st0" d="M3.2,1.1h57.5c1.8,0,3.2,1.4,3.2,3.2v57.6c0,1.8-1.4,3.2-3.2,3.2H3.2c-1.8,0-3.2-1.4-3.2-3.2V4.3C0,2.5,1.4,1.1,3.2,1.1Z"/>
    <rect class="st4" width="63.9" height="64" rx="3.2" ry="3.2"/>
    <path class="st7" d="M3.3,5.9v43.7h4.4V7.7h48.5v48.5H14.3v4.4h44c1.3,0,2.3-1,2.3-2.3V5.7c0-1.3-1-2.3-2.3-2.3H5.9c-1.4,0-2.6,1.2-2.6,2.6ZM3.3,54.1v4.1c0,1.4,1.1,2.6,2.6,2.6h4.1v-6.6H3.3Z"/>
    <path class="st3" d="M3.2,0C1.4,0,0,1.4,0,3.2v1.1C0,2.5,1.4,1.1,3.2,1.1h57.5c1.8,0,3.2,1.4,3.2,3.2v-1.1c0-1.8-1.4-3.2-3.2-3.2H3.2Z"/>
    <g class="st1">
      <path d="M31,44.9c1.1,0,1.9,0,2.6-.3.7-.2,1.3-.5,1.7-.8.4-.3.7-.7.9-1.2.2-.4.2-1,.2-1.5,0-1.2-.5-2.1-1.5-2.9-1-.8-3.2-1.6-5.7-2.5-1.1-.4-2.2-.9-3.3-1.4-1.1-.6-2.1-1.2-2.9-2-.9-.8-1.6-1.8-2.1-3-.5-1.2-.8-2.6-.8-4.3s.3-3.1.9-4.5c.6-1.3,1.4-2.5,2.4-3.4,1.1-.9,2.3-1.6,3.8-2.1,1.5-.5,3.2-.8,5.1-.8s4.6.3,6.3.8,3,1.1,4,1.7l-2.2,6.4c-.9-.5-2-1-3.1-1.3-1.1-.4-2.9-.6-4.5-.6s-3.1.3-3.9.8c-.8.5-1.2,1.3-1.2,2.4s.1,1.2.4,1.7c.3.4.7.9,1.2,1.2.5.3,1.2.7,1.8,1,.7.3,1.5.6,2.3.9,1.7.7,3.7,1.4,5,2.1,1.3.7,2.3,1.4,3.2,2.3.9.9,1.5,2,1.9,3.2.4,1.2.6,2.7.6,4.4,0,3.4-1.1,6-3.3,7.8-2.2,1.8-5.5,2.7-9.8,2.7s-2.8-.1-4-.3c-1.2-.2-2.2-.4-3.2-.7-.9-.3-1.7-.6-2.4-.9-.6-.3-1.2-.6-1.6-.9l2.1-6.4c1,.6,2.2,1.1,3.6,1.6,1.5.4,3.3.7,5.4.7Z"/>
    </g>
    <path class="st8" d="M31,43.8c1.1,0,1.9,0,2.6-.3.7-.2,1.3-.5,1.7-.8.4-.3.7-.7.9-1.2.2-.4.2-1,.2-1.5,0-1.2-.5-2.1-1.5-2.9-1-.8-3.2-1.6-5.7-2.5-1.1-.4-2.2-.9-3.3-1.4-1.1-.6-2.1-1.2-2.9-2-.9-.8-1.6-1.8-2.1-3-.5-1.2-.8-2.6-.8-4.3s.3-3.1.9-4.5c.6-1.3,1.4-2.5,2.4-3.4,1.1-.9,2.3-1.6,3.8-2.1,1.5-.5,3.2-.8,5.1-.8s4.6.3,6.3.8,3,1.1,4,1.7l-2.2,6.4c-.9-.5-2-1-3.1-1.3-1.1-.4-2.9-.6-4.5-.6s-3.1.3-3.9.8c-.8.5-1.2,1.3-1.2,2.4s.1,1.2.4,1.7c.3.4.7.9,1.2,1.2.5.3,1.2.7,1.8,1,.7.3,1.5.6,2.3.9,1.7.7,3.7,1.4,5,2.1,1.3.7,2.3,1.4,3.2,2.3.9.9,1.5,2,1.9,3.2.4,1.2.6,2.7.6,4.4,0,3.4-1.1,6-3.3,7.8-2.2,1.8-5.5,2.7-9.8,2.7s-2.8-.1-4-.3c-1.2-.2-2.2-.4-3.2-.7-.9-.3-1.7-.6-2.4-.9-.6-.3-1.2-.6-1.6-.9l2.1-6.4c1,.6,2.2,1.1,3.6,1.6,1.5.4,3.3.7,5.4.7Z"/>
  </g>
  <g>
    <path class="st0" d="M3.2,1.1h57.5c1.8,0,3.2,1.4,3.2,3.2v57.7c0,1.8-1.4,3.2-3.2,3.2H3.2c-1.8,0-3.2-1.4-3.2-3.2V4.3C0,2.5,1.4,1.1,3.2,1.1Z"/>
    <path class="st6" d="M3.2,0h57.5c1.8,0,3.2,1.4,3.2,3.2v57.7c0,1.8-1.4,3.2-3.2,3.2H3.2c-1.8,0-3.2-1.4-3.2-3.2V3.2C0,1.4,1.4,0,3.2,0Z"/>
    <path class="st3" d="M3.2,0C1.4,0,0,1.4,0,3.2v1.1C0,2.5,1.4,1.1,3.2,1.1h57.5c1.8,0,3.2,1.4,3.2,3.2v-1.1c0-1.8-1.4-3.2-3.2-3.2H3.2Z"/>
    <path class="st2" d="M46.3,14.4v6.6h-11v30.9h-6.6v-30.9h-11v-6.6h28.6Z"/>
    <path class="st8" d="M46.3,13.3v6.6h-11v30.9h-6.6v-30.9h-11v-6.6h28.6Z"/>
    <path class="st7" d="M3.3,6.2v43.5h4.4V7.7h48.5v48.6H14.3v4.4h42.9c1.9,0,3.4-1.5,3.4-3.4V6.6c0-1.8-1.5-3.3-3.3-3.3H6.2c-1.6,0-2.9,1.3-2.9,2.9ZM3.3,54.1v3.4c0,1.8,1.4,3.2,3.2,3.2h3.4v-6.6H3.3Z"/>
  </g>
</svg>