<?xml version="1.0" encoding="UTF-8"?>
<svg id="_图层_1" xmlns="http://www.w3.org/2000/svg" version="1.1" viewBox="0 0 64 64" width="16" height="16">
  <!-- Generator: Adobe Illustrator 29.0.1, SVG Export Plug-In . SVG Version: 2.1.0 Build 192)  -->
  <defs>
    <style>
      .st0 {
        fill: #ff96bf;
      }

      .st0, .st1, .st2, .st3, .st4, .st5, .st6 {
        fill-rule: evenodd;
      }

      .st7 {
        fill: #17b473;
      }

      .st1, .st2, .st8, .st9, .st10, .st11 {
        isolation: isolate;
      }

      .st1, .st2, .st9, .st10 {
        opacity: .2;
      }

      .st12 {
        fill: #3f3f3f;
      }

      .st13 {
        fill: #ffab27;
      }

      .st14 {
        fill: none;
        stroke: #fff;
        stroke-linecap: round;
        stroke-linejoin: round;
        stroke-width: 3px;
      }

      .st15 {
        fill: #4b3c9b;
      }

      .st16 {
        fill: #325481;
      }

      .st17 {
        fill: #bfbfbf;
      }

      .st2, .st10, .st11 {
        fill: #fff;
      }

      .st8 {
        opacity: .4;
      }

      .st3 {
        fill: #ff940a;
      }

      .st4 {
        fill: #fc69a4;
      }

      .st18 {
        display: none;
      }

      .st5 {
        fill: #ee4075;
      }

      .st19 {
        fill: #f02096;
      }

      .st6 {
        fill: #ffcbdb;
      }

      .st20 {
        fill: #f16d00;
      }

      .st21 {
        fill: #0184bc;
      }

      .st22 {
        fill: #298464;
      }

      .st11 {
        opacity: .1;
      }
    </style>
  </defs>
  <path class="st12" d="M50.4,64H13.8c-7.6,0-13.8-6.2-13.8-13.7V13.7C0,6.2,6.2,0,13.7,0h36.6c7.5,0,13.7,6.2,13.7,13.7v36.6c0,7.5-6.2,13.7-13.7,13.7h.1Z"/>
  <g class="st18">
    <path class="st9" d="M12,49.5v3.8c0,1.9,1.3,3.5,3,4v1.2c0,1.1.9,2,2,2h4c1.1,0,2-.9,2-2v-1h17v1c0,1.1.9,2,2,2h4c1.1,0,2-.9,2-2v-1.2c1.7-.5,3-2.1,3-4v-3.8H12Z"/>
    <path class="st13" d="M16.2,3.5c-2.3,0-4.2,1.9-4.2,4.2v5.8h39v-5.8c0-2.3-1.9-4.2-4.2-4.2h-30.6Z"/>
    <path class="st7" d="M12,48.5v3.8c0,2.3,1.9,4.2,4.2,4.2h30.6c2.3,0,4.2-1.9,4.2-4.2v-3.8H12Z"/>
    <rect class="st19" x="12" y="13.5" width="39" height="10"/>
    <rect class="st15" x="12" y="26.5" width="39" height="11"/>
    <rect class="st21" x="12" y="37.5" width="39" height="11"/>
    <path class="st9" d="M18.5,11.5c-.8,0-1.5.7-1.5,1.5h0v7c0,.8.7,1.5,1.5,1.5.8,0,1.5-.7,1.5-1.5,0,0,0,0,0,0v-7c0-.8-.7-1.5-1.5-1.5,0,0,0,0,0,0ZM18.5,31.5c-.8,0-1.5.7-1.5,1.5h0v7c0,.8.7,1.5,1.5,1.5.8,0,1.5-.7,1.5-1.5,0,0,0,0,0,0v-7c0-.8-.7-1.5-1.5-1.5,0,0,0,0,0,0Z"/>
    <path class="st14" d="M18.5,12v7"/>
    <path class="st14" d="M18.5,32v7"/>
    <rect class="st7" x="15" y="51.5" width="8" height="8" rx="2" ry="2"/>
    <rect class="st7" x="40" y="51.5" width="8" height="8" rx="2" ry="2"/>
    <rect class="st9" x="12" y="23.5" width="39" height="1"/>
    <rect class="st11" x="12" y="26.5" width="39" height="1"/>
    <path class="st10" d="M16.2,3.5c-2.3,0-4.2,1.9-4.2,4.2v1c0-2.3,1.9-4.2,4.2-4.2h30.6c2.3,0,4.2,1.9,4.2,4.2v-1c0-2.3-1.9-4.2-4.2-4.2h-30.6Z"/>
  </g>
  <g class="st18">
    <path class="st9" d="M62.4,35.9c0,11.8-13.4,21.4-30,21.4S2.4,47.7,2.4,35.9h0c0-11.8,13.4-21.4,30-21.4s30,9.6,30,21.4h0Z"/>
    <path class="st22" d="M62.4,34.9c0,11.8-13.4,21.4-30,21.4S2.4,46.7,2.4,34.9,15.9,13.5,32.4,13.5s30,9.6,30,21.4Z"/>
    <path class="st11" d="M33.3,13.5c-16.6-.3-30.4,9-30.9,20.8,0,.2,0,.4,0,.6,0,.2,0,.4,0,.6.3-11.8,14-21.2,30.6-21,0,0,.2,0,.3,0,15.9.3,28.7,9.5,29.1,20.9,0-.2,0-.3,0-.5,0-11.6-12.9-21.1-29.1-21.4Z"/>
    <path class="st1" d="M48,46.9c-1.6,2.4-14.7-6.2-17.4-6.5-3.2-.3-17.9,4.2-19.8,1.7-2.3-3.1,10-13.3,9.7-16.1-.3-3.1-3.3-15.8-1.5-18.4,1.6-2.4,18.9,9.8,21.9,9.5,3.2-.3,12.7-4.3,15.4-2.6,2.5,1.5-9.2,12.5-8.9,15.3.3,3.1,2.5,14.5.8,17.1Z"/>
    <path class="st5" d="M48,45.9c-1.6,2.4-14.7-6.2-17.4-6.5-3.2-.3-17.9,4.2-19.8,1.7-2.3-3.1,10-13.3,9.7-16.1-.3-3.1-3.3-15.8-1.5-18.4,1.6-2.4,18.9,9.8,21.9,9.5,3.2-.3,12.7-4.3,15.4-2.6,2.5,1.5-9.2,12.5-8.9,15.3.3,3.1,2.5,14.5.8,17.1Z"/>
    <path class="st2" d="M19.7,6.3c-.4,0-.7,0-.8.3-.5.7-.6,2-.5,3.7,0-1.2.2-2.2.5-2.7,1.6-2.4,18.9,9.8,21.9,9.5,3.2-.3,12.7-4.3,15.4-2.6.1,0,.2.1.2.2.2-.6.1-1-.2-1.2-2.7-1.7-12.2,2.3-15.4,2.6-2.6.3-17.1-9.7-21-9.8ZM20.3,25.6c-.9,3.2-10.7,11.8-9.8,15.1.8-4.1,10.1-12.2,9.9-14.6,0-.1,0-.3,0-.5ZM47.3,29.3c0,.2,0,.4,0,.5.2,2.1,1.3,8.2,1.4,12.6,0-4.3-1.1-10.6-1.4-13.1Z"/>
    <path class="st1" d="M27.1,47.3c-2-.4-2.9-8.8-4.1-10.6-1.2-1.7-15.2-14.6-14.5-17.5.5-2,15.9-.1,17.6-1.3,1.7-1.2,7-13,9-12.6,2,.4,4.1,12.4,5.2,14.1,1.2,1.7,14.5,8.8,14.1,10.8-.4,2-12,7.4-13.7,8.5-1.7,1.2-11.7,8.9-13.7,8.5Z"/>
    <path class="st4" d="M27.1,46.3c-2-.4-2.9-8.8-4.1-10.6-1.2-1.7-15.2-14.6-14.5-17.5.5-2,15.9-.1,17.6-1.3s7-13,9-12.6c2,.4,4.1,12.4,5.2,14.1,1.2,1.7,14.5,8.8,14.1,10.8-.4,2-12,7.4-13.7,8.5-1.7,1.2-11.7,8.9-13.7,8.5Z"/>
    <path class="st2" d="M34.9,4.3c-2.2.3-7.2,11.5-8.8,12.6-1.7,1.2-17.1-.7-17.6,1.3,0,.2,0,.5,0,.8,1.3-1.7,15.9,0,17.5-1.1,1.7-1.2,7-13,9-12.6,2,.4,4.1,12.4,5.2,14.1,1.1,1.6,12.4,7.7,13.9,10.2,0-.1.2-.3.2-.4.4-2-12.9-9.1-14.1-10.8-1.2-1.7-3.2-13.7-5.2-14.1,0,0-.1,0-.2,0Z"/>
    <path class="st1" d="M38.7,43.2c-2.2.9-7.8-3.4-10-4.3-2.2-.9-18-5.8-18.3-9.2-.2-2.4,10.5-4.3,11.4-6.5.9-2.2-.4-13,1.8-13.9,2.2-.9,9.5,10.1,11.7,11s14.2-3.7,15.1-1.5c.9,2.2-9,10.8-9.9,12.9-.9,2.2.4,10.5-1.8,11.4Z"/>
    <path class="st0" d="M38.7,42.2c-2.2.9-7.8-3.4-10-4.3-2.2-.9-18-5.8-18.3-9.2-.2-2.4,10.5-4.3,11.4-6.5.9-2.2-.4-13,1.8-13.9,2.2-.9,9.5,10.1,11.7,11s14.2-3.7,15.1-1.5c.9,2.2-9,10.8-9.9,12.9-.9,2.2.4,10.5-1.8,11.4Z"/>
    <path class="st2" d="M23.9,8.3c0,0-.2,0-.2,0-2.2.9-.8,11.7-1.8,13.9-.9,2.2-11.7,4.1-11.4,6.5,0,.2,0,.3.1.5,1.2-2.1,10.4-3.9,11.3-5.9.9-2.2-.4-13,1.8-13.9,2.2-.9,9.5,10.1,11.7,11,2.2.9,13.7-3.5,15-1.6.1-.4.2-.7,0-.9-.9-2.2-12.9,2.4-15.1,1.5-2.1-.9-9-11.2-11.5-11Z"/>
    <path class="st1" d="M44.4,30.6c-.8,1.7-8.4,1.1-10.2,1.7-1.7.6-4.3,5.7-6,5-1.7-.8-4.6-4.5-5.3-6.3-.6-1.7-7.2-9.6-6.4-11.3.8-1.7,10.2-1.7,12-2.4,1.7-.6,10.2-8.7,11.9-7.9,1.7.8-1.7,13.4-1.1,15.2.6,1.7,5.9,4.4,5.1,6Z"/>
    <path class="st6" d="M44.4,29.6c-.8,1.7-8.4,1.1-10.2,1.7-1.7.6-4.3,5.7-6,5-1.7-.8-4.6-4.5-5.3-6.3-.6-1.7-7.2-9.6-6.4-11.3.8-1.7,10.2-1.7,12-2.4,1.7-.6,10.2-8.7,11.9-7.9,1.7.8-1.7,13.4-1.1,15.2.6,1.7,5.9,4.4,5.1,6Z"/>
    <path class="st3" d="M37.7,25.5c-.1.8.4,2.3-.2,2.9-.8.8-3,1.1-4.1,1.5-.8.3-2,1.5-2.8,1.4-1.2-.2-2.4-1.9-3.4-2.5-.7-.5-2.4-.8-2.6-1.6-.4-1.1.6-2.9.7-4,.1-.8-.4-2.3.2-2.9.8-.8,3-1.1,4.1-1.5.8-.3,2-1.5,2.8-1.4,1.2.2,2.4,1.9,3.4,2.5.7.5,2.4.8,2.6,1.6.4,1.1-.6,2.9-.7,4h0Z"/>
    <path class="st2" d="M40.2,8.3c-2-.2-10.1,7.3-11.7,8-1.7.6-11.2.7-12,2.4,0,.2,0,.5,0,.9,1-1.6,10.2-1.7,11.9-2.3,1.7-.6,10.2-8.7,11.9-7.9.3.1.4.6.4,1.3,0-1.2,0-2.1-.4-2.3,0,0-.1,0-.2,0ZM39.2,23.3c0,.6,0,1.1,0,1.3.5,1.4,4.2,3.5,5,5.1,0,0,0,0,0,0,.8-1.7-4.5-4.3-5.1-6.1,0,0,0-.2,0-.3Z"/>
  </g>
  <g>
    <path class="st9" d="M37.5,6.4c-10.4,0-18.9,8.5-18.9,18.7h0c0,1.4.5,2.6.8,4l-7.3,10.7c-.9,1.1-1.7,2.4-2,3.9-.4,1.7,0,3.3.3,4.6h0s0,0,0,0c1.1,3.6,4.7,6.7,8.2,7.3,1.5.3,3.4.4,5.1-.3,1.7-.6,2.7-1.6,3.5-2.3l10.7-9.2c10.2-.3,18.5-8.5,18.5-18.7S47.9,6.4,37.5,6.4Z"/>
    <path class="st20" d="M37.5,5.6c-10.4,0-18.9,8.5-18.9,18.7h0c0,1.4.5,2.6.8,4l-7.3,10.7c-.9,1.1-1.7,2.4-2,3.9-.4,1.7,0,3.3.3,4.6h0s0,0,0,0c1.1,3.6,4.7,6.7,8.2,7.3,1.5.3,3.4.4,5.1-.3,1.7-.6,2.7-1.6,3.5-2.3l10.7-9.2c10.2-.3,18.5-8.5,18.5-18.7S47.9,5.6,37.5,5.6Z"/>
    <path class="st16" d="M25.9,27.8l-9.6,14.1c-1.3,1.4-1.4,2.4-.9,4,.7,2.3,2.1,3.4,4.2,3.7,2.1.4,2.8,0,4.4-1.4l13.4-11.5.3.2-11.7-9.2Z"/>
    <ellipse class="st9" cx="37.5" cy="25.2" rx="13.8" ry="13.6"/>
    <ellipse class="st17" cx="37.5" cy="24.3" rx="13.8" ry="13.6"/>
    <path class="st8" d="M25.7,17.3l-.7,1.3c.7,5,2.4,8.6,5.8,11.7,3.3,2.9,7.9,4.9,13.9,5.6l1.6-1.1c-6.2-.6-11.4-2.5-14.6-5.4-3.2-2.9-5.4-7.3-6-12.1Z"/>
    <path class="st10" d="M37.5,5.6c-10.4,0-19,8.5-19,18.7h0c0,0,0,.1,0,.2.3-10,8.7-18.1,18.9-18.1,10.3,0,18.7,8.2,18.9,18.3,0-.1,0-.3,0-.4,0-10.3-8.5-18.7-18.9-18.7ZM19.2,28.5l-7.1,10.5c-.9,1.1-1.7,2.4-2,3.9-.1.7-.2,1.4-.1,2,0-.4,0-.8.1-1.2.3-1.5,1.1-2.9,2-3.9l7.3-10.7c0-.2-.1-.4-.2-.6Z"/>
    <path class="st10" d="M37.5,10.7c-7.6,0-13.8,6.1-13.8,13.6,0,.2,0,.3,0,.5.2-7.4,6.3-13.3,13.8-13.3,7.4,0,13.5,5.8,13.8,13.1,0-.1,0-.2,0-.4,0-7.5-6.2-13.6-13.8-13.6Z"/>
  </g>
</svg>