<?xml version="1.0" encoding="UTF-8"?>
<svg id="_图层_1" xmlns="http://www.w3.org/2000/svg" version="1.1" xmlns:xlink="http://www.w3.org/1999/xlink" viewBox="0 0 64 64" width="16" height="16">
  <!-- Generator: Adobe Illustrator 29.0.1, SVG Export Plug-In . SVG Version: 2.1.0 Build 192)  -->
  <defs>
    <style>
      .st0 {
        fill: #ff96bf;
      }

      .st0, .st1, .st2, .st3, .st4, .st5, .st6 {
        fill-rule: evenodd;
      }

      .st7 {
        fill: #4f4f4f;
      }

      .st8 {
        fill: #ffc102;
      }

      .st9 {
        fill: #17b473;
      }

      .st10, .st1, .st11, .st2, .st12, .st13, .st14, .st15, .st16 {
        isolation: isolate;
      }

      .st10, .st1, .st2, .st13, .st14, .st15 {
        opacity: .2;
      }

      .st10, .st17, .st18, .st19, .st15 {
        display: none;
      }

      .st20 {
        fill: #fcf8fd;
      }

      .st21 {
        fill: #3f3f3f;
      }

      .st22, .st2, .st14, .st15, .st16 {
        fill: #fff;
      }

      .st23 {
        fill: #115b39;
      }

      .st24 {
        fill: #ffab27;
      }

      .st25 {
        fill: none;
        stroke: #fff;
        stroke-linecap: round;
        stroke-linejoin: round;
        stroke-width: 3px;
      }

      .st26 {
        fill: #4b3c9b;
      }

      .st17 {
        fill: #c2352a;
      }

      .st27 {
        fill: #325481;
      }

      .st28 {
        fill: #bfbfbf;
      }

      .st29 {
        fill: #c1eaff;
      }

      .st18 {
        fill: #1a97d6;
      }

      .st11, .st16 {
        opacity: .1;
      }

      .st30 {
        fill: #653578;
      }

      .st31 {
        fill: #eceeeb;
      }

      .st32 {
        fill: url(#_未命名的渐变_3);
      }

      .st12 {
        opacity: .4;
      }

      .st3 {
        fill: #ff940a;
      }

      .st4 {
        fill: #fc69a4;
      }

      .st33 {
        fill: #7d329a;
      }

      .st5 {
        fill: #ee4075;
      }

      .st34 {
        fill: #19e91f;
      }

      .st35 {
        fill: #f02096;
      }

      .st6 {
        fill: #ffcbdb;
      }

      .st36 {
        fill: #f16d00;
      }

      .st37 {
        fill: #0184bc;
      }

      .st38 {
        fill: #298464;
      }
    </style>
    <linearGradient id="_未命名的渐变_3" data-name="未命名的渐变 3" x1="224.3" y1="-227.4" x2="238" y2="-235.3" gradientTransform="translate(-275.5 -278.7) scale(1.4 -1.3)" gradientUnits="userSpaceOnUse">
      <stop offset="0" stop-color="#7d329a"/>
      <stop offset="1" stop-color="#ac5cce"/>
    </linearGradient>
  </defs>
  <path class="st21" d="M50.4,64H13.8c-7.6,0-13.8-6.2-13.8-13.7V13.7C0,6.2,6.2,0,13.7,0h36.6c7.5,0,13.7,6.2,13.7,13.7v36.6c0,7.5-6.2,13.7-13.7,13.7h.1Z"/>
  <g class="st19">
    <path class="st13" d="M12,49.5v3.8c0,1.9,1.3,3.5,3,4v1.2c0,1.1.9,2,2,2h4c1.1,0,2-.9,2-2v-1h17v1c0,1.1.9,2,2,2h4c1.1,0,2-.9,2-2v-1.2c1.7-.5,3-2.1,3-4v-3.8H12Z"/>
    <path class="st24" d="M16.2,3.5c-2.3,0-4.2,1.9-4.2,4.2v5.8h39v-5.8c0-2.3-1.9-4.2-4.2-4.2h-30.6Z"/>
    <path class="st9" d="M12,48.5v3.8c0,2.3,1.9,4.2,4.2,4.2h30.6c2.3,0,4.2-1.9,4.2-4.2v-3.8H12Z"/>
    <rect class="st35" x="12" y="13.5" width="39" height="10"/>
    <rect class="st26" x="12" y="26.5" width="39" height="11"/>
    <rect class="st37" x="12" y="37.5" width="39" height="11"/>
    <path class="st13" d="M18.5,11.5c-.8,0-1.5.7-1.5,1.5h0v7c0,.8.7,1.5,1.5,1.5.8,0,1.5-.7,1.5-1.5,0,0,0,0,0,0v-7c0-.8-.7-1.5-1.5-1.5,0,0,0,0,0,0ZM18.5,31.5c-.8,0-1.5.7-1.5,1.5h0v7c0,.8.7,1.5,1.5,1.5.8,0,1.5-.7,1.5-1.5,0,0,0,0,0,0v-7c0-.8-.7-1.5-1.5-1.5,0,0,0,0,0,0Z"/>
    <path class="st25" d="M18.5,12v7"/>
    <path class="st25" d="M18.5,32v7"/>
    <rect class="st9" x="15" y="51.5" width="8" height="8" rx="2" ry="2"/>
    <rect class="st9" x="40" y="51.5" width="8" height="8" rx="2" ry="2"/>
    <rect class="st13" x="12" y="23.5" width="39" height="1"/>
    <rect class="st16" x="12" y="26.5" width="39" height="1"/>
    <path class="st14" d="M16.2,3.5c-2.3,0-4.2,1.9-4.2,4.2v1c0-2.3,1.9-4.2,4.2-4.2h30.6c2.3,0,4.2,1.9,4.2,4.2v-1c0-2.3-1.9-4.2-4.2-4.2h-30.6Z"/>
  </g>
  <g class="st19">
    <path class="st13" d="M62.4,35.9c0,11.8-13.4,21.4-30,21.4S2.4,47.7,2.4,35.9h0c0-11.8,13.4-21.4,30-21.4s30,9.6,30,21.4h0Z"/>
    <path class="st38" d="M62.4,34.9c0,11.8-13.4,21.4-30,21.4S2.4,46.7,2.4,34.9,15.9,13.5,32.4,13.5s30,9.6,30,21.4Z"/>
    <path class="st16" d="M33.3,13.5c-16.6-.3-30.4,9-30.9,20.8,0,.2,0,.4,0,.6,0,.2,0,.4,0,.6.3-11.8,14-21.2,30.6-21,0,0,.2,0,.3,0,15.9.3,28.7,9.5,29.1,20.9,0-.2,0-.3,0-.5,0-11.6-12.9-21.1-29.1-21.4Z"/>
    <path class="st1" d="M48,46.9c-1.6,2.4-14.7-6.2-17.4-6.5-3.2-.3-17.9,4.2-19.8,1.7-2.3-3.1,10-13.3,9.7-16.1-.3-3.1-3.3-15.8-1.5-18.4,1.6-2.4,18.9,9.8,21.9,9.5,3.2-.3,12.7-4.3,15.4-2.6,2.5,1.5-9.2,12.5-8.9,15.3.3,3.1,2.5,14.5.8,17.1Z"/>
    <path class="st5" d="M48,45.9c-1.6,2.4-14.7-6.2-17.4-6.5-3.2-.3-17.9,4.2-19.8,1.7-2.3-3.1,10-13.3,9.7-16.1-.3-3.1-3.3-15.8-1.5-18.4,1.6-2.4,18.9,9.8,21.9,9.5,3.2-.3,12.7-4.3,15.4-2.6,2.5,1.5-9.2,12.5-8.9,15.3.3,3.1,2.5,14.5.8,17.1Z"/>
    <path class="st2" d="M19.7,6.3c-.4,0-.7,0-.8.3-.5.7-.6,2-.5,3.7,0-1.2.2-2.2.5-2.7,1.6-2.4,18.9,9.8,21.9,9.5,3.2-.3,12.7-4.3,15.4-2.6.1,0,.2.1.2.2.2-.6.1-1-.2-1.2-2.7-1.7-12.2,2.3-15.4,2.6-2.6.3-17.1-9.7-21-9.8ZM20.3,25.6c-.9,3.2-10.7,11.8-9.8,15.1.8-4.1,10.1-12.2,9.9-14.6,0-.1,0-.3,0-.5ZM47.3,29.3c0,.2,0,.4,0,.5.2,2.1,1.3,8.2,1.4,12.6,0-4.3-1.1-10.6-1.4-13.1Z"/>
    <path class="st1" d="M27.1,47.3c-2-.4-2.9-8.8-4.1-10.6-1.2-1.7-15.2-14.6-14.5-17.5.5-2,15.9-.1,17.6-1.3,1.7-1.2,7-13,9-12.6,2,.4,4.1,12.4,5.2,14.1,1.2,1.7,14.5,8.8,14.1,10.8-.4,2-12,7.4-13.7,8.5-1.7,1.2-11.7,8.9-13.7,8.5Z"/>
    <path class="st4" d="M27.1,46.3c-2-.4-2.9-8.8-4.1-10.6-1.2-1.7-15.2-14.6-14.5-17.5.5-2,15.9-.1,17.6-1.3s7-13,9-12.6c2,.4,4.1,12.4,5.2,14.1,1.2,1.7,14.5,8.8,14.1,10.8-.4,2-12,7.4-13.7,8.5-1.7,1.2-11.7,8.9-13.7,8.5Z"/>
    <path class="st2" d="M34.9,4.3c-2.2.3-7.2,11.5-8.8,12.6-1.7,1.2-17.1-.7-17.6,1.3,0,.2,0,.5,0,.8,1.3-1.7,15.9,0,17.5-1.1,1.7-1.2,7-13,9-12.6,2,.4,4.1,12.4,5.2,14.1,1.1,1.6,12.4,7.7,13.9,10.2,0-.1.2-.3.2-.4.4-2-12.9-9.1-14.1-10.8-1.2-1.7-3.2-13.7-5.2-14.1,0,0-.1,0-.2,0Z"/>
    <path class="st1" d="M38.7,43.2c-2.2.9-7.8-3.4-10-4.3-2.2-.9-18-5.8-18.3-9.2-.2-2.4,10.5-4.3,11.4-6.5.9-2.2-.4-13,1.8-13.9,2.2-.9,9.5,10.1,11.7,11s14.2-3.7,15.1-1.5c.9,2.2-9,10.8-9.9,12.9-.9,2.2.4,10.5-1.8,11.4Z"/>
    <path class="st0" d="M38.7,42.2c-2.2.9-7.8-3.4-10-4.3-2.2-.9-18-5.8-18.3-9.2-.2-2.4,10.5-4.3,11.4-6.5.9-2.2-.4-13,1.8-13.9,2.2-.9,9.5,10.1,11.7,11s14.2-3.7,15.1-1.5c.9,2.2-9,10.8-9.9,12.9-.9,2.2.4,10.5-1.8,11.4Z"/>
    <path class="st2" d="M23.9,8.3c0,0-.2,0-.2,0-2.2.9-.8,11.7-1.8,13.9-.9,2.2-11.7,4.1-11.4,6.5,0,.2,0,.3.1.5,1.2-2.1,10.4-3.9,11.3-5.9.9-2.2-.4-13,1.8-13.9,2.2-.9,9.5,10.1,11.7,11,2.2.9,13.7-3.5,15-1.6.1-.4.2-.7,0-.9-.9-2.2-12.9,2.4-15.1,1.5-2.1-.9-9-11.2-11.5-11Z"/>
    <path class="st1" d="M44.4,30.6c-.8,1.7-8.4,1.1-10.2,1.7-1.7.6-4.3,5.7-6,5-1.7-.8-4.6-4.5-5.3-6.3-.6-1.7-7.2-9.6-6.4-11.3.8-1.7,10.2-1.7,12-2.4,1.7-.6,10.2-8.7,11.9-7.9,1.7.8-1.7,13.4-1.1,15.2.6,1.7,5.9,4.4,5.1,6Z"/>
    <path class="st6" d="M44.4,29.6c-.8,1.7-8.4,1.1-10.2,1.7-1.7.6-4.3,5.7-6,5-1.7-.8-4.6-4.5-5.3-6.3-.6-1.7-7.2-9.6-6.4-11.3.8-1.7,10.2-1.7,12-2.4,1.7-.6,10.2-8.7,11.9-7.9,1.7.8-1.7,13.4-1.1,15.2.6,1.7,5.9,4.4,5.1,6Z"/>
    <path class="st3" d="M37.7,25.5c-.1.8.4,2.3-.2,2.9-.8.8-3,1.1-4.1,1.5-.8.3-2,1.5-2.8,1.4-1.2-.2-2.4-1.9-3.4-2.5-.7-.5-2.4-.8-2.6-1.6-.4-1.1.6-2.9.7-4,.1-.8-.4-2.3.2-2.9.8-.8,3-1.1,4.1-1.5.8-.3,2-1.5,2.8-1.4,1.2.2,2.4,1.9,3.4,2.5.7.5,2.4.8,2.6,1.6.4,1.1-.6,2.9-.7,4h0Z"/>
    <path class="st2" d="M40.2,8.3c-2-.2-10.1,7.3-11.7,8-1.7.6-11.2.7-12,2.4,0,.2,0,.5,0,.9,1-1.6,10.2-1.7,11.9-2.3,1.7-.6,10.2-8.7,11.9-7.9.3.1.4.6.4,1.3,0-1.2,0-2.1-.4-2.3,0,0-.1,0-.2,0ZM39.2,23.3c0,.6,0,1.1,0,1.3.5,1.4,4.2,3.5,5,5.1,0,0,0,0,0,0,.8-1.7-4.5-4.3-5.1-6.1,0,0,0-.2,0-.3Z"/>
  </g>
  <g class="st19">
    <g>
      <path class="st13" d="M37.5,6.4c-10.4,0-18.9,8.5-18.9,18.7h0c0,1.4.5,2.6.8,4l-7.3,10.7c-.9,1.1-1.7,2.4-2,3.9-.4,1.7,0,3.3.3,4.6h0s0,0,0,0c1.1,3.6,4.7,6.7,8.2,7.3,1.5.3,3.4.4,5.1-.3,1.7-.6,2.7-1.6,3.5-2.3l10.7-9.2c10.2-.3,18.5-8.5,18.5-18.7S47.9,6.4,37.5,6.4Z"/>
      <path class="st36" d="M37.5,5.6c-10.4,0-18.9,8.5-18.9,18.7h0c0,1.4.5,2.6.8,4l-7.3,10.7c-.9,1.1-1.7,2.4-2,3.9-.4,1.7,0,3.3.3,4.6h0s0,0,0,0c1.1,3.6,4.7,6.7,8.2,7.3,1.5.3,3.4.4,5.1-.3,1.7-.6,2.7-1.6,3.5-2.3l10.7-9.2c10.2-.3,18.5-8.5,18.5-18.7S47.9,5.6,37.5,5.6Z"/>
      <path class="st27" d="M25.9,27.8l-9.6,14.1c-1.3,1.4-1.4,2.4-.9,4,.7,2.3,2.1,3.4,4.2,3.7,2.1.4,2.8,0,4.4-1.4l13.4-11.5.3.2-11.7-9.2Z"/>
      <ellipse class="st13" cx="37.5" cy="25.2" rx="13.8" ry="13.6"/>
      <ellipse class="st28" cx="37.5" cy="24.3" rx="13.8" ry="13.6"/>
      <path class="st12" d="M25.7,17.3l-.7,1.3c.7,5,2.4,8.6,5.8,11.7,3.3,2.9,7.9,4.9,13.9,5.6l1.6-1.1c-6.2-.6-11.4-2.5-14.6-5.4-3.2-2.9-5.4-7.3-6-12.1Z"/>
      <path class="st14" d="M37.5,5.6c-10.4,0-19,8.5-19,18.7h0c0,0,0,.1,0,.2.3-10,8.7-18.1,18.9-18.1,10.3,0,18.7,8.2,18.9,18.3,0-.1,0-.3,0-.4,0-10.3-8.5-18.7-18.9-18.7ZM19.2,28.5l-7.1,10.5c-.9,1.1-1.7,2.4-2,3.9-.1.7-.2,1.4-.1,2,0-.4,0-.8.1-1.2.3-1.5,1.1-2.9,2-3.9l7.3-10.7c0-.2-.1-.4-.2-.6Z"/>
      <path class="st14" d="M37.5,10.7c-7.6,0-13.8,6.1-13.8,13.6,0,.2,0,.3,0,.5.2-7.4,6.3-13.3,13.8-13.3,7.4,0,13.5,5.8,13.8,13.1,0-.1,0-.2,0-.4,0-7.5-6.2-13.6-13.8-13.6Z"/>
    </g>
  </g>
  <g class="st19">
    <path class="st10" d="M46.1,1.3c-2.3,0-5.4,0-8.9.4-3.4.4-8.3,1.3-12.7,3.7-5.3,2.8-8.5,7-8.5,12h0c-4.3,0-9.1,1.4-11.9,3.5-2.9,2.2-4.1,4.7-4.1,7.2s1.2,5,4.1,7.2c1.1.8,2.7,1.4,4.3,2-2.6,2.8-4.3,6-4.3,9.5,0,10.2,12.7,18.7,28,18.7s28-8.5,28-18.7-1.8-6.7-4.3-9.5c1.6-.6,3.1-1.1,4.2-2,2.9-2.2,4.1-4.7,4.1-7.2s-1.2-5-4.1-7.2c-.4-.3-1-.4-1.4-.6,3.1-1.9,4.8-4.2,5.3-6.6.5-2.4-.1-5.1-2.6-7.5-2.4-2.4-7-4.2-11.3-4.5-.2,0-1.7-.2-3.9-.2Z"/>
    <path class="st17" d="M46.1,0c-2.3,0-5.4,0-8.9.4-3.4.4-8.3,1.3-12.7,3.7-5.3,2.8-8.5,7-8.5,12h0c-4.3,0-9.1,1.4-11.9,3.5-2.9,2.2-4.1,4.7-4.1,7.2s1.2,5,4.1,7.2c1.1.8,2.7,1.4,4.3,2-2.6,2.8-4.3,6-4.3,9.5,0,10.2,12.7,18.7,28,18.7s28-8.5,28-18.7-1.8-6.7-4.3-9.5c1.6-.6,3.1-1.1,4.2-2,2.9-2.2,4.1-4.7,4.1-7.2s-1.2-5-4.1-7.2c-.4-.3-1-.4-1.4-.6,3.1-1.9,4.8-4.2,5.3-6.6.5-2.4-.1-5.1-2.6-7.5-2.4-2.4-7-4.2-11.3-4.5-.2,0-1.7-.2-3.9-.2Z"/>
    <path class="st13" d="M45.7,9.2c-1.7,0-4,0-6.4.3-2.4.3-5,.8-7.3,2s-4,3.3-4,5.7v8h-12c-2.2,0-4,1.2-4,2.6,0,1.5,1.7,2.7,3.9,2.7,0,0,0,0,.1,0h12v5.7c-6.9,1.2-12,5.3-12,10.3s7.2,10.7,16,10.7,16-4.8,16-10.7-5.1-9.1-12-10.3v-5.7h12c2.2,0,4-1.2,4-2.6,0-1.5-1.7-2.7-3.9-2.7,0,0,0,0-.1,0h-12v-8c0-1,.3-1.2,1-1.6.7-.4,2.1-.7,3.7-.9,3.2-.4,6.7,0,6.7,0,2.2.2,4.2-.8,4.6-2.2s-1.1-2.8-3.3-3.1c0,0-.1,0-.2,0,0,0-1.1-.1-2.8-.2ZM32,43.9c2.2,0,4,1.2,4,2.7s-1.8,2.7-4,2.7-4-1.2-4-2.7,1.8-2.7,4-2.7Z"/>
    <path class="st22" d="M45.7,7.9c-1.7,0-4,0-6.4.3-2.4.3-5,.8-7.3,2s-4,3.3-4,5.7v8h-12c-2.2,0-4,1.2-4,2.6,0,1.5,1.7,2.7,3.9,2.7,0,0,0,0,.1,0h12v5.7c-6.9,1.2-12,5.3-12,10.3s7.2,10.7,16,10.7,16-4.8,16-10.7-5.1-9.1-12-10.3v-5.7h12c2.2,0,4-1.2,4-2.6,0-1.5-1.7-2.7-3.9-2.7,0,0,0,0-.1,0h-12v-8c0-1,.3-1.2,1-1.6.7-.4,2.1-.7,3.7-.9,3.2-.4,6.7,0,6.7,0,2.2.2,4.2-.8,4.6-2.2.3-1.5-1.1-2.8-3.3-3.1,0,0-.1,0-.2,0,0,0-1.1-.1-2.8-.2ZM32,42.6c2.2,0,4,1.2,4,2.7s-1.8,2.7-4,2.7-4-1.2-4-2.7,1.8-2.7,4-2.7Z"/>
    <path class="st15" d="M44.2-.1c-2,0-4.4,0-7,.4-3.4.4-8.3,1.3-12.7,3.7-5.3,2.8-8.5,7-8.5,12h0c-4.3,0-9.1,1.4-11.9,3.5-2.9,2.2-4.1,4.7-4.1,7.2s0,.4,0,.7c.2-2.2,1.4-4.6,4-6.5,2.9-2.1,7.6-3.4,11.9-3.5h0c0-4.9,3.2-9.2,8.5-12,4.5-2.4,9.3-3.3,12.7-3.7,3.5-.4,6.6-.4,8.9-.4,2.1,0,3.6.2,3.9.2,4.3.4,8.9,2.1,11.3,4.5,1.7,1.7,2.5,3.5,2.7,5.3.2-2.2-.5-4.5-2.7-6.7-2.4-2.4-7-4.2-11.3-4.5-.2,0-1.7-.2-3.9-.2-.6,0-1.2,0-1.9,0ZM59.7,19.3c-.4.3-.8.5-1.2.8.4.2,1,.4,1.4.6,2.6,2,3.8,4.3,4,6.5,0-.2,0-.4,0-.7,0-2.5-1.2-5-4.1-7.2,0,0-.1,0-.2,0ZM56.5,36.7c-.3.1-.6.2-.9.3,2.4,2.6,4.1,5.6,4.3,8.8,0-.2,0-.4,0-.6,0-3.1-1.4-5.9-3.5-8.5ZM7.5,36.8c-2.1,2.6-3.5,5.4-3.5,8.5s0,.4,0,.6c.2-3.2,1.9-6.2,4.3-8.8-.3-.1-.6-.2-.9-.3Z"/>
  </g>
  <g class="st19">
    <ellipse class="st13" cx="32.8" cy="38" rx="27.5" ry="18"/>
    <ellipse class="st34" cx="32.8" cy="37" rx="27.5" ry="18"/>
    <path class="st14" d="M32.8,19c-15.2,0-27.5,8.1-27.5,18,0,.2,0,.4,0,.6.3-9.8,12.5-17.6,27.5-17.6,14.8,0,27,7.7,27.5,17.4,0-.1,0-.3,0-.4,0-9.9-12.3-18-27.5-18Z"/>
    <path class="st13" d="M18.8,6c-5.8,0-10.5,6.7-10.5,15s4.7,15,10.5,15,10.5-6.7,10.5-15-4.7-15-10.5-15ZM42.8,6c-5.2,0-9.5,6-9.5,13.5s4.3,13.5,9.5,13.5,9.5-6,9.5-13.5-4.3-13.5-9.5-13.5Z"/>
    <ellipse class="st31" cx="42.8" cy="18.5" rx="9.5" ry="13.5"/>
    <path class="st11" d="M13.3,45v-3l6-2.8,5,3,9-3.2,8,3,6-3,5,3v3l-5-3-6,3-8-3-9,3-5-3-6,3Z"/>
    <path class="st23" d="M13.3,44v-3l6-2.8,5,3,9-3.2,8,3,6-3,5,3v3l-5-3-6,3-8-3-9,3-5-3-6,3Z"/>
    <ellipse class="st31" cx="18.8" cy="20" rx="10.5" ry="15"/>
    <circle class="st7" cx="21.8" cy="21.5" r="2.5"/>
    <circle class="st7" cx="40.8" cy="21.5" r="2.5"/>
    <path class="st14" d="M18.8,5c-5.8,0-10.5,6.7-10.5,15,0,.1,0,.3,0,.4.2-8,4.9-14.4,10.5-14.4,5.7,0,10.3,6.5,10.5,14.6,0-.2,0-.4,0-.6,0-8.3-4.7-15-10.5-15ZM42.8,5c-5.2,0-9.5,6-9.5,13.5,0,.1,0,.3,0,.4.2-7.2,4.4-12.9,9.5-12.9,5.1,0,9.3,5.8,9.5,13.1,0-.2,0-.4,0-.6,0-7.5-4.3-13.5-9.5-13.5Z"/>
  </g>
  <g class="st19">
    <path class="st10" d="M31.9,1.1h0c16.5,0,29.8,14.2,29.8,31.8h0c0,17.6-13.3,31.8-29.8,31.8h0c-16.5,0-29.8-14.2-29.8-31.8h0C2.1,15.3,15.5,1.1,31.9,1.1Z"/>
    <path class="st18" d="M31.9,0h0c16.5,0,29.8,14.2,29.8,31.8h0c0,17.6-13.3,31.8-29.8,31.8h0c-16.5,0-29.8-14.2-29.8-31.8h0C2.1,14.2,15.5,0,31.9,0Z"/>
    <path class="st15" d="M31.9,0C15.4,0,2.1,14.2,2.1,31.8s0,.2,0,.4C2.5,14.9,15.6,1.1,31.9,1.1s29.4,13.8,29.8,31.1c0-.1,0-.2,0-.4C61.7,14.2,48.4,0,31.9,0Z"/>
    <path class="st13" d="M1.5,25.2C.7,25.2,0,26,0,26.9c0,.9.6,1.6,1.4,1.6,0,0,2,.2,4.3.7,2.3.6,5,1.6,6.1,2.8.3.3.6.6.9.9-.3.3-.6.6-.9.9-1.1,1.1-3.7,2.2-6.1,2.8-2.3.6-4.3.7-4.3.7-.8,0-1.5.9-1.4,1.8,0,.9.8,1.6,1.7,1.5h0s2.2-.2,4.8-.8c2.6-.6,5.6-1.5,7.6-3.7.4-.4.7-.7,1.1-1,2,1.6,3.9,2.8,5.9,3.3.1,0,.2,0,.3,0h10.6s0,0,0,0h10.6c.1,0,.2,0,.3,0,2-.5,3.9-1.7,5.9-3.3.3.3.7.6,1,1,2,2.1,5,3.1,7.5,3.7,2.6.6,4.7.9,4.7.9.8.1,1.6-.5,1.7-1.4.1-.9-.5-1.7-1.3-1.8,0,0,0,0-.1,0,0,0-2-.2-4.3-.8-2.3-.6-5-1.7-6.1-2.8-.3-.3-.6-.5-.8-.8.3-.3.6-.5.8-.8,1.1-1.1,3.7-2.2,6.1-2.8,2.3-.6,4.3-.7,4.3-.7.8,0,1.5-.9,1.4-1.8,0-.9-.8-1.6-1.7-1.5,0,0-2.2.2-4.8.8-2.6.6-5.6,1.5-7.6,3.7-.3.4-.7.7-1,1-2-1.6-4-2.8-5.9-3.2-.1,0-.2,0-.3,0h-10.6s0,0,0,0h-10.6c-.1,0-.2,0-.3,0-1.9.5-3.9,1.6-5.9,3.3-.4-.3-.7-.7-1.1-1-2-2.1-5-3-7.6-3.7-2.6-.6-4.8-.8-4.8-.8,0,0-.1,0-.2,0h0ZM21.5,30.7h10.3s0,0,0,0h10.3c1.2.3,2.5,1,4,2.2-1.5,1.2-2.9,1.9-4,2.2h-10.3s0,0,0,0h-10.3c-1.1-.3-2.5-1.1-4-2.2,1.5-1.1,2.8-1.9,4-2.2Z"/>
    <path class="st29" d="M1.5,24.1C.7,24.1,0,24.9,0,25.8c0,.9.6,1.6,1.4,1.6,0,0,2,.2,4.3.7,2.3.6,5,1.6,6.1,2.8.3.3.6.6.9.9-.3.3-.6.6-.9.9-1.1,1.1-3.7,2.2-6.1,2.8s-4.3.7-4.3.7c-.8,0-1.5.9-1.4,1.8,0,.9.8,1.6,1.7,1.5h0s2.2-.2,4.8-.8c2.6-.6,5.6-1.5,7.6-3.7.4-.4.7-.7,1.1-1,2,1.6,3.9,2.8,5.9,3.3.1,0,.2,0,.3,0h10.6s0,0,0,0h10.6c.1,0,.2,0,.3,0,2-.5,3.9-1.7,5.9-3.3.3.3.7.6,1,1,2,2.1,5,3.1,7.5,3.7,2.6.6,4.7.9,4.7.9.8.1,1.6-.5,1.7-1.4.1-.9-.5-1.7-1.3-1.8,0,0,0,0-.1,0,0,0-2-.2-4.3-.8-2.3-.6-5-1.7-6.1-2.8-.3-.3-.6-.5-.8-.8.3-.3.6-.5.8-.8,1.1-1.1,3.7-2.2,6.1-2.8,2.3-.6,4.3-.7,4.3-.7.8,0,1.5-.9,1.4-1.8,0-.9-.8-1.6-1.7-1.5,0,0-2.2.2-4.8.8-2.6.6-5.6,1.5-7.6,3.7-.3.4-.7.7-1,1-2-1.6-4-2.8-5.9-3.2-.1,0-.2,0-.3,0h-10.6s0,0,0,0h-10.6c-.1,0-.2,0-.3,0-1.9.5-3.9,1.6-5.9,3.3-.4-.3-.7-.7-1.1-1-2-2.1-5-3-7.6-3.7-2.6-.6-4.8-.8-4.8-.8,0,0-.1,0-.2,0h0ZM21.5,29.6h10.3s0,0,0,0h10.3c1.2.3,2.5,1,4,2.2-1.5,1.2-2.9,1.9-4,2.2h-10.3s0,0,0,0h-10.3c-1.1-.3-2.5-1.1-4-2.2,1.5-1.1,2.8-1.9,4-2.2Z"/>
    <path class="st13" d="M44.8,14.8l-10.5,24.9c-.5,1.2-1.8,1.1-2.5.4l-.2.6c-.8,1.9,1.9,3.1,2.7,1.2l10.8-25.5c.3-.6.1-1.2-.2-1.6ZM18.9,14.8c-.4.5-.5,1.1-.2,1.7l4,9.8h.9l-4.7-11.5ZM31.9,23.7l-10.5,24.7c-.5,1.2-1.8,1.1-2.5.4l-.2.6c-.8,1.9,1.9,3.1,2.7,1.2l10.8-25.3c.3-.6.1-1.2-.2-1.6h0ZM36.3,23.7l-6.5,16c-.5,1.3-1.8,1.2-2.5.4l-.3.6c-.7,1.9,2,3.1,2.8,1.2l6.7-16.6c.2-.6,0-1.2-.2-1.6h0ZM37.3,38.4l5.1,12.3c.9,1.9,3.6.3,2.6-1.5l-.2-.4c-.6.7-1.9.9-2.4-.3l-4.2-10.1h-.9Z"/>
    <path class="st22" d="M20,13.2c-1.1,0-1.9,1.2-1.3,2.3l4.5,10.9h3.3l-5.1-12.3c-.2-.5-.7-.9-1.3-.9ZM43.7,13.2c-.6,0-1.1.4-1.4.9l-10.8,25.5c-.8,1.9,1.9,3.1,2.7,1.2l10.8-25.5c.4-1-.3-2.2-1.4-2.2ZM30.8,22c-.6,0-1.1.4-1.4.9l-10.8,25.3c-.8,1.9,1.9,3.1,2.7,1.2l10.8-25.3c.4-1-.3-2.2-1.4-2.2ZM35.2,22c-.6,0-1.1.4-1.3,1l-6.7,16.6c-.7,1.9,2,3.1,2.8,1.2l6.7-16.6c.4-1-.3-2.2-1.4-2.1ZM37.3,37.3l5.1,12.3c.9,1.9,3.6.3,2.6-1.5l-4.4-10.8h-3.3Z"/>
  </g>
  <g>
    <path class="st13" d="M23.5,30.9c-2.8,7.8-8,16.6-19,15.1.7-6.6,3.7-13.2,7.9-18.5.9-1.1,2.7-1.6,3.4-2.6l7.7,6Z"/>
    <path class="st13" d="M27.8,6.9c-6.5,0-19.5,9.9-21.1,21.7-.5,3.4,0,7,1.2,10.4.7,10.6,15.7,17.3,25.2,17.9,11.5.3,22.3-8.8,24.4-11.2,3.9-5.3-1.6-16.6-6.5-23.3-5.4-7.3-15.3-12.5-23.1-15.5Z"/>
    <path class="st30" d="M23.5,30c-2.8,7.8-8,16.6-19,15.1.7-6.6,3.7-13.2,7.9-18.5.9-1.1,2.7-1.6,3.4-2.6l7.7,6Z"/>
    <path class="st33" d="M27.8,6c-6.5,0-19.5,9.9-21.1,21.7-.5,3.4,0,7,1.2,10.4.7,10.6,15.7,17.3,25.2,17.9,11.5.3,22.3-8.8,24.4-11.2,3.9-5.3-1.6-16.6-6.5-23.3-5.4-7.3-15.3-12.5-23.1-15.5Z"/>
    <path class="st16" d="M27.8,6c-6.5,0-19.5,9.9-21.1,21.7-.1,1-.2,2-.2,3.1,0-.7,0-1.5.2-2.2,1.6-11.8,14.6-21.6,21.1-21.7,7.8,2.9,17.8,8.2,23.1,15.5,3.6,4.9,7.5,12.3,7.8,18,.2-5.8-4-13.8-7.8-18.9-5.4-7.3-15.3-12.5-23.1-15.5Z"/>
    <path class="st20" d="M10.5,33.3c3.5-3.5,10.1-2.9,14.9,1.3,4.7,4.2,5.8,10.3,2.3,13.8-3.5,3.5-10.1,2.9-14.9-1.3-4.7-4.2-5.8-10.3-2.3-13.8Z"/>
    <path class="st13" d="M44,21.2c8.6,2.6,18.1,7.5,16.5,17.8-7.2-.7-14.4-3.5-20.2-7.4-1.2-.8-1.8-2.5-2.8-3.2l6.5-7.2Z"/>
    <path class="st32" d="M44,20.3c8.6,2.6,18.1,7.5,16.5,17.8-7.2-.7-14.4-3.5-20.2-7.4-1.2-.8-1.8-2.5-2.8-3.2l6.5-7.2Z"/>
    <path class="st13" d="M23.9,30.1c1.3,5.4-10.2,10.9-16.1,8.8-2.8-1-3.3-5-3.2-8.1.1-2.7-.2-3.6,2.8-3.8,5.6-.5,15.8.8,16.4,3.1Z"/>
    <path class="st8" d="M23.8,28.9c1.3,5.4-10.2,10.9-16.1,8.8-2.8-1-3.3-5-3.2-8.1.1-2.7-.2-3.6,2.8-3.8,5.6-.5,15.8.8,16.4,3.1Z"/>
    <ellipse class="st13" cx="8.4" cy="23" rx="5.8" ry="5.4"/>
    <ellipse class="st13" cx="21" cy="22.1" rx="8.7" ry="8"/>
    <ellipse class="st22" cx="8.4" cy="22.1" rx="5.8" ry="5.4"/>
    <ellipse class="st22" cx="21" cy="21.2" rx="8.7" ry="8"/>
    <ellipse class="st21" cx="18.1" cy="22.1" rx="3.9" ry="3.6"/>
    <ellipse class="st21" cx="7.5" cy="22.1" rx="2.9" ry="2.7"/>
  </g>
</svg>