<?xml version="1.0" encoding="UTF-8"?>
<svg id="_图层_1" xmlns="http://www.w3.org/2000/svg" version="1.1" viewBox="0 0 64 64" width="16" height="16">
  <!-- Generator: Adobe Illustrator 29.0.1, SVG Export Plug-In . SVG Version: 2.1.0 Build 192)  -->
  <defs>
    <style>
      .st0 {
        fill: #e2527d;
      }

      .st1, .st2, .st3, .st4, .st5, .st6, .st7, .st8 {
        isolation: isolate;
      }

      .st1, .st2, .st3, .st9, .st10, .st8, .st11 {
        display: none;
      }

      .st1, .st7, .st8 {
        opacity: .2;
      }

      .st2, .st3, .st4 {
        opacity: .1;
      }

      .st2, .st12, .st8 {
        fill: #fff;
      }

      .st13 {
        fill: #b8dd16;
      }

      .st5 {
        opacity: .2;
      }

      .st9 {
        fill: #1194f0;
      }

      .st6 {
        opacity: .3;
      }

      .st11, .st14 {
        fill: #e4e4e4;
      }
    </style>
  </defs>
  <path class="st14" d="M50.4,64H13.8c-7.6,0-13.8-6.2-13.8-13.7V13.7C0,6.2,6.2,0,13.7,0h36.6c7.5,0,13.7,6.2,13.7,13.7v36.6c0,7.5-6.2,13.7-13.7,13.7h.1Z"/>
  <g class="st10">
    <path class="st1" d="M0,59.5v2.3c0,1.9,1.5,3.4,3.4,3.4h57c1.9,0,3.4-1.5,3.4-3.4v-2.3c0,1.9-1.5,3.4-3.4,3.4H3.4c-1.9,0-3.4-1.5-3.4-3.4Z"/>
    <rect class="st9" width="63.9" height="64" rx="3.4" ry="3.4"/>
    <path class="st2" d="M3.4,0C1.5,0,0,1.5,0,3.4v1.1C0,2.7,1.5,1.1,3.4,1.1h57c1.9,0,3.4,1.5,3.4,3.4v-1.1c0-1.9-1.5-3.4-3.4-3.4H3.4Z"/>
    <path class="st7" d="M30.8,12.6c-5.6,0-12.6,6.4-12.6,14.9s5.4,17.1,12.8,17.1,5.3-1.4,7.7-4.6c-1.2,4.2-3.2,6.8-6.4,7.6-2.5.6-5.4-.8-7.2-3h-6.8c2.1,5.8,7.4,9.1,13.9,9.1s8.4-1.8,10.9-5.3c1.8-2.7,2.6-6.2,2.6-11.8V13.3h-6.8v3.7s-2.4-4.3-8-4.3h0ZM31.8,19.4c4.1,0,7,3.8,7,9.3s-2.7,9-6.9,9-6.8-3.5-6.8-9,2.7-9.3,6.7-9.3Z"/>
    <path class="st12" d="M30.8,11.4c-5.6,0-12.6,6.4-12.6,14.9s5.4,17.1,12.8,17.1,5.3-1.4,7.7-4.6c-1.2,4.2-3.2,6.8-6.4,7.6-2.5.6-5.4-.8-7.2-3h-6.8c2.1,5.8,7.4,9.1,13.9,9.1s8.4-1.8,10.9-5.3c1.8-2.7,2.6-6.2,2.6-11.8V12.6h-6.8v3.2s-2.4-4.3-8-4.3h0ZM31.8,18.3c4.1,0,7,3.8,7,9.3s-2.7,9-6.9,9-6.8-3.5-6.8-9,2.7-9.3,6.7-9.3Z"/>
  </g>
  <g>
    <path class="st1" d="M5.8,1.2C2.6,1.2,0,4.2,0,8v50.5c0,3.7,2.6,6.7,5.8,6.7h30.5c27.6,0,27.6-11.8,27.6-32V8c0-3.7-2.6-6.7-5.8-6.7H5.8Z"/>
    <path class="st11" d="M5.8,0C2.6,0,0,3,0,6.7v50.5c0,3.7,2.6,6.7,5.8,6.7h30.5c27.6,0,27.6-11.8,27.6-32V6.7c0-3.7-2.6-6.7-5.8-6.7H5.8Z"/>
    <path class="st6" d="M11.5,17.2c-1.6,0-2.9,1.5-2.9,3.4v30.2c0,1.9,1.3,3.4,2.9,3.4h27.9c16.1,0,16.1-8.4,16.1-18.5v-15.1c0-1.9-1.3-3.4-2.9-3.4H11.5Z"/>
    <path class="st13" d="M22.1,22.2h19.8c1.6,0,2.9,1.6,2.9,3.7v19.7c0,2-1.3,3.7-2.9,3.7h-19.8c-1.6,0-2.9-1.6-2.9-3.7v-19.7c0-2,1.3-3.7,2.9-3.7Z"/>
    <ellipse class="st3" cx="12.8" cy="33.2" rx="2.1" ry="2.5"/>
    <ellipse class="st0" cx="12.8" cy="32" rx="2.1" ry="2.5"/>
    <path class="st8" d="M5.8,0C2.6,0,0,3,0,6.7v1.2C0,4.2,2.6,1.2,5.8,1.2h52.4c3.2,0,5.8,3,5.8,6.7v-1.2c0-3.7-2.6-6.7-5.8-6.7H5.8Z"/>
    <path class="st5" d="M9.3,1l-.8,5.2H2.6l-2.1,3.7h62.4l-1.3-3.7h-6.2l-.6-5.4-2.6-.7v6.2H11.7V0l-2.4,1Z"/>
    <path class="st4" d="M22.1,22.2c-1.6,0-2.9,1.6-2.9,3.7v1.2c0-2,1.3-3.7,2.9-3.7h19.8c1.6,0,2.9,1.6,2.9,3.7v-1.2c0-2-1.3-3.7-2.9-3.7h-19.8Z"/>
  </g>
</svg>