<?xml version="1.0" encoding="UTF-8"?>
<svg id="_图层_1" xmlns="http://www.w3.org/2000/svg" version="1.1" viewBox="0 0 64 64" width="16" height="16">
  <!-- Generator: Adobe Illustrator 29.0.1, SVG Export Plug-In . SVG Version: 2.1.0 Build 192)  -->
  <defs>
    <style>
      .st0, .st1 {
        fill: #4f4f4f;
      }

      .st2, .st3, .st4, .st5, .st6, .st1, .st7 {
        display: none;
      }

      .st2, .st8, .st9 {
        fill: #3f3f3f;
      }

      .st3, .st10, .st4, .st5, .st11, .st12, .st13, .st14, .st15 {
        isolation: isolate;
      }

      .st3, .st10, .st5, .st12 {
        opacity: .1;
      }

      .st3, .st10, .st11, .st16, .st17, .st12, .st14, .st9 {
        fill-rule: evenodd;
      }

      .st3, .st5, .st16, .st12, .st15 {
        fill: #fff;
      }

      .st4, .st11, .st13, .st15 {
        opacity: .2;
      }

      .st17 {
        fill: #645b44;
      }

      .st18 {
        fill: #8a8a8a;
      }

      .st19 {
        fill: #f0b530;
      }

      .st20 {
        fill: #ff9a0c;
      }

      .st14 {
        opacity: .3;
      }

      .st7 {
        fill: #2b2b2b;
      }
    </style>
  </defs>
  <path class="st0" d="M50.4,64H13.8c-7.6,0-13.8-6.2-13.8-13.7V13.7C0,6.2,6.2,0,13.7,0h36.6c7.5,0,13.7,6.2,13.7,13.7v36.6c0,7.5-6.2,13.7-13.7,13.7h.1Z"/>
  <g class="st6">
    <path class="st7" d="M11-.3h42.1c6.1,0,11,5.1,11,11.3v42.8c0,6.2-4.9,11.3-11,11.3H11c-6.1,0-11-5.1-11-11.3V11C0,4.8,4.9-.3,11-.3Z"/>
    <path class="st2" d="M11-.2h42.1c6.1,0,11,5.1,11,11.3v41.7c0,6.2-4.9,11.3-11,11.3H11c-6.1,0-11-5.1-11-11.3V11.1C0,4.9,4.9-.2,11-.2Z"/>
    <g>
      <path class="st11" d="M50.5,10.9c-.4,0-.7.2-.9.4s-.3.5-.4.9c-.2.7-.9,3.1-3.6,5.6-2.7,2.4-7.3,6.5-15.3,6.7-4.9,0-7.8-3-9.8-7.1-.5-1-1.3-2.9-1.3-1.7v11.6s0,.1,0,.1c0,0,.4,1,0,2.4s-2.6,3.4-6.7,4.7l-.5.2v.6c.3,1.4,1.2,2.7,2.5,4.2,1.3,1.4,3.1,2.9,5.2,4.2,4.1,2.6,9.4,4.6,14.6,4.7,5.1,0,10.2-1.8,13.5-7.1,3.3-5.3,5-15.5,3.6-28.7h0c0-.4-.1-.7-.3-.9-.1-.3-.4-.5-.7-.6h0Z"/>
      <path class="st17" d="M50.5,10c-.4,0-.7.2-.9.4s-.3.5-.4.9c-.2.7-.9,3.1-3.6,5.6-2.7,2.4-7.3,6.5-15.3,6.7-4.9,0-7.8-3-9.8-7.1-.5-1-1.3-2.9-1.3-1.7v11.6s0,.1,0,.1c0,0,.4,1,0,2.4s-2.6,3.4-6.7,4.7l-.5.2v.6c.3,1.4,1.2,2.7,2.5,4.2,1.3,1.4,3.1,2.9,5.2,4.2,4.1,2.6,9.4,4.6,14.6,4.7,5.1,0,10.2-1.8,13.5-7.1,3.3-5.3,5-15.5,3.6-28.7h0c0-.4-.1-.7-.3-.9-.1-.3-.4-.5-.7-.6h0Z"/>
      <path class="st12" d="M50.5,10c-.4,0-.7.2-.9.4s-.3.5-.4.9c-.2.7-.9,3.1-3.6,5.6-2.7,2.4-7.3,6.5-15.3,6.7-4.9,0-7.8-3-9.8-7.1-.5-1-1.3-2.9-1.3-1.7v.9c0-1.2.8.7,1.3,1.7,1.9,4.1,4.9,7.2,9.8,7.1,8-.2,12.6-4.3,15.3-6.7,2.7-2.4,3.4-4.9,3.6-5.6.1-.4.2-.7.4-.9.2-.2.5-.5.9-.4h0c.4,0,.6.3.7.6s.2.6.3.9h0c.3,3.1.5,6,.5,8.7,0-3-.1-6.2-.5-9.6h0c0-.4-.1-.7-.3-.9-.1-.3-.4-.6-.7-.6h0ZM18.4,16.5v9.7h.8l-.8-8.9v-.9ZM18.9,27.9c0,.3,0,.6-.2.9-.5,1.4-2.6,3.4-6.7,4.7l-.5.2v.6c.1,0,.1.2.1.2h.4c4.1-1.4,6.3-3.4,6.7-4.8.2-.7.2-1.3.2-1.7Z"/>
      <path class="st11" d="M23.5,23.4c-1.4,0-2.8.5-3.9,1.5-1.1,1-1.8,2.5-1.8,4.5s.7,3.5,1.8,4.5c1.1,1,2.5,1.5,3.9,1.5s2.8-.5,3.9-1.5c1.1-1,1.8-2.5,1.8-4.5s-.7-3.5-1.8-4.5c-1.1-1-2.5-1.5-3.9-1.5Z"/>
      <path class="st11" d="M33.2,23.4c-1.4,0-2.8.5-3.9,1.5-1.1,1-1.8,2.5-1.8,4.5s.7,3.5,1.8,4.5c1.1,1,2.5,1.5,3.9,1.5s2.8-.5,3.9-1.5c1.1-1,1.8-2.5,1.8-4.5s-.7-3.5-1.8-4.5c-1.1-1-2.5-1.5-3.9-1.5Z"/>
      <path class="st16" d="M23.5,22.6c-1.4,0-2.8.5-3.9,1.5-1.1,1-1.8,2.5-1.8,4.5s.7,3.5,1.8,4.5c1.1,1,2.5,1.5,3.9,1.5s2.8-.5,3.9-1.5c1.1-1,1.8-2.5,1.8-4.5s-.7-3.5-1.8-4.5c-1.1-1-2.5-1.5-3.9-1.5Z"/>
      <path class="st9" d="M24.3,26.8c-.6,0-1.2.2-1.6.6s-.8,1.1-.8,1.9.3,1.5.8,1.9c.5.4,1.1.6,1.6.6s1.2-.2,1.6-.6.8-1.1.8-1.9-.3-1.5-.8-1.9c-.5-.4-1.1-.6-1.6-.6Z"/>
      <path class="st14" d="M22.4,39.9c2.2,0,4.2.1,6,0,3-.2,5.7-.6,7-1.7-.6-.8-.7-1.7-.7-1.7,0,0,1.7.8,2.6,2,.9,1.2-.3,2-.5,3.6-.5-1.4-.8-1.9-1-2.5-.9,1.4-2.6,2.4-4.7,2.5-2.3,0-5.3-.9-8.7-2.2h0Z"/>
      <path class="st10" d="M13.1,26c-.3,0-.6,0-.8,0-.7.1-1.4.4-2,.8-2.3,1.7-2.9,5.6,0,9.7,2.9,4.1,6.6,4.7,8.9,3,2.3-1.7,2.9-5.6,0-9.7-1.9-2.7-4.1-3.9-6.1-3.9h0Z"/>
      <path class="st9" d="M13.1,25.1c-.3,0-.6,0-.8,0-.7.1-1.4.4-2,.8-2.3,1.7-2.9,5.6,0,9.7,2.9,4.1,6.6,4.7,8.9,3,2.3-1.7,2.9-5.6,0-9.7-1.9-2.7-4.1-3.9-6.1-3.9h0Z"/>
      <path class="st16" d="M33.2,22.6c-1.4,0-2.8.5-3.9,1.5-1.1,1-1.8,2.5-1.8,4.5s.7,3.5,1.8,4.5c1.1,1,2.5,1.5,3.9,1.5s2.8-.5,3.9-1.5c1.1-1,1.8-2.5,1.8-4.5s-.7-3.5-1.8-4.5c-1.1-1-2.5-1.5-3.9-1.5Z"/>
      <path class="st9" d="M34,26.8c-.6,0-1.2.2-1.6.6s-.8,1.1-.8,1.9.3,1.5.8,1.9c.5.4,1.1.6,1.6.6s1.2-.2,1.6-.6.8-1.1.8-1.9-.3-1.5-.8-1.9c-.5-.4-1.1-.6-1.6-.6Z"/>
      <path class="st13" d="M36.3,39.9l-1.1.6s4.4,4.2,8.4,6.2c0,.3,0,.6,0,1h.7c0-.1,2.7.7,4.7,1.3-.3,1.3.3,2.9,1.9,3.5,2.7,1,5.2,2.4,5.2,2.4-1.3-4.4-1.7-7.9-5.1-7.6,0,0-.2,0-.3,0l-5.1-2.8v-.7l-.5.4c0,0-.2.1-.3.2-3.7-2.4-8.6-4.5-8.6-4.5h0Z"/>
      <path class="st20" d="M45.9,46.7l1-2c-3.6-2.8-10.3-5.6-10.3-5.6l-1.1.6s6.1,5.8,10.4,7.1h0Z"/>
      <path class="st18" d="M45.7,43l-.5.4c-.5.3-.8.7-1.2,1.3-.4.9-.5,1.4-.4,2.3h.7c0-.1,3.8,1,5.6,1.6l.2-.4.7-1.5-5.2-2.8v-.7h0Z"/>
      <path class="st8" d="M56.4,54.1c-1.3-4.4-1.7-7.9-5.1-7.6-2.7.3-2.9,4.2,0,5.3,2.7,1,5.2,2.4,5.2,2.4h0Z"/>
      <path class="st3" d="M13.1,25.1c-.3,0-.6,0-.8,0-.7.1-1.4.4-2,.8-1.3,1-2.1,2.7-2,4.7.1-1.7.8-3,2-3.9.6-.4,1.3-.7,2-.8.3,0,.5,0,.8,0,2,0,4.3,1.2,6.1,3.9,1.2,1.7,1.8,3.4,1.9,5,.1-1.7-.4-3.7-1.9-5.8-1.9-2.7-4.1-3.9-6.1-3.9Z"/>
    </g>
  </g>
  <g>
    <path class="st4" d="M31.9,63.8C0,63.8,0,43,0,43,0,43,0,1.5,31.9,1.5s31.9,41.5,31.9,41.5c0,0,0,20.8-31.9,20.8Z"/>
    <path class="st1" d="M31.9,62.3C0,62.3,0,41.5,0,41.5,0,41.5,0,0,31.9,0s31.9,41.5,31.9,41.5c0,0,0,20.8-31.9,20.8Z"/>
    <path class="st13" d="M12.5,28.2c-8,0-8,14.8,0,14.8h16s-9.1-14.8-16-14.8ZM51.3,28.2c-6.8,0-16,14.8-16,14.8h16c8,0,8-14.8,0-14.8Z"/>
    <path class="st19" d="M12.5,26.7c-8,0-8,14.8,0,14.8h16s-9.1-14.8-16-14.8ZM51.3,26.7c-6.8,0-16,14.8-16,14.8h16c8,0,8-14.8,0-14.8Z"/>
    <path class="st5" d="M31.9,0C0,0,0,41.5,0,41.5c0,0,0,.3,0,.5C.2,37.1,2.2,1.5,31.9,1.5s31.7,35.6,31.9,40.6c0-.2,0-.5,0-.5,0,0,0-41.5-31.9-41.5Z"/>
    <path class="st15" d="M12.5,26.7c-4.3,0-6.2,4.2-5.9,8.1.2-3.4,2.2-6.7,5.9-6.7,5.7,0,12.8,10,15,13.4h1s-9.1-14.8-16-14.8ZM51.3,26.7c-6.8,0-16,14.8-16,14.8h1c2.2-3.3,9.2-13.4,15-13.4s5.7,3.2,5.9,6.7c.3-3.9-1.7-8.1-5.9-8.1Z"/>
  </g>
</svg>