<?xml version="1.0" encoding="UTF-8"?>
<svg id="_图层_1" xmlns="http://www.w3.org/2000/svg" version="1.1" viewBox="0 0 64 64" width="16" height="16">
  <!-- Generator: Adobe Illustrator 29.0.1, SVG Export Plug-In . SVG Version: 2.1.0 Build 192)  -->
  <defs>
    <style>
      .st0 {
        fill: #2769bc;
      }

      .st1, .st2 {
        fill: #fff;
      }

      .st2 {
        opacity: .5;
      }

      .st2, .st3, .st4 {
        isolation: isolate;
      }

      .st3 {
        opacity: .3;
      }

      .st4 {
        opacity: .2;
      }
    </style>
  </defs>
  <path class="st0" d="M50.4,64H13.8c-7.6,0-13.8-6.2-13.8-13.7V13.7C0,6.2,6.2,0,13.7,0h36.6c7.5,0,13.7,6.2,13.7,13.7v36.6c0,7.5-6.2,13.7-13.7,13.7h.1Z"/>
  <g>
    <path class="st4" d="M31.3,19.2c-6.5,0-11.7,5-11.7,11.1s5.2,11.1,11.7,11.1,11.7-5,11.7-11.1-5.2-11.1-11.7-11.1ZM27.1,24.3h1.2c.2,0,.4,0,.6.1l8.3,4.8c.4.2.6.6.6,1.1s-.2.9-.6,1.1l-8.3,4.8c-.1,0-.4.1-.6.1h-1.2s0-12.1,0-12.1Z"/>
    <path class="st1" d="M31.3,18.2c-6.5,0-11.7,5-11.7,11.1s5.2,11.1,11.7,11.1,11.7-5,11.7-11.1-5.2-11.1-11.7-11.1ZM27.1,23.3h1.2c.2,0,.4,0,.6.1l8.3,4.8c.4.2.6.6.6,1.1s-.2.9-.6,1.1l-8.3,4.8c-.1,0-.4.1-.6.1h-1.2v-12.1Z"/>
    <path class="st2" d="M14.9,47.6h32.9c.9,0,1.6.7,1.6,1.5h0c0,.9-.7,1.5-1.6,1.5H14.9c-.9,0-1.6-.7-1.6-1.5h0c0-.9.7-1.5,1.6-1.5Z"/>
    <path class="st4" d="M22.3,45.6h0c2.7,0,4.8,2.1,4.8,4.6h0c0,2.5-2.2,4.6-4.8,4.6h0c-2.7,0-4.8-2.1-4.8-4.6h0c0-2.5,2.2-4.6,4.8-4.6Z"/>
    <path class="st1" d="M22.3,44.6h0c2.7,0,4.8,2.1,4.8,4.6h0c0,2.5-2.2,4.6-4.8,4.6h0c-2.7,0-4.8-2.1-4.8-4.6h0c0-2.5,2.2-4.6,4.8-4.6Z"/>
    <path class="st3" d="M4.7,11.1v4.1h4.3v-4.1s-4.3,0-4.3,0ZM53.7,11.1v4.1h4.3v-4.1s-4.3,0-4.3,0ZM4.7,19.2v4.1h4.3v-4.1h-4.3ZM53.7,19.2v4.1h4.3v-4.1h-4.3ZM4.7,27.3v4.1h4.3v-4.1h-4.3ZM53.7,27.3v4.1h4.3v-4.1h-4.3ZM4.7,35.4v4.1h4.3v-4.1h-4.3ZM53.7,35.4v4.1h4.3v-4.1h-4.3ZM4.7,43.6v4.1h4.3v-4.1h-4.3ZM53.7,43.6v4.1h4.3v-4.1h-4.3ZM4.7,51.7v4.1h4.3v-4.1h-4.3ZM53.7,51.7v4.1h4.3v-4.1h-4.3Z"/>
  </g>
</svg>