<?xml version="1.0" encoding="UTF-8"?>
<svg id="_图层_1" xmlns="http://www.w3.org/2000/svg" version="1.1" viewBox="0 0 64 64" width="16" height="16">
  <!-- Generator: Adobe Illustrator 29.0.1, SVG Export Plug-In . SVG Version: 2.1.0 Build 192)  -->
  <defs>
    <style>
      .st0 {
        fill: #3587e9;
      }

      .st0, .st1 {
        display: none;
      }

      .st2 {
        fill: #2e7bdd;
      }

      .st3 {
        opacity: .1;
      }

      .st3, .st1 {
        isolation: isolate;
      }

      .st4 {
        fill: #bebebb;
      }

      .st1 {
        fill: #fff;
        opacity: .2;
      }

      .st5 {
        fill: #e4e4e4;
      }

      .st6 {
        fill: #f3f3f3;
      }
    </style>
  </defs>
  <path class="st0" d="M50.3,64H13.8c-7.6,0-13.8-6.2-13.8-13.7V13.7C0,6.2,6.2,0,13.7,0h36.5c7.5,0,13.7,6.2,13.7,13.7v36.6c0,7.5-6.2,13.7-13.7,13.7h0Z"/>
  <g>
    <path class="st5" d="M13.7,0C6.1,0,0,6.1,0,13.7v7.6h21.4V0h-7.7Z"/>
    <rect class="st6" x="21.4" y="0" width="21.4" height="21.3"/>
    <path class="st5" d="M50.5,0c7.5,0,13.5,6.1,13.5,13.5v7.8h-21.4V0h7.8Z"/>
    <rect class="st5" x="21.4" y="21.3" width="21.4" height="21.3"/>
    <rect class="st6" y="21.3" width="21.4" height="21.3"/>
    <rect class="st6" x="42.7" y="21.3" width="21.4" height="21.3"/>
    <path class="st4" d="M13.9,63.9c-7.7,0-13.9-6.2-13.9-13.9v-7.4h21.4v21.3h-7.4Z"/>
    <rect class="st6" x="21.4" y="42.6" width="21.4" height="21.3"/>
    <path class="st5" d="M49.9,63.9c7.8,0,14.1-6.3,14.1-14.1v-7.2h-21.4v21.3h7.2Z"/>
    <path class="st3" d="M63.2,9.3c-5.9,2.8-10.5,7.4-12.9,13.1h4.6c1.9-3.5,4.7-6.5,8.3-8.6v-4.5ZM21.1,10v4.3c3.4,1.6,7.2,2.5,11.2,2.5,3.4,0,6.7-.7,9.9-1.9v-4.1c-2.9,1.5-6.3,2.3-9.9,2.3s-7.9-1.1-11.2-3.1ZM8.1,22.4c1.5,3.1,2.3,6.5,2.2,9.9,0,4-1,7.9-3,11.4h4.7c1.6-3.6,2.5-7.4,2.5-11.4,0-3.4-.6-6.8-1.9-9.9h-4.6ZM53.4,30.3c-4,0-7.8.9-11.2,2.5v4.3c3.2-1.9,7.1-3.1,11.2-3.1s6.9.8,9.9,2.3v-4.2c-3.1-1.3-6.5-1.9-9.9-1.9ZM21.1,30.6v4.2c3.8,2,6.9,5.1,8.8,9h.9c-1.2,3.2-1.9,6.5-1.9,9.9,0,3.9.8,7.8,2.5,11.4h4.7c-2-3.5-3-7.4-3-11.4,0-3.6.8-6.9,2.3-9.9h-1.3c-2.4-5.9-7-10.6-12.9-13.1ZM50.3,43.7c2.7,5.7,7.3,10.3,12.9,13.1v-5c-3.3-2-6-4.8-8-8.1h-5Z"/>
    <path class="st2" d="M63.2,8.2c-5.9,2.8-10.5,7.4-12.9,13.1h4.6c1.9-3.5,4.7-6.5,8.3-8.6v-4.5ZM21.1,8.9v4.3c3.4,1.6,7.2,2.5,11.2,2.5,3.4,0,6.7-.7,9.9-1.9v-4.1c-2.9,1.5-6.3,2.3-9.9,2.3s-7.9-1.1-11.2-3.1ZM8.1,21.3c1.5,3.1,2.3,6.5,2.2,9.9,0,4-1,7.9-3,11.4h4.7c1.6-3.6,2.5-7.4,2.5-11.4,0-3.4-.6-6.8-1.9-9.9h-4.6ZM53.4,29.2c-4,0-7.8.9-11.2,2.5v4.3c3.2-1.9,7.1-3.1,11.2-3.1,3.6,0,6.9.8,9.9,2.3v-4.2c-3.1-1.3-6.5-1.9-9.9-1.9ZM21.1,29.5v4.2c3.8,2,6.9,5.1,8.8,9h.9c-1.2,3.2-1.9,6.5-1.9,9.9,0,3.9.8,7.8,2.5,11.4h4.7c-2-3.5-3-7.4-3-11.4,0-3.6.8-6.9,2.3-9.9h-1.3c-2.4-5.9-7-10.6-12.9-13.1ZM50.3,42.6c2.7,5.7,7.3,10.3,12.9,13.1v-5c-3.3-2-6-4.8-8-8.1h-5Z"/>
    <path class="st1" d="M4.9,0C2.2,0,0,2.2,0,4.9v1.1C0,3.3,2.2,1.1,4.9,1.1h54.2c2.7,0,4.9,2.2,4.9,4.9v-1.1C64.1,2.2,61.9,0,59.1,0H4.9Z"/>
  </g>
</svg>