<?xml version="1.0" encoding="UTF-8"?>
<svg id="_图层_1" xmlns="http://www.w3.org/2000/svg" version="1.1" viewBox="0 0 64 64" width="16" height="16">
  <!-- Generator: Adobe Illustrator 29.0.1, SVG Export Plug-In . SVG Version: 2.1.0 Build 192)  -->
  <defs>
    <style>
      .st0, .st1, .st2, .st3, .st4, .st5 {
        display: none;
      }

      .st0, .st1, .st6, .st7, .st4, .st8 {
        isolation: isolate;
      }

      .st0, .st7, .st4 {
        opacity: .2;
      }

      .st1, .st9, .st4, .st8 {
        fill: #fff;
      }

      .st1, .st6, .st8 {
        opacity: .1;
      }

      .st10 {
        fill: #3f3f3f;
      }

      .st11 {
        fill: #5e5e5e;
      }

      .st12 {
        fill: #539710;
      }

      .st2 {
        fill: #685d8d;
      }

      .st13 {
        fill: #e64040;
      }

      .st14 {
        fill: #34bae3;
      }

      .st5, .st15 {
        fill: #e4e4e4;
      }
    </style>
  </defs>
  <path class="st15" d="M50.4,64H13.8c-7.6,0-13.8-6.2-13.8-13.7V13.7C0,6.2,6.2,0,13.7,0h36.5c7.5,0,13.7,6.2,13.7,13.7v36.6c0,7.5-6.2,13.7-13.7,13.7h.1Z"/>
  <g class="st3">
    <path class="st0" d="M31.9,1.1C14.3,1.1,0,15.4,0,33s14.3,31.9,31.9,31.9,31.9-14.3,31.9-31.9S49.6,1.1,31.9,1.1Z"/>
    <path class="st2" d="M31.9,0C14.3,0,0,14.3,0,31.9s14.3,31.9,31.9,31.9,31.9-14.3,31.9-31.9S49.6,0,31.9,0Z"/>
    <path class="st7" d="M28.1,55.6c-2.7-.5-5.6-1.8-8.1-3.5-2.7-1.9-5.6-5.3-6.9-8.3-1.4-3-1.9-6.6-1.6-10.2.3-2.7.6-4,1.5-6.1,2.6-6,7.7-10.1,14.4-11.7,1.1-.3,1.9-.6,2.3-.9.7-.6.7-.6,1.1-3.3.5-3.4.5-3.4,1.1-3.5.7-.2,4.1.3,5.8.8,2.7.8,4.6,1.9,6.8,3.9.7.6,2.5,1.1,2.6,1.1.7,0,2.6.9,3.4,1.6,2.3,2.2,2.6,5,.9,7.7-.5.7-1.1.4-1.1,1.3s-.1,1.3-.2,1.5c-.2.3-1.9.4-5.6.7-3.4.3-5.4,1.2-5.6,1.4-.6.6.8.7,7.4,1.3,6.1.5,6.7.7,6.2,1.1-.1,0-2.8.6-6.5,1.3l-6.8,1.4-4.3-1.6c-2.4-.9-4.4-1.4-4.4-1.4-.3,0-2.3,3.4-2.3,3.8,0,.4.9.2,2.1.4.8.1,1,0,1.8-.5,1.8-1.2,3.4-1.2,4.4,0,.6.7.6,1.2,0,1.6-.6.4-1,.4-1.8,0-1.2-.6-1.9.2-1.5,1.3.3.7.1,1.1-.4,1.1s-.5-.2-.7-.6c-.3-.6-.3-1-2-1.1-1.8-.1-2.7.5-3.8-.2-.9-.6-1.7-1.5-1.7-2s.9-2.2,1.8-3.6c.8-1.3.9-1.6.1-1.6s-.7.2-1.1.6c-.7.8-2.2,3.9-2.2,4.5s.6,1.7,2.3,2.8c1.3.9,1.7.9,2,1.5.4,1,1.2,2.6,1.3,4.1.1,1.2.4.9.9,0,.5-.9,1.9-1,1.9-.2s-.2.5-.5.6c-.9.5-.8,1.2.1,1.7.3.1.6,0,1.2-.3.5-.3,1-.5,1.1-.5.4,0,.9.7.9,1.3,0,1.2-1,2-2.5,2s-3.2-1-4-2.8c-.4-1-2-2.7-2.6-3.4-.6-.7-1-.8-1.5-.7-.6,0-.9.7-.9,2.1,0,2.8.9,5.7,4.1,7.3,5.3,2.6,10.3,2.6,15.7,0,4-1.9,7.1-4.9,7.3-8.2,0-1.2,0-1.5-.4-2.2-.8-1.5-3.3-2.4-5-1.7-.5.2-1,1-1.2,1.7-.8,2.4.4,3.4,1.7,4,.5.2,1.5,0,1.7-.6.2-.8-.2-1.1-1.2-1-.8,0-.9,0-.9-.4,0-.6.8-1.1,1.7-1.1.5,0,.8,0,1.3.5.8.8.6,1.8.2,2.5-.5.9-1.4,1.5-2.7,1.5-1.9,0-3.4-1-3.8-2.6-.3-.9-.3-2.5,0-3.6,1-3.3,6.4-3.9,9.1-1.4,1.3,1.2,1.9,2.6,1.8,4.8-.3,4.7-5,9.3-10.5,12-3.2,1.6-5.1,2-9,2.1-2.2,0-3.7,0-4.6-.2h0Z"/>
    <path class="st14" d="M28.1,54.5c-2.7-.5-5.6-1.8-8.1-3.5-2.7-1.9-5.6-5.3-6.9-8.3-1.4-3-1.9-6.6-1.6-10.2.3-2.7.6-4,1.5-6.1,2.6-6,7.7-10.1,14.4-11.7,1.1-.3,1.9-.6,2.3-.9.7-.6.7-.6,1.1-3.3.5-3.4.5-3.4,1.1-3.5.7-.2,4.1.3,5.8.8,2.7.8,4.6,1.9,6.8,3.9.7.6,2.5,1.1,2.6,1.1.7,0,2.6.9,3.4,1.6,2.3,2.2,2.6,5,.9,7.7-.5.7-1.1.4-1.1,1.3s-.1,1.3-.2,1.5c-.2.3-1.9.4-5.6.7-3.4.3-5.4,1.2-5.6,1.4-.6.6.8.7,7.4,1.3,6.1.5,6.7.7,6.2,1.1-.1,0-2.8.6-6.5,1.3l-6.8,1.4-4.3-1.6c-2.4-.9-4.4-1.4-4.4-1.4-.3,0-2.3,3.4-2.3,3.8,0,.4.9.2,2.1.4.8.1,1,0,1.8-.5,1.8-1.2,3.4-1.2,4.4,0,.6.7.6,1.2,0,1.6-.6.4-1,.4-1.8,0-1.2-.6-1.9.2-1.5,1.3.3.7.1,1.1-.4,1.1s-.5-.2-.7-.6c-.3-.6-.3-1-2-1.1-1.8-.1-2.7.5-3.8-.2-.9-.6-1.7-1.5-1.7-2s.9-2.2,1.8-3.6c.8-1.3.9-1.6.1-1.6s-.7.2-1.1.6c-.7.8-2.2,3.9-2.2,4.5s.6,1.7,2.3,2.8c1.3.9,1.7.9,2,1.5.4,1,1.2,2.6,1.3,4.1.1,1.2.4.9.9,0,.5-.9,1.9-1,1.9-.2s-.2.5-.5.6c-.9.5-.8,1.2.1,1.7.3.1.6,0,1.2-.3.5-.3,1-.5,1.1-.5.4,0,.9.7.9,1.3,0,1.2-1,2-2.5,2s-3.2-1-4-2.8c-.4-1-2-2.7-2.6-3.4-.6-.7-1-.8-1.5-.7-.6,0-.9.7-.9,2.1,0,2.8.9,5.7,4.1,7.3,5.3,2.6,10.3,2.6,15.7,0,4-1.9,7.1-4.9,7.3-8.2,0-1.2,0-1.5-.4-2.2-.8-1.5-3.3-2.4-5-1.7-.5.2-1,1-1.2,1.7-.8,2.4.4,3.4,1.7,4,.5.2,1.5,0,1.7-.6.2-.8-.2-1.1-1.2-1-.8,0-.9,0-.9-.4,0-.6.8-1.1,1.7-1.1.5,0,.8,0,1.3.5.8.8.6,1.8.2,2.5-.5.9-1.4,1.5-2.7,1.5-1.9,0-3.4-1-3.8-2.6-.3-.9-.3-2.5,0-3.6,1-3.3,6.4-3.9,9.1-1.4,1.3,1.2,1.9,2.6,1.8,4.8-.3,4.7-5,9.3-10.5,12-3.2,1.6-5.1,2-9,2.1-2.2,0-3.7,0-4.6-.2h0Z"/>
    <ellipse class="st7" cx="35.4" cy="19.4" rx="5.7" ry="5.7"/>
    <ellipse class="st9" cx="35.4" cy="18.2" rx="5.7" ry="5.7"/>
    <ellipse class="st11" cx="34.2" cy="17.1" rx="2.3" ry="2.3"/>
    <path class="st7" d="M50.1,18.7c.3,1.2-.3,2.5-1.3,2.8l-.9-4.5c1-.3,2,.4,2.2,1.6Z"/>
    <path class="st9" d="M50.1,17.6c.3,1.2-.3,2.5-1.3,2.8l-.9-4.5c1-.3,2,.4,2.2,1.6Z"/>
    <path class="st1" d="M31.9,0C14.3,0,0,14.3,0,31.9c0,.2,0,.3,0,.5C.4,15,14.6,1.1,31.9,1.1c17.4,0,31.7,14,31.9,31.4,0-.2,0-.4,0-.7C63.9,14.3,49.6,0,31.9,0Z"/>
    <path class="st8" d="M32.3,6.8c-.2,0-.3,0-.4,0-.5.1-.5.1-1.1,3.5q-.4,2.7-1.1,3.3c-.5.4-1.2.7-2.3.9-6.7,1.6-11.8,5.7-14.4,11.7-.9,2.2-1.2,3.4-1.5,6.1,0,.9-.1,1.9,0,2.8,0-.6,0-1.1,0-1.7.3-2.7.6-4,1.5-6.1,2.6-6,7.7-10.1,14.4-11.7,1.1-.3,1.9-.6,2.3-.9q.7-.6,1.1-3.3c.5-3.4.5-3.4,1.1-3.5.7-.2,4.1.3,5.8.8,2.7.8,4.6,1.9,6.8,3.9.7.6,2.5,1.1,2.6,1.1.7,0,2.6.9,3.4,1.6,1.1,1.1,1.8,2.3,1.9,3.7.2-1.7-.5-3.4-1.9-4.8-.8-.7-2.7-1.6-3.4-1.6s-1.9-.5-2.6-1.1c-2.3-2-4.2-3.1-6.8-3.9-1.4-.5-4.2-.9-5.4-.9ZM39.9,27.6c-.6.2-1,.4-1.1.5-.6.6.8.7,7.4,1.3,2.1.2,3.3.3,4.3.4,1.2-.2,1.9-.4,1.9-.4.5-.5,0-.6-6.2-1.1-3.2-.3-5.2-.4-6.3-.6ZM26.4,28.6c0,.1-.1.2-.2.4-.9,1.3-1.8,3.1-1.8,3.6s0,.3.2.5c.3-.8.9-2,1.6-2.9.8-1.2.8-1.5.2-1.5ZM34.4,31.7c-.7,0-1.6.3-2.5.9-.8.5-1,.6-1.8.5-.7,0-1.3,0-1.7-.1-.2.4-.4.8-.4.9,0,.4.9.2,2.1.4.8.1,1,0,1.8-.5,1.8-1.2,3.4-1.2,4.4,0,0,.1.1.2.2.3.4-.4.3-.8-.2-1.4-.5-.6-1.1-.9-1.9-.9ZM23.2,33.2c0,.2-.1.4-.1.5,0,.8.6,1.7,2.3,2.8,1.3.9,1.7.9,2,1.5.4,1,1.2,2.6,1.3,4.1.1,1.2.4.9.9,0,.3-.5.9-.8,1.4-.7,0,0,0,0,0,0,.3-.1.5-.4.5-.6,0-.8-1.4-.6-1.9.2-.5.9-.8,1.2-.9,0-.2-1.5-.9-3.1-1.3-4.1-.3-.6-.7-.7-2-1.5-1.2-.8-1.9-1.5-2.1-2.2ZM46,34.2c-2.1,0-4.1,1.1-4.6,2.9-.2.8-.3,1.8-.2,2.6,0-.5.1-1,.2-1.5,1-3.3,6.4-3.9,9.1-1.4,1,1,1.7,2.1,1.8,3.8,0,0,0,0,0-.1.1-2.2-.5-3.6-1.8-4.8-1.1-1.1-2.8-1.6-4.5-1.5ZM33.1,35.4c-.1.2-.2.6,0,.9.2-.2.2-.5,0-.9ZM46.3,38.8c-.9,0-1.7.5-1.7,1.1,0,.3.1.4.5.4.3-.2.7-.3,1.2-.3.5,0,.8,0,1.3.5.2.3.4.5.5.8.2-.6.1-1.3-.5-1.9-.5-.5-.8-.5-1.3-.5ZM43.2,39.8c-.3,1.9.7,2.7,1.9,3.2.5.2,1.5,0,1.7-.6,0-.4,0-.7-.2-.8-.3.4-1.1.5-1.5.3-.9-.4-1.7-1-1.9-2.1ZM50,39.9s0,0,0,0c-.2,3.2-3.3,6.3-7.3,8.2-5.4,2.5-10.5,2.5-15.7,0-2.9-1.4-3.9-4-4.1-6.6,0,.1,0,.3,0,.4,0,2.8.9,5.7,4.1,7.3,5.3,2.6,10.3,2.6,15.7,0,4-1.9,7.1-4.9,7.3-8.2,0-.6,0-.9,0-1.2ZM33.4,42.4c-.2,0-.7.2-1.1.5-.6.4-.9.4-1.2.3-.2-.1-.4-.2-.5-.4-.5.5-.3,1.1.5,1.5.3.1.6,0,1.2-.3.5-.3,1-.5,1.1-.5.3,0,.6.4.8.8,0-.2.1-.4.1-.6,0-.5-.5-1.3-.9-1.3Z"/>
  </g>
  <g>
    <path class="st0" d="M63.8,51.6V12.7c0-1.2-1.4-2.2-3.2-2.2H3.2c-1.8,0-3.2,1-3.2,2.2v38.9c0,1.2,1.4,2.2,3.2,2.2h57.4c1.8,0,3.2-1,3.2-2.2Z"/>
    <path class="st5" d="M63.8,50.9V11.9c0-1.2-1.4-2.2-3.2-2.2H3.2c-1.8,0-3.2,1-3.2,2.2v38.9c0,1.2,1.4,2.2,3.2,2.2h57.4c1.8,0,3.2-1,3.2-2.2Z"/>
    <path class="st12" d="M3.2,9.8c-1.1,0-2.1.4-2.6.9l5.8,9.5,6.4-10.4H3.2Z"/>
    <path class="st13" d="M19.1,20.2l6.4-10.4h-12.8s6.4,10.4,6.4,10.4Z"/>
    <path class="st12" d="M31.9,20.2l6.4-10.4h-12.8s6.4,10.4,6.4,10.4Z"/>
    <path class="st13" d="M44.7,20.2l6.4-10.4h-12.8s6.4,10.4,6.4,10.4Z"/>
    <path class="st12" d="M51,9.8l6.4,10.4,5.8-9.5c-.6-.6-1.5-.9-2.6-.9h-9.6Z"/>
    <path class="st10" d="M22,36.8c-.7.4-1.5.8-2.4,1-.9.2-1.8.3-2.9.3-2.5,0-4.4-.6-5.8-1.8-1.4-1.2-2.1-2.8-2.1-4.9s.7-3.8,2.1-4.9c1.4-1.2,3.4-1.8,5.9-1.8s1.6,0,2.4.2c.8.2,1.5.4,2.2.7v1.8c-.7-.4-1.4-.8-2.2-1-.7-.2-1.5-.3-2.4-.3-1.7,0-3,.4-3.9,1.3-.9.9-1.3,2.2-1.3,4s.4,3.1,1.3,4c.8.9,2.1,1.3,3.9,1.3s1.1,0,1.5-.1c.4,0,.9-.2,1.2-.4v-3.3h-2.4v-1.4h5v5.3Z"/>
    <path class="st10" d="M25.3,24.7h3.5l7,11.1v-11.1h2.7v13.4h-3.5l-7-11.1v11.1h-2.7v-13.4Z"/>
    <path class="st10" d="M41.8,32.8v-8.1h2.9v8.9c0,.6,0,1.1,0,1.4,0,.3.2.5.3.6.3.3.7.6,1.3.8.6.2,1.3.3,2.1.3s1.5,0,2.1-.3,1-.4,1.3-.8c.1-.1.2-.4.3-.6s0-.7,0-1.4v-8.9h2.8v8.1c0,1.3-.1,2.3-.4,2.9-.3.6-.7,1-1.4,1.4-.6.3-1.3.6-2.1.8s-1.7.3-2.7.3-1.9,0-2.7-.3c-.8-.2-1.5-.4-2.1-.8-.6-.4-1.1-.8-1.4-1.4-.3-.6-.4-1.5-.4-2.9Z"/>
    <path class="st13" d="M6.4,42.6L.6,52.1c.6.6,1.5.9,2.6.9h9.6l-6.4-10.4Z"/>
    <path class="st12" d="M19.1,42.6l6.4,10.4h-12.8l6.4-10.4Z"/>
    <path class="st13" d="M31.9,42.6l6.4,10.4h-12.8l6.4-10.4Z"/>
    <path class="st12" d="M44.7,42.6l6.4,10.4h-12.8l6.4-10.4Z"/>
    <path class="st13" d="M57.4,42.6l-6.4,10.4h9.6c1.1,0,2.1-.4,2.6-.9l-5.8-9.5Z"/>
    <path class="st4" d="M3.2,9.8c-1.8,0-3.2,1-3.2,2.2v.7c0-1.2,1.4-2.2,3.2-2.2h57.4c1.8,0,3.2,1,3.2,2.2v-.7c0-1.2-1.4-2.2-3.2-2.2H3.2Z"/>
    <path class="st6" d="M6.4,42.6L.6,52.1c0,0,.2.2.3.2l5.5-9,5.9,9.7h.5l-6.4-10.4ZM12.8,53h.5l5.9-9.7,5.9,9.7h.5l-6.4-10.4-6.4,10.4ZM25.5,53h.5l5.9-9.7,5.9,9.7h.5l-6.4-10.4-6.4,10.4ZM38.3,53h.5l5.9-9.7,5.9,9.7h.5l-6.4-10.4-6.4,10.4ZM51,53h.5l5.9-9.7,5.5,9c.1,0,.2-.2.3-.2l-5.8-9.5-6.4,10.4Z"/>
  </g>
</svg>