<?xml version="1.0" encoding="UTF-8"?>
<svg id="_图层_1" xmlns="http://www.w3.org/2000/svg" version="1.1" viewBox="0 0 64 64" width="16" height="16">
  <!-- Generator: Adobe Illustrator 29.0.1, SVG Export Plug-In . SVG Version: 2.1.0 Build 192)  -->
  <defs>
    <style>
      .st0, .st1 {
        fill: #4f4f4f;
      }

      .st2 {
        fill: #ffa93e;
      }

      .st3, .st4, .st5, .st6, .st7, .st8 {
        isolation: isolate;
      }

      .st3, .st4, .st9, .st10, .st11, .st12, .st13, .st7, .st1 {
        display: none;
      }

      .st3, .st5, .st6, .st7, .st8 {
        opacity: .2;
      }

      .st4 {
        opacity: .1;
      }

      .st4, .st14, .st15, .st7, .st8 {
        fill: #fff;
      }

      .st5 {
        fill-rule: evenodd;
      }

      .st16 {
        fill: #3f3f3f;
      }

      .st9 {
        fill: #f58411;
      }

      .st15 {
        stroke: #fff;
        stroke-width: 1px;
      }

      .st17 {
        fill: #42a1cd;
      }

      .st18 {
        fill: #7ebc2e;
      }

      .st10 {
        fill: #66a02c;
      }

      .st11 {
        fill: #3b8b38;
      }

      .st19 {
        fill: #e03035;
      }

      .st13 {
        fill: #fabd7f;
      }

      .st20 {
        fill: #e4e4e4;
      }

      .st8 {
        stroke: #000;
        stroke-width: 1px;
      }

      .st21 {
        fill: #8bc34a;
      }

      .st22 {
        fill-opacity: .2;
      }
    </style>
  </defs>
  <path class="st0" d="M50.4,64H13.8c-7.6,0-13.8-6.2-13.8-13.7V13.7C0,6.2,6.2,0,13.7,0h36.6c7.5,0,13.7,6.2,13.7,13.7v36.6c0,7.5-6.2,13.7-13.7,13.7h.1Z"/>
  <g class="st12">
    <path class="st3" d="M59.5,48.5V6.7c0-1.1-1-2-2.3-2H19c-1.2,0-2.3.9-2.3,2v41.8c0,1.1,1,2,2.3,2h38.2c1.2,0,2.3-.9,2.3-2Z"/>
    <path class="st10" d="M59.5,46.5V4.7c0-1.1-1-2-2.3-2H19c-1.2,0-2.3.9-2.3,2v41.8c0,1.1,1,2,2.3,2h38.2c1.2,0,2.3-.9,2.3-2Z"/>
    <path class="st6" d="M8.2,55.5v2c0,1.1,1,2,2.3,2h38.2c1.2,0,2.3-.9,2.3-2v-2c0,1.1-1,2-2.3,2H10.5c-1.2,0-2.3-.9-2.3-2h0Z"/>
    <path class="st18" d="M42.7,61.6V10.8c0-1.3-1-2.4-2.3-2.4H2.3C1,8.4,0,10.7,0,12.1v36c0,9.8,9,16.4,13.2,15.9h27.3c1.2,0,2.3-1.1,2.3-2.4Z"/>
    <path class="st8" d="M28,24.9c-.6,0-1.1.3-1.3.7-.5,1.7,0,4.4,1,7.7l-.3.6c-.7,1.6-1.6,3.2-2.4,4.7-3.2,5.9-5.7,9.1-7.4,9.3h0c0-.8,1.4-2.7,3.4-4.2.2-.2,1.1-.9,1.1-.9,0,0-1.2.6-1.4.7-2.5,1.4-3.7,2.8-3.9,3.7,0,.3,0,.6.2.7l.6.3c1.7.8,3.8-1.3,6.6-5.9,2.9-.9,6.4-1.7,9.7-2.1,2.9,1.5,6.2,2.3,7.5,2,.2,0,.5-.2.6-.4.1-.2.2-.8.2-.8,0,0-.2.3-.4.4-.8.4-3.4-.2-6-1.4,2.3-.2,4.2-.2,5.2,0,1.3.4,1.3.8,1.3.9,0,0,0-.3,0-.4,0-.3-.1-.5-.4-.8-.5-.4-1.6-.7-3.2-.7-1.2,0-2.6,0-4.2.3-.7-.4-1.5-.8-2.1-1.3-1.5-1.3-2.8-3.2-3.6-5.2,0-.2.1-.4.2-.6.2-.9.4-4,.4-4,0,0-.6,2.3-.7,2.6,0,.2-.1.5-.2.7-.5-1.6-.7-3.1-.7-4.3s0-1,.1-1.5c0-.4.2-.5.3-.6.3,0,.6.5.9,1.2.3.6.3,1.3.3,1.7,0,0,.3-1.1.2-1.7,0-.4-.4-1.3-1.2-1.3h-.4s0,0,0,0ZM28.3,34.4c.8,1.6,2,3.1,3.5,4.3.3.3.7.5,1.1.8-2.8.5-5.6,1.2-8.3,2.2.5-.8,1-1.7,1.5-2.6,1-1.8,1.7-3.3,2.2-4.6h0Z"/>
    <path class="st7" d="M10.5,12.7c-1.2,0-2.3.9-2.3,2v1c0-1.1,1-2,2.3-2h38.2c1.2,0,2.3.9,2.3,2v-1c0-1.1-1-2-2.3-2H10.5Z"/>
    <path class="st7" d="M19,2.7c-1.2,0-2.3.9-2.3,2v1c0-1.1,1-2,2.3-2h38.2c1.2,0,2.3.9,2.3,2v-1c0-1.1-1-2-2.3-2H19Z"/>
    <path class="st15" d="M28,23.9c-.6,0-1.1.2-1.3.7-.5,1.7,0,4.3,1,7.6l-.3.6c-.7,1.6-1.6,3.2-2.4,4.6-3.2,5.9-5.7,9.1-7.4,9.3h0c0-.8,1.4-2.7,3.4-4.2.2-.2,1.1-.9,1.1-.9,0,0-1.2.6-1.4.7-2.5,1.4-3.7,2.7-3.9,3.7,0,.3,0,.6.2.7l.6.3c1.7.8,3.8-1.3,6.6-5.9,2.9-.9,6.4-1.7,9.7-2.1,2.9,1.5,6.2,2.3,7.5,2,.2,0,.5-.2.6-.4.1-.2.2-.8.2-.8,0,0-.2.3-.4.4-.8.4-3.4-.2-6-1.4,2.3-.2,4.2-.2,5.2,0,1.3.4,1.3.8,1.3.9,0,0,0-.3,0-.4,0-.3-.1-.5-.4-.8-.5-.4-1.6-.7-3.2-.7-1.2,0-2.6,0-4.2.3-.7-.4-1.5-.8-2.1-1.3-1.5-1.3-2.8-3.2-3.6-5.2,0-.2.1-.4.2-.6.2-.9.4-4.1.4-4.1,0,0-.6,2.4-.7,2.7,0,.2-.1.5-.2.7-.5-1.6-.7-3.1-.7-4.3s0-1,.1-1.5c0-.4.2-.5.3-.6.3,0,.6.5.9,1.2.3.6.3,1.3.3,1.7,0,0,.3-1.1.2-1.7,0-.4-.4-1.3-1.2-1.3-.1,0-.3,0-.4,0h0ZM28.3,33.4c.8,1.6,2,3.1,3.5,4.3.3.3.7.5,1.1.8-2.8.5-5.6,1.1-8.3,2.2.5-.8,1-1.7,1.5-2.6,1-1.8,1.7-3.3,2.2-4.6h0Z"/>
    <path class="st5" d="M63.8,46.4c-.5,8.5-8,15.1-17.1,15.1-9,0-16.4-6.5-17.1-14.8,0,.3,0,.6,0,.8,0,8.8,7.7,15.9,17.1,15.9h0c9.4,0,17.1-7.1,17.1-15.9h0c0-.4,0-.8,0-1.1Z"/>
    <ellipse class="st2" cx="46.7" cy="46.5" rx="17.1" ry="15.9"/>
    <path class="st14" d="M38.2,51v3.6h3.8l9.6-9-3.8-3.6-9.6,9ZM55,42.4c.4-.4.4-1,0-1.3l-2.4-2.2c-.4-.4-1-.4-1.4,0l-2,1.9,3.8,3.6,2-1.9Z"/>
  </g>
  <g class="st12">
    <path class="st3" d="M3,1.1h53.5c1.6,0,3,1.4,3,3v54.7c0,1.7-1.3,3-3,3H3c-1.6,0-3-1.4-3-3V4.1C0,2.4,1.3,1.1,3,1.1Z"/>
    <path class="st11" d="M3,0h53.5c1.6,0,3,1.4,3,3v54.7c0,1.7-1.3,3-3,3H3c-1.6,0-3-1.4-3-3V3C0,1.4,1.3,0,3,0Z"/>
    <path class="st6" d="M4.2,34.7c0-6,4.8-10.8,10.6-10.8,1.6,0,3.2.4,4.7,1.1L37.6,6.5h4.9v5l-2.1,2.2v5.9h-5.8l-2.7,2.8v5.9h-5.8l-1.7,1.7c.7,1.5,1.1,3.1,1.1,4.8,0,6-4.8,10.8-10.6,10.8-5.9,0-10.6-4.9-10.6-10.8ZM8.5,36.9c0,2.4,1.9,4.3,4.2,4.3s4.2-1.9,4.2-4.3-1.9-4.3-4.2-4.3-4.2,1.9-4.2,4.3Z"/>
    <path class="st14" d="M4.2,33.6c0-6,4.8-10.8,10.6-10.8,1.6,0,3.2.4,4.7,1.1L37.6,5.4h4.9v5l-2.1,2.2v5.9h-5.8l-2.7,2.8v5.9h-5.8l-1.7,1.7c.7,1.5,1.1,3.1,1.1,4.8,0,6-4.8,10.8-10.6,10.8-5.9,0-10.6-4.9-10.6-10.8ZM8.5,35.8c0,2.4,1.9,4.3,4.2,4.3s4.2-1.9,4.2-4.3-1.9-4.3-4.2-4.3-4.2,1.9-4.2,4.3Z"/>
    <ellipse class="st22" cx="46.7" cy="46.6" rx="17" ry="17.4"/>
    <ellipse class="st21" cx="46.7" cy="45.6" rx="17" ry="17.4"/>
    <path class="st4" d="M3,0C1.3,0,0,1.4,0,3v1.1C0,2.4,1.3,1.1,3,1.1h53.5c1.6,0,3,1.4,3,3v-1.1c0-1.7-1.3-3-3-3H3Z"/>
    <g>
      <polygon class="st14" points="36.1 44.3 39.1 41.2 48.9 51.2 45.9 54.2 36.1 44.3"/>
      <polygon class="st14" points="45.9 54.2 42.9 51.2 56.4 37.4 59.4 40.4 45.9 54.2"/>
    </g>
  </g>
  <g class="st12">
    <path class="st3" d="M0,57.3v2.2c0,1.8,1.4,3.3,3.2,3.3h53.4c1.8,0,3.2-1.5,3.2-3.3v-2.2c0,1.8-1.4,3.3-3.2,3.3H3.2c-1.8,0-3.2-1.5-3.2-3.3Z"/>
    <path class="st13" d="M3.2,0h53.4c1.8,0,3.2,1.5,3.2,3.3v55.1c0,1.8-1.4,3.3-3.2,3.3H3.2c-1.8,0-3.2-1.5-3.2-3.3V3.3C0,1.5,1.4,0,3.2,0Z"/>
    <path class="st4" d="M3.2,0C1.4,0,0,1.5,0,3.3v1.1C0,2.6,1.4,1.1,3.2,1.1h53.4c1.8,0,3.2,1.5,3.2,3.3v-1.1c0-1.8-1.4-3.3-3.2-3.3H3.2Z"/>
    <path class="st16" d="M26.8,8.8c-.8,0-1.2.8-1.2,1.7v26.9h-6.4l10.7,15.4,10.7-15.4h-6.4V10.5c0-.9-.4-1.7-1.2-1.7h-6.1Z"/>
    <path class="st20" d="M64,50.3v-15.6c0-.9-.7-1.7-1.5-1.7h-26.7c-.9,0-1.6.7-1.6,1.7v27.5c0,.9.7,1.7,1.6,1.7h15c8.2.3,13.2-6.8,13.2-13.6Z"/>
    <path class="st16" d="M39.5,38.6v4.4h19.2v-4.4h-19.2ZM39.5,46.3v4.4h19.2v-4.4h-19.2ZM39.5,54v4.4h19.2v-4.4h-19.2Z"/>
  </g>
  <g class="st12">
    <path class="st3" d="M0,55.6v2.1c0,1.8,1.4,3.2,3.2,3.2h53c1.8,0,3.2-1.4,3.2-3.2v-2.1c0,1.8-1.4,3.2-3.2,3.2H3.2c-1.8,0-3.2-1.4-3.2-3.2Z"/>
    <path class="st9" d="M3.2,0h53c1.8,0,3.2,1.4,3.2,3.2v53.5c0,1.8-1.4,3.2-3.2,3.2H3.2c-1.8,0-3.2-1.4-3.2-3.2V3.2C0,1.4,1.4,0,3.2,0Z"/>
    <path class="st7" d="M3.2,0C1.4,0,0,1.4,0,3.2v1.1C0,2.5,1.4,1.1,3.2,1.1h53c1.8,0,3.2,1.4,3.2,3.2v-1.1c0-1.8-1.4-3.2-3.2-3.2H3.2Z"/>
    <path class="st5" d="M63.6,47c-.5,7.9-7,14-14.8,14-7.8,0-14.2-6-14.8-13.8,0,.3,0,.7,0,1,0,8.3,6.6,15,14.8,15s14.8-6.7,14.8-15c0-.4,0-.8,0-1.2Z"/>
    <path class="st6" d="M29.7,11.8c-1.8,0-3.6.2-5.3.7-8,2.2-13.9,10.2-13.8,18.5h-4.3c2.2,3.3,6.4,9.6,6.4,9.6,0,0,6.4-9.6,6.4-9.6h-4.2c0-3.5,1.3-7,3.6-9.6,4.3-5.3,12.2-7.5,18.3-3,1.9,2.5,6.1-.3,3.9-2.8-3.2-2.5-7-3.8-11.1-3.8ZM46.7,21.4s-6.4,9.6-6.4,9.6h4.2c0,3.5-1.3,7-3.6,9.7-4.3,5.3-12.2,7.5-18.3,3-1.9-2.5-6.1.3-3.9,2.8,3.2,2.5,7,3.8,11.1,3.8,1.8,0,3.6-.2,5.3-.7,8-2.2,13.9-10.2,13.8-18.5h4.3c-2.2-3.3-6.4-9.6-6.4-9.6Z"/>
    <path class="st14" d="M29.7,10.7c-1.8,0-3.6.2-5.3.7-8,2.2-13.9,10.2-13.8,18.5h-4.3c2.2,3.3,6.4,9.6,6.4,9.6,0,0,6.4-9.6,6.4-9.6h-4.2c0-3.5,1.3-7,3.6-9.6,4.3-5.3,12.2-7.5,18.3-3,1.9,2.5,6.1-.3,3.9-2.8-3.2-2.5-7-3.8-11.1-3.8ZM46.7,20.3s-6.4,9.6-6.4,9.6h4.2c0,3.5-1.3,7-3.6,9.7-4.3,5.3-12.2,7.5-18.3,3-1.9-2.5-6.1.3-3.9,2.8,3.2,2.5,7,3.8,11.1,3.8,1.8,0,3.6-.2,5.3-.7,8-2.2,13.9-10.2,13.8-18.5h4.3c-2.2-3.3-6.4-9.6-6.4-9.6Z"/>
    <ellipse class="st17" cx="48.8" cy="47.1" rx="14.8" ry="15"/>
    <path class="st14" d="M46.7,38.5l-.2,2.3c-.7.3-1.4.6-1.9,1.1l-2-1-2.1,3.7,1.8,1.3c0,.4,0,.8-.1,1.1,0,.4,0,.8,0,1.1l-1.8,1.3,2.1,3.7,2-1c.6.5,1.2.9,2,1.1l.2,2.3h4.2l.2-2.3c.7-.3,1.4-.6,1.9-1.1l2,1,2.1-3.7-1.8-1.3c0-.4,0-.8.1-1.1,0-.4,0-.8,0-1.1l1.8-1.3-2.1-3.7-2,1c-.6-.5-1.2-.9-2-1.1l-.2-2.3h-4.2,0ZM48.8,44.6c1.3,0,2.4,1.1,2.4,2.4h0c0,1.4-1.1,2.4-2.4,2.4h0c-1.3,0-2.4-1.1-2.4-2.4h0c0-1.4,1.1-2.4,2.4-2.4h0Z"/>
  </g>
  <g>
    <path class="st3" d="M3.2,1.1h57.6c1.8,0,3.2,1.4,3.2,3.2v57.5c0,1.8-1.4,3.2-3.2,3.2H3.2c-1.8,0-3.2-1.4-3.2-3.2V4.3C0,2.6,1.4,1.1,3.2,1.1Z"/>
    <path class="st1" d="M3.2,0h57.6c1.8,0,3.2,1.4,3.2,3.2v57.5c0,1.8-1.4,3.2-3.2,3.2H3.2c-1.8,0-3.2-1.4-3.2-3.2V3.2C0,1.4,1.4,0,3.2,0Z"/>
    <path class="st6" d="M28.3,58.4c-15.2-8-21.6-16.7-18.3-24.8,3.2-7.8,14.6-15.6,34.8-23.7,4.4-1.7,10.8-4.1,10.9-4,0,0-2,1.2-4.5,2.6-11.2,6.1-23.2,14.6-26.5,18.8l-.9,1.2,2.5-1.7c3.5-2.3,8.5-5,12.9-7,3.9-1.7,12.6-5,13.2-5,.2,0-.7.6-2,1.3-7.8,4.2-16.9,11.5-20.3,16.2-1,1.4-1,1.4,2.3-.8,1.3-.9,3.6-2.3,5.2-3.2,3-1.7,9.2-4.7,9.4-4.5s-.9.7-2.1,1.5c-4.8,3.2-11.3,9-13.4,11.9-.6.9-.6.9,1.7-.6,2.2-1.4,10-5.4,10.6-5.4s-.7.7-1.8,1.5c-4.6,3.4-9.8,8.7-11.7,11.8-.6,1-1.3,2.6-1.5,3.6-.4,1.7-.4,2.1,0,4,.4,2.1,1.2,4.1,2.9,6.8.4.7.6,1.3.5,1.3-.1,0-1.8-.8-3.7-1.8Z"/>
    <path class="st19" d="M28.3,57.3c-15.2-8-21.6-16.7-18.3-24.8,3.2-7.8,14.6-15.6,34.8-23.7,4.4-1.7,10.8-4.1,10.9-4,0,0-2,1.2-4.5,2.6-11.2,6.1-23.2,14.6-26.5,18.8l-.9,1.2,2.5-1.7c3.5-2.3,8.5-5,12.9-7,3.9-1.7,12.6-5,13.2-5,.2,0-.7.6-2,1.3-7.8,4.2-16.9,11.5-20.3,16.2-1,1.4-1,1.4,2.3-.8,1.3-.9,3.6-2.3,5.2-3.2,3-1.7,9.2-4.7,9.4-4.5s-.9.7-2.1,1.5c-4.8,3.2-11.3,9-13.4,11.9-.6.9-.6.9,1.7-.6,2.2-1.4,10-5.4,10.6-5.4s-.7.7-1.8,1.5c-4.6,3.4-9.8,8.7-11.7,11.8-.6,1-1.3,2.6-1.5,3.6-.4,1.7-.4,2.1,0,4,.4,2.1,1.2,4.1,2.9,6.8.4.7.6,1.3.5,1.3-.1,0-1.8-.8-3.7-1.8Z"/>
    <path class="st6" d="M35.1,15.7c0,0-1.1.4-3,1.4-16.1,8.5-22.4,15.7-20.5,23.1.9,3.3,3.3,6.6,7.3,10,1.5,1.2,2.7,2.2,2.8,2.2s-.8-1-2-2.1c-6.1-6.1-8-11.7-5.6-16.9,2.3-4.9,9.9-11.5,19.1-16.6,1.3-.7,1.9-1.1,1.9-1.1ZM37,22.3c-.2,0-1.9,1-4.2,2.3-11.2,6.6-14.6,11.3-13,18l.5,2.2.2-2.9c0-1.6.4-3.5.6-4.2,1.5-4.1,5.7-8.5,12.7-13.2,1.3-.9,2.7-1.8,3-2,.3-.2.4-.3.3-.2ZM35.9,30.3c0,0-.9.5-2.6,1.7-4.4,3.1-6.1,5.5-6.6,9.2l-.2,1.1.4-1c.2-.5.8-1.7,1.2-2.6,1.1-2.2,2.8-4.1,5.3-6.2,1.6-1.3,2.4-2.1,2.4-2.1ZM34.2,37c0,0-.3.1-.7.4-2.3,1.6-3.5,3-4,4.8-.1.5,0,.4.5-.4.4-.6,1.6-2,2.7-3.2,1.2-1.2,1.6-1.7,1.5-1.7Z"/>
    <path class="st14" d="M35.1,14.5c0,0-1.1.4-3,1.4-16.1,8.5-22.4,15.7-20.5,23.1.9,3.3,3.3,6.6,7.3,10,1.5,1.2,2.7,2.2,2.8,2.2s-.8-1-2-2.1c-6.1-6.1-8-11.7-5.6-16.9,2.3-4.9,9.9-11.5,19.1-16.6,1.3-.7,1.9-1.1,1.9-1.1ZM37,21.2c-.2,0-1.9,1-4.2,2.3-11.2,6.6-14.6,11.3-13,18l.5,2.2.2-2.9c0-1.6.4-3.5.6-4.2,1.5-4.1,5.7-8.5,12.7-13.2,1.3-.9,2.7-1.8,3-2,.3-.2.4-.3.3-.2ZM35.9,29.2c0,0-.9.5-2.6,1.7-4.4,3.1-6.1,5.5-6.6,9.2l-.2,1.1.4-1c.2-.5.8-1.7,1.2-2.6,1.1-2.2,2.8-4.1,5.3-6.2,1.6-1.3,2.4-2.1,2.4-2.1ZM34.2,35.8c0,0-.3.1-.7.4-2.3,1.6-3.5,3-4,4.8-.1.5,0,.4.5-.4.4-.6,1.6-2,2.7-3.2,1.2-1.2,1.6-1.7,1.5-1.7Z"/>
    <path class="st4" d="M3.2,0C1.4,0,0,1.4,0,3.2v1.1C0,2.6,1.4,1.1,3.2,1.1h57.6c1.8,0,3.2,1.4,3.2,3.2v-1.1c0-1.8-1.4-3.2-3.2-3.2H3.2Z"/>
  </g>
</svg>