<?xml version="1.0" encoding="UTF-8"?>
<svg id="_图层_1" xmlns="http://www.w3.org/2000/svg" version="1.1" viewBox="0 0 64 64" width="16" height="16">
  <!-- Generator: Adobe Illustrator 29.0.1, SVG Export Plug-In . SVG Version: 2.1.0 Build 192)  -->
  <defs>
    <style>
      .st0, .st1, .st2, .st3, .st4, .st5, .st6 {
        display: none;
      }

      .st0, .st7 {
        fill: #d86b18;
      }

      .st1, .st2, .st8, .st9, .st10, .st6 {
        isolation: isolate;
      }

      .st1, .st8, .st10, .st6 {
        opacity: .2;
      }

      .st2, .st11, .st6 {
        fill: #fff;
      }

      .st2, .st9 {
        opacity: .1;
      }

      .st3 {
        fill: #00c1e2;
      }

      .st4 {
        fill: #00695c;
      }

      .st8 {
        stroke: #000;
      }

      .st8, .st12 {
        fill: none;
        stroke-linecap: round;
        stroke-linejoin: round;
        stroke-width: 3px;
      }

      .st12 {
        stroke: #fff;
      }

      .st13 {
        fill: #ecba9e;
      }

      .st14 {
        fill: #b5b5b5;
      }

      .st15 {
        fill: #7cb342;
      }
    </style>
  </defs>
  <path class="st7" d="M50.3,64H13.8C6.2,64,0,57.8,0,50.3V13.7C0,6.2,6.2,0,13.7,0h36.5c7.5,0,13.7,6.2,13.7,13.7v36.6c0,7.5-6.2,13.7-13.7,13.7h0Z"/>
  <g class="st5">
    <path class="st1" d="M3.3,1.1h57.5c1.8,0,3.2,1.4,3.2,3.2v57.6c0,1.8-1.4,3.2-3.2,3.2H3.3c-1.8,0-3.2-1.4-3.2-3.2V4.3C0,2.5,1.5,1.1,3.3,1.1Z"/>
    <rect class="st4" x="0" width="63.9" height="64" rx="3.2" ry="3.2"/>
    <path class="st10" d="M16.6,13.2c-1.8,0-3.3,1.5-3.3,3.3v33.1c0,1.8,1.5,3.3,3.3,3.3s3.3-1.5,3.3-3.3V16.5c0-1.8-1.5-3.3-3.3-3.3Z"/>
    <path class="st15" d="M13.3,24.8v24.8c0,1.8,1.5,3.3,3.3,3.3s3.3-1.5,3.3-3.3v-24.8h-6.6Z"/>
    <path class="st10" d="M47.4,13.2c-1.8,0-3.3,1.5-3.3,3.3v33.1c0,1.8,1.5,3.3,3.3,3.3s3.3-1.5,3.3-3.3V16.5c0-1.8-1.5-3.3-3.3-3.3Z"/>
    <path class="st15" d="M44.1,24.8v24.8c0,1.8,1.5,3.3,3.3,3.3s3.3-1.5,3.3-3.3v-24.8h-6.6Z"/>
    <path class="st10" d="M32,13.2c-1.8,0-3.3,1.5-3.3,3.3v33.1c0,1.8,1.5,3.3,3.3,3.3s3.3-1.5,3.3-3.3V16.5c0-1.8-1.5-3.3-3.3-3.3Z"/>
    <path class="st15" d="M28.7,38.1v11.6c0,1.8,1.5,3.3,3.3,3.3s3.3-1.5,3.3-3.3v-11.6h-6.6Z"/>
    <path class="st9" d="M12,23.2h9.2c1.7,0,3.1,1.4,3.1,3.1v2.6c0,1.7-1.4,3.1-3.1,3.1h-9.2c-1.7,0-3.1-1.4-3.1-3.1v-2.6c0-1.7,1.4-3.1,3.1-3.1Z"/>
    <path class="st14" d="M12,22.1h9.2c1.7,0,3.1,1.4,3.1,3.1v2.6c0,1.7-1.4,3.1-3.1,3.1h-9.2c-1.7,0-3.1-1.4-3.1-3.1v-2.6c0-1.7,1.4-3.1,3.1-3.1Z"/>
    <path class="st9" d="M27.4,36.4h9.2c1.7,0,3.1,1.4,3.1,3.1v2.6c0,1.7-1.4,3.1-3.1,3.1h-9.2c-1.7,0-3.1-1.4-3.1-3.1v-2.6c0-1.7,1.4-3.1,3.1-3.1Z"/>
    <path class="st14" d="M27.4,35.3h9.2c1.7,0,3.1,1.4,3.1,3.1v2.6c0,1.7-1.4,3.1-3.1,3.1h-9.2c-1.7,0-3.1-1.4-3.1-3.1v-2.6c0-1.7,1.4-3.1,3.1-3.1Z"/>
    <path class="st9" d="M42.8,23.2h9.2c1.7,0,3.1,1.4,3.1,3.1v2.6c0,1.7-1.4,3.1-3.1,3.1h-9.2c-1.7,0-3.1-1.4-3.1-3.1v-2.6c0-1.7,1.4-3.1,3.1-3.1Z"/>
    <path class="st14" d="M42.8,22.1h9.2c1.7,0,3.1,1.4,3.1,3.1v2.6c0,1.7-1.4,3.1-3.1,3.1h-9.2c-1.7,0-3.1-1.4-3.1-3.1v-2.6c0-1.7,1.4-3.1,3.1-3.1Z"/>
    <path class="st2" d="M3.3,0C1.5,0,0,1.4,0,3.2v1.1C0,2.5,1.5,1.1,3.3,1.1h57.5c1.8,0,3.2,1.4,3.2,3.2v-1.1c0-1.8-1.4-3.2-3.2-3.2H3.3Z"/>
  </g>
  <g class="st5">
    <ellipse class="st1" cx="31.8" cy="33.2" rx="28.8" ry="32"/>
    <ellipse class="st3" cx="31.8" cy="32" rx="28.8" ry="32"/>
    <path class="st8" d="M1.5,34.9h5.9s.8,3.4,1.6,3.4.8-6.9,2.2-6.9c1.5,0,.5,8.3,2.7,8,2.2-.3,1.7-28.6,4-28.6s1.6,44.6,4.4,44.6c2.8,0,.8-40,3.3-40s1.9,35.5,4.6,35.5c2.7,0,1.3-30.9,3.5-30.9s.9,27.4,4,27.4c3.1,0,1.2-22.9,3.9-22.9s1.1,18.3,3.8,18.3c2.7,0,1.1-12.4,2.9-12.6,1.8-.1,1.3,7.9,3.1,8,1.8,0,1.5-5.6,2.3-5.6s1.4,4.5,2.3,4.5,2.3-2.3,2.3-2.3h3.8"/>
    <path class="st12" d="M1.5,33.7h5.9s.8,3.4,1.6,3.4.8-6.9,2.2-6.9c1.5,0,.5,8.3,2.7,8,2.2-.3,1.7-28.6,4-28.6s1.6,44.6,4.4,44.6c2.8,0,.8-40,3.3-40s1.9,35.5,4.6,35.5c2.7,0,1.3-30.9,3.5-30.9s.9,27.4,4,27.4c3.1,0,1.2-22.9,3.9-22.9s1.1,18.3,3.8,18.3c2.7,0,1.1-12.4,2.9-12.6,1.8-.1,1.3,7.9,3.1,8,1.8,0,1.5-5.6,2.3-5.6s1.4,4.5,2.3,4.5,2.3-2.3,2.3-2.3h3.8"/>
    <path class="st6" d="M31.8,0C15.9,0,3,14.3,3,32c0,.2,0,.4,0,.7C3.3,15.2,16.1,1.1,31.8,1.1c15.7,0,28.5,13.9,28.8,31.3,0-.2,0-.3,0-.5C60.6,14.3,47.8,0,31.8,0Z"/>
  </g>
  <g>
    <path class="st1" d="M3.2,1.1h57.5c1.8,0,3.2,1.4,3.2,3.2v57.3c0,1.8-1.4,3.2-3.2,3.2H3.2c-1.8,0-3.2-1.4-3.2-3.2V4.3C0,2.6,1.4,1.1,3.2,1.1Z"/>
    <path class="st0" d="M3.2,0h57.5c1.8,0,3.2,1.4,3.2,3.2v57.3c0,1.8-1.4,3.2-3.2,3.2H3.2c-1.8,0-3.2-1.4-3.2-3.2V3.2C0,1.4,1.4,0,3.2,0Z"/>
    <path class="st10" d="M28.3,5c-.2,2.3-1.7,4.2-.4,5.8,1.9-1.3,2-2.5,1-4.5l-.6-1.3ZM26.5,10.5c-5,15.8,4.4,22.1,8.9,26v-13.2s0,0,0,0c0-.4,0-1.5-.2-3-.2-1.6-3-7-3-7,0,0-2.2,5.1-1.1,7.4-1-.7-1.9-1.5-2.4-2.2-1.6-2.3-2.2-8-2.2-8h0ZM20.5,17.1l-1.5,2.5c-1.4,2.3-.7,3.6.6,6.1l.9-8.5ZM18.7,26.2s-1.5,2.1-1.5,4.5c-.3,11.5,14.5,22,16.7,28.4.7,2.1,1.6,5.5,1.6,5.5v-23.8c-2.8-5.4-9.3-4.9-14.2-10.1-1.6-1.7-2.5-4.5-2.5-4.5Z"/>
    <rect class="st11" x="36.5" y="0" width="3.4" height="63.7"/>
    <path class="st13" d="M18.7,25.1s.9,2.8,2.5,4.5c4.9,5.2,11.4,4.7,14.2,10.1v23.8s-.8-3.3-1.6-5.5c-2.2-6.5-17-17-16.7-28.4,0-2.4,1.5-4.5,1.5-4.5Z"/>
    <path class="st13" d="M26.5,9.4s.6,5.7,2.2,8c1.5,2.2,6.6,4.8,6.6,4.8v13.2c-4.5-3.9-13.8-10.2-8.9-26Z"/>
    <path class="st13" d="M32.2,12.2s2.7,5.4,3,7c.2,1.8.2,3.3.2,3.3,0,0-3.6-1.4-4.3-2.9-1.1-2.3,1.1-7.4,1.1-7.4Z"/>
    <path class="st13" d="M19,18.4l1.5-2.5-.9,8.5c-1.4-2.5-2-3.8-.6-6.1Z"/>
    <path class="st13" d="M29,5.2l-.6-1.3c-.2,2.3-1.7,4.2-.4,5.8,1.9-1.3,2-2.5,1-4.5Z"/>
    <path class="st2" d="M3.2,0C1.4,0,0,1.4,0,3.2v1.1C0,2.5,1.4,1.1,3.2,1.1h57.5c1.8,0,3.2,1.4,3.2,3.2v-1.1C63.9,1.4,62.5,0,60.7,0H3.2Z"/>
  </g>
</svg>