<?xml version="1.0" encoding="UTF-8"?>
<svg id="_图层_1" xmlns="http://www.w3.org/2000/svg" version="1.1" viewBox="0 0 64 64" width="16" height="16">
  <!-- Generator: Adobe Illustrator 29.0.1, SVG Export Plug-In . SVG Version: 2.1.0 Build 192)  -->
  <defs>
    <style>
      .st0 {
        fill: #3f3f3f;
      }

      .st0, .st1, .st2, .st3, .st4 {
        display: none;
      }

      .st1, .st2, .st5, .st6 {
        isolation: isolate;
      }

      .st1, .st5, .st6 {
        opacity: .2;
      }

      .st2 {
        opacity: .1;
      }

      .st2, .st6 {
        fill: #fff;
      }

      .st7 {
        fill: #4e4e4e;
      }

      .st8 {
        fill: #39e11e;
      }

      .st9, .st3 {
        fill: #2b855b;
      }

      .st10 {
        fill: #c1c1c1;
      }

      .st11 {
        fill: #ffb923;
      }
    </style>
  </defs>
  <path class="st9" d="M50.4,64H13.8c-7.6,0-13.8-6.2-13.8-13.7V13.7C0,6.2,6.2,0,13.7,0h36.5c7.5,0,13.7,6.2,13.7,13.7v36.6c0,7.5-6.2,13.7-13.7,13.7h.1Z"/>
  <g class="st4">
    <path class="st1" d="M32,1.1h0c17.7,0,32,14.2,32,31.8h0c0,17.6-14.3,31.8-32,31.8h0C14.3,64.7,0,50.5,0,32.9h0C0,15.4,14.3,1.1,32,1.1Z"/>
    <path class="st0" d="M32,0h0c17.7,0,32,14.2,32,31.8h0c0,17.6-14.3,31.8-32,31.8h0C14.3,63.6,0,49.4,0,31.8h0C0,14.2,14.3,0,32,0Z"/>
    <path class="st5" d="M29.9,10.2c-.2,0-.5,0-.7,0-3.8.3-6.6,3.7-6.4,7.7,0,1.4.5,2.6,1.2,3.6l3.2,4.9c.6,1.2,1.8,2,3.2,1.9,1.3,0,2.4-.9,2.8-2.1l2.6-5.6h0c.5-1.1.8-2.4.7-3.7-.2-3.7-3.1-6.6-6.6-6.8ZM45.2,19.3c-1,0-2,.2-2.9.6-1.3.6-2.4,1.5-3.2,2.6l-3.9,5.3c0,0,0,.1-.1.2h0s0,0,0,0c-.7,1-.9,2.4-.4,3.7.5,1.4,1.8,2.3,3.1,2.4h0s6.4,1,6.4,1h0c1.3.2,2.6,0,3.8-.5,3.8-1.6,5.7-6.3,4.2-10.3-1.2-3.1-3.9-4.9-6.8-5h0ZM18.8,23.9c-2.8-.1-5.4,1.6-6.1,4.3-.8,3,1.1,6.1,4.4,6.9,1.1.3,2.1.2,3.1,0l4.8-1.3c1.1-.2,2-1,2.3-2.1.3-1-.1-2.1-.9-2.8l-3.7-3.4h0c-.7-.7-1.6-1.2-2.7-1.4-.4,0-.8-.1-1.2-.2h0ZM28.1,35.2c-.7,0-1.4.2-2,.6l-6,3.1h0c-1.2.6-2.2,1.5-3,2.7-2.3,3.6-1.2,8.4,2.5,10.7,3.7,2.3,8.6,1.2,10.9-2.4.8-1.2,1.2-2.6,1.2-4l.2-6.3c.2-1.4-.5-2.9-1.8-3.7-.6-.4-1.3-.6-2.1-.6ZM37.3,36.4c-.6,0-1.2.3-1.7.7-1,.8-1.4,2.1-1.2,3.3l.7,5.9h0c.1,1.2.6,2.3,1.3,3.3,2.2,3,6.3,3.6,9.1,1.3,2.9-2.3,3.4-6.6,1.3-9.7-.7-1.1-1.7-1.8-2.8-2.3l-4.9-2.2c-.5-.3-1.1-.4-1.7-.4Z"/>
    <path class="st8" d="M29.9,9.1c-.2,0-.5,0-.7,0-3.8.3-6.6,3.7-6.4,7.7,0,1.4.5,2.6,1.2,3.6l3.2,4.9c.6,1.2,1.8,2,3.2,1.9,1.3,0,2.4-.9,2.8-2.1l2.6-5.6h0c.5-1.1.8-2.4.7-3.7-.2-3.7-3.1-6.6-6.6-6.8ZM45.2,18.2c-1,0-2,.2-2.9.6-1.3.6-2.4,1.5-3.2,2.6l-3.9,5.3c0,0,0,.1-.1.2h0s0,0,0,0c-.7,1-.9,2.4-.4,3.7.5,1.4,1.8,2.3,3.1,2.4h0s6.4,1,6.4,1h0c1.3.2,2.6,0,3.8-.5,3.8-1.6,5.7-6.3,4.2-10.3-1.2-3.1-3.9-4.9-6.8-5ZM18.8,22.7c-2.8-.1-5.4,1.6-6.1,4.3-.8,3,1.1,6.1,4.4,6.9,1.1.3,2.1.2,3.1,0l4.8-1.3c1.1-.2,2-1,2.3-2.1.3-1-.1-2.1-.9-2.8l-3.7-3.4h0c-.7-.7-1.6-1.2-2.7-1.4-.4,0-.8-.1-1.2-.2ZM28.1,34.1c-.7,0-1.4.2-2,.6l-6,3.1h0c-1.2.6-2.2,1.5-3,2.7-2.3,3.6-1.2,8.4,2.5,10.7,3.7,2.3,8.6,1.2,10.9-2.4.8-1.2,1.2-2.6,1.2-4l.2-6.3c.2-1.4-.5-2.9-1.8-3.7-.6-.4-1.3-.6-2.1-.6ZM37.3,35.2c-.6,0-1.2.3-1.7.7-1,.8-1.4,2.1-1.2,3.3l.7,5.9h0c.1,1.2.6,2.3,1.3,3.3,2.2,3,6.3,3.6,9.1,1.3,2.9-2.3,3.4-6.6,1.3-9.7-.7-1.1-1.7-1.8-2.8-2.3l-4.9-2.2c-.5-.3-1.1-.4-1.7-.4Z"/>
    <path class="st2" d="M32,0C14.3,0,0,14.2,0,31.8s0,.3,0,.4C.4,14.9,14.5,1.1,32,1.1s31.6,13.8,32,31.1c0-.1,0-.3,0-.4C64,14.2,49.7,0,32,0Z"/>
    <path class="st6" d="M29.9,9.1c-.2,0-.5,0-.7,0-3.8.3-6.6,3.7-6.4,7.7,0,0,0,0,0,0,.3-3.5,2.9-6.4,6.4-6.7.2,0,.5,0,.7,0,3.4.1,6.3,3,6.6,6.7,0-.3,0-.7,0-1.1-.2-3.7-3.1-6.6-6.6-6.8ZM45.2,18.2c-1,0-2,.2-2.9.6-1.3.6-2.4,1.5-3.2,2.6l-3.9,5.3c0,0,0,.1-.1.2h0s0,0,0,0c-.6.8-.8,1.8-.7,2.9,0-.6.3-1.2.7-1.7h0,0c0,0,0-.1.1-.2l3.9-5.3c.8-1.1,1.9-2,3.2-2.6,1-.4,2-.6,2.9-.6,2.9,0,5.7,1.9,6.8,5,.3.8.5,1.6.5,2.3,0-1.2,0-2.3-.5-3.5-1.2-3.1-3.9-4.9-6.8-5ZM18.8,22.7c-2.8-.1-5.4,1.6-6.1,4.3-.2.7-.2,1.3-.1,2,0-.3,0-.6.1-.8.7-2.7,3.3-4.4,6.1-4.3.4,0,.8,0,1.2.2,1.1.3,2,.8,2.7,1.4h0s3.7,3.4,3.7,3.4c.5.4.8,1,.9,1.6.2-1-.1-2-.9-2.7l-3.7-3.4h0c-.7-.7-1.6-1.2-2.7-1.4-.4,0-.8-.1-1.2-.2ZM28.1,34.1c-.7,0-1.4.2-2,.6l-6,3.1h0c-1.2.6-2.2,1.5-3,2.7-.9,1.4-1.3,3.1-1.2,4.6,0-1.2.5-2.4,1.2-3.5.8-1.2,1.8-2.1,3-2.7h0s6-3.1,6-3.1c.6-.4,1.3-.5,2-.6.7,0,1.4.2,2.1.6,1,.6,1.6,1.6,1.8,2.7h0c.2-1.6-.5-3-1.8-3.8-.6-.4-1.3-.6-2.1-.6ZM37.3,35.2c-.6,0-1.2.3-1.7.7-1,.8-1.4,2.1-1.2,3.3.1-.8.5-1.6,1.2-2.2.5-.4,1.1-.6,1.7-.7.6,0,1.2,0,1.7.4l4.9,2.2c1.1.4,2.1,1.2,2.8,2.3.8,1.1,1.2,2.3,1.3,3.6.1-1.6-.3-3.3-1.3-4.7-.7-1.1-1.7-1.8-2.8-2.3l-4.9-2.2c-.5-.3-1.1-.4-1.7-.4Z"/>
  </g>
  <g>
    <path class="st1" d="M3.3,1.1h57.3c1.8,0,3.3,1.5,3.3,3.3v57.2c0,1.8-1.5,3.3-3.3,3.3H3.3c-1.8,0-3.3-1.5-3.3-3.3V4.4C0,2.6,1.5,1.1,3.3,1.1Z"/>
    <path class="st3" d="M3.3,0h57.3c1.8,0,3.3,1.5,3.3,3.3v57.2c0,1.8-1.5,3.3-3.3,3.3H12.6l-1.1-.6L.6,52.5,0,51.3V3.3C0,1.5,1.5,0,3.3,0Z"/>
    <path class="st11" d="M.1,47.9H.1c0,15.1,11.1,16.2,15.1,16.1h0L.1,47.9Z"/>
    <path class="st5" d="M10.4,9.1h43.1c1.3,0,2.4,1.1,2.4,2.4v43.1c0,1.3-1.1,2.4-2.4,2.4H10.4c-1.3,0-2.4-1.1-2.4-2.4V11.5c0-1.3,1.1-2.4,2.4-2.4Z"/>
    <path class="st10" d="M10.4,8h43.1c1.3,0,2.4,1.1,2.4,2.4v43.1c0,1.3-1.1,2.4-2.4,2.4H10.4c-1.3,0-2.4-1.1-2.4-2.4V10.4c0-1.3,1.1-2.4,2.4-2.4Z"/>
    <rect class="st7" x="28.5" y="26.2" width="6.8" height="22.8"/>
    <rect class="st7" x="28.5" y="14.8" width="6.8" height="6.8"/>
    <path class="st2" d="M3.3,0C1.5,0,0,1.5,0,3.3v1.1C0,2.6,1.5,1.1,3.3,1.1h57.3c1.8,0,3.3,1.5,3.3,3.3v-1.1c0-1.8-1.5-3.3-3.3-3.3H3.3Z"/>
    <path class="st6" d="M10.4,8c-1.3,0-2.4,1.1-2.4,2.4v1.1c0-1.3,1.1-2.4,2.4-2.4h43.1c1.3,0,2.4,1.1,2.4,2.4v-1.1c0-1.3-1.1-2.4-2.4-2.4H10.4Z"/>
  </g>
</svg>