<?xml version="1.0" encoding="UTF-8"?>
<svg id="_图层_1" xmlns="http://www.w3.org/2000/svg" version="1.1" viewBox="0 0 64 64" width="16" height="16">
  <!-- Generator: Adobe Illustrator 29.0.1, SVG Export Plug-In . SVG Version: 2.1.0 Build 192)  -->
  <defs>
    <style>
      .st0 {
        fill: #4f4f4f;
      }

      .st1 {
        opacity: .2;
      }

      .st1, .st2, .st3 {
        isolation: isolate;
      }

      .st1, .st2, .st4 {
        display: none;
      }

      .st2, .st5 {
        fill: #fff;
      }

      .st2, .st3 {
        opacity: .1;
      }

      .st6, .st4 {
        fill: #69aa35;
      }

      .st7 {
        fill: #f2dbb7;
      }

      .st8 {
        fill: #2898b5;
      }

      .st9 {
        fill: #e68673;
      }
    </style>
  </defs>
  <path class="st6" d="M47.5,64.1H13.8c-7.6,0-13.8-6.3-13.8-13.8V13.7C0,6.2,6.2,0,13.7,0h36.6c7.5,0,13.7,6.2,13.7,13.7v36.6c0,7.5-6.2,13.7-13.7,13.7h-2.9.1Z"/>
  <g>
    <ellipse class="st1" cx="32" cy="33.2" rx="32" ry="32"/>
    <ellipse class="st4" cx="32" cy="32" rx="32" ry="32"/>
    <path class="st3" d="M33.1,18.3c-6.8,0-12.3,4.5-16.2,8.7s-6.3,8.4-6.3,8.4c-.4.7-.4,1.6,0,2.4,0,0,8.6,13.6,24.8,13.6s8.8-1.9,11.5-4.4c2.4-2.3,3.9-5,4.9-7.4.9-.5,1.9-1,2.9-1.8,1.2-1,2.4-2.6,2.4-4.6s-1.5-3.7-2.9-4.4c-1-.5-1.9-.7-2.9-.8-2.6-4.1-8.1-9.6-18.2-9.6Z"/>
    <path class="st2" d="M32,0C14.3,0,0,14.3,0,32c0,.2,0,.4,0,.7C.3,15.2,14.5,1.2,32,1.1c17.4,0,31.6,13.9,32,31.3,0-.2,0-.3,0-.5C64,14.3,49.7,0,32,0Z"/>
    <path class="st0" d="M33.1,17.2c-6.8,0-12.3,4.5-16.2,8.7s-6.3,8.4-6.3,8.4c-.4.7-.4,1.6,0,2.4,0,0,8.6,13.6,24.8,13.6s8.8-1.9,11.5-4.4c2.4-2.3,3.9-5,4.9-7.4.9-.5,1.9-1,2.9-1.8,1.2-1,2.4-2.6,2.4-4.6s-1.5-3.7-2.9-4.4c-1-.5-1.9-.7-2.9-.8-2.6-4.1-8.1-9.6-18.2-9.6Z"/>
    <path class="st9" d="M48,28.6s6.9,0,6.9,3.4-6.9,5.7-6.9,5.7v-9.1Z"/>
    <path class="st7" d="M12.6,35.4s2.3-4,6-8,4.1-4,6.5-5.5c3.5,2.1,8,3.2,8,3.2l17.1,5.7,1.1,1.1s-2.3,16-16,16-22.9-12.6-22.9-12.6Z"/>
    <path class="st0" d="M33.1,19.4c-3.6,0-7,1.6-9.9,3.8-1,2-1.5,4.3-1.5,6.5,0,8.2,6.7,14.9,14.9,14.9,7.5,0,13.8-5.6,14.7-13-.7-2-4.7-12.2-18.2-12.2Z"/>
    <path class="st8" d="M32,38.9s4.6,1.1,6.9,1.1c4,0,9.1-4.6,9.1-4.6,0,0-3.4,6.9-9.1,6.9s-6.9-3.4-6.9-3.4Z"/>
    <circle class="st5" cx="30.9" cy="27.4" r="4.6"/>
  </g>
</svg>