<?xml version="1.0" encoding="UTF-8"?>
<svg id="_图层_1" xmlns="http://www.w3.org/2000/svg" version="1.1" viewBox="0 0 64 64" width="16" height="16">
  <!-- Generator: Adobe Illustrator 29.0.1, SVG Export Plug-In . SVG Version: 2.1.0 Build 192)  -->
  <defs>
    <style>
      .st0, .st1 {
        fill: #0081ff;
      }

      .st2 {
        fill: #4daf7c;
      }

      .st1, .st3, .st4, .st5, .st6 {
        display: none;
      }

      .st3, .st7, .st6 {
        isolation: isolate;
        opacity: .2;
      }

      .st8, .st6 {
        fill: #fff;
      }

      .st9 {
        fill: #e3e3e3;
      }

      .st4 {
        fill: #db472b;
      }

      .st10 {
        fill: #8addff;
      }

      .st11 {
        fill: #5ed698;
      }
    </style>
  </defs>
  <path class="st0" d="M50.4,64H13.8c-7.6,0-13.8-6.2-13.8-13.7V13.7C0,6.2,6.2,0,13.7,0h36.6c7.5,0,13.7,6.2,13.7,13.7v36.6c0,7.5-6.2,13.7-13.7,13.7h.1Z"/>
  <g class="st5">
    <path class="st9" d="M44,64.1h-16.2l-11.8-11.5,13.7-21.5c1.2-9.8,1.1-9.6,9.1-12.7l11.3-.8c11,9.5,2.6,2,13.9,12v22.2c0,6.2-7.4,12.2-13.6,12.2h-6.4Z"/>
    <g>
      <path class="st2" d="M40,32h-5.9c-.2,0-.4,0-.5.2-.5.2-.8.5-1.1.9s-.4.9-.4,1.4v7.6h-4c-.7,0-1.2.2-1.3.5s0,.8.6,1.3l8.2,7.8c.2.2.5.4.9.5s.7.2,1,.2.7,0,1-.2.6-.3.9-.5l8.2-7.8c.5-.5.7-.9.6-1.3s-.6-.5-1.3-.5h-4v-7.6c0-.7-.3-1.3-.8-1.8s-1.2-.7-1.9-.7h-.2Z"/>
      <path class="st11" d="M29.8,9.7c-1-.2-1.9,0-2.7.7s-1.1,1.4-1.1,2.4v20.6c-.6-.2-1.3-.4-1.9-.5-.7,0-1.3-.2-2-.2-1.6,0-3.1.3-4.5.9-1.4.6-2.6,1.3-3.6,2.3s-1.8,2.1-2.5,3.5c-.6,1.3-.9,2.7-.9,4.2s.3,2.9.9,4.2c.6,1.3,1.4,2.5,2.5,3.4,1,1,2.2,1.8,3.6,2.3,1.4.6,2.9.8,4.5.8s3.4-.4,5-1.1c1.6-.7,2.8-1.7,3.9-3l-5.2-4.9c-.8-.8-1.2-1.5-1.2-2.1s0-1.1.2-1.3c0-.3.4-.6.8-1.1.5-.4,1.3-.7,2.4-.7h1.9v-5.7c0-1,.3-2,1-2.8s1.6-1.3,2.6-1.6v-8.2c3.7,0,6.5.5,8.4,1.4,1.9.9,3.2,2,3.9,3.4s1,2.8.8,4.4c-.2,1.5-.4,2.9-.9,4.1-.3,1-.4,1.5-.2,1.6s.6-.2,1.3-.9c4.5-4.7,6.6-8.6,6.3-11.7-.3-3.2-1.7-5.8-4.3-7.8s-5.8-3.5-9.6-4.6c-3.8-1-6.9-1.8-9.4-2.2h0v.2Z"/>
    </g>
  </g>
  <g class="st5">
    <path class="st3" d="M20.1,4.3h23.9c9.9,0,17.9,7.6,17.9,16.9v22.6c0,9.4-8,16.9-17.9,16.9h-23.9c-9.9,0-17.9-7.6-17.9-16.9v-22.6C2.1,11.9,10.2,4.3,20.1,4.3Z"/>
    <path class="st4" d="M20.1,3.3h23.9c9.9,0,17.9,7.6,17.9,16.9v22.6c0,9.4-8,16.9-17.9,16.9h-23.9c-9.9,0-17.9-7.6-17.9-16.9v-22.6C2.1,10.8,10.2,3.3,20.1,3.3Z"/>
    <path class="st6" d="M20.1,3.3C10.1,3.3,2.1,10.8,2.1,20.2v1C2.1,11.8,10.1,4.3,20.1,4.3h23.9c9.9,0,17.9,7.6,17.9,16.9v-1c0-9.4-8-16.9-17.9-16.9h-23.9Z"/>
    <path class="st7" d="M0,13.8v3.2s0,1.4,1.5,1.4h4.6c8.5,0,15.2,6.1,15.2,14.1s-8.5,14.2-15.2,14.2H1.5c-1.5,0-1.5,1.4-1.5,1.4v3.1s0,1.4,1.5,1.4h4.6c11.9,0,21.6-9,21.6-20.2S18.1,12.3,6.2,12.3H1.5c-1.5,0-1.5,1.4-1.5,1.4Z"/>
    <path class="st8" d="M0,12.8v3.2s0,1.4,1.5,1.4h4.6c8.5,0,15.2,6.1,15.2,14.1s-8.5,14.2-15.2,14.2H1.5c-1.5,0-1.5,1.4-1.5,1.4v3.1s0,1.4,1.5,1.4h4.6c11.9,0,21.6-9,21.6-20.2S18.1,11.3,6.2,11.3H1.5c-1.5,0-1.5,1.4-1.5,1.4Z"/>
    <path class="st7" d="M64.1,13.8v3.2s0,1.4-1.5,1.4h-4.6c-8.5,0-15.2,6.1-15.2,14.1s8.5,14.2,15.2,14.2h4.6c1.5,0,1.5,1.4,1.5,1.4v3.1s0,1.4-1.5,1.4h-4.6c-11.9,0-21.6-9-21.6-20.2s9.7-20.2,21.6-20.2h4.6c1.5,0,1.5,1.4,1.5,1.4Z"/>
    <path class="st8" d="M64.1,12.8v3.2s0,1.4-1.5,1.4h-4.6c-8.5,0-15.2,6.1-15.2,14.1s8.5,14.2,15.2,14.2h4.6c1.5,0,1.5,1.4,1.5,1.4v3.1s0,1.4-1.5,1.4h-4.6c-11.9,0-21.6-9-21.6-20.2s9.7-20.2,21.6-20.2h4.6c1.5,0,1.5,1.4,1.5,1.4Z"/>
  </g>
  <g>
    <path class="st3" d="M3.2,1.1h57.6c1.8,0,3.2,1.4,3.2,3.2v57.7c0,1.8-1.4,3.2-3.2,3.2H3.2c-1.8,0-3.2-1.4-3.2-3.2V4.4C0,2.6,1.4,1.1,3.2,1.1Z"/>
    <path class="st1" d="M3.2,0h57.6c1.8,0,3.2,1.4,3.2,3.2v57.7c0,1.8-1.4,3.2-3.2,3.2H3.2c-1.8,0-3.2-1.4-3.2-3.2V3.2C0,1.4,1.4,0,3.2,0Z"/>
    <path class="st7" d="M13.7,14.9v36.6h6.9V14.9h-6.9ZM29.7,14.9v6.9h6.9v29.8h6.9v-29.8h6.9v-6.9h-20.6Z"/>
    <g>
      <path class="st10" d="M13.7,13.7h6.9v36.6h-6.9V13.7Z"/>
      <path class="st10" d="M36.6,13.7h6.9v36.6h-6.9V13.7Z"/>
      <path class="st10" d="M50.3,13.7v6.9h-20.6v-6.9h20.6Z"/>
    </g>
    <path class="st6" d="M3.2,0C1.4,0,0,1.4,0,3.2v1.1C0,2.6,1.4,1.1,3.2,1.1h57.6c1.8,0,3.2,1.4,3.2,3.2v-1.1c0-1.8-1.4-3.2-3.2-3.2H3.2Z"/>
  </g>
</svg>