<?xml version="1.0" encoding="UTF-8"?>
<svg id="_图层_1" xmlns="http://www.w3.org/2000/svg" version="1.1" viewBox="0 0 64 64" width="16" height="16">
  <!-- Generator: Adobe Illustrator 29.0.1, SVG Export Plug-In . SVG Version: 2.1.0 Build 192)  -->
  <defs>
    <style>
      .st0 {
        fill: #3f3f3f;
      }

      .st1 {
        fill: #ffac29;
      }

      .st2, .st3 {
        opacity: .2;
      }

      .st2, .st3, .st4 {
        isolation: isolate;
      }

      .st5 {
        display: none;
      }

      .st3, .st4 {
        fill: #fff;
      }

      .st6 {
        fill: #ed7408;
      }

      .st7 {
        fill: #31b5ef;
      }

      .st4 {
        opacity: .1;
      }
    </style>
  </defs>
  <path class="st0" d="M50.4,64H13.8c-7.6,0-13.8-6.2-13.8-13.7V13.7C0,6.2,6.2,0,13.7,0h36.5c7.5,0,13.7,6.2,13.7,13.7v36.6c0,7.5-6.2,13.7-13.7,13.7h.1Z"/>
  <g class="st5">
    <path class="st2" d="M48.7,7.9c-.2,0-.4,0-.6,0l-26,6.2c-3.7.5-3.5,4.4-3.5,4.4v25.2c4.1,1.2,7-3.5,7,.9v-24l19.1-4.7v22.4c4.1,1.2,7-3.5,7,.9V11.3s0-3.6-2.8-3.5ZM51.6,39.2c0,.3,0,.7,0,1,0,0,0,0,0,0h0v-.9ZM25.5,44.6c0,.3,0,.6,0,.9h0v-.9Z"/>
    <path class="st6" d="M48.7,7c-.2,0-.4,0-.6,0l-26,6.2c-3.7.5-3.5,4.4-3.5,4.4v25.2c4.1,1.2,7-3.5,7,.9v-24l19.1-4.7v22.4c4.1,1.2,7-3.5,7,.9V10.4s0-3.6-2.8-3.5ZM51.6,38.3c0,.3,0,.7,0,1,0,0,0,0,0,0h0v-.9ZM25.5,43.7c0,.3,0,.6,0,.9h0v-.9Z"/>
    <path class="st2" d="M42,29.3c-5.3,0-9.6,4.4-9.6,9.9h0c0,5.5,4.3,9.9,9.6,9.9h0c5.3,0,9.6-4.4,9.6-9.9h0c0-5.5-4.3-9.9-9.6-9.9h0ZM15.9,34.7c-5.3,0-9.6,4.4-9.6,9.9s4.3,9.9,9.6,9.9,9.6-4.4,9.6-9.9h0c0-5.5-4.3-9.9-9.6-9.9h0Z"/>
    <path class="st1" d="M42,28.4c-5.3,0-9.6,4.4-9.6,9.9,0,5.5,4.3,9.9,9.6,9.9h0c5.3,0,9.6-4.4,9.6-9.9h0c0-5.5-4.3-9.9-9.6-9.9ZM15.9,33.8c-5.3,0-9.6,4.4-9.6,9.9s4.3,9.9,9.6,9.9,9.6-4.4,9.6-9.9h0c0-5.5-4.3-9.9-9.6-9.9h0Z"/>
    <path class="st4" d="M48.7,7c-.2,0-.4,0-.6,0l-26,6.2c-3.7.5-3.5,4.4-3.5,4.4v.9s-.1-3.9,3.5-4.4l26-6.2c.2,0,.4,0,.6,0,2.9-.2,2.8,3.5,2.8,3.5v-.9s0-3.6-2.8-3.5Z"/>
    <path class="st3" d="M42,28.4c-5.3,0-9.6,4.4-9.6,9.9h0c0,.1,0,.2,0,.4.3-5.2,4.5-9.4,9.5-9.4,5.1,0,9.3,4.2,9.5,9.4,0-.1,0-.3,0-.4,0-5.5-4.3-9.9-9.6-9.9h0ZM15.9,33.8c-5.3,0-9.6,4.4-9.6,9.9h0c0,.1,0,.2,0,.4.3-5.2,4.5-9.4,9.5-9.4,5.1,0,9.3,4.2,9.5,9.4,0-.1,0-.3,0-.4,0-5.5-4.3-9.9-9.6-9.9h0Z"/>
  </g>
  <g>
    <path class="st2" d="M26.4,7.4v7h3.1c1.4,0,2.3.2,2.6.5.4.4.3,5.3.3,16.7,0,19,.7,18.6-5.2,18.5-5,0-6-1.3-3.6-4.1,2.5-2.9,2.5-5.8,0-8.3-1.5-1.4-3.3-2.3-5.3-2.4-2.4-.2-5.5.8-7.7,2.7-1.7,1.5-2.8,3.3-3,5.3-.2,2.7,1.1,5.6,3.6,8.3,4.2,4.7,7.7,4.3,16.2,4.5,6.5.1,14.5-.7,18-8.4.9-1.9.6-2.5.8-16.7.1-16.7.2-16.6,3.6-16.6s1.3,0,1.7,0h1.5v-7h-26.5Z"/>
    <path class="st7" d="M26.4,6.5v7h3.1c1.4,0,2.3.2,2.6.5.4.4.3,5.3.3,16.7,0,19,.7,18.6-5.2,18.5-5,0-6-1.3-3.6-4.1,2.5-2.9,2.5-5.8,0-8.3-1.5-1.4-3.3-2.3-5.3-2.4-2.4-.2-5.5.8-7.7,2.7-1.7,1.5-2.8,3.3-3,5.3-.2,2.7,1.1,5.6,3.6,8.3,4.2,4.7,7.7,4.3,16.2,4.5,6.5.1,14.5-.7,18-8.4.9-1.9.6-2.5.8-16.7.1-16.7.2-16.6,3.6-16.6s1.3,0,1.7,0h1.5v-7h-26.5Z"/>
    <path class="st3" d="M26.4,6.5v.9h26.5v-.9h-26.5ZM17.3,34.4c-2.3.1-4.8,1.1-6.8,2.8-1.7,1.5-2.8,3.3-3,5.3,0,.4,0,.7,0,1.1,0,0,0-.2,0-.3.2-2,1.3-3.8,3-5.3,2.2-1.9,5.3-2.9,7.7-2.7,1.9.1,3.8,1,5.3,2.4,1.2,1.1,1.8,2.4,1.9,3.6.2-1.6-.5-3.1-1.9-4.5-1.5-1.4-3.3-2.3-5.3-2.4-.3,0-.6,0-.9,0ZM32.4,41.6c0,7.9-.8,7.6-5.2,7.6-2.9,0-4.4-.4-4.8-1.3-.4,1.5,1.1,2.2,4.8,2.2,4.5,0,5.1.2,5.2-8.5Z"/>
  </g>
</svg>