<?xml version="1.0" encoding="UTF-8"?>
<svg id="_图层_1" xmlns="http://www.w3.org/2000/svg" version="1.1" viewBox="0 0 64 64" width="16" height="16">
  <!-- Generator: Adobe Illustrator 29.0.1, SVG Export Plug-In . SVG Version: 2.1.0 Build 192)  -->
  <defs>
    <style>
      .st0 {
        fill: #8c2330;
      }

      .st0, .st1, .st2, .st3, .st4, .st5, .st6 {
        display: none;
      }

      .st7 {
        fill: #777;
      }

      .st8 {
        fill: #ff8c2a;
      }

      .st1, .st2, .st9, .st10, .st11, .st12, .st13, .st5, .st14 {
        isolation: isolate;
      }

      .st1, .st11, .st12, .st5 {
        opacity: .2;
      }

      .st2, .st15, .st12, .st5, .st14 {
        fill: #fff;
      }

      .st2, .st9, .st14 {
        opacity: .1;
      }

      .st16 {
        fill: #c33a34;
      }

      .st17 {
        fill: #3f3f3f;
      }

      .st18 {
        fill: #fe4b71;
      }

      .st19 {
        fill: #a5661f;
      }

      .st3 {
        fill: #31405e;
      }

      .st20 {
        fill: none;
        stroke: #3f3f3f;
        stroke-width: .2px;
      }

      .st21 {
        fill: #a245e9;
      }

      .st22 {
        fill: #28b952;
      }

      .st23 {
        fill: #ffc389;
      }

      .st24, .st13 {
        fill: #561900;
      }

      .st10 {
        fill: #aa652f;
        opacity: .5;
      }

      .st13 {
        opacity: .4;
      }

      .st25 {
        fill: #4287ea;
      }

      .st6 {
        fill: #17a0db;
      }
    </style>
  </defs>
  <path class="st15" d="M50.4,64H13.8c-7.6,0-13.8-6.2-13.8-13.7V13.7C0,6.2,6.2,0,13.7,0h36.6c7.5,0,13.7,6.2,13.7,13.7v36.6c0,7.5-6.2,13.7-13.7,13.7h.1Z"/>
  <g class="st4">
    <path class="st1" d="M19.2,1.1h25.7c10.6,0,19.2,8.6,19.2,19.3v25.7c0,10.6-8.6,19.3-19.2,19.3h-25.7c-10.6,0-19.2-8.6-19.2-19.3v-25.7C0,9.8,8.6,1.1,19.2,1.1Z"/>
    <path class="st3" d="M19.2,0h25.7c10.6,0,19.2,8.6,19.2,19.3v25.7c0,10.6-8.6,19.3-19.2,19.3h-25.7c-10.6,0-19.2-8.6-19.2-19.3v-25.7C0,8.6,8.6,0,19.2,0Z"/>
    <path class="st11" d="M32.1,10.3c-6.1,0-25.6,35.5-22.6,41.4,3,6,42.3,5.9,45.2,0,2.9-5.9-16.5-41.4-22.6-41.4ZM32.1,19.4c4,0,16.7,23.3,14.8,27.2-1.9,3.9-27.7,3.9-29.6,0-2-3.9,10.8-27.2,14.8-27.2ZM32.1,28.7c-1.9,0-7.9,10.6-7,12.4.9,1.8,13.1,1.8,14,0,.9-1.8-5.1-12.4-7-12.4Z"/>
    <path class="st25" d="M32.1,27.5c-1.9,0-7.9,10.6-7,12.4.9,1.8,13.1,1.8,14,0,.9-1.8-5.1-12.4-7-12.4Z"/>
    <path class="st21" d="M32.1,9.2c-6.1,0-25.6,35.5-22.6,41.4,3,6,42.3,5.9,45.2,0,2.9-5.9-16.5-41.4-22.6-41.4ZM46.9,45.4c-1.9,3.9-27.7,3.9-29.6,0-2-3.9,10.8-27.2,14.8-27.2s16.7,23.3,14.8,27.2Z"/>
    <path class="st2" d="M19.2,0C8.6,0,0,8.6,0,19.3v1.1C0,9.7,8.6,1.1,19.2,1.1h25.7c10.7,0,19.2,8.6,19.2,19.3v-1.1c0-10.7-8.6-19.3-19.2-19.3h-25.7Z"/>
    <path class="st12" d="M32.1,9.2c-5.7,0-23.6,31.8-22.9,40.3.8-9.8,17.4-39.1,22.9-39.1s22.1,29.3,22.9,39.1c.7-8.4-17.1-40.3-22.9-40.3ZM32.1,27.5c-1.9,0-7.9,10.5-7,12.4.7-3.3,5.4-11.2,7-11.2,1.6,0,6.3,7.9,7,11.3.8-1.8-5.1-12.4-7-12.4ZM17.1,44.8c0,.7,0,1.3.2,1.7,2,3.9,27.7,3.9,29.6,0,.2-.4.2-1,.2-1.7,0,.2,0,.4-.2.6-1.9,3.9-27.7,3.9-29.6,0,0-.2-.1-.4-.2-.6Z"/>
  </g>
  <g class="st4">
    <path class="st18" d="M31.5,2.5c-1.2,0-2.4.3-3.5.8L8.6,14.1c-2,1.1-3.3,3.2-3.3,5.5v21.6c0,2.3,1.3,4.4,3.3,5.5l19.4,10.8c1.1.6,2.2.9,3.4.9,1.1,0,.9-1.2,1.9-1.8l19.3-10.6c2-1.1,3.7-2.2,3.7-4.5v-21.5c0-.8.9-1.9.6-2.6-.5-1.4-1.5-2.5-2.9-3.3L34.6,3.3c-1-.5-2-.8-3.1-.8h0Z"/>
    <path class="st8" d="M5.9,17.2c-.3.8-.5,1.6-.5,2.5v21.6c0,2.3,1.3,4.4,3.3,5.5l19.4,10.8c1,.6,2.1.8,3.3.8v-27.7L5.9,17.2Z"/>
    <path class="st17" d="M56.8,17.2l-25.5,13.5v27.7c1.2,0,2.3-.3,3.3-.8l19.4-10.8c2-1.1,3.3-3.2,3.3-5.5v-21.6c0-.8-.2-1.7-.5-2.5Z"/>
    <path class="st12" d="M31.5,2.5c-1.2,0-2.4.3-3.5.9L8.6,14.2c-2,1.1-3.3,3.2-3.3,5.5v1c0-2.3,1.3-4.4,3.3-5.5L28,4.3c1-.6,2.2-.9,3.5-.9,1.1,0,2.2.3,3.1.9l19.4,10.8c2,1.1,3.3,3.2,3.3,5.5v-1c0-2.3-1.3-4.4-3.3-5.5L34.6,3.3c-1-.5-2-.8-3.1-.9Z"/>
    <path class="st11" d="M5.3,40.3s0,0,0,0h0c0,0,0,0,0,0ZM5.3,41.3v1c0,2.3,1.3,4.4,3.3,5.5l19.4,10.8c2,1.1,4.6,1.1,6.6,0l19.4-10.8c2-1.1,3.3-3.2,3.3-5.5v-1c0,2.3-1.3,4.4-3.3,5.5l-19.4,10.8c-2,1.1-4.6,1.1-6.6,0l-19.4-10.8c-2-1.1-3.3-3.2-3.3-5.5Z"/>
    <path class="st12" d="M5.9,17.2c-.3.8-.5,1.6-.5,2.5v1c0-.8.2-1.7.5-2.5l25.5,13.5v-1L5.9,17.2Z"/>
    <path class="st11" d="M56.8,17.2l-25.5,13.5v1l25.5-13.5c.3.8.5,1.6.5,2.5v-1c0-.8-.2-1.7-.5-2.5Z"/>
    <path class="st11" d="M45.3,44.5l-10,5.3v2.4l10-5.4v-2.3Z"/>
    <path class="st15" d="M45.3,43.5l-10,5.3v2.4l10-5.4v-2.3Z"/>
  </g>
  <g class="st4">
    <ellipse class="st1" cx="32" cy="33.2" rx="32" ry="32.1"/>
    <ellipse class="st0" cx="32" cy="32.1" rx="32" ry="32.1"/>
    <path class="st11" d="M43.8,3.4c-5.3,5.6-8.5,11.6-10.1,18.4-2,8.8-1.7,18.5-1.5,32h11.4c-.1-7.3-.1-13.3,0-18.3h8.9v-11.4h-7.6c1.3-5.5,3.6-9.6,8.7-14.4-2.9-2.7-6.2-4.8-9.9-6.2ZM29.7,10.2h-11.4c.2,18.2-.4,27.2-2,32.1-1.4,4.4-3.8,6.7-8.8,11.4,2.5,3,5.5,5.5,8.8,7.4,4.9-4.7,8.7-8.8,10.8-15.2,2.5-7.7,2.7-17.4,2.5-35.7Z"/>
    <path class="st15" d="M43.8,2.3c-5.3,5.6-8.5,11.6-10.1,18.4-2,8.8-1.7,18.5-1.5,32h11.4c-.1-7.3-.1-13.3,0-18.3h8.9v-11.4h-7.6c1.3-5.5,3.6-9.6,8.7-14.4-2.9-2.7-6.2-4.8-9.9-6.2ZM29.7,9.1h-11.4c.2,18.2-.4,27.2-2,32.1-1.4,4.4-3.8,6.7-8.8,11.4,2.5,3,5.5,5.5,8.8,7.4,4.9-4.7,8.7-8.8,10.8-15.2,2.5-7.7,2.7-17.4,2.5-35.7Z"/>
    <path class="st2" d="M32,0C14.3,0,0,14.4,0,32.1c0,.2,0,.4,0,.6C.3,15.2,14.6,1.2,32,1.1c17.4,0,31.7,14,32,31.5,0-.2,0-.4,0-.6C64,14.4,49.7,0,32,0Z"/>
  </g>
  <g class="st4">
    <path class="st11" d="M25.3,7.4v7.2h3.1c1.4,0,2.4.2,2.6.5.4.4.3,5.4.3,17.1,0,19.6.7,19.1-5.2,19-5.1,0-6.1-1.4-3.6-4.2,2.6-2.9,2.5-5.9,0-8.5-1.5-1.5-3.4-2.4-5.3-2.5-2.5-.2-5.6.9-7.8,2.8-1.7,1.5-2.8,3.4-3,5.5-.2,2.8,1.1,5.8,3.6,8.6,4.3,4.9,7.8,4.4,16.3,4.6,6.6.1,14.6-.7,18.1-8.6.9-1.9.7-2.6.8-17.2.1-17.1.2-17.1,3.6-17.1s1.3,0,1.7,0h1.5v-7.2h-26.7Z"/>
    <path class="st7" d="M25.3,6.5v7.2h3.1c1.4,0,2.4.2,2.6.5.4.4.3,5.4.3,17.1,0,19.6.7,19.1-5.2,19-5.1,0-6.1-1.4-3.6-4.2,2.6-2.9,2.5-5.9,0-8.5-1.5-1.5-3.4-2.4-5.3-2.5-2.5-.2-5.6.9-7.8,2.8-1.7,1.5-2.8,3.4-3,5.5-.2,2.8,1.1,5.8,3.6,8.6,4.3,4.9,7.8,4.4,16.3,4.6,6.6.1,14.6-.7,18.1-8.6.9-1.9.7-2.6.8-17.2.1-17.1.2-17.1,3.6-17.1s1.3,0,1.7,0h1.5v-7.2h-26.7Z"/>
    <path class="st14" d="M25.3,6.5v.9h26.7v-.9h-26.7ZM16.2,35.1c-2.3.1-4.9,1.1-6.8,2.8-1.7,1.5-2.8,3.4-3,5.5,0,.4,0,.8,0,1.2,0,0,0-.2,0-.3.2-2,1.3-3.9,3-5.5,2.2-2,5.3-3,7.8-2.8,1.9.1,3.8,1,5.3,2.5,1.2,1.2,1.9,2.4,2,3.7.2-1.6-.5-3.2-2-4.6-1.5-1.5-3.4-2.4-5.3-2.5-.3,0-.6,0-1,0ZM31.3,42.5c0,8.1-.8,7.8-5.2,7.8-2.9,0-4.5-.5-4.8-1.4-.4,1.5,1.1,2.2,4.8,2.3,4.6,0,5.2.2,5.2-8.7Z"/>
  </g>
  <g class="st4">
    <path class="st11" d="M25.3,7.6v7.1h3.1c1.4,0,2.3.2,2.6.5.4.4.3,5.4.3,17,0,19.5.7,19-5.1,19-5,0-6-1.4-3.5-4.2,2.5-2.9,2.5-5.9,0-8.5-1.5-1.5-3.3-2.4-5.2-2.5-2.4-.2-5.5.9-7.7,2.8-1.7,1.5-2.8,3.4-3,5.4-.2,2.7,1.1,5.8,3.6,8.5,4.2,4.8,7.7,4.4,16.1,4.6,6.5.1,14.4-.7,17.9-8.6.9-1.9.6-2.5.8-17.1.1-17.1.2-17,3.6-17s1.3,0,1.7,0h1.5v-7.1h-26.4Z"/>
    <path class="st22" d="M25.3,6.7v7.1h3.1c1.4,0,2.3.2,2.6.5.4.4.3,5.4.3,17,0,19.5.7,19-5.1,19-5,0-6-1.4-3.5-4.2,2.5-2.9,2.5-5.9,0-8.5-1.5-1.5-3.3-2.4-5.2-2.5-2.4-.2-5.5.9-7.7,2.8-1.7,1.5-2.8,3.4-3,5.4-.2,2.7,1.1,5.8,3.6,8.5,4.2,4.8,7.7,4.4,16.1,4.6,6.5.1,14.4-.7,17.9-8.6.9-1.9.6-2.5.8-17.1.1-17.1.2-17,3.6-17s1.3,0,1.7,0h1.5v-7.1h-26.4Z"/>
    <path class="st12" d="M25.3,6.7v.9h26.4v-.9h-26.4ZM16.4,35.2c-2.2.1-4.8,1.1-6.7,2.8-1.7,1.5-2.8,3.4-3,5.4,0,.4,0,.8,0,1.1,0,0,0-.2,0-.3.2-2,1.3-3.9,3-5.4,2.2-2,5.2-3,7.7-2.8,1.9.1,3.7,1,5.2,2.5,1.2,1.2,1.8,2.4,1.9,3.7.2-1.6-.5-3.2-1.9-4.6-1.5-1.5-3.3-2.4-5.2-2.5-.3,0-.6,0-.9,0ZM31.3,42.5c0,8.1-.8,7.8-5.2,7.8-2.9,0-4.4-.5-4.7-1.4-.4,1.5,1.1,2.2,4.7,2.2,4.5,0,5.1.2,5.2-8.7Z"/>
  </g>
  <g class="st4">
    <ellipse class="st1" cx="31.9" cy="33.1" rx="31.9" ry="32"/>
    <ellipse class="st6" cx="31.9" cy="32" rx="31.9" ry="32"/>
    <path class="st11" d="M39.4,8c-.7,0-1.4.3-1.9.8-.5.5-.7,1.3-.6,2,0,.8-.1,2.1-.2,2.5,0,0-.2.7-1.9,1.5,0,0-.2,0-.3,0-.9.3-2.5.9-3.6,2.3-.8,1-1,2-1.3,3.2-.2.9-.3,1.8-.3,2.7v.2h-.2c-2.8.7-4.8,1.9-5.9,3.8-1.2,1.9-1.4,4.4-.6,7.2,0,0,0,0,0,.1v.4c.1,0-.3,0-.3,0-.1,0-.3,0-.4,0-.1,0-.2,0-.4,0-1.3,0-2.8.9-3.8,2.3-.8,1.1-1.8,3.1-1.8,6.2,0,2.3.2,4.4.7,6.3.4,1.4.8,2.2,1,2.5l3.2,6,1.4-6.7c.6-2.7,1.2-3.7,1.8-4.4h.1c0-.1.2,0,.2,0,1.6,1,3.4,1.5,5.4,1.5,2.3,0,4.5-.6,6.5-1.8,1.3-.8,2.4-1.7,3.2-2.8h.1c0,0,.2,0,.2,0,.5,0,1.2-.3,2-.7.6-.4,1.6-1.1,2.5-2.2,1-1.3,1.8-2.7,2.3-4.3.7-1.9,1.1-4.2,1.2-6.7.2-2.3-.1-4.3-.8-5.7-.8-1.8-2.4-3-4.3-3.4h-.2s0-.2,0-.2c0-.5-.2-1-.4-1.5h0c0-.1,0-.2,0-.2,1.2-1.7,1.5-4,.8-6-.5-1.7-.9-2.7-1.3-3.3-.7-1.3-1.7-1.5-2.4-1.5h0ZM39.4,10s0,0,0,0c.4,0,.7,0,1.8,3.5.6,1.8.2,3.6-1.3,5.2h0c0,0,0,0,0,0,.6,1,.9,2.3.8,3.3,0,.2,0,.4-.1.6h0c.1,0,.3,0,.4,0,.7,0,1.8.1,2.6.7.5.3,1.2.8,1.6,1.8.5,1.2.7,2.8.6,4.7-.1,2.4-.5,4.5-1.1,6.2-.5,1.3-1.1,2.6-2,3.7-1.3,1.7-2.7,2.2-3,2.2-.2,0-.3,0-.7-.4,0,0,0,0-.1,0-.8,1.4-2,2.7-3.6,3.6-1.7,1-3.6,1.5-5.5,1.6-2.2,0-4.1-.7-5.6-2-1.8,1.2-2.9,2.2-3.9,6.5l-.3,1.5-.7-1.3c-.3-.7-.6-1.4-.8-2.1-.5-1.9-.7-3.8-.7-5.8,0-2.4.7-4,1.4-4.9.7-1,1.6-1.7,2.4-1.7h.1c1.2.1,2,.7,3.4,1.6l.4.3c.5.3,1.1.7,1.3.7.1,0,.4-.6.5-1.3h0c0-.1,0-.1,0-.1-1-.3-2.3-1.9-2.9-4.1-.6-2.3-.5-4.1.4-5.6,1.5-2.4,4.6-2.9,5.6-3.1.3,0,.6-.1,1-.2,0,0,.1,0,.2,0,0,0,0,0,0-.1,0,0,0-.2,0-.3-.3-1.5-.2-2.7,0-3.7.2-1.1.4-1.8.9-2.4.7-1,2-1.4,2.7-1.7.2,0,.3-.1.4-.2,2.1-1,2.8-2.1,3-2.8.2-.6.4-2.1.3-3.2,0-.2,0-.4.2-.5,0-.1.2-.2.4-.2h0ZM39.9,13.9c-.2,1.3-.5,2.6-1.1,3.9.7-.8,1.1-1.6,1.2-2.5,0-.4.1-.8,0-1.4h0ZM38.5,16.2c-1,1-2.3,1.6-3.1,1.9-.2,0-.4.2-.7.3,0,0-.1,0-.2.1-.5.3-1.2.7-1.3,1h0c-.3.7-.5,1.8-.6,2.4.8-.5,1.6-.8,2.2-1.1.6-.2,1.1-.5,1.4-.7,1.2-1.1,1.9-2.9,2.2-3.9h0ZM39,19.7c-.3.2-.8.6-1.1.9-.2.1-.3.3-.4.5,0,0,0,0,0,0-.2.6,0,1.4.6,1.7.1,0,.3.1.4.1h0c.4,0,.7-.3.9-.9.2-.5.2-.9,0-1.4,0-.4-.3-.7-.5-1h0ZM36.2,21.4c-2.4.8-3.1,1.3-3.5,1.6-.2.2-.3.7.3,2,.3.7,1.4,1.6,1.8,1.7,0,0,0,0,.1,0,.8,0,2.4-1.1,2.8-1.6h0s0,0,0,0c.1-.1.4-.7.6-1-1.6-.5-1.8-1.4-1.9-2.2,0,0,0-.2,0-.2,0,0,0-.2,0-.3h0ZM42.3,24.1c0,0-.1,0-.2,0-.2,0-.6,1.1-.4,1.8.1.5.7,2.2,1,3,0,.3.2.5.2.5,0,0,0,.1,0,.2.2.7.8,2.6,1,4,.4-1.9.6-3.8.5-5.8,0-1-.3-2-.8-2.8-.4-.6-.9-1-1.3-1,0,0,0,0,0,0h0ZM40.8,24.4c-.5.2-1,.5-1.5.8h0c-.3.2-.5.5-.8.7-1.6,1.5-2.9,2.3-3.7,2.3h0c-.7,0-1.7-1.1-2.2-1.6,0,0-.2,0-.3,0-.1,0-.3,0-.4,0-.1,0-.2,0-.3,0-.4,0-.9.1-1.3.3-.3,0-.6.1-.9.2-1.2.3-2,.7-2.5,1.1h0c-.3.2-1,.8-1.2,1.8h0c-.4,1.9.2,4.2,1.1,5.5.4.6.9,1,1.2,1.1,0,0,.2,0,.3,0,1.4,0,4.4-.9,6.4-1.4l.8-.2s0,0,.1,0c-.1-.1-.3-.3-.6-.5-1.3-.9-2.6-1.3-3.9-1.3s-.6,0-.9,0c-1.1.1-2.1.4-2.5.5-.1,0-.2,0-.4,0-.1,0-.3,0-.3-.2,0-.1,0-.3.1-.4h0c.8-.7,2.3-1.9,5-2.5.5,0,1-.1,1.5-.1,1.2,0,2.5.3,3.8.8,1.8.7,3,1.6,3.9,2.3.5.4,1,.7,1.4.9.1,0,.2,0,.2,0,0,0,0-.2.1-.3,0,0,.1-.5-.7-3.2-.4-1.3-.8-2.6-1.3-3.9-.6-1.4-.4-2.3-.3-2.9h0ZM33.5,31.7c-1.2,0-2.3.2-3.1.5.2,0,.4,0,.6,0s.5,0,.8,0c.9,0,3.1.5,5.1,2.9.4.5.8.9,2.1.9s1,0,1.6-.2h.2c.4-.2.8-.3,1-.3-.5-.4-1.1-.8-1.9-1.5-2-1.6-4.1-2.4-6.4-2.4h0ZM36.2,35.8s0,0-.2,0h0c-.4.2-1.2.4-2,.7-1,.4-2.2.8-3.2,1.1-1.3.5-1.7.7-1.8.7v.2c-.4.9-1.1,3-4.4,4.5.7.7,2.2,2,5.2,2s.5,0,.8,0c2.3-.2,4.4-1.2,6-2.8,1.4-1.5,2.3-3.4,2.3-5.2-.5,0-1-.2-1.5-.4,0,0-.6-.3-1-.8,0,0,0,0,0,0h0ZM43.3,35.9c-.5.3-1,.5-1.6.7-.7.2-1.4.3-1.8.4,0,.4,0,1.1-.2,1.6,0,.5-.2,1-.4,1.5l.5.5c.5-.4,2.2-1.7,3.4-4.7h0ZM21.6,38.5c-.2,0-1.9,1.2-2.3,4.6-.2,1.7.1,3.8.4,5.1.2-.8.5-1.6,1.2-2.5.6-.8,1.3-1.4,2.1-2-.3-.1-.5-.3-.7-.5-.3-.4-.4-.9-.4-1.3.2-2.6,0-3.2-.2-3.3,0,0,0,0,0,0h0ZM23.4,39.1c0,.5,0,1.1-.1,1.6,0,.3,0,.6-.1.8,0,.6,0,.8.1.8,0,0,0,0,.2,0,0,0,.2,0,.3,0,1-.4,1.9-1.2,2.4-1.6-.7-.3-1.8-1-2.7-1.7h0Z"/>
    <path class="st15" d="M39.4,6.9c-.7,0-1.4.3-1.9.8-.5.5-.7,1.3-.6,2,0,.8-.1,2.1-.2,2.5,0,0-.2.7-1.9,1.5,0,0-.2,0-.3,0-.9.3-2.5.9-3.6,2.3-.8,1-1,2-1.3,3.2-.2.9-.3,1.8-.3,2.7v.2h-.2c-2.8.7-4.8,1.9-5.9,3.8-1.2,1.9-1.4,4.4-.6,7.2,0,0,0,0,0,.1v.4c.1,0-.3,0-.3,0-.1,0-.3,0-.4,0-.1,0-.2,0-.4,0-1.3,0-2.8.9-3.8,2.3-.8,1.1-1.8,3.1-1.8,6.2,0,2.3.2,4.4.7,6.3.4,1.4.8,2.2,1,2.5l3.2,6,1.4-6.7c.6-2.7,1.2-3.7,1.8-4.4h.1c0-.1.2,0,.2,0,1.6,1,3.4,1.5,5.4,1.5,2.3,0,4.5-.6,6.5-1.8,1.3-.8,2.4-1.7,3.2-2.8h.1c0,0,.2,0,.2,0,.5,0,1.2-.3,2-.7.6-.4,1.6-1.1,2.5-2.2,1-1.3,1.8-2.7,2.3-4.3.7-1.9,1.1-4.2,1.2-6.7.2-2.3-.1-4.3-.8-5.7-.8-1.8-2.4-3-4.3-3.4h-.2s0-.2,0-.2c0-.5-.2-1-.4-1.5h0c0-.1,0-.2,0-.2,1.2-1.7,1.5-4,.8-6-.5-1.7-.9-2.7-1.3-3.3-.7-1.3-1.7-1.5-2.4-1.5h0ZM39.4,8.8s0,0,0,0c.4,0,.7,0,1.8,3.5.6,1.8.2,3.6-1.3,5.2h0c0,0,0,0,0,0,.6,1,.9,2.3.8,3.3,0,.2,0,.4-.1.6h0c.1,0,.3,0,.4,0,.7,0,1.8.1,2.6.7.5.3,1.2.8,1.6,1.8.5,1.2.7,2.8.6,4.7-.1,2.4-.5,4.5-1.1,6.2-.5,1.3-1.1,2.6-2,3.7-1.3,1.7-2.7,2.2-3,2.2-.2,0-.3,0-.7-.4,0,0,0,0-.1,0-.8,1.4-2,2.7-3.6,3.6-1.7,1-3.6,1.5-5.5,1.6-2.2,0-4.1-.7-5.6-2-1.8,1.2-2.9,2.2-3.9,6.5l-.3,1.5-.7-1.3c-.3-.7-.6-1.4-.8-2.1-.5-1.9-.7-3.8-.7-5.8,0-2.4.7-4,1.4-4.9.7-1,1.6-1.7,2.4-1.7h.1c1.2.1,2,.7,3.4,1.6l.4.3c.5.3,1.1.7,1.3.7.1,0,.4-.6.5-1.3h0c0-.1,0-.1,0-.1-1-.3-2.3-1.9-2.9-4.1-.6-2.3-.5-4.1.4-5.6,1.5-2.4,4.6-2.9,5.6-3.1.3,0,.6-.1,1-.2,0,0,.1,0,.2,0,0,0,0,0,0-.1,0,0,0-.2,0-.3-.3-1.5-.2-2.7,0-3.7.2-1.1.4-1.8.9-2.4.7-1,2-1.4,2.7-1.7.2,0,.3-.1.4-.2,2.1-1,2.8-2.1,3-2.8.2-.6.4-2.1.3-3.2,0-.2,0-.4.2-.5,0-.1.2-.2.4-.2h0ZM39.9,12.8c-.2,1.3-.5,2.6-1.1,3.9.7-.8,1.1-1.6,1.2-2.5,0-.4.1-.8,0-1.4h0ZM38.5,15.1c-1,1-2.3,1.6-3.1,1.9-.2,0-.4.2-.7.3,0,0-.1,0-.2.1-.5.3-1.2.7-1.3,1h0c-.3.7-.5,1.8-.6,2.4.8-.5,1.6-.8,2.2-1.1.6-.2,1.1-.5,1.4-.7,1.2-1.1,1.9-2.9,2.2-3.9h0ZM39,18.5c-.3.2-.8.6-1.1.9-.2.1-.3.3-.4.5,0,0,0,0,0,0-.2.6,0,1.4.6,1.7.1,0,.3.1.4.1h0c.4,0,.7-.3.9-.9.2-.5.2-.9,0-1.4,0-.4-.3-.7-.5-1h0ZM36.2,20.3c-2.4.8-3.1,1.3-3.5,1.6-.2.2-.3.7.3,2,.3.7,1.4,1.6,1.8,1.7,0,0,0,0,.1,0,.8,0,2.4-1.1,2.8-1.6h0s0,0,0,0c.1-.1.4-.7.6-1-1.6-.5-1.8-1.4-1.9-2.2,0,0,0-.2,0-.2,0,0,0-.2,0-.3h0ZM42.3,23c0,0-.1,0-.2,0-.2,0-.6,1.1-.4,1.8.1.5.7,2.2,1,3,0,.3.2.5.2.5,0,0,0,.1,0,.2.2.7.8,2.6,1,4,.4-1.9.6-3.8.5-5.8,0-1-.3-2-.8-2.8-.4-.6-.9-1-1.3-1,0,0,0,0,0,0h0ZM40.8,23.2c-.5.2-1,.5-1.5.8h0c-.3.2-.5.5-.8.7-1.6,1.5-2.9,2.3-3.7,2.3h0c-.7,0-1.7-1.1-2.2-1.6,0,0-.2,0-.3,0-.1,0-.3,0-.4,0-.1,0-.2,0-.3,0-.4,0-.9.1-1.3.3-.3,0-.6.1-.9.2-1.2.3-2,.7-2.5,1.1h0c-.3.2-1,.8-1.2,1.8h0c-.4,1.9.2,4.2,1.1,5.5.4.6.9,1,1.2,1.1,0,0,.2,0,.3,0,1.4,0,4.4-.9,6.4-1.4l.8-.2s0,0,.1,0c-.1-.1-.3-.3-.6-.5-1.3-.9-2.6-1.3-3.9-1.3s-.6,0-.9,0c-1.1.1-2.1.4-2.5.5-.1,0-.2,0-.4,0-.1,0-.3,0-.3-.2,0-.1,0-.3.1-.4h0c.8-.7,2.3-1.9,5-2.5.5,0,1-.1,1.5-.1,1.2,0,2.5.3,3.8.8,1.8.7,3,1.6,3.9,2.3.5.4,1,.7,1.4.9.1,0,.2,0,.2,0,0,0,0-.2.1-.3,0,0,.1-.5-.7-3.2-.4-1.3-.8-2.6-1.3-3.9-.6-1.4-.4-2.3-.3-2.9h0ZM33.5,30.5c-1.2,0-2.3.2-3.1.5.2,0,.4,0,.6,0s.5,0,.8,0c.9,0,3.1.5,5.1,2.9.4.5.8.9,2.1.9s1,0,1.6-.2h.2c.4-.2.8-.3,1-.3-.5-.4-1.1-.8-1.9-1.5-2-1.6-4.1-2.4-6.4-2.4h0ZM36.2,34.6s0,0-.2,0h0c-.4.2-1.2.4-2,.7-1,.4-2.2.8-3.2,1.1-1.3.5-1.7.7-1.8.7v.2c-.4.9-1.1,3-4.4,4.5.7.7,2.2,2,5.2,2s.5,0,.8,0c2.3-.2,4.4-1.2,6-2.8,1.4-1.5,2.3-3.4,2.3-5.2-.5,0-1-.2-1.5-.4,0,0-.6-.3-1-.8,0,0,0,0,0,0h0ZM43.3,34.8c-.5.3-1,.5-1.6.7-.7.2-1.4.3-1.8.4,0,.4,0,1.1-.2,1.6,0,.5-.2,1-.4,1.5l.5.5c.5-.4,2.2-1.7,3.4-4.7h0ZM21.6,37.3c-.2,0-1.9,1.2-2.3,4.6-.2,1.7.1,3.8.4,5.1.2-.8.5-1.6,1.2-2.5.6-.8,1.3-1.4,2.1-2-.3-.1-.5-.3-.7-.5-.3-.4-.4-.9-.4-1.3.2-2.6,0-3.2-.2-3.3,0,0,0,0,0,0h0ZM23.4,38c0,.5,0,1.1-.1,1.6,0,.3,0,.6-.1.8,0,.6,0,.8.1.8,0,0,0,0,.2,0,0,0,.2,0,.3,0,1-.4,1.9-1.2,2.4-1.6-.7-.3-1.8-1-2.7-1.7h0Z"/>
    <path class="st5" d="M31.9,0C14.3,0,0,14.3,0,32c0,.2,0,.4,0,.6C.3,15.1,14.5,1.1,31.9,1.1c17.4,0,31.6,14,31.9,31.4,0-.2,0-.4,0-.6C63.8,14.3,49.5,0,31.9,0Z"/>
  </g>
  <g>
    <path class="st11" d="M8.7,20.5c-.6,0-.8.8-1,1.8-.4,1.2-.7,2.6-.7,3.6,0,2.6,1.9,5.5,2.2,8.1.3,2.1-.4,4.2.4,6,.5,1,1,2.1,2,2.2,1,.1,1.7-1,2.1-2,.1.6.3,1.3.4,1.5.1.2.2,2.4.2,2.4,0,0,.4-1.3.6-1,.3.5.6,1,.9,1.4.1.2,0,1.9,0,1.9,0,0,.7-1.1.8-.9.1.2.6,1.6.6,1.6,0,0,.1-.8.2-.7.1.1,1,2.1,1,2.1,0,0-.4-1.5-.3-1.3.3.3.5.5.8.7.2.2,1,1.7,1,1.7,0,0-.1-.9,0-.8.2.2.4.3.6.4.3.2.6,1.5.6,1.5,0,0,.2-1.3.3-1.2,5.5,3,11.2,2.4,13.8,2.4,5.3,0,13.9-3.6,15.7-8.8.4-1.3-1.5-3.6-3.1-5l.2-1.9s2.2-.7,2.1-1.5c-.5-3.3-3.6-6.3-3.6-6.3l-26.2-6.8-6.4,16.1v.3c-.2-.6-.3-1.3,0-2.2.6-2.2,2.2-4.1,1.8-6-.9-4.8-3.6-7.3-5.4-8.6-.8-.5-1.3-.7-1.6-.7Z"/>
    <path class="st23" d="M20.4,20.8l26.2,6.8s3,3,3.5,6.3c.1.8-2.1,1.5-2.1,1.5l-.2,1.9c1.6,1.3,3.5,3.7,3.1,5-1.8,5.3-10.4,8.9-15.7,8.8-2.5,0-8.3.6-13.7-2.4-.1,0-.3,1.2-.3,1.2,0,0-.4-1.3-.6-1.5-.2-.1-.4-.3-.6-.4-.1,0,0,.8,0,.8,0,0-.8-1.5-1-1.7-.3-.2-.5-.5-.8-.7-.1-.1.3,1.3.3,1.3,0,0-.9-1.9-1-2.1-.1-.1-.2.7-.2.7,0,0-.4-1.4-.6-1.6-.1-.1-.8.9-.8.9,0,0,.2-1.7,0-1.9-.3-.4-.6-.9-.9-1.4-.1-.2-.6,1-.6,1,0,0,0-2.1-.2-2.4-.2-.3-.4-1.9-.6-2.2l.4-1.8,6.4-16.1Z"/>
    <path class="st9" d="M29.1,8.1c.5.8.9,2.3-.8,1.9-1.7-.4-.3.6-1.7.8-1.4,1.3-2.6-2-2.9.2-.5,2.3-2.3,2.2-3.8.8.7.7,2,2.7.2,1.1.8,2.7-1.7.3-3.3-.1-3.4-1,.7.5,1.5,1.4,1.6,1,0,.9-.8,1.3,2.6.2,0,1-1.1,1.1,2.1,0,.7,1.1-.5,1.1.5.2.4,1.6-.8,1.5-.4.3-1.3,2.8-2.1,4.4,1.2,1.5,2.3,3.5,2.8,6.2.4,1.9-1.2,3.8-1.8,6-.3,1.1,0,1.9,0,2.6.6-.9,3.8-4.3,5.8-3.9-.3-1-1-2.9-1.1-3.9,0-.3,1.1.7,1.1.7,0,0-.8-1.4-.7-1.7,0-1.2.9-2.6,1.5-3.3.2-.2.3.9.5.8.1-.1,0-.9.1-1,1.2-.8,2.4-1,2.4-1,.4-.1,2.3.9,2.3.9,0,0-1.9-1.4.3-1.4,1.6,0,3.4.4,5,1.3,1.8.7,3.3,2.1,4.2,3.9-.9-2.9,1.5.4,2.2,1.6,1.6,2.6-.5-2.4,0-2.3,1.9,1.5,4.4,2,6.6,2.8.4-.4-2.8-2-3.5-2.7-2.5-1.7,3.9,1.1,2-.5,2.2-.9,4.7.3,5.9,2.1,0,0,1.1.8,1.2.9,1,1.6.8.6.2-.4,1.4.2,3.1,3.3,3.6,3-.5-1.8-2.5-3.8-3-4.9,2.8,1-.8-1-1.2-1.9.7-1,4.1,1.2,5.1,2.5.5-.1-1.6-3-2.6-3.6-2.6-1.2.1-.7,1.4-.8,3.1-.3-1.5-.3-1.4-.8,2.2-.2,4.1-1.4,6.2-2-2.8,0-5.6,1.4-8.4.6-2-.9,0-.7,1-.2-.4-.7-2.3-.9-.2-1,3.1-.4-2-.2-2-.7,2.4-1.9,5.7-2.9,8.7-2.3-2-1.1-4.6-1.2-6.9-1-1.9.4-1.4,0-2.9-.6,1.9-1,.1-.5-1-.7-.5-.8-3.9-2.7-1.5-2.6-1.1-.3-.8-.4.5-.8.4,0-5.8-.9-3.5-1.6-1.2-.3-1.4-.5,0-.9,0-.6-3,0-4-.3-.2-.3.3-.8-1-.7.6-1-1.8.6-1.5-1.2-.4,2.2-3.9-.5-3.2.6-.2,1.8-1.8-1.3-2.7-1.6ZM36.6,32.6c0,.1,0,.2,0,.3.2.1,0-.1,0-.3Z"/>
    <path class="st23" d="M10.3,20.3c1.8,1.2,4.4,3.8,5.4,8.6.4,1.9-1.2,3.8-1.8,6-.5,1.8.5,2.8,0,4.1-.4,1-1.1,2.5-2.3,2.4-1-.1-1.6-1.2-2-2.2-.8-1.8-.1-3.9-.4-6-.3-2.6-2.1-5.5-2.2-8.1,0-1,.3-2.4.7-3.6.4-1.5.6-2.5,2.6-1.1Z"/>
    <path class="st10" d="M10.8,26.3c-.6-.8-3.6-4.9-2-2.1-.1,1.8,0,3.5.3,5.3-.6.1-1.2-2.8-1.5-3.9,0-.8-.2-1.9-.2-2.9-.2.9-.4,1.7-.4,2.4,0,2.6,1.9,5.5,2.2,8.1.3,2.1-.4,4.2.4,6,.3.7.7,1.5,1.3,1.9.4.2.7.5,1.3.3.5-.3,1.1-1,1.1-1,.2-.3.3-.6.5-.9.1.6.3,1.3.4,1.5.1.2.2,1.7.2,2.2,0,0,.1-.2.2-.5,0,0,0,0,0,0,.1-.3.2-.5.3-.4.3.5.6,1,.9,1.4.1.2,0,1.6,0,1.8,0,0,0,0,.1,0,.2-.3.6-.8.7-.7.1.2.5,1.5.6,1.6,0,0,0,0,0,0,0,0,.1-.8.2-.6,0,0,.4.9.7,1.4,0,0,0-.1,0-.1,0-.3-.2-.6-.1-.6.3.3.5.5.8.7.2.1.5.8.8,1.3,0-.1.1-.2.2-.3,0-.1,0-.2,0-.2.2.2.4.3.6.4.2.1.5.9.6,1.3,0-.2.1-.6.3-.8,0-.1,0-.2.1-.2.5.3.9.5,1.4.7,0,0,0,0,0,0,1.8.8,3.8,1.2,5.8,1.5,2.8.3,5.2.2,6.6.2,3,0,6.9-1.1,10.2-2.9.3-.2.6-.4.8-.6,2-1.5,4.6-3.3,4.5-6-.2-.8-.5-1.5-1-2.2-.6-.7-1.3-1.5-1.9-2v-.3c0-.4,0-.7.1-.9v-.6c0,0,1.5-.5,2-1.1,0-.1,0-.2,0-.3-.1-.5-1.4-3-1.1-3.1-1.1-1.9-2.4-3.2-2.4-3.2l-26.2-6.8-6.4,16.1v.3c-.2-.6-.3-1.3,0-2.2-1.3-5.2,0-3.9-3.1-8.6ZM26.5,24.4c1.1,0,3,.5,4,.7,2.3.4,3.7,2.2,4.8,3.9-.9-2.8,1.3.3,2,1.2,1.5,2.9.5-.9,0-2,2,1.5,4.5,2.1,6.8,2.9.5-.4-2.5-1.8-3.2-2.5-2.3-1.3,1.1-.3,2,0-.6-.7.7-.9,1.8-.8,1.5,0,3,1.3,3.7,2.4-1.3-.5.7,1.4,1.1,2.4,1.5,2.8-2.4-1.6-2.1.6-1.9-.2-4.2.8-5.4,2.3-.8,1.9,0,1,.6-.1,2.3-2.3-.7,1,.2,2.3-2.4-.2,1.3,1.1,2.2.4,1.3-1.3,1.7.4,3,.7,1.3.3,2,1.7,2.6,2.7-.1,2.2-2.2,3.7-3.8,5-2.5,1.6-5.2,3.2-8.2,3.5-.6,0-1.1,0-1.7.1-4.9.3-9.9-.5-14.1-3.1-2.7-1.7-6-3.6-6.3-7-.8-2.6,0-5.5,3.1-6,9.7,10,17.1,4.2,15.7,4.1.7-.8-1.2-2.3-.8-.8.4-2.2-.5-3.8-2.2-5-1.5-1.2-3.2-2.4-5.5-2.7-.9-.1-5.5-.6-2.9-1.7,2.2-1.4,4.8-.2,7.1-.2-2.6-1.3-5.6-1.9-8.5-2.2.5-1.5,3.9.1,3.5-1,.1-.2.4-.2.8-.2h0ZM10.4,27c.1,0,.3.3.4,1-1,.5-.8-1.1-.4-1ZM31.5,28.2c.8,1,2.1,2.4,3.2,3.4h.4c-.7-1-2.2-2.5-3.6-3.4ZM36.2,31.7c0,0,0,0,.1.4.9.5,0-.3-.1-.4ZM44.7,32.2c-.6,0-1.3.1-1.6.5.5,0,.9-.2,1.4-.2,1.9,0,1.2-.4.2-.3ZM42.2,32.9c-.2,0-.7.3-.9.9,1.2-.6,1.2-.9.9-.9ZM45.9,34.1c.4,0,1.9,1.4.8,2.2-.7,1.1-.2-1.4-.7-1.5-.2-.4-.2-.6-.1-.6ZM40.7,34.4c0,0-.2,0-.3.3.5,0,.5-.3.3-.3ZM45,34.6s.1,0,.2.1c-.3.3-.4-.2-.2-.1ZM45.4,34.9c.1,0,.2.6.5,1,0,.4-.7.1-.7-.1,0-.6.1-.9.2-.9ZM44.1,35s0,0,0,0c-.1.2-.2,0,0,0ZM44.2,35.2s0,0,.1,0c-.2.3-.2-.1-.1,0ZM43.8,35.5c0,0,.1.1,0,.4-.6,0-.3-.4,0-.4ZM45.4,36.4s0,0,.1.1c-.2.4-.3-.2-.1-.1ZM45.3,37s0,0,0,0c-.1.3-.1-.1,0,0ZM37.8,38.3c-.7,0-1.7.5-2.1.8,1,.4,2-1.2,2.9-.1,0-.5-.3-.7-.8-.7ZM40.9,38.5c-.3,0-.5.1-.6.5,0,.4.6-.4.8-.2,1.6.7.6-.3-.2-.3ZM39.5,39.3c.4,1.7,1.4,3.7.8,5.7,1.2-1.5.2-4.1-.8-5.7ZM41.2,39.3c-.1,0-.3,0-.4.5.9.2.7-.4.4-.5ZM37.6,39.5c-.3,0-.6.1,0,.4,1-.3.5-.4,0-.4Z"/>
    <path class="st11" d="M23.6,40c2.3.7,6.9,6.4,12.5,7,6,.6,12.9-4,12.9-4-3.2,4.6-18,11.1-28,0-1.5-1.7-.5-4.2,2.7-2.9Z"/>
    <path class="st11" d="M27.6,32.2c-2.1,0-4.1.9-4.9,2.4,4.8,7.4,12.5,4.6,12.5,4.6-.1-4.8-4.1-7-7.6-7ZM45.7,34.8c-1.7-.2-4.4,1.1-3.9,4.2,0,0,5.9,1.2,5.1-3.5-.2-.4-.7-.6-1.3-.7Z"/>
    <path class="st19" d="M29.1,7.3c.5.8.9,2.3-.8,1.9-1.7-.4-.3.6-1.7.8-1.4,1.3-2.6-2-2.9.2-.5,2.3-2.3,2.2-3.8.8.7.7,2,2.7.2,1.1.8,2.7-1.7.3-3.3-.1-3.4-1,.7.5,1.5,1.4,1.6,1,0,.9-.8,1.3,2.6.2,0,1-1.1,1.1,2.1,0,.7,1.1-.5,1.1.5.2.4,1.6-.8,1.5-.4.3-1.3,2.8-2.1,4.4,1.2,1.5,2.3,3.5,2.8,6.2.4,1.9-1.2,3.8-1.8,6-.3,1.1,0,1.9,0,2.6.6-.9,3.8-4.3,5.8-3.9-.3-1-1-2.9-1.1-3.9,0-.3,1.1.7,1.1.7,0,0-.8-1.4-.7-1.7,0-1.2.9-2.6,1.5-3.3.2-.2.3.9.5.8.1-.1,0-.9.1-1,1.2-.8,2.4-1,2.4-1,.4-.1,2.3.9,2.3.9,0,0-1.9-1.4.3-1.4,1.6,0,3.4.4,5,1.3,1.8.7,3.3,2.1,4.2,3.9-.9-2.9,1.5.4,2.2,1.6,1.6,2.6-.5-2.4,0-2.3,1.9,1.5,4.4,2,6.6,2.8.4-.4-2.8-2-3.5-2.7-2.5-1.7,3.9,1.1,2-.5,2.2-.9,4.7.3,5.9,2.1,0,0,1.1.8,1.2.9,1,1.6.8.6.2-.4,1.4.2,3.1,3.3,3.6,3-.5-1.8-2.5-3.8-3-4.9,2.8,1-.8-1-1.2-1.9.7-1,4.1,1.2,5.1,2.5.5-.1-1.6-3-2.6-3.6-2.6-1.2.1-.7,1.4-.8,3.1-.3-1.5-.3-1.4-.8,2.2-.2,4.1-1.4,6.2-2-2.8,0-5.6,1.4-8.4.6-2-.9,0-.7,1-.2-.4-.7-2.3-.9-.2-1,3.1-.4-2-.2-2-.7,2.4-1.9,5.7-2.9,8.7-2.3-2-1.1-4.6-1.2-6.9-1-1.9.4-1.4,0-2.9-.6,1.9-1,.1-.5-1-.7-.5-.8-3.9-2.7-1.5-2.6-1.1-.3-.8-.4.5-.8.4,0-5.8-.9-3.5-1.6-1.2-.3-1.4-.5,0-.9,0-.6-3,0-4-.3-.2-.3.3-.8-1-.7.6-1-1.8.6-1.5-1.2-.4,2.2-3.9-.5-3.2.6-.2,1.8-1.8-1.3-2.7-1.6ZM36.6,31.8c0,.1,0,.2,0,.3.2.1,0-.1,0-.3Z"/>
    <path class="st15" d="M23.6,39.1c2.3.7,6.9,6.4,12.5,7,6,.6,12.9-4,12.9-4-3.2,4.6-18,11.1-28,0-1.5-1.7-.5-4.2,2.7-2.9Z"/>
    <path class="st15" d="M22.6,33.7c2.4-4.1,12.3-3.2,12.5,4.6,0,0-7.7,2.9-12.5-4.6Z"/>
    <path class="st12" d="M29.1,7.3c.2.3.3.7.4,1.1.9.8,2.1,2.9,2.3,1.3-.6-1.1,2.9,1.5,3.2-.6-.3,1.8,2.1.1,1.5,1.2,1.4-.1.9.4,1,.7.7.3,2.2,0,3.2,0-.2-.2,0-.3.8-.5,0-.6-3,0-4-.3-.2-.3.3-.8-1-.7.6-1-1.8.6-1.5-1.2-.4,2.2-3.9-.5-3.2.6-.2,1.8-1.8-1.3-2.7-1.6ZM29.5,8.9c-.1.3-.5.5-1.2.3-1.7-.4-.3.6-1.7.8-1.4,1.3-2.6-2-2.9.2-.5,2.3-2.3,2.2-3.8.8.4.4,1,1.3,1.1,1.6,1.2.6,2.3.2,2.7-1.6.2-2.1,1.5,1.1,2.9-.2,1.4-.2,0-1.2,1.7-.8,1.3.3,1.4-.4,1.2-1.1ZM41.7,11.2c-1.3.4-1.1.5,0,.8-1.7.5,1.1,1.1,2.6,1.4-.5-.2-.1-.3.9-.6.4,0-5.8-.9-3.5-1.6,0,0,0,0,0,0ZM15.5,11.6c-.2,0,2.2,1.1,2.8,1.8.2.1.4.3.5.4,1,.5,1.7.8,1.4-.6-.4.6-2.1-.9-3.4-1.2-.9-.3-1.2-.4-1.3-.3ZM20.1,12.1c.1.4.1.7.1.9,1.4,1.3.6,0-.1-.9ZM18.5,14.3c-.3,0-.7.2-1,.3,1.2,0,1.3.3.9.5.6-.1.9-.3.1-.9ZM44.3,14.4c-1.4.1,1.5,1.9,1.9,2.6.5,0,1,0,1.4,0-.1,0-.3-.1-.4-.2,1.9-1,.1-.5-1-.7-.3-.4-1.3-1.2-1.9-1.7ZM17.6,15.5c-.4.1-.9.2-1.2.2,1.2,0,1.3.4.8.7,1.1-.2,2.3-.7.4-.9ZM16.8,16.5c-.3.1-.7.2-1,.2.2.1.3.5.3.8,1,0,2-.8.8-1ZM48,17.2c0,0-.3.2-.8.5,1.5.5,1,1,2.9.6,1.3,0,2.6,0,3.9.1,1-.1,2,0,2.9.1-2-1.1-4.6-1.2-6.9-1-1.5.3-1.5,0-2.1-.3ZM16,17.8c-.1.3-.4.6-1,.5-.4.3-1.3,2.8-2.1,4.4,0,0,.2.2.2.3.7-1.5,1.5-3.6,1.9-3.9,1,0,1.2-.9,1-1.3ZM49,21c-.3.2-.5.3-.7.5,0,.2.7.3,1.5.4-.5-.3-.8-.4.6-.4,2.3-.3,0-.3-1.3-.5ZM57.9,22.1c-2.7,0-5.5,1.3-8.2.6.3.1.6.3.7.6-.9-.5-3.1-.7-1,.2,1.7.5,3.5.2,5.2-.2,1.1-.4,2.1-.9,3.2-1.2ZM50.3,22.3s0,0,0,0c0,0-.1,0-.2,0,.1,0,.3.1.4.2,0,0-.1-.1-.2-.2ZM53.5,24.5c-.5.1-.9.2-1.4.3.4,0,.7,0,1,0,1.6-.1,1.2-.2.4-.3ZM25.4,24.7c0,0-.2,0-.2.1.3.2.7.3.7.3,0,0-.3-.2-.5-.5ZM50.9,25.6c-.5,0-.5.2.8.8.5.3,1.4,1.3,2,2.1.2.2.4.4.6.6.5-.1-1.5-2.9-2.6-3.5-.3,0-.6,0-.8,0ZM49.7,27.3c-.2,0-.4,0-.5.2.1.3.7.8,1.2,1.2,0,0,0,0,0-.1,2.3.8.4-.4-.7-1.3ZM35.2,28.6s0,0,0,0c0,0,0,.2.1.3,0-.1,0-.2,0-.3ZM40,28.7c-.2,0-.1.1.5.6.3.3,1.2.8,2,1.3.5.2,1.1.3,1.6.5.3-.3-1.6-1.4-2.8-2.1-.5-.1-1-.3-1.2-.3ZM19.2,29c0,.2,0,.3,0,.5,0,0,0,.2,0,.4.3.2.7.5.7.5,0,0-.5-.8-.7-1.4ZM37.4,29.1c-.2,0,.2,1.1.5,2,.5.6,0-.9-.3-1.9,0,0,0,0-.1,0ZM50.3,29.4c.4.9,1.8,2.4,2.6,3.9.2.2.3.3.4.2-.4-1.3-1.6-2.8-2.4-3.9-.2,0-.3,0-.6-.2ZM15.7,29.9c-.2,1.6-1.3,3.2-1.8,5-.1.5-.2,1-.1,1.4,0-.2,0-.4.1-.6.6-2.1,2.1-4,1.8-5.8ZM18.7,30.5s0,0,0,0c0,.7.5,2,.8,3,0,0,.2,0,.3,0-.3-.8-.7-2.1-.9-3.1,0,0,0,0-.1,0ZM49.9,31.4c.4.5.4.4.4.1-.1,0-.2-.1-.4-.1ZM36.6,31.8c0,.1,0,.2,0,.3.2.1,0-.1,0-.3Z"/>
    <path class="st13" d="M28.3,9.2c-1.7-.4-.3.6-1.7.8-1.4,1.3-2.6-2-2.9.2-.5,2.3-2.3,2.2-3.8.8.7.7,2,2.7.2,1.1.8,2.7-1.7.3-3.3-.1-3.4-1,.7.5,1.5,1.4,1.6,1,0,.9-.8,1.3,2.6.2,0,1-1.1,1.1,2.1,0,.7,1.1-.5,1.1.5.2.4,1.6-.8,1.5-.4.3-1.2,2.6-2,4.1.3.8.7,1.5.9,2,1.2,1.7,1.9,3.9,1.3,6-.5,3.9-1.7,3.9-.4,3.3,1.3-1.3,2.1-1.4,3.3-1.4,0-.4-.5-1.8-.4-2.6,0-.5.8-.7.8-.7,0,0-1.1-.9-.9-1.5.2-.5,1.1-2.2,1.7-3,.2-.3,1.1.1,1.1.1-.8-1.2.2-3.6.9-4,1-.2,2,2,2.9,2.5,0,0-.4-.6-.7-.9,5-.8,7.8.9,11.3,3.6-.4-1.1-1.4-2.1-2.2-3.1-.7-1,3.4.3,1.5-.7-.6-.2-2.1-.9-.6-.9,1.1-.4,2.7.2,3.5.2-1.1-1.2-2.3-2.3-3.6-3.2,1.1-.3,2.9-.6,3.5-1.2-1.3-.1-2.7,0-4-.4.4-.6,3.5-1.2,1.4-1.5-.7,0-1.5,0-.5-.6,1-1-2.2-.1-2.7-1.2.8-.5,2.2-.1,2.8-.3-.5-.8-2.2-.8-2.4-1.3.6-.4,1.6-1.1,1.5-1.7-.9.5-3,1.6-2.3,0,0,0-1.5-.7-2.5-.9Z"/>
    <path class="st15" d="M46.9,34.6c-.8-1.5-5.9-.6-5.1,3.5,0,0,5.9,1.2,5.1-3.5Z"/>
    <path class="st20" d="M36.2,39.2c1.2-.7,2.3-1,2.6-.1h0"/>
    <path class="st20" d="M40.4,39.2c.5-.4.9-.9,1.7,0"/>
    <ellipse class="st17" cx="37.7" cy="39.6" rx=".5" ry=".4"/>
    <ellipse class="st17" cx="41.3" cy="39.7" rx=".4" ry=".2"/>
    <path class="st20" d="M39.6,39.4c1.2,1.7,1.5,3.6,1.1,5.5"/>
    <path class="st16" d="M30.3,31.7c-2.1.3-3.6,2-3.6,4,0,.8.2,1.6.7,2.2,2.6,1.1,5.1.9,6.5.7.5-.5.9-1.1,1.1-1.8-.6-2.7-2.5-4.4-4.7-5.1Z"/>
    <path class="st16" d="M45.2,33.9c-.4,0-.8,0-1.2.2-.5.3-.9.8-1.1,1.4-.4,1.1-.2,2.2.4,2.7.6,0,1.2,0,1.8-.3.4-.3.7-.8.9-1.3.5-1.2.2-2.5-.7-2.8,0,0,0,0,0,0,0,0,0,0,0,0,0,0,0,0-.1,0h0Z"/>
    <path class="st20" d="M20.6,39.4c6.3,6.9,13.4,9.2,21.3,7"/>
    <path class="st20" d="M22.4,41.9l.8-.7"/>
    <path class="st20" d="M24.7,43.9l.8-1.1"/>
    <path class="st20" d="M26.9,45.5l.6-1.3"/>
    <path class="st20" d="M30.3,47l.8-1"/>
    <path class="st20" d="M33,47.6l.7-.9"/>
    <path class="st20" d="M35.3,47.8l.2-.9"/>
    <path class="st20" d="M8.4,23.1c3.6,4.3,5.8,8.2,4.9,11.2"/>
    <path class="st20" d="M9.4,29c-.4-1.6-.6-3.3-.3-4.6h0"/>
    <path class="st20" d="M11.3,32.2c-.5-1.5-.7-3,.4-4.5"/>
    <path class="st20" d="M12.3,32.7c-.7-1.1-.1-2.1.3-3.1"/>
    <path class="st20" d="M11.1,33.6c0,1-.2,2.1.7,3"/>
    <path class="st20" d="M11.9,34.1c-.2,1-.3,1.9.4,2.1"/>
    <path class="st20" d="M13,35.4c-.1.4-.4.8-1.9,1.6"/>
    <ellipse class="st24" cx="31.6" cy="35.9" rx="1.8" ry="1.8"/>
    <ellipse class="st24" cx="44.5" cy="36.2" rx="1" ry="1"/>
  </g>
</svg>