<?xml version="1.0" encoding="UTF-8"?>
<svg id="_图层_1" xmlns="http://www.w3.org/2000/svg" version="1.1" viewBox="0 0 64 64" width="16" height="16">
  <!-- Generator: Adobe Illustrator 29.0.1, SVG Export Plug-In . SVG Version: 2.1.0 Build 192)  -->
  <defs>
    <style>
      .st0 {
        fill: #2095f2;
      }

      .st1, .st2, .st3, .st4, .st5 {
        isolation: isolate;
      }

      .st1, .st2, .st6, .st7 {
        display: none;
      }

      .st1, .st4, .st5 {
        opacity: .2;
      }

      .st2 {
        opacity: .1;
      }

      .st2, .st8, .st3, .st5 {
        fill: #fff;
      }

      .st9, .st6 {
        fill: #37a0f2;
      }

      .st10 {
        fill: #a45390;
      }

      .st3 {
        opacity: .5;
      }

      .st11 {
        fill: #6db832;
      }

      .st12 {
        fill: #c2352a;
      }

      .st13 {
        fill: #4987d7;
      }
    </style>
  </defs>
  <path class="st9" d="M50.3,64H13.8c-7.6,0-13.8-6.2-13.8-13.7V13.7C0,6.2,6.2,0,13.7,0h36.5c7.5,0,13.7,6.2,13.7,13.7v36.6c0,7.5-6.2,13.7-13.7,13.7h0Z"/>
  <g class="st7">
    <path class="st1" d="M0,59.5v2.3c0,1.9,1.5,3.4,3.4,3.4h57.4c1.9,0,3.4-1.5,3.4-3.4v-2.3c0,1.9-1.5,3.4-3.4,3.4H3.4c-1.9,0-3.4-1.5-3.4-3.4Z"/>
    <path class="st13" d="M3.2-.1C2.3-.1,1.5.3.9.8l31.2,31.2L63.3.8c-.6-.6-1.4-.9-2.3-.9,0,0-57.8,0-57.8,0Z"/>
    <path class="st10" d="M3.2,64.1c-.9,0-1.7-.4-2.3-.9l31.2-31.2,31.2,31.2c-.6.6-1.4.9-2.3.9H3.2Z"/>
    <path class="st11" d="M64.2,3.1c0-.9-.4-1.7-.9-2.3l-31.2,31.2,31.2,31.2c.6-.6.9-1.4.9-2.3V3.1h0Z"/>
    <path class="st12" d="M0,3.1c0-.9.4-1.7.9-2.3l31.2,31.2L.9,63.2c-.6-.6-.9-1.4-.9-2.3V3.1h0Z"/>
    <path class="st4" d="M35,5.6c-1.4,0-2.5.2-3.6.5-1,.3-1.9.8-2.6,1.3-.7.6-1.3,1.2-1.8,2s-.8,1.3-1.1,2.1c-.3.9-.5,1.8-.6,2.8s-.2,1.9-.2,2.9h0c0,1.5.2,2.9.5,4,.4,1.1.9,2,1.5,2.8.7.7,1.4,1.3,2.3,1.7.9.4,1.8.5,2.8.5s2-.2,2.8-.5,1.5-.8,2.1-1.4,1-1.4,1.3-2.2c.3-.9.5-1.9.5-3s0-2-.4-2.8c-.3-.8-.6-1.6-1.1-2.1-.5-.6-1.1-1-1.8-1.3s-1.5-.4-2.4-.4-1.1,0-1.5.2c-.4.1-.8.3-1.2.5-.4.2-.7.6-.9.9-.3.3-.5.6-.7.9h-.2c0-1,.2-1.8.4-2.6.2-.8.5-1.1,1-1.7.5-.6,1.1-1,1.9-1.3.8-.3,1.8-.5,3.1-.5s.8,0,1.2,0,.8.1,1.1.2v-3.5h-2.6s.2,0,.2,0ZM32.4,16c.8,0,1.5.3,1.9.9s.6,1.4.6,2.4,0,1.1-.2,1.6c0,.4-.3.8-.5,1.1-.2.3-.5.5-.8.7-.3.1-.7.2-1,.2s-.9-.1-1.2-.4c-.3-.2-.6-.5-.9-.9-.2-.4-.4-.8-.5-1.3s-.2-1-.2-1.4,0-.7.2-1c.1-.3.3-.6.6-.9.3-.3.6-.5.9-.7.4-.2.7-.3,1.2-.3h0ZM47,24v10.3l1,.9c.2,0,.4,0,.6-.2.2,0,.5,0,.8-.2h1.6c1.3,0,2.3.3,3,.8.6.5,1,1.3,1,2.3s-.3,2-1,2.5-1.6.8-2.9.8-.9,0-1.3,0-.9-.2-1.4-.3-.9-.3-1.3-.4c-.4-.2-.8-.3-1.1-.5v3.7c.3.2.7.3,1.1.5.4,0,.9.3,1.3.3s1,.2,1.5.2h1.5c1.3,0,2.4-.2,3.4-.5s1.8-.8,2.5-1.4c.7-.6,1.2-1.4,1.5-2.2.3-.9.5-1.9.5-3s-.2-1.9-.5-2.7-.8-1.4-1.3-2c-.6-.5-1.2-.9-2-1.2-.8-.3-1.6-.4-2.5-.4h0c-.6,0-1.1,0-1.5.1-.4,0-.7.1-1,.2l.3-4.1h6.5v-3.4h-10.3,0ZM11.5,24.1c-.8,0-1.6,0-2.2.3-.7.2-1.3.4-1.8.6-.6.3-1.1.6-1.5.9-.5.3-.9.5-1.3.9l2.4,2.8c.7-.7,1.5-1.2,2.1-1.6.7-.4,1.4-.5,2.1-.5s1.3.2,1.7.6.6.9.6,1.6,0,1.2-.3,1.7c-.2.5-.5,1.1-.8,1.6-.4.5-.8,1.1-1.3,1.6-.5.6-1,1.2-1.7,1.8l-4.8,5.4v2.8h13.7v-3.4h-8.3v-.2l2.5-2.7c.7-.7,1.4-1.4,2-2.1.6-.7,1.2-1.4,1.7-2.1.5-.7.9-1.4,1.1-2.2.3-.7.4-1.5.4-2.3s-.1-1.7-.4-2.4c-.3-.7-.7-1.1-1.3-1.6-.6-.5-1.2-.9-2-1.2-.8-.3-1.7-.4-2.6-.4h0ZM25.2,42.5v3.2h9.4l-7.3,17.2h4.5l7.1-17.7v-2.7h-13.8.1Z"/>
    <path class="st8" d="M35,4.5c-1.4,0-2.5.2-3.6.5-1,.3-1.9.8-2.6,1.3-.7.6-1.3,1.2-1.8,2s-.8,1.3-1.1,2.1c-.3.9-.5,1.8-.6,2.8s-.2,1.9-.2,2.9h0c0,1.5.2,2.9.5,4,.4,1.1.9,2,1.5,2.8.7.7,1.4,1.3,2.3,1.7.9.4,1.8.5,2.8.5s2-.2,2.8-.5,1.5-.8,2.1-1.4,1-1.4,1.3-2.2c.3-.9.5-1.9.5-3s0-2-.4-2.8c-.3-.8-.6-1.6-1.1-2.1-.5-.6-1.1-1-1.8-1.3s-1.5-.4-2.4-.4-1.1,0-1.5.2c-.4.1-.8.3-1.2.5-.4.2-.7.6-.9.9-.3.3-.5.6-.7.9h-.2c0-1,.2-1.8.4-2.6.2-.8.5-1.1,1-1.7.5-.6,1.1-1,1.9-1.3.8-.3,1.8-.5,3.1-.5s.8,0,1.2,0,.8,0,1.1.2v-3.5h-2.6s.2,0,.2,0ZM32.4,14.9c.8,0,1.5.3,1.9.9.4.6.6,1.4.6,2.4s0,1.1-.2,1.6c0,.4-.3.8-.5,1.1-.2.3-.5.5-.8.7-.3.1-.7.2-1,.2s-.9-.1-1.2-.4c-.3-.2-.6-.5-.9-.9-.2-.4-.4-.8-.5-1.3s-.2-1-.2-1.4,0-.7.2-1c.1-.3.3-.6.6-.9.3-.3.6-.5.9-.7.4-.2.7-.3,1.2-.3h0ZM47,22.8v10.3l1,.9c.2,0,.4,0,.6-.2.2,0,.5,0,.8-.2h1.6c1.3,0,2.3.3,3,.8.6.5,1,1.3,1,2.3s-.3,2-1,2.5-1.6.8-2.9.8-.9,0-1.3,0-.9-.2-1.4-.3-.9-.3-1.3-.4c-.4-.2-.8-.3-1.1-.5v3.7c.3.2.7.3,1.1.5.4,0,.9.3,1.3.3s1,.2,1.5.2h1.5c1.3,0,2.4-.2,3.4-.5s1.8-.8,2.5-1.4c.7-.6,1.2-1.4,1.5-2.2.3-.9.5-1.9.5-3s-.2-1.9-.5-2.7-.8-1.4-1.3-2c-.6-.5-1.2-.9-2-1.2-.8-.3-1.6-.4-2.5-.4h0c-.6,0-1.1,0-1.5.1-.4,0-.7.1-1,.2l.3-4.1h6.5v-3.4h-10.3,0ZM11.5,22.9c-.8,0-1.6,0-2.2.3-.7.2-1.3.4-1.8.6-.6.3-1.1.6-1.5.9-.5.3-.9.5-1.3.9l2.4,2.8c.7-.7,1.5-1.2,2.1-1.6.7-.4,1.4-.5,2.1-.5s1.3.2,1.7.6.6.9.6,1.6,0,1.2-.3,1.7c-.2.5-.5,1.1-.8,1.6-.4.5-.8,1.1-1.3,1.6-.5.6-1,1.2-1.7,1.8l-4.8,5.4v2.8h13.7v-3.4h-8.3v-.2l2.5-2.7c.7-.7,1.4-1.4,2-2.1.6-.7,1.2-1.4,1.7-2.1.5-.7.9-1.4,1.1-2.2.3-.7.4-1.5.4-2.3s-.1-1.7-.4-2.4c-.3-.7-.7-1.1-1.3-1.6-.6-.5-1.2-.9-2-1.2-.8-.3-1.7-.4-2.6-.4h0ZM25.2,41.4v3.2h9.4l-7.3,17.2h4.5l7.1-17.7v-2.7h-13.8.1Z"/>
    <path class="st2" d="M3.4-.1C1.5-.1,0,1.4,0,3.3v1.1C0,2.6,1.5,1,3.4,1h57.4c1.9,0,3.4,1.5,3.4,3.4v-1.1c0-1.9-1.5-3.4-3.4-3.4,0,0-57.4,0-57.4,0Z"/>
  </g>
  <g class="st7">
    <path class="st4" d="M6.5,31.6c0,.3,0,.6,0,.9,0,13.9,11.4,25.2,25.5,25.2s25.5-11.2,25.5-25.2,0-.6,0-.9c-.5,13.5-11.6,24.3-25.5,24.3S7,45.1,6.5,31.6h0Z"/>
    <path class="st0" d="M32,6.4h0c14.1,0,25.5,11.3,25.5,25.2h0c0,13.9-11.4,25.2-25.5,25.2h0c-14.1,0-25.5-11.3-25.5-25.2h0c0-13.9,11.4-25.2,25.5-25.2Z"/>
    <path class="st3" d="M31.9,6.4c-3.2,0-6.3.6-9.1,1.7-.2.2-.5.3-.7.3,0,0,0,0,0,0-1.4.6-2.7,1.3-4,2.1.2.3.2.6-.1.7,0,0-.8,0-1,0-3.6,2.6-6.4,6-8.3,10,0,0,0,0,0,0,.3,0,.7,0,.9.1.2,0,.4.2.7.2.6,0,.7-.4,1.2-.7.5,0,.8,0,1.3,0,.3,0,.5.4.8.4.2,0,.4-.2.6-.2.2,0,.5.4.6.7,0,.3-.2.6-.1.9.3.3.9.4,1.3.6.3-.2,0-.7,0-1,0-.1,0-.3,0-.4,0-.2-.1-.4-.1-.6,0-.9.8-1.3,1.4-1.7.3-.2.5-.4.7-.6.3-.2.6-.2.9-.4.5-.3.9-.5,1.3-.8.2-.4,0-1,0-1.4.2-.1.3,0,.5,0,.3,0,.3-.5.5-.6,0,0,.4-.2.5-.3.3-.2.4-.6.7-.7,0,0,.3,0,.5,0,.2,0,.5-.3.8-.4.2,0,.7,0,.8-.2,0,0,0-.4,0-.5.2-.7,1.3-.9,1.9-1.1.5-.2.9-.5,1.4-.4,0,.3-.6.2-.5.6.1.6.9-.2,1.1-.3.4-.2,1.1-.3,1.6-.5.5-.2,1.3-.4.8-.9-.4,0-.5.4-.8.6-.2,0-.2-.2-.4-.2-.2,0-.3.2-.5.1-.2,0-.4-.3-.5-.5,0-.5.5-.8.7-1.2-.1-.5-.8,0-1.2-.3,0-.3.3-.5.7-.5.3,0,.9,0,1.1.1,0,0,0,.3.2.4.2.1.4.1.6,0,0-.4-.5-.3-.4-.5.4-.3,1.2,0,1.7-.1.3,0,.6-.3.9-.4.3-.1.6-.4.9-.2,0,.3-.2.4-.4.5-.5.4-1,.9-1.4,1.5.2.2.7.1,1.1.2.2,0,.4,0,.5,0,.2,0,.4,0,.6,0,.3,0,.3.4.6.4.4,0,.5-.5.2-.8,0-.3.2-.5,0-.7-.2-.4-.9,0-1-.5,0-.3.3-.3.4-.5,0-.6.5-.7.5-1.2,0-.2-.2-.2-.4-.5,0-.1-.1-.3-.2-.4-.8,0-1.5-.1-2.3-.1h0ZM18.8,11.5h0c.2,0,.3.2.5.2.2,0,.3,0,.4,0,.3,0,.4.5.1.7-.2,0-.3,0-.5,0-.4,0-.6.9-.9.9-.3,0-.5-.8-.2-1,0-.2-.1-.2-.1-.4,0-.1.4-.2.6-.2h0ZM17.3,11.6c0,0,.2,0,.2,0,0,.3-.3.3-.6.5-.5.3-.7.7-.9,1.3,0,.2-.5.6-.7.6-.5-.1.1-1.1.3-1.2.1-.2.3-.3.5-.5.1-.2.2-.4.4-.5.2-.1.6-.2.9-.2h0ZM21.2,12.7c.2,0,.3,0,.4,0-.1.4-1,.3-1.4.2,0-.2.3-.2.5-.2.2,0,.3,0,.5,0h0ZM19.1,13.5c.1,0,.2,0,.3,0-.3.2-.6.4-1.1.6-.2,0-.7.2-.7-.1,0-.3.4-.3.6-.3.3,0,.6-.2.9-.2h0ZM51.5,15.4c0,0,0,.2,0,.3,0,.2.2.3.2.5,0,.1,0,.4,0,.5.2.3.6,0,.9.1-.3-.5-.7-.9-1-1.3h0ZM53.2,17.6c0,.2-.2.5-.3.7-.3.4-.7.4-1.1.7-.3.2-.5.5-.7.8-.2.4-.4.6-.3,1.1-.3.6-.7.9-1.3,1.2-.2,0-.4.1-.6.2-.1,0-.2.3-.4.5-.2.3-.5.4-.6.6,0,.1-.1.4-.2.6-.1.3-.4.4-.6.7,0,.1-.1.4-.2.6-.2.4-.6.6-.5,1,0,.3.4.4.4.6,0,.2-.1.3,0,.4,0,.2.2.4.2.6,0,.5-.2.7-.3,1,0,.2,0,.3,0,.5,0,.2-.4.5-.4.7,0,.2.2.4.2.6,0,.2,0,.4,0,.6,0,.4.7.8,1,1,.4.4.9.6,1,1,.1.3.1.8.4,1,.2.2.5.3.8.5.2.2.5.3.7.5.4.3,1,.9,1.6.9.3,0,.7-.3,1-.4.4,0,.9-.1,1.3,0,.3,0,.6.2.9.2.3,0,.7-.3,1.1-.4.3-.1.7-.3,1.1-.4.2-1.2.3-2.5.3-3.8,0-5.2-1.6-9.9-4.2-13.9h0ZM11,26.1c-.5,0-.9,0-1.2.2-.7.3-.6,1.3-1.3,1.5-.2,0-.6,0-.8.1-.2,0-.5.2-.8.2,0,0-.2,0-.2,0,0,.4-.1.9-.2,1.3.7.1,1,1,1.6,1.3.2,0,.4,0,.6.1.2,0,.3.1.5.2.3.1.8.1,1,.2.4.2.7,1,1.1,1.2,0,.2,0,.5,0,.6.2.2.4.2.7.3.3.2.4.6.8.8.1,0,.4,0,.6,0,.4.1.6.6.9.5.2,0,.2-.3.3-.5.2-.2.3-.4.6-.4.4,0,.4.4.6.8,0,.2.3.4.4.6.1.4,0,1.6,0,1.8-.1.3-.5.4-.8.7-.1.2-.2.4-.3.5-.2.2-.4.2-.5.4,0,0-.1.3-.2.4-.2.4-.5.7-.3,1.2,0,.2.4.3.4.6,0,.3-.6.5-.7.8,0,.2.2.6.3.9,0,.2.5.4.6.5.2.3.4.6.6.9.4.6.7,1.4,1.1,2,.2.3.5.6.7.9,0,.2,0,.4.1.5.2.5,1.3,1.1,1.8,1.3.2.1.5.2.8.3.3.2,1,.7,1.2,1,.2.3.3.9.3,1.4.1.6,0,1,0,1.6,0,.3.1.7.1,1,0,.1,0,.2,0,.3,0,0,0,0,0,0,3.2,1.4,6.8,2.3,10.5,2.3s1.4,0,2,0c0,0,0-.1,0-.1.2-.2.3-.4.4-.5,0-.6-.2-1,0-1.5.2-.6,1-.9,1.5-1.2.2,0,.4-.2.6-.3.4-.1.9,0,1.2-.2.6-.2.7-.9,1-1.4.1-.3.3-.5.4-.7,0-.2,0-.3,0-.5,0-.2.2-.4.3-.6,0-.3.1-.7.1-1s-.1-.5-.1-.7c0-.8.3-.9.6-1.4.2-.2.2-.5.3-.6.5-.8,1.4-1.2,1.4-2.3,0-.4-.3-1.3-.6-1.4-.2,0-.5,0-.8,0-.8-.3-1.2-1.2-2-1.3-.2,0-.3,0-.5,0-.3,0-.8-.2-1.1-.3-.2,0-.5,0-.7,0-.2,0-.2-.5-.4-.6-.1,0-.4-.1-.6-.2-.3-.1-.6-.3-.9-.3-.1,0-.3,0-.4,0-.2,0-.4-.3-.6-.4-.2-.1-.5-.2-.6-.4.2-.7-.4-.9-.5-1.3,0-.2,0-.4,0-.6,0-.2-.3-.4-.6-.6-.5-.4-.9-.7-1.6-.8-.3,0-.6,0-1,0-.4,0-.9-.4-1.1-.7-.3-.3-.4-.6-.7-.7-.2-.1-.5-.1-.7-.3,0,0,0-.2-.1-.3-.1-.2-.3-.4-.2-.6-.3-.1-.3.2-.6.2-.3-.4-.5-.5-1-.4-.3,0-.4.4-.7.4-.3,0-.5-.3-.8-.3-.3,0-.5,0-.7,0-.3,0-.4-.3-.6-.4-.2-.1-.6-.3-.7-.3-.3,0-.6.7-1,.5-.2-.3.4-.4,0-.7-.2-.2-.4,0-.5.2-.2.1-.4.2-.6.3-.4.2-.7,0-1.1.3-.3.2-.3.4-.5.8-.2.3-.5.7-.7.7-.3,0-.5-.4-.8-.5-.7-.3-1.1.3-1.7.3-.6,0-1.4-.9-1.4-1.5,0-.3.2-.8.2-1.2,0-.3.3-.5.3-.8,0-.4-.5-.7-.8-.7-.6-.1-1.5.2-2.2,0-.1-.2.2-.4.2-.6,0-.1,0-.3,0-.4,0-.2.3-.4.4-.6,0-.2,0-.4.2-.6,0-.2.2-.4.3-.6,0-.2,0-.5-.2-.6h0ZM19.8,32.9c.2,0,.2.5,0,.5-.2,0-.4-.4-.1-.5,0,0,0,0,.1,0h0s0,0,0,0Z"/>
    <path class="st5" d="M32,6.4c-14.1,0-25.5,11.2-25.5,25.2s0,.2,0,.3c.3-13.7,11.6-24.6,25.5-24.6s25.2,10.9,25.5,24.6c0-.1,0-.2,0-.3,0-13.9-11.4-25.2-25.5-25.2Z"/>
  </g>
  <g>
    <path class="st1" d="M0,32c0,.4,0,.8,0,1.1,0,17.7,14.2,32,31.9,32s31.9-14.3,31.9-32,0-.8,0-1.1c-.6,17.2-14.6,30.8-31.9,30.8S.7,49.1,0,32h0Z"/>
    <path class="st6" d="M31.9,0h0c17.6,0,31.9,14.3,31.9,32h0c0,17.7-14.3,32-31.9,32h0C14.3,63.9,0,49.6,0,32H0C0,14.3,14.3,0,31.9,0Z"/>
    <path class="st2" d="M32,0C14.3,0,0,14.3,0,32s0,.3,0,.4C.4,15,14.5,1.1,32,1.1s31.5,13.9,31.9,31.2c0-.1,0-.3,0-.4C63.9,14.3,49.6,0,32,0Z"/>
    <path class="st4" d="M28.9,14.8c-.8,0-1.5.5-1.5,1.2v18.2h-6.8l11.4,14,11.4-14h-6.8v-18.2c0-.6-.7-1.2-1.5-1.2h-6.1,0ZM31.9,48.2h-12.3c-.8,0-1.4.7-1.4,1.6s.6,1.6,1.4,1.6h24.6c.8,0,1.4-.7,1.4-1.6s-.6-1.6-1.4-1.6h-12.3Z"/>
    <path class="st8" d="M28.9,13.7c-.8,0-1.5.5-1.5,1.2v18.2h-6.8l11.4,14,11.4-14h-6.8V14.9c0-.6-.7-1.2-1.5-1.2h-6.1,0ZM31.9,47.1h-12.3c-.8,0-1.4.7-1.4,1.6s.6,1.6,1.4,1.6h24.6c.8,0,1.4-.7,1.4-1.6s-.6-1.6-1.4-1.6h-12.3Z"/>
  </g>
</svg>