<?xml version="1.0" encoding="UTF-8"?>
<svg id="_图层_1" xmlns="http://www.w3.org/2000/svg" version="1.1" viewBox="0 0 64 64" width="16" height="16">
  <!-- Generator: Adobe Illustrator 29.0.1, SVG Export Plug-In . SVG Version: 2.1.0 Build 192)  -->
  <defs>
    <style>
      .st0 {
        fill: #42cd4f;
      }

      .st1 {
        fill: #4f4f4f;
      }

      .st2, .st3, .st4, .st5, .st6, .st7, .st8 {
        isolation: isolate;
      }

      .st2, .st3, .st9, .st10, .st8 {
        display: none;
      }

      .st2, .st4, .st6, .st7, .st8 {
        opacity: .2;
      }

      .st3, .st11, .st7, .st8 {
        fill: #fff;
      }

      .st3, .st5 {
        opacity: .1;
      }

      .st4, .st12 {
        fill-rule: evenodd;
      }

      .st13 {
        fill: #3f3f3f;
      }

      .st14 {
        fill: #a45390;
      }

      .st12 {
        fill: #fffee4;
      }

      .st15, .st9 {
        fill: #ff766a;
      }

      .st16 {
        fill: #d22f7a;
      }

      .st17 {
        fill: #6db832;
      }

      .st18 {
        fill: #c2352a;
      }

      .st19 {
        fill: #4987d7;
      }

      .st20 {
        fill: #e4e4e4;
      }

      .st21 {
        fill: #ffb73c;
      }
    </style>
  </defs>
  <path class="st15" d="M50.3,64H13.8c-7.6,0-13.8-6.2-13.8-13.7V13.7C0,6.2,6.2,0,13.7,0h36.5c7.5,0,13.7,6.2,13.7,13.7v36.6c0,7.5-6.2,13.7-13.7,13.7h0Z"/>
  <g class="st10">
    <path class="st2" d="M0,59.5v2.3c0,1.9,1.5,3.4,3.4,3.4h57.4c1.9,0,3.4-1.5,3.4-3.4v-2.3c0,1.9-1.5,3.4-3.4,3.4H3.4C1.5,63,0,61.4,0,59.5Z"/>
    <path class="st19" d="M3.2-.1C2.3-.1,1.5.3.9.8l31.2,31.2L63.3.8c-.6-.6-1.4-.9-2.3-.9H3.2h0Z"/>
    <path class="st14" d="M3.2,64.1c-.9,0-1.7-.4-2.3-.9l31.2-31.2,31.2,31.2c-.6.6-1.4.9-2.3.9H3.2h0Z"/>
    <path class="st17" d="M64.2,3.1c0-.9-.4-1.7-.9-2.3l-31.2,31.2,31.2,31.2c.6-.6.9-1.4.9-2.3V3.1h0Z"/>
    <path class="st18" d="M0,3.1C0,2.2.4,1.4.9.8l31.2,31.2L.9,63.2c-.6-.6-.9-1.4-.9-2.3V3.1h0Z"/>
    <path class="st6" d="M35,5.6c-1.4,0-2.5.2-3.6.5-1,.3-1.9.8-2.6,1.3-.7.6-1.3,1.2-1.8,2-.5.8-.8,1.3-1.1,2.1-.3.9-.5,1.8-.6,2.8-.1,1-.2,1.9-.2,2.9h0c0,1.5.2,2.9.5,4,.4,1.1.9,2,1.5,2.8.7.7,1.4,1.3,2.3,1.7.9.4,1.8.5,2.8.5s2-.2,2.8-.5c.8-.3,1.5-.8,2.1-1.4.6-.6,1-1.4,1.3-2.2.3-.9.5-1.9.5-3s-.1-2-.4-2.8c-.3-.8-.6-1.6-1.1-2.1-.5-.6-1.1-1-1.8-1.3-.7-.3-1.5-.4-2.4-.4s-1.1,0-1.5.2c-.4.1-.8.3-1.2.5-.4.2-.7.6-.9.9-.3.3-.5.6-.7.9h-.2c0-1,.2-1.8.4-2.6.2-.8.5-1.1,1-1.7.5-.6,1.1-1,1.9-1.3.8-.3,1.8-.5,3.1-.5s.8,0,1.2,0c.4,0,.8.1,1.1.2v-3.5c-.2,0-.4,0-.6,0-.2,0-.5,0-.7,0-.2,0-.5,0-.7,0s-.4,0-.6,0ZM32.4,16c.8,0,1.5.3,1.9.9.4.6.6,1.4.6,2.4s0,1.1-.2,1.6c-.1.4-.3.8-.5,1.1-.2.3-.5.5-.8.7-.3.1-.7.2-1,.2s-.9-.1-1.2-.4c-.3-.2-.6-.5-.9-.9-.2-.4-.4-.8-.5-1.3-.1-.5-.2-1-.2-1.4s0-.7.2-1c.1-.3.3-.6.6-.9.3-.3.6-.5.9-.7.4-.2.7-.3,1.2-.3ZM47,24v10.3l1,.9c.2,0,.4-.1.6-.2.2,0,.5-.1.8-.2.3,0,.5,0,.8-.1.3,0,.5,0,.8,0,1.3,0,2.3.3,3,.8.6.5,1,1.3,1,2.3s-.3,2-1,2.5c-.7.5-1.6.8-2.9.8s-.9,0-1.3,0c-.5,0-.9-.2-1.4-.3-.5-.1-.9-.3-1.3-.4-.4-.2-.8-.3-1.1-.5v3.7c.3.2.7.3,1.1.5.4.1.9.3,1.3.3.5,0,1,.2,1.5.2.5,0,1,0,1.5,0,1.3,0,2.4-.2,3.4-.5,1-.3,1.8-.8,2.5-1.4.7-.6,1.2-1.4,1.5-2.2.3-.9.5-1.9.5-3s-.2-1.9-.5-2.7c-.3-.8-.8-1.4-1.3-2-.6-.5-1.2-.9-2-1.2-.8-.3-1.6-.4-2.5-.4h0c-.6,0-1.1,0-1.5.1-.4,0-.7.1-1,.2l.3-4.1h6.5v-3.4h-10.3ZM11.5,24.1c-.8,0-1.6,0-2.2.3-.7.2-1.3.4-1.8.6-.6.3-1.1.6-1.5.9-.5.3-.9.5-1.3.9l2.4,2.8c.7-.7,1.5-1.2,2.1-1.6.7-.4,1.4-.5,2.1-.5s1.3.2,1.7.6c.4.4.6.9.6,1.6s0,1.2-.3,1.7c-.2.5-.5,1.1-.8,1.6-.4.5-.8,1.1-1.3,1.6-.5.6-1,1.2-1.7,1.8l-4.8,5.4v2.8h13.7v-3.4h-8.3v-.2l2.5-2.7c.7-.7,1.4-1.4,2-2.1.6-.7,1.2-1.4,1.7-2.1.5-.7.9-1.4,1.1-2.2.3-.7.4-1.5.4-2.3s-.1-1.7-.4-2.4c-.3-.7-.7-1.1-1.3-1.6-.6-.5-1.2-.9-2-1.2-.8-.3-1.7-.4-2.6-.4ZM25.2,42.5v3.2h9.4l-7.3,17.2h4.5l7.1-17.7v-2.7h-13.8Z"/>
    <path class="st11" d="M35,4.5c-1.4,0-2.5.2-3.6.5-1,.3-1.9.8-2.6,1.3-.7.6-1.3,1.2-1.8,2-.5.8-.8,1.3-1.1,2.1-.3.9-.5,1.8-.6,2.8-.1,1-.2,1.9-.2,2.9h0c0,1.5.2,2.9.5,4,.4,1.1.9,2,1.5,2.8.7.7,1.4,1.3,2.3,1.7.9.4,1.8.5,2.8.5s2-.2,2.8-.5c.8-.3,1.5-.8,2.1-1.4.6-.6,1-1.4,1.3-2.2.3-.9.5-1.9.5-3s-.1-2-.4-2.8c-.3-.8-.6-1.6-1.1-2.1-.5-.6-1.1-1-1.8-1.3-.7-.3-1.5-.4-2.4-.4s-1.1,0-1.5.2c-.4.1-.8.3-1.2.5-.4.2-.7.6-.9.9-.3.3-.5.6-.7.9h-.2c0-1,.2-1.8.4-2.6.2-.8.5-1.1,1-1.7.5-.6,1.1-1,1.9-1.3.8-.3,1.8-.5,3.1-.5s.8,0,1.2,0c.4,0,.8.1,1.1.2v-3.5c-.2,0-.4,0-.6,0-.2,0-.5,0-.7,0-.2,0-.5,0-.7,0s-.4,0-.6,0ZM32.4,14.9c.8,0,1.5.3,1.9.9.4.6.6,1.4.6,2.4s0,1.1-.2,1.6c-.1.4-.3.8-.5,1.1-.2.3-.5.5-.8.7-.3.1-.7.2-1,.2s-.9-.1-1.2-.4c-.3-.2-.6-.5-.9-.9-.2-.4-.4-.8-.5-1.3-.1-.5-.2-1-.2-1.4s0-.7.2-1c.1-.3.3-.6.6-.9.3-.3.6-.5.9-.7.4-.2.7-.3,1.2-.3ZM47,22.8v10.3l1,.9c.2,0,.4-.1.6-.2.2,0,.5-.1.8-.2.3,0,.5,0,.8-.1.3,0,.5,0,.8,0,1.3,0,2.3.3,3,.8.6.5,1,1.3,1,2.3s-.3,2-1,2.5c-.7.5-1.6.8-2.9.8s-.9,0-1.3,0c-.5,0-.9-.2-1.4-.3-.5-.1-.9-.3-1.3-.4-.4-.2-.8-.3-1.1-.5v3.7c.3.2.7.3,1.1.5.4.1.9.3,1.3.3.5,0,1,.2,1.5.2.5,0,1,0,1.5,0,1.3,0,2.4-.2,3.4-.5,1-.3,1.8-.8,2.5-1.4.7-.6,1.2-1.4,1.5-2.2.3-.9.5-1.9.5-3s-.2-1.9-.5-2.7c-.3-.8-.8-1.4-1.3-2-.6-.5-1.2-.9-2-1.2-.8-.3-1.6-.4-2.5-.4h0c-.6,0-1.1,0-1.5.1-.4,0-.7.1-1,.2l.3-4.1h6.5v-3.4h-10.3ZM11.5,22.9c-.8,0-1.6,0-2.2.3-.7.2-1.3.4-1.8.6-.6.3-1.1.6-1.5.9-.5.3-.9.5-1.3.9l2.4,2.8c.7-.7,1.5-1.2,2.1-1.6.7-.4,1.4-.5,2.1-.5s1.3.2,1.7.6c.4.4.6.9.6,1.6s0,1.2-.3,1.7c-.2.5-.5,1.1-.8,1.6-.4.5-.8,1.1-1.3,1.6-.5.6-1,1.2-1.7,1.8l-4.8,5.4v2.8h13.7v-3.4h-8.3v-.2l2.5-2.7c.7-.7,1.4-1.4,2-2.1.6-.7,1.2-1.4,1.7-2.1.5-.7.9-1.4,1.1-2.2.3-.7.4-1.5.4-2.3s-.1-1.7-.4-2.4c-.3-.7-.7-1.1-1.3-1.6-.6-.5-1.2-.9-2-1.2-.8-.3-1.7-.4-2.6-.4ZM25.2,41.4v3.2h9.4l-7.3,17.2h4.5l7.1-17.7v-2.7h-13.8Z"/>
    <path class="st3" d="M3.4-.1C1.5-.1,0,1.4,0,3.3v1.1C0,2.6,1.5,1,3.4,1h57.4c1.9,0,3.4,1.5,3.4,3.4v-1.1c0-1.9-1.5-3.4-3.4-3.4H3.4Z"/>
  </g>
  <g class="st10">
    <ellipse class="st6" cx="32.5" cy="32.9" rx="25.6" ry="25.1"/>
    <ellipse class="st20" cx="32.5" cy="32.1" rx="25.6" ry="25.1"/>
    <path class="st5" d="M25,28.4c-3.2,1.5-5.3,4.6-5.3,8.1,0,5,4.1,9,9.1,9s9.1-4,9.1-9c0-.6,0-1.3-.2-1.9l-12.7-6.2Z"/>
    <path class="st7" d="M32.5,6.9c-14.1,0-25.6,11.3-25.6,25.1,0,.2,0,.4,0,.5.2-13.7,11.6-24.8,25.6-24.8,13.9,0,25.3,10.9,25.6,24.6,0-.1,0-.2,0-.4,0-13.9-11.5-25.1-25.6-25.1Z"/>
    <path class="st13" d="M25,27.5c-3.2,1.5-5.3,4.6-5.3,8.1,0,5,4.1,9,9.1,9s9.1-4,9.1-9c0-.6,0-1.3-.2-1.9l-12.7-6.2Z"/>
    <ellipse class="st21" cx="28.8" cy="35.6" rx="6.4" ry="6.3"/>
    <path class="st5" d="M14.2,20.4l-7.3-7.2c35.6,5.4,51.2,29.6,51.2,29.6,0,0-21-19.7-43.8-22.4Z"/>
    <path class="st1" d="M14.2,19.5l-7.3-7.2c35.6,5.4,51.2,29.6,51.2,29.6,0,0-21-19.7-43.8-22.4Z"/>
    <ellipse class="st13" cx="28.8" cy="35.6" rx="3.7" ry="3.6"/>
    <ellipse class="st11" cx="25.2" cy="32.1" rx="2.7" ry="2.7"/>
    <path class="st5" d="M22.5,30.3l-5.5-7.2c22.8,8.1,28.3,17.1,28.3,17.1,0,0-14.6-9.9-22.8-9.9Z"/>
    <path class="st1" d="M22.5,29.4l-5.5-7.2c22.8,8.1,28.3,17.1,28.3,17.1,0,0-14.6-9.9-22.8-9.9Z"/>
    <ellipse class="st11" cx="26.1" cy="38.3" rx=".9" ry=".9"/>
  </g>
  <g>
    <path class="st2" d="M0,52v2.1s0,3.2,3.2,3.2l53.4-.2c1.6,0,3-1.3,3-3v-2.1c0,1.7-1.3,3-3,3l-53.4.2,53.4-.2c.8,0,1.6-.3,2.1-.9-.6.6-1.4,1.1-2.3,1.1H3.3c-3.2,0-3.2-3.2-3.2-3.2h0ZM3.3,57.3h53.2c.9,0,1.7-.4,2.3-1.1-.5.5-1.3.9-2.1.9l-53.4.2h0Z"/>
    <path class="st9" d="M3.3,5.1C1.5,5.1,0,6.5,0,8.3v35.2h59.6V8.3c0-1.8-1.4-3.2-3.2-3.2H3.3ZM59.4,54.2c-.2.4-.3.7-.6,1,.3-.3.5-.6.6-1ZM58.8,55.2c-.5.5-1.3.9-2.1.9l-53.4.2h53.2c.9,0,1.7-.4,2.3-1.1h0Z"/>
    <path class="st8" d="M3.3,5.1C1.5,5.1,0,6.5,0,8.3v1.1c0-1.8,1.4-3.2,3.2-3.2h53.2c1.8,0,3.2,1.4,3.2,3.2v-1.1c0-1.8-1.4-3.2-3.2-3.2H3.3Z"/>
    <path class="st4" d="M42.6,16.8c4.7,0,8.5,3.8,8.5,8.5s-3.8,8.5-8.5,8.5-8.5-3.8-8.5-8.5,3.8-8.5,8.5-8.5Z"/>
    <path class="st12" d="M42.6,15.7c4.7,0,8.5,3.8,8.5,8.5s-3.8,8.5-8.5,8.5-8.5-3.8-8.5-8.5,3.8-8.5,8.5-8.5Z"/>
    <path class="st16" d="M0,43.5v6.6s0,13.9,13.7,13.9h36.5c10.6,0,13.6-8.5,13.6-13.9v-6.6H0Z"/>
    <path d="M0,43.5v-1.7s4.3-2.8,5.5-3.1c1.2-.2,2.6,0,4.1.2,1.5.3,3.7.7,4.3.7.7,0,1.9,0,3.4-.1,1.4,0,3.8-.2,4.6-.2.7,0,2.6.1,4.6.2,2,.1,4.7.3,5.3.4.6,0,1.3.2,2.2.3.8.1,2.2.3,2.7.3.5,0,1.7.2,3,.3,1.4.1,3.5.2,4.1.1.6,0,1.9-.5,3.4-.9,1.5-.4,3.1-.8,4.3-.7,1.2,0,8.1,2.5,8.1,2.5v1.7H0Z"/>
    <path class="st4" d="M63.8,45.4c-.5,9-7.9,16.1-17,16.2-8.9,0-16.3-6.9-17-15.8,0,.3,0,.6,0,.9,0,9.4,7.6,17.1,17,17.1h0c9.4,0,17-7.6,17-17.1h0c0-.4,0-.8,0-1.2h0Z"/>
    <ellipse class="st0" cx="46.9" cy="45.6" rx="17" ry="17.1"/>
    <path class="st11" d="M46.9,36c-5.3,0-9.6,4.3-9.6,9.6h0c0,5.3,4.3,9.6,9.6,9.6,4.1,0,7.7-2.6,9-6.4h-3.5c-1.1,2-3.2,3.2-5.5,3.2-3.5,0-6.4-2.9-6.4-6.4s2.9-6.4,6.4-6.4c2,0,3.8.9,5,2.4l-2.9,2.9h7.4v-7.5l-2.3,2.3c-1.8-2.1-4.5-3.4-7.3-3.4Z"/>
  </g>
</svg>