<?xml version="1.0" encoding="UTF-8"?>
<svg id="_图层_1" xmlns="http://www.w3.org/2000/svg" version="1.1" viewBox="0 0 64 64" width="16" height="16">
  <!-- Generator: Adobe Illustrator 29.0.1, SVG Export Plug-In . SVG Version: 2.1.0 Build 192)  -->
  <defs>
    <style>
      .st0 {
        fill: #4f4f4f;
      }

      .st1 {
        fill: #70f4ff;
      }

      .st2 {
        fill: #31afe1;
      }

      .st3, .st4 {
        fill: #fff;
      }

      .st5 {
        fill: #2f80ff;
      }

      .st6 {
        fill: #00b1c4;
      }

      .st7 {
        fill: #8e8e8e;
      }

      .st8, .st4 {
        isolation: isolate;
        opacity: .2;
      }

      .st9 {
        display: none;
      }

      .st10 {
        fill: #e4e4e4;
      }
    </style>
  </defs>
  <path class="st3" d="M50.3,64H13.9C6.3,64,.2,57.8.2,50.3V13.8C.2,6.2,6.3,0,13.9,0h36.5c7.5,0,13.7,6.2,13.7,13.7v36.5c0,7.5-6.1,13.7-13.7,13.7h0Z"/>
  <g class="st9">
    <path class="st8" d="M31,44.9s15.1,3.6,15.1,6v2.4c0,1.4-1.2,2.4-2.5,2.4h-25.3c-1.3,0-2.5-1-2.5-2.4v-2.4c0-2.4,15.1-6,15.1-6Z"/>
    <path class="st0" d="M31,44.1s15.1,3.6,15.1,6v2.4c0,1.3-1.1,2.4-2.5,2.4h-25.2c-1.4,0-2.5-1.1-2.5-2.4v-2.4c0-2.4,15.1-6,15.1-6Z"/>
    <ellipse class="st8" cx="31" cy="29.1" rx="22.3" ry="21.6"/>
    <ellipse class="st7" cx="31" cy="28.2" rx="22.3" ry="21.6"/>
    <ellipse class="st0" cx="31" cy="28.2" rx="16" ry="15.5"/>
    <ellipse class="st8" cx="31" cy="29.1" rx="12.5" ry="12.1"/>
    <ellipse class="st6" cx="31" cy="28.2" rx="12.5" ry="12.1"/>
    <ellipse class="st8" cx="31" cy="29.1" rx="7.1" ry="6.9"/>
    <ellipse class="st1" cx="31" cy="28.2" rx="7.1" ry="6.9"/>
    <path class="st4" d="M30.9,21.3c-3.9,0-7,3.1-7,6.9,0,.1,0,.3,0,.4.2-3.6,3.3-6.4,7-6.5,0,0,0,0,.1,0,3.8,0,6.9,2.8,7.1,6.5,0-.1,0-.3,0-.4,0-3.8-3.2-6.9-7.1-6.9,0,0,0,0-.1,0Z"/>
    <path class="st4" d="M31,6.6c-12.3,0-22.3,9.7-22.3,21.6,0,.1,0,.3,0,.4.2-11.7,10.1-21.1,22.2-21.1,12,0,21.9,9.3,22.3,20.9,0,0,0-.1,0-.2,0-11.9-10-21.6-22.3-21.6Z"/>
  </g>
  <g class="st9">
    <path class="st8" d="M32.5,3c-1.6,0-3.1.6-4.3,1.8L4.3,28.7c-2.3,2.3-2.3,6.3,0,8.6l23.9,23.9c2.3,2.3,6.3,2.4,8.6,0l23.9-23.9c2.3-2.3,2.3-6.3,0-8.6L36.8,4.8c-1.2-1.2-2.7-1.8-4.3-1.8Z"/>
    <path class="st2" d="M32.5,2c-1.6,0-3.1.6-4.3,1.8L4.3,27.7c-2.3,2.3-2.3,6.3,0,8.6l23.9,23.9c2.3,2.3,6.3,2.4,8.6,0l23.9-23.9c2.3-2.3,2.3-6.3,0-8.6L36.8,3.8c-1.2-1.2-2.7-1.8-4.3-1.8Z"/>
    <path class="st8" d="M18.5,14.4l-6,6v25.1l6,6h0s14.1-14.1,14.1-14.1l14,14,4.2-4.2-14-14,14.2-14.2-4.2-4.2-28.3,28.3V14.4Z"/>
    <path class="st3" d="M18.5,13.4l-6,6v25.1l6,6h0s14.1-14.1,14.1-14.1l14,14,4.2-4.2-14-14,14.2-14.2-4.2-4.2-28.3,28.3V13.4Z"/>
    <path class="st4" d="M32.5,2c-1.6,0-3.1.6-4.3,1.8L4.3,27.7c-1.3,1.3-1.9,3.1-1.7,4.8.1-1.4.7-2.8,1.7-3.8L28.2,4.8c1.2-1.2,2.7-1.8,4.3-1.8s3.1.6,4.3,1.8l23.9,23.9c1,1,1.6,2.4,1.7,3.8.1-1.7-.4-3.5-1.7-4.8L36.8,3.8c-1.2-1.2-2.7-1.8-4.3-1.8Z"/>
  </g>
  <g>
    <path class="st8" d="M35.9,10.7c-5.5,0-10.6,3-13.3,7.8-1.1-.5-2.3-.8-3.5-.8-4.1,0-7.6,2.9-8.3,6.9-4.3,1.8-7.2,6-7.2,10.6,0,6.3,5.1,11.5,11.5,11.5h33.5c6.1,0,11-4.9,11-11s-4.2-9.9-9-10c0-9-6.6-15-14.7-15Z"/>
    <path class="st5" d="M35.9,9.7c-5.5,0-10.6,3-13.3,7.8-1.1-.5-2.3-.8-3.5-.8-4.1,0-7.6,2.9-8.3,6.9-4.3,1.8-7.2,6-7.2,10.6,0,6.3,5.1,11.5,11.5,11.5h33.5c6.1,0,11-4.9,11-11s-4.2-9.9-9-10c0-9-6.6-15-14.7-15Z"/>
    <path class="st8" d="M28.6,35.7l5,5v5h6v-5l5-5-8-15-8,15Z"/>
    <path class="st10" d="M28.6,34.7l5,5v6h6v-6l5-5-8-15-8,15Z"/>
    <path class="st4" d="M35.9,9.7c-5.5,0-10.6,3-13.3,7.8-1.1-.5-2.3-.8-3.5-.8-4.1,0-7.6,2.9-8.3,6.9-4.3,1.8-7.2,6-7.2,10.6,0,.2,0,.3,0,.5.2-4.5,3-8.4,7.2-10.1.8-4,4.3-6.9,8.3-6.9,1.2,0,2.4.3,3.5.8,2.7-4.8,7.8-7.7,13.3-7.8,8.1,0,14.7,6,14.7,15,4.7,0,8.7,4.6,9,9.5,0-.2,0-.3,0-.5,0-5.1-4.2-9.9-9-10,0-9-6.6-15-14.7-15Z"/>
  </g>
</svg>