<?xml version="1.0" encoding="UTF-8"?>
<svg id="_图层_1" xmlns="http://www.w3.org/2000/svg" version="1.1" viewBox="0 0 64 64" width="16" height="16">
  <!-- Generator: Adobe Illustrator 29.0.1, SVG Export Plug-In . SVG Version: 2.1.0 Build 192)  -->
  <defs>
    <style>
      .st0, .st1, .st2 {
        isolation: isolate;
      }

      .st0, .st1, .st3 {
        display: none;
      }

      .st0, .st2 {
        opacity: .2;
      }

      .st1 {
        opacity: .1;
      }

      .st1, .st4 {
        fill: #fff;
      }

      .st2 {
        fill-rule: evenodd;
      }

      .st5 {
        fill: #38458f;
      }

      .st3, .st6 {
        fill: #e4e4e4;
      }
    </style>
  </defs>
  <path class="st6" d="M50.4,64H13.8c-7.6,0-13.8-6.2-13.8-13.7V13.7C0,6.2,6.2,0,13.7,0h36.5c7.5,0,13.7,6.2,13.7,13.7v36.6c0,7.5-6.2,13.7-13.7,13.7h.1Z"/>
  <g>
    <path class="st0" d="M9.3,56.2v2c0,1.7,1.3,3,3,3h38c1.7,0,3-1.3,3-3v-2c0,1.7-1.3,3-3,3H12.3c-1.7,0-3-1.3-3-3Z"/>
    <path class="st3" d="M53.3,57.2V7.2c0-1.7-1.3-3-3-3H12.3c-1.7,0-3,1.3-3,3v50c0,1.7,1.3,3,3,3h38c1.7,0,3-1.3,3-3Z"/>
    <path class="st1" d="M12.3,4.2c-1.7,0-3,1.3-3,3v1c0-1.7,1.3-3,3-3h38c1.7,0,3,1.3,3,3v-1c0-1.7-1.3-3-3-3H12.3Z"/>
    <path class="st2" d="M63.2,46c-.5,8.5-7.5,15.1-16,15.2-8.4,0-15.4-6.5-16-14.8,0,.3,0,.6,0,.8,0,8.8,7.2,16,16,16s16-7.2,16-16c0-.4,0-.8,0-1.2h0Z"/>
    <circle class="st5" cx="47.3" cy="46.2" r="16"/>
    <path class="st4" d="M39.3,50.6v3.6h3.6l9-9-3.6-3.6-9,9ZM55,42.1c.4-.4.4-1,0-1.3l-2.2-2.2c-.4-.4-1-.4-1.3,0l-1.9,1.9,3.6,3.6,1.9-1.9Z"/>
  </g>
</svg>