<?xml version="1.0" encoding="UTF-8"?>
<svg id="_图层_1" xmlns="http://www.w3.org/2000/svg" version="1.1" viewBox="0 0 64 64" width="16" height="16">
  <!-- Generator: Adobe Illustrator 29.0.1, SVG Export Plug-In . SVG Version: 2.1.0 Build 192)  -->
  <defs>
    <style>
      .st0 {
        stroke: #0a0202;
      }

      .st0, .st1, .st2, .st3, .st4, .st5, .st6, .st7 {
        isolation: isolate;
      }

      .st0, .st2, .st7 {
        opacity: .1;
      }

      .st0, .st8, .st9 {
        fill: none;
        stroke-linecap: round;
        stroke-width: 10px;
      }

      .st1, .st4, .st5, .st6 {
        opacity: .2;
      }

      .st1, .st10, .st11, .st6, .st12 {
        display: none;
      }

      .st13 {
        fill: #3f3f3f;
      }

      .st8 {
        stroke: #c5251a;
      }

      .st14 {
        fill: #ff352e;
      }

      .st15 {
        fill: #1f8a1b;
      }

      .st16 {
        fill: #efefef;
      }

      .st3 {
        opacity: .3;
      }

      .st11, .st17 {
        fill: #5aa331;
      }

      .st9 {
        stroke: #f44336;
      }

      .st5, .st6, .st7 {
        fill: #fff;
      }

      .st12 {
        fill: #e4e4e4;
      }

      .st18 {
        fill: #74c526;
      }
    </style>
  </defs>
  <path class="st17" d="M50.4,64H13.8c-7.6,0-13.8-6.2-13.8-13.7V13.7C0,6.2,6.2,0,13.7,0h36.5c7.5,0,13.7,6.2,13.7,13.7v36.6c0,7.5-6.2,13.7-13.7,13.7h.1Z"/>
  <g class="st10">
    <path class="st1" d="M64,61.7V4.3c0-1.8-1.4-3.2-3.2-3.2H3.2C1.4,1.1,0,2.5,0,4.3v57.4c0,1.8,1.4,3.2,3.2,3.2h57.6c1.8,0,3.2-1.4,3.2-3.2Z"/>
    <path class="st12" d="M64,60.6V3.2c0-1.8-1.4-3.2-3.2-3.2H3.2C1.4,0,0,1.4,0,3.2v57.4c0,1.8,1.4,3.2,3.2,3.2h57.6c1.8,0,3.2-1.4,3.2-3.2Z"/>
    <path class="st3" d="M13.2,0C5.9,0,0,5.9,0,13.2v12.2c0,1.8,1.4,3.2,3.2,3.2h22.3c1.8,0,3.2-1.4,3.2-3.2V3.2c0-1.8-1.4-3.2-3.2-3.2h-12.3ZM8.3,6.6h12c1,0,1.7.8,1.7,1.7v12c0,.9-.8,1.7-1.7,1.7h-12c-1,0-1.7-.8-1.7-1.7v-12c0-.9.8-1.7,1.7-1.7Z"/>
    <path class="st3" d="M38.5,0c-1.8,0-3.2,1.4-3.2,3.2v22.2c0,1.8,1.4,3.2,3.2,3.2h22.3c1.8,0,3.2-1.4,3.2-3.2v-12.1c0-7.3-5.9-13.3-13.3-13.3h-12.2ZM43.6,6.6h12c1,0,1.7.8,1.7,1.7v12c0,.9-.8,1.7-1.7,1.7h-12c-1,0-1.7-.8-1.7-1.7v-12c0-.9.8-1.7,1.7-1.7Z"/>
    <path class="st3" d="M3.2,35.2c-1.8,0-3.2,1.4-3.2,3.2v12.2c0,7.3,5.9,13.2,13.2,13.2h12.3c1.8,0,3.2-1.4,3.2-3.2v-22.2c0-1.8-1.4-3.2-3.2-3.2H3.2ZM8.3,41.8h12c1,0,1.7.8,1.7,1.7v12c0,.9-.8,1.7-1.7,1.7h-12c-1,0-1.7-.8-1.7-1.7v-12c0-.9.8-1.7,1.7-1.7Z"/>
    <path class="st3" d="M38.5,35.2c-1.8,0-3.2,1.4-3.2,3.2v22.2c0,1.8,1.4,3.2,3.2,3.2h12.1c7.4,0,13.4-6,13.4-13.4v-12c0-1.8-1.4-3.2-3.2-3.2h-22.3ZM43.6,41.8h12c1,0,1.7.8,1.7,1.7v12c0,.9-.8,1.7-1.7,1.7h-12c-1,0-1.7-.8-1.7-1.7v-12c0-.9.8-1.7,1.7-1.7Z"/>
    <path class="st0" d="M14.4,50.6L49.6,15.5"/>
    <path class="st8" d="M14.4,49.5L49.6,14.4"/>
    <path class="st0" d="M49.6,50.6L14.4,15.5"/>
    <path class="st9" d="M49.6,49.5L14.4,14.4"/>
    <path class="st6" d="M3.2,0C1.4,0,0,1.4,0,3.2v1.1C0,2.5,1.4,1.1,3.2,1.1h57.6c1.8,0,3.2,1.4,3.2,3.2v-1.1c0-1.8-1.4-3.2-3.2-3.2H3.2Z"/>
    <path class="st7" d="M14.3,8.8c-3,0-5.5,2.5-5.5,5.5,0,.2,0,.4,0,.5.3-2.8,2.6-4.9,5.5-5,1.5,0,2.9.6,4,1.7l35.2,35.1c.9.9,1.5,2.1,1.7,3.4.2-1.7-.4-3.4-1.7-4.5L18.3,10.5c-1-1.1-2.5-1.7-4-1.7Z"/>
  </g>
  <g class="st10">
    <path class="st4" d="M58.1,7.6c-.5,0-2.1,1.7-2.7,2.1-1.3,1-5.9,1.4-7.2,1.9-.6,0-26.8,0-26.8,0,0,0-5.6-.4-9.8,9C7.3,30,1.7,51.6,1.7,51.6h34.1s5.6.2,9-7.4c3.4-7.6,8.3-27.1,8.3-27.1,0,0,.2-1.4-.7-2.8,1.3-.7,3.6-1.4,5.3-2,2.9-1,2.4-4.8.4-4.8Z"/>
    <path class="st18" d="M58.1,6.6c-.5,0-2.1,1.7-2.7,2.1-1.3,1-5.9,1.4-7.2,1.9-.6,0-26.8,0-26.8,0,0,0-5.6-.4-9.8,9C7.3,29,1.7,50.6,1.7,50.6h34.1s5.6.2,9-7.4c3.4-7.6,8.3-27.1,8.3-27.1,0,0,.2-1.4-.7-2.8,1.3-.7,3.6-1.4,5.3-2,2.9-1,2.4-4.8.4-4.8Z"/>
    <path class="st2" d="M19.7,14.6v3h10v-3h-10ZM31.7,14.6v3h4v-3h-4ZM37.7,14.6v3h10v-3h-10ZM56,17.6c-.2,0-.5,0-.6.3-7.3,7.1-20.4,23.2-20.4,23.2l-1.2,6.5,5.6-2s13.5-17,20.1-23.5c1.2-1.2-1.8-4.6-3.5-4.5ZM15.7,20.6v3h6v-3h-6ZM23.7,20.6v3h14v-3h-14ZM39.7,20.6v3h8v-3h-8ZM11.7,27.6v3h4v-3h-4ZM17.7,27.6v3h9v-3h-9ZM29.7,27.6v3h14v-3h-14ZM11.7,32.6v3h7v-3h-7ZM21.7,32.6v3h10v-3h-10ZM10.7,37.6v3h9v-3h-9ZM27.5,37.6c-1.4,0-2.7.4-3.3.7h-.2c0,.1.6,1.5.6,1.5h.3c1.1-.6,2-.6,2.5-.6,1.2,0,2,.4,2,1s-.2,1.4-2.2,1.4h-.4v1.5h.4c2.9,0,2.7.7,2.7,1.3,0,.9-1.3,1.5-2.8,1.5s-1.2,0-2.5-.4h-.3c0,0-.5,1.4-.5,1.4h.3c1,.5,2,.6,3,.6,2.9,0,4.7-1.3,4.7-3.3s-.4-1.8-1.6-2.2c.7-.4,1.2-1.2,1.2-2,0-1.4-1.5-2.4-3.8-2.4ZM7.7,43.6v3h10v-3H7.7ZM19.7,43.6v3h3v-3h-3Z"/>
    <path class="st13" d="M24.2,37.3h-.2c0,.1.6,1.5.6,1.5h.3c1.1-.6,2-.6,2.5-.6,1.2,0,2,.4,2,1s-.2,1.4-2.2,1.4h-.4v1.5h.4c2.9,0,2.7.7,2.7,1.3,0,.9-1.3,1.5-2.8,1.5s-1.2,0-2.5-.4h-.3c0,0-.5,1.4-.5,1.4h.3c1,.5,2,.6,3,.6,2.9,0,4.7-1.3,4.7-3.3s-.4-1.8-1.6-2.2c.7-.4,1.2-1.2,1.2-2,0-1.4-1.5-2.4-3.8-2.4s-2.7.4-3.3.7"/>
    <path class="st15" d="M19.7,42.6v3h3v-3h-3Z"/>
    <path class="st15" d="M7.7,42.6v3h10v-3H7.7Z"/>
    <path class="st15" d="M10.7,36.6v3h9v-3h-9Z"/>
    <path class="st15" d="M29.7,26.6v3h14v-3h-14Z"/>
    <path class="st15" d="M17.7,26.6v3h9v-3h-9Z"/>
    <path class="st15" d="M11.7,26.6v3h4v-3h-4Z"/>
    <path class="st15" d="M39.7,19.6v3h8v-3h-8Z"/>
    <path class="st15" d="M23.7,19.6v3h14v-3h-14Z"/>
    <path class="st15" d="M15.7,19.6v3h6v-3h-6Z"/>
    <path class="st15" d="M37.7,13.6v3h10v-3h-10Z"/>
    <path class="st15" d="M31.7,13.6v3h4v-3h-4Z"/>
    <path class="st15" d="M19.7,13.6v3h10v-3h-10Z"/>
    <path class="st15" d="M21.7,31.6v3h10v-3h-10Z"/>
    <path class="st15" d="M11.7,31.6v3h7v-3h-7Z"/>
    <path class="st13" d="M59.4,21.1c-6.6,6.5-20.1,23.5-20.1,23.5l-5.6,2,1.2-6.5s13.1-16.1,20.4-23.2c1.4-1.4,5.5,2.9,4.1,4.2Z"/>
    <path class="st5" d="M58.1,6.6c-.5,0-2.1,1.7-2.8,2.1-1.3,1-5.9,1.4-7.2,1.9-.6,0-26.8,0-26.8,0,0,0-5.6-.4-9.8,9C7.3,29,1.7,50.6,1.7,50.6h.3c.7-2.7,5.6-21.3,9.5-30,4.2-9.4,9.8-9,9.8-9,0,0,26.2,0,26.8,0,1.4-.5,5.9-.8,7.2-1.9.6-.5,2.3-2.1,2.8-2.1.9,0,1.4.7,1.6,1.6.2-1.3-.4-2.6-1.6-2.6Z"/>
  </g>
  <g>
    <path class="st1" d="M0,31.9c0,.4,0,.8,0,1.1,0,17.7,14.2,31.9,31.9,31.9s30.8-13.2,31.8-30h0v-2.3h0c-1,16.8-14.8,30-31.8,30S.7,49,0,31.9h0Z"/>
    <ellipse class="st11" cx="31.9" cy="31.9" rx="31.9" ry="31.9"/>
    <ellipse class="st4" cx="31.9" cy="33" rx="22.8" ry="22.8"/>
    <ellipse class="st16" cx="31.9" cy="31.9" rx="22.8" ry="22.8"/>
    <path class="st14" d="M31.9,16c-.2,0-.3.1-.4.4,0,.1,0,.4,0,.5,0,.2,0,.3,0,.4s0,.2.2.4c.1.2.1.2,0,.4-.2.2-.4.4-.8.4-.3,0-.3,0-.3.3s0,.3-.3.5c-.2.1-.4.2-.6.3-.2,0-.3.1-.5.3-.3.3-.9.6-1.1.5-.1,0-.3-.1-.4-.2-.2-.2-.5-.3-.6,0-.1.2,0,.5.3.8.2.2.3.3.3.4,0,.2-.3.5-.6.6-.5.2-.6.5-.4.9,0,.1.2.4.2.5.1.4,0,.9-.4,1.1-.3.2-.3.5-.1.6.3.2.2.4-.3.6-.8.3-1,.8-.7,1.5.2.4.1.5-.1.7-.3.2-.4.4-.6,1-.2.5-.3.6-.6.8-.4.2-.9.9-.9,1.2,0,.2.6,1.1,1,1.5.2.3.3.7.2,1-.2.3-.5.7-.8.8-.3.1-.3.1-.6,0-.2,0-.5-.3-.7-.6-.5-.5-.6-.5-.9-.1-.1.2-.2.4-.2.7,0,.4,0,.5-.8.5-.5,0-.7.1-1.2.5-.3.2-.4.2-.7,0-.1,0-.5-.3-.9-.4-.6-.2-.7-.2-.9-.5-.1-.1-.2-.3-.2-.4,0-.3-1.1-1.7-1.4-1.9,0,0-.4-.2-.7-.3-.5-.2-.6-.2-1.1-.2-.7,0-1,.2-1.5.7-.3.4-.4.6-.5,1.3-.2,1.5-.2,1.7.5,1.7.5,0,.6.1.9.6.1.2.2.3.3.4.1,0,.8.3,1.4.5.4.1.6.3,1,.8.1.2.4.5.5.6.2.2.3.3.3.4s-.2.3-.4.5c-.4.4-.4.5-.3,1.1,0,.3.2.4.4.5.2.1.4.3.6.4.3.3.3.3.2.5,0,.1-.1.2-.2.2,0,0-.1.1-.2.3,0,.2,0,.3,0,.5.1.2.1.3.1.6,0,.3,0,.4,0,.5,0,.1.2.3.3.5.2.5.2.5,1.4.9.2,0,.3.2.4.5,0,.2.2.5.2.7.1.4.5.7,1.1.7s.6.1.6.2.5.7.8.9c.1.1.4.2.5.2.2,0,.3,0,.8.5.3.3.6.6.7.8.1.2.3.4.5.4h0c.2.1.4.1,2,0,.8,0,.9-.1,1.1-.5.1-.4,0-.7-.4-.8-.3-.2-.4-.2-.7,0-.3,0-.4,0-.7,0-.2,0-.5-.1-.6-.1-.4,0-.3-.1,0-.3.4-.2.5-.2.7,0,.4.3.6.1.5-.4,0-.2,0-.3.4-.6.2-.2.6-.5.7-.6.3-.1.4-.1.8-.1.4,0,.5,0,.7,0,.3-.1.3-.2.1-.7,0-.3,0-.3,0-.5.2-.3.5-.6.7-.6s.6.3.8.5c.1.1.2.2.7.2.3,0,.6,0,.6,0,0,0,.3,0,.6,0,.5,0,.6,0,1,.1.3,0,.7.2.9.3.5.1.7.2.9.6.2.4.3.4.9.8.7.4,1.3.5,2,.1.2,0,.4-.2.5-.2.2,0,.5-.3.6-.6,0-.3.1-.3.4-.3s.3,0,.4-.1c0,0,.2-.1.4-.1.3,0,.4-.1.4-.4s0-.3.3-.5c.5-.4.6-.4.9-.3.5.2.8.2,1.7-.3.3-.1.6-.3.7-.3s.4.1.7.3c.7.5.9.4,1.2-.2.1-.4.1-.5-.4-.8-.5-.3-.5-.4-.3-.7.2-.3.4-.5,1.2-.6.6-.1.8-.2,1.8-.8.5-.3.7-.4.9-.4,1.1,0,1.6-1,1.7-3.3,0-.3,0-.6.3-1,.5-1.1.6-1.4.7-2.4,0-.6,0-1,0-1.2,0-.2,0-.7,0-1.5.2-2.2.2-2.6-.3-3.3-.1-.2-.2-.4-.3-.7,0-.5-.2-.9-.6-1.6-.3-.6-.5-.8-1-1.4-.5-.6-.5-.6-.5-1.3,0-.4,0-.7-.1-.9,0-.1-.1-.4-.1-.5s0-.2-.1-.3c-.2-.1-1.1-.1-1.2,0,0,0-.1.2-.1.4,0,.2,0,.3-.2.4-.2.1-.8-.2-1-.5,0-.1-.3-.3-.4-.4-.4-.3-.5-.4-.6-.7,0-.2,0-.3.2-.6.3-.4.4-1.1.2-1.3-.2-.2-.5-.3-.9-.3-.3,0-.3,0-.5.4-.1.2-.3.4-.5.6-.2.1-.4.3-.5.4-.3.2-.6.2-.9,0-.2,0-.2-.1-.3-.5,0-.3-.1-.5-.3-.7-.1-.2-.3-.4-.3-.6,0-.2-.1-.3-.3-.4-.1,0-.3-.3-.4-.4-.1-.3-.5-.5-.8-.5-.2,0-.3,0-.7.5-.3.3-.5.5-.6.5,0,0-.3,0-.6-.1-.5-.2-.7-.2-1,0-.1,0-.2,0-.5,0-.4-.1-.6,0-.8.2-.3.5-.6.4-.7,0,0-.3-.3-.4-.7-.4-.2,0-.4,0-.6-.2-.4-.2-.7-.2-1.2,0-.3,0-.4,0-.5,0,0-.1,0-.2,0-.3.2-.3.2-.4,0-.7-.2-.2-.4-.3-.6-.3ZM38.2,20.5c.5,0,1.1,0,1.9.2.3,0,.8.1,1.1.2.3,0,.6,0,.8.1.5,0,.7.2.9.5.1.2.1.3,0,.3-.2.1-.1.2,0,.3,0,0,.1.2.1.3,0,.3.1.4.3.4s.4.2.3.4c0,.1,0,.2,0,.3,0,0,0,0-.1,0-.6-.1-.9,0-.7.3,0,.1,0,.2-.1.3-.3.2-.3.3,0,.3s.2,0,.2.1c0,.2,0,.2.3,0,.2-.2.2-.2.3,0,.1,0,.1.2.1.6,0,.7.1,1.6.3,1.9.2.4.3.9.2,1.7,0,.4,0,1-.1,1.3,0,.4,0,.6-.2.7-.2.2-.2.4-.2,1.6,0,.7,0,.7.2,1,.1.2.3.3.4.3.1,0,.1,0,0,.2,0,0-.2.2-.2.3,0,.1,0,.1.2,0,.2,0,.2,0,.3.1,0,.2.3.2.4,0,0-.1.1-.2.4-.2.3,0,.4,0,.4.2,0,.2.2.3.4.2.2,0,.3,0,.5.5.2.5.2.7,0,1.1-.2.4-.8.8-1.8,1.2-.5.2-.6.3-.9.5-.5.5-.6.7-.6,2.2,0,2.5,0,2.5-.1,2.8,0,.1-.1.3-.2.4h0c-.1,0-.3.1-.8.1-.4,0-.7,0-.7,0,0,0-1.1-.1-1.4,0-.1,0-.1,0-.1-.2s-.2-.6-.3-.4c-.1.3-.5.4-.5,0s-.2-.2-.3,0c-.1.3-.3.3-.3,0,.1-.5.1-.6,0-.6-.2,0-.3-.2-.2-.4.1-.3,0-.5-.2-.6-.1,0-.2,0-.2-.5,0-.3,0-.6,0-.8,0-.3-.2-.3-.5-.6-.2-.1-.3-.2-.3-.3s0-.2-.1-.3c0-.1-.1-.1-.3,0-.2.1-.2.2-.6.1-.5,0-1.2-.1-2.2-.1-.8,0-1.3,0-1.4-.2,0,0-.4,0-.9-.1-.4,0-.9-.1-1.1-.2-.1,0-.4,0-.6,0-.2,0-.7,0-1,0-.7,0-1-.6-1.1-1,0-.1-.2-.3-.3-.4-.2-.1-.2-.2-.2-.5,0-.2,0-.4.1-.5,0-.1.1-.2,0-.4,0-.3,0-.3,0-.4,0,0,.2-.2.2-.2s0-.1.2-.2c.1,0,.1-.1.1-.3,0-.1,0-.3.1-.4.2-.2.2-.2,0-.3-.1-.1-.1-.1.1-.5.2-.4.2-.4.2-.6-.1-.4.2-.9,1-1.6.6-.5.7-.6.8-1,0-.2.2-.6.3-.7,0-.2.2-.4.2-.5,0-.1.2-.4.3-.7.2-.4.5-.7,1.3-1.5.6-.6,1.2-1.2,1.3-1.4.6-.8.7-.9.7-1.2,0-.1.2-.4.4-.6.3-.4.5-.7.7-1.1.3-.5,1.1-1,2.2-1.2.1,0,.3,0,.4,0ZM37.1,28.6c0,0-.1,0-.2.1-.1,0-.3.2-.4.3-.7.5-1.3,1.1-1.3,1.4,0,.1-.3.7-.6,1.1,0,.1-.2.4-.2.5,0,.2,0,.4-.1.6,0,.3,0,1,0,1.1.2.2.7.4,1.1.5h0c.2,0,1,0,1.8,0,1.8,0,2.1,0,2.3-.4.3-.4.3-1.3.3-1.6,0-.2-.3-.5-.4-.5-.2,0-.7-.3-.7-.5,0,0-.1-.3-.2-.5-.2-.5-.3-.8-.4-1.1,0-.3-.6-1-.8-1.1,0,0,0,0-.1,0Z"/>
    <path class="st14" d="M43.8,24.6c0,0,0-.1-.2-.2-.2-.1-.2-.1-.2,0s.1.3.3.3,0,0,0,0h0Z"/>
    <path class="st14" d="M38.7,48.3c0-.2.3-.6.5-.5.1,0,0,.3,0,.5-.2.1-.4.1-.5,0h0Z"/>
    <path class="st14" d="M42.6,47.8c-.1,0-.2-.2-.3-.2,0,0,0-.3.3-.4.2,0,.2,0,.4,0,.3.1.3.2.1.5-.1.3-.3.3-.6,0h0Z"/>
    <path class="st14" d="M39.6,47.5c-.2-.1-.2-.4-.1-.6,0,0,.6,0,.7,0,.2.1,0,.7-.3.6,0,0-.2,0-.3-.1h0Z"/>
    <path class="st6" d="M31.9,0h0C14.3,0,0,14.3,0,31.9c0,.2,0,.4,0,.6C.3,15.1,14.5,1.2,31.9,1.2h0c17.4,0,31.5,13.9,31.8,31.3,0-.2,0-.4,0-.6C63.7,14.3,49.5,0,31.9,0c0,0,0,0,0,0Z"/>
  </g>
</svg>