<?xml version="1.0" encoding="UTF-8"?>
<svg id="_图层_1" xmlns="http://www.w3.org/2000/svg" version="1.1" viewBox="0 0 64 64" width="16" height="16">
  <!-- Generator: Adobe Illustrator 29.0.1, SVG Export Plug-In . SVG Version: 2.1.0 Build 192)  -->
  <defs>
    <style>
      .st0, .st1, .st2, .st3, .st4, .st5 {
        isolation: isolate;
      }

      .st0, .st1, .st3, .st4, .st5 {
        opacity: .2;
      }

      .st0, .st6, .st7, .st5, .st8 {
        display: none;
      }

      .st9 {
        fill: #848484;
      }

      .st1 {
        fill-rule: evenodd;
      }

      .st10, .st6 {
        fill: #f58411;
      }

      .st11, .st4, .st5 {
        fill: #fff;
      }

      .st12 {
        fill: #0056c8;
      }

      .st13 {
        fill: #e4e4e4;
      }

      .st8 {
        fill: #ff5562;
      }
    </style>
  </defs>
  <path class="st10" d="M50.3,64H13.8c-7.6,0-13.8-6.2-13.8-13.7V13.7C0,6.2,6.2,0,13.7,0h36.5c7.5,0,13.7,6.2,13.7,13.7v36.6c0,7.5-6.2,13.7-13.7,13.7h0Z"/>
  <g class="st7">
    <path class="st3" d="M32.5,6.2c-14.5,0-26.2,11.5-26.2,25.8s11.7,25.8,26.2,25.8,26.2-11.5,26.2-25.8S47,6.2,32.5,6.2ZM32.5,20.9c6.2,0,11.2,5,11.2,11.1s-5,11.1-11.2,11.1-11.2-5-11.2-11.1,5-11.1,11.2-11.1Z"/>
    <path class="st9" d="M32.5,17.2c-7.8,0-14,6.2-14,13.8s6.3,13.8,14,13.8,14-6.2,14-13.8-6.3-13.8-14-13.8ZM32.5,25.5c3.1,0,5.6,2.5,5.6,5.5s-2.5,5.5-5.6,5.5-5.6-2.5-5.6-5.5,2.5-5.5,5.6-5.5Z"/>
    <path class="st13" d="M32.5,5.3c-14.5,0-26.2,11.5-26.2,25.8s11.7,25.8,26.2,25.8,26.2-11.5,26.2-25.8S47,5.3,32.5,5.3ZM32.5,20c6.2,0,11.2,5,11.2,11.1s-5,11.1-11.2,11.1-11.2-5-11.2-11.1,5-11.1,11.2-11.1Z"/>
    <path class="st4" d="M32.5,5.3c-14.5,0-26.2,11.5-26.2,25.8s0,.2,0,.3c.3-14,11.9-25.2,26.2-25.2s25.9,11.2,26.2,25.2c0-.1,0-.2,0-.3,0-14.3-11.7-25.8-26.2-25.8ZM21.3,32c0,.3,0,.6,0,.9,0,.2,0,.3,0,.5,0-.2,0-.3,0-.5.5,5.7,5.3,10.1,11.2,10.1,5.8,0,10.7-4.4,11.2-10.1,0,.2,0,.4,0,.5,0-.2,0-.4,0-.5,0-.3,0-.6,0-.9-.5,5.7-5.3,10.1-11.2,10.1-5.8,0-10.7-4.4-11.2-10.1Z"/>
    <path class="st1" d="M62.4,45.7c-.4,7.8-7,14-14.9,14-7.9,0-14.4-6-14.9-13.7,0,.3,0,.5,0,.8,0,8.1,6.7,14.8,15,14.8s15-6.6,15-14.8c0-.4,0-.7,0-1.1h0Z"/>
    <ellipse class="st12" cx="47.5" cy="45.8" rx="15" ry="14.8"/>
    <path class="st11" d="M40,49.9v3.3h3.3l8.4-8.3-3.3-3.3-8.4,8.3ZM54.7,42c.4-.3.4-.9,0-1.2l-2.1-2.1c-.4-.3-.9-.3-1.3,0l-1.7,1.7,3.3,3.3,1.8-1.7Z"/>
  </g>
  <g class="st7">
    <path class="st8" d="M16.7,0h30.6c11.1,0,16.7,5.6,16.7,16.7v30.6c0,11.1-5.6,16.7-16.7,16.7h-30.6c-11.1,0-16.7-5.6-16.7-16.7v-30.6C0,5.6,5.6,0,16.7,0Z"/>
    <path class="st11" d="M34.9,7c2.7,6.4-9.7,10.3-10.8,15.6-1.1,4.9,7.3,10.6,7.3,10.6-1.3-2-2.2-3.7-3.5-6.9-2.2-5.3,13.2-10.1,7-19.3ZM43,15.8s-10.8.7-11.4,7.8c-.3,3.2,2.9,4.8,2.9,7.1,0,1.9-1.9,3.4-1.9,3.4,0,0,3.5-.6,4.6-3.5,1.2-3.2-2.3-5.3-2-7.9.3-2.4,7.7-6.9,7.7-6.9ZM45.7,32.1c-1.1,0-2.4.4-3.5,1.2,2.2-.5,4.1.9,4.1,2.5,0,3.6-5.2,7-5.2,7,0,0,8-.9,8-6.9s-1.5-3.8-3.4-3.9ZM24.5,32.2c-2.8,0-8.4.6-8.4,2.7s13,3.2,22.2,1.4c0,0,2.5-1.8,3.2-2.4-6.1,1.3-20,1.5-20,.4s4.4-2,4.4-2c0,0-.6,0-1.6,0h0ZM23.6,37.7c-1.5,0-3.8,1.2-3.8,2.3,0,2.3,11.5,4.1,20,.7l-2.9-1.8c-5.7,1.9-16.4,1.3-13.2-1.3ZM25.1,43c-2.1,0-3.4,1.3-3.4,2.3,0,3,12.4,3.3,17.4.2l-3.1-2c-3.7,1.6-12.9,1.8-10.8-.5h0ZM18.1,45.7c-3.4,0-5.6,1.5-5.6,2.8,0,6.9,34.8,6.6,34.8-.5s-1.4-1.7-1.9-2c2.8,6.7-28.4,6.2-28.4,2.2s2.3-1.8,4.4-1.4l-1.8-1c-.5,0-1-.1-1.6-.1,0,0,0,0,0,0ZM51,50.3c-5.3,5.1-18.7,7-32.2,3.8,13.5,5.6,32.1,2.5,32.2-3.8Z"/>
  </g>
  <g>
    <path class="st0" d="M0,59.6v2.3C0,63.7,1.4,65.1,3.2,65.1h57.5c1.8,0,3.2-1.4,3.2-3.2v-2.3c0,1.8-1.4,3.2-3.2,3.2H3.2C1.4,62.8,0,61.4,0,59.6H0Z"/>
    <path class="st6" d="M3.2,0h57.5c1.8,0,3.2,1.4,3.2,3.2v57.6c0,1.8-1.4,3.2-3.2,3.2H3.2C1.4,63.9,0,62.5,0,60.7V3.2C0,1.4,1.4,0,3.2,0Z"/>
    <path class="st5" d="M3.2,0C1.4,0,0,1.4,0,3.2v1.1C0,2.6,1.4,1.1,3.2,1.1h57.5c1.8,0,3.2,1.4,3.2,3.2v-1.1c0-1.8-1.4-3.2-3.2-3.2H3.2Z"/>
    <g class="st3">
      <path d="M31.9,14.8c-3.8,0-6.8,3.1-6.8,6.9s.1,1,.2,1.5l-7.3,4.6c-1.2-.9-2.7-1.5-4.3-1.5-3.8,0-6.8,3.1-6.8,6.9s3.1,6.9,6.8,6.9,3.1-.6,4.3-1.5l7.3,4.6c-.1.5-.2,1-.2,1.5,0,3.8,3.1,6.9,6.8,6.9s6.8-3.1,6.8-6.9-3.1-6.9-6.8-6.9-3.1.6-4.3,1.5l-7.3-4.6c.1-.5.2-1,.2-1.5s-.1-1-.2-1.5l7.3-4.6c1.2.9,2.7,1.5,4.3,1.5,3.8,0,6.8-3.1,6.8-6.9s-3.1-6.9-6.8-6.9h0ZM47.9,14.8c-3.8,0-6.8,3.1-6.8,6.9s3.1,6.9,6.8,6.9,6.8-3.1,6.8-6.9-3.1-6.9-6.8-6.9ZM47.9,37.7c-3.8,0-6.8,3.1-6.8,6.9s3.1,6.9,6.8,6.9,6.8-3.1,6.8-6.9-3.1-6.9-6.8-6.9Z"/>
    </g>
    <g class="st2">
      <path class="st11" d="M31.9,13.7c-3.8,0-6.8,3.1-6.8,6.9s.1,1,.2,1.5l-7.3,4.6c-1.2-.9-2.7-1.5-4.3-1.5-3.8,0-6.8,3.1-6.8,6.9s3.1,6.9,6.8,6.9,3.1-.6,4.3-1.5l7.3,4.6c-.1.5-.2,1-.2,1.5,0,3.8,3.1,6.9,6.8,6.9s6.8-3.1,6.8-6.9-3.1-6.9-6.8-6.9-3.1.6-4.3,1.5l-7.3-4.6c.1-.5.2-1,.2-1.5s-.1-1-.2-1.5l7.3-4.6c1.2.9,2.7,1.5,4.3,1.5,3.8,0,6.8-3.1,6.8-6.9s-3.1-6.9-6.8-6.9h0ZM47.9,13.7c-3.8,0-6.8,3.1-6.8,6.9s3.1,6.9,6.8,6.9,6.8-3.1,6.8-6.9-3.1-6.9-6.8-6.9ZM47.9,36.5c-3.8,0-6.8,3.1-6.8,6.9s3.1,6.9,6.8,6.9,6.8-3.1,6.8-6.9-3.1-6.9-6.8-6.9Z"/>
    </g>
  </g>
</svg>