<?xml version="1.0" encoding="UTF-8"?>
<svg id="_图层_1" xmlns="http://www.w3.org/2000/svg" version="1.1" viewBox="0 0 64 64" width="16" height="16">
  <!-- Generator: Adobe Illustrator 29.0.1, SVG Export Plug-In . SVG Version: 2.1.0 Build 192)  -->
  <defs>
    <style>
      .st0 {
        fill: #4daf7c;
      }

      .st1, .st2, .st3, .st4 {
        isolation: isolate;
      }

      .st1, .st2, .st5, .st6 {
        display: none;
      }

      .st1, .st4 {
        opacity: .2;
      }

      .st2, .st7 {
        fill: #fff;
      }

      .st2, .st3 {
        opacity: .1;
      }

      .st8 {
        fill: #e3e3e3;
      }

      .st6 {
        fill: #4354cb;
      }

      .st9 {
        fill: #3ea0f4;
      }

      .st10 {
        fill: #5ed698;
      }
    </style>
  </defs>
  <path class="st6" d="M50.3,64H13.8c-7.6,0-13.8-6.2-13.8-13.7V13.7C0,6.2,6.2,0,13.7,0h36.5c7.5,0,13.7,6.2,13.7,13.7v36.6c0,7.5-6.2,13.7-13.7,13.7h0Z"/>
  <g class="st5">
    <ellipse class="st1" cx="32" cy="33" rx="32" ry="31.8"/>
    <ellipse class="st6" cx="32" cy="31.8" rx="32" ry="31.8"/>
    <ellipse class="st7" cx="32" cy="31.8" rx="16" ry="15.9"/>
    <path class="st3" d="M42.6,24.9c-3.4,0-7.9,1-12.3,2.6-4.3,1.7-8.3,4-10.9,6.3-1.4,1.3-2.1,2.3-2.5,3v.3c-.1,0,0,.4,0,.5,0-.1.5-.6.6-.7.4-.6,1-1.2,1.8-1.9,2.6-2.3,6.6-4.6,10.9-6.3,4.3-1.7,8.8-2.6,12.3-2.6s1.8,0,2.5.2c.8.1,1.4.4,2.1.8,0-.1,0-.2-.1-.3.1-.3.1-.5,0-.6-.1-.3-1.5-1.1-4.5-1.1ZM54.7,26c-.2,2.1-1.3,4.8-4.9,8-.7.6-1.4,1.2-2.2,1.8,0,.5-.2.9-.3,1.4.9-.6,1.7-1.3,2.5-2,4.3-3.8,5.1-7,4.9-9.1ZM9.2,38.9c0,1.1.1,2.1.4,2.7.7,1.9,3,5,10.5,5s2.2,0,3.4-.2c-.5-.3-1-.7-1.4-1-.7,0-1.3,0-2,0-7.5,0-9.8-3.2-10.5-5-.2-.4-.3-1-.4-1.6Z"/>
    <path class="st9" d="M43.9,18.2c-4.6,0-10.2,1.2-15.8,3.3-5.6,2.1-10.6,5-14,8.1-5.6,5-5.2,8.9-4.5,10.8s3,5,10.5,5,2.2,0,3.4-.2c-2.7-1.7-4.9-4.2-6.1-7.2-.3-.2-.5-.3-.5-.4-.1-.3.4-1.8,2.7-3.9,2.6-2.3,6.6-4.6,10.9-6.3,4.3-1.7,8.8-2.6,12.3-2.6,3.1,0,4.4.8,4.5,1.1,0,.1,0,.3,0,.6.6,1.6.9,3.4.9,5.2s-.2,2.8-.6,4.2c.9-.6,1.7-1.3,2.5-2,5.6-5,5.2-8.9,4.5-10.8-.7-1.9-3-5-10.5-5Z"/>
    <path class="st4" d="M47.9,32.2c-.2,8.7-7.3,15.6-16,15.6-6.6,0-12.5-4.1-14.9-10.2-.1-.3-.1-.2-.2-.5-.1.7.1,1.2.4,2.1.3.7.6,1.4.9,2,2.8,4.7,7.9,7.8,13.7,7.8,8.8,0,16-7.1,16-15.9,0-.3,0-.5,0-.8Z"/>
    <path class="st2" d="M32,0C14.3,0,0,14.3,0,31.8c0,.2,0,.4,0,.5C.4,15.1,14.5,1.2,32,1.1c17.3,0,31.5,13.7,31.9,31,0,0,0-.2,0-.3C63.9,14.3,49.6,0,32,0Z"/>
  </g>
  <g>
    <path class="st7" d="M12.7,0h38.3c6.3,0,13,6.9,13,13.3v38.6c0,6.3-7.5,12.2-13.8,12.2H13.2C6.8,63.9,0,57.7,0,51.4V12.7C-.1,6.3,6.3,0,12.7,0Z"/>
    <path class="st8" d="M44,64.1h-16.2c0,0-11.8-11.5-11.8-11.5l13.7-21.5c1.2-9.8,1.1-9.6,9.1-12.7l11.3-.8c11,9.5,2.6,2,13.9,12v22.2c0,6.2-7.4,12.2-13.6,12.2h-6.3Z"/>
    <g>
      <path class="st0" d="M40,32h-5.3c-.2,0-.4,0-.6,0-.2,0-.4.1-.5.2-.5.2-.8.5-1.1.9-.3.4-.4.9-.4,1.4v7.6h-4c-.7,0-1.2.2-1.3.5s0,.8.6,1.3l8.2,7.8c.2.2.5.4.9.5s.7.2,1,.2.7,0,1-.2.6-.3.9-.5l8.2-7.8c.5-.5.7-.9.6-1.3s-.6-.5-1.3-.5h-4v-7.6c0-.7-.3-1.3-.8-1.8-.5-.5-1.2-.7-1.9-.7h0Z"/>
      <path class="st10" d="M29.8,9.7c-1-.2-1.9,0-2.7.7s-1.1,1.4-1.1,2.4v20.6c-.6-.2-1.3-.4-1.9-.5-.7-.1-1.3-.2-2-.2-1.6,0-3.1.3-4.5.9-1.4.6-2.6,1.3-3.6,2.3s-1.8,2.1-2.5,3.5c-.6,1.3-.9,2.7-.9,4.2s.3,2.9.9,4.2c.6,1.3,1.4,2.5,2.5,3.4,1,1,2.2,1.8,3.6,2.3,1.4.6,2.9.8,4.5.8s3.4-.4,5-1.1c1.6-.7,2.8-1.7,3.9-3l-5.2-4.9c-.8-.8-1.2-1.5-1.2-2.1s0-1.1.2-1.3c0-.3.4-.6.8-1.1.5-.4,1.3-.7,2.4-.7h1.9v-5.7c0-1,.3-2,1-2.8.7-.8,1.6-1.3,2.6-1.6v-8.2c3.7,0,6.5.5,8.4,1.4,1.9.9,3.2,2,3.9,3.4s1,2.8.8,4.4c-.2,1.5-.4,2.9-.9,4.1-.3,1-.4,1.5-.2,1.6s.6-.2,1.3-.9c4.5-4.7,6.6-8.6,6.3-11.7-.3-3.2-1.7-5.8-4.3-7.8-2.6-2-5.8-3.5-9.6-4.6-3.8-1-6.9-1.8-9.4-2.2h0Z"/>
    </g>
  </g>
</svg>