<?xml version="1.0" encoding="UTF-8"?>
<svg id="_图层_1" xmlns="http://www.w3.org/2000/svg" version="1.1" viewBox="0 0 64 64" width="16" height="16">
  <!-- Generator: Adobe Illustrator 29.0.1, SVG Export Plug-In . SVG Version: 2.1.0 Build 192)  -->
  <defs>
    <style>
      .st0 {
        fill: #fff;
      }

      .st1 {
        fill: #fa211e;
      }
    </style>
  </defs>
  <path class="st1" d="M47.5,64.1H13.8c-7.6,0-13.8-6.3-13.8-13.8V13.7C0,6.2,6.2,0,13.7,0h36.6c7.5,0,13.7,6.2,13.7,13.7v36.6c0,7.5-6.2,13.7-13.7,13.7h-2.9.1Z"/>
  <path class="st0" d="M12.2,44.2h-4.6l2.9-21.4c.2-1.5,1.4-2.5,2.8-2.5h4.6l-2.9,21.4c-.2,1.5-1.4,2.5-2.8,2.5M21.4,44.2h-4.6l3.9-29.6c.2-1.5,1.4-2.5,2.8-2.5h4.6l-3.9,29.6c-.2,1.5-1.4,2.5-2.8,2.5M30.7,44.2h-4.6l2.9-21.4c.2-1.5,1.4-2.5,2.8-2.5h4.6l-2.9,21.4c-.2,1.5-1.4,2.5-2.8,2.5M38.8,52.3h-4.6l3.9-29.6c.2-1.5,1.4-2.5,2.8-2.5h4.6l-3.9,29.6c-.2,1.5-1.4,2.5-2.8,2.5M49,44.1h-4.6l2.9-21.4c.2-1.5,1.4-2.5,2.8-2.5h4.6l-2.9,21.4c-.2,1.5-1.4,2.5-2.8,2.5"/>
</svg>