<?xml version="1.0" encoding="UTF-8" standalone="no"?>
<svg
   id="_图层_1"
   version="1.1"
   viewBox="0 0 64 64" width="16" height="16"
   sodipodi:docname="maxima.svg"
   xml:space="preserve"
   inkscape:version="1.4 (e7c3feb100, 2024-10-09)"
   xmlns:inkscape="http://www.inkscape.org/namespaces/inkscape"
   xmlns:sodipodi="http://sodipodi.sourceforge.net/DTD/sodipodi-0.dtd"
   xmlns="http://www.w3.org/2000/svg"
   xmlns:svg="http://www.w3.org/2000/svg"><sodipodi:namedview
     id="namedview26"
     pagecolor="#505050"
     bordercolor="#eeeeee"
     borderopacity="1"
     inkscape:showpageshadow="0"
     inkscape:pageopacity="0"
     inkscape:pagecheckerboard="0"
     inkscape:deskcolor="#505050"
     inkscape:zoom="10.6875"
     inkscape:cx="32"
     inkscape:cy="21.520468"
     inkscape:window-width="1920"
     inkscape:window-height="939"
     inkscape:window-x="0"
     inkscape:window-y="34"
     inkscape:window-maximized="1"
     inkscape:current-layer="_图层_1" /><!-- Generator: Adobe Illustrator 29.0.1, SVG Export Plug-In . SVG Version: 2.1.0 Build 192)  --><defs
     id="defs6"><style
       id="style1">
      .st0 {
        fill-opacity: .5;
      }

      .st0, .st1, .st2, .st3, .st4, .st5, .st6, .st7 {
        fill: #fff;
      }

      .st8 {
        fill: #133c9a;
      }

      .st2, .st9 {
        display: none;
      }

      .st3 {
        fill-opacity: .2;
      }

      .st4 {
        fill-opacity: .9;
      }

      .st10 {
        fill: #3370ff;
      }

      .st11 {
        fill: url(#_未命名的渐变_3);
      }

      .st12 {
        fill: url(#_未命名的渐变);
      }

      .st5 {
        fill-opacity: .3;
      }

      .st6 {
        fill-opacity: 0;
      }

      .st7 {
        fill-opacity: .7;
      }

      .st13 {
        fill: #00d6b9;
      }

      .st14 {
        fill: url(#_未命名的渐变_2);
      }
    </style><radialGradient
       id="_未命名的渐变"
       data-name="未命名的渐变"
       cx="123.9"
       cy="-40.2"
       fx="123.9"
       fy="-40.2"
       r="59.4"
       gradientTransform="translate(-26.8 25.5) scale(.6 -.7)"
       gradientUnits="userSpaceOnUse"><stop
         offset="0"
         stop-color="#db202e"
         id="stop1" /><stop
         offset="1"
         stop-color="#e01b24"
         id="stop2" /></radialGradient><radialGradient
       id="_未命名的渐变_2"
       data-name="未命名的渐变 2"
       cx="67.6"
       cy="26.8"
       fx="67.6"
       fy="26.8"
       r="105.2"
       gradientTransform="translate(-26.6 25.3) scale(.6 -.7)"
       gradientUnits="userSpaceOnUse"><stop
         offset="0"
         stop-color="#ffb648"
         id="stop3" /><stop
         offset="1"
         stop-color="#ff7800"
         stop-opacity="0"
         id="stop4" /></radialGradient><radialGradient
       id="_未命名的渐变_3"
       data-name="未命名的渐变 3"
       cx="61.7"
       cy="18.6"
       fx="61.7"
       fy="18.6"
       r="68"
       gradientTransform="translate(-26.8 25.8) scale(.6 -.7)"
       gradientUnits="userSpaceOnUse"><stop
         offset="0"
         stop-color="#c64600"
         id="stop5" /><stop
         offset="1"
         stop-color="#a51d2d"
         id="stop6" /></radialGradient></defs><path
     class="st1"
     d="M 47.5,64.1 H 13.8 C 6.2,64.1 0,57.8 0,50.3 V 13.7 C 0,6.2 6.2,0 13.7,0 H 50.3 C 57.8,0 64,6.2 64,13.7 V 50.3 C 64,57.8 57.8,64 50.3,64 h -2.9 0.1 z"
     id="path6"
     style="fill:#404b8b;fill-opacity:1"
     sodipodi:nodetypes="cssssssssccc" /><g
     transform="matrix(4.0116959,0,0,4.0116959,-0.04678363,-4157.6221)"
     id="g1"><path
       style="fill:#f26265"
       transform="translate(0,1036.3622)"
       d="m 4.5,3.999656 c -0.277,0 -0.5,0.223 -0.5,0.5 0,0.277 0.223,0.5 0.5,0.5 C 5,6 4,9 4.0703125,11 H 3.5 C 3.223,11 3,11.223 3,11.5 3,11.777 3.223,12 3.5,12 h 2 C 5.777,12 6,11.777 6,11.5 6,11.223 5.777,11 5.5,11 H 5.0488281 C 5.0250091,10.94922 5.0003171,10.90212 4.9765621,10.837891 4.9025811,10.454591 4.9297511,8.8483185 5.0214841,7.8512185 5.1865902,6.0569185 5.2777859,5.8895 5.5195309,6.036 c 0.166674,0.101 1.3760508,3.6004895 1.7734376,4.79399 0.05682,0.170709 0.1176216,0.207874 0.1760112,0.182552 C 8.4584799,9.4683359 9.067239,7.7206713 9.973,6.088 10.184494,5.8561001 10.209973,6.1650716 10.527344,8.1031716 10.73536,9.373553 10.792485,10.776301 10.732422,11 H 10.5 c -0.277,0 -0.5,0.223 -0.5,0.5 0,0.277 0.223,0.5 0.5,0.5 h 2 C 12.777,12 13,11.777 13,11.5 13,11.223 12.777,11 12.5,11 h -0.412109 c -0.011,-0.02877 -0.01942,-0.03713 -0.0332,-0.07031 -0.376413,-1.119403 -0.94359,-5.3483465 -0.808597,-5.8753465 0.01064,-0.022711 0.01023,-0.034564 0.01758,-0.054687 h 0.236328 c 0.277,0 0.5,-0.223 0.5,-0.5 0,-0.277 -0.223,-0.5 -0.5,-0.5 h -2 c -0.277,0 -0.5,0.223 -0.5,0.5 0,0.277 0.223,0.5 0.5,0.5 h 0.125 C 9.6040376,5.1087061 9.5386343,5.2171341 9.4882812,5.3375466 9.0410397,6.1002285 8.3858214,7.3970213 7.9414062,8 7.7620866,7.981 7.1662865,6.6526404 6.7773438,5.8961404 6.6305648,5.5508404 6.5344018,5.4440779 6.4453125,5.2320779 6.3842289,5.1365656 6.3601371,5.0648486 6.3457031,4.999656 H 6.5 c 0.277,0 0.5,-0.223 0.5,-0.5 0,-0.277 -0.223,-0.5 -0.5,-0.5 z"
       id="path1" /></g></svg>
