<?xml version="1.0" encoding="UTF-8" standalone="no"?>
<svg
   id="_图层_1"
   version="1.1"
   viewBox="0 0 64 64"
   width="16" height="16"
   sodipodi:docname="maxthon-browser.svg"
   xml:space="preserve"
   inkscape:version="1.4 (e7c3feb100, 2024-10-09)"
   xmlns:inkscape="http://www.inkscape.org/namespaces/inkscape"
   xmlns:sodipodi="http://sodipodi.sourceforge.net/DTD/sodipodi-0.dtd"
   xmlns="http://www.w3.org/2000/svg"
   xmlns:svg="http://www.w3.org/2000/svg"><sodipodi:namedview
     id="namedview26"
     pagecolor="#505050"
     bordercolor="#eeeeee"
     borderopacity="1"
     inkscape:showpageshadow="0"
     inkscape:pageopacity="0"
     inkscape:pagecheckerboard="0"
     inkscape:deskcolor="#505050"
     inkscape:zoom="10.6875"
     inkscape:cx="32.654971"
     inkscape:cy="40.140351"
     inkscape:window-width="1920"
     inkscape:window-height="939"
     inkscape:window-x="0"
     inkscape:window-y="34"
     inkscape:window-maximized="1"
     inkscape:current-layer="_图层_1" /><!-- Generator: Adobe Illustrator 29.0.1, SVG Export Plug-In . SVG Version: 2.1.0 Build 192)  --><defs
     id="defs6"><style
       id="style1">
      .st0 {
        fill-opacity: .5;
      }

      .st0, .st1, .st2, .st3, .st4, .st5, .st6, .st7 {
        fill: #fff;
      }

      .st8 {
        fill: #133c9a;
      }

      .st2, .st9 {
        display: none;
      }

      .st3 {
        fill-opacity: .2;
      }

      .st4 {
        fill-opacity: .9;
      }

      .st10 {
        fill: #3370ff;
      }

      .st11 {
        fill: url(#_未命名的渐变_3);
      }

      .st12 {
        fill: url(#_未命名的渐变);
      }

      .st5 {
        fill-opacity: .3;
      }

      .st6 {
        fill-opacity: 0;
      }

      .st7 {
        fill-opacity: .7;
      }

      .st13 {
        fill: #00d6b9;
      }

      .st14 {
        fill: url(#_未命名的渐变_2);
      }
    </style><radialGradient
       id="_未命名的渐变"
       data-name="未命名的渐变"
       cx="123.9"
       cy="-40.2"
       fx="123.9"
       fy="-40.2"
       r="59.4"
       gradientTransform="translate(-26.8 25.5) scale(.6 -.7)"
       gradientUnits="userSpaceOnUse"><stop
         offset="0"
         stop-color="#db202e"
         id="stop1" /><stop
         offset="1"
         stop-color="#e01b24"
         id="stop2" /></radialGradient><radialGradient
       id="_未命名的渐变_2"
       data-name="未命名的渐变 2"
       cx="67.6"
       cy="26.8"
       fx="67.6"
       fy="26.8"
       r="105.2"
       gradientTransform="translate(-26.6 25.3) scale(.6 -.7)"
       gradientUnits="userSpaceOnUse"><stop
         offset="0"
         stop-color="#ffb648"
         id="stop3" /><stop
         offset="1"
         stop-color="#ff7800"
         stop-opacity="0"
         id="stop4" /></radialGradient><radialGradient
       id="_未命名的渐变_3"
       data-name="未命名的渐变 3"
       cx="61.7"
       cy="18.6"
       fx="61.7"
       fy="18.6"
       r="68"
       gradientTransform="translate(-26.8 25.8) scale(.6 -.7)"
       gradientUnits="userSpaceOnUse"><stop
         offset="0"
         stop-color="#c64600"
         id="stop5" /><stop
         offset="1"
         stop-color="#a51d2d"
         id="stop6" /></radialGradient></defs><path
     class="st1"
     d="M47.5,64.1H13.8c-7.6,0-13.8-6.3-13.8-13.8V13.7C0,6.2,6.2,0,13.7,0h36.6c7.5,0,13.7,6.2,13.7,13.7v36.6c0,7.5-6.2,13.7-13.7,13.7h-2.9.1Z"
     id="path6"
     style="fill:#0080f5;fill-opacity:1" /><g
     id="g26"
     transform="matrix(0.0267675,0,0,0.02672852,-0.36953326,-5.7890896)"><path
       fill="#ffffff"
       d="m 1381,1600 a 720,720 0 0 0 -365,15 v -360 h 364 v 345 z m 188,70 V 1067 H 828 l -2,638 H 462 V 692 h 1103 c 0,0 369,2 369,356 v 656 h -308 l -58,-34"
       id="path2" /><path
       fill="#a6d3fc"
       d="M 486.4932,2611.5607 C 158.01419,2601.4206 88,2277.5607 88,2277.5607 c 45.79293,-19.3726 94.42386,-31.1926 144,-35 l 39,-2 c 44.99204,-0.8208 89.84468,5.2495 133,18 -3,12 0,0 0,0 v -3 c -17.097,-22.9129 -38.49595,-42.2738 -63,-57 101.19296,-109.6771 256.09966,-151.9949 399,-109 -20,40 -36,88 -38,128 h 1 c 0,0 10,10 0,0 27.48329,-38.5691 59.36469,-73.8065 95,-105 h 1 l 53,-42 c 237.688,-173.5231 563.2275,-161.9557 788,28 -12.9873,25.2438 -22.4104,52.167 -28,80 l 2,4 c 0,0 7,8 0,0 23,-18 49,-30 71,-41 155.872,-65.9552 336.0927,1.7374 410,154 l 5,11 1,3 c 10,20 16,45 21,75 -12,2 0,1 0,1 h 3 c 15.4981,-29.1569 25.0175,-61.1151 28,-94 45.9561,-25.361 96.0792,-42.2945 148,-50 0,0 -55.2466,377.4393 -384.511,370.5007 -476.5598,-10.0426 -1429.9958,0 -1429.9958,0 0,0 0.16659,-0.4956 0,-0.5007 z"
       id="path3"
       sodipodi:nodetypes="scccccccccccccccccccccccccccscs" /></g></svg>
