<?xml version="1.0" encoding="UTF-8" standalone="no"?>
<svg
   id="_图层_1"
   version="1.1"
   viewBox="0 0 64 64" width="16" height="16"
   sodipodi:docname="mintsources-maintenance.svg"
   xml:space="preserve"
   inkscape:version="1.4 (e7c3feb100, 2024-10-09)"
   xmlns:inkscape="http://www.inkscape.org/namespaces/inkscape"
   xmlns:sodipodi="http://sodipodi.sourceforge.net/DTD/sodipodi-0.dtd"
   xmlns="http://www.w3.org/2000/svg"
   xmlns:svg="http://www.w3.org/2000/svg"><sodipodi:namedview
     id="namedview26"
     pagecolor="#505050"
     bordercolor="#eeeeee"
     borderopacity="1"
     inkscape:showpageshadow="0"
     inkscape:pageopacity="0"
     inkscape:pagecheckerboard="0"
     inkscape:deskcolor="#505050"
     inkscape:zoom="10.6875"
     inkscape:cx="32"
     inkscape:cy="32"
     inkscape:window-width="1920"
     inkscape:window-height="939"
     inkscape:window-x="0"
     inkscape:window-y="34"
     inkscape:window-maximized="1"
     inkscape:current-layer="_图层_1" /><!-- Generator: Adobe Illustrator 29.0.1, SVG Export Plug-In . SVG Version: 2.1.0 Build 192)  --><defs
     id="defs6"><style
       id="style1">
      .st0 {
        fill-opacity: .5;
      }

      .st0, .st1, .st2, .st3, .st4, .st5, .st6, .st7 {
        fill: #fff;
      }

      .st8 {
        fill: #133c9a;
      }

      .st2, .st9 {
        display: none;
      }

      .st3 {
        fill-opacity: .2;
      }

      .st4 {
        fill-opacity: .9;
      }

      .st10 {
        fill: #3370ff;
      }

      .st11 {
        fill: url(#_未命名的渐变_3);
      }

      .st12 {
        fill: url(#_未命名的渐变);
      }

      .st5 {
        fill-opacity: .3;
      }

      .st6 {
        fill-opacity: 0;
      }

      .st7 {
        fill-opacity: .7;
      }

      .st13 {
        fill: #00d6b9;
      }

      .st14 {
        fill: url(#_未命名的渐变_2);
      }
    </style><radialGradient
       id="_未命名的渐变"
       data-name="未命名的渐变"
       cx="123.9"
       cy="-40.2"
       fx="123.9"
       fy="-40.2"
       r="59.4"
       gradientTransform="translate(-26.8 25.5) scale(.6 -.7)"
       gradientUnits="userSpaceOnUse"><stop
         offset="0"
         stop-color="#db202e"
         id="stop1" /><stop
         offset="1"
         stop-color="#e01b24"
         id="stop2" /></radialGradient><radialGradient
       id="_未命名的渐变_2"
       data-name="未命名的渐变 2"
       cx="67.6"
       cy="26.8"
       fx="67.6"
       fy="26.8"
       r="105.2"
       gradientTransform="translate(-26.6 25.3) scale(.6 -.7)"
       gradientUnits="userSpaceOnUse"><stop
         offset="0"
         stop-color="#ffb648"
         id="stop3" /><stop
         offset="1"
         stop-color="#ff7800"
         stop-opacity="0"
         id="stop4" /></radialGradient><radialGradient
       id="_未命名的渐变_3"
       data-name="未命名的渐变 3"
       cx="61.7"
       cy="18.6"
       fx="61.7"
       fy="18.6"
       r="68"
       gradientTransform="translate(-26.8 25.8) scale(.6 -.7)"
       gradientUnits="userSpaceOnUse"><stop
         offset="0"
         stop-color="#c64600"
         id="stop5" /><stop
         offset="1"
         stop-color="#a51d2d"
         id="stop6" /></radialGradient></defs><path
     class="st1"
     d="M47.5,64.1H13.8c-7.6,0-13.8-6.3-13.8-13.8V13.7C0,6.2,6.2,0,13.7,0h36.6c7.5,0,13.7,6.2,13.7,13.7v36.6c0,7.5-6.2,13.7-13.7,13.7h-2.9.1Z"
     id="path6"
     style="fill:#546e7a;fill-opacity:1" /><g
     id="g27"
     transform="matrix(2.8918339,0,0,2.7777778,8.5378438,10.619883)"><path
       style="fill:#e4e4e4"
       d="M 7.5996094,0 C 6.7132094,0 6,0.71320937 6,1.5996094 v 0.75 a 6,6 0 0 0 -1.8925781,1.09375 l -0.6503907,-0.375 C 2.6893865,2.6251594 1.7146844,2.8866517 1.2714844,3.6542969 L 0.87109375,4.3457031 C 0.42789375,5.1133483 0.68938635,6.08805 1.4570312,6.53125 l 0.6484376,0.375 A 6,6 0 0 0 2,8 6,6 0 0 0 2.1054688,9.09375 l -0.6484376,0.375 c -0.76764485,0.4432 -1.02913745,1.417902 -0.58593745,2.185547 l 0.40039065,0.691406 c 0.4432,0.767645 1.4179021,1.029138 2.1855468,0.585938 L 4.1035156,12.558594 A 6,6 0 0 0 6,13.648438 v 0.751953 C 6,15.286791 6.7132094,16 7.5996094,16 H 8.4003906 C 9.2867906,16 10,15.286791 10,14.400391 v -0.75586 a 6,6 0 0 0 1.892578,-1.08789 l 0.650391,0.375 c 0.767644,0.4432 1.742347,0.181707 2.185547,-0.585938 l 0.40039,-0.691406 c 0.4432,-0.767645 0.181707,-1.742347 -0.585937,-2.185547 l -0.648438,-0.375 A 6,6 0 0 0 14,8 6,6 0 0 0 13.894531,6.90625 l 0.648438,-0.375 c 0.767644,-0.4432 1.029137,-1.4179017 0.585937,-2.1855469 L 14.728516,3.6542969 C 14.285316,2.8866517 13.310613,2.6251594 12.542969,3.0683594 L 11.896484,3.4414062 A 6,6 0 0 0 10,2.3515625 V 1.5996094 C 10,0.71320938 9.2867906,0 8.4003906,0 Z"
       id="path1-3" /><path
       style="fill:#546e7a"
       d="m 8,5 c 1.65675,0 3,1.343175 3,3 0,1.65675 -1.34325,3 -3,3 C 6.343175,11 5,9.65675 5,8 5,6.343175 6.343175,5 8,5 Z"
       id="path2" /></g></svg>
