<?xml version="1.0" encoding="UTF-8"?>
<svg id="_图层_1" xmlns="http://www.w3.org/2000/svg" version="1.1" viewBox="0 0 64 64" width="16" height="16">
  <!-- Generator: Adobe Illustrator 29.0.1, SVG Export Plug-In . SVG Version: 2.1.0 Build 192)  -->
  <defs>
    <style>
      .st0 {
        fill: #995d27;
      }

      .st1 {
        fill: #4f4f4f;
      }

      .st2 {
        fill: #9c9c9c;
      }

      .st3, .st4, .st5, .st6, .st7, .st8 {
        isolation: isolate;
      }

      .st3, .st4, .st9, .st7 {
        display: none;
      }

      .st3, .st10, .st5, .st6, .st7 {
        opacity: .2;
      }

      .st4, .st11, .st6, .st7, .st8 {
        fill: #fff;
      }

      .st4, .st8 {
        opacity: .1;
      }

      .st12 {
        fill: #57c2ff;
      }

      .st13 {
        fill: #a45390;
      }

      .st14 {
        fill: #ff9632;
      }

      .st15 {
        fill: #686868;
      }

      .st16 {
        fill: #6db832;
      }

      .st17 {
        fill: #c2352a;
      }

      .st18 {
        fill: #4987d7;
      }

      .st19 {
        fill: #e4e4e4;
      }

      .st20 {
        fill: #323232;
      }

      .st21 {
        fill: #fa4b8c;
      }
    </style>
  </defs>
  <path class="st11" d="M50.3,64H13.8c-7.6,0-13.8-6.2-13.8-13.7V13.7C0,6.2,6.2,0,13.7,0h36.5c7.5,0,13.7,6.2,13.7,13.7v36.6c0,7.5-6.2,13.7-13.7,13.7h0Z"/>
  <g class="st9">
    <path class="st3" d="M0,59.5v2.3c0,1.9,1.5,3.4,3.4,3.4h57.4c1.9,0,3.4-1.5,3.4-3.4v-2.3c0,1.9-1.5,3.4-3.4,3.4H3.4C1.5,63,0,61.4,0,59.5Z"/>
    <path class="st18" d="M3.2-.1C2.3-.1,1.5.3.9.8l31.2,31.2L63.3.8c-.6-.6-1.4-.9-2.3-.9H3.2h0Z"/>
    <path class="st13" d="M3.2,64.1c-.9,0-1.7-.4-2.3-.9l31.2-31.2,31.2,31.2c-.6.6-1.4.9-2.3.9H3.2h0Z"/>
    <path class="st16" d="M64.2,3.1c0-.9-.4-1.7-.9-2.3l-31.2,31.2,31.2,31.2c.6-.6.9-1.4.9-2.3V3.1h0Z"/>
    <path class="st17" d="M0,3.1C0,2.2.4,1.4.9.8l31.2,31.2L.9,63.2c-.6-.6-.9-1.4-.9-2.3V3.1h0Z"/>
    <path class="st5" d="M35,5.6c-1.4,0-2.5.2-3.6.5-1,.3-1.9.8-2.6,1.3-.7.6-1.3,1.2-1.8,2-.5.8-.8,1.3-1.1,2.1-.3.9-.5,1.8-.6,2.8-.1,1-.2,1.9-.2,2.9h0c0,1.5.2,2.9.5,4,.4,1.1.9,2,1.5,2.8.7.7,1.4,1.3,2.3,1.7.9.4,1.8.5,2.8.5s2-.2,2.8-.5c.8-.3,1.5-.8,2.1-1.4.6-.6,1-1.4,1.3-2.2.3-.9.5-1.9.5-3s-.1-2-.4-2.8c-.3-.8-.6-1.6-1.1-2.1-.5-.6-1.1-1-1.8-1.3-.7-.3-1.5-.4-2.4-.4s-1.1,0-1.5.2c-.4.1-.8.3-1.2.5-.4.2-.7.6-.9.9-.3.3-.5.6-.7.9h-.2c0-1,.2-1.8.4-2.6.2-.8.5-1.1,1-1.7.5-.6,1.1-1,1.9-1.3.8-.3,1.8-.5,3.1-.5s.8,0,1.2,0c.4,0,.8.1,1.1.2v-3.5c-.2,0-.4,0-.6,0-.2,0-.5,0-.7,0-.2,0-.5,0-.7,0s-.4,0-.6,0ZM32.4,16c.8,0,1.5.3,1.9.9.4.6.6,1.4.6,2.4s0,1.1-.2,1.6c-.1.4-.3.8-.5,1.1-.2.3-.5.5-.8.7-.3.1-.7.2-1,.2s-.9-.1-1.2-.4c-.3-.2-.6-.5-.9-.9-.2-.4-.4-.8-.5-1.3-.1-.5-.2-1-.2-1.4s0-.7.2-1c.1-.3.3-.6.6-.9.3-.3.6-.5.9-.7.4-.2.7-.3,1.2-.3ZM47,24v10.3l1,.9c.2,0,.4-.1.6-.2.2,0,.5-.1.8-.2.3,0,.5,0,.8-.1.3,0,.5,0,.8,0,1.3,0,2.3.3,3,.8.6.5,1,1.3,1,2.3s-.3,2-1,2.5c-.7.5-1.6.8-2.9.8s-.9,0-1.3,0c-.5,0-.9-.2-1.4-.3-.5-.1-.9-.3-1.3-.4-.4-.2-.8-.3-1.1-.5v3.7c.3.2.7.3,1.1.5.4.1.9.3,1.3.3.5,0,1,.2,1.5.2.5,0,1,0,1.5,0,1.3,0,2.4-.2,3.4-.5,1-.3,1.8-.8,2.5-1.4.7-.6,1.2-1.4,1.5-2.2.3-.9.5-1.9.5-3s-.2-1.9-.5-2.7c-.3-.8-.8-1.4-1.3-2-.6-.5-1.2-.9-2-1.2-.8-.3-1.6-.4-2.5-.4h0c-.6,0-1.1,0-1.5.1-.4,0-.7.1-1,.2l.3-4.1h6.5v-3.4h-10.3ZM11.5,24.1c-.8,0-1.6,0-2.2.3-.7.2-1.3.4-1.8.6-.6.3-1.1.6-1.5.9-.5.3-.9.5-1.3.9l2.4,2.8c.7-.7,1.5-1.2,2.1-1.6.7-.4,1.4-.5,2.1-.5s1.3.2,1.7.6c.4.4.6.9.6,1.6s0,1.2-.3,1.7c-.2.5-.5,1.1-.8,1.6-.4.5-.8,1.1-1.3,1.6-.5.6-1,1.2-1.7,1.8l-4.8,5.4v2.8h13.7v-3.4h-8.3v-.2l2.5-2.7c.7-.7,1.4-1.4,2-2.1.6-.7,1.2-1.4,1.7-2.1.5-.7.9-1.4,1.1-2.2.3-.7.4-1.5.4-2.3s-.1-1.7-.4-2.4c-.3-.7-.7-1.1-1.3-1.6-.6-.5-1.2-.9-2-1.2-.8-.3-1.7-.4-2.6-.4ZM25.2,42.5v3.2h9.4l-7.3,17.2h4.5l7.1-17.7v-2.7h-13.8Z"/>
    <path class="st11" d="M35,4.5c-1.4,0-2.5.2-3.6.5-1,.3-1.9.8-2.6,1.3-.7.6-1.3,1.2-1.8,2-.5.8-.8,1.3-1.1,2.1-.3.9-.5,1.8-.6,2.8-.1,1-.2,1.9-.2,2.9h0c0,1.5.2,2.9.5,4,.4,1.1.9,2,1.5,2.8.7.7,1.4,1.3,2.3,1.7.9.4,1.8.5,2.8.5s2-.2,2.8-.5c.8-.3,1.5-.8,2.1-1.4.6-.6,1-1.4,1.3-2.2.3-.9.5-1.9.5-3s-.1-2-.4-2.8c-.3-.8-.6-1.6-1.1-2.1-.5-.6-1.1-1-1.8-1.3-.7-.3-1.5-.4-2.4-.4s-1.1,0-1.5.2c-.4.1-.8.3-1.2.5-.4.2-.7.6-.9.9-.3.3-.5.6-.7.9h-.2c0-1,.2-1.8.4-2.6.2-.8.5-1.1,1-1.7.5-.6,1.1-1,1.9-1.3.8-.3,1.8-.5,3.1-.5s.8,0,1.2,0c.4,0,.8.1,1.1.2v-3.5c-.2,0-.4,0-.6,0-.2,0-.5,0-.7,0-.2,0-.5,0-.7,0s-.4,0-.6,0ZM32.4,14.9c.8,0,1.5.3,1.9.9.4.6.6,1.4.6,2.4s0,1.1-.2,1.6c-.1.4-.3.8-.5,1.1-.2.3-.5.5-.8.7-.3.1-.7.2-1,.2s-.9-.1-1.2-.4c-.3-.2-.6-.5-.9-.9-.2-.4-.4-.8-.5-1.3-.1-.5-.2-1-.2-1.4s0-.7.2-1c.1-.3.3-.6.6-.9.3-.3.6-.5.9-.7.4-.2.7-.3,1.2-.3ZM47,22.8v10.3l1,.9c.2,0,.4-.1.6-.2.2,0,.5-.1.8-.2.3,0,.5,0,.8-.1.3,0,.5,0,.8,0,1.3,0,2.3.3,3,.8.6.5,1,1.3,1,2.3s-.3,2-1,2.5c-.7.5-1.6.8-2.9.8s-.9,0-1.3,0c-.5,0-.9-.2-1.4-.3-.5-.1-.9-.3-1.3-.4-.4-.2-.8-.3-1.1-.5v3.7c.3.2.7.3,1.1.5.4.1.9.3,1.3.3.5,0,1,.2,1.5.2.5,0,1,0,1.5,0,1.3,0,2.4-.2,3.4-.5,1-.3,1.8-.8,2.5-1.4.7-.6,1.2-1.4,1.5-2.2.3-.9.5-1.9.5-3s-.2-1.9-.5-2.7c-.3-.8-.8-1.4-1.3-2-.6-.5-1.2-.9-2-1.2-.8-.3-1.6-.4-2.5-.4h0c-.6,0-1.1,0-1.5.1-.4,0-.7.1-1,.2l.3-4.1h6.5v-3.4h-10.3ZM11.5,22.9c-.8,0-1.6,0-2.2.3-.7.2-1.3.4-1.8.6-.6.3-1.1.6-1.5.9-.5.3-.9.5-1.3.9l2.4,2.8c.7-.7,1.5-1.2,2.1-1.6.7-.4,1.4-.5,2.1-.5s1.3.2,1.7.6c.4.4.6.9.6,1.6s0,1.2-.3,1.7c-.2.5-.5,1.1-.8,1.6-.4.5-.8,1.1-1.3,1.6-.5.6-1,1.2-1.7,1.8l-4.8,5.4v2.8h13.7v-3.4h-8.3v-.2l2.5-2.7c.7-.7,1.4-1.4,2-2.1.6-.7,1.2-1.4,1.7-2.1.5-.7.9-1.4,1.1-2.2.3-.7.4-1.5.4-2.3s-.1-1.7-.4-2.4c-.3-.7-.7-1.1-1.3-1.6-.6-.5-1.2-.9-2-1.2-.8-.3-1.7-.4-2.6-.4ZM25.2,41.4v3.2h9.4l-7.3,17.2h4.5l7.1-17.7v-2.7h-13.8Z"/>
    <path class="st4" d="M3.4-.1C1.5-.1,0,1.4,0,3.3v1.1C0,2.6,1.5,1,3.4,1h57.4c1.9,0,3.4,1.5,3.4,3.4v-1.1c0-1.9-1.5-3.4-3.4-3.4H3.4Z"/>
  </g>
  <g class="st9">
    <path class="st5" d="M58.3,32.2c-.4,14-12.1,25.1-26.3,25.1-14.2,0-25.8-11-26.3-24.9,0,.3,0,.6,0,.9,0,14.3,11.8,25.8,26.4,25.8s26.4-11.6,26.4-25.8c0-.4,0-.7,0-1.1h0Z"/>
    <ellipse class="st21" cx="32" cy="32.3" rx="26.4" ry="25.8"/>
    <path class="st5" d="M27,7.8c-.7.1-1.3.3-2,.4-.8.2-1.7.5-2.5.8-.8.3-1.6.7-2.4,1.1-.8.4-1.5.8-2.3,1.3-.7.5-1.5,1-2.1,1.5-.7.5-1.3,1.1-2,1.7,0,0-.2.2-.2.3.5,3.4,3,7.4,5.7,10.7-1.4,2.3-2.2,5-2.2,7.7,0,.3,0,.6,0,.9-3.9-2.1-8-5.4-9.8-9.3,0,.2-.2.5-.3.7-.3.8-.5,1.7-.6,2.5-.2.8-.3,1.7-.4,2.5,0,.8-.1,1.7-.1,2.5.2,2.4.7,4.7,1.5,6.9,3.2,1,7.7,1,11.7.3,1.5,2.6,3.7,4.7,6.5,6.1-3.3,2-7.5,3.6-11.4,3.7,3.6,3.3,8,5.5,12.7,6.5,2.1-2.3,3.9-5.5,5.1-8.7,0,0,.1,0,.2,0,3,0,5.9-.9,8.4-2.5,0,3.6-.5,7.7-2.1,11,4.5-1.1,8.7-3.3,12-6.4-.9-3-3-6.4-5.3-9.2,1.4-2.2,2.1-4.8,2.1-7.4,0-.3,0-.7,0-1,3.7,2,7.5,5,9.5,8.6,1.1-2.7,1.7-5.6,1.8-8.5,0-.3,0-.7,0-1,0-.9-.2-1.7-.3-2.6-.1-.8-.3-1.5-.5-2.3-3.9-1.4-8.6-1.1-12.3-.5-1.5-2.6-3.7-4.7-6.5-6,3.8-2.3,8.8-4.1,13.2-3.7-.3-.4-.6-.7-.9-1.1-.6-.6-1.2-1.2-1.9-1.8-.7-.6-1.4-1.1-2.1-1.6-.7-.5-1.5-.9-2.2-1.4-.8-.4-1.6-.8-2.4-1.1-.8-.3-1.6-.6-2.5-.9-.3,0-.6-.2-.9-.2-2.7,2.1-5.1,6.3-6.6,10.1,0,0-.2-.1-.2-.2-3,0-5.9.9-8.3,2.5-.1-4.4.8-9.5,3.3-13v-.2Z"/>
    <path class="st11" d="M27,6.9c-.7.1-1.3.3-2,.4-.8.2-1.7.5-2.5.8-.8.3-1.6.7-2.4,1.1-.8.4-1.5.8-2.3,1.3-.7.5-1.5,1-2.1,1.5-.7.5-1.3,1.1-2,1.7,0,0-.2.2-.2.3.5,3.4,3,7.4,5.7,10.7-1.4,2.3-2.2,5-2.2,7.7,0,.3,0,.6,0,.9-3.9-2.1-8-5.4-9.8-9.3,0,.2-.2.5-.3.7-.3.8-.5,1.7-.6,2.5-.2.8-.3,1.7-.4,2.5,0,.9-.1,1.7-.1,2.6,0,.6,0,1.2,0,1.8,0,.9.2,1.7.3,2.6.1.8.3,1.5.5,2.3,3.2,1.3,8.1,1.2,12.3.5,1.5,2.6,3.7,4.7,6.5,6.1-3.8,2.3-8.8,4.1-13.1,3.7.3.4.6.7.9,1.1.6.6,1.3,1.2,1.9,1.8.7.6,1.4,1.1,2.1,1.6.7.5,1.5.9,2.2,1.3.8.4,1.6.8,2.4,1.1.8.3,1.6.6,2.5.9.3,0,.6.2,1,.2,2.7-2.1,5.1-6.2,6.6-10.1,0,0,.1,0,.2,0,3,0,5.9-.9,8.4-2.5.1,4.4-.8,9.5-3.3,13,.7-.1,1.3-.3,2-.4.8-.2,1.7-.5,2.5-.8.8-.3,1.6-.7,2.4-1.1.8-.4,1.5-.8,2.3-1.3.7-.5,1.5-1,2.1-1.5.7-.5,1.4-1.1,2-1.7,0,0,.2-.2.2-.3-.5-3.4-3-7.4-5.7-10.7,1.4-2.3,2.1-4.9,2.1-7.6,0-.3,0-.7,0-1,4,2.1,8,5.4,9.9,9.3,0-.2.2-.5.3-.7.3-.8.5-1.7.7-2.5.2-.8.3-1.7.4-2.6,0-.9.1-1.7.1-2.6,0-.6,0-1.2,0-1.8,0-.9-.2-1.7-.3-2.6-.1-.8-.3-1.5-.5-2.3-3.9-1.4-8.6-1.1-12.3-.5-1.5-2.6-3.7-4.7-6.5-6,3.8-2.3,8.8-4.1,13.2-3.7-.3-.4-.6-.7-.9-1.1-.6-.6-1.2-1.2-1.9-1.8-.7-.6-1.4-1.1-2.1-1.6-.7-.5-1.5-.9-2.2-1.4-.8-.4-1.6-.8-2.4-1.1-.8-.3-1.6-.6-2.5-.9-.3,0-.6-.2-.9-.2-2.7,2.1-5.1,6.3-6.6,10.1,0,0-.2,0-.2,0-3,0-5.9.9-8.3,2.5-.1-4.4.8-9.5,3.3-13v-.2Z"/>
    <path class="st21" d="M27.2,25c-.5,0-.8.4-.8.8v13.1c0,.6.7,1,1.2.7l5.8-3.3,5.8-3.3c.5-.3.5-1.1,0-1.4l-5.8-3.3-5.8-3.3c-.1,0-.3-.1-.4-.1h0Z"/>
    <path class="st6" d="M32,6.5h0c-14.6,0-26.4,11.6-26.4,25.9,0,.2,0,.3,0,.5.3-14.1,12-25.4,26.4-25.4h0c14.4,0,26.1,11.3,26.4,25.3,0-.1,0-.3,0-.4,0-14.3-11.8-25.8-26.4-25.8,0,0,0,0,0,0Z"/>
  </g>
  <g class="st9">
    <path class="st3" d="M24,1.1C10.7,1.1,0,11.8,0,25.1v16c0,13.3,10.7,23.9,23.9,23.9h16c13.3,0,23.9-10.7,23.9-23.9v-16c0-13.3-10.7-23.9-23.9-23.9h-16Z"/>
    <path class="st7" d="M24,0C10.7,0,0,10.7,0,23.9v1.1C0,11.8,10.7,1.1,24,1.1h16c13.3,0,23.9,10.7,23.9,23.9v-1.1C63.9,10.7,53.2,0,40,0h-16Z"/>
    <path class="st5" d="M9.3,1.2C5.6,1.2-.2,8,0,13.1v16.8c1.5,3.7,3.7,7.2,6.6,10.3,3.4,3.6,8.5,6.6,13.7,7.7,5.2,1.1,11.1.3,15.3-3.6,1.4-1.3,2.6-3.3,3-5.4.4-2,0-4.1-1.6-5.7-.5-.5-1.8-.9-2.6-1-.8-.1-1.9-.1-2.5.5.6.6,1.1,1.5,1,2.2-.1.8-.6,1.5-1.1,2.1-1.6,1.6-3.8,2.7-5.9,2.3-2.1-.4-4.2-1.6-5.6-2.9-3-3-4.4-7.5-4.3-11.3,0-1.3.2-2.6.5-3.8,1.1-5.1,4.4-11.5,8.1-14.8,2.3-2.1,5-3.8,7.7-5.2H9.3ZM32,32.6c-.6-.6-1.1-1.5-1-2.2.1-.8.6-1.5,1.1-2.1,1.6-1.6,3.8-2.7,5.9-2.3,2.1.4,4.2,1.6,5.6,2.9,3,3,4.4,7.5,4.3,11.3,0,1.3-.2,2.6-.5,3.8-1.1,5.1-4.4,11.5-8.1,14.8-2.3,2.1-5,3.8-7.7,5.2h19.1c8.8,0,13.2-8.9,13.2-13.7v-15c-1.5-3.7-3.7-7.2-6.6-10.3-3.4-3.6-8.5-6.6-13.7-7.7-5.2-1.1-11.1-.3-15.3,3.6-1.4,1.3-2.6,3.3-3,5.4-.4,2,0,4.1,1.6,5.7.5.5,1.8.9,2.6,1,.8.1,1.9.1,2.5-.5Z"/>
    <path class="st14" d="M13.7-.1C7.6-.1,0,5,0,13.3v15.9c1.5,3.8,3.7,7.3,6.6,10.4,3.4,3.6,8.5,6.7,13.7,7.8,5.2,1.1,11.1.3,15.3-3.7,1.4-1.4,2.6-3.4,3-5.5.4-2.1,0-4.2-1.6-5.8-.5-.5-1.8-.9-2.6-1.1-.8-.1-1.9-.1-2.5.5.6.6,1.1,1.5,1,2.3-.1.8-.6,1.6-1.1,2.1-1.6,1.7-3.8,2.8-5.9,2.4-2.1-.4-4.2-1.6-5.6-3-3-3.1-4.4-7.6-4.3-11.5,0-1.3.2-2.6.5-3.9,1.1-5.2,4.4-11.6,8.1-15,2.3-2.2,5-3.9,7.7-5.2H13.7ZM32,31.9c-.6-.6-1.1-1.5-1-2.3.1-.8.6-1.6,1.1-2.1,1.6-1.7,3.8-2.8,5.9-2.4,2.1.4,4.2,1.6,5.6,3,3,3.1,4.4,7.6,4.3,11.5,0,1.3-.2,2.6-.5,3.9-1.1,5.2-4.4,11.6-8.1,15-2.3,2.2-5,3.9-7.7,5.2h18.7c7.8.1,13.6-6.8,13.6-13.6v-15.6c-1.5-3.8-3.7-7.3-6.6-10.4-3.4-3.6-8.5-6.7-13.7-7.8-5.2-1.1-11.1-.3-15.3,3.7-1.4,1.4-2.6,3.4-3,5.5-.4,2.1,0,4.2,1.6,5.8.5.5,1.8.9,2.6,1.1.8.1,1.9.1,2.5-.5Z"/>
    <path class="st7" d="M5,0C2.3,0,0,2.2,0,4.9v1.1C0,3.3,2.3,1.1,5,1.1h25.2c.7-.4,1.4-.8,2.1-1.1H5ZM39.6,16c-4.1,0-8.1,1.1-11.2,4.1-1.4,1.4-2.6,3.4-3,5.5-.1.7-.2,1.4-.1,2.1,0-.3,0-.6.1-1,.4-2.1,1.6-4.1,3-5.5,4.1-4,10-4.8,15.3-3.7,5.2,1.1,10.3,4.2,13.7,7.8,2.9,3.1,5.1,6.6,6.6,10.4v-1.1c-1.5-3.8-3.7-7.3-6.6-10.4-3.4-3.6-8.5-6.7-13.7-7.8-1.3-.3-2.7-.4-4-.5ZM16.1,25c0,.1,0,.2,0,.3,0,3.9,1.3,8.5,4.3,11.5,1.4,1.4,3.5,2.6,5.6,3,2.1.4,4.3-.7,5.9-2.4.5-.5.9-1.3,1.1-2.1,0-.3,0-.6,0-.8-.2.7-.6,1.3-1,1.8-1.6,1.7-3.8,2.8-5.9,2.4-2.1-.4-4.2-1.6-5.6-3-2.8-2.9-4.2-7-4.3-10.7ZM31.1,30.5c0,.1,0,.2,0,.3,0,.5,0,1,.4,1.5.2,0,.4-.2.6-.4-.4-.4-.8-.9-.9-1.4ZM32,31.9c.2.2.4.5.6.8.6-.2,1.3-.2,1.9-.1.8.1,2,.6,2.6,1.1,1.1,1,1.6,2.3,1.7,3.7.1-1.8-.3-3.5-1.7-4.8-.5-.5-1.8-.9-2.6-1.1-.8-.1-1.9-.1-2.5.5ZM47.8,40c0,1.2-.2,2.4-.4,3.6-1.1,5.2-4.4,11.6-8.1,15-2.3,2.2-5,3.9-7.7,5.2h2.1c2-1.2,3.9-2.5,5.6-4.1,3.7-3.4,6.9-9.8,8.1-15,.3-1.3.4-2.6.5-3.9,0-.3,0-.5,0-.8Z"/>
  </g>
  <g class="st9">
    <path class="st5" d="M9.4,47.5v1.7c0,1.4,1.1,2.6,2.5,2.6h41.2c1.4,0,2.5-1.1,2.5-2.6v-1.7c0,1.4-1.1,2.6-2.5,2.6H11.9c-1.4,0-2.5-1.1-2.5-2.6Z"/>
    <path class="st0" d="M55.6,48.4V15.8c0-1.4-1.1-2.6-2.5-2.6H11.9c-1.4,0-2.5,1.2-2.5,2.6v32.6c0,1.4,1.1,2.6,2.5,2.6h41.2c1.4,0,2.5-1.2,2.5-2.6Z"/>
    <path class="st8" d="M11.9,13.2c-1.4,0-2.5,1.1-2.5,2.6v.9c0-1.4,1.1-2.6,2.5-2.6h41.2c1.4,0,2.5,1.1,2.5,2.6v-.9c0-1.4-1.1-2.6-2.5-2.6H11.9Z"/>
    <path class="st5" d="M45.7,32.9c0-14.3-5.5-15.5-16.5-15.5s-16.5,1.2-16.5,15.5,5.5,15.5,16.5,15.5,16.5-1.2,16.5-15.5Z"/>
    <path class="st12" d="M45.7,32.1c0-14.3-5.5-15.5-16.5-15.5s-16.5,1.2-16.5,15.5,5.5,15.5,16.5,15.5,16.5-1.2,16.5-15.5Z"/>
    <path class="st20" d="M47.3,38.9v1.7h6.6v-1.7h-6.6Z"/>
    <path class="st20" d="M47.3,41.5v1.7h6.6v-1.7h-6.6Z"/>
    <path class="st20" d="M47.3,44.1v1.7h6.6v-1.7h-6.6Z"/>
    <g class="st10">
      <ellipse cx="50.6" cy="21.8" rx="3.3" ry="3.4"/>
      <ellipse cx="50.6" cy="30.4" rx="3.3" ry="3.4"/>
    </g>
    <ellipse class="st11" cx="50.6" cy="20.9" rx="3.3" ry="3.4"/>
    <ellipse class="st11" cx="50.6" cy="29.5" rx="3.3" ry="3.4"/>
    <path class="st6" d="M29.2,16.6c-11,0-16.5,1.2-16.5,15.5s0,.3,0,.4c.1-13.8,5.6-15,16.5-15s16.3,1.2,16.5,15c0-.1,0-.3,0-.4,0-14.3-5.5-15.5-16.5-15.5Z"/>
  </g>
  <g>
    <rect class="st5" x="12.6" y="51.2" width="38.7" height="5.4"/>
    <path class="st1" d="M26.2,34.2h11.6l5.8,21.5h-23.2l5.8-21.5Z"/>
    <path class="st2" d="M42.1,19.5l-2.5,3.5-2.5,3.5-2-3.3-2-3.3,4.5-.3,4.5-.3Z"/>
    <path class="st5" d="M46.5,38.2c-8.9,4.8-20.4,1.9-25.5-6.3-5.2-8.3-2.1-18.8,6.8-23.6l18.7,29.9Z"/>
    <path class="st15" d="M46.5,37.3c-8.9,4.8-20.4,1.9-25.5-6.3-5.2-8.3-2.1-18.8,6.8-23.6l18.7,29.9Z"/>
    <path class="st5" d="M45.2,18.6c.8,1.3.3,2.9-1.1,3.7s-3.2.3-4-1-.3-2.9,1.1-3.7,3.2-.3,4,1Z"/>
    <path class="st19" d="M45.2,17.7c.8,1.3.3,2.9-1.1,3.7s-3.2.3-4-1-.3-2.9,1.1-3.7,3.2-.3,4,1Z"/>
    <rect class="st1" x="12.6" y="50.3" width="38.7" height="5.4"/>
    <path class="st8" d="M27.8,7.4c-6.2,3.3-9.6,9.4-9.3,15.6,0-5.9,3.4-11.6,9.3-14.7l18.2,29.2c.1,0,.3-.1.4-.2L27.8,7.4Z"/>
  </g>
</svg>