<?xml version="1.0" encoding="UTF-8"?>
<svg id="_图层_1" xmlns="http://www.w3.org/2000/svg" version="1.1" xmlns:xlink="http://www.w3.org/1999/xlink" viewBox="0 0 200 200" width="16" height="16">
  <!-- Generator: Adobe Illustrator 29.0.1, SVG Export Plug-In . SVG Version: 2.1.0 Build 192)  -->
  <defs>
    <style>
      .st0 {
        mask: url(#mask-1);
      }

      .st1, .st2, .st3, .st4, .st5, .st6 {
        display: none;
      }

      .st1, .st2, .st7, .st8 {
        isolation: isolate;
      }

      .st1, .st9, .st8 {
        opacity: .2;
      }

      .st2 {
        opacity: .1;
      }

      .st2, .st10, .st11 {
        fill: #fff;
      }

      .st3 {
        fill: #a448ba;
      }

      .st12 {
        mask: url(#mask);
      }

      .st11, .st13, .st14, .st15 {
        fill-rule: evenodd;
      }

      .st16 {
        fill: none;
      }

      .st4 {
        fill: url(#_未命名的渐变_16);
      }

      .st17 {
        clip-path: url(#clippath-1);
      }

      .st18 {
        fill: #691f69;
      }

      .st19 {
        fill: #8d348e;
      }

      .st20 {
        fill: url(#_未命名的渐变_13);
      }

      .st13 {
        fill: #12121c;
      }

      .st14 {
        fill: #c0bfbc;
      }

      .st7 {
        opacity: .3;
      }

      .st21 {
        fill-opacity: .1;
      }

      .st22 {
        clip-path: url(#clippath);
      }

      .st6 {
        fill: url(#_未命名的渐变_14);
      }
    </style>
    <linearGradient id="_未命名的渐变_14" data-name="未命名的渐变 14" x1="305.9" y1="-98.4" x2="305.9" y2="-297.4" gradientTransform="translate(-206 -96) scale(1 -1)" gradientUnits="userSpaceOnUse">
      <stop offset="0" stop-color="#edece9"/>
      <stop offset="1" stop-color="#fff"/>
    </linearGradient>
    <radialGradient id="_未命名的渐变_13" data-name="未命名的渐变 13" cx="1430.9" cy="463.5" fx="1430.9" fy="463.5" r="156.4" gradientTransform="translate(-600.4 -536.8) rotate(77) scale(.5 -1.1) skewX(14.8)" gradientUnits="userSpaceOnUse">
      <stop offset="0" stop-color="#dc8add"/>
      <stop offset="1" stop-color="#813d9c"/>
    </radialGradient>
    <clipPath id="clippath">
      <rect class="st16" x="-62.1" y="-39.9" width="432" height="268.3"/>
    </clipPath>
    <mask id="mask" x="-44.1" y="-11.7" width="288" height="225.9" maskUnits="userSpaceOnUse">
      <g id="d">
        <rect class="st21" x="-44.1" y="-11.7" width="288" height="225.9"/>
      </g>
    </mask>
    <clipPath id="clippath-1">
      <rect class="st16" x="-62.1" y="-39.9" width="432" height="268.3"/>
    </clipPath>
    <mask id="mask-1" x="-44.1" y="-11.7" width="288" height="225.9" maskUnits="userSpaceOnUse">
      <g id="f">
        <rect class="st21" x="-44.1" y="-11.7" width="288" height="225.9"/>
      </g>
    </mask>
    <linearGradient id="_未命名的渐变_16" data-name="未命名的渐变 16" x1="817.2" y1="-590" x2="817.2" y2="-1122.7" gradientTransform="translate(-206 -221) scale(.4 -.4)" gradientUnits="userSpaceOnUse">
      <stop offset="0" stop-color="#f9f9f9"/>
      <stop offset=".5" stop-color="#f7f7f7"/>
      <stop offset=".6" stop-color="#f0f0f0"/>
      <stop offset=".7" stop-color="#e4e4e4"/>
      <stop offset=".8" stop-color="#d3d3d3"/>
      <stop offset=".9" stop-color="#bdbdbd"/>
      <stop offset="1" stop-color="#a3a3a3"/>
      <stop offset="1" stop-color="#a1a1a1"/>
    </linearGradient>
  </defs>
  <path class="st10" d="M157.3,200H43.3c-23.5,0-42.7-19.3-42.7-42.8V43c0-23.5,19.2-42.8,42.7-42.8h114c23.5,0,42.7,19.3,42.7,42.8v114.2c0,23.5-19.2,42.8-42.7,42.8h0Z"/>
  <g class="st5">
    <path class="st10" d="M184.1,110.5c0-12.2-5.3-23.8-14.6-31.9-9.1-7.9-21.3-11.4-33.4-9.5-4.4-15.7-17.6-27.6-34.1-30.7-16.3-2.8-32.9,3.9-42.3,17.2-5.6,7.8-8.6,17.1-8.4,26.7-18.3,3.4-30.9,19.7-29.2,37.8,1.1,18,16.3,32.2,34.8,32.5h90.3c.9,0,1.8-.2,2.5-.6,20.1-4,34.5-21.3,34.2-41.3l.2-.2Z"/>
  </g>
  <g class="st5">
    <path class="st6" d="M19,2.4h162c10,0,18,6.3,18,14.1l-.2,141.4-54,42.4H19.2c-10,0-18-6.3-18-14.1L.9,16.6c0-7.8,8-14.1,18-14.1Z"/>
    <path class="st20" d="M39.7,16.5h120.1c11.6,0,21,9.4,21,21v116.1c0,7.1-3.6,13.7-9.5,17.6l-17.3,11.3c-3.4,2.2-7.4,3.4-11.5,3.4H39.7c-11.6,0-21-9.4-21-21V37.6c0-11.6,9.4-21,21-21Z"/>
    <path class="st13" d="M168.6,58.4c-26.3-2.6-43.5,1.8-58.2,7.8,15-14.8,33.6-19.4,58.2-7.8Z"/>
    <path class="st13" d="M24.7,68.4c25-6.8,43-5.3,59-1.8-18.6-12-38.1-13.5-59,1.8Z"/>
    <g class="st22">
      <g class="st12">
        <path class="st13" d="M168.6,61.3c-26.3-2.6-43.5,1.8-58.2,7.8,15-14.8,33.6-19.4,58.2-7.8Z"/>
      </g>
    </g>
    <g class="st17">
      <g class="st0">
        <path class="st13" d="M24.7,71.3c25-6.8,43-5.3,59-1.8-18.6-12-38.1-13.5-59,1.8Z"/>
      </g>
    </g>
    <path class="st14" d="M180.8,77.6c-63.3,25.4-123.8,24.5-162.7,19.6v24.1c63.1,35.9,119.8,19.2,162.7-9.3v-34.5Z"/>
    <path class="st11" d="M180.8,77.6c-5.6,2.2-11.2,4.3-16.7,6.1,2.4,6.5,11.2,28.6,12.2,31.2,1.5-1,3-1.9,4.5-2.9v-34.5ZM160.1,85.1c-7.6,2.4-15,4.5-22.4,6.2-.6,4.2,8.4,30.2,11.2,38.2,9.6-4.1,18.7-9,27.3-14.4-1.7-3.9-10.9-25.1-16.1-29.9ZM133.4,92.2c-8.6,1.9-17.1,3.4-25.4,4.6-.2,9.1,4,35.7,5.2,43.2,12.4-2.1,24.3-5.7,35.6-10.5-2.9-7.8-12.2-32.9-15.5-37.2ZM113.3,140c-1.2-7.6-5.9-34.7-9.8-42.6-9.9,1.2-19.4,2-28.6,2.3-2.9,6.8-3.2,33.4-3.2,40.7,14.4,2.1,28.3,1.8,41.6-.4ZM71.7,140.4c0-7.2-.1-32.8-1.5-40.5-9.1.2-17.7,0-25.8-.3-3.1,5.4-5.7,23.5-6.8,31.3,11.7,4.8,23.1,7.9,34.2,9.5ZM18.1,97.2v24.1c6.5,3.7,13,6.9,19.4,9.5.8-7.8,2.7-25.6,2.8-31.5-8-.5-15.4-1.2-22.2-2.1Z"/>
    <path class="st10" d="M162.9,157.7c-10,0-18,6.3-18,14.1v28.2l54-42.4h-36Z"/>
  </g>
  <g class="st5">
    <path class="st1" d="M15.6,3.8h169.5c8.3,0,15,6.7,15,15v169.5c0,8.3-6.7,15-15,15H15.6c-8.3,0-15-6.7-15-15V18.7C.6,10.5,7.3,3.8,15.6,3.8Z"/>
    <path class="st3" d="M15.6.2h169.5c8.3,0,15,6.7,15,15v169.5c0,8.3-6.7,15-15,15H15.6c-8.3,0-15-6.7-15-15V15.2C.6,6.9,7.3.2,15.6.2Z"/>
    <g class="st9">
      <path d="M152,42.9c-7.2,0-14.5,1.9-19.5,5.2l4.7,8.8c3.3-2.5,8.2-4,13-4,7,0,11,5.2,11,10.6h-13c-13.8-.1-19.4,5.1-19.4,12.7s5.7,13,16.3,13,13.7-1.9,16.1-5.8v5.4s13.9,0,13.9,0v-26.1c0-13.2-9.4-19.7-23.1-19.7h0ZM148.9,80.9c-4.6,0-7.4-2.1-7.4-5.2s1.9-4.3,8.1-4.2h11.6c0,0,0,2.6,0,2.6,0,4.2-7.9,6.9-12.3,6.9h0Z"/>
      <path d="M101.4,81c-1.7,1.4-2.8,1.9-4.3,1.9-2.2,0-2.9-1.4-2.9-5.7v-19.2c0-5.1-.5-8-1.9-10.3-2.1-3.5-8-5.4-13.8-5.4-9.2,0-16.4,4.8-16.4,11s1.9,4.2,4.2,4.2,4.4-2,4.4-4.1,0-.9-.2-1.6c-.2-.9-.3-1.7-.3-2.4,0-2.7,3.1-4.8,7-4.8s8.2,2.9,8.2,8.2v7.8c-13.4,4-17.4,5.1-21.6,8.8-2.1,2-3.5,5.3-3.5,8.6,0,6.2,4.3,10.5,10.2,10.5s9.1-2.1,15-7.2c.5,5.2,3.1,7.2,7.1,7.2s5.4-1.2,8.8-4.9v-2.6ZM85.4,75.4c0,3-.5,4-2.5,5.2-2.4,1.4-5.9,2.2-7.9,2.2-3.4,0-6.1-3.3-6.1-7.6v-.4c0-5.9,5.2-7.8,16.6-11.9v12.5Z"/>
      <path d="M154.6,117.7c-1.6-.1-3.6.4-6,1.7s-4.9,3.2-7.4,5.7c-2.5,2.5-4.8,5.5-7,9-2.1,3.5-3.6,7.5-4.6,11.8-.8,3.2-1,5.9-.8,8.3.2,2.3.7,4.1,1.5,5.6.8,1.4,1.7,2.4,2.8,3.1,1.1.7,2.1,1.1,3.1,1.1,2.1-.1,4.2-.6,6.2-1.4,1.8-.7,3.7-1.8,5.7-3.3,2-1.6,3.8-3.7,5.5-6.6,0,1.9,0,3.5.3,4.8.3,1.3.7,2.3,1,3.1.4.9.9,1.6,1.6,2.1.6.4,1.4.7,2.2.8.8.2,1.7.3,2.6.2,1,0,1.9-.2,2.8-.5.9-.3,1.7-.6,2.4-1.1,1-.7,2.3-1.9,3.8-3.6,1.6-1.8,3.2-3.7,4.8-5.7,1.7-2.1,3.3-4.2,4.8-6.3,1.5-2.1,2.8-3.9,3.7-5.3.8-1.1,1.3-2.1,1.5-3,.2-.8.2-1.5-.1-1.9-.3-.4-.7-.6-1.2-.4-.6,0-1.1.4-1.7,1.1-.4.6-1.1,1.5-2.1,2.7-.9,1.2-1.9,2.6-3.1,4.1-1.2,1.6-2.5,3.2-3.8,4.9-1.3,1.6-2.6,3.1-3.8,4.6-1.2,1.3-2.4,2.5-3.5,3.4-1.1.8-2,1.3-2.7,1.3s-1.5-.2-2-.5c-.4-.4-.7-1-.9-1.6-.2-.6-.3-1.3-.4-2,0-.8,0-1.5.1-2.1.2-1.1.4-1.9.5-2.7.1-.7.2-1.3.3-1.8.1-.6.2-1.1.3-1.6.1-.6.3-1.2.4-1.8.7-3.3,1.2-5.9,1.7-8,.4-2.1.7-3.7.9-4.9.2-1.2.3-2,.3-2.4s0-.8-.1-1c-.1,0-.4-.1-.8-.1s-.9,0-1.6.1c-.6,0-1.4.2-2.4.4,1.5-2.3,2-4.1,1.7-5.4-.3-1.4-.9-2.5-1.9-3.2-1.2-.8-2.7-1.3-4.6-1.7h0ZM152.2,124.3c.3,0,.5.1.7.3.2.3.3.7.4,1.2,0,.4,0,1-.1,1.8,0,.7-.4,1.6-.9,2.8.6-.1,1.1-.2,1.7-.3.6,0,1-.2,1.4-.3.4-.1.8-.2,1.1-.3.3,0,.3.5.1,1.7-.1,1.1-.4,2.6-.7,4.4-.3,1.8-.8,3.6-1.2,5.5-.5,1.9-.9,3.6-1.2,5,0,.4-.4.9-.9,1.7-.5.8-1.1,1.6-2,2.5-.8.9-1.7,1.8-2.7,2.7-1,.8-2,1.6-3,2.1-1,.5-1.9.8-2.9.8-1,0-1.8-.4-2.6-1.2-.4-.4-.7-1.3-.8-2.7-.1-1.4-.1-3,.1-4.9.3-1.8.7-3.8,1.4-5.8.6-2.1,1.5-4.1,2.5-5.9,2.5-4.5,4.7-7.5,6.6-9.1,1.5-1.3,2.6-1.9,3.4-1.9h0Z"/>
      <path class="st15" d="M70.9,117.7c-5.3,0-5.3,7.8,0,7.7h19.4s.6,0,1.1.4c.6.3,1,.4,1.1,1.8h0s.5,11.9.5,11.9c-.9-.3-1.5-.5-1.5-.5h-.5c0-.1-18.1-.1-18.1-.1-8.5,0-11.6,8.4-11.6,8.4l-.2.6v2.6c0,5.8,2.8,9.9,5.8,11.7,3,1.8,6,1.8,6,1.8h14.9l6.6-4.2v.6c.2,5.3,8.3,4.8,7.9-.5l-2-32.7h0c-.3-4-2.9-6.8-5.1-8.1-2.2-1.2-4.4-1.3-4.4-1.3h-.1s-19.7,0-19.7,0ZM72.9,146.5h16.9c.2,0,1,.3,2,.9,1.1.7,1.7,1,1.8,2.3l.3,1.1-8.4,5.4h-12.6s-.9,0-1.8-.6c-1-.6-2.1-1.4-2.1-5.2v-1.5c.2-.6,1-2.4,3.9-2.4Z"/>
    </g>
    <g>
      <path class="st10" d="M152,39.4c-7.2,0-14.5,1.9-19.5,5.2l4.7,8.8c3.3-2.5,8.2-4,13-4,7,0,11,5.2,11,10.6h-13c-13.8-.1-19.4,5.1-19.4,12.7s5.7,13,16.3,13,13.7-1.9,16.1-5.8v5.4s13.9,0,13.9,0v-26.1c0-13.2-9.4-19.7-23.1-19.7h0ZM148.9,77.4c-4.6,0-7.4-2.1-7.4-5.2s1.9-4.3,8.1-4.2h11.6c0,0,0,2.6,0,2.6,0,4.2-7.9,6.9-12.3,6.9h0Z"/>
      <path class="st10" d="M101.4,77.4c-1.7,1.4-2.8,1.9-4.3,1.9-2.2,0-2.9-1.4-2.9-5.7v-19.2c0-5.1-.5-8-1.9-10.3-2.1-3.5-8-5.4-13.8-5.4-9.2,0-16.4,4.8-16.4,11s1.9,4.2,4.2,4.2,4.4-2,4.4-4.1,0-.9-.2-1.6c-.2-.9-.3-1.7-.3-2.4,0-2.7,3.1-4.8,7-4.8s8.2,2.9,8.2,8.2v7.8c-13.4,4-17.4,5.1-21.6,8.8-2.1,2-3.5,5.3-3.5,8.6,0,6.2,4.3,10.5,10.2,10.5s9.1-2.1,15-7.2c.5,5.2,3.1,7.2,7.1,7.2s5.4-1.2,8.8-4.9v-2.6ZM85.4,71.8c0,3-.5,4-2.5,5.2-2.4,1.4-5.9,2.2-7.9,2.2-3.4,0-6.1-3.3-6.1-7.6v-.4c0-5.9,5.2-7.8,16.6-11.9v12.5Z"/>
      <path class="st10" d="M154.6,114.1c-1.6-.1-3.6.4-6,1.7s-4.9,3.2-7.4,5.7c-2.5,2.5-4.8,5.5-7,9-2.1,3.5-3.6,7.5-4.6,11.8-.8,3.2-1,5.9-.8,8.3.2,2.3.7,4.1,1.5,5.6.8,1.4,1.7,2.4,2.8,3.1,1.1.7,2.1,1.1,3.1,1.1,2.1-.1,4.2-.6,6.2-1.4,1.8-.7,3.7-1.8,5.7-3.3,2-1.6,3.8-3.7,5.5-6.6,0,1.9,0,3.5.3,4.8.3,1.3.7,2.3,1,3.1.4.9.9,1.6,1.6,2.1.6.4,1.4.7,2.2.8.8.2,1.7.3,2.6.2,1,0,1.9-.2,2.8-.5.9-.3,1.7-.6,2.4-1.1,1-.7,2.3-1.9,3.8-3.6,1.6-1.8,3.2-3.7,4.8-5.7,1.7-2.1,3.3-4.2,4.8-6.3,1.5-2.1,2.8-3.9,3.7-5.3.8-1.1,1.3-2.1,1.5-3,.2-.8.2-1.5-.1-1.9-.3-.4-.7-.6-1.2-.4-.6,0-1.1.4-1.7,1.1-.4.6-1.1,1.5-2.1,2.7-.9,1.2-1.9,2.6-3.1,4.1-1.2,1.6-2.5,3.2-3.8,4.9-1.3,1.6-2.6,3.1-3.8,4.6-1.2,1.3-2.4,2.5-3.5,3.4-1.1.8-2,1.3-2.7,1.3s-1.5-.2-2-.5c-.4-.4-.7-1-.9-1.6-.2-.6-.3-1.3-.4-2,0-.8,0-1.5.1-2.1.2-1.1.4-1.9.5-2.7.1-.7.2-1.3.3-1.8.1-.6.2-1.1.3-1.6.1-.6.3-1.2.4-1.8.7-3.3,1.2-5.9,1.7-8,.4-2.1.7-3.7.9-4.9.2-1.2.3-2,.3-2.4s0-.8-.1-1c-.1,0-.4-.1-.8-.1s-.9,0-1.6.1c-.6,0-1.4.2-2.4.4,1.5-2.3,2-4.1,1.7-5.4-.3-1.4-.9-2.5-1.9-3.2-1.2-.8-2.7-1.3-4.6-1.7h0ZM152.2,120.8c.3,0,.5.1.7.3.2.3.3.7.4,1.2,0,.4,0,1-.1,1.8,0,.7-.4,1.6-.9,2.8.6-.1,1.1-.2,1.7-.3.6,0,1-.2,1.4-.3.4-.1.8-.2,1.1-.3.3,0,.3.5.1,1.7-.1,1.1-.4,2.6-.7,4.4-.3,1.8-.8,3.6-1.2,5.5-.5,1.9-.9,3.6-1.2,5,0,.4-.4.9-.9,1.7-.5.8-1.1,1.6-2,2.5-.8.9-1.7,1.8-2.7,2.7-1,.8-2,1.6-3,2.1-1,.5-1.9.8-2.9.8-1,0-1.8-.4-2.6-1.2-.4-.4-.7-1.3-.8-2.7-.1-1.4-.1-3,.1-4.9.3-1.8.7-3.8,1.4-5.8.6-2.1,1.5-4.1,2.5-5.9,2.5-4.5,4.7-7.5,6.6-9.1,1.5-1.3,2.6-1.9,3.4-1.9h0Z"/>
      <path class="st11" d="M70.9,114.1c-5.3,0-5.3,7.8,0,7.7h19.4s.6,0,1.1.4c.6.3,1,.4,1.1,1.8h0s.5,11.9.5,11.9c-.9-.3-1.5-.5-1.5-.5h-.5c0-.1-18.1-.1-18.1-.1-8.5,0-11.6,8.4-11.6,8.4l-.2.6v2.6c0,5.8,2.8,9.9,5.8,11.7,3,1.8,6,1.8,6,1.8h14.9l6.6-4.2v.6c.2,5.3,8.3,4.8,7.9-.5l-2-32.7h0c-.3-4-2.9-6.8-5.1-8.1-2.2-1.2-4.4-1.3-4.4-1.3h-.1s-19.7,0-19.7,0ZM72.9,143h16.9c.2,0,1,.3,2,.9,1.1.7,1.7,1,1.8,2.3l.3,1.1-8.4,5.4h-12.6s-.9,0-1.8-.6c-1-.6-2.1-1.4-2.1-5.2v-1.5c.2-.6,1-2.4,3.9-2.4Z"/>
    </g>
    <path class="st7" d="M39.8.2c-8.3,0-39.5,11.3-39.2,41.4L0,156.5c-1.5-.7,6.7,43.9,39.8,43.1h0V.2h0Z"/>
    <path class="st2" d="M15.6.2C7.3.2.6,6.9.6,15.1v3.6C.6,10.4,7.3,3.8,15.6,3.8h169.5c8.3,0,15,6.7,15,14.9v-3.6c0-8.3-6.7-14.9-15-14.9H15.6Z"/>
  </g>
  <g>
    <path class="st4" d="M36.9.2h127.2c19.9,0,36,16.3,36,36.3v127.1c0,20.1-16.1,36.3-36,36.3H36.9c-19.9,0-36-16.3-36-36.3V36.6C.9,16.5,17,.2,36.9.2Z"/>
    <g>
      <ellipse class="st1" cx="98.5" cy="98.5" rx="78" ry="77.2"/>
      <ellipse class="st19" cx="98.5" cy="95.6" rx="78" ry="77.2"/>
      <ellipse class="st7" cx="105.3" cy="88.8" rx="57.2" ry="56.4"/>
      <ellipse class="st8" cx="98.5" cy="98.5" rx="38.9" ry="38.6"/>
      <ellipse class="st10" cx="98.5" cy="95.6" rx="38.9" ry="38.6"/>
      <path class="st18" d="M113.6,95.6l-14.4,8.4-14.4,8.4v-33.1l14.4,8.4,14.4,8.4v-.6Z"/>
      <path class="st2" d="M98.5,18.4c-43,0-78,34.7-78,77.2v1.6c.6-42.2,35.3-76.2,77.7-76.2s77.1,33.7,77.7,75.6v-1.3c0-42.8-35-77.2-78-77.2l.6.3Z"/>
    </g>
  </g>
</svg>