<?xml version="1.0" encoding="UTF-8"?>
<svg id="_图层_1" xmlns="http://www.w3.org/2000/svg" version="1.1" xmlns:xlink="http://www.w3.org/1999/xlink" viewBox="0 0 64 64" width="16" height="16">
  <!-- Generator: Adobe Illustrator 29.0.1, SVG Export Plug-In . SVG Version: 2.1.0 Build 192)  -->
  <defs>
    <style>
      .st0, .st1 {
        display: none;
      }

      .st0, .st2, .st3 {
        opacity: .2;
      }

      .st0, .st2, .st3, .st4 {
        isolation: isolate;
      }

      .st5, .st3, .st4 {
        fill: #fff;
      }

      .st6 {
        fill: #1e88e5;
      }

      .st1 {
        fill: url(#_未命名的渐变_16);
      }

      .st7 {
        fill: #42a5f5;
      }

      .st8 {
        fill: #1565c0;
      }

      .st4 {
        opacity: .1;
      }
    </style>
    <linearGradient id="_未命名的渐变_16" data-name="未命名的渐变 16" x1="51.4" y1="-1.4" x2="12.8" y2="65.5" gradientUnits="userSpaceOnUse">
      <stop offset="0" stop-color="#6ac6ff"/>
      <stop offset="1" stop-color="#0066d4"/>
    </linearGradient>
  </defs>
  <path class="st1" d="M50.3,64H13.9C6.3,64,.2,57.8.2,50.3V13.8C.2,6.2,6.3,0,13.9,0h36.5c7.5,0,13.7,6.2,13.7,13.7v36.5c0,7.5-6.1,13.7-13.7,13.7h0Z"/>
  <g>
    <path class="st0" d="M5.7,42.2h52.6c3.1,0,5.7,2,5.7,4.6v13.7c0,2.5-2.5,4.6-5.7,4.6H5.7c-3.1,0-5.7-2-5.7-4.6v-13.7c0-2.5,2.5-4.6,5.7-4.6Z"/>
    <path class="st8" d="M14.1,0C7.8-.1.2,5.6.2,13.1H.2l-.2,3.7.2,11.7h64v-12.6l-.2-2.1h0C64,6.4,57.7-.1,50.4-.1L14.1,0Z"/>
    <path class="st6" d="M6,19.3c-3.3,0-6,2.1-6,4.8v23.8h64v-23.8c0-2.7-2.7-4.8-6-4.8H6Z"/>
    <path class="st7" d="M5.7,41.1h52.6c3.1,0,5.7,2,5.7,4.6v4.1c0,6.6-4.7,14.2-13.7,14.2H13.9c-7.7,0-13.8-6.1-13.6-13.9l-.2-4.5c0-2.5,2.5-4.6,5.7-4.6Z"/>
    <path class="st2" d="M26.3,10.2c-1.2,0-2.1.8-2.1,1.7s1,1.7,2.1,1.7h11.4c1.2,0,2.1-.8,2.1-1.7s-1-1.7-2.1-1.7h-11.4ZM26.3,29.6c-1.2,0-2.1.8-2.1,1.7s1,1.7,2.1,1.7h11.4c1.2,0,2.1-.8,2.1-1.7s-1-1.7-2.1-1.7h-11.4ZM26.3,52.5c-1.2,0-2.1.8-2.1,1.7s1,1.7,2.1,1.7h11.4c1.2,0,2.1-.8,2.1-1.7s-1-1.7-2.1-1.7h-11.4Z"/>
    <path class="st5" d="M26.3,9h11.4c1.2,0,2.1.8,2.1,1.7h0c0,.9-1,1.7-2.1,1.7h-11.4c-1.2,0-2.1-.8-2.1-1.7h0c0-.9,1-1.7,2.1-1.7Z"/>
    <path class="st5" d="M26.3,28.5h11.4c1.2,0,2.1.8,2.1,1.7h0c0,.9-1,1.7-2.1,1.7h-11.4c-1.2,0-2.1-.8-2.1-1.7h0c0-.9,1-1.7,2.1-1.7Z"/>
    <path class="st5" d="M26.3,51.4h11.4c1.2,0,2.1.8,2.1,1.7h0c0,.9-1,1.7-2.1,1.7h-11.4c-1.2,0-2.1-.8-2.1-1.7h0c0-.9,1-1.7,2.1-1.7Z"/>
    <path class="st4" d="M14.1,0C8.8-.1.2,4.9,0,12.8H0s0,0,0,0c.2-.3,0-10.4,14-11l36.6.2c13.3.2,13.2,11.9,13.2,11.9h0C64,6.4,57,0,50.7,0H14.1Z"/>
    <path class="st4" d="M6,19.3c-3.3,0-6,2.1-6,4.8v1.1c0-2.7,2.7-4.8,6-4.8h52c3.3,0,6,2.1,6,4.8v-1.1c0-2.7-2.7-4.8-6-4.8H6Z"/>
    <path class="st3" d="M5.7,41.1c-3.2,0-5.7,2-5.7,4.6v1.1c0-2.5,2.5-4.6,5.7-4.6h52.6c3.2,0,5.7,2,5.7,4.6v-1.1c0-2.5-2.5-4.6-5.7-4.6H5.7Z"/>
  </g>
</svg>