<?xml version="1.0" encoding="UTF-8"?>
<svg id="_图层_1" xmlns="http://www.w3.org/2000/svg" version="1.1" viewBox="0 0 64 64" width="16" height="16">
  <!-- Generator: Adobe Illustrator 29.0.1, SVG Export Plug-In . SVG Version: 2.1.0 Build 192)  -->
  <defs>
    <style>
      .st0, .st1, .st2, .st3, .st4, .st5, .st6 {
        display: none;
      }

      .st0, .st7 {
        fill: #3f3f3f;
      }

      .st8 {
        fill: #ffba58;
      }

      .st1, .st2, .st9, .st10, .st11, .st5 {
        isolation: isolate;
      }

      .st1, .st10, .st11, .st5 {
        opacity: .2;
      }

      .st2 {
        opacity: .1;
      }

      .st2, .st12, .st11, .st5 {
        fill: #fff;
      }

      .st13 {
        stroke: #dadf18;
        stroke-width: 4px;
      }

      .st13, .st14 {
        fill: none;
        stroke-linejoin: round;
      }

      .st9 {
        opacity: .8;
      }

      .st15, .st3 {
        fill: #8f0000;
      }

      .st14 {
        stroke: #eecc7b;
        stroke-linecap: round;
        stroke-width: 1.4px;
      }

      .st16 {
        fill: #dadf18;
      }

      .st17 {
        fill: #736dab;
      }

      .st6 {
        fill: #40c269;
      }
    </style>
  </defs>
  <path class="st15" d="M50.4,64H13.8c-7.6,0-13.8-6.2-13.8-13.7V13.7C0,6.2,6.2,0,13.7,0h36.6c7.5,0,13.7,6.2,13.7,13.7v36.6c0,7.5-6.2,13.7-13.7,13.7h.1Z"/>
  <g class="st4">
    <path class="st10" d="M57.1,31.4c-.4,13.3-11.5,24-25.1,24-13.5,0-24.5-10.5-25.1-23.7,0,.2,0,.5,0,.7,0,13.6,11.2,24.7,25.1,24.7s25.1-11.1,25.1-24.7c0-.3,0-.7,0-1Z"/>
    <ellipse class="st17" cx="32" cy="31.6" rx="25.1" ry="24.7"/>
    <path class="st8" d="M57.1,31.6c0,13.6-11.2,24.7-25.1,24.7V6.8c13.9,0,25.1,11.1,25.1,24.7Z"/>
    <ellipse class="st10" cx="32" cy="32.4" rx="17.9" ry="17.7"/>
    <ellipse class="st12" cx="32" cy="31.6" rx="17.9" ry="17.7"/>
    <path class="st9" d="M26.6,21v12.4c-.3,0-.6,0-.9,0-2.5,0-4.5,2-4.5,4.4s2,4.4,4.5,4.4,4.5-2,4.5-4.4v-13.2h7.2v5.4c-.3,0-.6,0-.9,0-2.5,0-4.5,2-4.5,4.4s2,4.4,4.5,4.4,4.5-2,4.5-4.4v-13.2h-14.4Z"/>
    <path class="st11" d="M32,6.8c-13.9,0-25.1,11.1-25.1,24.7,0,.1,0,.3,0,.4.2-13.5,11.4-24.3,25.1-24.3h0c13.7,0,24.8,10.8,25.1,24.3,0-.1,0-.3,0-.4,0-13.6-11.2-24.7-25.1-24.7h0Z"/>
  </g>
  <g class="st4">
    <path class="st1" d="M3.2,1.1h57.8c1.8,0,3.2,1.4,3.2,3.2v57.5c0,1.8-1.4,3.2-3.2,3.2H3.2c-1.8,0-3.2-1.4-3.2-3.2V4.3C0,2.6,1.4,1.1,3.2,1.1Z"/>
    <path class="st0" d="M3.2,0h57.8c1.8,0,3.2,1.4,3.2,3.2v57.5c0,1.8-1.4,3.2-3.2,3.2H3.2c-1.8,0-3.2-1.4-3.2-3.2V3.2C0,1.4,1.4,0,3.2,0Z"/>
    <path class="st10" d="M52.7,14.8c-.2,0-.4,0-.6.1l-20.6,6.5c-1,.3-1.6,1.2-1.6,2.2v18.7c-1.3-.2-2.7-.2-4.1,0-4.4.7-7.7,3.3-7.3,5.7,0,0,0,0,0,0,.4,2.4,4.3,3.8,8.7,3,0,0,0,0,0,0,4.1-.7,7.3-3,7.4-5.3v-20.6l16.1-5.1v15.3c-1.3-.2-2.7-.2-4.1,0-4.4.7-7.7,3.3-7.3,5.7,0,0,0,0,0,0,.4,2.4,4.3,3.8,8.7,3,0,0,0,0,0,0,4.1-.7,7.3-3,7.4-5.3v-21.9c0-1.3-1-2.3-2.3-2.3,0,0,0,0,0,0ZM7.7,26.3c-.4,0-.8.4-.8.8,0,.3.2.5.4.7l8.7,5.3-8.8,5.5c-.4.2-.5.7-.3,1.1.2.4.7.5,1.1.3,0,0,0,0,0,0l9.9-6.2c.4-.2.5-.7.3-1.1,0-.1-.2-.2-.3-.3l-9.9-5.9c-.1,0-.3-.1-.5-.1h0Z"/>
    <ellipse class="st16" cx="26.4" cy="45.7" rx="8.1" ry="4.4" transform="translate(-7.3 5.1) rotate(-9.7)"/>
    <ellipse class="st16" cx="47" cy="38.8" rx="8.1" ry="4.4" transform="translate(-5.9 8.5) rotate(-9.7)"/>
    <path class="st13" d="M32.1,44.8v-22.3l20.6-6.5v21.9"/>
    <path class="st14" d="M7.7,25.9l9.9,5.9-9.9,6.2"/>
    <path class="st2" d="M3.2,0C1.4,0,0,1.4,0,3.2v1.1C0,2.6,1.4,1.1,3.2,1.1h57.8c1.8,0,3.2,1.4,3.2,3.2v-1.1c0-1.8-1.4-3.2-3.2-3.2H3.2Z"/>
  </g>
  <g class="st4">
    <path class="st6" d="M3.2,0h57.6c1.8,0,3.2,1.4,3.2,3.2v57.5c0,1.8-1.4,3.2-3.2,3.2H3.2c-1.8,0-3.2-1.4-3.2-3.2V3.2C0,1.4,1.4,0,3.2,0Z"/>
    <rect class="st10" x="9.1" y="50.2" width="45.7" height="6.9"/>
    <path class="st7" d="M28.6,41.1v8H9.1v6.9h45.7v-6.9h-19.4v-8h-6.9Z"/>
    <path class="st10" d="M17.5,5.7c-2.1,0-3.8,1.7-3.8,3.8v28.9c0,2.1,1.7,3.8,3.8,3.8h28.9c2.1,0,3.8-1.7,3.8-3.8V9.5c0-2.1-1.7-3.8-3.8-3.8h-28.9ZM22.8,14.8h18.3v18.3h-18.3V14.8Z"/>
    <path class="st5" d="M3.2,0C1.4,0,0,1.4,0,3.2v1.1C0,2.6,1.4,1.1,3.2,1.1h57.6c1.8,0,3.2,1.4,3.2,3.2v-1.1c0-1.8-1.4-3.2-3.2-3.2H3.2Z"/>
    <path class="st1" d="M0,60.7v1.1c0,1.8,1.4,3.2,3.2,3.2h57.6c1.8,0,3.2-1.4,3.2-3.2v-1.1c0,1.8-1.4,3.2-3.2,3.2H3.2c-1.8,0-3.2-1.4-3.2-3.2Z"/>
    <path class="st12" d="M17.5,4.6c-2.1,0-3.8,1.7-3.8,3.8v28.9c0,2.1,1.7,3.8,3.8,3.8h28.9c2.1,0,3.8-1.7,3.8-3.8V8.4c0-2.1-1.7-3.8-3.8-3.8h-28.9ZM22.8,13.7h18.3v18.3h-18.3s0-18.3,0-18.3Z"/>
    <circle class="st10" cx="11.4" cy="53.7" r="6.9"/>
    <circle class="st12" cx="11.4" cy="52.5" r="6.9"/>
    <circle class="st10" cx="32" cy="53.7" r="6.9"/>
    <circle class="st12" cx="32" cy="52.5" r="6.9"/>
    <circle class="st10" cx="52.6" cy="53.7" r="6.9"/>
    <circle class="st12" cx="52.6" cy="52.5" r="6.9"/>
  </g>
  <g>
    <path class="st1" d="M6.9,1.1h50.3c3.8,0,6.9,3.1,6.9,6.9v50.2c0,3.8-3.1,6.9-6.9,6.9H6.9c-3.8,0-6.9-3.1-6.9-6.9V8C0,4.2,3.1,1.1,6.9,1.1Z"/>
    <path class="st3" d="M6.9,0h50.3c3.8,0,6.9,3.1,6.9,6.9v50.2c0,3.8-3.1,6.9-6.9,6.9H6.9c-3.8,0-6.9-3.1-6.9-6.9V6.9C0,3.1,3.1,0,6.9,0Z"/>
    <path class="st10" d="M48,9.1c-3.5,0-6.3,3-6.8,6.9-1.1,0-2.5.3-4,.8-1.5.5-3,1.3-4.3,2.7-1.2,1.4-2,3.3-2,5.7s-.3,1.1-1.4,1.7c-1.1.6-2.8,1-4.6,1.3-2.4.4-4.3.4-5.5.4v-1.1c0-4.4-3.1-8-6.9-8H0v3.4h12.6c1.9,0,3.4,1.5,3.4,3.4v3.8c0,.1,0,.3,0,.4v5c0,1.9-1.5,3.4-3.4,3.4H0v3.4h12.6c3.8,0,6.9-3.6,6.9-8v-2.3c1.4,0,3.6.3,5.8.9,1.8.5,3.6,1.3,4.8,2.5,1.2,1.1,2,2.5,2,4.6s1.2,4.6,2.9,6.1,3.7,2.5,5.7,3.3c2.5,1,4.9,1.5,6.4,1.7.4,4,3.3,7.1,6.8,7.1h10.2c0-.4.1-.8.1-1.1v-2.3h-10.3c-1.9,0-3.4-1.5-3.4-3.4v-1.5c0-.1,0-.3,0-.4v-7.2c0-1.9,1.5-3.4,3.4-3.4h10.3v-3.4h-10.3c-3.8,0-6.9,3.6-6.9,8v4.3c-1.3-.3-3.2-.7-5.1-1.4-1.7-.7-3.4-1.6-4.6-2.6-1.1-1.1-1.8-2.2-1.8-3.6,0-3-1.3-5.4-3-7.1-1-.9-2.1-1.6-3.3-2.2.7-.2,1.4-.5,2-.8,1.7-.9,3.2-2.5,3.2-4.7s.5-2.6,1.2-3.4c.7-.8,1.7-1.3,2.8-1.7,1-.3,2.1-.5,2.9-.6v4.5c0,4.4,3.1,8,6.9,8h16v-3.4h-16c-1.9,0-3.4-1.5-3.4-3.4v-9.1c0-1.9,1.5-3.4,3.4-3.4h16v-3.4h-16Z"/>
    <path class="st12" d="M48,8c-3.5,0-6.3,3-6.8,6.9-1.1,0-2.5.3-4,.8-1.5.5-3,1.3-4.3,2.7-1.2,1.4-2,3.3-2,5.7s-.3,1.1-1.4,1.7c-1.1.6-2.8,1-4.6,1.3-2.4.4-4.3.4-5.5.4v-1.1c0-4.4-3.1-8-6.9-8H0v3.4h12.6c1.9,0,3.4,1.5,3.4,3.4v3.8c0,.1,0,.3,0,.4v5c0,1.9-1.5,3.4-3.4,3.4H0v3.4h12.6c3.8,0,6.9-3.6,6.9-8v-2.3c1.4,0,3.6.3,5.8.9,1.8.5,3.6,1.3,4.8,2.5,1.2,1.1,2,2.5,2,4.6s1.2,4.6,2.9,6.1,3.7,2.5,5.7,3.3c2.5,1,4.9,1.5,6.4,1.7.4,4,3.3,7.1,6.8,7.1h10.2c0-.4.1-.8.1-1.1v-2.3h-10.3c-1.9,0-3.4-1.5-3.4-3.4v-1.5c0-.1,0-.3,0-.4v-7.2c0-1.9,1.5-3.4,3.4-3.4h10.3v-3.4h-10.3c-3.8,0-6.9,3.6-6.9,8v4.3c-1.3-.3-3.2-.7-5.1-1.4-1.7-.7-3.4-1.6-4.6-2.6-1.1-1.1-1.8-2.2-1.8-3.6,0-3-1.3-5.4-3-7.1-1-.9-2.1-1.6-3.3-2.2.7-.2,1.4-.5,2-.8,1.7-.9,3.2-2.5,3.2-4.7s.5-2.6,1.2-3.4c.7-.8,1.7-1.3,2.8-1.7,1-.3,2.1-.5,2.9-.6v4.5c0,4.4,3.1,8,6.9,8h16v-3.4h-16c-1.9,0-3.4-1.5-3.4-3.4v-9.1c0-1.9,1.5-3.4,3.4-3.4h16v-3.4h-16Z"/>
    <path class="st2" d="M6.9,0C3.1,0,0,3.1,0,6.9v1.1C0,4.2,3.1,1.1,6.9,1.1h50.3c3.8,0,6.9,3.1,6.9,6.9v-1.1c0-3.8-3.1-6.9-6.9-6.9H6.9Z"/>
  </g>
</svg>