<?xml version="1.0" encoding="UTF-8"?>
<svg id="_图层_1" xmlns="http://www.w3.org/2000/svg" version="1.1" viewBox="0 0 128 128" width="16" height="16">
  <!-- Generator: Adobe Illustrator 29.0.1, SVG Export Plug-In . SVG Version: 2.1.0 Build 192)  -->
  <defs>
    <style>
      .st0 {
        fill: #f38181;
      }

      .st1 {
        fill: #2669bc;
      }

      .st2 {
        fill: red;
      }

      .st2, .st3, .st4, .st5 {
        display: none;
      }

      .st6 {
        fill: #fcfcfc;
      }

      .st3, .st7, .st8, .st9, .st5 {
        isolation: isolate;
      }

      .st3, .st8, .st9, .st5 {
        opacity: .2;
      }

      .st10 {
        fill: #5b5144;
      }

      .st11 {
        fill: #25a068;
      }

      .st12, .st9, .st5, .st13 {
        fill: #fff;
      }

      .st14 {
        fill: #4098fe;
      }

      .st15 {
        fill: #fff55d;
      }

      .st16 {
        fill-opacity: .1;
      }

      .st16, .st17 {
        fill: #5f4441;
      }

      .st7 {
        opacity: .1;
      }

      .st18 {
        fill: #3acabc;
      }

      .st19 {
        fill: #79f68b;
      }

      .st20 {
        fill: #228bf3;
      }

      .st21 {
        fill: #ef4d43;
      }

      .st22 {
        fill-opacity: .3;
      }

      .st22, .st23 {
        fill: #fdf6ef;
      }

      .st24 {
        fill: #24db65;
      }

      .st25 {
        fill: #2379e0;
      }

      .st26 {
        fill: #1b58a2;
      }

      .st27 {
        fill: #e3dcd6;
      }

      .st28 {
        fill: #2da8da;
      }

      .st29 {
        fill: #e6e4e2;
      }

      .st30 {
        fill: #62dd9f;
      }

      .st13 {
        fill-opacity: .7;
      }
    </style>
  </defs>
  <rect class="st2" width="127.8" height="127.8" rx="25.9" ry="25.9"/>
  <g class="st4">
    <path class="st6" d="M115.4,98.8c0,1.1-.8,1.8-1.7,1.8h0c-1,0-1.8-.7-1.8-1.8s.8-1.8,1.8-1.8,1.7.7,1.7,1.8h0ZM116.1,98.8c0-1.5-1.2-2.3-2.5-2.3s-2.5.9-2.5,2.3,1.2,2.3,2.5,2.3,2.5-.9,2.5-2.3ZM113.3,99h.3l.6,1h.7l-.7-1.1c.3,0,.6-.2.6-.6s-.4-.8-1.1-.8h-1v2.5h.6v-1h0ZM113.3,98.6v-.6h.4c.2,0,.5,0,.5.3s-.2.3-.4.3h-.5ZM99.6,86l3.1,8.2h-6.2l3.2-8.2h0ZM96.3,82.8l-7.1,17.5h5l1.1-3.1h8.4l1.1,3.1h5.4l-7.1-17.5h-6.8ZM82.1,100.4h5.1v-17.5h-5.1v17.5h0ZM47,82.8l-4.2,13.9-4-13.9h-5.5l5.8,17.5h7.3l5.8-17.5s-5.2,0-5.2,0ZM67.4,86.7h2.2c3.2,0,5.2,1.4,5.2,5s-2,5-5.2,5h-2.2v-10ZM62.4,82.8v17.5h8.2c4.4,0,5.8-.7,7.3-2.3,1.1-1.1,1.8-3.6,1.8-6.3s-.6-4.7-1.6-6c-1.9-2.4-4.6-2.9-8.6-2.9,0,0-7.1,0-7.1,0ZM14.5,82.8v17.5h5.1v-13.3h4c1.3,0,2.2.3,2.9,1,.8.8,1.1,2.2,1.1,4.6v7.7h4.9v-9.7c0-6.9-4.5-7.9-8.9-7.9h-9.1ZM54.3,82.8v17.5h5.1v-17.5h-5.1Z"/>
    <path class="st6" d="M28.1,47.9s6.5-9.4,19.5-10.4v-3.4c-14.4,1.1-26.9,13.1-26.9,13.1,0,0,7.1,20,26.9,21.8v-3.6c-14.5-1.8-19.5-17.5-19.5-17.5h0ZM47.6,58.2v3.3c-11-1.9-14-13.1-14-13.1,0,0,5.3-5.7,14-6.6v3.6h0c-4.6-.5-8.2,3.7-8.2,3.7,0,0,2,7.1,8.2,9.1ZM47.6,27.9v6.3h1.3c16.4-.5,27,13.1,27,13.1,0,0-12.2,14.6-25,14.6s-2.2,0-3.3-.3v3.9c.9,0,1.8.2,2.7.2,11.9,0,20.5-5.9,28.8-13,1.4,1.1,7,3.7,8.2,4.9-7.9,6.5-26.3,11.7-36.8,11.7s-2,0-2.9,0v5.5h45.1V27.9h-45.1,0ZM47.6,41.8v-4.2h1.3c11.8-.4,19.5,9.9,19.5,9.9,0,0-8.3,11.3-17.3,11.3s-2.4-.2-3.5-.5v-12.8c4.6.5,5.5,2.5,8.3,7l6.1-5.1s-4.5-5.7-12-5.7-1.6,0-2.4,0Z"/>
  </g>
  <g class="st4">
    <path class="st27" d="M0,27.4C0,17.3,8.6,9.1,19.2,9.1h89.5c10.6,0,19.2,8.2,19.2,18.3v82.2c0,10.1-8.6,18.3-19.2,18.3H19.2c-10.6,0-19.2-8.2-19.2-18.3,0,0,0-82.2,0-82.2Z"/>
    <path class="st22" d="M0,24.3C0,14.3,8.6,6.1,19.2,6.1h89.5c10.6,0,19.2,8.2,19.2,18.3v79.1c0,10.1-8.6,18.3-19.2,18.3H19.2c-10.6,0-19.2-8.2-19.2-18.3V24.4h0Z"/>
    <path class="st22" d="M0,18.3C0,8.2,8.6,0,19.2,0h89.5c10.6,0,19.2,8.2,19.2,18.3v76.1c0,10.1-8.6,18.3-19.2,18.3H19.2c-10.6,0-19.2-8.2-19.2-18.3,0,0,0-76.1,0-76.1Z"/>
    <path class="st23" d="M0,18.3C0,8.2,8.6,0,19.2,0h89.5c10.6,0,19.2,8.2,19.2,18.3v66.9c0,10.1-8.6,18.3-19.2,18.3H19.2c-10.6,0-19.2-8.2-19.2-18.3,0,0,0-66.9,0-66.9Z"/>
    <path class="st16" d="M0,18.3C0,8.2,8.6,0,19.2,0h89.5c10.6,0,19.2,8.2,19.2,18.3v54.8H0V18.3Z"/>
    <path class="st17" d="M0,18.3C0,8.2,8.6,0,19.2,0h89.5c10.6,0,19.2,8.2,19.2,18.3v24.3H0v-24.3Z"/>
    <path class="st21" d="M0,18.3C0,8.2,8.6,0,19.2,0h89.5c10.6,0,19.2,8.2,19.2,18.3v18.3H0v-18.3Z"/>
    <path class="st17" d="M98.3,94.3h-30.7c-.8,0-1.4-.2-1.8-.5-.3-.4-.5-.9-.5-1.7v-10.2c0-2.3.2-4.2.7-5.6.5-1.5,1.2-2.7,2.1-3.7.9-.9,2-1.7,3.2-2.3,1.2-.5,2.6-1,4.1-1.4l8.6-2.5c.7-.2,1.1-.4,1.4-.7.3-.3.4-.8.4-1.4s0-1-.4-1.2-.7-.4-1.4-.4h-14c-.8,0-1.4-.2-1.8-.5-.3-.4-.5-.9-.5-1.7v-6.9c0-.7.2-1.3.5-1.6.4-.4,1-.5,1.8-.5h19c3.7,0,6.4.8,8.4,2.5s3,4.1,3,7.3v5.6c0,3-.9,5.2-2.7,6.8-1.8,1.6-4.3,2.8-7.3,3.7l-8.8,2.5c-.6.2-1.1.3-1.4.5-.2.2-.3.6-.3,1.2v1.2h18.4c.8,0,1.4.2,1.7.5.4.3.6.8.6,1.6v6.9c0,.7-.2,1.3-.6,1.7-.3.3-.9.5-1.7.5h0v.3ZM58,94.3h-28.5c-.8,0-1.4-.2-1.8-.5-.3-.4-.5-.9-.5-1.7v-7.2c0-.7.2-1.3.5-1.6.4-.4,1-.5,1.8-.5h7.2v-19.8h-5.9c-.8,0-1.4-.2-1.8-.5-.3-.4-.5-.9-.5-1.7v-7.2c0-.7.2-1.3.5-1.6.4-.4,1-.5,1.8-.5h18.7c.8,0,1.4.2,1.7.5.4.3.6.8.6,1.6v29.1h6.2c.8,0,1.4.2,1.7.5.4.3.6.8.6,1.6v7.2c0,.7-.2,1.3-.6,1.7-.3.3-.9.5-1.7.5h0Z"/>
    <path class="st13" d="M112.4,30.1h-4.2c-.3,0-.6,0-.7-.2,0-.1-.2-.4-.2-.7v-3.2l-3.9-5.1c-.3-.4-.6-.9-.8-1.3,0-.6-.2-1.1-.2-1.7v-4.8c0-.3,0-.5.2-.7s.4-.2.7-.2h4c.3,0,.6,0,.7.2.2.1.2.4.2.7v4.6c0,.2,0,.4.2.5l1.2,1.8c0,.1.2.2.3.3,0,0,.2.1.4.1h.3c0,0,.3,0,.3-.1,0,0,.2-.2.3-.3l1.2-1.8c0-.2.2-.3.2-.5v-4.6c0-.3,0-.5.2-.7.2-.1.4-.2.7-.2h3.8c.3,0,.6,0,.7.2.2.1.2.4.2.7v4.8c0,.8,0,1.3-.2,1.7-.2.5-.5.9-.8,1.3l-3.9,5.1v3.2c0,.3,0,.5-.2.7s-.4.2-.7.2h0ZM91.5,17.4l-1.2,3.8h4.1l-1.2-3.8c0-.1,0-.2-.2-.3h-1.2s-.2.2-.2.3h-.1ZM90,29.2c0,.3,0,.5-.2.7s-.4.2-.7.2h-3.8c-.3,0-.6,0-.7-.2,0-.1-.2-.4-.2-.7v-6.6c0-.5,0-1.1.2-1.7s.4-1.4.8-2.3l2.2-5.6c0-.2.2-.5.5-.6s.6-.2.9-.2h6.9c.3,0,.6,0,.8.2.2.1.4.3.5.6l2.2,5.6c.3.7.6,1.5.7,2.3.2.6.3,1.2.3,1.7v6.6c0,.3,0,.5-.2.7s-.4.2-.7.2h-3.9c-.3,0-.6,0-.8-.2-.2-.1-.2-.4-.2-.7v-3.5h-4.6v3.5h0ZM75.1,30.1h-8.7c-.3,0-.6,0-.7-.2,0-.1-.2-.4-.2-.7V13.1c0-.3,0-.5.2-.7s.4-.2.7-.2h8.7c2.2,0,3.7.4,4.8,1.2,1.1.8,1.6,2.1,1.6,3.8v7.8c0,1.7-.5,3-1.6,3.8-1,.8-2.6,1.2-4.8,1.2h0ZM71.4,16.9v8.4h3.1c.4,0,.7-.1.9-.3.2-.2.3-.5.3-.9v-6c0-.4,0-.7-.3-.9-.2-.2-.5-.3-.9-.3,0,0-3.1,0-3.1,0ZM50.9,30.1h-3.9c-.3,0-.6,0-.7-.2,0-.1-.2-.4-.2-.7V13.1c0-.3,0-.5.2-.7s.4-.2.7-.2h2.7c.3,0,.6,0,.8.1s.5.3.7.5l5,5.5v-5.3c0-.3,0-.5.2-.7.2-.1.4-.2.7-.2h3.9c.3,0,.6,0,.7.2.2.1.2.4.2.7v16.1c0,.3,0,.5-.2.7,0,.1-.4.2-.7.2h-3.9c-.3,0-.6,0-.7-.2,0-.1-.2-.4-.2-.7v-3.1l-4.4-5.1v8.2c0,.3,0,.5-.2.7,0,.1-.4.2-.7.2h0ZM42.7,25.4c0,.8,0,1.5-.4,2.1-.2.6-.6,1.1-1.2,1.6-.6.4-1.4.8-2.4,1s-2.3.4-3.9.4-2.9-.1-3.9-.4c-1-.2-1.9-.6-2.5-1s-1-1-1.2-1.6c-.2-.7-.3-1.4-.3-2.1v-12.3c0-.3,0-.5.2-.7s.4-.2.7-.2h4.1c.3,0,.6,0,.7.2.2.1.2.4.2.7v11.3c0,.3,0,.6.4.8.3.2.8.3,1.7.3s1.5-.1,1.8-.3c.2-.2.4-.5.4-.8v-11.3c0-.3,0-.5.2-.7s.4-.2.7-.2h3.9c.3,0,.6,0,.7.2.2.1.2.4.2.7v12.3h-.1ZM18.7,30.1h-8.2c-.3,0-.6,0-.7-.2-.1-.1-.2-.4-.2-.7v-2.9c0-.3,0-.5.2-.7s.4-.2.7-.2h6.9c.2,0,.4,0,.5-.2.1-.1.2-.3.2-.5,0-.3,0-.5-.2-.6-.1-.1-.3-.2-.5-.2l-3.9-.5c-1.2-.2-2.2-.5-2.9-1.1s-1.1-1.6-1.1-3v-2.6c0-1.4.5-2.5,1.4-3.2.9-.8,2.3-1.1,3.9-1.1h7.2c.3,0,.6,0,.7.2.2.1.2.4.2.7v3c0,.3,0,.5-.2.7s-.4.2-.7.2h-6c-.2,0-.4,0-.5.2-.1.1-.2.3-.2.5s0,.4.2.5c.1.2.3.2.5.2l3.8.5c1.2.2,2.2.5,2.9,1.1.7.6,1.1,1.6,1.1,3v2.6c0,1.4-.5,2.5-1.4,3.3-.9.7-2.2,1.1-3.9,1.1h.2Z"/>
  </g>
  <g class="st4">
    <ellipse class="st3" cx="63.9" cy="64.7" rx="42.3" ry="42"/>
    <path class="st15" d="M106.2,63.2c0,23.2-18.9,42-42.3,42s-22.9-5-30.6-12.9c-7.3-7.5-6.1-15-6.1-26.3,0-23.2,13-38.2,36.4-38.2s42.6,12.3,42.6,35.5h0Z"/>
    <path class="st7" d="M63.9,22.7c-23.4,0-42.3,18.8-42.3,42s4.5,21.8,12.4,29.7l29.9-29.7h42.3c0-23.2-18.9-42-42.3-42Z"/>
    <path class="st14" d="M106.2,63.2h-42.3V21.2c23.4,0,42.3,18.8,42.3,42Z"/>
    <path class="st24" d="M63.9,21.2c-23.4,0-42.3,18.8-42.3,42s4.5,21.8,12.4,29.7l29.9-29.7V21.2Z"/>
    <path class="st11" d="M63.9,56.9l-29.9,29.7c-7.2-7.1-11.5-16.6-12.3-26.7,0,1.1-.1,2.2-.2,3.3,0,11.1,4.5,21.8,12.4,29.7l29.9-29.7v-6.3h0Z"/>
    <path class="st25" d="M63.9,54.2v9h42.3c0-3.1-.4-6.1-1-9,0,0-41.3,0-41.3,0Z"/>
    <path class="st5" d="M63.9,21.2c-23.4,0-42.3,18.8-42.3,42v.7c.4-22.9,19.2-41.2,42.3-41.2s41.8,18.3,42.3,41.2v-.7c0-23.2-18.9-42-42.3-42Z"/>
  </g>
  <g class="st4">
    <ellipse class="st8" cx="64.5" cy="66.5" rx="40.5" ry="40.6"/>
    <ellipse class="st28" cx="64.5" cy="65" rx="39.5" ry="39.6"/>
    <path class="st1" d="M89.1,65c0,9.4-2.1,19.3-5.4,26.7,2.7,1.4,4.8,2.9,6.5,4.8,9.2-7.6,14.6-19.5,14.8-31.4h-15.9Z"/>
    <path class="st20" d="M64.5,65v40.6c1.4,0,3-5.8,4.4-6,1.6-.2,3.1,5.3,4.6,4.9,9.1-6.4,15.6-21.3,15.6-39.6h-24.6Z"/>
    <path class="st1" d="M64.5,86.8v18.9c3,0,6.1-.3,9-1,3.9-2.7,7.5-7.1,10.1-12.9-5.3-2.7-12.2-4.9-19.2-4.9h.1Z"/>
    <path class="st26" d="M83.7,91.7c-2.6,5.8-6.2,10.2-10.1,12.9,6.1-1.4,11.8-4.2,16.6-8.2-1.7-1.8-3.9-3.4-6.5-4.8h0Z"/>
    <path class="st20" d="M64.5,24.4c5.8,0,4,7.8,9,10,3.5,1.5,13.9-3.1,16.8-.8,9,7.4,14.7,18.7,14.7,31.3s0-.2,0,0h-40.5V24.4Z"/>
    <path class="st28" d="M73.5,25.4c6.1,1.4,11.8,4.2,16.6,8.2-1.7,1.8-3.9,3.5-6.5,4.8-2.6-5.8-6.2-10.3-10.1-13Z"/>
    <path class="st28" d="M64.5,24.4c1.4,0,4.3,5.3,5.7,5.5,1.6.2,1.8-4.8,3.3-4.4,9.2,6.5,15.6,22.2,15.6,39.6s0-.2,0,0h-24.6V24.4Z"/>
    <path class="st18" d="M64.5,24.4c3,0,6.1.3,9,1,3.9,2.8,7.5,7.2,10.1,13-5.3,2.7-12.2,4.8-19.1,4.8v-18.9h0Z"/>
    <path class="st18" d="M39.9,65c0,9.4,2.1,19.3,5.4,26.6-2.7,1.4-4.8,3-6.5,4.8-9.2-7.6-14.6-19.5-14.8-31.4h15.9Z"/>
    <path class="st28" d="M64.5,65v40.6c-1.4,0-3.9-6.7-5.3-6.9-1.6-.2-2.2,6.2-3.8,5.8-9.1-6.4-15.6-21.3-15.6-39.6h24.7Z"/>
    <path class="st20" d="M64.5,86.8v18.9c-3,0-6.1-.3-9-1-3.9-2.7-7.5-7.2-10.1-13,5.3-2.7,12.2-4.9,19.2-4.9h-.1Z"/>
    <path class="st28" d="M45.3,91.7c2.6,5.8,6.2,10.2,10.1,13-6.1-1.4-11.8-4.2-16.6-8.2,1.7-1.8,3.9-3.4,6.5-4.8Z"/>
    <path class="st30" d="M64.5,24.4c-5,0-6.3,8.3-10.7,10-4.2,1.6-11.6-3.5-15-.7-9,7.4-14.7,18.7-14.7,31.3s0-.2,0,0h40.5V24.4h0Z"/>
    <path class="st19" d="M55.5,25.4c-6.1,1.4-11.8,4.2-16.6,8.2,1.7,1.8,3.9,3.5,6.6,4.8,2.8-5.8,6.2-10.3,10.1-13h0Z"/>
    <path class="st18" d="M64.5,24.4c-1.4,0-3.6,9.9-5,10-1.6.2-2.5-9.4-4.1-9-9.2,6.5-15.6,22.2-15.6,39.6s0-.2,0,0h24.6V24.4h0Z"/>
    <path class="st30" d="M64.5,24.4c-3,0-6.1.3-9,1-3.9,2.8-7.4,7.2-10.1,13,5.3,2.7,12.2,4.8,19.1,4.8v-18.9h0Z"/>
    <path class="st9" d="M64.5,24.4c-22.4,0-40.5,18.2-40.5,40.6v.7c.4-22.1,18.4-39.9,40.5-39.9s40.1,17.8,40.5,39.9v-.7c0-22.4-18.1-40.6-40.5-40.6Z"/>
  </g>
  <g>
    <path class="st0" d="M128,25.7v-.6c0-20.6-21.3-25.1-26.1-25.1H25.9C21.1,0,.2,3.9.2,25.7H.2v23.1h127.6v-9.6c0-.2,0-.3,0-.5l.2-13"/>
    <path class="st29" d="M128,101.8h0l-.2-54.8H.2v9.6c0,.2,0,.3,0,.5v44.7c0,.2,0-.2,0,0H.2c-.4,6.1,5.4,26.3,25.7,26h76c23.4.3,25.4-20.7,26.1-26h0Z"/>
    <path class="st10" d="M60.7,85.3c-.7.9-1.2,1.6-2.7,3.1-.8.9-1.7,1.8-2.6,2.8-2.7,2.9-3.2,3.6-3.8,6h10.6v6.8h-18.5v-2.9c0-4,.9-7,3.2-10,1.6-2.1,3.5-3.9,5.3-5.9,2.6-2.8,3.1-3.5,3.1-6v-2.7c0-.7,0-3.3-2.4-3.3-1.6,0-2.2,1.1-2.4,1.8,0,.3-.1.7-.1,1.5v5.1h-6.5v-4.6c0-2.7.1-5.1,2-7.1,1.2-1.4,3.4-2.7,7.2-2.7s5.6,1.3,6.9,2.5c.3.3,1.2,1.2,1.7,2.6.4,1.1.5,2.3.5,4.8,0,3.1,0,5.5-1.6,8.1h0ZM83.3,100.6c-.4.8-1.1,1.4-1.3,1.6-2.6,2.5-5.9,2.4-6.9,2.4-3.5,0-5.6-1.3-6.7-2.4-.9-.9-1.4-1.8-1.8-3.1-.5-1.8-.5-3.6-.5-5.4v-16.4c0-.7,0-1.4,0-2,0-.8.2-3.1,1.6-4.9,1.2-1.7,3.3-3,7.3-3s7.3.9,8.6,4.7c.4,1.1.5,1.9.5,4.2v2.5h-6.4v-1.9c0-.7,0-3.1-2.3-3.1s-2.6,2.6-2.6,3.4v6.7c.9-1,2-2.3,4.8-2.3s5.7,2.2,6.3,3.9c.3.9.4,1.5.4,3.3v5.9c0,2,0,4.1-1,5.9h0ZM77.6,90.2c0-.8.2-3.7-2.4-3.7s-1.1.1-1.6.6c-.9.9-.8,2.2-.8,3.4v4.4c0,.9-.2,3.5,2.5,3.5s1.2-.3,1.6-.6c.8-.8.8-2,.8-4.3,0-1,0-2.1,0-3.2h0Z"/>
    <path class="st12" d="M56.1,34.5v-13.7l-2.5,13.7h-3.5l-2.5-13.7v13.7h-3.5V15.5h5.3l2.4,14,2.4-14h5.4v19h-3.5ZM69,34.5l-.6-4.3h-3l-.6,4.3h-3.9l3.3-19h5.3l3.3,19h-3.9ZM66.9,18.5l-1.1,8.5h2.2l-1.1-8.5ZM79.8,27.9v6.7h-3.9v-6.7l-3.9-12.3h3.9l2,8.4,2-8.4h4l-4.1,12.3h0Z"/>
  </g>
</svg>
