<?xml version="1.0" encoding="UTF-8" standalone="no"?>
<svg
   id="_图层_1"
   version="1.1"
   viewBox="0 0 64 64" width="16" height="16"
   sodipodi:docname="openarena.svg"
   xml:space="preserve"
   inkscape:version="1.4 (e7c3feb100, 2024-10-09)"
   xmlns:inkscape="http://www.inkscape.org/namespaces/inkscape"
   xmlns:sodipodi="http://sodipodi.sourceforge.net/DTD/sodipodi-0.dtd"
   xmlns="http://www.w3.org/2000/svg"
   xmlns:svg="http://www.w3.org/2000/svg"><sodipodi:namedview
     id="namedview26"
     pagecolor="#505050"
     bordercolor="#eeeeee"
     borderopacity="1"
     inkscape:showpageshadow="0"
     inkscape:pageopacity="0"
     inkscape:pagecheckerboard="0"
     inkscape:deskcolor="#505050"
     inkscape:zoom="10.6875"
     inkscape:cx="32"
     inkscape:cy="24.51462"
     inkscape:window-width="1920"
     inkscape:window-height="939"
     inkscape:window-x="0"
     inkscape:window-y="34"
     inkscape:window-maximized="1"
     inkscape:current-layer="_图层_1"
     showguides="true"><sodipodi:guide
       position="24.129209,43.688782"
       orientation="1,0"
       id="guide47"
       inkscape:locked="false" /><sodipodi:guide
       position="39.990611,54.528988"
       orientation="1,0"
       id="guide48"
       inkscape:locked="false" /><sodipodi:guide
       position="31.294665,46.979418"
       orientation="0,-1"
       id="guide49"
       inkscape:locked="false" /><sodipodi:guide
       position="22.407535,30.743878"
       orientation="0,-1"
       id="guide50"
       inkscape:locked="false" /></sodipodi:namedview><!-- Generator: Adobe Illustrator 29.0.1, SVG Export Plug-In . SVG Version: 2.1.0 Build 192)  --><defs
     id="defs6"><style
       id="style1">
      .st0 {
        fill-opacity: .5;
      }

      .st0, .st1, .st2, .st3, .st4, .st5, .st6, .st7 {
        fill: #fff;
      }

      .st8 {
        fill: #133c9a;
      }

      .st2, .st9 {
        display: none;
      }

      .st3 {
        fill-opacity: .2;
      }

      .st4 {
        fill-opacity: .9;
      }

      .st10 {
        fill: #3370ff;
      }

      .st11 {
        fill: url(#_未命名的渐变_3);
      }

      .st12 {
        fill: url(#_未命名的渐变);
      }

      .st5 {
        fill-opacity: .3;
      }

      .st6 {
        fill-opacity: 0;
      }

      .st7 {
        fill-opacity: .7;
      }

      .st13 {
        fill: #00d6b9;
      }

      .st14 {
        fill: url(#_未命名的渐变_2);
      }
    </style><radialGradient
       id="_未命名的渐变"
       data-name="未命名的渐变"
       cx="123.9"
       cy="-40.2"
       fx="123.9"
       fy="-40.2"
       r="59.4"
       gradientTransform="translate(-26.8 25.5) scale(.6 -.7)"
       gradientUnits="userSpaceOnUse"><stop
         offset="0"
         stop-color="#db202e"
         id="stop1" /><stop
         offset="1"
         stop-color="#e01b24"
         id="stop2" /></radialGradient><radialGradient
       id="_未命名的渐变_2"
       data-name="未命名的渐变 2"
       cx="67.6"
       cy="26.8"
       fx="67.6"
       fy="26.8"
       r="105.2"
       gradientTransform="translate(-26.6 25.3) scale(.6 -.7)"
       gradientUnits="userSpaceOnUse"><stop
         offset="0"
         stop-color="#ffb648"
         id="stop3" /><stop
         offset="1"
         stop-color="#ff7800"
         stop-opacity="0"
         id="stop4" /></radialGradient><radialGradient
       id="_未命名的渐变_3"
       data-name="未命名的渐变 3"
       cx="61.7"
       cy="18.6"
       fx="61.7"
       fy="18.6"
       r="68"
       gradientTransform="translate(-26.8 25.8) scale(.6 -.7)"
       gradientUnits="userSpaceOnUse"><stop
         offset="0"
         stop-color="#c64600"
         id="stop5" /><stop
         offset="1"
         stop-color="#a51d2d"
         id="stop6" /></radialGradient></defs><path
     class="st1"
     d="M47.5,64.1H13.8c-7.6,0-13.8-6.3-13.8-13.8V13.7C0,6.2,6.2,0,13.7,0h36.6c7.5,0,13.7,6.2,13.7,13.7v36.6c0,7.5-6.2,13.7-13.7,13.7h-2.9.1Z"
     id="path6"
     style="fill:#303877;fill-opacity:1" /><g
     id="g56"
     transform="matrix(1.1403509,0,0,1.1411716,-4.4912281,-4.4331077)"><path
       style="opacity:0.2"
       d="m 31.9996,19.000601 c -4.395337,0.0042 -8.783274,1.080224 -12.132626,3.206954 -7.362495,4.676733 -7.869488,12.768617 -1.105445,17.737946 0.621971,0.448334 1.187143,0.867228 1.257802,0.921867 l -1.871573,3.327952 3.851545,2.80396 9.999857,-16.639762 9.999857,16.639762 3.851945,-2.80396 -1.871973,-3.327952 c 0.07064,-0.05464 0.635831,-0.473533 1.257802,-0.921867 6.764103,-4.969529 6.25691,-13.062813 -1.105464,-17.737946 -3.347953,-2.12797 -7.73589,-3.203954 -12.131827,-3.207954 z m -1.011706,1.999971 -8.999871,15.999771 c -9.999857,-7.999885 0.999986,-15.999771 8.999871,-15.999771 z m 2.011972,0 c 7.999885,0 18.999728,7.999886 8.999871,15.999771 z m -0.999986,13.9998 -3.999943,5.995914 3.999943,6.003914 3.999943,-6.003914 z"
       id="path2" /><path
       style="fill:#9c9c9c"
       d="m 31.9996,18.000629 c -4.395937,0.0042 -8.783874,1.080185 -12.132626,3.207954 -7.362495,4.675933 -7.869488,12.767818 -1.105385,17.737747 0.621791,0.447993 1.186983,0.865987 1.258182,0.921986 l -1.871573,3.327953 3.851545,2.80396 9.999857,-16.639762 9.999857,16.639762 3.851945,-2.80396 -1.871973,-3.327953 c 0.072,-0.056 0.635991,-0.473993 1.257982,-0.921986 6.763903,-4.969929 6.25791,-13.063814 -1.105984,-17.737747 -3.347953,-2.127769 -7.73589,-3.203754 -12.131827,-3.207954 z m -1.011986,1.999972 -8.999871,15.999771 c -9.999657,-7.999886 0.999986,-15.999771 8.999871,-15.999771 z m 2.011972,0 c 7.999885,0 18.999728,7.999885 8.999871,15.999771 z M 31.9996,34.0004 l -3.999943,5.995915 3.999943,6.003914 3.999943,-6.003914 z"
       id="path3" /></g></svg>
