<?xml version="1.0" encoding="UTF-8"?>
<svg id="_图层_1" data-name="图层_1" xmlns="http://www.w3.org/2000/svg" version="1.1" viewBox="0 0 1024 1024" width="16" height="16">
  <!-- Generator: Adobe Illustrator 29.0.1, SVG Export Plug-In . SVG Version: 2.1.0 Build 192)  -->
  <defs>
    <style>
      .st0 {
        fill: #fe3838;
      }

      .st1 {
        fill: #4daf7c;
      }

      .st2 {
        fill: #cfd3d4;
      }

      .st3, .st4, .st5, .st6, .st7, .st8, .st9, .st10, .st11, .st12, .st13 {
        isolation: isolate;
      }

      .st3, .st5, .st7, .st8, .st13 {
        opacity: .1;
      }

      .st3, .st6, .st14, .st15, .st7, .st11, .st16 {
        fill-rule: evenodd;
      }

      .st4, .st5, .st17, .st18 {
        display: none;
      }

      .st4, .st6, .st10, .st12 {
        opacity: .2;
      }

      .st5, .st19, .st14, .st7, .st12, .st13 {
        fill: #fff;
      }

      .st20, .st16 {
        fill: #3f3f3f;
      }

      .st21 {
        fill: #3c3c3c;
      }

      .st15 {
        fill: #645b44;
      }

      .st22 {
        fill: #3168b2;
      }

      .st23 {
        fill: #8a8a8a;
      }

      .st24 {
        fill: #f2f2f2;
      }

      .st25 {
        fill: #886c38;
      }

      .st26 {
        fill: #e2e4e5;
      }

      .st27 {
        fill: #7f80a1;
      }

      .st28 {
        fill: #691f69;
      }

      .st29 {
        fill: #ff9a0c;
      }

      .st30 {
        fill: #ff8686;
      }

      .st31 {
        fill: #8d348e;
      }

      .st9, .st11 {
        opacity: .3;
      }

      .st32 {
        fill: #17b198;
      }

      .st17 {
        fill: #fecd38;
      }

      .st33 {
        fill: #a159b2;
      }

      .st34 {
        fill: #e4e4e4;
      }

      .st35 {
        fill: #fefefe;
      }

      .st36 {
        fill: #fafafa;
      }

      .st37 {
        fill: #0d65d7;
      }

      .st38 {
        fill: #ffc20c;
      }

      .st39 {
        fill: #5ed698;
      }
    </style>
  </defs>
  <rect class="st12" x="24" y="14" width="983" height="989" rx="168.5" ry="168.5"/>
  <g class="st18">
    <path class="st10" d="M182.5,519.8v14.2c0,178.5,142.9,322.2,317.1,322.2s317.1-143.7,317.1-322.2v-9.5c-7.8,172.2-147.6,308-317.1,309.6-171.1,0-312.4-139-317.1-312.7h0v-1.6Z"/>
    <path class="st25" d="M506.5,194.3c-177.6,0-320.3,145.2-320.3,325.4s144.3,325.4,320.3,325.4,320.3-145.2,320.3-325.4-144.3-325.4-320.3-325.4Z"/>
    <path class="st12" d="M499.6,195.9c-175.8,0-317.1,143.7-317.1,322.2v4.7c3.1-175.3,144.4-315.9,317.1-315.9h0c174.2,0,315.5,142.1,317.1,317.5v-6.3c0-178.5-142.9-322.2-317.1-322.2h0Z"/>
    <path class="st10" d="M531.4,277.2v231.3h228.3c-11.1-122.8-106.2-220.1-228.3-231.3h0ZM483.8,277.2c-120.5,11.2-217.2,108.5-228.3,231.3h228.3v-231.3h0ZM255.5,556.4c11.1,122.8,106.2,220.1,228.3,231.3v-231.3h-228.3ZM531.4,556.4v231.3c120.5-11.2,217.2-108.5,228.3-231.3h-228.3Z"/>
    <path class="st19" d="M531.4,261.2v231.3h228.3c-11.1-122.8-106.2-220.1-228.3-231.3ZM483.8,261.2c-120.5,11.2-217.2,108.5-228.3,231.3h228.3v-231.3ZM255.5,540.4c11.1,122.8,106.2,220.1,228.3,231.3v-231.3h-228.3ZM531.4,540.4v231.3c120.5-11.2,217.2-108.5,228.3-231.3h-228.3Z"/>
  </g>
  <rect class="st10" x="24" y="27" width="983" height="976" rx="168.5" ry="168.5"/>
  <rect class="st34" x="24" y="23" width="983" height="969" rx="168.5" ry="168.5"/>
  <g class="st18">
    <path class="st8" d="M656.5,220.5l-121.5,202.4,58.6,32.6,121.6-202.4-58.7-32.6Z"/>
    <path class="st8" d="M426.6,603.2l-119.7,199.3,58.7,32.6,119.7-199.3-58.7-32.6Z"/>
    <path class="st27" d="M426.6,586.9l-119.7,199.3,58.7,32.6,119.7-199.3-58.7-32.6Z"/>
    <path class="st37" d="M656.5,204.2l-121.5,202.4,58.6,32.6,121.6-202.4-58.7-32.6Z"/>
    <path class="st8" d="M315.8,392.8l-136.8,228.1,136.8,228.1h273.7l136.8-228.1-136.8-228.1h-273.7ZM354.9,458h195.5l97.8,162.9-97.8,162.9h-195.5l-97.8-162.9,97.8-162.9Z"/>
    <path class="st27" d="M315.8,376.5l-136.8,228.1,136.8,228.1h273.7l136.8-228.1-136.8-228.1h-273.7ZM354.9,441.7h195.5l97.8,162.9-97.8,162.9h-195.5l-97.8-162.9,97.8-162.9Z"/>
    <path class="st8" d="M433.5,197.3l-136.8,228.1,136.8,228.1h273.7l136.8-228.1-136.8-228.1h-273.8ZM472.5,262.5h195.6l97.7,162.9-97.8,162.9h-195.5l-97.8-162.9,97.8-162.9Z"/>
    <path class="st37" d="M433.5,181l-136.8,228.1,136.8,228.1h273.7l136.8-228.1-136.8-228.1h-273.8ZM472.5,246.2h195.6l97.7,162.9-97.8,162.9h-195.5l-97.8-162.9,97.8-162.9Z"/>
  </g>
  <g class="st18">
    <path class="st4" d="M28.7,497.3c-.2,5.5-.8,10.8-.8,16.4,0,253.9,207,458.3,464,458.3s464-204.4,464-458.3-.6-10.9-.8-16.4c-8.8,246.2-211.7,441.9-463.2,441.9S37.5,743.5,28.7,497.3h0Z"/>
    <path class="st17" d="M488,39h0c256.3,0,464,205.2,464,458.3h0c0,253.1-207.8,458.3-464,458.3h0c-256.3,0-464-205.2-464-458.3h0c0-253.1,207.8-458.3,464-458.3Z"/>
    <path class="st10" d="M189.7,317.3v98.2h66.3v294.6h99.4v-392.8h-165.7ZM624.5,317.3c-85.4,0-163.6,53-189,133.5-42.6,135.2,58.5,259.3,189,259.3h269.2c17.9-30.7,32.5-63.5,42.9-98.2h-308.4c-50.8,0-96.3-36.1-102.5-85.9-7.3-59.7,39.7-110.5,98.7-110.5,28.2,0,55.1,12,73.9,32.7h113.3c-28-78.4-103-130.8-187.2-130.9h0Z"/>
    <path class="st0" d="M189.7,300.9v98.2h66.3v294.6h99.4v-392.8h-165.7ZM624.5,300.9c-85.4,0-163.6,53-189,133.5-42.6,135.2,58.5,259.3,189,259.3h286.5c14.9-31,26.6-63.8,34.1-98.2h-316.8c-50.8,0-96.3-36.1-102.5-85.9-7.3-59.7,39.7-110.5,98.7-110.5,28.2,0,55.1,12,73.9,32.7h113.3c-28-78.4-103-130.8-187.2-130.9h0Z"/>
    <path class="st5" d="M491.9,41C234.9,41,27.9,245.3,27.9,499.2s.2,3.7.3,5.5C34,255.9,238.6,57.3,491.9,57.3s457.9,198.6,463.8,447.5c.1-1.8.3-3.6.3-5.5,0-253.9-207-458.3-464.1-458.3Z"/>
  </g>
  <g class="st18">
    <path class="st1" d="M637.8,515.4h-83.4c-3.4,0-6.6.3-9.7,1s-5.9,1.6-8.3,3c-7.2,3.1-13.1,7.7-17.6,13.8-4.5,6.1-6.8,12.9-6.8,20.4v115h-61.8c-11.5,0-18.5,2.6-20.8,7.9s.5,11.6,8.6,19.1l128.6,117.7c3.8,3.5,8.4,6.2,13.7,8.2s10.6,3,15.8,3,10.6-1,15.8-3,9.8-4.7,13.7-8.2l128.6-117.7c8.1-7.4,11-13.8,8.6-19.1s-9.3-7.9-20.8-7.9h-61.8v-115c0-10.5-4.2-19.5-12.6-27-8.4-7.4-18.3-11.2-29.8-11.2h0Z"/>
    <path class="st39" d="M478.3,179.6c-16.3-2.6-30.2.8-41.7,10.2-11.5,9.4-17.2,21.6-17.2,36.5v309.6c-9.6-3.1-19.5-5.5-29.8-7.2s-20.7-2.6-31.3-2.6c-24.4,0-47.6,4.4-69.7,13.1-21.6,8.3-40.4,19.9-56.4,34.5-16,14.7-28.9,32.1-38.4,52.3-9.1,19.7-13.7,40.8-13.7,63.1s4.5,43.6,13.7,63.8c9.6,19.7,22.4,36.9,38.4,51.6,16,14.7,34.9,26.4,56.4,35.2,22.1,8.3,45.3,12.5,69.7,12.5s53.8-5.5,78-16.4c24.2-11,44.4-25.8,60.7-44.7l-81.9-74.3c-12.4-11.4-18.5-21.8-18.3-31.2s1.3-16.1,3.2-20c1.4-3.9,5.9-9.3,13.3-16.1s19.8-10.2,37-10.2h29.5v-85.5c0-15.8,5.4-29.8,16.2-42.1s24.3-20.2,40.6-23.7v-122.9c57.5,0,101.1,7,130.8,21,29.3,13.6,49.4,30.6,60.4,50.9,11,20.4,15.1,42.2,12.2,65.4-2.4,22.8-7,43.2-13.7,61.1-5.2,14.5-6.5,22.7-3.6,24.6s9.8-2.5,20.8-13.5c70.4-70.1,103.5-128.8,99.2-176.2-4.3-47.8-27-86.9-67.9-117.3-41-30.4-90.9-53.4-149.8-68.7-58.9-15.8-107.8-26.8-146.6-32.9h0Z"/>
  </g>
  <g class="st18">
    <path class="st35" d="M279.2,183.4l235.2,121c36.5,28.4,47.1,56.8,31.9,85.2l-83.3,203.9,2.5,2.2,152.7-79.9-2.5-3-13.1-9c-5.6-4.8-9.4-8.5-11.4-11.2-1.3-1.8-3.3-5.8-5.7-12-3.1-7.5-5-12.9-5.7-16.4-1.5-8-2-14.8-1.6-20.2.2-4,1.6-8.9,4.1-14.9,1.7-4.3,4.2-8.5,7.4-12.7,4.4-6,8.4-10.5,12.3-13.4,6.5-5.1,13.8-9.6,22.1-13.4,4.7-2.1,10.1-3.6,16.3-4.5,2.4-.4,7.8-.4,16.3,0,8,.4,13.7.9,17.2,1.5,4.4,1,6.8,2,7.4,3l99.6,51.5,27.8,15.7c6.1,3.6,9.9,6.1,11.4,7.5,6.8,6.2,11.4,11.5,13.9,15.7,5.3,8.9,8,16.4,8.2,22.4.4,17.4-1.8,30.6-6.5,39.6-10.9,20.4-21.2,30.9-31,31.4l-72.7,39.6-176.4,92.6-272.8,144.9c-4.4,2-7.6,2-9.8,0l-16.3,1.5c-6.6-.3-12.8-1.3-18.8-3-7.9-2.1-14.7-4.8-20.4-8.2-5.6-3.3-11.1-7.8-16.3-13.4-3.5-3.8-6.2-8-8.2-12.7-3.5-8.3-5.7-15.8-6.5-22.4-.9-7-.6-14.2.8-21.7.6-3.4,2.8-8.6,6.5-15.7,3-5.8,6-10.3,9-13.4,5.7-5.8,11.7-10.7,18-14.9,1-.7,7-3.6,18-9l9.8-4.5,9.8-5.2,3.3-3.7,23.7-61.3,102.1-243.5v-3l-101.3-53-71.1-38.1c-2-1.2-5-3.4-9-6.7-5-4.2-8-6.9-9-8.2-5-6.7-8.8-13.2-11.4-19.4-2.1-4.6-3.1-9.8-3.3-15.7-.4-10.3.4-18.5,2.5-24.7,2.4-7.9,6.7-15.6,13.1-23.2,3.5-3.9,10-9.2,19.6-15.7,5.9-4.1,11.1-6.8,15.5-8.2,2.8-.9,8.6-1.7,17.2-2.2,6.7-.3,12.1-.3,16.3,0,6.5.5,10.9,1.2,13.1,2.2Z"/>
  </g>
  <g class="st18">
    <ellipse class="st10" cx="513" cy="523.4" rx="333" ry="330.6"/>
    <ellipse class="st31" cx="513" cy="511.6" rx="333" ry="330.6"/>
    <ellipse class="st9" cx="542.7" cy="482" rx="243.8" ry="242.1"/>
    <ellipse class="st10" cx="513" cy="523.4" rx="166.5" ry="165.3"/>
    <ellipse class="st19" cx="513" cy="511.6" rx="166.5" ry="165.3"/>
    <path class="st28" d="M578.4,511.6l-62.4,35.4-62.4,35.4v-141.7l62.4,35.4,62.4,35.4Z"/>
    <path class="st13" d="M513,180.9c-183.9,0-333,148-333,330.6,0,2.3.1,4.6.3,6.9,2.7-180.6,150.8-325.6,332.7-325.7,181.1,0,329,143.9,332.7,323.7,0-1.6.2-3.3.3-4.9,0-182.6-149.1-330.6-333-330.6Z"/>
  </g>
  <g class="st18">
    <path class="st10" d="M272.9,280.1C92.2,443.3,11.3,675.8,56.2,902.9c251.8,40.8,509.8-32,691-195,180.7-163.2,261.6-395.7,216.7-622.8-251.8-40.8-509.8,32-691,195h0Z"/>
    <ellipse class="st9" cx="510" cy="494" rx="199.7" ry="180"/>
    <ellipse class="st38" cx="510" cy="494" rx="133.1" ry="120"/>
    <g>
      <ellipse class="st9" cx="776.3" cy="254" rx="99.9" ry="90"/>
      <ellipse class="st38" cx="776.3" cy="254" rx="66.6" ry="60"/>
    </g>
    <g>
      <ellipse class="st9" cx="243.7" cy="734" rx="99.9" ry="90"/>
      <ellipse class="st38" cx="243.7" cy="734" rx="66.6" ry="60"/>
    </g>
  </g>
  <g class="st18">
    <path class="st6" d="M798.8,193c-5.5-.9-10.4,2.3-13.4,6-3,3.7-5,8.2-6.8,14-3.1,9.9-14.5,46.8-55.7,83.2-41.1,36.4-112.1,96.7-235,100-74.8.9-120.2-45.1-150-106.3-7.4-15.3-19.2-43.8-19.2-25.7v28l-.4,145.1.8,1.9s6.7,15.5-.4,36.3c-7.1,20.8-40.2,51.2-102.6,70.7l-7.6,2.4,1.4,8.3c3.5,20.2,17.2,40.9,37.6,62.1,20.4,21.2,47.6,42.7,79.4,62,63.5,38.8,144.8,69.4,223.8,70.9,79,1.4,156.3-27.3,207.4-106.7,51.1-79.5,76.1-231.2,55.7-428.7h0c-.6-5.4-1.8-10.1-3.9-14.1-2.1-4.1-5.5-8.2-11-9.2h0Z"/>
    <path class="st15" d="M798.8,180.3c-5.5-.9-10.4,2.3-13.4,6-3,3.7-5,8.2-6.8,14-3.1,9.9-14.5,46.8-55.7,83.2-41.1,36.4-112.1,96.7-235,100-74.8.9-120.2-45.1-150-106.3-7.4-15.3-19.2-43.8-19.2-25.7v28l-.4,145.1.8,1.9s6.7,15.5-.4,36.3c-7.1,20.8-40.2,51.2-102.6,70.7l-7.6,2.4,1.4,8.3c3.5,20.2,17.2,40.9,37.6,62.1,20.4,21.2,47.6,42.7,79.4,62,63.5,38.8,144.8,69.4,223.8,70.9,79,1.4,156.3-27.3,207.4-106.7,51.1-79.5,76.1-231.2,55.7-428.7h0c-.6-5.4-1.8-10.1-3.9-14.1-2.1-4.1-5.5-8.2-11-9.2h0Z"/>
    <path class="st7" d="M798.8,180.3c-5.5-.9-10.4,2.3-13.4,6-3,3.7-5,8.2-6.8,13.9-3.1,9.9-14.5,46.8-55.7,83.2-41.1,36.4-112.1,96.7-235,100-74.8.9-120.2-45.1-150-106.3-7.4-15.3-19.2-43.8-19.2-25.7v12.7c0-18.1,11.7,10.4,19.2,25.7,29.8,61.3,75.3,107.2,150,106.3,122.9-3.3,193.9-63.5,235-100,41.1-36.4,52.6-73.3,55.7-83.2,1.8-5.7,3.8-10.3,6.8-13.9,3-3.7,7.9-6.9,13.4-6h0c5.5,1.1,9,5.2,11.1,9.3,2.1,4.1,3.2,8.7,3.9,14.1h0c4.8,46,7,89.4,7,130.2.4-44.3-1.8-92-7-142.9h0c-.6-5.4-1.8-10.1-3.9-14.1-2.1-4.1-5.5-8.3-11.1-9.2h0ZM306.4,276.9v145.1h12.3c0,0-12.3-132.4-12.3-132.4v-12.7ZM314.3,447.1c-.4,4-1.2,8.4-2.9,13.2-7.1,20.8-40.4,51.2-103.1,70.7l-7.7,2.4,1.5,8.3c.2,1.2.6,2.4.8,3.6l5.4-1.6c62.7-19.4,96-49.8,103.1-70.7,3.5-10.4,3.6-19.4,2.9-25.9Z"/>
    <path class="st6" d="M385.3,380.9c-21.3,0-42.7,7.3-59.1,22.2-16.3,15-27.1,37.8-27.1,66.7s10.8,51.7,27.1,66.7c16.3,15,37.7,22.2,59.1,22.2s42.7-7.3,59.1-22.2c16.3-15,27.1-37.7,27.1-66.7s-10.8-51.8-27.1-66.7c-16.3-15-37.7-22.2-59.1-22.2Z"/>
    <path class="st6" d="M533,380.9c-21.3,0-42.7,7.3-59.1,22.2-16.3,15-27.1,37.8-27.1,66.7s10.8,51.7,27.1,66.7c16.3,15,37.7,22.2,59.1,22.2s42.7-7.3,59.1-22.2c16.3-15,27.1-37.7,27.1-66.7s-10.8-51.8-27.1-66.7c-16.3-15-37.7-22.2-59.1-22.2Z"/>
    <path class="st14" d="M385.3,368.2c-21.3,0-42.7,7.3-59.1,22.2-16.3,15-27.1,37.8-27.1,66.7s10.8,51.7,27.1,66.7c16.3,15,37.7,22.2,59.1,22.2s42.7-7.3,59.1-22.2c16.3-15,27.1-37.7,27.1-66.7s-10.8-51.8-27.1-66.7c-16.3-15-37.7-22.2-59.1-22.2Z"/>
    <path class="st16" d="M397.6,431.7c-9,0-18.2,3.1-25.2,9.6-7,6.5-11.7,16.4-11.7,28.6s4.6,22.1,11.7,28.6c7,6.5,16.2,9.6,25.2,9.6s18.2-3.1,25.2-9.6c7-6.5,11.7-16.4,11.7-28.6s-4.6-22.1-11.7-28.6c-7-6.5-16.2-9.6-25.2-9.6Z"/>
    <path class="st11" d="M367.9,627.2c33.8,0,64.6,1.8,92.5,0,46.4-3,87.2-8.3,107.8-25-8.7-11.8-11.2-24.7-11.2-24.7,0,0,26.2,11.3,39.9,29.7,13.6,18.4-4.8,29.7-8.3,53.2-7.9-20.6-12.9-28.4-14.9-36.6-14.4,20.8-39.2,35.8-72.5,36.6-35.5.9-80.6-13.6-133.3-33.1h0Z"/>
    <path class="st3" d="M224.8,419c-4.4,0-8.7.3-12.8.9-11.1,1.8-21.4,6-30.3,12.4-35.5,25.6-44.8,83.8-1,144.6,43.8,60.9,101.8,70.3,137.2,44.7,35.5-25.6,44.8-83.8,1-144.6-28.7-39.9-63.6-57.7-94.2-58h0Z"/>
    <path class="st16" d="M224.8,406.3c-4.4,0-8.7.3-12.8.9-11.1,1.8-21.4,6-30.3,12.4-35.5,25.6-44.8,83.8-1,144.6,43.8,60.9,101.8,70.3,137.2,44.7,35.5-25.6,44.8-83.8,1-144.6-28.7-39.9-63.6-57.7-94.2-58h0Z"/>
    <path class="st14" d="M533,368.2c-21.3,0-42.7,7.3-59.1,22.2-16.3,15-27.1,37.8-27.1,66.7s10.8,51.7,27.1,66.7c16.3,15,37.7,22.2,59.1,22.2s42.7-7.3,59.1-22.2c16.3-15,27.1-37.7,27.1-66.7s-10.8-51.8-27.1-66.7c-16.3-15-37.7-22.2-59.1-22.2Z"/>
    <path class="st16" d="M545.3,431.7c-9,0-18.2,3.1-25.2,9.6-7,6.5-11.7,16.4-11.7,28.6s4.6,22.1,11.7,28.6c7,6.5,16.2,9.6,25.2,9.6s18.2-3.1,25.2-9.6c7-6.5,11.7-16.4,11.7-28.6s-4.6-22.1-11.7-28.6c-7-6.5-16.2-9.6-25.2-9.6Z"/>
    <path class="st10" d="M580.6,626.9l-16.3,9.2s68,62.1,129.1,92.8c-.8,4.6-1.1,9.2-.6,14.7l11.3-2s42,12.6,71.8,22c-4.6,19,4.8,42.8,29.7,52.2,41.4,15.6,79.8,35.2,79.8,35.2-19.7-66.2-26.7-118.7-78.3-114.1-1.5.1-2.8.5-4.1.7l-78.1-41.3v-11.1l-7.8,5.3c-1.4.8-2.7,1.8-4.1,2.8-56.5-35.3-132.5-66.5-132.5-66.5Z"/>
    <path class="st29" d="M728.9,728.9l14.9-30.6c-55.3-41.8-158.6-84.2-158.6-84.2l-16.3,9.2s93.8,85.9,160,105.5Z"/>
    <path class="st23" d="M724.9,672.6l-7.8,5.3c-7.2,4.1-13,11-17.7,18.9-5.4,13.1-7.5,21.3-6.6,34.1l11.2-2s58.7,17.4,86.5,26.5l3.2-6.5,11.4-22.9-80.3-42.5v-11.1Z"/>
    <path class="st20" d="M890,838.3c-19.7-66.2-26.7-118.7-78.3-114.1-41.6,3.8-44.5,62.6-1.5,78.8,41.4,15.6,79.8,35.2,79.8,35.2Z"/>
    <path class="st7" d="M224.8,406.3c-4.4,0-8.6.3-12.8.9-11.1,1.8-21.4,6-30.3,12.4-20.3,14.7-32,40-30.1,70.4,1.6-24.7,12.7-45.1,30.1-57.7,8.9-6.4,19.2-10.6,30.3-12.4,4.2-.7,8.4-.9,12.8-.9,30.6.3,65.5,18.1,94.2,58,18.7,26,27.7,51.5,29.1,74.3,1.7-25.7-6.7-55.9-29.1-87-28.7-39.9-63.6-57.7-94.2-58Z"/>
  </g>
  <g class="st18">
    <path class="st33" d="M195.7,142h678.9v591.6l-182.8,153.4H195.7V142Z"/>
    <path class="st8" d="M857.1,290.7c-133.3-13.9-220.5,9.5-295,41.4,75.8-78.4,170.4-102.9,295-41.4Z"/>
    <path class="st8" d="M97,330.5c124.5-36.3,214-28.2,293.6-9.8-92.6-63.8-189.6-71.6-293.6,9.8Z"/>
    <path class="st8" d="M874.6,483.9c-23.4,8.3-46.6,15.8-69.8,22.6,9.9,23.9,46.7,105.7,51,115.2,6.3-3.5,12.6-7,18.8-10.7v-127.1ZM789.4,511.3c-31.5,8.9-62.8,16.4-93.6,22.9-2.5,15.5,35.2,111.4,46.9,140.8,40-15.1,78-33.3,114-53.3-6.9-14.2-45.3-92.7-67.3-110.4ZM678.1,537.9c-36,7.1-71.3,12.6-105.8,16.9-.7,33.4,16.8,131.5,21.9,159.3,51.9-7.6,101.5-21.2,148.4-38.9-11.9-28.8-50.8-121.4-64.5-137.3ZM594.2,714c-5.2-27.9-24.7-127.9-41.1-157.1-41.2,4.5-81,7.3-119.1,8.6-12,25-13.2,123.3-13.3,150,60.2,7.8,118.1,6.6,173.5-1.5h0ZM420.6,715.5c0-26.4-.6-121.1-6.3-149.4-37.9.8-73.9.2-107.8-1.3-12.9,19.9-24,86.6-28.4,115.6,48.6,17.7,96.2,29.1,142.5,35.1h0ZM195.7,556.2v89c27.2,13.7,54.2,25.3,80.8,35,3.4-28.6,11.1-94.3,11.7-116.4-33.2-1.8-64.2-4.5-92.5-7.7Z"/>
    <path class="st8" d="M828.7,689.7c-175.6,78-289.5,115.4-518.6,57.2,239.9,94.9,347.8,48.4,518.6-57.2Z"/>
    <path class="st20" d="M857.1,275.2c-133.3-13.9-220.5,9.5-295,41.4,75.8-78.4,170.4-102.9,295-41.4Z"/>
    <path class="st30" d="M874.6,468.3c-264.3,93.7-516.3,90.6-678.9,72.4v89c263.3,132.6,499.9,71,678.9-34.3v-127.1Z"/>
    <path class="st19" d="M874.6,468.4c-23.4,8.3-46.6,15.8-69.8,22.6,9.9,23.9,46.7,105.7,51,115.2,6.3-3.5,12.6-7,18.8-10.7v-127.1ZM789.4,495.8c-31.5,8.9-62.8,16.4-93.6,22.9-2.5,15.5,35.2,111.4,46.9,140.8,40-15.1,78-33.3,114-53.3-6.9-14.2-45.3-92.7-67.3-110.4ZM678.1,522.3c-36,7.1-71.3,12.6-105.8,16.9-.7,33.4,16.8,131.5,21.9,159.3,51.9-7.6,101.5-21.2,148.4-38.9-11.9-28.8-50.8-121.4-64.5-137.3ZM594.2,698.5c-5.2-27.9-24.7-127.9-41.1-157.1-41.2,4.5-81,7.3-119.1,8.6-12,25-13.2,123.3-13.3,150,60.2,7.8,118.1,6.6,173.5-1.5h0ZM420.6,700c0-26.4-.6-121.1-6.3-149.4-37.9.8-73.9.2-107.8-1.3-12.9,19.9-24,86.6-28.4,115.6,48.6,17.7,96.2,29.1,142.5,35.1h0ZM195.7,540.7v89c27.2,13.7,54.2,25.3,80.8,35,3.4-28.6,11.1-94.3,11.7-116.4-33.2-1.8-64.2-4.5-92.5-7.7Z"/>
    <path class="st36" d="M648.3,783.5v165.5l301.7-248.3h-201.1c-55.5,0-100.6,37.1-100.6,82.8Z"/>
    <path class="st20" d="M97,314.9c124.5-36.3,214-28.2,293.6-9.8-92.6-63.8-189.6-71.6-293.6,9.8Z"/>
  </g>
  <g class="st18">
    <rect class="st26" x="469.9" y="733.5" width="90.3" height="81.1"/>
    <path class="st10" d="M235.1,652.4h559.8c19.9,0,36.1,14.5,36.1,32.4v48.7c0,17.9-16.2,32.4-36.1,32.4H235.1c-19.9,0-36.1-14.5-36.1-32.4v-48.7c0-17.9,16.2-32.4,36.1-32.4Z"/>
    <path class="st19" d="M235.1,636.1h559.8c19.9,0,36.1,14.5,36.1,32.4v48.7c0,17.9-16.2,32.4-36.1,32.4H235.1c-19.9,0-36.1-14.5-36.1-32.4v-48.7c0-17.9,16.2-32.4,36.1-32.4Z"/>
    <path class="st20" d="M199,376.6v292h632v-292c0-17.9-16.2-32.4-36.1-32.4H235.1c-19.9,0-36.1,14.5-36.1,32.4Z"/>
    <path class="st13" d="M235.1,344.2c-19.9,0-36.1,14.5-36.1,32.4v16.2c0-18,16.1-32.4,36.1-32.4h559.8c20,0,36.1,14.5,36.1,32.4v-16.2c0-17.9-16.2-32.4-36.1-32.4H235.1Z"/>
    <ellipse class="st8" cx="516.1" cy="400" rx="225.7" ry="202.8"/>
    <ellipse class="st19" cx="516.1" cy="383.8" rx="225.7" ry="202.8"/>
    <path class="st32" d="M469.9,246.8h90.3v97.3h108.3l-153.5,178.4-153.5-178.4h108.3v-97.3Z"/>
    <ellipse class="st2" cx="516.1" cy="708.2" rx="27.1" ry="24.3"/>
    <rect class="st10" x="379.6" y="814.6" width="270.9" height="32.4"/>
    <rect class="st24" x="379.6" y="798.3" width="270.9" height="32.4"/>
  </g>
  <g>
    <ellipse class="st10" cx="512.9" cy="523.5" rx="330.1" ry="328.5"/>
    <path class="st12" d="M512.9,183.3c-168.4.2-309.7,126.6-327.8,293.2,19-157.6,160-276.7,327.8-276.8,171.8,0,314.8,124.7,328.8,286.6-13.4-170.9-156.6-302.8-328.8-303ZM841.7,486.3c.8,8.5,1.2,17,1.3,25.5,0-8.5-.5-17-1.3-25.5ZM185.1,476.5c-.3,2.1-.6,4.3-.8,6.4.2-2.1.5-4.3.8-6.4ZM184.3,482.9c-.9,9.6-1.4,19.2-1.5,28.8,0-9.6.5-19.3,1.5-28.8Z"/>
    <path class="st22" d="M512.9,183.3c-182.3,0-330.1,147.1-330.1,328.5s89.6,261.6,215.2,308.1c35.8,13.2,69.1-38.9,109.5-38.9,182.3,0,305.2-86,305.2-267.4s-71.2-237.5-204.1-280c-5-1.6-4.7-37.6-9.8-39-27.4-7.3-56.3-11.3-86-11.3Z"/>
    <path class="st10" d="M596.6,206c-53.3,30-189.1,116.1-178,192,15.2,105,229.3,87.2,235.8,169.4,7.7,97.3-139.5,195.2-235.6,247.4,30.5,9.1,62.2,13.7,94.1,13.8,177.9-.2,323.7-140.7,329.6-317.7-5.6-143.9-104.9-268.1-245.8-304.9Z"/>
    <path class="st34" d="M596.6,194.2c-53.3,30-189.1,116.1-178,192,15.2,105,229.3,87.2,235.8,169.4,8.4,106.7-170.1,214.8-262.4,261.8,38.5,15.1,79.5,22.9,120.9,22.9,182.3,0,330.1-147.1,330.1-328.5,0-149.3-101.3-279.7-246.4-317.5Z"/>
    <path class="st10" d="M230.1,355.8c-14.9,25.7-26.2,53.4-33.7,82.1h83.4v164.2h-83.6c7.5,28.8,19,56.4,34,82.1h568.2c4.4-7.7,8.5-15.5,12.3-23.5h-23.9v-35.2h35.4v15.6c5-12.7,9.3-25.8,12.7-39h-71.6v-164.2h71.8c-3.4-13.4-7.7-26.6-12.8-39.5v16h-35.4v-35.2h26.7c-3.8-8-8-15.8-12.5-23.5H230.1ZM220.9,379.3h35.4v35.2h-35.4v-35.2ZM291.6,379.3h35.4v35.2h-35.4v-35.2ZM362.4,379.3h35.4v35.2h-35.4v-35.2ZM433.1,379.3h35.4v35.2h-35.4v-35.2ZM503.9,379.3h35.4v35.2h-35.4v-35.2ZM574.6,379.3h35.4v35.2h-35.4v-35.2ZM645.3,379.3h35.4v35.2h-35.4v-35.2ZM716.1,379.3h35.4v35.2h-35.4v-35.2ZM338.8,437.9h153.3v164.2h-153.3v-164.2ZM551,437.9h153.3v164.2h-153.3v-164.2ZM220.9,625.6h35.4v35.2h-35.4v-35.2ZM291.6,625.6h35.4v35.2h-35.4v-35.2ZM362.4,625.6h35.4v35.2h-35.4v-35.2ZM433.1,625.6h35.4v35.2h-35.4v-35.2ZM503.9,625.6h35.4v35.2h-35.4v-35.2ZM574.6,625.6h35.4v35.2h-35.4v-35.2ZM645.3,625.6h35.4v35.2h-35.4v-35.2ZM716.1,625.6h35.4v35.2h-35.4v-35.2Z"/>
    <path class="st21" d="M230.1,344.1c-14.9,25.7-26.2,53.4-33.7,82.1h83.4v164.2h-83.6c7.5,28.8,19,56.4,34,82.1h568.2c4.4-7.7,8.5-15.5,12.3-23.5h-23.9v-35.2h35.4v15.6c5-12.7,9.3-25.8,12.7-39h-71.6v-164.2h71.8c-3.4-13.4-7.7-26.6-12.8-39.5v16h-35.4v-35.2h26.7c-3.8-8-8-15.8-12.5-23.5H230.1ZM220.9,367.6h35.4v35.2h-35.4v-35.2ZM291.6,367.6h35.4v35.2h-35.4v-35.2ZM362.4,367.6h35.4v35.2h-35.4v-35.2ZM433.1,367.6h35.4v35.2h-35.4v-35.2ZM503.9,367.6h35.4v35.2h-35.4v-35.2ZM574.6,367.6h35.4v35.2h-35.4v-35.2ZM645.3,367.6h35.4v35.2h-35.4v-35.2ZM716.1,367.6h35.4v35.2h-35.4v-35.2ZM338.8,426.2h153.3v164.2h-153.3v-164.2ZM551,426.2h153.3v164.2h-153.3v-164.2ZM220.9,613.9h35.4v35.2h-35.4v-35.2ZM291.6,613.9h35.4v35.2h-35.4v-35.2ZM362.4,613.9h35.4v35.2h-35.4v-35.2ZM433.1,613.9h35.4v35.2h-35.4v-35.2ZM503.9,613.9h35.4v35.2h-35.4v-35.2ZM574.6,613.9h35.4v35.2h-35.4v-35.2ZM645.3,613.9h35.4v35.2h-35.4v-35.2ZM716.1,613.9h35.4v35.2h-35.4v-35.2Z"/>
    <path class="st13" d="M512.9,183.3c-182.3,0-330.1,147.1-330.1,328.5,0,1.9.1,3.9.2,5.8,3.3-179,150-322.4,329.9-322.5,179.9.1,326.6,143.6,329.8,322.5.1-1.9.2-3.8.3-5.8,0-181.4-147.8-328.5-330.1-328.5Z"/>
  </g>
</svg>
