<?xml version="1.0" encoding="UTF-8" standalone="no"?>
<svg
   id="_图层_1"
   version="1.1"
   viewBox="0 0 64 64" width="16" height="16"
   sodipodi:docname="persona-4-golden.svg"
   xml:space="preserve"
   inkscape:version="1.4 (e7c3feb100, 2024-10-09)"
   xmlns:inkscape="http://www.inkscape.org/namespaces/inkscape"
   xmlns:sodipodi="http://sodipodi.sourceforge.net/DTD/sodipodi-0.dtd"
   xmlns="http://www.w3.org/2000/svg"
   xmlns:svg="http://www.w3.org/2000/svg"><sodipodi:namedview
     id="namedview26"
     pagecolor="#ffffff"
     bordercolor="#999999"
     borderopacity="1"
     inkscape:showpageshadow="2"
     inkscape:pageopacity="0"
     inkscape:pagecheckerboard="0"
     inkscape:deskcolor="#d1d1d1"
     inkscape:zoom="8.453125"
     inkscape:cx="31.94085"
     inkscape:cy="31.94085"
     inkscape:window-width="1920"
     inkscape:window-height="939"
     inkscape:window-x="0"
     inkscape:window-y="34"
     inkscape:window-maximized="1"
     inkscape:current-layer="g30" /><!-- Generator: Adobe Illustrator 29.0.1, SVG Export Plug-In . SVG Version: 2.1.0 Build 192)  --><defs
     id="defs6"><style
       id="style1">
      .st0 {
        fill-opacity: .5;
      }

      .st0, .st1, .st2, .st3, .st4, .st5, .st6, .st7 {
        fill: #fff;
      }

      .st8 {
        fill: #133c9a;
      }

      .st2, .st9 {
        display: none;
      }

      .st3 {
        fill-opacity: .2;
      }

      .st4 {
        fill-opacity: .9;
      }

      .st10 {
        fill: #3370ff;
      }

      .st11 {
        fill: url(#_未命名的渐变_3);
      }

      .st12 {
        fill: url(#_未命名的渐变);
      }

      .st5 {
        fill-opacity: .3;
      }

      .st6 {
        fill-opacity: 0;
      }

      .st7 {
        fill-opacity: .7;
      }

      .st13 {
        fill: #00d6b9;
      }

      .st14 {
        fill: url(#_未命名的渐变_2);
      }
    </style><radialGradient
       id="_未命名的渐变"
       data-name="未命名的渐变"
       cx="123.9"
       cy="-40.2"
       fx="123.9"
       fy="-40.2"
       r="59.4"
       gradientTransform="translate(-26.8 25.5) scale(.6 -.7)"
       gradientUnits="userSpaceOnUse"><stop
         offset="0"
         stop-color="#db202e"
         id="stop1" /><stop
         offset="1"
         stop-color="#e01b24"
         id="stop2" /></radialGradient><radialGradient
       id="_未命名的渐变_2"
       data-name="未命名的渐变 2"
       cx="67.6"
       cy="26.8"
       fx="67.6"
       fy="26.8"
       r="105.2"
       gradientTransform="translate(-26.6 25.3) scale(.6 -.7)"
       gradientUnits="userSpaceOnUse"><stop
         offset="0"
         stop-color="#ffb648"
         id="stop3" /><stop
         offset="1"
         stop-color="#ff7800"
         stop-opacity="0"
         id="stop4" /></radialGradient><radialGradient
       id="_未命名的渐变_3"
       data-name="未命名的渐变 3"
       cx="61.7"
       cy="18.6"
       fx="61.7"
       fy="18.6"
       r="68"
       gradientTransform="translate(-26.8 25.8) scale(.6 -.7)"
       gradientUnits="userSpaceOnUse"><stop
         offset="0"
         stop-color="#c64600"
         id="stop5" /><stop
         offset="1"
         stop-color="#a51d2d"
         id="stop6" /></radialGradient><style
       id="style1-0">
      .st0 {
        fill-opacity: .5;
      }

      .st0, .st1, .st2, .st3, .st4, .st5, .st6, .st7 {
        fill: #fff;
      }

      .st8 {
        fill: #133c9a;
      }

      .st2, .st9 {
        display: none;
      }

      .st3 {
        fill-opacity: .2;
      }

      .st4 {
        fill-opacity: .9;
      }

      .st10 {
        fill: #3370ff;
      }

      .st11 {
        fill: url(#_未命名的渐变_3);
      }

      .st12 {
        fill: url(#_未命名的渐变);
      }

      .st5 {
        fill-opacity: .3;
      }

      .st6 {
        fill-opacity: 0;
      }

      .st7 {
        fill-opacity: .7;
      }

      .st13 {
        fill: #00d6b9;
      }

      .st14 {
        fill: url(#_未命名的渐变_2);
      }
    </style><radialGradient
       id="_未命名的渐变-6"
       data-name="未命名的渐变"
       cx="123.9"
       cy="-40.2"
       fx="123.9"
       fy="-40.2"
       r="59.4"
       gradientTransform="matrix(0.6,0,0,-0.7,-26.8,25.5)"
       gradientUnits="userSpaceOnUse"><stop
         offset="0"
         stop-color="#db202e"
         id="stop1-3" /><stop
         offset="1"
         stop-color="#e01b24"
         id="stop2-2" /></radialGradient><radialGradient
       id="_未命名的渐变_2-0"
       data-name="未命名的渐变 2"
       cx="67.6"
       cy="26.8"
       fx="67.6"
       fy="26.8"
       r="105.2"
       gradientTransform="matrix(0.6,0,0,-0.7,-26.6,25.3)"
       gradientUnits="userSpaceOnUse"><stop
         offset="0"
         stop-color="#ffb648"
         id="stop3-6" /><stop
         offset="1"
         stop-color="#ff7800"
         stop-opacity="0"
         id="stop4-1" /></radialGradient><radialGradient
       id="_未命名的渐变_3-5"
       data-name="未命名的渐变 3"
       cx="61.7"
       cy="18.6"
       fx="61.7"
       fy="18.6"
       r="68"
       gradientTransform="matrix(0.6,0,0,-0.7,-26.8,25.8)"
       gradientUnits="userSpaceOnUse"><stop
         offset="0"
         stop-color="#c64600"
         id="stop5-5" /><stop
         offset="1"
         stop-color="#a51d2d"
         id="stop6-4" /></radialGradient></defs><path
     class="st1"
     d="M47.5,64.1H13.8c-7.6,0-13.8-6.3-13.8-13.8V13.7C0,6.2,6.2,0,13.7,0h36.6c7.5,0,13.7,6.2,13.7,13.7v36.6c0,7.5-6.2,13.7-13.7,13.7h-2.9.1Z"
     id="path6"
     style="fill:#fbcc19;fill-opacity:1" /><rect
     class="st2"
     x="3"
     y="9.7"
     width="58.1"
     height="45.3"
     id="rect6" /><g
     class="st9"
     id="g21"><path
       class="st12"
       d="M-.1,16v35.3c.3,6.5,6.1,12.6,13.4,12.6l4.7.2h23.3s7.2,0,7.2,0c8.8,0,15.5-4.1,15.5-13.9V16.4h0C64,6.3,58,0,50.7,0H14.8C4.7-.2,0,7.2,0,14.5v1.4h-.1ZM4.6,11.6h4.6v5.8h-4.6v-5.8ZM54.9,11.6h4.6v5.8h-4.6v-5.8ZM4.6,23.2h4.6v5.8h-4.6v-5.8ZM54.9,23.2h4.6v5.8h-4.6v-5.8ZM4.6,34.8h4.6v5.8h-4.6v-5.8ZM54.9,34.8h4.6v5.8h-4.6v-5.8ZM4.6,46.4h4.6v5.8h-4.6v-5.8ZM54.9,46.4h4.6v5.8h-4.6v-5.8Z"
       id="path7" /><path
       class="st14"
       d="M47.5,0h-.7C41.4,0,46.8,0,45.5,0H13.3C4.1.3,0,8.5,0,13.7v1.3c0,.3-.1.3-.1.6v34.3c0,1.1,0,.8,0,.8H0c0,7.1,5.9,13.2,13.8,13.3h0c1.2,0,0,0,1.2,0h0c1.1,0,2.3,0,1.1,0h23.5c1.1,0,0,0,1.1,0h.7c3.2.1-1.7,0,0,0h-2.6c1.1,0,.6,0-1.1,0h-2c1.9,0-.6,0,13.3,0h1.3c5.9,0,13.7-4.3,13.6-11.4l.2-36.2C64.1,8.1,58.6,0,51.2,0M4.8,22.9h4.5v5.8h-4.5v-5.8ZM54.7,11.4h4.5v5.8h-4.5v-5.8ZM4.8,11.4h5v5.8h-5v-5.8ZM54.7,22.9h4.5v5.8h-4.5v-5.8ZM4.8,34.4h4.5v5.8h-4.5v-5.8ZM54.7,34.4h4.5v5.8h-4.5v-5.8ZM4.8,46h4.5v5.8h-4.5v-5.8ZM54.7,46h4.5v5.8h-4.5v-5.8Z"
       id="path8" /><path
       class="st11"
       d="M4.6,9.7v2.2h4.6v-2.2h-4.6ZM54.9,9.7v2.2h4.6v-2.2h-4.6ZM4.6,21.3v2.2h4.6v-2.2h-4.6ZM54.9,21.3v2.2h4.6v-2.2h-4.6ZM4.6,32.9v2.2h4.6v-2.2h-4.6ZM54.9,32.9v2.2h4.6v-2.2h-4.6ZM4.6,44.4v2.2h4.6v-2.2h-4.6ZM54.9,44.4v2.2h4.6v-2.2h-4.6ZM4.6,56v2.2h4.6v-2.2h-4.6ZM54.9,56v2.2h4.6v-2.2h-4.6Z"
       id="path9" /><g
       id="g20"><path
         class="st1"
         d="M25.1,29.3h13.7v11.6h-13.7s0-11.6,0-11.6Z"
         id="path10" /><path
         class="st1"
         d="M32,53.9l-12.6-15.9h25.1l-12.6,15.9h.1Z"
         id="path11" /><path
         class="st7"
         d="M25.1,29.3h4.6v-5.8h-4.6v5.8Z"
         id="path12" /><path
         class="st1"
         d="M29.7,29.3h4.6v-5.8h-4.6s0,5.8,0,5.8Z"
         id="path13" /><path
         class="st4"
         d="M34.3,29.3h4.6v-5.8h-4.6v5.8Z"
         id="path14" /><path
         class="st7"
         d="M38.9,23.5h-4.6v-5.8h4.6v5.8Z"
         id="path15" /><path
         class="st0"
         d="M34.3,23.5h-4.6v-5.8h4.6v5.8Z"
         id="path16" /><path
         class="st4"
         d="M29.7,23.5h-4.6v-5.8h4.6v5.8Z"
         id="path17" /><path
         class="st3"
         d="M38.9,17.7h-4.6v-5.8h4.6v5.8Z"
         id="path18" /><path
         class="st5"
         d="M34.3,17.7h-4.6v-5.8h4.6v5.8Z"
         id="path19" /><path
         class="st6"
         d="M29.7,17.7h-4.6v-5.8h4.6v5.8Z"
         id="path20" /></g></g><g
     class="st9"
     id="g23"><path
       class="st8"
       d="M50.3,23.1c.2,0,.5,0,.7,0,1.8.2,3.5.7,5.1,1.4.5.2.6.4.2.8-1.2,1.2-2.1,2.7-2.9,4.2-.8,1.7-1.6,3.3-2.5,4.9-.6,1.2-1.4,2.3-2.4,3.3-2.5,2.3-5.4,3.2-8.8,2.8-3.8-.5-7.5-1.8-10.9-3.5-.2,0-.3-.2-.5-.3-.1,0-.2-.2,0-.3,0,0,0,0,0,0h.2c2.8-1.6,5.1-3.7,7.3-5.9.9-.9,1.9-1.9,2.8-2.8,2.1-2,4.7-3.4,7.5-4,.6-.2,1.2-.3,1.9-.4h1.4"
       id="path21" /><path
       class="st10"
       d="M23.4,49.9c-.4,0-1.5-.2-1.6-.2-2.7-.3-5.3-1.1-7.7-2.3-1.4-.7-2.8-1.4-4.1-2.2-.9-.5-1.3-1.3-1.3-2.3,0-3.9,0-7.8,0-11.7,0-2.5,0-5-.1-7.5,0-.2,0-.4.1-.7.2-.5.5-.5.8-.2.4.3.6.8,1,1.1,3.2,3.1,6.5,6,10.3,8.3,2.1,1.4,4.3,2.6,6.6,3.6,3.6,1.7,7.4,3.1,11.3,4,3.5.8,6.8.3,9.6-1.9.9-.7,1.3-1.3,2.3-2.6-.5,1.2-1,2.3-1.8,3.4-.7,1-2.1,2.4-3.2,3.5-1.7,1.6-3.9,3-6,4.1-2.3,1.2-4.6,2.2-7.2,2.7-1.3.3-3.2.7-3.8.7-.1,0-.5,0-.7,0-1.7.1-2.7.2-4.4,0h0Z"
       id="path22" /><path
       class="st13"
       d="M16.2,12.3c.1,0,.2,0,.3,0,7.2,0,14.3.1,21.4.1s0,0,0,0c.7.6,1.3,1.2,1.8,1.9,1.6,1.6,2.8,4.4,3.6,6.1.4,1.2,1,2.3,1.3,3.6h0c-.7.3-1.4.5-2.1.9-2.1,1-3,1.8-4.7,3.5-.9.9-1.7,1.7-3,2.9-.5.4-.9.9-1.4,1.3-.3-.6-5.9-11.5-17.1-20"
       id="path23" /></g><g
     id="g30"
     transform="matrix(1.1351907,0,0,1.1604037,-4.446455,-5.6120622)"><path
       d="m 38.917968,4.9997623 c -1.229887,0.018424 -2.419503,0.441231 -3.385155,1.203125 l -3.551954,2.8 c -0.763285,0.6014176 -1.356953,1.3910887 -1.722656,2.2914047 l -3.538281,8.730861 C 25.649958,19.578165 24.559893,19.283142 23.564453,19.243121 17.835853,19.012807 14.359944,22.017038 11.21875,24.339996 8.0775556,26.662955 5.6980468,28.982965 5.6980468,28.982965 4.6125776,30.037485 4.0000673,31.486403 4,32.999762 v 0.817578 c 9.981e-4,1.921192 0.9866723,3.70779 2.6113282,4.733204 l 1.3726561,11.232811 c -0.6077853,1.232646 -1.241341,2.645741 -0.8748358,3.970314 l 0.095703,0.34453 c 0.5538991,1.993181 2.6616572,3.518708 4.6810855,3.967579 l 6.29954,1.850394 c 0.848603,0.188917 1.729536,0.177682 2.573047,-0.03282 l 5.60046,-1.850394 C 28.851637,57.40921 31.000074,55.169273 31,52.599762 v -1.4 c -0.0015,-1.692624 -1.168393,-3.293774 -2.486328,-4.355859 0.548442,-0.451373 1.055259,-0.893685 1.517578,-1.3125 0.497732,-0.07307 0.98335,-0.21287 1.44375,-0.415625 l 6.190625,-2.750782 c 0.462043,0.511464 1.01453,0.933243 1.629688,1.244141 l 2.8,1.4 c 1.25369,0.626482 2.696252,1.260164 4.043687,0.874625 l 9.800453,-3.300016 c 3.811663,-1.089947 5.315305,-5.686388 2.884765,-8.818359 L 58.176172,32.928669 C 59.336371,31.869129 59.998142,30.370965 60,28.799762 v -2.8 c -2.86e-4,-1.485114 -0.590422,-2.909309 -1.640625,-3.959375 l -2.8,-2.8 c -1.630189,-1.629733 -4.092424,-2.094182 -6.204297,-1.170312 l 0.54414,-0.237891 -2.983202,-6.707422 C 46.637017,10.497128 46.244945,9.9261705 45.759375,9.4403873 l -2.8,-2.8 C 41.889292,5.5698521 40.431457,4.9780385 38.917968,4.9997623 Z"
       style="fill:#fbcc19"
       id="path2" /><path
       d="m 39,11.599371 -3.552734,2.800782 -5.507813,13.759765 -5.0625,-1.841797 C 24.646154,26.195946 24.396956,26.109691 24.132812,26.04859 L 24,25.99976 23.97656,26.01343 c -0.204791,-0.03808 -0.415778,-0.06729 -0.636718,-0.07617 -5.127468,-0.206146 -14.322266,8.0625 -14.322266,8.0625 l 0.5820313,0.818359 c 0,0 1.8520547,-0.817968 2.1464847,0.582032 l 2.054687,16.798828 c 0,0.817072 -0.796875,1.05664 -0.796875,1.05664 l 0.0957,0.34375 6.300782,1.400391 5.599609,-1.400391 v -1.40039 l -2.800776,-1.398436 c -1.4,-1.4 -1.398438,-2.592849 -1.398438,-4.201172 4.2,-2.8 5.599219,-4.198827 7.63086,-6.230468 L 29,40.999762 l 14.066406,-6.166016 0.197266,0.566407 c 0.652862,1.4 -1.462891,2.798828 -1.462891,2.798828 v 1.40039 L 45,40.999762 l 9,-3 -2.400391,-3.40625 c 0,0 -0.212413,0.07683 -0.511718,0.142578 -1.052067,-0.0252 -1.5625,-2.136719 -1.5625,-2.136719 0,0 -0.131521,-0.501917 0.06445,-0.662109 l 4.410156,-1.9375 v -3 l -2,-3 -4.958984,2.189453 -5.240232,-11.789062 z"
       style="opacity:0.1"
       id="path3" /><path
       d="m 39,10.599762 -8.4,16.8 -6.6,-2.4 -11.6,6.6 2.8,19.6 -2.1,1.4 6.3,1.4 5.6,-1.4 v -1.4 l -2.8,-1.4 c -1.4,-1.4 -1.4,-2.591677 -1.4,-4.2 4.2,-2.8 5.6,-4.2 7.631641,-6.231641 L 29,39.999762 43.282032,33.740778 46,32.999762 l -4.2,5.6 3.2,1.4 9,-3 -2.4,-3.406641 c -1.4,0.806641 -2.075391,-1.993359 -2.075391,-1.993359 0,0 -0.130354,-0.501526 0.06562,-0.661718 L 54,28.999762 v -3 l -2,-3 -4.785937,2.578907 L 41.8,13.399762 Z"
       style="fill:#221714"
       id="path4" /><path
       d="m 39,10.599762 -3.551953,2.8 -9.448047,23.6 15.8,-6.8 1.462891,4.2 c 0.652862,1.4 -1.462891,2.8 -1.462891,2.8 v 1.4 l 10.661328,-3.606641 -0.861328,-1.4 c 0,0 -2.041126,0.806641 -2.8,-0.593359 L 46.265234,27.205621 52,24.999762 v -2 l -6.35,2.803125 z m -2.8,7 4.2,11.2 -9.8,4.2 z m -12.859766,7.338 c -5.127468,-0.206146 -14.322656,8.062 -14.322656,8.062 l 0.5824218,0.817578 c 0,0 1.8520542,-0.817578 2.1464842,0.582422 l 2.053516,16.8 c 0,0.817072 -0.795703,1.055468 -0.795703,1.055468 l 0.0957,0.344532 L 20,51 19.637285,50.377357 c 0,0 -1.637565,0.593747 -2.124006,-0.577595 L 16.6,42.039605 c 0,0 12.6,-4.839843 9.8,-14.639843 -0.506863,-1.774023 -1.624074,-2.40428 -3.059766,-2.462 z m -3.28125,3.525672 c 0.848782,0.08596 1.61283,0.577852 2.141016,1.736328 3.191525,7 -6.2,10.8 -6.2,10.8 l -1.798047,-9.4 c 0,0 3.310683,-3.394222 5.857031,-3.136328 z"
       style="fill:#ffffff"
       id="path5" /></g></svg>
