<?xml version="1.0" encoding="UTF-8"?>
<svg id="_图层_1" xmlns="http://www.w3.org/2000/svg" version="1.1" viewBox="0 0 64 64" width="16" height="16">
  <!-- Generator: Adobe Illustrator 29.0.1, SVG Export Plug-In . SVG Version: 2.1.0 Build 192)  -->
  <defs>
    <style>
      .st0, .st1, .st2 {
        display: none;
      }

      .st0, .st3, .st2 {
        isolation: isolate;
      }

      .st0, .st2 {
        opacity: .2;
      }

      .st1, .st4 {
        fill: #ffa521;
      }

      .st5 {
        stroke-width: 3px;
      }

      .st5, .st6 {
        fill: none;
        stroke: #3f3f3f;
        stroke-linecap: round;
        stroke-linejoin: round;
      }

      .st7 {
        fill: #3f3f3f;
      }

      .st8, .st2 {
        fill: #fff;
      }

      .st6 {
        stroke-width: 3px;
      }

      .st3 {
        opacity: .1;
      }

      .st9 {
        fill: #ff5f06;
      }
    </style>
  </defs>
  <path class="st4" d="M50.4,64H13.8c-7.6,0-13.8-6.2-13.8-13.7V13.7C0,6.2,6.2,0,13.7,0h36.5c7.5,0,13.7,6.2,13.7,13.7v36.6c0,7.5-6.2,13.7-13.7,13.7h.1Z"/>
  <g>
    <circle class="st0" cx="31.9" cy="33.2" r="31.9"/>
    <circle class="st1" cx="31.9" cy="32.1" r="31.9"/>
    <path class="st3" d="M31.9,10.2c-5.3,0-9.5,4.2-9.5,9.4h0v12.6c0,5.2,4.3,9.4,9.5,9.4h0c5.3,0,9.5-4.2,9.5-9.4h0v-12.6c0-5.2-4.3-9.4-9.5-9.4h0ZM16.2,29.2c-.9,0-1.6.7-1.6,1.6-.5,6.5,2.7,12.7,8.2,16.1,2.3,1.4,4.8,2.2,7.4,2.5v4.6h-6.2c-.9,0-1.7.7-1.7,1.7,0,.9.7,1.7,1.7,1.7,0,0,0,0,0,0h15.7c.9,0,1.7-.7,1.7-1.7s-.7-1.7-1.7-1.7c0,0,0,0,0,0h-6.2v-4.6c2.5-.2,5.1-1,7.3-2.4,5.6-3.4,8.8-9.6,8.3-16.1,0-.9-.8-1.6-1.8-1.6-.9,0-1.6.8-1.6,1.8,0,0,0,0,0,0,.4,5.2-2.2,10.2-6.7,13s-10.1,2.7-14.6,0c-4.5-2.7-7-7.8-6.6-13,0-.9-.6-1.7-1.5-1.8,0,0-.1,0-.2,0Z"/>
    <path class="st6" d="M47.6,29.9c.4,5.9-2.5,11.5-7.5,14.5-5,3-11.3,3-16.3,0-5-3.1-7.9-8.7-7.4-14.6"/>
    <rect class="st7" x="30.3" y="46.5" width="3.4" height="8"/>
    <path class="st5" d="M24.1,54.5h15.7"/>
    <path class="st8" d="M31.4,15.9c-5.3,0-5.6-.7-5.6,4.5l-3.4,10.8c0,5.2,4.3,9.4,9.5,9.4s9.5-4.2,9.5-9.4v-12.6c0-5.2-4.8-2.7-10.1-2.7Z"/>
    <path class="st9" d="M41.5,18.7c0,5.3-4.3,9.5-9.5,9.5h0c-5.3,0-9.5-4.3-9.5-9.5s4.3-9.5,9.5-9.5,9.5,4.3,9.5,9.5Z"/>
    <path class="st9" d="M25.4,16.7h3c1.7,0,3,1.4,3,3.1v10.8c0,1.7-1.3,3.1-3,3.1h-3c-1.7,0-3-1.4-3-3.1v-10.8c0-1.7,1.3-3.1,3-3.1Z"/>
    <path class="st2" d="M31.9.2C14.3.2,0,14.5,0,32.1c0,.2,0,.4,0,.7C.3,15.3,14.5,1.3,31.9,1.3c17.4,0,31.6,13.9,31.9,31.3,0-.2,0-.3,0-.5C63.9,14.5,49.6.2,31.9.2Z"/>
  </g>
</svg>