<?xml version="1.0" encoding="UTF-8" standalone="no"?>
<svg
   id="_图层_1"
   version="1.1"
   viewBox="0 0 64 64" width="16" height="16"
   sodipodi:docname="pokete.svg"
   xml:space="preserve"
   inkscape:version="1.4 (e7c3feb100, 2024-10-09)"
   xmlns:inkscape="http://www.inkscape.org/namespaces/inkscape"
   xmlns:sodipodi="http://sodipodi.sourceforge.net/DTD/sodipodi-0.dtd"
   xmlns="http://www.w3.org/2000/svg"
   xmlns:svg="http://www.w3.org/2000/svg"><sodipodi:namedview
     id="namedview26"
     pagecolor="#ffffff"
     bordercolor="#999999"
     borderopacity="1"
     inkscape:showpageshadow="2"
     inkscape:pageopacity="0"
     inkscape:pagecheckerboard="0"
     inkscape:deskcolor="#d1d1d1"
     inkscape:zoom="10.6875"
     inkscape:cx="32"
     inkscape:cy="24.795322"
     inkscape:window-width="1920"
     inkscape:window-height="939"
     inkscape:window-x="0"
     inkscape:window-y="34"
     inkscape:window-maximized="1"
     inkscape:current-layer="g30" /><!-- Generator: Adobe Illustrator 29.0.1, SVG Export Plug-In . SVG Version: 2.1.0 Build 192)  --><defs
     id="defs6"><style
       id="style1">
      .st0 {
        fill-opacity: .5;
      }

      .st0, .st1, .st2, .st3, .st4, .st5, .st6, .st7 {
        fill: #fff;
      }

      .st8 {
        fill: #133c9a;
      }

      .st2, .st9 {
        display: none;
      }

      .st3 {
        fill-opacity: .2;
      }

      .st4 {
        fill-opacity: .9;
      }

      .st10 {
        fill: #3370ff;
      }

      .st11 {
        fill: url(#_未命名的渐变_3);
      }

      .st12 {
        fill: url(#_未命名的渐变);
      }

      .st5 {
        fill-opacity: .3;
      }

      .st6 {
        fill-opacity: 0;
      }

      .st7 {
        fill-opacity: .7;
      }

      .st13 {
        fill: #00d6b9;
      }

      .st14 {
        fill: url(#_未命名的渐变_2);
      }
    </style><radialGradient
       id="_未命名的渐变"
       data-name="未命名的渐变"
       cx="123.9"
       cy="-40.2"
       fx="123.9"
       fy="-40.2"
       r="59.4"
       gradientTransform="translate(-26.8 25.5) scale(.6 -.7)"
       gradientUnits="userSpaceOnUse"><stop
         offset="0"
         stop-color="#db202e"
         id="stop1" /><stop
         offset="1"
         stop-color="#e01b24"
         id="stop2" /></radialGradient><radialGradient
       id="_未命名的渐变_2"
       data-name="未命名的渐变 2"
       cx="67.6"
       cy="26.8"
       fx="67.6"
       fy="26.8"
       r="105.2"
       gradientTransform="translate(-26.6 25.3) scale(.6 -.7)"
       gradientUnits="userSpaceOnUse"><stop
         offset="0"
         stop-color="#ffb648"
         id="stop3" /><stop
         offset="1"
         stop-color="#ff7800"
         stop-opacity="0"
         id="stop4" /></radialGradient><radialGradient
       id="_未命名的渐变_3"
       data-name="未命名的渐变 3"
       cx="61.7"
       cy="18.6"
       fx="61.7"
       fy="18.6"
       r="68"
       gradientTransform="translate(-26.8 25.8) scale(.6 -.7)"
       gradientUnits="userSpaceOnUse"><stop
         offset="0"
         stop-color="#c64600"
         id="stop5" /><stop
         offset="1"
         stop-color="#a51d2d"
         id="stop6" /></radialGradient></defs><path
     class="st1"
     d="M47.5,64.1H13.8c-7.6,0-13.8-6.3-13.8-13.8V13.7C0,6.2,6.2,0,13.7,0h36.6c7.5,0,13.7,6.2,13.7,13.7v36.6c0,7.5-6.2,13.7-13.7,13.7h-2.9.1Z"
     id="path6"
     style="fill:#4f4f4f;fill-opacity:1" /><rect
     class="st2"
     x="3"
     y="9.7"
     width="58.1"
     height="45.3"
     id="rect6" /><g
     class="st9"
     id="g21"><path
       class="st12"
       d="M-.1,16v35.3c.3,6.5,6.1,12.6,13.4,12.6l4.7.2h23.3s7.2,0,7.2,0c8.8,0,15.5-4.1,15.5-13.9V16.4h0C64,6.3,58,0,50.7,0H14.8C4.7-.2,0,7.2,0,14.5v1.4h-.1ZM4.6,11.6h4.6v5.8h-4.6v-5.8ZM54.9,11.6h4.6v5.8h-4.6v-5.8ZM4.6,23.2h4.6v5.8h-4.6v-5.8ZM54.9,23.2h4.6v5.8h-4.6v-5.8ZM4.6,34.8h4.6v5.8h-4.6v-5.8ZM54.9,34.8h4.6v5.8h-4.6v-5.8ZM4.6,46.4h4.6v5.8h-4.6v-5.8ZM54.9,46.4h4.6v5.8h-4.6v-5.8Z"
       id="path7" /><path
       class="st14"
       d="M47.5,0h-.7C41.4,0,46.8,0,45.5,0H13.3C4.1.3,0,8.5,0,13.7v1.3c0,.3-.1.3-.1.6v34.3c0,1.1,0,.8,0,.8H0c0,7.1,5.9,13.2,13.8,13.3h0c1.2,0,0,0,1.2,0h0c1.1,0,2.3,0,1.1,0h23.5c1.1,0,0,0,1.1,0h.7c3.2.1-1.7,0,0,0h-2.6c1.1,0,.6,0-1.1,0h-2c1.9,0-.6,0,13.3,0h1.3c5.9,0,13.7-4.3,13.6-11.4l.2-36.2C64.1,8.1,58.6,0,51.2,0M4.8,22.9h4.5v5.8h-4.5v-5.8ZM54.7,11.4h4.5v5.8h-4.5v-5.8ZM4.8,11.4h5v5.8h-5v-5.8ZM54.7,22.9h4.5v5.8h-4.5v-5.8ZM4.8,34.4h4.5v5.8h-4.5v-5.8ZM54.7,34.4h4.5v5.8h-4.5v-5.8ZM4.8,46h4.5v5.8h-4.5v-5.8ZM54.7,46h4.5v5.8h-4.5v-5.8Z"
       id="path8" /><path
       class="st11"
       d="M4.6,9.7v2.2h4.6v-2.2h-4.6ZM54.9,9.7v2.2h4.6v-2.2h-4.6ZM4.6,21.3v2.2h4.6v-2.2h-4.6ZM54.9,21.3v2.2h4.6v-2.2h-4.6ZM4.6,32.9v2.2h4.6v-2.2h-4.6ZM54.9,32.9v2.2h4.6v-2.2h-4.6ZM4.6,44.4v2.2h4.6v-2.2h-4.6ZM54.9,44.4v2.2h4.6v-2.2h-4.6ZM4.6,56v2.2h4.6v-2.2h-4.6ZM54.9,56v2.2h4.6v-2.2h-4.6Z"
       id="path9" /><g
       id="g20"><path
         class="st1"
         d="M25.1,29.3h13.7v11.6h-13.7s0-11.6,0-11.6Z"
         id="path10" /><path
         class="st1"
         d="M32,53.9l-12.6-15.9h25.1l-12.6,15.9h.1Z"
         id="path11" /><path
         class="st7"
         d="M25.1,29.3h4.6v-5.8h-4.6v5.8Z"
         id="path12" /><path
         class="st1"
         d="M29.7,29.3h4.6v-5.8h-4.6s0,5.8,0,5.8Z"
         id="path13" /><path
         class="st4"
         d="M34.3,29.3h4.6v-5.8h-4.6v5.8Z"
         id="path14" /><path
         class="st7"
         d="M38.9,23.5h-4.6v-5.8h4.6v5.8Z"
         id="path15" /><path
         class="st0"
         d="M34.3,23.5h-4.6v-5.8h4.6v5.8Z"
         id="path16" /><path
         class="st4"
         d="M29.7,23.5h-4.6v-5.8h4.6v5.8Z"
         id="path17" /><path
         class="st3"
         d="M38.9,17.7h-4.6v-5.8h4.6v5.8Z"
         id="path18" /><path
         class="st5"
         d="M34.3,17.7h-4.6v-5.8h4.6v5.8Z"
         id="path19" /><path
         class="st6"
         d="M29.7,17.7h-4.6v-5.8h4.6v5.8Z"
         id="path20" /></g></g><g
     class="st9"
     id="g23"><path
       class="st8"
       d="M50.3,23.1c.2,0,.5,0,.7,0,1.8.2,3.5.7,5.1,1.4.5.2.6.4.2.8-1.2,1.2-2.1,2.7-2.9,4.2-.8,1.7-1.6,3.3-2.5,4.9-.6,1.2-1.4,2.3-2.4,3.3-2.5,2.3-5.4,3.2-8.8,2.8-3.8-.5-7.5-1.8-10.9-3.5-.2,0-.3-.2-.5-.3-.1,0-.2-.2,0-.3,0,0,0,0,0,0h.2c2.8-1.6,5.1-3.7,7.3-5.9.9-.9,1.9-1.9,2.8-2.8,2.1-2,4.7-3.4,7.5-4,.6-.2,1.2-.3,1.9-.4h1.4"
       id="path21" /><path
       class="st10"
       d="M23.4,49.9c-.4,0-1.5-.2-1.6-.2-2.7-.3-5.3-1.1-7.7-2.3-1.4-.7-2.8-1.4-4.1-2.2-.9-.5-1.3-1.3-1.3-2.3,0-3.9,0-7.8,0-11.7,0-2.5,0-5-.1-7.5,0-.2,0-.4.1-.7.2-.5.5-.5.8-.2.4.3.6.8,1,1.1,3.2,3.1,6.5,6,10.3,8.3,2.1,1.4,4.3,2.6,6.6,3.6,3.6,1.7,7.4,3.1,11.3,4,3.5.8,6.8.3,9.6-1.9.9-.7,1.3-1.3,2.3-2.6-.5,1.2-1,2.3-1.8,3.4-.7,1-2.1,2.4-3.2,3.5-1.7,1.6-3.9,3-6,4.1-2.3,1.2-4.6,2.2-7.2,2.7-1.3.3-3.2.7-3.8.7-.1,0-.5,0-.7,0-1.7.1-2.7.2-4.4,0h0Z"
       id="path22" /><path
       class="st13"
       d="M16.2,12.3c.1,0,.2,0,.3,0,7.2,0,14.3.1,21.4.1s0,0,0,0c.7.6,1.3,1.2,1.8,1.9,1.6,1.6,2.8,4.4,3.6,6.1.4,1.2,1,2.3,1.3,3.6h0c-.7.3-1.4.5-2.1.9-2.1,1-3,1.8-4.7,3.5-.9.9-1.7,1.7-3,2.9-.5.4-.9.9-1.4,1.3-.3-.6-5.9-11.5-17.1-20"
       id="path23" /></g><g
     id="g26"
     transform="matrix(1.1453634,0,0,1.1395301,-4.5112779,-4.4265415)" /><g
     id="g27"
     transform="matrix(1.1336675,0,0,1.1378885,10.319131,-4.5135427)"><g
       id="g28"
       transform="matrix(1.0044215,0,0,1.0173267,-12.975682,1.2074557)" /></g><g
     id="g30"
     transform="matrix(1.1403509,0,0,1.1460962,-4.3976608,-4.5463733)"><path
       style="opacity:0.2"
       d="M 10.801,15 A 0.8,0.8 0 0 0 10,15.801 V 16.2 A 0.8,0.8 0 0 1 9.1992,17 H 8.8008 A 0.8,0.8 0 0 0 8,17.801 V 18.2 A 0.8,0.8 0 0 0 8.8008,19 H 9.1992 A 0.8,0.8 0 0 1 10,19.801 V 20.2 a 0.8,0.8 0 0 0 0.801,0.8 h 0.398 A 0.8,0.8 0 0 0 12,20.2 V 19.801 A 0.8,0.8 0 0 1 12.801,19 h 0.398 A 0.8,0.8 0 0 0 14,18.2 V 17.801 A 0.8,0.8 0 0 0 13.199,17 H 12.801 A 0.8,0.8 0 0 1 12,16.2 V 15.801 A 0.8,0.8 0 0 0 11.199,15 Z m 42,0 A 0.8,0.8 0 0 0 52,15.801 V 16.2 A 0.8,0.8 0 0 1 51.199,17 H 50.801 A 0.8,0.8 0 0 0 50,17.801 V 18.2 a 0.8,0.8 0 0 0 0.801,0.8 h 0.398 A 0.8,0.8 0 0 1 52,19.801 V 20.2 a 0.8,0.8 0 0 0 0.801,0.8 h 0.398 A 0.8,0.8 0 0 0 54,20.2 V 19.801 A 0.8,0.8 0 0 1 54.801,19 h 0.398 A 0.8,0.8 0 0 0 56,18.2 V 17.801 A 0.8,0.8 0 0 0 55.199,17 H 54.801 A 0.8,0.8 0 0 1 54,16.2 V 15.801 A 0.8,0.8 0 0 0 53.199,15 Z m -36,2 A 0.8,0.8 0 0 0 16,17.801 V 18.2 a 0.8,0.8 0 0 0 0.801,0.8 h 4.398 A 0.8,0.8 0 0 0 22,18.2 V 17.801 A 0.8,0.8 0 0 0 21.199,17 Z m 8,0 A 0.8,0.8 0 0 0 24,17.801 V 18.2 a 0.8,0.8 0 0 0 0.801,0.8 h 4.398 A 0.8,0.8 0 0 0 30,18.2 V 17.801 A 0.8,0.8 0 0 0 29.199,17 Z m 8,0 A 0.8,0.8 0 0 0 32,17.801 V 18.2 a 0.8,0.8 0 0 0 0.801,0.8 h 4.398 A 0.8,0.8 0 0 0 38,18.2 V 17.801 A 0.8,0.8 0 0 0 37.199,17 Z m 8,0 A 0.8,0.8 0 0 0 40,17.801 V 18.2 a 0.8,0.8 0 0 0 0.801,0.8 h 6.398 A 0.8,0.8 0 0 0 48,18.2 V 17.801 A 0.8,0.8 0 0 0 47.199,17 Z m -30,8 A 0.8,0.8 0 0 0 10,25.801 V 32.2 a 0.8,0.8 0 0 0 0.801,0.8 h 0.398 A 0.8,0.8 0 0 0 12,32.2 V 25.801 A 0.8,0.8 0 0 0 11.199,25 Z M 23,25 c -1.693,0 -3,1.392 -3,3.002 0,1.611 1.307,2.998 3,2.998 1.693,0 3,-1.387 3,-2.998 C 26,26.392 24.693,25 23,25 Z m 18,0 c -1.693,0 -3,1.392 -3,3.002 0,1.611 1.307,2.998 3,2.998 1.693,0 3,-1.387 3,-2.998 C 44,26.392 42.693,25 41,25 Z m 11.801,0 A 0.8,0.8 0 0 0 52,25.801 V 32.2 a 0.8,0.8 0 0 0 0.801,0.8 h 0.398 A 0.8,0.8 0 0 0 54,32.2 V 25.801 A 0.8,0.8 0 0 0 53.199,25 Z M 23,26.473 c 0.745,0 1.414,0.639 1.414,1.529 0,0.891 -0.669,1.526 -1.414,1.526 -0.745,0 -1.414,-0.635 -1.414,-1.526 0,-0.89 0.669,-1.529 1.414,-1.529 z m 18,0 c 0.745,0 1.414,0.639 1.414,1.529 0,0.891 -0.669,1.526 -1.414,1.526 -0.745,0 -1.414,-0.635 -1.414,-1.526 0,-0.89 0.669,-1.529 1.414,-1.529 z M 10.801,35 A 0.8,0.8 0 0 0 10,35.801 V 42.2 a 0.8,0.8 0 0 0 0.801,0.8 h 0.398 A 0.8,0.8 0 0 0 12,42.2 V 35.801 A 0.8,0.8 0 0 0 11.199,35 Z m 42,0 A 0.8,0.8 0 0 0 52,35.801 V 42.2 a 0.8,0.8 0 0 0 0.801,0.8 h 0.398 A 0.8,0.8 0 0 0 54,42.2 V 35.801 A 0.8,0.8 0 0 0 53.199,35 Z m -23.322,2 c -0.184,0.003 -0.369,0.055 -0.465,0.145 -0.274,0.256 -0.103,1.459 -0.127,1.861 -0.012,0.193 -0.015,0.283 -0.024,0.43 -0.008,0.154 0.007,0.441 -0.029,0.474 -0.01,0.01 -0.023,0.009 -0.033,0 -0.037,-0.031 -0.044,-0.294 -0.065,-0.435 -0.019,-0.133 -0.029,-0.218 -0.058,-0.389 -0.056,-0.329 -0.02,-1.236 -0.272,-1.445 -0.192,-0.16 -0.667,-0.16 -0.861,0 -0.253,0.208 -0.222,1.105 -0.283,1.437 -0.033,0.176 -0.05,0.268 -0.07,0.405 -0.021,0.14 -0.018,0.396 -0.053,0.427 -0.01,0.009 -0.024,0.01 -0.033,0 -0.036,-0.034 -0.015,-0.326 -0.024,-0.482 -0.008,-0.147 -0.017,-0.237 -0.029,-0.43 -0.026,-0.401 0.158,-1.596 -0.115,-1.853 -0.194,-0.182 -0.782,0 -0.938,0 0.078,0.614 -0.029,3.249 0.469,3.687 0.276,0.244 0.914,0.194 1.144,0 0.246,-0.207 0.171,-0.968 0.221,-1.281 0.029,-0.179 0.044,-0.288 0.063,-0.426 0.017,-0.13 0.013,-0.351 0.046,-0.381 0.01,-0.008 0.026,-0.008 0.036,0 0.032,0.03 0.024,0.251 0.041,0.381 0.017,0.138 0.034,0.246 0.062,0.426 0.05,0.313 -0.031,1.073 0.215,1.281 0.233,0.198 0.887,0.248 1.168,0 0.256,-0.225 0.466,-1.076 0.562,-1.91 0.042,0.836 0.136,1.679 0.399,1.91 0.276,0.244 0.914,0.194 1.144,0 0.246,-0.207 0.171,-0.968 0.221,-1.281 0.029,-0.179 0.044,-0.288 0.063,-0.426 0.017,-0.13 0.013,-0.351 0.047,-0.381 0.01,-0.008 0.025,-0.008 0.035,0 0.032,0.03 0.024,0.251 0.041,0.381 0.017,0.138 0.034,0.246 0.062,0.426 0.049,0.312 -0.036,1.073 0.209,1.281 0.233,0.198 0.892,0.249 1.174,0 0.257,-0.226 0.466,-1.078 0.562,-1.912 0.042,0.836 0.136,1.68 0.399,1.912 0.276,0.244 0.915,0.195 1.144,0 0.245,-0.207 0.164,-0.969 0.215,-1.281 0.03,-0.18 0.049,-0.288 0.069,-0.426 0.018,-0.13 0.013,-0.351 0.047,-0.381 0.01,-0.008 0.025,-0.008 0.035,0 0.032,0.03 0.018,0.251 0.035,0.381 0.017,0.138 0.039,0.246 0.068,0.426 0.051,0.312 -0.036,1.073 0.209,1.281 0.233,0.198 0.892,0.249 1.174,0 0.502,-0.442 0.829,-3.278 0.469,-3.687 -0.18,-0.204 -0.733,-0.181 -0.926,0 -0.274,0.256 -0.094,1.459 -0.121,1.861 -0.013,0.193 -0.021,0.283 -0.029,0.43 -0.009,0.154 0.012,0.441 -0.024,0.474 -0.009,0.01 -0.025,0.009 -0.035,0 -0.037,-0.031 -0.041,-0.294 -0.062,-0.435 -0.021,-0.133 -0.035,-0.218 -0.065,-0.389 -0.057,-0.329 -0.014,-1.236 -0.266,-1.445 -0.193,-0.161 -0.672,-0.16 -0.867,0 -0.253,0.208 -0.224,1.105 -0.283,1.437 -0.031,0.176 -0.045,0.268 -0.064,0.405 -0.02,0.14 -0.018,0.396 -0.053,0.427 -0.01,0.009 -0.024,0.01 -0.033,0 -0.036,-0.034 -0.015,-0.326 -0.024,-0.482 -0.008,-0.147 -0.016,-0.237 -0.029,-0.43 -0.027,-0.401 0.152,-1.597 -0.121,-1.853 -0.194,-0.182 -0.777,0 -0.932,0 0.002,0.011 0.003,0.027 0.004,0.039 -0.009,-0.015 -0.017,-0.028 -0.027,-0.039 -0.179,-0.203 -0.728,-0.18 -0.92,0 -0.274,0.256 -0.1,1.459 -0.127,1.861 -0.013,0.193 -0.021,0.283 -0.029,0.43 -0.009,0.154 0.011,0.441 -0.024,0.474 -0.009,0.01 -0.025,0.009 -0.035,0 -0.037,-0.031 -0.042,-0.294 -0.063,-0.435 -0.019,-0.133 -0.029,-0.218 -0.058,-0.389 -0.056,-0.329 -0.019,-1.236 -0.272,-1.445 -0.193,-0.161 -0.672,-0.16 -0.867,0 -0.253,0.208 -0.224,1.105 -0.283,1.437 -0.031,0.176 -0.045,0.268 -0.064,0.405 -0.02,0.14 -0.018,0.396 -0.053,0.427 -0.01,0.009 -0.024,0.01 -0.033,0 -0.036,-0.034 -0.015,-0.326 -0.024,-0.482 -0.008,-0.147 -0.017,-0.237 -0.029,-0.43 -0.026,-0.401 0.158,-1.596 -0.115,-1.853 -0.194,-0.182 -0.782,0 -0.938,0 0.002,0.011 0.003,0.027 0.004,0.039 C 29.952,37.169 29.943,37.156 29.934,37.145 29.844,37.043 29.662,36.997 29.479,37 Z M 10.801,47 A 0.8,0.8 0 0 0 10,47.801 V 48.2 A 0.8,0.8 0 0 1 9.1992,49 H 8.8008 A 0.8,0.8 0 0 0 8,49.801 V 50.2 A 0.8,0.8 0 0 0 8.8008,51 H 9.1992 A 0.8,0.8 0 0 1 10,51.801 V 52.2 a 0.8,0.8 0 0 0 0.801,0.8 h 0.398 A 0.8,0.8 0 0 0 12,52.2 V 51.801 A 0.8,0.8 0 0 1 12.801,51 h 0.398 A 0.8,0.8 0 0 0 14,50.2 V 49.801 A 0.8,0.8 0 0 0 13.199,49 H 12.801 A 0.8,0.8 0 0 1 12,48.2 V 47.801 A 0.8,0.8 0 0 0 11.199,47 Z m 42,0 A 0.8,0.8 0 0 0 52,47.801 V 48.2 A 0.8,0.8 0 0 1 51.199,49 H 50.801 A 0.8,0.8 0 0 0 50,49.801 V 50.2 a 0.8,0.8 0 0 0 0.801,0.8 h 0.398 A 0.8,0.8 0 0 1 52,51.801 V 52.2 a 0.8,0.8 0 0 0 0.801,0.8 h 0.398 A 0.8,0.8 0 0 0 54,52.2 V 51.801 A 0.8,0.8 0 0 1 54.801,51 h 0.398 A 0.8,0.8 0 0 0 56,50.2 V 49.801 A 0.8,0.8 0 0 0 55.199,49 H 54.801 A 0.8,0.8 0 0 1 54,48.2 V 47.801 A 0.8,0.8 0 0 0 53.199,47 Z m -36,2 A 0.8,0.8 0 0 0 16,49.801 V 50.2 a 0.8,0.8 0 0 0 0.801,0.8 h 4.398 A 0.8,0.8 0 0 0 22,50.2 V 49.801 A 0.8,0.8 0 0 0 21.199,49 Z m 8,0 A 0.8,0.8 0 0 0 24,49.801 V 50.2 a 0.8,0.8 0 0 0 0.801,0.8 h 4.398 A 0.8,0.8 0 0 0 30,50.2 V 49.801 A 0.8,0.8 0 0 0 29.199,49 Z m 8,0 A 0.8,0.8 0 0 0 32,49.801 V 50.2 a 0.8,0.8 0 0 0 0.801,0.8 h 4.398 A 0.8,0.8 0 0 0 38,50.2 V 49.801 A 0.8,0.8 0 0 0 37.199,49 Z m 8,0 A 0.8,0.8 0 0 0 40,49.801 V 50.2 a 0.8,0.8 0 0 0 0.801,0.8 h 6.398 A 0.8,0.8 0 0 0 48,50.2 V 49.801 A 0.8,0.8 0 0 0 47.199,49 Z"
       id="path2" /><path
       style="fill:#ffffff"
       d="M 10.801,14 A 0.8,0.8 0 0 0 10,14.801 V 15.2 A 0.8,0.8 0 0 1 9.1992,16 H 8.8008 A 0.8,0.8 0 0 0 8,16.801 V 17.2 A 0.8,0.8 0 0 0 8.8008,18 H 9.1992 A 0.8,0.8 0 0 1 10,18.801 V 19.2 a 0.8,0.8 0 0 0 0.801,0.8 h 0.398 A 0.8,0.8 0 0 0 12,19.2 V 18.801 A 0.8,0.8 0 0 1 12.801,18 h 0.398 A 0.8,0.8 0 0 0 14,17.2 V 16.801 A 0.8,0.8 0 0 0 13.199,16 H 12.801 A 0.8,0.8 0 0 1 12,15.2 V 14.801 A 0.8,0.8 0 0 0 11.199,14 Z m 42,0 A 0.8,0.8 0 0 0 52,14.801 V 15.2 A 0.8,0.8 0 0 1 51.199,16 H 50.801 A 0.8,0.8 0 0 0 50,16.801 V 17.2 a 0.8,0.8 0 0 0 0.801,0.8 h 0.398 A 0.8,0.8 0 0 1 52,18.801 V 19.2 a 0.8,0.8 0 0 0 0.801,0.8 h 0.398 A 0.8,0.8 0 0 0 54,19.2 V 18.801 A 0.8,0.8 0 0 1 54.801,18 h 0.398 A 0.8,0.8 0 0 0 56,17.2 V 16.801 A 0.8,0.8 0 0 0 55.199,16 H 54.801 A 0.8,0.8 0 0 1 54,15.2 V 14.801 A 0.8,0.8 0 0 0 53.199,14 Z m -36,2 A 0.8,0.8 0 0 0 16,16.801 V 17.2 a 0.8,0.8 0 0 0 0.801,0.8 h 4.398 A 0.8,0.8 0 0 0 22,17.2 V 16.801 A 0.8,0.8 0 0 0 21.199,16 Z m 8,0 A 0.8,0.8 0 0 0 24,16.801 V 17.2 a 0.8,0.8 0 0 0 0.801,0.8 h 4.398 A 0.8,0.8 0 0 0 30,17.2 V 16.801 A 0.8,0.8 0 0 0 29.199,16 Z m 8,0 A 0.8,0.8 0 0 0 32,16.801 V 17.2 a 0.8,0.8 0 0 0 0.801,0.8 h 4.398 A 0.8,0.8 0 0 0 38,17.2 V 16.801 A 0.8,0.8 0 0 0 37.199,16 Z m 8,0 A 0.8,0.8 0 0 0 40,16.801 V 17.2 a 0.8,0.8 0 0 0 0.801,0.8 h 6.398 A 0.8,0.8 0 0 0 48,17.2 V 16.801 A 0.8,0.8 0 0 0 47.199,16 Z m -30,8 A 0.8,0.8 0 0 0 10,24.801 V 31.2 a 0.8,0.8 0 0 0 0.801,0.8 h 0.398 A 0.8,0.8 0 0 0 12,31.2 V 24.801 A 0.8,0.8 0 0 0 11.199,24 Z M 23,24 c -1.693,0 -3,1.392 -3,3.002 0,1.611 1.307,2.998 3,2.998 1.693,0 3,-1.387 3,-2.998 C 26,25.392 24.693,24 23,24 Z m 18,0 c -1.693,0 -3,1.392 -3,3.002 0,1.611 1.307,2.998 3,2.998 1.693,0 3,-1.387 3,-2.998 C 44,25.392 42.693,24 41,24 Z m 11.801,0 A 0.8,0.8 0 0 0 52,24.801 V 31.2 a 0.8,0.8 0 0 0 0.801,0.8 h 0.398 A 0.8,0.8 0 0 0 54,31.2 V 24.801 A 0.8,0.8 0 0 0 53.199,24 Z M 23,25.473 c 0.745,0 1.414,0.639 1.414,1.529 0,0.891 -0.669,1.526 -1.414,1.526 -0.745,0 -1.414,-0.635 -1.414,-1.526 0,-0.89 0.669,-1.529 1.414,-1.529 z m 18,0 c 0.745,0 1.414,0.639 1.414,1.529 0,0.891 -0.669,1.526 -1.414,1.526 -0.745,0 -1.414,-0.635 -1.414,-1.526 0,-0.89 0.669,-1.529 1.414,-1.529 z M 10.801,34 A 0.8,0.8 0 0 0 10,34.801 V 41.2 a 0.8,0.8 0 0 0 0.801,0.8 h 0.398 A 0.8,0.8 0 0 0 12,41.2 V 34.801 A 0.8,0.8 0 0 0 11.199,34 Z m 42,0 A 0.8,0.8 0 0 0 52,34.801 V 41.2 a 0.8,0.8 0 0 0 0.801,0.8 h 0.398 A 0.8,0.8 0 0 0 54,41.2 V 34.801 A 0.8,0.8 0 0 0 53.199,34 Z m -23.322,2 c -0.184,0.003 -0.369,0.055 -0.465,0.145 -0.274,0.256 -0.103,1.459 -0.127,1.861 -0.012,0.193 -0.015,0.283 -0.024,0.43 -0.008,0.154 0.007,0.441 -0.029,0.474 -0.01,0.01 -0.023,0.009 -0.033,0 -0.037,-0.031 -0.044,-0.294 -0.065,-0.435 -0.019,-0.133 -0.029,-0.218 -0.058,-0.389 -0.056,-0.329 -0.02,-1.236 -0.272,-1.445 -0.192,-0.16 -0.667,-0.16 -0.861,0 -0.253,0.208 -0.222,1.105 -0.283,1.437 -0.033,0.176 -0.05,0.268 -0.07,0.405 -0.021,0.14 -0.018,0.396 -0.053,0.427 -0.01,0.009 -0.024,0.01 -0.033,0 -0.036,-0.034 -0.015,-0.326 -0.024,-0.482 -0.008,-0.147 -0.017,-0.237 -0.029,-0.43 -0.026,-0.401 0.158,-1.596 -0.115,-1.853 -0.194,-0.182 -0.782,0 -0.938,0 0.078,0.614 -0.029,3.249 0.469,3.687 0.276,0.244 0.914,0.194 1.144,0 0.246,-0.207 0.171,-0.968 0.221,-1.281 0.029,-0.179 0.044,-0.288 0.063,-0.426 0.017,-0.13 0.013,-0.351 0.046,-0.381 0.01,-0.008 0.026,-0.008 0.036,0 0.032,0.03 0.024,0.251 0.041,0.381 0.017,0.138 0.034,0.246 0.062,0.426 0.05,0.313 -0.031,1.073 0.215,1.281 0.233,0.198 0.887,0.248 1.168,0 0.256,-0.225 0.466,-1.076 0.562,-1.91 0.042,0.836 0.136,1.679 0.399,1.91 0.276,0.244 0.914,0.194 1.144,0 0.246,-0.207 0.171,-0.968 0.221,-1.281 0.029,-0.179 0.044,-0.288 0.063,-0.426 0.017,-0.13 0.013,-0.351 0.047,-0.381 0.01,-0.008 0.025,-0.008 0.035,0 0.032,0.03 0.024,0.251 0.041,0.381 0.017,0.138 0.034,0.246 0.062,0.426 0.049,0.312 -0.036,1.073 0.209,1.281 0.233,0.198 0.892,0.249 1.174,0 0.257,-0.226 0.466,-1.078 0.562,-1.912 0.042,0.836 0.136,1.68 0.399,1.912 0.276,0.244 0.915,0.195 1.144,0 0.245,-0.207 0.164,-0.969 0.215,-1.281 0.03,-0.18 0.049,-0.288 0.069,-0.426 0.018,-0.13 0.013,-0.351 0.047,-0.381 0.01,-0.008 0.025,-0.008 0.035,0 0.032,0.03 0.018,0.251 0.035,0.381 0.017,0.138 0.039,0.246 0.068,0.426 0.051,0.312 -0.036,1.073 0.209,1.281 0.233,0.198 0.892,0.249 1.174,0 0.502,-0.442 0.829,-3.278 0.469,-3.687 -0.18,-0.204 -0.733,-0.181 -0.926,0 -0.274,0.256 -0.094,1.459 -0.121,1.861 -0.013,0.193 -0.021,0.283 -0.029,0.43 -0.009,0.154 0.012,0.441 -0.024,0.474 -0.009,0.01 -0.025,0.009 -0.035,0 -0.037,-0.031 -0.041,-0.294 -0.062,-0.435 -0.021,-0.133 -0.035,-0.218 -0.065,-0.389 -0.057,-0.329 -0.014,-1.236 -0.266,-1.445 -0.193,-0.161 -0.672,-0.16 -0.867,0 -0.253,0.208 -0.224,1.105 -0.283,1.437 -0.031,0.176 -0.045,0.268 -0.064,0.405 -0.02,0.14 -0.018,0.396 -0.053,0.427 -0.01,0.009 -0.024,0.01 -0.033,0 -0.036,-0.034 -0.015,-0.326 -0.024,-0.482 -0.008,-0.147 -0.016,-0.237 -0.029,-0.43 -0.027,-0.401 0.152,-1.597 -0.121,-1.853 -0.194,-0.182 -0.777,0 -0.932,0 0.002,0.011 0.003,0.027 0.004,0.039 -0.009,-0.015 -0.017,-0.028 -0.027,-0.039 -0.179,-0.203 -0.728,-0.18 -0.92,0 -0.274,0.256 -0.1,1.459 -0.127,1.861 -0.013,0.193 -0.021,0.283 -0.029,0.43 -0.009,0.154 0.011,0.441 -0.024,0.474 -0.009,0.01 -0.025,0.009 -0.035,0 -0.037,-0.031 -0.042,-0.294 -0.063,-0.435 -0.019,-0.133 -0.029,-0.218 -0.058,-0.389 -0.056,-0.329 -0.019,-1.236 -0.272,-1.445 -0.193,-0.161 -0.672,-0.16 -0.867,0 -0.253,0.208 -0.224,1.105 -0.283,1.437 -0.031,0.176 -0.045,0.268 -0.064,0.405 -0.02,0.14 -0.018,0.396 -0.053,0.427 -0.01,0.009 -0.024,0.01 -0.033,0 -0.036,-0.034 -0.015,-0.326 -0.024,-0.482 -0.008,-0.147 -0.017,-0.237 -0.029,-0.43 -0.026,-0.401 0.158,-1.596 -0.115,-1.853 -0.194,-0.182 -0.782,0 -0.938,0 0.002,0.011 0.003,0.027 0.004,0.039 C 29.952,36.169 29.943,36.156 29.934,36.145 29.844,36.043 29.662,35.997 29.479,36 Z M 10.801,46 A 0.8,0.8 0 0 0 10,46.801 V 47.2 A 0.8,0.8 0 0 1 9.1992,48 H 8.8008 A 0.8,0.8 0 0 0 8,48.801 V 49.2 A 0.8,0.8 0 0 0 8.8008,50 H 9.1992 A 0.8,0.8 0 0 1 10,50.801 V 51.2 a 0.8,0.8 0 0 0 0.801,0.8 h 0.398 A 0.8,0.8 0 0 0 12,51.2 V 50.801 A 0.8,0.8 0 0 1 12.801,50 h 0.398 A 0.8,0.8 0 0 0 14,49.2 V 48.801 A 0.8,0.8 0 0 0 13.199,48 H 12.801 A 0.8,0.8 0 0 1 12,47.2 V 46.801 A 0.8,0.8 0 0 0 11.199,46 Z m 42,0 A 0.8,0.8 0 0 0 52,46.801 V 47.2 A 0.8,0.8 0 0 1 51.199,48 H 50.801 A 0.8,0.8 0 0 0 50,48.801 V 49.2 a 0.8,0.8 0 0 0 0.801,0.8 h 0.398 A 0.8,0.8 0 0 1 52,50.801 V 51.2 a 0.8,0.8 0 0 0 0.801,0.8 h 0.398 A 0.8,0.8 0 0 0 54,51.2 V 50.801 A 0.8,0.8 0 0 1 54.801,50 h 0.398 A 0.8,0.8 0 0 0 56,49.2 V 48.801 A 0.8,0.8 0 0 0 55.199,48 H 54.801 A 0.8,0.8 0 0 1 54,47.2 V 46.801 A 0.8,0.8 0 0 0 53.199,46 Z m -36,2 A 0.8,0.8 0 0 0 16,48.801 V 49.2 a 0.8,0.8 0 0 0 0.801,0.8 h 4.398 A 0.8,0.8 0 0 0 22,49.2 V 48.801 A 0.8,0.8 0 0 0 21.199,48 Z m 8,0 A 0.8,0.8 0 0 0 24,48.801 V 49.2 a 0.8,0.8 0 0 0 0.801,0.8 h 4.398 A 0.8,0.8 0 0 0 30,49.2 V 48.801 A 0.8,0.8 0 0 0 29.199,48 Z m 8,0 A 0.8,0.8 0 0 0 32,48.801 V 49.2 a 0.8,0.8 0 0 0 0.801,0.8 h 4.398 A 0.8,0.8 0 0 0 38,49.2 V 48.801 A 0.8,0.8 0 0 0 37.199,48 Z m 8,0 A 0.8,0.8 0 0 0 40,48.801 V 49.2 a 0.8,0.8 0 0 0 0.801,0.8 h 6.398 A 0.8,0.8 0 0 0 48,49.2 V 48.801 A 0.8,0.8 0 0 0 47.199,48 Z"
       id="path3" /></g></svg>
