<?xml version="1.0" encoding="UTF-8" standalone="no"?>
<svg
   id="_图层_1"
   version="1.1"
   viewBox="0 0 64 64" width="16" height="16"
   sodipodi:docname="pokerth.svg"
   xml:space="preserve"
   inkscape:version="1.4 (e7c3feb100, 2024-10-09)"
   xmlns:inkscape="http://www.inkscape.org/namespaces/inkscape"
   xmlns:sodipodi="http://sodipodi.sourceforge.net/DTD/sodipodi-0.dtd"
   xmlns="http://www.w3.org/2000/svg"
   xmlns:svg="http://www.w3.org/2000/svg"><sodipodi:namedview
     id="namedview26"
     pagecolor="#ffffff"
     bordercolor="#999999"
     borderopacity="1"
     inkscape:showpageshadow="2"
     inkscape:pageopacity="0"
     inkscape:pagecheckerboard="0"
     inkscape:deskcolor="#d1d1d1"
     inkscape:zoom="8.453125"
     inkscape:cx="31.94085"
     inkscape:cy="31.94085"
     inkscape:window-width="1920"
     inkscape:window-height="939"
     inkscape:window-x="0"
     inkscape:window-y="34"
     inkscape:window-maximized="1"
     inkscape:current-layer="_图层_1" /><!-- Generator: Adobe Illustrator 29.0.1, SVG Export Plug-In . SVG Version: 2.1.0 Build 192)  --><defs
     id="defs6"><style
       id="style1">
      .st0 {
        fill-opacity: .5;
      }

      .st0, .st1, .st2, .st3, .st4, .st5, .st6, .st7 {
        fill: #fff;
      }

      .st8 {
        fill: #133c9a;
      }

      .st2, .st9 {
        display: none;
      }

      .st3 {
        fill-opacity: .2;
      }

      .st4 {
        fill-opacity: .9;
      }

      .st10 {
        fill: #3370ff;
      }

      .st11 {
        fill: url(#_未命名的渐变_3);
      }

      .st12 {
        fill: url(#_未命名的渐变);
      }

      .st5 {
        fill-opacity: .3;
      }

      .st6 {
        fill-opacity: 0;
      }

      .st7 {
        fill-opacity: .7;
      }

      .st13 {
        fill: #00d6b9;
      }

      .st14 {
        fill: url(#_未命名的渐变_2);
      }
    </style><radialGradient
       id="_未命名的渐变"
       data-name="未命名的渐变"
       cx="123.9"
       cy="-40.2"
       fx="123.9"
       fy="-40.2"
       r="59.4"
       gradientTransform="translate(-26.8 25.5) scale(.6 -.7)"
       gradientUnits="userSpaceOnUse"><stop
         offset="0"
         stop-color="#db202e"
         id="stop1" /><stop
         offset="1"
         stop-color="#e01b24"
         id="stop2" /></radialGradient><radialGradient
       id="_未命名的渐变_2"
       data-name="未命名的渐变 2"
       cx="67.6"
       cy="26.8"
       fx="67.6"
       fy="26.8"
       r="105.2"
       gradientTransform="translate(-26.6 25.3) scale(.6 -.7)"
       gradientUnits="userSpaceOnUse"><stop
         offset="0"
         stop-color="#ffb648"
         id="stop3" /><stop
         offset="1"
         stop-color="#ff7800"
         stop-opacity="0"
         id="stop4" /></radialGradient><radialGradient
       id="_未命名的渐变_3"
       data-name="未命名的渐变 3"
       cx="61.7"
       cy="18.6"
       fx="61.7"
       fy="18.6"
       r="68"
       gradientTransform="translate(-26.8 25.8) scale(.6 -.7)"
       gradientUnits="userSpaceOnUse"><stop
         offset="0"
         stop-color="#c64600"
         id="stop5" /><stop
         offset="1"
         stop-color="#a51d2d"
         id="stop6" /></radialGradient></defs><path
     class="st1"
     d="M47.5,64.1H13.8c-7.6,0-13.8-6.3-13.8-13.8V13.7C0,6.2,6.2,0,13.7,0h36.6c7.5,0,13.7,6.2,13.7,13.7v36.6c0,7.5-6.2,13.7-13.7,13.7h-2.9.1Z"
     id="path6" /><rect
     class="st2"
     x="3"
     y="9.7"
     width="58.1"
     height="45.3"
     id="rect6" /><g
     class="st9"
     id="g21"><path
       class="st12"
       d="M-.1,16v35.3c.3,6.5,6.1,12.6,13.4,12.6l4.7.2h23.3s7.2,0,7.2,0c8.8,0,15.5-4.1,15.5-13.9V16.4h0C64,6.3,58,0,50.7,0H14.8C4.7-.2,0,7.2,0,14.5v1.4h-.1ZM4.6,11.6h4.6v5.8h-4.6v-5.8ZM54.9,11.6h4.6v5.8h-4.6v-5.8ZM4.6,23.2h4.6v5.8h-4.6v-5.8ZM54.9,23.2h4.6v5.8h-4.6v-5.8ZM4.6,34.8h4.6v5.8h-4.6v-5.8ZM54.9,34.8h4.6v5.8h-4.6v-5.8ZM4.6,46.4h4.6v5.8h-4.6v-5.8ZM54.9,46.4h4.6v5.8h-4.6v-5.8Z"
       id="path7" /><path
       class="st14"
       d="M47.5,0h-.7C41.4,0,46.8,0,45.5,0H13.3C4.1.3,0,8.5,0,13.7v1.3c0,.3-.1.3-.1.6v34.3c0,1.1,0,.8,0,.8H0c0,7.1,5.9,13.2,13.8,13.3h0c1.2,0,0,0,1.2,0h0c1.1,0,2.3,0,1.1,0h23.5c1.1,0,0,0,1.1,0h.7c3.2.1-1.7,0,0,0h-2.6c1.1,0,.6,0-1.1,0h-2c1.9,0-.6,0,13.3,0h1.3c5.9,0,13.7-4.3,13.6-11.4l.2-36.2C64.1,8.1,58.6,0,51.2,0M4.8,22.9h4.5v5.8h-4.5v-5.8ZM54.7,11.4h4.5v5.8h-4.5v-5.8ZM4.8,11.4h5v5.8h-5v-5.8ZM54.7,22.9h4.5v5.8h-4.5v-5.8ZM4.8,34.4h4.5v5.8h-4.5v-5.8ZM54.7,34.4h4.5v5.8h-4.5v-5.8ZM4.8,46h4.5v5.8h-4.5v-5.8ZM54.7,46h4.5v5.8h-4.5v-5.8Z"
       id="path8" /><path
       class="st11"
       d="M4.6,9.7v2.2h4.6v-2.2h-4.6ZM54.9,9.7v2.2h4.6v-2.2h-4.6ZM4.6,21.3v2.2h4.6v-2.2h-4.6ZM54.9,21.3v2.2h4.6v-2.2h-4.6ZM4.6,32.9v2.2h4.6v-2.2h-4.6ZM54.9,32.9v2.2h4.6v-2.2h-4.6ZM4.6,44.4v2.2h4.6v-2.2h-4.6ZM54.9,44.4v2.2h4.6v-2.2h-4.6ZM4.6,56v2.2h4.6v-2.2h-4.6ZM54.9,56v2.2h4.6v-2.2h-4.6Z"
       id="path9" /><g
       id="g20"><path
         class="st1"
         d="M25.1,29.3h13.7v11.6h-13.7s0-11.6,0-11.6Z"
         id="path10" /><path
         class="st1"
         d="M32,53.9l-12.6-15.9h25.1l-12.6,15.9h.1Z"
         id="path11" /><path
         class="st7"
         d="M25.1,29.3h4.6v-5.8h-4.6v5.8Z"
         id="path12" /><path
         class="st1"
         d="M29.7,29.3h4.6v-5.8h-4.6s0,5.8,0,5.8Z"
         id="path13" /><path
         class="st4"
         d="M34.3,29.3h4.6v-5.8h-4.6v5.8Z"
         id="path14" /><path
         class="st7"
         d="M38.9,23.5h-4.6v-5.8h4.6v5.8Z"
         id="path15" /><path
         class="st0"
         d="M34.3,23.5h-4.6v-5.8h4.6v5.8Z"
         id="path16" /><path
         class="st4"
         d="M29.7,23.5h-4.6v-5.8h4.6v5.8Z"
         id="path17" /><path
         class="st3"
         d="M38.9,17.7h-4.6v-5.8h4.6v5.8Z"
         id="path18" /><path
         class="st5"
         d="M34.3,17.7h-4.6v-5.8h4.6v5.8Z"
         id="path19" /><path
         class="st6"
         d="M29.7,17.7h-4.6v-5.8h4.6v5.8Z"
         id="path20" /></g></g><g
     class="st9"
     id="g23"><path
       class="st8"
       d="M50.3,23.1c.2,0,.5,0,.7,0,1.8.2,3.5.7,5.1,1.4.5.2.6.4.2.8-1.2,1.2-2.1,2.7-2.9,4.2-.8,1.7-1.6,3.3-2.5,4.9-.6,1.2-1.4,2.3-2.4,3.3-2.5,2.3-5.4,3.2-8.8,2.8-3.8-.5-7.5-1.8-10.9-3.5-.2,0-.3-.2-.5-.3-.1,0-.2-.2,0-.3,0,0,0,0,0,0h.2c2.8-1.6,5.1-3.7,7.3-5.9.9-.9,1.9-1.9,2.8-2.8,2.1-2,4.7-3.4,7.5-4,.6-.2,1.2-.3,1.9-.4h1.4"
       id="path21" /><path
       class="st10"
       d="M23.4,49.9c-.4,0-1.5-.2-1.6-.2-2.7-.3-5.3-1.1-7.7-2.3-1.4-.7-2.8-1.4-4.1-2.2-.9-.5-1.3-1.3-1.3-2.3,0-3.9,0-7.8,0-11.7,0-2.5,0-5-.1-7.5,0-.2,0-.4.1-.7.2-.5.5-.5.8-.2.4.3.6.8,1,1.1,3.2,3.1,6.5,6,10.3,8.3,2.1,1.4,4.3,2.6,6.6,3.6,3.6,1.7,7.4,3.1,11.3,4,3.5.8,6.8.3,9.6-1.9.9-.7,1.3-1.3,2.3-2.6-.5,1.2-1,2.3-1.8,3.4-.7,1-2.1,2.4-3.2,3.5-1.7,1.6-3.9,3-6,4.1-2.3,1.2-4.6,2.2-7.2,2.7-1.3.3-3.2.7-3.8.7-.1,0-.5,0-.7,0-1.7.1-2.7.2-4.4,0h0Z"
       id="path22" /><path
       class="st13"
       d="M16.2,12.3c.1,0,.2,0,.3,0,7.2,0,14.3.1,21.4.1s0,0,0,0c.7.6,1.3,1.2,1.8,1.9,1.6,1.6,2.8,4.4,3.6,6.1.4,1.2,1,2.3,1.3,3.6h0c-.7.3-1.4.5-2.1.9-2.1,1-3,1.8-4.7,3.5-.9.9-1.7,1.7-3,2.9-.5.4-.9.9-1.4,1.3-.3-.6-5.9-11.5-17.1-20"
       id="path23" /></g><g
     id="g26"
     transform="translate(0,-0.5)"><rect
       style="opacity:0.2"
       width="56"
       height="56"
       x="4"
       y="5"
       rx="28"
       ry="28"
       id="rect1" /><rect
       style="fill:#c12d25"
       width="56"
       height="56"
       x="4"
       y="4"
       rx="28"
       ry="28"
       id="rect2" /><path
       style="fill:#ffffff"
       d="M 32,4 C 29.936828,4 27.933912,4.2366852 26,4.65625 V 17.515625 L 16.90625,8.4179688 C 13.495217,10.599881 10.599881,13.495217 8.4179688,16.90625 L 17.515625,26 H 4.65625 C 4.2366852,27.933912 4,29.936828 4,32 c 0,2.063172 0.2366852,4.066088 0.65625,6 h 12.859375 l -9.0976562,9.09375 c 2.1819122,3.411032 5.0772482,6.30637 8.4882812,8.488282 L 26,46.484376 V 59.34375 C 27.933912,59.763314 29.936828,60 32,60 c 2.063172,0 4.066088,-0.236686 6,-0.65625 V 46.484376 l 9.09375,9.097656 c 3.411032,-2.181912 6.30637,-5.07725 8.488282,-8.488282 L 46.484376,38 H 59.34375 C 59.763314,36.066088 60,34.063172 60,32 60,29.936828 59.763314,27.933912 59.34375,26 H 46.484376 l 9.097656,-9.09375 C 53.40012,13.495217 50.504782,10.599881 47.09375,8.4179688 L 38,17.515625 V 4.65625 C 36.066088,4.2366852 34.063172,4 32,4 Z"
       id="path2" /><rect
       style="fill:#ffcb05"
       width="48"
       height="48"
       x="-56"
       y="-56"
       rx="24"
       ry="24"
       transform="matrix(0,-1,-1,0,0,0)"
       id="rect3" /><rect
       style="fill:#c12d25"
       width="40"
       height="40"
       x="-52"
       y="-52"
       rx="20"
       ry="20"
       transform="matrix(0,-1,-1,0,0,0)"
       id="rect4" /><path
       style="opacity:0.2"
       d="m 19,23 v 4 h 4 v 16 h 4 V 27 h 4 v -4 z m 14,0 v 20 h 4 v -8 h 4 v 8 h 4 V 23 h -4 v 8 h -4 v -8 z"
       id="path4" /><g
       transform="matrix(2,0,0,2,-1,0)"
       id="g9"><rect
         style="fill:#fffcf7"
         width="2"
         height="10"
         x="12"
         y="11"
         id="rect5" /><rect
         style="fill:#fffcf7"
         width="2"
         height="6"
         x="11"
         y="-16"
         transform="rotate(90)"
         id="rect6-3" /><rect
         style="fill:#fffcf7"
         width="2"
         height="10"
         x="17"
         y="11"
         id="rect7" /><rect
         style="fill:#fffcf7"
         width="2"
         height="6"
         x="15"
         y="-23"
         transform="rotate(90)"
         id="rect8" /><rect
         style="fill:#fffcf7"
         width="2"
         height="10"
         x="21"
         y="11"
         id="rect9" /></g><path
       style="opacity:0.1;fill:#ffffff"
       d="M 32,4 C 16.488,4 4,16.488 4,32 4,32.11345 4.01128,32.224113 4.017578,32.335938 4.3691213,17.134181 16.710728,5 32,5 47.289272,5 59.630879,17.134181 59.982422,32.335938 59.98872,32.224113 60,32.11345 60,32 60,16.488 47.512,4 32,4 Z"
       id="path9-6" /></g></svg>
