<?xml version="1.0" encoding="UTF-8" standalone="no"?>
<svg
   id="_图层_1"
   version="1.1"
   viewBox="0 0 64 64" width="16" height="16"
   sodipodi:docname="pop-shop.svg"
   xml:space="preserve"
   inkscape:version="1.4 (e7c3feb100, 2024-10-09)"
   xmlns:inkscape="http://www.inkscape.org/namespaces/inkscape"
   xmlns:sodipodi="http://sodipodi.sourceforge.net/DTD/sodipodi-0.dtd"
   xmlns="http://www.w3.org/2000/svg"
   xmlns:svg="http://www.w3.org/2000/svg"><sodipodi:namedview
     id="namedview26"
     pagecolor="#ffffff"
     bordercolor="#999999"
     borderopacity="1"
     inkscape:showpageshadow="2"
     inkscape:pageopacity="0"
     inkscape:pagecheckerboard="0"
     inkscape:deskcolor="#d1d1d1"
     inkscape:zoom="10.6875"
     inkscape:cx="32"
     inkscape:cy="17.02924"
     inkscape:window-width="1920"
     inkscape:window-height="939"
     inkscape:window-x="0"
     inkscape:window-y="34"
     inkscape:window-maximized="1"
     inkscape:current-layer="g28" /><!-- Generator: Adobe Illustrator 29.0.1, SVG Export Plug-In . SVG Version: 2.1.0 Build 192)  --><defs
     id="defs6"><style
       id="style1">
      .st0 {
        fill-opacity: .5;
      }

      .st0, .st1, .st2, .st3, .st4, .st5, .st6, .st7 {
        fill: #fff;
      }

      .st8 {
        fill: #133c9a;
      }

      .st2, .st9 {
        display: none;
      }

      .st3 {
        fill-opacity: .2;
      }

      .st4 {
        fill-opacity: .9;
      }

      .st10 {
        fill: #3370ff;
      }

      .st11 {
        fill: url(#_未命名的渐变_3);
      }

      .st12 {
        fill: url(#_未命名的渐变);
      }

      .st5 {
        fill-opacity: .3;
      }

      .st6 {
        fill-opacity: 0;
      }

      .st7 {
        fill-opacity: .7;
      }

      .st13 {
        fill: #00d6b9;
      }

      .st14 {
        fill: url(#_未命名的渐变_2);
      }
    </style><radialGradient
       id="_未命名的渐变"
       data-name="未命名的渐变"
       cx="123.9"
       cy="-40.2"
       fx="123.9"
       fy="-40.2"
       r="59.4"
       gradientTransform="translate(-26.8 25.5) scale(.6 -.7)"
       gradientUnits="userSpaceOnUse"><stop
         offset="0"
         stop-color="#db202e"
         id="stop1" /><stop
         offset="1"
         stop-color="#e01b24"
         id="stop2" /></radialGradient><radialGradient
       id="_未命名的渐变_2"
       data-name="未命名的渐变 2"
       cx="67.6"
       cy="26.8"
       fx="67.6"
       fy="26.8"
       r="105.2"
       gradientTransform="translate(-26.6 25.3) scale(.6 -.7)"
       gradientUnits="userSpaceOnUse"><stop
         offset="0"
         stop-color="#ffb648"
         id="stop3" /><stop
         offset="1"
         stop-color="#ff7800"
         stop-opacity="0"
         id="stop4" /></radialGradient><radialGradient
       id="_未命名的渐变_3"
       data-name="未命名的渐变 3"
       cx="61.7"
       cy="18.6"
       fx="61.7"
       fy="18.6"
       r="68"
       gradientTransform="translate(-26.8 25.8) scale(.6 -.7)"
       gradientUnits="userSpaceOnUse"><stop
         offset="0"
         stop-color="#c64600"
         id="stop5" /><stop
         offset="1"
         stop-color="#a51d2d"
         id="stop6" /></radialGradient></defs><path
     class="st1"
     d="M47.5,64.1H13.8c-7.6,0-13.8-6.3-13.8-13.8V13.7C0,6.2,6.2,0,13.7,0h36.6c7.5,0,13.7,6.2,13.7,13.7v36.6c0,7.5-6.2,13.7-13.7,13.7h-2.9.1Z"
     id="path6"
     style="fill:#fcb96f;fill-opacity:1" /><rect
     class="st2"
     x="3"
     y="9.7"
     width="58.1"
     height="45.3"
     id="rect6" /><g
     class="st9"
     id="g21"><path
       class="st12"
       d="M-.1,16v35.3c.3,6.5,6.1,12.6,13.4,12.6l4.7.2h23.3s7.2,0,7.2,0c8.8,0,15.5-4.1,15.5-13.9V16.4h0C64,6.3,58,0,50.7,0H14.8C4.7-.2,0,7.2,0,14.5v1.4h-.1ZM4.6,11.6h4.6v5.8h-4.6v-5.8ZM54.9,11.6h4.6v5.8h-4.6v-5.8ZM4.6,23.2h4.6v5.8h-4.6v-5.8ZM54.9,23.2h4.6v5.8h-4.6v-5.8ZM4.6,34.8h4.6v5.8h-4.6v-5.8ZM54.9,34.8h4.6v5.8h-4.6v-5.8ZM4.6,46.4h4.6v5.8h-4.6v-5.8ZM54.9,46.4h4.6v5.8h-4.6v-5.8Z"
       id="path7" /><path
       class="st14"
       d="M47.5,0h-.7C41.4,0,46.8,0,45.5,0H13.3C4.1.3,0,8.5,0,13.7v1.3c0,.3-.1.3-.1.6v34.3c0,1.1,0,.8,0,.8H0c0,7.1,5.9,13.2,13.8,13.3h0c1.2,0,0,0,1.2,0h0c1.1,0,2.3,0,1.1,0h23.5c1.1,0,0,0,1.1,0h.7c3.2.1-1.7,0,0,0h-2.6c1.1,0,.6,0-1.1,0h-2c1.9,0-.6,0,13.3,0h1.3c5.9,0,13.7-4.3,13.6-11.4l.2-36.2C64.1,8.1,58.6,0,51.2,0M4.8,22.9h4.5v5.8h-4.5v-5.8ZM54.7,11.4h4.5v5.8h-4.5v-5.8ZM4.8,11.4h5v5.8h-5v-5.8ZM54.7,22.9h4.5v5.8h-4.5v-5.8ZM4.8,34.4h4.5v5.8h-4.5v-5.8ZM54.7,34.4h4.5v5.8h-4.5v-5.8ZM4.8,46h4.5v5.8h-4.5v-5.8ZM54.7,46h4.5v5.8h-4.5v-5.8Z"
       id="path8" /><path
       class="st11"
       d="M4.6,9.7v2.2h4.6v-2.2h-4.6ZM54.9,9.7v2.2h4.6v-2.2h-4.6ZM4.6,21.3v2.2h4.6v-2.2h-4.6ZM54.9,21.3v2.2h4.6v-2.2h-4.6ZM4.6,32.9v2.2h4.6v-2.2h-4.6ZM54.9,32.9v2.2h4.6v-2.2h-4.6ZM4.6,44.4v2.2h4.6v-2.2h-4.6ZM54.9,44.4v2.2h4.6v-2.2h-4.6ZM4.6,56v2.2h4.6v-2.2h-4.6ZM54.9,56v2.2h4.6v-2.2h-4.6Z"
       id="path9" /><g
       id="g20"><path
         class="st1"
         d="M25.1,29.3h13.7v11.6h-13.7s0-11.6,0-11.6Z"
         id="path10" /><path
         class="st1"
         d="M32,53.9l-12.6-15.9h25.1l-12.6,15.9h.1Z"
         id="path11" /><path
         class="st7"
         d="M25.1,29.3h4.6v-5.8h-4.6v5.8Z"
         id="path12" /><path
         class="st1"
         d="M29.7,29.3h4.6v-5.8h-4.6s0,5.8,0,5.8Z"
         id="path13" /><path
         class="st4"
         d="M34.3,29.3h4.6v-5.8h-4.6v5.8Z"
         id="path14" /><path
         class="st7"
         d="M38.9,23.5h-4.6v-5.8h4.6v5.8Z"
         id="path15" /><path
         class="st0"
         d="M34.3,23.5h-4.6v-5.8h4.6v5.8Z"
         id="path16" /><path
         class="st4"
         d="M29.7,23.5h-4.6v-5.8h4.6v5.8Z"
         id="path17" /><path
         class="st3"
         d="M38.9,17.7h-4.6v-5.8h4.6v5.8Z"
         id="path18" /><path
         class="st5"
         d="M34.3,17.7h-4.6v-5.8h4.6v5.8Z"
         id="path19" /><path
         class="st6"
         d="M29.7,17.7h-4.6v-5.8h4.6v5.8Z"
         id="path20" /></g></g><g
     class="st9"
     id="g23"><path
       class="st8"
       d="M50.3,23.1c.2,0,.5,0,.7,0,1.8.2,3.5.7,5.1,1.4.5.2.6.4.2.8-1.2,1.2-2.1,2.7-2.9,4.2-.8,1.7-1.6,3.3-2.5,4.9-.6,1.2-1.4,2.3-2.4,3.3-2.5,2.3-5.4,3.2-8.8,2.8-3.8-.5-7.5-1.8-10.9-3.5-.2,0-.3-.2-.5-.3-.1,0-.2-.2,0-.3,0,0,0,0,0,0h.2c2.8-1.6,5.1-3.7,7.3-5.9.9-.9,1.9-1.9,2.8-2.8,2.1-2,4.7-3.4,7.5-4,.6-.2,1.2-.3,1.9-.4h1.4"
       id="path21" /><path
       class="st10"
       d="M23.4,49.9c-.4,0-1.5-.2-1.6-.2-2.7-.3-5.3-1.1-7.7-2.3-1.4-.7-2.8-1.4-4.1-2.2-.9-.5-1.3-1.3-1.3-2.3,0-3.9,0-7.8,0-11.7,0-2.5,0-5-.1-7.5,0-.2,0-.4.1-.7.2-.5.5-.5.8-.2.4.3.6.8,1,1.1,3.2,3.1,6.5,6,10.3,8.3,2.1,1.4,4.3,2.6,6.6,3.6,3.6,1.7,7.4,3.1,11.3,4,3.5.8,6.8.3,9.6-1.9.9-.7,1.3-1.3,2.3-2.6-.5,1.2-1,2.3-1.8,3.4-.7,1-2.1,2.4-3.2,3.5-1.7,1.6-3.9,3-6,4.1-2.3,1.2-4.6,2.2-7.2,2.7-1.3.3-3.2.7-3.8.7-.1,0-.5,0-.7,0-1.7.1-2.7.2-4.4,0h0Z"
       id="path22" /><path
       class="st13"
       d="M16.2,12.3c.1,0,.2,0,.3,0,7.2,0,14.3.1,21.4.1s0,0,0,0c.7.6,1.3,1.2,1.8,1.9,1.6,1.6,2.8,4.4,3.6,6.1.4,1.2,1,2.3,1.3,3.6h0c-.7.3-1.4.5-2.1.9-2.1,1-3,1.8-4.7,3.5-.9.9-1.7,1.7-3,2.9-.5.4-.9.9-1.4,1.3-.3-.6-5.9-11.5-17.1-20"
       id="path23" /></g><g
     id="g26"
     transform="matrix(1.1453634,0,0,1.1395301,-4.5112779,-4.4265415)" /><g
     id="g27"
     transform="matrix(1.1336675,0,0,1.1378885,10.319131,-4.5135427)"><g
       id="g28"
       transform="matrix(1.0044215,0,0,1.0173267,-12.975682,1.2074557)"><path
         style="fill:#fcb96f"
         d="m 16,8 h 39.5 c 2.485281,0 4.5,2.014719 4.5,4.5 L 58.685253,49.919172 16,50 Z"
         id="path1"
         sodipodi:nodetypes="cssccc" /><path
         style="fill:#fada7b"
         d="m 16,34 c 22,0 28,2 44,7 L 59.096112,50.323313 16,50 Z"
         id="path2"
         sodipodi:nodetypes="ccccc" /><path
         style="opacity:0.2;fill:#ffffff"
         d="m 16,34 v 1 c 22,0 28,2 44,7 V 41 C 44,36 38,34 16,34 Z"
         id="path3" /><path
         style="fill:#554741"
         d="m 16,50 42.767425,0.323313 -0.164344,0.509351 C 57.416862,54.509124 53.750104,58 48.761922,58 H 16 Z"
         id="path4"
         sodipodi:nodetypes="ccsscc" /><path
         style="fill:#aaa09b;stroke-width:1.05046"
         d="M 15.073735,2.7461571 16,2.8269855 V 58 l -0.844094,0.08083 C 9.9165727,58.582534 3.9030743,52.543481 3.9178283,46.568161 L 4,13.288885 C 4.0129583,8.040812 10.485627,2.3457869 15.073735,2.7461571 Z"
         id="path5"
         sodipodi:nodetypes="sccssss" /><circle
         style="fill:#8a7d77"
         cx="10"
         cy="46"
         r="2"
         id="circle5" /><circle
         style="fill:#8a7d77"
         cx="10"
         cy="38"
         r="2"
         id="circle6" /><circle
         style="fill:#8a7d77"
         cx="10"
         cy="30"
         r="2"
         id="circle7" /><path
         style="fill:#8a7d77"
         d="m 10,20 c -1.1046,0 -2,0.896 -2,2 0,1.104 0.8954,2 2,2 h 28 v -4 z"
         id="path7-1" /><circle
         style="fill:#8a7d77"
         cx="10"
         cy="14"
         r="2"
         id="circle8" /><path
         style="opacity:0.2"
         d="m 34.431,44.33 c -0.014,0.072 -0.414,2.338 -0.452,3.03 -0.026,0.458 -0.01,0.946 0.004,1.23 0.006,0.136 0.118,0.268 0.252,0.292 0.328,0.058 0.965,0.154 1.783,0.18 1.211,0.04 1.984,0.048 1.984,0.048 0,0 0.772,-0.008 1.985,-0.048 0.817,-0.026 1.453,-0.122 1.781,-0.18 0.135,-0.024 0.247,-0.156 0.253,-0.292 0.014,-0.284 0.03,-0.772 0.004,-1.23 -0.038,-0.692 -0.439,-2.958 -0.453,-3.03 0.002,-0.002 0.002,-0.002 0.004,-0.002 0,0 -0.004,-0.292 0.008,-0.446 0.014,-0.196 0.156,-0.436 0.415,-1.816 0.132,-0.008 0.266,-0.018 0.398,-0.036 l 2.61,-0.324 c 0.59,-0.074 1.171,0.218 1.461,0.738 l 6.847,12.317 c 0,0 0.38,0.81 0.622,0.676 0.152,-0.086 -0.036,-0.896 -0.036,-0.896 L 50.527,37.164 c -0.074,-0.384 -0.269,-0.732 -0.553,-1 l -5.32,-5.028 C 44.56,31.048 44.438,31 44.31,31 h -0.57 c 0.392,-2.641 0.266,-4.969 0.126,-8.001 C 43.724,19.969 42.749,15.576 41.436,11 40.728,8.5312 40.085,6.8123 39.163,5 38.442,3.5863 38.002,3.6015 38.002,3.6015 c 0,0 -0.44,-0.0152 -1.161,1.3985 -0.923,1.8123 -1.565,3.5312 -2.274,6 -1.312,4.576 -2.287,8.969 -2.429,11.999 -0.14,3.032 -0.266,5.36 0.126,8.001 h -0.579 c -0.128,0 -0.25,0.048 -0.344,0.136 l -5.32,5.028 c -0.284,0.268 -0.476,0.616 -0.552,1 l -3.374,17.377 c 0,0 -0.188,0.81 -0.036,0.896 0.242,0.134 0.622,-0.676 0.622,-0.676 l 6.847,-12.317 c 0.29,-0.52 0.871,-0.812 1.461,-0.738 l 2.61,0.324 c 0.136,0.018 0.272,0.028 0.406,0.036 0.258,1.38 0.4,1.62 0.414,1.816 0.012,0.154 0.008,0.446 0.008,0.446 0.002,0 0.002,0 0.004,0.002 z"
         id="path10-0" /><path
         style="fill:#d9d9d9"
         d="m 34.428,43.328 c 0,0 -0.412,2.328 -0.452,3.032 -0.024,0.458 -0.01,0.946 0.002,1.23 0.006,0.136 0.122,0.27 0.256,0.294 0.326,0.058 0.964,0.152 1.782,0.178 C 37.226,48.102 38,48.11 38,48.11 V 43.4 m 3.572,-0.072 c 0,0 0.412,2.328 0.452,3.032 0.024,0.458 0.01,0.946 -0.002,1.23 -0.006,0.136 -0.122,0.27 -0.256,0.294 -0.326,0.058 -0.964,0.152 -1.782,0.178 C 38.774,48.102 38,48.11 38,48.11 V 43.4"
         id="path11-9" /><path
         style="fill:#ececec"
         d="m 37.996,30 h -6.312 c -0.128,0 -0.252,0.05 -0.346,0.138 l -5.318,5.026 c -0.284,0.268 -0.476,0.618 -0.55,1.002 l -3.376,17.376 c 0,0 -0.186,0.81 -0.034,0.894 0.242,0.136 0.618,-0.674 0.618,-0.674 l 6.85,-12.318 c 0.29,-0.52 0.868,-0.812 1.458,-0.738 L 33.6,41.03 c 0.264,0.034 0.53,0.05 0.796,0.05 h 3.6 m 0,-11.08 h 6.312 c 0.128,0 0.252,0.05 0.346,0.138 l 5.318,5.026 c 0.284,0.268 0.476,0.618 0.55,1.002 l 3.376,17.376 c 0,0 0.186,0.81 0.034,0.894 -0.242,0.136 -0.618,-0.674 -0.618,-0.674 l -6.85,-12.318 c -0.29,-0.52 -0.868,-0.812 -1.458,-0.738 l -2.614,0.324 c -0.264,0.034 -0.53,0.05 -0.796,0.05 h -3.6"
         id="path12-3" /><path
         style="fill:#ffffff"
         d="m 38.002,2.6 c 0,0 -0.44,-0.0138 -1.161,1.3999 -0.923,1.8123 -1.563,3.5329 -2.272,6.0011 -1.312,4.577 -2.289,8.968 -2.431,11.999 -0.14,3.032 -0.264,5.36 0.126,8 0.39,2.64 1.173,7.562 1.555,10 0.384,2.437 0.584,2.643 0.602,2.881 0.012,0.154 0.008,0.446 0.008,0.446 1.089,0.552 2.382,0.604 3.573,0.672 m 0,-41.399 c 0,0 0.44,-0.0138 1.161,1.3999 0.922,1.8123 1.563,3.5329 2.271,6.0011 1.313,4.577 2.29,8.968 2.432,11.999 0.14,3.032 0.266,5.36 -0.126,8 -0.39,2.64 -1.173,7.562 -1.555,10 -0.385,2.437 -0.585,2.643 -0.603,2.881 -0.012,0.154 -0.008,0.446 -0.008,0.446 -1.088,0.552 -2.381,0.604 -3.572,0.672"
         id="path13-6" /><path
         style="fill:#fada7b"
         d="m 33.66,32.426 0.25,1.624 c 0.222,0.042 1.006,0.174 2.09,0.254 1.274,0.094 2,0.078 2,0.078 v -1.504 c 0,0 -1.094,0.002 -2,-0.096 -0.906,-0.1 -2.34,-0.356 -2.34,-0.356 z m 0.512,3.332 0.246,1.598 c 0,0 0.742,0.18 1.582,0.246 0.84,0.066 2,0.078 2,0.078 v -1.578 c 0,0 -1.126,0.016 -2,-0.086 -0.764,-0.088 -1.668,-0.232 -1.828,-0.258 z m 8.168,-3.332 -0.25,1.624 c -0.222,0.042 -1.006,0.174 -2.09,0.254 -1.274,0.094 -2,0.078 -2,0.078 v -1.504 c 0,0 1.094,0.002 2,-0.096 0.906,-0.1 2.34,-0.356 2.34,-0.356 z m -0.512,3.332 -0.246,1.598 c 0,0 -0.742,0.18 -1.582,0.246 -0.84,0.066 -2,0.078 -2,0.078 v -1.578 c 0,0 1.126,0.016 2,-0.086 0.764,-0.088 1.668,-0.232 1.828,-0.258 z"
         id="path14-0" /><path
         style="fill:#47b9c8"
         d="m 38,8.6 c 0,0 -1.744,0.0376 -2.016,0.3218 -0.276,0.2902 -0.46,0.8594 -0.46,0.8594 0,0 -0.188,0.5628 -0.22,0.9848 -0.03,0.421 -0.022,0.632 0,0.781 0.024,0.148 0.118,0.273 0.29,0.398 0.172,0.125 0.274,0.282 0.976,0.516 C 37.176,12.663 38,12.66 38,12.66 M 38,8.6 c 0,0 1.744,0.0376 2.016,0.3218 0.276,0.2902 0.46,0.8594 0.46,0.8594 0,0 0.188,0.5628 0.22,0.9848 0.03,0.421 0.022,0.632 0,0.781 -0.024,0.148 -0.118,0.273 -0.29,0.398 -0.172,0.125 -0.274,0.282 -0.976,0.516 C 38.824,12.663 38,12.66 38,12.66"
         id="path15-6" /></g></g></svg>
