<?xml version="1.0" encoding="UTF-8" standalone="no"?>
<svg
   id="_图层_1"
   version="1.1"
   viewBox="0 0 64 64" width="16" height="16"
   sodipodi:docname="portproton.svg"
   xml:space="preserve"
   inkscape:version="1.4 (e7c3feb100, 2024-10-09)"
   xmlns:inkscape="http://www.inkscape.org/namespaces/inkscape"
   xmlns:sodipodi="http://sodipodi.sourceforge.net/DTD/sodipodi-0.dtd"
   xmlns="http://www.w3.org/2000/svg"
   xmlns:svg="http://www.w3.org/2000/svg"><sodipodi:namedview
     id="namedview26"
     pagecolor="#ffffff"
     bordercolor="#999999"
     borderopacity="1"
     inkscape:showpageshadow="2"
     inkscape:pageopacity="0"
     inkscape:pagecheckerboard="0"
     inkscape:deskcolor="#d1d1d1"
     inkscape:zoom="10.6875"
     inkscape:cx="45.754386"
     inkscape:cy="32"
     inkscape:window-width="1920"
     inkscape:window-height="939"
     inkscape:window-x="0"
     inkscape:window-y="34"
     inkscape:window-maximized="1"
     inkscape:current-layer="_图层_1" /><!-- Generator: Adobe Illustrator 29.0.1, SVG Export Plug-In . SVG Version: 2.1.0 Build 192)  --><defs
     id="defs6"><style
       id="style1">
      .st0 {
        fill-opacity: .5;
      }

      .st0, .st1, .st2, .st3, .st4, .st5, .st6, .st7 {
        fill: #fff;
      }

      .st8 {
        fill: #133c9a;
      }

      .st2, .st9 {
        display: none;
      }

      .st3 {
        fill-opacity: .2;
      }

      .st4 {
        fill-opacity: .9;
      }

      .st10 {
        fill: #3370ff;
      }

      .st11 {
        fill: url(#_未命名的渐变_3);
      }

      .st12 {
        fill: url(#_未命名的渐变);
      }

      .st5 {
        fill-opacity: .3;
      }

      .st6 {
        fill-opacity: 0;
      }

      .st7 {
        fill-opacity: .7;
      }

      .st13 {
        fill: #00d6b9;
      }

      .st14 {
        fill: url(#_未命名的渐变_2);
      }
    </style><radialGradient
       id="_未命名的渐变"
       data-name="未命名的渐变"
       cx="123.9"
       cy="-40.2"
       fx="123.9"
       fy="-40.2"
       r="59.4"
       gradientTransform="translate(-26.8 25.5) scale(.6 -.7)"
       gradientUnits="userSpaceOnUse"><stop
         offset="0"
         stop-color="#db202e"
         id="stop1" /><stop
         offset="1"
         stop-color="#e01b24"
         id="stop2" /></radialGradient><radialGradient
       id="_未命名的渐变_2"
       data-name="未命名的渐变 2"
       cx="67.6"
       cy="26.8"
       fx="67.6"
       fy="26.8"
       r="105.2"
       gradientTransform="translate(-26.6 25.3) scale(.6 -.7)"
       gradientUnits="userSpaceOnUse"><stop
         offset="0"
         stop-color="#ffb648"
         id="stop3" /><stop
         offset="1"
         stop-color="#ff7800"
         stop-opacity="0"
         id="stop4" /></radialGradient><radialGradient
       id="_未命名的渐变_3"
       data-name="未命名的渐变 3"
       cx="61.7"
       cy="18.6"
       fx="61.7"
       fy="18.6"
       r="68"
       gradientTransform="translate(-26.8 25.8) scale(.6 -.7)"
       gradientUnits="userSpaceOnUse"><stop
         offset="0"
         stop-color="#c64600"
         id="stop5" /><stop
         offset="1"
         stop-color="#a51d2d"
         id="stop6" /></radialGradient></defs><path
     class="st1"
     d="M47.5,64.1H13.8c-7.6,0-13.8-6.3-13.8-13.8V13.7C0,6.2,6.2,0,13.7,0h36.6c7.5,0,13.7,6.2,13.7,13.7v36.6c0,7.5-6.2,13.7-13.7,13.7h-2.9.1Z"
     id="path6"
     style="fill:#34344b;fill-opacity:1" /><rect
     class="st2"
     x="3"
     y="9.7"
     width="58.1"
     height="45.3"
     id="rect6" /><g
     class="st9"
     id="g21"><path
       class="st12"
       d="M-.1,16v35.3c.3,6.5,6.1,12.6,13.4,12.6l4.7.2h23.3s7.2,0,7.2,0c8.8,0,15.5-4.1,15.5-13.9V16.4h0C64,6.3,58,0,50.7,0H14.8C4.7-.2,0,7.2,0,14.5v1.4h-.1ZM4.6,11.6h4.6v5.8h-4.6v-5.8ZM54.9,11.6h4.6v5.8h-4.6v-5.8ZM4.6,23.2h4.6v5.8h-4.6v-5.8ZM54.9,23.2h4.6v5.8h-4.6v-5.8ZM4.6,34.8h4.6v5.8h-4.6v-5.8ZM54.9,34.8h4.6v5.8h-4.6v-5.8ZM4.6,46.4h4.6v5.8h-4.6v-5.8ZM54.9,46.4h4.6v5.8h-4.6v-5.8Z"
       id="path7" /><path
       class="st14"
       d="M47.5,0h-.7C41.4,0,46.8,0,45.5,0H13.3C4.1.3,0,8.5,0,13.7v1.3c0,.3-.1.3-.1.6v34.3c0,1.1,0,.8,0,.8H0c0,7.1,5.9,13.2,13.8,13.3h0c1.2,0,0,0,1.2,0h0c1.1,0,2.3,0,1.1,0h23.5c1.1,0,0,0,1.1,0h.7c3.2.1-1.7,0,0,0h-2.6c1.1,0,.6,0-1.1,0h-2c1.9,0-.6,0,13.3,0h1.3c5.9,0,13.7-4.3,13.6-11.4l.2-36.2C64.1,8.1,58.6,0,51.2,0M4.8,22.9h4.5v5.8h-4.5v-5.8ZM54.7,11.4h4.5v5.8h-4.5v-5.8ZM4.8,11.4h5v5.8h-5v-5.8ZM54.7,22.9h4.5v5.8h-4.5v-5.8ZM4.8,34.4h4.5v5.8h-4.5v-5.8ZM54.7,34.4h4.5v5.8h-4.5v-5.8ZM4.8,46h4.5v5.8h-4.5v-5.8ZM54.7,46h4.5v5.8h-4.5v-5.8Z"
       id="path8" /><path
       class="st11"
       d="M4.6,9.7v2.2h4.6v-2.2h-4.6ZM54.9,9.7v2.2h4.6v-2.2h-4.6ZM4.6,21.3v2.2h4.6v-2.2h-4.6ZM54.9,21.3v2.2h4.6v-2.2h-4.6ZM4.6,32.9v2.2h4.6v-2.2h-4.6ZM54.9,32.9v2.2h4.6v-2.2h-4.6ZM4.6,44.4v2.2h4.6v-2.2h-4.6ZM54.9,44.4v2.2h4.6v-2.2h-4.6ZM4.6,56v2.2h4.6v-2.2h-4.6ZM54.9,56v2.2h4.6v-2.2h-4.6Z"
       id="path9" /><g
       id="g20"><path
         class="st1"
         d="M25.1,29.3h13.7v11.6h-13.7s0-11.6,0-11.6Z"
         id="path10" /><path
         class="st1"
         d="M32,53.9l-12.6-15.9h25.1l-12.6,15.9h.1Z"
         id="path11" /><path
         class="st7"
         d="M25.1,29.3h4.6v-5.8h-4.6v5.8Z"
         id="path12" /><path
         class="st1"
         d="M29.7,29.3h4.6v-5.8h-4.6s0,5.8,0,5.8Z"
         id="path13" /><path
         class="st4"
         d="M34.3,29.3h4.6v-5.8h-4.6v5.8Z"
         id="path14" /><path
         class="st7"
         d="M38.9,23.5h-4.6v-5.8h4.6v5.8Z"
         id="path15" /><path
         class="st0"
         d="M34.3,23.5h-4.6v-5.8h4.6v5.8Z"
         id="path16" /><path
         class="st4"
         d="M29.7,23.5h-4.6v-5.8h4.6v5.8Z"
         id="path17" /><path
         class="st3"
         d="M38.9,17.7h-4.6v-5.8h4.6v5.8Z"
         id="path18" /><path
         class="st5"
         d="M34.3,17.7h-4.6v-5.8h4.6v5.8Z"
         id="path19" /><path
         class="st6"
         d="M29.7,17.7h-4.6v-5.8h4.6v5.8Z"
         id="path20" /></g></g><g
     class="st9"
     id="g23"><path
       class="st8"
       d="M50.3,23.1c.2,0,.5,0,.7,0,1.8.2,3.5.7,5.1,1.4.5.2.6.4.2.8-1.2,1.2-2.1,2.7-2.9,4.2-.8,1.7-1.6,3.3-2.5,4.9-.6,1.2-1.4,2.3-2.4,3.3-2.5,2.3-5.4,3.2-8.8,2.8-3.8-.5-7.5-1.8-10.9-3.5-.2,0-.3-.2-.5-.3-.1,0-.2-.2,0-.3,0,0,0,0,0,0h.2c2.8-1.6,5.1-3.7,7.3-5.9.9-.9,1.9-1.9,2.8-2.8,2.1-2,4.7-3.4,7.5-4,.6-.2,1.2-.3,1.9-.4h1.4"
       id="path21" /><path
       class="st10"
       d="M23.4,49.9c-.4,0-1.5-.2-1.6-.2-2.7-.3-5.3-1.1-7.7-2.3-1.4-.7-2.8-1.4-4.1-2.2-.9-.5-1.3-1.3-1.3-2.3,0-3.9,0-7.8,0-11.7,0-2.5,0-5-.1-7.5,0-.2,0-.4.1-.7.2-.5.5-.5.8-.2.4.3.6.8,1,1.1,3.2,3.1,6.5,6,10.3,8.3,2.1,1.4,4.3,2.6,6.6,3.6,3.6,1.7,7.4,3.1,11.3,4,3.5.8,6.8.3,9.6-1.9.9-.7,1.3-1.3,2.3-2.6-.5,1.2-1,2.3-1.8,3.4-.7,1-2.1,2.4-3.2,3.5-1.7,1.6-3.9,3-6,4.1-2.3,1.2-4.6,2.2-7.2,2.7-1.3.3-3.2.7-3.8.7-.1,0-.5,0-.7,0-1.7.1-2.7.2-4.4,0h0Z"
       id="path22" /><path
       class="st13"
       d="M16.2,12.3c.1,0,.2,0,.3,0,7.2,0,14.3.1,21.4.1s0,0,0,0c.7.6,1.3,1.2,1.8,1.9,1.6,1.6,2.8,4.4,3.6,6.1.4,1.2,1,2.3,1.3,3.6h0c-.7.3-1.4.5-2.1.9-2.1,1-3,1.8-4.7,3.5-.9.9-1.7,1.7-3,2.9-.5.4-.9.9-1.4,1.3-.3-.6-5.9-11.5-17.1-20"
       id="path23" /></g><g
     id="g27"
     transform="matrix(1.13868,0,0,1.1428132,-4.3324979,-4.4396738)"><path
       style="opacity:0.2"
       d="m 42.166016,11 c -2.8,0 -6.466625,1.976339 -10.177735,5.402344 -3.711113,-3.404043 -7.377733,-5.359375 -10.177734,-5.359375 v 2.251953 c 2.111111,0 5.23442,1.658758 8.556641,4.689453 -1.422223,1.482406 -2.855381,3.162563 -4.210938,5.029297 -2.3,0.241578 -4.489626,0.613286 -6.478516,1.107422 -0.233333,-1.010234 -0.410981,-1.986556 -0.533203,-2.919922 -0.477778,-3.843274 0.110503,-6.840243 1.488281,-7.63086 0.311112,-0.186674 0.701302,-0.263671 1.167969,-0.263671 v -2.251953 c -0.855556,0 -1.634114,0.1872 -2.300781,0.560546 -2.866667,1.636137 -3.510981,6.719776 -2.033203,13.09961 C 11.122352,26.647462 7,29.744567 7,33.005859 c 0,3.272274 4.145053,6.379144 10.511719,8.300782 -1.466666,6.401796 -0.81198,11.496676 2.054687,13.132812 C 20.233072,54.823781 20.999911,55 21.855469,55 c 2.8,0 6.466624,-1.97634 10.177734,-5.402344 3.711111,3.404044 7.377734,5.359375 10.177735,5.359375 0.855556,0 1.634115,-0.187189 2.300781,-0.560547 2.866667,-1.636138 3.51098,-6.719773 2.033203,-13.099609 C 52.878255,39.375239 57,36.278133 57,33.005859 57,29.733587 52.85495,26.624763 46.488281,24.703125 47.954948,18.301328 47.300259,13.206449 44.433594,11.570312 43.769557,11.1875 43.006519,11.0131 42.166016,11.011719 Z m -0.0098,2.251953 v 0.0098 c 0.466667,0 0.843795,0.08798 1.166016,0.263672 1.388889,0.790617 1.98815,3.777819 1.521484,7.621093 -0.111104,0.944348 -0.299261,1.94363 -0.521484,2.964844 -2,-0.483154 -4.177907,-0.856078 -6.466797,-1.097656 -1.377777,-1.866734 -2.799695,-3.558611 -4.244141,-5.041016 3.317412,-3.048238 6.433944,-4.715876 8.544922,-4.720703 z m -10.189453,6.3125 c 0.944443,0.966309 1.900651,2.042592 2.833984,3.228516 -0.922223,-0.04392 -1.856337,-0.06641 -2.800781,-0.06641 -0.955556,0 -1.911761,0.02249 -2.833984,0.06641 0.922223,-1.185926 1.867447,-2.262207 2.800781,-3.228516 z M 32,24.978516 c 1.544444,0 3.078734,0.06672 4.589844,0.1875 0.844446,1.196906 1.664843,2.481395 2.464844,3.832031 0.777779,1.317694 1.478602,2.657176 2.123046,4.007812 -0.644444,1.339658 -1.355774,2.690858 -2.111328,4.019532 -0.8,1.361616 -1.610634,2.644892 -2.455078,3.841797 -1.52222,0.131759 -3.055772,0.197265 -4.611328,0.197265 -1.544444,0 -3.078734,-0.06477 -4.589844,-0.185547 -0.844446,-1.196904 -1.664843,-2.481395 -2.464844,-3.832031 -0.777778,-1.317694 -1.478602,-2.657178 -2.123046,-4.007813 0.633333,-1.350638 1.344662,-2.701837 2.111328,-4.019531 0.8,-1.361618 1.610634,-2.646846 2.455078,-3.84375 1.52222,-0.13176 3.055772,-0.197265 4.611328,-0.197265 z m -7.578125,0.515625 c -0.5,0.779634 -1.00013,1.570234 -1.466797,2.382812 -0.466666,0.801596 -0.911152,1.614418 -1.322266,2.416016 -0.555555,-1.350636 -1.021269,-2.701099 -1.410156,-4.007813 1.344444,-0.30746 2.743663,-0.582381 4.199219,-0.791015 z m 15.132813,0 c 1.444445,0.208634 2.844401,0.473312 4.177734,0.802734 -0.377779,1.295734 -0.843619,2.634953 -1.376953,3.974609 -0.422221,-0.801598 -0.856206,-1.614417 -1.333985,-2.416015 -0.466667,-0.801598 -0.966796,-1.592674 -1.466796,-2.361328 z m 6.390624,1.394531 c 1.011111,0.30746 1.965235,0.659855 2.865235,1.033203 3.611113,1.52633 5.945312,3.512518 5.945312,5.09375 -0.03333,1.570254 -2.366795,3.580355 -5.966797,5.095703 -0.877777,0.373346 -1.833376,0.703043 -2.822265,1.021484 -0.577777,-1.976542 -1.344619,-4.030359 -2.289063,-6.138671 0.933333,-2.09733 1.6898,-4.139911 2.267578,-6.105469 z m -27.923828,0.01172 c 0.577778,1.97654 1.34462,4.030359 2.289063,6.138671 -0.933333,2.097328 -1.687848,4.139909 -2.265625,6.105469 -1,-0.318442 -1.956814,-0.659857 -2.845703,-1.033203 -3.611111,-1.52633 -5.9433596,-3.514467 -5.9433596,-5.095703 0,-1.581232 2.3322486,-3.589384 5.9433596,-5.09375 0.877778,-0.373348 1.833376,-0.703042 2.822265,-1.021484 z M 32,29 a 4,4 0 0 0 -4,4 4,4 0 0 0 4,4 4,4 0 0 0 4,-4 4,4 0 0 0 -4,-4 z m 10.355469,6.707031 c 0.555556,1.350638 1.023219,2.701099 1.412109,4.007813 -1.333334,0.318442 -2.745618,0.592147 -4.201172,0.800781 0.5,-0.779634 1.000131,-1.570234 1.466797,-2.382813 0.466667,-0.801597 0.900045,-1.613201 1.322266,-2.425781 z m -20.722657,0.05469 c 0.422223,0.801596 0.856208,1.614419 1.333985,2.416015 0.477779,0.790616 0.966797,1.580958 1.466797,2.34961 -1.444443,-0.208632 -2.844401,-0.472574 -4.177735,-0.791016 0.377777,-1.295732 0.843618,-2.634953 1.376953,-3.974609 z m 22.710938,6.126953 c 0.222223,1.021214 0.401215,1.998274 0.523438,2.93164 0.477777,3.843275 -0.11245,6.842199 -1.490235,7.632813 -0.31111,0.18666 -0.699349,0.263672 -1.166015,0.263672 -2.11111,0 -5.232467,-1.658759 -8.554688,-4.689453 1.422221,-1.482406 2.85538,-3.162565 4.210938,-5.029297 2.299999,-0.241578 4.487672,-0.615237 6.476562,-1.109375 z m -24.654297,0.02148 c 2,0.483156 4.177908,0.858032 6.466797,1.09961 1.377777,1.866732 2.799697,3.556658 4.244141,5.039062 -3.322221,3.05266 -6.445531,4.722656 -8.556641,4.722656 -0.466667,-0.011 -0.854297,-0.09969 -1.154297,-0.27539 -1.388887,-0.790618 -1.990104,-3.77782 -1.523437,-7.621094 0.11111,-0.944348 0.301214,-1.94363 0.523437,-2.964844 z m 9.5,1.31836 c 0.92222,0.04392 1.854382,0.06641 2.798828,0.06641 0.955554,0 1.911762,-0.02249 2.833985,-0.06641 -0.911113,1.185924 -1.867449,2.262205 -2.800782,3.228515 -0.944446,-0.96631 -1.898698,-2.042591 -2.832031,-3.228515 z"
       id="path2" /><path
       style="fill:#e1145e"
       class="st1"
       d="M 57,32.00549 C 57,28.733218 52.855556,25.625656 46.488887,23.704018 47.955554,17.302221 47.299998,12.207138 44.433333,10.571001 43.766667,10.186673 43,10.010981 42.155554,10.010981 v 2.251061 c 0.466667,0 0.844446,0.08785 1.166667,0.263538 1.388889,0.790617 1.988889,3.77739 1.522223,7.620664 -0.111104,0.944348 -0.3,1.943598 -0.522223,2.964812 -2,-0.483154 -4.177777,-0.8565 -6.466667,-1.098078 -1.377777,-1.866734 -2.799998,-3.557775 -4.244444,-5.04018 3.322223,-3.052659 6.444444,-4.721737 8.555557,-4.721737 V 10 10 c -2.8,0 -6.466667,1.976541 -10.177777,5.402546 -3.711113,-3.404043 -7.377777,-5.358623 -10.177778,-5.358623 v 2.251061 c 2.111111,0 5.233334,1.658099 8.555555,4.688794 -1.422223,1.482406 -2.855554,3.162466 -4.211111,5.0292 -2.3,0.241578 -4.488889,0.614924 -6.477779,1.10906 -0.233333,-1.010234 -0.41111,-1.987524 -0.533332,-2.92089 -0.477778,-3.843274 0.11111,-6.841028 1.488888,-7.631645 0.311111,-0.186674 0.7,-0.263538 1.166667,-0.263538 v -2.251061 0 c -0.855556,0 -1.633333,0.186674 -2.3,0.56002 -2.866667,1.636137 -3.511111,6.72024 -2.033333,13.100074 C 11.122222,25.647616 7,28.744198 7,32.00549 7,35.277764 11.144445,38.385326 17.511111,40.306964 16.044445,46.70876 16.7,51.803844 19.566667,53.43998 20.233333,53.824308 20.999998,54 21.855556,54 c 2.8,0 6.466667,-1.976542 10.177777,-5.402546 3.711111,3.404044 7.377777,5.358622 10.177777,5.358622 0.855557,0 1.633334,-0.18666 2.3,-0.560018 2.866667,-1.636138 3.511111,-6.72024 2.033334,-13.100076 C 52.877777,38.374346 57,35.277764 57,32.00549 Z M 43.733333,25.29623 c -0.377779,1.295734 -0.844445,2.63539 -1.377779,3.975046 C 41.933333,28.469678 41.5,27.657102 41.022221,26.855504 40.555554,26.053906 40.055554,25.26329 39.555554,24.494636 41,24.70327 42.4,24.966808 43.733333,25.29623 Z m -4.666666,10.728228 c -0.8,1.361616 -1.611113,2.64637 -2.455557,3.843274 -1.52222,0.13176 -3.055554,0.19766 -4.61111,0.19766 -1.544444,0 -3.077777,-0.06588 -4.588887,-0.18666 -0.844446,-1.196904 -1.666667,-2.481656 -2.466667,-3.832292 -0.777779,-1.317694 -1.477779,-2.657352 -2.122223,-4.007986 0.633333,-1.350638 1.344444,-2.701274 2.11111,-4.018968 0.8,-1.361618 1.611113,-2.64637 2.455557,-3.843274 1.52222,-0.13176 3.055554,-0.19766 4.61111,-0.19766 1.544444,0 3.077777,0.06588 4.588887,0.18666 0.844446,1.196906 1.666667,2.481658 2.466667,3.832294 0.777779,1.317694 1.477779,2.65735 2.122223,4.007986 -0.644444,1.339658 -1.355556,2.690292 -2.11111,4.018966 z m 3.288887,-1.317696 c 0.555556,1.350638 1.022223,2.701274 1.411113,4.007988 -1.333334,0.318442 -2.744446,0.592962 -4.2,0.801596 0.5,-0.779634 1,-1.570252 1.466666,-2.38283 0.466667,-0.801598 0.9,-1.614174 1.322221,-2.426754 z M 32.022223,45.45695 c -0.944446,-0.96631 -1.9,-2.042426 -2.833333,-3.22835 0.92222,0.04392 1.855554,0.06588 2.8,0.06588 0.955554,0 1.91111,-0.02196 2.833333,-0.06588 -0.911113,1.185924 -1.866667,2.26204 -2.8,3.22835 z m -7.58889,-5.929624 c -1.444443,-0.208632 -2.844443,-0.472172 -4.177777,-0.790614 0.377777,-1.295732 0.844442,-2.635388 1.377777,-3.975044 0.422223,0.801596 0.855557,1.614176 1.333334,2.415772 0.477779,0.790616 0.966666,1.581234 1.466666,2.349886 z m 7.533334,-20.962314 c 0.944443,0.966309 1.9,2.042426 2.833333,3.22835 -0.922223,-0.04392 -1.855556,-0.06588 -2.8,-0.06588 -0.955556,0 -1.91111,0.02196 -2.833333,0.06588 0.922223,-1.185926 1.866666,-2.262043 2.8,-3.228352 z m -7.544444,5.929624 c -0.5,0.779634 -1,1.570252 -1.466667,2.38283 -0.466666,0.801596 -0.91111,1.614172 -1.322223,2.41577 -0.555556,-1.350636 -1.022223,-2.701272 -1.41111,-4.007986 1.344444,-0.30746 2.744444,-0.58198 4.2,-0.790614 z M 15.2,37.111556 c -3.611111,-1.52633 -5.944445,-3.51385 -5.944445,-5.095086 0,-1.581232 2.333334,-3.590716 5.944445,-5.095082 0.877778,-0.373348 1.833333,-0.70277 2.822222,-1.021212 0.577778,1.97654 1.344445,4.029946 2.288888,6.138258 -0.933333,2.097328 -1.688888,4.139754 -2.266665,6.105314 -1,-0.318442 -1.955556,-0.658846 -2.844445,-1.032192 z m 5.488887,14.384826 C 19.3,50.705764 18.7,47.718992 19.166667,43.875718 c 0.11111,-0.944348 0.3,-1.943598 0.522223,-2.964812 2,0.483156 4.177777,0.856502 6.466666,1.09808 1.377777,1.866732 2.8,3.557774 4.244444,5.040178 -3.322221,3.05266 -6.444444,4.721736 -8.555554,4.721736 -0.466667,-0.011 -0.855559,-0.09882 -1.155559,-0.274518 z m 24.17778,-7.675568 c 0.477777,3.843274 -0.111105,6.84103 -1.48889,7.631644 -0.31111,0.18666 -0.7,0.26354 -1.166667,0.26354 -2.11111,0 -5.233333,-1.6581 -8.555554,-4.688794 1.422221,-1.482406 2.855554,-3.162468 4.211111,-5.0292 2.3,-0.241578 4.488887,-0.614922 6.477777,-1.10906 0.222223,1.021214 0.4,1.998504 0.522223,2.93187 z m 3.922221,-6.709258 c -0.877778,0.373346 -1.833334,0.70277 -2.822223,1.021212 -0.577777,-1.976542 -1.344444,-4.029946 -2.288888,-6.138258 0.933333,-2.09733 1.688888,-4.139756 2.266667,-6.105314 1.01111,0.30746 1.966666,0.658844 2.866666,1.032192 3.611113,1.52633 5.944446,3.51385 5.944446,5.095082 -0.03333,1.570254 -2.366666,3.579738 -5.966668,5.095086 z"
       id="path3" /><circle
       style="fill:#ffffff"
       class="st2"
       cx="32"
       cy="32"
       r="4"
       id="circle3" /><path
       style="opacity:0.2;fill:#ffffff"
       d="m 42.166016,10 c -2.8,0 -6.466625,1.976339 -10.177735,5.402344 -3.711113,-3.404043 -7.377733,-5.359375 -10.177734,-5.359375 v 1 c 2.800001,0 6.466621,1.955332 10.177734,5.359375 C 35.699391,12.976339 39.366016,11 42.166016,11 v 0.01172 c 0.840503,0.0014 1.603541,0.175781 2.267578,0.558593 1.732435,0.98878 2.650158,3.246785 2.787109,6.28711 0.03152,-3.53737 -0.872523,-6.194368 -2.787109,-7.28711 C 43.769557,10.1875 43.006519,10.0131 42.166016,10.011719 Z m -20.365235,0.05469 c -0.855556,0 -1.634114,0.1872 -2.300781,0.560546 -1.910415,1.090361 -2.811202,3.732063 -2.777344,7.248047 0.135453,-3.019036 1.049907,-5.26212 2.777344,-6.248047 0.666667,-0.373346 1.445225,-0.560546 2.300781,-0.560546 z m 12.326172,7.466796 c -0.172264,0.15181 -0.342154,0.291777 -0.515625,0.451172 1.444446,1.482405 2.866364,3.174282 4.244141,5.041016 2.28889,0.241578 4.466797,0.614502 6.466797,1.097656 0.222223,-1.021214 0.41038,-2.020496 0.521484,-2.964844 0.130343,-1.07345 0.168702,-2.069843 0.138672,-2.980468 -0.01627,0.631093 -0.05428,1.285427 -0.138672,1.980468 -0.111104,0.944348 -0.299261,1.94363 -0.521484,2.964844 -2,-0.483154 -4.177907,-0.856078 -6.466797,-1.097656 -1.21326,-1.643831 -2.461501,-3.143331 -3.728516,-4.492188 z m -4.275391,0.01563 c -1.252095,1.345556 -2.503071,2.83473 -3.695312,4.476563 -2.3,0.241578 -4.489626,0.613286 -6.478516,1.107422 C 19.444401,22.11086 19.266753,21.134538 19.144531,20.201172 19.055574,19.485598 19.016795,18.812226 19,18.164062 c -0.03071,0.926571 0.0083,1.941607 0.144531,3.03711 0.122222,0.933366 0.29987,1.909688 0.533203,2.919922 1.98889,-0.494136 4.178516,-0.865844 6.478516,-1.107422 1.355557,-1.866734 2.788715,-3.546891 4.210938,-5.029297 -0.173208,-0.158008 -0.343621,-0.29676 -0.515626,-0.447266 z M 32,21.726562 c -0.672381,0 -1.333374,0.02513 -1.994141,0.04688 -0.280419,0.336744 -0.562536,0.662929 -0.839843,1.019531 0.922223,-0.04392 1.878428,-0.06641 2.833984,-0.06641 0.944444,1e-6 1.878558,0.02249 2.800781,0.06641 C 34.519978,22.43617 34.233138,22.110357 33.949219,21.773438 33.302686,21.752164 32.657296,21.726563 32,21.726562 Z m 14.669922,2.039063 c -0.06293,0.314594 -0.107994,0.616044 -0.181641,0.9375 6.047578,1.825327 10.082633,4.722351 10.472657,7.8125 C 56.98306,32.346182 57,32.176399 57,32.005859 57,28.766223 52.929021,25.691417 46.669922,23.765625 Z m -29.386719,0.01172 C 11.047439,25.713615 7,28.777499 7,32.005859 c 0,0.164004 0.018484,0.327188 0.039063,0.490235 0.4035821,-3.071873 4.414992,-5.949674 10.427734,-7.78125 -0.07439,-0.321155 -0.119972,-0.623187 -0.183594,-0.9375 z m 7.138672,1.716797 c -0.233083,0.03341 -0.455313,0.07858 -0.685547,0.115234 -0.262191,0.421628 -0.532914,0.835167 -0.78125,1.267578 -0.466666,0.801596 -0.911152,1.614418 -1.322266,2.416016 -0.42459,-1.03224 -0.781711,-2.05768 -1.107421,-3.070313 -0.09939,0.02222 -0.203943,0.03991 -0.302735,0.0625 0.388887,1.306714 0.854601,2.657177 1.410156,4.007813 0.411114,-0.801598 0.8556,-1.61442 1.322266,-2.416016 0.466667,-0.812578 0.966797,-1.603178 1.466797,-2.382812 z m 15.132813,0 c 0.5,0.768654 1.000129,1.55973 1.466796,2.361328 0.477779,0.801598 0.911764,1.614417 1.333985,2.416015 0.533334,-1.339656 0.999174,-2.678875 1.376953,-3.974609 -0.09727,-0.02403 -0.200856,-0.04112 -0.298828,-0.06445 -0.319329,1.002163 -0.671396,2.017419 -1.078125,3.039062 -0.422221,-0.801598 -0.856206,-1.614417 -1.333985,-2.416015 -0.24621,-0.422919 -0.513565,-0.830902 -0.773437,-1.246094 -0.232532,-0.03689 -0.458379,-0.08129 -0.693359,-0.115234 z m 4.33789,6.998047 c -0.07271,0.167828 -0.139838,0.333404 -0.214844,0.501953 0.944444,2.108312 1.711286,4.162129 2.289063,6.138671 0.988889,-0.318441 1.944488,-0.648138 2.822265,-1.021484 3.600002,-1.515348 5.933467,-3.525449 5.966797,-5.095703 0,-0.168286 -0.0324,-0.341134 -0.08398,-0.517578 -0.43226,1.484609 -2.640285,3.248405 -5.882813,4.613281 -0.877777,0.373346 -1.833376,0.703043 -2.822265,1.021484 -0.531948,-1.819761 -1.230719,-3.707692 -2.074219,-5.640624 z m -2.966797,0.01367 c -0.57862,1.175247 -1.197643,2.355848 -1.859375,3.519532 -0.8,1.361616 -1.610634,2.644892 -2.455078,3.841797 -1.52222,0.131759 -3.055772,0.197265 -4.611328,0.197265 -1.544444,0 -3.078734,-0.06477 -4.589844,-0.185547 -0.844446,-1.196904 -1.664843,-2.481395 -2.464844,-3.832031 -0.681686,-1.154896 -1.295893,-2.328523 -1.873046,-3.509766 -0.081,0.167657 -0.171354,0.334234 -0.25,0.501953 0.644444,1.350635 1.345268,2.690119 2.123046,4.007813 0.800001,1.350636 1.620398,2.635127 2.464844,3.832031 1.51111,0.12078 3.0454,0.185547 4.589844,0.185547 1.555556,0 3.089108,-0.06551 4.611328,-0.197265 0.844444,-1.196905 1.655078,-2.480181 2.455078,-3.841797 0.755554,-1.328674 1.466884,-2.679874 2.111328,-4.019532 -0.07993,-0.167523 -0.170269,-0.332835 -0.251953,-0.5 z m -31.5917966,0.0098 c -0.047953,0.170183 -0.078125,0.33782 -0.078125,0.5 0,1.581236 2.3322486,3.569373 5.9433596,5.095703 0.888889,0.373346 1.845703,0.714761 2.845703,1.033203 0.577777,-1.96556 1.332292,-4.008141 2.265625,-6.105469 -0.07484,-0.16707 -0.140288,-0.331677 -0.212891,-0.498046 -0.832188,1.92078 -1.521324,3.795693 -2.052734,5.603515 -1,-0.318442 -1.956814,-0.659857 -2.845703,-1.033203 -3.241216,-1.369984 -5.4461218,-3.109899 -5.8652346,-4.595703 z m 34.1308596,6.263672 c -1.030847,0.239083 -2.108522,0.445439 -3.212891,0.621094 -0.230513,0.370686 -0.45162,0.75048 -0.685547,1.115234 1.455554,-0.208634 2.867838,-0.482339 4.201172,-0.800781 -0.09148,-0.307373 -0.202506,-0.623886 -0.302734,-0.935547 z m -22.910156,0.02148 c -0.09937,0.311858 -0.209176,0.62805 -0.298829,0.935547 1.333334,0.318442 2.733292,0.582384 4.177735,0.791016 -0.237424,-0.364993 -0.464853,-0.742688 -0.697266,-1.115235 -1.091105,-0.172979 -2.156457,-0.374357 -3.18164,-0.611328 z m 26.173828,2.433594 c -0.06361,0.01968 -0.119527,0.04306 -0.183594,0.0625 0.492891,2.127904 0.727137,4.089854 0.74414,5.849609 0.07792,-1.73842 -0.122094,-3.74569 -0.560546,-5.912109 z m -29.398438,0.01172 c -0.432737,2.163577 -0.628977,4.168811 -0.550781,5.90625 0.01573,-1.758888 0.245372,-3.7198 0.732422,-5.845703 -0.06331,-0.01911 -0.118777,-0.04121 -0.181641,-0.06055 z m 11.859375,1.982422 c 0.933333,1.185924 1.887585,2.262205 2.832031,3.228515 0.933333,-0.96631 1.889669,-2.042591 2.800782,-3.228515 -0.272027,0.01295 -0.558966,0.0104 -0.835938,0.01953 -0.652009,0.783693 -1.311756,1.532821 -1.964844,2.208984 -0.660599,-0.675892 -1.322359,-1.425649 -1.982422,-2.208984 -0.281991,-0.0093 -0.569666,-0.0062 -0.849609,-0.01953 z m 15.822266,3.628906 c -0.07696,2.324338 -0.649632,4.030404 -1.634766,4.595703 -0.31111,0.18666 -0.699349,0.263672 -1.166015,0.263672 -2.001184,0 -4.913612,-1.505536 -8.041016,-4.242188 -0.171358,0.184144 -0.342481,0.3743 -0.513672,0.552735 3.322221,3.030694 6.443578,4.689453 8.554688,4.689453 0.466666,0 0.854905,-0.07701 1.166015,-0.263672 1.121389,-0.643486 1.708343,-2.762143 1.634766,-5.595703 z m -25.984375,0.01172 c -0.07138,2.851631 0.526221,4.980353 1.662109,5.626953 0.3,0.175698 0.68763,0.26439 1.154297,0.27539 2.11111,0 5.23442,-1.669996 8.556641,-4.722656 -0.172333,-0.176893 -0.343963,-0.366115 -0.515625,-0.54886 -3.12686,2.755583 -6.040138,4.271484 -8.041016,4.271484 -0.466667,-0.011 -0.854297,-0.09969 -1.154297,-0.27539 -0.998976,-0.568663 -1.582742,-2.284463 -1.662109,-4.626953 z"
       id="path5" /></g></svg>
