<?xml version="1.0" encoding="UTF-8" standalone="no"?>
<svg
   id="_图层_1"
   version="1.1"
   viewBox="0 0 64 64" width="16" height="16"
   sodipodi:docname="portal2.svg"
   xml:space="preserve"
   inkscape:version="1.4 (e7c3feb100, 2024-10-09)"
   xmlns:inkscape="http://www.inkscape.org/namespaces/inkscape"
   xmlns:sodipodi="http://sodipodi.sourceforge.net/DTD/sodipodi-0.dtd"
   xmlns="http://www.w3.org/2000/svg"
   xmlns:svg="http://www.w3.org/2000/svg"><sodipodi:namedview
     id="namedview26"
     pagecolor="#ffffff"
     bordercolor="#999999"
     borderopacity="1"
     inkscape:showpageshadow="2"
     inkscape:pageopacity="0"
     inkscape:pagecheckerboard="0"
     inkscape:deskcolor="#d1d1d1"
     inkscape:zoom="10.6875"
     inkscape:cx="32"
     inkscape:cy="32"
     inkscape:window-width="1920"
     inkscape:window-height="939"
     inkscape:window-x="0"
     inkscape:window-y="34"
     inkscape:window-maximized="1"
     inkscape:current-layer="g27" /><!-- Generator: Adobe Illustrator 29.0.1, SVG Export Plug-In . SVG Version: 2.1.0 Build 192)  --><defs
     id="defs6"><style
       id="style1">
      .st0 {
        fill-opacity: .5;
      }

      .st0, .st1, .st2, .st3, .st4, .st5, .st6, .st7 {
        fill: #fff;
      }

      .st8 {
        fill: #133c9a;
      }

      .st2, .st9 {
        display: none;
      }

      .st3 {
        fill-opacity: .2;
      }

      .st4 {
        fill-opacity: .9;
      }

      .st10 {
        fill: #3370ff;
      }

      .st11 {
        fill: url(#_未命名的渐变_3);
      }

      .st12 {
        fill: url(#_未命名的渐变);
      }

      .st5 {
        fill-opacity: .3;
      }

      .st6 {
        fill-opacity: 0;
      }

      .st7 {
        fill-opacity: .7;
      }

      .st13 {
        fill: #00d6b9;
      }

      .st14 {
        fill: url(#_未命名的渐变_2);
      }
    </style><radialGradient
       id="_未命名的渐变"
       data-name="未命名的渐变"
       cx="123.9"
       cy="-40.2"
       fx="123.9"
       fy="-40.2"
       r="59.4"
       gradientTransform="translate(-26.8 25.5) scale(.6 -.7)"
       gradientUnits="userSpaceOnUse"><stop
         offset="0"
         stop-color="#db202e"
         id="stop1" /><stop
         offset="1"
         stop-color="#e01b24"
         id="stop2" /></radialGradient><radialGradient
       id="_未命名的渐变_2"
       data-name="未命名的渐变 2"
       cx="67.6"
       cy="26.8"
       fx="67.6"
       fy="26.8"
       r="105.2"
       gradientTransform="translate(-26.6 25.3) scale(.6 -.7)"
       gradientUnits="userSpaceOnUse"><stop
         offset="0"
         stop-color="#ffb648"
         id="stop3" /><stop
         offset="1"
         stop-color="#ff7800"
         stop-opacity="0"
         id="stop4" /></radialGradient><radialGradient
       id="_未命名的渐变_3"
       data-name="未命名的渐变 3"
       cx="61.7"
       cy="18.6"
       fx="61.7"
       fy="18.6"
       r="68"
       gradientTransform="translate(-26.8 25.8) scale(.6 -.7)"
       gradientUnits="userSpaceOnUse"><stop
         offset="0"
         stop-color="#c64600"
         id="stop5" /><stop
         offset="1"
         stop-color="#a51d2d"
         id="stop6" /></radialGradient></defs><path
     class="st1"
     d="M47.5,64.1H13.8c-7.6,0-13.8-6.3-13.8-13.8V13.7C0,6.2,6.2,0,13.7,0h36.6c7.5,0,13.7,6.2,13.7,13.7v36.6c0,7.5-6.2,13.7-13.7,13.7h-2.9.1Z"
     id="path6"
     style="fill:#56aad4;fill-opacity:1" /><rect
     class="st2"
     x="3"
     y="9.7"
     width="58.1"
     height="45.3"
     id="rect6" /><g
     class="st9"
     id="g21"><path
       class="st12"
       d="M-.1,16v35.3c.3,6.5,6.1,12.6,13.4,12.6l4.7.2h23.3s7.2,0,7.2,0c8.8,0,15.5-4.1,15.5-13.9V16.4h0C64,6.3,58,0,50.7,0H14.8C4.7-.2,0,7.2,0,14.5v1.4h-.1ZM4.6,11.6h4.6v5.8h-4.6v-5.8ZM54.9,11.6h4.6v5.8h-4.6v-5.8ZM4.6,23.2h4.6v5.8h-4.6v-5.8ZM54.9,23.2h4.6v5.8h-4.6v-5.8ZM4.6,34.8h4.6v5.8h-4.6v-5.8ZM54.9,34.8h4.6v5.8h-4.6v-5.8ZM4.6,46.4h4.6v5.8h-4.6v-5.8ZM54.9,46.4h4.6v5.8h-4.6v-5.8Z"
       id="path7" /><path
       class="st14"
       d="M47.5,0h-.7C41.4,0,46.8,0,45.5,0H13.3C4.1.3,0,8.5,0,13.7v1.3c0,.3-.1.3-.1.6v34.3c0,1.1,0,.8,0,.8H0c0,7.1,5.9,13.2,13.8,13.3h0c1.2,0,0,0,1.2,0h0c1.1,0,2.3,0,1.1,0h23.5c1.1,0,0,0,1.1,0h.7c3.2.1-1.7,0,0,0h-2.6c1.1,0,.6,0-1.1,0h-2c1.9,0-.6,0,13.3,0h1.3c5.9,0,13.7-4.3,13.6-11.4l.2-36.2C64.1,8.1,58.6,0,51.2,0M4.8,22.9h4.5v5.8h-4.5v-5.8ZM54.7,11.4h4.5v5.8h-4.5v-5.8ZM4.8,11.4h5v5.8h-5v-5.8ZM54.7,22.9h4.5v5.8h-4.5v-5.8ZM4.8,34.4h4.5v5.8h-4.5v-5.8ZM54.7,34.4h4.5v5.8h-4.5v-5.8ZM4.8,46h4.5v5.8h-4.5v-5.8ZM54.7,46h4.5v5.8h-4.5v-5.8Z"
       id="path8" /><path
       class="st11"
       d="M4.6,9.7v2.2h4.6v-2.2h-4.6ZM54.9,9.7v2.2h4.6v-2.2h-4.6ZM4.6,21.3v2.2h4.6v-2.2h-4.6ZM54.9,21.3v2.2h4.6v-2.2h-4.6ZM4.6,32.9v2.2h4.6v-2.2h-4.6ZM54.9,32.9v2.2h4.6v-2.2h-4.6ZM4.6,44.4v2.2h4.6v-2.2h-4.6ZM54.9,44.4v2.2h4.6v-2.2h-4.6ZM4.6,56v2.2h4.6v-2.2h-4.6ZM54.9,56v2.2h4.6v-2.2h-4.6Z"
       id="path9" /><g
       id="g20"><path
         class="st1"
         d="M25.1,29.3h13.7v11.6h-13.7s0-11.6,0-11.6Z"
         id="path10" /><path
         class="st1"
         d="M32,53.9l-12.6-15.9h25.1l-12.6,15.9h.1Z"
         id="path11" /><path
         class="st7"
         d="M25.1,29.3h4.6v-5.8h-4.6v5.8Z"
         id="path12" /><path
         class="st1"
         d="M29.7,29.3h4.6v-5.8h-4.6s0,5.8,0,5.8Z"
         id="path13" /><path
         class="st4"
         d="M34.3,29.3h4.6v-5.8h-4.6v5.8Z"
         id="path14" /><path
         class="st7"
         d="M38.9,23.5h-4.6v-5.8h4.6v5.8Z"
         id="path15" /><path
         class="st0"
         d="M34.3,23.5h-4.6v-5.8h4.6v5.8Z"
         id="path16" /><path
         class="st4"
         d="M29.7,23.5h-4.6v-5.8h4.6v5.8Z"
         id="path17" /><path
         class="st3"
         d="M38.9,17.7h-4.6v-5.8h4.6v5.8Z"
         id="path18" /><path
         class="st5"
         d="M34.3,17.7h-4.6v-5.8h4.6v5.8Z"
         id="path19" /><path
         class="st6"
         d="M29.7,17.7h-4.6v-5.8h4.6v5.8Z"
         id="path20" /></g></g><g
     class="st9"
     id="g23"><path
       class="st8"
       d="M50.3,23.1c.2,0,.5,0,.7,0,1.8.2,3.5.7,5.1,1.4.5.2.6.4.2.8-1.2,1.2-2.1,2.7-2.9,4.2-.8,1.7-1.6,3.3-2.5,4.9-.6,1.2-1.4,2.3-2.4,3.3-2.5,2.3-5.4,3.2-8.8,2.8-3.8-.5-7.5-1.8-10.9-3.5-.2,0-.3-.2-.5-.3-.1,0-.2-.2,0-.3,0,0,0,0,0,0h.2c2.8-1.6,5.1-3.7,7.3-5.9.9-.9,1.9-1.9,2.8-2.8,2.1-2,4.7-3.4,7.5-4,.6-.2,1.2-.3,1.9-.4h1.4"
       id="path21" /><path
       class="st10"
       d="M23.4,49.9c-.4,0-1.5-.2-1.6-.2-2.7-.3-5.3-1.1-7.7-2.3-1.4-.7-2.8-1.4-4.1-2.2-.9-.5-1.3-1.3-1.3-2.3,0-3.9,0-7.8,0-11.7,0-2.5,0-5-.1-7.5,0-.2,0-.4.1-.7.2-.5.5-.5.8-.2.4.3.6.8,1,1.1,3.2,3.1,6.5,6,10.3,8.3,2.1,1.4,4.3,2.6,6.6,3.6,3.6,1.7,7.4,3.1,11.3,4,3.5.8,6.8.3,9.6-1.9.9-.7,1.3-1.3,2.3-2.6-.5,1.2-1,2.3-1.8,3.4-.7,1-2.1,2.4-3.2,3.5-1.7,1.6-3.9,3-6,4.1-2.3,1.2-4.6,2.2-7.2,2.7-1.3.3-3.2.7-3.8.7-.1,0-.5,0-.7,0-1.7.1-2.7.2-4.4,0h0Z"
       id="path22" /><path
       class="st13"
       d="M16.2,12.3c.1,0,.2,0,.3,0,7.2,0,14.3.1,21.4.1s0,0,0,0c.7.6,1.3,1.2,1.8,1.9,1.6,1.6,2.8,4.4,3.6,6.1.4,1.2,1,2.3,1.3,3.6h0c-.7.3-1.4.5-2.1.9-2.1,1-3,1.8-4.7,3.5-.9.9-1.7,1.7-3,2.9-.5.4-.9.9-1.4,1.3-.3-.6-5.9-11.5-17.1-20"
       id="path23" /></g><g
     id="g26"
     transform="matrix(1.1453634,0,0,1.1395301,-4.5112779,-4.4265415)" /><g
     id="g27"
     transform="matrix(1.1336675,0,0,1.1378885,-4.3709271,-4.5135427)"><path
       d="m 32.014728,5 c 1.011896,0 2.00576,0.0624 2.985598,0.168 A 28.052598,27.998952 0 0 0 32.014728,5 Z M 30.147226,5.0664 A 28.052598,27.998952 0 0 0 29.588178,5.125 c 0.18836,-0.017 0.370694,-0.0454 0.559048,-0.0586 z m 5.91509,0.26179 c 0.649218,0.0956 1.298436,0.1964 1.931622,0.335788 A 28.052598,27.998952 0 0 0 36.062316,5.32819 Z m -8.21941,0.0078 a 28.052598,27.998952 0 0 0 -1.134128,0.1914 c 0.374704,-0.0734 0.753414,-0.1328 1.134128,-0.1914 z m -2.398498,0.476382 c -0.22442,0.0542 -0.454852,0.0974 -0.67727,0.1564 l 0.03006,0.0312 a 28.052598,27.998952 0 0 1 0.647214,-0.1876 z m -0.647214,0.1876 a 28.052598,27.998952 0 0 0 -2.18209,0.648376 L 35.427126,19.43747 A 14.026299,13.999476 0 0 0 32.014728,18.999486 H 7.747226 A 28.052598,27.998952 0 0 0 6.7054728,20.9994 H 24.82124 a 14.026299,13.999476 0 0 0 -2.719098,2.105922 l -0.004,-0.004 L 5.4062448,39.760698 A 28.052598,27.998952 0 0 0 6.173283,41.82262 L 18.426858,29.593078 a 14.026299,13.999476 0 0 0 -0.438422,3.405874 V 55.22012 a 28.052598,27.998952 0 0 0 2.003757,1.03996 V 40.178682 a 14.026299,13.999476 0 0 0 2.109957,2.713898 l -0.004,0.004 L 37.631274,58.4 A 28.052598,27.998952 0 0 0 39.91155,57.85002 L 28.60233,46.560444 a 14.026299,13.999476 0 0 0 3.412398,0.437984 H 55.021866 A 28.052598,27.998952 0 0 0 56.28223,44.998502 H 39.208216 a 14.026299,13.999476 0 0 0 2.719098,-2.105922 l 0.004,0.004 17.134126,-17.101358 a 28.052598,27.998952 0 0 0 -0.649218,-2.17792 L 45.602196,36.404824 a 14.026299,13.999476 0 0 0 0.438822,-3.405872 V 8.777858 A 28.052598,27.998952 0 0 0 44.037262,7.738098 V 25.81922 a 14.026299,13.999476 0 0 0 -2.109956,-2.713898 l 0.004,-0.004 -17.134128,-17.10136 z m 34.268254,19.79526 a 28.052598,27.998952 0 0 1 0.18836,0.645974 c -0.0541,-0.22399 -0.09818,-0.453982 -0.1563,-0.675974 z M 38.953738,5.906166 c 0.659236,0.1696 1.312462,0.347988 1.953664,0.562578 A 28.052598,27.998952 0 0 0 38.953738,5.906166 Z M 22.37866,6.726536 A 28.052598,27.998952 0 0 0 20.947978,7.304514 C 21.420864,7.102322 21.89375,6.903328 22.37866,6.726536 Z m 19.388354,0.0586 c 0.65122,0.24199 1.294426,0.49858 1.921602,0.78517 A 28.052598,27.998952 0 0 0 41.767014,6.785134 Z M 19.85593,7.796696 A 28.052598,27.998952 0 0 0 18.670106,8.402272 C 19.060038,8.19208 19.455178,7.988888 19.85593,7.796696 Z M 17.488291,9.078048 A 28.052598,27.998952 0 0 0 16.404258,9.761622 C 16.759324,9.52423 17.121803,9.299238 17.488291,9.078048 Z m 29.723731,0.417784 c 0.248466,0.1606 0.506952,0.308588 0.75141,0.476582 a 28.052598,27.998952 0 0 0 -0.75141,-0.476582 z m -31.927864,1.06636 a 28.052598,27.998952 0 0 0 -1.005886,0.76577 c 0.326412,-0.26579 0.667451,-0.51458 1.005886,-0.76577 z m -2.121177,1.742134 a 28.052598,27.998952 0 0 0 -0.829756,0.757772 c 0.267101,-0.26239 0.552235,-0.505982 0.829756,-0.757772 z m 38.826799,1.050762 c 0.262494,0.26659 0.506952,0.551178 0.759424,0.828168 A 28.052598,27.998952 0 0 0 51.98978,13.355088 Z m 1.737258,1.941326 c 0.2665,0.325788 0.514966,0.666176 0.76744,1.003962 a 28.052598,27.998952 0 0 0 -0.76744,-1.003962 z m -44.76794,1.765534 a 28.052598,27.998952 0 0 0 -0.5281904,0.82817 c 0.177132,-0.27559 0.341841,-0.55918 0.5281904,-0.82817 z m 46.336882,0.355586 c 0.238448,0.354388 0.462868,0.716174 0.685284,1.08196 a 28.052598,27.998952 0 0 0 -0.685284,-1.08196 z m 1.37057,2.273916 c 0.204382,0.375986 0.402754,0.755972 0.591108,1.143956 A 28.052598,27.998952 0 0 0 56.66655,19.69145 Z M 6.536556,21.347388 A 28.052598,27.998952 0 0 0 5.749881,23.265316 C 5.9923356,22.61534 6.2494176,21.973364 6.536556,21.347388 Z m 51.234064,0.631976 c 0.19636,0.461982 0.392736,0.923966 0.567064,1.397948 A 28.052598,27.998952 0 0 0 57.77062,21.979364 Z M 5.432486,24.123284 A 28.052598,27.998952 0 0 0 4.868829,26.07321 c 0.169918,-0.657974 0.3486538,-1.30995 0.563657,-1.949926 z m -0.806312,2.90789 a 28.052598,27.998952 0 0 0 -0.3364308,1.927928 c 0.09578,-0.647976 0.196768,-1.29595 0.3364308,-1.927928 z m 54.910958,0.663976 c 0.07814,0.395986 0.13826,0.79597 0.200376,1.197956 A 28.052598,27.998952 0 0 0 59.537132,27.69515 Z m -55.40789,2.323912 a 28.052598,27.998952 0 0 0 -0.1292424,2.119922 28.052598,27.998952 0 0 0 0.004,0.086 c 0.023044,-0.739972 0.046888,-1.481944 0.125234,-2.205918 z m 55.804634,0.483982 c 0.018,0.211992 0.0501,0.419986 0.06612,0.631978 a 28.052598,27.998952 0 0 0 -0.06612,-0.631978 z"
       style="opacity:0.2"
       id="path1" /><path
       d="m 32.0012,4 c 1.01,0 2.002,0.0624 2.98,0.168 A 28,28 0 0 0 32.0012,4 Z m -1.864,0.0664 a 28,28 0 0 0 -0.558,0.0586 c 0.188,-0.017 0.37,-0.0454 0.558,-0.0586 z m 5.904,0.2618 c 0.648,0.0956 1.296,0.1964 1.928,0.3358 a 28,28 0 0 0 -1.928,-0.3358 z m -8.204,0.0078 a 28,28 0 0 0 -1.132,0.1914 c 0.374,-0.0734 0.752,-0.1328 1.132,-0.1914 z m -2.394,0.4764 a 28,28 0 0 0 -2.824,0.836 l 12.788,12.7892 A 14,14 0 0 0 32.0012,18 H 7.7792 a 28,28 0 0 0 -1.0398,2 h 18.0818 a 14,14 0 0 0 -2.714,2.106 L 22.1032,22.102 4.97,39.234 C 4.911,39.012 4.8678,38.782 4.8136,38.558 a 28,28 0 0 0 0.836,2.824 L 18.4388,28.594 A 14,14 0 0 0 18.0012,32 v 24.222 a 28,28 0 0 0 2,1.04 V 39.18 a 14,14 0 0 0 2.106,2.714 l -0.004,0.004 17.132,17.134 c -0.21,0.056 -0.428,0.096 -0.64,0.148 a 28,28 0 0 0 2.788,-0.828 L 28.5952,45.562 A 14,14 0 0 0 32.0012,46 h 24.222 a 28,28 0 0 0 1.04,-2 h -18.082 a 14,14 0 0 0 2.714,-2.106 l 0.004,0.004 17.134,-17.132 c 0.058,0.222 0.102,0.452 0.156,0.676 a 28,28 0 0 0 -0.836,-2.824 l -12.79,12.788 A 14,14 0 0 0 46.0012,32 V 7.778 a 28,28 0 0 0 -2,-1.0398 V 24.82 a 14,14 0 0 0 -2.106,-2.714 l 0.004,-0.004 -17.132,-17.1332 c 0.222,-0.059 0.452,-0.1022 0.676,-0.1564 z m 13.484,0.0938 c 0.658,0.1696 1.31,0.348 1.95,0.5626 a 28,28 0 0 0 -1.95,-0.5626 z m -16.544,0.8204 a 28,28 0 0 0 -1.428,0.578 c 0.472,-0.2022 0.944,-0.4012 1.428,-0.578 z m 19.352,0.0586 c 0.65,0.242 1.292,0.4986 1.918,0.7852 a 28,28 0 0 0 -1.918,-0.7852 z m -21.87,1.0116 A 28,28 0 0 0 18.6816,7.4024 C 19.0708,7.1922 19.4652,6.989 19.8652,6.7968 Z M 17.502,8.0782 A 28,28 0 0 0 16.42,8.7618 C 16.7744,8.5244 17.1362,8.2994 17.502,8.0782 Z M 47.17,8.496 c 0.248,0.1606 0.506,0.3086 0.75,0.4766 A 28,28 0 0 0 47.17,8.496 Z M 15.302,9.5624 a 28,28 0 0 0 -1.004,0.7658 c 0.3258,-0.2658 0.6662,-0.5146 1.004,-0.7658 z m -2.1172,1.7422 a 28,28 0 0 0 -0.8282,0.7578 c 0.2666,-0.2624 0.5512,-0.506 0.8282,-0.7578 z m 38.754,1.0508 c 0.262,0.2666 0.506,0.5512 0.758,0.8282 a 28,28 0 0 0 -0.758,-0.8282 z m 1.734,1.9414 c 0.266,0.3258 0.514,0.6662 0.766,1.004 a 28,28 0 0 0 -0.766,-1.004 z M 8.9888,16.0624 A 28,28 0 0 0 8.4616,16.8906 C 8.6384,16.615 8.8028,16.3314 8.9888,16.0624 Z m 46.25,0.3556 c 0.238,0.3544 0.462,0.7162 0.684,1.082 a 28,28 0 0 0 -0.684,-1.082 z m 1.368,2.2734 c 0.204,0.3774 0.402,0.7568 0.59,1.1446 a 28,28 0 0 0 -0.59,-1.1446 z M 6.5708,20.348 a 28,28 0 0 0 -0.7852,1.918 c 0.242,-0.65 0.4986,-1.292 0.7852,-1.918 z m 51.138,0.632 c 0.196,0.462 0.392,0.924 0.566,1.398 a 28,28 0 0 0 -0.566,-1.398 z m -52.24,2.144 a 28,28 0 0 0 -0.5626,1.95 c 0.1696,-0.658 0.348,-1.31 0.5626,-1.95 z M 4.664,26.032 A 28,28 0 0 0 4.3282,27.96 C 4.4238,27.312 4.5246,26.664 4.664,26.032 Z m 54.808,0.664 c 0.078,0.396 0.138,0.796 0.2,1.198 a 28,28 0 0 0 -0.2,-1.198 z M 4.168,29.02 A 28,28 0 0 0 4,32 c 0,-1.01 0.0624,-2.002 0.168,-2.98 z m 55.7,0.484 c 0.018,0.212 0.05,0.42 0.066,0.632 A 28,28 0 0 0 59.868,29.504 Z M 60,32 c 0,1.022 -0.068,2.028 -0.176,3.02 A 28,28 0 0 0 60,32 Z M 4.066,33.918 a 28,28 0 0 0 0.0352,0.336 C 4.0916,34.142 4.0742,34.03 4.066,33.918 Z m 55.626,1.984 c -0.1,0.698 -0.206,1.392 -0.356,2.07 a 28,28 0 0 0 0.356,-2.07 z M 4.336,36.164 a 28,28 0 0 0 0.1914,1.132 C 4.454,36.922 4.3946,36.544 4.336,36.164 Z m 54.766,2.734 c -0.176,0.684 -0.366,1.362 -0.59,2.024 a 28,28 0 0 0 0.59,-2.024 z M 5.726,41.614 a 28,28 0 0 0 0.6094,1.5 C 6.1218,42.618 5.9114,42.122 5.726,41.614 Z m 52.516,0.05 c -0.25,0.676 -0.518,1.344 -0.816,1.996 a 28,28 0 0 0 0.816,-1.996 z M 6.77,44.078 a 28,28 0 0 0 0.668,1.308 C 7.2046,44.958 6.9812,44.52 6.77,44.078 Z m 1.2694,2.36 a 28,28 0 0 0 0.7578,1.19 C 8.5348,47.238 8.2826,46.842 8.0394,46.438 Z m 47.464,0.73 c -0.16,0.248 -0.308,0.506 -0.476,0.75 a 28,28 0 0 0 0.476,-0.75 z m -45.98,1.48 A 28,28 0 0 0 10.332,49.71 C 10.0506,49.366 9.7884,49.006 9.5234,48.648 Z m 1.7812,2.168 a 28,28 0 0 0 0.7578,0.828 C 11.8,51.378 11.5564,51.094 11.3046,50.816 Z m 40.34,1.122 c -0.248,0.244 -0.514,0.47 -0.772,0.706 a 28,28 0 0 0 0.772,-0.706 z m -1.964,1.758 c -0.298,0.242 -0.61,0.468 -0.918,0.698 a 28,28 0 0 0 0.918,-0.698 z m -33.618,1.316 a 28,28 0 0 0 0.8282,0.528 c -0.2756,-0.178 -0.5592,-0.342 -0.8282,-0.528 z m 31.496,0.242 c -0.342,0.228 -0.694,0.446 -1.046,0.66 a 28,28 0 0 0 1.046,-0.66 z m -2.25,1.352 c -0.376,0.204 -0.756,0.402 -1.144,0.59 a 28,28 0 0 0 1.144,-0.59 z m -24.96,0.824 a 28,28 0 0 0 1.918,0.784 c -0.65,-0.242 -1.292,-0.498 -1.918,-0.784 z m 22.672,0.278 c -0.462,0.196 -0.924,0.392 -1.398,0.566 a 28,28 0 0 0 1.398,-0.566 z m -19.896,0.824 a 28,28 0 0 0 1.95,0.562 c -0.658,-0.17 -1.31,-0.348 -1.95,-0.562 z m 2.904,0.804 a 28,28 0 0 0 2.07,0.356 c -0.698,-0.1 -1.392,-0.206 -2.07,-0.356 z m 11.258,0.14 c -0.37,0.072 -0.744,0.13 -1.118,0.188 a 28,28 0 0 0 1.118,-0.188 z m -8.306,0.348 a 28,28 0 0 0 3.02,0.176 c -1.022,0 -2.028,-0.068 -3.02,-0.176 z m 5.442,0.052 c -0.188,0.016 -0.37,0.044 -0.558,0.058 a 28,28 0 0 0 0.558,-0.058 z"
       style="fill:#ffffff"
       id="path2" /><g
       id="g28"
       transform="matrix(0.88209285,0,0,0.87882073,4.2940311,4.2107117)"><circle
         style="opacity:0.2"
         cx="47"
         cy="48"
         r="15"
         id="circle4" /><circle
         style="fill:#ab49d8"
         cx="47"
         cy="47"
         r="15"
         id="circle5" /><path
         style="fill:#ffffff;fill-rule:evenodd"
         d="m 47,40 c 0,0 -0.944996,-0.01925 -1.929688,0.498047 -0.948298,0.49778 -1.980944,1.743627 -2.05664,3.501953 h 2.677734 C 45.820332,42.814884 47,42.800781 47,42.800781 c 0,0 1.333984,-0.0016 1.333984,1.398438 0,0.738913 -0.187436,1.152522 -0.542968,1.61914 -0.355534,0.466757 -0.923177,0.935943 -1.589844,1.460938 C 45.534507,47.804294 44.769465,48.384596 44.125,49.230469 43.480533,50.076204 43,51.238539 43,52.599609 V 54 h 8 v -3 h -4.865234 c 0.04173,-0.0616 0.02622,0.04347 0.07422,-0.01953 0.355533,-0.466757 0.923178,-0.933988 1.589844,-1.458985 0.666663,-0.524998 1.431704,-1.107252 2.07617,-1.953126 C 50.519465,46.722624 51,45.560289 51,44.199219 51,42.332611 49.914366,41.014924 48.929688,40.498047 47.944984,39.981031 47,40 47,40 Z"
         id="path5" /></g></g></svg>
