<?xml version="1.0" encoding="UTF-8"?>
<svg id="_图层_1" xmlns="http://www.w3.org/2000/svg" version="1.1" viewBox="0 0 64 64" width="16" height="16">
  <!-- Generator: Adobe Illustrator 29.0.1, SVG Export Plug-In . SVG Version: 2.1.0 Build 192)  -->
  <defs>
    <style>
      .st0 {
        fill: #a28039;
      }

      .st1 {
        fill: #4f4f4f;
      }

      .st2 {
        fill: #e2d35d;
      }

      .st3, .st4 {
        isolation: isolate;
        opacity: .2;
      }

      .st4 {
        fill: #fff;
      }

      .st5 {
        fill: #e4e4e4;
      }
    </style>
  </defs>
  <path class="st1" d="M50.3,64H13.8C6.2,64,0,57.8,0,50.3V13.7c0-7.5,6.2-13.7,13.7-13.7h36.5c7.5,0,13.7,6.2,13.7,13.7v36.6c0,7.5-6.2,13.7-13.7,13.7h0Z"/>
  <g>
    <path class="st3" d="M31,8.5c-13.5,0-24.4,10.7-24.4,23.9s10.9,23.9,24.4,23.9,24.4-10.7,24.4-23.9-10.9-23.9-24.4-23.9ZM31,22.2c5.8,0,10.5,4.6,10.5,10.2s-4.7,10.2-10.5,10.2-10.5-4.6-10.5-10.2,4.7-10.2,10.5-10.2Z"/>
    <path class="st0" d="M31,18.8c-7.2,0-13.1,5.7-13.1,12.8s5.9,12.8,13.1,12.8,13.1-5.7,13.1-12.8-5.9-12.8-13.1-12.8ZM31,26.5c2.9,0,5.2,2.3,5.2,5.1s-2.3,5.1-5.2,5.1-5.2-2.3-5.2-5.1,2.3-5.1,5.2-5.1Z"/>
    <path class="st2" d="M31,7.7c-13.5,0-24.4,10.7-24.4,23.9s10.9,23.9,24.4,23.9,24.4-10.7,24.4-23.9S44.5,7.7,31,7.7ZM31,21.3c5.8,0,10.5,4.6,10.5,10.2s-4.7,10.2-10.5,10.2-10.5-4.6-10.5-10.2,4.7-10.2,10.5-10.2Z"/>
    <path class="st4" d="M31,7.7c-13.5,0-24.4,10.7-24.4,23.9,0,.1,0,.2,0,.4.3-13,11.1-23.4,24.4-23.4,13.3,0,24.2,10.5,24.4,23.5,0-.2,0-.3,0-.5,0-13.2-10.9-23.9-24.4-23.9Z"/>
    <path class="st5" d="M31,11.1c-11.6,0-20.9,9.2-20.9,20.5s0,0,0,0c0,3.3.8,6.6,2.4,9.5l5.5-9.7c.1-7,5.9-12.6,13.1-12.6,5.8,0,10.9,3.8,12.5,9.2l4.6-8.2c-3.9-5.5-10.3-8.7-17.1-8.7ZM49.5,22.1l-5.5,9.7c-.1,7-5.9,12.6-13.1,12.6-5.8,0-10.9-3.8-12.5-9.2l-4.6,8.2c3.9,5.5,10.3,8.7,17.1,8.7,11.6,0,20.9-9.2,20.9-20.5h0c0-3.3-.8-6.6-2.4-9.5Z"/>
  </g>
</svg>