<?xml version="1.0" encoding="UTF-8"?>
<svg id="_图层_1" xmlns="http://www.w3.org/2000/svg" version="1.1" viewBox="0 0 64 64" width="16" height="16">
  <!-- Generator: Adobe Illustrator 29.0.1, SVG Export Plug-In . SVG Version: 2.1.0 Build 192)  -->
  <defs>
    <style>
      .st0 {
        fill: #fc66cc;
      }

      .st1, .st2, .st3, .st4 {
        display: none;
      }

      .st1, .st2, .st5, .st6, .st7 {
        isolation: isolate;
      }

      .st1, .st5, .st6 {
        opacity: .2;
      }

      .st2, .st8, .st6, .st7 {
        fill: #fff;
      }

      .st2, .st7 {
        opacity: .1;
      }

      .st3 {
        fill: #3c6eb4;
      }

      .st9 {
        fill: #932b2d;
      }

      .st10 {
        fill: #e9af00;
      }

      .st11 {
        fill: #09aef0;
      }
    </style>
  </defs>
  <path class="st8" d="M50.4,64H13.8c-7.6,0-13.8-6.2-13.8-13.7V13.7C0,6.2,6.2,0,13.7,0h36.5c7.5,0,13.7,6.2,13.7,13.7v36.6c0,7.5-6.2,13.7-13.7,13.7h.1Z"/>
  <g class="st4">
    <path class="st5" d="M17.3,8.7c-.7.2-1.1.9-.9,1.6l3.7,13.7,11.5,6.6,6.6-11.5-3.7-13.7c-.2-.7-.9-1.1-1.6-.9l-15.5,4.2ZM5,30c-.7.2-1.1.9-.9,1.6l4.2,15.5c.2.7.9,1.1,1.6.9l13.7-3.7,6.6-11.5-11.5-6.6-13.7,3.7ZM40.4,20.5l-6.6,11.5,11.5,6.6,13.7-3.7c.7-.2,1.1-.9.9-1.6l-4.2-15.5c-.2-.7-.9-1.1-1.6-.9l-13.7,3.7ZM32.5,34.3l-6.6,11.5,3.7,13.7c.2.7.9,1.1,1.6.9l15.5-4.2c.7-.2,1.1-.9.9-1.6l-3.7-13.7-11.5-6.6Z"/>
    <path class="st11" d="M17.3,7.7c-.7.2-1.1.9-.9,1.6l3.7,13.7,11.5,6.6,6.6-11.5-3.7-13.7c-.2-.7-.9-1.1-1.6-.9l-15.5,4.2ZM5,29c-.7.2-1.1.9-.9,1.6l4.2,15.5c.2.7.9,1.1,1.6.9l13.7-3.7,6.6-11.5-11.5-6.6-13.7,3.7ZM40.4,19.5l-6.6,11.5,11.5,6.6,13.7-3.7c.7-.2,1.1-.9.9-1.6l-4.2-15.5c-.2-.7-.9-1.1-1.6-.9l-13.7,3.7ZM32.5,33.3l-6.6,11.5,3.7,13.7c.2.7.9,1.1,1.6.9l15.5-4.2c.7-.2,1.1-.9.9-1.6l-3.7-13.7-11.5-6.6Z"/>
    <path class="st6" d="M33.1,3.5c0,0-.2,0-.3,0l-15.5,4.2c-.7.2-1.1.9-.9,1.6v.2c.2-.4.5-.7.9-.8l15.5-4.2c.7-.2,1.4.2,1.6.9l3.5,13,.2-.3-3.7-13.7c-.2-.6-.7-1-1.4-1ZM54.4,15.8c0,0-.2,0-.3,0l-13.7,3.7-6.6,11.5.4.2,6.2-10.7,13.7-3.7c.7-.2,1.4.2,1.6.9l4.1,15.4c0-.3.1-.5,0-.8l-4.2-15.5c-.2-.6-.8-1-1.4-1ZM18.7,25.4l-13.7,3.7c-.7.2-1.1.9-.9,1.6v.2c.2-.4.5-.7.9-.8l13.7-3.7,11,6.4.4-.8-11.5-6.6ZM32.5,33.3l-6.6,11.5.2.7,6.4-11.2,11.5,6.6,3.6,13.5c0-.3.1-.5,0-.8l-3.7-13.7-11.5-6.6Z"/>
  </g>
  <g class="st4">
    <path class="st5" d="M29.7,4.5c-7.8,0-14.8,3.1-19.8,8.2l19.8,19.8-19.8,19.8c5.1,5.1,12.1,8.2,19.8,8.2,15.5,0,28-12.5,28-28S45.2,4.5,29.7,4.5Z"/>
    <path class="st0" d="M29.8,3.5c-7.8,0-14.8,3.1-19.8,8.2l19.8,19.8-19.8,19.8c5.1,5.1,12.1,8.2,19.8,8.2,15.5,0,28-12.5,28-28S45.3,3.5,29.8,3.5Z"/>
    <path class="st6" d="M29.7,3.5c-7.8,0-14.8,3.1-19.8,8.2l.5.5c5-4.8,11.8-7.7,19.3-7.7,15.3,0,27.6,12.1,28,27.3,0-.1,0-.2,0-.3,0-15.5-12.5-28-28-28ZM28.7,32.5l-18.8,18.8c.2.2.3.3.5.5l18.3-18.3.5.5.5-.5-1-1Z"/>
    <path class="st5" d="M29.7,18.5c-7.7,0-14,6.3-14,14s6.3,14,14,14v5.5h.1c0,.1,9.5-9.4,9.5-9.4,0,0,.2-.2.3-.3h.1c0-.1,0-.1,0-.1,2.5-2.6,4-6.1,4-9.8,0-7.7-6.3-14-14-14Z"/>
    <path class="st8" d="M43.7,31.5c0,7.7-6.3,14-14,14s-14-6.3-14-14,6.3-14,14-14,14,6.3,14,14Z"/>
    <path class="st8" d="M29.8,31.4h-.1v19.7h.1c0,.1,9.9-9.8,9.9-9.8l-9.9-9.9Z"/>
  </g>
  <g class="st4">
    <rect class="st1" x="0" y="1.1" width="16" height="16" rx="3.2" ry="3.2"/>
    <rect class="st3" width="16" height="16" rx="3.2" ry="3.2"/>
    <path class="st5" d="M41.1,12.6c-.2,0-.6.1-1.3.4-.8.3-2.6.6-4,.6-5,.1-9,1.8-12.2,5-4.4,4.4-5.8,10-3.8,15.1.5,1.2.7,2.4.6,2.7-.1.3-1,1.1-1.9,1.8-2,1.5-3.3,3.9-3.7,6.5-.2,1.6,0,2.3.8,4.2,1.9,4,6.1,5.7,10.6,4.3,2.6-.8,5.2-3.7,7.3-8.2,1.8-3.8,1.9-3.9,3.8-4.6,3.3-1.2,5.3-2.4,7.4-4.6,3.6-3.8,5-8.7,3.7-13.4-.6-2.1-1.1-2.8-3.7-5.5-1.7-1.7-3.2-3.4-3.3-3.8-.1-.3-.2-.5-.4-.5ZM32.3,17.2c1.6,0,2.8.5,3.1,1.4.1.3-.3,1.8-1,3.2-1.7,3.7-2.3,5.8-3.3,12.4-1.3,8.2-2.7,11.7-5.5,13.9-1.8,1.3-4,1.5-5.1.3-1-1-1.3-2.3-.8-3.7.4-1.1.7-1.2,3.4-1.6,1.9-.3,3.2-1.6,3.2-3.3s-.4-1.7-1.9-3.2c-2.3-2.4-3.2-4.7-3.3-7.6,0-4.5,2.2-8.4,6-10.4,1.7-.9,3.6-1.4,5.2-1.4ZM38.1,19.4c.5,0,1.1.5,1.9,1.6,3.3,4.5,3,11.3-.8,15.2-1.6,1.7-2,1.8-3.1.9-.6-.5-.8-1-.8-2.9,0-2.9.9-10.1,1.5-12.8.3-1.3.7-2,1.1-2.1Z"/>
    <path class="st8" d="M41.1,11.4c-.2,0-.6.1-1.3.4-.8.3-2.6.6-4,.6-5,.1-9,1.8-12.2,5-4.4,4.4-5.8,10-3.8,15.1.5,1.2.7,2.4.6,2.7-.1.3-1,1.1-1.9,1.8-2,1.5-3.3,3.9-3.7,6.5-.2,1.6,0,2.3.8,4.2,1.9,4,6.1,5.7,10.6,4.3,2.6-.8,5.2-3.7,7.3-8.2,1.8-3.8,1.9-3.9,3.8-4.6,3.3-1.2,5.3-2.4,7.4-4.6,3.6-3.8,5-8.7,3.7-13.4-.6-2.1-1.1-2.8-3.7-5.5-1.7-1.7-3.2-3.4-3.3-3.8-.1-.3-.2-.5-.4-.5ZM32.3,16c1.6,0,2.8.5,3.1,1.4.1.3-.3,1.8-1,3.2-1.7,3.7-2.3,5.8-3.3,12.4-1.3,8.2-2.7,11.7-5.5,13.9-1.8,1.3-4,1.5-5.1.3-1-1-1.3-2.3-.8-3.7.4-1.1.7-1.2,3.4-1.6,1.9-.3,3.2-1.6,3.2-3.3s-.4-1.7-1.9-3.2c-2.3-2.4-3.2-4.7-3.3-7.6,0-4.5,2.2-8.4,6-10.4,1.7-.9,3.6-1.4,5.2-1.4ZM38.1,18.3c.5,0,1.1.5,1.9,1.6,3.3,4.5,3,11.3-.8,15.2-1.6,1.7-2,1.8-3.1.9-.6-.5-.8-1-.8-2.9,0-2.9.9-10.1,1.5-12.8.3-1.3.7-2,1.1-2.1Z"/>
    <path class="st2" d="M3.2,0C1.4,0,0,1.4,0,3.2v1.1C0,2.6,1.4,1.1,3.2,1.1h57.6c1.8,0,3.2,1.4,3.2,3.2v-1.1c0-1.8-1.4-3.2-3.2-3.2H3.2Z"/>
  </g>
  <g>
    <path class="st5" d="M21.4,8.5c-1.2,0-2.1,1-2.1,2.1v6.1h-5.4c-1.5,0-2.5,1.4-2,2.8l2.8,7.4-6.7,7.5c-1,1.1-.6,2.8.8,3.3l4.6,1.6v4.4c0,1.2,1,2.1,2.2,2.1h2.9v6c0,1.7,1.6,2.7,3.1,1.8l10.9-7,19.5,8c1.8.7,3.6-1,2.8-2.7l-5.8-14.9,5.7-11.6c.7-1.4-.3-2.8-1.9-2.8h-7.2v-4.6c0-.5,0-.9-.3-1.3l-5.3-6.4c-.8-1-2.3-1.1-3.2-.3l-6.6,6.1-7.2-7c-.4-.4-1-.6-1.6-.6Z"/>
    <path class="st9" d="M21.4,7.7c-1.2,0-2.1,1-2.1,2.1v6.1h-5.4c-1.5,0-2.5,1.4-2,2.8l2.8,7.4-6.7,7.5c-1,1.1-.6,2.8.8,3.3l4.6,1.6v4.4c0,1.2,1,2.1,2.2,2.1h2.9v6c0,1.7,1.6,2.7,3.1,1.8l10.9-7,19.5,8c1.8.7,3.6-1,2.8-2.7l-5.8-14.9,5.7-11.6c.7-1.4-.3-2.8-1.9-2.8h-7.2v-4.6c0-.5,0-.9-.3-1.3l-5.3-6.4c-.8-1-2.3-1.1-3.2-.3l-6.6,6.1-7.2-7c-.4-.4-1-.6-1.6-.6Z"/>
    <path class="st5" d="M30.4,24.2c-1,0-1.8.8-1.8,1.8v3.1h-3.2c-1,0-1.9.8-1.9,1.7v2.3c0,1,.8,1.7,1.9,1.7h3.2v3.1c0,1,.8,1.8,1.8,1.8h2.4c1,0,1.8-.8,1.8-1.8v-3.1h3.2c1,0,1.9-.8,1.9-1.7v-2.3c0-1-.8-1.7-1.9-1.7h-3.2v-3.1c0-1-.8-1.8-1.8-1.8h-2.4Z"/>
    <path class="st10" d="M30.4,23.3h2.4c1,0,1.8.8,1.8,1.8v12.1c0,1-.8,1.8-1.8,1.8h-2.4c-1,0-1.8-.8-1.8-1.8v-12.1c0-1,.8-1.8,1.8-1.8Z"/>
    <path class="st10" d="M39.6,30v2.3c0,1-.8,1.7-1.9,1.7h-12.4c-1,0-1.9-.8-1.9-1.7v-2.3c0-1,.8-1.7,1.9-1.7h12.4c1,0,1.9.8,1.9,1.7Z"/>
    <path class="st6" d="M30.4,23.3c-1,0-1.8.8-1.8,1.8v.8c0-1,.8-1.8,1.8-1.8h2.4c1,0,1.8.8,1.8,1.8v-.8c0-1-.8-1.8-1.8-1.8h-2.4ZM25.4,28.3c-1,0-1.9.8-1.9,1.7v.8c0-1,.8-1.7,1.9-1.7h3.2v-.8h-3.2ZM34.5,28.3v.8h3.2c1,0,1.9.8,1.9,1.7v-.8c0-1-.8-1.7-1.9-1.7h-3.2Z"/>
    <path class="st7" d="M21.4,7.7c-1.2,0-2.1,1-2.1,2.1v.8c0-1.1.9-2.1,2.1-2.1.6,0,1.1.2,1.6.6l7.2,7,6.6-6.1c.9-.9,2.4-.7,3.2.3l5.3,6.4c.3.4.3.8.3,1.3v-.8c0-.5,0-.9-.3-1.3l-5.3-6.4c-.8-1-2.3-1.1-3.2-.3l-6.6,6.1-7.2-7c-.4-.4-1-.6-1.6-.6ZM13.9,15.9c-1.4,0-2.4,1.2-2.1,2.4.2-.9,1-1.6,2.1-1.6h5.4v-.8h-5.4ZM45.5,21.7v.8h7.2c1.1,0,1.9.7,2.1,1.5.3-1.2-.7-2.4-2.1-2.4h-7.2ZM14.4,26.4l-6.5,7.2c-.5.5-.6,1.2-.5,1.8,0-.3.2-.7.5-1l6.7-7.5-.2-.6ZM49.1,36.6l-.2.4,5.8,14.9c0,.1,0,.2.1.4,0-.4,0-.8-.1-1.2l-5.6-14.4Z"/>
  </g>
</svg>