<?xml version="1.0" encoding="UTF-8"?>
<svg id="_图层_1" xmlns="http://www.w3.org/2000/svg" version="1.1" viewBox="0 0 64 64" width="16" height="16">
  <!-- Generator: Adobe Illustrator 29.0.1, SVG Export Plug-In . SVG Version: 2.1.0 Build 192)  -->
  <defs>
    <style>
      .st0 {
        fill: #4f4f4f;
      }

      .st1 {
        fill: #4daaf5;
      }

      .st2 {
        fill: #ffc107;
      }

      .st3, .st4, .st5 {
        fill: #fff;
      }

      .st6 {
        fill: #788085;
      }

      .st7 {
        fill: #fb8c00;
      }

      .st8 {
        fill: #e93140;
      }

      .st9, .st4 {
        opacity: .2;
      }

      .st9, .st4, .st5 {
        isolation: isolate;
      }

      .st10 {
        display: none;
      }

      .st11 {
        fill: #bdc3c7;
      }

      .st5 {
        opacity: .1;
      }
    </style>
  </defs>
  <path class="st3" d="M50.4,64H13.8c-7.6,0-13.8-6.2-13.8-13.7V13.7C0,6.2,6.2,0,13.7,0h36.6c7.5,0,13.7,6.2,13.7,13.7v36.6c0,7.5-6.2,13.7-13.7,13.7h.1Z"/>
  <g class="st10">
    <ellipse class="st9" cx="30.6" cy="32.6" rx="25" ry="24.8"/>
    <ellipse class="st6" cx="30.6" cy="31.7" rx="25" ry="24.8"/>
    <path class="st9" d="M28.2,13c-9.1,1.1-16.2,8.2-17.3,17.1l4.8,2.4-4.8,2.4c1.1,9,8.2,16.1,17.3,17.1l2.4-4.8,2.4,4.8c9.1-1.1,16.2-8.2,17.3-17.1l-4.8-2.4,4.8-2.4c-1.1-9-8.2-16.1-17.3-17.1l-2.4,4.8-2.4-4.8Z"/>
    <path class="st3" d="M28.2,12.2c-9.1,1.1-16.2,8.2-17.3,17.1l4.8,2.4-4.8,2.4c1.1,9,8.2,16.1,17.3,17.1l2.4-4.8,2.4,4.8c9.1-1.1,16.2-8.2,17.3-17.1l-4.8-2.4,4.8-2.4c-1.1-9-8.2-16.1-17.3-17.1l-2.4,4.8-2.4-4.8Z"/>
    <path class="st0" d="M33.8,34.9l-14.4,7.9,8-14.3,6.4,6.4Z"/>
    <path class="st8" d="M27.4,28.5l14.4-7.9-8,14.3-6.4-6.4Z"/>
    <path class="st9" d="M33.2,32.6c0,1.4-1.2,2.6-2.6,2.6s-2.6-1.1-2.6-2.6,1.2-2.6,2.6-2.6,2.6,1.1,2.6,2.6Z"/>
    <path class="st11" d="M33.2,31.7c0,1.4-1.2,2.6-2.6,2.6s-2.6-1.1-2.6-2.6,1.2-2.6,2.6-2.6,2.6,1.1,2.6,2.6Z"/>
    <path class="st4" d="M30.6,6.9c-13.8,0-25,11.1-25,24.8,0,.1,0,.3,0,.4.2-13.5,11.4-24.4,25-24.4,13.7,0,24.8,10.8,25,24.4,0-.1,0-.3,0-.4,0-13.7-11.2-24.8-25-24.8Z"/>
    <path class="st4" d="M30.6,29.1c-1.4,0-2.6,1.1-2.6,2.6,0,.1,0,.3,0,.4.2-1.2,1.3-2.1,2.6-2.1,1.3,0,2.3.9,2.6,2.1,0-.1,0-.3,0-.4,0-1.4-1.2-2.6-2.6-2.6Z"/>
  </g>
  <g class="st10">
    <ellipse class="st9" cx="32" cy="49.5" rx="9.3" ry="9"/>
    <ellipse class="st7" cx="32" cy="48.6" rx="9.3" ry="9"/>
    <path class="st9" d="M32,8.1c-2.1,0-3.9,1.7-3.9,3.8,0,0,0,0,0,0-7.7,1.7-12.8,8.4-12.8,16.4v11.8s-.1,3-2.3,4.4l-4.4,4c-1.1.9-.8,2.8.4,2.8h45.9c1.3,0,1.5-1.9.4-2.8l-4.4-4c-2.2-1.4-2.3-4.4-2.3-4.4v-11.8c0-8-5.1-14.7-12.8-16.4,0,0,0,0,0,0,0-2.1-1.7-3.8-3.9-3.8h0Z"/>
    <path class="st2" d="M32,7.2c-2.1,0-3.9,1.7-3.9,3.8,0,0,0,0,0,0-7.7,1.7-12.8,8.4-12.8,16.4v11.8s-.1,3-2.3,4.4l-4.4,4c-1.1.9-.8,2.8.4,2.8h45.9c1.3,0,1.5-1.9.4-2.8l-4.4-4c-2.2-1.4-2.3-4.4-2.3-4.4v-11.8c0-8-5.1-14.7-12.8-16.4,0,0,0,0,0,0,0-2.1-1.7-3.8-3.9-3.8h0Z"/>
    <path class="st4" d="M32,7.2c-2.1,0-3.9,1.7-3.9,3.8,0,0,0,0,0,0-7.7,1.7-12.8,8.4-12.8,16.4v.9c0-8,5.1-14.7,12.8-16.4,0,0,0,0,0,0,0-2.1,1.7-3.8,3.9-3.8s3.9,1.7,3.9,3.8c0,0,0,0,0,0,7.7,1.7,12.8,8.4,12.8,16.4v-.9c0-8-5.1-14.7-12.8-16.4,0,0,0,0,0,0,0-2.1-1.7-3.8-3.9-3.8ZM15.3,39.2s-.1,3-2.3,4.4l-4.4,4c-.6.5-.8,1.3-.6,1.9,0-.4.3-.8.6-1l4.4-4c2.2-1.4,2.3-4.4,2.3-4.4v-.9ZM48.7,39.2v.9s.1,3,2.3,4.4l4.4,4c.3.3.5.7.6,1,.2-.6,0-1.4-.6-1.9l-4.4-4c-2.2-1.4-2.3-4.4-2.3-4.4Z"/>
  </g>
  <g class="st10">
    <path class="st9" d="M13.2,16.9c-1.4,0-2.6,1.1-2.6,2.5v29.5c0,1.4,1.1,2.5,2.6,2.5h23.2l4.6,5.4,4.6-5.4h8.5c1.4,0,2.6-1.1,2.6-2.5v-29.5c0-1.4-1.1-2.5-2.6-2.5H13.2Z"/>
    <path class="st0" d="M13.2,16c-1.4,0-2.6,1.1-2.6,2.5v29.5c0,1.4,1.1,2.5,2.6,2.5h23.2l4.6,5.4,4.6-5.4h8.5c1.4,0,2.6-1.1,2.6-2.5v-29.5c0-1.4-1.1-2.5-2.6-2.5H13.2Z"/>
    <path class="st5" d="M13.2,16c-1.4,0-2.6,1.1-2.6,2.5v.9c0-1.4,1.1-2.5,2.6-2.5h40.9c1.4,0,2.6,1.1,2.6,2.5v-.9c0-1.4-1.1-2.5-2.6-2.5H13.2Z"/>
    <ellipse class="st9" cx="19.4" cy="24.6" rx="14.3" ry="14.1"/>
    <ellipse class="st1" cx="19.4" cy="23.7" rx="14.3" ry="14.1"/>
    <path class="st3" d="M18,15.1v11.8h2.8v-11.8h-2.8ZM18,28.7v2.7h2.8v-2.7h-2.8Z"/>
  </g>
  <g>
    <path class="st9" d="M50.3,16.1c1.4,0,2.5,1,2.5,2.4v27.8c0,1.3-1.1,2.4-2.5,2.4h-22.8l-4.5,5.1-4.5-5.1h-8.4c-1.4,0-2.5-1-2.5-2.4v-27.8c0-1.3,1.1-2.4,2.5-2.4h40.2Z"/>
    <path class="st0" d="M50.3,15.2c1.4,0,2.5,1,2.5,2.4v27.8c0,1.3-1.1,2.4-2.5,2.4h-22.8l-4.5,5.1-4.5-5.1h-8.4c-1.4,0-2.5-1-2.5-2.4v-27.8c0-1.3,1.1-2.4,2.5-2.4h40.2Z"/>
    <path class="st5" d="M50.3,15.2c1.4,0,2.5,1,2.5,2.4v.9c0-1.3-1.1-2.4-2.5-2.4H10.1c-1.4,0-2.5,1-2.5,2.4v-.9c0-1.3,1.1-2.4,2.5-2.4h40.2Z"/>
    <ellipse class="st9" cx="44.2" cy="23.3" rx="14" ry="13.3"/>
    <ellipse class="st1" cx="44.2" cy="22.5" rx="14" ry="13.3"/>
    <path class="st3" d="M45.6,14.4v11.1h-2.7v-11.1h2.7ZM45.6,27.2v2.6h-2.7v-2.6h2.7Z"/>
  </g>
</svg>