<?xml version="1.0" encoding="UTF-8"?>
<svg id="_图层_1" xmlns="http://www.w3.org/2000/svg" version="1.1" viewBox="0 0 64 64" width="16" height="16">
  <!-- Generator: Adobe Illustrator 29.0.1, SVG Export Plug-In . SVG Version: 2.1.0 Build 192)  -->
  <defs>
    <style>
      .st0, .st1, .st2 {
        display: none;
      }

      .st0, .st3 {
        fill: #3f3f3f;
      }

      .st1, .st2, .st4 {
        isolation: isolate;
      }

      .st1, .st4 {
        opacity: .2;
      }

      .st2 {
        opacity: .1;
      }

      .st2, .st5 {
        fill: #fff;
      }
    </style>
  </defs>
  <path class="st3" d="M50.5,64H13.9C6.3,64,0,57.8,0,50.3V13.7C0,6.2,6.3,0,13.8,0h36.6c7.5,0,13.7,6.2,13.7,13.7v36.6c0,7.5-6.2,13.7-13.7,13.7h.1Z"/>
  <g>
    <path class="st1" d="M3.2,1.1h57.7c1.8,0,3.2,1.4,3.2,3.2v57.5c0,1.8-1.4,3.2-3.2,3.2H3.2c-1.8,0-3.2-1.4-3.2-3.2V4.3C0,2.6,1.4,1.1,3.2,1.1Z"/>
    <path class="st0" d="M3.2,0h57.7c1.8,0,3.2,1.4,3.2,3.2v57.5c0,1.8-1.4,3.2-3.2,3.2H3.2c-1.8,0-3.2-1.4-3.2-3.2V3.2C0,1.4,1.4,0,3.2,0Z"/>
    <path class="st4" d="M10.3,17.1v25.1h22.9v6.8h8v-31.9H10.3ZM45.8,17.1v31.9h8v-31.9h-8ZM18.3,25.1h14.9v9.1h-14.9v-9.1Z"/>
    <rect class="st5" x="10.3" y="16" width="8" height="25.1"/>
    <rect class="st5" x="10.3" y="16" width="30.9" height="8"/>
    <rect class="st5" x="33.2" y="16" width="8" height="31.9"/>
    <rect class="st5" x="10.3" y="33.1" width="30.9" height="8"/>
    <rect class="st5" x="45.8" y="16" width="8" height="31.9"/>
    <path class="st2" d="M3.2,0C1.4,0,0,1.4,0,3.2v1.1C0,2.6,1.4,1.1,3.2,1.1h57.7c1.8,0,3.2,1.4,3.2,3.2v-1.1c0-1.8-1.4-3.2-3.2-3.2H3.2Z"/>
  </g>
</svg>