<?xml version="1.0" encoding="UTF-8"?>
<svg id="_图层_1" xmlns="http://www.w3.org/2000/svg" version="1.1" viewBox="0 0 64 64" width="16" height="16">
  <!-- Generator: Adobe Illustrator 29.0.1, SVG Export Plug-In . SVG Version: 2.1.0 Build 192)  -->
  <defs>
    <style>
      .st0 {
        fill: #4f4f4f;
      }

      .st1 {
        fill: #434344;
      }

      .st2 {
        fill: #28287b;
      }

      .st2, .st3, .st4, .st5, .st6 {
        display: none;
      }

      .st3 {
        fill: #3f3f3f;
      }

      .st4, .st5, .st7, .st8 {
        isolation: isolate;
      }

      .st4, .st7, .st8 {
        opacity: .2;
      }

      .st5 {
        opacity: .1;
      }

      .st5, .st9, .st8 {
        fill: #fff;
      }

      .st10 {
        fill: #ec953b;
      }

      .st11 {
        fill: #b7b7b7;
      }

      .st12 {
        fill: #9868ff;
      }
    </style>
  </defs>
  <path class="st1" d="M50.5,64H13.9C6.3,64,0,57.8,0,50.3V13.7C0,6.2,6.3,0,13.8,0h36.6c7.5,0,13.7,6.2,13.7,13.7v36.6c0,7.5-6.2,13.7-13.7,13.7h.1Z"/>
  <g class="st6">
    <path class="st4" d="M3.2,1.1h57.7c1.8,0,3.2,1.4,3.2,3.2v57.5c0,1.8-1.4,3.2-3.2,3.2H3.2c-1.8,0-3.2-1.4-3.2-3.2V4.3C0,2.6,1.4,1.1,3.2,1.1Z"/>
    <path class="st3" d="M3.2,0h57.7c1.8,0,3.2,1.4,3.2,3.2v57.5c0,1.8-1.4,3.2-3.2,3.2H3.2c-1.8,0-3.2-1.4-3.2-3.2V3.2C0,1.4,1.4,0,3.2,0Z"/>
    <path class="st7" d="M10.3,17.1v25.1h22.9v6.8h8v-31.9H10.3ZM45.8,17.1v31.9h8v-31.9h-8ZM18.3,25.1h14.9v9.1h-14.9v-9.1Z"/>
    <rect class="st9" x="10.3" y="16" width="8" height="25.1"/>
    <rect class="st9" x="10.3" y="16" width="30.9" height="8"/>
    <rect class="st9" x="33.2" y="16" width="8" height="31.9"/>
    <rect class="st9" x="10.3" y="33.1" width="30.9" height="8"/>
    <rect class="st9" x="45.8" y="16" width="8" height="31.9"/>
    <path class="st5" d="M3.2,0C1.4,0,0,1.4,0,3.2v1.1C0,2.6,1.4,1.1,3.2,1.1h57.7c1.8,0,3.2,1.4,3.2,3.2v-1.1c0-1.8-1.4-3.2-3.2-3.2H3.2Z"/>
  </g>
  <g class="st6">
    <path class="st7" d="M24.4,28.5h14.3c1.6,0,2.9,1.2,2.9,2.7v26.7c0,1.5-1.3,2.7-2.9,2.7h-14.3c-1.6,0-2.9-1.2-2.9-2.7v-26.7c0-1.5,1.3-2.7,2.9-2.7h0Z"/>
    <path class="st11" d="M27.5,11.5h8v18h-8V11.5Z"/>
    <path class="st0" d="M24.4,27.5h14.3c1.6,0,2.9,1.2,2.9,2.7v26.7c0,1.5-1.3,2.7-2.9,2.7h-14.3c-1.6,0-2.9-1.2-2.9-2.7v-26.7c0-1.5,1.3-2.7,2.9-2.7h0Z"/>
    <path class="st11" d="M31.5,3.5l4,2-1.5,6h-4.9l-1.5-6,4-2Z"/>
    <rect class="st0" x="27.5" y="22.5" width="8" height="1"/>
    <rect class="st0" x="27.5" y="18.5" width="8" height="1"/>
    <path class="st8" d="M27.5,11.5v1h8v-1h-8Z"/>
    <path class="st8" d="M31.5,3.5l-4,2,.2.9,3.8-1.9,3.8,1.9.2-.9-4-2Z"/>
  </g>
  <g class="st6">
    <path class="st4" d="M31.9,1.1C14.3,1.1,0,15.4,0,33s14.3,31.9,31.8,31.9,31.8-14.3,31.8-31.9S49.5,1.1,31.9,1.1Z"/>
    <path class="st2" d="M31.9,0C14.3,0,0,14.2,0,31.8s14.3,31.9,31.8,31.9,31.8-14.3,31.8-31.9S49.5,0,31.9,0Z"/>
    <path class="st7" d="M33.3,11.4c-.8,0-1.7,0-2.5.1-7.6.6-13.1,4.5-17.5,9.1h0c-3.1,3.2-5.4,7.8-6.1,12.3-.9,6.6.8,12.5,5.3,16.7,3.8,3.6,9.8,4.9,16.2,5,4.4,0,8.6-.3,12.3-1.1,1.9-.4,3.7-1,4.9-1.7,1.2-.7,2-1.6,2-2.7h0c0-1.8-1-3.3-2.6-4.5-4.4-3.1-8-4.9-12.9-7.4-1.3-.6-2.6-1.5-2.7-2.8-.2-1.7,2.4-2.2,3.6-2.4,1.8-.2,3.3,0,5,0,1.8.2,3.8,1.8,4.4,2h0s0,0,0,0c.1,0,.3,0,.4-.1,0,0,0-.2.1-.2,0,0,0-.1,0-.2,0,0,0-.2,0-.3,0-.2-.1-.5-.3-.9-.4-2.3-1.8-5.7-2.8-7.7-.2-.4-.5-.8-.7-1.1-.2-.3-.5-.5-.8-.6-.4-.1-1.1-.2-2-.1-.9,0-2.1,0-3.3.2-2.4.2-5,.7-7.7,1.3-2.7.7-5.3,1.5-7.1,2.6-.9.6-1.8,1.2-2.3,1.9-.4.7-.5,2.5-.2,3.3h0c.7,1.8,2.7,3.2,4.9,4.4,4.6,2.5,8.6,4.1,12.9,6.7,1.6.9,2.6,2.1,2.4,3.4-.3,1.4-1.9,2-3.3,2.5-2.5.8-5.1.8-7.4.7-5.2-.2-10.1-1.3-13.7-5.4-2.2-2.5-2.5-5.1-2.8-8.9-.2-3.7,1.2-7.7,3.2-10.8,4.5-6.7,10.5-10.6,18.3-11.7,9.3-1.2,15.6,2.1,19.6,5.7,2,1.8,3.5,4,4.4,5.3.5.7.8,1.3,1,1.7.1.2.2.3.2.4,0,0,0,0,0,.1,0,0,0,0,0,0,0,0,.1,0,.1,0,0,0,.5-.2.5-.2,0,0,0-.2,0-.2,0,0,0,0,0,0,0-.1,0-.1,0-.2,0,0,0-.1,0-.2,0-.1-.2-.3-.3-.6-.3-.5-.6-1.1-1.1-1.8-1-1.5-2.5-3.7-4.6-5.6-3.7-3.3-9.1-6.4-16.6-6.6-.3,0-.5,0-.8,0h0Z"/>
    <path class="st12" d="M33.3,10.2c-.8,0-1.7,0-2.5.1-7.6.6-13.1,4.5-17.5,9.1h0c-3.1,3.2-5.4,7.8-6.1,12.3-.9,6.6.8,12.5,5.3,16.7,3.8,3.6,9.8,4.9,16.2,5,4.4,0,8.6-.3,12.3-1.1,1.9-.4,3.7-1,4.9-1.7,1.2-.7,2-1.6,2-2.7h0c0-1.8-1-3.3-2.6-4.5-4.4-3.1-8-4.9-12.9-7.4-1.3-.6-2.6-1.5-2.7-2.8-.2-1.7,2.4-2.2,3.6-2.4,1.8-.2,3.3,0,5,0,1.8.2,3.8,1.8,4.4,2h0s0,0,0,0c.1,0,.3,0,.4-.1,0,0,0-.2.1-.2,0,0,0-.1,0-.2,0,0,0-.2,0-.3,0-.2-.1-.5-.3-.9-.4-2.3-1.8-5.7-2.8-7.7-.2-.4-.5-.8-.7-1.1-.2-.3-.5-.5-.8-.6-.4-.1-1.1-.2-2-.1-.9,0-2.1,0-3.3.2-2.4.2-5,.7-7.7,1.3-2.7.7-5.3,1.5-7.1,2.6-.9.6-1.8,1.2-2.3,1.9-.4.7-.5,2.5-.2,3.3h0c.7,1.8,2.7,3.2,4.9,4.4,4.6,2.5,8.6,4.1,12.9,6.7,1.6.9,2.6,2.1,2.4,3.4-.3,1.4-1.9,2-3.3,2.5-2.5.8-5.1.8-7.4.7-5.2-.2-10.1-1.3-13.7-5.4-2.2-2.5-2.5-5.1-2.8-8.9-.2-3.7,1.2-7.7,3.2-10.8,4.5-6.7,10.5-10.6,18.3-11.7,9.3-1.2,15.6,2.1,19.6,5.7,2,1.8,3.5,4,4.4,5.3.5.7.8,1.3,1,1.7.1.2.2.3.2.4,0,0,0,0,0,.1,0,0,0,0,0,0,0,0,.1,0,.1,0,0,0,.5-.2.5-.2,0,0,0-.2,0-.2,0,0,0,0,0,0,0-.1,0-.1,0-.2,0,0,0-.1,0-.2,0-.1-.2-.3-.3-.6-.3-.5-.6-1.1-1.1-1.8-1-1.5-2.5-3.7-4.6-5.6-3.7-3.3-9.1-6.4-16.6-6.6-.3,0-.5,0-.8,0h0Z"/>
    <path class="st5" d="M31.9,0C14.3,0,0,14.2,0,31.8c0,.2,0,.3,0,.5C.5,15,14.6,1.1,31.9,1.1c17.4,0,31.5,14,31.8,31.4,0-.2,0-.4,0-.7C63.7,14.2,49.5,0,31.9,0Z"/>
  </g>
  <g>
    <path class="st7" d="M33,4.5C26.7,13.2,5.5,37.9,14.5,52.2c7,11,30.8,11.1,37.7,0,9-14.4-14-38.9-19.3-47.7Z"/>
    <path class="st10" d="M33,3.5C26.7,12.2,5.5,36.9,14.5,51.2c7,11,30.8,11.1,37.7,0,9-14.4-14-38.9-19.3-47.7Z"/>
    <path class="st8" d="M33,3.5c-5.2,7.3-20.9,25.8-20.6,40,.4-14,15.5-31.8,20.6-39,4.4,7.2,20.8,25.2,21.3,39.4.3-14.3-16.8-33-21.3-40.4Z"/>
  </g>
</svg>