<?xml version="1.0" encoding="UTF-8"?>
<svg id="_图层_1" xmlns="http://www.w3.org/2000/svg" version="1.1" viewBox="0 0 64 64" width="16" height="16">
  <!-- Generator: Adobe Illustrator 29.0.1, SVG Export Plug-In . SVG Version: 2.1.0 Build 192)  -->
  <defs>
    <style>
      .st0, .st1 {
        fill: #4f4f4f;
      }

      .st2 {
        fill: #37474f;
      }

      .st3, .st4, .st5, .st6, .st7, .st8, .st9, .st10 {
        isolation: isolate;
      }

      .st3, .st4, .st11, .st1 {
        display: none;
      }

      .st3, .st6, .st8, .st9 {
        opacity: .2;
      }

      .st4, .st12, .st8, .st10 {
        fill: #fff;
      }

      .st4, .st10 {
        opacity: .1;
      }

      .st13, .st7 {
        stroke: #26a69a;
      }

      .st13, .st7, .st9 {
        stroke-linecap: round;
        stroke-width: 4.3px;
      }

      .st13, .st7, .st9, .st14 {
        fill: none;
      }

      .st5 {
        opacity: .3;
      }

      .st15 {
        fill: #86c14d;
      }

      .st16 {
        fill: #455a64;
      }

      .st7 {
        opacity: .5;
      }

      .st17 {
        fill: #ffb16a;
      }

      .st9 {
        stroke: #000;
      }

      .st14 {
        stroke: #37474f;
        stroke-width: 2.1px;
      }
    </style>
  </defs>
  <path class="st0" d="M50.5,64H13.9c-7.6,0-13.9-6.2-13.9-13.7V13.7C0,6.2,6.3,0,13.8,0h36.6c7.5,0,13.7,6.2,13.7,13.7v36.6c0,7.5-6.2,13.7-13.7,13.7h.1Z"/>
  <g class="st11">
    <path class="st6" d="M31,16.6c3.5,0,25.3,0,25.3,12.8v10.7c0,12.8-1.2,12.8-25.3,12.8s-25.3,0-25.3-12.8v-10.7c0-12.8,21.9-12.8,25.3-12.8Z"/>
    <path class="st14" d="M24.5,9.5l5.9,6.7"/>
    <path class="st14" d="M37.6,9.5l-5.4,6.7"/>
    <ellipse class="st2" cx="31" cy="17" rx="9.4" ry="2.8"/>
    <ellipse class="st6" cx="24.5" cy="10.3" rx="2.8" ry="2.4"/>
    <ellipse class="st16" cx="24.5" cy="9.5" rx="2.8" ry="2.4"/>
    <path class="st16" d="M31,15.8c3.5,0,25.3,0,25.3,12.8v10.7c0,12.8-1.2,12.8-25.3,12.8s-25.3,0-25.3-12.8v-10.7c0-12.8,21.9-12.8,25.3-12.8Z"/>
    <ellipse class="st6" cx="50.3" cy="47" rx="3.3" ry="2.8"/>
    <ellipse class="st12" cx="50.3" cy="46.2" rx="3.3" ry="2.8"/>
    <path class="st5" d="M28.2,20.5c2.6,0,18.8,0,18.8,9.5v7.9c0,9.5-15.4,9.5-18.8,9.5s-18.8,0-18.8-9.5v-7.9c0-9.5,16.2-9.5,18.8-9.5Z"/>
    <path class="st7" d="M28.3,26.9l-5.9,15.6"/>
    <path class="st7" d="M41.1,26.9l-5.4,15.6"/>
    <path class="st9" d="M15.6,27.7l6.8,15.6"/>
    <path class="st13" d="M15.6,26.9l6.8,15.6"/>
    <path class="st9" d="M28.3,27.7l7.4,15.6"/>
    <path class="st13" d="M28.3,26.9l7.4,15.6"/>
    <ellipse class="st6" cx="37.6" cy="10.3" rx="2.8" ry="2.4"/>
    <ellipse class="st16" cx="37.6" cy="9.5" rx="2.8" ry="2.4"/>
    <path class="st10" d="M24.5,7.1c-1.6,0-2.8,1.1-2.8,2.4v.4c.2-1.1,1.4-2,2.8-2s2.5.8,2.8,2v-.4c0-1.3-1.3-2.4-2.8-2.4Z"/>
    <path class="st10" d="M31,15.8c-3.5,0-25.3,0-25.3,12.8v.8c0-12.8,21.9-12.8,25.3-12.8s25.3,0,25.3,12.8v-.8c0-12.8-21.9-12.8-25.3-12.8Z"/>
    <path class="st10" d="M37.6,7.1c-1.6,0-2.8,1.1-2.8,2.4v.4c.2-1.1,1.4-2,2.8-2s2.5.8,2.8,2v-.4c0-1.3-1.3-2.4-2.8-2.4Z"/>
  </g>
  <g class="st11">
    <ellipse class="st3" cx="32" cy="30.9" rx="32" ry="29.9"/>
    <ellipse class="st1" cx="32" cy="29.9" rx="32" ry="29.9"/>
    <path class="st6" d="M23.8,14.3c-7,3-11.5,9.5-11.5,16.7s8.8,18.4,19.6,18.4,19.6-8.2,19.6-18.4-4.5-13.7-11.5-16.7v.4c5.1,2.7,8.2,7.8,8.2,13.2,0,8.5-7.3,15.3-16.4,15.3h0c-9,0-16.4-6.9-16.4-15.3h0c0-5.5,3.1-10.5,8.2-13.2v-.4h.2Z"/>
    <path class="st17" d="M23.8,13.2c-7,3-11.5,9.5-11.5,16.7s8.8,18.4,19.6,18.4,19.6-8.2,19.6-18.4-4.5-13.7-11.5-16.7v.4c5.1,2.7,8.2,7.8,8.2,13.2,0,8.5-7.3,15.3-16.4,15.3h0c-9,0-16.4-6.9-16.4-15.3h0c0-5.5,3.1-10.5,8.2-13.2v-.4h.2Z"/>
    <path class="st8" d="M23.8,13.2c-7,3-11.5,9.5-11.5,16.7v.3c.2-5.5,3.1-10.5,7.7-13.8,1.1-1.1,2.3-2,3.7-2.8v-.4h0ZM40.2,13.2v.4c1.4.8,2.7,1.7,3.9,2.9,4.7,3.4,7.4,8.5,7.6,14v-.6c0-7.2-4.5-13.7-11.5-16.7ZM48.4,27.2c-.2,8.3-7.5,14.9-16.4,14.9s-16-6.5-16.4-14.7v.4c0,8.4,7.3,15.3,16.4,15.3s16.4-6.8,16.4-15.3v-.7h0Z"/>
    <path class="st6" d="M25.6,32.5l3.6,3v19.4l2.8,9,2.8-9v-19.4l3.6-3s-12.8,0-12.8,0Z"/>
    <path class="st17" d="M25.6,31.5l3.6,3v19.4l2.8,9,2.8-9v-19.4l3.6-3s-12.8,0-12.8,0Z"/>
    <path class="st4" d="M32,0C14.3,0,0,13.4,0,29.9v.6C.3,14.2,14.5,1,32,1s31.6,13,32,29.3v-.4C64,13.4,49.7,0,32,0Z"/>
    <path class="st8" d="M25.6,31.5l1.3,1h10.3l1.3-1h-12.9Z"/>
  </g>
  <g>
    <ellipse class="st3" cx="32" cy="30.9" rx="32" ry="29.8"/>
    <ellipse class="st1" cx="32" cy="29.8" rx="32" ry="29.8"/>
    <path class="st6" d="M30.3,32l2.8,3v19.8l3.6,9.2,3.6-9.2v-19.8l2.8-3h-12.8Z"/>
    <path class="st6" d="M23.6,13.9c-7.1,3.1-11.7,9.7-11.7,17,0,10.4,9,18.8,20.1,18.8s20.1-8.4,20.1-18.8h0c0-7.3-4.6-14-11.7-17v.4c5.2,2.8,8.4,7.9,8.4,13.5,0,8.6-7.5,15.6-16.8,15.6s-16.8-7-16.8-15.6c0-5.6,3.2-10.7,8.4-13.5v-.4Z"/>
    <path class="st15" d="M23.6,12.8c-7.1,3.1-11.7,9.7-11.7,17,0,10.4,9,18.8,20.1,18.8s20.1-8.4,20.1-18.8h0c0-7.3-4.6-14-11.7-17v.4c5.2,2.8,8.4,7.9,8.4,13.5,0,8.6-7.5,15.6-16.8,15.6s-16.8-7-16.8-15.6h0c0-5.6,3.2-10.7,8.4-13.5v-.4Z"/>
    <path class="st8" d="M23.6,12.8c-7.1,3.1-11.7,9.7-11.7,17,0,.1,0,.2,0,.3.3-5.5,3.1-10.6,7.8-14,1.1-1.2,2.5-2.2,4-3v-.4ZM40.4,12.8v.4c1.5.8,2.8,1.8,4,3,4.7,3.5,7.6,8.7,7.7,14.3,0-.2,0-.4,0-.7,0-7.3-4.6-14-11.7-17ZM48.8,27c-.2,8.5-7.7,15.3-16.8,15.3-9,0-16.4-6.6-16.8-15,0,.1,0,.3,0,.4,0,8.6,7.5,15.6,16.8,15.6h0c9.3,0,16.8-7,16.8-15.6h0c0-.2,0-.5,0-.7Z"/>
    <path class="st4" d="M32,0C14.3,0,0,13.3,0,29.8c0,.2,0,.4,0,.5C.3,14.1,14.6,1.1,32,1.1c17.4,0,31.6,13,32,29.2,0-.2,0-.4,0-.5C64,13.3,49.7,0,32,0Z"/>
    <path class="st6" d="M20.9,32l2.8,3v19.8l3.6,9.2,3.6-9.2v-19.8l2.8-3h-12.8Z"/>
    <path class="st15" d="M20.9,30.9l2.8,3v19.8l3.6,9.2,3.6-9.2v-19.8l2.8-3h-12.8Z"/>
    <path class="st15" d="M30.3,30.9l2.8,3v19.8l3.6,9.2,3.6-9.2v-19.8l2.8-3h-12.8Z"/>
    <path class="st8" d="M20.9,30.9l1.1,1.1h10.7l1.1-1.1h-12.8Z"/>
    <path class="st8" d="M30.3,30.9l1.1,1.1h10.7l1.1-1.1h-12.8Z"/>
  </g>
</svg>