<?xml version="1.0" encoding="UTF-8" standalone="no"?>
<svg
   id="_图层_1"
   version="1.1"
   viewBox="0 0 64 64" width="16" height="16"
   sodipodi:docname="qv4l2.svg"
   xml:space="preserve"
   inkscape:version="1.4 (e7c3feb100, 2024-10-09)"
   xmlns:inkscape="http://www.inkscape.org/namespaces/inkscape"
   xmlns:sodipodi="http://sodipodi.sourceforge.net/DTD/sodipodi-0.dtd"
   xmlns:xlink="http://www.w3.org/1999/xlink"
   xmlns="http://www.w3.org/2000/svg"
   xmlns:svg="http://www.w3.org/2000/svg"><sodipodi:namedview
     id="namedview26"
     pagecolor="#505050"
     bordercolor="#eeeeee"
     borderopacity="1"
     inkscape:showpageshadow="0"
     inkscape:pageopacity="0"
     inkscape:pagecheckerboard="0"
     inkscape:deskcolor="#505050"
     inkscape:zoom="10.6875"
     inkscape:cx="32"
     inkscape:cy="39.48538"
     inkscape:window-width="1920"
     inkscape:window-height="939"
     inkscape:window-x="0"
     inkscape:window-y="34"
     inkscape:window-maximized="1"
     inkscape:current-layer="_图层_1" /><!-- Generator: Adobe Illustrator 29.0.1, SVG Export Plug-In . SVG Version: 2.1.0 Build 192)  --><defs
     id="defs6"><style
       id="style1">
      .st0 {
        fill-opacity: .5;
      }

      .st0, .st1, .st2, .st3, .st4, .st5, .st6, .st7 {
        fill: #fff;
      }

      .st8 {
        fill: #133c9a;
      }

      .st2, .st9 {
        display: none;
      }

      .st3 {
        fill-opacity: .2;
      }

      .st4 {
        fill-opacity: .9;
      }

      .st10 {
        fill: #3370ff;
      }

      .st11 {
        fill: url(#_未命名的渐变_3);
      }

      .st12 {
        fill: url(#_未命名的渐变);
      }

      .st5 {
        fill-opacity: .3;
      }

      .st6 {
        fill-opacity: 0;
      }

      .st7 {
        fill-opacity: .7;
      }

      .st13 {
        fill: #00d6b9;
      }

      .st14 {
        fill: url(#_未命名的渐变_2);
      }
    </style><radialGradient
       id="_未命名的渐变"
       data-name="未命名的渐变"
       cx="123.9"
       cy="-40.2"
       fx="123.9"
       fy="-40.2"
       r="59.4"
       gradientTransform="translate(-26.8 25.5) scale(.6 -.7)"
       gradientUnits="userSpaceOnUse"><stop
         offset="0"
         stop-color="#db202e"
         id="stop1" /><stop
         offset="1"
         stop-color="#e01b24"
         id="stop2" /></radialGradient><radialGradient
       id="_未命名的渐变_2"
       data-name="未命名的渐变 2"
       cx="67.6"
       cy="26.8"
       fx="67.6"
       fy="26.8"
       r="105.2"
       gradientTransform="translate(-26.6 25.3) scale(.6 -.7)"
       gradientUnits="userSpaceOnUse"><stop
         offset="0"
         stop-color="#ffb648"
         id="stop3" /><stop
         offset="1"
         stop-color="#ff7800"
         stop-opacity="0"
         id="stop4" /></radialGradient><radialGradient
       id="_未命名的渐变_3"
       data-name="未命名的渐变 3"
       cx="61.7"
       cy="18.6"
       fx="61.7"
       fy="18.6"
       r="68"
       gradientTransform="matrix(0.6,0,0,-0.7,-26.8,25.8)"
       gradientUnits="userSpaceOnUse"><stop
         offset="0"
         stop-color="#c64600"
         id="stop5" /><stop
         offset="1"
         stop-color="#a51d2d"
         id="stop6" /></radialGradient><linearGradient
       id="linearGradient1261"><stop
         style="stop-color:#4f4f4f"
         offset="0"
         id="stop1-7" /><stop
         style="stop-color:#3f3f3f"
         offset="1"
         id="stop2-0" /></linearGradient><linearGradient
       id="linearGradient1263"
       x1="34.241"
       x2="37.169"
       y1="38.945"
       y2="30.342"
       gradientTransform="matrix(1.3919157,0,0,1.3888889,-1.321022,-0.4865665)"
       gradientUnits="userSpaceOnUse"
       xlink:href="#linearGradient1261" /><style
       id="style1-7">
      .st0 {
        fill-opacity: .5;
      }

      .st0, .st1, .st2, .st3, .st4, .st5, .st6, .st7 {
        fill: #fff;
      }

      .st8 {
        fill: #133c9a;
      }

      .st2, .st9 {
        display: none;
      }

      .st3 {
        fill-opacity: .2;
      }

      .st4 {
        fill-opacity: .9;
      }

      .st10 {
        fill: #3370ff;
      }

      .st11 {
        fill: url(#_未命名的渐变_3);
      }

      .st12 {
        fill: url(#_未命名的渐变);
      }

      .st5 {
        fill-opacity: .3;
      }

      .st6 {
        fill-opacity: 0;
      }

      .st7 {
        fill-opacity: .7;
      }

      .st13 {
        fill: #00d6b9;
      }

      .st14 {
        fill: url(#_未命名的渐变_2);
      }
    </style><radialGradient
       id="_未命名的渐变-8"
       data-name="未命名的渐变"
       cx="123.9"
       cy="-40.2"
       fx="123.9"
       fy="-40.2"
       r="59.4"
       gradientTransform="translate(-26.8 25.5) scale(.6 -.7)"
       gradientUnits="userSpaceOnUse"><stop
         offset="0"
         stop-color="#db202e"
         id="stop1-4" /><stop
         offset="1"
         stop-color="#e01b24"
         id="stop2-5" /></radialGradient><radialGradient
       id="_未命名的渐变_2-0"
       data-name="未命名的渐变 2"
       cx="67.6"
       cy="26.8"
       fx="67.6"
       fy="26.8"
       r="105.2"
       gradientTransform="translate(-26.6 25.3) scale(.6 -.7)"
       gradientUnits="userSpaceOnUse"><stop
         offset="0"
         stop-color="#ffb648"
         id="stop3-3" /><stop
         offset="1"
         stop-color="#ff7800"
         stop-opacity="0"
         id="stop4-6" /></radialGradient><radialGradient
       id="_未命名的渐变_3-1"
       data-name="未命名的渐变 3"
       cx="61.7"
       cy="18.6"
       fx="61.7"
       fy="18.6"
       r="68"
       gradientTransform="translate(-26.8 25.8) scale(.6 -.7)"
       gradientUnits="userSpaceOnUse"><stop
         offset="0"
         stop-color="#c64600"
         id="stop5-0" /><stop
         offset="1"
         stop-color="#a51d2d"
         id="stop6-6" /></radialGradient><style
       id="style1-6">
      .st0 {
        fill: #b0aca9;
      }

      .st0, .st1, .st2, .st3, .st4, .st5, .st6, .st7 {
        display: none;
      }

      .st8 {
        fill: #4f4f4f;
      }

      .st9 {
        fill: #2a4d9b;
      }

      .st10 {
        fill: #d29ab8;
      }

      .st1, .st11, .st12, .st5, .st13, .st14, .st7, .st15 {
        isolation: isolate;
      }

      .st1, .st11, .st5, .st13, .st14, .st7 {
        opacity: .2;
      }

      .st16 {
        fill: #a95b86;
      }

      .st2 {
        fill: #009587;
      }

      .st11, .st17, .st5 {
        fill-rule: evenodd;
      }

      .st18, .st17, .st4, .st14, .st7, .st15 {
        fill: #fff;
      }

      .st3 {
        fill: #8561c5;
      }

      .st19 {
        fill: #2f2f2f;
      }

      .st20 {
        fill: #e74185;
      }

      .st21 {
        fill: none;
        stroke: #ff631b;
        stroke-linecap: round;
        stroke-linejoin: round;
        stroke-width: 5.1px;
      }

      .st22 {
        fill: #d8d8d8;
      }

      .st12, .st15 {
        opacity: .1;
      }

      .st23 {
        fill: #ff631b;
      }

      .st24 {
        fill: #57779f;
      }

      .st25 {
        fill: #1554d4;
      }

      .st26 {
        fill: #765ffc;
      }

      .st27 {
        fill: #1e298c;
      }

      .st28 {
        fill: #c03630;
      }

      .st29 {
        fill: #ffc500;
      }

      .st30 {
        fill: #73a0d6;
      }

      .st31 {
        fill: #277f8d;
      }
    </style><radialGradient
       inkscape:collect="always"
       xlink:href="#_未命名的渐变"
       id="radialGradient27"
       gradientUnits="userSpaceOnUse"
       gradientTransform="matrix(0.6,0,0,-0.7,-26.8,25.5)"
       cx="123.9"
       cy="-40.2"
       fx="123.9"
       fy="-40.2"
       r="59.4" /><radialGradient
       inkscape:collect="always"
       xlink:href="#_未命名的渐变"
       id="radialGradient28"
       gradientUnits="userSpaceOnUse"
       gradientTransform="matrix(0.6,0,0,-0.7,-26.8,25.5)"
       cx="123.9"
       cy="-40.2"
       fx="123.9"
       fy="-40.2"
       r="59.4" /></defs><path
     class="st18"
     d="M 58.196208,74.037384 H 10.414439 c -9.94908133,0 -18.0654366,-8.175728 -18.0654366,-18.065721 V 7.7084866 c 0,-9.889993 8.11635527,-18.0657216 17.9345266,-18.0657216 h 47.781769 c 9.818172,0 17.934528,8.1757286 17.934528,18.0657216 V 55.971663 c 0,9.889993 -8.116356,18.065721 -17.934528,18.065721 v 0 z"
     id="path1"
     style="stroke-width:1.31386;fill:#f9f9f9;opacity:1"
     transform="matrix(0.76500823,0,0,0.7572335,5.9030766,7.9364123)" /><g
     id="g27"
     transform="matrix(0.76500823,0,0,0.7572335,5.9030766,7.9364123)"><g
       class="st6"
       id="g13"><path
         class="st13"
         d="m 28.6,7.6 c -0.9,0 -1,0.5 -1.5,1.8 L 10,53.1 c -0.9,2.1 -1.1,2.2 1.2,2.2 h 6.1 c 2.3,0 2.5,0 3.2,-1.9 L 24,45.1 h 17.6 l 3.5,8.3 c 0.8,2 0.9,1.9 3.2,1.9 h 6.1 c 2.3,0 2.1,0 1.2,-2.2 L 38.4,9.4 C 37.9,8.1 37.8,7.6 36.9,7.6 H 28.7 Z M 32.7,22.1 37.8,35 H 27.7 l 5.1,-12.9 z"
         id="path2" /><path
         class="st8"
         d="m 28.6,6.8 c -0.9,0 -1,0.5 -1.5,1.8 L 10,52.2 c -0.9,2.1 -1.1,2.2 1.2,2.2 h 6.1 c 2.3,0 2.5,0 3.2,-1.9 L 24,44.2 h 17.6 l 3.5,8.3 c 0.8,2 0.9,1.9 3.2,1.9 h 6.1 c 2.3,0 2.1,0 1.2,-2.2 L 38.4,8.6 C 37.9,7.3 37.8,6.8 36.9,6.8 h -8.2 z m 4.1,14.4 5.1,12.9 H 27.7 l 5.1,-12.9 z"
         id="path3" /><path
         class="st21"
         d="m 35.2,24.1 c 12.6,7 21.8,15.2 20.4,18.3 -1.3,3.1 -12.7,0 -25.3,-7.1 C 17.7,28.3 8.5,20.1 9.9,17 c 1.4,-3.1 12.7,0 25.3,7.1 z"
         id="path4" /><path
         class="st8"
         d="m 21,24.1 -3.3,8.3 21.8,11.8 h 2 l 0.7,1.3 13.2,6.4 -5.5,-13.9 -13.1,-6.3 1,2.5 H 27.7 L 30,28.4 21.1,24.1 Z"
         id="path5" /><path
         class="st21"
         d="m 30.3,24.1 c -12.6,7 -21.8,15.2 -20.4,18.3 1.4,3.1 12.7,0 25.3,-7.1 C 47.8,28.3 57,20.1 55.6,17 54.2,13.9 42.9,17 30.3,24.1 Z"
         id="path6-9" /><path
         class="st23"
         d="m 25,24.7 4.3,2.5 C 25.4,29.4 22,31.8 19.1,34 l -3.5,-2.7 c 2.6,-2.1 5.8,-4.3 9.3,-6.5 z"
         id="path7" /><path
         class="st8"
         d="M 44.5,24.1 47.8,32.4 26,44.2 h -2 l -0.7,1.3 -13.2,6.4 5.5,-13.9 13.1,-6.3 -1,2.5 h 10.1 l -2.3,-5.8 8.9,-4.3 z"
         id="path8" /><path
         class="st23"
         d="m 40.4,24.7 -4.3,2.5 c 3.9,2.2 7.3,4.6 10.2,6.8 l 3.5,-2.7 C 47.2,29.2 44,27 40.5,24.8 Z"
         id="path9" /><path
         class="st13"
         d="m 7.7,18.1 c 0,0.6 0,1.2 0.2,1.8 0.2,0.9 0.7,1.7 1.2,2.5 1.1,1.6 2.6,3.2 4.5,5 1,0.9 2.2,1.9 3.5,2.9 0.2,-0.1 0.4,-0.3 0.6,-0.4 -1.5,-1.1 -2.9,-2.2 -4,-3.3 -1.9,-1.7 -3.5,-3.4 -4.5,-5 C 8.7,20.8 8.3,20 8,19.1 8,18.8 7.9,18.5 7.8,18.2 Z m 5.1,0 c -0.4,0 -0.6,0 -0.8,0.1 0,0.2 0.2,0.4 0.4,0.8 0,0 0,0 0,0 0.1,0 0.2,0 0.4,0 1.1,0 2.9,0.3 5.1,0.9 4.4,1.2 10.2,3.7 16.4,7.1 6.2,3.4 11.5,7.2 15.1,10.3 1.7,1.6 3,3 3.7,4 0.2,0 0.3,0 0.4,0 0,-0.2 -0.2,-0.4 -0.4,-0.8 -0.7,-1 -2,-2.5 -3.7,-4 -3.5,-3.2 -8.9,-6.9 -15.1,-10.3 -6.2,-3.4 -12.1,-5.9 -16.4,-7.1 -2.2,-0.6 -4,-0.9 -5.1,-0.9 z m 45,24.2 c 0,0.4 -0.1,0.8 -0.3,1.2 -0.4,1 -1.2,1.6 -2,1.9 -0.8,0.3 -1.6,0.4 -2.5,0.5 l 0.3,0.8 c 0.8,0 1.5,-0.2 2.1,-0.4 0.8,-0.3 1.6,-1 2,-1.9 0.3,-0.7 0.3,-1.4 0.3,-2.1 z"
         id="path10" /><ellipse
         class="st13"
         cx="18.5"
         cy="17"
         rx="5.8000002"
         ry="5.9000001"
         id="ellipse10" /><ellipse
         class="st29"
         cx="18.5"
         cy="16.1"
         rx="5.8000002"
         ry="5.9000001"
         id="ellipse11" /><path
         class="st14"
         d="m 18.5,10.2 c -3.2,0 -5.8,2.7 -5.8,5.9 0,0.1 0,0.3 0,0.4 0.2,-3.1 2.8,-5.5 5.8,-5.5 3.1,0 5.6,2.4 5.8,5.5 0,-0.1 0,-0.3 0,-0.4 0,-3.3 -2.6,-5.9 -5.8,-5.9 z"
         id="path11" /><path
         class="st13"
         d="m 57.8,18.1 c 0,0.3 0,0.6 -0.2,0.9 -0.2,0.9 -0.7,1.7 -1.2,2.5 -1.1,1.6 -2.6,3.2 -4.5,5 -1.2,1.1 -2.6,2.2 -4,3.3 0.2,0.1 0.4,0.3 0.6,0.4 1.3,-1 2.4,-1.9 3.5,-2.9 1.9,-1.7 3.5,-3.4 4.5,-5 0.5,-0.8 0.9,-1.6 1.2,-2.5 0.1,-0.5 0.2,-1.1 0.2,-1.8 z m -5.1,0 c -1.1,0 -2.9,0.3 -5.1,0.9 -2.8,0.8 -6.4,2.1 -10.2,3.9 0.3,0.2 0.5,0.3 0.8,0.5 3.5,-1.6 6.7,-2.8 9.4,-3.6 2.2,-0.6 4,-0.9 5.1,-0.9 0.2,0 0.3,0 0.4,0 0,0 0,0 0,0 0.2,-0.4 0.3,-0.5 0.4,-0.8 -0.2,0 -0.4,-0.1 -0.8,-0.1 z m -20,7.2 c -0.5,0.3 -1,0.6 -1.6,0.8 -6.2,3.4 -11.5,7.2 -15.1,10.3 -1.8,1.6 -3.1,3 -3.7,4 -0.2,0.4 -0.3,0.5 -0.4,0.8 0.1,0 0.2,0 0.4,0 0.7,-1 2,-2.5 3.7,-4 3.5,-3.2 8.9,-6.9 15.1,-10.3 0.8,-0.4 1.6,-0.9 2.4,-1.3 -0.3,-0.1 -0.5,-0.3 -0.8,-0.4 z m -25,17 c 0,0.7 0,1.4 0.3,2.1 0.4,1 1.2,1.6 2,1.9 0.7,0.3 1.4,0.4 2.1,0.4 l 0.3,-0.8 c -0.9,0 -1.7,-0.1 -2.5,-0.5 -0.8,-0.3 -1.6,-1 -2,-1.9 C 7.7,43.1 7.7,42.7 7.6,42.3 Z"
         id="path12" /><ellipse
         class="st13"
         cx="50.700001"
         cy="25.1"
         rx="4.5999999"
         ry="4.6999998"
         id="ellipse12" /><ellipse
         class="st29"
         cx="50.700001"
         cy="24.200001"
         rx="4.5999999"
         ry="4.6999998"
         id="ellipse13" /><path
         class="st14"
         d="m 50.7,19.5 c -2.5,0 -4.6,2.1 -4.6,4.7 0,0.1 0,0.3 0,0.4 0.2,-2.4 2.2,-4.2 4.6,-4.2 2.4,0 4.4,1.9 4.6,4.3 0,-0.1 0,-0.3 0,-0.4 0,-2.6 -2.1,-4.7 -4.6,-4.7 z"
         id="path13" /></g><g
       class="st6"
       id="g20"><path
         class="st1"
         d="m 0,59.3 v 2.3 C 0,63.5 1.5,65 3.4,65 h 57.1 c 1.9,0 3.4,-1.5 3.4,-3.4 v -2.3 c 0,1.9 -1.5,3.4 -3.4,3.4 H 3.4 C 1.5,62.7 0,61.2 0,59.3 Z"
         id="path14" /><path
         class="st0"
         d="m 3.4,0 h 57.1 c 1.9,0 3.4,1.5 3.4,3.4 v 57 c 0,1.9 -1.5,3.4 -3.4,3.4 H 3.4 C 1.5,63.8 0,62.3 0,60.4 V 3.4 C 0,1.5 1.5,0 3.4,0 Z"
         id="path15" /><path
         class="st7"
         d="M 3.4,0 C 1.5,0 0,1.5 0,3.4 V 4.5 C 0,2.7 1.5,1.1 3.4,1.1 h 57.1 c 1.9,0 3.4,1.5 3.4,3.4 V 3.4 C 63.9,1.5 62.4,0 60.5,0 Z"
         id="path16" /><path
         class="st12"
         d="M 9.4,8 C 8,8 6.9,9.1 6.9,10.5 v 45.2 c 0,1.4 1.1,2.5 2.5,2.5 h 45.2 c 1.4,0 2.5,-1.1 2.5,-2.5 V 10.5 C 57.1,9.1 56,8 54.6,8 Z"
         id="path17"
         style="fill:url(#radialGradient27)" /><path
         class="st25"
         d="M 9.4,6.8 C 8,6.8 6.9,7.9 6.9,9.3 V 54.5 C 6.9,55.9 8,57 9.4,57 h 45.2 c 1.4,0 2.5,-1.1 2.5,-2.5 V 9.3 C 57.1,7.9 56,6.8 54.6,6.8 Z"
         id="path18" /><path
         class="st27"
         d="m 32,17.1 v 7.8 l 10.6,19.5 h 3.1 c 0,0 8,0 8,-8 0,-8 -4.6,-6.8 -4.6,-6.8 0,0 2.3,-1.1 2.3,-5.7 0,-6.8 -5.7,-6.8 -5.7,-6.8 z m 0,17.4 v 7.7 h 4.2 z"
         id="path19" /><path
         class="st27"
         d="M 25.1,17.1 10.2,44.5 h 10.3 l 4.6,-8 4.6,8 H 40 Z"
         id="path20" /></g><g
       class="st6"
       id="g29"><path
         class="st13"
         d="m 32,4.9 v 0 c 15.5,0 28,12.5 28,28 v 0 c 0,15.5 -12.5,28 -28,28 v 0 C 16.5,60.9 4,48.4 4,32.9 v 0 C 4,17.4 16.5,4.9 32,4.9 Z"
         id="path21" /><path
         class="st9"
         d="m 32,3.9 v 0 c 15.5,0 28,12.5 28,28 v 0 c 0,15.5 -12.5,28 -28,28 v 0 C 16.5,59.9 4,47.4 4,31.9 v 0 C 4,16.4 16.5,3.9 32,3.9 Z"
         id="path22" /><path
         class="st12"
         d="m 32.1,6.3 c -2.2,0.2 -4.3,0.5 -6.3,1.2 -0.7,0 -2.3,1 -1,1.4 0.6,0.6 2,0.8 1.9,1.9 0.2,0.9 -2.1,0.9 -1.4,1.7 0.6,0.7 1.1,1.5 1.7,2.2 1,-0.3 1.4,-1.4 1.9,-2.2 1.6,-0.7 3.9,-0.9 4.9,-2.3 0.3,-1 0.7,-1.9 1,-2.9 C 33.9,6.9 33,6.6 32.1,6.2 Z m -7.6,0.3 c -1,-0.1 -1.6,0.5 -2.4,0.9 -0.9,0.1 -1.9,0.4 -2.5,1.2 1,0.5 1.7,0 2.5,-0.4 0.8,-0.4 3.6,-0.6 2.3,-1.7 z m -6.4,2.9 c -0.5,0.8 0.4,1.9 -0.8,2.3 -0.6,0.7 -1.1,1.9 0.4,1.5 0.4,-1.1 1.4,-2.6 2.7,-2 1.3,0.3 2.4,2.4 3.4,0.8 0,-0.4 -1.6,-0.7 -1.6,-1.7 C 21.5,10.1 20,10.6 20,9.5 19,9 18.7,11.3 18.3,10 18.3,9.8 18.1,9.6 18,9.4 Z m 27.7,1 c -1.2,0.2 -2.4,0.5 -3.4,1.3 0.3,1.1 -1.2,1.3 -1.8,1.9 -0.5,0.3 0,2.3 0.4,2 0.9,-1.1 1.3,-0.2 2.1,0.4 0.7,0.7 1.2,-1.2 0.8,-1.8 -0.2,-0.9 0.9,-1.5 1.3,-2.2 1.2,-0.8 0.2,1 0.1,1.6 -0.6,1.8 2.7,0 0.5,1.4 -0.6,0.6 -0.8,1.4 -1.7,1.9 -0.5,0.6 -2.3,0.3 -2.1,-0.6 -0.7,-1.1 -0.5,1.3 -0.7,1.3 -1.1,-0.3 -1.4,0.9 -2.1,1.5 -0.5,0.6 -2.4,0.2 -1,1.2 1,1.2 -0.2,1 -1.1,1.3 -1.2,0.2 -1,1.3 -1,2.2 0,0.5 1.2,1.3 1.8,0.9 1.2,-0.1 0.9,-1.6 1.7,-2 0.7,-0.6 1.2,-1.2 2.3,-1.2 0.5,0.5 1.5,1.2 1.9,1.6 -1.1,1.2 0.5,1.1 0.7,0 0.6,-0.6 -1.8,-2.1 -0.3,-1.4 1,0.3 0.8,1.4 1.3,2.1 0.8,1.4 0.9,0.4 1,-0.7 1.4,-0.4 1.7,2.4 3.6,1.7 1.4,0.4 0.7,1.3 -0.1,1.8 -0.8,0.6 -2,0.2 -2.9,-0.1 -0.9,-0.4 -1.9,-0.2 -2.4,0.7 -1,-0.9 -1.7,-2.3 -3.2,-2.3 -1.4,0 -2.8,0.3 -4.1,0.7 -1.5,1.7 -3.1,3.4 -3.8,5.7 -0.7,0.9 0.8,1.4 -0.3,2.2 -0.8,0.8 0.3,1.7 0.4,2.5 0.9,1 2.2,4.4 3.6,3.1 0.8,-1.2 1.3,0.8 2.2,-0.5 0.8,-0.7 1.4,0.7 2.4,0.2 0.9,0.5 1,1.4 0.5,2.3 -0.3,0.9 1.4,1.3 0.9,2.3 -0.2,1 0.2,1.9 0.7,2.7 -1.1,1.2 -1,2.9 -0.7,4.4 0.5,2 1.3,4 1.3,6.2 1,0.3 1.7,-0.4 2.5,-0.7 1.6,0.2 2.4,-1.4 3.4,-2.4 -0.7,-1 0.6,-1.4 1.1,-2 -0.8,-0.7 -1.4,-1.4 0,-1.9 0.6,-0.6 1.7,-0.9 1.9,-1.8 -0.5,-1.5 -0.2,-3.1 -0.3,-4.6 0.6,-1.2 1.3,-2.5 2.3,-3.4 0.4,-1.4 1.4,-2.6 1.3,-4 -2.4,0.7 -1.7,-0.3 -0.3,-1.3 0.9,-0.7 2.2,-1.3 2.5,-2.5 0.2,-1.1 -0.7,-2.9 -1.5,-1.2 -0.4,-0.5 -1.7,-1 -1.7,-1.9 -0.3,-1.7 0.5,-0.7 1.1,0.1 1.5,-1.1 3.5,3.1 2.9,0 -0.9,-6.6 -4.2,-12.8 -9.2,-17.1 -0.5,0.5 -1.2,2.3 -1.8,1.3 -0.8,-0.8 -1.4,-1.6 0.2,-1.3 1.6,-0.4 0,-0.7 -0.8,-0.8 -0.8,0 -1.6,-0.4 -2.4,-0.7 v 0 z m -30.6,0 c -1,0.4 0.5,1.9 -1.3,1.4 -2,0.9 -3.4,3.2 -4.8,4.9 -3.3,4.7 -5.1,10.3 -5.1,16 0.5,1.1 1.9,1.5 2.9,2.1 1,0.3 2.3,0.3 2.8,1.4 0.6,0.6 1.3,1.4 2.1,1.4 1.2,-0.4 1.4,0.7 0.8,1.6 0,0.9 -1.1,1.6 -1,2.4 0.2,0.9 -1.1,1.9 -0.2,2.7 1,1.7 2,3.4 3.3,4.9 0.8,0.7 0.7,1.7 0.6,2.6 -0.3,1 0.7,1.6 1.2,2.4 -1.3,2.3 2.2,2.8 3.6,3.8 0.7,-0.7 0.8,-1.7 2,-1.8 0.7,-0.5 0.9,-1.7 1.4,-2.4 0,-0.8 -0.5,-1.6 0.3,-2.5 0.6,-0.5 2,-0.2 2.2,-1.3 0.9,-0.9 0.2,-2.1 0.2,-3.2 0.7,-0.9 1.8,-1.6 1.7,-2.9 0.1,-1.9 -3.3,-1.8 -4.5,-3 -1.5,0 -1.2,-2.1 -2.3,-2.3 -1.1,0 -1.6,-0.8 -2,-1.7 -0.6,-0.4 -1.8,0.4 -2.5,0 -0.7,-0.4 -1.4,-1.9 -2.3,-0.9 -1.1,0.8 -2.2,1.6 -3.2,0.3 C 10.4,35.8 11.3,34 10.3,34.2 8.2,34.9 11,31.2 9,31.7 8.5,32.4 7.7,33.5 6.8,32.7 5.9,32.3 6.4,31 6.4,30.2 c 0,-0.9 1.2,-1.4 1.9,-1.8 1.3,0.6 1,-1.1 2.1,-0.6 1,-0.2 1.5,1.5 1.9,1.5 0.2,-0.8 -0.2,-2 0.6,-2.6 0.9,-0.8 2.1,-1.3 2.3,-2.6 0,-1.4 1.7,-0.2 2.1,-1.1 0.4,-1.1 1.5,-1 2.4,-1.2 0.5,-0.5 1.8,-1.9 0.2,-1.5 -0.6,0 -2.9,0.2 -1.3,-0.3 0.8,-0.6 1.7,-0.5 2.6,-0.6 0.7,-0.6 1.9,-0.8 1.9,-1.8 -0.6,-0.8 -1.8,-0.6 -1.3,-1.7 0,-1.4 -1.3,-0.5 -1.7,-0.6 0.7,-0.9 -0.9,-1.5 -1.4,-1.6 -0.4,0.9 -1.4,1.7 -1,2.7 -1,0.2 -1.5,0.9 -1.8,1.9 -0.3,0.1 -0.2,-1.8 -1.4,-1.7 -0.8,0 -1.9,-1.3 -1,-1.8 1.2,-0.8 2.7,-1.4 3.5,-2.6 0.4,-1.1 -0.4,-1.8 -1.5,-1.6 h -0.2 c 0,0 0,0 0,0 z m 20.6,1.3 c -0.7,0.5 -2,0.2 -2.3,0.7 -0.1,1 1.5,1 2.1,0.4 1,-0.4 1,-0.3 0.2,-1.1 z m -15,0.5 c -1.4,0.4 -0.3,1.4 0.7,1.3 1.1,0 0,-1.3 -0.7,-1.3 z m 17.1,2.8 c -0.1,0.9 0.8,1.5 0.4,2.5 -0.6,1.3 0.2,1.6 1.2,0.9 1.3,-0.8 -1,-2.5 -1.3,-3.3 -0.1,0 -0.2,0 -0.3,0 z m -0.5,1.5 c -1.2,-0.3 -0.8,2.2 0,1.3 0.9,-0.2 0,-0.8 0,-1.3 z m -14.9,2.2 c 0.2,0.9 0.2,2.4 0.9,0.8 0,-0.3 -0.7,-0.5 -0.9,-0.8 z m 28.3,9.6 c 1.4,1.2 1.9,2.9 2.7,4.5 1.2,0.6 0.5,1.5 0.6,2.3 1.6,1.4 -1.6,0.7 -1.2,-0.9 -0.3,-1.8 -1.4,-3 -2.3,-4.3 0,-0.7 -0.8,-1.5 0.2,-1.7 z"
         id="path23"
         style="fill:url(#radialGradient28)" /><path
         class="st31"
         d="m 32.1,5.3 c -2.2,0.2 -4.3,0.5 -6.3,1.2 -0.7,0 -2.3,1 -1,1.4 0.6,0.6 2,0.8 1.9,1.9 0.2,0.9 -2.1,0.9 -1.4,1.7 0.6,0.7 1.1,1.5 1.7,2.2 1,-0.3 1.4,-1.4 1.9,-2.2 1.6,-0.7 3.9,-0.9 4.9,-2.3 0.3,-1 0.7,-1.9 1,-2.9 C 33.9,5.9 33,5.6 32.1,5.2 Z m -7.6,0.3 c -1,-0.1 -1.6,0.5 -2.4,0.9 -0.9,0.1 -1.9,0.4 -2.5,1.2 1,0.5 1.7,0 2.5,-0.4 0.8,-0.4 3.6,-0.6 2.3,-1.7 z m -6.4,2.9 c -0.5,0.8 0.4,1.9 -0.8,2.3 -0.6,0.7 -1.1,1.9 0.4,1.5 0.4,-1.1 1.4,-2.6 2.7,-2 1.3,0.3 2.4,2.4 3.4,0.8 0,-0.4 -1.6,-0.7 -1.6,-1.7 C 21.5,9.1 20,9.6 20,8.5 19,8 18.7,10.3 18.3,9 18.3,8.8 18.1,8.6 18,8.4 Z m 27.7,1 c -1.2,0.2 -2.4,0.5 -3.4,1.3 0.3,1.1 -1.2,1.3 -1.8,1.9 -0.5,0.3 0,2.3 0.4,2 0.9,-1.1 1.3,-0.2 2.1,0.4 0.7,0.7 1.2,-1.2 0.8,-1.8 -0.2,-0.9 0.9,-1.5 1.3,-2.2 1.2,-0.8 0.2,1 0.1,1.6 -0.6,1.8 2.7,0 0.5,1.4 -0.6,0.6 -0.8,1.4 -1.7,1.9 -0.5,0.6 -2.3,0.3 -2.1,-0.6 -0.7,-1.1 -0.5,1.3 -0.7,1.3 -1.1,-0.3 -1.4,0.9 -2.1,1.5 -0.5,0.6 -2.4,0.2 -1,1.2 1,1.2 -0.2,1 -1.1,1.3 -1.2,0.2 -1,1.3 -1,2.2 0,0.5 1.2,1.3 1.8,0.9 1.2,-0.1 0.9,-1.6 1.7,-2 0.7,-0.6 1.2,-1.2 2.3,-1.2 0.5,0.5 1.5,1.2 1.9,1.6 -1.1,1.2 0.5,1.1 0.7,0 0.6,-0.6 -1.8,-2.1 -0.3,-1.4 1,0.3 0.8,1.4 1.3,2.1 0.8,1.4 0.9,0.4 1,-0.7 1.4,-0.4 1.7,2.4 3.6,1.7 1.4,0.4 0.7,1.3 -0.1,1.8 -0.8,0.6 -2,0.2 -2.9,-0.1 -0.9,-0.4 -1.9,-0.2 -2.4,0.7 -1,-0.9 -1.7,-2.3 -3.2,-2.3 -1.4,0 -2.8,0.3 -4.1,0.7 -1.5,1.7 -3.1,3.4 -3.8,5.7 -0.7,0.9 0.8,1.4 -0.3,2.2 -0.8,0.8 0.3,1.7 0.4,2.5 0.9,1 2.2,4.4 3.6,3.1 0.8,-1.2 1.3,0.8 2.2,-0.5 0.8,-0.7 1.4,0.7 2.4,0.2 0.9,0.5 1,1.4 0.5,2.3 -0.3,0.9 1.4,1.3 0.9,2.3 -0.2,1 0.2,1.9 0.7,2.7 -1.1,1.2 -1,2.9 -0.7,4.4 0.5,2 1.3,4 1.3,6.2 1,0.3 1.7,-0.4 2.5,-0.7 1.6,0.2 2.4,-1.4 3.4,-2.4 -0.7,-1 0.6,-1.4 1.1,-2 -0.8,-0.7 -1.4,-1.4 0,-1.9 0.6,-0.6 1.7,-0.9 1.9,-1.8 -0.5,-1.5 -0.2,-3.1 -0.3,-4.6 0.6,-1.2 1.3,-2.5 2.3,-3.4 0.4,-1.4 1.4,-2.6 1.3,-4 -2.4,0.7 -1.7,-0.3 -0.3,-1.3 0.9,-0.7 2.2,-1.3 2.5,-2.5 0.2,-1.1 -0.7,-2.9 -1.5,-1.2 -0.4,-0.5 -1.7,-1 -1.7,-1.9 -0.3,-1.7 0.5,-0.7 1.1,0.1 1.5,-1.1 3.5,3.1 2.9,0 -0.9,-6.6 -4.2,-12.8 -9.2,-17.1 -0.5,0.5 -1.2,2.3 -1.8,1.3 -0.8,-0.8 -1.4,-1.6 0.2,-1.3 1.6,-0.4 0,-0.7 -0.8,-0.8 -0.8,0 -1.6,-0.4 -2.4,-0.7 v 0 z m -30.6,0 c -1,0.4 0.5,1.9 -1.3,1.4 -2,0.9 -3.4,3.2 -4.8,4.9 -3.3,4.7 -5.1,10.3 -5.1,16 0.5,1.1 1.9,1.5 2.9,2.1 1,0.3 2.3,0.3 2.8,1.4 0.6,0.6 1.3,1.4 2.1,1.4 1.2,-0.4 1.4,0.7 0.8,1.6 0,0.9 -1.1,1.6 -1,2.4 0.2,0.9 -1.1,1.9 -0.2,2.7 1,1.7 2,3.4 3.3,4.9 0.8,0.7 0.7,1.7 0.6,2.6 -0.3,1 0.7,1.6 1.2,2.4 -1.3,2.3 2.2,2.8 3.6,3.8 0.7,-0.7 0.8,-1.7 2,-1.8 0.7,-0.5 0.9,-1.7 1.4,-2.4 0,-0.8 -0.5,-1.6 0.3,-2.5 0.6,-0.5 2,-0.2 2.2,-1.3 0.9,-0.9 0.2,-2.1 0.2,-3.2 0.7,-0.9 1.8,-1.6 1.7,-2.9 0.1,-1.9 -3.3,-1.8 -4.5,-3 -1.5,0 -1.2,-2.1 -2.3,-2.3 -1.1,0 -1.6,-0.8 -2,-1.7 -0.6,-0.4 -1.8,0.4 -2.5,0 -0.7,-0.4 -1.4,-1.9 -2.3,-0.9 -1.1,0.8 -2.2,1.6 -3.2,0.3 C 10.4,34.8 11.3,33 10.3,33.2 8.2,33.9 11,30.2 9,30.7 8.5,31.4 7.7,32.5 6.8,31.7 5.9,31.3 6.4,30 6.4,29.2 c 0,-0.9 1.2,-1.4 1.9,-1.8 1.3,0.6 1,-1.1 2.1,-0.6 1,-0.2 1.5,1.5 1.9,1.5 0.2,-0.8 -0.2,-2 0.6,-2.6 0.9,-0.8 2.1,-1.3 2.3,-2.6 0,-1.4 1.7,-0.2 2.1,-1.1 0.4,-1.1 1.5,-1 2.4,-1.2 0.5,-0.5 1.8,-1.9 0.2,-1.5 -0.6,0 -2.9,0.2 -1.3,-0.3 0.8,-0.6 1.7,-0.5 2.6,-0.6 0.7,-0.6 1.9,-0.8 1.9,-1.8 -0.6,-0.8 -1.8,-0.6 -1.3,-1.7 0,-1.4 -1.3,-0.5 -1.7,-0.6 0.7,-0.9 -0.9,-1.5 -1.4,-1.6 -0.4,0.9 -1.4,1.7 -1,2.7 -1,0.2 -1.5,0.9 -1.8,1.9 -0.3,0.1 -0.2,-1.8 -1.4,-1.7 -0.8,0 -1.9,-1.3 -1,-1.8 1.2,-0.8 2.7,-1.4 3.5,-2.6 0.4,-1.1 -0.4,-1.8 -1.5,-1.6 h -0.2 c 0,0 0,0 0,0 z m 20.6,1.3 c -0.7,0.5 -2,0.2 -2.3,0.7 -0.1,1 1.5,1 2.1,0.4 1,-0.4 1,-0.3 0.2,-1.1 z m -15,0.5 c -1.4,0.4 -0.3,1.4 0.7,1.3 1.1,0 0,-1.3 -0.7,-1.3 z m 17.1,2.8 c -0.1,0.9 0.8,1.5 0.4,2.5 -0.6,1.3 0.2,1.6 1.2,0.9 1.3,-0.8 -1,-2.5 -1.3,-3.3 -0.1,0 -0.2,0 -0.3,0 z m -0.5,1.5 c -1.2,-0.3 -0.8,2.2 0,1.3 0.9,-0.2 0,-0.8 0,-1.3 z m -14.9,2.2 c 0.2,0.9 0.2,2.4 0.9,0.8 0,-0.3 -0.7,-0.5 -0.9,-0.8 z m 28.3,9.6 c 1.4,1.2 1.9,2.9 2.7,4.5 1.2,0.6 0.5,1.5 0.6,2.3 1.6,1.4 -1.6,0.7 -1.2,-0.9 -0.3,-1.8 -1.4,-3 -2.3,-4.3 0,-0.7 -0.8,-1.5 0.2,-1.7 z"
         id="path24" /><path
         class="st13"
         d="m 29,26.9 c -1.7,0 -3,1.3 -3,2.9 v 13.1 h -5 c -1.1,0 -2,0.7 -2,1.6 0,0.3 0,0.5 0.3,0.8 l 11,14.8 c 0.6,0.8 1.8,1 2.8,0.6 0.3,-0.1 0.6,-0.3 0.7,-0.6 l 11,-14.8 c 0.6,-0.8 0.2,-1.7 -0.7,-2.2 -0.3,-0.1 -0.7,-0.2 -1,-0.2 h -5 V 29.8 c 0,-1.6 -1.3,-2.9 -3,-2.9 h -6 z"
         id="path25" /><path
         class="st20"
         d="m 29,25.9 h 6 c 1.7,0 3,1.3 3,2.9 V 42 c 0,1.6 -1.3,2.9 -3,2.9 h -6 c -1.7,0 -3,-1.3 -3,-2.9 V 28.8 c 0,-1.6 1.3,-2.9 3,-2.9 z"
         id="path26" /><path
         class="st20"
         d="m 21,41.9 c -1.1,0 -2,0.7 -2,1.6 0,0.3 0,0.5 0.3,0.8 l 11,14.8 c 0.6,0.8 1.8,1 2.8,0.6 0.3,-0.1 0.6,-0.3 0.7,-0.6 l 11,-14.8 c 0.6,-0.8 0.2,-1.7 -0.7,-2.2 -0.3,-0.1 -0.7,-0.2 -1,-0.2 h -22 z"
         id="path27" /><path
         class="st14"
         d="m 29,25.9 c -1.7,0 -3,1.3 -3,2.9 v 1 c 0,-1.6 1.3,-2.9 3,-2.9 h 6 c 1.7,0 3,1.3 3,2.9 v -1 c 0,-1.6 -1.3,-2.9 -3,-2.9 z m -8,16 c -1.1,0 -2,0.7 -2,1.6 0,0.2 0,0.3 0.1,0.5 0.3,-0.6 1,-1.1 1.9,-1.1 h 5 v -1 z m 17,0 v 1 h 5 c 0.9,0 1.6,0.4 1.9,1.1 0.4,-0.8 -0.2,-1.7 -1.3,-2 -0.2,0 -0.4,0 -0.6,0 h -5 z"
         id="path28" /><path
         class="st15"
         d="M 32,3.9 C 16.5,3.9 4,16.4 4,31.9 4,47.4 4,32.2 4,32.4 4.3,17.1 16.6,4.9 32,4.9 c 15.4,0 27.7,12.2 28,27.5 0,-0.2 0,-0.3 0,-0.5 0,-15.5 -12.5,-28 -28,-28 z"
         id="path29" /></g><g
       class="st6"
       id="g37"><path
         class="st1"
         d="m 0,56.1 v 2.2 c 0,1.8 1.6,3.2 3.6,3.2 h 45 c 2,0 3.6,-1.4 3.6,-3.2 v -2.2 c 0,1.8 -1.6,3.2 -3.6,3.2 H 3.6 C 1.6,59.3 0,57.9 0,56.1 Z"
         id="path30" /><path
         class="st2"
         d="M 3.6,0 C 1.6,0 0,1.4 0,3.2 v 53.9 c 0,1.8 1.6,3.2 3.6,3.2 h 45 c 2,0 3.6,-1.4 3.6,-3.2 V 3.2 C 52.2,1.4 50.6,0 48.6,0 Z"
         id="path31" /><path
         class="st13"
         d="M 12.9,0 C 6.7,0 0.1,6.3 0.1,13 V 51.2 C 0.1,56.6 5.6,64 12.9,64 v 0 z"
         id="path32" /><path
         class="st13"
         d="m 33.2,1.1 v 30.2 l 4.7,-4.3 4.7,4.3 V 1.1 h -9.5 z"
         id="path33" /><path
         class="st22"
         d="m 33.2,0 v 30.2 l 4.7,-4.3 4.7,4.3 V 0 h -9.5 z"
         id="path34" /><path
         class="st7"
         d="M 3.6,0 C 1.6,0 0,1.4 0,3.2 V 4.3 C 0,2.5 1.6,1.1 3.6,1.1 h 45 c 2,0 3.6,1.4 3.6,3.2 V 3.2 C 52.2,1.4 50.6,0 48.6,0 Z"
         id="path35" /><path
         class="st5"
         d="m 63.9,45.1 c -0.5,9.2 -8.8,16.3 -18.9,16.3 -9.9,0 -18.2,-7 -18.9,-16 0,0.3 0,0.6 0,0.9 0,9.5 8.5,17.3 19,17.3 10.5,0 19,-7.7 19,-17.3 0,-0.4 0,-0.8 0,-1.2 z"
         id="path36" /><ellipse
         class="st3"
         cx="45"
         cy="45.299999"
         rx="19"
         ry="17.299999"
         id="ellipse36" /><path
         class="st4"
         d="M 42.6,36.7 42.4,39 c -0.8,0.3 -1.5,0.7 -2.2,1.1 l -2.3,-1 -2.4,3.7 2.1,1.3 c 0,0.4 -0.1,0.8 -0.1,1.1 0,0.4 0,0.8 0.1,1.1 l -2.1,1.3 2.4,3.7 2.3,-1 c 0.7,0.5 1.4,0.9 2.2,1.1 l 0.2,2.3 h 4.7 l 0.2,-2.3 c 0.8,-0.3 1.5,-0.7 2.2,-1.1 l 2.3,1 2.4,-3.7 -2.1,-1.3 c 0,-0.4 0.1,-0.8 0.1,-1.1 0,-0.4 0,-0.8 -0.1,-1.1 l 2.1,-1.3 -2.4,-3.7 -2.3,1 C 49,39.6 48.3,39.2 47.5,39 l -0.2,-2.3 z m 2.3,6.1 c 1.5,0 2.7,1.1 2.7,2.5 v 0 c 0,1.4 -1.2,2.5 -2.7,2.5 v 0 c -1.5,0 -2.7,-1.1 -2.7,-2.5 v 0 c 0,-1.4 1.2,-2.5 2.7,-2.5 z"
         id="path37" /></g><g
       class="st6"
       id="g45"><path
         class="st1"
         d="m 0,56.4 v 2.2 c 0,1.8 1.6,3.3 3.5,3.3 h 44.6 c 2,0 3.5,-1.5 3.5,-3.3 v -2.2 c 0,1.8 -1.6,3.3 -3.5,3.3 H 3.5 C 1.5,59.7 0,58.2 0,56.4 Z"
         id="path38" /><path
         class="st2"
         d="M 3.5,0 C 1.6,0 0,1.5 0,3.3 v 54.2 c 0,1.8 1.6,3.3 3.5,3.3 h 44.6 c 2,0 3.5,-1.5 3.5,-3.3 V 3.3 C 51.6,1.5 50,0 48.1,0 Z"
         id="path39" /><path
         class="st1"
         d="M 3.5,0 C 1.6,0 0,1.5 0,3.3 v 54.2 c 0,1.8 1.6,3.3 3.5,3.3 H 9.4 V 0 Z"
         id="path40" /><path
         class="st13"
         d="m 32.9,1.1 v 30.4 l 4.7,-4.3 4.7,4.3 V 1.1 Z"
         id="path41" /><path
         class="st22"
         d="m 32.9,0 v 30.4 l 4.7,-4.3 4.7,4.3 V 0 Z"
         id="path42" /><path
         class="st7"
         d="M 3.5,0 C 1.6,0 0,1.5 0,3.3 V 4.4 C 0,2.5 1.6,1.1 3.5,1.1 h 44.6 c 2,0 3.5,1.5 3.5,3.3 V 3.3 C 51.6,1.5 50,0 48.1,0 Z"
         id="path43" /><path
         class="st11"
         d="m 63.3,45.4 c -0.5,9.2 -8.8,16.4 -18.7,16.4 -9.8,0 -18,-7 -18.7,-16.1 0,0.3 0,0.6 0,0.9 0,9.6 8.4,17.4 18.8,17.4 10.4,0 18.8,-7.8 18.8,-17.4 0,-0.4 0,-0.8 0,-1.2 z"
         id="path44"
         style="fill:url(#_%E6%9C%AA%E5%91%BD%E5%90%8D%E7%9A%84%E6%B8%90%E5%8F%98_3)" /><ellipse
         class="st28"
         cx="44.599998"
         cy="45.599998"
         rx="18.799999"
         ry="17.4"
         id="ellipse44" /><path
         class="st17"
         d="m 44.6,38 c -2.3,0 -4.6,0.6 -6.5,1.7 -0.8,0.5 -1.7,1.2 -2.5,1.9 -1.1,1.1 -2.1,2.5 -2.7,4 1.8,4.1 5.7,7.1 10,7.5 2.8,0.3 5.8,-0.2 8.3,-1.6 0.8,-0.5 1.7,-1.2 2.5,-1.9 1.1,-1.1 2.1,-2.5 2.7,-4 -1.8,-4.1 -5.7,-7.1 -10,-7.5 -0.6,0 -1.2,-0.1 -1.7,-0.1 z m 0,3.2 c 2.5,0 4.7,2 4.7,4.3 0,2.6 -2.7,4.8 -5.4,4.3 -2.7,-0.3 -4.7,-3.1 -3.8,-5.6 0.6,-1.8 2.5,-3.1 4.5,-3.1 v 0 z m 0,2.2 c -1.3,0 -2.3,1 -2.3,2.2 0,0 0,0 0,0 0,1.2 1.1,2.2 2.3,2.2 1.2,0 2.3,-1 2.3,-2.2 0,-1.2 -1.1,-2.2 -2.3,-2.2 z"
         id="path45" /></g><g
       class="st6"
       id="g48"><circle
         class="st13"
         cx="30.799999"
         cy="32.900002"
         r="28"
         id="circle45" /><circle
         class="st26"
         cx="30.799999"
         cy="31.9"
         r="28"
         id="circle46" /><path
         class="st13"
         d="m 14.1,43.6 6.2,-4.7 c 3.3,4.3 6.7,6.2 10.6,6.2 3.9,0 7.2,-1.9 10.3,-6.2 l 6.2,4.6 C 42.9,49.6 37.3,52.8 30.8,52.8 24.3,52.8 18.7,49.6 14,43.5 Z M 30.9,23.1 20,32.5 14.9,26.6 30.9,12.8 46.8,26.6 41.7,32.4 30.9,23 Z"
         id="path46" /><path
         class="st18"
         d="m 14.1,42.6 6.2,-4.7 c 3.3,4.3 6.7,6.2 10.6,6.2 3.9,0 7.2,-1.9 10.3,-6.2 l 6.2,4.6 C 42.9,48.6 37.3,51.8 30.8,51.8 24.3,51.8 18.7,48.6 14,42.5 Z M 30.9,22.1 20,31.5 14.9,25.6 30.9,11.8 46.8,25.6 41.7,31.4 30.9,22 Z"
         id="path47" /><path
         class="st15"
         d="m 30.8,3.9 c -15.5,0 -28,12.5 -28,28 0,0.2 0,0.3 0,0.5 0.3,-15.2 12.7,-27.5 28,-27.5 15.2,0 27.6,12.1 28,27.2 0,0 0,-0.2 0,-0.2 0,-15.5 -12.5,-28 -28,-28 z"
         id="path48" /></g><g
       id="g57"><path
         class="st13"
         d="m 32,47.9 c 0,0 17,4.2 17,7 v 2.8 c 0,1.6 -1.3,2.8 -2.8,2.8 H 17.9 c -1.6,0 -2.8,-1.2 -2.8,-2.8 v -2.8 c 0,-2.8 17,-7 17,-7 z"
         id="path49" /><path
         class="st24"
         d="m 32,46.9 c 0,0 17,4.2 17,7 v 2.8 c 0,1.6 -1.3,2.8 -2.8,2.8 H 17.9 c -1.6,0 -2.8,-1.2 -2.8,-2.8 v -2.8 c 0,-2.8 17,-7 17,-7 z"
         id="path50" /><circle
         class="st13"
         cx="32"
         cy="29.5"
         r="25"
         id="circle50" /><circle
         class="st30"
         cx="32"
         cy="28.5"
         r="25"
         id="circle51" /><circle
         class="st19"
         cx="32"
         cy="28.5"
         r="18"
         id="circle52" /><circle
         class="st13"
         cx="32"
         cy="29.5"
         r="14"
         id="circle53" /><circle
         class="st16"
         cx="32"
         cy="28.5"
         r="14"
         id="circle54" /><circle
         class="st13"
         cx="32"
         cy="29.5"
         r="8"
         id="circle55" /><circle
         class="st10"
         cx="32"
         cy="28.5"
         r="8"
         id="circle56" /><path
         class="st14"
         d="m 31.8,20.5 c -4.4,0 -7.9,3.6 -7.9,8 0,0.2 0,0.3 0,0.5 0.3,-4.2 3.7,-7.4 7.9,-7.5 0,0 0,0 0.1,0 4.2,0 7.7,3.3 8,7.5 0,-0.2 0,-0.3 0,-0.5 0,-4.4 -3.6,-8 -8,-8 z"
         id="path56" /><path
         class="st14"
         d="M 31.8,3.5 C 18.1,3.5 7,14.8 7,28.5 7,28.7 7,28.8 7,29 7.3,15.4 18.4,4.5 32,4.5 c 13.6,0 24.7,10.9 25,24.5 0,-0.2 0,-0.3 0,-0.5 0,-13.8 -11.2,-25 -25,-25 0,0 -0.1,0 -0.2,0 z"
         id="path57" /></g></g><path
     d="m 51.368522,36.491228 c 1.381688,0 2.682446,0.254221 3.901435,0.764295 1.218155,0.50926 2.28112,1.205926 3.187229,2.090815 a 10.047278,9.8119998 0 0 1 2.141787,3.112593 c 0.521467,1.190444 0.781785,2.460742 0.781785,3.810074 0,1.349333 -0.260318,2.61963 -0.78262,3.810074 a 10.047278,9.8119998 0 0 1 -2.140952,3.112592 10.047278,9.8119998 0 0 1 -3.187229,2.09163 c -1.218989,0.509259 -2.519747,0.763481 -3.901435,0.763481 -1.381688,0 -2.682444,-0.254222 -3.901434,-0.764296 A 10.047278,9.8119998 0 0 1 44.27986,53.191671 10.047278,9.8119998 0 0 1 42.138076,50.079079 9.8136596,9.5838522 0 0 1 41.356287,46.269005 c 0,-1.349332 0.260318,-2.61963 0.782623,-3.810074 a 10.047278,9.8119998 0 0 1 2.14095,-3.112593 10.047278,9.8119998 0 0 1 3.187228,-2.09163 c 1.21899,-0.508444 2.519746,-0.76348 3.901434,-0.76348 z m 5.122929,10.419851 c 0.02252,-0.145853 0.03337,-0.360148 0.03337,-0.642074 0,-0.281927 -0.01085,-0.496223 -0.03337,-0.642074 l 1.433418,-1.065777 a 0.30954494,0.30229629 0 0 0 0.115138,-0.203704 0.37045271,0.36177778 0 0 0 -0.05006,-0.235482 L 56.60659,41.865746 a 0.29869836,0.29170371 0 0 0 -0.172711,-0.140962 0.37379015,0.36503705 0 0 0 -0.238625,0.01629 l -1.697074,0.642074 a 4.3060955,4.2052593 0 0 0 -1.169761,-0.642887 l -0.246968,-1.707852 a 0.40549552,0.39599999 0 0 0 -0.123484,-0.203703 0.30203576,0.29496295 0 0 0 -0.206086,-0.07823 h -2.766714 a 0.32372896,0.31614815 0 0 0 -0.312883,0.281927 l -0.264489,1.707851 c -0.373791,0.146667 -0.758427,0.360964 -1.153076,0.642889 l -1.713762,-0.642887 c -0.175214,-0.07333 -0.312882,-0.03096 -0.411336,0.125482 l -1.384192,2.257037 a 0.37045271,0.36177778 0 0 0 -0.05006,0.234667 c 0.01168,0.08311 0.05006,0.151556 0.116809,0.203703 l 1.449271,1.065779 c -0.02252,0.14585 -0.03337,0.360147 -0.03337,0.642074 0,0.281925 0.01085,0.496221 0.03337,0.642074 l -1.450106,1.065777 a 0.30954494,0.30229629 0 0 0 -0.11514,0.203704 0.37045271,0.36177778 0 0 0 0.05006,0.235481 l 1.383356,2.256222 c 0.09845,0.156445 0.236122,0.198001 0.411337,0.125482 l 1.71376,-0.642889 c 0.307043,0.250963 0.691679,0.464444 1.153076,0.642889 l 0.262821,1.707852 a 0.32372896,0.31614815 0 0 0 0.313718,0.281925 h 2.766714 a 0.30203576,0.29496295 0 0 0 0.206085,-0.07822 0.40549552,0.39599999 0 0 0 0.123484,-0.203705 l 0.246968,-1.707851 c 0.340417,-0.125482 0.730893,-0.339777 1.169763,-0.642889 l 1.697075,0.642889 c 0.08761,0.03096 0.16687,0.03667 0.238624,0.01548 a 0.29869836,0.29170371 0 0 0 0.172711,-0.140963 l 1.384193,-2.257036 a 0.37045271,0.36177778 0 0 0 0.05006,-0.234668 0.30954494,0.30229629 0 0 0 -0.116805,-0.203703 l -1.432587,-1.065777 z m -5.131272,1.80237 a 2.3737341,2.3181481 0 0 1 -1.239014,-0.334074 2.602347,2.5414075 0 0 1 -0.913616,-0.892221 2.3737341,2.3181481 0 0 1 -0.342086,-1.210001 c 0,-0.433482 0.114307,-0.83926 0.342086,-1.218148 a 2.5806537,2.5202222 0 0 1 0.913616,-0.90037 c 0.381299,-0.222444 0.794303,-0.334075 1.239014,-0.334075 0.443875,0 0.859384,0.111631 1.247357,0.334075 0.387141,0.222445 0.694182,0.522296 0.921961,0.90037 0.227778,0.378888 0.342084,0.784666 0.342084,1.218148 0,0.434297 -0.114306,0.83763 -0.342084,1.210001 a 2.5806537,2.5202222 0 0 1 -0.921961,0.892221 c -0.387973,0.222444 -0.803482,0.334074 -1.247357,0.334074 z"
     fill="#0085ff"
     p-id="10336"
     id="path1-3"
     style="stroke-width:0.0193248;fill:#338000" /></svg>
