<?xml version="1.0" encoding="UTF-8" standalone="no"?>
<svg
   id="_图层_1"
   version="1.1"
   viewBox="0 0 64 64" width="16" height="16"
   sodipodi:docname="redshift.svg"
   xml:space="preserve"
   inkscape:version="1.4 (e7c3feb100, 2024-10-09)"
   xmlns:inkscape="http://www.inkscape.org/namespaces/inkscape"
   xmlns:sodipodi="http://sodipodi.sourceforge.net/DTD/sodipodi-0.dtd"
   xmlns:xlink="http://www.w3.org/1999/xlink"
   xmlns="http://www.w3.org/2000/svg"
   xmlns:svg="http://www.w3.org/2000/svg"><sodipodi:namedview
     id="namedview26"
     pagecolor="#505050"
     bordercolor="#eeeeee"
     borderopacity="1"
     inkscape:showpageshadow="0"
     inkscape:pageopacity="0"
     inkscape:pagecheckerboard="0"
     inkscape:deskcolor="#505050"
     inkscape:zoom="10.6875"
     inkscape:cx="32"
     inkscape:cy="32"
     inkscape:window-width="1920"
     inkscape:window-height="939"
     inkscape:window-x="0"
     inkscape:window-y="34"
     inkscape:window-maximized="1"
     inkscape:current-layer="_图层_1" /><!-- Generator: Adobe Illustrator 29.0.1, SVG Export Plug-In . SVG Version: 2.1.0 Build 192)  --><defs
     id="defs6"><style
       id="style1">
      .st0 {
        fill-opacity: .5;
      }

      .st0, .st1, .st2, .st3, .st4, .st5, .st6, .st7 {
        fill: #fff;
      }

      .st8 {
        fill: #133c9a;
      }

      .st2, .st9 {
        display: none;
      }

      .st3 {
        fill-opacity: .2;
      }

      .st4 {
        fill-opacity: .9;
      }

      .st10 {
        fill: #3370ff;
      }

      .st11 {
        fill: url(#_未命名的渐变_3);
      }

      .st12 {
        fill: url(#_未命名的渐变);
      }

      .st5 {
        fill-opacity: .3;
      }

      .st6 {
        fill-opacity: 0;
      }

      .st7 {
        fill-opacity: .7;
      }

      .st13 {
        fill: #00d6b9;
      }

      .st14 {
        fill: url(#_未命名的渐变_2);
      }
    </style><radialGradient
       id="_未命名的渐变"
       data-name="未命名的渐变"
       cx="123.9"
       cy="-40.2"
       fx="123.9"
       fy="-40.2"
       r="59.4"
       gradientTransform="translate(-26.8 25.5) scale(.6 -.7)"
       gradientUnits="userSpaceOnUse"><stop
         offset="0"
         stop-color="#db202e"
         id="stop1" /><stop
         offset="1"
         stop-color="#e01b24"
         id="stop2" /></radialGradient><radialGradient
       id="_未命名的渐变_2"
       data-name="未命名的渐变 2"
       cx="67.6"
       cy="26.8"
       fx="67.6"
       fy="26.8"
       r="105.2"
       gradientTransform="translate(-26.6 25.3) scale(.6 -.7)"
       gradientUnits="userSpaceOnUse"><stop
         offset="0"
         stop-color="#ffb648"
         id="stop3" /><stop
         offset="1"
         stop-color="#ff7800"
         stop-opacity="0"
         id="stop4" /></radialGradient><radialGradient
       id="_未命名的渐变_3"
       data-name="未命名的渐变 3"
       cx="61.7"
       cy="18.6"
       fx="61.7"
       fy="18.6"
       r="68"
       gradientTransform="translate(-26.8 25.8) scale(.6 -.7)"
       gradientUnits="userSpaceOnUse"><stop
         offset="0"
         stop-color="#c64600"
         id="stop5" /><stop
         offset="1"
         stop-color="#a51d2d"
         id="stop6" /></radialGradient><linearGradient
       id="linearGradient1261"><stop
         style="stop-color:#4f4f4f"
         offset="0"
         id="stop1-7" /><stop
         style="stop-color:#3f3f3f"
         offset="1"
         id="stop2-0" /></linearGradient><linearGradient
       id="linearGradient1263"
       x1="34.241"
       x2="37.169"
       y1="38.945"
       y2="30.342"
       gradientTransform="matrix(1.3919157,0,0,1.3888889,-1.321022,-0.4865665)"
       gradientUnits="userSpaceOnUse"
       xlink:href="#linearGradient1261" /></defs><path
     class="st1"
     d="M47.5,64.1H13.8c-7.6,0-13.8-6.3-13.8-13.8V13.7C0,6.2,6.2,0,13.7,0h36.6c7.5,0,13.7,6.2,13.7,13.7v36.6c0,7.5-6.2,13.7-13.7,13.7h-2.9.1Z"
     id="path6"
     style="fill:#f2f2f2;fill-opacity:1" /><g
     id="g26"
     transform="translate(0.46793645,-0.90350877)"><path
       style="fill:#e74c3c"
       d="m 32.0001,6.000319 c -9.387944,0 -16.9997,7.626555 -16.9997,17.033899 -0.0348,5.10197 4.469974,9.559944 6.537762,14.413915 0.921994,2.163988 2.615984,6.551962 2.615984,6.551962 h 15.692108 c 0,0 1.69355,-4.388574 2.615384,-6.551762 2.067988,-4.853971 6.447962,-9.367944 6.537962,-14.413915 0,-9.407344 -7.611955,-17.033899 -16.9999,-17.033899 z"
       id="path1" /><path
       style="fill:#4f4f4f"
       d="m 39.846054,44.000095 -2.615985,11.399933 c -0.321998,1.403991 -1.165993,2.599984 -2.613984,2.599984 h -5.230769 c -1.448912,0 -2.311787,-1.191553 -2.615385,-2.599984 L 24.153946,44.000095 Z"
       id="path2" /><path
       style="opacity:0.2;fill:#ffffff"
       d="m 24.668143,46.000083 0.445998,1.999988 H 38.88606 l 0.445997,-1.999988 z m 0.893995,3.999976 0.445998,1.999989 h 11.983929 l 0.445997,-1.999989 z m 0.895995,3.999977 0.311998,1.397992 c 0.046,0.211998 0.127999,0.403997 0.197999,0.601996 h 10.059941 c 0.072,-0.197999 0.155999,-0.389998 0.201998,-0.601996 l 0.311999,-1.397992 z"
       id="path3" /><path
       style="opacity:0.2;fill:#ffffff"
       d="M 31.998788,6 C 22.611513,6 15,13.627821 15,23.035894 c -0.0011,0.165969 0.01656,0.329149 0.02539,0.494106 0.268634,-9.172617 7.756012,-16.5300713 16.9734,-16.5300713 9.150229,0 16.592563,7.2516973 16.963634,16.3308663 0.01512,-0.09763 0.03314,-0.195257 0.03515,-0.294901 C 48.997576,13.627821 41.386064,6 31.998788,6 Z"
       id="path4" /><path
       style="opacity:0.2"
       d="m 48.970703,23.449219 c -0.312055,4.877716 -4.496681,9.279464 -6.509765,14 C 41.540944,39.611206 39.847656,44 39.847656,44 H 24.152344 c 0,0 -1.691334,-4.388794 -2.611328,-6.550781 -1.99921,-4.689814 -6.262193,-9.01358 -6.517578,-13.900391 C 15.013852,23.710821 15,23.872059 15,24.037109 c -0.0348,5.09997 4.471828,9.558138 6.541016,14.41211 C 22.46101,40.611206 24.152344,45 24.152344,45 h 15.695312 c 0,0 1.693288,-4.388794 2.613282,-6.550781 C 44.530926,33.595247 48.91,29.081079 49,24.037109 c 0,-0.198726 -0.0201,-0.391642 -0.0293,-0.58789 z"
       id="path5" /><path
       style="opacity:0.2"
       d="m 24.152344,45 2.617187,11.398438 C 27.073529,57.806429 27.934821,59 29.382812,59 h 5.234376 c 1.447991,0 2.291283,-1.197571 2.613281,-2.601562 L 39.847656,45 H 39.617188 L 37.230469,55.398438 C 36.908471,56.802429 36.065179,58 34.617188,58 h -5.234376 c -1.447991,0 -2.309283,-1.193571 -2.613281,-2.601562 L 24.382812,45 Z"
       id="path6-8" /></g></svg>
