<?xml version="1.0" encoding="UTF-8"?>
<svg id="_图层_1" xmlns="http://www.w3.org/2000/svg" version="1.1" viewBox="0 0 64 64" width="16" height="16">
  <!-- Generator: Adobe Illustrator 29.0.1, SVG Export Plug-In . SVG Version: 2.1.0 Build 192)  -->
  <defs>
    <style>
      .st0 {
        fill: #c72566;
      }

      .st1, .st2 {
        stroke: #fff;
      }

      .st1, .st2, .st3, .st4 {
        fill: none;
        stroke-linecap: round;
      }

      .st1, .st4 {
        stroke-width: 4px;
      }

      .st5 {
        fill: #ff8c2a;
      }

      .st6, .st3, .st4, .st7 {
        isolation: isolate;
        opacity: .2;
      }

      .st6, .st8, .st7 {
        display: none;
      }

      .st9 {
        fill: #3f3f3f;
      }

      .st2, .st3 {
        stroke-width: 4px;
      }

      .st10 {
        fill: #cf4f8c;
      }

      .st3, .st4 {
        stroke: #000;
      }

      .st8 {
        fill: #00ff3c;
      }

      .st7 {
        fill: #fff;
      }
    </style>
  </defs>
  <path class="st8" d="M50.4,64H13.8c-7.6,0-13.8-6.2-13.8-13.7V13.7C0,6.2,6.2,0,13.7,0h36.6c7.5,0,13.7,6.2,13.7,13.7v36.6c0,7.5-6.2,13.7-13.7,13.7h.1Z"/>
  <g>
    <path class="st6" d="M3.2,65.2c-1.8,0-3.2-1.4-3.2-3.2v-2.3c0,1.8,1.4,3.2,3.2,3.2h57.6c1.8,0,3.2-1.4,3.2-3.2v2.3c0,1.8-1.4,3.2-3.2,3.2H3.2Z"/>
    <path class="st5" d="M32,0H14.6C6.5,0,0,6.5,0,14.6v17.4h32V0Z"/>
    <path class="st10" d="M32,0h17.5c8,0,14.5,6.5,14.5,14.5v17.5h-32V0Z"/>
    <path class="st0" d="M32,64H14.7c-8.1,0-14.7-6.6-14.7-14.7v-17.4h32v32Z"/>
    <path class="st5" d="M32,64h17.3c8.1,0,14.7-6.6,14.7-14.7v-17.3h-32v32Z"/>
    <path class="st7" d="M3.2,0C1.4,0,0,1.4,0,3.2v1.1C0,2.6,1.4,1.1,3.2,1.1h57.6c1.8,0,3.2,1.4,3.2,3.2v-1.1c0-1.8-1.4-3.2-3.2-3.2H3.2Z"/>
    <rect class="st9" x="9.1" y="9.1" width="45.7" height="45.7"/>
    <path class="st4" d="M16,49.2h18.3"/>
    <path class="st1" d="M16,48h18.3"/>
    <path class="st3" d="M25.1,35.4l-4.6-6.9M16,26.3s9.1,1.1,9.1-4.6-9.1-4.6-9.1-4.6M16,35.4v-18.3"/>
    <path class="st2" d="M25.1,34.3l-4.6-6.9M16,25.2s9.1,1.1,9.1-4.6-9.1-4.6-9.1-4.6M16,34.3v-18.3"/>
    <path class="st4" d="M32,30.9h9.1M36.6,35.4v-9.1"/>
    <path class="st1" d="M32,29.7h9.1M36.6,34.3v-9.1"/>
    <path class="st4" d="M38.9,19.4h9.1M43.4,24v-9.1"/>
    <path class="st1" d="M38.9,18.3h9.1M43.4,22.9v-9.1"/>
  </g>
</svg>