<?xml version="1.0" encoding="UTF-8"?>
<svg id="_图层_1" xmlns="http://www.w3.org/2000/svg" version="1.1" viewBox="0 0 64 64" width="16" height="16">
  <!-- Generator: Adobe Illustrator 29.0.1, SVG Export Plug-In . SVG Version: 2.1.0 Build 192)  -->
  <defs>
    <style>
      .st0, .st1, .st2, .st3, .st4, .st5 {
        isolation: isolate;
      }

      .st0, .st1, .st6, .st7 {
        display: none;
      }

      .st0, .st3, .st5 {
        opacity: .2;
      }

      .st1, .st8, .st5 {
        fill: #fff;
      }

      .st1, .st2 {
        opacity: .1;
      }

      .st9 {
        fill: #3989da;
      }

      .st10 {
        fill: #20aa73;
      }

      .st4 {
        opacity: .5;
      }

      .st11 {
        fill: #3056a1;
      }

      .st7, .st12 {
        fill: #e4e4e4;
      }
    </style>
  </defs>
  <path class="st12" d="M50.4,64H13.8c-7.6,0-13.8-6.2-13.8-13.7V13.7C0,6.2,6.2,0,13.7,0h36.5c7.5,0,13.7,6.2,13.7,13.7v36.6c0,7.5-6.2,13.7-13.7,13.7h.1Z"/>
  <g class="st6">
    <g>
      <circle class="st8" cx="32.1" cy="31.5" r="26.1"/>
      <polygon class="st2" points="19.1 22.1 26 26.7 19.1 31.3 19.1 38.3 36.5 26.7 19.1 15.1 19.1 22.1"/>
      <polygon class="st10" points="36.5 25.7 19.1 14.1 19.1 21.1 26 25.7 19.1 30.3 19.1 37.3 36.5 25.7"/>
      <polygon class="st2" points="45.1 49.9 45.1 42.9 38.3 38.3 45.1 33.7 45.1 26.7 27.7 38.3 45.1 49.9"/>
      <polygon class="st9" points="45.1 25.7 27.7 37.3 45.1 48.9 45.1 41.9 38.3 37.3 45.1 32.7 45.1 25.7"/>
      <path class="st3" d="M57.5,18.5l-4.9,3.2c1.8,3.3,2.7,7,2.7,10.8,0,12.8-10.4,23.2-23.2,23.2h0c-6.9,0-13.5-3.1-17.9-8.4l-4.9,3.2c5.3,6.7,13.5,11,22.7,11,16,0,29-13,29-29s-1.3-9.8-3.6-14Z"/>
      <path class="st10" d="M57.5,17.5l-4.9,3.2c1.8,3.3,2.7,7,2.7,10.8,0,12.8-10.4,23.2-23.2,23.2h0c-6.9,0-13.5-3.1-17.9-8.4l-4.9,3.2c5.3,6.7,13.5,11,22.7,11,16,0,29-13,29-29s-1.3-9.8-3.6-14Z"/>
      <path class="st3" d="M32.1,3.5C16.2,3.5,3.1,16.5,3.1,32.5s1.1,9.2,3.1,13.1l4.9-3.3c-1.5-3.1-2.2-6.4-2.2-9.9,0-12.8,10.4-23.2,23.2-23.2,6.6,0,12.8,2.8,17.2,7.7l4.9-3.3c-5.3-6.3-13.2-10.2-22.1-10.2Z"/>
      <path class="st9" d="M32.1,2.5C16.2,2.5,3.1,15.5,3.1,31.5s1.1,9.2,3.1,13.1l4.9-3.3c-1.5-3.1-2.2-6.4-2.2-9.9,0-12.8,10.4-23.2,23.2-23.2,6.6,0,12.8,2.8,17.2,7.7l4.9-3.3c-5.3-6.3-13.2-10.2-22.1-10.2Z"/>
      <path class="st5" d="M32.1,2.5C16.2,2.5,3.1,15.5,3.1,31.5s0,.3,0,.5c.3-15.7,13.2-28.5,29-28.5s16.2,3.7,21.5,9.6l.6-.4c-5.3-6.3-13.2-10.2-22.1-10.2ZM9,32.2c0,.1,0,.2,0,.3,0,3.1.7,6.2,1.9,9.1l.3-.2c-1.4-2.9-2.1-6-2.2-9.2Z"/>
    </g>
  </g>
  <g>
    <path class="st0" d="M0,54.2v2.1c0,2.4,2.1,4.3,4.7,4.3h42.1c2.6,0,4.7-1.9,4.7-4.3v-2.1c0,2.4-2.1,4.3-4.7,4.3H4.7c-2.6,0-4.7-1.9-4.7-4.3Z"/>
    <path class="st7" d="M51.5,55.3V4.3c0-2.3-2.1-4.3-4.7-4.3H4.7C2.1,0,0,1.9,0,4.3v51c0,2.3,2.1,4.3,4.7,4.3h42.1c2.6,0,4.7-1.9,4.7-4.3Z"/>
    <path class="st4" d="M25.8,8.5c-9.1,0-16.4,6.7-16.4,14.9v14.9h16.4c9.1,0,16.4-6.7,16.4-14.9s-7.3-14.9-16.4-14.9ZM25.8,14.9c5.2,0,9.4,3.8,9.4,8.5s-4.2,8.5-9.4,8.5-9.4-3.8-9.4-8.5,4.2-8.5,9.4-8.5Z"/>
    <path class="st1" d="M4.7,0C2.1,0,0,1.9,0,4.3v1.1C0,3,2.1,1.1,4.7,1.1h42.1c2.6,0,4.7,1.9,4.7,4.3v-1.1c0-2.4-2.1-4.3-4.7-4.3H4.7Z"/>
    <path class="st3" d="M63.2,44.5c-.5,9-8.7,16.1-18.7,16.1-9.8,0-18-6.9-18.7-15.8,0,.3,0,.6,0,.9,0,9.4,8.4,17,18.7,17s18.7-7.6,18.7-17c0-.4,0-.8,0-1.2h0Z"/>
    <ellipse class="st11" cx="44.5" cy="44.6" rx="18.7" ry="17"/>
    <path class="st8" d="M35.1,44.6c0,4.7,4.2,8.5,9.4,8.5s9.3-3.7,9.4-8.4c0,0,0,0,0-.1,0-.8-.7-1.4-1.6-1.4s-1.6.6-1.6,1.4c0,3.1-2.8,5.7-6.2,5.7s-6.2-2.5-6.2-5.7,2.8-5.7,6.2-5.7v2.8l6.2-4.3-6.2-4.3v2.8c-5.2,0-9.4,3.8-9.4,8.5h0Z"/>
  </g>
</svg>