<?xml version="1.0" encoding="UTF-8"?>
<svg id="_图层_1" xmlns="http://www.w3.org/2000/svg" version="1.1" viewBox="0 0 64 64" width="16" height="16">
  <!-- Generator: Adobe Illustrator 29.0.1, SVG Export Plug-In . SVG Version: 2.1.0 Build 192)  -->
  <defs>
    <style>
      .st0 {
        fill: #ffdd4c;
      }

      .st1 {
        fill: #45792a;
      }

      .st2 {
        fill: #3f3f3f;
      }

      .st3 {
        fill: #e33939;
      }

      .st4, .st5 {
        fill: #fff;
      }

      .st6 {
        fill: #8e8e8e;
      }

      .st7 {
        opacity: .1;
      }

      .st7, .st8, .st5 {
        isolation: isolate;
      }

      .st8, .st5 {
        opacity: .2;
      }

      .st9, .st5, .st10 {
        display: none;
      }

      .st11 {
        fill: #e4e4e4;
      }

      .st10 {
        fill: #4f4f4f;
      }
    </style>
  </defs>
  <path class="st10" d="M50.4,64H13.8c-7.6,0-13.8-6.2-13.8-13.7V13.7C0,6.2,6.2,0,13.7,0h36.5c7.5,0,13.7,6.2,13.7,13.7v36.6c0,7.5-6.2,13.7-13.7,13.7h.1Z"/>
  <g>
    <g class="st9">
      <path class="st8" d="M0,33.2v28.8c0,1.8,1.4,3.2,3.2,3.2h57.6c1.8,0,3.2-1.4,3.2-3.2v-28.8H0Z"/>
    </g>
    <path class="st6" d="M32,0H13.9C6.2,0,0,6.2,0,13.9v18.1h32V0Z"/>
    <path class="st11" d="M32,0h18.3c7.6,0,13.7,6.1,13.7,13.7v18.3h-32V0Z"/>
    <path class="st1" d="M32,64H14.5c-8,0-14.5-6.5-14.5-14.5v-17.5h32v32Z"/>
    <path class="st6" d="M32,64h17.8c7.8,0,14.2-6.4,14.2-14.2v-17.8h-32v32Z"/>
    <ellipse class="st7" cx="16" cy="17.2" rx="9.1" ry="9.1"/>
    <ellipse class="st4" cx="16" cy="16" rx="9.1" ry="9.1"/>
    <path class="st7" d="M16,37.7l5.7,11.4,5.7,11.4H4.6l5.7-11.4,5.7-11.4Z"/>
    <path class="st0" d="M16,36.6l5.7,11.4,5.7,11.4H4.6l5.7-11.4,5.7-11.4Z"/>
    <path class="st7" d="M45.7,8v6.9h-6.9v4.6h6.9v6.9h4.6v-6.9h6.9v-4.6h-6.9v-6.9h-4.6Z"/>
    <path class="st2" d="M45.7,6.9v6.9h-6.9v4.6h6.9v6.9h4.6v-6.9h6.9v-4.6h-6.9v-6.9h-4.6Z"/>
    <rect class="st7" x="52.6" y="42.3" width="4.6" height="18.3"/>
    <rect class="st2" x="52.6" y="41.2" width="4.6" height="18.3"/>
    <path class="st7" d="M36.6,45.7l10.3,4,10.3,4v-16l-10.3,4-10.3,4Z"/>
    <path class="st3" d="M36.6,44.6l10.3,4,10.3,4v-16l-10.3,4-10.3,4Z"/>
    <path class="st5" d="M3.2,0C1.4,0,0,1.4,0,3.2v1.1C0,2.6,1.4,1.1,3.2,1.1h57.6c1.8,0,3.2,1.4,3.2,3.2v-1.1c0-1.8-1.4-3.2-3.2-3.2H3.2Z"/>
  </g>
</svg>