<?xml version="1.0" encoding="UTF-8"?>
<svg id="_图层_1" xmlns="http://www.w3.org/2000/svg" version="1.1" viewBox="0 0 64 64" width="16" height="16">
  <!-- Generator: Adobe Illustrator 29.0.1, SVG Export Plug-In . SVG Version: 2.1.0 Build 192)  -->
  <defs>
    <style>
      .st0 {
        fill: #0169c9;
      }

      .st1 {
        fill: #fdca01;
      }

      .st2, .st3, .st4, .st5 {
        display: none;
      }

      .st2, .st6, .st7, .st8, .st5 {
        isolation: isolate;
      }

      .st2, .st7, .st8, .st5 {
        opacity: .2;
      }

      .st9 {
        fill: #3f3f3f;
      }

      .st10, .st8, .st5 {
        fill: #fff;
      }

      .st3 {
        fill: #1493ca;
      }

      .st6 {
        opacity: .1;
      }

      .st11 {
        fill: #e51ae5;
      }
    </style>
  </defs>
  <path class="st3" d="M50.4,64H13.8c-7.6,0-13.8-6.2-13.8-13.7V13.7C0,6.2,6.2,0,13.7,0h36.6c7.5,0,13.7,6.2,13.7,13.7v36.6c0,7.5-6.2,13.7-13.7,13.7h.1Z"/>
  <g class="st4">
    <path class="st2" d="M3.2,1.1h57.6c1.8,0,3.2,1.4,3.2,3.2v57.5c0,1.8-1.4,3.2-3.2,3.2H3.2c-1.8,0-3.2-1.4-3.2-3.2V4.3C0,2.6,1.4,1.1,3.2,1.1Z"/>
    <path class="st3" d="M3.2,0h57.6c1.8,0,3.2,1.4,3.2,3.2v57.5c0,1.8-1.4,3.2-3.2,3.2H3.2c-1.8,0-3.2-1.4-3.2-3.2V3.2C0,1.4,1.4,0,3.2,0Z"/>
    <path class="st5" d="M3.2,0C1.4,0,0,1.4,0,3.2v1.1C0,2.6,1.4,1.1,3.2,1.1h57.6c1.8,0,3.2,1.4,3.2,3.2v-1.1c0-1.8-1.4-3.2-3.2-3.2H3.2Z"/>
    <path class="st7" d="M32,12.6c-6.4,0-11.4,5.2-11.4,11.7v5.4h-2.5c-1.1,0-2,1.1-2,2.2v19.7c0,1.1.9,2.1,2,2.1h27.9c1.1,0,2-.9,2-2.1v-19.7c0-1.1-.9-2.3-2-2.2h-2.5v-5.4c0-6.5-5-11.7-11.4-11.7ZM32,17.1c4,0,6.9,3.1,6.9,7.2v5.4h-13.7v-5.4c0-4.1,2.8-7.2,6.9-7.2ZM32,33.1c3.2,0,5.7,2.6,5.7,5.7,0,2.3-1.3,4.3-3.4,5.2v3.9c0,1.3-1,2.3-2.3,2.3s-2.3-1-2.3-2.3v-3.9c-2.1-.9-3.4-3-3.4-5.2,0-3.2,2.6-5.7,5.7-5.7Z"/>
    <path class="st10" d="M32,11.4c-6.4,0-11.4,5.2-11.4,11.7v5.4h-2.5c-1.1,0-2,1.1-2,2.2v19.7c0,1.1.9,2.1,2,2.1h27.9c1.1,0,2-.9,2-2.1v-19.7c0-1.1-.9-2.3-2-2.2h-2.5v-5.4c0-6.5-5-11.7-11.4-11.7ZM32,16c4,0,6.9,3.1,6.9,7.2v5.4h-13.7v-5.4c0-4.1,2.8-7.2,6.9-7.2ZM32,32c3.2,0,5.7,2.6,5.7,5.7,0,2.3-1.3,4.3-3.4,5.2v3.9c0,1.3-1,2.3-2.3,2.3s-2.3-1-2.3-2.3v-3.9c-2.1-.9-3.4-3-3.4-5.2,0-3.2,2.6-5.7,5.7-5.7Z"/>
  </g>
  <g>
    <path class="st2" d="M19.6,65h43.1c.7,0,1.3-.7,1.3-1.5v-15.3c0-.8-.6-1.5-1.3-1.5H19.6c-.7,0-1.3.7-1.3,1.5v15.3c0,.8.6,1.5,1.3,1.5Z"/>
    <path class="st2" d="M18.3,20.7v43c0,.7-.7,1.3-1.5,1.3H1.5C.7,65,0,64.4,0,63.7V20.7C0,20,.7,19.4,1.5,19.4h15.3c.8,0,1.5.6,1.5,1.3Z"/>
    <path class="st9" d="M18.3,19.5v43c0,.7-.7,1.3-1.5,1.3h-3C4.7,64-.1,55.5-.2,51.2L0,19.5C0,18.8.7,18.2,1.5,18.2h15.3c.8,0,1.5.6,1.5,1.3Z"/>
    <path class="st7" d="M1.3,19.4h43.1c.7,0,1.3-.7,1.3-1.5V2.6c0-.8-.6-1.5-1.3-1.5l-36,.2C6.6,1.1,0,8.2,0,11.7v6.2c0,.8.6,1.5,1.3,1.5Z"/>
    <path class="st0" d="M1.3,18.2h43.1c.7,0,1.3-.7,1.3-1.5V1.5c0-.8-.6-1.5-1.3-1.5H12.4C5,0,0,9.1,0,12.7v4.1c0,.8.6,1.5,1.3,1.5Z"/>
    <path class="st1" d="M19.6,63.9h30.8c9,0,13.7-8.1,13.7-12.7l-.2-4c0-.8-.6-1.5-1.3-1.5H19.6c-.7,0-1.3.7-1.3,1.5v15.3c0,.8.6,1.5,1.3,1.5Z"/>
    <path class="st8" d="M19.6,45.6c-.7,0-1.3.7-1.3,1.5v1.1c0-.8.6-1.5,1.3-1.5h27.6c-.8,0-1.4-.5-1.5-1.1h-26.1Z"/>
    <path class="st6" d="M63.9,14.5v43c0-11.4-.6-10.8-1.4-10.8h-15.3c-.8,0-1.5-.6-1.5-1.3V2.4c0-.7.7-1.3,1.5-1.3h6.8c.8.1,9.7,4.8,10,13.4Z"/>
    <path class="st11" d="M64,11.9v32.4c0,.7-.7,1.3-1.5,1.3h-15.3c-.8,0-1.5-.6-1.5-1.3V1.3c0-.7.7-1.3,1.5-1.3h3.7c6,.1,13.1,6.5,13.1,11.9Z"/>
    <path class="st5" d="M1.3,0C.6,0,0,.7,0,1.5v1.1C0,1.8.6,1.1,1.3,1.1h43.1c.7,0,1.3.7,1.3,1.5v-1.1c0-.8-.6-1.5-1.3-1.5H1.3Z"/>
    <path class="st5" d="M47.2,0c-.8,0-1.5.6-1.5,1.3v1.1c0-.7.7-1.3,1.5-1.3h15.3c.8,0,1.5.6,1.5,1.3v-1.1c0-.7-.7-1.3-1.5-1.3h-15.3Z"/>
  </g>
</svg>