<?xml version="1.0" encoding="UTF-8" standalone="no"?>
<svg
   id="_图层_1"
   version="1.1"
   viewBox="0 0 64 64" width="16" height="16"
   sodipodi:docname="sonobus.svg"
   xml:space="preserve"
   inkscape:version="1.4 (e7c3feb100, 2024-10-09)"
   xmlns:inkscape="http://www.inkscape.org/namespaces/inkscape"
   xmlns:sodipodi="http://sodipodi.sourceforge.net/DTD/sodipodi-0.dtd"
   xmlns="http://www.w3.org/2000/svg"
   xmlns:svg="http://www.w3.org/2000/svg"><sodipodi:namedview
     id="namedview26"
     pagecolor="#505050"
     bordercolor="#eeeeee"
     borderopacity="1"
     inkscape:showpageshadow="0"
     inkscape:pageopacity="0"
     inkscape:pagecheckerboard="0"
     inkscape:deskcolor="#505050"
     inkscape:zoom="8.453125"
     inkscape:cx="32"
     inkscape:cy="32"
     inkscape:window-width="1421"
     inkscape:window-height="796"
     inkscape:window-x="739"
     inkscape:window-y="37"
     inkscape:window-maximized="0"
     inkscape:current-layer="_图层_1" /><!-- Generator: Adobe Illustrator 29.0.1, SVG Export Plug-In . SVG Version: 2.1.0 Build 192)  --><defs
     id="defs6"><style
       id="style1">
      .st0 {
        fill-opacity: .5;
      }

      .st0, .st1, .st2, .st3, .st4, .st5, .st6, .st7 {
        fill: #fff;
      }

      .st8 {
        fill: #133c9a;
      }

      .st2, .st9 {
        display: none;
      }

      .st3 {
        fill-opacity: .2;
      }

      .st4 {
        fill-opacity: .9;
      }

      .st10 {
        fill: #3370ff;
      }

      .st11 {
        fill: url(#_未命名的渐变_3);
      }

      .st12 {
        fill: url(#_未命名的渐变);
      }

      .st5 {
        fill-opacity: .3;
      }

      .st6 {
        fill-opacity: 0;
      }

      .st7 {
        fill-opacity: .7;
      }

      .st13 {
        fill: #00d6b9;
      }

      .st14 {
        fill: url(#_未命名的渐变_2);
      }
    </style><radialGradient
       id="_未命名的渐变"
       data-name="未命名的渐变"
       cx="123.9"
       cy="-40.2"
       fx="123.9"
       fy="-40.2"
       r="59.4"
       gradientTransform="translate(-26.8 25.5) scale(.6 -.7)"
       gradientUnits="userSpaceOnUse"><stop
         offset="0"
         stop-color="#db202e"
         id="stop1" /><stop
         offset="1"
         stop-color="#e01b24"
         id="stop2" /></radialGradient><radialGradient
       id="_未命名的渐变_2"
       data-name="未命名的渐变 2"
       cx="67.6"
       cy="26.8"
       fx="67.6"
       fy="26.8"
       r="105.2"
       gradientTransform="translate(-26.6 25.3) scale(.6 -.7)"
       gradientUnits="userSpaceOnUse"><stop
         offset="0"
         stop-color="#ffb648"
         id="stop3" /><stop
         offset="1"
         stop-color="#ff7800"
         stop-opacity="0"
         id="stop4" /></radialGradient><radialGradient
       id="_未命名的渐变_3"
       data-name="未命名的渐变 3"
       cx="61.7"
       cy="18.6"
       fx="61.7"
       fy="18.6"
       r="68"
       gradientTransform="translate(-26.8 25.8) scale(.6 -.7)"
       gradientUnits="userSpaceOnUse"><stop
         offset="0"
         stop-color="#c64600"
         id="stop5" /><stop
         offset="1"
         stop-color="#a51d2d"
         id="stop6" /></radialGradient></defs><path
     class="st1"
     d="M47.5,64.1H13.8c-7.6,0-13.8-6.3-13.8-13.8V13.7C0,6.2,6.2,0,13.7,0h36.6c7.5,0,13.7,6.2,13.7,13.7v36.6c0,7.5-6.2,13.7-13.7,13.7h-2.9.1Z"
     id="path6"
     style="fill:#f2f2f2;fill-opacity:1" /><g
     id="g27"
     transform="translate(0,-0.5)"><path
       style="opacity:0.2"
       d="m 53.546876,11.453125 -12,11.999999 A 22,22 0 0 1 48,39 22,22 0 0 1 46.34375,47.335938 22,22 0 0 0 60,27 22,22 0 0 0 53.546876,11.453125 Z"
       id="path1" /><path
       style="opacity:0.2"
       d="m 22.453124,42.546876 -11.999999,12 A 22,22 0 0 0 26,61 22,22 0 0 0 46.34375,47.335938 22,22 0 0 1 38,49 22,22 0 0 1 22.453124,42.546876 Z"
       id="path2" /><path
       style="fill:#d348d3"
       d="m 22.453124,41.546876 -11.999999,12 A 22,22 0 0 0 26,60 22,22 0 0 0 46.34375,46.335938 22,22 0 0 1 38,48 22,22 0 0 1 22.453124,41.546876 Z"
       id="path3-7" /><path
       style="fill:#31a9fa"
       d="m 53.546876,10.453125 -12,11.999999 A 22,22 0 0 1 48,38 22,22 0 0 1 46.34375,46.335938 22,22 0 0 0 60,26 22,22 0 0 0 53.546876,10.453125 Z"
       id="path4-5" /><path
       style="opacity:0.2"
       d="M 17.65625,18.664062 A 22,22 0 0 0 4,39 22,22 0 0 0 10.453125,54.546876 l 11.999999,-12 A 22,22 0 0 1 16,27 22,22 0 0 1 17.65625,18.664062 Z"
       id="path5" /><path
       style="fill:#31a9fa"
       d="M 17.65625,17.664062 A 22,22 0 0 0 4,38 22,22 0 0 0 10.453125,53.546876 l 11.999999,-12 A 22,22 0 0 1 16,26 22,22 0 0 1 17.65625,17.664062 Z"
       id="path6-3" /><path
       style="opacity:0.2"
       d="M 38,5 A 22,22 0 0 0 17.65625,18.664062 22,22 0 0 1 26,17 22,22 0 0 1 41.546876,23.453124 l 12,-11.999999 A 22,22 0 0 0 38,5 Z"
       id="path7" /><path
       style="fill:#d348d3"
       d="M 38,4 A 22,22 0 0 0 17.65625,17.664062 22,22 0 0 1 26,16 22,22 0 0 1 41.546876,22.453124 l 12,-11.999999 A 22,22 0 0 0 38,4 Z"
       id="path8" /><path
       style="opacity:0.2;fill:#ffffff"
       d="M 38,4 A 22,22 0 0 0 17.65625,17.664062 22,22 0 0 1 18.203125,17.46875 22,22 0 0 1 38,5 22,22 0 0 1 53.546875,11.453125 22,22 0 0 1 59.976562,26.544922 22,22 0 0 0 60,26 22,22 0 0 0 53.546875,10.453125 22,22 0 0 0 38,4 Z M 17.65625,17.664062 A 22,22 0 0 0 4,38 22,22 0 0 0 4.0234375,38.443359 22,22 0 0 1 17.242188,18.859375 22,22 0 0 1 17.65625,17.664062 Z m -1.609375,9.417969 A 22,22 0 0 0 16,28 22,22 0 0 0 16.02539,28.501953 22,22 0 0 1 16.04687,28.082031 22,22 0 0 0 22.45312,42.546875 22,22 0 0 0 38,49 22,22 0 0 0 45.763672,47.541016 22,22 0 0 0 46.34375,46.335938 22,22 0 0 1 38,48 22,22 0 0 1 22.453125,41.546875 22,22 0 0 1 16.046875,27.082031 Z M 46.34375,46.335938 a 22,22 0 0 0 0.4375,-0.205079 22,22 0 0 0 1.171875,-6.21289 22,22 0 0 1 0.02539,0.591797 A 22,22 0 0 0 48,40 22,22 0 0 0 47.953125,38.917969 22,22 0 0 1 46.34375,46.335938 Z"
       id="path9" /></g></svg>
