<?xml version="1.0" encoding="UTF-8"?>
<svg id="_图层_1" xmlns="http://www.w3.org/2000/svg" version="1.1" viewBox="0 0 64 64" width="16" height="16">
  <!-- Generator: Adobe Illustrator 29.0.1, SVG Export Plug-In . SVG Version: 2.1.0 Build 192)  -->
  <defs>
    <style>
      .st0 {
        fill: #cd5252;
      }

      .st1 {
        fill: #ff7d2c;
      }

      .st2 {
        fill: #4f4f4f;
      }

      .st3 {
        fill: #ffbc66;
      }

      .st3, .st4, .st5, .st6, .st7, .st8, .st9, .st10, .st11 {
        display: none;
      }

      .st4, .st5, .st12, .st13, .st14, .st15, .st11, .st16, .st17 {
        isolation: isolate;
      }

      .st4, .st18, .st13, .st15, .st11, .st16 {
        opacity: .2;
      }

      .st5, .st19, .st15, .st11, .st17 {
        fill: #fff;
      }

      .st5, .st12, .st17 {
        opacity: .1;
      }

      .st20 {
        fill: #3f3f3f;
      }

      .st6 {
        fill: #7fa9ff;
      }

      .st7 {
        fill: #1ebfbf;
      }

      .st21 {
        fill: #303030;
      }

      .st8 {
        fill: #2d6abe;
      }

      .st22 {
        fill: #3a8eed;
      }

      .st9, .st23 {
        fill: #28b4e4;
      }

      .st24 {
        fill: #ed3312;
      }

      .st14 {
        opacity: .5;
      }

      .st25 {
        fill: #353535;
      }

      .st26 {
        fill: #adadad;
      }

      .st27 {
        fill: #f14f4f;
      }

      .st16 {
        fill: none;
        stroke: #000;
        stroke-linecap: round;
        stroke-width: 5.6px;
      }

      .st28 {
        fill: #ffd32c;
      }

      .st29 {
        fill: #f5432a;
      }
    </style>
  </defs>
  <path class="st23" d="M50.4,64H13.8c-7.6,0-13.8-6.2-13.8-13.7V13.7C0,6.2,6.2,0,13.7,0h36.6c7.5,0,13.7,6.2,13.7,13.7v36.6c0,7.5-6.2,13.7-13.7,13.7h.1Z"/>
  <g class="st10">
    <path class="st13" d="M7.4,49.6v1.6c0,1.2,1.1,2.2,2.4,2.2h2.3c1.3,0,2.4-1,2.4-2.2v-1.6c0,1.2-1.1,2.2-2.4,2.2h-2.3c-1.3,0-2.4-1-2.4-2.2ZM50.6,49.6v1.6c0,1.2,1.1,2.2,2.4,2.2h2.3c1.3,0,2.4-1,2.4-2.2v-1.6c0,1.2-1.1,2.2-2.4,2.2h-2.3c-1.3,0-2.4-1-2.4-2.2h0Z"/>
    <path class="st21" d="M9.8,39.6c-1.3,0-2.4,1-2.4,2.2v8.7c0,1.2,1.1,2.2,2.4,2.2h2.3c1.3,0,2.4-1,2.4-2.2v-8.7c0-1.2-1.1-2.2-2.4-2.2,0,0-2.3,0-2.3,0ZM53,39.6c-1.3,0-2.4,1-2.4,2.2v8.7c0,1.2,1.1,2.2,2.4,2.2h2.3c1.3,0,2.4-1,2.4-2.2v-8.7c0-1.2-1.1-2.2-2.4-2.2h-2.3,0Z"/>
    <path class="st2" d="M32.6,6.9c-9.3,0-16.8,6.7-16.8,14.9s.2,2.8.7,4.2c0,0-2.6,8.3-1.7,12.5.2,1.2.7,2.4,1.4,3.4,2.6-3.1,9.1-5.2,16.5-5.2,7.4,0,13.9,2.1,16.5,5.2.7-1.1,1.2-2.2,1.4-3.4.8-4.1-1.7-12.5-1.7-12.5.4-1.3.7-2.7.7-4.2,0-8.2-7.5-14.9-16.8-14.9h0Z"/>
    <ellipse class="st13" cx="23.6" cy="19.1" rx="3.6" ry="3.3"/>
    <ellipse class="st19" cx="23.6" cy="18.3" rx="3.6" ry="3.3"/>
    <ellipse class="st13" cx="41.6" cy="19.1" rx="3.6" ry="3.3"/>
    <ellipse class="st19" cx="41.6" cy="18.3" rx="3.6" ry="3.3"/>
    <ellipse class="st19" cx="32.6" cy="35.5" rx="12.6" ry="12.6"/>
    <ellipse class="st21" cx="23.6" cy="18.3" rx="1.8" ry="1.6"/>
    <ellipse class="st21" cx="41.6" cy="18.3" rx="1.8" ry="1.6"/>
    <path class="st13" d="M29,21.6h7.2c-.6,5-3.6,9.8-3.6,9.8,0,0-3.6-5.7-3.6-9.8Z"/>
    <path class="st0" d="M29,19.9h7.2c-.6,5-3.6,9.8-3.6,9.8,0,0-3.6-5.7-3.6-9.8Z"/>
    <path class="st21" d="M32.6,29.8c-4,0-7.2,2.9-7.2,6.5s3.2,6.5,7.2,6.5,7.2-2.9,7.2-6.5-3.2-6.5-7.2-6.5ZM32.6,32.4c1,0,2,.3,2.8.9l-2.8,1.5-2.8-1.5c.8-.6,1.8-.9,2.8-.9h0ZM36.8,35.6c0,.2,0,.5,0,.7,0,1.7-1.2,3.1-2.9,3.7v-2.9l2.8-1.5h0ZM28.3,35.6l2.8,1.5v2.9c-1.7-.6-2.9-2-2.9-3.7,0-.2,0-.5,0-.7h0Z"/>
    <path class="st13" d="M14.7,44.2c-.1.3-.2.7-.2,1.1h1.1s-.6-.5-.9-1.1h0ZM50.4,44.2c-.3.6-.9,1.1-.9,1.1h1.1c0-.4,0-.7-.2-1.1h0ZM9.2,50.2v1.6h11.1c3.3,1.5,7.7,1.6,12.3,1.6,4.6,0,9-.1,12.3-1.6h11.1v-1.6h-11.1c-3.3,1.5-7.7,1.6-12.3,1.6-4.6,0-9-.1-12.3-1.6h-11.1,0Z"/>
    <path class="st29" d="M32.6,36.3c-9.7,0-18,3.7-18,8.2,0,.8,1.1,1.6,1.1,1.6h-6.5v4.9h11.1c3.3,1.5,7.7,1.6,12.3,1.6,4.6,0,9-.1,12.3-1.6h11.1v-4.9h-6.5s1.1-.8,1.1-1.6c0-4.5-8.3-8.2-18-8.2Z"/>
    <path class="st2" d="M16.9,26.2c1.7-1.6,6.2-1.3,10,.7s5.5,4.8,3.7,6.4-6.2,1.3-10-.7-5.5-4.8-3.7-6.4Z"/>
    <path class="st2" d="M48.3,26.2c-1.7-1.6-6.2-1.3-10,.7s-5.5,4.8-3.7,6.4,6.2,1.3,10-.7,5.5-4.8,3.7-6.4Z"/>
    <ellipse class="st13" cx="22.7" cy="44.6" rx="2.7" ry="2.3"/>
    <ellipse class="st19" cx="22.7" cy="43.8" rx="2.7" ry="2.3"/>
    <ellipse class="st13" cx="42.5" cy="44.6" rx="2.7" ry="2.3"/>
    <ellipse class="st19" cx="42.5" cy="43.8" rx="2.7" ry="2.3"/>
    <path class="st14" d="M32,41.2c-.3,0-.6.7-.6,1.6v3.3c0,.9.3,1.6.6,1.6s.6-.7.6-1.6v-3.3c0-.9-.3-1.6-.6-1.6h0ZM29.6,42.3c-.3,0-.6.5-.6,1.1v2.2c0,.6.3,1.1.6,1.1s.6-.5.6-1.1v-2.2c0-.6-.3-1.1-.6-1.1h0Z"/>
    <path class="st14" d="M33.2,41.2c.3,0,.6.7.6,1.6v3.3c0,.9-.3,1.6-.6,1.6s-.6-.7-.6-1.6v-3.3c0-.9.3-1.6.6-1.6h0ZM35.6,42.3c.3,0,.6.5.6,1.1v2.2c0,.6-.3,1.1-.6,1.1s-.6-.5-.6-1.1v-2.2c0-.6.3-1.1.6-1.1h0Z"/>
    <path class="st15" d="M32.6,36.3c-9.7,0-18,3.7-18,8.2,0,0,0,.2,0,.3.6-4.3,8.6-7.6,17.9-7.6s17.3,3.4,18,7.6c0,0,0-.2,0-.3,0-4.5-8.3-8.2-18-8.2h0Z"/>
    <path class="st15" d="M9.2,46.1v.8h6.5s-.4-.4-.8-.8h-5.7Z"/>
    <path class="st15" d="M50.2,46.1c-.3.5-.8.8-.8.8h6.5v-.8h-5.7Z"/>
    <path class="st17" d="M53,39.6c-1.3,0-2.4,1-2.4,2.2v.8c0-1.2,1.1-2.2,2.4-2.2h2.3c1.3,0,2.4,1,2.4,2.2v-.8c0-1.2-1.1-2.2-2.4-2.2h-2.3ZM9.8,39.6c-1.3,0-2.4,1-2.4,2.2v.8c0-1.2,1.1-2.2,2.4-2.2h2.3c1.3,0,2.4,1,2.4,2.2v-.8c0-1.2-1.1-2.2-2.4-2.2h-2.3Z"/>
    <path class="st17" d="M32.6,6.9c-9.3,0-16.8,6.7-16.8,14.9s0,.3,0,.5c.2-8.1,7.7-14.6,16.8-14.6s16.6,6.5,16.8,14.6c0-.2,0-.3,0-.5,0-8.2-7.5-14.9-16.8-14.9ZM48.8,26.4c0,.1,0,.3-.1.4,0,0,1.8,5.8,1.9,10.1.1-4-1.5-9.6-1.8-10.5ZM16.3,26.4c-.3,1-1.9,6.5-1.8,10.5.1-4.3,1.9-10.1,1.9-10.1,0-.1,0-.3-.1-.4Z"/>
  </g>
  <g class="st10">
    <path class="st4" d="M47.8,1.1h-17.9c-11.9,0-18.6,6.3-19.9,9.4C4,24.7,0,53,0,56.2s4,7.9,8,7.9,4.6-.2,7.6-1.2c9.3-3.1,20.3-7.1,31.6-11.6,6.9-3.2,16.8-10.8,16.8-18.7V10.6c0-6.3-8.2-9.4-16.2-9.4Z"/>
    <path class="st7" d="M47.8,0h-17.9C17.9,0,11.3,6.3,10,9.4,4,23.6,0,51.9,0,55.1s4,7.9,8,7.9,4.6-.2,7.6-1.2c9.3-3.1,20.3-7.1,31.6-11.6,6.9-3.2,16.8-10.8,16.8-18.7V9.4c0-6.3-8.2-9.4-16.2-9.4Z"/>
    <path class="st13" d="M48.4,13.9c0-.9-.8-1.6-2-1.6-9.1,0-17.9,5.5-17.9,12.6v6.3c0,3.9-4.6,5.8-9.4,5.8s-2,.6-2,1.6v3.6c0,.9.8,1.6,2,1.6,9.1,0,17.9-5.5,17.9-12.6v-6.3c0-3.9,4.6-5.8,9.4-5.8s2-.6,2-1.6v-3.6Z"/>
    <path class="st19" d="M48.4,12.8c0-.9-.8-1.6-2-1.6-9.1,0-17.9,5.5-17.9,12.6v6.3c0,3.9-4.6,5.8-9.4,5.8s-2,.6-2,1.6v3.6c0,.9.8,1.6,2,1.6,9.1,0,17.9-5.5,17.9-12.6v-6.3c0-3.9,4.6-5.8,9.4-5.8s2-.6,2-1.6v-3.6Z"/>
    <path class="st11" d="M29.9,0C17.9,0,11.3,6.3,10,9.4,4,23.6,0,51.9,0,55.1s0,.4,0,.7c.2-4.3,4.1-31.4,9.9-45.2,1.3-3.1,8-9.4,19.9-9.4h17.9c8,0,16.2,3.1,16.2,9.4v-1.1c0-6.3-8.2-9.4-16.2-9.4h-17.9Z"/>
  </g>
  <g class="st10">
    <ellipse class="st4" cx="32" cy="33.1" rx="32" ry="31.9"/>
    <ellipse class="st3" cx="32" cy="31.9" rx="32" ry="31.9"/>
    <path class="st12" d="M48.8,47.1c-4-1.7-7.1-4.1-9.4-7.4-3.8-5.4-6.5-12.9-7.3-21.2,0-.7-.1-1.2-.1-1.2,0,0,0,.6-.1,1.3-1.5,8.6-3.3,16-8.8,22.6-2.2,2.6-5,4.6-8.2,5.9l-.7.3-.2-.2c-1.2-1.5-2.7-4.1-3.3-5.9-2.1-5.7-1.9-11.8.5-17.3,2.9-6.5,8.7-11.3,15.6-12.9,2.2-.5,4.8-.7,6.9-.6,3.2.3,5.7,1,8.5,2.3,4.5,2.2,8.1,5.8,10.3,10.2,1.8,3.5,2.6,7.6,2.4,11.4-.2,4-1.4,7.6-3.4,10.9-.5.8-1.6,2.3-1.7,2.3,0,0-.4-.2-.9-.4h0ZM31.3,16.9c.4,0,.7,0,1.3,0,.9.1,1,0,.7-.4-.4-.7-.6-1.2-.8-2,0-.5-.2-1-.3-1.1-.2-.3-.4-.4-.6-.1-.2.2-.2.5-.5,1.9,0,.4-.2.7-.5,1.1-.5.8-.4.8.6.7h0Z"/>
    <path class="st24" d="M48.8,45.9c-4-1.7-7.1-4.1-9.4-7.4-3.8-5.4-6.5-12.9-7.3-21.2,0-.7-.1-1.2-.1-1.2,0,0,0,.6-.1,1.3-1.5,8.6-3.3,16-8.8,22.6-2.2,2.6-5,4.6-8.2,5.9l-.7.3-.2-.2c-1.2-1.5-2.7-4.1-3.3-5.9-2.1-5.7-1.9-11.8.5-17.3,2.9-6.5,8.7-11.3,15.6-12.9,2.2-.5,4.8-.7,6.9-.6,3.2.3,5.7,1,8.5,2.3,4.5,2.2,8.1,5.8,10.3,10.2,1.8,3.5,2.6,7.6,2.4,11.4-.2,4-1.4,7.6-3.4,10.9-.5.8-1.6,2.3-1.7,2.3,0,0-.4-.2-.9-.4h0ZM31.3,15.7c.4,0,.7,0,1.3,0,.9.1,1,0,.7-.4-.4-.7-.6-1.2-.8-2,0-.5-.2-1-.3-1.1-.2-.3-.4-.4-.6-.1-.2.2-.2.5-.5,1.9,0,.4-.2.7-.5,1.1-.5.8-.4.8.6.7h0Z"/>
    <path class="st11" d="M32,0C14.3,0,0,14.3,0,31.9c0,.2,0,.4,0,.6C.4,15.1,14.6,1.2,32,1.1c17.3,0,31.5,13.8,32,31.1,0,0,0-.2,0-.3C64,14.3,49.7,0,32,0Z"/>
  </g>
  <g class="st10">
    <path class="st4" d="M0,31.9C0,32.3,0,32.7,0,33.1c0,17.6,14.4,31.9,32,31.9s32-14.3,32-31.9,0-.8,0-1.1c-.6,17.1-14.7,30.8-31.9,30.8S.7,49,0,31.9h0Z"/>
    <path class="st6" d="M32,0C14.4,0,0,14.3,0,31.9s14.4,31.9,32,31.9,32-14.3,32-31.9S49.6,0,32,0Z"/>
    <path class="st12" d="M32,10.3c-12.6,0-22.9,10.2-22.9,22.8h0c0,12.6,10.2,22.8,22.9,22.8h0c12.6,0,22.9-10.2,22.9-22.8h0c0-12.6-10.2-22.8-22.9-22.8h0ZM22.9,17.1h7.6l10.2,24.9,5.3-2.1,1.7,4.2-9.5,3.8h0s0,0,0,0l-6.7-16.2-11.7,17.4-3.8-2.3,13.4-20.2-2-4.9h-4.5v-4.6Z"/>
    <path class="st25" d="M32,9.1c-12.6,0-22.9,10.2-22.9,22.8h0c0,12.6,10.2,22.8,22.9,22.8h0c12.6,0,22.9-10.2,22.9-22.8h0c0-12.6-10.2-22.8-22.9-22.8h0ZM22.9,16h7.6l10.2,24.9,5.3-2.1,1.7,4.2-9.5,3.8h0s0,0,0,0l-6.7-16.2-11.7,17.4-3.8-2.3,13.4-20.2-2-4.9h-4.5v-4.6Z"/>
    <path class="st11" d="M32,0C14.4,0,0,14.3,0,31.9s0,.8,0,1.1C.7,16,14.7,2.3,32,2.3s31.3,13.7,31.9,30.8c0-.4,0-.8,0-1.1C64,14.3,49.6,0,32,0h0Z"/>
  </g>
  <g class="st10">
    <path class="st4" d="M3.2,1.1h57.5c1.8,0,3.2,1.4,3.2,3.2v57.5c0,1.8-1.4,3.2-3.2,3.2H3.2c-1.8,0-3.2-1.4-3.2-3.2V4.3C0,2.6,1.4,1.1,3.2,1.1Z"/>
    <path class="st8" d="M3.2,0h57.5c1.8,0,3.2,1.4,3.2,3.2v57.5c0,1.8-1.4,3.2-3.2,3.2H3.2c-1.8,0-3.2-1.4-3.2-3.2V3.2C0,1.4,1.4,0,3.2,0Z"/>
    <path class="st15" d="M12.6,0C6.6.1,0,5.9,0,12.7v.4c0,.2,0,.3.2.5l12.8,22.3c.1.2.3.3.5.4l1.9.8c.3.1.7,0,1-.1l7.3-5.9c0,0,.1,0,.2-.1l5.3-2.8,21.2-11.7c.3-.1.4-.4.5-.7l.2-1c0-.2,0-.5-.1-.7L43.1.5C42.9.2,42.5,0,42.2,0H12.6Z"/>
    <path class="st16" d="M55.1,59.6L32,25.8"/>
    <path class="st26" d="M31.8,22.1c-1.8,0-3.1,1.3-3.1,2.8,0,.2,0,.5.2.7l5.4-2.6c-.6-.6-1.6-.9-2.5-.9ZM37,26.8l-5.5,2.7,20.9,30.5c.9,1.3,2.8,1.8,4.3,1,1.5-.7,2.1-2.4,1.2-3.7,0,0,0,0,0,0l-20.9-30.5Z"/>
    <path class="st12" d="M24.2,34.3l18.6-10.7c.9-.5,1.9-.3,2.3.5h0c.4.7,0,1.8-.8,2.2l-18.6,10.7c-.9.5-1.9.3-2.3-.5h0c-.4-.7,0-1.8.8-2.2Z"/>
    <path class="st20" d="M24.2,33.2l18.6-10.7c.9-.5,1.9-.3,2.3.5h0c.4.7,0,1.8-.8,2.2l-18.6,10.7c-.9.5-1.9.3-2.3-.5h0c-.4-.7,0-1.8.8-2.2Z"/>
    <g class="st18">
      <path d="M12.2,57c0,1.1-.4,1.9-1.2,2.5s-1.8.9-3.2.9-1.3,0-1.9-.2c-.6-.1-1.1-.2-1.4-.4v-1.5c.4.2.9.3,1.5.5.6.1,1.2.2,1.9.2s1.6-.2,2-.5c.5-.4.7-.8.7-1.4s0-.7-.3-1c-.2-.3-.5-.5-.9-.8s-1-.5-1.7-.8c-1-.4-1.8-.8-2.4-1.4-.5-.5-.8-1.3-.8-2.2s.2-1.2.5-1.7c.3-.5.8-.8,1.4-1.1.6-.3,1.3-.4,2-.4s1.3,0,1.8.2c.6.1,1.1.3,1.5.5l-.5,1.3c-.4-.2-.9-.3-1.4-.5-.5-.1-1-.2-1.5-.2-.8,0-1.3.2-1.7.5-.4.3-.6.7-.6,1.3s0,.8.3,1c.2.3.4.5.8.8.4.2.9.4,1.6.7.7.3,1.3.5,1.8.9.5.3.9.7,1.1,1.1.3.4.4,1,.4,1.6Z"/>
      <path d="M23.3,48.1l-4.3,12.2h-1.5l-4.3-12.2h1.6l2.7,7.8c.2.5.3,1,.4,1.4.1.4.2.8.3,1.2,0-.4.2-.8.3-1.3.1-.4.3-.9.5-1.4l2.7-7.8h1.6Z"/>
      <path d="M30,53.8h4.2v6c-.7.2-1.3.4-2,.5-.7.1-1.4.2-2.3.2-1.3,0-2.3-.3-3.2-.8-.9-.5-1.5-1.2-2-2.2-.4-.9-.7-2.1-.7-3.4s.2-2.4.7-3.3c.5-.9,1.2-1.7,2.2-2.2.9-.5,2.1-.8,3.4-.8s1.3,0,1.9.2c.6.1,1.2.3,1.7.5l-.6,1.3c-.4-.2-.9-.3-1.5-.5-.5-.1-1.1-.2-1.7-.2-1.5,0-2.6.4-3.4,1.3-.8.9-1.2,2.1-1.2,3.6s.2,1.8.5,2.6c.3.7.8,1.3,1.5,1.7.7.4,1.5.6,2.6.6s1,0,1.4,0c.4,0,.7-.1,1-.2v-3.6h-2.7v-1.4Z"/>
    </g>
    <g>
      <path class="st19" d="M12.2,55.9c0,1.1-.4,1.9-1.2,2.5s-1.8.9-3.2.9-1.3,0-1.9-.2c-.6-.1-1.1-.2-1.4-.4v-1.5c.4.2.9.3,1.5.5.6.1,1.2.2,1.9.2s1.6-.2,2-.5c.5-.4.7-.8.7-1.4s0-.7-.3-1c-.2-.3-.5-.5-.9-.8s-1-.5-1.7-.8c-1-.4-1.8-.8-2.4-1.4-.5-.5-.8-1.3-.8-2.2s.2-1.2.5-1.7c.3-.5.8-.8,1.4-1.1.6-.3,1.3-.4,2-.4s1.3,0,1.8.2c.6.1,1.1.3,1.5.5l-.5,1.3c-.4-.2-.9-.3-1.4-.5-.5-.1-1-.2-1.5-.2-.8,0-1.3.2-1.7.5-.4.3-.6.7-.6,1.3s0,.8.3,1c.2.3.4.5.8.8.4.2.9.4,1.6.7.7.3,1.3.5,1.8.9.5.3.9.7,1.1,1.1.3.4.4,1,.4,1.6Z"/>
      <path class="st19" d="M23.3,46.9l-4.3,12.2h-1.5l-4.3-12.2h1.6l2.7,7.8c.2.5.3,1,.4,1.4.1.4.2.8.3,1.2,0-.4.2-.8.3-1.3.1-.4.3-.9.5-1.4l2.7-7.8h1.6Z"/>
      <path class="st19" d="M30,52.7h4.2v6c-.7.2-1.3.4-2,.5-.7.1-1.4.2-2.3.2-1.3,0-2.3-.3-3.2-.8-.9-.5-1.5-1.2-2-2.2-.4-.9-.7-2.1-.7-3.4s.2-2.4.7-3.3c.5-.9,1.2-1.7,2.2-2.2.9-.5,2.1-.8,3.4-.8s1.3,0,1.9.2c.6.1,1.2.3,1.7.5l-.6,1.3c-.4-.2-.9-.3-1.5-.5-.5-.1-1.1-.2-1.7-.2-1.5,0-2.6.4-3.4,1.3-.8.9-1.2,2.1-1.2,3.6s.2,1.8.5,2.6c.3.7.8,1.3,1.5,1.7.7.4,1.5.6,2.6.6s1,0,1.4,0c.4,0,.7-.1,1-.2v-3.6h-2.7v-1.4Z"/>
    </g>
    <path class="st5" d="M3.2,0C1.4,0,0,1.4,0,3.2v1.1C0,2.6,1.4,1.1,3.2,1.1h57.5c1.8,0,3.2,1.4,3.2,3.2v-1.1c0-1.8-1.4-3.2-3.2-3.2H3.2Z"/>
    <path class="st12" d="M13.2,23.1h37.6c1.7,0,3.1,1.4,3.1,3.1h0c0,1.7-1.4,3.1-3.1,3.1H13.2c-1.7,0-3.1-1.4-3.1-3.1h0c0-1.7,1.4-3.1,3.1-3.1Z" transform="translate(-8.8 19.5) rotate(-30)"/>
    <path class="st20" d="M13.2,22h37.6c1.7,0,3.1,1.4,3.1,3.1h0c0,1.7-1.4,3.1-3.1,3.1H13.2c-1.7,0-3.1-1.4-3.1-3.1h0c0-1.7,1.4-3.1,3.1-3.1Z" transform="translate(-8.3 19.3) rotate(-30)"/>
  </g>
  <g class="st10">
    <ellipse class="st13" cx="31.2" cy="32.5" rx="26.3" ry="25.8"/>
    <path class="st22" d="M55.4,32.1c0,14.3-9.5,23.6-24,23.6s-8.2.7-11.7-.9c-8.7-4.2-14.7-13-14.7-23.2S11.6,11.6,21.1,7.7c3.1-1.3,6.4,0,10,0,14.5,0,24.2,10.2,24.2,24.4Z"/>
    <path class="st27" d="M54.4,19.3c.2.4.4.8.6,1.2,0-.1-.1-.3-.2-.4,0,0,0-.2-.1-.3,0-.1-.2-.3-.3-.4ZM55.6,21.9c0,.2.1.3.2.5,0,0,0-.2,0-.2,0,0,0-.2-.1-.3h0ZM56.3,24c.1.3.2.7.3,1,0,0,0-.1,0-.2,0-.1,0-.2,0-.3,0-.2-.1-.4-.2-.5h0ZM57.1,26.9c0,.1,0,.3,0,.4,0,0,0-.2,0-.3,0,0,0,0,0-.1ZM57.5,30.3l-3.7,2.8-3.8-2.5c-5.4-.5-6.7.6-6.6,2.3l1.5-.8s-8.7,8.3-21.2,16.8l-3.8,2.3v3.5s0,0,.6.3c.1,0,.2,0,.3.1,0,0,0,0,0,0h0c.1,0,0,0,.3.1h0c.1,0,.3,0,.4.1.1,0,.2,0,.3.1-.2,0-.4-.1-.6-.2.2,0,.5.2.7.3.3.1.6.2.9.3.3,0,.5.2.8.2-.3-.1-.7-.2-1-.3.6.2,1.1.4,1.7.5,0,0,.2,0,.3,0,0,0,0,0,.1,0,0,0,0,0,0,0,.7.2,1.5.3,2.2.5,0,0-.1,0-.2,0,.1,0,.3,0,.4,0,.3,0,.6,0,.9.1.1,0,.3,0,.4,0-.2,0-.5,0-.7,0,.5,0,.9.1,1.4.1.8,0,1.6,0,2.4,0h0c.8,0,1.5,0,2.3-.1h0c1.8-.2,3.6-.5,5.3-1.1,0,0,.2,0,.3,0,.5-.2,1-.3,1.5-.5,0,0,0,0,0,0,0,0,0,0,0,0,.9-.4,1.8-.8,2.7-1.3.4-.2.8-.5,1.3-.7.1,0,.3-.2.4-.2,0,0,0,0,0,0,.1,0,.2-.1.3-.2.5-.3,1-.7,1.5-1,.1,0,.2-.2.3-.2,0,0,.2-.1.3-.2.5-.4,1-.9,1.5-1.3.1-.1.3-.2.4-.3.5-.5,1-1,1.5-1.6,0,0,.2-.2.2-.3.5-.6,1-1.2,1.4-1.8,0,0,.1-.1.2-.2.4-.6.9-1.3,1.2-2,0,0,0-.1.1-.2.4-.7.7-1.4,1.1-2.2,0,0,0,0,0,0,.7-1.5,1.2-3.1,1.5-4.8,0,0,0-.2,0-.3.3-1.6.5-3.1.5-4.7,0-.3,0-.6,0-1,0-.2,0-.3,0-.5h0ZM29.2,57.2c-.1,0-.3,0-.4,0,.1,0,.3,0,.4,0,.7,0,1.4,0,2.1.1,0,0,0,0,0,0,0,0,.1,0,.2,0-.8,0-1.5,0-2.3-.1h0ZM24.8,56.5c.6.2,1.2.3,1.8.4-.1,0-.3,0-.4,0-.5,0-.9-.2-1.4-.3ZM24.4,56.4c-.2,0-.5-.1-.7-.2,0,0,.1,0,.2,0,.2,0,.4.1.6.2Z"/>
    <path class="st28" d="M31.3,5.7c-.3,0-.7,0-1,0-.2,0-.5,0-.7,0-.2,0-.4,0-.6,0-3.2.3-6.3,1.1-9.1,2.5l3.9,2.6v5.2l4.6.5-1.4,2.2,13.6,8,6,7.4,3.1-3.6,4.1,2.5,3.7-2.8c0-.2,0-.4,0-.6,0-.8-.2-1.6-.3-2.4,0,0,0-.2,0-.3-.1-.7-.3-1.5-.5-2.2,0,0,0-.2,0-.3-.2-.7-.5-1.4-.7-2.2,0,0,0-.2,0-.2-.3-.7-.6-1.4-.9-2,0-.1,0-.2-.2-.3-.4-.7-.8-1.5-1.3-2.2-.4-.7-.9-1.3-1.4-1.9-.2-.2-.3-.4-.5-.6-.3-.4-.7-.8-1.1-1.2-.5-.5-1-1-1.5-1.5-1.5-1.3-3.2-2.5-5-3.5-.8-.4-1.6-.8-2.4-1.1-.8-.3-1.6-.6-2.4-.9,0,0,0,0,0,0,0,0,0,0-.1,0-.8-.2-1.6-.4-2.4-.6,0,0,0,0,0,0,0,0,0,0,0,0-.8-.2-1.6-.3-2.3-.3-.1,0-.2,0-.3,0-.8,0-1.6-.1-2.4-.1Z"/>
    <ellipse class="st13" cx="31.2" cy="32.5" rx="18.8" ry="18.4"/>
    <path class="st13" d="M20.7,8.9c-.3.1-.6.2-.9.4l3.9,2.6v-.9l-3.1-2ZM57.4,30.3l-3.6,2.8-4.1-2.7v.9l4.1,2.7,3.7-2.8c0-.2,0-.4,0-.6,0,0,0-.2,0-.3Z"/>
    <ellipse class="st19" cx="31.2" cy="31.5" rx="18.8" ry="18.4"/>
    <path class="st1" d="M50,30.6l-26.3,18.4V14l26.3,16.6Z"/>
    <path class="st13" d="M23.7,14v.9l25.6,16.1.7-.5L23.7,14Z"/>
    <path class="st15" d="M31.2,5.7c-14.5,0-26.3,11.6-26.3,25.8,0,.2,0,.3,0,.5.3-14.1,11.9-25.3,26.2-25.3,14.3,0,26,11.3,26.2,25.3,0-.2,0-.3,0-.5,0-14.2-11.8-25.8-26.3-25.8Z"/>
    <path class="st13" d="M23.4,49.2l-3.4,2.1v3.5s0,0,0,0v-2.5s3.8-2.3,3.8-2.3c.2-.1.3-.2.5-.4-.3-.1-.6-.2-.8-.4h0Z"/>
  </g>
  <g>
    <ellipse class="st4" cx="32" cy="33.1" rx="32" ry="32"/>
    <ellipse class="st9" cx="32" cy="32" rx="32" ry="32"/>
    <path class="st11" d="M32,0C14.3,0,0,14.3,0,32c0,.2,0,.4,0,.6C.3,15.1,14.6,1.1,32,1.1c17.4,0,31.7,14,32,31.4,0-.2,0-.4,0-.6C64,14.3,49.7,0,32,0Z"/>
    <path class="st13" d="M27.7,40c-2-.6-3.7-2-4.2-3.6-.6-1.9-.3-5.8.7-7.8.5-.9.7-1.8.7-1.8s-.9-.5-1.9-.9c-3.5-1.5-7.5-7.3-7.9-11.4-.2-2.5.6-3.3,3.9-3.5,3.3-.2,7.9.5,12.5,2.9,2,1,3.8,2.2,3.9,2.1,0-.8.3-2.8.9-3,1-.3,1.6,1.6,2.5,2.1.1,0,1.3-1.6,2.6-3.6,2.5-3.8,6.1-7.7,8.3-9.1,2.7-1.7,5.2-.7,6.1,2.3,1.1,3.8.4,9.6-2.3,13.3l-1.1,1.8,2.1,1.5c3.1,2.3,4.2,4,4.2,6.4s-.3,2.4-1.1,3.9c-3.3,5.4-8.5,5.6-13.3.6-.8-.9-2.1-2.4-2.2-2.4-.3,1.8.8,3.9.6,5.8-1.4-1.3-1.6-3.6-2.6-5.4-.2,0-1,1.9-1.5,3.5-1.7,5.6-5.4,7.8-10.6,6.3Z"/>
    <path class="st19" d="M27.7,38.8c-2-.6-3.7-2-4.2-3.6-.6-1.9-.3-5.8.7-7.8.5-.9.7-1.8.7-1.8s-.9-.5-1.9-.9c-3.5-1.5-7.5-7.3-7.9-11.4-.2-2.5.6-3.3,3.9-3.5,3.3-.2,7.9.5,12.5,2.9,2,1,3.8,2.2,3.9,2.1,0-.8.3-2.8.9-3,1-.3,1.6,1.6,2.5,2.1.1,0,1.3-1.6,2.6-3.6,2.5-3.8,6.1-7.7,8.3-9.1,2.7-1.7,5.2-.7,6.1,2.3,1.1,3.8.4,9.6-2.3,13.3l-1.1,1.8,2.1,1.5c3.1,2.3,4.2,4,4.2,6.4s-.3,2.4-1.1,3.9c-3.3,5.4-8.5,5.6-13.3.6-.8-.9-2.1-2.4-2.2-2.4-.3,1.8.8,3.9.6,5.8-1.4-1.3-1.6-3.6-2.6-5.4-.2,0-1,1.9-1.5,3.5-1.7,5.6-5.4,7.8-10.6,6.3Z"/>
  </g>
</svg>