<?xml version="1.0" encoding="UTF-8"?>
<svg id="_图层_1" xmlns="http://www.w3.org/2000/svg" version="1.1" viewBox="0 0 64 64" width="16" height="16">
  <!-- Generator: Adobe Illustrator 29.0.1, SVG Export Plug-In . SVG Version: 2.1.0 Build 192)  -->
  <defs>
    <style>
      .st0 {
        fill: #f64747;
      }

      .st1 {
        fill: #4f4f4f;
      }

      .st2 {
        fill: #4a4a4a;
      }

      .st3 {
        fill: #9f9f9f;
      }

      .st4, .st5, .st6 {
        fill: #fff;
      }

      .st7 {
        fill: #8e8e8e;
      }

      .st8 {
        fill: #bfbfbf;
      }

      .st9 {
        fill: #636363;
      }

      .st10, .st11, .st5, .st6 {
        isolation: isolate;
      }

      .st10, .st6 {
        opacity: .1;
      }

      .st12 {
        fill: #868686;
      }

      .st13 {
        fill: #333;
      }

      .st11, .st5 {
        opacity: .2;
      }

      .st14 {
        display: none;
      }

      .st15 {
        fill: #426bcd;
      }

      .st16 {
        fill: #e4e4e4;
      }
    </style>
  </defs>
  <path class="st4" d="M50.3,64H13.9C6.3,64,.2,57.8.2,50.3V13.8C.2,6.2,6.3,0,13.9,0h36.5c7.5,0,13.7,6.2,13.7,13.7v36.5c0,7.5-6.1,13.7-13.7,13.7h0Z"/>
  <g class="st14">
    <path class="st11" d="M8.8,13.4h4.9c.9,0,1.6.6,1.6,1.3v5.3c0,.7-.7,1.3-1.6,1.3h-4.9c-.9,0-1.6-.6-1.6-1.3v-5.3c0-.7.7-1.3,1.6-1.3Z"/>
    <path class="st11" d="M13.5,14.2h36.3c1.3,0,2.3,1,2.3,2.2v35.4c0,1.2-1,2.2-2.3,2.2H13.5c-1.3,0-2.3-1-2.3-2.2V16.4c0-1.2,1-2.2,2.3-2.2Z"/>
    <path class="st16" d="M8.8,12.6h4.9c.9,0,1.6.6,1.6,1.3v5.3c0,.7-.7,1.3-1.6,1.3h-4.9c-.9,0-1.6-.6-1.6-1.3v-5.3c0-.7.7-1.3,1.6-1.3Z"/>
    <path class="st3" d="M13.5,13.4h36.3c1.3,0,2.3,1,2.3,2.2v35.4c0,1.2-1,2.2-2.3,2.2H13.5c-1.3,0-2.3-1-2.3-2.2V15.6c0-1.2,1-2.2,2.3-2.2Z"/>
    <path class="st4" d="M16.1,20.3h31.1v28.1h-31.1v-28.1Z"/>
    <path class="st10" d="M12,11.1c12.4-2,25.3-2.4,39.2,0,1.8.3,3.3,1.5,3.3,3.3v6.7c0,1.9-1.5,3.1-3.3,3.3-13.9,2.1-27.1,2.3-39.2,0-1.8-.3-3.3-1.5-3.3-3.3v-6.7c0-1.9,1.5-3.1,3.3-3.3Z"/>
    <path class="st5" d="M8.8,12.6c-.9,0-1.6.6-1.6,1.3v.8c0-.7.7-1.3,1.6-1.3h4.9c.9,0,1.6.6,1.6,1.3v-.8c0-.7-.7-1.3-1.6-1.3h-4.9Z"/>
    <path class="st0" d="M12,10.3c12.4-2,25.3-2.4,39.2,0,1.8.3,3.3,1.5,3.3,3.3v6.7c0,1.9-1.5,3.1-3.3,3.3-13.9,2.1-27.1,2.3-39.2,0-1.8-.3-3.3-1.5-3.3-3.3v-6.7c0-1.9,1.5-3.1,3.3-3.3Z"/>
    <path class="st10" d="M25,31.7h-5.6l12.3,12,12.3-12h-18.9Z"/>
    <path class="st2" d="M25,30.9h-5.6l12.3,12,12.3-12h-18.9Z"/>
    <rect class="st9" x="25.1" y="25.3" width="13.1" height="5.6"/>
    <rect class="st12" x="25.1" y="19.7" width="13.1" height="5.6"/>
    <rect class="st8" x="25.1" y="14.2" width="13.1" height="5.6"/>
    <path class="st4" d="M31.1,8.6c-2,0-4,0-6,.2v5.3h13.1v-5.4c-2.4-.1-4.7-.2-7.1-.2Z"/>
    <rect class="st10" x="25.1" y="25.3" width="13.1" height=".8"/>
    <rect class="st10" x="25.1" y="19.7" width="13.1" height=".8"/>
    <rect class="st10" x="25.1" y="14.2" width="13.1" height=".8"/>
    <rect class="st10" x="25.1" y="30.9" width="13.1" height=".8"/>
    <path class="st5" d="M31.1,8.6c-6.5,0-12.9.7-19.1,1.7-1.8.3-3.3,1.5-3.3,3.3v.8c0-1.9,1.5-3.1,3.3-3.3,12.4-2,25.3-2.4,39.2,0,1.8.3,3.3,1.5,3.3,3.3v-.8c0-1.9-1.5-3-3.3-3.3-6.9-1.2-13.6-1.7-20.2-1.7Z"/>
    <rect class="st11" x="16.1" y="48.4" width="31.1" height=".8"/>
  </g>
  <g class="st14">
    <path class="st11" d="M8.7,13.9h5.1c.9,0,1.7.6,1.7,1.3v5.2c0,.7-.8,1.3-1.7,1.3h-5.1c-.9,0-1.7-.6-1.7-1.3v-5.2c0-.7.8-1.3,1.7-1.3Z"/>
    <path class="st11" d="M13.6,14.7h37.5c1.3,0,2.3,1,2.3,2.2v34.5c0,1.2-1,2.2-2.3,2.2H13.6c-1.3,0-2.3-1-2.3-2.2V16.8c0-1.2,1-2.2,2.3-2.2Z"/>
    <path class="st16" d="M8.7,13.1h5.1c.9,0,1.7.6,1.7,1.3v5.2c0,.7-.8,1.3-1.7,1.3h-5.1c-.9,0-1.7-.6-1.7-1.3v-5.2c0-.7.8-1.3,1.7-1.3Z"/>
    <path class="st3" d="M13.6,13.9h37.5c1.3,0,2.3,1,2.3,2.2v34.5c0,1.2-1,2.2-2.3,2.2H13.6c-1.3,0-2.3-1-2.3-2.2V16c0-1.2,1-2.2,2.3-2.2Z"/>
    <path class="st4" d="M16.3,20.6h32v27.4H16.3v-27.4Z"/>
    <path class="st10" d="M12.1,11.6c12.8-2,26.2-2.4,40.5,0,1.8.3,3.4,1.5,3.4,3.3v6.5c0,1.8-1.5,3-3.4,3.3-14.4,2.1-27.9,2.3-40.5,0-1.8-.3-3.4-1.5-3.4-3.3v-6.5c0-1.8,1.5-3,3.4-3.3Z"/>
    <path class="st5" d="M8.7,13.1c-.9,0-1.7.6-1.7,1.3v.8c0-.7.8-1.3,1.7-1.3h5.1c.9,0,1.7.6,1.7,1.3v-.8c0-.7-.8-1.3-1.7-1.3h-5.1Z"/>
    <path class="st0" d="M12.1,10.9c12.8-2,26.2-2.4,40.5,0,1.8.3,3.4,1.5,3.4,3.3v6.5c0,1.8-1.5,3-3.4,3.3-14.4,2.1-27.9,2.3-40.5,0-1.8-.3-3.4-1.5-3.4-3.3v-6.5c0-1.8,1.5-3,3.4-3.3Z"/>
    <path class="st10" d="M25.4,31.7h-5.8l12.7,11.6,12.7-11.6h-19.6Z"/>
    <path class="st2" d="M25.4,30.9h-5.8l12.7,11.6,12.7-11.6h-19.6Z"/>
    <rect class="st9" x="25.6" y="25.5" width="13.5" height="5.4"/>
    <rect class="st12" x="25.6" y="20.1" width="13.5" height="5.4"/>
    <rect class="st8" x="25.6" y="14.7" width="13.5" height="5.4"/>
    <path class="st4" d="M31.8,9.2c-2.1,0-4.2,0-6.2.2v5.2h13.5v-5.2c-2.5-.1-4.9-.2-7.3-.2Z"/>
    <rect class="st10" x="25.6" y="25.5" width="13.5" height=".8"/>
    <rect class="st10" x="25.6" y="20.1" width="13.5" height=".8"/>
    <rect class="st10" x="25.6" y="14.7" width="13.5" height=".8"/>
    <rect class="st10" x="25.6" y="30.9" width="13.5" height=".8"/>
    <path class="st5" d="M31.8,9.2c-6.7,0-13.3.6-19.7,1.6-1.8.3-3.4,1.5-3.4,3.3v.8c0-1.8,1.5-3,3.4-3.3,12.8-2,26.2-2.4,40.5,0,1.8.3,3.4,1.5,3.4,3.3v-.8c0-1.8-1.5-3-3.4-3.3-7.2-1.2-14.1-1.7-20.8-1.6Z"/>
    <rect class="st11" x="16.3" y="48" width="32" height=".8"/>
    <path class="st11" d="M30.6,52.3c0-11.6,8.9-19.8,21.5-19.8s3.8,1.7,3.8,3.5v16.3c0,1.7-1.9,3.5-3.8,3.5h-17.7c-1.9,0-3.8-1.7-3.8-3.5Z"/>
    <path class="st15" d="M30.6,51.5c0-11.6,8.9-19.8,21.5-19.8s3.8,1.7,3.8,3.5v16.3c0,1.7-1.9,3.5-3.8,3.5h-17.7c-1.9,0-3.8-1.7-3.8-3.5Z"/>
    <path class="st4" d="M51.7,35.6v1.3c0,.7-.6,1.3-1.4,1.3-7,0-12.7,5.2-12.7,11.6s-.6,1.3-1.4,1.3h-1.4v-1.3c0-7.9,6.9-14.2,15.5-14.2h1.4Z"/>
    <path class="st4" d="M51.7,40.8v1.3c0,.7-.6,1.3-1.4,1.3-3.9,0-7,2.9-7,6.5s-.6,1.3-1.4,1.3h-1.4v-1.3c0-5,4.4-9,9.8-9h1.4Z"/>
    <path class="st4" d="M48.8,45.7c1.6,0,3,1.2,3,2.7s-1.3,2.7-3,2.7-3-1.2-3-2.7,1.3-2.7,3-2.7Z"/>
  </g>
  <g>
    <path class="st11" d="M45.5,50v-29.9c0-1.2-1-2.1-2.2-2.1h-20.2c-1.2,0-2.2,1-2.2,2.1v29.9c0,1.2,1,2.1,2.2,2.1h20.2c1.2,0,2.2-1,2.2-2.1Z"/>
    <path class="st7" d="M45.5,49.2v-29.9c0-1.2-1-2.1-2.2-2.1h-20.2c-1.2,0-2.2,1-2.2,2.1v29.9c0,1.2,1,2.1,2.2,2.1h20.2c1.2,0,2.2-1,2.2-2.1Z"/>
    <path class="st11" d="M56.1,46.6v-28.2c0-1.2-1-2.1-2.2-2.1H12.6c-1.2,0-2.2,1-2.2,2.1v28.2c0,1.2,1,2.1,2.2,2.1h41.3c1.2,0,2.2-1,2.2-2.1Z"/>
    <path class="st1" d="M56.1,45.7v-28.2c0-1.2-1-2.1-2.2-2.1H12.6c-1.2,0-2.2,1-2.2,2.1v28.2c0,1.2,1,2.1,2.2,2.1h41.3c1.2,0,2.2-1,2.2-2.1Z"/>
    <rect class="st13" x="13" y="17.9" width="40.4" height="27.4"/>
    <path class="st6" d="M12.6,15.4c-1.2,0-2.2,1-2.2,2.1v.9c0-1.2,1-2.1,2.2-2.1h41.3c1.2,0,2.2,1,2.2,2.1v-.9c0-1.2-1-2.1-2.2-2.1H12.6Z"/>
    <rect class="st6" x="13" y="45.3" width="40.4" height=".9"/>
  </g>
</svg>