<?xml version="1.0" encoding="UTF-8"?>
<svg id="_图层_1" xmlns="http://www.w3.org/2000/svg" version="1.1" viewBox="0 0 64 64" width="16" height="16">
  <!-- Generator: Adobe Illustrator 29.0.1, SVG Export Plug-In . SVG Version: 2.1.0 Build 192)  -->
  <defs>
    <style>
      .st0, .st1, .st2, .st3 {
        opacity: .2;
      }

      .st0, .st1, .st2, .st3, .st4 {
        isolation: isolate;
      }

      .st0, .st5, .st3, .st6 {
        display: none;
      }

      .st7 {
        fill: #ffffc6;
      }

      .st7, .st1 {
        fill-rule: evenodd;
      }

      .st7, .st8, .st9, .st10 {
        stroke: red;
      }

      .st7, .st10 {
        stroke-width: 3px;
      }

      .st8 {
        stroke-width: 3px;
      }

      .st8, .st9 {
        fill: #ffff76;
      }

      .st9 {
        stroke-width: 3px;
      }

      .st11 {
        fill: #7ec183;
      }

      .st10 {
        fill: none;
      }

      .st12 {
        fill: #2165b0;
      }

      .st3, .st4 {
        fill: #fff;
      }

      .st6, .st13 {
        fill: #e4e4e4;
      }

      .st4 {
        opacity: .1;
      }
    </style>
  </defs>
  <path class="st13" d="M50.4,64H13.8c-7.6,0-13.8-6.2-13.8-13.7V13.7C0,6.2,6.2,0,13.7,0h36.5c7.5,0,13.7,6.2,13.7,13.7v36.6c0,7.5-6.2,13.7-13.7,13.7h.1Z"/>
  <g class="st5">
    <path class="st2" d="M52.5,8.3l-12.2,5.1v2.1s0,0,0,0v1.1s0,0,0,0v19.9c0,2.7-1,5.2-2.9,6.9,0,0,0,0,0,0,0,0-.1,0-.2.1-.2.2-.3.3-.5.4-1.7,1.3-3.8,1.9-6,1.9-5.4,0-9.6-4.1-9.6-9.4v-14.3l-12.2,5.3v7.3c0,3.1.4,6,1.3,8.6.8,2.6,2.1,4.8,3.9,6.7,1.5,1.6,3.3,2.9,5.5,3.9h.4c.2.3.5.4.8.5,2.7,1.1,6,1.6,9.7,1.6h0c3.8,0,7.1-.5,9.9-1.6,2.8-1,5-2.5,6.8-4.4,1.8-1.9,3.1-4.1,4-6.8.9-2.6,1.3-5.5,1.3-8.7v-.6s0,0,0,0V8.3h0Z"/>
    <path class="st12" d="M52.5,7.4l-12.2,5.1v20.1c0,4.3,12.2,4,12.2.8V7.4Z"/>
    <path class="st12" d="M21.1,21.4l-12.2,5.3v7.3c0,3.1.4,6,1.3,8.6.8,2.6,2.1,4.8,3.9,6.7,1.5,1.6,3.3,2.9,5.5,3.9l3.1.9c10-1,13.5-9,14.6-11.1h0l.3-.7c-1.8,1.8-4.2,2.7-6.9,2.7-5.4,0-9.6-4.1-9.6-9.4v-14.3Z"/>
    <path class="st11" d="M40.3,14.7v1.1s0,0,0,0v19.9c0,2.7-1,5.2-2.9,6.9,0,0,.2-.1.2-.2l-.3.7h0c-1.1,2.2-6.3,9.2-16.3,10.2h-1.3c.3.2.7.4,1,.5,2.7,1.1,6,1.6,9.7,1.6h0c3.8,0,7.1-.5,9.9-1.6,2.8-1,5-2.5,6.8-4.4,1.8-1.9,3.1-4.1,4-6.8.9-2.6,1.3-5.5,1.3-8.7v-3.8c-.8-7.2-7.3-13.7-12.2-15.7ZM37.4,42.7c-.2.2-.5.4-.7.6.3-.2.5-.4.7-.6Z"/>
    <path class="st4" d="M52.5,7.4l-12.2,5.1v.9l12.2-5.1v-.9ZM21.1,21.4l-12.2,5.3v.9l12.2-5.3v-.9ZM21.1,35.7v.9c0,5.3,4.2,9.4,9.6,9.4s4.5-.7,6.2-2.1c.2-.3.3-.6.4-.8h0l.3-.7c-1.8,1.8-4.2,2.7-6.9,2.7-5.4,0-9.6-4.1-9.6-9.4Z"/>
    <path class="st4" d="M40.3,14.7v.9c4.9,1.9,11.4,8.5,12.2,15.7v-.9c-.8-7.2-7.3-13.7-12.2-15.7ZM40.3,35.7c0,2.7-1,5.2-2.9,6.9,0,0,.2-.1.2-.2l-.3.7h0c-.1.2-.3.5-.5.9-1.8,2.7-6.9,8.4-15.8,9.3h-1.3c.3.2.7.4,1,.5.2,0,.5.2.7.2,9.7-1.2,14.7-8,15.8-10.1h0l.3-.7c0,0-.1.1-.2.2,1.8-1.7,2.9-4.2,2.9-6.9v-.9ZM37.4,42.7c-.2.2-.5.4-.7.6.3-.2.5-.4.7-.6Z"/>
  </g>
  <g>
    <path class="st0" d="M3.2,2.3h57.5c1.8,0,3.2,1.4,3.2,3.2v57.4c0,1.8-1.4,3.2-3.2,3.2H3.2c-1.8,0-3.2-1.4-3.2-3.2V5.5c0-1.8,1.4-3.2,3.2-3.2Z"/>
    <path class="st6" d="M3.2,0h57.5c1.8,0,3.2,1.4,3.2,3.2v57.4c0,1.8-1.4,3.2-3.2,3.2H3.2c-1.8,0-3.2-1.4-3.2-3.2V3.2C0,1.4,1.4,0,3.2,0Z"/>
    <ellipse class="st8" cx="39.9" cy="44.5" rx="13.1" ry="8.5"/>
    <path class="st10" d="M39.3,36.2l-19.7-16.9"/>
    <ellipse class="st9" cx="14.8" cy="16.4" rx="6.3" ry="5.5"/>
    <path class="st7" d="M15.4,21.9v12.4"/>
    <path class="st10" d="M15.4,34.2l-6.3,7.5"/>
    <path class="st10" d="M21.5,41.6l-6.2-7.6"/>
    <path class="st10" d="M21.7,29.1h-12.6"/>
    <path class="st3" d="M3.2,0C1.4,0,0,1.4,0,3.2v2.3c0-1.8,1.4-3.2,3.2-3.2h57.5c1.8,0,3.2,1.4,3.2,3.2v-2.3c0-1.8-1.4-3.2-3.2-3.2H3.2Z"/>
    <path id="ellipse875" class="st1" d="M28.6,45c0,.2,0,.4,0,.6,0,1.7,1,3.3,3.1,4.6,2,1.3,5,2.2,8.3,2.2s6.3-.9,8.3-2.2c2-1.3,3.1-3,3.1-4.6s0-.4,0-.6c-.2,1.5-1.2,2.9-3,4-2,1.3-5,2.2-8.3,2.2s-6.3-.9-8.3-2.2c-1.8-1.2-2.8-2.6-3-4Z"/>
    <path class="st2" d="M10.3,17c0,.2,0,.4,0,.6,0,2.1,2,3.8,4.6,3.8h0c2.5,0,4.6-1.7,4.6-3.8h0c0-.2,0-.4,0-.6-.3,1.8-2.3,3.2-4.5,3.2-2.2,0-4.2-1.4-4.5-3.2Z"/>
  </g>
</svg>