<?xml version="1.0" encoding="UTF-8"?>
<svg id="_图层_1" xmlns="http://www.w3.org/2000/svg" version="1.1" viewBox="0 0 64 64" width="16" height="16">
  <!-- Generator: Adobe Illustrator 29.0.1, SVG Export Plug-In . SVG Version: 2.1.0 Build 192)  -->
  <defs>
    <style>
      .st0 {
        fill: #fdfd67;
      }

      .st1 {
        fill: #fdd600;
      }

      .st2, .st3, .st4, .st5, .st6 {
        display: none;
      }

      .st2, .st7 {
        fill: #3f3f3f;
      }

      .st3, .st4, .st8, .st9 {
        isolation: isolate;
      }

      .st3, .st8, .st9 {
        opacity: .2;
      }

      .st4 {
        opacity: .1;
      }

      .st4, .st10, .st9 {
        fill: #fff;
      }

      .st11 {
        fill: #be4c01;
      }

      .st12 {
        fill: #ff433d;
      }

      .st5 {
        fill: #37384b;
      }

      .st13 {
        fill: #37fb6e;
      }

      .st14 {
        fill: #8a5ffd;
      }

      .st15 {
        fill: #8b9cfd;
      }
    </style>
  </defs>
  <path class="st7" d="M50.4,64H13.8c-7.6,0-13.8-6.2-13.8-13.7V13.7C0,6.2,6.2,0,13.7,0h36.5c7.5,0,13.7,6.2,13.7,13.7v36.6c0,7.5-6.2,13.7-13.7,13.7h.1Z"/>
  <g class="st6">
    <path class="st3" d="M32.1,1.5c-1.5,0-3,.3-4.2.9L4,14.6C1.5,15.8,0,18.2,0,20.7v24.2c0,2.5,1.5,4.9,4,6.2l23.8,12.1c2.5,1.3,5.6,1.3,8.1,0l23.8-12.1c2.5-1.3,4-3.6,4-6.2v-24.2c0-2.5-1.5-4.9-4-6.2L36,2.5c-1.2-.6-2.5-.9-3.9-.9h0Z"/>
    <path class="st5" d="M32.1.4c-1.5,0-3,.3-4.2.9L4,13.4C1.5,14.7,0,17.1,0,19.6v24.2c0,2.5,1.5,4.9,4,6.2l23.8,12.1c2.5,1.3,5.6,1.3,8.1,0l23.8-12.1c2.5-1.3,4-3.6,4-6.2v-24.2c0-2.5-1.5-4.9-4-6.2L36,1.4c-1.2-.6-2.5-.9-3.9-.9h0Z"/>
    <path class="st4" d="M32.1.4c-1.5,0-3,.3-4.2,1L4,13.4C1.5,14.7,0,17.1,0,19.6v1.1c0-2.5,1.5-4.9,4-6.2L27.9,2.5c1.3-.7,2.8-1,4.2-1h0c1.4,0,2.7.4,3.9,1l23.8,12.1c2.5,1.3,4,3.6,4,6.2v-1.1c0-2.5-1.5-4.9-4-6.2L36,1.4c-1.2-.6-2.5-.9-3.9-1h0Z"/>
    <path class="st8" d="M21.7,8.2l-10.2,5.6v8.9L1.3,28.3v8.9l10.2,5.6v8.9l10.2,5.6,10.2-5.6,10.2,5.6,10.2-5.6v-8.9l10.2-5.6v-8.9l-10.2-5.6v-8.9l-10.2-5.6-10.2,5.6-10.2-5.6Z"/>
    <path class="st10" d="M31.9,41.7l10.2-5.6v-8.9l-10.2-5.6-10.2,5.6v8.9l10.2,5.6Z"/>
    <path class="st0" d="M52.3,41.7l10.2-5.6v-8.9l-10.2-5.6-10.2,5.6v8.9l10.2,5.6Z"/>
    <path class="st13" d="M11.5,41.7l10.2-5.6v-8.9l-10.2-5.6L1.3,27.2v8.9l10.2,5.6Z"/>
    <path class="st11" d="M21.7,27.2l10.2-5.6v-8.9l-10.2-5.6-10.2,5.6v8.9l10.2,5.6Z"/>
    <path class="st15" d="M42.1,27.2l10.2-5.6v-8.9l-10.2-5.6-10.2,5.6v8.9l10.2,5.6Z"/>
    <path class="st1" d="M21.7,56.2l10.2-5.6v-8.9l-10.2-5.6-10.2,5.6v8.9l10.2,5.6Z"/>
    <path class="st14" d="M42.1,56.2l10.2-5.6v-8.9l-10.2-5.6-10.2,5.6v8.9l10.2,5.6Z"/>
  </g>
  <g>
    <path class="st3" d="M19.2,1.5h25.6c10.6,0,19.2,8.5,19.2,19.1v25.4c0,10.5-8.6,19.1-19.2,19.1h-25.6c-10.6,0-19.2-8.5-19.2-19.1v-25.4C0,10.1,8.6,1.5,19.2,1.5Z"/>
    <path class="st2" d="M19.2.4h25.6c10.6,0,19.2,8.5,19.2,19.1v25.4c0,10.5-8.6,19.1-19.2,19.1h-25.6C8.6,64,0,55.4,0,44.9v-25.4C0,8.9,8.6.4,19.2.4Z"/>
    <path class="st8" d="M16,11.8v3.4h-2.3v2.3h-3.4v20.4h5.7v6.8h4.6v4.5h6.8v5.7h9.1v-5.7h6.8v-4.5h4.6v-6.8h5.7v-20.4h-3.4v-2.3h-2.3v-3.4h-8v3.4h-2.3v2.3h-2.3v4.5h-6.8v-4.5h-2.3v-2.3h-2.3v-3.4h-8Z"/>
    <path class="st12" d="M16,10.6v3.4h-2.3v2.3h-3.4v20.4h5.7v6.8h4.6v4.5h6.8v5.7h9.1v-5.7h6.8v-4.5h4.6v-6.8h5.7v-20.4h-3.4v-2.3h-2.3v-3.4h-8v3.4h-2.3v2.3h-2.3v4.5h-6.8v-4.5h-2.3v-2.3h-2.3v-3.4h-8Z"/>
    <path class="st4" d="M19.2.4C8.5.4,0,8.9,0,19.5v1.1C0,10,8.5,1.5,19.2,1.5h25.6c10.6,0,19.2,8.5,19.2,19.1v-1.1C63.9,8.9,55.3.4,44.7.4h-25.6Z"/>
    <path class="st9" d="M16,10.6v1.1h8v-1.1h-8ZM39.9,10.6v1.1h8v-1.1h-8ZM13.7,14v1.1h2.3v-1.1h-2.3ZM24,14v1.1h2.3v-1.1h-2.3ZM37.7,14v1.1h2.3v-1.1h-2.3ZM47.9,14v1.1h2.3v-1.1h-2.3ZM10.3,16.3v1.1h3.4v-1.1h-3.4ZM26.2,16.3v1.1h2.3v-1.1h-2.3ZM35.4,16.3v1.1h2.3v-1.1h-2.3ZM50.2,16.3v1.1h3.4v-1.1h-3.4ZM28.5,20.8v1.1h6.8v-1.1h-6.8Z"/>
  </g>
</svg>