<?xml version="1.0" encoding="UTF-8"?>
<svg id="_图层_1" xmlns="http://www.w3.org/2000/svg" version="1.1" viewBox="0 0 64 64" width="16" height="16">
  <!-- Generator: Adobe Illustrator 29.0.1, SVG Export Plug-In . SVG Version: 2.1.0 Build 192)  -->
  <defs>
    <style>
      .st0, .st1, .st2, .st3 {
        display: none;
      }

      .st0, .st4 {
        fill: #00758a;
      }

      .st5 {
        fill: #f29111;
      }

      .st1 {
        fill: red;
      }

      .st6 {
        fill: none;
        stroke: #1159d4;
        stroke-linecap: square;
        stroke-miterlimit: 10;
        stroke-width: .4px;
      }

      .st7 {
        fill: #1159d4;
      }

      .st8, .st9 {
        opacity: .2;
      }

      .st8, .st9, .st10 {
        isolation: isolate;
      }

      .st2, .st11 {
        fill: #39dcff;
      }

      .st9, .st10 {
        fill: #fff;
      }

      .st10 {
        opacity: .1;
      }
    </style>
  </defs>
  <rect class="st0" x="1.2" y="1.2" width="61.8" height="61.4" rx="11.7" ry="11.7"/>
  <rect class="st2" x="8.9" y="8.6" width="44.6" height="45"/>
  <g class="st3">
    <path class="st4" d="M53.6,32.9h-21.7l-3.5,14.6h-4.6c-.1,0-.2,0-.2-.2L15.9,14.8h5.4l2.9,12.1h5.5l-4.4-18.5H8.9l9.7,40.8c.7,2.8,2.8,4.7,5.3,4.7h8.2l3.5-14.6h12.6v7.9c0,0,0,.2,0,.2,0,0-.1,0-.2,0h-9.3l-1.6,6.4h10.8c1.1,0,2.1-.3,3-1,1.7-1.3,2.6-3.4,2.6-5.7v-14.3h0Z"/>
    <path class="st5" d="M52.1,26.9h1.5v-11.9c0-1.8-.6-3.4-1.6-4.7-1-1.2-2.4-1.9-3.9-1.9h-10.5l-4.5,18.5h19ZM42,14.8h6.3c0,0,.1,0,.2,0,0,0,0,.1,0,.2v5.4h-7.9l1.4-5.7h0s0,0,0,0Z"/>
  </g>
  <g>
    <path class="st8" d="M11.9,1.4l40.4.8c8.7.5,10.6,8.2,10.6,9.9v40.2c0,2.5-.8,9.6-10.1,10.4l-40.9.3c-2.7,0-10.6-1.9-10.6-10.6V12.1C1.2,8.9,3,1.4,11.9,1.4Z"/>
    <path class="st7" d="M11.9,1.4h40.4c8.8-.2,10.6,7.4,10.6,10.5v39.7c-.2,3.1-1.8,9.3-10.1,10.3l-40.9.3c-3.7-.2-10.3-3.3-10.6-10.5V12C1.2,3.1,8.5,1.5,11.9,1.4Z"/>
    <path class="st6" d="M5.7,26.1h11l6.2,16.9,7.7-22.1,5.4,12,5.4-13.5,6.2,17.4h8.9"/>
    <path class="st8" d="M10.3,8.9c-1.3,0-2.4,1.1-2.4,2.4v12.7h11.2l3.8,10.3,7.4-21.2,5.6,12.5,5.8-14.4,8.4,23.5h6.5V11.3c0-1.3-1.1-2.4-2.4-2.4H10.3ZM41.2,29.9l-5,12.6-5.2-11.5-8,23-8.6-23.5h-6.5v23.4c0,1.3,1.1,2.4,2.4,2.4h43.7c1.3,0,2.4-1.1,2.4-2.4v-12.7h-11.2l-4-11.3h0Z"/>
    <path class="st11" d="M10.3,7.9c-1.3,0-2.4,1.1-2.4,2.4v12.7h11.2l3.8,10.3,7.4-21.2,5.6,12.5,5.8-14.4,8.4,23.5h6.5V10.2c0-1.3-1.1-2.4-2.4-2.4H10.3ZM41.2,28.8l-5,12.6-5.2-11.5-8,23-8.6-23.5h-6.5v23.4c0,1.3,1.1,2.4,2.4,2.4h43.7c1.3,0,2.4-1.1,2.4-2.4v-12.7h-11.2l-4-11.3h0Z"/>
    <path class="st10" d="M1.4,11l-.2,1c.2-1,.9-9.5,10.6-9.9h40.4c8.3.3,10.6,8.2,10.6,9.9l-.2-1.5c0-1.7-1.8-9.3-10.5-9.1H11.9c-3.1,0-10.6,1.9-10.5,9.6Z"/>
    <path class="st9" d="M10.3,7.9c-1.3,0-2.4,1.1-2.4,2.4v1.1c0-1.3,1.1-2.4,2.4-2.4h43.7c1.3,0,2.4,1.1,2.4,2.4v-1.1c0-1.3-1.1-2.4-2.4-2.4,0,0-43.7,0-43.7,0ZM41.2,28.8l-5,12.6-5.2-11.5-8,23-8.6-23.5h-6.5v1.1h6.5l8.6,23.5,8-23,5.2,11.5,5-12.6,4,11.3h11.2v-1.1h-11.2l-4-11.3Z"/>
  </g>
  <rect class="st1" x="1.3" y="1.4" width="61.6" height="61.4" rx="10.6" ry="10.6"/>
</svg>
