<?xml version="1.0" encoding="UTF-8"?>
<svg id="_图层_1" data-name="图层_1" xmlns="http://www.w3.org/2000/svg" width="16" height="16" version="1.1" viewBox="0 0 1024 1024">
  <!-- Generator: Adobe Illustrator 29.0.1, SVG Export Plug-In . SVG Version: 2.1.0 Build 192)  -->
  <defs>
    <style>
      .st0, .st1 {
        fill: #00758a;
      }

      .st0, .st2, .st3 {
        display: none;
      }

      .st4 {
        fill: #f29111;
      }

      .st5 {
        fill: none;
        stroke: #1159d4;
        stroke-linecap: square;
        stroke-width: 6px;
      }

      .st6 {
        fill: #1159d4;
      }

      .st7, .st8 {
        opacity: .2;
      }

      .st7, .st8, .st9 {
        isolation: isolate;
      }

      .st2, .st10 {
        fill: #39dcff;
      }

      .st8, .st9 {
        fill: #fff;
      }

      .st9 {
        opacity: .1;
      }
    </style>
  </defs>
  <rect class="st0" x="20" y="19" width="989" height="982" rx="187.6" ry="187.6"/>
  <rect class="st2" x="143" y="137" width="714" height="720"/>
  <g class="st3">
    <path class="st1" d="M857.8,527h-346.9l-56.8,233.5h-72.8c-1.7,0-3.2-1.3-3.6-3.2L253.6,236.5h86.7l46.1,193.6h87.5l-70.7-296.2H142l155.7,653.1c10.7,44.7,45.3,75.9,84.3,75.9h131.8l56.8-233.5h201.4v126.3c0,1.3-.3,2.4-1.1,3.4-.8.9-1.7,1.3-2.8,1.3h-149.1l-25,102.5h173.3c17.1,0,34.1-5.2,48.5-16.2,27.2-20.9,42.3-54.5,42.3-91.2v-228.7h-.2Z"/>
    <path class="st4" d="M834,430.2h24v-190.7c0-28.2-9.2-54.6-25.8-74.5-16.6-20-38.9-31-62.6-31h-167.7l-72.2,296.2h304.3ZM672.6,236.5h100.4c1,0,1.9.4,2.7,1.2.7.9,1,1.9,1,3.2v86.7h-126.3l22.3-91.3v.2Z"/>
  </g>
  <g>
    <path class="st7" d="M69.5,40.2h890.1c27.3,0,49.4,21.5,49.4,48v864.8c0,26.5-22.1,48-49.4,48H69.4c-27.3,0-49.4-21.5-49.4-48V88.2c0-26.5,22.1-48,49.5-48Z"/>
    <path class="st6" d="M69.5,23h890.1c27.3,0,49.4,21.5,49.4,48v864.8c0,26.5-22.1,48-49.4,48H69.5c-27.3,0-49.5-21.5-49.5-48V71c0-26.5,22.1-48,49.5-48Z"/>
    <path class="st5" d="M90.6,417.6h175.6l98.9,270.8,123.6-353.1,86.5,192.2,86.5-216.2,98.9,278h142.3"/>
    <path class="st7" d="M164.8,143.1c-21.5,0-38.8,16.9-38.8,37.7v202.5h178.7l60.4,165.5,118.5-338.5,89.8,199.5,92.4-230.7,133.7,375.8h103.5V180.8c0-20.8-17.4-37.7-38.8-37.7H164.8ZM659.9,477.7l-80.7,201.7-83.2-184.8-128.8,367.7-137.4-376.1h-103.9v374.1c0,20.8,17.4,37.7,38.8,37.7h699.4c21.5,0,38.8-16.9,38.8-37.7v-202.5h-179l-64.1-180.2Z"/>
    <path class="st10" d="M164.8,125.9c-21.5,0-38.8,16.9-38.8,37.7v202.5h178.7l60.4,165.5,118.5-338.5,89.8,199.5,92.4-230.7,133.7,375.8h103.5V163.7c0-20.8-17.4-37.7-38.8-37.7H164.8ZM659.9,460.5l-80.7,201.7-83.2-184.8-128.8,367.7-137.4-376.1h-103.9v374.1c0,20.8,17.4,37.7,38.8,37.7h699.4c21.5,0,38.8-16.9,38.8-37.7v-202.5h-179l-64.1-180.2Z"/>
    <path class="st9" d="M20,71.1v17.2c0-26.6,22.1-48.1,49.5-48.1h890.1c27.4,0,49.5,21.4,49.5,48.1v-17.2c0-26.5-22.1-48.1-49.5-48.1H69.5c-27.3,0-49.5,21.5-49.5,48.1Z"/>
    <path class="st8" d="M164.8,125.9c-21.5,0-38.8,16.9-38.8,37.7v17.2c0-20.9,17.3-37.7,38.8-37.7h699.4c21.5,0,38.8,16.8,38.8,37.7v-17.2c0-20.8-17.4-37.7-38.8-37.7H164.8ZM659.9,460.5l-80.7,201.7-83.2-184.8-128.8,367.7-137.4-376.1h-103.9v17.2h103.9l137.4,376.1,128.8-367.7,83.2,184.8,80.7-201.7,64.1,180.2h179v-17.2h-179l-64.1-180.2Z"/>
  </g>
</svg>
