<?xml version="1.0" encoding="UTF-8"?>
<svg id="_图层_1" xmlns="http://www.w3.org/2000/svg" version="1.1" viewBox="0 0 64 64" width="16" height="16">
  <!-- Generator: Adobe Illustrator 29.0.1, SVG Export Plug-In . SVG Version: 2.1.0 Build 192)  -->
  <defs>
    <style>
      .st0 {
        fill: #fecd38;
      }

      .st1, .st2 {
        fill: #4f4f4f;
      }

      .st3, .st4, .st5 {
        isolation: isolate;
      }

      .st3, .st4, .st6, .st2 {
        display: none;
      }

      .st3, .st7, .st5 {
        opacity: .2;
      }

      .st4 {
        opacity: .1;
      }

      .st4, .st8 {
        fill: #fff;
      }

      .st9 {
        fill: #6084ff;
      }
    </style>
  </defs>
  <path class="st1" d="M50.4,64H13.8c-7.6,0-13.8-6.2-13.8-13.7V13.7C0,6.2,6.2,0,13.7,0h36.5c7.5,0,13.7,6.2,13.7,13.7v36.6c0,7.5-6.2,13.7-13.7,13.7h.1Z"/>
  <g class="st6">
    <path class="st2" d="M32,.2h0c17.4,0,31.5,14.1,31.5,31.5h0c0,17.4-14.1,31.5-31.5,31.5h0C14.6,63.3.5,49.2.5,31.7H.5C.5,14.3,14.6.2,32,.2Z"/>
    <path class="st5" d="M38.8,12.6c-10,0-18,8.1-18,18h0c0,.1,0,.2,0,.4,0,.1,0,.2,0,.3,0,.3,0,.6,0,.9,0,0,0,.1,0,.2v4.6s-4.1,6.5-4.1,6.5c-.9,1.8,0,2.9,2,3h2.2v5.1c0,2.1,2,3.9,4.1,3.9h4.9v6.7c.7,0,1.5.1,2.3.1,6.7,0,12.9-2.1,18-5.7v-11c0-.3,0-.5,0-.8,4.3-3.4,6.7-8.6,6.7-14.1,0-10-8.1-18-18-18Z"/>
    <path class="st9" d="M38.8,11.5c-10,0-18,8.1-18,18h0c0,.1,0,.2,0,.4,0,.1,0,.2,0,.3,0,.3,0,.6,0,.9,0,0,0,.1,0,.2v4.6s-4.1,6.5-4.1,6.5c-.9,1.8,0,2.9,2,3h2.2v5.1c0,2.1,2,3.9,4.1,3.9h4.9v8.9c.7,0,1.5.1,2.3.1,6.7,0,12.9-2.1,18-5.7v-13.3c0-.3,0-.5,0-.8,4.3-3.4,6.7-8.6,6.7-14.1,0-10-8.1-18-18-18Z"/>
    <g class="st7">
      <path d="M39.9,19.4c-5.6,0-10.1,4.5-10.1,10.1s4.5,10.1,10.1,10.1,10.1-4.5,10.1-10.1-4.5-10.1-10.1-10.1ZM39.9,23.9c3.1,0,5.6,2.5,5.6,5.6s-2.5,5.6-5.6,5.6-5.6-2.5-5.6-5.6,2.5-5.6,5.6-5.6Z"/>
      <circle cx="39.9" cy="29.5" r="3.4"/>
    </g>
    <g>
      <path class="st8" d="M39.9,18.2c-5.6,0-10.1,4.5-10.1,10.1s4.5,10.1,10.1,10.1,10.1-4.5,10.1-10.1-4.5-10.1-10.1-10.1ZM39.9,22.7c3.1,0,5.6,2.5,5.6,5.6s-2.5,5.6-5.6,5.6-5.6-2.5-5.6-5.6,2.5-5.6,5.6-5.6Z"/>
      <circle class="st8" cx="39.9" cy="28.4" r="3.4"/>
    </g>
    <path class="st4" d="M32,.2C14.6.2.5,14.3.5,31.7s0,.3,0,.4C.9,15,14.8,1.3,32,1.3s31.1,13.7,31.5,30.8c0-.1,0-.3,0-.4C63.6,14.3,49.5.2,32,.2Z"/>
    <path class="st3" d="M63.5,32.5c-.4,17.1-14.3,30.8-31.5,30.8S.9,49.6.5,32.5c0,.1,0,.2,0,.4,0,17.5,14.1,31.5,31.5,31.5s31.5-14.1,31.5-31.5,0-.3,0-.4Z"/>
  </g>
  <g>
    <path class="st2" d="M32,.5h0c17.7,0,32,14.2,32,31.6h0c0,17.5-14.3,31.6-32,31.6h0C14.3,63.7,0,49.6,0,32.1h0C0,14.6,14.3.5,32,.5Z"/>
    <path class="st5" d="M25.6,52.9c-4-1-7.5-3-11-6.5-2.8-2.7-3.2-3.3-4.3-6.1-1.1-2.7-1.2-3.4-1.2-6.4,0-4.8,1-7.7,3.7-11.3,2.6-3.4,3.7-4.3,7.8-6.3,2.9-1.4,4.7-1.9,8.8-2.6,1.6-.3,1.7-.8.2-1.9-2-1.3-4-3.2-3.8-3.4.2-.2,7.9,2.4,11.5,3.9,4.5,1.9,10,5.7,12.5,8.6,1,1.1,1.5,2.3.9,2.3s-3.5-1.5-6.8-3c-1.4-.7-2.7-1.1-2.8-1-.2.1,0,.4.5.6.5.2,1,.5,1.1.6,0,.1.9.4,1.7.7.8.2,1.5.6,1.5.8s.2.3.4.3c.2,0,1.2.4,2.2.9l1.8.8-1.4.4c-2.2.6-3.1.5-7.2-.9-4.7-1.6-9.6-2-13.9-1.1-4.3.8-4.7,1.5-2.6,4.3,1.6,2.1,3.3,2.7,5.7,1.8,1-.3,2.1-.5,2.6-.3.9.2.9.3.2.5-.7.2-.6.3.4.8.7.4.9.6.4.6-.7,0-.8.6-.3.9.7.4.4.9-.4.7-.6-.2-.7-.1-.5.4.2.5,0,.6-.5.4-.5-.2-.7,0-.7.4,0,.5-.2.4-1-.6-1-1.1-1.1-1.2-4.4-1.5-4-.4-5.1-.8-6.3-2.2l-.9-1.1-1,2.1c-1.2,2.7-1.5,6.7-.7,9.3,1.9,5.8,6,8.3,10.2,6.2,2.8-1.4,3.6-4.1,2-6.5-1-1.4-1-2.9,0-2.1.6.5.9.2,1-.8,0-.7,0-.7.4.1l.4.9.5-.8c.7-1,1.2-1,.9,0-.2.8.2.9.9.3.4-.4.4-.3.2.4-.2.8-.2.8.6.6.7-.2.7,0-.4.8l-1.2,1,.3,3.9.3,3.9-1.1.9c-1.1.9-1.1.9-.3,1.1,1.2.3,6.2-.3,8.3-1,3.6-1.2,7.8-4.4,9.5-7.2,2.2-3.5,3.4-10.4,2.4-13.3-.4-1.2-.5-1.5,0-1.5,1,0,2,3.9,2,7.7,0,4.7-1.7,9-5,12.8-5.2,5.8-15.8,8.8-24.2,6.7h0Z"/>
    <path class="st0" d="M25.6,51.8c-4-1-7.5-3-11-6.5-2.8-2.7-3.2-3.3-4.3-6.1-1.1-2.7-1.2-3.4-1.2-6.4,0-4.8,1-7.7,3.7-11.3,2.6-3.4,3.7-4.3,7.8-6.3,2.9-1.4,4.7-1.9,8.8-2.6,1.6-.3,1.7-.8.2-1.9-2-1.3-4-3.2-3.8-3.4.2-.2,7.9,2.4,11.5,3.9,4.5,1.9,10,5.7,12.5,8.6,1,1.1,1.5,2.3.9,2.3s-3.5-1.5-6.8-3c-1.4-.7-2.7-1.1-2.8-1-.2.1,0,.4.5.6.5.2,1,.5,1.1.6,0,.1.9.4,1.7.7.8.2,1.5.6,1.5.8s.2.3.4.3c.2,0,1.2.4,2.2.9l1.8.8-1.4.4c-2.2.6-3.1.5-7.2-.9-4.7-1.6-9.6-2-13.9-1.1-4.3.8-4.7,1.5-2.6,4.3,1.6,2.1,3.3,2.7,5.7,1.8,1-.3,2.1-.5,2.6-.3.9.2.9.3.2.5-.7.2-.6.3.4.8.7.4.9.6.4.6-.7,0-.8.6-.3.9.7.4.4.9-.4.7-.6-.2-.7-.1-.5.4.2.5,0,.6-.5.4-.5-.2-.7,0-.7.4,0,.5-.2.4-1-.6-1-1.1-1.1-1.2-4.4-1.5-4-.4-5.1-.8-6.3-2.2l-.9-1.1-1,2.1c-1.2,2.7-1.5,6.7-.7,9.3,1.9,5.8,6,8.3,10.2,6.2,2.8-1.4,3.6-4.1,2-6.5-1-1.4-1-2.9,0-2.1.6.5.9.2,1-.8,0-.7,0-.7.4.1l.4.9.5-.8c.7-1,1.2-1,.9,0-.2.8.2.9.9.3.4-.4.4-.3.2.4-.2.8-.2.8.6.6.7-.2.7,0-.4.8l-1.2,1,.3,3.9.3,3.9-1.1.9c-1.1.9-1.1.9-.3,1.1,1.2.3,6.2-.3,8.3-1,3.6-1.2,7.8-4.4,9.5-7.2,2.2-3.5,3.4-10.4,2.4-13.3-.4-1.2-.5-1.5,0-1.5,1,0,2,3.9,2,7.7,0,4.7-1.7,9-5,12.8-5.2,5.8-15.8,8.8-24.2,6.7h0Z"/>
    <path class="st4" d="M32,.5C14.3.5,0,14.6,0,32.1s0,.3,0,.4C.4,15.3,14.5,1.6,32,1.6s31.6,13.7,32,30.9c0-.1,0-.3,0-.4C64,14.6,49.7.5,32,.5Z"/>
    <path class="st3" d="M0,32.8c0,.1,0,.3,0,.4,0,17.5,14.3,31.6,32,31.6s32-14.1,32-31.6,0-.3,0-.4c-.4,17.2-14.5,30.9-32,30.9S.4,50,0,32.8Z"/>
  </g>
</svg>