<?xml version="1.0" encoding="UTF-8"?>
<svg id="_图层_1" xmlns="http://www.w3.org/2000/svg" version="1.1" viewBox="0 0 64 64" width="16" height="16">
  <!-- Generator: Adobe Illustrator 29.0.1, SVG Export Plug-In . SVG Version: 2.1.0 Build 192)  -->
  <defs>
    <style>
      .st0, .st1, .st2, .st3, .st4, .st5, .st6, .st7 {
        display: none;
      }

      .st0, .st8 {
        fill: #e43e54;
      }

      .st9 {
        fill: #eb1c26;
      }

      .st10 {
        fill: #4daf7c;
      }

      .st1, .st2, .st11, .st12, .st13, .st6 {
        isolation: isolate;
      }

      .st1, .st14, .st12, .st13, .st6 {
        opacity: .2;
      }

      .st2, .st15, .st3, .st13, .st6 {
        fill: #fff;
      }

      .st2, .st11 {
        opacity: .1;
      }

      .st16 {
        fill: #e5e5e5;
      }

      .st17 {
        fill: #4795f4;
      }

      .st18 {
        fill: #e3e3e3;
      }

      .st19 {
        fill: #02b053;
      }

      .st4, .st20 {
        fill: #65db79;
      }

      .st21 {
        fill: #f8c913;
      }

      .st22 {
        fill: #343b45;
      }

      .st23 {
        fill: #faad08;
      }

      .st7 {
        fill: #4354cb;
      }

      .st24 {
        fill: #3ea0f4;
      }

      .st25 {
        fill: #5ed698;
      }
    </style>
  </defs>
  <path class="st20" d="M50.3,64H13.8c-7.6,0-13.8-6.2-13.8-13.7V13.7C0,6.2,6.2,0,13.7,0h36.5c7.5,0,13.7,6.2,13.7,13.7v36.6c0,7.5-6.2,13.7-13.7,13.7h0Z"/>
  <g class="st5">
    <ellipse class="st1" cx="32" cy="33" rx="32" ry="31.8"/>
    <ellipse class="st7" cx="32" cy="31.8" rx="32" ry="31.8"/>
    <ellipse class="st15" cx="32" cy="31.8" rx="16" ry="15.9"/>
    <path class="st11" d="M42.6,24.9c-3.4,0-7.9,1-12.3,2.6-4.3,1.7-8.3,4-10.9,6.3-1.4,1.3-2.1,2.3-2.5,3v.3c-.1,0,0,.4,0,.5,0-.1.5-.6.6-.7.4-.6,1-1.2,1.8-1.9,2.6-2.3,6.6-4.6,10.9-6.3,4.3-1.7,8.8-2.6,12.3-2.6s1.8,0,2.5.2c.8.1,1.4.4,2.1.8,0-.1,0-.2-.1-.3.1-.3.1-.5,0-.6-.1-.3-1.5-1.1-4.5-1.1ZM54.7,26c-.2,2.1-1.3,4.8-4.9,8-.7.6-1.4,1.2-2.2,1.8,0,.5-.2.9-.3,1.4.9-.6,1.7-1.3,2.5-2,4.3-3.8,5.1-7,4.9-9.1ZM9.2,38.9c0,1.1.1,2.1.4,2.7.7,1.9,3,5,10.5,5s2.2,0,3.4-.2c-.5-.3-1-.7-1.4-1-.7,0-1.3,0-2,0-7.5,0-9.8-3.2-10.5-5-.2-.4-.3-1-.4-1.6Z"/>
    <path class="st24" d="M43.9,18.2c-4.6,0-10.2,1.2-15.8,3.3-5.6,2.1-10.6,5-14,8.1-5.6,5-5.2,8.9-4.5,10.8s3,5,10.5,5,2.2,0,3.4-.2c-2.7-1.7-4.9-4.2-6.1-7.2-.3-.2-.5-.3-.5-.4-.1-.3.4-1.8,2.7-3.9,2.6-2.3,6.6-4.6,10.9-6.3,4.3-1.7,8.8-2.6,12.3-2.6,3.1,0,4.4.8,4.5,1.1,0,.1,0,.3,0,.6.6,1.6.9,3.4.9,5.2s-.2,2.8-.6,4.2c.9-.6,1.7-1.3,2.5-2,5.6-5,5.2-8.9,4.5-10.8-.7-1.9-3-5-10.5-5Z"/>
    <path class="st12" d="M47.9,32.2c-.2,8.7-7.3,15.6-16,15.6-6.6,0-12.5-4.1-14.9-10.2-.1-.3-.1-.2-.2-.5-.1.7.1,1.2.4,2.1.3.7.6,1.4.9,2,2.8,4.7,7.9,7.8,13.7,7.8,8.8,0,16-7.1,16-15.9,0-.3,0-.5,0-.8Z"/>
    <path class="st2" d="M32,0C14.3,0,0,14.3,0,31.8c0,.2,0,.4,0,.5C.4,15.1,14.5,1.2,32,1.1c17.3,0,31.5,13.7,31.9,31,0,0,0-.2,0-.3C63.9,14.3,49.6,0,32,0Z"/>
  </g>
  <g class="st5">
    <path class="st15" d="M12.7,0h38.3c6.3,0,13,6.9,13,13.3v38.6c0,6.3-7.5,12.2-13.8,12.2H13.2C6.8,63.9,0,57.7,0,51.4V12.7C-.1,6.3,6.3,0,12.7,0Z"/>
    <path class="st18" d="M44,64.1h-16.2c0,0-11.8-11.5-11.8-11.5l13.7-21.5c1.2-9.8,1.1-9.6,9.1-12.7l11.3-.8c11,9.5,2.6,2,13.9,12v22.2c0,6.2-7.4,12.2-13.6,12.2h-6.3Z"/>
    <g>
      <path class="st10" d="M40,32h-5.3c-.2,0-.4,0-.6,0-.2,0-.4.1-.5.2-.5.2-.8.5-1.1.9-.3.4-.4.9-.4,1.4v7.6h-4c-.7,0-1.2.2-1.3.5s0,.8.6,1.3l8.2,7.8c.2.2.5.4.9.5s.7.2,1,.2.7,0,1-.2.6-.3.9-.5l8.2-7.8c.5-.5.7-.9.6-1.3s-.6-.5-1.3-.5h-4v-7.6c0-.7-.3-1.3-.8-1.8-.5-.5-1.2-.7-1.9-.7h0Z"/>
      <path class="st25" d="M29.8,9.7c-1-.2-1.9,0-2.7.7s-1.1,1.4-1.1,2.4v20.6c-.6-.2-1.3-.4-1.9-.5-.7-.1-1.3-.2-2-.2-1.6,0-3.1.3-4.5.9-1.4.6-2.6,1.3-3.6,2.3s-1.8,2.1-2.5,3.5c-.6,1.3-.9,2.7-.9,4.2s.3,2.9.9,4.2c.6,1.3,1.4,2.5,2.5,3.4,1,1,2.2,1.8,3.6,2.3,1.4.6,2.9.8,4.5.8s3.4-.4,5-1.1c1.6-.7,2.8-1.7,3.9-3l-5.2-4.9c-.8-.8-1.2-1.5-1.2-2.1s0-1.1.2-1.3c0-.3.4-.6.8-1.1.5-.4,1.3-.7,2.4-.7h1.9v-5.7c0-1,.3-2,1-2.8.7-.8,1.6-1.3,2.6-1.6v-8.2c3.7,0,6.5.5,8.4,1.4,1.9.9,3.2,2,3.9,3.4s1,2.8.8,4.4c-.2,1.5-.4,2.9-.9,4.1-.3,1-.4,1.5-.2,1.6s.6-.2,1.3-.9c4.5-4.7,6.6-8.6,6.3-11.7-.3-3.2-1.7-5.8-4.3-7.8-2.6-2-5.8-3.5-9.6-4.6-3.8-1-6.9-1.8-9.4-2.2h0Z"/>
    </g>
  </g>
  <g class="st5">
    <path class="st23" d="M32.4,57c-4.1,0-8.1-1.2-11.4-3.5-1.5.4-2.9,1-4.2,1.7-.9.6-.8,1.3-.7,1.6.7,1.2,12.8.7,16.2.4v-.2Z"/>
    <path class="st23" d="M31.6,57c4.1,0,8.1-1.2,11.4-3.5,1.5.4,2.9,1,4.2,1.7.9.6.8,1.3.7,1.6-.7,1.2-12.8.7-16.2.4v-.2h0Z"/>
    <path d="M31.6,29.9c5.2,0,10.4-.7,15.4-2,.3,0,.5-.2.7-.4,0,0,0-1.2,0-1.8,0-9.7-4.7-19.4-16.2-19.4S15.4,16.1,15.4,25.8s0,1.7,0,1.8c.2.2.4.3.6.3,5.1,1.3,10.3,2,15.5,2h0ZM52,38.1c-.5-1.5-1.1-3.2-1.7-4.8-.2,0-.4,0-.5,0-5.8,1.7-11.7,2.6-17.7,2.6h0c-6,0-11.9-.9-17.7-2.6-.2,0-.4,0-.6,0-.6,1.6-1.3,3.3-1.7,4.8-2.2,7-1.5,9.9-.9,10,1.2.1,4.5-5.3,4.5-5.3,0,5.5,5,13.9,16.3,14h.3c11.4,0,16.3-8.5,16.3-14,0,0,3.3,5.4,4.5,5.3.5,0,1.2-3-.9-10"/>
    <path class="st15" d="M28.1,21c-1.6,0-2.9-1.7-3-4s1.1-4.1,2.7-4.2,2.9,1.7,3,4c0,2.3-1.1,4.1-2.7,4.2M39.7,17.1c0,2.3-1.4,4-3,4s-2.8-2-2.7-4.2,1.4-4,3-4,2.8,2,2.7,4.2"/>
    <path class="st23" d="M42.2,23.9c-.4-1-4.6-2.1-9.8-2.1h0c-5.2,0-9.3,1.1-9.8,2.1,0,0,0,0,0,.1,0,0,0,.1,0,.2,2.8,2.1,6.2,3.2,9.7,3.3h0c3.5,0,6.9-1.2,9.7-3.3,0,0,0-.1,0-.2,0,0,0,0,0-.1"/>
    <path d="M29.9,17.6c.1.8-.3,1.6-1.1,1.8-.7.1-1.3-.6-1.3-1.5-.1-.8.3-1.6,1.1-1.8.7-.1,1.3.6,1.3,1.5M34.1,18c.7-1,2-1.4,3.1-1,.3,0,.6.2.8.4,0,.1,0,.3,0,.4,0,.3-.3.4-.6.3,0,0,0,0,0,0-.9-.5-2.1-.4-2.8.4-.1,0-.3,0-.4,0-.2,0-.2-.3-.1-.5"/>
    <path class="st15" d="M32,36h0c-4.1,0-8.2-.4-12.2-1.2-.4,2.5-.6,5.1-.4,7.7.5,7.8,5.2,12.7,12.5,12.7h.3c7.3,0,12-5,12.5-12.7.2-2.6,0-5.2-.4-7.7-4,.8-8.1,1.2-12.2,1.2"/>
    <path class="st9" d="M21.8,35.6v7.8c2.4.4,4.9.5,7.4.2v-7.2c-2.5-.1-4.9-.4-7.4-.8"/>
    <path class="st9" d="M48,27.5c-5.2,1.5-10.5,2.3-15.9,2.4h0c-5.4,0-10.8-.8-15.9-2.4l-2.3,6.1c5.9,1.9,12,2.9,18.2,2.9h0c6.2,0,12.3-1.1,18.2-2.9l-2.3-6.1Z"/>
  </g>
  <g class="st5">
    <path class="st3" d="M50.5,63.7l-36.5.2c-7.5,0-13.7-6.1-13.7-13.6L0,13.8C0,6.3,6.1.1,13.7,0h36.5c7.5,0,13.7,6.1,13.7,13.6l.2,36.5c0,7.5-6.1,13.7-13.6,13.7h0Z"/>
    <g>
      <path class="st17" d="M24.5,41.2c.3-1,.6-2.1,1.2-3-2.7-1.9-4.4-5-4.4-8.5,0-5.7,4.7-10.4,10.4-10.4s10.4,4.7,10.4,10.4-.2,2.2-.5,3.2c2.2,1,4,2.6,5.3,4.6,1.6,0,3.1.6,4.4,1.4,1.3-2.8,2.1-5.9,2.1-9.2,0-12-9.7-21.7-21.7-21.7S10,17.8,10,29.7s3.8,14,9.5,17.9c.3-2.9,2.2-5.4,5-6.5h0Z"/>
      <path class="st16" d="M53.9,45.7c-.6-4-3.9-7-8-7.1-1.3-2.2-3.2-3.8-5.5-4.7-.6-.2-1.3-.4-2-.5-.6,0-1.3-.2-1.9-.2-5.2,0-9.6,3.6-10.7,8.7-2.7.9-4.6,3.4-4.6,6.4s3,6.8,6.8,6.8,2.6-.4,3.7-1.1c1.5.7,3.1,1.1,4.8,1.1s3.5-.4,5-1.2c1.3.8,2.8,1.2,4.3,1.2,4.3,0,7.8-3.3,8.2-7.5v-1.9h0Z"/>
    </g>
  </g>
  <g class="st5">
    <path class="st3" d="M12.4,0h39.1c6.8,0,12.4,5.5,12.4,12.4v39.2c0,6.8-5.5,12.4-12.4,12.4H12.4c-6.8,0-12.4-5.5-12.4-12.4V12.4C0,5.5,5.5,0,12.4,0Z"/>
    <g>
      <path class="st21" d="M5.4,33.3c0,14,11.6,25.4,25.9,25.4s25.9-11.4,25.9-25.4S45.7,7.8,31.3,7.8,5.4,19.2,5.4,33.3Z"/>
      <path class="st19" d="M39.2,5.6c-1,1.1-3,2-5.8,2.7-4.7,1.1-5.7,1.4-7.1,2.2-.8.4-1.8,1.1-2.4,1.6-1.1.9-1.9,2.7-1.7,3.3.1.3,2.8,3.9,6,8.4,3.2,4.4,6.2,8.7,6.9,9.7.7.9,1.1,1.8,1.1,1.8,0,.1-.6,0-1.1-.1-2.2-.7-6.1,0-8.9,1.4-2.1,1.1-4.4,3.4-5.4,5.3-1.1,2.2-1.3,5.2-.4,7.2.8,2.2,2.6,3.9,5,5.2,1.8.9,2.2.9,4.6,1.1,1.9.1,3,0,4.2-.3,5.1-1.5,8.9-5.4,9.2-10.1.1-2.6-.1-3.4-3.6-9.4-5.4-9.2-10.3-17.7-10.3-17.8,0,0,1-.1,2.2-.3,3.6-.1,6.5-1.9,8-4.8.7-1.2.7-1.6.7-4.2s-.1-3.1-.3-3.3c-.1-.4-.3-.3-1,.4h0Z"/>
    </g>
  </g>
  <g class="st5">
    <path class="st1" d="M32.1,1.1h0c-1.5,0-3,.3-4.2,1L4.1,14.4C1.5,15.7,0,18.1,0,20.7v24.7c0,2.6,1.5,5,4.1,6.3l23.8,12.4c2.5,1.3,5.6,1.3,8.1,0l23.8-12.4c2.5-1.3,4.1-3.7,4.1-6.3v-24.7c0-2.6-1.5-5-4.1-6.3L36,2.1c-1.2-.6-2.5-.9-3.9-1Z"/>
    <path class="st0" d="M32.1,0h0c-1.5,0-3,.3-4.2,1L4.1,13.3C1.5,14.6,0,17,0,19.6v24.7c0,2.6,1.5,5,4.1,6.3l23.8,12.4c2.5,1.3,5.6,1.3,8.1,0l23.8-12.4c2.5-1.3,4.1-3.7,4.1-6.3v-24.7c0-2.6-1.5-5-4.1-6.3L36,1c-1.2-.6-2.5-.9-3.9-1Z"/>
    <path class="st22" d="M32,7c-.2,0-.4,0-.5.1l-23.3,12.1c-.3.2-.5.4-.5.7v24.1c0,.3.2.6.5.7l23.3,12.1c.3.2.7.2,1,0l23.3-12.1c.3-.2.5-.4.5-.7v-24.1h0c0-.3-.2-.6-.5-.7l-23.3-12.1c-.1,0-.3-.1-.5-.1h0Z"/>
    <g class="st14">
      <path d="M24.9,20.5c-5.3,0-9.6,4.4-9.6,9.8,0,8.4,14.8,15,16.6,19.9,1.8-4.9,16.6-11.5,16.6-19.9s-4.3-9.8-9.6-9.8-5.3,1.5-7,3.4c-1.8-1.9-4.3-3.4-7-3.4Z"/>
    </g>
    <path class="st8" d="M24.9,19.4c-5.3,0-9.6,4.4-9.6,9.8,0,8.4,14.8,15,16.6,19.9,1.8-4.9,16.6-11.5,16.6-19.9s-4.3-9.8-9.6-9.8-5.3,1.5-7,3.4c-1.8-1.9-4.3-3.4-7-3.4Z"/>
    <path class="st6" d="M32.1,0h0c-1.5,0-3,.3-4.2,1L4.1,13.3C1.5,14.6,0,17,0,19.6v1.1c0-2.6,1.5-5,4.1-6.3L27.9,2.1c1.3-.7,2.8-1,4.2-1h0c1.4,0,2.7.4,3.9,1l23.8,12.4c2.5,1.3,4.1,3.7,4.1,6.3v-1.1c0-2.6-1.5-5-4.1-6.3L36,1c-1.2-.6-2.5-.9-3.9-1Z"/>
    <g class="st14">
      <path class="st15" d="M24.9,19.4c-5.3,0-9.6,4.4-9.6,9.7s0,.2,0,.4c.4-5,4.5-9,9.5-9s5.3,1.5,7,3.4c1.8-1.9,4.3-3.4,7-3.4,5,0,9.2,4,9.5,9,0-.1,0-.2,0-.4,0-5.4-4.3-9.7-9.6-9.7s-5.3,1.5-7,3.4c-1.8-1.9-4.3-3.4-7-3.4Z"/>
    </g>
    <path class="st12" d="M32,7c-.2,0-.4,0-.5.1l-23.3,12.1c-.3.2-.5.4-.5.7v1.1c0-.3.2-.6.5-.7l23.3-12.1c.2,0,.3-.1.5-.1h0c.2,0,.3,0,.5.1l23.3,12.1c.3.2.5.4.5.7v-1.1h0c0-.3-.2-.6-.5-.7l-23.3-12.1c-.1,0-.3-.1-.5-.1h0Z"/>
    <path class="st13" d="M7.7,44v1.1c0,.3.2.6.5.7l23.3,12.1c.3.2.7.2,1,0l23.3-12.1c.3-.2.5-.4.5-.7v-1.1c0,.3-.2.6-.5.7l-23.3,12.1c-.3.2-.7.2-1,0l-23.3-12.1c-.3-.2-.5-.4-.5-.7Z"/>
  </g>
  <g>
    <path class="st4" d="M11.5,0h41c7.7,0,11.5,3.8,11.5,11.5v41c0,7.7-3.8,11.5-11.5,11.5H11.5c-7.7,0-11.5-3.8-11.5-11.5V11.5C0,3.8,3.8,0,11.5,0Z"/>
    <path class="st15" d="M41.5,25.4c-8,0-14.6,5.5-14.6,12.2s6.5,12.2,14.6,12.2c1.9,0,3.8-.3,5.5-.9l4.2,2.2-.6-4c3.3-2,5.3-5.6,5.4-9.5,0-6.7-6.5-12.2-14.6-12.2Z"/>
    <path class="st15" d="M25.3,12.2c8.6,0,15.6,5.2,17.3,12.2-3.1-.3-18.9,1.5-16.4,17-2.3,0-5.4,0-7.6-.8l-5,2.7.7-4.8c-3.9-2.6-6.5-6.8-6.5-11.4,0-8.1,7.9-14.7,17.6-14.7Z"/>
    <path class="st20" d="M17.3,22c0,1.3,1,2.3,2.3,2.3s2.3-1,2.3-2.3-1-2.3-2.3-2.3-2.3,1-2.3,2.3Z"/>
    <path class="st20" d="M28.8,22c0,1.3,1,2.3,2.3,2.3,1.3,0,2.3-1,2.3-2.3h0c0-1.3-1-2.3-2.3-2.3s-2.3,1-2.3,2.3Z"/>
    <path class="st20" d="M34.6,34c0,1.1.9,2,2,2s2-.9,2-2-.9-2-2-2-2,.9-2,2Z"/>
    <path class="st20" d="M44.3,34c0,1.1.9,2,2,2s2-.9,2-2-.9-2-2-2-2,.9-2,2Z"/>
  </g>
</svg>