<?xml version="1.0" encoding="UTF-8"?>
<svg id="_图层_1" xmlns="http://www.w3.org/2000/svg" version="1.1" viewBox="0 0 64 64" width="16" height="16">
  <!-- Generator: Adobe Illustrator 29.0.1, SVG Export Plug-In . SVG Version: 2.1.0 Build 192)  -->
  <defs>
    <style>
      .st0, .st1, .st2, .st3, .st4, .st5 {
        display: none;
      }

      .st0, .st1, .st6, .st7, .st5, .st8 {
        isolation: isolate;
      }

      .st0, .st6, .st7, .st5 {
        opacity: .2;
      }

      .st1, .st9, .st7, .st5, .st8 {
        fill: #fff;
      }

      .st1, .st8 {
        opacity: .1;
      }

      .st10, .st2 {
        fill: #0245c5;
      }

      .st4 {
        fill: #e44332;
      }

      .st11 {
        fill: #ebebeb;
      }
    </style>
  </defs>
  <path class="st10" d="M47.5,64.1H13.8c-7.6,0-13.8-6.3-13.8-13.8V13.7C0,6.2,6.2,0,13.7,0h36.6c7.5,0,13.7,6.2,13.7,13.7v36.6c0,7.5-6.2,13.7-13.7,13.7h-2.9.1Z"/>
  <g class="st3">
    <path class="st0" d="M8,1.1C3.6,1.2,0,4.7,0,9.1v48C0,61.5,3.6,65.1,8,65.1h47.9c4.4,0,8-3.6,8-8V9.1c0-4.4-3.6-8-8-8H8Z"/>
    <path class="st4" d="M8,0C3.6,0,0,3.6,0,8v48C0,60.3,3.6,63.9,8,63.9h47.9c4.4,0,8-3.6,8-8V8c0-4.4-3.6-8-8-8H8Z"/>
    <path class="st6" d="M36.2,10.3c-.4,0-.7,0-1,.3-.3.2-20.9,12.7-21.6,13.1-.8.5-1.8.5-2.7,0L0,17v5.7c2.7,1.6,9.2,5.7,10.8,6.6,1,.6,1.9.6,2.8,0l25.8-15.6c.6-.3.6-1.4,0-1.7-.6-.4-1.8-1.1-2.2-1.3-.3-.2-.6-.3-1-.3ZM36.2,21.7c-.4,0-.7,0-1,.3-.3.2-20.9,12.7-21.6,13.1-.8.5-1.8.5-2.7,0L0,28.4v5.7c2.7,1.6,9.2,5.7,10.8,6.6,1,.6,1.9.6,2.8,0l25.8-15.6c.6-.3.6-1.4,0-1.7-.6-.4-1.8-1.1-2.2-1.3-.3-.2-.6-.3-1-.3ZM36.2,33.1c-.4,0-.7,0-1,.3-.3.2-20.9,12.7-21.6,13.1-.8.5-1.8.5-2.7,0L0,39.8v5.7c2.7,1.6,9.2,5.7,10.8,6.6,1,.6,1.9.6,2.8,0l25.8-15.6c.6-.3.6-1.4,0-1.7-.6-.4-1.8-1.1-2.2-1.3-.3-.2-.6-.3-1-.3Z"/>
    <path class="st9" d="M36.2,9.1c-.4,0-.7,0-1,.3-.3.2-20.9,12.7-21.6,13.1-.8.5-1.8.5-2.7,0L0,15.8v5.7c2.7,1.6,9.2,5.7,10.8,6.6,1,.6,1.9.6,2.8,0l25.8-15.6c.6-.3.6-1.4,0-1.7-.6-.4-1.8-1.1-2.2-1.3-.3-.2-.6-.3-1-.3ZM36.2,20.6c-.4,0-.7,0-1,.3-.3.2-20.9,12.7-21.6,13.1-.8.5-1.8.5-2.7,0L0,27.3v5.7c2.7,1.6,9.2,5.7,10.8,6.6,1,.6,1.9.6,2.8,0l25.8-15.6c.6-.3.6-1.4,0-1.7-.6-.4-1.8-1.1-2.2-1.3-.3-.2-.6-.3-1-.3ZM36.2,32c-.4,0-.7,0-1,.3-.3.2-20.9,12.7-21.6,13.1-.8.5-1.8.5-2.7,0L0,38.7v5.7c2.7,1.6,9.2,5.7,10.8,6.6,1,.6,1.9.6,2.8,0l25.8-15.6c.6-.3.6-1.4,0-1.7-.6-.4-1.8-1.1-2.2-1.3-.3-.2-.6-.3-1-.3Z"/>
    <path class="st5" d="M8,0C3.6,0,0,3.6,0,8v1.1C0,4.7,3.6,1.2,8,1.1h47.9c4.4,0,8,3.6,8,8v-1.1c0-4.4-3.6-8-8-8H8Z"/>
  </g>
  <g>
    <path class="st0" d="M63.9,58.5V5.6c0-2.3-1.5-4.2-3.3-4.2H5.5c-1.8,0-3.3,1.9-3.3,4.2v52.9c0,2.3,1.5,4.2,3.3,4.2h55.1c1.8,0,3.3-1.9,3.3-4.2Z"/>
    <path class="st2" d="M63.9,57.1V4.2c0-2.3-1.5-4.2-3.3-4.2H5.5c-1.8,0-3.3,1.9-3.3,4.2v52.9c0,2.3,1.5,4.2,3.3,4.2h55.1c1.8,0,3.3-1.9,3.3-4.2Z"/>
    <path class="st7" d="M64,50.3V14.1c-.2-4.8-3.5-14.1-13.2-13.8L33.1,0v64h17.2c5.3,0,13.6-4.3,13.7-13.8Z"/>
    <path class="st8" d="M63.9,30.6V12.6c0-6-5.9-12.3-13.1-12.3L13.7,0C6,0,0,6.5,0,13.3v17.4h64Z"/>
    <path class="st1" d="M5.5,0c-1.8,0-3.3,1.9-3.3,4.2v1.4c0-2.3,1.5-4.2,3.3-4.2h55.1c1.8,0,3.3,1.9,3.3,4.2v-1.4c0-2.3-1.5-4.2-3.3-4.2H5.5Z"/>
    <path class="st0" d="M33.1,64.1v-30.6c0-.8-.5-1.4-1.1-1.4H1.1c-.6,0-1.1.6-1.1,1.4v30.6c0,.8.5,1.4,1.1,1.4h30.9c.6,0,1.1-.6,1.1-1.4Z"/>
    <path class="st11" d="M33.1,62.7v-30.6c0-.8-.5-1.4-1.1-1.4H1.1c-.6,0-1.1.6-1.1,1.4v18.3c0,7.9,6,13.8,13,13.8h19c.6,0,1.1-.6,1.1-1.4Z"/>
  </g>
</svg>