<?xml version="1.0" encoding="UTF-8" standalone="no"?>
<svg
   id="_图层_1"
   version="1.1"
   viewBox="0 0 64 64" width="16" height="16"
   sodipodi:docname="worms.svg"
   xml:space="preserve"
   inkscape:version="1.4 (e7c3feb100, 2024-10-09)"
   xmlns:inkscape="http://www.inkscape.org/namespaces/inkscape"
   xmlns:sodipodi="http://sodipodi.sourceforge.net/DTD/sodipodi-0.dtd"
   xmlns="http://www.w3.org/2000/svg"
   xmlns:svg="http://www.w3.org/2000/svg"><sodipodi:namedview
     id="namedview26"
     pagecolor="#505050"
     bordercolor="#eeeeee"
     borderopacity="1"
     inkscape:showpageshadow="0"
     inkscape:pageopacity="0"
     inkscape:pagecheckerboard="0"
     inkscape:deskcolor="#505050"
     inkscape:zoom="10.6875"
     inkscape:cx="32"
     inkscape:cy="32"
     inkscape:window-width="1920"
     inkscape:window-height="939"
     inkscape:window-x="0"
     inkscape:window-y="34"
     inkscape:window-maximized="1"
     inkscape:current-layer="_图层_1" /><!-- Generator: Adobe Illustrator 29.0.1, SVG Export Plug-In . SVG Version: 2.1.0 Build 192)  --><defs
     id="defs6"><style
       id="style1">
      .st0 {
        fill-opacity: .5;
      }

      .st0, .st1, .st2, .st3, .st4, .st5, .st6, .st7 {
        fill: #fff;
      }

      .st8 {
        fill: #133c9a;
      }

      .st2, .st9 {
        display: none;
      }

      .st3 {
        fill-opacity: .2;
      }

      .st4 {
        fill-opacity: .9;
      }

      .st10 {
        fill: #3370ff;
      }

      .st11 {
        fill: url(#_未命名的渐变_3);
      }

      .st12 {
        fill: url(#_未命名的渐变);
      }

      .st5 {
        fill-opacity: .3;
      }

      .st6 {
        fill-opacity: 0;
      }

      .st7 {
        fill-opacity: .7;
      }

      .st13 {
        fill: #00d6b9;
      }

      .st14 {
        fill: url(#_未命名的渐变_2);
      }
    </style><radialGradient
       id="_未命名的渐变"
       data-name="未命名的渐变"
       cx="123.9"
       cy="-40.2"
       fx="123.9"
       fy="-40.2"
       r="59.4"
       gradientTransform="translate(-26.8 25.5) scale(.6 -.7)"
       gradientUnits="userSpaceOnUse"><stop
         offset="0"
         stop-color="#db202e"
         id="stop1" /><stop
         offset="1"
         stop-color="#e01b24"
         id="stop2" /></radialGradient><radialGradient
       id="_未命名的渐变_2"
       data-name="未命名的渐变 2"
       cx="67.6"
       cy="26.8"
       fx="67.6"
       fy="26.8"
       r="105.2"
       gradientTransform="translate(-26.6 25.3) scale(.6 -.7)"
       gradientUnits="userSpaceOnUse"><stop
         offset="0"
         stop-color="#ffb648"
         id="stop3" /><stop
         offset="1"
         stop-color="#ff7800"
         stop-opacity="0"
         id="stop4" /></radialGradient><radialGradient
       id="_未命名的渐变_3"
       data-name="未命名的渐变 3"
       cx="61.7"
       cy="18.6"
       fx="61.7"
       fy="18.6"
       r="68"
       gradientTransform="translate(-26.8 25.8) scale(.6 -.7)"
       gradientUnits="userSpaceOnUse"><stop
         offset="0"
         stop-color="#c64600"
         id="stop5" /><stop
         offset="1"
         stop-color="#a51d2d"
         id="stop6" /></radialGradient></defs><path
     class="st1"
     d="M 47.5,64.1 H 13.8 C 6.2,64.1 0,57.8 0,50.3 V 13.7 C 0,6.2 6.2,0 13.7,0 H 50.3 C 57.8,0 64,6.2 64,13.7 V 50.3 C 64,57.8 57.8,64 50.3,64 h -2.9 0.1 z"
     id="path6"
     style="fill:#fecd38;fill-opacity:1"
     sodipodi:nodetypes="cssssssssccc" /><g
     id="g29"
     transform="matrix(4,0,0,4,0.04678363,0.06432737)"><path
       fill="#3f3f3f"
       d="m 7.9575,2.09 c -1.7811,0 -2.8437,1.1112 -2.8437,1.1112 l 1.6343,3.1055 a 2.182,2.182 0 0 1 1.252,-0.3982 2.182,2.182 0 0 1 1.1913,0.3568 l 1.6141,-3.064 c 0,0 -1.0675,-1.1112 -2.848,-1.1112 z m 0.042549,4.9095 c -0.60223,0 -1.091,0.48877 -1.091,1.091 0,0.60278 0.48877,1.091 1.091,1.091 0.60278,0 1.091,-0.48822 1.091,-1.091 0,-0.60278 -0.48822,-1.091 -1.091,-1.091 z m 2.212,1.0261 c -0.0054,0.15983 -0.03164,0.32075 -0.07037,0.47949 a 2.182,2.182 0 0 1 -0.01637,0.070369 c -0.0028,0.01091 -0.0049,0.022366 -0.0082,0.033821 a 2.182,2.182 0 0 1 -1.0908,1.4037 l 2.0031,2.9419 c 0,0 1.5356,-0.33221 2.4258,-1.8132 0.89025,-1.481 0.41949,-2.9206 0.41949,-2.9206 V 8.21999 l -3.6636,-0.19474 z m -4.425,0.0447 -3.6638,0.1959 c 0,0 -0.46853,1.4439 0.42189,2.925 0.8903,1.481 2.4236,1.809 2.4236,1.809 l 2.0086,-2.95 C 6.782539,9.934 6.605239,9.7888 6.446539,9.6219 A 2.182,2.182 0 0 1 6.364739,9.5314 C 6.341239,9.5036 6.315639,9.4779 6.293239,9.449 A 2.182,2.182 0 0 1 6.291039,9.4468 2.182,2.182 0 0 1 6.139939,9.2264 C 6.135029,9.21876 6.128483,9.212217 6.12412,9.204034 6.1143,9.188219 6.108304,9.171854 6.099576,9.156035 a 2.182,2.182 0 0 1 -0.0714,-0.1374 c -0.1495,-0.3055 -0.2302,-0.6273 -0.2411,-0.9481 z"
       id="path2" /></g></svg>
