<?xml version="1.0" encoding="UTF-8"?>
<svg id="_图层_1" data-name="图层_1" xmlns="http://www.w3.org/2000/svg" version="1.1" viewBox="0 0 202 200" width="16" height="16">
  <!-- Generator: Adobe Illustrator 29.0.1, SVG Export Plug-In . SVG Version: 2.1.0 Build 192)  -->
  <defs>
    <style>
      .st0 {
        fill: #21a170;
      }

      .st1 {
        fill: #fff;
      }

      .st2 {
        fill: #007d53;
      }

      .st3 {
        fill: #38b27f;
      }

      .st4 {
        fill: #109968;
      }
    </style>
  </defs>
  <path class="st4" d="M5.3,28.9c0-12.8,10.8-23.2,24-23.2h144.3c13.3,0,24,10.4,24,23.2v139.4c0,12.8-10.8,23.2-24,23.2H29.4c-13.3,0-24-10.4-24-23.2,0,0,0-139.4,0-139.4Z"/>
  <path class="st2" d="M5.7,153.1h191.3v17.6c0,11.1-10.7,20.1-23.9,20.1H29.6c-13.2,0-23.9-9-23.9-20.1,0,0,0-17.6,0-17.6Z"/>
  <path class="st3" d="M173.6,5.7c12.9,0,23.3,10.4,23.3,23.2v140.2c0,12.4-10.1,22.5-22.6,22.5s-21.2-9.4-21.2-21.1V5.7h20.4Z"/>
  <path class="st0" d="M153.2,172.6c0,10.1,9.4,18.3,21,18.3s22.4-8.7,22.4-19.5-9.4-18.3-21-18.3h-22.4v19.5h0Z"/>
  <path class="st1" d="M51.7,42.4c6.5-6.5,16.8-9.6,29-8.6,13,1.1,20.6,7.1,24.6,13.7,1.6,2.6,2.7,5.4,3.3,8.4.2,1.1.4,2.1.4,2.8,0,.4,0,.9,0,1.3h0q0,0-7.8,0t-7.8,0h0c0,0,0,.1,0,.1h0c0-.4,0-.8-.2-1.2-.3-1.2-.7-2.4-1.4-3.5-1.3-2.2-4.3-5.5-12.5-6.2-9-.8-14.2,1.7-16.6,4.1-2.2,2.2-2.7,4.9-1.5,7.4.7,1.6,2.4,3.2,6.7,4.9,3.6,1.4,7.9,2.4,12.8,3.5l2.7.6c5.5,1.3,12.1,2.9,17.3,6.1,2.7,1.6,5.4,3.9,7.4,6.9,2,3.1,3,6.8,3,10.8,0,11.7-7.8,19.3-16.6,22.9-8.6,3.5-19.2,3.9-28.6,1.4-11.1-3-17.3-9.2-20.5-15.3-1.3-2.4-2.2-5-2.7-7.6-.2-.8-.3-1.7-.4-2.5,0-.4,0-.8,0-1.2h0q0,0,7.8,0,7.8,0,7.8,0h0c0,0,0-.1,0-.1h0c0,.3,0,.6.1,1,.2.8.5,2,1.2,3.3,1.2,2.3,4,5.7,10.7,7.5,6.4,1.7,13.5,1.3,18.6-.7,4.9-2,6.9-4.9,6.9-8.4s-.3-1.9-.6-2.3c-.3-.5-1-1.2-2.2-1.9-2.8-1.7-7-2.9-12.8-4.2-.8-.2-1.6-.4-2.4-.5-4.8-1.1-10.4-2.4-15.2-4.3-5.7-2.2-12-6-15.2-13-3.9-8.7-2-18.2,4.7-24.9Z"/>
</svg>
