<?xml version="1.0" standalone="no"?><!DOCTYPE svg PUBLIC "-//W3C//DTD SVG 1.1//EN" "http://www.w3.org/Graphics/SVG/1.1/DTD/svg11.dtd"><svg t="1732235192868" class="icon" viewBox="0 0 1024 1024" version="1.1" xmlns="http://www.w3.org/2000/svg" p-id="21154" xmlns:xlink="http://www.w3.org/1999/xlink" width="16" height="16"><path d="M0 128A128 128 0 0 1 128 0h768A128 128 0 0 1 1024 128v768a128 128 0 0 1-128 128h-768A128 128 0 0 1 0 896v-768z" fill="#E8B600" p-id="21155"></path><path d="M0 784.008533h1024V896a128 128 0 0 1-128 128h-768A128 128 0 0 1 0 896v-111.991467z" fill="#DBAC00" p-id="21156"></path><path d="M896 0A128 128 0 0 1 1024 128v772.130133A123.904 123.904 0 0 1 900.130133 1024a116.1216 116.1216 0 0 1-116.1216-116.1216V0H896z" fill="#F7C200" p-id="21157"></path><path d="M784.008533 907.8784A116.1216 116.1216 0 0 0 900.130133 1024 123.904 123.904 0 0 0 1024 900.130133a116.1216 116.1216 0 0 0-116.1216-116.1216h-123.869867v123.869867z" fill="#EBB800" p-id="21158"></path><path d="M628.002133 160s-4.778667 30.7712-16.964266 74.8544l-3.054934 10.8032c-20.155733 69.393067-57.565867 165.819733-121.173333 229.632-77.9264 66.338133-123.221333 76.049067-177.152 78.779733l-35.140267 35.4304-0.477866 0.546134a46.472533 46.472533 0 0 1-34.7136 15.5648l-103.304534 2.389333 95.095467-87.108267 0.068267-1.28c2.730667-54.016 16.964267-142.421333 86.7328-217.941333 61.0816-66.0992 155.477333-101.495467 224.477866-121.514667l11.025067-3.140266c43.9296-12.219733 74.5984-17.032533 74.5984-17.032534zM514.730667 273.288533c-51.848533 19.012267-103.68 45.448533-138.0864 82.688-34.696533 37.546667-51.3536 79.9232-59.2384 117.435734 16.503467-1.3824 28.945067-3.908267 42.24-9.198934 16.6912-6.638933 39.304533-19.524267 72.669866-47.598933 36.096-37.2736 63.197867-91.2896 82.414934-143.3088z" fill="#FFFFFF" p-id="21159"></path></svg>
