<svg width="16" height="16" viewBox="0 0 128 128" fill="none" xmlns="http://www.w3.org/2000/svg">
<path d="M0 16C0 7.16344 7.16344 0 16 0H112C120.837 0 128 7.16344 128 16V112C128 120.837 120.837 128 112 128H16C7.16344 128 0 120.837 0 112V16Z" fill="#1885DE"/>
<path d="M0 98H128V112C128 120.837 120.837 128 112 128H16C7.16344 128 0 120.837 0 112V98Z" fill="#0070CC"/>
<path d="M112 6.11959e-07C120.837 9.98217e-07 128 7.16345 128 16L128 112.516C128 121.068 121.068 128 112.516 128C104.499 128 98 121.501 98 113.484L98 0L112 6.11959e-07Z" fill="#40A9FF"/>
<path d="M98 113.484C98 121.501 104.499 128 112.516 128C121.068 128 128 121.068 128 112.516C128 104.499 121.501 98 113.484 98H98V113.484Z" fill="#1885DE"/>
<path d="M30 35H40V80H30V35Z" fill="white"/>
<path d="M18 41.5H51V51.5H18V41.5Z" fill="white"/>
<path d="M46.5 18.5H51V28.5H46.5V18.5Z" fill="white"/>
<path d="M59 18.5H63.5V28.5H59V18.5Z" fill="white"/>
<path d="M59 41.5H63.5V51.5H59V41.5Z" fill="white"/>
<path fill-rule="evenodd" clip-rule="evenodd" d="M47 51.5H46.5C37.3873 51.5 30 44.1127 30 35C30 25.8873 37.3873 18.5 46.5 18.5H47V28.5H46.5C42.9101 28.5 40 31.4101 40 35C40 38.5899 42.9102 41.5 46.5 41.5H47V51.5Z" fill="white"/>
<path fill-rule="evenodd" clip-rule="evenodd" d="M63 51.5H63.5C72.6127 51.5 80 44.1127 80 35C80 25.8873 72.6127 18.5 63.5 18.5H63V28.5H63.5C67.0899 28.5 70 31.4101 70 35C70 38.5899 67.0898 41.5 63.5 41.5H63V51.5Z" fill="white"/>
</svg>
