<?xml version="1.0" standalone="no"?><!DOCTYPE svg PUBLIC "-//W3C//DTD SVG 1.1//EN" "http://www.w3.org/Graphics/SVG/1.1/DTD/svg11.dtd"><svg t="1732235063218" class="icon" viewBox="0 0 1024 1024" version="1.1" xmlns="http://www.w3.org/2000/svg" p-id="15544" xmlns:xlink="http://www.w3.org/1999/xlink" width="16" height="16"><path d="M0 128a128 128 0 0 1 128-128h768a128 128 0 0 1 128 128v768a128 128 0 0 1-128 128H128a128 128 0 0 1-128-128V128z" fill="#009E8C" p-id="15545"></path><path d="M0 784h1024V896a128 128 0 0 1-128 128H128a128 128 0 0 1-128-128v-112z" fill="#008575" p-id="15546"></path><path d="M896 0a128 128 0 0 1 128 128v772.138667C1024 968.533333 968.533333 1024 900.138667 1024a116.138667 116.138667 0 0 1-116.138667-116.138667V0H896z" fill="#00B8A2" p-id="15547"></path><path d="M784 907.861333A116.138667 116.138667 0 0 0 900.138667 1024C968.533333 1024 1024 968.533333 1024 900.138667a116.138667 116.138667 0 0 0-116.138667-116.138667h-123.861333v123.861333z" fill="#00A390" p-id="15548"></path><path d="M291.669333 209.792L103.978667 270.762667 172.586667 356.693333l187.648-61.013333 68.522666 86.016 187.648-60.970667-68.522666-85.973333-187.648 60.970667-68.522667-85.973334zM355.285333 401.621333l-187.648 60.970667 68.522667 85.973333 187.648-61.013333 68.522667 86.016 187.690666-61.013333L611.413333 426.666667l-187.648 60.970666-68.522666-85.973333z" fill="#FFFFFF" p-id="15549"></path></svg>
