<?xml version="1.0" encoding="UTF-8"?>
<svg id="_图层_1" xmlns="http://www.w3.org/2000/svg" version="1.1" xmlns:xlink="http://www.w3.org/1999/xlink" viewBox="0 0 64 64" width="16" height="16">
  <!-- Generator: Adobe Illustrator 29.0.1, SVG Export Plug-In . SVG Version: 2.1.0 Build 192)  -->
  <defs>
    <style>
      .st0 {
        fill: url(#_未命名的渐变_11);
      }

      .st0, .st1, .st2, .st3, .st4, .st5, .st6, .st7, .st8, .st9, .st10, .st11, .st12, .st13, .st14, .st15 {
        fill-rule: evenodd;
      }

      .st0, .st15 {
        fill-opacity: .2;
      }

      .st1 {
        fill: url(#_未命名的渐变_14);
        fill-opacity: .4;
      }

      .st16 {
        stroke: #df574d;
      }

      .st16, .st17, .st18, .st19, .st20, .st21 {
        fill: none;
        stroke-linecap: round;
      }

      .st16, .st18 {
        stroke-linejoin: bevel;
      }

      .st16, .st18, .st20, .st21 {
        stroke-width: 3px;
      }

      .st22, .st23, .st24, .st25, .st26 {
        display: none;
      }

      .st22, .st23, .st18, .st27, .st19, .st28, .st29 {
        isolation: isolate;
      }

      .st22, .st18, .st19, .st28 {
        opacity: .2;
      }

      .st23, .st30, .st29 {
        fill: #fff;
      }

      .st23, .st27, .st29 {
        opacity: .1;
      }

      .st24, .st31 {
        fill: #236fbc;
      }

      .st2 {
        fill: url(#_未命名的渐变_13);
      }

      .st2, .st7 {
        fill-opacity: .3;
      }

      .st25 {
        fill: #992b2b;
      }

      .st17 {
        stroke: #76eead;
      }

      .st17, .st19 {
        stroke-linejoin: round;
        stroke-width: 6px;
      }

      .st3 {
        fill: url(#_未命名的渐变_8);
      }

      .st18, .st19 {
        stroke: #000;
      }

      .st4 {
        fill: url(#_未命名的渐变_61);
      }

      .st4, .st6 {
        fill-opacity: .6;
      }

      .st5 {
        fill: #2e67cb;
      }

      .st6 {
        fill: url(#_未命名的渐变_6);
      }

      .st7 {
        fill: url(#_未命名的渐变_122);
      }

      .st32 {
        fill: #654c4a;
      }

      .st8 {
        fill: url(#_未命名的渐变_3);
      }

      .st33 {
        fill: #07a6ff;
      }

      .st9 {
        fill: #0df;
      }

      .st20 {
        stroke: #654c4a;
      }

      .st34 {
        fill: #9b8688;
      }

      .st10 {
        fill: url(#_未命名的渐变_2);
      }

      .st10, .st11, .st14 {
        fill-opacity: .5;
      }

      .st11 {
        fill: url(#_未命名的渐变_121);
      }

      .st12 {
        fill: url(#_未命名的渐变_4);
      }

      .st21 {
        stroke: #bdb0b2;
      }

      .st13 {
        fill: url(#_未命名的渐变_10);
        fill-opacity: .8;
      }

      .st35 {
        fill: #bdb0b2;
      }

      .st14 {
        fill: url(#_未命名的渐变_12);
      }

      .st15 {
        fill: url(#_未命名的渐变_9);
      }
    </style>
    <linearGradient id="_未命名的渐变_4" data-name="未命名的渐变 4" x1="631.9" y1="-720.9" x2="626.2" y2="-759.1" gradientTransform="translate(-274 -332) scale(.5 -.5)" gradientUnits="userSpaceOnUse">
      <stop offset="0" stop-color="#145fff" stop-opacity=".8"/>
      <stop offset="1" stop-color="#3942ff" stop-opacity="0"/>
    </linearGradient>
    <radialGradient id="_未命名的渐变_2" data-name="未命名的渐变 2" cx="-7.9" cy="82.5" fx="-7.9" fy="82.5" r="1" gradientTransform="translate(-243.3 -1389.5) rotate(176.6) scale(27.4 -17.5) skewX(0)" gradientUnits="userSpaceOnUse">
      <stop offset="0" stop-color="#12acff" stop-opacity=".6"/>
      <stop offset="1" stop-color="#3954ff" stop-opacity="0"/>
    </radialGradient>
    <linearGradient id="_未命名的渐变_3" data-name="未命名的渐变 3" x1="627" y1="-708.5" x2="627" y2="-766.6" gradientTransform="translate(-274 -332) scale(.5 -.5)" gradientUnits="userSpaceOnUse">
      <stop offset="0" stop-color="#0087f5"/>
      <stop offset="1" stop-color="#024dce"/>
    </linearGradient>
    <radialGradient id="_未命名的渐变_12" data-name="未命名的渐变 12" cx="19.7" cy="82" fx="19.7" fy="82" r="1" gradientTransform="translate(-1238.7 -511.4) rotate(103) scale(12.7 -16.6) skewX(-.3)" gradientUnits="userSpaceOnUse">
      <stop offset="0" stop-color="#110c87" stop-opacity=".2"/>
      <stop offset=".3" stop-color="#110c87" stop-opacity=".3"/>
      <stop offset="1" stop-color="#110c87" stop-opacity="0"/>
    </radialGradient>
    <radialGradient id="_未命名的渐变_6" data-name="未命名的渐变 6" cx="4" cy="38.5" fx="4" fy="38.5" r="1" gradientTransform="translate(235.2 584) rotate(-26.1) scale(17.8 -15) skewX(-.4)" gradientUnits="userSpaceOnUse">
      <stop offset="0" stop-color="#110c87" stop-opacity=".2"/>
      <stop offset=".5" stop-color="#110c87" stop-opacity=".2"/>
      <stop offset="1" stop-color="#110c87" stop-opacity="0"/>
    </radialGradient>
    <radialGradient id="_未命名的渐变_61" data-name="未命名的渐变 6" cx="3.5" cy="80.8" fx="3.5" fy="80.8" r="1" gradientTransform="translate(-1281.1 -1242.2) rotate(132.4) scale(21.1 -22.7) skewX(-.7)" xlink:href="#_未命名的渐变_6"/>
    <radialGradient id="_未命名的渐变_121" data-name="未命名的渐变 12" cx="-11.8" cy="64.3" fx="-11.8" fy="64.3" r="1" gradientTransform="translate(1464.7 -1577.2) rotate(-128.8) scale(32.9 -33.1) skewX(.6)" xlink:href="#_未命名的渐变_12"/>
    <linearGradient id="_未命名的渐变_8" data-name="未命名的渐变 8" x1="635.9" y1="-731.5" x2="582.9" y2="-696.4" gradientTransform="translate(-274 -332) scale(.5 -.5)" gradientUnits="userSpaceOnUse">
      <stop offset="0" stop-color="#0080ff"/>
      <stop offset="1" stop-color="#3acaff"/>
    </linearGradient>
    <linearGradient id="_未命名的渐变_9" data-name="未命名的渐变 9" x1="637.4" y1="-731.9" x2="589.5" y2="-701.7" gradientTransform="translate(-274 -332) scale(.5 -.5)" gradientUnits="userSpaceOnUse">
      <stop offset="0" stop-color="#00ecff" stop-opacity="0"/>
      <stop offset="1" stop-color="#00f3ff"/>
    </linearGradient>
    <radialGradient id="_未命名的渐变_10" data-name="未命名的渐变 10" cx="-24.3" cy="66.9" fx="-24.3" fy="66.9" r="1" gradientTransform="translate(546.2 -975.3) rotate(-134.1) scale(15.9 -16) skewX(.6)" gradientUnits="userSpaceOnUse">
      <stop offset="0" stop-color="#110c87" stop-opacity=".3"/>
      <stop offset=".5" stop-color="#110c87" stop-opacity="0"/>
      <stop offset="1" stop-color="#110c87" stop-opacity="0"/>
    </radialGradient>
    <radialGradient id="_未命名的渐变_11" data-name="未命名的渐变 11" cx="-18" cy="68.5" fx="-18" fy="68.5" r="1" gradientTransform="translate(653 -1304.2) rotate(-141.2) scale(21 -20.9) skewX(.6)" gradientUnits="userSpaceOnUse">
      <stop offset="0" stop-color="#110c87" stop-opacity="0"/>
      <stop offset=".2" stop-color="#110c87" stop-opacity=".3"/>
      <stop offset="1" stop-color="#110c87" stop-opacity="0"/>
    </radialGradient>
    <radialGradient id="_未命名的渐变_122" data-name="未命名的渐变 12" cx="-18.7" cy="64.5" fx="-18.7" fy="64.5" r="1" gradientTransform="translate(853.3 -1099.9) rotate(-128.8) scale(20.8 -20.9) skewX(.6)" xlink:href="#_未命名的渐变_12"/>
    <linearGradient id="_未命名的渐变_13" data-name="未命名的渐变 13" x1="573.6" y1="-708.6" x2="603.6" y2="-761.7" gradientTransform="translate(-274 -332) scale(.5 -.5)" gradientUnits="userSpaceOnUse">
      <stop offset="0" stop-color="#e2ff24"/>
      <stop offset=".2" stop-color="#bdff24"/>
      <stop offset="1" stop-color="#00dfff" stop-opacity="0"/>
    </linearGradient>
    <linearGradient id="_未命名的渐变_14" data-name="未命名的渐变 14" x1="610.9" y1="-767.3" x2="571.2" y2="-714.6" gradientTransform="translate(-274 -332) scale(.5 -.5)" gradientUnits="userSpaceOnUse">
      <stop offset="0" stop-color="#0700ff" stop-opacity=".8"/>
      <stop offset="1" stop-color="#00fff8" stop-opacity="0"/>
    </linearGradient>
  </defs>
  <path class="st31" d="M50.4,64H13.8c-7.6,0-13.8-6.2-13.8-13.7V13.7C0,6.2,6.2,0,13.7,0h36.5c7.5,0,13.7,6.2,13.7,13.7v36.6c0,7.5-6.2,13.7-13.7,13.7h.1Z"/>
  <g class="st26">
    <path class="st28" d="M7.6,17.7c-2.3,0-4.1,1.8-4.1,4.1v28.8c0,2.3,1.8,4.1,4.1,4.1h48.9c2.3,0,4.1-1.8,4.1-4.1v-28.8c0-2.3-1.8-4.1-4.1-4.1H7.6Z"/>
    <path class="st21" d="M14.5,16.7l30.5-11.5"/>
    <circle class="st34" cx="14.5" cy="16.7" r="3"/>
    <path class="st32" d="M7.6,16.7c-2.3,0-4.1,1.8-4.1,4.1v28.8c0,2.3,1.8,4.1,4.1,4.1h48.9c2.3,0,4.1-1.8,4.1-4.1v-28.8c0-2.3-1.8-4.1-4.1-4.1H7.6Z"/>
    <circle class="st28" cx="41.5" cy="37.7" r="3"/>
    <circle class="st34" cx="41.5" cy="36.7" r="3"/>
    <circle class="st28" cx="53.5" cy="37.7" r="3"/>
    <circle class="st34" cx="53.5" cy="36.7" r="3"/>
    <circle class="st30" cx="22" cy="35.2" r="13.5"/>
    <path class="st28" d="M22,21.7c-7.5,0-13.5,6-13.5,13.5,0,.2,0,.3,0,.5.3-7.2,6.2-13,13.5-13,7.2,0,13.1,5.6,13.5,12.8,0,0,0-.2,0-.3,0-7.5-6-13.5-13.5-13.5Z"/>
    <circle class="st28" cx="22" cy="36.2" r="10.5"/>
    <circle class="st34" cx="22" cy="35.2" r="10.5"/>
    <rect class="st34" x="38.5" y="42.7" width="18" height="6"/>
    <rect class="st27" x="38.5" y="42.7" width="18" height="1"/>
    <rect class="st30" x="38.5" y="21.7" width="18" height="6"/>
    <rect class="st28" x="38.5" y="21.7" width="18" height="1"/>
    <path class="st18" d="M44,28.2v-5"/>
    <path class="st16" d="M44,27.2v-5"/>
    <path class="st20" d="M22,41.2v-11"/>
    <path class="st20" d="M27,38.2v-5"/>
    <path class="st20" d="M17,38.2v-5"/>
    <rect class="st28" x="44.5" y="43.7" width="6" height="6"/>
    <rect class="st35" x="44.5" y="42.7" width="6" height="6"/>
    <rect class="st29" x="44.5" y="42.7" width="6" height="1"/>
    <path class="st29" d="M7.6,16.7c-2.3,0-4.1,1.8-4.1,4.1v1c0-2.3,1.8-4.1,4.1-4.1h48.9c2.3,0,4.1,1.8,4.1,4.1v-1c0-2.3-1.8-4.1-4.1-4.1H7.6Z"/>
  </g>
  <g class="st26">
    <ellipse class="st22" cx="30.5" cy="31" rx="30.5" ry="29.6"/>
    <ellipse class="st25" cx="30.5" cy="30" rx="30.5" ry="29.6"/>
    <path class="st28" d="M32.2,9.8c-1.2,0-2.2.2-2.5.6-.6.7-2,5.6-3.8,13.2-1.3,5.5-.4,8.7.5,10.4,1.1,2.2,2,3.5.2,7.8-1.3,3.2-2.6,3.2-3.8,3.3-2.9-.7-5.1-.7-5.4,0-.4,1.1,2.9,3.8,7.4,5.4,4.5,1.6,8.4,2,8.8,1,.3-.8-1.4-2.1-4.1-3.4-1.2-1.2-2.2-2-1.3-5.7,1.8-7.3,4.6-4.8,7.9-9.3,2.8-3.8,3.5-6.8,5.2-11.2,1.7-4.7,2.5-6.9,2.2-7.4-1.5-2.9-7.7-4.7-11.3-4.7h0ZM28.1,19.5c1.8,1.9,3.4,3,4.8,3,3.6.1,6.2-3.9,7.8-1.8-.8,2.5-5.4,17.5-11.6,14.8-5.1-2.2-2.2-13.3-1.1-16Z"/>
    <path class="st30" d="M32.2,8.8c-1.2,0-2.2.2-2.5.6-.6.7-2,5.6-3.8,13.2-1.3,5.5-.4,8.7.5,10.4,1.1,2.2,2,3.5.2,7.8-1.3,3.2-2.6,3.2-3.8,3.3-2.9-.7-5.1-.7-5.4,0-.4,1.1,2.9,3.8,7.4,5.4,4.5,1.6,8.4,2,8.8,1,.3-.8-1.4-2.1-4.1-3.4-1.2-1.2-2.2-2-1.3-5.7,1.8-7.3,4.6-4.8,7.9-9.3,2.8-3.8,3.5-6.8,5.2-11.2,1.7-4.7,2.5-6.9,2.2-7.4-1.5-2.9-7.7-4.7-11.3-4.7h0ZM28.1,18.4c1.8,1.9,3.4,3,4.8,3,3.6.1,6.2-3.9,7.8-1.8-.8,2.5-5.4,17.5-11.6,14.8-5.1-2.2-2.2-13.3-1.1-16Z"/>
    <path class="st23" d="M30.5.3C13.7.3,0,13.6,0,30c0,.2,0,.3,0,.5C.3,14.3,13.9,1.4,30.5,1.4c16.6,0,30.2,12.9,30.5,29.1,0-.2,0-.3,0-.5C61,13.6,47.4.3,30.5.3Z"/>
    <ellipse class="st28" cx="46.9" cy="46.9" rx="16.3" ry="15.9"/>
    <ellipse class="st33" cx="46.9" cy="45.8" rx="16.3" ry="15.9"/>
    <path class="st30" d="M47,35.3c-2.1,0-3.8.7-5.6,1.8l1.5,3.1c1.7-.7,3.1-1.7,5-1.3,1,.2,1.5,1.3,1.3,2.2-.2,1.5-1.6,2.2-2.7,3.1-1.3,1-1.7,2.5-1.7,4.1v1.9h3.8c0-.9-.1-1.9.2-2.8.7-1.2,1.6-1.8,2.6-2.8,1.2-1,2-2.6,1.9-4.2,0-1.8-1-3.6-2.7-4.4-1.1-.5-2.4-.7-3.6-.7ZM46.9,52.2c-.9,0-2,.5-2.1,1.5-.2,1,0,2.3,1.2,2.6,1.1.4,2.6,0,3-1.1.4-1.1,0-2.5-1.2-2.9-.3,0-.5-.1-.8-.1Z"/>
  </g>
  <g class="st26">
    <path class="st5" d="M55.9,26.5c5.7,5.7,5.7,14.9,0,20.5-2.9,2.8-6.6,4.3-10.4,4.3h0s-26.6,0-26.6,0l5.9-14.5,10.4-10.3c5.7-5.6,14.8-5.7,20.5-.2l.2.2Z"/>
    <path class="st12" d="M55.9,26.5c5.7,5.7,5.7,14.9,0,20.5-2.9,2.8-6.6,4.3-10.4,4.3h0s-26.6,0-26.6,0l5.9-14.5,10.4-10.3c5.7-5.6,14.8-5.7,20.5-.2l.2.2Z"/>
    <path class="st10" d="M55.9,26.5c5.7,5.7,5.7,14.9,0,20.5-2.9,2.8-6.6,4.3-10.4,4.3h0s-26.6,0-26.6,0l5.9-14.5,10.4-10.3c5.7-5.6,14.8-5.7,20.5-.2l.2.2Z"/>
    <path class="st8" d="M55.9,26.5c5.7,5.7,5.7,14.9,0,20.5-2.9,2.8-6.6,4.3-10.4,4.3h0s-26.6,0-26.6,0l5.9-14.5,10.4-10.3c5.7-5.6,14.8-5.7,20.5-.2l.2.2Z"/>
    <path class="st14" d="M57.9,29c-.6-.9-1.2-1.7-2-2.5l-.2-.2c-5.7-5.5-14.9-5.4-20.5.2l-10.4,10.3-5.9,14.5h14.8c2-7.8,6.1-14.4,6.1-14.4,0,0,10.4-10.6,18.1-7.9Z"/>
    <path class="st6" d="M57.9,29c-.6-.9-1.2-1.7-2-2.5l-.2-.2c-5.7-5.5-14.9-5.4-20.5.2l-10.4,10.3-.3.8,15.4-.7s10.4-10.6,18.1-7.9Z"/>
    <path class="st4" d="M33.7,51.3c2-7.7,6.1-14.4,6.1-14.4v-13.5c-1.7.7-3.3,1.7-4.7,3.1l-10.4,10.3-5.9,14.5h14.8Z"/>
    <path class="st11" d="M39.8,36.8l-8,7.9-10.4-10.2c-2.9-2.9-4.4-6.7-4.3-10.5,6.7-3,14.7-.6,18.6,5.8v.2c.1,0,4.2,6.9,4.2,6.9Z"/>
    <g>
      <path class="st3" d="M42.2,34.4l-10.4,10.2-10.4-10.2c-5.7-5.7-5.7-14.9,0-20.5,2.9-2.8,6.6-4,10.4-4,3.7,0,7.4,1.1,10.3,3.9l.2.2c5.7,5.7,5.7,14.9,0,20.5Z"/>
      <path class="st15" d="M42.2,34.4l-10.4,10.2-10.4-10.2c-5.7-5.7-5.7-14.9,0-20.5,2.9-2.8,6.6-4,10.4-4,3.7,0,7.4,1.1,10.3,3.9l.2.2c5.7,5.7,5.7,14.9,0,20.5Z"/>
    </g>
    <path class="st13" d="M39.8,36.8l-8,7.9-10.4-10.2c-2.9-2.9-4.4-6.7-4.3-10.5,6.7-3,14.7-.6,18.6,5.8v.2c.1,0,4.2,6.9,4.2,6.9Z"/>
    <path class="st0" d="M39.8,36.8l-8,7.9-10.4-10.2c-2.9-2.9-4.4-6.7-4.3-10.5,6.7-3,14.7-.6,18.6,5.8v.2c.1,0,4.2,6.9,4.2,6.9Z"/>
    <path class="st7" d="M39.8,36.8l-8,7.9-10.4-10.2c-2.9-2.9-4.4-6.7-4.3-10.5,6.7-3,14.7-.6,18.6,5.8v.2c.1,0,4.2,6.9,4.2,6.9Z"/>
    <path class="st9" d="M8.6,26.5c5.7-5.6,14.8-5.7,20.6-.2l.2.2,10.4,10.3-10.4,10.3c-5.7,5.6-14.8,5.7-20.6.2l-.2-.2c-5.7-5.7-5.7-14.9,0-20.5Z"/>
    <path class="st2" d="M8.6,26.5c5.7-5.6,14.8-5.7,20.6-.2l.2.2,10.4,10.3-10.4,10.3c-5.7,5.6-14.8,5.7-20.6.2l-.2-.2c-5.7-5.7-5.7-14.9,0-20.5Z"/>
    <path class="st1" d="M8.6,26.5c5.7-5.6,14.8-5.7,20.6-.2l.2.2,10.4,10.3-10.4,10.3c-5.7,5.6-14.8,5.7-20.6.2l-.2-.2c-5.7-5.7-5.7-14.9,0-20.5Z"/>
  </g>
  <g>
    <path class="st22" d="M7.4,1.6h49.4c1.5,0,2.7,1.4,2.7,3.1v56.8c0,1.7-1.2,3.1-2.7,3.1H7.4c-1.5,0-2.7-1.4-2.7-3.1V4.8c0-1.7,1.2-3.1,2.7-3.1Z"/>
    <path class="st24" d="M7.4.4h49.4c1.5,0,2.7,1.4,2.7,3.1v56.8c0,1.7-1.2,3.1-2.7,3.1H7.4c-1.5,0-2.7-1.4-2.7-3.1V3.5c0-1.7,1.2-3.1,2.7-3.1Z"/>
    <path class="st19" d="M3.6,33.1h19l6.6-17,5.8,33.9,6.6-17h19"/>
    <path class="st17" d="M3.6,31.9h19l6.6-17,5.8,33.9,6.6-17h19"/>
    <path class="st23" d="M7.4.4c-1.5,0-2.7,1.4-2.7,3.1v1.2c0-1.7,1.2-3.1,2.7-3.1h49.4c1.5,0,2.7,1.4,2.7,3.1v-1.2c0-1.7-1.2-3.1-2.7-3.1H7.4Z"/>
  </g>
</svg>