<?xml version="1.0" encoding="UTF-8"?>
<svg id="_图层_1" xmlns="http://www.w3.org/2000/svg" version="1.1" viewBox="0 0 64 64" width="16" height="16">
  <!-- Generator: Adobe Illustrator 29.0.1, SVG Export Plug-In . SVG Version: 2.1.0 Build 192)  -->
  <defs>
    <style>
      .st0, .st1 {
        isolation: isolate;
        opacity: .2;
      }

      .st2 {
        fill: #f4f4f4;
      }

      .st1 {
        fill: #fff;
      }

      .st3 {
        fill: #afafb1;
      }
    </style>
  </defs>
  <path class="st2" d="M50.4,64H13.8c-7.6,0-13.8-6.2-13.8-13.7V13.7C0,6.2,6.2,0,13.7,0h36.5c7.5,0,13.7,6.2,13.7,13.7v36.6c0,7.5-6.2,13.7-13.7,13.7h.1Z"/>
  <g>
    <path class="st0" d="M37,22.4h-10.8s2.7,7.2,2.7,14.3-4.5,5-7.2,5c-5.4,0-5.4-4.2-5.4-9.3,0-8.4,8.1-16.8,8.1-16.8l-15.4,2.5s-2.7,5-2.7,14.3,4.5,18.5,12.6,18.5,12.6-7.1,12.6-7.1c0,0,2.7,7.1,10.1,7.1,10.7,0,15.2-8.4,15.2-16s-2.7-14.3-2.7-14.3l-12.6-2.5s5.4,6.7,5.4,16.8,0,6.7-7.2,6.7-5.4-2.7-5.4-5c0-7.1,2.7-14.3,2.7-14.3Z"/>
    <path class="st3" d="M37,21.5h-10.8s2.7,7.2,2.7,14.3-4.5,5-7.2,5c-5.4,0-5.4-4.2-5.4-9.3,0-8.4,8.1-16.8,8.1-16.8l-15.4,2.5s-2.7,5-2.7,14.3,4.5,18.5,12.6,18.5,12.6-7.1,12.6-7.1c0,0,2.7,7.1,10.1,7.1,10.7,0,15.2-8.4,15.2-16s-2.7-14.3-2.7-14.3l-12.6-2.5s5.4,6.7,5.4,16.8,0,6.7-7.2,6.7-5.4-2.7-5.4-5c0-7.1,2.7-14.3,2.7-14.3Z"/>
    <path class="st1" d="M24.3,14.8l-15.4,2.5,1.8,3.4,13.6-5.9ZM41.5,17.3l10.8,5.9,1.8-3.4-12.6-2.5ZM26.2,21.5l5.4,3.4,5.4-3.4h-10.8Z"/>
    <path class="st0" d="M6.3,31.6c0,10.1,4.5,18.5,12.6,18.5s12.6-7.1,12.6-7.1c0,0,2.7,7.1,10.1,7.1,10.7,0,15.2-8.4,15.2-16,0,0-4.5,11.8-13.6,11.8s-11.7-6.7-11.7-6.7c0,0-4.5,6.7-13.6,6.7s-11.7-14.3-11.7-14.3Z"/>
    <path class="st1" d="M24.3,14.8l-15.4,2.5s-2.7,5-2.7,14.3,0,.2,0,.3c0-8.9,2.7-13.8,2.7-13.8l14.5-2.4c.5-.6.9-1,.9-1ZM41.5,17.3s.3.4.7,1l12,2.4s2.6,4.7,2.7,13.7c0,0,0-.2,0-.3,0-9.4-2.7-14.3-2.7-14.3l-12.6-2.5ZM26.2,21.5s.2.5.3.8h10.3c.1-.4.3-.8.3-.8h-10.8ZM16.2,32.3s0,0,0,.1c0,5,0,9.3,5.4,9.3s7.2-2.7,7.2-5,0-.5,0-.7c-.2,2.3-4.6,4.9-7.2,4.9-5.2,0-5.4-3.8-5.4-8.6ZM46.9,34.7c0,2.5-.5,6.1-7.2,6.1s-5.3-2.5-5.4-4.8c0,.2,0,.4,0,.6,0,2.4,2.7,5,5.4,5,7.2,0,7.2-4.2,7.2-6.7s0-.2,0-.3Z"/>
  </g>
</svg>