<?xml version="1.0" encoding="UTF-8"?>
<svg id="_图层_1" xmlns="http://www.w3.org/2000/svg" version="1.1" viewBox="0 0 64 64" width="16" height="16">
  <!-- Generator: Adobe Illustrator 29.0.1, SVG Export Plug-In . SVG Version: 2.1.0 Build 192)  -->
  <defs>
    <style>
      .st0 {
        stroke: #2f7abb;
      }

      .st0, .st1 {
        fill: none;
        stroke-linecap: round;
        stroke-linejoin: round;
        stroke-width: 4px;
      }

      .st2, .st3, .st4, .st5, .st6, .st7, .st8 {
        display: none;
      }

      .st2, .st3, .st9, .st10, .st11, .st7 {
        isolation: isolate;
      }

      .st2, .st10, .st11, .st7 {
        opacity: .2;
      }

      .st3, .st12, .st11, .st7 {
        fill: #fff;
      }

      .st3, .st9 {
        opacity: .1;
      }

      .st4 {
        fill: #545151;
      }

      .st1 {
        stroke: #ffad42;
      }

      .st13, .st5 {
        fill: #cf6237;
      }

      .st8, .st14 {
        fill: #e4e4e4;
      }
    </style>
  </defs>
  <path class="st13" d="M50.4,64H13.8c-7.6,0-13.8-6.2-13.8-13.7V13.7C0,6.2,6.2,0,13.7,0h36.5c7.5,0,13.7,6.2,13.7,13.7v36.6c0,7.5-6.2,13.7-13.7,13.7h.1Z"/>
  <g class="st6">
    <path class="st10" d="M8,9.3c-.7,0-1.3.5-1.3,1.2v8.4c0,.6.6,1.2,1.3,1.2h38.2v5.5c0,1.4-.5,1.6-1.1,1.9s-1.2.2-1.2.2c-.7,0-1.4.5-1.4,1.2v7.5c0,.6.6,1.2,1.3,1.2h4s0,0,0,0c0,0,2.5,0,5.1-1.3,2.5-1.2,5.2-3.8,5.2-8.3V10.4c0-.6-.6-1.2-1.3-1.2H8ZM32.4,26.6c-3.6,0-6.4,2.6-6.4,5.8s2.9,5.8,6.4,5.8,6.4-2.6,6.4-5.8-2.9-5.8-6.4-5.8ZM17,27.5s0,0,0,0c0,0-2.5,0-5.1,1.3-2.5,1.2-5.2,3.8-5.2,8.3v17.4c0,.6.6,1.2,1.3,1.2h48.9c.7,0,1.3-.5,1.3-1.2v-8.4c0-.6-.6-1.2-1.3-1.2H18.7v-5.5c0-1.4.5-1.6,1.1-1.9s1.2-.2,1.2-.2c.7,0,1.4-.5,1.4-1.2v-7.5c0-.6-.6-1.2-1.3-1.2h-4Z"/>
    <path class="st14" d="M8,8.5c-.7,0-1.3.5-1.3,1.2v8.4c0,.6.6,1.2,1.3,1.2h38.2v5.5c0,1.4-.5,1.6-1.1,1.9s-1.2.2-1.2.2c-.7,0-1.4.5-1.4,1.2v7.5c0,.6.6,1.2,1.3,1.2h4s0,0,0,0c0,0,2.5,0,5.1-1.3,2.5-1.2,5.2-3.8,5.2-8.3V9.6c0-.6-.6-1.2-1.3-1.2H8ZM32.4,25.8c-3.6,0-6.4,2.6-6.4,5.8s2.9,5.8,6.4,5.8,6.4-2.6,6.4-5.8-2.9-5.8-6.4-5.8ZM17,26.6s0,0,0,0c0,0-2.5,0-5.1,1.3-2.5,1.2-5.2,3.8-5.2,8.3v17.4c0,.6.6,1.2,1.3,1.2h48.9c.7,0,1.3-.5,1.3-1.2v-8.4c0-.6-.6-1.2-1.3-1.2H18.7v-5.5c0-1.4.5-1.6,1.1-1.9s1.2-.2,1.2-.2c.7,0,1.4-.5,1.4-1.2v-7.5c0-.6-.6-1.2-1.3-1.2h-4Z"/>
    <path class="st11" d="M8,8.5c-.7,0-1.3.5-1.3,1.2v.8c0-.6.6-1.2,1.3-1.2h48.9c.7,0,1.3.5,1.3,1.2v-.8c0-.6-.6-1.2-1.3-1.2H8ZM46.2,24.6c0,1.4-.5,1.6-1.1,1.9s-1.2.2-1.2.2c-.7,0-1.4.5-1.4,1.2v.8c0-.7.6-1.2,1.4-1.2,0,0,.6,0,1.2-.2s1.1-.5,1.1-1.9v-.8ZM32.4,25.8c-3.6,0-6.4,2.6-6.4,5.8s0,.3,0,.4c.2-3,3-5.4,6.4-5.4s6.2,2.4,6.4,5.4c0-.1,0-.3,0-.4,0-3.2-2.9-5.8-6.4-5.8ZM17,26.6s0,0,0,0c0,0-2.5,0-5.1,1.3-2.5,1.2-5.2,3.8-5.2,8.3v.8c0-4.4,2.6-7,5.2-8.3,2.5-1.2,5.1-1.3,5.1-1.3,0,0,0,0,0,0h4c.7,0,1.3.5,1.3,1.2v-.8c0-.6-.6-1.2-1.3-1.2h-4ZM18.7,44v.8h38.2c.7,0,1.3.5,1.3,1.2v-.8c0-.6-.6-1.2-1.3-1.2H18.7Z"/>
  </g>
  <g class="st6">
    <ellipse class="st2" cx="32" cy="33.2" rx="32" ry="32"/>
    <ellipse class="st4" cx="32" cy="32" rx="32" ry="32"/>
    <path class="st3" d="M32,0C14.3,0,0,14.3,0,32c0,.2,0,.4,0,.7C.3,15.2,14.5,1.2,32,1.1c17.4,0,31.6,13.9,32,31.3,0-.2,0-.3,0-.5C64,14.3,49.7,0,32,0Z"/>
    <path class="st10" d="M32.5,8c-1.8,0-3.7.1-5.5.5C15.6,10.8,7.3,20.4,6.7,31.8l48.2-9.7c-4.2-8.5-12.8-14-22.4-14.1ZM47.7,26.8l-11.1,2.2c0,.3,0,.5,0,.8.6,3,3.6,5,6.7,4.4,0,0,0,0,0,0,3.1-.6,5.1-3.6,4.5-6.6,0-.3-.1-.5-.2-.8ZM24.7,31.3l-11,2.2c0,.3,0,.5,0,.8.6,3,3.6,5,6.7,4.4,0,0,0,0,0,0,3.1-.6,5-3.6,4.4-6.6,0-.3-.1-.5-.2-.8ZM57.4,34.5l-48.2,9.7c5.1,10.3,16.5,15.9,27.9,13.6,11.3-2.3,19.7-11.9,20.3-23.3Z"/>
    <path class="st12" d="M32.5,6.9c-1.8,0-3.7.1-5.5.5C15.6,9.7,7.3,19.2,6.7,30.7l48.2-9.7c-4.2-8.5-12.8-14-22.4-14.1ZM47.7,25.7l-11.1,2.2c0,.3,0,.5,0,.8.6,3,3.6,5,6.7,4.4,0,0,0,0,0,0,3.1-.6,5.1-3.6,4.5-6.6,0-.3-.1-.5-.2-.8ZM24.7,30.2l-11,2.2c0,.3,0,.5,0,.8.6,3,3.6,5,6.7,4.4,0,0,0,0,0,0,3.1-.6,5-3.6,4.4-6.6,0-.3-.1-.5-.2-.8ZM57.4,33.3l-48.2,9.7c5.1,10.3,16.5,15.9,27.9,13.6,11.3-2.3,19.7-11.9,20.3-23.3Z"/>
  </g>
  <g class="st6">
    <path class="st2" d="M32.1,1.3c-1.8,0-3.5.5-5,1.6L3.9,18.9C1.5,20.5,0,23.2,0,26.1v26.4s-.1,2.8,1.4,5.8c1.5,3.1,6.3,7,11.3,7h38.6c5,0,9.8-3.9,11.3-7,1.5-3.1,1.4-5.8,1.4-5.8v-26.4c0-2.9-1.4-5.6-3.8-7.2L37,2.9c-1.5-1-3.2-1.6-5-1.6Z"/>
    <path class="st8" d="M32.1.1c-1.8,0-3.5.5-5,1.6L3.9,17.7C1.5,19.4,0,22.1,0,25v26.4s-.1,2.8,1.4,5.8c1.5,3.1,6.3,7,11.3,7h38.6c5,0,9.8-3.9,11.3-7,1.5-3.1,1.4-5.8,1.4-5.8v-26.4c0-2.9-1.4-5.6-3.8-7.2L37,1.7c-1.5-1-3.2-1.6-5-1.6Z"/>
    <path class="st9" d="M32,8.2c-.5,0-.9.1-1.3.4L7.9,24.2c-.6.4-1,1.1-1,1.9v9.1c0,.8.4,1.6,1.2,2l22.8,12.9c.7.4,1.6.4,2.3,0l13.4-7.8c.8-.3,1.4-1.1,1.4-2,0,0,0,0,0,0,0,0,0,0,0,0v-7.3c0-2.7-1.7-4.7-3.2-5.5s-3-.9-3-.9c0,0,0,0-.1,0h-19.3c0,0-.2,0-.3,0,0,0-1.3.1-2.7.8s-3.3,2.4-3.3,4.9c0,1.3,1,2.3,2.3,2.3,1.3,0,2.3-1,2.3-2.3,0,0,0,0,0,0,0-.4.1-.5.7-.8.6-.3,1.2-.4,1.2-.4h19s.6,0,1.1.3c.5.3.8.4.8,1.5v6l-11.4,6.7-20.5-11.6v-6.6l20.5-14.1,20.5,14.1v24.8c0,0,0,.1,0,.2,0,0,0,.6-.2,1s0,.6-1.1.6H13.2c-1.1,0-1.1-.3-1.4-.8s-.3-1.1-.3-1.1v-8.4c0-1.3-1-2.3-2.3-2.3s-2.3,1-2.3,2.3c0,0,0,0,0,0v8.5s0,0,0,0c0,0,0,1.5.8,3s2.7,3.3,5.5,3.3h38.2c2.7,0,4.7-1.9,5.3-3.5.5-1.4.5-2.6.5-2.9v-25.9c0-.8-.4-1.5-1-1.9l-22.8-15.7c-.4-.3-.8-.4-1.3-.4Z"/>
    <path class="st0" d="M9.2,42.5v8.5s.1,4.1,4,4.1h38.2c3.9,0,3.5-4.1,3.5-4.1v-26l-22.8-15.7-22.8,15.7v9.1l22.8,12.9,13.7-8"/>
    <path class="st1" d="M45.7,39v-7.3c0-3.9-4-4.1-4-4.1h-19.3s-4,.5-4,3.4"/>
    <path class="st7" d="M32.1.1c-1.8,0-3.5.5-5,1.6L3.9,17.7C1.5,19.4,0,22.1,0,25v1.1c0-2.9,1.4-5.6,3.8-7.2L27,2.9c1.5-1,3.2-1.6,5-1.6,1.8,0,3.5.6,5,1.6l23.2,16c2.4,1.6,3.8,4.4,3.8,7.2v-1.1c0-2.9-1.4-5.6-3.8-7.2L37,1.7c-1.5-1-3.2-1.6-5-1.6Z"/>
  </g>
  <g>
    <ellipse class="st2" cx="32" cy="33" rx="32" ry="32.2"/>
    <ellipse class="st5" cx="32" cy="31.9" rx="32" ry="32.2"/>
    <path class="st7" d="M32-.4C14.3-.4,0,14.1,0,31.9c0,.2,0,.4,0,.7C.3,14.9,14.5.8,32,.8c17.4,0,31.6,14,32,31.6,0-.2,0-.3,0-.5C64,14.1,49.7-.4,32-.4Z"/>
    <path class="st10" d="M32,21.5c-6.3,0-11.4,5.2-11.4,11.5s5.1,11.5,11.4,11.5,11.4-5.2,11.4-11.5-5.1-11.5-11.4-11.5ZM32,24.8c4.5,0,8.2,3.7,8.2,8.2s-3.7,8.2-8.2,8.2-8.2-3.7-8.2-8.2,3.7-8.2,8.2-8.2Z"/>
    <path class="st12" d="M32,20.4c-6.3,0-11.4,5.2-11.4,11.5s5.1,11.5,11.4,11.5,11.4-5.2,11.4-11.5-5.1-11.5-11.4-11.5ZM32,23.7c4.5,0,8.2,3.7,8.2,8.2s-3.7,8.2-8.2,8.2-8.2-3.7-8.2-8.2,3.7-8.2,8.2-8.2Z"/>
    <path class="st10" d="M31.3,9.9c-7.8.4-14,6.8-14,14.7-1.4.7-2.7,1.6-3.9,2.8-5.5,5.5-5.7,14.3-.7,20.2-3.2-3.9-2.9-9.6.7-13.2,3.8-3.9,10-3.9,13.9,0,3.8,3.9,3.8,10.1,0,14-3.6,3.7-9.5,3.9-13.3.5,5.1,4.7,12.5,5.1,18.1,1.4,5.5,3.7,13,3.3,18.1-1.4-3.9,3.4-9.7,3.2-13.3-.5-3.8-3.9-3.8-10.1,0-14,3.8-3.9,10-3.9,13.9,0,3.6,3.6,3.8,9.3.7,13.2,5.1-5.9,4.8-14.7-.7-20.2-1.2-1.2-2.5-2.1-3.9-2.8,0-7.8-6-14.2-13.7-14.7,5,.5,8.8,4.8,8.8,9.8,0,5.5-4.4,9.9-9.8,9.9s-9.8-4.4-9.8-9.9c0-5.2,4-9.5,9.1-9.8ZM32,31.2l2.4,2.5-2.4,2.5-2.4-2.5,2.4-2.5Z"/>
    <path class="st12" d="M31.3,8.7c-7.8.4-14,6.8-14,14.7-1.4.7-2.7,1.6-3.9,2.8-5.5,5.5-5.7,14.3-.7,20.2-3.2-3.9-2.9-9.6.7-13.2,3.8-3.9,10-3.9,13.9,0,3.8,3.9,3.8,10.1,0,14-3.6,3.7-9.5,3.9-13.3.5,5.1,4.7,12.5,5.1,18.1,1.4,5.5,3.7,13,3.3,18.1-1.4-3.9,3.4-9.7,3.2-13.3-.5-3.8-3.9-3.8-10.1,0-14,3.8-3.9,10-3.9,13.9,0,3.6,3.6,3.8,9.3.7,13.2,5.1-5.9,4.8-14.7-.7-20.2-1.2-1.2-2.5-2.1-3.9-2.8,0-7.8-6-14.2-13.7-14.7,5,.5,8.8,4.8,8.8,9.8,0,5.5-4.4,9.9-9.8,9.9s-9.8-4.4-9.8-9.9c0-5.2,4-9.5,9.1-9.8ZM32,30.1l2.4,2.5-2.4,2.5-2.4-2.5,2.4-2.5Z"/>
  </g>
</svg>