<?xml version="1.0" encoding="UTF-8"?>
<svg id="_图层_1" data-name="图层_1" xmlns="http://www.w3.org/2000/svg" version="1.1" xmlns:xlink="http://www.w3.org/1999/xlink" viewBox="0 0 1024 1024" width="16" height="16">
  <!-- Generator: Adobe Illustrator 29.0.1, SVG Export Plug-In . SVG Version: 2.1.0 Build 192)  -->
  <defs>
    <style>
      .st0 {
        fill: url(#_未命名的渐变_7);
      }

      .st1 {
        fill: #feffff;
      }
    </style>
    <linearGradient id="_未命名的渐变_7" data-name="未命名的渐变 7" x1="824.9" y1="1054.2" x2="204.1" y2="-21.2" gradientUnits="userSpaceOnUse">
      <stop offset="0" stop-color="#42bf87"/>
      <stop offset="1" stop-color="#44c48a"/>
    </linearGradient>
  </defs>
  <rect class="st0" x="13" y="15" width="1003" height="1003" rx="175.5" ry="175.5"/>
  <path class="st1" d="M286.8,144.7l249.1,133.1c38.6,31.2,49.9,62.4,33.7,93.7l-88.2,224.3,2.6,2.5,161.7-87.9-2.6-3.3-13.8-9.9c-6-5.3-10-9.4-12.1-12.3-1.4-2-3.4-6.4-6.1-13.1-3.3-8.2-5.3-14.2-6.1-18.1-1.6-8.8-2.1-16.2-1.7-22.2.3-4.4,1.7-9.8,4.3-16.4,1.8-4.7,4.4-9.3,7.8-14,4.6-6.6,8.9-11.5,13-14.8,6.9-5.6,14.7-10.6,23.4-14.8,4.9-2.3,10.7-4,17.3-4.9,2.5-.4,8.3-.4,17.3,0,8.5.4,14.5.9,18.2,1.6,4.6,1.1,7.2,2.2,7.8,3.3l105.5,56.7,29.4,17.3c6.5,3.9,10.5,6.7,12.1,8.2,7.2,6.8,12.1,12.6,14.7,17.3,5.6,9.8,8.5,18,8.6,24.6.4,19.1-1.9,33.6-6.9,43.5-11.5,22.5-22.5,34-32.9,34.5l-77,43.5-186.8,101.9-288.9,159.4c-4.6,2.2-8.1,2.2-10.4,0l-17.3,1.6c-6.9-.3-13.6-1.4-19.9-3.3-8.4-2.3-15.6-5.3-21.6-9-6-3.7-11.7-8.6-17.3-14.8-3.7-4.1-6.6-8.8-8.6-14-3.7-9.1-6-17.4-6.9-24.6-1-7.7-.7-15.6.9-23.8.6-3.7,2.9-9.5,6.9-17.3,3.2-6.4,6.3-11.3,9.5-14.8,6-6.3,12.4-11.8,19-16.4,1.1-.7,7.4-4,19-9.9l10.4-4.9,10.4-5.8,3.5-4.1,25.1-67.4,108.1-267.8v-3.3l-107.2-58.3-75.2-41.9c-2.1-1.3-5.3-3.7-9.5-7.4-5.3-4.6-8.5-7.6-9.5-9-5.3-7.4-9.4-14.5-12.1-21.4-2.2-5-3.3-10.8-3.5-17.3-.4-11.3.5-20.3,2.6-27.1,2.5-8.7,7.1-17.2,13.8-25.5,3.7-4.3,10.6-10.1,20.8-17.3,6.3-4.5,11.7-7.5,16.4-9,3-1,9.1-1.8,18.2-2.5,7.1-.4,12.8-.4,17.3,0,6.9.5,11.5,1.4,13.8,2.5Z"/>
</svg>
